<?xml version="1.0" encoding="UTF-8" standalone="no"?>
<svg
   xmlns:dc="http://purl.org/dc/elements/1.1/"
   xmlns:cc="http://creativecommons.org/ns#"
   xmlns:rdf="http://www.w3.org/1999/02/22-rdf-syntax-ns#"
   xmlns:svg="http://www.w3.org/2000/svg"
   xmlns="http://www.w3.org/2000/svg"
   viewBox="0 0 1056 816"
   height="816"
   width="1056"
   xml:space="preserve"
   id="svg2"
   version="1.1"><metadata
     id="metadata8"><rdf:RDF><cc:Work
         rdf:about=""><dc:format>image/svg+xml</dc:format><dc:type
           rdf:resource="http://purl.org/dc/dcmitype/StillImage" /></cc:Work></rdf:RDF></metadata><defs
     id="defs6"><clipPath
       id="clipPath18"
       clipPathUnits="userSpaceOnUse"><path
         id="path16"
         d="M 0,612 H 792 V 0 H 0 Z" /></clipPath><clipPath
       id="clipPath38"
       clipPathUnits="userSpaceOnUse"><path
         id="path36"
         d="M 0,612 H 792 V 0 H 0 Z" /></clipPath></defs><g
     transform="matrix(1.3333333,0,0,-1.3333333,0,816)"
     id="g10"><g
       id="g12"><g
         clip-path="url(#clipPath18)"
         id="g14"><g
           transform="translate(431.2227,352.7197)"
           id="g20"><path
             id="path22"
             style="fill:#3c6eaf;fill-opacity:1;fill-rule:nonzero;stroke:none"
             d="m 0,0 c 0,-28.772 -23.324,-52.097 -52.096,-52.097 -28.772,0 -52.096,23.325 -52.096,52.097 0,28.772 23.324,52.097 52.096,52.097 C -23.324,52.097 0,28.772 0,0" /></g><g
           transform="translate(438.5488,352.7197)"
           id="g24"><path
             id="path26"
             style="fill:none;stroke:#3c6eaf;stroke-width:2;stroke-linecap:butt;stroke-linejoin:miter;stroke-miterlimit:10;stroke-dasharray:none;stroke-opacity:1"
             d="m 0,0 c 0,-32.818 -26.604,-59.423 -59.422,-59.423 -32.818,0 -59.423,26.605 -59.423,59.423 0,32.818 26.605,59.422 59.423,59.422 C -26.604,59.422 0,32.818 0,0 Z" /></g></g></g><g
       id="text30"
       style="font-variant:normal;font-weight:normal;font-stretch:normal;font-size:71.78399658px;font-family:'Gotham Book';-inkscape-font-specification:Gotham-Book;writing-mode:lr-tb;fill:#231f20;fill-opacity:1;fill-rule:nonzero;stroke:none"
       transform="matrix(1,0,0,-1,298.6172,218.5684)"
       aria-label="ADE"><path
         id="path52"
         style=""
         d="M 24.535546,-45.355709 14.931632,-19.31298 H 34.17451 Z m -3.995789,-6.975105 h 8.026628 L 48.510279,0 H 41.149615 L 36.382709,-13.424449 H 12.793535 L 8.0266285,0 H 0.56081247 Z" /><path
         id="path54"
         style=""
         d="m 70.834822,-46.512385 v 40.6939556 h 8.552391 q 10.83069,0 15.842952,-4.9071096 5.047315,-4.907109 5.047315,-15.492444 0,-10.515234 -5.047315,-15.387292 -5.012262,-4.90711 -15.842952,-4.90711 z m -7.080257,-5.818429 h 14.546073 q 15.212039,0 22.327352,6.344191 7.1153,6.309141 7.1153,19.76864 0,13.529601 -7.15036,19.8737919 Q 93.442575,0 78.300638,0 H 63.754565 Z" /><path
         id="path56"
         style=""
         d="m 119.88964,-52.330814 h 33.08794 v 5.958633 H 126.9699 v 15.492444 h 24.92111 v 5.958633 H 126.9699 v 18.9624715 h 26.63859 V 0 h -33.71885 z" /></g><g
       id="g32"><g
         clip-path="url(#clipPath38)"
         id="g34"><g
           transform="translate(390.3818,345.7314)"
           id="g40"><path
             id="path42"
             style="fill:none;stroke:#ffffff;stroke-width:3;stroke-linecap:butt;stroke-linejoin:miter;stroke-miterlimit:10;stroke-dasharray:none;stroke-opacity:1"
             d="m 0,0 16.2,-16.2 c 1.179,-1.178 1.179,-3.089 0,-4.267 -1.179,-1.179 -3.089,-1.179 -4.266,0 l -16.201,16.2" /></g><g
           transform="translate(394.8477,359.0288)"
           id="g44"><path
             id="path46"
             style="fill:none;stroke:#ffffff;stroke-width:3;stroke-linecap:butt;stroke-linejoin:miter;stroke-miterlimit:10;stroke-dasharray:none;stroke-opacity:1"
             d="m 0,0 c 0,-12.167 -9.863,-22.03 -22.03,-22.03 -12.167,0 -22.031,9.863 -22.031,22.03 0,12.167 9.864,22.03 22.031,22.03 C -9.863,22.03 0,12.167 0,0 Z" /></g><g
           transform="translate(374.2515,374.1914)"
           id="g48"><path
             id="path50"
             style="fill:none;stroke:#ffffff;stroke-width:3;stroke-linecap:butt;stroke-linejoin:miter;stroke-miterlimit:10;stroke-dasharray:none;stroke-opacity:1"
             d="m 0,0 c -4.246,0.14 -8.536,-1.395 -11.777,-4.635 -3.241,-3.241 -4.775,-7.532 -4.636,-11.777" /></g></g></g></g></svg>