<svg xmlns="http://www.w3.org/2000/svg" role="img" xmlns:xlink="http://www.w3.org/1999/xlink" viewBox="-2.95 -2.83 146.90 46.52"><title>Apache Camel K logo</title><defs><linearGradient id="d" x1="333.483" x2="477.002" y1="702.6" y2="563.73" gradientUnits="userSpaceOnUse" xlink:href="#a"/><linearGradient id="a" x1="-4229.666" x2="-3987.589" y1="-4143.64" y2="-3860.573" gradientTransform="rotate(-65.001 1574.507 -5825.792)" gradientUnits="userSpaceOnUse"><stop offset="0" stop-color="#f69923"/><stop offset=".11" stop-color="#f79a23"/><stop offset=".945" stop-color="#e97826"/></linearGradient><linearGradient id="e" x1="333.483" x2="477.002" y1="702.6" y2="563.73" gradientUnits="userSpaceOnUse" xlink:href="#b"/><linearGradient id="b" x1="-4229.666" x2="-3987.589" y1="-4143.64" y2="-3860.573" gradientTransform="rotate(-65.001 1574.507 -5825.792)" gradientUnits="userSpaceOnUse"><stop offset="0" stop-color="#f69923"/><stop offset=".08" stop-color="#f79a23"/><stop offset=".419" stop-color="#e97826"/></linearGradient><linearGradient id="f" x1="633.551" x2="566.471" y1="814.599" y2="909.117" gradientUnits="userSpaceOnUse" xlink:href="#c"/><linearGradient id="c" x1="-4229.666" x2="-3987.589" y1="-4143.64" y2="-3860.573" gradientTransform="rotate(-65.001 1574.507 -5825.792)" gradientUnits="userSpaceOnUse"><stop offset="0" stop-color="#f6e423"/><stop offset=".412" stop-color="#f79a23"/><stop offset=".733" stop-color="#e97826"/></linearGradient></defs><path d="M63.32262 21.17806c2.9818 0 4.334 1.66426 4.61138 3.57122h.76278l-.34672-4.40334h-.79745c0 .41606-.17336.69344-.41607.69344-.65877 0-2.08032-1.04016-3.84859-1.04016-5.4435 0-10.50562 4.05663-10.50562 10.78299 0 5.27014 3.53655 10.19357 9.98554 10.19357 4.26465 0 6.27563-2.42705 7.14243-4.50736l-.83213-.41607c-.6241 1.69893-3.18982 3.74458-5.61686 3.74458-3.60589 0-7.07309-3.32852-7.07309-9.7775 0-5.27014 2.9818-8.84137 6.9344-8.84137m11.38975 6.76104c.34672-1.3522 1.7336-1.66425 3.53655-1.66425 2.70441 0 3.4672 1.90696 3.4672 5.61686-3.50187 1.00549-9.7775 1.62959-9.7775 4.85408 0 3.32851 2.28835 4.22999 5.2008 4.22999 2.42703 0 4.09129-.76279 5.09678-1.4909.55475 1.1095 1.45622 1.42155 2.46171 1.42155 2.39236 0 3.18982-.58942 3.18982-1.87229h-.6241c0 .48541-.58942.83213-1.17884.83213s-1.2482-.55475-1.2482-2.14966v-6.86506c0-3.2245-1.69892-5.8249-6.24095-5.8249-3.64056 0-5.72088 1.38689-5.72088 3.81393 0 1.04016.58942 1.7336 1.4909 1.7336.7281 0 1.56023-.34672 1.56023-1.21352 0-1.07484-.65876-1.42156-1.21352-1.42156m7.21178 10.67898c-1.07483.65877-2.80843 1.17885-4.19531 1.17885-1.56024 0-2.56573-.6241-2.56573-2.9818 0-2.80842 4.12597-3.39785 6.553-4.16063v4.0913c0 .7281.06935 1.3522.20804 1.87228m6.70632 2.01098h7.48916v-.72812c-1.45623 0-1.9763-.20803-2.18434-.69344V27.73107c.79745-.72811 2.04565-1.52557 3.64056-1.52557 2.08032 0 2.91245 1.0055 2.91245 4.05663v8.94537c-.20803.48541-.72812.69344-2.18434.69344v.72812h7.48915v-.72812c-1.45622 0-1.9763-.20803-2.18433-.69344V28.97926c0-.38139-.03467-.76278-.13869-1.1095.79745-.76278 2.08032-1.66426 3.77925-1.66426 2.08032 0 2.91245 1.0055 2.91245 4.05663v8.94537c-.20804.48541-.72812.69344-2.18434.69344v.72812h7.48915v-.72812c-1.45622 0-1.9763-.20803-2.18433-.69344V28.97926c0-2.49638-1.73361-3.9526-5.8249-3.9526-1.94163 0-3.4672 1.1095-4.334 2.01097-.76278-1.28286-2.46171-2.01097-5.33949-2.01097-1.62958 0-2.94712.79745-3.84859 1.56024v-1.56024c-1.56024 0-3.95261 1.4909-5.30482 1.4909v.79745c.52008 0 1.31754.10401 2.18434.17336V39.2075c-.20803.48541-.72811.69344-2.18434.69344v.72812m31.94538-8.35596h11.1297c0-3.81391-2.08032-7.24644-7.28111-7.24644-4.64605 0-7.14243 3.32851-7.14243 7.21177 0 7.00374 4.29933 8.73735 7.48915 8.73735 3.60588 0 5.54752-1.04017 6.86505-3.18983l-.83212-.41606c-1.38688 1.7336-2.84311 2.28835-4.85408 2.28835-2.73909 0-5.30482-3.50188-5.37416-7.38514m.03467-1.07483c.31205-3.18982 2.14966-5.13145 3.67523-5.13145 3.0858 0 3.77925 2.25368 4.02195 5.13145h-7.69718m13.11251 9.43079h7.48916v-.72812c-1.45623 0-1.9763-.20803-2.18434-.69344V18.7857c-1.56024 0-3.9526 1.4909-5.30482 1.4909v.79745c.52008 0 1.31754.10401 2.18434.17336v17.9601c-.20803.4854-.72811.69343-2.18434.69343v.72812" fill="#6c5d53"/><path fill="#d22128" d="M53.10516 14.37759l3.05151-7.29404h.58565l3.0515 7.29404h-.77058l-.94566-2.28093h-3.27713l-.93457 2.28093zm3.34988-6.45195l-1.50048 3.60633h2.95904zm4.12663 6.45195V7.08355h3.02069c1.2539 0 2.15763 1.16142 2.15763 2.2908 0 1.19224-.8421 2.31174-2.09599 2.31174h-2.3734v2.6915zm.70894-3.32893h2.33148c.86305 0 1.41787-.79154 1.41787-1.67432 0-.91484-.67811-1.6546-1.47952-1.6546H61.2906zm4.06991 3.32893l3.05151-7.29404h.58565l3.0515 7.29404h-.77058l-.94566-2.28093h-3.27713l-.93457 2.28093zm3.34865-6.45195l-1.50048 3.60633h2.95904zm6.791-.88278c1.29458 0 2.239.65716 2.69149 1.59295l-.57578.34892c-.46235-.96538-1.3661-1.29458-2.15763-1.29458-1.74707 0-2.70136 1.56213-2.70136 3.03055 0 1.61268 1.18115 3.07124 2.73218 3.07124.82237 0 1.78775-.41057 2.2501-1.35623l.59551.30824c-.47221 1.08868-1.7668 1.69528-2.8863 1.69528-2.00351 0-3.4103-1.91105-3.4103-3.76045 0-1.75693 1.26253-3.63592 3.46209-3.63592zm9.59099.04069v7.29404h-.7188v-3.4103h-4.32513v3.4103h-.70894V7.08355h.70894v3.24631h4.32513V7.08355zm6.5481 6.6566v.63744h-4.9009V7.08355h4.80843v.63743h-4.0995v2.62984h3.5755v.60537h-3.5755v2.78397z"/><path fill="#6d6e71" d="M93.43688 7.00957c.11097.11097.16645.24536.16645.40194 0 .15658-.05548.29097-.16645.40317-.11096.1122-.24659.16891-.4044.16891-.15905 0-.29344-.05548-.40317-.16644-.10973-.11097-.16521-.24536-.16521-.40194 0-.15658.05548-.29097.16644-.40317.11097-.1122.24536-.16891.40317-.16891.15782 0 .2922.05548.40317.16644zm-.04808.75826c.0974-.09864.14548-.217.14548-.35509 0-.13809-.04808-.25521-.14425-.35261-.09617-.0974-.21453-.14672-.35385-.14672s-.25768.04931-.35509.14672c-.09617.09863-.14548.217-.14548.35508 0 .13809.04808.25645.14302.35385.09617.0974.2133.14672.35262.14672s.26015-.04932.35755-.14795zm-.08014-.46482c0 .10234-.04439.16645-.1344.19234l.16399.22193h-.13193l-.14795-.2059h-.13562v.2059h-.10727V7.1008h.2318c.0937 0 .16028.01603.20096.04809.04069.03205.06042.08384.06042.15411zm-.13686.0863c.02096-.01725.03206-.04684.03206-.08753s-.0111-.06904-.0333-.08384c-.02218-.01603-.0604-.02343-.11712-.02343h-.1307v.22193h.12823c.05918 0 .09864-.00862.12083-.02712z"/><g><circle cx="412.333" cy="629.226" r="63.02" fill="url(#d)" stroke="url(#e)" stroke-linejoin="round" stroke-width="5" transform="translate(-96.783 -252.195) scale(.3152) translate(-36.805 240.872) scale(.99206)"/><path fill="url(#f)" d="M573.3125 817.40625c-.88906-.001-1.78972.005-2.6875.0312-1.0437.0308-2.44587.36218-4.0625.90625 27.30936 20.73702 37.12671 58.14612 20.25 90.65625.57317.0149 1.14197.0625 1.71875.0625 30.8438 0 56.61984-21.49325 63.28125-50.3125-19.57261-22.9434-46.11809-41.29445-78.5-41.34375z" opacity=".75" transform="translate(-164.95 -245.562) scale(.3152)"/><path fill="#28170b" d="M13.6305 12.37995c-2.8583.96194-8.31106 4.3503-13.5536 8.87485.39814 10.77836 9.12864 19.41844 19.9364 19.7 5.31954-10.2472 2.22511-22.03854-6.3828-28.57485z" opacity=".75"/><path fill="#fff" d="M21.11607 8.58653c-.1489-.01012-.29361.00895-.4334.0788-1.76487.8829 0 4.4128 0 4.4128-5.29744 4.41548-4.172 11.9579-10.35235 11.9579-3.36912 0-6.72072-3.87487-10.25385-6.2449-.04548.55895-.0788 1.12352-.0788 1.6942 0 7.727 4.2584 14.45605 10.54935 17.9861 1.75969-.22165 3.51685-.6663 4.83635-1.54645 6.93187-4.62156 8.65297-13.41383 11.4851-17.66105 1.76392-2.64967 10.03103-2.41976 10.58875-3.53615.88385-1.76582-1.76578-4.4128-2.64965-4.4128h-7.06245c-.49345 0-1.26877-.87665-1.76315-.87665h-2.64965s-1.17396-1.78097-2.21625-1.8518z"/></g></svg>