<?xml version="1.0" encoding="UTF-8" standalone="no"?>
<svg
   role="img"
   viewBox="-4.53 -4.53 248.82 41.82"
   version="1.1"
   id="svg4"
   xmlns:xlink="http://www.w3.org/1999/xlink"
   xmlns="http://www.w3.org/2000/svg"
   xmlns:svg="http://www.w3.org/2000/svg">
  <defs
     id="defs4" />
  <title
     id="title1">Broadcom Corporation logo</title>
  <path
     d="M237.32 9.09c-1.06 0-1.93-.86-1.93-1.92s.87-1.93 1.93-1.93 1.93.87 1.93 1.93-.87 1.92-1.93 1.92m0-4.32c-1.32 0-2.4 1.08-2.4 2.4 0 1.32 1.08 2.4 2.4 2.4 1.32 0 2.4-1.08 2.4-2.4 0-1.32-1.08-2.4-2.4-2.4"
     id="path1" />
  <path
     d="M237.48 7.07l-.51.01-.01-.62h.51c.19-.01.34.11.34.3.01.19-.14.31-.33.31m.83-.32c-.01-.42-.3-.72-.77-.72l-1.07.02.03 2.26h.49l-.01-.81h.35l.46.8.55-.01-.52-.86c.24-.06.49-.28.49-.68M51.8341 23.1805h-5.999V9.3465h5.835c1.574 0 2.557 1.016 2.557 2.393 0 1.377-.983 2.36-2.557 2.36H45v4h6.8341c1.836 0 2.819 1.18 2.819 2.556 0 1.574-1.049 2.525-2.819 2.525m3.376-7.245c2.066-.426 3.771-2.262 3.771-5.015 0-2.918-2.131-5.573-6.295-5.573h-11.506v21.865h11.867c4.163 0 6.359-2.623 6.359-5.901 0-2.754-1.868-5.015-4.196-5.376m17.8225-.5902H68v4.098h3.5576l4.294 7.769h5.343l-4.917-8.327c2.361-.557 4.786-2.622 4.786-6.49m0 0c0-4.065-2.786-7.048-7.343-7.048h-10.228v21.865h4.655V9.4453h4.885c1.869 0 3.278 1.114 3.278 2.95s-1.409 2.95-3.278 2.95m43.4206 4.0652l3.409-9.408 3.41 9.408zm.492-14.063l-8.458 21.865h5.31l1.377-3.704h9.376l1.344 3.704h5.311l-8.425-21.865zm26.9039 17.7671h-3.967v-13.67h3.967c4.491 0 6.851 2.983 6.851 6.852 0 3.704-2.524 6.818-6.851 6.818m0-17.767h-8.622v21.865h8.622c6.851 0 11.604-4.327 11.604-10.916s-4.753-10.949-11.604-10.949m82.1269-.0045l-5.734 9.27-5.734-9.27h-5.146v21.869h4.656v-14.293l5.012 7.622c.574.871 1.851.871 2.424 0l5.013-7.622v14.293h4.656V5.3431z"
     id="path2" />
  <path
     id="a"
     d="M95.8253 23.3441c-3.871 0-7.008-3.138-7.008-7.008 0-3.871 3.137-7.009 7.008-7.009 3.87 0 7.008 3.138 7.008 7.009 0 3.87-3.138 7.008-7.008 7.008m0-18.536c-6.367 0-11.528 5.161-11.528 11.528 0 6.366 5.161 11.527 11.528 11.527 6.366 0 11.528-5.161 11.528-11.527 0-6.367-5.162-11.528-11.528-11.528" />
  <path
     d="M176.4035 19.7269c-1.195 2.156-3.492 3.617-6.132 3.617-3.87 0-7.008-3.138-7.008-7.008 0-3.871 3.138-7.008 7.008-7.008 2.618 0 4.897 1.438 6.1 3.565l3.27-3.269c-2.092-2.915-5.508-4.816-9.37-4.816-6.367 0-11.527 5.161-11.527 11.528 0 6.366 5.16 11.528 11.527 11.528 3.883 0 7.316-1.922 9.404-4.865z"
     id="path3" />
  <use
     transform="translate(98.718)"
     xlink:href="#a"
     id="use3" />
  <ellipse
     cx="16.52"
     cy="16.497"
     fill="#cc092f"
     rx="16.236"
     ry="16.235"
     id="ellipse3" />
  <path
     fill="#fff"
     d="M30.8253 20.8832c-1.857-.74-3.557-.492-5.261.541 0 0-.621.379-.807.496-.794.498-1.543.97-2.263.97-.687 0-1.363-.184-1.649-1.513-.446-2.073-1.534-7.167-2.009-9.69-.279-1.483-.432-2.282-.591-2.825-.28-.954-.792-1.473-1.519-1.556 0 0-.114-.016-.207-.016-.092 0-.218.018-.218.018-.72.086-1.229.605-1.507 1.554-.159.543-.312 1.342-.591 2.825-.475 2.523-1.563 7.617-2.009 9.69-.286 1.329-.962 1.513-1.649 1.513-.72 0-1.469-.472-2.263-.97-.186-.117-.808-.496-.808-.496-1.703-1.033-3.404-1.281-5.26-.541-.401.16-.79596.33918-1.17196.52018.257.806.57693 1.59925.94993 2.34425.411-.202.84203-.40243 1.28203-.53243.634-.187 1.284-.197 1.914.014.612.205 1.157.568 1.7.909 1.023.643 2.182 1.372 3.657 1.372 2.186 0 3.72-1.305 4.21-3.581.38-1.764 1.222-5.702 1.763-8.418 0 0 1.386 6.654 1.765 8.418.49 2.276 2.025 3.581 4.211 3.581 1.475 0 2.634-.729 3.657-1.372.543-.341 1.088-.704 1.7-.909.629-.211 1.28-.201 1.914-.014.44.13.87039.33065 1.28139.53265.374-.745.69309-1.53862.95009-2.34462-.376-.181-.77048-.36003-1.17148-.52003"
     id="path4" />
  <path
     d="M 43.926605,50 H 42.896332 L 42.183441,47.973633 H 39.03891 L 38.326019,50 h -0.981445 l 2.646484,-7.270508 h 1.289063 z m -2.041015,-2.856445 -1.274414,-3.569336 -1.279297,3.569336 z m 7.90039,-2.216797 q 0,0.483398 -0.170898,0.898437 -0.166016,0.410157 -0.46875,0.712891 -0.375977,0.375976 -0.888672,0.566406 -0.512695,0.185547 -1.293945,0.185547 H 45.996918 V 50 h -0.966797 v -7.270508 h 1.972656 q 0.654297,0 1.108399,0.112305 0.454101,0.107422 0.805664,0.341797 0.415039,0.27832 0.639648,0.693359 0.229492,0.415039 0.229492,1.049805 z m -1.005859,0.02441 q 0,-0.375977 -0.131836,-0.654297 -0.131836,-0.27832 -0.400391,-0.454102 -0.234375,-0.151367 -0.537109,-0.214843 -0.297852,-0.06836 -0.756836,-0.06836 h -0.957031 v 2.905274 h 0.815429 q 0.585938,0 0.952149,-0.102539 0.366211,-0.107422 0.595703,-0.336914 0.229492,-0.234375 0.322266,-0.493164 0.09766,-0.25879 0.09766,-0.581055 z M 53.623871,50 h -2.871094 v -0.742188 h 0.952149 V 43.47168 h -0.952149 v -0.742188 h 2.871094 v 0.742188 h -0.952149 v 5.786132 h 0.952149 z m 10.444336,-2.075195 q 0,0.424804 -0.200196,0.839843 -0.195312,0.415039 -0.551757,0.703125 -0.390625,0.3125 -0.913086,0.488282 -0.517578,0.175781 -1.25,0.175781 -0.786133,0 -1.416016,-0.146484 -0.625,-0.146485 -1.274414,-0.434571 v -1.210937 h 0.06836 q 0.551758,0.458984 1.274414,0.708008 0.722657,0.249023 1.357422,0.249023 0.898438,0 1.396485,-0.336914 0.502929,-0.336914 0.502929,-0.898438 0,-0.483398 -0.239257,-0.71289 -0.234375,-0.229492 -0.717774,-0.356446 -0.366211,-0.09766 -0.795898,-0.161132 -0.424805,-0.06348 -0.903321,-0.161133 -0.966796,-0.205078 -1.435546,-0.698242 -0.463868,-0.498047 -0.463868,-1.293946 0,-0.913086 0.771485,-1.49414 0.771484,-0.585938 1.958008,-0.585938 0.766601,0 1.40625,0.146485 0.639648,0.146484 1.132812,0.361328 v 1.142578 h -0.06836 q -0.415039,-0.351563 -1.09375,-0.581055 -0.673828,-0.234375 -1.381836,-0.234375 -0.776367,0 -1.25,0.322266 -0.46875,0.322265 -0.46875,0.830078 0,0.454101 0.234375,0.712891 0.234375,0.258789 0.825195,0.395507 0.3125,0.06836 0.888672,0.166016 0.576172,0.09766 0.976562,0.200195 0.810547,0.214844 1.220704,0.649414 0.410156,0.434571 0.410156,1.215821 z m 4.311523,2.026367 q -0.258789,0.06836 -0.566406,0.112305 -0.302734,0.04395 -0.541992,0.04395 -0.834961,0 -1.269531,-0.449219 -0.434571,-0.449219 -0.434571,-1.44043 v -2.90039 h -0.620117 v -0.771485 h 0.620117 v -1.567382 h 0.917969 v 1.567382 h 1.894531 v 0.771485 h -1.894531 v 2.485351 q 0,0.429688 0.01953,0.673828 0.01953,0.239258 0.136719,0.449219 0.107422,0.195313 0.292969,0.288086 0.190429,0.08789 0.576172,0.08789 0.224609,0 0.46875,-0.06348 0.24414,-0.06836 0.351562,-0.112304 h 0.04883 z M 73.72641,50 h -0.913086 v -0.581055 q -0.12207,0.08301 -0.332031,0.234375 -0.205078,0.146485 -0.400391,0.234375 Q 71.85141,50 71.553558,50.073242 q -0.297851,0.07813 -0.698242,0.07813 -0.737305,0 -1.25,-0.488281 -0.512695,-0.488281 -0.512695,-1.245117 0,-0.620117 0.263672,-1.000977 0.268554,-0.385742 0.761718,-0.605469 0.498047,-0.219726 1.19629,-0.297851 0.698242,-0.07813 1.499023,-0.117188 v -0.141601 q 0,-0.3125 -0.112305,-0.517578 -0.107422,-0.205078 -0.3125,-0.322266 -0.195312,-0.112305 -0.46875,-0.151367 -0.273437,-0.03906 -0.571289,-0.03906 -0.361328,0 -0.805664,0.09766 -0.444336,0.09277 -0.917969,0.273437 h -0.04883 v -0.932617 q 0.268555,-0.07324 0.776367,-0.161133 0.507813,-0.08789 1.000977,-0.08789 0.576172,0 1.000977,0.09766 0.429687,0.09277 0.742187,0.322265 0.307617,0.22461 0.46875,0.581055 0.161133,0.356445 0.161133,0.883789 z m -0.913086,-1.342773 v -1.518555 q -0.419922,0.02441 -0.991211,0.07324 -0.566406,0.04883 -0.898437,0.141602 -0.395508,0.112304 -0.639649,0.351562 -0.244141,0.234375 -0.244141,0.649414 0,0.46875 0.283204,0.708008 0.283203,0.234375 0.864257,0.234375 0.483399,0 0.883789,-0.185547 0.400391,-0.19043 0.742188,-0.454101 z m 5.512695,1.293945 q -0.258789,0.06836 -0.566406,0.112305 -0.302734,0.04395 -0.541992,0.04395 -0.834961,0 -1.269531,-0.449219 -0.434571,-0.449219 -0.434571,-1.44043 v -2.90039 h -0.620117 v -0.771485 h 0.620117 v -1.567382 h 0.917969 v 1.567382 h 1.894531 v 0.771485 h -1.894531 v 2.485351 q 0,0.429688 0.01953,0.673828 0.01953,0.239258 0.136719,0.449219 0.107422,0.195313 0.292969,0.288086 0.190429,0.08789 0.576172,0.08789 0.224609,0 0.46875,-0.06348 0.24414,-0.06836 0.351562,-0.112304 h 0.04883 z m 5.673828,-2.583008 h -4.018554 q 0,0.50293 0.151367,0.878906 0.151367,0.371094 0.415039,0.610352 0.253906,0.234375 0.600586,0.351562 0.351562,0.117188 0.771484,0.117188 0.556641,0 1.118164,-0.219727 0.566407,-0.224609 0.805664,-0.439453 h 0.04883 v 1.000977 q -0.463868,0.195312 -0.947266,0.327148 -0.483399,0.131836 -1.015625,0.131836 -1.357422,0 -2.119141,-0.732422 -0.761718,-0.737304 -0.761718,-2.089844 0,-1.33789 0.727539,-2.124023 0.732421,-0.786133 1.923828,-0.786133 1.103515,0 1.699218,0.644531 0.600586,0.644532 0.600586,1.831055 z m -0.893554,-0.703125 q -0.0049,-0.722656 -0.366211,-1.118164 -0.356446,-0.395508 -1.088867,-0.395508 -0.737305,0 -1.176758,0.43457 -0.434571,0.434571 -0.493164,1.079102 z M 95.454926,50 h -0.966797 v -6.264648 l -2.021485,4.262695 H 91.890472 L 89.883636,43.735352 V 50 h -0.90332 v -7.270508 h 1.31836 l 1.938476,4.047852 1.875,-4.047852 h 1.342774 z m 6.528324,-2.724609 q 0,1.333007 -0.6836,2.104492 -0.68359,0.771484 -1.831053,0.771484 -1.157226,0 -1.84082,-0.771484 -0.678711,-0.771485 -0.678711,-2.104492 0,-1.333008 0.678711,-2.104493 0.683594,-0.776367 1.84082,-0.776367 1.147463,0 1.831053,0.776367 0.6836,0.771485 0.6836,2.104493 z m -0.94727,0 q 0,-1.059571 -0.41504,-1.572266 -0.41504,-0.517578 -1.152343,-0.517578 -0.74707,0 -1.162109,0.517578 -0.410156,0.512695 -0.410156,1.572266 0,1.02539 0.415039,1.557617 0.415039,0.527344 1.157226,0.527344 0.732423,0 1.147463,-0.522461 0.41992,-0.527344 0.41992,-1.5625 z M 107.96469,50 h -0.91797 v -3.105469 q 0,-0.375976 -0.0439,-0.703125 -0.0439,-0.332031 -0.16114,-0.517578 -0.12207,-0.205078 -0.35156,-0.302734 -0.22949,-0.102539 -0.5957,-0.102539 -0.37598,0 -0.78613,0.185547 -0.41016,0.185546 -0.78614,0.473632 V 50 h -0.91797 v -5.454102 h 0.91797 v 0.605469 q 0.42969,-0.356445 0.88867,-0.55664 0.45899,-0.200196 0.94239,-0.200196 0.88379,0 1.34765,0.532227 0.46387,0.532226 0.46387,1.533203 z m 2.75391,-6.367188 h -1.03516 v -0.952148 h 1.03516 z M 110.66,50 h -0.91797 V 44.545898 H 110.66 Z m 4.64844,-0.04883 q -0.25879,0.06836 -0.56641,0.112305 -0.30273,0.04395 -0.54199,0.04395 -0.83496,0 -1.26953,-0.449219 -0.43457,-0.449219 -0.43457,-1.44043 v -2.90039 h -0.62012 v -0.771485 h 0.62012 v -1.567382 h 0.91797 v 1.567382 h 1.89453 v 0.771485 h -1.89453 v 2.485351 q 0,0.429688 0.0195,0.673828 0.0195,0.239258 0.13672,0.449219 0.10742,0.195313 0.29297,0.288086 0.19043,0.08789 0.57617,0.08789 0.22461,0 0.46875,-0.06348 0.24414,-0.06836 0.35156,-0.112304 h 0.0488 z m 5.75684,-2.675781 q 0,1.333007 -0.6836,2.104492 -0.68359,0.771484 -1.83105,0.771484 -1.15723,0 -1.84082,-0.771484 -0.67871,-0.771485 -0.67871,-2.104492 0,-1.333008 0.67871,-2.104493 0.68359,-0.776367 1.84082,-0.776367 1.14746,0 1.83105,0.776367 0.6836,0.771485 0.6836,2.104493 z m -0.94727,0 q 0,-1.059571 -0.41504,-1.572266 -0.41504,-0.517578 -1.15234,-0.517578 -0.74707,0 -1.16211,0.517578 -0.41016,0.512695 -0.41016,1.572266 0,1.02539 0.41504,1.557617 0.41504,0.527344 1.15723,0.527344 0.73242,0 1.14746,-0.522461 0.41992,-0.527344 0.41992,-1.5625 z m 5.77149,-1.728516 h -0.0488 q -0.20508,-0.04883 -0.40039,-0.06836 -0.19043,-0.02441 -0.4541,-0.02441 -0.42481,0 -0.82032,0.190429 -0.3955,0.185547 -0.76172,0.483399 V 50 h -0.91796 v -5.454102 h 0.91796 v 0.805664 q 0.54688,-0.439453 0.96192,-0.620117 0.41992,-0.185547 0.85449,-0.185547 0.23926,0 0.34668,0.01465 0.10742,0.0098 0.32227,0.04395 z m 7.31445,-2.255859 h -0.0488 q -0.15137,-0.04395 -0.39551,-0.08789 -0.24414,-0.04883 -0.42968,-0.04883 -0.59082,0 -0.85938,0.263672 -0.26367,0.258789 -0.26367,0.942383 v 0.185546 h 1.65527 v 0.771485 h -1.62597 V 50 h -0.91797 v -4.682617 h -0.62012 v -0.771485 h 0.62012 v -0.180664 q 0,-0.971679 0.4834,-1.489257 0.48339,-0.522461 1.39648,-0.522461 0.30762,0 0.55176,0.0293 0.24902,0.0293 0.4541,0.06836 z m 5.22949,3.984375 q 0,1.333007 -0.68359,2.104492 -0.6836,0.771484 -1.83106,0.771484 -1.15722,0 -1.84082,-0.771484 -0.67871,-0.771485 -0.67871,-2.104492 0,-1.333008 0.67871,-2.104493 0.6836,-0.776367 1.84082,-0.776367 1.14746,0 1.83106,0.776367 0.68359,0.771485 0.68359,2.104493 z m -0.94726,0 q 0,-1.059571 -0.41504,-1.572266 -0.41504,-0.517578 -1.15235,-0.517578 -0.74707,0 -1.16211,0.517578 -0.41015,0.512695 -0.41015,1.572266 0,1.02539 0.41504,1.557617 0.41504,0.527344 1.15722,0.527344 0.73242,0 1.14746,-0.522461 0.41993,-0.527344 0.41993,-1.5625 z m 5.77148,-1.728516 h -0.0488 q -0.20508,-0.04883 -0.40039,-0.06836 -0.19043,-0.02441 -0.4541,-0.02441 -0.42481,0 -0.82031,0.190429 -0.39551,0.185547 -0.76172,0.483399 V 50 h -0.91797 v -5.454102 h 0.91797 v 0.805664 q 0.54687,-0.439453 0.96191,-0.620117 0.41992,-0.185547 0.85449,-0.185547 0.23926,0 0.34668,0.01465 0.10743,0.0098 0.32227,0.04395 z M 153.02328,50 h -5.67382 v -0.898438 l 4.458,-5.512695 h -4.29199 v -0.859375 h 5.40039 v 0.874024 l -4.50195,5.537109 h 4.60937 z m 5.82032,-2.724609 q 0,1.333007 -0.6836,2.104492 -0.68359,0.771484 -1.83105,0.771484 -1.15723,0 -1.84082,-0.771484 -0.67871,-0.771485 -0.67871,-2.104492 0,-1.333008 0.67871,-2.104493 0.68359,-0.776367 1.84082,-0.776367 1.14746,0 1.83105,0.776367 0.6836,0.771485 0.6836,2.104493 z m -0.94727,0 q 0,-1.059571 -0.41504,-1.572266 -0.41504,-0.517578 -1.15234,-0.517578 -0.74707,0 -1.16211,0.517578 -0.41016,0.512695 -0.41016,1.572266 0,1.02539 0.41504,1.557617 0.41504,0.527344 1.15723,0.527344 0.73242,0 1.14746,-0.522461 0.41992,-0.527344 0.41992,-1.5625 z M 167.12485,44.545898 165.70395,50 h -0.84961 L 163.45297,45.795898 162.06137,50 h -0.84473 l -1.43554,-5.454102 h 0.95703 l 1.00098,4.223633 1.3623,-4.223633 h 0.75684 l 1.39648,4.223633 0.94727,-4.223633 z m 5.88867,2.822266 h -4.01856 q 0,0.50293 0.15137,0.878906 0.15137,0.371094 0.41504,0.610352 0.25391,0.234375 0.60059,0.351562 0.35156,0.117188 0.77148,0.117188 0.55664,0 1.11817,-0.219727 0.5664,-0.224609 0.80566,-0.439453 h 0.0488 v 1.000977 q -0.46387,0.195312 -0.94727,0.327148 -0.4834,0.131836 -1.01562,0.131836 -1.35743,0 -2.11914,-0.732422 -0.76172,-0.737304 -0.76172,-2.089844 0,-1.33789 0.72754,-2.124023 0.73242,-0.786133 1.92382,-0.786133 1.10352,0 1.69922,0.644531 0.60059,0.644532 0.60059,1.831055 z m -0.89356,-0.703125 q -0.005,-0.722656 -0.36621,-1.118164 -0.35644,-0.395508 -1.08886,-0.395508 -0.73731,0 -1.17676,0.43457 -0.43457,0.434571 -0.49317,1.079102 z M 183.72641,50 h -1.03027 l -0.71289,-2.026367 h -3.14454 L 178.12582,50 h -0.98144 l 2.64648,-7.270508 h 1.28907 z m -2.04102,-2.856445 -1.27441,-3.569336 -1.2793,3.569336 z m 7.90039,-2.216797 q 0,0.483398 -0.17089,0.898437 -0.16602,0.410157 -0.46875,0.712891 -0.37598,0.375976 -0.88868,0.566406 -0.51269,0.185547 -1.29394,0.185547 h -0.9668 V 50 h -0.96679 v -7.270508 h 1.97265 q 0.6543,0 1.1084,0.112305 0.4541,0.107422 0.80566,0.341797 0.41504,0.27832 0.63965,0.693359 0.22949,0.415039 0.22949,1.049805 z m -1.00585,0.02441 q 0,-0.375977 -0.13184,-0.654297 -0.13184,-0.27832 -0.40039,-0.454102 -0.23438,-0.151367 -0.53711,-0.214843 -0.29785,-0.06836 -0.75684,-0.06836 h -0.95703 v 2.905274 h 0.81543 q 0.58594,0 0.95215,-0.102539 0.36621,-0.107422 0.5957,-0.336914 0.2295,-0.234375 0.32227,-0.493164 0.0977,-0.25879 0.0977,-0.581055 z M 193.42368,50 h -2.8711 v -0.742188 h 0.95215 V 43.47168 h -0.95215 v -0.742188 h 2.8711 v 0.742188 h -0.95215 v 5.786132 h 0.95215 z m 11.63574,0 h -0.9668 v -6.264648 l -2.02148,4.262695 h -0.57618 l -2.00683,-4.262695 V 50 h -0.90332 v -7.270508 h 1.31836 l 1.93847,4.047852 1.875,-4.047852 h 1.34278 z m 6.55273,0 h -4.59961 v -7.270508 h 0.9668 v 6.411133 h 3.63281 z"
     id="text4"
     style="font-size:10px;text-anchor:middle"
     aria-label="API State Monitor for Zowe API ML" />
</svg>
