<svg id="Layer_1" data-name="Layer 1" xmlns="http://www.w3.org/2000/svg" viewBox="0 0 400 160"><defs><style>.cls-1{fill:#2a7de1;}.cls-2{fill:#0033a1;}</style></defs><title>OMP_ProjectLogos</title><path class="cls-1" d="M321.87,23.76h2.75a3.61,3.61,0,0,1,2.42.71,2.39,2.39,0,0,1,.84,1.92,2.45,2.45,0,0,1-.85,2,3.72,3.72,0,0,1-2.48.72h-1.9v4.67h-.78Zm.78.64v4h1.85a2.91,2.91,0,0,0,1.9-.53,2,2,0,0,0,.12-2.86.47.47,0,0,1-.1-.1,2.78,2.78,0,0,0-1.82-.54Z"/><path class="cls-1" d="M330.51,23.76h2.56a3.79,3.79,0,0,1,2.46.69,2.33,2.33,0,0,1,.85,1.89,2.48,2.48,0,0,1-1.9,2.42,4.46,4.46,0,0,1,1.33,1.53l2.25,3.45h-.91L335.41,31a6.58,6.58,0,0,0-1.35-1.71,2.54,2.54,0,0,0-1.42-.34h-1.35v4.79h-.78Zm.78.64v3.91h1.65a3.24,3.24,0,0,0,1.94-.51,1.88,1.88,0,0,0,.22-2.65,1.75,1.75,0,0,0-.24-.23,3.18,3.18,0,0,0-1.94-.52Z"/><path class="cls-1" d="M344.7,23.63a5.21,5.21,0,0,1,3.76,1.49,5,5,0,0,1,.12,7.13l-.12.12a5.44,5.44,0,0,1-7.49,0,5,5,0,0,1-.1-7.15.47.47,0,0,1,.1-.1,5.15,5.15,0,0,1,3.73-1.49m0,9.52a4.29,4.29,0,0,0,3.15-1.28,4.45,4.45,0,0,0,0-6.25,4.53,4.53,0,0,0-6.31,0,4.42,4.42,0,0,0,0,6.25h0a4.35,4.35,0,0,0,3.16,1.28"/><path class="cls-1" d="M353.87,23.76v10a3.18,3.18,0,0,1-.62,2.27,2,2,0,0,1-1.47.63,3.55,3.55,0,0,1-.46,0l-.08-.72a2.4,2.4,0,0,0,.46,0c.94,0,1.4-.66,1.4-2V23.76Z"/><polygon class="cls-1" points="362.73 23.76 362.73 24.4 358.06 24.4 358.06 28.39 362.61 28.39 362.61 29.04 358.06 29.04 358.06 33.09 362.84 33.09 362.84 33.73 357.29 33.73 357.29 23.76 362.73 23.76"/><path class="cls-1" d="M373.92,24.47v.84a7.66,7.66,0,0,0-3.56-1,4.17,4.17,0,0,0-3.1,1.27A4.22,4.22,0,0,0,366,28.76a4.2,4.2,0,0,0,1.25,3.15,4.38,4.38,0,0,0,3.21,1.24,7.76,7.76,0,0,0,3.55-1v.8a7.42,7.42,0,0,1-3.54.93,5.2,5.2,0,0,1-3.79-1.46,5.11,5.11,0,0,1,0-7.23l.07-.07a5.2,5.2,0,0,1,3.69-1.47,8.39,8.39,0,0,1,3.51.84"/><polygon class="cls-1" points="383.85 23.76 383.85 24.4 380.1 24.4 380.1 33.73 379.32 33.73 379.32 24.4 375.58 24.4 375.58 23.76 383.85 23.76"/><polygon class="cls-1" points="218.16 34.44 214.82 34.44 214.82 28.03 211.81 31.74 211.55 31.74 208.53 28.03 208.53 34.44 205.29 34.44 205.29 23.38 208.32 23.38 211.72 27.53 215.13 23.38 218.16 23.38 218.16 34.44"/><path class="cls-1" d="M233.09,34.44h-3.42l-.9-2.25H224l-.92,2.25h-3.41l4.89-11.06h3.68ZM228,30.27l-1.62-4-1.64,4Z"/><rect class="cls-1" x="234.57" y="23.38" width="3.33" height="11.06"/><polygon class="cls-1" points="252.7 34.44 249.74 34.44 244 28.28 244 34.44 240.7 34.44 240.7 23.38 243.66 23.38 249.38 29.5 249.38 23.38 252.7 23.38 252.7 34.44"/><polygon class="cls-1" points="263.4 29.96 258.81 29.96 258.81 34.44 255.48 34.44 255.48 23.38 263.4 23.38 263.4 25.6 258.81 25.6 258.81 27.73 263.4 27.73 263.4 29.96"/><path class="cls-1" d="M276.35,34.43h-3.59l-.87-2A7.5,7.5,0,0,0,271,30.9a1.76,1.76,0,0,0-.74-.64,2.72,2.72,0,0,0-.94-.14H269v4.31h-3.33v-11h5.67a4.12,4.12,0,0,1,2.25.56,3.37,3.37,0,0,1,1.27,1.35,3.49,3.49,0,0,1,.38,1.52,2.82,2.82,0,0,1-.32,1.42,2.77,2.77,0,0,1-.68.84,8.39,8.39,0,0,1-.81.5,3,3,0,0,1,.88.74,9,9,0,0,1,1,1.72Zm-4.53-7.56a1.15,1.15,0,0,0-.51-1.07,3.39,3.39,0,0,0-1.63-.3H269v2.67h.72a3.65,3.65,0,0,0,1.67-.27,1.1,1.1,0,0,0,.46-1"/><path class="cls-1" d="M290,34.44h-3.41l-.9-2.25h-4.81L280,34.44h-3.42l4.89-11.06h3.69Zm-5.08-4.17-1.62-4-1.63,4Z"/><polygon class="cls-1" points="304.33 34.44 300.99 34.44 300.99 28.03 297.99 31.74 297.72 31.74 294.71 28.03 294.71 34.44 291.47 34.44 291.47 23.38 294.49 23.38 297.89 27.53 301.31 23.38 304.33 23.38 304.33 34.44"/><polygon class="cls-1" points="315.46 34.44 307.12 34.44 307.12 23.38 315.32 23.38 315.32 25.6 310.45 25.6 310.45 27.62 315.1 27.62 315.1 29.85 310.45 29.85 310.45 32.21 315.46 32.21 315.46 34.44"/><path class="cls-1" d="M163.9,23.75a5.74,5.74,0,0,1,4.19,1.66,5.64,5.64,0,0,1,.14,8l-.14.13a6.09,6.09,0,0,1-8.37,0,5.66,5.66,0,0,1-.11-8l.11-.11a5.73,5.73,0,0,1,4.18-1.66m0,10.63A4.83,4.83,0,0,0,167.45,33a5,5,0,0,0,0-7,5.06,5.06,0,0,0-7,0,4.93,4.93,0,0,0,0,7h0a4.85,4.85,0,0,0,3.53,1.42"/><path class="cls-1" d="M171.91,23.89H175a4.13,4.13,0,0,1,2.7.79,2.65,2.65,0,0,1,.94,2.15,2.74,2.74,0,0,1-1,2.19,4.17,4.17,0,0,1-2.77.81h-2.13V35h-.86Zm.86.72v4.5h2.07a3.35,3.35,0,0,0,2.13-.59,2.26,2.26,0,0,0,.12-3.19.57.57,0,0,0-.11-.11,3,3,0,0,0-2-.61Z"/><polygon class="cls-1" points="186.35 23.89 186.35 24.61 181.13 24.61 181.13 29.07 186.21 29.07 186.21 29.79 181.13 29.79 181.13 34.32 186.47 34.32 186.47 35.03 180.27 35.03 180.27 23.89 186.35 23.89"/><polygon class="cls-1" points="198.29 23.89 198.29 35.03 197.58 35.03 189.11 25.29 189.11 35.03 188.25 35.03 188.25 23.89 188.98 23.89 197.43 33.63 197.43 23.89 198.29 23.89"/><path class="cls-2" d="M173,44.63h11.95l19,45H190.66l-3.2-8H170.15l-3.19,8H154ZM183.82,72l-5-12.64L173.8,72Z"/><path class="cls-2" d="M216,55.81H202.67V45h39.15V55.81H228.41V89.67H216Z"/><path class="cls-2" d="M246.42,67.44v-.13c0-12.84,10.35-23.25,24.14-23.25s24,10.28,24,23.12v.13c0,12.84-10.35,23.25-24.14,23.25S246.42,80.28,246.42,67.44Zm35.45,0v-.13c0-6.52-4.6-12.07-11.43-12.07s-11.37,5.49-11.37,11.94v.13c0,6.45,4.66,12.07,11.49,12.07S281.87,73.89,281.87,67.44Z"/><path class="cls-2" d="M303.52,45h13.1l10.67,17.31L338,45h13.1V89.67H338.72V64l-11.43,17.5H327L315.66,64.05V89.67H303.52Z"/><path class="cls-2" d="M160.12,102.18h1.56l-3.32,12.39h7.78l-.39,1.44H156.4Z"/><path class="cls-2" d="M168.83,113.4a3.39,3.39,0,0,1,1-2.43,5,5,0,0,1,3.58-1.26,13.87,13.87,0,0,1,3.63.55l.06-.23a4.12,4.12,0,0,0,.14-1c0-1.33-.91-2.08-2.76-2.08a8.35,8.35,0,0,0-2.89.54l-.26-1.27a9.43,9.43,0,0,1,3.38-.61c2.57,0,4,1.18,4,3.16a5.06,5.06,0,0,1-.21,1.4L176.94,116h-1.49l.44-1.6a4.91,4.91,0,0,1-3.81,1.82C170.36,116.23,168.83,115.22,168.83,113.4Zm7.73-1.4.2-.71a12.17,12.17,0,0,0-3.32-.45,3.29,3.29,0,0,0-2.41.85,2,2,0,0,0-.65,1.54c0,1.08.85,1.81,2.17,1.81A4.28,4.28,0,0,0,176.56,112Z"/><path class="cls-2" d="M183.7,105.8h1.52l-.44,1.66a4.62,4.62,0,0,1,3.56-1.88,3,3,0,0,1,3.24,3.16,7.78,7.78,0,0,1-.24,1.58L189.82,116H188.3l1.56-5.79a5.55,5.55,0,0,0,.14-1.14,2,2,0,0,0-2.27-2.14,4.22,4.22,0,0,0-3.7,3.3L182.49,116H181Z"/><path class="cls-2" d="M193.3,117.44l.95-1.07a6.18,6.18,0,0,0,4,1.54,3.85,3.85,0,0,0,2.87-1,5.12,5.12,0,0,0,1.28-2.45l.28-1a5.3,5.3,0,0,1-3.91,1.84,3.89,3.89,0,0,1-4.15-3.85,5.84,5.84,0,0,1,5.73-5.79,3.81,3.81,0,0,1,3.75,2.45l.59-2.23h1.53l-2.33,8.75a6.77,6.77,0,0,1-1.66,3.22,5.28,5.28,0,0,1-4,1.44A7.81,7.81,0,0,1,193.3,117.44Zm9-4.87a4,4,0,0,0,1.25-2.76,3,3,0,0,0-3.14-2.89,4.17,4.17,0,0,0-3,1.25,4.24,4.24,0,0,0-1.26,3,2.74,2.74,0,0,0,3,2.75A4.48,4.48,0,0,0,202.35,112.57Z"/><path class="cls-2" d="M208.54,113.07a6.59,6.59,0,0,1,.26-1.58l1.5-5.69h1.52l-1.54,5.79a4.48,4.48,0,0,0-.16,1.14,2,2,0,0,0,2.3,2.14,4.2,4.2,0,0,0,3.69-3.32l1.54-5.75h1.52L216.43,116h-1.5l.43-1.66a4.65,4.65,0,0,1-3.56,1.88A3,3,0,0,1,208.54,113.07Z"/><path class="cls-2" d="M220.68,113.4a3.35,3.35,0,0,1,1-2.43,5,5,0,0,1,3.57-1.26,14,14,0,0,1,3.64.55l.06-.23a4.12,4.12,0,0,0,.14-1c0-1.33-.91-2.08-2.77-2.08a8.24,8.24,0,0,0-2.88.54l-.26-1.27a9.39,9.39,0,0,1,3.38-.61c2.57,0,4,1.18,4,3.16a5.09,5.09,0,0,1-.22,1.4L228.78,116H227.3l.43-1.6a4.91,4.91,0,0,1-3.81,1.82C222.2,116.23,220.68,115.22,220.68,113.4Zm7.72-1.4.2-.71a12.11,12.11,0,0,0-3.32-.45,3.33,3.33,0,0,0-2.41.85,2.07,2.07,0,0,0-.65,1.54c0,1.08.85,1.81,2.17,1.81A4.28,4.28,0,0,0,228.4,112Z"/><path class="cls-2" d="M232.22,117.44l.95-1.07a6.18,6.18,0,0,0,4,1.54,3.87,3.87,0,0,0,2.87-1,5.21,5.21,0,0,0,1.28-2.45l.28-1a5.32,5.32,0,0,1-3.92,1.84,3.89,3.89,0,0,1-4.14-3.85,5.82,5.82,0,0,1,5.73-5.79,3.81,3.81,0,0,1,3.75,2.45l.59-2.23h1.52l-2.33,8.75a6.69,6.69,0,0,1-1.66,3.22,5.26,5.26,0,0,1-3.95,1.44A7.79,7.79,0,0,1,232.22,117.44Zm9.05-4.87a4,4,0,0,0,1.25-2.76,3,3,0,0,0-3.14-2.89,4.17,4.17,0,0,0-2.95,1.25,4.24,4.24,0,0,0-1.26,3,2.74,2.74,0,0,0,3,2.75A4.48,4.48,0,0,0,241.27,112.57Z"/><path class="cls-2" d="M248.78,111.43a3.16,3.16,0,0,0,3,3.52,4.93,4.93,0,0,0,3.22-1.21l.77,1a6,6,0,0,1-4.11,1.52,4.18,4.18,0,0,1-4.43-4.35,6.59,6.59,0,0,1,1.94-4.6,5.63,5.63,0,0,1,4-1.72,3.71,3.71,0,0,1,3.95,3.91,5.81,5.81,0,0,1-.35,1.94Zm.2-1.15h6.58a2.52,2.52,0,0,0,.1-.79,2.42,2.42,0,0,0-2.55-2.63,4.06,4.06,0,0,0-2.84,1.23A5.27,5.27,0,0,0,249,110.28Z"/><path class="cls-2" d="M265.68,113.58l1.19-.93a5.42,5.42,0,0,0,4.56,2.16c2,0,3.5-1.09,3.5-2.59,0-1.07-.71-1.7-2.84-2.53-2.55-1-3.8-1.9-3.8-3.7a3.5,3.5,0,0,1,1.07-2.53,5.63,5.63,0,0,1,4-1.48,6.32,6.32,0,0,1,4.9,2.1l-1.15,1a5,5,0,0,0-3.89-1.72c-2.07,0-3.32,1.16-3.32,2.43s.89,1.7,3.07,2.55c2.37.9,3.57,1.87,3.57,3.65a3.78,3.78,0,0,1-1.12,2.67,5.75,5.75,0,0,1-4.11,1.52A6.66,6.66,0,0,1,265.68,113.58Z"/><path class="cls-2" d="M280.25,105.8h1.6l1.4,8.51,5.48-8.51h1.74l-7,10.55c-1.44,2.11-2.63,2.88-4.19,2.88a3.71,3.71,0,0,1-2.23-.71l.83-1.12a2.64,2.64,0,0,0,1.56.53c.87,0,1.64-.47,2.67-1.92Z"/><path class="cls-2" d="M293.73,105.8h1.52l-.43,1.66a4.58,4.58,0,0,1,3.55-1.88,3,3,0,0,1,3.24,3.16,8.49,8.49,0,0,1-.23,1.58L299.85,116h-1.52l1.56-5.79a5.55,5.55,0,0,0,.14-1.14,2,2,0,0,0-2.27-2.14,4.22,4.22,0,0,0-3.7,3.3L292.52,116H291Z"/><path class="cls-2" d="M305.09,114.17a4.52,4.52,0,0,1,.14-1.06l1.6-6h-1.4l.36-1.34h1.42l.83-3.09h1.5l-.83,3.09h3.22l-.35,1.34h-3.23L306.77,113a5,5,0,0,0-.07.75c0,.71.53,1,1.4,1a3.88,3.88,0,0,0,1.48-.32l-.37,1.38a4.07,4.07,0,0,1-1.63.3C306.12,116.19,305.09,115.5,305.09,114.17Z"/><path class="cls-2" d="M312.68,113.4a3.39,3.39,0,0,1,1-2.43,5,5,0,0,1,3.58-1.26,13.87,13.87,0,0,1,3.63.55l.06-.23a4.12,4.12,0,0,0,.14-1c0-1.33-.91-2.08-2.76-2.08a8.35,8.35,0,0,0-2.89.54l-.26-1.27a9.43,9.43,0,0,1,3.38-.61c2.57,0,4,1.18,4,3.16a5.47,5.47,0,0,1-.21,1.4L320.79,116H319.3l.44-1.6a4.91,4.91,0,0,1-3.82,1.82C314.21,116.23,312.68,115.22,312.68,113.4Zm7.73-1.4.2-.71a12.17,12.17,0,0,0-3.32-.45,3.29,3.29,0,0,0-2.41.85,2,2,0,0,0-.65,1.54c0,1.08.85,1.81,2.17,1.81A4.28,4.28,0,0,0,320.41,112Z"/><path class="cls-2" d="M330.27,109.69l3.9-3.89h1.91l-5.19,5.06,2.66,5.15h-1.68l-2-4.15L325.65,116h-1.92l5.5-5.29-2.57-4.92h1.68Z"/><path class="cls-2" d="M160.12,125.9h1.56L160,132h7.88l1.64-6.14h1.58l-3.71,13.83h-1.58l1.68-6.22h-7.89L158,139.73H156.4Z"/><path class="cls-2" d="M174.76,129.51h1.53l-2.75,10.22H172Zm1-3.91h1.74l-.45,1.68h-1.74Z"/><path class="cls-2" d="M177.29,141.15l1-1.06a6.23,6.23,0,0,0,4,1.54,3.89,3.89,0,0,0,2.87-1,5.12,5.12,0,0,0,1.28-2.45l.28-1a5.3,5.3,0,0,1-3.91,1.84,3.89,3.89,0,0,1-4.15-3.85,5.84,5.84,0,0,1,5.73-5.79,3.81,3.81,0,0,1,3.75,2.45l.59-2.24h1.53l-2.33,8.76a6.77,6.77,0,0,1-1.66,3.22,5.28,5.28,0,0,1-4,1.44A7.76,7.76,0,0,1,177.29,141.15Zm9.05-4.86a4,4,0,0,0,1.25-2.76,2.94,2.94,0,0,0-3.14-2.89,4.17,4.17,0,0,0-2.95,1.25,4.22,4.22,0,0,0-1.26,3,2.74,2.74,0,0,0,3,2.75A4.48,4.48,0,0,0,186.34,136.29Z"/><path class="cls-2" d="M195.58,125.31h1.52l-1.58,5.86a4.62,4.62,0,0,1,3.55-1.87,3,3,0,0,1,3.24,3.16,7.73,7.73,0,0,1-.23,1.58l-1.52,5.69H199l1.56-5.79a5.65,5.65,0,0,0,.14-1.15,2,2,0,0,0-2.27-2.13,4.19,4.19,0,0,0-3.69,3.3l-1.55,5.77H191.7Z"/><path class="cls-2" d="M208.64,125.31h1.52l-3.87,14.42h-1.52Z"/><path class="cls-2" d="M213.52,129.51H215l-2.74,10.22h-1.52Zm.95-3.91h1.74l-.45,1.68H214Z"/><path class="cls-2" d="M216.05,141.15l.95-1.06a6.23,6.23,0,0,0,4,1.54,3.89,3.89,0,0,0,2.87-1,5.12,5.12,0,0,0,1.28-2.45l.28-1a5.3,5.3,0,0,1-3.91,1.84,3.89,3.89,0,0,1-4.15-3.85,5.84,5.84,0,0,1,5.73-5.79,3.81,3.81,0,0,1,3.75,2.45l.59-2.24H229l-2.33,8.76a6.77,6.77,0,0,1-1.66,3.22,5.28,5.28,0,0,1-4,1.44A7.76,7.76,0,0,1,216.05,141.15Zm9-4.86a4,4,0,0,0,1.25-2.76,2.94,2.94,0,0,0-3.14-2.89,4.17,4.17,0,0,0-3,1.25,4.22,4.22,0,0,0-1.26,3,2.74,2.74,0,0,0,3,2.75A4.48,4.48,0,0,0,225.1,136.29Z"/><path class="cls-2" d="M234.34,125.31h1.52l-1.58,5.86a4.6,4.6,0,0,1,3.55-1.87,3,3,0,0,1,3.24,3.16,8.49,8.49,0,0,1-.23,1.58l-1.53,5.69h-1.52l1.56-5.79a5.65,5.65,0,0,0,.14-1.15,2,2,0,0,0-2.27-2.13,4.21,4.21,0,0,0-3.7,3.3L232,139.73h-1.52Z"/><path class="cls-2" d="M244.55,137.89a4.52,4.52,0,0,1,.14-1.06l1.6-6h-1.4l.36-1.35h1.42l.83-3.08H249l-.83,3.08h3.22l-.35,1.35h-3.23l-1.58,5.89a4.87,4.87,0,0,0-.07.75c0,.71.53,1,1.4,1a3.85,3.85,0,0,0,1.48-.31l-.37,1.38a4.07,4.07,0,0,1-1.63.3C245.58,139.91,244.55,139.22,244.55,137.89Z"/><path class="cls-2" d="M255,129.51h1.52l-2.75,10.22h-1.52Zm.95-3.91h1.74l-.46,1.68h-1.74Z"/><path class="cls-2" d="M260.84,129.51h1.52l-.43,1.66a4.62,4.62,0,0,1,3.55-1.87,3,3,0,0,1,3.24,3.16,7.73,7.73,0,0,1-.23,1.58L267,139.73h-1.53l1.57-5.79a6.43,6.43,0,0,0,.13-1.15,2,2,0,0,0-2.27-2.13,4.19,4.19,0,0,0-3.69,3.3l-1.55,5.77h-1.52Z"/><path class="cls-2" d="M270.45,141.15l.94-1.06a6.24,6.24,0,0,0,4,1.54,3.88,3.88,0,0,0,2.86-1,5.22,5.22,0,0,0,1.29-2.45l.27-1a5.3,5.3,0,0,1-3.91,1.84,3.9,3.9,0,0,1-4.15-3.85,5.7,5.7,0,0,1,1.72-4.09,5.77,5.77,0,0,1,4-1.7,3.81,3.81,0,0,1,3.75,2.45l.6-2.24h1.52l-2.33,8.76a6.77,6.77,0,0,1-1.66,3.22,5.27,5.27,0,0,1-3.95,1.44A7.72,7.72,0,0,1,270.45,141.15Zm9.05-4.86a4,4,0,0,0,1.24-2.76,2.94,2.94,0,0,0-3.14-2.89,4.3,4.3,0,0,0-4.21,4.25,2.74,2.74,0,0,0,3,2.75A4.5,4.5,0,0,0,279.5,136.29Z"/><path class="cls-2" d="M294.54,130.86h-1.4l.35-1.35h1.4l.32-1.18a4.56,4.56,0,0,1,1.13-2.16,3.24,3.24,0,0,1,2.39-.9,4.42,4.42,0,0,1,2,.43l-.35,1.3a3.85,3.85,0,0,0-1.68-.41c-1,0-1.7.59-2.06,1.94l-.25,1h3.34l-.38,1.35h-3.32l-2.39,8.87h-1.52Z"/><path class="cls-2" d="M300.21,135.38a6,6,0,0,1,1.84-4.28,5.94,5.94,0,0,1,4.17-1.8,4.39,4.39,0,0,1,4.66,4.56,6.24,6.24,0,0,1-1.83,4.31,6,6,0,0,1-4.19,1.8A4.41,4.41,0,0,1,300.21,135.38Zm7.65,2a4.93,4.93,0,0,0,1.46-3.42,3,3,0,0,0-3.2-3.28,4.14,4.14,0,0,0-2.9,1.28,5,5,0,0,0-1.47,3.42A3,3,0,0,0,305,138.6,4.14,4.14,0,0,0,307.86,137.34Z"/><path class="cls-2" d="M315.69,129.51h1.52l-.69,2.67c1.24-1.78,2.82-3,4.86-2.84l-.44,1.64h-.1c-2.23,0-4.44,1.64-5.27,4.72l-1.09,4H313Z"/><path class="cls-2" d="M328,138.76l8.72-8h-6.35l.36-1.29h8.54l-.28,1-8.74,8h6.68l-.35,1.28h-8.85Z"/><path class="cls-2" d="M351.22,124h1.54l-14,18.3h-1.54Z"/><path class="cls-2" d="M353.26,125.9h1.66l1.7,11.89,8.08-11.89h1.78l-9.64,13.93h-1.41Z"/><path class="cls-2" d="M369.82,125.9h1.45l3,7.55,7-7.55H383l-3.71,13.83h-1.58l3-11.2-7,7.41h-.08l-3-7.39-3,11.18h-1.52Z"/><path class="cls-2" d="M116.69,78.53c13.95-13.55,22.38-27.6,17.49-36.82-1.64-3.09-5.54-6.78-14.86-6.78-6.47,0-14.65,1.84-23.6,5.09C91.72,24.44,85.1,13.17,76,13.17S60.26,24.6,56.28,40.37c-9-3.26-17.12-5.1-23.57-5.1C23.42,35.27,19.53,39,17.89,42c-4.82,9.13,3.35,22.95,17,36.38C21,91.94,12.69,105.89,17.55,115.09c1.65,3.09,5.55,6.77,14.86,6.77,6.54,0,14.83-1.87,23.9-5.18,4,15.7,10.63,27.07,19.73,27.07s15.63-11.18,19.63-26.69c9,3.29,17.21,5.14,23.7,5.14,9.28,0,13.18-3.69,14.82-6.78,3.51-6.63.33-16.28-9.2-27.91A112.69,112.69,0,0,0,116.69,78.53Zm2.64-37.71c5.25,0,8.86,1.36,10.17,3.83,2.85,5.37-3.48,17-16.94,30-4-3.58-8.33-7.14-13-10.58A154.46,154.46,0,0,0,97,45.71C105.54,42.6,113.27,40.82,119.33,40.82Zm-34.21,55c-3.16,2-6.33,3.81-9.48,5.56-2.94-1.64-5.88-3.35-8.82-5.2-3.18-2-6.17-4-9-6.11-.24-3.73-.38-7.6-.38-11.64s.14-7.85.37-11.56c2.83-2,5.75-4,8.86-6s6-3.64,9-5.3c3.2,1.76,6.41,3.61,9.62,5.63s6.16,4,9.09,6.12c.22,3.55.35,7.23.35,11s-.14,7.6-.36,11.2C91.41,91.74,88.37,93.82,85.12,95.85Zm8.62,1.23c-.47,4.37-1.1,8.44-1.85,12.24-3.34-1.39-6.74-2.92-10.22-4.68,2-1.19,4.11-2.39,6.16-3.68S91.79,98.41,93.74,97.08Zm-24.13,7.51c-3.23,1.62-6.39,3-9.49,4.34-.69-3.55-1.27-7.35-1.71-11.39,1.89,1.28,3.79,2.56,5.72,3.76S67.78,103.52,69.61,104.59ZM52.1,85.89q-4.83-3.75-9-7.44,4.13-3.66,9-7.39-.16,3.69-.17,7.39C51.92,80.92,52,83.4,52.1,85.89Zm6.29-26.45c.43-4,1-7.8,1.69-11.33,3.11,1.29,6.27,2.72,9.51,4.33-1.9,1.11-3.79,2.2-5.68,3.39S60.21,58.2,58.39,59.44Zm23.3-7c3.49-1.76,6.89-3.29,10.23-4.67.75,3.79,1.37,7.87,1.83,12.23Q90.92,58,88,56.17C85.88,54.85,83.79,53.62,81.69,52.41ZM100,71.6q4.41,3.42,8.35,6.94Q104.49,82,100,85.46q.15-3.51.15-7C100.16,76.17,100.1,73.89,100,71.6ZM76,18.4C81.32,18.4,87,27.3,90.63,42a163.06,163.06,0,0,0-15,7.08c-4.86-2.58-9.64-4.82-14.28-6.72C65,27.44,70.72,18.4,76,18.4ZM22.57,45c1.3-2.46,4.89-3.82,10.13-3.82,6,0,13.77,1.77,22.28,4.91a153.63,153.63,0,0,0-2.41,17.49A173.11,173.11,0,0,0,39,74.56C25.89,61.77,19.76,50.31,22.57,45Zm9.85,71c-5.26,0-8.87-1.35-10.17-3.82C19.41,106.79,25.67,95.2,39,82.3c4.2,3.81,8.78,7.54,13.57,11.09A155.58,155.58,0,0,0,55,111C46.37,114.16,38.54,116,32.42,116ZM76,138.5c-5.31,0-11-9-14.66-23.82,4.64-1.9,9.41-4.15,14.25-6.71a163,163,0,0,0,15,7.1C86.92,129.67,81.31,138.5,76,138.5Zm53.48-26c-1.31,2.47-4.91,3.82-10.15,3.82-6.06,0-13.82-1.78-22.38-4.93a154.82,154.82,0,0,0,2.57-18.42c4.57-3.38,9-6.92,13-10.55a108.29,108.29,0,0,1,8.43,9C128.45,100.58,131.64,108.44,129.52,112.47Z"/><ellipse class="cls-1" cx="75.88" cy="78.48" rx="10.75" ry="10.83"/></svg>