<?xml version="1.0" encoding="UTF-8" standalone="no"?>
<svg
   role="img"
   viewBox="-4.53 -4.53 248.82 41.82"
   version="1.1"
   id="svg19"
   xmlns:xlink="http://www.w3.org/1999/xlink"
   xmlns="http://www.w3.org/2000/svg"
   xmlns:svg="http://www.w3.org/2000/svg">
  <defs
     id="defs23" />
  <title
     id="title2">Broadcom Corporation logo</title>
  <path
     d="M237.32 9.09c-1.06 0-1.93-.86-1.93-1.92s.87-1.93 1.93-1.93 1.93.87 1.93 1.93-.87 1.92-1.93 1.92m0-4.32c-1.32 0-2.4 1.08-2.4 2.4 0 1.32 1.08 2.4 2.4 2.4 1.32 0 2.4-1.08 2.4-2.4 0-1.32-1.08-2.4-2.4-2.4"
     id="path4" />
  <path
     d="M237.48 7.07l-.51.01-.01-.62h.51c.19-.01.34.11.34.3.01.19-.14.31-.33.31m.83-.32c-.01-.42-.3-.72-.77-.72l-1.07.02.03 2.26h.49l-.01-.81h.35l.46.8.55-.01-.52-.86c.24-.06.49-.28.49-.68M51.8341 23.1805h-5.999V9.3465h5.835c1.574 0 2.557 1.016 2.557 2.393 0 1.377-.983 2.36-2.557 2.36H45v4h6.8341c1.836 0 2.819 1.18 2.819 2.556 0 1.574-1.049 2.525-2.819 2.525m3.376-7.245c2.066-.426 3.771-2.262 3.771-5.015 0-2.918-2.131-5.573-6.295-5.573h-11.506v21.865h11.867c4.163 0 6.359-2.623 6.359-5.901 0-2.754-1.868-5.015-4.196-5.376m17.8225-.5902H68v4.098h3.5576l4.294 7.769h5.343l-4.917-8.327c2.361-.557 4.786-2.622 4.786-6.49m0 0c0-4.065-2.786-7.048-7.343-7.048h-10.228v21.865h4.655V9.4453h4.885c1.869 0 3.278 1.114 3.278 2.95s-1.409 2.95-3.278 2.95m43.4206 4.0652l3.409-9.408 3.41 9.408zm.492-14.063l-8.458 21.865h5.31l1.377-3.704h9.376l1.344 3.704h5.311l-8.425-21.865zm26.9039 17.7671h-3.967v-13.67h3.967c4.491 0 6.851 2.983 6.851 6.852 0 3.704-2.524 6.818-6.851 6.818m0-17.767h-8.622v21.865h8.622c6.851 0 11.604-4.327 11.604-10.916s-4.753-10.949-11.604-10.949m82.1269-.0045l-5.734 9.27-5.734-9.27h-5.146v21.869h4.656v-14.293l5.012 7.622c.574.871 1.851.871 2.424 0l5.013-7.622v14.293h4.656V5.3431z"
     id="path6" />
  <path
     id="a"
     d="M95.8253 23.3441c-3.871 0-7.008-3.138-7.008-7.008 0-3.871 3.137-7.009 7.008-7.009 3.87 0 7.008 3.138 7.008 7.009 0 3.87-3.138 7.008-7.008 7.008m0-18.536c-6.367 0-11.528 5.161-11.528 11.528 0 6.366 5.161 11.527 11.528 11.527 6.366 0 11.528-5.161 11.528-11.527 0-6.367-5.162-11.528-11.528-11.528" />
  <path
     d="M176.4035 19.7269c-1.195 2.156-3.492 3.617-6.132 3.617-3.87 0-7.008-3.138-7.008-7.008 0-3.871 3.138-7.008 7.008-7.008 2.618 0 4.897 1.438 6.1 3.565l3.27-3.269c-2.092-2.915-5.508-4.816-9.37-4.816-6.367 0-11.527 5.161-11.527 11.528 0 6.366 5.16 11.528 11.527 11.528 3.883 0 7.316-1.922 9.404-4.865z"
     id="path9" />
  <use
     transform="translate(98.718)"
     xlink:href="#a"
     id="use11" />
  <ellipse
     cx="16.52"
     cy="16.497"
     fill="#cc092f"
     rx="16.236"
     ry="16.235"
     id="ellipse13" />
  <path
     fill="#fff"
     d="M30.8253 20.8832c-1.857-.74-3.557-.492-5.261.541 0 0-.621.379-.807.496-.794.498-1.543.97-2.263.97-.687 0-1.363-.184-1.649-1.513-.446-2.073-1.534-7.167-2.009-9.69-.279-1.483-.432-2.282-.591-2.825-.28-.954-.792-1.473-1.519-1.556 0 0-.114-.016-.207-.016-.092 0-.218.018-.218.018-.72.086-1.229.605-1.507 1.554-.159.543-.312 1.342-.591 2.825-.475 2.523-1.563 7.617-2.009 9.69-.286 1.329-.962 1.513-1.649 1.513-.72 0-1.469-.472-2.263-.97-.186-.117-.808-.496-.808-.496-1.703-1.033-3.404-1.281-5.26-.541-.401.16-.79596.33918-1.17196.52018.257.806.57693 1.59925.94993 2.34425.411-.202.84203-.40243 1.28203-.53243.634-.187 1.284-.197 1.914.014.612.205 1.157.568 1.7.909 1.023.643 2.182 1.372 3.657 1.372 2.186 0 3.72-1.305 4.21-3.581.38-1.764 1.222-5.702 1.763-8.418 0 0 1.386 6.654 1.765 8.418.49 2.276 2.025 3.581 4.211 3.581 1.475 0 2.634-.729 3.657-1.372.543-.341 1.088-.704 1.7-.909.629-.211 1.28-.201 1.914-.014.44.13.87039.33065 1.28139.53265.374-.745.69309-1.53862.95009-2.34462-.376-.181-.77048-.36003-1.17148-.52003"
     id="path15" />
  <g
     aria-label="CA Brightside"
     id="text17"
     style="font-size:11px;text-anchor:middle">
    <path
       d="m 94.321136,49.419922 q -0.29541,0.128906 -0.537109,0.241699 -0.236328,0.112793 -0.623047,0.236328 Q 92.833344,50 92.446625,50.069824 q -0.381348,0.0752 -0.843262,0.0752 -0.870117,0 -1.584473,-0.2417 -0.708984,-0.24707 -1.235351,-0.768066 -0.515625,-0.510254 -0.805664,-1.294434 -0.290039,-0.78955 -0.290039,-1.831543 0,-0.988281 0.279297,-1.76709 0.279296,-0.778808 0.805664,-1.315917 0.510254,-0.520997 1.22998,-0.794922 0.725098,-0.273926 1.605957,-0.273926 0.644531,0 1.283692,0.155762 0.644531,0.155761 1.42871,0.547851 v 1.262207 h -0.08057 q -0.660644,-0.553222 -1.310547,-0.805664 -0.649902,-0.252441 -1.391113,-0.252441 -0.606934,0 -1.095703,0.19873 -0.483399,0.19336 -0.864746,0.606934 -0.370606,0.402832 -0.580078,1.020508 -0.204102,0.612304 -0.204102,1.417968 0,0.843262 0.225586,1.450196 0.230957,0.606933 0.59082,0.988281 0.375977,0.397461 0.875489,0.59082 0.504882,0.187988 1.063476,0.187988 0.768067,0 1.439453,-0.263183 0.671387,-0.263184 1.256836,-0.789551 h 0.07519 z"
       style="font-size:11px;text-anchor:middle"
       id="path25" />
    <path
       d="m 102.14145,50 h -1.1333 l -0.78418,-2.229004 H 96.764984 L 95.980804,50 h -1.079589 l 2.911132,-7.997559 h 1.417969 z M 99.896332,46.85791 98.494476,42.931641 97.08725,46.85791 Z"
       style="font-size:11px;text-anchor:middle"
       id="path27" />
    <path
       d="m 113.25424,47.540039 q 0,0.596191 -0.22558,1.052734 -0.22559,0.456543 -0.60694,0.751954 -0.45117,0.354492 -0.99365,0.504882 Q 110.89096,50 110.05844,50 h -2.83594 v -7.997559 h 2.36866 q 0.87548,0 1.31054,0.06445 0.43506,0.06445 0.83252,0.268554 0.44043,0.230957 0.63916,0.596192 0.19873,0.359863 0.19873,0.864746 0,0.569336 -0.29004,0.972168 -0.29004,0.397461 -0.77343,0.63916 v 0.04297 q 0.81103,0.166503 1.27832,0.714355 0.46728,0.542481 0.46728,1.375 z m -1.78857,-3.604004 q 0,-0.290039 -0.0967,-0.488769 -0.0967,-0.198731 -0.31153,-0.322266 -0.25244,-0.14502 -0.6123,-0.177246 -0.35986,-0.0376 -0.8916,-0.0376 h -1.26758 v 2.309571 h 1.375 q 0.49951,0 0.79492,-0.04834 0.29541,-0.05371 0.54785,-0.214844 0.25245,-0.161133 0.3545,-0.413574 0.10742,-0.257813 0.10742,-0.606934 z m 0.68213,3.646973 q 0,-0.483399 -0.14502,-0.768067 -0.14502,-0.284668 -0.52637,-0.483398 -0.25781,-0.134277 -0.62842,-0.171875 -0.36523,-0.04297 -0.8916,-0.04297 h -1.67041 v 2.975586 h 1.40723 q 0.69824,0 1.14404,-0.06982 0.4458,-0.0752 0.73047,-0.268555 0.30078,-0.209472 0.44043,-0.478027 0.13965,-0.268555 0.13965,-0.692871 z"
       style="font-size:11px;text-anchor:middle"
       id="path29" />
    <path
       d="m 118.42661,45.101562 h -0.0537 q -0.22558,-0.05371 -0.44043,-0.0752 -0.20947,-0.02685 -0.49951,-0.02685 -0.46728,0 -0.90234,0.209472 -0.43506,0.204102 -0.83789,0.531739 V 50 h -1.00977 v -5.999512 h 1.00977 v 0.886231 q 0.60156,-0.483399 1.0581,-0.682129 0.46192,-0.204102 0.93995,-0.204102 0.26318,0 0.38134,0.01611 0.11817,0.01074 0.3545,0.04834 z"
       style="font-size:11px;text-anchor:middle"
       id="path31" />
    <path
       d="m 120.47299,42.996094 h -1.13867 V 41.94873 h 1.13867 z M 120.40854,50 h -1.00977 v -5.999512 h 1.00977 z"
       style="font-size:11px;text-anchor:middle"
       id="path33" />
    <path
       d="m 127.28354,49.317871 q 0,1.525391 -0.69287,2.239746 -0.69287,0.714356 -2.13233,0.714356 -0.47802,0 -0.93457,-0.06983 -0.45117,-0.06445 -0.8916,-0.187988 v -1.03125 h 0.0537 q 0.24707,0.09668 0.78418,0.236328 0.53711,0.14502 1.07422,0.14502 0.51563,0 0.854,-0.123535 0.33838,-0.123536 0.52637,-0.34375 0.18799,-0.209473 0.26856,-0.504883 0.0806,-0.29541 0.0806,-0.660645 v -0.547851 q -0.45654,0.365234 -0.87549,0.547851 -0.41357,0.177246 -1.0581,0.177246 -1.07422,0 -1.70801,-0.773437 -0.62842,-0.778809 -0.62842,-2.191406 0,-0.773438 0.21485,-1.332032 0.22021,-0.563964 0.59619,-0.972168 0.34912,-0.381347 0.84863,-0.59082 0.49951,-0.214844 0.99365,-0.214844 0.521,0 0.87012,0.107422 0.35449,0.102051 0.74658,0.316895 l 0.0645,-0.257813 h 0.94531 z m -1.00977,-0.966797 v -3.270996 q -0.40283,-0.182617 -0.75195,-0.257812 -0.34375,-0.08057 -0.6875,-0.08057 -0.83252,0 -1.31055,0.558594 -0.47802,0.558594 -0.47802,1.62207 0,1.009766 0.35449,1.530762 0.35449,0.520996 1.17627,0.520996 0.44043,0 0.88086,-0.166504 0.4458,-0.171875 0.8164,-0.456543 z"
       style="font-size:11px;text-anchor:middle"
       id="path35" />
    <path
       d="m 134.28745,50 h -1.00977 v -3.416016 q 0,-0.413574 -0.0483,-0.773437 -0.0483,-0.365235 -0.17725,-0.569336 -0.13427,-0.225586 -0.38672,-0.333008 -0.25244,-0.112793 -0.65527,-0.112793 -0.41357,0 -0.86474,0.204102 -0.45118,0.204101 -0.86475,0.520996 V 50 h -1.00977 v -8.357422 h 1.00977 v 3.023926 q 0.47266,-0.39209 0.97754,-0.612305 0.50488,-0.220215 1.03662,-0.220215 0.97217,0 1.48242,0.58545 0.51026,0.585449 0.51026,1.686523 z"
       style="font-size:11px;text-anchor:middle"
       id="path37" />
    <path
       d="m 139.34702,49.946289 q -0.28467,0.0752 -0.62305,0.123535 -0.33301,0.04834 -0.59619,0.04834 -0.91846,0 -1.39649,-0.494141 -0.47802,-0.49414 -0.47802,-1.584472 v -3.19043 h -0.68213 v -0.848633 h 0.68213 v -1.724121 h 1.00976 v 1.724121 h 2.08399 v 0.848633 h -2.08399 v 2.733887 q 0,0.472656 0.0215,0.741211 0.0215,0.263183 0.15039,0.49414 0.11816,0.214844 0.32226,0.316895 0.20947,0.09668 0.63379,0.09668 0.24707,0 0.51563,-0.06983 0.26855,-0.0752 0.38671,-0.123535 h 0.0537 z"
       style="font-size:11px;text-anchor:middle"
       id="path39" />
    <path
       d="m 144.85776,48.270508 q 0,0.821777 -0.68213,1.348144 -0.67676,0.526368 -1.85303,0.526368 -0.66601,0 -1.22461,-0.155762 -0.55322,-0.161133 -0.9292,-0.349121 v -1.133301 h 0.0537 q 0.47803,0.359863 1.06348,0.574707 0.58545,0.209473 1.12256,0.209473 0.66601,0 1.04199,-0.214844 0.37598,-0.214844 0.37598,-0.676758 0,-0.354492 -0.2041,-0.537109 -0.20411,-0.182618 -0.78418,-0.311524 -0.21485,-0.04834 -0.56397,-0.112793 -0.34375,-0.06445 -0.62842,-0.139648 -0.78955,-0.209473 -1.12256,-0.612305 -0.32763,-0.408203 -0.32763,-0.999023 0,-0.370606 0.15039,-0.698242 0.15576,-0.327637 0.46728,-0.58545 0.30079,-0.252441 0.7627,-0.397461 0.46728,-0.15039 1.04199,-0.15039 0.53711,0 1.08496,0.134277 0.55323,0.128906 0.91846,0.316895 v 1.079589 h -0.0537 q -0.38672,-0.284668 -0.93994,-0.478027 -0.55323,-0.19873 -1.08496,-0.19873 -0.55323,0 -0.93457,0.214843 -0.38135,0.209473 -0.38135,0.628418 0,0.370606 0.23096,0.558594 0.22558,0.187988 0.73046,0.306152 0.2793,0.06445 0.62305,0.128907 0.34912,0.06445 0.58008,0.118164 0.70361,0.161133 1.08496,0.553222 0.38135,0.397461 0.38135,1.052735 z"
       style="font-size:11px;text-anchor:middle"
       id="path41" />
    <path
       d="m 147.39291,42.996094 h -1.13867 V 41.94873 h 1.13867 z M 147.32846,50 h -1.00976 v -5.999512 h 1.00976 z"
       style="font-size:11px;text-anchor:middle"
       id="path43" />
    <path
       d="m 154.20346,50 h -1.00976 v -0.628418 q -0.43506,0.375977 -0.90772,0.585449 -0.47266,0.209473 -1.02588,0.209473 -1.07422,0 -1.70801,-0.827149 -0.62841,-0.827148 -0.62841,-2.293457 0,-0.762695 0.21484,-1.358886 0.22021,-0.596192 0.59082,-1.015137 0.36523,-0.408203 0.84863,-0.623047 0.48877,-0.214844 1.00977,-0.214844 0.47265,0 0.83789,0.102051 0.36523,0.09668 0.76807,0.306152 v -2.599609 h 1.00976 z m -1.00976,-1.477051 v -3.442871 q -0.40821,-0.182617 -0.73047,-0.252441 -0.32227,-0.06983 -0.70362,-0.06983 -0.84863,0 -1.32129,0.590821 -0.47265,0.59082 -0.47265,1.675781 0,1.068848 0.36523,1.627441 0.36524,0.553223 1.1709,0.553223 0.42969,0 0.87012,-0.187988 0.44043,-0.19336 0.82178,-0.494141 z"
       style="font-size:11px;text-anchor:middle"
       id="path45" />
    <path
       d="m 161.21274,47.10498 h -4.42041 q 0,0.553223 0.1665,0.966797 0.16651,0.408203 0.45654,0.671387 0.2793,0.257813 0.66065,0.386719 0.38672,0.128906 0.84863,0.128906 0.61231,0 1.22998,-0.241699 0.62305,-0.24707 0.88623,-0.483399 h 0.0537 v 1.101075 q -0.51025,0.214843 -1.04199,0.359863 -0.53174,0.145019 -1.11719,0.145019 -1.49316,0 -2.33105,-0.805664 -0.83789,-0.811035 -0.83789,-2.298828 0,-1.471679 0.80029,-2.336426 0.80567,-0.864746 2.11621,-0.864746 1.21387,0 1.86914,0.708985 0.66065,0.708984 0.66065,2.01416 z m -0.98291,-0.773437 q -0.005,-0.794922 -0.40283,-1.229981 -0.39209,-0.435058 -1.19776,-0.435058 -0.81103,0 -1.29443,0.478027 -0.47803,0.478028 -0.54248,1.187012 z"
       style="font-size:11px;text-anchor:middle"
       id="path47" />
  </g>
</svg>
