<svg xmlns="http://www.w3.org/2000/svg" role="img" xmlns:xlink="http://www.w3.org/1999/xlink" viewBox="-4.53 -4.53 248.82 61.32"><path d="M237.32 9.09c-1.06 0-1.93-.86-1.93-1.92s.87-1.93 1.93-1.93 1.93.87 1.93 1.93-.87 1.92-1.93 1.92m0-4.32c-1.32 0-2.4 1.08-2.4 2.4 0 1.32 1.08 2.4 2.4 2.4 1.32 0 2.4-1.08 2.4-2.4 0-1.32-1.08-2.4-2.4-2.4"/><path d="M237.48 7.07l-.51.01-.01-.62h.51c.19-.01.34.11.34.3.01.19-.14.31-.33.31m.83-.32c-.01-.42-.3-.72-.77-.72l-1.07.02.03 2.26h.49l-.01-.81h.35l.46.8.55-.01-.52-.86c.24-.06.49-.28.49-.68M51.8341 23.1805h-5.999V9.3465h5.835c1.574 0 2.557 1.016 2.557 2.393 0 1.377-.983 2.36-2.557 2.36H45v4h6.8341c1.836 0 2.819 1.18 2.819 2.556 0 1.574-1.049 2.525-2.819 2.525m3.376-7.245c2.066-.426 3.771-2.262 3.771-5.015 0-2.918-2.131-5.573-6.295-5.573h-11.506v21.865h11.867c4.163 0 6.359-2.623 6.359-5.901 0-2.754-1.868-5.015-4.196-5.376m17.8225-.5902H68v4.098h3.5576l4.294 7.769h5.343l-4.917-8.327c2.361-.557 4.786-2.622 4.786-6.49m0 0c0-4.065-2.786-7.048-7.343-7.048h-10.228v21.865h4.655V9.4453h4.885c1.869 0 3.278 1.114 3.278 2.95s-1.409 2.95-3.278 2.95m43.4206 4.0652l3.409-9.408 3.41 9.408zm.492-14.063l-8.458 21.865h5.31l1.377-3.704h9.376l1.344 3.704h5.311l-8.425-21.865zm26.9039 17.7671h-3.967v-13.67h3.967c4.491 0 6.851 2.983 6.851 6.852 0 3.704-2.524 6.818-6.851 6.818m0-17.767h-8.622v21.865h8.622c6.851 0 11.604-4.327 11.604-10.916s-4.753-10.949-11.604-10.949m82.1269-.0045l-5.734 9.27-5.734-9.27h-5.146v21.869h4.656v-14.293l5.012 7.622c.574.871 1.851.871 2.424 0l5.013-7.622v14.293h4.656V5.3431z"/><path id="a" d="M95.8253 23.3441c-3.871 0-7.008-3.138-7.008-7.008 0-3.871 3.137-7.009 7.008-7.009 3.87 0 7.008 3.138 7.008 7.009 0 3.87-3.138 7.008-7.008 7.008m0-18.536c-6.367 0-11.528 5.161-11.528 11.528 0 6.366 5.161 11.527 11.528 11.527 6.366 0 11.528-5.161 11.528-11.527 0-6.367-5.162-11.528-11.528-11.528"/><path d="M176.4035 19.7269c-1.195 2.156-3.492 3.617-6.132 3.617-3.87 0-7.008-3.138-7.008-7.008 0-3.871 3.138-7.008 7.008-7.008 2.618 0 4.897 1.438 6.1 3.565l3.27-3.269c-2.092-2.915-5.508-4.816-9.37-4.816-6.367 0-11.527 5.161-11.527 11.528 0 6.366 5.16 11.528 11.527 11.528 3.883 0 7.316-1.922 9.404-4.865z"/><use transform="translate(98.718)" xlink:href="#a"/><ellipse cx="16.52" cy="16.497" fill="#cc092f" rx="16.236" ry="16.235"/><path fill="#fff" d="M30.8253 20.8832c-1.857-.74-3.557-.492-5.261.541 0 0-.621.379-.807.496-.794.498-1.543.97-2.263.97-.687 0-1.363-.184-1.649-1.513-.446-2.073-1.534-7.167-2.009-9.69-.279-1.483-.432-2.282-.591-2.825-.28-.954-.792-1.473-1.519-1.556 0 0-.114-.016-.207-.016-.092 0-.218.018-.218.018-.72.086-1.229.605-1.507 1.554-.159.543-.312 1.342-.591 2.825-.475 2.523-1.563 7.617-2.009 9.69-.286 1.329-.962 1.513-1.649 1.513-.72 0-1.469-.472-2.263-.97-.186-.117-.808-.496-.808-.496-1.703-1.033-3.404-1.281-5.26-.541-.401.16-.79596.33918-1.17196.52018.257.806.57693 1.59925.94993 2.34425.411-.202.84203-.40243 1.28203-.53243.634-.187 1.284-.197 1.914.014.612.205 1.157.568 1.7.909 1.023.643 2.182 1.372 3.657 1.372 2.186 0 3.72-1.305 4.21-3.581.38-1.764 1.222-5.702 1.763-8.418 0 0 1.386 6.654 1.765 8.418.49 2.276 2.025 3.581 4.211 3.581 1.475 0 2.634-.729 3.657-1.372.543-.341 1.088-.704 1.7-.909.629-.211 1.28-.201 1.914-.014.44.13.87039.33065 1.28139.53265.374-.745.69309-1.53862.95009-2.34462-.376-.181-.77048-.36003-1.17148-.52003"/><path d="M85.91156 39.9359h2.38803c.52415 0 .95814.05662 1.2957.16983.39416.16144.59124.4969.59124 1.00218 0 .45706-.14886.77574-.44658.95395-.29772.1803-.68349.27046-1.16151.27046h-2.66688zm0 4.1953h2.70461c.47174.0042.83655.065 1.09862.18241.46545.21176.70027.59963.70027 1.16571 0 .66881-.24111 1.11958-.72333 1.3565-.26417.1279-.63527.19079-1.1133.19079h-2.66687zm5.93967-4.9249c-.5556-.75269-1.49907-1.13846-2.83041-1.15733h-5.27714v10.86458h4.92281c.5556 0 1.07137-.04822 1.5452-.14676s.88476-.28095 1.2349-.54512c.3103-.23062.56817-.51576.77364-.85541.32497-.51157.48641-1.08814.48641-1.7318 0-.62478-.14047-1.15522-.42351-1.5934-.28304-.4361-.70236-.75688-1.25796-.95815.3648-.1866.63946-.39207.82606-.6185.33545-.40255.50109-.93718.50109-1.5997 0-.64366-.16564-1.19717-.5011-1.65842zm7.05086 1.48439c-.02725-.0021-.0608-.0021-.10063-.0021-.62898 0-1.13846.16353-1.53262.4927-.2411.19708-.52205.56398-.84702 1.09862v-1.40053h-2.00435v8.03417h2.11547v-3.83887c0-.64576.07967-1.12169.2432-1.43198.28933-.54931.85751-.82397 1.70244-.82397.0629 0 .14676.0021.2495.0063.10483.00628.22224.01467.35432.02935v-2.15112c-.09435-.00629-.15305-.00838-.1803-.01257zm3.57051-.76946v-1.93935h-2.13014v1.93935zm-2.13014.95815v8.03417h2.13014v-8.03417zm8.86023 5.75307c-.33965.3711-.75478.5556-1.24538.5556-.738 0-1.24748-.33755-1.53262-1.01685-.15724-.36271-.23691-.77784-.23691-1.24538 0-.54093.07338-.9938.22224-1.3628.27885-.69397.78832-1.0399 1.52423-1.0399.54092 0 .97282.19917 1.2936.59752.32287.39836.48431.97702.48431 1.74018 0 .80929-.16982 1.40053-.50947 1.77163zm-.71494-5.75936c-.29982-.1237-.65204-.1845-1.0546-.1845-1.09022 0-1.93306.40674-2.5285 1.22022-.59333.81138-.89105 1.81566-.89105 3.01072 0 1.237.3082 2.2182.9246 2.94362.6164.72543 1.44247 1.08814 2.474 1.08814.66671 0 1.20973-.15934 1.62905-.48012.23063-.17192.44658-.4298.64785-.77365v.51577c0 .76735-.08386 1.31247-.2516 1.63744-.25368.50528-.76106.75897-1.51793.75897-.53463 0-.91621-.09644-1.14265-.28723-.13208-.10903-.22853-.28514-.28723-.53044h-2.2853c.0692.8009.42771 1.40262 1.07766 1.80517.64785.40255 1.48649.60382 2.51382.60382 1.69825 0 2.84928-.45287 3.4489-1.3565.34804-.52625.52206-1.30618.52206-2.344v-7.62114h-2.04v1.15732c-.31448-.56398-.72751-.95395-1.23908-1.16361zm-.38368-.20756zm11.4076.26626c-.40674-.17192-.8575-.25788-1.3544-.25788-.44029 0-.8617.09225-1.26216.27675-.40045.1824-.75477.50948-1.05878.97492v-3.83887h-2.0924v10.82684h2.0924V44.5652c0-.68768.14467-1.21812.4319-1.58922.28724-.3711.70865-.5556 1.26425-.5556.53463 0 .89944.1866 1.09023.5598.14677.26626.22015.6143.22015 1.0462v4.88717h2.14482V44.1962c0-.71704-.02306-1.2349-.07338-1.55148-.04822-.31659-.1845-.62479-.40465-.9246-.25998-.35433-.59333-.6164-.99798-.78833zm2.61237 1.51794h1.11958v4.94588c0 .50109.1195.87219.35432 1.1133.36272.37738 1.04202.5493 2.0337.51576l.9959-.03774v-1.57035a3.41155 3.41155 0 0 1-.20967.01258c-.07128.0021-.13837.0042-.20337.0042-.4277 0-.68349-.04194-.76735-.1237-.08177-.07968-.1237-.28515-.1237-.61431v-4.24562h1.30408v-1.49697h-1.30408v-2.23917h-2.07983v2.23917h-1.11958zm7.48905 3.89968h-2.13015c0 .82396.29982 1.50326.90154 2.0379.60382.53253 1.53471.7988 2.79896.7988 1.237 0 2.15321-.2516 2.74445-.75478.59334-.50318.88896-1.15313.88896-1.94984 0-.60382-.20756-1.1091-.6206-1.51164-.41722-.39836-1.0441-.69398-1.87855-.89106-1.25376-.27465-1.98338-.46964-2.18885-.58285-.20756-.10693-.3103-.28304-.3103-.52206 0-.19288.09645-.36061.29143-.50318.19499-.14047.51996-.21176.97702-.21176.5556 0 .94766.14047 1.17829.42561.1237.15725.19918.3711.22853.64156h2.1008c-.09226-.9812-.45497-1.67309-1.08605-2.07354-.63107-.40045-1.44875-.60172-2.45092-.60172-1.05669 0-1.87646.26627-2.45931.8009-.58076.53254-.87219 1.1699-.87219 1.9121 0 .62898.1866 1.1112.5598 1.44456.37319.33965 1.01475.6206 1.92467.84702 1.26215.29982 1.99177.51157 2.18885.63527.19499.1216.29353.30191.29353.53673 0 .2453-.1216.4298-.36481.5535-.2432.1216-.57028.1845-.9833.1845-.70237 0-1.18459-.14047-1.44457-.42141-.14676-.15724-.2432-.42142-.28723-.79461zm1.606-5.68388zm7.31294-.7443v-1.93935h-2.13015v1.93935zm-2.13015.95815v8.03417h2.13015v-8.03417zm8.42414.12999c-.37739-.21385-.81138-.32078-1.2978-.32078-1.05668 0-1.89952.39206-2.5306 1.17829-.63316.78622-.94765 1.86597-.94765 3.23715 0 1.18877.32077 2.1616.96233 2.92266.64156.75897 1.42989 1.13845 2.36916 1.13845.57028 0 1.0462-.10902 1.42988-.32497.38368-.21595.72543-.56189 1.02524-1.03991v1.11329h2.04v-10.8499h-2.13015v3.83258c-.23482-.37739-.54302-.673-.92041-.88686zm.51576 5.72372c-.3103.44028-.76106.66252-1.3565.66252-.59333 0-1.03781-.22224-1.32924-.66672-.29352-.44448-.44029-1.03781-.44029-1.78001 0-.68769.14467-1.26425.4319-1.7297.28724-.46334.738-.69607 1.35231-.69607.40255 0 .75687.1279 1.06298.38368.4948.42142.74429 1.12588.74429 2.10708 0 .70446-.15515 1.27683-.46545 1.71922zm6.4827-3.87871c.26836-.30401.64574-.45706 1.13215-.45706.44658 0 .82187.14466 1.12378.4319.30191.28723.46964.70865.50528 1.26425h-3.2665c.06919-.52206.23692-.93299.50528-1.2391zm2.93733-1.81356c-.53464-.2495-1.13846-.3753-1.80518-.3753-1.12587 0-2.04208.3711-2.74654 1.1133-.70446.7422-1.05669 1.80937-1.05669 3.19941 0 1.4844.38997 2.55576 1.172 3.21409.77994.65833 1.68148.9875 2.70462.9875 1.23909 0 2.20143-.39207 2.88911-1.172.44238-.4927.68978-.97702.7443-1.45294h-2.14483c-.11321.23691-.2432.42141-.38997.5535-.27046.2453-.62269.369-1.05459.369-.40883 0-.75687-.10064-1.0462-.304-.47802-.32288-.72962-.88897-.75897-1.69406h5.49729c.01048-.69397-.01258-1.22441-.065-1.59342-.09434-.62898-.29771-1.18038-.6122-1.6584-.35014-.53883-.79042-.9351-1.32715-1.18668zm-1.65841-.3753z"/></svg>