<?xml version="1.0" encoding="UTF-8" standalone="no"?>
<svg
   xmlns:dc="http://purl.org/dc/elements/1.1/"
   xmlns:cc="http://creativecommons.org/ns#"
   xmlns:rdf="http://www.w3.org/1999/02/22-rdf-syntax-ns#"
   xmlns:svg="http://www.w3.org/2000/svg"
   xmlns="http://www.w3.org/2000/svg"
   xmlns:xlink="http://www.w3.org/1999/xlink"
   version="1.1"
   width="240"
   height="70"
   id="svg2">
  <metadata
     id="metadata21">
    <rdf:RDF>
      <cc:Work
         rdf:about="">
        <dc:format>image/svg+xml</dc:format>
        <dc:type
           rdf:resource="http://purl.org/dc/dcmitype/StillImage" />
      </cc:Work>
    </rdf:RDF>
  </metadata>
  <defs
     id="defs19" />
  <path
     d="m 237.32,9.09 c -1.06,0 -1.93,-0.86 -1.93,-1.92 0,-1.06 0.87,-1.93 1.93,-1.93 1.06,0 1.93,0.87 1.93,1.93 0,1.06 -0.87,1.92 -1.93,1.92 m 0,-4.32 c -1.32,0 -2.4,1.08 -2.4,2.4 0,1.32 1.08,2.4 2.4,2.4 1.32,0 2.4,-1.08 2.4,-2.4 0,-1.32 -1.08,-2.4 -2.4,-2.4"
     id="path4" />
  <path
     d="m 237.48,7.07 -0.51,0.01 -0.01,-0.62 h 0.51 c 0.19,-0.01 0.34,0.11 0.34,0.3 0.01,0.19 -0.14,0.31 -0.33,0.31 m 0.83,-0.32 c -0.01,-0.42 -0.3,-0.72 -0.77,-0.72 l -1.07,0.02 0.03,2.26 h 0.49 L 236.98,7.5 h 0.35 l 0.46,0.8 0.55,-0.01 -0.52,-0.86 c 0.24,-0.06 0.49,-0.28 0.49,-0.68"
     id="path6" />
  <path
     d="m 51.8341,23.1805 h -5.999 V 9.3465 h 5.835 c 1.574,0 2.557,1.016 2.557,2.393 0,1.377 -0.983,2.36 -2.557,2.36 H 45 v 4 h 6.8341 c 1.836,0 2.819,1.18 2.819,2.556 0,1.574 -1.049,2.525 -2.819,2.525 m 3.376,-7.245 c 2.066,-0.426 3.771,-2.262 3.771,-5.015 0,-2.918 -2.131,-5.573 -6.295,-5.573 h -11.506 v 21.865 h 11.867 c 4.163,0 6.359,-2.623 6.359,-5.901 0,-2.754 -1.868,-5.015 -4.196,-5.376"
     id="path10" />
  <path
     d="M 73.0326,15.3453 H 68 v 4.098 h 3.5576 l 4.294,7.769 h 5.343 l -4.917,-8.327 c 2.361,-0.557 4.786,-2.622 4.786,-6.49 m 0,0 c 0,-4.065 -2.786,-7.048 -7.343,-7.048 h -10.228 v 21.865 h 4.655 V 9.4453 h 4.885 c 1.869,0 3.278,1.114 3.278,2.95 0,1.836 -1.409,2.95 -3.278,2.95"
     id="path12" />
  <path
     d="m 116.4532,19.4105 3.409,-9.408 3.41,9.408 z m 0.492,-14.063 -8.458,21.865 h 5.31 l 1.377,-3.704 h 9.376 l 1.344,3.704 h 5.311 l -8.425,-21.865 z"
     id="path14" />
  <path
     d="m 143.8491,23.1146 h -3.967 v -13.67 h 3.967 c 4.491,0 6.851,2.983 6.851,6.852 0,3.704 -2.524,6.818 -6.851,6.818 m 0,-17.767 h -8.622 v 21.865 h 8.622 c 6.851,0 11.604,-4.327 11.604,-10.916 0,-6.589 -4.753,-10.949 -11.604,-10.949"
     id="path16" />
  <path
     d="m 225.976,5.3431 -5.734,9.27 -5.734,-9.27 h -5.146 v 21.869 h 4.656 v -14.293 l 5.012,7.622 c 0.574,0.871 1.851,0.871 2.424,0 l 5.013,-7.622 v 14.293 h 4.656 V 5.3431 Z"
     id="path18" />
  <path
     d="m 95.8253,23.3441 c -3.871,0 -7.008,-3.138 -7.008,-7.008 0,-3.871 3.137,-7.009 7.008,-7.009 3.87,0 7.008,3.138 7.008,7.009 0,3.87 -3.138,7.008 -7.008,7.008 m 0,-18.536 c -6.367,0 -11.528,5.161 -11.528,11.528 0,6.366 5.161,11.527 11.528,11.527 6.366,0 11.528,-5.161 11.528,-11.527 0,-6.367 -5.162,-11.528 -11.528,-11.528"
     id="path20" />
  <path
     d="m 176.4035,19.7269 c -1.195,2.156 -3.492,3.617 -6.132,3.617 -3.87,0 -7.008,-3.138 -7.008,-7.008 0,-3.871 3.138,-7.008 7.008,-7.008 2.618,0 4.897,1.438 6.1,3.565 l 3.27,-3.269 c -2.092,-2.915 -5.508,-4.816 -9.37,-4.816 -6.367,0 -11.527,5.161 -11.527,11.528 0,6.366 5.16,11.528 11.527,11.528 3.883,0 7.316,-1.922 9.404,-4.865 z"
     id="path22" />
  <use
     xlink:href="#path20"
     transform="translate(98.7182)"
     id="use8" />
  <ellipse
     cx="16.519531"
     cy="16.49707"
     rx="16.236328"
     ry="16.235352"
     fill="#cc092f"
     id="ellipse24" />
  <path
     d="m 30.8253,20.8832 c -1.857,-0.74 -3.557,-0.492 -5.261,0.541 0,0 -0.621,0.379 -0.807,0.496 -0.794,0.498 -1.543,0.97 -2.263,0.97 -0.687,0 -1.363,-0.184 -1.649,-1.513 -0.446,-2.073 -1.534,-7.167 -2.009,-9.69 -0.279,-1.483 -0.432,-2.282 -0.591,-2.825 -0.28,-0.954 -0.792,-1.473 -1.519,-1.556 0,0 -0.114,-0.016 -0.207,-0.016 -0.092,0 -0.218,0.018 -0.218,0.018 -0.72,0.086 -1.229,0.605 -1.507,1.554 -0.159,0.543 -0.312,1.342 -0.591,2.825 -0.475,2.523 -1.563,7.617 -2.009,9.69 -0.286,1.329 -0.962,1.513 -1.649,1.513 -0.72,0 -1.469,-0.472 -2.263,-0.97 -0.186,-0.117 -0.808,-0.496 -0.808,-0.496 -1.703,-1.033 -3.404,-1.281 -5.26,-0.541 -0.401,0.16 -0.7959632,0.339183 -1.1719632,0.520183 0.257,0.806 0.5769317,1.59925 0.9499317,2.34425 0.411,-0.202 0.8420315,-0.402433 1.2820315,-0.532433 0.634,-0.187 1.284,-0.197 1.914,0.014 0.612,0.205 1.157,0.568 1.7,0.909 1.023,0.643 2.182,1.372 3.657,1.372 2.186,0 3.72,-1.305 4.21,-3.581 0.38,-1.764 1.222,-5.702 1.763,-8.418 0,0 1.386,6.654 1.765,8.418 0.49,2.276 2.025,3.581 4.211,3.581 1.475,0 2.634,-0.729 3.657,-1.372 0.543,-0.341 1.088,-0.704 1.7,-0.909 0.629,-0.211 1.28,-0.201 1.914,-0.014 0.44,0.13 0.870387,0.330647 1.281387,0.532647 0.374,-0.745 0.693089,-1.538621 0.950089,-2.344621 -0.376,-0.181 -0.770476,-0.360026 -1.171476,-0.520026"
     fill="#ffffff"
     id="path26" />
  <g
     aria-label="CA Data Content Discovery"
     id="text14"
     style="font-style:normal;font-variant:normal;font-weight:normal;font-stretch:normal;font-size:11px;line-height:normal;font-family:sans-serif;text-anchor:middle">
    <path
       d="m 52.077148,49.419922 q -0.29541,0.128906 -0.537109,0.241699 -0.236328,0.112793 -0.623047,0.236328 Q 50.589355,50 50.202637,50.069824 q -0.381348,0.0752 -0.843262,0.0752 -0.870117,0 -1.584473,-0.2417 -0.708984,-0.24707 -1.235351,-0.768066 -0.515625,-0.510254 -0.805664,-1.294434 -0.290039,-0.78955 -0.290039,-1.831543 0,-0.988281 0.279297,-1.76709 0.279296,-0.778808 0.805664,-1.315917 0.510253,-0.520997 1.22998,-0.794922 0.725098,-0.273926 1.605957,-0.273926 0.644531,0 1.283691,0.155762 0.644532,0.155761 1.428711,0.547851 v 1.262207 h -0.08057 q -0.660645,-0.553222 -1.310547,-0.805664 -0.649902,-0.252441 -1.391113,-0.252441 -0.606934,0 -1.095703,0.19873 -0.483399,0.19336 -0.864746,0.606934 -0.370606,0.402832 -0.580078,1.020508 -0.204102,0.612304 -0.204102,1.417968 0,0.843262 0.225586,1.450196 0.230957,0.606933 0.59082,0.988281 0.375977,0.397461 0.875488,0.59082 0.504883,0.187988 1.063477,0.187988 0.768066,0 1.439453,-0.263183 0.671387,-0.263184 1.256836,-0.789551 h 0.0752 z"
       style="font-style:normal;font-variant:normal;font-weight:normal;font-stretch:normal;font-size:11px;line-height:normal;font-family:sans-serif;text-anchor:middle"
       id="path23" />
    <path
       d="M 59.897461,50 H 58.76416 L 57.97998,47.770996 H 54.520996 L 53.736816,50 h -1.079589 l 2.911132,-7.997559 h 1.417969 z m -2.245117,-3.14209 -1.401856,-3.926269 -1.407226,3.926269 z"
       style="font-style:normal;font-variant:normal;font-weight:normal;font-stretch:normal;font-size:11px;line-height:normal;font-family:sans-serif;text-anchor:middle"
       id="path25" />
    <path
       d="m 71.735352,46.009277 q 0,1.090332 -0.478028,1.976563 -0.472656,0.88623 -1.262207,1.375 -0.547851,0.338379 -1.224609,0.488769 Q 68.099121,50 66.998047,50 h -2.019531 v -7.997559 h 1.998046 q 1.170899,0 1.858399,0.171875 0.692871,0.166504 1.170898,0.461914 0.816407,0.510254 1.27295,1.358887 0.456543,0.848633 0.456543,2.01416 z m -1.111817,-0.01611 q 0,-0.939941 -0.327637,-1.584473 Q 69.968262,43.76416 69.318359,43.393555 68.845703,43.125 68.313965,43.022949 67.782227,42.915527 67.041016,42.915527 h -0.999024 v 6.171387 h 0.999024 q 0.768066,0 1.337402,-0.112793 0.574707,-0.112793 1.052734,-0.418945 0.596192,-0.381348 0.891602,-1.004395 0.300781,-0.623047 0.300781,-1.557617 z"
       style="font-style:normal;font-variant:normal;font-weight:normal;font-stretch:normal;font-size:11px;line-height:normal;font-family:sans-serif;text-anchor:middle"
       id="path27" />
    <path
       d="m 78.046387,50 h -1.004395 v -0.63916 q -0.134277,0.09131 -0.365234,0.257812 -0.225586,0.161133 -0.44043,0.257813 Q 75.983887,50 75.65625,50.080566 q -0.327637,0.08594 -0.768066,0.08594 -0.811036,0 -1.375,-0.537109 -0.563965,-0.53711 -0.563965,-1.369629 0,-0.682129 0.290039,-1.101075 0.29541,-0.424316 0.83789,-0.666015 0.547852,-0.241699 1.315918,-0.327637 0.768067,-0.08594 1.648926,-0.128906 v -0.155762 q 0,-0.34375 -0.123535,-0.569336 -0.118164,-0.225586 -0.34375,-0.354492 -0.214844,-0.123535 -0.515625,-0.166504 -0.300781,-0.04297 -0.628418,-0.04297 -0.397461,0 -0.88623,0.107422 -0.48877,0.102051 -1.009766,0.300781 h -0.05371 v -1.025878 q 0.29541,-0.08057 0.854004,-0.177247 0.558594,-0.09668 1.101074,-0.09668 0.633789,0 1.101074,0.107422 0.472657,0.10205 0.816407,0.354492 0.338379,0.24707 0.515625,0.63916 0.177246,0.39209 0.177246,0.972168 z m -1.004395,-1.477051 v -1.67041 q -0.461914,0.02686 -1.090332,0.08057 -0.623047,0.05371 -0.988281,0.155762 -0.435059,0.123535 -0.703613,0.386719 -0.268555,0.257812 -0.268555,0.714355 0,0.515625 0.311523,0.778809 0.311524,0.257812 0.950684,0.257812 0.531738,0 0.972168,-0.204101 0.44043,-0.209473 0.816406,-0.499512 z"
       style="font-style:normal;font-variant:normal;font-weight:normal;font-stretch:normal;font-size:11px;line-height:normal;font-family:sans-serif;text-anchor:middle"
       id="path29" />
    <path
       d="m 83.116699,49.946289 q -0.284668,0.0752 -0.623047,0.123535 -0.333007,0.04834 -0.596191,0.04834 -0.918457,0 -1.396484,-0.494141 -0.478028,-0.49414 -0.478028,-1.584472 v -3.19043 H 79.34082 v -0.848633 h 0.682129 v -1.724121 h 1.009766 v 1.724121 h 2.083984 v 0.848633 h -2.083984 v 2.733887 q 0,0.472656 0.02148,0.741211 0.02148,0.263183 0.150391,0.49414 0.118164,0.214844 0.322265,0.316895 0.209473,0.09668 0.63379,0.09668 0.24707,0 0.515625,-0.06983 0.268554,-0.0752 0.386718,-0.123535 h 0.05371 z"
       style="font-style:normal;font-variant:normal;font-weight:normal;font-stretch:normal;font-size:11px;line-height:normal;font-family:sans-serif;text-anchor:middle"
       id="path31" />
    <path
       d="m 89.003418,50 h -1.004395 v -0.63916 q -0.134277,0.09131 -0.365234,0.257812 -0.225586,0.161133 -0.44043,0.257813 Q 86.940918,50 86.613281,50.080566 q -0.327636,0.08594 -0.768066,0.08594 -0.811035,0 -1.375,-0.537109 -0.563965,-0.53711 -0.563965,-1.369629 0,-0.682129 0.290039,-1.101075 0.29541,-0.424316 0.837891,-0.666015 0.547851,-0.241699 1.315918,-0.327637 0.768066,-0.08594 1.648925,-0.128906 v -0.155762 q 0,-0.34375 -0.123535,-0.569336 -0.118164,-0.225586 -0.34375,-0.354492 -0.214843,-0.123535 -0.515625,-0.166504 -0.300781,-0.04297 -0.628418,-0.04297 -0.397461,0 -0.88623,0.107422 -0.48877,0.102051 -1.009766,0.300781 h -0.05371 v -1.025878 q 0.29541,-0.08057 0.854004,-0.177247 0.558594,-0.09668 1.101074,-0.09668 0.633789,0 1.101075,0.107422 0.472656,0.10205 0.816406,0.354492 0.338379,0.24707 0.515625,0.63916 0.177246,0.39209 0.177246,0.972168 z m -1.004395,-1.477051 v -1.67041 q -0.461914,0.02686 -1.090332,0.08057 -0.623046,0.05371 -0.988281,0.155762 -0.435058,0.123535 -0.703613,0.386719 -0.268555,0.257812 -0.268555,0.714355 0,0.515625 0.311524,0.778809 0.311523,0.257812 0.950683,0.257812 0.531738,0 0.972168,-0.204101 0.44043,-0.209473 0.816406,-0.499512 z"
       style="font-style:normal;font-variant:normal;font-weight:normal;font-stretch:normal;font-size:11px;line-height:normal;font-family:sans-serif;text-anchor:middle"
       id="path33" />
    <path
       d="m 101.08301,49.419922 q -0.29541,0.128906 -0.53711,0.241699 -0.23633,0.112793 -0.623048,0.236328 Q 99.595215,50 99.208496,50.069824 q -0.381348,0.0752 -0.843262,0.0752 -0.870117,0 -1.584472,-0.2417 Q 96.071777,49.65625 95.54541,49.135254 95.029785,48.625 94.739746,47.84082 q -0.290039,-0.78955 -0.290039,-1.831543 0,-0.988281 0.279297,-1.76709 0.279297,-0.778808 0.805664,-1.315917 0.510254,-0.520997 1.22998,-0.794922 0.725098,-0.273926 1.605957,-0.273926 0.644532,0 1.283692,0.155762 0.644533,0.155761 1.428713,0.547851 v 1.262207 h -0.0806 q -0.66064,-0.553222 -1.310545,-0.805664 -0.649903,-0.252441 -1.391114,-0.252441 -0.606933,0 -1.095703,0.19873 -0.483398,0.19336 -0.864746,0.606934 -0.370605,0.402832 -0.580078,1.020508 -0.204102,0.612304 -0.204102,1.417968 0,0.843262 0.225586,1.450196 0.230957,0.606933 0.590821,0.988281 0.375976,0.397461 0.875488,0.59082 0.504883,0.187988 1.063476,0.187988 0.768067,0 1.439454,-0.263183 0.671383,-0.263184 1.256833,-0.789551 h 0.0752 z"
       style="font-style:normal;font-variant:normal;font-weight:normal;font-stretch:normal;font-size:11px;line-height:normal;font-family:sans-serif;text-anchor:middle"
       id="path35" />
    <path
       d="m 107.63037,47.00293 q 0,1.466308 -0.75195,2.314941 -0.75196,0.848633 -2.01416,0.848633 -1.27295,0 -2.0249,-0.848633 -0.74659,-0.848633 -0.74659,-2.314941 0,-1.466309 0.74659,-2.314942 0.75195,-0.854004 2.0249,-0.854004 1.2622,0 2.01416,0.854004 0.75195,0.848633 0.75195,2.314942 z m -1.04199,0 q 0,-1.165528 -0.45654,-1.729493 -0.45655,-0.569335 -1.26758,-0.569335 -0.82178,0 -1.27832,0.569335 -0.45117,0.563965 -0.45117,1.729493 0,1.127929 0.45654,1.713379 0.45654,0.580078 1.27295,0.580078 0.80566,0 1.2622,-0.574707 0.46192,-0.580078 0.46192,-1.71875 z"
       style="font-style:normal;font-variant:normal;font-weight:normal;font-stretch:normal;font-size:11px;line-height:normal;font-family:sans-serif;text-anchor:middle"
       id="path37" />
    <path
       d="m 114.21533,50 h -1.00976 v -3.416016 q 0,-0.413574 -0.0483,-0.773437 -0.0483,-0.365235 -0.17725,-0.569336 -0.13428,-0.225586 -0.38672,-0.333008 -0.25244,-0.112793 -0.65527,-0.112793 -0.41358,0 -0.86475,0.204102 -0.45117,0.204101 -0.86474,0.520996 V 50 h -1.00977 v -5.999512 h 1.00977 v 0.666016 q 0.47265,-0.39209 0.97754,-0.612305 0.50488,-0.220215 1.03662,-0.220215 0.97216,0 1.48242,0.58545 0.51025,0.585449 0.51025,1.686523 z"
       style="font-style:normal;font-variant:normal;font-weight:normal;font-stretch:normal;font-size:11px;line-height:normal;font-family:sans-serif;text-anchor:middle"
       id="path39" />
    <path
       d="m 119.2749,49.946289 q -0.28467,0.0752 -0.62304,0.123535 -0.33301,0.04834 -0.5962,0.04834 -0.91845,0 -1.39648,-0.494141 -0.47803,-0.49414 -0.47803,-1.584472 v -3.19043 h -0.68213 v -0.848633 h 0.68213 v -1.724121 h 1.00977 v 1.724121 h 2.08398 v 0.848633 h -2.08398 v 2.733887 q 0,0.472656 0.0215,0.741211 0.0215,0.263183 0.15039,0.49414 0.11817,0.214844 0.32227,0.316895 0.20947,0.09668 0.63379,0.09668 0.24707,0 0.51562,-0.06983 0.26856,-0.0752 0.38672,-0.123535 h 0.0537 z"
       style="font-style:normal;font-variant:normal;font-weight:normal;font-stretch:normal;font-size:11px;line-height:normal;font-family:sans-serif;text-anchor:middle"
       id="path41" />
    <path
       d="m 125.52148,47.10498 h -4.42041 q 0,0.553223 0.16651,0.966797 0.1665,0.408203 0.45654,0.671387 0.2793,0.257813 0.66065,0.386719 0.38671,0.128906 0.84863,0.128906 0.6123,0 1.22998,-0.241699 0.62305,-0.24707 0.88623,-0.483399 h 0.0537 v 1.101075 q -0.51025,0.214843 -1.04199,0.359863 -0.53174,0.145019 -1.11719,0.145019 -1.49316,0 -2.33105,-0.805664 -0.83789,-0.811035 -0.83789,-2.298828 0,-1.471679 0.80029,-2.336426 0.80566,-0.864746 2.11621,-0.864746 1.21387,0 1.86914,0.708985 0.66064,0.708984 0.66064,2.01416 z m -0.98291,-0.773437 q -0.005,-0.794922 -0.40283,-1.229981 -0.39209,-0.435058 -1.19775,-0.435058 -0.81104,0 -1.29444,0.478027 -0.47802,0.478028 -0.54248,1.187012 z"
       style="font-style:normal;font-variant:normal;font-weight:normal;font-stretch:normal;font-size:11px;line-height:normal;font-family:sans-serif;text-anchor:middle"
       id="path43" />
    <path
       d="m 132.06885,50 h -1.00977 v -3.416016 q 0,-0.413574 -0.0483,-0.773437 -0.0483,-0.365235 -0.17724,-0.569336 -0.13428,-0.225586 -0.38672,-0.333008 -0.25244,-0.112793 -0.65528,-0.112793 -0.41357,0 -0.86474,0.204102 -0.45117,0.204101 -0.86475,0.520996 V 50 h -1.00976 v -5.999512 h 1.00976 v 0.666016 q 0.47266,-0.39209 0.97754,-0.612305 0.50488,-0.220215 1.03662,-0.220215 0.97217,0 1.48242,0.58545 0.51026,0.585449 0.51026,1.686523 z"
       style="font-style:normal;font-variant:normal;font-weight:normal;font-stretch:normal;font-size:11px;line-height:normal;font-family:sans-serif;text-anchor:middle"
       id="path45" />
    <path
       d="m 137.12842,49.946289 q -0.28467,0.0752 -0.62305,0.123535 -0.33301,0.04834 -0.59619,0.04834 -0.91846,0 -1.39648,-0.494141 -0.47803,-0.49414 -0.47803,-1.584472 v -3.19043 h -0.68213 v -0.848633 h 0.68213 v -1.724121 h 1.00976 v 1.724121 h 2.08399 v 0.848633 h -2.08399 v 2.733887 q 0,0.472656 0.0215,0.741211 0.0215,0.263183 0.15039,0.49414 0.11816,0.214844 0.32226,0.316895 0.20948,0.09668 0.63379,0.09668 0.24707,0 0.51563,-0.06983 0.26855,-0.0752 0.38672,-0.123535 h 0.0537 z"
       style="font-style:normal;font-variant:normal;font-weight:normal;font-stretch:normal;font-size:11px;line-height:normal;font-family:sans-serif;text-anchor:middle"
       id="path47" />
    <path
       d="m 149.05762,46.009277 q 0,1.090332 -0.47803,1.976563 -0.47266,0.88623 -1.26221,1.375 -0.54785,0.338379 -1.22461,0.488769 Q 145.42139,50 144.32031,50 h -2.01953 v -7.997559 h 1.99805 q 1.1709,0 1.8584,0.171875 0.69287,0.166504 1.17089,0.461914 0.81641,0.510254 1.27295,1.358887 0.45655,0.848633 0.45655,2.01416 z m -1.11182,-0.01611 q 0,-0.939941 -0.32764,-1.584473 -0.32763,-0.644531 -0.97754,-1.015136 -0.47265,-0.268555 -1.00439,-0.370606 -0.53174,-0.107422 -1.27295,-0.107422 h -0.99902 v 6.171387 h 0.99902 q 0.76807,0 1.3374,-0.112793 0.57471,-0.112793 1.05274,-0.418945 0.59619,-0.381348 0.8916,-1.004395 0.30078,-0.623047 0.30078,-1.557617 z"
       style="font-style:normal;font-variant:normal;font-weight:normal;font-stretch:normal;font-size:11px;line-height:normal;font-family:sans-serif;text-anchor:middle"
       id="path49" />
    <path
       d="m 151.7915,42.996094 h -1.13867 V 41.94873 h 1.13867 z M 151.72705,50 h -1.00976 v -5.999512 h 1.00976 z"
       style="font-style:normal;font-variant:normal;font-weight:normal;font-stretch:normal;font-size:11px;line-height:normal;font-family:sans-serif;text-anchor:middle"
       id="path51" />
    <path
       d="m 158.02197,48.270508 q 0,0.821777 -0.68213,1.348144 -0.67675,0.526368 -1.85302,0.526368 -0.66602,0 -1.22461,-0.155762 -0.55323,-0.161133 -0.9292,-0.349121 v -1.133301 h 0.0537 q 0.47803,0.359863 1.06348,0.574707 0.58544,0.209473 1.12255,0.209473 0.66602,0 1.042,-0.214844 0.37597,-0.214844 0.37597,-0.676758 0,-0.354492 -0.2041,-0.537109 -0.2041,-0.182618 -0.78418,-0.311524 -0.21484,-0.04834 -0.56396,-0.112793 -0.34375,-0.06445 -0.62842,-0.139648 -0.78955,-0.209473 -1.12256,-0.612305 -0.32764,-0.408203 -0.32764,-0.999023 0,-0.370606 0.15039,-0.698242 0.15577,-0.327637 0.46729,-0.58545 0.30078,-0.252441 0.76269,-0.397461 0.46729,-0.15039 1.042,-0.15039 0.53711,0 1.08496,0.134277 0.55322,0.128906 0.91845,0.316895 v 1.079589 h -0.0537 q -0.38672,-0.284668 -0.93994,-0.478027 -0.55322,-0.19873 -1.08496,-0.19873 -0.55322,0 -0.93457,0.214843 -0.38135,0.209473 -0.38135,0.628418 0,0.370606 0.23096,0.558594 0.22559,0.187988 0.73047,0.306152 0.2793,0.06445 0.62305,0.128907 0.34912,0.06445 0.58007,0.118164 0.70362,0.161133 1.08496,0.553222 0.38135,0.397461 0.38135,1.052735 z"
       style="font-style:normal;font-variant:normal;font-weight:normal;font-stretch:normal;font-size:11px;line-height:normal;font-family:sans-serif;text-anchor:middle"
       id="path53" />
    <path
       d="m 163.90869,49.624023 q -0.50488,0.2417 -0.96142,0.375977 -0.45118,0.134277 -0.96143,0.134277 -0.6499,0 -1.19238,-0.187988 -0.54248,-0.193359 -0.9292,-0.580078 -0.39209,-0.386719 -0.60694,-0.977539 -0.21484,-0.59082 -0.21484,-1.380371 0,-1.47168 0.80566,-2.309571 0.81104,-0.83789 2.1377,-0.83789 0.51562,0 1.00977,0.145019 0.49951,0.14502 0.91308,0.354493 v 1.122558 h -0.0537 q -0.46191,-0.359863 -0.95605,-0.553223 -0.48877,-0.193359 -0.95606,-0.193359 -0.85937,0 -1.35889,0.580078 -0.49414,0.574707 -0.49414,1.691895 0,1.084961 0.4834,1.67041 0.48877,0.580078 1.36963,0.580078 0.30615,0 0.62305,-0.08057 0.31689,-0.08057 0.56933,-0.209473 0.22022,-0.112793 0.41358,-0.236328 0.19336,-0.128906 0.30615,-0.220215 h 0.0537 z"
       style="font-style:normal;font-variant:normal;font-weight:normal;font-stretch:normal;font-size:11px;line-height:normal;font-family:sans-serif;text-anchor:middle"
       id="path55" />
    <path
       d="m 170.32178,47.00293 q 0,1.466308 -0.75196,2.314941 -0.75195,0.848633 -2.01416,0.848633 -1.27295,0 -2.0249,-0.848633 -0.74658,-0.848633 -0.74658,-2.314941 0,-1.466309 0.74658,-2.314942 0.75195,-0.854004 2.0249,-0.854004 1.26221,0 2.01416,0.854004 0.75196,0.848633 0.75196,2.314942 z m -1.04199,0 q 0,-1.165528 -0.45655,-1.729493 -0.45654,-0.569335 -1.26758,-0.569335 -0.82177,0 -1.27832,0.569335 -0.45117,0.563965 -0.45117,1.729493 0,1.127929 0.45654,1.713379 0.45655,0.580078 1.27295,0.580078 0.80567,0 1.26221,-0.574707 0.46192,-0.580078 0.46192,-1.71875 z"
       style="font-style:normal;font-variant:normal;font-weight:normal;font-stretch:normal;font-size:11px;line-height:normal;font-family:sans-serif;text-anchor:middle"
       id="path57" />
    <path
       d="M 177.07861,44.000488 174.65088,50 h -1.01514 l -2.41162,-5.999512 h 1.0957 l 1.8584,4.774903 1.84229,-4.774903 z"
       style="font-style:normal;font-variant:normal;font-weight:normal;font-stretch:normal;font-size:11px;line-height:normal;font-family:sans-serif;text-anchor:middle"
       id="path59" />
    <path
       d="m 183.42187,47.10498 h -4.42041 q 0,0.553223 0.16651,0.966797 0.1665,0.408203 0.45654,0.671387 0.2793,0.257813 0.66065,0.386719 0.38671,0.128906 0.84863,0.128906 0.6123,0 1.22998,-0.241699 0.62305,-0.24707 0.88623,-0.483399 h 0.0537 v 1.101075 q -0.51025,0.214843 -1.04199,0.359863 -0.53174,0.145019 -1.11719,0.145019 -1.49316,0 -2.33105,-0.805664 -0.83789,-0.811035 -0.83789,-2.298828 0,-1.471679 0.80029,-2.336426 0.80566,-0.864746 2.11621,-0.864746 1.21387,0 1.86914,0.708985 0.66064,0.708984 0.66064,2.01416 z m -0.98291,-0.773437 q -0.005,-0.794922 -0.40283,-1.229981 -0.39209,-0.435058 -1.19775,-0.435058 -0.81104,0 -1.29443,0.478027 -0.47803,0.478028 -0.54249,1.187012 z"
       style="font-style:normal;font-variant:normal;font-weight:normal;font-stretch:normal;font-size:11px;line-height:normal;font-family:sans-serif;text-anchor:middle"
       id="path61" />
    <path
       d="m 188.69629,45.101562 h -0.0537 q -0.22559,-0.05371 -0.44043,-0.0752 -0.20947,-0.02685 -0.49951,-0.02685 -0.46729,0 -0.90235,0.209472 -0.43506,0.204102 -0.83789,0.531739 V 50 h -1.00976 v -5.999512 h 1.00976 v 0.886231 q 0.60156,-0.483399 1.05811,-0.682129 0.46191,-0.204102 0.93994,-0.204102 0.26318,0 0.38135,0.01611 0.11816,0.01074 0.35449,0.04834 z"
       style="font-style:normal;font-variant:normal;font-weight:normal;font-stretch:normal;font-size:11px;line-height:normal;font-family:sans-serif;text-anchor:middle"
       id="path63" />
    <path
       d="m 194.84619,44.000488 -3.50195,8.212403 h -1.07959 l 1.11719,-2.50293 -2.39014,-5.709473 h 1.0957 l 1.84229,4.447266 1.8584,-4.447266 z"
       style="font-style:normal;font-variant:normal;font-weight:normal;font-stretch:normal;font-size:11px;line-height:normal;font-family:sans-serif;text-anchor:middle"
       id="path65" />
  </g>
</svg>
