<?xml version="1.0" encoding="UTF-8" standalone="no"?>
<svg
   role="img"
   viewBox="-4.53 -4.53 248.82 41.82"
   version="1.1"
   id="svg19"
   xmlns:xlink="http://www.w3.org/1999/xlink"
   xmlns="http://www.w3.org/2000/svg"
   xmlns:svg="http://www.w3.org/2000/svg">
  <defs
     id="defs23" />
  <title
     id="title2">Broadcom Corporation logo</title>
  <path
     d="M237.32 9.09c-1.06 0-1.93-.86-1.93-1.92s.87-1.93 1.93-1.93 1.93.87 1.93 1.93-.87 1.92-1.93 1.92m0-4.32c-1.32 0-2.4 1.08-2.4 2.4 0 1.32 1.08 2.4 2.4 2.4 1.32 0 2.4-1.08 2.4-2.4 0-1.32-1.08-2.4-2.4-2.4"
     id="path4" />
  <path
     d="M237.48 7.07l-.51.01-.01-.62h.51c.19-.01.34.11.34.3.01.19-.14.31-.33.31m.83-.32c-.01-.42-.3-.72-.77-.72l-1.07.02.03 2.26h.49l-.01-.81h.35l.46.8.55-.01-.52-.86c.24-.06.49-.28.49-.68M51.8341 23.1805h-5.999V9.3465h5.835c1.574 0 2.557 1.016 2.557 2.393 0 1.377-.983 2.36-2.557 2.36H45v4h6.8341c1.836 0 2.819 1.18 2.819 2.556 0 1.574-1.049 2.525-2.819 2.525m3.376-7.245c2.066-.426 3.771-2.262 3.771-5.015 0-2.918-2.131-5.573-6.295-5.573h-11.506v21.865h11.867c4.163 0 6.359-2.623 6.359-5.901 0-2.754-1.868-5.015-4.196-5.376m17.8225-.5902H68v4.098h3.5576l4.294 7.769h5.343l-4.917-8.327c2.361-.557 4.786-2.622 4.786-6.49m0 0c0-4.065-2.786-7.048-7.343-7.048h-10.228v21.865h4.655V9.4453h4.885c1.869 0 3.278 1.114 3.278 2.95s-1.409 2.95-3.278 2.95m43.4206 4.0652l3.409-9.408 3.41 9.408zm.492-14.063l-8.458 21.865h5.31l1.377-3.704h9.376l1.344 3.704h5.311l-8.425-21.865zm26.9039 17.7671h-3.967v-13.67h3.967c4.491 0 6.851 2.983 6.851 6.852 0 3.704-2.524 6.818-6.851 6.818m0-17.767h-8.622v21.865h8.622c6.851 0 11.604-4.327 11.604-10.916s-4.753-10.949-11.604-10.949m82.1269-.0045l-5.734 9.27-5.734-9.27h-5.146v21.869h4.656v-14.293l5.012 7.622c.574.871 1.851.871 2.424 0l5.013-7.622v14.293h4.656V5.3431z"
     id="path6" />
  <path
     id="a"
     d="M95.8253 23.3441c-3.871 0-7.008-3.138-7.008-7.008 0-3.871 3.137-7.009 7.008-7.009 3.87 0 7.008 3.138 7.008 7.009 0 3.87-3.138 7.008-7.008 7.008m0-18.536c-6.367 0-11.528 5.161-11.528 11.528 0 6.366 5.161 11.527 11.528 11.527 6.366 0 11.528-5.161 11.528-11.527 0-6.367-5.162-11.528-11.528-11.528" />
  <path
     d="M176.4035 19.7269c-1.195 2.156-3.492 3.617-6.132 3.617-3.87 0-7.008-3.138-7.008-7.008 0-3.871 3.138-7.008 7.008-7.008 2.618 0 4.897 1.438 6.1 3.565l3.27-3.269c-2.092-2.915-5.508-4.816-9.37-4.816-6.367 0-11.527 5.161-11.527 11.528 0 6.366 5.16 11.528 11.527 11.528 3.883 0 7.316-1.922 9.404-4.865z"
     id="path9" />
  <use
     transform="translate(98.718)"
     xlink:href="#a"
     id="use11" />
  <ellipse
     cx="16.52"
     cy="16.497"
     fill="#cc092f"
     rx="16.236"
     ry="16.235"
     id="ellipse13" />
  <path
     fill="#fff"
     d="M30.8253 20.8832c-1.857-.74-3.557-.492-5.261.541 0 0-.621.379-.807.496-.794.498-1.543.97-2.263.97-.687 0-1.363-.184-1.649-1.513-.446-2.073-1.534-7.167-2.009-9.69-.279-1.483-.432-2.282-.591-2.825-.28-.954-.792-1.473-1.519-1.556 0 0-.114-.016-.207-.016-.092 0-.218.018-.218.018-.72.086-1.229.605-1.507 1.554-.159.543-.312 1.342-.591 2.825-.475 2.523-1.563 7.617-2.009 9.69-.286 1.329-.962 1.513-1.649 1.513-.72 0-1.469-.472-2.263-.97-.186-.117-.808-.496-.808-.496-1.703-1.033-3.404-1.281-5.26-.541-.401.16-.79596.33918-1.17196.52018.257.806.57693 1.59925.94993 2.34425.411-.202.84203-.40243 1.28203-.53243.634-.187 1.284-.197 1.914.014.612.205 1.157.568 1.7.909 1.023.643 2.182 1.372 3.657 1.372 2.186 0 3.72-1.305 4.21-3.581.38-1.764 1.222-5.702 1.763-8.418 0 0 1.386 6.654 1.765 8.418.49 2.276 2.025 3.581 4.211 3.581 1.475 0 2.634-.729 3.657-1.372.543-.341 1.088-.704 1.7-.909.629-.211 1.28-.201 1.914-.014.44.13.87039.33065 1.28139.53265.374-.745.69309-1.53862.95009-2.34462-.376-.181-.77048-.36003-1.17148-.52003"
     id="path15" />
  <g
     aria-label="CA Database Management Solutions for Db2 for z/OS"
     id="text17"
     style="font-size:11px;text-anchor:middle">
    <path
       d="m -16.379791,49.419922 q -0.29541,0.128906 -0.53711,0.241699 -0.236328,0.112793 -0.623047,0.236328 -0.327636,0.102051 -0.714355,0.171875 -0.381348,0.0752 -0.843262,0.0752 -0.870117,0 -1.584472,-0.2417 -0.708985,-0.24707 -1.235352,-0.768066 -0.515625,-0.510254 -0.805664,-1.294434 -0.290039,-0.78955 -0.290039,-1.831543 0,-0.988281 0.279297,-1.76709 0.279297,-0.778808 0.805664,-1.315917 0.510254,-0.520997 1.22998,-0.794922 0.725098,-0.273926 1.605957,-0.273926 0.644532,0 1.283692,0.155762 0.644531,0.155761 1.428711,0.547851 v 1.262207 h -0.08057 q -0.660644,-0.553222 -1.310547,-0.805664 -0.649902,-0.252441 -1.391113,-0.252441 -0.606933,0 -1.095703,0.19873 -0.483398,0.19336 -0.864746,0.606934 -0.370606,0.402832 -0.580078,1.020508 -0.204102,0.612304 -0.204102,1.417968 0,0.843262 0.225586,1.450196 0.230957,0.606933 0.590821,0.988281 0.375976,0.397461 0.875488,0.59082 0.504883,0.187988 1.063476,0.187988 0.768067,0 1.439453,-0.263183 0.671387,-0.263184 1.256836,-0.789551 h 0.0752 z"
       id="path25" />
    <path
       d="m -8.5702209,50 h -1.1333008 l -0.7841793,-2.229004 h -3.458985 L -14.730865,50 h -1.07959 l 2.911132,-7.997559 h 1.417969 z m -2.2451171,-3.14209 -1.401856,-3.926269 -1.407226,3.926269 z"
       id="path27" />
    <path
       d="m 3.2676697,46.009277 q 0,1.090332 -0.4780274,1.976563 -0.4726562,0.88623 -1.262207,1.375 Q 0.97958374,49.699219 0.30282593,49.849609 -0.36856079,50 -1.469635,50 h -2.0195313 v -7.997559 h 1.9980469 q 1.17089845,0 1.85839845,0.171875 0.69287105,0.166504 1.17089845,0.461914 0.8164062,0.510254 1.2729492,1.358887 0.456543,0.848633 0.456543,2.01416 z m -1.1118164,-0.01611 q 0,-0.939941 -0.3276367,-1.584473 Q 1.5005798,43.76416 0.85067749,43.393555 0.37802124,43.125 -0.15371704,43.022949 -0.68545532,42.915527 -1.4266663,42.915527 h -0.9990234 v 6.171387 h 0.9990234 q 0.76806645,0 1.33740238,-0.112793 Q 0.48544312,48.861328 0.96347046,48.555176 1.5596619,48.173828 1.855072,47.550781 2.1558533,46.927734 2.1558533,45.993164 Z"
       id="path29" />
    <path
       d="M 9.5679626,50 H 8.5635681 V 49.36084 Q 8.4292908,49.452148 8.1983337,49.618652 7.9727478,49.779785 7.7579041,49.876465 7.5054626,50 7.1778259,50.080566 q -0.3276367,0.08594 -0.7680664,0.08594 -0.8110351,0 -1.375,-0.537109 -0.5639648,-0.53711 -0.5639648,-1.369629 0,-0.682129 0.290039,-1.101075 0.2954102,-0.424316 0.8378907,-0.666015 0.5478515,-0.241699 1.3159179,-0.327637 0.7680664,-0.08594 1.6489258,-0.128906 v -0.155762 q 0,-0.34375 -0.1235351,-0.569336 Q 8.3218689,45.085449 8.096283,44.956543 7.8814392,44.833008 7.580658,44.790039 7.2798767,44.74707 6.95224,44.74707 q -0.3974609,0 -0.8862305,0.107422 Q 5.57724,44.956543 5.0562439,45.155273 H 5.002533 v -1.025878 q 0.2954101,-0.08057 0.8540039,-0.177247 0.5585937,-0.09668 1.1010742,-0.09668 0.633789,0 1.1010742,0.107422 0.4726563,0.10205 0.8164063,0.354492 0.3383789,0.24707 0.515625,0.63916 0.177246,0.39209 0.177246,0.972168 z M 8.5635681,48.522949 v -1.67041 q -0.461914,0.02686 -1.090332,0.08057 -0.6230469,0.05371 -0.9882813,0.155762 -0.4350586,0.123535 -0.7036132,0.386719 -0.2685547,0.257812 -0.2685547,0.714355 0,0.515625 0.3115234,0.778809 0.3115234,0.257812 0.9506836,0.257812 0.5317383,0 0.972168,-0.204101 0.4404297,-0.209473 0.8164062,-0.499512 z"
       id="path31" />
    <path
       d="m 14.627533,49.946289 q -0.284668,0.0752 -0.623047,0.123535 -0.333008,0.04834 -0.596191,0.04834 -0.918457,0 -1.396485,-0.494141 -0.478027,-0.49414 -0.478027,-1.584472 v -3.19043 h -0.682129 v -0.848633 h 0.682129 v -1.724121 h 1.009766 v 1.724121 h 2.083984 v 0.848633 h -2.083984 v 2.733887 q 0,0.472656 0.02148,0.741211 0.02148,0.263183 0.150391,0.49414 0.118164,0.214844 0.322265,0.316895 0.209473,0.09668 0.633789,0.09668 0.247071,0 0.515625,-0.06983 0.268555,-0.0752 0.386719,-0.123535 h 0.05371 z"
       id="path33" />
    <path
       d="m 20.508881,50 h -1.004395 v -0.63916 q -0.134277,0.09131 -0.365234,0.257812 -0.225586,0.161133 -0.44043,0.257813 Q 18.446381,50 18.118744,50.080566 q -0.327637,0.08594 -0.768067,0.08594 -0.811035,0 -1.375,-0.537109 -0.563964,-0.53711 -0.563964,-1.369629 0,-0.682129 0.290039,-1.101075 0.29541,-0.424316 0.83789,-0.666015 0.547852,-0.241699 1.315918,-0.327637 0.768067,-0.08594 1.648926,-0.128906 v -0.155762 q 0,-0.34375 -0.123535,-0.569336 -0.118164,-0.225586 -0.34375,-0.354492 -0.214844,-0.123535 -0.515625,-0.166504 -0.300781,-0.04297 -0.628418,-0.04297 -0.397461,0 -0.886231,0.107422 -0.488769,0.102051 -1.009765,0.300781 h -0.05371 v -1.025878 q 0.29541,-0.08057 0.854004,-0.177247 0.558594,-0.09668 1.101074,-0.09668 0.633789,0 1.101074,0.107422 0.472657,0.10205 0.816407,0.354492 0.338378,0.24707 0.515625,0.63916 0.177246,0.39209 0.177246,0.972168 z m -1.004395,-1.477051 v -1.67041 q -0.461914,0.02686 -1.090332,0.08057 -0.623047,0.05371 -0.988281,0.155762 -0.435059,0.123535 -0.703613,0.386719 -0.268555,0.257812 -0.268555,0.714355 0,0.515625 0.311523,0.778809 0.311524,0.257812 0.950684,0.257812 0.531738,0 0.972168,-0.204101 0.44043,-0.209473 0.816406,-0.499512 z"
       id="path35" />
    <path
       d="m 27.733002,46.95459 q 0,0.751953 -0.214844,1.353515 -0.209473,0.601563 -0.569336,1.009766 -0.381348,0.424316 -0.837891,0.63916 -0.456543,0.209473 -1.004394,0.209473 -0.510254,0 -0.891602,-0.123535 -0.381347,-0.118164 -0.751953,-0.322266 L 23.398529,50 h -0.945312 v -8.357422 h 1.009765 v 2.986328 q 0.424317,-0.349121 0.902344,-0.569336 0.478027,-0.225586 1.074219,-0.225586 1.063476,0 1.675781,0.816407 0.617676,0.816406 0.617676,2.304199 z m -1.041992,0.02685 q 0,-1.074218 -0.354493,-1.627441 -0.354492,-0.558594 -1.144043,-0.558594 -0.440429,0 -0.891601,0.19336 -0.451172,0.187988 -0.837891,0.488769 v 3.4375 q 0.429688,0.193359 0.73584,0.268555 0.311523,0.0752 0.703613,0.0752 0.837891,0 1.310547,-0.547852 0.478028,-0.553222 0.478028,-1.729492 z"
       id="path37" />
    <path
       d="m 33.968842,50 h -1.004395 v -0.63916 q -0.134277,0.09131 -0.365234,0.257812 -0.225586,0.161133 -0.44043,0.257813 Q 31.906342,50 31.578705,50.080566 q -0.327637,0.08594 -0.768067,0.08594 -0.811035,0 -1.375,-0.537109 -0.563964,-0.53711 -0.563964,-1.369629 0,-0.682129 0.290039,-1.101075 0.29541,-0.424316 0.83789,-0.666015 0.547852,-0.241699 1.315918,-0.327637 0.768067,-0.08594 1.648926,-0.128906 v -0.155762 q 0,-0.34375 -0.123535,-0.569336 -0.118164,-0.225586 -0.34375,-0.354492 -0.214844,-0.123535 -0.515625,-0.166504 -0.300781,-0.04297 -0.628418,-0.04297 -0.397461,0 -0.886231,0.107422 -0.488769,0.102051 -1.009765,0.300781 h -0.05371 v -1.025878 q 0.29541,-0.08057 0.854004,-0.177247 0.558594,-0.09668 1.101074,-0.09668 0.633789,0 1.101074,0.107422 0.472656,0.10205 0.816406,0.354492 0.338379,0.24707 0.515625,0.63916 0.177247,0.39209 0.177247,0.972168 z m -1.004395,-1.477051 v -1.67041 q -0.461914,0.02686 -1.090332,0.08057 -0.623047,0.05371 -0.988281,0.155762 -0.435059,0.123535 -0.703614,0.386719 -0.268554,0.257812 -0.268554,0.714355 0,0.515625 0.311523,0.778809 0.311524,0.257812 0.950684,0.257812 0.531738,0 0.972168,-0.204101 0.440429,-0.209473 0.816406,-0.499512 z"
       id="path39" />
    <path
       d="m 40.19931,48.270508 q 0,0.821777 -0.682129,1.348144 -0.676757,0.526368 -1.853027,0.526368 -0.666016,0 -1.224609,-0.155762 -0.553223,-0.161133 -0.9292,-0.349121 v -1.133301 h 0.05371 q 0.478028,0.359863 1.063477,0.574707 0.585449,0.209473 1.122559,0.209473 0.666015,0 1.041992,-0.214844 0.375976,-0.214844 0.375976,-0.676758 0,-0.354492 -0.204101,-0.537109 -0.204102,-0.182618 -0.78418,-0.311524 -0.214844,-0.04834 -0.563965,-0.112793 -0.34375,-0.06445 -0.628418,-0.139648 -0.789551,-0.209473 -1.122558,-0.612305 -0.327637,-0.408203 -0.327637,-0.999023 0,-0.370606 0.150391,-0.698242 0.155761,-0.327637 0.467285,-0.58545 0.300781,-0.252441 0.762695,-0.397461 0.467285,-0.15039 1.041992,-0.15039 0.53711,0 1.084961,0.134277 0.553223,0.128906 0.918457,0.316895 v 1.079589 h -0.05371 q -0.386719,-0.284668 -0.939941,-0.478027 -0.553223,-0.19873 -1.084961,-0.19873 -0.553223,0 -0.93457,0.214843 -0.381348,0.209473 -0.381348,0.628418 0,0.370606 0.230957,0.558594 0.225586,0.187988 0.730469,0.306152 0.279297,0.06445 0.623047,0.128907 0.349121,0.06445 0.580078,0.118164 0.703613,0.161133 1.084961,0.553222 0.381347,0.397461 0.381347,1.052735 z"
       id="path41" />
    <path
       d="m 46.666107,47.10498 h -4.42041 q 0,0.553223 0.166504,0.966797 0.166504,0.408203 0.456543,0.671387 0.279297,0.257813 0.660644,0.386719 0.386719,0.128906 0.848633,0.128906 0.612305,0 1.229981,-0.241699 0.623047,-0.24707 0.88623,-0.483399 h 0.05371 v 1.101075 q -0.510254,0.214843 -1.041992,0.359863 -0.531738,0.145019 -1.117188,0.145019 -1.493164,0 -2.331054,-0.805664 -0.837891,-0.811035 -0.837891,-2.298828 0,-1.471679 0.800293,-2.336426 0.805664,-0.864746 2.116211,-0.864746 1.213867,0 1.869141,0.708985 0.660644,0.708984 0.660644,2.01416 z m -0.98291,-0.773437 q -0.0054,-0.794922 -0.402832,-1.229981 -0.39209,-0.435058 -1.197754,-0.435058 -0.811035,0 -1.294434,0.478027 -0.478027,0.478028 -0.54248,1.187012 z"
       id="path43" />
    <path
       d="m 59.266693,50 h -1.063476 v -6.891113 l -2.223633,4.688965 h -0.633789 l -2.20752,-4.688965 V 50 h -0.993652 v -7.997559 h 1.450195 l 2.132324,4.452637 2.0625,-4.452637 h 1.477051 z"
       id="path45" />
    <path
       d="m 65.996674,50 h -1.004395 v -0.63916 q -0.134277,0.09131 -0.365234,0.257812 -0.225586,0.161133 -0.44043,0.257813 Q 63.934174,50 63.606537,50.080566 q -0.327637,0.08594 -0.768067,0.08594 -0.811035,0 -1.375,-0.537109 -0.563964,-0.53711 -0.563964,-1.369629 0,-0.682129 0.290039,-1.101075 0.29541,-0.424316 0.83789,-0.666015 0.547852,-0.241699 1.315918,-0.327637 0.768067,-0.08594 1.648926,-0.128906 v -0.155762 q 0,-0.34375 -0.123535,-0.569336 -0.118164,-0.225586 -0.34375,-0.354492 -0.214844,-0.123535 -0.515625,-0.166504 -0.300781,-0.04297 -0.628418,-0.04297 -0.397461,0 -0.886231,0.107422 -0.488769,0.102051 -1.009765,0.300781 h -0.05371 v -1.025878 q 0.29541,-0.08057 0.854004,-0.177247 0.558594,-0.09668 1.101074,-0.09668 0.633789,0 1.101074,0.107422 0.472656,0.10205 0.816406,0.354492 0.338379,0.24707 0.515625,0.63916 0.177247,0.39209 0.177247,0.972168 z m -1.004395,-1.477051 v -1.67041 q -0.461914,0.02686 -1.090332,0.08057 -0.623047,0.05371 -0.988281,0.155762 -0.435059,0.123535 -0.703614,0.386719 -0.268554,0.257812 -0.268554,0.714355 0,0.515625 0.311523,0.778809 0.311524,0.257812 0.950684,0.257812 0.531738,0 0.972168,-0.204101 0.440429,-0.209473 0.816406,-0.499512 z"
       id="path47" />
    <path
       d="m 72.957611,50 h -1.009766 v -3.416016 q 0,-0.413574 -0.04834,-0.773437 -0.04834,-0.365235 -0.177246,-0.569336 -0.134278,-0.225586 -0.386719,-0.333008 -0.252442,-0.112793 -0.655274,-0.112793 -0.413574,0 -0.864746,0.204102 -0.451172,0.204101 -0.864746,0.520996 V 50 H 67.94101 v -5.999512 h 1.009765 v 0.666016 q 0.472656,-0.39209 0.977539,-0.612305 0.504883,-0.220215 1.036621,-0.220215 0.972168,0 1.482422,0.58545 0.510254,0.585449 0.510254,1.686523 z"
       id="path49" />
    <path
       d="m 79.564056,50 h -1.004394 v -0.63916 q -0.134277,0.09131 -0.365235,0.257812 -0.225585,0.161133 -0.440429,0.257813 Q 77.501556,50 77.17392,50.080566 q -0.327637,0.08594 -0.768067,0.08594 -0.811035,0 -1.375,-0.537109 -0.563965,-0.53711 -0.563965,-1.369629 0,-0.682129 0.290039,-1.101075 0.295411,-0.424316 0.837891,-0.666015 0.547852,-0.241699 1.315918,-0.327637 0.768066,-0.08594 1.648926,-0.128906 v -0.155762 q 0,-0.34375 -0.123535,-0.569336 -0.118164,-0.225586 -0.34375,-0.354492 -0.214844,-0.123535 -0.515625,-0.166504 -0.300782,-0.04297 -0.628418,-0.04297 -0.397461,0 -0.886231,0.107422 -0.488769,0.102051 -1.009765,0.300781 h -0.05371 v -1.025878 q 0.29541,-0.08057 0.854004,-0.177247 0.558593,-0.09668 1.101074,-0.09668 0.633789,0 1.101074,0.107422 0.472656,0.10205 0.816406,0.354492 0.338379,0.24707 0.515625,0.63916 0.177246,0.39209 0.177246,0.972168 z m -1.004394,-1.477051 v -1.67041 q -0.461914,0.02686 -1.090332,0.08057 -0.623047,0.05371 -0.988281,0.155762 -0.435059,0.123535 -0.703614,0.386719 -0.268554,0.257812 -0.268554,0.714355 0,0.515625 0.311523,0.778809 0.311523,0.257812 0.950684,0.257812 0.531738,0 0.972168,-0.204101 0.440429,-0.209473 0.816406,-0.499512 z"
       id="path51" />
    <path
       d="m 86.374603,49.317871 q 0,1.525391 -0.692871,2.239746 -0.692871,0.714356 -2.132324,0.714356 -0.478027,0 -0.93457,-0.06983 -0.451172,-0.06445 -0.891602,-0.187988 v -1.03125 h 0.05371 q 0.24707,0.09668 0.78418,0.236328 0.537109,0.14502 1.074218,0.14502 0.515625,0 0.854004,-0.123535 0.338379,-0.123536 0.526368,-0.34375 0.187988,-0.209473 0.268554,-0.504883 0.08057,-0.29541 0.08057,-0.660645 v -0.547851 q -0.456543,0.365234 -0.875489,0.547851 -0.413574,0.177246 -1.058105,0.177246 -1.074219,0 -1.708008,-0.773437 -0.628418,-0.778809 -0.628418,-2.191406 0,-0.773438 0.214844,-1.332032 0.220215,-0.563964 0.596191,-0.972168 0.349121,-0.381347 0.848633,-0.59082 0.499512,-0.214844 0.993652,-0.214844 0.520997,0 0.870118,0.107422 0.354492,0.102051 0.746582,0.316895 l 0.06445,-0.257813 h 0.945312 z m -1.009765,-0.966797 v -3.270996 q -0.402832,-0.182617 -0.751953,-0.257812 -0.34375,-0.08057 -0.6875,-0.08057 -0.83252,0 -1.310547,0.558594 -0.478028,0.558594 -0.478028,1.62207 0,1.009766 0.354492,1.530762 0.354493,0.520996 1.17627,0.520996 0.44043,0 0.880859,-0.166504 0.445801,-0.171875 0.816407,-0.456543 z"
       id="path53" />
    <path
       d="M 93.383881,47.10498 H 88.96347 q 0,0.553223 0.166504,0.966797 0.166504,0.408203 0.456543,0.671387 0.279297,0.257813 0.660645,0.386719 0.386719,0.128906 0.848633,0.128906 0.612304,0 1.22998,-0.241699 0.623047,-0.24707 0.886231,-0.483399 h 0.05371 v 1.101075 q -0.510254,0.214843 -1.041993,0.359863 -0.531738,0.145019 -1.117187,0.145019 -1.493164,0 -2.331055,-0.805664 -0.83789,-0.811035 -0.83789,-2.298828 0,-1.471679 0.800293,-2.336426 0.805664,-0.864746 2.11621,-0.864746 1.213868,0 1.869141,0.708985 0.660645,0.708984 0.660645,2.01416 z M 92.40097,46.331543 q -0.0054,-0.794922 -0.402832,-1.229981 -0.392089,-0.435058 -1.197753,-0.435058 -0.811036,0 -1.294434,0.478027 -0.478027,0.478028 -0.542481,1.187012 z"
       id="path55" />
    <path
       d="m 103.66953,50 h -1.00977 v -3.416016 q 0,-0.386718 -0.0376,-0.746582 -0.0322,-0.359863 -0.14502,-0.574707 -0.12353,-0.230957 -0.35449,-0.349121 -0.23096,-0.118164 -0.66602,-0.118164 -0.42431,0 -0.84863,0.214844 -0.42431,0.209473 -0.848631,0.537109 0.01611,0.123535 0.02685,0.290039 0.01074,0.161133 0.01074,0.322266 V 50 h -1.009766 v -3.416016 q 0,-0.397461 -0.0376,-0.751953 -0.03223,-0.359863 -0.145019,-0.574707 -0.123535,-0.230957 -0.354492,-0.34375 -0.230957,-0.118164 -0.666016,-0.118164 -0.413574,0 -0.83252,0.204102 -0.413574,0.204101 -0.827148,0.520996 V 50 h -1.009766 v -5.999512 h 1.009766 v 0.666016 q 0.472656,-0.39209 0.939941,-0.612305 0.472657,-0.220215 1.004395,-0.220215 0.612305,0 1.036621,0.257813 0.429687,0.257812 0.63916,0.714355 0.612305,-0.515625 1.117185,-0.741211 0.50489,-0.230957 1.07959,-0.230957 0.98828,0 1.45557,0.601563 0.47266,0.596191 0.47266,1.67041 z"
       id="path57" />
    <path
       d="m 110.63583,47.10498 h -4.42041 q 0,0.553223 0.16651,0.966797 0.1665,0.408203 0.45654,0.671387 0.2793,0.257813 0.66064,0.386719 0.38672,0.128906 0.84864,0.128906 0.6123,0 1.22998,-0.241699 0.62305,-0.24707 0.88623,-0.483399 h 0.0537 v 1.101075 q -0.51025,0.214843 -1.04199,0.359863 -0.53174,0.145019 -1.11719,0.145019 -1.49316,0 -2.33105,-0.805664 -0.8379,-0.811035 -0.8379,-2.298828 0,-1.471679 0.8003,-2.336426 0.80566,-0.864746 2.11621,-0.864746 1.21387,0 1.86914,0.708985 0.66064,0.708984 0.66064,2.01416 z m -0.98291,-0.773437 q -0.005,-0.794922 -0.40283,-1.229981 -0.39209,-0.435058 -1.19775,-0.435058 -0.81104,0 -1.29444,0.478027 -0.47802,0.478028 -0.54248,1.187012 z"
       id="path59" />
    <path
       d="m 117.1832,50 h -1.00977 v -3.416016 q 0,-0.413574 -0.0483,-0.773437 -0.0483,-0.365235 -0.17724,-0.569336 -0.13428,-0.225586 -0.38672,-0.333008 -0.25244,-0.112793 -0.65528,-0.112793 -0.41357,0 -0.86474,0.204102 -0.45117,0.204101 -0.86475,0.520996 V 50 h -1.00976 v -5.999512 h 1.00976 v 0.666016 q 0.47266,-0.39209 0.97754,-0.612305 0.50488,-0.220215 1.03662,-0.220215 0.97217,0 1.48242,0.58545 0.51026,0.585449 0.51026,1.686523 z"
       id="path61" />
    <path
       d="m 122.24277,49.946289 q -0.28467,0.0752 -0.62305,0.123535 -0.33301,0.04834 -0.59619,0.04834 -0.91846,0 -1.39649,-0.494141 -0.47802,-0.49414 -0.47802,-1.584472 v -3.19043 h -0.68213 v -0.848633 h 0.68213 v -1.724121 h 1.00976 v 1.724121 h 2.08399 v 0.848633 h -2.08399 v 2.733887 q 0,0.472656 0.0215,0.741211 0.0215,0.263183 0.15039,0.49414 0.11816,0.214844 0.32226,0.316895 0.20948,0.09668 0.63379,0.09668 0.24707,0 0.51563,-0.06983 0.26855,-0.0752 0.38672,-0.123535 h 0.0537 z"
       id="path63" />
    <path
       d="m 133.22128,47.717285 q 0,0.467285 -0.22021,0.923828 -0.21485,0.456543 -0.60694,0.773438 -0.42968,0.34375 -1.00439,0.537109 -0.56934,0.19336 -1.375,0.19336 -0.86475,0 -1.55762,-0.161133 -0.6875,-0.161133 -1.40185,-0.478028 v -1.332031 h 0.0752 q 0.60694,0.504883 1.40186,0.778809 0.79492,0.273925 1.49316,0.273925 0.98828,0 1.53613,-0.370605 0.55323,-0.370605 0.55323,-0.988281 0,-0.531739 -0.26319,-0.78418 -0.25781,-0.252441 -0.78955,-0.39209 -0.40283,-0.107422 -0.87549,-0.177246 -0.46728,-0.06982 -0.99365,-0.177246 -1.06347,-0.225586 -1.5791,-0.768066 -0.51025,-0.547852 -0.51025,-1.42334 0,-1.004395 0.84863,-1.643555 0.84863,-0.644531 2.15381,-0.644531 0.84326,0 1.54687,0.161133 0.70362,0.161132 1.2461,0.397461 v 1.256836 h -0.0752 q -0.45654,-0.386719 -1.20312,-0.639161 -0.74121,-0.257812 -1.52002,-0.257812 -0.85401,0 -1.375,0.354492 -0.51563,0.354492 -0.51563,0.913086 0,0.499512 0.25781,0.78418 0.25782,0.284668 0.90772,0.435058 0.34375,0.0752 0.97754,0.182617 0.63379,0.107422 1.07422,0.220215 0.8916,0.236328 1.34277,0.714356 0.45117,0.478027 0.45117,1.337402 z"
       id="path65" />
    <path
       d="m 139.96201,47.00293 q 0,1.466308 -0.75196,2.314941 -0.75195,0.848633 -2.01416,0.848633 -1.27295,0 -2.0249,-0.848633 -0.74658,-0.848633 -0.74658,-2.314941 0,-1.466309 0.74658,-2.314942 0.75195,-0.854004 2.0249,-0.854004 1.26221,0 2.01416,0.854004 0.75196,0.848633 0.75196,2.314942 z m -1.042,0 q 0,-1.165528 -0.45654,-1.729493 -0.45654,-0.569335 -1.26758,-0.569335 -0.82178,0 -1.27832,0.569335 -0.45117,0.563965 -0.45117,1.729493 0,1.127929 0.45654,1.713379 0.45655,0.580078 1.27295,0.580078 0.80567,0 1.26221,-0.574707 0.46191,-0.580078 0.46191,-1.71875 z"
       id="path67" />
    <path
       d="m 142.5455,50 h -1.00976 v -8.357422 h 1.00976 z"
       id="path69" />
    <path
       d="m 149.51718,50 h -1.00976 v -0.666016 q -0.51026,0.402832 -0.97754,0.617676 -0.46729,0.214844 -1.03125,0.214844 -0.94532,0 -1.47168,-0.574707 -0.52637,-0.580078 -0.52637,-1.697266 v -3.894043 h 1.00977 v 3.416016 q 0,0.456543 0.043,0.78418 0.043,0.322265 0.18262,0.553222 0.14502,0.236328 0.37598,0.34375 0.23095,0.107422 0.67138,0.107422 0.39209,0 0.85401,-0.204101 0.46728,-0.204102 0.87012,-0.520997 v -4.479492 h 1.00976 z"
       id="path71" />
    <path
       d="m 154.61972,49.946289 q -0.28467,0.0752 -0.62305,0.123535 -0.333,0.04834 -0.59619,0.04834 -0.91845,0 -1.39648,-0.494141 -0.47803,-0.49414 -0.47803,-1.584472 v -3.19043 h -0.68213 v -0.848633 h 0.68213 v -1.724121 h 1.00977 v 1.724121 h 2.08398 v 0.848633 h -2.08398 v 2.733887 q 0,0.472656 0.0215,0.741211 0.0215,0.263183 0.15039,0.49414 0.11817,0.214844 0.32227,0.316895 0.20947,0.09668 0.63379,0.09668 0.24707,0 0.51562,-0.06983 0.26856,-0.0752 0.38672,-0.123535 h 0.0537 z"
       id="path73" />
    <path
       d="m 156.92392,42.996094 h -1.13867 V 41.94873 h 1.13867 z M 156.85947,50 h -1.00977 v -5.999512 h 1.00977 z"
       id="path75" />
    <path
       d="m 163.97079,47.00293 q 0,1.466308 -0.75195,2.314941 -0.75195,0.848633 -2.01416,0.848633 -1.27295,0 -2.0249,-0.848633 -0.74658,-0.848633 -0.74658,-2.314941 0,-1.466309 0.74658,-2.314942 0.75195,-0.854004 2.0249,-0.854004 1.26221,0 2.01416,0.854004 0.75195,0.848633 0.75195,2.314942 z m -1.04199,0 q 0,-1.165528 -0.45654,-1.729493 -0.45654,-0.569335 -1.26758,-0.569335 -0.82178,0 -1.27832,0.569335 -0.45117,0.563965 -0.45117,1.729493 0,1.127929 0.45654,1.713379 0.45655,0.580078 1.27295,0.580078 0.80567,0 1.26221,-0.574707 0.46191,-0.580078 0.46191,-1.71875 z"
       id="path77" />
    <path
       d="m 170.55038,50 h -1.00976 v -3.416016 q 0,-0.413574 -0.0483,-0.773437 -0.0483,-0.365235 -0.17725,-0.569336 -0.13427,-0.225586 -0.38672,-0.333008 -0.25244,-0.112793 -0.65527,-0.112793 -0.41357,0 -0.86475,0.204102 -0.45117,0.204101 -0.86474,0.520996 V 50 h -1.00977 v -5.999512 h 1.00977 v 0.666016 q 0.47265,-0.39209 0.97754,-0.612305 0.50488,-0.220215 1.03662,-0.220215 0.97217,0 1.48242,0.58545 0.51025,0.585449 0.51025,1.686523 z"
       id="path79" />
    <path
       d="m 176.78085,48.270508 q 0,0.821777 -0.68213,1.348144 -0.67675,0.526368 -1.85302,0.526368 -0.66602,0 -1.22461,-0.155762 -0.55323,-0.161133 -0.9292,-0.349121 v -1.133301 h 0.0537 q 0.47803,0.359863 1.06348,0.574707 0.58545,0.209473 1.12255,0.209473 0.66602,0 1.042,-0.214844 0.37597,-0.214844 0.37597,-0.676758 0,-0.354492 -0.2041,-0.537109 -0.2041,-0.182618 -0.78418,-0.311524 -0.21484,-0.04834 -0.56396,-0.112793 -0.34375,-0.06445 -0.62842,-0.139648 -0.78955,-0.209473 -1.12256,-0.612305 -0.32764,-0.408203 -0.32764,-0.999023 0,-0.370606 0.15039,-0.698242 0.15577,-0.327637 0.46729,-0.58545 0.30078,-0.252441 0.76269,-0.397461 0.46729,-0.15039 1.042,-0.15039 0.53711,0 1.08496,0.134277 0.55322,0.128906 0.91846,0.316895 v 1.079589 h -0.0537 q -0.38671,-0.284668 -0.93994,-0.478027 -0.55322,-0.19873 -1.08496,-0.19873 -0.55322,0 -0.93457,0.214843 -0.38135,0.209473 -0.38135,0.628418 0,0.370606 0.23096,0.558594 0.22559,0.187988 0.73047,0.306152 0.2793,0.06445 0.62305,0.128907 0.34912,0.06445 0.58007,0.118164 0.70362,0.161133 1.08497,0.553222 0.38134,0.397461 0.38134,1.052735 z"
       id="path81" />
    <path
       d="m 185.32089,42.620117 h -0.0537 q -0.1665,-0.04834 -0.43506,-0.09668 -0.26855,-0.05371 -0.47265,-0.05371 -0.64991,0 -0.94532,0.290039 -0.29004,0.284668 -0.29004,1.036621 v 0.204101 h 1.82081 v 0.848633 h -1.78858 V 50 h -1.00976 v -5.150879 h -0.68213 v -0.848633 h 0.68213 v -0.19873 q 0,-1.068848 0.53173,-1.638184 0.53174,-0.574707 1.53614,-0.574707 0.33838,0 0.60693,0.03223 0.27393,0.03223 0.49951,0.0752 z"
       id="path83" />
    <path
       d="m 191.07333,47.00293 q 0,1.466308 -0.75195,2.314941 -0.75195,0.848633 -2.01416,0.848633 -1.27295,0 -2.0249,-0.848633 -0.74658,-0.848633 -0.74658,-2.314941 0,-1.466309 0.74658,-2.314942 0.75195,-0.854004 2.0249,-0.854004 1.26221,0 2.01416,0.854004 0.75195,0.848633 0.75195,2.314942 z m -1.04199,0 q 0,-1.165528 -0.45654,-1.729493 -0.45654,-0.569335 -1.26758,-0.569335 -0.82178,0 -1.27832,0.569335 -0.45117,0.563965 -0.45117,1.729493 0,1.127929 0.45654,1.713379 0.45654,0.580078 1.27295,0.580078 0.80566,0 1.26221,-0.574707 0.46191,-0.580078 0.46191,-1.71875 z"
       id="path85" />
    <path
       d="m 196.37997,45.101562 h -0.0537 q -0.22558,-0.05371 -0.44043,-0.0752 -0.20947,-0.02685 -0.49951,-0.02685 -0.46728,0 -0.90234,0.209472 -0.43506,0.204102 -0.83789,0.531739 V 50 h -1.00977 v -5.999512 h 1.00977 v 0.886231 q 0.60156,-0.483399 1.0581,-0.682129 0.46192,-0.204102 0.93994,-0.204102 0.26319,0 0.38135,0.01611 0.11817,0.01074 0.35449,0.04834 z"
       id="path87" />
    <path
       d="m 208.03525,46.009277 q 0,1.090332 -0.47803,1.976563 -0.47266,0.88623 -1.26221,1.375 -0.54785,0.338379 -1.22461,0.488769 Q 204.39902,50 203.29794,50 h -2.01953 v -7.997559 h 1.99805 q 1.1709,0 1.8584,0.171875 0.69287,0.166504 1.1709,0.461914 0.8164,0.510254 1.27294,1.358887 0.45655,0.848633 0.45655,2.01416 z m -1.11182,-0.01611 q 0,-0.939941 -0.32764,-1.584473 -0.32763,-0.644531 -0.97753,-1.015136 -0.47266,-0.268555 -1.0044,-0.370606 -0.53174,-0.107422 -1.27295,-0.107422 h -0.99902 v 6.171387 h 0.99902 q 0.76807,0 1.3374,-0.112793 0.57471,-0.112793 1.05274,-0.418945 0.59619,-0.381348 0.8916,-1.004395 0.30078,-0.623047 0.30078,-1.557617 z"
       id="path89" />
    <path
       d="m 214.95322,46.95459 q 0,0.751953 -0.21485,1.353515 -0.20947,0.601563 -0.56933,1.009766 -0.38135,0.424316 -0.83789,0.63916 -0.45655,0.209473 -1.0044,0.209473 -0.51025,0 -0.8916,-0.123535 -0.38135,-0.118164 -0.75195,-0.322266 L 210.61874,50 h -0.94531 v -8.357422 h 1.00977 v 2.986328 q 0.42431,-0.349121 0.90234,-0.569336 0.47803,-0.225586 1.07422,-0.225586 1.06348,0 1.67578,0.816407 0.61768,0.816406 0.61768,2.304199 z m -1.042,0.02685 q 0,-1.074218 -0.35449,-1.627441 -0.35449,-0.558594 -1.14404,-0.558594 -0.44043,0 -0.8916,0.19336 -0.45117,0.187988 -0.83789,0.488769 v 3.4375 q 0.42968,0.193359 0.73584,0.268555 0.31152,0.0752 0.70361,0.0752 0.83789,0 1.31055,-0.547852 0.47802,-0.553222 0.47802,-1.729492 z"
       id="path91" />
    <path
       d="m 221.8121,50 h -5.41406 v -1.122559 q 0.56397,-0.483398 1.12793,-0.966796 0.56934,-0.483399 1.05811,-0.961426 1.03125,-0.999024 1.41259,-1.584473 0.38135,-0.59082 0.38135,-1.272949 0,-0.623047 -0.41357,-0.972168 -0.40821,-0.354492 -1.14405,-0.354492 -0.48877,0 -1.0581,0.171875 -0.56934,0.171875 -1.11182,0.526367 h -0.0537 v -1.12793 q 0.38135,-0.187988 1.01514,-0.34375 0.63916,-0.155762 1.23535,-0.155762 1.22998,0 1.92822,0.596192 0.69824,0.59082 0.69824,1.605957 0,0.456543 -0.11816,0.854004 -0.11279,0.39209 -0.33838,0.746582 -0.20947,0.333008 -0.49414,0.655273 -0.2793,0.322266 -0.68213,0.714356 -0.57471,0.563965 -1.18701,1.095703 -0.6123,0.526367 -1.14404,0.977539 h 4.30224 z"
       id="path93" />
    <path
       d="m 230.61533,42.620117 h -0.0537 q -0.1665,-0.04834 -0.43505,-0.09668 -0.26856,-0.05371 -0.47266,-0.05371 -0.6499,0 -0.94531,0.290039 -0.29004,0.284668 -0.29004,1.036621 v 0.204101 h 1.8208 v 0.848633 h -1.78857 V 50 h -1.00977 v -5.150879 h -0.68213 v -0.848633 h 0.68213 v -0.19873 q 0,-1.068848 0.53174,-1.638184 0.53174,-0.574707 1.53613,-0.574707 0.33838,0 0.60693,0.03223 0.27393,0.03223 0.49952,0.0752 z"
       id="path95" />
    <path
       d="m 236.36777,47.00293 q 0,1.466308 -0.75196,2.314941 -0.75195,0.848633 -2.01416,0.848633 -1.27295,0 -2.0249,-0.848633 -0.74658,-0.848633 -0.74658,-2.314941 0,-1.466309 0.74658,-2.314942 0.75195,-0.854004 2.0249,-0.854004 1.26221,0 2.01416,0.854004 0.75196,0.848633 0.75196,2.314942 z m -1.04199,0 q 0,-1.165528 -0.45655,-1.729493 -0.45654,-0.569335 -1.26758,-0.569335 -0.82177,0 -1.27832,0.569335 -0.45117,0.563965 -0.45117,1.729493 0,1.127929 0.45654,1.713379 0.45655,0.580078 1.27295,0.580078 0.80567,0 1.26221,-0.574707 0.46192,-0.580078 0.46192,-1.71875 z"
       id="path97" />
    <path
       d="m 241.67441,45.101562 h -0.0537 q -0.22559,-0.05371 -0.44043,-0.0752 -0.20948,-0.02685 -0.49951,-0.02685 -0.46729,0 -0.90235,0.209472 -0.43506,0.204102 -0.83789,0.531739 V 50 h -1.00976 v -5.999512 h 1.00976 v 0.886231 q 0.60156,-0.483399 1.05811,-0.682129 0.46191,-0.204102 0.93994,-0.204102 0.26318,0 0.38135,0.01611 0.11816,0.01074 0.35449,0.04834 z"
       id="path99" />
    <path
       d="m 250.84286,50 h -4.84472 v -0.746582 l 3.49658,-4.409668 h -3.42139 v -0.843262 h 4.67823 v 0.719727 l -3.5127,4.425781 h 3.604 z"
       id="path101" />
    <path
       d="m 255.89706,41.642578 -3.85107,9.990234 h -0.9292 l 3.83496,-9.990234 z"
       id="path103" />
    <path
       d="m 263.30917,42.920898 q 0.48877,0.53711 0.74659,1.315918 0.26318,0.778809 0.26318,1.76709 0,0.988281 -0.26856,1.772461 -0.26318,0.778809 -0.74121,1.299805 -0.49414,0.54248 -1.17089,0.816406 -0.67139,0.273926 -1.53614,0.273926 -0.84326,0 -1.53613,-0.279297 -0.6875,-0.279297 -1.1709,-0.811035 -0.4834,-0.531738 -0.74658,-1.305176 -0.25781,-0.773437 -0.25781,-1.76709 0,-0.977539 0.25781,-1.750976 0.25781,-0.778809 0.75195,-1.332032 0.47266,-0.526367 1.1709,-0.805664 0.70361,-0.279297 1.53076,-0.279297 0.85938,0 1.54151,0.284668 0.6875,0.279297 1.16552,0.800293 z m -0.0967,3.083008 q 0,-1.557617 -0.69824,-2.400879 -0.69824,-0.848632 -1.90674,-0.848632 -1.21923,0 -1.91748,0.848632 -0.69287,0.843262 -0.69287,2.400879 0,1.573731 0.70899,2.411621 0.70898,0.83252 1.90136,0.83252 1.19239,0 1.896,-0.83252 0.70898,-0.83789 0.70898,-2.411621 z"
       id="path105" />
    <path
       d="m 271.81699,47.717285 q 0,0.467285 -0.22022,0.923828 -0.21484,0.456543 -0.60693,0.773438 -0.42969,0.34375 -1.0044,0.537109 -0.56933,0.19336 -1.375,0.19336 -0.86474,0 -1.55761,-0.161133 -0.6875,-0.161133 -1.40186,-0.478028 v -1.332031 h 0.0752 q 0.60693,0.504883 1.40185,0.778809 0.79492,0.273925 1.49317,0.273925 0.98828,0 1.53613,-0.370605 0.55322,-0.370605 0.55322,-0.988281 0,-0.531739 -0.26318,-0.78418 -0.25782,-0.252441 -0.78955,-0.39209 -0.40284,-0.107422 -0.87549,-0.177246 -0.46729,-0.06982 -0.99365,-0.177246 -1.06348,-0.225586 -1.57911,-0.768066 -0.51025,-0.547852 -0.51025,-1.42334 0,-1.004395 0.84863,-1.643555 0.84864,-0.644531 2.15381,-0.644531 0.84326,0 1.54688,0.161133 0.70361,0.161132 1.24609,0.397461 v 1.256836 h -0.0752 q -0.45655,-0.386719 -1.20313,-0.639161 -0.74121,-0.257812 -1.52002,-0.257812 -0.854,0 -1.375,0.354492 -0.51562,0.354492 -0.51562,0.913086 0,0.499512 0.25781,0.78418 0.25781,0.284668 0.90771,0.435058 0.34375,0.0752 0.97754,0.182617 0.63379,0.107422 1.07422,0.220215 0.8916,0.236328 1.34277,0.714356 0.45118,0.478027 0.45118,1.337402 z"
       id="path107" />
  </g>
</svg>
