<?xml version="1.0" encoding="UTF-8" standalone="no"?>
<svg
   xmlns:dc="http://purl.org/dc/elements/1.1/"
   xmlns:cc="http://creativecommons.org/ns#"
   xmlns:rdf="http://www.w3.org/1999/02/22-rdf-syntax-ns#"
   xmlns:svg="http://www.w3.org/2000/svg"
   xmlns="http://www.w3.org/2000/svg"
   xmlns:xlink="http://www.w3.org/1999/xlink"
   id="svg2"
   height="70"
   width="240"
   version="1.1">
  <metadata
     id="metadata21">
    <rdf:RDF>
      <cc:Work
         rdf:about="">
        <dc:format>image/svg+xml</dc:format>
        <dc:type
           rdf:resource="http://purl.org/dc/dcmitype/StillImage" />
      </cc:Work>
    </rdf:RDF>
  </metadata>
  <defs
     id="defs19" />
  <path
     id="path4"
     d="m 237.32,9.09 c -1.06,0 -1.93,-0.86 -1.93,-1.92 0,-1.06 0.87,-1.93 1.93,-1.93 1.06,0 1.93,0.87 1.93,1.93 0,1.06 -0.87,1.92 -1.93,1.92 m 0,-4.32 c -1.32,0 -2.4,1.08 -2.4,2.4 0,1.32 1.08,2.4 2.4,2.4 1.32,0 2.4,-1.08 2.4,-2.4 0,-1.32 -1.08,-2.4 -2.4,-2.4" />
  <path
     id="path6"
     d="m 237.48,7.07 -0.51,0.01 -0.01,-0.62 h 0.51 c 0.19,-0.01 0.34,0.11 0.34,0.3 0.01,0.19 -0.14,0.31 -0.33,0.31 m 0.83,-0.32 c -0.01,-0.42 -0.3,-0.72 -0.77,-0.72 l -1.07,0.02 0.03,2.26 h 0.49 L 236.98,7.5 h 0.35 l 0.46,0.8 0.55,-0.01 -0.52,-0.86 c 0.24,-0.06 0.49,-0.28 0.49,-0.68" />
  <path
     id="path10"
     d="m 51.8341,23.1805 h -5.999 V 9.3465 h 5.835 c 1.574,0 2.557,1.016 2.557,2.393 0,1.377 -0.983,2.36 -2.557,2.36 H 45 v 4 h 6.8341 c 1.836,0 2.819,1.18 2.819,2.556 0,1.574 -1.049,2.525 -2.819,2.525 m 3.376,-7.245 c 2.066,-0.426 3.771,-2.262 3.771,-5.015 0,-2.918 -2.131,-5.573 -6.295,-5.573 h -11.506 v 21.865 h 11.867 c 4.163,0 6.359,-2.623 6.359,-5.901 0,-2.754 -1.868,-5.015 -4.196,-5.376" />
  <path
     id="path12"
     d="M 73.0326,15.3453 H 68 v 4.098 h 3.5576 l 4.294,7.769 h 5.343 l -4.917,-8.327 c 2.361,-0.557 4.786,-2.622 4.786,-6.49 m 0,0 c 0,-4.065 -2.786,-7.048 -7.343,-7.048 h -10.228 v 21.865 h 4.655 V 9.4453 h 4.885 c 1.869,0 3.278,1.114 3.278,2.95 0,1.836 -1.409,2.95 -3.278,2.95" />
  <path
     id="path14"
     d="m 116.4532,19.4105 3.409,-9.408 3.41,9.408 z m 0.492,-14.063 -8.458,21.865 h 5.31 l 1.377,-3.704 h 9.376 l 1.344,3.704 h 5.311 l -8.425,-21.865 z" />
  <path
     id="path16"
     d="m 143.8491,23.1146 h -3.967 v -13.67 h 3.967 c 4.491,0 6.851,2.983 6.851,6.852 0,3.704 -2.524,6.818 -6.851,6.818 m 0,-17.767 h -8.622 v 21.865 h 8.622 c 6.851,0 11.604,-4.327 11.604,-10.916 0,-6.589 -4.753,-10.949 -11.604,-10.949" />
  <path
     id="path18"
     d="m 225.976,5.3431 -5.734,9.27 -5.734,-9.27 h -5.146 v 21.869 h 4.656 v -14.293 l 5.012,7.622 c 0.574,0.871 1.851,0.871 2.424,0 l 5.013,-7.622 v 14.293 h 4.656 V 5.3431 Z" />
  <path
     id="path20"
     d="m 95.8253,23.3441 c -3.871,0 -7.008,-3.138 -7.008,-7.008 0,-3.871 3.137,-7.009 7.008,-7.009 3.87,0 7.008,3.138 7.008,7.009 0,3.87 -3.138,7.008 -7.008,7.008 m 0,-18.536 c -6.367,0 -11.528,5.161 -11.528,11.528 0,6.366 5.161,11.527 11.528,11.527 6.366,0 11.528,-5.161 11.528,-11.527 0,-6.367 -5.162,-11.528 -11.528,-11.528" />
  <path
     id="path22"
     d="m 176.4035,19.7269 c -1.195,2.156 -3.492,3.617 -6.132,3.617 -3.87,0 -7.008,-3.138 -7.008,-7.008 0,-3.871 3.138,-7.008 7.008,-7.008 2.618,0 4.897,1.438 6.1,3.565 l 3.27,-3.269 c -2.092,-2.915 -5.508,-4.816 -9.37,-4.816 -6.367,0 -11.527,5.161 -11.527,11.528 0,6.366 5.16,11.528 11.527,11.528 3.883,0 7.316,-1.922 9.404,-4.865 z" />
  <use
     id="use8"
     transform="translate(98.7182)"
     xlink:href="#path20" />
  <ellipse
     id="ellipse24"
     fill="#cc092f"
     ry="16.235352"
     rx="16.236328"
     cy="16.49707"
     cx="16.519531" />
  <path
     id="path26"
     fill="#ffffff"
     d="m 30.8253,20.8832 c -1.857,-0.74 -3.557,-0.492 -5.261,0.541 0,0 -0.621,0.379 -0.807,0.496 -0.794,0.498 -1.543,0.97 -2.263,0.97 -0.687,0 -1.363,-0.184 -1.649,-1.513 -0.446,-2.073 -1.534,-7.167 -2.009,-9.69 -0.279,-1.483 -0.432,-2.282 -0.591,-2.825 -0.28,-0.954 -0.792,-1.473 -1.519,-1.556 0,0 -0.114,-0.016 -0.207,-0.016 -0.092,0 -0.218,0.018 -0.218,0.018 -0.72,0.086 -1.229,0.605 -1.507,1.554 -0.159,0.543 -0.312,1.342 -0.591,2.825 -0.475,2.523 -1.563,7.617 -2.009,9.69 -0.286,1.329 -0.962,1.513 -1.649,1.513 -0.72,0 -1.469,-0.472 -2.263,-0.97 -0.186,-0.117 -0.808,-0.496 -0.808,-0.496 -1.703,-1.033 -3.404,-1.281 -5.26,-0.541 -0.401,0.16 -0.7959632,0.339183 -1.1719632,0.520183 0.257,0.806 0.5769317,1.59925 0.9499317,2.34425 0.411,-0.202 0.8420315,-0.402433 1.2820315,-0.532433 0.634,-0.187 1.284,-0.197 1.914,0.014 0.612,0.205 1.157,0.568 1.7,0.909 1.023,0.643 2.182,1.372 3.657,1.372 2.186,0 3.72,-1.305 4.21,-3.581 0.38,-1.764 1.222,-5.702 1.763,-8.418 0,0 1.386,6.654 1.765,8.418 0.49,2.276 2.025,3.581 4.211,3.581 1.475,0 2.634,-0.729 3.657,-1.372 0.543,-0.341 1.088,-0.704 1.7,-0.909 0.629,-0.211 1.28,-0.201 1.914,-0.014 0.44,0.13 0.870387,0.330647 1.281387,0.532647 0.374,-0.745 0.693089,-1.538621 0.950089,-2.344621 -0.376,-0.181 -0.770476,-0.360026 -1.171476,-0.520026" />
  <g
     id="text14"
     style="font-style:normal;font-variant:normal;font-weight:normal;font-stretch:normal;font-size:14px;line-height:normal;font-family:sans-serif;text-anchor:middle"
     aria-label="CA Endevor® Bridge For Git">
    <path
       id="path23"
       style="font-style:normal;font-variant:normal;font-weight:normal;font-stretch:normal;font-size:14px;line-height:normal;font-family:sans-serif;text-anchor:middle"
       d="m 30.606445,40.580078 v 1.456055 q -0.697265,-0.649414 -1.490234,-0.970703 -0.786133,-0.321289 -1.674805,-0.321289 -1.75,0 -2.679687,1.073242 -0.929688,1.066406 -0.929688,3.089844 0,2.016601 0.929688,3.089843 0.929687,1.066407 2.679687,1.066407 0.888672,0 1.674805,-0.32129 0.792969,-0.321289 1.490234,-0.970703 v 1.442383 q -0.724609,0.492188 -1.538086,0.738281 -0.80664,0.246094 -1.708984,0.246094 -2.317383,0 -3.650391,-1.415039 -1.333007,-1.421875 -1.333007,-3.875976 0,-2.460938 1.333007,-3.875977 1.333008,-1.421875 3.650391,-1.421875 0.916016,0 1.722656,0.246094 0.813477,0.239258 1.524414,0.724609 z" />
    <path
       id="path25"
       style="font-style:normal;font-variant:normal;font-weight:normal;font-stretch:normal;font-size:14px;line-height:normal;font-family:sans-serif;text-anchor:middle"
       d="m 36.164062,41.154297 -1.873046,5.079101 h 3.752929 z m -0.779296,-1.360352 h 1.565429 L 40.839844,50 H 39.404297 L 38.474609,47.381836 H 33.874023 L 32.944336,50 h -1.456055 z" />
    <path
       id="path27"
       style="font-style:normal;font-variant:normal;font-weight:normal;font-stretch:normal;font-size:14px;line-height:normal;font-family:sans-serif;text-anchor:middle"
       d="m 46.780273,39.793945 h 6.453125 v 1.16211 h -5.072265 v 3.021484 h 4.860351 v 1.162109 h -4.860351 v 3.698243 h 5.195312 V 50 h -6.576172 z" />
    <path
       id="path29"
       style="font-style:normal;font-variant:normal;font-weight:normal;font-stretch:normal;font-size:14px;line-height:normal;font-family:sans-serif;text-anchor:middle"
       d="M 61.949219,45.378906 V 50 h -1.257813 v -4.580078 q 0,-1.086914 -0.423828,-1.626953 -0.423828,-0.540039 -1.271484,-0.540039 -1.018555,0 -1.606446,0.649414 -0.58789,0.649414 -0.58789,1.770508 V 50 h -1.264649 v -7.65625 h 1.264649 v 1.189453 q 0.451172,-0.69043 1.05957,-1.032226 0.615234,-0.341797 1.415039,-0.341797 1.319336,0 1.996094,0.820312 0.676758,0.813477 0.676758,2.399414 z" />
    <path
       id="path31"
       style="font-style:normal;font-variant:normal;font-weight:normal;font-stretch:normal;font-size:14px;line-height:normal;font-family:sans-serif;text-anchor:middle"
       d="m 69.509766,43.505859 v -4.142578 h 1.257812 V 50 h -1.257812 v -1.148438 q -0.396485,0.683594 -1.004883,1.018555 -0.601563,0.328125 -1.449219,0.328125 -1.387695,0 -2.262695,-1.107422 -0.868164,-1.107422 -0.868164,-2.912109 0,-1.804688 0.868164,-2.912109 0.875,-1.107422 2.262695,-1.107422 0.847656,0 1.449219,0.334961 0.608398,0.328125 1.004883,1.011718 z m -4.286133,2.672852 q 0,1.387695 0.567383,2.180664 0.574218,0.786133 1.572265,0.786133 0.998047,0 1.572266,-0.786133 0.574219,-0.792969 0.574219,-2.180664 0,-1.387695 -0.574219,-2.173828 -0.574219,-0.792969 -1.572266,-0.792969 -0.998047,0 -1.572265,0.792969 -0.567383,0.786133 -0.567383,2.173828 z" />
    <path
       id="path33"
       style="font-style:normal;font-variant:normal;font-weight:normal;font-stretch:normal;font-size:14px;line-height:normal;font-family:sans-serif;text-anchor:middle"
       d="m 79.907227,45.857422 v 0.615234 h -5.783204 q 0.08203,1.298828 0.779297,1.982422 0.704102,0.676758 1.955078,0.676758 0.72461,0 1.401368,-0.177734 0.683593,-0.177735 1.353515,-0.533204 v 1.189454 q -0.676758,0.287109 -1.387695,0.4375 -0.710938,0.15039 -1.442383,0.15039 -1.832031,0 -2.905273,-1.066406 -1.066407,-1.066406 -1.066407,-2.884766 0,-1.879883 1.011719,-2.980468 1.018555,-1.107422 2.741211,-1.107422 1.544922,0 2.44043,0.998047 0.902344,0.99121 0.902344,2.700195 z m -1.257813,-0.369141 q -0.01367,-1.032226 -0.581055,-1.647461 -0.560547,-0.615234 -1.490234,-0.615234 -1.052734,0 -1.688477,0.594726 -0.628906,0.594727 -0.724609,1.674805 z" />
    <path
       id="path35"
       style="font-style:normal;font-variant:normal;font-weight:normal;font-stretch:normal;font-size:14px;line-height:normal;font-family:sans-serif;text-anchor:middle"
       d="m 81.069336,42.34375 h 1.333008 l 2.392578,6.425781 2.392578,-6.425781 h 1.333008 L 85.649414,50 H 83.94043 Z" />
    <path
       id="path37"
       style="font-style:normal;font-variant:normal;font-weight:normal;font-stretch:normal;font-size:14px;line-height:normal;font-family:sans-serif;text-anchor:middle"
       d="m 93.223633,43.225586 q -1.011719,0 -1.59961,0.792969 -0.58789,0.786132 -0.58789,2.160156 0,1.374023 0.581054,2.166992 0.587891,0.786133 1.606446,0.786133 1.004883,0 1.592773,-0.792969 0.587891,-0.792969 0.587891,-2.160156 0,-1.360352 -0.587891,-2.15332 -0.58789,-0.799805 -1.592773,-0.799805 z m 0,-1.066406 q 1.640625,0 2.577148,1.066406 0.936524,1.066406 0.936524,2.953125 0,1.879883 -0.936524,2.953125 -0.936523,1.066406 -2.577148,1.066406 -1.647461,0 -2.583985,-1.066406 -0.929687,-1.073242 -0.929687,-2.953125 0,-1.886719 0.929687,-2.953125 0.936524,-1.066406 2.583985,-1.066406 z" />
    <path
       id="path39"
       style="font-style:normal;font-variant:normal;font-weight:normal;font-stretch:normal;font-size:14px;line-height:normal;font-family:sans-serif;text-anchor:middle"
       d="m 103.25195,43.519531 q -0.21191,-0.123047 -0.46484,-0.177734 -0.24609,-0.06152 -0.54688,-0.06152 -1.0664,0 -1.64062,0.697266 -0.56738,0.69043 -0.56738,1.989258 V 50 h -1.264652 v -7.65625 h 1.264652 v 1.189453 q 0.39648,-0.697266 1.03222,-1.032226 0.63575,-0.341797 1.54493,-0.341797 0.12988,0 0.2871,0.02051 0.15723,0.01367 0.34864,0.04785 z" />
    <path
       id="path41"
       style="font-style:normal;font-variant:normal;font-weight:normal;font-stretch:normal;font-size:14px;line-height:normal;font-family:sans-serif;text-anchor:middle"
       d="m 110.26563,40.552734 q -0.89551,0 -1.66797,0.321289 -0.77246,0.321289 -1.41504,0.963868 -0.64258,0.642578 -0.97071,1.428711 -0.32812,0.779296 -0.32812,1.667968 0,0.881836 0.32812,1.661133 0.32813,0.772461 0.97071,1.415039 0.64258,0.642578 1.41504,0.970703 0.77246,0.321289 1.66797,0.321289 0.90234,0 1.6748,-0.321289 0.7793,-0.328125 1.42187,-0.970703 0.63575,-0.635742 0.9502,-1.408203 0.32129,-0.772461 0.32129,-1.667969 0,-0.909179 -0.32129,-1.68164 -0.32129,-0.779297 -0.9502,-1.415039 -0.64257,-0.642579 -1.42187,-0.963868 -0.77246,-0.321289 -1.6748,-0.321289 z m 0,-0.704101 q 1.03906,0 1.93457,0.375976 0.90234,0.375977 1.64746,1.121094 0.74511,0.745117 1.11425,1.640625 0.36914,0.895508 0.36914,1.948242 0,1.039063 -0.36914,1.934571 -0.36914,0.888671 -1.11425,1.633789 -0.74512,0.745117 -1.64746,1.121093 Q 111.30469,50 110.26563,50 q -1.03907,0 -1.94141,-0.375977 -0.89551,-0.375976 -1.64063,-1.121093 -0.74511,-0.745118 -1.11425,-1.633789 -0.36914,-0.895508 -0.36914,-1.934571 0,-1.052734 0.36914,-1.948242 0.36914,-0.895508 1.11425,-1.640625 0.74512,-0.745117 1.64063,-1.121094 0.90234,-0.375976 1.94141,-0.375976 z m -0.18458,2.830078 h -0.84082 v 1.886719 h 0.84082 q 0.75196,0 1.0459,-0.211914 0.30078,-0.211914 0.30078,-0.72461 0,-0.519531 -0.30078,-0.731445 -0.30078,-0.21875 -1.0459,-0.21875 z m 0.0479,-0.704102 q 1.20312,0 1.79785,0.410157 0.59472,0.40332 0.59472,1.230468 0,0.587891 -0.3623,0.970703 -0.35547,0.382813 -1.01172,0.499024 0.16406,0.05469 0.38965,0.321289 0.23242,0.259766 0.54687,0.758789 l 0.93653,1.524414 h -1.17578 l -0.88184,-1.428711 q -0.40332,-0.65625 -0.65625,-0.827148 -0.24609,-0.177735 -0.61523,-0.177735 h -0.45118 v 2.433594 h -1.05957 v -5.714844 z" />
    <path
       id="path43"
       style="font-style:normal;font-variant:normal;font-weight:normal;font-stretch:normal;font-size:14px;line-height:normal;font-family:sans-serif;text-anchor:middle"
       d="m 124.47754,45.125977 v 3.739257 h 2.21484 q 1.11426,0 1.64746,-0.458007 0.54004,-0.464844 0.54004,-1.41504 0,-0.957031 -0.54004,-1.408203 -0.5332,-0.458007 -1.64746,-0.458007 z m 0,-4.197266 v 3.076172 h 2.04394 q 1.01172,0 1.50391,-0.375977 0.49902,-0.382812 0.49902,-1.162109 0,-0.772461 -0.49902,-1.155274 -0.49219,-0.382812 -1.50391,-0.382812 z m -1.38086,-1.134766 h 3.52734 q 1.5791,0 2.4336,0.65625 0.85449,0.65625 0.85449,1.866211 0,0.936524 -0.4375,1.490235 -0.4375,0.553711 -1.28516,0.690429 1.01856,0.21875 1.5791,0.916016 0.56739,0.69043 0.56739,1.729492 0,1.367188 -0.92969,2.112305 Q 128.47656,50 126.76074,50 h -3.66406 z" />
    <path
       id="path45"
       style="font-style:normal;font-variant:normal;font-weight:normal;font-stretch:normal;font-size:14px;line-height:normal;font-family:sans-serif;text-anchor:middle"
       d="m 137.07617,43.519531 q -0.21191,-0.123047 -0.46484,-0.177734 -0.2461,-0.06152 -0.54688,-0.06152 -1.0664,0 -1.64062,0.697266 -0.56738,0.69043 -0.56738,1.989258 V 50 h -1.26465 v -7.65625 h 1.26465 v 1.189453 q 0.39648,-0.697266 1.03222,-1.032226 0.63574,-0.341797 1.54492,-0.341797 0.12989,0 0.28711,0.02051 0.15723,0.01367 0.34864,0.04785 z" />
    <path
       id="path47"
       style="font-style:normal;font-variant:normal;font-weight:normal;font-stretch:normal;font-size:14px;line-height:normal;font-family:sans-serif;text-anchor:middle"
       d="m 138.40918,42.34375 h 1.25781 V 50 h -1.25781 z m 0,-2.980469 h 1.25781 v 1.592774 h -1.25781 z" />
    <path
       id="path49"
       style="font-style:normal;font-variant:normal;font-weight:normal;font-stretch:normal;font-size:14px;line-height:normal;font-family:sans-serif;text-anchor:middle"
       d="m 147.33008,43.505859 v -4.142578 h 1.25781 V 50 h -1.25781 v -1.148438 q -0.39649,0.683594 -1.00488,1.018555 -0.60157,0.328125 -1.44922,0.328125 -1.3877,0 -2.2627,-1.107422 -0.86816,-1.107422 -0.86816,-2.912109 0,-1.804688 0.86816,-2.912109 0.875,-1.107422 2.2627,-1.107422 0.84765,0 1.44922,0.334961 0.60839,0.328125 1.00488,1.011718 z m -4.28613,2.672852 q 0,1.387695 0.56738,2.180664 0.57422,0.786133 1.57226,0.786133 0.99805,0 1.57227,-0.786133 0.57422,-0.792969 0.57422,-2.180664 0,-1.387695 -0.57422,-2.173828 -0.57422,-0.792969 -1.57227,-0.792969 -0.99804,0 -1.57226,0.792969 -0.56738,0.786133 -0.56738,2.173828 z" />
    <path
       id="path51"
       style="font-style:normal;font-variant:normal;font-weight:normal;font-stretch:normal;font-size:14px;line-height:normal;font-family:sans-serif;text-anchor:middle"
       d="m 156.2168,46.083008 q 0,-1.367188 -0.56739,-2.119141 -0.56054,-0.751953 -1.5791,-0.751953 -1.01172,0 -1.5791,0.751953 -0.56055,0.751953 -0.56055,2.119141 0,1.360351 0.56055,2.112304 0.56738,0.751954 1.5791,0.751954 1.01856,0 1.5791,-0.751954 0.56739,-0.751953 0.56739,-2.112304 z m 1.25781,2.966797 q 0,1.955078 -0.86816,2.905273 -0.86817,0.957031 -2.65918,0.957031 -0.66309,0 -1.25098,-0.102539 -0.58789,-0.0957 -1.1416,-0.300781 v -1.223633 q 0.55371,0.300781 1.09375,0.444336 0.54004,0.143555 1.10058,0.143555 1.23731,0 1.85254,-0.649414 0.61524,-0.642578 0.61524,-1.948242 V 48.65332 q -0.38965,0.676758 -0.99805,1.011719 Q 154.61035,50 153.7627,50 q -1.40821,0 -2.26954,-1.073242 -0.86132,-1.073242 -0.86132,-2.84375 0,-1.777344 0.86132,-2.850586 0.86133,-1.073242 2.26954,-1.073242 0.84765,0 1.45605,0.334961 0.6084,0.334961 0.99805,1.011718 V 42.34375 h 1.25781 z" />
    <path
       id="path53"
       style="font-style:normal;font-variant:normal;font-weight:normal;font-stretch:normal;font-size:14px;line-height:normal;font-family:sans-serif;text-anchor:middle"
       d="m 166.61426,45.857422 v 0.615234 h -5.78321 q 0.082,1.298828 0.7793,1.982422 0.7041,0.676758 1.95508,0.676758 0.72461,0 1.40137,-0.177734 0.68359,-0.177735 1.35351,-0.533204 v 1.189454 q -0.67676,0.287109 -1.38769,0.4375 -0.71094,0.15039 -1.44239,0.15039 -1.83203,0 -2.90527,-1.066406 -1.06641,-1.066406 -1.06641,-2.884766 0,-1.879883 1.01172,-2.980468 1.01856,-1.107422 2.74121,-1.107422 1.54493,0 2.44043,0.998047 0.90235,0.99121 0.90235,2.700195 z m -1.25781,-0.369141 q -0.0137,-1.032226 -0.58106,-1.647461 -0.56055,-0.615234 -1.49023,-0.615234 -1.05274,0 -1.68848,0.594726 -0.62891,0.594727 -0.72461,1.674805 z" />
    <path
       id="path55"
       style="font-style:normal;font-variant:normal;font-weight:normal;font-stretch:normal;font-size:14px;line-height:normal;font-family:sans-serif;text-anchor:middle"
       d="m 173.19043,39.793945 h 5.86523 v 1.16211 h -4.48437 v 3.007812 h 4.04687 v 1.16211 h -4.04687 V 50 h -1.38086 z" />
    <path
       id="path57"
       style="font-style:normal;font-variant:normal;font-weight:normal;font-stretch:normal;font-size:14px;line-height:normal;font-family:sans-serif;text-anchor:middle"
       d="m 183.67676,43.225586 q -1.01172,0 -1.59961,0.792969 -0.58789,0.786132 -0.58789,2.160156 0,1.374023 0.58105,2.166992 0.58789,0.786133 1.60645,0.786133 1.00488,0 1.59277,-0.792969 0.58789,-0.792969 0.58789,-2.160156 0,-1.360352 -0.58789,-2.15332 -0.58789,-0.799805 -1.59277,-0.799805 z m 0,-1.066406 q 1.64062,0 2.57715,1.066406 0.93652,1.066406 0.93652,2.953125 0,1.879883 -0.93652,2.953125 -0.93653,1.066406 -2.57715,1.066406 -1.64746,0 -2.58399,-1.066406 -0.92968,-1.073242 -0.92968,-2.953125 0,-1.886719 0.92968,-2.953125 0.93653,-1.066406 2.58399,-1.066406 z" />
    <path
       id="path59"
       style="font-style:normal;font-variant:normal;font-weight:normal;font-stretch:normal;font-size:14px;line-height:normal;font-family:sans-serif;text-anchor:middle"
       d="m 193.70508,43.519531 q -0.21192,-0.123047 -0.46485,-0.177734 -0.24609,-0.06152 -0.54687,-0.06152 -1.06641,0 -1.64063,0.697266 -0.56738,0.69043 -0.56738,1.989258 V 50 h -1.26465 v -7.65625 h 1.26465 v 1.189453 q 0.39649,-0.697266 1.03223,-1.032226 0.63574,-0.341797 1.54492,-0.341797 0.12988,0 0.28711,0.02051 0.15723,0.01367 0.34863,0.04785 z" />
    <path
       id="path61"
       style="font-style:normal;font-variant:normal;font-weight:normal;font-stretch:normal;font-size:14px;line-height:normal;font-family:sans-serif;text-anchor:middle"
       d="m 206.50879,48.543945 v -2.741211 h -2.25586 v -1.134765 h 3.62305 v 4.381836 q -0.79981,0.567382 -1.76368,0.861328 -0.96386,0.287109 -2.05761,0.287109 -2.39258,0 -3.7461,-1.394531 -1.34668,-1.401367 -1.34668,-3.896484 0,-2.501954 1.34668,-3.896485 1.35352,-1.401367 3.7461,-1.401367 0.99804,0 1.89355,0.246094 0.90235,0.246093 1.66113,0.724609 v 1.469727 q -0.76562,-0.649414 -1.62695,-0.977539 -0.86133,-0.328125 -1.81152,-0.328125 -1.87305,0 -2.81641,1.045898 -0.93652,1.045898 -0.93652,3.117188 0,2.064453 0.93652,3.110351 0.94336,1.045899 2.81641,1.045899 0.73144,0 1.30566,-0.123047 0.57422,-0.129883 1.03223,-0.396485 z" />
    <path
       id="path63"
       style="font-style:normal;font-variant:normal;font-weight:normal;font-stretch:normal;font-size:14px;line-height:normal;font-family:sans-serif;text-anchor:middle"
       d="m 210.35059,42.34375 h 1.25781 V 50 h -1.25781 z m 0,-2.980469 h 1.25781 v 1.592774 h -1.25781 z" />
    <path
       id="path65"
       style="font-style:normal;font-variant:normal;font-weight:normal;font-stretch:normal;font-size:14px;line-height:normal;font-family:sans-serif;text-anchor:middle"
       d="m 215.47754,40.169922 v 2.173828 h 2.59082 v 0.977539 h -2.59082 v 4.15625 q 0,0.936523 0.25293,1.203125 0.25976,0.266602 1.0459,0.266602 h 1.29199 V 50 h -1.29199 q -1.45606,0 -2.00977,-0.540039 -0.55371,-0.546875 -0.55371,-1.982422 v -4.15625 h -0.92285 V 42.34375 h 0.92285 v -2.173828 z" />
  </g>
</svg>
