<?xml version="1.0" encoding="UTF-8" standalone="no"?>
<svg
   xmlns:dc="http://purl.org/dc/elements/1.1/"
   xmlns:cc="http://creativecommons.org/ns#"
   xmlns:rdf="http://www.w3.org/1999/02/22-rdf-syntax-ns#"
   xmlns:svg="http://www.w3.org/2000/svg"
   xmlns="http://www.w3.org/2000/svg"
   xmlns:xlink="http://www.w3.org/1999/xlink"
   id="svg2"
   height="70"
   width="240"
   version="1.1">
  <metadata
     id="metadata21">
    <rdf:RDF>
      <cc:Work
         rdf:about="">
        <dc:format>image/svg+xml</dc:format>
        <dc:type
           rdf:resource="http://purl.org/dc/dcmitype/StillImage" />
      </cc:Work>
    </rdf:RDF>
  </metadata>
  <defs
     id="defs19" />
  <path
     id="path4"
     d="m 237.32,9.09 c -1.06,0 -1.93,-0.86 -1.93,-1.92 0,-1.06 0.87,-1.93 1.93,-1.93 1.06,0 1.93,0.87 1.93,1.93 0,1.06 -0.87,1.92 -1.93,1.92 m 0,-4.32 c -1.32,0 -2.4,1.08 -2.4,2.4 0,1.32 1.08,2.4 2.4,2.4 1.32,0 2.4,-1.08 2.4,-2.4 0,-1.32 -1.08,-2.4 -2.4,-2.4" />
  <path
     id="path6"
     d="m 237.48,7.07 -0.51,0.01 -0.01,-0.62 h 0.51 c 0.19,-0.01 0.34,0.11 0.34,0.3 0.01,0.19 -0.14,0.31 -0.33,0.31 m 0.83,-0.32 c -0.01,-0.42 -0.3,-0.72 -0.77,-0.72 l -1.07,0.02 0.03,2.26 h 0.49 L 236.98,7.5 h 0.35 l 0.46,0.8 0.55,-0.01 -0.52,-0.86 c 0.24,-0.06 0.49,-0.28 0.49,-0.68" />
  <path
     id="path10"
     d="m 51.8341,23.1805 h -5.999 V 9.3465 h 5.835 c 1.574,0 2.557,1.016 2.557,2.393 0,1.377 -0.983,2.36 -2.557,2.36 H 45 v 4 h 6.8341 c 1.836,0 2.819,1.18 2.819,2.556 0,1.574 -1.049,2.525 -2.819,2.525 m 3.376,-7.245 c 2.066,-0.426 3.771,-2.262 3.771,-5.015 0,-2.918 -2.131,-5.573 -6.295,-5.573 h -11.506 v 21.865 h 11.867 c 4.163,0 6.359,-2.623 6.359,-5.901 0,-2.754 -1.868,-5.015 -4.196,-5.376" />
  <path
     id="path12"
     d="M 73.0326,15.3453 H 68 v 4.098 h 3.5576 l 4.294,7.769 h 5.343 l -4.917,-8.327 c 2.361,-0.557 4.786,-2.622 4.786,-6.49 m 0,0 c 0,-4.065 -2.786,-7.048 -7.343,-7.048 h -10.228 v 21.865 h 4.655 V 9.4453 h 4.885 c 1.869,0 3.278,1.114 3.278,2.95 0,1.836 -1.409,2.95 -3.278,2.95" />
  <path
     id="path14"
     d="m 116.4532,19.4105 3.409,-9.408 3.41,9.408 z m 0.492,-14.063 -8.458,21.865 h 5.31 l 1.377,-3.704 h 9.376 l 1.344,3.704 h 5.311 l -8.425,-21.865 z" />
  <path
     id="path16"
     d="m 143.8491,23.1146 h -3.967 v -13.67 h 3.967 c 4.491,0 6.851,2.983 6.851,6.852 0,3.704 -2.524,6.818 -6.851,6.818 m 0,-17.767 h -8.622 v 21.865 h 8.622 c 6.851,0 11.604,-4.327 11.604,-10.916 0,-6.589 -4.753,-10.949 -11.604,-10.949" />
  <path
     id="path18"
     d="m 225.976,5.3431 -5.734,9.27 -5.734,-9.27 h -5.146 v 21.869 h 4.656 v -14.293 l 5.012,7.622 c 0.574,0.871 1.851,0.871 2.424,0 l 5.013,-7.622 v 14.293 h 4.656 V 5.3431 Z" />
  <path
     id="path20"
     d="m 95.8253,23.3441 c -3.871,0 -7.008,-3.138 -7.008,-7.008 0,-3.871 3.137,-7.009 7.008,-7.009 3.87,0 7.008,3.138 7.008,7.009 0,3.87 -3.138,7.008 -7.008,7.008 m 0,-18.536 c -6.367,0 -11.528,5.161 -11.528,11.528 0,6.366 5.161,11.527 11.528,11.527 6.366,0 11.528,-5.161 11.528,-11.527 0,-6.367 -5.162,-11.528 -11.528,-11.528" />
  <path
     id="path22"
     d="m 176.4035,19.7269 c -1.195,2.156 -3.492,3.617 -6.132,3.617 -3.87,0 -7.008,-3.138 -7.008,-7.008 0,-3.871 3.138,-7.008 7.008,-7.008 2.618,0 4.897,1.438 6.1,3.565 l 3.27,-3.269 c -2.092,-2.915 -5.508,-4.816 -9.37,-4.816 -6.367,0 -11.527,5.161 -11.527,11.528 0,6.366 5.16,11.528 11.527,11.528 3.883,0 7.316,-1.922 9.404,-4.865 z" />
  <use
     id="use8"
     transform="translate(98.7182)"
     xlink:href="#path20" />
  <ellipse
     id="ellipse24"
     fill="#cc092f"
     ry="16.235352"
     rx="16.236328"
     cy="16.49707"
     cx="16.519531" />
  <path
     id="path26"
     fill="#ffffff"
     d="m 30.8253,20.8832 c -1.857,-0.74 -3.557,-0.492 -5.261,0.541 0,0 -0.621,0.379 -0.807,0.496 -0.794,0.498 -1.543,0.97 -2.263,0.97 -0.687,0 -1.363,-0.184 -1.649,-1.513 -0.446,-2.073 -1.534,-7.167 -2.009,-9.69 -0.279,-1.483 -0.432,-2.282 -0.591,-2.825 -0.28,-0.954 -0.792,-1.473 -1.519,-1.556 0,0 -0.114,-0.016 -0.207,-0.016 -0.092,0 -0.218,0.018 -0.218,0.018 -0.72,0.086 -1.229,0.605 -1.507,1.554 -0.159,0.543 -0.312,1.342 -0.591,2.825 -0.475,2.523 -1.563,7.617 -2.009,9.69 -0.286,1.329 -0.962,1.513 -1.649,1.513 -0.72,0 -1.469,-0.472 -2.263,-0.97 -0.186,-0.117 -0.808,-0.496 -0.808,-0.496 -1.703,-1.033 -3.404,-1.281 -5.26,-0.541 -0.401,0.16 -0.7959632,0.339183 -1.1719632,0.520183 0.257,0.806 0.5769317,1.59925 0.9499317,2.34425 0.411,-0.202 0.8420315,-0.402433 1.2820315,-0.532433 0.634,-0.187 1.284,-0.197 1.914,0.014 0.612,0.205 1.157,0.568 1.7,0.909 1.023,0.643 2.182,1.372 3.657,1.372 2.186,0 3.72,-1.305 4.21,-3.581 0.38,-1.764 1.222,-5.702 1.763,-8.418 0,0 1.386,6.654 1.765,8.418 0.49,2.276 2.025,3.581 4.211,3.581 1.475,0 2.634,-0.729 3.657,-1.372 0.543,-0.341 1.088,-0.704 1.7,-0.909 0.629,-0.211 1.28,-0.201 1.914,-0.014 0.44,0.13 0.870387,0.330647 1.281387,0.532647 0.374,-0.745 0.693089,-1.538621 0.950089,-2.344621 -0.376,-0.181 -0.770476,-0.360026 -1.171476,-0.520026" />
  <g
     style="font-style:normal;font-variant:normal;font-weight:normal;font-stretch:normal;font-size:11px;line-height:normal;font-family:sans-serif;text-anchor:middle"
     id="text14"
     aria-label="CA Endevor®">
    <path
       id="path23"
       style="font-style:normal;font-variant:normal;font-weight:normal;font-stretch:normal;font-size:11px;line-height:normal;font-family:sans-serif;text-anchor:middle"
       d="m 89.599609,49.419922 q -0.29541,0.128906 -0.537109,0.241699 -0.236328,0.112793 -0.623047,0.236328 Q 88.111816,50 87.725098,50.069824 q -0.381348,0.0752 -0.843262,0.0752 -0.870117,0 -1.584473,-0.2417 -0.708984,-0.24707 -1.235351,-0.768066 -0.515625,-0.510254 -0.805664,-1.294434 -0.290039,-0.78955 -0.290039,-1.831543 0,-0.988281 0.279296,-1.76709 0.279297,-0.778808 0.805665,-1.315917 0.510253,-0.520997 1.22998,-0.794922 0.725098,-0.273926 1.605957,-0.273926 0.644531,0 1.283691,0.155762 0.644532,0.155761 1.428711,0.547851 v 1.262207 h -0.08057 q -0.660645,-0.553222 -1.310547,-0.805664 -0.649902,-0.252441 -1.391113,-0.252441 -0.606934,0 -1.095703,0.19873 -0.483399,0.19336 -0.864746,0.606934 -0.370606,0.402832 -0.580079,1.020508 -0.204101,0.612304 -0.204101,1.417968 0,0.843262 0.225586,1.450196 0.230957,0.606933 0.59082,0.988281 0.375977,0.397461 0.875488,0.59082 0.504883,0.187988 1.063477,0.187988 0.768066,0 1.439453,-0.263183 0.671387,-0.263184 1.256836,-0.789551 h 0.0752 z" />
    <path
       id="path25"
       style="font-style:normal;font-variant:normal;font-weight:normal;font-stretch:normal;font-size:11px;line-height:normal;font-family:sans-serif;text-anchor:middle"
       d="m 97.419922,50 h -1.133301 l -0.78418,-2.229004 H 92.043457 L 91.259277,50 h -1.07959 l 2.911133,-7.997559 h 1.417969 z m -2.245117,-3.14209 -1.401856,-3.926269 -1.407226,3.926269 z" />
    <path
       id="path27"
       style="font-style:normal;font-variant:normal;font-weight:normal;font-stretch:normal;font-size:11px;line-height:normal;font-family:sans-serif;text-anchor:middle"
       d="m 107.77002,50 h -5.26904 v -7.997559 h 5.26904 v 0.945313 h -4.20557 v 2.191406 h 4.20557 v 0.945313 h -4.20557 v 2.970214 h 4.20557 z" />
    <path
       id="path29"
       style="font-style:normal;font-variant:normal;font-weight:normal;font-stretch:normal;font-size:11px;line-height:normal;font-family:sans-serif;text-anchor:middle"
       d="m 114.39795,50 h -1.00977 v -3.416016 q 0,-0.413574 -0.0483,-0.773437 -0.0483,-0.365235 -0.17724,-0.569336 -0.13428,-0.225586 -0.38672,-0.333008 -0.25244,-0.112793 -0.65527,-0.112793 -0.41358,0 -0.86475,0.204102 -0.45117,0.204101 -0.86475,0.520996 V 50 h -1.00976 v -5.999512 h 1.00976 v 0.666016 q 0.47266,-0.39209 0.97754,-0.612305 0.50489,-0.220215 1.03662,-0.220215 0.97217,0 1.48243,0.58545 0.51025,0.585449 0.51025,1.686523 z" />
    <path
       id="path31"
       style="font-style:normal;font-variant:normal;font-weight:normal;font-stretch:normal;font-size:11px;line-height:normal;font-family:sans-serif;text-anchor:middle"
       d="m 121.2085,50 h -1.00977 v -0.628418 q -0.43506,0.375977 -0.90771,0.585449 -0.47266,0.209473 -1.02588,0.209473 -1.07422,0 -1.70801,-0.827149 -0.62842,-0.827148 -0.62842,-2.293457 0,-0.762695 0.21484,-1.358886 0.22022,-0.596192 0.59083,-1.015137 0.36523,-0.408203 0.84863,-0.623047 0.48877,-0.214844 1.00976,-0.214844 0.47266,0 0.83789,0.102051 0.36524,0.09668 0.76807,0.306152 v -2.599609 h 1.00977 z m -1.00977,-1.477051 v -3.442871 q -0.4082,-0.182617 -0.73047,-0.252441 -0.32226,-0.06983 -0.70361,-0.06983 -0.84863,0 -1.32129,0.590821 -0.47266,0.59082 -0.47266,1.675781 0,1.068848 0.36524,1.627441 0.36523,0.553223 1.1709,0.553223 0.42968,0 0.87011,-0.187988 0.44043,-0.19336 0.82178,-0.494141 z" />
    <path
       id="path33"
       style="font-style:normal;font-variant:normal;font-weight:normal;font-stretch:normal;font-size:11px;line-height:normal;font-family:sans-serif;text-anchor:middle"
       d="m 128.21777,47.10498 h -4.42041 q 0,0.553223 0.16651,0.966797 0.1665,0.408203 0.45654,0.671387 0.2793,0.257813 0.66064,0.386719 0.38672,0.128906 0.84864,0.128906 0.6123,0 1.22998,-0.241699 0.62304,-0.24707 0.88623,-0.483399 h 0.0537 v 1.101075 q -0.51025,0.214843 -1.04199,0.359863 -0.53174,0.145019 -1.11719,0.145019 -1.49316,0 -2.33105,-0.805664 -0.8379,-0.811035 -0.8379,-2.298828 0,-1.471679 0.8003,-2.336426 0.80566,-0.864746 2.11621,-0.864746 1.21387,0 1.86914,0.708985 0.66064,0.708984 0.66064,2.01416 z m -0.98291,-0.773437 q -0.005,-0.794922 -0.40283,-1.229981 -0.39209,-0.435058 -1.19775,-0.435058 -0.81104,0 -1.29444,0.478027 -0.47802,0.478028 -0.54248,1.187012 z" />
    <path
       id="path35"
       style="font-style:normal;font-variant:normal;font-weight:normal;font-stretch:normal;font-size:11px;line-height:normal;font-family:sans-serif;text-anchor:middle"
       d="M 134.93701,44.000488 132.50928,50 h -1.01514 l -2.41162,-5.999512 h 1.0957 l 1.8584,4.774903 1.84229,-4.774903 z" />
    <path
       id="path37"
       style="font-style:normal;font-variant:normal;font-weight:normal;font-stretch:normal;font-size:11px;line-height:normal;font-family:sans-serif;text-anchor:middle"
       d="m 141.37158,47.00293 q 0,1.466308 -0.75195,2.314941 -0.75195,0.848633 -2.01416,0.848633 -1.27295,0 -2.0249,-0.848633 -0.74659,-0.848633 -0.74659,-2.314941 0,-1.466309 0.74659,-2.314942 0.75195,-0.854004 2.0249,-0.854004 1.26221,0 2.01416,0.854004 0.75195,0.848633 0.75195,2.314942 z m -1.04199,0 q 0,-1.165528 -0.45654,-1.729493 -0.45655,-0.569335 -1.26758,-0.569335 -0.82178,0 -1.27832,0.569335 -0.45117,0.563965 -0.45117,1.729493 0,1.127929 0.45654,1.713379 0.45654,0.580078 1.27295,0.580078 0.80566,0 1.26221,-0.574707 0.46191,-0.580078 0.46191,-1.71875 z" />
    <path
       id="path39"
       style="font-style:normal;font-variant:normal;font-weight:normal;font-stretch:normal;font-size:11px;line-height:normal;font-family:sans-serif;text-anchor:middle"
       d="m 146.68359,45.101562 h -0.0537 q -0.22558,-0.05371 -0.44043,-0.0752 -0.20947,-0.02685 -0.49951,-0.02685 -0.46728,0 -0.90234,0.209472 -0.43506,0.204102 -0.83789,0.531739 V 50 h -1.00977 v -5.999512 h 1.00977 v 0.886231 q 0.60156,-0.483399 1.0581,-0.682129 0.46192,-0.204102 0.93994,-0.204102 0.26319,0 0.38135,0.01611 0.11817,0.01074 0.35449,0.04834 z" />
    <path
       id="path41"
       style="font-style:normal;font-variant:normal;font-weight:normal;font-stretch:normal;font-size:11px;line-height:normal;font-family:sans-serif;text-anchor:middle"
       d="m 156.79736,46.481934 q 0,1.922851 -1.36425,3.287109 -1.35889,1.358887 -3.28174,1.358887 -1.92285,0 -3.28711,-1.358887 -1.35889,-1.364258 -1.35889,-3.287109 0,-1.922852 1.35889,-3.281739 1.36426,-1.364258 3.28711,-1.364258 1.92285,0 3.28174,1.364258 1.36425,1.358887 1.36425,3.281739 z m -0.62304,0 q 0,-1.665039 -1.18164,-2.857422 -1.17627,-1.192383 -2.84131,-1.192383 -1.66504,0 -2.84668,1.192383 -1.17627,1.192383 -1.17627,2.857422 0,1.665039 1.17627,2.857421 1.18164,1.192383 2.84668,1.192383 1.66504,0 2.84131,-1.192383 1.18164,-1.192382 1.18164,-2.857421 z m -1.03125,2.363281 h -1.19776 l -1.77783,-1.906738 h -0.87012 v 1.906738 h -0.88623 v -4.914551 h 1.67578 q 0.50489,0 0.83252,0.04297 0.32764,0.04297 0.64453,0.209472 0.33838,0.182618 0.49415,0.445801 0.16113,0.257813 0.16113,0.649903 0,0.520996 -0.30615,0.870117 -0.30079,0.34375 -0.83252,0.547851 z m -1.89063,-3.507324 q 0,-0.19336 -0.0752,-0.34375 -0.0752,-0.150391 -0.25245,-0.247071 -0.1665,-0.09131 -0.35449,-0.118164 -0.18799,-0.02685 -0.47265,-0.02685 h -0.8003 v 1.659668 h 0.68213 q 0.33301,0 0.57471,-0.04834 0.2417,-0.05371 0.39746,-0.177246 0.1665,-0.134278 0.23096,-0.29541 0.0698,-0.161133 0.0698,-0.402832 z" />
  </g>
</svg>
