<?xml version="1.0" encoding="UTF-8" standalone="no"?>
<svg
   role="img"
   viewBox="-4.53 -4.53 248.82 41.82"
   version="1.1"
   id="svg4"
   xmlns:xlink="http://www.w3.org/1999/xlink"
   xmlns="http://www.w3.org/2000/svg"
   xmlns:svg="http://www.w3.org/2000/svg">
  <defs
     id="defs4" />
  <title
     id="title1">Broadcom Corporation logo</title>
  <path
     d="M237.32 9.09c-1.06 0-1.93-.86-1.93-1.92s.87-1.93 1.93-1.93 1.93.87 1.93 1.93-.87 1.92-1.93 1.92m0-4.32c-1.32 0-2.4 1.08-2.4 2.4 0 1.32 1.08 2.4 2.4 2.4 1.32 0 2.4-1.08 2.4-2.4 0-1.32-1.08-2.4-2.4-2.4"
     id="path1" />
  <path
     d="M237.48 7.07l-.51.01-.01-.62h.51c.19-.01.34.11.34.3.01.19-.14.31-.33.31m.83-.32c-.01-.42-.3-.72-.77-.72l-1.07.02.03 2.26h.49l-.01-.81h.35l.46.8.55-.01-.52-.86c.24-.06.49-.28.49-.68M51.8341 23.1805h-5.999V9.3465h5.835c1.574 0 2.557 1.016 2.557 2.393 0 1.377-.983 2.36-2.557 2.36H45v4h6.8341c1.836 0 2.819 1.18 2.819 2.556 0 1.574-1.049 2.525-2.819 2.525m3.376-7.245c2.066-.426 3.771-2.262 3.771-5.015 0-2.918-2.131-5.573-6.295-5.573h-11.506v21.865h11.867c4.163 0 6.359-2.623 6.359-5.901 0-2.754-1.868-5.015-4.196-5.376m17.8225-.5902H68v4.098h3.5576l4.294 7.769h5.343l-4.917-8.327c2.361-.557 4.786-2.622 4.786-6.49m0 0c0-4.065-2.786-7.048-7.343-7.048h-10.228v21.865h4.655V9.4453h4.885c1.869 0 3.278 1.114 3.278 2.95s-1.409 2.95-3.278 2.95m43.4206 4.0652l3.409-9.408 3.41 9.408zm.492-14.063l-8.458 21.865h5.31l1.377-3.704h9.376l1.344 3.704h5.311l-8.425-21.865zm26.9039 17.7671h-3.967v-13.67h3.967c4.491 0 6.851 2.983 6.851 6.852 0 3.704-2.524 6.818-6.851 6.818m0-17.767h-8.622v21.865h8.622c6.851 0 11.604-4.327 11.604-10.916s-4.753-10.949-11.604-10.949m82.1269-.0045l-5.734 9.27-5.734-9.27h-5.146v21.869h4.656v-14.293l5.012 7.622c.574.871 1.851.871 2.424 0l5.013-7.622v14.293h4.656V5.3431z"
     id="path2" />
  <path
     id="a"
     d="M95.8253 23.3441c-3.871 0-7.008-3.138-7.008-7.008 0-3.871 3.137-7.009 7.008-7.009 3.87 0 7.008 3.138 7.008 7.009 0 3.87-3.138 7.008-7.008 7.008m0-18.536c-6.367 0-11.528 5.161-11.528 11.528 0 6.366 5.161 11.527 11.528 11.527 6.366 0 11.528-5.161 11.528-11.527 0-6.367-5.162-11.528-11.528-11.528" />
  <path
     d="M176.4035 19.7269c-1.195 2.156-3.492 3.617-6.132 3.617-3.87 0-7.008-3.138-7.008-7.008 0-3.871 3.138-7.008 7.008-7.008 2.618 0 4.897 1.438 6.1 3.565l3.27-3.269c-2.092-2.915-5.508-4.816-9.37-4.816-6.367 0-11.527 5.161-11.527 11.528 0 6.366 5.16 11.528 11.527 11.528 3.883 0 7.316-1.922 9.404-4.865z"
     id="path3" />
  <use
     transform="translate(98.718)"
     xlink:href="#a"
     id="use3" />
  <ellipse
     cx="16.52"
     cy="16.497"
     fill="#cc092f"
     rx="16.236"
     ry="16.235"
     id="ellipse3" />
  <path
     fill="#fff"
     d="M30.8253 20.8832c-1.857-.74-3.557-.492-5.261.541 0 0-.621.379-.807.496-.794.498-1.543.97-2.263.97-.687 0-1.363-.184-1.649-1.513-.446-2.073-1.534-7.167-2.009-9.69-.279-1.483-.432-2.282-.591-2.825-.28-.954-.792-1.473-1.519-1.556 0 0-.114-.016-.207-.016-.092 0-.218.018-.218.018-.72.086-1.229.605-1.507 1.554-.159.543-.312 1.342-.591 2.825-.475 2.523-1.563 7.617-2.009 9.69-.286 1.329-.962 1.513-1.649 1.513-.72 0-1.469-.472-2.263-.97-.186-.117-.808-.496-.808-.496-1.703-1.033-3.404-1.281-5.26-.541-.401.16-.79596.33918-1.17196.52018.257.806.57693 1.59925.94993 2.34425.411-.202.84203-.40243 1.28203-.53243.634-.187 1.284-.197 1.914.014.612.205 1.157.568 1.7.909 1.023.643 2.182 1.372 3.657 1.372 2.186 0 3.72-1.305 4.21-3.581.38-1.764 1.222-5.702 1.763-8.418 0 0 1.386 6.654 1.765 8.418.49 2.276 2.025 3.581 4.211 3.581 1.475 0 2.634-.729 3.657-1.372.543-.341 1.088-.704 1.7-.909.629-.211 1.28-.201 1.914-.014.44.13.87039.33065 1.28139.53265.374-.745.69309-1.53862.95009-2.34462-.376-.181-.77048-.36003-1.17148-.52003"
     id="path4" />
  <path
     d="m 108.74594,49.472656 q -0.26855,0.117188 -0.48828,0.219727 -0.21484,0.102539 -0.56641,0.214844 -0.29785,0.09277 -0.64941,0.15625 -0.34668,0.06836 -0.7666,0.06836 -0.79102,0 -1.44043,-0.219727 -0.64453,-0.224609 -1.12305,-0.698242 -0.46875,-0.463867 -0.73242,-1.176758 -0.26367,-0.717773 -0.26367,-1.665039 0,-0.898437 0.2539,-1.606445 0.25391,-0.708008 0.73243,-1.196289 0.46386,-0.473633 1.11816,-0.722656 0.65918,-0.249024 1.45996,-0.249024 0.58594,0 1.16699,0.141602 0.58594,0.141601 1.29883,0.498047 v 1.147461 h -0.0732 q -0.60059,-0.50293 -1.19141,-0.732422 -0.59082,-0.229492 -1.26465,-0.229492 -0.55175,0 -0.99609,0.180664 -0.43945,0.175781 -0.78613,0.551757 -0.33692,0.366211 -0.52735,0.927735 -0.18554,0.55664 -0.18554,1.289062 0,0.766602 0.20508,1.31836 0.20996,0.551757 0.5371,0.898437 0.3418,0.361328 0.7959,0.53711 0.45899,0.170898 0.9668,0.170898 0.69824,0 1.30859,-0.239258 0.61036,-0.239258 1.14258,-0.717773 h 0.0684 z M 115.84555,50 h -1.03027 l -0.71289,-2.026367 h -3.14453 L 110.24496,50 h -0.98144 L 111.91,42.729492 h 1.28907 z m -2.04102,-2.856445 -1.27441,-3.569336 -1.2793,3.569336 z M 123.02817,50 h -2.8711 v -0.742188 h 0.95215 V 43.47168 h -0.95215 v -0.742188 h 2.8711 v 0.742188 h -0.95215 v 5.786132 h 0.95215 z m 7.78808,-3.62793 q 0,0.991211 -0.43457,1.796875 -0.42968,0.805664 -1.14746,1.25 -0.49804,0.307617 -1.11328,0.444336 Q 127.51059,50 126.50961,50 h -1.83593 v -7.270508 h 1.8164 q 1.06445,0 1.68945,0.15625 0.62989,0.151367 1.06446,0.419922 0.74219,0.463867 1.15722,1.235352 0.41504,0.771484 0.41504,1.831054 z m -1.01074,-0.01465 q 0,-0.854492 -0.29785,-1.44043 -0.29785,-0.585937 -0.88867,-0.922851 -0.42969,-0.244141 -0.91309,-0.336914 -0.4834,-0.09766 -1.15722,-0.09766 h -0.90821 v 5.610352 h 0.90821 q 0.69824,0 1.21582,-0.102539 0.52246,-0.102539 0.95703,-0.38086 0.54199,-0.346679 0.81054,-0.913086 0.27344,-0.566406 0.27344,-1.416015 z M 138.85336,50 h -0.96679 v -6.264648 l -2.02149,4.262695 h -0.57617 l -2.00684,-4.262695 V 50 h -0.90332 v -7.270508 h 1.31836 l 1.93848,4.047852 1.875,-4.047852 h 1.34277 z m 7.23633,-2.075195 q 0,0.424804 -0.20019,0.839843 -0.19532,0.415039 -0.55176,0.703125 -0.39063,0.3125 -0.91309,0.488282 -0.51758,0.175781 -1.25,0.175781 -0.78613,0 -1.41601,-0.146484 -0.625,-0.146485 -1.27442,-0.434571 v -1.210937 h 0.0684 q 0.55176,0.458984 1.27442,0.708008 0.72265,0.249023 1.35742,0.249023 0.89844,0 1.39648,-0.336914 0.50293,-0.336914 0.50293,-0.898438 0,-0.483398 -0.23926,-0.71289 -0.23437,-0.229492 -0.71777,-0.356446 -0.36621,-0.09766 -0.7959,-0.161132 -0.4248,-0.06348 -0.90332,-0.161133 -0.9668,-0.205078 -1.43555,-0.698242 -0.46386,-0.498047 -0.46386,-1.293946 0,-0.913086 0.77148,-1.49414 0.77149,-0.585938 1.95801,-0.585938 0.7666,0 1.40625,0.146485 0.63965,0.146484 1.13281,0.361328 v 1.142578 h -0.0684 q -0.41504,-0.351563 -1.09375,-0.581055 -0.67383,-0.234375 -1.38183,-0.234375 -0.77637,0 -1.25,0.322266 -0.46875,0.322265 -0.46875,0.830078 0,0.454101 0.23437,0.712891 0.23438,0.258789 0.8252,0.395507 0.3125,0.06836 0.88867,0.166016 0.57617,0.09766 0.97656,0.200195 0.81055,0.214844 1.2207,0.649414 0.41016,0.434571 0.41016,1.215821 z"
     id="text4"
     style="font-size:10px;text-anchor:middle"
     aria-label="CA IDMS" />
</svg>
