<?xml version="1.0" encoding="UTF-8" standalone="no"?>
<svg
   xmlns:dc="http://purl.org/dc/elements/1.1/"
   xmlns:cc="http://creativecommons.org/ns#"
   xmlns:rdf="http://www.w3.org/1999/02/22-rdf-syntax-ns#"
   xmlns:svg="http://www.w3.org/2000/svg"
   xmlns="http://www.w3.org/2000/svg"
   xmlns:xlink="http://www.w3.org/1999/xlink"
   id="svg2"
   height="70"
   width="240"
   version="1.1">
  <metadata
     id="metadata21">
    <rdf:RDF>
      <cc:Work
         rdf:about="">
        <dc:format>image/svg+xml</dc:format>
        <dc:type
           rdf:resource="http://purl.org/dc/dcmitype/StillImage" />
      </cc:Work>
    </rdf:RDF>
  </metadata>
  <defs
     id="defs19" />
  <path
     id="path4"
     d="m 237.32,9.09 c -1.06,0 -1.93,-0.86 -1.93,-1.92 0,-1.06 0.87,-1.93 1.93,-1.93 1.06,0 1.93,0.87 1.93,1.93 0,1.06 -0.87,1.92 -1.93,1.92 m 0,-4.32 c -1.32,0 -2.4,1.08 -2.4,2.4 0,1.32 1.08,2.4 2.4,2.4 1.32,0 2.4,-1.08 2.4,-2.4 0,-1.32 -1.08,-2.4 -2.4,-2.4" />
  <path
     id="path6"
     d="m 237.48,7.07 -0.51,0.01 -0.01,-0.62 h 0.51 c 0.19,-0.01 0.34,0.11 0.34,0.3 0.01,0.19 -0.14,0.31 -0.33,0.31 m 0.83,-0.32 c -0.01,-0.42 -0.3,-0.72 -0.77,-0.72 l -1.07,0.02 0.03,2.26 h 0.49 L 236.98,7.5 h 0.35 l 0.46,0.8 0.55,-0.01 -0.52,-0.86 c 0.24,-0.06 0.49,-0.28 0.49,-0.68" />
  <path
     id="path10"
     d="m 51.8341,23.1805 h -5.999 V 9.3465 h 5.835 c 1.574,0 2.557,1.016 2.557,2.393 0,1.377 -0.983,2.36 -2.557,2.36 H 45 v 4 h 6.8341 c 1.836,0 2.819,1.18 2.819,2.556 0,1.574 -1.049,2.525 -2.819,2.525 m 3.376,-7.245 c 2.066,-0.426 3.771,-2.262 3.771,-5.015 0,-2.918 -2.131,-5.573 -6.295,-5.573 h -11.506 v 21.865 h 11.867 c 4.163,0 6.359,-2.623 6.359,-5.901 0,-2.754 -1.868,-5.015 -4.196,-5.376" />
  <path
     id="path12"
     d="M 73.0326,15.3453 H 68 v 4.098 h 3.5576 l 4.294,7.769 h 5.343 l -4.917,-8.327 c 2.361,-0.557 4.786,-2.622 4.786,-6.49 m 0,0 c 0,-4.065 -2.786,-7.048 -7.343,-7.048 h -10.228 v 21.865 h 4.655 V 9.4453 h 4.885 c 1.869,0 3.278,1.114 3.278,2.95 0,1.836 -1.409,2.95 -3.278,2.95" />
  <path
     id="path14"
     d="m 116.4532,19.4105 3.409,-9.408 3.41,9.408 z m 0.492,-14.063 -8.458,21.865 h 5.31 l 1.377,-3.704 h 9.376 l 1.344,3.704 h 5.311 l -8.425,-21.865 z" />
  <path
     id="path16"
     d="m 143.8491,23.1146 h -3.967 v -13.67 h 3.967 c 4.491,0 6.851,2.983 6.851,6.852 0,3.704 -2.524,6.818 -6.851,6.818 m 0,-17.767 h -8.622 v 21.865 h 8.622 c 6.851,0 11.604,-4.327 11.604,-10.916 0,-6.589 -4.753,-10.949 -11.604,-10.949" />
  <path
     id="path18"
     d="m 225.976,5.3431 -5.734,9.27 -5.734,-9.27 h -5.146 v 21.869 h 4.656 v -14.293 l 5.012,7.622 c 0.574,0.871 1.851,0.871 2.424,0 l 5.013,-7.622 v 14.293 h 4.656 V 5.3431 Z" />
  <path
     id="path20"
     d="m 95.8253,23.3441 c -3.871,0 -7.008,-3.138 -7.008,-7.008 0,-3.871 3.137,-7.009 7.008,-7.009 3.87,0 7.008,3.138 7.008,7.009 0,3.87 -3.138,7.008 -7.008,7.008 m 0,-18.536 c -6.367,0 -11.528,5.161 -11.528,11.528 0,6.366 5.161,11.527 11.528,11.527 6.366,0 11.528,-5.161 11.528,-11.527 0,-6.367 -5.162,-11.528 -11.528,-11.528" />
  <path
     id="path22"
     d="m 176.4035,19.7269 c -1.195,2.156 -3.492,3.617 -6.132,3.617 -3.87,0 -7.008,-3.138 -7.008,-7.008 0,-3.871 3.138,-7.008 7.008,-7.008 2.618,0 4.897,1.438 6.1,3.565 l 3.27,-3.269 c -2.092,-2.915 -5.508,-4.816 -9.37,-4.816 -6.367,0 -11.527,5.161 -11.527,11.528 0,6.366 5.16,11.528 11.527,11.528 3.883,0 7.316,-1.922 9.404,-4.865 z" />
  <use
     id="use8"
     transform="translate(98.7182)"
     xlink:href="#path20" />
  <ellipse
     id="ellipse24"
     fill="#cc092f"
     ry="16.235352"
     rx="16.236328"
     cy="16.49707"
     cx="16.519531" />
  <path
     id="path26"
     fill="#ffffff"
     d="m 30.8253,20.8832 c -1.857,-0.74 -3.557,-0.492 -5.261,0.541 0,0 -0.621,0.379 -0.807,0.496 -0.794,0.498 -1.543,0.97 -2.263,0.97 -0.687,0 -1.363,-0.184 -1.649,-1.513 -0.446,-2.073 -1.534,-7.167 -2.009,-9.69 -0.279,-1.483 -0.432,-2.282 -0.591,-2.825 -0.28,-0.954 -0.792,-1.473 -1.519,-1.556 0,0 -0.114,-0.016 -0.207,-0.016 -0.092,0 -0.218,0.018 -0.218,0.018 -0.72,0.086 -1.229,0.605 -1.507,1.554 -0.159,0.543 -0.312,1.342 -0.591,2.825 -0.475,2.523 -1.563,7.617 -2.009,9.69 -0.286,1.329 -0.962,1.513 -1.649,1.513 -0.72,0 -1.469,-0.472 -2.263,-0.97 -0.186,-0.117 -0.808,-0.496 -0.808,-0.496 -1.703,-1.033 -3.404,-1.281 -5.26,-0.541 -0.401,0.16 -0.7959632,0.339183 -1.1719632,0.520183 0.257,0.806 0.5769317,1.59925 0.9499317,2.34425 0.411,-0.202 0.8420315,-0.402433 1.2820315,-0.532433 0.634,-0.187 1.284,-0.197 1.914,0.014 0.612,0.205 1.157,0.568 1.7,0.909 1.023,0.643 2.182,1.372 3.657,1.372 2.186,0 3.72,-1.305 4.21,-3.581 0.38,-1.764 1.222,-5.702 1.763,-8.418 0,0 1.386,6.654 1.765,8.418 0.49,2.276 2.025,3.581 4.211,3.581 1.475,0 2.634,-0.729 3.657,-1.372 0.543,-0.341 1.088,-0.704 1.7,-0.909 0.629,-0.211 1.28,-0.201 1.914,-0.014 0.44,0.13 0.870387,0.330647 1.281387,0.532647 0.374,-0.745 0.693089,-1.538621 0.950089,-2.344621 -0.376,-0.181 -0.770476,-0.360026 -1.171476,-0.520026" />
  <g
     id="text14"
     style="font-style:normal;font-variant:normal;font-weight:normal;font-stretch:normal;font-size:14px;line-height:normal;font-family:sans-serif;text-anchor:middle"
     aria-label="CA JCLCheck™ Workload Automation">
    <path
       id="path23"
       style="font-style:normal;font-variant:normal;font-weight:normal;font-stretch:normal;font-size:14px;line-height:normal;font-family:sans-serif;text-anchor:middle"
       d="m -0.23730469,40.580078 v 1.456055 q -0.69726562,-0.649414 -1.49023441,-0.970703 -0.7861328,-0.321289 -1.6748047,-0.321289 -1.7499999,0 -2.6796874,1.073242 -0.9296875,1.066406 -0.9296875,3.089844 0,2.016601 0.9296875,3.089843 0.9296875,1.066407 2.6796874,1.066407 0.8886719,0 1.6748047,-0.32129 0.79296879,-0.321289 1.49023441,-0.970703 v 1.442383 q -0.72460937,0.492188 -1.53808591,0.738281 -0.8066407,0.246094 -1.7089844,0.246094 -2.3173828,0 -3.6503906,-1.415039 -1.3330078,-1.421875 -1.3330078,-3.875976 0,-2.460938 1.3330078,-3.875977 1.3330078,-1.421875 3.6503906,-1.421875 0.9160156,0 1.7226563,0.246094 0.81347651,0.239258 1.52441401,0.724609 z" />
    <path
       id="path25"
       style="font-style:normal;font-variant:normal;font-weight:normal;font-stretch:normal;font-size:14px;line-height:normal;font-family:sans-serif;text-anchor:middle"
       d="M 5.3203125,41.154297 3.4472656,46.233398 H 7.2001953 Z M 4.5410156,39.793945 H 6.1064453 L 9.9960938,50 H 8.5605469 L 7.6308594,47.381836 H 3.0302734 L 2.1005859,50 H 0.64453125 Z" />
    <path
       id="path27"
       style="font-style:normal;font-variant:normal;font-weight:normal;font-stretch:normal;font-size:14px;line-height:normal;font-family:sans-serif;text-anchor:middle"
       d="m 15.936523,39.793945 h 1.38086 v 9.495117 q 0,1.845704 -0.704102,2.679688 -0.697265,0.833984 -2.249023,0.833984 h -0.526367 v -1.162109 h 0.430664 q 0.916015,0 1.291992,-0.512695 0.375976,-0.512696 0.375976,-1.838868 z" />
    <path
       id="path29"
       style="font-style:normal;font-variant:normal;font-weight:normal;font-stretch:normal;font-size:14px;line-height:normal;font-family:sans-serif;text-anchor:middle"
       d="m 27.708008,40.580078 v 1.456055 q -0.697266,-0.649414 -1.490235,-0.970703 -0.786132,-0.321289 -1.674804,-0.321289 -1.75,0 -2.679688,1.073242 -0.929687,1.066406 -0.929687,3.089844 0,2.016601 0.929687,3.089843 0.929688,1.066407 2.679688,1.066407 0.888672,0 1.674804,-0.32129 0.792969,-0.321289 1.490235,-0.970703 v 1.442383 q -0.72461,0.492188 -1.538086,0.738281 -0.806641,0.246094 -1.708985,0.246094 -2.317382,0 -3.65039,-1.415039 -1.333008,-1.421875 -1.333008,-3.875976 0,-2.460938 1.333008,-3.875977 1.333008,-1.421875 3.65039,-1.421875 0.916016,0 1.722657,0.246094 0.813476,0.239258 1.524414,0.724609 z" />
    <path
       id="path31"
       style="font-style:normal;font-variant:normal;font-weight:normal;font-stretch:normal;font-size:14px;line-height:normal;font-family:sans-serif;text-anchor:middle"
       d="m 29.854492,39.793945 h 1.38086 v 9.043946 h 4.969726 V 50 h -6.350586 z" />
    <path
       id="path33"
       style="font-style:normal;font-variant:normal;font-weight:normal;font-stretch:normal;font-size:14px;line-height:normal;font-family:sans-serif;text-anchor:middle"
       d="m 45.290039,40.580078 v 1.456055 Q 44.592773,41.386719 43.799805,41.06543 43.013672,40.744141 42.125,40.744141 q -1.75,0 -2.679688,1.073242 -0.929687,1.066406 -0.929687,3.089844 0,2.016601 0.929687,3.089843 0.929688,1.066407 2.679688,1.066407 0.888672,0 1.674805,-0.32129 0.792968,-0.321289 1.490234,-0.970703 v 1.442383 q -0.724609,0.492188 -1.538086,0.738281 -0.806641,0.246094 -1.708984,0.246094 -2.317383,0 -3.650391,-1.415039 -1.333008,-1.421875 -1.333008,-3.875976 0,-2.460938 1.333008,-3.875977 1.333008,-1.421875 3.650391,-1.421875 0.916015,0 1.722656,0.246094 0.813477,0.239258 1.524414,0.724609 z" />
    <path
       id="path35"
       style="font-style:normal;font-variant:normal;font-weight:normal;font-stretch:normal;font-size:14px;line-height:normal;font-family:sans-serif;text-anchor:middle"
       d="M 53.746094,45.378906 V 50 h -1.257813 v -4.580078 q 0,-1.086914 -0.423828,-1.626953 -0.423828,-0.540039 -1.271484,-0.540039 -1.018555,0 -1.606446,0.649414 -0.58789,0.649414 -0.58789,1.770508 V 50 H 47.333984 V 39.363281 h 1.264649 v 4.169922 q 0.451172,-0.69043 1.05957,-1.032226 0.615234,-0.341797 1.415039,-0.341797 1.319336,0 1.996094,0.820312 0.676758,0.813477 0.676758,2.399414 z" />
    <path
       id="path37"
       style="font-style:normal;font-variant:normal;font-weight:normal;font-stretch:normal;font-size:14px;line-height:normal;font-family:sans-serif;text-anchor:middle"
       d="m 62.817383,45.857422 v 0.615234 H 57.03418 q 0.08203,1.298828 0.779297,1.982422 0.704101,0.676758 1.955078,0.676758 0.724609,0 1.401367,-0.177734 0.683594,-0.177735 1.353515,-0.533204 v 1.189454 q -0.676757,0.287109 -1.387695,0.4375 -0.710937,0.15039 -1.442383,0.15039 -1.832031,0 -2.905273,-1.066406 -1.066406,-1.066406 -1.066406,-2.884766 0,-1.879883 1.011718,-2.980468 1.018555,-1.107422 2.741211,-1.107422 1.544922,0 2.44043,0.998047 0.902344,0.99121 0.902344,2.700195 z M 61.55957,45.488281 q -0.01367,-1.032226 -0.581054,-1.647461 -0.560547,-0.615234 -1.490235,-0.615234 -1.052734,0 -1.688476,0.594726 -0.628907,0.594727 -0.72461,1.674805 z" />
    <path
       id="path39"
       style="font-style:normal;font-variant:normal;font-weight:normal;font-stretch:normal;font-size:14px;line-height:normal;font-family:sans-serif;text-anchor:middle"
       d="m 70.391602,42.637695 v 1.175782 q -0.533204,-0.293946 -1.073243,-0.4375 -0.533203,-0.150391 -1.080078,-0.150391 -1.223633,0 -1.90039,0.779297 -0.676758,0.772461 -0.676758,2.173828 0,1.401367 0.676758,2.180664 0.676757,0.772461 1.90039,0.772461 0.546875,0 1.080078,-0.143555 0.540039,-0.15039 1.073243,-0.444336 v 1.16211 q -0.526368,0.246093 -1.09375,0.36914 -0.560547,0.123047 -1.19629,0.123047 -1.729492,0 -2.748046,-1.086914 -1.018555,-1.086914 -1.018555,-2.932617 0,-1.873047 1.025391,-2.946289 1.032226,-1.073242 2.823242,-1.073242 0.581054,0 1.134765,0.123047 0.553711,0.11621 1.073243,0.355468 z" />
    <path
       id="path41"
       style="font-style:normal;font-variant:normal;font-weight:normal;font-stretch:normal;font-size:14px;line-height:normal;font-family:sans-serif;text-anchor:middle"
       d="m 72.544922,39.363281 h 1.264648 v 6.282227 L 77.5625,42.34375 h 1.606445 L 75.108398,45.925781 79.339844,50 H 77.699219 L 73.80957,46.260742 V 50 h -1.264648 z" />
    <path
       id="path43"
       style="font-style:normal;font-variant:normal;font-weight:normal;font-stretch:normal;font-size:14px;line-height:normal;font-family:sans-serif;text-anchor:middle"
       d="m 86.900391,39.793945 1.189453,1.75 1.121093,-1.75 h 1.16211 v 3.951172 h -0.772461 v -3.308594 l -1.333008,2.071289 h -0.375976 l -1.387696,-2.071289 v 3.308594 h -0.779297 v -3.951172 z m -1.948243,0 v 0.642578 h -1.387695 v 3.308594 h -0.779297 v -3.308594 h -1.374023 v -0.642578 z" />
    <path
       id="path45"
       style="font-style:normal;font-variant:normal;font-weight:normal;font-stretch:normal;font-size:14px;line-height:normal;font-family:sans-serif;text-anchor:middle"
       d="m 98.316406,39.793945 h 1.394531 l 2.146483,8.626953 2.13965,-8.626953 h 1.55176 l 2.14648,8.626953 2.13965,-8.626953 h 1.40137 L 108.67285,50 h -1.73633 L 104.7832,41.140625 102.60938,50 h -1.73633 z" />
    <path
       id="path47"
       style="font-style:normal;font-variant:normal;font-weight:normal;font-stretch:normal;font-size:14px;line-height:normal;font-family:sans-serif;text-anchor:middle"
       d="m 115.15332,43.225586 q -1.01172,0 -1.59961,0.792969 -0.58789,0.786132 -0.58789,2.160156 0,1.374023 0.58106,2.166992 0.58789,0.786133 1.60644,0.786133 1.00488,0 1.59277,-0.792969 0.58789,-0.792969 0.58789,-2.160156 0,-1.360352 -0.58789,-2.15332 -0.58789,-0.799805 -1.59277,-0.799805 z m 0,-1.066406 q 1.64063,0 2.57715,1.066406 0.93652,1.066406 0.93652,2.953125 0,1.879883 -0.93652,2.953125 -0.93652,1.066406 -2.57715,1.066406 -1.64746,0 -2.58398,-1.066406 -0.92969,-1.073242 -0.92969,-2.953125 0,-1.886719 0.92969,-2.953125 0.93652,-1.066406 2.58398,-1.066406 z" />
    <path
       id="path49"
       style="font-style:normal;font-variant:normal;font-weight:normal;font-stretch:normal;font-size:14px;line-height:normal;font-family:sans-serif;text-anchor:middle"
       d="m 125.18164,43.519531 q -0.21191,-0.123047 -0.46484,-0.177734 -0.2461,-0.06152 -0.54688,-0.06152 -1.0664,0 -1.64062,0.697266 -0.56739,0.69043 -0.56739,1.989258 V 50 h -1.26464 v -7.65625 h 1.26464 v 1.189453 q 0.39649,-0.697266 1.03223,-1.032226 0.63574,-0.341797 1.54492,-0.341797 0.12989,0 0.28711,0.02051 0.15723,0.01367 0.34863,0.04785 z" />
    <path
       id="path51"
       style="font-style:normal;font-variant:normal;font-weight:normal;font-stretch:normal;font-size:14px;line-height:normal;font-family:sans-serif;text-anchor:middle"
       d="m 126.4668,39.363281 h 1.26465 v 6.282227 l 3.75292,-3.301758 h 1.60645 L 129.03027,45.925781 133.26172,50 h -1.64063 l -3.88964,-3.739258 V 50 h -1.26465 z" />
    <path
       id="path53"
       style="font-style:normal;font-variant:normal;font-weight:normal;font-stretch:normal;font-size:14px;line-height:normal;font-family:sans-serif;text-anchor:middle"
       d="m 134.63574,39.363281 h 1.25781 V 50 h -1.25781 z" />
    <path
       id="path55"
       style="font-style:normal;font-variant:normal;font-weight:normal;font-stretch:normal;font-size:14px;line-height:normal;font-family:sans-serif;text-anchor:middle"
       d="m 141.48535,43.225586 q -1.01172,0 -1.59961,0.792969 -0.58789,0.786132 -0.58789,2.160156 0,1.374023 0.58106,2.166992 0.58789,0.786133 1.60644,0.786133 1.00488,0 1.59277,-0.792969 0.5879,-0.792969 0.5879,-2.160156 0,-1.360352 -0.5879,-2.15332 -0.58789,-0.799805 -1.59277,-0.799805 z m 0,-1.066406 q 1.64063,0 2.57715,1.066406 0.93652,1.066406 0.93652,2.953125 0,1.879883 -0.93652,2.953125 -0.93652,1.066406 -2.57715,1.066406 -1.64746,0 -2.58398,-1.066406 -0.92969,-1.073242 -0.92969,-2.953125 0,-1.886719 0.92969,-2.953125 0.93652,-1.066406 2.58398,-1.066406 z" />
    <path
       id="path57"
       style="font-style:normal;font-variant:normal;font-weight:normal;font-stretch:normal;font-size:14px;line-height:normal;font-family:sans-serif;text-anchor:middle"
       d="m 150.55664,46.151367 q -1.52441,0 -2.1123,0.348633 -0.58789,0.348633 -0.58789,1.189453 0,0.669922 0.4375,1.066406 0.44433,0.389649 1.20312,0.389649 1.0459,0 1.6748,-0.738281 0.63575,-0.745118 0.63575,-1.975586 v -0.280274 z m 2.50879,-0.519531 V 50 h -1.25781 v -1.162109 q -0.43067,0.697265 -1.07325,1.032226 -0.64257,0.328125 -1.57226,0.328125 -1.17578,0 -1.87305,-0.65625 -0.69043,-0.663086 -0.69043,-1.770508 0,-1.291992 0.86133,-1.948242 0.86816,-0.65625 2.58399,-0.65625 h 1.76367 v -0.123047 q 0,-0.868164 -0.57422,-1.339843 -0.56738,-0.478516 -1.59961,-0.478516 -0.65625,0 -1.27832,0.157226 -0.62207,0.157227 -1.19629,0.47168 v -1.162109 q 0.69043,-0.266602 1.33984,-0.396485 0.64942,-0.136718 1.26465,-0.136718 1.66113,0 2.48145,0.861328 0.82031,0.861328 0.82031,2.611328 z" />
    <path
       id="path59"
       style="font-style:normal;font-variant:normal;font-weight:normal;font-stretch:normal;font-size:14px;line-height:normal;font-family:sans-serif;text-anchor:middle"
       d="m 160.70117,43.505859 v -4.142578 h 1.25781 V 50 h -1.25781 v -1.148438 q -0.39648,0.683594 -1.00488,1.018555 -0.60156,0.328125 -1.44922,0.328125 -1.3877,0 -2.2627,-1.107422 -0.86816,-1.107422 -0.86816,-2.912109 0,-1.804688 0.86816,-2.912109 0.875,-1.107422 2.2627,-1.107422 0.84766,0 1.44922,0.334961 0.6084,0.328125 1.00488,1.011718 z m -4.28613,2.672852 q 0,1.387695 0.56738,2.180664 0.57422,0.786133 1.57227,0.786133 0.99804,0 1.57226,-0.786133 0.57422,-0.792969 0.57422,-2.180664 0,-1.387695 -0.57422,-2.173828 -0.57422,-0.792969 -1.57226,-0.792969 -0.99805,0 -1.57227,0.792969 -0.56738,0.786133 -0.56738,2.173828 z" />
    <path
       id="path61"
       style="font-style:normal;font-variant:normal;font-weight:normal;font-stretch:normal;font-size:14px;line-height:normal;font-family:sans-serif;text-anchor:middle"
       d="m 172.47266,41.154297 -1.87305,5.079101 h 3.75293 z m -0.7793,-1.360352 h 1.56543 L 177.14844,50 h -1.43555 l -0.92969,-2.618164 h -4.60058 L 169.25293,50 h -1.45606 z" />
    <path
       id="path63"
       style="font-style:normal;font-variant:normal;font-weight:normal;font-stretch:normal;font-size:14px;line-height:normal;font-family:sans-serif;text-anchor:middle"
       d="M 178.44727,46.978516 V 42.34375 h 1.25781 v 4.586914 q 0,1.086914 0.42383,1.633789 0.42382,0.540039 1.27148,0.540039 1.01856,0 1.60645,-0.649414 0.59472,-0.649414 0.59472,-1.770508 v -4.34082 h 1.25781 V 50 h -1.25781 v -1.175781 q -0.45801,0.697265 -1.0664,1.039062 -0.60157,0.334961 -1.40137,0.334961 -1.31934,0 -2.00293,-0.820312 -0.68359,-0.820313 -0.68359,-2.399414 z m 3.16503,-4.819336 z" />
    <path
       id="path65"
       style="font-style:normal;font-variant:normal;font-weight:normal;font-stretch:normal;font-size:14px;line-height:normal;font-family:sans-serif;text-anchor:middle"
       d="m 188.70801,40.169922 v 2.173828 h 2.59082 v 0.977539 h -2.59082 v 4.15625 q 0,0.936523 0.25293,1.203125 0.25976,0.266602 1.0459,0.266602 h 1.29199 V 50 h -1.29199 q -1.45606,0 -2.00977,-0.540039 -0.55371,-0.546875 -0.55371,-1.982422 v -4.15625 h -0.92285 V 42.34375 h 0.92285 v -2.173828 z" />
    <path
       id="path67"
       style="font-style:normal;font-variant:normal;font-weight:normal;font-stretch:normal;font-size:14px;line-height:normal;font-family:sans-serif;text-anchor:middle"
       d="m 195.92676,43.225586 q -1.01172,0 -1.59961,0.792969 -0.58789,0.786132 -0.58789,2.160156 0,1.374023 0.58105,2.166992 0.58789,0.786133 1.60645,0.786133 1.00488,0 1.59277,-0.792969 0.58789,-0.792969 0.58789,-2.160156 0,-1.360352 -0.58789,-2.15332 -0.58789,-0.799805 -1.59277,-0.799805 z m 0,-1.066406 q 1.64062,0 2.57715,1.066406 0.93652,1.066406 0.93652,2.953125 0,1.879883 -0.93652,2.953125 -0.93653,1.066406 -2.57715,1.066406 -1.64746,0 -2.58399,-1.066406 -0.92968,-1.073242 -0.92968,-2.953125 0,-1.886719 0.92968,-2.953125 0.93653,-1.066406 2.58399,-1.066406 z" />
    <path
       id="path69"
       style="font-style:normal;font-variant:normal;font-weight:normal;font-stretch:normal;font-size:14px;line-height:normal;font-family:sans-serif;text-anchor:middle"
       d="m 207.47949,43.813477 q 0.47168,-0.847657 1.12793,-1.250977 0.65625,-0.40332 1.54492,-0.40332 1.19629,0 1.84571,0.84082 0.64941,0.833984 0.64941,2.378906 V 50 h -1.26465 v -4.580078 q 0,-1.100586 -0.38965,-1.633789 -0.38964,-0.533203 -1.18945,-0.533203 -0.97754,0 -1.54492,0.649414 -0.56738,0.649414 -0.56738,1.770508 V 50 h -1.26465 v -4.580078 q 0,-1.107422 -0.38965,-1.633789 -0.38965,-0.533203 -1.20313,-0.533203 -0.96386,0 -1.53125,0.65625 -0.56738,0.649414 -0.56738,1.763672 V 50 h -1.26465 v -7.65625 h 1.26465 v 1.189453 q 0.43067,-0.704101 1.03223,-1.039062 0.60156,-0.334961 1.42871,-0.334961 0.83398,0 1.41504,0.423828 0.58789,0.423828 0.86816,1.230469 z" />
    <path
       id="path71"
       style="font-style:normal;font-variant:normal;font-weight:normal;font-stretch:normal;font-size:14px;line-height:normal;font-family:sans-serif;text-anchor:middle"
       d="m 218.64258,46.151367 q -1.52442,0 -2.11231,0.348633 -0.58789,0.348633 -0.58789,1.189453 0,0.669922 0.4375,1.066406 0.44434,0.389649 1.20313,0.389649 1.0459,0 1.6748,-0.738281 0.63574,-0.745118 0.63574,-1.975586 v -0.280274 z m 2.50879,-0.519531 V 50 h -1.25782 v -1.162109 q -0.43066,0.697265 -1.07324,1.032226 -0.64258,0.328125 -1.57226,0.328125 -1.17578,0 -1.87305,-0.65625 -0.69043,-0.663086 -0.69043,-1.770508 0,-1.291992 0.86133,-1.948242 0.86816,-0.65625 2.58398,-0.65625 h 1.76367 v -0.123047 q 0,-0.868164 -0.57421,-1.339843 -0.56739,-0.478516 -1.59961,-0.478516 -0.65625,0 -1.27832,0.157226 -0.62207,0.157227 -1.19629,0.47168 v -1.162109 q 0.69043,-0.266602 1.33984,-0.396485 0.64941,-0.136718 1.26465,-0.136718 1.66113,0 2.48144,0.861328 0.82032,0.861328 0.82032,2.611328 z" />
    <path
       id="path73"
       style="font-style:normal;font-variant:normal;font-weight:normal;font-stretch:normal;font-size:14px;line-height:normal;font-family:sans-serif;text-anchor:middle"
       d="m 224.99316,40.169922 v 2.173828 h 2.59082 v 0.977539 h -2.59082 v 4.15625 q 0,0.936523 0.25293,1.203125 0.25977,0.266602 1.0459,0.266602 h 1.29199 V 50 h -1.29199 q -1.45605,0 -2.00976,-0.540039 -0.55371,-0.546875 -0.55371,-1.982422 v -4.15625 h -0.92286 V 42.34375 h 0.92286 v -2.173828 z" />
    <path
       id="path75"
       style="font-style:normal;font-variant:normal;font-weight:normal;font-stretch:normal;font-size:14px;line-height:normal;font-family:sans-serif;text-anchor:middle"
       d="m 229.24512,42.34375 h 1.25781 V 50 h -1.25781 z m 0,-2.980469 h 1.25781 v 1.592774 h -1.25781 z" />
    <path
       id="path77"
       style="font-style:normal;font-variant:normal;font-weight:normal;font-stretch:normal;font-size:14px;line-height:normal;font-family:sans-serif;text-anchor:middle"
       d="m 236.09473,43.225586 q -1.01172,0 -1.59961,0.792969 -0.58789,0.786132 -0.58789,2.160156 0,1.374023 0.58105,2.166992 0.58789,0.786133 1.60645,0.786133 1.00488,0 1.59277,-0.792969 0.58789,-0.792969 0.58789,-2.160156 0,-1.360352 -0.58789,-2.15332 -0.58789,-0.799805 -1.59277,-0.799805 z m 0,-1.066406 q 1.64062,0 2.57714,1.066406 0.93653,1.066406 0.93653,2.953125 0,1.879883 -0.93653,2.953125 -0.93652,1.066406 -2.57714,1.066406 -1.64746,0 -2.58399,-1.066406 -0.92969,-1.073242 -0.92969,-2.953125 0,-1.886719 0.92969,-2.953125 0.93653,-1.066406 2.58399,-1.066406 z" />
    <path
       id="path79"
       style="font-style:normal;font-variant:normal;font-weight:normal;font-stretch:normal;font-size:14px;line-height:normal;font-family:sans-serif;text-anchor:middle"
       d="M 248.05078,45.378906 V 50 h -1.25781 v -4.580078 q 0,-1.086914 -0.42383,-1.626953 -0.42383,-0.540039 -1.27148,-0.540039 -1.01856,0 -1.60645,0.649414 -0.58789,0.649414 -0.58789,1.770508 V 50 h -1.26465 v -7.65625 h 1.26465 v 1.189453 q 0.45117,-0.69043 1.05957,-1.032226 0.61523,-0.341797 1.41504,-0.341797 1.31934,0 1.99609,0.820312 0.67676,0.813477 0.67676,2.399414 z" />
  </g>
</svg>
