<?xml version="1.0" encoding="UTF-8" standalone="no"?>
<svg
   role="img"
   viewBox="-4.53 -4.53 248.82 41.82"
   version="1.1"
   id="svg19"
   xmlns:xlink="http://www.w3.org/1999/xlink"
   xmlns="http://www.w3.org/2000/svg"
   xmlns:svg="http://www.w3.org/2000/svg">
  <defs
     id="defs23" />
  <title
     id="title2">Broadcom Corporation logo</title>
  <path
     d="M237.32 9.09c-1.06 0-1.93-.86-1.93-1.92s.87-1.93 1.93-1.93 1.93.87 1.93 1.93-.87 1.92-1.93 1.92m0-4.32c-1.32 0-2.4 1.08-2.4 2.4 0 1.32 1.08 2.4 2.4 2.4 1.32 0 2.4-1.08 2.4-2.4 0-1.32-1.08-2.4-2.4-2.4"
     id="path4" />
  <path
     d="M237.48 7.07l-.51.01-.01-.62h.51c.19-.01.34.11.34.3.01.19-.14.31-.33.31m.83-.32c-.01-.42-.3-.72-.77-.72l-1.07.02.03 2.26h.49l-.01-.81h.35l.46.8.55-.01-.52-.86c.24-.06.49-.28.49-.68M51.8341 23.1805h-5.999V9.3465h5.835c1.574 0 2.557 1.016 2.557 2.393 0 1.377-.983 2.36-2.557 2.36H45v4h6.8341c1.836 0 2.819 1.18 2.819 2.556 0 1.574-1.049 2.525-2.819 2.525m3.376-7.245c2.066-.426 3.771-2.262 3.771-5.015 0-2.918-2.131-5.573-6.295-5.573h-11.506v21.865h11.867c4.163 0 6.359-2.623 6.359-5.901 0-2.754-1.868-5.015-4.196-5.376m17.8225-.5902H68v4.098h3.5576l4.294 7.769h5.343l-4.917-8.327c2.361-.557 4.786-2.622 4.786-6.49m0 0c0-4.065-2.786-7.048-7.343-7.048h-10.228v21.865h4.655V9.4453h4.885c1.869 0 3.278 1.114 3.278 2.95s-1.409 2.95-3.278 2.95m43.4206 4.0652l3.409-9.408 3.41 9.408zm.492-14.063l-8.458 21.865h5.31l1.377-3.704h9.376l1.344 3.704h5.311l-8.425-21.865zm26.9039 17.7671h-3.967v-13.67h3.967c4.491 0 6.851 2.983 6.851 6.852 0 3.704-2.524 6.818-6.851 6.818m0-17.767h-8.622v21.865h8.622c6.851 0 11.604-4.327 11.604-10.916s-4.753-10.949-11.604-10.949m82.1269-.0045l-5.734 9.27-5.734-9.27h-5.146v21.869h4.656v-14.293l5.012 7.622c.574.871 1.851.871 2.424 0l5.013-7.622v14.293h4.656V5.3431z"
     id="path6" />
  <path
     id="a"
     d="M95.8253 23.3441c-3.871 0-7.008-3.138-7.008-7.008 0-3.871 3.137-7.009 7.008-7.009 3.87 0 7.008 3.138 7.008 7.009 0 3.87-3.138 7.008-7.008 7.008m0-18.536c-6.367 0-11.528 5.161-11.528 11.528 0 6.366 5.161 11.527 11.528 11.527 6.366 0 11.528-5.161 11.528-11.527 0-6.367-5.162-11.528-11.528-11.528" />
  <path
     d="M176.4035 19.7269c-1.195 2.156-3.492 3.617-6.132 3.617-3.87 0-7.008-3.138-7.008-7.008 0-3.871 3.138-7.008 7.008-7.008 2.618 0 4.897 1.438 6.1 3.565l3.27-3.269c-2.092-2.915-5.508-4.816-9.37-4.816-6.367 0-11.527 5.161-11.527 11.528 0 6.366 5.16 11.528 11.527 11.528 3.883 0 7.316-1.922 9.404-4.865z"
     id="path9" />
  <use
     transform="translate(98.718)"
     xlink:href="#a"
     id="use11" />
  <ellipse
     cx="16.52"
     cy="16.497"
     fill="#cc092f"
     rx="16.236"
     ry="16.235"
     id="ellipse13" />
  <path
     fill="#fff"
     d="M30.8253 20.8832c-1.857-.74-3.557-.492-5.261.541 0 0-.621.379-.807.496-.794.498-1.543.97-2.263.97-.687 0-1.363-.184-1.649-1.513-.446-2.073-1.534-7.167-2.009-9.69-.279-1.483-.432-2.282-.591-2.825-.28-.954-.792-1.473-1.519-1.556 0 0-.114-.016-.207-.016-.092 0-.218.018-.218.018-.72.086-1.229.605-1.507 1.554-.159.543-.312 1.342-.591 2.825-.475 2.523-1.563 7.617-2.009 9.69-.286 1.329-.962 1.513-1.649 1.513-.72 0-1.469-.472-2.263-.97-.186-.117-.808-.496-.808-.496-1.703-1.033-3.404-1.281-5.26-.541-.401.16-.79596.33918-1.17196.52018.257.806.57693 1.59925.94993 2.34425.411-.202.84203-.40243 1.28203-.53243.634-.187 1.284-.197 1.914.014.612.205 1.157.568 1.7.909 1.023.643 2.182 1.372 3.657 1.372 2.186 0 3.72-1.305 4.21-3.581.38-1.764 1.222-5.702 1.763-8.418 0 0 1.386 6.654 1.765 8.418.49 2.276 2.025 3.581 4.211 3.581 1.475 0 2.634-.729 3.657-1.372.543-.341 1.088-.704 1.7-.909.629-.211 1.28-.201 1.914-.014.44.13.87039.33065 1.28139.53265.374-.745.69309-1.53862.95009-2.34462-.376-.181-.77048-.36003-1.17148-.52003"
     id="path15" />
  <g
     aria-label="CA MAT"
     id="text17"
     style="font-size:11px;text-anchor:middle">
    <path
       d="m 110.66537,49.419922 q -0.29541,0.128906 -0.5371,0.241699 -0.23633,0.112793 -0.62305,0.236328 -0.32764,0.102051 -0.71436,0.171875 -0.38134,0.0752 -0.84326,0.0752 -0.87012,0 -1.58447,-0.2417 -0.70899,-0.24707 -1.23535,-0.768066 -0.51563,-0.510254 -0.80567,-1.294434 -0.29004,-0.78955 -0.29004,-1.831543 0,-0.988281 0.2793,-1.76709 0.2793,-0.778808 0.80566,-1.315917 0.51026,-0.520997 1.22999,-0.794922 0.72509,-0.273926 1.60595,-0.273926 0.64453,0 1.28369,0.155762 0.64454,0.155761 1.42871,0.547851 v 1.262207 h -0.0806 q -0.66065,-0.553222 -1.31055,-0.805664 -0.6499,-0.252441 -1.39111,-0.252441 -0.60694,0 -1.0957,0.19873 -0.4834,0.19336 -0.86475,0.606934 -0.37061,0.402832 -0.58008,1.020508 -0.2041,0.612304 -0.2041,1.417968 0,0.843262 0.22559,1.450196 0.23095,0.606933 0.59082,0.988281 0.37597,0.397461 0.87548,0.59082 0.50489,0.187988 1.06348,0.187988 0.76807,0 1.43945,-0.263183 0.67139,-0.263184 1.25684,-0.789551 h 0.0752 z"
       id="path25" />
    <path
       d="m 118.47495,50 h -1.13331 l -0.78418,-2.229004 h -3.45898 L 112.3143,50 h -1.07959 l 2.91113,-7.997559 h 1.41797 z m -2.24512,-3.14209 -1.40186,-3.926269 -1.40722,3.926269 z"
       id="path27" />
    <path
       d="m 130.67807,50 h -1.06348 v -6.891113 l -2.22363,4.688965 h -0.63379 l -2.20752,-4.688965 V 50 H 123.556 v -7.997559 h 1.4502 l 2.13232,4.452637 2.0625,-4.452637 h 1.47705 z"
       id="path29" />
    <path
       d="m 139.13217,50 h -1.1333 l -0.78418,-2.229004 h -3.45898 L 132.97153,50 h -1.07959 l 2.91113,-7.997559 h 1.41797 z m -2.24512,-3.14209 -1.40185,-3.926269 -1.40723,3.926269 z"
       id="path31" />
    <path
       d="m 145.40561,42.947754 h -2.85742 V 50 h -1.06348 v -7.052246 h -2.85742 v -0.945313 h 6.77832 z"
       id="path33" />
  </g>
</svg>
