<?xml version="1.0" encoding="UTF-8" standalone="no"?>
<svg
   xmlns:dc="http://purl.org/dc/elements/1.1/"
   xmlns:cc="http://creativecommons.org/ns#"
   xmlns:rdf="http://www.w3.org/1999/02/22-rdf-syntax-ns#"
   xmlns:svg="http://www.w3.org/2000/svg"
   xmlns="http://www.w3.org/2000/svg"
   xmlns:xlink="http://www.w3.org/1999/xlink"
   id="svg2"
   height="70"
   width="240"
   version="1.1">
  <metadata
     id="metadata21">
    <rdf:RDF>
      <cc:Work
         rdf:about="">
        <dc:format>image/svg+xml</dc:format>
        <dc:type
           rdf:resource="http://purl.org/dc/dcmitype/StillImage" />
      </cc:Work>
    </rdf:RDF>
  </metadata>
  <defs
     id="defs19" />
  <path
     id="path4"
     d="m 237.32,9.09 c -1.06,0 -1.93,-0.86 -1.93,-1.92 0,-1.06 0.87,-1.93 1.93,-1.93 1.06,0 1.93,0.87 1.93,1.93 0,1.06 -0.87,1.92 -1.93,1.92 m 0,-4.32 c -1.32,0 -2.4,1.08 -2.4,2.4 0,1.32 1.08,2.4 2.4,2.4 1.32,0 2.4,-1.08 2.4,-2.4 0,-1.32 -1.08,-2.4 -2.4,-2.4" />
  <path
     id="path6"
     d="m 237.48,7.07 -0.51,0.01 -0.01,-0.62 h 0.51 c 0.19,-0.01 0.34,0.11 0.34,0.3 0.01,0.19 -0.14,0.31 -0.33,0.31 m 0.83,-0.32 c -0.01,-0.42 -0.3,-0.72 -0.77,-0.72 l -1.07,0.02 0.03,2.26 h 0.49 L 236.98,7.5 h 0.35 l 0.46,0.8 0.55,-0.01 -0.52,-0.86 c 0.24,-0.06 0.49,-0.28 0.49,-0.68" />
  <path
     id="path10"
     d="m 51.8341,23.1805 h -5.999 V 9.3465 h 5.835 c 1.574,0 2.557,1.016 2.557,2.393 0,1.377 -0.983,2.36 -2.557,2.36 H 45 v 4 h 6.8341 c 1.836,0 2.819,1.18 2.819,2.556 0,1.574 -1.049,2.525 -2.819,2.525 m 3.376,-7.245 c 2.066,-0.426 3.771,-2.262 3.771,-5.015 0,-2.918 -2.131,-5.573 -6.295,-5.573 h -11.506 v 21.865 h 11.867 c 4.163,0 6.359,-2.623 6.359,-5.901 0,-2.754 -1.868,-5.015 -4.196,-5.376" />
  <path
     id="path12"
     d="M 73.0326,15.3453 H 68 v 4.098 h 3.5576 l 4.294,7.769 h 5.343 l -4.917,-8.327 c 2.361,-0.557 4.786,-2.622 4.786,-6.49 m 0,0 c 0,-4.065 -2.786,-7.048 -7.343,-7.048 h -10.228 v 21.865 h 4.655 V 9.4453 h 4.885 c 1.869,0 3.278,1.114 3.278,2.95 0,1.836 -1.409,2.95 -3.278,2.95" />
  <path
     id="path14"
     d="m 116.4532,19.4105 3.409,-9.408 3.41,9.408 z m 0.492,-14.063 -8.458,21.865 h 5.31 l 1.377,-3.704 h 9.376 l 1.344,3.704 h 5.311 l -8.425,-21.865 z" />
  <path
     id="path16"
     d="m 143.8491,23.1146 h -3.967 v -13.67 h 3.967 c 4.491,0 6.851,2.983 6.851,6.852 0,3.704 -2.524,6.818 -6.851,6.818 m 0,-17.767 h -8.622 v 21.865 h 8.622 c 6.851,0 11.604,-4.327 11.604,-10.916 0,-6.589 -4.753,-10.949 -11.604,-10.949" />
  <path
     id="path18"
     d="m 225.976,5.3431 -5.734,9.27 -5.734,-9.27 h -5.146 v 21.869 h 4.656 v -14.293 l 5.012,7.622 c 0.574,0.871 1.851,0.871 2.424,0 l 5.013,-7.622 v 14.293 h 4.656 V 5.3431 Z" />
  <path
     id="path20"
     d="m 95.8253,23.3441 c -3.871,0 -7.008,-3.138 -7.008,-7.008 0,-3.871 3.137,-7.009 7.008,-7.009 3.87,0 7.008,3.138 7.008,7.009 0,3.87 -3.138,7.008 -7.008,7.008 m 0,-18.536 c -6.367,0 -11.528,5.161 -11.528,11.528 0,6.366 5.161,11.527 11.528,11.527 6.366,0 11.528,-5.161 11.528,-11.527 0,-6.367 -5.162,-11.528 -11.528,-11.528" />
  <path
     id="path22"
     d="m 176.4035,19.7269 c -1.195,2.156 -3.492,3.617 -6.132,3.617 -3.87,0 -7.008,-3.138 -7.008,-7.008 0,-3.871 3.138,-7.008 7.008,-7.008 2.618,0 4.897,1.438 6.1,3.565 l 3.27,-3.269 c -2.092,-2.915 -5.508,-4.816 -9.37,-4.816 -6.367,0 -11.527,5.161 -11.527,11.528 0,6.366 5.16,11.528 11.527,11.528 3.883,0 7.316,-1.922 9.404,-4.865 z" />
  <use
     id="use8"
     transform="translate(98.7182)"
     xlink:href="#path20" />
  <ellipse
     id="ellipse24"
     fill="#cc092f"
     ry="16.235352"
     rx="16.236328"
     cy="16.49707"
     cx="16.519531" />
  <path
     id="path26"
     fill="#ffffff"
     d="m 30.8253,20.8832 c -1.857,-0.74 -3.557,-0.492 -5.261,0.541 0,0 -0.621,0.379 -0.807,0.496 -0.794,0.498 -1.543,0.97 -2.263,0.97 -0.687,0 -1.363,-0.184 -1.649,-1.513 -0.446,-2.073 -1.534,-7.167 -2.009,-9.69 -0.279,-1.483 -0.432,-2.282 -0.591,-2.825 -0.28,-0.954 -0.792,-1.473 -1.519,-1.556 0,0 -0.114,-0.016 -0.207,-0.016 -0.092,0 -0.218,0.018 -0.218,0.018 -0.72,0.086 -1.229,0.605 -1.507,1.554 -0.159,0.543 -0.312,1.342 -0.591,2.825 -0.475,2.523 -1.563,7.617 -2.009,9.69 -0.286,1.329 -0.962,1.513 -1.649,1.513 -0.72,0 -1.469,-0.472 -2.263,-0.97 -0.186,-0.117 -0.808,-0.496 -0.808,-0.496 -1.703,-1.033 -3.404,-1.281 -5.26,-0.541 -0.401,0.16 -0.7959632,0.339183 -1.1719632,0.520183 0.257,0.806 0.5769317,1.59925 0.9499317,2.34425 0.411,-0.202 0.8420315,-0.402433 1.2820315,-0.532433 0.634,-0.187 1.284,-0.197 1.914,0.014 0.612,0.205 1.157,0.568 1.7,0.909 1.023,0.643 2.182,1.372 3.657,1.372 2.186,0 3.72,-1.305 4.21,-3.581 0.38,-1.764 1.222,-5.702 1.763,-8.418 0,0 1.386,6.654 1.765,8.418 0.49,2.276 2.025,3.581 4.211,3.581 1.475,0 2.634,-0.729 3.657,-1.372 0.543,-0.341 1.088,-0.704 1.7,-0.909 0.629,-0.211 1.28,-0.201 1.914,-0.014 0.44,0.13 0.870387,0.330647 1.281387,0.532647 0.374,-0.745 0.693089,-1.538621 0.950089,-2.344621 -0.376,-0.181 -0.770476,-0.360026 -1.171476,-0.520026" />
  <g
     id="text14"
     style="font-style:normal;font-variant:normal;font-weight:normal;font-stretch:normal;font-size:14px;line-height:normal;font-family:sans-serif;text-anchor:middle"
     aria-label="CA OPS/MVS®">
    <path
       id="path23"
       style="font-style:normal;font-variant:normal;font-weight:normal;font-stretch:normal;font-size:14px;line-height:normal;font-family:sans-serif;text-anchor:middle"
       d="m 78.293945,40.580078 v 1.456055 q -0.697265,-0.649414 -1.490234,-0.970703 -0.786133,-0.321289 -1.674805,-0.321289 -1.75,0 -2.679687,1.073242 -0.929688,1.066406 -0.929688,3.089844 0,2.016601 0.929688,3.089843 0.929687,1.066407 2.679687,1.066407 0.888672,0 1.674805,-0.32129 0.792969,-0.321289 1.490234,-0.970703 v 1.442383 q -0.724609,0.492188 -1.538086,0.738281 -0.80664,0.246094 -1.708984,0.246094 -2.317383,0 -3.650391,-1.415039 -1.333007,-1.421875 -1.333007,-3.875976 0,-2.460938 1.333007,-3.875977 1.333008,-1.421875 3.650391,-1.421875 0.916016,0 1.722656,0.246094 0.813477,0.239258 1.524414,0.724609 z" />
    <path
       id="path25"
       style="font-style:normal;font-variant:normal;font-weight:normal;font-stretch:normal;font-size:14px;line-height:normal;font-family:sans-serif;text-anchor:middle"
       d="m 83.851562,41.154297 -1.873046,5.079101 h 3.752929 z m -0.779296,-1.360352 h 1.565429 L 88.527344,50 H 87.091797 L 86.162109,47.381836 H 81.561523 L 80.631836,50 h -1.456055 z" />
    <path
       id="path27"
       style="font-style:normal;font-variant:normal;font-weight:normal;font-stretch:normal;font-size:14px;line-height:normal;font-family:sans-serif;text-anchor:middle"
       d="m 98.610352,40.730469 q -1.503907,0 -2.392579,1.121093 -0.881836,1.121094 -0.881836,3.055665 0,1.927734 0.881836,3.048828 0.888672,1.121093 2.392579,1.121093 1.503908,0 2.378908,-1.121093 0.88183,-1.121094 0.88183,-3.048828 0,-1.934571 -0.88183,-3.055665 -0.875,-1.121093 -2.378908,-1.121093 z m 0,-1.121094 q 2.146488,0 3.431638,1.442383 1.28516,1.435547 1.28516,3.855469 0,2.413085 -1.28516,3.855468 -1.28515,1.435547 -3.431638,1.435547 -2.153321,0 -3.445313,-1.435547 -1.285156,-1.435547 -1.285156,-3.855468 0,-2.419922 1.285156,-3.855469 1.291992,-1.442383 3.445313,-1.442383 z" />
    <path
       id="path29"
       style="font-style:normal;font-variant:normal;font-weight:normal;font-stretch:normal;font-size:14px;line-height:normal;font-family:sans-serif;text-anchor:middle"
       d="m 106.86816,40.928711 v 3.834961 h 1.73633 q 0.96387,0 1.49024,-0.499024 0.52636,-0.499023 0.52636,-1.421875 0,-0.916015 -0.52636,-1.415039 -0.52637,-0.499023 -1.49024,-0.499023 z m -1.38086,-1.134766 h 3.11719 q 1.71582,0 2.59082,0.779297 0.88184,0.772461 0.88184,2.269531 0,1.510743 -0.88184,2.283204 -0.875,0.77246 -2.59082,0.77246 h -1.73633 V 50 h -1.38086 z" />
    <path
       id="path31"
       style="font-style:normal;font-variant:normal;font-weight:normal;font-stretch:normal;font-size:14px;line-height:normal;font-family:sans-serif;text-anchor:middle"
       d="m 120.05469,40.128906 v 1.34668 q -0.78614,-0.375977 -1.4834,-0.560547 -0.69727,-0.18457 -1.34668,-0.18457 -1.12793,0 -1.74316,0.4375 -0.6084,0.4375 -0.6084,1.24414 0,0.676758 0.40332,1.025391 0.41015,0.341797 1.54492,0.553711 l 0.83398,0.170898 q 1.54493,0.293946 2.27637,1.039063 0.73828,0.738281 0.73828,1.982422 0,1.483398 -0.99804,2.249023 -0.99122,0.765625 -2.91211,0.765625 -0.72461,0 -1.54493,-0.164062 -0.81347,-0.164063 -1.68847,-0.485352 v -1.421875 q 0.84082,0.47168 1.64746,0.710938 0.80664,0.239257 1.58594,0.239257 1.18261,0 1.82519,-0.464843 0.64258,-0.464844 0.64258,-1.326172 0,-0.751953 -0.46484,-1.175781 -0.45801,-0.423829 -1.51075,-0.635743 l -0.84082,-0.164062 q -1.54492,-0.307617 -2.23535,-0.963867 -0.69043,-0.65625 -0.69043,-1.825196 0,-1.353515 0.9502,-2.132812 0.95703,-0.779297 2.63183,-0.779297 0.71778,0 1.46289,0.129883 0.74512,0.129883 1.52442,0.389648 z" />
    <path
       id="path33"
       style="font-style:normal;font-variant:normal;font-weight:normal;font-stretch:normal;font-size:14px;line-height:normal;font-family:sans-serif;text-anchor:middle"
       d="m 125.00391,39.793945 h 1.16211 l -3.55469,11.504883 h -1.16211 z" />
    <path
       id="path35"
       style="font-style:normal;font-variant:normal;font-weight:normal;font-stretch:normal;font-size:14px;line-height:normal;font-family:sans-serif;text-anchor:middle"
       d="m 127.55371,39.793945 h 2.05762 l 2.60449,6.945313 2.61816,-6.945313 h 2.05762 V 50 h -1.34668 v -8.961914 l -2.63183,7 h -1.3877 l -2.63184,-7 V 50 h -1.33984 z" />
    <path
       id="path37"
       style="font-style:normal;font-variant:normal;font-weight:normal;font-stretch:normal;font-size:14px;line-height:normal;font-family:sans-serif;text-anchor:middle"
       d="M 142.27148,50 138.375,39.793945 h 1.44238 l 3.2334,8.592774 3.24024,-8.592774 h 1.43554 L 143.83691,50 Z" />
    <path
       id="path39"
       style="font-style:normal;font-variant:normal;font-weight:normal;font-stretch:normal;font-size:14px;line-height:normal;font-family:sans-serif;text-anchor:middle"
       d="m 155.32812,40.128906 v 1.34668 q -0.78613,-0.375977 -1.48339,-0.560547 -0.69727,-0.18457 -1.34668,-0.18457 -1.12793,0 -1.74317,0.4375 -0.6084,0.4375 -0.6084,1.24414 0,0.676758 0.40332,1.025391 0.41016,0.341797 1.54493,0.553711 l 0.83398,0.170898 q 1.54492,0.293946 2.27637,1.039063 0.73828,0.738281 0.73828,1.982422 0,1.483398 -0.99805,2.249023 -0.99121,0.765625 -2.91211,0.765625 -0.72461,0 -1.54492,-0.164062 -0.81348,-0.164063 -1.68848,-0.485352 v -1.421875 q 0.84082,0.47168 1.64747,0.710938 0.80664,0.239257 1.58593,0.239257 1.18262,0 1.8252,-0.464843 0.64258,-0.464844 0.64258,-1.326172 0,-0.751953 -0.46485,-1.175781 -0.45801,-0.423829 -1.51074,-0.635743 l -0.84082,-0.164062 q -1.54492,-0.307617 -2.23535,-0.963867 -0.69043,-0.65625 -0.69043,-1.825196 0,-1.353515 0.95019,-2.132812 0.95704,-0.779297 2.63184,-0.779297 0.71777,0 1.46289,0.129883 0.74512,0.129883 1.52441,0.389648 z" />
    <path
       id="path41"
       style="font-style:normal;font-variant:normal;font-weight:normal;font-stretch:normal;font-size:14px;line-height:normal;font-family:sans-serif;text-anchor:middle"
       d="m 163.72266,40.552734 q -0.89551,0 -1.66797,0.321289 -0.77246,0.321289 -1.41504,0.963868 -0.64258,0.642578 -0.9707,1.428711 -0.32813,0.779296 -0.32813,1.667968 0,0.881836 0.32813,1.661133 0.32812,0.772461 0.9707,1.415039 0.64258,0.642578 1.41504,0.970703 0.77246,0.321289 1.66797,0.321289 0.90234,0 1.6748,-0.321289 0.7793,-0.328125 1.42188,-0.970703 0.63574,-0.635742 0.95019,-1.408203 0.32129,-0.772461 0.32129,-1.667969 0,-0.909179 -0.32129,-1.68164 -0.32129,-0.779297 -0.95019,-1.415039 -0.64258,-0.642579 -1.42188,-0.963868 -0.77246,-0.321289 -1.6748,-0.321289 z m 0,-0.704101 q 1.03906,0 1.93457,0.375976 0.90234,0.375977 1.64746,1.121094 0.74511,0.745117 1.11426,1.640625 0.36914,0.895508 0.36914,1.948242 0,1.039063 -0.36914,1.934571 -0.36915,0.888671 -1.11426,1.633789 -0.74512,0.745117 -1.64746,1.121093 Q 164.76172,50 163.72266,50 q -1.03907,0 -1.94141,-0.375977 -0.89551,-0.375976 -1.64063,-1.121093 -0.74511,-0.745118 -1.11425,-1.633789 -0.36914,-0.895508 -0.36914,-1.934571 0,-1.052734 0.36914,-1.948242 0.36914,-0.895508 1.11425,-1.640625 0.74512,-0.745117 1.64063,-1.121094 0.90234,-0.375976 1.94141,-0.375976 z m -0.18457,2.830078 h -0.84082 v 1.886719 h 0.84082 q 0.75195,0 1.04589,-0.211914 0.30079,-0.211914 0.30079,-0.72461 0,-0.519531 -0.30079,-0.731445 -0.30078,-0.21875 -1.04589,-0.21875 z m 0.0478,-0.704102 q 1.20312,0 1.79785,0.410157 0.59473,0.40332 0.59473,1.230468 0,0.587891 -0.36231,0.970703 -0.35547,0.382813 -1.01172,0.499024 0.16406,0.05469 0.38965,0.321289 0.23242,0.259766 0.54688,0.758789 l 0.93652,1.524414 h -1.17578 l -0.88184,-1.428711 q -0.40332,-0.65625 -0.65625,-0.827148 -0.24609,-0.177735 -0.61523,-0.177735 h -0.45117 v 2.433594 h -1.05957 v -5.714844 z" />
  </g>
</svg>
