<?xml version="1.0" encoding="UTF-8" standalone="no"?>
<svg
   xmlns:dc="http://purl.org/dc/elements/1.1/"
   xmlns:cc="http://creativecommons.org/ns#"
   xmlns:rdf="http://www.w3.org/1999/02/22-rdf-syntax-ns#"
   xmlns:svg="http://www.w3.org/2000/svg"
   xmlns="http://www.w3.org/2000/svg"
   xmlns:xlink="http://www.w3.org/1999/xlink"
   version="1.1"
   width="240"
   height="70"
   id="svg2">
  <metadata
     id="metadata21">
    <rdf:RDF>
      <cc:Work
         rdf:about="">
        <dc:format>image/svg+xml</dc:format>
        <dc:type
           rdf:resource="http://purl.org/dc/dcmitype/StillImage" />
      </cc:Work>
    </rdf:RDF>
  </metadata>
  <defs
     id="defs19" />
  <path
     d="m 237.32,9.09 c -1.06,0 -1.93,-0.86 -1.93,-1.92 0,-1.06 0.87,-1.93 1.93,-1.93 1.06,0 1.93,0.87 1.93,1.93 0,1.06 -0.87,1.92 -1.93,1.92 m 0,-4.32 c -1.32,0 -2.4,1.08 -2.4,2.4 0,1.32 1.08,2.4 2.4,2.4 1.32,0 2.4,-1.08 2.4,-2.4 0,-1.32 -1.08,-2.4 -2.4,-2.4"
     id="path4" />
  <path
     d="m 237.48,7.07 -0.51,0.01 -0.01,-0.62 h 0.51 c 0.19,-0.01 0.34,0.11 0.34,0.3 0.01,0.19 -0.14,0.31 -0.33,0.31 m 0.83,-0.32 c -0.01,-0.42 -0.3,-0.72 -0.77,-0.72 l -1.07,0.02 0.03,2.26 h 0.49 L 236.98,7.5 h 0.35 l 0.46,0.8 0.55,-0.01 -0.52,-0.86 c 0.24,-0.06 0.49,-0.28 0.49,-0.68"
     id="path6" />
  <path
     d="m 51.8341,23.1805 h -5.999 V 9.3465 h 5.835 c 1.574,0 2.557,1.016 2.557,2.393 0,1.377 -0.983,2.36 -2.557,2.36 H 45 v 4 h 6.8341 c 1.836,0 2.819,1.18 2.819,2.556 0,1.574 -1.049,2.525 -2.819,2.525 m 3.376,-7.245 c 2.066,-0.426 3.771,-2.262 3.771,-5.015 0,-2.918 -2.131,-5.573 -6.295,-5.573 h -11.506 v 21.865 h 11.867 c 4.163,0 6.359,-2.623 6.359,-5.901 0,-2.754 -1.868,-5.015 -4.196,-5.376"
     id="path10" />
  <path
     d="M 73.0326,15.3453 H 68 v 4.098 h 3.5576 l 4.294,7.769 h 5.343 l -4.917,-8.327 c 2.361,-0.557 4.786,-2.622 4.786,-6.49 m 0,0 c 0,-4.065 -2.786,-7.048 -7.343,-7.048 h -10.228 v 21.865 h 4.655 V 9.4453 h 4.885 c 1.869,0 3.278,1.114 3.278,2.95 0,1.836 -1.409,2.95 -3.278,2.95"
     id="path12" />
  <path
     d="m 116.4532,19.4105 3.409,-9.408 3.41,9.408 z m 0.492,-14.063 -8.458,21.865 h 5.31 l 1.377,-3.704 h 9.376 l 1.344,3.704 h 5.311 l -8.425,-21.865 z"
     id="path14" />
  <path
     d="m 143.8491,23.1146 h -3.967 v -13.67 h 3.967 c 4.491,0 6.851,2.983 6.851,6.852 0,3.704 -2.524,6.818 -6.851,6.818 m 0,-17.767 h -8.622 v 21.865 h 8.622 c 6.851,0 11.604,-4.327 11.604,-10.916 0,-6.589 -4.753,-10.949 -11.604,-10.949"
     id="path16" />
  <path
     d="m 225.976,5.3431 -5.734,9.27 -5.734,-9.27 h -5.146 v 21.869 h 4.656 v -14.293 l 5.012,7.622 c 0.574,0.871 1.851,0.871 2.424,0 l 5.013,-7.622 v 14.293 h 4.656 V 5.3431 Z"
     id="path18" />
  <path
     d="m 95.8253,23.3441 c -3.871,0 -7.008,-3.138 -7.008,-7.008 0,-3.871 3.137,-7.009 7.008,-7.009 3.87,0 7.008,3.138 7.008,7.009 0,3.87 -3.138,7.008 -7.008,7.008 m 0,-18.536 c -6.367,0 -11.528,5.161 -11.528,11.528 0,6.366 5.161,11.527 11.528,11.527 6.366,0 11.528,-5.161 11.528,-11.527 0,-6.367 -5.162,-11.528 -11.528,-11.528"
     id="path20" />
  <path
     d="m 176.4035,19.7269 c -1.195,2.156 -3.492,3.617 -6.132,3.617 -3.87,0 -7.008,-3.138 -7.008,-7.008 0,-3.871 3.138,-7.008 7.008,-7.008 2.618,0 4.897,1.438 6.1,3.565 l 3.27,-3.269 c -2.092,-2.915 -5.508,-4.816 -9.37,-4.816 -6.367,0 -11.527,5.161 -11.527,11.528 0,6.366 5.16,11.528 11.527,11.528 3.883,0 7.316,-1.922 9.404,-4.865 z"
     id="path22" />
  <use
     xlink:href="#path20"
     transform="translate(98.7182)"
     id="use8" />
  <ellipse
     cx="16.519531"
     cy="16.49707"
     rx="16.236328"
     ry="16.235352"
     fill="#cc092f"
     id="ellipse24" />
  <path
     d="m 30.8253,20.8832 c -1.857,-0.74 -3.557,-0.492 -5.261,0.541 0,0 -0.621,0.379 -0.807,0.496 -0.794,0.498 -1.543,0.97 -2.263,0.97 -0.687,0 -1.363,-0.184 -1.649,-1.513 -0.446,-2.073 -1.534,-7.167 -2.009,-9.69 -0.279,-1.483 -0.432,-2.282 -0.591,-2.825 -0.28,-0.954 -0.792,-1.473 -1.519,-1.556 0,0 -0.114,-0.016 -0.207,-0.016 -0.092,0 -0.218,0.018 -0.218,0.018 -0.72,0.086 -1.229,0.605 -1.507,1.554 -0.159,0.543 -0.312,1.342 -0.591,2.825 -0.475,2.523 -1.563,7.617 -2.009,9.69 -0.286,1.329 -0.962,1.513 -1.649,1.513 -0.72,0 -1.469,-0.472 -2.263,-0.97 -0.186,-0.117 -0.808,-0.496 -0.808,-0.496 -1.703,-1.033 -3.404,-1.281 -5.26,-0.541 -0.401,0.16 -0.7959632,0.339183 -1.1719632,0.520183 0.257,0.806 0.5769317,1.59925 0.9499317,2.34425 0.411,-0.202 0.8420315,-0.402433 1.2820315,-0.532433 0.634,-0.187 1.284,-0.197 1.914,0.014 0.612,0.205 1.157,0.568 1.7,0.909 1.023,0.643 2.182,1.372 3.657,1.372 2.186,0 3.72,-1.305 4.21,-3.581 0.38,-1.764 1.222,-5.702 1.763,-8.418 0,0 1.386,6.654 1.765,8.418 0.49,2.276 2.025,3.581 4.211,3.581 1.475,0 2.634,-0.729 3.657,-1.372 0.543,-0.341 1.088,-0.704 1.7,-0.909 0.629,-0.211 1.28,-0.201 1.914,-0.014 0.44,0.13 0.870387,0.330647 1.281387,0.532647 0.374,-0.745 0.693089,-1.538621 0.950089,-2.344621 -0.376,-0.181 -0.770476,-0.360026 -1.171476,-0.520026"
     fill="#ffffff"
     id="path26" />
  <g
     aria-label="CA Spool™"
     id="text14"
     style="font-style:normal;font-variant:normal;font-weight:normal;font-stretch:normal;font-size:11px;line-height:normal;font-family:sans-serif;text-anchor:middle">
    <path
       d="m 96.958008,49.419922 q -0.29541,0.128906 -0.53711,0.241699 -0.236328,0.112793 -0.623046,0.236328 Q 95.470215,50 95.083496,50.069824 q -0.381348,0.0752 -0.843262,0.0752 -0.870117,0 -1.584472,-0.2417 Q 91.946777,49.65625 91.42041,49.135254 90.904785,48.625 90.614746,47.84082 q -0.290039,-0.78955 -0.290039,-1.831543 0,-0.988281 0.279297,-1.76709 0.279297,-0.778808 0.805664,-1.315917 0.510254,-0.520997 1.22998,-0.794922 0.725098,-0.273926 1.605957,-0.273926 0.644532,0 1.283692,0.155762 0.644531,0.155761 1.428711,0.547851 v 1.262207 h -0.08057 q -0.660644,-0.553222 -1.310546,-0.805664 -0.649903,-0.252441 -1.391114,-0.252441 -0.606933,0 -1.095703,0.19873 -0.483398,0.19336 -0.864746,0.606934 -0.370605,0.402832 -0.580078,1.020508 -0.204102,0.612304 -0.204102,1.417968 0,0.843262 0.225586,1.450196 0.230957,0.606933 0.590821,0.988281 0.375976,0.397461 0.875488,0.59082 0.504883,0.187988 1.063476,0.187988 0.768067,0 1.439454,-0.263183 0.671386,-0.263184 1.256835,-0.789551 h 0.0752 z"
       style="font-style:normal;font-variant:normal;font-weight:normal;font-stretch:normal;font-size:11px;line-height:normal;font-family:sans-serif;text-anchor:middle"
       id="path23" />
    <path
       d="m 104.77832,50 h -1.1333 l -0.78418,-2.229004 H 99.401855 L 98.617676,50 h -1.07959 l 2.911134,-7.997559 h 1.41797 z m -2.24512,-3.14209 -1.40185,-3.926269 -1.407229,3.926269 z"
       style="font-style:normal;font-variant:normal;font-weight:normal;font-stretch:normal;font-size:11px;line-height:normal;font-family:sans-serif;text-anchor:middle"
       id="path25" />
    <path
       d="m 115.6709,47.717285 q 0,0.467285 -0.22022,0.923828 -0.21484,0.456543 -0.60693,0.773438 -0.42969,0.34375 -1.00439,0.537109 -0.56934,0.19336 -1.375,0.19336 -0.86475,0 -1.55762,-0.161133 -0.6875,-0.161133 -1.40186,-0.478028 v -1.332031 h 0.0752 q 0.60693,0.504883 1.40185,0.778809 0.79493,0.273925 1.49317,0.273925 0.98828,0 1.53613,-0.370605 0.55322,-0.370605 0.55322,-0.988281 0,-0.531739 -0.26318,-0.78418 -0.25781,-0.252441 -0.78955,-0.39209 -0.40283,-0.107422 -0.87549,-0.177246 -0.46728,-0.06982 -0.99365,-0.177246 -1.06348,-0.225586 -1.5791,-0.768066 -0.51026,-0.547852 -0.51026,-1.42334 0,-1.004395 0.84864,-1.643555 0.84863,-0.644531 2.1538,-0.644531 0.84327,0 1.54688,0.161133 0.70361,0.161132 1.24609,0.397461 v 1.256836 h -0.0752 q -0.45655,-0.386719 -1.20313,-0.639161 -0.74121,-0.257812 -1.52002,-0.257812 -0.854,0 -1.375,0.354492 -0.51562,0.354492 -0.51562,0.913086 0,0.499512 0.25781,0.78418 0.25781,0.284668 0.90772,0.435058 0.34375,0.0752 0.97753,0.182617 0.63379,0.107422 1.07422,0.220215 0.8916,0.236328 1.34278,0.714356 0.45117,0.478027 0.45117,1.337402 z"
       style="font-style:normal;font-variant:normal;font-weight:normal;font-stretch:normal;font-size:11px;line-height:normal;font-family:sans-serif;text-anchor:middle"
       id="path27" />
    <path
       d="m 122.57813,46.927734 q 0,0.730469 -0.20948,1.337403 -0.20947,0.601562 -0.59082,1.020508 -0.35449,0.39746 -0.83789,0.617675 -0.47803,0.214844 -1.01514,0.214844 -0.46728,0 -0.84863,-0.102051 -0.37597,-0.102051 -0.76806,-0.316894 v 2.513672 h -1.00977 v -8.212403 h 1.00977 v 0.628418 q 0.40283,-0.338379 0.90234,-0.563965 0.50488,-0.230957 1.07422,-0.230957 1.08496,0 1.68652,0.821778 0.60694,0.816406 0.60694,2.271972 z m -1.042,0.02686 q 0,-1.084961 -0.3706,-1.62207 -0.37061,-0.53711 -1.13867,-0.53711 -0.43506,0 -0.87549,0.187988 -0.44043,0.187989 -0.84326,0.494141 v 3.399902 q 0.42968,0.19336 0.73584,0.263184 0.31152,0.06982 0.70361,0.06982 0.84326,0 1.31592,-0.569336 0.47265,-0.569336 0.47265,-1.686523 z"
       style="font-style:normal;font-variant:normal;font-weight:normal;font-stretch:normal;font-size:11px;line-height:normal;font-family:sans-serif;text-anchor:middle"
       id="path29" />
    <path
       d="m 129.26514,47.00293 q 0,1.466308 -0.75196,2.314941 -0.75195,0.848633 -2.01416,0.848633 -1.27295,0 -2.0249,-0.848633 -0.74658,-0.848633 -0.74658,-2.314941 0,-1.466309 0.74658,-2.314942 0.75195,-0.854004 2.0249,-0.854004 1.26221,0 2.01416,0.854004 0.75196,0.848633 0.75196,2.314942 z m -1.042,0 q 0,-1.165528 -0.45654,-1.729493 -0.45654,-0.569335 -1.26758,-0.569335 -0.82177,0 -1.27832,0.569335 -0.45117,0.563965 -0.45117,1.729493 0,1.127929 0.45654,1.713379 0.45655,0.580078 1.27295,0.580078 0.80567,0 1.26221,-0.574707 0.46191,-0.580078 0.46191,-1.71875 z"
       style="font-style:normal;font-variant:normal;font-weight:normal;font-stretch:normal;font-size:11px;line-height:normal;font-family:sans-serif;text-anchor:middle"
       id="path31" />
    <path
       d="m 135.94678,47.00293 q 0,1.466308 -0.75196,2.314941 -0.75195,0.848633 -2.01416,0.848633 -1.27295,0 -2.0249,-0.848633 -0.74658,-0.848633 -0.74658,-2.314941 0,-1.466309 0.74658,-2.314942 0.75195,-0.854004 2.0249,-0.854004 1.26221,0 2.01416,0.854004 0.75196,0.848633 0.75196,2.314942 z m -1.04199,0 q 0,-1.165528 -0.45655,-1.729493 -0.45654,-0.569335 -1.26758,-0.569335 -0.82177,0 -1.27832,0.569335 -0.45117,0.563965 -0.45117,1.729493 0,1.127929 0.45654,1.713379 0.45655,0.580078 1.27295,0.580078 0.80567,0 1.26221,-0.574707 0.46192,-0.580078 0.46192,-1.71875 z"
       style="font-style:normal;font-variant:normal;font-weight:normal;font-stretch:normal;font-size:11px;line-height:normal;font-family:sans-serif;text-anchor:middle"
       id="path33" />
    <path
       d="m 138.53564,50 h -1.00976 v -8.357422 h 1.00976 z"
       style="font-style:normal;font-variant:normal;font-weight:normal;font-stretch:normal;font-size:11px;line-height:normal;font-family:sans-serif;text-anchor:middle"
       id="path35" />
    <path
       d="m 149.09521,45.783691 h -0.66601 v -3.313964 h -0.10742 l -1.27295,2.422363 h -0.42432 l -1.28369,-2.459961 h -0.13428 v 3.351562 h -0.66064 v -3.78125 h 1.27832 l 1.02588,2.051758 1.02588,-2.051758 h 1.21923 z m -5.48925,-3.152832 h -1.22998 v 3.152832 h -0.68213 v -3.152832 h -1.22998 v -0.628418 h 3.14209 z"
       style="font-style:normal;font-variant:normal;font-weight:normal;font-stretch:normal;font-size:11px;line-height:normal;font-family:sans-serif;text-anchor:middle"
       id="path37" />
  </g>
</svg>
