<?xml version="1.0" encoding="UTF-8" standalone="no"?>
<svg
   role="img"
   viewBox="-4.53 -4.53 248.82 41.82"
   version="1.1"
   id="svg19"
   xmlns:xlink="http://www.w3.org/1999/xlink"
   xmlns="http://www.w3.org/2000/svg"
   xmlns:svg="http://www.w3.org/2000/svg">
  <defs
     id="defs23" />
  <title
     id="title2">Broadcom Corporation logo</title>
  <path
     d="M237.32 9.09c-1.06 0-1.93-.86-1.93-1.92s.87-1.93 1.93-1.93 1.93.87 1.93 1.93-.87 1.92-1.93 1.92m0-4.32c-1.32 0-2.4 1.08-2.4 2.4 0 1.32 1.08 2.4 2.4 2.4 1.32 0 2.4-1.08 2.4-2.4 0-1.32-1.08-2.4-2.4-2.4"
     id="path4" />
  <path
     d="M237.48 7.07l-.51.01-.01-.62h.51c.19-.01.34.11.34.3.01.19-.14.31-.33.31m.83-.32c-.01-.42-.3-.72-.77-.72l-1.07.02.03 2.26h.49l-.01-.81h.35l.46.8.55-.01-.52-.86c.24-.06.49-.28.49-.68M51.8341 23.1805h-5.999V9.3465h5.835c1.574 0 2.557 1.016 2.557 2.393 0 1.377-.983 2.36-2.557 2.36H45v4h6.8341c1.836 0 2.819 1.18 2.819 2.556 0 1.574-1.049 2.525-2.819 2.525m3.376-7.245c2.066-.426 3.771-2.262 3.771-5.015 0-2.918-2.131-5.573-6.295-5.573h-11.506v21.865h11.867c4.163 0 6.359-2.623 6.359-5.901 0-2.754-1.868-5.015-4.196-5.376m17.8225-.5902H68v4.098h3.5576l4.294 7.769h5.343l-4.917-8.327c2.361-.557 4.786-2.622 4.786-6.49m0 0c0-4.065-2.786-7.048-7.343-7.048h-10.228v21.865h4.655V9.4453h4.885c1.869 0 3.278 1.114 3.278 2.95s-1.409 2.95-3.278 2.95m43.4206 4.0652l3.409-9.408 3.41 9.408zm.492-14.063l-8.458 21.865h5.31l1.377-3.704h9.376l1.344 3.704h5.311l-8.425-21.865zm26.9039 17.7671h-3.967v-13.67h3.967c4.491 0 6.851 2.983 6.851 6.852 0 3.704-2.524 6.818-6.851 6.818m0-17.767h-8.622v21.865h8.622c6.851 0 11.604-4.327 11.604-10.916s-4.753-10.949-11.604-10.949m82.1269-.0045l-5.734 9.27-5.734-9.27h-5.146v21.869h4.656v-14.293l5.012 7.622c.574.871 1.851.871 2.424 0l5.013-7.622v14.293h4.656V5.3431z"
     id="path6" />
  <path
     id="a"
     d="M95.8253 23.3441c-3.871 0-7.008-3.138-7.008-7.008 0-3.871 3.137-7.009 7.008-7.009 3.87 0 7.008 3.138 7.008 7.009 0 3.87-3.138 7.008-7.008 7.008m0-18.536c-6.367 0-11.528 5.161-11.528 11.528 0 6.366 5.161 11.527 11.528 11.527 6.366 0 11.528-5.161 11.528-11.527 0-6.367-5.162-11.528-11.528-11.528" />
  <path
     d="M176.4035 19.7269c-1.195 2.156-3.492 3.617-6.132 3.617-3.87 0-7.008-3.138-7.008-7.008 0-3.871 3.138-7.008 7.008-7.008 2.618 0 4.897 1.438 6.1 3.565l3.27-3.269c-2.092-2.915-5.508-4.816-9.37-4.816-6.367 0-11.527 5.161-11.527 11.528 0 6.366 5.16 11.528 11.527 11.528 3.883 0 7.316-1.922 9.404-4.865z"
     id="path9" />
  <use
     transform="translate(98.718)"
     xlink:href="#a"
     id="use11" />
  <ellipse
     cx="16.52"
     cy="16.497"
     fill="#cc092f"
     rx="16.236"
     ry="16.235"
     id="ellipse13" />
  <path
     fill="#fff"
     d="M30.8253 20.8832c-1.857-.74-3.557-.492-5.261.541 0 0-.621.379-.807.496-.794.498-1.543.97-2.263.97-.687 0-1.363-.184-1.649-1.513-.446-2.073-1.534-7.167-2.009-9.69-.279-1.483-.432-2.282-.591-2.825-.28-.954-.792-1.473-1.519-1.556 0 0-.114-.016-.207-.016-.092 0-.218.018-.218.018-.72.086-1.229.605-1.507 1.554-.159.543-.312 1.342-.591 2.825-.475 2.523-1.563 7.617-2.009 9.69-.286 1.329-.962 1.513-1.649 1.513-.72 0-1.469-.472-2.263-.97-.186-.117-.808-.496-.808-.496-1.703-1.033-3.404-1.281-5.26-.541-.401.16-.79596.33918-1.17196.52018.257.806.57693 1.59925.94993 2.34425.411-.202.84203-.40243 1.28203-.53243.634-.187 1.284-.197 1.914.014.612.205 1.157.568 1.7.909 1.023.643 2.182 1.372 3.657 1.372 2.186 0 3.72-1.305 4.21-3.581.38-1.764 1.222-5.702 1.763-8.418 0 0 1.386 6.654 1.765 8.418.49 2.276 2.025 3.581 4.211 3.581 1.475 0 2.634-.729 3.657-1.372.543-.341 1.088-.704 1.7-.909.629-.211 1.28-.201 1.914-.014.44.13.87039.33065 1.28139.53265.374-.745.69309-1.53862.95009-2.34462-.376-.181-.77048-.36003-1.17148-.52003"
     id="path15" />
  <g
     aria-label="CA SymDump"
     id="text17"
     style="font-size:11px;text-anchor:middle">
    <path
       d="m 93.25766,49.419922 q -0.29541,0.128906 -0.537109,0.241699 -0.236329,0.112793 -0.623047,0.236328 Q 91.769867,50 91.383148,50.069824 q -0.381347,0.0752 -0.843262,0.0752 -0.870117,0 -1.584472,-0.2417 -0.708985,-0.24707 -1.235352,-0.768066 -0.515625,-0.510254 -0.805664,-1.294434 -0.290039,-0.78955 -0.290039,-1.831543 0,-0.988281 0.279297,-1.76709 0.279297,-0.778808 0.805664,-1.315917 0.510254,-0.520997 1.229981,-0.794922 0.725097,-0.273926 1.605957,-0.273926 0.644531,0 1.283691,0.155762 0.644531,0.155761 1.428711,0.547851 v 1.262207 h -0.08057 q -0.660645,-0.553222 -1.310547,-0.805664 -0.649903,-0.252441 -1.391114,-0.252441 -0.606933,0 -1.095703,0.19873 -0.483398,0.19336 -0.864746,0.606934 -0.370605,0.402832 -0.580078,1.020508 -0.204102,0.612304 -0.204102,1.417968 0,0.843262 0.225586,1.450196 0.230957,0.606933 0.590821,0.988281 0.375976,0.397461 0.875488,0.59082 0.504883,0.187988 1.063477,0.187988 0.768066,0 1.439453,-0.263183 0.671386,-0.263184 1.256836,-0.789551 h 0.0752 z"
       style="font-size:11px;text-anchor:middle"
       id="path25" />
    <path
       d="m 101.07797,50 h -1.133298 l -0.78418,-2.229004 H 95.701508 L 94.917328,50 h -1.07959 l 2.911133,-7.997559 H 98.16684 Z M 98.832855,46.85791 97.431,42.931641 96.023773,46.85791 Z"
       style="font-size:11px;text-anchor:middle"
       id="path27" />
    <path
       d="m 111.97055,47.717285 q 0,0.467285 -0.22021,0.923828 -0.21485,0.456543 -0.60694,0.773438 -0.42969,0.34375 -1.00439,0.537109 -0.56934,0.19336 -1.375,0.19336 -0.86475,0 -1.55762,-0.161133 -0.6875,-0.161133 -1.40186,-0.478028 v -1.332031 h 0.0752 q 0.60693,0.504883 1.40186,0.778809 0.79492,0.273925 1.49316,0.273925 0.98828,0 1.53613,-0.370605 0.55323,-0.370605 0.55323,-0.988281 0,-0.531739 -0.26319,-0.78418 -0.25781,-0.252441 -0.78955,-0.39209 -0.40283,-0.107422 -0.87549,-0.177246 -0.46728,-0.06982 -0.99365,-0.177246 -1.06348,-0.225586 -1.5791,-0.768066 -0.51026,-0.547852 -0.51026,-1.42334 0,-1.004395 0.84864,-1.643555 0.84863,-0.644531 2.15381,-0.644531 0.84326,0 1.54687,0.161133 0.70361,0.161132 1.24609,0.397461 v 1.256836 h -0.0752 q -0.45654,-0.386719 -1.20313,-0.639161 -0.74121,-0.257812 -1.52001,-0.257812 -0.85401,0 -1.375,0.354492 -0.51563,0.354492 -0.51563,0.913086 0,0.499512 0.25781,0.78418 0.25782,0.284668 0.90772,0.435058 0.34375,0.0752 0.97754,0.182617 0.63379,0.107422 1.07422,0.220215 0.8916,0.236328 1.34277,0.714356 0.45117,0.478027 0.45117,1.337402 z"
       style="font-size:11px;text-anchor:middle"
       id="path29" />
    <path
       d="m 118.78647,44.000488 -3.50195,8.212403 h -1.07959 l 1.11718,-2.50293 -2.39013,-5.709473 h 1.0957 l 1.84228,4.447266 1.8584,-4.447266 z"
       style="font-size:11px;text-anchor:middle"
       id="path31" />
    <path
       d="m 128.86264,50 h -1.00977 v -3.416016 q 0,-0.386718 -0.0376,-0.746582 -0.0322,-0.359863 -0.14502,-0.574707 -0.12354,-0.230957 -0.35449,-0.349121 -0.23096,-0.118164 -0.66602,-0.118164 -0.42432,0 -0.84863,0.214844 -0.42432,0.209473 -0.84864,0.537109 0.0161,0.123535 0.0269,0.290039 0.0107,0.161133 0.0107,0.322266 V 50 h -1.00976 v -3.416016 q 0,-0.397461 -0.0376,-0.751953 -0.0322,-0.359863 -0.14502,-0.574707 -0.12354,-0.230957 -0.35449,-0.34375 -0.23096,-0.118164 -0.66602,-0.118164 -0.41357,0 -0.83252,0.204102 -0.41357,0.204101 -0.82715,0.520996 V 50 h -1.00976 v -5.999512 h 1.00976 v 0.666016 q 0.47266,-0.39209 0.93994,-0.612305 0.47266,-0.220215 1.0044,-0.220215 0.6123,0 1.03662,0.257813 0.42969,0.257812 0.63916,0.714355 0.61231,-0.515625 1.11719,-0.741211 0.50488,-0.230957 1.07959,-0.230957 0.98828,0 1.45556,0.601563 0.47266,0.596191 0.47266,1.67041 z"
       style="font-size:11px;text-anchor:middle"
       id="path33" />
    <path
       d="m 137.64438,46.009277 q 0,1.090332 -0.47803,1.976563 -0.47265,0.88623 -1.26221,1.375 -0.54785,0.338379 -1.22461,0.488769 Q 134.00815,50 132.90707,50 h -2.01953 v -7.997559 h 1.99805 q 1.1709,0 1.8584,0.171875 0.69287,0.166504 1.1709,0.461914 0.8164,0.510254 1.27295,1.358887 0.45654,0.848633 0.45654,2.01416 z m -1.11182,-0.01611 q 0,-0.939941 -0.32763,-1.584473 -0.32764,-0.644531 -0.97754,-1.015136 -0.47266,-0.268555 -1.0044,-0.370606 -0.53174,-0.107422 -1.27295,-0.107422 h -0.99902 v 6.171387 h 0.99902 q 0.76807,0 1.33741,-0.112793 0.5747,-0.112793 1.05273,-0.418945 0.59619,-0.381348 0.8916,-1.004395 0.30078,-0.623047 0.30078,-1.557617 z"
       style="font-size:11px;text-anchor:middle"
       id="path35" />
    <path
       d="m 144.26694,50 h -1.00977 v -0.666016 q -0.51025,0.402832 -0.97754,0.617676 -0.46728,0.214844 -1.03125,0.214844 -0.94531,0 -1.47168,-0.574707 -0.52636,-0.580078 -0.52636,-1.697266 v -3.894043 h 1.00976 v 3.416016 q 0,0.456543 0.043,0.78418 0.043,0.322265 0.18262,0.553222 0.14502,0.236328 0.37597,0.34375 0.23096,0.107422 0.67139,0.107422 0.39209,0 0.854,-0.204101 0.46729,-0.204102 0.87012,-0.520997 v -4.479492 h 1.00977 z"
       style="font-size:11px;text-anchor:middle"
       id="path37" />
    <path
       d="m 155.00912,50 h -1.00976 v -3.416016 q 0,-0.386718 -0.0376,-0.746582 -0.0322,-0.359863 -0.14502,-0.574707 -0.12353,-0.230957 -0.35449,-0.349121 -0.23096,-0.118164 -0.66602,-0.118164 -0.42431,0 -0.84863,0.214844 -0.42432,0.209473 -0.84863,0.537109 0.0161,0.123535 0.0268,0.290039 0.0108,0.161133 0.0108,0.322266 V 50 h -1.00977 v -3.416016 q 0,-0.397461 -0.0376,-0.751953 -0.0322,-0.359863 -0.14502,-0.574707 -0.12353,-0.230957 -0.35449,-0.34375 -0.23096,-0.118164 -0.66601,-0.118164 -0.41358,0 -0.83252,0.204102 -0.41358,0.204101 -0.82715,0.520996 V 50 h -1.00977 v -5.999512 h 1.00977 v 0.666016 q 0.47265,-0.39209 0.93994,-0.612305 0.47266,-0.220215 1.00439,-0.220215 0.61231,0 1.03662,0.257813 0.42969,0.257812 0.63916,0.714355 0.61231,-0.515625 1.11719,-0.741211 0.50489,-0.230957 1.07959,-0.230957 0.98828,0 1.45557,0.601563 0.47265,0.596191 0.47265,1.67041 z"
       style="font-size:11px;text-anchor:middle"
       id="path39" />
    <path
       d="m 162.23325,46.927734 q 0,0.730469 -0.20948,1.337403 -0.20947,0.601562 -0.59082,1.020508 -0.35449,0.39746 -0.83789,0.617675 -0.47803,0.214844 -1.01513,0.214844 -0.46729,0 -0.84864,-0.102051 -0.37597,-0.102051 -0.76806,-0.316894 v 2.513672 h -1.00977 v -8.212403 h 1.00977 v 0.628418 q 0.40283,-0.338379 0.90234,-0.563965 0.50488,-0.230957 1.07422,-0.230957 1.08496,0 1.68652,0.821778 0.60694,0.816406 0.60694,2.271972 z m -1.042,0.02686 q 0,-1.084961 -0.3706,-1.62207 -0.37061,-0.53711 -1.13867,-0.53711 -0.43506,0 -0.87549,0.187988 -0.44043,0.187989 -0.84326,0.494141 v 3.399902 q 0.42968,0.19336 0.73584,0.263184 0.31152,0.06982 0.70361,0.06982 0.84326,0 1.31592,-0.569336 0.47265,-0.569336 0.47265,-1.686523 z"
       style="font-size:11px;text-anchor:middle"
       id="path41" />
  </g>
</svg>
