<?xml version="1.0" encoding="UTF-8" standalone="no"?>
<svg
   role="img"
   viewBox="-4.53 -4.53 248.82 41.82"
   version="1.1"
   id="svg19"
   xmlns:xlink="http://www.w3.org/1999/xlink"
   xmlns="http://www.w3.org/2000/svg"
   xmlns:svg="http://www.w3.org/2000/svg">
  <defs
     id="defs23" />
  <title
     id="title2">Broadcom Corporation logo</title>
  <path
     d="M237.32 9.09c-1.06 0-1.93-.86-1.93-1.92s.87-1.93 1.93-1.93 1.93.87 1.93 1.93-.87 1.92-1.93 1.92m0-4.32c-1.32 0-2.4 1.08-2.4 2.4 0 1.32 1.08 2.4 2.4 2.4 1.32 0 2.4-1.08 2.4-2.4 0-1.32-1.08-2.4-2.4-2.4"
     id="path4" />
  <path
     d="M237.48 7.07l-.51.01-.01-.62h.51c.19-.01.34.11.34.3.01.19-.14.31-.33.31m.83-.32c-.01-.42-.3-.72-.77-.72l-1.07.02.03 2.26h.49l-.01-.81h.35l.46.8.55-.01-.52-.86c.24-.06.49-.28.49-.68M51.8341 23.1805h-5.999V9.3465h5.835c1.574 0 2.557 1.016 2.557 2.393 0 1.377-.983 2.36-2.557 2.36H45v4h6.8341c1.836 0 2.819 1.18 2.819 2.556 0 1.574-1.049 2.525-2.819 2.525m3.376-7.245c2.066-.426 3.771-2.262 3.771-5.015 0-2.918-2.131-5.573-6.295-5.573h-11.506v21.865h11.867c4.163 0 6.359-2.623 6.359-5.901 0-2.754-1.868-5.015-4.196-5.376m17.8225-.5902H68v4.098h3.5576l4.294 7.769h5.343l-4.917-8.327c2.361-.557 4.786-2.622 4.786-6.49m0 0c0-4.065-2.786-7.048-7.343-7.048h-10.228v21.865h4.655V9.4453h4.885c1.869 0 3.278 1.114 3.278 2.95s-1.409 2.95-3.278 2.95m43.4206 4.0652l3.409-9.408 3.41 9.408zm.492-14.063l-8.458 21.865h5.31l1.377-3.704h9.376l1.344 3.704h5.311l-8.425-21.865zm26.9039 17.7671h-3.967v-13.67h3.967c4.491 0 6.851 2.983 6.851 6.852 0 3.704-2.524 6.818-6.851 6.818m0-17.767h-8.622v21.865h8.622c6.851 0 11.604-4.327 11.604-10.916s-4.753-10.949-11.604-10.949m82.1269-.0045l-5.734 9.27-5.734-9.27h-5.146v21.869h4.656v-14.293l5.012 7.622c.574.871 1.851.871 2.424 0l5.013-7.622v14.293h4.656V5.3431z"
     id="path6" />
  <path
     id="a"
     d="M95.8253 23.3441c-3.871 0-7.008-3.138-7.008-7.008 0-3.871 3.137-7.009 7.008-7.009 3.87 0 7.008 3.138 7.008 7.009 0 3.87-3.138 7.008-7.008 7.008m0-18.536c-6.367 0-11.528 5.161-11.528 11.528 0 6.366 5.161 11.527 11.528 11.527 6.366 0 11.528-5.161 11.528-11.527 0-6.367-5.162-11.528-11.528-11.528" />
  <path
     d="M176.4035 19.7269c-1.195 2.156-3.492 3.617-6.132 3.617-3.87 0-7.008-3.138-7.008-7.008 0-3.871 3.138-7.008 7.008-7.008 2.618 0 4.897 1.438 6.1 3.565l3.27-3.269c-2.092-2.915-5.508-4.816-9.37-4.816-6.367 0-11.527 5.161-11.527 11.528 0 6.366 5.16 11.528 11.527 11.528 3.883 0 7.316-1.922 9.404-4.865z"
     id="path9" />
  <use
     transform="translate(98.718)"
     xlink:href="#a"
     id="use11" />
  <ellipse
     cx="16.52"
     cy="16.497"
     fill="#cc092f"
     rx="16.236"
     ry="16.235"
     id="ellipse13" />
  <path
     fill="#fff"
     d="M30.8253 20.8832c-1.857-.74-3.557-.492-5.261.541 0 0-.621.379-.807.496-.794.498-1.543.97-2.263.97-.687 0-1.363-.184-1.649-1.513-.446-2.073-1.534-7.167-2.009-9.69-.279-1.483-.432-2.282-.591-2.825-.28-.954-.792-1.473-1.519-1.556 0 0-.114-.016-.207-.016-.092 0-.218.018-.218.018-.72.086-1.229.605-1.507 1.554-.159.543-.312 1.342-.591 2.825-.475 2.523-1.563 7.617-2.009 9.69-.286 1.329-.962 1.513-1.649 1.513-.72 0-1.469-.472-2.263-.97-.186-.117-.808-.496-.808-.496-1.703-1.033-3.404-1.281-5.26-.541-.401.16-.79596.33918-1.17196.52018.257.806.57693 1.59925.94993 2.34425.411-.202.84203-.40243 1.28203-.53243.634-.187 1.284-.197 1.914.014.612.205 1.157.568 1.7.909 1.023.643 2.182 1.372 3.657 1.372 2.186 0 3.72-1.305 4.21-3.581.38-1.764 1.222-5.702 1.763-8.418 0 0 1.386 6.654 1.765 8.418.49 2.276 2.025 3.581 4.211 3.581 1.475 0 2.634-.729 3.657-1.372.543-.341 1.088-.704 1.7-.909.629-.211 1.28-.201 1.914-.014.44.13.87039.33065 1.28139.53265.374-.745.69309-1.53862.95009-2.34462-.376-.181-.77048-.36003-1.17148-.52003"
     id="path15" />
  <g
     aria-label="CA View®"
     id="text17"
     style="font-size:10px;text-anchor:middle">
    <path
       d="m 105.47446,49.472656 q -0.26856,0.117188 -0.48828,0.219727 -0.21485,0.102539 -0.56641,0.214844 -0.29785,0.09277 -0.64941,0.15625 -0.34668,0.06836 -0.76661,0.06836 -0.79101,0 -1.44043,-0.219727 Q 100.91879,49.6875 100.44028,49.213867 99.971527,48.75 99.707855,48.037109 99.444183,47.319336 99.444183,46.37207 q 0,-0.898437 0.253907,-1.606445 0.253906,-0.708008 0.73242,-1.196289 0.46387,-0.473633 1.11817,-0.722656 0.65918,-0.249024 1.45996,-0.249024 0.58593,0 1.16699,0.141602 0.58594,0.141601 1.29883,0.498047 v 1.147461 h -0.0732 q -0.60058,-0.50293 -1.1914,-0.732422 -0.59082,-0.229492 -1.26465,-0.229492 -0.55176,0 -0.99609,0.180664 -0.43946,0.175781 -0.78614,0.551757 -0.33691,0.366211 -0.52734,0.927735 -0.18555,0.55664 -0.18555,1.289062 0,0.766602 0.20508,1.31836 0.20996,0.551757 0.53711,0.898437 0.3418,0.361328 0.7959,0.53711 0.45898,0.170898 0.9668,0.170898 0.69824,0 1.30859,-0.239258 0.61035,-0.239258 1.14258,-0.717773 h 0.0684 z"
       id="path25" />
    <path
       d="m 112.57407,50 h -1.03028 l -0.71289,-2.026367 h -3.14453 L 106.97348,50 h -0.98145 l 2.64649,-7.270508 h 1.28906 z m -2.04102,-2.856445 -1.27441,-3.569336 -1.2793,3.569336 z"
       id="path27" />
    <path
       d="M 122.92563,42.729492 120.27914,50 h -1.28906 l -2.64648,-7.270508 h 1.03515 l 2.28028,6.396485 2.28027,-6.396485 z"
       id="path29" />
    <path
       d="m 124.94223,43.632812 h -1.03516 v -0.952148 h 1.03516 z M 124.88364,50 h -0.91797 v -5.454102 h 0.91797 z"
       id="path31" />
    <path
       d="m 131.26547,47.368164 h -4.01855 q 0,0.50293 0.15136,0.878906 0.15137,0.371094 0.41504,0.610352 0.25391,0.234375 0.60059,0.351562 0.35156,0.117188 0.77148,0.117188 0.55664,0 1.11817,-0.219727 0.5664,-0.224609 0.80566,-0.439453 h 0.0488 v 1.000977 q -0.46387,0.195312 -0.94727,0.327148 -0.48339,0.131836 -1.01562,0.131836 -1.35742,0 -2.11914,-0.732422 -0.76172,-0.737304 -0.76172,-2.089844 0,-1.33789 0.72754,-2.124023 0.73242,-0.786133 1.92383,-0.786133 1.10351,0 1.69922,0.644531 0.60058,0.644532 0.60058,1.831055 z m -0.89355,-0.703125 q -0.005,-0.722656 -0.36621,-1.118164 -0.35645,-0.395508 -1.08887,-0.395508 -0.73731,0 -1.17676,0.43457 -0.43457,0.434571 -0.49316,1.079102 z"
       id="path33" />
    <path
       d="M 139.51743,44.545898 138.09653,50 h -0.84961 L 135.84555,45.795898 134.45395,50 h -0.84473 l -1.43554,-5.454102 h 0.95703 l 1.00097,4.223633 1.36231,-4.223633 h 0.75683 l 1.39649,4.223633 0.94726,-4.223633 z"
       id="path35" />
    <path
       d="m 149.16098,46.801758 q 0,1.748047 -1.24023,2.988281 -1.23536,1.235352 -2.9834,1.235352 -1.74805,0 -2.98828,-1.235352 -1.23536,-1.240234 -1.23536,-2.988281 0,-1.748047 1.23536,-2.983399 1.24023,-1.240234 2.98828,-1.240234 1.74804,0 2.9834,1.240234 1.24023,1.235352 1.24023,2.983399 z m -0.56641,0 q 0,-1.513672 -1.07421,-2.597656 -1.06934,-1.083985 -2.58301,-1.083985 -1.51367,0 -2.58789,1.083985 -1.06934,1.083984 -1.06934,2.597656 0,1.513672 1.06934,2.597656 1.07422,1.083984 2.58789,1.083984 1.51367,0 2.58301,-1.083984 1.07421,-1.083984 1.07421,-2.597656 z m -0.9375,2.148437 h -1.08886 L 144.952,47.216797 h -0.79102 v 1.733398 h -0.80566 v -4.467773 h 1.52343 q 0.45899,0 0.75684,0.03906 0.29785,0.03906 0.58594,0.19043 0.30761,0.166016 0.44922,0.405273 0.14648,0.234375 0.14648,0.590821 0,0.473633 -0.27832,0.791015 -0.27344,0.3125 -0.75684,0.498047 z m -1.71875,-3.188476 q 0,-0.175782 -0.0684,-0.3125 -0.0683,-0.136719 -0.22949,-0.22461 -0.15136,-0.08301 -0.32226,-0.107422 -0.1709,-0.02441 -0.42969,-0.02441 h -0.72754 v 1.508789 h 0.62012 q 0.30273,0 0.52246,-0.04395 0.21972,-0.04883 0.36133,-0.161133 0.15136,-0.12207 0.20996,-0.268554 0.0635,-0.146485 0.0635,-0.366211 z"
       id="path37" />
  </g>
</svg>
