<?xml version="1.0" encoding="UTF-8" standalone="no"?>
<svg
   xmlns:dc="http://purl.org/dc/elements/1.1/"
   xmlns:cc="http://creativecommons.org/ns#"
   xmlns:rdf="http://www.w3.org/1999/02/22-rdf-syntax-ns#"
   xmlns:svg="http://www.w3.org/2000/svg"
   xmlns="http://www.w3.org/2000/svg"
   xmlns:xlink="http://www.w3.org/1999/xlink"
   version="1.1"
   width="240"
   height="70"
   id="svg2">
  <metadata
     id="metadata21">
    <rdf:RDF>
      <cc:Work
         rdf:about="">
        <dc:format>image/svg+xml</dc:format>
        <dc:type
           rdf:resource="http://purl.org/dc/dcmitype/StillImage" />
      </cc:Work>
    </rdf:RDF>
  </metadata>
  <defs
     id="defs19" />
  <path
     d="m 237.32,9.09 c -1.06,0 -1.93,-0.86 -1.93,-1.92 0,-1.06 0.87,-1.93 1.93,-1.93 1.06,0 1.93,0.87 1.93,1.93 0,1.06 -0.87,1.92 -1.93,1.92 m 0,-4.32 c -1.32,0 -2.4,1.08 -2.4,2.4 0,1.32 1.08,2.4 2.4,2.4 1.32,0 2.4,-1.08 2.4,-2.4 0,-1.32 -1.08,-2.4 -2.4,-2.4"
     id="path4" />
  <path
     d="m 237.48,7.07 -0.51,0.01 -0.01,-0.62 h 0.51 c 0.19,-0.01 0.34,0.11 0.34,0.3 0.01,0.19 -0.14,0.31 -0.33,0.31 m 0.83,-0.32 c -0.01,-0.42 -0.3,-0.72 -0.77,-0.72 l -1.07,0.02 0.03,2.26 h 0.49 L 236.98,7.5 h 0.35 l 0.46,0.8 0.55,-0.01 -0.52,-0.86 c 0.24,-0.06 0.49,-0.28 0.49,-0.68"
     id="path6" />
  <path
     d="m 51.8341,23.1805 h -5.999 V 9.3465 h 5.835 c 1.574,0 2.557,1.016 2.557,2.393 0,1.377 -0.983,2.36 -2.557,2.36 H 45 v 4 h 6.8341 c 1.836,0 2.819,1.18 2.819,2.556 0,1.574 -1.049,2.525 -2.819,2.525 m 3.376,-7.245 c 2.066,-0.426 3.771,-2.262 3.771,-5.015 0,-2.918 -2.131,-5.573 -6.295,-5.573 h -11.506 v 21.865 h 11.867 c 4.163,0 6.359,-2.623 6.359,-5.901 0,-2.754 -1.868,-5.015 -4.196,-5.376"
     id="path10" />
  <path
     d="M 73.0326,15.3453 H 68 v 4.098 h 3.5576 l 4.294,7.769 h 5.343 l -4.917,-8.327 c 2.361,-0.557 4.786,-2.622 4.786,-6.49 m 0,0 c 0,-4.065 -2.786,-7.048 -7.343,-7.048 h -10.228 v 21.865 h 4.655 V 9.4453 h 4.885 c 1.869,0 3.278,1.114 3.278,2.95 0,1.836 -1.409,2.95 -3.278,2.95"
     id="path12" />
  <path
     d="m 116.4532,19.4105 3.409,-9.408 3.41,9.408 z m 0.492,-14.063 -8.458,21.865 h 5.31 l 1.377,-3.704 h 9.376 l 1.344,3.704 h 5.311 l -8.425,-21.865 z"
     id="path14" />
  <path
     d="m 143.8491,23.1146 h -3.967 v -13.67 h 3.967 c 4.491,0 6.851,2.983 6.851,6.852 0,3.704 -2.524,6.818 -6.851,6.818 m 0,-17.767 h -8.622 v 21.865 h 8.622 c 6.851,0 11.604,-4.327 11.604,-10.916 0,-6.589 -4.753,-10.949 -11.604,-10.949"
     id="path16" />
  <path
     d="m 225.976,5.3431 -5.734,9.27 -5.734,-9.27 h -5.146 v 21.869 h 4.656 v -14.293 l 5.012,7.622 c 0.574,0.871 1.851,0.871 2.424,0 l 5.013,-7.622 v 14.293 h 4.656 V 5.3431 Z"
     id="path18" />
  <path
     d="m 95.8253,23.3441 c -3.871,0 -7.008,-3.138 -7.008,-7.008 0,-3.871 3.137,-7.009 7.008,-7.009 3.87,0 7.008,3.138 7.008,7.009 0,3.87 -3.138,7.008 -7.008,7.008 m 0,-18.536 c -6.367,0 -11.528,5.161 -11.528,11.528 0,6.366 5.161,11.527 11.528,11.527 6.366,0 11.528,-5.161 11.528,-11.527 0,-6.367 -5.162,-11.528 -11.528,-11.528"
     id="path20" />
  <path
     d="m 176.4035,19.7269 c -1.195,2.156 -3.492,3.617 -6.132,3.617 -3.87,0 -7.008,-3.138 -7.008,-7.008 0,-3.871 3.138,-7.008 7.008,-7.008 2.618,0 4.897,1.438 6.1,3.565 l 3.27,-3.269 c -2.092,-2.915 -5.508,-4.816 -9.37,-4.816 -6.367,0 -11.527,5.161 -11.527,11.528 0,6.366 5.16,11.528 11.527,11.528 3.883,0 7.316,-1.922 9.404,-4.865 z"
     id="path22" />
  <use
     xlink:href="#path20"
     transform="translate(98.7182)"
     id="use8" />
  <ellipse
     cx="16.519531"
     cy="16.49707"
     rx="16.236328"
     ry="16.235352"
     fill="#cc092f"
     id="ellipse24" />
  <path
     d="m 30.8253,20.8832 c -1.857,-0.74 -3.557,-0.492 -5.261,0.541 0,0 -0.621,0.379 -0.807,0.496 -0.794,0.498 -1.543,0.97 -2.263,0.97 -0.687,0 -1.363,-0.184 -1.649,-1.513 -0.446,-2.073 -1.534,-7.167 -2.009,-9.69 -0.279,-1.483 -0.432,-2.282 -0.591,-2.825 -0.28,-0.954 -0.792,-1.473 -1.519,-1.556 0,0 -0.114,-0.016 -0.207,-0.016 -0.092,0 -0.218,0.018 -0.218,0.018 -0.72,0.086 -1.229,0.605 -1.507,1.554 -0.159,0.543 -0.312,1.342 -0.591,2.825 -0.475,2.523 -1.563,7.617 -2.009,9.69 -0.286,1.329 -0.962,1.513 -1.649,1.513 -0.72,0 -1.469,-0.472 -2.263,-0.97 -0.186,-0.117 -0.808,-0.496 -0.808,-0.496 -1.703,-1.033 -3.404,-1.281 -5.26,-0.541 -0.401,0.16 -0.7959632,0.339183 -1.1719632,0.520183 0.257,0.806 0.5769317,1.59925 0.9499317,2.34425 0.411,-0.202 0.8420315,-0.402433 1.2820315,-0.532433 0.634,-0.187 1.284,-0.197 1.914,0.014 0.612,0.205 1.157,0.568 1.7,0.909 1.023,0.643 2.182,1.372 3.657,1.372 2.186,0 3.72,-1.305 4.21,-3.581 0.38,-1.764 1.222,-5.702 1.763,-8.418 0,0 1.386,6.654 1.765,8.418 0.49,2.276 2.025,3.581 4.211,3.581 1.475,0 2.634,-0.729 3.657,-1.372 0.543,-0.341 1.088,-0.704 1.7,-0.909 0.629,-0.211 1.28,-0.201 1.914,-0.014 0.44,0.13 0.870387,0.330647 1.281387,0.532647 0.374,-0.745 0.693089,-1.538621 0.950089,-2.344621 -0.376,-0.181 -0.770476,-0.360026 -1.171476,-0.520026"
     fill="#ffffff"
     id="path26" />
  <g
     aria-label="CA Vantage™ Storage Resource Manager"
     id="text14"
     style="font-style:normal;font-variant:normal;font-weight:normal;font-stretch:normal;font-size:11px;line-height:normal;font-family:sans-serif;text-anchor:middle">
    <path
       d="m 13.09375,49.419922 q -0.29541,0.128906 -0.537109,0.241699 -0.236328,0.112793 -0.623047,0.236328 Q 11.605957,50 11.219238,50.069824 q -0.381347,0.0752 -0.843261,0.0752 -0.8701176,0 -1.5844731,-0.2417 Q 8.0825195,49.65625 7.5561523,49.135254 7.0405273,48.625 6.7504883,47.84082 6.4604492,47.05127 6.4604492,46.009277 q 0,-0.988281 0.2792969,-1.76709 0.2792969,-0.778808 0.8056641,-1.315917 0.5102539,-0.520997 1.2299804,-0.794922 0.7250977,-0.273926 1.6059574,-0.273926 0.644531,0 1.283691,0.155762 0.644531,0.155761 1.428711,0.547851 v 1.262207 h -0.08057 q -0.660645,-0.553222 -1.310547,-0.805664 -0.649903,-0.252441 -1.391114,-0.252441 -0.6069332,0 -1.0957027,0.19873 -0.4833984,0.19336 -0.8647461,0.606934 -0.3706055,0.402832 -0.5800781,1.020508 -0.2041016,0.612304 -0.2041016,1.417968 0,0.843262 0.225586,1.450196 0.230957,0.606933 0.5908203,0.988281 0.3759765,0.397461 0.8754883,0.59082 0.5048828,0.187988 1.0634769,0.187988 0.768066,0 1.439453,-0.263183 0.671386,-0.263184 1.256836,-0.789551 h 0.0752 z"
       style="font-style:normal;font-variant:normal;font-weight:normal;font-stretch:normal;font-size:11px;line-height:normal;font-family:sans-serif;text-anchor:middle"
       id="path23" />
    <path
       d="m 20.914062,50 h -1.1333 l -0.78418,-2.229004 H 15.537598 L 14.753418,50 h -1.07959 l 2.911133,-7.997559 H 18.00293 Z M 18.668945,46.85791 17.26709,42.931641 15.859863,46.85791 Z"
       style="font-style:normal;font-variant:normal;font-weight:normal;font-stretch:normal;font-size:11px;line-height:normal;font-family:sans-serif;text-anchor:middle"
       id="path25" />
    <path
       d="M 32.300781,42.002441 29.389648,50 H 27.97168 l -2.911133,-7.997559 h 1.138672 l 2.508301,7.036133 2.5083,-7.036133 z"
       style="font-style:normal;font-variant:normal;font-weight:normal;font-stretch:normal;font-size:11px;line-height:normal;font-family:sans-serif;text-anchor:middle"
       id="path27" />
    <path
       d="m 38.096191,50 h -1.004394 v -0.63916 q -0.134277,0.09131 -0.365235,0.257812 -0.225585,0.161133 -0.440429,0.257813 Q 36.033691,50 35.706055,50.080566 q -0.327637,0.08594 -0.768067,0.08594 -0.811035,0 -1.375,-0.537109 -0.563965,-0.53711 -0.563965,-1.369629 0,-0.682129 0.290039,-1.101075 0.295411,-0.424316 0.837891,-0.666015 0.547852,-0.241699 1.315918,-0.327637 0.768066,-0.08594 1.648926,-0.128906 v -0.155762 q 0,-0.34375 -0.123535,-0.569336 -0.118164,-0.225586 -0.34375,-0.354492 -0.214844,-0.123535 -0.515625,-0.166504 -0.300782,-0.04297 -0.628418,-0.04297 -0.397461,0 -0.886231,0.107422 -0.488769,0.102051 -1.009765,0.300781 h -0.05371 v -1.025878 q 0.29541,-0.08057 0.854004,-0.177247 0.558593,-0.09668 1.101074,-0.09668 0.633789,0 1.101074,0.107422 0.472656,0.10205 0.816406,0.354492 0.338379,0.24707 0.515625,0.63916 0.177246,0.39209 0.177246,0.972168 z m -1.004394,-1.477051 v -1.67041 q -0.461914,0.02686 -1.090332,0.08057 -0.623047,0.05371 -0.988281,0.155762 -0.435059,0.123535 -0.703614,0.386719 -0.268554,0.257812 -0.268554,0.714355 0,0.515625 0.311523,0.778809 0.311523,0.257812 0.950684,0.257812 0.531738,0 0.972168,-0.204101 0.440429,-0.209473 0.816406,-0.499512 z"
       style="font-style:normal;font-variant:normal;font-weight:normal;font-stretch:normal;font-size:11px;line-height:normal;font-family:sans-serif;text-anchor:middle"
       id="path29" />
    <path
       d="m 45.067871,50 h -1.009766 v -3.416016 q 0,-0.413574 -0.04834,-0.773437 -0.04834,-0.365235 -0.177246,-0.569336 -0.134278,-0.225586 -0.386719,-0.333008 -0.252442,-0.112793 -0.655274,-0.112793 -0.413574,0 -0.864746,0.204102 -0.451172,0.204101 -0.864746,0.520996 V 50 H 40.05127 v -5.999512 h 1.009765 v 0.666016 q 0.472656,-0.39209 0.977539,-0.612305 0.504883,-0.220215 1.036621,-0.220215 0.972168,0 1.482422,0.58545 0.510254,0.585449 0.510254,1.686523 z"
       style="font-style:normal;font-variant:normal;font-weight:normal;font-stretch:normal;font-size:11px;line-height:normal;font-family:sans-serif;text-anchor:middle"
       id="path31" />
    <path
       d="m 50.127441,49.946289 q -0.284668,0.0752 -0.623046,0.123535 -0.333008,0.04834 -0.596192,0.04834 -0.918457,0 -1.396484,-0.494141 -0.478028,-0.49414 -0.478028,-1.584472 v -3.19043 h -0.682129 v -0.848633 h 0.682129 v -1.724121 h 1.009766 v 1.724121 h 2.083984 v 0.848633 h -2.083984 v 2.733887 q 0,0.472656 0.02148,0.741211 0.02149,0.263183 0.150391,0.49414 0.118164,0.214844 0.322266,0.316895 0.209472,0.09668 0.633789,0.09668 0.24707,0 0.515625,-0.06983 0.268554,-0.0752 0.386718,-0.123535 h 0.05371 z"
       style="font-style:normal;font-variant:normal;font-weight:normal;font-stretch:normal;font-size:11px;line-height:normal;font-family:sans-serif;text-anchor:middle"
       id="path33" />
    <path
       d="m 56.01416,50 h -1.004394 v -0.63916 q -0.134278,0.09131 -0.365235,0.257812 -0.225586,0.161133 -0.440429,0.257813 Q 53.95166,50 53.624023,50.080566 q -0.327636,0.08594 -0.768066,0.08594 -0.811035,0 -1.375,-0.537109 -0.563965,-0.53711 -0.563965,-1.369629 0,-0.682129 0.290039,-1.101075 0.29541,-0.424316 0.837891,-0.666015 0.547851,-0.241699 1.315918,-0.327637 0.768066,-0.08594 1.648926,-0.128906 v -0.155762 q 0,-0.34375 -0.123536,-0.569336 -0.118164,-0.225586 -0.34375,-0.354492 -0.214843,-0.123535 -0.515625,-0.166504 -0.300781,-0.04297 -0.628418,-0.04297 -0.39746,0 -0.88623,0.107422 -0.48877,0.102051 -1.009766,0.300781 h -0.05371 v -1.025878 q 0.295411,-0.08057 0.854004,-0.177247 0.558594,-0.09668 1.101075,-0.09668 0.633789,0 1.101074,0.107422 0.472656,0.10205 0.816406,0.354492 0.338379,0.24707 0.515625,0.63916 0.177246,0.39209 0.177246,0.972168 z m -1.004394,-1.477051 v -1.67041 q -0.461914,0.02686 -1.090332,0.08057 -0.623047,0.05371 -0.988282,0.155762 -0.435058,0.123535 -0.703613,0.386719 -0.268555,0.257812 -0.268555,0.714355 0,0.515625 0.311524,0.778809 0.311523,0.257812 0.950683,0.257812 0.531739,0 0.972168,-0.204101 0.44043,-0.209473 0.816407,-0.499512 z"
       style="font-style:normal;font-variant:normal;font-weight:normal;font-stretch:normal;font-size:11px;line-height:normal;font-family:sans-serif;text-anchor:middle"
       id="path35" />
    <path
       d="m 62.835449,49.317871 q 0,1.525391 -0.692871,2.239746 -0.692871,0.714356 -2.132324,0.714356 -0.478027,0 -0.93457,-0.06983 -0.451172,-0.06445 -0.891602,-0.187988 v -1.03125 h 0.05371 q 0.24707,0.09668 0.78418,0.236328 0.537109,0.14502 1.074218,0.14502 0.515625,0 0.854004,-0.123535 0.338379,-0.123536 0.526367,-0.34375 0.187989,-0.209473 0.268555,-0.504883 0.08057,-0.29541 0.08057,-0.660645 v -0.547851 q -0.456543,0.365234 -0.875489,0.547851 -0.413574,0.177246 -1.058105,0.177246 -1.074219,0 -1.708008,-0.773437 -0.628418,-0.778809 -0.628418,-2.191406 0,-0.773438 0.214844,-1.332032 0.220215,-0.563964 0.596191,-0.972168 0.349121,-0.381347 0.848633,-0.59082 0.499512,-0.214844 0.993652,-0.214844 0.520996,0 0.870118,0.107422 0.354492,0.102051 0.746582,0.316895 l 0.06445,-0.257813 h 0.945312 z m -1.009765,-0.966797 v -3.270996 q -0.402832,-0.182617 -0.751954,-0.257812 -0.34375,-0.08057 -0.6875,-0.08057 -0.832519,0 -1.310546,0.558594 -0.478028,0.558594 -0.478028,1.62207 0,1.009766 0.354492,1.530762 0.354493,0.520996 1.17627,0.520996 0.44043,0 0.880859,-0.166504 0.445801,-0.171875 0.816407,-0.456543 z"
       style="font-style:normal;font-variant:normal;font-weight:normal;font-stretch:normal;font-size:11px;line-height:normal;font-family:sans-serif;text-anchor:middle"
       id="path37" />
    <path
       d="m 69.844727,47.10498 h -4.420411 q 0,0.553223 0.166504,0.966797 0.166504,0.408203 0.456543,0.671387 0.279297,0.257813 0.660645,0.386719 0.386719,0.128906 0.848633,0.128906 0.612304,0 1.22998,-0.241699 0.623047,-0.24707 0.886231,-0.483399 h 0.05371 v 1.101075 q -0.510253,0.214843 -1.041992,0.359863 -0.531738,0.145019 -1.117187,0.145019 -1.493164,0 -2.331055,-0.805664 -0.837891,-0.811035 -0.837891,-2.298828 0,-1.471679 0.800293,-2.336426 0.805665,-0.864746 2.116211,-0.864746 1.213868,0 1.869141,0.708985 0.660645,0.708984 0.660645,2.01416 z m -0.982911,-0.773437 q -0.0054,-0.794922 -0.402832,-1.229981 -0.392089,-0.435058 -1.197754,-0.435058 -0.811035,0 -1.294433,0.478027 -0.478027,0.478028 -0.542481,1.187012 z"
       style="font-style:normal;font-variant:normal;font-weight:normal;font-stretch:normal;font-size:11px;line-height:normal;font-family:sans-serif;text-anchor:middle"
       id="path39" />
    <path
       d="m 79.92627,45.783691 h -0.666016 v -3.313964 h -0.107422 l -1.272949,2.422363 h -0.424317 l -1.283691,-2.459961 h -0.134277 v 3.351562 h -0.660645 v -3.78125 h 1.27832 l 1.025879,2.051758 1.025879,-2.051758 h 1.219239 z m -5.489258,-3.152832 h -1.229981 v 3.152832 h -0.682129 v -3.152832 h -1.22998 v -0.628418 h 3.14209 z"
       style="font-style:normal;font-variant:normal;font-weight:normal;font-stretch:normal;font-size:11px;line-height:normal;font-family:sans-serif;text-anchor:middle"
       id="path41" />
    <path
       d="m 91.876953,47.717285 q 0,0.467285 -0.220215,0.923828 -0.214843,0.456543 -0.606933,0.773438 -0.429688,0.34375 -1.004395,0.537109 -0.569336,0.19336 -1.375,0.19336 -0.864746,0 -1.557617,-0.161133 -0.6875,-0.161133 -1.401856,-0.478028 v -1.332031 h 0.0752 q 0.606933,0.504883 1.401855,0.778809 0.794922,0.273925 1.493164,0.273925 0.988282,0 1.536133,-0.370605 0.553223,-0.370605 0.553223,-0.988281 0,-0.531739 -0.263184,-0.78418 -0.257812,-0.252441 -0.789551,-0.39209 -0.402832,-0.107422 -0.875488,-0.177246 -0.467285,-0.06982 -0.993652,-0.177246 -1.063477,-0.225586 -1.579102,-0.768066 -0.510254,-0.547852 -0.510254,-1.42334 0,-1.004395 0.848633,-1.643555 0.848633,-0.644531 2.153809,-0.644531 0.843261,0 1.546875,0.161133 0.703613,0.161132 1.246093,0.397461 v 1.256836 h -0.0752 q -0.456543,-0.386719 -1.203125,-0.639161 -0.741211,-0.257812 -1.520019,-0.257812 -0.854004,0 -1.375,0.354492 -0.515625,0.354492 -0.515625,0.913086 0,0.499512 0.257812,0.78418 0.257813,0.284668 0.907715,0.435058 0.34375,0.0752 0.977539,0.182617 0.633789,0.107422 1.074219,0.220215 0.891601,0.236328 1.342773,0.714356 0.451172,0.478027 0.451172,1.337402 z"
       style="font-style:normal;font-variant:normal;font-weight:normal;font-stretch:normal;font-size:11px;line-height:normal;font-family:sans-serif;text-anchor:middle"
       id="path43" />
    <path
       d="m 96.619629,49.946289 q -0.284668,0.0752 -0.623047,0.123535 -0.333008,0.04834 -0.596191,0.04834 -0.918457,0 -1.396485,-0.494141 -0.478027,-0.49414 -0.478027,-1.584472 v -3.19043 H 92.84375 v -0.848633 h 0.682129 v -1.724121 h 1.009766 v 1.724121 h 2.083984 v 0.848633 h -2.083984 v 2.733887 q 0,0.472656 0.02148,0.741211 0.02148,0.263183 0.150391,0.49414 0.118164,0.214844 0.322265,0.316895 0.209473,0.09668 0.633789,0.09668 0.247071,0 0.515625,-0.06983 0.268555,-0.0752 0.386719,-0.123535 h 0.05371 z"
       style="font-style:normal;font-variant:normal;font-weight:normal;font-stretch:normal;font-size:11px;line-height:normal;font-family:sans-serif;text-anchor:middle"
       id="path45" />
    <path
       d="m 102.95752,47.00293 q 0,1.466308 -0.75195,2.314941 -0.75196,0.848633 -2.01416,0.848633 -1.272953,0 -2.024906,-0.848633 -0.746582,-0.848633 -0.746582,-2.314941 0,-1.466309 0.746582,-2.314942 0.751953,-0.854004 2.024906,-0.854004 1.2622,0 2.01416,0.854004 0.75195,0.848633 0.75195,2.314942 z m -1.04199,0 q 0,-1.165528 -0.45655,-1.729493 -0.45654,-0.569335 -1.26757,-0.569335 -0.821781,0 -1.278324,0.569335 -0.451172,0.563965 -0.451172,1.729493 0,1.127929 0.456543,1.713379 0.456543,0.580078 1.272953,0.580078 0.80566,0 1.2622,-0.574707 0.46192,-0.580078 0.46192,-1.71875 z"
       style="font-style:normal;font-variant:normal;font-weight:normal;font-stretch:normal;font-size:11px;line-height:normal;font-family:sans-serif;text-anchor:middle"
       id="path47" />
    <path
       d="m 108.26953,45.101562 h -0.0537 q -0.22559,-0.05371 -0.44043,-0.0752 -0.20947,-0.02685 -0.49951,-0.02685 -0.46729,0 -0.90234,0.209472 -0.43506,0.204102 -0.8379,0.531739 V 50 h -1.00976 v -5.999512 h 1.00976 v 0.886231 q 0.60157,-0.483399 1.05811,-0.682129 0.46191,-0.204102 0.93994,-0.204102 0.26319,0 0.38135,0.01611 0.11816,0.01074 0.35449,0.04834 z"
       style="font-style:normal;font-variant:normal;font-weight:normal;font-stretch:normal;font-size:11px;line-height:normal;font-family:sans-serif;text-anchor:middle"
       id="path49" />
    <path
       d="m 113.89307,50 h -1.0044 v -0.63916 q -0.13428,0.09131 -0.36523,0.257812 -0.22559,0.161133 -0.44043,0.257813 -0.25244,0.123535 -0.58008,0.204101 -0.32764,0.08594 -0.76807,0.08594 -0.81103,0 -1.375,-0.537109 -0.56396,-0.53711 -0.56396,-1.369629 0,-0.682129 0.29004,-1.101075 0.29541,-0.424316 0.83789,-0.666015 0.54785,-0.241699 1.31592,-0.327637 0.76806,-0.08594 1.64892,-0.128906 v -0.155762 q 0,-0.34375 -0.12353,-0.569336 -0.11817,-0.225586 -0.34375,-0.354492 -0.21485,-0.123535 -0.51563,-0.166504 -0.30078,-0.04297 -0.62842,-0.04297 -0.39746,0 -0.88623,0.107422 -0.48877,0.102051 -1.00976,0.300781 h -0.0537 v -1.025878 q 0.29541,-0.08057 0.854,-0.177247 0.55859,-0.09668 1.10107,-0.09668 0.63379,0 1.10108,0.107422 0.47266,0.10205 0.81641,0.354492 0.33837,0.24707 0.51562,0.63916 0.17725,0.39209 0.17725,0.972168 z m -1.0044,-1.477051 v -1.67041 q -0.46191,0.02686 -1.09033,0.08057 -0.62305,0.05371 -0.98828,0.155762 -0.43506,0.123535 -0.70361,0.386719 -0.26856,0.257812 -0.26856,0.714355 0,0.515625 0.31152,0.778809 0.31153,0.257812 0.95069,0.257812 0.53174,0 0.97217,-0.204101 0.44043,-0.209473 0.8164,-0.499512 z"
       style="font-style:normal;font-variant:normal;font-weight:normal;font-stretch:normal;font-size:11px;line-height:normal;font-family:sans-serif;text-anchor:middle"
       id="path51" />
    <path
       d="m 120.71436,49.317871 q 0,1.525391 -0.69288,2.239746 -0.69287,0.714356 -2.13232,0.714356 -0.47803,0 -0.93457,-0.06983 -0.45117,-0.06445 -0.8916,-0.187988 v -1.03125 h 0.0537 q 0.24707,0.09668 0.78418,0.236328 0.53711,0.14502 1.07422,0.14502 0.51562,0 0.854,-0.123535 0.33838,-0.123536 0.52637,-0.34375 0.18799,-0.209473 0.26855,-0.504883 0.0806,-0.29541 0.0806,-0.660645 v -0.547851 q -0.45654,0.365234 -0.87549,0.547851 -0.41357,0.177246 -1.0581,0.177246 -1.07422,0 -1.70801,-0.773437 -0.62842,-0.778809 -0.62842,-2.191406 0,-0.773438 0.21484,-1.332032 0.22022,-0.563964 0.5962,-0.972168 0.34912,-0.381347 0.84863,-0.59082 0.49951,-0.214844 0.99365,-0.214844 0.521,0 0.87012,0.107422 0.35449,0.102051 0.74658,0.316895 l 0.0645,-0.257813 h 0.94532 z m -1.00977,-0.966797 v -3.270996 q -0.40283,-0.182617 -0.75195,-0.257812 -0.34375,-0.08057 -0.6875,-0.08057 -0.83252,0 -1.31055,0.558594 -0.47803,0.558594 -0.47803,1.62207 0,1.009766 0.35449,1.530762 0.3545,0.520996 1.17627,0.520996 0.44043,0 0.88086,-0.166504 0.4458,-0.171875 0.81641,-0.456543 z"
       style="font-style:normal;font-variant:normal;font-weight:normal;font-stretch:normal;font-size:11px;line-height:normal;font-family:sans-serif;text-anchor:middle"
       id="path53" />
    <path
       d="m 127.72363,47.10498 h -4.42041 q 0,0.553223 0.16651,0.966797 0.1665,0.408203 0.45654,0.671387 0.2793,0.257813 0.66064,0.386719 0.38672,0.128906 0.84864,0.128906 0.6123,0 1.22998,-0.241699 0.62304,-0.24707 0.88623,-0.483399 h 0.0537 v 1.101075 q -0.51026,0.214843 -1.04199,0.359863 -0.53174,0.145019 -1.11719,0.145019 -1.49316,0 -2.33106,-0.805664 -0.83789,-0.811035 -0.83789,-2.298828 0,-1.471679 0.8003,-2.336426 0.80566,-0.864746 2.11621,-0.864746 1.21386,0 1.86914,0.708985 0.66064,0.708984 0.66064,2.01416 z m -0.98291,-0.773437 q -0.005,-0.794922 -0.40283,-1.229981 -0.39209,-0.435058 -1.19775,-0.435058 -0.81104,0 -1.29444,0.478027 -0.47802,0.478028 -0.54248,1.187012 z"
       style="font-style:normal;font-variant:normal;font-weight:normal;font-stretch:normal;font-size:11px;line-height:normal;font-family:sans-serif;text-anchor:middle"
       id="path55" />
    <path
       d="m 139.81934,50 h -1.38038 l -2.6748,-3.179688 h -1.49854 V 50 h -1.06347 v -7.997559 h 2.23974 q 0.7251,0 1.2085,0.09668 0.4834,0.09131 0.87012,0.333008 0.43506,0.273926 0.67676,0.692871 0.24707,0.413574 0.24707,1.052734 0,0.864746 -0.43506,1.450196 -0.43506,0.580078 -1.19776,0.875488 z m -2.48682,-5.74707 q 0,-0.34375 -0.12354,-0.606934 -0.11816,-0.268555 -0.39746,-0.451172 -0.23095,-0.155762 -0.54785,-0.214844 -0.31689,-0.06445 -0.74658,-0.06445 h -1.25147 v 3.018555 h 1.07422 q 0.50489,0 0.88086,-0.08594 0.37598,-0.09131 0.63916,-0.333008 0.2417,-0.225586 0.3545,-0.515625 0.11816,-0.29541 0.11816,-0.746582 z"
       style="font-style:normal;font-variant:normal;font-weight:normal;font-stretch:normal;font-size:11px;line-height:normal;font-family:sans-serif;text-anchor:middle"
       id="path57" />
    <path
       d="m 145.79199,47.10498 h -4.42041 q 0,0.553223 0.16651,0.966797 0.1665,0.408203 0.45654,0.671387 0.2793,0.257813 0.66064,0.386719 0.38672,0.128906 0.84864,0.128906 0.6123,0 1.22998,-0.241699 0.62304,-0.24707 0.88623,-0.483399 h 0.0537 v 1.101075 q -0.51026,0.214843 -1.04199,0.359863 -0.53174,0.145019 -1.11719,0.145019 -1.49317,0 -2.33106,-0.805664 -0.83789,-0.811035 -0.83789,-2.298828 0,-1.471679 0.8003,-2.336426 0.80566,-0.864746 2.11621,-0.864746 1.21386,0 1.86914,0.708985 0.66064,0.708984 0.66064,2.01416 z m -0.98291,-0.773437 q -0.005,-0.794922 -0.40283,-1.229981 -0.39209,-0.435058 -1.19775,-0.435058 -0.81104,0 -1.29444,0.478027 -0.47802,0.478028 -0.54248,1.187012 z"
       style="font-style:normal;font-variant:normal;font-weight:normal;font-stretch:normal;font-size:11px;line-height:normal;font-family:sans-serif;text-anchor:middle"
       id="path59" />
    <path
       d="m 151.60889,48.270508 q 0,0.821777 -0.68213,1.348144 -0.67676,0.526368 -1.85303,0.526368 -0.66602,0 -1.22461,-0.155762 -0.55322,-0.161133 -0.9292,-0.349121 v -1.133301 h 0.0537 q 0.47803,0.359863 1.06348,0.574707 0.58545,0.209473 1.12256,0.209473 0.66601,0 1.04199,-0.214844 0.37598,-0.214844 0.37598,-0.676758 0,-0.354492 -0.2041,-0.537109 -0.20411,-0.182618 -0.78418,-0.311524 -0.21485,-0.04834 -0.56397,-0.112793 -0.34375,-0.06445 -0.62842,-0.139648 -0.78955,-0.209473 -1.12256,-0.612305 -0.32763,-0.408203 -0.32763,-0.999023 0,-0.370606 0.15039,-0.698242 0.15576,-0.327637 0.46728,-0.58545 0.30078,-0.252441 0.7627,-0.397461 0.46728,-0.15039 1.04199,-0.15039 0.53711,0 1.08496,0.134277 0.55322,0.128906 0.91846,0.316895 v 1.079589 h -0.0537 q -0.38672,-0.284668 -0.93994,-0.478027 -0.55323,-0.19873 -1.08496,-0.19873 -0.55323,0 -0.93458,0.214843 -0.38134,0.209473 -0.38134,0.628418 0,0.370606 0.23095,0.558594 0.22559,0.187988 0.73047,0.306152 0.2793,0.06445 0.62305,0.128907 0.34912,0.06445 0.58008,0.118164 0.70361,0.161133 1.08496,0.553222 0.38135,0.397461 0.38135,1.052735 z"
       style="font-style:normal;font-variant:normal;font-weight:normal;font-stretch:normal;font-size:11px;line-height:normal;font-family:sans-serif;text-anchor:middle"
       id="path61" />
    <path
       d="m 158.17236,47.00293 q 0,1.466308 -0.75195,2.314941 -0.75195,0.848633 -2.01416,0.848633 -1.27295,0 -2.0249,-0.848633 -0.74658,-0.848633 -0.74658,-2.314941 0,-1.466309 0.74658,-2.314942 0.75195,-0.854004 2.0249,-0.854004 1.26221,0 2.01416,0.854004 0.75195,0.848633 0.75195,2.314942 z m -1.04199,0 q 0,-1.165528 -0.45654,-1.729493 -0.45654,-0.569335 -1.26758,-0.569335 -0.82178,0 -1.27832,0.569335 -0.45117,0.563965 -0.45117,1.729493 0,1.127929 0.45654,1.713379 0.45654,0.580078 1.27295,0.580078 0.80566,0 1.26221,-0.574707 0.46191,-0.580078 0.46191,-1.71875 z"
       style="font-style:normal;font-variant:normal;font-weight:normal;font-stretch:normal;font-size:11px;line-height:normal;font-family:sans-serif;text-anchor:middle"
       id="path63" />
    <path
       d="m 164.71436,50 h -1.00977 v -0.666016 q -0.51025,0.402832 -0.97754,0.617676 -0.46728,0.214844 -1.03125,0.214844 -0.94531,0 -1.47168,-0.574707 -0.52637,-0.580078 -0.52637,-1.697266 v -3.894043 h 1.00977 v 3.416016 q 0,0.456543 0.043,0.78418 0.043,0.322265 0.18262,0.553222 0.14501,0.236328 0.37597,0.34375 0.23096,0.107422 0.67139,0.107422 0.39209,0 0.854,-0.204101 0.46729,-0.204102 0.87012,-0.520997 v -4.479492 h 1.00977 z"
       style="font-style:normal;font-variant:normal;font-weight:normal;font-stretch:normal;font-size:11px;line-height:normal;font-family:sans-serif;text-anchor:middle"
       id="path65" />
    <path
       d="m 170.44531,45.101562 h -0.0537 q -0.22558,-0.05371 -0.44043,-0.0752 -0.20947,-0.02685 -0.49951,-0.02685 -0.46729,0 -0.90234,0.209472 -0.43506,0.204102 -0.83789,0.531739 V 50 h -1.00977 v -5.999512 h 1.00977 v 0.886231 q 0.60156,-0.483399 1.0581,-0.682129 0.46192,-0.204102 0.93994,-0.204102 0.26319,0 0.38135,0.01611 0.11816,0.01074 0.35449,0.04834 z"
       style="font-style:normal;font-variant:normal;font-weight:normal;font-stretch:normal;font-size:11px;line-height:normal;font-family:sans-serif;text-anchor:middle"
       id="path67" />
    <path
       d="m 175.84326,49.624023 q -0.50488,0.2417 -0.96142,0.375977 -0.45118,0.134277 -0.96143,0.134277 -0.6499,0 -1.19238,-0.187988 -0.54248,-0.193359 -0.9292,-0.580078 -0.39209,-0.386719 -0.60694,-0.977539 -0.21484,-0.59082 -0.21484,-1.380371 0,-1.47168 0.80566,-2.309571 0.81104,-0.83789 2.1377,-0.83789 0.51563,0 1.00977,0.145019 0.49951,0.14502 0.91308,0.354493 v 1.122558 h -0.0537 q -0.46191,-0.359863 -0.95605,-0.553223 -0.48877,-0.193359 -0.95606,-0.193359 -0.85937,0 -1.35889,0.580078 -0.49414,0.574707 -0.49414,1.691895 0,1.084961 0.4834,1.67041 0.48877,0.580078 1.36963,0.580078 0.30615,0 0.62305,-0.08057 0.31689,-0.08057 0.56933,-0.209473 0.22022,-0.112793 0.41358,-0.236328 0.19336,-0.128906 0.30615,-0.220215 h 0.0537 z"
       style="font-style:normal;font-variant:normal;font-weight:normal;font-stretch:normal;font-size:11px;line-height:normal;font-family:sans-serif;text-anchor:middle"
       id="path69" />
    <path
       d="m 182.16504,47.10498 h -4.42041 q 0,0.553223 0.1665,0.966797 0.16651,0.408203 0.45655,0.671387 0.27929,0.257813 0.66064,0.386719 0.38672,0.128906 0.84863,0.128906 0.61231,0 1.22998,-0.241699 0.62305,-0.24707 0.88623,-0.483399 h 0.0537 v 1.101075 q -0.51025,0.214843 -1.04199,0.359863 -0.53174,0.145019 -1.11718,0.145019 -1.49317,0 -2.33106,-0.805664 -0.83789,-0.811035 -0.83789,-2.298828 0,-1.471679 0.80029,-2.336426 0.80567,-0.864746 2.11621,-0.864746 1.21387,0 1.86914,0.708985 0.66065,0.708984 0.66065,2.01416 z m -0.98291,-0.773437 q -0.005,-0.794922 -0.40283,-1.229981 -0.39209,-0.435058 -1.19776,-0.435058 -0.81103,0 -1.29443,0.478027 -0.47803,0.478028 -0.54248,1.187012 z"
       style="font-style:normal;font-variant:normal;font-weight:normal;font-stretch:normal;font-size:11px;line-height:normal;font-family:sans-serif;text-anchor:middle"
       id="path71" />
    <path
       d="m 194.76562,50 h -1.06347 v -6.891113 l -2.22363,4.688965 h -0.63379 l -2.20752,-4.688965 V 50 h -0.99366 v -7.997559 h 1.4502 l 2.13232,4.452637 2.0625,-4.452637 h 1.47705 z"
       style="font-style:normal;font-variant:normal;font-weight:normal;font-stretch:normal;font-size:11px;line-height:normal;font-family:sans-serif;text-anchor:middle"
       id="path73" />
    <path
       d="m 201.50635,50 h -1.0044 v -0.63916 q -0.13427,0.09131 -0.36523,0.257812 -0.22559,0.161133 -0.44043,0.257813 -0.25244,0.123535 -0.58008,0.204101 -0.32764,0.08594 -0.76807,0.08594 -0.81103,0 -1.375,-0.537109 -0.56396,-0.53711 -0.56396,-1.369629 0,-0.682129 0.29004,-1.101075 0.29541,-0.424316 0.83789,-0.666015 0.54785,-0.241699 1.31592,-0.327637 0.76806,-0.08594 1.64892,-0.128906 v -0.155762 q 0,-0.34375 -0.12353,-0.569336 -0.11817,-0.225586 -0.34375,-0.354492 -0.21485,-0.123535 -0.51563,-0.166504 -0.30078,-0.04297 -0.62842,-0.04297 -0.39746,0 -0.88623,0.107422 -0.48877,0.102051 -1.00976,0.300781 h -0.0537 v -1.025878 q 0.29541,-0.08057 0.854,-0.177247 0.5586,-0.09668 1.10108,-0.09668 0.63379,0 1.10107,0.107422 0.47266,0.10205 0.81641,0.354492 0.33838,0.24707 0.51562,0.63916 0.17725,0.39209 0.17725,0.972168 z m -1.0044,-1.477051 v -1.67041 q -0.46191,0.02686 -1.09033,0.08057 -0.62305,0.05371 -0.98828,0.155762 -0.43506,0.123535 -0.70361,0.386719 -0.26856,0.257812 -0.26856,0.714355 0,0.515625 0.31153,0.778809 0.31152,0.257812 0.95068,0.257812 0.53174,0 0.97217,-0.204101 0.44043,-0.209473 0.8164,-0.499512 z"
       style="font-style:normal;font-variant:normal;font-weight:normal;font-stretch:normal;font-size:11px;line-height:normal;font-family:sans-serif;text-anchor:middle"
       id="path75" />
    <path
       d="m 208.47803,50 h -1.00977 v -3.416016 q 0,-0.413574 -0.0483,-0.773437 -0.0483,-0.365235 -0.17724,-0.569336 -0.13428,-0.225586 -0.38672,-0.333008 -0.25244,-0.112793 -0.65528,-0.112793 -0.41357,0 -0.86474,0.204102 -0.45117,0.204101 -0.86475,0.520996 V 50 h -1.00976 v -5.999512 h 1.00976 v 0.666016 q 0.47266,-0.39209 0.97754,-0.612305 0.50488,-0.220215 1.03662,-0.220215 0.97217,0 1.48242,0.58545 0.51026,0.585449 0.51026,1.686523 z"
       style="font-style:normal;font-variant:normal;font-weight:normal;font-stretch:normal;font-size:11px;line-height:normal;font-family:sans-serif;text-anchor:middle"
       id="path77" />
    <path
       d="m 215.08447,50 h -1.00439 v -0.63916 q -0.13428,0.09131 -0.36524,0.257812 -0.22558,0.161133 -0.44043,0.257813 -0.25244,0.123535 -0.58007,0.204101 -0.32764,0.08594 -0.76807,0.08594 -0.81104,0 -1.375,-0.537109 -0.56397,-0.53711 -0.56397,-1.369629 0,-0.682129 0.29004,-1.101075 0.29541,-0.424316 0.83789,-0.666015 0.54786,-0.241699 1.31592,-0.327637 0.76807,-0.08594 1.64893,-0.128906 v -0.155762 q 0,-0.34375 -0.12354,-0.569336 -0.11816,-0.225586 -0.34375,-0.354492 -0.21484,-0.123535 -0.51562,-0.166504 -0.30078,-0.04297 -0.62842,-0.04297 -0.39746,0 -0.88623,0.107422 -0.48877,0.102051 -1.00977,0.300781 h -0.0537 v -1.025878 q 0.29541,-0.08057 0.85401,-0.177247 0.55859,-0.09668 1.10107,-0.09668 0.63379,0 1.10108,0.107422 0.47265,0.10205 0.8164,0.354492 0.33838,0.24707 0.51563,0.63916 0.17724,0.39209 0.17724,0.972168 z m -1.00439,-1.477051 v -1.67041 q -0.46192,0.02686 -1.09033,0.08057 -0.62305,0.05371 -0.98829,0.155762 -0.43505,0.123535 -0.70361,0.386719 -0.26855,0.257812 -0.26855,0.714355 0,0.515625 0.31152,0.778809 0.31152,0.257812 0.95068,0.257812 0.53174,0 0.97217,-0.204101 0.44043,-0.209473 0.81641,-0.499512 z"
       style="font-style:normal;font-variant:normal;font-weight:normal;font-stretch:normal;font-size:11px;line-height:normal;font-family:sans-serif;text-anchor:middle"
       id="path79" />
    <path
       d="m 221.90576,49.317871 q 0,1.525391 -0.69287,2.239746 -0.69287,0.714356 -2.13232,0.714356 -0.47803,0 -0.93457,-0.06983 -0.45118,-0.06445 -0.89161,-0.187988 v -1.03125 h 0.0537 q 0.24707,0.09668 0.78418,0.236328 0.5371,0.14502 1.07421,0.14502 0.51563,0 0.85401,-0.123535 0.33838,-0.123536 0.52636,-0.34375 0.18799,-0.209473 0.26856,-0.504883 0.0806,-0.29541 0.0806,-0.660645 v -0.547851 q -0.45655,0.365234 -0.87549,0.547851 -0.41358,0.177246 -1.05811,0.177246 -1.07422,0 -1.70801,-0.773437 -0.62841,-0.778809 -0.62841,-2.191406 0,-0.773438 0.21484,-1.332032 0.22022,-0.563964 0.59619,-0.972168 0.34912,-0.381347 0.84863,-0.59082 0.49952,-0.214844 0.99366,-0.214844 0.52099,0 0.87011,0.107422 0.3545,0.102051 0.74659,0.316895 l 0.0645,-0.257813 h 0.94531 z M 220.896,48.351074 v -3.270996 q -0.40284,-0.182617 -0.75196,-0.257812 -0.34375,-0.08057 -0.6875,-0.08057 -0.83252,0 -1.31054,0.558594 -0.47803,0.558594 -0.47803,1.62207 0,1.009766 0.35449,1.530762 0.35449,0.520996 1.17627,0.520996 0.44043,0 0.88086,-0.166504 0.4458,-0.171875 0.81641,-0.456543 z"
       style="font-style:normal;font-variant:normal;font-weight:normal;font-stretch:normal;font-size:11px;line-height:normal;font-family:sans-serif;text-anchor:middle"
       id="path81" />
    <path
       d="m 228.91504,47.10498 h -4.42041 q 0,0.553223 0.1665,0.966797 0.16651,0.408203 0.45655,0.671387 0.27929,0.257813 0.66064,0.386719 0.38672,0.128906 0.84863,0.128906 0.61231,0 1.22998,-0.241699 0.62305,-0.24707 0.88623,-0.483399 h 0.0537 v 1.101075 q -0.51025,0.214843 -1.04199,0.359863 -0.53174,0.145019 -1.11718,0.145019 -1.49317,0 -2.33106,-0.805664 -0.83789,-0.811035 -0.83789,-2.298828 0,-1.471679 0.80029,-2.336426 0.80567,-0.864746 2.11621,-0.864746 1.21387,0 1.86914,0.708985 0.66065,0.708984 0.66065,2.01416 z m -0.98291,-0.773437 q -0.005,-0.794922 -0.40283,-1.229981 -0.39209,-0.435058 -1.19776,-0.435058 -0.81103,0 -1.29443,0.478027 -0.47803,0.478028 -0.54248,1.187012 z"
       style="font-style:normal;font-variant:normal;font-weight:normal;font-stretch:normal;font-size:11px;line-height:normal;font-family:sans-serif;text-anchor:middle"
       id="path83" />
    <path
       d="m 234.18945,45.101562 h -0.0537 q -0.22558,-0.05371 -0.44043,-0.0752 -0.20947,-0.02685 -0.49951,-0.02685 -0.46728,0 -0.90234,0.209472 -0.43506,0.204102 -0.83789,0.531739 V 50 h -1.00977 v -5.999512 h 1.00977 v 0.886231 q 0.60156,-0.483399 1.0581,-0.682129 0.46192,-0.204102 0.93994,-0.204102 0.26319,0 0.38135,0.01611 0.11816,0.01074 0.35449,0.04834 z"
       style="font-style:normal;font-variant:normal;font-weight:normal;font-stretch:normal;font-size:11px;line-height:normal;font-family:sans-serif;text-anchor:middle"
       id="path85" />
  </g>
</svg>
