<?xml version="1.0" encoding="UTF-8" standalone="no"?>
<svg
   role="img"
   viewBox="-4.53 -4.53 248.82 41.82"
   version="1.1"
   id="svg19"
   xmlns:xlink="http://www.w3.org/1999/xlink"
   xmlns="http://www.w3.org/2000/svg"
   xmlns:svg="http://www.w3.org/2000/svg">
  <defs
     id="defs23" />
  <title
     id="title2">Broadcom Corporation logo</title>
  <path
     d="M237.32 9.09c-1.06 0-1.93-.86-1.93-1.92s.87-1.93 1.93-1.93 1.93.87 1.93 1.93-.87 1.92-1.93 1.92m0-4.32c-1.32 0-2.4 1.08-2.4 2.4 0 1.32 1.08 2.4 2.4 2.4 1.32 0 2.4-1.08 2.4-2.4 0-1.32-1.08-2.4-2.4-2.4"
     id="path4" />
  <path
     d="M237.48 7.07l-.51.01-.01-.62h.51c.19-.01.34.11.34.3.01.19-.14.31-.33.31m.83-.32c-.01-.42-.3-.72-.77-.72l-1.07.02.03 2.26h.49l-.01-.81h.35l.46.8.55-.01-.52-.86c.24-.06.49-.28.49-.68M51.8341 23.1805h-5.999V9.3465h5.835c1.574 0 2.557 1.016 2.557 2.393 0 1.377-.983 2.36-2.557 2.36H45v4h6.8341c1.836 0 2.819 1.18 2.819 2.556 0 1.574-1.049 2.525-2.819 2.525m3.376-7.245c2.066-.426 3.771-2.262 3.771-5.015 0-2.918-2.131-5.573-6.295-5.573h-11.506v21.865h11.867c4.163 0 6.359-2.623 6.359-5.901 0-2.754-1.868-5.015-4.196-5.376m17.8225-.5902H68v4.098h3.5576l4.294 7.769h5.343l-4.917-8.327c2.361-.557 4.786-2.622 4.786-6.49m0 0c0-4.065-2.786-7.048-7.343-7.048h-10.228v21.865h4.655V9.4453h4.885c1.869 0 3.278 1.114 3.278 2.95s-1.409 2.95-3.278 2.95m43.4206 4.0652l3.409-9.408 3.41 9.408zm.492-14.063l-8.458 21.865h5.31l1.377-3.704h9.376l1.344 3.704h5.311l-8.425-21.865zm26.9039 17.7671h-3.967v-13.67h3.967c4.491 0 6.851 2.983 6.851 6.852 0 3.704-2.524 6.818-6.851 6.818m0-17.767h-8.622v21.865h8.622c6.851 0 11.604-4.327 11.604-10.916s-4.753-10.949-11.604-10.949m82.1269-.0045l-5.734 9.27-5.734-9.27h-5.146v21.869h4.656v-14.293l5.012 7.622c.574.871 1.851.871 2.424 0l5.013-7.622v14.293h4.656V5.3431z"
     id="path6" />
  <path
     id="a"
     d="M95.8253 23.3441c-3.871 0-7.008-3.138-7.008-7.008 0-3.871 3.137-7.009 7.008-7.009 3.87 0 7.008 3.138 7.008 7.009 0 3.87-3.138 7.008-7.008 7.008m0-18.536c-6.367 0-11.528 5.161-11.528 11.528 0 6.366 5.161 11.527 11.528 11.527 6.366 0 11.528-5.161 11.528-11.527 0-6.367-5.162-11.528-11.528-11.528" />
  <path
     d="M176.4035 19.7269c-1.195 2.156-3.492 3.617-6.132 3.617-3.87 0-7.008-3.138-7.008-7.008 0-3.871 3.138-7.008 7.008-7.008 2.618 0 4.897 1.438 6.1 3.565l3.27-3.269c-2.092-2.915-5.508-4.816-9.37-4.816-6.367 0-11.527 5.161-11.527 11.528 0 6.366 5.16 11.528 11.527 11.528 3.883 0 7.316-1.922 9.404-4.865z"
     id="path9" />
  <use
     transform="translate(98.718)"
     xlink:href="#a"
     id="use11" />
  <ellipse
     cx="16.52"
     cy="16.497"
     fill="#cc092f"
     rx="16.236"
     ry="16.235"
     id="ellipse13" />
  <path
     fill="#fff"
     d="M30.8253 20.8832c-1.857-.74-3.557-.492-5.261.541 0 0-.621.379-.807.496-.794.498-1.543.97-2.263.97-.687 0-1.363-.184-1.649-1.513-.446-2.073-1.534-7.167-2.009-9.69-.279-1.483-.432-2.282-.591-2.825-.28-.954-.792-1.473-1.519-1.556 0 0-.114-.016-.207-.016-.092 0-.218.018-.218.018-.72.086-1.229.605-1.507 1.554-.159.543-.312 1.342-.591 2.825-.475 2.523-1.563 7.617-2.009 9.69-.286 1.329-.962 1.513-1.649 1.513-.72 0-1.469-.472-2.263-.97-.186-.117-.808-.496-.808-.496-1.703-1.033-3.404-1.281-5.26-.541-.401.16-.79596.33918-1.17196.52018.257.806.57693 1.59925.94993 2.34425.411-.202.84203-.40243 1.28203-.53243.634-.187 1.284-.197 1.914.014.612.205 1.157.568 1.7.909 1.023.643 2.182 1.372 3.657 1.372 2.186 0 3.72-1.305 4.21-3.581.38-1.764 1.222-5.702 1.763-8.418 0 0 1.386 6.654 1.765 8.418.49 2.276 2.025 3.581 4.211 3.581 1.475 0 2.634-.729 3.657-1.372.543-.341 1.088-.704 1.7-.909.629-.211 1.28-.201 1.914-.014.44.13.87039.33065 1.28139.53265.374-.745.69309-1.53862.95009-2.34462-.376-.181-.77048-.36003-1.17148-.52003"
     id="path15" />
  <g
     aria-label="CA z/OS Extended Jobs"
     id="text17"
     style="font-size:11px;text-anchor:middle">
    <path
       d="m 66.842621,49.419922 q -0.29541,0.128906 -0.53711,0.241699 -0.236328,0.112793 -0.623046,0.236328 Q 65.354828,50 64.968109,50.069824 q -0.381348,0.0752 -0.843262,0.0752 -0.870117,0 -1.584472,-0.2417 Q 61.83139,49.65625 61.305023,49.135254 60.789398,48.625 60.499359,47.84082 60.20932,47.05127 60.20932,46.009277 q 0,-0.988281 0.279297,-1.76709 0.279297,-0.778808 0.805664,-1.315917 0.510254,-0.520997 1.22998,-0.794922 0.725098,-0.273926 1.605958,-0.273926 0.644531,0 1.283691,0.155762 0.644531,0.155761 1.428711,0.547851 v 1.262207 h -0.08057 q -0.660644,-0.553222 -1.310546,-0.805664 -0.649903,-0.252441 -1.391114,-0.252441 -0.606933,0 -1.095703,0.19873 -0.483398,0.19336 -0.864746,0.606934 -0.370605,0.402832 -0.580078,1.020508 -0.204102,0.612304 -0.204102,1.417968 0,0.843262 0.225586,1.450196 0.230957,0.606933 0.590821,0.988281 0.375976,0.397461 0.875488,0.59082 0.504883,0.187988 1.063476,0.187988 0.768067,0 1.439454,-0.263183 0.671386,-0.263184 1.256836,-0.789551 h 0.07519 z"
       style="font-size:11px;text-anchor:middle"
       id="path25" />
    <path
       d="m 74.662933,50 h -1.1333 l -0.78418,-2.229004 H 69.286469 L 68.502289,50 h -1.07959 l 2.911133,-7.997559 h 1.417969 z m -2.245117,-3.14209 -1.401855,-3.926269 -1.407227,3.926269 z"
       style="font-size:11px;text-anchor:middle"
       id="path27" />
    <path
       d="m 84.014008,50 h -4.844727 v -0.746582 l 3.496582,-4.409668 h -3.421387 v -0.843262 h 4.678223 v 0.719727 l -3.512695,4.425781 h 3.604004 z"
       style="font-size:11px;text-anchor:middle"
       id="path29" />
    <path
       d="m 89.068207,41.642578 -3.851074,9.990234 h -0.9292 l 3.834961,-9.990234 z"
       style="font-size:11px;text-anchor:middle"
       id="path31" />
    <path
       d="m 96.491058,42.920898 q 0.48877,0.53711 0.746582,1.315918 0.263184,0.778809 0.263184,1.76709 0,0.988281 -0.268555,1.772461 -0.263183,0.778809 -0.741211,1.299805 -0.49414,0.54248 -1.170898,0.816406 -0.671387,0.273926 -1.536133,0.273926 -0.843262,0 -1.536133,-0.279297 -0.6875,-0.279297 -1.170898,-0.811035 -0.483399,-0.531738 -0.746582,-1.305176 -0.257813,-0.773437 -0.257813,-1.76709 0,-0.977539 0.257813,-1.750976 0.257812,-0.778809 0.751953,-1.332032 0.472656,-0.526367 1.170898,-0.805664 0.703614,-0.279297 1.530762,-0.279297 0.859375,0 1.541504,0.284668 0.6875,0.279297 1.165527,0.800293 z m -0.09668,3.083008 q 0,-1.557617 -0.698243,-2.400879 -0.698242,-0.848632 -1.906738,-0.848632 -1.219238,0 -1.91748,0.848632 -0.692871,0.843262 -0.692871,2.400879 0,1.573731 0.708984,2.411621 0.708984,0.83252 1.901367,0.83252 1.192383,0 1.895996,-0.83252 0.708985,-0.83789 0.708985,-2.411621 z"
       style="font-size:11px;text-anchor:middle"
       id="path33" />
    <path
       d="m 104.99887,47.717285 q 0,0.467285 -0.22021,0.923828 -0.21485,0.456543 -0.60694,0.773438 -0.42969,0.34375 -1.00439,0.537109 -0.56934,0.19336 -1.375,0.19336 -0.86475,0 -1.55762,-0.161133 -0.687499,-0.161133 -1.401855,-0.478028 v -1.332031 h 0.0752 q 0.606933,0.504883 1.401859,0.778809 0.79492,0.273925 1.49316,0.273925 0.98828,0 1.53613,-0.370605 0.55323,-0.370605 0.55323,-0.988281 0,-0.531739 -0.26319,-0.78418 -0.25781,-0.252441 -0.78955,-0.39209 -0.40283,-0.107422 -0.87549,-0.177246 -0.46728,-0.06982 -0.99365,-0.177246 -1.063476,-0.225586 -1.579101,-0.768066 -0.510254,-0.547852 -0.510254,-1.42334 0,-1.004395 0.848633,-1.643555 0.848632,-0.644531 2.153812,-0.644531 0.84326,0 1.54687,0.161133 0.70361,0.161132 1.2461,0.397461 v 1.256836 h -0.0752 q -0.45654,-0.386719 -1.20313,-0.639161 -0.74121,-0.257812 -1.52001,-0.257812 -0.85401,0 -1.375,0.354492 -0.51563,0.354492 -0.51563,0.913086 0,0.499512 0.25781,0.78418 0.25782,0.284668 0.90772,0.435058 0.34375,0.0752 0.97754,0.182617 0.63379,0.107422 1.07422,0.220215 0.8916,0.236328 1.34277,0.714356 0.45117,0.478027 0.45117,1.337402 z"
       style="font-size:11px;text-anchor:middle"
       id="path35" />
    <path
       d="m 115.84311,50 h -5.26904 v -7.997559 h 5.26904 v 0.945313 h -4.20557 v 2.191406 h 4.20557 v 0.945313 h -4.20557 v 2.970214 h 4.20557 z"
       style="font-size:11px;text-anchor:middle"
       id="path37" />
    <path
       d="m 122.64828,50 h -1.27294 L 119.6727,47.695801 117.95932,50 h -1.17627 l 2.3418,-2.991699 -2.32032,-3.007813 h 1.27295 l 1.6919,2.266602 1.69726,-2.266602 h 1.18164 l -2.35791,2.954102 z"
       style="font-size:11px;text-anchor:middle"
       id="path39" />
    <path
       d="m 127.07944,49.946289 q -0.28467,0.0752 -0.62305,0.123535 -0.33301,0.04834 -0.59619,0.04834 -0.91846,0 -1.39649,-0.494141 -0.47802,-0.49414 -0.47802,-1.584472 v -3.19043 h -0.68213 v -0.848633 h 0.68213 v -1.724121 h 1.00976 v 1.724121 h 2.08399 v 0.848633 h -2.08399 v 2.733887 q 0,0.472656 0.0215,0.741211 0.0215,0.263183 0.15039,0.49414 0.11816,0.214844 0.32226,0.316895 0.20948,0.09668 0.63379,0.09668 0.24707,0 0.51563,-0.06983 0.26855,-0.0752 0.38672,-0.123535 h 0.0537 z"
       style="font-size:11px;text-anchor:middle"
       id="path41" />
    <path
       d="m 133.32602,47.10498 h -4.42041 q 0,0.553223 0.1665,0.966797 0.16651,0.408203 0.45655,0.671387 0.27929,0.257813 0.66064,0.386719 0.38672,0.128906 0.84863,0.128906 0.61231,0 1.22998,-0.241699 0.62305,-0.24707 0.88623,-0.483399 h 0.0537 v 1.101075 q -0.51026,0.214843 -1.042,0.359863 -0.53174,0.145019 -1.11718,0.145019 -1.49317,0 -2.33106,-0.805664 -0.83789,-0.811035 -0.83789,-2.298828 0,-1.471679 0.80029,-2.336426 0.80567,-0.864746 2.11621,-0.864746 1.21387,0 1.86914,0.708985 0.66065,0.708984 0.66065,2.01416 z m -0.98291,-0.773437 q -0.005,-0.794922 -0.40283,-1.229981 -0.39209,-0.435058 -1.19776,-0.435058 -0.81103,0 -1.29443,0.478027 -0.47803,0.478028 -0.54248,1.187012 z"
       style="font-size:11px;text-anchor:middle"
       id="path43" />
    <path
       d="m 139.87338,50 h -1.00976 v -3.416016 q 0,-0.413574 -0.0483,-0.773437 -0.0483,-0.365235 -0.17725,-0.569336 -0.13428,-0.225586 -0.38672,-0.333008 -0.25244,-0.112793 -0.65527,-0.112793 -0.41358,0 -0.86475,0.204102 -0.45117,0.204101 -0.86474,0.520996 V 50 h -1.00977 v -5.999512 h 1.00977 v 0.666016 q 0.47265,-0.39209 0.97754,-0.612305 0.50488,-0.220215 1.03662,-0.220215 0.97216,0 1.48242,0.58545 0.51025,0.585449 0.51025,1.686523 z"
       style="font-size:11px;text-anchor:middle"
       id="path45" />
    <path
       d="m 146.68393,50 h -1.00977 v -0.628418 q -0.43505,0.375977 -0.90771,0.585449 -0.47266,0.209473 -1.02588,0.209473 -1.07422,0 -1.70801,-0.827149 -0.62842,-0.827148 -0.62842,-2.293457 0,-0.762695 0.21485,-1.358886 0.22021,-0.596192 0.59082,-1.015137 0.36523,-0.408203 0.84863,-0.623047 0.48877,-0.214844 1.00977,-0.214844 0.47265,0 0.83789,0.102051 0.36523,0.09668 0.76806,0.306152 v -2.599609 h 1.00977 z m -1.00977,-1.477051 v -3.442871 q -0.4082,-0.182617 -0.73046,-0.252441 -0.32227,-0.06983 -0.70362,-0.06983 -0.84863,0 -1.32129,0.590821 -0.47265,0.59082 -0.47265,1.675781 0,1.068848 0.36523,1.627441 0.36524,0.553223 1.1709,0.553223 0.42969,0 0.87012,-0.187988 0.44043,-0.19336 0.82177,-0.494141 z"
       style="font-size:11px;text-anchor:middle"
       id="path47" />
    <path
       d="m 153.69321,47.10498 h -4.42041 q 0,0.553223 0.1665,0.966797 0.1665,0.408203 0.45654,0.671387 0.2793,0.257813 0.66065,0.386719 0.38672,0.128906 0.84863,0.128906 0.61231,0 1.22998,-0.241699 0.62305,-0.24707 0.88623,-0.483399 h 0.0537 v 1.101075 q -0.51025,0.214843 -1.04199,0.359863 -0.53174,0.145019 -1.11719,0.145019 -1.49316,0 -2.33105,-0.805664 -0.83789,-0.811035 -0.83789,-2.298828 0,-1.471679 0.80029,-2.336426 0.80566,-0.864746 2.11621,-0.864746 1.21387,0 1.86914,0.708985 0.66065,0.708984 0.66065,2.01416 z m -0.98291,-0.773437 q -0.005,-0.794922 -0.40284,-1.229981 -0.39209,-0.435058 -1.19775,-0.435058 -0.81103,0 -1.29443,0.478027 -0.47803,0.478028 -0.54248,1.187012 z"
       style="font-size:11px;text-anchor:middle"
       id="path49" />
    <path
       d="m 160.09018,50 h -1.00977 v -0.628418 q -0.43505,0.375977 -0.90771,0.585449 -0.47266,0.209473 -1.02588,0.209473 -1.07422,0 -1.70801,-0.827149 -0.62842,-0.827148 -0.62842,-2.293457 0,-0.762695 0.21485,-1.358886 0.22021,-0.596192 0.59082,-1.015137 0.36523,-0.408203 0.84863,-0.623047 0.48877,-0.214844 1.00977,-0.214844 0.47265,0 0.83789,0.102051 0.36523,0.09668 0.76806,0.306152 v -2.599609 h 1.00977 z m -1.00977,-1.477051 v -3.442871 q -0.4082,-0.182617 -0.73046,-0.252441 -0.32227,-0.06983 -0.70362,-0.06983 -0.84863,0 -1.32129,0.590821 -0.47265,0.59082 -0.47265,1.675781 0,1.068848 0.36523,1.627441 0.36524,0.553223 1.1709,0.553223 0.42969,0 0.87012,-0.187988 0.44043,-0.19336 0.82177,-0.494141 z"
       style="font-size:11px;text-anchor:middle"
       id="path51" />
    <path
       d="m 168.95786,47.921387 q 0,1.052734 -0.64454,1.62207 -0.63916,0.569336 -1.71875,0.569336 -0.25781,0 -0.6875,-0.04834 -0.42968,-0.04297 -0.71972,-0.107422 v -0.993652 h 0.0591 q 0.22021,0.07519 0.54248,0.155762 0.32227,0.08057 0.66064,0.08057 0.49415,0 0.78418,-0.112793 0.29541,-0.112793 0.43506,-0.322266 0.14502,-0.214843 0.18262,-0.526367 0.043,-0.311523 0.043,-0.719726 v -4.667481 h -1.6919 v -0.848633 h 2.75538 z"
       style="font-size:11px;text-anchor:middle"
       id="path53" />
    <path
       d="m 176.06381,47.00293 q 0,1.466308 -0.75195,2.314941 -0.75195,0.848633 -2.01416,0.848633 -1.27295,0 -2.0249,-0.848633 -0.74659,-0.848633 -0.74659,-2.314941 0,-1.466309 0.74659,-2.314942 0.75195,-0.854004 2.0249,-0.854004 1.26221,0 2.01416,0.854004 0.75195,0.848633 0.75195,2.314942 z m -1.04199,0 q 0,-1.165528 -0.45654,-1.729493 -0.45655,-0.569335 -1.26758,-0.569335 -0.82178,0 -1.27832,0.569335 -0.45117,0.563965 -0.45117,1.729493 0,1.127929 0.45654,1.713379 0.45654,0.580078 1.27295,0.580078 0.80566,0 1.26221,-0.574707 0.46191,-0.580078 0.46191,-1.71875 z"
       style="font-size:11px;text-anchor:middle"
       id="path55" />
    <path
       d="m 182.91196,46.95459 q 0,0.751953 -0.21485,1.353515 -0.20947,0.601563 -0.56933,1.009766 -0.38135,0.424316 -0.83789,0.63916 -0.45655,0.209473 -1.0044,0.209473 -0.51025,0 -0.8916,-0.123535 -0.38135,-0.118164 -0.75195,-0.322266 L 178.57748,50 h -0.94531 v -8.357422 h 1.00977 v 2.986328 q 0.42431,-0.349121 0.90234,-0.569336 0.47803,-0.225586 1.07422,-0.225586 1.06348,0 1.67578,0.816407 0.61768,0.816406 0.61768,2.304199 z m -1.042,0.02685 q 0,-1.074218 -0.35449,-1.627441 -0.35449,-0.558594 -1.14404,-0.558594 -0.44043,0 -0.8916,0.19336 -0.45117,0.187988 -0.83789,0.488769 v 3.4375 q 0.42968,0.193359 0.73584,0.268555 0.31152,0.0752 0.70361,0.0752 0.83789,0 1.31055,-0.547852 0.47802,-0.553222 0.47802,-1.729492 z"
       style="font-size:11px;text-anchor:middle"
       id="path57" />
    <path
       d="m 188.77182,48.270508 q 0,0.821777 -0.68213,1.348144 -0.67676,0.526368 -1.85303,0.526368 -0.66601,0 -1.22461,-0.155762 -0.55322,-0.161133 -0.92919,-0.349121 v -1.133301 h 0.0537 q 0.47802,0.359863 1.06347,0.574707 0.58545,0.209473 1.12256,0.209473 0.66602,0 1.04199,-0.214844 0.37598,-0.214844 0.37598,-0.676758 0,-0.354492 -0.2041,-0.537109 -0.2041,-0.182618 -0.78418,-0.311524 -0.21484,-0.04834 -0.56397,-0.112793 -0.34375,-0.06445 -0.62841,-0.139648 -0.78955,-0.209473 -1.12256,-0.612305 -0.32764,-0.408203 -0.32764,-0.999023 0,-0.370606 0.15039,-0.698242 0.15576,-0.327637 0.46729,-0.58545 0.30078,-0.252441 0.76269,-0.397461 0.46729,-0.15039 1.04199,-0.15039 0.53711,0 1.08496,0.134277 0.55323,0.128906 0.91846,0.316895 v 1.079589 h -0.0537 q -0.38672,-0.284668 -0.93994,-0.478027 -0.55322,-0.19873 -1.08496,-0.19873 -0.55322,0 -0.93457,0.214843 -0.38135,0.209473 -0.38135,0.628418 0,0.370606 0.23096,0.558594 0.22558,0.187988 0.73047,0.306152 0.27929,0.06445 0.62304,0.128907 0.34912,0.06445 0.58008,0.118164 0.70361,0.161133 1.08496,0.553222 0.38135,0.397461 0.38135,1.052735 z"
       style="font-size:11px;text-anchor:middle"
       id="path59" />
  </g>
</svg>
