<?xml version="1.0" encoding="UTF-8" standalone="no"?>
<svg
   role="img"
   viewBox="-4.53 -4.53 248.82 41.82"
   version="1.1"
   id="svg19"
   xmlns:xlink="http://www.w3.org/1999/xlink"
   xmlns="http://www.w3.org/2000/svg"
   xmlns:svg="http://www.w3.org/2000/svg">
  <defs
     id="defs23" />
  <title
     id="title2">Broadcom Corporation logo</title>
  <path
     d="M237.32 9.09c-1.06 0-1.93-.86-1.93-1.92s.87-1.93 1.93-1.93 1.93.87 1.93 1.93-.87 1.92-1.93 1.92m0-4.32c-1.32 0-2.4 1.08-2.4 2.4 0 1.32 1.08 2.4 2.4 2.4 1.32 0 2.4-1.08 2.4-2.4 0-1.32-1.08-2.4-2.4-2.4"
     id="path4" />
  <path
     d="M237.48 7.07l-.51.01-.01-.62h.51c.19-.01.34.11.34.3.01.19-.14.31-.33.31m.83-.32c-.01-.42-.3-.72-.77-.72l-1.07.02.03 2.26h.49l-.01-.81h.35l.46.8.55-.01-.52-.86c.24-.06.49-.28.49-.68M51.8341 23.1805h-5.999V9.3465h5.835c1.574 0 2.557 1.016 2.557 2.393 0 1.377-.983 2.36-2.557 2.36H45v4h6.8341c1.836 0 2.819 1.18 2.819 2.556 0 1.574-1.049 2.525-2.819 2.525m3.376-7.245c2.066-.426 3.771-2.262 3.771-5.015 0-2.918-2.131-5.573-6.295-5.573h-11.506v21.865h11.867c4.163 0 6.359-2.623 6.359-5.901 0-2.754-1.868-5.015-4.196-5.376m17.8225-.5902H68v4.098h3.5576l4.294 7.769h5.343l-4.917-8.327c2.361-.557 4.786-2.622 4.786-6.49m0 0c0-4.065-2.786-7.048-7.343-7.048h-10.228v21.865h4.655V9.4453h4.885c1.869 0 3.278 1.114 3.278 2.95s-1.409 2.95-3.278 2.95m43.4206 4.0652l3.409-9.408 3.41 9.408zm.492-14.063l-8.458 21.865h5.31l1.377-3.704h9.376l1.344 3.704h5.311l-8.425-21.865zm26.9039 17.7671h-3.967v-13.67h3.967c4.491 0 6.851 2.983 6.851 6.852 0 3.704-2.524 6.818-6.851 6.818m0-17.767h-8.622v21.865h8.622c6.851 0 11.604-4.327 11.604-10.916s-4.753-10.949-11.604-10.949m82.1269-.0045l-5.734 9.27-5.734-9.27h-5.146v21.869h4.656v-14.293l5.012 7.622c.574.871 1.851.871 2.424 0l5.013-7.622v14.293h4.656V5.3431z"
     id="path6" />
  <path
     id="a"
     d="M95.8253 23.3441c-3.871 0-7.008-3.138-7.008-7.008 0-3.871 3.137-7.009 7.008-7.009 3.87 0 7.008 3.138 7.008 7.009 0 3.87-3.138 7.008-7.008 7.008m0-18.536c-6.367 0-11.528 5.161-11.528 11.528 0 6.366 5.161 11.527 11.528 11.527 6.366 0 11.528-5.161 11.528-11.527 0-6.367-5.162-11.528-11.528-11.528" />
  <path
     d="M176.4035 19.7269c-1.195 2.156-3.492 3.617-6.132 3.617-3.87 0-7.008-3.138-7.008-7.008 0-3.871 3.138-7.008 7.008-7.008 2.618 0 4.897 1.438 6.1 3.565l3.27-3.269c-2.092-2.915-5.508-4.816-9.37-4.816-6.367 0-11.527 5.161-11.527 11.528 0 6.366 5.16 11.528 11.527 11.528 3.883 0 7.316-1.922 9.404-4.865z"
     id="path9" />
  <use
     transform="translate(98.718)"
     xlink:href="#a"
     id="use11" />
  <ellipse
     cx="16.52"
     cy="16.497"
     fill="#cc092f"
     rx="16.236"
     ry="16.235"
     id="ellipse13" />
  <path
     fill="#fff"
     d="M30.8253 20.8832c-1.857-.74-3.557-.492-5.261.541 0 0-.621.379-.807.496-.794.498-1.543.97-2.263.97-.687 0-1.363-.184-1.649-1.513-.446-2.073-1.534-7.167-2.009-9.69-.279-1.483-.432-2.282-.591-2.825-.28-.954-.792-1.473-1.519-1.556 0 0-.114-.016-.207-.016-.092 0-.218.018-.218.018-.72.086-1.229.605-1.507 1.554-.159.543-.312 1.342-.591 2.825-.475 2.523-1.563 7.617-2.009 9.69-.286 1.329-.962 1.513-1.649 1.513-.72 0-1.469-.472-2.263-.97-.186-.117-.808-.496-.808-.496-1.703-1.033-3.404-1.281-5.26-.541-.401.16-.79596.33918-1.17196.52018.257.806.57693 1.59925.94993 2.34425.411-.202.84203-.40243 1.28203-.53243.634-.187 1.284-.197 1.914.014.612.205 1.157.568 1.7.909 1.023.643 2.182 1.372 3.657 1.372 2.186 0 3.72-1.305 4.21-3.581.38-1.764 1.222-5.702 1.763-8.418 0 0 1.386 6.654 1.765 8.418.49 2.276 2.025 3.581 4.211 3.581 1.475 0 2.634-.729 3.657-1.372.543-.341 1.088-.704 1.7-.909.629-.211 1.28-.201 1.914-.014.44.13.87039.33065 1.28139.53265.374-.745.69309-1.53862.95009-2.34462-.376-.181-.77048-.36003-1.17148-.52003"
     id="path15" />
  <g
     aria-label="CA z/OS Extended Files"
     id="text17"
     style="font-size:10px;text-anchor:middle">
    <path
       d="m 71.924652,49.472656 q -0.268555,0.117188 -0.488281,0.219727 -0.214844,0.102539 -0.566406,0.214844 -0.297852,0.09277 -0.649414,0.15625 -0.34668,0.06836 -0.766602,0.06836 -0.791016,0 -1.44043,-0.219727 Q 67.368988,49.6875 66.890472,49.213867 66.421722,48.75 66.158051,48.037109 65.894379,47.319336 65.894379,46.37207 q 0,-0.898437 0.253906,-1.606445 0.253906,-0.708008 0.732422,-1.196289 0.463867,-0.473633 1.118164,-0.722656 0.65918,-0.249024 1.459961,-0.249024 0.585937,0 1.166992,0.141602 0.585937,0.141601 1.298828,0.498047 v 1.147461 h -0.07324 q -0.600586,-0.50293 -1.191406,-0.732422 -0.590821,-0.229492 -1.264649,-0.229492 -0.551758,0 -0.996094,0.180664 -0.439453,0.175781 -0.786132,0.551757 -0.336914,0.366211 -0.527344,0.927735 -0.185547,0.55664 -0.185547,1.289062 0,0.766602 0.205078,1.31836 0.209961,0.551757 0.53711,0.898437 0.341796,0.361328 0.795898,0.53711 0.458984,0.170898 0.966797,0.170898 0.698242,0 1.308594,-0.239258 0.610351,-0.239258 1.142578,-0.717773 h 0.06836 z"
       id="path25" />
    <path
       d="M 79.024261,50 H 77.993988 L 77.281097,47.973633 H 74.136566 L 73.423676,50 H 72.44223 l 2.646485,-7.270508 h 1.289062 z m -2.041015,-2.856445 -1.274414,-3.569336 -1.279297,3.569336 z"
       id="path27" />
    <path
       d="M 87.525238,50 H 83.120941 V 49.321289 L 86.299652,45.3125 h -3.110351 v -0.766602 h 4.252929 v 0.654297 l -3.193359,4.023438 h 3.276367 z"
       id="path29" />
    <path
       d="m 92.119965,42.402344 -3.500977,9.082031 h -0.844727 l 3.486329,-9.082031 z"
       id="path31" />
    <path
       d="m 98.858246,43.564453 q 0.444336,0.488281 0.678711,1.196289 0.239258,0.708008 0.239258,1.606445 0,0.898438 -0.244141,1.611329 -0.239258,0.708007 -0.673828,1.18164 -0.449219,0.493164 -1.064453,0.742188 -0.610352,0.249023 -1.396485,0.249023 -0.766601,0 -1.396484,-0.253906 -0.625,-0.253906 -1.064453,-0.737305 -0.439453,-0.483398 -0.678711,-1.186523 -0.234375,-0.703125 -0.234375,-1.606446 0,-0.888671 0.234375,-1.591796 0.234375,-0.708008 0.683594,-1.210938 0.429687,-0.478516 1.064453,-0.732422 0.639648,-0.253906 1.391601,-0.253906 0.78125,0 1.401368,0.258789 0.625,0.253906 1.05957,0.727539 z m -0.08789,2.802734 q 0,-1.416015 -0.634765,-2.182617 -0.634766,-0.771484 -1.733399,-0.771484 -1.108398,0 -1.743164,0.771484 -0.629883,0.766602 -0.629883,2.182617 0,1.430665 0.644532,2.192383 0.644531,0.756836 1.728515,0.756836 1.083985,0 1.723633,-0.756836 0.644531,-0.761718 0.644531,-2.192383 z"
       id="path33" />
    <path
       d="m 106.59262,47.924805 q 0,0.424804 -0.20019,0.839843 -0.19532,0.415039 -0.55176,0.703125 -0.39063,0.3125 -0.91309,0.488282 -0.51758,0.175781 -1.25,0.175781 -0.78613,0 -1.41601,-0.146484 -0.625,-0.146485 -1.27442,-0.434571 v -1.210937 h 0.0684 q 0.55176,0.458984 1.27442,0.708008 0.72265,0.249023 1.35742,0.249023 0.89843,0 1.39648,-0.336914 0.50293,-0.336914 0.50293,-0.898438 0,-0.483398 -0.23926,-0.71289 -0.23437,-0.229492 -0.71777,-0.356446 -0.36621,-0.09766 -0.7959,-0.161132 -0.4248,-0.06348 -0.90332,-0.161133 -0.9668,-0.205078 -1.43555,-0.698242 -0.46386,-0.498047 -0.46386,-1.293946 0,-0.913086 0.77148,-1.49414 0.77149,-0.585938 1.95801,-0.585938 0.7666,0 1.40625,0.146485 0.63965,0.146484 1.13281,0.361328 v 1.142578 h -0.0684 q -0.41504,-0.351563 -1.09375,-0.581055 -0.67383,-0.234375 -1.38183,-0.234375 -0.77637,0 -1.25,0.322266 -0.46875,0.322265 -0.46875,0.830078 0,0.454101 0.23437,0.712891 0.23438,0.258789 0.8252,0.395507 0.3125,0.06836 0.88867,0.166016 0.57617,0.09766 0.97656,0.200195 0.81055,0.214844 1.2207,0.649414 0.41016,0.434571 0.41016,1.215821 z"
       id="path35" />
    <path
       d="m 116.45102,50 h -4.79004 v -7.270508 h 4.79004 v 0.859375 h -3.82324 v 1.992188 h 3.82324 v 0.859375 h -3.82324 v 2.700195 h 3.82324 z"
       id="path37" />
    <path
       d="m 122.63266,50 h -1.15723 L 119.92758,47.905273 118.36996,50 h -1.06933 l 2.1289,-2.719727 -2.10937,-2.734375 h 1.15723 l 1.53808,2.060547 1.54297,-2.060547 h 1.07422 l -2.14355,2.685547 z"
       id="path39" />
    <path
       d="m 126.66098,49.951172 q -0.25879,0.06836 -0.56641,0.112305 -0.30273,0.04395 -0.54199,0.04395 -0.83496,0 -1.26953,-0.449219 -0.43457,-0.449219 -0.43457,-1.44043 v -2.90039 h -0.62012 v -0.771485 h 0.62012 v -1.567382 h 0.91797 v 1.567382 h 1.89453 v 0.771485 h -1.89453 v 2.485351 q 0,0.429688 0.0195,0.673828 0.0195,0.239258 0.13672,0.449219 0.10742,0.195313 0.29297,0.288086 0.19043,0.08789 0.57617,0.08789 0.22461,0 0.46875,-0.06348 0.24414,-0.06836 0.35156,-0.112304 h 0.0488 z"
       id="path41" />
    <path
       d="m 132.33481,47.368164 h -4.01856 q 0,0.50293 0.15137,0.878906 0.15137,0.371094 0.41504,0.610352 0.25391,0.234375 0.60059,0.351562 0.35156,0.117188 0.77148,0.117188 0.55664,0 1.11816,-0.219727 0.56641,-0.224609 0.80567,-0.439453 h 0.0488 v 1.000977 q -0.46387,0.195312 -0.94727,0.327148 -0.4834,0.131836 -1.01562,0.131836 -1.35743,0 -2.11914,-0.732422 -0.76172,-0.737304 -0.76172,-2.089844 0,-1.33789 0.72754,-2.124023 0.73242,-0.786133 1.92382,-0.786133 1.10352,0 1.69922,0.644531 0.60059,0.644532 0.60059,1.831055 z m -0.89356,-0.703125 q -0.005,-0.722656 -0.36621,-1.118164 -0.35644,-0.395508 -1.08886,-0.395508 -0.73731,0 -1.17676,0.43457 -0.43457,0.434571 -0.49317,1.079102 z"
       id="path43" />
    <path
       d="m 138.28696,50 h -0.91797 v -3.105469 q 0,-0.375976 -0.0439,-0.703125 -0.0439,-0.332031 -0.16113,-0.517578 -0.12207,-0.205078 -0.35156,-0.302734 -0.22949,-0.102539 -0.59571,-0.102539 -0.37597,0 -0.78613,0.185547 -0.41015,0.185546 -0.78613,0.473632 V 50 h -0.91797 v -5.454102 h 0.91797 v 0.605469 q 0.42969,-0.356445 0.88867,-0.55664 0.45898,-0.200196 0.94238,-0.200196 0.88379,0 1.34766,0.532227 0.46387,0.532226 0.46387,1.533203 z"
       id="path45" />
    <path
       d="m 144.47836,50 h -0.91797 v -0.571289 q -0.3955,0.341797 -0.82519,0.532226 -0.42969,0.19043 -0.93262,0.19043 -0.97656,0 -1.55273,-0.751953 -0.57129,-0.751953 -0.57129,-2.084961 0,-0.693359 0.19531,-1.235351 0.2002,-0.541993 0.53711,-0.922852 0.33203,-0.371094 0.77148,-0.566406 0.44434,-0.195313 0.91797,-0.195313 0.42969,0 0.76172,0.09277 0.33203,0.08789 0.69824,0.27832 v -2.363281 h 0.91797 z m -0.91797,-1.342773 v -3.129883 q -0.37109,-0.166016 -0.66406,-0.229492 -0.29297,-0.06348 -0.63965,-0.06348 -0.77148,0 -1.20117,0.537109 -0.42969,0.53711 -0.42969,1.523438 0,0.97168 0.33204,1.479492 0.33203,0.50293 1.06445,0.50293 0.39062,0 0.79101,-0.170899 0.40039,-0.175781 0.74707,-0.449218 z"
       id="path47" />
    <path
       d="m 150.85043,47.368164 h -4.01855 q 0,0.50293 0.15137,0.878906 0.15136,0.371094 0.41503,0.610352 0.25391,0.234375 0.60059,0.351562 0.35156,0.117188 0.77149,0.117188 0.55664,0 1.11816,-0.219727 0.56641,-0.224609 0.80566,-0.439453 h 0.0488 v 1.000977 q -0.46387,0.195312 -0.94726,0.327148 -0.4834,0.131836 -1.01563,0.131836 -1.35742,0 -2.11914,-0.732422 -0.76172,-0.737304 -0.76172,-2.089844 0,-1.33789 0.72754,-2.124023 0.73242,-0.786133 1.92383,-0.786133 1.10351,0 1.69922,0.644531 0.60058,0.644532 0.60058,1.831055 z m -0.89355,-0.703125 q -0.005,-0.722656 -0.36621,-1.118164 -0.35645,-0.395508 -1.08887,-0.395508 -0.7373,0 -1.17676,0.43457 -0.43457,0.434571 -0.49316,1.079102 z"
       id="path49" />
    <path
       d="m 156.66586,50 h -0.91797 v -0.571289 q -0.3955,0.341797 -0.82519,0.532226 -0.42969,0.19043 -0.93262,0.19043 -0.97656,0 -1.55273,-0.751953 -0.57129,-0.751953 -0.57129,-2.084961 0,-0.693359 0.19531,-1.235351 0.2002,-0.541993 0.53711,-0.922852 0.33203,-0.371094 0.77148,-0.566406 0.44434,-0.195313 0.91797,-0.195313 0.42969,0 0.76172,0.09277 0.33203,0.08789 0.69824,0.27832 v -2.363281 h 0.91797 z m -0.91797,-1.342773 v -3.129883 q -0.37109,-0.166016 -0.66406,-0.229492 -0.29297,-0.06348 -0.63965,-0.06348 -0.77148,0 -1.20117,0.537109 -0.42969,0.53711 -0.42969,1.523438 0,0.97168 0.33204,1.479492 0.33203,0.50293 1.06445,0.50293 0.39062,0 0.79101,-0.170899 0.40039,-0.175781 0.74707,-0.449218 z"
       id="path51" />
    <path
       d="m 166.70493,43.588867 h -3.67676 v 2.050781 h 3.15918 v 0.859375 h -3.15918 V 50 h -0.9668 v -7.270508 h 4.64356 z"
       id="path53" />
    <path
       d="m 168.72153,43.632812 h -1.03516 v -0.952148 h 1.03516 z M 168.66293,50 h -0.91797 v -5.454102 h 0.91797 z"
       id="path55" />
    <path
       d="m 171.40707,50 h -0.91796 v -7.597656 h 0.91796 z"
       id="path57" />
    <path
       d="m 177.78891,47.368164 h -4.01855 q 0,0.50293 0.15136,0.878906 0.15137,0.371094 0.41504,0.610352 0.25391,0.234375 0.60059,0.351562 0.35156,0.117188 0.77148,0.117188 0.55664,0 1.11817,-0.219727 0.5664,-0.224609 0.80566,-0.439453 h 0.0488 v 1.000977 q -0.46387,0.195312 -0.94727,0.327148 -0.4834,0.131836 -1.01562,0.131836 -1.35742,0 -2.11914,-0.732422 -0.76172,-0.737304 -0.76172,-2.089844 0,-1.33789 0.72754,-2.124023 0.73242,-0.786133 1.92383,-0.786133 1.10351,0 1.69921,0.644531 0.60059,0.644532 0.60059,1.831055 z m -0.89355,-0.703125 q -0.005,-0.722656 -0.36622,-1.118164 -0.35644,-0.395508 -1.08886,-0.395508 -0.73731,0 -1.17676,0.43457 -0.43457,0.434571 -0.49316,1.079102 z"
       id="path59" />
    <path
       d="m 183.077,48.427734 q 0,0.747071 -0.62012,1.225586 -0.61524,0.478516 -1.68457,0.478516 -0.60547,0 -1.11328,-0.141602 -0.50293,-0.146484 -0.84473,-0.317382 v -1.030274 h 0.0488 q 0.43457,0.327149 0.9668,0.522461 0.53222,0.19043 1.0205,0.19043 0.60547,0 0.94727,-0.195313 0.3418,-0.195312 0.3418,-0.615234 0,-0.322266 -0.18555,-0.488281 -0.18555,-0.166016 -0.71289,-0.283204 -0.19531,-0.04395 -0.5127,-0.102539 -0.3125,-0.05859 -0.57129,-0.126953 -0.71777,-0.190429 -1.0205,-0.55664 -0.29786,-0.371094 -0.29786,-0.908203 0,-0.336915 0.13672,-0.634766 0.1416,-0.297852 0.42481,-0.532227 0.27344,-0.229492 0.69336,-0.361328 0.4248,-0.136719 0.94726,-0.136719 0.48828,0 0.98633,0.122071 0.50293,0.117187 0.83496,0.288086 v 0.981445 h -0.0488 q -0.35156,-0.258789 -0.85449,-0.43457 -0.50293,-0.180664 -0.98633,-0.180664 -0.50293,0 -0.84961,0.195312 -0.34668,0.19043 -0.34668,0.571289 0,0.336914 0.20997,0.507813 0.20507,0.170898 0.66406,0.27832 0.2539,0.05859 0.5664,0.117188 0.31739,0.05859 0.52735,0.107421 0.63965,0.146485 0.98633,0.50293 0.34668,0.361328 0.34668,0.957031 z"
       id="path61" />
  </g>
</svg>
