<?xml version="1.0" encoding="UTF-8" standalone="no"?>
<svg
   xmlns:dc="http://purl.org/dc/elements/1.1/"
   xmlns:cc="http://creativecommons.org/ns#"
   xmlns:rdf="http://www.w3.org/1999/02/22-rdf-syntax-ns#"
   xmlns:svg="http://www.w3.org/2000/svg"
   xmlns="http://www.w3.org/2000/svg"
   xmlns:xlink="http://www.w3.org/1999/xlink"
   xmlns:sodipodi="http://sodipodi.sourceforge.net/DTD/sodipodi-0.dtd"
   xmlns:inkscape="http://www.inkscape.org/namespaces/inkscape"
   height="96.904083"
   width="377.20932"
   xml:space="preserve"
   viewBox="0 0 377.20932 96.904083"
   y="0px"
   x="0px"
   id="Layer_1"
   version="1.1"
   sodipodi:docname="ca_idms_rest_api.svg"
   inkscape:version="1.0 (4035a4f, 2020-05-01)"><sodipodi:namedview
   inkscape:document-rotation="0"
   pagecolor="#ffffff"
   bordercolor="#666666"
   borderopacity="1"
   objecttolerance="10"
   gridtolerance="10"
   guidetolerance="10"
   inkscape:pageopacity="0"
   inkscape:pageshadow="2"
   inkscape:window-width="1114"
   inkscape:window-height="860"
   id="namedview298"
   showgrid="false"
   inkscape:zoom="1.0356666"
   inkscape:cx="471.69809"
   inkscape:cy="-11.892267"
   inkscape:window-x="212"
   inkscape:window-y="43"
   inkscape:window-maximized="0"
   inkscape:current-layer="Layer_1" /><metadata
   id="metadata49"><rdf:RDF><cc:Work
       rdf:about=""><dc:format>image/svg+xml</dc:format><dc:type
         rdf:resource="http://purl.org/dc/dcmitype/StillImage" /><dc:title /></cc:Work></rdf:RDF></metadata><defs
   id="defs47" />
<style
   id="style2"
   type="text/css">
	.st0{fill-rule:evenodd;clip-rule:evenodd;fill:#CF4044;}
	.st1{fill:#000F9F;}
	.st2{fill:#CC092F;}
	.st3{font-family:'HelveticaNeue-Light';}
	.st4{font-size:38px;}
	.st5{fill:#4C83C3;}
</style>


<g
   transform="translate(-6.1074219,-132.46114)"
   aria-label="CA IDMS REST API"
   id="text377"
   style="font-size:40px;line-height:1.25;font-family:sans-serif;word-spacing:0px"><path
     id="path403"
     sodipodi:type="inkscape:offset"
     inkscape:radius="0"
     inkscape:original="M 20.365234 199.22852 C 18.229818 199.22852 16.283203 199.56054 14.525391 200.22461 C 12.780599 200.88867 11.289714 201.85221 10.052734 203.11523 C 8.7766928 204.41732 7.8001302 206.01237 7.1230469 207.90039 C 6.4459635 209.78841 6.1074219 211.93034 6.1074219 214.32617 C 6.1074219 216.85221 6.4589844 219.07226 7.1621094 220.98633 C 7.8652344 222.88737 8.8417967 224.45638 10.091797 225.69336 C 11.367838 226.95638 12.865234 227.88737 14.583984 228.48633 C 16.315755 229.07226 18.236328 229.36523 20.345703 229.36523 C 21.465494 229.36523 22.48763 229.27408 23.412109 229.0918 C 24.349609 228.92252 25.215495 228.71419 26.009766 228.4668 C 26.947266 228.16732 27.702474 227.88086 28.275391 227.60742 C 28.861329 227.33398 29.51237 227.04102 30.228516 226.72852 L 30.228516 222.19727 L 29.955078 222.19727 C 28.535807 223.47331 27.01237 224.43034 25.384766 225.06836 C 23.757162 225.70638 22.01237 226.02539 20.150391 226.02539 C 18.796224 226.02539 17.507161 225.79752 16.283203 225.3418 C 15.072266 224.87304 14.011068 224.1569 13.099609 223.19336 C 12.227213 222.26888 11.511067 221.07096 10.951172 219.59961 C 10.404297 218.12826 10.130859 216.37045 10.130859 214.32617 C 10.130859 212.37305 10.378255 210.6543 10.873047 209.16992 C 11.380859 207.67253 12.083984 206.43555 12.982422 205.45898 C 13.906901 204.45638 14.955078 203.72071 16.126953 203.25195 C 17.311849 202.77019 18.639974 202.5293 20.111328 202.5293 C 21.908203 202.5293 23.594401 202.83529 25.169922 203.44727 C 26.745443 204.05925 28.333984 205.03581 29.935547 206.37695 L 30.228516 206.37695 L 30.228516 201.78711 C 28.327474 200.83659 26.595703 200.17253 25.033203 199.79492 C 23.483724 199.41732 21.927734 199.22852 20.365234 199.22852 z M 168.43164 199.22852 C 165.26758 199.22852 162.6569 200.00977 160.59961 201.57227 C 158.54232 203.12175 157.51367 205.11393 157.51367 207.54883 C 157.51367 209.67122 158.13216 211.39648 159.36914 212.72461 C 160.61914 214.03971 162.5332 214.9707 165.11133 215.51758 C 166.38737 215.77799 167.5918 215.99284 168.72461 216.16211 C 169.87044 216.33138 170.93164 216.54622 171.9082 216.80664 C 173.19727 217.14518 174.1543 217.62044 174.7793 218.23242 C 175.41732 218.8444 175.73633 219.79492 175.73633 221.08398 C 175.73633 222.58138 175.06576 223.7793 173.72461 224.67773 C 172.39648 225.57617 170.53451 226.02539 168.13867 226.02539 C 166.44597 226.02539 164.63607 225.69336 162.70898 225.0293 C 160.7819 224.36523 159.08268 223.42123 157.61133 222.19727 L 157.33789 222.19727 L 157.33789 227.04102 C 159.06966 227.80925 160.76888 228.38867 162.43555 228.7793 C 164.11523 229.16992 166.00326 229.36523 168.09961 229.36523 C 170.05274 229.36523 171.7194 229.13086 173.09961 228.66211 C 174.49284 228.19336 175.71029 227.54232 176.75195 226.70898 C 177.70247 225.94076 178.43815 225.00326 178.95898 223.89648 C 179.49284 222.78972 179.75977 221.66992 179.75977 220.53711 C 179.75977 218.45378 179.21289 216.83268 178.11914 215.67383 C 177.02539 214.51497 175.39779 213.64909 173.23633 213.07617 C 172.16862 212.80273 170.86654 212.5358 169.33008 212.27539 C 167.79362 212.01497 166.60872 211.79361 165.77539 211.61133 C 164.19987 211.24674 163.09961 210.7194 162.47461 210.0293 C 161.84961 209.33919 161.53711 208.38867 161.53711 207.17773 C 161.53711 205.82357 162.16211 204.7168 163.41211 203.85742 C 164.67513 202.99805 166.3418 202.56836 168.41211 202.56836 C 170.30013 202.56836 172.14258 202.88086 173.93945 203.50586 C 175.74935 204.11784 177.20769 204.89258 178.31445 205.83008 L 178.58789 205.83008 L 178.58789 201.25977 C 177.27278 200.68685 175.76237 200.20508 174.05664 199.81445 C 172.35091 199.42383 170.47591 199.22852 168.43164 199.22852 z M 262.96289 199.22852 C 259.79883 199.22852 257.18815 200.00977 255.13086 201.57227 C 253.07357 203.12175 252.04492 205.11393 252.04492 207.54883 C 252.04492 209.67122 252.66341 211.39648 253.90039 212.72461 C 255.15039 214.03971 257.06445 214.9707 259.64258 215.51758 C 260.91862 215.77799 262.12305 215.99284 263.25586 216.16211 C 264.40169 216.33138 265.46289 216.54622 266.43945 216.80664 C 267.72852 217.14518 268.68555 217.62044 269.31055 218.23242 C 269.94857 218.8444 270.26758 219.79492 270.26758 221.08398 C 270.26758 222.58138 269.59701 223.7793 268.25586 224.67773 C 266.92773 225.57617 265.06576 226.02539 262.66992 226.02539 C 260.97722 226.02539 259.16732 225.69336 257.24023 225.0293 C 255.31315 224.36523 253.61393 223.42123 252.14258 222.19727 L 251.86914 222.19727 L 251.86914 227.04102 C 253.60091 227.80925 255.30013 228.38867 256.9668 228.7793 C 258.64648 229.16992 260.53451 229.36523 262.63086 229.36523 C 264.58399 229.36523 266.25065 229.13086 267.63086 228.66211 C 269.02409 228.19336 270.24154 227.54232 271.2832 226.70898 C 272.23372 225.94076 272.9694 225.00326 273.49023 223.89648 C 274.02409 222.78972 274.29102 221.66992 274.29102 220.53711 C 274.29102 218.45378 273.74414 216.83268 272.65039 215.67383 C 271.55664 214.51497 269.92904 213.64909 267.76758 213.07617 C 266.69987 212.80273 265.39779 212.5358 263.86133 212.27539 C 262.32487 212.01497 261.13997 211.79361 260.30664 211.61133 C 258.73112 211.24674 257.63086 210.7194 257.00586 210.0293 C 256.38086 209.33919 256.06836 208.38867 256.06836 207.17773 C 256.06836 205.82357 256.69336 204.7168 257.94336 203.85742 C 259.20638 202.99805 260.87305 202.56836 262.94336 202.56836 C 264.83138 202.56836 266.67383 202.88086 268.4707 203.50586 C 270.2806 204.11784 271.73894 204.89258 272.8457 205.83008 L 273.11914 205.83008 L 273.11914 201.25977 C 271.80403 200.68685 270.29362 200.20508 268.58789 199.81445 C 266.88216 199.42383 265.00716 199.22852 262.96289 199.22852 z M 42.923828 199.75586 L 32.337891 228.83789 L 36.263672 228.83789 L 39.115234 220.73242 L 51.693359 220.73242 L 54.544922 228.83789 L 58.666016 228.83789 L 48.080078 199.75586 L 42.923828 199.75586 z M 75.912109 199.75586 L 75.912109 202.72461 L 79.720703 202.72461 L 79.720703 225.86914 L 75.912109 225.86914 L 75.912109 228.83789 L 87.396484 228.83789 L 87.396484 225.86914 L 83.587891 225.86914 L 83.587891 202.72461 L 87.396484 202.72461 L 87.396484 199.75586 L 75.912109 199.75586 z M 94.017578 199.75586 L 94.017578 228.83789 L 101.36133 228.83789 C 104.03059 228.83789 106.17903 228.6556 107.80664 228.29102 C 109.44727 227.92644 110.93164 227.33399 112.25977 226.51367 C 114.17383 225.32878 115.70378 223.66211 116.84961 221.51367 C 118.00846 219.36523 118.58789 216.9694 118.58789 214.32617 C 118.58789 211.50065 118.03451 209.05925 116.92773 207.00195 C 115.82097 204.94466 114.27799 203.29752 112.29883 202.06055 C 111.13997 201.3444 109.7207 200.78451 108.04102 200.38086 C 106.37435 199.96419 104.12175 199.75586 101.2832 199.75586 L 94.017578 199.75586 z M 124.87695 199.75586 L 124.87695 228.83789 L 128.49023 228.83789 L 128.49023 203.7793 L 136.51758 220.83008 L 138.82227 220.83008 L 146.9082 203.7793 L 146.9082 228.83789 L 150.77539 228.83789 L 150.77539 199.75586 L 145.4043 199.75586 L 137.9043 215.94727 L 130.15039 199.75586 L 124.87695 199.75586 z M 200.0332 199.75586 L 200.0332 228.83789 L 203.90039 228.83789 L 203.90039 217.27539 L 209.34961 217.27539 L 219.07617 228.83789 L 224.0957 228.83789 L 213.1582 216.12305 C 215.00716 215.4069 216.45899 214.34571 217.51367 212.93945 C 218.56836 211.52019 219.0957 209.76238 219.0957 207.66602 C 219.0957 206.11654 218.79622 204.8405 218.19727 203.83789 C 217.61133 202.82226 216.79101 201.98242 215.73633 201.31836 C 214.79883 200.73242 213.74414 200.32878 212.57227 200.10742 C 211.40039 199.87305 209.93555 199.75586 208.17773 199.75586 L 200.0332 199.75586 z M 227.8457 199.75586 L 227.8457 228.83789 L 247.00586 228.83789 L 247.00586 225.40039 L 231.71289 225.40039 L 231.71289 214.59961 L 247.00586 214.59961 L 247.00586 211.16211 L 231.71289 211.16211 L 231.71289 203.19336 L 247.00586 203.19336 L 247.00586 199.75586 L 227.8457 199.75586 z M 276.5957 199.75586 L 276.5957 203.19336 L 286.98633 203.19336 L 286.98633 228.83789 L 290.85352 228.83789 L 290.85352 203.19336 L 301.24414 203.19336 L 301.24414 199.75586 L 276.5957 199.75586 z M 326.43945 199.75586 L 315.85352 228.83789 L 319.7793 228.83789 L 322.63086 220.73242 L 335.20898 220.73242 L 338.06055 228.83789 L 342.18164 228.83789 L 331.5957 199.75586 L 326.43945 199.75586 z M 346.5957 199.75586 L 346.5957 228.83789 L 350.46289 228.83789 L 350.46289 217.99805 L 354.33008 217.99805 C 356.41341 217.99805 358.13867 217.75065 359.50586 217.25586 C 360.87305 216.74805 362.05794 215.99284 363.06055 214.99023 C 363.86783 214.18295 364.49283 213.23243 364.93555 212.13867 C 365.39127 211.0319 365.61914 209.83398 365.61914 208.54492 C 365.61914 206.85222 365.31315 205.45248 364.70117 204.3457 C 364.10221 203.23894 363.24934 202.31446 362.14258 201.57227 C 361.20508 200.94727 360.13086 200.49153 358.91992 200.20508 C 357.70899 199.9056 356.23112 199.75586 354.48633 199.75586 L 346.5957 199.75586 z M 369.50586 199.75586 L 369.50586 202.72461 L 373.31445 202.72461 L 373.31445 225.86914 L 369.50586 225.86914 L 369.50586 228.83789 L 380.99023 228.83789 L 380.99023 225.86914 L 377.18164 225.86914 L 377.18164 202.72461 L 380.99023 202.72461 L 380.99023 199.75586 L 369.50586 199.75586 z M 97.884766 203.07617 L 101.51758 203.07617 C 103.31445 203.07617 104.85742 203.20638 106.14648 203.4668 C 107.43555 203.71419 108.65299 204.16341 109.79883 204.81445 C 111.37435 205.71289 112.55924 206.94336 113.35352 208.50586 C 114.14778 210.06836 114.54492 211.98893 114.54492 214.26758 C 114.54492 216.5332 114.18034 218.42122 113.45117 219.93164 C 112.73503 221.44205 111.6543 222.6595 110.20898 223.58398 C 109.05013 224.32617 107.77409 224.83398 106.38086 225.10742 C 105.00065 225.38086 103.37956 225.51758 101.51758 225.51758 L 97.884766 225.51758 L 97.884766 203.07617 z M 203.90039 203.07617 L 208.45117 203.07617 C 209.49284 203.07617 210.39778 203.15429 211.16602 203.31055 C 211.93424 203.45377 212.59831 203.71419 213.1582 204.0918 C 213.83529 204.5345 214.31706 205.08138 214.60352 205.73242 C 214.90299 206.37044 215.05273 207.10612 215.05273 207.93945 C 215.05273 209.03321 214.9095 209.93815 214.62305 210.6543 C 214.34961 211.35742 213.91992 211.98242 213.33398 212.5293 C 212.69596 213.11523 211.92122 213.51888 211.00977 213.74023 C 210.09831 213.94857 209.0306 214.05273 207.80664 214.05273 L 203.90039 214.05273 L 203.90039 203.07617 z M 350.46289 203.07617 L 354.29102 203.07617 C 355.51497 203.07617 356.52409 203.16732 357.31836 203.34961 C 358.12565 203.51888 358.8418 203.80534 359.4668 204.20898 C 360.18294 204.67774 360.7168 205.2832 361.06836 206.02539 C 361.41992 206.76758 361.5957 207.63997 361.5957 208.64258 C 361.5957 209.50195 361.46549 210.27669 361.20508 210.9668 C 360.95768 211.6569 360.52799 212.31445 359.91602 212.93945 C 359.30404 213.55143 358.50977 214.00065 357.5332 214.28711 C 356.55664 214.56054 355.28711 214.69727 353.72461 214.69727 L 350.46289 214.69727 L 350.46289 203.07617 z M 45.404297 203.13477 L 50.501953 217.41211 L 40.287109 217.41211 L 45.404297 203.13477 z M 328.91992 203.13477 L 334.01758 217.41211 L 323.80273 217.41211 L 328.91992 203.13477 z "
     d="m 20.365234,199.22852 c -2.135416,0 -4.082031,0.33202 -5.839843,0.99609 -1.744792,0.66406 -3.235677,1.6276 -4.472657,2.89062 -1.2760412,1.30209 -2.2526038,2.89714 -2.9296871,4.78516 -0.6770834,1.88802 -1.015625,4.02995 -1.015625,6.42578 0,2.52604 0.3515625,4.74609 1.0546875,6.66016 0.703125,1.90104 1.6796873,3.47005 2.9296876,4.70703 1.276041,1.26302 2.773437,2.19401 4.492187,2.79297 1.731771,0.58593 3.652344,0.8789 5.761719,0.8789 1.119791,0 2.141927,-0.0911 3.066406,-0.27343 0.9375,-0.16928 1.803386,-0.37761 2.597657,-0.625 0.9375,-0.29948 1.692708,-0.58594 2.265625,-0.85938 0.585938,-0.27344 1.236979,-0.5664 1.953125,-0.8789 v -4.53125 h -0.273438 c -1.419271,1.27604 -2.942708,2.23307 -4.570312,2.87109 -1.627604,0.63802 -3.372396,0.95703 -5.234375,0.95703 -1.354167,0 -2.64323,-0.22787 -3.867188,-0.68359 -1.210937,-0.46876 -2.272135,-1.1849 -3.183594,-2.14844 -0.872396,-0.92448 -1.588542,-2.1224 -2.148437,-3.59375 -0.546875,-1.47135 -0.820313,-3.22916 -0.820313,-5.27344 0,-1.95312 0.247396,-3.67187 0.742188,-5.15625 0.507812,-1.49739 1.210937,-2.73437 2.109375,-3.71094 0.924479,-1.0026 1.972656,-1.73827 3.144531,-2.20703 1.184896,-0.48176 2.513021,-0.72265 3.984375,-0.72265 1.796875,0 3.483073,0.30599 5.058594,0.91797 1.575521,0.61198 3.164062,1.58854 4.765625,2.92968 h 0.292969 v -4.58984 c -1.901042,-0.95052 -3.632813,-1.61458 -5.195313,-1.99219 -1.549479,-0.3776 -3.105469,-0.5664 -4.667969,-0.5664 z m 148.066406,0 c -3.16406,0 -5.77474,0.78125 -7.83203,2.34375 -2.05729,1.54948 -3.08594,3.54166 -3.08594,5.97656 0,2.12239 0.61849,3.84765 1.85547,5.17578 1.25,1.3151 3.16406,2.24609 5.74219,2.79297 1.27604,0.26041 2.48047,0.47526 3.61328,0.64453 1.14583,0.16927 2.20703,0.38411 3.18359,0.64453 1.28907,0.33854 2.2461,0.8138 2.8711,1.42578 0.63802,0.61198 0.95703,1.5625 0.95703,2.85156 0,1.4974 -0.67057,2.69532 -2.01172,3.59375 -1.32813,0.89844 -3.1901,1.34766 -5.58594,1.34766 -1.6927,0 -3.5026,-0.33203 -5.42969,-0.99609 -1.92708,-0.66407 -3.6263,-1.60807 -5.09765,-2.83203 h -0.27344 v 4.84375 c 1.73177,0.76823 3.43099,1.34765 5.09766,1.73828 1.67968,0.39062 3.56771,0.58593 5.66406,0.58593 1.95313,0 3.61979,-0.23437 5,-0.70312 1.39323,-0.46875 2.61068,-1.11979 3.65234,-1.95313 0.95052,-0.76822 1.6862,-1.70572 2.20703,-2.8125 0.53386,-1.10676 0.80079,-2.22656 0.80079,-3.35937 0,-2.08333 -0.54688,-3.70443 -1.64063,-4.86328 -1.09375,-1.15886 -2.72135,-2.02474 -4.88281,-2.59766 -1.06771,-0.27344 -2.36979,-0.54037 -3.90625,-0.80078 -1.53646,-0.26042 -2.72136,-0.48178 -3.55469,-0.66406 -1.57552,-0.36459 -2.67578,-0.89193 -3.30078,-1.58203 -0.625,-0.69011 -0.9375,-1.64063 -0.9375,-2.85157 0,-1.35416 0.625,-2.46093 1.875,-3.32031 1.26302,-0.85937 2.92969,-1.28906 5,-1.28906 1.88802,0 3.73047,0.3125 5.52734,0.9375 1.8099,0.61198 3.26824,1.38672 4.375,2.32422 h 0.27344 v -4.57031 c -1.31511,-0.57292 -2.82552,-1.05469 -4.53125,-1.44532 -1.70573,-0.39062 -3.58073,-0.58593 -5.625,-0.58593 z m 94.53125,0 c -3.16406,0 -5.77474,0.78125 -7.83203,2.34375 -2.05729,1.54948 -3.08594,3.54166 -3.08594,5.97656 0,2.12239 0.61849,3.84765 1.85547,5.17578 1.25,1.3151 3.16406,2.24609 5.74219,2.79297 1.27604,0.26041 2.48047,0.47526 3.61328,0.64453 1.14583,0.16927 2.20703,0.38411 3.18359,0.64453 1.28907,0.33854 2.2461,0.8138 2.8711,1.42578 0.63802,0.61198 0.95703,1.5625 0.95703,2.85156 0,1.4974 -0.67057,2.69532 -2.01172,3.59375 -1.32813,0.89844 -3.1901,1.34766 -5.58594,1.34766 -1.6927,0 -3.5026,-0.33203 -5.42969,-0.99609 -1.92708,-0.66407 -3.6263,-1.60807 -5.09765,-2.83203 h -0.27344 v 4.84375 c 1.73177,0.76823 3.43099,1.34765 5.09766,1.73828 1.67968,0.39062 3.56771,0.58593 5.66406,0.58593 1.95313,0 3.61979,-0.23437 5,-0.70312 1.39323,-0.46875 2.61068,-1.11979 3.65234,-1.95313 0.95052,-0.76822 1.6862,-1.70572 2.20703,-2.8125 0.53386,-1.10676 0.80079,-2.22656 0.80079,-3.35937 0,-2.08333 -0.54688,-3.70443 -1.64063,-4.86328 -1.09375,-1.15886 -2.72135,-2.02474 -4.88281,-2.59766 -1.06771,-0.27344 -2.36979,-0.54037 -3.90625,-0.80078 -1.53646,-0.26042 -2.72136,-0.48178 -3.55469,-0.66406 -1.57552,-0.36459 -2.67578,-0.89193 -3.30078,-1.58203 -0.625,-0.69011 -0.9375,-1.64063 -0.9375,-2.85157 0,-1.35416 0.625,-2.46093 1.875,-3.32031 1.26302,-0.85937 2.92969,-1.28906 5,-1.28906 1.88802,0 3.73047,0.3125 5.52734,0.9375 1.8099,0.61198 3.26824,1.38672 4.375,2.32422 h 0.27344 v -4.57031 c -1.31511,-0.57292 -2.82552,-1.05469 -4.53125,-1.44532 -1.70573,-0.39062 -3.58073,-0.58593 -5.625,-0.58593 z m -220.039062,0.52734 -10.585937,29.08203 h 3.925781 l 2.851562,-8.10547 h 12.578125 l 2.851563,8.10547 h 4.121094 L 48.080078,199.75586 Z m 32.988281,0 v 2.96875 h 3.808594 v 23.14453 h -3.808594 v 2.96875 h 11.484375 v -2.96875 h -3.808593 v -23.14453 h 3.808593 v -2.96875 z m 18.105469,0 v 29.08203 h 7.343752 c 2.66926,0 4.8177,-0.18229 6.44531,-0.54687 1.64063,-0.36458 3.125,-0.95703 4.45313,-1.77735 1.91406,-1.18489 3.44401,-2.85156 4.58984,-5 1.15885,-2.14844 1.73828,-4.54427 1.73828,-7.1875 0,-2.82552 -0.55338,-5.26692 -1.66016,-7.32422 -1.10676,-2.05729 -2.64974,-3.70443 -4.6289,-4.9414 -1.15886,-0.71615 -2.57813,-1.27604 -4.25781,-1.67969 -1.66667,-0.41667 -3.91927,-0.625 -6.75782,-0.625 z m 30.859372,0 v 29.08203 h 3.61328 V 203.7793 l 8.02735,17.05078 h 2.30469 l 8.08593,-17.05078 v 25.05859 h 3.86719 v -29.08203 h -5.37109 l -7.5,16.19141 -7.75391,-16.19141 z m 75.15625,0 v 29.08203 h 3.86719 v -11.5625 h 5.44922 l 9.72656,11.5625 h 5.01953 l -10.9375,-12.71484 c 1.84896,-0.71615 3.30079,-1.77734 4.35547,-3.1836 1.05469,-1.41926 1.58203,-3.17707 1.58203,-5.27343 0,-1.54948 -0.29948,-2.82552 -0.89843,-3.82813 -0.58594,-1.01563 -1.40626,-1.85547 -2.46094,-2.51953 -0.9375,-0.58594 -1.99219,-0.98958 -3.16406,-1.21094 -1.17188,-0.23437 -2.63672,-0.35156 -4.39454,-0.35156 z m 27.8125,0 v 29.08203 h 19.16016 v -3.4375 h -15.29297 v -10.80078 h 15.29297 v -3.4375 h -15.29297 v -7.96875 h 15.29297 v -3.4375 z m 48.75,0 v 3.4375 h 10.39063 v 25.64453 h 3.86719 v -25.64453 h 10.39062 v -3.4375 z m 49.84375,0 -10.58593,29.08203 h 3.92578 l 2.85156,-8.10547 h 12.57812 l 2.85157,8.10547 h 4.12109 L 331.5957,199.75586 Z m 20.15625,0 v 29.08203 h 3.86719 v -10.83984 h 3.86719 c 2.08333,0 3.80859,-0.2474 5.17578,-0.74219 1.36719,-0.50781 2.55208,-1.26302 3.55469,-2.26563 0.80728,-0.80728 1.43228,-1.7578 1.875,-2.85156 0.45572,-1.10677 0.68359,-2.30469 0.68359,-3.59375 0,-1.6927 -0.30599,-3.09244 -0.91797,-4.19922 -0.59896,-1.10676 -1.45183,-2.03124 -2.55859,-2.77343 -0.9375,-0.625 -2.01172,-1.08074 -3.22266,-1.36719 -1.21093,-0.29948 -2.6888,-0.44922 -4.43359,-0.44922 z m 22.91016,0 v 2.96875 h 3.80859 v 23.14453 h -3.80859 v 2.96875 h 11.48437 v -2.96875 h -3.80859 v -23.14453 h 3.80859 v -2.96875 z m -271.621094,3.32031 h 3.632814 c 1.79687,0 3.33984,0.13021 4.6289,0.39063 1.28907,0.24739 2.50651,0.69661 3.65235,1.34765 1.57552,0.89844 2.76041,2.12891 3.55469,3.69141 0.79426,1.5625 1.1914,3.48307 1.1914,5.76172 0,2.26562 -0.36458,4.15364 -1.09375,5.66406 -0.71614,1.51041 -1.79687,2.72786 -3.24219,3.65234 -1.15885,0.74219 -2.43489,1.25 -3.82812,1.52344 -1.38021,0.27344 -3.0013,0.41016 -4.86328,0.41016 h -3.632814 z m 106.015624,0 h 4.55078 c 1.04167,0 1.94661,0.0781 2.71485,0.23438 0.76822,0.14322 1.43229,0.40364 1.99218,0.78125 0.67709,0.4427 1.15886,0.98958 1.44532,1.64062 0.29947,0.63802 0.44921,1.3737 0.44921,2.20703 0,1.09376 -0.14323,1.9987 -0.42968,2.71485 -0.27344,0.70312 -0.70313,1.32812 -1.28907,1.875 -0.63802,0.58593 -1.41276,0.98958 -2.32421,1.21093 -0.91146,0.20834 -1.97917,0.3125 -3.20313,0.3125 h -3.90625 z m 146.5625,0 h 3.82813 c 1.22395,0 2.23307,0.0911 3.02734,0.27344 0.80729,0.16927 1.52344,0.45573 2.14844,0.85937 0.71614,0.46876 1.25,1.07422 1.60156,1.81641 0.35156,0.74219 0.52734,1.61458 0.52734,2.61719 0,0.85937 -0.13021,1.63411 -0.39062,2.32422 -0.2474,0.6901 -0.67709,1.34765 -1.28906,1.97265 -0.61198,0.61198 -1.40625,1.0612 -2.38282,1.34766 -0.97656,0.27343 -2.24609,0.41016 -3.80859,0.41016 h -3.26172 z m -305.058593,0.0586 5.097656,14.27734 H 40.287109 Z m 283.515623,0 5.09766,14.27734 h -10.21485 z" /></g><path
   style="stroke-width:1.56731"
   d="m 373.51242,14.078717 c -1.63279,0 -2.97292,-1.37147 -2.97292,-3.06188 0,-1.6904105 1.34013,-3.0778305 2.97292,-3.0778305 1.6328,0 2.97292,1.38742 2.97292,3.0778305 0,1.69041 -1.34012,3.06188 -2.97292,3.06188 m 0,-6.8892305 c -2.03329,0 -3.69689,1.72231 -3.69689,3.8273505 0,2.10504 1.6636,3.82735 3.69689,3.82735 2.03329,0 3.6969,-1.72231 3.6969,-3.82735 0,-2.1050405 -1.66361,-3.8273505 -3.6969,-3.8273505"
   id="path4" /><path
   style="stroke-width:1.56731"
   d="m 373.75888,10.857367 -0.78559,0.016 -0.0154,-0.9887405 h 0.78559 c 0.29267,-0.016 0.52372,0.1754205 0.52372,0.4784205 0.0154,0.303 -0.21565,0.49437 -0.50832,0.49437 m 1.27851,-0.51032 c -0.0154,-0.6697805 -0.46211,-1.1482005 -1.18609,-1.1482005 l -1.6482,0.0319 0.0462,3.6040905 h 0.75478 l -0.0154,-1.29173 h 0.53914 l 0.70857,1.27578 0.8472,-0.016 -0.80099,-1.37147 c 0.36969,-0.0957 0.75478,-0.44652 0.75478,-1.08441"
   id="path6" /><path
   style="stroke-width:1.56731"
   d="m 87.794883,36.549227 h -9.2407 v -22.06147 h 8.988079 c 2.424548,0 3.938738,1.62025 3.938738,3.81619 0,2.19594 -1.51419,3.76356 -3.938738,3.76356 H 77.267818 v 6.37891 h 10.527065 c 2.828127,0 4.342317,1.88178 4.342317,4.07612 0,2.5101 -1.61586,4.02669 -4.342317,4.02669 m 5.200297,-11.5538 c 3.182408,-0.67936 5.808748,-3.60728 5.808748,-7.99756 0,-4.65342 -3.28253,-8.8874205 -9.696648,-8.8874205 H 71.383745 V 42.979167 H 89.66336 c 6.412568,0 9.795228,-4.18297 9.795228,-9.41049 0,-4.39188 -2.87742,-7.99756 -6.463408,-8.57325"
   id="path10" /><path
   style="stroke-width:1.56731"
   d="m 120.44849,24.054217 h -7.75209 v 6.53519 h 5.48004 l 6.61436,12.38944 h 8.23021 l -7.57401,-13.2793 c 3.63682,-0.88826 7.37222,-4.18137 7.37222,-10.34978 m 0,0 c 0,-6.48257 -4.29147,-11.2396405 -11.31096,-11.2396405 H 105.75333 V 42.978847 h 7.17043 v -28.33353 h 7.52473 c 2.87896,0 5.04934,1.77653 5.04934,4.70445 0,2.92792 -2.17038,4.70445 -5.04934,4.70445"
   id="path12" /><path
   style="stroke-width:1.56731"
   d="m 187.33242,30.537107 5.25113,-15.0032 5.25268,15.0032 z M 188.09029,8.1104465 175.06181,42.979167 h 8.17938 l 2.12109,-5.90687 h 14.44255 l 2.07026,5.90687 h 8.18092 L 197.07836,8.1104465 Z"
   id="path14" /><path
   style="stroke-width:1.56731"
   d="m 229.53234,36.444137 h -6.11066 v -21.79993 h 6.11066 c 6.91781,0 10.55309,4.75707 10.55309,10.92707 0,5.90687 -3.8879,10.87286 -10.55309,10.87286 m 0,-28.3335305 h -13.2811 V 42.979327 h 13.2811 c 10.55309,0 17.87449,-6.90039 17.87449,-17.40805 0,-10.50766 -7.3214,-17.4606705 -17.87449,-17.4606705"
   id="path16" /><path
   style="stroke-width:1.56731"
   d="m 356.03843,8.1034265 -8.8325,14.7831305 -8.83251,-14.7831305 h -7.92676 V 42.978537 h 7.17198 v -22.79345 l 7.72035,12.15502 c 0.88418,1.389 2.85123,1.389 3.73387,0 l 7.72189,-12.15502 v 22.79345 h 7.17198 V 8.1034265 Z"
   id="path18" /><path
   style="stroke-width:1.56731"
   d="m 155.55775,36.810127 c -5.96278,0 -10.79493,-5.00426 -10.79493,-11.17586 0,-6.17319 4.83215,-11.17744 10.79493,-11.17744 5.96125,0 10.79494,5.00425 10.79494,11.17744 0,6.1716 -4.83369,11.17586 -10.79494,11.17586 m 0,-29.5598805 c -9.80755,0 -17.75742,8.2303905 -17.75742,18.3840205 0,10.15204 7.94987,18.38243 17.75742,18.38243 9.80602,0 17.75743,-8.23039 17.75743,-18.38243 0,-10.15363 -7.95141,-18.3840205 -17.75743,-18.3840205"
   id="path20" /><path
   style="stroke-width:1.56731"
   d="m 279.67827,31.041677 c -1.84075,3.43823 -5.37899,5.76813 -9.44557,5.76813 -5.96125,0 -10.79494,-5.00426 -10.79494,-11.17585 0,-6.1732 4.83369,-11.17586 10.79494,-11.17586 4.0327,0 7.54321,2.29322 9.39628,5.68521 l 5.03702,-5.21317 c -3.22246,-4.64863 -8.48438,-7.6802105 -14.4333,-7.6802105 -9.80756,0 -17.75589,8.2303905 -17.75589,18.3840305 0,10.15203 7.94833,18.38402 17.75589,18.38402 5.98127,0 11.26937,-3.06507 14.48567,-7.75835 z"
   id="path22" /><use
   height="100%"
   width="100%"
   y="0"
   x="0"
   xlink:href="#path20"
   transform="translate(152.06288)"
   id="use8" /><ellipse
   style="stroke-width:1.56731"
   cx="33.397259"
   cy="25.890968"
   rx="25.010008"
   ry="25.890968"
   fill="#cc092f"
   id="ellipse24" /><path
   style="stroke-width:1.56731"
   d="m 55.433487,32.885657 c -2.860473,-1.1801 -5.479108,-0.7846 -8.103904,0.86275 0,0 -0.956572,0.6044 -1.243081,0.79098 -1.223057,0.79418 -2.376796,1.54689 -3.485865,1.54689 -1.058237,0 -2.099529,-0.29343 -2.540076,-2.41282 -0.687006,-3.30587 -2.362933,-11.42942 -3.09461,-15.45292 -0.429764,-2.36498 -0.665441,-3.63917 -0.910361,-4.5051 -0.431304,-1.52137 -1.219975,-2.34904 -2.339827,-2.4814 0,0 -0.175602,-0.0255 -0.318857,-0.0255 -0.141714,0 -0.335802,0.0287 -0.335802,0.0287 -1.109068,0.13715 -1.893118,0.96481 -2.321342,2.47821 -0.24492,0.86593 -0.480597,2.14012 -0.910361,4.5051 -0.731677,4.0235 -2.407603,12.14705 -3.09461,15.45292 -0.440547,2.11939 -1.481839,2.41282 -2.540076,2.41282 -1.109068,0 -2.262808,-0.75271 -3.485865,-1.54689 -0.286509,-0.18658 -1.244621,-0.79098 -1.244621,-0.79098 -2.623256,-1.64735 -5.243431,-2.04285 -8.102364,-0.86275 -0.61769,0.25516 -1.22608,0.54091 -1.8052609,0.82955 0.395876,1.28535 0.8886909,2.55037 1.4632499,3.73844 0.633094,-0.32213 1.297042,-0.64177 1.974807,-0.84908 0.976596,-0.29822 1.977839,-0.31416 2.948274,0.0223 0.942709,0.32692 1.782212,0.9058 2.618635,1.44961 1.575802,1.02541 3.361095,2.18796 5.633145,2.18796 3.367257,0 5.730189,-2.08112 6.484972,-5.71072 0.585342,-2.8131 1.882336,-9.09314 2.715678,-13.42442 0,0 2.134958,10.61132 2.718759,13.42442 0.754783,3.6296 3.119257,5.71072 6.486513,5.71072 2.27205,0 4.057343,-1.16255 5.633145,-2.18796 0.836423,-0.54381 1.675926,-1.12269 2.618635,-1.44961 0.968895,-0.33649 1.971678,-0.32054 2.948274,-0.0223 0.677765,0.20731 1.340721,0.52729 1.973815,0.84942 0.576099,-1.18807 1.067616,-2.45368 1.463492,-3.73903 -0.579181,-0.28864 -1.186821,-0.57414 -1.804511,-0.8293"
   fill="#ffffff"
   id="path26" /></svg>
