<?xml version="1.0" encoding="UTF-8" standalone="no"?>
<svg
   xmlns:dc="http://purl.org/dc/elements/1.1/"
   xmlns:cc="http://creativecommons.org/ns#"
   xmlns:rdf="http://www.w3.org/1999/02/22-rdf-syntax-ns#"
   xmlns:svg="http://www.w3.org/2000/svg"
   xmlns="http://www.w3.org/2000/svg"
   xmlns:sodipodi="http://sodipodi.sourceforge.net/DTD/sodipodi-0.dtd"
   xmlns:inkscape="http://www.inkscape.org/namespaces/inkscape"
   xml:space="preserve"
   style="enable-background:new 0 0 400 245;"
   viewBox="0 0 400 245"
   y="0px"
   x="0px"
   id="Layer_1"
   version="1.1"
   sodipodi:docname="ca_jclcheck.svg"
   inkscape:version="1.0 (4035a4f, 2020-05-01)"><sodipodi:namedview
   inkscape:document-rotation="0"
   pagecolor="#ffffff"
   bordercolor="#666666"
   borderopacity="1"
   objecttolerance="10"
   gridtolerance="10"
   guidetolerance="10"
   inkscape:pageopacity="0"
   inkscape:pageshadow="2"
   inkscape:window-width="1114"
   inkscape:window-height="860"
   id="namedview298"
   showgrid="false"
   inkscape:zoom="1.0356666"
   inkscape:cx="303.7936"
   inkscape:cy="119.60331"
   inkscape:window-x="212"
   inkscape:window-y="23"
   inkscape:window-maximized="0"
   inkscape:current-layer="Layer_1" /><metadata
   id="metadata49"><rdf:RDF><cc:Work
       rdf:about=""><dc:format>image/svg+xml</dc:format><dc:type
         rdf:resource="http://purl.org/dc/dcmitype/StillImage" /><dc:title></dc:title></cc:Work></rdf:RDF></metadata><defs
   id="defs47" />
<style
   id="style2"
   type="text/css">
	.st0{fill-rule:evenodd;clip-rule:evenodd;fill:#CF4044;}
	.st1{fill:#000F9F;}
	.st2{fill:#CC092F;}
	.st3{font-family:'HelveticaNeue-Light';}
	.st4{font-size:38px;}
	.st5{fill:#4C83C3;}
</style>
<g
   id="g38"
   transform="matrix(1.33333,0,0,-1.33333,0,489.6)">
	<path
   id="path4"
   d="m 212.9,270.7 1.9,1.6 c -1.1,1.3 -2.7,1.9 -4.4,1.9 -2.2,0 -4.1,-1.3 -4.1,-3.7 0,-4.4 6.3,-3.6 6.3,-5.8 0,-0.9 -0.7,-1.4 -1.8,-1.4 -1.3,0 -2.2,0.8 -2.9,1.8 l -2,-1.5 c 1.1,-1.6 2.7,-2.6 4.7,-2.6 2.6,0 4.6,1.2 4.6,3.8 0,4.6 -6.3,3.7 -6.3,5.8 0,0.8 0.5,1.2 1.7,1.2 0.9,0.3 1.7,-0.4 2.3,-1.1 m -1.1,24.7 c 0,2.3 -1.5,3.9 -3.7,3.9 -2.2,0 -3.7,-1.6 -3.7,-3.9 0,-2.3 1.5,-3.8 3.7,-3.8 2.1,0 3.7,1.5 3.7,3.8 m -0.5,0 c 0,-2.2 -1.4,-3.4 -3.2,-3.4 -1.8,0 -3.2,1.2 -3.2,3.4 0,2.2 1.4,3.4 3.2,3.4 1.7,0 3.2,-1.2 3.2,-3.4 m -1.5,-1.9 -1.2,1.7 c 0.5,0.2 0.9,0.6 0.9,1.2 0,0.8 -0.6,1.2 -1.5,1.2 h -1.3 v -4.2 h 0.7 v 1.7 h 0.4 l 1.3,-1.8 z m -1.8,2.3 h -0.5 v 1.3 h 0.6 c 0.5,0 0.8,-0.2 0.8,-0.6 -0.1,-0.5 -0.4,-0.7 -0.9,-0.7 m -3.7,-27.3 c 0,3 -1.8,5.8 -5.1,5.8 -3.4,0 -5.4,-2.5 -5.4,-6.6 0,-4 2,-6.6 5.3,-6.6 2.4,0 4.1,0.8 5.3,2.6 l -2.2,1.4 c -0.8,-0.9 -1.4,-1.5 -2.8,-1.5 -1.4,0 -2.6,1 -2.6,3.6 h 7.6 z m -2.7,0.8 h -4.8 c 0,1.7 1,2.8 2.4,2.8 1.4,0 2.3,-1 2.4,-2.8 m -21.3,22.4 h 20.2 c -1.1,3.5 -1.4,7.1 -1.4,10.8 v 37.4 c 0,9.1 -1.7,14.2 -6.6,18.6 -4.6,4.2 -12.2,6.6 -22.4,6.6 -8.8,0 -16.4,-1.9 -22.2,-5.5 4.5,-3.8 7.6,-8.8 9.1,-14.8 1.9,3.1 5.8,4.4 10.7,4.4 8.1,0 10.5,-5.7 10.6,-10.5 l 0.1,-2.3 c -22.5,-1.1 -43.8,-5.3 -43.3,-25.9 0.3,-14.4 13.4,-20.3 22.3,-20.3 10.4,0 16.3,2.8 22,9.9 0,-2.9 0.4,-6.1 0.9,-8.4 m -2,31.6 c 0,-6 -0.1,-9.3 -2.8,-13.4 -2.4,-3.7 -6.2,-6 -10.5,-6 -5.8,0 -10.6,2.6 -10.6,9 0,9.3 13.6,12.6 24,13.2 v -2.8 z m -54.2,41.8 c -22.7,0 -36,-16 -36,-38.1 0,-21.2 12.9,-36.7 34.7,-36.7 5.6,0 11.8,1.2 17.2,4 -4.1,3.5 -7.1,8.6 -7.4,15.7 -1.9,-1.8 -4.6,-2.8 -7.8,-2.8 -10.5,0 -13.4,7.9 -13.4,21.4 0,13.3 3.2,20.5 13.4,20.5 6.4,0 10.9,-3.4 10.9,-9.9 h 19.8 c -1.4,17.1 -14.9,25.9 -31.4,25.9 M 86.6,278.2 V 274 h -1.7 v -2.4 h 1.7 v -7.5 c 0,-1.8 0.9,-2.9 3.1,-2.9 0.8,0 1.5,0.1 2.4,0.2 v 2.5 c -0.4,-0.1 -0.9,-0.2 -1.4,-0.2 -0.7,0 -1.1,0.2 -1.1,0.9 v 7.1 h 2.5 v 2.4 h -2.5 v 4.2 h -3 z m 6.9,-10.4 c 0,-4 2,-6.6 5.3,-6.6 2.4,0 4.1,0.8 5.2,2.6 l -2.2,1.4 c -0.7,-0.9 -1.4,-1.5 -2.8,-1.5 -1.4,0 -2.6,1 -2.6,3.6 h 7.6 v 1.2 c 0,3 -1.8,5.8 -5.1,5.8 -3.3,0 -5.4,-2.5 -5.4,-6.5 m 3,1.5 c 0.1,1.7 1,2.8 2.4,2.8 1.4,0 2.4,-1 2.4,-2.8 z m 9.4,-1.5 c 0,-4 2,-6.6 5.4,-6.6 2.3,0 3.8,0.9 5,3.2 l -2.3,1.3 c -0.6,-1.1 -1.3,-2 -2.6,-2 -1.8,0 -2.6,1.3 -2.6,4.1 0,2.8 0.8,4.1 2.5,4.1 1.5,0 2,-0.8 2.5,-1.9 l 2.5,1 c -0.7,2.1 -2.6,3.4 -4.9,3.4 -3.5,-0.1 -5.5,-2.6 -5.5,-6.6 m 15.6,11.2 h -3 v -17.5 h 3 v 9.1 c 0.5,0.6 1.5,1.3 2.8,1.3 1,0 1.5,-0.5 1.5,-2.2 v -8.2 h 3 v 8.6 c 0,2.6 -1.2,4.2 -3.7,4.2 -1.5,0 -2.7,-0.8 -3.6,-1.6 z m 13.1,-4.9 h -2.7 v -12.6 h 3 v 9.1 c 0.5,0.6 1.5,1.3 2.8,1.3 1,0 1.5,-0.5 1.5,-2.2 v -8.2 h 3 v 8.6 c 0,2.6 -1.2,4.2 -3.7,4.2 -1.5,0 -2.7,-0.8 -3.9,-1.6 z m 9.7,-6.3 c 0,-4 2,-6.6 5.4,-6.6 3.4,0 5.4,2.6 5.4,6.6 0,4 -2,6.6 -5.4,6.6 -3.3,-0.1 -5.4,-2.6 -5.4,-6.6 m 3,0 c 0,2.8 0.8,4.1 2.5,4.1 1.7,0 2.5,-1.3 2.5,-4.1 0,-2.8 -0.8,-4.1 -2.5,-4.1 -1.7,-0.1 -2.5,1.2 -2.5,4.1 m 13.3,11.2 h -3 v -17.5 h 3 v 4.4 z m 2.4,-11.2 c 0,-4 2,-6.6 5.4,-6.6 3.4,0 5.4,2.6 5.4,6.6 0,4 -2,6.6 -5.4,6.6 -3.3,-0.1 -5.4,-2.6 -5.4,-6.6 m 3,0 c 0,2.8 0.8,4.1 2.5,4.1 1.7,0 2.5,-1.3 2.5,-4.1 0,-2.8 -0.8,-4.1 -2.5,-4.1 -1.7,-0.1 -2.5,1.2 -2.5,4.1 m 8.8,-8 c 0,-2 2.2,-3 5.6,-3 4,0 5.8,1.9 5.8,3.7 0,5 -8.2,2.3 -8.2,4.3 0,0.7 1,0.8 2.3,0.8 3.1,0 4.7,1.7 4.7,4.1 0,1 -0.3,1.7 -0.7,2.2 0.5,0.3 1.2,0.3 1.9,0.3 v 2 c -1.4,0.1 -2.4,-0.3 -2.9,-1.1 -0.8,0.7 -2,1.1 -3.1,1.1 -3.3,0 -4.9,-2.2 -4.9,-4.4 0,-1.5 0.8,-2.5 1.8,-3.3 -0.6,-0.2 -1.9,-1.1 -1.9,-2.3 0,-1.4 1.3,-1.7 1.8,-2 v -0.1 c -1,0.1 -2.2,-0.7 -2.2,-2.3 M 178,270 c 0,1.2 0.9,2.1 2.2,2.1 1.1,0 2,-0.9 2,-2.1 0,-1.2 -0.9,-2.1 -2,-2.1 -1.3,0 -2.2,0.9 -2.2,2.1 m -0.5,-9.8 c 0,0.5 0.5,1.5 2.1,1.5 2.9,0 3.8,-0.9 3.8,-1.5 0,-0.4 -0.7,-1.4 -2.6,-1.4 -2.4,0 -3.3,0.5 -3.3,1.4 m 13.9,19 h -3 v -2.8 h 3 v 1.6 z m 0,-5.1 h -3 v -12.6 h 3 v 3.7 z" />
	<path
   style="fill:#cc092f"
   id="path6"
   d="m 71.2,241.6 -2.5,5.8 -2.5,-5.8 z m -3.1,7.3 h 1.2 l 5,-11.5 H 73 l -1.3,3 h -6 l -1.3,-3 h -1.3 z"
   class="st2" />
	<path
   style="fill:#cc092f"
   id="path8"
   d="m 85.6,242.3 h -3.1 v -3.1 h 3.2 c 1.3,0 2.1,0.5 2.1,1.6 v 0 c 0.1,0.9 -0.7,1.5 -2.2,1.5 m 1.7,3.3 c 0,0.9 -0.7,1.5 -1.9,1.5 h -2.8 v -3 h 2.6 c 1.2,-0.1 2.1,0.4 2.1,1.5 z m -6.6,3.2 h 4.9 c 1.3,0 2.2,-0.4 2.9,-1 0.5,-0.5 0.7,-1.1 0.7,-1.9 v 0 c 0,-1.4 -0.8,-2.1 -1.6,-2.5 1.3,-0.5 2.2,-1.2 2.2,-2.8 v 0 c 0,-2 -1.6,-3.1 -4.1,-3.1 h -5.1 z"
   class="st2" />
	<path
   style="fill:#cc092f"
   id="path10"
   d="m 91.6,246 h 1.9 v -2 c 0.5,1.3 1.5,2.2 2.9,2.1 V 244 h -0.1 c -1.7,0 -2.8,-1.1 -2.8,-3.4 v -3.3 h -1.9 z"
   class="st2" />
	<path
   style="fill:#cc092f"
   id="path12"
   d="m 104.1,241.6 v 0 c 0,1.5 -1,2.8 -2.5,2.8 -1.5,0 -2.5,-1.2 -2.5,-2.7 v 0 c 0,-1.5 1,-2.8 2.5,-2.8 1.5,0 2.5,1.3 2.5,2.7 m -6.9,0 v 0 c 0,2.5 1.9,4.5 4.4,4.5 2.5,0 4.4,-2 4.4,-4.5 v 0 c 0,-2.4 -1.9,-4.5 -4.4,-4.5 -2.6,0.1 -4.4,2.1 -4.4,4.5"
   class="st2" />
	<path
   style="fill:#cc092f"
   id="path14"
   d="m 112.9,240.5 v 0.6 c -0.5,0.2 -1.1,0.3 -1.9,0.3 -1.2,0 -1.9,-0.5 -1.9,-1.4 v 0 c 0,-0.8 0.7,-1.3 1.6,-1.3 1.2,-0.1 2.2,0.7 2.2,1.8 m -5.7,-0.6 v 0 c 0,1.9 1.4,2.8 3.4,2.8 0.9,0 1.6,-0.1 2.2,-0.4 v 0.2 c 0,1.2 -0.7,1.9 -2.1,1.9 -0.9,0 -1.6,-0.2 -2.4,-0.5 l -0.5,1.5 c 0.9,0.4 1.8,0.7 3.1,0.7 1.2,0 2.2,-0.3 2.7,-1 0.6,-0.6 0.9,-1.5 0.9,-2.7 v -5.1 h -1.8 v 1.1 c -0.6,-0.7 -1.4,-1.3 -2.7,-1.3 -1.4,0.1 -2.8,1 -2.8,2.8"
   class="st2" />
	<path
   style="fill:#cc092f"
   id="path16"
   d="m 123,241.7 v 0 c 0,1.7 -1.1,2.8 -2.4,2.8 -1.3,0 -2.4,-1.1 -2.4,-2.8 v 0 c 0,-1.7 1.1,-2.8 2.4,-2.8 1.3,0 2.4,1.1 2.4,2.8 m -6.6,0 v 0 c 0,2.9 1.9,4.5 3.8,4.5 1.4,0 2.2,-0.7 2.8,-1.5 v 4.6 h 1.9 V 237.4 H 123 v 1.4 c -0.6,-0.9 -1.5,-1.6 -2.8,-1.6 -1.9,0 -3.8,1.6 -3.8,4.5"
   class="st2" />
	<path
   style="fill:#cc092f"
   id="path18"
   d="m 126.7,241.6 v 0 c 0,2.5 1.8,4.5 4.3,4.5 1.6,0 2.5,-0.6 3.3,-1.5 l -1.2,-1.3 c -0.6,0.6 -1.2,1.1 -2.1,1.1 -1.4,0 -2.4,-1.2 -2.4,-2.7 v 0 c 0,-1.5 1,-2.8 2.5,-2.8 0.9,0 1.5,0.4 2.1,1.1 l 1.1,-1.2 c -0.8,-0.9 -1.8,-1.6 -3.4,-1.6 -2.4,0 -4.2,2 -4.2,4.4"
   class="st2" />
	<path
   style="fill:#cc092f"
   id="path20"
   d="m 142.1,241.6 v 0 c 0,1.5 -1,2.8 -2.5,2.8 -1.5,0 -2.5,-1.2 -2.5,-2.7 v 0 c 0,-1.5 1,-2.8 2.5,-2.8 1.6,0 2.5,1.3 2.5,2.7 m -6.9,0 v 0 c 0,2.5 1.9,4.5 4.4,4.5 2.5,0 4.4,-2 4.4,-4.5 v 0 c 0,-2.4 -1.9,-4.5 -4.4,-4.5 -2.5,0.1 -4.4,2.1 -4.4,4.5"
   class="st2" />
	<path
   style="fill:#cc092f"
   id="path22"
   d="m 145.8,246 h 1.9 v -1.3 c 0.5,0.8 1.3,1.5 2.5,1.5 1.2,0 2,-0.6 2.5,-1.5 0.7,0.9 1.5,1.5 2.8,1.5 1.8,0 2.9,-1.2 2.9,-3.3 v -5.5 h -1.9 v 4.9 c 0,1.4 -0.6,2.1 -1.7,2.1 -1,0 -1.8,-0.8 -1.8,-2.1 v -4.9 h -1.9 v 4.9 c 0,1.3 -0.6,2.1 -1.7,2.1 -1,0 -1.8,-0.8 -1.8,-2.1 v -4.9 h -1.9 v 8.6 z"
   class="st2" />
	<path
   style="fill:#cc092f"
   id="path24"
   d="m 164.9,243.1 v 0 c 0,3.3 2.3,5.9 5.5,5.9 2,0 3.2,-0.7 4.3,-1.8 l -0.8,-0.9 c -0.9,0.9 -2,1.6 -3.4,1.6 -2.4,0 -4.2,-2.1 -4.2,-4.7 v 0 c 0,-2.6 1.8,-4.7 4.2,-4.7 1.5,0 2.5,0.6 3.5,1.6 l 0.8,-0.8 c -1.1,-1.2 -2.4,-2 -4.4,-2 -3.1,-0.1 -5.5,2.5 -5.5,5.8"
   class="st2" />
	<path
   style="fill:#cc092f"
   id="path26"
   d="m 183.2,241.6 v 0 c 0,1.8 -1.3,3.3 -3,3.3 -1.8,0 -3,-1.5 -3,-3.3 v 0 c 0,-1.8 1.3,-3.3 3,-3.3 1.8,0 3,1.5 3,3.3 m -7.2,0 v 0 c 0,2.4 1.8,4.4 4.2,4.4 2.4,0 4.2,-2 4.2,-4.4 v 0 c 0,-2.4 -1.8,-4.4 -4.2,-4.4 -2.4,0 -4.2,2 -4.2,4.4"
   class="st2" />
	<path
   style="fill:#cc092f"
   id="path28"
   d="m 186.5,245.8 h 1.2 v -1.4 c 0.5,0.8 1.3,1.6 2.6,1.6 1.3,0 2.2,-0.7 2.6,-1.7 0.6,0.9 1.4,1.7 2.8,1.7 1.9,0 3,-1.3 3,-3.4 v -5.2 h -1.2 v 4.9 c 0,1.6 -0.8,2.5 -2.1,2.5 -1.2,0 -2.2,-0.9 -2.2,-2.6 v -4.9 H 192 v 5 c 0,1.6 -0.8,2.5 -2.1,2.5 -1.3,0 -2.3,-1.1 -2.3,-2.7 v -4.8 h -1.2 z"
   class="st2" />
	<path
   style="fill:#cc092f"
   id="path30"
   d="m 208.1,241.6 v 0 c 0,2 -1.3,3.3 -2.9,3.3 -1.5,0 -2.9,-1.3 -2.9,-3.2 v 0 c 0,-2 1.4,-3.3 2.9,-3.3 1.6,-0.1 2.9,1.1 2.9,3.2 m -7,4.2 h 1.2 v -1.7 c 0.7,1 1.6,1.9 3.1,1.9 1.9,0 3.9,-1.6 3.9,-4.4 v 0 c 0,-2.8 -1.9,-4.4 -3.9,-4.4 -1.5,0 -2.5,0.8 -3.1,1.8 v -4.2 h -1.2 z"
   class="st2" />
	<path
   style="fill:#cc092f"
   id="path32"
   d="m 216.7,240.5 v 0.8 c -0.6,0.2 -1.4,0.4 -2.4,0.4 -1.5,0 -2.4,-0.7 -2.4,-1.7 v 0 c 0,-1.1 0.9,-1.7 2,-1.7 1.6,-0.1 2.8,0.8 2.8,2.2 m -5.9,-0.7 v 0 c 0,1.8 1.4,2.8 3.5,2.8 1,0 1.8,-0.1 2.5,-0.4 v 0.3 c 0,1.5 -0.9,2.3 -2.4,2.3 -1,0 -1.7,-0.3 -2.5,-0.6 l -0.4,1 c 0.9,0.4 1.8,0.7 2.9,0.7 1.1,0 2,-0.3 2.6,-0.9 0.5,-0.6 0.8,-1.4 0.8,-2.5 v -5.2 h -1.2 v 1.3 c -0.6,-0.8 -1.5,-1.5 -2.9,-1.5 -1.4,0.1 -2.9,1 -2.9,2.7"
   class="st2" />
	<path
   style="fill:#cc092f"
   id="path34"
   d="m 220.3,245.8 h 1.2 v -1.5 c 0.5,0.9 1.4,1.6 2.8,1.6 2,0 3.1,-1.4 3.1,-3.4 v -5.2 h -1.2 v 4.9 c 0,1.6 -0.8,2.5 -2.2,2.5 -1.4,0 -2.4,-1.1 -2.4,-2.6 v -4.8 h -1.2 z"
   class="st2" />
	<path
   style="fill:#cc092f"
   id="path36"
   d="m 235.6,245.8 h 1.3 l -3.4,-8.7 c -0.7,-1.7 -1.5,-2.4 -2.7,-2.4 -0.7,0 -1.2,0.1 -1.7,0.4 l 0.4,1 c 0.4,-0.2 0.8,-0.3 1.3,-0.3 0.7,0 1.2,0.4 1.7,1.6 l -3.7,8.4 h 1.3 l 2.9,-7 z"
   class="st2" />
</g>

<g
   style="font-size:21.3333px;line-height:1.25;font-family:sans-serif;text-align:center;word-spacing:0px;text-anchor:middle"
   id="text97"
   aria-label="CA JCLCheck Workload Automation
Plug-in for Zowe CLI"><path
     d="m 102.79492,188.49023 v 16.20899 h 1.95703 v -8.6875 c 0.53472,-0.40973 1.0944,-0.74588 1.67774,-1.00977 0.58333,-0.26388 1.14301,-0.39648 1.67773,-0.39648 0.52084,0 0.94315,0.0729 1.26953,0.21875 0.3264,0.13889 0.5764,0.35482 0.75,0.64648 0.1667,0.26389 0.28129,0.6313 0.34375,1.10352 0.0625,0.46528 0.0937,0.96528 0.0937,1.5 v 6.625 h 1.95899 v -7.55274 c 0,-1.4236 -0.33052,-2.51258 -0.99024,-3.26953 -0.65972,-0.75694 -1.61805,-1.13672 -2.875,-1.13672 -0.68749,0 -1.35698,0.14302 -2.00976,0.42774 -0.65278,0.28472 -1.28537,0.68055 -1.89649,1.1875 v -5.86524 z m 37.41602,0 v 16.20899 h 1.95898 v -3.88477 l 1.26953,-1.20898 4.66797,5.09375 h 2.58203 l -5.80078,-6.25977 5.40625,-5.375 h -2.46875 l -5.65625,5.82227 v -10.39649 z m 63.29101,0 v 16.20899 h 1.95899 v -3.88477 l 1.26953,-1.20898 4.66797,5.09375 h 2.58203 l -5.80078,-6.25977 5.40625,-5.375 h -2.46875 l -5.65625,5.82227 v -10.39649 z m 12.5625,0 v 16.20899 h 1.95899 v -16.20899 z m 39.125,0 v 5.04297 c -0.52083,-0.27083 -1.01801,-0.46875 -1.49023,-0.59375 -0.47222,-0.13194 -1.01389,-0.19922 -1.625,-0.19922 -0.67361,0 -1.32509,0.1402 -1.95703,0.41797 -0.625,0.27778 -1.17427,0.67926 -1.64649,1.20703 -0.47916,0.54167 -0.86176,1.19792 -1.14648,1.96875 -0.27778,0.77084 -0.41602,1.65062 -0.41602,2.63672 0,1.89584 0.40625,3.37783 1.21875,4.44727 0.81945,1.06945 1.92362,1.60351 3.3125,1.60351 0.71528,0 1.37912,-0.13541 1.99024,-0.40625 0.6111,-0.27083 1.19726,-0.64865 1.75976,-1.13476 v 1.21875 h 1.95899 V 188.49023 Z M 21.251953,188.9082 c -1.138887,0 -2.175782,0.17709 -3.113281,0.53125 -0.930554,0.35417 -1.726998,0.86741 -2.386719,1.54102 -0.680555,0.69445 -1.201389,1.54579 -1.5625,2.55273 -0.361111,1.00695 -0.541015,2.14801 -0.541015,3.42578 -1e-6,1.34722 0.1875,2.53191 0.5625,3.55274 0.374999,1.01389 0.895833,1.85004 1.5625,2.50976 0.680554,0.67362 1.479819,1.1708 2.396484,1.49024 0.92361,0.3125 1.947267,0.46875 3.072266,0.46875 0.597221,0 1.14171,-0.0493 1.634765,-0.14649 0.499999,-0.0903 0.963108,-0.20009 1.386719,-0.33203 0.499999,-0.15972 0.901476,-0.31315 1.207031,-0.45898 0.312499,-0.14583 0.661025,-0.30208 1.042969,-0.46875 v -2.41602 h -0.146484 c -0.756944,0.68056 -1.569447,1.19097 -2.4375,1.53125 -0.868055,0.34028 -1.797962,0.50977 -2.791016,0.50977 -0.722221,0 -1.409723,-0.12218 -2.0625,-0.36524 -0.645833,-0.25 -1.213109,-0.63064 -1.699219,-1.14453 -0.465277,-0.49305 -0.84592,-1.13325 -1.144531,-1.91797 -0.291666,-0.78472 -0.4375,-1.72222 -0.4375,-2.8125 0,-1.04166 0.130642,-1.95833 0.394531,-2.75 0.270833,-0.7986 0.645834,-1.45768 1.125,-1.97851 0.493055,-0.53472 1.052735,-0.92774 1.677735,-1.17774 0.631943,-0.25694 1.340279,-0.38476 2.125,-0.38476 0.958332,0 1.856988,0.16384 2.697265,0.49023 0.840276,0.32639 1.688804,0.84723 2.542969,1.5625 h 0.15625 v -2.44922 c -1.013887,-0.50694 -1.938152,-0.8611 -2.771484,-1.0625 -0.826388,-0.20138 -1.656903,-0.30078 -2.490235,-0.30078 z m 46.708985,0 c -1.138887,0 -2.177736,0.17709 -3.115235,0.53125 -0.930554,0.35417 -1.725044,0.86741 -2.384765,1.54102 -0.680555,0.69445 -1.20139,1.54579 -1.5625,2.55273 -0.361111,1.00695 -0.541016,2.14801 -0.541016,3.42578 0,1.34722 0.187501,2.53191 0.5625,3.55274 0.374999,1.01389 0.895835,1.85004 1.5625,2.50976 0.680555,0.67362 1.477866,1.1708 2.394531,1.49024 0.923609,0.3125 1.94922,0.46875 3.074219,0.46875 0.597221,0 1.141711,-0.0493 1.634766,-0.14649 0.499999,-0.0903 0.961155,-0.20009 1.384765,-0.33203 0.499999,-0.15972 0.903429,-0.31315 1.208985,-0.45898 0.312499,-0.14583 0.659071,-0.30208 1.041015,-0.46875 v -2.41602 h -0.144531 c -0.756943,0.68056 -1.569446,1.19097 -2.4375,1.53125 -0.868055,0.34028 -1.799915,0.50977 -2.792969,0.50977 -0.722221,0 -1.409723,-0.12218 -2.0625,-0.36524 -0.645833,-0.25 -1.211156,-0.63064 -1.697265,-1.14453 -0.465278,-0.49305 -0.847874,-1.13325 -1.146485,-1.91797 -0.291666,-0.78472 -0.4375,-1.72222 -0.4375,-2.8125 0,-1.04166 0.132597,-1.95833 0.396485,-2.75 0.270833,-0.7986 0.645834,-1.45768 1.125,-1.97851 0.493054,-0.53472 1.052735,-0.92774 1.677734,-1.17774 0.631944,-0.25694 1.340279,-0.38476 2.125,-0.38476 0.958332,0 1.856989,0.16384 2.697266,0.49023 0.840276,0.32639 1.68685,0.84723 2.541015,1.5625 h 0.15625 v -2.44922 c -1.013887,-0.50694 -1.936199,-0.8611 -2.769531,-1.0625 -0.826388,-0.20138 -1.656902,-0.30078 -2.490234,-0.30078 z m 26.791015,0 c -1.138887,0 -2.175782,0.17709 -3.113281,0.53125 -0.930554,0.35417 -1.726998,0.86741 -2.386719,1.54102 -0.680555,0.69445 -1.20139,1.54579 -1.5625,2.55273 -0.361111,1.00695 -0.541016,2.14801 -0.541015,3.42578 0,1.34722 0.1875,2.53191 0.5625,3.55274 0.374999,1.01389 0.895834,1.85004 1.5625,2.50976 0.680554,0.67362 1.479819,1.1708 2.396484,1.49024 0.923609,0.3125 1.947267,0.46875 3.072266,0.46875 0.597221,0 1.14171,-0.0493 1.634765,-0.14649 0.499999,-0.0903 0.963109,-0.20009 1.386719,-0.33203 0.499999,-0.15972 0.901476,-0.31315 1.207031,-0.45898 0.312499,-0.14583 0.661023,-0.30208 1.042967,-0.46875 v -2.41602 h -0.146482 c -0.756944,0.68056 -1.569446,1.19097 -2.4375,1.53125 -0.868055,0.34028 -1.797962,0.50977 -2.791016,0.50977 -0.722221,0 -1.409723,-0.12218 -2.0625,-0.36524 -0.645833,-0.25 -1.213109,-0.63064 -1.699219,-1.14453 -0.465277,-0.49305 -0.84592,-1.13325 -1.144531,-1.91797 -0.291666,-0.78472 -0.4375,-1.72222 -0.4375,-2.8125 0,-1.04166 0.130643,-1.95833 0.394531,-2.75 0.270833,-0.7986 0.645834,-1.45768 1.125,-1.97851 0.493055,-0.53472 1.052736,-0.92774 1.677735,-1.17774 0.631943,-0.25694 1.340278,-0.38476 2.125,-0.38476 0.958331,0 1.856989,0.16384 2.697265,0.49023 0.840277,0.32639 1.688804,0.84723 2.542969,1.5625 h 0.156248 v -2.44922 c -1.013887,-0.50694 -1.938151,-0.8611 -2.771482,-1.0625 -0.826389,-0.20138 -1.656903,-0.30078 -2.490235,-0.30078 z m 265.103517,0.17578 v 2.03125 h 2.20898 v -2.03125 z m -326.572267,0.10547 -5.644531,15.50977 h 2.09375 l 1.519531,-4.32227 h 6.708985 l 1.521484,4.32227 h 2.197266 l -5.646485,-15.50977 z m 18.59375,0 v 1.64453 h 3.28125 v 9.05274 c 0,0.52777 -0.02648,0.9937 -0.08203,1.39648 -0.04861,0.40278 -0.167969,0.74176 -0.355469,1.01953 -0.180555,0.27084 -0.461807,0.47917 -0.84375,0.625 -0.375,0.14584 -0.880644,0.21875 -1.519531,0.21875 -0.437499,0 -0.864584,-0.0521 -1.28125,-0.15625 -0.416666,-0.10416 -0.768013,-0.20356 -1.052734,-0.30078 h -0.115235 v 1.92578 c 0.374999,0.0834 0.84093,0.15346 1.396485,0.20899 0.555554,0.0625 1.000651,0.0937 1.333984,0.0937 1.395831,0 2.505644,-0.36741 3.332031,-1.10352 0.833332,-0.73611 1.25,-1.78537 1.25,-3.14648 v -11.47852 z m 24.28125,0 v 15.50977 h 9.8125 v -1.83399 h -7.75 v -13.67578 z m 83.124997,0 4.10547,15.50977 h 2.26953 l 3.1875,-12.875 3.26172,12.875 h 2.32227 l 4.03125,-15.50977 h -2.02149 l -3.23828,13.01953 -3.24023,-13.01953 h -2.09375 l -3.20899,12.89453 -3.25976,-12.89453 z m 113.20899,0 -5.64649,15.50977 h 2.09375 l 1.52149,-4.32227 h 6.70703 l 1.52148,4.32227 h 2.19727 l -5.64453,-15.50977 z m 24.13476,0.53125 v 3.34375 h -1.32226 v 1.64453 h 1.32226 v 6.1875 c 0,1.40972 0.30968,2.43533 0.92774,3.07422 0.61805,0.63889 1.51953,0.95703 2.70703,0.95703 0.34027,0 0.72569,-0.0313 1.15625,-0.0937 0.43749,-0.0625 0.84092,-0.14105 1.20898,-0.23828 v -1.76172 h -0.10351 c -0.15278,0.0625 -0.40278,0.14302 -0.75,0.24024 -0.34722,0.0903 -0.68056,0.13476 -1,0.13476 -0.54861,0 -0.95964,-0.0625 -1.23047,-0.1875 -0.26389,-0.13194 -0.47222,-0.3355 -0.625,-0.61328 -0.16665,-0.29861 -0.26322,-0.61871 -0.29102,-0.95898 -0.0278,-0.34723 -0.041,-0.82639 -0.041,-1.4375 v -5.30274 h 4.04101 v -1.64453 h -4.04101 v -3.34375 z m 54.95899,0 v 3.34375 h -1.32422 v 1.64453 h 1.32422 v 6.1875 c 0,1.40972 0.30773,2.43533 0.92578,3.07422 0.61805,0.63889 1.52148,0.95703 2.70898,0.95703 0.34028,0 0.72569,-0.0313 1.15625,-0.0937 0.4375,-0.0625 0.84093,-0.14105 1.20899,-0.23828 v -1.76172 h -0.10547 c -0.15277,0.0625 -0.40277,0.14302 -0.75,0.24024 -0.34722,0.0903 -0.68055,0.13476 -1,0.13476 -0.54861,0 -0.95768,-0.0625 -1.22852,-0.1875 -0.26388,-0.13194 -0.47222,-0.3355 -0.625,-0.61328 -0.16664,-0.29861 -0.26321,-0.61871 -0.29101,-0.95898 -0.0278,-0.34723 -0.043,-0.82639 -0.043,-1.4375 v -5.30274 h 4.04297 v -1.64453 h -4.04297 v -3.34375 z m -316.978518,1.26953 2.71875,7.61524 h -5.449219 z m 239.207028,0 2.71875,7.61524 h -5.44726 z m -152.6875,1.75 c -1.69444,0 -3.06185,0.55969 -4.10351,1.67774 -1.03472,1.11805 -1.55274,2.62848 -1.55274,4.53125 0,1.92361 0.54167,3.41037 1.625,4.45898 1.08334,1.04166 2.59093,1.5625 4.52149,1.5625 0.75694,0 1.47851,-0.0937 2.16601,-0.28125 0.6875,-0.18749 1.36177,-0.42144 2.02149,-0.69922 v -2.13476 h -0.10352 c -0.34027,0.30555 -0.91319,0.61806 -1.71875,0.9375 -0.79861,0.3125 -1.59505,0.46875 -2.38672,0.46875 -0.59722,0 -1.14453,-0.0833 -1.64453,-0.25 -0.49305,-0.16667 -0.92013,-0.41667 -1.28125,-0.75 -0.375,-0.34028 -0.67144,-0.77496 -0.88672,-1.30274 -0.21528,-0.53472 -0.32226,-1.15972 -0.32226,-1.875 h 8.57226 v -1.0625 c 0,-1.6875 -0.42708,-2.98958 -1.28125,-3.90625 -0.84722,-0.91666 -2.05555,-1.375 -3.625,-1.375 z m 64.76172,0 c -1.64583,0 -2.95551,0.55209 -3.92773,1.65625 -0.96528,1.09723 -1.44727,2.59441 -1.44727,4.49024 0,1.89583 0.48199,3.39301 1.44727,4.49023 0.97222,1.09722 2.2819,1.64453 3.92773,1.64453 1.63194,0 2.93208,-0.54731 3.9043,-1.64453 0.97222,-1.09722 1.45898,-2.5944 1.45898,-4.49023 0,-1.89583 -0.48676,-3.39301 -1.45898,-4.49024 -0.97222,-1.10416 -2.27236,-1.65625 -3.9043,-1.65625 z m 40.58203,0 c -1.64583,0 -2.95551,0.55209 -3.92773,1.65625 -0.96528,1.09723 -1.44727,2.59441 -1.44727,4.49024 0,1.89583 0.48199,3.39301 1.44727,4.49023 0.97222,1.09722 2.2819,1.64453 3.92773,1.64453 1.63194,0 2.93403,-0.54731 3.90625,-1.64453 0.97222,-1.09722 1.45899,-2.5944 1.45899,-4.49023 0,-1.89583 -0.48677,-3.39301 -1.45899,-4.49024 -0.97222,-1.10416 -2.27431,-1.65625 -3.90625,-1.65625 z m 83.08399,0 c -1.64583,0 -2.95551,0.55209 -3.92774,1.65625 -0.96527,1.09723 -1.44726,2.59441 -1.44726,4.49024 0,1.89583 0.48199,3.39301 1.44726,4.49023 0.97223,1.09722 2.28191,1.64453 3.92774,1.64453 1.63194,0 2.93402,-0.54731 3.90625,-1.64453 0.97222,-1.09722 1.45703,-2.5944 1.45703,-4.49023 0,-1.89583 -0.48481,-3.39301 -1.45703,-4.49024 -0.97223,-1.10416 -2.27431,-1.65625 -3.90625,-1.65625 z m 14.13476,0 c -0.6875,0 -1.33615,0.14302 -1.94726,0.42774 -0.60417,0.28472 -1.21311,0.68055 -1.82422,1.1875 v -1.29102 h -1.95703 v 11.63477 h 1.95703 v -8.6875 c 0.53472,-0.40973 1.07075,-0.74588 1.60547,-1.00977 0.54166,-0.26388 1.07856,-0.39648 1.61328,-0.39648 0.5625,0 0.99435,0.0757 1.29297,0.22851 0.2986,0.14584 0.52777,0.36936 0.6875,0.66797 0.14583,0.27778 0.23958,0.64801 0.28125,1.11328 0.0486,0.45834 0.0723,0.9451 0.0723,1.45899 v 6.625 h 1.95899 v -7.44727 c 0,-0.20833 -0.008,-0.41666 -0.0215,-0.625 -0.0139,-0.21528 -0.0319,-0.40278 -0.0527,-0.5625 0.54861,-0.42361 1.09787,-0.77213 1.64648,-1.04297 0.54861,-0.27777 1.09787,-0.41601 1.64649,-0.41601 0.5625,0 0.99241,0.0757 1.29101,0.22851 0.29862,0.15278 0.52778,0.37913 0.6875,0.67774 0.14584,0.27777 0.23959,0.64995 0.28125,1.11523 0.0486,0.46528 0.0723,0.94727 0.0723,1.44727 v 6.625 h 1.95898 v -7.55274 c 0,-1.38888 -0.3049,-2.46744 -0.91601,-3.23828 -0.60416,-0.77777 -1.54644,-1.16797 -2.82422,-1.16797 -0.74305,0 -1.44097,0.15062 -2.09375,0.44922 -0.65277,0.29167 -1.37435,0.77084 -2.16602,1.4375 -0.27083,-0.59027 -0.68468,-1.05338 -1.24023,-1.38672 -0.54861,-0.33333 -1.21811,-0.5 -2.00977,-0.5 z m 46.69727,0 c -1.64583,0 -2.95356,0.55209 -3.92578,1.65625 -0.96528,1.09723 -1.44922,2.59441 -1.44922,4.49024 0,1.89583 0.48394,3.39301 1.44922,4.49023 0.97222,1.09722 2.27995,1.64453 3.92578,1.64453 1.63195,0 2.93403,-0.54731 3.90625,-1.64453 0.97222,-1.09722 1.45898,-2.5944 1.45898,-4.49023 0,-1.89583 -0.48676,-3.39301 -1.45898,-4.49024 -0.97222,-1.10416 -2.2743,-1.65625 -3.90625,-1.65625 z m 14.27148,0 c -0.68749,0 -1.35698,0.14302 -2.00976,0.42774 -0.65278,0.28472 -1.28537,0.68055 -1.89649,1.1875 v -1.29102 h -1.95898 v 11.63477 h 1.95898 v -8.6875 c 0.53472,-0.40973 1.0944,-0.74588 1.67774,-1.00977 0.58333,-0.26388 1.14106,-0.39648 1.67578,-0.39648 0.52083,0 0.9451,0.0729 1.27148,0.21875 0.3264,0.13889 0.5764,0.35482 0.75,0.64648 0.1667,0.26389 0.28129,0.6313 0.34375,1.10352 0.0625,0.46528 0.0937,0.96528 0.0937,1.5 v 6.625 h 1.95899 v -7.55274 c 0,-1.4236 -0.33052,-2.51258 -0.99024,-3.26953 -0.65972,-0.75694 -1.61805,-1.13672 -2.875,-1.13672 z m -145.80273,0.043 c -0.70139,0 -1.41255,0.0625 -2.13477,0.1875 -0.72222,0.125 -1.2743,0.23959 -1.65625,0.34375 v 1.98828 h 0.10352 c 0.67361,-0.25694 1.32704,-0.45008 1.95898,-0.58203 0.63194,-0.13888 1.20486,-0.20898 1.71875,-0.20898 0.42361,0 0.82987,0.0284 1.21875,0.084 0.3889,0.0556 0.72223,0.16254 1,0.32227 0.29167,0.16667 0.51324,0.39583 0.66602,0.6875 0.15972,0.29167 0.24023,0.65907 0.24023,1.10351 v 0.30274 c -1.13888,0.0556 -2.20421,0.13889 -3.19726,0.25 -0.99306,0.11111 -1.8444,0.32226 -2.55274,0.63476 -0.70138,0.3125 -1.24305,0.74437 -1.625,1.29297 -0.375,0.54167 -0.5625,1.25282 -0.5625,2.13477 0,1.07639 0.36459,1.96181 1.09375,2.65625 0.72917,0.69445 1.61741,1.04101 2.66602,1.04101 0.56945,0 1.06662,-0.0549 1.49023,-0.16601 0.42361,-0.10417 0.79862,-0.23677 1.125,-0.39649 0.27778,-0.125 0.56185,-0.29166 0.85352,-0.5 0.29861,-0.21528 0.53538,-0.38194 0.70898,-0.5 v 1.24024 h 1.94727 v -7.89649 c 0,-0.75 -0.11458,-1.37782 -0.34375,-1.88476 -0.22917,-0.50695 -0.5625,-0.9208 -1,-1.24024 -0.44445,-0.32639 -0.97093,-0.55556 -1.58203,-0.6875 -0.60417,-0.13889 -1.31727,-0.20703 -2.13672,-0.20703 z m 103.83398,0 c -0.70138,0 -1.41254,0.0625 -2.13476,0.1875 -0.72223,0.125 -1.27431,0.23959 -1.65625,0.34375 v 1.98828 h 0.10351 c 0.67362,-0.25694 1.32705,-0.45008 1.95899,-0.58203 0.63194,-0.13888 1.20486,-0.20898 1.71875,-0.20898 0.42361,0 0.82986,0.0284 1.21875,0.084 0.38888,0.0556 0.72222,0.16254 1,0.32227 0.29166,0.16667 0.51324,0.39583 0.66601,0.6875 0.15973,0.29167 0.24024,0.65907 0.24024,1.10351 v 0.30274 c -1.13889,0.0556 -2.20617,0.13889 -3.19922,0.25 -0.99306,0.11111 -1.84246,0.32226 -2.55078,0.63476 -0.7014,0.3125 -1.24306,0.74437 -1.625,1.29297 -0.375,0.54167 -0.5625,1.25282 -0.5625,2.13477 0,1.07639 0.36458,1.96181 1.09375,2.65625 0.72916,0.69445 1.61741,1.04101 2.66601,1.04101 0.56945,0 1.06663,-0.0549 1.49024,-0.16601 0.42361,-0.10417 0.79861,-0.23677 1.125,-0.39649 0.27778,-0.125 0.56185,-0.29166 0.85351,-0.5 0.29861,-0.21528 0.53537,-0.38194 0.70899,-0.5 v 1.24024 h 1.94726 v -7.89649 c 0,-0.75 -0.11458,-1.37782 -0.34375,-1.88476 -0.22916,-0.50695 -0.5625,-0.9208 -1,-1.24024 -0.44444,-0.32639 -0.97287,-0.55556 -1.58398,-0.6875 -0.60417,-0.13889 -1.31533,-0.20703 -2.13477,-0.20703 z m -208.8125,0.01 c -1.71527,0 -3.09592,0.54167 -4.14453,1.625 -1.04166,1.08333 -1.5625,2.57574 -1.5625,4.47851 0,1.02083 0.13824,1.91385 0.41602,2.67774 0.27778,0.76389 0.67079,1.39648 1.17773,1.89648 0.5,0.5 1.09939,0.87501 1.80078,1.125 0.70139,0.24306 1.47223,0.36328 2.3125,0.36328 0.65972,0 1.2819,-0.0862 1.86524,-0.25976 0.59028,-0.17361 1.21246,-0.41602 1.86523,-0.72852 v -2.15625 h -0.10547 c -0.14583,0.11806 -0.34375,0.25912 -0.59375,0.42578 -0.25,0.15972 -0.51606,0.31316 -0.80078,0.45899 -0.32639,0.16667 -0.69575,0.30208 -1.10547,0.40625 -0.40972,0.10417 -0.81119,0.15625 -1.20703,0.15625 -1.13888,0 -2.0243,-0.37501 -2.65625,-1.125 -0.62499,-0.75695 -0.9375,-1.83746 -0.9375,-3.24024 0,-1.44444 0.31815,-2.53819 0.95703,-3.28125 0.64584,-0.75 1.52562,-1.125 2.63672,-1.125 0.60417,0 1.22158,0.125 1.85352,0.375 0.63889,0.25 1.25629,0.60894 1.85351,1.07422 h 0.10547 v -2.17773 c -0.53472,-0.27083 -1.12565,-0.5 -1.77148,-0.6875 -0.63889,-0.1875 -1.29232,-0.28125 -1.95899,-0.28125 z m 60.41602,0.27148 v 11.63477 h 1.95898 v -8.25977 c 0.52083,-0.42361 1.0625,-0.76736 1.625,-1.03125 0.5625,-0.27083 1.14584,-0.40625 1.75,-0.40625 0.375,0 0.69792,0.0161 0.96875,0.0508 0.27778,0.0278 0.56185,0.077 0.85352,0.14649 h 0.10547 v -2.00977 c -0.30556,-0.0486 -0.53472,-0.0799 -0.6875,-0.0937 -0.15278,-0.0208 -0.39996,-0.0312 -0.74024,-0.0312 -0.61805,0 -1.22504,0.13064 -1.82226,0.39453 -0.59028,0.25694 -1.27496,0.69922 -2.05274,1.32422 v -1.71875 z m 88.70898,0 v 7.55078 c 0,1.44445 0.34093,2.54297 1.02149,3.29297 0.68055,0.74306 1.63129,1.11328 2.85351,1.11328 0.72917,0 1.39584,-0.13823 2,-0.41601 0.60417,-0.27777 1.23677,-0.67643 1.89649,-1.19727 v 1.29102 h 1.95703 v -11.63477 h -1.95703 v 8.6875 c -0.52084,0.40972 -1.08334,0.74588 -1.6875,1.00977 -0.59722,0.26389 -1.14931,0.39648 -1.65625,0.39648 -0.56944,0 -1.00412,-0.0701 -1.30274,-0.20898 -0.2986,-0.13889 -0.54101,-0.36046 -0.72851,-0.66602 -0.18058,-0.29861 -0.29994,-0.65755 -0.35547,-1.07422 -0.0555,-0.4236 -0.082,-0.92925 -0.082,-1.51953 v -6.625 z m 76.97852,0 v 11.63477 h 1.95898 v -11.63477 z m -238.95703,1.29102 c 1.04166,0 1.81532,0.28125 2.32226,0.84375 0.5139,0.5625 0.77432,1.35699 0.78125,2.38476 h -6.66601 c 0.0833,-0.91666 0.43468,-1.68272 1.05273,-2.30078 0.625,-0.61805 1.46115,-0.92773 2.50977,-0.92773 z m 64.86523,0.0723 c 1.04861,0 1.86675,0.36936 2.45703,1.10547 0.59028,0.72917 0.88477,1.84658 0.88477,3.35352 0,1.47222 -0.29731,2.58398 -0.89453,3.33398 -0.59028,0.74306 -1.4056,1.11328 -2.44727,1.11328 -1.05555,0 -1.87847,-0.375 -2.46875,-1.125 -0.59027,-0.75694 -0.88672,-1.86393 -0.88672,-3.32226 0,-1.50694 0.29167,-2.62435 0.875,-3.35352 0.59028,-0.73611 1.41797,-1.10547 2.48047,-1.10547 z m 40.58203,0 c 1.04861,0 1.86871,0.36936 2.45899,1.10547 0.59027,0.72917 0.88476,1.84658 0.88476,3.35352 0,1.47222 -0.29926,2.58398 -0.89648,3.33398 -0.59028,0.74306 -1.40561,1.11328 -2.44727,1.11328 -1.05555,0 -1.87847,-0.375 -2.46875,-1.125 -0.59028,-0.75694 -0.88476,-1.86393 -0.88476,-3.32226 0,-1.50694 0.29166,-2.62435 0.875,-3.35352 0.59028,-0.73611 1.41601,-1.10547 2.47851,-1.10547 z m 83.08399,0 c 1.04861,0 1.86676,0.36936 2.45703,1.10547 0.59028,0.72917 0.88672,1.84658 0.88672,3.35352 0,1.47222 -0.29926,2.58398 -0.89649,3.33398 -0.59027,0.74306 -1.4056,1.11328 -2.44726,1.11328 -1.05556,0 -1.87848,-0.375 -2.46875,-1.125 -0.59028,-0.75694 -0.88672,-1.86393 -0.88672,-3.32226 0,-1.50694 0.29167,-2.62435 0.875,-3.35352 0.59027,-0.73611 1.41797,-1.10547 2.48047,-1.10547 z m 60.83203,0 c 1.04861,0 1.86871,0.36936 2.45898,1.10547 0.59028,0.72917 0.88477,1.84658 0.88477,3.35352 0,1.47222 -0.29731,2.58398 -0.89453,3.33398 -0.59028,0.74306 -1.40755,1.11328 -2.44922,1.11328 -1.05555,0 -1.87848,-0.375 -2.46875,-1.125 -0.59028,-0.75694 -0.88477,-1.86393 -0.88477,-3.32226 0,-1.50694 0.29167,-2.62435 0.875,-3.35352 0.59028,-0.73611 1.41603,-1.10547 2.47852,-1.10547 z M 252.4082,194.5332 c 0.49306,0 0.94857,0.0445 1.36524,0.13477 0.41666,0.0903 0.88824,0.25412 1.41601,0.49023 v 6.67578 c -0.49305,0.3889 -1.0243,0.709 -1.59375,0.95899 -0.56944,0.24306 -1.13194,0.36523 -1.6875,0.36523 -1.04166,0 -1.79926,-0.35894 -2.27148,-1.07422 -0.47223,-0.72222 -0.70703,-1.77431 -0.70703,-3.15625 0,-1.40278 0.3049,-2.48611 0.91601,-3.25 0.61111,-0.76388 1.46528,-1.14453 2.5625,-1.14453 z m -10.4375,4.0625 v 3.23828 c -0.4861,0.375 -1.01453,0.69792 -1.58398,0.96875 -0.56944,0.26389 -1.19727,0.39649 -1.88477,0.39649 -0.82638,0 -1.44097,-0.16667 -1.84375,-0.5 -0.40278,-0.34027 -0.60351,-0.8431 -0.60351,-1.50977 0,-0.59027 0.1723,-1.05338 0.51953,-1.38672 0.34722,-0.34028 0.80273,-0.59028 1.36523,-0.75 0.47222,-0.13194 1.11047,-0.23133 1.91602,-0.30078 0.8125,-0.0694 1.51801,-0.12151 2.11523,-0.15625 z m 103.83399,0 v 3.23828 c -0.48612,0.375 -1.01455,0.69792 -1.58399,0.96875 -0.56944,0.26389 -1.19726,0.39649 -1.88476,0.39649 -0.82639,0 -1.44098,-0.16667 -1.84375,-0.5 -0.40278,-0.34027 -0.60547,-0.8431 -0.60547,-1.50977 0,-0.59027 0.17426,-1.05338 0.52148,-1.38672 0.34722,-0.34028 0.80274,-0.59028 1.36524,-0.75 0.47222,-0.13194 1.11046,-0.23133 1.91601,-0.30078 0.8125,-0.0694 1.51802,-0.12151 2.11524,-0.15625 z m -166.35352,16.45703 c -1.2986,0 -2.29297,0.37219 -2.98047,1.11524 -0.6875,0.73611 -1.03125,1.79579 -1.03125,3.17773 v 0.38477 h -1.32226 v 1.64648 h 1.32226 v 9.98828 h 1.95899 v -9.98828 h 3.46875 v -1.64648 h -3.53125 v -0.39649 c 0,-0.97222 0.1875,-1.64171 0.5625,-2.00976 0.38194,-0.375 0.9937,-0.5625 1.83398,-0.5625 0.26389,0 0.5688,0.0341 0.91602,0.10351 0.34722,0.0625 0.62847,0.12504 0.84375,0.1875 h 0.10351 v -1.79101 c -0.29166,-0.0556 -0.61458,-0.10482 -0.96875,-0.14649 -0.34722,-0.0417 -0.73828,-0.0625 -1.17578,-0.0625 z m -73.34375,0.10547 v 16.20703 h 1.95703 V 215.1582 Z m 178.43555,0.41602 c -1.13889,0 -2.17578,0.17708 -3.11328,0.53125 -0.93056,0.35417 -1.727,0.8674 -2.38672,1.54101 -0.68055,0.69444 -1.20139,1.54579 -1.5625,2.55274 -0.36111,1.00694 -0.54102,2.14996 -0.54102,3.42773 0,1.34722 0.18751,2.52995 0.5625,3.55078 0.375,1.01389 0.89584,1.852 1.5625,2.51172 0.68056,0.67361 1.47982,1.16884 2.39649,1.48828 0.92361,0.3125 1.94727,0.46875 3.07226,0.46875 0.59723,0 1.14172,-0.0473 1.63477,-0.14453 0.5,-0.0903 0.96311,-0.20203 1.38672,-0.33398 0.5,-0.15972 0.90148,-0.31315 1.20703,-0.45899 0.3125,-0.14583 0.66102,-0.30208 1.04297,-0.46875 v -2.41601 h -0.14649 c -0.75694,0.68056 -1.56944,1.19098 -2.4375,1.53125 -0.86805,0.34028 -1.79796,0.50976 -2.79101,0.50976 -0.72222,0 -1.40972,-0.12022 -2.0625,-0.36328 -0.64584,-0.25 -1.21311,-0.63259 -1.69922,-1.14648 -0.46528,-0.49305 -0.84592,-1.1313 -1.14453,-1.91602 -0.29166,-0.78472 -0.4375,-1.72222 -0.4375,-2.8125 0,-1.04166 0.13064,-1.95833 0.39453,-2.75 0.27083,-0.79861 0.64583,-1.45964 1.125,-1.98047 0.49305,-0.53472 1.05273,-0.92578 1.67773,-1.17578 0.63194,-0.25694 1.34028,-0.38672 2.125,-0.38672 0.95834,0 1.85699,0.16385 2.69727,0.49024 0.84027,0.32639 1.6888,0.84722 2.54297,1.5625 h 0.15625 v -2.44727 c -1.01389,-0.50694 -1.93815,-0.86111 -2.77149,-1.0625 -0.82638,-0.20139 -1.6569,-0.30273 -2.49023,-0.30273 z m -136.18555,0.17773 v 2.03125 h 2.20703 v -2.03125 z m -54.990232,0.10352 v 15.50976 h 2.0625 v -5.78125 h 2.0625 c 1.111109,0 2.030598,-0.13063 2.759762,-0.39453 0.72917,-0.27083 1.36177,-0.67426 1.89649,-1.20898 0.43055,-0.43055 0.76388,-0.93815 1,-1.52149 0.24305,-0.59028 0.36523,-1.22852 0.36523,-1.91601 0,-0.90278 -0.16385,-1.64996 -0.49023,-2.24024 -0.31945,-0.59028 -0.77496,-1.08268 -1.36524,-1.47851 -0.5,-0.33333 -1.07291,-0.57574 -1.718747,-0.72852 -0.645833,-0.15972 -1.432727,-0.24023 -2.363281,-0.24023 z m 118.791012,0 v 1.83398 h 9.15625 l -9.50976,11.75977 v 1.91601 h 12.10351 v -1.83203 h -9.83398 l 9.60547,-11.8125 v -1.86523 z m 80.58399,0 v 15.50976 h 9.8125 v -1.83203 h -7.75 v -13.67773 z m 11.21875,0 v 1.58398 h 2.03125 v 12.34375 h -2.03125 v 1.58203 h 6.125 v -1.58203 h -2.03125 v -12.34375 h 2.03125 v -1.58398 z m -208.531252,1.77148 h 2.041015 c 0.652777,0 1.191625,0.0473 1.615235,0.14453 0.430555,0.0903 0.813155,0.24371 1.146482,0.45899 0.38195,0.25 0.66602,0.57292 0.85352,0.96875 0.1875,0.39583 0.28125,0.86176 0.28125,1.39648 0,0.45834 -0.0701,0.87023 -0.20899,1.23828 -0.13194,0.36806 -0.36111,0.71941 -0.6875,1.05274 -0.32639,0.32639 -0.748695,0.56598 -1.269528,0.71875 -0.520832,0.14583 -1.197918,0.21875 -2.03125,0.21875 h -1.740234 z m 34.375002,1.78125 c -0.6389,0 -1.28191,0.13824 -1.92774,0.41602 -0.64583,0.27083 -1.19314,0.65343 -1.64453,1.14648 -0.48611,0.52778 -0.87153,1.1556 -1.15625,1.88477 -0.27778,0.72222 -0.41797,1.58398 -0.41797,2.58398 0,1.82639 0.40625,3.24306 1.21875,4.25 0.81944,1 1.92362,1.5 3.3125,1.5 0.83334,0 1.51802,-0.11458 2.05274,-0.34375 0.54166,-0.2361 1.10698,-0.59028 1.69726,-1.0625 v 1.0625 c 0,0.47223 -0.0521,0.89931 -0.15625,1.28125 -0.10416,0.38195 -0.27647,0.70769 -0.51953,0.97852 -0.24306,0.28472 -0.58398,0.50629 -1.02148,0.66601 -0.4375,0.15973 -0.98959,0.24024 -1.65625,0.24024 -0.69445,0 -1.38955,-0.0937 -2.08399,-0.28125 -0.69444,-0.18056 -1.20009,-0.33399 -1.51953,-0.45899 h -0.10547 v 2 c 0.56944,0.15972 1.14714,0.28191 1.73047,0.36524 0.59028,0.0903 1.19445,0.13476 1.8125,0.13476 1.86111,0 3.23893,-0.46115 4.13477,-1.38476 0.89583,-0.92361 1.34375,-2.37153 1.34375,-4.34375 v -10.3125 h -1.83399 l -0.125,0.5 c -0.50694,-0.27778 -0.98893,-0.48329 -1.44726,-0.61524 -0.45139,-0.13888 -1.0139,-0.20703 -1.6875,-0.20703 z m 30.39648,0 c -0.6875,0 -1.35894,0.14106 -2.01172,0.42578 -0.65278,0.28473 -1.28342,0.68056 -1.89453,1.1875 v -1.29101 h -1.95898 v 11.63476 h 1.95898 v -8.6875 c 0.53472,-0.40972 1.09245,-0.74587 1.67578,-1.00976 0.58334,-0.26389 1.14302,-0.39649 1.67774,-0.39649 0.52083,0 0.9451,0.0729 1.27148,0.21875 0.32639,0.13889 0.57639,0.35482 0.75,0.64649 0.1667,0.26389 0.28129,0.63129 0.34375,1.10351 0.0625,0.46528 0.0937,0.96528 0.0937,1.5 v 6.625 h 1.95703 v -7.55078 c 0,-1.4236 -0.32856,-2.51454 -0.98828,-3.27148 -0.65972,-0.75695 -1.61806,-1.13477 -2.875,-1.13477 z m 27.1875,0 c -1.64582,0 -2.95551,0.55209 -3.92773,1.65625 -0.96528,1.09722 -1.44727,2.59245 -1.44727,4.48828 0,1.89583 0.48199,3.39302 1.44727,4.49024 0.97222,1.09722 2.28191,1.64648 3.92773,1.64648 1.63194,0 2.93403,-0.54926 3.90625,-1.64648 0.97222,-1.09722 1.45703,-2.59441 1.45703,-4.49024 0,-1.89583 -0.48481,-3.39106 -1.45703,-4.48828 -0.97222,-1.10416 -2.27431,-1.65625 -3.90625,-1.65625 z m 44.20703,0 c -1.64583,0 -2.95551,0.55209 -3.92773,1.65625 -0.96527,1.09722 -1.44727,2.59245 -1.44727,4.48828 0,1.89583 0.482,3.39302 1.44727,4.49024 0.97222,1.09722 2.2819,1.64648 3.92773,1.64648 1.63194,0 2.93403,-0.54926 3.90625,-1.64648 0.97222,-1.09722 1.45899,-2.59441 1.45899,-4.49024 0,-1.89583 -0.48677,-3.39106 -1.45899,-4.48828 -0.97222,-1.10416 -2.27431,-1.65625 -3.90625,-1.65625 z m 30.69727,0 c -1.69444,0 -3.06185,0.55773 -4.10352,1.67578 -1.03472,1.11806 -1.55273,2.62847 -1.55273,4.53125 0,1.92361 0.54167,3.41038 1.625,4.45899 1.08333,1.04167 2.59093,1.5625 4.52148,1.5625 0.75695,0 1.47853,-0.0937 2.16602,-0.28125 0.6875,-0.1875 1.36176,-0.41949 2.02148,-0.69727 v -2.13672 h -0.10351 c -0.34028,0.30556 -0.9132,0.61806 -1.71875,0.9375 -0.79861,0.3125 -1.59505,0.46875 -2.38672,0.46875 -0.59722,0 -1.14453,-0.0833 -1.64453,-0.25 -0.49306,-0.16666 -0.92014,-0.41666 -1.28125,-0.75 -0.375,-0.34028 -0.67144,-0.773 -0.88672,-1.30078 -0.21527,-0.53472 -0.32227,-1.15972 -0.32227,-1.875 h 8.57227 v -1.0625 c 0,-1.68749 -0.42708,-2.98958 -1.28125,-3.90625 -0.84722,-0.91666 -2.05556,-1.375 -3.625,-1.375 z m -150.41602,0.32227 v 7.55273 c 0,1.44444 0.34093,2.54102 1.02149,3.29102 0.68055,0.74305 1.63129,1.11523 2.85351,1.11523 0.72917,0 1.39584,-0.14019 2,-0.41797 0.60417,-0.27778 1.23677,-0.67643 1.89649,-1.19726 v 1.29101 h 1.95898 v -11.63476 h -1.95898 v 8.6875 c -0.52084,0.40973 -1.08334,0.74588 -1.6875,1.00976 -0.59722,0.26389 -1.14931,0.39649 -1.65625,0.39649 -0.56945,0 -1.00413,-0.0701 -1.30274,-0.20899 -0.29861,-0.13888 -0.54101,-0.36045 -0.72851,-0.66601 -0.18058,-0.29861 -0.29798,-0.6556 -0.35352,-1.07227 -0.0555,-0.42361 -0.084,-0.93121 -0.084,-1.52148 v -6.625 z m 36.60547,0 v 11.63476 h 1.95703 v -11.63476 z m 47.31055,0 v 11.63476 h 1.95898 v -8.25976 c 0.52084,-0.42361 1.0625,-0.76736 1.625,-1.03125 0.5625,-0.27083 1.14584,-0.40625 1.75,-0.40625 0.375,0 0.69792,0.018 0.96875,0.0527 0.27778,0.0278 0.56185,0.0751 0.85352,0.14453 h 0.10547 v -2.00976 c -0.30556,-0.0486 -0.53472,-0.0799 -0.6875,-0.0937 -0.15278,-0.0208 -0.39996,-0.0312 -0.74024,-0.0312 -0.61805,0 -1.22504,0.1326 -1.82226,0.39648 -0.59028,0.25695 -1.27496,0.69728 -2.05274,1.32227 v -1.71875 z m 43.17773,0 3.0625,11.63476 h 1.80274 l 2.96875,-8.96875 2.98828,8.96875 h 1.8125 l 3.03125,-11.63476 h -1.96875 l -2.01953,9.00976 -2.98047,-9.00976 h -1.61328 l -2.90625,9.00976 -2.13672,-9.00976 z m 23.21875,1.29101 c 1.04167,0 1.81532,0.28125 2.32227,0.84375 0.51389,0.5625 0.77432,1.35895 0.78125,2.38672 h -6.66602 c 0.0833,-0.91666 0.43468,-1.68467 1.05274,-2.30273 0.625,-0.61805 1.46116,-0.92774 2.50976,-0.92774 z m -74.80078,0.0742 c 1.04862,0 1.86676,0.36741 2.45703,1.10352 0.59028,0.72917 0.88672,1.84657 0.88672,3.35351 0,1.47222 -0.29926,2.58399 -0.89648,3.33399 -0.59028,0.74305 -1.4056,1.11523 -2.44727,1.11523 -1.05555,0 -1.87847,-0.375 -2.46875,-1.125 -0.59028,-0.75694 -0.88672,-1.86589 -0.88672,-3.32422 0,-1.50694 0.29167,-2.62434 0.875,-3.35351 0.59028,-0.73611 1.41797,-1.10352 2.48047,-1.10352 z m 44.20703,0 c 1.04861,0 1.86871,0.36741 2.45899,1.10352 0.59027,0.72917 0.88476,1.84657 0.88476,3.35351 0,1.47222 -0.29926,2.58399 -0.89648,3.33399 -0.59027,0.74305 -1.4056,1.11523 -2.44727,1.11523 -1.05555,0 -1.87847,-0.375 -2.46875,-1.125 -0.59027,-0.75694 -0.88476,-1.86589 -0.88476,-3.32422 0,-1.50694 0.29166,-2.62434 0.875,-3.35351 0.59027,-0.73611 1.41601,-1.10352 2.47851,-1.10352 z m -101.44726,0.0723 c 0.44444,0 0.88954,0.0521 1.33398,0.15625 0.45139,0.0972 0.9362,0.26389 1.45703,0.5 v 6.34375 c -0.47916,0.36806 -1.00564,0.66254 -1.58203,0.88476 -0.56944,0.21528 -1.13954,0.32422 -1.70898,0.32422 -1.0625,0 -1.82292,-0.3381 -2.28125,-1.01172 -0.45834,-0.6736 -0.6875,-1.66319 -0.6875,-2.96875 0,-1.375 0.30968,-2.42231 0.92773,-3.14453 0.61806,-0.72222 1.46462,-1.08398 2.54102,-1.08398 z m 8.27148,2.46875 v 1.88476 h 6.5 v -1.88476 z"
     inkscape:original="M 102.79492 188.49023 L 102.79492 204.69922 L 104.75195 204.69922 L 104.75195 196.01172 C 105.28667 195.60199 105.84635 195.26584 106.42969 195.00195 C 107.01302 194.73807 107.5727 194.60547 108.10742 194.60547 C 108.62826 194.60547 109.05057 194.67839 109.37695 194.82422 C 109.70335 194.96311 109.95335 195.17904 110.12695 195.4707 C 110.29365 195.73459 110.40824 196.102 110.4707 196.57422 C 110.53317 197.0395 110.56445 197.5395 110.56445 198.07422 L 110.56445 204.69922 L 112.52344 204.69922 L 112.52344 197.14648 C 112.52344 195.72288 112.19292 194.6339 111.5332 193.87695 C 110.87348 193.12001 109.91515 192.74023 108.6582 192.74023 C 107.97071 192.74023 107.30122 192.88325 106.64844 193.16797 C 105.99566 193.45269 105.36307 193.84852 104.75195 194.35547 L 104.75195 188.49023 L 102.79492 188.49023 z M 140.21094 188.49023 L 140.21094 204.69922 L 142.16992 204.69922 L 142.16992 200.81445 L 143.43945 199.60547 L 148.10742 204.69922 L 150.68945 204.69922 L 144.88867 198.43945 L 150.29492 193.06445 L 147.82617 193.06445 L 142.16992 198.88672 L 142.16992 188.49023 L 140.21094 188.49023 z M 203.50195 188.49023 L 203.50195 204.69922 L 205.46094 204.69922 L 205.46094 200.81445 L 206.73047 199.60547 L 211.39844 204.69922 L 213.98047 204.69922 L 208.17969 198.43945 L 213.58594 193.06445 L 211.11719 193.06445 L 205.46094 198.88672 L 205.46094 188.49023 L 203.50195 188.49023 z M 216.06445 188.49023 L 216.06445 204.69922 L 218.02344 204.69922 L 218.02344 188.49023 L 216.06445 188.49023 z M 255.18945 188.49023 L 255.18945 193.5332 C 254.66862 193.26237 254.17144 193.06445 253.69922 192.93945 C 253.227 192.80751 252.68533 192.74023 252.07422 192.74023 C 251.40061 192.74023 250.74913 192.88043 250.11719 193.1582 C 249.49219 193.43598 248.94292 193.83746 248.4707 194.36523 C 247.99154 194.9069 247.60894 195.56315 247.32422 196.33398 C 247.04644 197.10482 246.9082 197.9846 246.9082 198.9707 C 246.9082 200.86654 247.31445 202.34853 248.12695 203.41797 C 248.9464 204.48742 250.05057 205.02148 251.43945 205.02148 C 252.15473 205.02148 252.81857 204.88607 253.42969 204.61523 C 254.04079 204.3444 254.62695 203.96658 255.18945 203.48047 L 255.18945 204.69922 L 257.14844 204.69922 L 257.14844 188.49023 L 255.18945 188.49023 z M 21.251953 188.9082 C 20.113066 188.9082 19.076171 189.08529 18.138672 189.43945 C 17.208118 189.79362 16.411674 190.30686 15.751953 190.98047 C 15.071398 191.67492 14.550564 192.52626 14.189453 193.5332 C 13.828342 194.54015 13.648438 195.68121 13.648438 196.95898 C 13.648437 198.3062 13.835938 199.49089 14.210938 200.51172 C 14.585937 201.52561 15.106771 202.36176 15.773438 203.02148 C 16.453992 203.6951 17.253257 204.19228 18.169922 204.51172 C 19.093532 204.82422 20.117189 204.98047 21.242188 204.98047 C 21.839409 204.98047 22.383898 204.9312 22.876953 204.83398 C 23.376952 204.7437 23.840061 204.63389 24.263672 204.50195 C 24.763671 204.34223 25.165148 204.1888 25.470703 204.04297 C 25.783202 203.89714 26.131728 203.74089 26.513672 203.57422 L 26.513672 201.1582 L 26.367188 201.1582 C 25.610244 201.83876 24.797741 202.34917 23.929688 202.68945 C 23.061633 203.02973 22.131726 203.19922 21.138672 203.19922 C 20.416451 203.19922 19.728949 203.07704 19.076172 202.83398 C 18.430339 202.58398 17.863063 202.20334 17.376953 201.68945 C 16.911676 201.1964 16.531033 200.5562 16.232422 199.77148 C 15.940756 198.98676 15.794922 198.04926 15.794922 196.95898 C 15.794922 195.91732 15.925564 195.00065 16.189453 194.20898 C 16.460286 193.41038 16.835287 192.7513 17.314453 192.23047 C 17.807508 191.69575 18.367188 191.30273 18.992188 191.05273 C 19.624131 190.79579 20.332467 190.66797 21.117188 190.66797 C 22.07552 190.66797 22.974176 190.83181 23.814453 191.1582 C 24.654729 191.48459 25.503257 192.00543 26.357422 192.7207 L 26.513672 192.7207 L 26.513672 190.27148 C 25.499785 189.76454 24.57552 189.41038 23.742188 189.20898 C 22.9158 189.0076 22.085285 188.9082 21.251953 188.9082 z M 67.960938 188.9082 C 66.822051 188.9082 65.783202 189.08529 64.845703 189.43945 C 63.915149 189.79362 63.120659 190.30686 62.460938 190.98047 C 61.780383 191.67492 61.259548 192.52626 60.898438 193.5332 C 60.537327 194.54015 60.357422 195.68121 60.357422 196.95898 C 60.357422 198.3062 60.544923 199.49089 60.919922 200.51172 C 61.294921 201.52561 61.815757 202.36176 62.482422 203.02148 C 63.162977 203.6951 63.960288 204.19228 64.876953 204.51172 C 65.800562 204.82422 66.826173 204.98047 67.951172 204.98047 C 68.548393 204.98047 69.092883 204.9312 69.585938 204.83398 C 70.085937 204.7437 70.547093 204.63389 70.970703 204.50195 C 71.470702 204.34223 71.874132 204.1888 72.179688 204.04297 C 72.492187 203.89714 72.838759 203.74089 73.220703 203.57422 L 73.220703 201.1582 L 73.076172 201.1582 C 72.319229 201.83876 71.506726 202.34917 70.638672 202.68945 C 69.770617 203.02973 68.838757 203.19922 67.845703 203.19922 C 67.123482 203.19922 66.43598 203.07704 65.783203 202.83398 C 65.13737 202.58398 64.572047 202.20334 64.085938 201.68945 C 63.62066 201.1964 63.238064 200.5562 62.939453 199.77148 C 62.647787 198.98676 62.501953 198.04926 62.501953 196.95898 C 62.501953 195.91732 62.63455 195.00065 62.898438 194.20898 C 63.169271 193.41038 63.544272 192.7513 64.023438 192.23047 C 64.516492 191.69575 65.076173 191.30273 65.701172 191.05273 C 66.333116 190.79579 67.041451 190.66797 67.826172 190.66797 C 68.784504 190.66797 69.683161 190.83181 70.523438 191.1582 C 71.363714 191.48459 72.210288 192.00543 73.064453 192.7207 L 73.220703 192.7207 L 73.220703 190.27148 C 72.206816 189.76454 71.284504 189.41038 70.451172 189.20898 C 69.624784 189.0076 68.79427 188.9082 67.960938 188.9082 z M 94.751953 188.9082 C 93.613066 188.9082 92.576171 189.08529 91.638672 189.43945 C 90.708118 189.79362 89.911674 190.30686 89.251953 190.98047 C 88.571398 191.67492 88.050563 192.52626 87.689453 193.5332 C 87.328342 194.54015 87.148437 195.68121 87.148438 196.95898 C 87.148438 198.3062 87.335938 199.49089 87.710938 200.51172 C 88.085937 201.52561 88.606772 202.36176 89.273438 203.02148 C 89.953992 203.6951 90.753257 204.19228 91.669922 204.51172 C 92.593531 204.82422 93.617189 204.98047 94.742188 204.98047 C 95.339409 204.98047 95.883898 204.9312 96.376953 204.83398 C 96.876952 204.7437 97.340062 204.63389 97.763672 204.50195 C 98.263671 204.34223 98.665148 204.1888 98.970703 204.04297 C 99.283202 203.89714 99.631726 203.74089 100.01367 203.57422 L 100.01367 201.1582 L 99.867188 201.1582 C 99.110244 201.83876 98.297742 202.34917 97.429688 202.68945 C 96.561633 203.02973 95.631726 203.19922 94.638672 203.19922 C 93.916451 203.19922 93.228949 203.07704 92.576172 202.83398 C 91.930339 202.58398 91.363063 202.20334 90.876953 201.68945 C 90.411676 201.1964 90.031033 200.5562 89.732422 199.77148 C 89.440756 198.98676 89.294922 198.04926 89.294922 196.95898 C 89.294922 195.91732 89.425565 195.00065 89.689453 194.20898 C 89.960286 193.41038 90.335287 192.7513 90.814453 192.23047 C 91.307508 191.69575 91.867189 191.30273 92.492188 191.05273 C 93.124131 190.79579 93.832466 190.66797 94.617188 190.66797 C 95.575519 190.66797 96.474177 190.83181 97.314453 191.1582 C 98.15473 191.48459 99.003257 192.00543 99.857422 192.7207 L 100.01367 192.7207 L 100.01367 190.27148 C 98.999783 189.76454 98.075519 189.41038 97.242188 189.20898 C 96.415799 189.0076 95.585285 188.9082 94.751953 188.9082 z M 359.85547 189.08398 L 359.85547 191.11523 L 362.06445 191.11523 L 362.06445 189.08398 L 359.85547 189.08398 z M 33.283203 189.18945 L 27.638672 204.69922 L 29.732422 204.69922 L 31.251953 200.37695 L 37.960938 200.37695 L 39.482422 204.69922 L 41.679688 204.69922 L 36.033203 189.18945 L 33.283203 189.18945 z M 51.876953 189.18945 L 51.876953 190.83398 L 55.158203 190.83398 L 55.158203 199.88672 C 55.158203 200.41449 55.131725 200.88042 55.076172 201.2832 C 55.027561 201.68598 54.908203 202.02496 54.720703 202.30273 C 54.540148 202.57357 54.258896 202.7819 53.876953 202.92773 C 53.501953 203.07357 52.996309 203.14648 52.357422 203.14648 C 51.919923 203.14648 51.492838 203.0944 51.076172 202.99023 C 50.659506 202.88607 50.308159 202.78667 50.023438 202.68945 L 49.908203 202.68945 L 49.908203 204.61523 C 50.283202 204.69859 50.749133 204.76869 51.304688 204.82422 C 51.860242 204.88669 52.305339 204.91797 52.638672 204.91797 C 54.034503 204.91797 55.144316 204.55056 55.970703 203.81445 C 56.804035 203.07834 57.220703 202.02908 57.220703 200.66797 L 57.220703 189.18945 L 51.876953 189.18945 z M 76.158203 189.18945 L 76.158203 204.69922 L 85.970703 204.69922 L 85.970703 202.86523 L 78.220703 202.86523 L 78.220703 189.18945 L 76.158203 189.18945 z M 159.2832 189.18945 L 163.38867 204.69922 L 165.6582 204.69922 L 168.8457 191.82422 L 172.10742 204.69922 L 174.42969 204.69922 L 178.46094 189.18945 L 176.43945 189.18945 L 173.20117 202.20898 L 169.96094 189.18945 L 167.86719 189.18945 L 164.6582 202.08398 L 161.39844 189.18945 L 159.2832 189.18945 z M 272.49219 189.18945 L 266.8457 204.69922 L 268.93945 204.69922 L 270.46094 200.37695 L 277.16797 200.37695 L 278.68945 204.69922 L 280.88672 204.69922 L 275.24219 189.18945 L 272.49219 189.18945 z M 296.62695 189.7207 L 296.62695 193.06445 L 295.30469 193.06445 L 295.30469 194.70898 L 296.62695 194.70898 L 296.62695 200.89648 C 296.62695 202.3062 296.93663 203.33181 297.55469 203.9707 C 298.17274 204.60959 299.07422 204.92773 300.26172 204.92773 C 300.60199 204.92773 300.98741 204.89645 301.41797 204.83398 C 301.85546 204.77148 302.25889 204.69293 302.62695 204.5957 L 302.62695 202.83398 L 302.52344 202.83398 C 302.37066 202.89648 302.12066 202.977 301.77344 203.07422 C 301.42622 203.1645 301.09288 203.20898 300.77344 203.20898 C 300.22483 203.20898 299.8138 203.14648 299.54297 203.02148 C 299.27908 202.88954 299.07075 202.68598 298.91797 202.4082 C 298.75132 202.10959 298.65475 201.78949 298.62695 201.44922 C 298.59915 201.10199 298.58594 200.62283 298.58594 200.01172 L 298.58594 194.70898 L 302.62695 194.70898 L 302.62695 193.06445 L 298.58594 193.06445 L 298.58594 189.7207 L 296.62695 189.7207 z M 351.58594 189.7207 L 351.58594 193.06445 L 350.26172 193.06445 L 350.26172 194.70898 L 351.58594 194.70898 L 351.58594 200.89648 C 351.58594 202.3062 351.89367 203.33181 352.51172 203.9707 C 353.12977 204.60959 354.0332 204.92773 355.2207 204.92773 C 355.56098 204.92773 355.94639 204.89645 356.37695 204.83398 C 356.81445 204.77148 357.21788 204.69293 357.58594 204.5957 L 357.58594 202.83398 L 357.48047 202.83398 C 357.3277 202.89648 357.0777 202.977 356.73047 203.07422 C 356.38325 203.1645 356.04992 203.20898 355.73047 203.20898 C 355.18186 203.20898 354.77279 203.14648 354.50195 203.02148 C 354.23807 202.88954 354.02973 202.68598 353.87695 202.4082 C 353.71031 202.10959 353.61374 201.78949 353.58594 201.44922 C 353.55814 201.10199 353.54297 200.62283 353.54297 200.01172 L 353.54297 194.70898 L 357.58594 194.70898 L 357.58594 193.06445 L 353.54297 193.06445 L 353.54297 189.7207 L 351.58594 189.7207 z M 34.607422 190.99023 L 37.326172 198.60547 L 31.876953 198.60547 L 34.607422 190.99023 z M 273.81445 190.99023 L 276.5332 198.60547 L 271.08594 198.60547 L 273.81445 190.99023 z M 121.12695 192.74023 C 119.43251 192.74023 118.0651 193.29992 117.02344 194.41797 C 115.98872 195.53602 115.4707 197.04645 115.4707 198.94922 C 115.4707 200.87283 116.01237 202.35959 117.0957 203.4082 C 118.17904 204.44986 119.68663 204.9707 121.61719 204.9707 C 122.37413 204.9707 123.0957 204.87695 123.7832 204.68945 C 124.4707 204.50196 125.14497 204.26801 125.80469 203.99023 L 125.80469 201.85547 L 125.70117 201.85547 C 125.3609 202.16102 124.78798 202.47353 123.98242 202.79297 C 123.18381 203.10547 122.38737 203.26172 121.5957 203.26172 C 120.99848 203.26172 120.45117 203.17839 119.95117 203.01172 C 119.45812 202.84505 119.03104 202.59505 118.66992 202.26172 C 118.29492 201.92144 117.99848 201.48676 117.7832 200.95898 C 117.56792 200.42426 117.46094 199.79926 117.46094 199.08398 L 126.0332 199.08398 L 126.0332 198.02148 C 126.0332 196.33398 125.60612 195.0319 124.75195 194.11523 C 123.90473 193.19857 122.6964 192.74023 121.12695 192.74023 z M 185.88867 192.74023 C 184.24284 192.74023 182.93316 193.29232 181.96094 194.39648 C 180.99566 195.49371 180.51367 196.99089 180.51367 198.88672 C 180.51367 200.78255 180.99566 202.27973 181.96094 203.37695 C 182.93316 204.47417 184.24284 205.02148 185.88867 205.02148 C 187.52061 205.02148 188.82075 204.47417 189.79297 203.37695 C 190.76519 202.27973 191.25195 200.78255 191.25195 198.88672 C 191.25195 196.99089 190.76519 195.49371 189.79297 194.39648 C 188.82075 193.29232 187.52061 192.74023 185.88867 192.74023 z M 226.4707 192.74023 C 224.82487 192.74023 223.51519 193.29232 222.54297 194.39648 C 221.57769 195.49371 221.0957 196.99089 221.0957 198.88672 C 221.0957 200.78255 221.57769 202.27973 222.54297 203.37695 C 223.51519 204.47417 224.82487 205.02148 226.4707 205.02148 C 228.10264 205.02148 229.40473 204.47417 230.37695 203.37695 C 231.34917 202.27973 231.83594 200.78255 231.83594 198.88672 C 231.83594 196.99089 231.34917 195.49371 230.37695 194.39648 C 229.40473 193.29232 228.10264 192.74023 226.4707 192.74023 z M 309.55469 192.74023 C 307.90886 192.74023 306.59918 193.29232 305.62695 194.39648 C 304.66168 195.49371 304.17969 196.99089 304.17969 198.88672 C 304.17969 200.78255 304.66168 202.27973 305.62695 203.37695 C 306.59918 204.47417 307.90886 205.02148 309.55469 205.02148 C 311.18663 205.02148 312.48871 204.47417 313.46094 203.37695 C 314.43316 202.27973 314.91797 200.78255 314.91797 198.88672 C 314.91797 196.99089 314.43316 195.49371 313.46094 194.39648 C 312.48871 193.29232 311.18663 192.74023 309.55469 192.74023 z M 323.68945 192.74023 C 323.00195 192.74023 322.3533 192.88325 321.74219 193.16797 C 321.13802 193.45269 320.52908 193.84852 319.91797 194.35547 L 319.91797 193.06445 L 317.96094 193.06445 L 317.96094 204.69922 L 319.91797 204.69922 L 319.91797 196.01172 C 320.45269 195.60199 320.98872 195.26584 321.52344 195.00195 C 322.0651 194.73807 322.602 194.60547 323.13672 194.60547 C 323.69922 194.60547 324.13107 194.68121 324.42969 194.83398 C 324.72829 194.97982 324.95746 195.20334 325.11719 195.50195 C 325.26302 195.77973 325.35677 196.14996 325.39844 196.61523 C 325.44704 197.07357 325.4707 197.56033 325.4707 198.07422 L 325.4707 204.69922 L 327.42969 204.69922 L 327.42969 197.25195 C 327.42969 197.04362 327.42207 196.83529 327.4082 196.62695 C 327.39427 196.41167 327.37627 196.22417 327.35547 196.06445 C 327.90408 195.64084 328.45334 195.29232 329.00195 195.02148 C 329.55056 194.74371 330.09982 194.60547 330.64844 194.60547 C 331.21094 194.60547 331.64085 194.68121 331.93945 194.83398 C 332.23807 194.98676 332.46723 195.21311 332.62695 195.51172 C 332.77279 195.78949 332.86654 196.16167 332.9082 196.62695 C 332.9568 197.09223 332.98047 197.57422 332.98047 198.07422 L 332.98047 204.69922 L 334.93945 204.69922 L 334.93945 197.14648 C 334.93945 195.7576 334.63455 194.67904 334.02344 193.9082 C 333.41928 193.13043 332.477 192.74023 331.19922 192.74023 C 330.45617 192.74023 329.75825 192.89085 329.10547 193.18945 C 328.4527 193.48112 327.73112 193.96029 326.93945 194.62695 C 326.66862 194.03668 326.25477 193.57357 325.69922 193.24023 C 325.15061 192.9069 324.48111 192.74023 323.68945 192.74023 z M 370.38672 192.74023 C 368.74089 192.74023 367.43316 193.29232 366.46094 194.39648 C 365.49566 195.49371 365.01172 196.99089 365.01172 198.88672 C 365.01172 200.78255 365.49566 202.27973 366.46094 203.37695 C 367.43316 204.47417 368.74089 205.02148 370.38672 205.02148 C 372.01867 205.02148 373.32075 204.47417 374.29297 203.37695 C 375.26519 202.27973 375.75195 200.78255 375.75195 198.88672 C 375.75195 196.99089 375.26519 195.49371 374.29297 194.39648 C 373.32075 193.29232 372.01867 192.74023 370.38672 192.74023 z M 384.6582 192.74023 C 383.97071 192.74023 383.30122 192.88325 382.64844 193.16797 C 381.99566 193.45269 381.36307 193.84852 380.75195 194.35547 L 380.75195 193.06445 L 378.79297 193.06445 L 378.79297 204.69922 L 380.75195 204.69922 L 380.75195 196.01172 C 381.28667 195.60199 381.84635 195.26584 382.42969 195.00195 C 383.01302 194.73807 383.57075 194.60547 384.10547 194.60547 C 384.6263 194.60547 385.05057 194.67839 385.37695 194.82422 C 385.70335 194.96311 385.95335 195.17904 386.12695 195.4707 C 386.29365 195.73459 386.40824 196.102 386.4707 196.57422 C 386.53317 197.0395 386.56445 197.5395 386.56445 198.07422 L 386.56445 204.69922 L 388.52344 204.69922 L 388.52344 197.14648 C 388.52344 195.72288 388.19292 194.6339 387.5332 193.87695 C 386.87348 193.12001 385.91515 192.74023 384.6582 192.74023 z M 238.85547 192.7832 C 238.15408 192.7832 237.44292 192.8457 236.7207 192.9707 C 235.99848 193.0957 235.4464 193.21029 235.06445 193.31445 L 235.06445 195.30273 L 235.16797 195.30273 C 235.84158 195.04579 236.49501 194.85265 237.12695 194.7207 C 237.75889 194.58182 238.33181 194.51172 238.8457 194.51172 C 239.26931 194.51172 239.67557 194.54017 240.06445 194.5957 C 240.45335 194.65126 240.78668 194.75824 241.06445 194.91797 C 241.35612 195.08464 241.57769 195.3138 241.73047 195.60547 C 241.89019 195.89714 241.9707 196.26454 241.9707 196.70898 L 241.9707 197.01172 C 240.83182 197.06728 239.76649 197.15061 238.77344 197.26172 C 237.78038 197.37283 236.92904 197.58398 236.2207 197.89648 C 235.51932 198.20898 234.97765 198.64085 234.5957 199.18945 C 234.2207 199.73112 234.0332 200.44227 234.0332 201.32422 C 234.0332 202.40061 234.39779 203.28603 235.12695 203.98047 C 235.85612 204.67492 236.74436 205.02148 237.79297 205.02148 C 238.36242 205.02148 238.85959 204.96658 239.2832 204.85547 C 239.70681 204.7513 240.08182 204.6187 240.4082 204.45898 C 240.68598 204.33398 240.97005 204.16732 241.26172 203.95898 C 241.56033 203.7437 241.7971 203.57704 241.9707 203.45898 L 241.9707 204.69922 L 243.91797 204.69922 L 243.91797 196.80273 C 243.91797 196.05273 243.80339 195.42491 243.57422 194.91797 C 243.34505 194.41102 243.01172 193.99717 242.57422 193.67773 C 242.12977 193.35134 241.60329 193.12217 240.99219 192.99023 C 240.38802 192.85134 239.67492 192.7832 238.85547 192.7832 z M 342.68945 192.7832 C 341.98807 192.7832 341.27691 192.8457 340.55469 192.9707 C 339.83246 193.0957 339.28038 193.21029 338.89844 193.31445 L 338.89844 195.30273 L 339.00195 195.30273 C 339.67557 195.04579 340.329 194.85265 340.96094 194.7207 C 341.59288 194.58182 342.1658 194.51172 342.67969 194.51172 C 343.1033 194.51172 343.50955 194.54017 343.89844 194.5957 C 344.28732 194.65126 344.62066 194.75824 344.89844 194.91797 C 345.1901 195.08464 345.41168 195.3138 345.56445 195.60547 C 345.72418 195.89714 345.80469 196.26454 345.80469 196.70898 L 345.80469 197.01172 C 344.6658 197.06728 343.59852 197.15061 342.60547 197.26172 C 341.61241 197.37283 340.76301 197.58398 340.05469 197.89648 C 339.35329 198.20898 338.81163 198.64085 338.42969 199.18945 C 338.05469 199.73112 337.86719 200.44227 337.86719 201.32422 C 337.86719 202.40061 338.23177 203.28603 338.96094 203.98047 C 339.6901 204.67492 340.57835 205.02148 341.62695 205.02148 C 342.1964 205.02148 342.69358 204.96658 343.11719 204.85547 C 343.5408 204.7513 343.9158 204.6187 344.24219 204.45898 C 344.51997 204.33398 344.80404 204.16732 345.0957 203.95898 C 345.39431 203.7437 345.63107 203.57704 345.80469 203.45898 L 345.80469 204.69922 L 347.75195 204.69922 L 347.75195 196.80273 C 347.75195 196.05273 347.63737 195.42491 347.4082 194.91797 C 347.17904 194.41102 346.8457 193.99717 346.4082 193.67773 C 345.96376 193.35134 345.43533 193.12217 344.82422 192.99023 C 344.22005 192.85134 343.50889 192.7832 342.68945 192.7832 z M 133.87695 192.79297 C 132.16168 192.79297 130.78103 193.33464 129.73242 194.41797 C 128.69076 195.5013 128.16992 196.99371 128.16992 198.89648 C 128.16992 199.91731 128.30816 200.81033 128.58594 201.57422 C 128.86372 202.33811 129.25673 202.9707 129.76367 203.4707 C 130.26367 203.9707 130.86306 204.34571 131.56445 204.5957 C 132.26584 204.83876 133.03668 204.95898 133.87695 204.95898 C 134.53667 204.95898 135.15885 204.87283 135.74219 204.69922 C 136.33247 204.52561 136.95465 204.2832 137.60742 203.9707 L 137.60742 201.81445 L 137.50195 201.81445 C 137.35612 201.93251 137.1582 202.07357 136.9082 202.24023 C 136.6582 202.39995 136.39214 202.55339 136.10742 202.69922 C 135.78103 202.86589 135.41167 203.0013 135.00195 203.10547 C 134.59223 203.20964 134.19076 203.26172 133.79492 203.26172 C 132.65604 203.26172 131.77062 202.88671 131.13867 202.13672 C 130.51368 201.37977 130.20117 200.29926 130.20117 198.89648 C 130.20117 197.45204 130.51932 196.35829 131.1582 195.61523 C 131.80404 194.86523 132.68382 194.49023 133.79492 194.49023 C 134.39909 194.49023 135.0165 194.61523 135.64844 194.86523 C 136.28733 195.11523 136.90473 195.47417 137.50195 195.93945 L 137.60742 195.93945 L 137.60742 193.76172 C 137.0727 193.49089 136.48177 193.26172 135.83594 193.07422 C 135.19705 192.88672 134.54362 192.79297 133.87695 192.79297 z M 194.29297 193.06445 L 194.29297 204.69922 L 196.25195 204.69922 L 196.25195 196.43945 C 196.77278 196.01584 197.31445 195.67209 197.87695 195.4082 C 198.43945 195.13737 199.02279 195.00195 199.62695 195.00195 C 200.00195 195.00195 200.32487 195.018 200.5957 195.05273 C 200.87348 195.08051 201.15755 195.12977 201.44922 195.19922 L 201.55469 195.19922 L 201.55469 193.18945 C 201.24913 193.14085 201.01997 193.10957 200.86719 193.0957 C 200.71441 193.0749 200.46723 193.06445 200.12695 193.06445 C 199.5089 193.06445 198.90191 193.19509 198.30469 193.45898 C 197.71441 193.71592 197.02973 194.1582 196.25195 194.7832 L 196.25195 193.06445 L 194.29297 193.06445 z M 283.00195 193.06445 L 283.00195 200.61523 C 283.00195 202.05968 283.34288 203.1582 284.02344 203.9082 C 284.70399 204.65126 285.65473 205.02148 286.87695 205.02148 C 287.60612 205.02148 288.27279 204.88325 288.87695 204.60547 C 289.48112 204.3277 290.11372 203.92904 290.77344 203.4082 L 290.77344 204.69922 L 292.73047 204.69922 L 292.73047 193.06445 L 290.77344 193.06445 L 290.77344 201.75195 C 290.2526 202.16167 289.6901 202.49783 289.08594 202.76172 C 288.48872 203.02561 287.93663 203.1582 287.42969 203.1582 C 286.86025 203.1582 286.42557 203.08811 286.12695 202.94922 C 285.82835 202.81033 285.58594 202.58876 285.39844 202.2832 C 285.21786 201.98459 285.0985 201.62565 285.04297 201.20898 C 284.98744 200.78538 284.96094 200.27973 284.96094 199.68945 L 284.96094 193.06445 L 283.00195 193.06445 z M 359.98047 193.06445 L 359.98047 204.69922 L 361.93945 204.69922 L 361.93945 193.06445 L 359.98047 193.06445 z M 121.02344 194.35547 C 122.0651 194.35547 122.83876 194.63672 123.3457 195.19922 C 123.8596 195.76172 124.12002 196.55621 124.12695 197.58398 L 117.46094 197.58398 C 117.54427 196.66732 117.89562 195.90126 118.51367 195.2832 C 119.13867 194.66515 119.97482 194.35547 121.02344 194.35547 z M 185.88867 194.42773 C 186.93728 194.42773 187.75542 194.79709 188.3457 195.5332 C 188.93598 196.26237 189.23047 197.37978 189.23047 198.88672 C 189.23047 200.35894 188.93316 201.4707 188.33594 202.2207 C 187.74566 202.96376 186.93034 203.33398 185.88867 203.33398 C 184.83312 203.33398 184.0102 202.95898 183.41992 202.20898 C 182.82965 201.45204 182.5332 200.34505 182.5332 198.88672 C 182.5332 197.37978 182.82487 196.26237 183.4082 195.5332 C 183.99848 194.79709 184.82617 194.42773 185.88867 194.42773 z M 226.4707 194.42773 C 227.51931 194.42773 228.33941 194.79709 228.92969 195.5332 C 229.51996 196.26237 229.81445 197.37978 229.81445 198.88672 C 229.81445 200.35894 229.51519 201.4707 228.91797 202.2207 C 228.32769 202.96376 227.51236 203.33398 226.4707 203.33398 C 225.41515 203.33398 224.59223 202.95898 224.00195 202.20898 C 223.41167 201.45204 223.11719 200.34505 223.11719 198.88672 C 223.11719 197.37978 223.40885 196.26237 223.99219 195.5332 C 224.58247 194.79709 225.4082 194.42773 226.4707 194.42773 z M 309.55469 194.42773 C 310.6033 194.42773 311.42145 194.79709 312.01172 195.5332 C 312.602 196.26237 312.89844 197.37978 312.89844 198.88672 C 312.89844 200.35894 312.59918 201.4707 312.00195 202.2207 C 311.41168 202.96376 310.59635 203.33398 309.55469 203.33398 C 308.49913 203.33398 307.67621 202.95898 307.08594 202.20898 C 306.49566 201.45204 306.19922 200.34505 306.19922 198.88672 C 306.19922 197.37978 306.49089 196.26237 307.07422 195.5332 C 307.66449 194.79709 308.49219 194.42773 309.55469 194.42773 z M 370.38672 194.42773 C 371.43533 194.42773 372.25543 194.79709 372.8457 195.5332 C 373.43598 196.26237 373.73047 197.37978 373.73047 198.88672 C 373.73047 200.35894 373.43316 201.4707 372.83594 202.2207 C 372.24566 202.96376 371.42839 203.33398 370.38672 203.33398 C 369.33117 203.33398 368.50824 202.95898 367.91797 202.20898 C 367.32769 201.45204 367.0332 200.34505 367.0332 198.88672 C 367.0332 197.37978 367.32487 196.26237 367.9082 195.5332 C 368.49848 194.79709 369.32423 194.42773 370.38672 194.42773 z M 252.4082 194.5332 C 252.90126 194.5332 253.35677 194.57769 253.77344 194.66797 C 254.1901 194.75824 254.66168 194.92209 255.18945 195.1582 L 255.18945 201.83398 C 254.6964 202.22288 254.16515 202.54298 253.5957 202.79297 C 253.02626 203.03603 252.46376 203.1582 251.9082 203.1582 C 250.86654 203.1582 250.10894 202.79926 249.63672 202.08398 C 249.16449 201.36176 248.92969 200.30967 248.92969 198.92773 C 248.92969 197.52495 249.23459 196.44162 249.8457 195.67773 C 250.45681 194.91385 251.31098 194.5332 252.4082 194.5332 z M 241.9707 198.5957 L 241.9707 201.83398 C 241.4846 202.20898 240.95617 202.5319 240.38672 202.80273 C 239.81728 203.06662 239.18945 203.19922 238.50195 203.19922 C 237.67557 203.19922 237.06098 203.03255 236.6582 202.69922 C 236.25542 202.35895 236.05469 201.85612 236.05469 201.18945 C 236.05469 200.59918 236.22699 200.13607 236.57422 199.80273 C 236.92144 199.46245 237.37695 199.21245 237.93945 199.05273 C 238.41167 198.92079 239.04992 198.8214 239.85547 198.75195 C 240.66797 198.68252 241.37348 198.63044 241.9707 198.5957 z M 345.80469 198.5957 L 345.80469 201.83398 C 345.31857 202.20898 344.79014 202.5319 344.2207 202.80273 C 343.65126 203.06662 343.02344 203.19922 342.33594 203.19922 C 341.50955 203.19922 340.89496 203.03255 340.49219 202.69922 C 340.08941 202.35895 339.88672 201.85612 339.88672 201.18945 C 339.88672 200.59918 340.06098 200.13607 340.4082 199.80273 C 340.75542 199.46245 341.21094 199.21245 341.77344 199.05273 C 342.24566 198.92079 342.8839 198.8214 343.68945 198.75195 C 344.50195 198.68252 345.20747 198.63044 345.80469 198.5957 z M 179.45117 215.05273 C 178.15257 215.05273 177.1582 215.42492 176.4707 216.16797 C 175.7832 216.90408 175.43945 217.96376 175.43945 219.3457 L 175.43945 219.73047 L 174.11719 219.73047 L 174.11719 221.37695 L 175.43945 221.37695 L 175.43945 231.36523 L 177.39844 231.36523 L 177.39844 221.37695 L 180.86719 221.37695 L 180.86719 219.73047 L 177.33594 219.73047 L 177.33594 219.33398 C 177.33594 218.36176 177.52344 217.69227 177.89844 217.32422 C 178.28038 216.94922 178.89214 216.76172 179.73242 216.76172 C 179.99631 216.76172 180.30122 216.79579 180.64844 216.86523 C 180.99566 216.92777 181.27691 216.99027 181.49219 217.05273 L 181.5957 217.05273 L 181.5957 215.26172 C 181.30404 215.20617 180.98112 215.1569 180.62695 215.11523 C 180.27973 215.07357 179.88867 215.05273 179.45117 215.05273 z M 106.10742 215.1582 L 106.10742 231.36523 L 108.06445 231.36523 L 108.06445 215.1582 L 106.10742 215.1582 z M 284.54297 215.57422 C 283.40408 215.57422 282.36719 215.7513 281.42969 216.10547 C 280.49913 216.45964 279.70269 216.97287 279.04297 217.64648 C 278.36242 218.34092 277.84158 219.19227 277.48047 220.19922 C 277.11936 221.20616 276.93945 222.34918 276.93945 223.62695 C 276.93945 224.97417 277.12696 226.1569 277.50195 227.17773 C 277.87695 228.19162 278.39779 229.02973 279.06445 229.68945 C 279.74501 230.36306 280.54427 230.85829 281.46094 231.17773 C 282.38455 231.49023 283.40821 231.64648 284.5332 231.64648 C 285.13043 231.64648 285.67492 231.59918 286.16797 231.50195 C 286.66797 231.41168 287.13108 231.29992 287.55469 231.16797 C 288.05469 231.00825 288.45617 230.85482 288.76172 230.70898 C 289.07422 230.56315 289.42274 230.4069 289.80469 230.24023 L 289.80469 227.82422 L 289.6582 227.82422 C 288.90126 228.50478 288.08876 229.0152 287.2207 229.35547 C 286.35265 229.69575 285.42274 229.86523 284.42969 229.86523 C 283.70747 229.86523 283.01997 229.74501 282.36719 229.50195 C 281.72135 229.25195 281.15408 228.86936 280.66797 228.35547 C 280.20269 227.86242 279.82205 227.22417 279.52344 226.43945 C 279.23178 225.65473 279.08594 224.71723 279.08594 223.62695 C 279.08594 222.58529 279.21658 221.66862 279.48047 220.87695 C 279.7513 220.07834 280.1263 219.41731 280.60547 218.89648 C 281.09852 218.36176 281.6582 217.9707 282.2832 217.7207 C 282.91514 217.46376 283.62348 217.33398 284.4082 217.33398 C 285.36654 217.33398 286.26519 217.49783 287.10547 217.82422 C 287.94574 218.15061 288.79427 218.67144 289.64844 219.38672 L 289.80469 219.38672 L 289.80469 216.93945 C 288.7908 216.43251 287.86654 216.07834 287.0332 215.87695 C 286.20682 215.67556 285.3763 215.57422 284.54297 215.57422 z M 148.35742 215.75195 L 148.35742 217.7832 L 150.56445 217.7832 L 150.56445 215.75195 L 148.35742 215.75195 z M 93.367188 215.85547 L 93.367188 231.36523 L 95.429688 231.36523 L 95.429688 225.58398 L 97.492188 225.58398 C 98.603297 225.58398 99.522786 225.45335 100.25195 225.18945 C 100.98112 224.91862 101.61372 224.51519 102.14844 223.98047 C 102.57899 223.54992 102.91232 223.04232 103.14844 222.45898 C 103.39149 221.8687 103.51367 221.23046 103.51367 220.54297 C 103.51367 219.64019 103.34982 218.89301 103.02344 218.30273 C 102.70399 217.71245 102.24848 217.22005 101.6582 216.82422 C 101.1582 216.49089 100.58529 216.24848 99.939453 216.0957 C 99.29362 215.93598 98.506726 215.85547 97.576172 215.85547 L 93.367188 215.85547 z M 212.1582 215.85547 L 212.1582 217.68945 L 221.31445 217.68945 L 211.80469 229.44922 L 211.80469 231.36523 L 223.9082 231.36523 L 223.9082 229.5332 L 214.07422 229.5332 L 223.67969 217.7207 L 223.67969 215.85547 L 212.1582 215.85547 z M 292.74219 215.85547 L 292.74219 231.36523 L 302.55469 231.36523 L 302.55469 229.5332 L 294.80469 229.5332 L 294.80469 215.85547 L 292.74219 215.85547 z M 303.96094 215.85547 L 303.96094 217.43945 L 305.99219 217.43945 L 305.99219 229.7832 L 303.96094 229.7832 L 303.96094 231.36523 L 310.08594 231.36523 L 310.08594 229.7832 L 308.05469 229.7832 L 308.05469 217.43945 L 310.08594 217.43945 L 310.08594 215.85547 L 303.96094 215.85547 z M 95.429688 217.62695 L 97.470703 217.62695 C 98.12348 217.62695 98.662328 217.67426 99.085938 217.77148 C 99.516493 217.86176 99.899093 218.01519 100.23242 218.23047 C 100.61437 218.48047 100.89844 218.80339 101.08594 219.19922 C 101.27344 219.59505 101.36719 220.06098 101.36719 220.5957 C 101.36719 221.05404 101.29709 221.46593 101.1582 221.83398 C 101.02626 222.20204 100.79709 222.55339 100.4707 222.88672 C 100.14431 223.21311 99.722005 223.4527 99.201172 223.60547 C 98.68034 223.7513 98.003254 223.82422 97.169922 223.82422 L 95.429688 223.82422 L 95.429688 217.62695 z M 129.80469 219.4082 C 129.16579 219.4082 128.52278 219.54644 127.87695 219.82422 C 127.23112 220.09505 126.68381 220.47765 126.23242 220.9707 C 125.74631 221.49848 125.36089 222.1263 125.07617 222.85547 C 124.79839 223.57769 124.6582 224.43945 124.6582 225.43945 C 124.6582 227.26584 125.06445 228.68251 125.87695 229.68945 C 126.69639 230.68945 127.80057 231.18945 129.18945 231.18945 C 130.02279 231.18945 130.70747 231.07487 131.24219 230.8457 C 131.78385 230.6096 132.34917 230.25542 132.93945 229.7832 L 132.93945 230.8457 C 132.93945 231.31793 132.88737 231.74501 132.7832 232.12695 C 132.67904 232.5089 132.50673 232.83464 132.26367 233.10547 C 132.02061 233.39019 131.67969 233.61176 131.24219 233.77148 C 130.80469 233.93121 130.2526 234.01172 129.58594 234.01172 C 128.89149 234.01172 128.19639 233.91797 127.50195 233.73047 C 126.80751 233.54991 126.30186 233.39648 125.98242 233.27148 L 125.87695 233.27148 L 125.87695 235.27148 C 126.44639 235.4312 127.02409 235.55339 127.60742 235.63672 C 128.1977 235.727 128.80187 235.77148 129.41992 235.77148 C 131.28103 235.77148 132.65885 235.31033 133.55469 234.38672 C 134.45052 233.46311 134.89844 232.01519 134.89844 230.04297 L 134.89844 219.73047 L 133.06445 219.73047 L 132.93945 220.23047 C 132.43251 219.95269 131.95052 219.74718 131.49219 219.61523 C 131.0408 219.47635 130.47829 219.4082 129.80469 219.4082 z M 160.20117 219.4082 C 159.51367 219.4082 158.84223 219.54926 158.18945 219.83398 C 157.53667 220.11871 156.90603 220.51454 156.29492 221.02148 L 156.29492 219.73047 L 154.33594 219.73047 L 154.33594 231.36523 L 156.29492 231.36523 L 156.29492 222.67773 C 156.82964 222.26801 157.38737 221.93186 157.9707 221.66797 C 158.55404 221.40408 159.11372 221.27148 159.64844 221.27148 C 160.16927 221.27148 160.59354 221.3444 160.91992 221.49023 C 161.24631 221.62912 161.49631 221.84505 161.66992 222.13672 C 161.83662 222.40061 161.95121 222.76801 162.01367 223.24023 C 162.07614 223.70551 162.10742 224.20551 162.10742 224.74023 L 162.10742 231.36523 L 164.06445 231.36523 L 164.06445 223.81445 C 164.06445 222.39085 163.73589 221.29991 163.07617 220.54297 C 162.41645 219.78602 161.45811 219.4082 160.20117 219.4082 z M 187.38867 219.4082 C 185.74285 219.4082 184.43316 219.96029 183.46094 221.06445 C 182.49566 222.16167 182.01367 223.6569 182.01367 225.55273 C 182.01367 227.44856 182.49566 228.94575 183.46094 230.04297 C 184.43316 231.14019 185.74285 231.68945 187.38867 231.68945 C 189.02061 231.68945 190.3227 231.14019 191.29492 230.04297 C 192.26714 228.94575 192.75195 227.44856 192.75195 225.55273 C 192.75195 223.6569 192.26714 222.16167 191.29492 221.06445 C 190.3227 219.96029 189.02061 219.4082 187.38867 219.4082 z M 231.5957 219.4082 C 229.94987 219.4082 228.64019 219.96029 227.66797 221.06445 C 226.7027 222.16167 226.2207 223.6569 226.2207 225.55273 C 226.2207 227.44856 226.7027 228.94575 227.66797 230.04297 C 228.64019 231.14019 229.94987 231.68945 231.5957 231.68945 C 233.22764 231.68945 234.52973 231.14019 235.50195 230.04297 C 236.47417 228.94575 236.96094 227.44856 236.96094 225.55273 C 236.96094 223.6569 236.47417 222.16167 235.50195 221.06445 C 234.52973 219.96029 233.22764 219.4082 231.5957 219.4082 z M 262.29297 219.4082 C 260.59853 219.4082 259.23112 219.96593 258.18945 221.08398 C 257.15473 222.20204 256.63672 223.71245 256.63672 225.61523 C 256.63672 227.53884 257.17839 229.02561 258.26172 230.07422 C 259.34505 231.11589 260.85265 231.63672 262.7832 231.63672 C 263.54015 231.63672 264.26173 231.54297 264.94922 231.35547 C 265.63672 231.16797 266.31098 230.93598 266.9707 230.6582 L 266.9707 228.52148 L 266.86719 228.52148 C 266.52691 228.82704 265.95399 229.13954 265.14844 229.45898 C 264.34983 229.77148 263.55339 229.92773 262.76172 229.92773 C 262.1645 229.92773 261.61719 229.8444 261.11719 229.67773 C 260.62413 229.51107 260.19705 229.26107 259.83594 228.92773 C 259.46094 228.58745 259.1645 228.15473 258.94922 227.62695 C 258.73395 227.09223 258.62695 226.46723 258.62695 225.75195 L 267.19922 225.75195 L 267.19922 224.68945 C 267.19922 223.00196 266.77214 221.69987 265.91797 220.7832 C 265.07075 219.86654 263.86241 219.4082 262.29297 219.4082 z M 111.87695 219.73047 L 111.87695 227.2832 C 111.87695 228.72764 112.21788 229.82422 112.89844 230.57422 C 113.57899 231.31727 114.52973 231.68945 115.75195 231.68945 C 116.48112 231.68945 117.14779 231.54926 117.75195 231.27148 C 118.35612 230.9937 118.98872 230.59505 119.64844 230.07422 L 119.64844 231.36523 L 121.60742 231.36523 L 121.60742 219.73047 L 119.64844 219.73047 L 119.64844 228.41797 C 119.1276 228.8277 118.5651 229.16385 117.96094 229.42773 C 117.36372 229.69162 116.81163 229.82422 116.30469 229.82422 C 115.73524 229.82422 115.30056 229.75412 115.00195 229.61523 C 114.70334 229.47635 114.46094 229.25478 114.27344 228.94922 C 114.09286 228.65061 113.97546 228.29362 113.91992 227.87695 C 113.86439 227.45334 113.83594 226.94574 113.83594 226.35547 L 113.83594 219.73047 L 111.87695 219.73047 z M 148.48242 219.73047 L 148.48242 231.36523 L 150.43945 231.36523 L 150.43945 219.73047 L 148.48242 219.73047 z M 195.79297 219.73047 L 195.79297 231.36523 L 197.75195 231.36523 L 197.75195 223.10547 C 198.27279 222.68186 198.81445 222.33811 199.37695 222.07422 C 199.93945 221.80339 200.52279 221.66797 201.12695 221.66797 C 201.50195 221.66797 201.82487 221.68597 202.0957 221.7207 C 202.37348 221.74848 202.65755 221.79579 202.94922 221.86523 L 203.05469 221.86523 L 203.05469 219.85547 C 202.74913 219.80687 202.51997 219.77559 202.36719 219.76172 C 202.21441 219.74092 201.96723 219.73047 201.62695 219.73047 C 201.0089 219.73047 200.40191 219.86307 199.80469 220.12695 C 199.21441 220.3839 198.52973 220.82423 197.75195 221.44922 L 197.75195 219.73047 L 195.79297 219.73047 z M 238.9707 219.73047 L 242.0332 231.36523 L 243.83594 231.36523 L 246.80469 222.39648 L 249.79297 231.36523 L 251.60547 231.36523 L 254.63672 219.73047 L 252.66797 219.73047 L 250.64844 228.74023 L 247.66797 219.73047 L 246.05469 219.73047 L 243.14844 228.74023 L 241.01172 219.73047 L 238.9707 219.73047 z M 262.18945 221.02148 C 263.23112 221.02148 264.00477 221.30273 264.51172 221.86523 C 265.02561 222.42773 265.28604 223.22418 265.29297 224.25195 L 258.62695 224.25195 C 258.71029 223.33529 259.06163 222.56728 259.67969 221.94922 C 260.30469 221.33117 261.14085 221.02148 262.18945 221.02148 z M 187.38867 221.0957 C 188.43729 221.0957 189.25543 221.46311 189.8457 222.19922 C 190.43598 222.92839 190.73242 224.04579 190.73242 225.55273 C 190.73242 227.02495 190.43316 228.13672 189.83594 228.88672 C 189.24566 229.62977 188.43034 230.00195 187.38867 230.00195 C 186.33312 230.00195 185.5102 229.62695 184.91992 228.87695 C 184.32964 228.12001 184.0332 227.01106 184.0332 225.55273 C 184.0332 224.04579 184.32487 222.92839 184.9082 222.19922 C 185.49848 221.46311 186.32617 221.0957 187.38867 221.0957 z M 231.5957 221.0957 C 232.64431 221.0957 233.46441 221.46311 234.05469 222.19922 C 234.64496 222.92839 234.93945 224.04579 234.93945 225.55273 C 234.93945 227.02495 234.64019 228.13672 234.04297 228.88672 C 233.4527 229.62977 232.63737 230.00195 231.5957 230.00195 C 230.54015 230.00195 229.71723 229.62695 229.12695 228.87695 C 228.53668 228.12001 228.24219 227.01106 228.24219 225.55273 C 228.24219 224.04579 228.53385 222.92839 229.11719 222.19922 C 229.70746 221.46311 230.5332 221.0957 231.5957 221.0957 z M 130.14844 221.16797 C 130.59288 221.16797 131.03798 221.22005 131.48242 221.32422 C 131.93381 221.42144 132.41862 221.58811 132.93945 221.82422 L 132.93945 228.16797 C 132.46029 228.53603 131.93381 228.83051 131.35742 229.05273 C 130.78798 229.26801 130.21788 229.37695 129.64844 229.37695 C 128.58594 229.37695 127.82552 229.03885 127.36719 228.36523 C 126.90885 227.69163 126.67969 226.70204 126.67969 225.39648 C 126.67969 224.02148 126.98937 222.97417 127.60742 222.25195 C 128.22548 221.52973 129.07204 221.16797 130.14844 221.16797 z M 138.41992 223.63672 L 138.41992 225.52148 L 144.91992 225.52148 L 144.91992 223.63672 L 138.41992 223.63672 z "
     inkscape:radius="0"
     sodipodi:type="inkscape:offset"
     style="font-size:21.3333px;text-align:center;text-anchor:middle"
     id="path189" /></g></svg>
