<?xml version="1.0" encoding="UTF-8"?>
<svg width="386.2" height="89.197" version="1.1" viewBox="0 0 386.2 89.197" xml:space="preserve" xmlns="http://www.w3.org/2000/svg" xmlns:cc="http://creativecommons.org/ns#" xmlns:dc="http://purl.org/dc/elements/1.1/" xmlns:rdf="http://www.w3.org/1999/02/22-rdf-syntax-ns#" xmlns:xlink="http://www.w3.org/1999/xlink"><metadata><rdf:RDF><cc:Work rdf:about=""><dc:format>image/svg+xml</dc:format><dc:type rdf:resource="http://purl.org/dc/dcmitype/StillImage"/><dc:title/></cc:Work></rdf:RDF></metadata>
<style type="text/css">
	.st0{fill-rule:evenodd;clip-rule:evenodd;fill:#CF4044;}
	.st1{fill:#000F9F;}
	.st2{fill:#CC092F;}
	.st3{font-family:'HelveticaNeue-Light';}
	.st4{font-size:38px;}
	.st5{fill:#4C83C3;}
</style>


<g transform="translate(-7.598 -127.63)" aria-label="CA View® Plug-in for Zowe™ CLI "><path d="m226.62 196.11c-1.2986 0-2.293 0.37217-2.9805 1.1152-0.6875 0.73611-1.0312 1.7938-1.0312 3.1758v0.38672h-1.3223v1.6445h1.3223v9.9902h1.959v-9.9902h3.4688v-1.6445h-3.5312v-0.39648c0-0.97222 0.1875-1.6417 0.5625-2.0098 0.38194-0.37499 0.99371-0.5625 1.834-0.5625 0.26389 0 0.56879 0.0341 0.91602 0.10352 0.34722 0.0625 0.62847 0.12503 0.84375 0.1875h0.10351v-1.791c-0.29166-0.0556-0.61458-0.10482-0.96875-0.14648-0.34722-0.0417-0.73828-0.0625-1.1758-0.0625zm-73.344 0.10351v16.209h1.957v-16.209zm-32.99 0.375c-2.4861 0-4.6111 0.8826-6.375 2.6465-1.7569 1.7569-2.6348 3.8791-2.6348 6.3652 0 2.4861 0.87783 4.6111 2.6348 6.375 1.7639 1.757 3.8889 2.6348 6.375 2.6348s4.6083-0.87782 6.3652-2.6348c1.7639-1.7639 2.6445-3.8889 2.6445-6.375 0-2.4861-0.88064-4.6083-2.6445-6.3652-1.7569-1.7639-3.8791-2.6465-6.3652-2.6465zm-89.488 0.043c-1.1389 0-2.1777 0.17709-3.1152 0.53125-0.93055 0.35417-1.725 0.86741-2.3848 1.541-0.68055 0.69444-1.2014 1.5458-1.5625 2.5527s-0.54297 2.148-0.54297 3.4258c0 1.3472 0.1875 2.5319 0.5625 3.5527 0.375 1.0139 0.89583 1.85 1.5625 2.5098 0.68055 0.67361 1.4798 1.1708 2.3965 1.4902 0.92361 0.3125 1.9473 0.46875 3.0723 0.46875 0.59722 0 1.1437-0.0493 1.6367-0.14649 0.5-0.0903 0.96116-0.20008 1.3848-0.33203 0.5-0.15972 0.90343-0.31315 1.209-0.45898 0.3125-0.14584 0.65907-0.30209 1.041-0.46875v-2.416h-0.14648c-0.75694 0.68056-1.5694 1.191-2.4375 1.5312s-1.798 0.50977-2.791 0.50977c-0.72222 0-1.4097-0.12218-2.0625-0.36524-0.64583-0.25-1.2112-0.63064-1.6973-1.1445-0.46528-0.49306-0.84787-1.1332-1.1465-1.918-0.29167-0.78472-0.4375-1.7222-0.4375-2.8125 0-1.0417 0.1326-1.9583 0.39648-2.75 0.27083-0.7986 0.64583-1.4577 1.125-1.9785 0.49306-0.53472 1.0508-0.92774 1.6758-1.1777 0.63194-0.25694 1.3403-0.38476 2.125-0.38476 0.95833 0 1.8589 0.16385 2.6992 0.49023 0.84028 0.3264 1.6868 0.84723 2.541 1.5625h0.15625v-2.4492c-1.0139-0.50694-1.9382-0.86111-2.7715-1.0625-0.82639-0.20138-1.6549-0.30078-2.4883-0.30078zm321.75 0c-1.1389 0-2.1758 0.17709-3.1133 0.53125-0.93055 0.35417-1.727 0.86741-2.3867 1.541-0.68055 0.69444-1.2014 1.5458-1.5625 2.5527-0.3611 1.0069-0.54101 2.148-0.54101 3.4258 0 1.3472 0.1875 2.5319 0.5625 3.5527 0.375 1.0139 0.89584 1.85 1.5625 2.5098 0.68056 0.67361 1.4798 1.1708 2.3965 1.4902 0.92361 0.3125 1.9473 0.46875 3.0723 0.46875 0.59722 0 1.1417-0.0493 1.6348-0.14649 0.5-0.0903 0.96311-0.20008 1.3867-0.33203 0.5-0.15972 0.90147-0.31315 1.207-0.45898 0.3125-0.14584 0.66103-0.30209 1.043-0.46875v-2.416h-0.14648c-0.75695 0.68056-1.5694 1.191-2.4375 1.5312-0.86806 0.34028-1.798 0.50977-2.791 0.50977-0.72222 0-1.4097-0.12218-2.0625-0.36524-0.64583-0.25-1.2131-0.63064-1.6992-1.1445-0.46528-0.49306-0.84592-1.1332-1.1445-1.918-0.29167-0.78472-0.4375-1.7222-0.4375-2.8125 0-1.0417 0.13065-1.9583 0.39453-2.75 0.27084-0.7986 0.64584-1.4577 1.125-1.9785 0.49306-0.53472 1.0527-0.92774 1.6777-1.1777 0.63194-0.25694 1.3403-0.38476 2.125-0.38476 0.95832 0 1.857 0.16385 2.6973 0.49023 0.84028 0.3264 1.6888 0.84723 2.543 1.5625h0.15625v-2.4492c-1.0139-0.50694-1.9382-0.86111-2.7715-1.0625-0.82639-0.20138-1.6569-0.30078-2.4902-0.30078zm-277.14 0.17578v2.0312h2.207v-2.0312zm120.12 0v2.0312h2.207v-2.0312zm-152.7 0.10547-5.6465 15.51h2.0938l1.5215-4.3223h6.707l1.5215 4.3223h2.1973l-5.6445-15.51zm16.438 0 5.6445 15.51h2.75l5.6465-15.51h-2.1035l-4.8652 13.645-4.8652-13.645zm81.27 0v15.51h2.0625v-5.7812h2.0625c1.1111 0 2.0306-0.1326 2.7598-0.39649 0.72917-0.27083 1.3618-0.6723 1.8965-1.207 0.43056-0.43055 0.76389-0.93815 1-1.5215 0.24305-0.59028 0.36523-1.2285 0.36523-1.916 0-0.90278-0.16385-1.65-0.49023-2.2402-0.31944-0.59028-0.77496-1.0827-1.3652-1.4785-0.5-0.33333-1.0729-0.57769-1.7188-0.73047-0.64582-0.15972-1.4327-0.23828-2.3633-0.23828zm118.79 0v1.832h9.1562l-9.5098 11.762v1.916h12.104v-1.834h-9.832l9.6035-11.812v-1.8633zm57.855 0v1.2188h2.3848v6.1133h1.3223v-6.1133h2.3867v-1.2188zm7.916 0v7.332h1.2812v-6.5h0.25976l2.4902 4.7715h0.82226l2.4688-4.6973h0.20899v6.4258h1.291v-7.332h-2.3633l-1.9902 3.9785-1.9902-3.9785zm35.646 0v15.51h9.8125v-1.834h-7.75v-13.676zm11.219 0v1.582h2.0312v12.344h-2.0312v1.584h6.125v-1.584h-2.0312v-12.344h2.0312v-1.582zm-251.68 0.83203c2.1528 0 3.9889 0.77084 5.5098 2.3125 1.5278 1.5417 2.293 3.3902 2.293 5.543 0 2.1528-0.76519 3.9994-2.293 5.541-1.5208 1.5417-3.357 2.3125-5.5098 2.3125s-3.9937-0.77084-5.5215-2.3125c-1.5208-1.5417-2.2812-3.3882-2.2812-5.541 0-2.1528 0.76042-4.0013 2.2812-5.543 1.5278-1.5417 3.3687-2.3125 5.5215-2.3125zm22.312 0.9375h2.041c0.65278 0 1.1916 0.0493 1.6152 0.14649 0.43055 0.0903 0.81315 0.24371 1.1465 0.45898 0.38195 0.25 0.66602 0.57292 0.85352 0.96875 0.18749 0.39584 0.28125 0.85981 0.28125 1.3945 0 0.45834-0.0701 0.87218-0.20899 1.2402-0.13194 0.36806-0.3611 0.7194-0.6875 1.0527-0.32638 0.32639-0.7487 0.56598-1.2695 0.71875-0.52083 0.14584-1.1979 0.21875-2.0312 0.21875h-1.7402zm-98.447 0.0312 2.7188 7.6152h-5.4473zm42.062 1.75c-1.6944 0-3.0638 0.55968-4.1055 1.6777-1.0347 1.1181-1.5508 2.6285-1.5508 4.5312 0 1.9236 0.54167 3.4104 1.625 4.459 1.0833 1.0417 2.589 1.5625 4.5195 1.5625 0.75694 0 1.4805-0.0937 2.168-0.28125 0.6875-0.1875 1.3598-0.42144 2.0195-0.69922v-2.1348h-0.10352c-0.34028 0.30556-0.9132 0.61806-1.7188 0.9375-0.79861 0.3125-1.5931 0.46875-2.3848 0.46875-0.59722 0-1.1465-0.0833-1.6465-0.25-0.49305-0.16667-0.92014-0.41667-1.2812-0.75-0.375-0.34028-0.66949-0.77496-0.88476-1.3027-0.21528-0.53472-0.32422-1.1597-0.32422-1.875h8.5742v-1.0625c0-1.6875-0.42708-2.9896-1.2812-3.9062-0.84722-0.91666-2.0556-1.375-3.625-1.375zm90.76 0c-0.6389 0-1.2819 0.14019-1.9277 0.41797-0.64582 0.27084-1.1931 0.65148-1.6445 1.1445-0.48611 0.52778-0.87153 1.1576-1.1562 1.8867-0.27778 0.72222-0.41797 1.582-0.41797 2.582 0 1.8264 0.40625 3.2431 1.2188 4.25 0.81944 1 1.9236 1.5 3.3125 1.5 0.83334 0 1.518-0.11458 2.0527-0.34375 0.54166-0.23611 1.107-0.59028 1.6973-1.0625v1.0625c0 0.47222-0.0521 0.89931-0.15625 1.2812-0.10416 0.38195-0.27647 0.70964-0.51953 0.98047-0.24305 0.28472-0.58398 0.5063-1.0215 0.66602s-0.98959 0.24023-1.6562 0.24023c-0.69445 0-1.3896-0.0937-2.084-0.28125-0.69444-0.18055-1.2001-0.33398-1.5195-0.45898h-0.10547v2c0.56944 0.15972 1.1471 0.2819 1.7305 0.36523 0.59028 0.0903 1.1944 0.13477 1.8125 0.13477 1.8611 0 3.2389-0.46116 4.1348-1.3848 0.89583-0.92361 1.3438-2.3715 1.3438-4.3438v-10.312h-1.834l-0.125 0.5c-0.50694-0.27778-0.98893-0.48329-1.4473-0.61523-0.45139-0.1389-1.0139-0.20899-1.6875-0.20899zm30.396 0c-0.6875 0-1.3589 0.14301-2.0117 0.42774-0.65278 0.28472-1.2834 0.68055-1.8945 1.1875v-1.291h-1.959v11.635h1.959v-8.6875c0.53472-0.40972 1.0924-0.74588 1.6758-1.0098 0.58334-0.26389 1.143-0.39648 1.6777-0.39648 0.52083 0 0.94509 0.0729 1.2715 0.21875 0.32639 0.13889 0.57639 0.35482 0.75 0.64648 0.1667 0.26389 0.28128 0.6313 0.34375 1.1035 0.0625 0.46528 0.0937 0.96528 0.0937 1.5v6.625h1.957v-7.5527c0-1.4236-0.32856-2.5126-0.98828-3.2695-0.65973-0.75694-1.6181-1.1367-2.875-1.1367zm27.188 0c-1.6458 0-2.9555 0.55209-3.9277 1.6562-0.96528 1.0972-1.4473 2.5944-1.4473 4.4902 0 1.8958 0.48199 3.393 1.4473 4.4902 0.97222 1.0972 2.2819 1.6445 3.9277 1.6445 1.6319 0 2.934-0.54731 3.9062-1.6445s1.457-2.5944 1.457-4.4902c0-1.8958-0.48481-3.393-1.457-4.4902-0.97222-1.1042-2.2743-1.6562-3.9062-1.6562zm44.207 0c-1.6458 0-2.9536 0.55209-3.9258 1.6562-0.96528 1.0972-1.4492 2.5944-1.4492 4.4902 0 1.8958 0.48394 3.393 1.4492 4.4902 0.97222 1.0972 2.28 1.6445 3.9258 1.6445 1.632 0 2.934-0.54731 3.9062-1.6445s1.459-2.5944 1.459-4.4902c0-1.8958-0.48677-3.393-1.459-4.4902-0.97222-1.1042-2.2743-1.6562-3.9062-1.6562zm30.699 0c-1.6944 0-3.0638 0.55968-4.1055 1.6777-1.0347 1.1181-1.5508 2.6285-1.5508 4.5312 0 1.9236 0.54167 3.4104 1.625 4.459 1.0833 1.0417 2.589 1.5625 4.5195 1.5625 0.75694 0 1.4805-0.0937 2.168-0.28125 0.6875-0.1875 1.3598-0.42144 2.0195-0.69922v-2.1348h-0.10351c-0.34028 0.30556-0.9132 0.61806-1.7188 0.9375-0.79862 0.3125-1.5931 0.46875-2.3848 0.46875-0.59722 0-1.1465-0.0833-1.6465-0.25-0.49306-0.16667-0.92014-0.41667-1.2812-0.75-0.375-0.34028-0.66949-0.77496-0.88477-1.3027-0.21528-0.53472-0.32422-1.1597-0.32422-1.875h8.5742v-1.0625c0-1.6875-0.42708-2.9896-1.2812-3.9062-0.84722-0.91666-2.0556-1.375-3.625-1.375zm-192.55 0.1875v9.5312h1.7188v-3.6973h1.6875l3.4473 3.6973h2.3242l-4-4.166c0.68749-0.26389 1.2244-0.61806 1.6133-1.0625 0.39584-0.45139 0.59375-1.0139 0.59375-1.6875 0-0.50694-0.10416-0.92643-0.3125-1.2598-0.20139-0.34028-0.51953-0.62913-0.95703-0.86523-0.40972-0.2153-0.82639-0.35072-1.25-0.40625-0.42361-0.0555-0.96245-0.084-1.6152-0.084zm-41.385 0.13672v11.635h1.957v-11.635zm17.531 0 3.0625 11.635h1.8008l2.9687-8.9688 2.9902 8.9688h1.8125l3.0312-11.635h-1.9688l-2.0215 9.0098-2.9785-9.0098h-1.6152l-2.9062 9.0098-2.1348-9.0098zm65.988 0v7.5508c0 1.4444 0.34093 2.543 1.0215 3.293 0.68055 0.74306 1.6313 1.1133 2.8535 1.1133 0.72917 0 1.3958-0.13824 2-0.41601 0.60417-0.27778 1.2368-0.67643 1.8965-1.1973v1.291h1.959v-11.635h-1.959v8.6875c-0.52083 0.40972-1.0833 0.74588-1.6875 1.0098-0.59722 0.26388-1.1493 0.39648-1.6562 0.39648-0.56945 0-1.0041-0.0701-1.3027-0.20898-0.29861-0.13889-0.54101-0.36046-0.72851-0.66602-0.18058-0.29861-0.29799-0.65755-0.35352-1.0742-0.0555-0.4236-0.084-0.92925-0.084-1.5195v-6.625zm36.605 0v11.635h1.957v-11.635zm47.312 0v11.635h1.957v-8.2598c0.52084-0.42361 1.0625-0.76736 1.625-1.0312 0.5625-0.27083 1.1458-0.40625 1.75-0.40625 0.375 0 0.69792 0.0161 0.96875 0.0508 0.27778 0.0278 0.5638 0.077 0.85547 0.14649h0.10352v-2.0117c-0.30556-0.0486-0.53472-0.0779-0.6875-0.0918-0.15278-0.0208-0.39996-0.0312-0.74024-0.0312-0.61805 0-1.225 0.13065-1.8223 0.39453-0.59028 0.25695-1.275 0.69922-2.0527 1.3242v-1.7188zm43.176 0 3.0625 11.635h1.8027l2.9688-8.9688 2.9902 8.9688h1.8125l3.0312-11.635h-1.9688l-2.0215 9.0098-2.9785-9.0098h-1.6152l-2.9062 9.0098-2.1348-9.0098zm-167.51 1.166h1.5527c0.36805 0 0.67296 0.018 0.91602 0.0527s0.47222 0.11046 0.6875 0.22852c0.22916 0.125 0.39301 0.28407 0.49023 0.47851 0.0972 0.19445 0.14453 0.41797 0.14453 0.66797 0 0.3125-0.0445 0.57292-0.13476 0.78125-0.0833 0.20833-0.232 0.39865-0.44727 0.57227-0.20139 0.15972-0.45898 0.2743-0.77148 0.34375-0.3125 0.0625-0.68468 0.0937-1.1152 0.0937h-1.3223zm-32.521 0.125c1.0417 0 1.8173 0.28125 2.3242 0.84375 0.51389 0.5625 0.7743 1.357 0.78125 2.3848h-6.668c0.08333-0.91666 0.43468-1.6827 1.0527-2.3008 0.625-0.61805 1.4612-0.92773 2.5098-0.92773zm223.25 0c1.0417 0 1.8173 0.28125 2.3242 0.84375 0.5139 0.5625 0.77432 1.357 0.78125 2.3848h-6.668c0.0833-0.91666 0.43468-1.6827 1.0527-2.3008 0.625-0.61805 1.4612-0.92773 2.5098-0.92773zm-74.801 0.0723c1.0486 0 1.8668 0.36936 2.457 1.1055 0.59028 0.72916 0.88672 1.8466 0.88672 3.3535 0 1.4722-0.29926 2.584-0.89648 3.334-0.59028 0.74306-1.4056 1.1133-2.4473 1.1133-1.0556 0-1.8785-0.375-2.4688-1.125-0.59027-0.75694-0.88672-1.8639-0.88672-3.3223 0-1.507 0.29168-2.6244 0.875-3.3535 0.59028-0.73611 1.418-1.1055 2.4805-1.1055zm44.207 0c1.0486 0 1.8687 0.36936 2.459 1.1055 0.59028 0.72916 0.88476 1.8466 0.88476 3.3535 0 1.4722-0.29731 2.584-0.89453 3.334-0.59028 0.74306-1.4076 1.1133-2.4492 1.1133-1.0556 0-1.8785-0.375-2.4688-1.125-0.59028-0.75694-0.88476-1.8639-0.88476-3.3223 0-1.507 0.29166-2.6244 0.875-3.3535 0.59028-0.73611 1.416-1.1055 2.4785-1.1055zm-101.45 0.0742c0.44444 0 0.88953 0.0521 1.334 0.15625 0.45139 0.0972 0.9362 0.26389 1.457 0.5v6.3438c-0.47916 0.36806-1.0056 0.66255-1.582 0.88477-0.56945 0.21528-1.1395 0.32226-1.709 0.32226-1.0625 0-1.8229-0.33615-2.2812-1.0098-0.45834-0.67361-0.6875-1.6632-0.6875-2.9688 0-1.375 0.30968-2.4243 0.92773-3.1465s1.4646-1.082 2.541-1.082zm8.2715 2.4688v1.8848h6.5v-1.8848z"/></g><g stroke-width="1.613"><path d="m382.33 14.24c-1.7097 0-3.113-1.3872-3.113-3.0969 0-1.7097 1.4033-3.113 3.113-3.113s3.113 1.4033 3.113 3.113c0 1.7097-1.4033 3.0969-3.113 3.0969m0-6.968c-2.1291 0-3.8711 1.742-3.8711 3.8711 0 2.1291 1.742 3.8711 3.8711 3.8711s3.8711-1.742 3.8711-3.8711c0-2.1291-1.742-3.8711-3.8711-3.8711"/><path d="m382.59 10.982-0.82261 0.0161-0.0161-1h0.82261c0.30646-0.0161 0.5484 0.17742 0.5484 0.48389 0.0161 0.30646-0.22581 0.50001-0.53227 0.50001m1.3388-0.51614c-0.0161-0.67745-0.48389-1.1613-1.242-1.1613l-1.7259 0.0323 0.0484 3.6453h0.79035l-0.0161-1.3065h0.56453l0.74196 1.2904 0.88713-0.0161-0.83874-1.3872c0.38711-0.0968 0.79035-0.45163 0.79035-1.0968"/><path d="m83.15 36.967h-9.6762v-22.314h9.4116c2.5388 0 4.1243 1.6388 4.1243 3.8598 0 2.221-1.5855 3.8066-4.1243 3.8066h-10.759v6.4518h11.023c2.9614 0 4.5469 1.9033 4.5469 4.1227 0 2.5388-1.692 4.0727-4.5469 4.0727m5.4454-11.686c3.3324-0.68712 6.0825-3.6485 6.0825-8.089 0-4.7066-3.4372-8.989-10.154-8.989h-18.559v35.267h19.141c6.7148 0 10.257-4.2308 10.257-9.5181 0-4.4421-3.013-8.089-6.768-8.6713"/><path d="m117.34 24.329h-8.1174v6.6099h5.7383l6.926 12.531h8.618l-7.9309-13.431c3.8082-0.89842 7.7196-4.2292 7.7196-10.468 0-6.5567-4.4937-11.368-11.844-11.368h-16.497v35.267h7.5083v-28.657h7.8793c3.0146 0 5.2873 1.7968 5.2873 4.7582 0 2.9614-2.2727 4.7582-5.2873 4.7582"/><path d="m187.38 30.886 5.4986-15.175 5.5002 15.175zm0.79358-22.683-13.642 35.267h8.5648l2.221-5.9744h15.123l2.1678 5.9744h8.5664l-13.589-35.267z"/><path d="m231.57 36.861h-6.3986v-22.049h6.3986c7.2438 0 11.05 4.8115 11.05 11.052 0 5.9744-4.0711 10.997-11.05 10.997m0-28.657h-13.907v35.267h13.907c11.05 0 18.717-6.9793 18.717-17.607s-7.6664-17.66-18.717-17.66"/><path d="m364.03 8.1961-9.2487 14.952-9.2487-14.952h-8.3003v35.274h7.51v-23.054l8.0842 12.294c0.92584 1.4049 2.9856 1.4049 3.9098 0l8.0858-12.294v23.054h7.5099v-35.274z"/><path id="path20" d="m154.11 37.231c-6.2438 0-11.304-5.0615-11.304-11.304 0-6.2438 5.0599-11.305 11.304-11.305 6.2422 0 11.304 5.0615 11.304 11.305 0 6.2422-5.0615 11.304-11.304 11.304m0-29.898c-10.27 0-18.594 8.3245-18.594 18.594 0 10.268 8.3245 18.593 18.594 18.593 10.268 0 18.594-8.3245 18.594-18.593 0-10.27-8.3261-18.594-18.594-18.594" stroke-width="1.613"/><path d="m284.08 31.397c-1.9275 3.4775-5.6325 5.8341-9.8907 5.8341-6.2422 0-11.304-5.0615-11.304-11.304 0-6.2438 5.0615-11.304 11.304-11.304 4.2227 0 7.8987 2.3194 9.8391 5.7502l5.2744-5.2728c-3.3743-4.7018-8.8842-7.768-15.113-7.768-10.27 0-18.593 8.3245-18.593 18.594 0 10.268 8.3229 18.594 18.593 18.594 6.2631 0 11.8-3.1001 15.168-7.8471z"/></g><use transform="translate(159.23)" width="100%" height="100%" xlink:href="#path20"/><ellipse cx="26.189" cy="26.187" rx="26.189" ry="26.187" fill="#cc092f" stroke-width="1.613"/><path d="m49.263 33.262c-2.9953-1.1936-5.7373-0.79357-8.4858 0.87262 0 0-1.0016 0.61131-1.3017 0.80003-1.2807 0.80325-2.4888 1.5646-3.6501 1.5646-1.1081 0-2.1985-0.29679-2.6598-2.4404-0.71938-3.3437-2.4743-11.56-3.2404-15.63-0.45002-2.392-0.6968-3.6808-0.95326-4.5566-0.45163-1.5388-1.2775-2.3759-2.4501-2.5098 0 0-0.18388-0.0258-0.33388-0.0258-0.14839 0-0.35162 0.029-0.35162 0.029-1.1613 0.13872-1.9823 0.97584-2.4307 2.5065-0.25646 0.87584-0.50324 2.1646-0.95326 4.5566-0.76616 4.0695-2.5211 12.286-3.2404 15.63-0.46131 2.1436-1.5517 2.4404-2.6598 2.4404-1.1613 0-2.3694-0.76132-3.6501-1.5646-0.30001-0.18872-1.3033-0.80003-1.3033-0.80003-2.7469-1.6662-5.4905-2.0662-8.4842-0.87262-0.6468 0.25808-1.2839 0.5471-1.8903 0.83905 0.41453 1.3 0.93057 2.5795 1.5322 3.7812 0.66293-0.32581 1.3582-0.64912 2.0679-0.8588 1.0226-0.30162 2.071-0.31775 3.0872 0.0226 0.98713 0.33066 1.8662 0.91616 2.742 1.4662 1.6501 1.0371 3.5195 2.213 5.8986 2.213 3.5259 0 6.0002-2.1049 6.7906-5.776 0.61293-2.8453 1.971-9.1971 2.8436-13.578 0 0 2.2356 10.733 2.8469 13.578 0.79035 3.6711 3.2662 5.776 6.7922 5.776 2.3791 0 4.2485-1.1758 5.8986-2.213 0.87584-0.55002 1.7549-1.1355 2.742-1.4662 1.0146-0.34033 2.0646-0.3242 3.0872-0.0226 0.7097 0.20968 1.4039 0.53332 2.0668 0.85914 0.60325-1.2016 1.1179-2.4817 1.5325-3.7818-0.60647-0.29194-1.2428-0.58071-1.8896-0.83879" fill="#fff" stroke-width="1.613"/></svg>
