<?xml version="1.0" encoding="UTF-8" standalone="no"?>
<svg
   xmlns:dc="http://purl.org/dc/elements/1.1/"
   xmlns:cc="http://creativecommons.org/ns#"
   xmlns:rdf="http://www.w3.org/1999/02/22-rdf-syntax-ns#"
   xmlns:svg="http://www.w3.org/2000/svg"
   xmlns="http://www.w3.org/2000/svg"
   xmlns:sodipodi="http://sodipodi.sourceforge.net/DTD/sodipodi-0.dtd"
   xmlns:inkscape="http://www.inkscape.org/namespaces/inkscape"
   inkscape:version="1.0beta2 (2b71d25, 2019-12-03)"
   height="1105.759"
   width="982.16498"
   sodipodi:docname="cmstar.svg"
   id="svg68"
   xml:space="preserve"
   enable-background="new 0 0 1000 1000"
   viewBox="0 0 982.16498 1105.759"
   y="0px"
   x="0px"
   version="1.1"><defs
   id="defs72" /><sodipodi:namedview
   inkscape:current-layer="svg68"
   inkscape:window-maximized="0"
   inkscape:window-y="23"
   inkscape:window-x="347"
   inkscape:cy="422.28214"
   inkscape:cx="669.7604"
   inkscape:zoom="0.672"
   showgrid="false"
   id="namedview70"
   inkscape:window-height="1265"
   inkscape:window-width="1721"
   inkscape:pageshadow="2"
   inkscape:pageopacity="0"
   guidetolerance="10"
   gridtolerance="10"
   objecttolerance="10"
   borderopacity="1"
   inkscape:document-rotation="0"
   bordercolor="#666666"
   pagecolor="#ffffff" />
<metadata
   id="metadata60"> Svg Vector Icons : http://www.onlinewebfonts.com/icon <rdf:RDF><cc:Work
     rdf:about=""><dc:format>image/svg+xml</dc:format><dc:type
       rdf:resource="http://purl.org/dc/dcmitype/StillImage" /><dc:title></dc:title></cc:Work></rdf:RDF></metadata>
<g
   transform="translate(-9.9717382,-33.075)"
   id="g66"><path
     inkscape:connector-curvature="0"
     id="path62"
     d="m 395.3,540.2 h -112 c -11,0 -19.9,8.9 -19.9,19.9 v 111.7 c 0,11 8.9,19.9 19.9,19.9 h 112 c 11,0 19.9,-8.9 19.9,-19.9 V 560.1 c 0,-11 -8.9,-19.9 -19.9,-19.9 z M 375.4,651.9 H 303.2 V 580 h 72.2 z" /><path
     inkscape:connector-curvature="0"
     id="path64"
     d="M 983,435.8 512.9,37.8 c -7.4,-6.3 -18.3,-6.3 -25.7,0 L 17,435.8 c -8.4,7.1 -9.4,19.6 -2.3,28 3.9,4.7 9.5,7 15.2,7 4.5,0 9.1,-1.6 12.8,-4.7 L 90.8,425.4 V 947 c 0,11 8.9,19.9 19.9,19.9 h 407.5 198.4 172.6 c 11,0 19.9,-8.9 19.9,-19.9 V 425.4 l 48.1,40.7 c 8.4,7.1 21,6 28,-2.3 7.2,-8.4 6.1,-20.9 -2.2,-28 z M 538.1,927.1 V 580 h 158.7 v 347.1 z m 331.3,0 H 736.6 v -367 c 0,-11 -8.9,-19.9 -19.9,-19.9 H 518.2 c -11,0 -19.9,8.9 -19.9,19.9 v 367 H 130.6 V 391.8 L 500,79 869.4,391.7 Z" /></g>
<g
   transform="translate(-9.9717382,-33.075)"
   style="font-style:normal;font-weight:normal;font-size:192px;line-height:1.25;font-family:sans-serif;fill:#000000;fill-opacity:1;stroke:none"
   id="text76"
   aria-label="CMS Make" /><g
   style="font-style:normal;font-weight:normal;font-size:192px;line-height:1.25;font-family:sans-serif;fill:#000000;fill-opacity:1;stroke:none"
   id="text237"
   aria-label="CMS TAR"><path
     d="m 125.34961,944.18359 c -10.25,0 -19.59375,1.59375 -28.031251,4.78125 -8.375,3.1875 -15.53125,7.8125 -21.46875,13.875 -6.125,6.25 -10.8125,13.90625 -14.0625,22.96875 -3.25,9.0625 -4.875,19.34381 -4.875,30.84371 0,12.125 1.6875,22.7832 5.0625,31.9707 3.375,9.125 8.0625,16.6544 14.0625,22.5918 6.125,6.0626 13.3125,10.5332 21.5625,13.4082 8.312501,2.8125 17.531251,4.2168 27.656251,4.2168 5.375,0 10.28125,-0.4375 14.71875,-1.3125 4.5,-0.8124 8.65625,-1.8124 12.46875,-3 4.5,-1.4374 8.125,-2.8124 10.875,-4.125 2.8125,-1.3124 5.9375,-2.7168 9.375,-4.2168 v -21.75 h -1.3125 c -6.8125,6.125 -14.125,10.7169 -21.9375,13.7793 -7.8125,3.0626 -16.1875,4.5957 -25.125,4.5957 -6.5,0 -12.6875,-1.0956 -18.5625,-3.2832 -5.8125,-2.25 -10.906251,-5.6875 -15.281251,-10.3125 -4.1875,-4.4374 -7.625,-10.1874 -10.3125,-17.25 -2.625,-7.0624 -3.9375,-15.4999 -3.9375,-25.3125 0,-9.375 1.1875,-17.62497 3.5625,-24.74996 2.4375,-7.1875 5.8125,-13.125 10.125,-17.8125 4.4375,-4.8125 9.468751,-8.34375 15.093751,-10.59375 5.6875,-2.3125 12.0625,-3.46875 19.125,-3.46875 8.625,0 16.71875,1.46875 24.28125,4.40625 7.5625,2.9375 15.1875,7.625 22.875,14.0625 h 1.40625 v -22.03125 c -9.125,-4.5625 -17.4375,-7.75 -24.9375,-9.5625 -7.4375,-1.8125 -14.90625,-2.71875 -22.40625,-2.71875 z m 282.84375,0 c -15.1875,0 -27.71875,3.75 -37.59375,11.25 -9.875,7.4375 -14.8125,17 -14.8125,28.6875 0,10.1875 2.96875,18.46881 8.90625,24.84371 6,6.3126 15.1875,10.7832 27.5625,13.4082 6.125,1.25 11.90625,2.2794 17.34375,3.0918 5.5,0.8126 10.59375,1.8457 15.28125,3.0957 6.1875,1.625 10.78125,3.9044 13.78125,6.8418 3.0625,2.9376 4.59375,7.5001 4.59375,13.6875 0,7.1876 -3.21875,12.9376 -9.65625,17.25 -6.375,4.3126 -15.3125,6.4707 -26.8125,6.4707 -8.125,0 -16.8125,-1.5956 -26.0625,-4.7832 -9.25,-3.1874 -17.40625,-7.7168 -24.46875,-13.5918 h -1.3125 v 23.25 c 8.3125,3.6875 16.46875,6.4668 24.46875,8.3418 8.0625,1.875 17.125,2.8125 27.1875,2.8125 9.375,0 17.375,-1.125 24,-3.375 6.6875,-2.25 12.53125,-5.375 17.53125,-9.375 4.5625,-3.6874 8.09375,-8.1874 10.59375,-13.5 2.5625,-5.3124 3.84375,-10.6874 3.84375,-16.125 0,-10 -2.625,-17.7793 -7.875,-23.3418 -5.25,-5.5625 -13.0625,-9.7207 -23.4375,-12.4707 -5.125,-1.3124 -11.375,-2.5918 -18.75,-3.8418 -7.375,-1.25 -13.0625,-2.3125 -17.0625,-3.1875 -7.5625,-1.75 -12.84375,-4.28314 -15.84375,-7.59566 -3,-3.3125 -4.5,-7.875 -4.5,-13.6875 0,-6.5 3,-11.8125 9,-15.9375 6.0625,-4.125 14.0625,-6.1875 24,-6.1875 9.0625,0 17.90625,1.5 26.53125,4.5 8.6875,2.9375 15.6875,6.65625 21,11.15625 h 1.3125 v -21.9375 c -6.3125,-2.75 -13.5625,-5.0625 -21.75,-6.9375 -8.1875,-1.875 -17.1875,-2.8125 -27,-2.8125 z m -209.0625,2.53125 v 139.59566 h 17.34375 V 966.02734 l 38.53125,81.84566 h 11.0625 l 38.8125,-81.84566 v 120.28316 h 18.5625 V 946.71484 h -25.78125 l -36,77.72066 -37.21875,-77.72066 z m 342,0 v 16.5 h 49.875 v 123.09566 h 18.5625 V 963.21484 h 49.875 v -16.5 z m 171.75,0 -50.8125,139.59566 h 18.84375 l 13.6875,-38.9082 h 60.375 l 13.6875,38.9082 h 19.78125 l -50.8125,-139.59566 z m 96.75,0 v 139.59566 h 18.5625 v -55.5 h 26.15625 l 46.6875,55.5 h 24.09375 l -52.5,-61.0332 c 8.875,-3.4374 15.84375,-8.5293 20.90625,-15.2793 5.0625,-6.8125 7.59375,-15.25191 7.59375,-25.31441 0,-7.4375 -1.4375,-13.5625 -4.3125,-18.375 -2.8125,-4.875 -6.75,-8.90625 -11.8125,-12.09375 -4.5,-2.8125 -9.5625,-4.75 -15.1875,-5.8125 -5.625,-1.125 -12.65625,-1.6875 -21.09375,-1.6875 z m 18.5625,15.9375 h 21.84375 c 5,0 9.34375,0.375 13.03125,1.125 3.6875,0.6875 6.875,1.9375 9.5625,3.75 3.25,2.125 5.5625,4.75 6.9375,7.875 1.4375,3.0625 2.15625,6.59375 2.15625,10.59375 0,5.25 -0.6875,9.59375 -2.0625,13.03125 -1.3125,3.37496 -3.375,6.37496 -6.1875,8.99996 -3.0625,2.8126 -6.78125,4.7501 -11.15625,5.8125 -4.375,1 -9.5,1.5 -15.375,1.5 h -18.75 z m -103.40625,0.28125 24.46875,68.53121 h -49.03125 z"
     inkscape:original="M 125.34961 944.18359 C 115.09961 944.18359 105.75586 945.77734 97.318359 948.96484 C 88.943359 952.15234 81.787109 956.77734 75.849609 962.83984 C 69.724609 969.08984 65.037109 976.74609 61.787109 985.80859 C 58.537109 994.87109 56.912109 1005.1524 56.912109 1016.6523 C 56.912109 1028.7773 58.599609 1039.4355 61.974609 1048.623 C 65.349609 1057.748 70.037109 1065.2774 76.037109 1071.2148 C 82.162109 1077.2774 89.349609 1081.748 97.599609 1084.623 C 105.91211 1087.4355 115.13086 1088.8398 125.25586 1088.8398 C 130.63086 1088.8398 135.53711 1088.4023 139.97461 1087.5273 C 144.47461 1086.7149 148.63086 1085.7149 152.44336 1084.5273 C 156.94336 1083.0899 160.56836 1081.7149 163.31836 1080.4023 C 166.13086 1079.0899 169.25586 1077.6855 172.69336 1076.1855 L 172.69336 1054.4355 L 171.38086 1054.4355 C 164.56836 1060.5605 157.25586 1065.1524 149.44336 1068.2148 C 141.63086 1071.2774 133.25586 1072.8105 124.31836 1072.8105 C 117.81836 1072.8105 111.63086 1071.7149 105.75586 1069.5273 C 99.94336 1067.2773 94.849609 1063.8398 90.474609 1059.2148 C 86.287109 1054.7774 82.849609 1049.0274 80.162109 1041.9648 C 77.537109 1034.9024 76.224609 1026.4649 76.224609 1016.6523 C 76.224609 1007.2773 77.412109 999.02733 79.787109 991.90234 C 82.224609 984.71484 85.599609 978.77734 89.912109 974.08984 C 94.349609 969.27734 99.38086 965.74609 105.00586 963.49609 C 110.69336 961.18359 117.06836 960.02734 124.13086 960.02734 C 132.75586 960.02734 140.84961 961.49609 148.41211 964.43359 C 155.97461 967.37109 163.59961 972.05859 171.28711 978.49609 L 172.69336 978.49609 L 172.69336 956.46484 C 163.56836 951.90234 155.25586 948.71484 147.75586 946.90234 C 140.31836 945.08984 132.84961 944.18359 125.34961 944.18359 z M 408.19336 944.18359 C 393.00586 944.18359 380.47461 947.93359 370.59961 955.43359 C 360.72461 962.87109 355.78711 972.43359 355.78711 984.12109 C 355.78711 994.30859 358.75586 1002.5899 364.69336 1008.9648 C 370.69336 1015.2774 379.88086 1019.748 392.25586 1022.373 C 398.38086 1023.623 404.16211 1024.6524 409.59961 1025.4648 C 415.09961 1026.2774 420.19336 1027.3105 424.88086 1028.5605 C 431.06836 1030.1855 435.66211 1032.4649 438.66211 1035.4023 C 441.72461 1038.3399 443.25586 1042.9024 443.25586 1049.0898 C 443.25586 1056.2774 440.03711 1062.0274 433.59961 1066.3398 C 427.22461 1070.6524 418.28711 1072.8105 406.78711 1072.8105 C 398.66211 1072.8105 389.97461 1071.2149 380.72461 1068.0273 C 371.47461 1064.8399 363.31836 1060.3105 356.25586 1054.4355 L 354.94336 1054.4355 L 354.94336 1077.6855 C 363.25586 1081.373 371.41211 1084.1523 379.41211 1086.0273 C 387.47461 1087.9023 396.53711 1088.8398 406.59961 1088.8398 C 415.97461 1088.8398 423.97461 1087.7148 430.59961 1085.4648 C 437.28711 1083.2148 443.13086 1080.0898 448.13086 1076.0898 C 452.69336 1072.4024 456.22461 1067.9024 458.72461 1062.5898 C 461.28711 1057.2774 462.56836 1051.9024 462.56836 1046.4648 C 462.56836 1036.4648 459.94336 1028.6855 454.69336 1023.123 C 449.44336 1017.5605 441.63086 1013.4023 431.25586 1010.6523 C 426.13086 1009.3399 419.88086 1008.0605 412.50586 1006.8105 C 405.13086 1005.5605 399.44336 1004.498 395.44336 1003.623 C 387.88086 1001.873 382.59961 999.33986 379.59961 996.02734 C 376.59961 992.71484 375.09961 988.15234 375.09961 982.33984 C 375.09961 975.83984 378.09961 970.52734 384.09961 966.40234 C 390.16211 962.27734 398.16211 960.21484 408.09961 960.21484 C 417.16211 960.21484 426.00586 961.71484 434.63086 964.71484 C 443.31836 967.65234 450.31836 971.37109 455.63086 975.87109 L 456.94336 975.87109 L 456.94336 953.93359 C 450.63086 951.18359 443.38086 948.87109 435.19336 946.99609 C 427.00586 945.12109 418.00586 944.18359 408.19336 944.18359 z M 199.13086 946.71484 L 199.13086 1086.3105 L 216.47461 1086.3105 L 216.47461 966.02734 L 255.00586 1047.873 L 266.06836 1047.873 L 304.88086 966.02734 L 304.88086 1086.3105 L 323.44336 1086.3105 L 323.44336 946.71484 L 297.66211 946.71484 L 261.66211 1024.4355 L 224.44336 946.71484 L 199.13086 946.71484 z M 541.13086 946.71484 L 541.13086 963.21484 L 591.00586 963.21484 L 591.00586 1086.3105 L 609.56836 1086.3105 L 609.56836 963.21484 L 659.44336 963.21484 L 659.44336 946.71484 L 541.13086 946.71484 z M 712.88086 946.71484 L 662.06836 1086.3105 L 680.91211 1086.3105 L 694.59961 1047.4023 L 754.97461 1047.4023 L 768.66211 1086.3105 L 788.44336 1086.3105 L 737.63086 946.71484 L 712.88086 946.71484 z M 809.63086 946.71484 L 809.63086 1086.3105 L 828.19336 1086.3105 L 828.19336 1030.8105 L 854.34961 1030.8105 L 901.03711 1086.3105 L 925.13086 1086.3105 L 872.63086 1025.2773 C 881.50586 1021.8399 888.47461 1016.748 893.53711 1009.998 C 898.59961 1003.1855 901.13086 994.74609 901.13086 984.68359 C 901.13086 977.24609 899.69336 971.12109 896.81836 966.30859 C 894.00586 961.43359 890.06836 957.40234 885.00586 954.21484 C 880.50586 951.40234 875.44336 949.46484 869.81836 948.40234 C 864.19336 947.27734 857.16211 946.71484 848.72461 946.71484 L 809.63086 946.71484 z M 828.19336 962.65234 L 850.03711 962.65234 C 855.03711 962.65234 859.38086 963.02734 863.06836 963.77734 C 866.75586 964.46484 869.94336 965.71484 872.63086 967.52734 C 875.88086 969.65234 878.19336 972.27734 879.56836 975.40234 C 881.00586 978.46484 881.72461 981.99609 881.72461 985.99609 C 881.72461 991.24609 881.03711 995.58984 879.66211 999.02734 C 878.34961 1002.4023 876.28711 1005.4023 873.47461 1008.0273 C 870.41211 1010.8399 866.69336 1012.7774 862.31836 1013.8398 C 857.94336 1014.8398 852.81836 1015.3398 846.94336 1015.3398 L 828.19336 1015.3398 L 828.19336 962.65234 z M 724.78711 962.93359 L 749.25586 1031.4648 L 700.22461 1031.4648 L 724.78711 962.93359 z "
     inkscape:radius="0"
     sodipodi:type="inkscape:offset"
     id="path249" /></g></svg>
