<svg xmlns="http://www.w3.org/2000/svg" role="img" xmlns:xlink="http://www.w3.org/1999/xlink" viewBox="-4.53 -4.53 248.82 62.82"><title>Cobol Language Support</title><path d="M237.32 9.09c-1.06 0-1.93-.86-1.93-1.92s.87-1.93 1.93-1.93 1.93.87 1.93 1.93-.87 1.92-1.93 1.92m0-4.32c-1.32 0-2.4 1.08-2.4 2.4 0 1.32 1.08 2.4 2.4 2.4 1.32 0 2.4-1.08 2.4-2.4 0-1.32-1.08-2.4-2.4-2.4"/><path d="M237.48 7.07l-.51.01-.01-.62h.51c.19-.01.34.11.34.3.01.19-.14.31-.33.31m.83-.32c-.01-.42-.3-.72-.77-.72l-1.07.02.03 2.26h.49l-.01-.81h.35l.46.8.55-.01-.52-.86c.24-.06.49-.28.49-.68M51.8341 23.1805h-5.999V9.3465h5.835c1.574 0 2.557 1.016 2.557 2.393 0 1.377-.983 2.36-2.557 2.36H45v4h6.8341c1.836 0 2.819 1.18 2.819 2.556 0 1.574-1.049 2.525-2.819 2.525m3.376-7.245c2.066-.426 3.771-2.262 3.771-5.015 0-2.918-2.131-5.573-6.295-5.573h-11.506v21.865h11.867c4.163 0 6.359-2.623 6.359-5.901 0-2.754-1.868-5.015-4.196-5.376m17.8225-.5902H68v4.098h3.5576l4.294 7.769h5.343l-4.917-8.327c2.361-.557 4.786-2.622 4.786-6.49m0 0c0-4.065-2.786-7.048-7.343-7.048h-10.228v21.865h4.655V9.4453h4.885c1.869 0 3.278 1.114 3.278 2.95s-1.409 2.95-3.278 2.95m43.4206 4.0652l3.409-9.408 3.41 9.408zm.492-14.063l-8.458 21.865h5.31l1.377-3.704h9.376l1.344 3.704h5.311l-8.425-21.865zm26.9039 17.7671h-3.967v-13.67h3.967c4.491 0 6.851 2.983 6.851 6.852 0 3.704-2.524 6.818-6.851 6.818m0-17.767h-8.622v21.865h8.622c6.851 0 11.604-4.327 11.604-10.916s-4.753-10.949-11.604-10.949m82.1269-.0045l-5.734 9.27-5.734-9.27h-5.146v21.869h4.656v-14.293l5.012 7.622c.574.871 1.851.871 2.424 0l5.013-7.622v14.293h4.656V5.3431z"/><path id="a" d="M95.8253 23.3441c-3.871 0-7.008-3.138-7.008-7.008 0-3.871 3.137-7.009 7.008-7.009 3.87 0 7.008 3.138 7.008 7.009 0 3.87-3.138 7.008-7.008 7.008m0-18.536c-6.367 0-11.528 5.161-11.528 11.528 0 6.366 5.161 11.527 11.528 11.527 6.366 0 11.528-5.161 11.528-11.527 0-6.367-5.162-11.528-11.528-11.528"/><path d="M176.4035 19.7269c-1.195 2.156-3.492 3.617-6.132 3.617-3.87 0-7.008-3.138-7.008-7.008 0-3.871 3.138-7.008 7.008-7.008 2.618 0 4.897 1.438 6.1 3.565l3.27-3.269c-2.092-2.915-5.508-4.816-9.37-4.816-6.367 0-11.527 5.161-11.527 11.528 0 6.366 5.16 11.528 11.527 11.528 3.883 0 7.316-1.922 9.404-4.865z"/><use transform="translate(98.718)" xlink:href="#a"/><ellipse cx="16.52" cy="16.497" fill="#cc092f" rx="16.236" ry="16.235"/><path fill="#fff" d="M30.8253 20.8832c-1.857-.74-3.557-.492-5.261.541 0 0-.621.379-.807.496-.794.498-1.543.97-2.263.97-.687 0-1.363-.184-1.649-1.513-.446-2.073-1.534-7.167-2.009-9.69-.279-1.483-.432-2.282-.591-2.825-.28-.954-.792-1.473-1.519-1.556 0 0-.114-.016-.207-.016-.092 0-.218.018-.218.018-.72.086-1.229.605-1.507 1.554-.159.543-.312 1.342-.591 2.825-.475 2.523-1.563 7.617-2.009 9.69-.286 1.329-.962 1.513-1.649 1.513-.72 0-1.469-.472-2.263-.97-.186-.117-.808-.496-.808-.496-1.703-1.033-3.404-1.281-5.26-.541-.401.16-.79596.33918-1.17196.52018.257.806.57693 1.59925.94993 2.34425.411-.202.84203-.40243 1.28203-.53243.634-.187 1.284-.197 1.914.014.612.205 1.157.568 1.7.909 1.023.643 2.182 1.372 3.657 1.372 2.186 0 3.72-1.305 4.21-3.581.38-1.764 1.222-5.702 1.763-8.418 0 0 1.386 6.654 1.765 8.418.49 2.276 2.025 3.581 4.211 3.581 1.475 0 2.634-.729 3.657-1.372.543-.341 1.088-.704 1.7-.909.629-.211 1.28-.201 1.914-.014.44.13.87039.33065 1.28139.53265.374-.745.69309-1.53862.95009-2.34462-.376-.181-.77048-.36003-1.17148-.52003"/><path d="M22.78485 39.38258c-1.12267 1.13194-1.68517 2.74767-1.68517 4.84025 0 1.93748.49537 3.46294 1.48147 4.57404.98842 1.10648 2.3449 1.65971 4.06942 1.65971 1.39351 0 2.53702-.40972 3.43053-1.22916.8912-.81712 1.44675-1.88193 1.66435-3.1898h-2.48147c-.16898.61806-.37963 1.08334-.63657 1.3912-.46065.57639-1.12962.86342-2.00925.86342-.85647 0-1.5648-.33564-2.12035-1.00462-.55556-.6713-.83333-1.67823-.83333-3.02313s.26389-2.38656.78935-3.12035c.52546-.7361 1.24536-1.10416 2.15739-1.10416.89351 0 1.56943.26157 2.02545.7824.25463.29167.46296.72685.62731 1.30092h2.50461c-.03703-.74768-.3148-1.49304-.8287-2.2384-.93286-1.32176-2.4097-1.9838-4.4282-1.9838-1.50694 0-2.74999.49306-3.72684 1.48148zm3.65507-1.62036zM39.0116 47.76447c-.36342.48148-.88425.72453-1.56249.72453-.67823 0-1.19906-.24305-1.5648-.72453-.36806-.4838-.55092-1.16897-.55092-2.06017 0-.88889.18286-1.57407.55092-2.05554.36574-.47917.88657-.7199 1.5648-.7199.67824 0 1.19907.24073 1.5625.7199.36342.48147.54629 1.16665.54629 2.05554 0 .8912-.18287 1.57638-.5463 2.06017zm1.85647 1.28008c.74768-.9236 1.12268-2.03702 1.12268-3.34025 0-1.28009-.375-2.38888-1.12268-3.32868-.75-.9375-1.88656-1.4074-3.4097-1.4074-1.52545 0-2.66202.4699-3.4097 1.4074-.75.9398-1.12268 2.0486-1.12268 3.32868 0 1.30323.37269 2.41665 1.12268 3.34025.74768.92592 1.88425 1.38888 3.4097 1.38888 1.52314 0 2.6597-.46296 3.4097-1.38888zm-3.4097-8.02772zm13.72445 1.30323c-.65972-.84259-1.57175-1.26157-2.7384-1.26157-.64584 0-1.17824.13426-1.5949.4074-.35185.21529-.67593.5301-.9676.94213v-4.26386h-2.31248v11.9791h2.27082v-1.11343c.31019.43287.59722.7361.86342.90972.44444.29398 1.0324.43981 1.76388.43981 1.16666 0 2.07638-.4537 2.72684-1.35879.65045-.90508.97684-2.0486.97684-3.4259 0-1.3287-.3287-2.41434-.98842-3.25461zM49.2407 47.7228c-.33101.4838-.79397.72454-1.3912.72454-.68749 0-1.20137-.25-1.53702-.75-.33564-.49768-.50462-1.1273-.50462-1.88656 0-.64583.08101-1.17129.24305-1.5787.31481-.7662.89351-1.14814 1.73378-1.14814.83102 0 1.40046.3912 1.70833 1.1713.16435.41434.24537.93517.24537 1.56248 0 .78704-.16667 1.42129-.49769 1.90508zm10.13188.04167c-.36342.48148-.88425.72453-1.56249.72453-.67823 0-1.19906-.24305-1.5648-.72453-.36805-.4838-.55092-1.16897-.55092-2.06017 0-.88889.18287-1.57407.55092-2.05554.36574-.47917.88657-.7199 1.5648-.7199.67824 0 1.19907.24073 1.5625.7199.36342.48147.54629 1.16665.54629 2.05554 0 .8912-.18287 1.57638-.5463 2.06017zm1.85647 1.28008c.74768-.9236 1.12268-2.03702 1.12268-3.34025 0-1.28009-.375-2.38888-1.12268-3.32868-.74768-.9375-1.88424-1.4074-3.4097-1.4074-1.52545 0-2.66202.4699-3.4097 1.4074-.75.9398-1.12268 2.0486-1.12268 3.32868 0 1.30323.37269 2.41665 1.12268 3.34025.74768.92592 1.88425 1.38888 3.4097 1.38888 1.52546 0 2.66202-.46296 3.4097-1.38888zm-3.4097-8.02772zm8.56013 9.10642v-11.9953h-2.31943v11.9953zm7.08098-11.9953v11.9953h8.4467v-2.15508h-5.93978v-9.84021zm14.88416 7.68283v.86342c-.0162.77546-.2338 1.31018-.65509 1.60184-.4213.29398-.87962.43981-1.37962.43981-.31481 0-.58101-.08796-.80092-.26388-.2199-.17593-.33102-.46296-.33102-.8588 0-.44444.18056-.77314.53935-.9861.21065-.125.56018-.22917 1.0486-.31713l.52084-.09722c.26157-.04861.46527-.10185.61342-.1574.15046-.05788.2986-.13195.44444-.22454zm-1.4074-1.08333l-.78934.09722c-.89583.11574-1.57407.30556-2.03471.57176-.84028.48842-1.26157 1.27777-1.26157 2.36804 0 .84027.26157 1.49073.78472 1.94906.52314.45833 1.18749.6875 1.99073.6875.62962 0 1.19212-.14352 1.69211-.43287.41898-.24305.78704-.53935 1.10648-.88657a6.72335 6.72335 0 0 0 .06481.53703c.02778.15741.0764.3264.14815.50463h2.52082v-.34259c-.15046-.06944-.26389-.15972-.34028-.26852-.07639-.10648-.12268-.3125-.13889-.61805-.01157-.40046-.0162-.74305-.0162-1.02545v-4.0671c0-1.06945-.37731-1.7963-1.13194-2.18286-.7523-.38426-1.61573-.57639-2.58794-.57639-1.49073 0-2.54397.38889-3.1574 1.17129-.38425.5-.60184 1.13657-.65045 1.91202h2.23841c.05324-.34259.16204-.61342.32407-.81249.22917-.27315.61574-.4074 1.16435-.4074.48842 0 .85879.06944 1.1111.20601.25232.13889.37963.3912.37963.75463 0 .2986-.16667.5162-.49768.6574-.18519.08333-.49074.15046-.91898.2037zm.12269-3.71062zm12.82862.74536c-.58333-.48147-1.33333-.7199-2.24999-.7199-.73379 0-1.33795.17824-1.8148.53703-.2662.19908-.5486.52778-.84722.9838v-1.29398h-2.2384v8.85411h2.31248v-4.8009c0-.5486.07638-.99767.22685-1.35184.29398-.66666.83332-1 1.62036-1 .6412 0 1.07406.22686 1.30091.68288.125.25.1875.60879.1875 1.07406v5.3958h2.3773v-5.97218c0-1.11342-.29166-1.90971-.875-2.38888zm-3.10415-.74536zm11.30317 6.58792c-.375.40972-.83333.61342-1.375.61342-.8148 0-1.3773-.37268-1.69211-1.12268-.17361-.40046-.26157-.85879-.26157-1.37499 0-.59722.08102-1.09721.24537-1.50462.30786-.7662.87036-1.14814 1.68286-1.14814.59721 0 1.07406.2199 1.42823.65972.35648.43981.53472 1.0787.53472 1.92128 0 .89352-.1875 1.54629-.5625 1.956zm-.78935-6.35876c-.33101-.13657-.7199-.2037-1.16434-.2037-1.2037 0-2.13425.44907-2.79165 1.34721-.65509.89583-.98379 2.00462-.98379 3.32406 0 1.36573.34028 2.44906 1.02083 3.24998.68055.80092 1.59026 1.20138 2.73146 1.20138.7361 0 1.33564-.17593 1.7986-.5301.25463-.1898.49305-.47453.71527-.85415v.56944c0 .84721-.09259 1.44906-.27777 1.80786-.2801.55786-.84028.83795-1.67592.83795-.59027 0-1.01157-.10648-1.26156-.31712-.14584-.12037-.25232-.31482-.31713-.58565h-2.52313c.07638.88426.47222 1.5486 1.1898 1.99305.71528.44444 1.6412.66666 2.77313.66666 1.8773 0 3.14813-.5 3.81016-1.49768.38426-.58101.57639-1.44212.57639-2.58794v-8.4143h-2.2523v1.27777c-.34722-.62268-.80324-1.05324-1.36805-1.28472zm-.4236-.22916zm8.52077.2361h-2.3773v5.3472c0 1.01388.12963 1.7824.38426 2.30322.45602.94444 1.34027 1.41666 2.65276 1.41666.45602 0 .85185-.06019 1.19212-.18056.33796-.11805.68981-.34027 1.05324-.66666.12037-.10416.22222-.22222.31018-.3588.08565-.13425.1412-.21758.16204-.24305v1.25231h2.25461v-8.87031h-2.35184v4.82636c0 .56944-.07638 1.02777-.22916 1.37499-.29167.6412-.83564.96064-1.6273.96064-.61806 0-1.0324-.22454-1.24537-.67592-.11805-.25463-.17824-.63426-.17824-1.13888zm1.6273-.2361zm11.13188 4.79395v.86342c-.0162.77546-.2338 1.31018-.65509 1.60184-.41898.29398-.87962.43981-1.3773.43981-.31482 0-.58333-.08796-.80324-.26388-.2199-.17593-.3287-.46296-.3287-.8588 0-.44444.17824-.77314.53703-.9861.21065-.125.5625-.22917 1.0486-.31713l.52084-.09722c.26157-.04861.46527-.10185.61573-.1574.14815-.05788.2963-.13195.44213-.22454zm-1.4074-1.08333l-.78934.09722c-.89352.11574-1.57175.30556-2.03471.57176-.84028.48842-1.26157 1.27777-1.26157 2.36804 0 .84027.26389 1.49073.78703 1.94906.52315.45833 1.18518.6875 1.98842.6875.62962 0 1.19443-.14352 1.69443-.43287.41666-.24305.78472-.53935 1.10647-.88657.0162.20139.03704.37963.06482.53703.02546.15741.07639.3264.14583.50463h2.52313v-.34259c-.15277-.06944-.2662-.15972-.34259-.26852-.07639-.10648-.12037-.3125-.13889-.61805-.00926-.40046-.0162-.74305-.0162-1.02545v-4.0671c0-1.06945-.375-1.7963-1.12962-2.18286-.75463-.38426-1.61805-.57639-2.58795-.57639-1.49304 0-2.54396.38889-3.15739 1.17129-.38657.5-.60184 1.13657-.65277 1.91202h2.23841c.05556-.34259.16435-.61342.32639-.81249.22685-.27315.61574-.4074 1.16434-.4074.48843 0 .8588.06944 1.1111.20601.25232.13889.37732.3912.37732.75463 0 .2986-.16435.5162-.49537.6574-.18518.08333-.49305.15046-.92129.2037zm.12269-3.71062zm10.84715 6.58792c-.37268.40972-.83101.61342-1.375.61342-.81249 0-1.3773-.37268-1.69211-1.12268-.17361-.40046-.26157-.85879-.26157-1.37499 0-.59722.08333-1.09721.24537-1.50462.31018-.7662.87036-1.14814 1.68517-1.14814.5949 0 1.07175.2199 1.42823.65972.35417.43981.5324 1.0787.5324 1.92128 0 .89352-.1875 1.54629-.56249 1.956zm-.78935-6.35876c-.33101-.13657-.71759-.2037-1.16203-.2037-1.206 0-2.13656.44907-2.79165 1.34721-.6574.89583-.9861 2.00462-.9861 3.32406 0 1.36573.34028 2.44906 1.02314 3.24998.68055.80092 1.59027 1.20138 2.72915 1.20138.73842 0 1.33795-.17593 1.7986-.5301.25463-.1898.49305-.47453.71527-.85415v.56944c0 .84721-.09027 1.44906-.27546 1.80786-.2824.55786-.84027.83795-1.67591.83795-.5926 0-1.01157-.10648-1.26157-.31712-.14815-.12037-.25231-.31482-.31713-.58565h-2.52313c.07639.88426.47222 1.5486 1.1875 1.99305.71527.44444 1.64119.66666 2.77544.66666 1.8773 0 3.14581-.5 3.80784-1.49768.38658-.58101.5787-1.44212.5787-2.58794v-8.4143h-2.25461v1.27777c-.34722-.62268-.80324-1.05324-1.36805-1.28472zm-.4213-.22916zm8.45829 2.41665c.2963-.33565.71296-.50463 1.24999-.50463.49305 0 .9074.15972 1.24073.47685.33333.31713.51852.7824.55787 1.39583h-3.60646c.07639-.57639.26157-1.03009.55787-1.36805zm3.24303-2.0023c-.59027-.27546-1.25693-.41435-1.99304-.41435-1.24305 0-2.25461.40972-3.03239 1.22916-.77777.81944-1.16666 1.99767-1.16666 3.53238 0 1.63888.43056 2.82174 1.29398 3.54859.8611.72685 1.85647 1.09027 2.98609 1.09027 1.36573 0 2.43054-.43287 3.1898-1.29397.48842-.54398.76156-1.0787.82175-1.60416h-2.36804c-.125.26157-.26852.46528-.43056.6111-.2986.27084-.6875.40741-1.16434.40741-.45139 0-.83564-.1111-1.15509-.33564-.52777-.35648-.80555-.98148-.83795-1.87036h6.0694c.01158-.7662-.01389-1.35184-.07176-1.75925-.10416-.69444-.3287-1.30323-.67592-1.831-.38657-.59491-.875-1.0324-1.46527-1.31018zm-1.831-.41435zm12.23834 5.40506h-2.39118c0 1.24767.44675 2.22683 1.34258 2.9398.89583.71527 2.12499 1.07174 3.68748 1.07174 1.52776 0 2.71294-.36342 3.5509-1.08795.83796-.72222 1.25694-1.63425 1.25694-2.72915 0-1.06944-.35648-1.88656-1.07407-2.44906-.46065-.36342-1.14351-.65509-2.05091-.87036l-2.06712-.49769c-.7963-.18981-1.31712-.35416-1.5625-.49536-.37962-.21296-.56943-.5324-.56943-.96065 0-.46758.19213-.831.5787-1.09027.38426-.26157.90046-.3912 1.54628-.3912.58102 0 1.06481.09954 1.45601.30093.58565.30324.90046.81712.94444 1.53702h2.4097c-.04397-1.27314-.51156-2.24535-1.40507-2.91664-.8912-.66898-1.9699-1.00463-3.23378-1.00463-1.51388 0-2.66202.35417-3.4421 1.06481-.78241.71296-1.17361 1.60416-1.17361 2.67822 0 1.17824.40509 2.04397 1.21295 2.59721.47685.33102 1.34027.63657 2.58795.91898l1.26851.28472c.74537.16203 1.28934.34953 1.63656.5625.34722.21527.52083.52314.52083.91897 0 .67823-.34953 1.1412-1.0486 1.3912-.37037.12962-.84953.19444-1.44212.19444-.9861 0-1.68286-.24537-2.09026-.74074-.22223-.27083-.37269-.68055-.44908-1.22684zm2.43517-8.65967zm8.99069 3.49072h-2.37499v5.34719c0 1.01388.12732 1.7824.38194 2.30322.45602.94444 1.34027 1.41666 2.65276 1.41666.45602 0 .85417-.06019 1.19213-.18056.34027-.11805.6898-.34027 1.05323-.66666.12037-.10416.22454-.22222.31018-.3588.08797-.13425.1412-.21758.16204-.24305v1.25231h2.25462v-8.87031h-2.35184v4.82636c0 .56944-.07639 1.02777-.22685 1.37499-.29398.6412-.83564.96064-1.6273.96064-.62037 0-1.03472-.22454-1.24537-.67592-.12037-.25463-.18055-.63426-.18055-1.13888zm1.62962-.23611zm11.88418 2.85646c.3125.52546.46759 1.13194.46759 1.8148 0 .83102-.16898 1.49537-.50694 1.99305-.34028.5-.83333.75-1.47916.75-.44444 0-.8287-.1227-1.15508-.36575-.5463-.41897-.82176-1.1435-.82176-2.1736 0-.65045.08102-1.18749.24537-1.6111.31481-.7986.8912-1.19675 1.73147-1.19675.70138 0 1.20601.2639 1.5185.78935zm1.7824-1.66897c-.7199-.76388-1.59722-1.14583-2.63193-1.14583-.71065 0-1.32407.19676-1.84027.5926-.2824.22221-.5486.52777-.79629.91202v-1.31017h-2.2222v12.36103h2.29396v-4.62266c.24537.375.49537.65972.75.85648.46527.35185 1.05091.52777 1.75693.52777 1.10647 0 2.01156-.40972 2.71526-1.22915.70138-.81944 1.05323-2.00925 1.05323-3.57174 0-1.48147-.3588-2.60415-1.0787-3.37035zm8.39809 1.66897c.3125.52546.46759 1.13194.46759 1.8148 0 .83102-.16898 1.49537-.50694 1.99305-.34028.5-.83333.75-1.47916.75-.44444 0-.8287-.1227-1.15508-.36575-.5463-.41897-.82176-1.1435-.82176-2.1736 0-.65045.08102-1.18749.24537-1.6111.31481-.7986.8912-1.19675 1.73147-1.19675.70139 0 1.20601.2639 1.51851.78935zm1.7824-1.66897c-.7176-.76388-1.59722-1.14583-2.63193-1.14583-.71065 0-1.32407.19676-1.84027.5926-.2824.22221-.5463.52777-.79629.91202v-1.31017h-2.2222v12.36103h2.29396v-4.62266c.24537.375.49537.65972.75.85648.46527.35185 1.05091.52777 1.75693.52777 1.10647 0 2.01156-.40972 2.71526-1.22915.70138-.81944 1.05323-2.00925 1.05323-3.57174 0-1.48147-.3588-2.60415-1.0787-3.37035zm8.29624 5.56015c-.36342.48148-.88425.72453-1.5625.72453-.67823 0-1.19906-.24305-1.56711-.72453-.36574-.4838-.5486-1.16897-.5486-2.06017 0-.88889.18286-1.57407.5486-2.05554.36805-.47917.88888-.7199 1.56712-.7199.67824 0 1.19907.24073 1.56249.7199.36342.48147.5463 1.16665.5463 2.05554 0 .8912-.18288 1.57638-.5463 2.06017zm1.85647 1.28008c.74768-.9236 1.12268-2.03702 1.12268-3.34025 0-1.28009-.375-2.38888-1.12268-3.32868-.75-.9375-1.88656-1.4074-3.4097-1.4074-1.52546 0-2.66202.4699-3.4097 1.4074-.75.9398-1.12268 2.0486-1.12268 3.32868 0 1.30323.37268 2.41665 1.12268 3.34025.74768.92592 1.88424 1.38888 3.4097 1.38888 1.52314 0 2.6597-.46296 3.4097-1.38888zm-3.4097-8.02772zm11.1203.02778c-.0301-.00232-.06713-.00232-.11111-.00232-.69444 0-1.25694.18056-1.69212.54398-.2662.21759-.57639.62268-.93518 1.21295v-1.54628h-2.21295v8.87031h2.33563v-4.2384c0-.71296.08797-1.23842.26852-1.581.31944-.60648.94675-.90972 1.87962-.90972.06944 0 .16203.00231.27546.00694.11342.00695.24537.0162.3912.0324V41.0585c-.10417-.00694-.16898-.00925-.19907-.01388zm.64583 1.94211h1.23841v5.46062c0 .55323.12963.96295.3889 1.22915.40277.41667 1.15045.60648 2.24766.56945l1.09722-.04167v-1.73379c-.07408.00695-.15278.01158-.23148.0139-.0787.0023-.15278.00462-.22222.00462-.47222 0-.75463-.0463-.84722-.13657-.0926-.08796-.13889-.31481-.13889-.67824v-4.68747h1.4398v-1.65276h-1.4398v-2.47221h-2.29397v2.4722h-1.23841z"/></svg>