<svg xmlns="http://www.w3.org/2000/svg" role="img" xmlns:xlink="http://www.w3.org/1999/xlink" viewBox="-4.53 -4.53 248.82 62.07"><title>COBOL Control Flow</title><path d="M237.32 9.09c-1.06 0-1.93-.86-1.93-1.92s.87-1.93 1.93-1.93 1.93.87 1.93 1.93-.87 1.92-1.93 1.92m0-4.32c-1.32 0-2.4 1.08-2.4 2.4 0 1.32 1.08 2.4 2.4 2.4 1.32 0 2.4-1.08 2.4-2.4 0-1.32-1.08-2.4-2.4-2.4"/><path d="M237.48 7.07l-.51.01-.01-.62h.51c.19-.01.34.11.34.3.01.19-.14.31-.33.31m.83-.32c-.01-.42-.3-.72-.77-.72l-1.07.02.03 2.26h.49l-.01-.81h.35l.46.8.55-.01-.52-.86c.24-.06.49-.28.49-.68M51.8341 23.1805h-5.999V9.3465h5.835c1.574 0 2.557 1.016 2.557 2.393 0 1.377-.983 2.36-2.557 2.36H45v4h6.8341c1.836 0 2.819 1.18 2.819 2.556 0 1.574-1.049 2.525-2.819 2.525m3.376-7.245c2.066-.426 3.771-2.262 3.771-5.015 0-2.918-2.131-5.573-6.295-5.573h-11.506v21.865h11.867c4.163 0 6.359-2.623 6.359-5.901 0-2.754-1.868-5.015-4.196-5.376m17.8225-.5902H68v4.098h3.5576l4.294 7.769h5.343l-4.917-8.327c2.361-.557 4.786-2.622 4.786-6.49m0 0c0-4.065-2.786-7.048-7.343-7.048h-10.228v21.865h4.655V9.4453h4.885c1.869 0 3.278 1.114 3.278 2.95s-1.409 2.95-3.278 2.95m43.4206 4.0652l3.409-9.408 3.41 9.408zm.492-14.063l-8.458 21.865h5.31l1.377-3.704h9.376l1.344 3.704h5.311l-8.425-21.865zm26.9039 17.7671h-3.967v-13.67h3.967c4.491 0 6.851 2.983 6.851 6.852 0 3.704-2.524 6.818-6.851 6.818m0-17.767h-8.622v21.865h8.622c6.851 0 11.604-4.327 11.604-10.916s-4.753-10.949-11.604-10.949m82.1269-.0045l-5.734 9.27-5.734-9.27h-5.146v21.869h4.656v-14.293l5.012 7.622c.574.871 1.851.871 2.424 0l5.013-7.622v14.293h4.656V5.3431z"/><path id="a" d="M95.8253 23.3441c-3.871 0-7.008-3.138-7.008-7.008 0-3.871 3.137-7.009 7.008-7.009 3.87 0 7.008 3.138 7.008 7.009 0 3.87-3.138 7.008-7.008 7.008m0-18.536c-6.367 0-11.528 5.161-11.528 11.528 0 6.366 5.161 11.527 11.528 11.527 6.366 0 11.528-5.161 11.528-11.527 0-6.367-5.162-11.528-11.528-11.528"/><path d="M176.4035 19.7269c-1.195 2.156-3.492 3.617-6.132 3.617-3.87 0-7.008-3.138-7.008-7.008 0-3.871 3.138-7.008 7.008-7.008 2.618 0 4.897 1.438 6.1 3.565l3.27-3.269c-2.092-2.915-5.508-4.816-9.37-4.816-6.367 0-11.527 5.161-11.527 11.528 0 6.366 5.16 11.528 11.527 11.528 3.883 0 7.316-1.922 9.404-4.865z"/><use transform="translate(98.718)" xlink:href="#a"/><ellipse cx="16.52" cy="16.497" fill="#cc092f" rx="16.236" ry="16.235"/><path fill="#fff" d="M30.8253 20.8832c-1.857-.74-3.557-.492-5.261.541 0 0-.621.379-.807.496-.794.498-1.543.97-2.263.97-.687 0-1.363-.184-1.649-1.513-.446-2.073-1.534-7.167-2.009-9.69-.279-1.483-.432-2.282-.591-2.825-.28-.954-.792-1.473-1.519-1.556 0 0-.114-.016-.207-.016-.092 0-.218.018-.218.018-.72.086-1.229.605-1.507 1.554-.159.543-.312 1.342-.591 2.825-.475 2.523-1.563 7.617-2.009 9.69-.286 1.329-.962 1.513-1.649 1.513-.72 0-1.469-.472-2.263-.97-.186-.117-.808-.496-.808-.496-1.703-1.033-3.404-1.281-5.26-.541-.401.16-.79596.33918-1.17196.52018.257.806.57693 1.59925.94993 2.34425.411-.202.84203-.40243 1.28203-.53243.634-.187 1.284-.197 1.914.014.612.205 1.157.568 1.7.909 1.023.643 2.182 1.372 3.657 1.372 2.186 0 3.72-1.305 4.21-3.581.38-1.764 1.222-5.702 1.763-8.418 0 0 1.386 6.654 1.765 8.418.49 2.276 2.025 3.581 4.211 3.581 1.475 0 2.634-.729 3.657-1.372.543-.341 1.088-.704 1.7-.909.629-.211 1.28-.201 1.914-.014.44.13.87039.33065 1.28139.53265.374-.745.69309-1.53862.95009-2.34462-.376-.181-.77048-.36003-1.17148-.52003"/><path d="M23.25802 39.78956c-1.34103 1.35209-2.01292 3.28206-2.01292 5.78162 0 2.3143.5917 4.13644 1.7696 5.46364 1.18065 1.32166 2.80094 1.9825 4.86086 1.9825 1.66454 0 3.03045-.4894 4.09774-1.46821 1.06452-.97605 1.72812-2.24795 1.98803-3.81017h-2.96408c-.20185.73825-.45346 1.29402-.76038 1.66176-.55023.68849-1.34932 1.03135-2.40002 1.03135-1.02305 0-1.86914-.40093-2.53274-1.20001-.6636-.80185-.9954-2.00463-.9954-3.6111 0-1.60646.31521-2.85071.94287-3.72721.62765-.87927 1.48757-1.31891 2.57698-1.31891 1.06729 0 1.87467.31245 2.41937.93457.30415.34839.553.86821.74932 1.55393h2.99173c-.04424-.8931-.37604-1.78342-.98987-2.67375-1.1143-1.57882-2.87837-2.36961-5.28945-2.36961-1.80001 0-3.28481.58895-4.45164 1.7696zm4.36593-1.9355zm17.78448 11.31438c-.69678.8765-1.63965 1.31338-2.82583 1.31338-1.18619 0-2.13182-.43687-2.83689-1.31338-.70784-.87374-1.06176-2.11799-1.06176-3.73275 0-1.612.35392-2.85625 1.06176-3.73275.70507-.87374 1.6507-1.31338 2.83689-1.31338 1.18618 0 2.12905.43964 2.82583 1.31891.69401.8765 1.0424 2.12075 1.0424 3.72722 0 1.61476-.34839 2.85901-1.0424 3.73275zm1.86914 2.17882c1.4461-1.36867 2.16776-3.33735 2.16776-5.91157 0-2.62398-.72166-4.59543-2.16776-5.9088-1.08111-1.11706-2.6461-1.67283-4.69497-1.67283-2.0461 0-3.61109.55577-4.69497 1.67283-1.45163 1.31337-2.17606 3.28482-2.17606 5.9088 0 2.57422.72443 4.5429 2.17606 5.91157 1.08388 1.1143 2.64887 1.67006 4.69497 1.67006 2.04886 0 3.61385-.55576 4.69497-1.67006zm-4.69497-13.4932zm12.0554 2.92537h3.14933c.69125 0 1.26361.07466 1.70877.22397.51982.2129.77973.6553.77973 1.32167 0 .60277-.19631 1.02305-.58894 1.25807-.39263.23779-.90139.35668-1.53181.35668H54.638zm0 5.53277h3.56685c.62213.00553 1.10323.08571 1.44886.24055.61383.27927.92351.79079.92351 1.53734 0 .88204-.31797 1.47651-.95392 1.78896-.3484.16866-.8378.25161-1.46822.25161H54.638zm7.83325-6.49499c-.73273-.99263-1.97698-1.5014-3.73275-1.52628h-6.95951v14.32823h6.49222c.73272 0 1.41291-.0636 2.0378-.19355.6249-.12995 1.16683-.37051 1.62859-.7189.40922-.30415.74931-.68019 1.02028-1.12812.42858-.67466.64148-1.43503.64148-2.28389 0-.82397-.18525-1.52351-.55853-2.1014-.37327-.57512-.92627-.99816-1.659-1.2636.48111-.24609.84333-.51706 1.08941-.81568.4424-.53088.66084-1.23595.66084-2.1097 0-.84885-.21844-1.57881-.66084-2.18711zm12.79918 9.35123c-.69678.8765-1.63965 1.31338-2.82583 1.31338-1.18618 0-2.13181-.43687-2.83689-1.31338-.70784-.87374-1.06176-2.11799-1.06176-3.73275 0-1.612.35392-2.85624 1.06176-3.73275.70508-.87374 1.6507-1.31337 2.83689-1.31337 1.18619 0 2.12905.43963 2.82583 1.3189.69401.8765 1.0424 2.12076 1.0424 3.72722 0 1.61476-.34838 2.85901-1.0424 3.73275zm1.86914 2.17882c1.4461-1.36867 2.16776-3.33735 2.16776-5.91157 0-2.62398-.72166-4.59543-2.16776-5.9088-1.08111-1.11706-2.6461-1.67283-4.69497-1.67283-2.0461 0-3.61109.55577-4.69497 1.67283-1.45163 1.31337-2.17605 3.28482-2.17605 5.9088 0 2.57422.72442 4.5429 2.17605 5.91157 1.08388 1.1143 2.64887 1.67006 4.69497 1.67006 2.04887 0 3.61386-.55576 4.69497-1.67006zm-4.69497-13.4932zm9.14662.43687v14.32823h10.09225v-2.57421h-7.09775V38.29093zm19.08403 1.49863c-1.34379 1.35209-2.01292 3.28206-2.01292 5.78162 0 2.3143.58895 4.13644 1.7696 5.46364 1.17789 1.32167 2.79818 1.9825 4.86087 1.9825 1.66453 0 3.03044-.4894 4.09497-1.46821 1.06729-.97605 1.73088-2.24795 1.98803-3.81017h-2.96408c-.20185.73825-.45346 1.29402-.75761 1.66176-.55024.68849-1.35208 1.03135-2.40278 1.03135-1.02305 0-1.86638-.40093-2.52998-1.20001-.66636-.80185-.99816-2.00463-.99816-3.6111 0-1.60646.3152-2.85071.94286-3.72721.63042-.87927 1.48757-1.31891 2.57698-1.31891 1.07006 0 1.87467.31245 2.41938.93457.30415.34839.55576.86821.74931 1.55393h2.9945c-.04701-.8931-.37604-1.78342-.99264-2.67375-1.1143-1.57882-2.8756-2.36961-5.28668-2.36961-1.80278 0-3.28758.58895-4.45165 1.7696zm4.36317-1.9355zm15.01948 11.94757c-.4341.57512-1.05623.86544-1.86637.86544-.81015 0-1.43504-.29032-1.87191-.86544-.43687-.57789-.6553-1.39633-.6553-2.46085 0-1.06176.21843-1.8802.6553-2.45532.43687-.57236 1.06176-.85992 1.8719-.85992.81015 0 1.43228.28756 1.86638.85992.4341.57512.64978 1.39356.64978 2.45532 0 1.06452-.21567 1.88296-.64978 2.46085zm2.21477 1.52904c.89586-1.10323 1.34102-2.4332 1.34102-3.9899 0-1.52904-.44516-2.85347-1.34102-3.97606-.8931-1.11983-2.25071-1.68112-4.07285-1.68112-1.81937 0-3.17698.56129-4.07284 1.68112-.8931 1.12259-1.34103 2.44702-1.34103 3.97607 0 1.55669.44793 2.88666 1.34103 3.98989.89586 1.106 2.25347 1.659 4.07284 1.659 1.82214 0 3.17975-.553 4.07285-1.659zm-4.07285-9.58902zm15.95682.89033c-.69678-.57512-1.59264-.85991-2.68758-.85991-.87374 0-1.59817.2129-2.16776.64148-.31798.23779-.65531.63042-1.00923 1.17512v-1.54563h-2.67375v10.57612h2.75947v-5.73461c0-.6553.09124-1.19171.27373-1.61476.34839-.79632.99264-1.19448 1.93274-1.19448.7659 0 1.28296.27097 1.55669.81568.14931.29862.22397.72719.22397 1.28296v6.44521h2.83689v-7.1337c0-1.32996-.3484-2.28112-1.04517-2.85348zm-3.70787-.89033zm6.22125 2.35302h1.47651v6.52263c0 .66084.1576 1.15024.46728 1.46822.48112.4977 1.37421.72443 2.68206.68019l1.31337-.04977v-2.07099a4.49916 4.49916 0 0 1-.2765.01659c-.09401.00277-.18249.00553-.2682.00553-.56406 0-.9014-.0553-1.00923-.16313-.1106-.10507-.1659-.37604-.1659-.81015v-5.59912h1.71983v-1.97421h-1.71983v-2.95302h-2.74288v2.95302h-1.47651zm13.6038-2.31984c-.03594-.00276-.08018-.00276-.12995-.00276-.8295 0-1.50416.21567-2.02398.64977-.31521.25991-.68849.74379-1.11706 1.44886v-1.84702h-2.64334v10.59548h2.78988v-5.06271c0-.85162.10507-1.47928.32074-1.8885.38157-.72443 1.13089-1.08664 2.24518-1.08664.08295 0 .19355.00276.32904.00829.13825.0083.29309.01936.46728.03871v-2.83689c-.12166-.0083-.20184-.01106-.23779-.01659zm8.48026 8.0268c-.43411.57512-1.05623.86544-1.86638.86544-.80738 0-1.43227-.29032-1.86914-.86544-.43687-.57789-.65807-1.39633-.65807-2.46085 0-1.06176.2212-1.8802.65807-2.45532.43687-.57236 1.06176-.85992 1.86914-.85992.81015 0 1.43227.28756 1.86638.85992.43687.57512.65254 1.39356.65254 2.45532 0 1.06452-.21567 1.88296-.65254 2.46085zm2.21753 1.52904c.89309-1.10323 1.34102-2.4332 1.34102-3.9899 0-1.52904-.44793-2.85347-1.34102-3.97606-.8931-1.11983-2.25071-1.68112-4.07285-1.68112-1.82213 0-3.17975.56129-4.07284 1.68112-.8931 1.12259-1.34103 2.44702-1.34103 3.97607 0 1.55669.44793 2.88666 1.34103 3.98989.89309 1.106 2.2507 1.659 4.07284 1.659s3.17975-.553 4.07285-1.659zm-4.07285-9.58902zm10.22497 10.87751V38.29093h-2.77053v14.32823zm8.45814-14.30887v14.30887h2.97513v-6.00834h6.28762v-2.4885H178.557V40.8292h7.18347v-2.51891zm14.7651 14.30887V38.29093h-2.77054v14.32823zm9.32357-2.81753c-.4341.57512-1.05622.86544-1.86637.86544-.81014 0-1.43503-.29032-1.8719-.86544-.43687-.57789-.65531-1.39633-.65531-2.46085 0-1.06176.21843-1.8802.6553-2.45532.43687-.57236 1.06176-.85992 1.87191-.85992.81015 0 1.43227.28756 1.86638.85992.4341.57512.64977 1.39356.64977 2.45532 0 1.06452-.21567 1.88296-.64978 2.46085zm2.21477 1.52904c.89586-1.10323 1.34103-2.4332 1.34103-3.9899 0-1.52904-.44517-2.85347-1.34103-3.97606-.8931-1.11983-2.25071-1.68112-4.07285-1.68112-1.81936 0-3.17698.56129-4.07284 1.68112-.8931 1.12259-1.34102 2.44702-1.34102 3.97607 0 1.55669.44793 2.88666 1.34102 3.98989.89586 1.106 2.25348 1.659 4.07285 1.659 1.82213 0 3.17975-.553 4.07284-1.659zm-4.07285-9.58902zm12.3955.28203l-1.52628 7.60099-1.65347-7.60099h-2.97514l2.97514 10.59548h2.87837l1.68112-7.71711 1.66176 7.71711h2.84795l3.07192-10.59548h-2.88666l-1.65347 7.6314-1.612-7.6314z"/></svg>