<?xml version="1.0" encoding="UTF-8" standalone="no"?>
<svg
   role="img"
   viewBox="-4.53 -4.53 248.82 41.82"
   version="1.1"
   id="svg19"
   xmlns:xlink="http://www.w3.org/1999/xlink"
   xmlns="http://www.w3.org/2000/svg"
   xmlns:svg="http://www.w3.org/2000/svg">
  <defs
     id="defs23" />
  <title
     id="title2">Broadcom Corporation logo</title>
  <path
     d="M237.32 9.09c-1.06 0-1.93-.86-1.93-1.92s.87-1.93 1.93-1.93 1.93.87 1.93 1.93-.87 1.92-1.93 1.92m0-4.32c-1.32 0-2.4 1.08-2.4 2.4 0 1.32 1.08 2.4 2.4 2.4 1.32 0 2.4-1.08 2.4-2.4 0-1.32-1.08-2.4-2.4-2.4"
     id="path4" />
  <path
     d="M237.48 7.07l-.51.01-.01-.62h.51c.19-.01.34.11.34.3.01.19-.14.31-.33.31m.83-.32c-.01-.42-.3-.72-.77-.72l-1.07.02.03 2.26h.49l-.01-.81h.35l.46.8.55-.01-.52-.86c.24-.06.49-.28.49-.68M51.8341 23.1805h-5.999V9.3465h5.835c1.574 0 2.557 1.016 2.557 2.393 0 1.377-.983 2.36-2.557 2.36H45v4h6.8341c1.836 0 2.819 1.18 2.819 2.556 0 1.574-1.049 2.525-2.819 2.525m3.376-7.245c2.066-.426 3.771-2.262 3.771-5.015 0-2.918-2.131-5.573-6.295-5.573h-11.506v21.865h11.867c4.163 0 6.359-2.623 6.359-5.901 0-2.754-1.868-5.015-4.196-5.376m17.8225-.5902H68v4.098h3.5576l4.294 7.769h5.343l-4.917-8.327c2.361-.557 4.786-2.622 4.786-6.49m0 0c0-4.065-2.786-7.048-7.343-7.048h-10.228v21.865h4.655V9.4453h4.885c1.869 0 3.278 1.114 3.278 2.95s-1.409 2.95-3.278 2.95m43.4206 4.0652l3.409-9.408 3.41 9.408zm.492-14.063l-8.458 21.865h5.31l1.377-3.704h9.376l1.344 3.704h5.311l-8.425-21.865zm26.9039 17.7671h-3.967v-13.67h3.967c4.491 0 6.851 2.983 6.851 6.852 0 3.704-2.524 6.818-6.851 6.818m0-17.767h-8.622v21.865h8.622c6.851 0 11.604-4.327 11.604-10.916s-4.753-10.949-11.604-10.949m82.1269-.0045l-5.734 9.27-5.734-9.27h-5.146v21.869h4.656v-14.293l5.012 7.622c.574.871 1.851.871 2.424 0l5.013-7.622v14.293h4.656V5.3431z"
     id="path6" />
  <path
     id="a"
     d="M95.8253 23.3441c-3.871 0-7.008-3.138-7.008-7.008 0-3.871 3.137-7.009 7.008-7.009 3.87 0 7.008 3.138 7.008 7.009 0 3.87-3.138 7.008-7.008 7.008m0-18.536c-6.367 0-11.528 5.161-11.528 11.528 0 6.366 5.161 11.527 11.528 11.527 6.366 0 11.528-5.161 11.528-11.527 0-6.367-5.162-11.528-11.528-11.528" />
  <path
     d="M176.4035 19.7269c-1.195 2.156-3.492 3.617-6.132 3.617-3.87 0-7.008-3.138-7.008-7.008 0-3.871 3.138-7.008 7.008-7.008 2.618 0 4.897 1.438 6.1 3.565l3.27-3.269c-2.092-2.915-5.508-4.816-9.37-4.816-6.367 0-11.527 5.161-11.527 11.528 0 6.366 5.16 11.528 11.527 11.528 3.883 0 7.316-1.922 9.404-4.865z"
     id="path9" />
  <use
     transform="translate(98.718)"
     xlink:href="#a"
     id="use11" />
  <ellipse
     cx="16.52"
     cy="16.497"
     fill="#cc092f"
     rx="16.236"
     ry="16.235"
     id="ellipse13" />
  <path
     fill="#fff"
     d="M30.8253 20.8832c-1.857-.74-3.557-.492-5.261.541 0 0-.621.379-.807.496-.794.498-1.543.97-2.263.97-.687 0-1.363-.184-1.649-1.513-.446-2.073-1.534-7.167-2.009-9.69-.279-1.483-.432-2.282-.591-2.825-.28-.954-.792-1.473-1.519-1.556 0 0-.114-.016-.207-.016-.092 0-.218.018-.218.018-.72.086-1.229.605-1.507 1.554-.159.543-.312 1.342-.591 2.825-.475 2.523-1.563 7.617-2.009 9.69-.286 1.329-.962 1.513-1.649 1.513-.72 0-1.469-.472-2.263-.97-.186-.117-.808-.496-.808-.496-1.703-1.033-3.404-1.281-5.26-.541-.401.16-.79596.33918-1.17196.52018.257.806.57693 1.59925.94993 2.34425.411-.202.84203-.40243 1.28203-.53243.634-.187 1.284-.197 1.914.014.612.205 1.157.568 1.7.909 1.023.643 2.182 1.372 3.657 1.372 2.186 0 3.72-1.305 4.21-3.581.38-1.764 1.222-5.702 1.763-8.418 0 0 1.386 6.654 1.765 8.418.49 2.276 2.025 3.581 4.211 3.581 1.475 0 2.634-.729 3.657-1.372.543-.341 1.088-.704 1.7-.909.629-.211 1.28-.201 1.914-.014.44.13.87039.33065 1.28139.53265.374-.745.69309-1.53862.95009-2.34462-.376-.181-.77048-.36003-1.17148-.52003"
     id="path15" />
  <g
     aria-label="COBOL Language Support"
     id="text17"
     style="font-size:11px;text-anchor:middle">
    <path
       d="m 59.758148,49.419922 q -0.29541,0.128906 -0.537109,0.241699 -0.236328,0.112793 -0.623047,0.236328 Q 58.270355,50 57.883636,50.069824 q -0.381347,0.0752 -0.843261,0.0752 -0.870117,0 -1.584473,-0.2417 -0.708984,-0.24707 -1.235351,-0.768066 -0.515625,-0.510254 -0.805665,-1.294434 -0.290039,-0.78955 -0.290039,-1.831543 0,-0.988281 0.279297,-1.76709 0.279297,-0.778808 0.805664,-1.315917 0.510254,-0.520997 1.229981,-0.794922 0.725097,-0.273926 1.605957,-0.273926 0.644531,0 1.283691,0.155762 0.644532,0.155761 1.428711,0.547851 v 1.262207 h -0.08057 q -0.660645,-0.553222 -1.310547,-0.805664 -0.649902,-0.252441 -1.391113,-0.252441 -0.606934,0 -1.095703,0.19873 -0.483399,0.19336 -0.864747,0.606934 -0.370605,0.402832 -0.580078,1.020508 -0.204101,0.612304 -0.204101,1.417968 0,0.843262 0.225586,1.450196 0.230957,0.606933 0.59082,0.988281 0.375977,0.397461 0.875488,0.59082 0.504883,0.187988 1.063477,0.187988 0.768066,0 1.439453,-0.263183 0.671387,-0.263184 1.256836,-0.789551 h 0.0752 z"
       id="path25" />
    <path
       d="m 67.223969,42.920898 q 0.488769,0.53711 0.746582,1.315918 0.263183,0.778809 0.263183,1.76709 0,0.988281 -0.268555,1.772461 -0.263183,0.778809 -0.74121,1.299805 -0.494141,0.54248 -1.170899,0.816406 -0.671387,0.273926 -1.536133,0.273926 -0.843261,0 -1.536133,-0.279297 -0.6875,-0.279297 -1.170898,-0.811035 -0.483398,-0.531738 -0.746582,-1.305176 -0.257813,-0.773437 -0.257813,-1.76709 0,-0.977539 0.257813,-1.750976 0.257812,-0.778809 0.751953,-1.332032 0.472656,-0.526367 1.170899,-0.805664 0.703613,-0.279297 1.530761,-0.279297 0.859375,0 1.541504,0.284668 0.6875,0.279297 1.165528,0.800293 z m -0.09668,3.083008 q 0,-1.557617 -0.698242,-2.400879 -0.698243,-0.848632 -1.906739,-0.848632 -1.219238,0 -1.91748,0.848632 -0.692871,0.843262 -0.692871,2.400879 0,1.573731 0.708984,2.411621 0.708985,0.83252 1.901367,0.83252 1.192383,0 1.895996,-0.83252 0.708985,-0.83789 0.708985,-2.411621 z"
       id="path27" />
    <path
       d="m 75.951996,47.540039 q 0,0.596191 -0.225586,1.052734 -0.225586,0.456543 -0.606934,0.751954 -0.451172,0.354492 -0.993652,0.504882 Q 73.588715,50 72.756195,50 h -2.835937 v -7.997559 h 2.368652 q 0.875488,0 1.310547,0.06445 0.435058,0.06445 0.832519,0.268554 0.44043,0.230957 0.63916,0.596192 0.198731,0.359863 0.198731,0.864746 0,0.569336 -0.290039,0.972168 -0.290039,0.397461 -0.773438,0.63916 v 0.04297 q 0.811036,0.166503 1.278321,0.714355 0.467285,0.542481 0.467285,1.375 z m -1.788574,-3.604004 q 0,-0.290039 -0.09668,-0.488769 -0.09668,-0.198731 -0.311523,-0.322266 -0.252442,-0.14502 -0.612305,-0.177246 -0.359863,-0.0376 -0.891602,-0.0376 h -1.267578 v 2.309571 h 1.375 q 0.499512,0 0.794922,-0.04834 0.29541,-0.05371 0.547852,-0.214844 0.252441,-0.161133 0.354492,-0.413574 0.107422,-0.257813 0.107422,-0.606934 z m 0.682129,3.646973 q 0,-0.483399 -0.14502,-0.768067 -0.14502,-0.284668 -0.526367,-0.483398 -0.257813,-0.134277 -0.628418,-0.171875 -0.365235,-0.04297 -0.891602,-0.04297 h -1.67041 v 2.975586 h 1.407227 q 0.698242,0 1.144043,-0.06982 0.4458,-0.0752 0.730468,-0.268555 0.300782,-0.209472 0.44043,-0.478027 0.139649,-0.268555 0.139649,-0.692871 z"
       id="path29" />
    <path
       d="m 83.423187,42.920898 q 0.48877,0.53711 0.746582,1.315918 0.263184,0.778809 0.263184,1.76709 0,0.988281 -0.268555,1.772461 -0.263183,0.778809 -0.741211,1.299805 -0.49414,0.54248 -1.170898,0.816406 -0.671387,0.273926 -1.536133,0.273926 -0.843262,0 -1.536133,-0.279297 -0.6875,-0.279297 -1.170898,-0.811035 -0.483399,-0.531738 -0.746582,-1.305176 -0.257813,-0.773437 -0.257813,-1.76709 0,-0.977539 0.257813,-1.750976 0.257812,-0.778809 0.751953,-1.332032 0.472656,-0.526367 1.170898,-0.805664 0.703614,-0.279297 1.530762,-0.279297 0.859375,0 1.541504,0.284668 0.6875,0.279297 1.165527,0.800293 z m -0.09668,3.083008 q 0,-1.557617 -0.698243,-2.400879 -0.698242,-0.848632 -1.906738,-0.848632 -1.219238,0 -1.91748,0.848632 -0.692871,0.843262 -0.692871,2.400879 0,1.573731 0.708984,2.411621 0.708984,0.83252 1.901367,0.83252 1.192383,0 1.895996,-0.83252 0.708985,-0.83789 0.708985,-2.411621 z"
       id="path31" />
    <path
       d="m 91.179047,50 h -5.059571 v -7.997559 h 1.063477 v 7.052246 h 3.996094 z"
       id="path33" />
    <path
       d="m 101.16928,50 h -5.059569 v -7.997559 h 1.063476 v 7.052246 h 3.996093 z"
       id="path35" />
    <path
       d="m 106.8143,50 h -1.00439 v -0.63916 q -0.13428,0.09131 -0.36524,0.257812 -0.22558,0.161133 -0.44043,0.257813 -0.25244,0.123535 -0.58008,0.204101 -0.32763,0.08594 -0.76806,0.08594 -0.81104,0 -1.375,-0.537109 -0.56397,-0.53711 -0.56397,-1.369629 0,-0.682129 0.29004,-1.101075 0.29541,-0.424316 0.83789,-0.666015 0.54785,-0.241699 1.31592,-0.327637 0.76807,-0.08594 1.64893,-0.128906 v -0.155762 q 0,-0.34375 -0.12354,-0.569336 -0.11816,-0.225586 -0.34375,-0.354492 -0.21484,-0.123535 -0.51562,-0.166504 -0.30079,-0.04297 -0.62842,-0.04297 -0.39746,0 -0.88623,0.107422 -0.48877,0.102051 -1.00977,0.300781 h -0.0537 v -1.025878 q 0.29541,-0.08057 0.854,-0.177247 0.5586,-0.09668 1.10108,-0.09668 0.63379,0 1.10107,0.107422 0.47266,0.10205 0.81641,0.354492 0.33838,0.24707 0.51562,0.63916 0.17725,0.39209 0.17725,0.972168 z m -1.00439,-1.477051 v -1.67041 q -0.46192,0.02686 -1.09034,0.08057 -0.62304,0.05371 -0.98828,0.155762 -0.43506,0.123535 -0.70361,0.386719 -0.26856,0.257812 -0.26856,0.714355 0,0.515625 0.31153,0.778809 0.31152,0.257812 0.95068,0.257812 0.53174,0 0.97217,-0.204101 0.44043,-0.209473 0.81641,-0.499512 z"
       id="path37" />
    <path
       d="m 113.77524,50 h -1.00977 v -3.416016 q 0,-0.413574 -0.0483,-0.773437 -0.0483,-0.365235 -0.17724,-0.569336 -0.13428,-0.225586 -0.38672,-0.333008 -0.25244,-0.112793 -0.65528,-0.112793 -0.41357,0 -0.86474,0.204102 -0.45117,0.204101 -0.86475,0.520996 V 50 h -1.00976 v -5.999512 h 1.00976 v 0.666016 q 0.47266,-0.39209 0.97754,-0.612305 0.50488,-0.220215 1.03662,-0.220215 0.97217,0 1.48242,0.58545 0.51026,0.585449 0.51026,1.686523 z"
       id="path39" />
    <path
       d="m 120.58578,49.317871 q 0,1.525391 -0.69287,2.239746 -0.69287,0.714356 -2.13232,0.714356 -0.47803,0 -0.93457,-0.06983 -0.45117,-0.06445 -0.8916,-0.187988 v -1.03125 h 0.0537 q 0.24707,0.09668 0.78418,0.236328 0.53711,0.14502 1.07422,0.14502 0.51562,0 0.854,-0.123535 0.33838,-0.123536 0.52637,-0.34375 0.18799,-0.209473 0.26855,-0.504883 0.0806,-0.29541 0.0806,-0.660645 v -0.547851 q -0.45654,0.365234 -0.87549,0.547851 -0.41357,0.177246 -1.0581,0.177246 -1.07422,0 -1.70801,-0.773437 -0.62842,-0.778809 -0.62842,-2.191406 0,-0.773438 0.21484,-1.332032 0.22022,-0.563964 0.59619,-0.972168 0.34913,-0.381347 0.84864,-0.59082 0.49951,-0.214844 0.99365,-0.214844 0.521,0 0.87012,0.107422 0.35449,0.102051 0.74658,0.316895 l 0.0644,-0.257813 h 0.94531 z m -1.00976,-0.966797 v -3.270996 q -0.40283,-0.182617 -0.75195,-0.257812 -0.34375,-0.08057 -0.6875,-0.08057 -0.83252,0 -1.31055,0.558594 -0.47803,0.558594 -0.47803,1.62207 0,1.009766 0.35449,1.530762 0.3545,0.520996 1.17627,0.520996 0.44043,0 0.88086,-0.166504 0.4458,-0.171875 0.81641,-0.456543 z"
       id="path41" />
    <path
       d="m 127.54672,50 h -1.00976 v -0.666016 q -0.51026,0.402832 -0.97754,0.617676 -0.46729,0.214844 -1.03125,0.214844 -0.94531,0 -1.47168,-0.574707 -0.52637,-0.580078 -0.52637,-1.697266 v -3.894043 h 1.00977 v 3.416016 q 0,0.456543 0.043,0.78418 0.043,0.322265 0.18261,0.553222 0.14502,0.236328 0.37598,0.34375 0.23096,0.107422 0.67139,0.107422 0.39209,0 0.854,-0.204101 0.46728,-0.204102 0.87012,-0.520997 v -4.479492 h 1.00976 z"
       id="path43" />
    <path
       d="m 134.19614,50 h -1.0044 v -0.63916 q -0.13428,0.09131 -0.36523,0.257812 -0.22559,0.161133 -0.44043,0.257813 Q 132.13364,50 131.806,50.080566 q -0.32764,0.08594 -0.76807,0.08594 -0.81103,0 -1.375,-0.537109 -0.56396,-0.53711 -0.56396,-1.369629 0,-0.682129 0.29004,-1.101075 0.29541,-0.424316 0.83789,-0.666015 0.54785,-0.241699 1.31592,-0.327637 0.76806,-0.08594 1.64892,-0.128906 v -0.155762 q 0,-0.34375 -0.12353,-0.569336 -0.11817,-0.225586 -0.34375,-0.354492 -0.21485,-0.123535 -0.51563,-0.166504 -0.30078,-0.04297 -0.62842,-0.04297 -0.39746,0 -0.88623,0.107422 -0.48877,0.102051 -1.00976,0.300781 h -0.0537 v -1.025878 q 0.29541,-0.08057 0.854,-0.177247 0.55859,-0.09668 1.10107,-0.09668 0.63379,0 1.10108,0.107422 0.47266,0.10205 0.81641,0.354492 0.33837,0.24707 0.51562,0.63916 0.17725,0.39209 0.17725,0.972168 z m -1.0044,-1.477051 v -1.67041 q -0.46191,0.02686 -1.09033,0.08057 -0.62305,0.05371 -0.98828,0.155762 -0.43506,0.123535 -0.70361,0.386719 -0.26856,0.257812 -0.26856,0.714355 0,0.515625 0.31152,0.778809 0.31153,0.257812 0.95069,0.257812 0.53174,0 0.97217,-0.204101 0.44043,-0.209473 0.8164,-0.499512 z"
       id="path45" />
    <path
       d="m 141.00668,49.317871 q 0,1.525391 -0.69287,2.239746 -0.69287,0.714356 -2.13232,0.714356 -0.47803,0 -0.93457,-0.06983 -0.45117,-0.06445 -0.8916,-0.187988 v -1.03125 h 0.0537 q 0.24707,0.09668 0.78418,0.236328 0.53711,0.14502 1.07422,0.14502 0.51562,0 0.854,-0.123535 0.33838,-0.123536 0.52637,-0.34375 0.18798,-0.209473 0.26855,-0.504883 0.0806,-0.29541 0.0806,-0.660645 v -0.547851 q -0.45655,0.365234 -0.87549,0.547851 -0.41357,0.177246 -1.05811,0.177246 -1.07421,0 -1.708,-0.773437 -0.62842,-0.778809 -0.62842,-2.191406 0,-0.773438 0.21484,-1.332032 0.22022,-0.563964 0.59619,-0.972168 0.34912,-0.381347 0.84864,-0.59082 0.49951,-0.214844 0.99365,-0.214844 0.52099,0 0.87012,0.107422 0.35449,0.102051 0.74658,0.316895 l 0.0645,-0.257813 h 0.94531 z m -1.00976,-0.966797 v -3.270996 q -0.40283,-0.182617 -0.75196,-0.257812 -0.34375,-0.08057 -0.6875,-0.08057 -0.83251,0 -1.31054,0.558594 -0.47803,0.558594 -0.47803,1.62207 0,1.009766 0.35449,1.530762 0.35449,0.520996 1.17627,0.520996 0.44043,0 0.88086,-0.166504 0.4458,-0.171875 0.81641,-0.456543 z"
       id="path47" />
    <path
       d="m 148.01596,47.10498 h -4.42041 q 0,0.553223 0.1665,0.966797 0.16651,0.408203 0.45655,0.671387 0.27929,0.257813 0.66064,0.386719 0.38672,0.128906 0.84863,0.128906 0.61231,0 1.22999,-0.241699 0.62304,-0.24707 0.88623,-0.483399 h 0.0537 v 1.101075 q -0.51026,0.214843 -1.042,0.359863 -0.53173,0.145019 -1.11718,0.145019 -1.49317,0 -2.33106,-0.805664 -0.83789,-0.811035 -0.83789,-2.298828 0,-1.471679 0.80029,-2.336426 0.80567,-0.864746 2.11622,-0.864746 1.21386,0 1.86914,0.708985 0.66064,0.708984 0.66064,2.01416 z m -0.98291,-0.773437 q -0.005,-0.794922 -0.40283,-1.229981 -0.39209,-0.435058 -1.19776,-0.435058 -0.81103,0 -1.29443,0.478027 -0.47803,0.478028 -0.54248,1.187012 z"
       id="path49" />
    <path
       d="m 159.306,47.717285 q 0,0.467285 -0.22022,0.923828 -0.21484,0.456543 -0.60693,0.773438 -0.42969,0.34375 -1.00439,0.537109 -0.56934,0.19336 -1.375,0.19336 -0.86475,0 -1.55762,-0.161133 -0.6875,-0.161133 -1.40186,-0.478028 v -1.332031 h 0.0752 q 0.60693,0.504883 1.40185,0.778809 0.79493,0.273925 1.49317,0.273925 0.98828,0 1.53613,-0.370605 0.55322,-0.370605 0.55322,-0.988281 0,-0.531739 -0.26318,-0.78418 -0.25781,-0.252441 -0.78955,-0.39209 -0.40283,-0.107422 -0.87549,-0.177246 -0.46728,-0.06982 -0.99365,-0.177246 -1.06348,-0.225586 -1.5791,-0.768066 -0.51026,-0.547852 -0.51026,-1.42334 0,-1.004395 0.84864,-1.643555 0.84863,-0.644531 2.15381,-0.644531 0.84326,0 1.54687,0.161133 0.70361,0.161132 1.24609,0.397461 v 1.256836 h -0.0752 q -0.45654,-0.386719 -1.20313,-0.639161 -0.74121,-0.257812 -1.52002,-0.257812 -0.854,0 -1.375,0.354492 -0.51562,0.354492 -0.51562,0.913086 0,0.499512 0.25781,0.78418 0.25781,0.284668 0.90772,0.435058 0.34375,0.0752 0.97754,0.182617 0.63378,0.107422 1.07421,0.220215 0.89161,0.236328 1.34278,0.714356 0.45117,0.478027 0.45117,1.337402 z"
       id="path51" />
    <path
       d="m 165.90707,50 h -1.00976 v -0.666016 q -0.51026,0.402832 -0.97754,0.617676 -0.46729,0.214844 -1.03125,0.214844 -0.94531,0 -1.47168,-0.574707 -0.52637,-0.580078 -0.52637,-1.697266 v -3.894043 h 1.00977 v 3.416016 q 0,0.456543 0.043,0.78418 0.043,0.322265 0.18261,0.553222 0.14502,0.236328 0.37598,0.34375 0.23096,0.107422 0.67139,0.107422 0.39209,0 0.854,-0.204101 0.46729,-0.204102 0.87012,-0.520997 v -4.479492 h 1.00976 z"
       id="path53" />
    <path
       d="m 173.17416,46.927734 q 0,0.730469 -0.20947,1.337403 -0.20947,0.601562 -0.59082,1.020508 -0.35449,0.39746 -0.83789,0.617675 -0.47803,0.214844 -1.01514,0.214844 -0.46728,0 -0.84863,-0.102051 -0.37598,-0.102051 -0.76807,-0.316894 v 2.513672 h -1.00976 v -8.212403 h 1.00976 v 0.628418 q 0.40284,-0.338379 0.90235,-0.563965 0.50488,-0.230957 1.07422,-0.230957 1.08496,0 1.68652,0.821778 0.60693,0.816406 0.60693,2.271972 z m -1.04199,0.02686 q 0,-1.084961 -0.3706,-1.62207 -0.37061,-0.53711 -1.13868,-0.53711 -0.43505,0 -0.87548,0.187988 -0.44043,0.187989 -0.84327,0.494141 v 3.399902 q 0.42969,0.19336 0.73584,0.263184 0.31153,0.06982 0.70362,0.06982 0.84326,0 1.31592,-0.569336 0.47265,-0.569336 0.47265,-1.686523 z"
       id="path55" />
    <path
       d="m 180.02768,46.927734 q 0,0.730469 -0.20947,1.337403 -0.20948,0.601562 -0.59082,1.020508 -0.3545,0.39746 -0.83789,0.617675 -0.47803,0.214844 -1.01514,0.214844 -0.46729,0 -0.84863,-0.102051 -0.37598,-0.102051 -0.76807,-0.316894 v 2.513672 h -1.00977 v -8.212403 h 1.00977 v 0.628418 q 0.40283,-0.338379 0.90234,-0.563965 0.50489,-0.230957 1.07422,-0.230957 1.08496,0 1.68653,0.821778 0.60693,0.816406 0.60693,2.271972 z m -1.04199,0.02686 q 0,-1.084961 -0.37061,-1.62207 -0.3706,-0.53711 -1.13867,-0.53711 -0.43506,0 -0.87549,0.187988 -0.44043,0.187989 -0.84326,0.494141 v 3.399902 q 0.42969,0.19336 0.73584,0.263184 0.31152,0.06982 0.70361,0.06982 0.84326,0 1.31592,-0.569336 0.47266,-0.569336 0.47266,-1.686523 z"
       id="path57" />
    <path
       d="m 186.71469,47.00293 q 0,1.466308 -0.75195,2.314941 -0.75196,0.848633 -2.01416,0.848633 -1.27295,0 -2.0249,-0.848633 -0.74659,-0.848633 -0.74659,-2.314941 0,-1.466309 0.74659,-2.314942 0.75195,-0.854004 2.0249,-0.854004 1.2622,0 2.01416,0.854004 0.75195,0.848633 0.75195,2.314942 z m -1.04199,0 q 0,-1.165528 -0.45654,-1.729493 -0.45655,-0.569335 -1.26758,-0.569335 -0.82178,0 -1.27832,0.569335 -0.45117,0.563965 -0.45117,1.729493 0,1.127929 0.45654,1.713379 0.45654,0.580078 1.27295,0.580078 0.80566,0 1.2622,-0.574707 0.46192,-0.580078 0.46192,-1.71875 z"
       id="path59" />
    <path
       d="m 192.02133,45.101562 h -0.0537 q -0.22559,-0.05371 -0.44043,-0.0752 -0.20947,-0.02685 -0.49951,-0.02685 -0.46729,0 -0.90234,0.209472 -0.43506,0.204102 -0.83789,0.531739 V 50 h -1.00977 v -5.999512 h 1.00977 v 0.886231 q 0.60156,-0.483399 1.0581,-0.682129 0.46191,-0.204102 0.93994,-0.204102 0.26319,0 0.38135,0.01611 0.11816,0.01074 0.35449,0.04834 z"
       id="path61" />
    <path
       d="m 196.08725,49.946289 q -0.28467,0.0752 -0.62305,0.123535 -0.333,0.04834 -0.59619,0.04834 -0.91846,0 -1.39648,-0.494141 -0.47803,-0.49414 -0.47803,-1.584472 v -3.19043 h -0.68213 v -0.848633 h 0.68213 v -1.724121 h 1.00977 v 1.724121 h 2.08398 v 0.848633 h -2.08398 v 2.733887 q 0,0.472656 0.0215,0.741211 0.0215,0.263183 0.15039,0.49414 0.11816,0.214844 0.32227,0.316895 0.20947,0.09668 0.63379,0.09668 0.24707,0 0.51562,-0.06983 0.26855,-0.0752 0.38672,-0.123535 h 0.0537 z"
       id="path63" />
  </g>
</svg>
