<svg xmlns="http://www.w3.org/2000/svg" role="img" xmlns:xlink="http://www.w3.org/1999/xlink" viewBox="-4.53 -4.53 248.82 92.82"><title>code4z</title><path d="M237.32 9.09c-1.06 0-1.93-.86-1.93-1.92s.87-1.93 1.93-1.93 1.93.87 1.93 1.93-.87 1.92-1.93 1.92m0-4.32c-1.32 0-2.4 1.08-2.4 2.4 0 1.32 1.08 2.4 2.4 2.4 1.32 0 2.4-1.08 2.4-2.4 0-1.32-1.08-2.4-2.4-2.4"/><path d="M237.48 7.07l-.51.01-.01-.62h.51c.19-.01.34.11.34.3.01.19-.14.31-.33.31m.83-.32c-.01-.42-.3-.72-.77-.72l-1.07.02.03 2.26h.49l-.01-.81h.35l.46.8.55-.01-.52-.86c.24-.06.49-.28.49-.68M51.8341 23.1805h-5.999V9.3465h5.835c1.574 0 2.557 1.016 2.557 2.393 0 1.377-.983 2.36-2.557 2.36H45v4h6.8341c1.836 0 2.819 1.18 2.819 2.556 0 1.574-1.049 2.525-2.819 2.525m3.376-7.245c2.066-.426 3.771-2.262 3.771-5.015 0-2.918-2.131-5.573-6.295-5.573h-11.506v21.865h11.867c4.163 0 6.359-2.623 6.359-5.901 0-2.754-1.868-5.015-4.196-5.376m17.8225-.5902H68v4.098h3.5576l4.294 7.769h5.343l-4.917-8.327c2.361-.557 4.786-2.622 4.786-6.49m0 0c0-4.065-2.786-7.048-7.343-7.048h-10.228v21.865h4.655V9.4453h4.885c1.869 0 3.278 1.114 3.278 2.95s-1.409 2.95-3.278 2.95m43.4206 4.0652l3.409-9.408 3.41 9.408zm.492-14.063l-8.458 21.865h5.31l1.377-3.704h9.376l1.344 3.704h5.311l-8.425-21.865zm26.9039 17.7671h-3.967v-13.67h3.967c4.491 0 6.851 2.983 6.851 6.852 0 3.704-2.524 6.818-6.851 6.818m0-17.767h-8.622v21.865h8.622c6.851 0 11.604-4.327 11.604-10.916s-4.753-10.949-11.604-10.949m82.1269-.0045l-5.734 9.27-5.734-9.27h-5.146v21.869h4.656v-14.293l5.012 7.622c.574.871 1.851.871 2.424 0l5.013-7.622v14.293h4.656V5.3431z"/><path id="a" d="M95.8253 23.3441c-3.871 0-7.008-3.138-7.008-7.008 0-3.871 3.137-7.009 7.008-7.009 3.87 0 7.008 3.138 7.008 7.009 0 3.87-3.138 7.008-7.008 7.008m0-18.536c-6.367 0-11.528 5.161-11.528 11.528 0 6.366 5.161 11.527 11.528 11.527 6.366 0 11.528-5.161 11.528-11.527 0-6.367-5.162-11.528-11.528-11.528"/><path d="M176.4035 19.7269c-1.195 2.156-3.492 3.617-6.132 3.617-3.87 0-7.008-3.138-7.008-7.008 0-3.871 3.138-7.008 7.008-7.008 2.618 0 4.897 1.438 6.1 3.565l3.27-3.269c-2.092-2.915-5.508-4.816-9.37-4.816-6.367 0-11.527 5.161-11.527 11.528 0 6.366 5.16 11.528 11.527 11.528 3.883 0 7.316-1.922 9.404-4.865z"/><use transform="translate(98.718)" xlink:href="#a"/><ellipse cx="16.52" cy="16.497" fill="#cc092f" rx="16.236" ry="16.235"/><path fill="#fff" d="M30.8253 20.8832c-1.857-.74-3.557-.492-5.261.541 0 0-.621.379-.807.496-.794.498-1.543.97-2.263.97-.687 0-1.363-.184-1.649-1.513-.446-2.073-1.534-7.167-2.009-9.69-.279-1.483-.432-2.282-.591-2.825-.28-.954-.792-1.473-1.519-1.556 0 0-.114-.016-.207-.016-.092 0-.218.018-.218.018-.72.086-1.229.605-1.507 1.554-.159.543-.312 1.342-.591 2.825-.475 2.523-1.563 7.617-2.009 9.69-.286 1.329-.962 1.513-1.649 1.513-.72 0-1.469-.472-2.263-.97-.186-.117-.808-.496-.808-.496-1.703-1.033-3.404-1.281-5.26-.541-.401.16-.79596.33918-1.17196.52018.257.806.57693 1.59925.94993 2.34425.411-.202.84203-.40243 1.28203-.53243.634-.187 1.284-.197 1.914.014.612.205 1.157.568 1.7.909 1.023.643 2.182 1.372 3.657 1.372 2.186 0 3.72-1.305 4.21-3.581.38-1.764 1.222-5.702 1.763-8.418 0 0 1.386 6.654 1.765 8.418.49 2.276 2.025 3.581 4.211 3.581 1.475 0 2.634-.729 3.657-1.372.543-.341 1.088-.704 1.7-.909.629-.211 1.28-.201 1.914-.014.44.13.87039.33065 1.28139.53265.374-.745.69309-1.53862.95009-2.34462-.376-.181-.77048-.36003-1.17148-.52003"/><path d="M42.82718 62.46448h8.37519c-.45668-4.45263-1.93274-7.55968-4.42817-9.32116-2.49543-1.75333-5.70034-2.63407-9.6229-2.63407-4.60757 0-8.22024 1.49237-10.838 4.46894-2.61775 2.98474-3.92255 7.1601-3.92255 12.52608 0 4.76252 1.18248 8.63615 3.55558 11.61272 2.36495 2.98473 6.06732 4.4771 11.0908 4.4771s8.82371-1.78594 11.38438-5.36599c1.60654-2.21816 2.50359-4.5668 2.69115-7.05408H42.7701c-.17126 1.64732-.66056 2.98474-1.45975 4.02042-.80734 1.02753-2.16107 1.54945-4.06934 1.54945-2.69931 0-4.53418-1.3048-5.50463-3.90624-.53823-1.39451-.80734-3.23754-.80734-5.5291 0-2.40572.26911-4.33845.80734-5.79004 1.01122-2.73193 2.89503-4.10197 5.64326-4.10197 1.93274 0 3.35986.62794 4.27322 1.89196.62794.93783 1.02753 1.98982 1.17432 3.15599zm-5.52909-12.04493zm39.04614 23.77182c-1.28033 1.69624-3.11521 2.55252-5.50462 2.55252-2.38942 0-4.23245-.85628-5.52094-2.55252-1.28849-1.70439-1.93273-4.11827-1.93273-7.25795 0-3.13152.64424-5.5454 1.93273-7.24164 1.28849-1.68808 3.13152-2.5362 5.52093-2.5362 2.38942 0 4.2243.84812 5.50463 2.5362 1.28034 1.69624 1.92458 4.11012 1.92458 7.24164 0 3.13968-.64424 5.55356-1.92458 7.25796zm6.54031 4.50972c2.63406-3.25385 3.95517-7.1764 3.95517-11.76766 0-4.50972-1.3211-8.41597-3.95517-11.7269-2.64222-3.30277-6.64633-4.95824-12.01232-4.95824-5.37414 0-9.37824 1.65547-12.02046 4.95824-2.63407 3.31093-3.95518 7.21718-3.95518 11.7269 0 4.59126 1.32111 8.51381 3.95517 11.76766 2.64222 3.262 6.64633 4.893 12.02047 4.893 5.366 0 9.3701-1.631 12.01232-4.893zM70.87222 50.41955zm38.38559 1.33742c-1.47606-.83181-3.15599-1.24772-5.04795-1.24772-4.11012 0-7.38843 1.52499-9.84308 4.58311-2.46281 3.05813-3.68606 7.25795-3.68606 12.59132 0 4.62389 1.24772 8.40781 3.74315 11.36807 2.48727 2.95211 5.5617 4.42817 9.21514 4.42817 2.21816 0 4.06935-.42406 5.56171-1.26403 1.49237-.83996 2.82163-2.18554 3.9878-4.04488v4.33031h7.93481V40.29919h-8.28548v14.90734c-.91336-1.4679-2.11214-2.61775-3.58004-3.44956zm2.00613 22.26315c-1.20694 1.71255-2.96027 2.57698-5.27628 2.57698-2.30787 0-4.03673-.86443-5.17028-2.59329-1.1417-1.72886-1.71255-4.03673-1.71255-6.9236 0-2.67483.5627-4.91746 1.67993-6.72787 1.11724-1.80226 2.87056-2.70746 5.25998-2.70746 1.56576 0 2.94395.49745 4.12643 1.49236 1.93273 1.63916 2.90318 4.37924 2.90318 8.19578 0 2.74008-.60347 4.9664-1.81041 6.6871zm25.21526-15.08675c1.04384-1.18248 2.51174-1.77779 4.4037-1.77779 1.73701 0 3.19676.5627 4.37108 1.67993 1.17432 1.11723 1.82672 2.75639 1.96535 4.91746h-12.70549c.26912-2.03059.92152-3.62897 1.96536-4.8196zm11.42515-7.05408c-2.07952-.97044-4.42816-1.45974-7.02145-1.45974-4.37924 0-7.94297 1.44343-10.68305 4.3303s-4.11012 7.03777-4.11012 12.44453c0 5.77374 1.51683 9.94095 4.55865 12.50162 3.03366 2.56067 6.5403 3.841 10.51995 3.841 4.81145 0 8.56275-1.52498 11.23759-4.55864 1.7207-1.91642 2.68299-3.80023 2.89502-5.65142h-8.34256c-.44037.92152-.94598 1.63916-1.51683 2.15293-1.052.95413-2.42204 1.43527-4.10197 1.43527-1.59022 0-2.94395-.39144-4.06934-1.18247-1.85934-1.25587-2.83794-3.45772-2.95211-6.58924h21.3824c.04078-2.6993-.04892-4.76252-.2528-6.1978-.36697-2.4465-1.15801-4.59127-2.38126-6.4506-1.36188-2.09584-3.08259-3.63714-5.16211-4.61574zm-6.4506-1.45974zm46.6466 23.13573v-6.39351h-4.70543V41.18809h-9.17438l-15.27432 25.23157v7.13563h16.4568v8.94603h7.9919v-8.94604zm-12.69733-6.39351h-10.41394l10.41394-17.941zm16.68513-9.25593h14.9318l-16.02457 18.23458v6.3609h26.97674v-6.71156H201.5724l15.85332-17.74528v-6.79312h-25.33758zm12.67287-7.48629z"/></svg>