<?xml version="1.0" encoding="UTF-8" standalone="no"?>
<svg
   role="img"
   viewBox="-4.53 -4.53 239.436 49.889367"
   version="1.1"
   id="svg4"
   width="239.436"
   height="49.889366"
   xmlns:xlink="http://www.w3.org/1999/xlink"
   xmlns="http://www.w3.org/2000/svg"
   xmlns:svg="http://www.w3.org/2000/svg">
  <defs
     id="defs4" />
  <title
     id="title1">Broadcom Corporation logo</title>
  <path
     d="m 232.506,4.2980009 c -1.06,0 -1.93,-0.86 -1.93,-1.92 0,-1.06 0.87,-1.93000003 1.93,-1.93000003 1.06,0 1.93,0.87000003 1.93,1.93000003 0,1.06 -0.87,1.92 -1.93,1.92 m 0,-4.32000003 c -1.32,0 -2.4,1.08000003 -2.4,2.40000003 0,1.32 1.08,2.4 2.4,2.4 1.32,0 2.4,-1.08 2.4,-2.4 0,-1.32 -1.08,-2.40000003 -2.4,-2.40000003"
     id="path1" />
  <path
     d="m 232.666,2.2780009 -0.51,0.01 -0.01,-0.62 h 0.51 c 0.19,-0.01 0.34,0.11 0.34,0.3 0.01,0.19 -0.14,0.31 -0.33,0.31 m 0.83,-0.32 c -0.01,-0.42 -0.3,-0.72 -0.77,-0.72 l -1.07,0.02 0.03,2.26 h 0.49 l -0.01,-0.81 h 0.35 l 0.46,0.8 0.55,-0.01 -0.52,-0.86 c 0.24,-0.06 0.49,-0.28 0.49,-0.68 M 47.0201,18.388501 h -5.999 V 4.5545009 h 5.835 c 1.574,0 2.557,1.016 2.557,2.393 0,1.377 -0.983,2.36 -2.557,2.36 H 40.186 v 4.0000001 h 6.8341 c 1.836,0 2.819,1.18 2.819,2.556 0,1.574 -1.049,2.525 -2.819,2.525 m 3.376,-7.245 c 2.066,-0.426 3.771,-2.2620001 3.771,-5.0150001 0,-2.918 -2.131,-5.57300003 -6.295,-5.57300003 H 36.3661 V 22.420501 h 11.867 c 4.163,0 6.359,-2.623 6.359,-5.901 0,-2.754 -1.868,-5.015 -4.196,-5.376 m 17.8225,-0.5902 H 63.186 v 4.098 h 3.5576 l 4.294,7.769 h 5.343 l -4.917,-8.327 c 2.361,-0.557 4.786,-2.622 4.786,-6.4900001 m 0,0 c 0,-4.065 -2.786,-7.04800003 -7.343,-7.04800003 H 58.6786 V 22.420301 h 4.655 V 4.6533009 h 4.885 c 1.869,0 3.278,1.114 3.278,2.95 0,1.836 -1.409,2.9500001 -3.278,2.9500001 m 43.4206,4.0652 3.409,-9.4080001 3.41,9.4080001 z m 0.492,-14.06300013 -8.458,21.86500013 h 5.31 l 1.377,-3.704 h 9.376 l 1.344,3.704 h 5.311 L 117.9662,0.55550087 Z M 139.0351,18.322601 h -3.967 V 4.6526009 h 3.967 c 4.491,0 6.851,2.983 6.851,6.8520001 0,3.704 -2.524,6.818 -6.851,6.818 m 0,-17.76700013 h -8.622 V 22.420601 h 8.622 c 6.851,0 11.604,-4.327 11.604,-10.916 0,-6.5890001 -4.753,-10.94900013 -11.604,-10.94900013 m 82.1269,-0.0045 -5.734,9.27000003 -5.734,-9.27000003 h -5.146 V 22.420101 h 4.656 V 8.1271009 l 5.012,7.6220001 c 0.574,0.871 1.851,0.871 2.424,0 l 5.013,-7.6220001 V 22.420101 h 4.656 V 0.55110087 Z"
     id="path2" />
  <path
     id="a"
     d="m 91.0113,18.552101 c -3.871,0 -7.008,-3.138 -7.008,-7.008 0,-3.8710001 3.137,-7.0090001 7.008,-7.0090001 3.87,0 7.008,3.138 7.008,7.0090001 0,3.87 -3.138,7.008 -7.008,7.008 m 0,-18.53600013 c -6.367,0 -11.528,5.16100003 -11.528,11.52800013 0,6.366 5.161,11.527 11.528,11.527 6.366,0 11.528,-5.161 11.528,-11.527 0,-6.3670001 -5.162,-11.52800013 -11.528,-11.52800013" />
  <path
     d="m 171.5895,14.934901 c -1.195,2.156 -3.492,3.617 -6.132,3.617 -3.87,0 -7.008,-3.138 -7.008,-7.008 0,-3.8710001 3.138,-7.0080001 7.008,-7.0080001 2.618,0 4.897,1.438 6.1,3.565 l 3.27,-3.269 c -2.092,-2.915 -5.508,-4.81600003 -9.37,-4.81600003 -6.367,0 -11.527,5.16100003 -11.527,11.52800013 0,6.366 5.16,11.528 11.527,11.528 3.883,0 7.316,-1.922 9.404,-4.865 z"
     id="path3" />
  <use
     transform="translate(98.718)"
     xlink:href="#a"
     id="use3" />
  <ellipse
     cx="11.706"
     cy="11.705001"
     fill="#cc092f"
     rx="16.236"
     ry="16.235001"
     id="ellipse3" />
  <path
     fill="#ffffff"
     d="m 26.0113,16.091201 c -1.857,-0.74 -3.557,-0.492 -5.261,0.541 0,0 -0.621,0.379 -0.807,0.496 -0.794,0.498 -1.543,0.97 -2.263,0.97 -0.687,0 -1.363,-0.184 -1.649,-1.513 -0.446,-2.073 -1.534,-7.1670001 -2.009,-9.6900001 -0.279,-1.483 -0.432,-2.282 -0.591,-2.825 -0.28,-0.954 -0.792,-1.473 -1.519,-1.556 0,0 -0.114,-0.016 -0.207,-0.016 -0.092,0 -0.218,0.018 -0.218,0.018 -0.72,0.086 -1.229,0.605 -1.5070004,1.554 -0.159,0.543 -0.312,1.342 -0.591,2.825 -0.475,2.523 -1.563,7.6170001 -2.009,9.6900001 -0.286,1.329 -0.962,1.513 -1.649,1.513 -0.72,0 -1.469,-0.472 -2.263,-0.97 -0.186,-0.117 -0.808,-0.496 -0.808,-0.496 -1.703,-1.033 -3.404,-1.281 -5.26,-0.541 -0.401,0.16 -0.79596,0.33918 -1.17196,0.52018 0.257,0.806 0.57693,1.59925 0.94993,2.34425 0.411,-0.202 0.84203,-0.40243 1.28203,-0.53243 0.634,-0.187 1.284,-0.197 1.914,0.014 0.612,0.205 1.157,0.568 1.7,0.909 1.023,0.643 2.182,1.372 3.657,1.372 2.186,0 3.72,-1.305 4.21,-3.581 0.3800004,-1.764 1.2220004,-5.702 1.7630004,-8.4180001 0,0 1.386,6.6540001 1.765,8.4180001 0.49,2.276 2.025,3.581 4.211,3.581 1.475,0 2.634,-0.729 3.657,-1.372 0.543,-0.341 1.088,-0.704 1.7,-0.909 0.629,-0.211 1.28,-0.201 1.914,-0.014 0.44,0.13 0.87039,0.33065 1.28139,0.53265 0.374,-0.745 0.69309,-1.53862 0.95009,-2.34462 -0.376,-0.181 -0.77048,-0.36003 -1.17148,-0.52003"
     id="path4" />
  <path
     d="m 107.7625,44.680656 q -0.26855,0.117188 -0.48828,0.219727 -0.21484,0.102539 -0.5664,0.214844 -0.29785,0.09277 -0.64942,0.15625 -0.34668,0.06836 -0.7666,0.06836 -0.79101,0 -1.44043,-0.219726 -0.64453,-0.22461 -1.12305,-0.698243 -0.46875,-0.463867 -0.73242,-1.176757 -0.26367,-0.717774 -0.26367,-1.66504 0,-0.898437 0.25391,-1.606445 0.2539,-0.708008 0.73242,-1.196289 0.46387,-0.473633 1.11816,-0.722656 0.65918,-0.249024 1.45996,-0.249024 0.58594,0 1.167,0.141602 0.58593,0.141602 1.29882,0.498047 v 1.147461 h -0.0732 q -0.60058,-0.50293 -1.1914,-0.732422 -0.59082,-0.229492 -1.26465,-0.229492 -0.55176,0 -0.9961,0.180664 -0.43945,0.175781 -0.78613,0.551758 -0.33691,0.366211 -0.52734,0.927734 -0.18555,0.556641 -0.18555,1.289062 0,0.766602 0.20508,1.31836 0.20996,0.551758 0.53711,0.898437 0.34179,0.361328 0.7959,0.53711 0.45898,0.170898 0.96679,0.170898 0.69825,0 1.3086,-0.239258 0.61035,-0.239257 1.14258,-0.717773 h 0.0684 z m 5.94239,-2.197265 q 0,1.333008 -0.6836,2.104492 -0.68359,0.771484 -1.83105,0.771484 -1.15723,0 -1.84082,-0.771484 -0.67871,-0.771484 -0.67871,-2.104492 0,-1.333008 0.67871,-2.104492 0.68359,-0.776368 1.84082,-0.776368 1.14746,0 1.83105,0.776368 0.6836,0.771484 0.6836,2.104492 z m -0.94727,0 q 0,-1.059571 -0.41504,-1.572266 -0.41504,-0.517578 -1.15234,-0.517578 -0.74707,0 -1.16211,0.517578 -0.41016,0.512695 -0.41016,1.572266 0,1.02539 0.41504,1.557617 0.41504,0.527344 1.15723,0.527344 0.73242,0 1.14746,-0.522461 0.41992,-0.527344 0.41992,-1.5625 z m 6.79199,2.724609 h -0.91796 v -0.571289 q -0.39551,0.341797 -0.8252,0.532227 -0.42969,0.190429 -0.93262,0.190429 -0.97656,0 -1.55273,-0.751953 -0.57129,-0.751953 -0.57129,-2.084961 0,-0.693359 0.19531,-1.235351 0.2002,-0.541992 0.53711,-0.922852 0.33203,-0.371094 0.77149,-0.566406 0.44433,-0.195313 0.91796,-0.195313 0.42969,0 0.76172,0.09277 0.33203,0.08789 0.69825,0.27832 v -2.363281 h 0.91796 z m -0.91796,-1.342773 v -3.129883 q -0.3711,-0.166016 -0.66407,-0.229492 -0.29297,-0.06348 -0.63965,-0.06348 -0.77148,0 -1.20117,0.53711 -0.42969,0.537109 -0.42969,1.523437 0,0.97168 0.33204,1.479492 0.33203,0.50293 1.06445,0.50293 0.39062,0 0.79101,-0.170899 0.4004,-0.175781 0.74708,-0.449218 z m 7.29003,-1.289063 h -4.01855 q 0,0.50293 0.15137,0.878906 0.15136,0.371094 0.41504,0.610352 0.2539,0.234375 0.60058,0.351563 0.35156,0.117187 0.77149,0.117187 0.55664,0 1.11816,-0.219727 0.56641,-0.224609 0.80566,-0.439453 h 0.0488 v 1.000977 q -0.46386,0.195312 -0.94726,0.327148 -0.4834,0.131836 -1.01563,0.131836 -1.35742,0 -2.11914,-0.732422 -0.76172,-0.737304 -0.76172,-2.089843 0,-1.337891 0.72754,-2.124024 0.73242,-0.786133 1.92383,-0.786133 1.10352,0 1.69922,0.644532 0.60058,0.644531 0.60058,1.831054 z m -0.89355,-0.703125 q -0.005,-0.722656 -0.36621,-1.118164 -0.35645,-0.395508 -1.08887,-0.395508 -0.7373,0 -1.17676,0.434571 -0.43457,0.43457 -0.49316,1.079101 z m 7.25586,1.289063 h -1.0791 V 45.208 h -0.9375 v -2.045898 h -3.48145 v -1.123047 l 3.52051,-4.101563 h 0.89844 v 4.44336 h 1.0791 z m -2.0166,-0.78125 v -3.28125 l -2.81739,3.28125 z m 7.3584,2.827148 h -4.4043 V 44.529289 L 136.4002,40.5205 h -3.11035 v -0.766601 h 4.25293 v 0.654296 l -3.19336,4.023438 h 3.27637 z"
     id="text4"
     style="font-size:10px;text-anchor:middle"
     aria-label="Code4z" />
</svg>
