<?xml version="1.0" encoding="UTF-8" standalone="no"?>
<svg
   role="img"
   viewBox="-4.53 -4.53 248.82 41.82"
   version="1.1"
   id="svg19"
   xmlns:xlink="http://www.w3.org/1999/xlink"
   xmlns="http://www.w3.org/2000/svg"
   xmlns:svg="http://www.w3.org/2000/svg">
  <defs
     id="defs23" />
  <title
     id="title2">Broadcom Corporation logo</title>
  <path
     d="M237.32 9.09c-1.06 0-1.93-.86-1.93-1.92s.87-1.93 1.93-1.93 1.93.87 1.93 1.93-.87 1.92-1.93 1.92m0-4.32c-1.32 0-2.4 1.08-2.4 2.4 0 1.32 1.08 2.4 2.4 2.4 1.32 0 2.4-1.08 2.4-2.4 0-1.32-1.08-2.4-2.4-2.4"
     id="path4" />
  <path
     d="M237.48 7.07l-.51.01-.01-.62h.51c.19-.01.34.11.34.3.01.19-.14.31-.33.31m.83-.32c-.01-.42-.3-.72-.77-.72l-1.07.02.03 2.26h.49l-.01-.81h.35l.46.8.55-.01-.52-.86c.24-.06.49-.28.49-.68M51.8341 23.1805h-5.999V9.3465h5.835c1.574 0 2.557 1.016 2.557 2.393 0 1.377-.983 2.36-2.557 2.36H45v4h6.8341c1.836 0 2.819 1.18 2.819 2.556 0 1.574-1.049 2.525-2.819 2.525m3.376-7.245c2.066-.426 3.771-2.262 3.771-5.015 0-2.918-2.131-5.573-6.295-5.573h-11.506v21.865h11.867c4.163 0 6.359-2.623 6.359-5.901 0-2.754-1.868-5.015-4.196-5.376m17.8225-.5902H68v4.098h3.5576l4.294 7.769h5.343l-4.917-8.327c2.361-.557 4.786-2.622 4.786-6.49m0 0c0-4.065-2.786-7.048-7.343-7.048h-10.228v21.865h4.655V9.4453h4.885c1.869 0 3.278 1.114 3.278 2.95s-1.409 2.95-3.278 2.95m43.4206 4.0652l3.409-9.408 3.41 9.408zm.492-14.063l-8.458 21.865h5.31l1.377-3.704h9.376l1.344 3.704h5.311l-8.425-21.865zm26.9039 17.7671h-3.967v-13.67h3.967c4.491 0 6.851 2.983 6.851 6.852 0 3.704-2.524 6.818-6.851 6.818m0-17.767h-8.622v21.865h8.622c6.851 0 11.604-4.327 11.604-10.916s-4.753-10.949-11.604-10.949m82.1269-.0045l-5.734 9.27-5.734-9.27h-5.146v21.869h4.656v-14.293l5.012 7.622c.574.871 1.851.871 2.424 0l5.013-7.622v14.293h4.656V5.3431z"
     id="path6" />
  <path
     id="a"
     d="M95.8253 23.3441c-3.871 0-7.008-3.138-7.008-7.008 0-3.871 3.137-7.009 7.008-7.009 3.87 0 7.008 3.138 7.008 7.009 0 3.87-3.138 7.008-7.008 7.008m0-18.536c-6.367 0-11.528 5.161-11.528 11.528 0 6.366 5.161 11.527 11.528 11.527 6.366 0 11.528-5.161 11.528-11.527 0-6.367-5.162-11.528-11.528-11.528" />
  <path
     d="M176.4035 19.7269c-1.195 2.156-3.492 3.617-6.132 3.617-3.87 0-7.008-3.138-7.008-7.008 0-3.871 3.138-7.008 7.008-7.008 2.618 0 4.897 1.438 6.1 3.565l3.27-3.269c-2.092-2.915-5.508-4.816-9.37-4.816-6.367 0-11.527 5.161-11.527 11.528 0 6.366 5.16 11.528 11.527 11.528 3.883 0 7.316-1.922 9.404-4.865z"
     id="path9" />
  <use
     transform="translate(98.718)"
     xlink:href="#a"
     id="use11" />
  <ellipse
     cx="16.52"
     cy="16.497"
     fill="#cc092f"
     rx="16.236"
     ry="16.235"
     id="ellipse13" />
  <path
     fill="#fff"
     d="M30.8253 20.8832c-1.857-.74-3.557-.492-5.261.541 0 0-.621.379-.807.496-.794.498-1.543.97-2.263.97-.687 0-1.363-.184-1.649-1.513-.446-2.073-1.534-7.167-2.009-9.69-.279-1.483-.432-2.282-.591-2.825-.28-.954-.792-1.473-1.519-1.556 0 0-.114-.016-.207-.016-.092 0-.218.018-.218.018-.72.086-1.229.605-1.507 1.554-.159.543-.312 1.342-.591 2.825-.475 2.523-1.563 7.617-2.009 9.69-.286 1.329-.962 1.513-1.649 1.513-.72 0-1.469-.472-2.263-.97-.186-.117-.808-.496-.808-.496-1.703-1.033-3.404-1.281-5.26-.541-.401.16-.79596.33918-1.17196.52018.257.806.57693 1.59925.94993 2.34425.411-.202.84203-.40243 1.28203-.53243.634-.187 1.284-.197 1.914.014.612.205 1.157.568 1.7.909 1.023.643 2.182 1.372 3.657 1.372 2.186 0 3.72-1.305 4.21-3.581.38-1.764 1.222-5.702 1.763-8.418 0 0 1.386 6.654 1.765 8.418.49 2.276 2.025 3.581 4.211 3.581 1.475 0 2.634-.729 3.657-1.372.543-.341 1.088-.704 1.7-.909.629-.211 1.28-.201 1.914-.014.44.13.87039.33065 1.28139.53265.374-.745.69309-1.53862.95009-2.34462-.376-.181-.77048-.36003-1.17148-.52003"
     id="path15" />
  <g
     aria-label="Code4z"
     id="text17"
     style="font-size:11px;text-anchor:middle">
    <path
       d="m 111.37973,49.419922 q -0.29541,0.128906 -0.53711,0.241699 -0.23633,0.112793 -0.62305,0.236328 -0.32763,0.102051 -0.71435,0.171875 -0.38135,0.0752 -0.84326,0.0752 -0.87012,0 -1.58448,-0.2417 -0.70898,-0.24707 -1.23535,-0.768066 -0.51562,-0.510254 -0.80566,-1.294434 -0.29004,-0.78955 -0.29004,-1.831543 0,-0.988281 0.2793,-1.76709 0.27929,-0.778808 0.80566,-1.315917 0.51025,-0.520997 1.22998,-0.794922 0.7251,-0.273926 1.60596,-0.273926 0.64453,0 1.28369,0.155762 0.64453,0.155761 1.42871,0.547851 v 1.262207 h -0.0806 q -0.66064,-0.553222 -1.31054,-0.805664 -0.64991,-0.252441 -1.39112,-0.252441 -0.60693,0 -1.0957,0.19873 -0.4834,0.19336 -0.86475,0.606934 -0.3706,0.402832 -0.58007,1.020508 -0.20411,0.612304 -0.20411,1.417968 0,0.843262 0.22559,1.450196 0.23096,0.606933 0.59082,0.988281 0.37598,0.397461 0.87549,0.59082 0.50488,0.187988 1.06348,0.187988 0.76806,0 1.43945,-0.263183 0.67139,-0.263184 1.25683,-0.789551 h 0.0752 z"
       style="font-size:11px;text-anchor:middle"
       id="path25" />
    <path
       d="m 117.92709,47.00293 q 0,1.466308 -0.75195,2.314941 -0.75195,0.848633 -2.01416,0.848633 -1.27295,0 -2.0249,-0.848633 -0.74658,-0.848633 -0.74658,-2.314941 0,-1.466309 0.74658,-2.314942 0.75195,-0.854004 2.0249,-0.854004 1.26221,0 2.01416,0.854004 0.75195,0.848633 0.75195,2.314942 z m -1.04199,0 q 0,-1.165528 -0.45654,-1.729493 -0.45654,-0.569335 -1.26758,-0.569335 -0.82178,0 -1.27832,0.569335 -0.45117,0.563965 -0.45117,1.729493 0,1.127929 0.45654,1.713379 0.45654,0.580078 1.27295,0.580078 0.80566,0 1.26221,-0.574707 0.46191,-0.580078 0.46191,-1.71875 z"
       style="font-size:11px;text-anchor:middle"
       id="path27" />
    <path
       d="m 124.36166,50 h -1.00976 v -0.628418 q -0.43506,0.375977 -0.90772,0.585449 -0.47265,0.209473 -1.02588,0.209473 -1.07421,0 -1.708,-0.827149 -0.62842,-0.827148 -0.62842,-2.293457 0,-0.762695 0.21484,-1.358886 0.22022,-0.596192 0.59082,-1.015137 0.36524,-0.408203 0.84864,-0.623047 0.48877,-0.214844 1.00976,-0.214844 0.47266,0 0.83789,0.102051 0.36524,0.09668 0.76807,0.306152 v -2.599609 h 1.00976 z m -1.00976,-1.477051 v -3.442871 q -0.4082,-0.182617 -0.73047,-0.252441 -0.32227,-0.06983 -0.70361,-0.06983 -0.84864,0 -1.32129,0.590821 -0.47266,0.59082 -0.47266,1.675781 0,1.068848 0.36524,1.627441 0.36523,0.553223 1.17089,0.553223 0.42969,0 0.87012,-0.187988 0.44043,-0.19336 0.82178,-0.494141 z"
       style="font-size:11px;text-anchor:middle"
       id="path29" />
    <path
       d="m 131.37094,47.10498 h -4.42041 q 0,0.553223 0.1665,0.966797 0.16651,0.408203 0.45655,0.671387 0.27929,0.257813 0.66064,0.386719 0.38672,0.128906 0.84864,0.128906 0.6123,0 1.22998,-0.241699 0.62304,-0.24707 0.88623,-0.483399 h 0.0537 v 1.101075 q -0.51026,0.214843 -1.042,0.359863 -0.53173,0.145019 -1.11718,0.145019 -1.49317,0 -2.33106,-0.805664 -0.83789,-0.811035 -0.83789,-2.298828 0,-1.471679 0.8003,-2.336426 0.80566,-0.864746 2.11621,-0.864746 1.21386,0 1.86914,0.708985 0.66064,0.708984 0.66064,2.01416 z m -0.98291,-0.773437 q -0.005,-0.794922 -0.40283,-1.229981 -0.39209,-0.435058 -1.19775,-0.435058 -0.81104,0 -1.29444,0.478027 -0.47803,0.478028 -0.54248,1.187012 z"
       style="font-size:11px;text-anchor:middle"
       id="path31" />
    <path
       d="m 138.36948,47.749512 h -1.18702 V 50 h -1.03125 v -2.250488 h -3.82959 V 46.51416 l 3.87256,-4.511719 h 0.98828 v 4.887696 h 1.18702 z m -2.21827,-0.859375 v -3.609375 l -3.09912,3.609375 z"
       style="font-size:11px;text-anchor:middle"
       id="path33" />
    <path
       d="m 144.2562,50 h -4.84473 v -0.746582 l 3.49658,-4.409668 h -3.42139 v -0.843262 h 4.67823 v 0.719727 l -3.5127,4.425781 h 3.60401 z"
       style="font-size:11px;text-anchor:middle"
       id="path35" />
  </g>
</svg>
