<svg xmlns="http://www.w3.org/2000/svg" role="img" xmlns:xlink="http://www.w3.org/1999/xlink" viewBox="-8.95 -4.70 257.40 55.90"><path d="M237.32 9.09c-1.06 0-1.93-.86-1.93-1.92s.87-1.93 1.93-1.93 1.93.87 1.93 1.93-.87 1.92-1.93 1.92m0-4.32c-1.32 0-2.4 1.08-2.4 2.4 0 1.32 1.08 2.4 2.4 2.4 1.32 0 2.4-1.08 2.4-2.4 0-1.32-1.08-2.4-2.4-2.4"/><path d="M237.48 7.07l-.51.01-.01-.62h.51c.19-.01.34.11.34.3.01.19-.14.31-.33.31m.83-.32c-.01-.42-.3-.72-.77-.72l-1.07.02.03 2.26h.49l-.01-.81h.35l.46.8.55-.01-.52-.86c.24-.06.49-.28.49-.68M51.8341 23.1805h-5.999V9.3465h5.835c1.574 0 2.557 1.016 2.557 2.393 0 1.377-.983 2.36-2.557 2.36H45v4h6.8341c1.836 0 2.819 1.18 2.819 2.556 0 1.574-1.049 2.525-2.819 2.525m3.376-7.245c2.066-.426 3.771-2.262 3.771-5.015 0-2.918-2.131-5.573-6.295-5.573h-11.506v21.865h11.867c4.163 0 6.359-2.623 6.359-5.901 0-2.754-1.868-5.015-4.196-5.376m17.8225-.5902H68v4.098h3.5576l4.294 7.769h5.343l-4.917-8.327c2.361-.557 4.786-2.622 4.786-6.49m0 0c0-4.065-2.786-7.048-7.343-7.048h-10.228v21.865h4.655V9.4453h4.885c1.869 0 3.278 1.114 3.278 2.95s-1.409 2.95-3.278 2.95m43.4206 4.0652l3.409-9.408 3.41 9.408zm.492-14.063l-8.458 21.865h5.31l1.377-3.704h9.376l1.344 3.704h5.311l-8.425-21.865zm26.9039 17.7671h-3.967v-13.67h3.967c4.491 0 6.851 2.983 6.851 6.852 0 3.704-2.524 6.818-6.851 6.818m0-17.767h-8.622v21.865h8.622c6.851 0 11.604-4.327 11.604-10.916s-4.753-10.949-11.604-10.949m82.1269-.0045l-5.734 9.27-5.734-9.27h-5.146v21.869h4.656v-14.293l5.012 7.622c.574.871 1.851.871 2.424 0l5.013-7.622v14.293h4.656V5.3431z"/><path id="a" d="M95.8253 23.3441c-3.871 0-7.008-3.138-7.008-7.008 0-3.871 3.137-7.009 7.008-7.009 3.87 0 7.008 3.138 7.008 7.009 0 3.87-3.138 7.008-7.008 7.008m0-18.536c-6.367 0-11.528 5.161-11.528 11.528 0 6.366 5.161 11.527 11.528 11.527 6.366 0 11.528-5.161 11.528-11.527 0-6.367-5.162-11.528-11.528-11.528"/><path d="M176.4035 19.7269c-1.195 2.156-3.492 3.617-6.132 3.617-3.87 0-7.008-3.138-7.008-7.008 0-3.871 3.138-7.008 7.008-7.008 2.618 0 4.897 1.438 6.1 3.565l3.27-3.269c-2.092-2.915-5.508-4.816-9.37-4.816-6.367 0-11.527 5.161-11.527 11.528 0 6.366 5.16 11.528 11.527 11.528 3.883 0 7.316-1.922 9.404-4.865z"/><use transform="translate(98.718)" xlink:href="#a"/><ellipse cx="16.52" cy="16.497" fill="#cc092f" rx="16.236" ry="16.235"/><path fill="#fff" d="M30.8253 20.8832c-1.857-.74-3.557-.492-5.261.541 0 0-.621.379-.807.496-.794.498-1.543.97-2.263.97-.687 0-1.363-.184-1.649-1.513-.446-2.073-1.534-7.167-2.009-9.69-.279-1.483-.432-2.282-.591-2.825-.28-.954-.792-1.473-1.519-1.556 0 0-.114-.016-.207-.016-.092 0-.218.018-.218.018-.72.086-1.229.605-1.507 1.554-.159.543-.312 1.342-.591 2.825-.475 2.523-1.563 7.617-2.009 9.69-.286 1.329-.962 1.513-1.649 1.513-.72 0-1.469-.472-2.263-.97-.186-.117-.808-.496-.808-.496-1.703-1.033-3.404-1.281-5.26-.541-.401.16-.79596.33918-1.17196.52018.257.806.57693 1.59925.94993 2.34425.411-.202.84203-.40243 1.28203-.53243.634-.187 1.284-.197 1.914.014.612.205 1.157.568 1.7.909 1.023.643 2.182 1.372 3.657 1.372 2.186 0 3.72-1.305 4.21-3.581.38-1.764 1.222-5.702 1.763-8.418 0 0 1.386 6.654 1.765 8.418.49 2.276 2.025 3.581 4.211 3.581 1.475 0 2.634-.729 3.657-1.372.543-.341 1.088-.704 1.7-.909.629-.211 1.28-.201 1.914-.014.44.13.87039.33065 1.28139.53265.374-.745.69309-1.53862.95009-2.34462-.376-.181-.77048-.36003-1.17148-.52003"/><path d="M-2.49896 38.89198h1.26686c.62455 0 1.04218.17899 1.25163.53823.20945.35797.31481.87208.31481 1.54105 0 .48491-.06982.90381-.20945 1.25417-.25642.63977-.70833.95966-1.35699.95966h-1.26686zm2.51595-.99901c-.27038-.09013-.60931-.1371-1.01679-.14345h-2.83457v6.57803H-.9998c.99394 0 1.72892-.40874 2.20495-1.2275.35035-.60678.52553-1.34684.52553-2.22146 0-.34527-.04062-.70832-.1244-1.08914-.08378-.38082-.23992-.73498-.4684-1.06249-.28562-.40494-.65883-.68294-1.12089-.834zm5.32894 4.0697v.47348c-.00888.42525-.1282.71848-.35924.87842-.23103.16122-.48237.24119-.75656.24119-.17264 0-.31862-.04824-.43921-.14471-.1206-.09648-.18026-.25388-.18026-.47095 0-.24373.09775-.42398.2945-.54077.11552-.06854.3072-.12567.57504-.1739l.28562-.05332c.14344-.02666.25515-.05585.33639-.08632.0825-.03173.16375-.07235.24372-.12313zm-.7718-.59409l-.43286.05332c-.49126.06347-.8632.16756-1.1158.31354-.4608.26784-.69182.7007-.69182 1.2986 0 .46079.14344.81749.43032 1.06883.28689.25134.6512.37701 1.09169.37701.34527 0 .65374-.0787.92793-.23738.22976-.13328.4316-.29577.60677-.48618a3.68698 3.68698 0 0 0 .03554.2945c.01524.08632.0419.17899.08125.27673h1.38237v-.18787c-.0825-.03808-.1447-.08759-.1866-.14725-.04189-.05839-.06728-.17137-.07616-.33893-.00635-.2196-.00889-.40748-.00889-.56234v-2.23034c0-.58646-.20691-.98505-.62074-1.19704-.41255-.21072-.88604-.31608-1.41919-.31608-.81749 0-1.39507.21326-1.73146.64231-.21072.2742-.33004.62328-.3567 1.04853H3.7173c.0292-.18787.08886-.3364.17899-.44556.1244-.14979.33766-.22342.63724-.22342.26784 0 .47094.03809.6093.11298.13837.07616.20819.21453.20819.41383 0 .16375-.0914.28307-.27292.3605-.10155.0457-.26911.08252-.50395.11171zm.06728-2.03485zM7.2475 40.414h.67786v2.99452c0 .30338.07109.52807.21453.67405.2196.2285.6309.33258 1.23132.31227l.60296-.02285v-.95078a2.06555 2.06555 0 0 1-.12694.00762c-.04316.00127-.08505.00254-.12313.00254-.25895 0-.41382-.0254-.4646-.0749-.05077-.04823-.0749-.17264-.0749-.37193v-2.57054h.78957v-.90635H9.1846v-1.35572H7.92535v1.35572H7.2475zm6.22514 1.54867v.47349c-.00888.42525-.1282.71848-.35924.87842-.23103.16122-.48237.24119-.75656.24119-.17264 0-.31862-.04824-.43921-.14471-.1206-.09648-.18153-.25388-.18153-.47095 0-.24373.09901-.42398.2945-.54077.11679-.06854.30847-.12567.57631-.1739l.28562-.05332c.14344-.02666.25514-.05585.33639-.08632.0825-.03173.16375-.07235.24372-.12313zm-.7718-.59408l-.43286.05332c-.49126.06347-.8632.16756-1.1158.31354-.4608.26784-.69183.7007-.69183 1.2986 0 .46079.14345.81749.43033 1.06883.28689.25134.6512.37701 1.09169.37701.34527 0 .65374-.0787.92793-.23738.22976-.13328.4316-.29577.60677-.48618a3.68698 3.68698 0 0 0 .03554.2945c.01524.08632.0419.17899.08124.27673h1.38238v-.18787c-.08251-.03808-.14471-.08759-.1866-.14725-.0419-.05839-.06728-.17137-.07616-.33893-.00635-.2196-.00889-.40748-.00889-.56234v-2.23034c0-.58646-.20691-.98505-.62074-1.19704-.41255-.21072-.88604-.31608-1.41919-.31608-.81749 0-1.39507.21326-1.73146.64231-.21072.2742-.33004.62328-.3567 1.04853H11.844c.0292-.18787.08886-.3364.17772-.44556.12567-.14979.33766-.22342.6385-.22342.26785 0 .47095.03809.60932.11298.13836.07616.20818.21453.20818.41383 0 .16375-.0914.28307-.27292.3605-.10155.0457-.26912.08252-.50395.11171zm.06728-2.03485zm7.23558.71468c-.36178-.46207-.86192-.69183-1.5017-.69183-.35416 0-.64485.07363-.87461.22342-.19295.11805-.37067.29069-.53061.51664v-2.33823h-1.26813v6.56914h1.24528v-.61058c.1701.23738.3275.40367.47348.49888.24373.16121.56616.24118.96856.24118.63977 0 1.13738-.2488 1.49408-.74514.35797-.49633.53569-1.12341.53569-1.8787 0-.72864-.18026-1.324-.54204-1.78478zm-1.06375 2.96278c-.18153.2653-.43668.39732-.76291.39732-.37828 0-.6601-.1371-.84415-.41129-.18407-.27292-.27673-.6182-.27673-1.03456 0-.35416.04443-.64231.13455-.86573.17137-.42017.48872-.62962.94951-.62962.45572 0 .768.21453.9381.64231.08885.22723.13328.51284.13328.85685 0 .4316-.09013.77941-.27165 1.04472zm5.19819-1.04853v.47349c-.00889.42525-.12821.71848-.35924.87842-.22976.16122-.48237.24119-.75656.24119-.17137 0-.31862-.04824-.43922-.14471-.12059-.09648-.18025-.25388-.18025-.47095 0-.24373.09774-.42398.2945-.54077.11552-.06854.3072-.12567.57504-.1739l.28561-.05332c.14345-.02666.25515-.05585.33766-.08632a1.40702 1.40702 0 0 0 .24246-.12313zm-.7718-.59408l-.43286.05332c-.49126.06347-.8632.16756-1.1158.31354-.4608.26784-.69183.7007-.69183 1.2986 0 .46079.14345.81749.4316 1.06883.28688.25134.64993.37701 1.09041.37701.34528 0 .65501-.0787.92794-.23738.22976-.13328.4316-.29577.60804-.48618.00888.11044.0203.20819.03554.2945.01396.08632.04062.17899.07997.27673H25.683v-.18787c-.08378-.03808-.14598-.08759-.18787-.14725-.0419-.05839-.06728-.17137-.07617-.33893-.00507-.2196-.00888-.40748-.00888-.56234v-2.23034c0-.58646-.20691-.98505-.61947-1.19704-.41382-.21072-.8873-.31608-1.41919-.31608-.81876 0-1.39634.21326-1.73146.64231-.21199.2742-.33131.62328-.35797 1.04853h1.2275c.03047-.18787.08887-.3364.179-.44556.1244-.14979.33766-.22342.6385-.22342.26658 0 .46968.03809.60805.11298.13836.07616.20818.21453.20818.41383 0 .16375-.0914.28307-.27292.3605-.10029.0457-.26912.08252-.50396.11171zm.06728-2.03485zm4.09636 3.44135h-1.28971c0 .49887.18279.91016.5471 1.23385.36433.32243.9292.48365 1.69339.48365.75021 0 1.30367-.15233 1.66291-.45699.35797-.30465.53696-.69817.53696-1.18054 0-.36559-.1244-.67151-.37448-.91524-.2526-.24118-.63216-.42017-1.13865-.5395-.75783-.16628-1.19958-.28434-1.32525-.35289-.1244-.06474-.1866-.17137-.1866-.31608 0-.11678.05839-.21833.17644-.30465.11679-.08505.31355-.12821.59027-.12821.3364 0 .57504.08505.71468.25769.07362.0952.12059.22468.13836.38843h1.27194c-.05712-.59408-.27673-1.01298-.65882-1.25543-.38209-.24246-.87715-.36432-1.48393-.36432-.63977 0-1.13484.16121-1.48773.4849-.3529.32244-.52934.70833-.52934 1.1577 0 .38082.11297.67278.33893.87462.22722.20564.61439.37574 1.1653.51284.76418.18152 1.20594.30973 1.32526.38462.11932.07363.17898.1828.17898.32497 0 .14852-.07362.26023-.22087.33512-.14725.07363-.34655.1117-.59662.1117-.42525 0-.71594-.08504-.87462-.25514-.08885-.0952-.14725-.25515-.1739-.4811zm.97363-3.44135zm4.35277 1.32526c.16248-.18407.39097-.27673.68547-.27673.27039 0 .49761.08759.6804.2615.1828.1739.28435.42905.30593.76544h-1.97773c.0419-.31608.14345-.56488.30593-.75021zm1.77843-1.09803c-.3237-.15106-.68802-.22723-1.09296-.22723-.68166 0-1.23512.22469-1.6629.67406-.42653.44936-.63979 1.09549-.63979 1.9371 0 .89874.23611 1.5474.7096 1.94599.47221.3986 1.01806.59789 1.63752.59789.75022 0 1.33287-.23738 1.74924-.7096.26784-.2983.41763-.59154.45063-.8797h-1.2986c-.06854.14345-.14724.25516-.2361.33513-.16375.14852-.37701.22341-.6385.22341-.24627 0-.45826-.06093-.63344-.18406-.28942-.19549-.44175-.53822-.45952-1.02567h3.32836c.00635-.42018-.00634-.74133-.03935-.96475-.05712-.38082-.18025-.71467-.37066-1.0041-.21072-.32623-.47857-.56615-.80353-.71847zm-1.0041-.22723zm10.0765-1.5842l-1.18689 5.1728-1.19577-5.1728h-1.9993v6.57802h1.28082v-4.44924c0-.12821-.00127-.3072-.00381-.53823-.00381-.22976-.00508-.40748-.00508-.53315l1.2364 5.52062h1.33414l1.24528-5.52062c0 .12567-.00127.30339-.00508.53315-.00254.23103-.0038.41002-.0038.53823v4.44924h1.28082v-6.57803zm5.8329 4.21313v.47349c-.0089.42525-.12822.71848-.35925.87842-.22976.16122-.48237.24119-.75656.24119-.17264 0-.31862-.04824-.43921-.14471-.1206-.09648-.18026-.25388-.18026-.47095 0-.24373.09775-.42398.2945-.54077.11552-.06854.3072-.12567.57504-.1739l.28562-.05332c.14344-.02666.25515-.05585.33766-.08632a1.40702 1.40702 0 0 0 .24245-.12313zm-.7718-.59408l-.43287.05332c-.49126.06347-.86319.16756-1.1158.31354-.4608.26784-.69182.7007-.69182 1.2986 0 .46079.14344.81749.4316 1.06883.28688.25134.64993.37701 1.0904.37701.34528 0 .65502-.0787.92794-.23738.22976-.13328.4316-.29577.60677-.48618.01016.11044.02158.20819.03681.2945.01397.08632.04063.17899.07998.27673h1.38364v-.18787c-.08378-.03808-.14598-.08759-.18787-.14725-.04189-.05839-.06728-.17137-.07616-.33893-.00508-.2196-.00889-.40748-.00889-.56234v-2.23034c0-.58646-.20691-.98505-.61947-1.19704-.41382-.21072-.8873-.31608-1.41918-.31608-.81877 0-1.39634.21326-1.73147.64231-.21199.2742-.33131.62328-.35797 1.04853h1.22751c.03047-.18787.08886-.3364.17899-.44556.1244-.14979.33766-.22342.63724-.22342.26784 0 .47094.03809.6093.11298.13837.07616.2082.21453.2082.41383 0 .16375-.0914.28307-.27293.3605-.10028.0457-.26911.08252-.50395.11171zm.06728-2.03485zm7.03501.40875c-.31989-.26403-.73117-.39478-1.23386-.39478-.40113 0-.7337.09774-.9952.2945-.14599.10917-.30085.28942-.46334.5395v-.7096h-1.2275v4.85545h1.26685v-2.63273c0-.30085.0419-.54711.12568-.74133.15994-.36559.45571-.54838.8873-.54838.35163 0 .589.1244.71468.37447.06855.1371.10282.33385.10282.589v2.95897h1.3024V41.0525c0-.61058-.15994-1.04725-.47983-1.31002zm-1.70226-.40875zm6.03853 2.62893v.47349c-.00888.42525-.12948.71848-.35924.87842-.23103.16122-.48364.24119-.75656.24119-.17264 0-.31989-.04824-.44048-.14471-.11933-.09648-.18026-.25388-.18026-.47095 0-.24373.09775-.42398.2945-.54077.11679-.06854.30847-.12567.57631-.1739l.28562-.05332c.14217-.02666.25514-.05585.33639-.08632.0825-.03173.16248-.07235.24372-.12313zm-.77306-.59408l-.43287.05332c-.48999.06347-.86192.16756-1.11453.31354-.46206.26784-.69183.7007-.69183 1.2986 0 .46079.14345.81749.43033 1.06883.28689.25134.6512.37701 1.09042.37701.34527 0 .655-.0787.9292-.23738.22849-.13328.4316-.29577.60677-.48618.00889.11044.02031.20819.03554.2945.01524.08632.0419.17899.07998.27673h1.38364v-.18787c-.08378-.03808-.14598-.08759-.18787-.14725-.04062-.05839-.066-.17137-.0749-.33893-.00634-.2196-.00888-.40748-.00888-.56234v-2.23034c0-.58646-.20691-.98505-.62074-1.19704-.41382-.21072-.8873-.31608-1.41919-.31608-.81876 0-1.39507.21326-1.73146.64231-.21072.2742-.33004.62328-.3567 1.04853h1.22624c.03047-.18787.09013-.3364.17899-.44556.12567-.14979.33766-.22342.6385-.22342.26785 0 .47095.03809.60932.11298.13836.07616.2069.21453.2069.41383 0 .16375-.09012.28307-.27164.3605-.10155.0457-.26911.08252-.50522.11171zm.06727-2.03485zm5.94968 3.61272c-.20564.22468-.45698.33639-.75529.33639-.44556 0-.7553-.20438-.92793-.61566-.0952-.2196-.14217-.47095-.14217-.75403 0-.3275.04442-.6017.13328-.8251.1701-.42018.4773-.62963.92413-.62963.3275 0 .58773.1206.78322.36178.19421.24119.29196.59154.29196 1.0536 0 .49-.10282.84796-.3072 1.07265zm-.43286-3.48705c-.18153-.07489-.39479-.1117-.63851-.1117-.66136 0-1.17039.24626-1.5309.73879-.3605.49126-.5395 1.0993-.5395 1.82286 0 .74894.1866 1.34302.55981 1.78223.3732.43922.87208.65882 1.49663.65882.40493 0 .7337-.09647.98632-.29069.13963-.1041.27038-.26023.39351-.4684v.31226c0 .4646-.05077.79465-.15232.9914-.15487.30593-.4608.45953-.91905.45953-.32497 0-.55473-.0584-.69182-.17391-.07998-.066-.13837-.17264-.17391-.32116H62.4245c.0419.48491.25896.84923.6512 1.09296.39352.24372.90001.36558 1.52202.36558 1.02948 0 1.72511-.27419 2.08816-.8213.21199-.31862.31735-.79084.31735-1.41919v-4.61427h-1.2364v.70071c-.1904-.34147-.44048-.57758-.74894-.70452zm-.2323-.12567zm4.63838 1.32526c.16249-.18407.39098-.27673.68548-.27673.27038 0 .4976.08759.6804.2615.1828.1739.28434.42905.30592.76544h-1.97772c.04189-.31608.14344-.56488.30592-.75021zm1.77843-1.09803c-.3237-.15106-.68801-.22723-1.09295-.22723-.68167 0-1.23513.22469-1.66291.67406-.42652.44936-.63978 1.09549-.63978 1.9371 0 .89874.2361 1.5474.7096 1.94599.47221.3986 1.01805.59789 1.63752.59789.75021 0 1.33287-.23738 1.74923-.7096.26785-.2983.41764-.59154.45064-.8797h-1.2986c-.06854.14345-.14725.25516-.2361.33513-.16376.14852-.37702.22341-.63851.22341-.24627 0-.45826-.06093-.63343-.18406-.28816-.19549-.44175-.53822-.45953-1.02567h3.32837c.00635-.42018-.00635-.74133-.03935-.96475-.05712-.38082-.18026-.71467-.37067-1.0041-.21072-.32623-.47856-.56615-.80353-.71847zm-1.0041-.22723zm9.14477.14725c-.20819-.0825-.42018-.1244-.6347-.1244-.32116 0-.61185.06601-.87462.20057-.24626.13329-.45318.344-.61947.62962-.0952-.23865-.23484-.43286-.42017-.5852-.2285-.16375-.52934-.24499-.90127-.24499-.39225 0-.71214.0952-.95967.28562-.13963.10663-.28815.28688-.44556.5395v-.7096h-1.2364v4.85545h1.28972v-2.92723c0-.2653.03427-.4646.10282-.59789.1244-.23484.36812-.3529.73117-.3529.31227 0 .523.11806.62962.3529.05967.13075.08886.3402.08886.62962v2.8955h1.28083v-2.8955c0-.21833.03427-.40367.10282-.55853.13455-.29197.37701-.43668.72736-.43668.3034 0 .51157.11298.62455.33893.05966.11806.09013.27038.09013.45445v3.09733h1.3024l.00889-3.0656c0-.31608-.01397-.55473-.04443-.71848-.04697-.24753-.13964-.45571-.27673-.62454-.16883-.20818-.35797-.35417-.56615-.43795zm3.29028 1.178c.16248-.18406.39098-.27672.68548-.27672.27038 0 .4976.08759.6804.2615.18279.1739.28561.42905.30592.76544H82.3287c.04063-.31608.14345-.56488.30466-.75021zm1.77843-1.09802c-.3237-.15106-.68801-.22723-1.09295-.22723-.68167 0-1.23513.22469-1.66165.67406-.42779.44936-.64104 1.09549-.64104 1.9371 0 .89874.2361 1.5474.70959 1.94599.47349.3986 1.01933.59789 1.63753.59789.75021 0 1.33287-.23738 1.74923-.7096.26784-.2983.4189-.59154.45064-.8797h-1.2986c-.06855.14345-.14725.25516-.2361.33513-.16376.14852-.37575.22341-.63852.22341-.24626 0-.45825-.06093-.63343-.18406-.28815-.19549-.44175-.53822-.45952-1.02567h3.32964c.00507-.42018-.00762-.74133-.04062-.96475-.05713-.38082-.18026-.71467-.37067-1.0041-.21072-.32623-.47856-.56615-.80353-.71847zm-1.0041-.22723zm7.00455.40875c-.31988-.26403-.73117-.39478-1.23385-.39478-.40113 0-.73372.09774-.99521.2945-.14598.10917-.30085.28942-.4646.5395v-.7096h-1.22624v4.85545h1.26686v-2.63273c0-.30085.04189-.54711.12567-.74133.15994-.36559.45571-.54838.8873-.54838.35163 0 .58901.1244.71468.37447.06855.1371.10282.33385.10282.589v2.95897h1.3024V41.0525c0-.61058-.15994-1.04725-.47983-1.31002zm-1.70226-.40875zm2.85615 1.08026h.67786v2.99452c0 .30338.07235.52807.21453.67405.22087.2285.63089.33258 1.23131.31227l.60297-.02285v-.95078a2.06555 2.06555 0 0 1-.12694.00762c-.04316.00127-.08378.00254-.12313.00254-.25896 0-.41383-.0254-.46333-.0749-.05078-.04823-.07617-.17264-.07617-.37193v-2.57054h.78957v-.90635h-.78957v-1.35572h-1.25924v1.35572h-.67786zm7.181 1.8838h-1.31257c0 .6842.245 1.22116.73626 1.61213.49125.39225 1.1653.58773 2.02215.58773.83907 0 1.48774-.1993 1.94726-.59661.45952-.39606.68928-.8962.68928-1.49663 0-.58646-.19548-1.03456-.589-1.34302-.2526-.1993-.62708-.35924-1.12469-.4773l-1.13357-.27292c-.43667-.10409-.72229-.19422-.85684-.27165-.20819-.11678-.31228-.29196-.31228-.5268 0-.25642.10663-.45572.31735-.59789.21072-.14344.4938-.21453.84796-.21453.31862 0 .58393.05459.79846.16503.32115.16629.4938.4481.51791.84288h1.32145c-.02412-.69817-.28054-1.23132-.77053-1.59945-.48872-.36685-1.08026-.55092-1.77335-.55092-.83019 0-1.45981.19422-1.8876.58393-.42906.39097-.64359.8797-.64359 1.4687 0 .64612.22215 1.12087.66517 1.42426.2615.18152.73498.34909 1.41919.50395l.6969.15614c.40748.08886.70579.19168.8962.30846.1904.11806.28561.28689.28561.50395 0 .37194-.19168.62582-.57504.76291-.2031.07109-.46587.10663-.79083.10663-.54077 0-.92286-.13455-1.14627-.4062-.12186-.14852-.20437-.3732-.245-.67279zm1.33413-4.74883zm6.70244 5.48508c-.1993.26403-.48491.39732-.85685.39732-.37193 0-.65755-.13329-.85938-.39732-.20057-.26531-.30085-.64105-.30085-1.12977 0-.48745.10028-.8632.30085-1.12723.20183-.26276.48745-.39478.85938-.39478.37194 0 .65755.13202.85685.39478.1993.26404.29957.63978.29957 1.12723 0 .48872-.10028.86446-.29957 1.12977zm1.01805.70197c.41002-.50649.61566-1.11707.61566-1.83174 0-.70198-.20564-1.31002-.61566-1.8254-.41128-.5141-1.03456-.7718-1.86982-.7718-.83654 0-1.45981.2577-1.86983.7718-.41128.51538-.61566 1.12342-.61566 1.8254 0 .71467.20438 1.32525.61566 1.83174.41002.50776 1.0333.76164 1.86983.76164.83526 0 1.45854-.25388 1.86982-.76164zm-1.86982-4.40228zm4.69424 4.99382v-6.57803h-1.27194v6.57803zm2.50833-4.86434h-1.30367v2.93232c0 .556.06982.97743.21072 1.26305.25007.51791.73498.77687 1.45473.77687.25007 0 .46714-.033.65374-.09901.18534-.06474.37829-.1866.57758-.36559.06601-.05712.12186-.12186.1701-.19675.04697-.07363.07743-.11933.08886-.1333v.68675h1.2364v-4.86434h-1.28972v2.6467c0 .31227-.04189.56362-.12567.75403-.15994.35162-.45825.5268-.89238.5268-.33893 0-.56616-.12314-.68294-.37067-.06474-.13963-.09775-.34781-.09775-.62454zm.8924-.12948zm2.92342 1.08026h.67786v2.99452c0 .30338.07109.52807.21453.67405.2196.2285.6309.33258 1.23132.31227l.60296-.02285v-.95078a2.06555 2.06555 0 0 1-.12694.00762c-.04316.00127-.08505.00254-.12313.00254-.25896 0-.41382-.0254-.4646-.0749-.0495-.04823-.0749-.17264-.0749-.37193v-2.57054h.78957v-.90635h-.78957v-1.35572h-1.25924v1.35572h-.67786zm4.85038-1.5309V37.7089h-1.28971v1.1742zm-1.28971.58012v4.86434h1.2897v-4.86434zm5.56124 3.57083c-.1993.26403-.48491.39732-.85685.39732-.37193 0-.65881-.13329-.85938-.39732-.20057-.26531-.30085-.64105-.30085-1.12977 0-.48745.10028-.8632.30085-1.12723.20057-.26276.48745-.39478.85938-.39478.37194 0 .65755.13202.85685.39478.1993.26404.2983.63978.2983 1.12723 0 .48872-.099.86446-.2983 1.12977zm1.01679.70197c.41128-.50649.61566-1.11707.61566-1.83174 0-.70198-.20438-1.31002-.61566-1.8254-.41002-.5141-1.0333-.7718-1.86983-.7718-.83526 0-1.45854.2577-1.86982.7718-.41002.51538-.61566 1.12342-.61566 1.8254 0 .71467.20564 1.32525.61566 1.83174.41128.50776 1.03456.76164 1.86982.76164.83654 0 1.45981-.25388 1.86983-.76164zm-1.86983-4.40228zm7.32571.40875c-.31989-.26403-.73117-.39478-1.23386-.39478-.40113 0-.73371.09774-.9952.2945-.14599.10917-.30085.28942-.46334.5395v-.7096h-1.2275v4.85545h1.26685v-2.63273c0-.30085.0419-.54711.12567-.74133.15995-.36559.45572-.54838.88731-.54838.35163 0 .589.1244.71468.37447.06854.1371.10282.33385.10282.589v2.95897h1.3024V41.0525c0-.61058-.15994-1.04725-.47983-1.31002zm-1.70227-.40875zm4.34643 3.44135h-1.28971c0 .49887.1828.91016.54711 1.23385.36432.32243.9292.48365 1.69338.48365.75022 0 1.30367-.15233 1.66291-.45699.35798-.30465.53696-.69817.53696-1.18054 0-.36559-.1244-.67151-.37447-.91524-.25261-.24118-.63216-.42017-1.13865-.5395-.75784-.16628-1.19959-.28434-1.32526-.35289-.1244-.06474-.1866-.17137-.1866-.31608 0-.11678.0584-.21833.17518-.30465.11805-.08505.3148-.12821.59154-.12821.33639 0 .57504.08505.71467.25769.07363.0952.1206.22468.13836.38843h1.27194c-.05712-.59408-.27673-1.01298-.65882-1.25543-.38208-.24246-.87715-.36432-1.48392-.36432-.63978 0-1.13485.16121-1.48774.4849-.3529.32244-.52934.70833-.52934 1.1577 0 .38082.11298.67278.33893.87462.22722.20564.61439.37574 1.1653.51284.76419.18152 1.20594.30973 1.32526.38462.11933.07363.17899.1828.17899.32497 0 .14852-.07363.26023-.22088.33512-.14725.07363-.34654.1117-.59662.1117-.42524 0-.71594-.08504-.87461-.25514-.08886-.0952-.14725-.25515-.17391-.4811zm.97363-3.44135zm7.67098-1.64387c-.066-.00508-.13836-.00762-.21833-.00762-.70579 0-1.15008.14599-1.33414.43795-.17645.19675-.26404.55473-.26404 1.07518v.31227h-.69563v.89747h.7096v3.92244h1.26686v-3.92244h.83526v-.89747h-.83526v-.41001c0-.0952.03173-.1828.09647-.2615.06347-.0787.17899-.11552.34782-.1117.16756.00507.28815.01142.35924.0203V37.7089c-.11298-.00888-.20184-.01523-.26785-.01904zm4.0697 5.34417c-.1993.26404-.48491.39733-.85684.39733-.37194 0-.65755-.13329-.85939-.39732-.20056-.26531-.30085-.64105-.30085-1.12977 0-.48745.10029-.8632.30085-1.12723.20184-.26276.48745-.39478.85939-.39478.37193 0 .65754.13202.85684.39478.1993.26404.29958.63978.29958 1.12723 0 .48872-.10028.86446-.29958 1.12977zm1.01806.70198c.41002-.50649.61566-1.11707.61566-1.83174 0-.70198-.20564-1.31002-.61566-1.8254-.41129-.5141-1.03456-.7718-1.86983-.7718-.83653 0-1.4598.2577-1.86982.7718-.41129.51538-.61566 1.12342-.61566 1.8254 0 .71467.20437 1.32525.61566 1.83174.41001.50776 1.03329.76164 1.86982.76164.83527 0 1.45854-.25388 1.86983-.76164zm-1.86983-4.40228zm6.0982.01524c-.0165-.00127-.03681-.00127-.06093-.00127-.38082 0-.68929.09901-.92793.2983-.14598.11933-.31608.34148-.51284.66517v-.84796h-1.21355v4.86434h1.28083v-2.32427c0-.39097.04824-.67913.14725-.867.17518-.33258.51918-.49887 1.03075-.49887.03808 0 .08886.00127.15106.0038.0622.00381.13456.0089.21453.01778v-1.3024c-.05712-.00381-.09267-.00508-.10917-.00762zm4.83007-.45699h1.26813c.62454 0 1.04218.17899 1.25163.53823.20945.35797.3148.87208.3148 1.54105 0 .48491-.0698.90381-.20944 1.25417-.25642.63977-.70833.95966-1.357.95966h-1.26812zm2.51722-.99901c-.27038-.09013-.60931-.1371-1.0168-.14345h-2.83456v6.57803h2.83457c.99394 0 1.72765-.40874 2.20368-1.2275.35162-.60678.5268-1.34684.5268-2.22146 0-.34527-.0419-.70832-.1244-1.08914-.08378-.38082-.23992-.73498-.46841-1.06249-.28562-.40494-.65882-.68294-1.12088-.834zm6.77732 2.15544c-.36177-.46207-.86192-.69183-1.5017-.69183-.35416 0-.64612.07363-.87461.22342-.19422.11805-.37067.29069-.53188.51664v-2.33823h-1.26686v6.56914h1.24528v-.61058c.16883.23738.3275.40367.47222.49888.24499.16121.56742.24118.96855.24118.63978 0 1.13865-.2488 1.49535-.74514.3567-.49633.53569-1.12341.53569-1.8787 0-.72864-.18026-1.324-.54204-1.78478zm-1.06502 2.96278c-.18153.2653-.4354.39732-.76291.39732-.37828 0-.65882-.1371-.84288-.41129-.18534-.27292-.27673-.6182-.27673-1.03456 0-.35416.04443-.64231.13328-.86573.17264-.42017.49-.62962.95078-.62962.45572 0 .768.21453.93682.64231.09013.22723.13456.51284.13456.85685 0 .4316-.0914.77941-.27292 1.04472zm2.50833.04442c-.18787.38463-.28688.80861-.2983 1.27194h4.43147v-1.1196h-2.82569c.07998-.13456.17899-.25135.29704-.3529.11806-.10155.33513-.2653.65374-.49126l.50903-.3605c.4278-.30466.73626-.57885.92413-.82639.28561-.37193.42778-.79718.42778-1.27574 0-.62582-.20183-1.12723-.60677-1.50678-.40494-.37955-.9495-.5687-1.63372-.5687-.86573 0-1.46742.32243-1.80762.96856-.17772.33893-.278.78322-.29831 1.33414h1.2364c.01396-.36305.0622-.62835.14217-.79465.13963-.28815.40367-.43286.78956-.43286.28308 0 .50015.0914.65248.27292.15105.18152.22722.40875.22722.68167 0 .33639-.13202.64612-.39732.9292-.17264.18152-.5522.4811-1.13739.90127-.67532.48237-1.10437.93809-1.2859 1.36968zm9.64363-5.36575c-.06474-.00508-.13836-.00762-.21833-.00762-.70452 0-1.15008.14599-1.33414.43795-.17518.19675-.26404.55473-.26404 1.07518v.31227h-.69563v.89747h.7096v3.92244h1.26686v-3.92244h.83526v-.89747h-.83526v-.41001c0-.0952.033-.1828.09647-.2615.06347-.0787.18026-.11552.34782-.1117.16883.00507.28815.01142.35924.0203V37.7089c-.11298-.00888-.20184-.01523-.26785-.01904zm4.07097 5.34417c-.1993.26404-.48491.39733-.85685.39733-.37193 0-.65881-.13329-.85938-.39732-.20056-.26531-.30085-.64105-.30085-1.12977 0-.48745.10029-.8632.30085-1.12723.20057-.26276.48745-.39478.85938-.39478.37194 0 .65755.13202.85685.39478.1993.26404.2983.63978.2983 1.12723 0 .48872-.099.86446-.2983 1.12977zm1.01679.70198c.41128-.50649.61566-1.11707.61566-1.83174 0-.70198-.20438-1.31002-.61566-1.8254-.41002-.5141-1.0333-.7718-1.86983-.7718-.83526 0-1.45854.2577-1.86982.7718-.41002.51538-.61566 1.12342-.61566 1.8254 0 .71467.20564 1.32525.61566 1.83174.41128.50776 1.03456.76164 1.86982.76164.83654 0 1.45981-.25388 1.86983-.76164zm-1.86983-4.40228zm6.0982.01524c-.0165-.00127-.03681-.00127-.05966-.00127-.38082 0-.69056.09901-.92793.2983-.14598.11933-.31735.34148-.51411.66517v-.84796h-1.21355v4.86434h1.28083v-2.32427c0-.39097.0495-.67913.14725-.867.17518-.33258.51918-.49887 1.03075-.49887.03935 0 .08886.00127.15233.0038.0622.00381.13329.0089.21326.01778v-1.3024c-.05585-.00381-.09267-.00508-.10917-.00762zm3.11765 1.15007h2.32554l-2.49564 2.83838v.99013h4.19917v-1.04471h-2.5515l2.46772-2.76222v-1.0574h-3.9453zm1.97264-1.1653zm4.32866-1.78478l-2.54769 6.7786h1.04853l2.55657-6.7786zm5.39368 5.19438c-.31989.4024-.75276.60297-1.29733.60297-.54457 0-.9787-.20057-1.3024-.60297-.32497-.40113-.48618-.97236-.48618-1.71369 0-.74006.16121-1.31129.48618-1.71369.3237-.40113.75783-.60296 1.3024-.60296s.97744.20183 1.29733.6055c.31989.4024.47983.97363.47983 1.71115 0 .74133-.15994 1.31256-.47983 1.7137zm.85811 1.00029c.6639-.62835.99521-1.53217.99521-2.71398 0-1.20466-.33131-2.10974-.9952-2.7127-.49634-.51284-1.21482-.768-2.15545-.768-.93935 0-1.65783.25516-2.15544.768-.66643.60296-.99902 1.50804-.99902 2.7127 0 1.18181.33259 2.08563.99902 2.71398.4976.51157 1.21609.76672 2.15544.76672.94063 0 1.6591-.25515 2.15544-.76672zm-2.15544-6.19467zm5.19439 4.74882h-1.3113c0 .68421.245 1.22117.73626 1.61214.49126.39225 1.1653.58773 2.02215.58773.8378 0 1.48774-.1993 1.94726-.59661.45953-.39606.68929-.8962.68929-1.49663 0-.58646-.1955-1.03456-.589-1.34302-.25262-.1993-.62709-.35924-1.1247-.4773l-1.13357-.27292c-.43667-.10409-.72229-.19422-.85684-.27165-.20818-.11678-.31227-.29196-.31227-.5268 0-.25642.10536-.45572.31735-.59789.21072-.14344.4938-.21453.84795-.21453.31862 0 .58393.05459.79846.16503.32116.16629.4938.4481.51791.84288h1.32145c-.02412-.69817-.28054-1.23132-.77053-1.59945-.48872-.36685-1.08026-.55092-1.77335-.55092-.83019 0-1.45981.19422-1.8876.58393-.42906.39097-.64358.8797-.64358 1.4687 0 .64612.22214 1.12087.66516 1.42426.2615.18152.73498.34909 1.4192.50395l.69562.15614c.40875.08886.70706.19168.89747.30846.1904.11806.28561.28689.28561.50395 0 .37194-.19168.62582-.57503.76291-.2031.07109-.46587.10663-.79084.10663-.54077 0-.92285-.13455-1.14627-.4062-.12186-.14852-.20437-.3732-.24626-.67279zm1.3354-4.74882zm9.73884 1.56136c.18026.14598.27038.3897.27038.73244 0 .34147-.09012.59154-.27038.75022-.17898.1574-.4316.2361-.75529.2361h-1.28083v-1.9371h1.28083c.3237 0 .5763.07363.7553.21834zm1.04218 2.36997c.39351-.32116.589-.86954.589-1.64641 0-.71087-.19549-1.2364-.589-1.57533-.39224-.33893-.91905-.50903-1.57913-.50903h-2.86504v6.57803h1.36587v-2.36489h1.39634c.72864 0 1.28972-.16121 1.68196-.48237zm2.8168 2.84726v-6.57803h-1.27194v6.57803zm2.50833-4.86434h-1.30367v2.93232c0 .556.06982.97743.20945 1.26305.25007.51792.73498.77687 1.45473.77687.25007 0 .46841-.033.65374-.09901.1866-.06474.37955-.1866.57885-.36559.06474-.05712.12186-.12186.16883-.19675.04824-.07363.07743-.11933.09013-.1333v.68675h1.23512v-4.86434h-1.2897v2.6467c0 .31227-.04063.56362-.1244.75403-.16122.35162-.45826.5268-.8924.5268-.33893 0-.56742-.12314-.68293-.37067-.06601-.13963-.09775-.34781-.09775-.62454zm.8924-.12948zm6.26575 3.61272c-.20564.22468-.45698.33639-.7553.33639-.44555 0-.75529-.20438-.92792-.61566-.09521-.2196-.14218-.47095-.14218-.75403 0-.3275.04443-.6017.13329-.8251.1701-.42018.4773-.62963.92412-.62963.3275 0 .58773.1206.78322.36178.19422.24119.29196.59154.29196 1.0536 0 .49-.10282.84796-.30719 1.07265zm-.43287-3.48705c-.18152-.07489-.39478-.1117-.6385-.1117-.6601 0-1.1704.24626-1.5309.73879-.36051.49126-.5395 1.0993-.5395 1.82286 0 .74894.1866 1.34302.55981 1.78223.3732.43922.87208.65882 1.49662.65882.40494 0 .73372-.09647.98633-.29069.13963-.1041.27165-.26023.39351-.4684v.31226c0 .4646-.05078.79465-.15233.9914-.15486.30593-.46079.45953-.91904.45953-.32497 0-.55473-.0584-.69183-.17391-.07997-.066-.13836-.17264-.1739-.32116h-1.38365c.04189.48491.25896.84923.6512 1.09296.39352.24372.9.36558 1.52201.36558 1.02949 0 1.72512-.27419 2.08817-.8213.21199-.31862.31735-.79084.31735-1.41919v-4.61427h-1.2364v.70071c-.19041-.34147-.44048-.57758-.74895-.70452zm-.2323-.12567zm3.02118 1.84317v1.20466h2.56165V41.1769zm4.73486-2.2938v-1.1742h-1.28971v1.1742zm-1.28971.58011v4.86434h1.2897v-4.86434zm6.45109.27927c-.31989-.26403-.73118-.39478-1.23386-.39478-.4024 0-.73371.09774-.9952.2945-.14599.10917-.30086.28942-.4646.5395v-.7096h-1.22752v4.85545h1.26813v-2.63273c0-.30085.0419-.54711.1244-.74133.16122-.36559.45699-.54838.88858-.54838.35036 0 .589.1244.7134.37447.06855.1371.10283.33385.10283.589v2.95897h1.30367V41.0525c0-.61058-.15994-1.04725-.47983-1.31002zm-1.70227-.40875z"/></svg>