<?xml version="1.0" encoding="UTF-8" standalone="no"?>
<svg
   role="img"
   viewBox="-4.53 -4.53 250.27831 51.803429"
   version="1.1"
   id="svg4"
   width="250.27832"
   height="51.803429"
   xmlns:xlink="http://www.w3.org/1999/xlink"
   xmlns="http://www.w3.org/2000/svg"
   xmlns:svg="http://www.w3.org/2000/svg">
  <defs
     id="defs4" />
  <title
     id="title1">Broadcom Corporation logo</title>
  <path
     d="m 233.31896,4.2980009 c -1.06,0 -1.93,-0.86 -1.93,-1.92 0,-1.06 0.87,-1.93000003 1.93,-1.93000003 1.06,0 1.93,0.87000003 1.93,1.93000003 0,1.06 -0.87,1.92 -1.93,1.92 m 0,-4.32000003 c -1.32,0 -2.4,1.08000003 -2.4,2.40000003 0,1.32 1.08,2.4 2.4,2.4 1.32,0 2.4,-1.08 2.4,-2.4 0,-1.32 -1.08,-2.40000003 -2.4,-2.40000003"
     id="path1" />
  <path
     d="m 233.47896,2.2780009 -0.51,0.01 -0.01,-0.62 h 0.51 c 0.19,-0.01 0.34,0.11 0.34,0.3 0.01,0.19 -0.14,0.31 -0.33,0.31 m 0.83,-0.32 c -0.01,-0.42 -0.3,-0.72 -0.77,-0.72 l -1.07,0.02 0.03,2.26 h 0.49 l -0.01,-0.81 h 0.35 l 0.46,0.8 0.55,-0.01 -0.52,-0.86 c 0.24,-0.06 0.49,-0.28 0.49,-0.68 M 47.833061,18.388501 h -5.999 V 4.5545009 h 5.835 c 1.574,0 2.557,1.016 2.557,2.393 0,1.377 -0.983,2.36 -2.557,2.36 h -6.6701 v 4.0000001 h 6.8341 c 1.836,0 2.819,1.18 2.819,2.556 0,1.574 -1.049,2.525 -2.819,2.525 m 3.376,-7.245 c 2.066,-0.426 3.771,-2.2620001 3.771,-5.0150001 0,-2.918 -2.131,-5.57300003 -6.295,-5.57300003 h -11.506 V 22.420501 h 11.867 c 4.163,0 6.359,-2.623 6.359,-5.901 0,-2.754 -1.868,-5.015 -4.196,-5.376 m 17.8225,-0.5902 h -5.0326 v 4.098 h 3.5576 l 4.294,7.769 h 5.343 l -4.917,-8.327 c 2.361,-0.557 4.786,-2.622 4.786,-6.4900001 m 0,0 c 0,-4.065 -2.786,-7.04800003 -7.343,-7.04800003 h -10.228 V 22.420301 h 4.655 V 4.6533009 h 4.885 c 1.869,0 3.278,1.114 3.278,2.95 0,1.836 -1.409,2.9500001 -3.278,2.9500001 m 43.420599,4.0652 3.409,-9.4080001 3.41,9.4080001 z m 0.492,-14.06300013 -8.458,21.86500013 h 5.31 l 1.377,-3.704 h 9.376 l 1.344,3.704 h 5.311 l -8.425,-21.86500013 z m 26.9039,17.76710013 h -3.967 V 4.6526009 h 3.967 c 4.491,0 6.851,2.983 6.851,6.8520001 0,3.704 -2.524,6.818 -6.851,6.818 m 0,-17.76700013 h -8.622 V 22.420601 h 8.622 c 6.851,0 11.604,-4.327 11.604,-10.916 0,-6.5890001 -4.753,-10.94900013 -11.604,-10.94900013 m 82.1269,-0.0045 -5.734,9.27000003 -5.734,-9.27000003 h -5.146 V 22.420101 h 4.656 V 8.1271009 l 5.012,7.6220001 c 0.574,0.871 1.851,0.871 2.424,0 l 5.013,-7.6220001 V 22.420101 h 4.656 V 0.55110087 Z"
     id="path2" />
  <path
     id="a"
     d="m 91.824261,18.552101 c -3.871,0 -7.008,-3.138 -7.008,-7.008 0,-3.8710001 3.137,-7.0090001 7.008,-7.0090001 3.87,0 7.008,3.138 7.008,7.0090001 0,3.87 -3.138,7.008 -7.008,7.008 m 0,-18.53600013 c -6.367,0 -11.528,5.16100003 -11.528,11.52800013 0,6.366 5.161,11.527 11.528,11.527 6.366,0 11.527999,-5.161 11.527999,-11.527 0,-6.3670001 -5.161999,-11.52800013 -11.527999,-11.52800013" />
  <path
     d="m 172.40246,14.934901 c -1.195,2.156 -3.492,3.617 -6.132,3.617 -3.87,0 -7.008,-3.138 -7.008,-7.008 0,-3.8710001 3.138,-7.0080001 7.008,-7.0080001 2.618,0 4.897,1.438 6.1,3.565 l 3.27,-3.269 c -2.092,-2.915 -5.508,-4.81600003 -9.37,-4.81600003 -6.367,0 -11.527,5.16100003 -11.527,11.52800013 0,6.366 5.16,11.528 11.527,11.528 3.883,0 7.316,-1.922 9.404,-4.865 z"
     id="path3" />
  <use
     transform="translate(98.718001)"
     xlink:href="#a"
     id="use3" />
  <ellipse
     cx="12.518962"
     cy="11.705001"
     fill="#cc092f"
     rx="16.236"
     ry="16.235001"
     id="ellipse3" />
  <path
     fill="#ffffff"
     d="m 26.824261,16.091201 c -1.857,-0.74 -3.557,-0.492 -5.261,0.541 0,0 -0.621,0.379 -0.807,0.496 -0.794,0.498 -1.543,0.97 -2.263,0.97 -0.687,0 -1.363,-0.184 -1.649,-1.513 -0.446,-2.073 -1.534,-7.1670001 -2.009,-9.6900001 -0.279,-1.483 -0.432,-2.282 -0.591,-2.825 -0.28,-0.954 -0.792,-1.473 -1.519,-1.556 0,0 -0.114,-0.016 -0.207,-0.016 -0.092,0 -0.218,0.018 -0.218,0.018 -0.72,0.086 -1.229,0.605 -1.507,1.554 -0.159,0.543 -0.312,1.342 -0.591,2.825 -0.4749998,2.523 -1.5629998,7.6170001 -2.0089998,9.6900001 -0.286,1.329 -0.962,1.513 -1.649,1.513 -0.72,0 -1.469,-0.472 -2.263,-0.97 -0.186,-0.117 -0.808,-0.496 -0.808,-0.496 -1.703,-1.033 -3.40400002,-1.281 -5.26,-0.541 -0.401,0.16 -0.79596,0.33918 -1.17196,0.52018 0.257,0.806 0.57693,1.59925 0.94993,2.34425 0.411,-0.202 0.84203,-0.40243 1.28202998,-0.53243 0.634,-0.187 1.284,-0.197 1.91400002,0.014 0.612,0.205 1.157,0.568 1.7,0.909 1.023,0.643 2.182,1.372 3.657,1.372 2.186,0 3.7199998,-1.305 4.2099998,-3.581 0.38,-1.764 1.222,-5.702 1.763,-8.4180001 0,0 1.386,6.6540001 1.765,8.4180001 0.49,2.276 2.025,3.581 4.211,3.581 1.475,0 2.634,-0.729 3.657,-1.372 0.543,-0.341 1.088,-0.704 1.7,-0.909 0.629,-0.211 1.28,-0.201 1.914,-0.014 0.44,0.13 0.87039,0.33065 1.28139,0.53265 0.374,-0.745 0.69309,-1.53862 0.95009,-2.34462 -0.376,-0.181 -0.77048,-0.36003 -1.17148,-0.52003"
     id="path4" />
  <path
     d="m 1.612587,41.58007 q 0,0.991211 -0.4345703,1.796875 -0.42968754,0.805665 -1.14746097,1.25 -0.49804688,0.307618 -1.11328123,0.444336 Q -1.6930771,45.208 -2.6940536,45.208 h -1.8359375 v -7.270508 h 1.8164062 q 1.0644531,0 1.6894531,0.15625 0.62988284,0.151368 1.06445315,0.419922 0.7421875,0.463867 1.15722655,1.235352 Q 1.612587,40.5205 1.612587,41.58007 Z m -1.01074221,-0.01465 q 0,-0.854492 -0.29785156,-1.44043 Q 0.00614166,39.539055 -0.58467865,39.202141 -1.0143661,38.958 -1.4977646,38.865227 -1.981163,38.76757 -2.6549911,38.76757 h -0.9082032 v 5.610352 h 0.9082032 q 0.6982421,0 1.2158203,-0.102539 0.5224609,-0.102539 0.95703121,-0.380859 0.54199219,-0.34668 0.81054688,-0.913086 0.2734375,-0.566407 0.2734375,-1.416016 z M 7.340126,45.208 H 6.4270401 V 44.626945 Q 6.3049698,44.709953 6.0950089,44.86132 5.8899307,45.007805 5.6946182,45.095695 5.465126,45.208 5.1672745,45.281242 q -0.2978516,0.07813 -0.6982422,0.07813 -0.7373047,0 -1.25,-0.488281 -0.5126953,-0.488281 -0.5126953,-1.245117 0,-0.620117 0.2636719,-1.000977 0.2685546,-0.385742 0.7617187,-0.605468 0.4980469,-0.219727 1.1962891,-0.297852 0.6982422,-0.07813 1.4990234,-0.117187 v -0.141602 q 0,-0.3125 -0.1123047,-0.517578 -0.1074219,-0.205078 -0.3125,-0.322266 -0.1953125,-0.112304 -0.46875,-0.151367 -0.2734375,-0.03906 -0.571289,-0.03906 -0.3613282,0 -0.8056641,0.09766 -0.4443359,0.09277 -0.9179688,0.273437 h -0.048828 v -0.932617 q 0.2685547,-0.07324 0.7763672,-0.161133 0.5078125,-0.08789 1.0009766,-0.08789 0.5761718,0 1.0009765,0.09766 0.4296875,0.09277 0.7421875,0.322266 0.3076172,0.224609 0.46875,0.581054 0.1611328,0.356446 0.1611328,0.883789 z M 6.4270401,43.865227 v -1.518555 q -0.4199219,0.02441 -0.9912109,0.07324 -0.5664063,0.04883 -0.8984375,0.141602 -0.3955078,0.112304 -0.6396485,0.351562 -0.2441406,0.234375 -0.2441406,0.649414 0,0.46875 0.2832031,0.708008 0.2832032,0.234375 0.8642578,0.234375 0.4833985,0 0.8837891,-0.185547 0.4003906,-0.190429 0.7421875,-0.454101 z m 5.5126949,1.293945 q -0.258789,0.06836 -0.566406,0.112305 -0.302734,0.04395 -0.541992,0.04395 -0.834961,0 -1.2695313,-0.449219 Q 9.1272354,44.416985 9.1272354,43.425774 V 40.525383 H 8.5071182 v -0.771484 h 0.6201172 v -1.567383 h 0.9179686 v 1.567383 h 1.894531 v 0.771484 h -1.894531 v 2.485352 q 0,0.429687 0.01953,0.673828 0.01953,0.239257 0.136719,0.449218 0.107422,0.195313 0.292969,0.288086 0.19043,0.08789 0.576172,0.08789 0.224609,0 0.46875,-0.06348 0.24414,-0.06836 0.351562,-0.112304 h 0.04883 z m 5.34668,0.04883 h -0.913086 v -0.581055 q -0.12207,0.08301 -0.332031,0.234375 -0.205078,0.146485 -0.400391,0.234375 -0.229492,0.112305 -0.527343,0.185547 -0.297852,0.07813 -0.698243,0.07813 -0.737304,0 -1.25,-0.488281 -0.512695,-0.488281 -0.512695,-1.245117 0,-0.620117 0.263672,-1.000977 0.268555,-0.385742 0.761719,-0.605468 0.498047,-0.219727 1.196289,-0.297852 0.698242,-0.07813 1.499023,-0.117187 v -0.141602 q 0,-0.3125 -0.112305,-0.517578 -0.107421,-0.205078 -0.3125,-0.322266 -0.195312,-0.112304 -0.46875,-0.151367 -0.273437,-0.03906 -0.571289,-0.03906 -0.361328,0 -0.805664,0.09766 -0.444336,0.09277 -0.917968,0.273437 h -0.04883 v -0.932617 q 0.268555,-0.07324 0.776368,-0.161133 0.507812,-0.08789 1.000976,-0.08789 0.576172,0 1.000977,0.09766 0.429687,0.09277 0.742187,0.322266 0.307617,0.224609 0.46875,0.581054 0.161133,0.356446 0.161133,0.883789 z m -0.913086,-1.342773 v -1.518555 q -0.419922,0.02441 -0.991211,0.07324 -0.566406,0.04883 -0.898437,0.141602 -0.395508,0.112304 -0.639649,0.351562 -0.24414,0.234375 -0.24414,0.649414 0,0.46875 0.283203,0.708008 0.283203,0.234375 0.864258,0.234375 0.483398,0 0.883789,-0.185547 0.40039,-0.190429 0.742187,-0.454101 z m 7.480469,-1.425782 q 0,0.683594 -0.195313,1.230469 -0.190429,0.546875 -0.517578,0.917969 -0.346679,0.385742 -0.761718,0.581055 -0.41504,0.190429 -0.913086,0.190429 -0.463868,0 -0.810547,-0.112304 -0.34668,-0.107422 -0.683594,-0.292969 L 19.913368,45.208 h -0.859375 v -7.597656 h 0.917969 v 2.714844 q 0.385742,-0.317383 0.820312,-0.517578 0.434571,-0.205079 0.976563,-0.205079 0.966797,0 1.523437,0.742188 0.561524,0.742187 0.561524,2.094726 z m -0.947266,0.02441 q 0,-0.976563 -0.322265,-1.479493 -0.322266,-0.507812 -1.040039,-0.507812 -0.400391,0 -0.810547,0.175781 -0.410157,0.170899 -0.761719,0.444336 v 3.125 q 0.390625,0.175781 0.668945,0.244141 0.283203,0.06836 0.639649,0.06836 0.761718,0 1.191406,-0.498047 0.43457,-0.50293 0.43457,-1.572265 z m 6.616211,2.74414 h -0.913086 v -0.581055 q -0.12207,0.08301 -0.332031,0.234375 -0.205078,0.146485 -0.400391,0.234375 -0.229492,0.112305 -0.527343,0.185547 -0.297852,0.07813 -0.698243,0.07813 -0.737304,0 -1.25,-0.488281 -0.512695,-0.488281 -0.512695,-1.245117 0,-0.620117 0.263672,-1.000977 0.268555,-0.385742 0.761719,-0.605468 0.498047,-0.219727 1.196289,-0.297852 0.698242,-0.07813 1.499023,-0.117187 v -0.141602 q 0,-0.3125 -0.112304,-0.517578 -0.107422,-0.205078 -0.3125,-0.322266 -0.195313,-0.112304 -0.46875,-0.151367 -0.273438,-0.03906 -0.571289,-0.03906 -0.361329,0 -0.805665,0.09766 -0.444335,0.09277 -0.917968,0.273437 h -0.04883 v -0.932617 q 0.268554,-0.07324 0.776367,-0.161133 0.507812,-0.08789 1.000976,-0.08789 0.576172,0 1.000977,0.09766 0.429687,0.09277 0.742187,0.322266 0.307618,0.224609 0.46875,0.581054 0.161133,0.356446 0.161133,0.883789 z m -0.913086,-1.342773 v -1.518555 q -0.419922,0.02441 -0.991211,0.07324 -0.566406,0.04883 -0.898437,0.141602 -0.395508,0.112304 -0.639649,0.351562 -0.24414,0.234375 -0.24414,0.649414 0,0.46875 0.283203,0.708008 0.283203,0.234375 0.864258,0.234375 0.483398,0 0.883789,-0.185547 0.40039,-0.190429 0.742187,-0.454101 z m 6.577149,-0.229492 q 0,0.74707 -0.620117,1.225585 -0.615235,0.478516 -1.684571,0.478516 -0.605469,0 -1.113281,-0.141601 -0.50293,-0.146485 -0.844727,-0.317383 v -1.030274 h 0.04883 q 0.43457,0.327149 0.966796,0.522461 0.532227,0.19043 1.020508,0.19043 0.605469,0 0.947266,-0.195313 0.341797,-0.195312 0.341797,-0.615234 0,-0.322266 -0.185547,-0.488281 -0.185547,-0.166016 -0.712891,-0.283203 -0.195312,-0.04395 -0.512695,-0.102539 -0.3125,-0.05859 -0.571289,-0.126954 -0.717774,-0.190429 -1.020508,-0.55664 -0.297852,-0.371094 -0.297852,-0.908203 0,-0.336914 0.136719,-0.634766 0.141602,-0.297851 0.424805,-0.532226 0.273437,-0.229493 0.693359,-0.361329 0.424805,-0.136718 0.947266,-0.136718 0.488281,0 0.986328,0.12207 0.50293,0.117187 0.834961,0.288086 v 0.981445 h -0.04883 q -0.351563,-0.258789 -0.854492,-0.43457 -0.50293,-0.180664 -0.986328,-0.180664 -0.50293,0 -0.84961,0.195312 -0.34668,0.19043 -0.34668,0.571289 0,0.336914 0.209961,0.507813 0.205079,0.170898 0.664063,0.27832 0.253906,0.05859 0.566406,0.117188 0.317383,0.05859 0.527344,0.107422 0.639648,0.146484 0.986328,0.502929 0.34668,0.361328 0.34668,0.957032 z m 5.878906,-1.059571 h -4.018555 q 0,0.50293 0.151367,0.878906 0.151368,0.371094 0.41504,0.610352 0.253906,0.234375 0.600585,0.351563 0.351563,0.117187 0.771485,0.117187 0.55664,0 1.118164,-0.219727 0.566406,-0.224609 0.805664,-0.439453 h 0.04883 v 1.000977 q -0.463867,0.195312 -0.947266,0.327148 -0.483398,0.131836 -1.015625,0.131836 -1.357421,0 -2.11914,-0.732422 -0.761719,-0.737304 -0.761719,-2.089843 0,-1.337891 0.727539,-2.124024 0.732422,-0.786133 1.923828,-0.786133 1.103516,0 1.699219,0.644532 0.600586,0.644531 0.600586,1.831054 z m -0.893555,-0.703125 q -0.0049,-0.722656 -0.366211,-1.118164 -0.356445,-0.395508 -1.088867,-0.395508 -0.737305,0 -1.176758,0.434571 -0.43457,0.43457 -0.493164,1.079101 z M 52.52079,45.208 h -0.966797 v -6.264648 l -2.021484,4.262695 H 48.956337 L 46.949501,38.943352 V 45.208 h -0.90332 v -7.270508 h 1.318359 l 1.938477,4.047852 1.875,-4.047852 h 1.342773 z m 6.118164,0 h -0.913086 v -0.581055 q -0.12207,0.08301 -0.332031,0.234375 -0.205078,0.146485 -0.400391,0.234375 -0.229492,0.112305 -0.527343,0.185547 -0.297852,0.07813 -0.698243,0.07813 -0.737304,0 -1.25,-0.488281 -0.512695,-0.488281 -0.512695,-1.245117 0,-0.620117 0.263672,-1.000977 0.268555,-0.385742 0.761719,-0.605468 0.498047,-0.219727 1.196289,-0.297852 0.698242,-0.07813 1.499023,-0.117187 v -0.141602 q 0,-0.3125 -0.112304,-0.517578 -0.107422,-0.205078 -0.3125,-0.322266 -0.195313,-0.112304 -0.46875,-0.151367 -0.273438,-0.03906 -0.57129,-0.03906 -0.361328,0 -0.805664,0.09766 -0.444336,0.09277 -0.917968,0.273437 h -0.04883 v -0.932617 q 0.268554,-0.07324 0.776367,-0.161133 0.507812,-0.08789 1.000976,-0.08789 0.576172,0 1.000977,0.09766 0.429687,0.09277 0.742187,0.322266 0.307618,0.224609 0.46875,0.581054 0.161133,0.356446 0.161133,0.883789 z m -0.913086,-1.342773 v -1.518555 q -0.419922,0.02441 -0.991211,0.07324 -0.566406,0.04883 -0.898437,0.141602 -0.395508,0.112304 -0.639649,0.351562 -0.24414,0.234375 -0.24414,0.649414 0,0.46875 0.283203,0.708008 0.283203,0.234375 0.864258,0.234375 0.483398,0 0.883789,-0.185547 0.40039,-0.190429 0.742187,-0.454101 z M 64.967079,45.208 H 64.04911 v -3.105469 q 0,-0.375976 -0.04394,-0.703125 -0.04395,-0.332031 -0.161133,-0.517578 -0.12207,-0.205078 -0.351562,-0.302734 -0.229492,-0.102539 -0.595703,-0.102539 -0.375977,0 -0.786133,0.185547 -0.410156,0.185547 -0.786133,0.473633 V 45.208 h -0.917969 v -5.454101 h 0.917969 v 0.605468 q 0.429688,-0.356445 0.888672,-0.55664 0.458984,-0.200196 0.942383,-0.200196 0.883789,0 1.347656,0.532227 0.463867,0.532227 0.463867,1.533203 z m 6.00586,0 h -0.913086 v -0.581055 q -0.122071,0.08301 -0.332032,0.234375 -0.205078,0.146485 -0.40039,0.234375 -0.229492,0.112305 -0.527344,0.185547 -0.297852,0.07813 -0.698242,0.07813 -0.737305,0 -1.25,-0.488281 -0.512696,-0.488281 -0.512696,-1.245117 0,-0.620117 0.263672,-1.000977 0.268555,-0.385742 0.761719,-0.605468 0.498047,-0.219727 1.196289,-0.297852 0.698242,-0.07813 1.499024,-0.117187 v -0.141602 q 0,-0.3125 -0.112305,-0.517578 -0.107422,-0.205078 -0.3125,-0.322266 -0.195313,-0.112304 -0.46875,-0.151367 -0.273438,-0.03906 -0.571289,-0.03906 -0.361328,0 -0.805664,0.09766 -0.444336,0.09277 -0.917969,0.273437 h -0.04883 v -0.932617 q 0.268555,-0.07324 0.776367,-0.161133 0.507813,-0.08789 1.000977,-0.08789 0.576172,0 1.000976,0.09766 0.429688,0.09277 0.742188,0.322266 0.307617,0.224609 0.46875,0.581054 0.161133,0.356446 0.161133,0.883789 z m -0.913086,-1.342773 v -1.518555 q -0.419922,0.02441 -0.991211,0.07324 -0.566407,0.04883 -0.898438,0.141602 -0.395508,0.112304 -0.639648,0.351562 -0.244141,0.234375 -0.244141,0.649414 0,0.46875 0.283203,0.708008 0.283203,0.234375 0.864258,0.234375 0.483398,0 0.883789,-0.185547 0.400391,-0.190429 0.742188,-0.454101 z m 7.104492,0.722656 q 0,1.386719 -0.629883,2.036133 -0.629883,0.649414 -1.938477,0.649414 -0.43457,0 -0.849609,-0.06348 -0.410156,-0.05859 -0.810547,-0.170898 v -0.9375 h 0.04883 q 0.22461,0.08789 0.712891,0.214844 0.488281,0.131836 0.976562,0.131836 0.46875,0 0.776368,-0.112305 0.307617,-0.112305 0.478515,-0.3125 0.170899,-0.19043 0.244141,-0.458985 0.07324,-0.268554 0.07324,-0.600585 v -0.498047 q -0.415039,0.332031 -0.795898,0.498047 -0.375977,0.161132 -0.961914,0.161132 -0.976563,0 -1.552735,-0.703125 -0.571289,-0.708007 -0.571289,-1.992187 0,-0.703125 0.195313,-1.210938 0.200195,-0.512695 0.541992,-0.883789 0.317383,-0.346679 0.771484,-0.537109 0.454102,-0.195313 0.90332,-0.195313 0.473633,0 0.791016,0.09766 0.322266,0.09277 0.678711,0.288086 l 0.05859,-0.234375 h 0.859375 z m -0.917969,-0.878906 v -2.973633 q -0.366211,-0.166016 -0.683594,-0.234375 -0.3125,-0.07324 -0.625,-0.07324 -0.756836,0 -1.191406,0.507812 -0.43457,0.507813 -0.43457,1.47461 0,0.917968 0.322265,1.391601 0.322266,0.473633 1.069336,0.473633 0.400391,0 0.800782,-0.151367 0.405273,-0.15625 0.742187,-0.415039 z m 7.290039,-1.132813 H 79.51786 q 0,0.50293 0.151368,0.878906 0.151367,0.371094 0.415039,0.610352 0.253906,0.234375 0.600586,0.351563 0.351562,0.117187 0.771484,0.117187 0.556641,0 1.118164,-0.219727 0.566406,-0.224609 0.805664,-0.439453 h 0.04883 v 1.000977 q -0.463867,0.195312 -0.947265,0.327148 -0.483399,0.131836 -1.015625,0.131836 -1.357422,0 -2.119141,-0.732422 -0.761719,-0.737304 -0.761719,-2.089843 0,-1.337891 0.727539,-2.124024 0.732422,-0.786133 1.923828,-0.786133 1.103516,0 1.699219,0.644532 0.600586,0.644531 0.600586,1.831054 z M 82.64286,41.873039 q -0.0049,-0.722656 -0.366211,-1.118164 -0.356445,-0.395508 -1.088867,-0.395508 -0.737304,0 -1.176758,0.434571 -0.43457,0.43457 -0.493164,1.079101 z M 92.887001,45.208 h -0.917969 v -3.105469 q 0,-0.351562 -0.03418,-0.678711 -0.0293,-0.327148 -0.131836,-0.52246 -0.112305,-0.209961 -0.322266,-0.317383 -0.209961,-0.107422 -0.605469,-0.107422 -0.385742,0 -0.771484,0.195312 -0.385742,0.19043 -0.771484,0.488282 0.01465,0.112304 0.02441,0.263671 0.0098,0.146485 0.0098,0.292969 V 45.208 h -0.917969 v -3.105469 q 0,-0.361328 -0.03418,-0.683593 -0.0293,-0.327149 -0.131836,-0.522461 -0.112305,-0.209961 -0.322266,-0.3125 -0.209961,-0.107422 -0.605469,-0.107422 -0.375976,0 -0.756835,0.185547 -0.375977,0.185547 -0.751954,0.473633 V 45.208 h -0.917968 v -5.454101 h 0.917968 v 0.605468 q 0.429688,-0.356445 0.854493,-0.55664 0.429687,-0.200196 0.913086,-0.200196 0.55664,0 0.942382,0.234375 0.390625,0.234375 0.581055,0.649414 0.556641,-0.46875 1.015625,-0.673828 0.458984,-0.209961 0.981445,-0.209961 0.898438,0 1.323243,0.546875 0.429687,0.541993 0.429687,1.518555 z m 6.333008,-2.631836 h -4.018555 q 0,0.50293 0.151367,0.878906 0.151368,0.371094 0.415039,0.610352 0.253907,0.234375 0.600586,0.351563 0.351563,0.117187 0.771485,0.117187 0.55664,0 1.118164,-0.219727 0.566406,-0.224609 0.805664,-0.439453 h 0.04883 v 1.000977 q -0.463867,0.195312 -0.947266,0.327148 -0.483398,0.131836 -1.015625,0.131836 -1.357422,0 -2.11914,-0.732422 -0.761719,-0.737304 -0.761719,-2.089843 0,-1.337891 0.727539,-2.124024 0.732422,-0.786133 1.923828,-0.786133 1.103516,0 1.699219,0.644532 0.600586,0.644531 0.600586,1.831054 z m -0.893555,-0.703125 q -0.0049,-0.722656 -0.366211,-1.118164 -0.356445,-0.395508 -1.088867,-0.395508 -0.737305,0 -1.176758,0.434571 -0.43457,0.43457 -0.493164,1.079101 z M 105.17216,45.208 h -0.91797 v -3.105469 q 0,-0.375976 -0.0439,-0.703125 -0.0439,-0.332031 -0.16113,-0.517578 -0.12207,-0.205078 -0.35156,-0.302734 -0.22949,-0.102539 -0.59571,-0.102539 -0.37597,0 -0.78613,0.185547 -0.41015,0.185547 -0.78613,0.473633 V 45.208 h -0.91797 v -5.454101 h 0.91797 v 0.605468 q 0.42969,-0.356445 0.88867,-0.55664 0.45899,-0.200196 0.94238,-0.200196 0.88379,0 1.34766,0.532227 0.46387,0.532227 0.46387,1.533203 z m 4.59961,-0.04883 q -0.25879,0.06836 -0.56641,0.112305 -0.30273,0.04395 -0.54199,0.04395 -0.83496,0 -1.26953,-0.449219 -0.43457,-0.449218 -0.43457,-1.440429 v -2.900391 h -0.62012 v -0.771484 h 0.62012 v -1.567383 h 0.91797 v 1.567383 h 1.89453 v 0.771484 h -1.89453 v 2.485352 q 0,0.429687 0.0195,0.673828 0.0195,0.239257 0.13672,0.449218 0.10742,0.195313 0.29296,0.288086 0.19043,0.08789 0.57618,0.08789 0.22461,0 0.46875,-0.06348 0.24414,-0.06836 0.35156,-0.112304 h 0.0488 z m 9.98047,-2.026367 q 0,0.424805 -0.2002,0.839844 -0.19531,0.415039 -0.55176,0.703125 -0.39062,0.3125 -0.91308,0.488281 -0.51758,0.175781 -1.25,0.175781 -0.78614,0 -1.41602,-0.146484 -0.625,-0.146485 -1.27441,-0.434571 v -1.210937 h 0.0684 q 0.55175,0.458984 1.27441,0.708008 0.72266,0.249023 1.35742,0.249023 0.89844,0 1.39649,-0.336914 0.50293,-0.336914 0.50293,-0.898437 0,-0.483399 -0.23926,-0.712891 -0.23438,-0.229492 -0.71778,-0.356445 -0.36621,-0.09766 -0.79589,-0.161133 -0.42481,-0.06348 -0.90332,-0.161133 -0.9668,-0.205078 -1.43555,-0.698242 -0.46387,-0.498047 -0.46387,-1.293945 0,-0.913086 0.77149,-1.494141 0.77148,-0.585938 1.958,-0.585938 0.76661,0 1.40625,0.146485 0.63965,0.146484 1.13282,0.361328 v 1.142578 h -0.0684 q -0.41504,-0.351562 -1.09375,-0.581055 -0.67383,-0.234375 -1.38184,-0.234375 -0.77637,0 -1.25,0.322266 -0.46875,0.322266 -0.46875,0.830078 0,0.454102 0.23438,0.712891 0.23437,0.258789 0.82519,0.395508 0.3125,0.06836 0.88867,0.166015 0.57618,0.09766 0.97657,0.200195 0.81054,0.214844 1.2207,0.649415 0.41016,0.43457 0.41016,1.21582 z m 6.12793,-0.649414 q 0,1.333008 -0.6836,2.104492 -0.68359,0.771484 -1.83105,0.771484 -1.15723,0 -1.84082,-0.771484 -0.67871,-0.771484 -0.67871,-2.104492 0,-1.333008 0.67871,-2.104492 0.68359,-0.776368 1.84082,-0.776368 1.14746,0 1.83105,0.776368 0.6836,0.771484 0.6836,2.104492 z m -0.94727,0 q 0,-1.059571 -0.41504,-1.572266 -0.41504,-0.517578 -1.15234,-0.517578 -0.74707,0 -1.16211,0.517578 -0.41016,0.512695 -0.41016,1.572266 0,1.02539 0.41504,1.557617 0.41504,0.527344 1.15723,0.527344 0.73242,0 1.14746,-0.522461 0.41992,-0.527344 0.41992,-1.5625 z m 3.2959,2.724609 h -0.91797 v -7.597656 h 0.91797 z m 6.33789,0 h -0.91797 v -0.605469 q -0.46387,0.366211 -0.88867,0.561524 -0.42481,0.195312 -0.9375,0.195312 -0.85938,0 -1.33789,-0.522461 -0.47852,-0.527343 -0.47852,-1.542968 v -3.540039 h 0.91797 v 3.105468 q 0,0.415039 0.0391,0.712891 0.0391,0.292969 0.16602,0.50293 0.13183,0.214843 0.3418,0.3125 0.20996,0.09766 0.61035,0.09766 0.35644,0 0.77636,-0.185547 0.42481,-0.185547 0.79102,-0.473633 v -4.072265 h 0.91797 z m 4.63867,-0.04883 q -0.25879,0.06836 -0.56641,0.112305 -0.30273,0.04395 -0.54199,0.04395 -0.83496,0 -1.26953,-0.449219 -0.43457,-0.449218 -0.43457,-1.440429 v -2.900391 h -0.62012 v -0.771484 h 0.62012 v -1.567383 h 0.91797 v 1.567383 h 1.89453 v 0.771484 h -1.89453 v 2.485352 q 0,0.429687 0.0195,0.673828 0.0195,0.239257 0.13672,0.449218 0.10742,0.195313 0.29297,0.288086 0.19043,0.08789 0.57617,0.08789 0.22461,0 0.46875,-0.06348 0.24414,-0.06836 0.35156,-0.112304 h 0.0488 z m 2.09473,-6.318359 h -1.03516 v -0.952149 h 1.03516 z m -0.0586,6.367187 h -0.91797 v -5.454101 h 0.91797 z m 6.46485,-2.724609 q 0,1.333008 -0.6836,2.104492 -0.68359,0.771484 -1.83105,0.771484 -1.15723,0 -1.84082,-0.771484 -0.67871,-0.771484 -0.67871,-2.104492 0,-1.333008 0.67871,-2.104492 0.68359,-0.776368 1.84082,-0.776368 1.14746,0 1.83105,0.776368 0.6836,0.771484 0.6836,2.104492 z m -0.94727,0 q 0,-1.059571 -0.41504,-1.572266 -0.41504,-0.517578 -1.15234,-0.517578 -0.74707,0 -1.16211,0.517578 -0.41016,0.512695 -0.41016,1.572266 0,1.02539 0.41504,1.557617 0.41504,0.527344 1.15723,0.527344 0.73242,0 1.14746,-0.522461 0.41992,-0.527344 0.41992,-1.5625 z m 6.92871,2.724609 h -0.91797 v -3.105469 q 0,-0.375976 -0.0439,-0.703125 -0.0439,-0.332031 -0.16113,-0.517578 -0.12207,-0.205078 -0.35157,-0.302734 -0.22949,-0.102539 -0.5957,-0.102539 -0.37598,0 -0.78613,0.185547 -0.41016,0.185547 -0.78614,0.473633 V 45.208 h -0.91796 v -5.454101 h 0.91796 v 0.605468 q 0.42969,-0.356445 0.88868,-0.55664 0.45898,-0.200196 0.94238,-0.200196 0.88379,0 1.34766,0.532227 0.46386,0.532227 0.46386,1.533203 z m 5.66406,-1.572265 q 0,0.74707 -0.62011,1.225585 -0.61524,0.478516 -1.68457,0.478516 -0.60547,0 -1.11328,-0.141601 -0.50293,-0.146485 -0.84473,-0.317383 v -1.030274 h 0.0488 q 0.43457,0.327149 0.96679,0.522461 0.53223,0.19043 1.02051,0.19043 0.60547,0 0.94727,-0.195313 0.34179,-0.195312 0.34179,-0.615234 0,-0.322266 -0.18554,-0.488281 -0.18555,-0.166016 -0.71289,-0.283203 -0.19532,-0.04395 -0.5127,-0.102539 -0.3125,-0.05859 -0.57129,-0.126954 -0.71777,-0.190429 -1.0205,-0.55664 -0.29786,-0.371094 -0.29786,-0.908203 0,-0.336914 0.13672,-0.634766 0.1416,-0.297851 0.42481,-0.532226 0.27343,-0.229493 0.69336,-0.361329 0.4248,-0.136718 0.94726,-0.136718 0.48828,0 0.98633,0.12207 0.50293,0.117187 0.83496,0.288086 v 0.981445 h -0.0488 q -0.35156,-0.258789 -0.85449,-0.43457 -0.50293,-0.180664 -0.98633,-0.180664 -0.50293,0 -0.84961,0.195312 -0.34668,0.19043 -0.34668,0.571289 0,0.336914 0.20996,0.507813 0.20508,0.170898 0.66407,0.27832 0.2539,0.05859 0.5664,0.117188 0.31739,0.05859 0.52735,0.107422 0.63965,0.146484 0.98633,0.502929 0.34667,0.361328 0.34667,0.957032 z m 7.76368,-5.136719 h -0.0488 q -0.15137,-0.04395 -0.39551,-0.08789 -0.24414,-0.04883 -0.42969,-0.04883 -0.59082,0 -0.85937,0.263672 -0.26367,0.258789 -0.26367,0.942383 v 0.185547 h 1.65527 v 0.771484 h -1.62598 V 45.208 h -0.91797 v -4.682617 h -0.62011 v -0.771484 h 0.62011 v -0.180664 q 0,-0.97168 0.4834,-1.489258 0.4834,-0.522461 1.39649,-0.522461 0.30761,0 0.55176,0.0293 0.24902,0.0293 0.4541,0.06836 z m 5.22949,3.984375 q 0,1.333008 -0.68359,2.104492 -0.6836,0.771484 -1.83106,0.771484 -1.15723,0 -1.84082,-0.771484 -0.67871,-0.771484 -0.67871,-2.104492 0,-1.333008 0.67871,-2.104492 0.68359,-0.776368 1.84082,-0.776368 1.14746,0 1.83106,0.776368 0.68359,0.771484 0.68359,2.104492 z m -0.94727,0 q 0,-1.059571 -0.41504,-1.572266 -0.41503,-0.517578 -1.15234,-0.517578 -0.74707,0 -1.16211,0.517578 -0.41016,0.512695 -0.41016,1.572266 0,1.02539 0.41504,1.557617 0.41504,0.527344 1.15723,0.527344 0.73242,0 1.14746,-0.522461 0.41992,-0.527344 0.41992,-1.5625 z m 5.77149,-1.728516 h -0.0488 q -0.20508,-0.04883 -0.40039,-0.06836 -0.19043,-0.02441 -0.4541,-0.02441 -0.42481,0 -0.82032,0.190429 -0.3955,0.185547 -0.76171,0.483399 V 45.208 h -0.91797 v -5.454101 h 0.91797 v 0.805664 q 0.54687,-0.439453 0.96191,-0.620118 0.41992,-0.185546 0.85449,-0.185546 0.23926,0 0.34668,0.01465 0.10742,0.0098 0.32227,0.04395 z m 10.5957,0.825195 q 0,0.991211 -0.43457,1.796875 -0.42969,0.805665 -1.14746,1.25 -0.49805,0.307618 -1.11328,0.444336 -0.61035,0.136719 -1.61133,0.136719 h -1.83594 v -7.270508 h 1.81641 q 1.06445,0 1.68945,0.15625 0.62988,0.151368 1.06446,0.419922 0.74218,0.463867 1.15722,1.235352 0.41504,0.771484 0.41504,1.831054 z m -1.01074,-0.01465 q 0,-0.854492 -0.29785,-1.44043 -0.29785,-0.585937 -0.88867,-0.922851 -0.42969,-0.244141 -0.91309,-0.336914 -0.4834,-0.09766 -1.15723,-0.09766 h -0.9082 v 5.610352 h 0.9082 q 0.69824,0 1.21582,-0.102539 0.52246,-0.102539 0.95703,-0.380859 0.542,-0.34668 0.81055,-0.913086 0.27344,-0.566407 0.27344,-1.416016 z m 7.2998,0.874023 q 0,0.683594 -0.19531,1.230469 -0.19043,0.546875 -0.51758,0.917969 -0.34668,0.385742 -0.76172,0.581055 -0.41504,0.190429 -0.91308,0.190429 -0.46387,0 -0.81055,-0.112304 -0.34668,-0.107422 -0.68359,-0.292969 l -0.0586,0.253906 h -0.85937 v -7.597656 h 0.91797 v 2.714844 q 0.38574,-0.317383 0.82031,-0.517578 0.43457,-0.205079 0.97656,-0.205079 0.9668,0 1.52344,0.742188 0.56152,0.742187 0.56152,2.094726 z m -0.94726,0.02441 q 0,-0.976563 -0.32227,-1.479493 -0.32226,-0.507812 -1.04004,-0.507812 -0.40039,0 -0.81054,0.175781 -0.41016,0.170899 -0.76172,0.444336 v 3.125 q 0.39062,0.175781 0.66894,0.244141 0.28321,0.06836 0.63965,0.06836 0.76172,0 1.19141,-0.498047 0.43457,-0.50293 0.43457,-1.572265 z m 7.18261,2.74414 h -4.92187 v -1.020508 q 0.5127,-0.439453 1.02539,-0.878906 0.51758,-0.439453 0.96191,-0.874023 0.9375,-0.908203 1.28418,-1.44043 0.34668,-0.537109 0.34668,-1.157227 0,-0.566406 -0.37597,-0.883789 -0.3711,-0.322265 -1.04004,-0.322265 -0.44434,0 -0.96192,0.15625 -0.51757,0.15625 -1.01074,0.478515 h -0.0488 v -1.02539 q 0.34668,-0.170899 0.92286,-0.3125 0.58105,-0.141602 1.12304,-0.141602 1.11817,0 1.75293,0.541992 0.63477,0.53711 0.63477,1.459961 0,0.415039 -0.10742,0.776367 -0.10254,0.356446 -0.30762,0.678711 -0.19043,0.302735 -0.44922,0.595704 -0.25391,0.292968 -0.62012,0.649414 -0.52246,0.512695 -1.0791,0.996093 -0.55664,0.478516 -1.04004,0.888672 h 3.91113 z m 8.00293,-6.708984 h -0.0488 q -0.15137,-0.04395 -0.39551,-0.08789 -0.24414,-0.04883 -0.42969,-0.04883 -0.59082,0 -0.85937,0.263672 -0.26368,0.258789 -0.26368,0.942383 v 0.185547 h 1.65528 v 0.771484 H 206.3245 V 45.208 h -0.91797 v -4.682617 h -0.62011 v -0.771484 h 0.62011 v -0.180664 q 0,-0.97168 0.4834,-1.489258 0.4834,-0.522461 1.39649,-0.522461 0.30761,0 0.55175,0.0293 0.24903,0.0293 0.4541,0.06836 z m 5.2295,3.984375 q 0,1.333008 -0.6836,2.104492 -0.68359,0.771484 -1.83105,0.771484 -1.15723,0 -1.84082,-0.771484 -0.67871,-0.771484 -0.67871,-2.104492 0,-1.333008 0.67871,-2.104492 0.68359,-0.776368 1.84082,-0.776368 1.14746,0 1.83105,0.776368 0.6836,0.771484 0.6836,2.104492 z m -0.94727,0 q 0,-1.059571 -0.41504,-1.572266 -0.41504,-0.517578 -1.15234,-0.517578 -0.74707,0 -1.16211,0.517578 -0.41016,0.512695 -0.41016,1.572266 0,1.02539 0.41504,1.557617 0.41504,0.527344 1.15723,0.527344 0.73242,0 1.14746,-0.522461 0.41992,-0.527344 0.41992,-1.5625 z m 5.77149,-1.728516 h -0.0488 q -0.20508,-0.04883 -0.40039,-0.06836 -0.19043,-0.02441 -0.4541,-0.02441 -0.42481,0 -0.82032,0.190429 -0.39551,0.185547 -0.76172,0.483399 V 45.208 h -0.91796 v -5.454101 h 0.91796 v 0.805664 q 0.54688,-0.439453 0.96192,-0.620118 0.41992,-0.185546 0.85449,-0.185546 0.23926,0 0.34668,0.01465 0.10742,0.0098 0.32227,0.04395 z m 8.33496,4.453125 h -4.4043 v -0.678711 l 3.17871,-4.008789 h -3.11035 v -0.766601 h 4.25293 v 0.654296 l -3.19336,4.023438 h 3.27637 z m 4.59472,-7.597656 -3.50097,9.082031 h -0.84473 l 3.48633,-9.082031 z m 6.73828,1.162109 q 0.44434,0.488282 0.67872,1.196289 0.23925,0.708008 0.23925,1.606446 0,0.898437 -0.24414,1.611328 -0.23926,0.708008 -0.67383,1.18164 -0.44921,0.493164 -1.06445,0.742188 -0.61035,0.249023 -1.39648,0.249023 -0.7666,0 -1.39649,-0.253906 -0.625,-0.253906 -1.06445,-0.737305 -0.43945,-0.483398 -0.67871,-1.186523 -0.23438,-0.703125 -0.23438,-1.606445 0,-0.888672 0.23438,-1.591797 0.23437,-0.708008 0.68359,-1.210938 0.42969,-0.478515 1.06446,-0.732422 0.63964,-0.253906 1.3916,-0.253906 0.78125,0 1.40136,0.258789 0.625,0.253906 1.05957,0.727539 z m -0.0879,2.802735 q 0,-1.416016 -0.63476,-2.182618 -0.63477,-0.771484 -1.7334,-0.771484 -1.1084,0 -1.74316,0.771484 -0.62989,0.766602 -0.62989,2.182618 0,1.430664 0.64453,2.192382 0.64454,0.756836 1.72852,0.756836 1.08398,0 1.72363,-0.756836 0.64453,-0.761718 0.64453,-2.192382 z m 7.82227,1.557617 q 0,0.424805 -0.2002,0.839844 -0.19531,0.415039 -0.55175,0.703125 -0.39063,0.3125 -0.91309,0.488281 -0.51758,0.175781 -1.25,0.175781 -0.78613,0 -1.41602,-0.146484 -0.625,-0.146485 -1.27441,-0.434571 v -1.210937 h 0.0684 q 0.55176,0.458984 1.27441,0.708008 0.72266,0.249023 1.35743,0.249023 0.89843,0 1.39648,-0.336914 0.50293,-0.336914 0.50293,-0.898437 0,-0.483399 -0.23926,-0.712891 -0.23437,-0.229492 -0.71777,-0.356445 -0.36621,-0.09766 -0.7959,-0.161133 -0.4248,-0.06348 -0.90332,-0.161133 -0.9668,-0.205078 -1.43555,-0.698242 -0.46386,-0.498047 -0.46386,-1.293945 0,-0.913086 0.77148,-1.494141 0.77148,-0.585938 1.95801,-0.585938 0.7666,0 1.40625,0.146485 0.63965,0.146484 1.13281,0.361328 v 1.142578 h -0.0684 q -0.41504,-0.351562 -1.09375,-0.581055 -0.67383,-0.234375 -1.38183,-0.234375 -0.77637,0 -1.25,0.322266 -0.46875,0.322266 -0.46875,0.830078 0,0.454102 0.23437,0.712891 0.23438,0.258789 0.8252,0.395508 0.3125,0.06836 0.88867,0.166015 0.57617,0.09766 0.97656,0.200195 0.81055,0.214844 1.2207,0.649415 0.41016,0.43457 0.41016,1.21582 z"
     id="text4"
     style="font-size:10px;text-anchor:middle"
     aria-label="Database Management Solutions for Db2 for z/OS" />
</svg>
