<svg xmlns="http://www.w3.org/2000/svg" role="img" xmlns:xlink="http://www.w3.org/1999/xlink" viewBox="-4.53 -4.53 248.82 57.32"><path d="M237.32 9.09c-1.06 0-1.93-.86-1.93-1.92s.87-1.93 1.93-1.93 1.93.87 1.93 1.93-.87 1.92-1.93 1.92m0-4.32c-1.32 0-2.4 1.08-2.4 2.4 0 1.32 1.08 2.4 2.4 2.4 1.32 0 2.4-1.08 2.4-2.4 0-1.32-1.08-2.4-2.4-2.4"/><path d="M237.48 7.07l-.51.01-.01-.62h.51c.19-.01.34.11.34.3.01.19-.14.31-.33.31m.83-.32c-.01-.42-.3-.72-.77-.72l-1.07.02.03 2.26h.49l-.01-.81h.35l.46.8.55-.01-.52-.86c.24-.06.49-.28.49-.68M51.8341 23.1805h-5.999V9.3465h5.835c1.574 0 2.557 1.016 2.557 2.393 0 1.377-.983 2.36-2.557 2.36H45v4h6.8341c1.836 0 2.819 1.18 2.819 2.556 0 1.574-1.049 2.525-2.819 2.525m3.376-7.245c2.066-.426 3.771-2.262 3.771-5.015 0-2.918-2.131-5.573-6.295-5.573h-11.506v21.865h11.867c4.163 0 6.359-2.623 6.359-5.901 0-2.754-1.868-5.015-4.196-5.376m17.8225-.5902H68v4.098h3.5576l4.294 7.769h5.343l-4.917-8.327c2.361-.557 4.786-2.622 4.786-6.49m0 0c0-4.065-2.786-7.048-7.343-7.048h-10.228v21.865h4.655V9.4453h4.885c1.869 0 3.278 1.114 3.278 2.95s-1.409 2.95-3.278 2.95m43.4206 4.0652l3.409-9.408 3.41 9.408zm.492-14.063l-8.458 21.865h5.31l1.377-3.704h9.376l1.344 3.704h5.311l-8.425-21.865zm26.9039 17.7671h-3.967v-13.67h3.967c4.491 0 6.851 2.983 6.851 6.852 0 3.704-2.524 6.818-6.851 6.818m0-17.767h-8.622v21.865h8.622c6.851 0 11.604-4.327 11.604-10.916s-4.753-10.949-11.604-10.949m82.1269-.0045l-5.734 9.27-5.734-9.27h-5.146v21.869h4.656v-14.293l5.012 7.622c.574.871 1.851.871 2.424 0l5.013-7.622v14.293h4.656V5.3431z"/><path id="a" d="M95.8253 23.3441c-3.871 0-7.008-3.138-7.008-7.008 0-3.871 3.137-7.009 7.008-7.009 3.87 0 7.008 3.138 7.008 7.009 0 3.87-3.138 7.008-7.008 7.008m0-18.536c-6.367 0-11.528 5.161-11.528 11.528 0 6.366 5.161 11.527 11.528 11.527 6.366 0 11.528-5.161 11.528-11.527 0-6.367-5.162-11.528-11.528-11.528"/><path d="M176.4035 19.7269c-1.195 2.156-3.492 3.617-6.132 3.617-3.87 0-7.008-3.138-7.008-7.008 0-3.871 3.138-7.008 7.008-7.008 2.618 0 4.897 1.438 6.1 3.565l3.27-3.269c-2.092-2.915-5.508-4.816-9.37-4.816-6.367 0-11.527 5.161-11.527 11.528 0 6.366 5.16 11.528 11.527 11.528 3.883 0 7.316-1.922 9.404-4.865z"/><use transform="translate(98.718)" xlink:href="#a"/><ellipse cx="16.52" cy="16.497" fill="#cc092f" rx="16.236" ry="16.235"/><path fill="#fff" d="M30.8253 20.8832c-1.857-.74-3.557-.492-5.261.541 0 0-.621.379-.807.496-.794.498-1.543.97-2.263.97-.687 0-1.363-.184-1.649-1.513-.446-2.073-1.534-7.167-2.009-9.69-.279-1.483-.432-2.282-.591-2.825-.28-.954-.792-1.473-1.519-1.556 0 0-.114-.016-.207-.016-.092 0-.218.018-.218.018-.72.086-1.229.605-1.507 1.554-.159.543-.312 1.342-.591 2.825-.475 2.523-1.563 7.617-2.009 9.69-.286 1.329-.962 1.513-1.649 1.513-.72 0-1.469-.472-2.263-.97-.186-.117-.808-.496-.808-.496-1.703-1.033-3.404-1.281-5.26-.541-.401.16-.79596.33918-1.17196.52018.257.806.57693 1.59925.94993 2.34425.411-.202.84203-.40243 1.28203-.53243.634-.187 1.284-.197 1.914.014.612.205 1.157.568 1.7.909 1.023.643 2.182 1.372 3.657 1.372 2.186 0 3.72-1.305 4.21-3.581.38-1.764 1.222-5.702 1.763-8.418 0 0 1.386 6.654 1.765 8.418.49 2.276 2.025 3.581 4.211 3.581 1.475 0 2.634-.729 3.657-1.372.543-.341 1.088-.704 1.7-.909.629-.211 1.28-.201 1.914-.014.44.13.87039.33065 1.28139.53265.374-.745.69309-1.53862.95009-2.34462-.376-.181-.77048-.36003-1.17148-.52003"/><path d="M60.12572 39.223h1.52864c.7536 0 1.25752.21598 1.51025.64945.25273.43194.37986 1.05227.37986 1.85948 0 .5851-.08424 1.09057-.25273 1.51332-.3094.77198-.85468 1.15796-1.63738 1.15796h-1.52864zm3.03583-1.20544c-.32625-.10875-.73522-.16543-1.2269-.17308h-3.42028v7.93726h3.42029c1.19932 0 2.08617-.4932 2.66056-1.48115.42275-.73215.63412-1.62513.63412-2.68047 0-.41663-.04901-.8547-.1501-1.3142-.1011-.45951-.2895-.88686-.5652-1.28204-.34463-.4886-.79495-.82405-1.3525-1.00632zm6.43008 4.91063v.57132c-.01073.51312-.1547.86694-.43348 1.05994-.27876.19452-.58204.29102-.91289.29102-.20831 0-.38446-.0582-.52997-.17461-.1455-.11641-.2175-.30634-.2175-.56826 0-.29409.11794-.5116.35536-.6525.13938-.08272.37067-.15165.69386-.20985l.34463-.06433c.17308-.03217.30787-.0674.4059-.10416.09956-.03829.19759-.0873.29409-.14857zm-.93128-.71684l-.5223.06433c-.59278.07659-1.04156.20219-1.34637.37833-.556.3232-.83478.8455-.83478 1.56693 0 .55601.17308.98642.51925 1.2897.34616.30327.78576.4549 1.31726.4549.41662 0 .78883-.09496 1.11967-.28642.27724-.16083.52078-.35689.73216-.58664a4.44883 4.44883 0 0 0 .04288.35535c.01838.10416.05055.21597.09803.33391h1.66802v-.22669c-.09956-.04595-.17461-.10568-.22516-.17767-.05054-.07046-.08118-.20678-.0919-.40897-.00766-.26498-.01072-.49167-.01072-.67854v-2.6912c0-.70764-.24967-1.1886-.749-1.4444-.4978-.25425-1.06913-.38138-1.71244-.38138-.98642 0-1.68334.25732-2.08924.77504-.25426.33084-.39824.75206-.4304 1.26518h1.48114c.03523-.2267.10722-.4059.21597-.53763.15011-.18074.40744-.26958.76892-.26958.32319 0 .56826.04596.73521.13633.16696.0919.2512.25885.2512.49933 0 .19759-.11028.34157-.32931.435-.12254.05514-.32472.09956-.60809.1348zm.08118-2.45531zm3.14458 1.30347h.81793v3.61328c0 .36608.08578.6372.25886.81334.26498.2757.76125.4013 1.48575.3768l.72755-.02758v-1.14724a2.49236 2.49236 0 0 1-.15317.0092c-.05207.00152-.10262.00305-.14857.00305-.31247 0-.49933-.03063-.5606-.09037-.06127-.0582-.09037-.2083-.09037-.44878v-3.1017h.95271v-1.09363h-.95271v-1.63586h-1.51945v1.63586h-.81793zm7.51146 1.86868v.57132c-.01072.51312-.1547.86694-.43347 1.05994-.27877.19452-.58205.29102-.9129.29102-.2083 0-.38445-.0582-.52996-.17461-.14551-.11641-.21904-.30634-.21904-.56826 0-.29409.11948-.5116.35536-.6525.14091-.08272.3722-.15165.69539-.20985l.34463-.06433c.17308-.03217.30787-.0674.4059-.10416.09956-.03829.1976-.0873.29409-.14857zm-.93127-.71684l-.52231.06433c-.59277.07659-1.04156.20219-1.34637.37833-.556.3232-.83477.8455-.83477 1.56693 0 .55601.17308.98642.51924 1.2897.34617.30327.78576.4549 1.31726.4549.41663 0 .78883-.09496 1.11968-.28642.27723-.16083.52077-.35689.73215-.58664a4.44883 4.44883 0 0 0 .04289.35535c.01838.10416.05054.21597.09803.33391h1.66802v-.22669c-.09956-.04595-.17462-.10568-.22516-.17767-.05055-.07046-.08118-.20678-.0919-.40897-.00766-.26498-.01073-.49167-.01073-.67854v-2.6912c0-.70764-.24966-1.1886-.749-1.4444-.4978-.25425-1.06913-.38138-1.71244-.38138-.98641 0-1.68334.25732-2.08924.77504-.25426.33084-.39824.75206-.4304 1.26518h1.48115c.03523-.2267.10722-.4059.21444-.53763.15163-.18074.40743-.26958.77044-.26958.32319 0 .56826.04596.73522.13633.16695.0919.2512.25885.2512.49933 0 .19759-.11029.34157-.32932.435-.12254.05514-.32472.09956-.60808.1348zm.08118-2.45531zm7.70445-1.08138c-.74288.749-1.11355 1.81812-1.11355 3.20278 0 1.28203.32625 2.29142.98029 3.02664.6525.73215 1.55008 1.09823 2.6912 1.09823.92361 0 1.68027-.27111 2.26998-.81333.59123-.5407.9573-1.24528 1.10129-2.11069h-1.64198c-.11182.40897-.2512.71684-.4197.92056-.30633.38139-.749.57132-1.33104.57132-.56673 0-1.0339-.2221-1.40304-.66476-.3676-.4442-.5514-1.11048-.5514-2.0004s.1746-1.57918.5223-2.06473c.3477-.48708.82406-.73062 1.42755-.73062.59123 0 1.03849.17308 1.34023.51771.1685.193.30788.48096.4151.86082h1.65883c-.02604-.49474-.20831-.98795-.54988-1.48115-.61728-.8746-1.5945-1.31267-2.92861-1.31267-.99867 0-1.8212.32625-2.46757.98029zm2.41855-1.0722zm8.3202 6.61848c-.24048.3186-.58511.47942-1.0339.47942s-.79495-.16082-1.03696-.47942c-.24201-.32012-.36302-.7735-.36302-1.36321 0-.58817.121-1.04156.36302-1.36015.242-.31706.58817-.47636 1.03696-.47636.44879 0 .79342.1593 1.0339.47636.24047.3186.35995.77198.35995 1.36015 0 .5897-.11948 1.04309-.35995 1.36321zm1.22689.84703c.49627-.61115.74287-1.3479.74287-2.21024 0-.84703-.2466-1.58071-.74287-2.20259-.49474-.62033-1.2468-.93127-2.2562-.93127-1.00786 0-1.76145.31094-2.2562.93127-.49473.62188-.74287 1.35556-.74287 2.20259 0 .86235.24814 1.5991.74288 2.21024.49474.61268 1.24833.91902 2.2562.91902 1.00938 0 1.76145-.30634 2.25619-.91902zm-2.2562-5.31193zm8.83944.4932c-.38598-.31859-.88226-.47635-1.4888-.47635-.48403 0-.88533.11794-1.20086.35535-.17615.13173-.36301.34923-.5606.65097V39.923h-1.47963v5.85875h1.52864V42.605c0-.36301.05055-.66016.1501-.89451.19453-.44113.55142-.6617 1.0722-.6617.42428 0 .7107.1501.86234.45185.08118.16543.12254.40284.12254.71071v3.5704h1.57306v-3.9518c0-.73674-.193-1.26364-.57899-1.5807zm-2.054-.4932zm3.44632 1.30347h.81793v3.61328c0 .36608.08577.6372.25885.81334.26499.2757.76126.4013 1.48575.3768l.72756-.02758v-1.14724a2.49236 2.49236 0 0 1-.15317.0092c-.05208.00152-.10262.00305-.14857.00305-.31247 0-.49934-.03063-.5606-.09037-.06127-.0582-.09038-.2083-.09038-.44878v-3.1017h.95272v-1.09363h-.95272v-1.63586h-1.51944v1.63586h-.81793zm5.76379.29562c.19605-.2221.47176-.3339.82711-.3339.32626 0 .60043.10568.821.31552.22056.20984.3431.51772.36914.92362h-2.3864c.05055-.3814.17462-.68161.36915-.90524zm2.1459-1.32492c-.39058-.18227-.83017-.27417-1.31879-.27417-.82252 0-1.49034.2711-2.00652.81333-.51465.54222-.77198 1.32186-.77198 2.33737 0 1.08445.2849 1.86715.85622 2.3481.5698.48095 1.22996.72143 1.9759.72143.90523 0 1.60828-.28643 2.11068-.85622.32319-.35995.50393-.71377.54375-1.06147h-1.56693c-.08271.17308-.17768.30787-.2849.40437-.19758.17921-.45491.26958-.77044.26958-.29715 0-.55294-.07352-.76432-.2221-.3477-.23588-.53303-.64944-.55447-1.23761h4.01611c.00766-.507-.00766-.89451-.04748-1.1641-.06893-.4595-.2175-.86234-.44726-1.21157-.25426-.39364-.57745-.68313-.96956-.86694zm-1.21157-.27417zm8.45192.4932c-.38598-.31859-.88226-.47635-1.4888-.47635-.48403 0-.88533.11794-1.20086.35535-.17615.13173-.36301.34923-.5606.65097V39.923h-1.47963v5.85875h1.52864V42.605c0-.36301.05055-.66016.1501-.89451.19453-.44113.55142-.6617 1.0722-.6617.42428 0 .7107.1501.86234.45185.08118.16543.12254.40284.12254.71071v3.5704h1.57306v-3.9518c0-.73674-.193-1.26364-.57899-1.5807zm-2.054-.4932zm3.44632 1.30347h.81793v3.61328c0 .36608.08577.6372.25885.81334.26499.2757.76126.4013 1.48575.3768l.72756-.02758v-1.14724a2.49236 2.49236 0 0 1-.15317.0092c-.05208.00152-.10262.00305-.14857.00305-.31247 0-.49934-.03063-.5606-.09037-.06127-.0582-.09038-.2083-.09038-.44878v-3.1017h.95272v-1.09363h-.95272v-1.63586h-1.51944v1.63586h-.81793zm9.07379-1.8365h1.52864c.7536 0 1.25752.21597 1.51025.64944.25273.43194.37986 1.05227.37986 1.85948 0 .5851-.08424 1.09057-.25273 1.51332-.3094.77198-.85468 1.15796-1.63738 1.15796h-1.52864zm3.03583-1.20545c-.32625-.10875-.73522-.16543-1.2269-.17308h-3.42028v7.93726h3.42029c1.19932 0 2.08617-.4932 2.66056-1.48115.42275-.73215.63412-1.62513.63412-2.68047 0-.41663-.04901-.8547-.1501-1.3142-.1011-.45951-.2895-.88686-.5652-1.28204-.34463-.4886-.79495-.82405-1.3525-1.00632zm4.77124 1.19472v-1.41682h-1.5562v1.41682zm-1.5562.69999v5.86947h1.5562v-5.86947zm4.23821 3.9962h-1.5562c0 .60196.22056 1.09823.66016 1.48882.4396.38905 1.1212.58358 2.04328.58358.90524 0 1.57306-.1838 2.005-.55142.43347-.3676.64944-.84243.64944-1.42448 0-.44113-.1501-.81027-.45185-1.10435-.3048-.29103-.76279-.507-1.37394-.65098-.91442-.20065-1.44745-.3431-1.59909-.4258-.1501-.07812-.2267-.20679-.2267-.3814 0-.14092.072-.26345.21291-.3676.14245-.10263.37987-.15471.71378-.15471.4059 0 .69386.10262.86234.31093.08884.11488.14552.27111.16696.4687h1.53476c-.06892-.71683-.3339-1.2223-.79495-1.51485-.46104-.29255-1.0584-.4396-1.79056-.4396-.77197 0-1.37087.19453-1.79515.58511-.42581.38906-.63872.8547-.63872 1.39691 0 .45951.13632.8118.40897 1.05535.27264.24813.74134.45338 1.4061.6188.92208.21904 1.45511.37374 1.5991.4641.14397.08885.21596.22057.21596.39212 0 .17921-.08884.314-.26652.40437-.17767.08884-.41815.1348-.7199.1348-.51311 0-.8654-.10263-1.05534-.30788-.10721-.11488-.17767-.30787-.20984-.58051zm1.17328-4.15243zm7.27098 2.26232h1.57153c-.08578-.83631-.36302-1.41989-.83172-1.75074-.4687-.32931-1.07065-.49473-1.8074-.49473-.86388 0-1.54242.2803-2.0341.83937-.4932.5606-.73828 1.34483-.73828 2.35269 0 .89451.2221 1.62207.66782 2.18114.4442.5606 1.13959.8409 2.08311.8409.94506 0 1.6573-.33544 2.13826-1.00786.30174-.41662.47023-.85775.507-1.32492h-1.56694c-.0337.3094-.12407.5606-.2757.75513-.15011.193-.4059.29102-.76432.29102-.50546 0-.8501-.24507-1.0339-.73368-.1011-.26192-.1501-.60808-.1501-1.0385 0-.45184.049-.81486.1501-1.0875.18993-.51312.54375-.77044 1.06147-.77044.36148 0 .62953.11794.80108.35535.11947.17615.193.37373.2221.59277zm-1.04002-2.26232zm7.33378 4.4649c-.24048.3186-.58511.47942-1.0339.47942s-.79342-.16082-1.03543-.47942c-.24354-.32012-.36454-.7735-.36454-1.36321 0-.58817.121-1.04156.36454-1.36015.24201-.31706.58664-.47636 1.03543-.47636s.79342.1593 1.0339.47636c.24048.3186.36148.77198.36148 1.36015 0 .5897-.121 1.04309-.36148 1.36321zm1.22842.84703c.49474-.61115.74288-1.3479.74288-2.21024 0-.84703-.24814-1.58071-.74288-2.20259-.49627-.62033-1.24833-.93127-2.2562-.93127-1.00938 0-1.76145.31094-2.25619.93127-.49627.62188-.74287 1.35556-.74287 2.20259 0 .86235.2466 1.5991.74287 2.21024.49474.61268 1.2468.91902 2.2562.91902 1.00786 0 1.75992-.30634 2.2562-.91902zm-2.2562-5.31193zm7.71671.15623l-1.24986 4.33012-1.2223-4.33012h-1.72316l2.10608 5.86947h1.62054l2.11681-5.86947zm4.00387 1.44286c.19452-.2221.47023-.3339.82558-.3339.32779 0 .60043.10568.821.31552.2221.20984.34463.51772.36913.92362h-2.38485c.05054-.3814.17308-.68161.36914-.90524zm2.1459-1.32492c-.3921-.18227-.8317-.27417-1.32032-.27417-.82099 0-1.49034.2711-2.005.81333-.51618.54222-.7735 1.32186-.7735 2.33737 0 1.08445.28643 1.86715.85622 2.3481.57132.48095 1.22995.72143 1.9759.72143.90523 0 1.60828-.28643 2.1122-.85622.32166-.35995.50394-.71377.54376-1.06147h-1.56693c-.08271.17308-.17768.30787-.28643.40437-.19759.17921-.45338.26958-.77044.26958-.29715 0-.55141-.07352-.76432-.2221-.3477-.23588-.53303-.64944-.55448-1.23761h4.01765c.00613-.507-.00919-.89451-.04901-1.1641-.0674-.4595-.2175-.86234-.44726-1.21157-.25426-.39364-.57745-.68313-.96803-.86694zm-1.21157-.27417zm6.97077.01838c-.01991-.00153-.04442-.00153-.07352-.00153-.45951 0-.83325.11947-1.11967.35995-.17615.14397-.38293.41202-.61881.8026v-1.02317h-1.46584v5.86947h1.54549V42.9772c0-.47176.05973-.81946.17767-1.04615.21291-.4013.62647-.60196 1.24375-.60196.04748 0 .10875.00153.1838.0046.07505.0046.16083.01072.25886.02144v-1.57152c-.06893-.0046-.11335-.00613-.13173-.0092zm1.26672 7.13312v1.2269c.16542.01225.28949.01838.3722.0199.08271.00154.19146.00307.32778.00307.67855 0 1.13193-.13479 1.35709-.4013.2267-.26805.53303-.95885.92208-2.07086l2.01266-5.77298h-1.63126l-1.21158 4.33012-1.28203-4.33012h-1.70632l2.15357 6.12833c.01532.04289-.01684.16083-.09343.35536-.07812.193-.16083.32165-.2512.38292-.09343.06433-.2083.10569-.34463.12254-.13632.01838-.2803.0245-.4304.01685zm2.07851-7.1515z"/></svg>