<svg xmlns="http://www.w3.org/2000/svg" role="img" xmlns:xlink="http://www.w3.org/1999/xlink" viewBox="-4.53 -4.53 248.82 63.82"><path d="M237.32 9.09c-1.06 0-1.93-.86-1.93-1.92s.87-1.93 1.93-1.93 1.93.87 1.93 1.93-.87 1.92-1.93 1.92m0-4.32c-1.32 0-2.4 1.08-2.4 2.4 0 1.32 1.08 2.4 2.4 2.4 1.32 0 2.4-1.08 2.4-2.4 0-1.32-1.08-2.4-2.4-2.4"/><path d="M237.48 7.07l-.51.01-.01-.62h.51c.19-.01.34.11.34.3.01.19-.14.31-.33.31m.83-.32c-.01-.42-.3-.72-.77-.72l-1.07.02.03 2.26h.49l-.01-.81h.35l.46.8.55-.01-.52-.86c.24-.06.49-.28.49-.68M51.8341 23.1805h-5.999V9.3465h5.835c1.574 0 2.557 1.016 2.557 2.393 0 1.377-.983 2.36-2.557 2.36H45v4h6.8341c1.836 0 2.819 1.18 2.819 2.556 0 1.574-1.049 2.525-2.819 2.525m3.376-7.245c2.066-.426 3.771-2.262 3.771-5.015 0-2.918-2.131-5.573-6.295-5.573h-11.506v21.865h11.867c4.163 0 6.359-2.623 6.359-5.901 0-2.754-1.868-5.015-4.196-5.376m17.8225-.5902H68v4.098h3.5576l4.294 7.769h5.343l-4.917-8.327c2.361-.557 4.786-2.622 4.786-6.49m0 0c0-4.065-2.786-7.048-7.343-7.048h-10.228v21.865h4.655V9.4453h4.885c1.869 0 3.278 1.114 3.278 2.95s-1.409 2.95-3.278 2.95m43.4206 4.0652l3.409-9.408 3.41 9.408zm.492-14.063l-8.458 21.865h5.31l1.377-3.704h9.376l1.344 3.704h5.311l-8.425-21.865zm26.9039 17.7671h-3.967v-13.67h3.967c4.491 0 6.851 2.983 6.851 6.852 0 3.704-2.524 6.818-6.851 6.818m0-17.767h-8.622v21.865h8.622c6.851 0 11.604-4.327 11.604-10.916s-4.753-10.949-11.604-10.949m82.1269-.0045l-5.734 9.27-5.734-9.27h-5.146v21.869h4.656v-14.293l5.012 7.622c.574.871 1.851.871 2.424 0l5.013-7.622v14.293h4.656V5.3431z"/><path id="a" d="M95.8253 23.3441c-3.871 0-7.008-3.138-7.008-7.008 0-3.871 3.137-7.009 7.008-7.009 3.87 0 7.008 3.138 7.008 7.009 0 3.87-3.138 7.008-7.008 7.008m0-18.536c-6.367 0-11.528 5.161-11.528 11.528 0 6.366 5.161 11.527 11.528 11.527 6.366 0 11.528-5.161 11.528-11.527 0-6.367-5.162-11.528-11.528-11.528"/><path d="M176.4035 19.7269c-1.195 2.156-3.492 3.617-6.132 3.617-3.87 0-7.008-3.138-7.008-7.008 0-3.871 3.138-7.008 7.008-7.008 2.618 0 4.897 1.438 6.1 3.565l3.27-3.269c-2.092-2.915-5.508-4.816-9.37-4.816-6.367 0-11.527 5.161-11.527 11.528 0 6.366 5.16 11.528 11.527 11.528 3.883 0 7.316-1.922 9.404-4.865z"/><use transform="translate(98.718)" xlink:href="#a"/><ellipse cx="16.52" cy="16.497" fill="#cc092f" rx="16.236" ry="16.235"/><path fill="#fff" d="M30.8253 20.8832c-1.857-.74-3.557-.492-5.261.541 0 0-.621.379-.807.496-.794.498-1.543.97-2.263.97-.687 0-1.363-.184-1.649-1.513-.446-2.073-1.534-7.167-2.009-9.69-.279-1.483-.432-2.282-.591-2.825-.28-.954-.792-1.473-1.519-1.556 0 0-.114-.016-.207-.016-.092 0-.218.018-.218.018-.72.086-1.229.605-1.507 1.554-.159.543-.312 1.342-.591 2.825-.475 2.523-1.563 7.617-2.009 9.69-.286 1.329-.962 1.513-1.649 1.513-.72 0-1.469-.472-2.263-.97-.186-.117-.808-.496-.808-.496-1.703-1.033-3.404-1.281-5.26-.541-.401.16-.79596.33918-1.17196.52018.257.806.57693 1.59925.94993 2.34425.411-.202.84203-.40243 1.28203-.53243.634-.187 1.284-.197 1.914.014.612.205 1.157.568 1.7.909 1.023.643 2.182 1.372 3.657 1.372 2.186 0 3.72-1.305 4.21-3.581.38-1.764 1.222-5.702 1.763-8.418 0 0 1.386 6.654 1.765 8.418.49 2.276 2.025 3.581 4.211 3.581 1.475 0 2.634-.729 3.657-1.372.543-.341 1.088-.704 1.7-.909.629-.211 1.28-.201 1.914-.014.44.13.87039.33065 1.28139.53265.374-.745.69309-1.53862.95009-2.34462-.376-.181-.77048-.36003-1.17148-.52003"/><path d="M24.27328 40.38291h2.4459c1.2058 0 2.0121.34556 2.41649 1.03914.40438.69112.6078 1.6837.6078 2.97527 0 .9362-.1348 1.74497-.40439 2.42139-.49506 1.2352-1.36754 1.8528-2.6199 1.8528h-2.4459zm4.85749-1.92878c-.52202-.174-1.17639-.26469-1.9631-.27694h-5.47263v12.70005h5.47263c1.91898 0 3.338-.78916 4.25704-2.36993.67643-1.17148 1.01464-2.6003 1.01464-4.2889 0-.66662-.07843-1.36754-.24018-2.10278-.16176-.73524-.4632-1.41902-.90435-2.05132-.55143-.78181-1.27196-1.31853-2.16405-1.61018zm10.28845 7.85726v.91415c-.01715.82102-.24753 1.38716-.69357 1.69596-.44605.31125-.9313.46565-1.46068.46565-.3333 0-.61515-.09313-.84798-.2794-.23282-.18625-.34801-.49015-.34801-.90924 0-.47055.18871-.81857.56859-1.04404.22302-.13234.59309-.24263 1.1102-.33576l.55144-.10293c.27694-.05147.4926-.10784.64946-.16666.1593-.06127.31615-.1397.47055-.23773zm-1.49008-1.14697l-.83573.10293c-.94845.12254-1.66654.32351-2.15425.60535-.88964.51712-1.33568 1.35284-1.33568 2.50717 0 .88964.27694 1.57832.83082 2.06357.55388.48526 1.25726.7279 2.10768.7279.66662 0 1.26217-.15196 1.79154-.4583.4436-.25734.83327-.57104 1.17148-.93866a7.11836 7.11836 0 0 0 .06862.56858c.02941.16666.08088.34556.15686.53428h2.66892v-.36272c-.1593-.07353-.2794-.1691-.36027-.2843-.08088-.11273-.1299-.33085-.14705-.65436-.01225-.42399-.01715-.7867-.01715-1.0857V44.1841c0-1.13227-.39948-1.90182-1.19845-2.3111-.7965-.40684-1.71065-.61025-2.73999-.61025-1.57832 0-2.69343.41173-3.3429 1.2401-.40682.52937-.6372 1.20334-.68867 2.02436h2.36993c.05637-.36272.17155-.64946.34556-.86023.24018-.2892.65191-.43134 1.2303-.43134.51712 0 .90925.07352 1.17639.21812.26713.14705.40193.41419.40193.79896 0 .31616-.17646.54653-.52692.69603-.19607.08823-.51957.1593-.97297.21567zm.12989-3.92863zm5.0315 2.08563h1.30872v5.78144c0 .58574.13724 1.01953.41418 1.30137.424.44114 1.21805.64211 2.37728.6029l1.16413-.04412v-1.83565a3.9879 3.9879 0 0 1-.24508.0147c-.08333.00246-.1642.00491-.23773.00491-.49996 0-.79896-.04902-.89699-.1446-.09803-.09313-.1446-.3333-.1446-.71808v-4.96287h1.5244v-1.74987h-1.5244v-2.61746h-2.43119v2.61746h-1.30873zm12.01872 2.98997v.91415c-.01716.82102-.24754 1.38716-.69358 1.69596-.44605.31125-.9313.46565-1.46068.46565-.3333 0-.61515-.09313-.84797-.2794-.23283-.18625-.35047-.49015-.35047-.90924 0-.47055.19116-.81857.56859-1.04404.22547-.13234.59554-.24263 1.11266-.33576l.55143-.10293c.27694-.05147.49261-.10784.64946-.16666.1593-.06127.31616-.1397.47056-.23773zm-1.4901-1.14697l-.83571.10293c-.94846.12254-1.66655.32351-2.15426.60535-.88964.51712-1.33568 1.35284-1.33568 2.50717 0 .88964.27694 1.57832.83082 2.06357.55388.48526 1.25726.7279 2.10769.7279.66661 0 1.26216-.15196 1.79153-.4583.4436-.25734.83327-.57104 1.17148-.93866a7.11836 7.11836 0 0 0 .06863.56858c.0294.16666.08087.34556.15685.53428h2.66892v-.36272c-.1593-.07353-.2794-.1691-.36027-.2843-.08088-.11273-.1299-.33085-.14705-.65436-.01225-.42399-.01715-.7867-.01715-1.0857V44.1841c0-1.13227-.39948-1.90182-1.19844-2.3111-.79651-.40684-1.71066-.61025-2.74-.61025-1.57831 0-2.69343.41173-3.34289 1.2401-.40683.52937-.6372 1.20334-.68867 2.02436h2.36992c.05637-.36272.17156-.64946.34311-.86023.24263-.2892.65191-.43134 1.23275-.43134.51712 0 .90925.07352 1.17639.21812.26713.14705.40193.41419.40193.79896 0 .31616-.17646.54653-.52692.69603-.19607.08823-.51957.1593-.97297.21567zm.1299-3.92863zm12.32753-1.73027c-1.18864 1.19844-1.78174 2.9091-1.78174 5.12463 0 2.05132.52202 3.6664 1.56852 4.84278 1.04404 1.17148 2.4802 1.75722 4.30605 1.75722 1.47783 0 2.68853-.4338 3.63209-1.30137.946-.86514 1.53175-1.9925 1.76212-3.3772h-2.62726c-.1789.65436-.40193 1.14697-.67151 1.47292-.49016.61025-1.19845.91415-2.12975.91415-.9068 0-1.65429-.35536-2.24493-1.06364-.5882-.71074-.88229-1.77683-.88229-3.20075 0-1.42391.2794-2.52677.83572-3.30368.55633-.77935 1.31853-1.16903 2.28415-1.16903.946 0 1.66164.27694 2.14445.82837.26959.3088.4926.76955.66416 1.37735h2.65422c-.04166-.7916-.3333-1.58077-.87984-2.36992-.98767-1.39941-2.55128-2.10034-4.68593-2.10034-1.59792 0-2.914.52202-3.94823 1.56851zm3.8698-1.71556zm13.31275 10.58991c-.38477.50977-.9362.7671-1.65429.7671-.71808 0-1.27196-.25733-1.65919-.7671-.38722-.51222-.58084-1.23765-.58084-2.18121 0-.9411.19362-1.66655.58084-2.17631.38723-.50732.94111-.7622 1.6592-.7622.71808 0 1.2695.25488 1.65428.7622.38478.50976.57594 1.2352.57594 2.1763 0 .94357-.19116 1.669-.57594 2.18122zm1.9631 1.3553c.79405-.97788 1.18863-2.15671 1.18863-3.53651 0-1.3553-.39458-2.52923-1.18863-3.52425-.79161-.99258-1.99496-1.49009-3.61003-1.49009-1.61263 0-2.81842.49751-3.61003 1.49009-.79161.99502-1.18864 2.16896-1.18864 3.52425 0 1.3798.39703 2.55863 1.18864 3.5365.7916.98032 1.9974 1.47048 3.61003 1.47048 1.61507 0 2.81842-.49016 3.61003-1.47048zm-3.61003-8.49938zm14.14356.78916c-.6176-.50977-1.41166-.7622-2.38217-.7622-.77446 0-1.41657.1887-1.92143.56858-.28184.21077-.58084.55878-.897 1.0416v-1.37H88.1877v9.3743h2.4459v-5.08295c0-.58084.08088-1.0563.24018-1.43127.31125-.70583.88229-1.05875 1.71556-1.05875.67887 0 1.13717.24018 1.3798.72299.1299.26469.19606.64456.19606 1.13717v5.71282h2.51698v-6.32307c0-1.17883-.3088-2.0219-.9264-2.52922zm-3.28652-.78916zm5.5143 2.08563h1.30873v5.78144c0 .58574.13724 1.01953.41418 1.30137.424.44114 1.21805.64211 2.37728.6029l1.16413-.04412v-1.83565a3.9879 3.9879 0 0 1-.24508.0147c-.08333.00246-.1642.00491-.23773.00491-.49996 0-.79896-.04902-.897-.1446-.09802-.09313-.14459-.3333-.14459-.71808v-4.96287h1.5244v-1.74987h-1.5244v-2.61746h-2.4312v2.61746h-1.30872zm9.22236.473c.3137-.35536.75485-.53427 1.32343-.53427.52202 0 .96072.1691 1.31363.50486.35292.33576.54898.82837.59064 1.47784h-3.81834c.08087-.61025.27939-1.09061.59064-1.44843zm3.43357-2.11994c-.62495-.29164-1.32833-.4387-2.11014-.4387-1.31608 0-2.38463.4338-3.21054 1.30138-.82347.86759-1.2352 2.11504-1.2352 3.73992 0 1.73517.45584 2.98753 1.36999 3.75708.9117.76955 1.968 1.15433 3.16153 1.15433 1.44842 0 2.57334-.4583 3.3772-1.37.51712-.57594.80632-1.14207.87004-1.6984h-2.50717c-.13234.27694-.2843.4926-.45585.647-.31615.28675-.72789.43135-1.23275.43135-.47546 0-.88474-.11764-1.22295-.35537-.55633-.37742-.85288-1.03914-.8872-1.98025h6.426c.01226-.81121-.01225-1.43126-.07597-1.8626-.11028-.73524-.34801-1.3798-.71563-1.93859-.40683-.62985-.92395-1.09305-1.55136-1.38715zm-1.93858-.4387zm13.52351.78917c-.6176-.50977-1.41166-.7622-2.38217-.7622-.77446 0-1.41657.1887-1.92143.56858-.28184.21077-.58084.55878-.897 1.0416v-1.37h-2.36747v9.3743h2.4459v-5.08295c0-.58084.08088-1.0563.24018-1.43127.31125-.70583.88229-1.05875 1.71556-1.05875.67887 0 1.13717.24018 1.3798.72299.1299.26469.19606.64456.19606 1.13717v5.71282h2.51698v-6.32307c0-1.17883-.3088-2.0219-.9264-2.52922zm-3.28652-.78916zm5.5143 2.08563h1.30873v5.78144c0 .58574.13724 1.01953.41418 1.30137.424.44114 1.21805.64211 2.37728.6029l1.16413-.04412v-1.83565a3.9879 3.9879 0 0 1-.24508.0147c-.08333.00246-.1642.00491-.23773.00491-.49996 0-.79896-.04902-.897-.1446-.09802-.09313-.14459-.3333-.14459-.71808v-4.96287h1.5244v-1.74987h-1.5244v-2.61746h-2.4312v2.61746h-1.30872zm14.51854-2.93851h2.4459c1.2058 0 2.0121.34556 2.41649 1.03914.40438.69112.6078 1.6837.6078 2.97527 0 .9362-.1348 1.74497-.40439 2.42139-.49506 1.2352-1.36754 1.8528-2.6199 1.8528h-2.4459zm4.85749-1.92878c-.52202-.174-1.17639-.26469-1.9631-.27694h-5.47263v12.70005h5.47263c1.91898 0 3.338-.78916 4.25704-2.36993.67643-1.17148 1.01464-2.6003 1.01464-4.2889 0-.66662-.07843-1.36754-.24018-2.10278-.16176-.73524-.4632-1.41902-.90435-2.05132-.55143-.78181-1.27196-1.31853-2.16405-1.61018zm7.63424 1.91162v-2.26699h-2.49002v2.267zm-2.49002 1.12002v9.39147h2.49002v-9.39147zm6.78137 6.39414h-2.49001c0 .96316.35291 1.75722 1.05629 2.38217.70338.6225 1.79399.93376 3.26937.93376 1.44842 0 2.51697-.2941 3.2081-.88229.69357-.5882 1.03913-1.34794 1.03913-2.27924 0-.70583-.24017-1.29648-.72298-1.76703-.48771-.46565-1.2205-.81121-2.19837-1.04159-1.46313-.32105-2.316-.54898-2.55863-.68132-.24018-.125-.36272-.33086-.36272-.61025 0-.22547.11518-.42154.34066-.5882.22792-.1642.6078-.24752 1.14207-.24752.64946 0 1.11021.1642 1.3798.4975.14215.18382.23283.4338.26714.74995h2.4557c-.11029-1.14697-.53427-1.95574-1.27197-2.42384-.73769-.4681-1.6935-.70338-2.86498-.70338-1.2352 0-2.19347.31125-2.87234.9362-.68132.62251-1.02198 1.36755-1.02198 2.23514 0 .73524.21812 1.29892.65436 1.6886.43624.39703 1.18619.72544 2.24984.99012 1.47538.35047 2.32826.598 2.55863.7426.23038.14214.34556.35291.34556.6274 0 .28674-.14214.50241-.42643.64701-.2843.14215-.66907.21567-1.15188.21567-.82102 0-1.3847-.1642-1.6886-.49261-.17156-.18381-.2843-.49261-.33576-.92885zm1.87731-6.64412zm11.63395 3.61983h2.51452c-.13725-1.33814-.58084-2.2719-1.33078-2.80126-.74995-.52693-1.71311-.79161-2.89195-.79161-1.38225 0-2.46795.4485-3.25466 1.34304-.78916.89699-1.18129 2.1518-1.18129 3.76442 0 1.43127.35537 2.5954 1.06855 3.48994.71073.897 1.8234 1.3455 3.33309 1.3455 1.51214 0 2.65177-.53673 3.42132-1.61263.4828-.66662.7524-1.37245.81121-2.11995h-2.50717c-.05391.49507-.19851.897-.44114 1.20825-.24018.3088-.64946.46565-1.22295.46565-.80876 0-1.3602-.39213-1.65429-1.17393-.16175-.41909-.24018-.97297-.24018-1.66165 0-.72298.07843-1.30382.24018-1.74006.3039-.82102.87003-1.23276 1.6984-1.23276.5784 0 1.00728.18872 1.28177.56859.19117.28184.3088.598.35537.94846zm-1.6641-3.61983zm11.73444 7.14408c-.38478.50977-.93621.7671-1.6543.7671-.71808 0-1.2695-.25733-1.65673-.7671-.38968-.51222-.5833-1.23765-.5833-2.18121 0-.9411.19362-1.66655.5833-2.17631.38722-.50732.93865-.7622 1.65674-.7622.71808 0 1.26951.25488 1.65429.7622.38477.50976.57838 1.2352.57838 2.1763 0 .94357-.1936 1.669-.57838 2.18122zm1.96554 1.3553c.7916-.97788 1.18864-2.15671 1.18864-3.53651 0-1.3553-.39703-2.52923-1.18864-3.52425-.79406-.99258-1.9974-1.49009-3.61003-1.49009-1.61508 0-2.81842.49751-3.61003 1.49009-.79406.99502-1.18864 2.16896-1.18864 3.52425 0 1.3798.39458 2.55863 1.18864 3.5365.7916.98032 1.99495 1.47048 3.61003 1.47048 1.61263 0 2.81597-.49016 3.61003-1.47048zm-3.61003-8.49938zm12.34713.24998l-1.99985 6.92841-1.95574-6.92841h-2.75715l3.36985 9.39147h2.59294l3.38701-9.39147zm6.4064 2.30865c.31124-.35536.75239-.53427 1.32097-.53427.52447 0 .96072.1691 1.31363.50486.35537.33576.55143.82837.59064 1.47784h-3.8159c.08088-.61025.27695-1.09061.59065-1.44843zm3.43356-2.11994c-.6274-.29164-1.33078-.4387-2.11259-.4387-1.31363 0-2.38463.4338-3.2081 1.30138-.82591.86759-1.23765 2.11504-1.23765 3.73992 0 1.73517.4583 2.98753 1.37 3.75708.91415.76955 1.96799 1.15433 3.16153 1.15433 1.44842 0 2.57334-.4583 3.37965-1.37.51467-.57594.80632-1.14207.87004-1.6984h-2.50717c-.13234.27694-.2843.4926-.4583.647-.31615.28675-.72544.43135-1.23275.43135-.47546 0-.8823-.11764-1.22295-.35537-.55633-.37742-.85288-1.03914-.8872-1.98025h6.42846c.0098-.81121-.0147-1.43126-.07843-1.8626-.10783-.73524-.34801-1.3798-.71563-1.93859-.40684-.62985-.92395-1.09305-1.5489-1.38715zm-1.93858-.4387zm11.15359.02942c-.03186-.00245-.07107-.00245-.11764-.00245-.73524 0-1.33323.19116-1.79153.57593-.28185.23038-.6127.65927-.99013 1.28422v-1.63713h-2.34541v9.39147h2.47285v-4.48742c0-.75485.09559-1.31118.2843-1.6739.34066-.6421 1.00237-.96316 1.99005-.96316.07597 0 .174.00245.2941.00735.12008.00735.25733.01716.41418.03431V41.2799c-.11029-.00735-.18136-.0098-.21077-.0147zm2.02681 11.41337v1.9631c.26469.0196.4632.0294.59555.03185.13234.00246.30635.0049.52447.0049 1.0857 0 1.81114-.21566 2.1714-.6421.36272-.4289.85288-1.5342 1.47539-3.31349l3.22035-9.23706h-2.6101l-1.93859 6.92841-2.05132-6.92841h-2.73019l3.44583 9.80565c.0245.06862-.02696.25733-.1495.56859-.125.3088-.25734.51466-.40193.6127-.1495.10293-.33331.1691-.55143.19606-.21812.02941-.4485.03921-.68868.02696zm3.32574-11.44278z"/></svg>