<?xml version="1.0" encoding="UTF-8" standalone="no"?>
<svg
   role="img"
   viewBox="-4.53 -4.53 248.82 41.82"
   version="1.1"
   id="svg19"
   xmlns:xlink="http://www.w3.org/1999/xlink"
   xmlns="http://www.w3.org/2000/svg"
   xmlns:svg="http://www.w3.org/2000/svg">
  <defs
     id="defs23" />
  <title
     id="title2">Broadcom Corporation logo</title>
  <path
     d="M237.32 9.09c-1.06 0-1.93-.86-1.93-1.92s.87-1.93 1.93-1.93 1.93.87 1.93 1.93-.87 1.92-1.93 1.92m0-4.32c-1.32 0-2.4 1.08-2.4 2.4 0 1.32 1.08 2.4 2.4 2.4 1.32 0 2.4-1.08 2.4-2.4 0-1.32-1.08-2.4-2.4-2.4"
     id="path4" />
  <path
     d="M237.48 7.07l-.51.01-.01-.62h.51c.19-.01.34.11.34.3.01.19-.14.31-.33.31m.83-.32c-.01-.42-.3-.72-.77-.72l-1.07.02.03 2.26h.49l-.01-.81h.35l.46.8.55-.01-.52-.86c.24-.06.49-.28.49-.68M51.8341 23.1805h-5.999V9.3465h5.835c1.574 0 2.557 1.016 2.557 2.393 0 1.377-.983 2.36-2.557 2.36H45v4h6.8341c1.836 0 2.819 1.18 2.819 2.556 0 1.574-1.049 2.525-2.819 2.525m3.376-7.245c2.066-.426 3.771-2.262 3.771-5.015 0-2.918-2.131-5.573-6.295-5.573h-11.506v21.865h11.867c4.163 0 6.359-2.623 6.359-5.901 0-2.754-1.868-5.015-4.196-5.376m17.8225-.5902H68v4.098h3.5576l4.294 7.769h5.343l-4.917-8.327c2.361-.557 4.786-2.622 4.786-6.49m0 0c0-4.065-2.786-7.048-7.343-7.048h-10.228v21.865h4.655V9.4453h4.885c1.869 0 3.278 1.114 3.278 2.95s-1.409 2.95-3.278 2.95m43.4206 4.0652l3.409-9.408 3.41 9.408zm.492-14.063l-8.458 21.865h5.31l1.377-3.704h9.376l1.344 3.704h5.311l-8.425-21.865zm26.9039 17.7671h-3.967v-13.67h3.967c4.491 0 6.851 2.983 6.851 6.852 0 3.704-2.524 6.818-6.851 6.818m0-17.767h-8.622v21.865h8.622c6.851 0 11.604-4.327 11.604-10.916s-4.753-10.949-11.604-10.949m82.1269-.0045l-5.734 9.27-5.734-9.27h-5.146v21.869h4.656v-14.293l5.012 7.622c.574.871 1.851.871 2.424 0l5.013-7.622v14.293h4.656V5.3431z"
     id="path6" />
  <path
     id="a"
     d="M95.8253 23.3441c-3.871 0-7.008-3.138-7.008-7.008 0-3.871 3.137-7.009 7.008-7.009 3.87 0 7.008 3.138 7.008 7.009 0 3.87-3.138 7.008-7.008 7.008m0-18.536c-6.367 0-11.528 5.161-11.528 11.528 0 6.366 5.161 11.527 11.528 11.527 6.366 0 11.528-5.161 11.528-11.527 0-6.367-5.162-11.528-11.528-11.528" />
  <path
     d="M176.4035 19.7269c-1.195 2.156-3.492 3.617-6.132 3.617-3.87 0-7.008-3.138-7.008-7.008 0-3.871 3.138-7.008 7.008-7.008 2.618 0 4.897 1.438 6.1 3.565l3.27-3.269c-2.092-2.915-5.508-4.816-9.37-4.816-6.367 0-11.527 5.161-11.527 11.528 0 6.366 5.16 11.528 11.527 11.528 3.883 0 7.316-1.922 9.404-4.865z"
     id="path9" />
  <use
     transform="translate(98.718)"
     xlink:href="#a"
     id="use11" />
  <ellipse
     cx="16.52"
     cy="16.497"
     fill="#cc092f"
     rx="16.236"
     ry="16.235"
     id="ellipse13" />
  <path
     fill="#fff"
     d="M30.8253 20.8832c-1.857-.74-3.557-.492-5.261.541 0 0-.621.379-.807.496-.794.498-1.543.97-2.263.97-.687 0-1.363-.184-1.649-1.513-.446-2.073-1.534-7.167-2.009-9.69-.279-1.483-.432-2.282-.591-2.825-.28-.954-.792-1.473-1.519-1.556 0 0-.114-.016-.207-.016-.092 0-.218.018-.218.018-.72.086-1.229.605-1.507 1.554-.159.543-.312 1.342-.591 2.825-.475 2.523-1.563 7.617-2.009 9.69-.286 1.329-.962 1.513-1.649 1.513-.72 0-1.469-.472-2.263-.97-.186-.117-.808-.496-.808-.496-1.703-1.033-3.404-1.281-5.26-.541-.401.16-.79596.33918-1.17196.52018.257.806.57693 1.59925.94993 2.34425.411-.202.84203-.40243 1.28203-.53243.634-.187 1.284-.197 1.914.014.612.205 1.157.568 1.7.909 1.023.643 2.182 1.372 3.657 1.372 2.186 0 3.72-1.305 4.21-3.581.38-1.764 1.222-5.702 1.763-8.418 0 0 1.386 6.654 1.765 8.418.49 2.276 2.025 3.581 4.211 3.581 1.475 0 2.634-.729 3.657-1.372.543-.341 1.088-.704 1.7-.909.629-.211 1.28-.201 1.914-.014.44.13.87039.33065 1.28139.53265.374-.745.69309-1.53862.95009-2.34462-.376-.181-.77048-.36003-1.17148-.52003"
     id="path15" />
  <g
     aria-label="Datacom DST API"
     id="text17"
     style="font-size:10px;text-anchor:middle">
    <path
       d="m 86.792816,46.37207 q 0,0.991211 -0.43457,1.796875 -0.429688,0.805664 -1.147461,1.25 -0.498047,0.307617 -1.113281,0.444336 Q 83.487152,50 82.486176,50 h -1.835938 v -7.270508 h 1.816406 q 1.064453,0 1.689453,0.15625 0.629883,0.151367 1.064454,0.419922 0.742187,0.463867 1.157226,1.235352 0.415039,0.771484 0.415039,1.831054 z m -1.010742,-0.01465 q 0,-0.854492 -0.297852,-1.44043 Q 85.186371,44.331055 84.595551,43.994141 84.165863,43.75 83.682465,43.657227 83.199066,43.55957 82.525238,43.55957 h -0.908203 v 5.610352 h 0.908203 q 0.698242,0 1.21582,-0.102539 0.522461,-0.102539 0.957032,-0.38086 0.541992,-0.346679 0.810546,-0.913086 0.273438,-0.566406 0.273438,-1.416015 z"
       id="path25" />
    <path
       d="m 92.520355,50 h -0.913086 v -0.581055 q -0.12207,0.08301 -0.332031,0.234375 -0.205078,0.146485 -0.400391,0.234375 Q 90.645355,50 90.347504,50.073242 q -0.297852,0.07813 -0.698243,0.07813 -0.737304,0 -1.25,-0.488281 -0.512695,-0.488281 -0.512695,-1.245117 0,-0.620117 0.263672,-1.000977 0.268555,-0.385742 0.761719,-0.605469 0.498047,-0.219726 1.196289,-0.297851 0.698242,-0.07813 1.499023,-0.117188 v -0.141601 q 0,-0.3125 -0.112304,-0.517578 -0.107422,-0.205078 -0.3125,-0.322266 -0.195313,-0.112305 -0.46875,-0.151367 -0.273438,-0.03906 -0.571289,-0.03906 -0.361329,0 -0.805665,0.09766 -0.444335,0.09277 -0.917968,0.273437 h -0.04883 v -0.932617 q 0.268554,-0.07324 0.776367,-0.161133 0.507812,-0.08789 1.000976,-0.08789 0.576172,0 1.000977,0.09766 0.429687,0.09277 0.742187,0.322265 0.307618,0.22461 0.46875,0.581055 0.161133,0.356445 0.161133,0.883789 z m -0.913086,-1.342773 v -1.518555 q -0.419922,0.02441 -0.991211,0.07324 -0.566406,0.04883 -0.898437,0.141602 -0.395508,0.112304 -0.639649,0.351562 -0.24414,0.234375 -0.24414,0.649414 0,0.46875 0.283203,0.708008 0.283203,0.234375 0.864258,0.234375 0.483398,0 0.883789,-0.185547 0.40039,-0.19043 0.742187,-0.454101 z"
       id="path27" />
    <path
       d="m 97.119965,49.951172 q -0.258789,0.06836 -0.566407,0.112305 -0.302734,0.04395 -0.541992,0.04395 -0.834961,0 -1.269531,-0.449219 -0.43457,-0.449219 -0.43457,-1.44043 v -2.90039 h -0.620118 v -0.771485 h 0.620118 v -1.567382 h 0.917968 v 1.567382 h 1.894532 v 0.771485 h -1.894532 v 2.485351 q 0,0.429688 0.01953,0.673828 0.01953,0.239258 0.136718,0.449219 0.107422,0.195313 0.292969,0.288086 0.19043,0.08789 0.576172,0.08789 0.224609,0 0.46875,-0.06348 0.244141,-0.06836 0.351562,-0.112304 h 0.04883 z"
       id="path29" />
    <path
       d="m 102.46664,50 h -0.91308 v -0.581055 q -0.12207,0.08301 -0.33203,0.234375 -0.20508,0.146485 -0.40039,0.234375 -0.2295,0.112305 -0.52735,0.185547 -0.297849,0.07813 -0.698239,0.07813 -0.737305,0 -1.25,-0.488281 -0.512696,-0.488281 -0.512696,-1.245117 0,-0.620117 0.263672,-1.000977 0.268555,-0.385742 0.761719,-0.605469 0.498047,-0.219726 1.196284,-0.297851 0.69825,-0.07813 1.49903,-0.117188 v -0.141601 q 0,-0.3125 -0.11231,-0.517578 -0.10742,-0.205078 -0.3125,-0.322266 -0.19531,-0.112305 -0.46875,-0.151367 -0.27343,-0.03906 -0.57129,-0.03906 -0.361324,0 -0.805659,0.09766 -0.444336,0.09277 -0.917969,0.273437 h -0.04883 v -0.932617 q 0.268554,-0.07324 0.776367,-0.161133 0.507812,-0.08789 1.000979,-0.08789 0.57617,0 1.00097,0.09766 0.42969,0.09277 0.74219,0.322265 0.30762,0.22461 0.46875,0.581055 0.16113,0.356445 0.16113,0.883789 z m -0.91308,-1.342773 v -1.518555 q -0.41992,0.02441 -0.99121,0.07324 -0.566409,0.04883 -0.89844,0.141602 -0.395508,0.112304 -0.639649,0.351562 -0.24414,0.234375 -0.24414,0.649414 0,0.46875 0.283203,0.708008 0.283203,0.234375 0.864258,0.234375 0.483398,0 0.883788,-0.185547 0.40039,-0.19043 0.74219,-0.454101 z"
       id="path31" />
    <path
       d="M 108.26743,49.658203 Q 107.80844,49.87793 107.3934,50 q -0.41015,0.12207 -0.87402,0.12207 -0.59082,0 -1.08399,-0.170898 -0.49316,-0.175781 -0.84472,-0.527344 -0.35645,-0.351562 -0.55176,-0.888672 -0.19531,-0.537109 -0.19531,-1.254883 0,-1.33789 0.73242,-2.099609 0.7373,-0.761719 1.94336,-0.761719 0.46875,0 0.91797,0.131836 0.4541,0.131836 0.83008,0.322266 v 1.020508 h -0.0488 q -0.41992,-0.327149 -0.86914,-0.50293 -0.44434,-0.175781 -0.86914,-0.175781 -0.78125,0 -1.23536,0.527343 -0.44921,0.522461 -0.44921,1.538086 0,0.986329 0.43945,1.518555 0.44433,0.527344 1.24512,0.527344 0.27832,0 0.5664,-0.07324 0.28809,-0.07324 0.51758,-0.19043 0.2002,-0.102539 0.37598,-0.214844 0.17578,-0.117187 0.27832,-0.200195 h 0.0488 z"
       id="path33" />
    <path
       d="m 114.09262,47.275391 q 0,1.333007 -0.68359,2.104492 -0.6836,0.771484 -1.83106,0.771484 -1.15722,0 -1.84082,-0.771484 -0.67871,-0.771485 -0.67871,-2.104492 0,-1.333008 0.67871,-2.104493 0.6836,-0.776367 1.84082,-0.776367 1.14746,0 1.83106,0.776367 0.68359,0.771485 0.68359,2.104493 z m -0.94726,0 q 0,-1.059571 -0.41504,-1.572266 -0.41504,-0.517578 -1.15235,-0.517578 -0.74707,0 -1.16211,0.517578 -0.41015,0.512695 -0.41015,1.572266 0,1.02539 0.41504,1.557617 0.41503,0.527344 1.15722,0.527344 0.73242,0 1.14746,-0.522461 0.41993,-0.527344 0.41993,-1.5625 z"
       id="path35" />
    <path
       d="m 123.4725,50 h -0.91797 v -3.105469 q 0,-0.351562 -0.0342,-0.678711 -0.0293,-0.327148 -0.13184,-0.522461 -0.11231,-0.209961 -0.32227,-0.317382 -0.20996,-0.107422 -0.60547,-0.107422 -0.38574,0 -0.77148,0.195312 -0.38574,0.19043 -0.77148,0.488281 0.0146,0.112305 0.0244,0.263672 0.01,0.146485 0.01,0.292969 V 50 h -0.91797 v -3.105469 q 0,-0.361328 -0.0342,-0.683594 -0.0293,-0.327148 -0.13184,-0.52246 -0.1123,-0.209961 -0.32226,-0.3125 -0.20997,-0.107422 -0.60547,-0.107422 -0.37598,0 -0.75684,0.185547 -0.37598,0.185546 -0.75195,0.473632 V 50 h -0.91797 v -5.454102 h 0.91797 v 0.605469 q 0.42969,-0.356445 0.85449,-0.55664 0.42969,-0.200196 0.91309,-0.200196 0.55664,0 0.94238,0.234375 0.39062,0.234375 0.58105,0.649414 0.55664,-0.46875 1.01563,-0.673828 0.45898,-0.209961 0.98144,-0.209961 0.89844,0 1.32325,0.546875 0.42968,0.541992 0.42968,1.518555 z"
       id="path37" />
    <path
       d="m 134.97153,46.37207 q 0,0.991211 -0.43457,1.796875 -0.42969,0.805664 -1.14746,1.25 -0.49805,0.307617 -1.11329,0.444336 Q 131.66586,50 130.66489,50 h -1.83594 v -7.270508 h 1.81641 q 1.06445,0 1.68945,0.15625 0.62988,0.151367 1.06445,0.419922 0.74219,0.463867 1.15723,1.235352 0.41504,0.771484 0.41504,1.831054 z m -1.01075,-0.01465 q 0,-0.854492 -0.29785,-1.44043 -0.29785,-0.585937 -0.88867,-0.922851 -0.42969,-0.244141 -0.91308,-0.336914 -0.4834,-0.09766 -1.15723,-0.09766 h -0.9082 v 5.610352 h 0.9082 q 0.69824,0 1.21582,-0.102539 0.52246,-0.102539 0.95703,-0.38086 0.54199,-0.346679 0.81055,-0.913086 0.27343,-0.566406 0.27343,-1.416015 z"
       id="path39" />
    <path
       d="m 141.81723,47.924805 q 0,0.424804 -0.2002,0.839843 -0.19531,0.415039 -0.55175,0.703125 -0.39063,0.3125 -0.91309,0.488282 -0.51758,0.175781 -1.25,0.175781 -0.78613,0 -1.41601,-0.146484 -0.625,-0.146485 -1.27442,-0.434571 v -1.210937 h 0.0684 q 0.55176,0.458984 1.27441,0.708008 0.72266,0.249023 1.35743,0.249023 0.89843,0 1.39648,-0.336914 0.50293,-0.336914 0.50293,-0.898438 0,-0.483398 -0.23926,-0.71289 -0.23437,-0.229492 -0.71777,-0.356446 -0.36621,-0.09766 -0.7959,-0.161132 -0.4248,-0.06348 -0.90332,-0.161133 -0.9668,-0.205078 -1.43555,-0.698242 -0.46386,-0.498047 -0.46386,-1.293946 0,-0.913086 0.77148,-1.49414 0.77149,-0.585938 1.95801,-0.585938 0.7666,0 1.40625,0.146485 0.63965,0.146484 1.13281,0.361328 v 1.142578 h -0.0684 q -0.41504,-0.351563 -1.09375,-0.581055 -0.67383,-0.234375 -1.38183,-0.234375 -0.77637,0 -1.25,0.322266 -0.46875,0.322265 -0.46875,0.830078 0,0.454101 0.23437,0.712891 0.23438,0.258789 0.8252,0.395507 0.3125,0.06836 0.88867,0.166016 0.57617,0.09766 0.97656,0.200195 0.81055,0.214844 1.2207,0.649414 0.41016,0.434571 0.41016,1.215821 z"
       id="path41" />
    <path
       d="m 148.55551,43.588867 h -2.59765 V 50 h -0.9668 v -6.411133 h -2.59766 v -0.859375 h 6.16211 z"
       id="path43" />
    <path
       d="m 158.78012,50 h -1.03027 l -0.71289,-2.026367 h -3.14453 L 153.17953,50 h -0.98144 l 2.64648,-7.270508 h 1.28907 z m -2.04101,-2.856445 -1.27442,-3.569336 -1.2793,3.569336 z"
       id="path45" />
    <path
       d="m 164.6395,44.926758 q 0,0.483398 -0.1709,0.898437 -0.16602,0.410157 -0.46875,0.712891 -0.37598,0.375976 -0.88867,0.566406 -0.5127,0.185547 -1.29395,0.185547 h -0.9668 V 50 h -0.96679 v -7.270508 h 1.97265 q 0.6543,0 1.1084,0.112305 0.4541,0.107422 0.80567,0.341797 0.41503,0.27832 0.63964,0.693359 0.2295,0.415039 0.2295,1.049805 z m -1.00586,0.02441 q 0,-0.375977 -0.13184,-0.654297 -0.13184,-0.27832 -0.40039,-0.454102 -0.23438,-0.151367 -0.53711,-0.214843 -0.29785,-0.06836 -0.75684,-0.06836 h -0.95703 v 2.905274 h 0.81543 q 0.58594,0 0.95215,-0.102539 0.36621,-0.107422 0.5957,-0.336914 0.2295,-0.234375 0.32227,-0.493164 0.0977,-0.25879 0.0977,-0.581055 z"
       id="path47" />
    <path
       d="m 168.47739,50 h -2.8711 v -0.742188 h 0.95215 V 43.47168 h -0.95215 v -0.742188 h 2.8711 v 0.742188 h -0.95215 v 5.786132 h 0.95215 z"
       id="path49" />
  </g>
</svg>
