<?xml version="1.0" encoding="UTF-8" standalone="no"?>
<svg
   role="img"
   viewBox="-4.53 -4.53 239.436 51.803429"
   version="1.1"
   id="svg4"
   width="239.436"
   height="51.803429"
   xmlns:xlink="http://www.w3.org/1999/xlink"
   xmlns="http://www.w3.org/2000/svg"
   xmlns:svg="http://www.w3.org/2000/svg">
  <defs
     id="defs4" />
  <title
     id="title1">Broadcom Corporation logo</title>
  <path
     d="m 232.506,4.2980009 c -1.06,0 -1.93,-0.86 -1.93,-1.92 0,-1.06 0.87,-1.93000003 1.93,-1.93000003 1.06,0 1.93,0.87000003 1.93,1.93000003 0,1.06 -0.87,1.92 -1.93,1.92 m 0,-4.32000003 c -1.32,0 -2.4,1.08000003 -2.4,2.40000003 0,1.32 1.08,2.4 2.4,2.4 1.32,0 2.4,-1.08 2.4,-2.4 0,-1.32 -1.08,-2.40000003 -2.4,-2.40000003"
     id="path1" />
  <path
     d="m 232.666,2.2780009 -0.51,0.01 -0.01,-0.62 h 0.51 c 0.19,-0.01 0.34,0.11 0.34,0.3 0.01,0.19 -0.14,0.31 -0.33,0.31 m 0.83,-0.32 c -0.01,-0.42 -0.3,-0.72 -0.77,-0.72 l -1.07,0.02 0.03,2.26 h 0.49 l -0.01,-0.81 h 0.35 l 0.46,0.8 0.55,-0.01 -0.52,-0.86 c 0.24,-0.06 0.49,-0.28 0.49,-0.68 M 47.0201,18.388501 h -5.999 V 4.5545009 h 5.835 c 1.574,0 2.557,1.016 2.557,2.393 0,1.377 -0.983,2.36 -2.557,2.36 H 40.186 v 4.0000001 h 6.8341 c 1.836,0 2.819,1.18 2.819,2.556 0,1.574 -1.049,2.525 -2.819,2.525 m 3.376,-7.245 c 2.066,-0.426 3.771,-2.2620001 3.771,-5.0150001 0,-2.918 -2.131,-5.57300003 -6.295,-5.57300003 H 36.3661 V 22.420501 h 11.867 c 4.163,0 6.359,-2.623 6.359,-5.901 0,-2.754 -1.868,-5.015 -4.196,-5.376 m 17.8225,-0.5902 H 63.186 v 4.098 h 3.5576 l 4.294,7.769 h 5.343 l -4.917,-8.327 c 2.361,-0.557 4.786,-2.622 4.786,-6.4900001 m 0,0 c 0,-4.065 -2.786,-7.04800003 -7.343,-7.04800003 H 58.6786 V 22.420301 h 4.655 V 4.6533009 h 4.885 c 1.869,0 3.278,1.114 3.278,2.95 0,1.836 -1.409,2.9500001 -3.278,2.9500001 m 43.4206,4.0652 3.409,-9.4080001 3.41,9.4080001 z m 0.492,-14.06300013 -8.458,21.86500013 h 5.31 l 1.377,-3.704 h 9.376 l 1.344,3.704 h 5.311 L 117.9662,0.55550087 Z M 139.0351,18.322601 h -3.967 V 4.6526009 h 3.967 c 4.491,0 6.851,2.983 6.851,6.8520001 0,3.704 -2.524,6.818 -6.851,6.818 m 0,-17.76700013 h -8.622 V 22.420601 h 8.622 c 6.851,0 11.604,-4.327 11.604,-10.916 0,-6.5890001 -4.753,-10.94900013 -11.604,-10.94900013 m 82.1269,-0.0045 -5.734,9.27000003 -5.734,-9.27000003 h -5.146 V 22.420101 h 4.656 V 8.1271009 l 5.012,7.6220001 c 0.574,0.871 1.851,0.871 2.424,0 l 5.013,-7.6220001 V 22.420101 h 4.656 V 0.55110087 Z"
     id="path2" />
  <path
     id="a"
     d="m 91.0113,18.552101 c -3.871,0 -7.008,-3.138 -7.008,-7.008 0,-3.8710001 3.137,-7.0090001 7.008,-7.0090001 3.87,0 7.008,3.138 7.008,7.0090001 0,3.87 -3.138,7.008 -7.008,7.008 m 0,-18.53600013 c -6.367,0 -11.528,5.16100003 -11.528,11.52800013 0,6.366 5.161,11.527 11.528,11.527 6.366,0 11.528,-5.161 11.528,-11.527 0,-6.3670001 -5.162,-11.52800013 -11.528,-11.52800013" />
  <path
     d="m 171.5895,14.934901 c -1.195,2.156 -3.492,3.617 -6.132,3.617 -3.87,0 -7.008,-3.138 -7.008,-7.008 0,-3.8710001 3.138,-7.0080001 7.008,-7.0080001 2.618,0 4.897,1.438 6.1,3.565 l 3.27,-3.269 c -2.092,-2.915 -5.508,-4.81600003 -9.37,-4.81600003 -6.367,0 -11.527,5.16100003 -11.527,11.52800013 0,6.366 5.16,11.528 11.527,11.528 3.883,0 7.316,-1.922 9.404,-4.865 z"
     id="path3" />
  <use
     transform="translate(98.718)"
     xlink:href="#a"
     id="use3" />
  <ellipse
     cx="11.706"
     cy="11.705001"
     fill="#cc092f"
     rx="16.236"
     ry="16.235001"
     id="ellipse3" />
  <path
     fill="#ffffff"
     d="m 26.0113,16.091201 c -1.857,-0.74 -3.557,-0.492 -5.261,0.541 0,0 -0.621,0.379 -0.807,0.496 -0.794,0.498 -1.543,0.97 -2.263,0.97 -0.687,0 -1.363,-0.184 -1.649,-1.513 -0.446,-2.073 -1.534,-7.1670001 -2.009,-9.6900001 -0.279,-1.483 -0.432,-2.282 -0.591,-2.825 -0.28,-0.954 -0.792,-1.473 -1.519,-1.556 0,0 -0.114,-0.016 -0.207,-0.016 -0.092,0 -0.218,0.018 -0.218,0.018 -0.72,0.086 -1.229,0.605 -1.5070004,1.554 -0.159,0.543 -0.312,1.342 -0.591,2.825 -0.475,2.523 -1.563,7.6170001 -2.009,9.6900001 -0.286,1.329 -0.962,1.513 -1.649,1.513 -0.72,0 -1.469,-0.472 -2.263,-0.97 -0.186,-0.117 -0.808,-0.496 -0.808,-0.496 -1.703,-1.033 -3.404,-1.281 -5.26,-0.541 -0.401,0.16 -0.79596,0.33918 -1.17196,0.52018 0.257,0.806 0.57693,1.59925 0.94993,2.34425 0.411,-0.202 0.84203,-0.40243 1.28203,-0.53243 0.634,-0.187 1.284,-0.197 1.914,0.014 0.612,0.205 1.157,0.568 1.7,0.909 1.023,0.643 2.182,1.372 3.657,1.372 2.186,0 3.72,-1.305 4.21,-3.581 0.3800004,-1.764 1.2220004,-5.702 1.7630004,-8.4180001 0,0 1.386,6.6540001 1.765,8.4180001 0.49,2.276 2.025,3.581 4.211,3.581 1.475,0 2.634,-0.729 3.657,-1.372 0.543,-0.341 1.088,-0.704 1.7,-0.909 0.629,-0.211 1.28,-0.201 1.914,-0.014 0.44,0.13 0.87039,0.33065 1.28139,0.53265 0.374,-0.745 0.69309,-1.53862 0.95009,-2.34462 -0.376,-0.181 -0.77048,-0.36003 -1.17148,-0.52003"
     id="path4" />
  <path
     d="m 63.304497,45.208 h -4.790039 v -7.270508 h 4.790039 v 0.859375 h -3.823242 v 1.992188 h 3.823242 v 0.859375 h -3.823242 v 2.700195 h 3.823242 z m 6.020508,0 h -0.917969 v -3.105469 q 0,-0.375976 -0.04395,-0.703125 -0.04395,-0.332031 -0.161133,-0.517578 -0.122071,-0.205078 -0.351563,-0.302734 -0.229492,-0.102539 -0.595703,-0.102539 -0.375976,0 -0.786133,0.185547 -0.410156,0.185547 -0.786133,0.473633 V 45.208 h -0.917968 v -5.454101 h 0.917968 v 0.605468 q 0.429688,-0.356445 0.888672,-0.55664 0.458985,-0.200196 0.942383,-0.200196 0.883789,0 1.347656,0.532227 0.463868,0.532227 0.463868,1.533203 z m 6.191406,0 h -0.917969 v -0.571289 q -0.395508,0.341797 -0.825195,0.532227 -0.429688,0.190429 -0.932617,0.190429 -0.976563,0 -1.552735,-0.751953 -0.571289,-0.751953 -0.571289,-2.084961 0,-0.693359 0.195313,-1.235351 0.200195,-0.541992 0.537109,-0.922852 0.332031,-0.371094 0.771484,-0.566406 0.444336,-0.195313 0.917969,-0.195313 0.429688,0 0.761719,0.09277 0.332031,0.08789 0.698242,0.27832 v -2.363281 h 0.917969 z m -0.917969,-1.342773 v -3.129883 q -0.371094,-0.166016 -0.664062,-0.229492 -0.292969,-0.06348 -0.639649,-0.06348 -0.771484,0 -1.201172,0.53711 -0.429687,0.537109 -0.429687,1.523437 0,0.97168 0.332031,1.479492 0.332031,0.50293 1.064453,0.50293 0.390625,0 0.791016,-0.170899 0.40039,-0.175781 0.74707,-0.449218 z m 7.290039,-1.289063 h -4.018555 q 0,0.50293 0.151368,0.878906 0.151367,0.371094 0.415039,0.610352 0.253906,0.234375 0.600586,0.351563 0.351562,0.117187 0.771484,0.117187 0.556641,0 1.118164,-0.219727 0.566406,-0.224609 0.805664,-0.439453 h 0.04883 v 1.000977 q -0.463867,0.195312 -0.947265,0.327148 -0.483399,0.131836 -1.015625,0.131836 -1.357422,0 -2.119141,-0.732422 -0.761719,-0.737304 -0.761719,-2.089843 0,-1.337891 0.727539,-2.124024 0.732422,-0.786133 1.923828,-0.786133 1.103516,0 1.699219,0.644532 0.600586,0.644531 0.600586,1.831054 z m -0.893555,-0.703125 q -0.0049,-0.722656 -0.36621,-1.118164 -0.356446,-0.395508 -1.088868,-0.395508 -0.737304,0 -1.176757,0.434571 -0.434571,0.43457 -0.493165,1.079101 z M 87.99688,39.753899 85.789848,45.208 h -0.922851 l -2.192383,-5.454101 h 0.996094 l 1.689453,4.34082 1.674805,-4.34082 z m 5.761718,2.729492 q 0,1.333008 -0.683593,2.104492 -0.683594,0.771484 -1.831055,0.771484 -1.157227,0 -1.84082,-0.771484 -0.678711,-0.771484 -0.678711,-2.104492 0,-1.333008 0.678711,-2.104492 0.683593,-0.776368 1.84082,-0.776368 1.147461,0 1.831055,0.776368 0.683593,0.771484 0.683593,2.104492 z m -0.947265,0 q 0,-1.059571 -0.415039,-1.572266 -0.415039,-0.517578 -1.152344,-0.517578 -0.74707,0 -1.162109,0.517578 -0.410157,0.512695 -0.410157,1.572266 0,1.02539 0.415039,1.557617 0.415039,0.527344 1.157227,0.527344 0.732422,0 1.147461,-0.522461 0.419922,-0.527344 0.419922,-1.5625 z m 5.771484,-1.728516 h -0.04883 q -0.205078,-0.04883 -0.400391,-0.06836 -0.190429,-0.02441 -0.454101,-0.02441 -0.424805,0 -0.820313,0.190429 -0.395508,0.185547 -0.761718,0.483399 V 45.208 h -0.917969 v -5.454101 h 0.917969 v 0.805664 q 0.546875,-0.439453 0.961914,-0.620118 0.419921,-0.185546 0.854492,-0.185546 0.239258,0 0.346679,0.01465 0.107422,0.0098 0.322266,0.04395 z m 9.184573,1.254883 q 0,1.748047 -1.24024,2.988281 -1.23535,1.235352 -2.9834,1.235352 -1.74804,0 -2.98828,-1.235352 -1.235348,-1.240234 -1.235348,-2.988281 0,-1.748047 1.235348,-2.983398 1.24024,-1.240235 2.98828,-1.240235 1.74805,0 2.9834,1.240235 1.24024,1.235351 1.24024,2.983398 z m -0.56641,0 q 0,-1.513672 -1.07422,-2.597656 -1.06933,-1.083985 -2.58301,-1.083985 -1.51367,0 -2.58789,1.083985 -1.069332,1.083984 -1.069332,2.597656 0,1.513672 1.069332,2.597656 1.07422,1.083985 2.58789,1.083985 1.51368,0 2.58301,-1.083985 1.07422,-1.083984 1.07422,-2.597656 z m -0.9375,2.148437 h -1.08887 l -1.61621,-1.733398 h -0.79101 v 1.733398 h -0.80567 v -4.467773 h 1.52344 q 0.45899,0 0.75684,0.03906 0.29785,0.03906 0.58593,0.190429 0.30762,0.166016 0.44922,0.405274 0.14649,0.234375 0.14649,0.59082 0,0.473633 -0.27832,0.791016 -0.27344,0.3125 -0.75684,0.498046 z m -1.71875,-3.188476 q 0,-0.175781 -0.0684,-0.3125 -0.0684,-0.136719 -0.22949,-0.224609 -0.15137,-0.08301 -0.32227,-0.107422 -0.17089,-0.02441 -0.42968,-0.02441 h -0.72754 v 1.508789 h 0.62011 q 0.30274,0 0.52247,-0.04395 0.21972,-0.04883 0.36132,-0.161132 0.15137,-0.122071 0.20996,-0.268555 0.0635,-0.146485 0.0635,-0.366211 z m 13.97461,2.001953 q 0,0.541992 -0.20508,0.957031 -0.20508,0.415039 -0.55176,0.683594 -0.41015,0.322266 -0.90332,0.458984 Q 116.3709,45.208 115.61407,45.208 h -2.57813 v -7.270508 h 2.15332 q 0.7959,0 1.19141,0.05859 0.39551,0.05859 0.75683,0.244141 0.4004,0.209961 0.58106,0.541992 0.18066,0.327148 0.18066,0.786133 0,0.517578 -0.26367,0.883789 -0.26367,0.361328 -0.70312,0.581054 v 0.03906 q 0.7373,0.151367 1.16211,0.649414 0.4248,0.493164 0.4248,1.25 z m -1.62598,-3.276367 q 0,-0.263672 -0.0879,-0.444336 -0.0879,-0.180664 -0.2832,-0.292969 -0.22949,-0.131836 -0.55664,-0.161133 -0.32715,-0.03418 -0.81055,-0.03418 h -1.15234 v 2.099609 h 1.25 q 0.4541,0 0.72266,-0.04395 0.26855,-0.04883 0.49804,-0.195313 0.22949,-0.146484 0.32227,-0.375976 0.0977,-0.234375 0.0977,-0.551758 z m 0.62012,3.31543 q 0,-0.439454 -0.13183,-0.698243 -0.13184,-0.258789 -0.47852,-0.439453 -0.23438,-0.12207 -0.57129,-0.15625 -0.33203,-0.03906 -0.81055,-0.03906 h -1.51855 v 2.705078 h 1.2793 q 0.63476,0 1.04003,-0.06348 0.40528,-0.06836 0.66407,-0.24414 0.27343,-0.19043 0.40039,-0.434571 0.12695,-0.24414 0.12695,-0.629882 z m 5.70801,-2.25586 h -0.0488 q -0.20508,-0.04883 -0.40039,-0.06836 -0.19043,-0.02441 -0.4541,-0.02441 -0.42481,0 -0.82031,0.190429 -0.39551,0.185547 -0.76172,0.483399 V 45.208 h -0.91797 v -5.454101 h 0.91797 v 0.805664 q 0.54687,-0.439453 0.96191,-0.620118 0.41992,-0.185546 0.85449,-0.185546 0.23926,0 0.34668,0.01465 0.10743,0.0098 0.32227,0.04395 z m 1.85058,-1.914062 h -1.03515 v -0.952149 h 1.03515 z m -0.0586,6.367187 h -0.91797 v -5.454101 h 0.91797 z m 6.24024,0 h -0.91797 v -0.571289 q -0.39551,0.341797 -0.8252,0.532227 -0.42969,0.190429 -0.93262,0.190429 -0.97656,0 -1.55273,-0.751953 -0.57129,-0.751953 -0.57129,-2.084961 0,-0.693359 0.19531,-1.235351 0.2002,-0.541992 0.53711,-0.922852 0.33203,-0.371094 0.77149,-0.566406 0.44433,-0.195313 0.91797,-0.195313 0.42968,0 0.76171,0.09277 0.33204,0.08789 0.69825,0.27832 v -2.363281 h 0.91797 z m -0.91797,-1.342773 v -3.129883 q -0.3711,-0.166016 -0.66407,-0.229492 -0.29296,-0.06348 -0.63964,-0.06348 -0.77149,0 -1.20118,0.53711 -0.42968,0.537109 -0.42968,1.523437 0,0.97168 0.33203,1.479492 0.33203,0.50293 1.06445,0.50293 0.39063,0 0.79102,-0.170899 0.40039,-0.175781 0.74707,-0.449218 z m 7.14843,0.722656 q 0,1.386719 -0.62988,2.036133 -0.62988,0.649414 -1.93848,0.649414 -0.43457,0 -0.8496,-0.06348 -0.41016,-0.05859 -0.81055,-0.170898 v -0.9375 h 0.0488 q 0.22461,0.08789 0.71289,0.214844 0.48828,0.131836 0.97656,0.131836 0.46875,0 0.77637,-0.112305 0.30761,-0.112305 0.47851,-0.3125 0.1709,-0.19043 0.24414,-0.458985 0.0732,-0.268554 0.0732,-0.600585 v -0.498047 q -0.41504,0.332031 -0.7959,0.498047 -0.37598,0.161132 -0.96192,0.161132 -0.97656,0 -1.55273,-0.703125 -0.57129,-0.708007 -0.57129,-1.992187 0,-0.703125 0.19531,-1.210938 0.2002,-0.512695 0.54199,-0.883789 0.31739,-0.346679 0.77149,-0.537109 0.4541,-0.195313 0.90332,-0.195313 0.47363,0 0.79101,0.09766 0.32227,0.09277 0.67872,0.288086 l 0.0586,-0.234375 h 0.85937 z m -0.91796,-0.878906 v -2.973633 q -0.36622,-0.166016 -0.6836,-0.234375 -0.3125,-0.07324 -0.625,-0.07324 -0.75683,0 -1.1914,0.507812 -0.43457,0.507813 -0.43457,1.47461 0,0.917968 0.32226,1.391601 0.32227,0.473633 1.06934,0.473633 0.40039,0 0.80078,-0.151367 0.40527,-0.15625 0.74219,-0.415039 z m 7.29003,-1.132813 h -4.01855 q 0,0.50293 0.15137,0.878906 0.15136,0.371094 0.41504,0.610352 0.2539,0.234375 0.60058,0.351563 0.35156,0.117187 0.77149,0.117187 0.55664,0 1.11816,-0.219727 0.56641,-0.224609 0.80566,-0.439453 h 0.0488 v 1.000977 q -0.46386,0.195312 -0.94726,0.327148 -0.4834,0.131836 -1.01563,0.131836 -1.35742,0 -2.11914,-0.732422 -0.76172,-0.737304 -0.76172,-2.089843 0,-1.337891 0.72754,-2.124024 0.73242,-0.786133 1.92383,-0.786133 1.10352,0 1.69922,0.644532 0.60058,0.644531 0.60058,1.831054 z m -0.89355,-0.703125 q -0.005,-0.722656 -0.36621,-1.118164 -0.35645,-0.395508 -1.08887,-0.395508 -0.7373,0 -1.17676,0.434571 -0.43457,0.43457 -0.49316,1.079101 z m 10.51758,-3.076172 h -3.67676 v 2.050782 h 3.15918 v 0.859375 h -3.15918 V 45.208 h -0.9668 v -7.270508 h 4.64356 z m 5.43457,3.686524 q 0,1.333008 -0.6836,2.104492 -0.68359,0.771484 -1.83105,0.771484 -1.15723,0 -1.84082,-0.771484 -0.67871,-0.771484 -0.67871,-2.104492 0,-1.333008 0.67871,-2.104492 0.68359,-0.776368 1.84082,-0.776368 1.14746,0 1.83105,0.776368 0.6836,0.771484 0.6836,2.104492 z m -0.94727,0 q 0,-1.059571 -0.41504,-1.572266 -0.41504,-0.517578 -1.15234,-0.517578 -0.74707,0 -1.16211,0.517578 -0.41016,0.512695 -0.41016,1.572266 0,1.02539 0.41504,1.557617 0.41504,0.527344 1.15723,0.527344 0.73242,0 1.14746,-0.522461 0.41992,-0.527344 0.41992,-1.5625 z m 5.77149,-1.728516 h -0.0488 q -0.20508,-0.04883 -0.40039,-0.06836 -0.19043,-0.02441 -0.4541,-0.02441 -0.42481,0 -0.82032,0.190429 -0.3955,0.185547 -0.76171,0.483399 V 45.208 h -0.91797 v -5.454101 h 0.91797 v 0.805664 q 0.54687,-0.439453 0.96191,-0.620118 0.41992,-0.185546 0.85449,-0.185546 0.23926,0 0.34668,0.01465 0.10742,0.0098 0.32227,0.04395 z m 10.51758,3.916016 q -0.59571,0.273437 -1.30372,0.478515 -0.70312,0.200196 -1.3623,0.200196 -0.84961,0 -1.55762,-0.234375 -0.70801,-0.234375 -1.20605,-0.703125 -0.50293,-0.473633 -0.77637,-1.181641 -0.27344,-0.712891 -0.27344,-1.665039 0,-1.743164 1.01563,-2.749023 1.02051,-1.010743 2.79785,-1.010743 0.62012,0 1.26465,0.151368 0.64941,0.146484 1.39648,0.502929 v 1.147461 h -0.0879 q -0.15137,-0.117187 -0.43945,-0.307617 -0.28809,-0.19043 -0.56641,-0.317383 -0.33691,-0.151367 -0.7666,-0.249023 -0.4248,-0.102539 -0.9668,-0.102539 -1.2207,0 -1.93359,0.786133 -0.70801,0.78125 -0.70801,2.11914 0,1.411133 0.74219,2.197266 0.74219,0.78125 2.02148,0.78125 0.46875,0 0.93262,-0.09277 0.46875,-0.09277 0.82031,-0.239257 v -1.782227 h -1.94824 v -0.849609 h 2.90528 z m 2.60253,-5.830078 h -1.03515 v -0.952149 h 1.03515 z m -0.0586,6.367187 h -0.91797 v -5.454101 h 0.91797 z m 4.64844,-0.04883 q -0.25879,0.06836 -0.56641,0.112305 -0.30273,0.04395 -0.54199,0.04395 -0.83496,0 -1.26953,-0.449219 -0.43457,-0.449218 -0.43457,-1.440429 v -2.900391 h -0.62012 v -0.771484 h 0.62012 v -1.567383 h 0.91797 v 1.567383 h 1.89453 v 0.771484 h -1.89453 v 2.485352 q 0,0.429687 0.0195,0.673828 0.0195,0.239257 0.13672,0.449218 0.10742,0.195313 0.29297,0.288086 0.19043,0.08789 0.57617,0.08789 0.22461,0 0.46875,-0.06348 0.24414,-0.06836 0.35156,-0.112304 h 0.0488 z"
     id="text4"
     style="font-size:10px;text-anchor:middle"
     aria-label="Endevor® Bridge For Git" />
</svg>
