<svg xmlns="http://www.w3.org/2000/svg" role="img" xmlns:xlink="http://www.w3.org/1999/xlink" viewBox="-4.53 -4.53 248.82 57.32"><path d="M237.32 9.09c-1.06 0-1.93-.86-1.93-1.92s.87-1.93 1.93-1.93 1.93.87 1.93 1.93-.87 1.92-1.93 1.92m0-4.32c-1.32 0-2.4 1.08-2.4 2.4 0 1.32 1.08 2.4 2.4 2.4 1.32 0 2.4-1.08 2.4-2.4 0-1.32-1.08-2.4-2.4-2.4"/><path d="M237.48 7.07l-.51.01-.01-.62h.51c.19-.01.34.11.34.3.01.19-.14.31-.33.31m.83-.32c-.01-.42-.3-.72-.77-.72l-1.07.02.03 2.26h.49l-.01-.81h.35l.46.8.55-.01-.52-.86c.24-.06.49-.28.49-.68M51.8341 23.1805h-5.999V9.3465h5.835c1.574 0 2.557 1.016 2.557 2.393 0 1.377-.983 2.36-2.557 2.36H45v4h6.8341c1.836 0 2.819 1.18 2.819 2.556 0 1.574-1.049 2.525-2.819 2.525m3.376-7.245c2.066-.426 3.771-2.262 3.771-5.015 0-2.918-2.131-5.573-6.295-5.573h-11.506v21.865h11.867c4.163 0 6.359-2.623 6.359-5.901 0-2.754-1.868-5.015-4.196-5.376m17.8225-.5902H68v4.098h3.5576l4.294 7.769h5.343l-4.917-8.327c2.361-.557 4.786-2.622 4.786-6.49m0 0c0-4.065-2.786-7.048-7.343-7.048h-10.228v21.865h4.655V9.4453h4.885c1.869 0 3.278 1.114 3.278 2.95s-1.409 2.95-3.278 2.95m43.4206 4.0652l3.409-9.408 3.41 9.408zm.492-14.063l-8.458 21.865h5.31l1.377-3.704h9.376l1.344 3.704h5.311l-8.425-21.865zm26.9039 17.7671h-3.967v-13.67h3.967c4.491 0 6.851 2.983 6.851 6.852 0 3.704-2.524 6.818-6.851 6.818m0-17.767h-8.622v21.865h8.622c6.851 0 11.604-4.327 11.604-10.916s-4.753-10.949-11.604-10.949m82.1269-.0045l-5.734 9.27-5.734-9.27h-5.146v21.869h4.656v-14.293l5.012 7.622c.574.871 1.851.871 2.424 0l5.013-7.622v14.293h4.656V5.3431z"/><path id="a" d="M95.8253 23.3441c-3.871 0-7.008-3.138-7.008-7.008 0-3.871 3.137-7.009 7.008-7.009 3.87 0 7.008 3.138 7.008 7.009 0 3.87-3.138 7.008-7.008 7.008m0-18.536c-6.367 0-11.528 5.161-11.528 11.528 0 6.366 5.161 11.527 11.528 11.527 6.366 0 11.528-5.161 11.528-11.527 0-6.367-5.162-11.528-11.528-11.528"/><path d="M176.4035 19.7269c-1.195 2.156-3.492 3.617-6.132 3.617-3.87 0-7.008-3.138-7.008-7.008 0-3.871 3.138-7.008 7.008-7.008 2.618 0 4.897 1.438 6.1 3.565l3.27-3.269c-2.092-2.915-5.508-4.816-9.37-4.816-6.367 0-11.527 5.161-11.527 11.528 0 6.366 5.16 11.528 11.527 11.528 3.883 0 7.316-1.922 9.404-4.865z"/><use transform="translate(98.718)" xlink:href="#a"/><ellipse cx="16.52" cy="16.497" fill="#cc092f" rx="16.236" ry="16.235"/><path fill="#fff" d="M30.8253 20.8832c-1.857-.74-3.557-.492-5.261.541 0 0-.621.379-.807.496-.794.498-1.543.97-2.263.97-.687 0-1.363-.184-1.649-1.513-.446-2.073-1.534-7.167-2.009-9.69-.279-1.483-.432-2.282-.591-2.825-.28-.954-.792-1.473-1.519-1.556 0 0-.114-.016-.207-.016-.092 0-.218.018-.218.018-.72.086-1.229.605-1.507 1.554-.159.543-.312 1.342-.591 2.825-.475 2.523-1.563 7.617-2.009 9.69-.286 1.329-.962 1.513-1.649 1.513-.72 0-1.469-.472-2.263-.97-.186-.117-.808-.496-.808-.496-1.703-1.033-3.404-1.281-5.26-.541-.401.16-.79596.33918-1.17196.52018.257.806.57693 1.59925.94993 2.34425.411-.202.84203-.40243 1.28203-.53243.634-.187 1.284-.197 1.914.014.612.205 1.157.568 1.7.909 1.023.643 2.182 1.372 3.657 1.372 2.186 0 3.72-1.305 4.21-3.581.38-1.764 1.222-5.702 1.763-8.418 0 0 1.386 6.654 1.765 8.418.49 2.276 2.025 3.581 4.211 3.581 1.475 0 2.634-.729 3.657-1.372.543-.341 1.088-.704 1.7-.909.629-.211 1.28-.201 1.914-.014.44.13.87039.33065 1.28139.53265.374-.745.69309-1.53862.95009-2.34462-.376-.181-.77048-.36003-1.17148-.52003"/><path d="M64.38516 39.25096v-1.40638h-5.8216v7.93883h6.01616v-1.4263h-4.3953v-2.04215h3.85604v-1.3788h-3.85604v-1.6852zm-2.86944-1.40638zm8.97446 2.40524c-.38606-.31865-.88243-.47645-1.4891-.47645-.48412 0-.88397.11797-1.2011.35543-.17464.13175-.36154.3493-.55917.6511v-.8564h-1.48145v5.8599h1.52894v-3.17736c0-.36308.05056-.6603.15167-.89469.19303-.44121.55152-.66182 1.07087-.66182.42436 0 .71238.15013.86251.45194.08273.16545.1241.40291.1241.71085v3.57109h1.57183v-3.95256c0-.7369-.19304-1.2639-.5791-1.58103zm-2.05441-.4933zm7.16363.25125c-.27576-.15627-.59288-.2344-.9483-.2344-.77214 0-1.388.28649-1.84913.86099-.46267.5745-.69247 1.36348-.69247 2.3654 0 .86865.2344 1.5795.7032 2.13561.46878.55459 1.04482.83188 1.73115.83188.4167 0 .76447-.07967 1.04483-.23746.28035-.1578.53007-.41058.74914-.75987v.81349h1.49064v-7.9281h-1.55651v2.8005c-.17159-.27577-.39679-.49178-.67255-.64804zm.37687 4.18236c-.22673.32172-.55611.48411-.9912.48411-.43356 0-.75834-.1624-.97129-.48718-.21448-.32478-.32172-.75834-.32172-1.30066 0-.5025.1057-.9238.3156-1.2639.20988-.33858.53926-.50863.98813-.50863.29415 0 .55305.09345.77673.28036.36155.30793.54386.82268.54386 1.53966 0 .51475-.11337.93299-.3401 1.25624zm4.73695-2.8342c.1961-.22214.47185-.33398.82728-.33398.32631 0 .60054.10571.82115.3156.2206.20988.34317.51781.36921.92379H80.344c.05056-.38147.17312-.68174.36922-.90541zm2.14633-1.32518c-.39066-.18231-.83188-.27423-1.31905-.27423-.82269 0-1.49217.27116-2.00692.8135-.51476.54232-.77213 1.3221-.77213 2.33782 0 1.08466.28495 1.86751.85639 2.34856.5699.48105 1.22866.72157 1.97628.72157.9054 0 1.6086-.28648 2.1111-.85639.32324-.36002.50402-.7139.54385-1.06167h-1.56723c-.08273.17311-.17772.30793-.28496.40445-.19762.17924-.455.26963-.7706.26963-.29873 0-.55304-.07354-.76446-.22214-.3493-.23593-.53314-.64957-.55458-1.23786h4.0169c.00766-.50709-.0092-.89469-.0475-1.16432-.06893-.4596-.21754-.86251-.44734-1.21181-.25584-.39372-.57756-.68327-.96975-.86711zm-1.21181-.27423zm6.94762 3.17277v.57144c-.01073.51322-.15474.86711-.43356 1.06014-.2773.19457-.58216.29108-.91307.29108-.20835 0-.38453-.05821-.53007-.17465-.14554-.11643-.21755-.3064-.21755-.56837 0-.29414.11797-.51169.35543-.65263.1394-.08273.37074-.15167.694-.20988l.3447-.06435c.1731-.03217.30792-.0674.4075-.10417.09805-.0383.1961-.08733.29262-.1486zm-.93146-.71697l-.52241.06434c-.59289.0766-1.04176.20222-1.34663.3784-.55612.32326-.83494.84567-.83494 1.56724 0 .55612.17312.9866.51935 1.28994.34776.30334.78591.455 1.31752.455.4167 0 .79051-.09498 1.11989-.28648.2773-.16086.52088-.35695.7323-.58675a4.4497 4.4497 0 0 0 .0429.35542c.01838.10418.05055.21601.09804.33398h1.66988v-.22674c-.10111-.04596-.17618-.1057-.22674-.17771-.05055-.07047-.0812-.20682-.09192-.40904-.00612-.26504-.01072-.49178-.01072-.67868v-2.69172c0-.70779-.24972-1.18884-.74915-1.44468-.4979-.25431-1.06933-.38147-1.71124-.38147-.98814 0-1.6852.25738-2.09118.7752-.25431.3309-.39832.7522-.4305 1.26543h1.48145c.03524-.22674.10724-.40598.21601-.53774.15014-.18077.40751-.26963.76907-.26963.32325 0 .56837.04596.73536.13635.16698.09192.25124.2589.25124.49943 0 .19763-.1103.34164-.32938.43509-.12102.05515-.32478.09958-.6082.13482zm.0812-2.4558zm7.36738.15626l-1.2501 4.33097-1.22254-4.33097h-1.7235l2.1065 5.87063h1.62085l2.11723-5.87063zm6.18316 4.30952c-.24053.31866-.58523.47952-1.0341.47952-.44888 0-.79511-.16086-1.03717-.47952-.24205-.32019-.36308-.77366-.36308-1.36348 0-.58829.12103-1.04176.36308-1.36042.24206-.31712.58829-.47645 1.03717-.47645.44887 0 .79357.15933 1.0341.47645.24052.31866.36155.77213.36155 1.36042 0 .58982-.12103 1.0433-.36155 1.36348zm1.22866.8472c.49484-.61127.74302-1.34816.74302-2.21068 0-.8472-.24818-1.58102-.74302-2.20302-.49637-.62046-1.24858-.93145-2.25664-.93145-1.00958 0-1.7618.311-2.25663.93145-.49637.622-.74455 1.35582-.74455 2.20302 0 .86252.24818 1.5994.74455 2.21068.49483.6128 1.24705.9192 2.25663.9192 1.00806 0 1.76027-.3064 2.25664-.9192zm-2.25664-5.31298zm7.35973.01838c-.01991-.00153-.04443-.00153-.07353-.00153-.4596 0-.83341.1195-1.1199.36002-.17618.14401-.383.41211-.61892.80277v-1.02338h-1.46613v5.87063h1.54579v-2.8051c0-.47185.05975-.81961.17771-1.04635.21295-.40138.62659-.60208 1.24552-.60208.04596 0 .10724.00154.1823.0046.07507.0046.1624.01072.25891.02145V39.7841c-.06894-.0046-.11183-.00613-.13175-.0092zm5.82926-.55152h1.74495c.38453 0 .70012.04137.9483.1241.28802.11796.4305.36308.4305.7323 0 .33397-.10877.56683-.32478.69705-.21755.13175-.50097.19763-.84873.19763h-1.95024zm0 3.06554h1.97781c.3447.00306.61127.04749.80124.13328.34164.15473.51169.43815.51169.8518 0 .4887-.17465.81808-.52701.9912-.19456.09345-.46573.1394-.8135.1394h-1.95023zm4.34169-3.59867c-.40598-.54999-1.09538-.83188-2.0682-.84567h-3.85604v7.93883h3.59713c.40598 0 .78285-.03524 1.12909-.10724.34623-.072.6465-.20529.90234-.39832.2252-.16852.41364-.37687.56531-.62506.23593-.3738.35543-.7951.35543-1.26543 0-.45654-.10418-.84413-.30947-1.16432-.20682-.31866-.51322-.55305-.9192-.70012.26657-.13635.46726-.28649.60361-.45194.24359-.29415.36615-.6848.36615-1.16892 0-.47032-.12256-.87477-.36615-1.21181zm5.15212 1.08465c-.01992-.00153-.04443-.00153-.07354-.00153-.4596 0-.8334.1195-1.1199.36002-.17617.14401-.383.41211-.61892.80277v-1.02338h-1.46612v5.87063h1.54578v-2.8051c0-.47185.05975-.81961.17772-1.04635.21294-.40138.62658-.60208 1.24398-.60208.0475 0 .10877.00154.18384.0046.07507.0046.16086.01072.2589.02145V39.7841c-.06893-.0046-.11183-.00613-.13174-.0092zm2.609-.56224v-1.4171h-1.55652v1.4171zm-1.55652.70012v5.87063h1.55651v-5.87063zm6.15558.09499c-.27576-.15627-.59136-.2344-.94678-.2344-.77213 0-1.38952.28649-1.85066.86099-.46113.5745-.69246 1.36348-.69246 2.3654 0 .86865.2344 1.5795.70319 2.13561.46879.55459 1.04635.83188 1.73116.83188.4167 0 .76447-.07967 1.04482-.23746.28036-.1578.53007-.41058.74915-.75987v.81349h1.49217v-7.9281h-1.55651v2.8005c-.17312-.27577-.3968-.49178-.67408-.64804zm.37687 4.18236c-.2252.32172-.55612.48411-.98967.48411-.4351 0-.75988-.1624-.97282-.48718-.21448-.32478-.3202-.75834-.3202-1.30066 0-.5025.10418-.9238.31407-1.2639.21141-.33858.5408-.50863.98967-.50863.29414 0 .55152.09345.7752.28036.36154.30793.54385.82268.54385 1.53966 0 .51475-.11337.93299-.3401 1.25624zm6.67952-.07354c-.24819.27117-.55152.40598-.91001.40598-.53926 0-.91307-.24665-1.12142-.74302-.1149-.26503-.17159-.56837-.17159-.91 0-.39526.05362-.72617.16086-.9958.20529-.5071.57757-.75988 1.1153-.75988.39525 0 .71085.14554.94524.43662.23593.29108.35236.71391.35236 1.27156 0 .59135-.12409 1.02338-.37074 1.29454zm-.52241-4.2084c-.21908-.09039-.47646-.13482-.7706-.13482-.79664 0-1.4125.29721-1.8476.89163-.43355.59288-.6511 1.3267-.6511 2.19995 0 .90388.22521 1.62085.67562 2.15093.4504.53007 1.05248.7951 1.80623.7951.4887 0 .8855-.11643 1.19036-.35082.17005-.12563.32785-.31406.47492-.56531v.37687c0 .56071-.06128.95903-.18384 1.1965-.1869.3692-.55611.55458-1.10917.55458-.39066 0-.66948-.07048-.83494-.20989-.09651-.07966-.16698-.20835-.20988-.3876h-1.66988c.05056.58523.31253 1.02491.78592 1.31906.47492.29414 1.08618.44121 1.83686.44121 1.24246 0 2.08352-.3309 2.52168-.9912.2543-.38453.38146-.95444.38146-1.71278v-5.56882h-1.49216v.84567c-.2298-.41211-.5316-.69706-.90388-.85026zm-.28036-.15167zm5.59793 1.5994c.1961-.22213.47185-.33397.82728-.33397.32631 0 .60054.10571.82115.3156.2206.20988.3447.51781.36921.92379h-2.38532c.04902-.38147.17311-.68174.36768-.90541zm2.14633-1.32517c-.39066-.18231-.83034-.27423-1.31905-.27423-.82269 0-1.49064.27116-2.00692.8135-.51475.54232-.77213 1.3221-.77213 2.33782 0 1.08466.28495 1.86751.85639 2.34856.57143.48105 1.2302.72157 1.97628.72157.90541 0 1.6086-.28648 2.1111-.85639.32325-.36002.50555-.7139.54385-1.06167h-1.56723c-.08273.17311-.17771.30793-.28495.40445-.19763.17924-.45348.26963-.7706.26963-.2972 0-.55305-.07354-.76447-.22214-.34776-.23593-.53313-.64957-.55458-1.23786h4.01843c.00613-.50709-.00919-.89469-.04902-1.16432-.06894-.4596-.21754-.86251-.44734-1.21181-.25432-.39372-.57757-.68327-.96976-.86711zm-1.21181-.27423zm9.20579-1.98394c-.07967-.00613-.167-.0092-.26504-.0092-.85026 0-1.388.17619-1.61013.52855-.21142.23746-.31713.66948-.31713 1.2976v.37687h-.84106v1.08313h.85638v4.73388h1.53047v-4.73388h1.00653V39.9664h-1.00653v-.49483c0-.1149.0383-.22061.1149-.3156.07813-.09498.21755-.1394.4213-.13481.20223.00613.34623.01379.43356.02451v-1.25011c-.13788-.01072-.24512-.01838-.32325-.02298zm4.91159 6.44972c-.24053.31866-.58523.47952-1.0341.47952-.44888 0-.79511-.16086-1.03717-.47952-.24205-.32019-.36308-.77366-.36308-1.36348 0-.58829.12103-1.04176.36308-1.36042.24206-.31712.5883-.47645 1.03717-.47645.44887 0 .79357.15933 1.0341.47645.24052.31866.36002.77213.36002 1.36042 0 .58982-.1195 1.0433-.36002 1.36348zm1.22713.8472c.49637-.61127.74455-1.34816.74455-2.21068 0-.8472-.24818-1.58102-.74455-2.20302-.49484-.62046-1.24705-.93145-2.25664-.93145-1.00805 0-1.76026.311-2.25663.93145-.49484.622-.74302 1.35582-.74302 2.20302 0 .86252.24818 1.5994.74302 2.21068.49637.6128 1.24858.9192 2.25663.9192 1.0096 0 1.7618-.3064 2.25664-.9192zm-2.25664-5.31298zm7.35973.01838c-.01838-.00153-.0429-.00153-.072-.00153-.4596 0-.83341.1195-1.1199.36002-.17617.14401-.383.41211-.62045.80277v-1.02338h-1.4646v5.87063h1.5458v-2.8051c0-.47185.05974-.81961.1777-1.04635.21142-.40138.6266-.60208 1.24399-.60208.04749 0 .10877.00154.18384.0046.07507.0046.16086.01072.2589.02145V39.7841c-.06893-.0046-.11336-.00613-.13328-.0092zm9.55815.54693h1.63158c-.08886-.76447-.44122-1.40331-1.05248-1.915-.6128-.51016-1.42323-.766-2.43129-.766-1.16432 0-2.09884.3876-2.80662 1.16279-.70779.77519-1.06168 1.80622-1.06168 3.09157 0 1.27156.35083 2.27196 1.05095 3.00579.67102.7277 1.53354 1.09231 2.58449 1.09231.64037 0 1.1781-.13481 1.61626-.40291.25431-.15474.54233-.4213.86251-.79818l.167.9912h1.09844v-4.26048h-3.3076v1.32518h1.83688c-.08273.52088-.3018.94218-.65723 1.2639-.35543.32018-.81196.48104-1.36808.48104-.56684 0-1.07393-.20222-1.51821-.6082-.44581-.40598-.66795-1.09691-.66795-2.07433 0-.96822.20529-1.69439.61586-2.1785.41211-.48258.93605-.72464 1.57643-.72464.33398 0 .63731.05975.91.17925.48872.21448.79512.59288.92074 1.1352zm-1.85832-2.681zm6.55543 1.57183v-1.4171h-1.55651v1.4171zm-1.55651.70012v5.87063h1.55651v-5.87063zm2.43894 1.14747h.8181v3.61399c0 .36615.08732.63731.2589.8135.26657.27575.7614.40138 1.48757.37686l.72617-.02757v-1.14747a2.49285 2.49285 0 0 1-.1532.0092c-.05209.00152-.10111.00306-.1486.00306-.31253 0-.49944-.03064-.55918-.0904-.06128-.0582-.09192-.20834-.09192-.44887v-3.1023h.9529V39.9664h-.9529v-1.63617h-1.51975v1.63617h-.81809z"/></svg>