<svg xmlns="http://www.w3.org/2000/svg" role="img" xmlns:xlink="http://www.w3.org/1999/xlink" viewBox="-4.53 -4.53 248.82 60.82"><path d="M237.32 9.09c-1.06 0-1.93-.86-1.93-1.92s.87-1.93 1.93-1.93 1.93.87 1.93 1.93-.87 1.92-1.93 1.92m0-4.32c-1.32 0-2.4 1.08-2.4 2.4 0 1.32 1.08 2.4 2.4 2.4 1.32 0 2.4-1.08 2.4-2.4 0-1.32-1.08-2.4-2.4-2.4"/><path d="M237.48 7.07l-.51.01-.01-.62h.51c.19-.01.34.11.34.3.01.19-.14.31-.33.31m.83-.32c-.01-.42-.3-.72-.77-.72l-1.07.02.03 2.26h.49l-.01-.81h.35l.46.8.55-.01-.52-.86c.24-.06.49-.28.49-.68M51.8341 23.1805h-5.999V9.3465h5.835c1.574 0 2.557 1.016 2.557 2.393 0 1.377-.983 2.36-2.557 2.36H45v4h6.8341c1.836 0 2.819 1.18 2.819 2.556 0 1.574-1.049 2.525-2.819 2.525m3.376-7.245c2.066-.426 3.771-2.262 3.771-5.015 0-2.918-2.131-5.573-6.295-5.573h-11.506v21.865h11.867c4.163 0 6.359-2.623 6.359-5.901 0-2.754-1.868-5.015-4.196-5.376m17.8225-.5902H68v4.098h3.5576l4.294 7.769h5.343l-4.917-8.327c2.361-.557 4.786-2.622 4.786-6.49m0 0c0-4.065-2.786-7.048-7.343-7.048h-10.228v21.865h4.655V9.4453h4.885c1.869 0 3.278 1.114 3.278 2.95s-1.409 2.95-3.278 2.95m43.4206 4.0652l3.409-9.408 3.41 9.408zm.492-14.063l-8.458 21.865h5.31l1.377-3.704h9.376l1.344 3.704h5.311l-8.425-21.865zm26.9039 17.7671h-3.967v-13.67h3.967c4.491 0 6.851 2.983 6.851 6.852 0 3.704-2.524 6.818-6.851 6.818m0-17.767h-8.622v21.865h8.622c6.851 0 11.604-4.327 11.604-10.916s-4.753-10.949-11.604-10.949m82.1269-.0045l-5.734 9.27-5.734-9.27h-5.146v21.869h4.656v-14.293l5.012 7.622c.574.871 1.851.871 2.424 0l5.013-7.622v14.293h4.656V5.3431z"/><path id="a" d="M95.8253 23.3441c-3.871 0-7.008-3.138-7.008-7.008 0-3.871 3.137-7.009 7.008-7.009 3.87 0 7.008 3.138 7.008 7.009 0 3.87-3.138 7.008-7.008 7.008m0-18.536c-6.367 0-11.528 5.161-11.528 11.528 0 6.366 5.161 11.527 11.528 11.527 6.366 0 11.528-5.161 11.528-11.527 0-6.367-5.162-11.528-11.528-11.528"/><path d="M176.4035 19.7269c-1.195 2.156-3.492 3.617-6.132 3.617-3.87 0-7.008-3.138-7.008-7.008 0-3.871 3.138-7.008 7.008-7.008 2.618 0 4.897 1.438 6.1 3.565l3.27-3.269c-2.092-2.915-5.508-4.816-9.37-4.816-6.367 0-11.527 5.161-11.527 11.528 0 6.366 5.16 11.528 11.527 11.528 3.883 0 7.316-1.922 9.404-4.865z"/><use transform="translate(98.718)" xlink:href="#a"/><ellipse cx="16.52" cy="16.497" fill="#cc092f" rx="16.236" ry="16.235"/><path fill="#fff" d="M30.8253 20.8832c-1.857-.74-3.557-.492-5.261.541 0 0-.621.379-.807.496-.794.498-1.543.97-2.263.97-.687 0-1.363-.184-1.649-1.513-.446-2.073-1.534-7.167-2.009-9.69-.279-1.483-.432-2.282-.591-2.825-.28-.954-.792-1.473-1.519-1.556 0 0-.114-.016-.207-.016-.092 0-.218.018-.218.018-.72.086-1.229.605-1.507 1.554-.159.543-.312 1.342-.591 2.825-.475 2.523-1.563 7.617-2.009 9.69-.286 1.329-.962 1.513-1.649 1.513-.72 0-1.469-.472-2.263-.97-.186-.117-.808-.496-.808-.496-1.703-1.033-3.404-1.281-5.26-.541-.401.16-.79596.33918-1.17196.52018.257.806.57693 1.59925.94993 2.34425.411-.202.84203-.40243 1.28203-.53243.634-.187 1.284-.197 1.914.014.612.205 1.157.568 1.7.909 1.023.643 2.182 1.372 3.657 1.372 2.186 0 3.72-1.305 4.21-3.581.38-1.764 1.222-5.702 1.763-8.418 0 0 1.386 6.654 1.765 8.418.49 2.276 2.025 3.581 4.211 3.581 1.475 0 2.634-.729 3.657-1.372.543-.341 1.088-.704 1.7-.909.629-.211 1.28-.201 1.914-.014.44.13.87039.33065 1.28139.53265.374-.745.69309-1.53862.95009-2.34462-.376-.181-.77048-.36003-1.17148-.52003"/><path d="M29.32136 39.91118V38.0313h-7.78164V48.643h8.04171v-1.9065H23.7063v-2.72972h5.1543v-1.84302h-5.1543v-2.25258zm-3.83553-1.87988zm11.99602 3.21505c-.51605-.42594-1.17954-.63687-1.99046-.63687-.6471 0-1.18159.15768-1.60548.4751-.23345.1761-.48328.4669-.74745.8703v-1.14471h-1.98022V48.643h2.0437v-4.24713c0-.48533.06758-.8826.20274-1.19592.25802-.58977.7372-.88465 1.4314-.88465.56725 0 .95224.20069 1.15292.6041.11058.22116.16587.53857.16587.95018V48.643h2.10105v-5.28332c0-.985-.25803-1.68944-.77407-2.11333zm-2.7461-.6594zm4.60755 1.74269h1.09557v4.83076c0 .48942.11468.85188.34403 1.08738.35632.3686 1.01776.53652 1.98841.50376l.97066-.03686v-1.5338a3.33215 3.33215 0 0 1-.20478.01228c-.06962.00205-.13515.0041-.19864.0041-.41775 0-.66553-.04096-.74744-.12082-.08191-.07782-.12287-.2785-.12287-.6v-4.1468h1.27373V40.8675h-1.27373v-2.18705h-2.02937v2.18705H39.3433zm7.70792.39522c.26007-.29693.62867-.44642 1.10376-.44642.43823 0 .80274.1413 1.09762.42185.29693.28055.46076.69215.49352 1.23482H46.5577c.06757-.5099.2314-.91127.49352-1.21025zm2.86896-1.77135c-.52423-.24368-1.11195-.36655-1.7652-.36655-1.09762 0-1.9925.36246-2.68057 1.08738-.6901.72492-1.03414 1.76725-1.03414 3.12494 0 1.44985.38294 2.49627 1.14472 3.13928.76383.643 1.64439.96451 2.64371.96451 1.2082 0 2.1502-.38293 2.82187-1.14472.43209-.48123.67373-.95427.72697-1.41912h-2.0949c-.11058.2314-.23755.4116-.38294.54062-.26417.23959-.60615.36041-1.028.36041-.39932 0-.73925-.0983-1.0239-.29693-.46485-.31536-.71263-.86827-.7413-1.65462h5.37138c.01024-.67782-.01229-1.19592-.06553-1.55633-.0901-.61434-.29079-1.15291-.59796-1.61981-.33993-.52629-.77202-.91332-1.2942-1.15906zm-1.6198-.36655zm9.31953.02457c-.02662-.00205-.05938-.00205-.0983-.00205-.61433 0-1.114.15973-1.49693.48124-.2355.19249-.51195.55086-.82732 1.07304v-1.36793h-1.95974V48.643h2.06623v-3.74952c0-.63072.07986-1.09557.23755-1.39865.28464-.53652.83755-.80478 1.6628-.80478.0635 0 .1454.00205.24574.00614.10035.00615.21502.01434.34608.02867v-2.10104c-.09215-.00614-.14949-.0082-.1761-.01229zm6.3707 2.50241c.27646.46485.41366 1.00138.41366 1.60548 0 .73516-.14949 1.32288-.45051 1.76315-.29898.44233-.73516.6635-1.3065.6635-.39318 0-.73311-.10854-1.02185-.32356-.48533-.37065-.72697-1.01161-.72697-1.92289 0-.57543.07167-1.05052.21502-1.42526.2785-.7065.79045-1.05872 1.5338-1.05872.62048 0 1.0669.23345 1.34336.6983zm1.57681-1.47646c-.63686-.67577-1.41298-1.01366-2.32834-1.01366-.62868 0-1.17135.17406-1.628.52424-.24984.19658-.48533.4669-.70445.80683v-1.15906h-1.96589V51.7311h2.02937v-4.08946c.21707.33174.43618.58362.66349.75769.4116.31126.9297.4669 1.55428.4669.97885 0 1.77954-.36247 2.40002-1.08739.62253-.72492.9338-1.77749.9338-3.15975 0-1.3106-.31946-2.30378-.95428-2.9816zm6.79665-1.02595c-.02662-.00205-.05938-.00205-.0983-.00205-.61433 0-1.114.15973-1.49693.48124-.2355.19249-.51195.55086-.82732 1.07304v-1.36793h-1.95974V48.643h2.06623v-3.74952c0-.63072.07986-1.09557.23755-1.39865.28464-.53652.83755-.80478 1.6628-.80478.0635 0 .1454.00205.24574.00614.10035.00615.21502.01434.34608.02867v-2.10104c-.09215-.00614-.14949-.0082-.1761-.01229zm3.4874-.75154v-1.89422h-2.08056V39.86zm-2.08056.93584V48.643h2.08057v-7.84717zm5.66626 5.34271h-2.08056c0 .80479.29283 1.46828.88055 1.99047.58772.52014 1.499.7802 2.73382.7802 1.2082 0 2.10309-.24573 2.68057-.7372.57952-.49147.86826-1.1263.86826-1.90445 0-.58977-.20273-1.0833-.60615-1.47647-.4075-.38908-1.0198-.67782-1.83482-.87031-1.22459-.26827-1.93722-.45871-2.1379-.5693-.20274-.10443-.30308-.27644-.30308-.5099 0-.1884.0942-.35222.28464-.49147.19045-.1372.50786-.20682.95428-.20682.54266 0 .9256.1372 1.15086.4157.12082.15358.19454.36246.22321.62663h2.0519c-.0901-.95837-.44438-1.63415-1.06076-2.02528-.6164-.39113-1.41503-.58772-2.39388-.58772-1.0321 0-1.83278.26007-2.40207.78226-.56724.52014-.85189 1.14268-.85189 1.8676 0 .61434.18226 1.08533.54677 1.41093.3645.33174.99113.60615 1.87988.82731 1.23277.29284 1.9454.49967 2.1379.62049.19045.11877.2867.29488.2867.52423 0 .2396-.11878.4198-.35633.54062-.23754.11877-.557.1802-.96041.1802-.68602 0-1.15701-.1372-1.41094-.4116-.14334-.15358-.23754-.4116-.28055-.77612zm1.56862-5.55158zm7.02395 2.1379c.26007-.29693.62868-.44642 1.10377-.44642.43823 0 .80273.1413 1.09762.42185.29693.28055.46075.69215.49352 1.23482h-3.18843c.06758-.5099.2314-.91127.49352-1.21025zm2.86897-1.77135c-.52424-.24368-1.11196-.36655-1.7652-.36655-1.09762 0-1.99251.36246-2.68057 1.08738-.69011.72492-1.03414 1.76725-1.03414 3.12494 0 1.44985.38294 2.49627 1.14472 3.13928.76383.643 1.64438.96451 2.64166.96451 1.21025 0 2.15019-.38293 2.82392-1.14472.43208-.48123.67372-.95427.72696-1.41912h-2.0949c-.11058.2314-.23754.4116-.38293.54062-.26417.23959-.60615.36041-1.028.36041-.39932 0-.73925-.0983-1.0239-.29693-.46485-.31536-.71263-.86827-.7413-1.65462h5.37138c.01024-.67782-.01229-1.19592-.06553-1.55633-.0901-.61434-.29079-1.15291-.59796-1.61981-.33994-.52629-.77202-.91332-1.29421-1.15906zm-1.61981-.36655zm10.82672 4.78161h-2.11538c0 1.10377.39523 1.96998 1.18773 2.6007.79045.63278 1.87783.94814 3.2601.94814 1.35359 0 2.40206-.3215 3.14337-.96247.7413-.63891 1.11195-1.44574 1.11195-2.41435 0-.94609-.3174-1.66896-.95018-2.16658-.40751-.3215-1.01366-.57952-1.81435-.76997l-1.82868-.44028c-.7065-.16792-1.16725-.3133-1.38227-.43823-.33584-.1884-.50376-.47099-.50376-.84983 0-.41366.16997-.73516.5099-.96452.34199-.2314.79865-.34607 1.36793-.34607.514 0 .94404.08805 1.29012.26621.5181.26826.7966.72287.8355 1.35974h2.12971c-.0389-1.1263-.45256-1.98637-1.24096-2.58023-.79045-.59181-1.74473-.88874-2.86283-.88874-1.33926 0-2.35292.3133-3.04508.94198-.6901.63073-1.03618 1.41913-1.03618 2.3693 0 1.04234.35631 1.80822 1.07304 2.29764.42185.29284 1.18568.56315 2.28944.81298l1.1222.25188c.65734.14334 1.14062.30921 1.4478.49761.30716.19045.46075.4628.46075.81298 0 .6-.30922 1.00956-.9297 1.23073-.3256.11467-.75155.17201-1.27373.17201-.87442 0-1.4908-.21707-1.85122-.6553-.19658-.23959-.32764-.60205-.39522-1.08533zm2.15224-7.66082zm7.9557 3.08808h-2.1031v4.73042c0 .89694.11469 1.5768.33994 2.03756.40342.8355 1.18568 1.25326 2.34678 1.25326.40342 0 .7536-.05325 1.05462-.15973.29898-.10444.61024-.30103.93175-.58977.10648-.09215.19659-.19659.2744-.3174.07577-.11878.12492-.1925.14335-.21503V48.643h1.99456v-7.84717h-2.08057v4.26967c0 .50376-.06758.90922-.20273 1.21639-.25802.56724-.73926.84984-1.4396.84984-.54677 0-.91332-.19864-1.10172-.59796-.10444-.22526-.15768-.5611-.15768-1.00752zm1.4396-.20887zm10.51546 2.52698c.2744.46485.41365 1.00138.41365 1.60548 0 .73516-.14949 1.32288-.45051 1.76315-.29898.44233-.73516.6635-1.3065.6635-.39318 0-.73516-.10854-1.02185-.32356-.48533-.37065-.72697-1.01161-.72697-1.92289 0-.57543.07167-1.05052.21502-1.42526.2785-.7065.79045-1.05872 1.5338-1.05872.61843 0 1.0669.23345 1.34336.6983zm1.5768-1.47646c-.63686-.67577-1.41298-1.01366-2.3304-1.01366-.62867 0-1.17134.17406-1.62595.52424-.24983.19658-.48533.4669-.70649.80683v-1.15906h-1.96384V51.7311h2.02937v-4.08946c.21502.33174.43618.58362.66144.75769.41366.31126.93175.4669 1.55633.4669.97885 0 1.77954-.36247 2.40002-1.08739.62253-.72492.93175-1.77749.93175-3.15975 0-1.3106-.31741-2.30378-.95223-2.9816zm7.42942 1.47646c.27645.46485.41366 1.00138.41366 1.60548 0 .73516-.1495 1.32288-.45052 1.76315-.29898.44233-.73516.6635-1.3065.6635-.39317 0-.7331-.10854-1.02185-.32356-.48533-.37065-.72697-1.01161-.72697-1.92289 0-.57543.07168-1.05052.21502-1.42526.2785-.7065.79045-1.05872 1.5338-1.05872.61844 0 1.0669.23345 1.34336.6983zm1.5768-1.47646c-.63686-.67577-1.41298-1.01366-2.33039-1.01366-.62867 0-1.1693.17406-1.62595.52424-.24983.19658-.48533.4669-.7065.80683v-1.15906h-1.96383V51.7311h2.02937v-4.08946c.21501.33174.43618.58362.66143.75769.41366.31126.93175.4669 1.55633.4669.97885 0 1.77954-.36247 2.40002-1.08739.62254-.72492.9338-1.77749.9338-3.15975 0-1.3106-.31946-2.30378-.95427-2.9816zm7.33932 4.91882c-.3215.42594-.78226.64096-1.38226.64096-.6 0-1.06281-.21502-1.38636-.64096-.32356-.428-.48533-1.03414-.48533-1.82255 0-.78635.16177-1.3925.48533-1.81844.32355-.4239.78635-.63687 1.38636-.63687.6 0 1.06076.21297 1.38226.63687.3215.42594.48123 1.03209.48123 1.81844 0 .7884-.15972 1.39455-.48123 1.82255zm1.64029 1.13243c.66349-.81707.99523-1.80207.99523-2.95498 0-1.13243-.33174-2.11333-.99523-2.94473-.66144-.82936-1.66691-1.24507-3.01641-1.24507-1.34745 0-2.35292.4157-3.0164 1.24507-.66145.8314-.9932 1.8123-.9932 2.94473 0 1.15291.33175 2.1379.9932 2.95498.66348.81912 1.66895 1.22868 3.0164 1.22868 1.3495 0 2.35497-.40956 3.0164-1.22868zm-3.01641-7.10177zm9.83763.02457c-.02457-.00205-.05734-.00205-.09625-.00205-.61434 0-1.114.15973-1.49694.48124-.2355.19249-.51195.55086-.82936 1.07304v-1.36793h-1.9577V48.643h2.06624v-3.74952c0-.63072.07986-1.09557.23754-1.39865.28465-.53652.83755-.80478 1.66282-.80478.06348 0 .14539.00205.24573.00614.10034.00615.21502.01434.34608.02867v-2.10104c-.09215-.00614-.15154-.0082-.17816-.01229zm.57339 1.7181h1.09352v4.83077c0 .48942.11673.85188.34608 1.08738.35632.3686 1.01776.53652 1.98636.50376l.97271-.03686v-1.5338a3.33215 3.33215 0 0 1-.20478.01228c-.06963.00205-.13516.0041-.19864.0041-.41775 0-.66758-.04096-.74744-.12082-.08192-.07782-.12287-.2785-.12287-.6v-4.1468h1.27373V40.8675h-1.27373v-2.18705h-2.03142v2.18705h-1.09352zm13.05882-4.39457c-.10444-.0082-.22321-.01229-.35223-.01229-1.13652 0-1.8553.2355-2.15223.7065-.2826.3174-.42595.89488-.42595 1.73448v.50376h-1.12219v1.4478h1.14472v6.3277h2.0437v-6.3277h1.34746v-1.4478h-1.34746v-.66144c0-.15359.05325-.29489.15564-.42185.10239-.12696.29078-.18635.5611-.1802.27235.00819.46484.01842.57952.03276v-1.671c-.18225-.01434-.3256-.02458-.43208-.03072zm6.56729 8.62124c-.3215.42594-.78226.64096-1.38226.64096-.60001 0-1.06281-.21502-1.38637-.64096-.32355-.428-.48532-1.03414-.48532-1.82255 0-.78635.16177-1.3925.48532-1.81844.32356-.4239.78636-.63687 1.38637-.63687.6 0 1.06076.21297 1.38226.63687.3215.42594.48123 1.03209.48123 1.81844 0 .7884-.15972 1.39455-.48123 1.82255zm1.64029 1.13243c.66349-.81707.99318-1.80207.99318-2.95498 0-1.13243-.3297-2.11333-.99318-2.94473-.66144-.82936-1.66691-1.24507-3.01641-1.24507-1.34745 0-2.35497.4157-3.01641 1.24507-.66144.8314-.99318 1.8123-.99318 2.94473 0 1.15291.33174 2.1379.99318 2.95498.66144.81912 1.66896 1.22868 3.0164 1.22868 1.3495 0 2.35498-.40956 3.01642-1.22868zm-3.01641-7.10177zm9.83763.02457c-.02662-.00205-.05939-.00205-.09625-.00205-.61434 0-1.114.15973-1.49899.48124-.23345.19249-.5099.55086-.8273 1.07304v-1.36793h-1.9577V48.643h2.06623v-3.74952c0-.63072.07986-1.09557.23754-1.39865.2826-.53652.83755-.80478 1.66281-.80478.06349 0 .14335.00205.24574.00614.10034.00615.21502.01434.34403.02867v-2.10104c-.0901-.00614-.14949-.0082-.17611-.01229zm4.8922 6.15978v1.8717h8.25672v-1.8717h-5.56387l5.54954-6.96252V38.0313h-8.1052v1.87988h5.34067zm4.1898-8.74zm10.30247 8.52499c-.3215.42594-.78225.64096-1.38226.64096-.6 0-1.0628-.21502-1.38636-.64096-.32355-.428-.48533-1.03414-.48533-1.82255 0-.78635.16178-1.3925.48533-1.81844.32355-.4239.78635-.63687 1.38636-.63687.6 0 1.06076.21297 1.38226.63687.3215.42594.48329 1.03209.48329 1.81844 0 .7884-.16178 1.39455-.48329 1.82255zm1.64234 1.13243c.66144-.81707.99318-1.80207.99318-2.95498 0-1.13243-.33174-2.11333-.99318-2.94473-.66349-.82936-1.66896-1.24507-3.0164-1.24507-1.3495 0-2.35498.4157-3.01847 1.24507-.66144.8314-.99318 1.8123-.99318 2.94473 0 1.15291.33174 2.1379.99318 2.95498.6635.81912 1.66896 1.22868 3.01846 1.22868 1.34745 0 2.35292-.40956 3.01641-1.22868zm-3.0164-7.10177zm9.17823.20887l-1.13039 5.6294-1.22458-5.6294h-2.20138l2.20138 7.84717h2.13176l1.24506-5.7154 1.23073 5.7154h2.10923l2.27511-7.84717h-2.1379l-1.22254 5.65193-1.19591-5.65193zm9.75777 1.92903c.26212-.29693.63072-.44642 1.10581-.44642.43618 0 .80274.1413 1.09762.42185.29488.28055.46076.69215.49352 1.23482h-3.18842c.06553-.5099.2314-.91127.49147-1.21025zm2.86897-1.77135c-.5222-.24368-1.10991-.36655-1.76316-.36655-1.09967 0-1.99251.36246-2.68262 1.08738-.68806.72492-1.03209 1.76725-1.03209 3.12494 0 1.44985.3809 2.49627 1.14472 3.13928.76383.643 1.64438.96451 2.64166.96451 1.21025 0 2.1502-.38293 2.82187-1.14472.43209-.48123.67577-.95427.72697-1.41912h-2.0949c-.11058.2314-.23754.4116-.38089.54062-.26417.23959-.60615.36041-1.03004.36041-.39728 0-.73926-.0983-1.02186-.29693-.46485-.31536-.71263-.86827-.7413-1.65462h5.37138c.0082-.67782-.01229-1.19592-.06553-1.55633-.09215-.61434-.29079-1.15291-.59796-1.61981-.33993-.52629-.77202-.91332-1.29625-1.15906zm-1.61981-.36655z"/></svg>