<svg id="Calque_1" data-name="Calque 1" xmlns="http://www.w3.org/2000/svg" viewBox="0 0 150.7 97.7"><defs><style>.cls-1{fill:#935a9e}.cls-2{fill:#e58140}.cls-3{fill:#4b4b99}.cls-4{fill:#f9d055}.cls-5{fill:#dc4858}.cls-6{fill:#8fc056}.cls-7{fill:#38b8d7}.cls-8{fill:#fff}</style></defs><title>logo</title><path class="cls-1" transform="rotate(-45 -231.841 429.292)" d="M219.25 319.09h23.35v23.35h-23.35z"/><path class="cls-2" d="M25.72 15.88L42.23 32.4 58.7 15.92l-32.98-.04z"/><path class="cls-3" d="M0 64.89l16.51-16.51L.04 31.9 0 64.89z"/><path class="cls-4" d="M25.72 15.88L41.6 0h33.03L58.7 15.92l-32.98-.04z"/><path class="cls-5" d="M9.21 32.4V0H41.6L9.21 32.4z"/><path class="cls-6" d="M74.63 0v64.83L42.22 32.41 74.63 0z"/><path class="cls-7" d="M9.8 64.83h64.83L42.22 32.41 9.8 64.83z"/><path class="cls-8" d="M291 386.65a.76.76 0 0 0-.74-.79.73.73 0 0 0-.74.74.74.74 0 0 0 .71.77.76.76 0 0 0 .77-.72m38.61-14.77a.72.72 0 0 0-.75.74.72.72 0 0 0 .72.77.73.73 0 0 0 .75-.74.74.74 0 0 0-.72-.77m6.17 15.49a.76.76 0 0 0 0-1.52.76.76 0 0 0 0 1.52m-35.71-15.49a.76.76 0 0 0 0 1.51.76.76 0 0 0 0-1.51m43.71.73a.72.72 0 0 0 .7.78.76.76 0 1 0 0-1.51.72.72 0 0 0-.74.73m-24.55-.71c-.11-.22-.25-.28-.48-.14q-.84.54-1.69 1c-.26.16-.19.34-.09.55s.24.3.48.19l1.81-.82a1.66 1.66 0 0 0 .28-.22l-.31-.62m-18.71-15.77c-.12-.25-.27-.26-.49-.12-.55.35-1.1.7-1.66 1-.26.15-.21.33-.11.55a.32.32 0 0 0 .49.2l1.85-.84a1.17 1.17 0 0 0 .24-.21c-.12-.23-.23-.41-.32-.61m-6.25 1.6a.75.75 0 0 0-.88.23.67.67 0 0 0-.07.9c.32.34.2.56 0 .86a.49.49 0 0 0 .06.44c.11.16.3.3.52.11a2.4 2.4 0 0 0 .92-1.58c0-.51-.14-.83-.52-1m1.45 14.34a.88.88 0 0 0 0 .78c.3.33.18.54 0 .8s-.16.33 0 .49.33.31.56.1a2.46 2.46 0 0 0 .9-1.64.93.93 0 0 0-.86-1c-.21.16-.51.29-.61.5m39.5 21.39c0 .27.1.41.38.39a1.76 1.76 0 0 1 .33 0c.33 0 .46-.09.46-.44v-4.55c0-.44-.24-.44-.55-.44s-.64-.06-.62.45v4.6m-6.2-13.96c0 .47.24.49.59.49s.59 0 .59-.49v-4.27c0-.7 0-.68-.7-.69-.36 0-.47.14-.46.49v4.48m14.92 0c0 .34.13.48.46.45h.37a.31.31 0 0 0 .35-.35v-4.72c0-.26-.12-.37-.37-.37h-.37c-.31 0-.44.11-.43.43v4.56m-54.27 13.73c0 .69 0 .68.7.69.34 0 .49-.09.49-.46v-4.52c0-.46-.26-.45-.58-.45s-.63 0-.61.47v4.24m9.84-13.8c0 .49 0 .52.59.52s.58 0 .58-.52v-4.23c0-.69 0-.68-.71-.69-.36 0-.47.14-.47.49v4.44m40.52-4.48c-.12-.42-.27-.5-.76-.43s-.29.33-.29.56v4.35c0 .51 0 .53.58.53s.57 0 .58-.52c0-1 0-2 .07-3 .06-.78.38-1 1.13-.75.26.07.49.08.57-.26 0-.12.06-.24.09-.35.11-.42 0-.57-.41-.64a1.5 1.5 0 0 0-1.49.7l-.06-.22m-28.39 13.82c-.13-.39-.46-.26-.72-.26s-.29.19-.29.4v4.61a.49.49 0 0 0 .23.39c.72.19.93 0 .93-.72v-2a4.7 4.7 0 0 1 0-.65c.12-.83.39-1 1.19-.78.3.09.47 0 .54-.3 0-.11.06-.21.09-.31.12-.44 0-.6-.45-.65a1.51 1.51 0 0 0-1.45.71c0-.18-.08-.28-.11-.38m-8.3-25.53v.41c.18 2 1.38 2.69 3.21 2.28a.52.52 0 0 0 .34-.32c.08-.57-.13-.75-.69-.66-1 .16-1.44-.17-1.6-1.14a3.86 3.86 0 0 1 0-1c.09-.95.62-1.61 1.7-1.24.38.13.41-.17.5-.41s.1-.43-.2-.55a2.24 2.24 0 0 0-3 1.26 10.13 10.13 0 0 0-.32 1.33h.08m-13.75-1.1v2.77c0 .61.22 1 .69 1.06a3.68 3.68 0 0 0 1.2 0c.43-.08.19-.43.18-.67s-.14-.32-.38-.3c-.53 0-.53 0-.53-.52v-5.91c0-.47 0-.51-.56-.51s-.6 0-.61.49V362.07m25.67 1.34c0 .6 0 1.19.06 1.79a.68.68 0 0 0 .57.67 4.37 4.37 0 0 0 1.32 0c.39-.07.15-.42.14-.65s-.09-.32-.33-.31c-.59 0-.59 0-.59-.59v-5.79c0-.54 0-.55-.55-.55s-.62 0-.62.57V363.44m14.8 25.47c0 .67.51.38.85.52v3.32a1.08 1.08 0 0 0 1.25 1.21 3.08 3.08 0 0 0 .53-.05c.23 0 .53 0 .45-.42s0-.69-.55-.58c-.37.08-.52-.13-.51-.49V389.48c.33-.23.85.16.93-.45.1-.8-.57-.46-.93-.61v-.63-.61a.49.49 0 0 0-.12-.32c-.25-.19-1 .22-1 .53v1c-.33.16-.86-.17-.86.52m-29.82 1v3.42c0 .56 0 .59.61.59h.13c.3 0 .41-.11.41-.4v-2.93-1.17h.73c.32 0 .36-.21.36-.47s-.05-.46-.37-.45h-.75v-.8c0-.58.18-.9.8-.64a.26.26 0 0 0 .39-.22c0-.23.3-.47 0-.69a1.44 1.44 0 0 0-2.3 1 12.45 12.45 0 0 0 0 1.28c-.88.16-.88.16-.86.6s.5.29.83.44zm18.52-13.22c0-.78-.29-1.27-.78-1.29s-.88.45-.93 1.29zm-1.69.85c-.08.93.38 1.47 1.25 1.45a3.82 3.82 0 0 0 1-.17c.3-.09.39.07.46.3s.27.51-.11.65a3.36 3.36 0 0 1-2.58 0 1.8 1.8 0 0 1-1-1.09 4.1 4.1 0 0 1 0-2.91 1.94 1.94 0 0 1 1.94-1.34 1.82 1.82 0 0 1 1.82 1.51A9.94 9.94 0 0 1 320 377c.05.37-.09.52-.47.51h-2zm18.37-.85c0-.75-.29-1.29-.81-1.29s-.89.52-.88 1.29zm-1.67.85c-.11.91.34 1.46 1.19 1.45a3.35 3.35 0 0 0 1-.16c.34-.11.44.07.52.33s.22.5-.16.63a3.51 3.51 0 0 1-2.43.05 1.82 1.82 0 0 1-1.1-1.13 4.08 4.08 0 0 1 0-3 1.92 1.92 0 0 1 1.9-1.28 1.8 1.8 0 0 1 1.82 1.46 7.48 7.48 0 0 1 .19 1.24c0 .3-.15.4-.43.4h-2.49zm16.61-.85c0-.78-.31-1.27-.8-1.29s-.87.46-.91 1.29zm-1.69.9a1.12 1.12 0 0 0 1.2 1.41 3.34 3.34 0 0 0 1-.16c.34-.11.44.07.52.33s.21.5-.16.63a3.48 3.48 0 0 1-2.43.05 2 2 0 0 1-1.2-1.4 4.38 4.38 0 0 1 0-2.33 2 2 0 0 1 2-1.66 1.92 1.92 0 0 1 1.93 1.89c.18 1.39.19 1.2-1 1.2h-1.75-.07m-54.17 11.15c-.11-.37-.43-.23-.65-.22s-.32.19-.33.29v4.81c0 .1.19.23.33.3s.24 0 .36 0c.37 0 .47-.12.46-.47v-2.69a1.37 1.37 0 0 1 .41-1.07.88.88 0 0 1 .94-.21c.33.13.29.45.29.74v3.26c0 .33.11.49.45.45a1.69 1.69 0 0 1 .33 0c.3 0 .42-.12.42-.41v-1.18c0-.92 0-1.85-.05-2.77a1.21 1.21 0 0 0-1.27-1.13 2.06 2.06 0 0 0-1.58.67c0-.15-.07-.27-.1-.38m9.87-13.79c0-.51-.39-.42-.71-.42s-.34.27-.34.52v4.44c0 .44.23.48.57.47s.63 0 .62-.46v-2.65a1.43 1.43 0 0 1 .39-1.12.78.78 0 0 1 1-.21 1 1 0 0 1 .3.73v3.22c0 .47.23.5.58.49.55 0 .58 0 .58-.48v-3.59a1.3 1.3 0 0 0-1.64-1.4 6.75 6.75 0 0 0-1.26.53.14.14 0 0 1 0-.08m19 0c-.11-.44-.23-.49-.74-.43s-.31.32-.31.55v4.4c0 .45.05.47.59.49.35 0 .61 0 .59-.48v-2.61a1.44 1.44 0 0 1 .41-1.15.88.88 0 0 1 .94-.21c.33.13.31.45.31.73v3.3c0 .29.1.44.4.42h.26c.23 0 .36-.1.36-.34v-4a1.2 1.2 0 0 0-1.08-1.15 2 2 0 0 0-1.76.64 1.76 1.76 0 0 1-.07-.17m31.23 15.69c0-.78-.33-1.27-.83-1.27s-.87.5-.88 1.27zm-1.6.89a.34.34 0 0 0-.11 0c0 .94.36 1.4 1.27 1.38a3.26 3.26 0 0 0 .88-.14c.35-.11.46.07.55.35s.17.49-.2.61a3.52 3.52 0 0 1-2.27.09 2 2 0 0 1-1.31-1.39 4.25 4.25 0 0 1 0-2.45 2 2 0 0 1 2.16-1.58 1.91 1.91 0 0 1 1.77 1.77c.25 1.27.22 1.3-1.05 1.3h-1.67M322 362.64c0-.48-.06-.94-.49-1.16a.9.9 0 0 0-.75 0 1.21 1.21 0 0 0-.49 1.14zm.06.86h-1.78c0 1.1.52 1.58 1.56 1.43l.44-.09c.53-.14.75 0 .77.56a.42.42 0 0 1-.22.32 3.3 3.3 0 0 1-2.5.05 1.88 1.88 0 0 1-1.1-1.24 4.24 4.24 0 0 1 0-2.53 2 2 0 0 1 2.12-1.59 1.93 1.93 0 0 1 1.82 1.78c.24 1.27.22 1.3-1.06 1.3M312 363.2a11.72 11.72 0 0 0-.24-1.19.82.82 0 0 0-.85-.62.83.83 0 0 0-.81.63 3.68 3.68 0 0 0 0 2.35.86.86 0 0 0 1.65 0c.11-.37.16-.76.24-1.16m.91 1.43a2.11 2.11 0 0 1-3.9 0 10.83 10.83 0 0 1-.33-1.45 11.44 11.44 0 0 1 .26-1.34 2.11 2.11 0 0 1 4 0 4.11 4.11 0 0 1-.06 2.72m35.64 28.81c.12.42.24.48.76.41.37 0 .26-.33.26-.54v-4.4c0-.46-.21-.51-.58-.49-.56 0-.6 0-.6.51v2.65a1.21 1.21 0 0 1-.51 1.14 1.37 1.37 0 0 1-.87.13c-.34-.06-.33-.42-.33-.71v-3.26c0-.46-.25-.46-.57-.46s-.62 0-.61.46v3.63a1.32 1.32 0 0 0 1.73 1.38 7.15 7.15 0 0 0 1.24-.56.71.71 0 0 1 0 .12M307 392.38a.78.78 0 0 1-.82.54.79.79 0 0 1-.78-.55 3.56 3.56 0 0 1 0-2.47.79.79 0 0 1 .78-.54.76.76 0 0 1 .79.52c.14.41.2.83.3 1.25a11.93 11.93 0 0 1-.28 1.26m-2.89-.22a2.08 2.08 0 0 0 2 1.78 2 2 0 0 0 2.13-1.64 4.12 4.12 0 0 0-.07-2.52 2.11 2.11 0 0 0-3.95-.06A9.8 9.8 0 0 0 304 391c.06.47.08.82.15 1.16m23-.91a8 8 0 0 0-1.13.15.9.9 0 0 0-.47 1.24.69.69 0 0 0 1.08.17 1.64 1.64 0 0 0 .51-.73 2.68 2.68 0 0 0 0-.83m.33 2.55a.36.36 0 0 1-.15-.23 1 1 0 0 1 0-.34 2.73 2.73 0 0 1-.63.48 1.79 1.79 0 0 1-1.39.15l-.24-.1-.17-.1a1 1 0 0 1-.17-.14 1.6 1.6 0 0 1-.36-.65 2 2 0 0 1-.06-.71 3.24 3.24 0 0 1 .08-.49 1.59 1.59 0 0 1 .07-.22 1.33 1.33 0 0 1 .22-.36l.15-.14a1.42 1.42 0 0 1 .35-.22 1.88 1.88 0 0 1 .42-.13l.38-.06.76-.08h.38c.06-.7-.11-1-.68-1h-.27a3.32 3.32 0 0 0-.46.06l-.46.11c-.24.06-.39 0-.41-.25s-.19-.45-.09-.6a.29.29 0 0 1 .21-.11 8.88 8.88 0 0 1 1.52-.16h.51a1.4 1.4 0 0 1 .78.31 1.24 1.24 0 0 1 .22.27 2.09 2.09 0 0 1 .29 1.07V392.98c0 .15 0 .3.05.44v.15c0 .31 0 .33-.43.35a.93.93 0 0 1-.51-.07m-.17-.56a2.73 2.73 0 0 1-.63.48 2.73 2.73 0 0 0 .63-.48m0 .34a.36.36 0 0 0 .15.23.36.36 0 0 1-.15-.23m1.07-.21c0-.15 0-.29-.05-.44 0 .15 0 .3.05.44v.15-.15m-1.67-2.9l-.76.08.76-.08m.38-.05c.06-.7-.11-1-.68-1 .57 0 .74.33.68 1m-1.95.32a1.42 1.42 0 0 0-.35.22 1.42 1.42 0 0 1 .35-.22M325 393.77l-.17-.1.17.1m-.22-4.46c0-.19-.19-.45-.09-.6-.1.15.07.42.09.6s.17.31.41.25l.46-.11-.46.11c-.24.06-.39 0-.41-.25m3.52 1.38v-.59a2.09 2.09 0 0 0-.29-1.07 2.09 2.09 0 0 1 .29 1.07v.59m13.62.48c-.08-.42-.14-.85-.26-1.26a.73.73 0 0 0-.74-.52.69.69 0 0 0-.69.53 4.13 4.13 0 0 0 0 2.47.73.73 0 0 0 .73.55.7.7 0 0 0 .74-.53c.12-.4.17-.81.26-1.24m1.07-2.17v6.57c0 .49 0 .47-.6.49-.37 0-.59 0-.57-.49v-2.19a1.66 1.66 0 0 1-2.87-.83 5.58 5.58 0 0 1 0-2.86 1.58 1.58 0 0 1 2.82-.71v-.07c.19-.16.36-.41.57-.46.53-.1.61 0 .61.55m-44.44-29.57h2.27c.41 0 .51-.17.5-.54s0-.56-.48-.55h-3.06c-.38 0-.49.14-.49.51v6.56c0 .38.13.51.5.5h3.14c.34 0 .5-.1.5-.47 0-.61 0-.64-.64-.64h-2.29v-2.35h2c.39 0 .49-.16.48-.52s-.07-.54-.47-.53h-2zm-6.4 16.57a.77.77 0 0 0-1.5.05c-.09.38-.12.77-.18 1.16s.09.77.17 1.13a.78.78 0 0 0 1.52.05 3.8 3.8 0 0 0 0-2.4m1.31 3.53a.5.5 0 0 1-.3.38c-.25 0-.56.12-.71-.22a3.08 3.08 0 0 1-.09-.39 1.58 1.58 0 0 1-1.19.69 1.49 1.49 0 0 1-1.62-1 5 5 0 0 1-.07-3.28 1.6 1.6 0 0 1 2-1.19 4.56 4.56 0 0 1 .81.42v-.36-2.16c0-.36.18-.45.49-.42s.68-.11.68.4v7.17m17.46-2.65a.69.69 0 0 0 .77.62c.68 0 1-.31 1-1.1s-.28-1.1-.9-1.1-.9.35-.9 1.09a2.24 2.24 0 0 0 .05.48m2.68 4.84a3.36 3.36 0 0 1-3.3.06 1.38 1.38 0 0 1-.62-1.09c0-.25.08-.4.34-.39s.8-.09.92.47c0 .13.2.26.34.32a1.76 1.76 0 0 0 1.46 0 .62.62 0 0 0 .39-.69.56.56 0 0 0-.6-.51h-1.26c-.42 0-1 0-1.2-.51s0-.91.36-1.31a2 2 0 0 1-.75-1.59 1.9 1.9 0 0 1 2.14-2l1.71.05c.26 0 .49 0 .51.36s-.05.54-.43.54a7 7 0 0 1 .21 1.16 1.76 1.76 0 0 1-1.69 1.83h-.69c-.23 0-.22.13-.33.2.1.1.18.24.3.29a1.08 1.08 0 0 0 .4 0h1.1a1.39 1.39 0 0 1 1.3 1 1.67 1.67 0 0 1-.59 1.78m3 7.19c0-.51-.39-.47-.73-.45s-.34.35-.34.61v4.32c0 .46 0 .49.57.49s.62 0 .62-.48v-2.81a1.08 1.08 0 0 1 .5-1 1 1 0 0 1 .71-.1c.14 0 .24.37.25.57v3.14c0 .7 0 .68.69.7.38 0 .5-.13.49-.5v-2.73a1.2 1.2 0 0 1 .58-1.14c.59-.33.92 0 .9.5v3.18c0 .69 0 .67.71.69.39 0 .5-.14.49-.5v-2.57a11.47 11.47 0 0 0-.06-1.46 1.09 1.09 0 0 0-1.1-1 2 2 0 0 0-1.58.68c-.72-.9-1.3-.91-2.62-.07 0 0-.06-.07-.06-.1M278 372.82c0-.8-.34-1.13-1.14-1.13h-2.28c-.76 0-1.11.35-1.11 1.09v20c0 .74.35 1.09 1.11 1.09h2.2c.92 0 1.23-.3 1.23-1.21v-9.83-10M261.18 394a7.18 7.18 0 0 0 4.38-1.76 6.19 6.19 0 0 0 1.93-4.48 5.85 5.85 0 0 0-2.52-5.51c-1.15-.78-2.43-1.38-3.65-2.05-.61-.34-1.23-.64-1.81-1a2 2 0 0 1-.92-2.07 2.05 2.05 0 0 1 1.52-1.87 5.34 5.34 0 0 1 2-.11 15.94 15.94 0 0 1 2.38.67c.61.19.94 0 1.09-.58s.31-1.24.44-1.86a.84.84 0 0 0-.63-1.14 12.23 12.23 0 0 0-4.67-.78 7.26 7.26 0 0 0-3.89 1.17c-3.28 2.14-3.71 7.95.13 10.19 1 .58 2.07 1 3.08 1.57a13.27 13.27 0 0 1 2.25 1.44 2.47 2.47 0 0 1 .7 2.76 2.28 2.28 0 0 1-2.13 1.57 7.8 7.8 0 0 1-2.18 0 28.29 28.29 0 0 1-2.86-.78c-.73-.21-1.16 0-1.32.75-.13.57-.25 1.14-.37 1.71a1 1 0 0 0 .72 1.33 16.49 16.49 0 0 0 5.37.94h1M245 377.89a2.36 2.36 0 0 0-2.39-2.39c-.84-.05-1.68 0-2.52 0a.56.56 0 0 0-.16.05v5.67c.94 0 1.86.06 2.76 0a2.42 2.42 0 0 0 2.25-2.12 4.71 4.71 0 0 0 .06-1.17m2.7 5a6.33 6.33 0 0 1-4.88 2.07h-2.91V392.69c0 .85-.33 1.17-1.19 1.17h-2.08c-.79 0-1.16-.36-1.16-1.14v-19.9c0-.69.35-1.12 1-1.11 2.4 0 4.82-.06 7.21.09a5.42 5.42 0 0 1 5.11 3.45c1.05 2.72.93 5.38-1.08 7.68m-26.32 1h5.42a.93.93 0 0 0 1-1v-1.43c0-.83-.33-1.15-1.17-1.15h-5.78v-4.87h6.63a1 1 0 0 0 1.08-1.08v-1.55c0-.79-.35-1.15-1.14-1.15h-9.87c-.81 0-1.15.33-1.15 1.13v19.9c0 .77.35 1.13 1.11 1.13h10.23a1 1 0 0 0 1.1-1.07v-1.71c0-.83-.34-1.16-1.17-1.16h-6.85v-6zm102.6-8.27a.88.88 0 0 1 .94-.21c.33.13.31.45.31.73v3.3c0 .29.1.44.4.42h.35c.23 0 .36-.1.36-.34v-4a1.2 1.2 0 0 0-1.08-1.15 2 2 0 0 0-1.76.64 1.76 1.76 0 0 1-.07-.17c-.11-.44-.23-.49-.74-.43s-.31.32-.31.55v4.4c0 .45.05.47.59.49.35 0 .61 0 .59-.48v-2.61a1.44 1.44 0 0 1 .41-1.15m5.65-2.27a.72.72 0 0 0 .75-.74.74.74 0 0 0-.72-.77.72.72 0 0 0-.75.74.72.72 0 0 0 .72.77M322 389.33a1.09 1.09 0 0 0-1.1-1 2 2 0 0 0-1.58.68c-.72-.9-1.3-.91-2.62-.07 0 0-.06-.07-.06-.1 0-.51-.39-.47-.73-.45s-.34.35-.34.61v4.32c0 .46 0 .49.57.49s.62 0 .62-.48v-2.81a1.08 1.08 0 0 1 .5-1 1 1 0 0 1 .71-.1c.14 0 .24.37.25.57v3.14c0 .7 0 .68.69.7.38 0 .5-.13.49-.5v-2.73a1.2 1.2 0 0 1 .58-1.14c.59-.33.92 0 .9.5v3.18c0 .69 0 .67.71.69.39 0 .5-.14.49-.5v-2.57a11.47 11.47 0 0 0-.06-1.46m-10.05-26.12a11.72 11.72 0 0 0-.24-1.19.82.82 0 0 0-.85-.62.83.83 0 0 0-.81.63 3.68 3.68 0 0 0 0 2.35.86.86 0 0 0 1.65 0c.11-.37.16-.76.24-1.16m.91 1.43a2.11 2.11 0 0 1-3.9 0 10.83 10.83 0 0 1-.33-1.45 11.44 11.44 0 0 1 .26-1.34 2.11 2.11 0 0 1 4 0 4.11 4.11 0 0 1-.06 2.72m-1.9 12.22a.69.69 0 0 0 .77.62c.68 0 1-.31 1-1.1s-.28-1.1-.9-1.1-.9.35-.9 1.09a2.24 2.24 0 0 0 .05.48m2.68 4.84a3.36 3.36 0 0 1-3.3.06 1.38 1.38 0 0 1-.62-1.09c0-.25.08-.4.34-.39s.8-.09.92.47c0 .13.2.26.34.32a1.76 1.76 0 0 0 1.46 0 .62.62 0 0 0 .39-.69.56.56 0 0 0-.6-.51h-1.26c-.42 0-1 0-1.2-.51s0-.91.36-1.31a2 2 0 0 1-.75-1.59 1.9 1.9 0 0 1 2.14-2l1.71.05c.26 0 .49 0 .51.36s-.05.54-.43.54a7 7 0 0 1 .21 1.16 1.76 1.76 0 0 1-1.69 1.83h-.69c-.23 0-.22.13-.33.2.1.1.18.24.3.29a1.08 1.08 0 0 0 .4 0h1.1a1.39 1.39 0 0 1 1.3 1 1.67 1.67 0 0 1-.59 1.78m-.37 6.69a1.51 1.51 0 0 0-1.45.71c0-.18-.08-.28-.11-.38-.13-.39-.46-.26-.72-.26s-.29.19-.29.4v4.61c0 .14.12.36.23.39.72.19.93 0 .93-.72v-2a4.86 4.86 0 0 1 0-.65c.12-.83.39-1 1.19-.78.3.09.47 0 .54-.3 0-.11.06-.21.09-.31.12-.44 0-.6-.45-.65m2.69-22.5a4.37 4.37 0 0 0 1.32 0c.39-.07.15-.42.14-.65s-.09-.32-.33-.31c-.59 0-.59 0-.59-.59v-5.79c0-.54 0-.55-.55-.55s-.62 0-.62.57V363.39c0 .61 0 1.19.06 1.79a.68.68 0 0 0 .57.67m38.75 24.7c0-.78-.33-1.27-.83-1.27s-.87.5-.88 1.27zm-1.6.89a.34.34 0 0 0-.11 0c0 .94.36 1.4 1.27 1.38a3.26 3.26 0 0 0 .88-.14c.35-.11.46.07.55.35s.17.49-.2.61a3.52 3.52 0 0 1-2.27.09 2 2 0 0 1-1.31-1.39 4.25 4.25 0 0 1 0-2.45 2 2 0 0 1 2.16-1.58 1.91 1.91 0 0 1 1.77 1.77c.25 1.27.22 1.3-1.05 1.3h-1.67m-8.51-19.59a.76.76 0 0 0 0 1.51.76.76 0 1 0 0-1.51m5.86 4.74c0-.78-.31-1.27-.8-1.29s-.87.46-.91 1.29zm-1.69.9a1.12 1.12 0 0 0 1.2 1.41 3.34 3.34 0 0 0 1-.16c.34-.11.44.07.52.33s.21.5-.16.63a3.48 3.48 0 0 1-2.43.05 2 2 0 0 1-1.2-1.4 4.38 4.38 0 0 1 0-2.33 2 2 0 0 1 2-1.66 1.92 1.92 0 0 1 1.93 1.89c.18 1.39.19 1.2-1 1.2h-1.75-.07m-44.17 1.93v-2.65a1.43 1.43 0 0 1 .39-1.12.78.78 0 0 1 1-.21 1 1 0 0 1 .3.73v3.22c0 .47.23.5.58.49.55 0 .58 0 .58-.48v-3.59a1.3 1.3 0 0 0-1.64-1.4 6.75 6.75 0 0 0-1.26.53.14.14 0 0 1 0-.08c0-.51-.39-.42-.71-.42s-.34.27-.34.52v4.44c0 .44.23.48.57.47s.63 0 .62-.46m40.22-5h-.37c-.31 0-.44.11-.43.43v4.56c0 .34.13.48.46.45h.37a.31.31 0 0 0 .35-.35v-4.72c0-.26-.12-.37-.37-.37m-14.54 5v-4.27c0-.7 0-.68-.7-.69-.36 0-.47.14-.46.49v4.48c0 .47.24.49.59.49s.59 0 .59-.49m2.41 13.47c-.37.08-.52-.13-.51-.49V389.36c.33-.23.85.16.93-.45.1-.8-.57-.46-.93-.61v-.63-.61a.49.49 0 0 0-.12-.32c-.25-.19-1 .22-1 .53v1c-.33.16-.86-.17-.86.52s.51.38.85.52v3.32a1.08 1.08 0 0 0 1.25 1.21 3.08 3.08 0 0 0 .53-.05c.23 0 .53 0 .45-.42s0-.69-.55-.58m3.23-4.45c-.31 0-.64-.06-.62.45v4.6c0 .27.1.41.38.39a1.76 1.76 0 0 1 .33 0c.33 0 .46-.09.46-.44v-4.55c0-.44-.24-.44-.55-.44m-.38-11.8c0-.75-.29-1.29-.81-1.29s-.89.52-.88 1.29zm-1.67.85c-.11.91.34 1.46 1.19 1.45a3.35 3.35 0 0 0 1-.16c.34-.11.44.07.52.33s.22.5-.16.63a3.51 3.51 0 0 1-2.43.05 1.82 1.82 0 0 1-1.1-1.13 4.08 4.08 0 0 1 0-3 1.92 1.92 0 0 1 1.9-1.28 1.8 1.8 0 0 1 1.82 1.46 7.48 7.48 0 0 1 .19 1.24c0 .3-.15.4-.43.4h-2.77zm8.05 13.7c-.08-.42-.14-.85-.26-1.26a.73.73 0 0 0-.74-.52.69.69 0 0 0-.69.53 4.13 4.13 0 0 0 0 2.47.73.73 0 0 0 .73.55.7.7 0 0 0 .74-.53c.12-.4.17-.81.26-1.24m1.07-2.17v6.57c0 .49 0 .47-.6.49-.37 0-.59 0-.57-.49v-2.19a1.66 1.66 0 0 1-2.87-.83 5.58 5.58 0 0 1 0-2.86 1.58 1.58 0 0 1 2.82-.71v-.07c.19-.16.36-.41.57-.46.53-.1.61 0 .61.55m-7.12-3.15a.76.76 0 0 0 0 1.52.76.76 0 0 0 0-1.52m13.12 2.57c-.56 0-.6 0-.6.51v2.65a1.21 1.21 0 0 1-.51 1.14 1.37 1.37 0 0 1-.87.13c-.34-.06-.33-.42-.33-.71v-3.26c0-.46-.25-.46-.57-.46s-.62 0-.61.46v3.63a1.32 1.32 0 0 0 1.73 1.38 7.15 7.15 0 0 0 1.24-.56.71.71 0 0 1 0 .12c.12.42.24.48.76.41.37 0 .26-.33.26-.54v-4.4c0-.46-.21-.51-.58-.49m-53.17-14.28c.17.14.33.31.56.1a2.46 2.46 0 0 0 .9-1.64.93.93 0 0 0-.86-1c-.21.16-.51.29-.61.5a.88.88 0 0 0 0 .78c.3.33.18.54 0 .8s-.16.33 0 .49m-2.45-14.42a.49.49 0 0 0 .06.44c.11.16.3.3.52.11a2.4 2.4 0 0 0 .92-1.58c0-.51-.14-.83-.52-1a.75.75 0 0 0-.88.23.67.67 0 0 0-.07.9c.32.34.2.56 0 .86m-3 6.18a3.68 3.68 0 0 0 1.2 0c.43-.08.19-.43.18-.67s-.14-.32-.38-.3c-.53 0-.53 0-.53-.52v-5.91c0-.47 0-.51-.56-.51s-.6 0-.61.49v6.4c0 .61.22 1 .69 1.06m-62.55 24h-6.85v-6h5.92a.93.93 0 0 0 1-1v-1.43c0-.83-.33-1.15-1.17-1.15h-5.78v-4.87h6.63a1 1 0 0 0 1.08-1.08v-1.55c0-.79-.35-1.15-1.14-1.15h-9.87c-.81 0-1.15.33-1.15 1.13v19.9c0 .77.35 1.13 1.11 1.13h10.23a1 1 0 0 0 1.1-1.07v-1.71c0-.83-.34-1.16-1.17-1.16m91-13.28c0-.78-.29-1.27-.78-1.29s-.88.45-.93 1.29zm-1.69.85c-.08.93.38 1.47 1.25 1.45a3.82 3.82 0 0 0 1-.17c.3-.09.39.07.46.3s.27.51-.11.65a3.36 3.36 0 0 1-2.58 0 1.8 1.8 0 0 1-1-1.09 4.1 4.1 0 0 1 0-2.91 1.94 1.94 0 0 1 1.94-1.34 1.82 1.82 0 0 1 1.82 1.51A9.94 9.94 0 0 1 320 377c.05.37-.09.52-.47.51h-2zm4.8-14.79c0-.48-.06-.94-.49-1.16a.9.9 0 0 0-.75 0 1.21 1.21 0 0 0-.49 1.14zm.06.86h-1.78c0 1.1.52 1.58 1.56 1.43l.44-.09c.53-.14.75 0 .77.56a.42.42 0 0 1-.22.32 3.3 3.3 0 0 1-2.5.05 1.88 1.88 0 0 1-1.1-1.24 4.24 4.24 0 0 1 0-2.53 2 2 0 0 1 2.12-1.59 1.93 1.93 0 0 1 1.82 1.78c.24 1.27.22 1.3-1.06 1.3m17 15.87c0 .51 0 .53.58.53s.57 0 .58-.52c0-1 0-2 .07-3 .06-.78.38-1 1.13-.75.26.07.49.08.57-.26 0-.12.06-.24.09-.35.11-.42 0-.57-.41-.64a1.5 1.5 0 0 0-1.49.7l-.06-.22c-.12-.42-.27-.5-.76-.43s-.29.33-.29.56v4.35m-35.64-15.78c.18 2 1.38 2.69 3.21 2.28a.52.52 0 0 0 .34-.32c.08-.57-.13-.75-.69-.66-1 .16-1.44-.17-1.6-1.14a3.86 3.86 0 0 1 0-1c.09-.95.62-1.61 1.7-1.24.38.13.41-.17.5-.41s.1-.43-.2-.55a2.24 2.24 0 0 0-3 1.26 10.15 10.15 0 0 0-.32 1.33h.08v.41M245 377.89a2.36 2.36 0 0 0-2.39-2.39c-.84-.05-1.68 0-2.52 0a.56.56 0 0 0-.16.05v5.67c.94 0 1.86.06 2.76 0a2.42 2.42 0 0 0 2.25-2.12 4.71 4.71 0 0 0 .06-1.17m3.78-2.67c1.05 2.72.93 5.38-1.08 7.68a6.33 6.33 0 0 1-4.88 2.07h-2.91V392.7c0 .85-.33 1.17-1.19 1.17h-2.08c-.79 0-1.16-.36-1.16-1.14v-19.9c0-.69.35-1.12 1-1.11 2.4 0 4.82-.06 7.21.09a5.42 5.42 0 0 1 5.11 3.45m68.2-1.86c.11.22.24.3.48.19l1.81-.82a1.66 1.66 0 0 0 .28-.22l-.31-.62c-.11-.22-.25-.28-.48-.14q-.84.54-1.69 1c-.26.16-.19.34-.09.55m-18.23-15.58l1.85-.84a1.17 1.17 0 0 0 .24-.21c-.12-.23-.23-.41-.32-.61s-.27-.26-.49-.12c-.55.35-1.1.7-1.66 1-.26.15-.21.33-.11.55a.32.32 0 0 0 .49.2m1.36 15.6a.76.76 0 0 0 0-1.51.76.76 0 0 0 0 1.51m2.48 12.7a1.44 1.44 0 0 0-2.3 1 12.45 12.45 0 0 0 0 1.28c-.88.16-.88.16-.86.6s.5.29.83.44v3.85c0 .56 0 .59.61.59h.11c.3 0 .41-.11.41-.4v-2.93-1.17h.73c.32 0 .36-.21.36-.47s-.05-.46-.37-.45h-.75v-.8c0-.58.18-.9.8-.64a.26.26 0 0 0 .39-.22c0-.23.3-.47 0-.69m-1.25-20.63c0-.61 0-.64-.64-.64h-2.29v-2.35h2c.39 0 .49-.16.48-.52s-.07-.54-.47-.53h-2v-2h2.27c.41 0 .51-.17.5-.54s0-.56-.48-.55h-3.06c-.38 0-.49.14-.49.51v6.56c0 .38.13.51.5.5h3.14c.34 0 .5-.1.5-.47m-1.83 13.92c0 .49 0 .52.59.52s.58 0 .58-.52v-4.23c0-.69 0-.68-.71-.69-.36 0-.47.14-.47.49v4.44m-22.68-7.69h-2.28c-.76 0-1.11.35-1.11 1.09v20c0 .74.35 1.09 1.11 1.09h2.2c.92 0 1.23-.3 1.23-1.21v-9.83-10c0-.8-.34-1.13-1.14-1.13m13.44 16.75c-.33 0-.63 0-.61.47v4.24c0 .69 0 .68.7.69.34 0 .49-.09.49-.46v-4.52c0-.46-.26-.45-.58-.45m7.2 1.07a1.21 1.21 0 0 0-1.27-1.13 2.06 2.06 0 0 0-1.58.67c0-.15-.07-.27-.1-.38-.11-.37-.43-.23-.65-.22s-.32.19-.33.29v4.81c0 .1.19.23.33.3s.24 0 .36 0c.37 0 .47-.12.46-.47v-2.69a1.37 1.37 0 0 1 .41-1.07.88.88 0 0 1 .94-.21c.33.13.29.45.29.74v3.26c0 .33.11.49.45.45a1.69 1.69 0 0 1 .33 0c.3 0 .42-.12.42-.41v-1.18c0-.92 0-1.85-.05-2.77M265 382.27c-1.15-.78-2.43-1.38-3.65-2.05-.61-.34-1.23-.64-1.81-1a2 2 0 0 1-.92-2.07 2.05 2.05 0 0 1 1.52-1.87 5.35 5.35 0 0 1 2-.11 16.07 16.07 0 0 1 2.38.67c.61.19.94 0 1.09-.58s.31-1.24.44-1.86a.84.84 0 0 0-.63-1.14 12.23 12.23 0 0 0-4.67-.78 7.26 7.26 0 0 0-3.89 1.17c-3.28 2.14-3.71 7.95.13 10.19 1 .58 2.07 1 3.08 1.57a13.27 13.27 0 0 1 2.25 1.44 2.47 2.47 0 0 1 .7 2.76 2.28 2.28 0 0 1-2.13 1.57 7.76 7.76 0 0 1-2.18 0 28.29 28.29 0 0 1-2.86-.78c-.73-.21-1.16 0-1.32.75-.13.57-.25 1.14-.37 1.71a1 1 0 0 0 .72 1.33 16.46 16.46 0 0 0 5.37.94h1a7.18 7.18 0 0 0 4.38-1.76 6.19 6.19 0 0 0 1.93-4.48 5.85 5.85 0 0 0-2.52-5.51m27.11-6.38a.77.77 0 0 0-1.5.05c-.09.38-.12.77-.18 1.16s.09.77.17 1.13a.78.78 0 0 0 1.52.05 3.8 3.8 0 0 0 0-2.4m1.31 3.53a.5.5 0 0 1-.3.38c-.25 0-.56.12-.71-.22a3.08 3.08 0 0 1-.09-.39 1.58 1.58 0 0 1-1.19.69 1.49 1.49 0 0 1-1.62-1 5 5 0 0 1-.07-3.28 1.6 1.6 0 0 1 2-1.19 4.56 4.56 0 0 1 .81.42v-.36-2.16c0-.36.18-.45.49-.42s.68-.11.68.4v7.17" transform="translate(-205.21 -298.37)"/></svg>