<?xml version="1.0" encoding="UTF-8" standalone="no"?>
<svg
   role="img"
   viewBox="-4.53 -4.53 248.82 41.82"
   version="1.1"
   id="svg4"
   xmlns:xlink="http://www.w3.org/1999/xlink"
   xmlns="http://www.w3.org/2000/svg"
   xmlns:svg="http://www.w3.org/2000/svg">
  <defs
     id="defs4" />
  <title
     id="title1">Broadcom Corporation logo</title>
  <path
     d="M237.32 9.09c-1.06 0-1.93-.86-1.93-1.92s.87-1.93 1.93-1.93 1.93.87 1.93 1.93-.87 1.92-1.93 1.92m0-4.32c-1.32 0-2.4 1.08-2.4 2.4 0 1.32 1.08 2.4 2.4 2.4 1.32 0 2.4-1.08 2.4-2.4 0-1.32-1.08-2.4-2.4-2.4"
     id="path1" />
  <path
     d="M237.48 7.07l-.51.01-.01-.62h.51c.19-.01.34.11.34.3.01.19-.14.31-.33.31m.83-.32c-.01-.42-.3-.72-.77-.72l-1.07.02.03 2.26h.49l-.01-.81h.35l.46.8.55-.01-.52-.86c.24-.06.49-.28.49-.68M51.8341 23.1805h-5.999V9.3465h5.835c1.574 0 2.557 1.016 2.557 2.393 0 1.377-.983 2.36-2.557 2.36H45v4h6.8341c1.836 0 2.819 1.18 2.819 2.556 0 1.574-1.049 2.525-2.819 2.525m3.376-7.245c2.066-.426 3.771-2.262 3.771-5.015 0-2.918-2.131-5.573-6.295-5.573h-11.506v21.865h11.867c4.163 0 6.359-2.623 6.359-5.901 0-2.754-1.868-5.015-4.196-5.376m17.8225-.5902H68v4.098h3.5576l4.294 7.769h5.343l-4.917-8.327c2.361-.557 4.786-2.622 4.786-6.49m0 0c0-4.065-2.786-7.048-7.343-7.048h-10.228v21.865h4.655V9.4453h4.885c1.869 0 3.278 1.114 3.278 2.95s-1.409 2.95-3.278 2.95m43.4206 4.0652l3.409-9.408 3.41 9.408zm.492-14.063l-8.458 21.865h5.31l1.377-3.704h9.376l1.344 3.704h5.311l-8.425-21.865zm26.9039 17.7671h-3.967v-13.67h3.967c4.491 0 6.851 2.983 6.851 6.852 0 3.704-2.524 6.818-6.851 6.818m0-17.767h-8.622v21.865h8.622c6.851 0 11.604-4.327 11.604-10.916s-4.753-10.949-11.604-10.949m82.1269-.0045l-5.734 9.27-5.734-9.27h-5.146v21.869h4.656v-14.293l5.012 7.622c.574.871 1.851.871 2.424 0l5.013-7.622v14.293h4.656V5.3431z"
     id="path2" />
  <path
     id="a"
     d="M95.8253 23.3441c-3.871 0-7.008-3.138-7.008-7.008 0-3.871 3.137-7.009 7.008-7.009 3.87 0 7.008 3.138 7.008 7.009 0 3.87-3.138 7.008-7.008 7.008m0-18.536c-6.367 0-11.528 5.161-11.528 11.528 0 6.366 5.161 11.527 11.528 11.527 6.366 0 11.528-5.161 11.528-11.527 0-6.367-5.162-11.528-11.528-11.528" />
  <path
     d="M176.4035 19.7269c-1.195 2.156-3.492 3.617-6.132 3.617-3.87 0-7.008-3.138-7.008-7.008 0-3.871 3.138-7.008 7.008-7.008 2.618 0 4.897 1.438 6.1 3.565l3.27-3.269c-2.092-2.915-5.508-4.816-9.37-4.816-6.367 0-11.527 5.161-11.527 11.528 0 6.366 5.16 11.528 11.527 11.528 3.883 0 7.316-1.922 9.404-4.865z"
     id="path3" />
  <use
     transform="translate(98.718)"
     xlink:href="#a"
     id="use3" />
  <ellipse
     cx="16.52"
     cy="16.497"
     fill="#cc092f"
     rx="16.236"
     ry="16.235"
     id="ellipse3" />
  <path
     fill="#fff"
     d="M30.8253 20.8832c-1.857-.74-3.557-.492-5.261.541 0 0-.621.379-.807.496-.794.498-1.543.97-2.263.97-.687 0-1.363-.184-1.649-1.513-.446-2.073-1.534-7.167-2.009-9.69-.279-1.483-.432-2.282-.591-2.825-.28-.954-.792-1.473-1.519-1.556 0 0-.114-.016-.207-.016-.092 0-.218.018-.218.018-.72.086-1.229.605-1.507 1.554-.159.543-.312 1.342-.591 2.825-.475 2.523-1.563 7.617-2.009 9.69-.286 1.329-.962 1.513-1.649 1.513-.72 0-1.469-.472-2.263-.97-.186-.117-.808-.496-.808-.496-1.703-1.033-3.404-1.281-5.26-.541-.401.16-.79596.33918-1.17196.52018.257.806.57693 1.59925.94993 2.34425.411-.202.84203-.40243 1.28203-.53243.634-.187 1.284-.197 1.914.014.612.205 1.157.568 1.7.909 1.023.643 2.182 1.372 3.657 1.372 2.186 0 3.72-1.305 4.21-3.581.38-1.764 1.222-5.702 1.763-8.418 0 0 1.386 6.654 1.765 8.418.49 2.276 2.025 3.581 4.211 3.581 1.475 0 2.634-.729 3.657-1.372.543-.341 1.088-.704 1.7-.909.629-.211 1.28-.201 1.914-.014.44.13.87039.33065 1.28139.53265.374-.745.69309-1.53862.95009-2.34462-.376-.181-.77048-.36003-1.17148-.52003"
     id="path4" />
  <path
     d="M 78.343109,50 H 73.55307 v -7.270508 h 4.790039 v 0.859375 h -3.823242 v 1.992188 h 3.823242 v 0.859375 h -3.823242 v 2.700195 h 3.823242 z m 6.181641,0 H 83.367523 L 81.819672,47.905273 80.262054,50 h -1.069335 l 2.128906,-2.719727 -2.109375,-2.734375 h 1.157226 l 1.538086,2.060547 1.542969,-2.060547 h 1.074219 l -2.143555,2.685547 z m 5.996094,-2.792969 q 0,0.664063 -0.19043,1.215821 -0.19043,0.546875 -0.53711,0.927734 -0.322265,0.361328 -0.761718,0.561523 -0.434571,0.195313 -0.922852,0.195313 -0.424805,0 -0.771484,-0.09277 -0.341797,-0.09277 -0.698242,-0.288086 v 2.285157 h -0.917969 v -7.465821 h 0.917969 v 0.571289 q 0.366211,-0.307617 0.820312,-0.512695 0.458984,-0.209961 0.976563,-0.209961 0.986328,0 1.533203,0.747071 0.551758,0.742187 0.551758,2.065429 z m -0.947266,0.02441 q 0,-0.986328 -0.336914,-1.474609 -0.336914,-0.488281 -1.035156,-0.488281 -0.395508,0 -0.795899,0.170898 -0.40039,0.170899 -0.766601,0.449219 v 3.09082 q 0.390625,0.175781 0.668945,0.239258 0.283203,0.06348 0.639648,0.06348 0.766602,0 1.196289,-0.517579 0.429688,-0.517578 0.429688,-1.533203 z M 92.879242,50 h -0.917969 v -7.597656 h 0.917969 z m 6.464844,-2.724609 q 0,1.333007 -0.683594,2.104492 -0.683594,0.771484 -1.831055,0.771484 -1.157226,0 -1.84082,-0.771484 -0.678711,-0.771485 -0.678711,-2.104492 0,-1.333008 0.678711,-2.104493 0.683594,-0.776367 1.84082,-0.776367 1.147461,0 1.831055,0.776367 0.683594,0.771485 0.683594,2.104493 z m -0.947266,0 q 0,-1.059571 -0.415039,-1.572266 -0.415039,-0.517578 -1.152344,-0.517578 -0.74707,0 -1.162109,0.517578 -0.410156,0.512695 -0.410156,1.572266 0,1.02539 0.415039,1.557617 0.415039,0.527344 1.157226,0.527344 0.732422,0 1.147461,-0.522461 0.419922,-0.527344 0.419922,-1.5625 z m 5.77148,-1.728516 h -0.0488 q -0.20508,-0.04883 -0.40039,-0.06836 -0.19043,-0.02441 -0.45411,-0.02441 -0.4248,0 -0.82031,0.190429 -0.39551,0.185547 -0.76172,0.483399 V 50 h -0.91797 v -5.454102 h 0.91797 v 0.805664 q 0.54688,-0.439453 0.96192,-0.620117 0.41992,-0.185547 0.85449,-0.185547 0.23926,0 0.34668,0.01465 0.10742,0.0098 0.32226,0.04395 z m 5.42969,1.821289 h -4.01855 q 0,0.50293 0.15136,0.878906 0.15137,0.371094 0.41504,0.610352 0.25391,0.234375 0.60059,0.351562 0.35156,0.117188 0.77148,0.117188 0.55664,0 1.11817,-0.219727 0.5664,-0.224609 0.80566,-0.439453 h 0.0488 v 1.000977 q -0.46387,0.195312 -0.94727,0.327148 -0.48339,0.131836 -1.01562,0.131836 -1.35742,0 -2.11914,-0.732422 -0.76172,-0.737304 -0.76172,-2.089844 0,-1.33789 0.72754,-2.124023 0.73242,-0.786133 1.92383,-0.786133 1.10351,0 1.69922,0.644531 0.60058,0.644532 0.60058,1.831055 z m -0.89355,-0.703125 q -0.005,-0.722656 -0.36621,-1.118164 -0.35645,-0.395508 -1.08887,-0.395508 -0.73731,0 -1.17676,0.43457 -0.43457,0.434571 -0.49316,1.079102 z m 5.68847,-1.118164 h -0.0488 q -0.20508,-0.04883 -0.40039,-0.06836 -0.19043,-0.02441 -0.45411,-0.02441 -0.4248,0 -0.82031,0.190429 -0.39551,0.185547 -0.76172,0.483399 V 50 h -0.91797 v -5.454102 h 0.91797 v 0.805664 q 0.54688,-0.439453 0.96192,-0.620117 0.41992,-0.185547 0.85449,-0.185547 0.23926,0 0.34668,0.01465 0.10742,0.0098 0.32226,0.04395 z m 7.31446,-2.255859 h -0.0488 q -0.15137,-0.04395 -0.39551,-0.08789 -0.24414,-0.04883 -0.42969,-0.04883 -0.59082,0 -0.85937,0.263672 -0.26367,0.258789 -0.26367,0.942383 v 0.185546 h 1.65527 v 0.771485 h -1.62598 V 50 h -0.91797 v -4.682617 h -0.62011 v -0.771485 h 0.62011 v -0.180664 q 0,-0.971679 0.4834,-1.489257 0.4834,-0.522461 1.39649,-0.522461 0.30761,0 0.55176,0.0293 0.24902,0.0293 0.4541,0.06836 z m 5.22949,3.984375 q 0,1.333007 -0.68359,2.104492 -0.6836,0.771484 -1.83106,0.771484 -1.15723,0 -1.84082,-0.771484 -0.67871,-0.771485 -0.67871,-2.104492 0,-1.333008 0.67871,-2.104493 0.68359,-0.776367 1.84082,-0.776367 1.14746,0 1.83106,0.776367 0.68359,0.771485 0.68359,2.104493 z m -0.94727,0 q 0,-1.059571 -0.41504,-1.572266 -0.41503,-0.517578 -1.15234,-0.517578 -0.74707,0 -1.16211,0.517578 -0.41015,0.512695 -0.41015,1.572266 0,1.02539 0.41503,1.557617 0.41504,0.527344 1.15723,0.527344 0.73242,0 1.14746,-0.522461 0.41992,-0.527344 0.41992,-1.5625 z m 5.77149,-1.728516 h -0.0488 q -0.20508,-0.04883 -0.40039,-0.06836 -0.19043,-0.02441 -0.4541,-0.02441 -0.42481,0 -0.82031,0.190429 -0.39551,0.185547 -0.76172,0.483399 V 50 h -0.91797 v -5.454102 h 0.91797 v 0.805664 q 0.54687,-0.439453 0.96191,-0.620117 0.41992,-0.185547 0.85449,-0.185547 0.23926,0 0.34668,0.01465 0.10742,0.0098 0.32227,0.04395 z M 141.00424,50 h -4.79004 v -7.270508 h 4.79004 v 0.859375 H 137.181 v 1.992188 h 3.82324 V 46.44043 H 137.181 v 2.700195 h 3.82324 z m 6.02051,0 h -0.91797 v -3.105469 q 0,-0.375976 -0.0439,-0.703125 -0.0439,-0.332031 -0.16114,-0.517578 -0.12207,-0.205078 -0.35156,-0.302734 -0.22949,-0.102539 -0.5957,-0.102539 -0.37598,0 -0.78614,0.185547 -0.41015,0.185546 -0.78613,0.473632 V 50 h -0.91797 v -5.454102 h 0.91797 v 0.605469 q 0.42969,-0.356445 0.88867,-0.55664 0.45899,-0.200196 0.94239,-0.200196 0.88379,0 1.34765,0.532227 0.46387,0.532226 0.46387,1.533203 z m 6.19141,0 h -0.91797 v -0.571289 q -0.39551,0.341797 -0.8252,0.532226 -0.42969,0.19043 -0.93262,0.19043 -0.97656,0 -1.55273,-0.751953 -0.57129,-0.751953 -0.57129,-2.084961 0,-0.693359 0.19531,-1.235351 0.2002,-0.541993 0.53711,-0.922852 0.33203,-0.371094 0.77149,-0.566406 0.44433,-0.195313 0.91797,-0.195313 0.42968,0 0.76172,0.09277 0.33203,0.08789 0.69824,0.27832 v -2.363281 h 0.91797 z m -0.91797,-1.342773 v -3.129883 q -0.3711,-0.166016 -0.66407,-0.229492 -0.29296,-0.06348 -0.63964,-0.06348 -0.77149,0 -1.20118,0.537109 -0.42968,0.53711 -0.42968,1.523438 0,0.97168 0.33203,1.479492 0.33203,0.50293 1.06445,0.50293 0.39063,0 0.79102,-0.170899 0.40039,-0.175781 0.74707,-0.449218 z m 7.29004,-1.289063 h -4.01856 q 0,0.50293 0.15137,0.878906 0.15137,0.371094 0.41504,0.610352 0.2539,0.234375 0.60058,0.351562 0.35157,0.117188 0.77149,0.117188 0.55664,0 1.11816,-0.219727 0.56641,-0.224609 0.80567,-0.439453 h 0.0488 v 1.000977 q -0.46386,0.195312 -0.94726,0.327148 -0.4834,0.131836 -1.01563,0.131836 -1.35742,0 -2.11914,-0.732422 -0.76172,-0.737304 -0.76172,-2.089844 0,-1.33789 0.72754,-2.124023 0.73243,-0.786133 1.92383,-0.786133 1.10352,0 1.69922,0.644531 0.60059,0.644532 0.60059,1.831055 z m -0.89356,-0.703125 q -0.005,-0.722656 -0.36621,-1.118164 -0.35644,-0.395508 -1.08887,-0.395508 -0.7373,0 -1.17675,0.43457 -0.43457,0.434571 -0.49317,1.079102 z M 165.69662,44.545898 163.48959,50 h -0.92285 l -2.19238,-5.454102 h 0.99609 l 1.68946,4.340821 1.6748,-4.340821 z m 5.76172,2.729493 q 0,1.333007 -0.68359,2.104492 -0.68359,0.771484 -1.83105,0.771484 -1.15723,0 -1.84083,-0.771484 -0.67871,-0.771485 -0.67871,-2.104492 0,-1.333008 0.67871,-2.104493 0.6836,-0.776367 1.84083,-0.776367 1.14746,0 1.83105,0.776367 0.68359,0.771485 0.68359,2.104493 z m -0.94726,0 q 0,-1.059571 -0.41504,-1.572266 -0.41504,-0.517578 -1.15234,-0.517578 -0.74708,0 -1.16211,0.517578 -0.41016,0.512695 -0.41016,1.572266 0,1.02539 0.41504,1.557617 0.41504,0.527344 1.15723,0.527344 0.73242,0 1.14746,-0.522461 0.41992,-0.527344 0.41992,-1.5625 z m 5.77148,-1.728516 h -0.0488 q -0.20507,-0.04883 -0.40039,-0.06836 -0.19043,-0.02441 -0.4541,-0.02441 -0.4248,0 -0.82031,0.190429 -0.39551,0.185547 -0.76172,0.483399 V 50 h -0.91797 v -5.454102 h 0.91797 v 0.805664 q 0.54688,-0.439453 0.96191,-0.620117 0.41993,-0.185547 0.8545,-0.185547 0.23925,0 0.34668,0.01465 0.10742,0.0098 0.32226,0.04395 z"
     id="text4"
     style="font-size:10px;text-anchor:middle"
     aria-label="Explorer for Endevor" />
</svg>
