<svg xmlns="http://www.w3.org/2000/svg" role="img" xmlns:xlink="http://www.w3.org/1999/xlink" viewBox="-4.53 -4.53 248.82 66.07"><title>Explorer for Endevor</title><path d="M237.32 9.09c-1.06 0-1.93-.86-1.93-1.92s.87-1.93 1.93-1.93 1.93.87 1.93 1.93-.87 1.92-1.93 1.92m0-4.32c-1.32 0-2.4 1.08-2.4 2.4 0 1.32 1.08 2.4 2.4 2.4 1.32 0 2.4-1.08 2.4-2.4 0-1.32-1.08-2.4-2.4-2.4"/><path d="M237.48 7.07l-.51.01-.01-.62h.51c.19-.01.34.11.34.3.01.19-.14.31-.33.31m.83-.32c-.01-.42-.3-.72-.77-.72l-1.07.02.03 2.26h.49l-.01-.81h.35l.46.8.55-.01-.52-.86c.24-.06.49-.28.49-.68M51.8341 23.1805h-5.999V9.3465h5.835c1.574 0 2.557 1.016 2.557 2.393 0 1.377-.983 2.36-2.557 2.36H45v4h6.8341c1.836 0 2.819 1.18 2.819 2.556 0 1.574-1.049 2.525-2.819 2.525m3.376-7.245c2.066-.426 3.771-2.262 3.771-5.015 0-2.918-2.131-5.573-6.295-5.573h-11.506v21.865h11.867c4.163 0 6.359-2.623 6.359-5.901 0-2.754-1.868-5.015-4.196-5.376m17.8225-.5902H68v4.098h3.5576l4.294 7.769h5.343l-4.917-8.327c2.361-.557 4.786-2.622 4.786-6.49m0 0c0-4.065-2.786-7.048-7.343-7.048h-10.228v21.865h4.655V9.4453h4.885c1.869 0 3.278 1.114 3.278 2.95s-1.409 2.95-3.278 2.95m43.4206 4.0652l3.409-9.408 3.41 9.408zm.492-14.063l-8.458 21.865h5.31l1.377-3.704h9.376l1.344 3.704h5.311l-8.425-21.865zm26.9039 17.7671h-3.967v-13.67h3.967c4.491 0 6.851 2.983 6.851 6.852 0 3.704-2.524 6.818-6.851 6.818m0-17.767h-8.622v21.865h8.622c6.851 0 11.604-4.327 11.604-10.916s-4.753-10.949-11.604-10.949m82.1269-.0045l-5.734 9.27-5.734-9.27h-5.146v21.869h4.656v-14.293l5.012 7.622c.574.871 1.851.871 2.424 0l5.013-7.622v14.293h4.656V5.3431z"/><path id="a" d="M95.8253 23.3441c-3.871 0-7.008-3.138-7.008-7.008 0-3.871 3.137-7.009 7.008-7.009 3.87 0 7.008 3.138 7.008 7.009 0 3.87-3.138 7.008-7.008 7.008m0-18.536c-6.367 0-11.528 5.161-11.528 11.528 0 6.366 5.161 11.527 11.528 11.527 6.366 0 11.528-5.161 11.528-11.527 0-6.367-5.162-11.528-11.528-11.528"/><path d="M176.4035 19.7269c-1.195 2.156-3.492 3.617-6.132 3.617-3.87 0-7.008-3.138-7.008-7.008 0-3.871 3.138-7.008 7.008-7.008 2.618 0 4.897 1.438 6.1 3.565l3.27-3.269c-2.092-2.915-5.508-4.816-9.37-4.816-6.367 0-11.527 5.161-11.527 11.528 0 6.366 5.16 11.528 11.527 11.528 3.883 0 7.316-1.922 9.404-4.865z"/><use transform="translate(98.718)" xlink:href="#a"/><ellipse cx="16.52" cy="16.497" fill="#cc092f" rx="16.236" ry="16.235"/><path fill="#fff" d="M30.8253 20.8832c-1.857-.74-3.557-.492-5.261.541 0 0-.621.379-.807.496-.794.498-1.543.97-2.263.97-.687 0-1.363-.184-1.649-1.513-.446-2.073-1.534-7.167-2.009-9.69-.279-1.483-.432-2.282-.591-2.825-.28-.954-.792-1.473-1.519-1.556 0 0-.114-.016-.207-.016-.092 0-.218.018-.218.018-.72.086-1.229.605-1.507 1.554-.159.543-.312 1.342-.591 2.825-.475 2.523-1.563 7.617-2.009 9.69-.286 1.329-.962 1.513-1.649 1.513-.72 0-1.469-.472-2.263-.97-.186-.117-.808-.496-.808-.496-1.703-1.033-3.404-1.281-5.26-.541-.401.16-.79596.33918-1.17196.52018.257.806.57693 1.59925.94993 2.34425.411-.202.84203-.40243 1.28203-.53243.634-.187 1.284-.197 1.914.014.612.205 1.157.568 1.7.909 1.023.643 2.182 1.372 3.657 1.372 2.186 0 3.72-1.305 4.21-3.581.38-1.764 1.222-5.702 1.763-8.418 0 0 1.386 6.654 1.765 8.418.49 2.276 2.025 3.581 4.211 3.581 1.475 0 2.634-.729 3.657-1.372.543-.341 1.088-.704 1.7-.909.629-.211 1.28-.201 1.914-.014.44.13.87039.33065 1.28139.53265.374-.745.69309-1.53862.95009-2.34462-.376-.181-.77048-.36003-1.17148-.52003"/><path d="M32.52621 40.84776v-2.55158h-10.5621v14.40337h10.9151v-2.58772h-7.97439v-3.70507h6.996v-2.50155h-6.996v-3.05745zm-5.206-2.55158zm6.63466 14.40337h3.37988l1.84836-3.19365 1.83725 3.19365h3.46882l-3.63559-5.44226 3.49661-5.18933h-3.31038l-1.73997 3.08802-1.77888-3.08802h-3.41044l3.47993 5.23936zM52.9055 45.1949c.37524.63094.56146 1.35917.56146 2.17913 0 .99784-.2029 1.79555-.6087 2.39315-.4086.60037-.99785.90055-1.77333.90055-.53644 0-.99784-.14731-1.38975-.43916-.65596-.50309-.98672-1.37307-.98672-2.60995 0-.78104.10006-1.42588.29463-1.93453.378-.95893 1.0701-1.437 2.08184-1.437.83941 0 1.44812.31686 1.82057.9478zm2.14022-2.00402c-.86165-.91724-1.91508-1.37585-3.1603-1.37585-.8533 0-1.58987.23625-2.2097.71155-.33631.26683-.65596.63372-.95614 1.09512v-1.5732h-2.66832v14.84253h2.75726v-5.55066c.29185.45028.59203.79216.89778 1.02842.55868.42248 1.26467.63372 2.10964.63372 1.3286 0 2.41539-.49197 3.26035-1.47591.8422-.98394 1.26468-2.4126 1.26468-4.28877 0-1.77888-.43083-3.12694-1.29525-4.04695zm6.15103 9.50867V38.29618H58.4117v14.40337zm9.37248-2.83231c-.43639.57813-1.06177.86998-1.87617.86998-.81439 0-1.44256-.29185-1.88172-.86998-.43916-.58092-.65874-1.40365-.65874-2.47376 0-1.06733.21958-1.89006.65874-2.4682.43916-.57535 1.06733-.86442 1.88172-.86442.8144 0 1.43978.28907 1.87617.86443.43638.57813.65318 1.40086.65318 2.4682 0 1.0701-.2168 1.89283-.65318 2.47375zm2.22638 1.53706c.90055-1.10902 1.35083-2.44596 1.35083-4.01082 0-1.53706-.45028-2.86844-1.35083-3.99692-.89778-1.1257-2.26252-1.68993-4.0942-1.68993-1.82892 0-3.19365.56423-4.09421 1.68993-.89778 1.12848-1.34806 2.45986-1.34806 3.99692 0 1.56486.45028 2.9018 1.34806 4.01082.90056 1.1118 2.2653 1.6677 4.0942 1.6677 1.8317 0 3.19643-.5559 4.0942-1.6677zm-4.0942-9.6393zm13.35271.03335c-.03335-.00278-.07783-.00278-.13064-.00278-.83385 0-1.51204.2168-2.03181.65318-.31964.26128-.69488.74769-1.1257 1.45646v-1.8567h-2.6572v10.65104h2.80452v-5.08927c0-.85608.1084-1.48703.32242-1.8984.38357-.72822 1.13681-1.09234 2.25695-1.09234.08617 0 .19735.00278.33354.00834.1362.00834.29185.01946.46974.03891v-2.85176c-.12508-.00834-.20569-.01112-.24182-.01668zm4.57506 2.86844c.353-.40302.8533-.60593 1.49815-.60593.59481 0 1.08956.19179 1.49259.57258.40025.3808.6226.93947.66708 1.67604h-4.32768c.09172-.6921.31408-1.23688.66986-1.64269zm3.89408-2.40426c-.71155-.33076-1.50927-.49753-2.39593-.49753-1.48981 0-2.70446.49197-3.63837 1.47591-.93669.98394-1.40365 2.3987-1.40365 4.24152 0 1.96788.51977 3.3882 1.55375 4.26097 1.03675.87276 2.23193 1.30914 3.58833 1.30914 1.6399 0 2.91847-.51976 3.83015-1.55374.58648-.65318.91446-1.29524.98672-1.92619h-2.84342c-.1501.31408-.32243.55868-.51977.73379-.35856.3252-.82273.4892-1.39531.4892-.542 0-1.0034-.13343-1.38975-.40304-.63095-.42804-.96727-1.1785-1.00618-2.24583h7.29063c.0139-.92002-.01668-1.62323-.08894-2.11242-.1223-.83385-.39191-1.56486-.80884-2.19859-.46418-.71433-1.05065-1.23965-1.75942-1.5732zm-2.19859-.49753zm12.6495.03335c-.03613-.00278-.0806-.00278-.1334-.00278-.83386 0-1.51206.2168-2.03182.65318-.31965.26128-.69488.74769-1.12292 1.45646v-1.8567h-2.65998v10.65104h2.80451v-5.08927c0-.85608.1084-1.48703.32242-1.8984.38635-.72822 1.13682-1.09234 2.25974-1.09234.08338 0 .19456.00278.33076.00834.1362.00834.29463.01946.46973.03891v-2.85176c-.12507-.00834-.2029-.01112-.23903-.01668zm11.8379-3.6328c-.14454-.01113-.30297-.01668-.47808-.01668-1.5454 0-2.51822.31964-2.92403.95892-.38357.43083-.57536 1.21464-.57536 2.35424v.68376h-1.52316v1.9651h1.55374v8.58866h2.77394v-8.58866h1.82613v-1.9651h-1.82613V41.248c0-.20846.06949-.40025.21124-.57258.13898-.17233.39191-.25293.76158-.2446.3669.01112.63095.02502.7866.04448v-2.26807c-.24737-.01946-.44472-.03336-.58647-.0417zm8.91107 11.70169c-.43638.57813-1.06176.86998-1.87616.86998s-1.43978-.29185-1.88172-.86998c-.43916-.58092-.65874-1.40365-.65874-2.47376 0-1.06733.21958-1.89006.65874-2.4682.44194-.57535 1.06733-.86442 1.88172-.86442.8144 0 1.43978.28907 1.87616.86443.43639.57813.65597 1.40086.65597 2.4682 0 1.0701-.21958 1.89283-.65597 2.47375zm2.22916 1.53706c.89778-1.10902 1.34806-2.44596 1.34806-4.01082 0-1.53706-.45028-2.86844-1.34806-3.99692-.90055-1.1257-2.26529-1.68993-4.0942-1.68993-1.83169 0-3.19642.56423-4.0942 1.68993-.90056 1.12848-1.35084 2.45986-1.35084 3.99692 0 1.56486.45028 2.9018 1.35084 4.01082.89777 1.1118 2.2625 1.6677 4.0942 1.6677 1.82891 0 3.19365-.5559 4.0942-1.6677zm-4.0942-9.6393zm13.35272.03335c-.03614-.00278-.0806-.00278-.13342-.00278-.83385 0-1.51205.2168-2.03181.65318-.31965.26128-.69488.74769-1.12292 1.45646v-1.8567h-2.65998v10.65104h2.80451v-5.08927c0-.85608.1084-1.48703.32243-1.8984.38635-.72822 1.13681-1.09234 2.25973-1.09234.08338 0 .19456.00278.33076.00834.1362.00834.29463.01946.46974.03891v-2.85176c-.12508-.00834-.2029-.01112-.23904-.01668zm18.30578-.95059v-2.55158h-10.5621v14.40337h10.9151v-2.58772h-7.97438v-3.70507h6.996v-2.50155h-6.996v-3.05745zm-5.20878-2.55158zm16.2851 4.36381c-.70044-.57813-1.601-.86442-2.70168-.86442-.87832 0-1.60655.21402-2.17913.64484-.31964.23904-.65874.63373-1.01452 1.1813v-1.55375h-2.68777v10.63159h2.77394v-5.76468c0-.65875.09172-1.19797.27517-1.62323.35021-.8005.99784-1.20075 1.94287-1.20075.76992 0 1.28969.2724 1.56486.81996.15009.30018.22514.731.22514 1.28968v6.47902h2.85176v-7.17111c0-1.33694-.35021-2.29309-1.05065-2.86845zm-3.72732-.895zm12.99694.45584c-.50308-.2835-1.07566-.42526-1.7205-.42526-1.40087 0-2.51823.51977-3.35764 1.56208-.83663 1.04231-1.25356 2.47375-1.25356 4.29155 0 1.57597.42527 2.86566 1.27301 3.87462.85053 1.00618 1.8984 1.50927 3.14362 1.50927.75602 0 1.38697-.14454 1.89562-.43082.50865-.2863.95893-.74491 1.3564-1.37864v1.47592h2.70723V38.31564h-2.82397v5.08092c-.3113-.5003-.7199-.89222-1.2202-1.17573zm.68376 7.58804c-.41136.5837-1.00896.87832-1.79833.87832-.78938 0-1.37586-.29463-1.76499-.88388-.38635-.58925-.58091-1.37585-.58091-2.3598 0-.91167.19178-1.67603.57257-2.29308.3808-.61427.97839-.9228 1.79278-.9228.53367 0 1.0034.16955 1.40643.50865.65874.55868.98672 1.4926.98672 2.7934 0 .93391-.2029 1.69271-.61427 2.27919zm8.59422-5.14208c.35577-.40302.8533-.60593 1.50093-.60593.59203 0 1.08678.19179 1.4898.57258.40026.3808.62262.93947.66709 1.67604h-4.32768c.09172-.6921.31408-1.23688.66986-1.64269zm3.89408-2.40426c-.71156-.33076-1.50927-.49753-2.39315-.49753-1.4926 0-2.70724.49197-3.64115 1.47591s-1.40365 2.3987-1.40365 4.24152c0 1.96788.51977 3.3882 1.55374 4.26097 1.03676.87276 2.23194 1.30914 3.58834 1.30914 1.6399 0 2.91847-.51976 3.83015-1.55374.58647-.65318.91446-1.29524.98672-1.92619h-2.84343c-.15009.31408-.32242.55868-.51976.73379-.35578.3252-.82273.4892-1.39531.4892-.542 0-1.0034-.13343-1.38697-.40304-.63373-.42804-.97005-1.1785-1.00896-2.24583h7.29063c.0139-.92002-.01668-1.62323-.08895-2.11242-.1223-.83385-.3919-1.56486-.80883-2.19859-.46418-.71433-1.05065-1.23965-1.75942-1.5732zM182.836 41.765zm13.2999.2835l-2.26806 7.85765-2.21804-7.85765h-3.12694l3.82181 10.65105h2.94071l3.8385-10.65105zm11.21807 7.81874c-.43916.57813-1.06455.86998-1.87616.86998-.8144 0-1.44256-.29185-1.88172-.86998-.43916-.58092-.66152-1.40365-.66152-2.47376 0-1.06733.22236-1.89006.66152-2.4682.43916-.57535 1.06732-.86442 1.88172-.86442.81161 0 1.437.28907 1.87616.86443.43638.57813.65318 1.40086.65318 2.4682 0 1.0701-.2168 1.89283-.65318 2.47375zm2.22638 1.53706c.90056-1.10902 1.34806-2.44596 1.34806-4.01082 0-1.53706-.4475-2.86844-1.34806-3.99692-.89778-1.1257-2.26251-1.68993-4.0942-1.68993-1.8317 0-3.19643.56423-4.0942 1.68993-.89779 1.12848-1.34806 2.45986-1.34806 3.99692 0 1.56486.45027 2.9018 1.34805 4.01082.89778 1.1118 2.26252 1.6677 4.0942 1.6677 1.8317 0 3.19643-.5559 4.09421-1.6677zm-4.0942-9.6393zm13.35271.03335c-.03613-.00278-.0806-.00278-.13063-.00278-.83385 0-1.51205.2168-2.0346.65318-.31686.26128-.6921.74769-1.12291 1.45646v-1.8567h-2.6572v10.65104h2.8045l.00001-5.08927c0-.85608.1084-1.48703.32242-1.8984.38357-.72822 1.13682-1.09234 2.25696-1.09234.08338 0 .19456.00278.33354.00834.1362.00834.29184.01946.46695.03891v-2.85176c-.1223-.00834-.2029-.01112-.23904-.01668z"/></svg>