<svg xmlns="http://www.w3.org/2000/svg" role="img" xmlns:xlink="http://www.w3.org/1999/xlink" viewBox="-4.53 -4.53 248.82 53.07"><path d="M237.32 9.09c-1.06 0-1.93-.86-1.93-1.92s.87-1.93 1.93-1.93 1.93.87 1.93 1.93-.87 1.92-1.93 1.92m0-4.32c-1.32 0-2.4 1.08-2.4 2.4 0 1.32 1.08 2.4 2.4 2.4 1.32 0 2.4-1.08 2.4-2.4 0-1.32-1.08-2.4-2.4-2.4"/><path d="M237.48 7.07l-.51.01-.01-.62h.51c.19-.01.34.11.34.3.01.19-.14.31-.33.31m.83-.32c-.01-.42-.3-.72-.77-.72l-1.07.02.03 2.26h.49l-.01-.81h.35l.46.8.55-.01-.52-.86c.24-.06.49-.28.49-.68M51.8341 23.1805h-5.999V9.3465h5.835c1.574 0 2.557 1.016 2.557 2.393 0 1.377-.983 2.36-2.557 2.36H45v4h6.8341c1.836 0 2.819 1.18 2.819 2.556 0 1.574-1.049 2.525-2.819 2.525m3.376-7.245c2.066-.426 3.771-2.262 3.771-5.015 0-2.918-2.131-5.573-6.295-5.573h-11.506v21.865h11.867c4.163 0 6.359-2.623 6.359-5.901 0-2.754-1.868-5.015-4.196-5.376m17.8225-.5902H68v4.098h3.5576l4.294 7.769h5.343l-4.917-8.327c2.361-.557 4.786-2.622 4.786-6.49m0 0c0-4.065-2.786-7.048-7.343-7.048h-10.228v21.865h4.655V9.4453h4.885c1.869 0 3.278 1.114 3.278 2.95s-1.409 2.95-3.278 2.95m43.4206 4.0652l3.409-9.408 3.41 9.408zm.492-14.063l-8.458 21.865h5.31l1.377-3.704h9.376l1.344 3.704h5.311l-8.425-21.865zm26.9039 17.7671h-3.967v-13.67h3.967c4.491 0 6.851 2.983 6.851 6.852 0 3.704-2.524 6.818-6.851 6.818m0-17.767h-8.622v21.865h8.622c6.851 0 11.604-4.327 11.604-10.916s-4.753-10.949-11.604-10.949m82.1269-.0045l-5.734 9.27-5.734-9.27h-5.146v21.869h4.656v-14.293l5.012 7.622c.574.871 1.851.871 2.424 0l5.013-7.622v14.293h4.656V5.3431z"/><path id="a" d="M95.8253 23.3441c-3.871 0-7.008-3.138-7.008-7.008 0-3.871 3.137-7.009 7.008-7.009 3.87 0 7.008 3.138 7.008 7.009 0 3.87-3.138 7.008-7.008 7.008m0-18.536c-6.367 0-11.528 5.161-11.528 11.528 0 6.366 5.161 11.527 11.528 11.527 6.366 0 11.528-5.161 11.528-11.527 0-6.367-5.162-11.528-11.528-11.528"/><path d="M176.4035 19.7269c-1.195 2.156-3.492 3.617-6.132 3.617-3.87 0-7.008-3.138-7.008-7.008 0-3.871 3.138-7.008 7.008-7.008 2.618 0 4.897 1.438 6.1 3.565l3.27-3.269c-2.092-2.915-5.508-4.816-9.37-4.816-6.367 0-11.527 5.161-11.527 11.528 0 6.366 5.16 11.528 11.527 11.528 3.883 0 7.316-1.922 9.404-4.865z"/><use transform="translate(98.718)" xlink:href="#a"/><ellipse cx="16.52" cy="16.497" fill="#cc092f" rx="16.236" ry="16.235"/><path fill="#fff" d="M30.8253 20.8832c-1.857-.74-3.557-.492-5.261.541 0 0-.621.379-.807.496-.794.498-1.543.97-2.263.97-.687 0-1.363-.184-1.649-1.513-.446-2.073-1.534-7.167-2.009-9.69-.279-1.483-.432-2.282-.591-2.825-.28-.954-.792-1.473-1.519-1.556 0 0-.114-.016-.207-.016-.092 0-.218.018-.218.018-.72.086-1.229.605-1.507 1.554-.159.543-.312 1.342-.591 2.825-.475 2.523-1.563 7.617-2.009 9.69-.286 1.329-.962 1.513-1.649 1.513-.72 0-1.469-.472-2.263-.97-.186-.117-.808-.496-.808-.496-1.703-1.033-3.404-1.281-5.26-.541-.401.16-.79596.33918-1.17196.52018.257.806.57693 1.59925.94993 2.34425.411-.202.84203-.40243 1.28203-.53243.634-.187 1.284-.197 1.914.014.612.205 1.157.568 1.7.909 1.023.643 2.182 1.372 3.657 1.372 2.186 0 3.72-1.305 4.21-3.581.38-1.764 1.222-5.702 1.763-8.418 0 0 1.386 6.654 1.765 8.418.49 2.276 2.025 3.581 4.211 3.581 1.475 0 2.634-.729 3.657-1.372.543-.341 1.088-.704 1.7-.909.629-.211 1.28-.201 1.914-.014.44.13.87039.33065 1.28139.53265.374-.745.69309-1.53862.95009-2.34462-.376-.181-.77048-.36003-1.17148-.52003"/><path d="M83.19597 37.72025v6.03405h1.25461V41.2206h2.65265v-1.0494h-2.65265v-1.38871h3.02927v-1.06223zm6.23577 1.03308v-1.07855h-1.18466v1.07855zm-1.18466.53286v4.46811h1.18466v-4.4681zm3.5085 4.46811v-6.0422h-1.16834v6.0422zm2.27253-3.36974c.14925-.16907.35913-.25418.62964-.25418.24836 0 .45707.08045.62497.2402.1679.15973.26235.3941.28101.70309h-1.81546c.03731-.29033.13176-.51887.27984-.6891zm1.63356-1.00859c-.29733-.13875-.63197-.20871-1.00392-.20871-.62614 0-1.13452.20638-1.5263.61915-.39294.41276-.58883 1.00625-.58883 1.77931 0 .82553.21688 1.42136.6518 1.78748.43492.36612.9363.54919 1.50414.54919.6891 0 1.2243-.21805 1.60675-.6518.24602-.274.38478-.54335.41393-.80804h-1.19282c-.0618.13176-.13526.23437-.21688.30783-.15041.13642-.34513.20521-.5865.20521-.2262 0-.42092-.05596-.58183-.16907-.26468-.17956-.40577-.49438-.4221-.94212h3.05843c.00466-.38595-.007-.68095-.03732-.88616-.0513-.3498-.16557-.65646-.34047-.92231-.19355-.29966-.43958-.52004-.73808-.65996zm-.9223-.20871zm9.25687-1.45517l-1.0902 4.75145-1.09955-4.75145h-1.83645v6.04221h1.1765v-4.08683c0-.11776-.00117-.28217-.0035-.49438-.0035-.21105-.00466-.37429-.00466-.48972l1.13568 5.07093h1.22547l1.14384-5.07093c0 .11543-.00116.27867-.0035.48972-.0035.21221-.00466.37662-.00466.49438v4.08683h1.1765v-6.0422zm5.35777 3.86996v.43491c-.00816.39061-.11893.65996-.32998.80688-.2122.14808-.44424.22154-.69493.22154-.15858 0-.29383-.04431-.4046-.13293-.1096-.08861-.16558-.2332-.16558-.43258 0-.22388.08979-.38945.27052-.49672.10727-.06296.28333-.11543.52936-.15974l.26235-.04897c.1306-.02449.23437-.0513.30899-.0793.07462-.02914.14925-.06645.22387-.1131zm-.7101-.5457l-.3976.04898c-.45007.0583-.79171.15391-1.02375.288-.42442.24603-.63547.64363-.63547 1.19282 0 .42326.13176.7509.39528.98177.26351.23087.59816.3463 1.0016.3463.31714 0 .60165-.07229.8535-.21804.20988-.12243.39644-.27168.55735-.44658.00816.10145.01866.19123.03265.27052.014.07928.03848.1644.07346.25418h1.27094v-.17256c-.07696-.03498-.1341-.08046-.17257-.13526-.03731-.05364-.06063-.15741-.0688-.31132-.00582-.20172-.00816-.37429-.00816-.51654v-2.04866c0-.5387-.19005-.90482-.57017-1.09954-.38012-.19356-.81503-.29033-1.30359-.29033-.75207 0-1.28143.19588-1.59042.59-.19472.25185-.30316.5725-.32765.9631h1.12636c.02798-.17256.08278-.30898.1644-.40926.11544-.13759.31016-.20521.5865-.20521.24603 0 .43259.03498.55968.10377.1271.06996.19006.19705.19006.38012 0 .15041-.08279.26001-.24952.33114-.09328.04198-.2472.07579-.46407.1026zm.0618-1.86909zm3.76385 3.16103h-1.18465c0 .45823.16674.83602.50138 1.13335.33464.29616.85351.44424 1.55544.44424.6891 0 1.19748-.13992 1.52746-.41976.32881-.27984.49439-.6413.49439-1.08438 0-.3358-.11544-.61681-.34514-.84068-.23203-.22154-.58067-.38595-1.04474-.49555-.69726-.15275-1.10303-.26119-1.2173-.32415-.11543-.05947-.17257-.15741-.17257-.29033 0-.10728.05364-.20056.16208-.27984.10727-.07813.28916-.11777.54335-.11777.30783 0 .52703.07812.6553.2367.06879.08745.11076.20638.12709.3568h1.16833c-.0513-.5457-.25302-.93047-.60399-1.15318-.35213-.2227-.8057-.33464-1.36305-.33464-.58767 0-1.04357.14808-1.36772.44541-.32415.29616-.48506.65063-.48506 1.0634 0 .3498.10378.61797.31133.80337.20754.18889.56434.34513 1.06922.47106.7031.16674 1.10886.2845 1.2173.3533.1096.06763.1644.1679.1644.2985 0 .13642-.06762.23902-.20288.30782-.13525.06763-.31715.1026-.54685.1026-.39061 0-.65879-.07812-.80337-.23436-.08279-.08745-.13526-.23437-.15975-.44191zm.89316-3.16103zm2.40662.99227h.62265v2.75059c0 .27867.0653.48506.19705.61915.20172.20988.5795.30549 1.13102.28683l.55385-.02099v-.87333a1.93578 1.93578 0 0 1-.11776.007c-.03965.00116-.07696.00233-.11194.00233-.23786 0-.38012-.02332-.42676-.0688-.04664-.0443-.06996-.15857-.06996-.34163v-2.36115h.72642V39.327h-.72642v-1.24529h-1.1555v1.2453h-.62265zm4.38766.22503c.14925-.16907.35913-.25418.62964-.25418.24836 0 .45707.08045.62498.2402.1679.15973.26118.3941.281.70309H119.876c.03847-.29033.13175-.51887.281-.6891zm1.63357-1.00859c-.29733-.13875-.63314-.20871-1.00393-.20871-.62614 0-1.13568.20638-1.52746.61915-.39177.41276-.58766 1.00625-.58766 1.77931 0 .82553.21687 1.42136.6518 1.78748.43374.36612.93512.54919 1.50413.54919.6891 0 1.2243-.21805 1.60675-.6518.24603-.274.38361-.54335.41393-.80804h-1.19282c-.06296.13176-.13525.23437-.21687.30783-.15042.13642-.3463.20521-.5865.20521-.22737 0-.42093-.05596-.58184-.16907-.26584-.17956-.40576-.49438-.42209-.94212h3.05725c.00583-.38595-.007-.68095-.03614-.88616-.05247-.3498-.16557-.65646-.34047-.92231-.19473-.29966-.43959-.52004-.73808-.65996zm-.9223-.20871zm5.30646.014c-.01516-.00117-.03382-.00117-.0548-.00117-.3498 0-.6343.09094-.85352.274-.13409.10961-.29033.31366-.47106.61099v-.77889h-1.1147v4.46811h1.1765v-2.13494c0-.35913.0443-.62381.13525-.79638.16091-.3055.4769-.45824.9468-.45824.03498 0 .08162.00117.13875.0035.0583.0035.1236.00816.19705.01632v-1.19631c-.0513-.0035-.08511-.00467-.10027-.007zm6.36636-.21922c.16557.1341.24719.35797.24719.67279 0 .31365-.08162.54335-.2472.6891-.16556.14459-.3976.21688-.69493.21688h-1.1765v-1.77932h1.1765c.29733 0 .52937.06763.69494.20055zm.95728 2.17693c.3603-.295.54103-.79871.54103-1.5123 0-.65297-.18073-1.13569-.54103-1.44701-.36146-.31132-.84535-.46757-1.45167-.46757h-2.63166v6.04221h1.25462v-2.17225h1.2826c.66928 0 1.18465-.14809 1.54611-.44308zm2.5862 2.61533v-6.0422h-1.16834v6.0422zm2.304-4.4681h-1.19747v2.69345c0 .51071.06413.89782.19239 1.16017.2297.47573.67511.7136 1.3374.7136.22853 0 .42909-.03032.60049-.09095.17023-.05947.34747-.1714.53053-.33581.05946-.05247.11193-.11194.15508-.18073.0443-.06763.07112-.1096.08278-.12243v.6308h1.13569v-4.4681h-1.18466v2.4311c0 .28684-.03848.5177-.11543.6926-.14692.32299-.42093.4839-.8197.4839-.31132 0-.52004-.1131-.62731-.34048-.05947-.12826-.08978-.31948-.08978-.57367zm.8197-.11894zm4.05419 3.16103h-1.18466c0 .45823.16674.83602.50255 1.13335.33464.29616.85234.44424 1.55544.44424.68794 0 1.19748-.13992 1.5263-.41976.32997-.27984.49438-.6413.49438-1.08438 0-.3358-.11543-.61681-.34397-.84068-.2332-.22154-.58067-.38595-1.0459-.49555-.69727-.15275-1.10304-.26119-1.2173-.32415-.11427-.05947-.17257-.15741-.17257-.29033 0-.10728.0548-.20056.16207-.27984.10844-.07813.28917-.11777.54336-.11777.30899 0 .52703.07812.65645.2367.06763.08745.1096.20638.1271.3568h1.16716c-.0513-.5457-.25302-.93047-.60398-1.15318-.35097-.2227-.80571-.33464-1.36306-.33464-.58766 0-1.04357.14808-1.36772.44541-.32298.29616-.48505.65063-.48505 1.0634 0 .3498.10377.61797.31132.80337.20755.18889.56434.34513 1.07039.47106.70193.16674 1.1077.2845 1.2173.3533.1096.06763.16324.1679.16324.2985 0 .13642-.06763.23902-.20288.30782-.13526.06763-.31715.1026-.54686.1026-.3906 0-.65879-.07812-.80337-.23436-.08162-.08745-.13526-.23437-.15974-.44191zm.89315-3.16103zm5.4359-.72525h.89315v2.31218h.88616V38.442h.90598v-.72992h-2.6853zm4.21858-.72992h-1.26277v3.0421h.80687V38.5481l.65995 2.20608h.68911l.65996-2.20608v2.20608h.80803v-3.0421h-1.26277l-.5457 1.75017z"/></svg>