<?xml version="1.0" encoding="UTF-8" standalone="no"?>
<!-- Created with Inkscape (http://www.inkscape.org/) -->

<svg
   xmlns:dc="http://purl.org/dc/elements/1.1/"
   xmlns:cc="http://creativecommons.org/ns#"
   xmlns:rdf="http://www.w3.org/1999/02/22-rdf-syntax-ns#"
   xmlns:svg="http://www.w3.org/2000/svg"
   xmlns="http://www.w3.org/2000/svg"
   xmlns:sodipodi="http://sodipodi.sourceforge.net/DTD/sodipodi-0.dtd"
   xmlns:inkscape="http://www.inkscape.org/namespaces/inkscape"
   version="1.1"
   id="svg13312"
   xml:space="preserve"
   width="278.04105"
   height="220.0188"
   viewBox="0 0 278.04105 220.0188"
   sodipodi:docname="geode.svg"
   inkscape:version="0.92.3 (2405546, 2018-03-11)"><metadata
     id="metadata13318"><rdf:RDF><cc:Work
         rdf:about=""><dc:format>image/svg+xml</dc:format><dc:type
           rdf:resource="http://purl.org/dc/dcmitype/StillImage" /><dc:title></dc:title></cc:Work></rdf:RDF></metadata><defs
     id="defs13316"><clipPath
       clipPathUnits="userSpaceOnUse"
       id="clipPath13432"><path
         d="M 0,360 H 360 V 0 H 0 Z"
         id="path13430"
         inkscape:connector-curvature="0" /></clipPath></defs><sodipodi:namedview
     pagecolor="#ffffff"
     bordercolor="#666666"
     borderopacity="1"
     objecttolerance="10"
     gridtolerance="10"
     guidetolerance="10"
     inkscape:pageopacity="0"
     inkscape:pageshadow="2"
     inkscape:window-width="3726"
     inkscape:window-height="2049"
     id="namedview13314"
     showgrid="false"
     fit-margin-top="0"
     fit-margin-left="0"
     fit-margin-right="0"
     fit-margin-bottom="0"
     inkscape:zoom="2.7812867"
     inkscape:cx="139.61827"
     inkscape:cy="96.44387"
     inkscape:window-x="114"
     inkscape:window-y="55"
     inkscape:window-maximized="1"
     inkscape:current-layer="g13428" /><g
     id="g13320"
     inkscape:groupmode="layer"
     inkscape:label="geode"
     transform="matrix(1.3333333,0,0,-1.3333333,-100.38173,363.57492)"><g
       id="g13322"
       transform="translate(159.2557,263.1755)"><path
         d="M 0,0 7.605,-24.02 -9.396,-5.426 -7.411,1.985 Z"
         style="fill:#0089d0;fill-opacity:1;fill-rule:nonzero;stroke:none"
         id="path13324"
         inkscape:connector-curvature="0" /></g><g
       id="g13326"
       transform="translate(138.7162,246.6051)"><path
         d="m 0,0 18.596,-16.999 -24.02,7.602 -1.987,7.411 z"
         style="fill:#0089d0;fill-opacity:1;fill-rule:nonzero;stroke:none"
         id="path13328"
         inkscape:connector-curvature="0" /></g><g
       id="g13330"
       transform="translate(129.2136,221.985)"><path
         d="M 0,0 24.604,-5.424 0.001,-10.85 -5.425,-5.425 Z"
         style="fill:#0089d0;fill-opacity:1;fill-rule:nonzero;stroke:none"
         id="path13332"
         inkscape:connector-curvature="0" /></g><g
       id="g13334"
       transform="translate(174.4849,165.87)"><path
         d="M 0,0 5.424,24.604 10.85,0.001 5.425,-5.425 Z"
         style="fill:#0089d0;fill-opacity:1;fill-rule:nonzero;stroke:none"
         id="path13336"
         inkscape:connector-curvature="0" /></g><g
       id="g13338"
       transform="translate(200.5578,169.9507)"><path
         d="M 0,0 -7.605,24.02 9.396,5.426 7.411,-1.985 Z"
         style="fill:#0089d0;fill-opacity:1;fill-rule:nonzero;stroke:none"
         id="path13340"
         inkscape:connector-curvature="0" /></g><g
       id="g13342"
       transform="translate(221.0973,186.5211)"><path
         d="M 0,0 -18.596,16.999 5.424,9.397 7.411,1.986 Z"
         style="fill:#0089d0;fill-opacity:1;fill-rule:nonzero;stroke:none"
         id="path13344"
         inkscape:connector-curvature="0" /></g><g
       id="g13346"
       transform="translate(199.1547,213.521)"><path
         d="M 0,0 -16.529,3.065 0,6.133 3.066,3.067 Z"
         style="fill:#0089d0;fill-opacity:1;fill-rule:nonzero;stroke:none"
         id="path13348"
         inkscape:connector-curvature="0" /></g><g
       id="g13350"
       transform="translate(209.9488,257.7537)"><path
         d="m 0,0 -16.999,-18.596 7.602,24.02 7.411,1.987 z"
         style="fill:#0089d0;fill-opacity:1;fill-rule:nonzero;stroke:none"
         id="path13352"
         inkscape:connector-curvature="0" /></g><g
       id="g13354"
       transform="translate(128.7743,206.7208)"><path
         d="M 0,0 16.881,0.757 1.884,-7.029 -2.573,-4.456 Z"
         style="fill:#0089d0;fill-opacity:1;fill-rule:nonzero;stroke:none"
         id="path13356"
         inkscape:connector-curvature="0" /></g><g
       id="g13358"
       transform="translate(209.6595,206.1155)"><path
         d="M 0,0 -11.597,5.533 1.213,4.528 2.87,1.658 Z"
         style="fill:#0089d0;fill-opacity:1;fill-rule:nonzero;stroke:none"
         id="path13360"
         inkscape:connector-curvature="0" /></g><g
       id="g13362"
       transform="translate(185.3286,267.2562)"><path
         d="m 0,0 -5.423,-24.604 -5.427,24.603 5.425,5.426 z"
         style="fill:#74489d;fill-opacity:1;fill-rule:nonzero;stroke:none"
         id="path13364"
         inkscape:connector-curvature="0" /></g><g
       id="g13366"
       transform="translate(133.2943,195.912)"><path
         d="M 0,0 24.02,7.605 5.426,-9.396 -1.985,-7.411 Z"
         style="fill:#74489d;fill-opacity:1;fill-rule:nonzero;stroke:none"
         id="path13368"
         inkscape:connector-curvature="0" /></g><g
       id="g13370"
       transform="translate(149.8647,175.3725)"><path
         d="M 0,0 16.999,18.596 9.397,-5.424 1.986,-7.411 Z"
         style="fill:#74489d;fill-opacity:1;fill-rule:nonzero;stroke:none"
         id="path13372"
         inkscape:connector-curvature="0" /></g><g
       id="g13374"
       transform="translate(195.0435,204.3032)"><path
         d="M 0,0 -12.782,10.919 3.066,5.311 4.189,1.123 Z"
         style="fill:#74489d;fill-opacity:1;fill-rule:nonzero;stroke:none"
         id="path13376"
         inkscape:connector-curvature="0" /></g><g
       id="g13378"
       transform="translate(230.5998,211.1412)"><path
         d="M 0,0 -24.604,5.424 -0.001,10.85 5.425,5.425 Z"
         style="fill:#74489d;fill-opacity:1;fill-rule:nonzero;stroke:none"
         id="path13380"
         inkscape:connector-curvature="0" /></g><g
       id="g13382"
       transform="translate(145.8168,255.9239)"><path
         d="M 0,0 9.096,-14.241 -5.145,-5.146 -5.146,0 Z"
         style="fill:#74489d;fill-opacity:1;fill-rule:nonzero;stroke:none"
         id="path13384"
         inkscape:connector-curvature="0" /></g><g
       id="g13386"
       transform="translate(145.8168,255.9239)"><path
         d="M 0,0 9.096,-14.241 -5.145,-5.146 -5.146,0 Z"
         style="fill:#74489d;fill-opacity:1;fill-rule:nonzero;stroke:none"
         id="path13388"
         inkscape:connector-curvature="0" /></g><g
       id="g13390"
       transform="translate(162.8642,167.36)"><path
         d="M 0,0 7.785,14.998 7.029,-1.883 2.573,-4.456 Z"
         style="fill:#74489d;fill-opacity:1;fill-rule:nonzero;stroke:none"
         id="path13392"
         inkscape:connector-curvature="0" /></g><g
       id="g13394"
       transform="translate(219.2675,250.653)"><path
         d="M 0,0 -14.241,-9.096 -5.146,5.145 0,5.146 Z"
         style="fill:#74489d;fill-opacity:1;fill-rule:nonzero;stroke:none"
         id="path13396"
         inkscape:connector-curvature="0" /></g><g
       id="g13398"
       transform="translate(170.0644,267.6955)"><path
         d="m 0,0 0.757,-16.881 -7.786,14.997 2.573,4.457 z"
         style="fill:#454242;fill-opacity:1;fill-rule:nonzero;stroke:none"
         id="path13400"
         inkscape:connector-curvature="0" /></g><g
       id="g13402"
       transform="translate(130.7036,233.6056)"><path
         d="m 0,0 14.998,-7.785 -16.881,0.756 -2.573,4.456 z"
         style="fill:#454242;fill-opacity:1;fill-rule:nonzero;stroke:none"
         id="path13404"
         inkscape:connector-curvature="0" /></g><g
       id="g13406"
       transform="translate(140.5459,182.4732)"><path
         d="M 0,0 14.241,9.096 5.146,-5.145 0,-5.146 Z"
         style="fill:#454242;fill-opacity:1;fill-rule:nonzero;stroke:none"
         id="path13408"
         inkscape:connector-curvature="0" /></g><g
       id="g13410"
       transform="translate(189.7491,165.4307)"><path
         d="M 0,0 -0.757,16.881 7.029,1.884 4.456,-2.573 Z"
         style="fill:#454242;fill-opacity:1;fill-rule:nonzero;stroke:none"
         id="path13412"
         inkscape:connector-curvature="0" /></g><g
       id="g13414"
       transform="translate(213.9966,177.2023)"><path
         d="M 0,0 -9.096,14.241 5.145,5.146 5.146,0 Z"
         style="fill:#454242;fill-opacity:1;fill-rule:nonzero;stroke:none"
         id="path13416"
         inkscape:connector-curvature="0" /></g><g
       id="g13418"
       transform="translate(229.1098,199.5206)"><path
         d="M 0,0 -14.998,7.785 1.883,7.029 4.456,2.573 Z"
         style="fill:#454242;fill-opacity:1;fill-rule:nonzero;stroke:none"
         id="path13420"
         inkscape:connector-curvature="0" /></g><g
       id="g13422"
       transform="translate(196.9492,265.7662)"><path
         d="m 0,0 -7.785,-14.998 0.756,16.881 4.456,2.573 z"
         style="fill:#454242;fill-opacity:1;fill-rule:nonzero;stroke:none"
         id="path13424"
         inkscape:connector-curvature="0" /></g><g
       id="g13426"><g
         id="g13428"
         clip-path="url(#clipPath13432)"><g
           id="g13434"
           transform="translate(75.2863,126.5351)"><path
             d="m 0,0 v 0.104 c 0,10.634 8.34,18.974 19.599,18.974 6.411,0 10.945,-1.929 14.802,-5.265 L 28.459,6.62 c -2.605,2.19 -5.16,3.441 -8.809,3.441 -5.264,0 -9.33,-4.379 -9.33,-9.957 L 10.32,0 c 0,-5.941 4.118,-10.164 9.904,-10.164 2.502,0 4.379,0.521 5.838,1.512 v 4.43 H 18.921 V 3.18 H 35.652 V -13.187 C 31.795,-16.419 26.479,-18.868 19.807,-18.868 8.443,-18.868 0,-11.05 0,0"
             style="fill:#454242;fill-opacity:1;fill-rule:nonzero;stroke:none"
             id="path13436"
             inkscape:connector-curvature="0" /></g><g
           id="g13438"
           transform="translate(122.0675,144.8828)"><path
             d="M 0,0 H 29.346 V -8.548 H 10.008 v -5.577 H 27.521 V -22.1 H 10.008 v -5.786 h 19.598 v -8.6 H 0 Z"
             style="fill:#454242;fill-opacity:1;fill-rule:nonzero;stroke:none"
             id="path13440"
             inkscape:connector-curvature="0" /></g><g
           id="g13442"
           transform="translate(189.1368,126.5351)"><path
             d="m 0,0 v 0.104 c 0,5.318 -3.753,9.852 -9.33,9.852 -5.578,0 -9.278,-4.482 -9.278,-9.747 V 0.104 c 0,-5.264 3.804,-9.851 9.381,-9.851 C -3.701,-9.747 0,-5.264 0,0 m -28.929,0 v 0.104 c 0,10.478 8.444,18.974 19.702,18.974 11.259,0 19.599,-8.392 19.599,-18.869 V 0.104 c 0,-10.476 -8.443,-18.972 -19.702,-18.972 -11.259,0 -19.599,8.391 -19.599,18.868"
             style="fill:#454242;fill-opacity:1;fill-rule:nonzero;stroke:none"
             id="path13444"
             inkscape:connector-curvature="0" /></g><g
           id="g13446"
           transform="translate(219.8213,135.9697)"><path
             d="m 0,0 v -18.608 h 4.118 c 6.099,0 10.111,3.336 10.111,9.226 v 0.105 C 14.229,-3.439 10.217,0 4.118,0 Z M -10.112,8.913 H 4.014 c 12.978,0 20.537,-7.506 20.537,-18.034 v -0.105 c 0,-10.529 -7.662,-18.347 -20.746,-18.347 h -13.917 z"
             style="fill:#454242;fill-opacity:1;fill-rule:nonzero;stroke:none"
             id="path13448"
             inkscape:connector-curvature="0" /></g><g
           id="g13450"
           transform="translate(254.2111,144.8828)"><path
             d="M 0,0 H 29.346 V -8.548 H 10.008 v -5.577 H 27.521 V -22.1 H 10.008 v -5.786 h 19.598 v -8.6 H 0 Z"
             style="fill:#454242;fill-opacity:1;fill-rule:nonzero;stroke:none"
             id="path13452"
             inkscape:connector-curvature="0" /></g></g></g></g></svg>