<svg xmlns="http://www.w3.org/2000/svg" role="img" viewBox="-17.25 -16.75 871.00 505.50"><title>HoGent logo</title><style>svg {enable-background:new 0 0 837.5 472.6}</style><path d="M224.4 8.5v209.2H162v-81.6H77v81.6H14.6V8.5H77v78.6h85V8.5z"/><path d="M394.5 161.2c8.6-5 15.3-12 20.3-21.1 5-9.1 7.5-19.5 7.5-31.2 0-11.8-2.5-22.2-7.5-31.2-5-9.1-11.8-16.1-20.3-21.1-8.6-5-18.1-7.5-28.7-7.5-10.6 0-20.1 2.5-28.7 7.5-8.6 5-15.3 12-20.3 21.1-5 9.1-7.5 19.5-7.5 31.2 0 11.8 2.5 22.2 7.5 31.2 5 9.1 11.8 16.1 20.3 21.1 8.6 5 18.1 7.5 28.7 7.5 10.5 0 20.1-2.5 28.7-7.5m-88.3 42.5c-17.6-9.4-31.5-22.3-41.5-38.9-10.1-16.5-15.1-35.2-15.1-55.9 0-20.7 5-39.3 15.1-55.9 10.1-16.5 23.9-29.5 41.5-38.9 17.6-9.4 37.5-14 59.6-14s42 4.7 59.6 14c17.6 9.4 31.5 22.3 41.5 38.9C477 69.6 482 88.2 482 108.9c0 20.7-5 39.3-15.1 55.9-10.1 16.5-23.9 29.5-41.5 38.9-17.6 9.4-37.5 14-59.6 14s-42-4.7-59.6-14M150.8 359.1h52.3v86.7c-12 8.6-25.7 15.1-41.2 19.7-15.5 4.6-31.1 6.9-46.6 6.9-21.9 0-41.6-4.6-59.2-13.9-17.5-9.3-31.3-22.2-41.2-38.7C4.9 403.3 0 384.5 0 363.6s5-39.6 14.9-56.2c10-16.5 23.8-29.4 41.5-38.7 17.7-9.3 37.8-13.9 60.1-13.9 19.5 0 37.1 3.3 52.6 9.9 15.5 6.6 28.5 16 38.9 28.4l-37.7 34.1c-14.1-15.5-31.1-23.3-50.8-23.3-17.9 0-32.4 5.4-43.3 16.3-11 10.9-16.4 25.4-16.4 43.5 0 11.6 2.5 21.9 7.5 30.9 5 9.1 12 16.1 20.9 21.2 9 5.1 19.2 7.6 30.8 7.6 11.4 0 22-2.3 32-6.9v-57.4z"/><path d="M399.1 422.5v45.7H240.3V259h158.8v45.8H298.9V340h100.2v44.3H298.9v38.2zM634.2 259v209.2h-48.7l-92.3-111.4v111.4h-58V259h48.7l92.3 111.5V259zm26.9 0v47h58.7v162.2H779V306h58.5v-47z"/></svg>