<?xml version="1.0" encoding="utf-8"?>
<!-- Generator: Adobe Illustrator 23.0.4, SVG Export Plug-In . SVG Version: 6.00 Build 0)  -->
<svg version="1.1" id="Layer_1" xmlns="http://www.w3.org/2000/svg" xmlns:xlink="http://www.w3.org/1999/xlink" x="0px" y="0px"
	 viewBox="0 0 837.5 472.6" style="enable-background:new 0 0 837.5 472.6;" xml:space="preserve">
<polygon points="224.4,8.5 224.4,217.7 162,217.7 162,136.1 77,136.1 77,217.7 14.6,217.7 14.6,8.5 77,8.5 77,87.1 162,87.1 
	162,8.5 "/>
<g>
	<path d="M394.5,161.2c8.6-5,15.3-12,20.3-21.1c5-9.1,7.5-19.5,7.5-31.2c0-11.8-2.5-22.2-7.5-31.2c-5-9.1-11.8-16.1-20.3-21.1
		c-8.6-5-18.1-7.5-28.7-7.5c-10.6,0-20.1,2.5-28.7,7.5c-8.6,5-15.3,12-20.3,21.1c-5,9.1-7.5,19.5-7.5,31.2c0,11.8,2.5,22.2,7.5,31.2
		c5,9.1,11.8,16.1,20.3,21.1c8.6,5,18.1,7.5,28.7,7.5C376.3,168.7,385.9,166.2,394.5,161.2 M306.2,203.7
		c-17.6-9.4-31.5-22.3-41.5-38.9c-10.1-16.5-15.1-35.2-15.1-55.9c0-20.7,5-39.3,15.1-55.9c10.1-16.5,23.9-29.5,41.5-38.9
		c17.6-9.4,37.5-14,59.6-14s42,4.7,59.6,14c17.6,9.4,31.5,22.3,41.5,38.9C477,69.6,482,88.2,482,108.9c0,20.7-5,39.3-15.1,55.9
		c-10.1,16.5-23.9,29.5-41.5,38.9c-17.6,9.4-37.5,14-59.6,14S323.8,213,306.2,203.7"/>
	<path d="M150.8,359.1h52.3v86.7c-12,8.6-25.7,15.1-41.2,19.7c-15.5,4.6-31.1,6.9-46.6,6.9c-21.9,0-41.6-4.6-59.2-13.9
		c-17.5-9.3-31.3-22.2-41.2-38.7c-10-16.5-14.9-35.3-14.9-56.2s5-39.6,14.9-56.2c10-16.5,23.8-29.4,41.5-38.7
		c17.7-9.3,37.8-13.9,60.1-13.9c19.5,0,37.1,3.3,52.6,9.9c15.5,6.6,28.5,16,38.9,28.4l-37.7,34.1c-14.1-15.5-31.1-23.3-50.8-23.3
		c-17.9,0-32.4,5.4-43.3,16.3c-11,10.9-16.4,25.4-16.4,43.5c0,11.6,2.5,21.9,7.5,30.9c5,9.1,12,16.1,20.9,21.2
		c9,5.1,19.2,7.6,30.8,7.6c11.4,0,22-2.3,32-6.9V359.1z"/>
</g>
<polygon points="399.1,422.5 399.1,468.2 240.3,468.2 240.3,259 399.1,259 399.1,304.8 298.9,304.8 298.9,340 399.1,340 
	399.1,384.3 298.9,384.3 298.9,422.5 "/>
<polygon points="634.2,259 634.2,468.2 585.5,468.2 493.2,356.8 493.2,468.2 435.2,468.2 435.2,259 483.9,259 576.2,370.5 
	576.2,259 "/>
<polygon points="661.1,259 661.1,306 719.8,306 719.8,468.2 779,468.2 779,306 837.5,306 837.5,259 "/>
</svg>
