<svg xmlns="http://www.w3.org/2000/svg" role="img" viewBox="-7.97 34.03 414.18 221.68"><title>IBM Z Open Editor</title><style>svg {enable-background:new 0 0 400 245}</style><style>.st0{fill:#4c83c3}</style><g><path d="M398.3 53.5L332 53.5 336.1 42.1 398.3 42.1zM221.5 42.1l61.6 0 4 11.5c0 0-65.6 0-65.6 0C221.6 53.5 221.5 42.1 221.5 42.1zM172.7 42.1c10.1 1 19 4.6 26.5 11.5 0 0-111.6 0-111.6 0 0 0 0-11.5 0-11.5L172.7 42.1z" class="st0"/><g><path d="M0 42.1H77.5V53.5H0z" class="st0"/></g><path d="M398.3 75h-73.9c0 0 4-11.4 4-11.4h69.9V75zM294.8 75L221.5 75 221.5 63.6 290.7 63.6zM207.8 63.6c1.5 3.8 3.2 7 3.2 11.4H87.6V63.6H207.8z" class="st0"/><g><path d="M0 63.6H77.5V75H0z" class="st0"/></g><path d="M316.8 96.5L320.9 85.1 376.4 85.1 376.4 96.5zM298.3 85.1L302.4 96.5 243.4 96.5 243.4 85.1zM212 85c0 3.9-.5 8-1.6 11.4h-33.8V85H212z" class="st0"/><g><path d="M21.6 85.1H54.9V96.5H21.6z" class="st0"/></g><g><path d="M110 85H143.3V96.4H110z" class="st0"/></g><path d="M276.1 108.8c0 0 0 8.7 0 8.7h-32.8v-11.4h62.4l3.9 10.6c0 0 3.7-10.6 3.7-10.6h62.9v11.4h-32.6c0 0 0-8.7 0-8.7l-3 8.7-61.6 0L276.1 108.8zM110 106.1h95.5v0c-2.1 3.8-5.9 8.4-9.5 11.4 0 0-86 0-86 0C110 117.5 110 106.1 110 106.1z" class="st0"/><g><path d="M21.6 106.1H54.9V117.5H21.6z" class="st0"/></g><g><path d="M343.8 127.6H376.40000000000003V139H343.8z" class="st0"/></g><path d="M276.1 127.6h-32.8v11.4c0 0 32.8 0 32.8 0C276.1 138.9 276.2 127.6 276.1 127.6zM337.2 127.6c-.1 0-3.8 11.4-4 11.4l-46.4 0c0 0-4.1-11.4-4.1-11.4H337.2zM110 127.6h85.8c3.9 3.3 7.5 7.3 10.2 11.4.2 0-96.1 0-96.1 0C110 138.9 110 127.6 110 127.6zM54.9 138.9v-11.4H21.7c0 0 0 11.4 0 11.4C21.7 138.9 54.9 138.9 54.9 138.9z" class="st0"/><g><path d="M343.8 149H376.40000000000003V160.4H343.8z" class="st0"/></g><g><path d="M243.4 149H276.2V160.4H243.4z" class="st0"/></g><path d="M325.6 160.4c0-.1 4-11.4 4.1-11.4h-39.5c-.1 0 4 11.4 4 11.4S325.6 160.5 325.6 160.4zM110 160.4c0 0 0-11.4 0-11.4h33.8c0 0 0 11.4 0 11.4C143.7 160.4 110 160.4 110 160.4zM210.8 149c1.6 3.4 1.8 7.5 2.1 11.4h-35.8V149H210.8z" class="st0"/><g><path d="M21.7 149H55V160.4H21.7z" class="st0"/></g><g><path d="M343.8 170H398.3V181.4H343.8z" class="st0"/></g><g><path d="M221.5 170H276.1V181.4H221.5z" class="st0"/></g><path d="M318.2 181.4L301.6 181.4 297.6 170 322.1 170zM0 170v11.4h77.5c0 0 0-11.4 0-11.4C77.5 170-.1 170 0 170zM211.5 170c-.8 3.8-1.6 8.3-4.3 11.4l-1 0H87.6V170H211.5zM310.7 202.9L309.2 202.9 305.3 191.5 314.7 191.5z" class="st0"/><g><path d="M343.8 191.5H398.3V202.9H343.8z" class="st0"/></g><path d="M87.6,202.9v-11.4c0,0,111.9,0,112.2,0c-7.5,7.2-17.8,11.2-28.9,11.4L87.6,202.9" class="st0"/><g><path d="M221.5 191.5H276.1V202.9H221.5z" class="st0"/></g><path d="M77.5,191.5c0,0,0,11.4,0,11.4c0,0-77.4,0-77.5,0c0,0,0-11.4,0-11.4S77.4,191.6,77.5,191.5z" class="st0"/></g><path d="M15.40 55.44L15.40 3.62L4.64 3.62L4.64 55.44ZM10.02 2.60ZM36 12.62L47.39 12.62C49.90 12.62 51.96 12.89 53.58 13.43C55.45 14.20 56.39 15.80 56.39 18.21C56.39 20.39 55.68 21.91 54.26 22.76C52.85 23.62 51.00 24.05 48.73 24.05L36 24.05ZM36 32.63L48.90 32.63C51.15 32.65 52.90 32.94 54.14 33.50C56.37 34.51 57.48 36.36 57.48 39.06C57.48 42.25 56.33 44.40 54.04 45.53C52.77 46.14 51.00 46.44 48.73 46.44L36 46.44ZM64.34 9.14C61.69 5.55 57.19 3.71 50.84 3.62L25.66 3.62L25.66 55.44L49.15 55.44C51.80 55.44 54.25 55.21 56.51 54.74C58.78 54.27 60.74 53.40 62.40 52.14C63.88 51.04 65.11 49.68 66.09 48.06C67.64 45.62 68.41 42.87 68.41 39.80C68.41 36.82 67.74 34.29 66.39 32.20C65.04 30.12 63.05 28.59 60.40 27.63C62.13 26.74 63.45 25.76 64.34 24.68C65.93 22.76 66.73 20.21 66.73 17.05C66.73 13.98 65.93 11.34 64.34 9.14ZM111.83 3.62L102.48 44.37L93.06 3.62L77.31 3.62L77.31 55.44L87.40 55.44L87.40 20.39C87.40 19.38 87.39 17.97 87.36 16.15C87.34 14.34 87.33 12.94 87.33 11.95L97.07 55.44L107.58 55.44L117.39 11.95C117.39 12.94 117.38 14.34 117.35 16.15C117.33 17.97 117.32 19.38 117.32 20.39L117.32 55.44L127.41 55.44L127.41 3.62ZM153.81 46.30L153.81 55.44L194.13 55.44L194.13 46.30L166.96 46.30L194.06 12.30L194.06 3.62L154.48 3.62L154.48 12.80L180.56 12.80ZM174.27 3.62ZM254.58 42.96C252.06 46.13 248.66 47.71 244.37 47.71C240.08 47.71 236.66 46.13 234.11 42.96C231.55 39.80 230.27 35.30 230.27 29.46C230.27 23.63 231.55 19.13 234.11 15.96C236.66 12.80 240.08 11.21 244.37 11.21C248.66 11.21 252.06 12.80 254.58 15.98C257.10 19.15 258.36 23.65 258.36 29.46C258.36 35.30 257.10 39.80 254.58 42.96ZM261.35 50.84C266.58 45.89 269.19 38.77 269.19 29.46C269.19 19.97 266.58 12.84 261.35 8.09C257.44 4.05 251.78 2.04 244.37 2.04C236.96 2.04 231.30 4.05 227.39 8.09C222.14 12.84 219.52 19.97 219.52 29.46C219.52 38.77 222.14 45.89 227.39 50.84C231.30 54.87 236.96 56.88 244.37 56.88C251.78 56.88 257.44 54.87 261.35 50.84ZM244.37 2.04ZM301.03 28.44C302.37 30.71 303.05 33.33 303.05 36.28C303.05 39.87 302.31 42.74 300.85 44.89C299.38 47.05 297.26 48.13 294.47 48.13C292.55 48.13 290.88 47.60 289.48 46.55C287.11 44.74 285.93 41.61 285.93 37.16C285.93 34.35 286.28 32.03 286.98 30.20C288.34 26.75 290.84 25.03 294.47 25.03C297.49 25.03 299.68 26.17 301.03 28.44ZM308.72 21.23C305.62 17.93 301.83 16.28 297.35 16.28C294.28 16.28 291.63 17.13 289.41 18.84C288.19 19.80 287.04 21.12 285.96 22.78L285.96 17.12L276.36 17.12L276.36 70.52L286.28 70.52L286.28 50.55C287.33 52.17 288.41 53.40 289.51 54.25C291.53 55.77 294.06 56.53 297.11 56.53C301.89 56.53 305.79 54.76 308.83 51.22C311.87 47.68 313.38 42.54 313.38 35.79C313.38 29.39 311.83 24.54 308.72 21.23ZM330.35 26.54C331.62 25.09 333.42 24.36 335.74 24.36C337.88 24.36 339.66 25.05 341.10 26.42C342.54 27.79 343.35 29.80 343.51 32.45L327.94 32.45C328.27 29.96 329.07 28.00 330.35 26.54ZM344.36 17.89C341.80 16.70 338.93 16.10 335.74 16.10C330.37 16.10 326.01 17.87 322.65 21.41C319.28 24.95 317.60 30.04 317.60 36.67C317.60 43.75 319.46 48.86 323.19 52.00C326.92 55.14 331.22 56.71 336.09 56.71C342 56.71 346.59 54.84 349.88 51.12C351.98 48.77 353.17 46.46 353.43 44.19L343.20 44.19C342.66 45.32 342.04 46.20 341.33 46.83C340.04 48.00 338.37 48.59 336.30 48.59C334.36 48.59 332.70 48.11 331.31 47.14C329.04 45.60 327.83 42.90 327.69 39.06L353.92 39.06C353.96 35.75 353.86 33.22 353.60 31.46C353.16 28.46 352.18 25.83 350.68 23.55C349.02 20.98 346.91 19.09 344.36 17.89ZM336.45 16.10ZM391.62 19.32C389.10 17.24 385.86 16.21 381.90 16.21C378.74 16.21 376.13 16.98 374.06 18.53C372.91 19.39 371.70 20.81 370.41 22.78L370.41 17.19L360.74 17.19L360.74 55.44L370.72 55.44L370.72 34.70C370.72 32.33 371.05 30.39 371.71 28.86C372.97 25.98 375.30 24.54 378.70 24.54C381.47 24.54 383.34 25.52 384.33 27.49C384.87 28.57 385.14 30.12 385.14 32.13L385.14 55.44L395.40 55.44L395.40 29.64C395.40 24.83 394.14 21.39 391.62 19.32ZM378.21 16.10ZM463.78 12.80L463.78 3.62L425.78 3.62L425.78 55.44L465.05 55.44L465.05 46.13L436.36 46.13L436.36 32.80L461.53 32.80L461.53 23.80L436.36 23.80L436.36 12.80ZM445.04 3.62ZM493.00 17.74C491.19 16.72 489.13 16.21 486.81 16.21C481.77 16.21 477.74 18.08 474.73 21.83C471.72 25.58 470.21 30.73 470.21 37.27C470.21 42.94 471.74 47.58 474.80 51.21C477.86 54.83 481.63 56.64 486.11 56.64C488.82 56.64 491.10 56.12 492.93 55.09C494.75 54.06 496.38 52.41 497.81 50.13L497.81 55.44L507.55 55.44L507.55 3.69L497.39 3.69L497.39 21.97C496.27 20.17 494.80 18.76 493.00 17.74ZM495.46 45.04C493.98 47.14 491.82 48.20 488.99 48.20C486.15 48.20 484.04 47.14 482.64 45.02C481.25 42.90 480.55 40.07 480.55 36.53C480.55 33.25 481.24 30.50 482.61 28.28C483.98 26.07 486.13 24.96 489.06 24.96C490.98 24.96 492.67 25.57 494.12 26.79C496.49 28.80 497.67 32.16 497.67 36.84C497.67 40.20 496.93 42.93 495.46 45.04ZM526.96 12.55L526.96 3.30L516.80 3.30L516.80 12.55ZM516.80 17.12L516.80 55.44L526.96 55.44L526.96 17.12ZM532.72 24.61L538.07 24.61L538.07 48.20C538.07 50.59 538.63 52.36 539.75 53.51C541.49 55.31 544.72 56.13 549.46 55.97L554.20 55.79L554.20 48.30C553.88 48.33 553.54 48.35 553.20 48.36C552.86 48.37 552.54 48.38 552.23 48.38C550.20 48.38 548.98 48.18 548.58 47.79C548.18 47.41 547.98 46.43 547.98 44.86L547.98 24.61L554.20 24.61L554.20 17.47L547.98 17.47L547.98 6.79L538.07 6.79L538.07 17.47L532.72 17.47ZM584.58 45.25C583.01 47.33 580.76 48.38 577.83 48.38C574.90 48.38 572.64 47.33 571.06 45.25C569.48 43.16 568.69 40.20 568.69 36.35C568.69 32.51 569.48 29.55 571.06 27.47C572.64 25.40 574.90 24.36 577.83 24.36C580.76 24.36 583.01 25.40 584.58 27.47C586.15 29.55 586.93 32.51 586.93 36.35C586.93 40.20 586.15 43.16 584.58 45.25ZM592.59 50.78C595.83 46.79 597.45 41.98 597.45 36.35C597.45 30.82 595.83 26.03 592.59 21.97C589.36 17.92 584.45 15.89 577.86 15.89C571.28 15.89 566.37 17.92 563.13 21.97C559.90 26.03 558.28 30.82 558.28 36.35C558.28 41.98 559.90 46.79 563.13 50.78C566.37 54.78 571.28 56.78 577.86 56.78C584.45 56.78 589.36 54.78 592.59 50.78ZM577.86 16.10ZM625.90 16.22C625.78 16.21 625.62 16.21 625.43 16.21C622.43 16.21 619.99 16.99 618.12 18.56C616.97 19.50 615.62 21.25 614.07 23.80L614.07 17.12L604.51 17.12L604.51 55.44L614.60 55.44L614.60 37.13C614.60 34.05 614.99 31.78 615.76 30.30C617.14 27.68 619.85 26.37 623.88 26.37C624.19 26.37 624.59 26.38 625.08 26.40C625.57 26.43 626.13 26.47 626.77 26.54L626.77 16.28C626.32 16.25 626.03 16.24 625.90 16.22Z" transform="translate(33.448 210.71) scale(.52765)"/></svg>