<svg xmlns="http://www.w3.org/2000/svg" role="img" viewBox="-7.97 34.03 414.18 203.18"><title>Z/OS Workload Interaction Navigator</title><style>svg {enable-background:new 0 0 400 245}</style><style>.st0{fill:#4c83c3}</style><g><path d="M398.3 53.5L332 53.5 336.1 42.1 398.3 42.1zM221.5 42.1l61.6 0 4 11.5c0 0-65.6 0-65.6 0C221.6 53.5 221.5 42.1 221.5 42.1zM172.7 42.1c10.1 1 19 4.6 26.5 11.5 0 0-111.6 0-111.6 0 0 0 0-11.5 0-11.5L172.7 42.1z" class="st0"/><g><path d="M0 42.1H77.5V53.5H0z" class="st0"/></g><path d="M398.3 75h-73.9c0 0 4-11.4 4-11.4h69.9V75zM294.8 75L221.5 75 221.5 63.6 290.7 63.6zM207.8 63.6c1.5 3.8 3.2 7 3.2 11.4H87.6V63.6H207.8z" class="st0"/><g><path d="M0 63.6H77.5V75H0z" class="st0"/></g><path d="M316.8 96.5L320.9 85.1 376.4 85.1 376.4 96.5zM298.3 85.1L302.4 96.5 243.4 96.5 243.4 85.1zM212 85c0 3.9-.5 8-1.6 11.4h-33.8V85H212z" class="st0"/><g><path d="M21.6 85.1H54.9V96.5H21.6z" class="st0"/></g><g><path d="M110 85H143.3V96.4H110z" class="st0"/></g><path d="M276.1 108.8c0 0 0 8.7 0 8.7h-32.8v-11.4h62.4l3.9 10.6c0 0 3.7-10.6 3.7-10.6h62.9v11.4h-32.6c0 0 0-8.7 0-8.7l-3 8.7-61.6 0L276.1 108.8zM110 106.1h95.5v0c-2.1 3.8-5.9 8.4-9.5 11.4 0 0-86 0-86 0C110 117.5 110 106.1 110 106.1z" class="st0"/><g><path d="M21.6 106.1H54.9V117.5H21.6z" class="st0"/></g><g><path d="M343.8 127.6H376.40000000000003V139H343.8z" class="st0"/></g><path d="M276.1 127.6h-32.8v11.4c0 0 32.8 0 32.8 0C276.1 138.9 276.2 127.6 276.1 127.6zM337.2 127.6c-.1 0-3.8 11.4-4 11.4l-46.4 0c0 0-4.1-11.4-4.1-11.4H337.2zM110 127.6h85.8c3.9 3.3 7.5 7.3 10.2 11.4.2 0-96.1 0-96.1 0C110 138.9 110 127.6 110 127.6zM54.9 138.9v-11.4H21.7c0 0 0 11.4 0 11.4C21.7 138.9 54.9 138.9 54.9 138.9z" class="st0"/><g><path d="M343.8 149H376.40000000000003V160.4H343.8z" class="st0"/></g><g><path d="M243.4 149H276.2V160.4H243.4z" class="st0"/></g><path d="M325.6 160.4c0-.1 4-11.4 4.1-11.4h-39.5c-.1 0 4 11.4 4 11.4S325.6 160.5 325.6 160.4zM110 160.4c0 0 0-11.4 0-11.4h33.8c0 0 0 11.4 0 11.4C143.7 160.4 110 160.4 110 160.4zM210.8 149c1.6 3.4 1.8 7.5 2.1 11.4h-35.8V149H210.8z" class="st0"/><g><path d="M21.7 149H55V160.4H21.7z" class="st0"/></g><g><path d="M343.8 170H398.3V181.4H343.8z" class="st0"/></g><g><path d="M221.5 170H276.1V181.4H221.5z" class="st0"/></g><path d="M318.2 181.4L301.6 181.4 297.6 170 322.1 170zM0 170v11.4h77.5c0 0 0-11.4 0-11.4C77.5 170-.1 170 0 170zM211.5 170c-.8 3.8-1.6 8.3-4.3 11.4l-1 0H87.6V170H211.5zM310.7 202.9L309.2 202.9 305.3 191.5 314.7 191.5z" class="st0"/><g><path d="M343.8 191.5H398.3V202.9H343.8z" class="st0"/></g><path d="M87.6,202.9v-11.4c0,0,111.9,0,112.2,0c-7.5,7.2-17.8,11.2-28.9,11.4L87.6,202.9" class="st0"/><g><path d="M221.5 191.5H276.1V202.9H221.5z" class="st0"/></g><path d="M77.5,191.5c0,0,0,11.4,0,11.4c0,0-77.4,0-77.5,0c0,0,0-11.4,0-11.4S77.4,191.6,77.5,191.5z" class="st0"/></g><path d="M1.83 46.30L1.83 55.44L42.15 55.44L42.15 46.30L14.98 46.30L42.08 12.30L42.08 3.62L2.50 3.62L2.50 12.80L28.58 12.80ZM22.29 3.62ZM60.12 2.04L40.04 55.44L48.30 55.44L68.45 2.04ZM102.60 42.96C100.08 46.13 96.68 47.71 92.39 47.71C88.10 47.71 84.68 46.13 82.13 42.96C79.57 39.80 78.29 35.30 78.29 29.46C78.29 23.63 79.57 19.13 82.13 15.96C84.68 12.80 88.10 11.21 92.39 11.21C96.68 11.21 100.08 12.80 102.60 15.98C105.12 19.15 106.38 23.65 106.38 29.46C106.38 35.30 105.12 39.80 102.60 42.96ZM109.37 50.84C114.60 45.89 117.21 38.77 117.21 29.46C117.21 19.97 114.60 12.84 109.37 8.09C105.46 4.05 99.80 2.04 92.39 2.04C84.98 2.04 79.32 4.05 75.41 8.09C70.16 12.84 67.54 19.97 67.54 29.46C67.54 38.77 70.16 45.89 75.41 50.84C79.32 54.87 84.98 56.88 92.39 56.88C99.80 56.88 105.46 54.87 109.37 50.84ZM92.39 2.04ZM133.31 39.45L122.98 39.45C122.98 44.84 124.91 49.07 128.78 52.15C132.64 55.24 137.95 56.78 144.70 56.78C151.31 56.78 156.43 55.21 160.05 52.08C163.67 48.96 165.48 45.02 165.48 40.29C165.48 35.67 163.93 32.14 160.84 29.71C158.85 28.14 155.89 26.88 151.98 25.95L143.05 23.80C139.61 22.98 137.36 22.27 136.30 21.66C134.66 20.74 133.84 19.36 133.84 17.51C133.84 15.49 134.67 13.92 136.34 12.80C138.00 11.67 140.23 11.11 143.02 11.11C145.52 11.11 147.62 11.54 149.31 12.41C151.84 13.72 153.20 15.94 153.39 19.05L163.79 19.05C163.61 13.55 161.58 9.35 157.73 6.45C153.87 3.56 149.21 2.11 143.75 2.11C137.21 2.11 132.26 3.64 128.88 6.71C125.51 9.79 123.82 13.64 123.82 18.28C123.82 23.37 125.57 27.11 129.06 29.50C131.12 30.93 134.85 32.25 140.24 33.47L145.72 34.70C148.93 35.40 151.29 36.21 152.79 37.13C154.29 38.06 155.04 39.39 155.04 41.10C155.04 44.03 153.53 46.03 150.50 47.11C148.91 47.67 146.84 47.95 144.28 47.95C140.02 47.95 137.00 46.89 135.25 44.75C134.29 43.58 133.64 41.81 133.31 39.45ZM143.82 2.04ZM200.57 3.62L189.07 3.62L203.77 55.44L213.82 55.44L220.08 25.14L221.91 15.12L223.73 25.14L229.99 55.44L240.33 55.44L254.92 3.62L243.91 3.62L236.99 33.61L235.41 41.55L233.82 33.29L227.67 3.62L216.25 3.62L210.41 33.47L208.90 41.55L207.42 33.29ZM284.59 45.25C283.02 47.33 280.77 48.38 277.84 48.38C274.91 48.38 272.65 47.33 271.07 45.25C269.49 43.16 268.70 40.20 268.70 36.35C268.70 32.51 269.49 29.55 271.07 27.47C272.65 25.40 274.91 24.36 277.84 24.36C280.77 24.36 283.02 25.40 284.59 27.47C286.16 29.55 286.95 32.51 286.95 36.35C286.95 40.20 286.16 43.16 284.59 45.25ZM292.61 50.78C295.84 46.79 297.46 41.98 297.46 36.35C297.46 30.82 295.84 26.03 292.61 21.97C289.37 17.92 284.46 15.89 277.88 15.89C271.29 15.89 266.38 17.92 263.14 21.97C259.91 26.03 258.29 30.82 258.29 36.35C258.29 41.98 259.91 46.79 263.14 50.78C266.38 54.78 271.29 56.78 277.88 56.78C284.46 56.78 289.37 54.78 292.61 50.78ZM277.88 16.10ZM325.92 16.22C325.79 16.21 325.63 16.21 325.44 16.21C322.44 16.21 320.00 16.99 318.13 18.56C316.98 19.50 315.63 21.25 314.09 23.80L314.09 17.12L304.52 17.12L304.52 55.44L314.61 55.44L314.61 37.13C314.61 34.05 315 31.78 315.77 30.30C317.16 27.68 319.86 26.37 323.89 26.37C324.20 26.37 324.60 26.38 325.09 26.40C325.58 26.43 326.14 26.47 326.78 26.54L326.78 16.28C326.33 16.25 326.04 16.24 325.92 16.22ZM332.54 3.80L332.54 55.44L342.39 55.44L342.39 43.38L346.54 39.06L355.71 55.44L367.80 55.44L353.88 31.96L367.28 17.30L354.87 17.30L342.39 31.71L342.39 3.80ZM382.92 55.44L382.92 3.62L372.90 3.62L372.90 55.44ZM416.64 45.25C415.07 47.33 412.82 48.38 409.89 48.38C406.96 48.38 404.70 47.33 403.12 45.25C401.54 43.16 400.75 40.20 400.75 36.35C400.75 32.51 401.54 29.55 403.12 27.47C404.70 25.40 406.96 24.36 409.89 24.36C412.82 24.36 415.07 25.40 416.64 27.47C418.21 29.55 418.99 32.51 418.99 36.35C418.99 40.20 418.21 43.16 416.64 45.25ZM424.65 50.78C427.89 46.79 429.50 41.98 429.50 36.35C429.50 30.82 427.89 26.03 424.65 21.97C421.42 17.92 416.51 15.89 409.92 15.89C403.34 15.89 398.43 17.92 395.19 21.97C391.96 26.03 390.34 30.82 390.34 36.35C390.34 41.98 391.96 46.79 395.19 50.78C398.43 54.78 403.34 56.78 409.92 56.78C416.51 56.78 421.42 54.78 424.65 50.78ZM409.92 16.10ZM457.80 36.81L457.80 40.54C457.73 43.89 456.79 46.20 454.97 47.46C453.16 48.73 451.17 49.36 449.02 49.36C447.66 49.36 446.50 48.98 445.55 48.22C444.60 47.46 444.13 46.22 444.13 44.51C444.13 42.59 444.90 41.17 446.45 40.25C447.36 39.71 448.88 39.26 450.98 38.88L453.23 38.46C454.36 38.25 455.24 38.02 455.89 37.78C456.53 37.53 457.17 37.21 457.80 36.81ZM451.72 32.13L448.31 32.55C444.45 33.05 441.52 33.87 439.52 35.02C435.89 37.13 434.07 40.54 434.07 45.25C434.07 48.88 435.21 51.69 437.47 53.67C439.73 55.65 442.59 56.64 446.06 56.64C448.78 56.64 451.22 56.02 453.38 54.77C455.18 53.72 456.77 52.44 458.16 50.94C458.23 51.81 458.32 52.58 458.44 53.26C458.55 53.94 458.77 54.67 459.07 55.44L469.97 55.44L469.97 53.96C469.31 53.66 468.82 53.27 468.49 52.80C468.16 52.34 467.96 51.45 467.89 50.13C467.85 48.40 467.82 46.92 467.82 45.70L467.82 28.13C467.82 23.51 466.20 20.37 462.94 18.70C459.68 17.04 455.95 16.21 451.76 16.21C445.31 16.21 440.77 17.89 438.12 21.27C436.45 23.43 435.52 26.18 435.30 29.53L444.97 29.53C445.21 28.05 445.68 26.88 446.38 26.02C447.36 24.84 449.04 24.26 451.41 24.26C453.52 24.26 455.12 24.56 456.21 25.15C457.29 25.75 457.84 26.84 457.84 28.41C457.84 29.70 457.13 30.64 455.70 31.25C454.90 31.61 453.57 31.90 451.72 32.13ZM452.25 16.10ZM497.04 17.74C495.23 16.72 493.17 16.21 490.85 16.21C485.81 16.21 481.79 18.08 478.78 21.83C475.76 25.58 474.26 30.73 474.26 37.27C474.26 42.94 475.79 47.58 478.85 51.21C481.90 54.83 485.67 56.64 490.15 56.64C492.87 56.64 495.14 56.12 496.97 55.09C498.80 54.06 500.43 52.41 501.86 50.13L501.86 55.44L511.59 55.44L511.59 3.69L501.43 3.69L501.43 21.97C500.31 20.17 498.84 18.76 497.04 17.74ZM499.50 45.04C498.02 47.14 495.87 48.20 493.03 48.20C490.20 48.20 488.08 47.14 486.69 45.02C485.29 42.90 484.59 40.07 484.59 36.53C484.59 33.25 485.28 30.50 486.65 28.28C488.02 26.07 490.17 24.96 493.10 24.96C495.02 24.96 496.71 25.57 498.16 26.79C500.53 28.80 501.71 32.16 501.71 36.84C501.71 40.20 500.98 42.93 499.50 45.04ZM551.43 55.44L551.43 3.62L540.67 3.62L540.67 55.44ZM546.05 2.60ZM591.66 19.32C589.14 17.24 585.90 16.21 581.94 16.21C578.78 16.21 576.16 16.98 574.10 18.53C572.95 19.39 571.73 20.81 570.45 22.78L570.45 17.19L560.78 17.19L560.78 55.44L570.76 55.44L570.76 34.70C570.76 32.33 571.09 30.39 571.75 28.86C573.01 25.98 575.34 24.54 578.74 24.54C581.51 24.54 583.38 25.52 584.37 27.49C584.91 28.57 585.18 30.12 585.18 32.13L585.18 55.44L595.44 55.44L595.44 29.64C595.44 24.83 594.18 21.39 591.66 19.32ZM578.25 16.10ZM600.75 24.61L606.09 24.61L606.09 48.20C606.09 50.59 606.66 52.36 607.78 53.51C609.52 55.31 612.75 56.13 617.48 55.97L622.23 55.79L622.23 48.30C621.90 48.33 621.57 48.35 621.23 48.36C620.89 48.37 620.57 48.38 620.26 48.38C618.22 48.38 617.00 48.18 616.61 47.79C616.21 47.41 616.01 46.43 616.01 44.86L616.01 24.61L622.23 24.61L622.23 17.47L616.01 17.47L616.01 6.79L606.09 6.79L606.09 17.47L600.75 17.47ZM638.38 26.54C639.66 25.09 641.46 24.36 643.78 24.36C645.91 24.36 647.70 25.05 649.14 26.42C650.58 27.79 651.39 29.80 651.55 32.45L635.98 32.45C636.30 29.96 637.11 28.00 638.38 26.54ZM652.39 17.89C649.84 16.70 646.97 16.10 643.78 16.10C638.41 16.10 634.05 17.87 630.69 21.41C627.32 24.95 625.64 30.04 625.64 36.67C625.64 43.75 627.50 48.86 631.23 52.00C634.96 55.14 639.26 56.71 644.13 56.71C650.04 56.71 654.63 54.84 657.91 51.12C660.02 48.77 661.21 46.46 661.46 44.19L651.23 44.19C650.70 45.32 650.07 46.20 649.37 46.83C648.08 48.00 646.41 48.59 644.34 48.59C642.40 48.59 640.73 48.11 639.35 47.14C637.08 45.60 635.87 42.90 635.73 39.06L661.96 39.06C662.00 35.75 661.90 33.22 661.64 31.46C661.20 28.46 660.22 25.83 658.72 23.55C657.06 20.98 654.95 19.09 652.39 17.89ZM644.48 16.10ZM689.99 16.22C689.87 16.21 689.71 16.21 689.52 16.21C686.52 16.21 684.08 16.99 682.21 18.56C681.06 19.50 679.71 21.25 678.16 23.80L678.16 17.12L668.60 17.12L668.60 55.44L678.69 55.44L678.69 37.13C678.69 34.05 679.08 31.78 679.85 30.30C681.23 27.68 683.94 26.37 687.97 26.37C688.28 26.37 688.68 26.38 689.17 26.40C689.66 26.43 690.22 26.47 690.86 26.54L690.86 16.28C690.41 16.25 690.12 16.24 689.99 16.22ZM717.86 36.81L717.86 40.54C717.79 43.89 716.84 46.20 715.03 47.46C713.21 48.73 711.22 49.36 709.07 49.36C707.71 49.36 706.55 48.98 705.60 48.22C704.65 47.46 704.18 46.22 704.18 44.51C704.18 42.59 704.95 41.17 706.50 40.25C707.41 39.71 708.93 39.26 711.04 38.88L713.29 38.46C714.41 38.25 715.29 38.02 715.94 37.78C716.58 37.53 717.22 37.21 717.86 36.81ZM711.77 32.13L708.36 32.55C704.50 33.05 701.57 33.87 699.57 35.02C695.94 37.13 694.13 40.54 694.13 45.25C694.13 48.88 695.26 51.69 697.52 53.67C699.78 55.65 702.64 56.64 706.11 56.64C708.83 56.64 711.27 56.02 713.43 54.77C715.23 53.72 716.82 52.44 718.21 50.94C718.28 51.81 718.37 52.58 718.49 53.26C718.61 53.94 718.82 54.67 719.12 55.44L730.02 55.44L730.02 53.96C729.36 53.66 728.87 53.27 728.54 52.80C728.21 52.34 728.02 51.45 727.95 50.13C727.90 48.40 727.88 46.92 727.88 45.70L727.88 28.13C727.88 23.51 726.25 20.37 722.99 18.70C719.73 17.04 716.00 16.21 711.81 16.21C705.36 16.21 700.82 17.89 698.17 21.27C696.50 23.43 695.57 26.18 695.36 29.53L705.02 29.53C705.26 28.05 705.73 26.88 706.43 26.02C707.41 24.84 709.09 24.26 711.46 24.26C713.57 24.26 715.17 24.56 716.26 25.15C717.35 25.75 717.89 26.84 717.89 28.41C717.89 29.70 717.18 30.64 715.75 31.25C714.95 31.61 713.63 31.90 711.77 32.13ZM712.30 16.10ZM759.66 30.87L769.92 30.87C769.36 25.41 767.55 21.60 764.49 19.44C761.43 17.29 757.50 16.21 752.70 16.21C747.05 16.21 742.62 18.04 739.41 21.69C736.20 25.35 734.59 30.47 734.59 37.05C734.59 42.89 736.04 47.64 738.95 51.29C741.86 54.95 746.39 56.78 752.55 56.78C758.72 56.78 763.37 54.59 766.51 50.20C768.48 47.48 769.58 44.60 769.82 41.55L759.59 41.55C759.38 43.57 758.78 45.21 757.79 46.48C756.81 47.74 755.14 48.38 752.80 48.38C749.50 48.38 747.25 46.78 746.05 43.59C745.39 41.88 745.07 39.62 745.07 36.81C745.07 33.86 745.39 31.49 746.05 29.71C747.29 26.36 749.60 24.68 752.98 24.68C755.34 24.68 757.09 25.45 758.21 27C758.99 28.15 759.47 29.44 759.66 30.87ZM752.87 16.10ZM772.88 24.61L778.22 24.61L778.22 48.20C778.22 50.59 778.78 52.36 779.91 53.51C781.64 55.31 784.87 56.13 789.61 55.97L794.36 55.79L794.36 48.30C794.03 48.33 793.69 48.35 793.35 48.36C793.01 48.37 792.69 48.38 792.39 48.38C790.35 48.38 789.13 48.18 788.73 47.79C788.33 47.41 788.13 46.43 788.13 44.86L788.13 24.61L794.36 24.61L794.36 17.47L788.13 17.47L788.13 6.79L778.22 6.79L778.22 17.47L772.88 17.47ZM811.09 12.55L811.09 3.30L800.93 3.30L800.93 12.55ZM800.93 17.12L800.93 55.44L811.09 55.44L811.09 17.12ZM844.73 45.25C843.16 47.33 840.91 48.38 837.98 48.38C835.05 48.38 832.80 47.33 831.22 45.25C829.63 43.16 828.84 40.20 828.84 36.35C828.84 32.51 829.63 29.55 831.22 27.47C832.80 25.40 835.05 24.36 837.98 24.36C840.91 24.36 843.16 25.40 844.73 27.47C846.30 29.55 847.09 32.51 847.09 36.35C847.09 40.20 846.30 43.16 844.73 45.25ZM852.75 50.78C855.98 46.79 857.60 41.98 857.60 36.35C857.60 30.82 855.98 26.03 852.75 21.97C849.52 17.92 844.61 15.89 838.02 15.89C831.43 15.89 826.52 17.92 823.29 21.97C820.05 26.03 818.44 30.82 818.44 36.35C818.44 41.98 820.05 46.79 823.29 50.78C826.52 54.78 831.43 56.78 838.02 56.78C844.61 56.78 849.52 54.78 852.75 50.78ZM838.02 16.10ZM895.73 19.32C893.21 17.24 889.97 16.21 886.01 16.21C882.84 16.21 880.23 16.98 878.17 18.53C877.02 19.39 875.80 20.81 874.51 22.78L874.51 17.19L864.84 17.19L864.84 55.44L874.83 55.44L874.83 34.70C874.83 32.33 875.16 30.39 875.81 28.86C877.08 25.98 879.41 24.54 882.81 24.54C885.57 24.54 887.45 25.52 888.43 27.49C888.97 28.57 889.24 30.12 889.24 32.13L889.24 55.44L899.51 55.44L899.51 29.64C899.51 24.83 898.25 21.39 895.73 19.32ZM882.32 16.10ZM929.39 3.62L929.39 55.44L939.48 55.44L939.48 18.63L960.64 55.44L971.47 55.44L971.47 3.62L961.38 3.62L961.38 39.80L940.75 3.62ZM950.84 3.52ZM1001.88 36.81L1001.88 40.54C1001.81 43.89 1000.87 46.20 999.05 47.46C997.24 48.73 995.25 49.36 993.09 49.36C991.73 49.36 990.58 48.98 989.63 48.22C988.68 47.46 988.21 46.22 988.21 44.51C988.21 42.59 988.98 41.17 990.53 40.25C991.44 39.71 992.95 39.26 995.06 38.88L997.31 38.46C998.44 38.25 999.32 38.02 999.97 37.78C1000.61 37.53 1001.25 37.21 1001.88 36.81ZM995.80 32.13L992.39 32.55C988.52 33.05 985.59 33.87 983.60 35.02C979.97 37.13 978.15 40.54 978.15 45.25C978.15 48.88 979.28 51.69 981.54 53.67C983.81 55.65 986.67 56.64 990.14 56.64C992.86 56.64 995.30 56.02 997.45 54.77C999.26 53.72 1000.85 52.44 1002.23 50.94C1002.30 51.81 1002.40 52.58 1002.52 53.26C1002.63 53.94 1002.84 54.67 1003.15 55.44L1014.05 55.44L1014.05 53.96C1013.39 53.66 1012.90 53.27 1012.57 52.80C1012.24 52.34 1012.04 51.45 1011.97 50.13C1011.93 48.40 1011.90 46.92 1011.90 45.70L1011.90 28.13C1011.90 23.51 1010.27 20.37 1007.02 18.70C1003.76 17.04 1000.03 16.21 995.84 16.21C989.39 16.21 984.84 17.89 982.20 21.27C980.53 23.43 979.59 26.18 979.38 29.53L989.05 29.53C989.29 28.05 989.75 26.88 990.46 26.02C991.44 24.84 993.12 24.26 995.48 24.26C997.59 24.26 999.19 24.56 1000.28 25.15C1001.37 25.75 1001.92 26.84 1001.92 28.41C1001.92 29.70 1001.20 30.64 999.77 31.25C998.98 31.61 997.65 31.90 995.80 32.13ZM996.33 16.10ZM1044.42 17.12L1036.27 45.39L1028.29 17.12L1017.04 17.12L1030.78 55.44L1041.36 55.44L1055.18 17.12ZM1071.14 12.55L1071.14 3.30L1060.98 3.30L1060.98 12.55ZM1060.98 17.12L1060.98 55.44L1071.14 55.44L1071.14 17.12ZM1103.24 44.56C1101.62 46.33 1099.64 47.21 1097.30 47.21C1093.78 47.21 1091.34 45.60 1089.98 42.36C1089.23 40.63 1088.86 38.65 1088.86 36.42C1088.86 33.84 1089.21 31.68 1089.91 29.92C1091.25 26.61 1093.68 24.96 1097.19 24.96C1099.77 24.96 1101.83 25.91 1103.36 27.81C1104.90 29.71 1105.66 32.47 1105.66 36.11C1105.66 39.97 1104.86 42.79 1103.24 44.56ZM1099.83 17.09C1098.40 16.50 1096.72 16.21 1094.80 16.21C1089.60 16.21 1085.58 18.15 1082.74 22.03C1079.91 25.90 1078.49 30.69 1078.49 36.39C1078.49 42.29 1079.96 46.97 1082.90 50.43C1085.84 53.89 1089.77 55.62 1094.70 55.62C1097.88 55.62 1100.47 54.86 1102.46 53.33C1103.57 52.51 1104.60 51.28 1105.56 49.64L1105.56 52.10C1105.56 55.76 1105.16 58.36 1104.36 59.91C1103.14 62.32 1100.73 63.53 1097.12 63.53C1094.57 63.53 1092.75 63.07 1091.67 62.16C1091.04 61.64 1090.58 60.80 1090.30 59.63L1079.40 59.63C1079.73 63.45 1081.44 66.32 1084.54 68.24C1087.63 70.16 1091.63 71.12 1096.52 71.12C1104.63 71.12 1110.12 68.96 1112.98 64.65C1114.64 62.14 1115.47 58.42 1115.47 53.47L1115.47 17.12L1105.73 17.12L1105.73 22.64C1104.23 19.95 1102.27 18.09 1099.83 17.09ZM1098 16.10ZM1145.95 36.81L1145.95 40.54C1145.88 43.89 1144.94 46.20 1143.12 47.46C1141.31 48.73 1139.32 49.36 1137.16 49.36C1135.80 49.36 1134.65 48.98 1133.70 48.22C1132.75 47.46 1132.28 46.22 1132.28 44.51C1132.28 42.59 1133.05 41.17 1134.60 40.25C1135.51 39.71 1137.02 39.26 1139.13 38.88L1141.38 38.46C1142.51 38.25 1143.39 38.02 1144.04 37.78C1144.68 37.53 1145.32 37.21 1145.95 36.81ZM1139.87 32.13L1136.46 32.55C1132.59 33.05 1129.66 33.87 1127.67 35.02C1124.04 37.13 1122.22 40.54 1122.22 45.25C1122.22 48.88 1123.35 51.69 1125.62 53.67C1127.88 55.65 1130.74 56.64 1134.21 56.64C1136.93 56.64 1139.37 56.02 1141.52 54.77C1143.33 53.72 1144.92 52.44 1146.30 50.94C1146.38 51.81 1146.47 52.58 1146.59 53.26C1146.70 53.94 1146.91 54.67 1147.22 55.44L1158.12 55.44L1158.12 53.96C1157.46 53.66 1156.97 53.27 1156.64 52.80C1156.31 52.34 1156.11 51.45 1156.04 50.13C1156.00 48.40 1155.97 46.92 1155.97 45.70L1155.97 28.13C1155.97 23.51 1154.34 20.37 1151.09 18.70C1147.83 17.04 1144.10 16.21 1139.91 16.21C1133.46 16.21 1128.91 17.89 1126.27 21.27C1124.60 23.43 1123.66 26.18 1123.45 29.53L1133.12 29.53C1133.36 28.05 1133.82 26.88 1134.53 26.02C1135.51 24.84 1137.19 24.26 1139.55 24.26C1141.66 24.26 1143.26 24.56 1144.35 25.15C1145.44 25.75 1145.99 26.84 1145.99 28.41C1145.99 29.70 1145.27 30.64 1143.84 31.25C1143.05 31.61 1141.72 31.90 1139.87 32.13ZM1140.40 16.10ZM1160.93 24.61L1166.27 24.61L1166.27 48.20C1166.27 50.59 1166.84 52.36 1167.96 53.51C1169.70 55.31 1172.93 56.13 1177.66 55.97L1182.41 55.79L1182.41 48.30C1182.08 48.33 1181.75 48.35 1181.41 48.36C1181.07 48.37 1180.75 48.38 1180.44 48.38C1178.40 48.38 1177.18 48.18 1176.79 47.79C1176.39 47.41 1176.19 46.43 1176.19 44.86L1176.19 24.61L1182.41 24.61L1182.41 17.47L1176.19 17.47L1176.19 6.79L1166.27 6.79L1166.27 17.47L1160.93 17.47ZM1212.79 45.25C1211.21 47.33 1208.96 48.38 1206.04 48.38C1203.11 48.38 1200.85 47.33 1199.27 45.25C1197.69 43.16 1196.89 40.20 1196.89 36.35C1196.89 32.51 1197.69 29.55 1199.27 27.47C1200.85 25.40 1203.11 24.36 1206.04 24.36C1208.96 24.36 1211.21 25.40 1212.79 27.47C1214.36 29.55 1215.14 32.51 1215.14 36.35C1215.14 40.20 1214.36 43.16 1212.79 45.25ZM1220.80 50.78C1224.04 46.79 1225.65 41.98 1225.65 36.35C1225.65 30.82 1224.04 26.03 1220.80 21.97C1217.57 17.92 1212.66 15.89 1206.07 15.89C1199.48 15.89 1194.57 17.92 1191.34 21.97C1188.11 26.03 1186.49 30.82 1186.49 36.35C1186.49 41.98 1188.11 46.79 1191.34 50.78C1194.57 54.78 1199.48 56.78 1206.07 56.78C1212.66 56.78 1217.57 54.78 1220.80 50.78ZM1206.07 16.10ZM1254.11 16.22C1253.98 16.21 1253.82 16.21 1253.64 16.21C1250.64 16.21 1248.20 16.99 1246.32 18.56C1245.18 19.50 1243.83 21.25 1242.28 23.80L1242.28 17.12L1232.72 17.12L1232.72 55.44L1242.81 55.44L1242.81 37.13C1242.81 34.05 1243.20 31.78 1243.97 30.30C1245.35 27.68 1248.06 26.37 1252.09 26.37C1252.39 26.37 1252.79 26.38 1253.29 26.40C1253.78 26.43 1254.34 26.47 1254.97 26.54L1254.97 16.28C1254.53 16.25 1254.24 16.24 1254.11 16.22Z" transform="translate(33.448 210.71) scale(.26377)"/></svg>