<svg xmlns="http://www.w3.org/2000/svg" role="img" viewBox="-7.97 34.03 414.18 198.68"><style>svg {enable-background:new 0 0 400 245}</style><style>.st0{fill:#4c83c3}</style><g><path d="M398.3 53.5L332 53.5 336.1 42.1 398.3 42.1zM221.5 42.1l61.6 0 4 11.5c0 0-65.6 0-65.6 0C221.6 53.5 221.5 42.1 221.5 42.1zM172.7 42.1c10.1 1 19 4.6 26.5 11.5 0 0-111.6 0-111.6 0 0 0 0-11.5 0-11.5L172.7 42.1z" class="st0"/><g><path d="M0 42.1H77.5V53.5H0z" class="st0"/></g><path d="M398.3 75h-73.9c0 0 4-11.4 4-11.4h69.9V75zM294.8 75L221.5 75 221.5 63.6 290.7 63.6zM207.8 63.6c1.5 3.8 3.2 7 3.2 11.4H87.6V63.6H207.8z" class="st0"/><g><path d="M0 63.6H77.5V75H0z" class="st0"/></g><path d="M316.8 96.5L320.9 85.1 376.4 85.1 376.4 96.5zM298.3 85.1L302.4 96.5 243.4 96.5 243.4 85.1zM212 85c0 3.9-.5 8-1.6 11.4h-33.8V85H212z" class="st0"/><g><path d="M21.6 85.1H54.9V96.5H21.6z" class="st0"/></g><g><path d="M110 85H143.3V96.4H110z" class="st0"/></g><path d="M276.1 108.8c0 0 0 8.7 0 8.7h-32.8v-11.4h62.4l3.9 10.6c0 0 3.7-10.6 3.7-10.6h62.9v11.4h-32.6c0 0 0-8.7 0-8.7l-3 8.7-61.6 0L276.1 108.8zM110 106.1h95.5v0c-2.1 3.8-5.9 8.4-9.5 11.4 0 0-86 0-86 0C110 117.5 110 106.1 110 106.1z" class="st0"/><g><path d="M21.6 106.1H54.9V117.5H21.6z" class="st0"/></g><g><path d="M343.8 127.6H376.40000000000003V139H343.8z" class="st0"/></g><path d="M276.1 127.6h-32.8v11.4c0 0 32.8 0 32.8 0C276.1 138.9 276.2 127.6 276.1 127.6zM337.2 127.6c-.1 0-3.8 11.4-4 11.4l-46.4 0c0 0-4.1-11.4-4.1-11.4H337.2zM110 127.6h85.8c3.9 3.3 7.5 7.3 10.2 11.4.2 0-96.1 0-96.1 0C110 138.9 110 127.6 110 127.6zM54.9 138.9v-11.4H21.7c0 0 0 11.4 0 11.4C21.7 138.9 54.9 138.9 54.9 138.9z" class="st0"/><g><path d="M343.8 149H376.40000000000003V160.4H343.8z" class="st0"/></g><g><path d="M243.4 149H276.2V160.4H243.4z" class="st0"/></g><path d="M325.6 160.4c0-.1 4-11.4 4.1-11.4h-39.5c-.1 0 4 11.4 4 11.4S325.6 160.5 325.6 160.4zM110 160.4c0 0 0-11.4 0-11.4h33.8c0 0 0 11.4 0 11.4C143.7 160.4 110 160.4 110 160.4zM210.8 149c1.6 3.4 1.8 7.5 2.1 11.4h-35.8V149H210.8z" class="st0"/><g><path d="M21.7 149H55V160.4H21.7z" class="st0"/></g><g><path d="M343.8 170H398.3V181.4H343.8z" class="st0"/></g><g><path d="M221.5 170H276.1V181.4H221.5z" class="st0"/></g><path d="M318.2 181.4L301.6 181.4 297.6 170 322.1 170zM0 170v11.4h77.5c0 0 0-11.4 0-11.4C77.5 170-.1 170 0 170zM211.5 170c-.8 3.8-1.6 8.3-4.3 11.4l-1 0H87.6V170H211.5zM310.7 202.9L309.2 202.9 305.3 191.5 314.7 191.5z" class="st0"/><g><path d="M343.8 191.5H398.3V202.9H343.8z" class="st0"/></g><path d="M87.6,202.9v-11.4c0,0,111.9,0,112.2,0c-7.5,7.2-17.8,11.2-28.9,11.4L87.6,202.9" class="st0"/><g><path d="M221.5 191.5H276.1V202.9H221.5z" class="st0"/></g><path d="M77.5,191.5c0,0,0,11.4,0,11.4c0,0-77.4,0-77.5,0c0,0,0-11.4,0-11.4S77.4,191.6,77.5,191.5z" class="st0"/></g><path d="M15.40 55.44L15.40 3.62L4.64 3.62L4.64 55.44ZM10.02 2.60ZM36 12.62L47.39 12.62C49.90 12.62 51.96 12.89 53.58 13.43C55.45 14.20 56.39 15.80 56.39 18.21C56.39 20.39 55.68 21.91 54.26 22.76C52.85 23.62 51.00 24.05 48.73 24.05L36 24.05ZM36 32.63L48.90 32.63C51.15 32.65 52.90 32.94 54.14 33.50C56.37 34.51 57.48 36.36 57.48 39.06C57.48 42.25 56.33 44.40 54.04 45.53C52.77 46.14 51.00 46.44 48.73 46.44L36 46.44ZM64.34 9.14C61.69 5.55 57.19 3.71 50.84 3.62L25.66 3.62L25.66 55.44L49.15 55.44C51.80 55.44 54.25 55.21 56.51 54.74C58.78 54.27 60.74 53.40 62.40 52.14C63.88 51.04 65.11 49.68 66.09 48.06C67.64 45.62 68.41 42.87 68.41 39.80C68.41 36.82 67.74 34.29 66.39 32.20C65.04 30.12 63.05 28.59 60.40 27.63C62.13 26.74 63.45 25.76 64.34 24.68C65.93 22.76 66.73 20.21 66.73 17.05C66.73 13.98 65.93 11.34 64.34 9.14ZM111.83 3.62L102.48 44.37L93.06 3.62L77.31 3.62L77.31 55.44L87.40 55.44L87.40 20.39C87.40 19.38 87.39 17.97 87.36 16.15C87.34 14.34 87.33 12.94 87.33 11.95L97.07 55.44L107.58 55.44L117.39 11.95C117.39 12.94 117.38 14.34 117.35 16.15C117.33 17.97 117.32 19.38 117.32 20.39L117.32 55.44L127.41 55.44L127.41 3.62ZM143.58 14.52C147.77 10.21 152.85 8.05 158.80 8.05C164.68 8.05 169.72 10.21 173.92 14.52C178.07 18.76 180.14 23.77 180.14 29.53C180.14 35.46 178.05 40.55 173.88 44.79C169.71 49.01 164.68 51.12 158.80 51.12C152.89 51.12 147.86 49.02 143.68 44.82C139.49 40.63 137.39 35.53 137.39 29.53C137.39 23.74 139.45 18.74 143.58 14.52ZM176.94 48.13C182.12 43.09 184.71 36.89 184.71 29.53C184.71 22.38 182.18 16.28 177.12 11.21C172.05 6.15 165.95 3.62 158.80 3.62C151.98 3.62 146.04 5.96 140.98 10.65C135.59 15.67 132.89 21.96 132.89 29.53C132.89 36.82 135.39 42.96 140.38 47.95C145.37 52.95 151.51 55.44 158.80 55.44C165.86 55.44 171.90 53.00 176.94 48.13ZM161.16 20.88C162.70 21.49 163.48 22.58 163.48 24.15C163.48 25.72 162.98 26.86 162 27.56C161.02 28.27 159.64 28.62 157.89 28.62L154.97 28.62L154.97 20.29L156.80 20.29C158.67 20.29 160.13 20.48 161.16 20.88ZM147.45 43.95L154.97 43.95L154.97 33.79L156.55 33.79L158.20 33.89C159.35 33.96 160.21 34.11 160.77 34.35C161.80 34.75 162.50 35.45 162.88 36.46C163.11 37.07 163.27 38.24 163.34 39.97C163.41 41.71 163.56 43.03 163.79 43.95L170.96 43.95L170.72 43.14C170.62 42.86 170.56 42.57 170.53 42.29C170.49 42.01 170.47 41.73 170.47 41.45L170.47 38.88C170.47 35.95 169.63 33.81 167.94 32.45C167.03 31.72 165.67 31.17 163.86 30.80C165.83 30.59 167.49 29.94 168.84 28.86C170.19 27.79 170.86 26.04 170.86 23.63C170.86 20.46 169.58 18.18 167.03 16.77C165.53 15.95 163.64 15.46 161.37 15.29C160.97 15.27 158.99 15.25 155.44 15.24C151.89 15.23 149.23 15.22 147.45 15.22ZM221.34 12.62L233.93 12.62C236.27 12.62 238.03 12.93 239.20 13.54C241.29 14.61 242.33 16.72 242.33 19.86C242.33 22.77 241.25 24.71 239.10 25.70C237.88 26.26 236.05 26.54 233.61 26.54L221.34 26.54ZM244.56 4.96C242.61 4.14 239.81 3.69 236.18 3.62L210.76 3.62L210.76 55.44L221.34 55.44L221.34 35.12L232.52 35.12C235.71 35.12 237.88 35.67 239.04 36.77C240.21 37.87 240.81 40.08 240.86 43.38L240.93 48.20C240.95 49.72 241.10 51.21 241.38 52.66C241.52 53.37 241.76 54.29 242.09 55.44L254.00 55.44L254.00 54.14C252.97 53.51 252.32 52.52 252.04 51.19C251.85 50.34 251.75 48.74 251.75 46.37L251.75 42.89C251.75 39.26 251.26 36.56 250.26 34.79C249.26 33.02 247.57 31.65 245.18 30.69C248.04 29.71 250.09 28.03 251.33 25.65C252.57 23.27 253.20 20.85 253.20 18.39C253.20 16.35 252.87 14.53 252.21 12.94C251.55 11.34 250.66 9.89 249.54 8.58C248.18 6.98 246.52 5.78 244.56 4.96ZM270.35 39.45L260.02 39.45C260.02 44.84 261.95 49.07 265.82 52.15C269.68 55.24 274.99 56.78 281.74 56.78C288.35 56.78 293.47 55.21 297.09 52.08C300.71 48.96 302.52 45.02 302.52 40.29C302.52 35.67 300.97 32.14 297.88 29.71C295.89 28.14 292.93 26.88 289.02 25.95L280.09 23.80C276.64 22.98 274.39 22.27 273.34 21.66C271.70 20.74 270.88 19.36 270.88 17.51C270.88 15.49 271.71 13.92 273.38 12.80C275.04 11.67 277.27 11.11 280.05 11.11C282.56 11.11 284.66 11.54 286.35 12.41C288.88 13.72 290.24 15.94 290.43 19.05L300.83 19.05C300.64 13.55 298.62 9.35 294.77 6.45C290.91 3.56 286.25 2.11 280.79 2.11C274.25 2.11 269.30 3.64 265.92 6.71C262.55 9.79 260.86 13.64 260.86 18.28C260.86 23.37 262.61 27.11 266.10 29.50C268.16 30.93 271.89 32.25 277.28 33.47L282.76 34.70C285.97 35.40 288.33 36.21 289.83 37.13C291.33 38.06 292.08 39.39 292.08 41.10C292.08 44.03 290.57 46.03 287.54 47.11C285.95 47.67 283.88 47.95 281.32 47.95C277.05 47.95 274.04 46.89 272.29 44.75C271.32 43.58 270.68 41.81 270.35 39.45ZM280.86 2.04ZM348.86 12.80L348.86 3.62L310.85 3.62L310.85 55.44L350.12 55.44L350.12 46.13L321.43 46.13L321.43 32.80L346.61 32.80L346.61 23.80L321.43 23.80L321.43 12.80ZM330.12 3.62ZM392.73 35.86L399.41 15.47L405.88 35.86ZM393.40 3.62L374.91 55.44L386.23 55.44L389.81 44.79L408.90 44.79L412.24 55.44L423.98 55.44L405.63 3.62ZM399.45 3.62ZM457.61 14.34C459.03 15.49 459.74 17.41 459.74 20.11C459.74 22.80 459.03 24.77 457.61 26.02C456.19 27.26 454.21 27.88 451.65 27.88L441.56 27.88L441.56 12.62L451.65 12.62C454.21 12.62 456.19 13.20 457.61 14.34ZM465.82 33.01C468.91 30.48 470.46 26.16 470.46 20.04C470.46 14.44 468.91 10.30 465.82 7.63C462.73 4.96 458.58 3.62 453.38 3.62L430.80 3.62L430.80 55.44L441.56 55.44L441.56 36.81L452.57 36.81C458.31 36.81 462.73 35.54 465.82 33.01ZM488.50 55.44L488.50 3.62L477.74 3.62L477.74 55.44ZM483.12 2.60Z" transform="translate(136.993 210.71) scale(.25198)"/></svg>