<?xml version="1.0" encoding="UTF-8" standalone="no"?>
<svg
   xmlns:dc="http://purl.org/dc/elements/1.1/"
   xmlns:cc="http://creativecommons.org/ns#"
   xmlns:rdf="http://www.w3.org/1999/02/22-rdf-syntax-ns#"
   xmlns:svg="http://www.w3.org/2000/svg"
   xmlns="http://www.w3.org/2000/svg"
   xmlns:sodipodi="http://sodipodi.sourceforge.net/DTD/sodipodi-0.dtd"
   xmlns:inkscape="http://www.inkscape.org/namespaces/inkscape"
   height="196.07735"
   width="394.70001"
   inkscape:version="1.0beta2 (2b71d25, 2019-12-03)"
   sodipodi:docname="ibm-z-workflow-scheduler.svg"
   version="1.1"
   id="Layer_1"
   x="0px"
   y="0px"
   viewBox="0 0 394.70001 196.07735"
   xml:space="preserve"><sodipodi:namedview
     inkscape:document-rotation="0"
     inkscape:current-layer="Layer_1"
     inkscape:window-maximized="0"
     inkscape:window-y="173"
     inkscape:window-x="309"
     inkscape:cy="38.550104"
     inkscape:cx="249.27121"
     inkscape:zoom="0.78135299"
     showgrid="false"
     id="namedview61"
     inkscape:window-height="719"
     inkscape:window-width="1028"
     inkscape:pageshadow="2"
     inkscape:pageopacity="0"
     guidetolerance="10"
     gridtolerance="10"
     objecttolerance="10"
     borderopacity="1"
     bordercolor="#666666"
     pagecolor="#ffffff" /><metadata
     id="metadata63"><rdf:RDF><cc:Work
         rdf:about=""><dc:format>image/svg+xml</dc:format><dc:type
           rdf:resource="http://purl.org/dc/dcmitype/StillImage" /><dc:title></dc:title></cc:Work></rdf:RDF></metadata><defs
     id="defs61" /><style
     type="text/css"
     id="style2">
	.st0{fill-rule:evenodd;clip-rule:evenodd;fill:#CF4044;}
	.st1{fill:#000F9F;}
	.st2{fill:#CC092F;}
	.st3{fill:#4C83C3;}
	.st4{font-family:'HelveticaNeue-Light';}
	.st5{font-size:26.8184px;}
</style><g
     transform="translate(-2.7,-2.7)"
     id="g10"><text
   id="text69"
   y="210.4321"
   x="407.40741"
   style="font-style:normal;font-weight:normal;font-size:40px;line-height:1.25;font-family:sans-serif;letter-spacing:0px;word-spacing:0px;fill:#000000;fill-opacity:1;stroke:none"
   xml:space="preserve" />
<g
   style="font-style:normal;font-variant:normal;font-weight:normal;font-stretch:normal;font-size:26.6667px;line-height:1.25;font-family:sans-serif;-inkscape-font-specification:'sans-serif Normal';font-variant-ligatures:normal;font-variant-caps:normal;font-variant-numeric:normal;font-variant-east-asian:normal;word-spacing:0px"
   id="text1134"
   aria-label="IBM Z Workload Scheduler"><path
     d="m 166.01172,178.11328 v 20.25977 h 2.44726 v -4.85547 l 1.5879,-1.51172 5.83398,6.36719 h 3.22852 l -7.25196,-7.82422 6.75781,-6.71875 h -3.08593 l -7.07032,7.27734 v -12.99414 z m 15.70312,0 v 20.25977 h 2.44727 v -20.25977 z m 48.90625,0 v 6.30274 c -0.65104,-0.33854 -1.27104,-0.58594 -1.86132,-0.74219 -0.59028,-0.16494 -1.26737,-0.24805 -2.03125,-0.24805 -0.84202,0 -1.65929,0.17426 -2.44922,0.52149 -0.78126,0.34722 -1.46637,0.85003 -2.05664,1.50976 -0.59896,0.67708 -1.07574,1.49739 -1.43164,2.46094 -0.34722,0.96354 -0.52149,2.06228 -0.52149,3.29492 0,2.36979 0.50781,4.22178 1.52344,5.55859 1.02431,1.33681 2.40451,2.00586 4.14062,2.00586 0.8941,0 1.72245,-0.16926 2.48633,-0.50781 0.7639,-0.33854 1.49805,-0.81228 2.20117,-1.41992 v 1.52344 h 2.44727 v -20.25977 z m 48.77539,0 v 20.25977 h 2.44922 v -10.85938 c 0.66841,-0.51215 1.36654,-0.93186 2.09571,-1.26172 0.72916,-0.32986 1.4273,-0.49609 2.0957,-0.49609 0.65105,0 1.18186,0.0911 1.58984,0.27344 0.40799,0.17361 0.72049,0.444 0.9375,0.80859 0.20834,0.32986 0.35156,0.78863 0.42969,1.37891 0.0781,0.58159 0.11719,1.20659 0.11719,1.875 v 8.28125 h 2.44726 v -9.43946 c 0,-1.77951 -0.41167,-3.14171 -1.23632,-4.08789 -0.82466,-0.94618 -2.02257,-1.41992 -3.59375,-1.41992 -0.85938,0 -1.6977,0.1773 -2.51368,0.5332 -0.81597,0.3559 -1.60525,0.85069 -2.36914,1.48438 v -7.33008 z m 42.10938,0 v 6.30274 c -0.65105,-0.33854 -1.27106,-0.58594 -1.86133,-0.74219 -0.59028,-0.16494 -1.26736,-0.24805 -2.03125,-0.24805 -0.84201,0 -1.65733,0.17426 -2.44726,0.52149 -0.78125,0.34722 -1.46832,0.85003 -2.0586,1.50976 -0.59896,0.67708 -1.07574,1.49739 -1.43164,2.46094 -0.34723,0.96354 -0.52148,2.06228 -0.52148,3.29492 0,2.36979 0.50781,4.22178 1.52343,5.55859 1.02431,1.33681 2.40452,2.00586 4.14063,2.00586 0.8941,0 1.72439,-0.16926 2.48828,-0.50781 0.76389,-0.33854 1.49609,-0.81228 2.19922,-1.41992 v 1.52344 h 2.44922 v -20.25977 z m 24.16797,0 v 20.25977 h 2.44726 v -20.25977 z m -91.67969,0.52149 c -2.10938,0 -3.85113,0.52083 -5.22266,1.5625 -1.37153,1.03299 -2.05664,2.36111 -2.05664,3.98437 0,1.41493 0.41168,2.5638 1.23633,3.44922 0.83334,0.87674 2.10937,1.4987 3.82813,1.86328 0.8507,0.17361 1.65495,0.31684 2.41015,0.42969 0.76389,0.11284 1.47005,0.25607 2.1211,0.42969 0.85937,0.22569 1.49739,0.54123 1.91406,0.94921 0.42535,0.40799 0.63867,1.04297 0.63867,1.90235 0,0.99826 -0.4477,1.79557 -1.3418,2.39453 -0.88542,0.59896 -2.12543,0.89844 -3.72265,0.89844 -1.12848,0 -2.33638,-0.22135 -3.6211,-0.66407 -1.28472,-0.4427 -2.41753,-1.07074 -3.39843,-1.88671 h -0.18164 v 3.22851 c 1.15452,0.51215 2.28732,0.89778 3.39843,1.1582 1.1198,0.26042 2.37783,0.39063 3.77539,0.39063 1.30209,0 2.41385,-0.15625 3.33399,-0.46875 0.92882,-0.3125 1.7411,-0.74523 2.43555,-1.30078 0.63368,-0.51216 1.12347,-1.13716 1.4707,-1.875 0.3559,-0.73786 0.5332,-1.48503 0.5332,-2.24024 0,-1.38889 -0.36458,-2.46962 -1.09375,-3.24218 -0.72916,-0.77258 -1.81293,-1.35048 -3.2539,-1.73243 -0.71181,-0.18228 -1.58117,-0.35959 -2.60547,-0.5332 -1.02431,-0.17361 -1.81358,-0.32183 -2.36914,-0.44336 -1.05035,-0.24305 -1.78451,-0.59461 -2.20118,-1.05469 -0.41666,-0.46006 -0.625,-1.09309 -0.625,-1.90039 0,-0.90278 0.41667,-1.63997 1.25,-2.21289 0.84202,-0.57291 1.95378,-0.85937 3.33399,-0.85937 1.25868,0 2.48763,0.20833 3.68555,0.625 1.20659,0.40798 2.17816,0.92383 2.91601,1.54883 h 0.18164 v -3.04688 c -0.87674,-0.38195 -1.88238,-0.70248 -3.01953,-0.96289 -1.13715,-0.26042 -2.38715,-0.39062 -3.75,-0.39062 z m -231.732421,0.35156 v 1.97851 h 2.539062 v 15.42969 h -2.539062 v 1.97852 h 7.65625 v -1.97852 h -2.539063 v -15.42969 h 2.539063 v -1.97851 z m 12.070312,0 v 19.38672 h 6.875 c 1.345488,0 2.452256,-0.12023 3.320313,-0.36328 0.876737,-0.24306 1.679036,-0.6517 2.408203,-1.22461 0.616321,-0.47744 1.106119,-1.08442 1.470703,-1.82227 0.364583,-0.73785 0.546875,-1.58919 0.546875,-2.55273 0,-1.34549 -0.377603,-2.45725 -1.132813,-3.33399 -0.755209,-0.88541 -1.78689,-1.46137 -3.097656,-1.73047 v -0.10547 c 0.781252,-0.39062 1.40625,-0.90646 1.875,-1.54882 0.468751,-0.65104 0.703125,-1.43729 0.703125,-2.35743 0,-0.81597 -0.161241,-1.5141 -0.482422,-2.0957 -0.321181,-0.59028 -0.837022,-1.07205 -1.548828,-1.44531 -0.642362,-0.32986 -1.316405,-0.54623 -2.019531,-0.65039 -0.703126,-0.10418 -1.760849,-0.15625 -3.175781,-0.15625 z m 18.28125,0 v 19.38672 h 2.408203 v -16.70508 l 5.351563,11.36719 h 1.537109 l 5.390625,-11.36719 v 16.70508 h 2.578125 v -19.38672 h -3.582031 l -5,10.79297 -5.167969,-10.79297 z m 31.353516,0 v 2.29101 h 11.445312 l -11.888671,14.70118 v 2.39453 h 15.130859 v -2.29102 H 86.363281 l 12.003907,-14.76562 v -2.33008 z m 26.771483,0 5.12891,19.38672 h 2.83984 l 3.98438,-16.09375 4.07421,16.09375 h 2.9043 l 5.03906,-19.38672 h -2.52539 l -4.05078,16.27539 -4.04883,-16.27539 h -2.61718 l -4.00977,16.11914 -4.07617,-16.11914 z m -73.828124,2.19922 h 3.072266 c 0.859376,0 1.580511,0.0311 2.162109,0.0918 0.581598,0.0521 1.076389,0.19532 1.484375,0.42969 0.347223,0.19965 0.597656,0.46007 0.753906,0.78125 0.15625,0.32119 0.234376,0.7168 0.234376,1.18555 0,0.56424 -0.08615,1.05403 -0.259766,1.4707 -0.164931,0.40799 -0.451388,0.74154 -0.859375,1.00195 -0.407987,0.26042 -0.850694,0.43468 -1.328125,0.52149 -0.477431,0.0781 -1.120442,0.11719 -1.927734,0.11719 h -3.332032 z m 107.082034,2.24023 c -2.0573,0 -3.69293,0.6901 -4.90821,2.07031 -1.2066,1.37153 -1.81054,3.24153 -1.81054,5.61133 0,2.3698 0.60394,4.24176 1.81054,5.61328 1.21528,1.37154 2.85091,2.05664 4.90821,2.05664 2.03993,0 3.66753,-0.6851 4.88281,-2.05664 1.21528,-1.37152 1.82422,-3.24348 1.82422,-5.61328 0,-2.3698 -0.60894,-4.2398 -1.82422,-5.61133 -1.21528,-1.38021 -2.84288,-2.07031 -4.88281,-2.07031 z m 50.73047,0 c -2.0573,0 -3.69488,0.6901 -4.91016,2.07031 -1.2066,1.37153 -1.80859,3.24153 -1.80859,5.61133 0,2.3698 0.60199,4.24176 1.80859,5.61328 1.21528,1.37154 2.85286,2.05664 4.91016,2.05664 2.03993,0 3.66753,-0.6851 4.88281,-2.05664 1.21528,-1.37152 1.82226,-3.24348 1.82226,-5.61328 0,-2.3698 -0.60698,-4.2398 -1.82226,-5.61133 -1.21528,-1.38021 -2.84288,-2.07031 -4.88281,-2.07031 z m 107.59179,0 c -2.11805,0 -3.82877,0.69813 -5.13086,2.0957 -1.2934,1.39758 -1.93945,3.28559 -1.93945,5.66407 0,2.40452 0.67708,4.26346 2.03125,5.57422 1.35417,1.30208 3.2372,1.95312 5.65039,1.95312 0.94619,0 1.84961,-0.11719 2.70899,-0.35156 0.85938,-0.23438 1.70073,-0.52582 2.52539,-0.87305 v -2.66992 h -0.13086 c -0.42535,0.38195 -1.14149,0.77257 -2.14844,1.17187 -0.99827,0.39063 -1.99088,0.58594 -2.98047,0.58594 -0.74653,0 -1.43359,-0.10416 -2.05859,-0.3125 -0.61632,-0.20833 -1.15017,-0.52083 -1.60157,-0.9375 -0.46874,-0.42534 -0.83636,-0.96723 -1.10546,-1.62695 -0.2691,-0.66841 -0.4043,-1.44965 -0.4043,-2.34375 h 10.7168 v -1.32813 c 0,-2.10938 -0.53385,-3.73698 -1.60157,-4.88281 -1.05902,-1.14584 -2.56943,-1.71875 -4.53125,-1.71875 z m 56.71875,0 c -2.11806,0 -3.82877,0.69813 -5.13086,2.0957 -1.2934,1.39758 -1.93945,3.28559 -1.93945,5.66407 0,2.40452 0.67708,4.26346 2.03125,5.57422 1.35417,1.30208 3.23719,1.95312 5.65039,1.95312 0.94618,0 1.84961,-0.11719 2.70899,-0.35156 0.85938,-0.23438 1.70073,-0.52582 2.52539,-0.87305 v -2.66992 h -0.13086 c -0.42535,0.38195 -1.14149,0.77257 -2.14844,1.17187 -0.99827,0.39063 -1.99088,0.58594 -2.98047,0.58594 -0.74653,0 -1.43359,-0.10416 -2.05859,-0.3125 -0.61632,-0.20833 -1.15018,-0.52083 -1.60157,-0.9375 -0.46875,-0.42534 -0.83636,-0.96723 -1.10546,-1.62695 -0.2691,-0.66841 -0.4043,-1.44965 -0.4043,-2.34375 h 10.7168 v -1.32813 c 0,-2.10938 -0.53385,-3.73698 -1.60157,-4.88281 -1.05902,-1.14584 -2.56944,-1.71875 -4.53125,-1.71875 z m -148.83008,0.0527 c -0.87673,0 -1.76518,0.0781 -2.66796,0.23437 -0.90278,0.15625 -1.59288,0.29948 -2.07032,0.42969 v 2.48633 h 0.12891 c 0.84201,-0.32118 1.65929,-0.56359 2.44922,-0.72852 0.78993,-0.17361 1.50608,-0.26172 2.14844,-0.26172 0.52951,0 1.03732,0.036 1.52343,0.10547 0.48612,0.0694 0.90278,0.20269 1.25,0.40234 0.36459,0.20834 0.64301,0.49479 0.83399,0.85938 0.19965,0.36458 0.29883,0.8253 0.29883,1.38086 v 0.37695 c -1.42362,0.0695 -2.75672,0.17362 -3.99805,0.3125 -1.24132,0.1389 -2.30404,0.4043 -3.18945,0.79492 -0.87674,0.39062 -1.55382,0.92947 -2.03125,1.61524 -0.46875,0.67708 -0.70313,1.56553 -0.70313,2.66797 0,1.34548 0.45573,2.45226 1.36719,3.32031 0.91146,0.86806 2.02127,1.30273 3.33203,1.30273 0.71181,0 1.33376,-0.0701 1.86328,-0.20898 0.52951,-0.13021 0.99826,-0.29449 1.40625,-0.49414 0.34722,-0.15625 0.70377,-0.36458 1.06836,-0.625 0.37326,-0.2691 0.66775,-0.47743 0.88477,-0.625 v 1.54883 h 2.43554 v -9.86914 c 0,-0.93751 -0.14323,-1.72375 -0.42968,-2.35743 -0.28646,-0.63368 -0.70312,-1.14952 -1.25,-1.54882 -0.55556,-0.40799 -1.21659,-0.69445 -1.98047,-0.85938 -0.75522,-0.17361 -1.64562,-0.25976 -2.66993,-0.25976 z m 61.38086,0.0117 c -2.1441,0 -3.87087,0.67709 -5.18164,2.03125 -1.30208,1.35417 -1.95312,3.22113 -1.95312,5.59961 0,1.27604 0.17426,2.39084 0.52148,3.34571 0.34722,0.95486 0.83702,1.74609 1.47071,2.37109 0.625,0.625 1.37522,1.09375 2.25195,1.40625 0.87674,0.30382 1.84028,0.45508 2.89062,0.45508 0.82466,0 1.60287,-0.10916 2.33204,-0.32617 0.73785,-0.21702 1.5141,-0.51953 2.33007,-0.91016 v -2.69531 h -0.13086 c -0.18229,0.14757 -0.42968,0.32487 -0.74218,0.5332 -0.3125,0.19965 -0.64605,0.38997 -1.00196,0.57227 -0.40798,0.20833 -0.8687,0.3776 -1.38086,0.50781 -0.51215,0.13021 -1.01497,0.19531 -1.50976,0.19531 -1.42361,0 -2.53038,-0.46875 -3.32031,-1.40625 -0.78126,-0.94618 -1.17188,-2.29535 -1.17188,-4.04883 0,-1.80556 0.39865,-3.17274 1.19727,-4.10156 0.80729,-0.9375 1.90603,-1.40625 3.29492,-1.40625 0.75521,0 1.52842,0.15625 2.31836,0.46875 0.79861,0.3125 1.56988,0.7602 2.3164,1.3418 h 0.13086 v -2.72266 c -0.6684,-0.33854 -1.40559,-0.625 -2.21289,-0.85937 -0.79861,-0.23438 -1.61588,-0.35157 -2.44922,-0.35157 z M 154.5,183.83008 v 14.54297 h 2.44922 v -10.32422 c 0.65105,-0.52952 1.32812,-0.9592 2.03125,-1.28906 0.70313,-0.33854 1.43229,-0.50782 2.1875,-0.50782 0.46875,0 0.87239,0.0211 1.21094,0.0645 0.34722,0.0347 0.70182,0.0948 1.0664,0.18164 h 0.13086 v -2.51172 c -0.38194,-0.0608 -0.6684,-0.0999 -0.85937,-0.11719 -0.19098,-0.0261 -0.49848,-0.0391 -0.92383,-0.0391 -0.77257,0 -1.53277,0.16428 -2.2793,0.49414 -0.73784,0.32118 -1.59222,0.87304 -2.56445,1.6543 v -2.14844 z m 174.16797,0 v 9.43945 c 0,1.80555 0.42469,3.17773 1.27539,4.11524 0.85069,0.92882 2.04058,1.39257 3.56836,1.39257 0.91146,0 1.74479,-0.17425 2.5,-0.52148 0.75521,-0.34722 1.54449,-0.84505 2.36914,-1.49609 v 1.61328 h 2.44922 v -14.54297 h -2.44922 v 10.85937 c -0.65105,0.51216 -1.35417,0.93186 -2.10938,1.26172 -0.74652,0.32986 -1.43663,0.4961 -2.07031,0.4961 -0.7118,0 -1.25368,-0.0881 -1.62695,-0.26172 -0.37327,-0.17362 -0.67774,-0.45009 -0.91211,-0.83203 -0.22569,-0.37326 -0.37196,-0.82097 -0.44141,-1.3418 -0.0694,-0.52952 -0.10547,-1.16255 -0.10547,-1.90039 v -8.28125 z m 40.20898,0 v 14.54297 h 2.44727 v -10.32422 c 0.65104,-0.52952 1.32812,-0.9592 2.03125,-1.28906 0.70313,-0.33854 1.43229,-0.50782 2.1875,-0.50782 0.46875,0 0.8724,0.0211 1.21094,0.0645 0.34722,0.0347 0.70378,0.0948 1.06836,0.18164 h 0.1289 v -2.51172 c -0.38194,-0.0608 -0.6684,-0.0999 -0.85937,-0.11719 -0.19097,-0.0261 -0.49848,-0.0391 -0.92383,-0.0391 -0.77257,0 -1.53277,0.16428 -2.2793,0.49414 -0.73785,0.32118 -1.59223,0.87304 -2.56445,1.6543 v -2.14844 z m -66.69336,1.61328 c 1.30208,0 2.27061,0.35156 2.9043,1.05469 0.64237,0.70312 0.9679,1.69769 0.97656,2.98242 h -8.33398 c 0.10417,-1.14583 0.54189,-2.10438 1.31445,-2.87695 0.78126,-0.77257 1.82791,-1.16016 3.13867,-1.16016 z m 56.71875,0 c 1.30208,0 2.27061,0.35156 2.9043,1.05469 0.64237,0.70312 0.9679,1.69769 0.97656,2.98242 h -8.33398 c 0.10417,-1.14583 0.54189,-2.10438 1.31445,-2.87695 0.78126,-0.77257 1.82791,-1.16016 3.13867,-1.16016 z m -214.91015,0.0918 c 1.31076,0 2.33637,0.46072 3.07422,1.38086 0.73784,0.91146 1.10546,2.30772 1.10547,4.1914 -10e-6,1.84028 -0.37262,3.23047 -1.11915,4.16797 -0.73784,0.92882 -1.75846,1.39258 -3.06054,1.39258 -1.31945,0 -2.34809,-0.46875 -3.08594,-1.40625 -0.73785,-0.94619 -1.10547,-2.33138 -1.10547,-4.1543 0,-1.88368 0.36458,-3.27994 1.09375,-4.1914 0.73785,-0.92014 1.76953,-1.38086 3.09766,-1.38086 z m 50.73047,0 c 1.31076,0 2.33442,0.46072 3.07226,1.38086 0.73785,0.91146 1.10742,2.30772 1.10742,4.1914 0,1.84028 -0.37456,3.23047 -1.12109,4.16797 -0.73785,0.92882 -1.75651,1.39258 -3.05859,1.39258 -1.31945,0 -2.34809,-0.46875 -3.08594,-1.40625 -0.73785,-0.94619 -1.10742,-2.33138 -1.10742,-4.1543 0,-1.88368 0.36458,-3.27994 1.09375,-4.1914 0.73784,-0.92014 1.77148,-1.38086 3.09961,-1.38086 z m 32.42187,0.13086 c 0.61632,0 1.18425,0.0551 1.70508,0.16796 0.52083,0.11285 1.11176,0.31815 1.77148,0.61329 v 8.3457 c -0.61632,0.48611 -1.28038,0.88476 -1.99218,1.19726 -0.71181,0.30382 -1.41494,0.45704 -2.10938,0.45704 -1.30209,0 -2.24761,-0.44771 -2.83789,-1.3418 -0.59028,-0.90278 -0.88672,-2.21788 -0.88672,-3.94531 0,-1.75348 0.38259,-3.10764 1.14649,-4.0625 0.76388,-0.95486 1.83159,-1.43164 3.20312,-1.43164 z m 90.88477,0 c 0.61632,0 1.18619,0.0551 1.70703,0.16796 0.52083,0.11285 1.1098,0.31815 1.76953,0.61329 v 8.3457 c -0.61632,0.48611 -1.28038,0.88476 -1.99219,1.19726 -0.7118,0.30382 -1.41493,0.45704 -2.10937,0.45704 -1.30209,0 -2.24761,-0.44771 -2.83789,-1.3418 -0.59028,-0.90278 -0.88477,-2.21788 -0.88477,-3.94531 0,-1.75348 0.38065,-3.10764 1.14453,-4.0625 0.7639,-0.95486 1.8316,-1.43164 3.20313,-1.43164 z m -281.119144,3.29296 h 4.048828 c 0.850696,0 1.571831,0.036 2.16211,0.10547 0.598958,0.0608 1.10677,0.19901 1.523437,0.41602 0.61632,0.32118 1.041016,0.7118 1.275391,1.17187 0.234375,0.46007 0.351562,1.08008 0.351562,1.86133 0,0.68577 -0.112196,1.24566 -0.33789,1.67969 -0.225695,0.43403 -0.582248,0.82162 -1.06836,1.16016 -0.46007,0.3125 -1.050997,0.52885 -1.771484,0.65039 -0.720487,0.11284 -1.644964,0.16992 -2.773438,0.16992 h -3.410156 z m 177.187504,1.78516 v 4.04883 c -0.60764,0.46875 -1.26671,0.87239 -1.97852,1.21094 -0.71181,0.32986 -1.49804,0.49414 -2.35742,0.49414 -1.03299,0 -1.80122,-0.20834 -2.30469,-0.625 -0.50347,-0.42535 -0.75586,-1.05338 -0.75586,-1.88672 0,-0.73785 0.21831,-1.31576 0.65235,-1.73242 0.43402,-0.42535 1.00195,-0.73785 1.70507,-0.9375 0.59028,-0.16494 1.38759,-0.29016 2.39453,-0.37696 1.01563,-0.0868 1.898,-0.15191 2.64454,-0.19531 z"
     inkscape:original="M 166.01172 178.11328 L 166.01172 198.37305 L 168.45898 198.37305 L 168.45898 193.51758 L 170.04688 192.00586 L 175.88086 198.37305 L 179.10938 198.37305 L 171.85742 190.54883 L 178.61523 183.83008 L 175.5293 183.83008 L 168.45898 191.10742 L 168.45898 178.11328 L 166.01172 178.11328 z M 181.71484 178.11328 L 181.71484 198.37305 L 184.16211 198.37305 L 184.16211 178.11328 L 181.71484 178.11328 z M 230.62109 178.11328 L 230.62109 184.41602 C 229.97005 184.07748 229.35005 183.83008 228.75977 183.67383 C 228.16949 183.50889 227.4924 183.42578 226.72852 183.42578 C 225.8865 183.42578 225.06923 183.60004 224.2793 183.94727 C 223.49804 184.29449 222.81293 184.7973 222.22266 185.45703 C 221.6237 186.13411 221.14692 186.95442 220.79102 187.91797 C 220.4438 188.88151 220.26953 189.98025 220.26953 191.21289 C 220.26953 193.58268 220.77734 195.43467 221.79297 196.77148 C 222.81728 198.10829 224.19748 198.77734 225.93359 198.77734 C 226.82769 198.77734 227.65604 198.60808 228.41992 198.26953 C 229.18382 197.93099 229.91797 197.45725 230.62109 196.84961 L 230.62109 198.37305 L 233.06836 198.37305 L 233.06836 178.11328 L 230.62109 178.11328 z M 279.39648 178.11328 L 279.39648 198.37305 L 281.8457 198.37305 L 281.8457 187.51367 C 282.51411 187.00152 283.21224 186.58181 283.94141 186.25195 C 284.67057 185.92209 285.36871 185.75586 286.03711 185.75586 C 286.68816 185.75586 287.21897 185.84701 287.62695 186.0293 C 288.03494 186.20291 288.34744 186.4733 288.56445 186.83789 C 288.77279 187.16775 288.91601 187.62652 288.99414 188.2168 C 289.07226 188.79839 289.11133 189.42339 289.11133 190.0918 L 289.11133 198.37305 L 291.55859 198.37305 L 291.55859 188.93359 C 291.55859 187.15408 291.14692 185.79188 290.32227 184.8457 C 289.49761 183.89952 288.2997 183.42578 286.72852 183.42578 C 285.86914 183.42578 285.03082 183.60308 284.21484 183.95898 C 283.39887 184.31488 282.60959 184.80967 281.8457 185.44336 L 281.8457 178.11328 L 279.39648 178.11328 z M 321.50586 178.11328 L 321.50586 184.41602 C 320.85481 184.07748 320.2348 183.83008 319.64453 183.67383 C 319.05425 183.50889 318.37717 183.42578 317.61328 183.42578 C 316.77127 183.42578 315.95595 183.60004 315.16602 183.94727 C 314.38477 184.29449 313.6977 184.7973 313.10742 185.45703 C 312.50846 186.13411 312.03168 186.95442 311.67578 187.91797 C 311.32855 188.88151 311.1543 189.98025 311.1543 191.21289 C 311.1543 193.58268 311.66211 195.43467 312.67773 196.77148 C 313.70204 198.10829 315.08225 198.77734 316.81836 198.77734 C 317.71246 198.77734 318.54275 198.60808 319.30664 198.26953 C 320.07053 197.93099 320.80273 197.45725 321.50586 196.84961 L 321.50586 198.37305 L 323.95508 198.37305 L 323.95508 178.11328 L 321.50586 178.11328 z M 345.67383 178.11328 L 345.67383 198.37305 L 348.12109 198.37305 L 348.12109 178.11328 L 345.67383 178.11328 z M 253.99414 178.63477 C 251.88476 178.63477 250.14301 179.1556 248.77148 180.19727 C 247.39995 181.23026 246.71484 182.55838 246.71484 184.18164 C 246.71484 185.59657 247.12652 186.74544 247.95117 187.63086 C 248.78451 188.5076 250.06054 189.12956 251.7793 189.49414 C 252.63 189.66775 253.43425 189.81098 254.18945 189.92383 C 254.95334 190.03667 255.6595 190.1799 256.31055 190.35352 C 257.16992 190.57921 257.80794 190.89475 258.22461 191.30273 C 258.64996 191.71072 258.86328 192.3457 258.86328 193.20508 C 258.86328 194.20334 258.41558 195.00065 257.52148 195.59961 C 256.63606 196.19857 255.39605 196.49805 253.79883 196.49805 C 252.67035 196.49805 251.46245 196.2767 250.17773 195.83398 C 248.89301 195.39128 247.7602 194.76324 246.7793 193.94727 L 246.59766 193.94727 L 246.59766 197.17578 C 247.75218 197.68793 248.88498 198.07356 249.99609 198.33398 C 251.11589 198.5944 252.37392 198.72461 253.77148 198.72461 C 255.07357 198.72461 256.18533 198.56836 257.10547 198.25586 C 258.03429 197.94336 258.84657 197.51063 259.54102 196.95508 C 260.1747 196.44292 260.66449 195.81792 261.01172 195.08008 C 261.36762 194.34222 261.54492 193.59505 261.54492 192.83984 C 261.54492 191.45095 261.18034 190.37022 260.45117 189.59766 C 259.72201 188.82508 258.63824 188.24718 257.19727 187.86523 C 256.48546 187.68295 255.6161 187.50564 254.5918 187.33203 C 253.56749 187.15842 252.77822 187.0102 252.22266 186.88867 C 251.17231 186.64562 250.43815 186.29406 250.02148 185.83398 C 249.60482 185.37392 249.39648 184.74089 249.39648 183.93359 C 249.39648 183.03081 249.81315 182.29362 250.64648 181.7207 C 251.4885 181.14779 252.60026 180.86133 253.98047 180.86133 C 255.23915 180.86133 256.4681 181.06966 257.66602 181.48633 C 258.87261 181.89431 259.84418 182.41016 260.58203 183.03516 L 260.76367 183.03516 L 260.76367 179.98828 C 259.88693 179.60633 258.88129 179.2858 257.74414 179.02539 C 256.60699 178.76497 255.35699 178.63477 253.99414 178.63477 z M 22.261719 178.98633 L 22.261719 180.96484 L 24.800781 180.96484 L 24.800781 196.39453 L 22.261719 196.39453 L 22.261719 198.37305 L 29.917969 198.37305 L 29.917969 196.39453 L 27.378906 196.39453 L 27.378906 180.96484 L 29.917969 180.96484 L 29.917969 178.98633 L 22.261719 178.98633 z M 34.332031 178.98633 L 34.332031 198.37305 L 41.207031 198.37305 C 42.552519 198.37305 43.659287 198.25282 44.527344 198.00977 C 45.404081 197.76671 46.20638 197.35807 46.935547 196.78516 C 47.551868 196.30772 48.041666 195.70074 48.40625 194.96289 C 48.770833 194.22504 48.953125 193.3737 48.953125 192.41016 C 48.953125 191.06467 48.575522 189.95291 47.820312 189.07617 C 47.065103 188.19076 46.033422 187.6148 44.722656 187.3457 L 44.722656 187.24023 C 45.503908 186.84961 46.128906 186.33377 46.597656 185.69141 C 47.066407 185.04037 47.300781 184.25412 47.300781 183.33398 C 47.300781 182.51801 47.13954 181.81988 46.818359 181.23828 C 46.497178 180.648 45.981337 180.16623 45.269531 179.79297 C 44.627169 179.46311 43.953126 179.24674 43.25 179.14258 C 42.546874 179.0384 41.489151 178.98633 40.074219 178.98633 L 34.332031 178.98633 z M 52.613281 178.98633 L 52.613281 198.37305 L 55.021484 198.37305 L 55.021484 181.66797 L 60.373047 193.03516 L 61.910156 193.03516 L 67.300781 181.66797 L 67.300781 198.37305 L 69.878906 198.37305 L 69.878906 178.98633 L 66.296875 178.98633 L 61.296875 189.7793 L 56.128906 178.98633 L 52.613281 178.98633 z M 83.966797 178.98633 L 83.966797 181.27734 L 95.412109 181.27734 L 83.523438 195.97852 L 83.523438 198.37305 L 98.654297 198.37305 L 98.654297 196.08203 L 86.363281 196.08203 L 98.367188 181.31641 L 98.367188 178.98633 L 83.966797 178.98633 z M 110.73828 178.98633 L 115.86719 198.37305 L 118.70703 198.37305 L 122.69141 182.2793 L 126.76562 198.37305 L 129.66992 198.37305 L 134.70898 178.98633 L 132.18359 178.98633 L 128.13281 195.26172 L 124.08398 178.98633 L 121.4668 178.98633 L 117.45703 195.10547 L 113.38086 178.98633 L 110.73828 178.98633 z M 36.910156 181.18555 L 39.982422 181.18555 C 40.841798 181.18555 41.562933 181.21661 42.144531 181.27734 C 42.726129 181.32943 43.22092 181.47266 43.628906 181.70703 C 43.976129 181.90668 44.226562 182.1671 44.382812 182.48828 C 44.539062 182.80947 44.617188 183.20508 44.617188 183.67383 C 44.617188 184.23807 44.531033 184.72786 44.357422 185.14453 C 44.192491 185.55252 43.906034 185.88607 43.498047 186.14648 C 43.09006 186.4069 42.647353 186.58116 42.169922 186.66797 C 41.692491 186.74609 41.04948 186.78516 40.242188 186.78516 L 36.910156 186.78516 L 36.910156 181.18555 z M 143.99219 183.42578 C 141.93489 183.42578 140.29926 184.11588 139.08398 185.49609 C 137.87738 186.86762 137.27344 188.73762 137.27344 191.10742 C 137.27344 193.47722 137.87738 195.34918 139.08398 196.7207 C 140.29926 198.09224 141.93489 198.77734 143.99219 198.77734 C 146.03212 198.77734 147.65972 198.09224 148.875 196.7207 C 150.09028 195.34918 150.69922 193.47722 150.69922 191.10742 C 150.69922 188.73762 150.09028 186.86762 148.875 185.49609 C 147.65972 184.11588 146.03212 183.42578 143.99219 183.42578 z M 194.72266 183.42578 C 192.66536 183.42578 191.02778 184.11588 189.8125 185.49609 C 188.6059 186.86762 188.00391 188.73762 188.00391 191.10742 C 188.00391 193.47722 188.6059 195.34918 189.8125 196.7207 C 191.02778 198.09224 192.66536 198.77734 194.72266 198.77734 C 196.76259 198.77734 198.39019 198.09224 199.60547 196.7207 C 200.82075 195.34918 201.42773 193.47722 201.42773 191.10742 C 201.42773 188.73762 200.82075 186.86762 199.60547 185.49609 C 198.39019 184.11588 196.76259 183.42578 194.72266 183.42578 z M 302.31445 183.42578 C 300.1964 183.42578 298.48568 184.12391 297.18359 185.52148 C 295.89019 186.91906 295.24414 188.80707 295.24414 191.18555 C 295.24414 193.59007 295.92122 195.44901 297.27539 196.75977 C 298.62956 198.06185 300.51259 198.71289 302.92578 198.71289 C 303.87197 198.71289 304.77539 198.5957 305.63477 198.36133 C 306.49415 198.12695 307.3355 197.83551 308.16016 197.48828 L 308.16016 194.81836 L 308.0293 194.81836 C 307.60395 195.20031 306.88781 195.59093 305.88086 195.99023 C 304.88259 196.38086 303.88998 196.57617 302.90039 196.57617 C 302.15386 196.57617 301.4668 196.47201 300.8418 196.26367 C 300.22548 196.05534 299.69163 195.74284 299.24023 195.32617 C 298.77149 194.90083 298.40387 194.35894 298.13477 193.69922 C 297.86567 193.03081 297.73047 192.24957 297.73047 191.35547 L 308.44727 191.35547 L 308.44727 190.02734 C 308.44727 187.91796 307.91342 186.29036 306.8457 185.14453 C 305.78668 183.99869 304.27627 183.42578 302.31445 183.42578 z M 359.0332 183.42578 C 356.91514 183.42578 355.20443 184.12391 353.90234 185.52148 C 352.60894 186.91906 351.96289 188.80707 351.96289 191.18555 C 351.96289 193.59007 352.63997 195.44901 353.99414 196.75977 C 355.34831 198.06185 357.23133 198.71289 359.64453 198.71289 C 360.59071 198.71289 361.49414 198.5957 362.35352 198.36133 C 363.2129 198.12695 364.05425 197.83551 364.87891 197.48828 L 364.87891 194.81836 L 364.74805 194.81836 C 364.3227 195.20031 363.60656 195.59093 362.59961 195.99023 C 361.60134 196.38086 360.60873 196.57617 359.61914 196.57617 C 358.87261 196.57617 358.18555 196.47201 357.56055 196.26367 C 356.94423 196.05534 356.41037 195.74284 355.95898 195.32617 C 355.49023 194.90083 355.12262 194.35894 354.85352 193.69922 C 354.58442 193.03081 354.44922 192.24957 354.44922 191.35547 L 365.16602 191.35547 L 365.16602 190.02734 C 365.16602 187.91796 364.63217 186.29036 363.56445 185.14453 C 362.50543 183.99869 360.99501 183.42578 359.0332 183.42578 z M 210.20312 183.47852 C 209.32639 183.47852 208.43794 183.55664 207.53516 183.71289 C 206.63238 183.86914 205.94228 184.01237 205.46484 184.14258 L 205.46484 186.62891 L 205.59375 186.62891 C 206.43576 186.30773 207.25304 186.06532 208.04297 185.90039 C 208.8329 185.72678 209.54905 185.63867 210.19141 185.63867 C 210.72092 185.63867 211.22873 185.67469 211.71484 185.74414 C 212.20096 185.81358 212.61762 185.94683 212.96484 186.14648 C 213.32943 186.35482 213.60785 186.64127 213.79883 187.00586 C 213.99848 187.37044 214.09766 187.83116 214.09766 188.38672 L 214.09766 188.76367 C 212.67404 188.83312 211.34094 188.93729 210.09961 189.07617 C 208.85829 189.21507 207.79557 189.48047 206.91016 189.87109 C 206.03342 190.26171 205.35634 190.80056 204.87891 191.48633 C 204.41016 192.16341 204.17578 193.05186 204.17578 194.1543 C 204.17578 195.49978 204.63151 196.60656 205.54297 197.47461 C 206.45443 198.34267 207.56424 198.77734 208.875 198.77734 C 209.58681 198.77734 210.20876 198.70725 210.73828 198.56836 C 211.26779 198.43815 211.73654 198.27387 212.14453 198.07422 C 212.49175 197.91797 212.8483 197.70964 213.21289 197.44922 C 213.58615 197.18012 213.88064 196.97179 214.09766 196.82422 L 214.09766 198.37305 L 216.5332 198.37305 L 216.5332 188.50391 C 216.5332 187.5664 216.38997 186.78016 216.10352 186.14648 C 215.81706 185.5128 215.4004 184.99696 214.85352 184.59766 C 214.29796 184.18967 213.63693 183.90321 212.87305 183.73828 C 212.11783 183.56467 211.22743 183.47852 210.20312 183.47852 z M 271.58398 183.49023 C 269.43988 183.49023 267.71311 184.16732 266.40234 185.52148 C 265.10026 186.87565 264.44922 188.74261 264.44922 191.12109 C 264.44922 192.39713 264.62348 193.51193 264.9707 194.4668 C 265.31792 195.42166 265.80772 196.21289 266.44141 196.83789 C 267.06641 197.46289 267.81663 197.93164 268.69336 198.24414 C 269.5701 198.54796 270.53364 198.69922 271.58398 198.69922 C 272.40864 198.69922 273.18685 198.59006 273.91602 198.37305 C 274.65387 198.15603 275.43012 197.85352 276.24609 197.46289 L 276.24609 194.76758 L 276.11523 194.76758 C 275.93294 194.91515 275.68555 195.09245 275.37305 195.30078 C 275.06055 195.50043 274.727 195.69075 274.37109 195.87305 C 273.96311 196.08138 273.50239 196.25065 272.99023 196.38086 C 272.47808 196.51107 271.97526 196.57617 271.48047 196.57617 C 270.05686 196.57617 268.95009 196.10742 268.16016 195.16992 C 267.3789 194.22374 266.98828 192.87457 266.98828 191.12109 C 266.98828 189.31553 267.38693 187.94835 268.18555 187.01953 C 268.99284 186.08203 270.09158 185.61328 271.48047 185.61328 C 272.23568 185.61328 273.00889 185.76953 273.79883 186.08203 C 274.59744 186.39453 275.36871 186.84223 276.11523 187.42383 L 276.24609 187.42383 L 276.24609 184.70117 C 275.57769 184.36263 274.8405 184.07617 274.0332 183.8418 C 273.23459 183.60742 272.41732 183.49023 271.58398 183.49023 z M 154.5 183.83008 L 154.5 198.37305 L 156.94922 198.37305 L 156.94922 188.04883 C 157.60027 187.51931 158.27734 187.08963 158.98047 186.75977 C 159.6836 186.42123 160.41276 186.25195 161.16797 186.25195 C 161.63672 186.25195 162.04036 186.27301 162.37891 186.31641 C 162.72613 186.35113 163.08073 186.41124 163.44531 186.49805 L 163.57617 186.49805 L 163.57617 183.98633 C 163.19423 183.92553 162.90777 183.88647 162.7168 183.86914 C 162.52582 183.84307 162.21832 183.83008 161.79297 183.83008 C 161.0204 183.83008 160.2602 183.99436 159.51367 184.32422 C 158.77583 184.6454 157.92145 185.19726 156.94922 185.97852 L 156.94922 183.83008 L 154.5 183.83008 z M 328.66797 183.83008 L 328.66797 193.26953 C 328.66797 195.07508 329.09266 196.44726 329.94336 197.38477 C 330.79405 198.31359 331.98394 198.77734 333.51172 198.77734 C 334.42318 198.77734 335.25651 198.60309 336.01172 198.25586 C 336.76693 197.90864 337.55621 197.41081 338.38086 196.75977 L 338.38086 198.37305 L 340.83008 198.37305 L 340.83008 183.83008 L 338.38086 183.83008 L 338.38086 194.68945 C 337.72981 195.20161 337.02669 195.62131 336.27148 195.95117 C 335.52496 196.28103 334.83485 196.44727 334.20117 196.44727 C 333.48937 196.44727 332.94749 196.35915 332.57422 196.18555 C 332.20095 196.01193 331.89648 195.73546 331.66211 195.35352 C 331.43642 194.98026 331.29015 194.53255 331.2207 194.01172 C 331.15126 193.4822 331.11523 192.84917 331.11523 192.11133 L 331.11523 183.83008 L 328.66797 183.83008 z M 368.87695 183.83008 L 368.87695 198.37305 L 371.32422 198.37305 L 371.32422 188.04883 C 371.97526 187.51931 372.65234 187.08963 373.35547 186.75977 C 374.0586 186.42123 374.78776 186.25195 375.54297 186.25195 C 376.01172 186.25195 376.41537 186.27301 376.75391 186.31641 C 377.10113 186.35113 377.45769 186.41124 377.82227 186.49805 L 377.95117 186.49805 L 377.95117 183.98633 C 377.56923 183.92553 377.28277 183.88647 377.0918 183.86914 C 376.90083 183.84307 376.59332 183.83008 376.16797 183.83008 C 375.3954 183.83008 374.6352 183.99436 373.88867 184.32422 C 373.15082 184.6454 372.29644 185.19726 371.32422 185.97852 L 371.32422 183.83008 L 368.87695 183.83008 z M 302.18359 185.44336 C 303.48567 185.44336 304.4542 185.79492 305.08789 186.49805 C 305.73026 187.20117 306.05579 188.19574 306.06445 189.48047 L 297.73047 189.48047 C 297.83464 188.33464 298.27236 187.37609 299.04492 186.60352 C 299.82618 185.83095 300.87283 185.44336 302.18359 185.44336 z M 358.90234 185.44336 C 360.20442 185.44336 361.17295 185.79492 361.80664 186.49805 C 362.44901 187.20117 362.77454 188.19574 362.7832 189.48047 L 354.44922 189.48047 C 354.55339 188.33464 354.99111 187.37609 355.76367 186.60352 C 356.54493 185.83095 357.59158 185.44336 358.90234 185.44336 z M 143.99219 185.53516 C 145.30295 185.53516 146.32856 185.99588 147.06641 186.91602 C 147.80425 187.82748 148.17187 189.22374 148.17188 191.10742 C 148.17187 192.9477 147.79926 194.33789 147.05273 195.27539 C 146.31489 196.20421 145.29427 196.66797 143.99219 196.66797 C 142.67274 196.66797 141.6441 196.19922 140.90625 195.26172 C 140.1684 194.31553 139.80078 192.93034 139.80078 191.10742 C 139.80078 189.22374 140.16536 187.82748 140.89453 186.91602 C 141.63238 185.99588 142.66406 185.53516 143.99219 185.53516 z M 194.72266 185.53516 C 196.03342 185.53516 197.05708 185.99588 197.79492 186.91602 C 198.53277 187.82748 198.90234 189.22374 198.90234 191.10742 C 198.90234 192.9477 198.52778 194.33789 197.78125 195.27539 C 197.0434 196.20421 196.02474 196.66797 194.72266 196.66797 C 193.40321 196.66797 192.37457 196.19922 191.63672 195.26172 C 190.89887 194.31553 190.5293 192.93034 190.5293 191.10742 C 190.5293 189.22374 190.89388 187.82748 191.62305 186.91602 C 192.36089 185.99588 193.39453 185.53516 194.72266 185.53516 z M 227.14453 185.66602 C 227.76085 185.66602 228.32878 185.72114 228.84961 185.83398 C 229.37044 185.94683 229.96137 186.15213 230.62109 186.44727 L 230.62109 194.79297 C 230.00477 195.27908 229.34071 195.67773 228.62891 195.99023 C 227.9171 196.29405 227.21397 196.44727 226.51953 196.44727 C 225.21744 196.44727 224.27192 195.99956 223.68164 195.10547 C 223.09136 194.20269 222.79492 192.88759 222.79492 191.16016 C 222.79492 189.40668 223.17751 188.05252 223.94141 187.09766 C 224.70529 186.1428 225.773 185.66602 227.14453 185.66602 z M 318.0293 185.66602 C 318.64562 185.66602 319.21549 185.72114 319.73633 185.83398 C 320.25716 185.94683 320.84613 186.15213 321.50586 186.44727 L 321.50586 194.79297 C 320.88954 195.27908 320.22548 195.67773 319.51367 195.99023 C 318.80187 196.29405 318.09874 196.44727 317.4043 196.44727 C 316.10221 196.44727 315.15669 195.99956 314.56641 195.10547 C 313.97613 194.20269 313.68164 192.88759 313.68164 191.16016 C 313.68164 189.40668 314.06229 188.05252 314.82617 187.09766 C 315.59007 186.1428 316.65777 185.66602 318.0293 185.66602 z M 36.910156 188.95898 L 40.958984 188.95898 C 41.80968 188.95898 42.530815 188.99501 43.121094 189.06445 C 43.720052 189.12522 44.227864 189.26346 44.644531 189.48047 C 45.260851 189.80165 45.685547 190.19227 45.919922 190.65234 C 46.154297 191.11241 46.271484 191.73242 46.271484 192.51367 C 46.271484 193.19944 46.159288 193.75933 45.933594 194.19336 C 45.707899 194.62739 45.351346 195.01498 44.865234 195.35352 C 44.405164 195.66602 43.814237 195.88237 43.09375 196.00391 C 42.373263 196.11675 41.448786 196.17383 40.320312 196.17383 L 36.910156 196.17383 L 36.910156 188.95898 z M 214.09766 190.74414 L 214.09766 194.79297 C 213.49002 195.26172 212.83095 195.66536 212.11914 196.00391 C 211.40733 196.33377 210.6211 196.49805 209.76172 196.49805 C 208.72873 196.49805 207.9605 196.28971 207.45703 195.87305 C 206.95356 195.4477 206.70117 194.81967 206.70117 193.98633 C 206.70117 193.24848 206.91948 192.67057 207.35352 192.25391 C 207.78754 191.82856 208.35547 191.51606 209.05859 191.31641 C 209.64887 191.15147 210.44618 191.02625 211.45312 190.93945 C 212.46875 190.85264 213.35112 190.78754 214.09766 190.74414 z "
     inkscape:radius="0"
     sodipodi:type="inkscape:offset"
     id="path1176" /></g></g><g
     transform="translate(-2.7,-2.7)"
     id="g56"><path
       inkscape:connector-curvature="0"
       class="st3"
       d="m 397.3,14 h -65.7 l 4.1,-11.3 h 61.6 z M 222.1,2.7 h 61 l 4,11.4 h -65 c 0.1,-0.1 0,-11.4 0,-11.4 z m -48.3,0 c 10,1 18.8,4.6 26.3,11.4 H 89.5 V 2.7 Z"
       id="path12"
       style="fill:#4c83c3" /><path
       inkscape:connector-curvature="0"
       class="st3"
       d="M 2.7,2.7 H 79.5 V 14 H 2.7 Z"
       id="path14"
       style="fill:#4c83c3" /><path
       inkscape:connector-curvature="0"
       class="st3"
       d="m 397.3,35.3 h -73.2 l 4,-11.3 h 69.3 v 11.3 z m -102.5,0 H 222.2 V 24 h 68.6 z M 208.6,24 c 1.5,3.8 3.2,6.9 3.2,11.3 H 89.5 V 24 Z"
       id="path16"
       style="fill:#4c83c3" /><path
       inkscape:connector-curvature="0"
       class="st3"
       d="M 2.7,24 H 79.5 V 35.3 H 2.7 Z"
       id="path18"
       style="fill:#4c83c3" /><path
       inkscape:connector-curvature="0"
       class="st3"
       d="m 316.6,56.6 4.1,-11.3 h 55 v 11.3 z m -18.4,-11.3 4.1,11.3 H 243.8 V 45.3 Z m -85.5,-0.1 c 0,3.9 -0.5,7.9 -1.6,11.3 H 177.6 V 45.2 Z"
       id="path20"
       style="fill:#4c83c3" /><path
       inkscape:connector-curvature="0"
       class="st3"
       d="m 24.1,45.3 h 33 v 11.3 h -33 z"
       id="path22"
       style="fill:#4c83c3" /><path
       inkscape:connector-curvature="0"
       class="st3"
       d="m 111.7,45.2 h 33 v 11.3 h -33 z"
       id="path24"
       style="fill:#4c83c3" /><path
       inkscape:connector-curvature="0"
       class="st3"
       d="m 276.2,68.8 v 8.6 H 243.7 V 66.2 h 61.8 l 3.9,10.5 3.7,-10.5 h 62.3 v 11.3 h -32.3 v -8.6 l -3,8.6 h -61 z M 111.7,66.2 h 94.6 c -2.1,3.8 -5.8,8.3 -9.4,11.3 h -85.2 z"
       id="path26"
       style="fill:#4c83c3" /><path
       inkscape:connector-curvature="0"
       class="st3"
       d="m 24.1,66.2 h 33 v 11.3 h -33 z"
       id="path28"
       style="fill:#4c83c3" /><path
       inkscape:connector-curvature="0"
       class="st3"
       d="m 343.3,87.5 h 32.3 v 11.3 h -32.3 z"
       id="path30"
       style="fill:#4c83c3" /><path
       inkscape:connector-curvature="0"
       class="st3"
       d="m 276.2,87.5 h -32.5 v 11.3 h 32.5 c 0,-0.2 0.1,-11.3 0,-11.3 z m 60.6,0 c -0.1,0 -3.8,11.3 -4,11.3 h -46 l -4.1,-11.3 z m -225.1,0 h 85 c 3.9,3.3 7.4,7.2 10.1,11.3 h -95.2 c 0.1,-0.2 0.1,-11.3 0.1,-11.3 z M 57.1,98.6 V 87.4 H 24.2 v 11.3 h 32.9 z"
       id="path32"
       style="fill:#4c83c3" /><path
       inkscape:connector-curvature="0"
       class="st3"
       d="m 343.3,108.7 h 32.3 V 120 h -32.3 z"
       id="path34"
       style="fill:#4c83c3" /><path
       inkscape:connector-curvature="0"
       class="st3"
       d="m 243.8,108.7 h 32.5 V 120 h -32.5 z"
       id="path36"
       style="fill:#4c83c3" /><path
       inkscape:connector-curvature="0"
       class="st3"
       d="m 325.3,119.9 c 0,-0.1 4,-11.3 4.1,-11.3 h -39.1 c -0.1,0 4,11.3 4,11.3 0,0 31,0.1 31,0 z m -213.6,0 v -11.3 h 33.5 v 11.3 z m 99.8,-11.2 c 1.6,3.4 1.8,7.4 2.1,11.3 h -35.5 v -11.3 z"
       id="path38"
       style="fill:#4c83c3" /><path
       inkscape:connector-curvature="0"
       class="st3"
       d="m 24.2,108.7 h 33 V 120 h -33 z"
       id="path40"
       style="fill:#4c83c3" /><path
       inkscape:connector-curvature="0"
       class="st3"
       d="m 343.3,129.5 h 54 v 11.3 h -54 z"
       id="path42"
       style="fill:#4c83c3" /><path
       inkscape:connector-curvature="0"
       class="st3"
       d="m 222.1,129.5 h 54.1 v 11.3 h -54.1 z"
       id="path44"
       style="fill:#4c83c3" /><path
       inkscape:connector-curvature="0"
       class="st3"
       d="m 317.9,140.8 h -16.4 l -4,-11.3 h 24.3 z M 2.7,129.5 v 11.3 h 76.8 v -11.3 z m 209.5,0 c -0.8,3.8 -1.6,8.2 -4.3,11.3 H 89.5 v -11.3 z m 98.3,32.6 H 309 l -3.9,-11.3 h 9.3 z"
       id="path46"
       style="fill:#4c83c3" /><path
       inkscape:connector-curvature="0"
       class="st3"
       d="m 343.3,150.8 h 54 v 11.3 h -54 z"
       id="path48"
       style="fill:#4c83c3" /><path
       inkscape:connector-curvature="0"
       class="st3"
       d="m 89.5,162.1 v -11.3 h 111.2 c -7.4,7.1 -17.6,11.1 -28.6,11.3 H 89.5"
       id="path50"
       style="fill:#4c83c3" /><path
       inkscape:connector-curvature="0"
       class="st3"
       d="m 222.1,150.8 h 54.1 v 11.3 h -54.1 z"
       id="path52"
       style="fill:#4c83c3" /><path
       inkscape:connector-curvature="0"
       class="st3"
       d="m 79.5,150.8 v 11.3 H 2.7 v -11.3 c 0,0 76.7,0.1 76.8,0 z"
       id="path54"
       style="fill:#4c83c3" /></g></svg>
