<?xml version="1.0" encoding="UTF-8" standalone="no"?>
<svg
   xmlns:dc="http://purl.org/dc/elements/1.1/"
   xmlns:cc="http://creativecommons.org/ns#"
   xmlns:rdf="http://www.w3.org/1999/02/22-rdf-syntax-ns#"
   xmlns:svg="http://www.w3.org/2000/svg"
   xmlns="http://www.w3.org/2000/svg"
   id="Layer_1"
   x="0px"
   y="0px"
   viewBox="0 0 400 300"
   style="enable-background:new 0 0 400 245;"
   xml:space="preserve"
   version="1.1"><metadata
   id="metadata139"><rdf:RDF><cc:Work
       rdf:about=""><dc:format>image/svg+xml</dc:format><dc:type
         rdf:resource="http://purl.org/dc/dcmitype/StillImage" /></cc:Work></rdf:RDF></metadata><defs
   id="defs137" /> <style
   type="text/css"
   id="style2"> .st0{fill:#4C83C3;} </style> <g
   id="g130"> <path
   id="polygon4"
   style="fill:#4c83c3"
   d="m 336.1,42.1 h 62.2 V 53.5 H 332 Z"
   class="st0" /> <path
   class="st0"
   d="m 221.5,42.1 h 61.6 l 4,11.5 c 0,0 -65.6,0 -65.6,0 0.1,-0.1 0,-11.5 0,-11.5 z"
   id="path6" /> <path
   class="st0"
   d="m 172.7,42.1 c 10.1,1 19,4.6 26.5,11.5 0,0 -111.6,0 -111.6,0 0,0 0,-11.5 0,-11.5 z"
   id="path8" /> <g
   id="g14"> <path
   id="rect10"
   style="fill:#4c83c3"
   d="m 0,42.099998 h 77.5 v 11.4 H 0 Z"
   class="st0" /> <path
   class="st0"
   d="M 38.8,47.8"
   id="path12" /> </g> <path
   class="st0"
   d="m 398.3,75 h -73.9 c 0,0 4,-11.4 4,-11.4 h 69.9 z"
   id="path16" /> <path
   id="polygon18"
   style="fill:#4c83c3"
   d="m 221.5,63.6 h 69.2 l 4.1,11.4 h -73.3 z"
   class="st0" /> <path
   class="st0"
   d="m 207.8,63.6 c 1.5,3.8 3.2,7 3.2,11.4 H 87.6 V 63.6 Z"
   id="path20" /> <g
   id="g26"> <path
   id="rect22"
   style="fill:#4c83c3"
   d="m 0,63.599998 h 77.5 v 11.4 H 0 Z"
   class="st0" /> <path
   class="st0"
   d="M 38.8,69.3"
   id="path24" /> </g> <path
   id="polygon28"
   style="fill:#4c83c3"
   d="m 376.4,85.1 v 11.4 h -59.6 l 4.1,-11.4 z"
   class="st0" /> <path
   id="polygon30"
   style="fill:#4c83c3"
   d="M 243.4,96.5 V 85.1 h 54.9 l 4.1,11.4 z"
   class="st0" /> <path
   class="st0"
   d="m 212,85 c 0,3.9 -0.5,8 -1.6,11.4 H 176.6 V 85 Z"
   id="path32" /> <g
   id="g38"> <path
   id="rect34"
   style="fill:#4c83c3"
   d="m 21.6,85.099998 h 33.3 v 11.4 H 21.6 Z"
   class="st0" /> <path
   class="st0"
   d="M 38.3,90.8"
   id="path36" /> </g> <g
   id="g44"> <path
   id="rect40"
   style="fill:#4c83c3"
   d="m 110,85 h 33.3 V 96.4 H 110 Z"
   class="st0" /> <path
   class="st0"
   d="M 126.6,90.8"
   id="path42" /> </g> <path
   class="st0"
   d="m 276.1,108.8 c 0,0 0,8.7 0,8.7 h -32.8 v -11.4 h 62.4 l 3.9,10.6 c 0,0 3.7,-10.6 3.7,-10.6 h 62.9 v 11.4 h -32.6 c 0,0 0,-8.7 0,-8.7 l -3,8.7 H 279 Z"
   id="path46" /> <path
   class="st0"
   d="m 110,106.1 h 95.5 v 0 c -2.1,3.8 -5.9,8.4 -9.5,11.4 0,0 -86,0 -86,0 0,0 0,-11.4 0,-11.4 z"
   id="path48" /> <g
   id="g54"> <path
   id="rect50"
   style="fill:#4c83c3"
   d="m 21.6,106.1 h 33.3 v 11.4 H 21.6 Z"
   class="st0" /> <path
   class="st0"
   d="M 38.3,111.8"
   id="path52" /> </g> <g
   id="g60"> <path
   id="rect56"
   style="fill:#4c83c3"
   d="m 343.79999,127.6 h 32.6 V 139 h -32.6 z"
   class="st0" /> <path
   class="st0"
   d="M 360.1,133.3"
   id="path58" /> </g> <path
   class="st0"
   d="M 276.1,127.6 H 243.3 V 139 c 0,0 32.8,0 32.8,0 0,-0.1 0.1,-11.4 0,-11.4 z"
   id="path62" /> <path
   class="st0"
   d="m 337.2,127.6 c -0.1,0 -3.8,11.4 -4,11.4 h -46.4 c 0,0 -4.1,-11.4 -4.1,-11.4 z"
   id="path64" /> <path
   class="st0"
   d="m 110,127.6 h 85.8 c 3.9,3.3 7.5,7.3 10.2,11.4 0.2,0 -96.1,0 -96.1,0 0.1,-0.1 0.1,-11.4 0.1,-11.4 z"
   id="path66" /> <path
   class="st0"
   d="M 54.9,138.9 V 127.5 H 21.7 c 0,0 0,11.4 0,11.4 0,0 33.2,0 33.2,0 z"
   id="path68" /> <g
   id="g74"> <path
   id="rect70"
   style="fill:#4c83c3"
   d="m 343.79999,149 h 32.6 v 11.4 h -32.6 z"
   class="st0" /> <path
   class="st0"
   d="M 360.1,154.7"
   id="path72" /> </g> <g
   id="g80"> <path
   id="rect76"
   style="fill:#4c83c3"
   d="m 243.39999,149 h 32.8 v 11.4 h -32.8 z"
   class="st0" /> <path
   class="st0"
   d="M 259.8,154.7"
   id="path78" /> </g> <path
   class="st0"
   d="m 325.6,160.4 c 0,-0.1 4,-11.4 4.1,-11.4 h -39.5 c -0.1,0 4,11.4 4,11.4 0,0 31.4,0.1 31.4,0 z"
   id="path82" /> <path
   class="st0"
   d="m 110,160.4 c 0,0 0,-11.4 0,-11.4 h 33.8 c 0,0 0,11.4 0,11.4 -0.1,0 -33.8,0 -33.8,0 z"
   id="path84" /> <path
   class="st0"
   d="m 210.8,149 c 1.6,3.4 1.8,7.5 2.1,11.4 H 177.1 V 149 Z"
   id="path86" /> <g
   id="g92"> <path
   id="rect88"
   style="fill:#4c83c3"
   d="M 21.700001,149 H 55 v 11.4 H 21.700001 Z"
   class="st0" /> <path
   class="st0"
   d="M 38.3,154.7"
   id="path90" /> </g> <g
   id="g98"> <path
   id="rect94"
   style="fill:#4c83c3"
   d="m 343.79999,170 h 54.5 v 11.4 h -54.5 z"
   class="st0" /> <path
   class="st0"
   d="M 371,175.7"
   id="path96" /> </g> <g
   id="g104"> <path
   id="rect100"
   style="fill:#4c83c3"
   d="m 221.5,170 h 54.6 v 11.4 h -54.6 z"
   class="st0" /> <path
   class="st0"
   d="M 248.8,175.7"
   id="path102" /> </g> <path
   id="polygon106"
   style="fill:#4c83c3"
   d="m 297.6,170 h 24.5 l -3.9,11.4 h -16.6 z"
   class="st0" /> <path
   class="st0"
   d="m 0,170 v 11.4 h 77.5 c 0,0 0,-11.4 0,-11.4 0,0 -77.6,0 -77.5,0 z"
   id="path108" /> <path
   class="st0"
   d="m 211.5,170 c -0.8,3.8 -1.6,8.3 -4.3,11.4 h -1 H 87.6 V 170 Z"
   id="path110" /> <path
   id="polygon112"
   style="fill:#4c83c3"
   d="m 305.3,191.5 h 9.4 l -4,11.4 h -1.5 z"
   class="st0" /> <g
   id="g118"> <path
   id="rect114"
   style="fill:#4c83c3"
   d="m 343.79999,191.5 h 54.5 v 11.4 h -54.5 z"
   class="st0" /> <path
   class="st0"
   d="M 371,197.2"
   id="path116" /> </g> <path
   class="st0"
   d="m 87.6,202.9 v -11.4 c 0,0 111.9,0 112.2,0 -7.5,7.2 -17.8,11.2 -28.9,11.4 H 87.6"
   id="path120" /> <g
   id="g126"> <path
   id="rect122"
   style="fill:#4c83c3"
   d="m 221.5,191.5 h 54.6 v 11.4 h -54.6 z"
   class="st0" /> <path
   class="st0"
   d="M 248.8,197.2"
   id="path124" /> </g> <path
   class="st0"
   d="m 77.5,191.5 c 0,0 0,11.4 0,11.4 0,0 -77.4,0 -77.5,0 0,0 0,-11.4 0,-11.4 0,0 77.4,0.1 77.5,0 z"
   id="path128" /> </g> <g
   aria-label="IBM® Z Netview"
   id="text132"
   style="font-style:normal;font-variant:normal;font-weight:normal;font-stretch:normal;font-size:22px;line-height:normal;font-family:sans-serif;text-anchor:middle"><path
     d="m 115.83496,240 h -6.31641 v -1.63281 h 2.09473 V 225.6377 h -2.09473 v -1.63282 h 6.31641 v 1.63282 h -2.09473 v 12.72949 h 2.09473 z"
     style="font-style:normal;font-variant:normal;font-weight:normal;font-stretch:normal;font-size:22px;line-height:normal;font-family:sans-serif;text-anchor:middle"
     id="path160" /><path
     d="m 131.54004,235.08008 q 0,1.19238 -0.45117,2.10547 -0.45117,0.91308 -1.21387,1.5039 -0.90234,0.70899 -1.9873,1.00977 Q 126.81348,240 125.14844,240 h -5.67188 v -15.99512 h 4.73731 q 1.75097,0 2.62109,0.12891 0.87012,0.12891 1.66504,0.53711 0.88086,0.46191 1.27832,1.19238 0.39746,0.71973 0.39746,1.72949 0,1.13868 -0.58008,1.94434 -0.58008,0.79492 -1.54687,1.27832 v 0.0859 q 1.62207,0.333 2.55664,1.42871 0.93457,1.08496 0.93457,2.75 z m -3.57715,-7.20801 q 0,-0.58008 -0.19336,-0.97754 -0.19336,-0.39746 -0.62305,-0.64453 -0.50488,-0.29004 -1.2246,-0.35449 -0.71973,-0.0752 -1.78321,-0.0752 h -2.53515 v 4.61914 h 2.75 q 0.99902,0 1.58984,-0.0967 0.59082,-0.10742 1.0957,-0.42968 0.50489,-0.32227 0.70899,-0.82715 0.21484,-0.51563 0.21484,-1.21387 z m 1.36426,7.29395 q 0,-0.9668 -0.29004,-1.53614 -0.29004,-0.56933 -1.05273,-0.96679 -0.51563,-0.26856 -1.25684,-0.34375 -0.73047,-0.0859 -1.7832,-0.0859 h -3.34082 v 5.95117 h 2.81445 q 1.39648,0 2.28808,-0.13965 0.89161,-0.15039 1.46094,-0.53711 0.60156,-0.41894 0.88086,-0.95605 0.2793,-0.53711 0.2793,-1.38574 z"
     style="font-style:normal;font-variant:normal;font-weight:normal;font-stretch:normal;font-size:22px;line-height:normal;font-family:sans-serif;text-anchor:middle"
     id="path162" /><path
     d="m 148.80273,240 h -2.12695 v -13.78223 l -4.44726,9.37793 h -1.26758 l -4.41504,-9.37793 V 240 h -1.98731 v -15.99512 h 2.90039 l 4.26465,8.90528 4.125,-8.90528 h 2.9541 z"
     style="font-style:normal;font-variant:normal;font-weight:normal;font-stretch:normal;font-size:22px;line-height:normal;font-family:sans-serif;text-anchor:middle"
     id="path164" /><path
     d="m 171.26465,232.96387 q 0,3.8457 -2.72852,6.57422 -2.71777,2.71777 -6.56347,2.71777 -3.84571,0 -6.57422,-2.71777 -2.71778,-2.72852 -2.71778,-6.57422 0,-3.84571 2.71778,-6.56348 2.72851,-2.72852 6.57422,-2.72852 3.8457,0 6.56347,2.72852 2.72852,2.71777 2.72852,6.56348 z m -1.2461,0 q 0,-3.33008 -2.36328,-5.71485 -2.35254,-2.38476 -5.68261,-2.38476 -3.33008,0 -5.69336,2.38476 -2.35254,2.38477 -2.35254,5.71485 0,3.33008 2.35254,5.71484 2.36328,2.38477 5.69336,2.38477 3.33007,0 5.68261,-2.38477 2.36328,-2.38476 2.36328,-5.71484 z m -2.0625,4.72656 h -2.3955 l -3.55567,-3.81348 h -1.74023 v 3.81348 h -1.77246 v -9.8291 h 3.35156 q 1.00977,0 1.66504,0.0859 0.65527,0.0859 1.28906,0.41894 0.67676,0.36524 0.98828,0.8916 0.32227,0.51563 0.32227,1.29981 0,1.04199 -0.61231,1.74023 -0.60156,0.6875 -1.66504,1.0957 z m -3.78125,-7.01465 q 0,-0.38672 -0.15039,-0.6875 -0.15039,-0.30078 -0.50488,-0.49414 -0.33301,-0.18262 -0.70898,-0.23633 -0.37598,-0.0537 -0.94532,-0.0537 h -1.60058 v 3.31934 h 1.36426 q 0.66601,0 1.14941,-0.0967 0.4834,-0.10742 0.79492,-0.35449 0.33301,-0.26856 0.46192,-0.59082 0.13964,-0.32227 0.13964,-0.80567 z"
     style="font-style:normal;font-variant:normal;font-weight:normal;font-stretch:normal;font-size:22px;line-height:normal;font-family:sans-serif;text-anchor:middle"
     id="path166" /><path
     d="m 194.54297,240 h -12.48242 v -1.97656 l 9.80761,-12.12793 h -9.44238 v -1.89063 h 11.88086 v 1.92285 l -9.9043,12.18164 h 10.14063 z"
     style="font-style:normal;font-variant:normal;font-weight:normal;font-stretch:normal;font-size:22px;line-height:normal;font-family:sans-serif;text-anchor:middle"
     id="path168" /><path
     d="m 217.875,240 h -2.63184 l -7.58398,-14.30859 V 240 h -1.98731 v -15.99512 h 3.29786 l 6.91797,13.0625 v -13.0625 h 1.9873 z"
     style="font-style:normal;font-variant:normal;font-weight:normal;font-stretch:normal;font-size:22px;line-height:normal;font-family:sans-serif;text-anchor:middle"
     id="path170" /><path
     d="m 232.01172,234.20996 h -8.84082 q 0,1.10645 0.33301,1.93359 0.333,0.81641 0.91308,1.34278 0.5586,0.51562 1.32129,0.77344 0.77344,0.25781 1.69727,0.25781 1.22461,0 2.45996,-0.4834 1.24609,-0.49414 1.77246,-0.9668 h 0.10742 v 2.20215 q -1.02051,0.42969 -2.08398,0.71973 -1.06348,0.29004 -2.23438,0.29004 -2.98633,0 -4.66211,-1.61133 -1.67578,-1.62207 -1.67578,-4.59766 0,-2.94336 1.60059,-4.67285 1.61132,-1.72949 4.23242,-1.72949 2.42773,0 3.73828,1.41797 1.32129,1.41797 1.32129,4.02832 z m -1.96582,-1.54687 q -0.0107,-1.58985 -0.80567,-2.45997 -0.78418,-0.87011 -2.3955,-0.87011 -1.62207,0 -2.58887,0.95605 -0.95606,0.95606 -1.08496,2.37403 z"
     style="font-style:normal;font-variant:normal;font-weight:normal;font-stretch:normal;font-size:22px;line-height:normal;font-family:sans-serif;text-anchor:middle"
     id="path172" /><path
     d="m 241.30371,239.89258 q -0.56934,0.15039 -1.24609,0.24707 -0.66602,0.0967 -1.19239,0.0967 -1.83691,0 -2.79296,-0.98828 -0.95606,-0.98828 -0.95606,-3.16895 v -6.38086 h -1.36426 v -1.69726 h 1.36426 v -3.44825 h 2.01953 v 3.44825 h 4.16797 v 1.69726 h -4.16797 v 5.46778 q 0,0.94531 0.043,1.48242 0.043,0.52636 0.30078,0.98828 0.23633,0.42969 0.64453,0.63379 0.41895,0.19336 1.26758,0.19336 0.49414,0 1.03125,-0.13965 0.53711,-0.15039 0.77344,-0.24707 h 0.10742 z"
     style="font-style:normal;font-variant:normal;font-weight:normal;font-stretch:normal;font-size:22px;line-height:normal;font-family:sans-serif;text-anchor:middle"
     id="path174" /><path
     d="M 254.12988,228.00098 249.27441,240 h -2.03027 l -4.82324,-11.99902 h 2.1914 l 3.7168,9.5498 3.68457,-9.5498 z"
     style="font-style:normal;font-variant:normal;font-weight:normal;font-stretch:normal;font-size:22px;line-height:normal;font-family:sans-serif;text-anchor:middle"
     id="path176" /><path
     d="m 258.94238,225.99219 h -2.27734 v -2.09473 h 2.27734 z M 258.81348,240 h -2.01953 v -11.99902 h 2.01953 z"
     style="font-style:normal;font-variant:normal;font-weight:normal;font-stretch:normal;font-size:22px;line-height:normal;font-family:sans-serif;text-anchor:middle"
     id="path178" /><path
     d="m 272.875,234.20996 h -8.84082 q 0,1.10645 0.33301,1.93359 0.33301,0.81641 0.91308,1.34278 0.5586,0.51562 1.32129,0.77344 0.77344,0.25781 1.69727,0.25781 1.22461,0 2.45996,-0.4834 1.24609,-0.49414 1.77246,-0.9668 h 0.10742 v 2.20215 q -1.02051,0.42969 -2.08398,0.71973 -1.06348,0.29004 -2.23438,0.29004 -2.98633,0 -4.66211,-1.61133 -1.67578,-1.62207 -1.67578,-4.59766 0,-2.94336 1.60059,-4.67285 1.61133,-1.72949 4.23242,-1.72949 2.42773,0 3.73828,1.41797 1.32129,1.41797 1.32129,4.02832 z m -1.96582,-1.54687 q -0.0107,-1.58985 -0.80566,-2.45997 -0.78418,-0.87011 -2.39551,-0.87011 -1.62207,0 -2.58887,0.95605 -0.95605,0.95606 -1.08496,2.37403 z"
     style="font-style:normal;font-variant:normal;font-weight:normal;font-stretch:normal;font-size:22px;line-height:normal;font-family:sans-serif;text-anchor:middle"
     id="path180" /><path
     d="M 291.0293,228.00098 287.90332,240 h -1.86914 L 282.95117,230.75098 279.88965,240 h -1.8584 l -3.1582,-11.99902 h 2.10547 l 2.20214,9.29199 2.99707,-9.29199 h 1.66504 l 3.07227,9.29199 2.08398,-9.29199 z"
     style="font-style:normal;font-variant:normal;font-weight:normal;font-stretch:normal;font-size:22px;line-height:normal;font-family:sans-serif;text-anchor:middle"
     id="path182" /></g></svg>
