<?xml version="1.0" encoding="UTF-8" standalone="no"?>
<!-- Generator: Adobe Illustrator 23.0.1, SVG Export Plug-In . SVG Version: 6.00 Build 0) -->

<svg
   id="Layer_1"
   x="0px"
   y="0px"
   viewBox="0 0 398.30011 199.54062"
   xml:space="preserve"
   version="1.1"
   width="398.30011"
   height="199.54062"
   xmlns="http://www.w3.org/2000/svg"
   xmlns:svg="http://www.w3.org/2000/svg"><defs
   id="defs31" /> <style
   type="text/css"
   id="style1"> .st0{fill:#4C83C3;} </style> <g
   id="g31"
   transform="translate(9.6566519e-5,-42.099998)"> <polygon
   class="st0"
   points="336.1,42.1 398.3,42.1 398.3,53.5 332,53.5 "
   id="polygon1" /> <path
   class="st0"
   d="m 221.5,42.1 h 61.6 l 4,11.5 c 0,0 -65.6,0 -65.6,0 0.1,-0.1 0,-11.5 0,-11.5 z"
   id="path1" /> <path
   class="st0"
   d="m 172.7,42.1 c 10.1,1 19,4.6 26.5,11.5 0,0 -111.6,0 -111.6,0 0,0 0,-11.5 0,-11.5 z"
   id="path2" /> <g
   id="g3"> <rect
   x="0"
   y="42.099998"
   class="st0"
   width="77.5"
   height="11.4"
   id="rect2" /> <path
   class="st0"
   d="M 38.8,47.8"
   id="path3" /> </g> <path
   class="st0"
   d="m 398.3,75 h -73.9 c 0,0 4,-11.4 4,-11.4 h 69.9 z"
   id="path4" /> <polygon
   class="st0"
   points="221.5,63.6 290.7,63.6 294.8,75 221.5,75 "
   id="polygon4" /> <path
   class="st0"
   d="m 207.8,63.6 c 1.5,3.8 3.2,7 3.2,11.4 H 87.6 V 63.6 Z"
   id="path5" /> <g
   id="g6"> <rect
   x="0"
   y="63.599998"
   class="st0"
   width="77.5"
   height="11.4"
   id="rect5" /> <path
   class="st0"
   d="M 38.8,69.3"
   id="path6" /> </g> <polygon
   class="st0"
   points="376.4,85.1 376.4,96.5 316.8,96.5 320.9,85.1 "
   id="polygon6" /> <polygon
   class="st0"
   points="243.4,96.5 243.4,85.1 298.3,85.1 302.4,96.5 "
   id="polygon7" /> <path
   class="st0"
   d="m 212,85 c 0,3.9 -0.5,8 -1.6,11.4 H 176.6 V 85 Z"
   id="path7" /> <g
   id="g8"> <rect
   x="21.6"
   y="85.099998"
   class="st0"
   width="33.299999"
   height="11.4"
   id="rect7" /> <path
   class="st0"
   d="M 38.3,90.8"
   id="path8" /> </g> <g
   id="g9"> <rect
   x="110"
   y="85"
   class="st0"
   width="33.299999"
   height="11.4"
   id="rect8" /> <path
   class="st0"
   d="M 126.6,90.8"
   id="path9" /> </g> <path
   class="st0"
   d="m 276.1,108.8 c 0,0 0,8.7 0,8.7 h -32.8 v -11.4 h 62.4 l 3.9,10.6 c 0,0 3.7,-10.6 3.7,-10.6 h 62.9 v 11.4 h -32.6 c 0,0 0,-8.7 0,-8.7 l -3,8.7 H 279 Z"
   id="path10" /> <path
   class="st0"
   d="m 110,106.1 h 95.5 v 0 c -2.1,3.8 -5.9,8.4 -9.5,11.4 0,0 -86,0 -86,0 z"
   id="path11" /> <g
   id="g12"> <rect
   x="21.6"
   y="106.1"
   class="st0"
   width="33.299999"
   height="11.4"
   id="rect11" /> <path
   class="st0"
   d="M 38.3,111.8"
   id="path12" /> </g> <g
   id="g13"> <rect
   x="343.79999"
   y="127.6"
   class="st0"
   width="32.599998"
   height="11.4"
   id="rect12" /> <path
   class="st0"
   d="M 360.1,133.3"
   id="path13" /> </g> <path
   class="st0"
   d="M 276.1,127.6 H 243.3 V 139 c 0,0 32.8,0 32.8,0 0,-0.1 0.1,-11.4 0,-11.4 z"
   id="path14" /> <path
   class="st0"
   d="m 337.2,127.6 c -0.1,0 -3.8,11.4 -4,11.4 h -46.4 c 0,0 -4.1,-11.4 -4.1,-11.4 z"
   id="path15" /> <path
   class="st0"
   d="m 110,127.6 h 85.8 c 3.9,3.3 7.5,7.3 10.2,11.4 0.2,0 -96.1,0 -96.1,0 0.1,-0.1 0.1,-11.4 0.1,-11.4 z"
   id="path16" /> <path
   class="st0"
   d="M 54.9,138.9 V 127.5 H 21.7 c 0,0 0,11.4 0,11.4 z"
   id="path17" /> <g
   id="g18"> <rect
   x="343.79999"
   y="149"
   class="st0"
   width="32.599998"
   height="11.4"
   id="rect17" /> <path
   class="st0"
   d="M 360.1,154.7"
   id="path18" /> </g> <g
   id="g19"> <rect
   x="243.39999"
   y="149"
   class="st0"
   width="32.799999"
   height="11.4"
   id="rect18" /> <path
   class="st0"
   d="M 259.8,154.7"
   id="path19" /> </g> <path
   class="st0"
   d="m 325.6,160.4 c 0,-0.1 4,-11.4 4.1,-11.4 h -39.5 c -0.1,0 4,11.4 4,11.4 0,0 31.4,0.1 31.4,0 z"
   id="path20" /> <path
   class="st0"
   d="m 110,160.4 c 0,0 0,-11.4 0,-11.4 h 33.8 c 0,0 0,11.4 0,11.4 -0.1,0 -33.8,0 -33.8,0 z"
   id="path21" /> <path
   class="st0"
   d="m 210.8,149 c 1.6,3.4 1.8,7.5 2.1,11.4 H 177.1 V 149 Z"
   id="path22" /> <g
   id="g23"> <rect
   x="21.700001"
   y="149"
   class="st0"
   width="33.299999"
   height="11.4"
   id="rect22" /> <path
   class="st0"
   d="M 38.3,154.7"
   id="path23" /> </g> <g
   id="g24"> <rect
   x="343.79999"
   y="170"
   class="st0"
   width="54.5"
   height="11.4"
   id="rect23" /> <path
   class="st0"
   d="M 371,175.7"
   id="path24" /> </g> <g
   id="g25"> <rect
   x="221.5"
   y="170"
   class="st0"
   width="54.599998"
   height="11.4"
   id="rect24" /> <path
   class="st0"
   d="M 248.8,175.7"
   id="path25" /> </g> <polygon
   class="st0"
   points="297.6,170 322.1,170 318.2,181.4 301.6,181.4 "
   id="polygon25" /> <path
   class="st0"
   d="m 0,170 v 11.4 h 77.5 c 0,0 0,-11.4 0,-11.4 0,0 -77.6,0 -77.5,0 z"
   id="path26" /> <path
   class="st0"
   d="m 211.5,170 c -0.8,3.8 -1.6,8.3 -4.3,11.4 h -1 H 87.6 V 170 Z"
   id="path27" /> <polygon
   class="st0"
   points="305.3,191.5 314.7,191.5 310.7,202.9 309.2,202.9 "
   id="polygon27" /> <g
   id="g28"> <rect
   x="343.79999"
   y="191.5"
   class="st0"
   width="54.5"
   height="11.4"
   id="rect27" /> <path
   class="st0"
   d="M 371,197.2"
   id="path28" /> </g> <path
   class="st0"
   d="m 87.6,202.9 v -11.4 c 0,0 111.9,0 112.2,0 -7.5,7.2 -17.8,11.2 -28.9,11.4 H 87.6"
   id="path29" /> <g
   id="g30"> <rect
   x="221.5"
   y="191.5"
   class="st0"
   width="54.599998"
   height="11.4"
   id="rect29" /> <path
   class="st0"
   d="M 248.8,197.2"
   id="path30" /> </g> <path
   class="st0"
   d="m 77.5,191.5 c 0,0 0,11.4 0,11.4 0,0 -77.4,0 -77.5,0 0,0 0,-11.4 0,-11.4 0,0 77.4,0.1 77.5,0 z"
   id="path31" /> </g> <path
   d="m 138.8204,197.89999 h -4.59375 v -1.1875 h 1.52344 v -9.25781 h -1.52344 v -1.1875 h 4.59375 v 1.1875 h -1.52343 v 9.25781 h 1.52343 z m 11.40625,-3.57812 q 0,0.86719 -0.32812,1.53125 -0.32813,0.66406 -0.88281,1.09375 -0.65625,0.51562 -1.44532,0.73437 -0.78125,0.21875 -1.99218,0.21875 h -4.125 v -11.63281 h 3.44531 q 1.27344,0 1.90625,0.0937 0.63281,0.0937 1.21094,0.39063 0.64062,0.33593 0.92968,0.86718 0.28907,0.52344 0.28907,1.25782 0,0.82812 -0.42188,1.41406 -0.42187,0.57812 -1.125,0.92969 v 0.0625 q 1.17969,0.24218 1.85938,1.03906 0.67968,0.78906 0.67968,2 z m -2.60156,-5.24219 q 0,-0.42187 -0.14062,-0.71094 -0.14063,-0.28906 -0.45313,-0.46875 -0.36719,-0.21093 -0.89062,-0.25781 -0.52344,-0.0547 -1.29688,-0.0547 h -1.84375 v 3.35938 h 2 q 0.72656,0 1.15625,-0.0703 0.42969,-0.0781 0.79688,-0.3125 0.36718,-0.23438 0.51562,-0.60157 0.15625,-0.375 0.15625,-0.88281 z m 0.99219,5.30469 q 0,-0.70313 -0.21094,-1.11719 -0.21094,-0.41406 -0.76562,-0.70312 -0.375,-0.19532 -0.91407,-0.25 -0.53125,-0.0625 -1.29687,-0.0625 h -2.42969 v 4.32812 h 2.04688 q 1.01562,0 1.66406,-0.10156 0.64844,-0.10938 1.0625,-0.39063 0.4375,-0.30468 0.64062,-0.69531 0.20313,-0.39062 0.20313,-1.00781 z m 14.16406,3.51562 h -1.54687 v -10.02343 l -3.23438,6.82031 h -0.92187 l -3.21094,-6.82031 v 10.02343 h -1.44531 v -11.63281 h 2.10937 l 3.10156,6.47656 3,-6.47656 h 2.14844 z m 16.32031,-5.11718 q 0,2.79687 -1.98437,4.78125 -1.97656,1.97656 -4.77344,1.97656 -2.79687,0 -4.78125,-1.97656 -1.97656,-1.98438 -1.97656,-4.78125 0,-2.79688 1.97656,-4.77344 1.98438,-1.98438 4.78125,-1.98438 2.79688,0 4.77344,1.98438 1.98437,1.97656 1.98437,4.77344 z m -0.90625,0 q 0,-2.42188 -1.71875,-4.15625 -1.71093,-1.73438 -4.13281,-1.73438 -2.42187,0 -4.14062,1.73438 -1.71094,1.73437 -1.71094,4.15625 0,2.42187 1.71094,4.15625 1.71875,1.73437 4.14062,1.73437 2.42188,0 4.13281,-1.73437 1.71875,-1.73438 1.71875,-4.15625 z m -1.5,3.4375 h -1.74218 l -2.58594,-2.77344 h -1.26563 v 2.77344 h -1.28906 v -7.14844 h 2.4375 q 0.73438,0 1.21094,0.0625 0.47656,0.0625 0.9375,0.30469 0.49219,0.26562 0.71875,0.64843 0.23437,0.375 0.23437,0.94532 0,0.75781 -0.44531,1.26562 -0.4375,0.5 -1.21094,0.79688 z m -2.75,-5.10157 q 0,-0.28125 -0.10937,-0.5 -0.10938,-0.21875 -0.36719,-0.35937 -0.24219,-0.13281 -0.51562,-0.17188 -0.27344,-0.0391 -0.6875,-0.0391 h -1.16407 v 2.41406 h 0.99219 q 0.48438,0 0.83594,-0.0703 0.35156,-0.0781 0.57812,-0.25781 0.24219,-0.19531 0.33594,-0.42969 0.10156,-0.23437 0.10156,-0.58594 z m 22.08594,6.78125 h -9.07812 v -1.4375 l 7.13281,-8.82031 h -6.86719 v -1.375 h 8.64063 v 1.39844 l -7.20313,8.85937 h 7.375 z m 16.96094,0 h -1.91406 l -5.51563,-10.40625 v 10.40625 h -1.44531 v -11.63281 h 2.39844 l 5.03125,9.5 v -9.5 h 1.44531 z m 10.28125,-4.21093 h -6.42969 q 0,0.80468 0.24219,1.40625 0.24219,0.59375 0.66406,0.97656 0.40625,0.375 0.96094,0.5625 0.5625,0.1875 1.23437,0.1875 0.89063,0 1.78907,-0.35156 0.90625,-0.35938 1.28906,-0.70313 h 0.0781 v 1.60156 q -0.74218,0.3125 -1.51562,0.52344 -0.77344,0.21094 -1.625,0.21094 -2.17188,0 -3.39063,-1.17188 -1.21875,-1.17968 -1.21875,-3.34375 0,-2.14062 1.16407,-3.39843 1.17187,-1.25782 3.07812,-1.25782 1.76563,0 2.71875,1.03125 0.96094,1.03125 0.96094,2.92969 z m -1.42969,-1.125 q -0.008,-1.15625 -0.58594,-1.78907 -0.57031,-0.63281 -1.74218,-0.63281 -1.17969,0 -1.88282,0.69531 -0.69531,0.69532 -0.78906,1.72657 z m 8.1875,5.25781 q -0.41406,0.10937 -0.90625,0.17969 -0.48437,0.0703 -0.86719,0.0703 -1.33593,0 -2.03125,-0.71875 -0.69531,-0.71875 -0.69531,-2.30469 v -4.64062 h -0.99219 v -1.23438 h 0.99219 v -2.50781 h 1.46875 v 2.50781 h 3.03125 v 1.23438 h -3.03125 v 3.97656 q 0,0.6875 0.0312,1.07812 0.0312,0.38282 0.21875,0.71875 0.17188,0.3125 0.46875,0.46094 0.30469,0.14063 0.92188,0.14063 0.35937,0 0.75,-0.10157 0.39062,-0.10937 0.5625,-0.17968 h 0.0781 z m 9.32031,-8.64844 -3.53125,8.72656 h -1.47656 l -3.50781,-8.72656 h 1.59375 l 2.70312,6.94531 2.67969,-6.94531 z m 3.5,-1.46094 h -1.65625 v -1.52343 h 1.65625 z m -0.0937,10.1875 h -1.46875 v -8.72656 h 1.46875 z m 10.21094,-4.21093 h -6.42969 q 0,0.80468 0.24219,1.40625 0.24219,0.59375 0.66406,0.97656 0.40625,0.375 0.96094,0.5625 0.5625,0.1875 1.23438,0.1875 0.89062,0 1.78906,-0.35156 0.90625,-0.35938 1.28906,-0.70313 h 0.0781 v 1.60156 q -0.74219,0.3125 -1.51563,0.52344 -0.77344,0.21094 -1.625,0.21094 -2.17187,0 -3.39062,-1.17188 -1.21875,-1.17968 -1.21875,-3.34375 0,-2.14062 1.16406,-3.39843 1.17187,-1.25782 3.07812,-1.25782 1.76563,0 2.71875,1.03125 0.96094,1.03125 0.96094,2.92969 z m -1.42969,-1.125 q -0.008,-1.15625 -0.58593,-1.78907 -0.57032,-0.63281 -1.74219,-0.63281 -1.17969,0 -1.88281,0.69531 -0.69532,0.69532 -0.78907,1.72657 z m 14.63282,-3.39063 -2.27344,8.72656 h -1.35938 l -2.24218,-6.72656 -2.22657,6.72656 h -1.35156 l -2.29687,-8.72656 h 1.53125 l 1.60156,6.75781 2.17969,-6.75781 h 1.21093 l 2.23438,6.75781 1.51562,-6.75781 z"
   id="text31"
   style="font-size:16px;text-anchor:middle"
   aria-label="IBM® Z Netview" /></svg>
