<?xml version="1.0" encoding="UTF-8" standalone="no"?>
<svg
   xmlns:dc="http://purl.org/dc/elements/1.1/"
   xmlns:cc="http://creativecommons.org/ns#"
   xmlns:rdf="http://www.w3.org/1999/02/22-rdf-syntax-ns#"
   xmlns:svg="http://www.w3.org/2000/svg"
   xmlns="http://www.w3.org/2000/svg"
   xmlns:sodipodi="http://sodipodi.sourceforge.net/DTD/sodipodi-0.dtd"
   xmlns:inkscape="http://www.inkscape.org/namespaces/inkscape"
   inkscape:version="1.0beta2 (2b71d25, 2019-12-03)"
   height="304.5726"
   width="718.30841"
   sodipodi:docname="omp_ibm-mq-for-cli.svg"
   version="1.1"
   viewBox="0 0 718.30841 304.57261"
   data-name="Layer 1"
   id="Layer_1">
  <metadata
     id="metadata3617">
    <rdf:RDF>
      <cc:Work
         rdf:about="">
        <dc:format>image/svg+xml</dc:format>
        <dc:type
           rdf:resource="http://purl.org/dc/dcmitype/StillImage" />
        <dc:title>zowe-logo-color</dc:title>
      </cc:Work>
    </rdf:RDF>
  </metadata>
  <sodipodi:namedview
     inkscape:current-layer="Layer_1"
     inkscape:window-maximized="0"
     inkscape:window-y="116"
     inkscape:window-x="701"
     inkscape:cy="121.15287"
     inkscape:cx="366.8"
     inkscape:zoom="0.61237374"
     showgrid="false"
     id="namedview3615"
     inkscape:window-height="853"
     inkscape:window-width="864"
     inkscape:pageshadow="2"
     inkscape:pageopacity="0"
     guidetolerance="10"
     gridtolerance="10"
     objecttolerance="10"
     borderopacity="1"
     inkscape:document-rotation="0"
     bordercolor="#666666"
     pagecolor="#ffffff" />
  <defs
     id="defs3552">
    <style
       id="style3550">.cls-1{fill:#0033a1;}.cls-2{fill:#2a7de1;}</style>
  </defs>
  <title
     id="title3554">zowe-logo-color</title>
  <polygon
     transform="translate(-29.2,-55.777)"
     id="polygon3556"
     points="29.202,156.633 81.719,155.81 153.203,105.713 168.197,136.32 181.956,55.782 "
     class="cls-1" />
  <polygon
     transform="translate(-29.2,-55.777)"
     id="polygon3558"
     points="181.954,55.777 271.51,191.418 164.529,154.712 "
     class="cls-2" />
  <polyline
     transform="translate(-29.2,-55.777)"
     id="polyline3560"
     points="131.223 229.511 139.675 241.691 216.405 187.184 203.42 168.057 159.152 198.91 164.527 154.716 271.508 191.416 125.787 294.202"
     class="cls-1" />
  <polygon
     transform="translate(-29.2,-55.777)"
     id="polygon3562"
     points="94.075,176.677 143.275,143.238 125.788,293.012 29.2,156.634 81.723,155.811 "
     class="cls-2" />
  <path
     inkscape:connector-curvature="0"
     id="path3564"
     d="m 587.23191,35.4428 h 5.29468 a 6.88644,6.88644 0 0 1 4.63135,1.36974 4.52388,4.52388 0 0 1 1.62157,3.71612 4.67514,4.67514 0 0 1 -1.62157,3.753 7.14731,7.14731 0 0 1 -4.79105,1.382 h -3.65465 V 54.656 h -1.48033 z m 1.48033,1.23459 v 7.69637 h 3.56251 a 5.57788,5.57788 0 0 0 3.6547,-1.01963 3.84745,3.84745 0 0 0 0.27639,-5.436 0.34852,0.34852 0 0 1 -0.043,-0.04916 l -0.1904,-0.20882 a 5.3287,5.3287 0 0 0 -3.50731,-1.038 z"
     class="cls-2" />
  <path
     inkscape:connector-curvature="0"
     id="path3566"
     d="m 603.86285,35.4428 h 4.90774 a 7.28588,7.28588 0 0 1 4.73571,1.35132 4.43482,4.43482 0 0 1 1.63385,3.61781 4.77216,4.77216 0 0 1 -3.65465,4.6559 8.891,8.891 0 0 1 2.56135,2.94829 l 4.34877,6.63987 h -1.77514 l -3.3476,-5.23325 a 12.51111,12.51111 0 0 0 -2.59819,-3.29231 4.8449,4.8449 0 0 0 -2.73333,-0.65719 h -2.65348 v 9.21963 h -1.48028 z m 1.48033,1.23459 v 7.52438 h 3.17557 a 6.18842,6.18842 0 0 0 3.73454,-0.98279 3.61961,3.61961 0 0 0 0.42378,-5.09814 l -0.44224,-0.44224 a 6.15319,6.15319 0 0 0 -3.753,-1.00121 z"
     class="cls-2" />
  <path
     inkscape:connector-curvature="0"
     id="path3568"
     d="m 631.17162,35.19832 a 10.00767,10.00767 0 0 1 7.21716,2.8623 9.627,9.627 0 0 1 0.344,13.61141 c -0.0368,0.0368 -0.0737,0.0737 -0.1105,0.11669 l -0.23347,0.2457 a 10.49871,10.49871 0 0 1 -14.416,0 9.74545,9.74545 0 0 1 -0.20263,-13.77108 l 0.0123,-0.0061 0.19035,-0.19658 a 9.95061,9.95061 0 0 1 7.19888,-2.8623 m 0,18.32252 a 8.24138,8.24138 0 0 0 6.06247,-2.44461 8.5868,8.5868 0 0 0 0,-12.05123 8.71124,8.71124 0 0 0 -12.1434,0 8.50806,8.50806 0 0 0 0,12.03281 8.30684,8.30684 0 0 0 6.08093,2.44461"
     class="cls-2" />
  <path
     inkscape:connector-curvature="0"
     id="path3570"
     d="m 648.82228,35.44463 v 19.25006 a 6.22857,6.22857 0 0 1 -1.19161,4.34877 3.8501,3.8501 0 0 1 -2.8317,1.21617 q -0.44214,0.0184 -0.88448,0 l -0.13515,-1.38815 a 4.62122,4.62122 0 0 0 0.86611,0.0983 c 1.812,0 2.69645,-1.27147 2.69645,-3.85123 V 35.44463 Z"
     class="cls-2" />
  <polygon
     transform="translate(-29.2,-55.777)"
     id="polygon3572"
     points="686.071,92.456 686.071,100.134 694.824,100.134 694.824,101.387 686.071,101.387 686.071,109.182 695.266,109.182 695.266,110.429 684.585,110.429 684.585,91.222 695.057,91.222 695.057,92.456 "
     class="cls-2" />
  <path
     inkscape:connector-curvature="0"
     id="path3574"
     d="m 687.39486,36.81249 v 1.61543 A 14.69811,14.69811 0 0 0 680.54,36.5054 a 8.0693,8.0693 0 0 0 -5.96416,2.44466 8.24453,8.24453 0 0 0 -2.40784,6.08094 8.14392,8.14392 0 0 0 2.40778,6.11777 8.47367,8.47367 0 0 0 6.17916,2.3709 14.50977,14.50977 0 0 0 6.83027,-1.92252 v 1.53558 a 14.27085,14.27085 0 0 1 -6.79343,1.79356 10.06857,10.06857 0 0 1 -7.31548,-2.81319 9.83525,9.83525 0 0 1 -0.006,-13.90622 0.006,0.006 0 0 0 0.006,-0.0061 0.7022,0.7022 0 0 0 0.13515,-0.13515 10.02036,10.02036 0 0 1 7.10666,-2.83161 16.137,16.137 0 0 1 6.7565,1.61544"
     class="cls-2" />
  <polygon
     transform="translate(-29.2,-55.777)"
     id="polygon3576"
     points="728.51,92.456 728.51,110.429 727.005,110.429 727.005,92.456 719.788,92.456 719.788,91.222 735.709,91.222 735.709,92.456 "
     class="cls-2" />
  <polygon
     transform="translate(-29.2,-55.777)"
     id="polygon3578"
     points="410.365,99.444 404.592,106.582 404.076,106.582 398.277,99.444 398.277,111.778 392.043,111.778 392.043,90.495 397.86,90.495 404.401,98.48 410.961,90.495 416.797,90.495 416.797,111.778 410.365,111.778 "
     class="cls-2" />
  <path
     inkscape:connector-curvature="0"
     id="path3580"
     d="m 416.33272,56.00365 h -6.56614 l -1.75054,-4.31193 H 398.778 l -1.769,4.31193 h -6.56615 L 399.859,34.71433 h 7.18037 z m -9.77855,-8.02806 -3.12032,-7.69633 -3.151,7.69633 z"
     class="cls-2" />
  <rect
     id="rect3582"
     height="21.28314"
     width="6.4064398"
     y="34.71859"
     x="419.18277"
     class="cls-2" />
  <polygon
     transform="translate(-29.2,-55.777)"
     id="polygon3584"
     points="466.532,99.923 466.532,111.778 460.181,111.778 460.181,90.495 465.875,90.495 476.882,102.288 476.882,90.495 483.276,90.495 483.276,111.778 477.576,111.778 "
     class="cls-2" />
  <polygon
     transform="translate(-29.2,-55.777)"
     id="polygon3586"
     points="495.039,111.779 488.626,111.779 488.626,90.49 503.871,90.49 503.871,94.765 495.039,94.765 495.039,98.887 503.871,98.887 503.871,103.156 495.039,103.156 "
     class="cls-2" />
  <path
     inkscape:connector-curvature="0"
     id="path3588"
     d="m 499.595,56.00112 h -6.8917 l -1.67074,-3.84509 a 16.48553,16.48553 0 0 0 -1.6584,-3.02815 3.5709,3.5709 0 0 0 -1.43731,-1.22849 5.21472,5.21472 0 0 0 -1.812,-0.27026 h -0.71254 v 8.31674 h -6.431 V 34.718 h 10.91499 a 7.868,7.868 0 0 1 4.33035,1.07488 6.46344,6.46344 0 0 1 2.44461,2.59823 6.72627,6.72627 0 0 1 0.731,2.92373 5.4132,5.4132 0 0 1 -0.61422,2.73334 4.99247,4.99247 0 0 1 -1.30835,1.61543 14.60055,14.60055 0 0 1 -1.56014,0.96433 5.90891,5.90891 0 0 1 1.69529,1.425 16.98237,16.98237 0 0 1 1.88569,3.2923 z m -8.716,-14.56961 a 2.15338,2.15338 0 0 0 -0.98279,-2.03921 6.28282,6.28282 0 0 0 -3.13874,-0.5958 h -1.34518 v 5.14111 h 1.36974 a 7.19359,7.19359 0 0 0 3.23087,-0.52209 2.149,2.149 0 0 0 0.8661,-1.92257"
     class="cls-2" />
  <path
     inkscape:connector-curvature="0"
     id="path3590"
     d="m 525.87192,56.00365 h -6.56615 l -1.73212,-4.31193 h -9.238 l -1.769,4.31193 H 499.982 l 9.41,-21.28932 h 7.10052 z m -9.77856,-8.02806 -3.12036,-7.69633 -3.13874,7.69633 z"
     class="cls-2" />
  <polygon
     transform="translate(-29.2,-55.777)"
     id="polygon3592"
     points="576.245,99.444 570.446,106.582 569.949,106.582 564.132,99.444 564.132,111.778 557.897,111.778 557.897,90.495 563.733,90.495 570.256,98.48 576.84,90.495 582.651,90.495 582.651,111.778 576.245,111.778 "
     class="cls-2" />
  <polygon
     transform="translate(-29.2,-55.777)"
     id="polygon3594"
     points="588.024,90.495 603.804,90.495 603.804,94.764 594.449,94.764 594.449,98.652 603.38,98.652 603.38,102.945 594.449,102.945 594.449,107.485 604.074,107.485 604.074,111.778 588.024,111.778 "
     class="cls-2" />
  <path
     inkscape:connector-curvature="0"
     id="path3596"
     d="m 283.15852,35.42865 a 11.03124,11.03124 0 0 1 8.06485,3.194 10.85708,10.85708 0 0 1 0.31941,15.34967 0.18792,0.18792 0 0 0 -0.0492,0.0492 l -0.27025,0.26412 a 11.73656,11.73656 0 0 1 -16.09291,0 10.89088,10.89088 0 0 1 -0.20882,-15.39265 l 0.20882,-0.215 a 11.08033,11.08033 0 0 1 8.02806,-3.194 m 0,20.46 a 9.21918,9.21918 0 0 0 6.775,-2.73333 9.62184,9.62184 0 0 0 0,-13.47008 9.78988,9.78988 0 0 0 -13.5684,0 9.50155,9.50155 0 0 0 -0.0246,13.44552 l 0.0246,0.0246 a 9.2606,9.2606 0 0 0 6.79343,2.73333"
     class="cls-2" />
  <path
     inkscape:connector-curvature="0"
     id="path3598"
     d="m 298.57146,35.694 h 5.915 a 7.96062,7.96062 0 0 1 5.19642,1.52331 5.61267,5.61267 0 0 1 -0.11669,8.35356 8.05225,8.05225 0 0 1 -5.33156,1.56014 h -4.10303 v 9.98742 h -1.65227 z m 1.65845,1.38815 v 8.66071 h 4.00476 a 6.42467,6.42467 0 0 0 4.07851,-1.13632 4.34636,4.34636 0 0 0 0.23342,-6.13619 0.89411,0.89411 0 0 0 -0.215,-0.215 5.7378,5.7378 0 0 0 -3.8451,-1.1732 z"
     class="cls-2" />
  <polygon
     transform="translate(-29.2,-55.777)"
     id="polygon3600"
     points="345.519,92.862 345.519,101.443 355.304,101.443 355.304,102.831 345.519,102.831 345.519,111.547 355.82,111.547 355.82,112.935 343.867,112.935 343.867,91.474 355.568,91.474 355.568,92.862 "
     class="cls-2" />
  <polygon
     transform="translate(-29.2,-55.777)"
     id="polygon3602"
     points="377.181,112.935 360.885,94.164 360.885,112.935 359.227,112.935 359.227,91.474 360.634,91.474 376.892,110.22 376.892,91.474 378.551,91.474 378.551,112.935 "
     class="cls-2" />
  <path
     inkscape:connector-curvature="0"
     id="path3604"
     d="m 269.81527,175.16729 64.79151,-75.394 h -62.772 V 77.0545 h 96.09326 V 96.744 l -64.79151,75.394 h 64.79151 v 22.71875 h -98.1128 z"
     class="cls-1" />
  <path
     inkscape:connector-curvature="0"
     id="path3606"
     d="m 381.22348,150.26007 v -0.33692 c 0,-25.916 20.86816,-46.95215 48.97265,-46.95215 27.93555,0 48.63477,20.69922 48.63477,46.61622 v 0.33593 c 0,25.917 -20.86719,46.95313 -48.97168,46.95313 -27.93652,0 -48.63574,-20.69922 -48.63574,-46.61621 z m 72.36425,0 v -0.33692 c 0,-13.29443 -9.59277,-24.90625 -23.72851,-24.90625 -14.6416,0 -23.39258,11.27539 -23.39258,24.57032 v 0.33593 c 0,13.29492 9.59277,24.90723 23.72949,24.90723 14.64063,0 23.3916,-11.27538 23.3916,-24.57031 z"
     class="cls-1" />
  <path
     inkscape:connector-curvature="0"
     id="path3608"
     d="m 485.89926,104.65362 h 25.917 L 526.28891,159.348 543.286,104.3172 h 22.0459 l 17.165,55.19873 14.80957,-54.86231 h 25.41211 l -28.10449,90.876 h -23.05565 l -17.334,-55.3667 -17.66992,55.3667 h -22.88768 z"
     class="cls-1" />
  <path
     inkscape:connector-curvature="0"
     id="path3610"
     d="m 629.78793,150.26007 v -0.33692 c 0,-25.748 18.34375,-46.95215 44.59668,-46.95215 30.124,0 43.92383,23.39209 43.92383,48.97168 0,2.01954 -0.16895,4.376 -0.33692,6.73145 H 655.2 c 2.52344,11.6123 10.60156,17.6709 22.0459,17.6709 8.582,0 14.80859,-2.69238 21.877,-9.25586 l 14.6416,12.958 c -8.415,10.43359 -20.53125,16.8291 -36.85547,16.8291 -27.09473,1e-5 -47.1211,-19.01659 -47.1211,-46.6162 z m 63.61328,-7.57276 c -1.51465,-11.44384 -8.24609,-19.18506 -19.0166,-19.18506 -10.60254,0 -17.50195,7.57276 -19.52148,19.18506 z"
     class="cls-1" />
  <polygon
     transform="translate(-29.2,-55.777)"
     id="polygon3612"
     points="143.275,143.239 94.075,176.677 137.471,193.298 "
     class="cls-1" />
  <g
     style="font-style:normal;font-weight:normal;font-size:37.3333px;line-height:1.25;font-family:sans-serif;fill:#000000;fill-opacity:1;stroke:none"
     id="text4260"
     aria-label="IBM MQ for z/OS Plug-in for Zowe CLI">
    <path
       d="m 182.82617,263.07812 c -2.29687,0 -3.97395,0.52322 -5.03125,1.56836 -1.05728,1.03298 -1.58594,2.68642 -1.58594,4.95899 v 1.42187 h -3.20703 v 2.60547 h 3.20703 v 17.81055 h 3.37305 v -17.81055 h 5.52344 v -2.60547 h -5.52344 v -1.80468 c 0,-1.26389 0.23155,-2.1389 0.69336,-2.625 0.47395,-0.48612 1.3125,-0.73047 2.51563,-0.73047 h 3.20703 v -2.78907 z m 175.78516,0 v 28.36524 h 3.35351 v -28.36524 z m 71.23828,0 v 4.24805 h 3.35351 v -4.24805 z m 53.10156,0 c -2.29687,10e-6 -3.97395,0.52322 -5.03125,1.56836 -1.05728,1.03298 -1.58594,2.68642 -1.58594,4.95899 v 1.42187 H 473.125 v 2.60547 h 3.20898 v 17.81055 h 3.37305 v -17.81055 h 5.52344 v -2.60547 h -5.52344 v -1.80468 c 0,-1.26389 0.2296,-2.1389 0.69141,-2.625 0.47396,-0.48612 1.3125,-0.73047 2.51562,-0.73047 h 3.20899 v -2.78907 z m -337.36719,0.65626 c -3.82812,-10e-6 -6.89062,1.28342 -9.1875,3.84765 -2.28472,2.55208 -3.42578,5.97917 -3.42578,10.28125 0,4.28993 1.14106,7.71702 3.42578,10.28125 2.29688,2.55208 5.35938,3.82813 9.1875,3.82813 0.19445,0 0.39497,-0.007 0.60157,-0.0195 0.21874,-0.0121 0.52864,-0.0303 0.92968,-0.0547 l 4.0293,4.35742 h 4.44727 l -4.84766,-5.30469 c 2.40625,-1.06944 4.24002,-2.72829 5.50391,-4.97656 1.27604,-2.24826 1.91406,-4.95161 1.91406,-8.11133 0,-4.30208 -1.14106,-7.72917 -3.42578,-10.28125 -2.28472,-2.56423 -5.33637,-3.84766 -9.15235,-3.84765 z m 136.71875,0 c -3.82812,0 -6.89062,1.28342 -9.1875,3.84765 -2.28472,2.55208 -3.42578,5.97917 -3.42578,10.28125 0,4.30208 1.14106,7.72917 3.42578,10.28125 2.29688,2.55208 5.35938,3.82813 9.1875,3.82813 3.81597,0 6.86762,-1.27605 9.15235,-3.82813 2.28472,-2.56423 3.42578,-5.99132 3.42578,-10.28125 0,-4.30208 -1.14106,-7.72917 -3.42578,-10.28125 -2.28473,-2.56423 -5.33638,-3.84765 -9.15235,-3.84765 z m 26.6875,0 c -2.97742,0 -5.31619,0.69271 -7.01757,2.07812 -1.68924,1.38542 -2.53321,3.28125 -2.53321,5.6875 0,2.07812 0.61242,3.70052 1.83985,4.86719 1.22743,1.16666 3.21441,2.02344 5.96093,2.57031 l 2.24219,0.4375 c 1.87153,0.37673 3.21507,0.94184 4.0293,1.69531 0.82639,0.75348 1.24023,1.79991 1.24023,3.13672 0,1.53125 -0.57248,2.70877 -1.71484,3.53516 -1.14237,0.82638 -2.76476,1.24023 -4.86719,1.24023 -1.38541,0 -2.79449,-0.21332 -4.22851,-0.63867 -1.43403,-0.42535 -2.89779,-1.05599 -4.39258,-1.89453 v 3.79101 c 1.55555,0.57118 3.05577,1.00326 4.50195,1.29493 1.45833,0.29166 2.83095,0.4375 4.11914,0.4375 3.41493,0 6.00347,-0.68187 7.76563,-2.04297 1.7743,-1.36112 2.66211,-3.35895 2.66211,-5.9961 0,-2.2118 -0.65625,-3.97461 -1.96875,-5.28711 -1.30035,-1.32464 -3.32379,-2.24891 -6.07032,-2.77148 l -2.22461,-0.45508 c -2.01735,-0.37673 -3.38997,-0.86892 -4.11914,-1.47656 -0.71701,-0.61979 -1.07617,-1.53125 -1.07617,-2.73438 0,-1.43402 0.54146,-2.54058 1.62305,-3.31836 1.09375,-0.77777 2.64323,-1.16601 4.64844,-1.16601 1.15451,0 2.35221,0.16406 3.59179,0.49219 1.23958,0.32812 2.55751,0.82573 3.95508,1.49414 v -3.58985 c -1.38541,-0.4618 -2.7398,-0.80815 -4.06445,-1.03906 -1.32466,-0.2309 -2.62631,-0.34766 -3.90235,-0.34765 z m 355.70508,0 c -4.11978,0 -7.36459,1.26519 -9.73437,3.79296 -2.3698,2.51563 -3.55469,5.96095 -3.55469,10.33594 0,4.36285 1.18489,7.80817 3.55469,10.33594 2.36978,2.51562 5.61459,3.77344 9.73437,3.77344 1.60417,0 3.12457,-0.21875 4.5586,-0.65625 1.44618,-0.4375 2.81337,-1.09376 4.10156,-1.96875 V 285.5 c -1.23958,1.15451 -2.56489,2.01866 -3.97461,2.58984 -1.39757,0.57118 -2.88694,0.85547 -4.4668,0.85547 -3.1111,0 -5.49176,-0.94792 -7.14453,-2.84375 -1.65278,-1.90798 -2.48047,-4.65321 -2.48047,-8.23828 0,-3.59722 0.82769,-6.3444 2.48047,-8.24023 1.65277,-1.90798 4.03343,-2.86133 7.14453,-2.86133 1.57986,0 3.06923,0.28429 4.4668,0.85547 1.40972,0.57118 2.73503,1.43533 3.97461,2.58984 v -3.88281 c -1.26389,-0.86285 -2.62023,-1.50825 -4.06641,-1.9336 -1.43402,-0.4375 -2.96527,-0.65624 -4.59375,-0.65624 z m -643.105466,0.49218 v 27.2168 h 3.68164 v -27.2168 z m 11.009765,0 v 27.2168 h 9.771485 c 3.050344,0 5.401911,-0.66168 7.054687,-1.98633 1.652777,-1.32465 2.478516,-3.20226 2.478516,-5.63281 0,-1.84722 -0.503039,-3.38586 -1.511719,-4.61328 -0.996527,-1.23959 -2.400175,-2.05252 -4.210937,-2.44141 1.506943,-0.24305 2.648004,-0.85742 3.425781,-1.8418 0.777777,-0.98437 1.167969,-2.30967 1.167969,-3.97461 0,-2.15103 -0.760201,-3.80989 -2.279297,-4.97656 -1.519096,-1.16666 -3.682945,-1.75 -6.490235,-1.75 z m 25.59375,0 v 27.2168 h 3.574219 v -23.89844 l 7.017578,18.66602 h 3.701172 l 7.017578,-18.66602 v 23.89844 h 3.591797 v -27.2168 h -5.488281 l -6.980469,18.52149 -6.945312,-18.52149 z m 44.115231,0 v 27.2168 h 3.57227 v -23.89844 l 7.01953,18.66602 h 3.69922 l 7.01953,-18.66602 v 23.89844 h 3.58984 v -27.2168 h -5.48632 l -6.98243,18.52149 -6.94531,-18.52149 z m 162.14844,0 -9.47851,30.67969 h 3.09765 l 9.48047,-30.67969 z m 71.76758,0 v 27.2168 h 3.68359 v -10.9375 h 4.62891 c 3.05034,0 5.3546,-0.68728 6.91016,-2.06055 1.5677,-1.37326 2.35156,-3.40213 2.35156,-6.08789 0,-2.66146 -0.78386,-4.67947 -2.35156,-6.05273 -1.55556,-1.38542 -3.85982,-2.07813 -6.91016,-2.07813 z m 201.35937,0 v 3.09961 h 16.78907 l -17.20899,21.31055 v 2.80664 h 22.22266 v -3.09961 h -17.62891 l 17.20899,-21.30859 v -2.8086 z m 141.49414,0 v 27.2168 h 16.93555 v -3.09961 h -13.25195 v -24.11719 z m 20.78126,0 v 27.2168 h 3.68359 v -27.2168 z m -554.2754,2.49805 c 2.67362,0 4.7882,0.99718 6.34375,2.99023 1.56771,1.99306 2.35157,4.70921 2.35157,8.14844 0,3.42708 -0.78386,6.13585 -2.35157,8.12891 -1.55555,1.99305 -3.67013,2.99023 -6.34375,2.99023 -2.6736,0 -4.79904,-0.99718 -6.3789,-2.99023 -1.56771,-1.99306 -2.35156,-4.70183 -2.35156,-8.12891 0,-3.43923 0.78385,-6.15538 2.35156,-8.14844 1.57986,-1.99305 3.7053,-2.99023 6.3789,-2.99023 z m 136.71875,0 c 2.67361,0 4.78819,0.99718 6.34375,2.99023 1.56771,1.99306 2.35157,4.70921 2.35157,8.14844 0,3.42708 -0.78386,6.13585 -2.35157,8.12891 -1.55556,1.99305 -3.67014,2.99023 -6.34375,2.99023 -2.6736,0 -4.79904,-0.99718 -6.3789,-2.99023 -1.56771,-1.99306 -2.35156,-4.70183 -2.35156,-8.12891 0,-3.43923 0.78385,-6.15538 2.35156,-8.14844 1.57986,-1.99305 3.7053,-2.99023 6.3789,-2.99023 z m -246.019527,0.5293 h 5.449219 c 1.79861,0 3.13672,0.33897 4.011719,1.01953 0.887152,0.68055 1.330078,1.70877 1.330078,3.08203 0,1.38542 -0.442926,2.4171 -1.330078,3.09765 -0.874999,0.66841 -2.213109,1.00391 -4.011719,1.00391 h -5.449219 z m 303.624997,0 h 4.62891 c 1.71354,0 3.03885,0.44292 3.97461,1.33007 0.93577,0.88716 1.4043,2.14497 1.4043,3.77344 0,1.64062 -0.46853,2.90386 -1.4043,3.79102 -0.93576,0.88715 -2.26107,1.33203 -3.97461,1.33203 h -4.62891 z m -143.20898,3.28125 c -2.92882,0 -5.2257,0.94791 -6.89063,2.84375 -1.65277,1.89583 -2.47851,4.52084 -2.47851,7.875 0,3.34201 0.82574,5.96701 2.47851,7.875 1.66493,1.89582 3.96181,2.84375 6.89063,2.84375 2.91667,0 5.20812,-0.94793 6.87305,-2.84375 1.66492,-1.90799 2.49609,-4.53299 2.49609,-7.875 0,-3.35416 -0.83117,-5.97917 -2.49609,-7.875 -1.66493,-1.89584 -3.95638,-2.84375 -6.87305,-2.84375 z m 25.0293,0 c -1.61632,0 -2.99088,0.30251 -4.1211,0.91015 -1.1302,0.59549 -2.04709,1.51433 -2.75195,2.75391 v -3.17188 h -3.37305 v 20.41602 h 3.37305 V 280.6875 c 0,-2.30903 0.50499,-4.07726 1.51367,-5.30469 1.02083,-1.23958 2.47917,-1.85937 4.375,-1.85937 0.53472,0 1.01953,0.0547 1.45703,0.16406 0.44966,0.0972 0.8635,0.25586 1.24024,0.47461 l -0.0176,-3.44531 c -0.34028,-0.0607 -0.65018,-0.10262 -0.92969,-0.12696 -0.27951,-0.0365 -0.53472,-0.0547 -0.76562,-0.0547 z m 177.82421,0 c -2.50346,0 -4.51953,0.95334 -6.05078,2.86132 -1.53125,1.90799 -2.29687,4.44185 -2.29687,7.60157 0,3.14756 0.76562,5.67599 2.29687,7.58398 1.53125,1.90799 3.54732,2.86133 6.05078,2.86133 1.50695,0 2.80122,-0.29709 3.88282,-0.89258 1.0816,-0.59549 1.9694,-1.4961 2.66211,-2.69922 v 1.66016 c 0,2.32118 -0.54688,4.05295 -1.64063,5.19531 -1.09375,1.15451 -2.73981,1.73047 -4.93945,1.73047 -0.99653,0 -1.97548,-0.1276 -2.93555,-0.38281 -0.96007,-0.25521 -1.93164,-0.64888 -2.91601,-1.1836 v 3.26172 c 0.98437,0.36458 1.99782,0.6326 3.04296,0.80274 1.04514,0.18229 2.15712,0.27343 3.33594,0.27343 3.18403,0 5.5484,-0.85134 7.0918,-2.55273 1.5434,-1.68924 2.31445,-4.27041 2.31445,-7.74609 v -17.88282 h -3.35351 v 3.09766 c -0.69271,-1.20312 -1.58051,-2.10178 -2.66211,-2.69727 -1.0816,-0.59548 -2.37587,-0.89257 -3.88282,-0.89257 z m 50.49415,0 c -1.42188,0 -2.6797,0.30251 -3.77344,0.91015 -1.0816,0.60764 -2.02214,1.52648 -2.82422,2.75391 v -3.17188 h -3.37305 v 20.41602 h 3.37305 V 279.9043 c 0,-1.99306 0.52127,-3.5662 1.5664,-4.72071 1.04514,-1.15451 2.47439,-1.73242 4.28516,-1.73242 1.50694,0 2.63715,0.47939 3.39063,1.43945 0.75347,0.96007 1.1289,2.40756 1.1289,4.33985 v 12.21289 h 3.35547 v -12.32227 c 0,-2.81944 -0.60156,-4.95225 -1.80469,-6.39843 -1.20312,-1.45834 -2.97873,-2.1875 -5.32421,-2.1875 z m 46.77734,0 c -2.92881,0 -5.2257,0.94791 -6.89063,2.84375 -1.65278,1.89583 -2.48046,4.52084 -2.48047,7.875 0,3.34201 0.82769,5.96701 2.48047,7.875 1.66493,1.89582 3.96182,2.84375 6.89063,2.84375 2.91667,0 5.20617,-0.94793 6.87109,-2.84375 1.66494,-1.90799 2.49805,-4.53299 2.49805,-7.875 0,-3.35416 -0.83311,-5.97917 -2.49805,-7.875 -1.66492,-1.89584 -3.95442,-2.84375 -6.87109,-2.84375 z m 25.02734,0 c -1.61632,0 -2.98893,0.30251 -4.11914,0.91015 -1.1302,0.59549 -2.04709,1.51433 -2.75195,2.75391 v -3.17188 h -3.37305 v 20.41602 h 3.37305 V 280.6875 c 0,-2.30903 0.50304,-4.07726 1.51172,-5.30469 1.02083,-1.23958 2.47917,-1.85937 4.375,-1.85937 0.53472,0 1.02148,0.0547 1.45898,0.16406 0.44965,0.0972 0.8635,0.25586 1.24024,0.47461 l -0.0195,-3.44531 c -0.34028,-0.0607 -0.65018,-0.10262 -0.92969,-0.12696 -0.27952,-0.0365 -0.53473,-0.0547 -0.76563,-0.0547 z m 50.66016,0 c -2.92881,0 -5.22569,0.94791 -6.89063,2.84375 -1.65277,1.89583 -2.48047,4.52084 -2.48047,7.875 10e-6,3.34201 0.8277,5.96701 2.48047,7.875 1.66494,1.89582 3.96182,2.84375 6.89063,2.84375 2.91667,0 5.20617,-0.94793 6.87109,-2.84375 1.66494,-1.90799 2.49805,-4.53299 2.49805,-7.875 0,-3.35416 -0.83311,-5.97917 -2.49805,-7.875 -1.66492,-1.89584 -3.95442,-2.84375 -6.87109,-2.84375 z m 54.01172,0 c -3.0625,0 -5.49783,0.98437 -7.3086,2.95312 -1.7986,1.9566 -2.69922,4.60526 -2.69922,7.94727 0,3.23264 0.94792,5.79752 2.84376,7.69336 1.90797,1.89582 4.4911,2.84375 7.74804,2.84375 1.30035,0 2.58182,-0.13499 3.8457,-0.40235 1.26389,-0.26736 2.49806,-0.6556 3.70118,-1.16601 v -3.17188 c -1.19097,0.63195 -2.3941,1.1059 -3.60938,1.42188 -1.20312,0.31597 -2.44813,0.47461 -3.73633,0.47461 -2.22396,0 -3.96311,-0.60156 -5.21484,-1.80469 -1.23958,-1.21527 -1.93229,-2.97808 -2.07813,-5.28711 h 15.42188 v -1.64063 c 0,-3.03819 -0.80208,-5.43902 -2.40625,-7.20117 -1.59201,-1.7743 -3.76129,-2.66015 -6.50781,-2.66015 z m -389.09961,0.49218 v 2.67969 h 12.1582 l -12.61523,14.67383 v 3.0625 h 16.38867 v -2.67969 h -12.61524 l 12.61524,-14.67383 v -3.0625 z m 131.19531,0 v 12.35938 c 0,2.80729 0.60699,4.9401 1.82227,6.39844 1.21527,1.45832 2.99631,2.1875 5.34179,2.1875 1.42188,0 2.66688,-0.29905 3.73633,-0.89454 1.08159,-0.60764 2.02952,-1.52994 2.84375,-2.76953 v 3.13477 h 3.35352 v -20.41602 h -3.35352 v 11.57422 c 0,1.99306 -0.52865,3.56815 -1.58594,4.72266 -1.04514,1.15451 -2.47244,1.73047 -4.2832,1.73047 -1.50695,0 -2.63716,-0.47939 -3.39062,-1.43946 -0.75348,-0.97222 -1.13086,-2.42513 -1.13086,-4.35742 v -12.23047 z m 61.23047,0 v 20.41602 h 3.35351 v -20.41602 z m 155.62305,0 5.33984,20.41602 h 3.95703 l 4.41016,-16.73438 4.39453,16.73438 h 3.95508 l 5.34179,-20.41602 h -3.35547 l -4.17382,15.93164 -4.19336,-15.93164 h -3.95508 l -4.17383,15.93164 -4.19336,-15.93164 z m -185.09961,2.31446 c 1.81076,0 3.21441,0.66905 4.21093,2.00586 1.00868,1.3368 1.51368,3.21983 1.51368,5.65039 0,2.4184 -0.505,4.29601 -1.51368,5.63281 -0.99652,1.33681 -2.40017,2.00586 -4.21093,2.00586 -1.79862,0 -3.20226,-0.66905 -4.21094,-2.00586 -0.99653,-1.3368 -1.49414,-3.21441 -1.49414,-5.63281 0,-2.43056 0.49761,-4.31359 1.49414,-5.65039 1.00868,-1.33681 2.41232,-2.00586 4.21094,-2.00586 z m -203.67383,0.0371 c 1.78645,0 3.20291,0.71094 4.24805,2.13281 1.04514,1.40972 1.5664,3.32379 1.5664,5.74219 0,2.43055 -0.52126,4.35004 -1.5664,5.75976 -1.04514,1.40973 -2.4616,2.11524 -4.24805,2.11524 -1.81076,0 -3.23806,-0.70009 -4.2832,-2.09766 -1.03299,-1.40972 -1.55079,-3.33464 -1.55079,-5.77734 0,-2.44271 0.52322,-4.36416 1.56836,-5.76172 1.04514,-1.40972 2.46702,-2.11328 4.26563,-2.11328 z m 300.125,0 c 1.78646,0 3.20095,0.71094 4.24609,2.13281 1.04514,1.40972 1.56836,3.32379 1.56836,5.74219 0,2.43055 -0.52322,4.35004 -1.56836,5.75976 -1.04514,1.40973 -2.45963,2.11524 -4.24609,2.11524 -1.81076,0 -3.24002,-0.70009 -4.28516,-2.09766 -1.03298,-1.40972 -1.54883,-3.33464 -1.54883,-5.77734 0,-2.44271 0.52323,-4.36416 1.56836,-5.76172 1.04514,-1.40972 2.46702,-2.11328 4.26563,-2.11328 z m 75.6875,0 c 1.78646,0 3.20095,0.71094 4.24609,2.13281 1.04514,1.40972 1.56836,3.32379 1.56836,5.74219 0,2.43055 -0.52322,4.35004 -1.56836,5.75976 -1.04514,1.40973 -2.45963,2.11524 -4.24609,2.11524 -1.81076,0 -3.24002,-0.70009 -4.28516,-2.09766 -1.03298,-1.40972 -1.54883,-3.33464 -1.54883,-5.77734 0,-2.44271 0.52322,-4.36416 1.56836,-5.76172 1.04514,-1.40972 2.46702,-2.11328 4.26563,-2.11328 z m 54.04883,0 c 1.65278,0 2.97808,0.54687 3.97461,1.64062 1.00871,1.09375 1.52456,2.55751 1.54882,4.39258 l -11.95898,0.0176 c 0.17014,-1.92014 0.81554,-3.40756 1.93359,-4.46485 1.13021,-1.05729 2.63043,-1.58593 4.50196,-1.58593 z m -590.277347,5.0664 h 5.90625 c 1.980901,0 3.444663,0.40842 4.392578,1.22266 0.960069,0.80208 1.439453,2.05252 1.439453,3.75391 0,1.68923 -0.479384,2.94704 -1.439453,3.77343 -0.947915,0.81424 -2.411677,1.22266 -4.392578,1.22266 h -5.90625 z m 378.380857,1.27735 v 2.98828 h 9.82617 v -2.98828 z"
       inkscape:original="M 182.82617 263.07812 C 180.5293 263.07812 178.85222 263.60134 177.79492 264.64648 C 176.73764 265.67946 176.20898 267.3329 176.20898 269.60547 L 176.20898 271.02734 L 173.00195 271.02734 L 173.00195 273.63281 L 176.20898 273.63281 L 176.20898 291.44336 L 179.58203 291.44336 L 179.58203 273.63281 L 185.10547 273.63281 L 185.10547 271.02734 L 179.58203 271.02734 L 179.58203 269.22266 C 179.58203 267.95877 179.81358 267.08376 180.27539 266.59766 C 180.74934 266.11154 181.58789 265.86719 182.79102 265.86719 L 185.99805 265.86719 L 185.99805 263.07812 L 182.82617 263.07812 z M 358.61133 263.07812 L 358.61133 291.44336 L 361.96484 291.44336 L 361.96484 263.07812 L 358.61133 263.07812 z M 429.84961 263.07812 L 429.84961 267.32617 L 433.20312 267.32617 L 433.20312 263.07812 L 429.84961 263.07812 z M 482.95117 263.07812 C 480.6543 263.07813 478.97722 263.60134 477.91992 264.64648 C 476.86264 265.67946 476.33398 267.3329 476.33398 269.60547 L 476.33398 271.02734 L 473.125 271.02734 L 473.125 273.63281 L 476.33398 273.63281 L 476.33398 291.44336 L 479.70703 291.44336 L 479.70703 273.63281 L 485.23047 273.63281 L 485.23047 271.02734 L 479.70703 271.02734 L 479.70703 269.22266 C 479.70703 267.95877 479.93663 267.08376 480.39844 266.59766 C 480.8724 266.11154 481.71094 265.86719 482.91406 265.86719 L 486.12305 265.86719 L 486.12305 263.07812 L 482.95117 263.07812 z M 145.58398 263.73438 C 141.75586 263.73437 138.69336 265.0178 136.39648 267.58203 C 134.11176 270.13411 132.9707 273.5612 132.9707 277.86328 C 132.9707 282.15321 134.11176 285.5803 136.39648 288.14453 C 138.69336 290.69661 141.75586 291.97266 145.58398 291.97266 C 145.77843 291.97266 145.97895 291.96526 146.18555 291.95312 C 146.40429 291.94099 146.71419 291.92277 147.11523 291.89844 L 151.14453 296.25586 L 155.5918 296.25586 L 150.74414 290.95117 C 153.15039 289.88173 154.98416 288.22288 156.24805 285.97461 C 157.52409 283.72635 158.16211 281.023 158.16211 277.86328 C 158.16211 273.5612 157.02105 270.13411 154.73633 267.58203 C 152.45161 265.0178 149.39996 263.73437 145.58398 263.73438 z M 282.30273 263.73438 C 278.47461 263.73438 275.41211 265.0178 273.11523 267.58203 C 270.83051 270.13411 269.68945 273.5612 269.68945 277.86328 C 269.68945 282.16536 270.83051 285.59245 273.11523 288.14453 C 275.41211 290.69661 278.47461 291.97266 282.30273 291.97266 C 286.1187 291.97266 289.17035 290.69661 291.45508 288.14453 C 293.7398 285.5803 294.88086 282.15321 294.88086 277.86328 C 294.88086 273.5612 293.7398 270.13411 291.45508 267.58203 C 289.17035 265.0178 286.1187 263.73438 282.30273 263.73438 z M 308.99023 263.73438 C 306.01281 263.73438 303.67404 264.42709 301.97266 265.8125 C 300.28342 267.19792 299.43945 269.09375 299.43945 271.5 C 299.43945 273.57812 300.05187 275.20052 301.2793 276.36719 C 302.50673 277.53385 304.49371 278.39063 307.24023 278.9375 L 309.48242 279.375 C 311.35395 279.75173 312.69749 280.31684 313.51172 281.07031 C 314.33811 281.82379 314.75195 282.87022 314.75195 284.20703 C 314.75195 285.73828 314.17947 286.9158 313.03711 287.74219 C 311.89474 288.56857 310.27235 288.98242 308.16992 288.98242 C 306.78451 288.98242 305.37543 288.7691 303.94141 288.34375 C 302.50738 287.9184 301.04362 287.28776 299.54883 286.44922 L 299.54883 290.24023 C 301.10438 290.81141 302.6046 291.24349 304.05078 291.53516 C 305.50911 291.82682 306.88173 291.97266 308.16992 291.97266 C 311.58485 291.97266 314.17339 291.29079 315.93555 289.92969 C 317.70985 288.56857 318.59766 286.57074 318.59766 283.93359 C 318.59766 281.72179 317.94141 279.95898 316.62891 278.64648 C 315.32856 277.32184 313.30512 276.39757 310.55859 275.875 L 308.33398 275.41992 C 306.31663 275.04319 304.94401 274.551 304.21484 273.94336 C 303.49783 273.32357 303.13867 272.41211 303.13867 271.20898 C 303.13867 269.77496 303.68013 268.6684 304.76172 267.89062 C 305.85547 267.11285 307.40495 266.72461 309.41016 266.72461 C 310.56467 266.72461 311.76237 266.88867 313.00195 267.2168 C 314.24153 267.54492 315.55946 268.04253 316.95703 268.71094 L 316.95703 265.12109 C 315.57162 264.65929 314.21723 264.31294 312.89258 264.08203 C 311.56792 263.85113 310.26627 263.73437 308.99023 263.73438 z M 664.69531 263.73438 C 660.57553 263.73438 657.33072 264.99957 654.96094 267.52734 C 652.59114 270.04297 651.40625 273.48829 651.40625 277.86328 C 651.40625 282.22613 652.59114 285.67145 654.96094 288.19922 C 657.33072 290.71484 660.57553 291.97266 664.69531 291.97266 C 666.29948 291.97266 667.81988 291.75391 669.25391 291.31641 C 670.70009 290.87891 672.06728 290.22265 673.35547 289.34766 L 673.35547 285.5 C 672.11589 286.65451 670.79058 287.51866 669.38086 288.08984 C 667.98329 288.66102 666.49392 288.94531 664.91406 288.94531 C 661.80296 288.94531 659.4223 287.99739 657.76953 286.10156 C 656.11675 284.19358 655.28906 281.44835 655.28906 277.86328 C 655.28906 274.26606 656.11675 271.51888 657.76953 269.62305 C 659.4223 267.71507 661.80296 266.76172 664.91406 266.76172 C 666.49392 266.76172 667.98329 267.04601 669.38086 267.61719 C 670.79058 268.18837 672.11589 269.05252 673.35547 270.20703 L 673.35547 266.32422 C 672.09158 265.46137 670.73524 264.81597 669.28906 264.39062 C 667.85504 263.95312 666.32379 263.73438 664.69531 263.73438 z M 21.589844 264.22656 L 21.589844 291.44336 L 25.271484 291.44336 L 25.271484 264.22656 L 21.589844 264.22656 z M 32.599609 264.22656 L 32.599609 291.44336 L 42.371094 291.44336 C 45.421438 291.44336 47.773005 290.78168 49.425781 289.45703 C 51.078558 288.13238 51.904297 286.25477 51.904297 283.82422 C 51.904297 281.977 51.401258 280.43836 50.392578 279.21094 C 49.396051 277.97135 47.992403 277.15842 46.181641 276.76953 C 47.688584 276.52648 48.829645 275.91211 49.607422 274.92773 C 50.385199 273.94336 50.775391 272.61806 50.775391 270.95312 C 50.775391 268.80209 50.01519 267.14323 48.496094 265.97656 C 46.976998 264.8099 44.813149 264.22656 42.005859 264.22656 L 32.599609 264.22656 z M 58.193359 264.22656 L 58.193359 291.44336 L 61.767578 291.44336 L 61.767578 267.54492 L 68.785156 286.21094 L 72.486328 286.21094 L 79.503906 267.54492 L 79.503906 291.44336 L 83.095703 291.44336 L 83.095703 264.22656 L 77.607422 264.22656 L 70.626953 282.74805 L 63.681641 264.22656 L 58.193359 264.22656 z M 102.30859 264.22656 L 102.30859 291.44336 L 105.88086 291.44336 L 105.88086 267.54492 L 112.90039 286.21094 L 116.59961 286.21094 L 123.61914 267.54492 L 123.61914 291.44336 L 127.20898 291.44336 L 127.20898 264.22656 L 121.72266 264.22656 L 114.74023 282.74805 L 107.79492 264.22656 L 102.30859 264.22656 z M 264.45703 264.22656 L 254.97852 294.90625 L 258.07617 294.90625 L 267.55664 264.22656 L 264.45703 264.22656 z M 336.22461 264.22656 L 336.22461 291.44336 L 339.9082 291.44336 L 339.9082 280.50586 L 344.53711 280.50586 C 347.58745 280.50586 349.89171 279.81858 351.44727 278.44531 C 353.01497 277.07205 353.79883 275.04318 353.79883 272.35742 C 353.79883 269.69596 353.01497 267.67795 351.44727 266.30469 C 349.89171 264.91927 347.58745 264.22656 344.53711 264.22656 L 336.22461 264.22656 z M 537.58398 264.22656 L 537.58398 267.32617 L 554.37305 267.32617 L 537.16406 288.63672 L 537.16406 291.44336 L 559.38672 291.44336 L 559.38672 288.34375 L 541.75781 288.34375 L 558.9668 267.03516 L 558.9668 264.22656 L 537.58398 264.22656 z M 679.07812 264.22656 L 679.07812 291.44336 L 696.01367 291.44336 L 696.01367 288.34375 L 682.76172 288.34375 L 682.76172 264.22656 L 679.07812 264.22656 z M 699.85938 264.22656 L 699.85938 291.44336 L 703.54297 291.44336 L 703.54297 264.22656 L 699.85938 264.22656 z M 145.58398 266.72461 C 148.2576 266.72461 150.37218 267.72179 151.92773 269.71484 C 153.49544 271.7079 154.2793 274.42405 154.2793 277.86328 C 154.2793 281.29036 153.49544 283.99913 151.92773 285.99219 C 150.37218 287.98524 148.2576 288.98242 145.58398 288.98242 C 142.91038 288.98242 140.78494 287.98524 139.20508 285.99219 C 137.63737 283.99913 136.85352 281.29036 136.85352 277.86328 C 136.85352 274.42405 137.63737 271.7079 139.20508 269.71484 C 140.78494 267.72179 142.91038 266.72461 145.58398 266.72461 z M 282.30273 266.72461 C 284.97634 266.72461 287.09092 267.72179 288.64648 269.71484 C 290.21419 271.7079 290.99805 274.42405 290.99805 277.86328 C 290.99805 281.29036 290.21419 283.99913 288.64648 285.99219 C 287.09092 287.98524 284.97634 288.98242 282.30273 288.98242 C 279.62913 288.98242 277.50369 287.98524 275.92383 285.99219 C 274.35612 283.99913 273.57227 281.29036 273.57227 277.86328 C 273.57227 274.42405 274.35612 271.7079 275.92383 269.71484 C 277.50369 267.72179 279.62913 266.72461 282.30273 266.72461 z M 36.283203 267.25391 L 41.732422 267.25391 C 43.531032 267.25391 44.869142 267.59288 45.744141 268.27344 C 46.631293 268.95399 47.074219 269.98221 47.074219 271.35547 C 47.074219 272.74089 46.631293 273.77257 45.744141 274.45312 C 44.869142 275.12153 43.531032 275.45703 41.732422 275.45703 L 36.283203 275.45703 L 36.283203 267.25391 z M 339.9082 267.25391 L 344.53711 267.25391 C 346.25065 267.25391 347.57596 267.69683 348.51172 268.58398 C 349.44749 269.47114 349.91602 270.72895 349.91602 272.35742 C 349.91602 273.99804 349.44749 275.26128 348.51172 276.14844 C 347.57596 277.03559 346.25065 277.48047 344.53711 277.48047 L 339.9082 277.48047 L 339.9082 267.25391 z M 196.69922 270.53516 C 193.7704 270.53516 191.47352 271.48307 189.80859 273.37891 C 188.15582 275.27474 187.33008 277.89975 187.33008 281.25391 C 187.33008 284.59592 188.15582 287.22092 189.80859 289.12891 C 191.47352 291.02473 193.7704 291.97266 196.69922 291.97266 C 199.61589 291.97266 201.90734 291.02473 203.57227 289.12891 C 205.23719 287.22092 206.06836 284.59592 206.06836 281.25391 C 206.06836 277.89975 205.23719 275.27474 203.57227 273.37891 C 201.90734 271.48307 199.61589 270.53516 196.69922 270.53516 z M 221.72852 270.53516 C 220.1122 270.53516 218.73764 270.83767 217.60742 271.44531 C 216.47722 272.0408 215.56033 272.95964 214.85547 274.19922 L 214.85547 271.02734 L 211.48242 271.02734 L 211.48242 291.44336 L 214.85547 291.44336 L 214.85547 280.6875 C 214.85547 278.37847 215.36046 276.61024 216.36914 275.38281 C 217.38997 274.14323 218.84831 273.52344 220.74414 273.52344 C 221.27886 273.52344 221.76367 273.57812 222.20117 273.6875 C 222.65083 273.78472 223.06467 273.94336 223.44141 274.16211 L 223.42383 270.7168 C 223.08355 270.65606 222.77365 270.61418 222.49414 270.58984 C 222.21463 270.55338 221.95942 270.53516 221.72852 270.53516 z M 399.55273 270.53516 C 397.04927 270.53516 395.0332 271.4885 393.50195 273.39648 C 391.9707 275.30447 391.20508 277.83833 391.20508 280.99805 C 391.20508 284.14561 391.9707 286.67404 393.50195 288.58203 C 395.0332 290.49002 397.04927 291.44336 399.55273 291.44336 C 401.05968 291.44336 402.35395 291.14627 403.43555 290.55078 C 404.51715 289.95529 405.40495 289.05468 406.09766 287.85156 L 406.09766 289.51172 C 406.09766 291.8329 405.55078 293.56467 404.45703 294.70703 C 403.36328 295.86154 401.71722 296.4375 399.51758 296.4375 C 398.52105 296.4375 397.5421 296.3099 396.58203 296.05469 C 395.62196 295.79948 394.65039 295.40581 393.66602 294.87109 L 393.66602 298.13281 C 394.65039 298.49739 395.66384 298.76541 396.70898 298.93555 C 397.75412 299.11784 398.8661 299.20898 400.04492 299.20898 C 403.22895 299.20898 405.59332 298.35764 407.13672 296.65625 C 408.68012 294.96701 409.45117 292.38584 409.45117 288.91016 L 409.45117 271.02734 L 406.09766 271.02734 L 406.09766 274.125 C 405.40495 272.92188 404.51715 272.02322 403.43555 271.42773 C 402.35395 270.83225 401.05968 270.53516 399.55273 270.53516 z M 450.04688 270.53516 C 448.625 270.53516 447.36718 270.83767 446.27344 271.44531 C 445.19184 272.05295 444.2513 272.97179 443.44922 274.19922 L 443.44922 271.02734 L 440.07617 271.02734 L 440.07617 291.44336 L 443.44922 291.44336 L 443.44922 279.9043 C 443.44922 277.91124 443.97049 276.3381 445.01562 275.18359 C 446.06076 274.02908 447.49001 273.45117 449.30078 273.45117 C 450.80772 273.45117 451.93793 273.93056 452.69141 274.89062 C 453.44488 275.85069 453.82031 277.29818 453.82031 279.23047 L 453.82031 291.44336 L 457.17578 291.44336 L 457.17578 279.12109 C 457.17578 276.30165 456.57422 274.16884 455.37109 272.72266 C 454.16797 271.26432 452.39236 270.53516 450.04688 270.53516 z M 496.82422 270.53516 C 493.89541 270.53516 491.59852 271.48307 489.93359 273.37891 C 488.28081 275.27474 487.45313 277.89975 487.45312 281.25391 C 487.45312 284.59592 488.28081 287.22092 489.93359 289.12891 C 491.59852 291.02473 493.89541 291.97266 496.82422 291.97266 C 499.74089 291.97266 502.03039 291.02473 503.69531 289.12891 C 505.36025 287.22092 506.19336 284.59592 506.19336 281.25391 C 506.19336 277.89975 505.36025 275.27474 503.69531 273.37891 C 502.03039 271.48307 499.74089 270.53516 496.82422 270.53516 z M 521.85156 270.53516 C 520.23524 270.53516 518.86263 270.83767 517.73242 271.44531 C 516.60222 272.0408 515.68533 272.95964 514.98047 274.19922 L 514.98047 271.02734 L 511.60742 271.02734 L 511.60742 291.44336 L 514.98047 291.44336 L 514.98047 280.6875 C 514.98047 278.37847 515.48351 276.61024 516.49219 275.38281 C 517.51302 274.14323 518.97136 273.52344 520.86719 273.52344 C 521.40191 273.52344 521.88867 273.57812 522.32617 273.6875 C 522.77582 273.78472 523.18967 273.94336 523.56641 274.16211 L 523.54688 270.7168 C 523.2066 270.65606 522.8967 270.61418 522.61719 270.58984 C 522.33767 270.55338 522.08246 270.53516 521.85156 270.53516 z M 572.51172 270.53516 C 569.58291 270.53516 567.28603 271.48307 565.62109 273.37891 C 563.96832 275.27474 563.14062 277.89975 563.14062 281.25391 C 563.14063 284.59592 563.96832 287.22092 565.62109 289.12891 C 567.28603 291.02473 569.58291 291.97266 572.51172 291.97266 C 575.42839 291.97266 577.71789 291.02473 579.38281 289.12891 C 581.04775 287.22092 581.88086 284.59592 581.88086 281.25391 C 581.88086 277.89975 581.04775 275.27474 579.38281 273.37891 C 577.71789 271.48307 575.42839 270.53516 572.51172 270.53516 z M 626.52344 270.53516 C 623.46094 270.53516 621.02561 271.51953 619.21484 273.48828 C 617.41624 275.44488 616.51562 278.09354 616.51562 281.43555 C 616.51562 284.66819 617.46354 287.23307 619.35938 289.12891 C 621.26735 291.02473 623.85048 291.97266 627.10742 291.97266 C 628.40777 291.97266 629.68924 291.83767 630.95312 291.57031 C 632.21701 291.30295 633.45118 290.91471 634.6543 290.4043 L 634.6543 287.23242 C 633.46333 287.86437 632.2602 288.33832 631.04492 288.6543 C 629.8418 288.97027 628.59679 289.12891 627.30859 289.12891 C 625.08463 289.12891 623.34548 288.52735 622.09375 287.32422 C 620.85417 286.10895 620.16146 284.34614 620.01562 282.03711 L 635.4375 282.03711 L 635.4375 280.39648 C 635.4375 277.35829 634.63542 274.95746 633.03125 273.19531 C 631.43924 271.42101 629.26996 270.53516 626.52344 270.53516 z M 237.42383 271.02734 L 237.42383 273.70703 L 249.58203 273.70703 L 236.9668 288.38086 L 236.9668 291.44336 L 253.35547 291.44336 L 253.35547 288.76367 L 240.74023 288.76367 L 253.35547 274.08984 L 253.35547 271.02734 L 237.42383 271.02734 z M 368.61914 271.02734 L 368.61914 283.38672 C 368.61914 286.19401 369.22613 288.32682 370.44141 289.78516 C 371.65668 291.24348 373.43772 291.97266 375.7832 291.97266 C 377.20508 291.97266 378.45008 291.67361 379.51953 291.07812 C 380.60112 290.47048 381.54905 289.54818 382.36328 288.30859 L 382.36328 291.44336 L 385.7168 291.44336 L 385.7168 271.02734 L 382.36328 271.02734 L 382.36328 282.60156 C 382.36328 284.59462 381.83463 286.16971 380.77734 287.32422 C 379.7322 288.47873 378.3049 289.05469 376.49414 289.05469 C 374.98719 289.05469 373.85698 288.5753 373.10352 287.61523 C 372.35004 286.64301 371.97266 285.1901 371.97266 283.25781 L 371.97266 271.02734 L 368.61914 271.02734 z M 429.84961 271.02734 L 429.84961 291.44336 L 433.20312 291.44336 L 433.20312 271.02734 L 429.84961 271.02734 z M 585.47266 271.02734 L 590.8125 291.44336 L 594.76953 291.44336 L 599.17969 274.70898 L 603.57422 291.44336 L 607.5293 291.44336 L 612.87109 271.02734 L 609.51562 271.02734 L 605.3418 286.95898 L 601.14844 271.02734 L 597.19336 271.02734 L 593.01953 286.95898 L 588.82617 271.02734 L 585.47266 271.02734 z M 400.37305 273.3418 C 402.18381 273.3418 403.58746 274.01085 404.58398 275.34766 C 405.59266 276.68446 406.09766 278.56749 406.09766 280.99805 C 406.09766 283.41645 405.59266 285.29406 404.58398 286.63086 C 403.58746 287.96767 402.18381 288.63672 400.37305 288.63672 C 398.57443 288.63672 397.17079 287.96767 396.16211 286.63086 C 395.16558 285.29406 394.66797 283.41645 394.66797 280.99805 C 394.66797 278.56749 395.16558 276.68446 396.16211 275.34766 C 397.17079 274.01085 398.57443 273.3418 400.37305 273.3418 z M 196.69922 273.37891 C 198.48567 273.37891 199.90213 274.08985 200.94727 275.51172 C 201.99241 276.92144 202.51367 278.83551 202.51367 281.25391 C 202.51367 283.68446 201.99241 285.60395 200.94727 287.01367 C 199.90213 288.4234 198.48567 289.12891 196.69922 289.12891 C 194.88846 289.12891 193.46116 288.42882 192.41602 287.03125 C 191.38303 285.62153 190.86523 283.69661 190.86523 281.25391 C 190.86523 278.8112 191.38845 276.88975 192.43359 275.49219 C 193.47873 274.08247 194.90061 273.37891 196.69922 273.37891 z M 496.82422 273.37891 C 498.61068 273.37891 500.02517 274.08985 501.07031 275.51172 C 502.11545 276.92144 502.63867 278.83551 502.63867 281.25391 C 502.63867 283.68446 502.11545 285.60395 501.07031 287.01367 C 500.02517 288.4234 498.61068 289.12891 496.82422 289.12891 C 495.01346 289.12891 493.5842 288.42882 492.53906 287.03125 C 491.50608 285.62153 490.99023 283.69661 490.99023 281.25391 C 490.99023 278.8112 491.51346 276.88975 492.55859 275.49219 C 493.60373 274.08247 495.02561 273.37891 496.82422 273.37891 z M 572.51172 273.37891 C 574.29818 273.37891 575.71267 274.08985 576.75781 275.51172 C 577.80295 276.92144 578.32617 278.83551 578.32617 281.25391 C 578.32617 283.68446 577.80295 285.60395 576.75781 287.01367 C 575.71267 288.4234 574.29818 289.12891 572.51172 289.12891 C 570.70096 289.12891 569.2717 288.42882 568.22656 287.03125 C 567.19358 285.62153 566.67773 283.69661 566.67773 281.25391 C 566.67773 278.8112 567.20095 276.88975 568.24609 275.49219 C 569.29123 274.08247 570.71311 273.37891 572.51172 273.37891 z M 626.56055 273.37891 C 628.21333 273.37891 629.53863 273.92578 630.53516 275.01953 C 631.54387 276.11328 632.05972 277.57704 632.08398 279.41211 L 620.125 279.42969 C 620.29514 277.50955 620.94054 276.02213 622.05859 274.96484 C 623.1888 273.90755 624.68902 273.37891 626.56055 273.37891 z M 36.283203 278.44531 L 42.189453 278.44531 C 44.170354 278.44531 45.634116 278.85373 46.582031 279.66797 C 47.5421 280.47005 48.021484 281.72049 48.021484 283.42188 C 48.021484 285.11111 47.5421 286.36892 46.582031 287.19531 C 45.634116 288.00955 44.170354 288.41797 42.189453 288.41797 L 36.283203 288.41797 L 36.283203 278.44531 z M 414.66406 279.72266 L 414.66406 282.71094 L 424.49023 282.71094 L 424.49023 279.72266 L 414.66406 279.72266 z "
       inkscape:radius="0"
       sodipodi:type="inkscape:offset"
       id="path4318" />
  </g>
</svg>
