<?xml version="1.0" encoding="UTF-8" standalone="no"?>
<!-- Generator: Adobe Illustrator 23.0.1, SVG Export Plug-In . SVG Version: 6.00 Build 0) -->

<svg
   id="Layer_1"
   x="0px"
   y="0px"
   viewBox="0 0 400 300"
   style="enable-background:new 0 0 400 245;"
   xml:space="preserve"
   version="1.1"
   xmlns="http://www.w3.org/2000/svg"
   xmlns:svg="http://www.w3.org/2000/svg"><defs
   id="defs31" /> <style
   type="text/css"
   id="style1"> .st0{fill:#4C83C3;} </style> <g
   id="g31"> <polygon
   class="st0"
   points="398.3,53.5 332,53.5 336.1,42.1 398.3,42.1 "
   id="polygon1" /> <path
   class="st0"
   d="M221.5,42.1l61.6,0l4,11.5c0,0-65.6,0-65.6,0C221.6,53.5,221.5,42.1,221.5,42.1z"
   id="path1" /> <path
   class="st0"
   d="M172.7,42.1c10.1,1,19,4.6,26.5,11.5c0,0-111.6,0-111.6,0c0,0,0-11.5,0-11.5L172.7,42.1z"
   id="path2" /> <g
   id="g3"> <rect
   x="0"
   y="42.1"
   class="st0"
   width="77.5"
   height="11.4"
   id="rect2" /> <path
   class="st0"
   d="M38.8,47.8"
   id="path3" /> </g> <path
   class="st0"
   d="M398.3,75h-73.9c0,0,4-11.4,4-11.4h69.9V75z"
   id="path4" /> <polygon
   class="st0"
   points="294.8,75 221.5,75 221.5,63.6 290.7,63.6 "
   id="polygon4" /> <path
   class="st0"
   d="M207.8,63.6c1.5,3.8,3.2,7,3.2,11.4H87.6V63.6H207.8z"
   id="path5" /> <g
   id="g6"> <rect
   x="0"
   y="63.6"
   class="st0"
   width="77.5"
   height="11.4"
   id="rect5" /> <path
   class="st0"
   d="M38.8,69.3"
   id="path6" /> </g> <polygon
   class="st0"
   points="316.8,96.5 320.9,85.1 376.4,85.1 376.4,96.5 "
   id="polygon6" /> <polygon
   class="st0"
   points="298.3,85.1 302.4,96.5 243.4,96.5 243.4,85.1 "
   id="polygon7" /> <path
   class="st0"
   d="M212,85c0,3.9-0.5,8-1.6,11.4h-33.8V85H212z"
   id="path7" /> <g
   id="g8"> <rect
   x="21.6"
   y="85.1"
   class="st0"
   width="33.3"
   height="11.4"
   id="rect7" /> <path
   class="st0"
   d="M38.3,90.8"
   id="path8" /> </g> <g
   id="g9"> <rect
   x="110"
   y="85"
   class="st0"
   width="33.3"
   height="11.4"
   id="rect8" /> <path
   class="st0"
   d="M126.6,90.8"
   id="path9" /> </g> <path
   class="st0"
   d="M276.1,108.8c0,0,0,8.7,0,8.7h-32.8v-11.4h62.4l3.9,10.6c0,0,3.7-10.6,3.7-10.6h62.9v11.4h-32.6 c0,0,0-8.7,0-8.7l-3,8.7l-61.6,0L276.1,108.8z"
   id="path10" /> <path
   class="st0"
   d="M110,106.1h95.5v0c-2.1,3.8-5.9,8.4-9.5,11.4c0,0-86,0-86,0C110,117.5,110,106.1,110,106.1z"
   id="path11" /> <g
   id="g12"> <rect
   x="21.6"
   y="106.1"
   class="st0"
   width="33.3"
   height="11.4"
   id="rect11" /> <path
   class="st0"
   d="M38.3,111.8"
   id="path12" /> </g> <g
   id="g13"> <rect
   x="343.8"
   y="127.6"
   class="st0"
   width="32.6"
   height="11.4"
   id="rect12" /> <path
   class="st0"
   d="M360.1,133.3"
   id="path13" /> </g> <path
   class="st0"
   d="M276.1,127.6h-32.8v11.4c0,0,32.8,0,32.8,0C276.1,138.9,276.2,127.6,276.1,127.6z"
   id="path14" /> <path
   class="st0"
   d="M337.2,127.6c-0.1,0-3.8,11.4-4,11.4l-46.4,0c0,0-4.1-11.4-4.1-11.4H337.2z"
   id="path15" /> <path
   class="st0"
   d="M110,127.6h85.8c3.9,3.3,7.5,7.3,10.2,11.4c0.2,0-96.1,0-96.1,0C110,138.9,110,127.6,110,127.6z"
   id="path16" /> <path
   class="st0"
   d="M54.9,138.9v-11.4H21.7c0,0,0,11.4,0,11.4C21.7,138.9,54.9,138.9,54.9,138.9z"
   id="path17" /> <g
   id="g18"> <rect
   x="343.8"
   y="149"
   class="st0"
   width="32.6"
   height="11.4"
   id="rect17" /> <path
   class="st0"
   d="M360.1,154.7"
   id="path18" /> </g> <g
   id="g19"> <rect
   x="243.4"
   y="149"
   class="st0"
   width="32.8"
   height="11.4"
   id="rect18" /> <path
   class="st0"
   d="M259.8,154.7"
   id="path19" /> </g> <path
   class="st0"
   d="M325.6,160.4c0-0.1,4-11.4,4.1-11.4h-39.5c-0.1,0,4,11.4,4,11.4S325.6,160.5,325.6,160.4z"
   id="path20" /> <path
   class="st0"
   d="M110,160.4c0,0,0-11.4,0-11.4h33.8c0,0,0,11.4,0,11.4C143.7,160.4,110,160.4,110,160.4z"
   id="path21" /> <path
   class="st0"
   d="M210.8,149c1.6,3.4,1.8,7.5,2.1,11.4h-35.8V149H210.8z"
   id="path22" /> <g
   id="g23"> <rect
   x="21.7"
   y="149"
   class="st0"
   width="33.3"
   height="11.4"
   id="rect22" /> <path
   class="st0"
   d="M38.3,154.7"
   id="path23" /> </g> <g
   id="g24"> <rect
   x="343.8"
   y="170"
   class="st0"
   width="54.5"
   height="11.4"
   id="rect23" /> <path
   class="st0"
   d="M371,175.7"
   id="path24" /> </g> <g
   id="g25"> <rect
   x="221.5"
   y="170"
   class="st0"
   width="54.6"
   height="11.4"
   id="rect24" /> <path
   class="st0"
   d="M248.8,175.7"
   id="path25" /> </g> <polygon
   class="st0"
   points="318.2,181.4 301.6,181.4 297.6,170 322.1,170 "
   id="polygon25" /> <path
   class="st0"
   d="M0,170v11.4h77.5c0,0,0-11.4,0-11.4C77.5,170-0.1,170,0,170z"
   id="path26" /> <path
   class="st0"
   d="M211.5,170c-0.8,3.8-1.6,8.3-4.3,11.4l-1,0H87.6V170H211.5z"
   id="path27" /> <polygon
   class="st0"
   points="310.7,202.9 309.2,202.9 305.3,191.5 314.7,191.5 "
   id="polygon27" /> <g
   id="g28"> <rect
   x="343.8"
   y="191.5"
   class="st0"
   width="54.5"
   height="11.4"
   id="rect27" /> <path
   class="st0"
   d="M371,197.2"
   id="path28" /> </g> <path
   class="st0"
   d="M87.6,202.9v-11.4c0,0,111.9,0,112.2,0c-7.5,7.2-17.8,11.2-28.9,11.4L87.6,202.9"
   id="path29" /> <g
   id="g30"> <rect
   x="221.5"
   y="191.5"
   class="st0"
   width="54.6"
   height="11.4"
   id="rect29" /> <path
   class="st0"
   d="M248.8,197.2"
   id="path30" /> </g> <path
   class="st0"
   d="M77.5,191.5c0,0,0,11.4,0,11.4c0,0-77.4,0-77.5,0c0,0,0-11.4,0-11.4S77.4,191.6,77.5,191.5z"
   id="path31" /> </g> <path
   d="m 10.890625,240 h -4.59375 v -1.1875 h 1.5234375 v -9.25781 H 6.296875 v -1.1875 h 4.59375 v 1.1875 H 9.3671875 v 9.25781 h 1.5234375 z m 11.40625,-3.57813 q 0,0.86719 -0.328125,1.53125 -0.328125,0.66407 -0.882813,1.09375 -0.65625,0.51563 -1.445312,0.73438 Q 18.859375,240 17.648437,240 h -4.124999 v -11.63281 h 3.445312 q 1.273437,0 1.90625,0.0937 0.632812,0.0937 1.210937,0.39062 0.640625,0.33594 0.929688,0.86719 0.289062,0.52344 0.289062,1.25781 0,0.82813 -0.421875,1.41406 -0.421875,0.57813 -1.125,0.92969 v 0.0625 q 1.179688,0.24219 1.859375,1.03906 0.679688,0.78907 0.679688,2 z m -2.601563,-5.24218 q 0,-0.42188 -0.140625,-0.71094 -0.140625,-0.28906 -0.453125,-0.46875 -0.367187,-0.21094 -0.890625,-0.25781 -0.523437,-0.0547 -1.296875,-0.0547 h -1.843749 v 3.35937 h 1.999999 q 0.726563,0 1.15625,-0.0703 0.429688,-0.0781 0.796875,-0.3125 0.367188,-0.23437 0.515625,-0.60156 0.15625,-0.375 0.15625,-0.88281 z m 0.992188,5.30468 q 0,-0.70312 -0.210938,-1.11718 -0.210937,-0.41407 -0.765625,-0.70313 -0.375,-0.19531 -0.914062,-0.25 -0.53125,-0.0625 -1.296875,-0.0625 h -2.429687 v 4.32813 h 2.046874 q 1.015625,0 1.664063,-0.10157 0.648437,-0.10937 1.0625,-0.39062 0.4375,-0.30469 0.640625,-0.69531 0.203125,-0.39063 0.203125,-1.00782 z M 34.851562,240 h -1.546875 v -10.02344 l -3.234375,6.82031 H 29.148437 L 25.9375,229.97656 V 240 h -1.445313 v -11.63281 h 2.109375 l 3.101563,6.47656 3,-6.47656 h 2.148437 z m 17.507813,-4.67188 q 0,1.26563 -0.28125,2.21094 -0.273438,0.9375 -0.90625,1.5625 -0.601563,0.59375 -1.40625,0.86719 -0.804688,0.27344 -1.875,0.27344 -1.09375,0 -1.90625,-0.28907 -0.8125,-0.28906 -1.367188,-0.85156 -0.632812,-0.64062 -0.914062,-1.54687 -0.273438,-0.90625 -0.273438,-2.22657 v -6.96093 h 1.546875 v 7.03906 q 0,0.94531 0.125,1.49219 0.132813,0.54687 0.4375,0.99218 0.34375,0.50782 0.929688,0.76563 0.59375,0.25781 1.421875,0.25781 0.835937,0 1.421875,-0.25 0.585937,-0.25781 0.9375,-0.77344 0.304687,-0.44531 0.429687,-1.01562 0.132813,-0.57813 0.132813,-1.42969 v -7.07812 h 1.546875 z M 62.492187,240 h -1.46875 v -4.96875 q 0,-0.60156 -0.07031,-1.125 -0.07031,-0.53125 -0.257813,-0.82813 -0.195312,-0.32812 -0.5625,-0.48437 -0.367187,-0.16406 -0.953125,-0.16406 -0.601562,0 -1.257812,0.29687 -0.65625,0.29688 -1.257813,0.75781 V 240 h -1.46875 v -8.72656 h 1.46875 v 0.96875 q 0.6875,-0.57032 1.421875,-0.89063 0.734375,-0.32031 1.507813,-0.32031 1.414062,0 2.15625,0.85156 0.742187,0.85156 0.742187,2.45313 z m 4.40625,-10.1875 h -1.65625 v -1.52344 h 1.65625 z M 66.804687,240 h -1.46875 v -8.72656 h 1.46875 z m 7.601563,-10.73438 h -0.07813 q -0.242188,-0.0703 -0.632813,-0.14062 -0.390625,-0.0781 -0.6875,-0.0781 -0.945312,0 -1.375,0.42188 -0.421875,0.41406 -0.421875,1.50781 v 0.29688 h 2.648438 v 1.23437 H 71.257812 V 240 h -1.46875 v -7.49219 h -0.992187 v -1.23437 h 0.992187 v -0.28907 q 0,-1.55468 0.773438,-2.38281 0.773437,-0.83594 2.234375,-0.83594 0.492187,0 0.882812,0.0469 0.398438,0.0469 0.726563,0.10937 z m 2.507812,0.54688 h -1.65625 v -1.52344 h 1.65625 z M 76.820312,240 h -1.46875 v -8.72656 h 1.46875 z m 10.210938,-4.21094 h -6.429688 q 0,0.80469 0.242188,1.40625 0.242187,0.59375 0.664062,0.97656 0.40625,0.375 0.960938,0.5625 0.5625,0.1875 1.234375,0.1875 0.890625,0 1.789062,-0.35156 0.90625,-0.35937 1.289063,-0.70312 h 0.07813 v 1.60156 q -0.742188,0.3125 -1.515625,0.52344 -0.773438,0.21093 -1.625,0.21093 -2.171875,0 -3.390625,-1.17187 -1.21875,-1.17969 -1.21875,-3.34375 0,-2.14063 1.164062,-3.39844 1.171875,-1.25781 3.078125,-1.25781 1.765625,0 2.71875,1.03125 0.960938,1.03125 0.960938,2.92969 z m -1.429688,-1.125 q -0.0078,-1.15625 -0.585937,-1.78906 -0.570313,-0.63281 -1.742188,-0.63281 -1.179687,0 -1.882812,0.69531 -0.695313,0.69531 -0.789063,1.72656 z M 96.335937,240 h -1.46875 v -0.91406 q -0.632812,0.54687 -1.320312,0.85156 -0.6875,0.30469 -1.492188,0.30469 -1.5625,0 -2.484375,-1.20313 -0.914062,-1.20312 -0.914062,-3.33594 0,-1.10937 0.3125,-1.97656 0.320312,-0.86719 0.859375,-1.47656 0.53125,-0.59375 1.234375,-0.90625 0.710937,-0.3125 1.46875,-0.3125 0.6875,0 1.21875,0.14844 0.53125,0.14062 1.117187,0.44531 v -3.78125 h 1.46875 z m -1.46875,-2.14844 v -5.00781 q -0.59375,-0.26563 -1.0625,-0.36719 -0.46875,-0.10156 -1.023437,-0.10156 -1.234375,0 -1.921875,0.85937 -0.6875,0.85938 -0.6875,2.4375 0,1.55469 0.53125,2.36719 0.53125,0.80469 1.703125,0.80469 0.625,0 1.265625,-0.27344 0.640625,-0.28125 1.195312,-0.71875 z M 115.32813,240 h -1.54688 v -10.02344 l -3.23437,6.82031 H 109.625 l -3.21094,-6.82031 V 240 h -1.44531 v -11.63281 h 2.10938 l 3.10156,6.47656 3,-6.47656 h 2.14844 z m 9.78906,0 h -1.46094 v -0.92969 q -0.19531,0.13281 -0.53125,0.375 -0.32812,0.23438 -0.64062,0.375 -0.36719,0.17969 -0.84375,0.29688 -0.47657,0.125 -1.11719,0.125 -1.17969,0 -2,-0.78125 -0.82031,-0.78125 -0.82031,-1.99219 0,-0.99219 0.42187,-1.60156 0.42969,-0.61719 1.21875,-0.96875 0.79688,-0.35157 1.91406,-0.47657 1.11719,-0.125 2.39844,-0.1875 v -0.22656 q 0,-0.5 -0.17969,-0.82812 -0.17187,-0.32813 -0.5,-0.51563 -0.3125,-0.17969 -0.75,-0.24219 -0.4375,-0.0625 -0.91406,-0.0625 -0.57812,0 -1.28906,0.15625 -0.71094,0.14844 -1.46875,0.4375 h -0.0781 v -1.49218 q 0.42969,-0.11719 1.24219,-0.25782 0.8125,-0.14062 1.60156,-0.14062 0.92188,0 1.60157,0.15625 0.6875,0.14844 1.1875,0.51562 0.49218,0.35938 0.75,0.92969 0.25781,0.57031 0.25781,1.41406 z m -1.46094,-2.14844 v -2.42969 q -0.67187,0.0391 -1.58594,0.11719 -0.90625,0.0781 -1.4375,0.22656 -0.63281,0.17969 -1.02343,0.5625 -0.39063,0.375 -0.39063,1.03907 0,0.75 0.45313,1.13281 0.45312,0.375 1.38281,0.375 0.77344,0 1.41406,-0.29688 0.64063,-0.30468 1.1875,-0.72656 z M 135.24219,240 h -1.46875 v -4.96875 q 0,-0.60156 -0.0703,-1.125 -0.0703,-0.53125 -0.25781,-0.82813 -0.19531,-0.32812 -0.5625,-0.48437 -0.36719,-0.16406 -0.95312,-0.16406 -0.60157,0 -1.25782,0.29687 -0.65625,0.29688 -1.25781,0.75781 V 240 h -1.46875 v -8.72656 h 1.46875 v 0.96875 q 0.6875,-0.57032 1.42188,-0.89063 0.73437,-0.32031 1.50781,-0.32031 1.41406,0 2.15625,0.85156 0.74219,0.85156 0.74219,2.45313 z m 9.60937,0 h -1.46094 v -0.92969 q -0.19531,0.13281 -0.53125,0.375 -0.32812,0.23438 -0.64062,0.375 -0.36719,0.17969 -0.84375,0.29688 -0.47656,0.125 -1.11719,0.125 -1.17969,0 -2,-0.78125 -0.82031,-0.78125 -0.82031,-1.99219 0,-0.99219 0.42187,-1.60156 0.42969,-0.61719 1.21875,-0.96875 0.79688,-0.35157 1.91407,-0.47657 1.11718,-0.125 2.39843,-0.1875 v -0.22656 q 0,-0.5 -0.17968,-0.82812 -0.17188,-0.32813 -0.5,-0.51563 -0.3125,-0.17969 -0.75,-0.24219 -0.4375,-0.0625 -0.91407,-0.0625 -0.57812,0 -1.28906,0.15625 -0.71094,0.14844 -1.46875,0.4375 h -0.0781 v -1.49218 q 0.42968,-0.11719 1.24218,-0.25782 0.8125,-0.14062 1.60157,-0.14062 0.92187,0 1.60156,0.15625 0.6875,0.14844 1.1875,0.51562 0.49219,0.35938 0.75,0.92969 0.25781,0.57031 0.25781,1.41406 z m -1.46094,-2.14844 v -2.42969 q -0.67187,0.0391 -1.58593,0.11719 -0.90625,0.0781 -1.4375,0.22656 -0.63282,0.17969 -1.02344,0.5625 -0.39063,0.375 -0.39063,1.03907 0,0.75 0.45313,1.13281 0.45312,0.375 1.38281,0.375 0.77344,0 1.41406,-0.29688 0.64063,-0.30468 1.1875,-0.72656 z m 11.36719,1.15625 q 0,2.21875 -1.00781,3.25781 -1.00781,1.03907 -3.10156,1.03907 -0.69532,0 -1.35938,-0.10157 -0.65625,-0.0937 -1.29687,-0.27343 v -1.5 h 0.0781 q 0.35938,0.14062 1.14063,0.34375 0.78125,0.21093 1.5625,0.21093 0.75,0 1.24218,-0.17968 0.49219,-0.17969 0.76563,-0.5 0.27344,-0.30469 0.39062,-0.73438 0.11719,-0.42969 0.11719,-0.96094 v -0.79687 q -0.66406,0.53125 -1.27344,0.79687 -0.60156,0.25782 -1.53906,0.25782 -1.5625,0 -2.48437,-1.125 -0.91407,-1.13282 -0.91407,-3.1875 0,-1.125 0.3125,-1.9375 0.32032,-0.82032 0.86719,-1.41407 0.50781,-0.55468 1.23438,-0.85937 0.72656,-0.3125 1.44531,-0.3125 0.75781,0 1.26562,0.15625 0.51563,0.14844 1.08594,0.46094 l 0.0937,-0.375 h 1.375 z m -1.46875,-1.40625 v -4.75781 q -0.58594,-0.26563 -1.09375,-0.375 -0.5,-0.11719 -1,-0.11719 -1.21094,0 -1.90625,0.8125 -0.69531,0.8125 -0.69531,2.35938 0,1.46875 0.51562,2.22656 0.51563,0.75781 1.71094,0.75781 0.64063,0 1.28125,-0.24219 0.64844,-0.25 1.1875,-0.66406 z m 11.66406,-1.8125 h -6.42968 q 0,0.80469 0.24218,1.40625 0.24219,0.59375 0.66407,0.97656 0.40625,0.375 0.96093,0.5625 0.5625,0.1875 1.23438,0.1875 0.89062,0 1.78906,-0.35156 0.90625,-0.35937 1.28906,-0.70312 h 0.0781 v 1.60156 q -0.74219,0.3125 -1.51563,0.52344 -0.77343,0.21093 -1.625,0.21093 -2.17187,0 -3.39062,-1.17187 -1.21875,-1.17969 -1.21875,-3.34375 0,-2.14063 1.16406,-3.39844 1.17188,-1.25781 3.07813,-1.25781 1.76562,0 2.71875,1.03125 0.96093,1.03125 0.96093,2.92969 z m -1.42968,-1.125 q -0.008,-1.15625 -0.58594,-1.78906 -0.57031,-0.63281 -1.74219,-0.63281 -1.17969,0 -1.88281,0.69531 -0.69531,0.69531 -0.78906,1.72656 z M 179.91406,240 h -1.46875 v -4.96875 q 0,-0.5625 -0.0547,-1.08594 -0.0469,-0.52344 -0.21093,-0.83594 -0.17969,-0.33593 -0.51563,-0.50781 -0.33594,-0.17187 -0.96875,-0.17187 -0.61719,0 -1.23437,0.3125 -0.61719,0.30468 -1.23438,0.78125 0.0234,0.17968 0.0391,0.42187 0.0156,0.23438 0.0156,0.46875 V 240 h -1.46875 v -4.96875 q 0,-0.57813 -0.0547,-1.09375 -0.0469,-0.52344 -0.21094,-0.83594 -0.17968,-0.33594 -0.51562,-0.5 -0.33594,-0.17187 -0.96875,-0.17187 -0.60156,0 -1.21094,0.29687 -0.60156,0.29688 -1.20312,0.75781 V 240 h -1.46875 v -8.72656 h 1.46875 v 0.96875 q 0.6875,-0.57032 1.36718,-0.89063 0.6875,-0.32031 1.46094,-0.32031 0.89063,0 1.50781,0.375 0.625,0.375 0.92969,1.03906 0.89063,-0.75 1.625,-1.07812 0.73438,-0.33594 1.57031,-0.33594 1.4375,0 2.11719,0.875 0.6875,0.86719 0.6875,2.42969 z m 10.13281,-4.21094 h -6.42968 q 0,0.80469 0.24218,1.40625 0.24219,0.59375 0.66407,0.97656 0.40625,0.375 0.96093,0.5625 0.5625,0.1875 1.23438,0.1875 0.89062,0 1.78906,-0.35156 0.90625,-0.35937 1.28906,-0.70312 h 0.0781 v 1.60156 q -0.74219,0.3125 -1.51563,0.52344 -0.77343,0.21093 -1.625,0.21093 -2.17187,0 -3.39062,-1.17187 -1.21875,-1.17969 -1.21875,-3.34375 0,-2.14063 1.16406,-3.39844 1.17188,-1.25781 3.07813,-1.25781 1.76562,0 2.71875,1.03125 0.96093,1.03125 0.96093,2.92969 z m -1.42968,-1.125 q -0.008,-1.15625 -0.58594,-1.78906 -0.57031,-0.63281 -1.74219,-0.63281 -1.17969,0 -1.88281,0.69531 -0.69531,0.69531 -0.78906,1.72656 z M 199.57031,240 h -1.46875 v -4.96875 q 0,-0.60156 -0.0703,-1.125 -0.0703,-0.53125 -0.25781,-0.82813 -0.19532,-0.32812 -0.5625,-0.48437 -0.36719,-0.16406 -0.95313,-0.16406 -0.60156,0 -1.25781,0.29687 -0.65625,0.29688 -1.25781,0.75781 V 240 h -1.46875 v -8.72656 h 1.46875 v 0.96875 q 0.6875,-0.57032 1.42187,-0.89063 0.73438,-0.32031 1.50781,-0.32031 1.41407,0 2.15625,0.85156 0.74219,0.85156 0.74219,2.45313 z m 7.35938,-0.0781 q -0.41407,0.10938 -0.90625,0.17969 -0.48438,0.0703 -0.86719,0.0703 -1.33594,0 -2.03125,-0.71875 -0.69531,-0.71875 -0.69531,-2.30468 v -4.64063 h -0.99219 v -1.23437 h 0.99219 v -2.50782 h 1.46875 v 2.50782 h 3.03125 v 1.23437 h -3.03125 v 3.97656 q 0,0.6875 0.0312,1.07813 0.0312,0.38281 0.21875,0.71875 0.17187,0.3125 0.46875,0.46094 0.30468,0.14062 0.92187,0.14062 0.35938,0 0.75,-0.10156 0.39063,-0.10938 0.5625,-0.17969 h 0.0781 z m 15.96875,-3.24218 q 0,0.67968 -0.32032,1.34375 -0.3125,0.66406 -0.88281,1.125 -0.625,0.5 -1.46094,0.78125 -0.82812,0.28125 -2,0.28125 -1.25781,0 -2.26562,-0.23438 -1,-0.23437 -2.03906,-0.69531 v -1.9375 h 0.10937 q 0.88281,0.73437 2.03906,1.13281 1.15625,0.39844 2.17188,0.39844 1.4375,0 2.23437,-0.53906 0.80469,-0.53907 0.80469,-1.4375 0,-0.77344 -0.38281,-1.14063 -0.375,-0.36719 -1.14844,-0.57031 -0.58594,-0.15625 -1.27344,-0.25781 -0.67968,-0.10157 -1.44531,-0.25782 -1.54687,-0.32812 -2.29687,-1.11718 Q 214,232.75781 214,231.48437 q 0,-1.46093 1.23437,-2.39062 1.23438,-0.9375 3.13282,-0.9375 1.22656,0 2.25,0.23437 1.02343,0.23438 1.8125,0.57813 v 1.82812 h -0.10938 q -0.66406,-0.5625 -1.75,-0.92968 -1.07812,-0.375 -2.21094,-0.375 -1.24218,0 -2,0.51562 -0.75,0.51563 -0.75,1.32813 0,0.72656 0.375,1.14062 0.375,0.41406 1.32032,0.63281 0.5,0.10938 1.42187,0.26563 0.92188,0.15625 1.5625,0.32031 1.29688,0.34375 1.95313,1.03906 0.65625,0.69532 0.65625,1.94532 z m 9.67187,-0.89063 h -6.42969 q 0,0.80469 0.24219,1.40625 0.24219,0.59375 0.66406,0.97656 0.40625,0.375 0.96094,0.5625 0.5625,0.1875 1.23438,0.1875 0.89062,0 1.78906,-0.35156 0.90625,-0.35937 1.28906,-0.70312 h 0.0781 v 1.60156 q -0.74219,0.3125 -1.51563,0.52344 -0.77344,0.21093 -1.625,0.21093 -2.17187,0 -3.39062,-1.17187 -1.21875,-1.17969 -1.21875,-3.34375 0,-2.14063 1.16406,-3.39844 1.17187,-1.25781 3.07812,-1.25781 1.76563,0 2.71875,1.03125 0.96094,1.03125 0.96094,2.92969 z m -1.42969,-1.125 q -0.008,-1.15625 -0.58593,-1.78906 -0.57032,-0.63281 -1.74219,-0.63281 -1.17969,0 -1.88281,0.69531 -0.69532,0.69531 -0.78907,1.72656 z m 9.10157,-1.78906 h -0.0781 q -0.32812,-0.0781 -0.64062,-0.10938 -0.30469,-0.0391 -0.72657,-0.0391 -0.67968,0 -1.3125,0.30469 -0.63281,0.29687 -1.21875,0.77344 V 240 h -1.46875 v -8.72656 h 1.46875 v 1.28906 q 0.875,-0.70313 1.53907,-0.99219 0.67187,-0.29687 1.36718,-0.29687 0.38282,0 0.55469,0.0234 0.17188,0.0156 0.51563,0.0703 z m 8.92968,-1.60156 L 245.64062,240 h -1.47656 l -3.50781,-8.72656 H 242.25 l 2.70312,6.94531 2.67969,-6.94531 z m 9.08594,4.51562 h -6.42969 q 0,0.80469 0.24219,1.40625 0.24219,0.59375 0.66406,0.97656 0.40625,0.375 0.96094,0.5625 0.5625,0.1875 1.23438,0.1875 0.89062,0 1.78906,-0.35156 0.90625,-0.35937 1.28906,-0.70312 h 0.0781 v 1.60156 q -0.74219,0.3125 -1.51563,0.52344 -0.77344,0.21093 -1.625,0.21093 -2.17187,0 -3.39062,-1.17187 -1.21875,-1.17969 -1.21875,-3.34375 0,-2.14063 1.16406,-3.39844 1.17187,-1.25781 3.07812,-1.25781 1.76563,0 2.71875,1.03125 0.96094,1.03125 0.96094,2.92969 z m -1.42969,-1.125 q -0.008,-1.15625 -0.58593,-1.78906 -0.57032,-0.63281 -1.74219,-0.63281 -1.17969,0 -1.88281,0.69531 -0.69532,0.69531 -0.78907,1.72656 z m 9.10157,-1.78906 h -0.0781 q -0.32812,-0.0781 -0.64062,-0.10938 -0.30469,-0.0391 -0.72657,-0.0391 -0.67968,0 -1.3125,0.30469 -0.63281,0.29687 -1.21875,0.77344 V 240 h -1.46875 v -8.72656 h 1.46875 v 1.28906 q 0.875,-0.70313 1.53907,-0.99219 0.67187,-0.29687 1.36718,-0.29687 0.38282,0 0.55469,0.0234 0.17188,0.0156 0.51563,0.0703 z m 11.67968,10.34375 h -1.78906 q -1.38281,-1.58594 -2.14844,-3.46094 -0.76562,-1.875 -0.76562,-4.22656 0,-2.35156 0.76562,-4.22656 0.76563,-1.875 2.14844,-3.46094 h 1.78906 v 0.0781 q -0.63281,0.57032 -1.21093,1.32032 -0.57032,0.74218 -1.0625,1.73437 -0.46875,0.96094 -0.76563,2.11719 -0.28906,1.15625 -0.28906,2.4375 0,1.33594 0.28125,2.44531 0.28906,1.10938 0.77344,2.10938 0.46875,0.96093 1.07031,1.73437 0.60156,0.78125 1.20312,1.32031 z m 11.46875,-7.89063 q 0,1.26563 -0.28125,2.21094 -0.27343,0.9375 -0.90625,1.5625 -0.60156,0.59375 -1.40625,0.86719 -0.80468,0.27344 -1.875,0.27344 -1.09375,0 -1.90625,-0.28907 -0.8125,-0.28906 -1.36718,-0.85156 -0.63282,-0.64062 -0.91407,-1.54687 -0.27343,-0.90625 -0.27343,-2.22657 v -6.96093 h 1.54687 v 7.03906 q 0,0.94531 0.125,1.49219 0.13281,0.54687 0.4375,0.99218 0.34375,0.50782 0.92969,0.76563 0.59375,0.25781 1.42187,0.25781 0.83594,0 1.42188,-0.25 0.58594,-0.25781 0.9375,-0.77344 0.30469,-0.44531 0.42969,-1.01562 0.13281,-0.57813 0.13281,-1.42969 v -7.07812 h 1.54687 z M 302.39062,240 h -1.54687 v -10.02344 l -3.23438,6.82031 h -0.92187 l -3.21094,-6.82031 V 240 h -1.44531 v -11.63281 h 2.10937 l 3.10157,6.47656 3,-6.47656 h 2.14843 z m 11.57813,-3.32031 q 0,0.67968 -0.32031,1.34375 -0.3125,0.66406 -0.88282,1.125 -0.625,0.5 -1.46093,0.78125 -0.82813,0.28125 -2,0.28125 -1.25782,0 -2.26563,-0.23438 -1,-0.23437 -2.03906,-0.69531 v -1.9375 h 0.10937 q 0.88282,0.73437 2.03907,1.13281 1.15625,0.39844 2.17187,0.39844 1.4375,0 2.23438,-0.53906 0.80468,-0.53907 0.80468,-1.4375 0,-0.77344 -0.38281,-1.14063 -0.375,-0.36719 -1.14844,-0.57031 -0.58593,-0.15625 -1.27343,-0.25781 -0.67969,-0.10157 -1.44532,-0.25782 -1.54687,-0.32812 -2.29687,-1.11718 -0.74219,-0.79688 -0.74219,-2.07032 0,-1.46093 1.23438,-2.39062 1.23437,-0.9375 3.13281,-0.9375 1.22656,0 2.25,0.23437 1.02344,0.23438 1.8125,0.57813 v 1.82812 h -0.10938 q -0.66406,-0.5625 -1.75,-0.92968 -1.07812,-0.375 -2.21093,-0.375 -1.24219,0 -2,0.51562 -0.75,0.51563 -0.75,1.32813 0,0.72656 0.375,1.14062 0.375,0.41406 1.32031,0.63281 0.5,0.10938 1.42187,0.26563 0.92188,0.15625 1.5625,0.32031 1.29688,0.34375 1.95313,1.03906 0.65625,0.69532 0.65625,1.94532 z m 6.77344,-1.14844 q 0,2.35156 -0.76563,4.22656 -0.76562,1.875 -2.14844,3.46094 h -1.78906 v -0.0781 q 0.60156,-0.53906 1.20313,-1.32031 0.60937,-0.77344 1.07031,-1.73437 0.48437,-1 0.76562,-2.10938 0.28907,-1.10937 0.28907,-2.44531 0,-1.28125 -0.28907,-2.4375 -0.28906,-1.15625 -0.76562,-2.11719 -0.49219,-0.99219 -1.07031,-1.73437 -0.57032,-0.75 -1.20313,-1.32032 v -0.0781 h 1.78906 q 1.38282,1.58594 2.14844,3.46094 0.76563,1.875 0.76563,4.22656 z m 13.17968,-6.26563 h -0.0781 q -0.24219,-0.0703 -0.63281,-0.14062 -0.39063,-0.0781 -0.6875,-0.0781 -0.94532,0 -1.375,0.42188 -0.42188,0.41406 -0.42188,1.50781 v 0.29688 h 2.64844 v 1.23437 h -2.60156 V 240 h -1.46875 v -7.49219 h -0.99219 v -1.23437 h 0.99219 v -0.28907 q 0,-1.55468 0.77343,-2.38281 0.77344,-0.83594 2.23438,-0.83594 0.49219,0 0.88281,0.0469 0.39844,0.0469 0.72656,0.10937 z m 8.36719,6.375 q 0,2.13282 -1.09375,3.36719 -1.09375,1.23438 -2.92969,1.23438 -1.85156,0 -2.94531,-1.23438 -1.08594,-1.23437 -1.08594,-3.36719 0,-2.13281 1.08594,-3.36718 1.09375,-1.24219 2.94531,-1.24219 1.83594,0 2.92969,1.24219 1.09375,1.23437 1.09375,3.36718 z m -1.51562,0 q 0,-1.69531 -0.66407,-2.51562 -0.66406,-0.82813 -1.84375,-0.82813 -1.19531,0 -1.85937,0.82813 -0.65625,0.82031 -0.65625,2.51562 0,1.64063 0.66406,2.49219 0.66406,0.84375 1.85156,0.84375 1.17188,0 1.83594,-0.83594 0.67188,-0.84375 0.67188,-2.5 z m 9.23437,-2.76562 h -0.0781 q -0.32813,-0.0781 -0.64063,-0.10938 -0.30469,-0.0391 -0.72656,-0.0391 -0.67969,0 -1.3125,0.30469 -0.63281,0.29687 -1.21875,0.77344 V 240 h -1.46875 v -8.72656 h 1.46875 v 1.28906 q 0.875,-0.70313 1.53906,-0.99219 0.67188,-0.29687 1.36719,-0.29687 0.38281,0 0.55469,0.0234 0.17187,0.0156 0.51562,0.0703 z M 363.34375,240 h -7.04688 v -1.08594 L 361.38281,232.5 h -4.97656 v -1.22656 h 6.80469 v 1.04687 l -5.10938,6.4375 h 5.24219 z m 7.35156,-12.15625 -5.60156,14.53125 h -1.35156 l 5.57812,-14.53125 z m 10.78125,1.85937 q 0.71094,0.78125 1.08594,1.91407 0.38281,1.13281 0.38281,2.57031 0,1.4375 -0.39062,2.57812 -0.38282,1.13282 -1.07813,1.89063 -0.71875,0.78906 -1.70312,1.1875 -0.97657,0.39844 -2.23438,0.39844 -1.22656,0 -2.23437,-0.40625 -1,-0.40625 -1.70313,-1.17969 -0.70312,-0.77344 -1.08594,-1.89844 -0.375,-1.125 -0.375,-2.57031 0,-1.42188 0.375,-2.54688 0.375,-1.13281 1.09375,-1.9375 0.6875,-0.76562 1.70313,-1.17187 1.02344,-0.40625 2.22656,-0.40625 1.25,0 2.24219,0.41406 1,0.40625 1.69531,1.16406 z m -0.14062,4.48438 q 0,-2.26563 -1.01563,-3.49219 -1.01562,-1.23437 -2.77344,-1.23437 -1.77343,0 -2.78906,1.23437 -1.00781,1.22656 -1.00781,3.49219 0,2.28906 1.03125,3.50781 1.03125,1.21094 2.76562,1.21094 1.73438,0 2.75782,-1.21094 1.03125,-1.21875 1.03125,-3.50781 z m 12.51562,2.49219 q 0,0.67968 -0.32031,1.34375 -0.3125,0.66406 -0.88281,1.125 -0.625,0.5 -1.46094,0.78125 -0.82813,0.28125 -2,0.28125 -1.25781,0 -2.26563,-0.23438 -1,-0.23437 -2.03906,-0.69531 v -1.9375 h 0.10938 q 0.88281,0.73437 2.03906,1.13281 1.15625,0.39844 2.17187,0.39844 1.4375,0 2.23438,-0.53906 0.80469,-0.53907 0.80469,-1.4375 0,-0.77344 -0.38282,-1.14063 -0.375,-0.36719 -1.14843,-0.57031 -0.58594,-0.15625 -1.27344,-0.25781 -0.67969,-0.10157 -1.44531,-0.25782 -1.54688,-0.32812 -2.29688,-1.11718 -0.74219,-0.79688 -0.74219,-2.07032 0,-1.46093 1.23438,-2.39062 1.23437,-0.9375 3.13281,-0.9375 1.22656,0 2.25,0.23437 1.02344,0.23438 1.8125,0.57813 v 1.82812 h -0.10937 q -0.66407,-0.5625 -1.75,-0.92968 -1.07813,-0.375 -2.21094,-0.375 -1.24219,0 -2,0.51562 -0.75,0.51563 -0.75,1.32813 0,0.72656 0.375,1.14062 0.375,0.41406 1.32031,0.63281 0.5,0.10938 1.42188,0.26563 0.92187,0.15625 1.5625,0.32031 1.29687,0.34375 1.95312,1.03906 0.65625,0.69532 0.65625,1.94532 z"
   id="text31"
   style="font-size:16px;text-anchor:middle"
   aria-label="IBM Unified Management Server (UMS) for z/OS" /></svg>
