<?xml version="1.0" encoding="UTF-8" standalone="no"?>
<!-- Generator: Adobe Illustrator 23.0.1, SVG Export Plug-In . SVG Version: 6.00 Build 0) -->

<svg
   id="Layer_1"
   x="0px"
   y="0px"
   viewBox="0 0 400 300"
   style="enable-background:new 0 0 400 245;"
   xml:space="preserve"
   version="1.1"
   xmlns="http://www.w3.org/2000/svg"
   xmlns:svg="http://www.w3.org/2000/svg"><defs
   id="defs137" /> <style
   type="text/css"
   id="style2"> .st0{fill:#4C83C3;} </style> <g
   id="g130"> <path
   id="polygon4"
   class="st0"
   style="fill:#4c83c3"
   d="m 336.1,42.1 h 62.2 V 53.5 H 332 Z" /> <path
   class="st0"
   d="m 221.5,42.1 h 61.6 l 4,11.5 c 0,0 -65.6,0 -65.6,0 0.1,-0.1 0,-11.5 0,-11.5 z"
   id="path6" /> <path
   class="st0"
   d="m 172.7,42.1 c 10.1,1 19,4.6 26.5,11.5 0,0 -111.6,0 -111.6,0 0,0 0,-11.5 0,-11.5 z"
   id="path8" /> <g
   id="g14"> <path
   id="rect10"
   class="st0"
   style="fill:#4c83c3"
   d="m 0,42.099998 h 77.5 v 11.4 H 0 Z" /> <path
   class="st0"
   d="M 38.8,47.8"
   id="path12" /> </g> <path
   class="st0"
   d="m 398.3,75 h -73.9 c 0,0 4,-11.4 4,-11.4 h 69.9 z"
   id="path16" /> <path
   id="polygon18"
   class="st0"
   style="fill:#4c83c3"
   d="m 221.5,63.6 h 69.2 l 4.1,11.4 h -73.3 z" /> <path
   class="st0"
   d="m 207.8,63.6 c 1.5,3.8 3.2,7 3.2,11.4 H 87.6 V 63.6 Z"
   id="path20" /> <g
   id="g26"> <path
   id="rect22"
   class="st0"
   style="fill:#4c83c3"
   d="m 0,63.599998 h 77.5 v 11.4 H 0 Z" /> <path
   class="st0"
   d="M 38.8,69.3"
   id="path24" /> </g> <path
   id="polygon28"
   class="st0"
   style="fill:#4c83c3"
   d="m 376.4,85.1 v 11.4 h -59.6 l 4.1,-11.4 z" /> <path
   id="polygon30"
   class="st0"
   style="fill:#4c83c3"
   d="M 243.4,96.5 V 85.1 h 54.9 l 4.1,11.4 z" /> <path
   class="st0"
   d="m 212,85 c 0,3.9 -0.5,8 -1.6,11.4 H 176.6 V 85 Z"
   id="path32" /> <g
   id="g38"> <path
   id="rect34"
   class="st0"
   style="fill:#4c83c3"
   d="m 21.6,85.099998 h 33.3 v 11.4 H 21.6 Z" /> <path
   class="st0"
   d="M 38.3,90.8"
   id="path36" /> </g> <g
   id="g44"> <path
   id="rect40"
   class="st0"
   style="fill:#4c83c3"
   d="m 110,85 h 33.3 V 96.4 H 110 Z" /> <path
   class="st0"
   d="M 126.6,90.8"
   id="path42" /> </g> <path
   class="st0"
   d="m 276.1,108.8 c 0,0 0,8.7 0,8.7 h -32.8 v -11.4 h 62.4 l 3.9,10.6 c 0,0 3.7,-10.6 3.7,-10.6 h 62.9 v 11.4 h -32.6 c 0,0 0,-8.7 0,-8.7 l -3,8.7 H 279 Z"
   id="path46" /> <path
   class="st0"
   d="m 110,106.1 h 95.5 v 0 c -2.1,3.8 -5.9,8.4 -9.5,11.4 0,0 -86,0 -86,0 0,0 0,-11.4 0,-11.4 z"
   id="path48" /> <g
   id="g54"> <path
   id="rect50"
   class="st0"
   style="fill:#4c83c3"
   d="m 21.6,106.1 h 33.3 v 11.4 H 21.6 Z" /> <path
   class="st0"
   d="M 38.3,111.8"
   id="path52" /> </g> <g
   id="g60"> <path
   id="rect56"
   class="st0"
   style="fill:#4c83c3"
   d="m 343.79999,127.6 h 32.6 V 139 h -32.6 z" /> <path
   class="st0"
   d="M 360.1,133.3"
   id="path58" /> </g> <path
   class="st0"
   d="M 276.1,127.6 H 243.3 V 139 c 0,0 32.8,0 32.8,0 0,-0.1 0.1,-11.4 0,-11.4 z"
   id="path62" /> <path
   class="st0"
   d="m 337.2,127.6 c -0.1,0 -3.8,11.4 -4,11.4 h -46.4 c 0,0 -4.1,-11.4 -4.1,-11.4 z"
   id="path64" /> <path
   class="st0"
   d="m 110,127.6 h 85.8 c 3.9,3.3 7.5,7.3 10.2,11.4 0.2,0 -96.1,0 -96.1,0 0.1,-0.1 0.1,-11.4 0.1,-11.4 z"
   id="path66" /> <path
   class="st0"
   d="M 54.9,138.9 V 127.5 H 21.7 c 0,0 0,11.4 0,11.4 0,0 33.2,0 33.2,0 z"
   id="path68" /> <g
   id="g74"> <path
   id="rect70"
   class="st0"
   style="fill:#4c83c3"
   d="m 343.79999,149 h 32.6 v 11.4 h -32.6 z" /> <path
   class="st0"
   d="M 360.1,154.7"
   id="path72" /> </g> <g
   id="g80"> <path
   id="rect76"
   class="st0"
   style="fill:#4c83c3"
   d="m 243.39999,149 h 32.8 v 11.4 h -32.8 z" /> <path
   class="st0"
   d="M 259.8,154.7"
   id="path78" /> </g> <path
   class="st0"
   d="m 325.6,160.4 c 0,-0.1 4,-11.4 4.1,-11.4 h -39.5 c -0.1,0 4,11.4 4,11.4 0,0 31.4,0.1 31.4,0 z"
   id="path82" /> <path
   class="st0"
   d="m 110,160.4 c 0,0 0,-11.4 0,-11.4 h 33.8 c 0,0 0,11.4 0,11.4 -0.1,0 -33.8,0 -33.8,0 z"
   id="path84" /> <path
   class="st0"
   d="m 210.8,149 c 1.6,3.4 1.8,7.5 2.1,11.4 H 177.1 V 149 Z"
   id="path86" /> <g
   id="g92"> <path
   id="rect88"
   class="st0"
   style="fill:#4c83c3"
   d="M 21.700001,149 H 55 v 11.4 H 21.700001 Z" /> <path
   class="st0"
   d="M 38.3,154.7"
   id="path90" /> </g> <g
   id="g98"> <path
   id="rect94"
   class="st0"
   style="fill:#4c83c3"
   d="m 343.79999,170 h 54.5 v 11.4 h -54.5 z" /> <path
   class="st0"
   d="M 371,175.7"
   id="path96" /> </g> <g
   id="g104"> <path
   id="rect100"
   class="st0"
   style="fill:#4c83c3"
   d="m 221.5,170 h 54.6 v 11.4 h -54.6 z" /> <path
   class="st0"
   d="M 248.8,175.7"
   id="path102" /> </g> <path
   id="polygon106"
   class="st0"
   style="fill:#4c83c3"
   d="m 297.6,170 h 24.5 l -3.9,11.4 h -16.6 z" /> <path
   class="st0"
   d="m 0,170 v 11.4 h 77.5 c 0,0 0,-11.4 0,-11.4 0,0 -77.6,0 -77.5,0 z"
   id="path108" /> <path
   class="st0"
   d="m 211.5,170 c -0.8,3.8 -1.6,8.3 -4.3,11.4 h -1 H 87.6 V 170 Z"
   id="path110" /> <path
   id="polygon112"
   class="st0"
   style="fill:#4c83c3"
   d="m 305.3,191.5 h 9.4 l -4,11.4 h -1.5 z" /> <g
   id="g118"> <path
   id="rect114"
   class="st0"
   style="fill:#4c83c3"
   d="m 343.79999,191.5 h 54.5 v 11.4 h -54.5 z" /> <path
   class="st0"
   d="M 371,197.2"
   id="path116" /> </g> <path
   class="st0"
   d="m 87.6,202.9 v -11.4 c 0,0 111.9,0 112.2,0 -7.5,7.2 -17.8,11.2 -28.9,11.4 H 87.6"
   id="path120" /> <g
   id="g126"> <path
   id="rect122"
   class="st0"
   style="fill:#4c83c3"
   d="m 221.5,191.5 h 54.6 v 11.4 h -54.6 z" /> <path
   class="st0"
   d="M 248.8,197.2"
   id="path124" /> </g> <path
   class="st0"
   d="m 77.5,191.5 c 0,0 0,11.4 0,11.4 0,0 -77.4,0 -77.5,0 0,0 0,-11.4 0,-11.4 0,0 77.4,0.1 77.5,0 z"
   id="path128" /> </g> <g
   aria-label="IBM® Db2 Administration Foundation for z/OS"
   id="text132"
   style="font-size:22px;text-anchor:middle"><path
     d="m -50.475586,240 h -6.316406 v -1.63281 h 2.094726 V 225.6377 h -2.094726 v -1.63282 h 6.316406 v 1.63282 h -2.094726 v 12.72949 h 2.094726 z"
     style="font-size:22px;text-anchor:middle"
     id="path158" /><path
     d="m -34.770508,235.08008 q 0,1.19238 -0.451172,2.10547 -0.451172,0.91308 -1.213867,1.5039 -0.902344,0.70899 -1.987305,1.00977 Q -39.49707,240 -41.162109,240 h -5.671875 v -15.99512 h 4.737304 q 1.750977,0 2.621094,0.12891 0.870117,0.12891 1.665039,0.53711 0.88086,0.46191 1.27832,1.19238 0.397461,0.71973 0.397461,1.72949 0,1.13868 -0.580078,1.94434 -0.580078,0.79492 -1.546875,1.27832 v 0.0859 q 1.622071,0.333 2.556641,1.42871 0.93457,1.08496 0.93457,2.75 z m -3.577148,-7.20801 q 0,-0.58008 -0.19336,-0.97754 -0.193359,-0.39746 -0.623046,-0.64453 -0.504883,-0.29004 -1.22461,-0.35449 -0.719726,-0.0752 -1.783203,-0.0752 h -2.535156 v 4.61914 h 2.75 q 0.999023,0 1.589844,-0.0967 0.59082,-0.10742 1.095703,-0.42968 0.504882,-0.32227 0.708984,-0.82715 0.214844,-0.51563 0.214844,-1.21387 z m 1.364258,7.29395 q 0,-0.9668 -0.290039,-1.53614 -0.29004,-0.56933 -1.052735,-0.96679 -0.515625,-0.26856 -1.256836,-0.34375 -0.730469,-0.0859 -1.783203,-0.0859 h -3.34082 v 5.95117 h 2.814453 q 1.396484,0 2.288086,-0.13965 0.891601,-0.15039 1.460937,-0.53711 0.601563,-0.41894 0.88086,-0.95605 0.279297,-0.53711 0.279297,-1.38574 z"
     style="font-size:22px;text-anchor:middle"
     id="path160" /><path
     d="m -17.507812,240 h -2.126954 v -13.78223 l -4.447265,9.37793 h -1.267578 l -4.415039,-9.37793 V 240 h -1.987305 v -15.99512 h 2.900391 l 4.264648,8.90528 4.125,-8.90528 h 2.954102 z"
     style="font-size:22px;text-anchor:middle"
     id="path162" /><path
     d="m 4.9541016,232.96387 q 0,3.8457 -2.7285157,6.57422 -2.7177734,2.71777 -6.5634765,2.71777 -3.8457032,0 -6.5742184,-2.71777 -2.717774,-2.72852 -2.717774,-6.57422 0,-3.84571 2.717774,-6.56348 2.7285152,-2.72852 6.5742184,-2.72852 3.8457031,0 6.5634765,2.72852 2.7285157,2.71777 2.7285157,6.56348 z m -1.2460938,0 q 0,-3.33008 -2.3632812,-5.71485 -2.3525391,-2.38476 -5.6826172,-2.38476 -3.3300781,0 -5.6933594,2.38476 -2.352539,2.38477 -2.352539,5.71485 0,3.33008 2.352539,5.71484 2.3632813,2.38477 5.6933594,2.38477 3.3300781,0 5.6826172,-2.38477 2.3632812,-2.38476 2.3632812,-5.71484 z m -2.0625,4.72656 H -0.75 l -3.5556641,-3.81348 h -1.7402343 v 3.81348 h -1.772461 v -9.8291 h 3.3515625 q 1.0097656,0 1.6650391,0.0859 0.6552734,0.0859 1.2890625,0.41894 0.6767578,0.36524 0.98828124,0.8916 0.32226562,0.51563 0.32226562,1.29981 0,1.04199 -0.61230469,1.74023 -0.60156247,0.6875 -1.66503907,1.0957 z m -3.78125,-7.01465 q 0,-0.38672 -0.1503906,-0.6875 -0.1503906,-0.30078 -0.5048828,-0.49414 -0.3330078,-0.18262 -0.7089844,-0.23633 -0.3759766,-0.0537 -0.9453125,-0.0537 h -1.6005859 v 3.31934 h 1.3642578 q 0.6660156,0 1.149414,-0.0967 0.4833985,-0.10742 0.7949219,-0.35449 0.3330078,-0.26856 0.4619141,-0.59082 0.1396484,-0.32227 0.1396484,-0.80567 z"
     style="font-size:22px;text-anchor:middle"
     id="path164" /><path
     d="m 30.058594,232.01855 q 0,2.18067 -0.956055,3.95313 -0.945312,1.77246 -2.524414,2.75 -1.095703,0.67676 -2.449219,0.97754 Q 22.786133,240 20.583984,240 h -4.039062 v -15.99512 h 3.996094 q 2.341796,0 3.716796,0.34375 1.385743,0.33301 2.341797,0.92383 1.632813,1.02051 2.545899,2.71777 0.913086,1.69727 0.913086,4.02832 z m -2.223633,-0.0322 q 0,-1.87988 -0.655274,-3.16895 -0.655273,-1.28906 -1.955078,-2.03027 -0.945312,-0.53711 -2.008789,-0.74121 -1.063476,-0.21485 -2.545898,-0.21485 h -1.998047 v 12.34278 h 1.998047 q 1.536133,0 2.674805,-0.22559 1.149414,-0.22558 2.105468,-0.83789 1.192383,-0.76269 1.783203,-2.00879 0.601563,-1.24609 0.601563,-3.11523 z"
     style="font-size:22px;text-anchor:middle"
     id="path166" /><path
     d="m 43.916016,233.90918 q 0,1.50391 -0.429688,2.70703 -0.418945,1.20313 -1.138672,2.01953 -0.762695,0.84863 -1.675781,1.27832 -0.913086,0.41895 -2.008789,0.41895 -1.020508,0 -1.783203,-0.24707 -0.762696,-0.23633 -1.503906,-0.64453 L 35.24707,240 h -1.890625 v -16.71484 h 2.019532 v 5.97265 q 0.848632,-0.69824 1.804687,-1.13867 0.956055,-0.45117 2.148438,-0.45117 2.126953,0 3.351562,1.63281 1.235352,1.63281 1.235352,4.6084 z m -2.083985,0.0537 q 0,-2.14844 -0.708984,-3.25488 -0.708985,-1.11719 -2.288086,-1.11719 -0.880859,0 -1.783203,0.38672 -0.902344,0.37598 -1.675781,0.97754 v 6.875 q 0.859375,0.38672 1.471679,0.53711 0.623047,0.15039 1.407227,0.15039 1.675781,0 2.621094,-1.09571 0.956054,-1.10644 0.956054,-3.45898 z"
     style="font-size:22px;text-anchor:middle"
     id="path168" /><path
     d="M 57.633789,240 H 46.805664 v -2.24512 q 1.12793,-0.96679 2.255859,-1.93359 1.138672,-0.9668 2.116211,-1.92285 2.0625,-1.99805 2.825196,-3.16895 0.762695,-1.18164 0.762695,-2.5459 0,-1.24609 -0.827148,-1.94433 -0.816407,-0.70899 -2.288086,-0.70899 -0.977539,0 -2.116211,0.34375 -1.138672,0.34375 -2.223633,1.05274 h -0.107422 v -2.25586 q 0.762695,-0.37598 2.030273,-0.6875 1.278321,-0.31153 2.470704,-0.31153 2.45996,0 3.856445,1.19239 1.396484,1.18164 1.396484,3.21191 0,0.91309 -0.236328,1.70801 -0.225586,0.78418 -0.676758,1.49316 -0.418945,0.66602 -0.988281,1.31055 -0.558594,0.64453 -1.364258,1.42871 -1.149414,1.12793 -2.374023,2.19141 -1.22461,1.05273 -2.288086,1.95508 h 8.604492 z"
     style="font-size:22px;text-anchor:middle"
     id="path170" /><path
     d="m 81.578125,240 h -2.266602 l -1.568359,-4.45801 H 70.825195 L 69.256836,240 h -2.15918 l 5.822266,-15.99512 h 2.835937 z m -4.490234,-6.28418 -2.803711,-7.85254 -2.814453,7.85254 z"
     style="font-size:22px;text-anchor:middle"
     id="path172" /><path
     d="m 93.577148,240 h -2.019531 v -1.25684 q -0.870117,0.75196 -1.81543,1.1709 -0.945312,0.41895 -2.051757,0.41895 -2.148438,0 -3.416016,-1.6543 -1.256836,-1.6543 -1.256836,-4.58691 0,-1.52539 0.429688,-2.71778 0.440429,-1.19238 1.18164,-2.03027 0.730469,-0.81641 1.697266,-1.24609 0.977539,-0.42969 2.019531,-0.42969 0.945313,0 1.675781,0.2041 0.730469,0.19336 1.536133,0.6123 v -5.19921 h 2.019531 z m -2.019531,-2.9541 v -6.88574 q -0.816406,-0.36524 -1.460937,-0.50489 -0.644532,-0.13965 -1.407227,-0.13965 -1.697266,0 -2.642578,1.18165 -0.945313,1.18164 -0.945313,3.35156 0,2.13769 0.730469,3.25488 0.730469,1.10645 2.341797,1.10645 0.859375,0 1.740234,-0.37598 0.88086,-0.38672 1.643555,-0.98828 z"
     style="font-size:22px;text-anchor:middle"
     id="path174" /><path
     d="m 115.06152,240 h -2.01953 v -6.83203 q 0,-0.77344 -0.0752,-1.49317 -0.0645,-0.71972 -0.29004,-1.14941 -0.24707,-0.46191 -0.70899,-0.69824 -0.46191,-0.23633 -1.33203,-0.23633 -0.84863,0 -1.69726,0.42969 -0.84864,0.41894 -1.69727,1.07422 0.0322,0.24707 0.0537,0.58007 0.0215,0.32227 0.0215,0.64454 V 240 h -2.01953 v -6.83203 q 0,-0.79492 -0.0752,-1.50391 -0.0645,-0.71972 -0.29004,-1.14941 -0.24707,-0.46192 -0.70898,-0.6875 -0.46192,-0.23633 -1.33203,-0.23633 -0.82715,0 -1.66504,0.4082 -0.82715,0.40821 -1.654301,1.042 V 240 h -2.019531 v -11.99902 h 2.019531 v 1.33203 q 0.945311,-0.78418 1.879881,-1.22461 0.94531,-0.44043 2.00879,-0.44043 1.22461,0 2.07324,0.51562 0.85938,0.51563 1.27832,1.42871 1.22461,-1.03125 2.23438,-1.48242 1.00976,-0.46191 2.15918,-0.46191 1.97656,0 2.91113,1.20312 0.94531,1.19239 0.94531,3.34082 z"
     style="font-size:22px;text-anchor:middle"
     id="path176" /><path
     d="m 121.12012,225.99219 h -2.27735 v -2.09473 h 2.27735 z M 120.99121,240 h -2.01953 v -11.99902 h 2.01953 z"
     style="font-size:22px;text-anchor:middle"
     id="path178" /><path
     d="m 135.04199,240 h -2.01953 v -6.83203 q 0,-0.82715 -0.0967,-1.54688 -0.0967,-0.73047 -0.35449,-1.13867 -0.26856,-0.45117 -0.77344,-0.66601 -0.50488,-0.22559 -1.31055,-0.22559 -0.82714,0 -1.72949,0.4082 -0.90234,0.40821 -1.72949,1.042 V 240 h -2.01953 v -11.99902 h 2.01953 v 1.33203 q 0.94531,-0.78418 1.95508,-1.22461 1.00976,-0.44043 2.07324,-0.44043 1.94434,0 2.96484,1.1709 1.02051,1.1709 1.02051,3.37304 z"
     style="font-size:22px;text-anchor:middle"
     id="path180" /><path
     d="m 141.10059,225.99219 h -2.27735 v -2.09473 h 2.27735 z M 140.97168,240 h -2.01953 v -11.99902 h 2.01953 z"
     style="font-size:22px;text-anchor:middle"
     id="path182" /><path
     d="m 153.56152,236.54102 q 0,1.64355 -1.36425,2.69628 -1.35352,1.05274 -3.70606,1.05274 -1.33203,0 -2.44922,-0.31152 -1.10644,-0.32227 -1.8584,-0.69825 v -2.2666 h 0.10743 q 0.95605,0.71973 2.12695,1.14942 1.1709,0.41894 2.24512,0.41894 1.33203,0 2.08398,-0.42969 0.75195,-0.42968 0.75195,-1.35351 0,-0.70899 -0.4082,-1.07422 -0.4082,-0.36524 -1.56836,-0.62305 -0.42969,-0.0967 -1.12793,-0.22558 -0.6875,-0.12891 -1.25683,-0.2793 -1.57911,-0.41895 -2.24512,-1.22461 -0.65528,-0.81641 -0.65528,-1.99805 0,-0.74121 0.30079,-1.39648 0.31152,-0.65527 0.93457,-1.1709 0.60156,-0.50488 1.52539,-0.79492 0.93457,-0.30078 2.08398,-0.30078 1.07422,0 2.16992,0.26855 1.10645,0.25781 1.83692,0.63379 v 2.15918 h -0.10742 q -0.77344,-0.56934 -1.87989,-0.95605 -1.10644,-0.39746 -2.16992,-0.39746 -1.10644,0 -1.86914,0.42968 -0.7627,0.41895 -0.7627,1.25684 0,0.74121 0.46192,1.11719 0.45117,0.37597 1.46094,0.6123 0.55859,0.12891 1.24609,0.25781 0.69824,0.12891 1.16016,0.23633 1.40722,0.32227 2.16992,1.10645 0.76269,0.79492 0.76269,2.10547 z"
     style="font-size:22px;text-anchor:middle"
     id="path184" /><path
     d="m 162.69238,239.89258 q -0.56933,0.15039 -1.24609,0.24707 -0.66602,0.0967 -1.19238,0.0967 -1.83692,0 -2.79297,-0.98828 -0.95606,-0.98828 -0.95606,-3.16895 v -6.38086 h -1.36426 v -1.69726 h 1.36426 v -3.44825 h 2.01953 v 3.44825 h 4.16797 v 1.69726 h -4.16797 v 5.46778 q 0,0.94531 0.043,1.48242 0.043,0.52636 0.30078,0.98828 0.23633,0.42969 0.64454,0.63379 0.41894,0.19336 1.26757,0.19336 0.49414,0 1.03125,-0.13965 0.53711,-0.15039 0.77344,-0.24707 h 0.10742 z"
     style="font-size:22px;text-anchor:middle"
     id="path186" /><path
     d="m 172.62891,230.20312 h -0.10743 q -0.45117,-0.10742 -0.88086,-0.15039 -0.41894,-0.0537 -0.99902,-0.0537 -0.93457,0 -1.80469,0.41895 -0.87011,0.4082 -1.67578,1.06348 V 240 h -2.01953 v -11.99902 h 2.01953 v 1.77246 q 1.20313,-0.9668 2.11621,-1.36426 0.92383,-0.4082 1.87989,-0.4082 0.52636,0 0.76269,0.0322 0.23633,0.0215 0.70899,0.0967 z"
     style="font-size:22px;text-anchor:middle"
     id="path188" /><path
     d="m 183.87598,240 h -2.00879 v -1.27832 q -0.26856,0.18262 -0.73047,0.51562 -0.45117,0.32227 -0.88086,0.51563 -0.50488,0.24707 -1.16016,0.4082 -0.65527,0.17188 -1.53613,0.17188 -1.62207,0 -2.75,-1.07422 -1.12793,-1.07422 -1.12793,-2.73926 0,-1.36426 0.58008,-2.20215 0.59082,-0.84863 1.67578,-1.33203 1.0957,-0.4834 2.63184,-0.65527 1.53613,-0.17188 3.29785,-0.25781 v -0.31153 q 0,-0.6875 -0.24707,-1.13867 -0.23633,-0.45117 -0.6875,-0.70898 -0.42969,-0.24707 -1.03125,-0.33301 -0.60157,-0.0859 -1.25684,-0.0859 -0.79492,0 -1.77246,0.21484 -0.97754,0.20411 -2.01953,0.60157 h -0.10742 v -2.05176 q 0.59082,-0.16113 1.708,-0.35449 1.11719,-0.19336 2.20215,-0.19336 1.26758,0 2.20215,0.21484 0.94531,0.2041 1.63281,0.70899 0.67676,0.49414 1.03125,1.27832 0.3545,0.78418 0.3545,1.94433 z m -2.00879,-2.9541 v -3.34082 q -0.92383,0.0537 -2.18067,0.16113 -1.24609,0.10742 -1.97656,0.31152 -0.87012,0.24707 -1.40723,0.77344 -0.53711,0.51563 -0.53711,1.42871 0,1.03125 0.62305,1.55762 0.62305,0.51562 1.90137,0.51562 1.06348,0 1.94433,-0.4082 0.88086,-0.41894 1.63282,-0.99902 z"
     style="font-size:22px;text-anchor:middle"
     id="path190" /><path
     d="m 194.0166,239.89258 q -0.56933,0.15039 -1.24609,0.24707 -0.66602,0.0967 -1.19239,0.0967 -1.83691,0 -2.79296,-0.98828 -0.95606,-0.98828 -0.95606,-3.16895 v -6.38086 h -1.36426 v -1.69726 h 1.36426 v -3.44825 h 2.01953 v 3.44825 h 4.16797 v 1.69726 h -4.16797 v 5.46778 q 0,0.94531 0.043,1.48242 0.043,0.52636 0.30078,0.98828 0.23633,0.42969 0.64453,0.63379 0.41895,0.19336 1.26758,0.19336 0.49414,0 1.03125,-0.13965 0.53711,-0.15039 0.77344,-0.24707 h 0.10742 z"
     style="font-size:22px;text-anchor:middle"
     id="path192" /><path
     d="m 198.63574,225.99219 h -2.27734 v -2.09473 h 2.27734 z M 198.50684,240 h -2.01954 v -11.99902 h 2.01954 z"
     style="font-size:22px;text-anchor:middle"
     id="path194" /><path
     d="m 212.75098,234.00586 q 0,2.93262 -1.50391,4.62988 -1.50391,1.69727 -4.02832,1.69727 -2.5459,0 -4.0498,-1.69727 -1.49317,-1.69726 -1.49317,-4.62988 0,-2.93262 1.49317,-4.62988 1.5039,-1.70801 4.0498,-1.70801 2.52441,0 4.02832,1.70801 1.50391,1.69726 1.50391,4.62988 z m -2.08399,0 q 0,-2.33106 -0.91308,-3.45899 -0.91309,-1.13867 -2.53516,-1.13867 -1.64355,0 -2.55664,1.13867 -0.90234,1.12793 -0.90234,3.45899 0,2.25586 0.91308,3.42676 0.91309,1.16015 2.5459,1.16015 1.61133,0 2.52441,-1.14941 0.92383,-1.16016 0.92383,-3.4375 z"
     style="font-size:22px;text-anchor:middle"
     id="path196" /><path
     d="m 225.9209,240 h -2.01953 v -6.83203 q 0,-0.82715 -0.0967,-1.54688 -0.0967,-0.73047 -0.35449,-1.13867 -0.26856,-0.45117 -0.77344,-0.66601 -0.50489,-0.22559 -1.31055,-0.22559 -0.82715,0 -1.72949,0.4082 -0.90235,0.40821 -1.72949,1.042 V 240 h -2.01953 v -11.99902 h 2.01953 v 1.33203 q 0.94531,-0.78418 1.95507,-1.22461 1.00977,-0.44043 2.07325,-0.44043 1.94433,0 2.96484,1.1709 1.02051,1.1709 1.02051,3.37304 z"
     style="font-size:22px;text-anchor:middle"
     id="path198" /><path
     d="m 247.9209,225.89551 h -8.08887 v 4.51172 h 6.9502 v 1.89062 h -6.9502 V 240 h -2.12695 v -15.99512 h 10.21582 z"
     style="font-size:22px;text-anchor:middle"
     id="path200" /><path
     d="m 260.40332,234.00586 q 0,2.93262 -1.50391,4.62988 -1.5039,1.69727 -4.02832,1.69727 -2.54589,0 -4.0498,-1.69727 -1.49317,-1.69726 -1.49317,-4.62988 0,-2.93262 1.49317,-4.62988 1.50391,-1.70801 4.0498,-1.70801 2.52442,0 4.02832,1.70801 1.50391,1.69726 1.50391,4.62988 z m -2.08398,0 q 0,-2.33106 -0.91309,-3.45899 -0.91309,-1.13867 -2.53516,-1.13867 -1.64355,0 -2.55664,1.13867 -0.90234,1.12793 -0.90234,3.45899 0,2.25586 0.91309,3.42676 0.91308,1.16015 2.54589,1.16015 1.61133,0 2.52442,-1.14941 0.92383,-1.16016 0.92383,-3.4375 z"
     style="font-size:22px;text-anchor:middle"
     id="path202" /><path
     d="m 273.4873,240 h -2.01953 v -1.33203 q -1.0205,0.80566 -1.95507,1.23535 -0.93458,0.42969 -2.0625,0.42969 -1.89063,0 -2.94336,-1.14942 -1.05274,-1.16015 -1.05274,-3.39453 v -7.78808 h 2.01953 v 6.83203 q 0,0.91308 0.0859,1.56836 0.0859,0.64453 0.36523,1.10644 0.29004,0.47266 0.75196,0.6875 0.46191,0.21485 1.34277,0.21485 0.78418,0 1.70801,-0.40821 0.93457,-0.4082 1.74023,-1.04199 v -8.95898 h 2.01953 z"
     style="font-size:22px;text-anchor:middle"
     id="path204" /><path
     d="m 287.49512,240 h -2.01953 v -6.83203 q 0,-0.82715 -0.0967,-1.54688 -0.0967,-0.73047 -0.3545,-1.13867 -0.26855,-0.45117 -0.77343,-0.66601 -0.50489,-0.22559 -1.31055,-0.22559 -0.82715,0 -1.72949,0.4082 -0.90235,0.40821 -1.72949,1.042 V 240 h -2.01954 v -11.99902 h 2.01954 v 1.33203 q 0.94531,-0.78418 1.95507,-1.22461 1.00977,-0.44043 2.07325,-0.44043 1.94433,0 2.96484,1.1709 1.02051,1.1709 1.02051,3.37304 z"
     style="font-size:22px;text-anchor:middle"
     id="path206" /><path
     d="m 301.11621,240 h -2.01953 v -1.25684 q -0.87012,0.75196 -1.81543,1.1709 -0.94531,0.41895 -2.05176,0.41895 -2.14844,0 -3.41601,-1.6543 -1.25684,-1.6543 -1.25684,-4.58691 0,-1.52539 0.42969,-2.71778 0.44043,-1.19238 1.18164,-2.03027 0.73047,-0.81641 1.69726,-1.24609 0.97754,-0.42969 2.01954,-0.42969 0.94531,0 1.67578,0.2041 0.73047,0.19336 1.53613,0.6123 v -5.19921 h 2.01953 z m -2.01953,-2.9541 v -6.88574 q -0.81641,-0.36524 -1.46094,-0.50489 -0.64453,-0.13965 -1.40722,-0.13965 -1.69727,0 -2.64258,1.18165 -0.94532,1.18164 -0.94532,3.35156 0,2.13769 0.73047,3.25488 0.73047,1.10645 2.3418,1.10645 0.85938,0 1.74023,-0.37598 0.88086,-0.38672 1.64356,-0.98828 z"
     style="font-size:22px;text-anchor:middle"
     id="path208" /><path
     d="m 314.41504,240 h -2.00879 v -1.27832 q -0.26855,0.18262 -0.73047,0.51562 -0.45117,0.32227 -0.88086,0.51563 -0.50488,0.24707 -1.16015,0.4082 -0.65528,0.17188 -1.53614,0.17188 -1.62207,0 -2.75,-1.07422 -1.12793,-1.07422 -1.12793,-2.73926 0,-1.36426 0.58008,-2.20215 0.59082,-0.84863 1.67578,-1.33203 1.09571,-0.4834 2.63184,-0.65527 1.53613,-0.17188 3.29785,-0.25781 v -0.31153 q 0,-0.6875 -0.24707,-1.13867 -0.23633,-0.45117 -0.6875,-0.70898 -0.42969,-0.24707 -1.03125,-0.33301 -0.60156,-0.0859 -1.25684,-0.0859 -0.79492,0 -1.77246,0.21484 -0.97754,0.20411 -2.01953,0.60157 h -0.10742 v -2.05176 q 0.59082,-0.16113 1.70801,-0.35449 1.11718,-0.19336 2.20215,-0.19336 1.26757,0 2.20214,0.21484 0.94532,0.2041 1.63282,0.70899 0.67675,0.49414 1.03125,1.27832 0.35449,0.78418 0.35449,1.94433 z m -2.00879,-2.9541 v -3.34082 q -0.92383,0.0537 -2.18066,0.16113 -1.2461,0.10742 -1.97657,0.31152 -0.87011,0.24707 -1.40722,0.77344 -0.53711,0.51563 -0.53711,1.42871 0,1.03125 0.62304,1.55762 0.62305,0.51562 1.90137,0.51562 1.06348,0 1.94434,-0.4082 0.88086,-0.41894 1.63281,-0.99902 z"
     style="font-size:22px;text-anchor:middle"
     id="path210" /><path
     d="m 324.55566,239.89258 q -0.56933,0.15039 -1.24609,0.24707 -0.66602,0.0967 -1.19238,0.0967 -1.83692,0 -2.79297,-0.98828 -0.95606,-0.98828 -0.95606,-3.16895 v -6.38086 h -1.36425 v -1.69726 h 1.36425 v -3.44825 h 2.01954 v 3.44825 h 4.16796 v 1.69726 h -4.16796 v 5.46778 q 0,0.94531 0.043,1.48242 0.043,0.52636 0.30079,0.98828 0.23632,0.42969 0.64453,0.63379 0.41894,0.19336 1.26757,0.19336 0.49415,0 1.03125,-0.13965 0.53711,-0.15039 0.77344,-0.24707 h 0.10742 z"
     style="font-size:22px;text-anchor:middle"
     id="path212" /><path
     d="m 329.1748,225.99219 h -2.27734 v -2.09473 h 2.27734 z M 329.0459,240 h -2.01953 v -11.99902 h 2.01953 z"
     style="font-size:22px;text-anchor:middle"
     id="path214" /><path
     d="m 343.29004,234.00586 q 0,2.93262 -1.50391,4.62988 -1.5039,1.69727 -4.02832,1.69727 -2.5459,0 -4.0498,-1.69727 -1.49317,-1.69726 -1.49317,-4.62988 0,-2.93262 1.49317,-4.62988 1.5039,-1.70801 4.0498,-1.70801 2.52442,0 4.02832,1.70801 1.50391,1.69726 1.50391,4.62988 z m -2.08399,0 q 0,-2.33106 -0.91308,-3.45899 -0.91309,-1.13867 -2.53516,-1.13867 -1.64355,0 -2.55664,1.13867 -0.90234,1.12793 -0.90234,3.45899 0,2.25586 0.91308,3.42676 0.91309,1.16015 2.5459,1.16015 1.61133,0 2.52442,-1.14941 0.92382,-1.16016 0.92382,-3.4375 z"
     style="font-size:22px;text-anchor:middle"
     id="path216" /><path
     d="m 356.45996,240 h -2.01953 v -6.83203 q 0,-0.82715 -0.0967,-1.54688 -0.0967,-0.73047 -0.35449,-1.13867 -0.26856,-0.45117 -0.77344,-0.66601 -0.50488,-0.22559 -1.31055,-0.22559 -0.82715,0 -1.72949,0.4082 -0.90234,0.40821 -1.72949,1.042 V 240 h -2.01953 v -11.99902 h 2.01953 v 1.33203 q 0.94531,-0.78418 1.95508,-1.22461 1.00976,-0.44043 2.07324,-0.44043 1.94434,0 2.96484,1.1709 1.02051,1.1709 1.02051,3.37304 z"
     style="font-size:22px;text-anchor:middle"
     id="path218" /><path
     d="m 374.53906,225.24023 h -0.10742 q -0.33301,-0.0967 -0.87012,-0.19336 -0.53711,-0.10742 -0.94531,-0.10742 -1.2998,0 -1.89062,0.58008 -0.58008,0.56934 -0.58008,2.07324 v 0.40821 h 3.6416 v 1.69726 h -3.57715 V 240 h -2.01953 v -10.30176 h -1.36426 v -1.69726 h 1.36426 v -0.39746 q 0,-2.1377 1.06348,-3.27637 1.06347,-1.14942 3.07226,-1.14942 0.67676,0 1.21387,0.0645 0.54785,0.0644 0.99902,0.15039 z"
     style="font-size:22px;text-anchor:middle"
     id="path220" /><path
     d="m 386.04395,234.00586 q 0,2.93262 -1.50391,4.62988 -1.50391,1.69727 -4.02832,1.69727 -2.5459,0 -4.04981,-1.69727 -1.49316,-1.69726 -1.49316,-4.62988 0,-2.93262 1.49316,-4.62988 1.50391,-1.70801 4.04981,-1.70801 2.52441,0 4.02832,1.70801 1.50391,1.69726 1.50391,4.62988 z m -2.08399,0 q 0,-2.33106 -0.91309,-3.45899 -0.91308,-1.13867 -2.53515,-1.13867 -1.64356,0 -2.55664,1.13867 -0.90235,1.12793 -0.90235,3.45899 0,2.25586 0.91309,3.42676 0.91309,1.16015 2.5459,1.16015 1.61133,0 2.52441,-1.14941 0.92383,-1.16016 0.92383,-3.4375 z"
     style="font-size:22px;text-anchor:middle"
     id="path222" /><path
     d="m 396.66797,230.20312 h -0.10742 q -0.45118,-0.10742 -0.88086,-0.15039 -0.41895,-0.0537 -0.99903,-0.0537 -0.93457,0 -1.80468,0.41895 -0.87012,0.4082 -1.67578,1.06348 V 240 h -2.01954 v -11.99902 h 2.01954 v 1.77246 q 1.20312,-0.9668 2.11621,-1.36426 0.92382,-0.4082 1.87988,-0.4082 0.52637,0 0.76269,0.0322 0.23633,0.0215 0.70899,0.0967 z"
     style="font-size:22px;text-anchor:middle"
     id="path224" /><path
     d="m 415.02637,240 h -9.68946 v -1.49316 l 6.99317,-8.81934 h -6.84278 v -1.68652 h 9.35645 v 1.43945 l -7.02539,8.85156 h 7.20801 z"
     style="font-size:22px;text-anchor:middle"
     id="path226" /><path
     d="m 425.13477,223.28516 -7.70215,19.98046 h -1.8584 l 7.66992,-19.98046 z"
     style="font-size:22px;text-anchor:middle"
     id="path228" /><path
     d="m 439.98047,225.8418 q 0.97754,1.07422 1.49316,2.63183 0.52637,1.55762 0.52637,3.53418 0,1.97656 -0.53711,3.54492 -0.52637,1.55762 -1.48242,2.59961 -0.98828,1.08496 -2.3418,1.63282 -1.34277,0.54785 -3.07226,0.54785 -1.68653,0 -3.07227,-0.5586 -1.375,-0.55859 -2.3418,-1.62207 -0.96679,-1.06347 -1.49316,-2.61035 -0.51563,-1.54687 -0.51563,-3.53418 0,-1.95508 0.51563,-3.50195 0.51562,-1.55762 1.50391,-2.66406 0.94531,-1.05274 2.34179,-1.61133 1.40723,-0.5586 3.06153,-0.5586 1.71875,0 3.083,0.56934 1.375,0.55859 2.33106,1.60059 z m -0.19336,6.16601 q 0,-3.11523 -1.39649,-4.80176 -1.39648,-1.69726 -3.81347,-1.69726 -2.43848,0 -3.83496,1.69726 -1.38574,1.68653 -1.38574,4.80176 0,3.14746 1.41796,4.82324 1.41797,1.66504 3.80274,1.66504 2.38476,0 3.79199,-1.66504 1.41797,-1.67578 1.41797,-4.82324 z"
     style="font-size:22px;text-anchor:middle"
     id="path230" /><path
     d="m 456.99609,235.43457 q 0,0.93457 -0.44043,1.84766 -0.42968,0.91308 -1.21386,1.54687 -0.85938,0.6875 -2.00879,1.07422 -1.13867,0.38672 -2.75,0.38672 -1.72949,0 -3.11524,-0.32227 -1.375,-0.32226 -2.80371,-0.95605 v -2.66406 h 0.15039 q 1.21387,1.00976 2.80371,1.55761 1.58985,0.54785 2.98633,0.54785 1.97656,0 3.07227,-0.74121 1.10644,-0.74121 1.10644,-1.97656 0,-1.06348 -0.52636,-1.56836 -0.51563,-0.50488 -1.57911,-0.78418 -0.80566,-0.21484 -1.75097,-0.35449 -0.93457,-0.13965 -1.98731,-0.35449 -2.12695,-0.45117 -3.1582,-1.53613 -1.02051,-1.09571 -1.02051,-2.84668 0,-2.00879 1.69727,-3.28711 1.69726,-1.28907 4.30761,-1.28907 1.68653,0 3.09375,0.32227 1.40723,0.32226 2.49219,0.79492 v 2.51367 h -0.15039 q -0.91308,-0.77343 -2.40625,-1.27832 -1.48242,-0.51562 -3.04004,-0.51562 -1.70801,0 -2.75,0.70898 -1.03125,0.70899 -1.03125,1.82617 0,0.99903 0.51563,1.56836 0.51562,0.56934 1.81543,0.87012 0.6875,0.15039 1.95508,0.36523 1.26757,0.21485 2.14843,0.44043 1.78321,0.47266 2.68555,1.42872 0.90234,0.95605 0.90234,2.6748 z"
     style="font-size:22px;text-anchor:middle"
     id="path232" /></g></svg>
