<?xml version="1.0" encoding="UTF-8" standalone="no"?>
<svg
   xmlns:dc="http://purl.org/dc/elements/1.1/"
   xmlns:cc="http://creativecommons.org/ns#"
   xmlns:rdf="http://www.w3.org/1999/02/22-rdf-syntax-ns#"
   xmlns:svg="http://www.w3.org/2000/svg"
   xmlns="http://www.w3.org/2000/svg"
   xmlns:sodipodi="http://sodipodi.sourceforge.net/DTD/sodipodi-0.dtd"
   xmlns:inkscape="http://www.inkscape.org/namespaces/inkscape"
   xml:space="preserve"
   viewBox="0 0 394.70001 196.07735"
   y="0px"
   x="0px"
   id="Layer_1"
   version="1.1"
   sodipodi:docname="ibm-rse-api.svg"
   inkscape:version="1.0 (4035a4f, 2020-05-01)"
   width="394.70001"
   height="196.07735"><sodipodi:namedview
     pagecolor="#ffffff"
     bordercolor="#666666"
     borderopacity="1"
     objecttolerance="10"
     gridtolerance="10"
     guidetolerance="10"
     inkscape:pageopacity="0"
     inkscape:pageshadow="2"
     inkscape:window-width="1028"
     inkscape:window-height="719"
     id="namedview61"
     showgrid="false"
     inkscape:zoom="0.78135299"
     inkscape:cx="249.27121"
     inkscape:cy="38.550104"
     inkscape:window-x="309"
     inkscape:window-y="151"
     inkscape:window-maximized="0"
     inkscape:current-layer="Layer_1"
     inkscape:document-rotation="0" /><metadata
     id="metadata63"><rdf:RDF><cc:Work
         rdf:about=""><dc:format>image/svg+xml</dc:format><dc:type
           rdf:resource="http://purl.org/dc/dcmitype/StillImage" /><dc:title></dc:title></cc:Work></rdf:RDF></metadata><defs
     id="defs61" /><style
     id="style2"
     type="text/css">
	.st0{fill-rule:evenodd;clip-rule:evenodd;fill:#CF4044;}
	.st1{fill:#000F9F;}
	.st2{fill:#CC092F;}
	.st3{fill:#4C83C3;}
	.st4{font-family:'HelveticaNeue-Light';}
	.st5{font-size:26.8184px;}
</style><g
     id="g56"
     transform="translate(-2.7,-2.7)"><path
       style="fill:#4c83c3"
       id="path12"
       d="m 397.3,14 h -65.7 l 4.1,-11.3 h 61.6 z M 222.1,2.7 h 61 l 4,11.4 h -65 c 0.1,-0.1 0,-11.4 0,-11.4 z m -48.3,0 c 10,1 18.8,4.6 26.3,11.4 H 89.5 V 2.7 Z"
       class="st3"
       inkscape:connector-curvature="0" /><path
       style="fill:#4c83c3"
       id="path14"
       d="M 2.7,2.7 H 79.5 V 14 H 2.7 Z"
       class="st3"
       inkscape:connector-curvature="0" /><path
       style="fill:#4c83c3"
       id="path16"
       d="m 397.3,35.3 h -73.2 l 4,-11.3 h 69.3 v 11.3 z m -102.5,0 H 222.2 V 24 h 68.6 z M 208.6,24 c 1.5,3.8 3.2,6.9 3.2,11.3 H 89.5 V 24 Z"
       class="st3"
       inkscape:connector-curvature="0" /><path
       style="fill:#4c83c3"
       id="path18"
       d="M 2.7,24 H 79.5 V 35.3 H 2.7 Z"
       class="st3"
       inkscape:connector-curvature="0" /><path
       style="fill:#4c83c3"
       id="path20"
       d="m 316.6,56.6 4.1,-11.3 h 55 v 11.3 z m -18.4,-11.3 4.1,11.3 H 243.8 V 45.3 Z m -85.5,-0.1 c 0,3.9 -0.5,7.9 -1.6,11.3 H 177.6 V 45.2 Z"
       class="st3"
       inkscape:connector-curvature="0" /><path
       style="fill:#4c83c3"
       id="path22"
       d="m 24.1,45.3 h 33 v 11.3 h -33 z"
       class="st3"
       inkscape:connector-curvature="0" /><path
       style="fill:#4c83c3"
       id="path24"
       d="m 111.7,45.2 h 33 v 11.3 h -33 z"
       class="st3"
       inkscape:connector-curvature="0" /><path
       style="fill:#4c83c3"
       id="path26"
       d="m 276.2,68.8 v 8.6 H 243.7 V 66.2 h 61.8 l 3.9,10.5 3.7,-10.5 h 62.3 v 11.3 h -32.3 v -8.6 l -3,8.6 h -61 z M 111.7,66.2 h 94.6 c -2.1,3.8 -5.8,8.3 -9.4,11.3 h -85.2 z"
       class="st3"
       inkscape:connector-curvature="0" /><path
       style="fill:#4c83c3"
       id="path28"
       d="m 24.1,66.2 h 33 v 11.3 h -33 z"
       class="st3"
       inkscape:connector-curvature="0" /><path
       style="fill:#4c83c3"
       id="path30"
       d="m 343.3,87.5 h 32.3 v 11.3 h -32.3 z"
       class="st3"
       inkscape:connector-curvature="0" /><path
       style="fill:#4c83c3"
       id="path32"
       d="m 276.2,87.5 h -32.5 v 11.3 h 32.5 c 0,-0.2 0.1,-11.3 0,-11.3 z m 60.6,0 c -0.1,0 -3.8,11.3 -4,11.3 h -46 l -4.1,-11.3 z m -225.1,0 h 85 c 3.9,3.3 7.4,7.2 10.1,11.3 h -95.2 c 0.1,-0.2 0.1,-11.3 0.1,-11.3 z M 57.1,98.6 V 87.4 H 24.2 v 11.3 h 32.9 z"
       class="st3"
       inkscape:connector-curvature="0" /><path
       style="fill:#4c83c3"
       id="path34"
       d="m 343.3,108.7 h 32.3 V 120 h -32.3 z"
       class="st3"
       inkscape:connector-curvature="0" /><path
       style="fill:#4c83c3"
       id="path36"
       d="m 243.8,108.7 h 32.5 V 120 h -32.5 z"
       class="st3"
       inkscape:connector-curvature="0" /><path
       style="fill:#4c83c3"
       id="path38"
       d="m 325.3,119.9 c 0,-0.1 4,-11.3 4.1,-11.3 h -39.1 c -0.1,0 4,11.3 4,11.3 0,0 31,0.1 31,0 z m -213.6,0 v -11.3 h 33.5 v 11.3 z m 99.8,-11.2 c 1.6,3.4 1.8,7.4 2.1,11.3 h -35.5 v -11.3 z"
       class="st3"
       inkscape:connector-curvature="0" /><path
       style="fill:#4c83c3"
       id="path40"
       d="m 24.2,108.7 h 33 V 120 h -33 z"
       class="st3"
       inkscape:connector-curvature="0" /><path
       style="fill:#4c83c3"
       id="path42"
       d="m 343.3,129.5 h 54 v 11.3 h -54 z"
       class="st3"
       inkscape:connector-curvature="0" /><path
       style="fill:#4c83c3"
       id="path44"
       d="m 222.1,129.5 h 54.1 v 11.3 h -54.1 z"
       class="st3"
       inkscape:connector-curvature="0" /><path
       style="fill:#4c83c3"
       id="path46"
       d="m 317.9,140.8 h -16.4 l -4,-11.3 h 24.3 z M 2.7,129.5 v 11.3 h 76.8 v -11.3 z m 209.5,0 c -0.8,3.8 -1.6,8.2 -4.3,11.3 H 89.5 v -11.3 z m 98.3,32.6 H 309 l -3.9,-11.3 h 9.3 z"
       class="st3"
       inkscape:connector-curvature="0" /><path
       style="fill:#4c83c3"
       id="path48"
       d="m 343.3,150.8 h 54 v 11.3 h -54 z"
       class="st3"
       inkscape:connector-curvature="0" /><path
       style="fill:#4c83c3"
       id="path50"
       d="m 89.5,162.1 v -11.3 h 111.2 c -7.4,7.1 -17.6,11.1 -28.6,11.3 H 89.5"
       class="st3"
       inkscape:connector-curvature="0" /><path
       style="fill:#4c83c3"
       id="path52"
       d="m 222.1,150.8 h 54.1 v 11.3 h -54.1 z"
       class="st3"
       inkscape:connector-curvature="0" /><path
       style="fill:#4c83c3"
       id="path54"
       d="m 79.5,150.8 v 11.3 H 2.7 v -11.3 c 0,0 76.7,0.1 76.8,0 z"
       class="st3"
       inkscape:connector-curvature="0" /></g><g
     style="font-size:21.3333px;line-height:1.25;font-family:sans-serif;word-spacing:0px"
     id="text111"
     aria-label="IBM RSE API Plug-in for Zowe CLI"><path
       d="m 247.02344,169.26367 c -1.29861,0 -2.29102,0.37023 -2.97852,1.11328 -0.6875,0.73611 -1.03125,1.79579 -1.03125,3.17774 v 0.38476 h -1.32226 v 1.64649 h 1.32226 v 9.99023 h 1.95899 v -9.99023 h 3.46875 v -1.64649 h -3.53125 v -0.39453 c 0,-0.97222 0.1875,-1.64366 0.5625,-2.01172 0.38194,-0.375 0.99175,-0.5625 1.83203,-0.5625 0.26388,0 0.57074,0.036 0.91797,0.10547 0.34722,0.0625 0.62847,0.12504 0.84375,0.1875 h 0.10351 v -1.79297 c -0.29166,-0.0555 -0.61458,-0.10286 -0.96875,-0.14453 -0.34722,-0.0417 -0.74023,-0.0625 -1.17773,-0.0625 z m -73.34375,0.10352 v 16.20898 h 1.95898 v -16.20898 z m -87.050784,0.41601 c -1.687497,0 -3.080514,0.41667 -4.177734,1.25 -1.097221,0.82639 -1.644531,1.8889 -1.644531,3.1875 0,1.13195 0.32856,2.0534 0.988281,2.76172 0.666665,0.7014 1.687502,1.19662 3.0625,1.48828 0.680555,0.13889 1.323569,0.25347 1.927734,0.34375 0.61111,0.0903 1.176433,0.20487 1.697266,0.34375 0.687499,0.18056 1.197917,0.43534 1.53125,0.76172 0.340277,0.32639 0.511719,0.83203 0.511719,1.51953 0,0.79862 -0.358942,1.43881 -1.074219,1.91797 -0.708333,0.47917 -1.70074,0.71875 -2.978516,0.71875 -0.902776,0 -1.868708,-0.17708 -2.896484,-0.53125 -1.027776,-0.35416 -1.934029,-0.85894 -2.71875,-1.51172 h -0.144531 v 2.58399 c 0.923609,0.40972 1.829862,0.7194 2.71875,0.92773 0.895832,0.20834 1.901478,0.3125 3.019531,0.3125 1.041665,0 1.931859,-0.125 2.667969,-0.375 0.743054,-0.25 1.391711,-0.59853 1.947265,-1.04297 0.506944,-0.40972 0.899957,-0.90972 1.177735,-1.5 0.284721,-0.59028 0.425781,-1.18685 0.425781,-1.79101 0,-1.11111 -0.291668,-1.9757 -0.875,-2.59375 -0.583333,-0.61806 -1.45074,-1.07921 -2.603516,-1.38477 -0.569443,-0.14583 -1.264541,-0.28885 -2.083984,-0.42773 -0.819443,-0.13889 -1.450087,-0.2563 -1.894531,-0.35352 -0.840277,-0.19444 -1.428386,-0.47569 -1.761719,-0.84375 -0.333333,-0.36806 -0.5,-0.87566 -0.5,-1.52148 0,-0.72223 0.333335,-1.31316 1,-1.77149 0.67361,-0.45833 1.563803,-0.6875 2.667969,-0.6875 1.006942,0 1.988933,0.16667 2.947265,0.5 0.965276,0.32639 1.743708,0.74024 2.333985,1.24024 h 0.144531 v -2.4375 c -0.701387,-0.30556 -1.506295,-0.56315 -2.416016,-0.77149 -0.909721,-0.20833 -1.909724,-0.3125 -3,-0.3125 z m 265.488284,0 c -1.13889,0 -2.17578,0.17709 -3.11328,0.53125 -0.93056,0.35417 -1.727,0.86937 -2.38672,1.54297 -0.68056,0.69445 -1.20139,1.54384 -1.5625,2.55078 -0.36112,1.00695 -0.54102,2.14996 -0.54102,3.42774 0,1.34722 0.1875,2.5319 0.5625,3.55273 0.375,1.01389 0.89584,1.85005 1.5625,2.50977 0.68056,0.67361 1.47982,1.17079 2.39649,1.49023 0.92361,0.3125 1.94727,0.46875 3.07226,0.46875 0.59722,0 1.14171,-0.0493 1.63477,-0.14648 0.5,-0.0903 0.96311,-0.20204 1.38672,-0.33399 0.5,-0.15972 0.90147,-0.31119 1.20703,-0.45703 0.3125,-0.14583 0.66102,-0.30208 1.04297,-0.46875 v -2.41797 h -0.14649 c -0.75694,0.68056 -1.56944,1.19097 -2.4375,1.53125 -0.86805,0.34028 -1.79796,0.51172 -2.79101,0.51172 -0.72223,0 -1.40973,-0.12218 -2.0625,-0.36523 -0.64584,-0.25 -1.21312,-0.6326 -1.69922,-1.14649 -0.46528,-0.49305 -0.84592,-1.13129 -1.14453,-1.91601 -0.29167,-0.78473 -0.4375,-1.72223 -0.4375,-2.8125 0,-1.04167 0.13063,-1.95834 0.39453,-2.75 0.27083,-0.79861 0.64583,-1.45768 1.125,-1.97852 0.49305,-0.53472 1.05273,-0.92773 1.67773,-1.17773 0.63194,-0.25695 1.34028,-0.38477 2.125,-0.38477 0.95834,0 1.85699,0.16189 2.69727,0.48828 0.84027,0.32639 1.6888,0.84723 2.54297,1.5625 h 0.15625 v -2.44726 c -1.01389,-0.50695 -1.93815,-0.86112 -2.77149,-1.0625 -0.82638,-0.20139 -1.6569,-0.30274 -2.49023,-0.30274 z m -136.1875,0.17774 v 2.03125 h 2.20898 v -2.03125 z m -199.144534,0.10351 v 1.58399 h 2.03125 v 12.34375 h -2.03125 v 1.58398 h 6.125 v -1.58398 h -2.03125 v -12.34375 h 2.03125 v -1.58399 z m 9.65625,0 v 15.51172 h 5.5 c 1.076388,0 1.961807,-0.0985 2.65625,-0.29297 0.701388,-0.19444 1.344403,-0.52018 1.927735,-0.97851 0.493054,-0.38195 0.884114,-0.86871 1.175781,-1.45899 0.291666,-0.59028 0.4375,-1.27019 0.4375,-2.04101 0,-1.0764 -0.302084,-1.96463 -0.90625,-2.66602 -0.604165,-0.70833 -1.429906,-1.17144 -2.478516,-1.38672 v -0.082 c 0.624999,-0.3125 1.125001,-0.72634 1.5,-1.24023 0.375,-0.52084 0.5625,-1.14866 0.5625,-1.88477 0,-0.65278 -0.127821,-1.21246 -0.384765,-1.67773 -0.256944,-0.47222 -0.670791,-0.85764 -1.240235,-1.15625 -0.513888,-0.26389 -1.052735,-0.43815 -1.615234,-0.52149 -0.562499,-0.0833 -1.409073,-0.125 -2.541016,-0.125 z m 14.625,0 v 15.51172 h 1.927735 v -13.36523 l 4.28125,9.09375 h 1.228515 l 4.3125,-9.09375 v 13.36523 h 2.0625 v -15.51172 h -2.865234 l -4,8.63672 -4.134766,-8.63672 z m 25.5,0 v 15.51172 h 2.0625 v -6.16797 h 2.90625 l 5.1875,6.16797 h 2.677735 l -5.833985,-6.78125 c 0.98611,-0.38194 1.759767,-0.94922 2.322266,-1.69922 0.562499,-0.75694 0.84375,-1.69444 0.84375,-2.8125 0,-0.82638 -0.159072,-1.50629 -0.478516,-2.04101 -0.312499,-0.54167 -0.750001,-0.98959 -1.3125,-1.34375 -0.499999,-0.3125 -1.0625,-0.52843 -1.6875,-0.64649 -0.624998,-0.125 -1.406251,-0.1875 -2.34375,-0.1875 z m 29.416016,0 v 15.51172 h 10.218748 v -1.83398 h -8.156248 v -5.75977 h 8.156248 v -1.83398 h -8.156248 v -4.25 h 8.156248 v -1.83399 z m 24.833988,0 -5.64649,15.51172 h 2.09375 l 1.52149,-4.32422 h 6.70898 l 1.51953,4.32422 h 2.19922 l -5.64648,-15.51172 z m 10.75,0 v 15.51172 h 2.0625 v -5.78125 h 2.0625 c 1.1111,0 2.0306,-0.1326 2.75976,-0.39648 0.72917,-0.27084 1.36177,-0.67427 1.89649,-1.20899 0.43055,-0.43056 0.76388,-0.9362 1,-1.51953 0.24305,-0.59028 0.36523,-1.23047 0.36523,-1.91797 0,-0.90277 -0.16385,-1.648 -0.49023,-2.23828 -0.31945,-0.59027 -0.77496,-1.08463 -1.36524,-1.48047 -0.5,-0.33333 -1.07291,-0.57573 -1.71875,-0.72851 -0.64583,-0.15972 -1.43273,-0.24024 -2.36328,-0.24024 z m 12.21875,0 v 1.58399 h 2.03125 v 12.34375 h -2.03125 v 1.58398 h 6.125 v -1.58398 h -2.03125 v -12.34375 h 2.03125 v -1.58399 z m 17.15625,0 v 15.51172 h 2.0625 v -5.78125 h 2.0625 c 1.1111,0 2.0306,-0.1326 2.75976,-0.39648 0.72917,-0.27084 1.36177,-0.67427 1.89649,-1.20899 0.43055,-0.43056 0.76388,-0.9362 1,-1.51953 0.24305,-0.59028 0.36328,-1.23047 0.36328,-1.91797 0,-0.90277 -0.1619,-1.648 -0.48828,-2.23828 -0.31944,-0.59027 -0.77496,-1.08463 -1.36524,-1.48047 -0.5,-0.33333 -1.07291,-0.57573 -1.71875,-0.72851 -0.64583,-0.15972 -1.43468,-0.24024 -2.36523,-0.24024 z m 118.79101,0 v 1.83399 h 9.15625 l -9.50976,11.75976 v 1.91797 h 12.10351 v -1.83398 h -9.83398 l 9.60547,-11.8125 v -1.86524 z m 80.58399,0 v 15.51172 h 9.8125 v -1.83398 h -7.75 v -13.67774 z m 11.21875,0 v 1.58399 h 2.03125 v 12.34375 h -2.03125 v 1.58398 h 6.125 v -1.58398 h -2.03125 v -12.34375 h 2.03125 v -1.58399 z m -343.031254,1.76172 h 2.458985 c 0.687498,0 1.263238,0.0237 1.728515,0.0723 0.465277,0.0417 0.861112,0.15625 1.1875,0.34375 0.277778,0.15972 0.478516,0.36805 0.603516,0.625 0.124999,0.25694 0.1875,0.57226 0.1875,0.94726 0,0.4514 -0.06814,0.84441 -0.207031,1.17774 -0.131944,0.32639 -0.361112,0.5944 -0.6875,0.80273 -0.326388,0.20834 -0.680556,0.34658 -1.0625,0.41602 -0.381944,0.0625 -0.897137,0.0937 -1.542969,0.0937 h -2.666016 z m 40.125,0.01 h 2.427735 c 0.555554,0 1.037544,0.0417 1.447265,0.125 0.409722,0.0764 0.76389,0.21462 1.0625,0.41601 0.361111,0.23611 0.618707,0.52778 0.771485,0.875 0.159722,0.34028 0.238281,0.73329 0.238281,1.17774 0,0.58332 -0.07574,1.06532 -0.228516,1.44726 -0.145832,0.375 -0.375,0.70834 -0.6875,1 -0.340277,0.3125 -0.754123,0.52843 -1.240234,0.64649 -0.48611,0.11111 -1.054255,0.16601 -1.707031,0.16601 h -2.083985 z m 65.000004,0 h 2.04101 c 0.65278,0 1.19163,0.0493 1.61524,0.14648 0.43056,0.0903 0.81315,0.24175 1.14648,0.45703 0.38195,0.25 0.66602,0.57292 0.85352,0.96875 0.1875,0.39584 0.28125,0.86177 0.28125,1.39649 0,0.45833 -0.0701,0.87217 -0.20899,1.24023 -0.13194,0.36806 -0.36111,0.71745 -0.6875,1.05078 -0.32639,0.32639 -0.7487,0.56597 -1.26953,0.71875 -0.52083,0.14584 -1.19792,0.21875 -2.03125,0.21875 h -1.74023 z m 29.375,0 h 2.04101 c 0.65278,0 1.19162,0.0493 1.61524,0.14648 0.43055,0.0903 0.81119,0.24175 1.14453,0.45703 0.38194,0.25 0.66797,0.57292 0.85547,0.96875 0.1875,0.39584 0.28125,0.86177 0.28125,1.39649 0,0.45833 -0.0701,0.87217 -0.20899,1.24023 -0.13194,0.36806 -0.36111,0.71745 -0.6875,1.05078 -0.32638,0.32639 -0.75065,0.56597 -1.27148,0.71875 -0.52084,0.14584 -1.19792,0.21875 -2.03125,0.21875 h -1.73828 z m -40.86524,0.0312 2.71875,7.61523 h -5.44726 z m 75.24024,1.75 c -0.63889,0 -1.2819,0.13824 -1.92774,0.41601 -0.64582,0.27084 -1.19509,0.65343 -1.64648,1.14649 -0.48611,0.52778 -0.87153,1.1556 -1.15625,1.88476 -0.27778,0.72222 -0.41602,1.58399 -0.41602,2.58399 0,1.82638 0.40625,3.24306 1.21875,4.25 0.81944,1 1.92362,1.5 3.3125,1.5 0.83334,0 1.51802,-0.11459 2.05274,-0.34375 0.54166,-0.23612 1.10698,-0.59028 1.69726,-1.0625 v 1.0625 c 0,0.47222 -0.0521,0.8993 -0.15625,1.28125 -0.10416,0.38194 -0.27842,0.70768 -0.52148,0.97851 -0.24306,0.28472 -0.58203,0.50825 -1.01953,0.66797 -0.4375,0.15972 -0.98959,0.23828 -1.65625,0.23828 -0.69444,0 -1.38954,-0.0937 -2.08399,-0.28125 -0.69444,-0.18055 -1.20204,-0.33203 -1.52148,-0.45703 h -0.10352 v 2 c 0.56944,0.15973 1.14518,0.27995 1.72852,0.36328 0.59028,0.0903 1.19444,0.13672 1.8125,0.13672 1.8611,0 3.24088,-0.46311 4.13672,-1.38672 0.89583,-0.9236 1.34375,-2.37153 1.34375,-4.34375 v -10.3125 h -1.83399 l -0.125,0.5 c -0.50694,-0.27777 -0.98893,-0.48133 -1.44726,-0.61328 -0.45139,-0.13888 -1.01389,-0.20898 -1.6875,-0.20898 z m 30.39453,0 c -0.6875,0 -1.35699,0.14301 -2.00977,0.42773 -0.65278,0.28472 -1.28538,0.68056 -1.89648,1.1875 v -1.29297 h -1.95703 v 11.63672 h 1.95703 v -8.6875 c 0.53472,-0.40972 1.0944,-0.74783 1.67773,-1.01172 0.58333,-0.26388 1.14301,-0.39453 1.67774,-0.39453 0.52083,0 0.94314,0.0729 1.26953,0.21875 0.32638,0.13889 0.57638,0.35287 0.75,0.64453 0.1667,0.26389 0.28128,0.63325 0.34375,1.10547 0.0625,0.46528 0.0937,0.96528 0.0937,1.5 v 6.625 h 1.95898 v -7.55273 c 0,-1.42361 -0.33051,-2.51454 -0.99023,-3.27149 -0.65972,-0.75694 -1.61806,-1.13476 -2.875,-1.13476 z m 27.1875,0 c -1.64584,0 -2.95356,0.55209 -3.92578,1.65625 -0.96528,1.09722 -1.44922,2.5944 -1.44922,4.49023 0,1.89584 0.48394,3.39106 1.44922,4.48828 0.97222,1.09722 2.27994,1.64649 3.92578,1.64649 1.63194,0 2.93403,-0.54927 3.90625,-1.64649 0.97222,-1.09722 1.45898,-2.59244 1.45898,-4.48828 0,-1.89583 -0.48676,-3.39301 -1.45898,-4.49023 -0.97222,-1.10416 -2.27431,-1.65625 -3.90625,-1.65625 z m 44.20898,0 c -1.64583,0 -2.95551,0.55209 -3.92773,1.65625 -0.96528,1.09722 -1.44727,2.5944 -1.44727,4.49023 0,1.89584 0.48199,3.39106 1.44727,4.48828 0.97222,1.09722 2.2819,1.64649 3.92773,1.64649 1.63194,0 2.93403,-0.54927 3.90625,-1.64649 0.97222,-1.09722 1.45899,-2.59244 1.45899,-4.48828 0,-1.89583 -0.48677,-3.39301 -1.45899,-4.49023 -0.97222,-1.10416 -2.27431,-1.65625 -3.90625,-1.65625 z m 30.69727,0 c -1.69444,0 -3.06185,0.55968 -4.10352,1.67773 -1.03472,1.11806 -1.55273,2.62848 -1.55273,4.53125 0,1.92361 0.54166,3.40842 1.625,4.45703 1.08333,1.04166 2.59093,1.5625 4.52148,1.5625 0.75694,0 1.47852,-0.0937 2.16602,-0.28125 0.6875,-0.1875 1.36176,-0.41949 2.02148,-0.69726 v -2.13477 h -0.10351 c -0.34028,0.30556 -0.91319,0.61806 -1.71875,0.9375 -0.79861,0.3125 -1.59506,0.46875 -2.38672,0.46875 -0.59722,0 -1.14453,-0.0833 -1.64453,-0.25 -0.49306,-0.16666 -0.92014,-0.41666 -1.28125,-0.75 -0.375,-0.34027 -0.67145,-0.77495 -0.88672,-1.30273 -0.21528,-0.53472 -0.32227,-1.15973 -0.32227,-1.875 h 8.57227 v -1.0625 c 0,-1.6875 -0.42709,-2.98959 -1.28125,-3.90625 -0.84722,-0.91666 -2.05556,-1.375 -3.625,-1.375 z m -150.41602,0.32226 v 7.55274 c 0,1.44444 0.34093,2.54101 1.02149,3.29101 0.68056,0.74306 1.63129,1.11524 2.85351,1.11524 0.72916,0 1.39584,-0.13824 2,-0.41602 0.60417,-0.27777 1.23677,-0.67838 1.89649,-1.19922 v 1.29297 h 1.95703 v -11.63672 h -1.95703 v 8.6875 c -0.52084,0.40972 -1.08334,0.74784 -1.6875,1.01172 -0.59723,0.2639 -1.14931,0.39453 -1.65625,0.39453 -0.56945,0 -1.00413,-0.0681 -1.30274,-0.20703 -0.29861,-0.13888 -0.54101,-0.36241 -0.72851,-0.66797 -0.18058,-0.29861 -0.29994,-0.6556 -0.35547,-1.07226 -0.0555,-0.42361 -0.082,-0.93121 -0.082,-1.52149 v -6.625 z m 36.60352,0 v 11.63672 h 1.95898 v -11.63672 z m 47.3125,0 v 11.63672 h 1.95898 v -8.26172 c 0.52084,-0.42361 1.0625,-0.76736 1.625,-1.03125 0.5625,-0.27083 1.14584,-0.40625 1.75,-0.40625 0.375,0 0.69792,0.018 0.96875,0.0527 0.27778,0.0278 0.56185,0.077 0.85352,0.14648 h 0.10547 v -2.01172 c -0.30556,-0.0486 -0.53473,-0.0799 -0.6875,-0.0937 -0.15278,-0.0208 -0.39996,-0.0312 -0.74024,-0.0312 -0.61806,0 -1.22504,0.13259 -1.82226,0.39649 -0.59028,0.25694 -1.27496,0.69726 -2.05274,1.32226 v -1.71875 z m 43.17773,0 3.0625,11.63672 h 1.80274 l 2.96875,-8.96875 2.98828,8.96875 h 1.8125 l 3.03125,-11.63672 h -1.96875 l -2.01953,9.01172 -2.98047,-9.01172 h -1.61328 l -2.90625,9.01172 -2.13672,-9.01172 z m 23.21875,1.29297 c 1.04166,0 1.81532,0.28125 2.32227,0.84375 0.5139,0.5625 0.77431,1.35699 0.78125,2.38477 h -6.66602 c 0.0833,-0.91667 0.43468,-1.68468 1.05274,-2.30274 0.625,-0.61805 1.46115,-0.92578 2.50976,-0.92578 z m -74.80273,0.0723 c 1.0486,0 1.86871,0.3674 2.45898,1.10351 0.59028,0.72917 0.88477,1.84853 0.88477,3.35547 0,1.47222 -0.29731,2.58203 -0.89453,3.33203 -0.59028,0.74306 -1.40756,1.11524 -2.44922,1.11524 -1.05556,0 -1.87848,-0.375 -2.46875,-1.125 -0.59028,-0.75694 -0.88477,-1.86393 -0.88477,-3.32227 0,-1.50694 0.29167,-2.6263 0.875,-3.35547 0.59028,-0.73611 1.41602,-1.10351 2.47852,-1.10351 z m 44.20898,0 c 1.04861,0 1.86871,0.3674 2.45899,1.10351 0.59027,0.72917 0.88476,1.84853 0.88476,3.35547 0,1.47222 -0.29926,2.58203 -0.89648,3.33203 -0.59028,0.74306 -1.40561,1.11524 -2.44727,1.11524 -1.05555,0 -1.87847,-0.375 -2.46875,-1.125 -0.59027,-0.75694 -0.88476,-1.86393 -0.88476,-3.32227 0,-1.50694 0.29167,-2.6263 0.875,-3.35547 0.59028,-0.73611 1.41601,-1.10351 2.47851,-1.10351 z m -101.44726,0.0723 c 0.44444,0 0.88759,0.0521 1.33203,0.15625 0.45139,0.0972 0.93815,0.26389 1.45898,0.5 v 6.34375 c -0.47916,0.36806 -1.00759,0.6645 -1.58398,0.88672 -0.56944,0.21528 -1.13759,0.32227 -1.70703,0.32227 -1.0625,0 -1.82292,-0.33616 -2.28125,-1.00977 -0.45834,-0.67361 -0.6875,-1.66319 -0.6875,-2.96875 0,-1.375 0.30772,-2.42426 0.92578,-3.14648 0.61805,-0.72222 1.46658,-1.08399 2.54297,-1.08399 z m 8.26953,2.46875 v 1.88672 h 6.5 v -1.88672 z m -177.488284,0.19922 h 3.240235 c 0.680554,0 1.256293,0.0265 1.728515,0.082 0.479166,0.0486 0.885418,0.16037 1.21875,0.33399 0.493055,0.25694 0.833985,0.56944 1.021485,0.9375 0.1875,0.36805 0.28125,0.86523 0.28125,1.49023 0,0.54861 -0.09093,0.99653 -0.271485,1.34375 -0.180555,0.34722 -0.464627,0.65495 -0.853515,0.92578 -0.368056,0.25 -0.841581,0.42427 -1.417969,0.52149 -0.576388,0.0903 -1.315974,0.13476 -2.21875,0.13476 h -2.728516 z"
       inkscape:original="M 247.02344 169.26367 C 245.72483 169.26367 244.73242 169.6339 244.04492 170.37695 C 243.35742 171.11306 243.01367 172.17274 243.01367 173.55469 L 243.01367 173.93945 L 241.69141 173.93945 L 241.69141 175.58594 L 243.01367 175.58594 L 243.01367 185.57617 L 244.97266 185.57617 L 244.97266 175.58594 L 248.44141 175.58594 L 248.44141 173.93945 L 244.91016 173.93945 L 244.91016 173.54492 C 244.91016 172.5727 245.09766 171.90126 245.47266 171.5332 C 245.8546 171.1582 246.46441 170.9707 247.30469 170.9707 C 247.56857 170.9707 247.87543 171.00673 248.22266 171.07617 C 248.56988 171.13871 248.85113 171.20121 249.06641 171.26367 L 249.16992 171.26367 L 249.16992 169.4707 C 248.87826 169.41515 248.55534 169.36784 248.20117 169.32617 C 247.85395 169.28451 247.46094 169.26367 247.02344 169.26367 z M 173.67969 169.36719 L 173.67969 185.57617 L 175.63867 185.57617 L 175.63867 169.36719 L 173.67969 169.36719 z M 86.628906 169.7832 C 84.941409 169.7832 83.548392 170.19987 82.451172 171.0332 C 81.353951 171.85959 80.806641 172.9221 80.806641 174.2207 C 80.806641 175.35265 81.135201 176.2741 81.794922 176.98242 C 82.461587 177.68382 83.482424 178.17904 84.857422 178.4707 C 85.537977 178.60959 86.180991 178.72417 86.785156 178.81445 C 87.396266 178.90473 87.961589 179.01932 88.482422 179.1582 C 89.169921 179.33876 89.680339 179.59354 90.013672 179.91992 C 90.353949 180.24631 90.525391 180.75195 90.525391 181.43945 C 90.525391 182.23807 90.166449 182.87826 89.451172 183.35742 C 88.742839 183.83659 87.750432 184.07617 86.472656 184.07617 C 85.56988 184.07617 84.603948 183.89909 83.576172 183.54492 C 82.548396 183.19076 81.642143 182.68598 80.857422 182.0332 L 80.712891 182.0332 L 80.712891 184.61719 C 81.6365 185.02691 82.542753 185.33659 83.431641 185.54492 C 84.327473 185.75326 85.333119 185.85742 86.451172 185.85742 C 87.492837 185.85742 88.383031 185.73242 89.119141 185.48242 C 89.862195 185.23242 90.510852 184.88389 91.066406 184.43945 C 91.57335 184.02973 91.966363 183.52973 92.244141 182.93945 C 92.528862 182.34917 92.669922 181.7526 92.669922 181.14844 C 92.669922 180.03733 92.378254 179.17274 91.794922 178.55469 C 91.211589 177.93663 90.344182 177.47548 89.191406 177.16992 C 88.621963 177.02409 87.926865 176.88107 87.107422 176.74219 C 86.287979 176.6033 85.657335 176.48589 85.212891 176.38867 C 84.372614 176.19423 83.784505 175.91298 83.451172 175.54492 C 83.117839 175.17686 82.951172 174.66926 82.951172 174.02344 C 82.951172 173.30121 83.284507 172.71028 83.951172 172.25195 C 84.624782 171.79362 85.514975 171.56445 86.619141 171.56445 C 87.626083 171.56445 88.608074 171.73112 89.566406 172.06445 C 90.531682 172.39084 91.310114 172.80469 91.900391 173.30469 L 92.044922 173.30469 L 92.044922 170.86719 C 91.343535 170.56163 90.538627 170.30404 89.628906 170.0957 C 88.719185 169.88737 87.719182 169.7832 86.628906 169.7832 z M 352.11719 169.7832 C 350.9783 169.7832 349.94141 169.96029 349.00391 170.31445 C 348.07335 170.66862 347.27691 171.18382 346.61719 171.85742 C 345.93663 172.55187 345.4158 173.40126 345.05469 174.4082 C 344.69357 175.41515 344.51367 176.55816 344.51367 177.83594 C 344.51367 179.18316 344.70117 180.36784 345.07617 181.38867 C 345.45117 182.40256 345.97201 183.23872 346.63867 183.89844 C 347.31923 184.57205 348.11849 185.06923 349.03516 185.38867 C 349.95877 185.70117 350.98243 185.85742 352.10742 185.85742 C 352.70464 185.85742 353.24913 185.80816 353.74219 185.71094 C 354.24219 185.62066 354.7053 185.5089 355.12891 185.37695 C 355.62891 185.21723 356.03038 185.06576 356.33594 184.91992 C 356.64844 184.77409 356.99696 184.61784 357.37891 184.45117 L 357.37891 182.0332 L 357.23242 182.0332 C 356.47548 182.71376 355.66298 183.22417 354.79492 183.56445 C 353.92687 183.90473 352.99696 184.07617 352.00391 184.07617 C 351.28168 184.07617 350.59418 183.95399 349.94141 183.71094 C 349.29557 183.46094 348.72829 183.07834 348.24219 182.56445 C 347.77691 182.0714 347.39627 181.43316 347.09766 180.64844 C 346.80599 179.86371 346.66016 178.92621 346.66016 177.83594 C 346.66016 176.79427 346.79079 175.8776 347.05469 175.08594 C 347.32552 174.28733 347.70052 173.62826 348.17969 173.10742 C 348.67274 172.5727 349.23242 172.17969 349.85742 171.92969 C 350.48936 171.67274 351.1977 171.54492 351.98242 171.54492 C 352.94076 171.54492 353.83941 171.70681 354.67969 172.0332 C 355.51996 172.35959 356.36849 172.88043 357.22266 173.5957 L 357.37891 173.5957 L 357.37891 171.14844 C 356.36502 170.64149 355.44076 170.28732 354.60742 170.08594 C 353.78104 169.88455 352.95052 169.7832 352.11719 169.7832 z M 215.92969 169.96094 L 215.92969 171.99219 L 218.13867 171.99219 L 218.13867 169.96094 L 215.92969 169.96094 z M 16.785156 170.06445 L 16.785156 171.64844 L 18.816406 171.64844 L 18.816406 183.99219 L 16.785156 183.99219 L 16.785156 185.57617 L 22.910156 185.57617 L 22.910156 183.99219 L 20.878906 183.99219 L 20.878906 171.64844 L 22.910156 171.64844 L 22.910156 170.06445 L 16.785156 170.06445 z M 26.441406 170.06445 L 26.441406 185.57617 L 31.941406 185.57617 C 33.017794 185.57617 33.903213 185.47765 34.597656 185.2832 C 35.299044 185.08876 35.942059 184.76302 36.525391 184.30469 C 37.018445 183.92274 37.409505 183.43598 37.701172 182.8457 C 37.992838 182.25542 38.138672 181.57551 38.138672 180.80469 C 38.138672 179.72829 37.836588 178.84006 37.232422 178.13867 C 36.628257 177.43034 35.802516 176.96723 34.753906 176.75195 L 34.753906 176.66992 C 35.378905 176.35742 35.878907 175.94358 36.253906 175.42969 C 36.628906 174.90885 36.816406 174.28103 36.816406 173.54492 C 36.816406 172.89214 36.688585 172.33246 36.431641 171.86719 C 36.174697 171.39497 35.76085 171.00955 35.191406 170.71094 C 34.677518 170.44705 34.138671 170.27279 33.576172 170.18945 C 33.013673 170.10612 32.167099 170.06445 31.035156 170.06445 L 26.441406 170.06445 z M 41.066406 170.06445 L 41.066406 185.57617 L 42.994141 185.57617 L 42.994141 172.21094 L 47.275391 181.30469 L 48.503906 181.30469 L 52.816406 172.21094 L 52.816406 185.57617 L 54.878906 185.57617 L 54.878906 170.06445 L 52.013672 170.06445 L 48.013672 178.70117 L 43.878906 170.06445 L 41.066406 170.06445 z M 66.566406 170.06445 L 66.566406 185.57617 L 68.628906 185.57617 L 68.628906 179.4082 L 71.535156 179.4082 L 76.722656 185.57617 L 79.400391 185.57617 L 73.566406 178.79492 C 74.552516 178.41298 75.326173 177.8457 75.888672 177.0957 C 76.451171 176.33876 76.732422 175.40126 76.732422 174.2832 C 76.732422 173.45682 76.57335 172.77691 76.253906 172.24219 C 75.941407 171.70052 75.503905 171.2526 74.941406 170.89844 C 74.441407 170.58594 73.878906 170.37001 73.253906 170.25195 C 72.628908 170.12695 71.847655 170.06445 70.910156 170.06445 L 66.566406 170.06445 z M 95.982422 170.06445 L 95.982422 185.57617 L 106.20117 185.57617 L 106.20117 183.74219 L 98.044922 183.74219 L 98.044922 177.98242 L 106.20117 177.98242 L 106.20117 176.14844 L 98.044922 176.14844 L 98.044922 171.89844 L 106.20117 171.89844 L 106.20117 170.06445 L 95.982422 170.06445 z M 120.81641 170.06445 L 115.16992 185.57617 L 117.26367 185.57617 L 118.78516 181.25195 L 125.49414 181.25195 L 127.01367 185.57617 L 129.21289 185.57617 L 123.56641 170.06445 L 120.81641 170.06445 z M 131.56641 170.06445 L 131.56641 185.57617 L 133.62891 185.57617 L 133.62891 179.79492 L 135.69141 179.79492 C 136.80251 179.79492 137.72201 179.66232 138.45117 179.39844 C 139.18034 179.1276 139.81294 178.72417 140.34766 178.18945 C 140.77821 177.75889 141.11154 177.25325 141.34766 176.66992 C 141.59071 176.07964 141.71289 175.43945 141.71289 174.75195 C 141.71289 173.84918 141.54904 173.10395 141.22266 172.51367 C 140.90321 171.9234 140.4477 171.42904 139.85742 171.0332 C 139.35742 170.69987 138.78451 170.45747 138.13867 170.30469 C 137.49284 170.14497 136.70594 170.06445 135.77539 170.06445 L 131.56641 170.06445 z M 143.78516 170.06445 L 143.78516 171.64844 L 145.81641 171.64844 L 145.81641 183.99219 L 143.78516 183.99219 L 143.78516 185.57617 L 149.91016 185.57617 L 149.91016 183.99219 L 147.87891 183.99219 L 147.87891 171.64844 L 149.91016 171.64844 L 149.91016 170.06445 L 143.78516 170.06445 z M 160.94141 170.06445 L 160.94141 185.57617 L 163.00391 185.57617 L 163.00391 179.79492 L 165.06641 179.79492 C 166.17751 179.79492 167.09701 179.66232 167.82617 179.39844 C 168.55534 179.1276 169.18794 178.72417 169.72266 178.18945 C 170.15321 177.75889 170.48654 177.25325 170.72266 176.66992 C 170.96571 176.07964 171.08594 175.43945 171.08594 174.75195 C 171.08594 173.84918 170.92404 173.10395 170.59766 172.51367 C 170.27822 171.9234 169.8227 171.42904 169.23242 171.0332 C 168.73242 170.69987 168.15951 170.45747 167.51367 170.30469 C 166.86784 170.14497 166.07899 170.06445 165.14844 170.06445 L 160.94141 170.06445 z M 279.73242 170.06445 L 279.73242 171.89844 L 288.88867 171.89844 L 279.37891 183.6582 L 279.37891 185.57617 L 291.48242 185.57617 L 291.48242 183.74219 L 281.64844 183.74219 L 291.25391 171.92969 L 291.25391 170.06445 L 279.73242 170.06445 z M 360.31641 170.06445 L 360.31641 185.57617 L 370.12891 185.57617 L 370.12891 183.74219 L 362.37891 183.74219 L 362.37891 170.06445 L 360.31641 170.06445 z M 371.53516 170.06445 L 371.53516 171.64844 L 373.56641 171.64844 L 373.56641 183.99219 L 371.53516 183.99219 L 371.53516 185.57617 L 377.66016 185.57617 L 377.66016 183.99219 L 375.62891 183.99219 L 375.62891 171.64844 L 377.66016 171.64844 L 377.66016 170.06445 L 371.53516 170.06445 z M 28.503906 171.82617 L 30.962891 171.82617 C 31.650389 171.82617 32.226129 171.84984 32.691406 171.89844 C 33.156683 171.9401 33.552518 172.05469 33.878906 172.24219 C 34.156684 172.40191 34.357422 172.61024 34.482422 172.86719 C 34.607421 173.12413 34.669922 173.43945 34.669922 173.81445 C 34.669922 174.26585 34.601779 174.65886 34.462891 174.99219 C 34.330947 175.31858 34.101779 175.58659 33.775391 175.79492 C 33.449003 176.00326 33.094835 176.1415 32.712891 176.21094 C 32.330947 176.2734 31.815754 176.30469 31.169922 176.30469 L 28.503906 176.30469 L 28.503906 171.82617 z M 68.628906 171.83594 L 71.056641 171.83594 C 71.612195 171.83594 72.094185 171.8776 72.503906 171.96094 C 72.913628 172.03732 73.267796 172.17556 73.566406 172.37695 C 73.927517 172.61306 74.185113 172.90473 74.337891 173.25195 C 74.497613 173.59223 74.576172 173.98524 74.576172 174.42969 C 74.576172 175.01301 74.500434 175.49501 74.347656 175.87695 C 74.201824 176.25195 73.972656 176.58529 73.660156 176.87695 C 73.319879 177.18945 72.906033 177.40538 72.419922 177.52344 C 71.933812 177.63455 71.365667 177.68945 70.712891 177.68945 L 68.628906 177.68945 L 68.628906 171.83594 z M 133.62891 171.83594 L 135.66992 171.83594 C 136.3227 171.83594 136.86155 171.8852 137.28516 171.98242 C 137.71572 172.0727 138.09831 172.22417 138.43164 172.43945 C 138.81359 172.68945 139.09766 173.01237 139.28516 173.4082 C 139.47266 173.80404 139.56641 174.26997 139.56641 174.80469 C 139.56641 175.26302 139.49631 175.67686 139.35742 176.04492 C 139.22548 176.41298 138.99631 176.76237 138.66992 177.0957 C 138.34353 177.42209 137.92122 177.66167 137.40039 177.81445 C 136.87956 177.96029 136.20247 178.0332 135.36914 178.0332 L 133.62891 178.0332 L 133.62891 171.83594 z M 163.00391 171.83594 L 165.04492 171.83594 C 165.6977 171.83594 166.23654 171.8852 166.66016 171.98242 C 167.09071 172.0727 167.47135 172.22417 167.80469 172.43945 C 168.18663 172.68945 168.47266 173.01237 168.66016 173.4082 C 168.84766 173.80404 168.94141 174.26997 168.94141 174.80469 C 168.94141 175.26302 168.87131 175.67686 168.73242 176.04492 C 168.60048 176.41298 168.37131 176.76237 168.04492 177.0957 C 167.71854 177.42209 167.29427 177.66167 166.77344 177.81445 C 166.2526 177.96029 165.57552 178.0332 164.74219 178.0332 L 163.00391 178.0332 L 163.00391 171.83594 z M 122.13867 171.86719 L 124.85742 179.48242 L 119.41016 179.48242 L 122.13867 171.86719 z M 197.37891 173.61719 C 196.74002 173.61719 196.09701 173.75543 195.45117 174.0332 C 194.80535 174.30404 194.25608 174.68663 193.80469 175.17969 C 193.31858 175.70747 192.93316 176.33529 192.64844 177.06445 C 192.37066 177.78667 192.23242 178.64844 192.23242 179.64844 C 192.23242 181.47482 192.63867 182.8915 193.45117 183.89844 C 194.27061 184.89844 195.37479 185.39844 196.76367 185.39844 C 197.59701 185.39844 198.28169 185.28385 198.81641 185.05469 C 199.35807 184.81857 199.92339 184.46441 200.51367 183.99219 L 200.51367 185.05469 C 200.51367 185.52691 200.46159 185.95399 200.35742 186.33594 C 200.25326 186.71788 200.079 187.04362 199.83594 187.31445 C 199.59288 187.59917 199.25391 187.8227 198.81641 187.98242 C 198.37891 188.14214 197.82682 188.2207 197.16016 188.2207 C 196.46572 188.2207 195.77062 188.12695 195.07617 187.93945 C 194.38173 187.7589 193.87413 187.60742 193.55469 187.48242 L 193.45117 187.48242 L 193.45117 189.48242 C 194.02061 189.64215 194.59635 189.76237 195.17969 189.8457 C 195.76997 189.93598 196.37413 189.98242 196.99219 189.98242 C 198.85329 189.98242 200.23307 189.51931 201.12891 188.5957 C 202.02474 187.6721 202.47266 186.22417 202.47266 184.25195 L 202.47266 173.93945 L 200.63867 173.93945 L 200.51367 174.43945 C 200.00673 174.16168 199.52474 173.95812 199.06641 173.82617 C 198.61502 173.68729 198.05252 173.61719 197.37891 173.61719 z M 227.77344 173.61719 C 227.08594 173.61719 226.41645 173.7602 225.76367 174.04492 C 225.11089 174.32964 224.47829 174.72548 223.86719 175.23242 L 223.86719 173.93945 L 221.91016 173.93945 L 221.91016 185.57617 L 223.86719 185.57617 L 223.86719 176.88867 C 224.40191 176.47895 224.96159 176.14084 225.54492 175.87695 C 226.12825 175.61307 226.68793 175.48242 227.22266 175.48242 C 227.74349 175.48242 228.1658 175.55534 228.49219 175.70117 C 228.81857 175.84006 229.06857 176.05404 229.24219 176.3457 C 229.40889 176.60959 229.52347 176.97895 229.58594 177.45117 C 229.6484 177.91645 229.67969 178.41645 229.67969 178.95117 L 229.67969 185.57617 L 231.63867 185.57617 L 231.63867 178.02344 C 231.63867 176.59983 231.30816 175.5089 230.64844 174.75195 C 229.98872 173.99501 229.03038 173.61719 227.77344 173.61719 z M 254.96094 173.61719 C 253.3151 173.61719 252.00738 174.16928 251.03516 175.27344 C 250.06988 176.37066 249.58594 177.86784 249.58594 179.76367 C 249.58594 181.65951 250.06988 183.15473 251.03516 184.25195 C 252.00738 185.34917 253.3151 185.89844 254.96094 185.89844 C 256.59288 185.89844 257.89497 185.34917 258.86719 184.25195 C 259.83941 183.15473 260.32617 181.65951 260.32617 179.76367 C 260.32617 177.86784 259.83941 176.37066 258.86719 175.27344 C 257.89497 174.16928 256.59288 173.61719 254.96094 173.61719 z M 299.16992 173.61719 C 297.52409 173.61719 296.21441 174.16928 295.24219 175.27344 C 294.27691 176.37066 293.79492 177.86784 293.79492 179.76367 C 293.79492 181.65951 294.27691 183.15473 295.24219 184.25195 C 296.21441 185.34917 297.52409 185.89844 299.16992 185.89844 C 300.80186 185.89844 302.10395 185.34917 303.07617 184.25195 C 304.04839 183.15473 304.53516 181.65951 304.53516 179.76367 C 304.53516 177.86784 304.04839 176.37066 303.07617 175.27344 C 302.10395 174.16928 300.80186 173.61719 299.16992 173.61719 z M 329.86719 173.61719 C 328.17275 173.61719 326.80534 174.17687 325.76367 175.29492 C 324.72895 176.41298 324.21094 177.9234 324.21094 179.82617 C 324.21094 181.74978 324.7526 183.23459 325.83594 184.2832 C 326.91927 185.32486 328.42687 185.8457 330.35742 185.8457 C 331.11436 185.8457 331.83594 185.75195 332.52344 185.56445 C 333.21094 185.37695 333.8852 185.14496 334.54492 184.86719 L 334.54492 182.73242 L 334.44141 182.73242 C 334.10113 183.03798 333.52822 183.35048 332.72266 183.66992 C 331.92405 183.98242 331.1276 184.13867 330.33594 184.13867 C 329.73872 184.13867 329.19141 184.05534 328.69141 183.88867 C 328.19835 183.72201 327.77127 183.47201 327.41016 183.13867 C 327.03516 182.7984 326.73871 182.36372 326.52344 181.83594 C 326.30816 181.30122 326.20117 180.67621 326.20117 179.96094 L 334.77344 179.96094 L 334.77344 178.89844 C 334.77344 177.21094 334.34635 175.90885 333.49219 174.99219 C 332.64497 174.07553 331.43663 173.61719 329.86719 173.61719 z M 179.45117 173.93945 L 179.45117 181.49219 C 179.45117 182.93663 179.7921 184.0332 180.47266 184.7832 C 181.15322 185.52626 182.10395 185.89844 183.32617 185.89844 C 184.05533 185.89844 184.72201 185.7602 185.32617 185.48242 C 185.93034 185.20465 186.56294 184.80404 187.22266 184.2832 L 187.22266 185.57617 L 189.17969 185.57617 L 189.17969 173.93945 L 187.22266 173.93945 L 187.22266 182.62695 C 186.70182 183.03667 186.13932 183.37479 185.53516 183.63867 C 184.93793 183.90257 184.38585 184.0332 183.87891 184.0332 C 183.30946 184.0332 182.87478 183.96507 182.57617 183.82617 C 182.27756 183.68729 182.03516 183.46376 181.84766 183.1582 C 181.66708 182.85959 181.54772 182.5026 181.49219 182.08594 C 181.43665 181.66233 181.41016 181.15473 181.41016 180.56445 L 181.41016 173.93945 L 179.45117 173.93945 z M 216.05469 173.93945 L 216.05469 185.57617 L 218.01367 185.57617 L 218.01367 173.93945 L 216.05469 173.93945 z M 263.36719 173.93945 L 263.36719 185.57617 L 265.32617 185.57617 L 265.32617 177.31445 C 265.84701 176.89084 266.38867 176.54709 266.95117 176.2832 C 267.51367 176.01237 268.09701 175.87695 268.70117 175.87695 C 269.07617 175.87695 269.39909 175.89495 269.66992 175.92969 C 269.9477 175.95747 270.23177 176.00673 270.52344 176.07617 L 270.62891 176.07617 L 270.62891 174.06445 C 270.32335 174.01585 270.09418 173.98457 269.94141 173.9707 C 269.78863 173.9499 269.54145 173.93945 269.20117 173.93945 C 268.58311 173.93945 267.97613 174.07204 267.37891 174.33594 C 266.78863 174.59288 266.10395 175.0332 265.32617 175.6582 L 265.32617 173.93945 L 263.36719 173.93945 z M 306.54492 173.93945 L 309.60742 185.57617 L 311.41016 185.57617 L 314.37891 176.60742 L 317.36719 185.57617 L 319.17969 185.57617 L 322.21094 173.93945 L 320.24219 173.93945 L 318.22266 182.95117 L 315.24219 173.93945 L 313.62891 173.93945 L 310.72266 182.95117 L 308.58594 173.93945 L 306.54492 173.93945 z M 329.76367 175.23242 C 330.80533 175.23242 331.57899 175.51367 332.08594 176.07617 C 332.59984 176.63867 332.86025 177.43316 332.86719 178.46094 L 326.20117 178.46094 C 326.28451 177.54427 326.63585 176.77626 327.25391 176.1582 C 327.87891 175.54015 328.71506 175.23242 329.76367 175.23242 z M 254.96094 175.30469 C 256.00954 175.30469 256.82965 175.67209 257.41992 176.4082 C 258.0102 177.13737 258.30469 178.25673 258.30469 179.76367 C 258.30469 181.23589 258.00738 182.3457 257.41016 183.0957 C 256.81988 183.83876 256.0026 184.21094 254.96094 184.21094 C 253.90538 184.21094 253.08246 183.83594 252.49219 183.08594 C 251.90191 182.329 251.60742 181.22201 251.60742 179.76367 C 251.60742 178.25673 251.89909 177.13737 252.48242 176.4082 C 253.0727 175.67209 253.89844 175.30469 254.96094 175.30469 z M 299.16992 175.30469 C 300.21853 175.30469 301.03863 175.67209 301.62891 176.4082 C 302.21918 177.13737 302.51367 178.25673 302.51367 179.76367 C 302.51367 181.23589 302.21441 182.3457 301.61719 183.0957 C 301.02691 183.83876 300.21158 184.21094 299.16992 184.21094 C 298.11437 184.21094 297.29145 183.83594 296.70117 183.08594 C 296.1109 182.329 295.81641 181.22201 295.81641 179.76367 C 295.81641 178.25673 296.10808 177.13737 296.69141 176.4082 C 297.28169 175.67209 298.10742 175.30469 299.16992 175.30469 z M 197.72266 175.37695 C 198.1671 175.37695 198.61025 175.42904 199.05469 175.5332 C 199.50608 175.63042 199.99284 175.79709 200.51367 176.0332 L 200.51367 182.37695 C 200.03451 182.74501 199.50608 183.04145 198.92969 183.26367 C 198.36025 183.47895 197.7921 183.58594 197.22266 183.58594 C 196.16016 183.58594 195.39974 183.24978 194.94141 182.57617 C 194.48307 181.90256 194.25391 180.91298 194.25391 179.60742 C 194.25391 178.23242 194.56163 177.18316 195.17969 176.46094 C 195.79774 175.73872 196.64627 175.37695 197.72266 175.37695 z M 205.99219 177.8457 L 205.99219 179.73242 L 212.49219 179.73242 L 212.49219 177.8457 L 205.99219 177.8457 z M 28.503906 178.04492 L 31.744141 178.04492 C 32.424695 178.04492 33.000434 178.07142 33.472656 178.12695 C 33.951822 178.17556 34.358074 178.28732 34.691406 178.46094 C 35.184461 178.71788 35.525391 179.03038 35.712891 179.39844 C 35.900391 179.76649 35.994141 180.26367 35.994141 180.88867 C 35.994141 181.43728 35.903212 181.8852 35.722656 182.23242 C 35.542101 182.57964 35.258029 182.88737 34.869141 183.1582 C 34.501085 183.4082 34.02756 183.58247 33.451172 183.67969 C 32.874784 183.76997 32.135198 183.81445 31.232422 183.81445 L 28.503906 183.81445 L 28.503906 178.04492 z "
       inkscape:radius="0"
       sodipodi:type="inkscape:offset"
       style="font-size:21.3333px"
       id="path163" /></g></svg>
