<?xml version="1.0" encoding="UTF-8" standalone="no"?>
<!-- Generator: Adobe Illustrator 23.0.1, SVG Export Plug-In . SVG Version: 6.00 Build 0) -->

<svg
   id="Layer_1"
   x="0px"
   y="0px"
   viewBox="0 0 400 300"
   style="enable-background:new 0 0 400 245;"
   xml:space="preserve"
   version="1.1"
   xmlns="http://www.w3.org/2000/svg"
   xmlns:svg="http://www.w3.org/2000/svg"><defs
   id="defs137" /> <style
   type="text/css"
   id="style2"> .st0{fill:#4C83C3;} </style> <g
   id="g130"> <path
   id="polygon4"
   class="st0"
   style="fill:#4c83c3"
   d="m 336.1,42.1 h 62.2 V 53.5 H 332 Z" /> <path
   class="st0"
   d="m 221.5,42.1 h 61.6 l 4,11.5 c 0,0 -65.6,0 -65.6,0 0.1,-0.1 0,-11.5 0,-11.5 z"
   id="path6" /> <path
   class="st0"
   d="m 172.7,42.1 c 10.1,1 19,4.6 26.5,11.5 0,0 -111.6,0 -111.6,0 0,0 0,-11.5 0,-11.5 z"
   id="path8" /> <g
   id="g14"> <path
   id="rect10"
   class="st0"
   style="fill:#4c83c3"
   d="m 0,42.099998 h 77.5 v 11.4 H 0 Z" /> <path
   class="st0"
   d="M 38.8,47.8"
   id="path12" /> </g> <path
   class="st0"
   d="m 398.3,75 h -73.9 c 0,0 4,-11.4 4,-11.4 h 69.9 z"
   id="path16" /> <path
   id="polygon18"
   class="st0"
   style="fill:#4c83c3"
   d="m 221.5,63.6 h 69.2 l 4.1,11.4 h -73.3 z" /> <path
   class="st0"
   d="m 207.8,63.6 c 1.5,3.8 3.2,7 3.2,11.4 H 87.6 V 63.6 Z"
   id="path20" /> <g
   id="g26"> <path
   id="rect22"
   class="st0"
   style="fill:#4c83c3"
   d="m 0,63.599998 h 77.5 v 11.4 H 0 Z" /> <path
   class="st0"
   d="M 38.8,69.3"
   id="path24" /> </g> <path
   id="polygon28"
   class="st0"
   style="fill:#4c83c3"
   d="m 376.4,85.1 v 11.4 h -59.6 l 4.1,-11.4 z" /> <path
   id="polygon30"
   class="st0"
   style="fill:#4c83c3"
   d="M 243.4,96.5 V 85.1 h 54.9 l 4.1,11.4 z" /> <path
   class="st0"
   d="m 212,85 c 0,3.9 -0.5,8 -1.6,11.4 H 176.6 V 85 Z"
   id="path32" /> <g
   id="g38"> <path
   id="rect34"
   class="st0"
   style="fill:#4c83c3"
   d="m 21.6,85.099998 h 33.3 v 11.4 H 21.6 Z" /> <path
   class="st0"
   d="M 38.3,90.8"
   id="path36" /> </g> <g
   id="g44"> <path
   id="rect40"
   class="st0"
   style="fill:#4c83c3"
   d="m 110,85 h 33.3 V 96.4 H 110 Z" /> <path
   class="st0"
   d="M 126.6,90.8"
   id="path42" /> </g> <path
   class="st0"
   d="m 276.1,108.8 c 0,0 0,8.7 0,8.7 h -32.8 v -11.4 h 62.4 l 3.9,10.6 c 0,0 3.7,-10.6 3.7,-10.6 h 62.9 v 11.4 h -32.6 c 0,0 0,-8.7 0,-8.7 l -3,8.7 H 279 Z"
   id="path46" /> <path
   class="st0"
   d="m 110,106.1 h 95.5 v 0 c -2.1,3.8 -5.9,8.4 -9.5,11.4 0,0 -86,0 -86,0 0,0 0,-11.4 0,-11.4 z"
   id="path48" /> <g
   id="g54"> <path
   id="rect50"
   class="st0"
   style="fill:#4c83c3"
   d="m 21.6,106.1 h 33.3 v 11.4 H 21.6 Z" /> <path
   class="st0"
   d="M 38.3,111.8"
   id="path52" /> </g> <g
   id="g60"> <path
   id="rect56"
   class="st0"
   style="fill:#4c83c3"
   d="m 343.79999,127.6 h 32.6 V 139 h -32.6 z" /> <path
   class="st0"
   d="M 360.1,133.3"
   id="path58" /> </g> <path
   class="st0"
   d="M 276.1,127.6 H 243.3 V 139 c 0,0 32.8,0 32.8,0 0,-0.1 0.1,-11.4 0,-11.4 z"
   id="path62" /> <path
   class="st0"
   d="m 337.2,127.6 c -0.1,0 -3.8,11.4 -4,11.4 h -46.4 c 0,0 -4.1,-11.4 -4.1,-11.4 z"
   id="path64" /> <path
   class="st0"
   d="m 110,127.6 h 85.8 c 3.9,3.3 7.5,7.3 10.2,11.4 0.2,0 -96.1,0 -96.1,0 0.1,-0.1 0.1,-11.4 0.1,-11.4 z"
   id="path66" /> <path
   class="st0"
   d="M 54.9,138.9 V 127.5 H 21.7 c 0,0 0,11.4 0,11.4 0,0 33.2,0 33.2,0 z"
   id="path68" /> <g
   id="g74"> <path
   id="rect70"
   class="st0"
   style="fill:#4c83c3"
   d="m 343.79999,149 h 32.6 v 11.4 h -32.6 z" /> <path
   class="st0"
   d="M 360.1,154.7"
   id="path72" /> </g> <g
   id="g80"> <path
   id="rect76"
   class="st0"
   style="fill:#4c83c3"
   d="m 243.39999,149 h 32.8 v 11.4 h -32.8 z" /> <path
   class="st0"
   d="M 259.8,154.7"
   id="path78" /> </g> <path
   class="st0"
   d="m 325.6,160.4 c 0,-0.1 4,-11.4 4.1,-11.4 h -39.5 c -0.1,0 4,11.4 4,11.4 0,0 31.4,0.1 31.4,0 z"
   id="path82" /> <path
   class="st0"
   d="m 110,160.4 c 0,0 0,-11.4 0,-11.4 h 33.8 c 0,0 0,11.4 0,11.4 -0.1,0 -33.8,0 -33.8,0 z"
   id="path84" /> <path
   class="st0"
   d="m 210.8,149 c 1.6,3.4 1.8,7.5 2.1,11.4 H 177.1 V 149 Z"
   id="path86" /> <g
   id="g92"> <path
   id="rect88"
   class="st0"
   style="fill:#4c83c3"
   d="M 21.700001,149 H 55 v 11.4 H 21.700001 Z" /> <path
   class="st0"
   d="M 38.3,154.7"
   id="path90" /> </g> <g
   id="g98"> <path
   id="rect94"
   class="st0"
   style="fill:#4c83c3"
   d="m 343.79999,170 h 54.5 v 11.4 h -54.5 z" /> <path
   class="st0"
   d="M 371,175.7"
   id="path96" /> </g> <g
   id="g104"> <path
   id="rect100"
   class="st0"
   style="fill:#4c83c3"
   d="m 221.5,170 h 54.6 v 11.4 h -54.6 z" /> <path
   class="st0"
   d="M 248.8,175.7"
   id="path102" /> </g> <path
   id="polygon106"
   class="st0"
   style="fill:#4c83c3"
   d="m 297.6,170 h 24.5 l -3.9,11.4 h -16.6 z" /> <path
   class="st0"
   d="m 0,170 v 11.4 h 77.5 c 0,0 0,-11.4 0,-11.4 0,0 -77.6,0 -77.5,0 z"
   id="path108" /> <path
   class="st0"
   d="m 211.5,170 c -0.8,3.8 -1.6,8.3 -4.3,11.4 h -1 H 87.6 V 170 Z"
   id="path110" /> <path
   id="polygon112"
   class="st0"
   style="fill:#4c83c3"
   d="m 305.3,191.5 h 9.4 l -4,11.4 h -1.5 z" /> <g
   id="g118"> <path
   id="rect114"
   class="st0"
   style="fill:#4c83c3"
   d="m 343.79999,191.5 h 54.5 v 11.4 h -54.5 z" /> <path
   class="st0"
   d="M 371,197.2"
   id="path116" /> </g> <path
   class="st0"
   d="m 87.6,202.9 v -11.4 c 0,0 111.9,0 112.2,0 -7.5,7.2 -17.8,11.2 -28.9,11.4 H 87.6"
   id="path120" /> <g
   id="g126"> <path
   id="rect122"
   class="st0"
   style="fill:#4c83c3"
   d="m 221.5,191.5 h 54.6 v 11.4 h -54.6 z" /> <path
   class="st0"
   d="M 248.8,197.2"
   id="path124" /> </g> <path
   class="st0"
   d="m 77.5,191.5 c 0,0 0,11.4 0,11.4 0,0 -77.4,0 -77.5,0 0,0 0,-11.4 0,-11.4 0,0 77.4,0.1 77.5,0 z"
   id="path128" /> </g> <g
   aria-label="IBM z/OS Workload Interaction Navigator"
   id="text132"
   style="font-size:16px;text-anchor:middle"><path
     d="m 38.398437,240 h -4.59375 v -1.1875 h 1.523438 v -9.25781 h -1.523438 v -1.1875 h 4.59375 v 1.1875 H 36.875 v 9.25781 h 1.523437 z"
     id="path158" /><path
     d="m 49.820312,236.42187 q 0,0.86719 -0.328125,1.53125 -0.328125,0.66407 -0.882812,1.09375 -0.65625,0.51563 -1.445313,0.73438 Q 46.382812,240 45.171875,240 h -4.125 v -11.63281 h 3.445312 q 1.273438,0 1.90625,0.0937 0.632813,0.0937 1.210938,0.39062 0.640625,0.33594 0.929687,0.86719 0.289063,0.52344 0.289063,1.25781 0,0.82813 -0.421875,1.41406 -0.421875,0.57813 -1.125,0.92969 v 0.0625 q 1.179687,0.24219 1.859375,1.03906 0.679687,0.78907 0.679687,2 z m -2.601562,-5.24218 q 0,-0.42188 -0.140625,-0.71094 Q 46.9375,230.17969 46.625,230 q -0.367188,-0.21094 -0.890625,-0.25781 -0.523438,-0.0547 -1.296875,-0.0547 h -1.84375 v 3.35937 h 2 q 0.726562,0 1.15625,-0.0703 0.429687,-0.0781 0.796875,-0.3125 0.367187,-0.23437 0.515625,-0.60156 0.15625,-0.375 0.15625,-0.88281 z m 0.992187,5.30468 q 0,-0.70312 -0.210937,-1.11718 -0.210938,-0.41407 -0.765625,-0.70313 -0.375,-0.19531 -0.914063,-0.25 -0.53125,-0.0625 -1.296875,-0.0625 H 42.59375 v 4.32813 h 2.046875 q 1.015625,0 1.664062,-0.10157 0.648438,-0.10937 1.0625,-0.39062 0.4375,-0.30469 0.640625,-0.69531 0.203125,-0.39063 0.203125,-1.00782 z"
     id="path160" /><path
     d="m 62.375,240 h -1.546875 v -10.02344 l -3.234375,6.82031 h -0.921875 l -3.210938,-6.82031 V 240 H 52.015625 V 228.36719 H 54.125 l 3.101562,6.47656 3,-6.47656 H 62.375 Z"
     id="path162" /><path
     d="m 77.351562,240 h -7.046875 v -1.08594 L 75.390625,232.5 h -4.976563 v -1.22656 h 6.804688 v 1.04687 l -5.109375,6.4375 h 5.242187 z"
     id="path164" /><path
     d="M 84.703125,227.84375 79.101562,242.375 H 77.75 l 5.578125,-14.53125 z"
     id="path166" /><path
     d="m 95.5,229.70312 q 0.710937,0.78125 1.085937,1.91407 0.382813,1.13281 0.382813,2.57031 0,1.4375 -0.390625,2.57812 -0.382813,1.13282 -1.078125,1.89063 -0.71875,0.78906 -1.703125,1.1875 -0.976563,0.39844 -2.234375,0.39844 -1.226563,0 -2.234375,-0.40625 -1,-0.40625 -1.703125,-1.17969 -0.703125,-0.77344 -1.085938,-1.89844 -0.375,-1.125 -0.375,-2.57031 0,-1.42188 0.375,-2.54688 0.375,-1.13281 1.09375,-1.9375 0.6875,-0.76562 1.703125,-1.17187 1.023438,-0.40625 2.226563,-0.40625 1.25,0 2.242187,0.41406 1,0.40625 1.695313,1.16406 z m -0.140625,4.48438 q 0,-2.26563 -1.015625,-3.49219 -1.015625,-1.23437 -2.773438,-1.23437 -1.773437,0 -2.789062,1.23437 -1.007813,1.22656 -1.007813,3.49219 0,2.28906 1.03125,3.50781 1.03125,1.21094 2.765625,1.21094 1.734375,0 2.757813,-1.21094 1.03125,-1.21875 1.03125,-3.50781 z"
     id="path168" /><path
     d="m 107.875,236.67969 q 0,0.67968 -0.32031,1.34375 -0.3125,0.66406 -0.88281,1.125 -0.625,0.5 -1.46094,0.78125 -0.82813,0.28125 -2,0.28125 -1.25781,0 -2.26563,-0.23438 -0.999998,-0.23437 -2.03906,-0.69531 v -1.9375 h 0.109375 q 0.882812,0.73437 2.039065,1.13281 1.15625,0.39844 2.17187,0.39844 1.4375,0 2.23438,-0.53906 0.80469,-0.53907 0.80469,-1.4375 0,-0.77344 -0.38282,-1.14063 -0.375,-0.36719 -1.14843,-0.57031 -0.58594,-0.15625 -1.27344,-0.25781 -0.67969,-0.10157 -1.44531,-0.25782 -1.54688,-0.32812 -2.29688,-1.11718 -0.742188,-0.79688 -0.742188,-2.07032 0,-1.46093 1.234378,-2.39062 1.23437,-0.9375 3.13281,-0.9375 1.22656,0 2.25,0.23437 1.02344,0.23438 1.8125,0.57813 v 1.82812 h -0.10937 q -0.66407,-0.5625 -1.75,-0.92968 -1.07813,-0.375 -2.21094,-0.375 -1.24219,0 -2,0.51562 -0.75,0.51563 -0.75,1.32813 0,0.72656 0.375,1.14062 0.375,0.41406 1.32031,0.63281 0.5,0.10938 1.42188,0.26563 0.92187,0.15625 1.5625,0.32031 1.29687,0.34375 1.95312,1.03906 0.65625,0.69532 0.65625,1.94532 z"
     id="path170" /><path
     d="M 129.52344,228.36719 126.5,240 h -1.74219 L 122.3125,230.34375 119.92188,240 h -1.70313 l -3.07812,-11.63281 h 1.58593 l 2.44532,9.67187 2.40625,-9.67187 h 1.57031 l 2.42969,9.76562 2.42968,-9.76562 z"
     id="path172" /><path
     d="m 139.11719,235.64062 q 0,2.13282 -1.09375,3.36719 -1.09375,1.23438 -2.92969,1.23438 -1.85156,0 -2.94531,-1.23438 -1.08594,-1.23437 -1.08594,-3.36719 0,-2.13281 1.08594,-3.36718 1.09375,-1.24219 2.94531,-1.24219 1.83594,0 2.92969,1.24219 1.09375,1.23437 1.09375,3.36718 z m -1.51563,0 q 0,-1.69531 -0.66406,-2.51562 -0.66406,-0.82813 -1.84375,-0.82813 -1.19531,0 -1.85938,0.82813 -0.65625,0.82031 -0.65625,2.51562 0,1.64063 0.66407,2.49219 0.66406,0.84375 1.85156,0.84375 1.17187,0 1.83594,-0.83594 0.67187,-0.84375 0.67187,-2.5 z"
     id="path174" /><path
     d="m 146.84375,232.875 h -0.0781 q -0.32812,-0.0781 -0.64062,-0.10938 -0.30469,-0.0391 -0.72656,-0.0391 -0.67969,0 -1.3125,0.30469 -0.63282,0.29687 -1.21875,0.77344 V 240 h -1.46875 v -8.72656 h 1.46875 v 1.28906 q 0.875,-0.70313 1.53906,-0.99219 0.67187,-0.29687 1.36719,-0.29687 0.38281,0 0.55468,0.0234 0.17188,0.0156 0.51563,0.0703 z"
     id="path176" /><path
     d="m 156.16406,240 h -1.9375 l -3.5,-3.82031 -0.95312,0.90625 V 240 h -1.46875 v -12.15625 h 1.46875 v 7.79687 l 4.24218,-4.36718 h 1.85157 l -4.05469,4.03125 z"
     id="path178" /><path
     d="m 159.19531,240 h -1.46875 v -12.15625 h 1.46875 z"
     id="path180" /><path
     d="m 169.55469,235.64062 q 0,2.13282 -1.09375,3.36719 -1.09375,1.23438 -2.92969,1.23438 -1.85156,0 -2.94531,-1.23438 -1.08594,-1.23437 -1.08594,-3.36719 0,-2.13281 1.08594,-3.36718 1.09375,-1.24219 2.94531,-1.24219 1.83594,0 2.92969,1.24219 1.09375,1.23437 1.09375,3.36718 z m -1.51563,0 q 0,-1.69531 -0.66406,-2.51562 -0.66406,-0.82813 -1.84375,-0.82813 -1.19531,0 -1.85938,0.82813 -0.65625,0.82031 -0.65625,2.51562 0,1.64063 0.66407,2.49219 0.66406,0.84375 1.85156,0.84375 1.17187,0 1.83594,-0.83594 0.67187,-0.84375 0.67187,-2.5 z"
     id="path182" /><path
     d="m 178.61719,240 h -1.46094 v -0.92969 q -0.19531,0.13281 -0.53125,0.375 -0.32813,0.23438 -0.64063,0.375 -0.36718,0.17969 -0.84375,0.29688 -0.47656,0.125 -1.11718,0.125 -1.17969,0 -2,-0.78125 -0.82032,-0.78125 -0.82032,-1.99219 0,-0.99219 0.42188,-1.60156 0.42969,-0.61719 1.21875,-0.96875 0.79687,-0.35157 1.91406,-0.47657 1.11719,-0.125 2.39844,-0.1875 v -0.22656 q 0,-0.5 -0.17969,-0.82812 -0.17187,-0.32813 -0.5,-0.51563 -0.3125,-0.17969 -0.75,-0.24219 -0.4375,-0.0625 -0.91406,-0.0625 -0.57813,0 -1.28906,0.15625 -0.71094,0.14844 -1.46875,0.4375 h -0.0781 v -1.49218 q 0.42969,-0.11719 1.24219,-0.25782 0.8125,-0.14062 1.60156,-0.14062 0.92188,0 1.60156,0.15625 0.6875,0.14844 1.1875,0.51562 0.49219,0.35938 0.75,0.92969 0.25782,0.57031 0.25782,1.41406 z m -1.46094,-2.14844 v -2.42969 q -0.67188,0.0391 -1.58594,0.11719 -0.90625,0.0781 -1.4375,0.22656 -0.63281,0.17969 -1.02344,0.5625 -0.39062,0.375 -0.39062,1.03907 0,0.75 0.45312,1.13281 0.45313,0.375 1.38282,0.375 0.77343,0 1.41406,-0.29688 0.64062,-0.30468 1.1875,-0.72656 z"
     id="path184" /><path
     d="m 188.53906,240 h -1.46875 v -0.91406 q -0.63281,0.54687 -1.32031,0.85156 -0.6875,0.30469 -1.49219,0.30469 -1.5625,0 -2.48437,-1.20313 -0.91407,-1.20312 -0.91407,-3.33594 0,-1.10937 0.3125,-1.97656 0.32032,-0.86719 0.85938,-1.47656 0.53125,-0.59375 1.23437,-0.90625 0.71094,-0.3125 1.46875,-0.3125 0.6875,0 1.21875,0.14844 0.53125,0.14062 1.11719,0.44531 v -3.78125 h 1.46875 z m -1.46875,-2.14844 v -5.00781 q -0.59375,-0.26563 -1.0625,-0.36719 -0.46875,-0.10156 -1.02344,-0.10156 -1.23437,0 -1.92187,0.85937 -0.6875,0.85938 -0.6875,2.4375 0,1.55469 0.53125,2.36719 0.53125,0.80469 1.70312,0.80469 0.625,0 1.26563,-0.27344 0.64062,-0.28125 1.19531,-0.71875 z"
     id="path186" /><path
     d="m 201.27344,240 h -4.59375 v -1.1875 h 1.52343 v -9.25781 h -1.52343 v -1.1875 h 4.59375 v 1.1875 H 199.75 v 9.25781 h 1.52344 z"
     id="path188" /><path
     d="m 211.10156,240 h -1.46875 v -4.96875 q 0,-0.60156 -0.0703,-1.125 -0.0703,-0.53125 -0.25781,-0.82813 -0.19532,-0.32812 -0.5625,-0.48437 -0.36719,-0.16406 -0.95313,-0.16406 -0.60156,0 -1.25781,0.29687 -0.65625,0.29688 -1.25781,0.75781 V 240 h -1.46875 v -8.72656 h 1.46875 v 0.96875 q 0.6875,-0.57032 1.42187,-0.89063 0.73438,-0.32031 1.50781,-0.32031 1.41407,0 2.15625,0.85156 0.74219,0.85156 0.74219,2.45313 z"
     id="path190" /><path
     d="m 218.46094,239.92187 q -0.41407,0.10938 -0.90625,0.17969 -0.48438,0.0703 -0.86719,0.0703 -1.33594,0 -2.03125,-0.71875 -0.69531,-0.71875 -0.69531,-2.30468 v -4.64063 h -0.99219 v -1.23437 h 0.99219 v -2.50782 h 1.46875 v 2.50782 h 3.03125 v 1.23437 h -3.03125 v 3.97656 q 0,0.6875 0.0312,1.07813 0.0312,0.38281 0.21875,0.71875 0.17187,0.3125 0.46875,0.46094 0.30468,0.14062 0.92187,0.14062 0.35938,0 0.75,-0.10156 0.39063,-0.10938 0.5625,-0.17969 h 0.0781 z"
     id="path192" /><path
     d="m 227.54687,235.78906 h -6.42968 q 0,0.80469 0.24218,1.40625 0.24219,0.59375 0.66407,0.97656 0.40625,0.375 0.96093,0.5625 0.5625,0.1875 1.23438,0.1875 0.89062,0 1.78906,-0.35156 0.90625,-0.35937 1.28906,-0.70312 h 0.0781 v 1.60156 q -0.74219,0.3125 -1.51563,0.52344 -0.77343,0.21093 -1.625,0.21093 -2.17187,0 -3.39062,-1.17187 -1.21875,-1.17969 -1.21875,-3.34375 0,-2.14063 1.16406,-3.39844 1.17188,-1.25781 3.07813,-1.25781 1.76562,0 2.71875,1.03125 0.96093,1.03125 0.96093,2.92969 z m -1.42968,-1.125 q -0.008,-1.15625 -0.58594,-1.78906 -0.57031,-0.63281 -1.74219,-0.63281 -1.17969,0 -1.88281,0.69531 -0.69531,0.69531 -0.78906,1.72656 z"
     id="path194" /><path
     d="m 235.21875,232.875 h -0.0781 q -0.32812,-0.0781 -0.64062,-0.10938 -0.30469,-0.0391 -0.72656,-0.0391 -0.67969,0 -1.3125,0.30469 -0.63282,0.29687 -1.21875,0.77344 V 240 h -1.46875 v -8.72656 h 1.46875 v 1.28906 q 0.875,-0.70313 1.53906,-0.99219 0.67187,-0.29687 1.36719,-0.29687 0.38281,0 0.55468,0.0234 0.17188,0.0156 0.51563,0.0703 z"
     id="path196" /><path
     d="m 243.39844,240 h -1.46094 v -0.92969 q -0.19531,0.13281 -0.53125,0.375 -0.32813,0.23438 -0.64063,0.375 -0.36718,0.17969 -0.84375,0.29688 -0.47656,0.125 -1.11718,0.125 -1.17969,0 -2,-0.78125 -0.82032,-0.78125 -0.82032,-1.99219 0,-0.99219 0.42188,-1.60156 0.42969,-0.61719 1.21875,-0.96875 0.79687,-0.35157 1.91406,-0.47657 1.11719,-0.125 2.39844,-0.1875 v -0.22656 q 0,-0.5 -0.17969,-0.82812 -0.17187,-0.32813 -0.5,-0.51563 -0.3125,-0.17969 -0.75,-0.24219 -0.4375,-0.0625 -0.91406,-0.0625 -0.57813,0 -1.28906,0.15625 -0.71094,0.14844 -1.46875,0.4375 h -0.0781 v -1.49218 q 0.42969,-0.11719 1.24219,-0.25782 0.8125,-0.14062 1.60156,-0.14062 0.92188,0 1.60156,0.15625 0.6875,0.14844 1.1875,0.51562 0.49219,0.35938 0.75,0.92969 0.25782,0.57031 0.25782,1.41406 z m -1.46094,-2.14844 v -2.42969 q -0.67188,0.0391 -1.58594,0.11719 -0.90625,0.0781 -1.4375,0.22656 -0.63281,0.17969 -1.02344,0.5625 -0.39062,0.375 -0.39062,1.03907 0,0.75 0.45312,1.13281 0.45313,0.375 1.38282,0.375 0.77343,0 1.41406,-0.29688 0.64062,-0.30468 1.1875,-0.72656 z"
     id="path198" /><path
     d="m 252.69531,239.45312 q -0.73437,0.35157 -1.39844,0.54688 -0.65625,0.19531 -1.39843,0.19531 -0.94532,0 -1.73438,-0.27344 -0.78906,-0.28125 -1.35156,-0.84375 -0.57031,-0.5625 -0.88281,-1.42187 -0.3125,-0.85938 -0.3125,-2.00781 0,-2.14063 1.17187,-3.35938 1.17969,-1.21875 3.10938,-1.21875 0.75,0 1.46875,0.21094 0.72656,0.21094 1.32812,0.51562 v 1.63282 h -0.0781 q -0.67188,-0.52344 -1.39063,-0.80469 -0.71094,-0.28125 -1.39062,-0.28125 -1.25,0 -1.97657,0.84375 -0.71875,0.83594 -0.71875,2.46094 0,1.57812 0.70313,2.42968 0.71094,0.84375 1.99219,0.84375 0.44531,0 0.90625,-0.11718 0.46093,-0.11719 0.82812,-0.30469 0.32031,-0.16406 0.60156,-0.34375 0.28125,-0.1875 0.44532,-0.32031 h 0.0781 z"
     id="path200" /><path
     d="m 259.11719,239.92187 q -0.41407,0.10938 -0.90625,0.17969 -0.48438,0.0703 -0.86719,0.0703 -1.33594,0 -2.03125,-0.71875 -0.69531,-0.71875 -0.69531,-2.30468 v -4.64063 H 253.625 v -1.23437 h 0.99219 v -2.50782 h 1.46875 v 2.50782 h 3.03125 v 1.23437 h -3.03125 v 3.97656 q 0,0.6875 0.0312,1.07813 0.0312,0.38281 0.21875,0.71875 0.17187,0.3125 0.46875,0.46094 0.30468,0.14062 0.92187,0.14062 0.35938,0 0.75,-0.10156 0.39063,-0.10938 0.5625,-0.17969 h 0.0781 z"
     id="path202" /><path
     d="m 262.47656,229.8125 h -1.65625 v -1.52344 h 1.65625 z M 262.38281,240 h -1.46875 v -8.72656 h 1.46875 z"
     id="path204" /><path
     d="m 272.74219,235.64062 q 0,2.13282 -1.09375,3.36719 -1.09375,1.23438 -2.92969,1.23438 -1.85156,0 -2.94531,-1.23438 -1.08594,-1.23437 -1.08594,-3.36719 0,-2.13281 1.08594,-3.36718 1.09375,-1.24219 2.94531,-1.24219 1.83594,0 2.92969,1.24219 1.09375,1.23437 1.09375,3.36718 z m -1.51563,0 q 0,-1.69531 -0.66406,-2.51562 -0.66406,-0.82813 -1.84375,-0.82813 -1.19531,0 -1.85938,0.82813 -0.65625,0.82031 -0.65625,2.51562 0,1.64063 0.66407,2.49219 0.66406,0.84375 1.85156,0.84375 1.17187,0 1.83594,-0.83594 0.67187,-0.84375 0.67187,-2.5 z"
     id="path206" /><path
     d="m 282.32031,240 h -1.46875 v -4.96875 q 0,-0.60156 -0.0703,-1.125 -0.0703,-0.53125 -0.25781,-0.82813 -0.19532,-0.32812 -0.5625,-0.48437 -0.36719,-0.16406 -0.95313,-0.16406 -0.60156,0 -1.25781,0.29687 -0.65625,0.29688 -1.25781,0.75781 V 240 h -1.46875 v -8.72656 h 1.46875 v 0.96875 q 0.6875,-0.57032 1.42187,-0.89063 0.73438,-0.32031 1.50781,-0.32031 1.41407,0 2.15625,0.85156 0.74219,0.85156 0.74219,2.45313 z"
     id="path208" /><path
     d="m 299.76562,240 h -1.91406 l -5.51562,-10.40625 V 240 h -1.44532 v -11.63281 h 2.39844 l 5.03125,9.5 v -9.5 h 1.44531 z"
     id="path210" /><path
     d="m 309.52344,240 h -1.46094 v -0.92969 q -0.19531,0.13281 -0.53125,0.375 -0.32813,0.23438 -0.64063,0.375 -0.36718,0.17969 -0.84375,0.29688 -0.47656,0.125 -1.11718,0.125 -1.17969,0 -2,-0.78125 -0.82032,-0.78125 -0.82032,-1.99219 0,-0.99219 0.42188,-1.60156 0.42969,-0.61719 1.21875,-0.96875 0.79687,-0.35157 1.91406,-0.47657 1.11719,-0.125 2.39844,-0.1875 v -0.22656 q 0,-0.5 -0.17969,-0.82812 -0.17187,-0.32813 -0.5,-0.51563 -0.3125,-0.17969 -0.75,-0.24219 -0.4375,-0.0625 -0.91406,-0.0625 -0.57813,0 -1.28906,0.15625 -0.71094,0.14844 -1.46875,0.4375 h -0.0781 v -1.49218 q 0.42969,-0.11719 1.24219,-0.25782 0.8125,-0.14062 1.60156,-0.14062 0.92188,0 1.60156,0.15625 0.6875,0.14844 1.1875,0.51562 0.49219,0.35938 0.75,0.92969 0.25782,0.57031 0.25782,1.41406 z m -1.46094,-2.14844 v -2.42969 q -0.67188,0.0391 -1.58594,0.11719 -0.90625,0.0781 -1.4375,0.22656 -0.63281,0.17969 -1.02344,0.5625 -0.39062,0.375 -0.39062,1.03907 0,0.75 0.45312,1.13281 0.45313,0.375 1.38282,0.375 0.77343,0 1.41406,-0.29688 0.64062,-0.30468 1.1875,-0.72656 z"
     id="path212" /><path
     d="M 319.91406,231.27344 316.38281,240 h -1.47656 l -3.50781,-8.72656 h 1.59375 l 2.70312,6.94531 2.67969,-6.94531 z"
     id="path214" /><path
     d="m 323.41406,229.8125 h -1.65625 v -1.52344 h 1.65625 z M 323.32031,240 h -1.46875 v -8.72656 h 1.46875 z"
     id="path216" /><path
     d="m 333.32031,239.00781 q 0,2.21875 -1.00781,3.25781 -1.00781,1.03907 -3.10156,1.03907 -0.69532,0 -1.35938,-0.10157 -0.65625,-0.0937 -1.29687,-0.27343 v -1.5 h 0.0781 q 0.35938,0.14062 1.14063,0.34375 0.78125,0.21093 1.5625,0.21093 0.75,0 1.24218,-0.17968 0.49219,-0.17969 0.76563,-0.5 0.27344,-0.30469 0.39062,-0.73438 0.11719,-0.42969 0.11719,-0.96094 v -0.79687 q -0.66406,0.53125 -1.27344,0.79687 -0.60156,0.25782 -1.53906,0.25782 -1.5625,0 -2.48437,-1.125 -0.91407,-1.13282 -0.91407,-3.1875 0,-1.125 0.3125,-1.9375 0.32032,-0.82032 0.86719,-1.41407 0.50781,-0.55468 1.23438,-0.85937 0.72656,-0.3125 1.44531,-0.3125 0.75781,0 1.26562,0.15625 0.51563,0.14844 1.08594,0.46094 l 0.0937,-0.375 h 1.375 z m -1.46875,-1.40625 v -4.75781 q -0.58594,-0.26563 -1.09375,-0.375 -0.5,-0.11719 -1,-0.11719 -1.21094,0 -1.90625,0.8125 -0.69531,0.8125 -0.69531,2.35938 0,1.46875 0.51562,2.22656 0.51563,0.75781 1.71094,0.75781 0.64063,0 1.28125,-0.24219 0.64844,-0.25 1.1875,-0.66406 z"
     id="path218" /><path
     d="m 342.99219,240 h -1.46094 v -0.92969 q -0.19531,0.13281 -0.53125,0.375 -0.32813,0.23438 -0.64063,0.375 -0.36718,0.17969 -0.84375,0.29688 -0.47656,0.125 -1.11718,0.125 -1.17969,0 -2,-0.78125 -0.82032,-0.78125 -0.82032,-1.99219 0,-0.99219 0.42188,-1.60156 0.42969,-0.61719 1.21875,-0.96875 0.79687,-0.35157 1.91406,-0.47657 1.11719,-0.125 2.39844,-0.1875 v -0.22656 q 0,-0.5 -0.17969,-0.82812 -0.17187,-0.32813 -0.5,-0.51563 -0.3125,-0.17969 -0.75,-0.24219 -0.4375,-0.0625 -0.91406,-0.0625 -0.57813,0 -1.28906,0.15625 -0.71094,0.14844 -1.46875,0.4375 h -0.0781 v -1.49218 q 0.42969,-0.11719 1.24219,-0.25782 0.8125,-0.14062 1.60156,-0.14062 0.92188,0 1.60156,0.15625 0.6875,0.14844 1.1875,0.51562 0.49219,0.35938 0.75,0.92969 0.25782,0.57031 0.25782,1.41406 z m -1.46094,-2.14844 v -2.42969 q -0.67188,0.0391 -1.58594,0.11719 -0.90625,0.0781 -1.4375,0.22656 -0.63281,0.17969 -1.02344,0.5625 -0.39062,0.375 -0.39062,1.03907 0,0.75 0.45312,1.13281 0.45313,0.375 1.38282,0.375 0.77343,0 1.41406,-0.29688 0.64062,-0.30468 1.1875,-0.72656 z"
     id="path220" /><path
     d="m 350.36719,239.92187 q -0.41407,0.10938 -0.90625,0.17969 -0.48438,0.0703 -0.86719,0.0703 -1.33594,0 -2.03125,-0.71875 -0.69531,-0.71875 -0.69531,-2.30468 v -4.64063 H 344.875 v -1.23437 h 0.99219 v -2.50782 h 1.46875 v 2.50782 h 3.03125 v 1.23437 h -3.03125 v 3.97656 q 0,0.6875 0.0312,1.07813 0.0312,0.38281 0.21875,0.71875 0.17187,0.3125 0.46875,0.46094 0.30468,0.14062 0.92187,0.14062 0.35938,0 0.75,-0.10156 0.39063,-0.10938 0.5625,-0.17969 h 0.0781 z"
     id="path222" /><path
     d="m 359.58594,235.64062 q 0,2.13282 -1.09375,3.36719 -1.09375,1.23438 -2.92969,1.23438 -1.85156,0 -2.94531,-1.23438 -1.08594,-1.23437 -1.08594,-3.36719 0,-2.13281 1.08594,-3.36718 1.09375,-1.24219 2.94531,-1.24219 1.83594,0 2.92969,1.24219 1.09375,1.23437 1.09375,3.36718 z m -1.51563,0 q 0,-1.69531 -0.66406,-2.51562 -0.66406,-0.82813 -1.84375,-0.82813 -1.19531,0 -1.85938,0.82813 -0.65625,0.82031 -0.65625,2.51562 0,1.64063 0.66407,2.49219 0.66406,0.84375 1.85156,0.84375 1.17187,0 1.83594,-0.83594 0.67187,-0.84375 0.67187,-2.5 z"
     id="path224" /><path
     d="m 367.3125,232.875 h -0.0781 q -0.32812,-0.0781 -0.64062,-0.10938 -0.30469,-0.0391 -0.72656,-0.0391 -0.67969,0 -1.3125,0.30469 -0.63282,0.29687 -1.21875,0.77344 V 240 h -1.46875 v -8.72656 h 1.46875 v 1.28906 q 0.875,-0.70313 1.53906,-0.99219 0.67187,-0.29687 1.36719,-0.29687 0.38281,0 0.55468,0.0234 0.17188,0.0156 0.51563,0.0703 z"
     id="path226" /></g></svg>
