<?xml version="1.0" encoding="UTF-8" standalone="no"?>
<!-- Generator: Adobe Illustrator 23.0.1, SVG Export Plug-In . SVG Version: 6.00 Build 0) -->

<svg
   id="Layer_1"
   x="0px"
   y="0px"
   viewBox="0 0 400 300"
   style="enable-background:new 0 0 400 245;"
   xml:space="preserve"
   version="1.1"
   xmlns="http://www.w3.org/2000/svg"
   xmlns:svg="http://www.w3.org/2000/svg"><defs
   id="defs31" /> <style
   type="text/css"
   id="style1"> .st0{fill:#4C83C3;} </style> <g
   id="g31"> <polygon
   class="st0"
   points="398.3,53.5 332,53.5 336.1,42.1 398.3,42.1 "
   id="polygon1" /> <path
   class="st0"
   d="M221.5,42.1l61.6,0l4,11.5c0,0-65.6,0-65.6,0C221.6,53.5,221.5,42.1,221.5,42.1z"
   id="path1" /> <path
   class="st0"
   d="M172.7,42.1c10.1,1,19,4.6,26.5,11.5c0,0-111.6,0-111.6,0c0,0,0-11.5,0-11.5L172.7,42.1z"
   id="path2" /> <g
   id="g3"> <rect
   x="0"
   y="42.1"
   class="st0"
   width="77.5"
   height="11.4"
   id="rect2" /> <path
   class="st0"
   d="M38.8,47.8"
   id="path3" /> </g> <path
   class="st0"
   d="M398.3,75h-73.9c0,0,4-11.4,4-11.4h69.9V75z"
   id="path4" /> <polygon
   class="st0"
   points="294.8,75 221.5,75 221.5,63.6 290.7,63.6 "
   id="polygon4" /> <path
   class="st0"
   d="M207.8,63.6c1.5,3.8,3.2,7,3.2,11.4H87.6V63.6H207.8z"
   id="path5" /> <g
   id="g6"> <rect
   x="0"
   y="63.6"
   class="st0"
   width="77.5"
   height="11.4"
   id="rect5" /> <path
   class="st0"
   d="M38.8,69.3"
   id="path6" /> </g> <polygon
   class="st0"
   points="316.8,96.5 320.9,85.1 376.4,85.1 376.4,96.5 "
   id="polygon6" /> <polygon
   class="st0"
   points="298.3,85.1 302.4,96.5 243.4,96.5 243.4,85.1 "
   id="polygon7" /> <path
   class="st0"
   d="M212,85c0,3.9-0.5,8-1.6,11.4h-33.8V85H212z"
   id="path7" /> <g
   id="g8"> <rect
   x="21.6"
   y="85.1"
   class="st0"
   width="33.3"
   height="11.4"
   id="rect7" /> <path
   class="st0"
   d="M38.3,90.8"
   id="path8" /> </g> <g
   id="g9"> <rect
   x="110"
   y="85"
   class="st0"
   width="33.3"
   height="11.4"
   id="rect8" /> <path
   class="st0"
   d="M126.6,90.8"
   id="path9" /> </g> <path
   class="st0"
   d="M276.1,108.8c0,0,0,8.7,0,8.7h-32.8v-11.4h62.4l3.9,10.6c0,0,3.7-10.6,3.7-10.6h62.9v11.4h-32.6 c0,0,0-8.7,0-8.7l-3,8.7l-61.6,0L276.1,108.8z"
   id="path10" /> <path
   class="st0"
   d="M110,106.1h95.5v0c-2.1,3.8-5.9,8.4-9.5,11.4c0,0-86,0-86,0C110,117.5,110,106.1,110,106.1z"
   id="path11" /> <g
   id="g12"> <rect
   x="21.6"
   y="106.1"
   class="st0"
   width="33.3"
   height="11.4"
   id="rect11" /> <path
   class="st0"
   d="M38.3,111.8"
   id="path12" /> </g> <g
   id="g13"> <rect
   x="343.8"
   y="127.6"
   class="st0"
   width="32.6"
   height="11.4"
   id="rect12" /> <path
   class="st0"
   d="M360.1,133.3"
   id="path13" /> </g> <path
   class="st0"
   d="M276.1,127.6h-32.8v11.4c0,0,32.8,0,32.8,0C276.1,138.9,276.2,127.6,276.1,127.6z"
   id="path14" /> <path
   class="st0"
   d="M337.2,127.6c-0.1,0-3.8,11.4-4,11.4l-46.4,0c0,0-4.1-11.4-4.1-11.4H337.2z"
   id="path15" /> <path
   class="st0"
   d="M110,127.6h85.8c3.9,3.3,7.5,7.3,10.2,11.4c0.2,0-96.1,0-96.1,0C110,138.9,110,127.6,110,127.6z"
   id="path16" /> <path
   class="st0"
   d="M54.9,138.9v-11.4H21.7c0,0,0,11.4,0,11.4C21.7,138.9,54.9,138.9,54.9,138.9z"
   id="path17" /> <g
   id="g18"> <rect
   x="343.8"
   y="149"
   class="st0"
   width="32.6"
   height="11.4"
   id="rect17" /> <path
   class="st0"
   d="M360.1,154.7"
   id="path18" /> </g> <g
   id="g19"> <rect
   x="243.4"
   y="149"
   class="st0"
   width="32.8"
   height="11.4"
   id="rect18" /> <path
   class="st0"
   d="M259.8,154.7"
   id="path19" /> </g> <path
   class="st0"
   d="M325.6,160.4c0-0.1,4-11.4,4.1-11.4h-39.5c-0.1,0,4,11.4,4,11.4S325.6,160.5,325.6,160.4z"
   id="path20" /> <path
   class="st0"
   d="M110,160.4c0,0,0-11.4,0-11.4h33.8c0,0,0,11.4,0,11.4C143.7,160.4,110,160.4,110,160.4z"
   id="path21" /> <path
   class="st0"
   d="M210.8,149c1.6,3.4,1.8,7.5,2.1,11.4h-35.8V149H210.8z"
   id="path22" /> <g
   id="g23"> <rect
   x="21.7"
   y="149"
   class="st0"
   width="33.3"
   height="11.4"
   id="rect22" /> <path
   class="st0"
   d="M38.3,154.7"
   id="path23" /> </g> <g
   id="g24"> <rect
   x="343.8"
   y="170"
   class="st0"
   width="54.5"
   height="11.4"
   id="rect23" /> <path
   class="st0"
   d="M371,175.7"
   id="path24" /> </g> <g
   id="g25"> <rect
   x="221.5"
   y="170"
   class="st0"
   width="54.6"
   height="11.4"
   id="rect24" /> <path
   class="st0"
   d="M248.8,175.7"
   id="path25" /> </g> <polygon
   class="st0"
   points="318.2,181.4 301.6,181.4 297.6,170 322.1,170 "
   id="polygon25" /> <path
   class="st0"
   d="M0,170v11.4h77.5c0,0,0-11.4,0-11.4C77.5,170-0.1,170,0,170z"
   id="path26" /> <path
   class="st0"
   d="M211.5,170c-0.8,3.8-1.6,8.3-4.3,11.4l-1,0H87.6V170H211.5z"
   id="path27" /> <polygon
   class="st0"
   points="310.7,202.9 309.2,202.9 305.3,191.5 314.7,191.5 "
   id="polygon27" /> <g
   id="g28"> <rect
   x="343.8"
   y="191.5"
   class="st0"
   width="54.5"
   height="11.4"
   id="rect27" /> <path
   class="st0"
   d="M371,197.2"
   id="path28" /> </g> <path
   class="st0"
   d="M87.6,202.9v-11.4c0,0,111.9,0,112.2,0c-7.5,7.2-17.8,11.2-28.9,11.4L87.6,202.9"
   id="path29" /> <g
   id="g30"> <rect
   x="221.5"
   y="191.5"
   class="st0"
   width="54.6"
   height="11.4"
   id="rect29" /> <path
   class="st0"
   d="M248.8,197.2"
   id="path30" /> </g> <path
   class="st0"
   d="M77.5,191.5c0,0,0,11.4,0,11.4c0,0-77.4,0-77.5,0c0,0,0-11.4,0-11.4S77.4,191.6,77.5,191.5z"
   id="path31" /> </g> <path
   d="m 138.82031,240 h -4.59375 v -1.1875 H 135.75 v -9.25781 h -1.52344 v -1.1875 h 4.59375 v 1.1875 h -1.52344 v 9.25781 h 1.52344 z m 11.40625,-3.57813 q 0,0.86719 -0.32812,1.53125 -0.32813,0.66407 -0.88282,1.09375 -0.65625,0.51563 -1.44531,0.73438 Q 146.78906,240 145.57812,240 h -4.125 v -11.63281 h 3.44532 q 1.27343,0 1.90625,0.0937 0.63281,0.0937 1.21093,0.39062 0.64063,0.33594 0.92969,0.86719 0.28906,0.52344 0.28906,1.25781 0,0.82813 -0.42187,1.41406 -0.42188,0.57813 -1.125,0.92969 v 0.0625 q 1.17969,0.24219 1.85937,1.03906 0.67969,0.78907 0.67969,2 z m -2.60156,-5.24218 q 0,-0.42188 -0.14063,-0.71094 -0.14062,-0.28906 -0.45312,-0.46875 -0.36719,-0.21094 -0.89063,-0.25781 -0.52343,-0.0547 -1.29687,-0.0547 H 143 v 3.35937 h 2 q 0.72656,0 1.15625,-0.0703 0.42969,-0.0781 0.79687,-0.3125 0.36719,-0.23437 0.51563,-0.60156 0.15625,-0.375 0.15625,-0.88281 z m 0.99219,5.30468 q 0,-0.70312 -0.21094,-1.11718 -0.21094,-0.41407 -0.76563,-0.70313 -0.375,-0.19531 -0.91406,-0.25 -0.53125,-0.0625 -1.29687,-0.0625 H 143 v 4.32813 h 2.04687 q 1.01563,0 1.66407,-0.10157 0.64843,-0.10937 1.0625,-0.39062 0.4375,-0.30469 0.64062,-0.69531 0.20313,-0.39063 0.20313,-1.00782 z M 162.78125,240 h -1.54688 V 229.97656 L 158,236.79687 h -0.92188 l -3.21093,-6.82031 V 240 h -1.44532 v -11.63281 h 2.10938 l 3.10156,6.47656 3,-6.47656 h 2.14844 z m 16.32031,-5.11719 q 0,2.79688 -1.98437,4.78125 -1.97657,1.97656 -4.77344,1.97656 -2.79688,0 -4.78125,-1.97656 -1.97656,-1.98437 -1.97656,-4.78125 0,-2.79687 1.97656,-4.77344 1.98437,-1.98437 4.78125,-1.98437 2.79687,0 4.77344,1.98437 1.98437,1.97657 1.98437,4.77344 z m -0.90625,0 q 0,-2.42187 -1.71875,-4.15625 -1.71094,-1.73437 -4.13281,-1.73437 -2.42188,0 -4.14063,1.73437 -1.71093,1.73438 -1.71093,4.15625 0,2.42188 1.71093,4.15625 1.71875,1.73438 4.14063,1.73438 2.42187,0 4.13281,-1.73438 1.71875,-1.73437 1.71875,-4.15625 z m -1.5,3.4375 h -1.74219 l -2.58593,-2.77344 h -1.26563 v 2.77344 h -1.28906 v -7.14844 h 2.4375 q 0.73437,0 1.21094,0.0625 0.47656,0.0625 0.9375,0.30469 0.49218,0.26563 0.71875,0.64844 0.23437,0.375 0.23437,0.94531 0,0.75781 -0.44531,1.26563 -0.4375,0.5 -1.21094,0.79687 z m -2.75,-5.10156 q 0,-0.28125 -0.10937,-0.5 -0.10938,-0.21875 -0.36719,-0.35938 -0.24219,-0.13281 -0.51563,-0.17187 -0.27343,-0.0391 -0.6875,-0.0391 h -1.16406 v 2.41406 h 0.99219 q 0.48437,0 0.83594,-0.0703 0.35156,-0.0781 0.57812,-0.25782 0.24219,-0.19531 0.33594,-0.42968 0.10156,-0.23438 0.10156,-0.58594 z M 196.03125,240 h -9.07813 v -1.4375 l 7.13282,-8.82031 h -6.86719 v -1.375 h 8.64062 v 1.39843 l -7.20312,8.85938 h 7.375 z m 16.96094,0 h -1.91407 L 205.5625,229.59375 V 240 h -1.44531 v -11.63281 h 2.39843 l 5.03125,9.5 v -9.5 h 1.44532 z m 10.28125,-4.21094 h -6.42969 q 0,0.80469 0.24219,1.40625 0.24218,0.59375 0.66406,0.97656 0.40625,0.375 0.96094,0.5625 0.5625,0.1875 1.23437,0.1875 0.89063,0 1.78906,-0.35156 0.90625,-0.35937 1.28907,-0.70312 h 0.0781 v 1.60156 q -0.74219,0.3125 -1.51562,0.52344 -0.77344,0.21093 -1.625,0.21093 -2.17188,0 -3.39063,-1.17187 -1.21875,-1.17969 -1.21875,-3.34375 0,-2.14063 1.16406,-3.39844 1.17188,-1.25781 3.07813,-1.25781 1.76562,0 2.71875,1.03125 0.96094,1.03125 0.96094,2.92969 z m -1.42969,-1.125 q -0.008,-1.15625 -0.58594,-1.78906 -0.57031,-0.63281 -1.74219,-0.63281 -1.17968,0 -1.88281,0.69531 -0.69531,0.69531 -0.78906,1.72656 z m 8.1875,5.25781 q -0.41406,0.10938 -0.90625,0.17969 -0.48438,0.0703 -0.86719,0.0703 -1.33594,0 -2.03125,-0.71875 -0.69531,-0.71875 -0.69531,-2.30468 v -4.64063 h -0.99219 v -1.23437 h 0.99219 v -2.50782 H 227 v 2.50782 h 3.03125 v 1.23437 H 227 v 3.97656 q 0,0.6875 0.0312,1.07813 0.0312,0.38281 0.21875,0.71875 0.17187,0.3125 0.46875,0.46094 0.30469,0.14062 0.92187,0.14062 0.35938,0 0.75,-0.10156 0.39063,-0.10938 0.5625,-0.17969 h 0.0781 z m 9.32031,-8.64843 L 235.82031,240 h -1.47656 l -3.50781,-8.72656 h 1.59375 l 2.70312,6.94531 2.67969,-6.94531 z m 3.5,-1.46094 h -1.65625 v -1.52344 h 1.65625 z M 242.75781,240 h -1.46875 v -8.72656 h 1.46875 z m 10.21094,-4.21094 h -6.42969 q 0,0.80469 0.24219,1.40625 0.24219,0.59375 0.66406,0.97656 0.40625,0.375 0.96094,0.5625 0.5625,0.1875 1.23437,0.1875 0.89063,0 1.78907,-0.35156 0.90625,-0.35937 1.28906,-0.70312 h 0.0781 v 1.60156 q -0.74218,0.3125 -1.51562,0.52344 -0.77344,0.21093 -1.625,0.21093 -2.17188,0 -3.39063,-1.17187 -1.21875,-1.17969 -1.21875,-3.34375 0,-2.14063 1.16407,-3.39844 1.17187,-1.25781 3.07812,-1.25781 1.76563,0 2.71875,1.03125 0.96094,1.03125 0.96094,2.92969 z m -1.42969,-1.125 q -0.008,-1.15625 -0.58594,-1.78906 -0.57031,-0.63281 -1.74218,-0.63281 -1.17969,0 -1.88282,0.69531 -0.69531,0.69531 -0.78906,1.72656 z M 266.17187,231.27344 263.89844,240 h -1.35938 L 260.29687,233.27344 258.07031,240 h -1.35156 l -2.29688,-8.72656 h 1.53125 l 1.60157,6.75781 2.17968,-6.75781 h 1.21094 l 2.23438,6.75781 1.51562,-6.75781 z"
   id="text31"
   style="font-size:16px;text-anchor:middle"
   aria-label="IBM® Z Netview" /></svg>
