<?xml version="1.0" encoding="UTF-8" standalone="no"?>
<svg
   role="img"
   viewBox="-4.53 -4.53 248.82 41.82"
   version="1.1"
   id="svg4"
   xmlns:xlink="http://www.w3.org/1999/xlink"
   xmlns="http://www.w3.org/2000/svg"
   xmlns:svg="http://www.w3.org/2000/svg">
  <defs
     id="defs4" />
  <title
     id="title1">Broadcom Corporation logo</title>
  <path
     d="M237.32 9.09c-1.06 0-1.93-.86-1.93-1.92s.87-1.93 1.93-1.93 1.93.87 1.93 1.93-.87 1.92-1.93 1.92m0-4.32c-1.32 0-2.4 1.08-2.4 2.4 0 1.32 1.08 2.4 2.4 2.4 1.32 0 2.4-1.08 2.4-2.4 0-1.32-1.08-2.4-2.4-2.4"
     id="path1" />
  <path
     d="M237.48 7.07l-.51.01-.01-.62h.51c.19-.01.34.11.34.3.01.19-.14.31-.33.31m.83-.32c-.01-.42-.3-.72-.77-.72l-1.07.02.03 2.26h.49l-.01-.81h.35l.46.8.55-.01-.52-.86c.24-.06.49-.28.49-.68M51.8341 23.1805h-5.999V9.3465h5.835c1.574 0 2.557 1.016 2.557 2.393 0 1.377-.983 2.36-2.557 2.36H45v4h6.8341c1.836 0 2.819 1.18 2.819 2.556 0 1.574-1.049 2.525-2.819 2.525m3.376-7.245c2.066-.426 3.771-2.262 3.771-5.015 0-2.918-2.131-5.573-6.295-5.573h-11.506v21.865h11.867c4.163 0 6.359-2.623 6.359-5.901 0-2.754-1.868-5.015-4.196-5.376m17.8225-.5902H68v4.098h3.5576l4.294 7.769h5.343l-4.917-8.327c2.361-.557 4.786-2.622 4.786-6.49m0 0c0-4.065-2.786-7.048-7.343-7.048h-10.228v21.865h4.655V9.4453h4.885c1.869 0 3.278 1.114 3.278 2.95s-1.409 2.95-3.278 2.95m43.4206 4.0652l3.409-9.408 3.41 9.408zm.492-14.063l-8.458 21.865h5.31l1.377-3.704h9.376l1.344 3.704h5.311l-8.425-21.865zm26.9039 17.7671h-3.967v-13.67h3.967c4.491 0 6.851 2.983 6.851 6.852 0 3.704-2.524 6.818-6.851 6.818m0-17.767h-8.622v21.865h8.622c6.851 0 11.604-4.327 11.604-10.916s-4.753-10.949-11.604-10.949m82.1269-.0045l-5.734 9.27-5.734-9.27h-5.146v21.869h4.656v-14.293l5.012 7.622c.574.871 1.851.871 2.424 0l5.013-7.622v14.293h4.656V5.3431z"
     id="path2" />
  <path
     id="a"
     d="M95.8253 23.3441c-3.871 0-7.008-3.138-7.008-7.008 0-3.871 3.137-7.009 7.008-7.009 3.87 0 7.008 3.138 7.008 7.009 0 3.87-3.138 7.008-7.008 7.008m0-18.536c-6.367 0-11.528 5.161-11.528 11.528 0 6.366 5.161 11.527 11.528 11.527 6.366 0 11.528-5.161 11.528-11.527 0-6.367-5.162-11.528-11.528-11.528" />
  <path
     d="M176.4035 19.7269c-1.195 2.156-3.492 3.617-6.132 3.617-3.87 0-7.008-3.138-7.008-7.008 0-3.871 3.138-7.008 7.008-7.008 2.618 0 4.897 1.438 6.1 3.565l3.27-3.269c-2.092-2.915-5.508-4.816-9.37-4.816-6.367 0-11.527 5.161-11.527 11.528 0 6.366 5.16 11.528 11.527 11.528 3.883 0 7.316-1.922 9.404-4.865z"
     id="path3" />
  <use
     transform="translate(98.718)"
     xlink:href="#a"
     id="use3" />
  <ellipse
     cx="16.52"
     cy="16.497"
     fill="#cc092f"
     rx="16.236"
     ry="16.235"
     id="ellipse3" />
  <path
     fill="#fff"
     d="M30.8253 20.8832c-1.857-.74-3.557-.492-5.261.541 0 0-.621.379-.807.496-.794.498-1.543.97-2.263.97-.687 0-1.363-.184-1.649-1.513-.446-2.073-1.534-7.167-2.009-9.69-.279-1.483-.432-2.282-.591-2.825-.28-.954-.792-1.473-1.519-1.556 0 0-.114-.016-.207-.016-.092 0-.218.018-.218.018-.72.086-1.229.605-1.507 1.554-.159.543-.312 1.342-.591 2.825-.475 2.523-1.563 7.617-2.009 9.69-.286 1.329-.962 1.513-1.649 1.513-.72 0-1.469-.472-2.263-.97-.186-.117-.808-.496-.808-.496-1.703-1.033-3.404-1.281-5.26-.541-.401.16-.79596.33918-1.17196.52018.257.806.57693 1.59925.94993 2.34425.411-.202.84203-.40243 1.28203-.53243.634-.187 1.284-.197 1.914.014.612.205 1.157.568 1.7.909 1.023.643 2.182 1.372 3.657 1.372 2.186 0 3.72-1.305 4.21-3.581.38-1.764 1.222-5.702 1.763-8.418 0 0 1.386 6.654 1.765 8.418.49 2.276 2.025 3.581 4.211 3.581 1.475 0 2.634-.729 3.657-1.372.543-.341 1.088-.704 1.7-.909.629-.211 1.28-.201 1.914-.014.44.13.87039.33065 1.28139.53265.374-.745.69309-1.53862.95009-2.34462-.376-.181-.77048-.36003-1.17148-.52003"
     id="path4" />
  <path
     d="m 66.08725,50 h -2.871094 v -0.742188 h 0.952148 V 43.47168 h -0.952148 v -0.742188 h 2.871094 v 0.742188 h -0.952149 v 5.786132 h 0.952149 z m 7.788086,-3.62793 q 0,0.991211 -0.434571,1.796875 -0.429687,0.805664 -1.147461,1.25 -0.498046,0.307617 -1.113281,0.444336 Q 70.569672,50 69.568695,50 h -1.835937 v -7.270508 h 1.816406 q 1.064453,0 1.689453,0.15625 0.629883,0.151367 1.064453,0.419922 0.742188,0.463867 1.157227,1.235352 0.415039,0.771484 0.415039,1.831054 z m -1.010742,-0.01465 q 0,-0.854492 -0.297852,-1.44043 Q 72.26889,44.331055 71.67807,43.994141 71.248383,43.75 70.764984,43.657227 70.281586,43.55957 69.607758,43.55957 h -0.908204 v 5.610352 h 0.908204 q 0.698242,0 1.21582,-0.102539 0.522461,-0.102539 0.957031,-0.38086 0.541992,-0.346679 0.810547,-0.913086 0.273438,-0.566406 0.273438,-1.416015 z M 81.912445,50 h -0.966797 v -6.264648 l -2.021484,4.262695 H 78.347992 L 76.341156,43.735352 V 50 h -0.90332 v -7.270508 h 1.318359 l 1.938477,4.047852 1.875,-4.047852 h 1.342773 z m 7.236328,-2.075195 q 0,0.424804 -0.200195,0.839843 -0.195313,0.415039 -0.551758,0.703125 -0.390625,0.3125 -0.913086,0.488282 -0.517578,0.175781 -1.25,0.175781 -0.786133,0 -1.416015,-0.146484 -0.625,-0.146485 -1.274415,-0.434571 v -1.210937 h 0.06836 q 0.551758,0.458984 1.274414,0.708008 0.722656,0.249023 1.357422,0.249023 0.898437,0 1.396484,-0.336914 0.50293,-0.336914 0.50293,-0.898438 0,-0.483398 -0.239258,-0.71289 -0.234375,-0.229492 -0.717773,-0.356446 -0.366211,-0.09766 -0.795899,-0.161132 -0.424805,-0.06348 -0.90332,-0.161133 -0.966797,-0.205078 -1.435547,-0.698242 -0.463867,-0.498047 -0.463867,-1.293946 0,-0.913086 0.771484,-1.49414 0.771485,-0.585938 1.958008,-0.585938 0.766602,0 1.40625,0.146485 0.639648,0.146484 1.132812,0.361328 v 1.142578 h -0.06836 q -0.415039,-0.351563 -1.09375,-0.581055 -0.673828,-0.234375 -1.381836,-0.234375 -0.776367,0 -1.25,0.322266 -0.46875,0.322265 -0.46875,0.830078 0,0.454101 0.234375,0.712891 0.234375,0.258789 0.825195,0.395507 0.3125,0.06836 0.888672,0.166016 0.576172,0.09766 0.976563,0.200195 0.810547,0.214844 1.220703,0.649414 0.410156,0.434571 0.410156,1.215821 z m 10.351563,0 q 0,0.424804 -0.200196,0.839843 -0.195312,0.415039 -0.551757,0.703125 -0.390625,0.3125 -0.913086,0.488282 -0.517578,0.175781 -1.25,0.175781 -0.786133,0 -1.416016,-0.146484 -0.625,-0.146485 -1.274414,-0.434571 v -1.210937 h 0.06836 q 0.551758,0.458984 1.274414,0.708008 0.722657,0.249023 1.357422,0.249023 0.898438,0 1.396485,-0.336914 0.502929,-0.336914 0.502929,-0.898438 0,-0.483398 -0.239257,-0.71289 -0.234375,-0.229492 -0.717774,-0.356446 -0.366211,-0.09766 -0.795898,-0.161132 -0.424805,-0.06348 -0.903321,-0.161133 -0.966797,-0.205078 -1.435547,-0.698242 -0.463867,-0.498047 -0.463867,-1.293946 0,-0.913086 0.771485,-1.49414 0.771484,-0.585938 1.958007,-0.585938 0.766602,0 1.40625,0.146485 0.639649,0.146484 1.132813,0.361328 v 1.142578 h -0.06836 q -0.415039,-0.351563 -1.09375,-0.581055 -0.673829,-0.234375 -1.381836,-0.234375 -0.776368,0 -1.25,0.322266 -0.46875,0.322265 -0.46875,0.830078 0,0.454101 0.234375,0.712891 0.234375,0.258789 0.825195,0.395507 0.3125,0.06836 0.888672,0.166016 0.576172,0.09766 0.976562,0.200195 0.810547,0.214844 1.220703,0.649414 0.410157,0.434571 0.410157,1.215821 z m 6.049804,-3.378907 -3.18359,7.465821 h -0.98145 l 1.01563,-2.275391 -2.17286,-5.19043 h 0.9961 l 1.6748,4.042969 1.68946,-4.042969 z m 5.09766,3.881836 q 0,0.747071 -0.62012,1.225586 -0.61523,0.478516 -1.68457,0.478516 -0.60547,0 -1.11328,-0.141602 -0.50293,-0.146484 -0.84473,-0.317382 v -1.030274 h 0.0488 q 0.43457,0.327149 0.9668,0.522461 0.53222,0.19043 1.0205,0.19043 0.60547,0 0.94727,-0.195313 0.3418,-0.195312 0.3418,-0.615234 0,-0.322266 -0.18555,-0.488281 -0.18555,-0.166016 -0.71289,-0.283204 -0.19531,-0.04395 -0.5127,-0.102539 -0.3125,-0.05859 -0.57129,-0.126953 -0.71777,-0.190429 -1.0205,-0.55664 -0.29785,-0.371094 -0.29785,-0.908203 0,-0.336915 0.13671,-0.634766 0.14161,-0.297852 0.42481,-0.532227 0.27344,-0.229492 0.69336,-0.361328 0.4248,-0.136719 0.94726,-0.136719 0.48829,0 0.98633,0.122071 0.50293,0.117187 0.83496,0.288086 v 0.981445 h -0.0488 q -0.35156,-0.258789 -0.85449,-0.43457 -0.50293,-0.180664 -0.98633,-0.180664 -0.50293,0 -0.8496,0.195312 -0.34668,0.19043 -0.34668,0.571289 0,0.336914 0.20996,0.507813 0.20507,0.170898 0.66406,0.27832 0.25391,0.05859 0.56641,0.117188 0.31738,0.05859 0.52734,0.107421 0.63965,0.146485 0.98633,0.50293 0.34668,0.361328 0.34668,0.957031 z m 4.1455,1.523438 q -0.25878,0.06836 -0.5664,0.112305 -0.30274,0.04395 -0.54199,0.04395 -0.83496,0 -1.26954,-0.449219 -0.43457,-0.449219 -0.43457,-1.44043 v -2.90039 h -0.62011 v -0.771485 h 0.62011 v -1.567382 h 0.91797 v 1.567382 h 1.89453 v 0.771485 h -1.89453 v 2.485351 q 0,0.429688 0.0195,0.673828 0.0195,0.239258 0.13672,0.449219 0.10743,0.195313 0.29297,0.288086 0.19043,0.08789 0.57617,0.08789 0.22461,0 0.46875,-0.06348 0.24414,-0.06836 0.35157,-0.112304 h 0.0488 z m 5.67383,-2.583008 h -4.01855 q 0,0.50293 0.15137,0.878906 0.15136,0.371094 0.41503,0.610352 0.25391,0.234375 0.60059,0.351562 0.35156,0.117188 0.77148,0.117188 0.55665,0 1.11817,-0.219727 0.5664,-0.224609 0.80566,-0.439453 h 0.0488 v 1.000977 q -0.46387,0.195312 -0.94726,0.327148 -0.4834,0.131836 -1.01563,0.131836 -1.35742,0 -2.11914,-0.732422 -0.76172,-0.737304 -0.76172,-2.089844 0,-1.33789 0.72754,-2.124023 0.73242,-0.786133 1.92383,-0.786133 1.10351,0 1.69922,0.644531 0.60058,0.644532 0.60058,1.831055 z m -0.89355,-0.703125 q -0.005,-0.722656 -0.36621,-1.118164 -0.35645,-0.395508 -1.08887,-0.395508 -0.7373,0 -1.17676,0.43457 -0.43457,0.434571 -0.49316,1.079102 z M 129.81772,50 h -0.91797 v -3.105469 q 0,-0.351562 -0.0342,-0.678711 -0.0293,-0.327148 -0.13184,-0.522461 -0.1123,-0.209961 -0.32226,-0.317382 -0.20996,-0.107422 -0.60547,-0.107422 -0.38574,0 -0.77148,0.195312 -0.38575,0.19043 -0.77149,0.488281 0.0147,0.112305 0.0244,0.263672 0.01,0.146485 0.01,0.292969 V 50 h -0.91797 v -3.105469 q 0,-0.361328 -0.0342,-0.683594 -0.0293,-0.327148 -0.13183,-0.52246 -0.11231,-0.209961 -0.32227,-0.3125 -0.20996,-0.107422 -0.60547,-0.107422 -0.37597,0 -0.75683,0.185547 -0.37598,0.185546 -0.75196,0.473632 V 50 h -0.91797 v -5.454102 h 0.91797 v 0.605469 q 0.42969,-0.356445 0.8545,-0.55664 0.42968,-0.200196 0.91308,-0.200196 0.55664,0 0.94238,0.234375 0.39063,0.234375 0.58106,0.649414 0.55664,-0.46875 1.01562,-0.673828 0.45899,-0.209961 0.98145,-0.209961 0.89844,0 1.32324,0.546875 0.42969,0.541992 0.42969,1.518555 z m 5.66406,-1.572266 q 0,0.747071 -0.62012,1.225586 -0.61523,0.478516 -1.68457,0.478516 -0.60547,0 -1.11328,-0.141602 -0.50293,-0.146484 -0.84472,-0.317382 v -1.030274 h 0.0488 q 0.43457,0.327149 0.9668,0.522461 0.53223,0.19043 1.02051,0.19043 0.60547,0 0.94726,-0.195313 0.3418,-0.195312 0.3418,-0.615234 0,-0.322266 -0.18555,-0.488281 -0.18554,-0.166016 -0.71289,-0.283204 -0.19531,-0.04395 -0.51269,-0.102539 -0.3125,-0.05859 -0.57129,-0.126953 -0.71777,-0.190429 -1.02051,-0.55664 -0.29785,-0.371094 -0.29785,-0.908203 0,-0.336915 0.13672,-0.634766 0.1416,-0.297852 0.4248,-0.532227 0.27344,-0.229492 0.69336,-0.361328 0.42481,-0.136719 0.94727,-0.136719 0.48828,0 0.98633,0.122071 0.50293,0.117187 0.83496,0.288086 v 0.981445 h -0.0488 q -0.35156,-0.258789 -0.85449,-0.43457 -0.50293,-0.180664 -0.98633,-0.180664 -0.50293,0 -0.84961,0.195312 -0.34668,0.19043 -0.34668,0.571289 0,0.336914 0.20996,0.507813 0.20508,0.170898 0.66406,0.27832 0.25391,0.05859 0.56641,0.117188 0.31738,0.05859 0.52734,0.107421 0.63965,0.146485 0.98633,0.50293 0.34668,0.361328 0.34668,0.957031 z M 146.39975,50 h -1.25488 l -2.43164,-2.890625 h -1.36231 V 50 h -0.9668 v -7.270508 h 2.03614 q 0.65918,0 1.09863,0.08789 0.43945,0.08301 0.79102,0.302734 0.3955,0.249024 0.61523,0.629883 0.22461,0.375977 0.22461,0.957031 0,0.786133 -0.39551,1.31836 -0.39551,0.527343 -1.08887,0.795898 z m -2.26074,-5.224609 q 0,-0.3125 -0.11231,-0.551758 -0.10742,-0.244141 -0.36133,-0.410156 -0.20996,-0.141602 -0.49804,-0.195313 -0.28809,-0.05859 -0.67871,-0.05859 h -1.1377 v 2.744141 h 0.97656 q 0.45899,0 0.80079,-0.07813 0.34179,-0.08301 0.58105,-0.302734 0.21973,-0.205079 0.32227,-0.46875 0.10742,-0.268555 0.10742,-0.678711 z M 152.12729,50 h -4.79004 v -7.270508 h 4.79004 v 0.859375 h -3.82324 v 1.992188 h 3.82324 v 0.859375 h -3.82324 v 2.700195 h 3.82324 z m 6.81641,-2.075195 q 0,0.424804 -0.2002,0.839843 -0.19531,0.415039 -0.55176,0.703125 -0.39062,0.3125 -0.91308,0.488282 -0.51758,0.175781 -1.25,0.175781 -0.78614,0 -1.41602,-0.146484 -0.625,-0.146485 -1.27441,-0.434571 v -1.210937 h 0.0684 q 0.55175,0.458984 1.27441,0.708008 0.72266,0.249023 1.35742,0.249023 0.89844,0 1.39649,-0.336914 0.50293,-0.336914 0.50293,-0.898438 0,-0.483398 -0.23926,-0.71289 -0.23438,-0.229492 -0.71778,-0.356446 -0.36621,-0.09766 -0.79589,-0.161132 -0.42481,-0.06348 -0.90332,-0.161133 -0.9668,-0.205078 -1.43555,-0.698242 -0.46387,-0.498047 -0.46387,-1.293946 0,-0.913086 0.77149,-1.49414 0.77148,-0.585938 1.958,-0.585938 0.76661,0 1.40625,0.146485 0.63965,0.146484 1.13282,0.361328 v 1.142578 h -0.0684 q -0.41504,-0.351563 -1.09375,-0.581055 -0.67383,-0.234375 -1.38184,-0.234375 -0.77637,0 -1.25,0.322266 -0.46875,0.322265 -0.46875,0.830078 0,0.454101 0.23438,0.712891 0.23437,0.258789 0.82519,0.395507 0.3125,0.06836 0.88867,0.166016 0.57618,0.09766 0.97657,0.200195 0.81054,0.214844 1.2207,0.649414 0.41016,0.434571 0.41016,1.215821 z m 6.73828,-4.335938 h -2.59766 V 50 h -0.9668 v -6.411133 h -2.59765 v -0.859375 h 6.16211 z M 175.90659,50 h -1.03028 l -0.71289,-2.026367 h -3.14453 L 170.306,50 h -0.98145 l 2.64649,-7.270508 h 1.28906 z m -2.04102,-2.856445 -1.27441,-3.569336 -1.2793,3.569336 z m 7.90039,-2.216797 q 0,0.483398 -0.1709,0.898437 -0.16601,0.410157 -0.46875,0.712891 -0.37597,0.375976 -0.88867,0.566406 -0.51269,0.185547 -1.29394,0.185547 h -0.9668 V 50 h -0.9668 v -7.270508 h 1.97266 q 0.65429,0 1.1084,0.112305 0.4541,0.107422 0.80566,0.341797 0.41504,0.27832 0.63965,0.693359 0.22949,0.415039 0.22949,1.049805 z m -1.00586,0.02441 q 0,-0.375977 -0.13183,-0.654297 -0.13184,-0.27832 -0.4004,-0.454102 -0.23437,-0.151367 -0.5371,-0.214843 -0.29786,-0.06836 -0.75684,-0.06836 h -0.95703 v 2.905274 h 0.81543 q 0.58594,0 0.95215,-0.102539 0.36621,-0.107422 0.5957,-0.336914 0.22949,-0.234375 0.32227,-0.493164 0.0976,-0.25879 0.0976,-0.581055 z M 185.60385,50 h -2.87109 v -0.742188 h 0.95215 V 43.47168 h -0.95215 v -0.742188 h 2.87109 v 0.742188 h -0.95215 v 5.786132 h 0.95215 z"
     id="text4"
     style="font-size:10px;text-anchor:middle"
     aria-label="IDMS Systems REST API" />
</svg>
