<svg xmlns="http://www.w3.org/2000/svg" role="img" xmlns:xlink="http://www.w3.org/1999/xlink" viewBox="-4.53 -4.53 248.82 54.32"><path d="M237.32 9.09c-1.06 0-1.93-.86-1.93-1.92s.87-1.93 1.93-1.93 1.93.87 1.93 1.93-.87 1.92-1.93 1.92m0-4.32c-1.32 0-2.4 1.08-2.4 2.4 0 1.32 1.08 2.4 2.4 2.4 1.32 0 2.4-1.08 2.4-2.4 0-1.32-1.08-2.4-2.4-2.4"/><path d="M237.48 7.07l-.51.01-.01-.62h.51c.19-.01.34.11.34.3.01.19-.14.31-.33.31m.83-.32c-.01-.42-.3-.72-.77-.72l-1.07.02.03 2.26h.49l-.01-.81h.35l.46.8.55-.01-.52-.86c.24-.06.49-.28.49-.68M51.8341 23.1805h-5.999V9.3465h5.835c1.574 0 2.557 1.016 2.557 2.393 0 1.377-.983 2.36-2.557 2.36H45v4h6.8341c1.836 0 2.819 1.18 2.819 2.556 0 1.574-1.049 2.525-2.819 2.525m3.376-7.245c2.066-.426 3.771-2.262 3.771-5.015 0-2.918-2.131-5.573-6.295-5.573h-11.506v21.865h11.867c4.163 0 6.359-2.623 6.359-5.901 0-2.754-1.868-5.015-4.196-5.376m17.8225-.5902H68v4.098h3.5576l4.294 7.769h5.343l-4.917-8.327c2.361-.557 4.786-2.622 4.786-6.49m0 0c0-4.065-2.786-7.048-7.343-7.048h-10.228v21.865h4.655V9.4453h4.885c1.869 0 3.278 1.114 3.278 2.95s-1.409 2.95-3.278 2.95m43.4206 4.0652l3.409-9.408 3.41 9.408zm.492-14.063l-8.458 21.865h5.31l1.377-3.704h9.376l1.344 3.704h5.311l-8.425-21.865zm26.9039 17.7671h-3.967v-13.67h3.967c4.491 0 6.851 2.983 6.851 6.852 0 3.704-2.524 6.818-6.851 6.818m0-17.767h-8.622v21.865h8.622c6.851 0 11.604-4.327 11.604-10.916s-4.753-10.949-11.604-10.949m82.1269-.0045l-5.734 9.27-5.734-9.27h-5.146v21.869h4.656v-14.293l5.012 7.622c.574.871 1.851.871 2.424 0l5.013-7.622v14.293h4.656V5.3431z"/><path id="a" d="M95.8253 23.3441c-3.871 0-7.008-3.138-7.008-7.008 0-3.871 3.137-7.009 7.008-7.009 3.87 0 7.008 3.138 7.008 7.009 0 3.87-3.138 7.008-7.008 7.008m0-18.536c-6.367 0-11.528 5.161-11.528 11.528 0 6.366 5.161 11.527 11.528 11.527 6.366 0 11.528-5.161 11.528-11.527 0-6.367-5.162-11.528-11.528-11.528"/><path d="M176.4035 19.7269c-1.195 2.156-3.492 3.617-6.132 3.617-3.87 0-7.008-3.138-7.008-7.008 0-3.871 3.138-7.008 7.008-7.008 2.618 0 4.897 1.438 6.1 3.565l3.27-3.269c-2.092-2.915-5.508-4.816-9.37-4.816-6.367 0-11.527 5.161-11.527 11.528 0 6.366 5.16 11.528 11.527 11.528 3.883 0 7.316-1.922 9.404-4.865z"/><use transform="translate(98.718)" xlink:href="#a"/><ellipse cx="16.52" cy="16.497" fill="#cc092f" rx="16.236" ry="16.235"/><path fill="#fff" d="M30.8253 20.8832c-1.857-.74-3.557-.492-5.261.541 0 0-.621.379-.807.496-.794.498-1.543.97-2.263.97-.687 0-1.363-.184-1.649-1.513-.446-2.073-1.534-7.167-2.009-9.69-.279-1.483-.432-2.282-.591-2.825-.28-.954-.792-1.473-1.519-1.556 0 0-.114-.016-.207-.016-.092 0-.218.018-.218.018-.72.086-1.229.605-1.507 1.554-.159.543-.312 1.342-.591 2.825-.475 2.523-1.563 7.617-2.009 9.69-.286 1.329-.962 1.513-1.649 1.513-.72 0-1.469-.472-2.263-.97-.186-.117-.808-.496-.808-.496-1.703-1.033-3.404-1.281-5.26-.541-.401.16-.79596.33918-1.17196.52018.257.806.57693 1.59925.94993 2.34425.411-.202.84203-.40243 1.28203-.53243.634-.187 1.284-.197 1.914.014.612.205 1.157.568 1.7.909 1.023.643 2.182 1.372 3.657 1.372 2.186 0 3.72-1.305 4.21-3.581.38-1.764 1.222-5.702 1.763-8.418 0 0 1.386 6.654 1.765 8.418.49 2.276 2.025 3.581 4.211 3.581 1.475 0 2.634-.729 3.657-1.372.543-.341 1.088-.704 1.7-.909.629-.211 1.28-.201 1.914-.014.44.13.87039.33065 1.28139.53265.374-.745.69309-1.53862.95009-2.34462-.376-.181-.77048-.36003-1.17148-.52003"/><path d="M109.56774 44.95347V37.7904h-1.48735v7.16308zm-.74368-7.30407zm3.59122 1.38506h1.37954c.68147 0 1.13486.1949 1.36433.5861.22807.3898.34142.94964.34142 1.67811 0 .52804-.07602.9842-.22808 1.36571-.27784.69668-.77132 1.04502-1.47767 1.04502h-1.37954zm2.7411-1.08787c-.29443-.09814-.66489-.14929-1.1086-.1562h-3.0853v7.16308h3.0853c1.08234 0 1.88269-.4451 2.40105-1.33668.3829-.66074.57366-1.46662.57366-2.41903 0-.37598-.04562-.77132-.13685-1.18601-.08985-.4147-.25987-.80035-.51007-1.15699-.31102-.44095-.71741-.74367-1.21919-.90817zm7.74088-.1562l-1.29245 5.63288-1.30213-5.63288h-2.17712v7.16308h1.39474v-4.84496c0-.13961-.00138-.33452-.00553-.5861-.00276-.2502-.00414-.44371-.00414-.58056l1.34636 6.01162h1.4528l1.35603-6.01162c0 .13685-.00138.33037-.00553.58056-.00276.25158-.00415.44649-.00415.5861v4.84496h1.39474V37.7904zm4.62656 4.95278h-1.4293c0 .74506.26817 1.32978.80312 1.75552.53356.42714 1.26757.64 2.20062.64.9137 0 1.62144-.21701 2.12183-.64967.5004-.43128.75059-.9759.75059-1.62973 0-.63863-.21426-1.12658-.64139-1.46248-.27508-.21702-.68424-.39119-1.22472-.51974l-1.2344-.2972c-.47688-.11334-.7879-.21149-.93304-.2958-.2267-.12718-.34005-.31794-.34005-.57366 0-.27923.11473-.49625.3442-.65107.23084-.1562.5377-.2336.92337-.2336.34696 0 .63724.05943.87085.1797.34972.18108.53771.48795.56398.91784h1.43759c-.02626-.76026-.30549-1.34083-.83767-1.7417-.53357-.39948-1.17772-.59991-1.93246-.59991-.90402 0-1.58826.21149-2.05548.63585-.46584.42575-.69944.95794-.69944 1.59932 0 .7036.24052 1.22058.72432 1.55095.28476.19766.80035.38013 1.54541.54877l.7575.17002c.44372.09676.76994.20873.97729.3359.20734.12855.31102.3124.31102.54877 0 .40502-.20873.68148-.62757.83077-.21978.0774-.5073.1161-.85979.1161-.59024 0-1.00631-.14652-1.2496-.44233-.1327-.16173-.22117-.4064-.26678-.73262zm1.4528-5.17118z"/></svg>