<svg xmlns="http://www.w3.org/2000/svg" role="img" xmlns:xlink="http://www.w3.org/1999/xlink" viewBox="-4.53 -4.53 248.82 63.07"><path d="M237.32 9.09c-1.06 0-1.93-.86-1.93-1.92s.87-1.93 1.93-1.93 1.93.87 1.93 1.93-.87 1.92-1.93 1.92m0-4.32c-1.32 0-2.4 1.08-2.4 2.4 0 1.32 1.08 2.4 2.4 2.4 1.32 0 2.4-1.08 2.4-2.4 0-1.32-1.08-2.4-2.4-2.4"/><path d="M237.48 7.07l-.51.01-.01-.62h.51c.19-.01.34.11.34.3.01.19-.14.31-.33.31m.83-.32c-.01-.42-.3-.72-.77-.72l-1.07.02.03 2.26h.49l-.01-.81h.35l.46.8.55-.01-.52-.86c.24-.06.49-.28.49-.68M51.8341 23.1805h-5.999V9.3465h5.835c1.574 0 2.557 1.016 2.557 2.393 0 1.377-.983 2.36-2.557 2.36H45v4h6.8341c1.836 0 2.819 1.18 2.819 2.556 0 1.574-1.049 2.525-2.819 2.525m3.376-7.245c2.066-.426 3.771-2.262 3.771-5.015 0-2.918-2.131-5.573-6.295-5.573h-11.506v21.865h11.867c4.163 0 6.359-2.623 6.359-5.901 0-2.754-1.868-5.015-4.196-5.376m17.8225-.5902H68v4.098h3.5576l4.294 7.769h5.343l-4.917-8.327c2.361-.557 4.786-2.622 4.786-6.49m0 0c0-4.065-2.786-7.048-7.343-7.048h-10.228v21.865h4.655V9.4453h4.885c1.869 0 3.278 1.114 3.278 2.95s-1.409 2.95-3.278 2.95m43.4206 4.0652l3.409-9.408 3.41 9.408zm.492-14.063l-8.458 21.865h5.31l1.377-3.704h9.376l1.344 3.704h5.311l-8.425-21.865zm26.9039 17.7671h-3.967v-13.67h3.967c4.491 0 6.851 2.983 6.851 6.852 0 3.704-2.524 6.818-6.851 6.818m0-17.767h-8.622v21.865h8.622c6.851 0 11.604-4.327 11.604-10.916s-4.753-10.949-11.604-10.949m82.1269-.0045l-5.734 9.27-5.734-9.27h-5.146v21.869h4.656v-14.293l5.012 7.622c.574.871 1.851.871 2.424 0l5.013-7.622v14.293h4.656V5.3431z"/><path id="a" d="M95.8253 23.3441c-3.871 0-7.008-3.138-7.008-7.008 0-3.871 3.137-7.009 7.008-7.009 3.87 0 7.008 3.138 7.008 7.009 0 3.87-3.138 7.008-7.008 7.008m0-18.536c-6.367 0-11.528 5.161-11.528 11.528 0 6.366 5.161 11.527 11.528 11.527 6.366 0 11.528-5.161 11.528-11.527 0-6.367-5.162-11.528-11.528-11.528"/><path d="M176.4035 19.7269c-1.195 2.156-3.492 3.617-6.132 3.617-3.87 0-7.008-3.138-7.008-7.008 0-3.871 3.138-7.008 7.008-7.008 2.618 0 4.897 1.438 6.1 3.565l3.27-3.269c-2.092-2.915-5.508-4.816-9.37-4.816-6.367 0-11.527 5.161-11.527 11.528 0 6.366 5.16 11.528 11.527 11.528 3.883 0 7.316-1.922 9.404-4.865z"/><use transform="translate(98.718)" xlink:href="#a"/><ellipse cx="16.52" cy="16.497" fill="#cc092f" rx="16.236" ry="16.235"/><path fill="#fff" d="M30.8253 20.8832c-1.857-.74-3.557-.492-5.261.541 0 0-.621.379-.807.496-.794.498-1.543.97-2.263.97-.687 0-1.363-.184-1.649-1.513-.446-2.073-1.534-7.167-2.009-9.69-.279-1.483-.432-2.282-.591-2.825-.28-.954-.792-1.473-1.519-1.556 0 0-.114-.016-.207-.016-.092 0-.218.018-.218.018-.72.086-1.229.605-1.507 1.554-.159.543-.312 1.342-.591 2.825-.475 2.523-1.563 7.617-2.009 9.69-.286 1.329-.962 1.513-1.649 1.513-.72 0-1.469-.472-2.263-.97-.186-.117-.808-.496-.808-.496-1.703-1.033-3.404-1.281-5.26-.541-.401.16-.79596.33918-1.17196.52018.257.806.57693 1.59925.94993 2.34425.411-.202.84203-.40243 1.28203-.53243.634-.187 1.284-.197 1.914.014.612.205 1.157.568 1.7.909 1.023.643 2.182 1.372 3.657 1.372 2.186 0 3.72-1.305 4.21-3.581.38-1.764 1.222-5.702 1.763-8.418 0 0 1.386 6.654 1.765 8.418.49 2.276 2.025 3.581 4.211 3.581 1.475 0 2.634-.729 3.657-1.372.543-.341 1.088-.704 1.7-.909.629-.211 1.28-.201 1.914-.014.44.13.87039.33065 1.28139.53265.374-.745.69309-1.53862.95009-2.34462-.376-.181-.77048-.36003-1.17148-.52003"/><path d="M23.96592 50.3001V38.1395h-2.52505v12.1606zm-1.26253-12.39996zm6.09673 2.3514h2.342c1.15693 0 1.92665.33088 2.3162.995.3872.66177.57963 1.61218.57963 2.84889 0 .89644-.12906 1.67085-.3872 2.31854-.47169 1.18274-1.30946 1.7741-2.50862 1.7741h-2.34201zm4.6535-1.84686c-.49984-.16661-1.12876-.25344-1.88205-.26517h-5.23783v12.1606h5.23783c1.83747 0 3.1962-.75564 4.07622-2.26926.65004-1.12173.97388-2.48985.97388-4.10673 0-.6383-.07744-1.30946-.23232-2.01347-.15254-.704-.44118-1.35874-.86593-1.96419-.52801-.7486-1.21794-1.26252-2.0698-1.54178zm13.14153-.26517l-2.19417 9.5628-2.21059-9.5628h-3.69605v12.1606h2.36782v-8.22519c0-.23702-.00235-.5679-.00939-.995-.0047-.42475-.00704-.75329-.00704-.98561l2.28569 10.2058h2.46638l2.30211-10.2058c0 .23232-.00235.56086-.00939.98561-.00469.4271-.00704.75798-.00704.995v8.22518h2.36782V38.1395zm7.8544 8.40822h-2.42649c0 1.26487.45526 2.25753 1.36344 2.98031.90582.72513 2.15192 1.08652 3.73594 1.08652 1.55117 0 2.75268-.36843 3.60219-1.10295.8495-.73217 1.27425-1.65677 1.27425-2.76676 0-1.08417-.36373-1.91256-1.08886-2.4828-.467-.36844-1.16162-.66412-2.07918-.88236l-2.0956-.50454c-.80961-.19243-1.33762-.35905-1.58403-.5022-.38485-.2159-.57728-.53974-.57728-.97388 0-.47403.19477-.84246.58432-1.1053.3919-.26517.91287-.39659 1.5676-.39659.58902 0 1.08183.10091 1.47842.30507.59372.30742.91287.82839.95745 1.55821h2.44057c-.04458-1.29068-.51862-2.2763-1.4221-2.95684-.90582-.6782-1.99939-1.01847-3.28068-1.01847-1.53475 0-2.69636.35905-3.48955 1.07949-.79084.72278-1.18743 1.62626-1.18743 2.71513 0 1.19447.40833 2.07213 1.22967 2.633.48342.33557 1.35874.64534 2.62361.93163l1.286.28865c.75329.16427 1.3071.35435 1.65911.57025.352.21824.52801.53035.52801.93164 0 .68758-.35435 1.15692-1.0654 1.41036-.37313.13142-.86124.19713-1.45965.19713-1.00204 0-1.7084-.24875-2.12142-.75095-.22528-.27456-.37547-.68993-.4529-1.24375zm2.46638-8.779zm13.49822 8.779h-2.42649c0 1.26487.45526 2.25753 1.36109 2.98031.90817.72513 2.15427 1.08652 3.7383 1.08652 1.55116 0 2.75032-.36843 3.59983-1.10295.85185-.73217 1.2766-1.65677 1.2766-2.76676 0-1.08417-.36373-1.91256-1.08886-2.4828-.46934-.36844-1.16162-.66412-2.07918-.88236l-2.0956-.50454c-.80961-.19243-1.33762-.35905-1.58403-.5022-.38485-.2159-.57728-.53974-.57728-.97388 0-.47403.19477-.84246.58432-1.1053.3919-.26517.91287-.39659 1.5676-.39659.58902 0 1.08183.10091 1.47607.30507.59607.30742.91287.82839.95746 1.55821h2.44291c-.04458-1.29068-.51862-2.2763-1.42444-2.95684-.90348-.6782-1.99705-1.01847-3.27834-1.01847-1.53475 0-2.6987.35905-3.48955 1.07949-.79318.72278-1.18743 1.62626-1.18743 2.71513 0 1.19447.40833 2.07213 1.22733 2.633.48576.33557 1.35874.64534 2.6236.93163l1.28835.28865c.75329.16427 1.30476.35435 1.65677.57025.352.21824.528.53035.528.93164 0 .68758-.35435 1.15692-1.06305 1.41036-.37313.13142-.86124.19713-1.45965.19713-1.00204 0-1.7084-.24875-2.12142-.75095-.22528-.27456-.37547-.68993-.4529-1.24375zm2.46638-8.779zm7.13632 14.2562v1.8797c.25344.01878.44352.02817.57025.03051.12437.00235.29333.0047.50219.0047 1.03959 0 1.73186-.20651 2.07918-.61484.3473-.41067.81665-1.46903 1.41036-3.17274l3.08591-8.84471h-2.49923l-1.85624 6.63412-1.96419-6.63412h-2.61422l3.29946 9.38915c.02112.0657-.02582.2464-.1455.54443-.11733.29569-.2464.4928-.38251.58668-.14315.09856-.31915.16192-.528.18773-.20887.02816-.42945.03755-.65943.02582zm3.18447-10.95674zm7.68075 6.3619h-2.38425c0 .92225.33793 1.68258 1.01143 2.281.6735.59605 1.71778.89409 3.1305.89409 1.3869 0 2.41006-.2816 3.07183-.84482.66411-.5632.995-1.29068.995-2.18243 0-.67585-.22998-1.2414-.69228-1.69197-.467-.44587-1.16866-.77676-2.10499-.99735-1.40098-.30741-2.21763-.52566-2.44995-.65238-.22998-.11968-.34497-.3168-.34497-.58433 0-.2159.10795-.40363.32385-.5632.21824-.15723.58198-.23702 1.09356-.23702.62187 0 1.06305.15723 1.3212.47638.1361.176.22293.41536.25578.71809h2.3514c-.1056-1.09826-.51159-1.87267-1.21794-2.32089-.70636-.44822-1.62157-.6735-2.7433-.6735-1.18273 0-2.1003.29803-2.75033.89644-.65238.59606-.97857 1.30946-.97857 2.14019 0 .70401.20885 1.24375.62657 1.61688.41771.38016 1.1358.69462 2.15427.94806 1.41271.33558 2.22936.5726 2.44995.71105.2206.13611.33089.33793.33089.60076 0 .27456-.13611.48107-.40833.61953-.27222.1361-.64065.2065-1.10295.2065-.78614 0-1.32588-.15722-1.61687-.47168-.16427-.176-.27222-.47169-.3215-.8894zm1.79757-6.3619zm4.84359 1.99704h1.25548v5.53586c0 .56087.13142.97623.39425 1.2461.40833.4224 1.16631.61484 2.27865.57729l1.11233-.04224v-1.75768a3.81851 3.81851 0 0 1-.23467.01408c-.07979.00235-.15488.0047-.22763.0047-.47873 0-.76268-.04694-.85654-.13846-.09387-.08918-.1408-.31915-.1408-.68758v-4.75207h1.45964v-1.67555h-1.45965v-2.50627h-2.32558v2.50627h-1.25548zm8.83298.45291c.29803-.34027.72044-.51158 1.26487-.51158.5022 0 .9199.16192 1.25783.48342.34027.3215.528.79319.56556 1.41506h-3.65382c.07744-.58433.26518-1.04428.56556-1.3869zm3.28772-2.0299c-.60075-.27925-1.27425-.42005-2.02285-.42005-1.25783 0-2.28334.41536-3.07183 1.2461-.79084.83073-1.18508 2.0252-1.18508 3.58106 0 1.66146.43883 2.86063 1.3118 3.59749.87532.73686 1.8844 1.1053 3.02724 1.1053 1.3869 0 2.46404-.43884 3.2361-1.31181.49516-.55147.77207-1.09356.83308-1.62626h-2.40067c-.12672.26517-.27222.47168-.43884.61953-.30272.27456-.69462.41302-1.17804.41302-.4576 0-.84716-.11265-1.17335-.34028-.5327-.36139-.81665-.995-.8495-1.89613h6.15539c.01173-.77676-.01408-1.37047-.0751-1.7835-.10325-.704-.33323-1.32118-.68523-1.85623-.38955-.6031-.8847-1.04663-1.48311-1.32823zm-1.85623-.42005zm16.90328.27221c-.38486-.15253-.77442-.22997-1.171-.22997-.59372 0-1.13346.12203-1.61688.37078-.45761.2464-.84012.63595-1.14754 1.16396-.176-.44118-.43414-.80023-.77441-1.08183-.42475-.30272-.98092-.45291-1.66616-.45291-.72748 0-1.31884.176-1.7741.528-.25814.19713-.53505.53036-.82604.99735v-1.3118h-2.28569v8.97612h2.38425v-5.41149c0-.49046.06336-.85889.19008-1.1053.23233-.43413.6829-.65237 1.35405-.65237.57729 0 .9645.21824 1.16161.65238.1103.2417.16662.62891.16662 1.16396v5.35282h2.36782v-5.35282c0-.40363.06336-.74625.19008-1.03255.2464-.53974.69463-.80726 1.34466-.80726.56086 0 .94572.20886 1.15458.62657.1103.21824.16427.49985.16427.84012v5.72594h2.41006l.01643-5.66728c0-.58432-.02816-1.0255-.08214-1.32823-.08917-.4576-.26048-.84246-.51158-1.15457-.31446-.38486-.66412-.65473-1.04897-.80962zm5.63442 6.0897h-2.38425c0 .92224.33793 1.68257 1.01143 2.28098.6735.59606 1.71779.8941 3.1305.8941 1.3869 0 2.41006-.2816 3.07418-.84482.66177-.5632.99265-1.29068.99265-2.18243 0-.67585-.22998-1.2414-.69228-1.69197-.46699-.44587-1.16865-.77676-2.10264-.99735-1.40332-.30741-2.21998-.52566-2.4523-.65238-.22998-.11968-.34496-.3168-.34496-.58433 0-.2159.10794-.40363.32619-.5632.2159-.15723.57963-.23702 1.09121-.23702.62188 0 1.06306.15723 1.3212.47638.13845.176.22293.41536.25578.71809h2.3514c-.1056-1.09826-.51158-1.87267-1.21794-2.32089-.70636-.44822-1.62157-.6735-2.7433-.6735-1.18273 0-2.09794.29803-2.75032.89644-.65239.59606-.97858 1.30946-.97858 2.14019 0 .70401.20886 1.24375.62657 1.61688.42006.38016 1.1358.69462 2.15427.94806 1.41271.33558 2.22937.5726 2.44996.71105.22059.13611.33088.33793.33088.60076 0 .27456-.1361.48107-.40832.61953-.27222.1361-.64065.2065-1.10295.2065-.78615 0-1.32354-.15722-1.61688-.47168-.16427-.176-.27222-.47169-.3215-.8894zm1.79992-6.36191zm13.1908-.81665h2.9545c.54912 0 .96214.07274 1.2367.2159.49047.25109.73452.74624.73452 1.4831 0 .6829-.25344 1.13816-.75798 1.37048-.2863.13141-.71574.19712-1.28834.19712h-2.8794zm5.44904-1.79758c-.4576-.19243-1.11468-.29803-1.96654-.31445h-5.9653v12.1606h2.4828v-4.7685h2.62361c.7486 0 1.25783.12907 1.53005.3872.27222.25814.41537.77676.42475 1.55117l.01643 1.13111c.00704.3567.04224.70636.10795 1.04663.03285.16662.08917.38251.16427.65238h2.79726v-.30507c-.2417-.14784-.39659-.38016-.4623-.69227-.04224-.19947-.0657-.57494-.0657-1.13111V47.355c0-.85186-.11734-1.48546-.34966-1.90083-.23467-.41537-.63126-.73686-1.19213-.96215.67116-.22997 1.15223-.62422 1.44322-1.18273.291-.55852.4365-1.12642.4365-1.7037 0-.47874-.0751-.90583-.22999-1.27896-.15488-.37547-.36373-.71574-.62656-1.02316-.31916-.37547-.7087-.65708-1.16866-.8495zm13.20488 1.83982V38.1395h-8.91746v12.1606h9.2155v-2.18478h-6.7327v-3.12815h5.90665v-2.11203h-5.90664v-2.58137zm-4.39772-2.15427zm8.51383 8.40822h-2.42414c0 1.26487.45291 2.25753 1.36109 2.98031.90817.72513 2.15192 1.08652 3.73594 1.08652 1.55117 0 2.75268-.36843 3.60219-1.10295.8495-.73217 1.27426-1.65677 1.27426-2.76676 0-1.08417-.36374-1.91256-1.08887-2.4828-.467-.36844-1.16162-.66412-2.07918-.88236l-2.0956-.50454c-.80727-.19243-1.33527-.35905-1.58402-.5022-.38486-.2159-.5773-.53974-.5773-.97388 0-.47403.19478-.84246.58668-1.1053.38955-.26517.91287-.39659 1.5676-.39659.58667 0 1.07948.10091 1.47607.30507.59372.30742.91287.82839.95746 1.55821h2.44056c-.04224-1.29068-.51862-2.2763-1.4221-2.95684-.90582-.6782-1.99704-1.01847-3.28068-1.01847-1.5324 0-2.69636.35905-3.48955 1.07949-.79083.72278-1.18743 1.62626-1.18743 2.71513 0 1.19447.41068 2.07213 1.22967 2.633.48342.33557 1.35874.64534 2.62361.93163l1.286.28865c.75329.16427 1.3071.35435 1.65911.57025.352.21824.52801.53035.52801.93164 0 .68758-.35435 1.15692-1.0654 1.41036-.37313.13142-.8589.19713-1.45965.19713-.9997 0-1.7084-.24875-2.11907-.75095-.22528-.27456-.37782-.68993-.45526-1.24375zm2.46638-8.779zm15.80033.37078h-9.85144v2.15427h3.65616V50.3001h2.5579V40.29378h3.63738zm9.50414 7.56576l1.5676-4.78493 1.51831 4.78493zm.15723-7.56576l-4.3414 12.1606h2.65881l.84012-2.49924h4.47985l.7838 2.49923h2.75503l-4.3062-12.1606zm1.4174 0zm13.65076 2.51566c.33323.26987.49985.72043.49985 1.35404 0 .63127-.16662 1.09357-.49985 1.3869-.33323.291-.79788.43649-1.39863.43649h-2.36782v-3.58106h2.36782c.60075 0 1.0654.1361 1.39863.40363zm1.92664 4.38129c.72513-.59372 1.08887-1.6075 1.08887-3.04367 0-1.31416-.36374-2.28569-1.08887-2.91226-.72513-.62657-1.69901-.94102-2.92164-.94102h-5.2965v12.1606h2.52505v-4.3719h2.58137c1.34935 0 2.38659-.29804 3.11172-.89175zm5.31997 5.26364V38.1395h-2.5227v12.1606zm-1.26018-12.39996z"/></svg>