<svg xmlns="http://www.w3.org/2000/svg" role="img" xmlns:xlink="http://www.w3.org/1999/xlink" viewBox="-4.53 -4.53 248.82 64.32"><title>JCL Language Support</title><path d="M237.32 9.09c-1.06 0-1.93-.86-1.93-1.92s.87-1.93 1.93-1.93 1.93.87 1.93 1.93-.87 1.92-1.93 1.92m0-4.32c-1.32 0-2.4 1.08-2.4 2.4 0 1.32 1.08 2.4 2.4 2.4 1.32 0 2.4-1.08 2.4-2.4 0-1.32-1.08-2.4-2.4-2.4"/><path d="M237.48 7.07l-.51.01-.01-.62h.51c.19-.01.34.11.34.3.01.19-.14.31-.33.31m.83-.32c-.01-.42-.3-.72-.77-.72l-1.07.02.03 2.26h.49l-.01-.81h.35l.46.8.55-.01-.52-.86c.24-.06.49-.28.49-.68M51.8341 23.1805h-5.999V9.3465h5.835c1.574 0 2.557 1.016 2.557 2.393 0 1.377-.983 2.36-2.557 2.36H45v4h6.8341c1.836 0 2.819 1.18 2.819 2.556 0 1.574-1.049 2.525-2.819 2.525m3.376-7.245c2.066-.426 3.771-2.262 3.771-5.015 0-2.918-2.131-5.573-6.295-5.573h-11.506v21.865h11.867c4.163 0 6.359-2.623 6.359-5.901 0-2.754-1.868-5.015-4.196-5.376m17.8225-.5902H68v4.098h3.5576l4.294 7.769h5.343l-4.917-8.327c2.361-.557 4.786-2.622 4.786-6.49m0 0c0-4.065-2.786-7.048-7.343-7.048h-10.228v21.865h4.655V9.4453h4.885c1.869 0 3.278 1.114 3.278 2.95s-1.409 2.95-3.278 2.95m43.4206 4.0652l3.409-9.408 3.41 9.408zm.492-14.063l-8.458 21.865h5.31l1.377-3.704h9.376l1.344 3.704h5.311l-8.425-21.865zm26.9039 17.7671h-3.967v-13.67h3.967c4.491 0 6.851 2.983 6.851 6.852 0 3.704-2.524 6.818-6.851 6.818m0-17.767h-8.622v21.865h8.622c6.851 0 11.604-4.327 11.604-10.916s-4.753-10.949-11.604-10.949m82.1269-.0045l-5.734 9.27-5.734-9.27h-5.146v21.869h4.656v-14.293l5.012 7.622c.574.871 1.851.871 2.424 0l5.013-7.622v14.293h4.656V5.3431z"/><path id="a" d="M95.8253 23.3441c-3.871 0-7.008-3.138-7.008-7.008 0-3.871 3.137-7.009 7.008-7.009 3.87 0 7.008 3.138 7.008 7.009 0 3.87-3.138 7.008-7.008 7.008m0-18.536c-6.367 0-11.528 5.161-11.528 11.528 0 6.366 5.161 11.527 11.528 11.527 6.366 0 11.528-5.161 11.528-11.527 0-6.367-5.162-11.528-11.528-11.528"/><path d="M176.4035 19.7269c-1.195 2.156-3.492 3.617-6.132 3.617-3.87 0-7.008-3.138-7.008-7.008 0-3.871 3.138-7.008 7.008-7.008 2.618 0 4.897 1.438 6.1 3.565l3.27-3.269c-2.092-2.915-5.508-4.816-9.37-4.816-6.367 0-11.527 5.161-11.527 11.528 0 6.366 5.16 11.528 11.527 11.528 3.883 0 7.316-1.922 9.404-4.865z"/><use transform="translate(98.718)" xlink:href="#a"/><ellipse cx="16.52" cy="16.497" fill="#cc092f" rx="16.236" ry="16.235"/><path fill="#fff" d="M30.8253 20.8832c-1.857-.74-3.557-.492-5.261.541 0 0-.621.379-.807.496-.794.498-1.543.97-2.263.97-.687 0-1.363-.184-1.649-1.513-.446-2.073-1.534-7.167-2.009-9.69-.279-1.483-.432-2.282-.591-2.825-.28-.954-.792-1.473-1.519-1.556 0 0-.114-.016-.207-.016-.092 0-.218.018-.218.018-.72.086-1.229.605-1.507 1.554-.159.543-.312 1.342-.591 2.825-.475 2.523-1.563 7.617-2.009 9.69-.286 1.329-.962 1.513-1.649 1.513-.72 0-1.469-.472-2.263-.97-.186-.117-.808-.496-.808-.496-1.703-1.033-3.404-1.281-5.26-.541-.401.16-.79596.33918-1.17196.52018.257.806.57693 1.59925.94993 2.34425.411-.202.84203-.40243 1.28203-.53243.634-.187 1.284-.197 1.914.014.612.205 1.157.568 1.7.909 1.023.643 2.182 1.372 3.657 1.372 2.186 0 3.72-1.305 4.21-3.581.38-1.764 1.222-5.702 1.763-8.418 0 0 1.386 6.654 1.765 8.418.49 2.276 2.025 3.581 4.211 3.581 1.475 0 2.634-.729 3.657-1.372.543-.341 1.088-.704 1.7-.909.629-.211 1.28-.201 1.914-.014.44.13.87039.33065 1.28139.53265.374-.745.69309-1.53862.95009-2.34462-.376-.181-.77048-.36003-1.17148-.52003"/><path d="M23.3202 46.2851h-2.5711v.29908c0 1.53312.28903 2.74201.86709 3.6292.57555.88469 1.71156 1.32954 3.4005 1.32954 1.69145 0 2.86013-.5479 3.50856-1.6437.38202-.64843.57303-1.52557.57303-2.63393V38.1998H26.3789v9.11072c0 .62832-.06283 1.0782-.18598 1.3421-.2061.44737-.63084.67105-1.27173.67105-.64843 0-1.07067-.20358-1.26922-.61324-.19603-.40967-.30662-1.11842-.33175-2.12626zm9.73653-6.72308c-1.21895 1.229-1.82717 2.98329-1.82717 5.25531 0 2.10364.53534 3.7599 1.60851 4.96628 1.07067 1.20136 2.54346 1.80204 4.41587 1.80204 1.51552 0 2.7571-.44485 3.72471-1.33456.97014-.8872 1.57082-2.04331 1.80707-3.46333h-2.69426c-.18347.67105-.41218 1.17623-.68865 1.5105-.50266.6258-1.229.93745-2.18405.93745-.92992 0-1.69648-.36442-2.29967-1.09077-.6057-.72885-.9073-1.82214-.9073-3.28237 0-1.46022.28651-2.5912.85703-3.38793.57303-.79922 1.35216-1.19884 2.3424-1.19884.97264 0 1.70401.284 2.19913.8495.27647.31667.50518.78917.6811 1.41247h2.72191c-.04272-.8118-.3418-1.62108-.90227-2.43036-1.01286-1.4351-2.61383-2.1539-4.80543-2.1539-1.63867 0-2.98832.53533-4.04893 1.60851zm3.9685-1.7593zm7.83647.3971v13.02392h9.17355v-2.33989H47.5836V38.19981zm16.0826 0v13.02392h9.17104v-2.33989h-6.44913V38.19981zm16.16053 8.34164v.93746c-.0176.84195-.25636 1.42253-.71127 1.7392-.45742.3192-.95505.47753-1.49792.47753-.34181 0-.63084-.0955-.8696-.28652-.23877-.191-.3594-.50266-.3594-.93243 0-.48256.19603-.83944.58308-1.07067.23122-.13572.61073-.24881 1.14104-.34432l.56549-.10556c.28149-.05278.50517-.11058.66602-.1709.16337-.06284.32422-.14326.48256-.2438zm-1.52809-1.17623l-.85703.10556c-.97265.12567-1.70905.33176-2.2092.62079-.91484.5303-1.36974 1.38734-1.36974 2.5711 0 .91233.284 1.61857.852 2.1162.56801.49763 1.28933.74645 2.16144.74645.68362 0 1.29435-.15582 1.83723-.46999.45239-.2639.85452-.5856 1.20135-.96259.0176.21866.04022.41218.07038.58309.03015.1709.08293.35437.15833.5479h2.7395v-.37197c-.16336-.0754-.28903-.17342-.36946-.29155-.08293-.1156-.1332-.3393-.1508-.67105-.01256-.4348-.01759-.80677-.01759-1.11339v-4.41587c0-1.16114-.40966-1.95032-1.229-2.37004-.81934-.4172-1.75428-.62581-2.80987-.62581-1.61856 0-2.76212.42223-3.42814 1.27173-.4172.54287-.65346 1.23403-.70624 2.07598h2.43036c.0578-.37196.17593-.66602.35187-.88216.24881-.29657.66853-.44234 1.26419-.44234.5303 0 .93243.0754 1.20638.22368.27395.1508.40967.42475.40967.81934 0 .32421-.17845.56046-.53785.71377-.20106.09048-.53282.16337-.99778.22117zm.1307-4.02882zm13.93121.80929c-.63335-.52277-1.44766-.78164-2.44292-.78164-.79672 0-1.4527.19352-1.97043.58308-.28903.21615-.59565.57304-.91987 1.06816v-1.40494h-2.43036v9.61338h2.51079v-5.21259c0-.59565.08294-1.08323.2463-1.46777.31919-.72383.90479-1.08574 1.75931-1.08574.69367 0 1.16617.2463 1.41248.74142.13571.27144.20357.661.20357 1.16617v5.8585h2.58116v-6.4843c0-1.2089-.31667-2.07348-.95003-2.59373zm-3.37033-.80929zm12.27244 7.15285c-.40715.44486-.90479.66603-1.4929.66603-.88468 0-1.49792-.40464-1.83973-1.21895-.1885-.4348-.2815-.93244-.2815-1.4929 0-.64843.08797-1.1913.2639-1.63365.33679-.8319.94752-1.2466 1.82969-1.2466.64843 0 1.16617.23877 1.5507.7163.38705.47752.57806 1.1712.57806 2.08604 0 .97013-.20358 1.67888-.60822 2.12373zm-.85703-6.90403c-.3594-.14829-.78164-.22117-1.2642-.22117-1.3069 0-2.31725.48758-3.03103 1.46274-.71127.97265-1.06815 2.17652-1.06815 3.6091 0 1.48285.36945 2.65907 1.10836 3.52867.73891.8696 1.72664 1.3044 2.96318 1.3044.80174 0 1.45269-.191 1.95284-.57554.27897-.2061.53784-.51523.77912-.9274v.61826c0 .91987-.10053 1.57333-.3016 1.96289-.30662.6057-.91233.90981-1.81963.90981-.64089 0-1.0983-.1156-1.36975-.34432-.15833-.13069-.27394-.3418-.34432-.63586h-2.7395c.08294.96008.51272 1.6814 1.28933 2.16395.77912.48255 1.78193.72383 3.01345.72383 2.03828 0 3.41808-.54287 4.13689-1.6261.4172-.63084.6258-1.5658.6258-2.80987v-9.13585h-2.44795v1.38734c-.37699-.67608-.87211-1.14355-1.48284-1.39488zm-.45994-.24882zm9.25146.25636h-2.58116v5.80572c0 1.10083.13823 1.93524.4147 2.50074.49512 1.02542 1.4552 1.53814 2.88275 1.53814.4926 0 .9249-.06535 1.29435-.19604.36694-.12818.74896-.36946 1.14355-.72383.12818-.1131.24128-.24128.33427-.38956.0955-.14578.15331-.23625.17845-.2639v1.3597h2.44795v-9.63097h-2.55351V46.833c0 .61827-.08294 1.1159-.24882 1.4929-.31668.69618-.9073 1.04302-1.76685 1.04302-.67105 0-1.12093-.24379-1.35215-.73388-.12818-.27647-.19353-.68865-.19353-1.23655zm1.76685-.25636zm12.08646 5.20505v.93746c-.0176.84195-.25384 1.42253-.71126 1.7392-.45491.3192-.95506.47753-1.49793.47753-.3418 0-.63084-.0955-.8696-.28652-.23877-.191-.35689-.50266-.35689-.93243 0-.48256.19352-.83944.58309-1.07067.2287-.13572.60821-.24881 1.13852-.34432l.5655-.10556c.284-.05278.50517-.11058.66853-.1709.16085-.06284.3217-.14326.48004-.2438zm-1.52809-1.17623l-.85703.10556c-.97265.12567-1.70905.33176-2.2092.62079-.91232.5303-1.36974 1.38734-1.36974 2.5711 0 .91233.284 1.61857.85452 2.1162.568.49763 1.28681.74645 2.15893.74645.68361 0 1.29686-.15582 1.83722-.46999.4549-.2639.85452-.5856 1.20136-.96259.01759.21866.04272.41218.07288.58309.02765.1709.08043.35437.15834.5479h2.7395v-.37197c-.16588-.0754-.28903-.17342-.37197-.29155-.08294-.1156-.1332-.3393-.1508-.67105-.01005-.4348-.0176-.80677-.0176-1.11339v-4.41587c0-1.16114-.40966-1.95032-1.22648-2.37004-.81934-.4172-1.7568-.62581-2.80987-.62581-1.62108 0-2.76463.42223-3.42814 1.27173-.41972.54287-.65598 1.23403-.70875 2.07598h2.43036c.06032-.37196.17593-.66602.35437-.88216.2463-.29657.66854-.44234 1.26168-.44234.5303 0 .93243.0754 1.20638.22368.27395.1508.41218.42475.41218.81934 0 .32421-.18095.56046-.54036.71377-.19855.09048-.53282.16337-.99778.22117zm.1332-4.02882zm11.77733 7.15285c-.40715.44486-.90479.66603-1.4929.66603-.88468 0-1.49541-.40464-1.83722-1.21895-.1885-.4348-.284-.93244-.284-1.4929 0-.64843.08796-1.1913.2664-1.63365.33428-.8319.945-1.2466 1.82718-1.2466.64843 0 1.16617.23877 1.5507.7163.38705.47752.58057 1.1712.58057 2.08604 0 .97013-.20357 1.67888-.61073 2.12373zm-.85703-6.90403c-.3594-.14829-.77913-.22117-1.2642-.22117-1.3069 0-2.31725.48758-3.02852 1.46274-.71378.97265-1.07066 2.17652-1.07066 3.6091 0 1.48285.36945 2.65907 1.10836 3.52867.74142.8696 1.72915 1.3044 2.9657 1.3044.80174 0 1.45268-.191 1.95283-.57554.27646-.2061.53533-.51523.7766-.9274v.61826c0 .91987-.10052 1.57333-.29907 1.96289-.30663.6057-.91485.90981-1.82215.90981-.64089 0-1.0983-.1156-1.36723-.34432-.16085-.13069-.27395-.3418-.34684-.63586h-2.73698c.08042.96008.5102 1.6814 1.28932 2.16395.77661.48255 1.78193.72383 3.01345.72383 2.03828 0 3.41557-.54287 4.13438-1.6261.4172-.63084.62832-1.5658.62832-2.80987v-9.13585h-2.44795v1.38734c-.377-.67608-.87212-1.14355-1.48536-1.39488zm-.45994-.24882zm9.18612 2.62389c.3217-.36443.77158-.5479 1.35466-.5479.53785 0 .98522.17342 1.34965.51774.36191.34432.56298.8495.60319 1.51552h-3.91321c.08294-.62581.284-1.11842.6057-1.48536zm3.52113-2.174c-.6434-.29909-1.36472-.44989-2.16647-.44989-1.34712 0-2.44544.44486-3.2899 1.33457-.84447.8897-1.26922 2.16897-1.26922 3.8353 0 1.7794.46998 3.0637 1.40493 3.85288.93746.78918 2.01818 1.18376 3.24467 1.18376 1.48285 0 2.63897-.46998 3.46333-1.40493.5303-.59063.82688-1.1712.89222-1.74172h-2.5711c-.13572.284-.29155.50518-.47.66351-.3217.29406-.74393.44234-1.26167.44234-.4901 0-.9073-.12063-1.25413-.36442-.57304-.38705-.87715-1.06564-.91233-2.03075h6.59238c.01257-.8319-.01508-1.46777-.08042-1.9101-.11059-.754-.35438-1.415-.73137-1.98803-.41972-.64592-.95003-1.12093-1.59092-1.42253zm-1.98802-.44989zm13.28782 5.86856h-2.59624c0 1.35467.48506 2.4178 1.45771 3.19189.97013.7766 2.3047 1.16366 4.00117 1.16366 1.6613 0 2.9481-.3946 3.85792-1.18125.90981-.78415 1.36472-1.7744 1.36472-2.96318 0-1.16115-.38956-2.04834-1.16617-2.65908-.50015-.39458-1.24408-.71126-2.22678-.945l-2.24438-.54036c-.86458-.20609-1.43007-.38453-1.69648-.53784-.41218-.23123-.61827-.57806-.61827-1.04302 0-.50769.2086-.90228.62833-1.18377.4172-.284.97767-.42474 1.67888-.42474.62832 0 1.15612.10807 1.58087.32673.63586.32924.97767.88719 1.02542 1.66883h2.61383c-.04524-1.38232-.55544-2.4379-1.52306-3.16676-.97013-.72635-2.13881-1.09077-3.51359-1.09077-1.64118 0-2.88778.38453-3.73728 1.15611-.84698.7741-1.27173 1.74172-1.27173 2.9079 0 1.27926.43983 2.21924 1.31697 2.81991.51774.3594 1.4552.69116 2.80987.99779l1.3773.30913c.80676.17593 1.3999.3795 1.7769.61073.37699.23374.56549.568.56549.99778 0 .7364-.37951 1.23906-1.14104 1.5105-.39962.14074-.91987.21111-1.56327.21111-1.07067 0-1.82969-.2664-2.26951-.80425-.24128-.29406-.40465-.73891-.48758-1.33205zm2.64147-9.40226zm9.76417 3.79006h-2.57864v5.80572c0 1.10083.13823 1.93524.4147 2.50074.49511 1.02542 1.4552 1.53814 2.88023 1.53814.49512 0 .92741-.06535 1.29435-.19604.36946-.12818.74897-.36946 1.14356-.72383.13069-.1131.24127-.24128.33678-.38956.09299-.14578.1533-.23625.17593-.2639v1.3597h2.44795v-9.63097h-2.55351V46.833c0 .61827-.08294 1.1159-.2463 1.4929-.3192.69618-.9073 1.04302-1.76937 1.04302-.67105 0-1.12093-.24379-1.34964-.73388-.13069-.27647-.19604-.68865-.19604-1.23655zm1.76685-.25636zm12.9058 3.10142c.3393.57051.50769 1.229.50769 1.97042 0 .90228-.18347 1.6236-.55293 2.16395-.36694.54288-.90227.81431-1.60349.81431-.48255 0-.89976-.1332-1.25413-.3971-.59565-.4549-.89222-1.24157-.89222-2.35999 0-.70623.08796-1.28932.2639-1.74925.3418-.8671.97013-1.29938 1.88245-1.29938.76153 0 1.30943.28652 1.64873.85704zm1.93524-1.8121c-.78164-.82938-1.73418-1.24408-2.85762-1.24408-.77158 0-1.4376.21363-1.99808.6434-.30662.24128-.59565.57304-.86708.99025v-1.42253h-2.41026v13.42102h2.49068v-5.01906c.26641.40716.53533.7163.81431.92992.50517.38202 1.14104.57303 1.9076.57303 1.20135 0 2.18405-.44485 2.94558-1.33456.76405-.8897 1.14607-2.18154 1.14607-3.87802 0-1.60851-.39208-2.82746-1.1712-3.65936zm9.11825 1.8121c.3393.57051.50769 1.229.50769 1.97042 0 .90228-.18347 1.6236-.55293 2.16395-.36694.54288-.90227.81431-1.60348.81431-.48256 0-.89976-.1332-1.25414-.3971-.59565-.4549-.89222-1.24157-.89222-2.35999 0-.70623.08797-1.28932.2639-1.74925.3418-.8671.97013-1.29938 1.88246-1.29938.76153 0 1.30943.28652 1.64872.85704zm1.93524-1.8121c-.78163-.82938-1.73417-1.24408-2.85762-1.24408-.77158 0-1.4376.21363-1.99807.6434-.30662.24128-.59565.57304-.86458.99025v-1.42253h-2.41276v13.42102h2.49068v-5.01906c.2664.40716.53533.7163.8143.92992.50518.38202 1.14104.57303 1.9076.57303 1.20136 0 2.18406-.44485 2.94559-1.33456.76404-.8897 1.14606-2.18154 1.14606-3.87802 0-1.60851-.39207-2.82746-1.1712-3.65936zm9.00767 6.03695c-.39459.52277-.96008.78667-1.69648.78667-.7364 0-1.30189-.2639-1.7015-.78667-.3971-.52528-.59565-1.26921-.59565-2.23683 0-.96511.19855-1.70905.59565-2.23181.39961-.52026.9651-.78164 1.7015-.78164s1.3019.26138 1.69648.78164c.39459.52276.59314 1.2667.59314 2.2318 0 .96763-.19855 1.71156-.59314 2.23684zm2.01567 1.38986c.8118-1.0028 1.21895-2.2117 1.21895-3.6267 0-1.38985-.40716-2.59372-1.21895-3.61412-.81431-1.01789-2.04834-1.52809-3.7021-1.52809-1.65626 0-2.89029.5102-3.70208 1.52809-.81431 1.0204-1.22147 2.22427-1.22147 3.61413 0 1.41498.40716 2.62388 1.22147 3.62669.8118 1.00532 2.04582 1.50798 3.70209 1.50798 1.65375 0 2.88778-.50266 3.70209-1.50798zm-3.7021-8.71613zm12.0739.03016c-.03267-.00251-.07289-.00251-.12064-.00251-.75399 0-1.36723.19604-1.83722.59062-.28903.23625-.62833.67608-1.01537 1.31697v-1.67888h-2.40523v9.63097h2.53592v-4.60186c0-.7741.09802-1.34461.29154-1.71658.34935-.65849 1.02794-.98773 2.04331-.98773.0754 0 .17593.00252.29909.00754.12315.00754.2664.0176.42474.03519v-2.57865c-.1131-.00754-.18347-.01005-.21614-.01508zm.70121 2.10866h1.34462v5.92888c0 .60067.14074 1.04553.42223 1.33456.43731.4524 1.24911.65848 2.44041.61827l1.1913-.04524v-1.88246a4.0896 4.0896 0 0 1-.25132.01508c-.08545.00251-.16588.00503-.2438.00503-.5127 0-.81681-.05027-.91735-.14829-.10053-.0955-.1508-.3418-.1508-.7364v-5.08943h1.56328v-1.7945h-1.56327v-2.6842h-2.49068v2.6842h-1.34462z"/></svg>