<?xml version="1.0" encoding="UTF-8"?><svg xmlns="http://www.w3.org/2000/svg" version="1.2" baseProfile="tiny" viewBox="0 0 131 68" width="131px" height="68px"><rect width="1" height="1" fill="#2899cc" x="120" y="21"/><rect fill="#2ecae7" x="113" y="32" width="1" height="1"/><rect x="108" y="40" width="1" height="1" fill="#1176a5"/><rect x="116" y="34" width="1" height="1" fill="#077098"/><rect x="116" y="14" width="1" height="1" fill="#1ba0c1"/><rect y="15" width="1" height="1" fill="#0d7ea5" x="115"/><rect x="115" y="16" width="1" height="1" fill="#199cbe"/><rect x="108" y="19" width="1" height="1" fill="#0d73a0"/><rect x="122" y="24" width="1" height="1" fill="#096f9a"/><rect x="107" y="20" width="1" height="1" fill="#1276a6"/><rect height="1" fill="#2488c1" x="113" y="33" width="1"/><rect x="117" y="34" width="1" height="1" fill="#1897ba"/><rect width="1" height="1" fill="#2589c3" x="106" y="9"/><rect width="1" height="1" fill="#2aa9d5" x="110" y="12"/><g fill="#1899bc"><rect x="114" y="14" width="1" height="1"/><rect x="125" y="23" width="1" height="1"/></g><rect x="119" y="27" width="1" height="1" fill="#1377a7"/><rect width="1" height="1" fill="#1ca0c2" x="117" y="33"/><rect fill="#1377a8" x="111" y="36" width="1" height="1"/><g fill="#2586c1"><rect x="105" y="9" width="1" height="1"/><rect width="1" height="1" x="104" y="10"/><rect width="1" height="1" x="105" y="10"/><rect x="106" y="10" width="1" height="9"/><rect y="11" width="1" height="1" x="103"/><rect width="1" height="1" x="104" y="11"/><rect y="11" width="2" height="7" x="105"/><rect x="107" y="11" width="1" height="8"/><rect x="108" y="11" width="1" height="1"/><rect x="102" y="12" width="1" height="1"/><rect y="12" width="1" height="1" x="103"/><rect x="104" y="12" width="4" height="5"/><rect x="108" y="12" width="1" height="5"/><rect x="109" y="12" width="1" height="1"/><rect width="1" height="1" x="101" y="13"/><rect width="1" height="1" x="102" y="13"/><rect x="103" y="13" width="7" height="3"/><rect x="110" y="13" width="1" height="2"/><rect x="101" y="14" width="1" height="1"/><rect x="102" y="14" width="9" height="1"/><rect x="111" y="14" width="1" height="1"/><rect x="100" y="15" width="1" height="1"/><rect x="101" y="15" width="1" height="1"/><rect width="8" height="1" x="102" y="15"/><rect x="110" y="15" width="1" height="1"/><rect width="1" height="1" x="101" y="16"/><rect x="102" y="16" width="1" height="1"/><rect x="103" y="16" width="6" height="1"/><rect x="109" y="16" width="1" height="1"/><rect y="17" width="1" height="1" x="102"/><rect height="1" x="103" y="17" width="1"/><rect x="104" y="17" width="4" height="1"/><rect x="108" y="17" width="1" height="1"/><rect height="1" x="4" y="18" width="8"/><rect y="18" width="1" height="1" x="12"/><rect x="13" y="18" width="1" height="1"/><rect height="1" x="103" y="18" width="1"/><rect y="18" width="1" height="1" x="104"/><rect x="105" y="18" width="2" height="1"/><rect y="18" width="1" height="1" x="115"/><rect x="4" y="19" width="8" height="38"/><rect height="38" x="12" y="19" width="1"/><rect x="13" y="19" width="1" height="29"/><rect width="1" height="1" x="104" y="19"/><rect height="1" x="105" y="19" width="1"/><rect x="106" y="19" width="1" height="1"/><rect x="107" y="19" width="1" height="1"/><rect y="19" width="1" height="1" x="114"/><rect width="1" height="1" x="115" y="19"/><rect width="1" height="8" x="116" y="19"/><rect x="117" y="19" width="1" height="1"/><rect y="20" width="1" height="1" x="106"/><rect x="113" y="20" width="1" height="1"/><rect x="114" y="20" width="1" height="1"/><rect y="20" width="3" height="7" x="115"/><rect x="118" y="20" width="1" height="7"/><rect x="112" y="21" width="1" height="1"/><rect height="1" x="113" y="21" width="1"/><rect y="21" width="5" height="5" x="114"/><rect x="119" y="21" width="1" height="5"/><rect x="111" y="22" width="1" height="1"/><rect x="112" y="22" width="1" height="1"/><rect x="113" y="22" width="7" height="3"/><rect x="120" y="22" width="1" height="2"/><rect x="110" y="23" width="1" height="1"/><rect x="111" y="23" width="1" height="1"/><rect x="112" y="23" width="9" height="1"/><rect width="1" height="1" x="121" y="23"/><rect x="110" y="24" width="1" height="1"/><rect y="24" width="1" height="1" x="111"/><rect x="112" y="24" width="8" height="1"/><rect x="120" y="24" width="1" height="1"/><rect x="111" y="25" width="1" height="1"/><rect height="1" x="112" y="25" width="1"/><rect width="6" height="1" x="113" y="25"/><rect x="112" y="26" width="1" height="1"/><rect x="113" y="26" width="1" height="1"/><rect x="114" y="26" width="5" height="1"/><rect x="119" y="26" width="1" height="1"/><rect x="113" y="27" width="1" height="1"/><rect x="114" y="27" width="1" height="1"/><rect height="1" x="115" y="27" width="3"/><rect x="118" y="27" width="1" height="1"/><rect y="28" width="1" height="1" x="106"/><rect height="1" x="115" y="28" width="1"/><rect width="1" height="1" x="116" y="28"/><rect x="117" y="28" width="1" height="1"/><rect y="29" width="1" height="1" x="105"/><rect y="29" width="1" height="1" x="106"/><rect y="29" width="1" height="9" x="107"/><rect y="29" width="1" height="9" x="108"/><rect x="116" y="29" width="1" height="1"/><rect x="104" y="30" width="1" height="1"/><rect width="1" height="1" x="105" y="30"/><rect x="106" y="30" width="3" height="7"/><rect y="30" width="1" height="7" x="109"/><rect x="103" y="31" width="1" height="1"/><rect height="1" x="104" y="31" width="1"/><rect x="105" y="31" width="5" height="5"/><rect x="110" y="31" width="1" height="5"/><rect height="1" x="102" y="32" width="1"/><rect x="103" y="32" width="1" height="1"/><rect x="104" y="32" width="7" height="3"/><rect y="32" width="1" height="3" x="111"/><rect x="102" y="33" width="1" height="1"/><rect x="103" y="33" width="9" height="1"/><rect width="1" height="1" x="112" y="33"/><rect x="101" y="34" width="1" height="1"/><rect y="34" width="1" height="1" x="102"/><rect height="1" x="103" y="34" width="8"/><rect y="35" width="1" height="1" x="102"/><rect x="103" y="35" width="1" height="1"/><rect height="1" x="104" y="35" width="7"/><rect x="111" y="35" width="1" height="1"/><rect x="103" y="36" width="1" height="1"/><rect width="1" height="1" x="104" y="36"/><rect height="1" x="105" y="36" width="5"/><rect y="36" width="1" height="1" x="110"/><rect x="104" y="37" width="1" height="1"/><rect height="1" x="105" y="37" width="1"/><rect x="106" y="37" width="3" height="1"/><rect width="1" height="1" x="109" y="37"/><rect width="1" height="1" x="105" y="38"/><rect x="106" y="38" width="1" height="1"/><rect width="1" height="1" x="107" y="38"/><rect x="108" y="38" width="1" height="1"/><rect x="106" y="39" width="1" height="1"/><rect width="1" height="1" x="107" y="39"/><rect height="1" x="13" y="48" width="1"/><rect y="49" width="1" height="1" x="13"/><rect x="14" y="49" width="17" height="1"/><rect x="31" y="49" width="1" height="1"/><rect x="32" y="49" width="1" height="1"/><rect x="13" y="50" width="18" height="7"/><rect height="7" x="31" y="50" width="1"/><rect x="32" y="50" width="1" height="7"/><rect x="4" y="57" width="27" height="1"/><rect x="31" y="57" width="1" height="1"/><rect x="32" y="57" width="1" height="1"/><rect x="4" y="58" width="27" height="1"/><rect x="31" y="58" width="1" height="1"/><rect x="32" y="58" width="1" height="1"/></g><rect height="1" fill="#2cbce0" x="108" y="10" width="1"/><rect x="115" y="14" width="1" height="1" fill="#1795b8"/><rect fill="#2fcde9" x="112" y="31" width="1" height="1"/><rect width="1" height="1" fill="#20abcb" x="115" y="33"/><rect width="1" height="1" fill="#2cb8dd" x="117" y="18"/><rect x="118" y="19" width="1" height="1" fill="#2bafd8"/><rect x="126" y="23" width="1" height="1" fill="#199bbd"/><rect y="30" width="1" height="1" fill="#09709b" x="117"/><rect x="116" y="35" width="1" height="1" fill="#1591b5"/><rect height="1" fill="#087199" x="114" y="16" width="1"/><rect width="1" height="1" fill="#2aadd7" x="107" y="27"/><rect fill="#2aa7d4" x="109" y="29" width="1" height="1"/><rect width="1" height="1" fill="#2793c8" x="111" y="31"/><g fill="#1a9ec0"><rect x="113" y="14" width="1" height="1"/><rect x="116" y="15" width="1" height="1"/><rect x="124" y="23" width="1" height="1"/></g><rect x="111" y="15" width="1" height="1" fill="#2082ba"/><rect fill="#076e97" x="111" y="16" width="1" height="1"/><rect x="121" y="24" width="1" height="1" fill="#2485bf"/><g fill="#0b719d"><rect x="121" y="25" width="1" height="1"/><rect x="113" y="34" width="1" height="1"/></g><rect height="1" fill="#2dc3e3" x="107" y="9" width="1"/><g fill="#066d96"><rect x="112" y="15" width="1" height="1"/><rect x="113" y="15" width="1" height="1"/><rect x="114" y="15" width="1" height="1"/><rect x="112" y="16" width="1" height="1"/><rect x="113" y="16" width="1" height="1"/><rect y="17" width="1" height="1" x="111"/><rect x="112" y="17" width="1" height="1"/><rect x="113" y="17" width="1" height="1"/><rect x="114" y="17" width="1" height="1"/><rect y="18" width="1" height="1" x="110"/><rect x="111" y="18" width="1" height="1"/><rect x="112" y="18" width="1" height="1"/><rect y="18" width="1" height="1" x="113"/><rect x="109" y="19" width="1" height="1"/><rect x="110" y="19" width="1" height="1"/><rect x="111" y="19" width="1" height="1"/><rect x="112" y="19" width="1" height="1"/><rect y="20" width="1" height="1" x="108"/><rect x="109" y="20" width="1" height="1"/><rect x="110" y="20" width="1" height="1"/><rect x="111" y="20" width="1" height="1"/><rect x="107" y="21" width="1" height="1"/><rect height="1" x="123" y="24" width="1"/><rect width="1" height="1" x="124" y="24"/><rect y="25" width="1" height="2" x="122"/><rect x="123" y="25" width="1" height="1"/><rect y="25" width="1" height="1" x="124"/><rect width="1" height="2" x="121" y="26"/><rect width="1" height="1" x="123" y="26"/><rect x="124" y="26" width="1" height="1"/><rect x="120" y="27" width="2" height="1"/><rect x="122" y="27" width="1" height="1"/><rect x="123" y="27" width="1" height="1"/><rect x="119" y="28" width="2" height="1"/><rect x="121" y="28" width="1" height="1"/><rect x="122" y="28" width="1" height="1"/><rect y="29" width="1" height="1" x="118"/><rect x="119" y="29" width="1" height="1"/><rect width="1" height="1" x="120" y="29"/><rect x="121" y="29" width="1" height="1"/><rect width="1" height="1" x="122" y="29"/><rect x="114" y="34" width="1" height="2"/><rect x="115" y="34" width="1" height="1"/><rect x="113" y="35" width="1" height="2"/><rect y="35" width="1" height="1" x="115"/><rect x="112" y="36" width="2" height="1"/><rect x="114" y="36" width="1" height="1"/><rect height="1" x="115" y="36" width="1"/><rect x="111" y="37" width="2" height="1"/><rect x="113" y="37" width="1" height="1"/><rect x="114" y="37" width="1" height="1"/><rect x="110" y="38" width="1" height="1"/><rect height="1" x="111" y="38" width="1"/><rect width="1" height="1" x="112" y="38"/><rect x="113" y="38" width="1" height="1"/><rect x="114" y="38" width="1" height="1"/><rect x="109" y="39" width="1" height="1"/><rect height="1" x="110" y="39" width="1"/><rect width="1" height="1" x="111" y="39"/><rect x="112" y="39" width="1" height="1"/><rect x="113" y="39" width="1" height="1"/><rect x="109" y="40" width="1" height="1"/></g><rect x="110" y="17" width="1" height="1" fill="#086e99"/><rect fill="#29a4d2" x="119" y="20" width="1" height="1"/><rect x="109" y="18" width="1" height="1" fill="#0a709b"/><g fill="#2fceea"><rect x="121" y="21" width="1" height="1"/><rect x="111" y="30" width="1" height="1"/></g><rect height="1" fill="#2691c7" x="121" y="22" width="1"/><rect x="123" y="23" width="1" height="1" fill="#1da3c4"/><rect x="108" y="39" width="1" height="1" fill="#1e81b8"/><g fill="#2fcfea"><rect x="108" y="9" width="1" height="1"/><rect x="109" y="9" width="1" height="1"/><rect width="1" height="1" x="110" y="9"/><rect y="9" width="1" height="1" x="111"/><rect x="109" y="10" width="1" height="1"/><rect x="110" y="10" width="1" height="1"/><rect x="111" y="10" width="1" height="1"/><rect x="112" y="10" width="1" height="1"/><rect height="1" x="110" y="11" width="2"/><rect x="112" y="11" width="1" height="2"/><rect x="113" y="11" width="1" height="1"/><rect height="1" x="114" y="11" width="1"/><rect y="12" width="2" height="1" x="111"/><rect x="113" y="12" width="1" height="1"/><rect x="114" y="12" width="1" height="1"/><rect width="1" height="1" x="115" y="12"/><rect width="2" height="1" x="112" y="13"/><rect x="114" y="13" width="1" height="1"/><rect width="1" height="1" x="115" y="13"/><rect x="116" y="13" width="1" height="1"/><rect y="17" width="1" height="1" x="117"/><rect x="118" y="17" width="1" height="1"/><rect y="18" width="1" height="1" x="118"/><rect x="119" y="18" width="1" height="1"/><rect x="120" y="18" width="1" height="1"/><rect y="18" width="1" height="1" x="121"/><rect width="2" height="1" x="119" y="19"/><rect width="1" height="1" x="121" y="19"/><rect x="122" y="19" width="1" height="1"/><rect y="19" width="1" height="1" x="123"/><rect height="1" x="120" y="20" width="2"/><rect x="122" y="20" width="1" height="1"/><rect x="123" y="20" width="1" height="1"/><rect height="1" x="124" y="20" width="1"/><rect x="122" y="21" width="1" height="1"/><rect x="123" y="21" width="1" height="1"/><rect x="124" y="21" width="1" height="1"/><rect x="125" y="21" width="1" height="1"/><rect x="123" y="22" width="1" height="1"/><rect x="124" y="22" width="1" height="1"/><rect x="125" y="22" width="1" height="1"/><rect x="126" y="22" width="1" height="1"/><rect height="1" x="108" y="27" width="1"/><rect width="1" height="1" x="109" y="28"/><rect x="110" y="28" width="1" height="1"/><rect height="1" x="111" y="28" width="1"/><rect height="1" x="112" y="28" width="1"/><rect width="1" height="1" x="110" y="29"/><rect x="111" y="29" width="1" height="1"/><rect x="112" y="29" width="1" height="1"/><rect x="113" y="29" width="1" height="1"/><rect x="112" y="30" width="1" height="1"/><rect x="113" y="30" width="1" height="1"/><rect height="1" x="114" y="30" width="1"/><rect height="1" x="113" y="31" width="1"/><rect x="114" y="31" width="1" height="1"/><rect width="1" height="1" x="115" y="31"/><rect y="31" width="1" height="1" x="116"/><rect x="114" y="32" width="1" height="1"/><rect x="115" y="32" width="1" height="1"/><rect y="32" width="1" height="1" x="116"/><rect x="117" y="32" width="1" height="1"/></g><rect height="1" fill="#2385bf" x="109" y="17" width="1"/><rect x="122" y="23" width="1" height="1" fill="#238ac0"/><g fill="#177bae"><rect width="1" height="1" x="118" y="28"/><rect x="110" y="37" width="1" height="1"/></g><rect x="110" y="16" width="1" height="1" fill="#2283bd"/><rect x="116" y="17" width="1" height="1" fill="#2bb0d9"/><g fill="#ffae39"><rect x="37" y="18" width="1" height="1"/><rect x="38" y="18" width="26" height="1"/><rect width="1" height="1" x="64" y="18"/><rect x="65" y="18" width="1" height="1"/><rect height="1" x="81" y="18" width="1"/><rect x="82" y="18" width="1" height="1"/><rect x="83" y="18" width="1" height="1"/><rect x="84" y="18" width="1" height="1"/><rect x="85" y="18" width="1" height="1"/><rect height="1" x="86" y="18" width="1"/><rect width="1" height="1" x="87" y="18"/><rect x="88" y="18" width="1" height="1"/><rect height="1" x="89" y="18" width="1"/><rect x="90" y="18" width="1" height="1"/><rect width="1" height="1" x="91" y="18"/><rect x="92" y="18" width="1" height="1"/><rect y="18" width="1" height="1" x="93"/><rect x="94" y="18" width="1" height="1"/><rect x="37" y="19" width="1" height="7"/><rect width="26" height="6" x="38" y="19"/><rect x="64" y="19" width="1" height="5"/><rect x="65" y="19" width="1" height="5"/><rect width="1" height="1" x="79" y="19"/><rect x="80" y="19" width="1" height="1"/><rect height="1" x="81" y="19" width="1"/><rect x="82" y="19" width="11" height="6"/><rect x="93" y="19" width="1" height="8"/><rect x="94" y="19" width="1" height="1"/><rect x="95" y="19" width="1" height="1"/><rect y="19" width="1" height="1" x="96"/><rect y="19" width="1" height="1" x="97"/><rect x="77" y="20" width="1" height="1"/><rect width="1" height="1" x="78" y="20"/><rect x="79" y="20" width="17" height="5"/><rect height="9" x="96" y="20" width="1"/><rect height="1" x="97" y="20" width="1"/><rect x="98" y="20" width="1" height="1"/><rect x="75" y="21" width="1" height="1"/><rect y="21" width="1" height="1" x="76"/><rect x="77" y="21" width="1" height="1"/><rect x="78" y="21" width="20" height="4"/><rect x="98" y="21" width="1" height="9"/><rect x="99" y="21" width="1" height="1"/><rect x="100" y="21" width="1" height="1"/><rect x="74" y="22" width="1" height="1"/><rect x="75" y="22" width="1" height="1"/><rect y="22" width="23" height="3" x="76"/><rect x="99" y="22" width="1" height="7"/><rect height="1" x="100" y="22" width="1"/><rect y="22" width="1" height="1" x="101"/><rect x="73" y="23" width="1" height="1"/><rect x="74" y="23" width="1" height="1"/><rect y="23" width="25" height="2" x="75"/><rect x="100" y="23" width="1" height="5"/><rect x="101" y="23" width="1" height="1"/><rect x="102" y="23" width="1" height="1"/><rect x="64" y="24" width="1" height="1"/><rect x="65" y="24" width="1" height="1"/><rect x="72" y="24" width="1" height="1"/><rect x="73" y="24" width="1" height="1"/><rect width="28" height="1" x="74" y="24"/><rect y="24" width="1" height="1" x="102"/><rect x="103" y="24" width="1" height="1"/><rect x="38" y="25" width="25" height="1"/><rect x="63" y="25" width="1" height="1"/><rect x="64" y="25" width="1" height="1"/><rect x="65" y="25" width="1" height="1"/><rect x="71" y="25" width="1" height="1"/><rect x="72" y="25" width="1" height="1"/><rect y="25" width="29" height="1" x="73"/><rect y="25" width="1" height="1" x="102"/><rect x="103" y="25" width="1" height="1"/><rect height="1" x="104" y="25" width="1"/><rect x="37" y="26" width="1" height="1"/><rect x="38" y="26" width="24" height="1"/><rect x="62" y="26" width="1" height="1"/><rect x="63" y="26" width="1" height="1"/><rect height="1" x="64" y="26" width="1"/><rect y="26" width="1" height="1" x="70"/><rect x="71" y="26" width="1" height="1"/><rect x="72" y="26" width="13" height="1"/><rect x="85" y="26" width="1" height="1"/><rect x="86" y="26" width="1" height="1"/><rect width="1" height="1" x="87" y="26"/><rect width="1" height="1" x="88" y="26"/><rect x="89" y="26" width="12" height="1"/><rect y="26" width="1" height="1" x="101"/><rect x="102" y="26" width="1" height="1"/><rect x="103" y="26" width="1" height="1"/><rect x="37" y="27" width="1" height="1"/><rect x="38" y="27" width="12" height="1"/><rect x="50" y="27" width="1" height="1"/><rect x="51" y="27" width="1" height="1"/><rect x="52" y="27" width="9" height="1"/><rect x="61" y="27" width="1" height="1"/><rect x="62" y="27" width="1" height="1"/><rect x="63" y="27" width="1" height="1"/><rect x="70" y="27" width="1" height="1"/><rect height="1" x="71" y="27" width="11"/><rect x="82" y="27" width="1" height="1"/><rect x="83" y="27" width="1" height="1"/><rect x="84" y="27" width="1" height="1"/><rect x="85" y="27" width="1" height="1"/><rect y="27" width="1" height="1" x="86"/><rect x="89" y="27" width="1" height="1"/><rect height="1" x="90" y="27" width="1"/><rect width="1" height="1" x="91" y="27"/><rect x="92" y="27" width="1" height="1"/><rect height="1" x="93" y="27" width="7"/><rect x="101" y="27" width="1" height="1"/><rect height="1" x="102" y="27" width="1"/><rect x="50" y="28" width="1" height="1"/><rect x="51" y="28" width="1" height="1"/><rect x="52" y="28" width="8" height="1"/><rect x="60" y="28" width="1" height="1"/><rect y="28" width="1" height="1" x="61"/><rect y="28" width="1" height="1" x="62"/><rect x="69" y="28" width="1" height="1"/><rect x="70" y="28" width="1" height="1"/><rect x="71" y="28" width="9" height="1"/><rect x="80" y="28" width="1" height="1"/><rect width="1" height="1" x="81" y="28"/><rect x="82" y="28" width="1" height="1"/><rect y="28" width="1" height="1" x="83"/><rect y="28" width="1" height="1" x="92"/><rect height="1" x="93" y="28" width="1"/><rect x="94" y="28" width="1" height="1"/><rect x="95" y="28" width="5" height="1"/><rect y="28" width="1" height="1" x="100"/><rect x="101" y="28" width="1" height="1"/><rect x="49" y="29" width="1" height="1"/><rect y="29" width="1" height="1" x="50"/><rect x="51" y="29" width="8" height="1"/><rect x="59" y="29" width="1" height="1"/><rect x="60" y="29" width="1" height="1"/><rect x="61" y="29" width="1" height="1"/><rect x="69" y="29" width="1" height="1"/><rect x="70" y="29" width="9" height="1"/><rect x="79" y="29" width="1" height="1"/><rect width="1" height="1" x="80" y="29"/><rect height="1" x="81" y="29" width="1"/><rect width="1" height="1" x="94" y="29"/><rect x="95" y="29" width="1" height="1"/><rect height="1" x="96" y="29" width="3"/><rect x="99" y="29" width="1" height="1"/><rect width="1" height="1" x="100" y="29"/><rect x="48" y="30" width="1" height="1"/><rect x="49" y="30" width="1" height="1"/><rect x="50" y="30" width="8" height="1"/><rect x="58" y="30" width="1" height="1"/><rect x="59" y="30" width="1" height="1"/><rect y="30" width="1" height="1" x="60"/><rect x="68" y="30" width="1" height="1"/><rect x="69" y="30" width="1" height="1"/><rect x="70" y="30" width="8" height="2"/><rect x="78" y="30" width="1" height="1"/><rect y="30" width="1" height="1" x="79"/><rect x="80" y="30" width="1" height="1"/><rect height="1" x="95" y="30" width="1"/><rect x="96" y="30" width="1" height="1"/><rect y="30" width="1" height="1" x="97"/><rect y="30" width="1" height="1" x="98"/><rect x="99" y="30" width="1" height="1"/><rect x="100" y="30" width="1" height="1"/><rect y="31" width="1" height="1" x="47"/><rect width="1" height="1" x="48" y="31"/><rect x="49" y="31" width="8" height="1"/><rect height="1" x="57" y="31" width="1"/><rect x="58" y="31" width="1" height="1"/><rect x="59" y="31" width="1" height="1"/><rect y="31" width="1" height="1" x="68"/><rect width="8" height="14" x="69" y="31"/><rect x="78" y="31" width="1" height="1"/><rect y="31" width="1" height="1" x="79"/><rect x="97" y="31" width="1" height="1"/><rect width="1" height="1" x="98" y="31"/><rect x="99" y="31" width="1" height="1"/><rect x="46" y="32" width="1" height="1"/><rect x="47" y="32" width="1" height="1"/><rect x="48" y="32" width="8" height="8"/><rect x="56" y="32" width="1" height="1"/><rect width="1" height="1" x="57" y="32"/><rect width="1" height="1" x="58" y="32"/><rect x="68" y="32" width="1" height="1"/><rect x="77" y="32" width="1" height="1"/><rect y="32" width="1" height="1" x="78"/><rect x="98" y="32" width="1" height="1"/><rect height="1" x="45" y="33" width="1"/><rect x="46" y="33" width="1" height="1"/><rect x="47" y="33" width="8" height="7"/><rect height="1" x="56" y="33" width="1"/><rect x="57" y="33" width="1" height="1"/><rect x="67" y="33" width="1" height="1"/><rect x="68" y="33" width="1" height="1"/><rect width="1" height="1" x="77" y="33"/><rect x="78" y="33" width="1" height="1"/><rect width="1" height="1" x="44" y="34"/><rect x="45" y="34" width="1" height="1"/><rect x="46" y="34" width="9" height="6"/><rect width="1" height="1" x="56" y="34"/><rect y="34" width="1" height="1" x="67"/><rect x="68" y="34" width="8" height="8"/><rect y="34" width="1" height="1" x="77"/><rect width="1" height="1" x="43" y="35"/><rect x="44" y="35" width="1" height="1"/><rect x="45" y="35" width="11" height="5"/><rect height="9" x="56" y="35" width="1"/><rect x="57" y="35" width="1" height="1"/><rect height="1" x="58" y="35" width="1"/><rect y="35" width="1" height="1" x="59"/><rect y="35" width="1" height="1" x="67"/><rect y="35" width="1" height="1" x="77"/><rect x="43" y="36" width="1" height="1"/><rect x="44" y="36" width="14" height="1"/><rect x="58" y="36" width="1" height="20"/><rect x="59" y="36" width="1" height="1"/><rect x="60" y="36" width="1" height="1"/><rect width="1" height="1" x="67" y="36"/><rect x="77" y="36" width="1" height="1"/><rect x="43" y="37" width="1" height="1"/><rect y="37" width="16" height="1" x="44"/><rect x="60" y="37" width="1" height="17"/><rect x="61" y="37" width="1" height="1"/><rect width="1" height="1" x="62" y="37"/><rect height="1" x="67" y="37" width="1"/><rect x="77" y="37" width="1" height="1"/><rect x="43" y="38" width="1" height="1"/><rect width="1" height="1" x="44" y="38"/><rect x="57" y="38" width="4" height="16"/><rect x="61" y="38" width="1" height="15"/><rect x="62" y="38" width="1" height="1"/><rect width="1" height="1" x="63" y="38"/><rect x="67" y="38" width="1" height="1"/><rect x="77" y="38" width="1" height="1"/><rect height="1" x="44" y="39" width="1"/><rect x="62" y="39" width="1" height="13"/><rect x="63" y="39" width="1" height="1"/><rect x="67" y="39" width="1" height="1"/><rect y="39" width="1" height="1" x="77"/><rect x="44" y="40" width="1" height="1"/><rect x="45" y="40" width="17" height="1"/><rect y="40" width="1" height="1" x="63"/><rect x="64" y="40" width="1" height="1"/><rect x="67" y="40" width="1" height="1"/><rect x="77" y="40" width="1" height="1"/><rect x="44" y="41" width="1" height="1"/><rect x="45" y="41" width="3" height="1"/><rect width="1" height="1" x="48" y="41"/><rect height="1" x="49" y="41" width="1"/><rect y="41" width="1" height="1" x="50"/><rect x="51" y="41" width="1" height="1"/><rect x="52" y="41" width="11" height="1"/><rect x="63" y="41" width="1" height="9"/><rect height="1" x="64" y="41" width="1"/><rect x="67" y="41" width="1" height="1"/><rect x="77" y="41" width="1" height="1"/><rect x="51" y="42" width="1" height="1"/><rect x="52" y="42" width="1" height="1"/><rect x="53" y="42" width="1" height="1"/><rect width="1" height="1" x="54" y="42"/><rect y="42" width="8" height="1" x="55"/><rect x="64" y="42" width="1" height="1"/><rect x="67" y="42" width="1" height="1"/><rect x="68" y="42" width="8" height="1"/><rect x="77" y="42" width="1" height="1"/><rect x="54" y="43" width="1" height="1"/><rect x="55" y="43" width="1" height="1"/><rect height="5" x="64" y="43" width="1"/><rect x="65" y="43" width="1" height="1"/><rect x="67" y="43" width="1" height="1"/><rect x="68" y="43" width="1" height="1"/><rect x="77" y="43" width="1" height="1"/><rect x="78" y="43" width="1" height="1"/><rect x="41" y="44" width="1" height="1"/><rect x="55" y="44" width="1" height="1"/><rect x="56" y="44" width="8" height="1"/><rect x="65" y="44" width="1" height="1"/><rect x="68" y="44" width="1" height="1"/><rect height="11" x="77" y="44" width="1"/><rect x="78" y="44" width="1" height="1"/><rect width="1" height="1" x="98" y="44"/><rect x="40" y="45" width="1" height="1"/><rect x="41" y="45" width="1" height="1"/><rect x="42" y="45" width="1" height="1"/><rect x="55" y="45" width="1" height="1"/><rect x="56" y="45" width="1" height="1"/><rect x="65" y="45" width="1" height="1"/><rect y="45" width="1" height="1" x="68"/><rect x="69" y="45" width="8" height="1"/><rect height="1" x="78" y="45" width="1"/><rect x="79" y="45" width="1" height="1"/><rect height="1" x="97" y="45" width="1"/><rect x="98" y="45" width="1" height="1"/><rect x="99" y="45" width="1" height="1"/><rect x="39" y="46" width="1" height="1"/><rect height="1" x="40" y="46" width="1"/><rect x="41" y="46" width="1" height="9"/><rect width="1" height="1" x="42" y="46"/><rect height="1" x="43" y="46" width="1"/><rect x="56" y="46" width="1" height="1"/><rect x="65" y="46" width="1" height="1"/><rect x="68" y="46" width="1" height="1"/><rect x="69" y="46" width="1" height="1"/><rect y="46" width="8" height="2" x="70"/><rect x="78" y="46" width="1" height="9"/><rect height="1" x="79" y="46" width="1"/><rect y="46" width="1" height="1" x="80"/><rect x="96" y="46" width="1" height="1"/><rect x="97" y="46" width="1" height="1"/><rect x="98" y="46" width="1" height="9"/><rect x="99" y="46" width="1" height="1"/><rect x="100" y="46" width="1" height="1"/><rect x="38" y="47" width="1" height="1"/><rect x="39" y="47" width="1" height="1"/><rect x="40" y="47" width="2" height="7"/><rect height="9" x="42" y="47" width="1"/><rect x="43" y="47" width="1" height="1"/><rect x="44" y="47" width="1" height="1"/><rect x="55" y="47" width="1" height="1"/><rect width="8" height="3" x="56" y="47"/><rect height="1" x="65" y="47" width="1"/><rect y="47" width="1" height="1" x="69"/><rect x="79" y="47" width="1" height="9"/><rect width="1" height="1" x="80" y="47"/><rect x="81" y="47" width="1" height="1"/><rect height="1" x="94" y="47" width="1"/><rect height="1" x="95" y="47" width="1"/><rect x="96" y="47" width="3" height="8"/><rect x="99" y="47" width="1" height="7"/><rect x="100" y="47" width="1" height="1"/><rect x="101" y="47" width="1" height="1"/><rect x="37" y="48" width="1" height="1"/><rect x="38" y="48" width="1" height="1"/><rect x="39" y="48" width="4" height="6"/><rect x="43" y="48" width="1" height="8"/><rect y="48" width="1" height="1" x="44"/><rect x="45" y="48" width="1" height="1"/><rect x="54" y="48" width="1" height="1"/><rect y="48" width="1" height="1" x="55"/><rect y="48" width="1" height="1" x="64"/><rect width="1" height="1" x="65" y="48"/><rect x="69" y="48" width="1" height="1"/><rect x="70" y="48" width="10" height="1"/><rect x="80" y="48" width="1" height="8"/><rect width="1" height="1" x="81" y="48"/><rect x="82" y="48" width="1" height="1"/><rect x="93" y="48" width="1" height="1"/><rect x="94" y="48" width="1" height="1"/><rect x="95" y="48" width="5" height="6"/><rect width="1" height="5" x="100" y="48"/><rect x="101" y="48" width="1" height="1"/><rect height="1" x="102" y="48" width="1"/><rect x="36" y="49" width="1" height="1"/><rect x="37" y="49" width="1" height="1"/><rect x="38" y="49" width="7" height="4"/><rect x="45" y="49" width="1" height="8"/><rect y="49" width="1" height="1" x="46"/><rect x="47" y="49" width="1" height="1"/><rect x="48" y="49" width="1" height="1"/><rect width="1" height="1" x="53" y="49"/><rect x="54" y="49" width="1" height="1"/><rect x="55" y="49" width="8" height="3"/><rect x="64" y="49" width="1" height="1"/><rect width="1" height="1" x="70" y="49"/><rect y="49" width="10" height="1" x="71"/><rect x="81" y="49" width="1" height="8"/><rect y="49" width="1" height="1" x="82"/><rect width="1" height="1" x="83" y="49"/><rect height="1" x="84" y="49" width="1"/><rect height="1" x="85" y="49" width="1"/><rect x="90" y="49" width="1" height="1"/><rect width="1" height="1" x="91" y="49"/><rect width="1" height="1" x="92" y="49"/><rect x="93" y="49" width="1" height="1"/><rect x="94" y="49" width="7" height="4"/><rect width="1" height="3" x="101" y="49"/><rect x="102" y="49" width="1" height="1"/><rect y="49" width="1" height="1" x="103"/><rect x="35" y="50" width="1" height="1"/><rect x="36" y="50" width="11" height="1"/><rect width="1" height="7" x="47" y="50"/><rect x="48" y="50" width="1" height="1"/><rect width="1" height="1" x="49" y="50"/><rect height="1" x="50" y="50" width="1"/><rect x="51" y="50" width="1" height="1"/><rect y="50" width="1" height="1" x="52"/><rect height="1" x="53" y="50" width="1"/><rect x="54" y="50" width="9" height="2"/><rect x="63" y="50" width="1" height="1"/><rect width="1" height="1" x="64" y="50"/><rect width="1" height="1" x="70" y="50"/><rect x="71" y="50" width="1" height="1"/><rect width="12" height="1" x="72" y="50"/><rect width="1" height="7" x="84" y="50"/><rect x="85" y="50" width="1" height="1"/><rect y="50" width="1" height="1" x="86"/><rect height="1" x="87" y="50" width="1"/><rect x="88" y="50" width="1" height="1"/><rect x="89" y="50" width="1" height="1"/><rect x="90" y="50" width="1" height="1"/><rect x="91" y="50" width="11" height="2"/><rect x="102" y="50" width="1" height="1"/><rect x="103" y="50" width="1" height="1"/><rect height="1" x="104" y="50" width="1"/><rect width="1" height="1" x="35" y="51"/><rect x="36" y="51" width="26" height="1"/><rect x="63" y="51" width="1" height="1"/><rect x="64" y="51" width="1" height="1"/><rect x="71" y="51" width="1" height="1"/><rect y="51" width="1" height="1" x="72"/><rect width="29" height="1" x="73" y="51"/><rect x="102" y="51" width="1" height="1"/><rect x="103" y="51" width="1" height="1"/><rect y="51" width="1" height="1" x="104"/><rect width="1" height="1" x="35" y="52"/><rect x="36" y="52" width="1" height="1"/><rect x="37" y="52" width="25" height="1"/><rect x="62" y="52" width="1" height="1"/><rect x="63" y="52" width="1" height="1"/><rect y="52" width="1" height="1" x="72"/><rect x="73" y="52" width="28" height="1"/><rect x="101" y="52" width="1" height="1"/><rect y="52" width="1" height="1" x="102"/><rect width="1" height="1" x="103" y="52"/><rect width="1" height="1" x="36" y="53"/><rect height="1" x="37" y="53" width="1"/><rect width="23" height="1" x="38" y="53"/><rect width="1" height="1" x="61" y="53"/><rect width="1" height="1" x="62" y="53"/><rect x="63" y="53" width="1" height="1"/><rect width="1" height="1" x="73" y="53"/><rect x="74" y="53" width="26" height="1"/><rect x="100" y="53" width="1" height="1"/><rect x="101" y="53" width="1" height="1"/><rect x="102" y="53" width="1" height="1"/><rect y="54" width="1" height="1" x="37"/><rect x="38" y="54" width="1" height="1"/><rect x="39" y="54" width="21" height="1"/><rect y="54" width="1" height="1" x="60"/><rect width="1" height="1" x="61" y="54"/><rect x="62" y="54" width="1" height="1"/><rect y="54" width="1" height="1" x="74"/><rect x="75" y="54" width="1" height="1"/><rect height="1" x="76" y="54" width="23"/><rect x="99" y="54" width="1" height="1"/><rect height="1" x="100" y="54" width="1"/><rect x="101" y="54" width="1" height="1"/><rect y="55" width="1" height="1" x="38"/><rect x="39" y="55" width="1" height="1"/><rect x="40" y="55" width="1" height="1"/><rect x="41" y="55" width="18" height="1"/><rect x="59" y="55" width="1" height="1"/><rect height="1" x="60" y="55" width="1"/><rect x="61" y="55" width="1" height="1"/><rect x="75" y="55" width="1" height="1"/><rect width="1" height="1" x="76" y="55"/><rect x="77" y="55" width="21" height="1"/><rect y="55" width="1" height="1" x="98"/><rect height="1" x="99" y="55" width="1"/><rect height="1" x="100" y="55" width="1"/><rect width="1" height="1" x="40" y="56"/><rect x="41" y="56" width="1" height="1"/><rect height="1" x="42" y="56" width="16"/><rect x="58" y="56" width="1" height="1"/><rect width="1" height="1" x="59" y="56"/><rect x="60" y="56" width="1" height="1"/><rect width="1" height="1" x="76" y="56"/><rect width="1" height="1" x="77" y="56"/><rect x="78" y="56" width="1" height="1"/><rect x="79" y="56" width="17" height="1"/><rect x="96" y="56" width="1" height="1"/><rect x="97" y="56" width="1" height="1"/><rect x="98" y="56" width="1" height="1"/><rect x="42" y="57" width="1" height="1"/><rect y="57" width="1" height="1" x="43"/><rect height="1" x="44" y="57" width="1"/><rect x="45" y="57" width="11" height="1"/><rect x="56" y="57" width="1" height="1"/><rect x="57" y="57" width="1" height="1"/><rect x="58" y="57" width="1" height="1"/><rect height="1" x="59" y="57" width="1"/><rect x="78" y="57" width="1" height="1"/><rect x="79" y="57" width="1" height="1"/><rect width="1" height="1" x="80" y="57"/><rect x="81" y="57" width="12" height="1"/><rect x="93" y="57" width="1" height="1"/><rect height="1" x="94" y="57" width="1"/><rect x="95" y="57" width="1" height="1"/><rect x="96" y="57" width="1" height="1"/><rect y="57" width="1" height="1" x="97"/><rect width="1" height="1" x="44" y="58"/><rect x="45" y="58" width="1" height="1"/><rect x="46" y="58" width="1" height="1"/><rect height="1" x="47" y="58" width="1"/><rect x="48" y="58" width="1" height="1"/><rect x="49" y="58" width="1" height="1"/><rect x="50" y="58" width="1" height="1"/><rect x="51" y="58" width="1" height="1"/><rect x="52" y="58" width="1" height="1"/><rect x="53" y="58" width="1" height="1"/><rect x="54" y="58" width="1" height="1"/><rect y="58" width="1" height="1" x="55"/><rect x="56" y="58" width="1" height="1"/><rect x="81" y="58" width="1" height="1"/><rect x="82" y="58" width="1" height="1"/><rect x="83" y="58" width="1" height="1"/><rect x="84" y="58" width="1" height="1"/><rect x="85" y="58" width="1" height="1"/><rect width="1" height="1" x="86" y="58"/><rect x="87" y="58" width="1" height="1"/><rect height="1" x="88" y="58" width="1"/><rect y="58" width="1" height="1" x="89"/><rect x="90" y="58" width="1" height="1"/><rect x="91" y="58" width="1" height="1"/><rect x="92" y="58" width="1" height="1"/><rect x="93" y="58" width="1" height="1"/><rect x="94" y="58" width="1" height="1"/></g><rect x="116" y="33" width="1" height="1" fill="#1ea7c7"/><rect width="1" height="1" fill="#289ccd" x="110" y="30"/><rect x="122" y="22" width="1" height="1" fill="#2fcce8"/><rect y="24" width="1" height="1" fill="#199abc" x="126"/><g fill="#2586c0"><rect height="1" x="120" y="25" width="1"/><rect x="112" y="34" width="1" height="1"/></g><rect width="1" height="1" fill="#2bb2da" x="108" y="28"/><g fill="#1b7eb3"><rect width="1" height="1" x="117" y="29"/><rect x="109" y="38" width="1" height="1"/></g><g fill="#2587c1"><rect x="107" y="10" width="1" height="1"/><rect x="116" y="18" width="1" height="1"/><rect x="107" y="28" width="1" height="1"/></g><rect x="109" y="11" width="1" height="1" fill="#2bb3da"/><rect x="112" y="14" width="1" height="1" fill="#2090c0"/><rect x="125" y="25" width="1" height="1" fill="#1796b9"/><rect height="1" fill="#21adce" x="114" y="33" width="1"/><rect fill="#2485c0" x="108" y="18" width="1" height="1"/><g fill="#0e74a1"><rect x="120" y="26" width="1" height="1"/><rect x="112" y="35" width="1" height="1"/></g><rect width="1" height="1" fill="#268dc5" x="112" y="32"/><rect y="13" width="1" height="1" fill="#289ece" x="111"/><rect fill="#09739b" x="125" y="24" width="1" height="1"/></svg>