<?xml version="1.0" encoding="UTF-8" standalone="no"?>
<svg
   xmlns:svg="http://www.w3.org/2000/svg"
   xmlns="http://www.w3.org/2000/svg"
   version="1.1"
   id="svg8165"
   viewBox="0 0 873.52298 124.82724"
   height="35.229023mm"
   width="246.52759mm">
  <defs
     id="defs8167" />
  <g
     transform="translate(62.475772,-258.52001)"
     id="layer1">
    <path
       d="m -62.475772,258.52001 873.522962,0 0,124.82725 -873.522962,0 0,-124.82725 z"
       style="fill:#999999;fill-opacity:1;fill-rule:nonzero;stroke:none"
       id="path26" />
    <path
       d="m 405.89446,301.91517 -11.38444,26.11682 22.76894,0 -11.3845,-26.11682 0,0 z m 0,-17.14376 29.73335,67.90468 -8.43766,0 -7.50061,-17.94719 -27.4564,0 -7.5005,17.94719 -8.43796,0 29.59978,-67.90468 0,0 z m -438.234954,5.75888 7.500513,0 c 0,0 0,38.70756 0,38.70756 0,6.29448 1.33932,10.84821 4.017875,13.79535 2.678834,2.94643 6.830749,4.41977 12.5900221,4.41977 5.6251258,0 9.911181,-1.47334 12.5897576,-4.41977 2.6788122,-2.94714 4.0180898,-7.50087 4.0180898,-13.79535 0,0 0,-38.70756 0,-38.70756 l 7.5003275,0 c 0,0 0,38.70756 0,38.70756 0,8.30377 -2.008906,14.5987 -6.0270243,18.8845 -4.0181041,4.15193 -10.04516382,6.16104 -18.0811506,6.16104 -8.0361941,0 -14.0633041,-2.00911 -18.0811081,-6.16104 -4.01809,-4.2858 -6.027302,-10.58073 -6.027302,-18.8845 0,0 0,-38.70756 0,-38.70756 l 0,0 z m 65.494167,62.1458 0,-64.69041 45.538033,49.68991 0,-47.1453 6.964396,0 0,64.55698 -45.403868,-49.1544 0,46.74322 -7.098561,0 0,0 z m 67.503287,0 0,-62.1458 7.36636,0 0,62.1458 -7.36636,0 0,0 z m 42.72528,2.41118 -26.25137,-64.55698 8.03604,0 18.21533,47.5471 18.21507,-47.5471 8.03604,0 -26.25111,64.55698 0,0 z m 37.09979,-2.41118 0,-62.1458 32.81412,0 0,6.697 -25.44774,0 0,17.81323 25.44774,0 0,6.96439 -25.44774,0 0,23.84075 25.44774,0 0,6.83043 -32.81412,0 0,0 z m 47.94877,0 0,-62.1458 c 0,0 14.59888,0 14.59888,0 4.1519,0 7.09848,0.26811 9.10757,0.67001 1.87497,0.5355 3.61621,1.33938 5.08946,2.41065 1.87499,1.47335 3.34846,3.3485 4.28583,5.75916 1.07156,2.41091 1.60727,5.08968 1.60727,8.0361 0,5.08968 -1.47327,8.97368 -4.28587,11.65227 -2.81254,2.67858 -7.09855,4.01815 -12.58995,4.01815 0,0 -1.20532,0 -1.20532,0 l 23.70648,29.59946 -9.37554,0 -22.7689,-29.59946 -1.07154,0 0,29.59946 -7.09837,0 0,0 z m 7.09837,-55.85061 0,20.75965 c 0,0 5.75934,0 5.75934,0 5.75909,0 9.64326,-0.80334 11.51844,-2.27668 2.0089,-1.47317 2.94651,-4.01824 2.94651,-7.76827 0,-4.01842 -0.93761,-6.83096 -2.94651,-8.43818 -2.00921,-1.60705 -5.89328,-2.27652 -11.51844,-2.27652 0,0 -5.75934,0 -5.75934,0 l 0,0 z m 62.81557,21.29543 c 4.15181,1.74145 7.09865,4.01796 9.24153,6.96456 2.0089,2.81255 3.08052,6.16105 3.08052,10.0455 0,5.75897 -1.87523,10.31288 -5.49142,13.92922 -3.61615,3.48193 -8.4379,5.2232 -14.46496,5.2232 -4.95567,0 -8.97358,-1.33937 -12.32205,-3.74985 -3.34817,-2.54506 -5.4913,-6.16123 -6.69671,-10.71496 0,0 6.69671,-3.34841 6.69671,-3.34841 0.93762,3.75003 2.41089,6.69646 4.41983,8.57161 2.14294,2.00912 4.82173,2.9467 7.90222,2.9467 3.75016,0 6.69671,-1.07155 8.97363,-3.21454 2.27685,-2.14281 3.48243,-4.95536 3.48243,-8.30377 0,-2.81255 -0.80364,-5.22365 -2.41089,-7.23232 -1.60723,-2.14326 -4.01811,-3.88445 -7.23256,-5.22383 0,0 -7.50033,-3.21435 -7.50033,-3.21435 -4.15193,-1.74119 -7.23237,-4.01788 -9.24156,-6.69646 -2.14291,-2.67903 -3.08046,-6.02753 -3.08046,-9.77738 0,-4.41996 1.60725,-8.03638 4.95567,-10.9828 3.21442,-2.81274 7.36635,-4.28581 12.58973,-4.28581 3.61624,0 6.96468,0.80343 9.64355,2.27651 2.6785,1.60731 4.82141,4.01841 6.42866,7.09907 0,0 -6.161,3.88373 -6.161,3.88373 -1.3393,-2.41066 -2.94653,-4.15193 -4.68772,-5.35708 -1.741,-1.20551 -3.61624,-1.74127 -5.89307,-1.74127 -2.67862,0 -4.95552,0.80343 -6.69671,2.54461 -1.8752,1.60732 -2.67884,3.88427 -2.67884,6.42889 0,2.27723 0.66982,4.15184 2.00914,5.75915 1.33928,1.60731 3.48224,3.08057 6.29504,4.28581 0,0 8.83962,3.88427 8.83962,3.88427 0,0 0,0 0,0 z m 25.71544,34.55518 0,-62.1458 7.36632,0 0,62.1458 -7.36632,0 0,0 z m 33.08199,0 7.50032,0 0,-55.18114 17.54548,0 0,-6.96466 -42.45728,0 0,6.96466 17.41148,0 0,55.18114 0,0 z m 55.58301,-60.40434 c 0,1.47317 0.40164,2.67858 1.33923,3.61589 0.9376,1.07181 2.14291,1.47362 3.61621,1.47362 1.47325,0 2.67883,-0.40181 3.61614,-1.47362 0.93767,-0.93731 1.33961,-2.14272 1.33961,-3.61589 0,-1.33938 -0.40208,-2.5448 -1.47352,-3.48237 -0.93732,-0.93758 -2.14289,-1.47335 -3.48223,-1.47335 -1.33926,0 -2.54483,0.53577 -3.48222,1.47335 -1.07154,1.07127 -1.47322,2.14299 -1.47322,3.48237 0,0 0,0 0,0 z m -24.51015,0 c 0,1.47317 0.53568,2.67858 1.47326,3.61589 0.93757,1.07181 2.27693,1.47362 3.75012,1.47362 1.47333,0 2.54489,-0.40181 3.48224,-1.33965 0.93764,-0.93731 1.33948,-2.14282 1.33948,-3.74986 0,-1.33938 -0.40163,-2.4111 -1.33948,-3.48237 -1.07136,-0.93758 -2.14291,-1.47335 -3.48224,-1.47335 -1.47319,0 -2.67876,0.53577 -3.61616,1.60722 -1.07154,0.9374 -1.60722,2.14308 -1.60722,3.3485 0,0 0,0 0,0 z m 58.93118,60.40434 7.3663,0 0,-55.18114 17.54575,0 0,-6.96466 -42.59124,0 0,6.96466 17.67919,0 0,55.18114 0,0 z m 57.05652,0 0,-62.1458 7.36629,0 0,55.04753 23.57234,0 0,7.09827 -30.93863,0 0,0 z m 37.09963,0 0,-62.1458 32.8143,0 0,6.697 -25.44797,0 0,17.81323 25.44797,0 0,6.96439 -25.44797,0 0,23.84075 25.44797,0 0,6.83043 -32.8143,0 0,0 z m 46.20772,0 0,-62.1458 7.36629,0 0,62.1458 -7.36629,0 0,0 z m 34.01958,-27.85846 0,27.85846 -7.23284,0 0,-62.1458 c 0,0 12.99189,0 12.99189,0 4.68779,0 8.03625,0.26811 10.17893,0.67001 2.14317,0.5355 4.01788,1.33938 5.49159,2.41065 2.00876,1.47335 3.61598,3.3485 4.68735,5.75916 1.20574,2.54506 1.74121,5.22365 1.74121,8.30403 0,2.9466 -0.53547,5.62519 -1.74121,8.16981 -1.07138,2.4111 -2.6786,4.41977 -4.68735,5.75959 -1.47371,1.20524 -3.34842,2.00867 -5.49159,2.41048 -2.14268,0.53595 -5.49114,0.80361 -10.17893,0.80361 0,0 -2.00909,0 -2.00909,0 l -3.74996,0 0,0 z m 0,-6.69672 c 0,0 3.74996,0 3.74996,0 6.29494,0 10.58079,-0.80361 12.85788,-2.27696 2.14272,-1.47335 3.2145,-4.01797 3.2145,-7.76827 0,-4.01796 -1.07178,-6.83042 -3.34844,-8.43774 -2.27709,-1.60722 -6.56294,-2.41065 -12.72394,-2.41065 0,0 -3.74996,0 -3.74996,0 l 0,20.89362 0,0 z m 25.58147,34.55518 46.07366,0 0,-7.09827 -33.21622,0 34.6895,-55.04753 -40.98444,0 0,6.697 28.39442,0 -34.95692,55.4488 0,0 z m 53.57398,0 0,-62.1458 7.36638,0 0,62.1458 -7.36638,0 0,0 z m 55.04681,-32.14427 25.58196,0 c 0,0 0,2.143 0,2.143 0,9.77712 -2.67902,17.54538 -8.30415,23.17084 -5.49111,5.62519 -13.12545,8.43773 -22.63491,8.43773 -2.94654,0 -5.75908,-0.26793 -8.43816,-0.93739 -2.54464,-0.53595 -5.0892,-1.47335 -7.23235,-2.67903 -5.08921,-2.81273 -9.10755,-6.69646 -11.78613,-11.65218 -2.8126,-4.82185 -4.28588,-10.44686 -4.28588,-16.74178 0,-5.22338 0.93742,-9.91099 2.54464,-14.06336 1.60722,-4.15193 4.15186,-7.9017 7.50032,-10.98236 2.8126,-2.67903 6.02705,-4.68761 9.77742,-6.02699 3.74995,-1.47335 7.76829,-2.14308 12.32206,-2.14308 5.8931,0 11.11624,1.20524 15.53607,3.3485 4.42032,2.14254 8.03625,5.35707 10.84878,9.77685 0,0 -6.16099,4.9558 -6.16099,4.9558 -2.27667,-3.75012 -5.0892,-6.56303 -8.30372,-8.43773 -3.34846,-1.87516 -7.23235,-2.813 -11.65225,-2.813 -7.23278,0 -13.12581,2.41093 -17.5457,7.23277 -4.55378,4.82184 -6.83045,11.25019 -6.83045,19.1526 0,7.3662 2.27667,13.52716 6.83045,18.21504 4.55384,4.82184 10.44687,7.0988 17.5457,7.0988 6.16064,0 11.38429,-1.87515 15.53614,-5.62563 4.15236,-3.74986 6.42896,-8.70567 6.83095,-14.73266 0,0 -17.6798,0 -17.6798,0 l 0,-6.69674 z"
       style="fill:#ffffff;fill-opacity:1;fill-rule:nonzero;stroke:none"
       id="path28" />
  </g>
</svg>
