<?xml version="1.0" encoding="UTF-8" standalone="no"?>
<!-- Generator: Adobe Illustrator 23.0.1, SVG Export Plug-In . SVG Version: 6.00 Build 0) -->

<svg
   id="Layer_1"
   x="0px"
   y="0px"
   viewBox="0 0 400 300"
   style="enable-background:new 0 0 400 245;"
   xml:space="preserve"
   version="1.1"
   xmlns="http://www.w3.org/2000/svg"
   xmlns:svg="http://www.w3.org/2000/svg"><defs
   id="defs137" /> <style
   type="text/css"
   id="style2"> .st0{fill:#4C83C3;} </style> <g
   id="g130"> <path
   id="polygon4"
   class="st0"
   style="fill:#4c83c3"
   d="m 336.1,42.1 h 62.2 V 53.5 H 332 Z" /> <path
   class="st0"
   d="m 221.5,42.1 h 61.6 l 4,11.5 c 0,0 -65.6,0 -65.6,0 0.1,-0.1 0,-11.5 0,-11.5 z"
   id="path6" /> <path
   class="st0"
   d="m 172.7,42.1 c 10.1,1 19,4.6 26.5,11.5 0,0 -111.6,0 -111.6,0 0,0 0,-11.5 0,-11.5 z"
   id="path8" /> <g
   id="g14"> <path
   id="rect10"
   class="st0"
   style="fill:#4c83c3"
   d="m 0,42.099998 h 77.5 v 11.4 H 0 Z" /> <path
   class="st0"
   d="M 38.8,47.8"
   id="path12" /> </g> <path
   class="st0"
   d="m 398.3,75 h -73.9 c 0,0 4,-11.4 4,-11.4 h 69.9 z"
   id="path16" /> <path
   id="polygon18"
   class="st0"
   style="fill:#4c83c3"
   d="m 221.5,63.6 h 69.2 l 4.1,11.4 h -73.3 z" /> <path
   class="st0"
   d="m 207.8,63.6 c 1.5,3.8 3.2,7 3.2,11.4 H 87.6 V 63.6 Z"
   id="path20" /> <g
   id="g26"> <path
   id="rect22"
   class="st0"
   style="fill:#4c83c3"
   d="m 0,63.599998 h 77.5 v 11.4 H 0 Z" /> <path
   class="st0"
   d="M 38.8,69.3"
   id="path24" /> </g> <path
   id="polygon28"
   class="st0"
   style="fill:#4c83c3"
   d="m 376.4,85.1 v 11.4 h -59.6 l 4.1,-11.4 z" /> <path
   id="polygon30"
   class="st0"
   style="fill:#4c83c3"
   d="M 243.4,96.5 V 85.1 h 54.9 l 4.1,11.4 z" /> <path
   class="st0"
   d="m 212,85 c 0,3.9 -0.5,8 -1.6,11.4 H 176.6 V 85 Z"
   id="path32" /> <g
   id="g38"> <path
   id="rect34"
   class="st0"
   style="fill:#4c83c3"
   d="m 21.6,85.099998 h 33.3 v 11.4 H 21.6 Z" /> <path
   class="st0"
   d="M 38.3,90.8"
   id="path36" /> </g> <g
   id="g44"> <path
   id="rect40"
   class="st0"
   style="fill:#4c83c3"
   d="m 110,85 h 33.3 V 96.4 H 110 Z" /> <path
   class="st0"
   d="M 126.6,90.8"
   id="path42" /> </g> <path
   class="st0"
   d="m 276.1,108.8 c 0,0 0,8.7 0,8.7 h -32.8 v -11.4 h 62.4 l 3.9,10.6 c 0,0 3.7,-10.6 3.7,-10.6 h 62.9 v 11.4 h -32.6 c 0,0 0,-8.7 0,-8.7 l -3,8.7 H 279 Z"
   id="path46" /> <path
   class="st0"
   d="m 110,106.1 h 95.5 v 0 c -2.1,3.8 -5.9,8.4 -9.5,11.4 0,0 -86,0 -86,0 0,0 0,-11.4 0,-11.4 z"
   id="path48" /> <g
   id="g54"> <path
   id="rect50"
   class="st0"
   style="fill:#4c83c3"
   d="m 21.6,106.1 h 33.3 v 11.4 H 21.6 Z" /> <path
   class="st0"
   d="M 38.3,111.8"
   id="path52" /> </g> <g
   id="g60"> <path
   id="rect56"
   class="st0"
   style="fill:#4c83c3"
   d="m 343.79999,127.6 h 32.6 V 139 h -32.6 z" /> <path
   class="st0"
   d="M 360.1,133.3"
   id="path58" /> </g> <path
   class="st0"
   d="M 276.1,127.6 H 243.3 V 139 c 0,0 32.8,0 32.8,0 0,-0.1 0.1,-11.4 0,-11.4 z"
   id="path62" /> <path
   class="st0"
   d="m 337.2,127.6 c -0.1,0 -3.8,11.4 -4,11.4 h -46.4 c 0,0 -4.1,-11.4 -4.1,-11.4 z"
   id="path64" /> <path
   class="st0"
   d="m 110,127.6 h 85.8 c 3.9,3.3 7.5,7.3 10.2,11.4 0.2,0 -96.1,0 -96.1,0 0.1,-0.1 0.1,-11.4 0.1,-11.4 z"
   id="path66" /> <path
   class="st0"
   d="M 54.9,138.9 V 127.5 H 21.7 c 0,0 0,11.4 0,11.4 0,0 33.2,0 33.2,0 z"
   id="path68" /> <g
   id="g74"> <path
   id="rect70"
   class="st0"
   style="fill:#4c83c3"
   d="m 343.79999,149 h 32.6 v 11.4 h -32.6 z" /> <path
   class="st0"
   d="M 360.1,154.7"
   id="path72" /> </g> <g
   id="g80"> <path
   id="rect76"
   class="st0"
   style="fill:#4c83c3"
   d="m 243.39999,149 h 32.8 v 11.4 h -32.8 z" /> <path
   class="st0"
   d="M 259.8,154.7"
   id="path78" /> </g> <path
   class="st0"
   d="m 325.6,160.4 c 0,-0.1 4,-11.4 4.1,-11.4 h -39.5 c -0.1,0 4,11.4 4,11.4 0,0 31.4,0.1 31.4,0 z"
   id="path82" /> <path
   class="st0"
   d="m 110,160.4 c 0,0 0,-11.4 0,-11.4 h 33.8 c 0,0 0,11.4 0,11.4 -0.1,0 -33.8,0 -33.8,0 z"
   id="path84" /> <path
   class="st0"
   d="m 210.8,149 c 1.6,3.4 1.8,7.5 2.1,11.4 H 177.1 V 149 Z"
   id="path86" /> <g
   id="g92"> <path
   id="rect88"
   class="st0"
   style="fill:#4c83c3"
   d="M 21.700001,149 H 55 v 11.4 H 21.700001 Z" /> <path
   class="st0"
   d="M 38.3,154.7"
   id="path90" /> </g> <g
   id="g98"> <path
   id="rect94"
   class="st0"
   style="fill:#4c83c3"
   d="m 343.79999,170 h 54.5 v 11.4 h -54.5 z" /> <path
   class="st0"
   d="M 371,175.7"
   id="path96" /> </g> <g
   id="g104"> <path
   id="rect100"
   class="st0"
   style="fill:#4c83c3"
   d="m 221.5,170 h 54.6 v 11.4 h -54.6 z" /> <path
   class="st0"
   d="M 248.8,175.7"
   id="path102" /> </g> <path
   id="polygon106"
   class="st0"
   style="fill:#4c83c3"
   d="m 297.6,170 h 24.5 l -3.9,11.4 h -16.6 z" /> <path
   class="st0"
   d="m 0,170 v 11.4 h 77.5 c 0,0 0,-11.4 0,-11.4 0,0 -77.6,0 -77.5,0 z"
   id="path108" /> <path
   class="st0"
   d="m 211.5,170 c -0.8,3.8 -1.6,8.3 -4.3,11.4 h -1 H 87.6 V 170 Z"
   id="path110" /> <path
   id="polygon112"
   class="st0"
   style="fill:#4c83c3"
   d="m 305.3,191.5 h 9.4 l -4,11.4 h -1.5 z" /> <g
   id="g118"> <path
   id="rect114"
   class="st0"
   style="fill:#4c83c3"
   d="m 343.79999,191.5 h 54.5 v 11.4 h -54.5 z" /> <path
   class="st0"
   d="M 371,197.2"
   id="path116" /> </g> <path
   class="st0"
   d="m 87.6,202.9 v -11.4 c 0,0 111.9,0 112.2,0 -7.5,7.2 -17.8,11.2 -28.9,11.4 H 87.6"
   id="path120" /> <g
   id="g126"> <path
   id="rect122"
   class="st0"
   style="fill:#4c83c3"
   d="m 221.5,191.5 h 54.6 v 11.4 h -54.6 z" /> <path
   class="st0"
   d="M 248.8,197.2"
   id="path124" /> </g> <path
   class="st0"
   d="m 77.5,191.5 c 0,0 0,11.4 0,11.4 0,0 -77.4,0 -77.5,0 0,0 0,-11.4 0,-11.4 0,0 77.4,0.1 77.5,0 z"
   id="path128" /> </g> <g
   aria-label="libica"
   id="text132"
   style="font-size:22px;text-anchor:middle"><path
     d="m 175.7334,240 h -2.01953 v -16.71484 h 2.01953 z"
     style="font-size:22px;text-anchor:middle"
     id="path158" /><path
     d="m 181.9209,225.99219 h -2.27735 v -2.09473 h 2.27735 z M 181.79199,240 h -2.01953 v -11.99902 h 2.01953 z"
     style="font-size:22px;text-anchor:middle"
     id="path160" /><path
     d="m 196.36914,233.90918 q 0,1.50391 -0.42969,2.70703 -0.41894,1.20313 -1.13867,2.01953 -0.76269,0.84863 -1.67578,1.27832 -0.91309,0.41895 -2.00879,0.41895 -1.02051,0 -1.7832,-0.24707 -0.7627,-0.23633 -1.50391,-0.64453 L 187.7002,240 h -1.89063 v -16.71484 h 2.01953 v 5.97265 q 0.84863,-0.69824 1.80469,-1.13867 0.95605,-0.45117 2.14844,-0.45117 2.12695,0 3.35156,1.63281 1.23535,1.63281 1.23535,4.6084 z m -2.08398,0.0537 q 0,-2.14844 -0.70899,-3.25488 -0.70898,-1.11719 -2.28808,-1.11719 -0.88086,0 -1.78321,0.38672 -0.90234,0.37598 -1.67578,0.97754 v 6.875 q 0.85938,0.38672 1.47168,0.53711 0.62305,0.15039 1.40723,0.15039 1.67578,0 2.62109,-1.09571 0.95606,-1.10644 0.95606,-3.45898 z"
     style="font-size:22px;text-anchor:middle"
     id="path162" /><path
     d="m 201.68652,225.99219 h -2.27734 v -2.09473 h 2.27734 z M 201.55762,240 h -2.01953 v -11.99902 h 2.01953 z"
     style="font-size:22px;text-anchor:middle"
     id="path164" /><path
     d="m 214.44824,239.24805 q -1.00976,0.4834 -1.92285,0.75195 -0.90234,0.26855 -1.92285,0.26855 -1.29981,0 -2.38477,-0.37597 -1.08496,-0.38672 -1.8584,-1.16016 -0.78417,-0.77344 -1.21386,-1.95508 -0.42969,-1.18164 -0.42969,-2.76074 0,-2.94336 1.61133,-4.61914 1.62207,-1.67578 4.27539,-1.67578 1.03125,0 2.01953,0.29004 0.99902,0.29004 1.82617,0.70898 v 2.24512 h -0.10742 q -0.92383,-0.71973 -1.91211,-1.10645 -0.97754,-0.38671 -1.91211,-0.38671 -1.71875,0 -2.71777,1.16015 -0.98828,1.14942 -0.98828,3.38379 0,2.16992 0.96679,3.34082 0.97754,1.16016 2.73926,1.16016 0.61231,0 1.2461,-0.16113 0.63378,-0.16114 1.13867,-0.41895 0.44043,-0.22559 0.82715,-0.47266 0.38671,-0.25781 0.6123,-0.44043 h 0.10742 z"
     style="font-size:22px;text-anchor:middle"
     id="path166" /><path
     d="m 226.37207,240 h -2.00879 v -1.27832 q -0.26855,0.18262 -0.73047,0.51562 -0.45117,0.32227 -0.88086,0.51563 -0.50488,0.24707 -1.16015,0.4082 -0.65528,0.17188 -1.53614,0.17188 -1.62207,0 -2.75,-1.07422 -1.12793,-1.07422 -1.12793,-2.73926 0,-1.36426 0.58008,-2.20215 0.59082,-0.84863 1.67578,-1.33203 1.09571,-0.4834 2.63184,-0.65527 1.53613,-0.17188 3.29785,-0.25781 v -0.31153 q 0,-0.6875 -0.24707,-1.13867 -0.23633,-0.45117 -0.6875,-0.70898 -0.42969,-0.24707 -1.03125,-0.33301 -0.60156,-0.0859 -1.25684,-0.0859 -0.79492,0 -1.77246,0.21484 -0.97754,0.20411 -2.01953,0.60157 h -0.10742 v -2.05176 q 0.59082,-0.16113 1.70801,-0.35449 1.11719,-0.19336 2.20215,-0.19336 1.26758,0 2.20215,0.21484 0.94531,0.2041 1.63281,0.70899 0.67676,0.49414 1.03125,1.27832 0.35449,0.78418 0.35449,1.94433 z m -2.00879,-2.9541 v -3.34082 q -0.92383,0.0537 -2.18066,0.16113 -1.2461,0.10742 -1.97657,0.31152 -0.87011,0.24707 -1.40722,0.77344 -0.53711,0.51563 -0.53711,1.42871 0,1.03125 0.62305,1.55762 0.62304,0.51562 1.90136,0.51562 1.06348,0 1.94434,-0.4082 0.88086,-0.41894 1.63281,-0.99902 z"
     style="font-size:22px;text-anchor:middle"
     id="path168" /></g></svg>
