<svg xmlns="http://www.w3.org/2000/svg" role="img" viewBox="-7.97 34.03 414.18 198.18"><style>svg {enable-background:new 0 0 400 245}</style><style>.st0{fill:#4c83c3}</style><g><path d="M398.3 53.5L332 53.5 336.1 42.1 398.3 42.1zM221.5 42.1l61.6 0 4 11.5c0 0-65.6 0-65.6 0C221.6 53.5 221.5 42.1 221.5 42.1zM172.7 42.1c10.1 1 19 4.6 26.5 11.5 0 0-111.6 0-111.6 0 0 0 0-11.5 0-11.5L172.7 42.1z" class="st0"/><g><path d="M0 42.1H77.5V53.5H0z" class="st0"/></g><path d="M398.3 75h-73.9c0 0 4-11.4 4-11.4h69.9V75zM294.8 75L221.5 75 221.5 63.6 290.7 63.6zM207.8 63.6c1.5 3.8 3.2 7 3.2 11.4H87.6V63.6H207.8z" class="st0"/><g><path d="M0 63.6H77.5V75H0z" class="st0"/></g><path d="M316.8 96.5L320.9 85.1 376.4 85.1 376.4 96.5zM298.3 85.1L302.4 96.5 243.4 96.5 243.4 85.1zM212 85c0 3.9-.5 8-1.6 11.4h-33.8V85H212z" class="st0"/><g><path d="M21.6 85.1H54.9V96.5H21.6z" class="st0"/></g><g><path d="M110 85H143.3V96.4H110z" class="st0"/></g><path d="M276.1 108.8c0 0 0 8.7 0 8.7h-32.8v-11.4h62.4l3.9 10.6c0 0 3.7-10.6 3.7-10.6h62.9v11.4h-32.6c0 0 0-8.7 0-8.7l-3 8.7-61.6 0L276.1 108.8zM110 106.1h95.5v0c-2.1 3.8-5.9 8.4-9.5 11.4 0 0-86 0-86 0C110 117.5 110 106.1 110 106.1z" class="st0"/><g><path d="M21.6 106.1H54.9V117.5H21.6z" class="st0"/></g><g><path d="M343.8 127.6H376.40000000000003V139H343.8z" class="st0"/></g><path d="M276.1 127.6h-32.8v11.4c0 0 32.8 0 32.8 0C276.1 138.9 276.2 127.6 276.1 127.6zM337.2 127.6c-.1 0-3.8 11.4-4 11.4l-46.4 0c0 0-4.1-11.4-4.1-11.4H337.2zM110 127.6h85.8c3.9 3.3 7.5 7.3 10.2 11.4.2 0-96.1 0-96.1 0C110 138.9 110 127.6 110 127.6zM54.9 138.9v-11.4H21.7c0 0 0 11.4 0 11.4C21.7 138.9 54.9 138.9 54.9 138.9z" class="st0"/><g><path d="M343.8 149H376.40000000000003V160.4H343.8z" class="st0"/></g><g><path d="M243.4 149H276.2V160.4H243.4z" class="st0"/></g><path d="M325.6 160.4c0-.1 4-11.4 4.1-11.4h-39.5c-.1 0 4 11.4 4 11.4S325.6 160.5 325.6 160.4zM110 160.4c0 0 0-11.4 0-11.4h33.8c0 0 0 11.4 0 11.4C143.7 160.4 110 160.4 110 160.4zM210.8 149c1.6 3.4 1.8 7.5 2.1 11.4h-35.8V149H210.8z" class="st0"/><g><path d="M21.7 149H55V160.4H21.7z" class="st0"/></g><g><path d="M343.8 170H398.3V181.4H343.8z" class="st0"/></g><g><path d="M221.5 170H276.1V181.4H221.5z" class="st0"/></g><path d="M318.2 181.4L301.6 181.4 297.6 170 322.1 170zM0 170v11.4h77.5c0 0 0-11.4 0-11.4C77.5 170-.1 170 0 170zM211.5 170c-.8 3.8-1.6 8.3-4.3 11.4l-1 0H87.6V170H211.5zM310.7 202.9L309.2 202.9 305.3 191.5 314.7 191.5z" class="st0"/><g><path d="M343.8 191.5H398.3V202.9H343.8z" class="st0"/></g><path d="M87.6,202.9v-11.4c0,0,111.9,0,112.2,0c-7.5,7.2-17.8,11.2-28.9,11.4L87.6,202.9" class="st0"/><g><path d="M221.5 191.5H276.1V202.9H221.5z" class="st0"/></g><path d="M77.5,191.5c0,0,0,11.4,0,11.4c0,0-77.4,0-77.5,0c0,0,0-11.4,0-11.4S77.4,191.6,77.5,191.5z" class="st0"/></g><path d="M15.40 55.44L15.40 3.62L4.64 3.62L4.64 55.44ZM10.02 2.60ZM55.63 19.32C53.12 17.24 49.88 16.21 45.91 16.21C42.75 16.21 40.14 16.98 38.07 18.53C36.93 19.39 35.71 20.81 34.42 22.78L34.42 17.19L24.75 17.19L24.75 55.44L34.73 55.44L34.73 34.70C34.73 32.33 35.06 30.39 35.72 28.86C36.98 25.98 39.32 24.54 42.71 24.54C45.48 24.54 47.36 25.52 48.34 27.49C48.88 28.57 49.15 30.12 49.15 32.13L49.15 55.44L59.41 55.44L59.41 29.64C59.41 24.83 58.15 21.39 55.63 19.32ZM42.22 16.10ZM76.46 43.21L66.30 43.21C66.30 47.14 67.74 50.38 70.61 52.93C73.48 55.47 77.93 56.74 83.95 56.74C89.86 56.74 94.22 55.54 97.05 53.14C99.87 50.74 101.29 47.64 101.29 43.84C101.29 40.96 100.30 38.55 98.33 36.63C96.34 34.73 93.35 33.32 89.37 32.38C83.39 31.07 79.91 30.14 78.93 29.60C77.94 29.09 77.45 28.25 77.45 27.11C77.45 26.19 77.91 25.39 78.84 24.71C79.76 24.04 81.32 23.70 83.50 23.70C86.14 23.70 88.02 24.37 89.12 25.73C89.71 26.48 90.07 27.50 90.21 28.79L100.23 28.79C99.79 24.11 98.06 20.81 95.04 18.90C92.03 16.99 88.14 16.03 83.36 16.03C78.32 16.03 74.41 17.30 71.63 19.85C68.85 22.39 67.46 25.43 67.46 28.97C67.46 31.97 68.36 34.27 70.14 35.86C71.92 37.48 74.98 38.82 79.31 39.90C85.34 41.33 88.82 42.34 89.75 42.93C90.69 43.51 91.16 44.37 91.16 45.49C91.16 46.66 90.58 47.54 89.42 48.13C88.26 48.71 86.70 49.01 84.73 49.01C81.38 49.01 79.08 48.34 77.84 47.00C77.13 46.25 76.68 44.99 76.46 43.21ZM84.13 16.10ZM104.77 24.61L110.11 24.61L110.11 48.20C110.11 50.59 110.67 52.36 111.80 53.51C113.53 55.31 116.77 56.13 121.50 55.97L126.25 55.79L126.25 48.30C125.92 48.33 125.58 48.35 125.24 48.36C124.90 48.37 124.58 48.38 124.28 48.38C122.24 48.38 121.02 48.18 120.62 47.79C120.22 47.41 120.02 46.43 120.02 44.86L120.02 24.61L126.25 24.61L126.25 17.47L120.02 17.47L120.02 6.79L110.11 6.79L110.11 17.47L104.77 17.47ZM153.81 36.81L153.81 40.54C153.74 43.89 152.79 46.20 150.98 47.46C149.16 48.73 147.18 49.36 145.02 49.36C143.66 49.36 142.51 48.98 141.56 48.22C140.61 47.46 140.13 46.22 140.13 44.51C140.13 42.59 140.91 41.17 142.45 40.25C143.37 39.71 144.88 39.26 146.99 38.88L149.24 38.46C150.36 38.25 151.25 38.02 151.89 37.78C152.54 37.53 153.18 37.21 153.81 36.81ZM147.73 32.13L144.32 32.55C140.45 33.05 137.52 33.87 135.53 35.02C131.89 37.13 130.08 40.54 130.08 45.25C130.08 48.88 131.21 51.69 133.47 53.67C135.73 55.65 138.60 56.64 142.07 56.64C144.79 56.64 147.22 56.02 149.38 54.77C151.18 53.72 152.78 52.44 154.16 50.94C154.23 51.81 154.32 52.58 154.44 53.26C154.56 53.94 154.77 54.67 155.07 55.44L165.97 55.44L165.97 53.96C165.32 53.66 164.82 53.27 164.50 52.80C164.17 52.34 163.97 51.45 163.90 50.13C163.85 48.40 163.83 46.92 163.83 45.70L163.83 28.13C163.83 23.51 162.20 20.37 158.94 18.70C155.68 17.04 151.96 16.21 147.76 16.21C141.32 16.21 136.77 17.89 134.12 21.27C132.46 23.43 131.52 26.18 131.31 29.53L140.98 29.53C141.21 28.05 141.68 26.88 142.38 26.02C143.37 24.84 145.04 24.26 147.41 24.26C149.52 24.26 151.12 24.56 152.21 25.15C153.30 25.75 153.84 26.84 153.84 28.41C153.84 29.70 153.13 30.64 151.70 31.25C150.90 31.61 149.58 31.90 147.73 32.13ZM148.25 16.10ZM182.95 55.44L182.95 3.62L172.93 3.62L172.93 55.44ZM202.96 55.44L202.96 3.62L192.94 3.62L192.94 55.44ZM233.86 36.81L233.86 40.54C233.79 43.89 232.85 46.20 231.03 47.46C229.21 48.73 227.23 49.36 225.07 49.36C223.71 49.36 222.56 48.98 221.61 48.22C220.66 47.46 220.18 46.22 220.18 44.51C220.18 42.59 220.96 41.17 222.50 40.25C223.42 39.71 224.93 39.26 227.04 38.88L229.29 38.46C230.41 38.25 231.30 38.02 231.94 37.78C232.59 37.53 233.23 37.21 233.86 36.81ZM227.78 32.13L224.37 32.55C220.50 33.05 217.57 33.87 215.58 35.02C211.95 37.13 210.13 40.54 210.13 45.25C210.13 48.88 211.26 51.69 213.52 53.67C215.78 55.65 218.65 56.64 222.12 56.64C224.84 56.64 227.27 56.02 229.43 54.77C231.23 53.72 232.83 52.44 234.21 50.94C234.28 51.81 234.38 52.58 234.49 53.26C234.61 53.94 234.82 54.67 235.13 55.44L246.02 55.44L246.02 53.96C245.37 53.66 244.87 53.27 244.55 52.80C244.22 52.34 244.02 51.45 243.95 50.13C243.90 48.40 243.88 46.92 243.88 45.70L243.88 28.13C243.88 23.51 242.25 20.37 238.99 18.70C235.73 17.04 232.01 16.21 227.81 16.21C221.37 16.21 216.82 17.89 214.17 21.27C212.51 23.43 211.57 26.18 211.36 29.53L221.03 29.53C221.26 28.05 221.73 26.88 222.43 26.02C223.42 24.84 225.09 24.26 227.46 24.26C229.57 24.26 231.17 24.56 232.26 25.15C233.35 25.75 233.89 26.84 233.89 28.41C233.89 29.70 233.18 30.64 231.75 31.25C230.95 31.61 229.63 31.90 227.78 32.13ZM228.30 16.10ZM248.84 24.61L254.18 24.61L254.18 48.20C254.18 50.59 254.74 52.36 255.87 53.51C257.60 55.31 260.84 56.13 265.57 55.97L270.32 55.79L270.32 48.30C269.99 48.33 269.65 48.35 269.31 48.36C268.97 48.37 268.65 48.38 268.35 48.38C266.31 48.38 265.09 48.18 264.69 47.79C264.29 47.41 264.09 46.43 264.09 44.86L264.09 24.61L270.32 24.61L270.32 17.47L264.09 17.47L264.09 6.79L254.18 6.79L254.18 17.47L248.84 17.47ZM287.05 12.55L287.05 3.30L276.89 3.30L276.89 12.55ZM276.89 17.12L276.89 55.44L287.05 55.44L287.05 17.12ZM320.70 45.25C319.12 47.33 316.87 48.38 313.95 48.38C311.02 48.38 308.76 47.33 307.18 45.25C305.60 43.16 304.80 40.20 304.80 36.35C304.80 32.51 305.60 29.55 307.18 27.47C308.76 25.40 311.02 24.36 313.95 24.36C316.87 24.36 319.12 25.40 320.70 27.47C322.27 29.55 323.05 32.51 323.05 36.35C323.05 40.20 322.27 43.16 320.70 45.25ZM328.71 50.78C331.95 46.79 333.56 41.98 333.56 36.35C333.56 30.82 331.95 26.03 328.71 21.97C325.48 17.92 320.57 15.89 313.98 15.89C307.39 15.89 302.48 17.92 299.25 21.97C296.02 26.03 294.40 30.82 294.40 36.35C294.40 41.98 296.02 46.79 299.25 50.78C302.48 54.78 307.39 56.78 313.98 56.78C320.57 56.78 325.48 54.78 328.71 50.78ZM313.98 16.10ZM371.69 19.32C369.17 17.24 365.93 16.21 361.97 16.21C358.80 16.21 356.19 16.98 354.13 18.53C352.98 19.39 351.76 20.81 350.47 22.78L350.47 17.19L340.80 17.19L340.80 55.44L350.79 55.44L350.79 34.70C350.79 32.33 351.12 30.39 351.77 28.86C353.04 25.98 355.37 24.54 358.77 24.54C361.54 24.54 363.41 25.52 364.39 27.49C364.93 28.57 365.20 30.12 365.20 32.13L365.20 55.44L375.47 55.44L375.47 29.64C375.47 24.83 374.21 21.39 371.69 19.32ZM358.28 16.10ZM425.85 36.81L425.85 40.54C425.78 43.89 424.83 46.20 423.02 47.46C421.20 48.73 419.21 49.36 417.06 49.36C415.70 49.36 414.54 48.98 413.60 48.22C412.65 47.46 412.17 46.22 412.17 44.51C412.17 42.59 412.95 41.17 414.49 40.25C415.41 39.71 416.92 39.26 419.03 38.88L421.28 38.46C422.40 38.25 423.29 38.02 423.93 37.78C424.58 37.53 425.21 37.21 425.85 36.81ZM419.77 32.13L416.36 32.55C412.49 33.05 409.56 33.87 407.57 35.02C403.93 37.13 402.12 40.54 402.12 45.25C402.12 48.88 403.25 51.69 405.51 53.67C407.77 55.65 410.64 56.64 414.11 56.64C416.82 56.64 419.26 56.02 421.42 54.77C423.22 53.72 424.82 52.44 426.20 50.94C426.27 51.81 426.36 52.58 426.48 53.26C426.60 53.94 426.81 54.67 427.11 55.44L438.01 55.44L438.01 53.96C437.36 53.66 436.86 53.27 436.54 52.80C436.21 52.34 436.01 51.45 435.94 50.13C435.89 48.40 435.87 46.92 435.87 45.70L435.87 28.13C435.87 23.51 434.24 20.37 430.98 18.70C427.72 17.04 424.00 16.21 419.80 16.21C413.36 16.21 408.81 17.89 406.16 21.27C404.50 23.43 403.56 26.18 403.35 29.53L413.02 29.53C413.25 28.05 413.72 26.88 414.42 26.02C415.41 24.84 417.08 24.26 419.45 24.26C421.56 24.26 423.16 24.56 424.25 25.15C425.34 25.75 425.88 26.84 425.88 28.41C425.88 29.70 425.17 30.64 423.74 31.25C422.94 31.61 421.62 31.90 419.77 32.13ZM420.29 16.10ZM452.57 43.21L442.41 43.21C442.41 47.14 443.84 50.38 446.71 52.93C449.58 55.47 454.03 56.74 460.05 56.74C465.96 56.74 470.33 55.54 473.15 53.14C475.97 50.74 477.39 47.64 477.39 43.84C477.39 40.96 476.40 38.55 474.43 36.63C472.44 34.73 469.45 33.32 465.47 32.38C459.49 31.07 456.01 30.14 455.03 29.60C454.04 29.09 453.55 28.25 453.55 27.11C453.55 26.19 454.01 25.39 454.94 24.71C455.87 24.04 457.42 23.70 459.60 23.70C462.25 23.70 464.12 24.37 465.22 25.73C465.81 26.48 466.17 27.50 466.31 28.79L476.33 28.79C475.89 24.11 474.16 20.81 471.15 18.90C468.13 16.99 464.24 16.03 459.46 16.03C454.42 16.03 450.51 17.30 447.73 19.85C444.96 22.39 443.57 25.43 443.57 28.97C443.57 31.97 444.46 34.27 446.24 35.86C448.02 37.48 451.08 38.82 455.41 39.90C461.44 41.33 464.92 42.34 465.86 42.93C466.79 43.51 467.26 44.37 467.26 45.49C467.26 46.66 466.68 47.54 465.52 48.13C464.36 48.71 462.80 49.01 460.83 49.01C457.48 49.01 455.18 48.34 453.94 47.00C453.23 46.25 452.78 44.99 452.57 43.21ZM460.23 16.10ZM492.61 43.21L482.45 43.21C482.45 47.14 483.88 50.38 486.76 52.93C489.63 55.47 494.07 56.74 500.10 56.74C506.00 56.74 510.37 55.54 513.19 53.14C516.02 50.74 517.43 47.64 517.43 43.84C517.43 40.96 516.45 38.55 514.48 36.63C512.48 34.73 509.50 33.32 505.51 32.38C499.54 31.07 496.05 30.14 495.07 29.60C494.09 29.09 493.59 28.25 493.59 27.11C493.59 26.19 494.06 25.39 494.98 24.71C495.91 24.04 497.46 23.70 499.64 23.70C502.29 23.70 504.16 24.37 505.27 25.73C505.85 26.48 506.21 27.50 506.36 28.79L516.38 28.79C515.93 24.11 514.20 20.81 511.19 18.90C508.18 16.99 504.28 16.03 499.50 16.03C494.46 16.03 490.55 17.30 487.78 19.85C485.00 22.39 483.61 25.43 483.61 28.97C483.61 31.97 484.50 34.27 486.28 35.86C488.06 37.48 491.12 38.82 495.46 39.90C501.48 41.33 504.96 42.34 505.90 42.93C506.84 43.51 507.30 44.37 507.30 45.49C507.30 46.66 506.72 47.54 505.56 48.13C504.40 48.71 502.84 49.01 500.87 49.01C497.52 49.01 495.22 48.34 493.98 47.00C493.28 46.25 492.82 44.99 492.61 43.21ZM500.27 16.10ZM535.15 12.55L535.15 3.30L524.99 3.30L524.99 12.55ZM524.99 17.12L524.99 55.44L535.15 55.44L535.15 17.12ZM552.66 43.21L542.50 43.21C542.50 47.14 543.93 50.38 546.80 52.93C549.67 55.47 554.12 56.74 560.14 56.74C566.05 56.74 570.42 55.54 573.24 53.14C576.06 50.74 577.48 47.64 577.48 43.84C577.48 40.96 576.49 38.55 574.52 36.63C572.53 34.73 569.54 33.32 565.56 32.38C559.58 31.07 556.10 30.14 555.12 29.60C554.13 29.09 553.64 28.25 553.64 27.11C553.64 26.19 554.10 25.39 555.03 24.71C555.96 24.04 557.51 23.70 559.69 23.70C562.34 23.70 564.21 24.37 565.31 25.73C565.90 26.48 566.26 27.50 566.40 28.79L576.42 28.79C575.98 24.11 574.25 20.81 571.24 18.90C568.22 16.99 564.33 16.03 559.55 16.03C554.51 16.03 550.60 17.30 547.82 19.85C545.04 22.39 543.66 25.43 543.66 28.97C543.66 31.97 544.55 34.27 546.33 35.86C548.11 37.48 551.17 38.82 555.50 39.90C561.53 41.33 565.01 42.34 565.95 42.93C566.88 43.51 567.35 44.37 567.35 45.49C567.35 46.66 566.77 47.54 565.61 48.13C564.45 48.71 562.89 49.01 560.92 49.01C557.57 49.01 555.27 48.34 554.03 47.00C553.32 46.25 552.87 44.99 552.66 43.21ZM560.32 16.10ZM580.96 24.61L586.30 24.61L586.30 48.20C586.30 50.59 586.86 52.36 587.99 53.51C589.72 55.31 592.96 56.13 597.69 55.97L602.44 55.79L602.44 48.30C602.11 48.33 601.78 48.35 601.44 48.36C601.10 48.37 600.77 48.38 600.47 48.38C598.43 48.38 597.21 48.18 596.81 47.79C596.41 47.41 596.21 46.43 596.21 44.86L596.21 24.61L602.44 24.61L602.44 17.47L596.21 17.47L596.21 6.79L586.30 6.79L586.30 17.47L580.96 17.47ZM630 36.81L630 40.54C629.93 43.89 628.99 46.20 627.17 47.46C625.35 48.73 623.37 49.36 621.21 49.36C619.85 49.36 618.70 48.98 617.75 48.22C616.80 47.46 616.32 46.22 616.32 44.51C616.32 42.59 617.10 41.17 618.64 40.25C619.56 39.71 621.07 39.26 623.18 38.88L625.43 38.46C626.55 38.25 627.44 38.02 628.08 37.78C628.73 37.53 629.37 37.21 630 36.81ZM623.92 32.13L620.51 32.55C616.64 33.05 613.71 33.87 611.72 35.02C608.09 37.13 606.27 40.54 606.27 45.25C606.27 48.88 607.40 51.69 609.66 53.67C611.92 55.65 614.79 56.64 618.26 56.64C620.98 56.64 623.41 56.02 625.57 54.77C627.37 53.72 628.97 52.44 630.35 50.94C630.42 51.81 630.52 52.58 630.63 53.26C630.75 53.94 630.96 54.67 631.27 55.44L642.16 55.44L642.16 53.96C641.51 53.66 641.02 53.27 640.69 52.80C640.36 52.34 640.16 51.45 640.09 50.13C640.04 48.40 640.02 46.92 640.02 45.70L640.02 28.13C640.02 23.51 638.39 20.37 635.13 18.70C631.87 17.04 628.15 16.21 623.95 16.21C617.51 16.21 612.96 17.89 610.31 21.27C608.65 23.43 607.71 26.18 607.50 29.53L617.17 29.53C617.40 28.05 617.87 26.88 618.57 26.02C619.56 24.84 621.23 24.26 623.60 24.26C625.71 24.26 627.31 24.56 628.40 25.15C629.49 25.75 630.04 26.84 630.04 28.41C630.04 29.70 629.32 30.64 627.89 31.25C627.09 31.61 625.77 31.90 623.92 32.13ZM624.45 16.10ZM679.87 19.32C677.35 17.24 674.11 16.21 670.15 16.21C666.98 16.21 664.37 16.98 662.31 18.53C661.16 19.39 659.94 20.81 658.65 22.78L658.65 17.19L648.98 17.19L648.98 55.44L658.97 55.44L658.97 34.70C658.97 32.33 659.30 30.39 659.95 28.86C661.22 25.98 663.55 24.54 666.95 24.54C669.71 24.54 671.59 25.52 672.57 27.49C673.11 28.57 673.38 30.12 673.38 32.13L673.38 55.44L683.65 55.44L683.65 29.64C683.65 24.83 682.39 21.39 679.87 19.32ZM666.46 16.10ZM688.96 24.61L694.30 24.61L694.30 48.20C694.30 50.59 694.86 52.36 695.99 53.51C697.72 55.31 700.96 56.13 705.69 55.97L710.44 55.79L710.44 48.30C710.11 48.33 709.78 48.35 709.44 48.36C709.10 48.37 708.77 48.38 708.47 48.38C706.43 48.38 705.21 48.18 704.81 47.79C704.41 47.41 704.21 46.43 704.21 44.86L704.21 24.61L710.44 24.61L710.44 17.47L704.21 17.47L704.21 6.79L694.30 6.79L694.30 17.47L688.96 17.47ZM752.73 3.15C752.21 3.11 751.64 3.09 751.01 3.09C745.45 3.09 741.95 4.24 740.50 6.54C739.11 8.09 738.42 10.91 738.42 15.01L738.42 17.47L732.94 17.47L732.94 24.54L738.53 24.54L738.53 55.44L748.51 55.44L748.51 24.54L755.09 24.54L755.09 17.47L748.51 17.47L748.51 14.24C748.51 13.49 748.76 12.80 749.27 12.18C749.77 11.56 750.69 11.27 752.01 11.30C753.33 11.34 754.28 11.39 754.84 11.46L754.84 3.30C753.95 3.23 753.25 3.18 752.73 3.15ZM784.79 45.25C783.22 47.33 780.97 48.38 778.04 48.38C775.11 48.38 772.86 47.33 771.28 45.25C769.69 43.16 768.90 40.20 768.90 36.35C768.90 32.51 769.69 29.55 771.28 27.47C772.86 25.40 775.11 24.36 778.04 24.36C780.97 24.36 783.22 25.40 784.79 27.47C786.36 29.55 787.15 32.51 787.15 36.35C787.15 40.20 786.36 43.16 784.79 45.25ZM792.81 50.78C796.04 46.79 797.66 41.98 797.66 36.35C797.66 30.82 796.04 26.03 792.81 21.97C789.57 17.92 784.66 15.89 778.08 15.89C771.49 15.89 766.58 17.92 763.35 21.97C760.11 26.03 758.50 30.82 758.50 36.35C758.50 41.98 760.11 46.79 763.35 50.78C766.58 54.78 771.49 56.78 778.08 56.78C784.66 56.78 789.57 54.78 792.81 50.78ZM778.08 16.10ZM826.12 16.22C825.99 16.21 825.83 16.21 825.64 16.21C822.64 16.21 820.21 16.99 818.33 18.56C817.18 19.50 815.84 21.25 814.29 23.80L814.29 17.12L804.73 17.12L804.73 55.44L814.82 55.44L814.82 37.13C814.82 34.05 815.20 31.78 815.98 30.30C817.36 27.68 820.07 26.37 824.10 26.37C824.40 26.37 824.80 26.38 825.29 26.40C825.79 26.43 826.35 26.47 826.98 26.54L826.98 16.28C826.54 16.25 826.25 16.24 826.12 16.22ZM853.66 3.62L853.66 55.44L890.16 55.44L890.16 46.13L864.49 46.13L864.49 3.62ZM907.14 12.55L907.14 3.30L896.98 3.30L896.98 12.55ZM896.98 17.12L896.98 55.44L907.14 55.44L907.14 17.12ZM947.79 19.32C945.28 17.24 942.04 16.21 938.07 16.21C934.91 16.21 932.30 16.98 930.23 18.53C929.09 19.39 927.87 20.81 926.58 22.78L926.58 17.19L916.91 17.19L916.91 55.44L926.89 55.44L926.89 34.70C926.89 32.33 927.22 30.39 927.88 28.86C929.14 25.98 931.48 24.54 934.88 24.54C937.64 24.54 939.52 25.52 940.50 27.49C941.04 28.57 941.31 30.12 941.31 32.13L941.31 55.44L951.57 55.44L951.57 29.64C951.57 24.83 950.31 21.39 947.79 19.32ZM934.38 16.10ZM970.80 17.12L960.54 17.12L960.54 40.22C960.54 44.60 961.09 47.92 962.19 50.17C964.16 54.25 967.98 56.29 973.65 56.29C975.62 56.29 977.34 56.03 978.80 55.51C980.27 55.00 981.79 54.04 983.36 52.63C983.87 52.18 984.32 51.67 984.69 51.08C985.07 50.50 985.30 50.14 985.39 50.03L985.39 55.44L995.13 55.44L995.13 17.12L984.97 17.12L984.97 37.97C984.97 40.43 984.64 42.41 983.99 43.91C982.72 46.68 980.38 48.06 976.96 48.06C974.29 48.06 972.49 47.09 971.58 45.14C971.06 44.04 970.80 42.40 970.80 40.22ZM977.84 16.10ZM1001.04 55.44L1013.20 55.44L1019.85 43.95L1026.46 55.44L1038.94 55.44L1025.86 35.86L1038.45 17.19L1026.53 17.19L1020.27 28.30L1013.87 17.19L1001.60 17.19L1014.12 36.04ZM1088.79 45.25C1087.22 47.33 1084.97 48.38 1082.04 48.38C1079.11 48.38 1076.85 47.33 1075.27 45.25C1073.69 43.16 1072.90 40.20 1072.90 36.35C1072.90 32.51 1073.69 29.55 1075.27 27.47C1076.85 25.40 1079.11 24.36 1082.04 24.36C1084.97 24.36 1087.22 25.40 1088.79 27.47C1090.36 29.55 1091.14 32.51 1091.14 36.35C1091.14 40.20 1090.36 43.16 1088.79 45.25ZM1096.80 50.78C1100.04 46.79 1101.66 41.98 1101.66 36.35C1101.66 30.82 1100.04 26.03 1096.80 21.97C1093.57 17.92 1088.66 15.89 1082.07 15.89C1075.49 15.89 1070.58 17.92 1067.34 21.97C1064.11 26.03 1062.49 30.82 1062.49 36.35C1062.49 41.98 1064.11 46.79 1067.34 50.78C1070.58 54.78 1075.49 56.78 1082.07 56.78C1088.66 56.78 1093.57 54.78 1096.80 50.78ZM1082.07 16.10ZM1139.78 19.32C1137.26 17.24 1134.02 16.21 1130.06 16.21C1126.90 16.21 1124.29 16.98 1122.22 18.53C1121.07 19.39 1119.86 20.81 1118.57 22.78L1118.57 17.19L1108.90 17.19L1108.90 55.44L1118.88 55.44L1118.88 34.70C1118.88 32.33 1119.21 30.39 1119.87 28.86C1121.13 25.98 1123.46 24.54 1126.86 24.54C1129.63 24.54 1131.50 25.52 1132.49 27.49C1133.03 28.57 1133.30 30.12 1133.30 32.13L1133.30 55.44L1143.56 55.44L1143.56 29.64C1143.56 24.83 1142.30 21.39 1139.78 19.32ZM1126.37 16.10ZM1183.54 55.44L1183.54 3.62L1172.78 3.62L1172.78 55.44ZM1178.16 2.60ZM1204.14 12.62L1215.53 12.62C1218.04 12.62 1220.10 12.89 1221.71 13.43C1223.59 14.20 1224.53 15.80 1224.53 18.21C1224.53 20.39 1223.82 21.91 1222.40 22.76C1220.98 23.62 1219.14 24.05 1216.86 24.05L1204.14 24.05ZM1204.14 32.63L1217.04 32.63C1219.29 32.65 1221.04 32.94 1222.28 33.50C1224.50 34.51 1225.62 36.36 1225.62 39.06C1225.62 42.25 1224.47 44.40 1222.17 45.53C1220.91 46.14 1219.14 46.44 1216.86 46.44L1204.14 46.44ZM1232.47 9.14C1229.82 5.55 1225.32 3.71 1218.97 3.62L1193.80 3.62L1193.80 55.44L1217.29 55.44C1219.93 55.44 1222.39 55.21 1224.65 54.74C1226.91 54.27 1228.88 53.40 1230.54 52.14C1232.02 51.04 1233.25 49.68 1234.23 48.06C1235.78 45.62 1236.55 42.87 1236.55 39.80C1236.55 36.82 1235.88 34.29 1234.53 32.20C1233.18 30.12 1231.18 28.59 1228.54 27.63C1230.27 26.74 1231.58 25.76 1232.47 24.68C1234.07 22.76 1234.86 20.21 1234.86 17.05C1234.86 13.98 1234.07 11.34 1232.47 9.14ZM1279.97 3.62L1270.62 44.37L1261.20 3.62L1245.45 3.62L1245.45 55.44L1255.54 55.44L1255.54 20.39C1255.54 19.38 1255.52 17.97 1255.50 16.15C1255.48 14.34 1255.46 12.94 1255.46 11.95L1265.20 55.44L1275.71 55.44L1285.52 11.95C1285.52 12.94 1285.51 14.34 1285.49 16.15C1285.46 17.97 1285.45 19.38 1285.45 20.39L1285.45 55.44L1295.54 55.44L1295.54 3.62ZM1321.95 46.30L1321.95 55.44L1362.27 55.44L1362.27 46.30L1335.09 46.30L1362.20 12.30L1362.20 3.62L1322.61 3.62L1322.61 12.80L1348.70 12.80ZM1342.41 3.62Z" transform="translate(33.448 210.71) scale(.2429)"/></svg>