<?xml version="1.0" encoding="UTF-8" standalone="no"?>
<!-- Created with Inkscape (http://www.inkscape.org/) -->

<svg
   xmlns:dc="http://purl.org/dc/elements/1.1/"
   xmlns:cc="http://creativecommons.org/ns#"
   xmlns:rdf="http://www.w3.org/1999/02/22-rdf-syntax-ns#"
   xmlns:svg="http://www.w3.org/2000/svg"
   xmlns="http://www.w3.org/2000/svg"
   xmlns:sodipodi="http://sodipodi.sourceforge.net/DTD/sodipodi-0.dtd"
   xmlns:inkscape="http://www.inkscape.org/namespaces/inkscape"
   version="1.1"
   id="svg10645"
   xml:space="preserve"
   width="270.67334"
   height="136.87199"
   viewBox="0 0 270.67334 136.87199"
   sodipodi:docname="lucenesolr.svg"
   inkscape:version="0.92.3 (2405546, 2018-03-11)"><metadata
     id="metadata10651"><rdf:RDF><cc:Work
         rdf:about=""><dc:format>image/svg+xml</dc:format><dc:type
           rdf:resource="http://purl.org/dc/dcmitype/StillImage" /><dc:title></dc:title></cc:Work></rdf:RDF></metadata><defs
     id="defs10649"><clipPath
       clipPathUnits="userSpaceOnUse"
       id="clipPath10661"><path
         d="M 0,102.654 H 203.005 V 0 H 0 Z"
         id="path10659"
         inkscape:connector-curvature="0" /></clipPath></defs><sodipodi:namedview
     pagecolor="#ffffff"
     bordercolor="#666666"
     borderopacity="1"
     objecttolerance="10"
     gridtolerance="10"
     guidetolerance="10"
     inkscape:pageopacity="0"
     inkscape:pageshadow="2"
     inkscape:window-width="3726"
     inkscape:window-height="2049"
     id="namedview10647"
     showgrid="false"
     inkscape:zoom="3.4484776"
     inkscape:cx="-37.203238"
     inkscape:cy="68.435997"
     inkscape:window-x="114"
     inkscape:window-y="55"
     inkscape:window-maximized="1"
     inkscape:current-layer="g10657" /><g
     id="g10653"
     inkscape:groupmode="layer"
     inkscape:label="lucenesolr"
     transform="matrix(1.3333333,0,0,-1.3333333,0,136.872)"><g
       id="g10655"><g
         id="g10657"
         clip-path="url(#clipPath10661)"><g
           id="g10663"
           transform="translate(40.7606,31.7631)"><path
             d="m 0,0 c -2.345,1.248 -4.995,2.127 -7.875,2.613 -2.829,0.476 -5.707,0.717 -8.554,0.717 -2.327,0 -4.681,0.201 -6.998,0.597 -2.256,0.384 -4.299,1.092 -6.076,2.104 -1.729,0.984 -3.159,2.361 -4.252,4.095 -1.078,1.706 -1.624,3.968 -1.624,6.697 0.052,2.41 0.612,4.472 1.666,6.129 1.068,1.684 2.464,3.052 4.147,4.067 1.726,1.041 3.718,1.806 5.921,2.274 3.751,0.796 7.713,0.945 11.749,0.382 1.575,-0.222 3.133,-0.615 4.63,-1.168 1.47,-0.545 2.852,-1.292 4.106,-2.217 1.236,-0.915 2.328,-2.063 3.246,-3.411 L 0.6,22.124 4.388,23.718 3.584,24.853 c -1.031,1.456 -2.173,2.767 -3.395,3.899 -1.247,1.151 -2.712,2.13 -4.356,2.906 -1.623,0.765 -3.48,1.354 -5.522,1.751 -2.021,0.392 -4.377,0.59 -7.003,0.59 -2.519,0 -5.12,-0.288 -7.73,-0.858 -2.649,-0.58 -5.106,-1.538 -7.301,-2.849 -2.242,-1.34 -4.09,-3.125 -5.493,-5.306 -1.425,-2.219 -2.149,-4.957 -2.149,-8.139 0,-3.34 0.671,-6.183 1.993,-8.449 1.314,-2.252 3.076,-4.077 5.237,-5.423 2.116,-1.32 4.585,-2.269 7.338,-2.82 2.69,-0.538 5.505,-0.811 8.368,-0.811 2.276,0 4.686,-0.172 7.164,-0.515 2.411,-0.333 4.655,-1.005 6.669,-1.997 1.962,-0.969 3.597,-2.316 4.857,-4.005 1.219,-1.635 1.838,-3.843 1.838,-6.562 0,-2.442 -0.596,-4.524 -1.769,-6.193 -1.212,-1.724 -2.786,-3.147 -4.679,-4.229 -1.934,-1.105 -4.123,-1.919 -6.51,-2.418 -2.425,-0.508 -4.825,-0.765 -7.132,-0.765 -3.873,0 -7.7,0.74 -11.374,2.2 -3.658,1.451 -6.902,3.632 -9.64,6.482 l -0.735,0.765 -3.021,-2.618 0.848,-0.848 c 2.703,-2.705 6.06,-5.06 9.975,-7.002 3.963,-1.967 8.656,-2.964 13.947,-2.964 2.516,0 5.186,0.288 7.938,0.855 2.79,0.577 5.408,1.562 7.78,2.931 2.41,1.39 4.415,3.209 5.962,5.406 1.589,2.257 2.395,5.081 2.395,8.398 0,3.361 -0.755,6.207 -2.245,8.459 C 4.368,-3.056 2.404,-1.28 0,0"
             style="fill:#241f2b;fill-opacity:1;fill-rule:nonzero;stroke:none"
             id="path10665"
             inkscape:connector-curvature="0" /></g><g
           id="g10667"
           transform="translate(76.3898,3.9853)"><path
             d="m 0,0 c -2.732,0 -5.23,0.564 -7.426,1.676 -2.225,1.125 -4.189,2.657 -5.839,4.556 -1.659,1.907 -2.977,4.137 -3.917,6.629 -0.947,2.503 -1.484,5.127 -1.593,7.754 0,2.429 0.45,4.911 1.336,7.378 0.885,2.459 2.174,4.702 3.833,6.666 1.654,1.957 3.667,3.578 5.984,4.82 2.278,1.22 4.842,1.839 7.622,1.839 2.614,0 5.083,-0.579 7.338,-1.719 2.286,-1.157 4.297,-2.707 5.978,-4.607 1.685,-1.908 3.031,-4.139 4.002,-6.632 0.967,-2.49 1.457,-5.096 1.457,-7.745 0,-2.426 -0.45,-4.909 -1.335,-7.377 C 16.553,10.774 15.264,8.532 13.606,6.57 11.955,4.617 9.945,3.012 7.631,1.8 5.352,0.605 2.785,0 0,0 m 16.577,37.377 c -1.982,2.316 -4.391,4.232 -7.162,5.694 -2.809,1.482 -5.977,2.232 -9.415,2.232 -3.132,0 -6.124,-0.671 -8.893,-1.993 -2.749,-1.314 -5.18,-3.126 -7.225,-5.384 -2.037,-2.249 -3.67,-4.898 -4.854,-7.873 -1.186,-2.979 -1.788,-6.155 -1.788,-9.438 0,-3.103 0.555,-6.14 1.65,-9.027 1.093,-2.885 2.649,-5.503 4.625,-7.784 1.985,-2.291 4.399,-4.164 7.175,-5.566 2.797,-1.414 5.923,-2.162 9.29,-2.223 h 0.021 0.021 c 3.186,0.061 6.203,0.778 8.967,2.128 2.744,1.34 5.172,3.166 7.217,5.424 2.037,2.25 3.656,4.87 4.81,7.787 1.157,2.924 1.744,6.04 1.744,9.261 0,2.917 -0.539,5.89 -1.6,8.835 -1.063,2.945 -2.605,5.612 -4.583,7.927"
             style="fill:#241f2b;fill-opacity:1;fill-rule:nonzero;stroke:none"
             id="path10669"
             inkscape:connector-curvature="0" /></g><g
           id="g10671"
           transform="translate(119.7832,5.0906)"><path
             d="m 0,0 c -0.67,-0.167 -1.26,-0.294 -1.752,-0.376 -0.518,-0.086 -1.08,-0.173 -1.685,-0.259 -0.557,-0.079 -1.108,-0.12 -1.638,-0.12 -1.337,0 -2.321,0.443 -3.01,1.355 -0.761,1.004 -1.131,2.001 -1.131,3.049 v 58.337 h -3.985 V 3.649 c 0,-2.189 0.691,-4.126 2.055,-5.754 1.413,-1.691 3.426,-2.547 5.983,-2.547 0.802,0 1.598,0.047 2.367,0.139 0.742,0.089 1.409,0.178 2.006,0.267 0.61,0.092 1.316,0.23 2.1,0.41 l 1.351,0.312 -1.774,3.746 z"
             style="fill:#241f2b;fill-opacity:1;fill-rule:nonzero;stroke:none"
             id="path10673"
             inkscape:connector-curvature="0" /></g><g
           id="g10675"
           transform="translate(136.9779,45.2734)"><path
             d="m 0,0 c -2.073,-1.457 -3.904,-3.307 -5.471,-5.522 v 8.836 h -3.985 v -47.711 h 3.985 v 29.704 c 0.552,1.946 1.312,3.771 2.261,5.426 0.957,1.667 2.148,3.135 3.538,4.362 1.39,1.226 3.008,2.221 4.811,2.958 1.798,0.736 3.827,1.166 6.031,1.277 l 1.06,0.053 V 3.314 H 11.114 C 6.867,3.314 3.128,2.199 0,0"
             style="fill:#241f2b;fill-opacity:1;fill-rule:nonzero;stroke:none"
             id="path10677"
             inkscape:connector-curvature="0" /></g><g
           id="g10679"
           transform="translate(193.9115,92.0414)"><path
             d="M 0,0 -33,-35.677 8.473,-16.543 C 7.246,-10.213 4.242,-4.521 0,0"
             style="fill:#da3522;fill-opacity:1;fill-rule:nonzero;stroke:none"
             id="path10681"
             inkscape:connector-curvature="0" /></g><g
           id="g10683"
           transform="translate(169.4268,102.6536)"><path
             d="M 0,0 C -4.572,0 -8.928,-0.917 -12.9,-2.572 L -17.328,-39.886 4.799,-0.347 C 3.231,-0.122 1.63,0 0,0"
             style="fill:#da3522;fill-opacity:1;fill-rule:nonzero;stroke:none"
             id="path10685"
             inkscape:connector-curvature="0" /></g><g
           id="g10687"
           transform="translate(202.7133,73.4428)"><path
             d="m 0,0 -39.298,-21.992 36.87,4.375 c 1.748,4.065 2.72,8.543 2.72,13.249 C 0.292,-2.886 0.186,-1.431 0,0"
             style="fill:#da3522;fill-opacity:1;fill-rule:nonzero;stroke:none"
             id="path10689"
             inkscape:connector-curvature="0" /></g><g
           id="g10691"
           transform="translate(188.2247,41.2478)"><path
             d="M 0,0 C 4.391,2.972 8.037,6.958 10.612,11.619 L -23.947,4.756 Z"
             style="fill:#da3522;fill-opacity:1;fill-rule:nonzero;stroke:none"
             id="path10693"
             inkscape:connector-curvature="0" /></g><g
           id="g10695"
           transform="translate(176.2492,101.9586)"><path
             d="M 0,0 -19.237,-41.695 16.448,-8.689 C 11.973,-4.384 6.313,-1.303 0,0"
             style="fill:#da3522;fill-opacity:1;fill-rule:nonzero;stroke:none"
             id="path10697"
             inkscape:connector-curvature="0" /></g><g
           id="g10699"
           transform="translate(172.2334,35.622)"><path
             d="M 0,0 C 3.718,0.308 7.264,1.217 10.54,2.638 L -8.818,4.935 Z"
             style="fill:#da3522;fill-opacity:1;fill-rule:nonzero;stroke:none"
             id="path10701"
             inkscape:connector-curvature="0" /></g><g
           id="g10703"
           transform="translate(138.8186,82.8789)"><path
             d="m 0,0 c -1.51,-3.343 -2.489,-6.974 -2.829,-10.792 l 5.215,-9.32 z"
             style="fill:#da3522;fill-opacity:1;fill-rule:nonzero;stroke:none"
             id="path10705"
             inkscape:connector-curvature="0" /></g><g
           id="g10707"
           transform="translate(153.617,98.7011)"><path
             d="m 0,0 c -4.738,-2.534 -8.794,-6.17 -11.832,-10.567 l 4.867,-24.504 z"
             style="fill:#da3522;fill-opacity:1;fill-rule:nonzero;stroke:none"
             id="path10709"
             inkscape:connector-curvature="0" /></g></g></g></g></svg>