<?xml version="1.0" encoding="UTF-8" standalone="no"?>
<svg
   role="img"
   viewBox="-4.53 -4.53 239.436 51.803429"
   version="1.1"
   id="svg4"
   width="239.436"
   height="51.803429"
   xmlns:xlink="http://www.w3.org/1999/xlink"
   xmlns="http://www.w3.org/2000/svg"
   xmlns:svg="http://www.w3.org/2000/svg">
  <defs
     id="defs4" />
  <title
     id="title1">Broadcom Corporation logo</title>
  <path
     d="m 232.506,4.2980009 c -1.06,0 -1.93,-0.86 -1.93,-1.92 0,-1.06 0.87,-1.93000003 1.93,-1.93000003 1.06,0 1.93,0.87000003 1.93,1.93000003 0,1.06 -0.87,1.92 -1.93,1.92 m 0,-4.32000003 c -1.32,0 -2.4,1.08000003 -2.4,2.40000003 0,1.32 1.08,2.4 2.4,2.4 1.32,0 2.4,-1.08 2.4,-2.4 0,-1.32 -1.08,-2.40000003 -2.4,-2.40000003"
     id="path1" />
  <path
     d="m 232.666,2.2780009 -0.51,0.01 -0.01,-0.62 h 0.51 c 0.19,-0.01 0.34,0.11 0.34,0.3 0.01,0.19 -0.14,0.31 -0.33,0.31 m 0.83,-0.32 c -0.01,-0.42 -0.3,-0.72 -0.77,-0.72 l -1.07,0.02 0.03,2.26 h 0.49 l -0.01,-0.81 h 0.35 l 0.46,0.8 0.55,-0.01 -0.52,-0.86 c 0.24,-0.06 0.49,-0.28 0.49,-0.68 M 47.0201,18.388501 h -5.999 V 4.5545009 h 5.835 c 1.574,0 2.557,1.016 2.557,2.393 0,1.377 -0.983,2.36 -2.557,2.36 H 40.186 v 4.0000001 h 6.8341 c 1.836,0 2.819,1.18 2.819,2.556 0,1.574 -1.049,2.525 -2.819,2.525 m 3.376,-7.245 c 2.066,-0.426 3.771,-2.2620001 3.771,-5.0150001 0,-2.918 -2.131,-5.57300003 -6.295,-5.57300003 H 36.3661 V 22.420501 h 11.867 c 4.163,0 6.359,-2.623 6.359,-5.901 0,-2.754 -1.868,-5.015 -4.196,-5.376 m 17.8225,-0.5902 H 63.186 v 4.098 h 3.5576 l 4.294,7.769 h 5.343 l -4.917,-8.327 c 2.361,-0.557 4.786,-2.622 4.786,-6.4900001 m 0,0 c 0,-4.065 -2.786,-7.04800003 -7.343,-7.04800003 H 58.6786 V 22.420301 h 4.655 V 4.6533009 h 4.885 c 1.869,0 3.278,1.114 3.278,2.95 0,1.836 -1.409,2.9500001 -3.278,2.9500001 m 43.4206,4.0652 3.409,-9.4080001 3.41,9.4080001 z m 0.492,-14.06300013 -8.458,21.86500013 h 5.31 l 1.377,-3.704 h 9.376 l 1.344,3.704 h 5.311 L 117.9662,0.55550087 Z M 139.0351,18.322601 h -3.967 V 4.6526009 h 3.967 c 4.491,0 6.851,2.983 6.851,6.8520001 0,3.704 -2.524,6.818 -6.851,6.818 m 0,-17.76700013 h -8.622 V 22.420601 h 8.622 c 6.851,0 11.604,-4.327 11.604,-10.916 0,-6.5890001 -4.753,-10.94900013 -11.604,-10.94900013 m 82.1269,-0.0045 -5.734,9.27000003 -5.734,-9.27000003 h -5.146 V 22.420101 h 4.656 V 8.1271009 l 5.012,7.6220001 c 0.574,0.871 1.851,0.871 2.424,0 l 5.013,-7.6220001 V 22.420101 h 4.656 V 0.55110087 Z"
     id="path2" />
  <path
     id="a"
     d="m 91.0113,18.552101 c -3.871,0 -7.008,-3.138 -7.008,-7.008 0,-3.8710001 3.137,-7.0090001 7.008,-7.0090001 3.87,0 7.008,3.138 7.008,7.0090001 0,3.87 -3.138,7.008 -7.008,7.008 m 0,-18.53600013 c -6.367,0 -11.528,5.16100003 -11.528,11.52800013 0,6.366 5.161,11.527 11.528,11.527 6.366,0 11.528,-5.161 11.528,-11.527 0,-6.3670001 -5.162,-11.52800013 -11.528,-11.52800013" />
  <path
     d="m 171.5895,14.934901 c -1.195,2.156 -3.492,3.617 -6.132,3.617 -3.87,0 -7.008,-3.138 -7.008,-7.008 0,-3.8710001 3.138,-7.0080001 7.008,-7.0080001 2.618,0 4.897,1.438 6.1,3.565 l 3.27,-3.269 c -2.092,-2.915 -5.508,-4.81600003 -9.37,-4.81600003 -6.367,0 -11.527,5.16100003 -11.527,11.52800013 0,6.366 5.16,11.528 11.527,11.528 3.883,0 7.316,-1.922 9.404,-4.865 z"
     id="path3" />
  <use
     transform="translate(98.718)"
     xlink:href="#a"
     id="use3" />
  <ellipse
     cx="11.706"
     cy="11.705001"
     fill="#cc092f"
     rx="16.236"
     ry="16.235001"
     id="ellipse3" />
  <path
     fill="#ffffff"
     d="m 26.0113,16.091201 c -1.857,-0.74 -3.557,-0.492 -5.261,0.541 0,0 -0.621,0.379 -0.807,0.496 -0.794,0.498 -1.543,0.97 -2.263,0.97 -0.687,0 -1.363,-0.184 -1.649,-1.513 -0.446,-2.073 -1.534,-7.1670001 -2.009,-9.6900001 -0.279,-1.483 -0.432,-2.282 -0.591,-2.825 -0.28,-0.954 -0.792,-1.473 -1.519,-1.556 0,0 -0.114,-0.016 -0.207,-0.016 -0.092,0 -0.218,0.018 -0.218,0.018 -0.72,0.086 -1.229,0.605 -1.5070004,1.554 -0.159,0.543 -0.312,1.342 -0.591,2.825 -0.475,2.523 -1.563,7.6170001 -2.009,9.6900001 -0.286,1.329 -0.962,1.513 -1.649,1.513 -0.72,0 -1.469,-0.472 -2.263,-0.97 -0.186,-0.117 -0.808,-0.496 -0.808,-0.496 -1.703,-1.033 -3.404,-1.281 -5.26,-0.541 -0.401,0.16 -0.79596,0.33918 -1.17196,0.52018 0.257,0.806 0.57693,1.59925 0.94993,2.34425 0.411,-0.202 0.84203,-0.40243 1.28203,-0.53243 0.634,-0.187 1.284,-0.197 1.914,0.014 0.612,0.205 1.157,0.568 1.7,0.909 1.023,0.643 2.182,1.372 3.657,1.372 2.186,0 3.72,-1.305 4.21,-3.581 0.3800004,-1.764 1.2220004,-5.702 1.7630004,-8.4180001 0,0 1.386,6.6540001 1.765,8.4180001 0.49,2.276 2.025,3.581 4.211,3.581 1.475,0 2.634,-0.729 3.657,-1.372 0.543,-0.341 1.088,-0.704 1.7,-0.909 0.629,-0.211 1.28,-0.201 1.914,-0.014 0.44,0.13 0.87039,0.33065 1.28139,0.53265 0.374,-0.745 0.69309,-1.53862 0.95009,-2.34462 -0.376,-0.181 -0.77048,-0.36003 -1.17148,-0.52003"
     id="path4" />
  <path
     d="m 33.546196,45.208 h -0.966797 v -6.264648 l -2.021484,4.262695 H 29.981743 L 27.974907,38.943352 V 45.208 h -0.90332 v -7.270508 h 1.318359 l 1.938477,4.047852 1.875,-4.047852 h 1.342773 z m 6.118164,0 h -0.913086 v -0.581055 q -0.12207,0.08301 -0.332031,0.234375 -0.205078,0.146485 -0.400391,0.234375 -0.229492,0.112305 -0.527344,0.185547 -0.297851,0.07813 -0.698242,0.07813 -0.737304,0 -1.25,-0.488281 -0.512695,-0.488281 -0.512695,-1.245117 0,-0.620117 0.263672,-1.000977 0.268555,-0.385742 0.761719,-0.605468 0.498046,-0.219727 1.196289,-0.297852 0.698242,-0.07813 1.499023,-0.117187 v -0.141602 q 0,-0.3125 -0.112305,-0.517578 -0.107421,-0.205078 -0.3125,-0.322266 -0.195312,-0.112304 -0.46875,-0.151367 -0.273437,-0.03906 -0.571289,-0.03906 -0.361328,0 -0.805664,0.09766 -0.444336,0.09277 -0.917968,0.273437 h -0.04883 v -0.932617 q 0.268555,-0.07324 0.776368,-0.161133 0.507812,-0.08789 1.000976,-0.08789 0.576172,0 1.000977,0.09766 0.429687,0.09277 0.742187,0.322266 0.307617,0.224609 0.46875,0.581054 0.161133,0.356446 0.161133,0.883789 z m -0.913086,-1.342773 v -1.518555 q -0.419922,0.02441 -0.991211,0.07324 -0.566406,0.04883 -0.898437,0.141602 -0.395508,0.112304 -0.639649,0.351562 -0.24414,0.234375 -0.24414,0.649414 0,0.46875 0.283203,0.708008 0.283203,0.234375 0.864258,0.234375 0.483398,0 0.883789,-0.185547 0.40039,-0.190429 0.742187,-0.454101 z m 3.666992,-5.024414 H 41.38311 v -0.952149 h 1.035156 z M 42.359673,45.208 h -0.917969 v -5.454101 h 0.917969 z m 6.376953,0 h -0.917969 v -3.105469 q 0,-0.375976 -0.04395,-0.703125 -0.04395,-0.332031 -0.161133,-0.517578 -0.122071,-0.205078 -0.351563,-0.302734 -0.229492,-0.102539 -0.595703,-0.102539 -0.375976,0 -0.786133,0.185547 -0.410156,0.185547 -0.786132,0.473633 V 45.208 h -0.917969 v -5.454101 h 0.917969 v 0.605468 q 0.429687,-0.356445 0.888671,-0.55664 0.458985,-0.200196 0.942383,-0.200196 0.883789,0 1.347656,0.532227 0.463868,0.532227 0.463868,1.533203 z m 4.702148,-6.708984 h -0.04883 q -0.151367,-0.04395 -0.395508,-0.08789 -0.24414,-0.04883 -0.429687,-0.04883 -0.590821,0 -0.859375,0.263672 -0.263672,0.258789 -0.263672,0.942383 v 0.185547 h 1.655273 v 0.771484 H 51.471001 V 45.208 h -0.917969 v -4.682617 h -0.620117 v -0.771484 h 0.620117 v -0.180664 q 0,-0.97168 0.483398,-1.489258 0.483399,-0.522461 1.396485,-0.522461 0.307617,0 0.551758,0.0293 0.249023,0.0293 0.454101,0.06836 z m 3.984375,2.255859 h -0.04883 q -0.205078,-0.04883 -0.400391,-0.06836 -0.190429,-0.02441 -0.454101,-0.02441 -0.424805,0 -0.820313,0.190429 -0.395508,0.185547 -0.761718,0.483399 V 45.208 h -0.917969 v -5.454101 h 0.917969 v 0.805664 q 0.546875,-0.439453 0.961914,-0.620118 0.419921,-0.185546 0.854492,-0.185546 0.239258,0 0.346679,0.01465 0.107422,0.0098 0.322266,0.04395 z M 62.349907,45.208 h -0.913086 v -0.581055 q -0.12207,0.08301 -0.332031,0.234375 -0.205078,0.146485 -0.400391,0.234375 -0.229492,0.112305 -0.527344,0.185547 -0.297851,0.07813 -0.698242,0.07813 -0.737305,0 -1.25,-0.488281 -0.512695,-0.488281 -0.512695,-1.245117 0,-0.620117 0.263672,-1.000977 0.268554,-0.385742 0.761718,-0.605468 0.498047,-0.219727 1.19629,-0.297852 0.698242,-0.07813 1.499023,-0.117187 v -0.141602 q 0,-0.3125 -0.112305,-0.517578 -0.107422,-0.205078 -0.3125,-0.322266 -0.195312,-0.112304 -0.46875,-0.151367 -0.273437,-0.03906 -0.571289,-0.03906 -0.361328,0 -0.805664,0.09766 -0.444336,0.09277 -0.917969,0.273437 h -0.04883 v -0.932617 q 0.268555,-0.07324 0.776367,-0.161133 0.507813,-0.08789 1.000977,-0.08789 0.576172,0 1.000977,0.09766 0.429687,0.09277 0.742187,0.322266 0.307617,0.224609 0.46875,0.581054 0.161133,0.356446 0.161133,0.883789 z m -0.913086,-1.342773 v -1.518555 q -0.419922,0.02441 -0.991211,0.07324 -0.566406,0.04883 -0.898437,0.141602 -0.395508,0.112304 -0.639649,0.351562 -0.244141,0.234375 -0.244141,0.649414 0,0.46875 0.283204,0.708008 0.283203,0.234375 0.864257,0.234375 0.483399,0 0.883789,-0.185547 0.400391,-0.190429 0.742188,-0.454101 z M 72.076469,45.208 h -0.917968 v -3.105469 q 0,-0.351562 -0.03418,-0.678711 -0.0293,-0.327148 -0.131836,-0.52246 -0.112305,-0.209961 -0.322266,-0.317383 -0.209961,-0.107422 -0.605468,-0.107422 -0.385743,0 -0.771485,0.195312 -0.385742,0.19043 -0.771484,0.488282 0.01465,0.112304 0.02441,0.263671 0.0098,0.146485 0.0098,0.292969 V 45.208 h -0.917969 v -3.105469 q 0,-0.361328 -0.03418,-0.683593 -0.0293,-0.327149 -0.131836,-0.522461 -0.112304,-0.209961 -0.322265,-0.3125 -0.209961,-0.107422 -0.605469,-0.107422 -0.375977,0 -0.756836,0.185547 -0.375977,0.185547 -0.751953,0.473633 V 45.208 h -0.917969 v -5.454101 h 0.917969 v 0.605468 q 0.429687,-0.356445 0.854492,-0.55664 0.429687,-0.200196 0.913086,-0.200196 0.556641,0 0.942383,0.234375 0.390625,0.234375 0.581054,0.649414 0.556641,-0.46875 1.015625,-0.673828 0.458985,-0.209961 0.981446,-0.209961 0.898437,0 1.323242,0.546875 0.429687,0.541993 0.429687,1.518555 z m 6.333008,-2.631836 h -4.018554 q 0,0.50293 0.151367,0.878906 0.151367,0.371094 0.415039,0.610352 0.253906,0.234375 0.600586,0.351563 0.351562,0.117187 0.771484,0.117187 0.556641,0 1.118164,-0.219727 0.566406,-0.224609 0.805664,-0.439453 h 0.04883 v 1.000977 q -0.463867,0.195312 -0.947265,0.327148 -0.483399,0.131836 -1.015625,0.131836 -1.357422,0 -2.119141,-0.732422 -0.761719,-0.737304 -0.761719,-2.089843 0,-1.337891 0.727539,-2.124024 0.732422,-0.786133 1.923829,-0.786133 1.103515,0 1.699218,0.644532 0.600586,0.644531 0.600586,1.831054 z m -0.893554,-0.703125 q -0.0049,-0.722656 -0.366211,-1.118164 -0.356446,-0.395508 -1.088868,-0.395508 -0.737304,0 -1.176757,0.434571 -0.434571,0.43457 -0.493164,1.079101 z m 11.157226,1.259766 q 0,0.424805 -0.200195,0.839844 -0.195313,0.415039 -0.551758,0.703125 -0.390625,0.3125 -0.913086,0.488281 -0.517578,0.175781 -1.25,0.175781 -0.786133,0 -1.416016,-0.146484 -0.625,-0.146485 -1.274414,-0.434571 v -1.210937 h 0.06836 q 0.551758,0.458984 1.274414,0.708008 0.722656,0.249023 1.357422,0.249023 0.898437,0 1.396484,-0.336914 0.50293,-0.336914 0.50293,-0.898437 0,-0.483399 -0.239258,-0.712891 -0.234375,-0.229492 -0.717774,-0.356445 -0.36621,-0.09766 -0.795898,-0.161133 -0.424805,-0.06348 -0.90332,-0.161133 -0.966797,-0.205078 -1.435547,-0.698242 -0.463867,-0.498047 -0.463867,-1.293945 0,-0.913086 0.771484,-1.494141 0.771484,-0.585938 1.958008,-0.585938 0.766601,0 1.40625,0.146485 0.639648,0.146484 1.132812,0.361328 v 1.142578 h -0.06836 q -0.415039,-0.351562 -1.09375,-0.581055 -0.673828,-0.234375 -1.381836,-0.234375 -0.776367,0 -1.25,0.322266 -0.46875,0.322266 -0.46875,0.830078 0,0.454102 0.234375,0.712891 0.234375,0.258789 0.825195,0.395508 0.3125,0.06836 0.888672,0.166015 0.576172,0.09766 0.976563,0.200195 0.810547,0.214844 1.220703,0.649415 0.410156,0.43457 0.410156,1.21582 z m 6.044922,-0.556641 h -4.018555 q 0,0.50293 0.151367,0.878906 0.151368,0.371094 0.41504,0.610352 0.253906,0.234375 0.600585,0.351563 0.351563,0.117187 0.771485,0.117187 0.55664,0 1.118164,-0.219727 0.566406,-0.224609 0.805664,-0.439453 h 0.04883 v 1.000977 q -0.463867,0.195312 -0.947266,0.327148 -0.483398,0.131836 -1.015625,0.131836 -1.357421,0 -2.11914,-0.732422 -0.761719,-0.737304 -0.761719,-2.089843 0,-1.337891 0.727539,-2.124024 0.732422,-0.786133 1.923828,-0.786133 1.103516,0 1.699219,0.644532 0.600586,0.644531 0.600586,1.831054 z m -0.893555,-0.703125 q -0.0049,-0.722656 -0.366211,-1.118164 -0.356445,-0.395508 -1.088867,-0.395508 -0.737305,0 -1.176758,0.434571 -0.43457,0.43457 -0.493164,1.079101 z m 6.318364,2.993164 q -0.458989,0.219727 -0.874028,0.341797 -0.410156,0.12207 -0.874023,0.12207 -0.590821,0 -1.083985,-0.170898 -0.493164,-0.175781 -0.844726,-0.527344 -0.356445,-0.351562 -0.551758,-0.888672 -0.195312,-0.537109 -0.195312,-1.254882 0,-1.337891 0.732421,-2.09961 0.737305,-0.761719 1.94336,-0.761719 0.46875,0 0.917969,0.131836 0.454101,0.131836 0.830082,0.322266 v 1.020508 h -0.0488 q -0.419924,-0.327149 -0.869143,-0.50293 -0.444336,-0.175781 -0.869141,-0.175781 -0.78125,0 -1.235351,0.527344 -0.449219,0.522461 -0.449219,1.538086 0,0.986328 0.439453,1.518554 0.444336,0.527344 1.245117,0.527344 0.278321,0 0.566407,-0.07324 0.288085,-0.07324 0.517578,-0.19043 0.200195,-0.102539 0.375976,-0.214844 0.175781,-0.117187 0.278323,-0.200195 h 0.0488 z m 5.69824,0.341797 h -0.91797 v -0.605469 q -0.46387,0.366211 -0.88867,0.561524 -0.42481,0.195312 -0.9375,0.195312 -0.85938,0 -1.33789,-0.522461 -0.47852,-0.527343 -0.47852,-1.542968 v -3.540039 h 0.91797 v 3.105468 q 0,0.415039 0.0391,0.712891 0.0391,0.292969 0.16602,0.50293 0.13183,0.214843 0.34179,0.3125 0.20997,0.09766 0.61036,0.09766 0.35644,0 0.77636,-0.185547 0.42481,-0.185547 0.79102,-0.473633 v -4.072265 h 0.91797 z m 5.20996,-4.453125 h -0.0488 q -0.20508,-0.04883 -0.40039,-0.06836 -0.19043,-0.02441 -0.4541,-0.02441 -0.42481,0 -0.82031,0.190429 -0.39551,0.185547 -0.76172,0.483399 V 45.208 h -0.91797 v -5.454101 h 0.91797 v 0.805664 q 0.54687,-0.439453 0.96191,-0.620118 0.41992,-0.185546 0.85449,-0.185546 0.23926,0 0.34668,0.01465 0.10743,0.0098 0.32227,0.04395 z m 1.85058,-1.914062 h -1.03515 v -0.952149 h 1.03515 z m -0.0586,6.367187 h -0.91797 v -5.454101 h 0.91797 z m 4.64844,-0.04883 q -0.25879,0.06836 -0.56641,0.112305 -0.30273,0.04395 -0.54199,0.04395 -0.83496,0 -1.26953,-0.449219 -0.43457,-0.449218 -0.43457,-1.440429 v -2.900391 h -0.62012 v -0.771484 h 0.62012 v -1.567383 h 0.91797 v 1.567383 h 1.89453 v 0.771484 h -1.89453 v 2.485352 q 0,0.429687 0.0195,0.673828 0.0195,0.239257 0.13672,0.449218 0.10742,0.195313 0.29297,0.288086 0.19043,0.08789 0.57617,0.08789 0.22461,0 0.46875,-0.06348 0.24414,-0.06836 0.35156,-0.112304 h 0.0488 z m 5.77637,-5.405273 -3.1836,7.46582 h -0.98144 l 1.01562,-2.275391 -2.17285,-5.190429 h 0.99609 l 1.67481,4.042968 1.68945,-4.042968 z m 7.35351,5.454101 h -2.87109 v -0.742187 h 0.95215 V 38.67968 h -0.95215 v -0.742188 h 2.87109 v 0.742188 h -0.95215 v 5.786133 h 0.95215 z m 6.13281,0 h -0.91796 v -3.105469 q 0,-0.375976 -0.0439,-0.703125 -0.0439,-0.332031 -0.16113,-0.517578 -0.12207,-0.205078 -0.35157,-0.302734 -0.22949,-0.102539 -0.5957,-0.102539 -0.37598,0 -0.78613,0.185547 -0.41016,0.185547 -0.78613,0.473633 V 45.208 h -0.91797 v -5.454101 h 0.91797 v 0.605468 q 0.42968,-0.356445 0.88867,-0.55664 0.45898,-0.200196 0.94238,-0.200196 0.88379,0 1.34766,0.532227 0.46386,0.532227 0.46386,1.533203 z m 5.66407,-1.572265 q 0,0.74707 -0.62012,1.225585 -0.61524,0.478516 -1.68457,0.478516 -0.60547,0 -1.11328,-0.141601 -0.50293,-0.146485 -0.84473,-0.317383 v -1.030274 h 0.0488 q 0.43457,0.327149 0.9668,0.522461 0.53222,0.19043 1.0205,0.19043 0.60547,0 0.94727,-0.195313 0.3418,-0.195312 0.3418,-0.615234 0,-0.322266 -0.18555,-0.488281 -0.18555,-0.166016 -0.71289,-0.283203 -0.19531,-0.04395 -0.5127,-0.102539 -0.3125,-0.05859 -0.57129,-0.126954 -0.71777,-0.190429 -1.0205,-0.55664 -0.29785,-0.371094 -0.29785,-0.908203 0,-0.336914 0.13671,-0.634766 0.14161,-0.297851 0.42481,-0.532226 0.27344,-0.229493 0.69336,-0.361329 0.4248,-0.136718 0.94726,-0.136718 0.48828,0 0.98633,0.12207 0.50293,0.117187 0.83496,0.288086 v 0.981445 h -0.0488 q -0.35156,-0.258789 -0.85449,-0.43457 -0.50293,-0.180664 -0.98633,-0.180664 -0.50293,0 -0.84961,0.195312 -0.34667,0.19043 -0.34667,0.571289 0,0.336914 0.20996,0.507813 0.20507,0.170898 0.66406,0.27832 0.2539,0.05859 0.5664,0.117188 0.31739,0.05859 0.52735,0.107422 0.63965,0.146484 0.98633,0.502929 0.34668,0.361328 0.34668,0.957032 z m 2.2998,-4.794922 h -1.03516 v -0.952149 h 1.03516 z m -0.0586,6.367187 h -0.91797 v -5.454101 h 0.91797 z m 6.24023,-0.620117 q 0,1.386719 -0.62988,2.036133 -0.62988,0.649414 -1.93848,0.649414 -0.43457,0 -0.84961,-0.06348 -0.41015,-0.05859 -0.81054,-0.170898 v -0.9375 h 0.0488 q 0.22461,0.08789 0.71289,0.214844 0.48829,0.131836 0.97657,0.131836 0.46875,0 0.77636,-0.112305 0.30762,-0.112305 0.47852,-0.3125 0.1709,-0.19043 0.24414,-0.458985 0.0732,-0.268554 0.0732,-0.600585 v -0.498047 q -0.41504,0.332031 -0.7959,0.498047 -0.37597,0.161132 -0.96191,0.161132 -0.97656,0 -1.55273,-0.703125 -0.57129,-0.708007 -0.57129,-1.992187 0,-0.703125 0.19531,-1.210938 0.20019,-0.512695 0.54199,-0.883789 0.31738,-0.346679 0.77149,-0.537109 0.4541,-0.195313 0.90332,-0.195313 0.47363,0 0.79101,0.09766 0.32227,0.09277 0.67871,0.288086 l 0.0586,-0.234375 h 0.85937 z m -0.91797,-0.878906 v -2.973633 q -0.36621,-0.166016 -0.68359,-0.234375 -0.3125,-0.07324 -0.625,-0.07324 -0.75684,0 -1.19141,0.507812 -0.43457,0.507813 -0.43457,1.47461 0,0.917968 0.32227,1.391601 0.32226,0.473633 1.06933,0.473633 0.40039,0 0.80079,-0.151367 0.40527,-0.15625 0.74218,-0.415039 z M 157.2669,45.208 h -0.91797 v -3.105469 q 0,-0.375976 -0.0439,-0.703125 -0.0439,-0.332031 -0.16114,-0.517578 -0.12207,-0.205078 -0.35156,-0.302734 -0.22949,-0.102539 -0.5957,-0.102539 -0.37598,0 -0.78614,0.185547 -0.41015,0.185547 -0.78613,0.473633 V 45.208 h -0.91797 v -7.597656 h 0.91797 v 2.749023 q 0.42969,-0.356445 0.88867,-0.55664 0.45899,-0.200196 0.94239,-0.200196 0.88378,0 1.34765,0.532227 0.46387,0.532227 0.46387,1.533203 z m 4.59961,-0.04883 q -0.25879,0.06836 -0.56641,0.112305 -0.30273,0.04395 -0.54199,0.04395 -0.83496,0 -1.26953,-0.449219 -0.43457,-0.449218 -0.43457,-1.440429 v -2.900391 h -0.62012 v -0.771484 h 0.62012 v -1.567383 h 0.91797 v 1.567383 h 1.89453 v 0.771484 h -1.89453 v 2.485352 q 0,0.429687 0.0195,0.673828 0.0195,0.239257 0.13672,0.449218 0.10742,0.195313 0.29297,0.288086 0.19043,0.08789 0.57617,0.08789 0.22461,0 0.46875,-0.06348 0.24414,-0.06836 0.35156,-0.112304 h 0.0488 z m 5.00488,-1.523437 q 0,0.74707 -0.62012,1.225585 -0.61523,0.478516 -1.68457,0.478516 -0.60546,0 -1.11328,-0.141601 -0.50293,-0.146485 -0.84472,-0.317383 v -1.030274 h 0.0488 q 0.43457,0.327149 0.9668,0.522461 0.53223,0.19043 1.02051,0.19043 0.60547,0 0.94726,-0.195313 0.3418,-0.195312 0.3418,-0.615234 0,-0.322266 -0.18555,-0.488281 -0.18554,-0.166016 -0.71289,-0.283203 -0.19531,-0.04395 -0.51269,-0.102539 -0.3125,-0.05859 -0.57129,-0.126954 -0.71777,-0.190429 -1.02051,-0.55664 -0.29785,-0.371094 -0.29785,-0.908203 0,-0.336914 0.13672,-0.634766 0.1416,-0.297851 0.4248,-0.532226 0.27344,-0.229493 0.69336,-0.361329 0.42481,-0.136718 0.94727,-0.136718 0.48828,0 0.98633,0.12207 0.50293,0.117187 0.83496,0.288086 v 0.981445 h -0.0488 q -0.35156,-0.258789 -0.85449,-0.43457 -0.50293,-0.180664 -0.98633,-0.180664 -0.50293,0 -0.84961,0.195312 -0.34668,0.19043 -0.34668,0.571289 0,0.336914 0.20996,0.507813 0.20508,0.170898 0.66406,0.27832 0.25391,0.05859 0.56641,0.117188 0.31738,0.05859 0.52734,0.107422 0.63965,0.146484 0.98633,0.502929 0.34668,0.361328 0.34668,0.957032 z m 9.6582,-3.500977 q 0,0.483398 -0.17089,0.898437 -0.16602,0.410157 -0.46875,0.712891 -0.37598,0.375977 -0.88868,0.566406 -0.51269,0.185547 -1.29394,0.185547 h -0.9668 V 45.208 h -0.96679 v -7.270508 h 1.97265 q 0.6543,0 1.1084,0.112305 0.4541,0.107422 0.80566,0.341797 0.41504,0.27832 0.63965,0.693359 0.22949,0.415039 0.22949,1.049805 z m -1.00585,0.02441 q 0,-0.375977 -0.13184,-0.654297 -0.13184,-0.27832 -0.40039,-0.454101 -0.23438,-0.151368 -0.53711,-0.214844 -0.29785,-0.06836 -0.75684,-0.06836 h -0.95703 v 2.905274 h 0.81543 q 0.58594,0 0.95215,-0.102539 0.36621,-0.107422 0.5957,-0.336914 0.2295,-0.234375 0.32227,-0.493164 0.0977,-0.258789 0.0977,-0.581055 z M 178.6585,45.208 h -0.91797 v -7.597656 h 0.91797 z m 6.05469,0 h -0.91309 v -0.581055 q -0.12207,0.08301 -0.33203,0.234375 -0.20508,0.146485 -0.40039,0.234375 -0.22949,0.112305 -0.52734,0.185547 -0.29785,0.07813 -0.69825,0.07813 -0.7373,0 -1.25,-0.488281 -0.51269,-0.488281 -0.51269,-1.245117 0,-0.620117 0.26367,-1.000977 0.26856,-0.385742 0.76172,-0.605468 0.49805,-0.219727 1.19629,-0.297852 0.69824,-0.07813 1.49902,-0.117187 v -0.141602 q 0,-0.3125 -0.1123,-0.517578 -0.10742,-0.205078 -0.3125,-0.322266 -0.19531,-0.112304 -0.46875,-0.151367 -0.27344,-0.03906 -0.57129,-0.03906 -0.36133,0 -0.80567,0.09766 -0.44433,0.09277 -0.91796,0.273437 h -0.0488 v -0.932617 q 0.26855,-0.07324 0.77636,-0.161133 0.50782,-0.08789 1.00098,-0.08789 0.57617,0 1.00098,0.09766 0.42969,0.09277 0.74219,0.322266 0.30761,0.224609 0.46875,0.581054 0.16113,0.356446 0.16113,0.883789 z m -0.91309,-1.342773 v -1.518555 q -0.41992,0.02441 -0.99121,0.07324 -0.5664,0.04883 -0.89844,0.141602 -0.3955,0.112304 -0.63964,0.351562 -0.24415,0.234375 -0.24415,0.649414 0,0.46875 0.28321,0.708008 0.2832,0.234375 0.86426,0.234375 0.48339,0 0.88378,-0.185547 0.4004,-0.190429 0.74219,-0.454101 z m 5.5127,1.293945 q -0.25879,0.06836 -0.56641,0.112305 -0.30273,0.04395 -0.54199,0.04395 -0.83496,0 -1.26953,-0.449219 -0.43457,-0.449218 -0.43457,-1.440429 v -2.900391 h -0.62012 v -0.771484 h 0.62012 v -1.567383 h 0.91797 v 1.567383 h 1.89453 v 0.771484 h -1.89453 v 2.485352 q 0,0.429687 0.0195,0.673828 0.0195,0.239257 0.13672,0.449218 0.10742,0.195313 0.29297,0.288086 0.19042,0.08789 0.57617,0.08789 0.22461,0 0.46875,-0.06348 0.24414,-0.06836 0.35156,-0.112304 h 0.0488 z m 4.04297,-6.660156 h -0.0488 q -0.15137,-0.04395 -0.39551,-0.08789 -0.24414,-0.04883 -0.42969,-0.04883 -0.59082,0 -0.85937,0.263672 -0.26367,0.258789 -0.26367,0.942383 v 0.185547 h 1.65527 v 0.771484 h -1.62598 V 45.208 h -0.91797 v -4.682617 h -0.62011 v -0.771484 h 0.62011 v -0.180664 q 0,-0.97168 0.4834,-1.489258 0.4834,-0.522461 1.39649,-0.522461 0.30761,0 0.55175,0.0293 0.24903,0.0293 0.45411,0.06836 z m 5.22949,3.984375 q 0,1.333008 -0.6836,2.104492 -0.68359,0.771484 -1.83105,0.771484 -1.15723,0 -1.84082,-0.771484 -0.67871,-0.771484 -0.67871,-2.104492 0,-1.333008 0.67871,-2.104492 0.68359,-0.776368 1.84082,-0.776368 1.14746,0 1.83105,0.776368 0.6836,0.771484 0.6836,2.104492 z m -0.94727,0 q 0,-1.059571 -0.41504,-1.572266 -0.41504,-0.517578 -1.15234,-0.517578 -0.74707,0 -1.16211,0.517578 -0.41016,0.512695 -0.41016,1.572266 0,1.02539 0.41504,1.557617 0.41504,0.527344 1.15723,0.527344 0.73242,0 1.14746,-0.522461 0.41992,-0.527344 0.41992,-1.5625 z m 5.77149,-1.728516 h -0.0488 q -0.20508,-0.04883 -0.40039,-0.06836 -0.19043,-0.02441 -0.4541,-0.02441 -0.42481,0 -0.82032,0.190429 -0.3955,0.185547 -0.76171,0.483399 V 45.208 h -0.91797 v -5.454101 h 0.91797 v 0.805664 q 0.54687,-0.439453 0.96191,-0.620118 0.41992,-0.185546 0.85449,-0.185546 0.23926,0 0.34668,0.01465 0.10742,0.0098 0.32227,0.04395 z m 8.82324,4.453125 h -0.91797 v -3.105469 q 0,-0.351562 -0.0342,-0.678711 -0.0293,-0.327148 -0.13183,-0.52246 -0.11231,-0.209961 -0.32227,-0.317383 -0.20996,-0.107422 -0.60547,-0.107422 -0.38574,0 -0.77148,0.195312 -0.38575,0.19043 -0.77149,0.488282 0.0146,0.112304 0.0244,0.263671 0.01,0.146485 0.01,0.292969 V 45.208 h -0.91797 v -3.105469 q 0,-0.361328 -0.0342,-0.683593 -0.0293,-0.327149 -0.13183,-0.522461 -0.11231,-0.209961 -0.32227,-0.3125 -0.20996,-0.107422 -0.60547,-0.107422 -0.37597,0 -0.75683,0.185547 -0.37598,0.185547 -0.75196,0.473633 V 45.208 h -0.91796 v -5.454101 h 0.91796 v 0.605468 q 0.42969,-0.356445 0.8545,-0.55664 0.42968,-0.200196 0.91308,-0.200196 0.55664,0 0.94238,0.234375 0.39063,0.234375 0.58106,0.649414 0.55664,-0.46875 1.01562,-0.673828 0.45899,-0.209961 0.98145,-0.209961 0.89844,0 1.32324,0.546875 0.42969,0.541993 0.42969,1.518555 z"
     id="text4"
     style="font-size:10px;text-anchor:middle"
     aria-label="Mainframe Security Insights Platform" />
</svg>
