<?xml version="1.0" encoding="UTF-8" standalone="no"?>
<svg
   role="img"
   viewBox="-4.53 -4.53 248.82 41.82"
   version="1.1"
   id="svg19"
   xmlns:xlink="http://www.w3.org/1999/xlink"
   xmlns="http://www.w3.org/2000/svg"
   xmlns:svg="http://www.w3.org/2000/svg">
  <defs
     id="defs23" />
  <title
     id="title2">Broadcom Corporation logo</title>
  <path
     d="M237.32 9.09c-1.06 0-1.93-.86-1.93-1.92s.87-1.93 1.93-1.93 1.93.87 1.93 1.93-.87 1.92-1.93 1.92m0-4.32c-1.32 0-2.4 1.08-2.4 2.4 0 1.32 1.08 2.4 2.4 2.4 1.32 0 2.4-1.08 2.4-2.4 0-1.32-1.08-2.4-2.4-2.4"
     id="path4" />
  <path
     d="M237.48 7.07l-.51.01-.01-.62h.51c.19-.01.34.11.34.3.01.19-.14.31-.33.31m.83-.32c-.01-.42-.3-.72-.77-.72l-1.07.02.03 2.26h.49l-.01-.81h.35l.46.8.55-.01-.52-.86c.24-.06.49-.28.49-.68M51.8341 23.1805h-5.999V9.3465h5.835c1.574 0 2.557 1.016 2.557 2.393 0 1.377-.983 2.36-2.557 2.36H45v4h6.8341c1.836 0 2.819 1.18 2.819 2.556 0 1.574-1.049 2.525-2.819 2.525m3.376-7.245c2.066-.426 3.771-2.262 3.771-5.015 0-2.918-2.131-5.573-6.295-5.573h-11.506v21.865h11.867c4.163 0 6.359-2.623 6.359-5.901 0-2.754-1.868-5.015-4.196-5.376m17.8225-.5902H68v4.098h3.5576l4.294 7.769h5.343l-4.917-8.327c2.361-.557 4.786-2.622 4.786-6.49m0 0c0-4.065-2.786-7.048-7.343-7.048h-10.228v21.865h4.655V9.4453h4.885c1.869 0 3.278 1.114 3.278 2.95s-1.409 2.95-3.278 2.95m43.4206 4.0652l3.409-9.408 3.41 9.408zm.492-14.063l-8.458 21.865h5.31l1.377-3.704h9.376l1.344 3.704h5.311l-8.425-21.865zm26.9039 17.7671h-3.967v-13.67h3.967c4.491 0 6.851 2.983 6.851 6.852 0 3.704-2.524 6.818-6.851 6.818m0-17.767h-8.622v21.865h8.622c6.851 0 11.604-4.327 11.604-10.916s-4.753-10.949-11.604-10.949m82.1269-.0045l-5.734 9.27-5.734-9.27h-5.146v21.869h4.656v-14.293l5.012 7.622c.574.871 1.851.871 2.424 0l5.013-7.622v14.293h4.656V5.3431z"
     id="path6" />
  <path
     id="a"
     d="M95.8253 23.3441c-3.871 0-7.008-3.138-7.008-7.008 0-3.871 3.137-7.009 7.008-7.009 3.87 0 7.008 3.138 7.008 7.009 0 3.87-3.138 7.008-7.008 7.008m0-18.536c-6.367 0-11.528 5.161-11.528 11.528 0 6.366 5.161 11.527 11.528 11.527 6.366 0 11.528-5.161 11.528-11.527 0-6.367-5.162-11.528-11.528-11.528" />
  <path
     d="M176.4035 19.7269c-1.195 2.156-3.492 3.617-6.132 3.617-3.87 0-7.008-3.138-7.008-7.008 0-3.871 3.138-7.008 7.008-7.008 2.618 0 4.897 1.438 6.1 3.565l3.27-3.269c-2.092-2.915-5.508-4.816-9.37-4.816-6.367 0-11.527 5.161-11.527 11.528 0 6.366 5.16 11.528 11.527 11.528 3.883 0 7.316-1.922 9.404-4.865z"
     id="path9" />
  <use
     transform="translate(98.718)"
     xlink:href="#a"
     id="use11" />
  <ellipse
     cx="16.52"
     cy="16.497"
     fill="#cc092f"
     rx="16.236"
     ry="16.235"
     id="ellipse13" />
  <path
     fill="#fff"
     d="M30.8253 20.8832c-1.857-.74-3.557-.492-5.261.541 0 0-.621.379-.807.496-.794.498-1.543.97-2.263.97-.687 0-1.363-.184-1.649-1.513-.446-2.073-1.534-7.167-2.009-9.69-.279-1.483-.432-2.282-.591-2.825-.28-.954-.792-1.473-1.519-1.556 0 0-.114-.016-.207-.016-.092 0-.218.018-.218.018-.72.086-1.229.605-1.507 1.554-.159.543-.312 1.342-.591 2.825-.475 2.523-1.563 7.617-2.009 9.69-.286 1.329-.962 1.513-1.649 1.513-.72 0-1.469-.472-2.263-.97-.186-.117-.808-.496-.808-.496-1.703-1.033-3.404-1.281-5.26-.541-.401.16-.79596.33918-1.17196.52018.257.806.57693 1.59925.94993 2.34425.411-.202.84203-.40243 1.28203-.53243.634-.187 1.284-.197 1.914.014.612.205 1.157.568 1.7.909 1.023.643 2.182 1.372 3.657 1.372 2.186 0 3.72-1.305 4.21-3.581.38-1.764 1.222-5.702 1.763-8.418 0 0 1.386 6.654 1.765 8.418.49 2.276 2.025 3.581 4.211 3.581 1.475 0 2.634-.729 3.657-1.372.543-.341 1.088-.704 1.7-.909.629-.211 1.28-.201 1.914-.014.44.13.87039.33065 1.28139.53265.374-.745.69309-1.53862.95009-2.34462-.376-.181-.77048-.36003-1.17148-.52003"
     id="path15" />
  <g
     aria-label="MAT Detect"
     id="text17"
     style="font-size:10px;text-anchor:middle">
    <path
       d="m 103.32846,50 h -0.9668 v -6.264648 l -2.02148,4.262695 H 99.764008 L 97.757172,43.735352 V 50 h -0.903321 v -7.270508 h 1.31836 l 1.938479,4.047852 1.875,-4.047852 h 1.34277 z"
       id="path25" />
    <path
       d="m 111.01401,50 h -1.03028 l -0.71289,-2.026367 h -3.14453 L 105.41342,50 h -0.98144 l 2.64648,-7.270508 h 1.28906 z m -2.04102,-2.856445 -1.27441,-3.569336 -1.2793,3.569336 z"
       id="path27" />
    <path
       d="m 116.71713,43.588867 h -2.59765 V 50 h -0.9668 v -6.411133 h -2.59766 v -0.859375 h 6.16211 z"
       id="path29" />
    <path
       d="m 127.3519,46.37207 q 0,0.991211 -0.43457,1.796875 -0.42969,0.805664 -1.14746,1.25 -0.49805,0.307617 -1.11328,0.444336 Q 124.04623,50 123.04526,50 h -1.83594 v -7.270508 h 1.81641 q 1.06445,0 1.68945,0.15625 0.62988,0.151367 1.06445,0.419922 0.74219,0.463867 1.15723,1.235352 0.41504,0.771484 0.41504,1.831054 z m -1.01074,-0.01465 q 0,-0.854492 -0.29786,-1.44043 -0.29785,-0.585937 -0.88867,-0.922851 -0.42968,-0.244141 -0.91308,-0.336914 -0.4834,-0.09766 -1.15723,-0.09766 h -0.9082 v 5.610352 h 0.9082 q 0.69824,0 1.21582,-0.102539 0.52246,-0.102539 0.95703,-0.38086 0.54199,-0.346679 0.81055,-0.913086 0.27344,-0.566406 0.27344,-1.416015 z"
       id="path31" />
    <path
       d="m 133.40659,47.368164 h -4.01856 q 0,0.50293 0.15137,0.878906 0.15137,0.371094 0.41504,0.610352 0.2539,0.234375 0.60058,0.351562 0.35157,0.117188 0.77149,0.117188 0.55664,0 1.11816,-0.219727 0.56641,-0.224609 0.80567,-0.439453 h 0.0488 v 1.000977 q -0.46386,0.195312 -0.94726,0.327148 -0.4834,0.131836 -1.01563,0.131836 -1.35742,0 -2.11914,-0.732422 -0.76172,-0.737304 -0.76172,-2.089844 0,-1.33789 0.72754,-2.124023 0.73242,-0.786133 1.92383,-0.786133 1.10352,0 1.69922,0.644531 0.60059,0.644532 0.60059,1.831055 z m -0.89356,-0.703125 q -0.005,-0.722656 -0.36621,-1.118164 -0.35645,-0.395508 -1.08887,-0.395508 -0.7373,0 -1.17675,0.43457 -0.43458,0.434571 -0.49317,1.079102 z"
       id="path33" />
    <path
       d="m 137.63022,49.951172 q -0.25879,0.06836 -0.56641,0.112305 -0.30273,0.04395 -0.54199,0.04395 -0.83496,0 -1.26953,-0.449219 -0.43457,-0.449219 -0.43457,-1.44043 v -2.90039 h -0.62012 v -0.771485 h 0.62012 v -1.567382 h 0.91797 v 1.567382 h 1.89453 v 0.771485 h -1.89453 v 2.485351 q 0,0.429688 0.0195,0.673828 0.0195,0.239258 0.13672,0.449219 0.10742,0.195313 0.29297,0.288086 0.19043,0.08789 0.57617,0.08789 0.22461,0 0.46875,-0.06348 0.24414,-0.06836 0.35156,-0.112304 h 0.0488 z"
       id="path35" />
    <path
       d="m 143.30405,47.368164 h -4.01856 q 0,0.50293 0.15137,0.878906 0.15137,0.371094 0.41504,0.610352 0.2539,0.234375 0.60058,0.351562 0.35157,0.117188 0.77149,0.117188 0.55664,0 1.11816,-0.219727 0.56641,-0.224609 0.80567,-0.439453 h 0.0488 v 1.000977 q -0.46386,0.195312 -0.94726,0.327148 -0.4834,0.131836 -1.01563,0.131836 -1.35742,0 -2.11914,-0.732422 -0.76172,-0.737304 -0.76172,-2.089844 0,-1.33789 0.72754,-2.124023 0.73243,-0.786133 1.92383,-0.786133 1.10352,0 1.69922,0.644531 0.60059,0.644532 0.60059,1.831055 z m -0.89356,-0.703125 q -0.005,-0.722656 -0.36621,-1.118164 -0.35644,-0.395508 -1.08887,-0.395508 -0.7373,0 -1.17675,0.43457 -0.43457,0.434571 -0.49317,1.079102 z"
       id="path37" />
    <path
       d="M 148.72885,49.658203 Q 148.26987,49.87793 147.85483,50 q -0.41016,0.12207 -0.87403,0.12207 -0.59082,0 -1.08398,-0.170898 -0.49316,-0.175781 -0.84473,-0.527344 -0.35644,-0.351562 -0.55175,-0.888672 -0.19532,-0.537109 -0.19532,-1.254883 0,-1.33789 0.73243,-2.099609 0.7373,-0.761719 1.94335,-0.761719 0.46875,0 0.91797,0.131836 0.4541,0.131836 0.83008,0.322266 v 1.020508 h -0.0488 q -0.41992,-0.327149 -0.86914,-0.50293 -0.44433,-0.175781 -0.86914,-0.175781 -0.78125,0 -1.23535,0.527343 -0.44922,0.522461 -0.44922,1.538086 0,0.986329 0.43945,1.518555 0.44434,0.527344 1.24512,0.527344 0.27832,0 0.56641,-0.07324 0.28808,-0.07324 0.51758,-0.19043 0.20019,-0.102539 0.37597,-0.214844 0.17578,-0.117187 0.27832,-0.200195 h 0.0488 z"
       id="path39" />
    <path
       d="m 152.73764,49.951172 q -0.25879,0.06836 -0.56641,0.112305 -0.30273,0.04395 -0.54199,0.04395 -0.83496,0 -1.26953,-0.449219 -0.43457,-0.449219 -0.43457,-1.44043 v -2.90039 h -0.62012 v -0.771485 h 0.62012 v -1.567382 h 0.91797 v 1.567382 h 1.89453 v 0.771485 h -1.89453 v 2.485351 q 0,0.429688 0.0195,0.673828 0.0195,0.239258 0.13672,0.449219 0.10742,0.195313 0.29297,0.288086 0.19043,0.08789 0.57617,0.08789 0.22461,0 0.46875,-0.06348 0.24414,-0.06836 0.35156,-0.112304 h 0.0488 z"
       id="path41" />
  </g>
</svg>
