<svg xmlns="http://www.w3.org/2000/svg" role="img" viewBox="-5.81 -5.81 264.88 302.38"><title>Memcached</title><defs><radialGradient id="c" cx="41.406%" cy="42.708%" fx="41.406%" fy="42.708%"><stop offset="0%" stop-color="#DB7C7C"/><stop offset="100%" stop-color="#C83737"/></radialGradient><radialGradient id="d" cx="44.271%" cy="42.708%" fx="44.271%" fy="42.708%"><stop offset="0%" stop-color="#DB7C7C"/><stop offset="100%" stop-color="#C83737"/></radialGradient><linearGradient id="a" x1="50%" x2="50%" y1="100%" y2="0%"><stop offset="0%" stop-color="#574C4A"/><stop offset="100%" stop-color="#80716D"/></linearGradient><linearGradient id="b" x1="88.778%" x2="30.149%" y1="98.342%" y2="-8.68%"><stop offset="0%" stop-color="#268D83"/><stop offset="100%" stop-color="#2EA19E"/></linearGradient></defs><path fill="url(#a)" d="M0 171.19V82.17C0 10.271 10.26 0 82.086 0h89.189C243.1 0 253.36 10.271 253.36 82.171v89.019c0 71.9-10.26 82.17-82.086 82.17H82.086C10.261 253.36 0 243.09 0 171.19z"/><path fill="url(#b)" d="M8.891.655C-3.562 79.583 2.953 153.48 2.953 153.48h38.928c-3.704-19.704-16.992-109.724-5.938-110.021 5.924.94 32.99 76.371 32.99 76.371s5.96-.742 11.958-.742 11.959.742 11.959.742 27.066-75.43 32.99-76.371c11.053.297-2.235 90.317-5.938 110.02h38.927s6.516-73.896-5.938-152.824H116.85C109.99.736 83.89 46.51 80.891 46.51 77.892 46.51 51.792.736 44.932.655H8.892z" transform="translate(45.79 47.098)"/><path fill="url(#c)" d="M73.214 144.267a9.213 9.213 0 1 1-18.427 0 9.213 9.213 0 0 1 18.427 0z" transform="translate(45.79 47.098)"/><path fill="url(#d)" d="M106.995 144.267a9.213 9.213 0 1 1-18.426 0 9.213 9.213 0 0 1 18.426 0z" transform="translate(45.79 47.098)"/><path d="M196.846 50.362c5.618 38.026 6.936 74.52 6.833 101.705-.106 27.806-1.699 45.871-1.699 45.871h-32.767l-3.521 2.64h38.927s6.516-73.897-5.938-152.825l-1.835 2.61zm-103.154-.96c10.226 11.376 27.913 41.567 30.35 41.567-6.484-8.292-22.411-34.748-30.35-41.567zM79.094 87.918c-11.054.297 2.234 90.317 5.938 110.02H51.05l-2.307 2.64h38.928c-3.685-19.604-16.856-108.825-6.103-110.021-1.002-1.504-1.866-2.543-2.474-2.64zm89.896 0c-5.923.94-32.99 76.371-32.99 76.371s-5.96-.742-11.958-.742c-3.549 0-6.604.218-8.67.41l-.65 2.971s5.961-.742 11.96-.742c5.997 0 11.958.742 11.958.742s26.862-74.936 32.907-76.371c-.651-1.65-1.456-2.61-2.557-2.64z" opacity=".1"/><path fill="#FFF" d="M54.681 47.753c-12.453 78.928-5.938 152.825-5.938 152.825L51.035 198c-1.173-17.434-4.306-80.48 6.285-147.609h36.042c.763.01 1.787.635 2.969 1.65-2.36-2.626-4.322-4.274-5.609-4.29h-36.04zm107.959 0c-6.86.081-32.96 45.856-35.959 45.856 1.223 1.564 2.216 2.639 2.64 2.639 2.998 0 29.098-45.775 35.958-45.856h31.806l1.596-2.64H162.64zM84.207 93.196c8.755 13.148 30.515 73.732 30.515 73.732l.637-2.954c-5.372-14.732-25.844-69.961-30.987-70.778-.056.002-.11-.006-.165 0zm90.062 0c5.872 14.977-5.244 89.649-8.577 107.382l3.53-2.757c4.508-26.446 15.363-104.347 5.047-104.625z" opacity=".3"/><path d="M44.07151 260.39162l-5.35072 23.32-5.39078-23.32h-9.01326v29.65503h5.7742v-20.05806c0-.578-.00571-1.3849-.02288-2.42643-.01145-1.0358-.01717-1.83699-.01717-2.40353l5.5739 24.88802h6.01457l5.61397-24.88802c0 .56654-.00573 1.36772-.0229 2.40353-.01144 1.04153-.01716 1.84843-.01716 2.42643v20.05806h5.7742v-29.65503zm19.76621 13.11643c.7325-.8298 1.7626-1.24755 3.09026-1.24755 1.21893 0 2.2433.39486 3.06737 1.17887.82406.78401 1.28188 1.93428 1.37917 3.4508h-8.91597c.18885-1.42496.65239-2.54661 1.37917-3.38212zm8.0175-4.95014c-1.45929-.681-3.1017-1.02436-4.92724-1.02436-3.0731 0-5.56819 1.01291-7.49674 3.03875-1.92283 2.02584-2.88424 4.9387-2.88424 8.73284 0 4.05167 1.06442 6.97597 3.19899 8.7729 2.13457 1.79693 4.59533 2.6954 7.38228 2.6954 3.38212 0 6.00884-1.07015 7.88588-3.199 1.2075-1.34483 1.8885-2.66678 2.03156-3.96583H71.1914c-.30903.64667-.66383 1.15026-1.06442 1.5108-.73823.66955-1.69964 1.00719-2.87852 1.00719-1.1102 0-2.0659-.27469-2.85563-.8298-1.29905-.88129-1.9915-2.42642-2.07162-4.62393h15.01065c.02289-1.89422-.03434-3.34206-.18313-4.34926-.25752-1.7168-.81262-3.22188-1.67103-4.52665-.94997-1.47074-2.15746-2.55233-3.62247-3.23905zm-4.52665-1.02436zm41.22633.66383c-.93853-.37198-1.89422-.56082-2.85563-.56082-1.45357 0-2.76406.29758-3.94294.90418-1.11593.60089-2.04873 1.55085-2.7984 2.83846-.4292-1.07587-1.0587-1.95144-1.89421-2.63816-1.03009-.73823-2.38637-1.10448-4.06312-1.10448-1.76832 0-3.21044.4292-4.32636 1.2876-.6295.48071-1.29905 1.29333-2.00867 2.43215v-3.19899h-5.57391v21.88933h5.81426V276.8501c0-1.19604.15452-2.0945.46354-2.69539.56083-1.0587 1.65959-1.59091 3.29628-1.59091 1.40778 0 2.35775.53221 2.83846 1.59091.26896.58944.40059 1.53368.40059 2.83846v13.05348h5.7742v-13.05348c0-.9843.15451-1.81982.46354-2.51799.6066-1.31622 1.69964-1.9686 3.2791-1.9686 1.36773 0 2.30625.50931 2.81557 1.52795.26897.53222.40632 1.21894.40632 2.04873v13.96339h5.87149l.04005-13.82032c0-1.42495-.06294-2.50082-.20029-3.23905-.21174-1.11593-.6295-2.05445-1.24755-2.81557-.76112-.93852-1.6138-1.59663-2.55232-1.97433zm22.37003 7.7886h5.87721c-.32619-3.1246-1.362-5.30495-3.10742-6.54105-1.75115-1.23038-4.00017-1.84843-6.75279-1.84843-3.23332 0-5.76848 1.04725-7.60547 3.13604-1.83698 2.0945-2.75261 5.02453-2.75261 8.79006 0 3.34206.82979 6.06034 2.48937 8.14913 1.6653 2.0945 4.26341 3.14176 7.7886 3.14176 3.52518 0 6.19196-1.25327 7.98888-3.76554 1.12738-1.55657 1.75687-3.2047 1.8885-4.95013h-5.85433c-.12017 1.15598-.46354 2.0945-1.02436 2.82129-.56655.72106-1.51652 1.08731-2.85563 1.08731-1.89421 0-3.18182-.91563-3.86282-2.74117-.3777-.97858-.56655-2.27191-.56655-3.88 0-1.68819.18885-3.04447.56655-4.0631.70961-1.91711 2.03156-2.87853 3.9601-2.87853 1.35629 0 2.35776.44065 2.9987 1.32767.44065.65811.71534 1.39634.82407 2.21468zm-3.87999-8.45243zm25.79221 11.8517v2.13458c-.04006 1.9171-.58372 3.23904-1.61952 3.9601-1.04154.72679-2.18035 1.08732-3.41073 1.08732-.77829 0-1.44212-.21747-1.98578-.6524-.53793-.43492-.81262-1.14453-.81262-2.12311 0-1.09876.44064-1.91138 1.32766-2.43787.5265-.30903 1.39062-.56655 2.5981-.78401l1.28762-.24036c.64094-.12017 1.15026-.2518 1.51651-.38914.37198-.14307.7325-.3262 1.09876-.5551zm-3.48512-2.67821l-1.95144.24035c-2.20897.28613-3.88572.7554-5.02454 1.4135-2.08306 1.2075-3.11887 3.15894-3.11887 5.85433 0 2.07734.64667 3.68542 1.94 4.81851 1.29333 1.1331 2.93574 1.69964 4.9158 1.69964 1.55657 0 2.95291-.3548 4.18901-1.07014 1.03009-.60089 1.94572-1.3334 2.73545-2.1918.04006.49788.09157.93853.16024 1.32767.06867.38914.18885.8069.36053 1.24755h6.23774v-.84696c-.3777-.17168-.6581-.39487-.84696-.66383-.18312-.26325-.29758-.77257-.33764-1.52796-.0286-.99003-.04005-1.837-.04005-2.53516v-10.05478c0-2.6439-.9328-4.44082-2.7984-5.39651-1.8656-.94997-3.99445-1.42495-6.39798-1.42495-3.69114 0-6.28925.96141-7.80577 2.89568-.94996 1.2361-1.4879 2.80985-1.60807 4.72695h5.52812c.13735-.84696.40632-1.51651.8069-2.00866.56655-.67528 1.52224-1.0072 2.87852-1.0072 1.2075 0 2.12312.17168 2.7469.50932.62377.34336.9328.96714.9328 1.8656 0 .73823-.40631 1.27616-1.22466 1.62525-.45782.20601-1.21321.37197-2.27763.5036zm.3033-9.1735zm27.1027 8.45243h5.8715c-.32047-3.12459-1.35628-5.30494-3.10743-6.54104-1.75115-1.23038-4.00017-1.84843-6.74706-1.84843-3.23333 0-5.76848 1.04725-7.60547 3.13604-1.83699 2.0945-2.75834 5.02453-2.75834 8.79006 0 3.34206.82979 6.06034 2.4951 8.14913 1.6653 2.0945 4.25768 3.14176 7.78859 3.14176 3.52518 0 6.18624-1.25327 7.98317-3.76554 1.12737-1.55657 1.75686-3.2047 1.89421-4.95013h-5.85432c-.12018 1.15598-.46354 2.0945-1.03009 2.82129-.56082.72106-1.5108 1.08731-2.85563 1.08731-1.88849 0-3.1761-.91563-3.86282-2.74117-.37197-.97858-.56082-2.27191-.56082-3.88 0-1.68819.18885-3.04447.56082-4.0631.70962-1.91711 2.03156-2.87853 3.96583-2.87853 1.35056 0 2.35203.44065 2.9987 1.32767.44065.65811.71534 1.39634.82407 2.21468zm-3.8857-8.45242zm29.48334.72678c-1.10448-.46926-2.33486-.7039-3.69114-.7039-1.20749 0-2.35775.2518-3.45079.7554-1.09303.49788-2.05445 1.39062-2.88424 2.66106v-10.47826h-5.71697v29.55202h5.71697v-11.86888c0-1.87705.38915-3.32489 1.17888-4.3378.784-1.01293 1.93427-1.51652 3.44506-1.51652 1.46502 0 2.45504.50932 2.98153 1.52796.40059.72678.60088 1.67675.60088 2.85563v13.3396h5.85433v-12.87607c0-1.95716-.06295-3.37067-.2003-4.2348-.13162-.86412-.5036-1.70536-1.10448-2.5237-.70961-.96714-1.61952-1.68248-2.72973-2.15174zm14.9477 5.24772c.7325-.8298 1.76259-1.24755 3.09025-1.24755 1.21894 0 2.2433.39486 3.06737 1.17887.82407.78401 1.2876 1.93428 1.37917 3.4508h-8.91024c.18312-1.42496.64666-2.54661 1.37345-3.38212zm8.0175-4.95014c-1.45929-.681-3.1017-1.02436-4.92725-1.02436-3.07309 0-5.56818 1.01291-7.49101 3.03875-1.92855 2.02584-2.88996 4.9387-2.88996 8.73284 0 4.05167 1.06442 6.97597 3.19899 8.7729 2.13456 1.79693 4.59532 2.6954 7.38228 2.6954 3.38211 0 6.00883-1.07015 7.88588-3.199 1.20749-1.34483 1.88849-2.66678 2.03728-3.96583h-5.86004c-.3033.64667-.66384 1.15026-1.06443 1.5108-.73823.66955-1.69392 1.00719-2.87851 1.00719-1.1102 0-2.0659-.27469-2.85563-.8298-1.29906-.88129-1.9915-2.42642-2.07162-4.62393h15.01064c.0229-1.89422-.03433-3.34206-.18312-4.34926-.2518-1.7168-.81263-3.22188-1.67103-4.52665-.94997-1.47074-2.15746-2.55233-3.62247-3.23905zm-4.52666-1.02436z"/></svg>