<svg id="Layer_1" data-name="Layer 1" xmlns="http://www.w3.org/2000/svg" viewBox="0 0 550 100"><defs><style>.cls-1{fill:#2a7de1;}.cls-2{fill:#0033a1;}.cls-3{fill:none;stroke:#fff;stroke-miterlimit:10;stroke-width:2px;}</style></defs><title>OMP_ProjectLogos</title><path class="cls-1" d="M308.62,16.74h2.75a3.59,3.59,0,0,1,2.41.71,2.35,2.35,0,0,1,.84,1.93,2.43,2.43,0,0,1-.84,1.95,3.71,3.71,0,0,1-2.49.72h-1.9v4.67h-.77Zm.77.64v4h1.85a2.91,2.91,0,0,0,1.9-.53,2,2,0,0,0,.12-2.85l-.1-.11a2.76,2.76,0,0,0-1.82-.54Z"/><path class="cls-1" d="M317.26,16.74h2.55a3.78,3.78,0,0,1,2.46.7,2.3,2.3,0,0,1,.85,1.88,2.48,2.48,0,0,1-1.9,2.42,4.55,4.55,0,0,1,1.33,1.53l2.26,3.45h-.92L322.15,24a6.58,6.58,0,0,0-1.35-1.71,2.54,2.54,0,0,0-1.42-.34H318v4.79h-.77Zm.77.64v3.91h1.65a3.22,3.22,0,0,0,1.94-.51,1.88,1.88,0,0,0,.22-2.65l-.23-.23a3.21,3.21,0,0,0-1.95-.52Z"/><path class="cls-1" d="M331.45,16.61a5.2,5.2,0,0,1,3.75,1.49,5,5,0,0,1,.12,7.13l-.12.13a5.46,5.46,0,0,1-7.49,0,5.06,5.06,0,0,1-.1-7.16l.1-.1a5.16,5.16,0,0,1,3.74-1.49m0,9.52a4.28,4.28,0,0,0,3.15-1.27,4.46,4.46,0,0,0,0-6.26,4.53,4.53,0,0,0-6.31,0,4.42,4.42,0,0,0,0,6.25h0a4.31,4.31,0,0,0,3.16,1.27"/><path class="cls-1" d="M340.62,16.74v10A3.24,3.24,0,0,1,340,29a2,2,0,0,1-1.47.63,3.55,3.55,0,0,1-.46,0l-.07-.72a2.3,2.3,0,0,0,.45.05c.94,0,1.4-.66,1.4-2V16.74Z"/><polygon class="cls-1" points="349.47 16.74 349.47 17.38 344.8 17.38 344.8 21.37 349.35 21.37 349.35 22.02 344.8 22.02 344.8 26.07 349.58 26.07 349.58 26.72 344.03 26.72 344.03 16.74 349.47 16.74"/><path class="cls-1" d="M360.66,17.45v.84a7.66,7.66,0,0,0-3.56-1,4.2,4.2,0,0,0-3.1,1.27,4.28,4.28,0,0,0-1.25,3.16A4.24,4.24,0,0,0,354,24.9a4.41,4.41,0,0,0,3.21,1.23,7.52,7.52,0,0,0,3.55-1v.8a7.41,7.41,0,0,1-3.53.93,5.22,5.22,0,0,1-3.8-1.46,5.11,5.11,0,0,1,0-7.23.46.46,0,0,0,.07-.07,5.2,5.2,0,0,1,3.69-1.47,8.35,8.35,0,0,1,3.51.84"/><polygon class="cls-1" points="370.59 16.74 370.59 17.38 366.85 17.38 366.85 26.72 366.07 26.72 366.07 17.38 362.32 17.38 362.32 16.74 370.59 16.74"/><polygon class="cls-1" points="204.9 27.42 201.56 27.42 201.56 21.01 198.56 24.72 198.29 24.72 195.28 21.01 195.28 27.42 192.04 27.42 192.04 16.36 195.06 16.36 198.46 20.51 201.87 16.36 204.9 16.36 204.9 27.42"/><path class="cls-1" d="M219.83,27.42h-3.41l-.91-2.24h-4.8l-.92,2.24h-3.41l4.89-11.06H215Zm-5.08-4.17-1.62-4-1.64,4Z"/><rect class="cls-1" x="221.31" y="16.36" width="3.33" height="11.06"/><polygon class="cls-1" points="239.44 27.42 236.48 27.42 230.74 21.26 230.74 27.42 227.44 27.42 227.44 16.36 230.4 16.36 236.12 22.49 236.12 16.36 239.44 16.36 239.44 27.42"/><polygon class="cls-1" points="250.14 22.94 245.55 22.94 245.55 27.42 242.22 27.42 242.22 16.36 250.14 16.36 250.14 18.58 245.55 18.58 245.55 20.72 250.14 20.72 250.14 22.94"/><path class="cls-1" d="M263.09,27.42h-3.58l-.87-2a8.55,8.55,0,0,0-.86-1.57,1.85,1.85,0,0,0-.75-.64,2.72,2.72,0,0,0-.94-.14h-.37v4.32h-3.34V16.36h5.67a4.12,4.12,0,0,1,2.25.56,3.37,3.37,0,0,1,1.27,1.35,3.49,3.49,0,0,1,.38,1.52,2.82,2.82,0,0,1-.32,1.42,2.63,2.63,0,0,1-.68.84,8.39,8.39,0,0,1-.81.5,3,3,0,0,1,.88.74A8.82,8.82,0,0,1,262,25Zm-4.53-7.57a1.12,1.12,0,0,0-.51-1.06,3.28,3.28,0,0,0-1.63-.31h-.7v2.67h.71a3.72,3.72,0,0,0,1.68-.27,1.11,1.11,0,0,0,.45-1"/><path class="cls-1" d="M276.74,27.42h-3.41l-.9-2.24h-4.8l-.92,2.24h-3.42l4.89-11.06h3.69Zm-5.08-4.17-1.62-4-1.63,4Z"/><polygon class="cls-1" points="291.07 27.42 287.74 27.42 287.74 21.01 284.73 24.72 284.47 24.72 281.45 21.01 281.45 27.42 278.21 27.42 278.21 16.36 281.24 16.36 284.63 20.51 288.05 16.36 291.07 16.36 291.07 27.42"/><polygon class="cls-1" points="302.2 27.42 293.86 27.42 293.86 16.36 302.06 16.36 302.06 18.58 297.2 18.58 297.2 20.6 301.84 20.6 301.84 22.83 297.2 22.83 297.2 25.19 302.2 25.19 302.2 27.42"/><path class="cls-1" d="M150.64,16.73a5.74,5.74,0,0,1,4.19,1.66,5.64,5.64,0,0,1,.14,8l-.14.14a6.1,6.1,0,0,1-8.36,0,5.66,5.66,0,0,1-.11-8l.11-.11a5.75,5.75,0,0,1,4.17-1.66m0,10.63a4.79,4.79,0,0,0,3.52-1.42,5,5,0,0,0,0-7,5.09,5.09,0,0,0-7.05,0,4.94,4.94,0,0,0,0,7h0a4.81,4.81,0,0,0,3.53,1.42"/><path class="cls-1" d="M158.65,16.87h3.07a4.13,4.13,0,0,1,2.7.79,2.67,2.67,0,0,1,.94,2.16,2.69,2.69,0,0,1-1,2.18,4.16,4.16,0,0,1-2.77.81h-2.13V28h-.86Zm.86.72v4.5h2.08a3.34,3.34,0,0,0,2.12-.59,2.26,2.26,0,0,0,.12-3.19.57.57,0,0,0-.11-.11,3,3,0,0,0-2-.61Z"/><polygon class="cls-1" points="173.09 16.87 173.09 17.59 167.87 17.59 167.87 22.05 172.95 22.05 172.95 22.77 167.87 22.77 167.87 27.3 173.22 27.3 173.22 28.02 167.01 28.02 167.01 16.87 173.09 16.87"/><polygon class="cls-1" points="185.03 16.87 185.03 28.02 184.32 28.02 175.85 18.27 175.85 28.02 174.99 28.02 174.99 16.87 175.72 16.87 184.17 26.61 184.17 16.87 185.03 16.87"/><path class="cls-2" d="M146.63,42.26h11l9,14.6,9-14.6h11V80H176.3V58.31l-9.64,14.76h-.22l-9.58-14.7V80H146.63Z"/><path class="cls-2" d="M195.52,42.26h30.31V51.1h-20v5.76H224V65.1H205.86v6H226.1V80H195.52Z"/><path class="cls-2" d="M233.64,42.26h9.74l15.51,19.93V42.26h10.34V80h-9.1L244,59.28V80H233.64Z"/><path class="cls-2" d="M286.19,51.42H274.94V42.26h33v9.16H296.64V80H286.19Z"/><path class="cls-2" d="M308.59,61.22v-.11c0-10.82,8.72-19.6,20.35-19.6S349.19,50.18,349.19,61v.11c0,10.83-8.72,19.6-20.36,19.6S308.59,72,308.59,61.22Zm29.88,0v-.11c0-5.49-3.87-10.18-9.64-10.18s-9.58,4.63-9.58,10.07v.11c0,5.44,3.93,10.18,9.69,10.18S338.47,66.66,338.47,61.22Z"/><path class="cls-2" d="M353.49,42.26h17.83c5.76,0,9.74,1.51,12.27,4a11.76,11.76,0,0,1,3.34,8.78v.11a12,12,0,0,1-7.75,11.63l9,13.14h-12l-7.59-11.42h-4.63V80H353.49Zm17.4,18.1c3.5,0,5.6-1.73,5.6-4.47v-.11c0-3-2.21-4.52-5.66-4.52h-6.89v9.1Z"/><path class="cls-2" d="M391.51,74.36l5.81-7a19.55,19.55,0,0,0,12.23,4.53c2.85,0,4.36-1,4.36-2.59v-.11c0-1.61-1.24-2.42-6.41-3.66-8-1.83-14.22-4.09-14.22-11.79v-.11c0-7,5.55-12.06,14.6-12.06,6.4,0,11.41,1.72,15.5,5L418.16,54a18.54,18.54,0,0,0-10.55-3.71c-2.53,0-3.77,1-3.77,2.42v.11c0,1.72,1.29,2.48,6.57,3.66,8.61,1.89,14,4.69,14,11.74v.11c0,7.7-6.09,12.27-15.24,12.27A26.44,26.44,0,0,1,391.51,74.36Z"/><path class="cls-2" d="M431.62,42.26h10.45V56.37h13.4V42.26h10.45V80H455.47V65.64h-13.4V80H431.62Z"/><path class="cls-2" d="M475,42.26h10.44V80H475Z"/><path class="cls-2" d="M494.51,42.26h16.21c9.47,0,15.61,4.9,15.61,13.2v.1c0,8.94-6.84,13.63-16.15,13.63H505V80H494.51ZM510,61c3.66,0,6-2,6-5v-.11c0-3.23-2.32-4.9-6-4.9h-5V61Z"/><line class="cls-3" x1="32.31" y1="27.35" x2="78.2" y2="27.35"/><path class="cls-1" d="M34.36,69.18H31.23a3,3,0,0,0-3,3.06l-1.44,6.53a3,3,0,0,0,3,3h6a3.06,3.06,0,0,0,3.05-3L37.4,72.24A3,3,0,0,0,34.36,69.18Z"/><rect class="cls-2" x="31.31" y="49.57" width="2.96" height="19.62"/><polygon class="cls-2" points="121.62 12.76 41.62 12.76 34.36 26.35 78.2 26.35 78.2 28.35 33.29 28.35 23.67 46.36 136.13 46.36 121.62 12.76"/><path class="cls-2" d="M102.66,48.17l1.44-.33H55.83l1.44.33L57,49.32,50.55,77.58c.22,5.61,12.52,9.66,29.42,9.66s29.2-4,29.42-9.66l-6.47-28.26Z"/></svg>