<svg xmlns="http://www.w3.org/2000/svg" role="img" xmlns:xlink="http://www.w3.org/1999/xlink" viewBox="-4.53 -4.53 248.82 54.57"><path d="M237.32 9.09c-1.06 0-1.93-.86-1.93-1.92s.87-1.93 1.93-1.93 1.93.87 1.93 1.93-.87 1.92-1.93 1.92m0-4.32c-1.32 0-2.4 1.08-2.4 2.4 0 1.32 1.08 2.4 2.4 2.4 1.32 0 2.4-1.08 2.4-2.4 0-1.32-1.08-2.4-2.4-2.4"/><path d="M237.48 7.07l-.51.01-.01-.62h.51c.19-.01.34.11.34.3.01.19-.14.31-.33.31m.83-.32c-.01-.42-.3-.72-.77-.72l-1.07.02.03 2.26h.49l-.01-.81h.35l.46.8.55-.01-.52-.86c.24-.06.49-.28.49-.68M51.8341 23.1805h-5.999V9.3465h5.835c1.574 0 2.557 1.016 2.557 2.393 0 1.377-.983 2.36-2.557 2.36H45v4h6.8341c1.836 0 2.819 1.18 2.819 2.556 0 1.574-1.049 2.525-2.819 2.525m3.376-7.245c2.066-.426 3.771-2.262 3.771-5.015 0-2.918-2.131-5.573-6.295-5.573h-11.506v21.865h11.867c4.163 0 6.359-2.623 6.359-5.901 0-2.754-1.868-5.015-4.196-5.376m17.8225-.5902H68v4.098h3.5576l4.294 7.769h5.343l-4.917-8.327c2.361-.557 4.786-2.622 4.786-6.49m0 0c0-4.065-2.786-7.048-7.343-7.048h-10.228v21.865h4.655V9.4453h4.885c1.869 0 3.278 1.114 3.278 2.95s-1.409 2.95-3.278 2.95m43.4206 4.0652l3.409-9.408 3.41 9.408zm.492-14.063l-8.458 21.865h5.31l1.377-3.704h9.376l1.344 3.704h5.311l-8.425-21.865zm26.9039 17.7671h-3.967v-13.67h3.967c4.491 0 6.851 2.983 6.851 6.852 0 3.704-2.524 6.818-6.851 6.818m0-17.767h-8.622v21.865h8.622c6.851 0 11.604-4.327 11.604-10.916s-4.753-10.949-11.604-10.949m82.1269-.0045l-5.734 9.27-5.734-9.27h-5.146v21.869h4.656v-14.293l5.012 7.622c.574.871 1.851.871 2.424 0l5.013-7.622v14.293h4.656V5.3431z"/><path id="a" d="M95.8253 23.3441c-3.871 0-7.008-3.138-7.008-7.008 0-3.871 3.137-7.009 7.008-7.009 3.87 0 7.008 3.138 7.008 7.009 0 3.87-3.138 7.008-7.008 7.008m0-18.536c-6.367 0-11.528 5.161-11.528 11.528 0 6.366 5.161 11.527 11.528 11.527 6.366 0 11.528-5.161 11.528-11.527 0-6.367-5.162-11.528-11.528-11.528"/><path d="M176.4035 19.7269c-1.195 2.156-3.492 3.617-6.132 3.617-3.87 0-7.008-3.138-7.008-7.008 0-3.871 3.138-7.008 7.008-7.008 2.618 0 4.897 1.438 6.1 3.565l3.27-3.269c-2.092-2.915-5.508-4.816-9.37-4.816-6.367 0-11.527 5.161-11.527 11.528 0 6.366 5.16 11.528 11.527 11.528 3.883 0 7.316-1.922 9.404-4.865z"/><use transform="translate(98.718)" xlink:href="#a"/><ellipse cx="16.52" cy="16.497" fill="#cc092f" rx="16.236" ry="16.235"/><path fill="#fff" d="M30.8253 20.8832c-1.857-.74-3.557-.492-5.261.541 0 0-.621.379-.807.496-.794.498-1.543.97-2.263.97-.687 0-1.363-.184-1.649-1.513-.446-2.073-1.534-7.167-2.009-9.69-.279-1.483-.432-2.282-.591-2.825-.28-.954-.792-1.473-1.519-1.556 0 0-.114-.016-.207-.016-.092 0-.218.018-.218.018-.72.086-1.229.605-1.507 1.554-.159.543-.312 1.342-.591 2.825-.475 2.523-1.563 7.617-2.009 9.69-.286 1.329-.962 1.513-1.649 1.513-.72 0-1.469-.472-2.263-.97-.186-.117-.808-.496-.808-.496-1.703-1.033-3.404-1.281-5.26-.541-.401.16-.79596.33918-1.17196.52018.257.806.57693 1.59925.94993 2.34425.411-.202.84203-.40243 1.28203-.53243.634-.187 1.284-.197 1.914.014.612.205 1.157.568 1.7.909 1.023.643 2.182 1.372 3.657 1.372 2.186 0 3.72-1.305 4.21-3.581.38-1.764 1.222-5.702 1.763-8.418 0 0 1.386 6.654 1.765 8.418.49 2.276 2.025 3.581 4.211 3.581 1.475 0 2.634-.729 3.657-1.372.543-.341 1.088-.704 1.7-.909.629-.211 1.28-.201 1.914-.014.44.13.87039.33065 1.28139.53265.374-.745.69309-1.53862.95009-2.34462-.376-.181-.77048-.36003-1.17148-.52003"/><path d="M63.43442 37.81345L62.0824 43.7059l-1.36213-5.89245h-2.27745v7.49317h1.45901V40.2384c0-.14604-.00145-.34993-.00578-.6131-.0029-.26173-.00434-.46417-.00434-.60732l1.4084 6.28865h1.51975l1.41852-6.28865c0 .14315-.00144.3456-.00578.60732-.0029.26317-.00434.46706-.00434.6131v5.06823h1.45902v-7.49317zm5.14053 7.49317v-7.49317h-1.5559v7.49317zm-.77795-7.64066zm2.96285.93122c-.7013.7071-1.05268 1.7164-1.05268 3.02359 0 1.2103.30944 2.16322.92544 2.8573.61744.69118 1.4648 1.03678 2.54206 1.03678.8705 0 1.58482-.25594 2.14298-.76783.55815-.51044.90375-1.1756 1.03967-1.99259h-1.55011c-.10556.38609-.23715.67673-.39765.86905-.28776.36005-.70565.53936-1.25513.53936-.53502 0-.9775-.20967-1.32454-.62757-.34704-.41934-.52056-1.04835-.52056-1.88847 0-.84013.16485-1.49083.49309-1.94921.32824-.45983.77795-.68974 1.34767-.68974.55816 0 .98039.1634 1.26525.48875.15906.1822.2892.45404.39187.81265h1.56457c-.02314-.46706-.19521-.93267-.51767-1.39828-.58274-.82567-1.50528-1.23923-2.7662-1.23923-.94134 0-1.71784.308-2.32806.92544zm2.28324-1.0122zm5.64229 5.40949h-1.49516c0 .7794.28052 1.39105.84012 1.83642.55816.44681 1.32598.6695 2.30203.6695.95581 0 1.69616-.22702 2.21961-.67962.52346-.45115.78518-1.02088.78518-1.70484 0-.66805-.22413-1.17849-.67094-1.52986-.28776-.22703-.71577-.40922-1.28116-.5437l-1.29128-.31089c-.49887-.11857-.82422-.22124-.97605-.30944-.23714-.13304-.35571-.33258-.35571-.6001 0-.29209.12002-.5191.36005-.68106.24148-.1634.5625-.24437.96593-.24437.36295 0 .6666.06217.91098.18798.36584.18942.5625.51043.58997.96014h1.50384c-.02748-.7953-.31957-1.40262-.87628-1.82196-.55815-.4179-1.23199-.62756-2.0215-.62756-.94569 0-1.66146.22123-2.1502.66516-.48731.44536-.73168 1.00207-.73168 1.67302 0 .73601.2516 1.27682.7577 1.62241.29788.20678.83723.39765 1.61663.57406l.7924.17786c.46417.10122.80543.21835 1.02233.35138.2169.13448.32535.3268.32535.57406 0 .42368-.21835.71288-.65649.86905-.22991.08097-.53068.12146-.8994.12146-.61745 0-1.0527-.15328-1.3072-.46272-.1388-.16918-.23135-.42512-.27907-.76638zm1.51975-5.40949zm8.74974 1.52987h1.81907c.33981 0 .59286.04483.76349.13303.30077.15473.45115.45983.45115.91388 0 .42078-.15472.7013-.46706.84446-.17641.08098-.44103.12146-.7924.12146h-1.77425zm3.35761-1.10763c-.28341-.11858-.68685-.18365-1.21319-.19377h-3.67573v7.49317h1.53131v-2.93827h1.61663c.45983 0 .77506.07953.9428.2386.16773.15905.25449.47862.26172.9558l.01012.69697c.0029.2198.02458.43525.06652.64492.02024.10266.0535.2357.10122.40198h1.72363v-.18798c-.14894-.0911-.24438-.23425-.28486-.42657-.02748-.1229-.0405-.35427-.0405-.69697v-.5032c0-.5249-.0723-.91532-.2169-1.17127-.14315-.25594-.38897-.45404-.73456-.59286.41356-.1417.70999-.38463.88929-.72878.18075-.34415.2704-.69408.2704-1.0498 0-.29498-.04772-.55815-.14315-.78807-.094-.23136-.22269-.44103-.38608-.63045-.19666-.23136-.4367-.40488-.71867-.52345zm3.88396 3.12046c.18364-.20967.44392-.31522.7794-.31522.30944 0 .56683.09977.77505.29787.20967.1981.32535.48875.34849.87194h-2.25143c.04772-.36005.1634-.64347.34849-.85459zm2.02585-1.25079c-.37018-.17207-.78518-.25883-1.24646-.25883-.77505 0-1.40695.25594-1.89281.76783-.4873.51188-.73023 1.2479-.73023 2.2066 0 1.02376.2704 1.76267.80831 2.21671.53936.45404 1.16114.68107 1.86534.68107.85459 0 1.5183-.2704 1.99404-.80832.3051-.3398.47573-.67383.51333-1.00208h-1.47926c-.07808.1634-.16774.29065-.2704.38175-.18654.16918-.42802.2545-.7259.2545-.28196 0-.522-.06941-.723-.20968-.32824-.22268-.5032-.6131-.52345-1.16836h3.79286c.00723-.47863-.00867-.84447-.04627-1.09896-.06362-.4338-.20533-.8141-.42223-1.14379-.24004-.37162-.54514-.64492-.91387-.81844zm-1.14379-.25883zm4.6301 3.9201h-1.46914c0 .56828.20822 1.03679.62322 1.40552.415.36728 1.05847.55092 1.92897.55092.85458 0 1.48504-.17352 1.89426-.52056.40777-.34704.61165-.7953.61165-1.34478 0-.41644-.1417-.76493-.42657-1.04256-.28775-.27474-.7201-.47863-1.29561-.61455-.86471-.18943-1.36792-.3239-1.51107-.40199-.14171-.07375-.21256-.19521-.21256-.36005 0-.13304.06651-.24872.20099-.34704.13303-.09689.3586-.14605.67239-.14605.38319 0 .65504.09688.8141.29354.08531.10845.13737.25594.15761.44247h1.4489c-.06508-.67672-.31379-1.1539-.75048-1.43009-.43525-.27619-.99774-.415-1.69037-.415-.72734 0-1.29273.18364-1.69472.55237-.40198.36728-.60298.80687-.60298 1.31875 0 .4338.1287.76638.38753.9963.25739.23425.69986.42801 1.32598.58418.8705.20678 1.3737.35282 1.50963.43814.13592.08387.20388.20822.20388.37017 0 .16919-.08387.29643-.2516.38175-.16774.08387-.39476.12725-.67818.12725-.48585 0-.81699-.09689-.99774-.29065-.10122-.10845-.16773-.29065-.1981-.54803zm1.10907-3.9201zm2.9831 1.23055h.77361v3.41111c0 .3456.08098.60154.24438.76783.25015.26028.71721.37885 1.40262.35571l.6854-.02603v-1.08305a2.286 2.286 0 0 1-.1446.00868c-.04916.00144-.09544.00289-.13882.00289-.29498 0-.4714-.02892-.52923-.08532-.05784-.05494-.08676-.19665-.08676-.42367V40.8486h.89941v-1.03245h-.89941v-1.54433h-1.43299v1.54433h-.7736zm9.09534 1.62675l.96593-2.9484.93556 2.9484zm.09688-4.6619l-2.6751 7.49316h1.63688l.51911-1.53999h2.76041l.48297 1.54h1.6976l-2.6534-7.49318zm.87339 0zm8.41138 1.5501c.20533.1663.308.44393.308.83435 0 .38897-.10267.67383-.308.85458-.20533.1793-.49164.26896-.86182.26896h-1.45901v-2.2066h1.45901c.37018 0 .65649.08387.86182.24871zm1.18717 2.69969c.44681-.36584.67094-.99051.67094-1.87547 0-.80976-.22413-1.4084-.67094-1.79448-.44826-.38608-1.0469-.57985-1.80027-.57985h-3.26363v7.49317h1.5559v-2.6939h1.5906c.83145 0 1.46914-.18364 1.9174-.54947zm3.27808 3.24337v-7.49317h-1.55445v7.49317zm-.7765-7.64066zm6.26262 5.32851h-1.49516c0 .7794.28052 1.39105.83868 1.83642.5596.44681 1.32743.6695 2.30348.6695.9558 0 1.6947-.22702 2.21816-.67962.5249-.45115.78662-1.02088.78662-1.70484 0-.66805-.22413-1.17849-.67094-1.52986-.2892-.22703-.71577-.40922-1.28116-.5437l-1.29127-.31089c-.49887-.11857-.82422-.22124-.97605-.30944-.23715-.13304-.35572-.33258-.35572-.6001 0-.29209.12002-.5191.36005-.68106.24149-.1634.5625-.24437.96593-.24437.36295 0 .6666.06217.90954.18798.36728.18942.56249.51043.58996.96014h1.50529c-.02747-.7953-.31957-1.40262-.87772-1.82196-.55671-.4179-1.23055-.62756-2.02006-.62756-.94569 0-1.6629.22123-2.1502.66516-.48875.44536-.73168 1.00207-.73168 1.67302 0 .73601.2516 1.27682.75626 1.62241.29932.20678.83723.39765 1.61662.57406l.79386.17786c.46416.10122.80397.21835 1.02087.35138.2169.13448.32535.3268.32535.57406 0 .42368-.21834.71288-.65503.86905-.22992.08097-.53069.12146-.89942.12146-.61744 0-1.05268-.15328-1.30718-.46272-.13882-.16918-.23136-.42512-.27908-.76638zm1.51975-5.40949zm5.57867 3.5427c.18508-.20967.44536-.31522.78084-.31522.308 0 .56683.09977.77505.29787.20823.1981.32535.48875.34849.87194h-2.25142c.04627-.36005.1634-.64347.34704-.85459zm2.02584-1.25079c-.36873-.17207-.78373-.25883-1.245-.25883-.7765 0-1.40696.25594-1.89426.76783-.48586.51188-.72879 1.2479-.72879 2.2066 0 1.02376.26896 1.76267.80832 2.21671.53935.45404 1.16113.68107 1.86534.68107.85458 0 1.5183-.2704 1.99258-.80832.30511-.3398.47718-.67383.51333-1.00208h-1.47925c-.07809.1634-.16774.29065-.26896.38175-.18653.16918-.42802.2545-.72734.2545-.28052 0-.522-.06941-.72155-.20968-.32824-.22268-.50321-.6131-.52345-1.16836h3.79285c.00579-.47863-.00867-.84447-.04627-1.09896-.06507-.4338-.20533-.8141-.42223-1.14379-.24004-.37162-.54514-.64492-.91532-.81844zm-1.14378-.25883zm6.58074.01735c-.0188-.00144-.04049-.00144-.06796-.00144-.4338 0-.78662.11278-1.05703.3398-.16629.13593-.3615.38898-.58563.75771v-.96593h-1.38237v5.54107h1.45901V42.659c0-.44537.0564-.77361.16774-.98762.19955-.37885.59141-.56828 1.17415-.56828.04483 0 .10122.00145.17352.00434.07085.00434.15183.01012.24293.02024v-1.4836c-.06363-.00433-.10556-.00578-.12436-.00867zm4.39006.13014l-1.17994 4.08784-1.1539-4.08784h-1.62676l1.98825 5.54107h1.52987l1.99837-5.54107zm3.77984 1.36213c.18509-.20967.44537-.31522.78084-.31522.308 0 .56683.09977.77506.29787.20822.1981.3239.48875.34848.87194h-2.25286c.04771-.36005.1634-.64347.34848-.85459zm2.02585-1.25079c-.37018-.17207-.78518-.25883-1.245-.25883-.77651 0-1.40841.25594-1.89427.76783-.48585.51188-.72878 1.2479-.72878 2.2066 0 1.02376.26895 1.76267.80687 2.21671.53935.45404 1.16113.68107 1.86678.68107.85314 0 1.5183-.2704 1.99259-.80832.3051-.3398.47573-.67383.51333-1.00208h-1.47926c-.07808.1634-.16773.29065-.26895.38175-.18654.16918-.42947.2545-.72734.2545-.28197 0-.522-.06941-.72156-.20968-.32968-.22268-.5032-.6131-.5249-1.16836h3.79286c.00723-.47863-.00867-.84447-.04482-1.09896-.06507-.4338-.20533-.8141-.42223-1.14379-.24149-.37162-.5466-.64492-.91532-.81844zm-1.14379-.25883zm6.58075.01735c-.0188-.00144-.04194-.00144-.06941-.00144-.4338 0-.78518.11278-1.05703.3398-.16629.13593-.36005.38898-.58418.75771v-.96593h-1.38238v5.54107h1.45902V42.659c0-.44537.05495-.77361.16773-.98762.19955-.37885.59142-.56828 1.17416-.56828.04338 0 .10122.00145.17207.00434.07085.00434.15328.01012.24437.02024v-1.4836c-.06507-.00433-.10555-.00578-.12435-.00867zm3.91143.58852h1.73375v5.0827h1.48504v-7.37171h-1.20596c0 .06507-.0188.1634-.05495.29498-.06507.22124-.1605.39765-.28486.52924-.18364.19376-.42079.32245-.71143.38608-.18364.04049-.50321.07085-.9616.0911zm5.71893 3.56729v1.5154h1.53999v-1.5154zm4.25558-.15473c-.13882-.44826-.20823-1.09751-.20823-1.94342 0-.88929.06941-1.54577.20823-1.97379.13881-.42657.42367-.63913.85314-.63913.4309 0 .71287.21256.84735.63913.13303.42802.201 1.0845.201 1.97379 0 .84591-.06797 1.49516-.201 1.94342-.13448.44971-.41645.67384-.84735.67384-.42947 0-.71433-.22413-.85314-.67384zm2.82837-4.76023c-.3774-.66082-1.03533-.99195-1.97523-.99195-.93846 0-1.59639.33113-1.9738.99195-.37885.66082-.56683 1.59928-.56683 2.81681 0 1.21609.18798 2.1531.56684 2.81102.3774.65649 1.03533.98618 1.97379.98618.9399 0 1.59783-.3297 1.97523-.98618.37885-.65793.56683-1.59493.56683-2.81102 0-1.21753-.18798-2.15599-.56683-2.8168z"/></svg>