<svg xmlns="http://www.w3.org/2000/svg" role="img" xmlns:xlink="http://www.w3.org/1999/xlink" viewBox="-4.53 -4.53 248.82 58.57"><path d="M237.32 9.09c-1.06 0-1.93-.86-1.93-1.92s.87-1.93 1.93-1.93 1.93.87 1.93 1.93-.87 1.92-1.93 1.92m0-4.32c-1.32 0-2.4 1.08-2.4 2.4 0 1.32 1.08 2.4 2.4 2.4 1.32 0 2.4-1.08 2.4-2.4 0-1.32-1.08-2.4-2.4-2.4"/><path d="M237.48 7.07l-.51.01-.01-.62h.51c.19-.01.34.11.34.3.01.19-.14.31-.33.31m.83-.32c-.01-.42-.3-.72-.77-.72l-1.07.02.03 2.26h.49l-.01-.81h.35l.46.8.55-.01-.52-.86c.24-.06.49-.28.49-.68M51.8341 23.1805h-5.999V9.3465h5.835c1.574 0 2.557 1.016 2.557 2.393 0 1.377-.983 2.36-2.557 2.36H45v4h6.8341c1.836 0 2.819 1.18 2.819 2.556 0 1.574-1.049 2.525-2.819 2.525m3.376-7.245c2.066-.426 3.771-2.262 3.771-5.015 0-2.918-2.131-5.573-6.295-5.573h-11.506v21.865h11.867c4.163 0 6.359-2.623 6.359-5.901 0-2.754-1.868-5.015-4.196-5.376m17.8225-.5902H68v4.098h3.5576l4.294 7.769h5.343l-4.917-8.327c2.361-.557 4.786-2.622 4.786-6.49m0 0c0-4.065-2.786-7.048-7.343-7.048h-10.228v21.865h4.655V9.4453h4.885c1.869 0 3.278 1.114 3.278 2.95s-1.409 2.95-3.278 2.95m43.4206 4.0652l3.409-9.408 3.41 9.408zm.492-14.063l-8.458 21.865h5.31l1.377-3.704h9.376l1.344 3.704h5.311l-8.425-21.865zm26.9039 17.7671h-3.967v-13.67h3.967c4.491 0 6.851 2.983 6.851 6.852 0 3.704-2.524 6.818-6.851 6.818m0-17.767h-8.622v21.865h8.622c6.851 0 11.604-4.327 11.604-10.916s-4.753-10.949-11.604-10.949m82.1269-.0045l-5.734 9.27-5.734-9.27h-5.146v21.869h4.656v-14.293l5.012 7.622c.574.871 1.851.871 2.424 0l5.013-7.622v14.293h4.656V5.3431z"/><path id="a" d="M95.8253 23.3441c-3.871 0-7.008-3.138-7.008-7.008 0-3.871 3.137-7.009 7.008-7.009 3.87 0 7.008 3.138 7.008 7.009 0 3.87-3.138 7.008-7.008 7.008m0-18.536c-6.367 0-11.528 5.161-11.528 11.528 0 6.366 5.161 11.527 11.528 11.527 6.366 0 11.528-5.161 11.528-11.527 0-6.367-5.162-11.528-11.528-11.528"/><path d="M176.4035 19.7269c-1.195 2.156-3.492 3.617-6.132 3.617-3.87 0-7.008-3.138-7.008-7.008 0-3.871 3.138-7.008 7.008-7.008 2.618 0 4.897 1.438 6.1 3.565l3.27-3.269c-2.092-2.915-5.508-4.816-9.37-4.816-6.367 0-11.527 5.161-11.527 11.528 0 6.366 5.16 11.528 11.527 11.528 3.883 0 7.316-1.922 9.404-4.865z"/><use transform="translate(98.718)" xlink:href="#a"/><ellipse cx="16.52" cy="16.497" fill="#cc092f" rx="16.236" ry="16.235"/><path fill="#fff" d="M30.8253 20.8832c-1.857-.74-3.557-.492-5.261.541 0 0-.621.379-.807.496-.794.498-1.543.97-2.263.97-.687 0-1.363-.184-1.649-1.513-.446-2.073-1.534-7.167-2.009-9.69-.279-1.483-.432-2.282-.591-2.825-.28-.954-.792-1.473-1.519-1.556 0 0-.114-.016-.207-.016-.092 0-.218.018-.218.018-.72.086-1.229.605-1.507 1.554-.159.543-.312 1.342-.591 2.825-.475 2.523-1.563 7.617-2.009 9.69-.286 1.329-.962 1.513-1.649 1.513-.72 0-1.469-.472-2.263-.97-.186-.117-.808-.496-.808-.496-1.703-1.033-3.404-1.281-5.26-.541-.401.16-.79596.33918-1.17196.52018.257.806.57693 1.59925.94993 2.34425.411-.202.84203-.40243 1.28203-.53243.634-.187 1.284-.197 1.914.014.612.205 1.157.568 1.7.909 1.023.643 2.182 1.372 3.657 1.372 2.186 0 3.72-1.305 4.21-3.581.38-1.764 1.222-5.702 1.763-8.418 0 0 1.386 6.654 1.765 8.418.49 2.276 2.025 3.581 4.211 3.581 1.475 0 2.634-.729 3.657-1.372.543-.341 1.088-.704 1.7-.909.629-.211 1.28-.201 1.914-.014.44.13.87039.33065 1.28139.53265.374-.745.69309-1.53862.95009-2.34462-.376-.181-.77048-.36003-1.17148-.52003"/><path d="M83.68256 38.05733v10.98429h2.13878V41.239l4.48528 7.80262h2.29564V38.05733h-2.13878v7.66908l-4.37506-7.66908zm4.54464-.0212zm8.40249 4.87955c.27132-.30735.65287-.4621 1.14464-.4621.4515 0 .83092.14627 1.13616.43667.30523.2904.4748.71646.51084 1.27818h-3.30249c.06995-.5278.24165-.94327.51085-1.25275zm2.9697-1.83354c-.54053-.25224-1.14888-.37942-1.82506-.37942-1.13828 0-2.06247.37518-2.77681 1.12556-.71222.75037-1.06833 1.8293-1.06833 3.23466 0 1.50075.39426 2.58391 1.18491 3.2495.78853.66559 1.70212.99838 2.73442.99838 1.25274 0 2.22568-.39639 2.92094-1.18491.44726-.49813.69738-.98778.7525-1.46896H99.3535c-.11446.23953-.24588.42606-.39426.5596-.27344.24801-.62955.37307-1.06621.37307-.41122 0-.76521-.10174-1.05773-.30735-.48117-.32644-.73766-.89876-.76733-1.71272h5.55785c.0106-.70162-.0106-1.2379-.06571-1.61097-.09539-.63591-.301-1.1934-.61895-1.67669-.35187-.54476-.79913-.94538-1.34177-1.19975zm-1.67668-.37942zm4.30087 1.80386h1.13192v5.00037c0 .50661.1187.8818.35823 1.12556.3667.38155 1.05349.55537 2.0561.52145l1.00686-.03815v-1.58766a3.44914 3.44914 0 0 1-.21197.01272c-.07207.00212-.14202.00424-.2056.00424-.43243 0-.69103-.0424-.77582-.12506-.08479-.08055-.12506-.28828-.12506-.62108v-4.29239h1.31845v-1.51346h-1.31845v-2.26384h-2.10274v2.26384h-1.13192zm16.05037-1.55798c-.34764-.13778-.6995-.20773-1.05774-.20773-.53628 0-1.02381.11023-1.46047.33491-.41122.22257-.75673.57444-1.03653 1.05138-.15898-.3985-.39215-.72282-.6995-.97719-.38155-.27344-.88392-.4091-1.50499-.4091-.6571 0-1.19127.15898-1.6025.47693-.23316.17806-.48117.47906-.74613.90088v-1.18492h-2.06247v8.10786h2.15362v-4.88803c0-.44302.05723-.77581.16958-.99838.20985-.39214.61683-.58928 1.22306-.58928.52145 0 .8712.19714 1.05137.58928.09963.21833.14838.56808.14838 1.05137v4.83504h2.13878v-4.83504c0-.36459.05723-.67406.1717-.93267.22256-.48753.62743-.72917 1.21458-.72917.50661 0 .85424.18865 1.0429.56596.09962.19713.14838.4515.14838.75885v5.17207h2.17693l.01483-5.11908c0-.5278-.02543-.9263-.07418-1.19975-.08055-.41334-.23317-.76097-.4621-1.0429-.28404-.34762-.59987-.59139-.9475-.73129zm7.91495 4.14402v.79064c-.01483.7101-.21408 1.19975-.59987 1.46684-.38579.2692-.80549.40274-1.26334.40274-.28828 0-.53205-.08055-.73342-.24165-.20137-.1611-.30311-.42394-.30311-.7864 0-.40699.16533-.70799.49177-.903.195-.11446.51508-.20985.96234-.2904l.47693-.08902c.2374-.04452.42606-.09327.56172-.14414.13778-.053.27344-.12083.40698-.20561zm-1.28877-.99202l-.72282.08902c-.82032.10599-1.4414.2798-1.86322.52357-.76945.44726-1.15523 1.17007-1.15523 2.16845 0 .76945.23952 1.36509.71857 1.78479.47906.4197 1.08741.62955 1.82295.62955.57656 0 1.09164-.13142 1.5495-.39638.38154-.22257.7207-.4939 1.01321-.81185a6.15668 6.15668 0 0 0 .05936.49177c.02543.14414.06995.29888.13566.4621h2.30835v-.31372c-.13778-.06359-.24165-.14626-.3116-.24588-.06995-.09751-.11234-.28616-.12718-.56596-.0106-.36671-.01484-.68043-.01484-.93903v-3.72431c0-.9793-.3455-1.6449-1.03653-1.99888-.69102-.35187-1.47955-.5278-2.36982-.5278-1.3651 0-2.32955.3561-2.89127 1.07256-.35187.45786-.55113 1.04077-.59564 1.75087h2.04975c.04875-.31371.14838-.56172.29676-.74401.20985-.25013.56384-.37307 1.0662-.37307.44726 0 .78642.0636 1.01746.18866.23105.12718.34763.35822.34763.69102 0 .27344-.15261.4727-.45573.602-.16958.0763-.44938.13777-.84152.18653zm.11234-3.39788zm6.84027 5.7465h-2.15361c0 .83305.30312 1.51983.91359 2.06035.60835.5384 1.5495.8076 2.82768.8076 1.25062 0 2.17693-.25436 2.77469-.76308.59987-.50873.89875-1.16584.89875-1.97133 0-.61047-.20985-1.12132-.62531-1.5283-.42394-.40274-1.05561-.70162-1.90137-.90087-1.26758-.27768-2.00524-.47481-2.21297-.58928-.20773-.1081-.31372-.28616-.31372-.5278 0-.19502.09963-.3646.29464-.50873.19713-.14202.52569-.2141.98778-.2141.56172 0 .9581.14203 1.19127.4303.12507.15899.20138.3752.23105.64864h2.12394c-.09327-.99202-.45997-1.69152-1.098-2.09639-.63803-.40486-1.46472-.60835-2.47793-.60835-1.06833 0-1.89713.2692-2.48641.80972-.58716.5384-.8818 1.1828-.8818 1.93317 0 .63591.18866 1.12344.56596 1.46047.37731.3434 1.02594.62744 1.94589.85636 1.27606.30312 2.01371.51721 2.21296.64227.19926.12294.29676.30524.29676.54265 0 .248-.12294.43453-.36883.5596-.24588.12294-.57655.18653-.99413.18653-.7101 0-1.19764-.14202-1.46048-.42606-.14838-.15898-.24588-.42606-.2904-.80337zm1.6237-5.7465zm4.37505 1.80386h1.13192v5.00037c0 .50661.12083.8818.35823 1.12556.36671.38155 1.0535.55537 2.05611.52145l1.00686-.03815v-1.58766a3.44914 3.44914 0 0 1-.21197.01272c-.07207.00212-.1399.00424-.20561.00424-.43242 0-.69102-.0424-.77581-.12506-.08267-.08055-.12506-.28828-.12506-.62108v-4.29239h1.31845v-1.51346h-1.31845v-2.26384h-2.10275v2.26384h-1.13192zm7.97644.4091c.27132-.30735.65286-.4621 1.14463-.4621.4515 0 .83093.14627 1.13616.43667.30524.2904.47693.71646.51085 1.27818h-3.30037c.06783-.5278.23952-.94327.50873-1.25275zm2.9697-1.83354c-.54053-.25224-1.14888-.37942-1.82507-.37942-1.13828 0-2.06246.37518-2.7768 1.12556-.71222.75037-1.06833 1.8293-1.06833 3.23466 0 1.50075.39426 2.58391 1.18491 3.2495.79065.66559 1.70212.99838 2.73441.99838 1.25275 0 2.22569-.39639 2.92095-1.18491.44726-.49813.6995-.98778.7525-1.46896h-2.16846c-.11446.23953-.24589.42606-.39426.5596-.27345.24801-.62744.37307-1.06621.37307-.41123 0-.76522-.10174-1.05773-.30735-.48118-.32644-.73766-.89876-.76734-1.71272h5.55998c.00848-.70162-.01272-1.2379-.06783-1.61097-.09539-.63591-.301-1.1934-.61895-1.67669-.35188-.54476-.79913-.94538-1.34177-1.19975zm-1.67669-.37942zm9.64676.02543c-.02756-.00212-.05935-.00212-.09963-.00212-.6359 0-1.15312.16534-1.5495.49813-.24377.19926-.52992.5702-.85848 1.11073v-1.41596h-2.02643v8.12269h2.13878v-3.88117c0-.65287.08266-1.13404.24588-1.44776.29252-.55536.86696-.83304 1.7212-.83304.0657 0 .1505.00212.25436.00636.10387.00636.22257.01484.35611.02967v-2.1748c-.09327-.00637-.15474-.00849-.1823-.01273z"/></svg>