<svg xmlns="http://www.w3.org/2000/svg" role="img" xmlns:xlink="http://www.w3.org/1999/xlink" viewBox="-4.53 -4.53 248.82 58.57"><path d="M237.32 9.09c-1.06 0-1.93-.86-1.93-1.92s.87-1.93 1.93-1.93 1.93.87 1.93 1.93-.87 1.92-1.93 1.92m0-4.32c-1.32 0-2.4 1.08-2.4 2.4 0 1.32 1.08 2.4 2.4 2.4 1.32 0 2.4-1.08 2.4-2.4 0-1.32-1.08-2.4-2.4-2.4"/><path d="M237.48 7.07l-.51.01-.01-.62h.51c.19-.01.34.11.34.3.01.19-.14.31-.33.31m.83-.32c-.01-.42-.3-.72-.77-.72l-1.07.02.03 2.26h.49l-.01-.81h.35l.46.8.55-.01-.52-.86c.24-.06.49-.28.49-.68M51.8341 23.1805h-5.999V9.3465h5.835c1.574 0 2.557 1.016 2.557 2.393 0 1.377-.983 2.36-2.557 2.36H45v4h6.8341c1.836 0 2.819 1.18 2.819 2.556 0 1.574-1.049 2.525-2.819 2.525m3.376-7.245c2.066-.426 3.771-2.262 3.771-5.015 0-2.918-2.131-5.573-6.295-5.573h-11.506v21.865h11.867c4.163 0 6.359-2.623 6.359-5.901 0-2.754-1.868-5.015-4.196-5.376m17.8225-.5902H68v4.098h3.5576l4.294 7.769h5.343l-4.917-8.327c2.361-.557 4.786-2.622 4.786-6.49m0 0c0-4.065-2.786-7.048-7.343-7.048h-10.228v21.865h4.655V9.4453h4.885c1.869 0 3.278 1.114 3.278 2.95s-1.409 2.95-3.278 2.95m43.4206 4.0652l3.409-9.408 3.41 9.408zm.492-14.063l-8.458 21.865h5.31l1.377-3.704h9.376l1.344 3.704h5.311l-8.425-21.865zm26.9039 17.7671h-3.967v-13.67h3.967c4.491 0 6.851 2.983 6.851 6.852 0 3.704-2.524 6.818-6.851 6.818m0-17.767h-8.622v21.865h8.622c6.851 0 11.604-4.327 11.604-10.916s-4.753-10.949-11.604-10.949m82.1269-.0045l-5.734 9.27-5.734-9.27h-5.146v21.869h4.656v-14.293l5.012 7.622c.574.871 1.851.871 2.424 0l5.013-7.622v14.293h4.656V5.3431z"/><path id="a" d="M95.8253 23.3441c-3.871 0-7.008-3.138-7.008-7.008 0-3.871 3.137-7.009 7.008-7.009 3.87 0 7.008 3.138 7.008 7.009 0 3.87-3.138 7.008-7.008 7.008m0-18.536c-6.367 0-11.528 5.161-11.528 11.528 0 6.366 5.161 11.527 11.528 11.527 6.366 0 11.528-5.161 11.528-11.527 0-6.367-5.162-11.528-11.528-11.528"/><path d="M176.4035 19.7269c-1.195 2.156-3.492 3.617-6.132 3.617-3.87 0-7.008-3.138-7.008-7.008 0-3.871 3.138-7.008 7.008-7.008 2.618 0 4.897 1.438 6.1 3.565l3.27-3.269c-2.092-2.915-5.508-4.816-9.37-4.816-6.367 0-11.527 5.161-11.527 11.528 0 6.366 5.16 11.528 11.527 11.528 3.883 0 7.316-1.922 9.404-4.865z"/><use transform="translate(98.718)" xlink:href="#a"/><ellipse cx="16.52" cy="16.497" fill="#cc092f" rx="16.236" ry="16.235"/><path fill="#fff" d="M30.8253 20.8832c-1.857-.74-3.557-.492-5.261.541 0 0-.621.379-.807.496-.794.498-1.543.97-2.263.97-.687 0-1.363-.184-1.649-1.513-.446-2.073-1.534-7.167-2.009-9.69-.279-1.483-.432-2.282-.591-2.825-.28-.954-.792-1.473-1.519-1.556 0 0-.114-.016-.207-.016-.092 0-.218.018-.218.018-.72.086-1.229.605-1.507 1.554-.159.543-.312 1.342-.591 2.825-.475 2.523-1.563 7.617-2.009 9.69-.286 1.329-.962 1.513-1.649 1.513-.72 0-1.469-.472-2.263-.97-.186-.117-.808-.496-.808-.496-1.703-1.033-3.404-1.281-5.26-.541-.401.16-.79596.33918-1.17196.52018.257.806.57693 1.59925.94993 2.34425.411-.202.84203-.40243 1.28203-.53243.634-.187 1.284-.197 1.914.014.612.205 1.157.568 1.7.909 1.023.643 2.182 1.372 3.657 1.372 2.186 0 3.72-1.305 4.21-3.581.38-1.764 1.222-5.702 1.763-8.418 0 0 1.386 6.654 1.765 8.418.49 2.276 2.025 3.581 4.211 3.581 1.475 0 2.634-.729 3.657-1.372.543-.341 1.088-.704 1.7-.909.629-.211 1.28-.201 1.914-.014.44.13.87039.33065 1.28139.53265.374-.745.69309-1.53862.95009-2.34462-.376-.181-.77048-.36003-1.17148-.52003"/><path d="M83.69562 38.06624V49.178h2.1636v-7.89317l4.53734 7.89317h2.32228V38.06624h-2.1636v7.75807l-4.42584-7.75807zm4.59738-.02145zm8.5 4.93618c.27448-.31092.66045-.46746 1.15793-.46746.45674 0 .84057.14796 1.14934.44173.30878.29377.48033.72477.51678 1.29301h-3.34082c.07076-.53393.24445-.95421.51678-1.26728zm3.00417-1.85482c-.5468-.25517-1.1622-.38383-1.84624-.38383-1.15149 0-2.0864.37954-2.80903 1.13863-.72049.75908-1.08073 1.85053-1.08073 3.2722 0 1.51816.39884 2.6139 1.19866 3.28721.79768.67331 1.72188 1.00997 2.76615 1.00997 1.26728 0 2.25152-.40099 2.95485-1.19867.45244-.5039.70547-.99924.76122-1.486h-2.19362c-.11579.2423-.24874.431-.39884.5661-.27661.25088-.63685.3774-1.07858.3774-.416 0-.7741-.10293-1.07-.31093-.48676-.33022-.74622-.90918-.77624-1.7326h5.62235c.01072-.70976-.01072-1.25227-.06647-1.62966-.0965-.6433-.3045-1.20724-.62614-1.69614-.35595-.55109-.8084-.95636-1.35734-1.21368zm-1.69614-.38383zm4.35079 1.8248h1.14505v5.0584c0 .5125.12008.89203.36239 1.13863.37096.38597 1.06572.5618 2.07997.5275l1.01854-.0386v-1.60608a3.48917 3.48917 0 0 1-.21443.01286c-.0729.00215-.14367.0043-.208.0043-.43743 0-.69904-.0429-.7848-.12652-.08578-.08148-.12652-.29163-.12652-.62828v-4.3422h1.33375v-1.53104h-1.33375v-2.29011h-2.12715v2.29011h-1.14505zm13.5241-4.50088l-2.00492 8.73802-2.02208-8.73802h-3.37727V49.178h2.1636v-7.51577c0-.21658-.00215-.51892-.00644-.90919-.00429-.38811-.00857-.68832-.00857-.9006l2.08854 9.32556h2.25366l2.10356-9.32556c0 .21228-.00214.51249-.00643.9006-.00643.39027-.00858.69261-.00858.90919V49.178h2.1636V38.06624zm9.85305 7.11693v.79982c-.015.71834-.21871 1.21368-.60683 1.48386-.39027.27232-.81698.40741-1.278.40741-.29163 0-.54037-.08148-.74408-.24445-.20156-.16296-.30449-.42886-.30449-.79553 0-.4117.16511-.7162.49748-.91347.19727-.1158.52106-.21229.97351-.29377l.48247-.09006c.24016-.04503.431-.09435.56824-.14581.13938-.05361.27447-.12223.4117-.208zm-1.30587-1.00353l-.73121.09006c-.8277.10721-1.45598.28304-1.8827.52964-.78052.45245-1.16864 1.18365-1.16864 2.19362 0 .77838.2423 1.38093.72692 1.8055.48461.42457 1.10002.63686 1.84195.63686.58325 0 1.10646-.13295 1.56963-.40099.38597-.22515.72906-.49962 1.02497-.82127.01501.18656.03431.35167.06004.49748.02574.14581.07077.30235.1351.46746h2.33728v-.31736c-.14152-.06433-.2466-.14795-.31735-.24874-.06862-.09863-.1115-.28948-.12652-.57252-.01072-.37097-.015-.68832-.015-.94993v-3.76753c0-.99067-.34953-1.66398-1.04857-2.02208-.69904-.35595-1.49672-.53393-2.39733-.53393-1.38307 0-2.35658.36024-2.92482 1.08502-.35596.46316-.55752 1.05285-.60255 1.77119h2.0714c.05146-.31736.15224-.56824.30234-.75265.21228-.25303.57038-.3774 1.07858-.3774.45245 0 .79554.06433 1.02927.19084.23372.12866.34952.3624.34952.69905 0 .27661-.15225.47818-.45888.60898-.17155.0772-.4546.13938-.85343.1887zm.11364-3.43732zm6.9218 5.8132h-2.1786c0 .84271.30663 1.53746.92204 2.08426.61542.54465 1.56963.81698 2.8605.81698 1.26728 0 2.20434-.25732 2.80903-.77195.6047-.51463.90919-1.17936.90919-1.9942 0-.61756-.21229-1.13433-.63472-1.54604-.42671-.40742-1.06786-.70976-1.92129-.91133-1.2823-.2809-2.0285-.48032-2.23865-.59611-.21228-.10936-.31735-.28948-.31735-.53393 0-.19728.09863-.36882.29805-.51463.19728-.14367.53179-.21658.99925-.21658.56824 0 .96922.14367 1.2051.4353.1265.16082.2037.37954.23372.65615h2.14859c-.09435-1.00353-.46531-1.71115-1.11075-2.12071-.64758-.40956-1.4817-.61542-2.50668-.61542-1.08073 0-1.91915.27233-2.51527.81913-.59611.54465-.89203 1.19651-.89203 1.9556 0 .64329.19085 1.13648.57253 1.47742.38169.34738 1.03784.63471 1.96632.8663 1.29302.30663 2.03923.5232 2.23865.64972.20157.12437.30235.30878.30235.54894 0 .25088-.12437.43958-.3731.5661-.24875.12437-.58326.1887-1.00568.1887-.71835 0-1.21153-.14367-1.47743-.43101-.15224-.16082-.24874-.431-.29377-.81269zm1.64254-5.8132zm4.42583 1.8248h1.14506v5.0584c0 .5125.12008.89203.36239 1.13863.37096.38597 1.06571.5618 2.07997.5275l1.01854-.0386v-1.60608a3.55994 3.55994 0 0 1-.21658.01286c-.07076.00215-.14152.0043-.20585.0043-.43744 0-.69904-.0429-.78481-.12652-.08577-.08148-.12866-.29163-.12866-.62828v-4.3422h1.3359v-1.53104h-1.3359v-2.29011h-2.125v2.29011h-1.14506zm8.069.41385c.27447-.31092.66045-.46746 1.15793-.46746.45673 0 .84056.14796 1.14934.44173.30878.29377.48032.72477.51678 1.29301h-3.34082c.07076-.53393.2423-.95421.51677-1.26728zm3.00417-1.85482c-.5468-.25517-1.16221-.38383-1.84624-.38383-1.1515 0-2.0864.37954-2.80904 1.13863-.72048.75908-1.08072 1.85053-1.08072 3.2722 0 1.51816.39884 2.6139 1.19866 3.28721.79768.67331 1.71973 1.00997 2.76615 1.00997 1.26728 0 2.25151-.40099 2.95484-1.19867.45245-.5039.70548-.99924.76123-1.486h-2.19362c-.1158.2423-.24874.431-.39884.5661-.27662.25088-.63686.3774-1.07858.3774-.41814 0-.7741-.10293-1.07-.31093-.48891-.33022-.74623-.90918-.77625-1.7326h5.62236c.01072-.70976-.01287-1.25227-.06647-1.62966-.0965-.6433-.3045-1.20724-.62614-1.69614-.35595-.55109-.8084-.95636-1.35734-1.21368zm-1.69614-.38383zm9.7587.02573c-.02787-.00214-.06218-.00214-.10078-.00214-.64329 0-1.1665.16726-1.56962.50391-.2466.20157-.53393.57682-.8663 1.12361v-1.43239h-2.04995V49.178h2.1636v-3.92621c0-.66045.08148-1.1472.24874-1.46456.2959-.5618.87701-.84271 1.74117-.84271.06433 0 .1501.00214.25517.00643.10721.00643.2273.01501.36239.03002v-2.20005c-.09435-.00643-.15654-.00858-.18441-.01287z"/></svg>