<?xml version="1.0" encoding="UTF-8" standalone="no"?>
<svg
   xmlns:dc="http://purl.org/dc/elements/1.1/"
   xmlns:cc="http://creativecommons.org/ns#"
   xmlns:rdf="http://www.w3.org/1999/02/22-rdf-syntax-ns#"
   xmlns:svg="http://www.w3.org/2000/svg"
   xmlns="http://www.w3.org/2000/svg"
   xmlns:sodipodi="http://sodipodi.sourceforge.net/DTD/sodipodi-0.dtd"
   xmlns:inkscape="http://www.inkscape.org/namespaces/inkscape"
   xml:space="preserve"
   style="enable-background:new 0 0 400 245;"
   viewBox="0 0 400 245"
   y="0px"
   x="0px"
   id="Layer_1"
   version="1.1"
   sodipodi:docname="omp_ibm-sas.svg"
   inkscape:version="0.92.2 5c3e80d, 2017-08-06"><sodipodi:namedview
     pagecolor="#ffffff"
     bordercolor="#666666"
     borderopacity="1"
     objecttolerance="10"
     gridtolerance="10"
     guidetolerance="10"
     inkscape:pageopacity="0"
     inkscape:pageshadow="2"
     inkscape:window-width="1028"
     inkscape:window-height="719"
     id="namedview61"
     showgrid="false"
     inkscape:zoom="1.105"
     inkscape:cx="323.33574"
     inkscape:cy="46.036654"
     inkscape:window-x="784"
     inkscape:window-y="174"
     inkscape:window-maximized="0"
     inkscape:current-layer="Layer_1" /><metadata
     id="metadata63"><rdf:RDF><cc:Work
         rdf:about=""><dc:format>image/svg+xml</dc:format><dc:type
           rdf:resource="http://purl.org/dc/dcmitype/StillImage" /><dc:title></dc:title></cc:Work></rdf:RDF></metadata><defs
     id="defs61" /><style
     id="style2"
     type="text/css">
	.st0{fill-rule:evenodd;clip-rule:evenodd;fill:#CF4044;}
	.st1{fill:#000F9F;}
	.st2{fill:#CC092F;}
	.st3{fill:#4C83C3;}
	.st4{font-family:'HelveticaNeue-Light';}
	.st5{font-size:26.8184px;}
</style><g
     id="g56"><path
       style="fill:#4c83c3"
       id="path12"
       d="m 397.3,14 h -65.7 l 4.1,-11.3 h 61.6 z M 222.1,2.7 h 61 l 4,11.4 h -65 c 0.1,-0.1 0,-11.4 0,-11.4 z m -48.3,0 c 10,1 18.8,4.6 26.3,11.4 H 89.5 V 2.7 Z"
       class="st3" /><path
       style="fill:#4c83c3"
       id="path14"
       d="M 2.7,2.7 H 79.5 V 14 H 2.7 Z"
       class="st3" /><path
       style="fill:#4c83c3"
       id="path16"
       d="m 397.3,35.3 h -73.2 l 4,-11.3 h 69.3 v 11.3 z m -102.5,0 H 222.2 V 24 h 68.6 z M 208.6,24 c 1.5,3.8 3.2,6.9 3.2,11.3 H 89.5 V 24 Z"
       class="st3" /><path
       style="fill:#4c83c3"
       id="path18"
       d="M 2.7,24 H 79.5 V 35.3 H 2.7 Z"
       class="st3" /><path
       style="fill:#4c83c3"
       id="path20"
       d="m 316.6,56.6 4.1,-11.3 h 55 v 11.3 z m -18.4,-11.3 4.1,11.3 H 243.8 V 45.3 Z m -85.5,-0.1 c 0,3.9 -0.5,7.9 -1.6,11.3 H 177.6 V 45.2 Z"
       class="st3" /><path
       style="fill:#4c83c3"
       id="path22"
       d="m 24.1,45.3 h 33 v 11.3 h -33 z"
       class="st3" /><path
       style="fill:#4c83c3"
       id="path24"
       d="m 111.7,45.2 h 33 v 11.3 h -33 z"
       class="st3" /><path
       style="fill:#4c83c3"
       id="path26"
       d="m 276.2,68.8 v 8.6 H 243.7 V 66.2 h 61.8 l 3.9,10.5 3.7,-10.5 h 62.3 v 11.3 h -32.3 v -8.6 l -3,8.6 h -61 z M 111.7,66.2 h 94.6 c -2.1,3.8 -5.8,8.3 -9.4,11.3 h -85.2 z"
       class="st3" /><path
       style="fill:#4c83c3"
       id="path28"
       d="m 24.1,66.2 h 33 v 11.3 h -33 z"
       class="st3" /><path
       style="fill:#4c83c3"
       id="path30"
       d="m 343.3,87.5 h 32.3 v 11.3 h -32.3 z"
       class="st3" /><path
       style="fill:#4c83c3"
       id="path32"
       d="m 276.2,87.5 h -32.5 v 11.3 h 32.5 c 0,-0.2 0.1,-11.3 0,-11.3 z m 60.6,0 c -0.1,0 -3.8,11.3 -4,11.3 h -46 l -4.1,-11.3 z m -225.1,0 h 85 c 3.9,3.3 7.4,7.2 10.1,11.3 h -95.2 c 0.1,-0.2 0.1,-11.3 0.1,-11.3 z M 57.1,98.6 V 87.4 H 24.2 v 11.3 h 32.9 z"
       class="st3" /><path
       style="fill:#4c83c3"
       id="path34"
       d="m 343.3,108.7 h 32.3 V 120 h -32.3 z"
       class="st3" /><path
       style="fill:#4c83c3"
       id="path36"
       d="m 243.8,108.7 h 32.5 V 120 h -32.5 z"
       class="st3" /><path
       style="fill:#4c83c3"
       id="path38"
       d="m 325.3,119.9 c 0,-0.1 4,-11.3 4.1,-11.3 h -39.1 c -0.1,0 4,11.3 4,11.3 0,0 31,0.1 31,0 z m -213.6,0 v -11.3 h 33.5 v 11.3 z m 99.8,-11.2 c 1.6,3.4 1.8,7.4 2.1,11.3 h -35.5 v -11.3 z"
       class="st3" /><path
       style="fill:#4c83c3"
       id="path40"
       d="m 24.2,108.7 h 33 V 120 h -33 z"
       class="st3" /><path
       style="fill:#4c83c3"
       id="path42"
       d="m 343.3,129.5 h 54 v 11.3 h -54 z"
       class="st3" /><path
       style="fill:#4c83c3"
       id="path44"
       d="m 222.1,129.5 h 54.1 v 11.3 h -54.1 z"
       class="st3" /><path
       style="fill:#4c83c3"
       id="path46"
       d="m 317.9,140.8 h -16.4 l -4,-11.3 h 24.3 z M 2.7,129.5 v 11.3 h 76.8 v -11.3 z m 209.5,0 c -0.8,3.8 -1.6,8.2 -4.3,11.3 H 89.5 v -11.3 z m 98.3,32.6 H 309 l -3.9,-11.3 h 9.3 z"
       class="st3" /><path
       style="fill:#4c83c3"
       id="path48"
       d="m 343.3,150.8 h 54 v 11.3 h -54 z"
       class="st3" /><path
       style="fill:#4c83c3"
       id="path50"
       d="m 89.5,162.1 v -11.3 h 111.2 c -7.4,7.1 -17.6,11.1 -28.6,11.3 H 89.5"
       class="st3" /><path
       style="fill:#4c83c3"
       id="path52"
       d="m 222.1,150.8 h 54.1 v 11.3 h -54.1 z"
       class="st3" /><path
       style="fill:#4c83c3"
       id="path54"
       d="m 79.5,150.8 v 11.3 H 2.7 v -11.3 c 0,0 76.7,0.1 76.8,0 z"
       class="st3" /></g><g
     aria-label="IBM® Service Automation
Suite"
     inkscape:transform-center-x="186.85537"
     style="font-style:normal;font-variant:normal;font-weight:normal;font-stretch:normal;font-size:29.33333397px;line-height:1.25;font-family:sans-serif;-inkscape-font-specification:'sans-serif, Normal';font-variant-ligatures:normal;font-variant-caps:normal;font-variant-numeric:normal;font-feature-settings:normal;text-align:center;letter-spacing:0px;word-spacing:0px;writing-mode:lr-tb;text-anchor:middle;fill:#000000;fill-opacity:1;stroke:none"
     id="text100"><path
       sodipodi:type="inkscape:offset"
       inkscape:radius="0"
       inkscape:original="M 79.123047 180.27539 C 75.704644 180.27539 72.782769 181.48676 70.357422 183.91211 C 67.941623 186.32791 66.734375 189.24566 66.734375 192.66406 C 66.734375 196.08247 67.941623 199.00434 70.357422 201.42969 C 72.782769 203.84549 75.704644 205.05273 79.123047 205.05273 C 82.54145 205.05273 85.459201 203.84549 87.875 201.42969 C 90.300347 199.00434 91.511719 196.08247 91.511719 192.66406 C 91.511719 189.24566 90.300347 186.32791 87.875 183.91211 C 85.459201 181.48676 82.54145 180.27539 79.123047 180.27539 z M 114.15625 180.33203 C 111.83594 180.33203 109.92274 180.90495 108.41406 182.05078 C 106.90538 183.18707 106.15039 184.648 106.15039 186.43359 C 106.15039 187.99001 106.6046 189.25456 107.51172 190.22852 C 108.42839 191.19292 109.83203 191.8763 111.72266 192.27734 C 112.65842 192.46831 113.54037 192.62587 114.37109 192.75 C 115.21137 192.87413 115.99089 193.03168 116.70703 193.22266 C 117.65234 193.47092 118.35417 193.81879 118.8125 194.26758 C 119.28039 194.71636 119.51367 195.41406 119.51367 196.35938 C 119.51367 197.45746 119.02257 198.33529 118.03906 198.99414 C 117.0651 199.65299 115.69835 199.98242 113.94141 199.98242 C 112.70009 199.98242 111.37413 199.73893 109.96094 199.25195 C 108.54774 198.76497 107.30165 198.07335 106.22266 197.17578 L 106.02148 197.17578 L 106.02148 200.72852 C 107.29145 201.29188 108.53755 201.71549 109.75977 202.00195 C 110.99154 202.28841 112.37674 202.43164 113.91406 202.43164 C 115.34635 202.43164 116.56792 202.25976 117.58008 201.91602 C 118.60178 201.57226 119.49392 201.09548 120.25781 200.48438 C 120.95486 199.921 121.49501 199.2335 121.87695 198.42188 C 122.26845 197.61024 122.46484 196.78971 122.46484 195.95898 C 122.46484 194.4312 122.06381 193.2424 121.26172 192.39258 C 120.45964 191.54275 119.26476 190.90647 117.67969 190.48633 C 116.8967 190.28581 115.94314 190.09136 114.81641 189.90039 C 113.68967 189.70942 112.8201 189.54579 112.20898 189.41211 C 111.0536 189.14475 110.2474 188.75803 109.78906 188.25195 C 109.33073 187.74587 109.10156 187.05013 109.10156 186.16211 C 109.10156 185.16906 109.5599 184.35678 110.47656 183.72656 C 111.40278 183.09636 112.62435 182.78125 114.14258 182.78125 C 115.52713 182.78125 116.87761 183.01042 118.19531 183.46875 C 119.52257 183.91754 120.59266 184.48633 121.4043 185.17383 L 121.60547 185.17383 L 121.60547 181.82227 C 120.64106 181.40213 119.53212 181.04818 118.28125 180.76172 C 117.03038 180.47526 115.65538 180.33203 114.15625 180.33203 z M 174.04102 180.57617 L 174.04102 183.36914 L 177.07812 183.36914 L 177.07812 180.57617 L 174.04102 180.57617 z M 350.95703 180.57617 L 350.95703 183.36914 L 353.99414 183.36914 L 353.99414 180.57617 L 350.95703 180.57617 z M 9.1835938 180.71875 L 9.1835938 182.89648 L 11.976562 182.89648 L 11.976562 199.86914 L 9.1835938 199.86914 L 9.1835938 202.04492 L 17.605469 202.04492 L 17.605469 199.86914 L 14.8125 199.86914 L 14.8125 182.89648 L 17.605469 182.89648 L 17.605469 180.71875 L 9.1835938 180.71875 z M 22.460938 180.71875 L 22.460938 202.04492 L 30.023438 202.04492 C 31.503472 202.04492 32.72092 201.91189 33.675781 201.64453 C 34.640191 201.37717 35.524089 200.92903 36.326172 200.29883 C 37.004123 199.77365 37.544271 199.1046 37.945312 198.29297 C 38.346355 197.48134 38.546875 196.54622 38.546875 195.48633 C 38.546875 194.00629 38.131511 192.78277 37.300781 191.81836 C 36.470052 190.8444 35.332465 190.21007 33.890625 189.91406 L 33.890625 189.79883 C 34.75 189.36914 35.4375 188.8023 35.953125 188.0957 C 36.46875 187.37956 36.726562 186.5141 36.726562 185.50195 C 36.726562 184.60438 36.550564 183.83702 36.197266 183.19727 C 35.843967 182.54796 35.275174 182.01802 34.492188 181.60742 C 33.78559 181.24458 33.046875 181.00521 32.273438 180.89062 C 31.5 180.77604 30.333768 180.71875 28.777344 180.71875 L 22.460938 180.71875 z M 42.570312 180.71875 L 42.570312 202.04492 L 45.220703 202.04492 L 45.220703 183.66992 L 51.107422 196.17383 L 52.796875 196.17383 L 58.726562 183.66992 L 58.726562 202.04492 L 61.5625 202.04492 L 61.5625 180.71875 L 57.625 180.71875 L 52.125 192.5918 L 46.4375 180.71875 L 42.570312 180.71875 z M 230.83203 180.71875 L 223.06836 202.04492 L 225.94727 202.04492 L 228.03906 196.10156 L 237.26172 196.10156 L 239.35352 202.04492 L 242.375 202.04492 L 234.61328 180.71875 L 230.83203 180.71875 z M 264.01758 181.44922 L 264.01758 186.04688 L 262.19922 186.04688 L 262.19922 188.31055 L 264.01758 188.31055 L 264.01758 196.81836 C 264.01758 198.75673 264.44314 200.1645 265.29297 201.04297 C 266.1428 201.92144 267.38281 202.36133 269.01562 202.36133 C 269.48351 202.36133 270.01346 202.31836 270.60547 202.23242 C 271.20703 202.14649 271.7615 202.03602 272.26758 201.90234 L 272.26758 199.48242 L 272.125 199.48242 C 271.91493 199.56836 271.57118 199.67687 271.09375 199.81055 C 270.61632 199.93468 270.15798 199.99805 269.71875 199.99805 C 268.96441 199.99805 268.39974 199.91211 268.02734 199.74023 C 267.6645 199.55881 267.37804 199.27648 267.16797 198.89453 C 266.9388 198.48394 266.80578 198.04406 266.76758 197.57617 C 266.72938 197.09875 266.71094 196.43989 266.71094 195.59961 L 266.71094 188.31055 L 272.26758 188.31055 L 272.26758 186.04688 L 266.71094 186.04688 L 266.71094 181.44922 L 264.01758 181.44922 z M 339.58594 181.44922 L 339.58594 186.04688 L 337.76562 186.04688 L 337.76562 188.31055 L 339.58594 188.31055 L 339.58594 196.81836 C 339.58594 198.75673 340.00955 200.1645 340.85938 201.04297 C 341.7092 201.92144 342.95117 202.36133 344.58398 202.36133 C 345.05186 202.36133 345.58181 202.31836 346.17383 202.23242 C 346.77539 202.14649 347.32986 202.03602 347.83594 201.90234 L 347.83594 199.48242 L 347.69141 199.48242 C 347.48133 199.56836 347.13758 199.67687 346.66016 199.81055 C 346.18272 199.93468 345.72439 199.99805 345.28516 199.99805 C 344.53082 199.99805 343.9681 199.91211 343.5957 199.74023 C 343.23286 199.55881 342.94639 199.27648 342.73633 198.89453 C 342.50717 198.48394 342.37414 198.04406 342.33594 197.57617 C 342.29774 197.09875 342.27734 196.43989 342.27734 195.59961 L 342.27734 188.31055 L 347.83594 188.31055 L 347.83594 186.04688 L 342.27734 186.04688 L 342.27734 181.44922 L 339.58594 181.44922 z M 79.123047 181.86523 C 82.083116 181.86523 84.608073 182.92513 86.699219 185.04492 C 88.799913 187.16472 89.851562 189.704 89.851562 192.66406 C 89.851562 195.62414 88.799913 198.16341 86.699219 200.2832 C 84.608073 202.40299 82.083116 203.46289 79.123047 203.46289 C 76.162977 203.46289 73.631944 202.40299 71.53125 200.2832 C 69.440104 198.16341 68.394531 195.62414 68.394531 192.66406 C 68.394531 189.704 69.440104 187.16472 71.53125 185.04492 C 73.631944 182.92513 76.162977 181.86523 79.123047 181.86523 z M 25.296875 183.13867 L 28.677734 183.13867 C 29.623047 183.13867 30.414931 183.17339 31.054688 183.24023 C 31.694445 183.29753 32.238715 183.45508 32.6875 183.71289 C 33.069444 183.93251 33.347656 184.21897 33.519531 184.57227 C 33.691406 184.92556 33.777344 185.35937 33.777344 185.875 C 33.777344 186.49566 33.681206 187.03581 33.490234 187.49414 C 33.308811 187.94293 32.993707 188.30924 32.544922 188.5957 C 32.096137 188.88216 31.609158 189.07444 31.083984 189.16992 C 30.558811 189.25586 29.852865 189.29883 28.964844 189.29883 L 25.296875 189.29883 L 25.296875 183.13867 z M 232.65039 183.19727 L 236.38867 193.66602 L 228.89844 193.66602 L 232.65039 183.19727 z M 133.44922 185.60352 C 131.11935 185.60352 129.23893 186.37088 127.80664 187.9082 C 126.38389 189.44553 125.67188 191.52236 125.67188 194.13867 C 125.67188 196.78364 126.41666 198.82769 127.90625 200.26953 C 129.39583 201.70182 131.46853 202.41797 134.12305 202.41797 C 135.16385 202.41797 136.15625 202.28906 137.10156 202.03125 C 138.04688 201.77344 138.97374 201.45421 139.88086 201.07227 L 139.88086 198.13477 L 139.73828 198.13477 C 139.27039 198.55491 138.48263 198.98459 137.375 199.42383 C 136.27691 199.85351 135.18229 200.06836 134.09375 200.06836 C 133.27257 200.06836 132.51953 199.95378 131.83203 199.72461 C 131.15408 199.49544 130.56684 199.15169 130.07031 198.69336 C 129.55469 198.22548 129.14757 197.62999 128.85156 196.9043 C 128.55556 196.16905 128.4082 195.30968 128.4082 194.32617 L 140.19531 194.32617 L 140.19531 192.86523 C 140.19531 190.54492 139.60807 188.75456 138.43359 187.49414 C 137.26867 186.23373 135.60721 185.60352 133.44922 185.60352 z M 204.20508 185.60352 C 201.87522 185.60352 199.99479 186.37088 198.5625 187.9082 C 197.13976 189.44553 196.42773 191.52236 196.42773 194.13867 C 196.42773 196.78364 197.17253 198.82769 198.66211 200.26953 C 200.1517 201.70182 202.22439 202.41797 204.87891 202.41797 C 205.9197 202.41797 206.91211 202.28906 207.85742 202.03125 C 208.80274 201.77344 209.7296 201.45421 210.63672 201.07227 L 210.63672 198.13477 L 210.49219 198.13477 C 210.02431 198.55491 209.23655 198.98459 208.12891 199.42383 C 207.03081 199.85351 205.93815 200.06836 204.84961 200.06836 C 204.02843 200.06836 203.27344 199.95378 202.58594 199.72461 C 201.90798 199.49544 201.32075 199.15169 200.82422 198.69336 C 200.30859 198.22548 199.90343 197.62999 199.60742 196.9043 C 199.31142 196.16905 199.16406 195.30968 199.16406 194.32617 L 210.95117 194.32617 L 210.95117 192.86523 C 210.95117 190.54492 210.36393 188.75456 209.18945 187.49414 C 208.02453 186.23373 206.36306 185.60352 204.20508 185.60352 z M 281.79297 185.60352 C 279.52995 185.60352 277.72938 186.36263 276.39258 187.88086 C 275.06532 189.38954 274.40234 191.44596 274.40234 194.05273 C 274.40234 196.6595 275.06532 198.71788 276.39258 200.22656 C 277.72938 201.73525 279.52995 202.49023 281.79297 202.49023 C 284.03689 202.49023 285.82726 201.73525 287.16406 200.22656 C 288.50087 198.71788 289.16797 196.6595 289.16797 194.05273 C 289.16797 191.44596 288.50087 189.38954 287.16406 187.88086 C 285.82726 186.36263 284.03689 185.60352 281.79297 185.60352 z M 301.22852 185.60352 C 300.2832 185.60352 299.38911 185.79796 298.54883 186.18945 C 297.7181 186.58095 296.88325 187.12522 296.04297 187.82227 L 296.04297 186.04688 L 293.34961 186.04688 L 293.34961 202.04492 L 296.04297 202.04492 L 296.04297 190.09961 C 296.77822 189.53624 297.51281 189.07378 298.24805 188.71094 C 298.99284 188.34809 299.73351 188.16602 300.46875 188.16602 C 301.24219 188.16602 301.83355 188.27236 302.24414 188.48242 C 302.65473 188.68294 302.96983 188.98784 303.18945 189.39844 C 303.39 189.78038 303.51891 190.29189 303.57617 190.93164 C 303.64301 191.56185 303.67773 192.22895 303.67773 192.93555 L 303.67773 202.04492 L 306.36914 202.04492 L 306.36914 191.80469 C 306.36914 191.51823 306.36086 191.23177 306.3418 190.94531 C 306.32273 190.64931 306.2982 190.39149 306.26953 190.17188 C 307.02387 189.58941 307.77886 189.11263 308.5332 188.74023 C 309.28755 188.35829 310.04253 188.16602 310.79688 188.16602 C 311.57031 188.16602 312.16167 188.27236 312.57227 188.48242 C 312.98285 188.6925 313.29796 189.00152 313.51758 189.41211 C 313.71812 189.79406 313.84703 190.30556 313.9043 190.94531 C 313.97114 191.58507 314.00391 192.24805 314.00391 192.93555 L 314.00391 202.04492 L 316.69727 202.04492 L 316.69727 191.66211 C 316.69727 189.75239 316.27583 188.26693 315.43555 187.20703 C 314.60482 186.13759 313.31163 185.60352 311.55469 185.60352 C 310.53299 185.60352 309.57335 185.80816 308.67578 186.21875 C 307.77821 186.61979 306.78581 187.27865 305.69727 188.19531 C 305.32487 187.38369 304.75607 186.74935 303.99219 186.29102 C 303.23785 185.83268 302.31706 185.60352 301.22852 185.60352 z M 365.4375 185.60352 C 363.17448 185.60352 361.37587 186.36263 360.03906 187.88086 C 358.71181 189.38954 358.04688 191.44596 358.04688 194.05273 C 358.04687 196.6595 358.71181 198.71788 360.03906 200.22656 C 361.37587 201.73525 363.17448 202.49023 365.4375 202.49023 C 367.68143 202.49023 369.47179 201.73525 370.80859 200.22656 C 372.1454 198.71788 372.81445 196.6595 372.81445 194.05273 C 372.81445 191.44596 372.1454 189.38954 370.80859 187.88086 C 369.47179 186.36263 367.68143 185.60352 365.4375 185.60352 z M 385.06055 185.60352 C 384.11523 185.60352 383.19444 185.79796 382.29688 186.18945 C 381.3993 186.58095 380.52973 187.12522 379.68945 187.82227 L 379.68945 186.04688 L 376.99609 186.04688 L 376.99609 202.04492 L 379.68945 202.04492 L 379.68945 190.09961 C 380.4247 189.53624 381.19401 189.07378 381.99609 188.71094 C 382.79818 188.34809 383.56554 188.16602 384.30078 188.16602 C 385.01693 188.16602 385.60004 188.26628 386.04883 188.4668 C 386.49761 188.65777 386.84136 188.95443 387.08008 189.35547 C 387.30924 189.71832 387.46679 190.22374 387.55273 190.87305 C 387.63867 191.51281 387.68164 192.20031 387.68164 192.93555 L 387.68164 202.04492 L 390.375 202.04492 L 390.375 191.66211 C 390.375 189.70464 389.92079 188.20486 389.01367 187.16406 C 388.10656 186.12327 386.78885 185.60352 385.06055 185.60352 z M 327.35352 185.66016 C 326.3891 185.66016 325.41102 185.7461 324.41797 185.91797 C 323.42492 186.08984 322.6658 186.24739 322.14062 186.39062 L 322.14062 189.12695 L 322.2832 189.12695 C 323.20942 188.77366 324.10764 188.50565 324.97656 188.32422 C 325.84549 188.13325 326.63325 188.03711 327.33984 188.03711 C 327.92231 188.03711 328.4809 188.07595 329.01562 188.15234 C 329.55034 188.22873 330.00868 188.37608 330.39062 188.5957 C 330.79167 188.82487 331.09657 189.13998 331.30664 189.54102 C 331.52626 189.94206 331.63672 190.44943 331.63672 191.06055 L 331.63672 191.47461 C 330.07075 191.551 328.60373 191.66559 327.23828 191.81836 C 325.87283 191.97114 324.70443 192.26367 323.73047 192.69336 C 322.76606 193.12305 322.02127 193.71441 321.49609 194.46875 C 320.98047 195.21354 320.72266 196.19162 320.72266 197.4043 C 320.72266 198.88433 321.22396 200.10178 322.22656 201.05664 C 323.22917 202.01151 324.45074 202.49023 325.89258 202.49023 C 326.67556 202.49023 327.35894 202.41255 327.94141 202.25977 C 328.52387 202.11653 329.03949 201.93641 329.48828 201.7168 C 329.87023 201.54492 330.26107 201.31576 330.66211 201.0293 C 331.0727 200.73329 331.39801 200.50412 331.63672 200.3418 L 331.63672 202.04492 L 334.31445 202.04492 L 334.31445 191.18945 C 334.31445 190.15821 334.1569 189.29275 333.8418 188.5957 C 333.52669 187.89865 333.06836 187.33181 332.4668 186.89258 C 331.85568 186.44379 331.12934 186.12869 330.28906 185.94727 C 329.45834 185.75629 328.48025 185.66016 327.35352 185.66016 z M 188.96484 185.67383 C 186.60634 185.67383 184.70747 186.41862 183.26562 187.9082 C 181.83333 189.39778 181.11719 191.45204 181.11719 194.06836 C 181.11719 195.47201 181.30751 196.6977 181.68945 197.74805 C 182.0714 198.79839 182.61155 199.66797 183.30859 200.35547 C 183.99609 201.04297 184.82074 201.55859 185.78516 201.90234 C 186.74956 202.23654 187.80946 202.4043 188.96484 202.4043 C 189.87196 202.4043 190.72721 202.28364 191.5293 202.04492 C 192.34093 201.80621 193.19618 201.47266 194.09375 201.04297 L 194.09375 198.07812 L 193.94922 198.07812 C 193.7487 198.24045 193.47656 198.43685 193.13281 198.66602 C 192.78906 198.88563 192.42274 199.0944 192.03125 199.29492 C 191.58246 199.52409 191.07509 199.71028 190.51172 199.85352 C 189.94835 199.99674 189.39584 200.06836 188.85156 200.06836 C 187.28559 200.06836 186.06814 199.55273 185.19922 198.52148 C 184.33985 197.48068 183.91016 195.99718 183.91016 194.06836 C 183.91016 192.08225 184.3481 190.57834 185.22656 189.55664 C 186.11459 188.52539 187.32379 188.00977 188.85156 188.00977 C 189.6823 188.00977 190.53147 188.18164 191.40039 188.52539 C 192.27886 188.86914 193.12804 189.36025 193.94922 190 L 194.09375 190 L 194.09375 187.00586 C 193.35851 186.63347 192.54623 186.31836 191.6582 186.06055 C 190.77974 185.80273 189.88151 185.67383 188.96484 185.67383 z M 74.482422 185.86133 L 74.482422 198.9668 L 76.845703 198.9668 L 76.845703 193.88086 L 79.166016 193.88086 L 83.90625 198.9668 L 87.101562 198.9668 L 81.601562 193.23633 C 82.546875 192.87348 83.28559 192.3865 83.820312 191.77539 C 84.364584 191.15473 84.636719 190.38129 84.636719 189.45508 C 84.636719 188.75803 84.49349 188.18099 84.207031 187.72266 C 83.930121 187.25477 83.492187 186.85785 82.890625 186.5332 C 82.327257 186.2372 81.75434 186.051 81.171875 185.97461 C 80.58941 185.89822 79.848741 185.86133 78.951172 185.86133 L 74.482422 185.86133 z M 144.27734 186.04688 L 144.27734 202.04492 L 146.9707 202.04492 L 146.9707 190.6875 C 147.68685 190.10503 148.43164 189.63238 149.20508 189.26953 C 149.97852 188.89714 150.7806 188.71094 151.61133 188.71094 C 152.12695 188.71094 152.57097 188.73547 152.94336 188.7832 C 153.32531 188.8214 153.71615 188.88694 154.11719 188.98242 L 154.26172 188.98242 L 154.26172 186.21875 C 153.84158 186.15188 153.52647 186.10891 153.31641 186.08984 C 153.10633 186.06118 152.76671 186.04688 152.29883 186.04688 C 151.449 186.04688 150.61415 186.22895 149.79297 186.5918 C 148.98134 186.9451 148.04015 187.55078 146.9707 188.41016 L 146.9707 186.04688 L 144.27734 186.04688 z M 155.04883 186.04688 L 161.48047 202.04492 L 164.1875 202.04492 L 170.66016 186.04688 L 167.83984 186.04688 L 162.92578 198.7793 L 157.9707 186.04688 L 155.04883 186.04688 z M 174.21289 186.04688 L 174.21289 202.04492 L 176.90625 202.04492 L 176.90625 186.04688 L 174.21289 186.04688 z M 245.2832 186.04688 L 245.2832 196.43164 C 245.2832 198.41775 245.75173 199.92578 246.6875 200.95703 C 247.62326 201.97874 248.93077 202.49023 250.61133 202.49023 C 251.61393 202.49023 252.5306 202.29796 253.36133 201.91602 C 254.19206 201.53407 255.06163 200.98568 255.96875 200.26953 L 255.96875 202.04492 L 258.66016 202.04492 L 258.66016 186.04688 L 255.96875 186.04688 L 255.96875 197.99219 C 255.2526 198.55555 254.47917 199.01801 253.64844 199.38086 C 252.82726 199.74371 252.06814 199.92578 251.37109 199.92578 C 250.58811 199.92578 249.99067 199.82965 249.58008 199.63867 C 249.16949 199.44771 248.83594 199.1428 248.57812 198.72266 C 248.32986 198.31206 248.16623 197.82096 248.08984 197.24805 C 248.01346 196.66558 247.97656 195.96788 247.97656 195.15625 L 247.97656 186.04688 L 245.2832 186.04688 z M 351.12891 186.04688 L 351.12891 202.04492 L 353.82227 202.04492 L 353.82227 186.04688 L 351.12891 186.04688 z M 76.845703 187.65039 L 78.980469 187.65039 C 79.486545 187.65039 79.906033 187.67492 80.240234 187.72266 C 80.574436 187.7704 80.88954 187.87478 81.185547 188.03711 C 81.500651 188.20898 81.725694 188.4299 81.859375 188.69727 C 81.993056 188.96463 82.058594 189.26953 82.058594 189.61328 C 82.058594 190.04297 81.997179 190.40104 81.873047 190.6875 C 81.758464 190.97396 81.55382 191.2359 81.257812 191.47461 C 80.980903 191.69423 80.626954 191.85178 80.197266 191.94727 C 79.767578 192.0332 79.256077 192.07617 78.664062 192.07617 L 76.845703 192.07617 L 76.845703 187.65039 z M 133.30664 187.82227 C 134.73893 187.82227 135.80295 188.20899 136.5 188.98242 C 137.20661 189.75586 137.56469 190.85048 137.57422 192.26367 L 128.4082 192.26367 C 128.52278 191.00326 129.00564 189.94748 129.85547 189.09766 C 130.71485 188.24783 131.8648 187.82227 133.30664 187.82227 z M 204.0625 187.82227 C 205.49479 187.82227 206.55881 188.20899 207.25586 188.98242 C 207.96247 189.75586 208.32054 190.85048 208.33008 192.26367 L 199.16406 192.26367 C 199.27865 191.00326 199.75955 189.94748 200.60938 189.09766 C 201.46875 188.24783 202.62066 187.82227 204.0625 187.82227 z M 281.79297 187.92383 C 283.23481 187.92383 284.36024 188.42925 285.17188 189.44141 C 285.98351 190.44401 286.39062 191.98068 286.39062 194.05273 C 286.39063 196.07704 285.97939 197.60547 285.1582 198.63672 C 284.34658 199.65842 283.22526 200.16992 281.79297 200.16992 C 280.34158 200.16992 279.21007 199.65429 278.39844 198.62305 C 277.5868 197.58225 277.17969 196.05794 277.17969 194.05273 C 277.17969 191.98068 277.58073 190.44401 278.38281 189.44141 C 279.19444 188.42925 280.33203 187.92383 281.79297 187.92383 z M 365.4375 187.92383 C 366.87934 187.92383 368.00673 188.42925 368.81836 189.44141 C 369.62999 190.44401 370.03516 191.98068 370.03516 194.05273 C 370.03516 196.07704 369.62587 197.60547 368.80469 198.63672 C 367.99305 199.65842 366.86979 200.16992 365.4375 200.16992 C 363.98611 200.16992 362.8546 199.65429 362.04297 198.62305 C 361.23134 197.58225 360.82617 196.05794 360.82617 194.05273 C 360.82617 191.98068 361.22721 190.44401 362.0293 189.44141 C 362.84093 188.42925 363.97657 187.92383 365.4375 187.92383 z M 25.296875 191.68945 L 29.751953 191.68945 C 30.687717 191.68945 31.479601 191.7283 32.128906 191.80469 C 32.78776 191.87153 33.346354 192.02496 33.804688 192.26367 C 34.482639 192.61697 34.951172 193.04665 35.208984 193.55273 C 35.466797 194.05881 35.595703 194.74024 35.595703 195.59961 C 35.595703 196.35395 35.47092 196.96983 35.222656 197.44727 C 34.974392 197.92469 34.58355 198.35026 34.048828 198.72266 C 33.542751 199.0664 32.894097 199.30577 32.101562 199.43945 C 31.309028 199.56359 30.292101 199.625 29.050781 199.625 L 25.296875 199.625 L 25.296875 191.68945 z M 331.63672 193.65234 L 331.63672 198.10742 C 330.96831 198.62305 330.24196 199.06706 329.45898 199.43945 C 328.676 199.8023 327.8125 199.98242 326.86719 199.98242 C 325.7309 199.98242 324.88585 199.75326 324.33203 199.29492 C 323.77821 198.82704 323.5 198.13542 323.5 197.21875 C 323.5 196.40712 323.73936 195.77279 324.2168 195.31445 C 324.69422 194.84657 325.32031 194.50282 326.09375 194.2832 C 326.74306 194.10178 327.62088 193.96267 328.72852 193.86719 C 329.8457 193.77169 330.81554 193.70008 331.63672 193.65234 z M 172.25 216.99805 C 169.92969 216.99805 168.01649 217.57096 166.50781 218.7168 C 164.99913 219.85308 164.24414 221.31402 164.24414 223.09961 C 164.24414 224.65604 164.69836 225.92252 165.60547 226.89648 C 166.52214 227.86089 167.92578 228.54232 169.81641 228.94336 C 170.75217 229.13433 171.63412 229.29188 172.46484 229.41602 C 173.30512 229.54015 174.08463 229.6977 174.80078 229.88867 C 175.74609 230.13693 176.44792 230.48676 176.90625 230.93555 C 177.37414 231.38433 177.60742 232.08008 177.60742 233.02539 C 177.60742 234.12348 177.11632 235.00326 176.13281 235.66211 C 175.15885 236.32096 173.7921 236.65039 172.03516 236.65039 C 170.79384 236.65039 169.46788 236.4069 168.05469 235.91992 C 166.64149 235.43294 165.3954 234.73936 164.31641 233.8418 L 164.11523 233.8418 L 164.11523 237.39453 C 165.3852 237.9579 166.6313 238.38347 167.85352 238.66992 C 169.08529 238.95638 170.47049 239.09961 172.00781 239.09961 C 173.4401 239.09961 174.66167 238.92773 175.67383 238.58398 C 176.69553 238.24023 177.58768 237.7615 178.35156 237.15039 C 179.04861 236.58702 179.58876 235.89952 179.9707 235.08789 C 180.3622 234.27626 180.55859 233.45573 180.55859 232.625 C 180.55859 231.09723 180.15756 229.90842 179.35547 229.05859 C 178.55339 228.20877 177.35851 227.57444 175.77344 227.1543 C 174.99045 226.95378 174.03689 226.75738 172.91016 226.56641 C 171.78342 226.37543 170.91385 226.21376 170.30273 226.08008 C 169.14735 225.81272 168.34115 225.426 167.88281 224.91992 C 167.42448 224.41385 167.19531 223.71614 167.19531 222.82812 C 167.19531 221.83507 167.65365 221.02278 168.57031 220.39258 C 169.49653 219.76237 170.7181 219.44727 172.23633 219.44727 C 173.62088 219.44727 174.97136 219.67643 176.28906 220.13477 C 177.61632 220.58355 178.68641 221.15234 179.49805 221.83984 L 179.69922 221.83984 L 179.69922 218.48828 C 178.73481 218.06815 177.62587 217.71419 176.375 217.42773 C 175.12413 217.14127 173.74913 216.99805 172.25 216.99805 z M 203.31641 217.24219 L 203.31641 220.03516 L 206.35352 220.03516 L 206.35352 217.24219 L 203.31641 217.24219 z M 211.5957 218.11523 L 211.5957 222.71289 L 209.77734 222.71289 L 209.77734 224.97656 L 211.5957 224.97656 L 211.5957 233.48438 C 211.5957 235.42274 212.02127 236.83051 212.87109 237.70898 C 213.72092 238.58746 214.96094 239.02734 216.59375 239.02734 C 217.06163 239.02734 217.59158 238.98438 218.18359 238.89844 C 218.78516 238.8125 219.33963 238.70204 219.8457 238.56836 L 219.8457 236.14844 L 219.70312 236.14844 C 219.49306 236.23438 219.14931 236.34484 218.67188 236.47852 C 218.19445 236.60265 217.73612 236.66406 217.29688 236.66406 C 216.54253 236.66406 215.97786 236.57813 215.60547 236.40625 C 215.24262 236.22483 214.95617 235.94249 214.74609 235.56055 C 214.51693 235.14996 214.3839 234.71203 214.3457 234.24414 C 214.3075 233.76671 214.28906 233.10786 214.28906 232.26758 L 214.28906 224.97656 L 219.8457 224.97656 L 219.8457 222.71289 L 214.28906 222.71289 L 214.28906 218.11523 L 211.5957 218.11523 z M 229.75781 222.26953 C 227.42795 222.26953 225.54557 223.03885 224.11328 224.57617 C 222.69053 226.1135 221.98047 228.19032 221.98047 230.80664 C 221.98047 233.45161 222.72526 235.49371 224.21484 236.93555 C 225.70442 238.36784 227.77517 239.08398 230.42969 239.08398 C 231.47049 239.08398 232.46484 238.95508 233.41016 238.69727 C 234.35547 238.43945 235.28038 238.12023 236.1875 237.73828 L 236.1875 234.80273 L 236.04492 234.80273 C 235.57704 235.22287 234.78927 235.65256 233.68164 236.0918 C 232.58355 236.52148 231.49088 236.73633 230.40234 236.73633 C 229.58116 236.73633 228.82617 236.62174 228.13867 236.39258 C 227.46072 236.16341 226.87348 235.81966 226.37695 235.36133 C 225.86133 234.89345 225.45616 234.29601 225.16016 233.57031 C 224.86415 232.83507 224.71484 231.97569 224.71484 230.99219 L 236.50391 230.99219 L 236.50391 229.53125 C 236.50391 227.21094 235.91667 225.42057 234.74219 224.16016 C 233.57726 222.89974 231.9158 222.26953 229.75781 222.26953 z M 184.7832 222.71289 L 184.7832 233.09766 C 184.7832 235.08377 185.25174 236.5918 186.1875 237.62305 C 187.12327 238.64475 188.43077 239.15625 190.11133 239.15625 C 191.11393 239.15625 192.0306 238.96592 192.86133 238.58398 C 193.69206 238.20204 194.56164 237.65169 195.46875 236.93555 L 195.46875 238.71289 L 198.16016 238.71289 L 198.16016 222.71289 L 195.46875 222.71289 L 195.46875 234.6582 C 194.75261 235.22157 193.97917 235.68598 193.14844 236.04883 C 192.32726 236.41167 191.56814 236.5918 190.87109 236.5918 C 190.08811 236.5918 189.49067 236.49761 189.08008 236.30664 C 188.66949 236.11567 188.33594 235.80881 188.07812 235.38867 C 187.82986 234.97808 187.66623 234.48698 187.58984 233.91406 C 187.51346 233.3316 187.47656 232.6339 187.47656 231.82227 L 187.47656 222.71289 L 184.7832 222.71289 z M 203.48828 222.71289 L 203.48828 238.71289 L 206.18164 238.71289 L 206.18164 222.71289 L 203.48828 222.71289 z M 229.61328 224.49023 C 231.04557 224.49023 232.11154 224.87696 232.80859 225.65039 C 233.51521 226.42383 233.87328 227.51649 233.88281 228.92969 L 224.71484 228.92969 C 224.82942 227.66927 225.31228 226.6135 226.16211 225.76367 C 227.02149 224.91385 228.17144 224.49023 229.61328 224.49023 z "
       id="path158"
       d="m 79.123047,180.27539 c -3.418403,0 -6.340278,1.21137 -8.765625,3.63672 -2.415799,2.4158 -3.623047,5.33355 -3.623047,8.75195 0,3.41841 1.207248,6.34028 3.623047,8.76563 2.425347,2.4158 5.347222,3.62304 8.765625,3.62304 3.418403,0 6.336154,-1.20724 8.751953,-3.62304 2.425347,-2.42535 3.636719,-5.34722 3.636719,-8.76563 0,-3.4184 -1.211372,-6.33615 -3.636719,-8.75195 -2.415799,-2.42535 -5.33355,-3.63672 -8.751953,-3.63672 z m 35.033203,0.0566 c -2.32031,0 -4.23351,0.57292 -5.74219,1.71875 -1.50868,1.13629 -2.26367,2.59722 -2.26367,4.38281 0,1.55642 0.45421,2.82097 1.36133,3.79493 0.91667,0.9644 2.32031,1.64778 4.21094,2.04882 0.93576,0.19097 1.81771,0.34853 2.64843,0.47266 0.84028,0.12413 1.6198,0.28168 2.33594,0.47266 0.94531,0.24826 1.64714,0.59613 2.10547,1.04492 0.46789,0.44878 0.70117,1.14648 0.70117,2.0918 0,1.09808 -0.4911,1.97591 -1.47461,2.63476 -0.97396,0.65885 -2.34071,0.98828 -4.09765,0.98828 -1.24132,0 -2.56728,-0.24349 -3.98047,-0.73047 -1.4132,-0.48698 -2.65929,-1.1786 -3.73828,-2.07617 h -0.20118 v 3.55274 c 1.26997,0.56336 2.51607,0.98697 3.73829,1.27343 1.23177,0.28646 2.61697,0.42969 4.15429,0.42969 1.43229,0 2.65386,-0.17188 3.66602,-0.51562 1.0217,-0.34376 1.91384,-0.82054 2.67773,-1.43164 0.69705,-0.56338 1.2372,-1.25088 1.61914,-2.0625 0.3915,-0.81164 0.58789,-1.63217 0.58789,-2.4629 0,-1.52778 -0.40103,-2.71658 -1.20312,-3.5664 -0.80208,-0.84983 -1.99696,-1.48611 -3.58203,-1.90625 -0.78299,-0.20052 -1.73655,-0.39497 -2.86328,-0.58594 -1.12674,-0.19097 -1.99631,-0.3546 -2.60743,-0.48828 -1.15538,-0.26736 -1.96158,-0.65408 -2.41992,-1.16016 -0.45833,-0.50608 -0.6875,-1.20182 -0.6875,-2.08984 0,-0.99305 0.45834,-1.80533 1.375,-2.43555 0.92622,-0.6302 2.14779,-0.94531 3.66602,-0.94531 1.38455,0 2.73503,0.22917 4.05273,0.6875 1.32726,0.44879 2.39735,1.01758 3.20899,1.70508 h 0.20117 v -3.35156 c -0.96441,-0.42014 -2.07335,-0.77409 -3.32422,-1.06055 -1.25087,-0.28646 -2.62587,-0.42969 -4.125,-0.42969 z m 59.88477,0.24414 v 2.79297 h 3.0371 v -2.79297 z m 176.91601,0 v 2.79297 h 3.03711 v -2.79297 z M 9.1835938,180.71875 v 2.17773 h 2.7929682 v 16.97266 H 9.1835938 v 2.17578 h 8.4218752 v -2.17578 H 14.8125 v -16.97266 h 2.792969 v -2.17773 z m 13.2773442,0 v 21.32617 h 7.5625 c 1.480034,0 2.697482,-0.13303 3.652343,-0.40039 0.96441,-0.26736 1.848308,-0.7155 2.650391,-1.3457 0.677951,-0.52518 1.218099,-1.19423 1.61914,-2.00586 0.401043,-0.81163 0.601563,-1.74675 0.601563,-2.80664 0,-1.48004 -0.415364,-2.70356 -1.246094,-3.66797 -0.830729,-0.97396 -1.968316,-1.60829 -3.410156,-1.9043 v -0.11523 c 0.859375,-0.42969 1.546875,-0.99653 2.0625,-1.70313 0.515625,-0.71614 0.773437,-1.5816 0.773437,-2.59375 0,-0.89757 -0.175998,-1.66493 -0.529296,-2.30468 -0.353299,-0.64931 -0.922092,-1.17925 -1.705078,-1.58985 -0.706598,-0.36284 -1.445313,-0.60221 -2.21875,-0.7168 -0.773438,-0.11458 -1.93967,-0.17187 -3.496094,-0.17187 z m 20.109374,0 v 21.32617 h 2.650391 v -18.375 l 5.886719,12.50391 h 1.689453 l 5.929687,-12.50391 v 18.375 H 61.5625 V 180.71875 H 57.625 l -5.5,11.87305 -5.6875,-11.87305 z m 188.261718,0 -7.76367,21.32617 h 2.87891 l 2.09179,-5.94336 h 9.22266 l 2.0918,5.94336 h 3.02148 l -7.76172,-21.32617 z m 33.18555,0.73047 v 4.59766 h -1.81836 v 2.26367 h 1.81836 v 8.50781 c 0,1.93837 0.42556,3.34614 1.27539,4.22461 0.84983,0.87847 2.08984,1.31836 3.72265,1.31836 0.46789,0 0.99784,-0.043 1.58985,-0.12891 0.60156,-0.0859 1.15603,-0.1964 1.66211,-0.33008 v -2.41992 H 272.125 c -0.21007,0.0859 -0.55382,0.19445 -1.03125,0.32813 -0.47743,0.12413 -0.93577,0.1875 -1.375,0.1875 -0.75434,0 -1.31901,-0.0859 -1.69141,-0.25782 -0.36284,-0.18142 -0.6493,-0.46375 -0.85937,-0.8457 -0.22917,-0.41059 -0.36219,-0.85047 -0.40039,-1.31836 -0.0382,-0.47742 -0.0566,-1.13628 -0.0566,-1.97656 v -7.28906 h 5.55664 v -2.26367 h -5.55664 v -4.59766 z m 75.56836,0 v 4.59766 h -1.82032 v 2.26367 h 1.82032 v 8.50781 c 0,1.93837 0.42361,3.34614 1.27344,4.22461 0.84982,0.87847 2.09179,1.31836 3.7246,1.31836 0.46788,0 0.99783,-0.043 1.58985,-0.12891 0.60156,-0.0859 1.15603,-0.1964 1.66211,-0.33008 v -2.41992 h -0.14453 c -0.21008,0.0859 -0.55383,0.19445 -1.03125,0.32813 -0.47744,0.12413 -0.93577,0.1875 -1.375,0.1875 -0.75434,0 -1.31706,-0.0859 -1.68946,-0.25782 -0.36284,-0.18142 -0.64931,-0.46375 -0.85937,-0.8457 -0.22916,-0.41059 -0.36219,-0.85047 -0.40039,-1.31836 -0.0382,-0.47742 -0.0586,-1.13628 -0.0586,-1.97656 v -7.28906 h 5.5586 v -2.26367 h -5.5586 v -4.59766 z m -260.462893,0.41601 c 2.960069,0 5.485026,1.0599 7.576172,3.17969 2.100694,2.1198 3.152343,4.65908 3.152343,7.61914 0,2.96008 -1.051649,5.49935 -3.152343,7.61914 -2.091146,2.11979 -4.616103,3.17969 -7.576172,3.17969 -2.96007,0 -5.491103,-1.0599 -7.591797,-3.17969 -2.091146,-2.11979 -3.136719,-4.65906 -3.136719,-7.61914 0,-2.96006 1.045573,-5.49934 3.136719,-7.61914 2.100694,-2.11979 4.631727,-3.17969 7.591797,-3.17969 z m -53.826172,1.27344 h 3.380859 c 0.945313,0 1.737197,0.0347 2.376954,0.10156 0.639757,0.0573 1.184027,0.21485 1.632812,0.47266 0.381944,0.21962 0.660156,0.50608 0.832031,0.85938 0.171875,0.35329 0.257813,0.7871 0.257813,1.30273 0,0.62066 -0.09614,1.16081 -0.28711,1.61914 -0.181423,0.44879 -0.496527,0.8151 -0.945312,1.10156 -0.448785,0.28646 -0.935764,0.47874 -1.460938,0.57422 -0.525173,0.0859 -1.231119,0.12891 -2.11914,0.12891 h -3.667969 z m 207.353515,0.0586 3.73828,10.46875 h -7.49023 z m -99.20117,2.40625 c -2.32987,0 -4.21029,0.76736 -5.64258,2.30468 -1.42275,1.53733 -2.13476,3.61416 -2.13476,6.23047 0,2.64497 0.74478,4.68902 2.23437,6.13086 1.48958,1.43229 3.56228,2.14844 6.2168,2.14844 1.0408,0 2.0332,-0.12891 2.97851,-0.38672 0.94532,-0.25781 1.87218,-0.57704 2.7793,-0.95898 v -2.9375 h -0.14258 c -0.46789,0.42014 -1.25565,0.84982 -2.36328,1.28906 -1.09809,0.42968 -2.19271,0.64453 -3.28125,0.64453 -0.82118,0 -1.57422,-0.11458 -2.26172,-0.34375 -0.67795,-0.22917 -1.26519,-0.57292 -1.76172,-1.03125 -0.51562,-0.46788 -0.92274,-1.06337 -1.21875,-1.78906 -0.296,-0.73525 -0.44336,-1.59462 -0.44336,-2.57813 h 11.78711 v -1.46094 c 0,-2.32031 -0.58724,-4.11067 -1.76172,-5.37109 -1.16492,-1.26041 -2.82638,-1.89062 -4.98437,-1.89062 z m 70.75586,0 c -2.32986,0 -4.21029,0.76736 -5.64258,2.30468 -1.42274,1.53733 -2.13477,3.61416 -2.13477,6.23047 0,2.64497 0.7448,4.68902 2.23438,6.13086 1.48959,1.43229 3.56228,2.14844 6.2168,2.14844 1.04079,0 2.0332,-0.12891 2.97851,-0.38672 0.94532,-0.25781 1.87218,-0.57704 2.7793,-0.95898 v -2.9375 h -0.14453 c -0.46788,0.42014 -1.25564,0.84982 -2.36328,1.28906 -1.0981,0.42968 -2.19076,0.64453 -3.2793,0.64453 -0.82118,0 -1.57617,-0.11458 -2.26367,-0.34375 -0.67796,-0.22917 -1.26519,-0.57292 -1.76172,-1.03125 -0.51563,-0.46788 -0.92079,-1.06337 -1.2168,-1.78906 -0.296,-0.73525 -0.44336,-1.59462 -0.44336,-2.57813 h 11.78711 v -1.46094 c 0,-2.32031 -0.58724,-4.11067 -1.76172,-5.37109 -1.16492,-1.26041 -2.82639,-1.89062 -4.98437,-1.89062 z m 77.58789,0 c -2.26302,0 -4.06359,0.75911 -5.40039,2.27734 -1.32726,1.50868 -1.99024,3.5651 -1.99024,6.17187 0,2.60677 0.66298,4.66515 1.99024,6.17383 1.3368,1.50869 3.13737,2.26367 5.40039,2.26367 2.24392,0 4.03429,-0.75498 5.37109,-2.26367 1.33681,-1.50868 2.00391,-3.56706 2.00391,-6.17383 0,-2.60677 -0.6671,-4.66319 -2.00391,-6.17187 -1.3368,-1.51823 -3.12717,-2.27734 -5.37109,-2.27734 z m 19.43555,0 c -0.94532,0 -1.83941,0.19444 -2.67969,0.58593 -0.83073,0.3915 -1.66558,0.93577 -2.50586,1.63282 v -1.77539 h -2.69336 v 15.99804 h 2.69336 v -11.94531 c 0.73525,-0.56337 1.46984,-1.02583 2.20508,-1.38867 0.74479,-0.36285 1.48546,-0.54492 2.2207,-0.54492 0.77344,0 1.3648,0.10634 1.77539,0.3164 0.41059,0.20052 0.72569,0.50542 0.94531,0.91602 0.20055,0.38194 0.32946,0.89345 0.38672,1.5332 0.0668,0.63021 0.10156,1.29731 0.10156,2.00391 v 9.10937 h 2.69141 v -10.24023 c 0,-0.28646 -0.008,-0.57292 -0.0273,-0.85938 -0.0191,-0.296 -0.0436,-0.55382 -0.0723,-0.77343 0.75434,-0.58247 1.50933,-1.05925 2.26367,-1.43165 0.75435,-0.38194 1.50933,-0.57421 2.26368,-0.57421 0.77343,0 1.36479,0.10634 1.77539,0.3164 0.41058,0.21008 0.72569,0.5191 0.94531,0.92969 0.20054,0.38195 0.32945,0.89345 0.38672,1.5332 0.0668,0.63976 0.0996,1.30274 0.0996,1.99024 v 9.10937 h 2.69336 v -10.38281 c 0,-1.90972 -0.42144,-3.39518 -1.26172,-4.45508 -0.83073,-1.06944 -2.12392,-1.60351 -3.88086,-1.60351 -1.0217,0 -1.98134,0.20464 -2.87891,0.61523 -0.89757,0.40104 -1.88997,1.0599 -2.97851,1.97656 -0.3724,-0.81162 -0.9412,-1.44596 -1.70508,-1.90429 -0.75434,-0.45834 -1.67513,-0.6875 -2.76367,-0.6875 z m 64.20898,0 c -2.26302,0 -4.06163,0.75911 -5.39844,2.27734 -1.32725,1.50868 -1.99218,3.5651 -1.99218,6.17187 -10e-6,2.60677 0.66493,4.66515 1.99218,6.17383 1.33681,1.50869 3.13542,2.26367 5.39844,2.26367 2.24393,0 4.03429,-0.75498 5.37109,-2.26367 1.33681,-1.50868 2.00586,-3.56706 2.00586,-6.17383 0,-2.60677 -0.66905,-4.66319 -2.00586,-6.17187 -1.3368,-1.51823 -3.12716,-2.27734 -5.37109,-2.27734 z m 19.62305,0 c -0.94532,0 -1.86611,0.19444 -2.76367,0.58593 -0.89758,0.3915 -1.76715,0.93577 -2.60743,1.63282 v -1.77539 h -2.69336 v 15.99804 h 2.69336 v -11.94531 c 0.73525,-0.56337 1.50456,-1.02583 2.30664,-1.38867 0.80209,-0.36285 1.56945,-0.54492 2.30469,-0.54492 0.71615,0 1.29926,0.10026 1.74805,0.30078 0.44878,0.19097 0.79253,0.48763 1.03125,0.88867 0.22916,0.36285 0.38671,0.86827 0.47265,1.51758 0.0859,0.63976 0.12891,1.32726 0.12891,2.0625 v 9.10937 h 2.69336 v -10.38281 c 0,-1.95747 -0.45421,-3.45725 -1.36133,-4.49805 -0.90711,-1.04079 -2.22482,-1.56054 -3.95312,-1.56054 z m -57.70703,0.0566 c -0.96442,0 -1.9425,0.0859 -2.93555,0.25781 -0.99305,0.17187 -1.75217,0.32942 -2.27735,0.47265 v 2.73633 h 0.14258 c 0.92622,-0.35329 1.82444,-0.6213 2.69336,-0.80273 0.86893,-0.19097 1.65669,-0.28711 2.36328,-0.28711 0.58247,0 1.14106,0.0388 1.67578,0.11523 0.53472,0.0764 0.99306,0.22374 1.375,0.44336 0.40105,0.22917 0.70595,0.54428 0.91602,0.94532 0.21962,0.40104 0.33008,0.90841 0.33008,1.51953 v 0.41406 c -1.56597,0.0764 -3.03299,0.19098 -4.39844,0.34375 -1.36545,0.15278 -2.53385,0.44531 -3.50781,0.875 -0.96441,0.42969 -1.7092,1.02105 -2.23438,1.77539 -0.51562,0.74479 -0.77343,1.72287 -0.77343,2.93555 0,1.48003 0.5013,2.69748 1.5039,3.65234 1.00261,0.95487 2.22418,1.43359 3.66602,1.43359 0.78298,0 1.46636,-0.0777 2.04883,-0.23046 0.58246,-0.14324 1.09808,-0.32336 1.54687,-0.54297 0.38195,-0.17188 0.77279,-0.40104 1.17383,-0.6875 0.41059,-0.29601 0.7359,-0.52518 0.97461,-0.6875 v 1.70312 h 2.67773 v -10.85547 c 0,-1.03124 -0.15755,-1.8967 -0.47265,-2.59375 -0.31511,-0.69705 -0.77344,-1.26389 -1.375,-1.70312 -0.61112,-0.44879 -1.33746,-0.76389 -2.17774,-0.94531 -0.83072,-0.19098 -1.80881,-0.28711 -2.93554,-0.28711 z m -138.38868,0.0137 c -2.3585,0 -4.25737,0.74479 -5.69922,2.23437 -1.43229,1.48958 -2.14843,3.54384 -2.14843,6.16016 0,1.40365 0.19032,2.62934 0.57226,3.67969 0.38195,1.05034 0.9221,1.91992 1.61914,2.60742 0.6875,0.6875 1.51215,1.20312 2.47657,1.54687 0.9644,0.3342 2.0243,0.50196 3.17968,0.50196 0.90712,0 1.76237,-0.12066 2.56446,-0.35938 0.81163,-0.23871 1.66688,-0.57226 2.56445,-1.00195 v -2.96485 h -0.14453 c -0.20052,0.16233 -0.47266,0.35873 -0.81641,0.5879 -0.34375,0.21961 -0.71007,0.42838 -1.10156,0.6289 -0.44879,0.22917 -0.95616,0.41536 -1.51953,0.5586 -0.56337,0.14322 -1.11588,0.21484 -1.66016,0.21484 -1.56597,0 -2.78342,-0.51563 -3.65234,-1.54688 -0.85937,-1.0408 -1.28906,-2.5243 -1.28906,-4.45312 0,-1.98611 0.43794,-3.49002 1.3164,-4.51172 0.88803,-1.03125 2.09723,-1.54687 3.625,-1.54687 0.83074,0 1.67991,0.17187 2.54883,0.51562 0.87847,0.34375 1.72765,0.83486 2.54883,1.47461 h 0.14453 v -2.99414 c -0.73524,-0.37239 -1.54752,-0.6875 -2.43555,-0.94531 -0.87846,-0.25782 -1.77669,-0.38672 -2.69336,-0.38672 z m -114.482418,0.1875 v 13.10547 h 2.363281 v -5.08594 h 2.320313 l 4.740234,5.08594 h 3.195312 l -5.5,-5.73047 c 0.945313,-0.36285 1.684028,-0.84983 2.21875,-1.46094 0.544272,-0.62066 0.816407,-1.3941 0.816407,-2.32031 0,-0.69705 -0.143229,-1.27409 -0.429688,-1.73242 -0.27691,-0.46789 -0.714844,-0.86481 -1.316406,-1.18946 -0.563368,-0.296 -1.136285,-0.4822 -1.71875,-0.55859 -0.582465,-0.0764 -1.323134,-0.11328 -2.220703,-0.11328 z m 69.794918,0.18555 v 15.99804 h 2.69336 V 190.6875 c 0.71615,-0.58247 1.46094,-1.05512 2.23438,-1.41797 0.77344,-0.37239 1.57552,-0.55859 2.40625,-0.55859 0.51562,0 0.95964,0.0245 1.33203,0.0723 0.38195,0.0382 0.77279,0.10374 1.17383,0.19922 h 0.14453 v -2.76367 c -0.42014,-0.0669 -0.73525,-0.10984 -0.94531,-0.12891 -0.21008,-0.0287 -0.5497,-0.043 -1.01758,-0.043 -0.84983,0 -1.68468,0.18207 -2.50586,0.54492 -0.81163,0.3533 -1.75282,0.95898 -2.82227,1.81836 v -2.36328 z m 10.77149,0 6.43164,15.99804 h 2.70703 l 6.47266,-15.99804 h -2.82032 l -4.91406,12.73242 -4.95508,-12.73242 z m 19.16406,0 v 15.99804 h 2.69336 v -15.99804 z m 71.07031,0 v 10.38476 c 0,1.98611 0.46853,3.49414 1.4043,4.52539 0.93576,1.02171 2.24327,1.5332 3.92383,1.5332 1.0026,0 1.91927,-0.19227 2.75,-0.57421 0.83073,-0.38195 1.7003,-0.93034 2.60742,-1.64649 v 1.77539 h 2.69141 v -15.99804 h -2.69141 v 11.94531 c -0.71615,0.56336 -1.48958,1.02582 -2.32031,1.38867 -0.82118,0.36285 -1.5803,0.54492 -2.27735,0.54492 -0.78298,0 -1.38042,-0.0961 -1.79101,-0.28711 -0.41059,-0.19096 -0.74414,-0.49587 -1.00196,-0.91601 -0.24826,-0.4106 -0.41189,-0.9017 -0.48828,-1.47461 -0.0764,-0.58247 -0.11328,-1.28017 -0.11328,-2.0918 v -9.10937 z m 105.84571,0 v 15.99804 h 2.69336 v -15.99804 z m -274.283207,1.60351 h 2.134766 c 0.506076,0 0.925564,0.0245 1.259765,0.0723 0.334202,0.0477 0.649306,0.15212 0.945313,0.31445 0.315104,0.17187 0.540147,0.39279 0.673828,0.66016 0.133681,0.26736 0.199219,0.57226 0.199219,0.91601 0,0.42969 -0.06141,0.78776 -0.185547,1.07422 -0.114583,0.28646 -0.319227,0.5484 -0.615235,0.78711 -0.276909,0.21962 -0.630858,0.37717 -1.060546,0.47266 -0.429688,0.0859 -0.941189,0.1289 -1.533204,0.1289 h -1.818359 z m 56.460937,0.17188 c 1.43229,0 2.49631,0.38672 3.19336,1.16015 0.70661,0.77344 1.06469,1.86806 1.07422,3.28125 h -9.16602 c 0.11458,-1.26041 0.59744,-2.31619 1.44727,-3.16601 0.85938,-0.84983 2.00933,-1.27539 3.45117,-1.27539 z m 70.75586,0 c 1.43229,0 2.49631,0.38672 3.19336,1.16015 0.70661,0.77344 1.06468,1.86806 1.07422,3.28125 h -9.16602 c 0.11459,-1.26041 0.59549,-2.31619 1.44532,-3.16601 0.85937,-0.84983 2.01128,-1.27539 3.45312,-1.27539 z m 77.73047,0.10156 c 1.44184,0 2.56727,0.50542 3.37891,1.51758 0.81163,1.0026 1.21874,2.53927 1.21874,4.61132 10e-6,2.02431 -0.41123,3.55274 -1.23242,4.58399 -0.81162,1.0217 -1.93294,1.5332 -3.36523,1.5332 -1.45139,0 -2.5829,-0.51563 -3.39453,-1.54687 -0.81164,-1.0408 -1.21875,-2.56511 -1.21875,-4.57032 0,-2.07205 0.40104,-3.60872 1.20312,-4.61132 0.81163,-1.01216 1.94922,-1.51758 3.41016,-1.51758 z m 83.64453,0 c 1.44184,0 2.56923,0.50542 3.38086,1.51758 0.81163,1.0026 1.2168,2.53927 1.2168,4.61132 0,2.02431 -0.40929,3.55274 -1.23047,4.58399 -0.81164,1.0217 -1.9349,1.5332 -3.36719,1.5332 -1.45139,0 -2.5829,-0.51563 -3.39453,-1.54687 -0.81163,-1.0408 -1.2168,-2.56511 -1.2168,-4.57032 0,-2.07205 0.40104,-3.60872 1.20313,-4.61132 0.81163,-1.01216 1.94727,-1.51758 3.4082,-1.51758 z m -340.140625,3.76562 h 4.455078 c 0.935764,0 1.727648,0.0388 2.376953,0.11524 0.658854,0.0668 1.217448,0.22027 1.675782,0.45898 0.677951,0.3533 1.146484,0.78298 1.404296,1.28906 0.257813,0.50608 0.386719,1.18751 0.386719,2.04688 0,0.75434 -0.124783,1.37022 -0.373047,1.84766 -0.248264,0.47742 -0.639106,0.90299 -1.173828,1.27539 -0.506077,0.34374 -1.154731,0.58311 -1.947266,0.71679 -0.792534,0.12414 -1.809461,0.18555 -3.050781,0.18555 h -3.753906 z m 306.339845,1.96289 v 4.45508 c -0.66841,0.51563 -1.39476,0.95964 -2.17774,1.33203 -0.78298,0.36285 -1.64648,0.54297 -2.59179,0.54297 -1.13629,0 -1.98134,-0.22916 -2.53516,-0.6875 -0.55382,-0.46788 -0.83203,-1.1595 -0.83203,-2.07617 0,-0.81163 0.23936,-1.44596 0.7168,-1.9043 0.47742,-0.46788 1.10351,-0.81163 1.87695,-1.03125 0.64931,-0.18142 1.52713,-0.32053 2.63477,-0.41601 1.11718,-0.0955 2.08702,-0.16711 2.9082,-0.21485 z M 172.25,216.99805 c -2.32031,0 -4.23351,0.57291 -5.74219,1.71875 -1.50868,1.13628 -2.26367,2.59722 -2.26367,4.38281 0,1.55643 0.45422,2.82291 1.36133,3.79687 0.91667,0.96441 2.32031,1.64584 4.21094,2.04688 0.93576,0.19097 1.81771,0.34852 2.64843,0.47266 0.84028,0.12413 1.61979,0.28168 2.33594,0.47265 0.94531,0.24826 1.64714,0.59809 2.10547,1.04688 0.46789,0.44878 0.70117,1.14453 0.70117,2.08984 0,1.09809 -0.4911,1.97787 -1.47461,2.63672 -0.97396,0.65885 -2.34071,0.98828 -4.09765,0.98828 -1.24132,0 -2.56728,-0.24349 -3.98047,-0.73047 -1.4132,-0.48698 -2.65929,-1.18056 -3.73828,-2.07812 h -0.20118 v 3.55273 c 1.26997,0.56337 2.51607,0.98894 3.73829,1.27539 1.23177,0.28646 2.61697,0.42969 4.15429,0.42969 1.43229,0 2.65386,-0.17188 3.66602,-0.51563 1.0217,-0.34375 1.91385,-0.82248 2.67773,-1.43359 0.69705,-0.56337 1.2372,-1.25087 1.61914,-2.0625 0.3915,-0.81163 0.58789,-1.63216 0.58789,-2.46289 0,-1.52777 -0.40103,-2.71658 -1.20312,-3.56641 -0.80208,-0.84982 -1.99696,-1.48415 -3.58203,-1.90429 -0.78299,-0.20052 -1.73655,-0.39692 -2.86328,-0.58789 -1.12674,-0.19098 -1.99631,-0.35265 -2.60743,-0.48633 -1.15538,-0.26736 -1.96158,-0.65408 -2.41992,-1.16016 -0.45833,-0.50607 -0.6875,-1.20378 -0.6875,-2.0918 0,-0.99305 0.45834,-1.80534 1.375,-2.43554 0.92622,-0.63021 2.14779,-0.94531 3.66602,-0.94531 1.38455,0 2.73503,0.22916 4.05273,0.6875 1.32726,0.44878 2.39735,1.01757 3.20899,1.70507 h 0.20117 v -3.35156 c -0.96441,-0.42013 -2.07335,-0.77409 -3.32422,-1.06055 -1.25087,-0.28646 -2.62587,-0.42968 -4.125,-0.42968 z m 31.06641,0.24414 v 2.79297 h 3.03711 v -2.79297 z m 8.27929,0.87304 v 4.59766 h -1.81836 v 2.26367 h 1.81836 v 8.50782 c 0,1.93836 0.42557,3.34613 1.27539,4.2246 0.84983,0.87848 2.08985,1.31836 3.72266,1.31836 0.46788,0 0.99783,-0.043 1.58984,-0.1289 0.60157,-0.0859 1.15604,-0.1964 1.66211,-0.33008 v -2.41992 h -0.14258 c -0.21006,0.0859 -0.55381,0.1964 -1.03124,0.33008 -0.47743,0.12413 -0.93576,0.18554 -1.375,0.18554 -0.75435,0 -1.31902,-0.0859 -1.69141,-0.25781 -0.36285,-0.18142 -0.6493,-0.46376 -0.85938,-0.8457 -0.22916,-0.41059 -0.36219,-0.84852 -0.40039,-1.31641 -0.0382,-0.47743 -0.0566,-1.13628 -0.0566,-1.97656 v -7.29102 h 5.55664 v -2.26367 h -5.55664 v -4.59766 z m 18.16211,4.1543 c -2.32986,0 -4.21224,0.76932 -5.64453,2.30664 -1.42275,1.53733 -2.13281,3.61415 -2.13281,6.23047 0,2.64497 0.74479,4.68707 2.23437,6.12891 1.48958,1.43229 3.56033,2.14843 6.21485,2.14843 1.0408,0 2.03515,-0.1289 2.98047,-0.38671 0.94531,-0.25782 1.87022,-0.57704 2.77734,-0.95899 v -2.93555 h -0.14258 c -0.46788,0.42014 -1.25565,0.84983 -2.36328,1.28907 -1.09809,0.42968 -2.19076,0.64453 -3.2793,0.64453 -0.82118,0 -1.57617,-0.11459 -2.26367,-0.34375 -0.67795,-0.22917 -1.26519,-0.57292 -1.76172,-1.03125 -0.51562,-0.46788 -0.92079,-1.06532 -1.21679,-1.79102 -0.29601,-0.73524 -0.44532,-1.59462 -0.44532,-2.57812 h 11.78907 v -1.46094 c 0,-2.32031 -0.58724,-4.11068 -1.76172,-5.37109 -1.16493,-1.26042 -2.82639,-1.89063 -4.98438,-1.89063 z m -44.97461,0.44336 v 10.38477 c 0,1.98611 0.46854,3.49414 1.4043,4.52539 0.93577,1.0217 2.24327,1.5332 3.92383,1.5332 1.0026,0 1.91927,-0.19033 2.75,-0.57227 0.83073,-0.38194 1.70031,-0.93229 2.60742,-1.64843 v 1.77734 h 2.69141 v -16 h -2.69141 v 11.94531 c -0.71614,0.56337 -1.48958,1.02778 -2.32031,1.39063 -0.82118,0.36284 -1.5803,0.54297 -2.27735,0.54297 -0.78298,0 -1.38042,-0.0942 -1.79101,-0.28516 -0.41059,-0.19097 -0.74414,-0.49783 -1.00196,-0.91797 -0.24826,-0.41059 -0.41189,-0.90169 -0.48828,-1.47461 -0.0764,-0.58246 -0.11328,-1.28016 -0.11328,-2.09179 v -9.10938 z m 18.70508,0 v 16 h 2.69336 v -16 z m 26.125,1.77734 c 1.43229,0 2.49826,0.38673 3.19531,1.16016 0.70662,0.77344 1.06469,1.8661 1.07422,3.2793 h -9.16797 c 0.11458,-1.26042 0.59744,-2.31619 1.44727,-3.16602 0.85938,-0.84982 2.00933,-1.27344 3.45117,-1.27344 z" /></g></svg>