<?xml version="1.0" encoding="UTF-8" standalone="no"?>
<svg
   xmlns:dc="http://purl.org/dc/elements/1.1/"
   xmlns:cc="http://creativecommons.org/ns#"
   xmlns:rdf="http://www.w3.org/1999/02/22-rdf-syntax-ns#"
   xmlns:svg="http://www.w3.org/2000/svg"
   xmlns="http://www.w3.org/2000/svg"
   xmlns:xlink="http://www.w3.org/1999/xlink"
   xmlns:sodipodi="http://sodipodi.sourceforge.net/DTD/sodipodi-0.dtd"
   xmlns:inkscape="http://www.inkscape.org/namespaces/inkscape"
   inkscape:version="1.0 (4035a4f, 2020-05-01)"
   sodipodi:docname="omp_catechnologies-caopsmvs.svg"
   id="svg2"
   height="61.874889"
   width="239.4368"
   version="1.1">
  <metadata
     id="metadata479">
    <rdf:RDF>
      <cc:Work
         rdf:about="">
        <dc:format>image/svg+xml</dc:format>
        <dc:type
           rdf:resource="http://purl.org/dc/dcmitype/StillImage" />
        <dc:title></dc:title>
      </cc:Work>
    </rdf:RDF>
  </metadata>
  <defs
     id="defs477" />
  <sodipodi:namedview
     inkscape:current-layer="svg2"
     inkscape:window-maximized="0"
     inkscape:window-y="294"
     inkscape:window-x="109"
     inkscape:cy="16.238281"
     inkscape:cx="119.7168"
     inkscape:zoom="4.5666667"
     showgrid="false"
     id="namedview475"
     inkscape:window-height="671"
     inkscape:window-width="1495"
     inkscape:pageshadow="2"
     inkscape:pageopacity="0"
     guidetolerance="10"
     gridtolerance="10"
     objecttolerance="10"
     borderopacity="1"
     bordercolor="#666666"
     pagecolor="#ffffff" />
  <path
     id="path4"
     d="m 237.0368,8.8282813 c -1.06,0 -1.93,-0.86 -1.93,-1.9200001 0,-1.06 0.87,-1.93 1.93,-1.93 1.06,0 1.93,0.8700001 1.93,1.93 0,1.0600001 -0.87,1.9200001 -1.93,1.9200001 m 0,-4.3200001 c -1.32,0 -2.4,1.08 -2.4,2.4 0,1.3200001 1.08,2.4000001 2.4,2.4000001 1.32,0 2.4,-1.08 2.4,-2.4000001 0,-1.32 -1.08,-2.4 -2.4,-2.4" />
  <path
     id="path6"
     d="m 237.1968,6.8082812 -0.51,0.01 -0.01,-0.62 h 0.51 c 0.19,-0.01 0.34,0.11 0.34,0.3 0.01,0.19 -0.14,0.31 -0.33,0.31 m 0.83,-0.32 c -0.01,-0.42 -0.3,-0.72 -0.77,-0.72 l -1.07,0.02 0.03,2.26 h 0.49 l -0.01,-0.81 h 0.35 l 0.46,0.8000001 0.55,-0.01 -0.52,-0.86 c 0.24,-0.06 0.49,-0.28 0.49,-0.68" />
  <path
     id="path10"
     d="m 51.550897,22.918781 h -5.999 V 9.0847813 h 5.835 c 1.574,0 2.557,1.0159997 2.557,2.3929997 0,1.377 -0.983,2.36 -2.557,2.36 h -6.6701 v 4 h 6.8341 c 1.836,0 2.819,1.18 2.819,2.556 0,1.574 -1.049,2.525 -2.819,2.525 m 3.376,-7.245 c 2.066,-0.426 3.771,-2.262 3.771,-5.015 0,-2.9179998 -2.131,-5.5729998 -6.295,-5.5729998 h -11.506 V 26.950781 h 11.867 c 4.163,0 6.359,-2.623 6.359,-5.901 0,-2.754 -1.868,-5.015 -4.196,-5.376" />
  <path
     id="path12"
     d="m 72.749397,15.083581 h -5.0326 v 4.098 h 3.5576 l 4.294,7.769 h 5.343 l -4.917,-8.327 c 2.361,-0.557 4.786,-2.622 4.786,-6.49 m 0,0 c 0,-4.0649997 -2.786,-7.0479997 -7.343,-7.0479997 h -10.228 V 26.950581 h 4.655 V 9.1835813 h 4.885 c 1.869,0 3.278,1.1139997 3.278,2.9499997 0,1.836 -1.409,2.95 -3.278,2.95" />
  <path
     id="path14"
     d="m 116.17,19.148781 3.409,-9.4079997 3.41,9.4079997 z m 0.492,-14.0629998 -8.458,21.8649998 h 5.31 l 1.377,-3.704 h 9.376 l 1.344,3.704 h 5.311 L 122.497,5.0857812 Z" />
  <path
     id="path16"
     d="m 143.5659,22.852881 h -3.967 V 9.1828813 h 3.967 c 4.491,0 6.851,2.9829997 6.851,6.8519997 0,3.704 -2.524,6.818 -6.851,6.818 m 0,-17.7669998 h -8.622 V 26.950881 h 8.622 c 6.851,0 11.604,-4.327 11.604,-10.916 0,-6.5889998 -4.753,-10.9489998 -11.604,-10.9489998" />
  <path
     id="path18"
     d="m 225.6928,5.0813812 -5.734,9.2699998 -5.734,-9.2699998 h -5.146 V 26.950381 h 4.656 v -14.293 l 5.012,7.622 c 0.574,0.871 1.851,0.871 2.424,0 l 5.013,-7.622 v 14.293 h 4.656 V 5.0813812 Z" />
  <path
     id="path20"
     d="m 95.542097,23.082381 c -3.871,0 -7.008,-3.138 -7.008,-7.008 0,-3.871 3.137,-7.0089997 7.008,-7.0089997 3.87,0 7.008003,3.1379997 7.008003,7.0089997 0,3.87 -3.138003,7.008 -7.008003,7.008 m 0,-18.5359998 c -6.367,0 -11.528,5.161 -11.528,11.5279998 0,6.366 5.161,11.527 11.528,11.527 6.366003,0 11.528003,-5.161 11.528003,-11.527 0,-6.3669997 -5.162,-11.5279997 -11.528003,-11.5279997" />
  <path
     id="path22"
     d="m 176.1203,19.465181 c -1.195,2.156 -3.492,3.617 -6.132,3.617 -3.87,0 -7.008,-3.138 -7.008,-7.008 0,-3.871 3.138,-7.0079997 7.008,-7.0079997 2.618,0 4.897,1.4379997 6.1,3.5649997 l 3.27,-3.2689997 c -2.092,-2.915 -5.508,-4.816 -9.37,-4.816 -6.367,0 -11.527,5.161 -11.527,11.5279997 0,6.366 5.16,11.528 11.527,11.528 3.883,0 7.316,-1.922 9.404,-4.865 z" />
  <use
     height="100%"
     width="100%"
     y="0"
     x="0"
     id="use8"
     transform="translate(98.7182)"
     xlink:href="#path20" />
  <ellipse
     id="ellipse24"
     fill="#cc092f"
     ry="16.235352"
     rx="16.236328"
     cy="16.235352"
     cx="16.236328" />
  <path
     id="path26"
     fill="#ffffff"
     d="m 30.542097,20.621481 c -1.857,-0.74 -3.557,-0.492 -5.261,0.541 0,0 -0.621,0.379 -0.807,0.496 -0.794,0.498 -1.543,0.97 -2.263,0.97 -0.687,0 -1.363,-0.184 -1.649,-1.513 -0.446,-2.073 -1.534,-7.167 -2.009,-9.69 -0.279,-1.4829998 -0.432,-2.2819998 -0.591,-2.8249998 -0.28,-0.954 -0.792,-1.473 -1.519,-1.556 0,0 -0.114,-0.016 -0.207,-0.016 -0.092,0 -0.218,0.018 -0.218,0.018 -0.72,0.086 -1.229,0.605 -1.507,1.554 -0.159,0.543 -0.312,1.342 -0.591,2.8249998 -0.475,2.523 -1.563,7.617 -2.009,9.69 -0.286,1.329 -0.962,1.513 -1.649,1.513 -0.7200001,0 -1.4690001,-0.472 -2.2630001,-0.97 -0.186,-0.117 -0.808,-0.496 -0.808,-0.496 -1.703,-1.033 -3.404,-1.281 -5.26,-0.541 -0.401,0.16 -0.7959632,0.339183 -1.17196322,0.520183 0.25700002,0.806 0.57693172,1.59925 0.94993172,2.34425 0.411,-0.202 0.8420315,-0.402433 1.2820315,-0.532433 0.634,-0.187 1.284,-0.197 1.914,0.014 0.612,0.205 1.157,0.568 1.7,0.909 1.023,0.643 2.182,1.372 3.6570001,1.372 2.186,0 3.72,-1.305 4.21,-3.581 0.38,-1.764 1.222,-5.702 1.763,-8.418 0,0 1.386,6.654 1.765,8.418 0.49,2.276 2.025,3.581 4.211,3.581 1.475,0 2.634,-0.729 3.657,-1.372 0.543,-0.341 1.088,-0.704 1.7,-0.909 0.629,-0.211 1.28,-0.201 1.914,-0.014 0.44,0.13 0.870387,0.330647 1.281387,0.532647 0.374,-0.745 0.693089,-1.538621 0.950089,-2.344621 -0.376,-0.181 -0.770476,-0.360026 -1.171476,-0.520026" />
  <g
     transform="matrix(0.7393184,0,0,0.68252556,-35.088841,-102.41424)"
     id="g42">
    <g
       id="text40"
       style="font-size:38px;font-family:HelveticaNeue-Light"
       transform="translate(72.0265,234.2578)"
       aria-label="CA OPS/MVS®">
      <path
         id="path51"
         style="font-size:38px;font-family:HelveticaNeue-Light"
         d="m 24.473633,-25.568359 v 3.952148 q -1.892578,-1.762695 -4.044922,-2.634766 -2.133789,-0.87207 -4.545898,-0.87207 -4.75,0 -7.273438,2.913086 -2.5234375,2.894531 -2.5234375,8.386719 0,5.4736326 2.5234375,8.3867186 2.523438,2.8945312 7.273438,2.8945312 2.412109,0 4.545898,-0.8720703 2.152344,-0.8720703 4.044922,-2.6347656 v 3.915039 q -1.966797,1.33593754 -4.174805,2.00390629 -2.189453,0.66796875 -4.638672,0.66796875 -6.2900388,0 -9.9082029,-3.84082034 -3.618164,-3.859375 -3.618164,-10.5205076 0,-6.679688 3.618164,-10.520508 3.6181641,-3.859375 9.9082029,-3.859375 2.486328,0 4.675781,0.667969 2.208008,0.649414 4.137696,1.966797 z" />
      <path
         id="path53"
         style="font-size:38px;font-family:HelveticaNeue-Light"
         d="m 39.558594,-24.009766 -5.083985,13.786133 h 10.186524 z m -2.115235,-3.692382 h 4.249024 L 52.25,0 H 48.353516 L 45.830078,-7.1064453 H 33.342773 L 30.819336,0 h -3.952149 z" />
      <path
         id="path55"
         style="font-size:38px;font-family:HelveticaNeue-Light"
         d="m 79.618164,-25.160156 q -4.082031,0 -6.494141,3.042969 -2.393554,3.042968 -2.393554,8.293945 0,5.2324217 2.393554,8.2753904 2.41211,3.0429688 6.494141,3.0429688 4.082031,0 6.457031,-3.0429688 2.393555,-3.0429687 2.393555,-8.2753904 0,-5.250977 -2.393555,-8.293945 -2.375,-3.042969 -6.457031,-3.042969 z m 0,-3.042969 q 5.826172,0 9.314453,3.915039 3.488281,3.896484 3.488281,10.464844 0,6.5498045 -3.488281,10.4648436 -3.488281,3.89648434 -9.314453,3.89648434 -5.844727,0 -9.351562,-3.89648434 -3.488282,-3.8964844 -3.488282,-10.4648436 0,-6.56836 3.488282,-10.464844 3.506835,-3.915039 9.351562,-3.915039 z" />
      <path
         id="path57"
         style="font-size:38px;font-family:HelveticaNeue-Light"
         d="m 102.03223,-24.62207 v 10.409179 h 4.71289 q 2.61621,0 4.04492,-1.354492 1.42871,-1.354492 1.42871,-3.859375 0,-2.486328 -1.42871,-3.84082 -1.42871,-1.354492 -4.04492,-1.354492 z m -3.74805,-3.080078 h 8.46094 q 4.65722,0 7.03222,2.115234 2.39356,2.09668 2.39356,6.160156 0,4.100586 -2.39356,6.197266 -2.375,2.096679 -7.03222,2.096679 h -4.71289 V 0 h -3.74805 z" />
      <path
         id="path59"
         style="font-size:38px;font-family:HelveticaNeue-Light"
         d="m 137.82422,-26.792969 v 3.655274 q -2.13379,-1.020508 -4.02637,-1.521485 -1.89258,-0.500976 -3.65527,-0.500976 -3.06153,0 -4.73145,1.1875 -1.65136,1.1875 -1.65136,3.376953 0,1.836914 1.09472,2.783203 1.11328,0.927734 4.19336,1.50293 l 2.26367,0.463867 q 4.19336,0.797851 6.17871,2.820312 2.00391,2.003907 2.00391,5.3808598 0,4.0263671 -2.70898,6.1044921 -2.69043,2.07812504 -7.9043,2.07812504 -1.9668,0 -4.19336,-0.4453125 -2.20801,-0.4453125 -4.58301,-1.31738284 v -3.859375 q 2.28223,1.2802735 4.47168,1.9296875 2.18946,0.6494141 4.30469,0.6494141 3.20996,0 4.9541,-1.2617188 1.74414,-1.2617187 1.74414,-3.5996093 0,-2.0410157 -1.26172,-3.1914061 -1.24316,-1.150391 -4.10058,-1.725586 l -2.28223,-0.445313 q -4.19336,-0.834961 -6.06738,-2.616211 -1.87403,-1.78125 -1.87403,-4.954101 0,-3.673828 2.57911,-5.789063 2.59765,-2.115234 7.14355,-2.115234 1.94824,0 3.9707,0.352539 2.02246,0.352539 4.1377,1.057617 z" />
      <path
         id="path61"
         style="font-size:38px;font-family:HelveticaNeue-Light"
         d="m 151.25781,-27.702148 h 3.1543 l -9.64844,31.2275386 h -3.1543 z" />
      <path
         id="path63"
         style="font-size:38px;font-family:HelveticaNeue-Light"
         d="m 158.17871,-27.702148 h 5.58496 l 7.06934,18.8515621 7.10644,-18.8515621 h 5.58496 V 0 h -3.65527 v -24.325195 l -7.14355,18.9999997 h -3.76661 L 161.81543,-24.325195 V 0 h -3.63672 z" />
      <path
         id="path65"
         style="font-size:38px;font-family:HelveticaNeue-Light"
         d="m 198.12695,0 -10.57617,-27.702148 h 3.91504 l 8.77637,23.3232418 8.79492,-23.3232418 h 3.89648 L 202.37598,0 Z" />
      <path
         id="path67"
         style="font-size:38px;font-family:HelveticaNeue-Light"
         d="m 233.56641,-26.792969 v 3.655274 q -2.13379,-1.020508 -4.02637,-1.521485 -1.89258,-0.500976 -3.65527,-0.500976 -3.06153,0 -4.73145,1.1875 -1.65137,1.1875 -1.65137,3.376953 0,1.836914 1.09473,2.783203 1.11328,0.927734 4.19336,1.50293 l 2.26367,0.463867 q 4.19336,0.797851 6.17871,2.820312 2.00391,2.003907 2.00391,5.3808598 0,4.0263671 -2.70899,6.1044921 -2.69043,2.07812504 -7.90429,2.07812504 -1.9668,0 -4.19336,-0.4453125 -2.20801,-0.4453125 -4.58301,-1.31738284 v -3.859375 q 2.28223,1.2802735 4.47168,1.9296875 2.18945,0.6494141 4.30469,0.6494141 3.20996,0 4.9541,-1.2617188 1.74414,-1.2617187 1.74414,-3.5996093 0,-2.0410157 -1.26172,-3.1914061 -1.24316,-1.150391 -4.10059,-1.725586 l -2.28222,-0.445313 q -4.19336,-0.834961 -6.06739,-2.616211 -1.87402,-1.78125 -1.87402,-4.954101 0,-3.673828 2.5791,-5.789063 2.59766,-2.115234 7.14356,-2.115234 1.94824,0 3.9707,0.352539 2.02246,0.352539 4.1377,1.057617 z" />
      <path
         id="path69"
         style="font-size:38px;font-family:HelveticaNeue-Light"
         d="m 256.35156,-25.642578 q -2.43066,0 -4.52734,0.87207 -2.09668,0.872071 -3.84082,2.616211 -1.74414,1.744141 -2.63477,3.87793 -0.89062,2.115234 -0.89062,4.527344 0,2.393554 0.89062,4.5087886 0.89063,2.0966797 2.63477,3.8408203 1.74414,1.7441407 3.84082,2.6347657 2.09668,0.8720703 4.52734,0.8720703 2.44922,0 4.5459,-0.8720703 2.11524,-0.890625 3.85938,-2.6347657 1.72558,-1.7255859 2.5791,-3.8222656 0.87207,-2.0966793 0.87207,-4.5273433 0,-2.467774 -0.87207,-4.564454 -0.87207,-2.115234 -2.5791,-3.84082 -1.74414,-1.74414 -3.85938,-2.616211 -2.09668,-0.87207 -4.5459,-0.87207 z m 0,-1.911133 q 2.82031,0 5.25098,1.020508 2.44922,1.020508 4.47168,3.042969 2.02246,2.022461 3.02441,4.453125 1.00196,2.430664 1.00196,5.288086 0,2.820312 -1.00196,5.2509761 -1.00195,2.4121094 -3.02441,4.4345703 -2.02246,2.022461 -4.47168,3.0429688 Q 259.17187,0 256.35156,0 q -2.82031,0 -5.26953,-1.0205078 -2.43066,-1.0205078 -4.45312,-3.0429688 -2.02246,-2.0224609 -3.02442,-4.4345703 -1.00195,-2.4306641 -1.00195,-5.2509761 0,-2.857422 1.00195,-5.288086 1.00196,-2.430664 3.02442,-4.453125 2.02246,-2.022461 4.45312,-3.042969 2.44922,-1.020508 5.26953,-1.020508 z m -0.50097,7.681641 h -2.28223 v 5.121093 h 2.28223 q 2.04101,0 2.83886,-0.575195 0.81641,-0.575195 0.81641,-1.966797 0,-1.410156 -0.81641,-1.985351 -0.8164,-0.59375 -2.83886,-0.59375 z m 0.12988,-1.911133 q 3.26562,0 4.87988,1.113281 1.61426,1.094727 1.61426,3.339844 0,1.595703 -0.9834,2.634765 -0.96484,1.039063 -2.74609,1.354493 0.44531,0.148437 1.05761,0.87207 0.63086,0.705078 1.48438,2.05957 l 2.54199,4.1376956 h -3.1914 l -2.39356,-3.8779296 q -1.09473,-1.78125 -1.78125,-2.245117 -0.66797,-0.482422 -1.66992,-0.482422 h -1.22461 v 6.6054686 h -2.87598 V -21.783203 Z" />
    </g>
  </g>
</svg>
