<?xml version="1.0" encoding="UTF-8" standalone="no"?>
<svg
   xmlns:dc="http://purl.org/dc/elements/1.1/"
   xmlns:cc="http://creativecommons.org/ns#"
   xmlns:rdf="http://www.w3.org/1999/02/22-rdf-syntax-ns#"
   xmlns:svg="http://www.w3.org/2000/svg"
   xmlns="http://www.w3.org/2000/svg"
   xmlns:xlink="http://www.w3.org/1999/xlink"
   xmlns:sodipodi="http://sodipodi.sourceforge.net/DTD/sodipodi-0.dtd"
   xmlns:inkscape="http://www.inkscape.org/namespaces/inkscape"
   inkscape:version="1.0 (4035a4f, 2020-05-01)"
   sodipodi:docname="omp_catechnologies-cafilemasterplus.svg"
   id="svg2"
   height="72.252899"
   width="239.4368"
   version="1.1">
  <metadata
     id="metadata479">
    <rdf:RDF>
      <cc:Work
         rdf:about="">
        <dc:format>image/svg+xml</dc:format>
        <dc:type
           rdf:resource="http://purl.org/dc/dcmitype/StillImage" />
        <dc:title></dc:title>
      </cc:Work>
    </rdf:RDF>
  </metadata>
  <defs
     id="defs477" />
  <sodipodi:namedview
     inkscape:current-layer="svg2"
     inkscape:window-maximized="0"
     inkscape:window-y="294"
     inkscape:window-x="109"
     inkscape:cy="33.461735"
     inkscape:cx="97.38103"
     inkscape:zoom="4.5666667"
     showgrid="false"
     id="namedview475"
     inkscape:window-height="671"
     inkscape:window-width="1495"
     inkscape:pageshadow="2"
     inkscape:pageopacity="0"
     guidetolerance="10"
     gridtolerance="10"
     objecttolerance="10"
     borderopacity="1"
     bordercolor="#666666"
     pagecolor="#ffffff" />
  <path
     id="path4"
     d="m 237.0368,8.8282818 c -1.06,0 -1.93,-0.86 -1.93,-1.92 0,-1.06 0.87,-1.93 1.93,-1.93 1.06,0 1.93,0.87 1.93,1.93 0,1.06 -0.87,1.92 -1.93,1.92 m 0,-4.32 c -1.32,0 -2.4,1.08 -2.4,2.4 0,1.32 1.08,2.4 2.4,2.4 1.32,0 2.4,-1.08 2.4,-2.4 0,-1.32 -1.08,-2.4 -2.4,-2.4" />
  <path
     id="path6"
     d="m 237.1968,6.8082818 -0.51,0.01 -0.01,-0.62 h 0.51 c 0.19,-0.01 0.34,0.11 0.34,0.3 0.01,0.19 -0.14,0.31 -0.33,0.31 m 0.83,-0.32 c -0.01,-0.42 -0.3,-0.72 -0.77,-0.72 l -1.07,0.02 0.03,2.26 h 0.49 l -0.01,-0.81 h 0.35 l 0.46,0.8 0.55,-0.01 -0.52,-0.86 c 0.24,-0.06 0.49,-0.28 0.49,-0.68" />
  <path
     id="path10"
     d="m 51.550897,22.918781 h -5.999 V 9.0847818 h 5.835 c 1.574,0 2.557,1.0159992 2.557,2.3929992 0,1.377 -0.983,2.36 -2.557,2.36 h -6.6701 v 4 h 6.8341 c 1.836,0 2.819,1.18 2.819,2.556 0,1.574 -1.049,2.525 -2.819,2.525 m 3.376,-7.245 c 2.066,-0.426 3.771,-2.262 3.771,-5.015 0,-2.9179992 -2.131,-5.5729992 -6.295,-5.5729992 h -11.506 V 26.950781 h 11.867 c 4.163,0 6.359,-2.623 6.359,-5.901 0,-2.754 -1.868,-5.015 -4.196,-5.376" />
  <path
     id="path12"
     d="m 72.749397,15.083581 h -5.0326 v 4.098 h 3.5576 l 4.294,7.769 h 5.343 l -4.917,-8.327 c 2.361,-0.557 4.786,-2.622 4.786,-6.49 m 0,0 c 0,-4.0649992 -2.786,-7.0479992 -7.343,-7.0479992 h -10.228 V 26.950581 h 4.655 V 9.1835818 h 4.885 c 1.869,0 3.278,1.1139992 3.278,2.9499992 0,1.836 -1.409,2.95 -3.278,2.95" />
  <path
     id="path14"
     d="m 116.17,19.148781 3.409,-9.4079992 3.41,9.4079992 z m 0.492,-14.0629992 -8.458,21.8649992 h 5.31 l 1.377,-3.704 h 9.376 l 1.344,3.704 h 5.311 L 122.497,5.0857818 Z" />
  <path
     id="path16"
     d="m 143.5659,22.852881 h -3.967 V 9.1828818 h 3.967 c 4.491,0 6.851,2.9829992 6.851,6.8519992 0,3.704 -2.524,6.818 -6.851,6.818 m 0,-17.7669992 h -8.622 V 26.950881 h 8.622 c 6.851,0 11.604,-4.327 11.604,-10.916 0,-6.5889992 -4.753,-10.9489992 -11.604,-10.9489992" />
  <path
     id="path18"
     d="m 225.6928,5.0813818 -5.734,9.2699992 -5.734,-9.2699992 h -5.146 V 26.950381 h 4.656 v -14.293 l 5.012,7.622 c 0.574,0.871 1.851,0.871 2.424,0 l 5.013,-7.622 v 14.293 h 4.656 V 5.0813818 Z" />
  <path
     id="path20"
     d="m 95.542097,23.082381 c -3.871,0 -7.008,-3.138 -7.008,-7.008 0,-3.871 3.137,-7.0089992 7.008,-7.0089992 3.87,0 7.008003,3.1379992 7.008003,7.0089992 0,3.87 -3.138003,7.008 -7.008003,7.008 m 0,-18.5359992 c -6.367,0 -11.528,5.161 -11.528,11.5279992 0,6.366 5.161,11.527 11.528,11.527 6.366003,0 11.528003,-5.161 11.528003,-11.527 0,-6.3669992 -5.162,-11.5279992 -11.528003,-11.5279992" />
  <path
     id="path22"
     d="m 176.1203,19.465181 c -1.195,2.156 -3.492,3.617 -6.132,3.617 -3.87,0 -7.008,-3.138 -7.008,-7.008 0,-3.871 3.138,-7.0079992 7.008,-7.0079992 2.618,0 4.897,1.4379992 6.1,3.5649992 l 3.27,-3.2689992 c -2.092,-2.915 -5.508,-4.816 -9.37,-4.816 -6.367,0 -11.527,5.161 -11.527,11.5279992 0,6.366 5.16,11.528 11.527,11.528 3.883,0 7.316,-1.922 9.404,-4.865 z" />
  <use
     height="100%"
     width="100%"
     y="0"
     x="0"
     id="use8"
     transform="translate(98.7182)"
     xlink:href="#path20" />
  <ellipse
     id="ellipse24"
     fill="#cc092f"
     ry="16.235352"
     rx="16.236328"
     cy="16.235352"
     cx="16.236328" />
  <path
     id="path26"
     fill="#ffffff"
     d="m 30.542097,20.621481 c -1.857,-0.74 -3.557,-0.492 -5.261,0.541 0,0 -0.621,0.379 -0.807,0.496 -0.794,0.498 -1.543,0.97 -2.263,0.97 -0.687,0 -1.363,-0.184 -1.649,-1.513 -0.446,-2.073 -1.534,-7.167 -2.009,-9.69 -0.279,-1.4829992 -0.432,-2.2819992 -0.591,-2.8249992 -0.28,-0.954 -0.792,-1.473 -1.519,-1.556 0,0 -0.114,-0.016 -0.207,-0.016 -0.092,0 -0.218,0.018 -0.218,0.018 -0.72,0.086 -1.229,0.605 -1.507,1.554 -0.159,0.543 -0.312,1.342 -0.591,2.8249992 -0.475,2.523 -1.563,7.617 -2.009,9.69 -0.286,1.329 -0.962,1.513 -1.649,1.513 -0.7200002,0 -1.4690001,-0.472 -2.2630001,-0.97 -0.186,-0.117 -0.808,-0.496 -0.808,-0.496 -1.703,-1.033 -3.404,-1.281 -5.26,-0.541 -0.401,0.16 -0.7959632,0.339183 -1.17196325,0.520183 0.25700005,0.806 0.57693175,1.59925 0.94993175,2.34425 0.411,-0.202 0.8420315,-0.402433 1.2820315,-0.532433 0.634,-0.187 1.284,-0.197 1.914,0.014 0.612,0.205 1.157,0.568 1.7,0.909 1.023,0.643 2.182,1.372 3.6570001,1.372 2.186,0 3.72,-1.305 4.21,-3.581 0.38,-1.764 1.222,-5.702 1.763,-8.418 0,0 1.386,6.654 1.765,8.418 0.49,2.276 2.025,3.581 4.211,3.581 1.475,0 2.634,-0.729 3.657,-1.372 0.543,-0.341 1.088,-0.704 1.7,-0.909 0.629,-0.211 1.28,-0.201 1.914,-0.014 0.44,0.13 0.870387,0.330647 1.281387,0.532647 0.374,-0.745 0.693089,-1.538621 0.950089,-2.344621 -0.376,-0.181 -0.770476,-0.360026 -1.171476,-0.520026" />
  <g
     transform="matrix(0.50334694,0,0,0.53090768,10.802991,-67.906557)"
     id="g42">
    <g
       id="text40"
       style="font-size:38px;font-family:HelveticaNeue-Light"
       transform="translate(23.8159,234.2578)"
       aria-label="CA File Master™ Plus">
      <path
         id="path51"
         style="font-size:38px;font-family:HelveticaNeue-Light"
         d="m 24.473633,-25.568359 v 3.952148 q -1.892578,-1.762695 -4.044922,-2.634766 -2.133789,-0.87207 -4.545898,-0.87207 -4.75,0 -7.273438,2.913086 -2.5234375,2.894531 -2.5234375,8.386719 0,5.4736326 2.5234375,8.3867186 2.523438,2.8945312 7.273438,2.8945312 2.412109,0 4.545898,-0.8720703 2.152344,-0.8720703 4.044922,-2.6347656 v 3.915039 q -1.966797,1.33593754 -4.174805,2.00390629 -2.189453,0.66796875 -4.638672,0.66796875 -6.2900388,0 -9.9082029,-3.84082034 -3.618164,-3.859375 -3.618164,-10.5205076 0,-6.679688 3.618164,-10.520508 3.6181641,-3.859375 9.9082029,-3.859375 2.486328,0 4.675781,0.667969 2.208008,0.649414 4.137696,1.966797 z" />
      <path
         id="path53"
         style="font-size:38px;font-family:HelveticaNeue-Light"
         d="m 39.558594,-24.009766 -5.083985,13.786133 h 10.186524 z m -2.115235,-3.692382 h 4.249024 L 52.25,0 H 48.353516 L 45.830078,-7.1064453 H 33.342773 L 30.819336,0 h -3.952149 z" />
      <path
         id="path55"
         style="font-size:38px;font-family:HelveticaNeue-Light"
         d="m 68.374023,-27.702148 h 15.919922 v 3.154296 H 72.12207 v 8.164063 h 10.984375 v 3.154297 H 72.12207 V 0 h -3.748047 z" />
      <path
         id="path57"
         style="font-size:38px;font-family:HelveticaNeue-Light"
         d="m 87.374023,-20.78125 h 3.414063 V 0 h -3.414063 z m 0,-8.089844 h 3.414063 v 4.323242 h -3.414063 z" />
      <path
         id="path59"
         style="font-size:38px;font-family:HelveticaNeue-Light"
         d="m 97.913086,-28.871094 h 3.414064 V 0 h -3.414064 z" />
      <path
         id="path61"
         style="font-size:38px;font-family:HelveticaNeue-Light"
         d="m 126.22754,-11.244141 v 1.6699222 h -15.69727 q 0.22266,3.5253907 2.11524,5.3808594 1.91113,1.8369141 5.30664,1.8369141 1.9668,0 3.80371,-0.4824219 1.85547,-0.4824219 3.67383,-1.4472656 v 3.2285156 q -1.83692,0.77929689 -3.7666,1.18750001 -1.92969,0.40820313 -3.91504,0.40820313 -4.97266,0 -7.88575,-2.89453124 -2.89453,-2.8945313 -2.89453,-7.8300777 0,-5.10254 2.7461,-8.089844 2.76465,-3.00586 7.44043,-3.00586 4.19336,0 6.62402,2.708985 2.44922,2.690429 2.44922,7.329101 z m -3.41406,-1.001953 q -0.0371,-2.801758 -1.57715,-4.471679 -1.52149,-1.669922 -4.04492,-1.669922 -2.85743,0 -4.58301,1.614258 -1.70703,1.614257 -1.9668,4.545898 z" />
      <path
         id="path63"
         style="font-size:38px;font-family:HelveticaNeue-Light"
         d="m 144.07715,-27.702148 h 5.58496 l 7.06934,18.8515621 7.10644,-18.8515621 h 5.58496 V 0 h -3.65527 v -24.325195 l -7.14356,18.9999997 h -3.7666 L 147.71387,-24.325195 V 0 h -3.63672 z" />
      <path
         id="path65"
         style="font-size:38px;font-family:HelveticaNeue-Light"
         d="m 186.17773,-10.446289 q -4.13769,0 -5.73339,0.946289 -1.59571,0.9462891 -1.59571,3.2285156 0,1.8183594 1.1875,2.8945313 1.20606,1.0576172 3.26563,1.0576172 2.83886,0 4.5459,-2.0039063 1.72558,-2.0224609 1.72558,-5.3623047 v -0.7607421 z m 6.80957,-1.410156 V 0 h -3.41406 v -3.1542969 q -1.16894,1.8925782 -2.91308,2.80175784 -1.74414,0.890625 -4.26758,0.890625 -3.19141,0 -5.08399,-1.78125004 -1.87402,-1.7998047 -1.87402,-4.805664 0,-3.506836 2.33789,-5.2880859 2.35645,-1.78125 7.01367,-1.78125 h 4.78711 v -0.333984 q 0,-2.356446 -1.55859,-3.636719 -1.54004,-1.298828 -4.3418,-1.298828 -1.78125,0 -3.46973,0.426758 -1.68847,0.426757 -3.24707,1.280273 v -3.154297 q 1.87403,-0.723633 3.63672,-1.076172 1.7627,-0.371094 3.43262,-0.371094 4.50879,0 6.73535,2.337891 2.22656,2.337891 2.22656,7.087891 z" />
      <path
         id="path67"
         style="font-size:38px;font-family:HelveticaNeue-Light"
         d="m 213.28613,-20.168945 v 3.228515 q -1.44726,-0.742187 -3.00586,-1.113281 -1.55859,-0.371094 -3.22851,-0.371094 -2.54199,0 -3.82227,0.779297 -1.26172,0.779297 -1.26172,2.337891 0,1.1875 0.90918,1.874023 0.90918,0.667969 3.65528,1.280274 l 1.16894,0.259765 q 3.63672,0.779297 5.1582,2.2080081 1.54004,1.4101563 1.54004,3.9521485 0,2.8945312 -2.30078,4.5830078 -2.28222,1.68847654 -6.29004,1.68847654 -1.66992,0 -3.48828,-0.33398438 -1.7998,-0.31542968 -3.80371,-0.96484375 V -4.2861328 q 1.89258,0.9833984 3.72949,1.484375 1.83692,0.4824219 3.63672,0.4824219 2.41211,0 3.71094,-0.8164063 1.29883,-0.8349609 1.29883,-2.3378906 0,-1.3916016 -0.94629,-2.1337891 -0.92774,-0.7421875 -4.10059,-1.4287109 l -1.1875,-0.2783203 q -3.17285,-0.6679688 -4.583,-2.0410159 -1.41016,-1.391601 -1.41016,-3.803711 0,-2.93164 2.07812,-4.527343 2.07813,-1.595704 5.90039,-1.595704 1.89258,0 3.5625,0.278321 1.66993,0.27832 3.08008,0.834961 z" />
      <path
         id="path69"
         style="font-size:38px;font-family:HelveticaNeue-Light"
         d="m 223.23145,-26.681641 v 5.900391 h 7.03222 v 2.65332 h -7.03222 v 11.2812503 q 0,2.5419922 0.68652,3.265625 0.70508,0.7236328 2.83887,0.7236328 h 3.50683 V 0 h -3.50683 q -3.95215,0 -5.45508,-1.4658203 -1.50293,-1.484375 -1.50293,-5.3808594 V -18.12793 h -2.50488 v -2.65332 h 2.50488 v -5.900391 z" />
      <path
         id="path71"
         style="font-size:38px;font-family:HelveticaNeue-Light"
         d="m 252.54785,-11.244141 v 1.6699222 h -15.69726 q 0.22265,3.5253907 2.11523,5.3808594 1.91113,1.8369141 5.30664,1.8369141 1.9668,0 3.80371,-0.4824219 1.85547,-0.4824219 3.67383,-1.4472656 v 3.2285156 q -1.83691,0.77929689 -3.7666,1.18750001 -1.92969,0.40820313 -3.91504,0.40820313 -4.97266,0 -7.88574,-2.89453124 -2.89453,-2.8945313 -2.89453,-7.8300777 0,-5.10254 2.74609,-8.089844 2.76465,-3.00586 7.44043,-3.00586 4.19336,0 6.62402,2.708985 2.44922,2.690429 2.44922,7.329101 z m -3.41406,-1.001953 q -0.0371,-2.801758 -1.57715,-4.471679 -1.52148,-1.669922 -4.04492,-1.669922 -2.85742,0 -4.58301,1.614258 -1.70703,1.614257 -1.9668,4.545898 z" />
      <path
         id="path73"
         style="font-size:38px;font-family:HelveticaNeue-Light"
         d="m 270.19336,-17.589844 q -0.5752,-0.333984 -1.26172,-0.482422 -0.66797,-0.166992 -1.48437,-0.166992 -2.89454,0 -4.45313,1.892578 -1.54004,1.874024 -1.54004,5.399414 V 0 h -3.43262 v -20.78125 h 3.43262 v 3.228516 q 1.07617,-1.892578 2.80176,-2.801758 1.72559,-0.927735 4.19336,-0.927735 0.35254,0 0.7793,0.05566 0.42675,0.03711 0.94628,0.129882 z" />
      <path
         id="path75"
         style="font-size:38px;font-family:HelveticaNeue-Light"
         d="m 290.60352,-27.702148 3.22851,4.75 3.04297,-4.75 h 3.1543 v 10.724609 h -2.09668 v -8.980469 l -3.61817,5.622071 h -1.0205 l -3.76661,-5.622071 v 8.980469 h -2.11523 v -10.724609 z m -5.28809,0 v 1.74414 h -3.7666 v 8.980469 h -2.11524 v -8.980469 h -3.72949 v -1.74414 z" />
      <path
         id="path77"
         style="font-size:38px;font-family:HelveticaNeue-Light"
         d="m 327.80566,-24.62207 v 10.409179 h 4.71289 q 2.61622,0 4.04493,-1.354492 1.42871,-1.354492 1.42871,-3.859375 0,-2.486328 -1.42871,-3.84082 -1.42871,-1.354492 -4.04493,-1.354492 z m -3.74804,-3.080078 h 8.46093 q 4.65723,0 7.03223,2.115234 2.39356,2.09668 2.39356,6.160156 0,4.100586 -2.39356,6.197266 -2.375,2.096679 -7.03223,2.096679 h -4.71289 V 0 h -3.74804 z" />
      <path
         id="path79"
         style="font-size:38px;font-family:HelveticaNeue-Light"
         d="m 346.84277,-28.871094 h 3.41407 V 0 h -3.41407 z" />
      <path
         id="path81"
         style="font-size:38px;font-family:HelveticaNeue-Light"
         d="M 357.0293,-8.2011719 V -20.78125 h 3.41406 v 12.4501953 q 0,2.9501953 1.15039,4.4345703 1.15039,1.4658203 3.45117,1.4658203 2.76465,0 4.36035,-1.7626953 1.61426,-1.7626953 1.61426,-4.805664 V -20.78125 h 3.41406 V 0 h -3.41406 v -3.1914063 q -1.24316,1.8925782 -2.89453,2.82031255 -1.63281,0.90917969 -3.80371,0.90917969 -3.58106,0 -5.43652,-2.22656254 -1.85547,-2.2265625 -1.85547,-6.5126953 z m 8.59082,-13.0810551 z" />
      <path
         id="path83"
         style="font-size:38px;font-family:HelveticaNeue-Light"
         d="m 394.75098,-20.168945 v 3.228515 q -1.44727,-0.742187 -3.00586,-1.113281 -1.5586,-0.371094 -3.22852,-0.371094 -2.54199,0 -3.82226,0.779297 -1.26172,0.779297 -1.26172,2.337891 0,1.1875 0.90918,1.874023 0.90918,0.667969 3.65527,1.280274 l 1.16895,0.259765 q 3.63671,0.779297 5.1582,2.2080081 1.54004,1.4101563 1.54004,3.9521485 0,2.8945312 -2.30078,4.5830078 -2.28223,1.68847654 -6.29004,1.68847654 -1.66992,0 -3.48828,-0.33398438 -1.79981,-0.31542968 -3.80371,-0.96484375 V -4.2861328 q 1.89257,0.9833984 3.72949,1.484375 1.83691,0.4824219 3.63672,0.4824219 2.41211,0 3.71093,-0.8164063 1.29883,-0.8349609 1.29883,-2.3378906 0,-1.3916016 -0.94629,-2.1337891 -0.92773,-0.7421875 -4.10058,-1.4287109 l -1.1875,-0.2783203 q -3.17285,-0.6679688 -4.58301,-2.0410159 -1.41016,-1.391601 -1.41016,-3.803711 0,-2.93164 2.07813,-4.527343 2.07812,-1.595704 5.90039,-1.595704 1.89258,0 3.5625,0.278321 1.66992,0.27832 3.08008,0.834961 z" />
    </g>
  </g>
</svg>
