<?xml version="1.0" encoding="UTF-8" standalone="no"?>
<svg
   xmlns:dc="http://purl.org/dc/elements/1.1/"
   xmlns:cc="http://creativecommons.org/ns#"
   xmlns:rdf="http://www.w3.org/1999/02/22-rdf-syntax-ns#"
   xmlns:svg="http://www.w3.org/2000/svg"
   xmlns="http://www.w3.org/2000/svg"
   xmlns:xlink="http://www.w3.org/1999/xlink"
   xmlns:sodipodi="http://sodipodi.sourceforge.net/DTD/sodipodi-0.dtd"
   xmlns:inkscape="http://www.inkscape.org/namespaces/inkscape"
   inkscape:version="1.0 (4035a4f, 2020-05-01)"
   sodipodi:docname="omp_catechnologies-caendevor.svg"
   id="svg2"
   height="61.874889"
   width="239.4368"
   version="1.1">
  <metadata
     id="metadata479">
    <rdf:RDF>
      <cc:Work
         rdf:about="">
        <dc:format>image/svg+xml</dc:format>
        <dc:type
           rdf:resource="http://purl.org/dc/dcmitype/StillImage" />
        <dc:title></dc:title>
      </cc:Work>
    </rdf:RDF>
  </metadata>
  <defs
     id="defs477" />
  <sodipodi:namedview
     inkscape:current-layer="svg2"
     inkscape:window-maximized="0"
     inkscape:window-y="294"
     inkscape:window-x="109"
     inkscape:cy="16.238281"
     inkscape:cx="119.7168"
     inkscape:zoom="4.5666667"
     showgrid="false"
     id="namedview475"
     inkscape:window-height="671"
     inkscape:window-width="1495"
     inkscape:pageshadow="2"
     inkscape:pageopacity="0"
     guidetolerance="10"
     gridtolerance="10"
     objecttolerance="10"
     borderopacity="1"
     bordercolor="#666666"
     pagecolor="#ffffff" />
  <path
     id="path4"
     d="m 237.0368,8.8282813 c -1.06,0 -1.93,-0.86 -1.93,-1.9200001 0,-1.06 0.87,-1.93 1.93,-1.93 1.06,0 1.93,0.8700001 1.93,1.93 0,1.0600001 -0.87,1.9200001 -1.93,1.9200001 m 0,-4.3200001 c -1.32,0 -2.4,1.08 -2.4,2.4 0,1.3200001 1.08,2.4000001 2.4,2.4000001 1.32,0 2.4,-1.08 2.4,-2.4000001 0,-1.32 -1.08,-2.4 -2.4,-2.4" />
  <path
     id="path6"
     d="m 237.1968,6.8082812 -0.51,0.01 -0.01,-0.62 h 0.51 c 0.19,-0.01 0.34,0.11 0.34,0.3 0.01,0.19 -0.14,0.31 -0.33,0.31 m 0.83,-0.32 c -0.01,-0.42 -0.3,-0.72 -0.77,-0.72 l -1.07,0.02 0.03,2.26 h 0.49 l -0.01,-0.81 h 0.35 l 0.46,0.8000001 0.55,-0.01 -0.52,-0.86 c 0.24,-0.06 0.49,-0.28 0.49,-0.68" />
  <path
     id="path10"
     d="m 51.550897,22.918781 h -5.999 V 9.0847813 h 5.835 c 1.574,0 2.557,1.0159997 2.557,2.3929997 0,1.377 -0.983,2.36 -2.557,2.36 h -6.6701 v 4 h 6.8341 c 1.836,0 2.819,1.18 2.819,2.556 0,1.574 -1.049,2.525 -2.819,2.525 m 3.376,-7.245 c 2.066,-0.426 3.771,-2.262 3.771,-5.015 0,-2.9179998 -2.131,-5.5729998 -6.295,-5.5729998 h -11.506 V 26.950781 h 11.867 c 4.163,0 6.359,-2.623 6.359,-5.901 0,-2.754 -1.868,-5.015 -4.196,-5.376" />
  <path
     id="path12"
     d="m 72.749397,15.083581 h -5.0326 v 4.098 h 3.5576 l 4.294,7.769 h 5.343 l -4.917,-8.327 c 2.361,-0.557 4.786,-2.622 4.786,-6.49 m 0,0 c 0,-4.0649997 -2.786,-7.0479997 -7.343,-7.0479997 h -10.228 V 26.950581 h 4.655 V 9.1835813 h 4.885 c 1.869,0 3.278,1.1139997 3.278,2.9499997 0,1.836 -1.409,2.95 -3.278,2.95" />
  <path
     id="path14"
     d="m 116.17,19.148781 3.409,-9.4079997 3.41,9.4079997 z m 0.492,-14.0629998 -8.458,21.8649998 h 5.31 l 1.377,-3.704 h 9.376 l 1.344,3.704 h 5.311 L 122.497,5.0857812 Z" />
  <path
     id="path16"
     d="m 143.5659,22.852881 h -3.967 V 9.1828813 h 3.967 c 4.491,0 6.851,2.9829997 6.851,6.8519997 0,3.704 -2.524,6.818 -6.851,6.818 m 0,-17.7669998 h -8.622 V 26.950881 h 8.622 c 6.851,0 11.604,-4.327 11.604,-10.916 0,-6.5889998 -4.753,-10.9489998 -11.604,-10.9489998" />
  <path
     id="path18"
     d="m 225.6928,5.0813812 -5.734,9.2699998 -5.734,-9.2699998 h -5.146 V 26.950381 h 4.656 v -14.293 l 5.012,7.622 c 0.574,0.871 1.851,0.871 2.424,0 l 5.013,-7.622 v 14.293 h 4.656 V 5.0813812 Z" />
  <path
     id="path20"
     d="m 95.542097,23.082381 c -3.871,0 -7.008,-3.138 -7.008,-7.008 0,-3.871 3.137,-7.0089997 7.008,-7.0089997 3.87,0 7.008003,3.1379997 7.008003,7.0089997 0,3.87 -3.138003,7.008 -7.008003,7.008 m 0,-18.5359998 c -6.367,0 -11.528,5.161 -11.528,11.5279998 0,6.366 5.161,11.527 11.528,11.527 6.366003,0 11.528003,-5.161 11.528003,-11.527 0,-6.3669997 -5.162,-11.5279997 -11.528003,-11.5279997" />
  <path
     id="path22"
     d="m 176.1203,19.465181 c -1.195,2.156 -3.492,3.617 -6.132,3.617 -3.87,0 -7.008,-3.138 -7.008,-7.008 0,-3.871 3.138,-7.0079997 7.008,-7.0079997 2.618,0 4.897,1.4379997 6.1,3.5649997 l 3.27,-3.2689997 c -2.092,-2.915 -5.508,-4.816 -9.37,-4.816 -6.367,0 -11.527,5.161 -11.527,11.5279997 0,6.366 5.16,11.528 11.527,11.528 3.883,0 7.316,-1.922 9.404,-4.865 z" />
  <use
     height="100%"
     width="100%"
     y="0"
     x="0"
     id="use8"
     transform="translate(98.7182)"
     xlink:href="#path20" />
  <ellipse
     id="ellipse24"
     fill="#cc092f"
     ry="16.235352"
     rx="16.236328"
     cy="16.235352"
     cx="16.236328" />
  <path
     id="path26"
     fill="#ffffff"
     d="m 30.542097,20.621481 c -1.857,-0.74 -3.557,-0.492 -5.261,0.541 0,0 -0.621,0.379 -0.807,0.496 -0.794,0.498 -1.543,0.97 -2.263,0.97 -0.687,0 -1.363,-0.184 -1.649,-1.513 -0.446,-2.073 -1.534,-7.167 -2.009,-9.69 -0.279,-1.4829998 -0.432,-2.2819998 -0.591,-2.8249998 -0.28,-0.954 -0.792,-1.473 -1.519,-1.556 0,0 -0.114,-0.016 -0.207,-0.016 -0.092,0 -0.218,0.018 -0.218,0.018 -0.72,0.086 -1.229,0.605 -1.507,1.554 -0.159,0.543 -0.312,1.342 -0.591,2.8249998 -0.475,2.523 -1.563,7.617 -2.009,9.69 -0.286,1.329 -0.962,1.513 -1.649,1.513 -0.7200001,0 -1.4690001,-0.472 -2.2630001,-0.97 -0.186,-0.117 -0.808,-0.496 -0.808,-0.496 -1.703,-1.033 -3.404,-1.281 -5.26,-0.541 -0.401,0.16 -0.7959632,0.339183 -1.17196322,0.520183 0.25700002,0.806 0.57693172,1.59925 0.94993172,2.34425 0.411,-0.202 0.8420315,-0.402433 1.2820315,-0.532433 0.634,-0.187 1.284,-0.197 1.914,0.014 0.612,0.205 1.157,0.568 1.7,0.909 1.023,0.643 2.182,1.372 3.6570001,1.372 2.186,0 3.72,-1.305 4.21,-3.581 0.38,-1.764 1.222,-5.702 1.763,-8.418 0,0 1.386,6.654 1.765,8.418 0.49,2.276 2.025,3.581 4.211,3.581 1.475,0 2.634,-0.729 3.657,-1.372 0.543,-0.341 1.088,-0.704 1.7,-0.909 0.629,-0.211 1.28,-0.201 1.914,-0.014 0.44,0.13 0.870387,0.330647 1.281387,0.532647 0.374,-0.745 0.693089,-1.538621 0.950089,-2.344621 -0.376,-0.181 -0.770476,-0.360026 -1.171476,-0.520026" />
  <g
     transform="matrix(0.67537843,0,0,0.67621994,-11.796492,-90.824027)"
     id="g42">
    <g
       style="font-size:40px;line-height:1.25;font-family:sans-serif;word-spacing:0px"
       id="text50"
       aria-label="CA Endevor®">
      <path
         d="m 197.36914,191.32031 v 9.45313 c -0.97656,-0.50781 -1.90755,-0.8789 -2.79297,-1.11328 -0.88541,-0.2474 -1.90104,-0.3711 -3.04687,-0.3711 -1.26303,0 -2.48698,0.26042 -3.67188,0.78125 -1.17187,0.52084 -2.20052,1.27605 -3.08594,2.26563 -0.89843,1.01562 -1.61458,2.24609 -2.14843,3.6914 -0.52084,1.44532 -0.78125,3.09245 -0.78125,4.94141 0,3.55469 0.76172,6.33464 2.28515,8.33984 1.53646,2.00521 3.60677,3.00782 6.21094,3.00782 1.34115,0 2.58464,-0.25391 3.73047,-0.76172 1.14583,-0.50781 2.24609,-1.21745 3.30078,-2.12891 v 2.28516 h 3.67188 v -30.39063 z m 116.19141,0.70313 c -4.66146,0 -8.64583,1.65364 -11.95313,4.96094 -3.29427,3.29427 -4.9414,7.27213 -4.9414,11.93359 0,4.66145 1.64713,8.64583 4.9414,11.95312 3.3073,3.29428 7.29167,4.94141 11.95313,4.94141 4.66145,0 8.63932,-1.64713 11.93359,-4.94141 3.30729,-3.30729 4.96094,-7.29167 4.96094,-11.95312 0,-4.66146 -1.65365,-8.63932 -4.96094,-11.93359 -3.29427,-3.3073 -7.27214,-4.96094 -11.93359,-4.96094 z m -237.324222,0.0781 c -2.135417,0 -4.082031,0.33204 -5.839844,0.9961 -1.744792,0.66406 -3.235677,1.6276 -4.472656,2.89062 -1.276042,1.30208 -2.252604,2.89714 -2.929687,4.78516 -0.677084,1.88802 -1.015625,4.02995 -1.015625,6.42578 0,2.52604 0.351562,4.74609 1.054687,6.66016 0.703125,1.90104 1.679688,3.47005 2.929688,4.70703 1.276042,1.26302 2.773437,2.19401 4.492187,2.79297 1.731771,0.58594 3.652344,0.8789 5.761719,0.8789 1.119792,0 2.141927,-0.0911 3.066406,-0.27344 0.9375,-0.16927 1.803386,-0.3776 2.597656,-0.625 0.9375,-0.29948 1.692709,-0.58594 2.265625,-0.85937 0.585938,-0.27344 1.236979,-0.56641 1.953125,-0.87891 v -4.53125 h -0.273437 c -1.419271,1.27604 -2.942709,2.23308 -4.570313,2.8711 -1.627604,0.63802 -3.372395,0.95703 -5.234375,0.95703 -1.354166,0 -2.643228,-0.22787 -3.867187,-0.6836 -1.210937,-0.46874 -2.272136,-1.18489 -3.183594,-2.14843 -0.872396,-0.92448 -1.588541,-2.1224 -2.148437,-3.59375 -0.546875,-1.47136 -0.820313,-3.22917 -0.820313,-5.27344 0,-1.95313 0.247396,-3.67188 0.742188,-5.15625 0.507812,-1.4974 1.210937,-2.73438 2.109375,-3.71094 0.924479,-1.00261 1.972656,-1.73828 3.144531,-2.20703 1.184896,-0.48177 2.513021,-0.72266 3.984375,-0.72266 1.796875,0 3.483073,0.30599 5.058594,0.91797 1.57552,0.61198 3.164062,1.58854 4.765625,2.92969 h 0.292968 v -4.58984 c -1.901042,-0.95052 -3.632812,-1.61459 -5.195312,-1.99219 -1.549479,-0.37761 -3.105469,-0.56641 -4.667969,-0.56641 z m 22.558594,0.52735 -10.585938,29.08203 h 3.925782 l 2.851562,-8.10547 h 12.578122 l 2.85157,8.10547 h 4.12109 l -10.58594,-29.08203 z m 34.218748,0 v 29.08203 h 19.16016 v -3.4375 h -15.29297 v -10.80078 h 15.29297 v -3.4375 h -15.29297 v -7.96875 h 15.29297 v -3.4375 z m 180.54688,1.5625 c 4.03645,0 7.48046,1.44531 10.33203,4.33593 2.86458,2.89063 4.29687,6.35417 4.29687,10.39063 0,4.03645 -1.43229,7.5 -4.29687,10.39062 -2.85157,2.89063 -6.29558,4.33594 -10.33203,4.33594 -4.03646,0 -7.48698,-1.44531 -10.35157,-4.33594 -2.85156,-2.89062 -4.27734,-6.35417 -4.27734,-10.39062 0,-4.03646 1.42578,-7.5 4.27734,-10.39063 2.86459,-2.89062 6.31511,-4.33593 10.35157,-4.33593 z m -212.28516,1.8164 5.09766,14.27735 H 96.158203 Z m 67.75391,3.28125 c -1.28907,0 -2.54557,0.26693 -3.76953,0.80078 -1.22396,0.53386 -2.40886,1.27605 -3.55469,2.22657 v -2.42188 h -3.67188 v 21.81641 h 3.67188 v -16.28906 c 1.0026,-0.76823 2.05078,-1.39974 3.14453,-1.89454 1.09375,-0.49479 2.14192,-0.74218 3.14453,-0.74218 0.97656,0 1.77083,0.13671 2.38281,0.41015 0.61198,0.26042 1.08073,0.66406 1.40625,1.21094 0.3125,0.49479 0.52735,1.18489 0.64453,2.07031 0.11719,0.8724 0.17579,1.8099 0.17579,2.8125 v 12.42188 h 3.67187 v -14.16016 c 0,-2.66927 -0.61849,-4.71354 -1.85547,-6.13281 -1.23698,-1.41927 -3.03386,-2.12891 -5.39062,-2.12891 z m 48.30078,0 c -3.17709,0 -5.74219,1.04818 -7.69531,3.14453 -1.9401,2.09636 -2.91016,4.92839 -2.91016,8.4961 0,3.60677 1.01563,6.39323 3.04687,8.35937 2.03126,1.95313 4.85677,2.92969 8.47657,2.92969 1.41926,0 2.77343,-0.17578 4.0625,-0.52734 1.28906,-0.35156 2.55208,-0.78776 3.78906,-1.3086 v -4.0039 h -0.19531 c -0.63803,0.57292 -1.71225,1.15885 -3.22266,1.75781 -1.49739,0.58593 -2.98828,0.8789 -4.47266,0.8789 -1.11978,0 -2.14843,-0.15624 -3.08593,-0.46874 -0.92448,-0.3125 -1.72526,-0.78126 -2.40235,-1.40626 -0.70312,-0.63801 -1.25651,-1.45182 -1.66015,-2.4414 -0.40365,-1.00261 -0.60547,-2.17448 -0.60547,-3.51563 h 16.07422 v -1.99218 c 0,-3.16406 -0.80078,-5.60547 -2.40235,-7.32422 -1.58854,-1.71875 -3.85417,-2.57813 -6.79687,-2.57813 z m 46.97265,0 c -3.08593,0 -5.54036,1.03516 -7.36328,3.10547 -1.80989,2.05729 -2.71484,4.86328 -2.71484,8.41797 0,3.55469 0.90495,6.36068 2.71484,8.41797 1.82292,2.05729 4.27735,3.08594 7.36328,3.08594 3.0599,0 5.50131,-1.02865 7.32422,-3.08594 1.82292,-2.05729 2.73438,-4.86328 2.73438,-8.41797 0,-3.55469 -0.91146,-6.36068 -2.73438,-8.41797 -1.82291,-2.07031 -4.26432,-3.10547 -7.32422,-3.10547 z m 42.92969,0.35156 v 17.8711 h 3.22266 v -6.9336 h 3.16406 l 6.46484,6.9336 h 4.35547 l -7.5,-7.8125 c 1.28907,-0.49479 2.29818,-1.15886 3.02735,-1.99219 0.74218,-0.84635 1.11328,-1.90104 1.11328,-3.16406 0,-0.95053 -0.19531,-1.73828 -0.58594,-2.36328 -0.37761,-0.63802 -0.97656,-1.17839 -1.79687,-1.6211 -0.76823,-0.40364 -1.54948,-0.65755 -2.34375,-0.76171 -0.79427,-0.10417 -1.80339,-0.15626 -3.02735,-0.15626 z m -77.55859,0.25391 8.76953,21.81641 h 3.69141 l 8.82812,-21.81641 h -3.84766 l -6.69921,17.36328 -6.75782,-17.36328 z m 50.39062,0 v 21.81641 h 3.67188 v -15.48828 c 0.97656,-0.79427 1.99219,-1.4388 3.04687,-1.9336 1.05469,-0.50781 2.14844,-0.76172 3.28125,-0.76172 0.70313,0 1.3086,0.0325 1.81641,0.0977 0.52083,0.0521 1.05469,0.14323 1.60156,0.27344 h 0.19531 v -3.76953 c -0.57291,-0.0911 -1.0026,-0.14972 -1.28906,-0.17579 -0.28646,-0.0391 -0.7487,-0.0586 -1.38672,-0.0586 -1.15885,0 -2.29817,0.2474 -3.41797,0.74219 -1.10676,0.48177 -2.38932,1.30859 -3.84765,2.48047 v -3.22266 z m 30.39063,2.1875 h 2.91015 c 0.69011,0 1.26303,0.0325 1.71875,0.0977 0.45574,0.0651 0.88542,0.20833 1.28907,0.42969 0.42968,0.23437 0.73568,0.53385 0.91797,0.89843 0.18229,0.36458 0.27343,0.78125 0.27343,1.25 0,0.58594 -0.0846,1.07423 -0.2539,1.46485 -0.15626,0.39062 -0.4362,0.7487 -0.83985,1.07422 -0.3776,0.29948 -0.85937,0.51432 -1.44531,0.64453 -0.58594,0.11718 -1.28256,0.17578 -2.08984,0.17578 h -2.48047 z m -93.32031,0.23438 c 1.95312,0 3.40494,0.52734 4.35546,1.58203 0.96357,1.05469 1.45185,2.54557 1.46485,4.47265 h -12.5 c 0.15624,-1.71874 0.8138,-3.15754 1.97265,-4.3164 1.17188,-1.15886 2.7409,-1.73828 4.70704,-1.73828 z m 47.16796,0.13671 c 1.96615,0 3.50261,0.69011 4.60938,2.07032 1.10677,1.36719 1.66016,3.46354 1.66016,6.28906 0,2.76041 -0.55991,4.84375 -1.67969,6.25 -1.10678,1.39323 -2.63672,2.08984 -4.58985,2.08984 -1.97916,0 -3.52214,-0.70312 -4.6289,-2.10937 -1.10678,-1.41927 -1.66016,-3.4961 -1.66016,-6.23047 0,-2.82552 0.54687,-4.92187 1.64063,-6.28906 1.10676,-1.38021 2.65625,-2.07032 4.64843,-2.07032 z m -72.14843,0.19532 c 0.92447,0 1.77734,0.0846 2.55859,0.2539 0.78125,0.16928 1.66666,0.47527 2.65625,0.91797 v 12.51953 c -0.92448,0.72917 -1.92057,1.32813 -2.98828,1.79688 -1.06771,0.45573 -2.1224,0.68359 -3.16406,0.68359 -1.95313,0 -3.3724,-0.67057 -4.25782,-2.01172 -0.88541,-1.35416 -1.32812,-3.32682 -1.32812,-5.91797 0,-2.6302 0.57292,-4.66145 1.71875,-6.09374 1.14583,-1.4323 2.74739,-2.14844 4.80469,-2.14844 z"
         inkscape:original="M 197.36914 191.32031 L 197.36914 200.77344 C 196.39258 200.26563 195.46159 199.89454 194.57617 199.66016 C 193.69076 199.41276 192.67513 199.28906 191.5293 199.28906 C 190.26627 199.28906 189.04232 199.54948 187.85742 200.07031 C 186.68555 200.59115 185.6569 201.34636 184.77148 202.33594 C 183.87305 203.35156 183.1569 204.58203 182.62305 206.02734 C 182.10221 207.47266 181.8418 209.11979 181.8418 210.96875 C 181.8418 214.52344 182.60352 217.30339 184.12695 219.30859 C 185.66341 221.3138 187.73372 222.31641 190.33789 222.31641 C 191.67904 222.31641 192.92253 222.0625 194.06836 221.55469 C 195.21419 221.04688 196.31445 220.33724 197.36914 219.42578 L 197.36914 221.71094 L 201.04102 221.71094 L 201.04102 191.32031 L 197.36914 191.32031 z M 313.56055 192.02344 C 308.89909 192.02344 304.91472 193.67708 301.60742 196.98438 C 298.31315 200.27865 296.66602 204.25651 296.66602 208.91797 C 296.66602 213.57942 298.31315 217.5638 301.60742 220.87109 C 304.91472 224.16537 308.89909 225.8125 313.56055 225.8125 C 318.222 225.8125 322.19987 224.16537 325.49414 220.87109 C 328.80143 217.5638 330.45508 213.57942 330.45508 208.91797 C 330.45508 204.25651 328.80143 200.27865 325.49414 196.98438 C 322.19987 193.67708 318.222 192.02344 313.56055 192.02344 z M 76.236328 192.10156 C 74.100911 192.10156 72.154297 192.4336 70.396484 193.09766 C 68.651692 193.76172 67.160807 194.72526 65.923828 195.98828 C 64.647786 197.29036 63.671224 198.88542 62.994141 200.77344 C 62.317057 202.66146 61.978516 204.80339 61.978516 207.19922 C 61.978516 209.72526 62.330078 211.94531 63.033203 213.85938 C 63.736328 215.76042 64.712891 217.32943 65.962891 218.56641 C 67.238933 219.82943 68.736328 220.76042 70.455078 221.35938 C 72.186849 221.94532 74.107422 222.23828 76.216797 222.23828 C 77.336589 222.23828 78.358724 222.14714 79.283203 221.96484 C 80.220703 221.79557 81.086589 221.58724 81.880859 221.33984 C 82.818359 221.04036 83.573568 220.7539 84.146484 220.48047 C 84.732422 220.20703 85.383463 219.91406 86.099609 219.60156 L 86.099609 215.07031 L 85.826172 215.07031 C 84.406901 216.34635 82.883463 217.30339 81.255859 217.94141 C 79.628255 218.57943 77.883464 218.89844 76.021484 218.89844 C 74.667318 218.89844 73.378256 218.67057 72.154297 218.21484 C 70.94336 217.7461 69.882161 217.02995 68.970703 216.06641 C 68.098307 215.14193 67.382162 213.94401 66.822266 212.47266 C 66.275391 211.0013 66.001953 209.24349 66.001953 207.19922 C 66.001953 205.24609 66.249349 203.52734 66.744141 202.04297 C 67.251953 200.54557 67.955078 199.30859 68.853516 198.33203 C 69.777995 197.32942 70.826172 196.59375 71.998047 196.125 C 73.182943 195.64323 74.511068 195.40234 75.982422 195.40234 C 77.779297 195.40234 79.465495 195.70833 81.041016 196.32031 C 82.616536 196.93229 84.205078 197.90885 85.806641 199.25 L 86.099609 199.25 L 86.099609 194.66016 C 84.198567 193.70964 82.466797 193.04557 80.904297 192.66797 C 79.354818 192.29036 77.798828 192.10156 76.236328 192.10156 z M 98.794922 192.62891 L 88.208984 221.71094 L 92.134766 221.71094 L 94.986328 213.60547 L 107.56445 213.60547 L 110.41602 221.71094 L 114.53711 221.71094 L 103.95117 192.62891 L 98.794922 192.62891 z M 133.01367 192.62891 L 133.01367 221.71094 L 152.17383 221.71094 L 152.17383 218.27344 L 136.88086 218.27344 L 136.88086 207.47266 L 152.17383 207.47266 L 152.17383 204.03516 L 136.88086 204.03516 L 136.88086 196.06641 L 152.17383 196.06641 L 152.17383 192.62891 L 133.01367 192.62891 z M 313.56055 194.19141 C 317.597 194.19141 321.04101 195.63672 323.89258 198.52734 C 326.75716 201.41797 328.18945 204.88151 328.18945 208.91797 C 328.18945 212.95442 326.75716 216.41797 323.89258 219.30859 C 321.04101 222.19922 317.597 223.64453 313.56055 223.64453 C 309.52409 223.64453 306.07357 222.19922 303.20898 219.30859 C 300.35742 216.41797 298.93164 212.95442 298.93164 208.91797 C 298.93164 204.88151 300.35742 201.41797 303.20898 198.52734 C 306.07357 195.63672 309.52409 194.19141 313.56055 194.19141 z M 101.27539 196.00781 L 106.37305 210.28516 L 96.158203 210.28516 L 101.27539 196.00781 z M 169.0293 199.28906 C 167.74023 199.28906 166.48373 199.55599 165.25977 200.08984 C 164.03581 200.6237 162.85091 201.36589 161.70508 202.31641 L 161.70508 199.89453 L 158.0332 199.89453 L 158.0332 221.71094 L 161.70508 221.71094 L 161.70508 205.42188 C 162.70768 204.65365 163.75586 204.02214 164.84961 203.52734 C 165.94336 203.03255 166.99153 202.78516 167.99414 202.78516 C 168.9707 202.78516 169.76497 202.92187 170.37695 203.19531 C 170.98893 203.45573 171.45768 203.85937 171.7832 204.40625 C 172.0957 204.90104 172.31055 205.59114 172.42773 206.47656 C 172.54492 207.34896 172.60352 208.28646 172.60352 209.28906 L 172.60352 221.71094 L 176.27539 221.71094 L 176.27539 207.55078 C 176.27539 204.88151 175.6569 202.83724 174.41992 201.41797 C 173.18294 199.9987 171.38606 199.28906 169.0293 199.28906 z M 217.33008 199.28906 C 214.15299 199.28906 211.58789 200.33724 209.63477 202.43359 C 207.69467 204.52995 206.72461 207.36198 206.72461 210.92969 C 206.72461 214.53646 207.74024 217.32292 209.77148 219.28906 C 211.80274 221.24219 214.62825 222.21875 218.24805 222.21875 C 219.66731 222.21875 221.02148 222.04297 222.31055 221.69141 C 223.59961 221.33985 224.86263 220.90365 226.09961 220.38281 L 226.09961 216.37891 L 225.9043 216.37891 C 225.26627 216.95183 224.19205 217.53776 222.68164 218.13672 C 221.18425 218.72265 219.69336 219.01562 218.20898 219.01562 C 217.0892 219.01562 216.06055 218.85938 215.12305 218.54688 C 214.19857 218.23438 213.39779 217.76562 212.7207 217.14062 C 212.01758 216.50261 211.46419 215.6888 211.06055 214.69922 C 210.6569 213.69661 210.45508 212.52474 210.45508 211.18359 L 226.5293 211.18359 L 226.5293 209.19141 C 226.5293 206.02735 225.72852 203.58594 224.12695 201.86719 C 222.53841 200.14844 220.27278 199.28906 217.33008 199.28906 z M 264.30273 199.28906 C 261.2168 199.28906 258.76237 200.32422 256.93945 202.39453 C 255.12956 204.45182 254.22461 207.25781 254.22461 210.8125 C 254.22461 214.36719 255.12956 217.17318 256.93945 219.23047 C 258.76237 221.28776 261.2168 222.31641 264.30273 222.31641 C 267.36263 222.31641 269.80404 221.28776 271.62695 219.23047 C 273.44987 217.17318 274.36133 214.36719 274.36133 210.8125 C 274.36133 207.25781 273.44987 204.45182 271.62695 202.39453 C 269.80404 200.32422 267.36263 199.28906 264.30273 199.28906 z M 307.23242 199.64062 L 307.23242 217.51172 L 310.45508 217.51172 L 310.45508 210.57812 L 313.61914 210.57812 L 320.08398 217.51172 L 324.43945 217.51172 L 316.93945 209.69922 C 318.22852 209.20443 319.23763 208.54036 319.9668 207.70703 C 320.70898 206.86068 321.08008 205.80599 321.08008 204.54297 C 321.08008 203.59244 320.88477 202.80469 320.49414 202.17969 C 320.11653 201.54167 319.51758 201.0013 318.69727 200.55859 C 317.92904 200.15495 317.14779 199.90104 316.35352 199.79688 C 315.55925 199.69271 314.55013 199.64062 313.32617 199.64062 L 307.23242 199.64062 z M 229.67383 199.89453 L 238.44336 221.71094 L 242.13477 221.71094 L 250.96289 199.89453 L 247.11523 199.89453 L 240.41602 217.25781 L 233.6582 199.89453 L 229.67383 199.89453 z M 280.06445 199.89453 L 280.06445 221.71094 L 283.73633 221.71094 L 283.73633 206.22266 C 284.71289 205.42839 285.72852 204.78386 286.7832 204.28906 C 287.83789 203.78125 288.93164 203.52734 290.06445 203.52734 C 290.76758 203.52734 291.37305 203.55987 291.88086 203.625 C 292.40169 203.67708 292.93555 203.76823 293.48242 203.89844 L 293.67773 203.89844 L 293.67773 200.12891 C 293.10482 200.03779 292.67513 199.97919 292.38867 199.95312 C 292.10221 199.91406 291.63997 199.89453 291.00195 199.89453 C 289.8431 199.89453 288.70378 200.14193 287.58398 200.63672 C 286.47722 201.11849 285.19466 201.94531 283.73633 203.11719 L 283.73633 199.89453 L 280.06445 199.89453 z M 310.45508 202.08203 L 313.36523 202.08203 C 314.05534 202.08203 314.62826 202.11455 315.08398 202.17969 C 315.53972 202.24479 315.9694 202.38802 316.37305 202.60938 C 316.80273 202.84375 317.10873 203.14323 317.29102 203.50781 C 317.47331 203.87239 317.56445 204.28906 317.56445 204.75781 C 317.56445 205.34375 317.47981 205.83204 317.31055 206.22266 C 317.15429 206.61328 316.87435 206.97136 316.4707 207.29688 C 316.0931 207.59636 315.61133 207.8112 315.02539 207.94141 C 314.43945 208.05859 313.74283 208.11719 312.93555 208.11719 L 310.45508 208.11719 L 310.45508 202.08203 z M 217.13477 202.31641 C 219.08789 202.31641 220.53971 202.84375 221.49023 203.89844 C 222.4538 204.95313 222.94208 206.44401 222.95508 208.37109 L 210.45508 208.37109 C 210.61132 206.65235 211.26888 205.21355 212.42773 204.05469 C 213.59961 202.89583 215.16863 202.31641 217.13477 202.31641 z M 264.30273 202.45312 C 266.26888 202.45312 267.80534 203.14323 268.91211 204.52344 C 270.01888 205.89063 270.57227 207.98698 270.57227 210.8125 C 270.57227 213.57291 270.01236 215.65625 268.89258 217.0625 C 267.7858 218.45573 266.25586 219.15234 264.30273 219.15234 C 262.32357 219.15234 260.78059 218.44922 259.67383 217.04297 C 258.56705 215.6237 258.01367 213.54687 258.01367 210.8125 C 258.01367 207.98698 258.56054 205.89063 259.6543 204.52344 C 260.76106 203.14323 262.31055 202.45312 264.30273 202.45312 z M 192.1543 202.64844 C 193.07877 202.64844 193.93164 202.73307 194.71289 202.90234 C 195.49414 203.07162 196.37955 203.37761 197.36914 203.82031 L 197.36914 216.33984 C 196.44466 217.06901 195.44857 217.66797 194.38086 218.13672 C 193.31315 218.59245 192.25846 218.82031 191.2168 218.82031 C 189.26367 218.82031 187.8444 218.14974 186.95898 216.80859 C 186.07357 215.45443 185.63086 213.48177 185.63086 210.89062 C 185.63086 208.26042 186.20378 206.22917 187.34961 204.79688 C 188.49544 203.36458 190.097 202.64844 192.1543 202.64844 z "
         inkscape:radius="0"
         sodipodi:type="inkscape:offset"
         id="path70" />
    </g>
  </g>
</svg>
