<?xml version="1.0" encoding="UTF-8" standalone="no"?>
<svg
   xmlns:dc="http://purl.org/dc/elements/1.1/"
   xmlns:cc="http://creativecommons.org/ns#"
   xmlns:rdf="http://www.w3.org/1999/02/22-rdf-syntax-ns#"
   xmlns:svg="http://www.w3.org/2000/svg"
   xmlns="http://www.w3.org/2000/svg"
   xmlns:sodipodi="http://sodipodi.sourceforge.net/DTD/sodipodi-0.dtd"
   xmlns:inkscape="http://www.inkscape.org/namespaces/inkscape"
   xml:space="preserve"
   style="enable-background:new 0 0 400 245;"
   viewBox="0 0 400 245"
   y="0px"
   x="0px"
   id="Layer_1"
   version="1.1"
   sodipodi:docname="omp_ibm-mq-for-cli.svg"
   inkscape:version="0.92.2 5c3e80d, 2017-08-06"><sodipodi:namedview
     pagecolor="#ffffff"
     bordercolor="#666666"
     borderopacity="1"
     objecttolerance="10"
     gridtolerance="10"
     guidetolerance="10"
     inkscape:pageopacity="0"
     inkscape:pageshadow="2"
     inkscape:window-width="896"
     inkscape:window-height="591"
     id="namedview61"
     showgrid="false"
     inkscape:zoom="0.81"
     inkscape:cx="243.36516"
     inkscape:cy="122.5"
     inkscape:window-x="256"
     inkscape:window-y="59"
     inkscape:window-maximized="0"
     inkscape:current-layer="Layer_1" /><metadata
     id="metadata63"><rdf:RDF><cc:Work
         rdf:about=""><dc:format>image/svg+xml</dc:format><dc:type
           rdf:resource="http://purl.org/dc/dcmitype/StillImage" /><dc:title></dc:title></cc:Work></rdf:RDF></metadata><defs
     id="defs61" /><style
     id="style2"
     type="text/css">
	.st0{fill-rule:evenodd;clip-rule:evenodd;fill:#CF4044;}
	.st1{fill:#000F9F;}
	.st2{fill:#CC092F;}
	.st3{font-family:'HelveticaNeue-Light';}
	.st4{font-size:26.8184px;}
	.st5{fill:#4C83C3;}
</style><g
     id="g56"><path
       style="fill:#4c83c3"
       id="path12"
       d="m 397.3,14 h -65.7 l 4.1,-11.3 h 61.6 z M 222.1,2.7 h 61 l 4,11.4 h -65 c 0.1,-0.1 0,-11.4 0,-11.4 z m -48.3,0 c 10,1 18.8,4.6 26.3,11.4 H 89.5 V 2.7 Z"
       class="st5" /><path
       style="fill:#4c83c3"
       id="path14"
       d="M 2.7,2.7 H 79.5 V 14 H 2.7 Z"
       class="st5" /><path
       style="fill:#4c83c3"
       id="path16"
       d="m 397.3,35.3 h -73.2 l 4,-11.3 h 69.3 v 11.3 z m -102.5,0 H 222.2 V 24 h 68.6 z M 208.6,24 c 1.5,3.8 3.2,6.9 3.2,11.3 H 89.5 V 24 Z"
       class="st5" /><path
       style="fill:#4c83c3"
       id="path18"
       d="M 2.7,24 H 79.5 V 35.3 H 2.7 Z"
       class="st5" /><path
       style="fill:#4c83c3"
       id="path20"
       d="m 316.6,56.6 4.1,-11.3 h 55 v 11.3 z m -18.4,-11.3 4.1,11.3 H 243.8 V 45.3 Z m -85.5,-0.1 c 0,3.9 -0.5,7.9 -1.6,11.3 H 177.6 V 45.2 Z"
       class="st5" /><path
       style="fill:#4c83c3"
       id="path22"
       d="m 24.1,45.3 h 33 v 11.3 h -33 z"
       class="st5" /><path
       style="fill:#4c83c3"
       id="path24"
       d="m 111.7,45.2 h 33 v 11.3 h -33 z"
       class="st5" /><path
       style="fill:#4c83c3"
       id="path26"
       d="m 276.2,68.8 v 8.6 H 243.7 V 66.2 h 61.8 l 3.9,10.5 3.7,-10.5 h 62.3 v 11.3 h -32.3 v -8.6 l -3,8.6 h -61 z M 111.7,66.2 h 94.6 c -2.1,3.8 -5.8,8.3 -9.4,11.3 h -85.2 z"
       class="st5" /><path
       style="fill:#4c83c3"
       id="path28"
       d="m 24.1,66.2 h 33 v 11.3 h -33 z"
       class="st5" /><path
       style="fill:#4c83c3"
       id="path30"
       d="m 343.3,87.5 h 32.3 v 11.3 h -32.3 z"
       class="st5" /><path
       style="fill:#4c83c3"
       id="path32"
       d="m 276.2,87.5 h -32.5 v 11.3 h 32.5 c 0,-0.2 0.1,-11.3 0,-11.3 z m 60.6,0 c -0.1,0 -3.8,11.3 -4,11.3 h -46 l -4.1,-11.3 z m -225.1,0 h 85 c 3.9,3.3 7.4,7.2 10.1,11.3 h -95.2 c 0.1,-0.2 0.1,-11.3 0.1,-11.3 z M 57.1,98.6 V 87.4 H 24.2 v 11.3 h 32.9 z"
       class="st5" /><path
       style="fill:#4c83c3"
       id="path34"
       d="m 343.3,108.7 h 32.3 V 120 h -32.3 z"
       class="st5" /><path
       style="fill:#4c83c3"
       id="path36"
       d="m 243.8,108.7 h 32.5 V 120 h -32.5 z"
       class="st5" /><path
       style="fill:#4c83c3"
       id="path38"
       d="m 325.3,119.9 c 0,-0.1 4,-11.3 4.1,-11.3 h -39.1 c -0.1,0 4,11.3 4,11.3 0,0 31,0.1 31,0 z m -213.6,0 v -11.3 h 33.5 v 11.3 z m 99.8,-11.2 c 1.6,3.4 1.8,7.4 2.1,11.3 h -35.5 v -11.3 z"
       class="st5" /><path
       style="fill:#4c83c3"
       id="path40"
       d="m 24.2,108.7 h 33 V 120 h -33 z"
       class="st5" /><path
       style="fill:#4c83c3"
       id="path42"
       d="m 343.3,129.5 h 54 v 11.3 h -54 z"
       class="st5" /><path
       style="fill:#4c83c3"
       id="path44"
       d="m 222.1,129.5 h 54.1 v 11.3 h -54.1 z"
       class="st5" /><path
       style="fill:#4c83c3"
       id="path46"
       d="m 317.9,140.8 h -16.4 l -4,-11.3 h 24.3 z M 2.7,129.5 v 11.3 h 76.8 v -11.3 z m 209.5,0 c -0.8,3.8 -1.6,8.2 -4.3,11.3 H 89.5 v -11.3 z m 98.3,32.6 H 309 l -3.9,-11.3 h 9.3 z"
       class="st5" /><path
       style="fill:#4c83c3"
       id="path48"
       d="m 343.3,150.8 h 54 v 11.3 h -54 z"
       class="st5" /><path
       style="fill:#4c83c3"
       id="path50"
       d="m 89.5,162.1 v -11.3 h 111.2 c -7.4,7.1 -17.6,11.1 -28.6,11.3 H 89.5"
       class="st5" /><path
       style="fill:#4c83c3"
       id="path52"
       d="m 222.1,150.8 h 54.1 v 11.3 h -54.1 z"
       class="st5" /><path
       style="fill:#4c83c3"
       id="path54"
       d="m 79.5,150.8 v 11.3 H 2.7 v -11.3 c 0,0 76.7,0.1 76.8,0 z"
       class="st5" /></g><g
     aria-label="MQ Plug-in for Zowe CLI "
     style="font-style:normal;font-weight:normal;font-size:40px;line-height:1.25;font-family:sans-serif;letter-spacing:0px;word-spacing:0px;fill:#000000;fill-opacity:1;stroke:none"
     id="text65"><path
       sodipodi:type="inkscape:offset"
       inkscape:radius="0"
       inkscape:original="M 200.21875 192.5957 C 198.43316 192.5957 197.06836 193.10525 196.12305 194.12695 C 195.17773 195.13911 194.70508 196.59592 194.70508 198.49609 L 194.70508 199.02539 L 192.88672 199.02539 L 192.88672 201.28906 L 194.70508 201.28906 L 194.70508 215.02539 L 197.39844 215.02539 L 197.39844 201.28906 L 202.16797 201.28906 L 202.16797 199.02539 L 197.3125 199.02539 L 197.3125 198.48242 C 197.3125 197.14562 197.57031 196.22287 198.08594 195.7168 C 198.61111 195.20117 199.45009 194.94336 200.60547 194.94336 C 200.96832 194.94336 201.38975 194.9924 201.86719 195.08789 C 202.34461 195.17382 202.73134 195.25976 203.02734 195.3457 L 203.16992 195.3457 L 203.16992 192.88086 C 202.76888 192.80445 202.32487 192.73891 201.83789 192.68164 C 201.36046 192.62437 200.82032 192.5957 200.21875 192.5957 z M 99.371094 192.73828 L 99.371094 215.02539 L 102.06445 215.02539 L 102.06445 192.73828 L 99.371094 192.73828 z M 57.132812 193.25391 C 55.662327 193.25391 54.301649 193.50151 53.050781 193.99805 C 51.809462 194.49457 50.769965 195.21072 49.929688 196.14648 C 49.051216 197.12999 48.382161 198.31467 47.923828 199.69922 C 47.465495 201.07422 47.236328 202.63129 47.236328 204.36914 C 47.236328 206.13563 47.465495 207.70508 47.923828 209.08008 C 48.391709 210.45508 49.054687 211.61523 49.914062 212.56055 C 50.773438 213.50586 51.814887 214.22808 53.037109 214.72461 C 54.26888 215.22114 55.633681 215.46875 57.132812 215.46875 C 57.333333 215.46875 57.53993 215.45852 57.75 215.43945 C 57.969618 215.42992 58.192708 215.40734 58.421875 215.36914 C 58.507812 217.06879 59.052084 218.37218 60.054688 219.2793 C 61.06684 220.19596 62.404948 220.6543 64.066406 220.6543 C 64.648872 220.6543 65.215712 220.61958 65.769531 220.55273 C 66.332899 220.49545 66.901693 220.39519 67.474609 220.25195 L 67.474609 217.64648 L 67.087891 217.64648 C 66.858724 217.74197 66.472005 217.84635 65.927734 217.96094 C 65.393012 218.08506 64.930556 218.14648 64.539062 218.14648 C 63.278646 218.14648 62.409071 217.8457 61.931641 217.24414 C 61.454209 216.64258 61.196396 215.79753 61.158203 214.70898 C 62.953342 213.99284 64.38151 212.74262 65.441406 210.95703 C 66.510851 209.17144 67.044922 206.97591 67.044922 204.36914 C 67.044922 202.61219 66.811632 201.0408 66.34375 199.65625 C 65.885417 198.2717 65.220487 197.10135 64.351562 196.14648 C 63.501737 195.22027 62.466363 194.5102 61.244141 194.01367 C 60.031467 193.50759 58.660591 193.25391 57.132812 193.25391 z M 344.72266 193.31055 C 343.15668 193.31055 341.73047 193.55404 340.44141 194.04102 C 339.16189 194.52799 338.06728 195.23589 337.16016 196.16211 C 336.2244 197.11697 335.50825 198.28538 335.01172 199.66992 C 334.51519 201.05447 334.26758 202.62587 334.26758 204.38281 C 334.26758 206.23525 334.52539 207.86393 335.04102 209.26758 C 335.55664 210.66167 336.27279 211.81163 337.18945 212.71875 C 338.12521 213.64496 339.22395 214.32834 340.48438 214.76758 C 341.75434 215.19726 343.16211 215.41211 344.70898 215.41211 C 345.53016 215.41211 346.27908 215.34462 346.95703 215.21094 C 347.64453 215.0868 348.28081 214.93338 348.86328 214.75195 C 349.55078 214.53234 350.1033 214.32357 350.52344 214.12305 C 350.95313 213.92253 351.43186 213.70768 351.95703 213.47852 L 351.95703 210.1543 L 351.75586 210.1543 C 350.71506 211.09006 349.59788 211.79188 348.4043 212.25977 C 347.21072 212.72765 345.93186 212.96289 344.56641 212.96289 C 343.57335 212.96289 342.62804 212.79514 341.73047 212.46094 C 340.84245 212.11718 340.06293 211.59136 339.39453 210.88477 C 338.75477 210.20681 338.2309 209.32899 337.82031 208.25 C 337.41927 207.17101 337.21875 205.88195 337.21875 204.38281 C 337.21875 202.95052 337.39887 201.6901 337.76172 200.60156 C 338.13411 199.50348 338.64974 198.59701 339.30859 197.88086 C 339.98655 197.14561 340.75586 196.60547 341.61523 196.26172 C 342.48416 195.90842 343.45812 195.73242 344.53711 195.73242 C 345.85482 195.73242 347.09071 195.95551 348.24609 196.4043 C 349.40147 196.85308 350.56771 197.56923 351.74219 198.55273 L 351.95703 198.55273 L 351.95703 195.1875 C 350.56293 194.49045 349.29232 194.00348 348.14648 193.72656 C 347.0102 193.44966 345.86849 193.31055 344.72266 193.31055 z M 157.46484 193.55469 L 157.46484 196.34766 L 160.50195 196.34766 L 160.50195 193.55469 L 157.46484 193.55469 z M 23.703125 193.69727 L 23.703125 215.02539 L 26.353516 215.02539 L 26.353516 196.64844 L 32.240234 209.15234 L 33.929688 209.15234 L 39.859375 196.64844 L 39.859375 215.02539 L 42.695312 215.02539 L 42.695312 193.69727 L 38.757812 193.69727 L 33.257812 205.57227 L 27.570312 193.69727 L 23.703125 193.69727 z M 81.855469 193.69727 L 81.855469 215.02539 L 84.691406 215.02539 L 84.691406 207.07617 L 87.527344 207.07617 C 89.055121 207.07617 90.319661 206.8941 91.322266 206.53125 C 92.32487 206.15886 93.194445 205.60439 93.929688 204.86914 C 94.521701 204.27713 94.980035 203.58138 95.304688 202.7793 C 95.63889 201.96767 95.804687 201.08789 95.804688 200.14258 C 95.804688 198.90126 95.581598 197.87609 95.132812 197.06445 C 94.693577 196.25282 94.067491 195.57356 93.255859 195.0293 C 92.568359 194.57096 91.780599 194.23742 90.892578 194.02734 C 90.004557 193.80773 88.920139 193.69727 87.640625 193.69727 L 81.855469 193.69727 z M 245.19336 193.69727 L 245.19336 196.21875 L 257.7832 196.21875 L 244.70703 212.38867 L 244.70703 215.02539 L 261.34961 215.02539 L 261.34961 212.50391 L 247.82812 212.50391 L 261.03516 196.26172 L 261.03516 193.69727 L 245.19336 193.69727 z M 355.99609 193.69727 L 355.99609 215.02539 L 369.48828 215.02539 L 369.48828 212.50391 L 358.83203 212.50391 L 358.83203 193.69727 L 355.99609 193.69727 z M 371.42188 193.69727 L 371.42188 195.875 L 374.21484 195.875 L 374.21484 212.84766 L 371.42188 212.84766 L 371.42188 215.02539 L 379.84375 215.02539 L 379.84375 212.84766 L 377.05078 212.84766 L 377.05078 195.875 L 379.84375 195.875 L 379.84375 193.69727 L 371.42188 193.69727 z M 57.148438 195.70312 C 59.296875 195.70312 60.991102 196.45812 62.232422 197.9668 C 63.473741 199.46593 64.09375 201.60004 64.09375 204.36914 C 64.09375 207.16688 63.463542 209.30924 62.203125 210.79883 C 60.952257 212.27886 59.268229 213.01953 57.148438 213.01953 C 55.028645 213.01953 53.338542 212.27886 52.078125 210.79883 C 50.817708 209.30924 50.1875 207.16688 50.1875 204.36914 C 50.1875 201.60004 50.803385 199.46593 52.035156 197.9668 C 53.276476 196.45812 54.980903 195.70312 57.148438 195.70312 z M 84.691406 196.13281 L 87.498047 196.13281 C 88.395616 196.13281 89.136285 196.2003 89.71875 196.33398 C 90.310764 196.45812 90.834635 196.66688 91.292969 196.96289 C 91.818142 197.30664 92.210937 197.75066 92.46875 198.29492 C 92.726563 198.8392 92.855469 199.4796 92.855469 200.21484 C 92.855469 200.84506 92.759332 201.41385 92.568359 201.91992 C 92.386936 202.426 92.071832 202.9069 91.623047 203.36523 C 91.174262 203.81402 90.591146 204.14344 89.875 204.35352 C 89.158854 204.55404 88.227865 204.6543 87.082031 204.6543 L 84.691406 204.6543 L 84.691406 196.13281 z M 131.95703 198.58203 C 131.07856 198.58203 130.19466 198.77235 129.30664 199.1543 C 128.41862 199.52669 127.66363 200.05252 127.04297 200.73047 C 126.37457 201.45616 125.84462 202.31966 125.45312 203.32227 C 125.07118 204.31532 124.88086 205.5 124.88086 206.875 C 124.88086 209.38629 125.43945 211.3342 126.55664 212.71875 C 127.68338 214.09375 129.20161 214.78125 131.11133 214.78125 C 132.25716 214.78125 133.19835 214.6237 133.93359 214.30859 C 134.67839 213.98394 135.45594 213.49696 136.26758 212.84766 L 136.26758 214.30859 C 136.26758 214.9579 136.19596 215.54514 136.05273 216.07031 C 135.9095 216.59549 135.67014 217.04362 135.33594 217.41602 C 135.00174 217.80751 134.53516 218.11437 133.93359 218.33398 C 133.33203 218.5536 132.57292 218.66211 131.65625 218.66211 C 130.70139 218.66211 129.74588 218.5332 128.79102 218.27539 C 127.83615 218.02713 127.13845 217.81836 126.69922 217.64648 L 126.55664 217.64648 L 126.55664 220.39648 C 127.33963 220.6161 128.13151 220.7819 128.93359 220.89648 C 129.74522 221.02062 130.57595 221.08398 131.42578 221.08398 C 133.98481 221.08398 135.88151 220.4477 137.11328 219.17773 C 138.34505 217.90777 138.96094 215.91688 138.96094 213.20508 L 138.96094 199.02539 L 136.43945 199.02539 L 136.26758 199.71289 C 135.57053 199.33094 134.90756 199.05056 134.27734 198.86914 C 133.65668 198.67817 132.88324 198.58203 131.95703 198.58203 z M 173.75 198.58203 C 172.80469 198.58203 171.88389 198.77843 170.98633 199.16992 C 170.08875 199.56142 169.21918 200.10569 168.37891 200.80273 L 168.37891 199.02539 L 165.6875 199.02539 L 165.6875 215.02539 L 168.37891 215.02539 L 168.37891 203.08008 C 169.11415 202.5167 169.88346 202.0523 170.68555 201.68945 C 171.48763 201.32661 172.25694 201.14648 172.99219 201.14648 C 173.70833 201.14648 174.2895 201.24675 174.73828 201.44727 C 175.18707 201.63824 175.53082 201.93294 175.76953 202.33398 C 175.9987 202.69684 176.15625 203.20422 176.24219 203.85352 C 176.32813 204.49328 176.37109 205.18078 176.37109 205.91602 L 176.37109 215.02539 L 179.06445 215.02539 L 179.06445 204.64062 C 179.06445 202.68317 178.61024 201.18338 177.70312 200.14258 C 176.796 199.10178 175.4783 198.58203 173.75 198.58203 z M 211.13281 198.58203 C 208.86979 198.58203 207.07118 199.34115 205.73438 200.85938 C 204.40712 202.36806 203.74219 204.42643 203.74219 207.0332 C 203.74219 209.63998 204.40712 211.6964 205.73438 213.20508 C 207.07118 214.71376 208.86979 215.46875 211.13281 215.46875 C 213.37674 215.46875 215.1671 214.71376 216.50391 213.20508 C 217.84071 211.6964 218.50977 209.63998 218.50977 207.0332 C 218.50977 204.42643 217.84071 202.36806 216.50391 200.85938 C 215.1671 199.34115 213.37674 198.58203 211.13281 198.58203 z M 271.91992 198.58203 C 269.6569 198.58203 267.85634 199.34115 266.51953 200.85938 C 265.19227 202.36806 264.5293 204.42643 264.5293 207.0332 C 264.5293 209.63998 265.19227 211.6964 266.51953 213.20508 C 267.85634 214.71376 269.6569 215.46875 271.91992 215.46875 C 274.16384 215.46875 275.95421 214.71376 277.29102 213.20508 C 278.62782 211.6964 279.29688 209.63998 279.29688 207.0332 C 279.29688 204.42643 278.62782 202.36806 277.29102 200.85938 C 275.95421 199.34115 274.16384 198.58203 271.91992 198.58203 z M 314.13086 198.58203 C 311.801 198.58203 309.91862 199.35135 308.48633 200.88867 C 307.06359 202.426 306.35352 204.50282 306.35352 207.11914 C 306.35352 209.76411 307.09831 211.80621 308.58789 213.24805 C 310.07748 214.68033 312.14822 215.39648 314.80273 215.39648 C 315.84353 215.39648 316.83789 215.26757 317.7832 215.00977 C 318.72852 214.75195 319.65343 214.43273 320.56055 214.05078 L 320.56055 211.11523 L 320.41797 211.11523 C 319.95009 211.53537 319.16233 211.96506 318.05469 212.4043 C 316.9566 212.83399 315.86394 213.04883 314.77539 213.04883 C 313.95421 213.04883 313.19922 212.93424 312.51172 212.70508 C 311.83377 212.47591 311.24653 212.13216 310.75 211.67383 C 310.23438 211.20594 309.82921 210.60851 309.5332 209.88281 C 309.2372 209.14757 309.08789 208.28819 309.08789 207.30469 L 320.87695 207.30469 L 320.87695 205.84375 C 320.87695 203.52344 320.28971 201.73307 319.11523 200.47266 C 317.9503 199.21224 316.28885 198.58203 314.13086 198.58203 z M 107.30664 199.02539 L 107.30664 209.41016 C 107.30664 211.39626 107.77517 212.90429 108.71094 213.93555 C 109.6467 214.95725 110.95421 215.46875 112.63477 215.46875 C 113.63737 215.46875 114.55403 215.27843 115.38477 214.89648 C 116.21549 214.51454 117.08507 213.96419 117.99219 213.24805 L 117.99219 215.02539 L 120.68359 215.02539 L 120.68359 199.02539 L 117.99219 199.02539 L 117.99219 210.9707 C 117.27604 211.53408 116.50261 211.99848 115.67188 212.36133 C 114.8507 212.72417 114.09158 212.9043 113.39453 212.9043 C 112.61154 212.9043 112.0141 212.81011 111.60352 212.61914 C 111.19292 212.42817 110.85938 212.12131 110.60156 211.70117 C 110.3533 211.29059 110.18967 210.79948 110.11328 210.22656 C 110.03689 209.6441 110 208.94639 110 208.13477 L 110 199.02539 L 107.30664 199.02539 z M 157.63672 199.02539 L 157.63672 215.02539 L 160.33008 215.02539 L 160.33008 199.02539 L 157.63672 199.02539 z M 222.69141 199.02539 L 222.69141 215.02539 L 225.38477 215.02539 L 225.38477 203.66602 C 226.10091 203.08355 226.8457 202.61089 227.61914 202.24805 C 228.39257 201.87565 229.19466 201.68945 230.02539 201.68945 C 230.54101 201.68945 230.98502 201.71399 231.35742 201.76172 C 231.73936 201.79991 232.1302 201.8674 232.53125 201.96289 L 232.67578 201.96289 L 232.67578 199.19727 C 232.25564 199.13039 231.94054 199.08743 231.73047 199.06836 C 231.5204 199.03969 231.18077 199.02539 230.71289 199.02539 C 229.86306 199.02539 229.02821 199.20747 228.20703 199.57031 C 227.3954 199.92361 226.45421 200.5293 225.38477 201.38867 L 225.38477 199.02539 L 222.69141 199.02539 z M 282.06055 199.02539 L 286.27148 215.02539 L 288.75 215.02539 L 292.83203 202.69336 L 296.94141 215.02539 L 299.43359 215.02539 L 303.60352 199.02539 L 300.89648 199.02539 L 298.11719 211.41602 L 294.02148 199.02539 L 291.80078 199.02539 L 287.80469 211.41602 L 284.86719 199.02539 L 282.06055 199.02539 z M 313.98633 200.80273 C 315.41862 200.80273 316.48459 201.18945 317.18164 201.96289 C 317.88825 202.73632 318.24633 203.82899 318.25586 205.24219 L 309.08789 205.24219 C 309.20247 203.98177 309.68533 202.926 310.53516 202.07617 C 311.39453 201.22635 312.54449 200.80273 313.98633 200.80273 z M 211.13281 200.90234 C 212.57465 200.90234 213.70204 201.40777 214.51367 202.41992 C 215.32531 203.42253 215.73047 204.96116 215.73047 207.0332 C 215.73047 209.05751 215.32118 210.58399 214.5 211.61523 C 213.68837 212.63694 212.56511 213.14844 211.13281 213.14844 C 209.68143 213.14844 208.54991 212.63282 207.73828 211.60156 C 206.92665 210.56076 206.52148 209.03841 206.52148 207.0332 C 206.52148 204.96116 206.92252 203.42253 207.72461 202.41992 C 208.53624 201.40777 209.67188 200.90234 211.13281 200.90234 z M 271.91992 200.90234 C 273.36176 200.90234 274.48915 201.40777 275.30078 202.41992 C 276.11241 203.42253 276.51758 204.96116 276.51758 207.0332 C 276.51758 209.05751 276.10634 210.58399 275.28516 211.61523 C 274.47352 212.63694 273.35221 213.14844 271.91992 213.14844 C 270.46853 213.14844 269.33702 212.63282 268.52539 211.60156 C 267.71376 210.56076 267.30859 209.03841 267.30859 207.0332 C 267.30859 204.96116 267.70964 203.42253 268.51172 202.41992 C 269.32335 201.40777 270.45898 200.90234 271.91992 200.90234 z M 132.42969 201.00195 C 133.04079 201.00195 133.65061 201.07356 134.26172 201.2168 C 134.88238 201.35048 135.55143 201.57964 136.26758 201.9043 L 136.26758 210.62695 C 135.60872 211.13303 134.88238 211.54015 134.08984 211.8457 C 133.30686 212.14171 132.52517 212.28906 131.74219 212.28906 C 130.28125 212.28906 129.23568 211.8266 128.60547 210.90039 C 127.97526 209.97418 127.66016 208.6135 127.66016 206.81836 C 127.66016 204.92773 128.08377 203.48524 128.93359 202.49219 C 129.78341 201.49913 130.94965 201.00195 132.42969 201.00195 z M 143.80078 204.39648 L 143.80078 206.99023 L 152.73828 206.99023 L 152.73828 204.39648 L 143.80078 204.39648 z "
       style="font-size:29.33333397px"
       id="path103"
       d="m 200.21875,192.5957 c -1.78559,0 -3.15039,0.50955 -4.0957,1.53125 -0.94532,1.01216 -1.41797,2.46897 -1.41797,4.36914 v 0.5293 h -1.81836 v 2.26367 h 1.81836 v 13.73633 h 2.69336 v -13.73633 h 4.76953 v -2.26367 h -4.85547 v -0.54297 c 0,-1.3368 0.25781,-2.25955 0.77344,-2.76562 0.52517,-0.51563 1.36415,-0.77344 2.51953,-0.77344 0.36285,0 0.78428,0.049 1.26172,0.14453 0.47742,0.0859 0.86415,0.17187 1.16015,0.25781 h 0.14258 v -2.46484 c -0.40104,-0.0764 -0.84505,-0.14195 -1.33203,-0.19922 -0.47743,-0.0573 -1.01757,-0.0859 -1.61914,-0.0859 z m -100.847656,0.14258 v 22.28711 h 2.693356 v -22.28711 z m -42.238282,0.51563 c -1.470485,0 -2.831163,0.2476 -4.082031,0.74414 -1.241319,0.49652 -2.280816,1.21267 -3.121093,2.14843 -0.878472,0.98351 -1.547527,2.16819 -2.00586,3.55274 -0.458333,1.375 -0.6875,2.93207 -0.6875,4.66992 0,1.76649 0.229167,3.33594 0.6875,4.71094 0.467881,1.375 1.130859,2.53515 1.990234,3.48047 0.859376,0.94531 1.900825,1.66753 3.123047,2.16406 1.231771,0.49653 2.596572,0.74414 4.095703,0.74414 0.200521,0 0.407118,-0.0102 0.617188,-0.0293 0.219618,-0.01 0.442708,-0.0321 0.671875,-0.0703 0.08594,1.69965 0.630209,3.00304 1.632813,3.91016 1.012152,0.91666 2.35026,1.375 4.011718,1.375 0.582466,0 1.149306,-0.0347 1.703125,-0.10157 0.563368,-0.0573 1.132162,-0.15754 1.705078,-0.30078 v -2.60547 h -0.386718 c -0.229167,0.0955 -0.615886,0.19987 -1.160157,0.31446 -0.534722,0.12412 -0.997178,0.18554 -1.388672,0.18554 -1.260416,0 -2.129991,-0.30078 -2.607421,-0.90234 -0.477432,-0.60156 -0.735245,-1.44661 -0.773438,-2.53516 1.795139,-0.71614 3.223307,-1.96636 4.283203,-3.75195 1.069445,-1.78559 1.603516,-3.98112 1.603516,-6.58789 0,-1.75695 -0.23329,-3.32834 -0.701172,-4.71289 -0.458333,-1.38455 -1.123263,-2.5549 -1.992188,-3.50977 -0.849825,-0.92621 -1.885199,-1.63628 -3.107421,-2.13281 -1.212674,-0.50608 -2.58355,-0.75976 -4.111329,-0.75976 z m 287.589848,0.0566 c -1.56598,0 -2.99219,0.24349 -4.28125,0.73047 -1.27952,0.48697 -2.37413,1.19487 -3.28125,2.12109 -0.93576,0.95486 -1.65191,2.12327 -2.14844,3.50781 -0.49653,1.38455 -0.74414,2.95595 -0.74414,4.71289 0,1.85244 0.25781,3.48112 0.77344,4.88477 0.51562,1.39409 1.23177,2.54405 2.14843,3.45117 0.93576,0.92621 2.0345,1.60959 3.29493,2.04883 1.26996,0.42968 2.67773,0.64453 4.2246,0.64453 0.82118,0 1.5701,-0.0675 2.24805,-0.20117 0.6875,-0.12414 1.32378,-0.27756 1.90625,-0.45899 0.6875,-0.21961 1.24002,-0.42838 1.66016,-0.6289 0.42969,-0.20052 0.90842,-0.41537 1.43359,-0.64453 v -3.32422 h -0.20117 c -1.0408,0.93576 -2.15798,1.63758 -3.35156,2.10547 -1.19358,0.46788 -2.47244,0.70312 -3.83789,0.70312 -0.99306,0 -1.93837,-0.16775 -2.83594,-0.50195 -0.88802,-0.34376 -1.66754,-0.86958 -2.33594,-1.57617 -0.63976,-0.67796 -1.16363,-1.55578 -1.57422,-2.63477 -0.40104,-1.07899 -0.60156,-2.36805 -0.60156,-3.86719 0,-1.43229 0.18012,-2.69271 0.54297,-3.78125 0.37239,-1.09808 0.88802,-2.00455 1.54687,-2.7207 0.67796,-0.73525 1.44727,-1.27539 2.30664,-1.61914 0.86893,-0.3533 1.84289,-0.5293 2.92188,-0.5293 1.31771,0 2.5536,0.22309 3.70898,0.67188 1.15538,0.44878 2.32162,1.16493 3.4961,2.14843 h 0.21484 v -3.36523 c -1.3941,-0.69705 -2.66471,-1.18402 -3.81055,-1.46094 -1.13628,-0.2769 -2.27799,-0.41601 -3.42382,-0.41601 z m -187.25782,0.24414 v 2.79297 h 3.03711 v -2.79297 z m -133.761715,0.14258 v 21.32812 h 2.650391 v -18.37695 l 5.886718,12.5039 h 1.689454 l 5.929687,-12.5039 v 18.37695 h 2.835937 v -21.32812 h -3.9375 l -5.5,11.875 -5.6875,-11.875 z m 58.152344,0 v 21.32812 h 2.835937 v -7.94922 h 2.835938 c 1.527777,0 2.792317,-0.18207 3.794922,-0.54492 1.002604,-0.37239 1.872179,-0.92686 2.607422,-1.66211 0.592013,-0.59201 1.050347,-1.28776 1.375,-2.08984 0.334202,-0.81163 0.499999,-1.69141 0.5,-2.63672 0,-1.24132 -0.22309,-2.26649 -0.671876,-3.07813 -0.439235,-0.81163 -1.065321,-1.49089 -1.876953,-2.03515 -0.6875,-0.45834 -1.47526,-0.79188 -2.363281,-1.00196 -0.888021,-0.21961 -1.972439,-0.33007 -3.251953,-0.33007 z m 163.337891,0 v 2.52148 h 12.58984 l -13.07617,16.16992 v 2.63672 h 16.64258 v -2.52148 h -13.52149 l 13.20704,-16.24219 v -2.56445 z m 110.80273,0 v 21.32812 h 13.49219 v -2.52148 h -10.65625 v -18.80664 z m 15.42579,0 v 2.17773 h 2.79296 v 16.97266 h -2.79296 v 2.17773 h 8.42187 v -2.17773 h -2.79297 V 195.875 h 2.79297 v -2.17773 z m -314.273442,2.00585 c 2.148437,0 3.842664,0.755 5.083984,2.26368 1.241319,1.49913 1.861328,3.63324 1.861328,6.40234 0,2.79774 -0.630208,4.9401 -1.890625,6.42969 -1.250868,1.48003 -2.934896,2.2207 -5.054687,2.2207 -2.119793,0 -3.809896,-0.74067 -5.070313,-2.2207 -1.260417,-1.48959 -1.890625,-3.63195 -1.890625,-6.42969 0,-2.7691 0.615885,-4.90321 1.847656,-6.40234 1.24132,-1.50868 2.945747,-2.26368 5.113282,-2.26368 z m 27.542968,0.42969 h 2.806641 c 0.897569,0 1.638238,0.0675 2.220703,0.20117 0.592014,0.12414 1.115885,0.3329 1.574219,0.62891 0.525173,0.34375 0.917968,0.78777 1.175781,1.33203 0.257813,0.54428 0.386719,1.18468 0.386719,1.91992 0,0.63022 -0.09614,1.19901 -0.28711,1.70508 -0.181423,0.50608 -0.496527,0.98698 -0.945312,1.44531 -0.448785,0.44879 -1.031901,0.77821 -1.748047,0.98829 -0.716146,0.20052 -1.647135,0.30078 -2.792969,0.30078 h -2.390625 z m 47.265624,2.44922 c -0.87847,0 -1.76237,0.19032 -2.65039,0.57227 -0.88802,0.37239 -1.64301,0.89822 -2.26367,1.57617 -0.6684,0.72569 -1.19835,1.58919 -1.58985,2.5918 -0.38194,0.99305 -0.57226,2.17773 -0.57226,3.55273 0,2.51129 0.55859,4.4592 1.67578,5.84375 1.12674,1.375 2.64497,2.0625 4.55469,2.0625 1.14583,0 2.08702,-0.15755 2.82226,-0.47266 0.7448,-0.32465 1.52235,-0.81163 2.33399,-1.46093 v 1.46093 c 0,0.64931 -0.0716,1.23655 -0.21485,1.76172 -0.14323,0.52518 -0.38259,0.97331 -0.71679,1.34571 -0.3342,0.39149 -0.80078,0.69835 -1.40235,0.91796 -0.60156,0.21962 -1.36067,0.32813 -2.27734,0.32813 -0.95486,0 -1.91037,-0.12891 -2.86523,-0.38672 -0.95487,-0.24826 -1.65257,-0.45703 -2.0918,-0.62891 h -0.14258 v 2.75 c 0.78299,0.21962 1.57487,0.38542 2.37695,0.5 0.81163,0.12414 1.64236,0.1875 2.49219,0.1875 2.55903,0 4.45573,-0.63628 5.6875,-1.90625 1.23177,-1.26996 1.84766,-3.26085 1.84766,-5.97265 v -14.17969 h -2.52149 l -0.17187,0.6875 c -0.69705,-0.38195 -1.36002,-0.66233 -1.99024,-0.84375 -0.62066,-0.19097 -1.3941,-0.28711 -2.32031,-0.28711 z m 41.79297,0 c -0.94531,0 -1.86611,0.1964 -2.76367,0.58789 -0.89758,0.3915 -1.76715,0.93577 -2.60742,1.63281 v -1.77734 h -2.69141 v 16 h 2.69141 v -11.94531 c 0.73524,-0.56338 1.50455,-1.02778 2.30664,-1.39063 0.80208,-0.36284 1.57139,-0.54297 2.30664,-0.54297 0.71614,0 1.29731,0.10027 1.74609,0.30079 0.44879,0.19097 0.79254,0.48567 1.03125,0.88671 0.22917,0.36286 0.38672,0.87024 0.47266,1.51954 0.0859,0.63976 0.1289,1.32726 0.1289,2.0625 v 9.10937 h 2.69336 v -10.38477 c 0,-1.95745 -0.45421,-3.45724 -1.36133,-4.49804 -0.90712,-1.0408 -2.22482,-1.56055 -3.95312,-1.56055 z m 37.38281,0 c -2.26302,0 -4.06163,0.75912 -5.39843,2.27735 -1.32726,1.50868 -1.99219,3.56705 -1.99219,6.17382 0,2.60678 0.66493,4.6632 1.99219,6.17188 1.3368,1.50868 3.13541,2.26367 5.39843,2.26367 2.24393,0 4.03429,-0.75499 5.3711,-2.26367 1.3368,-1.50868 2.00586,-3.5651 2.00586,-6.17188 0,-2.60677 -0.66906,-4.66514 -2.00586,-6.17382 -1.33681,-1.51823 -3.12717,-2.27735 -5.3711,-2.27735 z m 60.78711,0 c -2.26302,0 -4.06358,0.75912 -5.40039,2.27735 -1.32726,1.50868 -1.99023,3.56705 -1.99023,6.17382 0,2.60678 0.66297,4.6632 1.99023,6.17188 1.33681,1.50868 3.13737,2.26367 5.40039,2.26367 2.24392,0 4.03429,-0.75499 5.3711,-2.26367 1.3368,-1.50868 2.00586,-3.5651 2.00586,-6.17188 0,-2.60677 -0.66906,-4.66514 -2.00586,-6.17382 -1.33681,-1.51823 -3.12718,-2.27735 -5.3711,-2.27735 z m 42.21094,0 c -2.32986,0 -4.21224,0.76932 -5.64453,2.30664 -1.42274,1.53733 -2.13281,3.61415 -2.13281,6.23047 0,2.64497 0.74479,4.68707 2.23437,6.12891 1.48959,1.43228 3.56033,2.14843 6.21484,2.14843 1.0408,0 2.03516,-0.12891 2.98047,-0.38671 0.94532,-0.25782 1.87023,-0.57704 2.77735,-0.95899 v -2.93555 h -0.14258 c -0.46788,0.42014 -1.25564,0.84983 -2.36328,1.28907 -1.09809,0.42969 -2.19075,0.64453 -3.2793,0.64453 -0.82118,0 -1.57617,-0.11459 -2.26367,-0.34375 -0.67795,-0.22917 -1.26519,-0.57292 -1.76172,-1.03125 -0.51562,-0.46789 -0.92079,-1.06532 -1.2168,-1.79102 -0.296,-0.73524 -0.44531,-1.59462 -0.44531,-2.57812 h 11.78906 v -1.46094 c 0,-2.32031 -0.58724,-4.11068 -1.76172,-5.37109 -1.16493,-1.26042 -2.82638,-1.89063 -4.98437,-1.89063 z m -206.82422,0.44336 v 10.38477 c 0,1.9861 0.46853,3.49413 1.4043,4.52539 0.93576,1.0217 2.24327,1.5332 3.92383,1.5332 1.0026,0 1.91926,-0.19032 2.75,-0.57227 0.83072,-0.38194 1.7003,-0.93229 2.60742,-1.64843 v 1.77734 h 2.6914 v -16 h -2.6914 v 11.94531 c -0.71615,0.56338 -1.48958,1.02778 -2.32031,1.39063 -0.82118,0.36284 -1.5803,0.54297 -2.27735,0.54297 -0.78299,0 -1.38043,-0.0942 -1.79101,-0.28516 -0.4106,-0.19097 -0.74414,-0.49783 -1.00196,-0.91797 -0.24826,-0.41058 -0.41189,-0.90169 -0.48828,-1.47461 C 110.03689,209.6441 110,208.94639 110,208.13477 v -9.10938 z m 50.33008,0 v 16 h 2.69336 v -16 z m 65.05469,0 v 16 h 2.69336 v -11.35937 c 0.71614,-0.58247 1.46093,-1.05513 2.23437,-1.41797 0.77343,-0.3724 1.57552,-0.5586 2.40625,-0.5586 0.51562,0 0.95963,0.0245 1.33203,0.0723 0.38194,0.0382 0.77278,0.10568 1.17383,0.20117 h 0.14453 v -2.76562 c -0.42014,-0.0669 -0.73524,-0.10984 -0.94531,-0.12891 -0.21007,-0.0287 -0.5497,-0.043 -1.01758,-0.043 -0.84983,0 -1.68468,0.18208 -2.50586,0.54492 -0.81163,0.3533 -1.75282,0.95899 -2.82226,1.81836 v -2.36328 z m 59.36914,0 4.21093,16 H 288.75 l 4.08203,-12.33203 4.10938,12.33203 h 2.49218 l 4.16993,-16 h -2.70704 l -2.77929,12.39063 -4.09571,-12.39063 h -2.2207 l -3.99609,12.39063 -2.9375,-12.39063 z m 31.92578,1.77734 c 1.43229,0 2.49826,0.38672 3.19531,1.16016 0.70661,0.77343 1.06469,1.8661 1.07422,3.2793 h -9.16797 c 0.11458,-1.26042 0.59744,-2.31619 1.44727,-3.16602 0.85937,-0.84982 2.00933,-1.27344 3.45117,-1.27344 z m -102.85352,0.0996 c 1.44184,0 2.56923,0.50543 3.38086,1.51758 0.81164,1.00261 1.2168,2.54124 1.2168,4.61328 0,2.02431 -0.40929,3.55079 -1.23047,4.58203 -0.81163,1.02171 -1.93489,1.53321 -3.36719,1.53321 -1.45138,0 -2.5829,-0.51562 -3.39453,-1.54688 -0.81163,-1.0408 -1.2168,-2.56315 -1.2168,-4.56836 0,-2.07204 0.40104,-3.61067 1.20313,-4.61328 0.81163,-1.01215 1.94727,-1.51758 3.4082,-1.51758 z m 60.78711,0 c 1.44184,0 2.56923,0.50543 3.38086,1.51758 0.81163,1.00261 1.2168,2.54124 1.2168,4.61328 0,2.02431 -0.41124,3.55079 -1.23242,4.58203 -0.81164,1.02171 -1.93295,1.53321 -3.36524,1.53321 -1.45139,0 -2.5829,-0.51562 -3.39453,-1.54688 -0.81163,-1.0408 -1.2168,-2.56315 -1.2168,-4.56836 0,-2.07204 0.40105,-3.61067 1.20313,-4.61328 0.81163,-1.01215 1.94726,-1.51758 3.4082,-1.51758 z m -139.49023,0.0996 c 0.6111,0 1.22092,0.0716 1.83203,0.21485 0.62066,0.13368 1.28971,0.36284 2.00586,0.6875 v 8.72265 c -0.65886,0.50608 -1.3852,0.9132 -2.17774,1.21875 -0.78298,0.29601 -1.56467,0.44336 -2.34765,0.44336 -1.46094,0 -2.50651,-0.46246 -3.13672,-1.38867 -0.63021,-0.92621 -0.94531,-2.28689 -0.94531,-4.08203 0,-1.89063 0.42361,-3.33312 1.27343,-4.32617 0.84982,-0.99306 2.01606,-1.49024 3.4961,-1.49024 z m 11.37109,3.39453 v 2.59375 h 8.9375 v -2.59375 z" /></g></svg>