<svg xmlns="http://www.w3.org/2000/svg" role="img" xmlns:xlink="http://www.w3.org/1999/xlink" viewBox="-4.53 -4.53 248.82 54.32"><path d="M237.32 9.09c-1.06 0-1.93-.86-1.93-1.92s.87-1.93 1.93-1.93 1.93.87 1.93 1.93-.87 1.92-1.93 1.92m0-4.32c-1.32 0-2.4 1.08-2.4 2.4 0 1.32 1.08 2.4 2.4 2.4 1.32 0 2.4-1.08 2.4-2.4 0-1.32-1.08-2.4-2.4-2.4"/><path d="M237.48 7.07l-.51.01-.01-.62h.51c.19-.01.34.11.34.3.01.19-.14.31-.33.31m.83-.32c-.01-.42-.3-.72-.77-.72l-1.07.02.03 2.26h.49l-.01-.81h.35l.46.8.55-.01-.52-.86c.24-.06.49-.28.49-.68M51.8341 23.1805h-5.999V9.3465h5.835c1.574 0 2.557 1.016 2.557 2.393 0 1.377-.983 2.36-2.557 2.36H45v4h6.8341c1.836 0 2.819 1.18 2.819 2.556 0 1.574-1.049 2.525-2.819 2.525m3.376-7.245c2.066-.426 3.771-2.262 3.771-5.015 0-2.918-2.131-5.573-6.295-5.573h-11.506v21.865h11.867c4.163 0 6.359-2.623 6.359-5.901 0-2.754-1.868-5.015-4.196-5.376m17.8225-.5902H68v4.098h3.5576l4.294 7.769h5.343l-4.917-8.327c2.361-.557 4.786-2.622 4.786-6.49m0 0c0-4.065-2.786-7.048-7.343-7.048h-10.228v21.865h4.655V9.4453h4.885c1.869 0 3.278 1.114 3.278 2.95s-1.409 2.95-3.278 2.95m43.4206 4.0652l3.409-9.408 3.41 9.408zm.492-14.063l-8.458 21.865h5.31l1.377-3.704h9.376l1.344 3.704h5.311l-8.425-21.865zm26.9039 17.7671h-3.967v-13.67h3.967c4.491 0 6.851 2.983 6.851 6.852 0 3.704-2.524 6.818-6.851 6.818m0-17.767h-8.622v21.865h8.622c6.851 0 11.604-4.327 11.604-10.916s-4.753-10.949-11.604-10.949m82.1269-.0045l-5.734 9.27-5.734-9.27h-5.146v21.869h4.656v-14.293l5.012 7.622c.574.871 1.851.871 2.424 0l5.013-7.622v14.293h4.656V5.3431z"/><path id="a" d="M95.8253 23.3441c-3.871 0-7.008-3.138-7.008-7.008 0-3.871 3.137-7.009 7.008-7.009 3.87 0 7.008 3.138 7.008 7.009 0 3.87-3.138 7.008-7.008 7.008m0-18.536c-6.367 0-11.528 5.161-11.528 11.528 0 6.366 5.161 11.527 11.528 11.527 6.366 0 11.528-5.161 11.528-11.527 0-6.367-5.162-11.528-11.528-11.528"/><path d="M176.4035 19.7269c-1.195 2.156-3.492 3.617-6.132 3.617-3.87 0-7.008-3.138-7.008-7.008 0-3.871 3.138-7.008 7.008-7.008 2.618 0 4.897 1.438 6.1 3.565l3.27-3.269c-2.092-2.915-5.508-4.816-9.37-4.816-6.367 0-11.527 5.161-11.527 11.528 0 6.366 5.16 11.528 11.527 11.528 3.883 0 7.316-1.922 9.404-4.865z"/><use transform="translate(98.718)" xlink:href="#a"/><ellipse cx="16.52" cy="16.497" fill="#cc092f" rx="16.236" ry="16.235"/><path fill="#fff" d="M30.8253 20.8832c-1.857-.74-3.557-.492-5.261.541 0 0-.621.379-.807.496-.794.498-1.543.97-2.263.97-.687 0-1.363-.184-1.649-1.513-.446-2.073-1.534-7.167-2.009-9.69-.279-1.483-.432-2.282-.591-2.825-.28-.954-.792-1.473-1.519-1.556 0 0-.114-.016-.207-.016-.092 0-.218.018-.218.018-.72.086-1.229.605-1.507 1.554-.159.543-.312 1.342-.591 2.825-.475 2.523-1.563 7.617-2.009 9.69-.286 1.329-.962 1.513-1.649 1.513-.72 0-1.469-.472-2.263-.97-.186-.117-.808-.496-.808-.496-1.703-1.033-3.404-1.281-5.26-.541-.401.16-.79596.33918-1.17196.52018.257.806.57693 1.59925.94993 2.34425.411-.202.84203-.40243 1.28203-.53243.634-.187 1.284-.197 1.914.014.612.205 1.157.568 1.7.909 1.023.643 2.182 1.372 3.657 1.372 2.186 0 3.72-1.305 4.21-3.581.38-1.764 1.222-5.702 1.763-8.418 0 0 1.386 6.654 1.765 8.418.49 2.276 2.025 3.581 4.211 3.581 1.475 0 2.634-.729 3.657-1.372.543-.341 1.088-.704 1.7-.909.629-.211 1.28-.201 1.914-.014.44.13.87039.33065 1.28139.53265.374-.745.69309-1.53862.95009-2.34462-.376-.181-.77048-.36003-1.17148-.52003"/><path d="M24.57548 41.9881c-.27558.34668-.6474.51947-1.11656.51947s-.84317-.1728-1.12313-.51946c-.27887-.34558-.41885-.8377-.41885-1.47636 0-.63757.13998-1.1297.41885-1.47636.27996-.34558.65397-.51946 1.12313-.51946.46915 0 .84098.17388 1.11656.52164.27559.34667.41338.8388.41338 1.47418 0 .63866-.13779 1.13078-.41338 1.47636zm.74037.86176c.57086-.54133.85738-1.31997.85738-2.33811 0-1.03783-.28652-1.81757-.85738-2.33703-.4287-.44181-1.04767-.66163-1.85693-.66163-.81036 0-1.42934.21982-1.85694.66163-.57414.51946-.86175 1.2992-.86175 2.33703 0 1.01814.28761 1.79678.86175 2.33811.4276.44072 1.04658.66054 1.85694.66054.80926 0 1.42824-.21982 1.85693-.66054zm-1.85693-5.33677zm6.57581 1.34513c.1553.12577.23294.33574.23294.63101 0 .29418-.07764.50962-.23294.64632-.15529.1356-.37182.2034-.65178.2034H28.2795v-1.66883h1.10344c.27996 0 .4965.06343.65178.1881zm.89785 2.04175c.33792-.27668.50743-.74911.50743-1.4184 0-.61241-.1695-1.06516-.50743-1.35715-.33792-.292-.79177-.43854-1.36153-.43854h-2.46826v5.66704h1.17672v-2.03738h1.20405c.62773 0 1.1111-.13889 1.44902-.41557zm2.25282.70428h-1.1297c0 .58945.21107 1.05205.6343 1.38887.42212.33793 1.00283.50634 1.741.50634.72288 0 1.2828-.1717 1.67868-.514.39589-.3412.59383-.77207.59383-1.28935 0-.50524-.16951-.89128-.50743-1.15702-.21763-.1717-.54134-.3095-.96893-.4112l-.97659-.23512c-.37729-.08968-.62335-.16732-.73818-.23403-.17935-.10061-.26902-.25153-.26902-.45385 0-.2209.09077-.3926.2734-.51508.18153-.12358.4254-.18482.72943-.18482.2745 0 .50415.04702.68897.14217.27668.14326.4254.38604.44618.72615h1.13735c-.02078-.60148-.24169-1.0608-.66272-1.37794-.42213-.31605-.93175-.47462-1.52886-.47462-.71521 0-1.25654.16732-1.62618.50306-.36854.33682-.55336.75786-.55336 1.2653 0 .55663.19138.96564.57305 1.22701.22528.15638.63319.30074 1.22264.43416l.5993.13451c.35104.07655.60913.16514.77317.26575.16404.1017.24606.24715.24606.43416 0 .32042-.16513.53914-.4965.65725-.17388.06124-.40025.09186-.68021.09186-.46697 0-.79615-.11592-.98753-.34995-.10607-.12795-.17607-.32152-.21215-.5796zm1.14937-4.09116zm4.41049 0l-2.19595 5.83983h.9044l2.20252-5.83983zm2.20688 1.15703h1.37575c.257 0 .44838.0339.57742.10061.22747.11702.3423.34777.3423.69116 0 .31824-.1181.5304-.35433.63866-.13342.06124-.33354.09186-.59929.09186h-1.34185zm2.53934-.8377c-.21434-.08967-.51946-.13888-.91753-.14654h-2.77884v5.66704h1.15703v-2.2222h1.22265c.34776 0 .58617.06015.71303.18045.12685.1203.19247.36198.19794.72287l.00765.52711c.00219.16623.01969.32918.0503.48775.01532.07764.04047.17825.07656.30402h1.30357v-.14217c-.11264-.0689-.18482-.17716-.21544-.32261-.02078-.09296-.03062-.26793-.03062-.52712v-.38057c0-.39698-.05468-.69225-.16404-.88582-.10827-.19356-.29418-.34339-.55555-.44837.31277-.10717.53696-.2909.67366-.55118.1356-.26027.2034-.52492.2034-.79395 0-.2231-.03608-.42213-.10826-.59601-.07108-.17498-.16841-.33355-.29199-.47681-.14873-.17498-.33027-.3062-.54352-.39588zm6.15369.85739v-1.00393H45.4884v5.66704h4.29456v-1.01814h-3.13754V40.877h2.75369v-.98424h-2.75369V38.6898zm-2.0494-1.00393zm4.0135 5.66704l1.13844-1.9302 1.0761 1.9302h1.43809l-1.84162-2.93304 1.73335-2.734h-1.3681l-1.03782 1.84163-1.01158-1.84163h-1.41512l1.73445 2.77993-1.82303 2.8871zm5.25147 0l1.13844-1.9302 1.0761 1.9302h1.43809l-1.84163-2.93304 1.73445-2.734h-1.36918l-1.03783 1.84163-1.01158-1.84163h-1.41402l1.73335 2.77993-1.82194 2.8871zm6.53645-5.66704v5.66704h3.99055v-1.01814h-2.80618v-4.6489zm7.03185 3.62966v.40791c-.00766.36636-.11046.61898-.3095.75678-.19903.13888-.41556.20778-.65178.20778-.14873 0-.27449-.04156-.37838-.12467-.1039-.08311-.15639-.21872-.15639-.40573 0-.20997.0853-.36526.25372-.46587.1006-.05905.26574-.10827.4965-.14982l.24605-.04593c.12249-.02297.21982-.04812.2898-.07437.07109-.02734.14108-.06233.20998-.10608zm-.66491-.5118l-.37292.04593c-.42322.05468-.74365.14435-.96127.27012-.39698.23075-.59602.60366-.59602 1.11875 0 .39698.12358.70428.37074.92081.24715.21653.56101.3248.9405.3248.29745 0 .5632-.0678.79941-.2045.19794-.11483.37183-.25481.52274-.41885a3.17637 3.17637 0 0 0 .03062.25371c.01313.07437.0361.1542.07.2384h1.19093v-.16184c-.07109-.03281-.12468-.07546-.16076-.12686-.0361-.0503-.05796-.14764-.06562-.292-.00547-.18919-.00766-.35104-.00766-.48446V40.3663c0-.50525-.17825-.84864-.53477-1.03127-.35542-.18154-.76333-.2723-1.22264-.2723-.70428 0-1.20187.18372-1.49167.55336-.18154.23621-.28434.53695-.3073.90331h1.0575c.02516-.16185.07656-.2898.15311-.38385.10827-.12905.2909-.19248.55008-.19248.23075 0 .40573.03281.52493.09733.1192.06562.17935.18482.17935.35652 0 .14107-.07874.24387-.23512.31058-.08749.03937-.23185.07108-.43416.09624zm.05796-1.75304zm6.06073.35214c-.27559-.22747-.62991-.34011-1.06298-.34011-.34667 0-.6321.0842-.85738.25371-.12576.09405-.25918.24934-.40026.46478v-.61132H72.5047v4.18302h1.0925v-2.26813c0-.25918.0361-.47134.10718-.63866.13889-.31496.3937-.47244.76552-.47244.30293 0 .50743.10718.6146.32262.05906.1181.08858.28761.08858.50743v2.54918h1.12313v-2.82149c0-.52602-.1378-.90222-.41338-1.1286zm-1.46652-.35214zm5.34005 3.11238c-.17716.19357-.3937.2898-.6496.2898-.38494 0-.65178-.17606-.79942-.53039-.08202-.1892-.12357-.40573-.12357-.6496 0-.28215.03827-.51837.11592-.71084.14545-.36198.41119-.54242.79504-.54242.28215 0 .50743.10389.67476.31167.16841.20779.25262.50962.25262.90769 0 .42213-.08858.73052-.26575.9241zm-.37292-3.00412c-.15638-.06452-.3401-.09623-.55008-.09623-.56867 0-1.0083.21215-1.31888.63647-.30949.42322-.46478.94706-.46478 1.57041 0 .64522.16076 1.15703.48228 1.53541.32152.37839.7513.56758 1.29045.56758.34776 0 .631-.08311.84972-.25043.1203-.08968.23294-.22419.33793-.40354v.26903c0 .40025-.04375.68459-.13123.8541-.13233.26356-.39698.39588-.79177.39588-.27887 0-.4779-.0503-.59601-.14982-.0689-.05687-.1192-.14873-.14983-.27668h-1.19202c.03609.41775.2231.73162.56211.94159.33792.20997.77536.31495 1.31013.31495.88691 0 1.4873-.23621 1.80007-.70756.18154-.27449.2723-.6813.2723-1.22264v-3.97524h-1.06407v.60367c-.16404-.29418-.37948-.49759-.64632-.60695zm-.20012-.10826zm4.02554.11154h-1.12313v2.52622c0 .479.06015.84207.18154 1.08813.21544.44619.6332.66928 1.25326.66928.21544 0 .40245-.02843.5632-.0853.15967-.05577.3259-.16076.4976-.31495.05686-.04922.10498-.10499.14654-.16951.04046-.06343.0667-.1028.07655-.11483v.59164h1.06517v-4.19068h-1.1111v2.28016c0 .26902-.03609.48556-.10827.6496-.1378.30292-.39479.45384-.7688.45384-.29199 0-.48774-.10608-.58836-.31933-.05577-.1203-.0842-.29965-.0842-.53805zm.7688-.11154zm5.25912 2.26484v.40791c-.00765.36636-.11045.61898-.30949.75678-.19794.13888-.41557.20778-.65069.20778-.14873 0-.27559-.04156-.37948-.12467-.1039-.08311-.1553-.21872-.1553-.40573 0-.20997.08422-.36526.25372-.46587.09952-.05905.26466-.10827.4954-.14982l.24607-.04593c.12357-.02297.2198-.04812.2909-.07437a1.21217 1.21217 0 0 0 .20887-.10608zm-.6649-.5118l-.37293.04593c-.42213.05468-.74255.14435-.96127.27012-.39698.23075-.59601.60366-.59601 1.11875 0 .39698.12357.70428.37182.92081.24716.21653.55992.3248.9394.3248.29746 0 .5643-.0678.79943-.2045.19794-.11483.37182-.25481.52383-.41885.00766.09514.0175.17935.03062.25371.01203.07437.03609.1542.0689.2384h1.19202v-.16184c-.07218-.03281-.12576-.07546-.16185-.12686-.03609-.0503-.05796-.14764-.06562-.292-.00437-.18919-.00765-.35104-.00765-.48446V40.3663c0-.50525-.17717-.84864-.53368-1.03127-.35651-.18154-.76443-.2723-1.22264-.2723-.70538 0-1.20187.18372-1.49167.55336-.18264.23621-.28434.53695-.3084.90331h1.05751c.02625-.16185.07765-.2898.1542-.38385.10717-.12905.2909-.19248.55008-.19248.23075 0 .40573.03281.52383.09733.1192.06562.17935.18482.17935.35652 0 .14107-.07873.24387-.23403.31058-.08748.03937-.23293.07108-.43525.09624zm.05795-1.75304zm5.12461 3.11238c-.17607.19357-.3926.2898-.6496.2898-.38385 0-.65069-.17606-.79942-.53039-.08202-.1892-.12357-.40573-.12357-.6496 0-.28215.03936-.51837.11592-.71084.14545-.36198.41119-.54242.79614-.54242.28105 0 .50633.10389.67475.31167.16732.20779.25153.50962.25153.90769 0 .42213-.08858.73052-.26575.9241zm-.37292-3.00412c-.15638-.06452-.33901-.09623-.54898-.09623-.56977 0-1.0094.21215-1.31888.63647-.31059.42322-.46588.94706-.46588 1.57041 0 .64522.16076 1.15703.48337 1.53541.32152.37839.7513.56758 1.28936.56758.34886 0 .6321-.08311.84972-.25043.1203-.08968.23294-.22419.33793-.40354v.26903c0 .40025-.04265.68459-.13014.8541-.13342.26356-.39698.39588-.79177.39588-.27996 0-.479-.0503-.59601-.14982-.06999-.05687-.1192-.14873-.14982-.27668h-1.19203c.0361.41775.2231.73162.56102.94159s.77536.31495 1.31123.31495c.8869 0 1.4862-.23621 1.79897-.70756.18263-.27449.2734-.6813.2734-1.22264v-3.97524h-1.06517v.60367c-.16404-.29418-.37948-.49759-.64632-.60695zm-.20012-.10826zm3.9971 1.14171c.13998-.15857.33683-.2384.59055-.2384.23293 0 .42869.07546.58617.22528.15748.14982.24496.36964.26355.65944h-1.70382c.03608-.2723.12357-.48665.26355-.64632zm1.53214-.94596c-.27996-.13014-.59383-.19575-.9416-.19575-.58726 0-1.06516.19356-1.4326.5807-.36746.38713-.55118.94377-.55118 1.66883 0 .77427.2034 1.3331.61132 1.67649.40682.34339.87707.51509 1.41074.51509.64523 0 1.14828-.2045 1.50698-.61133.23075-.257.3598-.50961.38823-.75786h-1.11875c-.05905.12358-.12686.21981-.20341.2887-.14107.12796-.3248.19248-.55008.19248-.21325 0-.39479-.05249-.5457-.15857-.24935-.16841-.38058-.46369-.39589-.88363h2.86742c.00547-.36198-.00656-.63866-.0339-.83113-.04921-.32808-.1553-.6157-.31933-.86504-.18264-.28106-.41338-.48775-.69225-.61898zm-.86504-.19575zm5.78186 2.55355h-1.12969c0 .58945.21107 1.05205.6343 1.38887.42322.33793 1.00392.50634 1.7421.50634.72177 0 1.2817-.1717 1.67758-.514.39588-.3412.59382-.77207.59382-1.28935 0-.50524-.16841-.89128-.50743-1.15702-.21762-.1717-.54023-.3095-.96893-.4112l-.97658-.23512c-.3762-.08968-.62226-.16732-.73818-.23403-.17935-.10061-.26903-.25153-.26903-.45385 0-.2209.09077-.3926.2734-.51508.18154-.12358.42541-.18482.73053-.18482.2745 0 .50305.04702.68787.14217.27668.14326.42541.38604.4462.72615h1.13734c-.01969-.60148-.2406-1.0608-.66273-1.37794-.42213-.31605-.93065-.47462-1.52776-.47462-.71521 0-1.25764.16732-1.62727.50306-.36855.33682-.55336.75786-.55336 1.2653 0 .55663.19138.96564.57304 1.22701.22528.15638.6332.30074 1.22265.43416l.59929.13451c.35214.07655.60914.16514.77318.26575.16404.1017.24606.24715.24606.43416 0 .32042-.16514.53914-.4954.65725-.17498.06124-.40136.09186-.68132.09186-.46587 0-.79505-.11592-.98752-.34995-.10498-.12795-.17607-.32152-.21216-.5796zm1.15047-4.09116zm4.24754 1.64915h-1.12203v2.52622c0 .479.06015.84207.18044 1.08813.21544.44619.6332.66928 1.25327.66928.21544 0 .40354-.02843.5632-.0853.16076-.05577.3259-.16076.49759-.31495.05687-.04922.10608-.10499.14654-.16951.04156-.06343.06671-.1028.07655-.11483v.59164h1.06517v-4.19068h-1.1111v2.28016c0 .26902-.03609.48556-.10717.6496-.13889.30292-.39479.45384-.7688.45384-.29308 0-.48884-.10608-.58836-.31933-.05686-.1203-.0853-.29965-.0853-.53805zm.7699-.11154zm5.61454 1.3495c.14764.24825.2209.53477.2209.85738 0 .3926-.07983.70647-.24059.94159-.15966.23622-.3926.35433-.69771.35433-.20997 0-.39151-.05796-.5457-.1728-.2592-.19793-.38824-.54023-.38824-1.02688 0-.3073.03828-.56102.11592-.76115.14873-.37729.42104-.56539.81802-.56539.33136 0 .56976.12467.7174.37292zm.84207-.78849c-.3401-.36089-.75458-.54133-1.24342-.54133-.33574 0-.62554.09296-.86941.27996-.13342.10499-.25919.24934-.3762.43088v-.61898h-1.04986v5.83983h1.08376v-2.18392c.11592.17716.23403.31167.35433.40463.2198.16623.49649.24934.83004.24934.52274 0 .95034-.19357 1.2828-.5807.33135-.38714.49758-.94925.49758-1.68743 0-.6999-.1695-1.2303-.50962-1.59228zm3.96758.78849c.14764.24825.2209.53477.2209.85738 0 .3926-.07982.70647-.23949.94159-.16076.23622-.3937.35433-.69881.35433-.20997 0-.3915-.05796-.5457-.1728-.2581-.19793-.38823-.54023-.38823-1.02688 0-.3073.03827-.56102.11592-.76115.14873-.37729.42103-.56539.81801-.56539.33136 0 .56977.12467.7174.37292zm.84207-.78849c-.3401-.36089-.75458-.54133-1.24342-.54133-.33573 0-.62554.09296-.86941.27996-.13342.10499-.25918.24934-.3762.43088v-.61898h-1.04986v5.83983h1.08376v-2.18392c.11592.17716.23403.31167.35433.40463.21981.16623.4965.24934.83004.24934.52274 0 .95034-.19357 1.2828-.5807.33135-.38714.49758-.94925.49758-1.68743 0-.6999-.1695-1.2303-.50962-1.59228zm3.91947 2.62683c-.1717.22747-.41776.3423-.73818.3423-.32043 0-.56649-.11483-.74037-.3423-.17279-.22856-.25918-.55227-.25918-.9733 0-.41995.08639-.74365.25918-.97112.17388-.22638.41994-.34011.74037-.34011.32042 0 .56648.11373.73818.3401.1717.22748.25809.55118.25809.97113 0 .42103-.0864.74474-.2581.9733zm.87706.60476c.35324-.43635.5304-.96237.5304-1.57806 0-.60476-.17716-1.1286-.5304-1.5726-.35432-.4429-.89128-.66491-1.61087-.66491-.72068 0-1.25764.222-1.61087.6649-.35433.44401-.5304.96785-.5304 1.5726 0 .6157.17607 1.14172.5304 1.57807.35323.43744.89019.65616 1.61087.65616.71959 0 1.25655-.21872 1.61087-.65616zm-1.61087-3.7926zm5.25366.01312c-.01422-.0011-.03172-.0011-.0525-.0011-.32808 0-.59382.0853-.79942.257-.12576.1028-.2723.29418-.44181.57305v-.73053h-1.04549v4.19068h1.10345v-2.00238c0-.33683.04155-.58508.12685-.74693.15092-.28653.44729-.42979.888-.42979.03282 0 .07656.0011.13015.00328.05358.00328.11592.00766.18481.01531v-1.12203c-.0492-.00328-.07983-.00437-.09404-.00656zm.30511.91753h.58508v2.5798c0 .26137.06124.45494.18372.5807.19029.19685.54352.28653 1.06189.26903l.51836-.01969v-.8191a1.72888 1.72888 0 0 1-.10936.00656c-.03718.0011-.07218.00219-.10498.00219-.2231 0-.35652-.02188-.40026-.06453-.04374-.04155-.06562-.14873-.06562-.32042v-2.21454h.68022v-.78083h-.68022v-1.16797h-1.08375v1.16797h-.58508zm9.51979-1.29154v-1.00393h-4.15568v5.66704h4.29456v-1.01814h-3.13753V40.877h2.75259v-.98424h-2.7526V38.6898zm-2.0494-1.00393zm2.61041 5.66704h1.33092l.72615-1.25655.72287 1.25655h1.3648l-1.43042-2.14127 1.37684-2.04175h-1.30357l-.6846 1.21499-.6988-1.215h-1.34185l1.3681 2.06144zm4.36019-3.37157h.58398v2.5798c0 .26137.06234.45494.18482.5807.19028.19685.54352.28653 1.06079.26903l.51946-.01969v-.8191a1.77949 1.77949 0 0 1-.10936.00656c-.03718.0011-.07218.00219-.10608.00219-.2231 0-.35651-.02188-.39916-.06453-.04375-.04155-.06562-.14873-.06562-.32042v-2.21454h.68022v-.78083h-.68022v-1.16797h-1.08485v1.16797h-.58398zm4.11521.21106c.13999-.15857.33683-.2384.59055-.2384.23294 0 .42869.07546.58617.22528.15748.14982.24606.36964.26356.65944h-1.70274c.035-.2723.12358-.48665.26246-.64632zm1.53214-.94596c-.27887-.13014-.59273-.19575-.9416-.19575-.58725 0-1.06406.19356-1.43151.5807-.36855.38713-.55227.94377-.55227 1.66883 0 .77427.2034 1.3331.61132 1.67649.40791.34339.87816.51509 1.41074.51509.64632 0 1.14828-.2045 1.50699-.61133.23074-.257.36088-.50961.38932-.75786h-1.11985c-.05796.12358-.12686.21981-.2034.2887-.14108.12796-.32371.19248-.55009.19248-.21216 0-.39479-.05249-.5457-.15857-.24825-.16841-.38058-.46369-.39589-.88363h2.86851c.00438-.36198-.00656-.63866-.035-.83113-.04811-.32808-.15528-.6157-.31932-.86504-.18154-.28106-.41229-.48775-.69225-.61898zm-.86504-.19575zm6.03449.35214c-.2756-.22747-.62992-.34011-1.06298-.34011-.34558 0-.6321.0842-.85739.25371-.12576.09405-.25918.24934-.39916.46478v-.61132h-1.05751v4.18302h1.09141v-2.26813c0-.25918.03609-.47134.10827-.63866.1378-.31496.3926-.47244.76442-.47244.30293 0 .50743.10718.6157.32262.05906.1181.08858.28761.08858.50743v2.54918h1.12204v-2.82149c0-.52602-.1378-.90222-.41338-1.1286zm-1.46652-.35214zm3.74448 2.96475h-1.1111c0 .42978.15748.7841.47135 1.06297.31386.27778.80051.41667 1.45886.41667.64632 0 1.12313-.13124 1.43262-.3937.3084-.26246.46259-.60148.46259-1.01705 0-.31495-.10717-.57851-.32261-.78848-.21763-.20779-.54462-.36198-.98096-.46478-.65288-.14326-1.03345-.24497-1.14172-.30402-.10717-.05578-.16076-.14764-.16076-.27231 0-.10061.0503-.1881.15201-.26246.10061-.07328.27012-.11046.50852-.11046.2898 0 .4954.07327.6157.222.06343.08202.1039.19357.1192.33464h1.0958c-.04922-.5118-.23841-.87269-.56759-1.08157-.32917-.20887-.75567-.31386-1.27842-.31386-.55117 0-.97767.13889-1.2817.41776-.30402.27777-.45603.61022-.45603.99736 0 .32808.09733.5796.292.75349.19575.17716.5293.3237 1.00392.44181.65835.15639 1.03892.26684 1.14172.33136.1028.06343.1542.15748.1542.27997 0 .12795-.06343.22418-.19029.2887-.12686.06344-.29855.09624-.514.09624-.36635 0-.61678-.07327-.75348-.21981-.07655-.08202-.12686-.21981-.14983-.41447zm.8388-2.96475zm3.81338-.38823v-1.01158h-1.1111v1.01158zm-1.1111.49977v4.19068h1.1111v-4.19068zm4.79106 3.0763c-.1717.22747-.41775.3423-.73818.3423-.32042 0-.56758-.11483-.74036-.3423-.1728-.22856-.25919-.55227-.25919-.9733 0-.41995.0864-.74365.25919-.97112.17278-.22638.41994-.34011.74036-.34011.32043 0 .56649.11373.73818.3401.1717.22748.257.55118.257.97113 0 .42103-.0853.74474-.257.9733zm.87598.60476c.35432-.43635.5304-.96237.5304-1.57806 0-.60476-.17608-1.1286-.5304-1.5726-.35324-.4429-.8902-.66491-1.61088-.66491-.71959 0-1.25654.222-1.61087.6649-.35323.44401-.5304.96785-.5304 1.5726 0 .6157.17717 1.14172.5304 1.57807.35433.43744.89128.65616 1.61087.65616.72069 0 1.25764-.21872 1.61088-.65616zm-1.61088-3.7926zm6.31117.35214c-.27559-.22747-.62991-.34011-1.06298-.34011-.34558 0-.6321.0842-.85738.25371-.12577.09405-.25919.24934-.40026.46478v-.61132h-1.05642v4.18302h1.09141v-2.26813c0-.25918.0361-.47134.10718-.63866.13888-.31496.3937-.47244.76552-.47244.30292 0 .50743.10718.6157.32262.05796.1181.08748.28761.08748.50743v2.54918h1.12313v-2.82149c0-.52602-.1378-.90222-.41338-1.1286zm-1.46652-.35214zm6.81204-1.41622c-.05578-.00437-.11811-.00656-.1881-.00656-.60695 0-.9908.12577-1.14938.3773-.15091.1695-.22637.4779-.22637.92627v.26903h-.60039v.77317h.61132v3.37923h1.09251v-3.37923h.7185v-.77317h-.7185v-.35323c0-.08202.02734-.15748.08202-.22529.05577-.0678.1553-.09951.29965-.09623.14545.00437.24824.00984.30949.0175v-.89238c-.09734-.00766-.17389-.01313-.23075-.0164zm3.50717 4.60406c-.1717.22747-.41775.3423-.73818.3423-.32042 0-.56758-.11483-.74037-.3423-.17279-.22856-.25918-.55227-.25918-.9733 0-.41995.0864-.74365.25918-.97112.1728-.22638.41995-.34011.74037-.34011.32043 0 .56649.11373.73818.3401.1717.22748.257.55118.257.97113 0 .42103-.0853.74474-.257.9733zm.87597.60476c.35433-.43635.5304-.96237.5304-1.57806 0-.60476-.17607-1.1286-.5304-1.5726-.35323-.4429-.89019-.66491-1.61087-.66491-.71959 0-1.25654.222-1.61087.6649-.35323.44401-.5304.96785-.5304 1.5726 0 .6157.17717 1.14172.5304 1.57807.35433.43744.89128.65616 1.61087.65616.72068 0 1.25764-.21872 1.61087-.65616zm-1.61087-3.7926zm5.25366.01312c-.01422-.0011-.03062-.0011-.0514-.0011-.32808 0-.59492.0853-.79942.257-.12577.1028-.2734.29418-.44291.57305v-.73053h-1.04548v4.19068h1.10344v-2.00238c0-.33683.04265-.58508.12686-.74693.15091-.28653.44728-.42979.888-.42979.0339 0 .07764.0011.13123.00328.05359.00328.11483.00766.18373.01531v-1.12203c-.04812-.00328-.07984-.00437-.09405-.00656zm6.33085-1.37794l-1.24233 4.30223-1.2303-4.30223h-1.2642l1.9138 5.66704h1.11875l1.93458-5.66704zm2.79086 3.91837h-1.12969c0 .58945.21107 1.05205.6343 1.38887.42212.33793 1.00282.50634 1.741.50634.72287 0 1.2828-.1717 1.67868-.514.39588-.3412.59382-.77207.59382-1.28935 0-.50524-.1695-.89128-.50743-1.15702-.21762-.1717-.54133-.3095-.96893-.4112l-.97658-.23512c-.3773-.08968-.62335-.16732-.73818-.23403-.17935-.10061-.26903-.25153-.26903-.45385 0-.2209.09077-.3926.2734-.51508.18154-.12358.42541-.18482.72944-.18482.27449 0 .50415.04702.68896.14217.27668.14326.42541.38604.4462.72615h1.13734c-.02078-.60148-.24169-1.0608-.66273-1.37794-.42212-.31605-.93174-.47462-1.52885-.47462-.71521 0-1.25654.16732-1.62618.50306-.36854.33682-.55336.75786-.55336 1.2653 0 .55663.19138.96564.57304 1.22701.22529.15638.6332.30074 1.22265.43416l.5993.13451c.35104.07655.60913.16514.77317.26575.16404.1017.24606.24715.24606.43416 0 .32042-.16514.53914-.4965.65725-.17388.06124-.40026.09186-.68022.09186-.46696 0-.79614-.11592-.98752-.34995-.10608-.12795-.17607-.32152-.21216-.5796zm1.14938-4.09116zm5.98308.76552c-.5304.53477-.79614 1.2981-.79614 2.28672 0 .91535.23294 1.63603.6999 2.16096.46588.52274 1.10673.7841 1.92255.7841.65835 0 1.19859-.19356 1.61963-.5807.42213-.38604.68459-.8891.7863-1.50698h-1.17234c-.07984.292-.17935.5118-.29965.65726-.21763.2723-.53477.40791-.94925.40791-.40572 0-.73927-.15857-1.00173-.47462-.26356-.31715-.3948-.79286-.3948-1.42824s.12468-1.1275.37292-1.47418c.24935-.34776.58836-.52164 1.01924-.52164.42322 0 .74255.12357.9569.36963.12139.1378.21981.3434.29637.6146h1.18436c-.01859-.35323-.14873-.70537-.3926-1.0575-.44072-.62445-1.13734-.93722-2.09096-.93722-.71303 0-1.2992.23294-1.7607.6999zm1.7257-.76552zm5.94044 4.72545c-.1717.22747-.41776.3423-.73818.3423-.32043 0-.56758-.11483-.74037-.3423-.17279-.22856-.25918-.55227-.25918-.9733 0-.41995.0864-.74365.25918-.97112.17279-.22638.41994-.34011.74037-.34011.32042 0 .56648.11373.73818.3401.1717.22748.257.55118.257.97113 0 .42103-.0853.74474-.257.9733zm.87597.60476c.35433-.43635.5315-.96237.5315-1.57806 0-.60476-.17717-1.1286-.5315-1.5726-.35323-.4429-.89019-.66491-1.61087-.66491-.71959 0-1.25655.222-1.61087.6649-.35324.44401-.5304.96785-.5304 1.5726 0 .6157.17716 1.14172.5304 1.57807.35432.43744.89128.65616 1.61087.65616.72068 0 1.25764-.21872 1.61087-.65616zm-1.61087-3.7926zm5.14867.17935c-.19794-.11155-.42322-.16732-.67694-.16732-.55117 0-.9908.2045-1.32107.6146-.32917.4101-.49321.9733-.49321 1.68852 0 .62007.16732 1.1275.50087 1.52448.33464.39588.74693.59382 1.23686.59382.29746 0 .5457-.05687.74583-.1695.20013-.11265.3773-.2931.53368-.54243v.5807h1.06517v-5.65938h-1.1111v1.9991c-.12248-.19685-.28324-.35105-.4801-.4626zm.26902 2.98552c-.16185.22966-.39697.34558-.70756.34558-.31058 0-.54133-.11592-.69443-.34776-.15201-.23185-.22856-.54133-.22856-.92847 0-.3587.07545-.65944.22528-.90222.14982-.24168.38495-.36307.70537-.36307.20997 0 .39479.0667.55336.20012.25918.21982.38823.58727.38823 1.09907 0 .36745-.07983.666-.24169.89675zm3.38142-2.02316c.13998-.15857.33573-.2384.58945-.2384.23403 0 .42869.07546.58726.22528.15748.14982.24497.36964.26246.65944h-1.70273c.03609-.2723.12357-.48665.26356-.64632zm1.53213-.94596c-.27996-.13014-.59383-.19575-.94268-.19575-.58617 0-1.06408.19356-1.43153.5807-.36745.38713-.55226.94377-.55226 1.66883 0 .77427.2045 1.3331.61132 1.67649.40791.34339.87816.51509 1.41184.51509.64522 0 1.14828-.2045 1.50698-.61133.23075-.257.35979-.50961.38822-.75786h-1.11875c-.05905.12358-.12686.21981-.2045.2887-.13998.12796-.3237.19248-.54899.19248-.21325 0-.39479-.05249-.5457-.15857-.24935-.16841-.38167-.46369-.39698-.88363h2.86851c.00547-.36198-.00656-.63866-.035-.83113-.04811-.32808-.1542-.6157-.31823-.86504-.18263-.28106-.41338-.48775-.69225-.61898zm-.86504-.19575z"/></svg>