<?xml version="1.0" encoding="UTF-8" standalone="no"?>
<svg
   role="img"
   viewBox="-4.53 -4.53 239.436 51.222374"
   version="1.1"
   id="svg4"
   width="239.436"
   height="51.222374"
   xmlns:xlink="http://www.w3.org/1999/xlink"
   xmlns="http://www.w3.org/2000/svg"
   xmlns:svg="http://www.w3.org/2000/svg">
  <defs
     id="defs4" />
  <title
     id="title1">Broadcom Corporation logo</title>
  <path
     d="m 232.506,4.2980009 c -1.06,0 -1.93,-0.86 -1.93,-1.92 0,-1.06 0.87,-1.93000003 1.93,-1.93000003 1.06,0 1.93,0.87000003 1.93,1.93000003 0,1.06 -0.87,1.92 -1.93,1.92 m 0,-4.32000003 c -1.32,0 -2.4,1.08000003 -2.4,2.40000003 0,1.32 1.08,2.4 2.4,2.4 1.32,0 2.4,-1.08 2.4,-2.4 0,-1.32 -1.08,-2.40000003 -2.4,-2.40000003"
     id="path1" />
  <path
     d="m 232.666,2.2780009 -0.51,0.01 -0.01,-0.62 h 0.51 c 0.19,-0.01 0.34,0.11 0.34,0.3 0.01,0.19 -0.14,0.31 -0.33,0.31 m 0.83,-0.32 c -0.01,-0.42 -0.3,-0.72 -0.77,-0.72 l -1.07,0.02 0.03,2.26 h 0.49 l -0.01,-0.81 h 0.35 l 0.46,0.8 0.55,-0.01 -0.52,-0.86 c 0.24,-0.06 0.49,-0.28 0.49,-0.68 M 47.0201,18.388501 h -5.999 V 4.5545009 h 5.835 c 1.574,0 2.557,1.016 2.557,2.393 0,1.377 -0.983,2.36 -2.557,2.36 H 40.186 v 4.0000001 h 6.8341 c 1.836,0 2.819,1.18 2.819,2.556 0,1.574 -1.049,2.525 -2.819,2.525 m 3.376,-7.245 c 2.066,-0.426 3.771,-2.2620001 3.771,-5.0150001 0,-2.918 -2.131,-5.57300003 -6.295,-5.57300003 H 36.3661 V 22.420501 h 11.867 c 4.163,0 6.359,-2.623 6.359,-5.901 0,-2.754 -1.868,-5.015 -4.196,-5.376 m 17.8225,-0.5902 H 63.186 v 4.098 h 3.5576 l 4.294,7.769 h 5.343 l -4.917,-8.327 c 2.361,-0.557 4.786,-2.622 4.786,-6.4900001 m 0,0 c 0,-4.065 -2.786,-7.04800003 -7.343,-7.04800003 H 58.6786 V 22.420301 h 4.655 V 4.6533009 h 4.885 c 1.869,0 3.278,1.114 3.278,2.95 0,1.836 -1.409,2.9500001 -3.278,2.9500001 m 43.4206,4.0652 3.409,-9.4080001 3.41,9.4080001 z m 0.492,-14.06300013 -8.458,21.86500013 h 5.31 l 1.377,-3.704 h 9.376 l 1.344,3.704 h 5.311 L 117.9662,0.55550087 Z M 139.0351,18.322601 h -3.967 V 4.6526009 h 3.967 c 4.491,0 6.851,2.983 6.851,6.8520001 0,3.704 -2.524,6.818 -6.851,6.818 m 0,-17.76700013 h -8.622 V 22.420601 h 8.622 c 6.851,0 11.604,-4.327 11.604,-10.916 0,-6.5890001 -4.753,-10.94900013 -11.604,-10.94900013 m 82.1269,-0.0045 -5.734,9.27000003 -5.734,-9.27000003 h -5.146 V 22.420101 h 4.656 V 8.1271009 l 5.012,7.6220001 c 0.574,0.871 1.851,0.871 2.424,0 l 5.013,-7.6220001 V 22.420101 h 4.656 V 0.55110087 Z"
     id="path2" />
  <path
     id="a"
     d="m 91.0113,18.552101 c -3.871,0 -7.008,-3.138 -7.008,-7.008 0,-3.8710001 3.137,-7.0090001 7.008,-7.0090001 3.87,0 7.008,3.138 7.008,7.0090001 0,3.87 -3.138,7.008 -7.008,7.008 m 0,-18.53600013 c -6.367,0 -11.528,5.16100003 -11.528,11.52800013 0,6.366 5.161,11.527 11.528,11.527 6.366,0 11.528,-5.161 11.528,-11.527 0,-6.3670001 -5.162,-11.52800013 -11.528,-11.52800013" />
  <path
     d="m 171.5895,14.934901 c -1.195,2.156 -3.492,3.617 -6.132,3.617 -3.87,0 -7.008,-3.138 -7.008,-7.008 0,-3.8710001 3.138,-7.0080001 7.008,-7.0080001 2.618,0 4.897,1.438 6.1,3.565 l 3.27,-3.269 c -2.092,-2.915 -5.508,-4.81600003 -9.37,-4.81600003 -6.367,0 -11.527,5.16100003 -11.527,11.52800013 0,6.366 5.16,11.528 11.527,11.528 3.883,0 7.316,-1.922 9.404,-4.865 z"
     id="path3" />
  <use
     transform="translate(98.718)"
     xlink:href="#a"
     id="use3" />
  <ellipse
     cx="11.706"
     cy="11.705001"
     fill="#cc092f"
     rx="16.236"
     ry="16.235001"
     id="ellipse3" />
  <path
     fill="#ffffff"
     d="m 26.0113,16.091201 c -1.857,-0.74 -3.557,-0.492 -5.261,0.541 0,0 -0.621,0.379 -0.807,0.496 -0.794,0.498 -1.543,0.97 -2.263,0.97 -0.687,0 -1.363,-0.184 -1.649,-1.513 -0.446,-2.073 -1.534,-7.1670001 -2.009,-9.6900001 -0.279,-1.483 -0.432,-2.282 -0.591,-2.825 -0.28,-0.954 -0.792,-1.473 -1.519,-1.556 0,0 -0.114,-0.016 -0.207,-0.016 -0.092,0 -0.218,0.018 -0.218,0.018 -0.72,0.086 -1.229,0.605 -1.5070004,1.554 -0.159,0.543 -0.312,1.342 -0.591,2.825 -0.475,2.523 -1.563,7.6170001 -2.009,9.6900001 -0.286,1.329 -0.962,1.513 -1.649,1.513 -0.72,0 -1.469,-0.472 -2.263,-0.97 -0.186,-0.117 -0.808,-0.496 -0.808,-0.496 -1.703,-1.033 -3.404,-1.281 -5.26,-0.541 -0.401,0.16 -0.79596,0.33918 -1.17196,0.52018 0.257,0.806 0.57693,1.59925 0.94993,2.34425 0.411,-0.202 0.84203,-0.40243 1.28203,-0.53243 0.634,-0.187 1.284,-0.197 1.914,0.014 0.612,0.205 1.157,0.568 1.7,0.909 1.023,0.643 2.182,1.372 3.657,1.372 2.186,0 3.72,-1.305 4.21,-3.581 0.3800004,-1.764 1.2220004,-5.702 1.7630004,-8.4180001 0,0 1.386,6.6540001 1.765,8.4180001 0.49,2.276 2.025,3.581 4.211,3.581 1.475,0 2.634,-0.729 3.657,-1.372 0.543,-0.341 1.088,-0.704 1.7,-0.909 0.629,-0.211 1.28,-0.201 1.914,-0.014 0.44,0.13 0.87039,0.33065 1.28139,0.53265 0.374,-0.745 0.69309,-1.53862 0.95009,-2.34462 -0.376,-0.181 -0.77048,-0.36003 -1.17148,-0.52003"
     id="path4" />
  <path
     d="m 97.30352,38.772453 q 0.444336,0.488282 0.678711,1.196289 0.239258,0.708008 0.239258,1.606446 0,0.898437 -0.244141,1.611328 -0.239257,0.708008 -0.673828,1.18164 -0.449219,0.493164 -1.064453,0.742188 -0.610351,0.249023 -1.396484,0.249023 -0.766602,0 -1.396485,-0.253906 -0.625,-0.253906 -1.064453,-0.737305 -0.439453,-0.483398 -0.678711,-1.186523 -0.234375,-0.703125 -0.234375,-1.606445 0,-0.888672 0.234375,-1.591797 0.234375,-0.708008 0.683594,-1.210938 0.429688,-0.478515 1.064453,-0.732422 0.639649,-0.253906 1.391602,-0.253906 0.78125,0 1.401367,0.258789 0.625,0.253906 1.05957,0.727539 z m -0.08789,2.802735 q 0,-1.416016 -0.634766,-2.182618 -0.634766,-0.771484 -1.733398,-0.771484 -1.108399,0 -1.743165,0.771484 -0.629882,0.766602 -0.629882,2.182618 0,1.430664 0.644531,2.192382 0.644531,0.756836 1.728516,0.756836 1.083984,0 1.723632,-0.756836 0.644532,-0.761718 0.644532,-2.192382 z m 7.29492,-1.44043 q 0,0.483398 -0.1709,0.898437 -0.16601,0.410157 -0.46875,0.712891 -0.37597,0.375977 -0.88867,0.566406 -0.51269,0.185547 -1.29394,0.185547 h -0.9668 V 45.208 h -0.966798 v -7.270508 h 1.972658 q 0.6543,0 1.1084,0.112305 0.4541,0.107422 0.80566,0.341797 0.41504,0.27832 0.63965,0.693359 0.22949,0.415039 0.22949,1.049805 z m -1.00586,0.02441 q 0,-0.375977 -0.13183,-0.654297 -0.13184,-0.27832 -0.40039,-0.454101 -0.23438,-0.151368 -0.53711,-0.214844 -0.29786,-0.06836 -0.75684,-0.06836 h -0.95703 v 2.905274 h 0.81543 q 0.58594,0 0.95215,-0.102539 0.36621,-0.107422 0.5957,-0.336914 0.22949,-0.234375 0.32227,-0.493164 0.0977,-0.258789 0.0977,-0.581055 z m 7.56348,2.973633 q 0,0.424805 -0.2002,0.839844 -0.19531,0.415039 -0.55175,0.703125 -0.39063,0.3125 -0.91309,0.488281 -0.51758,0.175781 -1.25,0.175781 -0.78613,0 -1.41602,-0.146484 -0.625,-0.146485 -1.27441,-0.434571 v -1.210937 h 0.0684 q 0.55176,0.458984 1.27441,0.708008 0.72266,0.249023 1.35743,0.249023 0.89843,0 1.39648,-0.336914 0.50293,-0.336914 0.50293,-0.898437 0,-0.483399 -0.23926,-0.712891 -0.23437,-0.229492 -0.71777,-0.356445 -0.36621,-0.09766 -0.7959,-0.161133 -0.42481,-0.06348 -0.90332,-0.161133 -0.9668,-0.205078 -1.43555,-0.698242 -0.46386,-0.498047 -0.46386,-1.293945 0,-0.913086 0.77148,-1.494141 0.77148,-0.585938 1.95801,-0.585938 0.7666,0 1.40625,0.146485 0.63965,0.146484 1.13281,0.361328 v 1.142578 h -0.0684 q -0.41504,-0.351562 -1.09375,-0.581055 -0.67383,-0.234375 -1.38184,-0.234375 -0.77636,0 -1.25,0.322266 -0.46875,0.322266 -0.46875,0.830078 0,0.454102 0.23438,0.712891 0.23437,0.258789 0.82519,0.395508 0.3125,0.06836 0.88868,0.166015 0.57617,0.09766 0.97656,0.200195 0.81055,0.214844 1.2207,0.649415 0.41016,0.43457 0.41016,1.21582 z m 4.77539,-5.522461 -3.50098,9.082031 h -0.84472 l 3.48632,-9.082031 z m 7.79297,7.597656 h -0.9668 v -6.264648 l -2.02148,4.262695 h -0.57618 l -2.00683,-4.262695 V 45.208 h -0.90332 v -7.270508 h 1.31836 l 1.93847,4.047852 1.875,-4.047852 h 1.34278 z m 7.68554,-7.270508 -2.64648,7.270508 h -1.28906 l -2.64649,-7.270508 h 1.03516 l 2.28027,6.396485 2.28028,-6.396485 z m 6.38672,5.195313 q 0,0.424805 -0.20019,0.839844 -0.19531,0.415039 -0.55176,0.703125 -0.39062,0.3125 -0.91309,0.488281 -0.51757,0.175781 -1.25,0.175781 -0.78613,0 -1.41601,-0.146484 -0.625,-0.146485 -1.27442,-0.434571 v -1.210937 h 0.0684 q 0.55176,0.458984 1.27442,0.708008 0.72265,0.249023 1.35742,0.249023 0.89844,0 1.39648,-0.336914 0.50293,-0.336914 0.50293,-0.898437 0,-0.483399 -0.23925,-0.712891 -0.23438,-0.229492 -0.71778,-0.356445 -0.36621,-0.09766 -0.7959,-0.161133 -0.4248,-0.06348 -0.90332,-0.161133 -0.96679,-0.205078 -1.43554,-0.698242 -0.46387,-0.498047 -0.46387,-1.293945 0,-0.913086 0.77148,-1.494141 0.77149,-0.585938 1.95801,-0.585938 0.7666,0 1.40625,0.146485 0.63965,0.146484 1.13281,0.361328 v 1.142578 h -0.0684 q -0.41504,-0.351562 -1.09375,-0.581055 -0.67383,-0.234375 -1.38184,-0.234375 -0.77637,0 -1.25,0.322266 -0.46875,0.322266 -0.46875,0.830078 0,0.454102 0.23437,0.712891 0.23438,0.258789 0.8252,0.395508 0.3125,0.06836 0.88867,0.166015 0.57617,0.09766 0.97656,0.200195 0.81055,0.214844 1.22071,0.649415 0.41015,0.43457 0.41015,1.21582 z m 9.79981,-1.123047 q 0,1.748047 -1.24024,2.988281 -1.23535,1.235352 -2.98339,1.235352 -1.74805,0 -2.98829,-1.235352 -1.23535,-1.240234 -1.23535,-2.988281 0,-1.748047 1.23535,-2.983398 1.24024,-1.240235 2.98829,-1.240235 1.74804,0 2.98339,1.240235 1.24024,1.235351 1.24024,2.983398 z m -0.56641,0 q 0,-1.513672 -1.07422,-2.597656 -1.06933,-1.083985 -2.583,-1.083985 -1.51368,0 -2.5879,1.083985 -1.06933,1.083984 -1.06933,2.597656 0,1.513672 1.06933,2.597656 1.07422,1.083985 2.5879,1.083985 1.51367,0 2.583,-1.083985 1.07422,-1.083984 1.07422,-2.597656 z m -0.9375,2.148437 h -1.08887 l -1.61621,-1.733398 h -0.79101 v 1.733398 h -0.80567 v -4.467773 h 1.52344 q 0.45899,0 0.75684,0.03906 0.29785,0.03906 0.58594,0.190429 0.30761,0.166016 0.44921,0.405274 0.14649,0.234375 0.14649,0.59082 0,0.473633 -0.27832,0.791016 -0.27344,0.3125 -0.75684,0.498046 z m -1.71875,-3.188476 q 0,-0.175781 -0.0684,-0.3125 -0.0684,-0.136719 -0.22949,-0.224609 -0.15137,-0.08301 -0.32227,-0.107422 -0.17089,-0.02441 -0.42968,-0.02441 h -0.72754 v 1.508789 h 0.62012 q 0.30273,0 0.52246,-0.04395 0.21972,-0.04883 0.36132,-0.161132 0.15137,-0.122071 0.20997,-0.268555 0.0635,-0.146485 0.0635,-0.366211 z"
     id="text4"
     style="font-size:10px;text-anchor:middle"
     aria-label="OPS/MVS®" />
</svg>
