<?xml version="1.0" encoding="UTF-8" standalone="no"?>
<svg
   role="img"
   viewBox="-4.53 -4.53 248.82 41.82"
   version="1.1"
   id="svg4"
   xmlns:xlink="http://www.w3.org/1999/xlink"
   xmlns="http://www.w3.org/2000/svg"
   xmlns:svg="http://www.w3.org/2000/svg">
  <defs
     id="defs4" />
  <title
     id="title1">Broadcom Corporation logo</title>
  <path
     d="M237.32 9.09c-1.06 0-1.93-.86-1.93-1.92s.87-1.93 1.93-1.93 1.93.87 1.93 1.93-.87 1.92-1.93 1.92m0-4.32c-1.32 0-2.4 1.08-2.4 2.4 0 1.32 1.08 2.4 2.4 2.4 1.32 0 2.4-1.08 2.4-2.4 0-1.32-1.08-2.4-2.4-2.4"
     id="path1" />
  <path
     d="M237.48 7.07l-.51.01-.01-.62h.51c.19-.01.34.11.34.3.01.19-.14.31-.33.31m.83-.32c-.01-.42-.3-.72-.77-.72l-1.07.02.03 2.26h.49l-.01-.81h.35l.46.8.55-.01-.52-.86c.24-.06.49-.28.49-.68M51.8341 23.1805h-5.999V9.3465h5.835c1.574 0 2.557 1.016 2.557 2.393 0 1.377-.983 2.36-2.557 2.36H45v4h6.8341c1.836 0 2.819 1.18 2.819 2.556 0 1.574-1.049 2.525-2.819 2.525m3.376-7.245c2.066-.426 3.771-2.262 3.771-5.015 0-2.918-2.131-5.573-6.295-5.573h-11.506v21.865h11.867c4.163 0 6.359-2.623 6.359-5.901 0-2.754-1.868-5.015-4.196-5.376m17.8225-.5902H68v4.098h3.5576l4.294 7.769h5.343l-4.917-8.327c2.361-.557 4.786-2.622 4.786-6.49m0 0c0-4.065-2.786-7.048-7.343-7.048h-10.228v21.865h4.655V9.4453h4.885c1.869 0 3.278 1.114 3.278 2.95s-1.409 2.95-3.278 2.95m43.4206 4.0652l3.409-9.408 3.41 9.408zm.492-14.063l-8.458 21.865h5.31l1.377-3.704h9.376l1.344 3.704h5.311l-8.425-21.865zm26.9039 17.7671h-3.967v-13.67h3.967c4.491 0 6.851 2.983 6.851 6.852 0 3.704-2.524 6.818-6.851 6.818m0-17.767h-8.622v21.865h8.622c6.851 0 11.604-4.327 11.604-10.916s-4.753-10.949-11.604-10.949m82.1269-.0045l-5.734 9.27-5.734-9.27h-5.146v21.869h4.656v-14.293l5.012 7.622c.574.871 1.851.871 2.424 0l5.013-7.622v14.293h4.656V5.3431z"
     id="path2" />
  <path
     id="a"
     d="M95.8253 23.3441c-3.871 0-7.008-3.138-7.008-7.008 0-3.871 3.137-7.009 7.008-7.009 3.87 0 7.008 3.138 7.008 7.009 0 3.87-3.138 7.008-7.008 7.008m0-18.536c-6.367 0-11.528 5.161-11.528 11.528 0 6.366 5.161 11.527 11.528 11.527 6.366 0 11.528-5.161 11.528-11.527 0-6.367-5.162-11.528-11.528-11.528" />
  <path
     d="M176.4035 19.7269c-1.195 2.156-3.492 3.617-6.132 3.617-3.87 0-7.008-3.138-7.008-7.008 0-3.871 3.138-7.008 7.008-7.008 2.618 0 4.897 1.438 6.1 3.565l3.27-3.269c-2.092-2.915-5.508-4.816-9.37-4.816-6.367 0-11.527 5.161-11.527 11.528 0 6.366 5.16 11.528 11.527 11.528 3.883 0 7.316-1.922 9.404-4.865z"
     id="path3" />
  <use
     transform="translate(98.718)"
     xlink:href="#a"
     id="use3" />
  <ellipse
     cx="16.52"
     cy="16.497"
     fill="#cc092f"
     rx="16.236"
     ry="16.235"
     id="ellipse3" />
  <path
     fill="#fff"
     d="M30.8253 20.8832c-1.857-.74-3.557-.492-5.261.541 0 0-.621.379-.807.496-.794.498-1.543.97-2.263.97-.687 0-1.363-.184-1.649-1.513-.446-2.073-1.534-7.167-2.009-9.69-.279-1.483-.432-2.282-.591-2.825-.28-.954-.792-1.473-1.519-1.556 0 0-.114-.016-.207-.016-.092 0-.218.018-.218.018-.72.086-1.229.605-1.507 1.554-.159.543-.312 1.342-.591 2.825-.475 2.523-1.563 7.617-2.009 9.69-.286 1.329-.962 1.513-1.649 1.513-.72 0-1.469-.472-2.263-.97-.186-.117-.808-.496-.808-.496-1.703-1.033-3.404-1.281-5.26-.541-.401.16-.79596.33918-1.17196.52018.257.806.57693 1.59925.94993 2.34425.411-.202.84203-.40243 1.28203-.53243.634-.187 1.284-.197 1.914.014.612.205 1.157.568 1.7.909 1.023.643 2.182 1.372 3.657 1.372 2.186 0 3.72-1.305 4.21-3.581.38-1.764 1.222-5.702 1.763-8.418 0 0 1.386 6.654 1.765 8.418.49 2.276 2.025 3.581 4.211 3.581 1.475 0 2.634-.729 3.657-1.372.543-.341 1.088-.704 1.7-.909.629-.211 1.28-.201 1.914-.014.44.13.87039.33065 1.28139.53265.374-.745.69309-1.53862.95009-2.34462-.376-.181-.77048-.36003-1.17148-.52003"
     id="path4" />
  <path
     d="m -0.93667603,43.564453 q 0.44433594,0.488281 0.67871094,1.196289 0.23925781,0.708008 0.23925781,1.606445 0,0.898438 -0.24414062,1.611329 -0.23925781,0.708007 -0.67382813,1.18164 -0.44921877,0.493164 -1.06445317,0.742188 -0.6103515,0.249023 -1.3964843,0.249023 -0.7666016,0 -1.3964844,-0.253906 -0.625,-0.253906 -1.0644531,-0.737305 -0.4394532,-0.483398 -0.678711,-1.186523 -0.234375,-0.703125 -0.234375,-1.606446 0,-0.888671 0.234375,-1.591796 0.234375,-0.708008 0.6835938,-1.210938 0.4296875,-0.478516 1.0644531,-0.732422 0.6396484,-0.253906 1.3916016,-0.253906 0.78125,0 1.4013672,0.258789 0.625,0.253906 1.05957027,0.727539 z m -0.0878907,2.802734 q 0,-1.416015 -0.6347656,-2.182617 -0.6347656,-0.771484 -1.7333984,-0.771484 -1.1083985,0 -1.7431641,0.771484 -0.6298828,0.766602 -0.6298828,2.182617 0,1.430665 0.6445313,2.192383 0.6445312,0.756836 1.7285156,0.756836 1.0839844,0 1.7236328,-0.756836 0.6445312,-0.761718 0.6445312,-2.192383 z m 7.2949219,-1.440429 q 0,0.483398 -0.1708984,0.898437 -0.1660156,0.410157 -0.46875,0.712891 -0.3759766,0.375976 -0.8886719,0.566406 -0.5126953,0.185547 -1.2939453,0.185547 H 2.4812927 V 50 H 1.5144958 v -7.270508 h 1.9726563 q 0.6542969,0 1.1083984,0.112305 0.4541016,0.107422 0.8056641,0.341797 0.4150391,0.27832 0.6396484,0.693359 0.2294922,0.415039 0.2294922,1.049805 z m -1.0058594,0.02441 q 0,-0.375977 -0.1318359,-0.654297 Q 5.000824,44.018555 4.7322693,43.842773 4.4978943,43.691406 4.1951599,43.62793 3.8973083,43.55957 3.438324,43.55957 H 2.4812927 v 2.905274 h 0.8154297 q 0.5859375,0 0.9521484,-0.102539 0.366211,-0.107422 0.5957032,-0.336914 0.2294922,-0.234375 0.3222656,-0.493164 0.097656,-0.25879 0.097656,-0.581055 z m 7.5634762,2.973633 q 0,0.424804 -0.200195,0.839843 -0.195312,0.415039 -0.551758,0.703125 -0.390625,0.3125 -0.913086,0.488282 -0.517578,0.175781 -1.2499997,0.175781 -0.7861328,0 -1.4160156,-0.146484 -0.625,-0.146485 -1.274414,-0.434571 v -1.210937 h 0.068359 q 0.5517578,0.458984 1.2744141,0.708008 0.7226562,0.249023 1.3574219,0.249023 0.898437,0 1.396484,-0.336914 0.50293,-0.336914 0.50293,-0.898438 0,-0.483398 -0.239258,-0.71289 Q 11.34848,47.119141 10.865082,46.992187 10.498871,46.894531 10.069183,46.831055 9.6443787,46.767578 9.165863,46.669922 8.1990662,46.464844 7.7303162,45.97168 7.266449,45.473633 7.266449,44.677734 q 0,-0.913086 0.7714843,-1.49414 0.7714844,-0.585938 1.9580079,-0.585938 0.7666018,0 1.4062498,0.146485 0.639649,0.146484 1.132813,0.361328 v 1.142578 h -0.06836 q -0.415039,-0.351563 -1.09375,-0.581055 -0.673828,-0.234375 -1.3818357,-0.234375 -0.7763671,0 -1.25,0.322266 -0.46875,0.322265 -0.46875,0.830078 0,0.454101 0.234375,0.712891 0.234375,0.258789 0.8251954,0.395507 0.3125,0.06836 0.8886723,0.166016 0.576171,0.09766 0.976562,0.200195 0.810547,0.214844 1.220703,0.649414 0.410156,0.434571 0.410156,1.215821 z m 4.775391,-5.522461 -3.500977,9.082031 H 13.25766 l 3.486328,-9.082031 z M 24.937347,50 H 23.682465 L 21.250824,47.109375 H 19.888519 V 50 h -0.966797 v -7.270508 h 2.036133 q 0.65918,0 1.098633,0.08789 0.439453,0.08301 0.791016,0.302734 0.395507,0.249024 0.615234,0.629883 0.224609,0.375977 0.224609,0.957031 0,0.786133 -0.395507,1.31836 -0.395508,0.527343 -1.088868,0.795898 z m -2.260742,-5.224609 q 0,-0.3125 -0.112304,-0.551758 -0.107422,-0.244141 -0.361329,-0.410156 -0.209961,-0.141602 -0.498046,-0.195313 -0.288086,-0.05859 -0.678711,-0.05859 h -1.137696 v 2.744141 h 0.976563 q 0.458984,0 0.800781,-0.07813 0.341797,-0.08301 0.581055,-0.302734 0.219726,-0.205079 0.322265,-0.46875 0.107422,-0.268555 0.107422,-0.678711 z M 30.664886,50 h -4.790039 v -7.270508 h 4.790039 v 0.859375 h -3.823242 v 1.992188 h 3.823242 v 0.859375 h -3.823242 v 2.700195 h 3.823242 z m 7.080079,-7.270508 -2.509766,3.59375 L 37.740082,50 H 36.621918 L 34.639496,47.006836 32.608246,50 h -1.054688 l 2.53418,-3.632813 -2.475586,-3.637695 h 1.113281 l 1.958008,2.954102 2.001953,-2.954102 z m 6.850586,0 -2.509766,3.59375 L 44.590668,50 H 43.472504 L 41.490082,47.006836 39.458832,50 h -1.054688 l 2.53418,-3.632813 -2.475586,-3.637695 h 1.113281 l 1.958008,2.954102 2.001953,-2.954102 z M 54.014496,50 h -4.59961 v -7.270508 h 0.966797 v 6.411133 h 3.632813 z m 5.131836,0 h -0.913086 v -0.581055 q -0.12207,0.08301 -0.332031,0.234375 -0.205079,0.146485 -0.400391,0.234375 Q 57.271332,50 56.97348,50.073242 q -0.297851,0.07813 -0.698242,0.07813 -0.737305,0 -1.25,-0.488281 -0.512695,-0.488281 -0.512695,-1.245117 0,-0.620117 0.263672,-1.000977 0.268554,-0.385742 0.761718,-0.605469 0.498047,-0.219726 1.196289,-0.297851 0.698243,-0.07813 1.499024,-0.117188 v -0.141601 q 0,-0.3125 -0.112305,-0.517578 -0.107422,-0.205078 -0.3125,-0.322266 -0.195312,-0.112305 -0.46875,-0.151367 -0.273437,-0.03906 -0.571289,-0.03906 -0.361328,0 -0.805664,0.09766 -0.444336,0.09277 -0.917969,0.273437 h -0.04883 v -0.932617 q 0.268555,-0.07324 0.776367,-0.161133 0.507813,-0.08789 1.000977,-0.08789 0.576172,0 1.000976,0.09766 0.429688,0.09277 0.742188,0.322265 0.307617,0.22461 0.46875,0.581055 0.161133,0.356445 0.161133,0.883789 z m -0.913086,-1.342773 v -1.518555 q -0.419922,0.02441 -0.991211,0.07324 -0.566406,0.04883 -0.898438,0.141602 -0.395507,0.112304 -0.639648,0.351562 -0.244141,0.234375 -0.244141,0.649414 0,0.46875 0.283203,0.708008 0.283204,0.234375 0.864258,0.234375 0.483399,0 0.883789,-0.185547 0.400391,-0.19043 0.742188,-0.454101 z M 65.474457,50 h -0.917969 v -3.105469 q 0,-0.375976 -0.04395,-0.703125 -0.04395,-0.332031 -0.161133,-0.517578 -0.12207,-0.205078 -0.351563,-0.302734 -0.229492,-0.102539 -0.595703,-0.102539 -0.375976,0 -0.786133,0.185547 -0.410156,0.185546 -0.786132,0.473632 V 50 H 60.91391 v -5.454102 h 0.917969 v 0.605469 q 0.429687,-0.356445 0.888672,-0.55664 0.458984,-0.200196 0.942382,-0.200196 0.883789,0 1.347657,0.532227 0.463867,0.532226 0.463867,1.533203 z m 6.191406,-0.620117 q 0,1.386719 -0.629883,2.036133 -0.629883,0.649414 -1.938476,0.649414 -0.434571,0 -0.84961,-0.06348 -0.410156,-0.05859 -0.810547,-0.170898 v -0.9375 h 0.04883 q 0.224609,0.08789 0.71289,0.214843 0.488281,0.131836 0.976563,0.131836 0.46875,0 0.776367,-0.112304 0.307617,-0.112305 0.478515,-0.3125 0.170899,-0.19043 0.244141,-0.458985 0.07324,-0.268554 0.07324,-0.600586 v -0.498047 q -0.415039,0.332032 -0.795898,0.498047 -0.375977,0.161133 -0.961914,0.161133 -0.976563,0 -1.552735,-0.703125 -0.571289,-0.708008 -0.571289,-1.992187 0,-0.703125 0.195313,-1.210938 0.200195,-0.512695 0.541992,-0.883789 0.317383,-0.34668 0.771484,-0.537109 0.454102,-0.195313 0.903321,-0.195313 0.473633,0 0.791015,0.09766 0.322266,0.09277 0.678711,0.288086 l 0.05859,-0.234375 h 0.859375 z m -0.917969,-0.878906 v -2.973633 q -0.366211,-0.166016 -0.683593,-0.234375 -0.3125,-0.07324 -0.625,-0.07324 -0.756836,0 -1.191407,0.507812 -0.43457,0.507813 -0.43457,1.474609 0,0.917969 0.322266,1.391602 0.322265,0.473633 1.069336,0.473633 0.40039,0 0.800781,-0.151367 0.405273,-0.15625 0.742187,-0.415039 z M 77.993988,50 h -0.917969 v -0.605469 q -0.463867,0.366211 -0.888672,0.561524 -0.424804,0.195312 -0.9375,0.195312 -0.859375,0 -1.33789,-0.522461 -0.478516,-0.527344 -0.478516,-1.542969 v -3.540039 h 0.917969 v 3.105469 q 0,0.415039 0.03906,0.712891 0.03906,0.292969 0.166016,0.502929 0.131836,0.214844 0.341797,0.3125 0.209961,0.09766 0.610351,0.09766 0.356446,0 0.776368,-0.185547 0.424804,-0.185547 0.791015,-0.473633 v -4.072266 h 0.917969 z m 6.044922,0 h -0.913086 v -0.581055 q -0.12207,0.08301 -0.332031,0.234375 -0.205078,0.146485 -0.400391,0.234375 Q 82.16391,50 81.866058,50.073242 q -0.297851,0.07813 -0.698242,0.07813 -0.737305,0 -1.25,-0.488281 -0.512695,-0.488281 -0.512695,-1.245117 0,-0.620117 0.263672,-1.000977 0.268554,-0.385742 0.761718,-0.605469 0.498047,-0.219726 1.19629,-0.297851 0.698242,-0.07813 1.499023,-0.117188 v -0.141601 q 0,-0.3125 -0.112305,-0.517578 -0.107422,-0.205078 -0.3125,-0.322266 -0.195312,-0.112305 -0.46875,-0.151367 -0.273437,-0.03906 -0.571289,-0.03906 -0.361328,0 -0.805664,0.09766 -0.444336,0.09277 -0.917969,0.273437 h -0.04883 v -0.932617 q 0.268555,-0.07324 0.776367,-0.161133 0.507813,-0.08789 1.000977,-0.08789 0.576172,0 1.000977,0.09766 0.429687,0.09277 0.742187,0.322265 0.307617,0.22461 0.46875,0.581055 0.161133,0.356445 0.161133,0.883789 z m -0.913086,-1.342773 v -1.518555 q -0.419922,0.02441 -0.991211,0.07324 -0.566406,0.04883 -0.898437,0.141602 -0.395508,0.112304 -0.639649,0.351562 -0.244141,0.234375 -0.244141,0.649414 0,0.46875 0.283204,0.708008 0.283203,0.234375 0.864257,0.234375 0.483399,0 0.883789,-0.185547 0.400391,-0.19043 0.742188,-0.454101 z m 7.104492,0.722656 q 0,1.386719 -0.629883,2.036133 -0.629882,0.649414 -1.938476,0.649414 -0.434571,0 -0.84961,-0.06348 -0.410156,-0.05859 -0.810546,-0.170898 v -0.9375 h 0.04883 q 0.224609,0.08789 0.71289,0.214843 0.488282,0.131836 0.976563,0.131836 0.46875,0 0.776367,-0.112304 0.307617,-0.112305 0.478516,-0.3125 0.170898,-0.19043 0.24414,-0.458985 0.07324,-0.268554 0.07324,-0.600586 v -0.498047 q -0.415039,0.332032 -0.795898,0.498047 -0.375977,0.161133 -0.961914,0.161133 -0.976563,0 -1.552734,-0.703125 -0.57129,-0.708008 -0.57129,-1.992187 0,-0.703125 0.195313,-1.210938 0.200195,-0.512695 0.541992,-0.883789 0.317383,-0.34668 0.771485,-0.537109 0.454101,-0.195313 0.90332,-0.195313 0.473633,0 0.791015,0.09766 0.322266,0.09277 0.678711,0.288086 l 0.05859,-0.234375 h 0.859375 z m -0.917969,-0.878906 v -2.973633 q -0.366211,-0.166016 -0.683593,-0.234375 -0.3125,-0.07324 -0.625,-0.07324 -0.756836,0 -1.191407,0.507812 -0.43457,0.507813 -0.43457,1.474609 0,0.917969 0.322266,1.391602 0.322265,0.473633 1.069336,0.473633 0.40039,0 0.800781,-0.151367 0.405273,-0.15625 0.742187,-0.415039 z m 7.290039,-1.132813 h -4.018554 q 0,0.50293 0.151367,0.878906 0.151367,0.371094 0.415039,0.610352 0.253906,0.234375 0.600586,0.351562 0.351562,0.117188 0.771484,0.117188 0.556641,0 1.118164,-0.219727 0.566407,-0.224609 0.805664,-0.439453 h 0.04883 v 1.000977 q -0.463868,0.195312 -0.947266,0.327148 -0.483398,0.131836 -1.015625,0.131836 -1.357422,0 -2.119141,-0.732422 -0.761718,-0.737304 -0.761718,-2.089844 0,-1.33789 0.727539,-2.124023 0.732422,-0.786133 1.923828,-0.786133 1.103515,0 1.699219,0.644531 0.600585,0.644532 0.600585,1.831055 z m -0.893554,-0.703125 q -0.0049,-0.722656 -0.366211,-1.118164 -0.356445,-0.395508 -1.088867,-0.395508 -0.737305,0 -1.176758,0.43457 -0.43457,0.434571 -0.493164,1.079102 z m 11.157228,1.259766 q 0,0.424804 -0.2002,0.839843 -0.19531,0.415039 -0.55175,0.703125 -0.39063,0.3125 -0.91309,0.488282 -0.51758,0.175781 -1.25,0.175781 -0.78613,0 -1.41602,-0.146484 -0.625,-0.146485 -1.27441,-0.434571 v -1.210937 h 0.0684 q 0.55176,0.458984 1.27441,0.708008 0.72266,0.249023 1.35742,0.249023 0.89844,0 1.39649,-0.336914 0.50293,-0.336914 0.50293,-0.898438 0,-0.483398 -0.23926,-0.71289 -0.23437,-0.229492 -0.71777,-0.356446 -0.36621,-0.09766 -0.7959,-0.161132 -0.42481,-0.06348 -0.90332,-0.161133 -0.9668,-0.205078 -1.43555,-0.698242 -0.46387,-0.498047 -0.46387,-1.293946 0,-0.913086 0.77149,-1.49414 0.77148,-0.585938 1.95801,-0.585938 0.7666,0 1.40625,0.146485 0.63965,0.146484 1.13281,0.361328 v 1.142578 h -0.0684 q -0.41504,-0.351563 -1.09375,-0.581055 -0.67383,-0.234375 -1.38184,-0.234375 -0.77636,0 -1.25,0.322266 -0.46875,0.322265 -0.46875,0.830078 0,0.454101 0.23438,0.712891 0.23437,0.258789 0.82519,0.395507 0.3125,0.06836 0.88868,0.166016 0.57617,0.09766 0.97656,0.200195 0.81055,0.214844 1.2207,0.649414 0.41016,0.434571 0.41016,1.215821 z M 112.86703,50 h -0.91796 v -0.605469 q -0.46387,0.366211 -0.88868,0.561524 -0.4248,0.195312 -0.9375,0.195312 -0.85937,0 -1.33789,-0.522461 -0.47851,-0.527344 -0.47851,-1.542969 v -3.540039 h 0.91797 v 3.105469 q 0,0.415039 0.0391,0.712891 0.0391,0.292969 0.16601,0.502929 0.13184,0.214844 0.3418,0.3125 0.20996,0.09766 0.61035,0.09766 0.35645,0 0.77637,-0.185547 0.42481,-0.185547 0.79102,-0.473633 v -4.072266 h 0.91796 z m 6.60645,-2.792969 q 0,0.664063 -0.19043,1.215821 -0.19043,0.546875 -0.53711,0.927734 -0.32226,0.361328 -0.76172,0.561523 -0.43457,0.195313 -0.92285,0.195313 -0.4248,0 -0.77148,-0.09277 -0.3418,-0.09277 -0.69825,-0.288086 v 2.285157 h -0.91796 v -7.465821 h 0.91796 v 0.571289 q 0.36622,-0.307617 0.82032,-0.512695 0.45898,-0.209961 0.97656,-0.209961 0.98633,0 1.5332,0.747071 0.55176,0.742187 0.55176,2.065429 z m -0.94727,0.02441 q 0,-0.986328 -0.33691,-1.474609 -0.33691,-0.488281 -1.03516,-0.488281 -0.3955,0 -0.79589,0.170898 -0.40039,0.170899 -0.76661,0.449219 v 3.09082 q 0.39063,0.175781 0.66895,0.239258 0.2832,0.06348 0.63965,0.06348 0.7666,0 1.19629,-0.517579 0.42968,-0.517578 0.42968,-1.533203 z m 7.17774,-0.02441 q 0,0.664063 -0.19043,1.215821 -0.19043,0.546875 -0.53711,0.927734 -0.32227,0.361328 -0.76172,0.561523 -0.43457,0.195313 -0.92285,0.195313 -0.42481,0 -0.77148,-0.09277 -0.3418,-0.09277 -0.69825,-0.288086 v 2.285157 h -0.91797 v -7.465821 h 0.91797 v 0.571289 q 0.36621,-0.307617 0.82032,-0.512695 0.45898,-0.209961 0.97656,-0.209961 0.98633,0 1.5332,0.747071 0.55176,0.742187 0.55176,2.065429 z m -0.94727,0.02441 q 0,-0.986328 -0.33691,-1.474609 -0.33691,-0.488281 -1.03516,-0.488281 -0.3955,0 -0.7959,0.170898 -0.40039,0.170899 -0.7666,0.449219 v 3.09082 q 0.39063,0.175781 0.66895,0.239258 0.2832,0.06348 0.63965,0.06348 0.7666,0 1.19629,-0.517579 0.42968,-0.517578 0.42968,-1.533203 z m 7.02637,0.04395 q 0,1.333007 -0.68359,2.104492 -0.6836,0.771484 -1.83106,0.771484 -1.15722,0 -1.84082,-0.771484 -0.67871,-0.771485 -0.67871,-2.104492 0,-1.333008 0.67871,-2.104493 0.6836,-0.776367 1.84082,-0.776367 1.14746,0 1.83106,0.776367 0.68359,0.771485 0.68359,2.104493 z m -0.94727,0 q 0,-1.059571 -0.41503,-1.572266 -0.41504,-0.517578 -1.15235,-0.517578 -0.74707,0 -1.16211,0.517578 -0.41015,0.512695 -0.41015,1.572266 0,1.02539 0.41504,1.557617 0.41503,0.527344 1.15722,0.527344 0.73242,0 1.14746,-0.522461 0.41992,-0.527344 0.41992,-1.5625 z m 5.77149,-1.728516 h -0.0488 q -0.20508,-0.04883 -0.40039,-0.06836 -0.19043,-0.02441 -0.4541,-0.02441 -0.42481,0 -0.82031,0.190429 -0.39551,0.185547 -0.76172,0.483399 V 50 h -0.91797 v -5.454102 h 0.91797 v 0.805664 q 0.54687,-0.439453 0.96191,-0.620117 0.41992,-0.185547 0.85449,-0.185547 0.23926,0 0.34668,0.01465 0.10743,0.0098 0.32227,0.04395 z m 3.69629,4.404297 q -0.25879,0.06836 -0.56641,0.112305 -0.30273,0.04395 -0.54199,0.04395 -0.83496,0 -1.26953,-0.449219 -0.43457,-0.449219 -0.43457,-1.44043 v -2.90039 h -0.62012 v -0.771485 h 0.62012 v -1.567382 h 0.91797 v 1.567382 h 1.89453 v 0.771485 h -1.89453 v 2.485351 q 0,0.429688 0.0195,0.673828 0.0195,0.239258 0.13672,0.449219 0.10742,0.195313 0.29297,0.288086 0.19043,0.08789 0.57617,0.08789 0.22461,0 0.46875,-0.06348 0.24414,-0.06836 0.35156,-0.112304 h 0.0488 z M 149.79086,50 h -4.79004 v -7.270508 h 4.79004 v 0.859375 h -3.82324 v 1.992188 h 3.82324 v 0.859375 h -3.82324 v 2.700195 h 3.82324 z m 6.18164,0 h -1.15722 L 153.26743,47.905273 151.70981,50 h -1.06934 l 2.12891,-2.719727 -2.10938,-2.734375 h 1.15723 l 1.53809,2.060547 1.54296,-2.060547 h 1.07422 l -2.14355,2.685547 z m 4.02832,-0.04883 q -0.25879,0.06836 -0.5664,0.112305 -0.30274,0.04395 -0.54199,0.04395 -0.83497,0 -1.26954,-0.449219 -0.43457,-0.449219 -0.43457,-1.44043 v -2.90039 h -0.62011 v -0.771485 h 0.62011 v -1.567382 h 0.91797 v 1.567382 h 1.89453 v 0.771485 h -1.89453 v 2.485351 q 0,0.429688 0.0195,0.673828 0.0195,0.239258 0.13672,0.449219 0.10742,0.195313 0.29297,0.288086 0.19043,0.08789 0.57617,0.08789 0.22461,0 0.46875,-0.06348 0.24414,-0.06836 0.35157,-0.112304 h 0.0488 z m 5.67383,-2.583008 h -4.01855 q 0,0.50293 0.15136,0.878906 0.15137,0.371094 0.41504,0.610352 0.25391,0.234375 0.60059,0.351562 0.35156,0.117188 0.77148,0.117188 0.55664,0 1.11817,-0.219727 0.5664,-0.224609 0.80566,-0.439453 h 0.0488 v 1.000977 q -0.46387,0.195312 -0.94727,0.327148 -0.48339,0.131836 -1.01562,0.131836 -1.35742,0 -2.11914,-0.732422 -0.76172,-0.737304 -0.76172,-2.089844 0,-1.33789 0.72754,-2.124023 0.73242,-0.786133 1.92383,-0.786133 1.10351,0 1.69922,0.644531 0.60058,0.644532 0.60058,1.831055 z m -0.89355,-0.703125 q -0.005,-0.722656 -0.36621,-1.118164 -0.35645,-0.395508 -1.08887,-0.395508 -0.73731,0 -1.17676,0.43457 -0.43457,0.434571 -0.49316,1.079102 z M 171.6268,50 h -0.91797 v -3.105469 q 0,-0.375976 -0.0439,-0.703125 -0.044,-0.332031 -0.16114,-0.517578 -0.12207,-0.205078 -0.35156,-0.302734 -0.22949,-0.102539 -0.5957,-0.102539 -0.37598,0 -0.78613,0.185547 -0.41016,0.185546 -0.78614,0.473632 V 50 h -0.91797 v -5.454102 h 0.91797 v 0.605469 q 0.42969,-0.356445 0.88867,-0.55664 0.45899,-0.200196 0.94239,-0.200196 0.88379,0 1.34765,0.532227 0.46387,0.532226 0.46387,1.533203 z m 5.66406,-1.572266 q 0,0.747071 -0.62011,1.225586 -0.61524,0.478516 -1.68457,0.478516 -0.60547,0 -1.11329,-0.141602 -0.50293,-0.146484 -0.84472,-0.317382 v -1.030274 h 0.0488 q 0.43457,0.327149 0.96679,0.522461 0.53223,0.19043 1.02051,0.19043 0.60547,0 0.94727,-0.195313 0.34179,-0.195312 0.34179,-0.615234 0,-0.322266 -0.18554,-0.488281 -0.18555,-0.166016 -0.71289,-0.283204 -0.19532,-0.04395 -0.5127,-0.102539 -0.3125,-0.05859 -0.57129,-0.126953 -0.71777,-0.190429 -1.02051,-0.55664 -0.29785,-0.371094 -0.29785,-0.908203 0,-0.336915 0.13672,-0.634766 0.1416,-0.297852 0.42481,-0.532227 0.27343,-0.229492 0.69335,-0.361328 0.42481,-0.136719 0.94727,-0.136719 0.48828,0 0.98633,0.122071 0.50293,0.117187 0.83496,0.288086 v 0.981445 h -0.0488 q -0.35156,-0.258789 -0.85449,-0.43457 -0.50293,-0.180664 -0.98633,-0.180664 -0.50293,0 -0.84961,0.195312 -0.34668,0.19043 -0.34668,0.571289 0,0.336914 0.20996,0.507813 0.20508,0.170898 0.66407,0.27832 0.2539,0.05859 0.5664,0.117188 0.31738,0.05859 0.52735,0.107421 0.63964,0.146485 0.98632,0.50293 0.34668,0.361328 0.34668,0.957031 z m 2.29981,-4.794922 h -1.03516 v -0.952148 h 1.03516 z M 179.53207,50 h -0.91796 v -5.454102 h 0.91796 z m 6.46485,-2.724609 q 0,1.333007 -0.6836,2.104492 -0.68359,0.771484 -1.83105,0.771484 -1.15723,0 -1.84082,-0.771484 -0.67871,-0.771485 -0.67871,-2.104492 0,-1.333008 0.67871,-2.104493 0.68359,-0.776367 1.84082,-0.776367 1.14746,0 1.83105,0.776367 0.6836,0.771485 0.6836,2.104493 z m -0.94727,0 q 0,-1.059571 -0.41504,-1.572266 -0.41504,-0.517578 -1.15234,-0.517578 -0.74707,0 -1.16211,0.517578 -0.41016,0.512695 -0.41016,1.572266 0,1.02539 0.41504,1.557617 0.41504,0.527344 1.15723,0.527344 0.73242,0 1.14746,-0.522461 0.41992,-0.527344 0.41992,-1.5625 z M 191.97836,50 h -0.91797 v -3.105469 q 0,-0.375976 -0.0439,-0.703125 -0.0439,-0.332031 -0.16113,-0.517578 -0.12207,-0.205078 -0.35157,-0.302734 -0.22949,-0.102539 -0.5957,-0.102539 -0.37598,0 -0.78613,0.185547 -0.41016,0.185546 -0.78614,0.473632 V 50 h -0.91796 v -5.454102 h 0.91796 v 0.605469 q 0.42969,-0.356445 0.88868,-0.55664 0.45898,-0.200196 0.94238,-0.200196 0.88379,0 1.34766,0.532227 0.46386,0.532226 0.46386,1.533203 z m 8.21778,-6.708984 h -0.0488 q -0.15137,-0.04395 -0.39551,-0.08789 -0.24414,-0.04883 -0.42969,-0.04883 -0.59082,0 -0.85937,0.263672 -0.26367,0.258789 -0.26367,0.942383 v 0.185546 h 1.65527 v 0.771485 h -1.62598 V 50 h -0.91797 v -4.682617 h -0.62011 v -0.771485 h 0.62011 v -0.180664 q 0,-0.971679 0.4834,-1.489257 0.4834,-0.522461 1.39649,-0.522461 0.30761,0 0.55175,0.0293 0.24903,0.0293 0.45411,0.06836 z m 5.22949,3.984375 q 0,1.333007 -0.6836,2.104492 -0.68359,0.771484 -1.83105,0.771484 -1.15723,0 -1.84082,-0.771484 -0.67871,-0.771485 -0.67871,-2.104492 0,-1.333008 0.67871,-2.104493 0.68359,-0.776367 1.84082,-0.776367 1.14746,0 1.83105,0.776367 0.6836,0.771485 0.6836,2.104493 z m -0.94727,0 q 0,-1.059571 -0.41504,-1.572266 -0.41504,-0.517578 -1.15234,-0.517578 -0.74707,0 -1.16211,0.517578 -0.41016,0.512695 -0.41016,1.572266 0,1.02539 0.41504,1.557617 0.41504,0.527344 1.15723,0.527344 0.73242,0 1.14746,-0.522461 0.41992,-0.527344 0.41992,-1.5625 z m 5.77149,-1.728516 h -0.0488 q -0.20508,-0.04883 -0.40039,-0.06836 -0.19043,-0.02441 -0.4541,-0.02441 -0.42481,0 -0.82032,0.190429 -0.3955,0.185547 -0.76171,0.483399 V 50 h -0.91797 v -5.454102 h 0.91797 v 0.805664 q 0.54687,-0.439453 0.96191,-0.620117 0.41992,-0.185547 0.85449,-0.185547 0.23926,0 0.34668,0.01465 0.10742,0.0098 0.32227,0.04395 z M 220.43539,42.729492 217.78891,50 h -1.28906 l -2.64649,-7.270508 h 1.03516 l 2.28027,6.396485 2.28028,-6.396485 z m 6.38672,5.195313 q 0,0.424804 -0.20019,0.839843 -0.19531,0.415039 -0.55176,0.703125 -0.39063,0.3125 -0.91309,0.488282 -0.51757,0.175781 -1.25,0.175781 -0.78613,0 -1.41601,-0.146484 -0.625,-0.146485 -1.27442,-0.434571 v -1.210937 h 0.0684 q 0.55176,0.458984 1.27442,0.708008 0.72265,0.249023 1.35742,0.249023 0.89844,0 1.39648,-0.336914 0.50293,-0.336914 0.50293,-0.898438 0,-0.483398 -0.23925,-0.71289 -0.23438,-0.229492 -0.71778,-0.356446 -0.36621,-0.09766 -0.7959,-0.161132 -0.4248,-0.06348 -0.90332,-0.161133 -0.96679,-0.205078 -1.43554,-0.698242 -0.46387,-0.498047 -0.46387,-1.293946 0,-0.913086 0.77148,-1.49414 0.77149,-0.585938 1.95801,-0.585938 0.7666,0 1.40625,0.146485 0.63965,0.146484 1.13281,0.361328 v 1.142578 h -0.0684 q -0.41503,-0.351563 -1.09375,-0.581055 -0.67382,-0.234375 -1.38183,-0.234375 -0.77637,0 -1.25,0.322266 -0.46875,0.322265 -0.46875,0.830078 0,0.454101 0.23437,0.712891 0.23438,0.258789 0.8252,0.395507 0.3125,0.06836 0.88867,0.166016 0.57617,0.09766 0.97656,0.200195 0.81055,0.214844 1.22071,0.649414 0.41015,0.434571 0.41015,1.215821 z m 10.6836,1.547851 q -0.26856,0.117188 -0.48828,0.219727 -0.21485,0.102539 -0.56641,0.214844 -0.29785,0.09277 -0.64941,0.15625 -0.34668,0.06836 -0.76661,0.06836 -0.79101,0 -1.44043,-0.219727 -0.64453,-0.224609 -1.12304,-0.698242 -0.46875,-0.463867 -0.73242,-1.176758 -0.26368,-0.717773 -0.26368,-1.665039 0,-0.898437 0.25391,-1.606445 0.25391,-0.708008 0.73242,-1.196289 0.46387,-0.473633 1.11817,-0.722656 0.65918,-0.249024 1.45996,-0.249024 0.58593,0 1.16699,0.141602 0.58594,0.141601 1.29883,0.498047 v 1.147461 h -0.0733 q -0.60058,-0.50293 -1.1914,-0.732422 -0.59082,-0.229492 -1.26465,-0.229492 -0.55176,0 -0.99609,0.180664 -0.43946,0.175781 -0.78614,0.551757 -0.33691,0.366211 -0.52734,0.927735 -0.18555,0.55664 -0.18555,1.289062 0,0.766602 0.20508,1.31836 0.20996,0.551757 0.53711,0.898437 0.3418,0.361328 0.7959,0.53711 0.45898,0.170898 0.9668,0.170898 0.69824,0 1.30859,-0.239258 0.61035,-0.239258 1.14258,-0.717773 h 0.0684 z m 5.94238,-2.197265 q 0,1.333007 -0.68359,2.104492 -0.6836,0.771484 -1.83106,0.771484 -1.15723,0 -1.84082,-0.771484 -0.67871,-0.771485 -0.67871,-2.104492 0,-1.333008 0.67871,-2.104493 0.68359,-0.776367 1.84082,-0.776367 1.14746,0 1.83106,0.776367 0.68359,0.771485 0.68359,2.104493 z m -0.94727,0 q 0,-1.059571 -0.41504,-1.572266 -0.41503,-0.517578 -1.15234,-0.517578 -0.74707,0 -1.16211,0.517578 -0.41015,0.512695 -0.41015,1.572266 0,1.02539 0.41503,1.557617 0.41504,0.527344 1.15723,0.527344 0.73242,0 1.14746,-0.522461 0.41992,-0.527344 0.41992,-1.5625 z M 249.29282,50 h -0.91797 v -0.571289 q -0.39551,0.341797 -0.8252,0.532226 -0.42969,0.19043 -0.93262,0.19043 -0.97656,0 -1.55273,-0.751953 -0.57129,-0.751953 -0.57129,-2.084961 0,-0.693359 0.19531,-1.235351 0.2002,-0.541993 0.53711,-0.922852 0.33203,-0.371094 0.77149,-0.566406 0.44433,-0.195313 0.91797,-0.195313 0.42968,0 0.76172,0.09277 0.33203,0.08789 0.69824,0.27832 v -2.363281 h 0.91797 z m -0.91797,-1.342773 v -3.129883 q -0.3711,-0.166016 -0.66407,-0.229492 -0.29296,-0.06348 -0.63964,-0.06348 -0.77149,0 -1.20118,0.537109 -0.42968,0.53711 -0.42968,1.523438 0,0.97168 0.33203,1.479492 0.33203,0.50293 1.06445,0.50293 0.39063,0 0.79102,-0.170899 0.40039,-0.175781 0.74707,-0.449218 z m 7.29004,-1.289063 h -4.01856 q 0,0.50293 0.15137,0.878906 0.15137,0.371094 0.41504,0.610352 0.2539,0.234375 0.60058,0.351562 0.35157,0.117188 0.77149,0.117188 0.55664,0 1.11816,-0.219727 0.56641,-0.224609 0.80567,-0.439453 h 0.0488 v 1.000977 q -0.46386,0.195312 -0.94726,0.327148 -0.4834,0.131836 -1.01563,0.131836 -1.35742,0 -2.11914,-0.732422 -0.76172,-0.737304 -0.76172,-2.089844 0,-1.33789 0.72754,-2.124023 0.73243,-0.786133 1.92383,-0.786133 1.10352,0 1.69922,0.644531 0.60059,0.644532 0.60059,1.831055 z m -0.89356,-0.703125 q -0.005,-0.722656 -0.36621,-1.118164 -0.35644,-0.395508 -1.08887,-0.395508 -0.7373,0 -1.17675,0.43457 -0.43457,0.434571 -0.49317,1.079102 z"
     id="text4"
     style="font-size:10px;text-anchor:middle"
     aria-label="OPS/REXX Language Support Extension for VS Code" />
</svg>
