<svg xmlns="http://www.w3.org/2000/svg" role="img" xmlns:xlink="http://www.w3.org/1999/xlink" viewBox="-4.53 -4.53 248.82 53.57"><path d="M237.32 9.09c-1.06 0-1.93-.86-1.93-1.92s.87-1.93 1.93-1.93 1.93.87 1.93 1.93-.87 1.92-1.93 1.92m0-4.32c-1.32 0-2.4 1.08-2.4 2.4 0 1.32 1.08 2.4 2.4 2.4 1.32 0 2.4-1.08 2.4-2.4 0-1.32-1.08-2.4-2.4-2.4"/><path d="M237.48 7.07l-.51.01-.01-.62h.51c.19-.01.34.11.34.3.01.19-.14.31-.33.31m.83-.32c-.01-.42-.3-.72-.77-.72l-1.07.02.03 2.26h.49l-.01-.81h.35l.46.8.55-.01-.52-.86c.24-.06.49-.28.49-.68M51.8341 23.1805h-5.999V9.3465h5.835c1.574 0 2.557 1.016 2.557 2.393 0 1.377-.983 2.36-2.557 2.36H45v4h6.8341c1.836 0 2.819 1.18 2.819 2.556 0 1.574-1.049 2.525-2.819 2.525m3.376-7.245c2.066-.426 3.771-2.262 3.771-5.015 0-2.918-2.131-5.573-6.295-5.573h-11.506v21.865h11.867c4.163 0 6.359-2.623 6.359-5.901 0-2.754-1.868-5.015-4.196-5.376m17.8225-.5902H68v4.098h3.5576l4.294 7.769h5.343l-4.917-8.327c2.361-.557 4.786-2.622 4.786-6.49m0 0c0-4.065-2.786-7.048-7.343-7.048h-10.228v21.865h4.655V9.4453h4.885c1.869 0 3.278 1.114 3.278 2.95s-1.409 2.95-3.278 2.95m43.4206 4.0652l3.409-9.408 3.41 9.408zm.492-14.063l-8.458 21.865h5.31l1.377-3.704h9.376l1.344 3.704h5.311l-8.425-21.865zm26.9039 17.7671h-3.967v-13.67h3.967c4.491 0 6.851 2.983 6.851 6.852 0 3.704-2.524 6.818-6.851 6.818m0-17.767h-8.622v21.865h8.622c6.851 0 11.604-4.327 11.604-10.916s-4.753-10.949-11.604-10.949m82.1269-.0045l-5.734 9.27-5.734-9.27h-5.146v21.869h4.656v-14.293l5.012 7.622c.574.871 1.851.871 2.424 0l5.013-7.622v14.293h4.656V5.3431z"/><path id="a" d="M95.8253 23.3441c-3.871 0-7.008-3.138-7.008-7.008 0-3.871 3.137-7.009 7.008-7.009 3.87 0 7.008 3.138 7.008 7.009 0 3.87-3.138 7.008-7.008 7.008m0-18.536c-6.367 0-11.528 5.161-11.528 11.528 0 6.366 5.161 11.527 11.528 11.527 6.366 0 11.528-5.161 11.528-11.527 0-6.367-5.162-11.528-11.528-11.528"/><path d="M176.4035 19.7269c-1.195 2.156-3.492 3.617-6.132 3.617-3.87 0-7.008-3.138-7.008-7.008 0-3.871 3.138-7.008 7.008-7.008 2.618 0 4.897 1.438 6.1 3.565l3.27-3.269c-2.092-2.915-5.508-4.816-9.37-4.816-6.367 0-11.527 5.161-11.527 11.528 0 6.366 5.16 11.528 11.527 11.528 3.883 0 7.316-1.922 9.404-4.865z"/><use transform="translate(98.718)" xlink:href="#a"/><ellipse cx="16.52" cy="16.497" fill="#cc092f" rx="16.236" ry="16.235"/><path fill="#fff" d="M30.8253 20.8832c-1.857-.74-3.557-.492-5.261.541 0 0-.621.379-.807.496-.794.498-1.543.97-2.263.97-.687 0-1.363-.184-1.649-1.513-.446-2.073-1.534-7.167-2.009-9.69-.279-1.483-.432-2.282-.591-2.825-.28-.954-.792-1.473-1.519-1.556 0 0-.114-.016-.207-.016-.092 0-.218.018-.218.018-.72.086-1.229.605-1.507 1.554-.159.543-.312 1.342-.591 2.825-.475 2.523-1.563 7.617-2.009 9.69-.286 1.329-.962 1.513-1.649 1.513-.72 0-1.469-.472-2.263-.97-.186-.117-.808-.496-.808-.496-1.703-1.033-3.404-1.281-5.26-.541-.401.16-.79596.33918-1.17196.52018.257.806.57693 1.59925.94993 2.34425.411-.202.84203-.40243 1.28203-.53243.634-.187 1.284-.197 1.914.014.612.205 1.157.568 1.7.909 1.023.643 2.182 1.372 3.657 1.372 2.186 0 3.72-1.305 4.21-3.581.38-1.764 1.222-5.702 1.763-8.418 0 0 1.386 6.654 1.765 8.418.49 2.276 2.025 3.581 4.211 3.581 1.475 0 2.634-.729 3.657-1.372.543-.341 1.088-.704 1.7-.909.629-.211 1.28-.201 1.914-.014.44.13.87039.33065 1.28139.53265.374-.745.69309-1.53862.95009-2.34462-.376-.181-.77048-.36003-1.17148-.52003"/><path d="M61.52464 41.57225c-.2512.31599-.5901.47348-1.01773.47348-.42763 0-.76853-.1575-1.02371-.47348-.25419-.31499-.38178-.76355-.38178-1.34568 0-.58113.1276-1.0297.38178-1.34568.25518-.31499.59608-.47348 1.0237-.47348.42764 0 .76655.1585 1.01774.47548.2512.31598.3768.76454.3768 1.34368 0 .58213-.1256 1.0307-.3768 1.34568zm.67484.78548c.52032-.49341.78149-1.20314.78149-2.13116 0-.94596-.26117-1.65668-.7815-2.13016-.39074-.4027-.95493-.60306-1.69256-.60306-.73863 0-1.30282.20035-1.69257.60306-.52332.47348-.78548 1.1842-.78548 2.13016 0 .92802.26216 1.63775.78548 2.13116.38975.40171.95394.60207 1.69257.60207.73763 0 1.30182-.20036 1.69257-.60207zm-1.69257-4.86438zm4.21148 1.50317h-1.02272v2.30261c0 .4366.05483.76754.16447.99182.19637.40669.57715.61004 1.14234.61004.19637 0 .36782-.02592.51335-.07775.14653-.05084.29705-.14653.45354-.28708.05184-.04486.0967-.0957.13357-.1545.03788-.05782.0608-.0937.06978-.10467v.53927h.97088v-3.81974h-1.01275v2.07833c0 .24521-.03289.44258-.09768.5921-.1266.27611-.35985.41367-.70075.41367-.26714 0-.44557-.09669-.53628-.29106-.05183-.10965-.07775-.27313-.07775-.49043zm.70175-.10167zm2.29463.84827h.53329v2.35146c0 .23823.05582.41466.16746.5293.17344.17942.49541.26116.9679.24521l.47248-.01794v-.7466a1.57585 1.57585 0 0 1-.09968.00597c-.0339.001-.0658.002-.0967.002-.20234 0-.32395-.01994-.36383-.05881-.03987-.03788-.0598-.13557-.0598-.29207v-2.01852h.62v-.71171h-.62v-1.06458h-.98783v1.06458h-.53329zm5.21326.38178c.13457.22627.20136.48743.20136.78149 0 .35785-.07277.64393-.2193.85825-.14553.2153-.35785.32296-.63596.32296-.19138 0-.35685-.05283-.4974-.1575-.23624-.18042-.35386-.49242-.35386-.936 0-.2801.03488-.51135.10466-.69376.13556-.3439.38476-.51535.7466-.51535.30104 0 .51934.11364.6539.3399zm.76754-.7187c-.31-.32894-.6878-.49341-1.13436-.49341-.30602 0-.57017.08473-.79146.25518-.1216.0957-.23624.22727-.3439.39274v-.56419h-.95593v5.32291h.98783v-1.9906c.10467.16148.21232.28408.32197.36881.20135.15151.45354.22727.75757.22727.47647 0 .86622-.17643 1.16825-.5293.30302-.35287.45454-.86522.45454-1.53806 0-.63795-.1555-1.1214-.46451-1.45134zm2.181-.40968h-1.02272v2.30261c0 .4366.05483.76754.16447.99182.19637.40669.57715.61004 1.14234.61004.19637 0 .36682-.02592.51335-.07775.14553-.05084.29704-.14653.45354-.28708.05184-.04486.0957-.0957.13357-.1545.03688-.05782.0608-.0937.06978-.10467v.53927h.97088v-3.81974h-1.01275v2.07833c0 .24521-.0329.44258-.09768.5921-.1266.27611-.35985.41367-.70175.41367-.26615 0-.44457-.09669-.53528-.29106-.05184-.10965-.07775-.27313-.07775-.49043zm.70075-.10167zm2.29563.84827h.53229v2.35146c0 .23823.05682.41466.16846.5293.17344.17942.4954.26116.9669.24521l.47348-.01794v-.7466a1.62198 1.62198 0 0 1-.09968.00597c-.0339.001-.0658.002-.0967.002-.20334 0-.32495-.01994-.36383-.05881-.03987-.03788-.0598-.13557-.0598-.29207v-2.01852h.62v-.71171h-.62v-1.06458h-.98883v1.06458h-.5323zm8.28042-2.09228l-.93201 4.06196-.93899-4.06196h-1.56996v5.16542h1.00577v-3.49378c0-.10068-.001-.24123-.00299-.42265-.00299-.18042-.00398-.31997-.00398-.41865l.97088 4.33508h1.04764l.97786-4.33508c0 .09868-.001.23823-.00399.41865-.002.18142-.00299.32197-.00299.42265v3.49378h1.00577v-5.16542zm4.5803 3.30838v.3718c-.00699.33394-.10068.5642-.2821.6898-.18042.12659-.37879.18938-.5941.18938-.13456 0-.2502-.03787-.34489-.11363-.0947-.07576-.14154-.19936-.14154-.36981 0-.19139.07675-.33293.23125-.42464.09071-.05383.24123-.09868.45155-.13656l.22428-.04187c.11264-.02093.20036-.04386.26515-.06778a1.10487 1.10487 0 0 0 .1904-.09669zm-.60606-.4665l-.33991.04186c-.38576.04984-.67782.13158-.87619.24621-.36184.21033-.54325.55024-.54325 1.01973 0 .36184.11263.64194.3389.8393.22528.19737.51037.29606.85626.29606.27113 0 .51435-.0618.72866-.1864.18042-.10467.33891-.23226.47747-.38178.00697.08672.01595.16347.0279.23126.01097.06778.0319.14055.0628.2173h1.08652v-.14753c-.0658-.0299-.11463-.06878-.14753-.11563-.0329-.04585-.05283-.13456-.0598-.26614-.004-.17245-.00698-.31997-.00698-.44158V40.094c0-.46052-.16248-.77352-.48644-.93998-.32496-.16547-.69677-.2482-1.11442-.2482-.64294 0-1.09648.16746-1.35964.50437-.16647.21531-.26016.48943-.2811.82336h.9639c.02393-.14753.06978-.26415.14056-.34988.09768-.11762.26515-.17543.50139-.17543.20933 0 .36881.0299.47746.08871.10866.05981.16348.16846.16348.32496 0 .12859-.07177.22229-.21431.28309-.07875.03588-.21132.0648-.39573.08772zm.05283-1.59787zm5.52426.32097c-.25119-.20734-.57415-.31-.96889-.31-.31498 0-.57615.07675-.78149.23125-.11463.08573-.23524.22727-.36383.42364v-.55721h-.9639v3.81276h.9948V40.7489c0-.23625.0329-.42962.09869-.58214.1256-.28707.35785-.43061.69676-.43061.27611 0 .46251.09768.5612.29405.05382.10766.08074.26216.08074.46252v2.32354h1.02271v-2.57174c0-.47947-.1256-.82236-.37679-1.0287zm-1.3367-.32097zm4.74177 2.06437v.3718c-.00697.33394-.10167.5642-.2821.6898-.1814.12659-.37977.18938-.59408.18938-.13557 0-.2512-.03787-.3449-.11363-.0947-.07576-.14254-.19936-.14254-.36981 0-.19139.07675-.33293.23126-.42464.0917-.05383.24222-.09868.45255-.13656l.22428-.04187c.11164-.02093.20035-.04386.26415-.06778.06479-.02492.12759-.05682.19138-.09669zm-.60605-.4665l-.3409.04186c-.38477.04984-.67683.13158-.8752.24621-.36283.21033-.54325.55024-.54325 1.01973 0 .36184.11263.64194.33791.8393.22528.19737.51136.29606.85625.29606.27113 0 .51435-.0618.72966-.1864.17942-.10467.33891-.23226.47647-.38178.00698.08672.01595.16347.02791.23126.01196.06778.0329.14055.0628.2173h1.08651v-.14753c-.06579-.0299-.11463-.06878-.14752-.11563-.0319-.04585-.05184-.13456-.05882-.26614-.00498-.17245-.00697-.31997-.00697-.44158V40.094c0-.46052-.16248-.77352-.48744-.93998-.32496-.16547-.69577-.2482-1.11442-.2482-.64294 0-1.09548.16746-1.35964.50437-.16547.21531-.25916.48943-.2801.82336h.9639c.02293-.14753.06978-.26415.13956-.34988.09868-.11762.26515-.17543.5014-.17543.21032 0 .3698.0299.47845.08871.10866.05981.16248.16846.16248.32496 0 .12859-.07077.22229-.21331.28309-.07975.03588-.21132.0648-.39573.08772zm.05183-1.59787zm4.672 2.8369c-.16148.17642-.35884.26414-.5931.26414-.34987 0-.59309-.16048-.72865-.48345-.07476-.17244-.11164-.3698-.11164-.5921 0-.25717.03488-.47248.10466-.64791.13357-.32995.3748-.49442.72567-.49442.25717 0 .46152.0947.61503.2841.1525.18938.22926.4645.22926.82733 0 .38477-.08074.66587-.24123.8423zm-.3399-2.73822c-.14255-.05881-.31001-.08772-.5014-.08772-.51833 0-.91905.19338-1.20214.58014-.28309.38576-.42364.86323-.42364 1.4314 0 .58812.14653 1.05462.4396 1.39951.29305.3449.6848.51734 1.17522.51734.31798 0 .57615-.07576.77451-.22827.10965-.08173.21332-.20434.30901-.36781v.2452c0 .36484-.03987.624-.11961.7785-.12161.24024-.36184.36085-.72169.36085-.25518 0-.4356-.04585-.54325-.13656-.0628-.05183-.10866-.13557-.13657-.2522h-1.0865c.03289.38079.20334.66687.51135.85825.309.19139.70673.28708 1.19516.28708.8084 0 1.35466-.2153 1.63974-.64493.16647-.2502.2492-.621.2492-1.11442v-3.62337h-.97088v.55024c-.14952-.26814-.3459-.45355-.58812-.55323zm-.18242-.09868zm3.6423 1.04066c.1276-.14454.30702-.2173.53828-.2173.21232 0 .39075.06877.53428.20534.14354.13656.22329.33691.24023.60107h-1.55301c.0329-.2482.11264-.44358.24023-.58911zm1.39652-.86223c-.25418-.11862-.54026-.17843-.85824-.17843-.53528 0-.96989.17643-1.3058.5293-.33493.35287-.5024.86024-.5024 1.52112 0 .70573.1854 1.2151.55722 1.52809.3708.313.80043.4695 1.28587.4695.5891 0 1.04664-.1864 1.37359-.55722.21032-.23425.32795-.4645.35386-.69078h-1.01972c-.05383.11264-.11563.20036-.1854.26315-.1286.11663-.29606.17544-.5014.17544-.19338 0-.35984-.04785-.4974-.14453-.22628-.15351-.34689-.42265-.36084-.80542h2.6136c.00499-.32994-.00498-.58213-.0309-.75757-.04485-.29904-.14154-.5612-.29106-.78847-.16547-.25617-.3758-.44457-.63098-.56418zm-.78846-.17843zm7.18094.11563c-.16347-.0648-.32994-.09769-.4984-.09769-.25219 0-.48045.05183-.6868.1575-.19337.10466-.35585.27013-.48643.4944-.07476-.1874-.1844-.3399-.32994-.45952-.17943-.12858-.41567-.19238-.70773-.19238-.30801 0-.5592.07476-.75358.22428-.10965.08373-.22627.22528-.34988.42364v-.55721h-.97088v3.81276h1.01275v-2.29862c0-.20833.02691-.36483.08074-.4695.09769-.1844.28907-.2771.57416-.2771.2452 0 .41068.0927.4944.2771.04686.10268.06978.26715.06978.49442v2.2737h1.00578v-2.2737c0-.17145.02691-.31698.08074-.4386.10566-.22926.29605-.3429.57116-.3429.23824 0 .40171.08872.49043.26615.04685.0927.07077.21232.07077.35686v2.43219h1.02272l.00698-2.40727c0-.2482-.01097-.4356-.0349-.5642-.03687-.19437-.10964-.35784-.2173-.49042-.13257-.16347-.2811-.2781-.44457-.3439zm2.5837.92503c.1276-.14454.30702-.2173.53828-.2173.21232 0 .39075.06877.53429.20534.14353.13656.22428.33691.24022.60107h-1.55201c.0319-.2482.11263-.44358.23923-.58911zm1.39653-.86223c-.25419-.11862-.54027-.17843-.85825-.17843-.53528 0-.96989.17643-1.30481.5293-.33592.35287-.50338.86024-.50338 1.52112 0 .70573.1854 1.2151.5572 1.52809.37181.313.80044.4695 1.28588.4695.5891 0 1.04664-.1864 1.37359-.55722.21032-.23425.32894-.4645.35386-.69078h-1.01972c-.05283.11264-.11563.20036-.1854.26315-.1286.11663-.29506.17544-.5014.17544-.19338 0-.35984-.04785-.4974-.14453-.22628-.15351-.34689-.42265-.36084-.80542h2.6146c.00399-.32994-.00598-.58213-.0319-.75757-.04385-.29904-.14154-.5612-.29106-.78847-.16547-.25617-.3758-.44457-.63097-.56418zm-.78847-.17843zm5.50034.32097c-.2512-.20734-.57416-.31-.9689-.31-.31498 0-.57614.07675-.78148.23125-.11463.08573-.23624.22727-.36383.42364v-.55721h-.96391v3.81276h.9948V40.7489c0-.23625.0329-.42962.09869-.58214.1256-.28707.35785-.43061.69676-.43061.27612 0 .46252.09768.5612.29405.05383.10766.08074.26216.08074.46252v2.32354h1.02272v-2.57174c0-.47947-.1256-.82236-.3768-1.0287zm-1.33671-.32097zm2.2428.84827h.5323v2.35146c0 .23823.0568.41466.16845.5293.17344.17942.49541.26116.9669.24521l.47348-.01794v-.7466a1.62198 1.62198 0 0 1-.09968.00597c-.0339.001-.0658.002-.0967.002-.20334 0-.32495-.01994-.36383-.05881-.03987-.03788-.0598-.13557-.0598-.29207v-2.01852h.62v-.71171h-.62v-1.06458h-.98883v1.06458h-.53229zm7.8817-2.09228l-1.13237 3.92141-1.1214-3.9214h-1.1533l1.7454 5.1654h1.01973l1.76334-5.1654zm2.7083.89014v-.92204h-1.01275v.92204zm-1.01275.45554v3.81974h1.01275v-3.81974zm2.94954.93899c.12659-.14454.30601-.2173.53727-.2173.21332 0 .39075.06877.53429.20534.14453.13656.22428.33691.24022.60107h-1.55201c.0329-.2482.11264-.44358.24023-.58911zm1.39651-.86223c-.25518-.11862-.54126-.17843-.85924-.17843-.53428 0-.96989.17643-1.30481.5293-.33592.35287-.50338.86024-.50338 1.52112 0 .70573.1864 1.2151.5572 1.52809.37181.313.80044.4695 1.28588.4695.5891 0 1.04664-.1864 1.37459-.55722.20932-.23425.32794-.4645.35386-.69078h-1.01973c-.05382.11264-.11563.20036-.1864.26315-.12859.11663-.29505.17544-.5004.17544-.19437 0-.35984-.04785-.4984-.14453-.22627-.15351-.34688-.42265-.36083-.80542h2.6146c.00499-.32994-.00598-.58213-.0319-.75757-.04385-.29904-.14154-.5612-.29106-.78847-.16547-.25617-.3758-.44457-.62998-.56418zm-.78847-.17843zm4.21547.10167l-.55023 2.7402-.59609-2.7402h-1.07256l1.07256 3.81974h1.03767l.60605-2.78207.59908 2.78207h1.0267l1.10745-3.81974h-1.04066l-.59609 2.75117-.58113-2.75117zm3.98421-.72168h.76455v1.97665h.75657v-1.97665h.77451v-.624h-2.29563zm3.60642-.624h-1.07953v2.60065h.68978v-1.88594l.5642 1.88594h.5891l.56419-1.88594v1.88594h.69078v-2.60065h-1.07953l-.4665 1.4962zm6.94172-.04685c-.05084-.00399-.10865-.00598-.17145-.00598-.55422 0-.9031.11463-1.04764.3439-.13855.1545-.20733.4356-.20733.84429v.24521h-.54625v.70474h.55721v3.0801h.9948v-3.0801h.6559v-.70474h-.6559v-.32197c0-.07476.02493-.14354.07577-.20534.04984-.0618.14154-.0907.27312-.08772.13257.004.22627.00898.2821.01595v-.81339c-.08872-.00697-.1585-.01196-.21033-.01495zm3.19574 4.19653c-.1565.20733-.38078.312-.67284.312s-.51634-.10467-.67384-.312c-.15849-.20833-.23724-.50338-.23724-.88715 0-.38277.07875-.67783.23724-.88516.1575-.20634.38178-.31.67384-.31s.51634.10366.67284.31c.1565.20733.23524.50239.23524.88516 0 .38377-.07874.67882-.23524.88715zm.79943.55123c.32197-.39772.48345-.87718.48345-1.43838 0-.55123-.16148-1.0287-.48345-1.4334-.32196-.4037-.8114-.60605-1.46828-.60605-.6569 0-1.14632.20235-1.46829.60605-.32296.4047-.48345.88217-.48345 1.4334 0 .5612.16049 1.04066.48345 1.43838.32197.39872.8114.59808 1.46829.59808.65689 0 1.14632-.19936 1.46828-.59808zm-1.46828-3.4569zm4.78862.01196c-.01296-.001-.0289-.001-.04685-.001-.29904 0-.54226.07775-.72965.23425-.11464.0937-.2482.26814-.40271.52232v-.66586h-.95294v3.81974h1.00577v-1.82514c0-.30702.03788-.53329.11563-.68082.13756-.26116.40769-.39174.8094-.39174.0299 0 .06978.001.11862.003.04984.00298.10566.00697.16846.01395v-1.02272c-.04386-.00299-.07277-.00399-.08573-.00598zm2.44814.9031h1.82514l-1.9587 2.22885v.7775h3.2974v-.82037h-2.00456l1.93878-2.16903v-.83034h-3.09806zm1.54903-.91506zm3.39909-1.4015l-2.00158 5.3229h.82436l2.00755-5.3229zm4.2344 4.0789c-.25119.31599-.5901.47348-1.01773.47348-.42762 0-.76853-.1575-1.02271-.47348-.25518-.31499-.38278-.76355-.38278-1.34568 0-.58113.1276-1.0297.38278-1.34568.25418-.31499.59509-.47348 1.02271-.47348.42763 0 .76654.1585 1.01774.47548.25119.31598.37679.76454.37679 1.34368 0 .58213-.1256 1.0307-.3768 1.34568zm.67484.78548c.52133-.49341.78149-1.20314.78149-2.13116 0-.94596-.26016-1.65668-.7815-2.13016-.38974-.4027-.95393-.60306-1.69256-.60306-.73863 0-1.30281.20035-1.69256.60306-.52332.47348-.78449 1.1842-.78449 2.13016 0 .92802.26117 1.63775.78449 2.13116.38975.40171.95393.60207 1.69256.60207.73863 0 1.30282-.20036 1.69257-.60207zm-1.69257-4.86438zm4.0789 3.72903h-1.02969c0 .53727.19239.95892.57815 1.26593.38476.30801.91406.46152 1.5869.46152.65889 0 1.16925-.1565 1.5301-.4685.36083-.311.54125-.70374.54125-1.17522 0-.46052-.1545-.8124-.46251-1.05462-.19836-.1565-.49342-.2821-.88317-.3748l-.89014-.2143c-.3429-.08174-.56718-.15252-.67284-.21332-.16347-.0917-.24521-.22927-.24521-.41367 0-.20136.08273-.35785.2492-.4695.16547-.11263.38775-.16846.66586-.16846.2492 0 .45853.04287.62699.12959.25219.13058.38775.35187.4067.66187h1.03666c-.01794-.54824-.22029-.9669-.60406-1.25596-.38476-.28808-.84827-.43262-1.39352-.43262-.65091 0-1.14533.15252-1.48224.45853-.33593.30702-.50438.69079-.50438 1.1533 0 .50737.17444.88017.52232 1.11841.20534.14254.57715.27412 1.11442.39573l.54625.1226c.31997.06978.55521.15052.70473.24223.14952.0927.22428.22528.22428.39573 0 .29206-.15051.49142-.45254.59907-.1585.05583-.36483.08374-.62001.08374-.42464 0-.72567-.10566-.90011-.31898-.0957-.11663-.16049-.29306-.19338-.5283zm1.04765-3.72903z"/></svg>