<svg xmlns="http://www.w3.org/2000/svg" role="img" xmlns:xlink="http://www.w3.org/1999/xlink" viewBox="-4.53 -4.53 248.82 57.57"><path d="M237.32 9.09c-1.06 0-1.93-.86-1.93-1.92s.87-1.93 1.93-1.93 1.93.87 1.93 1.93-.87 1.92-1.93 1.92m0-4.32c-1.32 0-2.4 1.08-2.4 2.4 0 1.32 1.08 2.4 2.4 2.4 1.32 0 2.4-1.08 2.4-2.4 0-1.32-1.08-2.4-2.4-2.4"/><path d="M237.48 7.07l-.51.01-.01-.62h.51c.19-.01.34.11.34.3.01.19-.14.31-.33.31m.83-.32c-.01-.42-.3-.72-.77-.72l-1.07.02.03 2.26h.49l-.01-.81h.35l.46.8.55-.01-.52-.86c.24-.06.49-.28.49-.68M51.8341 23.1805h-5.999V9.3465h5.835c1.574 0 2.557 1.016 2.557 2.393 0 1.377-.983 2.36-2.557 2.36H45v4h6.8341c1.836 0 2.819 1.18 2.819 2.556 0 1.574-1.049 2.525-2.819 2.525m3.376-7.245c2.066-.426 3.771-2.262 3.771-5.015 0-2.918-2.131-5.573-6.295-5.573h-11.506v21.865h11.867c4.163 0 6.359-2.623 6.359-5.901 0-2.754-1.868-5.015-4.196-5.376m17.8225-.5902H68v4.098h3.5576l4.294 7.769h5.343l-4.917-8.327c2.361-.557 4.786-2.622 4.786-6.49m0 0c0-4.065-2.786-7.048-7.343-7.048h-10.228v21.865h4.655V9.4453h4.885c1.869 0 3.278 1.114 3.278 2.95s-1.409 2.95-3.278 2.95m43.4206 4.0652l3.409-9.408 3.41 9.408zm.492-14.063l-8.458 21.865h5.31l1.377-3.704h9.376l1.344 3.704h5.311l-8.425-21.865zm26.9039 17.7671h-3.967v-13.67h3.967c4.491 0 6.851 2.983 6.851 6.852 0 3.704-2.524 6.818-6.851 6.818m0-17.767h-8.622v21.865h8.622c6.851 0 11.604-4.327 11.604-10.916s-4.753-10.949-11.604-10.949m82.1269-.0045l-5.734 9.27-5.734-9.27h-5.146v21.869h4.656v-14.293l5.012 7.622c.574.871 1.851.871 2.424 0l5.013-7.622v14.293h4.656V5.3431z"/><path id="a" d="M95.8253 23.3441c-3.871 0-7.008-3.138-7.008-7.008 0-3.871 3.137-7.009 7.008-7.009 3.87 0 7.008 3.138 7.008 7.009 0 3.87-3.138 7.008-7.008 7.008m0-18.536c-6.367 0-11.528 5.161-11.528 11.528 0 6.366 5.161 11.527 11.528 11.527 6.366 0 11.528-5.161 11.528-11.527 0-6.367-5.162-11.528-11.528-11.528"/><path d="M176.4035 19.7269c-1.195 2.156-3.492 3.617-6.132 3.617-3.87 0-7.008-3.138-7.008-7.008 0-3.871 3.138-7.008 7.008-7.008 2.618 0 4.897 1.438 6.1 3.565l3.27-3.269c-2.092-2.915-5.508-4.816-9.37-4.816-6.367 0-11.527 5.161-11.527 11.528 0 6.366 5.16 11.528 11.527 11.528 3.883 0 7.316-1.922 9.404-4.865z"/><use transform="translate(98.718)" xlink:href="#a"/><ellipse cx="16.52" cy="16.497" fill="#cc092f" rx="16.236" ry="16.235"/><path fill="#fff" d="M30.8253 20.8832c-1.857-.74-3.557-.492-5.261.541 0 0-.621.379-.807.496-.794.498-1.543.97-2.263.97-.687 0-1.363-.184-1.649-1.513-.446-2.073-1.534-7.167-2.009-9.69-.279-1.483-.432-2.282-.591-2.825-.28-.954-.792-1.473-1.519-1.556 0 0-.114-.016-.207-.016-.092 0-.218.018-.218.018-.72.086-1.229.605-1.507 1.554-.159.543-.312 1.342-.591 2.825-.475 2.523-1.563 7.617-2.009 9.69-.286 1.329-.962 1.513-1.649 1.513-.72 0-1.469-.472-2.263-.97-.186-.117-.808-.496-.808-.496-1.703-1.033-3.404-1.281-5.26-.541-.401.16-.79596.33918-1.17196.52018.257.806.57693 1.59925.94993 2.34425.411-.202.84203-.40243 1.28203-.53243.634-.187 1.284-.197 1.914.014.612.205 1.157.568 1.7.909 1.023.643 2.182 1.372 3.657 1.372 2.186 0 3.72-1.305 4.21-3.581.38-1.764 1.222-5.702 1.763-8.418 0 0 1.386 6.654 1.765 8.418.49 2.276 2.025 3.581 4.211 3.581 1.475 0 2.634-.729 3.657-1.372.543-.341 1.088-.704 1.7-.909.629-.211 1.28-.201 1.914-.014.44.13.87039.33065 1.28139.53265.374-.745.69309-1.53862.95009-2.34462-.376-.181-.77048-.36003-1.17148-.52003"/><path d="M26.33926 43.95009c-.39068.49144-.91778.7364-1.58286.7364-.66508 0-1.19528-.24496-1.59216-.7364-.39532-.4899-.59376-1.18753-.59376-2.0929 0-.90383.19844-1.60147.59376-2.09291.39688-.4899.92708-.7364 1.59216-.7364s1.19218.2465 1.58286.7395c.39067.49144.58601 1.18908.58601 2.0898 0 .90538-.19534 1.60301-.58601 2.0929zm1.04955 1.22164c.80926-.7674 1.21544-1.87122 1.21544-3.31455 0-1.47123-.40618-2.5766-1.21544-3.31299-.60772-.62632-1.48519-.93793-2.6324-.93793-1.14878 0-2.02625.31161-2.63242.93793-.8139.7364-1.22163 1.84176-1.22163 3.313 0 1.44332.40773 2.54714 1.22163 3.31454.60617.62477 1.48364.93638 2.63241.93638 1.14722 0 2.0247-.31161 2.63241-.93638zm-2.6324-7.56547zm6.55001 2.33785h-1.5906v3.5812c0 .67903.08526 1.19373.2558 1.54255.3054.63252.89762.94878 1.77664.94878.3054 0 .57206-.0403.7984-.12092.2279-.07907.46199-.2279.70539-.4465.08061-.06975.15038-.14882.20774-.24029.0589-.08991.09456-.14573.10852-.16278v.83871h1.50999v-5.94075h-1.5751v3.23238c0 .38137-.05116.68833-.15193.92088-.1969.42943-.55966.64337-1.08987.64337-.41548 0-.69298-.15038-.83406-.45269-.08061-.17053-.12092-.42478-.12092-.76274zm1.09141-.15813zm3.5688 1.3193h.8294v3.65717c0 .37052.08682.64492.26045.8232.26975.27906.7705.40618 1.50534.38138l.73485-.0279v-1.16118a2.45089 2.45089 0 0 1-.15503.0093c-.05271.00155-.10232.0031-.15038.0031-.31471 0-.50385-.031-.56586-.09147-.06201-.0589-.09302-.21084-.09302-.45423v-3.13936h.96429v-1.10692h-.9643v-1.65572h-1.53634v1.65572h-.8294zm8.10806.59377c.2093.35192.31316.7581.31316 1.21544 0 .55656-.11317 1.0015-.34106 1.3348-.22635.33487-.55656.5023-.9891.5023-.29765 0-.555-.08216-.7736-.24494-.36742-.2806-.55035-.76585-.55035-1.45574 0-.43563.05426-.7953.16278-1.079.21084-.53486.59841-.8015 1.16117-.8015.4682 0 .80771.17673 1.017.52864zm1.19373-1.11776c-.48214-.5116-1.0697-.7674-1.76424-.7674-.47594 0-.88677.13177-1.23094.39688-.18913.14882-.36742.35346-.53485.61081v-.87747h-1.48674v8.2786H41.788v-3.09594c.16278.25115.33021.44183.50075.5736.31316.23565.70538.35348 1.17822.35348.74105 0 1.34721-.2744 1.81695-.82321.4713-.54881.70694-1.34566.70694-2.39212 0-.99219-.24185-1.74408-.72244-2.25723zm3.39206-.63718h-1.59061v3.5812c0 .67903.08527 1.19373.2558 1.54255.3054.63252.89762.94878 1.77664.94878.30541 0 .57051-.0403.7984-.12092.22635-.07907.462-.2279.7054-.4465.08061-.06975.14882-.14882.20773-.24029.05737-.08991.09457-.14573.10853-.16278v.83871h1.50999v-5.94075h-1.5751v3.23238c0 .38137-.05117.68833-.15194.92088-.19688.42943-.55965.64337-1.0914.64337-.41394 0-.69144-.15038-.83252-.45269-.08061-.17053-.12092-.42478-.12092-.76274zm1.08986-.15813zm3.57034 1.3193h.82786v3.65717c0 .37052.08837.64492.262.8232.26975.27906.7705.40618 1.5038.38138l.73638-.0279v-1.16118a2.52262 2.52262 0 0 1-.15503.0093c-.0527.00155-.10232.0031-.15037.0031-.31627 0-.5054-.031-.56586-.09147-.06202-.0589-.09302-.21084-.09302-.45423v-3.13936h.96428v-1.10692h-.96428v-1.65572h-1.5379v1.65572h-.82786zm12.87834-3.25407l-1.44953 6.31747-1.46038-6.31747h-2.44172v8.03365h1.56425v-5.4338c0-.15658-.00155-.37517-.00465-.65733-.00465-.2806-.0062-.49764-.0062-.65112l1.50999 6.74225h1.62936l1.52085-6.74225c0 .15348-.00155.37052-.0062.65112-.0031.28216-.00465.50075-.00465.65733v5.4338h1.56425v-8.03365zm7.12363 5.14544v.57827c-.01085.51935-.15658.87747-.43873 1.0728-.2806.1969-.58912.29456-.92398.29456-.2093 0-.38913-.05891-.5364-.17673-.14729-.11783-.22015-.31006-.22015-.57516 0-.29766.11937-.5178.35967-.66043.14108-.08372.37517-.15348.70229-.2124l.34881-.0651c.17519-.03256.31161-.06822.41238-.10543.09922-.03875.19844-.08836.29611-.15038zm-.94258-.72554l-.52865.06512c-.59997.07751-1.0542.20464-1.36272.38292-.56276.32711-.84491.85577-.84491 1.58596 0 .56276.17518.9984.5271 1.30535.35037.30696.79375.46044 1.3317.46044.42169 0 .79996-.09612 1.13328-.2899.2806-.16279.5271-.36123.7426-.59377.01084.13487.0248.25425.0434.35967.01705.10542.0496.21859.09767.33796h1.68983v-.22944c-.10232-.04651-.17829-.10697-.22945-.17984-.05116-.07131-.08216-.20929-.09302-.41393-.0062-.2682-.01085-.49764-.01085-.68678V41.651c0-.71623-.2527-1.20303-.75655-1.46193-.5054-.25735-1.08366-.38602-1.73323-.38602-.99994 0-1.70533.26045-2.11461.78445-.2589.33486-.40463.7612-.43718 1.28055h1.49914c.0372-.22945.10852-.41083.21859-.54416.15193-.18293.41238-.27285.7798-.27285.32556 0 .57361.0465.7426.13797.16898.09302.25424.262.25424.5054 0 .2-.11162.34572-.33331.44029-.12248.0558-.32867.10077-.61547.13642zm.08216-2.48513zm8.59177.4992c-.39068-.32246-.89298-.48214-1.5069-.48214-.48989 0-.89607.11937-1.21543.35967-.17828.13332-.36587.35346-.56586.65887v-.86661h-1.49914v5.9299h1.5472v-3.21533c0-.36742.05116-.66818.15348-.90537.19534-.4465.55656-.66973 1.08366-.66973.42943 0 .71934.15193.87282.45733.08371.16744.12557.40773.12557.71934v3.61375h1.59061V41.8851c0-.7457-.19534-1.279-.58601-1.59991zm-2.07896-.4992zm7.37478 3.21067v.57827c-.01085.51935-.15813.87747-.43873 1.0728-.28216.1969-.59067.29456-.92398.29456-.21084 0-.39068-.05891-.5364-.17673-.14728-.11783-.2217-.31006-.2217-.57516 0-.29766.11937-.5178.35967-.66043.14263-.08372.37672-.15348.70384-.2124l.34881-.0651c.17364-.03256.31161-.06822.41083-.10543.10077-.03875.19844-.08836.29766-.15038zm-.94258-.72554l-.5302.06512c-.59842.07751-1.05266.20464-1.36117.38292-.5643.32711-.84491.85577-.84491 1.58596 0 .56276.17518.9984.52555 1.30535.35037.30696.7953.46044 1.3317.46044.42169 0 .79996-.09612 1.13483-.2899.27905-.16279.5271-.36123.74104-.59377.01085.13487.0248.25425.04341.35967.0186.10542.05116.21859.09767.33796h1.68983v-.22944c-.10232-.04651-.17829-.10697-.22945-.17984-.0496-.07131-.08061-.20929-.09147-.41393-.00775-.2682-.01085-.49764-.01085-.68678V41.651c0-.71623-.2527-1.20303-.7581-1.46193-.5054-.25735-1.0821-.38602-1.73323-.38602-.99994 0-1.70378.26045-2.1146.78445-.25736.33486-.40309.7612-.43564 1.28055h1.49914c.03565-.22945.10852-.41083.21704-.54416.15348-.18293.41238-.27285.7798-.27285.32711 0 .57516.0465.74414.13797.16899.09302.2527.262.2527.5054 0 .2-.11007.34572-.33176.44029-.12403.0558-.32867.10077-.61547.13642zm.08061-2.48513zm7.26626 4.41216c-.25115.2744-.5581.41083-.92243.41083-.54415 0-.92243-.2496-1.13327-.7519-.11627-.2682-.17363-.57516-.17363-.92088 0-.39997.05426-.73484.16278-1.0077.20774-.51314.58291-.76894 1.12862-.76894.39998 0 .71779.14728.95653.44183.2372.29456.35657.72244.35657 1.28675 0 .59842-.12557 1.0356-.37517 1.31zm-.52865-4.25868c-.2217-.09146-.48214-.13642-.7798-.13642-.80616 0-1.42938.30075-1.86966.90227-.44029.59997-.65888 1.34256-.65888 2.22623 0 .91468.2279 1.64022.68368 2.17662.45579.5364 1.06506.8046 1.8278.8046.49455 0 .89608-.11781 1.20459-.35501.17053-.12712.33176-.31781.48059-.57206v.38137c0 .56741-.06201.9705-.18604 1.21079-.18913.37362-.56275.5612-1.12241.5612-.39688 0-.67748-.0713-.84492-.21239-.09767-.08061-.16898-.21084-.21239-.39222H89.0582c.05116.59221.31626 1.03715.7953 1.3348.4806.29766 1.09916.4465 1.8588.4465 1.2573 0 2.10687-.33487 2.55025-1.00305.2589-.38913.38758-.96584.38758-1.73324v-5.63534h-1.51v.85577c-.23254-.41703-.53795-.70539-.91467-.86042zm-.2837-.15348zm5.66479 1.61852c.19844-.2248.4775-.33797.83716-.33797.33022 0 .60772.10697.83096.31936.22325.2124.34727.524.37362.93483h-2.41536c.05116-.38602.17518-.68988.37362-.91622zm2.17197-1.34101c-.39533-.18449-.84026-.2775-1.3348-.2775-.83252 0-1.50845.2744-2.0309.8232-.5209.5488-.78135 1.33791-.78135 2.36576 0 1.09761.28835 1.88982.86662 2.37661.5767.4868 1.24489.7302 1.99988.7302.91623 0 1.62782-.28991 2.13632-.86663.3271-.36432.51004-.72244.55035-1.07435H99.5987c-.08372.17518-.17984.3116-.28836.40927-.19999.18139-.46044.27286-.7798.27286-.30076 0-.55966-.07442-.7736-.2248-.35192-.23874-.5395-.65732-.56121-1.25264h4.06489c.00775-.51315-.00775-.90537-.04806-1.17823-.06977-.46509-.22015-.87282-.45269-1.22628-.25735-.39843-.58446-.69144-.98134-.87747zm-1.22629-.2775zm11.16836.17983c-.25425-.10077-.51315-.15193-.77515-.15193-.39222 0-.74724.08061-1.06815.24495-.30076.16278-.55346.42013-.75655.76894-.11627-.29145-.2868-.52865-.51315-.71468-.27905-.2-.64647-.29921-1.10071-.29921-.47904 0-.86972.11627-1.17203.34882-.17053.13022-.35192.35036-.54415.65887v-.86661h-1.51v5.9299h1.5751v-3.575c0-.32401.04187-.5674.12558-.73019.15193-.2868.44959-.43098.89298-.43098.38137 0 .63872.14417.76894.43098.07287.15968.10853.41548.10853.76895v3.53623h1.56425v-3.53623c0-.26665.04186-.493.12557-.68213.16433-.35657.46044-.5333.88832-.5333.37053 0 .62478.13797.76275.41392.07287.14418.11007.33022.11007.55501v3.78273h1.59061l.01085-3.74397c0-.38603-.01705-.67748-.05426-.87747-.05736-.30231-.17053-.55656-.33796-.76275-.2062-.25425-.43719-.43253-.69144-.53485zm4.01838 1.43868c.19844-.2248.4775-.33797.83716-.33797.33022 0 .60772.10697.83096.31936.22325.2124.34882.524.37363.93483h-2.41382c.0496-.38602.17518-.68988.37207-.91622zm2.17197-1.34101c-.39532-.18449-.84026-.2775-1.3348-.2775-.83252 0-1.50845.2744-2.02935.8232-.52245.5488-.7829 1.33791-.7829 2.36576 0 1.09761.28836 1.88982.86662 2.37661.57826.4868 1.24489.7302 1.99988.7302.91623 0 1.62782-.28991 2.13632-.86663.32711-.36432.5116-.72244.55035-1.07435h-1.58595c-.08217.17518-.17984.3116-.28836.40927-.19999.18139-.45889.27286-.7798.27286-.30076 0-.55966-.07442-.7736-.2248-.35192-.23874-.5395-.65732-.5612-1.25264h4.06643c.0062-.51315-.0093-.90537-.04961-1.17823-.06821-.46509-.22014-.87282-.45269-1.22628-.25735-.39843-.58446-.69144-.98134-.87747zm-1.22629-.2775zm8.55456.49919c-.39068-.32246-.89297-.48214-1.5069-.48214-.48989 0-.89607.11937-1.21543.35967-.17828.13332-.36742.35346-.56586.65887v-.86661h-1.49914v5.9299h1.5472v-3.21533c0-.36742.05116-.66818.15348-.90537.19534-.4465.55656-.66973 1.08366-.66973.42944 0 .71934.15193.87282.45733.08372.16744.12558.40773.12558.71934v3.61375h1.5906V41.8851c0-.7457-.19533-1.279-.58601-1.59991zm-2.07895-.4992zm3.48817 1.3193h.82786v3.65717c0 .37052.08837.64492.262.8232.26976.27906.7705.40618 1.5038.38138l.73639-.0279v-1.16118a2.52262 2.52262 0 0 1-.15503.0093c-.05271.00155-.10232.0031-.15038.0031-.31626 0-.5054-.031-.56586-.09147-.06201-.0589-.09302-.21084-.09302-.45423v-3.13936h.96429v-1.10692h-.96429v-1.65572h-1.5379v1.65572h-.82786zm8.77005 2.30065h-1.60301c0 .83562.2992 1.4914.89917 1.96888.59997.47905 1.42318.7178 2.46963.7178 1.02475 0 1.81695-.2434 2.37816-.72865.56121-.4837.84181-1.0945.84181-1.8278 0-.71624-.23874-1.2635-.71933-1.64022-.30851-.2434-.76585-.43873-1.37357-.58291l-1.38442-.33332c-.5333-.12712-.88212-.2372-1.04645-.33176-.25425-.14263-.38137-.35657-.38137-.64337 0-.31317.13022-.55656.38757-.7302.25735-.17518.60307-.262 1.0356-.262.38913 0 .71469.06667.97514.20154.39223.2031.60307.54726.63252 1.0294h1.61386c-.02945-.85266-.34261-1.50379-.94103-1.95338-.59686-.44803-1.3193-.67283-2.16577-.67283-1.0139 0-1.78284.2372-2.3053.71314-.524.4775-.786 1.07436-.786 1.7937 0 .7891.2713 1.36891.81236 1.73944.32091.22169.89763.42633 1.73324.61546l.85111.1907c.49765.10851.86197.23409 1.09451.37671.23255.14418.34882.35037.34882.61547 0 .45424-.2341.7643-.70228.93173-.24805.08682-.56896.13023-.9643.13023-.66197 0-1.12861-.16433-1.40146-.4961-.14883-.18138-.2496-.45579-.29921-.82166zm1.62936-5.79967zm8.2538 4.0928c.2093.35191.31316.75809.31316 1.21543 0 .55656-.11317 1.0015-.33951 1.3348-.2279.33487-.55811.5023-.9891.5023-.2992 0-.55655-.08216-.77514-.24494-.36588-.2806-.55036-.76585-.55036-1.45574 0-.43563.05426-.7953.16433-1.079.21084-.53486.59687-.8015 1.16118-.8015.46819 0 .80615.17673 1.01544.52864zm1.19373-1.11777c-.48059-.5116-1.0697-.7674-1.76269-.7674-.47594 0-.88677.13177-1.23249.39688-.18913.14882-.36587.35346-.5333.61081v-.87747h-1.48829v8.2786h1.53635v-3.09594c.16433.25115.33176.44183.5023.5736.3116.23565.70538.35348 1.17667.35348.74105 0 1.34722-.2744 1.8185-.82321.46975-.54881.7054-1.34566.7054-2.39212 0-.99219-.2403-1.74408-.72245-2.25723zm5.55628 3.72382c-.2434.32246-.59222.48524-1.04645.48524-.45424 0-.80306-.16278-1.048-.48524-.2465-.32402-.36898-.7829-.36898-1.37977 0-.59531.12248-1.0542.36897-1.37667.24495-.3209.59377-.48214 1.048-.48214.45424 0 .80306.16123 1.04646.48214.2434.32247.36587.78136.36587 1.37667 0 .59687-.12247 1.05575-.36587 1.37977zm1.24334.85731c.50075-.61857.7519-1.36426.7519-2.23708 0-.85732-.25115-1.5999-.7519-2.22933-.5023-.62787-1.2635-.94258-2.2836-.94258-1.02164 0-1.78284.3147-2.28358.94258-.5023.62942-.7519 1.37201-.7519 2.22933 0 .87282.2496 1.61851.7519 2.23708.50074.62012 1.26194.93018 2.28359.93018 1.0201 0 1.7813-.31006 2.28359-.93018zm-2.2836-5.37644zm7.85848 4.51913c-.2434.32246-.59222.48524-1.04645.48524-.45424 0-.80306-.16278-1.048-.48524-.2465-.32402-.36898-.7829-.36898-1.37977 0-.59531.12247-1.0542.36897-1.37667.24495-.3209.59377-.48214 1.048-.48214.45424 0 .80306.16123 1.04646.48214.2434.32247.36587.78136.36587 1.37667 0 .59687-.12248 1.05575-.36587 1.37977zm1.24334.85731c.50075-.61857.7519-1.36426.7519-2.23708 0-.85732-.25115-1.5999-.7519-2.22933-.50075-.62787-1.2635-.94258-2.2836-.94258-1.02164 0-1.78284.3147-2.28359.94258-.5023.62942-.7519 1.37201-.7519 2.22933 0 .87282.2496 1.61851.7519 2.23708.50075.62012 1.26195.93018 2.2836.93018 1.0201 0 1.78284-.31006 2.28359-.93018zm-2.2836-5.37644zm5.73302 6.09888v-8.03365h-1.5534v8.03365zm1.83245-7.06316h1.18753v3.07424h1.17668V38.8217h1.20458v-.9705h-3.56879zm5.60744-.9705h-1.67898v4.04474h1.07436v-2.93317l.87747 2.93317h.91623l.87747-2.93317v2.93317h1.0728v-4.04473h-1.67897l-.724 2.327zm10.79784-.07286c-.08062-.0062-.16899-.0093-.2682-.0093-.86042 0-1.40458.17829-1.62937.53486-.21394.2403-.32091.67748-.32091 1.3131v.38137h-.85112v1.09607h.86662v4.79042h1.54875v-4.79042h1.01855v-1.09607h-1.01855v-.50074c0-.11628.03876-.22325.11627-.31936.07907-.09612.22014-.14108.42633-.13643.20464.0062.35037.01395.43874.0248V37.8016c-.13953-.01085-.24805-.0186-.32711-.02326zm4.97026 6.52677c-.2434.32246-.59222.48524-1.04646.48524-.45423 0-.8046-.16278-1.04955-.48524-.24495-.32402-.36742-.7829-.36742-1.37977 0-.59531.12247-1.0542.36742-1.37667.24495-.3209.59532-.48214 1.04955-.48214.45424 0 .80306.16123 1.04646.48214.2434.32247.36432.78136.36432 1.37667 0 .59687-.12093 1.05575-.36432 1.37977zm1.24179.85731c.5023-.61857.75344-1.36426.75344-2.23708 0-.85732-.25115-1.5999-.75344-2.22933-.50075-.62787-1.26195-.94258-2.2836-.94258-1.0201 0-1.78129.3147-2.28359.94258-.50074.62942-.7519 1.37201-.7519 2.22933 0 .87282.25116 1.61851.7519 2.23708.5023.62012 1.2635.93018 2.2836.93018 1.02164 0 1.78284-.31006 2.28359-.93018zm-2.2836-5.37644zm7.44765.0186c-.0186-.00154-.04341-.00154-.07287-.00154-.46509 0-.84336.12092-1.13327.36432-.17828.14573-.38757.41703-.62787.81235v-1.0356h-1.48209v5.94075h1.56426v-2.8386c0-.47749.06046-.8294.17983-1.05885.21394-.40618.63407-.60927 1.25885-.60927.04806 0 .11007.00155.18603.00465.07597.00465.16278.01085.262.0217v-1.5906c-.06976-.00465-.11472-.0062-.13487-.0093zm3.80753 1.40458h2.84015l-3.04634 3.46647v1.20923h5.1284v-1.2759h-3.11766l3.01379-3.37345v-1.2914h-4.81834zm2.40917-1.42318zm5.28652-2.17972l-3.11145 8.2786h1.28055l3.1223-8.2786zm6.58723 6.34383c-.39068.49144-.91933.7364-1.58286.7364-.66508 0-1.19683-.24496-1.59216-.7364-.39532-.4899-.59376-1.18753-.59376-2.0929 0-.90383.19844-1.60147.59376-2.09291.39533-.4899.92708-.7364 1.59216-.7364.66353 0 1.19218.2465 1.58286.7395.39067.49144.58601 1.18908.58601 2.0898 0 .90538-.19534 1.60301-.58601 2.0929zm1.04955 1.22164c.80926-.7674 1.21544-1.87122 1.21544-3.31455 0-1.47123-.40618-2.5766-1.21544-3.31299-.60772-.62632-1.48519-.93793-2.6324-.93793-1.14878 0-2.02625.31161-2.63242.93793-.8139.7364-1.22163 1.84176-1.22163 3.313 0 1.44332.40772 2.54714 1.22163 3.31454.60617.62477 1.48364.93638 2.63241.93638 1.14722 0 2.0247-.31161 2.63241-.93638zm-2.6324-7.56547zm6.34382 5.79967h-1.60301c0 .83562.30076 1.4914.89917 1.96888.59997.47905 1.42318.7178 2.46963.7178 1.02475 0 1.81695-.2434 2.37816-.72865.5612-.4837.84336-1.0945.84336-1.8278 0-.71624-.2403-1.2635-.72089-1.64022-.3085-.2434-.76584-.43873-1.37201-.58291l-1.38442-.33332c-.53485-.12712-.88367-.2372-1.04645-.33176-.2558-.14263-.38293-.35657-.38293-.64337 0-.31317.13023-.55656.38758-.7302.25735-.17518.60307-.262 1.0356-.262.38912 0 .71469.06667.97514.20154.39222.2031.60306.54726.63252 1.0294h1.61386c-.02945-.85266-.34261-1.50379-.94103-1.95338-.59686-.44803-1.3193-.67283-2.16577-.67283-1.0139 0-1.78284.2372-2.3053.71314-.524.4775-.78445 1.07436-.78445 1.7937 0 .7891.26976 1.36891.81081 1.73944.32091.22169.89762.42633 1.73324.61546l.85111.1907c.49765.10851.86197.23409 1.09451.37671.23255.14418.34882.35037.34882.61547 0 .45424-.2341.7643-.70229.93173-.2465.08682-.56896.13023-.96428.13023-.66198 0-1.12862-.16433-1.40147-.4961-.14883-.18138-.24805-.45579-.29921-.82166zm1.62936-5.79967z"/></svg>