<?xml version="1.0" encoding="UTF-8" standalone="no"?>
<svg
   role="img"
   viewBox="-4.53 -4.53 239.436 51.803429"
   version="1.1"
   id="svg4"
   width="239.436"
   height="51.803429"
   xmlns:xlink="http://www.w3.org/1999/xlink"
   xmlns="http://www.w3.org/2000/svg"
   xmlns:svg="http://www.w3.org/2000/svg">
  <defs
     id="defs4" />
  <title
     id="title1">Broadcom Corporation logo</title>
  <path
     d="m 232.506,4.2980009 c -1.06,0 -1.93,-0.86 -1.93,-1.92 0,-1.06 0.87,-1.93000003 1.93,-1.93000003 1.06,0 1.93,0.87000003 1.93,1.93000003 0,1.06 -0.87,1.92 -1.93,1.92 m 0,-4.32000003 c -1.32,0 -2.4,1.08000003 -2.4,2.40000003 0,1.32 1.08,2.4 2.4,2.4 1.32,0 2.4,-1.08 2.4,-2.4 0,-1.32 -1.08,-2.40000003 -2.4,-2.40000003"
     id="path1" />
  <path
     d="m 232.666,2.2780009 -0.51,0.01 -0.01,-0.62 h 0.51 c 0.19,-0.01 0.34,0.11 0.34,0.3 0.01,0.19 -0.14,0.31 -0.33,0.31 m 0.83,-0.32 c -0.01,-0.42 -0.3,-0.72 -0.77,-0.72 l -1.07,0.02 0.03,2.26 h 0.49 l -0.01,-0.81 h 0.35 l 0.46,0.8 0.55,-0.01 -0.52,-0.86 c 0.24,-0.06 0.49,-0.28 0.49,-0.68 M 47.0201,18.388501 h -5.999 V 4.5545009 h 5.835 c 1.574,0 2.557,1.016 2.557,2.393 0,1.377 -0.983,2.36 -2.557,2.36 H 40.186 v 4.0000001 h 6.8341 c 1.836,0 2.819,1.18 2.819,2.556 0,1.574 -1.049,2.525 -2.819,2.525 m 3.376,-7.245 c 2.066,-0.426 3.771,-2.2620001 3.771,-5.0150001 0,-2.918 -2.131,-5.57300003 -6.295,-5.57300003 H 36.3661 V 22.420501 h 11.867 c 4.163,0 6.359,-2.623 6.359,-5.901 0,-2.754 -1.868,-5.015 -4.196,-5.376 m 17.8225,-0.5902 H 63.186 v 4.098 h 3.5576 l 4.294,7.769 h 5.343 l -4.917,-8.327 c 2.361,-0.557 4.786,-2.622 4.786,-6.4900001 m 0,0 c 0,-4.065 -2.786,-7.04800003 -7.343,-7.04800003 H 58.6786 V 22.420301 h 4.655 V 4.6533009 h 4.885 c 1.869,0 3.278,1.114 3.278,2.95 0,1.836 -1.409,2.9500001 -3.278,2.9500001 m 43.4206,4.0652 3.409,-9.4080001 3.41,9.4080001 z m 0.492,-14.06300013 -8.458,21.86500013 h 5.31 l 1.377,-3.704 h 9.376 l 1.344,3.704 h 5.311 L 117.9662,0.55550087 Z M 139.0351,18.322601 h -3.967 V 4.6526009 h 3.967 c 4.491,0 6.851,2.983 6.851,6.8520001 0,3.704 -2.524,6.818 -6.851,6.818 m 0,-17.76700013 h -8.622 V 22.420601 h 8.622 c 6.851,0 11.604,-4.327 11.604,-10.916 0,-6.5890001 -4.753,-10.94900013 -11.604,-10.94900013 m 82.1269,-0.0045 -5.734,9.27000003 -5.734,-9.27000003 h -5.146 V 22.420101 h 4.656 V 8.1271009 l 5.012,7.6220001 c 0.574,0.871 1.851,0.871 2.424,0 l 5.013,-7.6220001 V 22.420101 h 4.656 V 0.55110087 Z"
     id="path2" />
  <path
     id="a"
     d="m 91.0113,18.552101 c -3.871,0 -7.008,-3.138 -7.008,-7.008 0,-3.8710001 3.137,-7.0090001 7.008,-7.0090001 3.87,0 7.008,3.138 7.008,7.0090001 0,3.87 -3.138,7.008 -7.008,7.008 m 0,-18.53600013 c -6.367,0 -11.528,5.16100003 -11.528,11.52800013 0,6.366 5.161,11.527 11.528,11.527 6.366,0 11.528,-5.161 11.528,-11.527 0,-6.3670001 -5.162,-11.52800013 -11.528,-11.52800013" />
  <path
     d="m 171.5895,14.934901 c -1.195,2.156 -3.492,3.617 -6.132,3.617 -3.87,0 -7.008,-3.138 -7.008,-7.008 0,-3.8710001 3.138,-7.0080001 7.008,-7.0080001 2.618,0 4.897,1.438 6.1,3.565 l 3.27,-3.269 c -2.092,-2.915 -5.508,-4.81600003 -9.37,-4.81600003 -6.367,0 -11.527,5.16100003 -11.527,11.52800013 0,6.366 5.16,11.528 11.527,11.528 3.883,0 7.316,-1.922 9.404,-4.865 z"
     id="path3" />
  <use
     transform="translate(98.718)"
     xlink:href="#a"
     id="use3" />
  <ellipse
     cx="11.706"
     cy="11.705001"
     fill="#cc092f"
     rx="16.236"
     ry="16.235001"
     id="ellipse3" />
  <path
     fill="#ffffff"
     d="m 26.0113,16.091201 c -1.857,-0.74 -3.557,-0.492 -5.261,0.541 0,0 -0.621,0.379 -0.807,0.496 -0.794,0.498 -1.543,0.97 -2.263,0.97 -0.687,0 -1.363,-0.184 -1.649,-1.513 -0.446,-2.073 -1.534,-7.1670001 -2.009,-9.6900001 -0.279,-1.483 -0.432,-2.282 -0.591,-2.825 -0.28,-0.954 -0.792,-1.473 -1.519,-1.556 0,0 -0.114,-0.016 -0.207,-0.016 -0.092,0 -0.218,0.018 -0.218,0.018 -0.72,0.086 -1.229,0.605 -1.5070004,1.554 -0.159,0.543 -0.312,1.342 -0.591,2.825 -0.475,2.523 -1.563,7.6170001 -2.009,9.6900001 -0.286,1.329 -0.962,1.513 -1.649,1.513 -0.72,0 -1.469,-0.472 -2.263,-0.97 -0.186,-0.117 -0.808,-0.496 -0.808,-0.496 -1.703,-1.033 -3.404,-1.281 -5.26,-0.541 -0.401,0.16 -0.79596,0.33918 -1.17196,0.52018 0.257,0.806 0.57693,1.59925 0.94993,2.34425 0.411,-0.202 0.84203,-0.40243 1.28203,-0.53243 0.634,-0.187 1.284,-0.197 1.914,0.014 0.612,0.205 1.157,0.568 1.7,0.909 1.023,0.643 2.182,1.372 3.657,1.372 2.186,0 3.72,-1.305 4.21,-3.581 0.3800004,-1.764 1.2220004,-5.702 1.7630004,-8.4180001 0,0 1.386,6.6540001 1.765,8.4180001 0.49,2.276 2.025,3.581 4.211,3.581 1.475,0 2.634,-0.729 3.657,-1.372 0.543,-0.341 1.088,-0.704 1.7,-0.909 0.629,-0.211 1.28,-0.201 1.914,-0.014 0.44,0.13 0.87039,0.33065 1.28139,0.53265 0.374,-0.745 0.69309,-1.53862 0.95009,-2.34462 -0.376,-0.181 -0.77048,-0.36003 -1.17148,-0.52003"
     id="path4" />
  <path
     d="m 67.362114,40.134758 q 0,0.483398 -0.170898,0.898437 -0.166016,0.410157 -0.46875,0.712891 -0.375977,0.375977 -0.888672,0.566406 -0.512696,0.185547 -1.293946,0.185547 H 63.573051 V 45.208 h -0.966796 v -7.270508 h 1.972656 q 0.654297,0 1.108398,0.112305 0.454102,0.107422 0.805664,0.341797 0.415039,0.27832 0.639649,0.693359 0.229492,0.415039 0.229492,1.049805 z m -1.005859,0.02441 q 0,-0.375977 -0.131836,-0.654297 -0.131836,-0.27832 -0.400391,-0.454101 -0.234375,-0.151368 -0.537109,-0.214844 -0.297852,-0.06836 -0.756836,-0.06836 h -0.957032 v 2.905274 h 0.81543 q 0.585938,0 0.952149,-0.102539 0.366211,-0.107422 0.595703,-0.336914 0.229492,-0.234375 0.322265,-0.493164 0.09766,-0.258789 0.09766,-0.581055 z M 73.236137,45.208 h -4.599609 v -7.270508 h 0.966797 v 6.411133 h 3.632812 z m 4.189454,-7.597656 -3.500977,9.082031 h -0.844727 l 3.486329,-9.082031 z M 81.307426,45.208 h -2.871093 v -0.742187 h 0.952148 V 38.67968 h -0.952148 v -0.742188 h 2.871093 v 0.742188 h -0.952148 v 5.786133 h 0.952148 z m 9.760743,0 h -4.59961 v -7.270508 h 0.966797 v 6.411133 h 3.632813 z m 5.131836,0 h -0.913086 v -0.581055 q -0.122071,0.08301 -0.332032,0.234375 -0.205078,0.146485 -0.40039,0.234375 -0.229492,0.112305 -0.527344,0.185547 -0.297852,0.07813 -0.698242,0.07813 -0.737305,0 -1.25,-0.488281 -0.512695,-0.488281 -0.512695,-1.245117 0,-0.620117 0.263671,-1.000977 0.268555,-0.385742 0.761719,-0.605468 0.498047,-0.219727 1.196289,-0.297852 0.698242,-0.07813 1.499024,-0.117187 v -0.141602 q 0,-0.3125 -0.112305,-0.517578 -0.107422,-0.205078 -0.3125,-0.322266 -0.195313,-0.112304 -0.46875,-0.151367 -0.273438,-0.03906 -0.571289,-0.03906 -0.361328,0 -0.805664,0.09766 -0.444336,0.09277 -0.917969,0.273437 h -0.04883 v -0.932617 q 0.268555,-0.07324 0.776367,-0.161133 0.507813,-0.08789 1.000977,-0.08789 0.576172,0 1.000976,0.09766 0.429688,0.09277 0.742188,0.322266 0.307617,0.224609 0.46875,0.581054 0.161133,0.356446 0.161133,0.883789 z m -0.913086,-1.342773 v -1.518555 q -0.419922,0.02441 -0.991211,0.07324 -0.566407,0.04883 -0.898438,0.141602 -0.395508,0.112304 -0.639648,0.351562 -0.244141,0.234375 -0.244141,0.649414 0,0.46875 0.283203,0.708008 0.283203,0.234375 0.864258,0.234375 0.483399,0 0.883789,-0.185547 0.400391,-0.190429 0.742188,-0.454101 z M 102.52813,45.208 h -0.91797 v -3.105469 q 0,-0.375976 -0.0439,-0.703125 -0.0439,-0.332031 -0.16114,-0.517578 -0.12207,-0.205078 -0.35156,-0.302734 -0.22949,-0.102539 -0.5957,-0.102539 -0.37598,0 -0.786136,0.185547 -0.410156,0.185547 -0.786133,0.473633 V 45.208 h -0.917968 v -5.454101 h 0.917968 v 0.605468 q 0.429688,-0.356445 0.888672,-0.55664 0.458987,-0.200196 0.942387,-0.200196 0.88379,0 1.34765,0.532227 0.46387,0.532227 0.46387,1.533203 z m 6.19141,-0.620117 q 0,1.386719 -0.62989,2.036133 -0.62988,0.649414 -1.93847,0.649414 -0.43457,0 -0.84961,-0.06348 -0.41016,-0.05859 -0.81055,-0.170898 v -0.9375 h 0.0488 q 0.22461,0.08789 0.71289,0.214844 0.48828,0.131836 0.97656,0.131836 0.46875,0 0.77637,-0.112305 0.30762,-0.112305 0.47851,-0.3125 0.1709,-0.19043 0.24414,-0.458985 0.0733,-0.268554 0.0733,-0.600585 v -0.498047 q -0.41504,0.332031 -0.7959,0.498047 -0.37598,0.161132 -0.96192,0.161132 -0.97656,0 -1.55273,-0.703125 -0.57129,-0.708007 -0.57129,-1.992187 0,-0.703125 0.19531,-1.210938 0.2002,-0.512695 0.542,-0.883789 0.31738,-0.346679 0.77148,-0.537109 0.4541,-0.195313 0.90332,-0.195313 0.47363,0 0.79102,0.09766 0.32226,0.09277 0.67871,0.288086 l 0.0586,-0.234375 h 0.85938 z m -0.91797,-0.878906 v -2.973633 q -0.36621,-0.166016 -0.6836,-0.234375 -0.3125,-0.07324 -0.625,-0.07324 -0.75683,0 -1.1914,0.507812 -0.43457,0.507813 -0.43457,1.47461 0,0.917968 0.32226,1.391601 0.32227,0.473633 1.06934,0.473633 0.40039,0 0.80078,-0.151367 0.40527,-0.15625 0.74219,-0.415039 z m 7.24609,1.499023 h -0.91797 v -0.605469 q -0.46387,0.366211 -0.88867,0.561524 -0.4248,0.195312 -0.9375,0.195312 -0.85937,0 -1.33789,-0.522461 -0.47852,-0.527343 -0.47852,-1.542968 v -3.540039 h 0.91797 v 3.105468 q 0,0.415039 0.0391,0.712891 0.0391,0.292969 0.16601,0.50293 0.13184,0.214843 0.3418,0.3125 0.20996,0.09766 0.61035,0.09766 0.35644,0 0.77637,-0.185547 0.4248,-0.185547 0.79101,-0.473633 v -4.072265 h 0.91797 z m 6.04492,0 h -0.91308 v -0.581055 q -0.12207,0.08301 -0.33203,0.234375 -0.20508,0.146485 -0.4004,0.234375 -0.22949,0.112305 -0.52734,0.185547 -0.29785,0.07813 -0.69824,0.07813 -0.73731,0 -1.25,-0.488281 -0.5127,-0.488281 -0.5127,-1.245117 0,-0.620117 0.26368,-1.000977 0.26855,-0.385742 0.76171,-0.605468 0.49805,-0.219727 1.19629,-0.297852 0.69825,-0.07813 1.49903,-0.117187 v -0.141602 q 0,-0.3125 -0.11231,-0.517578 -0.10742,-0.205078 -0.3125,-0.322266 -0.19531,-0.112304 -0.46875,-0.151367 -0.27344,-0.03906 -0.57129,-0.03906 -0.36133,0 -0.80566,0.09766 -0.44434,0.09277 -0.91797,0.273437 h -0.0488 v -0.932617 q 0.26856,-0.07324 0.77637,-0.161133 0.50781,-0.08789 1.00098,-0.08789 0.57617,0 1.00097,0.09766 0.42969,0.09277 0.74219,0.322266 0.30762,0.224609 0.46875,0.581054 0.16113,0.356446 0.16113,0.883789 z m -0.91308,-1.342773 v -1.518555 q -0.41993,0.02441 -0.99121,0.07324 -0.56641,0.04883 -0.89844,0.141602 -0.39551,0.112304 -0.63965,0.351562 -0.24414,0.234375 -0.24414,0.649414 0,0.46875 0.2832,0.708008 0.28321,0.234375 0.86426,0.234375 0.4834,0 0.88379,-0.185547 0.40039,-0.190429 0.74219,-0.454101 z m 7.10449,0.722656 q 0,1.386719 -0.62988,2.036133 -0.62989,0.649414 -1.93848,0.649414 -0.43457,0 -0.84961,-0.06348 -0.41016,-0.05859 -0.81055,-0.170898 v -0.9375 h 0.0488 q 0.22461,0.08789 0.71289,0.214844 0.48828,0.131836 0.97656,0.131836 0.46875,0 0.77637,-0.112305 0.30762,-0.112305 0.47852,-0.3125 0.1709,-0.19043 0.24414,-0.458985 0.0732,-0.268554 0.0732,-0.600585 v -0.498047 q -0.41504,0.332031 -0.7959,0.498047 -0.37597,0.161132 -0.96191,0.161132 -0.97656,0 -1.55274,-0.703125 -0.57129,-0.708007 -0.57129,-1.992187 0,-0.703125 0.19532,-1.210938 0.20019,-0.512695 0.54199,-0.883789 0.31738,-0.346679 0.77148,-0.537109 0.4541,-0.195313 0.90332,-0.195313 0.47364,0 0.79102,0.09766 0.32226,0.09277 0.67871,0.288086 l 0.0586,-0.234375 h 0.85938 z m -0.91797,-0.878906 v -2.973633 q -0.36621,-0.166016 -0.68359,-0.234375 -0.3125,-0.07324 -0.625,-0.07324 -0.75684,0 -1.19141,0.507812 -0.43457,0.507813 -0.43457,1.47461 0,0.917968 0.32227,1.391601 0.32226,0.473633 1.06933,0.473633 0.40039,0 0.80078,-0.151367 0.40528,-0.15625 0.74219,-0.415039 z m 7.29004,-1.132813 h -4.01856 q 0,0.50293 0.15137,0.878906 0.15137,0.371094 0.41504,0.610352 0.25391,0.234375 0.60059,0.351563 0.35156,0.117187 0.77148,0.117187 0.55664,0 1.11817,-0.219727 0.5664,-0.224609 0.80566,-0.439453 h 0.0488 v 1.000977 q -0.46387,0.195312 -0.94727,0.327148 -0.4834,0.131836 -1.01562,0.131836 -1.35743,0 -2.11914,-0.732422 -0.76172,-0.737304 -0.76172,-2.089843 0,-1.337891 0.72754,-2.124024 0.73242,-0.786133 1.92382,-0.786133 1.10352,0 1.69922,0.644532 0.60059,0.644531 0.60059,1.831054 z m -0.89356,-0.703125 q -0.005,-0.722656 -0.36621,-1.118164 -0.35644,-0.395508 -1.08886,-0.395508 -0.73731,0 -1.17676,0.434571 -0.43457,0.43457 -0.49317,1.079101 z m 11.15723,1.259766 q 0,0.424805 -0.20019,0.839844 -0.19532,0.415039 -0.55176,0.703125 -0.39063,0.3125 -0.91309,0.488281 -0.51758,0.175781 -1.25,0.175781 -0.78613,0 -1.41601,-0.146484 -0.625,-0.146485 -1.27442,-0.434571 v -1.210937 h 0.0684 q 0.55176,0.458984 1.27442,0.708008 0.72265,0.249023 1.35742,0.249023 0.89844,0 1.39648,-0.336914 0.50293,-0.336914 0.50293,-0.898437 0,-0.483399 -0.23926,-0.712891 -0.23437,-0.229492 -0.71777,-0.356445 -0.36621,-0.09766 -0.7959,-0.161133 -0.4248,-0.06348 -0.90332,-0.161133 -0.9668,-0.205078 -1.43555,-0.698242 -0.46386,-0.498047 -0.46386,-1.293945 0,-0.913086 0.77148,-1.494141 0.77149,-0.585938 1.95801,-0.585938 0.7666,0 1.40625,0.146485 0.63965,0.146484 1.13281,0.361328 v 1.142578 h -0.0684 q -0.41504,-0.351562 -1.09375,-0.581055 -0.67383,-0.234375 -1.38183,-0.234375 -0.77637,0 -1.25,0.322266 -0.46875,0.322266 -0.46875,0.830078 0,0.454102 0.23437,0.712891 0.23438,0.258789 0.8252,0.395508 0.3125,0.06836 0.88867,0.166015 0.57617,0.09766 0.97656,0.200195 0.81055,0.214844 1.2207,0.649415 0.41016,0.43457 0.41016,1.21582 z m 6.00098,2.075195 h -0.91797 v -0.605469 q -0.46387,0.366211 -0.88867,0.561524 -0.42481,0.195312 -0.9375,0.195312 -0.85938,0 -1.33789,-0.522461 -0.47852,-0.527343 -0.47852,-1.542968 v -3.540039 h 0.91797 v 3.105468 q 0,0.415039 0.0391,0.712891 0.0391,0.292969 0.16602,0.50293 0.13183,0.214843 0.34179,0.3125 0.20997,0.09766 0.61036,0.09766 0.35644,0 0.77636,-0.185547 0.42481,-0.185547 0.79102,-0.473633 v -4.072265 h 0.91797 z m 6.60644,-2.792969 q 0,0.664063 -0.19043,1.215821 -0.19043,0.546875 -0.53711,0.927734 -0.32226,0.361328 -0.76171,0.561524 -0.43458,0.195312 -0.92286,0.195312 -0.4248,0 -0.77148,-0.09277 -0.3418,-0.09277 -0.69824,-0.288086 v 2.285156 h -0.91797 v -7.46582 h 0.91797 v 0.571289 q 0.36621,-0.307618 0.82031,-0.512696 0.45898,-0.209961 0.97656,-0.209961 0.98633,0 1.53321,0.747071 0.55175,0.742187 0.55175,2.065429 z m -0.94726,0.02441 q 0,-0.986328 -0.33692,-1.474609 -0.33691,-0.488281 -1.03515,-0.488281 -0.39551,0 -0.7959,0.170898 -0.40039,0.170899 -0.7666,0.449219 v 3.09082 q 0.39062,0.175782 0.66894,0.239258 0.28321,0.06348 0.63965,0.06348 0.7666,0 1.19629,-0.517578 0.42969,-0.517579 0.42969,-1.533204 z m 7.17773,-0.02441 q 0,0.664063 -0.19043,1.215821 -0.19043,0.546875 -0.53711,0.927734 -0.32226,0.361328 -0.76172,0.561524 -0.43457,0.195312 -0.92285,0.195312 -0.4248,0 -0.77148,-0.09277 -0.3418,-0.09277 -0.69824,-0.288086 v 2.285156 h -0.91797 v -7.46582 h 0.91797 v 0.571289 q 0.36621,-0.307618 0.82031,-0.512696 0.45898,-0.209961 0.97656,-0.209961 0.98633,0 1.5332,0.747071 0.55176,0.742187 0.55176,2.065429 z m -0.94726,0.02441 q 0,-0.986328 -0.33692,-1.474609 -0.33691,-0.488281 -1.03515,-0.488281 -0.39551,0 -0.7959,0.170898 -0.40039,0.170899 -0.7666,0.449219 v 3.09082 q 0.39062,0.175782 0.66894,0.239258 0.2832,0.06348 0.63965,0.06348 0.7666,0 1.19629,-0.517578 0.42969,-0.517579 0.42969,-1.533204 z m 7.02636,0.04395 q 0,1.333008 -0.68359,2.104492 -0.68359,0.771484 -1.83106,0.771484 -1.15722,0 -1.84082,-0.771484 -0.67871,-0.771484 -0.67871,-2.104492 0,-1.333008 0.67871,-2.104492 0.6836,-0.776368 1.84082,-0.776368 1.14747,0 1.83106,0.776368 0.68359,0.771484 0.68359,2.104492 z m -0.94726,0 q 0,-1.059571 -0.41504,-1.572266 -0.41504,-0.517578 -1.15235,-0.517578 -0.74707,0 -1.1621,0.517578 -0.41016,0.512695 -0.41016,1.572266 0,1.02539 0.41504,1.557617 0.41504,0.527344 1.15722,0.527344 0.73243,0 1.14747,-0.522461 0.41992,-0.527344 0.41992,-1.5625 z m 5.77148,-1.728516 h -0.0488 q -0.20507,-0.04883 -0.40039,-0.06836 -0.19043,-0.02441 -0.4541,-0.02441 -0.4248,0 -0.82031,0.190429 -0.39551,0.185547 -0.76172,0.483399 V 45.208 h -0.91797 v -5.454101 h 0.91797 v 0.805664 q 0.54688,-0.439453 0.96191,-0.620118 0.41993,-0.185546 0.8545,-0.185546 0.23925,0 0.34668,0.01465 0.10742,0.0098 0.32226,0.04395 z m 3.69629,4.404297 q -0.25879,0.06836 -0.56641,0.112305 -0.30273,0.04395 -0.54199,0.04395 -0.83496,0 -1.26953,-0.449219 -0.43457,-0.449218 -0.43457,-1.440429 v -2.900391 h -0.62012 v -0.771484 h 0.62012 v -1.567383 h 0.91797 v 1.567383 h 1.89453 v 0.771484 h -1.89453 v 2.485352 q 0,0.429687 0.0195,0.673828 0.0195,0.239257 0.13672,0.449218 0.10742,0.195313 0.29297,0.288086 0.19043,0.08789 0.57617,0.08789 0.22461,0 0.46875,-0.06348 0.24414,-0.06836 0.35156,-0.112304 h 0.0488 z"
     id="text4"
     style="font-size:10px;text-anchor:middle"
     aria-label="PL/I Language Support" />
</svg>
