<?xml version="1.0" encoding="utf-8"?>
<!-- Generator: Adobe Illustrator 20.1.0, SVG Export Plug-In . SVG Version: 6.00 Build 0)  -->
<svg version="1.1" id="Layer_1" xmlns="http://www.w3.org/2000/svg" xmlns:xlink="http://www.w3.org/1999/xlink" x="0px" y="0px"
	 viewBox="0 0 150 150" style="enable-background:new 0 0 150 150;" xml:space="preserve">
<style type="text/css">
	.st0{fill:#32668F;}
</style>
<g>
	<path class="st0" d="M93.1,25.6c1.6-0.9,3.5-0.9,5.3-1c1.9,0,4.1,0.2,5.6,1.4c1,0.8,1.4,2.1,1.4,3.3c-0.6,0-1.3,0-1.9,0
		c-0.2-1.2-0.7-2.4-2-2.9c-2.1-0.8-4.4-0.7-6.6-0.1c-1.7,0.5-2.3,2.9-1,4.2c0.9,0.7,2.2,0.9,3.3,1.1c2.3,0.5,4.8,0.6,6.9,1.6
		c2.3,1.1,2.2,4.9,0.2,6.2c-1.6,1.1-3.9,1.3-5.8,1.4c-2.2-0.1-4.5-0.3-6.2-1.6c-1.1-0.9-1.4-2.3-1.5-3.7c0.6,0,1.3-0.1,1.9-0.1
		c0.1,1.4,0.8,3,2.3,3.5c2.3,0.9,4.9,0.9,7.1,0.2c1.6-0.5,2.3-2.5,1.5-3.9c-0.4-0.6-1.1-1-1.7-1.2c-2.8-0.7-5.8-0.8-8.6-1.8
		C90.8,31,90.7,26.8,93.1,25.6z"/>
	<g>
		<path class="st0" d="M110.6,25.6c2.2-1.1,4.6-1.3,7-1.1c2.3,0.2,4.5,1,6.1,2.7c1.9,2.1,2.3,5.2,1.5,7.7c-0.4,1.4-1.4,2.6-2.5,3.6
			c0.9,0.6,1.8,1.2,2.6,1.9c-0.4,0.4-0.8,0.7-1.2,1.1c-0.9-0.6-1.7-1.3-2.7-1.8c-0.7,0-1.4,0.5-2.2,0.5c-2.1,0.4-4.2,0.4-6.1,0
			c-2.2-0.5-4.3-1.6-5.5-3.6c-1.2-1.9-1.4-4.3-0.8-6.4C107.4,28.3,108.8,26.6,110.6,25.6z M113.6,26c-2.2,0.5-4.1,1.9-4.7,4.1
			c-0.7,2.3-0.5,5,1.2,6.9c1.4,1.6,3.6,2.3,5.8,2.3c2.3,0.1,5-0.6,6.5-2.4c2.2-2.7,1.9-7.3-1-9.4C119.2,25.6,116.2,25.5,113.6,26z"
			/>
	</g>
	<path class="st0" d="M126.8,24.9c0.6,0,1.2,0,1.8-0.1c0.1,4.6,0,9.3,0,14c3.8,0.1,7.6,0,11.4,0.1c0,0.4,0,0.8,0,1.3
		c-4.4,0-8.8,0-13.2,0C126.8,35.1,126.8,30,126.8,24.9z"/>
	<path class="st0" d="M80.6,56.4c4.2-0.9,8.6-0.8,12.6,0.7c2.8,1.1,5.2,2.9,7,5.2c0.9,1.1,1,2.6,1.1,3.9c0.1,3.3-0.6,6.4-1.4,9.5
		c-1.6,5.7-4,11.2-7,16.4c-0.4,0.5-0.6,1-1,1.4c0-0.1-0.1-0.4-0.1-0.6c0.4-1,0.9-1.9,1.1-3c0.7-3,0.1-6-0.1-8.9
		c-0.3-2.8,0.6-5.5,0.6-8.4c0.1-1.4-0.5-2.6-0.9-3.9c-1.9-4.2-4.9-8-8.9-10.7C82.6,57.6,81.6,57,80.6,56.4z"/>
	<path class="st0" d="M69.1,56.7c5.2-0.6,10.4,0.7,14.5,3.9c3.3,2.6,6,6.2,7.4,10.2c-2.3-0.1-5.1-0.2-7,1.4c-1.7,1.4-2,4-1.6,6.1
		c0.9,5,3.9,9.2,6.1,13.7c0.6,1.1,1.4,2,2.1,2.9c-0.9,0.5-1.9,0.9-2.3,1.8c-0.9,1.4-0.6,3.2-0.8,4.7c-0.5,4.4-1,8.8-1.7,13.2
		c-0.4,2.1-1.2,4.3-3.2,5.4c-2,1-4.4,1.6-6.7,1.4c-2.2-0.4-3.5-2.3-4.2-4.3c-0.5-1.6-0.5-3.3-0.6-5.1c-0.2-4.1-0.2-8.1-0.1-12.3
		c0.1-1.6-0.7-3.3-2.2-4.1c-0.6-0.4-1.5-0.5-2.3-0.5c0.6-3,2.4-5.6,3.1-8.6c0.8-3.7,0.4-7.6-0.5-11.2c-0.4-1.9-1.8-3.4-3.6-3.9
		c-2.9-0.7-5.7,0.4-8.3,1.6c0.4-4.2,1.4-8.4,4-11.7C63.2,58.8,66.1,57.2,69.1,56.7z"/>
	<path class="st0" d="M47.5,57.1c4.5-0.9,9.1,0.1,13.6,1.4c-1.9,2.2-3.3,4.6-4.3,7.3c-1.2,3.6-1.7,7.5-1.4,11.3
		c0.1,2.7,0.1,5.4-0.3,8c-0.5,3.4,0.9,7,3.5,9.4c-1.8,2.1-3.6,4.1-5.3,6.1c-0.7,0.9-1.8,1.9-3.1,1.6c-1.5-0.5-2.4-1.8-3.3-3.1
		c-2.3-3.6-3.6-7.7-4.9-11.7c-1.4-4.8-2.6-9.7-3.3-14.6c-0.4-3.7-0.1-7.8,1.8-11.1C41.9,59.3,44.6,57.6,47.5,57.1z"/>
	<g>
		<path class="st0" d="M85.6,73.9c1.6-1.2,3.9-0.9,5.8-0.8c-0.1,2.6-0.9,5.3-0.6,8c0.3,3.3,1.2,6.9-0.4,10
			c-2.2-4.2-4.9-8.1-5.8-12.8C84.3,76.8,84.2,74.9,85.6,73.9z M86.1,74.5c-0.5,0.5,0.1,1.1,0.5,1.4c1.1,0.6,2.7-0.3,2.8-1.6
			C88.4,73.8,87.1,73.8,86.1,74.5z"/>
	</g>
	<g>
		<path class="st0" d="M57.3,75.6c2.2-1.4,4.5-2.3,7-2.3c1.4,0.1,2.5,1,2.9,2.3c1.1,4.6,1.5,9.7-0.6,14c-0.8,1.6-1.4,3.3-1.9,5.2
			c-3.6,0.1-6.8-3.1-7.4-6.6c-0.5-2,0.1-4,0.2-5.9C57.5,80.1,57.3,77.8,57.3,75.6z M63.1,74.5c-0.4,0.1-0.6,0.4-0.6,0.7
			c0.2,1.4,2,2.2,3.2,1.4c0.5-0.3,1-1.1,0.5-1.5C65.3,74.5,64.1,74.3,63.1,74.5z"/>
	</g>
	<path class="st0" d="M90.3,97.6c0.5-0.4,1.4-0.8,1.9-0.4c2.6,1.4,5.8,0.7,8.7,0.4c-1.7,1.6-4.2,2.4-6.5,2.7
		c-1.6,0.2-3.2,0.3-4.7-0.3C89.7,99.3,89.7,98.3,90.3,97.6z"/>
	<path class="st0" d="M63.5,100.9c1.5-0.8,2.2-2.6,3.6-3.6c1.5-0.2,2.7,2.2,1.5,3.2c-2.3,3.2-6.9,3.7-10.2,2
		C59.9,101.8,61.8,101.9,63.5,100.9z"/>
	<g>
		<g>
			<path d="M10,24.9c2.9,0,5.7,0,8.6-0.1c1.4,0,2.7,0.2,3.8,1.1c1.4,1.2,1.6,3.3,1.1,5c-0.7,1.8-2.7,2.6-4.5,2.6c-2.4,0-4.9,0-7.4,0
				c0,2.2,0.1,4.3,0,6.5c-0.5,0-1,0-1.5,0C10,35.1,9.9,30,10,24.9z M11.6,26.2c0,2.2,0,4.2,0,6.4c2.3,0,4.5,0.1,6.8,0
				c1.3-0.1,2.7-0.5,3.3-1.7c0.4-1.1,0.4-2.5-0.4-3.5c-0.7-0.9-2-1.1-3.2-1.1C15.9,26.2,13.7,26.2,11.6,26.2z"/>
		</g>
		<path d="M50.8,26.6c0.5,0,1.1,0,1.6,0c0,1.4,0,2.3,0,3.4c0.9,0,1.8,0.1,2.6,0.1c0,0.4,0,0.7,0.1,1.1c-0.9,0-1.8,0.1-2.7,0
			c-0.1,2.2,0,4.3,0,6.4c0,0.5,0,1.1,0.5,1.4c0.6,0.4,1.5,0.2,2.3,0.2c0,0.4,0,0.6,0,1c-1.1,0.1-2.3,0.2-3.4-0.4
			c-0.6-0.4-0.9-1.1-0.9-1.8c0-2.3,0-4.6,0-6.9c-0.6,0-1.4,0-2,0c0-0.4,0-0.6,0-1.1c0.6,0,1.4-0.2,2-0.2
			C50.8,28.9,50.8,27.9,50.8,26.6z"/>
		<g>
			<path d="M27.8,30c2-0.3,4.2-0.2,6,0.8c2.6,1.5,3.1,5.6,1.2,7.9c-1.6,1.8-4.2,2-6.5,1.9c-1.9-0.1-3.7-1-4.6-2.7
				c-0.8-1.5-0.8-3.4-0.1-5.1C24.6,31.2,26.2,30.3,27.8,30z M28.6,31c-1.4,0.2-2.9,1.1-3.3,2.5c-0.5,1.6-0.4,3.6,1,4.8
				c1.1,0.9,2.5,1.2,3.9,1.1c1.2-0.1,2.5-0.4,3.3-1.3c0.9-0.9,1.1-2.3,1-3.6c-0.1-1.1-0.6-2.2-1.6-2.8C31.5,31,30,30.9,28.6,31z"/>
		</g>
		<path d="M38.2,30.7c1.1-0.6,2.3-0.8,3.5-0.9c1.6-0.1,3.5-0.1,5,0.9c0.8,0.5,1.1,1.4,1.2,2.3c-0.5,0-1.1,0-1.6,0
			c-0.1-0.7-0.4-1.5-1.2-1.9c-1.4-0.6-2.9-0.5-4.3-0.4c-0.9,0.1-2,0.6-2,1.6c-0.1,0.7,0.6,1.3,1.3,1.4c1.9,0.5,3.9,0.4,5.8,0.9
			c0.9,0.2,1.8,0.5,2.3,1.4c0.6,1.1,0.3,2.7-0.9,3.3c-1.4,0.8-3.1,0.9-4.6,0.9c-1.5-0.1-3.2-0.1-4.5-1c-0.8-0.5-1.1-1.5-1.2-2.4
			c0.6,0,1.1,0,1.7,0c0,1.3,1.1,2.2,2.3,2.3c1.7,0.3,3.6,0.4,5.2-0.4c1.1-0.5,1-2.3-0.2-2.7c-2.3-0.6-4.9-0.5-7.2-1.4
			C36.8,34.2,36.8,31.7,38.2,30.7z"/>
		<g>
			<path d="M59.8,30.2c1.6-0.4,3.3-0.4,5,0.1c0.9,0.3,1.5,1,2.3,1.6c0-0.5,0.1-1.1,0.1-1.6c0.5,0,1,0,1.5,0c0.1,3.1,0,6.1,0.1,9.2
				c0.1,1.3-0.2,2.6-1.2,3.6c-1.4,1.2-3.2,1.4-4.9,1.4c-1.5,0-3.1-0.1-4.4-0.8c-0.9-0.5-1.4-1.5-1.6-2.5c0.5,0,1,0,1.5,0
				c0.4,0.6,0.6,1.4,1.3,1.8c1.1,0.5,2.3,0.5,3.4,0.5c1.4-0.1,2.8-0.3,3.6-1.4c0.8-1.1,0.6-2.4,0.6-3.7c-1.6,1.6-4.1,1.9-6.3,1.6
				c-1.4-0.1-2.8-0.6-3.7-1.7C56,36.9,56,35,56.3,33.4C56.6,31.7,58.1,30.4,59.8,30.2z M61.1,31.1c-1.1,0.2-2.3,0.7-2.9,1.7
				c-0.7,1.2-0.7,2.7-0.3,4c0.5,1.4,1.9,2,3.3,2.2c1.7,0.3,3.6,0,4.9-1.4c1.4-1.6,1.2-4.5-0.6-5.8C64.3,31,62.5,30.9,61.1,31.1z"/>
		</g>
		<path d="M73.4,30.3c1.1-0.5,2.3-0.4,3.6-0.4c0,0.4,0,0.9,0,1.3c-1.3,0-2.6-0.2-3.7,0.6c-1.1,0.7-1.4,2.1-1.4,3.3
			c0,1.7,0,3.4,0,5.2c-0.5,0-1,0-1.5,0c-0.1-3.3-0.1-6.7,0-9.9c0.5,0,1.1,0,1.5,0c0,0.6,0,1.1,0,1.7C72.3,31.3,72.7,30.6,73.4,30.3z
			"/>
		<g>
			<path d="M77.6,32.3c1.1-1.6,3.2-2.3,5-2.4c1.9-0.1,4.2,0.2,5.6,1.6c1.1,1,1.4,2.5,1.4,3.9c-3.7,0.1-7.4,0-11.1,0
				c0.1,1,0.4,2.1,1.2,2.7c1.4,1.4,3.6,1.4,5.4,1.1c1.2-0.3,2.2-1.2,2.6-2.3c0.6,0,1.1,0,1.7,0c-0.5,1.6-2,2.9-3.6,3.3
				c-2.3,0.5-4.9,0.5-6.9-0.9C76.6,37.8,76.3,34.5,77.6,32.3z M80.4,31.5c-1.1,0.6-1.6,1.9-1.9,3c3.2,0,6.3,0,9.5,0
				c-0.1-0.7-0.4-1.4-0.8-2C85.5,30.6,82.5,30.4,80.4,31.5z"/>
		</g>
		<g>
			<path d="M77.1,53c4.4-1.2,9.1-1.6,13.6-0.8c4.2,0.7,8,2.6,11,5.6c1.4,1.4,2.6,2.8,3.2,4.6c0.9,3.2,0.5,6.6,0,9.8
				c-1.4,7.7-4.4,15.1-8.4,21.9c1.7,0,3.4-0.5,5.2-0.6c1.7-0.1,3.5,0.9,3.9,2.6c0.5,1.9-0.6,3.6-2,4.8c-3.4,3.1-8.2,4.2-12.7,3.9
				c-0.3,4.6-0.4,9.5-2.3,13.8c-0.9,1.9-2.3,3.6-4.1,4.8c-1.7,1.1-3.8,1.6-5.8,2c-2.2,0.4-4.6,0.2-6.4-1.1c-1.7-1.1-2.9-3-3.4-4.9
				c-1.5-4-1.4-8.4-1.6-12.7c-3.1,1.3-6.5,1.2-9.7,0.1c-1.1-0.4-2.1-1.1-2.9-1.9c-1.6,1.4-3.8,2-5.9,1.4c-2.6-0.7-4.4-2.9-5.9-5.1
				c-2.3-3.9-3.9-8.3-5.2-12.7c-1.4-5.1-2.7-10.2-3.3-15.5c-0.4-4.6,0.1-9.7,2.5-13.6c2-3.3,5.6-5.6,9.4-6.3
				c5.4-1.1,10.9-0.1,16.1,1.6c1.6-0.7,3.3-1.6,5.2-1.9C70.8,52.3,73.9,52.6,77.1,53z M77.1,55.1c-0.4,0.1-0.8-0.1-1.2-0.1
				c-4.4-0.9-9.2-0.5-13,2c-4.6-1.6-9.5-2.6-14.4-2.2c-3.6,0.4-7.2,2.1-9.3,5.2c-2.6,3.9-3,8.8-2.6,13.3c0.9,6,2.3,11.9,4.2,17.6
				c1.2,3.6,2.6,7.1,4.7,10.3c1.1,1.5,2.6,3.1,4.5,3.3c1.7,0.2,3.3-0.9,4.4-2.2c1.9-2.3,3.8-4.4,5.8-6.5c1.4,0.6,2.7,1,4.2,1.1
				c-0.8,0.9-1.4,2.2-2.6,2.5c-1.6,0.6-3.6,0.5-5.2,1.6c-0.9,0.6-0.9,1.9-0.1,2.6c1.4,1.4,3.3,1.6,5.2,1.8c2.6,0.2,5.2-0.6,7.2-2.3
				c0,4.2,0,8.3,0.5,12.4c0.2,2.3,1.3,4.8,3.2,6.4c1.7,1.5,4.2,1.8,6.4,1.4c2.2-0.4,4.4-1.1,6.1-2.5c1.8-1.6,2.5-4,2.9-6.2
				c0.6-4.2,1.1-8.2,1.6-12.3c4.6,0.8,9.9-0.1,13.2-3.4c0.7-0.6,1.4-1.9,0.7-2.9c-0.7-0.9-2-0.6-3-0.4c-2.3,0.4-4.9,0.9-7.2-0.1
				c4.2-6.4,7.3-13.5,9.1-21c0.6-2.9,1.1-5.7,1.1-8.7c-0.1-1.6-0.4-3.3-1.3-4.7c-2.4-3.3-6.1-5.6-9.9-6.7
				C87.1,53.2,81.9,53.7,77.1,55.1z"/>
		</g>
	</g>
</g>
</svg>
