<?xml version="1.0" encoding="UTF-8" standalone="no"?>
<svg
   role="img"
   viewBox="-8.05 -8.05 678.60 335.60"
   version="1.1"
   id="svg35"
   sodipodi:docname="projcl.svg"
   inkscape:version="1.1.1 (c3084ef, 2021-09-22)"
   xmlns:inkscape="http://www.inkscape.org/namespaces/inkscape"
   xmlns:sodipodi="http://sodipodi.sourceforge.net/DTD/sodipodi-0.dtd"
   xmlns="http://www.w3.org/2000/svg"
   xmlns:svg="http://www.w3.org/2000/svg">
  <defs
     id="defs39" />
  <sodipodi:namedview
     id="namedview37"
     pagecolor="#ffffff"
     bordercolor="#666666"
     borderopacity="1.0"
     inkscape:pageshadow="2"
     inkscape:pageopacity="0.0"
     inkscape:pagecheckerboard="0"
     showgrid="false"
     inkscape:zoom="1.1009789"
     inkscape:cx="339.24356"
     inkscape:cy="168.03228"
     inkscape:window-width="1555"
     inkscape:window-height="954"
     inkscape:window-x="50"
     inkscape:window-y="25"
     inkscape:window-maximized="0"
     inkscape:current-layer="svg35" />
  <title
     id="title9">PRO/JCL Plug-in</title>
  <style
     id="style11">svg {enable-background:new 0 0 662 240}</style>
  <style
     id="style13">.st0{fill:#212942}</style>
  <path
     d="M368.5 5.4h3v229.3h-3z"
     class="st0"
     id="path15" />
  <path
     fill="#28334a"
     d="M306.5 204c-4.4 0-8.1-3.6-8.1-8.1s3.6-8.1 8.1-8.1 8.1 3.6 8.1 8.1c-.1 4.4-3.7 8.1-8.1 8.1zm0-15.1c-3.9 0-6.9 2.9-6.9 7s2.9 7 6.9 7c3.9 0 6.9-2.9 6.9-7-.1-4.1-3-7-6.9-7zm2.3 11.8l-2.4-3.5c-.5-.7-.8-1-1.5-1v4.4h-1.4v-9.8h3.2c2 0 3 1.3 3 2.8 0 1.4-1 2.3-2.6 2.5.4.3.7.7 1.1 1.3l2.3 3.2h-1.7zm-2.4-8.6H305v3.1h1c1.1 0 2.3-.1 2.3-1.5-.1-1-.6-1.6-1.9-1.6zM20 221.1c-.3 0-.6.1-.9.4-.2.2-.4.3-.7.5-.3.2-.6.4-1 .5-.4.2-.8.2-1.4.2-.4 0-.8-.1-1.2-.2-.3-.1-.7-.3-.9-.6-.3-.3-.5-.6-.6-1-.2-.4-.2-1-.2-1.6v-16.5H21v-2.7h-8v-9.6h-1.6c-.4 0-.7.2-.8.3-.2.2-.3.4-.3.7l-.6 8.5-4.3.3v1.4c0 .4.2.7.3.8.2.2.5.3.8.3h3.1v16.6c0 2.1.5 3.7 1.6 4.7 1 1 2.5 1.5 4.3 1.5 1.1 0 2.2-.2 3.2-.7 1-.5 1.9-1.1 2.6-1.8l.2-.3-.9-1.4c-.1-.1-.3-.3-.6-.3zm24.6-19.2c-.9-1-2-1.7-3.3-2.2-1.3-.5-2.6-.8-4.1-.8-1.8 0-3.5.3-5 1-1.5.6-2.7 1.6-3.7 2.7s-1.8 2.5-2.3 4.1c-.5 1.6-.8 3.3-.8 5.1 0 2.2.3 4.1.8 5.8.6 1.7 1.4 3.2 2.4 4.4 1.1 1.2 2.3 2.1 3.8 2.7 1.5.6 3.1.9 4.9.9 1 0 1.9-.1 2.9-.3 1-.2 1.9-.4 2.7-.8.8-.3 1.6-.7 2.3-1.2.7-.5 1.3-1 1.7-1.5l.2-.3-.9-1.1c-.2-.3-.5-.5-.9-.5-.3 0-.6.2-1.1.5-.3.3-.8.6-1.4.9-.6.3-1.4.6-2.2.9-.9.3-1.9.4-3.1.4-1.3 0-2.6-.2-3.6-.7-1.1-.5-2-1.1-2.7-2-.8-.9-1.4-2.1-1.8-3.4-.4-1.4-.6-3-.6-4.8h17.7c.4 0 .7-.1.9-.4.2-.2.2-.6.2-1 0-1.8-.3-3.4-.8-4.8-.6-1.4-1.3-2.6-2.2-3.6zm-.2 7.4H28.9c.2-1.1.4-2 .8-2.9.4-1 1-1.9 1.7-2.6.7-.7 1.5-1.2 2.5-1.6 1-.4 2.1-.6 3.3-.6 1.1 0 2.1.2 2.9.6.9.4 1.7.9 2.3 1.6.6.7 1.1 1.5 1.5 2.5.3.9.5 1.9.5 3zm27.5 10.8c-.4 0-.8.2-1.2.6-.3.3-.7.6-1.2.9-.5.3-1.1.6-1.9.9-.8.3-1.7.4-2.9.4s-2.4-.2-3.4-.7c-1-.4-1.9-1.1-2.6-2-.7-.9-1.3-2-1.7-3.3-.4-1.3-.6-2.8-.6-4.5 0-1.6.2-3.1.6-4.4.4-1.3.9-2.4 1.7-3.3.7-.9 1.6-1.6 2.7-2.1s2.3-.7 3.6-.7c1 0 1.8.1 2.5.3.7.2 1.3.5 1.7.7.5.3.8.5 1.1.7.8.7 1.3.4 1.6.3l.3-.3.9-1.2-.3-.3c-1-.9-2.1-1.7-3.4-2.2-1.3-.5-2.8-.8-4.5-.8-1.9 0-3.6.3-5 1-1.5.7-2.7 1.6-3.7 2.8-1 1.2-1.8 2.6-2.3 4.2-.5 1.6-.8 3.4-.8 5.4 0 2.1.3 3.9.8 5.6.5 1.6 1.3 3.1 2.3 4.2 1 1.1 2.2 2 3.6 2.6 1.4.6 2.9.9 4.6.9 1 0 1.9-.1 2.8-.3.9-.2 1.7-.4 2.5-.8.8-.3 1.5-.7 2.1-1.2.6-.5 1.1-1 1.6-1.5l.2-.3-.9-1.1c-.2-.3-.5-.5-.8-.5zm26.4-18.5c-.7-.9-1.7-1.6-2.8-2-1.1-.5-2.4-.7-3.8-.7-1.9 0-3.7.4-5.2 1.3-1.2.7-2.3 1.5-3.2 2.5v-15h-3.4v37.5h3.4v-19.1c1-1.4 2.2-2.4 3.5-3.2 1.3-.8 2.8-1.2 4.3-1.2 2 0 3.6.6 4.5 1.8 1 1.2 1.5 3 1.5 5.2v16.5h3.4v-16.5c0-1.5-.2-2.9-.6-4.1-.3-1-.9-2.1-1.6-3zm29.2 0c-.7-.9-1.7-1.6-2.8-2-1.1-.5-2.4-.7-3.8-.7-2 0-3.7.5-5.3 1.4-1.2.7-2.3 1.6-3.4 2.7l-.2-2.6c-.1-.6-.6-1-1.2-1H109v26h3.4v-19.1c1-1.4 2.2-2.4 3.5-3.2 1.3-.8 2.8-1.2 4.3-1.2 2 0 3.6.6 4.5 1.8 1 1.2 1.5 3 1.5 5.2v16.5h3.4v-16.5c0-1.5-.2-2.9-.6-4.1-.2-1.2-.8-2.3-1.5-3.2zm29.8 1c-1-1.2-2.3-2.1-3.8-2.7-1.5-.6-3.2-1-5-1s-3.5.3-5 1c-1.5.6-2.7 1.6-3.8 2.7-1 1.2-1.8 2.6-2.3 4.2-.5 1.6-.8 3.5-.8 5.5s.3 3.8.8 5.5c.5 1.6 1.3 3 2.3 4.2 1 1.2 2.3 2.1 3.8 2.7 1.5.6 3.2.9 5 .9 1.8 0 3.5-.3 5-.9 1.5-.6 2.7-1.5 3.8-2.7 1-1.2 1.8-2.6 2.3-4.2.5-1.6.8-3.4.8-5.5 0-2-.3-3.8-.8-5.5-.5-1.6-1.3-3-2.3-4.2zm-.3 9.7c0 1.6-.2 3.1-.5 4.4-.4 1.3-.9 2.4-1.6 3.3-.7.9-1.6 1.6-2.6 2.1s-2.3.7-3.7.7-2.7-.2-3.7-.7c-1-.5-1.9-1.2-2.6-2.1-.7-.9-1.2-2-1.6-3.3-.4-1.3-.5-2.8-.5-4.4 0-1.6.2-3.1.5-4.4.4-1.3.9-2.4 1.6-3.3.7-.9 1.6-1.6 2.6-2.1s2.3-.7 3.7-.7c1.4 0 2.7.2 3.7.7 1 .5 1.9 1.2 2.6 2.1.7.9 1.2 2 1.6 3.3.3 1.3.5 2.8.5 4.4zm11-24.5h3.4v37.5H168zm31.5 14.8c-1-1.2-2.3-2.1-3.8-2.7-1.5-.6-3.2-1-5-1-1.9 0-3.5.3-5 1-1.5.6-2.7 1.6-3.8 2.7-1 1.2-1.8 2.6-2.3 4.2-.5 1.6-.8 3.5-.8 5.5s.3 3.8.8 5.5c.5 1.6 1.3 3 2.3 4.2 1 1.2 2.3 2.1 3.8 2.7 1.5.6 3.2.9 5 .9 1.8 0 3.5-.3 5-.9 1.5-.6 2.7-1.5 3.8-2.7 1-1.2 1.8-2.6 2.3-4.2.5-1.6.8-3.4.8-5.5 0-2-.3-3.8-.8-5.5-.5-1.6-1.3-3-2.3-4.2zm-.3 9.7c0 1.6-.2 3.1-.5 4.4-.3 1.3-.9 2.4-1.6 3.3-.7.9-1.6 1.6-2.6 2.1s-2.3.7-3.7.7c-1.4 0-2.7-.2-3.7-.7-1-.5-1.9-1.2-2.6-2.1-.7-.9-1.2-2-1.6-3.3-.4-1.3-.5-2.8-.5-4.4 0-1.6.2-3.1.5-4.4.4-1.3.9-2.4 1.6-3.3.7-.9 1.6-1.6 2.6-2.1 1.1-.5 2.3-.7 3.7-.7 1.4 0 2.7.2 3.7.7 1 .5 1.9 1.2 2.6 2.1.7.9 1.2 2 1.6 3.3.3 1.3.5 2.8.5 4.4zm22.6-13c-1-.3-2-.4-3.2-.4-1.4 0-2.7.2-3.8.6-1.2.4-2.2 1-3 1.7-.8.7-1.5 1.6-1.9 2.7-.5 1-.7 2.2-.7 3.5 0 1.6.4 3 1.1 4.2.6 1 1.3 1.8 2.3 2.5-.3.2-.5.4-.7.6-.4.4-.8.8-1.1 1.2-.3.4-.5.8-.7 1.3-.2.4-.2.9-.2 1.3 0 1.1.3 1.9.9 2.6.3.3.7.6 1.2.9-1.1.5-2 1.2-2.7 1.9-1 1-1.4 2.3-1.4 3.7 0 1 .2 1.9.7 2.8.5.9 1.2 1.6 2.2 2.3.9.6 2.1 1.2 3.5 1.5 1.4.4 3 .6 4.8.6 1.8 0 3.4-.2 4.8-.7 1.4-.5 2.7-1.1 3.7-1.8 1-.8 1.8-1.7 2.4-2.7.6-1 .8-2.1.8-3.2 0-1.2-.3-2.2-.9-3-.6-.7-1.3-1.3-2.2-1.7-.9-.4-1.9-.7-3-.8-1.1-.2-2.2-.3-3.3-.3-1.1-.1-2.2-.1-3.3-.2-1-.1-2-.2-2.8-.3-.8-.2-1.4-.4-1.8-.8-.4-.3-.6-.7-.6-1.3 0-.4.2-.9.5-1.3s.8-.8 1.3-1.2c1.1.4 2.4.6 3.8.6s2.7-.2 3.8-.6c1.2-.4 2.2-1 3-1.7.8-.7 1.5-1.6 1.9-2.7.5-1 .7-2.2.7-3.5 0-1-.1-1.9-.4-2.7-.2-.6-.4-1.1-.7-1.6l3.1-.2c1-.2 1.1-.9 1.1-1.2v-1.3h-6.8c-.7-.6-1.5-1-2.4-1.3zm3.1 8.2c0 .9-.1 1.7-.4 2.4-.3.7-.7 1.3-1.2 1.8s-1.2.9-1.9 1.2c-.8.3-1.7.4-2.7.4-1 0-1.9-.1-2.7-.4-.8-.3-1.4-.7-1.9-1.2s-.9-1.1-1.2-1.8c-.3-.7-.4-1.5-.4-2.4s.1-1.7.4-2.4c.3-.7.7-1.3 1.2-1.8s1.2-.9 1.9-1.2c.8-.3 1.7-.4 2.7-.4 1 0 1.9.1 2.7.4.8.3 1.4.7 1.9 1.2s.9 1.1 1.2 1.8c.2.7.4 1.5.4 2.4zm-13.8 18.3c.2-.4.5-.9.8-1.2.4-.4.8-.7 1.3-1 .5-.3 1-.6 1.6-.8l2.7.3c1 .1 2 .1 2.9.2.9.1 1.9.1 2.8.2.9.1 1.6.3 2.3.5.6.2 1.1.6 1.5 1 .3.4.5.9.5 1.6 0 .8-.2 1.5-.6 2.1-.4.7-1 1.2-1.8 1.7s-1.7.9-2.7 1.1c-1.1.3-2.2.4-3.4.4-1.3 0-2.5-.1-3.5-.4-1-.3-1.9-.6-2.5-1-.7-.4-1.2-.9-1.5-1.5-.3-.6-.5-1.2-.5-1.8-.1-.5 0-1 .1-1.4zm26.3-26.5h3.3v26h-3.3zm3.6-10c-.2-.2-.5-.4-.8-.6-.7-.3-1.4-.3-2.1 0-.3.1-.6.3-.8.6-.2.2-.4.5-.6.9-.1.3-.2.7-.2 1.1 0 .4.1.7.2 1 .1.3.3.6.6.8.2.2.5.4.8.6.3.1.7.2 1 .2.4 0 .7-.1 1-.2.3-.1.6-.3.8-.6.2-.2.4-.5.6-.8.2-.3.2-.7.2-1.1 0-.4-.1-.7-.2-1.1-.1-.3-.3-.6-.5-.8zm26.5 12.6c-.9-1-2-1.7-3.3-2.2-1.3-.5-2.6-.8-4.1-.8-1.8 0-3.5.3-5 1-1.5.6-2.7 1.6-3.7 2.7s-1.8 2.5-2.3 4.1c-.5 1.6-.8 3.3-.8 5.1 0 2.2.3 4.1.8 5.8.6 1.7 1.4 3.2 2.4 4.4 1.1 1.2 2.3 2.1 3.8 2.7 1.5.6 3.1.9 4.9.9 1 0 1.9-.1 2.9-.3 1-.2 1.9-.4 2.7-.8.9-.3 1.6-.7 2.3-1.2.7-.5 1.3-1 1.7-1.5l.2-.3-.9-1.1c-.2-.3-.5-.5-.9-.5-.3 0-.6.2-1.1.5-.3.3-.8.6-1.4.9-.6.3-1.3.6-2.2.9-.9.3-1.9.4-3.1.4-1.3 0-2.6-.2-3.6-.7-1.1-.5-2-1.1-2.7-2-.8-.9-1.4-2.1-1.8-3.4-.4-1.4-.6-3-.6-4.8h17.7c.4 0 .7-.1.9-.4.2-.2.2-.6.2-1 0-1.8-.3-3.4-.8-4.8s-1.3-2.6-2.2-3.6zm-.1 7.4h-15.6c.2-1 .4-2 .8-2.9.4-1 1-1.9 1.7-2.6.7-.7 1.5-1.2 2.5-1.6 1-.4 2.1-.6 3.3-.6 1.1 0 2.1.2 2.9.6.9.4 1.7.9 2.3 1.6.6.7 1.1 1.5 1.5 2.5.3.9.5 1.9.6 3zm25.3 5.4c-.4-.8-1-1.4-1.7-1.9s-1.5-.9-2.3-1.3c-.9-.3-1.7-.6-2.6-.9-.9-.3-1.7-.5-2.5-.8-.8-.3-1.5-.6-2.1-.9-.6-.3-1.1-.7-1.4-1.2-.3-.4-.5-1-.5-1.7 0-.6.1-1.1.4-1.6.3-.5.6-1 1.1-1.4.5-.4 1.1-.7 1.8-1 .7-.2 1.5-.4 2.3-.4 1 0 1.8.1 2.4.3.7.2 1.2.4 1.7.7.5.2.8.5 1.1.7.5.3.9.5 1.3.4.3-.1.5-.3.7-.6l.7-1.2-.3-.3c-1-.9-2.2-1.7-3.4-2.1-1.2-.5-2.7-.7-4.2-.7-1.3 0-2.5.2-3.6.6-1.1.4-2 .9-2.8 1.6-.8.7-1.4 1.4-1.8 2.3-.4.9-.6 1.8-.6 2.8 0 1.1.2 2.1.7 2.8.4.8 1 1.4 1.7 1.9s1.5.9 2.3 1.3c.8.3 1.7.6 2.6.9.9.3 1.7.5 2.5.8.8.3 1.5.6 2.1.9.6.4 1.1.8 1.4 1.3.3.5.5 1.1.5 1.8s-.1 1.3-.4 2c-.3.6-.6 1.2-1.1 1.6-.5.5-1.1.8-1.8 1.1-.8.3-1.6.4-2.6.4-1.1 0-2-.1-2.7-.4-.7-.3-1.3-.5-1.8-.8-.5-.3-.9-.6-1.2-.8-.9-.8-1.6-.5-1.8-.3-.2.1-.3.3-.4.4l-.8 1.2.3.3c1 .9 2.2 1.7 3.5 2.3 1.3.6 2.9.9 4.7.9 1.5 0 2.8-.2 3.9-.6 1.1-.4 2.1-1 2.9-1.7.8-.7 1.4-1.6 1.8-2.6.4-1 .6-2.1.6-3.2.1-1.2-.1-2.1-.6-2.9z"
     id="path17" />
  <path
     fill="#052dad"
     d="M51.7 103.3c4.5 0 8.5-.8 11.9-2.4 3.4-1.6 6.8-4.1 10.3-7.7V77c-7 .3-12.8.9-17.3 1.8s-8.1 2-10.7 3.4c-2.6 1.3-4.5 2.9-5.5 4.6-1 1.7-1.5 3.6-1.5 5.6 0 4 1.1 6.8 3.3 8.4 2.1 1.7 5.3 2.5 9.5 2.5m40.2 21.4c-3.3 0-5.8-.5-7.5-1.4-1.7-.9-3.1-2.8-4.2-5.6l-2.5-6.4c-2.9 2.5-5.7 4.7-8.5 6.5-2.7 1.9-5.5 3.5-8.4 4.8-2.9 1.3-6 2.3-9.3 2.9-3.3.6-6.9 1-10.9 1-5.3 0-10.2-.7-14.6-2.1-4.4-1.4-8.1-3.4-11.1-6.1-3-2.7-5.4-6.1-7.1-10.1-1.7-4-2.5-8.7-2.5-13.9 0-4.1 1.1-8.4 3.2-12.8s5.8-8.3 10.9-11.9c5.2-3.6 12.2-6.6 21-9 8.8-2.4 19.9-3.8 33.3-4.1v-5c0-6.8-1.4-11.8-4.2-14.8-2.8-3-6.8-4.6-12-4.6-4.1 0-7.5.5-10.2 1.3-2.6.9-5 1.9-7.1 3.1-2.1 1.1-4.1 2.1-6 3-2 .9-4.3 1.4-7 1.4-2.4 0-4.4-.6-6.1-1.8-1.7-1.2-3-2.6-4.1-4.3l-6.3-11c7.2-6.2 15-10.8 23.7-13.9 8.6-3 17.9-4.6 27.7-4.6 7.1 0 13.4 1.1 19.1 3.4 5.7 2.3 10.5 5.5 14.5 9.6 3.9 4.1 7 9 9.1 14.6 2.1 5.6 3.2 11.8 3.2 18.5v73.1H91.9zm102.2-91.5c-.9 1.4-1.9 2.4-2.9 3-1 .6-2.3.9-3.9.9-1.7 0-3.3-.4-5-1.1-1.7-.7-3.4-1.5-5.4-2.3-1.9-.8-4.1-1.6-6.5-2.3-2.4-.7-5.2-1.1-8.2-1.1-4.4 0-7.8.8-10.2 2.5-2.4 1.7-3.6 4-3.6 7.1 0 2.2.8 4 2.3 5.4 1.5 1.4 3.6 2.7 6.2 3.8 2.6 1.1 5.5 2.1 8.7 3.1 3.2 1 6.5 2.1 9.9 3.3 3.4 1.2 6.7 2.6 9.9 4.2s6.1 3.6 8.7 6c2.6 2.4 4.6 5.2 6.1 8.6 1.5 3.4 2.3 7.5 2.3 12.2 0 5.8-1.1 11.1-3.2 16s-5.2 9.1-9.4 12.6-9.3 6.3-15.5 8.2c-6.1 2-13.2 2.9-21.2 2.9-4 0-8-.4-12-1.1-4-.7-7.8-1.8-11.6-3-3.7-1.3-7.2-2.8-10.3-4.6-3.2-1.8-5.9-3.7-8.1-5.7l8.1-12.9c.9-1.5 2-2.7 3.4-3.6 1.4-.9 3.2-1.3 5.4-1.3 2 0 3.9.5 5.5 1.4 1.6.9 3.4 1.9 5.3 2.9 1.9 1.1 4.1 2 6.6 2.9 2.5.9 5.7 1.3 9.5 1.3 2.7 0 5-.3 6.9-.8 1.9-.6 3.4-1.3 4.5-2.3 1.1-1 2-2.1 2.5-3.3.5-1.2.8-2.5.8-3.7 0-2.3-.8-4.2-2.4-5.8-1.6-1.5-3.6-2.8-6.2-3.9s-5.5-2.1-8.8-3c-3.3-.9-6.6-2-10-3.2-3.4-1.2-6.7-2.7-10-4.3-3.3-1.7-6.2-3.8-8.8-6.4-2.6-2.6-4.6-5.8-6.2-9.5-1.6-3.8-2.4-8.3-2.4-13.7 0-5 1-9.7 2.9-14.2s4.8-8.4 8.6-11.8c3.8-3.4 8.6-6.1 14.4-8.1 5.8-2 12.6-3 20.3-3 4.2 0 8.3.4 12.2 1.1 3.9.8 7.7 1.8 11.1 3.2 3.5 1.4 6.6 3 9.5 4.8 2.9 1.8 5.4 3.9 7.6 6l-7.4 12.6zM252.9 60c5.8 0 10-1.5 12.6-4.3 2.6-2.9 3.9-6.6 3.9-11.2 0-4.7-1.3-8.5-3.9-11.2-2.6-2.7-6.8-4.1-12.6-4.1s-10 1.4-12.6 4.1c-2.6 2.7-3.9 6.4-3.9 11.2 0 2.3.3 4.3 1 6.2.6 1.9 1.6 3.5 3 4.9 1.4 1.4 3.1 2.5 5.1 3.3 2.1.7 4.6 1.1 7.4 1.1m27.1 68.9c0-2.8-1.2-4.8-3.7-6-2.5-1.2-5.7-2.1-9.7-2.6-4-.5-8.5-.8-13.4-.9-5-.1-9.9-.4-14.8-1-2.2 1.5-3.9 3.2-5.3 5-1.4 1.8-2 3.9-2 6.3 0 1.6.4 3.2 1.1 4.5.7 1.4 2 2.5 3.8 3.5 1.8 1 4.2 1.7 7.3 2.3 3 .6 6.9.8 11.6.8 5 0 9.2-.3 12.4-.9 3.2-.6 5.8-1.4 7.7-2.5 1.9-1.1 3.3-2.3 4-3.8.6-1.3 1-2.9 1-4.7M252.9 5.6c5 0 9.7.5 14.1 1.5s8.5 2.4 12.2 4.2h35.3V24c0 2-.5 3.5-1.6 4.6-1.1 1.1-3 2-5.6 2.6l-8.6 1.9c1.1 3.4 1.6 6.9 1.6 10.5 0 5.9-1.2 11.1-3.7 15.8-2.4 4.7-5.8 8.6-10 11.9-4.3 3.3-9.3 5.8-15.1 7.6-5.8 1.8-12 2.7-18.6 2.7-3.7 0-7.2-.2-10.4-.7-2.6 1.5-3.8 3.2-3.8 5.2s1 3.4 3.2 4.2c2.1.9 4.9 1.5 8.3 1.8 3.5.3 7.4.6 11.8.7 4.4.1 8.9.4 13.5.8s9.1 1.1 13.5 2.1 8.3 2.6 11.8 4.7c3.5 2.2 6.2 5.1 8.4 8.8 2.1 3.7 3.2 8.3 3.2 13.9 0 5.3-1.3 10.4-3.8 15.5-2.6 5-6.3 9.5-11.3 13.4-5 3.9-11.1 7.1-18.3 9.4-7.2 2.4-15.5 3.6-24.8 3.6-9.2 0-17.1-.9-23.8-2.6-6.7-1.7-12.2-4-16.6-6.8-4.4-2.8-7.7-6.1-9.8-9.8-2.1-3.7-3.2-7.5-3.2-11.5 0-5.2 1.5-9.5 4.5-13s7.2-6.2 12.6-8.4c-2.9-1.7-5.1-3.9-6.8-6.7-1.7-2.7-2.5-6.2-2.5-10.5 0-1.7.3-3.6.9-5.5.6-1.9 1.5-3.8 2.8-5.6 1.3-1.8 2.9-3.5 4.9-5.2 2-1.7 4.3-3.1 7-4.4-6.1-3.2-10.9-7.5-14.4-12.9-3.5-5.3-5.2-11.6-5.2-18.6 0-5.9 1.2-11.2 3.7-15.9 2.5-4.7 5.9-8.7 10.2-12 4.3-3.3 9.4-5.8 15.3-7.6 5.9-1.5 12.3-2.4 19.1-2.4"
     id="path19" />
  <path
     d="M655.3 72.3c.6.2 1 .5 1.4 1 .4.4.7.9 1 1.4.2.6.3 1.1.3 1.8 0 .6-.1 1.2-.3 1.8-.2.5-.5 1-1 1.4-.4.4-.9.7-1.4 1-.5.2-1.1.3-1.8.3-.6 0-1.2-.1-1.8-.3-.5-.2-1-.5-1.4-1-.4-.4-.7-.9-1-1.4-.2-.5-.3-1.1-.3-1.8 0-.6.1-1.2.3-1.8.2-.5.5-1 1-1.4.4-.4.9-.7 1.4-1 .6-.2 1.1-.3 1.8-.3.6-.1 1.2.1 1.8.3zm-3.3.6c-.5.2-.9.5-1.2.8-.3.3-.6.8-.8 1.2-.2.5-.3 1-.3 1.5s.1 1 .3 1.5c.2.5.5.9.8 1.2.3.3.7.6 1.2.8.5.2 1 .3 1.5.3s1-.1 1.5-.3.9-.5 1.2-.8c.3-.3.6-.8.8-1.2.2-.5.3-1 .3-1.5s-.1-1-.3-1.5-.5-.9-.8-1.2c-.3-.3-.7-.6-1.2-.8s-1-.3-1.5-.3c-.6 0-1.1.1-1.5.3zm-.2 6.2v-5.2h2c.6 0 1 .1 1.3.4.3.2.4.6.4 1.1 0 .2 0 .4-.1.6-.1.2-.2.3-.3.4s-.3.2-.4.3c-.2.1-.3.1-.5.2l1.6 2.3h-.8l-1.5-2.3h-1.1v2.3h-.6zm2.1-2.9c.2 0 .4 0 .5-.1.1-.1.3-.1.4-.3.1-.1.1-.3.1-.5s0-.3-.1-.4l-.3-.3c-.1-.1-.2-.1-.4-.1h-1.7v1.8h.8c.3-.1.5-.1.7-.1z"
     class="st0"
     id="path21" />
  <path
     d="M519.4 77.2l-2.8-.4v-1.6h12.9c6.7 0 14.1 1.4 14.1 9.4 0 4.4-4.1 7.5-8.1 8.2l8.4 15.9 2.8.4v1.6h-8.6L529 93.2h-3.5v15.5l2.8.4v1.6h-11.8V109l2.8-.4V77.2zm6.2 14.3h2.3c6.6 0 9.1-2.5 9.1-7.4 0-5.4-3.8-7.3-8.1-7.3-1 0-2.2.2-3.3.3v14.4z"
     class="st0"
     id="path23" />
  <path
     d="M545.9 98.5c0-6.8 4.4-12.9 10.9-12.9s10.9 6 10.9 12.9c0 5.8-4.2 12.8-10.9 12.8s-10.9-5.4-10.9-12.8zm16 0c0-7.2-1.4-11.1-5.1-11.1s-5.1 3.7-5.1 11.1c0 6.8 1.1 11 5.1 11 4 .1 5.1-6.5 5.1-11zm26.8 8.2c-2.7 3.1-5.5 4.7-8.3 4.7-6.6 0-10.7-5-10.7-11.7 0-8 4.8-14 11.9-14 2.3 0 5.7.9 5.7 4.2 0 1.5-1.4 2.5-2.8 2.5-3.7 0-2.7-4.9-4.3-4.9-2.8 0-5.5 2.9-5.5 9.6 0 4.6 2.7 10.5 7.9 10.5 1.9 0 3.2-.7 4.6-2l1.5 1.1zm14.5 4v-1.4l2.8-.5-6.1-10.7-2.3 3.7v6.9l2.4.5v1.4h-10.3v-1.4l2.8-.5V78.5c0-1.7-1-2.2-2.8-2.2V75l7.9-3v26.2h.1l2.8-4.4c2.5-4 6-8.1 8.6-8.1 1.4 0 2.9 1.2 2.9 2.8 0 2.3-1.9 3.2-3.1 3.2-1.2 0-2.2-1.1-3-1.1-1 0-2.5 2.3-2.9 3.1l8.6 15.1 2.4.5v1.4h-10.8zm15.5-11.6c.2 4.1 2.4 8.5 7 8.5 3.1 0 4-1.5 5.6-3.3l1.4 1.1c-2.5 3.6-5.1 6.1-9.7 6.1-5.9 0-9.3-5.8-9.3-11.8 0-6.3 3.2-13.9 10.2-13.9 5.4 0 8.8 4.8 8.8 9.6l-14 3.7zm5.4-3.7c2-.5 2.8-1.6 2.8-4.1 0-2.5-1.5-3.9-3.8-3.9-3.5 0-4.9 4.4-4.9 9.5l5.9-1.5zm10-6.7v-2.3h2.8v-7l5.1-2.9v9.9h5.7v2.3H642v17c0 1.6 1.3 2.4 2.7 2.4 1.3 0 2.4-.8 3.6-1.7l.8 1.4c-1.5 1.8-4.2 3.6-6.6 3.6-4.5 0-5.5-3.4-5.5-5.7v-17h-2.9z"
     class="st0"
     id="path25" />
  <path
     d="M492.8 75.2L489 93l-9.7-3.9 8.8-13.9h-14.4v35.5h35.9V75.2zm.7-3.5l1.6-7.7-4.2 6.7c1 0 1.9.4 2.6 1z"
     class="st0"
     id="path27" />
  <path
     d="M449.3 110.9l-2.2-6.9c0-.1-.1-.2-.2-.2h-16.2c-.1 0-.2.1-.2.2l-2.2 6.9c-.1.3-.3.4-.6.4h-1.8c-.4 0-.5-.2-.4-.6L437 75.3c.1-.3.3-.4.6-.4h2.3c.3 0 .5.1.6.4l11.7 35.5.1.2c0 .2-.2.4-.5.4H450c-.4 0-.6-.2-.7-.5zm-18-9.4c.1.1.1.1.2.1H446c.1 0 .1 0 .2-.1s.1-.1 0-.2l-7.3-22.6c0-.1-.1-.1-.2-.1s-.1 0-.2.1l-7.3 22.6c.1.1.1.1.1.2z"
     class="st0"
     id="path29" />
  <path
     d="M429.5 164.1c-1.7-1.3-2.9-3-3.5-5.2-.5-1.7-.7-3.8-.7-6.5 0-2.6.2-4.7.7-6.5.6-2.1 1.7-3.8 3.4-5.1 1.7-1.3 3.8-1.9 6.3-1.9s4.6.6 6.4 1.9c1.8 1.2 2.9 2.8 3.5 4.7.1.3.2.8.3 1.5v.1c0 .2-.2.4-.5.5l-1.7.2h-.1c-.2 0-.4-.2-.5-.5l-.2-.7c-.3-1.5-1.1-2.7-2.4-3.7-1.3-1-2.9-1.5-4.8-1.5s-3.5.5-4.7 1.5c-1.3 1-2.1 2.3-2.4 4-.3 1.5-.4 3.3-.4 5.6s.1 4.1.4 5.5c.4 1.7 1.2 3.1 2.4 4.1 1.2 1 2.8 1.5 4.7 1.5 1.9 0 3.5-.5 4.8-1.5 1.3-1 2.1-2.2 2.4-3.7l.1-.3c.1-.4.3-.5.6-.5l1.6.3c.3.1.5.2.5.5s-.1.6-.2 1c-.5 1.9-1.6 3.5-3.4 4.8-1.8 1.2-3.9 1.8-6.4 1.8-2.4 0-4.5-.6-6.2-1.9zm25.7 0c-1.7-1.3-2.9-3-3.5-5.2-.4-1.4-.6-3.6-.6-6.5 0-3 .2-5.1.6-6.5.6-2.2 1.8-3.9 3.5-5.1 1.7-1.3 3.8-1.9 6.3-1.9s4.6.6 6.3 1.9c1.7 1.3 2.9 3 3.5 5.1.2.8.3 1.7.4 2.7.1 1 .1 2.2.1 3.8 0 1.6 0 2.9-.1 3.9s-.2 1.9-.4 2.7c-.6 2.2-1.8 3.9-3.5 5.2-1.8 1.3-3.8 1.9-6.3 1.9-2.4-.1-4.5-.7-6.3-2zm11-2.1c1.3-1 2.1-2.4 2.5-4 .2-.9.4-2.8.4-5.5 0-2.8-.1-4.6-.3-5.5-.4-1.7-1.2-3.1-2.5-4.1-1.3-1-2.9-1.5-4.8-1.5s-3.5.5-4.7 1.5c-1.3 1-2.1 2.4-2.5 4.1-.2 1.1-.4 2.9-.4 5.5s.1 4.4.4 5.5c.4 1.7 1.2 3.1 2.5 4.1 1.3 1 2.9 1.5 4.8 1.5 1.8 0 3.3-.6 4.6-1.6zm45.1-20.7c1.5 1.5 2.3 3.6 2.3 6.3v17.5c0 .3-.2.5-.5.5h-1.7c-.3 0-.5-.2-.5-.5v-17c0-2-.6-3.7-1.8-4.9-1.2-1.2-2.8-1.8-4.7-1.8-2 0-3.6.6-4.9 1.8-1.2 1.2-1.8 2.8-1.8 4.8v17.1c0 .3-.2.5-.5.5h-1.7c-.3 0-.5-.2-.5-.5v-17c0-2-.6-3.7-1.8-4.9-1.2-1.2-2.7-1.8-4.6-1.8-2 0-3.7.6-4.9 1.8-1.2 1.2-1.8 2.8-1.8 4.8v17.1c0 .3-.2.5-.5.5h-1.7c-.3 0-.5-.2-.5-.5v-25.2c0-.3.2-.5.5-.5h1.7c.3 0 .5.2.5.5v2.3c0 .1 0 .1.1.2.1 0 .1 0 .2-.1.7-1.1 1.7-1.9 2.9-2.5 1.2-.6 2.6-.8 4.2-.8 1.8 0 3.4.4 4.6 1.2 1.3.8 2.3 1.9 2.9 3.3.1.1.2.2.3.1.7-1.5 1.8-2.6 3.2-3.4 1.4-.8 3-1.1 4.8-1.1 2.6-.1 4.6.6 6.2 2.2zm30.8 7.3c.1 1 .1 2.3.1 3.8 0 2.9-.2 5.1-.5 6.6-.6 2.2-1.7 3.9-3.3 5.1-1.6 1.3-3.7 1.9-6.1 1.9-1.5 0-2.9-.3-4.1-.9-1.2-.6-2.2-1.5-2.9-2.7 0-.1-.1-.1-.2-.1s-.1.1-.1.2v12.8c0 .3-.2.5-.5.5h-1.7c-.3 0-.5-.2-.5-.5v-35.4c0-.3.2-.5.5-.5h1.7c.3 0 .5.2.5.5v2.6c0 .1 0 .2.1.2s.1 0 .2-.1c.7-1.1 1.7-2 2.9-2.7 1.2-.6 2.6-.9 4.1-.9 2.4 0 4.4.6 6 1.9 1.6 1.2 2.7 2.9 3.3 5.1.2.7.4 1.6.5 2.6zm-2.9 7.9c.1-.8.2-2.2.2-4 0-1.8-.1-3.1-.2-3.9-.1-.8-.3-1.6-.5-2.3-.3-1.5-1.1-2.6-2.3-3.5-1.2-.9-2.7-1.4-4.4-1.4-1.6 0-3 .5-4.1 1.4-1.1.9-1.8 2.1-2.2 3.5-.2.6-.4 1.4-.5 2.2-.1.8-.2 2.2-.2 4 0 1.8.1 3.1.2 4 .1.8.3 1.6.6 2.3.3 1.4 1.1 2.6 2.2 3.5 1.1.9 2.5 1.3 4.1 1.3 1.6 0 3-.4 4.2-1.3 1.2-.9 2-2 2.4-3.4.2-.8.4-1.6.5-2.4zm26.8-15.2c1.6 1.6 2.4 3.7 2.4 6.4v17.4c0 .3-.2.5-.5.5h-1.7c-.3 0-.5-.2-.5-.5v-2.4c0-.1 0-.1-.1-.2-.1 0-.1 0-.2.1-.9 1.1-2.1 2-3.5 2.6-1.4.6-3 .9-4.8.9-2.4 0-4.5-.6-6.1-1.8-1.7-1.2-2.5-3.1-2.5-5.6 0-2.6 1-4.6 2.9-6.1s4.5-2.2 7.9-2.2h6.3c.1 0 .2-.1.2-.2v-2.3c0-1.9-.5-3.5-1.6-4.6-1.1-1.1-2.8-1.7-5-1.7-1.8 0-3.2.4-4.4 1.1-1.1.7-1.9 1.7-2.1 2.9-.1.3-.3.5-.6.5l-1.8-.3c-.4-.1-.5-.2-.5-.4.3-1.9 1.3-3.4 3-4.5s3.9-1.7 6.4-1.7c2.9-.3 5.2.5 6.8 2.1zm-2.8 20.7c1.6-1.1 2.4-2.6 2.4-4.5v-4.7c0-.1-.1-.2-.2-.2h-5.9c-2.5 0-4.5.5-6 1.6-1.5 1-2.3 2.5-2.3 4.3 0 1.7.6 3 1.8 3.9 1.2.9 2.7 1.3 4.5 1.3 2.2-.1 4.1-.6 5.7-1.7zm30.3-20.6c1.6 1.6 2.5 3.8 2.5 6.5v17.2c0 .3-.2.5-.5.5h-1.7c-.3 0-.5-.2-.5-.5v-16.7c0-2-.6-3.7-1.9-5-1.3-1.3-2.9-2-4.9-2-2.1 0-3.8.6-5.1 1.9-1.3 1.3-1.9 2.9-1.9 5v16.8c0 .3-.2.5-.5.5h-1.7c-.3 0-.5-.2-.5-.5v-25.2c0-.3.2-.5.5-.5h1.7c.3 0 .5.2.5.5v2.6c0 .1 0 .2.1.2s.1 0 .1-.1c.8-1.2 1.8-2.1 3-2.7 1.3-.6 2.7-.9 4.4-.9 2.6 0 4.8.8 6.4 2.4zm10.2 32.2h.2c1.3 0 2.3-.3 3.1-.7.7-.4 1.4-1.1 1.9-2.2s1.2-2.7 1.9-5c.1-.1.1-.2 0-.3l-9-25.5-.1-.2c0-.2.2-.4.5-.4h1.8c.3 0 .5.1.6.4l7.3 22.1c0 .1.1.1.2.1s.1 0 .2-.1l7.2-22.1c.1-.3.3-.4.6-.4h1.8c.4 0 .5.2.4.6l-9.8 28.3c-.8 2.3-1.5 3.9-2.2 5s-1.5 1.8-2.5 2.2c-1 .4-2.3.6-4 .6h-.2c-.3 0-.5-.2-.5-.5v-1.4c.1-.3.3-.5.6-.5z"
     class="st0"
     id="path31" />
  <path
     d="m 278.68872,289.44547 c 0.81558,0.6605 1.21762,1.76325 1.21762,3.31398 0,1.545 -0.40204,2.67647 -1.21762,3.3944 -0.81557,0.7122 -1.95853,1.06829 -3.42311,1.06829 h -5.79517 v -8.76455 h 5.79517 c 1.46459,0 2.60754,0.33312 3.42311,0.98788 z m 4.71541,10.72308 c 1.77473,-1.4531 2.66497,-3.93429 2.66497,-7.4493 0,-3.21635 -0.89024,-5.59415 -2.66497,-7.12766 -1.78049,-1.53351 -4.16403,-2.30314 -7.15064,-2.30314 h -12.96304 v 29.76273 h 6.17999 v -10.70011 h 6.31783 c 3.29676,0 5.83538,-0.72942 7.61586,-2.18252 z M 296.953,288.45759 h 7.22531 c 1.34971,0 2.35483,0.17805 3.03256,0.5284 1.19464,0.61455 1.79196,1.82642 1.79196,3.62988 0,1.67135 -0.61455,2.78559 -1.85514,3.35419 -0.70071,0.32164 -1.75176,0.48246 -3.14743,0.48246 H 296.953 Z m 13.33637,-4.39951 c -1.12572,-0.47097 -2.73389,-0.72943 -4.81878,-0.76963 h -14.59993 v 29.76273 h 6.08234 v -11.67075 h 6.42122 c 1.82643,0 3.07851,0.31588 3.74475,0.94767 0.66624,0.63178 1.01085,1.90109 1.03957,3.79644 l 0.0402,2.76836 c 0.0115,0.87301 0.0976,1.72879 0.2642,2.5616 0.0804,0.40778 0.21252,0.93618 0.40205,1.59668 h 6.84623 v -0.74665 c -0.59732,-0.36184 -0.97064,-0.93044 -1.13146,-1.69433 -0.10913,-0.48819 -0.16082,-1.40715 -0.16082,-2.76836 v -1.99873 c 0,-2.08488 -0.28718,-3.63562 -0.86153,-4.65222 -0.5686,-1.0166 -1.54499,-1.80346 -2.91769,-2.35483 1.64264,-0.56286 2.82006,-1.52777 3.53225,-2.89472 0.71793,-1.36695 1.07403,-2.75687 1.07403,-4.16977 0,-1.17167 -0.18954,-2.21698 -0.56861,-3.13019 -0.37333,-0.91896 -0.88449,-1.75176 -1.53351,-2.50416 -0.78111,-0.91896 -1.73453,-1.60818 -2.85451,-2.07914 z m 29.33772,21.82524 c -1.44736,1.82068 -3.40588,2.72815 -5.86409,2.72815 -2.46396,0 -4.43397,-0.90747 -5.89857,-2.72815 -1.46458,-1.81494 -2.19975,-4.39951 -2.19975,-7.75371 0,-3.34845 0.73517,-5.93302 2.19975,-7.7537 1.4646,-1.81494 3.43461,-2.72815 5.89857,-2.72815 2.45821,0 4.41673,0.91321 5.86409,2.73964 1.44736,1.82068 2.17104,4.40525 2.17104,7.74221 0,3.3542 -0.72368,5.93877 -2.17104,7.75371 z m 3.88834,4.52586 c 2.9981,-2.84303 4.50289,-6.93239 4.50289,-12.27957 0,-5.45057 -1.50479,-9.54567 -4.50289,-12.27383 -2.25144,-2.32036 -5.50226,-3.4748 -9.75243,-3.4748 -4.25593,0 -7.50674,1.15444 -9.75244,3.47481 -3.01533,2.72815 -4.52587,6.82326 -4.52587,12.27382 0,5.34719 1.51054,9.43654 4.52587,12.27957 2.2457,2.31462 5.49651,3.46907 9.75244,3.46907 4.25017,0 7.50099,-1.15445 9.75243,-3.46907 z m 15.36382,-28.0282 -11.52717,30.6702 h 4.74412 l 11.56737,-30.6702 z m 9.00578,19.38426 h -5.87558 v 0.68347 c 0,3.50353 0.6605,6.26615 1.97576,8.29359 1.32099,2.02171 3.91131,3.03831 7.77668,3.03831 3.86536,0 6.53608,-1.25208 8.0179,-3.75624 0.87301,-1.48182 1.30951,-3.4863 1.30951,-6.01917 v -20.71675 h -6.22019 v 20.82013 c 0,1.43587 -0.13785,2.46395 -0.41927,3.06702 -0.47097,1.02234 -1.44162,1.53351 -2.91195,1.53351 -1.47608,0 -2.44673,-0.46522 -2.89472,-1.40141 -0.45373,-0.93618 -0.70644,-2.55585 -0.75814,-4.85899 z m 22.25026,-15.36382 c -2.78559,2.80857 -4.18126,6.81752 -4.18126,12.00963 0,4.80729 1.22911,8.59225 3.67583,11.34912 2.45247,2.74539 5.81815,4.11808 10.09705,4.11808 3.45757,0 6.29485,-1.0166 8.51184,-3.0498 2.21698,-2.02744 3.58968,-4.66945 4.12957,-7.91452 h -6.15702 c -0.41927,1.53352 -0.94193,2.68795 -1.57946,3.45184 -1.14295,1.43013 -2.80282,2.14232 -4.98534,2.14232 -2.12509,0 -3.8826,-0.83281 -5.26103,-2.49267 -1.37844,-1.66561 -2.06766,-4.16403 -2.06766,-7.50099 0,-3.33697 0.65476,-5.92154 1.95853,-7.74222 1.30377,-1.82642 3.09,-2.73964 5.35292,-2.73964 2.21699,0 3.89409,0.64901 5.02556,1.9413 0.63178,0.72367 1.14869,1.80345 1.55648,3.22783 h 6.21445 c -0.0919,-1.85514 -0.77537,-3.70454 -2.05616,-5.55394 -2.31463,-3.27953 -5.97897,-4.92217 -10.98729,-4.92217 -3.73901,0 -6.82326,1.22336 -9.24701,3.67583 z m 26.97715,-3.11297 v 29.76273 h 20.95797 V 307.704 h -14.73778 v -24.41555 z"
     id="path33"
     style="stroke-width:0.609388"
     sodipodi:nodetypes="cscsccsccscsccccsccscscsccccccccsscccccccsscccsccccscscscsccscscscsccccccccscscsccscsccccscsccccscscsccccscccccccc" />
</svg>
