<?xml version="1.0" encoding="UTF-8" standalone="no"?>
<!-- Generator: Adobe Illustrator 23.0.1, SVG Export Plug-In . SVG Version: 6.00 Build 0) -->

<svg
   id="Layer_1"
   x="0px"
   y="0px"
   viewBox="0 0 398.30011 201.11874"
   xml:space="preserve"
   version="1.1"
   width="398.30011"
   height="201.11874"
   xmlns="http://www.w3.org/2000/svg"
   xmlns:svg="http://www.w3.org/2000/svg"><defs
   id="defs31" /> <style
   type="text/css"
   id="style1"> .st0{fill:#4C83C3;} </style> <g
   id="g31"
   transform="translate(9.6566519e-5,-42.099998)"> <polygon
   class="st0"
   points="336.1,42.1 398.3,42.1 398.3,53.5 332,53.5 "
   id="polygon1" /> <path
   class="st0"
   d="m 221.5,42.1 h 61.6 l 4,11.5 c 0,0 -65.6,0 -65.6,0 0.1,-0.1 0,-11.5 0,-11.5 z"
   id="path1" /> <path
   class="st0"
   d="m 172.7,42.1 c 10.1,1 19,4.6 26.5,11.5 0,0 -111.6,0 -111.6,0 0,0 0,-11.5 0,-11.5 z"
   id="path2" /> <g
   id="g3"> <rect
   x="0"
   y="42.099998"
   class="st0"
   width="77.5"
   height="11.4"
   id="rect2" /> <path
   class="st0"
   d="M 38.8,47.8"
   id="path3" /> </g> <path
   class="st0"
   d="m 398.3,75 h -73.9 c 0,0 4,-11.4 4,-11.4 h 69.9 z"
   id="path4" /> <polygon
   class="st0"
   points="221.5,63.6 290.7,63.6 294.8,75 221.5,75 "
   id="polygon4" /> <path
   class="st0"
   d="m 207.8,63.6 c 1.5,3.8 3.2,7 3.2,11.4 H 87.6 V 63.6 Z"
   id="path5" /> <g
   id="g6"> <rect
   x="0"
   y="63.599998"
   class="st0"
   width="77.5"
   height="11.4"
   id="rect5" /> <path
   class="st0"
   d="M 38.8,69.3"
   id="path6" /> </g> <polygon
   class="st0"
   points="376.4,85.1 376.4,96.5 316.8,96.5 320.9,85.1 "
   id="polygon6" /> <polygon
   class="st0"
   points="243.4,96.5 243.4,85.1 298.3,85.1 302.4,96.5 "
   id="polygon7" /> <path
   class="st0"
   d="m 212,85 c 0,3.9 -0.5,8 -1.6,11.4 H 176.6 V 85 Z"
   id="path7" /> <g
   id="g8"> <rect
   x="21.6"
   y="85.099998"
   class="st0"
   width="33.299999"
   height="11.4"
   id="rect7" /> <path
   class="st0"
   d="M 38.3,90.8"
   id="path8" /> </g> <g
   id="g9"> <rect
   x="110"
   y="85"
   class="st0"
   width="33.299999"
   height="11.4"
   id="rect8" /> <path
   class="st0"
   d="M 126.6,90.8"
   id="path9" /> </g> <path
   class="st0"
   d="m 276.1,108.8 c 0,0 0,8.7 0,8.7 h -32.8 v -11.4 h 62.4 l 3.9,10.6 c 0,0 3.7,-10.6 3.7,-10.6 h 62.9 v 11.4 h -32.6 c 0,0 0,-8.7 0,-8.7 l -3,8.7 H 279 Z"
   id="path10" /> <path
   class="st0"
   d="m 110,106.1 h 95.5 v 0 c -2.1,3.8 -5.9,8.4 -9.5,11.4 0,0 -86,0 -86,0 z"
   id="path11" /> <g
   id="g12"> <rect
   x="21.6"
   y="106.1"
   class="st0"
   width="33.299999"
   height="11.4"
   id="rect11" /> <path
   class="st0"
   d="M 38.3,111.8"
   id="path12" /> </g> <g
   id="g13"> <rect
   x="343.79999"
   y="127.6"
   class="st0"
   width="32.599998"
   height="11.4"
   id="rect12" /> <path
   class="st0"
   d="M 360.1,133.3"
   id="path13" /> </g> <path
   class="st0"
   d="M 276.1,127.6 H 243.3 V 139 c 0,0 32.8,0 32.8,0 0,-0.1 0.1,-11.4 0,-11.4 z"
   id="path14" /> <path
   class="st0"
   d="m 337.2,127.6 c -0.1,0 -3.8,11.4 -4,11.4 h -46.4 c 0,0 -4.1,-11.4 -4.1,-11.4 z"
   id="path15" /> <path
   class="st0"
   d="m 110,127.6 h 85.8 c 3.9,3.3 7.5,7.3 10.2,11.4 0.2,0 -96.1,0 -96.1,0 0.1,-0.1 0.1,-11.4 0.1,-11.4 z"
   id="path16" /> <path
   class="st0"
   d="M 54.9,138.9 V 127.5 H 21.7 c 0,0 0,11.4 0,11.4 z"
   id="path17" /> <g
   id="g18"> <rect
   x="343.79999"
   y="149"
   class="st0"
   width="32.599998"
   height="11.4"
   id="rect17" /> <path
   class="st0"
   d="M 360.1,154.7"
   id="path18" /> </g> <g
   id="g19"> <rect
   x="243.39999"
   y="149"
   class="st0"
   width="32.799999"
   height="11.4"
   id="rect18" /> <path
   class="st0"
   d="M 259.8,154.7"
   id="path19" /> </g> <path
   class="st0"
   d="m 325.6,160.4 c 0,-0.1 4,-11.4 4.1,-11.4 h -39.5 c -0.1,0 4,11.4 4,11.4 0,0 31.4,0.1 31.4,0 z"
   id="path20" /> <path
   class="st0"
   d="m 110,160.4 c 0,0 0,-11.4 0,-11.4 h 33.8 c 0,0 0,11.4 0,11.4 -0.1,0 -33.8,0 -33.8,0 z"
   id="path21" /> <path
   class="st0"
   d="m 210.8,149 c 1.6,3.4 1.8,7.5 2.1,11.4 H 177.1 V 149 Z"
   id="path22" /> <g
   id="g23"> <rect
   x="21.700001"
   y="149"
   class="st0"
   width="33.299999"
   height="11.4"
   id="rect22" /> <path
   class="st0"
   d="M 38.3,154.7"
   id="path23" /> </g> <g
   id="g24"> <rect
   x="343.79999"
   y="170"
   class="st0"
   width="54.5"
   height="11.4"
   id="rect23" /> <path
   class="st0"
   d="M 371,175.7"
   id="path24" /> </g> <g
   id="g25"> <rect
   x="221.5"
   y="170"
   class="st0"
   width="54.599998"
   height="11.4"
   id="rect24" /> <path
   class="st0"
   d="M 248.8,175.7"
   id="path25" /> </g> <polygon
   class="st0"
   points="297.6,170 322.1,170 318.2,181.4 301.6,181.4 "
   id="polygon25" /> <path
   class="st0"
   d="m 0,170 v 11.4 h 77.5 c 0,0 0,-11.4 0,-11.4 0,0 -77.6,0 -77.5,0 z"
   id="path26" /> <path
   class="st0"
   d="m 211.5,170 c -0.8,3.8 -1.6,8.3 -4.3,11.4 h -1 H 87.6 V 170 Z"
   id="path27" /> <polygon
   class="st0"
   points="305.3,191.5 314.7,191.5 310.7,202.9 309.2,202.9 "
   id="polygon27" /> <g
   id="g28"> <rect
   x="343.79999"
   y="191.5"
   class="st0"
   width="54.5"
   height="11.4"
   id="rect27" /> <path
   class="st0"
   d="M 371,197.2"
   id="path28" /> </g> <path
   class="st0"
   d="m 87.6,202.9 v -11.4 c 0,0 111.9,0 112.2,0 -7.5,7.2 -17.8,11.2 -28.9,11.4 H 87.6"
   id="path29" /> <g
   id="g30"> <rect
   x="221.5"
   y="191.5"
   class="st0"
   width="54.599998"
   height="11.4"
   id="rect29" /> <path
   class="st0"
   d="M 248.8,197.2"
   id="path30" /> </g> <path
   class="st0"
   d="m 77.5,191.5 c 0,0 0,11.4 0,11.4 0,0 -77.4,0 -77.5,0 0,0 0,-11.4 0,-11.4 0,0 77.4,0.1 77.5,0 z"
   id="path31" /> </g> <path
   d="m 189.99619,201.11874 h -1.46875 v -4.20312 q -0.67969,0.58594 -1.35157,0.875 -0.67187,0.28125 -1.45312,0.28125 -1.55469,0 -2.48438,-1.19531 -0.92187,-1.20313 -0.92187,-3.3125 0,-1.125 0.32031,-1.98438 0.32813,-0.86719 0.85938,-1.45312 0.51562,-0.57032 1.21093,-0.88282 0.69532,-0.3125 1.46875,-0.3125 0.70313,0 1.24219,0.15625 0.54688,0.15625 1.10938,0.46094 l 0.0937,-0.375 h 1.375 z m -1.46875,-5.4375 v -4.9375 q -0.60938,-0.27343 -1.07813,-0.38281 -0.46875,-0.10937 -1.01562,-0.10937 -1.27344,0 -1.9375,0.86718 -0.66407,0.85938 -0.66407,2.375 0,1.53125 0.53125,2.35938 0.53907,0.82031 1.6875,0.82031 0.64063,0 1.28125,-0.27344 0.64063,-0.28125 1.19532,-0.71875 z m 10.8125,1.67188 q -0.73438,0.35156 -1.39844,0.54687 -0.65625,0.19532 -1.39844,0.19532 -0.94531,0 -1.73437,-0.27344 -0.78907,-0.28125 -1.35157,-0.84375 -0.57031,-0.5625 -0.88281,-1.42188 -0.3125,-0.85937 -0.3125,-2.00781 0,-2.14062 1.17188,-3.35937 1.17968,-1.21875 3.10937,-1.21875 0.75,0 1.46875,0.21093 0.72656,0.21094 1.32813,0.51563 v 1.63281 h -0.0781 q -0.67187,-0.52344 -1.39062,-0.80469 -0.71094,-0.28125 -1.39063,-0.28125 -1.25,0 -1.97656,0.84375 -0.71875,0.83594 -0.71875,2.46094 0,1.57813 0.70312,2.42969 0.71094,0.84375 1.99219,0.84375 0.44531,0 0.90625,-0.11719 0.46094,-0.11719 0.82813,-0.30469 0.32031,-0.16406 0.60156,-0.34375 0.28125,-0.1875 0.44531,-0.32031 h 0.0781 z m 3.36718,0.54687 h -1.46875 v -12.15625 h 1.46875 z m 4.48438,-10.1875 h -1.65625 v -1.52343 h 1.65625 z m -0.0937,10.1875 H 205.629 v -8.72656 h 1.46875 z m 10.58594,-4.42968 q 0,1.09375 -0.3125,1.96875 -0.30469,0.875 -0.82813,1.46875 -0.55469,0.61718 -1.21875,0.92968 -0.66406,0.30469 -1.46094,0.30469 -0.74218,0 -1.29687,-0.17969 -0.55469,-0.17187 -1.09375,-0.46875 l -0.0937,0.40625 h -1.375 v -12.15625 h 1.46875 v 4.34375 q 0.61719,-0.50781 1.3125,-0.82812 0.69531,-0.32813 1.5625,-0.32813 1.54687,0 2.4375,1.1875 0.89844,1.1875 0.89844,3.35157 z m -1.51563,0.0391 q 0,-1.5625 -0.51562,-2.36719 -0.51563,-0.8125 -1.66407,-0.8125 -0.64062,0 -1.29687,0.28125 -0.65625,0.27344 -1.21875,0.71094 v 5 q 0.625,0.28125 1.07031,0.39062 0.45313,0.10938 1.02344,0.10938 1.21875,0 1.90625,-0.79688 0.69531,-0.80468 0.69531,-2.51562 z"
   id="text31"
   style="font-size:16px;text-anchor:middle"
   aria-label="qclib" /></svg>
