<?xml version="1.0" encoding="UTF-8" standalone="no"?>
<svg
   xmlns:dc="http://purl.org/dc/elements/1.1/"
   xmlns:cc="http://creativecommons.org/ns#"
   xmlns:rdf="http://www.w3.org/1999/02/22-rdf-syntax-ns#"
   xmlns:svg="http://www.w3.org/2000/svg"
   xmlns="http://www.w3.org/2000/svg"
   xmlns:sodipodi="http://sodipodi.sourceforge.net/DTD/sodipodi-0.dtd"
   xmlns:inkscape="http://www.inkscape.org/namespaces/inkscape"
   inkscape:version="1.0beta2 (2b71d25, 2019-12-03)"
   sodipodi:docname="qclib.svg"
   version="1.1"
   xml:space="preserve"
   style="enable-background:new 0 0 400 245;"
   viewBox="0 0 400 245"
   y="0px"
   x="0px"
   id="Layer_1"><metadata
   id="metadata391"><rdf:RDF><cc:Work
       rdf:about=""><dc:format>image/svg+xml</dc:format><dc:type
         rdf:resource="http://purl.org/dc/dcmitype/StillImage" /><dc:title></dc:title></cc:Work></rdf:RDF></metadata><defs
   id="defs389" /><sodipodi:namedview
   inkscape:document-rotation="0"
   inkscape:current-layer="Layer_1"
   inkscape:window-maximized="0"
   inkscape:window-y="53"
   inkscape:window-x="433"
   inkscape:cy="135.77421"
   inkscape:cx="421.06642"
   inkscape:zoom="0.97934289"
   showgrid="false"
   id="namedview387"
   inkscape:window-height="740"
   inkscape:window-width="1118"
   inkscape:pageshadow="2"
   inkscape:pageopacity="0"
   guidetolerance="10"
   gridtolerance="10"
   objecttolerance="10"
   borderopacity="1"
   bordercolor="#666666"
   pagecolor="#ffffff" /><style
   id="style256"
   type="text/css"> .st0{fill:#4C83C3;} </style><g
   transform="translate(0,-28)"
   id="g384"><polygon
     style="fill:#4c83c3"
     id="polygon258"
     points="336.1,42.1 398.3,42.1 398.3,53.5 332,53.5 "
     class="st0" /><path
     style="fill:#4c83c3"
     inkscape:connector-curvature="0"
     id="path260"
     d="m 221.5,42.1 h 61.6 l 4,11.5 c 0,0 -65.6,0 -65.6,0 0.1,-0.1 0,-11.5 0,-11.5 z"
     class="st0" /><path
     style="fill:#4c83c3"
     inkscape:connector-curvature="0"
     id="path262"
     d="m 172.7,42.1 c 10.1,1 19,4.6 26.5,11.5 0,0 -111.6,0 -111.6,0 0,0 0,-11.5 0,-11.5 z"
     class="st0" /><g
     id="g268"><rect
       style="fill:#4c83c3"
       id="rect264"
       height="11.4"
       width="77.5"
       class="st0"
       y="42.099998"
       x="0" /><path
       style="fill:#4c83c3"
       inkscape:connector-curvature="0"
       id="path266"
       d="M 38.8,47.8"
       class="st0" /></g><path
     style="fill:#4c83c3"
     inkscape:connector-curvature="0"
     id="path270"
     d="m 398.3,75 h -73.9 c 0,0 4,-11.4 4,-11.4 h 69.9 z"
     class="st0" /><polygon
     style="fill:#4c83c3"
     id="polygon272"
     points="221.5,63.6 290.7,63.6 294.8,75 221.5,75 "
     class="st0" /><path
     style="fill:#4c83c3"
     inkscape:connector-curvature="0"
     id="path274"
     d="m 207.8,63.6 c 1.5,3.8 3.2,7 3.2,11.4 H 87.6 V 63.6 Z"
     class="st0" /><g
     id="g280"><rect
       style="fill:#4c83c3"
       id="rect276"
       height="11.4"
       width="77.5"
       class="st0"
       y="63.599998"
       x="0" /><path
       style="fill:#4c83c3"
       inkscape:connector-curvature="0"
       id="path278"
       d="M 38.8,69.3"
       class="st0" /></g><polygon
     style="fill:#4c83c3"
     id="polygon282"
     points="376.4,85.1 376.4,96.5 316.8,96.5 320.9,85.1 "
     class="st0" /><polygon
     style="fill:#4c83c3"
     id="polygon284"
     points="243.4,96.5 243.4,85.1 298.3,85.1 302.4,96.5 "
     class="st0" /><path
     style="fill:#4c83c3"
     inkscape:connector-curvature="0"
     id="path286"
     d="m 212,85 c 0,3.9 -0.5,8 -1.6,11.4 H 176.6 V 85 Z"
     class="st0" /><g
     id="g292"><rect
       style="fill:#4c83c3"
       id="rect288"
       height="11.4"
       width="33.299999"
       class="st0"
       y="85.099998"
       x="21.6" /><path
       style="fill:#4c83c3"
       inkscape:connector-curvature="0"
       id="path290"
       d="M 38.3,90.8"
       class="st0" /></g><g
     id="g298"><rect
       style="fill:#4c83c3"
       id="rect294"
       height="11.4"
       width="33.299999"
       class="st0"
       y="85"
       x="110" /><path
       style="fill:#4c83c3"
       inkscape:connector-curvature="0"
       id="path296"
       d="M 126.6,90.8"
       class="st0" /></g><path
     style="fill:#4c83c3"
     inkscape:connector-curvature="0"
     id="path300"
     d="m 276.1,108.8 c 0,0 0,8.7 0,8.7 h -32.8 v -11.4 h 62.4 l 3.9,10.6 c 0,0 3.7,-10.6 3.7,-10.6 h 62.9 v 11.4 h -32.6 c 0,0 0,-8.7 0,-8.7 l -3,8.7 H 279 Z"
     class="st0" /><path
     style="fill:#4c83c3"
     inkscape:connector-curvature="0"
     id="path302"
     d="m 110,106.1 h 95.5 v 0 c -2.1,3.8 -5.9,8.4 -9.5,11.4 0,0 -86,0 -86,0 0,0 0,-11.4 0,-11.4 z"
     class="st0" /><g
     id="g308"><rect
       style="fill:#4c83c3"
       id="rect304"
       height="11.4"
       width="33.299999"
       class="st0"
       y="106.1"
       x="21.6" /><path
       style="fill:#4c83c3"
       inkscape:connector-curvature="0"
       id="path306"
       d="M 38.3,111.8"
       class="st0" /></g><g
     id="g314"><rect
       style="fill:#4c83c3"
       id="rect310"
       height="11.4"
       width="32.599998"
       class="st0"
       y="127.6"
       x="343.79999" /><path
       style="fill:#4c83c3"
       inkscape:connector-curvature="0"
       id="path312"
       d="M 360.1,133.3"
       class="st0" /></g><path
     style="fill:#4c83c3"
     inkscape:connector-curvature="0"
     id="path316"
     d="M 276.1,127.6 H 243.3 V 139 c 0,0 32.8,0 32.8,0 0,-0.1 0.1,-11.4 0,-11.4 z"
     class="st0" /><path
     style="fill:#4c83c3"
     inkscape:connector-curvature="0"
     id="path318"
     d="m 337.2,127.6 c -0.1,0 -3.8,11.4 -4,11.4 h -46.4 c 0,0 -4.1,-11.4 -4.1,-11.4 z"
     class="st0" /><path
     style="fill:#4c83c3"
     inkscape:connector-curvature="0"
     id="path320"
     d="m 110,127.6 h 85.8 c 3.9,3.3 7.5,7.3 10.2,11.4 0.2,0 -96.1,0 -96.1,0 0.1,-0.1 0.1,-11.4 0.1,-11.4 z"
     class="st0" /><path
     style="fill:#4c83c3"
     inkscape:connector-curvature="0"
     id="path322"
     d="M 54.9,138.9 V 127.5 H 21.7 c 0,0 0,11.4 0,11.4 0,0 33.2,0 33.2,0 z"
     class="st0" /><g
     id="g328"><rect
       style="fill:#4c83c3"
       id="rect324"
       height="11.4"
       width="32.599998"
       class="st0"
       y="149"
       x="343.79999" /><path
       style="fill:#4c83c3"
       inkscape:connector-curvature="0"
       id="path326"
       d="M 360.1,154.7"
       class="st0" /></g><g
     id="g334"><rect
       style="fill:#4c83c3"
       id="rect330"
       height="11.4"
       width="32.799999"
       class="st0"
       y="149"
       x="243.39999" /><path
       style="fill:#4c83c3"
       inkscape:connector-curvature="0"
       id="path332"
       d="M 259.8,154.7"
       class="st0" /></g><path
     style="fill:#4c83c3"
     inkscape:connector-curvature="0"
     id="path336"
     d="m 325.6,160.4 c 0,-0.1 4,-11.4 4.1,-11.4 h -39.5 c -0.1,0 4,11.4 4,11.4 0,0 31.4,0.1 31.4,0 z"
     class="st0" /><path
     style="fill:#4c83c3"
     inkscape:connector-curvature="0"
     id="path338"
     d="m 110,160.4 c 0,0 0,-11.4 0,-11.4 h 33.8 c 0,0 0,11.4 0,11.4 -0.1,0 -33.8,0 -33.8,0 z"
     class="st0" /><path
     style="fill:#4c83c3"
     inkscape:connector-curvature="0"
     id="path340"
     d="m 210.8,149 c 1.6,3.4 1.8,7.5 2.1,11.4 H 177.1 V 149 Z"
     class="st0" /><g
     id="g346"><rect
       style="fill:#4c83c3"
       id="rect342"
       height="11.4"
       width="33.299999"
       class="st0"
       y="149"
       x="21.700001" /><path
       style="fill:#4c83c3"
       inkscape:connector-curvature="0"
       id="path344"
       d="M 38.3,154.7"
       class="st0" /></g><g
     id="g352"><rect
       style="fill:#4c83c3"
       id="rect348"
       height="11.4"
       width="54.5"
       class="st0"
       y="170"
       x="343.79999" /><path
       style="fill:#4c83c3"
       inkscape:connector-curvature="0"
       id="path350"
       d="M 371,175.7"
       class="st0" /></g><g
     id="g358"><rect
       style="fill:#4c83c3"
       id="rect354"
       height="11.4"
       width="54.599998"
       class="st0"
       y="170"
       x="221.5" /><path
       style="fill:#4c83c3"
       inkscape:connector-curvature="0"
       id="path356"
       d="M 248.8,175.7"
       class="st0" /></g><polygon
     style="fill:#4c83c3"
     id="polygon360"
     points="297.6,170 322.1,170 318.2,181.4 301.6,181.4 "
     class="st0" /><path
     style="fill:#4c83c3"
     inkscape:connector-curvature="0"
     id="path362"
     d="m 0,170 v 11.4 h 77.5 c 0,0 0,-11.4 0,-11.4 0,0 -77.6,0 -77.5,0 z"
     class="st0" /><path
     style="fill:#4c83c3"
     inkscape:connector-curvature="0"
     id="path364"
     d="m 211.5,170 c -0.8,3.8 -1.6,8.3 -4.3,11.4 h -1 H 87.6 V 170 Z"
     class="st0" /><polygon
     style="fill:#4c83c3"
     id="polygon366"
     points="305.3,191.5 314.7,191.5 310.7,202.9 309.2,202.9 "
     class="st0" /><g
     id="g372"><rect
       style="fill:#4c83c3"
       id="rect368"
       height="11.4"
       width="54.5"
       class="st0"
       y="191.5"
       x="343.79999" /><path
       style="fill:#4c83c3"
       inkscape:connector-curvature="0"
       id="path370"
       d="M 371,197.2"
       class="st0" /></g><path
     style="fill:#4c83c3"
     inkscape:connector-curvature="0"
     id="path374"
     d="m 87.6,202.9 v -11.4 c 0,0 111.9,0 112.2,0 -7.5,7.2 -17.8,11.2 -28.9,11.4 H 87.6"
     class="st0" /><g
     id="g380"><rect
       style="fill:#4c83c3"
       id="rect376"
       height="11.4"
       width="54.599998"
       class="st0"
       y="191.5"
       x="221.5" /><path
       style="fill:#4c83c3"
       inkscape:connector-curvature="0"
       id="path378"
       d="M 248.8,197.2"
       class="st0" /></g><path
     style="fill:#4c83c3"
     inkscape:connector-curvature="0"
     id="path382"
     d="m 77.5,191.5 c 0,0 0,11.4 0,11.4 0,0 -77.4,0 -77.5,0 0,0 0,-11.4 0,-11.4 0,0 77.4,0.1 77.5,0 z"
     class="st0" /></g><text
   id="text395"
   y="216.40939"
   x="104.15147"
   style="font-style:normal;font-weight:normal;font-size:40px;line-height:1.25;font-family:sans-serif;letter-spacing:0px;word-spacing:0px;fill:#000000;fill-opacity:1;stroke:none"
   xml:space="preserve" />
<g
   style="font-style:normal;font-weight:normal;font-size:40px;line-height:1.25;font-family:sans-serif;fill:#000000;fill-opacity:1;stroke:none"
   id="text510"
   aria-label="qclib"><path
     d="m 202.59766,194.25 v 30.39062 h 3.67187 V 194.25 Z m 21.99218,0 v 30.39062 h 3.4375 l 0.23438,-1.01562 c 0.89844,0.49479 1.80989,0.88542 2.73437,1.17188 0.92448,0.29948 2.00522,0.44921 3.24219,0.44921 1.32813,0 2.54557,-0.2539 3.65234,-0.76171 1.10677,-0.52084 2.1224,-1.29558 3.04688,-2.32422 0.8724,-0.98958 1.5625,-2.21355 2.07031,-3.67188 0.52084,-1.45833 0.78125,-3.09895 0.78125,-4.92187 0,-3.60677 -0.74869,-6.39974 -2.24609,-8.37891 -1.48437,-1.97917 -3.51562,-2.96875 -6.09375,-2.96875 -1.44531,0 -2.7474,0.27344 -3.90625,0.82031 -1.15885,0.53386 -2.2526,1.22396 -3.28125,2.07032 V 194.25 Z m -11.21093,1.11328 v 3.8086 h 4.14062 v -3.8086 z m -48.45703,6.85547 c -1.28907,0 -2.51303,0.26042 -3.67188,0.78125 -1.15885,0.52083 -2.16797,1.25651 -3.02734,2.20703 -0.88542,0.97656 -1.60157,2.1875 -2.14844,3.63281 -0.53385,1.4323 -0.80078,3.08594 -0.80078,4.96094 0,3.51563 0.76822,6.27604 2.30468,8.28125 1.54948,1.99219 3.6198,2.98828 6.21094,2.98828 1.30208,0 2.51302,-0.23437 3.63282,-0.70312 1.11979,-0.48177 2.24609,-1.21094 3.3789,-2.1875 v 10.50781 h 3.67188 v -29.86328 h -3.4375 l -0.23438,0.9375 c -0.9375,-0.50781 -1.86198,-0.89193 -2.77344,-1.15234 -0.89844,-0.26042 -1.93359,-0.39063 -3.10546,-0.39063 z m 25.91796,0.0977 c -3.21614,0 -5.80729,1.01562 -7.77343,3.04687 -1.95313,2.03125 -2.92969,4.83073 -2.92969,8.39844 0,1.91406 0.26042,3.58724 0.78125,5.01953 0.52083,1.43229 1.25651,2.61719 2.20703,3.55469 0.9375,0.9375 2.0638,1.64062 3.37891,2.10937 1.3151,0.45573 2.76041,0.6836 4.33593,0.6836 1.23698,0 2.40235,-0.16277 3.4961,-0.48829 1.10677,-0.32552 2.27214,-0.78124 3.49609,-1.36718 v -4.04297 h -0.19531 c -0.27343,0.22135 -0.64453,0.48828 -1.11328,0.80078 -0.46875,0.29948 -0.97005,0.58594 -1.50391,0.85937 -0.61197,0.31251 -1.30208,0.56641 -2.07031,0.76172 -0.76823,0.19532 -1.52344,0.29297 -2.26563,0.29297 -2.13542,0 -3.79557,-0.70312 -4.98047,-2.10937 -1.17187,-1.41927 -1.75781,-3.44401 -1.75781,-6.07422 0,-2.70833 0.59896,-4.75911 1.79688,-6.15234 1.21094,-1.40625 2.85807,-2.10938 4.9414,-2.10938 1.13282,0 2.29167,0.23438 3.47657,0.70312 1.19791,0.46876 2.35677,1.13933 3.47656,2.01172 h 0.19531 v -4.08203 c -1.0026,-0.50781 -2.10937,-0.9375 -3.32031,-1.28906 -1.19791,-0.35157 -2.42188,-0.52734 -3.67188,-0.52734 z m 22.77344,0.50781 v 21.8164 h 3.67188 v -21.8164 z m -48.04687,2.69531 c 0.91146,0 1.75781,0.0911 2.53906,0.27344 0.78125,0.18229 1.67969,0.5013 2.69531,0.95703 v 12.34375 c -0.92447,0.72917 -1.92057,1.32813 -2.98828,1.79687 -1.06771,0.45574 -2.13542,0.6836 -3.20312,0.6836 -1.91407,0 -3.32032,-0.68359 -4.21876,-2.05078 -0.88542,-1.38021 -1.32812,-3.34636 -1.32812,-5.89844 0,-2.52605 0.55338,-4.50521 1.66016,-5.9375 1.10677,-1.44531 2.72135,-2.16797 4.84375,-2.16797 z m 68.98437,0.19531 c 1.91407,0 3.30078,0.67709 4.16016,2.03125 0.85937,1.34115 1.28906,3.31381 1.28906,5.91797 0,2.85156 -0.57943,4.94792 -1.73828,6.28906 -1.14583,1.32813 -2.73438,1.99219 -4.76563,1.99219 -0.95052,0 -1.80338,-0.0911 -2.55859,-0.27343 -0.74219,-0.1823 -1.63411,-0.50782 -2.67578,-0.97657 v -12.5 c 0.9375,-0.72916 1.95312,-1.32161 3.04687,-1.77734 1.09375,-0.46875 2.17448,-0.70313 3.24219,-0.70313 z"
     inkscape:original="M 202.59766 194.25 L 202.59766 224.64062 L 206.26953 224.64062 L 206.26953 194.25 L 202.59766 194.25 z M 224.58984 194.25 L 224.58984 224.64062 L 228.02734 224.64062 L 228.26172 223.625 C 229.16016 224.11979 230.07161 224.51042 230.99609 224.79688 C 231.92057 225.09636 233.00131 225.24609 234.23828 225.24609 C 235.56641 225.24609 236.78385 224.99219 237.89062 224.48438 C 238.99739 223.96354 240.01302 223.1888 240.9375 222.16016 C 241.8099 221.17058 242.5 219.94661 243.00781 218.48828 C 243.52865 217.02995 243.78906 215.38933 243.78906 213.56641 C 243.78906 209.95964 243.04037 207.16667 241.54297 205.1875 C 240.0586 203.20833 238.02735 202.21875 235.44922 202.21875 C 234.00391 202.21875 232.70182 202.49219 231.54297 203.03906 C 230.38412 203.57292 229.29037 204.26302 228.26172 205.10938 L 228.26172 194.25 L 224.58984 194.25 z M 213.37891 195.36328 L 213.37891 199.17188 L 217.51953 199.17188 L 217.51953 195.36328 L 213.37891 195.36328 z M 164.92188 202.21875 C 163.63281 202.21875 162.40885 202.47917 161.25 203 C 160.09115 203.52083 159.08203 204.25651 158.22266 205.20703 C 157.33724 206.18359 156.62109 207.39453 156.07422 208.83984 C 155.54037 210.27214 155.27344 211.92578 155.27344 213.80078 C 155.27344 217.31641 156.04166 220.07682 157.57812 222.08203 C 159.1276 224.07422 161.19792 225.07031 163.78906 225.07031 C 165.09114 225.07031 166.30208 224.83594 167.42188 224.36719 C 168.54167 223.88542 169.66797 223.15625 170.80078 222.17969 L 170.80078 232.6875 L 174.47266 232.6875 L 174.47266 202.82422 L 171.03516 202.82422 L 170.80078 203.76172 C 169.86328 203.25391 168.9388 202.86979 168.02734 202.60938 C 167.1289 202.34896 166.09375 202.21875 164.92188 202.21875 z M 190.83984 202.31641 C 187.6237 202.31641 185.03255 203.33203 183.06641 205.36328 C 181.11328 207.39453 180.13672 210.19401 180.13672 213.76172 C 180.13672 215.67578 180.39714 217.34896 180.91797 218.78125 C 181.4388 220.21354 182.17448 221.39844 183.125 222.33594 C 184.0625 223.27344 185.1888 223.97656 186.50391 224.44531 C 187.81901 224.90104 189.26432 225.12891 190.83984 225.12891 C 192.07682 225.12891 193.24219 224.96614 194.33594 224.64062 C 195.44271 224.3151 196.60808 223.85938 197.83203 223.27344 L 197.83203 219.23047 L 197.63672 219.23047 C 197.36329 219.45182 196.99219 219.71875 196.52344 220.03125 C 196.05469 220.33073 195.55339 220.61719 195.01953 220.89062 C 194.40756 221.20313 193.71745 221.45703 192.94922 221.65234 C 192.18099 221.84766 191.42578 221.94531 190.68359 221.94531 C 188.54817 221.94531 186.88802 221.24219 185.70312 219.83594 C 184.53125 218.41667 183.94531 216.39193 183.94531 213.76172 C 183.94531 211.05339 184.54427 209.00261 185.74219 207.60938 C 186.95313 206.20313 188.60026 205.5 190.68359 205.5 C 191.81641 205.5 192.97526 205.73438 194.16016 206.20312 C 195.35807 206.67188 196.51693 207.34245 197.63672 208.21484 L 197.83203 208.21484 L 197.83203 204.13281 C 196.82943 203.625 195.72266 203.19531 194.51172 202.84375 C 193.31381 202.49218 192.08984 202.31641 190.83984 202.31641 z M 213.61328 202.82422 L 213.61328 224.64062 L 217.28516 224.64062 L 217.28516 202.82422 L 213.61328 202.82422 z M 165.56641 205.51953 C 166.47787 205.51953 167.32422 205.61068 168.10547 205.79297 C 168.88672 205.97526 169.78516 206.29427 170.80078 206.75 L 170.80078 219.09375 C 169.87631 219.82292 168.88021 220.42188 167.8125 220.89062 C 166.74479 221.34636 165.67708 221.57422 164.60938 221.57422 C 162.69531 221.57422 161.28906 220.89063 160.39062 219.52344 C 159.5052 218.14323 159.0625 216.17708 159.0625 213.625 C 159.0625 211.09895 159.61588 209.11979 160.72266 207.6875 C 161.82943 206.24219 163.44401 205.51953 165.56641 205.51953 z M 234.55078 205.71484 C 236.46485 205.71484 237.85156 206.39193 238.71094 207.74609 C 239.57031 209.08724 240 211.0599 240 213.66406 C 240 216.51562 239.42057 218.61198 238.26172 219.95312 C 237.11589 221.28125 235.52734 221.94531 233.49609 221.94531 C 232.54557 221.94531 231.69271 221.85417 230.9375 221.67188 C 230.19531 221.48958 229.30339 221.16406 228.26172 220.69531 L 228.26172 208.19531 C 229.19922 207.46615 230.21484 206.8737 231.30859 206.41797 C 232.40234 205.94922 233.48307 205.71484 234.55078 205.71484 z "
     inkscape:radius="0"
     sodipodi:type="inkscape:offset"
     id="path522" /></g></svg>
