<?xml version="1.0" encoding="UTF-8" standalone="no"?>
<!-- Generator: Adobe Illustrator 26.0.1, SVG Export Plug-In . SVG Version: 6.00 Build 0)  -->

<svg
   version="1.1"
   id="Layer_1"
   x="0px"
   y="0px"
   viewBox="0 0 700.00385 260.60547"
   xml:space="preserve"
   width="700.00385"
   height="260.60547"
   xmlns="http://www.w3.org/2000/svg"
   xmlns:svg="http://www.w3.org/2000/svg"><defs
   id="defs20" />
<style
   type="text/css"
   id="style1">
	.st0{fill-rule:evenodd;clip-rule:evenodd;fill:url(#SVGID_1_);}
</style>
<g
   id="g20"
   transform="translate(-0.0961328)">
	<g
   id="g6">
		<path
   d="m 285.7,76.8 c 2.7,-1.1 5.1,-2.4 7.4,-3.9 3.2,-2.1 5.9,-4.7 8.1,-7.5 2.2,-2.8 3.9,-6.1 5,-9.5 1.2,-3.5 1.7,-7.2 1.7,-11.1 0,-4.9 -0.9,-9.5 -2.5,-13.6 C 303.7,27 301,23.4 297.3,20.4 293.7,17.5 289,15.2 283.5,13.5 278,11.9 271.3,11.1 263.7,11.1 H 228.2 V 125 h 24.2 V 82.1 h 6.9 c 2.1,0 3.2,0.3 3.7,0.6 0.8,0.4 1.5,1.1 2.2,2.2 l 23.2,35.3 c 1,1.6 2.3,2.8 3.8,3.6 1.5,0.9 3.4,1.3 5.5,1.3 h 22 L 290.1,81.5 c -1.4,-1.8 -2.8,-3.4 -4.4,-4.7 z m -33.4,-46 h 11.2 c 7.1,0 12.4,1.4 15.7,4.1 3.3,2.7 4.8,6.4 4.8,11.4 0,2.5 -0.4,4.9 -1.2,7 -0.8,2.1 -2,3.9 -3.7,5.4 -1.7,1.5 -3.8,2.7 -6.4,3.6 -2.7,0.9 -5.9,1.4 -9.5,1.4 h -10.9 z"
   id="path1" />
		<path
   d="m 382.6,53.4 c -3.5,-3.6 -7.8,-6.5 -12.8,-8.4 -5,-2 -10.5,-3 -16.6,-3 -6,0 -11.6,1 -16.6,2.9 -5,2 -9.3,4.8 -12.9,8.4 -3.5,3.6 -6.3,8.1 -8.3,13.3 -1.9,5.2 -2.9,11 -2.9,17.3 0,6.4 1,12.3 2.9,17.4 1.9,5.2 4.7,9.7 8.3,13.4 3.6,3.7 7.9,6.6 12.9,8.5 5,2 10.6,2.9 16.6,2.9 6,0 11.6,-1 16.6,-3 5,-2 9.3,-4.8 12.8,-8.5 3.5,-3.7 6.3,-8.2 8.2,-13.4 1.9,-5.2 2.9,-11 2.9,-17.4 0,-6.3 -1,-12.2 -2.9,-17.3 -2,-5 -4.7,-9.5 -8.2,-13.1 z m -16.5,48.9 c -2.8,3.9 -7,5.8 -12.9,5.8 -6,0 -10.3,-1.9 -13.1,-5.8 -2.9,-4 -4.4,-10.1 -4.4,-18.1 0,-7.9 1.5,-14.1 4.4,-18.2 2.8,-4 7.1,-5.9 13.1,-5.9 5.9,0 10.1,1.9 12.9,5.8 2.9,4.1 4.3,10.2 4.3,18.2 0,8.1 -1.4,14.2 -4.3,18.2 z"
   id="path2" />
		<path
   d="m 458.4,101.2 c -1.6,0 -3,0.5 -4.3,1.5 -0.9,0.7 -2,1.5 -3.2,2.4 -1.1,0.8 -2.6,1.6 -4.3,2.2 -1.6,0.6 -3.8,1 -6.6,1 -2.7,0 -5.2,-0.5 -7.3,-1.5 -2.1,-1 -3.9,-2.5 -5.4,-4.5 -1.5,-2 -2.7,-4.6 -3.5,-7.6 -0.8,-3.1 -1.3,-6.7 -1.3,-10.6 0,-3.8 0.4,-7.3 1.2,-10.3 0.7,-2.9 1.9,-5.4 3.4,-7.5 1.5,-2 3.3,-3.5 5.5,-4.6 2.2,-1.1 4.9,-1.6 7.9,-1.6 2.4,0 4.4,0.3 5.9,0.8 1.6,0.5 3,1.2 4.2,1.8 1.2,0.7 2.3,1.4 3.2,1.9 1.2,0.8 2.5,1.2 3.8,1.2 1.4,0 2.6,-0.3 3.5,-1 0.7,-0.5 1.3,-1.2 2,-2 l 5.9,-8.2 -1.1,-1.1 c -3.7,-3.7 -7.8,-6.5 -12.4,-8.5 -4.6,-2 -10,-3 -16.1,-3 -6.4,0 -12.1,1.1 -17,3.2 -5,2.1 -9.2,5.1 -12.5,8.9 -3.4,3.8 -5.9,8.3 -7.7,13.4 -1.7,5.1 -2.6,10.6 -2.6,16.6 0,6.6 1,12.6 2.9,17.8 1.9,5.2 4.6,9.7 7.9,13.3 3.3,3.6 7.3,6.4 11.8,8.3 4.5,1.9 9.3,2.9 14.4,2.9 2.8,0 5.7,-0.2 8.6,-0.6 2.9,-0.4 5.8,-1.2 8.5,-2.2 2.7,-1 5.4,-2.4 8,-4.2 2.6,-1.7 5,-3.9 7.2,-6.5 l 1,-1.2 -6.3,-8 c -1.3,-1.7 -3,-2.5 -5.2,-2.5 z"
   id="path3" />
		<path
   d="m 523.9,80.9 c -0.4,-0.5 -0.8,-0.9 -1.2,-1.4 0.4,-0.4 0.8,-0.7 1.2,-1.1 1,-0.9 1.9,-2 2.8,-3.1 l 26.9,-32.1 h -21.2 c -1.9,0 -3.5,0.4 -4.8,1.1 -1.1,0.7 -2.2,1.6 -3.2,2.8 l -19.4,24 c -0.8,1 -1.4,1.4 -1.7,1.5 -0.3,0.1 -0.9,0.3 -2.1,0.3 h -1.6 V 8.2 H 477 v 117 h 22.6 V 89.4 h 2.4 c 1.6,0 2.4,0.2 2.6,0.4 0.2,0.1 0.8,0.5 1.5,1.6 L 526,121 c 1,1.5 2.2,2.6 3.5,3.2 1.3,0.6 2.8,1 4.6,1 h 20.5 L 526.5,84.3 c -0.9,-1.2 -1.8,-2.3 -2.6,-3.4 z"
   id="path4" />
		<path
   d="m 619.2,88 c 0.9,-0.4 1.7,-1 2.2,-1.9 0.5,-0.8 0.8,-1.7 0.9,-2.9 0.1,-1 0.2,-2.3 0.2,-3.8 0,-5.8 -0.9,-11.1 -2.6,-15.7 -1.8,-4.6 -4.3,-8.6 -7.4,-11.8 -3.2,-3.2 -7,-5.7 -11.4,-7.3 -4.3,-1.6 -9.1,-2.5 -14.3,-2.5 -6.1,0 -11.6,1.1 -16.5,3.2 -4.9,2.1 -9,5.1 -12.4,8.7 -3.4,3.6 -6,8 -7.8,12.9 -1.8,4.9 -2.7,10.2 -2.7,15.7 0,7.1 1,13.4 3.1,18.8 2.1,5.4 4.9,10.1 8.6,13.7 3.6,3.7 8,6.5 12.9,8.4 4.9,1.9 10.2,2.8 15.8,2.8 2.8,0 5.8,-0.2 8.8,-0.6 3,-0.4 6.1,-1.2 9,-2.2 2.9,-1 5.8,-2.4 8.5,-4.2 2.7,-1.7 5.2,-3.9 7.4,-6.5 l 1,-1.2 -6.4,-8 c -0.6,-0.8 -1.3,-1.4 -2.1,-1.8 -0.8,-0.5 -1.8,-0.7 -2.9,-0.7 -1.5,0 -3,0.4 -4.5,1.3 -1.2,0.7 -2.7,1.5 -4.3,2.3 -1.5,0.8 -3.4,1.6 -5.5,2.2 -2,0.6 -4.5,1 -7.3,1 -5.7,0 -10.2,-1.7 -13.6,-5.1 -3.1,-3.1 -5,-8 -5.8,-14.5 h 46.3 c 1.1,0.1 2,0 2.8,-0.3 z M 570.6,73.4 c 0.9,-4.2 2.6,-7.6 5,-10 2.8,-2.8 6.5,-4.1 11.6,-4.1 2.5,0 4.7,0.4 6.5,1.2 1.8,0.8 3.3,1.9 4.5,3.4 1.2,1.4 2.1,3.1 2.7,5 0.4,1.4 0.7,2.9 0.8,4.5 z"
   id="path5" />
		<path
   d="m 674.8,107.5 -0.1,-0.1 c -0.5,-0.7 -1,-1.2 -1.5,-1.6 -1.3,-1 -3.2,-1.1 -4.9,-0.1 -0.4,0.3 -0.9,0.5 -1.5,0.8 -0.5,0.3 -1.1,0.5 -1.8,0.8 -0.6,0.2 -1.4,0.3 -2.3,0.3 -1.5,0 -2.6,-0.5 -3.5,-1.4 -0.9,-1 -1.4,-2.5 -1.4,-4.5 V 61.1 h 20.6 V 43.9 H 657.8 V 19.3 h -11.6 c -1.5,0 -2.8,0.4 -3.9,1.2 -1.1,0.8 -1.8,2 -2.1,3.5 l -3.7,20.1 -12.8,2.1 v 9.1 c 0,1.9 0.6,3.3 1.7,4.4 1.1,1 2.4,1.5 3.9,1.5 h 6.1 V 103 c 0,7.2 2,13 6,17.2 4,4.2 9.7,6.3 17,6.3 4,0 7.9,-0.6 11.6,-1.8 3.8,-1.2 7.1,-3.1 10.1,-5.5 l 1.2,-1 z"
   id="path6" />
	</g>
	<g
   id="g14">
		<path
   d="m 253.6,166.6 c -0.2,0.4 -0.5,0.6 -0.9,0.6 -0.3,0 -0.7,-0.2 -1.2,-0.5 -0.5,-0.3 -1.1,-0.7 -1.9,-1.2 -0.8,-0.4 -1.8,-0.8 -2.9,-1.2 -1.2,-0.3 -2.6,-0.5 -4.3,-0.5 -1.5,0 -2.9,0.2 -4.1,0.7 -1.2,0.4 -2.3,1 -3.2,1.7 -0.9,0.7 -1.6,1.6 -2.1,2.5 -0.5,1 -0.7,2 -0.7,3 0,1.3 0.3,2.4 1,3.3 0.7,0.9 1.6,1.6 2.7,2.2 1.1,0.6 2.3,1.1 3.7,1.6 1.4,0.4 2.8,0.9 4.3,1.3 1.5,0.4 2.9,0.9 4.3,1.5 1.4,0.5 2.6,1.2 3.7,2 1.1,0.8 2,1.8 2.7,3 0.7,1.2 1,2.6 1,4.3 0,1.8 -0.3,3.5 -1,5.1 -0.7,1.6 -1.6,2.9 -2.9,4.1 -1.2,1.2 -2.8,2.1 -4.6,2.7 -1.8,0.7 -3.9,1 -6.2,1 -2.9,0 -5.5,-0.5 -7.6,-1.4 -2.1,-0.9 -4,-2.2 -5.7,-3.7 l 1,-1.4 c 0.1,-0.2 0.3,-0.4 0.5,-0.5 0.2,-0.1 0.4,-0.2 0.7,-0.2 0.4,0 0.8,0.2 1.3,0.7 0.5,0.4 1.2,0.9 2.1,1.5 0.9,0.5 1.9,1 3.2,1.5 1.3,0.4 2.9,0.7 4.7,0.7 1.8,0 3.3,-0.2 4.7,-0.7 1.3,-0.5 2.5,-1.2 3.4,-2 0.9,-0.8 1.6,-1.8 2,-3 0.5,-1.1 0.7,-2.3 0.7,-3.6 0,-1.4 -0.3,-2.6 -1,-3.5 -0.7,-0.9 -1.6,-1.7 -2.7,-2.4 -1.1,-0.6 -2.3,-1.2 -3.7,-1.6 -1.4,-0.4 -2.8,-0.9 -4.3,-1.3 -1.5,-0.4 -2.9,-0.9 -4.3,-1.5 -1.4,-0.5 -2.6,-1.2 -3.7,-2 -1.1,-0.8 -2,-1.8 -2.7,-3 -0.7,-1.2 -1,-2.6 -1,-4.4 0,-1.5 0.3,-2.9 1,-4.3 0.6,-1.4 1.6,-2.6 2.8,-3.6 1.2,-1 2.6,-1.9 4.4,-2.5 1.7,-0.6 3.6,-0.9 5.8,-0.9 2.6,0 4.8,0.4 6.8,1.1 2,0.7 3.8,1.9 5.5,3.4 z"
   id="path7" />
		<path
   d="m 303.3,160.7 c 3,0 5.7,0.5 8.1,1.5 2.4,1 4.4,2.5 6,4.4 1.6,1.9 2.9,4.1 3.7,6.8 0.9,2.7 1.3,5.6 1.3,8.9 0,3.3 -0.4,6.2 -1.3,8.9 -0.9,2.6 -2.1,4.9 -3.7,6.8 -1.6,1.9 -3.6,3.3 -6,4.3 -2.4,1 -5.1,1.5 -8.1,1.5 -3,0 -5.7,-0.5 -8.1,-1.5 -2.4,-1 -4.4,-2.5 -6,-4.3 -1.6,-1.9 -2.9,-4.1 -3.7,-6.8 -0.9,-2.6 -1.3,-5.6 -1.3,-8.9 0,-3.3 0.4,-6.3 1.3,-8.9 0.9,-2.7 2.1,-4.9 3.7,-6.8 1.6,-1.9 3.6,-3.3 6,-4.4 2.5,-1 5.1,-1.5 8.1,-1.5 z m 0,39.9 c 2.5,0 4.7,-0.4 6.5,-1.3 1.9,-0.9 3.4,-2.1 4.7,-3.7 1.2,-1.6 2.2,-3.5 2.8,-5.8 0.6,-2.3 0.9,-4.8 0.9,-7.6 0,-2.8 -0.3,-5.3 -0.9,-7.6 -0.6,-2.3 -1.6,-4.2 -2.8,-5.8 -1.2,-1.6 -2.8,-2.9 -4.7,-3.7 -1.9,-0.9 -4,-1.3 -6.5,-1.3 -2.5,0 -4.7,0.4 -6.5,1.3 -1.9,0.9 -3.4,2.1 -4.7,3.7 -1.2,1.6 -2.2,3.6 -2.8,5.8 -0.6,2.3 -0.9,4.8 -0.9,7.6 0,2.8 0.3,5.3 0.9,7.6 0.6,2.3 1.6,4.2 2.8,5.8 1.2,1.6 2.8,2.8 4.7,3.7 1.9,0.9 4,1.3 6.5,1.3 z"
   id="path8" />
		<path
   d="m 355.6,203.2 v -37.5 l -5.9,-0.4 c -0.8,-0.1 -1.2,-0.4 -1.2,-1.1 v -1.6 h 7.1 v -5.3 c 0,-2.4 0.3,-4.5 0.9,-6.3 0.6,-1.8 1.5,-3.3 2.6,-4.5 1.1,-1.2 2.5,-2.1 4.1,-2.7 1.6,-0.6 3.3,-0.9 5.2,-0.9 0.9,0 1.7,0.1 2.6,0.2 0.9,0.2 1.7,0.4 2.3,0.7 l -0.1,1.9 c 0,0.4 -0.3,0.6 -0.8,0.6 -0.3,0 -0.8,0 -1.4,-0.1 -0.6,-0.1 -1.3,-0.1 -2.1,-0.1 -1.4,0 -2.6,0.2 -3.8,0.6 -1.2,0.4 -2.2,1.1 -3,2 -0.8,0.9 -1.5,2.1 -2,3.5 -0.5,1.4 -0.7,3.2 -0.7,5.3 v 5.2 H 373 v 3 h -13.5 v 37.6 h -3.9 z"
   id="path9" />
		<path
   d="m 415.8,203.9 c -2.8,0 -5,-0.8 -6.6,-2.4 -1.6,-1.6 -2.4,-4 -2.4,-7.3 v -28.6 h -6 c -0.3,0 -0.6,-0.1 -0.8,-0.3 -0.2,-0.2 -0.3,-0.4 -0.3,-0.7 V 163 l 7.2,-0.5 1,-15 c 0,-0.3 0.1,-0.5 0.3,-0.7 0.2,-0.2 0.4,-0.3 0.7,-0.3 h 1.9 v 16 H 424 v 3 h -13.2 v 28.4 c 0,1.2 0.1,2.1 0.4,3 0.3,0.8 0.7,1.5 1.2,2 0.5,0.5 1.1,0.9 1.8,1.2 0.7,0.3 1.5,0.4 2.3,0.4 1,0 1.9,-0.1 2.6,-0.4 0.7,-0.3 1.4,-0.6 1.9,-1 0.5,-0.4 1,-0.7 1.3,-1 0.3,-0.3 0.6,-0.4 0.8,-0.4 0.2,0 0.4,0.1 0.7,0.4 l 1.1,1.8 c -1.1,1.2 -2.4,2.1 -4.1,2.8 -1.6,0.9 -3.3,1.2 -5,1.2 z"
   id="path10" />
		<path
   d="m 448.9,161.4 h 3.1 c 0.4,0 0.7,0.1 1,0.3 0.3,0.2 0.4,0.4 0.5,0.7 l 10.6,33.1 c 0.2,0.6 0.4,1.3 0.5,1.9 0.1,0.6 0.2,1.2 0.3,1.8 0.1,-0.6 0.3,-1.2 0.5,-1.8 0.2,-0.6 0.4,-1.2 0.6,-1.9 l 11.2,-33.3 c 0.2,-0.6 0.6,-0.9 1.2,-0.9 h 1.6 c 0.6,0 1,0.3 1.2,0.9 l 11.1,33.3 c 0.4,1.3 0.8,2.5 1,3.7 0.1,-0.6 0.2,-1.2 0.4,-1.8 0.1,-0.6 0.3,-1.2 0.5,-1.9 l 10.6,-33.1 c 0.2,-0.7 0.7,-1 1.4,-1 h 2.9 l -14,41.9 h -2.9 c -0.4,0 -0.8,-0.3 -1,-0.9 l -11.5,-34 c -0.1,-0.4 -0.3,-0.8 -0.4,-1.3 -0.1,-0.4 -0.2,-0.8 -0.3,-1.3 -0.1,0.4 -0.2,0.8 -0.3,1.3 -0.1,0.4 -0.2,0.8 -0.4,1.3 l -11.6,34 c -0.2,0.6 -0.5,0.9 -1,0.9 h -2.8 z"
   id="path11" />
		<path
   d="m 562.8,203.2 c -0.8,0 -1.4,-0.4 -1.6,-1.2 l -0.6,-5.3 c -1.2,1.1 -2.3,2.1 -3.4,3 -1.1,0.9 -2.3,1.7 -3.6,2.3 -1.2,0.6 -2.6,1.1 -4,1.4 -1.4,0.3 -3,0.5 -4.7,0.5 -1.4,0 -2.8,-0.2 -4.2,-0.6 -1.3,-0.4 -2.5,-1.1 -3.6,-1.9 -1,-0.9 -1.9,-2 -2.5,-3.3 -0.6,-1.4 -0.9,-3 -0.9,-4.9 0,-1.8 0.5,-3.4 1.5,-4.9 1,-1.5 2.6,-2.8 4.7,-4 2.1,-1.1 4.9,-2 8.3,-2.7 3.4,-0.7 7.4,-1.1 12.2,-1.2 V 176 c 0,-3.9 -0.8,-6.9 -2.5,-8.9 -1.7,-2.1 -4.1,-3.1 -7.4,-3.1 -2,0 -3.7,0.3 -5.2,0.8 -1.4,0.6 -2.6,1.2 -3.6,1.9 -1,0.7 -1.8,1.3 -2.4,1.9 -0.6,0.6 -1.1,0.8 -1.6,0.8 -0.6,0 -1,-0.3 -1.3,-0.8 l -0.7,-1.2 c 2.2,-2.2 4.5,-3.8 6.9,-5 2.4,-1.1 5.2,-1.7 8.2,-1.7 2.2,0 4.2,0.4 5.9,1.1 1.7,0.7 3.1,1.7 4.2,3.1 1.1,1.3 1.9,2.9 2.5,4.8 0.6,1.9 0.8,4 0.8,6.3 v 27.3 h -1.4 z M 546,201 c 1.6,0 3.1,-0.2 4.5,-0.5 1.4,-0.4 2.6,-0.8 3.8,-1.5 1.2,-0.6 2.3,-1.4 3.3,-2.3 1,-0.9 2,-1.8 3,-2.8 V 183 c -4,0.1 -7.4,0.4 -10.3,0.9 -2.9,0.5 -5.2,1.2 -7.1,2 -1.9,0.8 -3.2,1.8 -4.1,3 -0.9,1.2 -1.3,2.5 -1.3,4 0,1.4 0.2,2.6 0.7,3.6 0.5,1 1.1,1.9 1.8,2.5 0.8,0.7 1.6,1.1 2.7,1.5 0.8,0.4 1.9,0.5 3,0.5 z"
   id="path12" />
		<path
   d="m 597.7,203.2 v -41.9 h 2.1 c 0.5,0 0.8,0.1 1,0.3 0.2,0.2 0.3,0.5 0.4,1 l 0.3,8.8 c 1.3,-3.4 3.1,-6.1 5.4,-8 2.2,-1.9 5,-2.9 8.3,-2.9 1.3,0 2.4,0.1 3.5,0.4 1.1,0.3 2.1,0.7 3,1.2 l -0.5,2.8 c -0.1,0.4 -0.4,0.7 -0.8,0.7 -0.2,0 -0.4,-0.1 -0.7,-0.2 -0.3,-0.1 -0.7,-0.2 -1.2,-0.4 -0.5,-0.1 -1,-0.3 -1.7,-0.4 -0.7,-0.1 -1.4,-0.2 -2.3,-0.2 -3.2,0 -5.8,1 -7.8,2.9 -2,2 -3.7,4.8 -4.9,8.5 V 203 h -4.1 z"
   id="path13" />
		<path
   d="m 661.5,160.7 c 2.4,0 4.5,0.4 6.5,1.2 2,0.8 3.7,2 5.2,3.6 1.5,1.6 2.6,3.5 3.5,5.7 0.8,2.3 1.2,4.9 1.2,7.8 0,0.6 -0.1,1 -0.3,1.3 -0.2,0.3 -0.5,0.3 -0.9,0.3 h -30.2 v 0.8 c 0,3.1 0.4,5.9 1.1,8.3 0.7,2.4 1.8,4.4 3.1,6 1.3,1.6 3,2.8 4.9,3.6 1.9,0.8 4,1.2 6.4,1.2 2.1,0 3.9,-0.2 5.5,-0.7 1.5,-0.5 2.8,-1 3.9,-1.6 1.1,-0.6 1.9,-1.1 2.5,-1.6 0.6,-0.5 1.1,-0.7 1.3,-0.7 0.4,0 0.6,0.1 0.8,0.4 l 1.1,1.3 c -0.7,0.8 -1.6,1.6 -2.7,2.4 -1.1,0.7 -2.3,1.4 -3.7,1.9 -1.4,0.5 -2.8,0.9 -4.4,1.2 -1.6,0.3 -3.1,0.5 -4.7,0.5 -2.9,0 -5.5,-0.5 -7.8,-1.5 -2.4,-1 -4.4,-2.4 -6.1,-4.4 -1.7,-1.9 -3,-4.2 -3.9,-7 -0.9,-2.8 -1.4,-5.9 -1.4,-9.5 0,-3 0.4,-5.8 1.3,-8.3 0.9,-2.5 2.1,-4.7 3.7,-6.6 1.6,-1.8 3.6,-3.3 5.9,-4.3 2.5,-0.8 5.2,-1.3 8.2,-1.3 z m 0,3 c -2.2,0 -4.1,0.3 -5.8,1 -1.7,0.7 -3.2,1.6 -4.4,2.9 -1.2,1.3 -2.3,2.8 -3,4.5 -0.8,1.8 -1.3,3.7 -1.5,5.9 h 27.6 c 0,-2.2 -0.3,-4.3 -0.9,-6 -0.6,-1.8 -1.5,-3.3 -2.6,-4.5 -1.1,-1.2 -2.5,-2.2 -4,-2.8 -1.7,-0.7 -3.5,-1 -5.4,-1 z"
   id="path14" />
	</g>
	
		<linearGradient
   id="SVGID_1_"
   gradientUnits="userSpaceOnUse"
   x1="189.9189"
   y1="41.316002"
   x2="20.8398"
   y2="-127.7631"
   gradientTransform="matrix(1,0,0,-1,0,55.2499)">
		<stop
   offset="0"
   style="stop-color:#D257FC"
   id="stop14" />
		<stop
   offset="0.146"
   style="stop-color:#B72DCD"
   id="stop15" />
		<stop
   offset="0.316"
   style="stop-color:#990099"
   id="stop16" />
		<stop
   offset="0.4407"
   style="stop-color:#8412B7"
   id="stop17" />
		<stop
   offset="0.7562"
   style="stop-color:#503EFF"
   id="stop18" />
	</linearGradient>
	<path
   class="st0"
   d="M 4.1,92 C 2.7,91.6 1.5,90.7 0.8,89.4 0.1,88.1 -0.1,86.6 0.3,85.2 0.7,83.8 1.6,82.6 2.9,81.9 4,81.2 5.5,81 7,81.4 l 50,13.4 v 0 c 3.1,0.9 6.4,0.9 9.6,0.1 l 0.3,-0.1 c 3,-0.9 5.8,-2.6 8,-4.8 v 0 L 155.3,9.6 c 1,-1 2.4,-1.6 3.9,-1.6 1.5,0 2.9,0.6 3.9,1.6 1,1 1.6,2.4 1.6,3.9 0,1.5 -0.6,2.9 -1.6,3.9 L 82.6,97.8 v 0 c -3.6,3.6 -8,6.2 -12.8,7.6 -0.1,0 -0.3,0.1 -0.4,0.1 -5,1.3 -10.3,1.3 -15.3,-0.1 v 0 z m 18.6,-18.6 25.6,6.9 c 5,1.4 10.3,1.4 15.3,0.1 5,-1.3 9.6,-4 13.2,-7.7 l 32.8,-32.8 c 1,-1 1.6,-2.4 1.6,-3.9 0,-1.5 -0.6,-2.9 -1.6,-3.9 -1,-1 -2.4,-1.6 -3.9,-1.6 -1.5,0 -2.9,0.6 -3.9,1.6 L 68.9,64.8 c -2.4,2.4 -5.3,4.1 -8.3,4.9 -3,0.8 -6.3,0.8 -9.6,-0.1 L 25.4,62.7 c -0.7,-0.2 -1.4,-0.3 -2.2,-0.2 -0.7,0.1 -1.4,0.3 -2.1,0.7 -0.6,0.4 -1.2,0.8 -1.6,1.4 -0.4,0.6 -0.8,1.2 -1,2 -0.2,0.7 -0.2,1.4 -0.1,2.2 0.1,0.7 0.3,1.4 0.7,2.1 0.4,0.6 0.9,1.2 1.5,1.6 0.7,0.4 1.4,0.8 2.1,0.9 z M 122.6,197 109.2,147 c -0.9,-3.1 -0.9,-6.4 -0.1,-9.6 l 0.1,-0.3 c 0.9,-3 2.5,-5.8 4.8,-8 l 80.4,-80.4 c 1,-1 1.6,-2.4 1.6,-3.9 0,-1.5 -0.6,-2.9 -1.6,-3.9 -1,-1 -2.4,-1.6 -3.9,-1.6 -1.5,0 -2.9,0.6 -3.9,1.6 l -80.3,80.4 c -3.6,3.5 -6.2,8 -7.6,12.8 0,0.1 -0.1,0.3 -0.1,0.4 -1.3,5 -1.3,10.3 0.1,15.3 v 0 l 13.4,50 c 0.4,1.4 1.3,2.6 2.6,3.3 1.3,0.7 2.8,0.9 4.2,0.5 1.4,-0.4 2.6,-1.3 3.3,-2.6 0.5,-1.1 0.7,-2.6 0.4,-4 z m 18.5,-18.6 -6.9,-25.6 c -0.9,-3.1 -0.9,-6.4 -0.1,-9.6 l 0.1,-0.3 c 0.9,-3 2.6,-5.8 4.8,-8 l 32.8,-32.8 c 1,-1 1.6,-2.4 1.6,-3.9 0,-1.5 -0.6,-2.9 -1.6,-3.9 -1,-1 -2.4,-1.6 -3.9,-1.6 -1.5,0 -2.9,0.6 -3.9,1.6 l -32.8,32.8 c -3.6,3.6 -6.2,8 -7.6,12.8 0,0.1 -0.1,0.3 -0.1,0.4 -1.3,5 -1.3,10.3 0.1,15.3 v 0 l 6.9,25.6 c 0.2,0.7 0.5,1.4 1,1.9 0.4,0.6 1,1.1 1.6,1.4 0.6,0.4 1.3,0.6 2,0.7 0.7,0.1 1.4,0 2.1,-0.1 0.7,-0.2 1.4,-0.5 1.9,-1 0.6,-0.4 1.1,-1 1.4,-1.6 0.4,-0.6 0.6,-1.3 0.7,-2 0.2,-0.7 0.1,-1.4 -0.1,-2.1 z M 183.8,12.3 16.6,179.5 c -1,1 -1.6,2.4 -1.6,3.9 0,1.5 0.6,2.9 1.6,3.9 1,1 2.4,1.6 3.9,1.6 1.5,0 2.9,-0.6 3.9,-1.6 L 191.6,20.2 c 1,-1 1.6,-2.4 1.6,-3.9 0,-1.5 -0.6,-2.8 -1.6,-3.9 -1,-1 -2.4,-1.6 -3.9,-1.6 -1.5,0 -2.9,0.5 -3.9,1.5 z m -133.2,101.9 -35,35 c -1,1 -1.6,2.4 -1.6,3.9 0,1.5 0.6,2.9 1.6,3.9 1,1 2.4,1.6 3.9,1.6 1.5,0 2.9,-0.6 3.9,-1.6 l 35,-35 c 0.5,-0.5 0.9,-1.1 1.2,-1.8 0.3,-0.7 0.4,-1.4 0.4,-2.1 0,-0.7 -0.1,-1.4 -0.4,-2.1 -0.3,-0.7 -0.7,-1.3 -1.2,-1.8 -0.5,-0.5 -1.1,-0.9 -1.8,-1.2 -0.7,-0.3 -1.4,-0.4 -2.1,-0.4 -0.7,0 -1.4,0.1 -2.1,0.4 -0.7,0.2 -1.3,0.6 -1.8,1.2 z m 31.3,31.3 -35,35 c -1,1 -1.6,2.4 -1.6,3.9 0,1.5 0.6,2.9 1.6,3.9 1,1 2.4,1.6 3.9,1.6 1.5,0 2.9,-0.6 3.9,-1.6 l 35,-35 c 1,-1 1.6,-2.4 1.6,-3.9 0,-1.5 -0.6,-2.8 -1.6,-3.9 -1,-1 -2.4,-1.6 -3.9,-1.6 -1.4,0 -2.8,0.6 -3.9,1.6 z"
   id="path18"
   style="fill:url(#SVGID_1_)" />
	<g
   id="g19">
		<path
   d="m 672.3,13.9 c 0,-1.3 0.2,-2.5 0.5,-3.7 0.3,-1.2 0.8,-2.3 1.4,-3.3 0.6,-1 1.3,-2 2.2,-2.8 0.8,-0.8 1.8,-1.6 2.8,-2.2 1,-0.6 2.1,-1.1 3.3,-1.4 1.2,-0.3 2.4,-0.5 3.7,-0.5 1.3,0 2.5,0.2 3.7,0.5 1.2,0.3 2.3,0.8 3.3,1.4 1,0.6 2,1.3 2.8,2.2 0.8,0.8 1.6,1.8 2.2,2.8 0.6,1 1.1,2.1 1.4,3.3 0.3,1.2 0.5,2.4 0.5,3.7 0,1.3 -0.2,2.5 -0.5,3.7 -0.3,1.2 -0.8,2.3 -1.4,3.3 -0.6,1 -1.3,2 -2.2,2.8 -0.8,0.8 -1.8,1.6 -2.8,2.2 -1,0.6 -2.1,1.1 -3.3,1.4 -1.2,0.3 -2.4,0.5 -3.7,0.5 -1.3,0 -2.5,-0.2 -3.7,-0.5 -1.2,-0.3 -2.3,-0.8 -3.3,-1.4 -1,-0.6 -2,-1.3 -2.8,-2.2 -0.8,-0.8 -1.6,-1.8 -2.2,-2.8 -0.6,-1 -1.1,-2.1 -1.4,-3.3 -0.3,-1.2 -0.5,-2.4 -0.5,-3.7 z m 1.9,0 c 0,1.1 0.1,2.2 0.4,3.2 0.3,1 0.7,2 1.2,2.9 0.5,0.9 1.1,1.7 1.9,2.5 0.7,0.7 1.5,1.4 2.4,1.9 0.9,0.5 1.8,0.9 2.9,1.2 1,0.3 2.1,0.4 3.2,0.4 1.7,0 3.2,-0.3 4.7,-0.9 1.5,-0.6 2.7,-1.5 3.8,-2.6 1.1,-1.1 1.9,-2.4 2.6,-3.8 0.6,-1.5 0.9,-3.1 0.9,-4.7 0,-1.1 -0.1,-2.2 -0.4,-3.3 -0.3,-1 -0.7,-2 -1.2,-2.9 -0.5,-0.9 -1.1,-1.7 -1.9,-2.5 -0.7,-0.7 -1.5,-1.4 -2.4,-1.9 -0.9,-0.5 -1.8,-0.9 -2.9,-1.2 -1,-0.3 -2.1,-0.4 -3.2,-0.4 -1.7,0 -3.2,0.3 -4.7,1 -1.5,0.6 -2.7,1.5 -3.8,2.6 -1.1,1.1 -1.9,2.4 -2.5,3.9 -0.7,1.4 -1,3 -1,4.6 z m 9.2,1.7 v 6.7 h -3 V 5.5 h 5.5 c 2.2,0 3.8,0.4 4.8,1.2 1,0.8 1.6,2 1.6,3.5 0,1.2 -0.3,2.2 -1,3 -0.7,0.8 -1.7,1.4 -3,1.7 0.2,0.1 0.4,0.3 0.6,0.5 0.2,0.2 0.3,0.4 0.4,0.7 l 4.3,6.3 h -2.8 c -0.4,0 -0.7,-0.2 -0.9,-0.5 l -3.8,-5.7 c -0.1,-0.2 -0.2,-0.3 -0.4,-0.4 -0.2,-0.1 -0.4,-0.1 -0.7,-0.1 h -1.6 z m 0,-2.1 h 2.2 c 0.7,0 1.3,-0.1 1.8,-0.2 0.5,-0.1 0.9,-0.3 1.2,-0.6 0.3,-0.3 0.5,-0.6 0.6,-0.9 0.1,-0.4 0.2,-0.8 0.2,-1.3 0,-0.5 -0.1,-0.9 -0.2,-1.2 -0.1,-0.4 -0.3,-0.6 -0.6,-0.9 -0.3,-0.2 -0.6,-0.4 -1.1,-0.5 -0.4,-0.1 -1,-0.2 -1.6,-0.2 h -2.5 z"
   id="path19" />
	</g>
</g>
<path
   d="m 127.19879,260 h -5.01953 l -9.72656,-11.5625 h -5.44922 V 260 h -3.86719 v -29.08203 h 8.14453 q 2.63672,0 4.39453,0.35156 1.75782,0.33203 3.16407,1.21094 1.58203,0.99609 2.46093,2.51953 0.89844,1.50391 0.89844,3.82812 0,3.14454 -1.58203,5.27344 -1.58203,2.10938 -4.35547,3.1836 z m -9.04297,-20.89844 q 0,-1.25 -0.44922,-2.20703 -0.42968,-0.97656 -1.44531,-1.64062 -0.83984,-0.56641 -1.99219,-0.78125 -1.15234,-0.23438 -2.71484,-0.23438 h -4.55078 v 10.97656 h 3.90625 q 1.83594,0 3.20312,-0.3125 1.36719,-0.33203 2.32422,-1.21093 0.87891,-0.82032 1.28907,-1.875 0.42968,-1.07422 0.42968,-2.71485 z m 29.78516,10.3711 h -16.07422 q 0,2.01171 0.60547,3.51562 0.60547,1.48438 1.66016,2.44141 1.01562,0.9375 2.40234,1.40625 1.40625,0.46875 3.08594,0.46875 2.22656,0 4.47265,-0.87891 2.26563,-0.89844 3.22266,-1.75781 h 0.19531 v 4.0039 q -1.85547,0.78125 -3.78906,1.3086 -1.93359,0.52734 -4.0625,0.52734 -5.42969,0 -8.47656,-2.92969 -3.04688,-2.94921 -3.04688,-8.35937 0,-5.35156 2.91016,-8.49609 2.92969,-3.14454 7.69531,-3.14454 4.41406,0 6.79688,2.57813 2.40234,2.57812 2.40234,7.32422 z m -3.57422,-2.8125 q -0.0195,-2.89063 -1.46484,-4.47266 -1.42578,-1.58203 -4.35547,-1.58203 -2.94922,0 -4.70703,1.73828 -1.73828,1.73828 -1.97266,4.31641 z M 170.46051,260 h -3.65234 v -2.32422 q -0.48828,0.33203 -1.32813,0.9375 -0.82031,0.58594 -1.60156,0.9375 -0.91797,0.44922 -2.10938,0.74219 -1.1914,0.3125 -2.79296,0.3125 -2.94922,0 -5,-1.95313 -2.05079,-1.95312 -2.05079,-4.98047 0,-2.48046 1.05469,-4.0039 1.07422,-1.54297 3.04688,-2.42188 1.99218,-0.8789 4.78515,-1.1914 2.79297,-0.3125 5.9961,-0.46875 v -0.56641 q 0,-1.25 -0.44922,-2.07031 -0.42969,-0.82031 -1.25,-1.28906 -0.78125,-0.44922 -1.875,-0.60547 -1.09375,-0.15625 -2.28516,-0.15625 -1.44531,0 -3.22265,0.39062 -1.77735,0.3711 -3.67188,1.09375 h -0.19531 v -3.73047 q 1.07422,-0.29297 3.10547,-0.64453 2.03125,-0.35156 4.0039,-0.35156 2.30469,0 4.00391,0.39062 1.71875,0.3711 2.96875,1.28907 1.23047,0.89843 1.875,2.32422 0.64453,1.42578 0.64453,3.53515 z m -3.65234,-5.37109 v -6.07422 q -1.67969,0.0977 -3.96485,0.29297 -2.26562,0.19531 -3.59375,0.5664 -1.58203,0.44922 -2.55859,1.40625 -0.97656,0.9375 -0.97656,2.59766 0,1.875 1.13281,2.83203 1.13281,0.9375 3.45703,0.9375 1.93359,0 3.53516,-0.74219 1.60156,-0.76172 2.96875,-1.8164 z M 181.24176,260 h -3.67187 v -30.39063 h 3.67187 z m 18.59375,-0.19531 q -1.03516,0.27343 -2.26562,0.44922 -1.21094,0.17578 -2.16797,0.17578 -3.33985,0 -5.07813,-1.79688 -1.73828,-1.79687 -1.73828,-5.76172 v -11.60156 h -2.48047 v -3.08594 h 2.48047 v -6.26953 h 3.67188 v 6.26953 h 7.57812 v 3.08594 h -7.57812 v 9.94141 q 0,1.71875 0.0781,2.69531 0.0781,0.95703 0.54688,1.79687 0.42968,0.78125 1.17187,1.15235 0.76172,0.35156 2.30469,0.35156 0.89844,0 1.875,-0.25391 0.97656,-0.27343 1.40625,-0.44921 h 0.19531 z m 8.37891,-25.27344 h -4.14063 v -3.80859 h 4.14063 z M 207.98004,260 h -3.67187 v -21.81641 h 3.67187 z m 39.10156,0 h -3.67187 v -12.42188 q 0,-1.40625 -0.13672,-2.71484 -0.11719,-1.30859 -0.52734,-2.08984 -0.44922,-0.83985 -1.28907,-1.26953 -0.83984,-0.42969 -2.42187,-0.42969 -1.54297,0 -3.08594,0.78125 -1.54297,0.76172 -3.08594,1.95312 0.0586,0.44922 0.0977,1.05469 0.0391,0.58594 0.0391,1.17188 V 260 h -3.67187 v -12.42188 q 0,-1.44531 -0.13672,-2.73437 -0.11719,-1.30859 -0.52734,-2.08984 -0.44922,-0.83985 -1.28907,-1.25 -0.83984,-0.42969 -2.42187,-0.42969 -1.50391,0 -3.02735,0.74219 -1.5039,0.74218 -3.00781,1.89453 V 260 h -3.67187 v -21.81641 h 3.67187 v 2.42188 q 1.71875,-1.42578 3.41797,-2.22656 1.71875,-0.80079 3.65234,-0.80079 2.22657,0 3.76954,0.9375 1.5625,0.9375 2.32421,2.59766 2.22657,-1.875 4.0625,-2.69531 1.83594,-0.83985 3.92579,-0.83985 3.59375,0 5.29296,2.1875 1.71875,2.16797 1.71875,6.07422 z m 25.33204,-10.52734 h -16.07422 q 0,2.01171 0.60547,3.51562 0.60546,1.48438 1.66015,2.44141 1.01563,0.9375 2.40235,1.40625 1.40625,0.46875 3.08593,0.46875 2.22657,0 4.47266,-0.87891 2.26562,-0.89844 3.22266,-1.75781 h 0.19531 v 4.0039 q -1.85547,0.78125 -3.78906,1.3086 -1.9336,0.52734 -4.0625,0.52734 -5.42969,0 -8.47657,-2.92969 -3.04687,-2.94921 -3.04687,-8.35937 0,-5.35156 2.91015,-8.49609 2.92969,-3.14454 7.69532,-3.14454 4.41406,0 6.79687,2.57813 2.40235,2.57812 2.40235,7.32422 z m -3.57422,-2.8125 q -0.0195,-2.89063 -1.46485,-4.47266 -1.42578,-1.58203 -4.35547,-1.58203 -2.94921,0 -4.70703,1.73828 -1.73828,1.73828 -1.97265,4.31641 z m 48.0664,-1.17188 q 0,3.96484 -1.73828,7.1875 -1.71875,3.22266 -4.58984,5 -1.99219,1.23047 -4.45313,1.77734 Q 303.68317,260 299.67926,260 h -7.34375 v -29.08203 h 7.26563 q 4.25781,0 6.75781,0.625 2.51953,0.60547 4.25781,1.67969 2.96875,1.85546 4.62891,4.9414 1.66015,3.08594 1.66015,7.32422 z m -4.04297,-0.0586 q 0,-3.41797 -1.1914,-5.76172 -1.19141,-2.34375 -3.55469,-3.69141 -1.71875,-0.97656 -3.65234,-1.34765 -1.9336,-0.39063 -4.62891,-0.39063 h -3.63281 v 22.44141 h 3.63281 q 2.79297,0 4.86328,-0.41016 2.08985,-0.41016 3.82813,-1.52344 2.16797,-1.38672 3.24218,-3.65234 1.09375,-2.26563 1.09375,-5.66406 z M 339.81598,260 h -3.65234 v -2.32422 q -0.48829,0.33203 -1.32813,0.9375 -0.82031,0.58594 -1.60156,0.9375 -0.91797,0.44922 -2.10938,0.74219 -1.1914,0.3125 -2.79297,0.3125 -2.94921,0 -5,-1.95313 -2.05078,-1.95312 -2.05078,-4.98047 0,-2.48046 1.05469,-4.0039 1.07422,-1.54297 3.04688,-2.42188 1.99218,-0.8789 4.78515,-1.1914 2.79297,-0.3125 5.9961,-0.46875 v -0.56641 q 0,-1.25 -0.44922,-2.07031 -0.42969,-0.82031 -1.25,-1.28906 -0.78125,-0.44922 -1.875,-0.60547 -1.09375,-0.15625 -2.28516,-0.15625 -1.44531,0 -3.22266,0.39062 -1.77734,0.3711 -3.67187,1.09375 h -0.19531 v -3.73047 q 1.07422,-0.29297 3.10547,-0.64453 2.03125,-0.35156 4.0039,-0.35156 2.30469,0 4.00391,0.39062 1.71875,0.3711 2.96875,1.28907 1.23047,0.89843 1.875,2.32422 0.64453,1.42578 0.64453,3.53515 z m -3.65234,-5.37109 v -6.07422 q -1.67969,0.0977 -3.96485,0.29297 -2.26562,0.19531 -3.59375,0.5664 -1.58203,0.44922 -2.55859,1.40625 -0.97656,0.9375 -0.97656,2.59766 0,1.875 1.13281,2.83203 1.13281,0.9375 3.45703,0.9375 1.93359,0 3.53516,-0.74219 1.60156,-0.76172 2.96875,-1.8164 z m 22.05078,5.17578 q -1.03516,0.27343 -2.26563,0.44922 -1.21094,0.17578 -2.16797,0.17578 -3.33984,0 -5.07812,-1.79688 -1.73828,-1.79687 -1.73828,-5.76172 v -11.60156 h -2.48047 v -3.08594 h 2.48047 v -6.26953 h 3.67187 v 6.26953 h 7.57813 v 3.08594 h -7.57813 v 9.94141 q 0,1.71875 0.0781,2.69531 0.0781,0.95703 0.54687,1.79687 0.42969,0.78125 1.17188,1.15235 0.76172,0.35156 2.30468,0.35156 0.89844,0 1.875,-0.25391 0.97657,-0.27343 1.40625,-0.44921 h 0.19532 z M 379.60114,260 h -3.65235 v -2.32422 q -0.48828,0.33203 -1.32812,0.9375 -0.82032,0.58594 -1.60157,0.9375 -0.91796,0.44922 -2.10937,0.74219 -1.19141,0.3125 -2.79297,0.3125 -2.94922,0 -5,-1.95313 -2.05078,-1.95312 -2.05078,-4.98047 0,-2.48046 1.05469,-4.0039 1.07422,-1.54297 3.04687,-2.42188 1.99219,-0.8789 4.78516,-1.1914 2.79297,-0.3125 5.99609,-0.46875 v -0.56641 q 0,-1.25 -0.44922,-2.07031 -0.42968,-0.82031 -1.25,-1.28906 -0.78125,-0.44922 -1.875,-0.60547 -1.09375,-0.15625 -2.28515,-0.15625 -1.44532,0 -3.22266,0.39062 -1.77734,0.3711 -3.67187,1.09375 h -0.19532 v -3.73047 q 1.07422,-0.29297 3.10547,-0.64453 2.03125,-0.35156 4.00391,-0.35156 2.30469,0 4.0039,0.39062 1.71875,0.3711 2.96875,1.28907 1.23047,0.89843 1.875,2.32422 0.64454,1.42578 0.64454,3.53515 z m -3.65235,-5.37109 v -6.07422 q -1.67969,0.0977 -3.96484,0.29297 -2.26563,0.19531 -3.59375,0.5664 -1.58203,0.44922 -2.5586,1.40625 -0.97656,0.9375 -0.97656,2.59766 0,1.875 1.13281,2.83203 1.13282,0.9375 3.45704,0.9375 1.93359,0 3.53515,-0.74219 1.60156,-0.76172 2.96875,-1.8164 z m 26.3086,-0.91797 q 0,2.98828 -2.48047,4.90234 -2.46094,1.91406 -6.73828,1.91406 -2.42188,0 -4.45313,-0.5664 -2.01172,-0.58594 -3.37891,-1.26953 v -4.1211 h 0.19532 q 1.73828,1.3086 3.86718,2.08985 2.12891,0.76171 4.08204,0.76171 2.42187,0 3.78906,-0.78125 1.36719,-0.78125 1.36719,-2.46093 0,-1.28907 -0.74219,-1.95313 -0.74219,-0.66406 -2.85156,-1.13281 -0.78125,-0.17578 -2.05079,-0.41016 -1.25,-0.23437 -2.28515,-0.50781 -2.8711,-0.76172 -4.08203,-2.22656 -1.19141,-1.48438 -1.19141,-3.63281 0,-1.34766 0.54688,-2.53907 0.5664,-1.1914 1.69921,-2.1289 1.09375,-0.91797 2.77344,-1.44532 1.69922,-0.54687 3.78906,-0.54687 1.95313,0 3.94532,0.48828 2.01172,0.46875 3.33984,1.15234 v 3.92579 h -0.19531 q -1.40625,-1.03516 -3.41797,-1.73829 -2.01172,-0.72265 -3.94531,-0.72265 -2.01172,0 -3.39844,0.78125 -1.38672,0.76172 -1.38672,2.28515 0,1.34766 0.83984,2.03125 0.82032,0.6836 2.65625,1.11329 1.01563,0.23437 2.26563,0.46875 1.26953,0.23437 2.10937,0.42968 2.5586,0.58594 3.94532,2.01172 1.38672,1.44531 1.38672,3.82813 z m 23.51562,-4.23828 h -16.07422 q 0,2.01171 0.60547,3.51562 0.60547,1.48438 1.66016,2.44141 1.01562,0.9375 2.40234,1.40625 1.40625,0.46875 3.08594,0.46875 2.22656,0 4.47265,-0.87891 2.26563,-0.89844 3.22266,-1.75781 h 0.19531 v 4.0039 q -1.85547,0.78125 -3.78906,1.3086 -1.93359,0.52734 -4.0625,0.52734 -5.42969,0 -8.47656,-2.92969 -3.04688,-2.94921 -3.04688,-8.35937 0,-5.35156 2.91016,-8.49609 2.92969,-3.14454 7.69531,-3.14454 4.41406,0 6.79688,2.57813 2.40234,2.57812 2.40234,7.32422 z m -3.57422,-2.8125 q -0.0195,-2.89063 -1.46484,-4.47266 -1.42578,-1.58203 -4.35547,-1.58203 -2.94922,0 -4.70703,1.73828 -1.73828,1.73828 -1.97266,4.31641 z m 20.46875,13.14453 q -1.03515,0.27343 -2.26562,0.44922 -1.21094,0.17578 -2.16797,0.17578 -3.33985,0 -5.07813,-1.79688 -1.73828,-1.79687 -1.73828,-5.76172 v -11.60156 h -2.48047 v -3.08594 h 2.48047 v -6.26953 h 3.67188 v 6.26953 h 7.57812 v 3.08594 h -7.57812 v 9.94141 q 0,1.71875 0.0781,2.69531 0.0781,0.95703 0.54688,1.79687 0.42968,0.78125 1.17187,1.15235 0.76172,0.35156 2.30469,0.35156 0.89844,0 1.875,-0.25391 0.97656,-0.27343 1.40625,-0.44921 h 0.19531 z M 487.35504,260 h -3.86719 v -25.05859 l -8.08593,17.05078 h -2.30469 l -8.02734,-17.05078 V 260 h -3.61329 v -29.08203 h 5.27344 l 7.75391,16.1914 7.5,-16.1914 h 5.37109 z m 25.78125,-10.52734 h -16.07422 q 0,2.01171 0.60547,3.51562 0.60547,1.48438 1.66016,2.44141 1.01562,0.9375 2.40234,1.40625 1.40625,0.46875 3.08594,0.46875 2.22656,0 4.47266,-0.87891 2.26562,-0.89844 3.22265,-1.75781 h 0.19531 v 4.0039 q -1.85546,0.78125 -3.78906,1.3086 -1.93359,0.52734 -4.0625,0.52734 -5.42969,0 -8.47656,-2.92969 -3.04688,-2.94921 -3.04688,-8.35937 0,-5.35156 2.91016,-8.49609 2.92969,-3.14454 7.69531,-3.14454 4.41407,0 6.79688,2.57813 2.40234,2.57812 2.40234,7.32422 z m -3.57422,-2.8125 q -0.0195,-2.89063 -1.46484,-4.47266 -1.42578,-1.58203 -4.35547,-1.58203 -2.94922,0 -4.70703,1.73828 -1.73828,1.73828 -1.97266,4.31641 z m 20.46875,13.14453 q -1.03515,0.27343 -2.26562,0.44922 -1.21094,0.17578 -2.16797,0.17578 -3.33984,0 -5.07813,-1.79688 -1.73828,-1.79687 -1.73828,-5.76172 v -11.60156 h -2.48047 v -3.08594 h 2.48047 v -6.26953 h 3.67188 v 6.26953 h 7.57812 v 3.08594 h -7.57812 v 9.94141 q 0,1.71875 0.0781,2.69531 0.0781,0.95703 0.54688,1.79687 0.42969,0.78125 1.17187,1.15235 0.76172,0.35156 2.30469,0.35156 0.89844,0 1.875,-0.25391 0.97656,-0.27343 1.40625,-0.44921 h 0.19531 z M 548.0777,242.1875 h -0.19531 q -0.82032,-0.19531 -1.60157,-0.27344 -0.76172,-0.0977 -1.8164,-0.0977 -1.69922,0 -3.28125,0.76171 -1.58203,0.74219 -3.04688,1.9336 V 260 h -3.67187 v -21.81641 h 3.67187 v 3.22266 q 2.1875,-1.75781 3.84766,-2.48047 1.67969,-0.74219 3.41797,-0.74219 0.95703,0 1.38672,0.0586 0.42968,0.0391 1.28906,0.17578 z m 7.40234,-7.65625 h -4.14062 v -3.80859 h 4.14062 z M 555.24567,260 h -3.67188 v -21.81641 h 3.67188 z m 23.39843,-1.36719 q -1.83593,0.87891 -3.49609,1.36719 -1.64062,0.48828 -3.49609,0.48828 -2.36328,0 -4.33594,-0.68359 -1.97266,-0.70313 -3.37891,-2.10938 -1.42578,-1.40625 -2.20703,-3.55469 -0.78125,-2.14843 -0.78125,-5.01953 0,-5.35156 2.92969,-8.39843 2.94922,-3.04688 7.77344,-3.04688 1.875,0 3.67187,0.52734 1.81641,0.52735 3.32031,1.28907 v 4.08203 h -0.19531 q -1.67969,-1.3086 -3.47656,-2.01172 -1.77734,-0.70313 -3.47656,-0.70313 -3.125,0 -4.94141,2.10938 -1.79687,2.08984 -1.79687,6.15234 0,3.94532 1.75781,6.07422 1.77734,2.10938 4.98047,2.10938 1.11328,0 2.26562,-0.29297 1.15235,-0.29297 2.07031,-0.76172 0.80079,-0.41016 1.50391,-0.85938 0.70313,-0.46875 1.11328,-0.80078 h 0.19531 z m 20.29297,-4.92187 q 0,2.98828 -2.48047,4.90234 -2.46093,1.91406 -6.73828,1.91406 -2.42187,0 -4.45312,-0.5664 -2.01172,-0.58594 -3.37891,-1.26953 v -4.1211 h 0.19531 q 1.73829,1.3086 3.86719,2.08985 2.12891,0.76171 4.08203,0.76171 2.42188,0 3.78907,-0.78125 1.36718,-0.78125 1.36718,-2.46093 0,-1.28907 -0.74218,-1.95313 -0.74219,-0.66406 -2.85157,-1.13281 -0.78125,-0.17578 -2.05078,-0.41016 -1.25,-0.23437 -2.28515,-0.50781 -2.8711,-0.76172 -4.08204,-2.22656 -1.1914,-1.48438 -1.1914,-3.63281 0,-1.34766 0.54687,-2.53907 0.56641,-1.1914 1.69922,-2.1289 1.09375,-0.91797 2.77344,-1.44532 1.69922,-0.54687 3.78906,-0.54687 1.95313,0 3.94531,0.48828 2.01172,0.46875 3.33985,1.15234 v 3.92579 h -0.19531 q -1.40625,-1.03516 -3.41797,-1.73829 -2.01172,-0.72265 -3.94532,-0.72265 -2.01171,0 -3.39843,0.78125 -1.38672,0.76172 -1.38672,2.28515 0,1.34766 0.83984,2.03125 0.82031,0.6836 2.65625,1.11329 1.01563,0.23437 2.26563,0.46875 1.26953,0.23437 2.10937,0.42968 2.5586,0.58594 3.94531,2.01172 1.38672,1.44531 1.38672,3.82813 z"
   id="text20"
   style="font-size:40px;text-anchor:middle"
   aria-label="Realtime Dataset Metrics" /></svg>
