<?xml version="1.0" encoding="UTF-8" standalone="no"?>
<!-- Generator: Adobe Illustrator 26.0.1, SVG Export Plug-In . SVG Version: 6.00 Build 0)  -->

<svg
   version="1.1"
   id="Layer_1"
   x="0px"
   y="0px"
   viewBox="0 0 700.00385 268.04688"
   xml:space="preserve"
   width="700.00385"
   height="268.04688"
   xmlns="http://www.w3.org/2000/svg"
   xmlns:svg="http://www.w3.org/2000/svg"><defs
   id="defs60" />
<style
   type="text/css"
   id="style2">
	.st0{fill-rule:evenodd;clip-rule:evenodd;fill:url(#SVGID_1_);}
</style>
<g
   id="g53"
   transform="translate(-0.0961328)">
	<g
   id="g16">
		<path
   d="m 285.7,76.8 c 2.7,-1.1 5.1,-2.4 7.4,-3.9 3.2,-2.1 5.9,-4.7 8.1,-7.5 2.2,-2.8 3.9,-6.1 5,-9.5 1.2,-3.5 1.7,-7.2 1.7,-11.1 0,-4.9 -0.9,-9.5 -2.5,-13.6 C 303.7,27 301,23.4 297.3,20.4 293.7,17.5 289,15.2 283.5,13.5 278,11.9 271.3,11.1 263.7,11.1 H 228.2 V 125 h 24.2 V 82.1 h 6.9 c 2.1,0 3.2,0.3 3.7,0.6 0.8,0.4 1.5,1.1 2.2,2.2 l 23.2,35.3 c 1,1.6 2.3,2.8 3.8,3.6 1.5,0.9 3.4,1.3 5.5,1.3 h 22 L 290.1,81.5 c -1.4,-1.8 -2.8,-3.4 -4.4,-4.7 z m -33.4,-46 h 11.2 c 7.1,0 12.4,1.4 15.7,4.1 3.3,2.7 4.8,6.4 4.8,11.4 0,2.5 -0.4,4.9 -1.2,7 -0.8,2.1 -2,3.9 -3.7,5.4 -1.7,1.5 -3.8,2.7 -6.4,3.6 -2.7,0.9 -5.9,1.4 -9.5,1.4 h -10.9 z"
   id="path4" />
		<path
   d="m 382.6,53.4 c -3.5,-3.6 -7.8,-6.5 -12.8,-8.4 -5,-2 -10.5,-3 -16.6,-3 -6,0 -11.6,1 -16.6,2.9 -5,2 -9.3,4.8 -12.9,8.4 -3.5,3.6 -6.3,8.1 -8.3,13.3 -1.9,5.2 -2.9,11 -2.9,17.3 0,6.4 1,12.3 2.9,17.4 1.9,5.2 4.7,9.7 8.3,13.4 3.6,3.7 7.9,6.6 12.9,8.5 5,2 10.6,2.9 16.6,2.9 6,0 11.6,-1 16.6,-3 5,-2 9.3,-4.8 12.8,-8.5 3.5,-3.7 6.3,-8.2 8.2,-13.4 1.9,-5.2 2.9,-11 2.9,-17.4 0,-6.3 -1,-12.2 -2.9,-17.3 -2,-5 -4.7,-9.5 -8.2,-13.1 z m -16.5,48.9 c -2.8,3.9 -7,5.8 -12.9,5.8 -6,0 -10.3,-1.9 -13.1,-5.8 -2.9,-4 -4.4,-10.1 -4.4,-18.1 0,-7.9 1.5,-14.1 4.4,-18.2 2.8,-4 7.1,-5.9 13.1,-5.9 5.9,0 10.1,1.9 12.9,5.8 2.9,4.1 4.3,10.2 4.3,18.2 0,8.1 -1.4,14.2 -4.3,18.2 z"
   id="path6" />
		<path
   d="m 458.4,101.2 c -1.6,0 -3,0.5 -4.3,1.5 -0.9,0.7 -2,1.5 -3.2,2.4 -1.1,0.8 -2.6,1.6 -4.3,2.2 -1.6,0.6 -3.8,1 -6.6,1 -2.7,0 -5.2,-0.5 -7.3,-1.5 -2.1,-1 -3.9,-2.5 -5.4,-4.5 -1.5,-2 -2.7,-4.6 -3.5,-7.6 -0.8,-3.1 -1.3,-6.7 -1.3,-10.6 0,-3.8 0.4,-7.3 1.2,-10.3 0.7,-2.9 1.9,-5.4 3.4,-7.5 1.5,-2 3.3,-3.5 5.5,-4.6 2.2,-1.1 4.9,-1.6 7.9,-1.6 2.4,0 4.4,0.3 5.9,0.8 1.6,0.5 3,1.2 4.2,1.8 1.2,0.7 2.3,1.4 3.2,1.9 1.2,0.8 2.5,1.2 3.8,1.2 1.4,0 2.6,-0.3 3.5,-1 0.7,-0.5 1.3,-1.2 2,-2 l 5.9,-8.2 -1.1,-1.1 c -3.7,-3.7 -7.8,-6.5 -12.4,-8.5 -4.6,-2 -10,-3 -16.1,-3 -6.4,0 -12.1,1.1 -17,3.2 -5,2.1 -9.2,5.1 -12.5,8.9 -3.4,3.8 -5.9,8.3 -7.7,13.4 -1.7,5.1 -2.6,10.6 -2.6,16.6 0,6.6 1,12.6 2.9,17.8 1.9,5.2 4.6,9.7 7.9,13.3 3.3,3.6 7.3,6.4 11.8,8.3 4.5,1.9 9.3,2.9 14.4,2.9 2.8,0 5.7,-0.2 8.6,-0.6 2.9,-0.4 5.8,-1.2 8.5,-2.2 2.7,-1 5.4,-2.4 8,-4.2 2.6,-1.7 5,-3.9 7.2,-6.5 l 1,-1.2 -6.3,-8 c -1.3,-1.7 -3,-2.5 -5.2,-2.5 z"
   id="path8" />
		<path
   d="m 523.9,80.9 c -0.4,-0.5 -0.8,-0.9 -1.2,-1.4 0.4,-0.4 0.8,-0.7 1.2,-1.1 1,-0.9 1.9,-2 2.8,-3.1 l 26.9,-32.1 h -21.2 c -1.9,0 -3.5,0.4 -4.8,1.1 -1.1,0.7 -2.2,1.6 -3.2,2.8 l -19.4,24 c -0.8,1 -1.4,1.4 -1.7,1.5 -0.3,0.1 -0.9,0.3 -2.1,0.3 h -1.6 V 8.2 H 477 v 117 h 22.6 V 89.4 h 2.4 c 1.6,0 2.4,0.2 2.6,0.4 0.2,0.1 0.8,0.5 1.5,1.6 L 526,121 c 1,1.5 2.2,2.6 3.5,3.2 1.3,0.6 2.8,1 4.6,1 h 20.5 L 526.5,84.3 c -0.9,-1.2 -1.8,-2.3 -2.6,-3.4 z"
   id="path10" />
		<path
   d="m 619.2,88 c 0.9,-0.4 1.7,-1 2.2,-1.9 0.5,-0.8 0.8,-1.7 0.9,-2.9 0.1,-1 0.2,-2.3 0.2,-3.8 0,-5.8 -0.9,-11.1 -2.6,-15.7 -1.8,-4.6 -4.3,-8.6 -7.4,-11.8 -3.2,-3.2 -7,-5.7 -11.4,-7.3 -4.3,-1.6 -9.1,-2.5 -14.3,-2.5 -6.1,0 -11.6,1.1 -16.5,3.2 -4.9,2.1 -9,5.1 -12.4,8.7 -3.4,3.6 -6,8 -7.8,12.9 -1.8,4.9 -2.7,10.2 -2.7,15.7 0,7.1 1,13.4 3.1,18.8 2.1,5.4 4.9,10.1 8.6,13.7 3.6,3.7 8,6.5 12.9,8.4 4.9,1.9 10.2,2.8 15.8,2.8 2.8,0 5.8,-0.2 8.8,-0.6 3,-0.4 6.1,-1.2 9,-2.2 2.9,-1 5.8,-2.4 8.5,-4.2 2.7,-1.7 5.2,-3.9 7.4,-6.5 l 1,-1.2 -6.4,-8 c -0.6,-0.8 -1.3,-1.4 -2.1,-1.8 -0.8,-0.5 -1.8,-0.7 -2.9,-0.7 -1.5,0 -3,0.4 -4.5,1.3 -1.2,0.7 -2.7,1.5 -4.3,2.3 -1.5,0.8 -3.4,1.6 -5.5,2.2 -2,0.6 -4.5,1 -7.3,1 -5.7,0 -10.2,-1.7 -13.6,-5.1 -3.1,-3.1 -5,-8 -5.8,-14.5 h 46.3 c 1.1,0.1 2,0 2.8,-0.3 z M 570.6,73.4 c 0.9,-4.2 2.6,-7.6 5,-10 2.8,-2.8 6.5,-4.1 11.6,-4.1 2.5,0 4.7,0.4 6.5,1.2 1.8,0.8 3.3,1.9 4.5,3.4 1.2,1.4 2.1,3.1 2.7,5 0.4,1.4 0.7,2.9 0.8,4.5 z"
   id="path12" />
		<path
   d="m 674.8,107.5 -0.1,-0.1 c -0.5,-0.7 -1,-1.2 -1.5,-1.6 -1.3,-1 -3.2,-1.1 -4.9,-0.1 -0.4,0.3 -0.9,0.5 -1.5,0.8 -0.5,0.3 -1.1,0.5 -1.8,0.8 -0.6,0.2 -1.4,0.3 -2.3,0.3 -1.5,0 -2.6,-0.5 -3.5,-1.4 -0.9,-1 -1.4,-2.5 -1.4,-4.5 V 61.1 h 20.6 V 43.9 H 657.8 V 19.3 h -11.6 c -1.5,0 -2.8,0.4 -3.9,1.2 -1.1,0.8 -1.8,2 -2.1,3.5 l -3.7,20.1 -12.8,2.1 v 9.1 c 0,1.9 0.6,3.3 1.7,4.4 1.1,1 2.4,1.5 3.9,1.5 h 6.1 V 103 c 0,7.2 2,13 6,17.2 4,4.2 9.7,6.3 17,6.3 4,0 7.9,-0.6 11.6,-1.8 3.8,-1.2 7.1,-3.1 10.1,-5.5 l 1.2,-1 z"
   id="path14" />
	</g>
	<g
   id="g34">
		<path
   d="m 253.6,166.6 c -0.2,0.4 -0.5,0.6 -0.9,0.6 -0.3,0 -0.7,-0.2 -1.2,-0.5 -0.5,-0.3 -1.1,-0.7 -1.9,-1.2 -0.8,-0.4 -1.8,-0.8 -2.9,-1.2 -1.2,-0.3 -2.6,-0.5 -4.3,-0.5 -1.5,0 -2.9,0.2 -4.1,0.7 -1.2,0.4 -2.3,1 -3.2,1.7 -0.9,0.7 -1.6,1.6 -2.1,2.5 -0.5,1 -0.7,2 -0.7,3 0,1.3 0.3,2.4 1,3.3 0.7,0.9 1.6,1.6 2.7,2.2 1.1,0.6 2.3,1.1 3.7,1.6 1.4,0.4 2.8,0.9 4.3,1.3 1.5,0.4 2.9,0.9 4.3,1.5 1.4,0.5 2.6,1.2 3.7,2 1.1,0.8 2,1.8 2.7,3 0.7,1.2 1,2.6 1,4.3 0,1.8 -0.3,3.5 -1,5.1 -0.7,1.6 -1.6,2.9 -2.9,4.1 -1.2,1.2 -2.8,2.1 -4.6,2.7 -1.8,0.7 -3.9,1 -6.2,1 -2.9,0 -5.5,-0.5 -7.6,-1.4 -2.1,-0.9 -4,-2.2 -5.7,-3.7 l 1,-1.4 c 0.1,-0.2 0.3,-0.4 0.5,-0.5 0.2,-0.1 0.4,-0.2 0.7,-0.2 0.4,0 0.8,0.2 1.3,0.7 0.5,0.4 1.2,0.9 2.1,1.5 0.9,0.5 1.9,1 3.2,1.5 1.3,0.4 2.9,0.7 4.7,0.7 1.8,0 3.3,-0.2 4.7,-0.7 1.3,-0.5 2.5,-1.2 3.4,-2 0.9,-0.8 1.6,-1.8 2,-3 0.5,-1.1 0.7,-2.3 0.7,-3.6 0,-1.4 -0.3,-2.6 -1,-3.5 -0.7,-0.9 -1.6,-1.7 -2.7,-2.4 -1.1,-0.6 -2.3,-1.2 -3.7,-1.6 -1.4,-0.4 -2.8,-0.9 -4.3,-1.3 -1.5,-0.4 -2.9,-0.9 -4.3,-1.5 -1.4,-0.5 -2.6,-1.2 -3.7,-2 -1.1,-0.8 -2,-1.8 -2.7,-3 -0.7,-1.2 -1,-2.6 -1,-4.4 0,-1.5 0.3,-2.9 1,-4.3 0.6,-1.4 1.6,-2.6 2.8,-3.6 1.2,-1 2.6,-1.9 4.4,-2.5 1.7,-0.6 3.6,-0.9 5.8,-0.9 2.6,0 4.8,0.4 6.8,1.1 2,0.7 3.8,1.9 5.5,3.4 z"
   id="path18" />
		<path
   d="m 303.3,160.7 c 3,0 5.7,0.5 8.1,1.5 2.4,1 4.4,2.5 6,4.4 1.6,1.9 2.9,4.1 3.7,6.8 0.9,2.7 1.3,5.6 1.3,8.9 0,3.3 -0.4,6.2 -1.3,8.9 -0.9,2.6 -2.1,4.9 -3.7,6.8 -1.6,1.9 -3.6,3.3 -6,4.3 -2.4,1 -5.1,1.5 -8.1,1.5 -3,0 -5.7,-0.5 -8.1,-1.5 -2.4,-1 -4.4,-2.5 -6,-4.3 -1.6,-1.9 -2.9,-4.1 -3.7,-6.8 -0.9,-2.6 -1.3,-5.6 -1.3,-8.9 0,-3.3 0.4,-6.3 1.3,-8.9 0.9,-2.7 2.1,-4.9 3.7,-6.8 1.6,-1.9 3.6,-3.3 6,-4.4 2.5,-1 5.1,-1.5 8.1,-1.5 z m 0,39.9 c 2.5,0 4.7,-0.4 6.5,-1.3 1.9,-0.9 3.4,-2.1 4.7,-3.7 1.2,-1.6 2.2,-3.5 2.8,-5.8 0.6,-2.3 0.9,-4.8 0.9,-7.6 0,-2.8 -0.3,-5.3 -0.9,-7.6 -0.6,-2.3 -1.6,-4.2 -2.8,-5.8 -1.2,-1.6 -2.8,-2.9 -4.7,-3.7 -1.9,-0.9 -4,-1.3 -6.5,-1.3 -2.5,0 -4.7,0.4 -6.5,1.3 -1.9,0.9 -3.4,2.1 -4.7,3.7 -1.2,1.6 -2.2,3.6 -2.8,5.8 -0.6,2.3 -0.9,4.8 -0.9,7.6 0,2.8 0.3,5.3 0.9,7.6 0.6,2.3 1.6,4.2 2.8,5.8 1.2,1.6 2.8,2.8 4.7,3.7 1.9,0.9 4,1.3 6.5,1.3 z"
   id="path20" />
		<path
   d="m 355.6,203.2 v -37.5 l -5.9,-0.4 c -0.8,-0.1 -1.2,-0.4 -1.2,-1.1 v -1.6 h 7.1 v -5.3 c 0,-2.4 0.3,-4.5 0.9,-6.3 0.6,-1.8 1.5,-3.3 2.6,-4.5 1.1,-1.2 2.5,-2.1 4.1,-2.7 1.6,-0.6 3.3,-0.9 5.2,-0.9 0.9,0 1.7,0.1 2.6,0.2 0.9,0.2 1.7,0.4 2.3,0.7 l -0.1,1.9 c 0,0.4 -0.3,0.6 -0.8,0.6 -0.3,0 -0.8,0 -1.4,-0.1 -0.6,-0.1 -1.3,-0.1 -2.1,-0.1 -1.4,0 -2.6,0.2 -3.8,0.6 -1.2,0.4 -2.2,1.1 -3,2 -0.8,0.9 -1.5,2.1 -2,3.5 -0.5,1.4 -0.7,3.2 -0.7,5.3 v 5.2 H 373 v 3 h -13.5 v 37.6 h -3.9 z"
   id="path22" />
		<path
   d="m 415.8,203.9 c -2.8,0 -5,-0.8 -6.6,-2.4 -1.6,-1.6 -2.4,-4 -2.4,-7.3 v -28.6 h -6 c -0.3,0 -0.6,-0.1 -0.8,-0.3 -0.2,-0.2 -0.3,-0.4 -0.3,-0.7 V 163 l 7.2,-0.5 1,-15 c 0,-0.3 0.1,-0.5 0.3,-0.7 0.2,-0.2 0.4,-0.3 0.7,-0.3 h 1.9 v 16 H 424 v 3 h -13.2 v 28.4 c 0,1.2 0.1,2.1 0.4,3 0.3,0.8 0.7,1.5 1.2,2 0.5,0.5 1.1,0.9 1.8,1.2 0.7,0.3 1.5,0.4 2.3,0.4 1,0 1.9,-0.1 2.6,-0.4 0.7,-0.3 1.4,-0.6 1.9,-1 0.5,-0.4 1,-0.7 1.3,-1 0.3,-0.3 0.6,-0.4 0.8,-0.4 0.2,0 0.4,0.1 0.7,0.4 l 1.1,1.8 c -1.1,1.2 -2.4,2.1 -4.1,2.8 -1.6,0.9 -3.3,1.2 -5,1.2 z"
   id="path24" />
		<path
   d="m 448.9,161.4 h 3.1 c 0.4,0 0.7,0.1 1,0.3 0.3,0.2 0.4,0.4 0.5,0.7 l 10.6,33.1 c 0.2,0.6 0.4,1.3 0.5,1.9 0.1,0.6 0.2,1.2 0.3,1.8 0.1,-0.6 0.3,-1.2 0.5,-1.8 0.2,-0.6 0.4,-1.2 0.6,-1.9 l 11.2,-33.3 c 0.2,-0.6 0.6,-0.9 1.2,-0.9 h 1.6 c 0.6,0 1,0.3 1.2,0.9 l 11.1,33.3 c 0.4,1.3 0.8,2.5 1,3.7 0.1,-0.6 0.2,-1.2 0.4,-1.8 0.1,-0.6 0.3,-1.2 0.5,-1.9 l 10.6,-33.1 c 0.2,-0.7 0.7,-1 1.4,-1 h 2.9 l -14,41.9 h -2.9 c -0.4,0 -0.8,-0.3 -1,-0.9 l -11.5,-34 c -0.1,-0.4 -0.3,-0.8 -0.4,-1.3 -0.1,-0.4 -0.2,-0.8 -0.3,-1.3 -0.1,0.4 -0.2,0.8 -0.3,1.3 -0.1,0.4 -0.2,0.8 -0.4,1.3 l -11.6,34 c -0.2,0.6 -0.5,0.9 -1,0.9 h -2.8 z"
   id="path26" />
		<path
   d="m 562.8,203.2 c -0.8,0 -1.4,-0.4 -1.6,-1.2 l -0.6,-5.3 c -1.2,1.1 -2.3,2.1 -3.4,3 -1.1,0.9 -2.3,1.7 -3.6,2.3 -1.2,0.6 -2.6,1.1 -4,1.4 -1.4,0.3 -3,0.5 -4.7,0.5 -1.4,0 -2.8,-0.2 -4.2,-0.6 -1.3,-0.4 -2.5,-1.1 -3.6,-1.9 -1,-0.9 -1.9,-2 -2.5,-3.3 -0.6,-1.4 -0.9,-3 -0.9,-4.9 0,-1.8 0.5,-3.4 1.5,-4.9 1,-1.5 2.6,-2.8 4.7,-4 2.1,-1.1 4.9,-2 8.3,-2.7 3.4,-0.7 7.4,-1.1 12.2,-1.2 V 176 c 0,-3.9 -0.8,-6.9 -2.5,-8.9 -1.7,-2.1 -4.1,-3.1 -7.4,-3.1 -2,0 -3.7,0.3 -5.2,0.8 -1.4,0.6 -2.6,1.2 -3.6,1.9 -1,0.7 -1.8,1.3 -2.4,1.9 -0.6,0.6 -1.1,0.8 -1.6,0.8 -0.6,0 -1,-0.3 -1.3,-0.8 l -0.7,-1.2 c 2.2,-2.2 4.5,-3.8 6.9,-5 2.4,-1.1 5.2,-1.7 8.2,-1.7 2.2,0 4.2,0.4 5.9,1.1 1.7,0.7 3.1,1.7 4.2,3.1 1.1,1.3 1.9,2.9 2.5,4.8 0.6,1.9 0.8,4 0.8,6.3 v 27.3 h -1.4 z M 546,201 c 1.6,0 3.1,-0.2 4.5,-0.5 1.4,-0.4 2.6,-0.8 3.8,-1.5 1.2,-0.6 2.3,-1.4 3.3,-2.3 1,-0.9 2,-1.8 3,-2.8 V 183 c -4,0.1 -7.4,0.4 -10.3,0.9 -2.9,0.5 -5.2,1.2 -7.1,2 -1.9,0.8 -3.2,1.8 -4.1,3 -0.9,1.2 -1.3,2.5 -1.3,4 0,1.4 0.2,2.6 0.7,3.6 0.5,1 1.1,1.9 1.8,2.5 0.8,0.7 1.6,1.1 2.7,1.5 0.8,0.4 1.9,0.5 3,0.5 z"
   id="path28" />
		<path
   d="m 597.7,203.2 v -41.9 h 2.1 c 0.5,0 0.8,0.1 1,0.3 0.2,0.2 0.3,0.5 0.4,1 l 0.3,8.8 c 1.3,-3.4 3.1,-6.1 5.4,-8 2.2,-1.9 5,-2.9 8.3,-2.9 1.3,0 2.4,0.1 3.5,0.4 1.1,0.3 2.1,0.7 3,1.2 l -0.5,2.8 c -0.1,0.4 -0.4,0.7 -0.8,0.7 -0.2,0 -0.4,-0.1 -0.7,-0.2 -0.3,-0.1 -0.7,-0.2 -1.2,-0.4 -0.5,-0.1 -1,-0.3 -1.7,-0.4 -0.7,-0.1 -1.4,-0.2 -2.3,-0.2 -3.2,0 -5.8,1 -7.8,2.9 -2,2 -3.7,4.8 -4.9,8.5 V 203 h -4.1 z"
   id="path30" />
		<path
   d="m 661.5,160.7 c 2.4,0 4.5,0.4 6.5,1.2 2,0.8 3.7,2 5.2,3.6 1.5,1.6 2.6,3.5 3.5,5.7 0.8,2.3 1.2,4.9 1.2,7.8 0,0.6 -0.1,1 -0.3,1.3 -0.2,0.3 -0.5,0.3 -0.9,0.3 h -30.2 v 0.8 c 0,3.1 0.4,5.9 1.1,8.3 0.7,2.4 1.8,4.4 3.1,6 1.3,1.6 3,2.8 4.9,3.6 1.9,0.8 4,1.2 6.4,1.2 2.1,0 3.9,-0.2 5.5,-0.7 1.5,-0.5 2.8,-1 3.9,-1.6 1.1,-0.6 1.9,-1.1 2.5,-1.6 0.6,-0.5 1.1,-0.7 1.3,-0.7 0.4,0 0.6,0.1 0.8,0.4 l 1.1,1.3 c -0.7,0.8 -1.6,1.6 -2.7,2.4 -1.1,0.7 -2.3,1.4 -3.7,1.9 -1.4,0.5 -2.8,0.9 -4.4,1.2 -1.6,0.3 -3.1,0.5 -4.7,0.5 -2.9,0 -5.5,-0.5 -7.8,-1.5 -2.4,-1 -4.4,-2.4 -6.1,-4.4 -1.7,-1.9 -3,-4.2 -3.9,-7 -0.9,-2.8 -1.4,-5.9 -1.4,-9.5 0,-3 0.4,-5.8 1.3,-8.3 0.9,-2.5 2.1,-4.7 3.7,-6.6 1.6,-1.8 3.6,-3.3 5.9,-4.3 2.5,-0.8 5.2,-1.3 8.2,-1.3 z m 0,3 c -2.2,0 -4.1,0.3 -5.8,1 -1.7,0.7 -3.2,1.6 -4.4,2.9 -1.2,1.3 -2.3,2.8 -3,4.5 -0.8,1.8 -1.3,3.7 -1.5,5.9 h 27.6 c 0,-2.2 -0.3,-4.3 -0.9,-6 -0.6,-1.8 -1.5,-3.3 -2.6,-4.5 -1.1,-1.2 -2.5,-2.2 -4,-2.8 -1.7,-0.7 -3.5,-1 -5.4,-1 z"
   id="path32" />
	</g>
	
		<linearGradient
   id="SVGID_1_"
   gradientUnits="userSpaceOnUse"
   x1="189.9189"
   y1="41.316002"
   x2="20.8398"
   y2="-127.7631"
   gradientTransform="matrix(1,0,0,-1,0,55.2499)">
		<stop
   offset="0"
   style="stop-color:#D257FC"
   id="stop36" />
		<stop
   offset="0.146"
   style="stop-color:#B72DCD"
   id="stop38" />
		<stop
   offset="0.316"
   style="stop-color:#990099"
   id="stop40" />
		<stop
   offset="0.4407"
   style="stop-color:#8412B7"
   id="stop42" />
		<stop
   offset="0.7562"
   style="stop-color:#503EFF"
   id="stop44" />
	</linearGradient>
	<path
   class="st0"
   d="M 4.1,92 C 2.7,91.6 1.5,90.7 0.8,89.4 0.1,88.1 -0.1,86.6 0.3,85.2 0.7,83.8 1.6,82.6 2.9,81.9 4,81.2 5.5,81 7,81.4 l 50,13.4 v 0 c 3.1,0.9 6.4,0.9 9.6,0.1 l 0.3,-0.1 c 3,-0.9 5.8,-2.6 8,-4.8 v 0 L 155.3,9.6 c 1,-1 2.4,-1.6 3.9,-1.6 1.5,0 2.9,0.6 3.9,1.6 1,1 1.6,2.4 1.6,3.9 0,1.5 -0.6,2.9 -1.6,3.9 L 82.6,97.8 v 0 c -3.6,3.6 -8,6.2 -12.8,7.6 -0.1,0 -0.3,0.1 -0.4,0.1 -5,1.3 -10.3,1.3 -15.3,-0.1 v 0 z m 18.6,-18.6 25.6,6.9 c 5,1.4 10.3,1.4 15.3,0.1 5,-1.3 9.6,-4 13.2,-7.7 l 32.8,-32.8 c 1,-1 1.6,-2.4 1.6,-3.9 0,-1.5 -0.6,-2.9 -1.6,-3.9 -1,-1 -2.4,-1.6 -3.9,-1.6 -1.5,0 -2.9,0.6 -3.9,1.6 L 68.9,64.8 c -2.4,2.4 -5.3,4.1 -8.3,4.9 -3,0.8 -6.3,0.8 -9.6,-0.1 L 25.4,62.7 c -0.7,-0.2 -1.4,-0.3 -2.2,-0.2 -0.7,0.1 -1.4,0.3 -2.1,0.7 -0.6,0.4 -1.2,0.8 -1.6,1.4 -0.4,0.6 -0.8,1.2 -1,2 -0.2,0.7 -0.2,1.4 -0.1,2.2 0.1,0.7 0.3,1.4 0.7,2.1 0.4,0.6 0.9,1.2 1.5,1.6 0.7,0.4 1.4,0.8 2.1,0.9 z M 122.6,197 109.2,147 c -0.9,-3.1 -0.9,-6.4 -0.1,-9.6 l 0.1,-0.3 c 0.9,-3 2.5,-5.8 4.8,-8 l 80.4,-80.4 c 1,-1 1.6,-2.4 1.6,-3.9 0,-1.5 -0.6,-2.9 -1.6,-3.9 -1,-1 -2.4,-1.6 -3.9,-1.6 -1.5,0 -2.9,0.6 -3.9,1.6 l -80.3,80.4 c -3.6,3.5 -6.2,8 -7.6,12.8 0,0.1 -0.1,0.3 -0.1,0.4 -1.3,5 -1.3,10.3 0.1,15.3 v 0 l 13.4,50 c 0.4,1.4 1.3,2.6 2.6,3.3 1.3,0.7 2.8,0.9 4.2,0.5 1.4,-0.4 2.6,-1.3 3.3,-2.6 0.5,-1.1 0.7,-2.6 0.4,-4 z m 18.5,-18.6 -6.9,-25.6 c -0.9,-3.1 -0.9,-6.4 -0.1,-9.6 l 0.1,-0.3 c 0.9,-3 2.6,-5.8 4.8,-8 l 32.8,-32.8 c 1,-1 1.6,-2.4 1.6,-3.9 0,-1.5 -0.6,-2.9 -1.6,-3.9 -1,-1 -2.4,-1.6 -3.9,-1.6 -1.5,0 -2.9,0.6 -3.9,1.6 l -32.8,32.8 c -3.6,3.6 -6.2,8 -7.6,12.8 0,0.1 -0.1,0.3 -0.1,0.4 -1.3,5 -1.3,10.3 0.1,15.3 v 0 l 6.9,25.6 c 0.2,0.7 0.5,1.4 1,1.9 0.4,0.6 1,1.1 1.6,1.4 0.6,0.4 1.3,0.6 2,0.7 0.7,0.1 1.4,0 2.1,-0.1 0.7,-0.2 1.4,-0.5 1.9,-1 0.6,-0.4 1.1,-1 1.4,-1.6 0.4,-0.6 0.6,-1.3 0.7,-2 0.2,-0.7 0.1,-1.4 -0.1,-2.1 z M 183.8,12.3 16.6,179.5 c -1,1 -1.6,2.4 -1.6,3.9 0,1.5 0.6,2.9 1.6,3.9 1,1 2.4,1.6 3.9,1.6 1.5,0 2.9,-0.6 3.9,-1.6 L 191.6,20.2 c 1,-1 1.6,-2.4 1.6,-3.9 0,-1.5 -0.6,-2.8 -1.6,-3.9 -1,-1 -2.4,-1.6 -3.9,-1.6 -1.5,0 -2.9,0.5 -3.9,1.5 z m -133.2,101.9 -35,35 c -1,1 -1.6,2.4 -1.6,3.9 0,1.5 0.6,2.9 1.6,3.9 1,1 2.4,1.6 3.9,1.6 1.5,0 2.9,-0.6 3.9,-1.6 l 35,-35 c 0.5,-0.5 0.9,-1.1 1.2,-1.8 0.3,-0.7 0.4,-1.4 0.4,-2.1 0,-0.7 -0.1,-1.4 -0.4,-2.1 -0.3,-0.7 -0.7,-1.3 -1.2,-1.8 -0.5,-0.5 -1.1,-0.9 -1.8,-1.2 -0.7,-0.3 -1.4,-0.4 -2.1,-0.4 -0.7,0 -1.4,0.1 -2.1,0.4 -0.7,0.2 -1.3,0.6 -1.8,1.2 z m 31.3,31.3 -35,35 c -1,1 -1.6,2.4 -1.6,3.9 0,1.5 0.6,2.9 1.6,3.9 1,1 2.4,1.6 3.9,1.6 1.5,0 2.9,-0.6 3.9,-1.6 l 35,-35 c 1,-1 1.6,-2.4 1.6,-3.9 0,-1.5 -0.6,-2.8 -1.6,-3.9 -1,-1 -2.4,-1.6 -3.9,-1.6 -1.4,0 -2.8,0.6 -3.9,1.6 z"
   id="path47"
   style="fill:url(#SVGID_1_)" />
	<g
   id="g51">
		<path
   d="m 672.3,13.9 c 0,-1.3 0.2,-2.5 0.5,-3.7 0.3,-1.2 0.8,-2.3 1.4,-3.3 0.6,-1 1.3,-2 2.2,-2.8 0.8,-0.8 1.8,-1.6 2.8,-2.2 1,-0.6 2.1,-1.1 3.3,-1.4 1.2,-0.3 2.4,-0.5 3.7,-0.5 1.3,0 2.5,0.2 3.7,0.5 1.2,0.3 2.3,0.8 3.3,1.4 1,0.6 2,1.3 2.8,2.2 0.8,0.8 1.6,1.8 2.2,2.8 0.6,1 1.1,2.1 1.4,3.3 0.3,1.2 0.5,2.4 0.5,3.7 0,1.3 -0.2,2.5 -0.5,3.7 -0.3,1.2 -0.8,2.3 -1.4,3.3 -0.6,1 -1.3,2 -2.2,2.8 -0.8,0.8 -1.8,1.6 -2.8,2.2 -1,0.6 -2.1,1.1 -3.3,1.4 -1.2,0.3 -2.4,0.5 -3.7,0.5 -1.3,0 -2.5,-0.2 -3.7,-0.5 -1.2,-0.3 -2.3,-0.8 -3.3,-1.4 -1,-0.6 -2,-1.3 -2.8,-2.2 -0.8,-0.8 -1.6,-1.8 -2.2,-2.8 -0.6,-1 -1.1,-2.1 -1.4,-3.3 -0.3,-1.2 -0.5,-2.4 -0.5,-3.7 z m 1.9,0 c 0,1.1 0.1,2.2 0.4,3.2 0.3,1 0.7,2 1.2,2.9 0.5,0.9 1.1,1.7 1.9,2.5 0.7,0.7 1.5,1.4 2.4,1.9 0.9,0.5 1.8,0.9 2.9,1.2 1,0.3 2.1,0.4 3.2,0.4 1.7,0 3.2,-0.3 4.7,-0.9 1.5,-0.6 2.7,-1.5 3.8,-2.6 1.1,-1.1 1.9,-2.4 2.6,-3.8 0.6,-1.5 0.9,-3.1 0.9,-4.7 0,-1.1 -0.1,-2.2 -0.4,-3.3 -0.3,-1 -0.7,-2 -1.2,-2.9 -0.5,-0.9 -1.1,-1.7 -1.9,-2.5 -0.7,-0.7 -1.5,-1.4 -2.4,-1.9 -0.9,-0.5 -1.8,-0.9 -2.9,-1.2 -1,-0.3 -2.1,-0.4 -3.2,-0.4 -1.7,0 -3.2,0.3 -4.7,1 -1.5,0.6 -2.7,1.5 -3.8,2.6 -1.1,1.1 -1.9,2.4 -2.5,3.9 -0.7,1.4 -1,3 -1,4.6 z m 9.2,1.7 v 6.7 h -3 V 5.5 h 5.5 c 2.2,0 3.8,0.4 4.8,1.2 1,0.8 1.6,2 1.6,3.5 0,1.2 -0.3,2.2 -1,3 -0.7,0.8 -1.7,1.4 -3,1.7 0.2,0.1 0.4,0.3 0.6,0.5 0.2,0.2 0.3,0.4 0.4,0.7 l 4.3,6.3 h -2.8 c -0.4,0 -0.7,-0.2 -0.9,-0.5 l -3.8,-5.7 c -0.1,-0.2 -0.2,-0.3 -0.4,-0.4 -0.2,-0.1 -0.4,-0.1 -0.7,-0.1 h -1.6 z m 0,-2.1 h 2.2 c 0.7,0 1.3,-0.1 1.8,-0.2 0.5,-0.1 0.9,-0.3 1.2,-0.6 0.3,-0.3 0.5,-0.6 0.6,-0.9 0.1,-0.4 0.2,-0.8 0.2,-1.3 0,-0.5 -0.1,-0.9 -0.2,-1.2 -0.1,-0.4 -0.3,-0.6 -0.6,-0.9 -0.3,-0.2 -0.6,-0.4 -1.1,-0.5 -0.4,-0.1 -1,-0.2 -1.6,-0.2 h -2.5 z"
   id="path49" />
	</g>
</g>
<g
   aria-label="Rocket Support for Zowe"
   id="text55"
   style="font-size:40px;text-anchor:middle"
   transform="translate(-0.0961328)"><path
     d="m 128.41797,260 h -5.01953 l -9.72656,-11.5625 h -5.44922 V 260 h -3.86719 V 230.91797 H 112.5 q 2.63672,0 4.39453,0.35156 1.75781,0.33203 3.16406,1.21094 1.58204,0.99609 2.46094,2.51953 0.89844,1.50391 0.89844,3.82812 0,3.14454 -1.58203,5.27344 -1.58203,2.10938 -4.35547,3.1836 z M 119.375,239.10156 q 0,-1.25 -0.44922,-2.20703 -0.42969,-0.97656 -1.44531,-1.64062 -0.83984,-0.56641 -1.99219,-0.78125 -1.15234,-0.23438 -2.71484,-0.23438 h -4.55078 v 10.97656 h 3.90625 q 1.83593,0 3.20312,-0.3125 1.36719,-0.33203 2.32422,-1.21093 0.87891,-0.82032 1.28906,-1.875 0.42969,-1.07422 0.42969,-2.71485 z"
     id="path62" /><path
     d="m 149.49219,249.10156 q 0,5.33203 -2.73438,8.41797 -2.73437,3.08594 -7.32422,3.08594 -4.6289,0 -7.36328,-3.08594 -2.71484,-3.08594 -2.71484,-8.41797 0,-5.33203 2.71484,-8.41797 2.73438,-3.10547 7.36328,-3.10547 4.58985,0 7.32422,3.10547 2.73438,3.08594 2.73438,8.41797 z m -3.78907,0 q 0,-4.23828 -1.66015,-6.28906 -1.66016,-2.07031 -4.60938,-2.07031 -2.98828,0 -4.64843,2.07031 -1.64063,2.05078 -1.64063,6.28906 0,4.10156 1.66016,6.23047 1.66015,2.10938 4.6289,2.10938 2.92969,0 4.58985,-2.08985 1.67968,-2.10937 1.67968,-6.25 z"
     id="path64" /><path
     d="m 171.30859,258.63281 q -1.83593,0.87891 -3.49609,1.36719 -1.64063,0.48828 -3.49609,0.48828 -2.36329,0 -4.33594,-0.68359 -1.97266,-0.70313 -3.37891,-2.10938 -1.42578,-1.40625 -2.20703,-3.55469 -0.78125,-2.14843 -0.78125,-5.01953 0,-5.35156 2.92969,-8.39843 2.94922,-3.04688 7.77344,-3.04688 1.875,0 3.67187,0.52734 1.81641,0.52735 3.32031,1.28907 v 4.08203 h -0.19531 q -1.67969,-1.3086 -3.47656,-2.01172 -1.77735,-0.70313 -3.47656,-0.70313 -3.125,0 -4.94141,2.10938 -1.79688,2.08984 -1.79688,6.15234 0,3.94532 1.75782,6.07422 1.77734,2.10938 4.98047,2.10938 1.11328,0 2.26562,-0.29297 1.15234,-0.29297 2.07031,-0.76172 0.80078,-0.41016 1.50391,-0.85938 0.70312,-0.46875 1.11328,-0.80078 h 0.19531 z"
     id="path66" /><path
     d="m 195.82031,260 h -4.84375 l -8.75,-9.55078 -2.38281,2.26562 V 260 h -3.67188 v -30.39063 h 3.67188 v 19.49219 l 10.60547,-10.91797 h 4.6289 l -10.13671,10.07813 z"
     id="path68" /><path
     d="m 217.55859,249.47266 h -16.07422 q 0,2.01171 0.60547,3.51562 0.60547,1.48438 1.66016,2.44141 1.01562,0.9375 2.40234,1.40625 1.40625,0.46875 3.08594,0.46875 2.22656,0 4.47266,-0.87891 2.26562,-0.89844 3.22265,-1.75781 h 0.19532 v 4.0039 q -1.85547,0.78125 -3.78907,1.3086 -1.93359,0.52734 -4.0625,0.52734 -5.42968,0 -8.47656,-2.92969 -3.04687,-2.94921 -3.04687,-8.35937 0,-5.35156 2.91015,-8.49609 2.92969,-3.14454 7.69531,-3.14454 4.41407,0 6.79688,2.57813 2.40234,2.57812 2.40234,7.32422 z m -3.57422,-2.8125 q -0.0195,-2.89063 -1.46484,-4.47266 -1.42578,-1.58203 -4.35547,-1.58203 -2.94922,0 -4.70703,1.73828 -1.73828,1.73828 -1.97266,4.31641 z"
     id="path70" /><path
     d="m 234.45312,259.80469 q -1.03515,0.27343 -2.26562,0.44922 -1.21094,0.17578 -2.16797,0.17578 -3.33984,0 -5.07812,-1.79688 -1.73829,-1.79687 -1.73829,-5.76172 v -11.60156 h -2.48046 v -3.08594 h 2.48046 v -6.26953 h 3.67188 v 6.26953 h 7.57812 v 3.08594 H 226.875 v 9.94141 q 0,1.71875 0.0781,2.69531 0.0781,0.95703 0.54688,1.79687 0.42969,0.78125 1.17187,1.15235 0.76172,0.35156 2.30469,0.35156 0.89844,0 1.875,-0.25391 0.97656,-0.27343 1.40625,-0.44921 h 0.19531 z"
     id="path72" /><path
     d="m 274.375,251.69922 q 0,1.69922 -0.80078,3.35937 -0.78125,1.66016 -2.20703,2.8125 -1.5625,1.25 -3.65235,1.95313 -2.07031,0.70312 -5,0.70312 -3.14453,0 -5.66406,-0.58593 -2.5,-0.58594 -5.09766,-1.73829 v -4.84375 h 0.27344 q 2.20703,1.83594 5.09766,2.83204 2.89062,0.99609 5.42969,0.99609 3.59375,0 5.58593,-1.34766 2.01172,-1.34765 2.01172,-3.59375 0,-1.93359 -0.95703,-2.85156 -0.9375,-0.91797 -2.87109,-1.42578 -1.46485,-0.39063 -3.1836,-0.64453 -1.69922,-0.25391 -3.61328,-0.64453 -3.86719,-0.82032 -5.74219,-2.79297 -1.85546,-1.99219 -1.85546,-5.17578 0,-3.65235 3.08593,-5.97657 3.08594,-2.34375 7.83203,-2.34375 3.06641,0 5.625,0.58594 2.5586,0.58594 4.53125,1.44531 v 4.57032 h -0.27343 q -1.66016,-1.40625 -4.375,-2.32422 -2.69532,-0.9375 -5.52735,-0.9375 -3.10547,0 -5,1.28906 -1.875,1.28906 -1.875,3.32031 0,1.81641 0.9375,2.85157 0.9375,1.03515 3.30078,1.58203 1.25,0.27343 3.55469,0.66406 2.30469,0.39062 3.90625,0.80078 3.24219,0.85938 4.88281,2.59766 1.64063,1.73828 1.64063,4.86328 z"
     id="path74" /><path
     d="m 298.37891,260 h -3.67188 v -2.42188 q -1.85547,1.46485 -3.55469,2.2461 -1.69922,0.78125 -3.75,0.78125 -3.4375,0 -5.35156,-2.08985 -1.91406,-2.10937 -1.91406,-6.17187 v -14.16016 h 3.67187 v 12.42188 q 0,1.66015 0.15625,2.85156 0.15625,1.17188 0.66407,2.01172 0.52734,0.85937 1.36718,1.25 0.83985,0.39062 2.44141,0.39062 1.42578,0 3.10547,-0.74218 1.69922,-0.74219 3.16406,-1.89453 v -16.28907 h 3.67188 z"
     id="path76" /><path
     d="m 324.80469,248.82812 q 0,2.65625 -0.76172,4.86329 -0.76172,2.1875 -2.14844,3.71093 -1.28906,1.44532 -3.04687,2.2461 -1.73829,0.78125 -3.69141,0.78125 -1.69922,0 -3.08594,-0.3711 -1.36719,-0.37109 -2.79297,-1.15234 v 9.14062 h -3.67187 v -29.86328 h 3.67187 v 2.28516 q 1.46485,-1.23047 3.28125,-2.05078 1.83594,-0.83985 3.90625,-0.83985 3.94532,0 6.13282,2.98829 2.20703,2.96875 2.20703,8.26171 z m -3.78907,0.0977 q 0,-3.94531 -1.34765,-5.89844 -1.34766,-1.95312 -4.14063,-1.95312 -1.58203,0 -3.18359,0.68359 -1.60156,0.6836 -3.06641,1.79688 v 12.36328 q 1.5625,0.70312 2.67578,0.95703 1.13282,0.25391 2.5586,0.25391 3.0664,0 4.78515,-2.07032 1.71875,-2.07031 1.71875,-6.13281 z"
     id="path78" /><path
     d="m 349.72656,248.82812 q 0,2.65625 -0.76172,4.86329 -0.76172,2.1875 -2.14843,3.71093 -1.28907,1.44532 -3.04688,2.2461 -1.73828,0.78125 -3.69141,0.78125 -1.69921,0 -3.08593,-0.3711 -1.36719,-0.37109 -2.79297,-1.15234 v 9.14062 h -3.67188 v -29.86328 h 3.67188 v 2.28516 q 1.46484,-1.23047 3.28125,-2.05078 1.83594,-0.83985 3.90625,-0.83985 3.94531,0 6.13281,2.98829 2.20703,2.96875 2.20703,8.26171 z m -3.78906,0.0977 q 0,-3.94531 -1.34766,-5.89844 -1.34765,-1.95312 -4.14062,-1.95312 -1.58203,0 -3.1836,0.68359 -1.60156,0.6836 -3.0664,1.79688 v 12.36328 q 1.5625,0.70312 2.67578,0.95703 1.13281,0.25391 2.55859,0.25391 3.06641,0 4.78516,-2.07032 1.71875,-2.07031 1.71875,-6.13281 z"
     id="path80" /><path
     d="m 374.04297,249.10156 q 0,5.33203 -2.73438,8.41797 -2.73437,3.08594 -7.32422,3.08594 -4.6289,0 -7.36328,-3.08594 -2.71484,-3.08594 -2.71484,-8.41797 0,-5.33203 2.71484,-8.41797 2.73438,-3.10547 7.36328,-3.10547 4.58985,0 7.32422,3.10547 2.73438,3.08594 2.73438,8.41797 z m -3.78906,0 q 0,-4.23828 -1.66016,-6.28906 -1.66016,-2.07031 -4.60938,-2.07031 -2.98828,0 -4.64843,2.07031 -1.64063,2.05078 -1.64063,6.28906 0,4.10156 1.66016,6.23047 1.66015,2.10938 4.6289,2.10938 2.92969,0 4.58985,-2.08985 1.67969,-2.10937 1.67969,-6.25 z"
     id="path82" /><path
     d="m 393.33984,242.1875 h -0.19531 q -0.82031,-0.19531 -1.60156,-0.27344 -0.76172,-0.0977 -1.81641,-0.0977 -1.69922,0 -3.28125,0.76171 -1.58203,0.74219 -3.04687,1.9336 V 260 h -3.67188 v -21.81641 h 3.67188 v 3.22266 q 2.1875,-1.75781 3.84765,-2.48047 1.67969,-0.74219 3.41797,-0.74219 0.95703,0 1.38672,0.0586 0.42969,0.0391 1.28906,0.17578 z"
     id="path84" /><path
     d="m 408.125,259.80469 q -1.03516,0.27343 -2.26563,0.44922 -1.21093,0.17578 -2.16796,0.17578 -3.33985,0 -5.07813,-1.79688 -1.73828,-1.79687 -1.73828,-5.76172 v -11.60156 h -2.48047 v -3.08594 h 2.48047 v -6.26953 h 3.67187 v 6.26953 h 7.57813 v 3.08594 h -7.57813 v 9.94141 q 0,1.71875 0.0781,2.69531 0.0781,0.95703 0.54687,1.79687 0.42969,0.78125 1.17188,1.15235 0.76172,0.35156 2.30469,0.35156 0.89843,0 1.875,-0.25391 0.97656,-0.27343 1.40625,-0.44921 h 0.19531 z"
     id="path86" /><path
     d="m 438.35937,233.16406 h -0.19531 q -0.60547,-0.17578 -1.58203,-0.35156 -0.97656,-0.19531 -1.71875,-0.19531 -2.36328,0 -3.4375,1.05468 -1.05469,1.03516 -1.05469,3.76954 v 0.74218 h 6.6211 v 3.08594 h -6.50391 V 260 h -3.67187 v -18.73047 h -2.48047 v -3.08594 h 2.48047 v -0.72265 q 0,-3.88672 1.93359,-5.95703 1.93359,-2.08985 5.58594,-2.08985 1.23047,0 2.20703,0.11719 0.99609,0.11719 1.8164,0.27344 z"
     id="path88" /><path
     d="m 459.27734,249.10156 q 0,5.33203 -2.73437,8.41797 -2.73438,3.08594 -7.32422,3.08594 -4.62891,0 -7.36328,-3.08594 -2.71485,-3.08594 -2.71485,-8.41797 0,-5.33203 2.71485,-8.41797 2.73437,-3.10547 7.36328,-3.10547 4.58984,0 7.32422,3.10547 2.73437,3.08594 2.73437,8.41797 z m -3.78906,0 q 0,-4.23828 -1.66016,-6.28906 -1.66015,-2.07031 -4.60937,-2.07031 -2.98828,0 -4.64844,2.07031 -1.64062,2.05078 -1.64062,6.28906 0,4.10156 1.66015,6.23047 1.66016,2.10938 4.62891,2.10938 2.92969,0 4.58984,-2.08985 1.67969,-2.10937 1.67969,-6.25 z"
     id="path90" /><path
     d="m 478.57422,242.1875 h -0.19531 q -0.82032,-0.19531 -1.60157,-0.27344 -0.76172,-0.0977 -1.8164,-0.0977 -1.69922,0 -3.28125,0.76171 -1.58203,0.74219 -3.04688,1.9336 V 260 h -3.67187 v -21.81641 h 3.67187 v 3.22266 q 2.1875,-1.75781 3.84766,-2.48047 1.67969,-0.74219 3.41797,-0.74219 0.95703,0 1.38672,0.0586 0.42968,0.0391 1.28906,0.17578 z"
     id="path92" /><path
     d="m 517.63672,260 h -22.69531 v -3.59375 l 17.83203,-22.05078 h -17.16797 v -3.4375 h 21.60156 v 3.49609 l -18.00781,22.14844 h 18.4375 z"
     id="path94" /><path
     d="m 540.91797,249.10156 q 0,5.33203 -2.73438,8.41797 -2.73437,3.08594 -7.32422,3.08594 -4.6289,0 -7.36328,-3.08594 -2.71484,-3.08594 -2.71484,-8.41797 0,-5.33203 2.71484,-8.41797 2.73438,-3.10547 7.36328,-3.10547 4.58985,0 7.32422,3.10547 2.73438,3.08594 2.73438,8.41797 z m -3.78906,0 q 0,-4.23828 -1.66016,-6.28906 -1.66016,-2.07031 -4.60938,-2.07031 -2.98828,0 -4.64843,2.07031 -1.64063,2.05078 -1.64063,6.28906 0,4.10156 1.66016,6.23047 1.66015,2.10938 4.6289,2.10938 2.92969,0 4.58985,-2.08985 1.67969,-2.10937 1.67969,-6.25 z"
     id="path96" /><path
     d="M 574.04297,238.18359 568.35937,260 h -3.39843 L 559.35547,243.18359 553.78906,260 h -3.3789 l -5.74219,-21.81641 h 3.82812 l 4.00391,16.89453 5.44922,-16.89453 h 3.02734 l 5.58594,16.89453 3.78906,-16.89453 z"
     id="path98" /><path
     d="m 597.59766,249.47266 h -16.07422 q 0,2.01171 0.60547,3.51562 0.60546,1.48438 1.66015,2.44141 1.01563,0.9375 2.40235,1.40625 1.40625,0.46875 3.08593,0.46875 2.22657,0 4.47266,-0.87891 2.26562,-0.89844 3.22266,-1.75781 h 0.19531 v 4.0039 q -1.85547,0.78125 -3.78906,1.3086 -1.9336,0.52734 -4.0625,0.52734 -5.42969,0 -8.47657,-2.92969 -3.04687,-2.94921 -3.04687,-8.35937 0,-5.35156 2.91015,-8.49609 2.92969,-3.14454 7.69532,-3.14454 4.41406,0 6.79687,2.57813 2.40235,2.57812 2.40235,7.32422 z m -3.57422,-2.8125 q -0.0195,-2.89063 -1.46485,-4.47266 -1.42578,-1.58203 -4.35547,-1.58203 -2.94921,0 -4.70703,1.73828 -1.73828,1.73828 -1.97265,4.31641 z"
     id="path100" /></g></svg>
