<?xml version="1.0" encoding="UTF-8" standalone="no"?>
<svg
   xmlns:dc="http://purl.org/dc/elements/1.1/"
   xmlns:cc="http://creativecommons.org/ns#"
   xmlns:rdf="http://www.w3.org/1999/02/22-rdf-syntax-ns#"
   xmlns:svg="http://www.w3.org/2000/svg"
   xmlns="http://www.w3.org/2000/svg"
   xmlns:sodipodi="http://sodipodi.sourceforge.net/DTD/sodipodi-0.dtd"
   xmlns:inkscape="http://www.inkscape.org/namespaces/inkscape"
   inkscape:version="1.0 (4035a4f, 2020-05-01)"
   sodipodi:docname="rocketsoftware-bluezoneweb.svg"
   version="1.1"
   id="svg10"
   xml:space="preserve"
   width="606.14197"
   height="238.44408"
   viewBox="0 0 606.14196 238.44408"><sodipodi:namedview
     inkscape:current-layer="g18"
     inkscape:window-maximized="0"
     inkscape:window-y="39"
     inkscape:window-x="124"
     inkscape:cy="119.22204"
     inkscape:cx="325.9973"
     inkscape:zoom="1.2340343"
     showgrid="false"
     id="namedview26"
     inkscape:window-height="865"
     inkscape:window-width="1124"
     inkscape:pageshadow="2"
     inkscape:pageopacity="0"
     guidetolerance="10"
     gridtolerance="10"
     objecttolerance="10"
     borderopacity="1"
     bordercolor="#666666"
     pagecolor="#ffffff" /><metadata
     id="metadata16"><rdf:RDF><cc:Work
         rdf:about=""><dc:format>image/svg+xml</dc:format><dc:type
           rdf:resource="http://purl.org/dc/dcmitype/StillImage" /><dc:title></dc:title></cc:Work></rdf:RDF></metadata><defs
     id="defs14" /><g
     id="g18"
     transform="matrix(1.3333333,0,0,-1.3333333,-17.774,185.01333)"><g
       id="g20"
       transform="matrix(0.1,0,0,0.1,-6.0691174e-6,0)"><path
         d="m 1428.37,701.262 h 56.9 c 165.64,0 227.59,63.218 227.59,184.597 0,134.031 -94.82,182.071 -201.03,182.071 -24.03,0 -54.37,-3.79 -83.46,-6.32 z m -154.25,356.558 -69.54,10.11 v 40.47 H 1527 c 166.9,0 352.77,-34.14 352.77,-235.177 0,-110.008 -102.43,-187.129 -201.05,-203.575 l 208.62,-395.738 69.54,-10.129 V 223.32 h -214.94 l -226.32,437.481 h -87.25 V 273.91 l 69.55,-10.129 V 223.32 h -293.34 v 40.461 l 69.54,10.129 v 783.91"
         style="fill:#343434;fill-opacity:1;fill-rule:nonzero;stroke:none"
         id="path22" /><path
         d="m 2333.67,525.508 c 0,180.801 -35.4,276.902 -127.69,276.902 -92.31,0 -127.71,-93.562 -127.71,-276.902 0,-170.688 26.55,-275.629 127.71,-275.629 101.14,0 127.69,165.633 127.69,275.629 z m -399.54,0 c 0,170.691 108.74,321.152 271.85,321.152 163.09,0 271.83,-150.461 271.83,-321.152 0,-145.399 -104.94,-319.887 -271.83,-319.887 -166.91,0 -271.85,136.559 -271.85,319.887"
         style="fill:#343434;fill-opacity:1;fill-rule:nonzero;stroke:none"
         id="path24" /><path
         d="m 3003.8,321.941 c -68.27,-78.39 -136.55,-116.32 -206.09,-116.32 -164.37,0 -266.79,123.91 -266.79,292.078 0,199.762 120.11,348.961 295.87,348.961 56.9,0 142.87,-22.754 142.87,-103.672 0,-36.679 -34.13,-61.965 -69.53,-61.965 -93.58,0 -67.01,121.387 -106.22,121.387 -69.53,0 -136.55,-73.328 -136.55,-240.23 0,-113.789 68.27,-261.731 197.25,-261.731 46.78,0 79.66,17.699 113.79,49.321 l 35.4,-27.829"
         style="fill:#343434;fill-opacity:1;fill-rule:nonzero;stroke:none"
         id="path26" /><path
         d="m 3364.13,223.32 v 34.149 l 69.55,12.64 -151.73,266.786 -58.16,-93.567 V 270.109 l 60.68,-12.64 V 223.32 H 3027.8 v 34.149 l 69.55,12.64 v 754.831 c 0,41.73 -24.02,54.38 -69.55,54.38 v 34.13 l 195.99,75.87 V 535.625 h 2.52 l 69.55,110 c 61.95,98.621 149.19,201.035 214.94,201.035 35.4,0 72.07,-29.07 72.07,-69.531 0,-58.164 -46.78,-79.668 -77.13,-79.668 -30.34,0 -54.36,27.82 -75.86,27.82 -24.02,0 -61.95,-58.164 -72.07,-77.117 l 214.95,-378.055 60.69,-12.64 V 223.32 h -269.32"
         style="fill:#343434;fill-opacity:1;fill-rule:nonzero;stroke:none"
         id="path28" /><path
         d="m 3886.33,603.906 c 50.57,12.637 69.55,40.457 69.55,101.145 0,63.219 -37.93,97.359 -94.84,97.359 -87.24,0 -121.38,-110 -121.38,-236.433 z M 3752.3,512.859 c 3.8,-101.14 59.44,-212.41 175.76,-212.41 77.13,0 98.62,37.942 139.08,83.461 l 34.13,-26.57 c -61.94,-89.758 -126.44,-151.719 -242.75,-151.719 -147.94,0 -232.65,144.149 -232.65,293.34 0,158.051 80.93,347.699 254.14,347.699 134.03,0 218.74,-118.847 220,-240.222 L 3752.3,512.859"
         style="fill:#343434;fill-opacity:1;fill-rule:nonzero;stroke:none"
         id="path30" /><path
         d="m 4135.4,772.07 v 56.895 h 69.54 v 174.485 l 126.44,72.07 V 828.965 h 142.88 V 772.07 H 4331.38 V 347.238 c 0,-40.468 31.62,-59.429 67.02,-59.429 32.87,0 60.68,18.961 89.76,41.722 l 18.97,-34.133 c -37.93,-44.257 -103.68,-89.777 -164.37,-89.777 -111.27,0 -137.82,84.707 -137.82,142.879 v 423.57 h -69.54"
         style="fill:#343434;fill-opacity:1;fill-rule:nonzero;stroke:none"
         id="path32" /><path
         d="m 4626.25,265.738 c 2.47,0.172 4.67,0.621 6.55,1.352 1.9,0.738 3.42,1.922 4.58,3.551 1.16,1.64 1.74,3.871 1.74,6.711 0,2.429 -0.45,4.367 -1.35,5.839 -0.89,1.481 -2.11,2.661 -3.63,3.547 -1.52,0.903 -3.22,1.5 -5.13,1.821 -1.89,0.32 -3.89,0.472 -5.99,0.472 h -15.31 V 265.52 h 11.04 c 2.52,0 5.03,0.082 7.5,0.218 z m -26.91,-37.476 v 67.879 h 26.04 c 7.69,0 13.29,-1.61 16.81,-4.821 3.53,-3.211 5.29,-7.859 5.29,-13.968 0,-2.954 -0.44,-5.524 -1.34,-7.743 -0.9,-2.211 -2.13,-4.07 -3.71,-5.597 -1.58,-1.524 -3.39,-2.731 -5.45,-3.633 -2.05,-0.891 -4.24,-1.547 -6.55,-1.969 l 20.21,-30.148 h -9.79 l -19.09,30.148 h -14.05 v -30.148 z m 1.5,80.347 c -6.05,-2.629 -11.29,-6.218 -15.71,-10.738 -4.43,-4.531 -7.86,-9.832 -10.34,-15.941 -2.48,-6.102 -3.72,-12.68 -3.72,-19.731 0,-7.051 1.24,-13.629 3.72,-19.73 2.48,-6.11 5.91,-11.43 10.34,-15.957 4.42,-4.524 9.66,-8.09 15.71,-10.723 6.04,-2.641 12.65,-3.949 19.8,-3.949 7.06,0 13.61,1.308 19.66,3.949 6.06,2.633 11.29,6.199 15.72,10.723 4.41,4.527 7.88,9.847 10.41,15.957 2.52,6.101 3.78,12.679 3.78,19.73 0,7.051 -1.26,13.629 -3.78,19.731 -2.53,6.109 -6,11.41 -10.41,15.941 -4.43,4.52 -9.66,8.109 -15.72,10.738 -6.05,2.629 -12.6,3.95 -19.66,3.95 -7.15,0 -13.76,-1.321 -19.8,-3.95 z m 43.01,7.813 c 7.17,-3 13.37,-7.152 18.63,-12.461 5.26,-5.332 9.4,-11.563 12.39,-18.723 3,-7.148 4.5,-14.84 4.5,-23.039 0,-8.32 -1.5,-16.027 -4.5,-23.14 -2.99,-7.098 -7.13,-13.278 -12.39,-18.539 -5.26,-5.27 -11.46,-9.391 -18.63,-12.399 -7.15,-2.992 -14.89,-4.492 -23.21,-4.492 -8.31,0 -16.04,1.5 -23.2,4.492 -7.16,3.008 -13.37,7.129 -18.62,12.399 -5.27,5.261 -9.41,11.441 -12.4,18.539 -3,7.113 -4.5,14.82 -4.5,23.14 0,8.199 1.5,15.891 4.5,23.039 2.99,7.16 7.13,13.391 12.4,18.723 5.25,5.309 11.46,9.461 18.62,12.461 7.16,3 14.89,4.5 23.2,4.5 8.32,0 16.06,-1.5 23.21,-4.5"
         style="fill:#343434;fill-opacity:1;fill-rule:nonzero;stroke:none"
         id="path34" /><path
         d="M 610.059,1109.08 516.207,663.672 273.77,762.195 493.402,1109.08 H 133.305 V 222.961 H 1029.06 V 1109.08 H 610.059"
         style="fill:#343434;fill-opacity:1;fill-rule:nonzero;stroke:none"
         id="path36" /><path
         d="m 627.578,1194.59 40.664,193.01 -106,-167.42 c 25.028,-0.6 47.832,-10.15 65.336,-25.59"
         style="fill:#343434;fill-opacity:1;fill-rule:nonzero;stroke:none"
         id="path38" /></g><g
       style="font-size:48px;line-height:1.25;font-family:sans-serif;letter-spacing:0px;word-spacing:0px;stroke-width:0.752415"
       id="text30"
       transform="scale(0.99679064,-1.0032197)"
       aria-label="BlueZone Web"><path
         d="M 103.15039,2.7890625 V 39.257812 h 4.40625 V 2.7890625 Z m 286.07813,0 V 39.257812 h 4.125 l 0.28125,-1.21875 c 1.07812,0.59375 2.17187,1.0625 3.28125,1.40625 1.10937,0.359376 2.40624,0.539063 3.89062,0.539063 1.59375,0 3.05469,-0.304687 4.38281,-0.914063 1.32813,-0.625 2.54688,-1.554687 3.65625,-2.789062 1.04688,-1.1875 1.875,-2.65625 2.48438,-4.40625 0.625,-1.75 0.9375,-3.71875 0.9375,-5.90625 0,-4.328125 -0.89844,-7.679688 -2.69531,-10.054688 -1.78125,-2.375 -4.21875,-3.5625 -7.3125,-3.5625 -1.73438,0 -3.29688,0.328126 -4.6875,0.984376 -1.39063,0.640625 -2.70313,1.46875 -3.9375,2.484374 V 2.7890625 Z M 70.548828,4.359375 v 34.898437 h 12.375 c 2.421875,0 4.414063,-0.21875 5.976563,-0.65625 1.578124,-0.4375 3.023437,-1.171874 4.335937,-2.203124 1.109375,-0.859375 1.992188,-1.953125 2.648438,-3.28125 0.65625,-1.328125 0.984375,-2.859375 0.984375,-4.59375 0,-2.421875 -0.679688,-4.421875 -2.039063,-6 -1.359375,-1.59375 -3.21875,-2.632813 -5.578125,-3.117188 v -0.1875 c 1.40625,-0.703125 2.53125,-1.632812 3.375,-2.789062 0.84375,-1.171875 1.265625,-2.585938 1.265625,-4.242188 0,-1.46875 -0.289063,-2.7265625 -0.867187,-3.7734375 C 92.447265,7.3515625 91.517578,6.484375 90.236328,5.8125 89.080078,5.21875 87.86914,4.828125 86.603516,4.640625 85.33789,4.453125 83.43164,4.359375 80.884766,4.359375 Z m 104.156252,0 v 4.125 h 20.60156 L 173.9082,34.945312 v 4.3125 h 27.23438 v -4.125 h -22.125 L 200.62695,8.5546875 V 4.359375 Z m 136.3125,0 9.23437,34.898437 h 5.10938 l 7.17187,-28.96875 7.33594,28.96875 h 5.22656 l 9.07032,-34.898437 h -4.54688 L 342.33008,33.65625 335.04102,4.359375 h -4.71094 L 323.11133,33.375 315.77539,4.359375 Z M 75.189453,8.3203125 h 5.53125 c 1.546875,0 2.84375,0.054687 3.890625,0.1640625 1.046875,0.09375 1.9375,0.3515625 2.671875,0.7734375 0.625,0.359375 1.078125,0.8281255 1.359375,1.4062495 0.28125,0.578126 0.421875,1.289063 0.421875,2.132813 0,1.015625 -0.15625,1.898437 -0.46875,2.648437 -0.296875,0.734376 -0.8125,1.335938 -1.546875,1.804688 -0.734375,0.46875 -1.53125,0.78125 -2.390625,0.9375 -0.859375,0.140625 -2.015625,0.210938 -3.46875,0.210938 h -6 z m 82.382817,4.0312495 c -3.8125,0 -6.89063,1.257813 -9.23438,3.773438 -2.32813,2.515625 -3.49219,5.914062 -3.49219,10.195312 0,4.328126 1.21875,7.671876 3.65625,10.03125 2.4375,2.34375 5.82813,3.515626 10.17188,3.515626 1.70312,0 3.32812,-0.210938 4.875,-0.632813 1.54688,-0.421875 3.0625,-0.945313 4.54687,-1.570313 v -4.804687 h -0.23437 c -0.76562,0.6875 -2.05469,1.390625 -3.86719,2.109375 -1.79688,0.703125 -3.58594,1.054688 -5.36719,1.054688 -1.34375,0 -2.57812,-0.1875 -3.70312,-0.5625 -1.10938,-0.375 -2.07031,-0.9375 -2.88281,-1.6875 -0.84375,-0.765625 -1.50781,-1.742188 -1.99219,-2.929688 -0.48438,-1.203125 -0.72656,-2.609375 -0.72656,-4.21875 h 19.28906 v -2.390625 c 0,-3.796875 -0.96094,-6.726563 -2.88281,-8.789063 -1.90625,-2.0625 -4.625,-3.09375 -8.15625,-3.09375 z m 60.86718,0 c -3.70312,0 -6.64843,1.242188 -8.83593,3.726563 -2.17188,2.46875 -3.25782,5.835938 -3.25782,10.101563 0,4.265625 1.08594,7.632812 3.25782,10.101562 2.1875,2.46875 5.13281,3.703125 8.83593,3.703125 3.67188,0 6.60157,-1.234375 8.78907,-3.703125 2.1875,-2.46875 3.28125,-5.835937 3.28125,-10.101562 0,-4.265625 -1.09375,-7.632813 -3.28125,-10.101563 -2.1875,-2.484375 -5.11719,-3.726563 -8.78907,-3.726563 z m 32.10938,0 c -1.54688,1e-6 -3.05469,0.320313 -4.52344,0.960938 -1.46875,0.640625 -2.89062,1.53125 -4.26562,2.671875 v -2.90625 h -4.40625 v 26.179687 h 4.40625 V 19.710938 c 1.20312,-0.921875 2.46093,-1.679688 3.77343,-2.273438 1.3125,-0.59375 2.57031,-0.890625 3.77344,-0.890625 1.17187,0 2.125,0.164063 2.85938,0.492187 0.73437,0.3125 1.29687,0.796876 1.6875,1.453126 0.375,0.59375 0.63281,1.421874 0.77343,2.484374 0.14063,1.046876 0.21094,2.171876 0.21094,3.375 v 14.90625 h 4.40625 V 22.265625 c 0,-3.203125 -0.74218,-5.65625 -2.22656,-7.359375 -1.48438,-1.703125 -3.64063,-2.554688 -6.46875,-2.554688 z m 28.05469,0 c -3.8125,0 -6.89063,1.257813 -9.23438,3.773438 -2.32813,2.515625 -3.49219,5.914062 -3.49219,10.195312 0,4.328126 1.21875,7.671876 3.65625,10.03125 2.4375,2.34375 5.82813,3.515626 10.17188,3.515626 1.70312,0 3.32812,-0.210938 4.875,-0.632813 1.54688,-0.421875 3.0625,-0.945313 4.54687,-1.570313 v -4.804687 h -0.23437 c -0.76562,0.6875 -2.05469,1.390625 -3.86719,2.109375 -1.79688,0.703125 -3.58594,1.054688 -5.36719,1.054688 -1.34375,0 -2.57812,-0.1875 -3.70312,-0.5625 -1.10938,-0.375 -2.07031,-0.9375 -2.88281,-1.6875 -0.84375,-0.765625 -1.50781,-1.742188 -1.99219,-2.929688 -0.48438,-1.203125 -0.72656,-2.609375 -0.72656,-4.21875 h 19.28906 v -2.390625 c 0,-3.796875 -0.96094,-6.726563 -2.88281,-8.789063 -1.90625,-2.0625 -4.625,-3.09375 -8.15625,-3.09375 z m 92.90625,0 c -3.8125,0 -6.89063,1.257813 -9.23438,3.773438 -2.32813,2.515625 -3.49219,5.914062 -3.49219,10.195312 0,4.328126 1.21875,7.671876 3.65625,10.03125 2.4375,2.34375 5.82813,3.515626 10.17188,3.515626 1.70312,0 3.32812,-0.210938 4.875,-0.632813 1.54688,-0.421875 3.0625,-0.945313 4.54687,-1.570313 v -4.804687 h -0.23437 c -0.76562,0.6875 -2.05469,1.390625 -3.86719,2.109375 -1.79688,0.703125 -3.58594,1.054688 -5.36719,1.054688 -1.34375,0 -2.57812,-0.1875 -3.70312,-0.5625 -1.10938,-0.375 -2.07031,-0.9375 -2.88281,-1.6875 -0.84375,-0.765625 -1.50781,-1.742188 -1.99219,-2.929688 -0.48438,-1.203125 -0.72656,-2.609375 -0.72656,-4.21875 h 19.28906 v -2.390625 c 0,-3.796875 -0.96094,-6.726563 -2.88281,-8.789063 -1.90625,-2.0625 -4.625,-3.09375 -8.15625,-3.09375 z m -255.375,0.726563 v 16.992187 c 0,3.25 0.76562,5.71875 2.29687,7.40625 1.53125,1.671876 3.67188,2.507813 6.42188,2.507813 1.64062,0 3.14062,-0.3125 4.5,-0.9375 1.35937,-0.625 2.78124,-1.523437 4.26562,-2.695313 v 2.90625 h 4.40625 V 13.078125 h -4.40625 V 32.625 c -1.17188,0.921875 -2.4375,1.679688 -3.79687,2.273438 -1.34375,0.59375 -2.58594,0.890624 -3.72657,0.890624 -1.28125,0 -2.25781,-0.15625 -2.92968,-0.46875 -0.67188,-0.3125 -1.21876,-0.8125 -1.64063,-1.5 -0.40625,-0.671874 -0.67187,-1.476562 -0.79687,-2.414062 -0.125,-0.953125 -0.1875,-2.09375 -0.1875,-3.421875 v -14.90625 z m 41.20312,2.90625 c 2.34375,0 4.08594,0.632813 5.22656,1.898437 1.15628,1.265626 1.74222,3.054688 1.75782,5.367188 h -15 c 0.1875,-2.0625 0.97656,-3.789062 2.36718,-5.179688 1.40625,-1.390624 3.28906,-2.085937 5.64844,-2.085937 z m 121.03125,0 c 2.34375,0 4.08594,0.632813 5.22656,1.898437 1.15628,1.265626 1.74222,3.054688 1.75782,5.367188 h -15 c 0.1875,-2.0625 0.97656,-3.789062 2.36718,-5.179688 1.40625,-1.390624 3.28906,-2.085937 5.64844,-2.085937 z m 92.90625,0 c 2.34375,0 4.08594,0.632813 5.22656,1.898437 1.15628,1.265626 1.74222,3.054688 1.75782,5.367188 h -15 c 0.1875,-2.0625 0.97656,-3.789062 2.36718,-5.179688 1.40625,-1.390624 3.28906,-2.085937 5.64844,-2.085937 z m -152.83594,0.164063 c 2.35938,0 4.20313,0.828124 5.53125,2.484374 1.32813,1.640626 1.99219,4.156251 1.99219,7.546876 0,3.3125 -0.67187,5.812499 -2.01562,7.5 -1.32813,1.671875 -3.16407,2.507812 -5.50782,2.507812 -2.375,0 -4.22656,-0.84375 -5.55468,-2.53125 -1.32813,-1.703125 -1.99219,-4.195313 -1.99219,-7.476562 0,-3.390625 0.65625,-5.90625 1.96875,-7.546876 1.32812,-1.65625 3.1875,-2.484374 5.57812,-2.484374 z m 182.74219,0.398437 c 2.29687,0 3.96094,0.8125 4.99219,2.4375 1.03125,1.609375 1.54687,3.976563 1.54687,7.101563 0,3.421875 -0.69531,5.9375 -2.08593,7.546874 -1.375,1.59375 -3.28125,2.390626 -5.71875,2.390626 -1.14063,0 -2.16407,-0.109376 -3.07032,-0.328126 -0.89062,-0.21875 -1.96093,-0.609374 -3.21093,-1.171874 v -15 c 1.125,-0.875 2.34375,-1.585938 3.65625,-2.132813 1.3125,-0.5625 2.60937,-0.84375 3.89062,-0.84375 z M 75.189453,22.3125 h 7.289063 c 1.53125,0 2.828125,0.0625 3.890625,0.1875 1.078124,0.109375 1.992187,0.359375 2.742187,0.75 1.109375,0.578125 1.875,1.28125 2.296875,2.109375 0.421875,0.828125 0.632813,1.945312 0.632813,3.351563 0,1.234375 -0.203125,2.242187 -0.609375,3.023437 -0.40625,0.78125 -1.046875,1.476563 -1.921875,2.085937 -0.828126,0.5625 -1.890626,0.953126 -3.1875,1.171876 -1.296876,0.203125 -2.960938,0.304687 -4.992188,0.304687 h -6.140625 z"
         inkscape:original="M 103.15039 2.7890625 L 103.15039 39.257812 L 107.55664 39.257812 L 107.55664 2.7890625 L 103.15039 2.7890625 z M 389.22852 2.7890625 L 389.22852 39.257812 L 393.35352 39.257812 L 393.63477 38.039062 C 394.71289 38.632812 395.80664 39.101562 396.91602 39.445312 C 398.02539 39.804688 399.32226 39.984375 400.80664 39.984375 C 402.40039 39.984375 403.86133 39.679688 405.18945 39.070312 C 406.51758 38.445312 407.73633 37.515625 408.8457 36.28125 C 409.89258 35.09375 410.7207 33.625 411.33008 31.875 C 411.95508 30.125 412.26758 28.15625 412.26758 25.96875 C 412.26758 21.640625 411.36914 18.289062 409.57227 15.914062 C 407.79102 13.539062 405.35352 12.351562 402.25977 12.351562 C 400.52539 12.351562 398.96289 12.679688 397.57227 13.335938 C 396.18164 13.976563 394.86914 14.804688 393.63477 15.820312 L 393.63477 2.7890625 L 389.22852 2.7890625 z M 70.548828 4.359375 L 70.548828 39.257812 L 82.923828 39.257812 C 85.345703 39.257812 87.337891 39.039062 88.900391 38.601562 C 90.478515 38.164062 91.923828 37.429688 93.236328 36.398438 C 94.345703 35.539063 95.228516 34.445313 95.884766 33.117188 C 96.541016 31.789063 96.869141 30.257813 96.869141 28.523438 C 96.869141 26.101563 96.189453 24.101563 94.830078 22.523438 C 93.470703 20.929688 91.611328 19.890625 89.251953 19.40625 L 89.251953 19.21875 C 90.658203 18.515625 91.783203 17.585938 92.626953 16.429688 C 93.470703 15.257813 93.892578 13.84375 93.892578 12.1875 C 93.892578 10.71875 93.603515 9.4609375 93.025391 8.4140625 C 92.447265 7.3515625 91.517578 6.484375 90.236328 5.8125 C 89.080078 5.21875 87.86914 4.828125 86.603516 4.640625 C 85.33789 4.453125 83.43164 4.359375 80.884766 4.359375 L 70.548828 4.359375 z M 174.70508 4.359375 L 174.70508 8.484375 L 195.30664 8.484375 L 173.9082 34.945312 L 173.9082 39.257812 L 201.14258 39.257812 L 201.14258 35.132812 L 179.01758 35.132812 L 200.62695 8.5546875 L 200.62695 4.359375 L 174.70508 4.359375 z M 311.01758 4.359375 L 320.25195 39.257812 L 325.36133 39.257812 L 332.5332 10.289062 L 339.86914 39.257812 L 345.0957 39.257812 L 354.16602 4.359375 L 349.61914 4.359375 L 342.33008 33.65625 L 335.04102 4.359375 L 330.33008 4.359375 L 323.11133 33.375 L 315.77539 4.359375 L 311.01758 4.359375 z M 75.189453 8.3203125 L 80.720703 8.3203125 C 82.267578 8.3203125 83.564453 8.375 84.611328 8.484375 C 85.658203 8.578125 86.548828 8.8359375 87.283203 9.2578125 C 87.908203 9.6171875 88.361328 10.085938 88.642578 10.664062 C 88.923828 11.242188 89.064453 11.953125 89.064453 12.796875 C 89.064453 13.8125 88.908203 14.695312 88.595703 15.445312 C 88.298828 16.179688 87.783203 16.78125 87.048828 17.25 C 86.314453 17.71875 85.517578 18.03125 84.658203 18.1875 C 83.798828 18.328125 82.642578 18.398438 81.189453 18.398438 L 75.189453 18.398438 L 75.189453 8.3203125 z M 157.57227 12.351562 C 153.75977 12.351562 150.68164 13.609375 148.33789 16.125 C 146.00976 18.640625 144.8457 22.039062 144.8457 26.320312 C 144.8457 30.648438 146.06445 33.992188 148.50195 36.351562 C 150.93945 38.695312 154.33008 39.867188 158.67383 39.867188 C 160.37695 39.867188 162.00195 39.65625 163.54883 39.234375 C 165.09571 38.8125 166.61133 38.289062 168.0957 37.664062 L 168.0957 32.859375 L 167.86133 32.859375 C 167.09571 33.546875 165.80664 34.25 163.99414 34.96875 C 162.19726 35.671875 160.4082 36.023438 158.62695 36.023438 C 157.2832 36.023438 156.04883 35.835938 154.92383 35.460938 C 153.81445 35.085938 152.85352 34.523438 152.04102 33.773438 C 151.19727 33.007813 150.53321 32.03125 150.04883 30.84375 C 149.56445 29.640625 149.32227 28.234375 149.32227 26.625 L 168.61133 26.625 L 168.61133 24.234375 C 168.61133 20.4375 167.65039 17.507812 165.72852 15.445312 C 163.82227 13.382812 161.10352 12.351562 157.57227 12.351562 z M 218.43945 12.351562 C 214.73633 12.351562 211.79102 13.59375 209.60352 16.078125 C 207.43164 18.546875 206.3457 21.914063 206.3457 26.179688 C 206.3457 30.445313 207.43164 33.8125 209.60352 36.28125 C 211.79102 38.75 214.73633 39.984375 218.43945 39.984375 C 222.11133 39.984375 225.04102 38.75 227.22852 36.28125 C 229.41602 33.8125 230.50977 30.445313 230.50977 26.179688 C 230.50977 21.914063 229.41602 18.546875 227.22852 16.078125 C 225.04102 13.59375 222.11133 12.351562 218.43945 12.351562 z M 250.54883 12.351562 C 249.00195 12.351563 247.49414 12.671875 246.02539 13.3125 C 244.55664 13.953125 243.13477 14.84375 241.75977 15.984375 L 241.75977 13.078125 L 237.35352 13.078125 L 237.35352 39.257812 L 241.75977 39.257812 L 241.75977 19.710938 C 242.96289 18.789063 244.2207 18.03125 245.5332 17.4375 C 246.8457 16.84375 248.10351 16.546875 249.30664 16.546875 C 250.47851 16.546875 251.43164 16.710938 252.16602 17.039062 C 252.90039 17.351562 253.46289 17.835938 253.85352 18.492188 C 254.22852 19.085938 254.48633 19.914062 254.62695 20.976562 C 254.76758 22.023438 254.83789 23.148438 254.83789 24.351562 L 254.83789 39.257812 L 259.24414 39.257812 L 259.24414 22.265625 C 259.24414 19.0625 258.50196 16.609375 257.01758 14.90625 C 255.5332 13.203125 253.37695 12.351562 250.54883 12.351562 z M 278.60352 12.351562 C 274.79102 12.351562 271.71289 13.609375 269.36914 16.125 C 267.04101 18.640625 265.87695 22.039062 265.87695 26.320312 C 265.87695 30.648438 267.0957 33.992188 269.5332 36.351562 C 271.9707 38.695312 275.36133 39.867188 279.70508 39.867188 C 281.4082 39.867188 283.0332 39.65625 284.58008 39.234375 C 286.12696 38.8125 287.64258 38.289062 289.12695 37.664062 L 289.12695 32.859375 L 288.89258 32.859375 C 288.12696 33.546875 286.83789 34.25 285.02539 34.96875 C 283.22851 35.671875 281.43945 36.023438 279.6582 36.023438 C 278.31445 36.023438 277.08008 35.835938 275.95508 35.460938 C 274.8457 35.085938 273.88477 34.523438 273.07227 33.773438 C 272.22852 33.007813 271.56446 32.03125 271.08008 30.84375 C 270.5957 29.640625 270.35352 28.234375 270.35352 26.625 L 289.64258 26.625 L 289.64258 24.234375 C 289.64258 20.4375 288.68164 17.507812 286.75977 15.445312 C 284.85352 13.382812 282.13477 12.351562 278.60352 12.351562 z M 371.50977 12.351562 C 367.69727 12.351562 364.61914 13.609375 362.27539 16.125 C 359.94726 18.640625 358.7832 22.039062 358.7832 26.320312 C 358.7832 30.648438 360.00195 33.992188 362.43945 36.351562 C 364.87695 38.695312 368.26758 39.867188 372.61133 39.867188 C 374.31445 39.867188 375.93945 39.65625 377.48633 39.234375 C 379.03321 38.8125 380.54883 38.289062 382.0332 37.664062 L 382.0332 32.859375 L 381.79883 32.859375 C 381.03321 33.546875 379.74414 34.25 377.93164 34.96875 C 376.13476 35.671875 374.3457 36.023438 372.56445 36.023438 C 371.2207 36.023438 369.98633 35.835938 368.86133 35.460938 C 367.75195 35.085938 366.79102 34.523438 365.97852 33.773438 C 365.13477 33.007813 364.47071 32.03125 363.98633 30.84375 C 363.50195 29.640625 363.25977 28.234375 363.25977 26.625 L 382.54883 26.625 L 382.54883 24.234375 C 382.54883 20.4375 381.58789 17.507812 379.66602 15.445312 C 377.75977 13.382812 375.04102 12.351562 371.50977 12.351562 z M 116.13477 13.078125 L 116.13477 30.070312 C 116.13477 33.320312 116.90039 35.789062 118.43164 37.476562 C 119.96289 39.148438 122.10352 39.984375 124.85352 39.984375 C 126.49414 39.984375 127.99414 39.671875 129.35352 39.046875 C 130.71289 38.421875 132.13476 37.523438 133.61914 36.351562 L 133.61914 39.257812 L 138.02539 39.257812 L 138.02539 13.078125 L 133.61914 13.078125 L 133.61914 32.625 C 132.44726 33.546875 131.18164 34.304688 129.82227 34.898438 C 128.47852 35.492188 127.23633 35.789062 126.0957 35.789062 C 124.81445 35.789062 123.83789 35.632812 123.16602 35.320312 C 122.49414 35.007812 121.94726 34.507812 121.52539 33.820312 C 121.11914 33.148438 120.85352 32.34375 120.72852 31.40625 C 120.60352 30.453125 120.54102 29.3125 120.54102 27.984375 L 120.54102 13.078125 L 116.13477 13.078125 z M 157.33789 15.984375 C 159.68164 15.984375 161.42383 16.617188 162.56445 17.882812 C 163.72073 19.148438 164.30667 20.9375 164.32227 23.25 L 149.32227 23.25 C 149.50977 21.1875 150.29883 19.460938 151.68945 18.070312 C 153.0957 16.679688 154.97851 15.984375 157.33789 15.984375 z M 278.36914 15.984375 C 280.71289 15.984375 282.45508 16.617188 283.5957 17.882812 C 284.75198 19.148438 285.33792 20.9375 285.35352 23.25 L 270.35352 23.25 C 270.54102 21.1875 271.33008 19.460938 272.7207 18.070312 C 274.12695 16.679688 276.00976 15.984375 278.36914 15.984375 z M 371.27539 15.984375 C 373.61914 15.984375 375.36133 16.617188 376.50195 17.882812 C 377.65823 19.148438 378.24417 20.9375 378.25977 23.25 L 363.25977 23.25 C 363.44727 21.1875 364.23633 19.460938 365.62695 18.070312 C 367.0332 16.679688 368.91601 15.984375 371.27539 15.984375 z M 218.43945 16.148438 C 220.79883 16.148438 222.64258 16.976562 223.9707 18.632812 C 225.29883 20.273438 225.96289 22.789063 225.96289 26.179688 C 225.96289 29.492188 225.29102 31.992187 223.94727 33.679688 C 222.61914 35.351563 220.7832 36.1875 218.43945 36.1875 C 216.06445 36.1875 214.21289 35.34375 212.88477 33.65625 C 211.55664 31.953125 210.89258 29.460937 210.89258 26.179688 C 210.89258 22.789063 211.54883 20.273438 212.86133 18.632812 C 214.18945 16.976562 216.04883 16.148438 218.43945 16.148438 z M 401.18164 16.546875 C 403.47851 16.546875 405.14258 17.359375 406.17383 18.984375 C 407.20508 20.59375 407.7207 22.960938 407.7207 26.085938 C 407.7207 29.507813 407.02539 32.023438 405.63477 33.632812 C 404.25977 35.226562 402.35352 36.023438 399.91602 36.023438 C 398.77539 36.023438 397.75195 35.914062 396.8457 35.695312 C 395.95508 35.476562 394.88477 35.085938 393.63477 34.523438 L 393.63477 19.523438 C 394.75977 18.648438 395.97852 17.9375 397.29102 17.390625 C 398.60352 16.828125 399.90039 16.546875 401.18164 16.546875 z M 75.189453 22.3125 L 82.478516 22.3125 C 84.009766 22.3125 85.306641 22.375 86.369141 22.5 C 87.447265 22.609375 88.361328 22.859375 89.111328 23.25 C 90.220703 23.828125 90.986328 24.53125 91.408203 25.359375 C 91.830078 26.1875 92.041016 27.304687 92.041016 28.710938 C 92.041016 29.945313 91.837891 30.953125 91.431641 31.734375 C 91.025391 32.515625 90.384766 33.210938 89.509766 33.820312 C 88.68164 34.382812 87.61914 34.773438 86.322266 34.992188 C 85.02539 35.195313 83.361328 35.296875 81.330078 35.296875 L 75.189453 35.296875 L 75.189453 22.3125 z "
         inkscape:radius="0"
         sodipodi:type="inkscape:offset"
         style="font-size:48px;stroke-width:0.752415"
         id="path88" /></g></g></svg>
