<?xml version="1.0" encoding="UTF-8" standalone="no"?>
<!-- Generator: Adobe Illustrator 26.0.1, SVG Export Plug-In . SVG Version: 6.00 Build 0)  -->

<svg
   version="1.1"
   id="Layer_1"
   x="0px"
   y="0px"
   viewBox="0 0 700.00385 243.21875"
   xml:space="preserve"
   sodipodi:docname="rocket-support-for-zowe.svg"
   width="700.00385"
   height="243.21875"
   inkscape:version="1.2.2 (b0a84865, 2022-12-01)"
   xmlns:inkscape="http://www.inkscape.org/namespaces/inkscape"
   xmlns:sodipodi="http://sodipodi.sourceforge.net/DTD/sodipodi-0.dtd"
   xmlns="http://www.w3.org/2000/svg"
   xmlns:svg="http://www.w3.org/2000/svg"><sodipodi:namedview
   id="namedview59"
   pagecolor="#ffffff"
   bordercolor="#666666"
   borderopacity="1.0"
   inkscape:showpageshadow="2"
   inkscape:pageopacity="0.0"
   inkscape:pagecheckerboard="0"
   inkscape:deskcolor="#d1d1d1"
   showgrid="false"
   inkscape:zoom="1.1568627"
   inkscape:cx="350.08475"
   inkscape:cy="102"
   inkscape:window-width="705"
   inkscape:window-height="480"
   inkscape:window-x="0"
   inkscape:window-y="25"
   inkscape:window-maximized="0"
   inkscape:current-layer="Layer_1" /><defs
   id="defs60" />
<style
   type="text/css"
   id="style2">
	.st0{fill-rule:evenodd;clip-rule:evenodd;fill:url(#SVGID_1_);}
</style>
<g
   id="g53"
   transform="translate(-0.0961328)">
	<g
   id="g16">
		<path
   d="m 285.7,76.8 c 2.7,-1.1 5.1,-2.4 7.4,-3.9 3.2,-2.1 5.9,-4.7 8.1,-7.5 2.2,-2.8 3.9,-6.1 5,-9.5 1.2,-3.5 1.7,-7.2 1.7,-11.1 0,-4.9 -0.9,-9.5 -2.5,-13.6 C 303.7,27 301,23.4 297.3,20.4 293.7,17.5 289,15.2 283.5,13.5 278,11.9 271.3,11.1 263.7,11.1 H 228.2 V 125 h 24.2 V 82.1 h 6.9 c 2.1,0 3.2,0.3 3.7,0.6 0.8,0.4 1.5,1.1 2.2,2.2 l 23.2,35.3 c 1,1.6 2.3,2.8 3.8,3.6 1.5,0.9 3.4,1.3 5.5,1.3 h 22 L 290.1,81.5 c -1.4,-1.8 -2.8,-3.4 -4.4,-4.7 z m -33.4,-46 h 11.2 c 7.1,0 12.4,1.4 15.7,4.1 3.3,2.7 4.8,6.4 4.8,11.4 0,2.5 -0.4,4.9 -1.2,7 -0.8,2.1 -2,3.9 -3.7,5.4 -1.7,1.5 -3.8,2.7 -6.4,3.6 -2.7,0.9 -5.9,1.4 -9.5,1.4 h -10.9 z"
   id="path4" />
		<path
   d="m 382.6,53.4 c -3.5,-3.6 -7.8,-6.5 -12.8,-8.4 -5,-2 -10.5,-3 -16.6,-3 -6,0 -11.6,1 -16.6,2.9 -5,2 -9.3,4.8 -12.9,8.4 -3.5,3.6 -6.3,8.1 -8.3,13.3 -1.9,5.2 -2.9,11 -2.9,17.3 0,6.4 1,12.3 2.9,17.4 1.9,5.2 4.7,9.7 8.3,13.4 3.6,3.7 7.9,6.6 12.9,8.5 5,2 10.6,2.9 16.6,2.9 6,0 11.6,-1 16.6,-3 5,-2 9.3,-4.8 12.8,-8.5 3.5,-3.7 6.3,-8.2 8.2,-13.4 1.9,-5.2 2.9,-11 2.9,-17.4 0,-6.3 -1,-12.2 -2.9,-17.3 -2,-5 -4.7,-9.5 -8.2,-13.1 z m -16.5,48.9 c -2.8,3.9 -7,5.8 -12.9,5.8 -6,0 -10.3,-1.9 -13.1,-5.8 -2.9,-4 -4.4,-10.1 -4.4,-18.1 0,-7.9 1.5,-14.1 4.4,-18.2 2.8,-4 7.1,-5.9 13.1,-5.9 5.9,0 10.1,1.9 12.9,5.8 2.9,4.1 4.3,10.2 4.3,18.2 0,8.1 -1.4,14.2 -4.3,18.2 z"
   id="path6" />
		<path
   d="m 458.4,101.2 c -1.6,0 -3,0.5 -4.3,1.5 -0.9,0.7 -2,1.5 -3.2,2.4 -1.1,0.8 -2.6,1.6 -4.3,2.2 -1.6,0.6 -3.8,1 -6.6,1 -2.7,0 -5.2,-0.5 -7.3,-1.5 -2.1,-1 -3.9,-2.5 -5.4,-4.5 -1.5,-2 -2.7,-4.6 -3.5,-7.6 -0.8,-3.1 -1.3,-6.7 -1.3,-10.6 0,-3.8 0.4,-7.3 1.2,-10.3 0.7,-2.9 1.9,-5.4 3.4,-7.5 1.5,-2 3.3,-3.5 5.5,-4.6 2.2,-1.1 4.9,-1.6 7.9,-1.6 2.4,0 4.4,0.3 5.9,0.8 1.6,0.5 3,1.2 4.2,1.8 1.2,0.7 2.3,1.4 3.2,1.9 1.2,0.8 2.5,1.2 3.8,1.2 1.4,0 2.6,-0.3 3.5,-1 0.7,-0.5 1.3,-1.2 2,-2 l 5.9,-8.2 -1.1,-1.1 c -3.7,-3.7 -7.8,-6.5 -12.4,-8.5 -4.6,-2 -10,-3 -16.1,-3 -6.4,0 -12.1,1.1 -17,3.2 -5,2.1 -9.2,5.1 -12.5,8.9 -3.4,3.8 -5.9,8.3 -7.7,13.4 -1.7,5.1 -2.6,10.6 -2.6,16.6 0,6.6 1,12.6 2.9,17.8 1.9,5.2 4.6,9.7 7.9,13.3 3.3,3.6 7.3,6.4 11.8,8.3 4.5,1.9 9.3,2.9 14.4,2.9 2.8,0 5.7,-0.2 8.6,-0.6 2.9,-0.4 5.8,-1.2 8.5,-2.2 2.7,-1 5.4,-2.4 8,-4.2 2.6,-1.7 5,-3.9 7.2,-6.5 l 1,-1.2 -6.3,-8 c -1.3,-1.7 -3,-2.5 -5.2,-2.5 z"
   id="path8" />
		<path
   d="m 523.9,80.9 c -0.4,-0.5 -0.8,-0.9 -1.2,-1.4 0.4,-0.4 0.8,-0.7 1.2,-1.1 1,-0.9 1.9,-2 2.8,-3.1 l 26.9,-32.1 h -21.2 c -1.9,0 -3.5,0.4 -4.8,1.1 -1.1,0.7 -2.2,1.6 -3.2,2.8 l -19.4,24 c -0.8,1 -1.4,1.4 -1.7,1.5 -0.3,0.1 -0.9,0.3 -2.1,0.3 h -1.6 V 8.2 H 477 v 117 h 22.6 V 89.4 h 2.4 c 1.6,0 2.4,0.2 2.6,0.4 0.2,0.1 0.8,0.5 1.5,1.6 L 526,121 c 1,1.5 2.2,2.6 3.5,3.2 1.3,0.6 2.8,1 4.6,1 h 20.5 L 526.5,84.3 c -0.9,-1.2 -1.8,-2.3 -2.6,-3.4 z"
   id="path10" />
		<path
   d="m 619.2,88 c 0.9,-0.4 1.7,-1 2.2,-1.9 0.5,-0.8 0.8,-1.7 0.9,-2.9 0.1,-1 0.2,-2.3 0.2,-3.8 0,-5.8 -0.9,-11.1 -2.6,-15.7 -1.8,-4.6 -4.3,-8.6 -7.4,-11.8 -3.2,-3.2 -7,-5.7 -11.4,-7.3 -4.3,-1.6 -9.1,-2.5 -14.3,-2.5 -6.1,0 -11.6,1.1 -16.5,3.2 -4.9,2.1 -9,5.1 -12.4,8.7 -3.4,3.6 -6,8 -7.8,12.9 -1.8,4.9 -2.7,10.2 -2.7,15.7 0,7.1 1,13.4 3.1,18.8 2.1,5.4 4.9,10.1 8.6,13.7 3.6,3.7 8,6.5 12.9,8.4 4.9,1.9 10.2,2.8 15.8,2.8 2.8,0 5.8,-0.2 8.8,-0.6 3,-0.4 6.1,-1.2 9,-2.2 2.9,-1 5.8,-2.4 8.5,-4.2 2.7,-1.7 5.2,-3.9 7.4,-6.5 l 1,-1.2 -6.4,-8 c -0.6,-0.8 -1.3,-1.4 -2.1,-1.8 -0.8,-0.5 -1.8,-0.7 -2.9,-0.7 -1.5,0 -3,0.4 -4.5,1.3 -1.2,0.7 -2.7,1.5 -4.3,2.3 -1.5,0.8 -3.4,1.6 -5.5,2.2 -2,0.6 -4.5,1 -7.3,1 -5.7,0 -10.2,-1.7 -13.6,-5.1 -3.1,-3.1 -5,-8 -5.8,-14.5 h 46.3 c 1.1,0.1 2,0 2.8,-0.3 z M 570.6,73.4 c 0.9,-4.2 2.6,-7.6 5,-10 2.8,-2.8 6.5,-4.1 11.6,-4.1 2.5,0 4.7,0.4 6.5,1.2 1.8,0.8 3.3,1.9 4.5,3.4 1.2,1.4 2.1,3.1 2.7,5 0.4,1.4 0.7,2.9 0.8,4.5 z"
   id="path12" />
		<path
   d="m 674.8,107.5 -0.1,-0.1 c -0.5,-0.7 -1,-1.2 -1.5,-1.6 -1.3,-1 -3.2,-1.1 -4.9,-0.1 -0.4,0.3 -0.9,0.5 -1.5,0.8 -0.5,0.3 -1.1,0.5 -1.8,0.8 -0.6,0.2 -1.4,0.3 -2.3,0.3 -1.5,0 -2.6,-0.5 -3.5,-1.4 -0.9,-1 -1.4,-2.5 -1.4,-4.5 V 61.1 h 20.6 V 43.9 H 657.8 V 19.3 h -11.6 c -1.5,0 -2.8,0.4 -3.9,1.2 -1.1,0.8 -1.8,2 -2.1,3.5 l -3.7,20.1 -12.8,2.1 v 9.1 c 0,1.9 0.6,3.3 1.7,4.4 1.1,1 2.4,1.5 3.9,1.5 h 6.1 V 103 c 0,7.2 2,13 6,17.2 4,4.2 9.7,6.3 17,6.3 4,0 7.9,-0.6 11.6,-1.8 3.8,-1.2 7.1,-3.1 10.1,-5.5 l 1.2,-1 z"
   id="path14" />
	</g>
	<g
   id="g34">
		<path
   d="m 253.6,166.6 c -0.2,0.4 -0.5,0.6 -0.9,0.6 -0.3,0 -0.7,-0.2 -1.2,-0.5 -0.5,-0.3 -1.1,-0.7 -1.9,-1.2 -0.8,-0.4 -1.8,-0.8 -2.9,-1.2 -1.2,-0.3 -2.6,-0.5 -4.3,-0.5 -1.5,0 -2.9,0.2 -4.1,0.7 -1.2,0.4 -2.3,1 -3.2,1.7 -0.9,0.7 -1.6,1.6 -2.1,2.5 -0.5,1 -0.7,2 -0.7,3 0,1.3 0.3,2.4 1,3.3 0.7,0.9 1.6,1.6 2.7,2.2 1.1,0.6 2.3,1.1 3.7,1.6 1.4,0.4 2.8,0.9 4.3,1.3 1.5,0.4 2.9,0.9 4.3,1.5 1.4,0.5 2.6,1.2 3.7,2 1.1,0.8 2,1.8 2.7,3 0.7,1.2 1,2.6 1,4.3 0,1.8 -0.3,3.5 -1,5.1 -0.7,1.6 -1.6,2.9 -2.9,4.1 -1.2,1.2 -2.8,2.1 -4.6,2.7 -1.8,0.7 -3.9,1 -6.2,1 -2.9,0 -5.5,-0.5 -7.6,-1.4 -2.1,-0.9 -4,-2.2 -5.7,-3.7 l 1,-1.4 c 0.1,-0.2 0.3,-0.4 0.5,-0.5 0.2,-0.1 0.4,-0.2 0.7,-0.2 0.4,0 0.8,0.2 1.3,0.7 0.5,0.4 1.2,0.9 2.1,1.5 0.9,0.5 1.9,1 3.2,1.5 1.3,0.4 2.9,0.7 4.7,0.7 1.8,0 3.3,-0.2 4.7,-0.7 1.3,-0.5 2.5,-1.2 3.4,-2 0.9,-0.8 1.6,-1.8 2,-3 0.5,-1.1 0.7,-2.3 0.7,-3.6 0,-1.4 -0.3,-2.6 -1,-3.5 -0.7,-0.9 -1.6,-1.7 -2.7,-2.4 -1.1,-0.6 -2.3,-1.2 -3.7,-1.6 -1.4,-0.4 -2.8,-0.9 -4.3,-1.3 -1.5,-0.4 -2.9,-0.9 -4.3,-1.5 -1.4,-0.5 -2.6,-1.2 -3.7,-2 -1.1,-0.8 -2,-1.8 -2.7,-3 -0.7,-1.2 -1,-2.6 -1,-4.4 0,-1.5 0.3,-2.9 1,-4.3 0.6,-1.4 1.6,-2.6 2.8,-3.6 1.2,-1 2.6,-1.9 4.4,-2.5 1.7,-0.6 3.6,-0.9 5.8,-0.9 2.6,0 4.8,0.4 6.8,1.1 2,0.7 3.8,1.9 5.5,3.4 z"
   id="path18" />
		<path
   d="m 303.3,160.7 c 3,0 5.7,0.5 8.1,1.5 2.4,1 4.4,2.5 6,4.4 1.6,1.9 2.9,4.1 3.7,6.8 0.9,2.7 1.3,5.6 1.3,8.9 0,3.3 -0.4,6.2 -1.3,8.9 -0.9,2.6 -2.1,4.9 -3.7,6.8 -1.6,1.9 -3.6,3.3 -6,4.3 -2.4,1 -5.1,1.5 -8.1,1.5 -3,0 -5.7,-0.5 -8.1,-1.5 -2.4,-1 -4.4,-2.5 -6,-4.3 -1.6,-1.9 -2.9,-4.1 -3.7,-6.8 -0.9,-2.6 -1.3,-5.6 -1.3,-8.9 0,-3.3 0.4,-6.3 1.3,-8.9 0.9,-2.7 2.1,-4.9 3.7,-6.8 1.6,-1.9 3.6,-3.3 6,-4.4 2.5,-1 5.1,-1.5 8.1,-1.5 z m 0,39.9 c 2.5,0 4.7,-0.4 6.5,-1.3 1.9,-0.9 3.4,-2.1 4.7,-3.7 1.2,-1.6 2.2,-3.5 2.8,-5.8 0.6,-2.3 0.9,-4.8 0.9,-7.6 0,-2.8 -0.3,-5.3 -0.9,-7.6 -0.6,-2.3 -1.6,-4.2 -2.8,-5.8 -1.2,-1.6 -2.8,-2.9 -4.7,-3.7 -1.9,-0.9 -4,-1.3 -6.5,-1.3 -2.5,0 -4.7,0.4 -6.5,1.3 -1.9,0.9 -3.4,2.1 -4.7,3.7 -1.2,1.6 -2.2,3.6 -2.8,5.8 -0.6,2.3 -0.9,4.8 -0.9,7.6 0,2.8 0.3,5.3 0.9,7.6 0.6,2.3 1.6,4.2 2.8,5.8 1.2,1.6 2.8,2.8 4.7,3.7 1.9,0.9 4,1.3 6.5,1.3 z"
   id="path20" />
		<path
   d="m 355.6,203.2 v -37.5 l -5.9,-0.4 c -0.8,-0.1 -1.2,-0.4 -1.2,-1.1 v -1.6 h 7.1 v -5.3 c 0,-2.4 0.3,-4.5 0.9,-6.3 0.6,-1.8 1.5,-3.3 2.6,-4.5 1.1,-1.2 2.5,-2.1 4.1,-2.7 1.6,-0.6 3.3,-0.9 5.2,-0.9 0.9,0 1.7,0.1 2.6,0.2 0.9,0.2 1.7,0.4 2.3,0.7 l -0.1,1.9 c 0,0.4 -0.3,0.6 -0.8,0.6 -0.3,0 -0.8,0 -1.4,-0.1 -0.6,-0.1 -1.3,-0.1 -2.1,-0.1 -1.4,0 -2.6,0.2 -3.8,0.6 -1.2,0.4 -2.2,1.1 -3,2 -0.8,0.9 -1.5,2.1 -2,3.5 -0.5,1.4 -0.7,3.2 -0.7,5.3 v 5.2 H 373 v 3 h -13.5 v 37.6 h -3.9 z"
   id="path22" />
		<path
   d="m 415.8,203.9 c -2.8,0 -5,-0.8 -6.6,-2.4 -1.6,-1.6 -2.4,-4 -2.4,-7.3 v -28.6 h -6 c -0.3,0 -0.6,-0.1 -0.8,-0.3 -0.2,-0.2 -0.3,-0.4 -0.3,-0.7 V 163 l 7.2,-0.5 1,-15 c 0,-0.3 0.1,-0.5 0.3,-0.7 0.2,-0.2 0.4,-0.3 0.7,-0.3 h 1.9 v 16 H 424 v 3 h -13.2 v 28.4 c 0,1.2 0.1,2.1 0.4,3 0.3,0.8 0.7,1.5 1.2,2 0.5,0.5 1.1,0.9 1.8,1.2 0.7,0.3 1.5,0.4 2.3,0.4 1,0 1.9,-0.1 2.6,-0.4 0.7,-0.3 1.4,-0.6 1.9,-1 0.5,-0.4 1,-0.7 1.3,-1 0.3,-0.3 0.6,-0.4 0.8,-0.4 0.2,0 0.4,0.1 0.7,0.4 l 1.1,1.8 c -1.1,1.2 -2.4,2.1 -4.1,2.8 -1.6,0.9 -3.3,1.2 -5,1.2 z"
   id="path24" />
		<path
   d="m 448.9,161.4 h 3.1 c 0.4,0 0.7,0.1 1,0.3 0.3,0.2 0.4,0.4 0.5,0.7 l 10.6,33.1 c 0.2,0.6 0.4,1.3 0.5,1.9 0.1,0.6 0.2,1.2 0.3,1.8 0.1,-0.6 0.3,-1.2 0.5,-1.8 0.2,-0.6 0.4,-1.2 0.6,-1.9 l 11.2,-33.3 c 0.2,-0.6 0.6,-0.9 1.2,-0.9 h 1.6 c 0.6,0 1,0.3 1.2,0.9 l 11.1,33.3 c 0.4,1.3 0.8,2.5 1,3.7 0.1,-0.6 0.2,-1.2 0.4,-1.8 0.1,-0.6 0.3,-1.2 0.5,-1.9 l 10.6,-33.1 c 0.2,-0.7 0.7,-1 1.4,-1 h 2.9 l -14,41.9 h -2.9 c -0.4,0 -0.8,-0.3 -1,-0.9 l -11.5,-34 c -0.1,-0.4 -0.3,-0.8 -0.4,-1.3 -0.1,-0.4 -0.2,-0.8 -0.3,-1.3 -0.1,0.4 -0.2,0.8 -0.3,1.3 -0.1,0.4 -0.2,0.8 -0.4,1.3 l -11.6,34 c -0.2,0.6 -0.5,0.9 -1,0.9 h -2.8 z"
   id="path26" />
		<path
   d="m 562.8,203.2 c -0.8,0 -1.4,-0.4 -1.6,-1.2 l -0.6,-5.3 c -1.2,1.1 -2.3,2.1 -3.4,3 -1.1,0.9 -2.3,1.7 -3.6,2.3 -1.2,0.6 -2.6,1.1 -4,1.4 -1.4,0.3 -3,0.5 -4.7,0.5 -1.4,0 -2.8,-0.2 -4.2,-0.6 -1.3,-0.4 -2.5,-1.1 -3.6,-1.9 -1,-0.9 -1.9,-2 -2.5,-3.3 -0.6,-1.4 -0.9,-3 -0.9,-4.9 0,-1.8 0.5,-3.4 1.5,-4.9 1,-1.5 2.6,-2.8 4.7,-4 2.1,-1.1 4.9,-2 8.3,-2.7 3.4,-0.7 7.4,-1.1 12.2,-1.2 V 176 c 0,-3.9 -0.8,-6.9 -2.5,-8.9 -1.7,-2.1 -4.1,-3.1 -7.4,-3.1 -2,0 -3.7,0.3 -5.2,0.8 -1.4,0.6 -2.6,1.2 -3.6,1.9 -1,0.7 -1.8,1.3 -2.4,1.9 -0.6,0.6 -1.1,0.8 -1.6,0.8 -0.6,0 -1,-0.3 -1.3,-0.8 l -0.7,-1.2 c 2.2,-2.2 4.5,-3.8 6.9,-5 2.4,-1.1 5.2,-1.7 8.2,-1.7 2.2,0 4.2,0.4 5.9,1.1 1.7,0.7 3.1,1.7 4.2,3.1 1.1,1.3 1.9,2.9 2.5,4.8 0.6,1.9 0.8,4 0.8,6.3 v 27.3 h -1.4 z M 546,201 c 1.6,0 3.1,-0.2 4.5,-0.5 1.4,-0.4 2.6,-0.8 3.8,-1.5 1.2,-0.6 2.3,-1.4 3.3,-2.3 1,-0.9 2,-1.8 3,-2.8 V 183 c -4,0.1 -7.4,0.4 -10.3,0.9 -2.9,0.5 -5.2,1.2 -7.1,2 -1.9,0.8 -3.2,1.8 -4.1,3 -0.9,1.2 -1.3,2.5 -1.3,4 0,1.4 0.2,2.6 0.7,3.6 0.5,1 1.1,1.9 1.8,2.5 0.8,0.7 1.6,1.1 2.7,1.5 0.8,0.4 1.9,0.5 3,0.5 z"
   id="path28" />
		<path
   d="m 597.7,203.2 v -41.9 h 2.1 c 0.5,0 0.8,0.1 1,0.3 0.2,0.2 0.3,0.5 0.4,1 l 0.3,8.8 c 1.3,-3.4 3.1,-6.1 5.4,-8 2.2,-1.9 5,-2.9 8.3,-2.9 1.3,0 2.4,0.1 3.5,0.4 1.1,0.3 2.1,0.7 3,1.2 l -0.5,2.8 c -0.1,0.4 -0.4,0.7 -0.8,0.7 -0.2,0 -0.4,-0.1 -0.7,-0.2 -0.3,-0.1 -0.7,-0.2 -1.2,-0.4 -0.5,-0.1 -1,-0.3 -1.7,-0.4 -0.7,-0.1 -1.4,-0.2 -2.3,-0.2 -3.2,0 -5.8,1 -7.8,2.9 -2,2 -3.7,4.8 -4.9,8.5 V 203 h -4.1 z"
   id="path30" />
		<path
   d="m 661.5,160.7 c 2.4,0 4.5,0.4 6.5,1.2 2,0.8 3.7,2 5.2,3.6 1.5,1.6 2.6,3.5 3.5,5.7 0.8,2.3 1.2,4.9 1.2,7.8 0,0.6 -0.1,1 -0.3,1.3 -0.2,0.3 -0.5,0.3 -0.9,0.3 h -30.2 v 0.8 c 0,3.1 0.4,5.9 1.1,8.3 0.7,2.4 1.8,4.4 3.1,6 1.3,1.6 3,2.8 4.9,3.6 1.9,0.8 4,1.2 6.4,1.2 2.1,0 3.9,-0.2 5.5,-0.7 1.5,-0.5 2.8,-1 3.9,-1.6 1.1,-0.6 1.9,-1.1 2.5,-1.6 0.6,-0.5 1.1,-0.7 1.3,-0.7 0.4,0 0.6,0.1 0.8,0.4 l 1.1,1.3 c -0.7,0.8 -1.6,1.6 -2.7,2.4 -1.1,0.7 -2.3,1.4 -3.7,1.9 -1.4,0.5 -2.8,0.9 -4.4,1.2 -1.6,0.3 -3.1,0.5 -4.7,0.5 -2.9,0 -5.5,-0.5 -7.8,-1.5 -2.4,-1 -4.4,-2.4 -6.1,-4.4 -1.7,-1.9 -3,-4.2 -3.9,-7 -0.9,-2.8 -1.4,-5.9 -1.4,-9.5 0,-3 0.4,-5.8 1.3,-8.3 0.9,-2.5 2.1,-4.7 3.7,-6.6 1.6,-1.8 3.6,-3.3 5.9,-4.3 2.5,-0.8 5.2,-1.3 8.2,-1.3 z m 0,3 c -2.2,0 -4.1,0.3 -5.8,1 -1.7,0.7 -3.2,1.6 -4.4,2.9 -1.2,1.3 -2.3,2.8 -3,4.5 -0.8,1.8 -1.3,3.7 -1.5,5.9 h 27.6 c 0,-2.2 -0.3,-4.3 -0.9,-6 -0.6,-1.8 -1.5,-3.3 -2.6,-4.5 -1.1,-1.2 -2.5,-2.2 -4,-2.8 -1.7,-0.7 -3.5,-1 -5.4,-1 z"
   id="path32" />
	</g>
	
		<linearGradient
   id="SVGID_1_"
   gradientUnits="userSpaceOnUse"
   x1="189.9189"
   y1="41.316002"
   x2="20.8398"
   y2="-127.7631"
   gradientTransform="matrix(1,0,0,-1,0,55.2499)">
		<stop
   offset="0"
   style="stop-color:#D257FC"
   id="stop36" />
		<stop
   offset="0.146"
   style="stop-color:#B72DCD"
   id="stop38" />
		<stop
   offset="0.316"
   style="stop-color:#990099"
   id="stop40" />
		<stop
   offset="0.4407"
   style="stop-color:#8412B7"
   id="stop42" />
		<stop
   offset="0.7562"
   style="stop-color:#503EFF"
   id="stop44" />
	</linearGradient>
	<path
   class="st0"
   d="M 4.1,92 C 2.7,91.6 1.5,90.7 0.8,89.4 0.1,88.1 -0.1,86.6 0.3,85.2 0.7,83.8 1.6,82.6 2.9,81.9 4,81.2 5.5,81 7,81.4 l 50,13.4 v 0 c 3.1,0.9 6.4,0.9 9.6,0.1 l 0.3,-0.1 c 3,-0.9 5.8,-2.6 8,-4.8 v 0 L 155.3,9.6 c 1,-1 2.4,-1.6 3.9,-1.6 1.5,0 2.9,0.6 3.9,1.6 1,1 1.6,2.4 1.6,3.9 0,1.5 -0.6,2.9 -1.6,3.9 L 82.6,97.8 v 0 c -3.6,3.6 -8,6.2 -12.8,7.6 -0.1,0 -0.3,0.1 -0.4,0.1 -5,1.3 -10.3,1.3 -15.3,-0.1 v 0 z m 18.6,-18.6 25.6,6.9 c 5,1.4 10.3,1.4 15.3,0.1 5,-1.3 9.6,-4 13.2,-7.7 l 32.8,-32.8 c 1,-1 1.6,-2.4 1.6,-3.9 0,-1.5 -0.6,-2.9 -1.6,-3.9 -1,-1 -2.4,-1.6 -3.9,-1.6 -1.5,0 -2.9,0.6 -3.9,1.6 L 68.9,64.8 c -2.4,2.4 -5.3,4.1 -8.3,4.9 -3,0.8 -6.3,0.8 -9.6,-0.1 L 25.4,62.7 c -0.7,-0.2 -1.4,-0.3 -2.2,-0.2 -0.7,0.1 -1.4,0.3 -2.1,0.7 -0.6,0.4 -1.2,0.8 -1.6,1.4 -0.4,0.6 -0.8,1.2 -1,2 -0.2,0.7 -0.2,1.4 -0.1,2.2 0.1,0.7 0.3,1.4 0.7,2.1 0.4,0.6 0.9,1.2 1.5,1.6 0.7,0.4 1.4,0.8 2.1,0.9 z M 122.6,197 109.2,147 c -0.9,-3.1 -0.9,-6.4 -0.1,-9.6 l 0.1,-0.3 c 0.9,-3 2.5,-5.8 4.8,-8 l 80.4,-80.4 c 1,-1 1.6,-2.4 1.6,-3.9 0,-1.5 -0.6,-2.9 -1.6,-3.9 -1,-1 -2.4,-1.6 -3.9,-1.6 -1.5,0 -2.9,0.6 -3.9,1.6 l -80.3,80.4 c -3.6,3.5 -6.2,8 -7.6,12.8 0,0.1 -0.1,0.3 -0.1,0.4 -1.3,5 -1.3,10.3 0.1,15.3 v 0 l 13.4,50 c 0.4,1.4 1.3,2.6 2.6,3.3 1.3,0.7 2.8,0.9 4.2,0.5 1.4,-0.4 2.6,-1.3 3.3,-2.6 0.5,-1.1 0.7,-2.6 0.4,-4 z m 18.5,-18.6 -6.9,-25.6 c -0.9,-3.1 -0.9,-6.4 -0.1,-9.6 l 0.1,-0.3 c 0.9,-3 2.6,-5.8 4.8,-8 l 32.8,-32.8 c 1,-1 1.6,-2.4 1.6,-3.9 0,-1.5 -0.6,-2.9 -1.6,-3.9 -1,-1 -2.4,-1.6 -3.9,-1.6 -1.5,0 -2.9,0.6 -3.9,1.6 l -32.8,32.8 c -3.6,3.6 -6.2,8 -7.6,12.8 0,0.1 -0.1,0.3 -0.1,0.4 -1.3,5 -1.3,10.3 0.1,15.3 v 0 l 6.9,25.6 c 0.2,0.7 0.5,1.4 1,1.9 0.4,0.6 1,1.1 1.6,1.4 0.6,0.4 1.3,0.6 2,0.7 0.7,0.1 1.4,0 2.1,-0.1 0.7,-0.2 1.4,-0.5 1.9,-1 0.6,-0.4 1.1,-1 1.4,-1.6 0.4,-0.6 0.6,-1.3 0.7,-2 0.2,-0.7 0.1,-1.4 -0.1,-2.1 z M 183.8,12.3 16.6,179.5 c -1,1 -1.6,2.4 -1.6,3.9 0,1.5 0.6,2.9 1.6,3.9 1,1 2.4,1.6 3.9,1.6 1.5,0 2.9,-0.6 3.9,-1.6 L 191.6,20.2 c 1,-1 1.6,-2.4 1.6,-3.9 0,-1.5 -0.6,-2.8 -1.6,-3.9 -1,-1 -2.4,-1.6 -3.9,-1.6 -1.5,0 -2.9,0.5 -3.9,1.5 z m -133.2,101.9 -35,35 c -1,1 -1.6,2.4 -1.6,3.9 0,1.5 0.6,2.9 1.6,3.9 1,1 2.4,1.6 3.9,1.6 1.5,0 2.9,-0.6 3.9,-1.6 l 35,-35 c 0.5,-0.5 0.9,-1.1 1.2,-1.8 0.3,-0.7 0.4,-1.4 0.4,-2.1 0,-0.7 -0.1,-1.4 -0.4,-2.1 -0.3,-0.7 -0.7,-1.3 -1.2,-1.8 -0.5,-0.5 -1.1,-0.9 -1.8,-1.2 -0.7,-0.3 -1.4,-0.4 -2.1,-0.4 -0.7,0 -1.4,0.1 -2.1,0.4 -0.7,0.2 -1.3,0.6 -1.8,1.2 z m 31.3,31.3 -35,35 c -1,1 -1.6,2.4 -1.6,3.9 0,1.5 0.6,2.9 1.6,3.9 1,1 2.4,1.6 3.9,1.6 1.5,0 2.9,-0.6 3.9,-1.6 l 35,-35 c 1,-1 1.6,-2.4 1.6,-3.9 0,-1.5 -0.6,-2.8 -1.6,-3.9 -1,-1 -2.4,-1.6 -3.9,-1.6 -1.4,0 -2.8,0.6 -3.9,1.6 z"
   id="path47"
   style="fill:url(#SVGID_1_)" />
	<g
   id="g51">
		<path
   d="m 672.3,13.9 c 0,-1.3 0.2,-2.5 0.5,-3.7 0.3,-1.2 0.8,-2.3 1.4,-3.3 0.6,-1 1.3,-2 2.2,-2.8 0.8,-0.8 1.8,-1.6 2.8,-2.2 1,-0.6 2.1,-1.1 3.3,-1.4 1.2,-0.3 2.4,-0.5 3.7,-0.5 1.3,0 2.5,0.2 3.7,0.5 1.2,0.3 2.3,0.8 3.3,1.4 1,0.6 2,1.3 2.8,2.2 0.8,0.8 1.6,1.8 2.2,2.8 0.6,1 1.1,2.1 1.4,3.3 0.3,1.2 0.5,2.4 0.5,3.7 0,1.3 -0.2,2.5 -0.5,3.7 -0.3,1.2 -0.8,2.3 -1.4,3.3 -0.6,1 -1.3,2 -2.2,2.8 -0.8,0.8 -1.8,1.6 -2.8,2.2 -1,0.6 -2.1,1.1 -3.3,1.4 -1.2,0.3 -2.4,0.5 -3.7,0.5 -1.3,0 -2.5,-0.2 -3.7,-0.5 -1.2,-0.3 -2.3,-0.8 -3.3,-1.4 -1,-0.6 -2,-1.3 -2.8,-2.2 -0.8,-0.8 -1.6,-1.8 -2.2,-2.8 -0.6,-1 -1.1,-2.1 -1.4,-3.3 -0.3,-1.2 -0.5,-2.4 -0.5,-3.7 z m 1.9,0 c 0,1.1 0.1,2.2 0.4,3.2 0.3,1 0.7,2 1.2,2.9 0.5,0.9 1.1,1.7 1.9,2.5 0.7,0.7 1.5,1.4 2.4,1.9 0.9,0.5 1.8,0.9 2.9,1.2 1,0.3 2.1,0.4 3.2,0.4 1.7,0 3.2,-0.3 4.7,-0.9 1.5,-0.6 2.7,-1.5 3.8,-2.6 1.1,-1.1 1.9,-2.4 2.6,-3.8 0.6,-1.5 0.9,-3.1 0.9,-4.7 0,-1.1 -0.1,-2.2 -0.4,-3.3 -0.3,-1 -0.7,-2 -1.2,-2.9 -0.5,-0.9 -1.1,-1.7 -1.9,-2.5 -0.7,-0.7 -1.5,-1.4 -2.4,-1.9 -0.9,-0.5 -1.8,-0.9 -2.9,-1.2 -1,-0.3 -2.1,-0.4 -3.2,-0.4 -1.7,0 -3.2,0.3 -4.7,1 -1.5,0.6 -2.7,1.5 -3.8,2.6 -1.1,1.1 -1.9,2.4 -2.5,3.9 -0.7,1.4 -1,3 -1,4.6 z m 9.2,1.7 v 6.7 h -3 V 5.5 h 5.5 c 2.2,0 3.8,0.4 4.8,1.2 1,0.8 1.6,2 1.6,3.5 0,1.2 -0.3,2.2 -1,3 -0.7,0.8 -1.7,1.4 -3,1.7 0.2,0.1 0.4,0.3 0.6,0.5 0.2,0.2 0.3,0.4 0.4,0.7 l 4.3,6.3 h -2.8 c -0.4,0 -0.7,-0.2 -0.9,-0.5 l -3.8,-5.7 c -0.1,-0.2 -0.2,-0.3 -0.4,-0.4 -0.2,-0.1 -0.4,-0.1 -0.7,-0.1 h -1.6 z m 0,-2.1 h 2.2 c 0.7,0 1.3,-0.1 1.8,-0.2 0.5,-0.1 0.9,-0.3 1.2,-0.6 0.3,-0.3 0.5,-0.6 0.6,-0.9 0.1,-0.4 0.2,-0.8 0.2,-1.3 0,-0.5 -0.1,-0.9 -0.2,-1.2 -0.1,-0.4 -0.3,-0.6 -0.6,-0.9 -0.3,-0.2 -0.6,-0.4 -1.1,-0.5 -0.4,-0.1 -1,-0.2 -1.6,-0.2 h -2.5 z"
   id="path49" />
	</g>
</g>
<g
   aria-label="Rocket Support for Zowe"
   id="text55"
   style="font-size:16px;text-anchor:middle"
   transform="translate(-0.0961328)"><path
     d="m 261.36719,240 h -2.00782 l -3.89062,-4.625 h -2.17969 V 240 h -1.54687 V 228.36719 H 255 q 1.05469,0 1.75781,0.14062 0.70313,0.13281 1.26563,0.48438 0.63281,0.39843 0.98437,1.00781 0.35938,0.60156 0.35938,1.53125 0,1.25781 -0.63282,2.10937 -0.63281,0.84375 -1.74218,1.27344 z M 257.75,231.64062 q 0,-0.5 -0.17969,-0.88281 -0.17187,-0.39062 -0.57812,-0.65625 -0.33594,-0.22656 -0.79688,-0.3125 -0.46094,-0.0937 -1.08594,-0.0937 h -1.82031 v 4.39063 h 1.5625 q 0.73438,0 1.28125,-0.125 0.54688,-0.13282 0.92969,-0.48438 0.35156,-0.32812 0.51562,-0.75 0.17188,-0.42969 0.17188,-1.08594 z"
     id="path62" /><path
     d="m 269.79687,235.64062 q 0,2.13282 -1.09375,3.36719 -1.09375,1.23438 -2.92968,1.23438 -1.85157,0 -2.94532,-1.23438 -1.08593,-1.23437 -1.08593,-3.36719 0,-2.13281 1.08593,-3.36718 1.09375,-1.24219 2.94532,-1.24219 1.83593,0 2.92968,1.24219 1.09375,1.23437 1.09375,3.36718 z m -1.51562,0 q 0,-1.69531 -0.66406,-2.51562 -0.66407,-0.82813 -1.84375,-0.82813 -1.19532,0 -1.85938,0.82813 -0.65625,0.82031 -0.65625,2.51562 0,1.64063 0.66406,2.49219 0.66407,0.84375 1.85157,0.84375 1.17187,0 1.83593,-0.83594 0.67188,-0.84375 0.67188,-2.5 z"
     id="path64" /><path
     d="m 278.52344,239.45312 q -0.73438,0.35157 -1.39844,0.54688 -0.65625,0.19531 -1.39844,0.19531 -0.94531,0 -1.73437,-0.27344 -0.78907,-0.28125 -1.35157,-0.84375 -0.57031,-0.5625 -0.88281,-1.42187 -0.3125,-0.85938 -0.3125,-2.00781 0,-2.14063 1.17188,-3.35938 1.17968,-1.21875 3.10937,-1.21875 0.75,0 1.46875,0.21094 0.72656,0.21094 1.32813,0.51562 v 1.63282 h -0.0781 q -0.67187,-0.52344 -1.39062,-0.80469 -0.71094,-0.28125 -1.39063,-0.28125 -1.25,0 -1.97656,0.84375 -0.71875,0.83594 -0.71875,2.46094 0,1.57812 0.70312,2.42968 0.71094,0.84375 1.99219,0.84375 0.44531,0 0.90625,-0.11718 0.46094,-0.11719 0.82813,-0.30469 0.32031,-0.16406 0.60156,-0.34375 0.28125,-0.1875 0.44531,-0.32031 h 0.0781 z"
     id="path66" /><path
     d="m 288.32812,240 h -1.9375 l -3.5,-3.82031 -0.95312,0.90625 V 240 h -1.46875 v -12.15625 h 1.46875 v 7.79687 l 4.24219,-4.36718 h 1.85156 l -4.05469,4.03125 z"
     id="path68" /><path
     d="m 297.02344,235.78906 h -6.42969 q 0,0.80469 0.24219,1.40625 0.24218,0.59375 0.66406,0.97656 0.40625,0.375 0.96094,0.5625 0.5625,0.1875 1.23437,0.1875 0.89063,0 1.78906,-0.35156 0.90625,-0.35937 1.28907,-0.70312 h 0.0781 v 1.60156 q -0.74219,0.3125 -1.51562,0.52344 -0.77344,0.21093 -1.625,0.21093 -2.17188,0 -3.39063,-1.17187 -1.21875,-1.17969 -1.21875,-3.34375 0,-2.14063 1.16406,-3.39844 1.17188,-1.25781 3.07813,-1.25781 1.76562,0 2.71875,1.03125 0.96094,1.03125 0.96094,2.92969 z m -1.42969,-1.125 q -0.008,-1.15625 -0.58594,-1.78906 -0.57031,-0.63281 -1.74219,-0.63281 -1.17968,0 -1.88281,0.69531 -0.69531,0.69531 -0.78906,1.72656 z"
     id="path70" /><path
     d="m 303.78125,239.92187 q -0.41406,0.10938 -0.90625,0.17969 -0.48438,0.0703 -0.86719,0.0703 -1.33594,0 -2.03125,-0.71875 -0.69531,-0.71875 -0.69531,-2.30468 v -4.64063 h -0.99219 v -1.23437 h 0.99219 v -2.50782 H 300.75 v 2.50782 h 3.03125 v 1.23437 H 300.75 v 3.97656 q 0,0.6875 0.0312,1.07813 0.0312,0.38281 0.21875,0.71875 0.17187,0.3125 0.46875,0.46094 0.30469,0.14062 0.92187,0.14062 0.35938,0 0.75,-0.10156 0.39063,-0.10938 0.5625,-0.17969 h 0.0781 z"
     id="path72" /><path
     d="m 319.75,236.67969 q 0,0.67968 -0.32031,1.34375 -0.3125,0.66406 -0.88282,1.125 -0.625,0.5 -1.46093,0.78125 -0.82813,0.28125 -2,0.28125 -1.25782,0 -2.26563,-0.23438 -1,-0.23437 -2.03906,-0.69531 v -1.9375 h 0.10937 q 0.88282,0.73437 2.03907,1.13281 1.15625,0.39844 2.17187,0.39844 1.4375,0 2.23438,-0.53906 0.80468,-0.53907 0.80468,-1.4375 0,-0.77344 -0.38281,-1.14063 -0.375,-0.36719 -1.14844,-0.57031 -0.58593,-0.15625 -1.27343,-0.25781 -0.67969,-0.10157 -1.44532,-0.25782 -1.54687,-0.32812 -2.29687,-1.11718 -0.74219,-0.79688 -0.74219,-2.07032 0,-1.46093 1.23438,-2.39062 1.23437,-0.9375 3.13281,-0.9375 1.22656,0 2.25,0.23437 1.02344,0.23438 1.8125,0.57813 v 1.82812 h -0.10938 q -0.66406,-0.5625 -1.75,-0.92968 -1.07812,-0.375 -2.21093,-0.375 -1.24219,0 -2,0.51562 -0.75,0.51563 -0.75,1.32813 0,0.72656 0.375,1.14062 0.375,0.41406 1.32031,0.63281 0.5,0.10938 1.42187,0.26563 0.92188,0.15625 1.5625,0.32031 1.29688,0.34375 1.95313,1.03906 0.65625,0.69532 0.65625,1.94532 z"
     id="path74" /><path
     d="m 329.35156,240 h -1.46875 v -0.96875 q -0.74219,0.58594 -1.42187,0.89844 -0.67969,0.3125 -1.5,0.3125 -1.375,0 -2.14063,-0.83594 -0.76562,-0.84375 -0.76562,-2.46875 v -5.66406 h 1.46875 v 4.96875 q 0,0.66406 0.0625,1.14062 0.0625,0.46875 0.26562,0.80469 0.21094,0.34375 0.54688,0.5 0.33593,0.15625 0.97656,0.15625 0.57031,0 1.24219,-0.29688 0.67968,-0.29687 1.26562,-0.75781 v -6.51562 h 1.46875 z"
     id="path76" /><path
     d="m 339.92187,235.53125 q 0,1.0625 -0.30468,1.94531 -0.30469,0.875 -0.85938,1.48438 -0.51562,0.57812 -1.21875,0.89843 -0.69531,0.3125 -1.47656,0.3125 -0.67969,0 -1.23438,-0.14843 -0.54687,-0.14844 -1.11718,-0.46094 v 3.65625 h -1.46875 v -11.94531 h 1.46875 v 0.91406 q 0.58593,-0.49219 1.3125,-0.82031 0.73437,-0.33594 1.5625,-0.33594 1.57812,0 2.45312,1.19531 0.88281,1.1875 0.88281,3.30469 z m -1.51562,0.0391 q 0,-1.57812 -0.53906,-2.35937 -0.53907,-0.78125 -1.65625,-0.78125 -0.63282,0 -1.27344,0.27343 -0.64063,0.27344 -1.22656,0.71875 v 4.94532 q 0.625,0.28125 1.07031,0.38281 0.45312,0.10156 1.02344,0.10156 1.22656,0 1.91406,-0.82812 0.6875,-0.82813 0.6875,-2.45313 z"
     id="path78" /><path
     d="m 349.89062,235.53125 q 0,1.0625 -0.30468,1.94531 -0.30469,0.875 -0.85938,1.48438 -0.51562,0.57812 -1.21875,0.89843 -0.69531,0.3125 -1.47656,0.3125 -0.67969,0 -1.23438,-0.14843 -0.54687,-0.14844 -1.11718,-0.46094 v 3.65625 h -1.46875 v -11.94531 h 1.46875 v 0.91406 q 0.58593,-0.49219 1.3125,-0.82031 0.73437,-0.33594 1.5625,-0.33594 1.57812,0 2.45312,1.19531 0.88281,1.1875 0.88281,3.30469 z m -1.51562,0.0391 q 0,-1.57812 -0.53906,-2.35937 -0.53907,-0.78125 -1.65625,-0.78125 -0.63282,0 -1.27344,0.27343 -0.64063,0.27344 -1.22656,0.71875 v 4.94532 q 0.625,0.28125 1.07031,0.38281 0.45312,0.10156 1.02344,0.10156 1.22656,0 1.91406,-0.82812 0.6875,-0.82813 0.6875,-2.45313 z"
     id="path80" /><path
     d="m 359.61719,235.64062 q 0,2.13282 -1.09375,3.36719 -1.09375,1.23438 -2.92969,1.23438 -1.85156,0 -2.94531,-1.23438 -1.08594,-1.23437 -1.08594,-3.36719 0,-2.13281 1.08594,-3.36718 1.09375,-1.24219 2.94531,-1.24219 1.83594,0 2.92969,1.24219 1.09375,1.23437 1.09375,3.36718 z m -1.51563,0 q 0,-1.69531 -0.66406,-2.51562 -0.66406,-0.82813 -1.84375,-0.82813 -1.19531,0 -1.85938,0.82813 -0.65625,0.82031 -0.65625,2.51562 0,1.64063 0.66407,2.49219 0.66406,0.84375 1.85156,0.84375 1.17187,0 1.83594,-0.83594 0.67187,-0.84375 0.67187,-2.5 z"
     id="path82" /><path
     d="m 367.33594,232.875 h -0.0781 q -0.32812,-0.0781 -0.64062,-0.10938 -0.30469,-0.0391 -0.72657,-0.0391 -0.67968,0 -1.3125,0.30469 -0.63281,0.29687 -1.21875,0.77344 V 240 h -1.46875 v -8.72656 h 1.46875 v 1.28906 q 0.875,-0.70313 1.53907,-0.99219 0.67187,-0.29687 1.36718,-0.29687 0.38282,0 0.55469,0.0234 0.17188,0.0156 0.51563,0.0703 z"
     id="path84" /><path
     d="m 373.25,239.92187 q -0.41406,0.10938 -0.90625,0.17969 -0.48438,0.0703 -0.86719,0.0703 -1.33594,0 -2.03125,-0.71875 -0.69531,-0.71875 -0.69531,-2.30468 v -4.64063 h -0.99219 v -1.23437 H 368.75 v -2.50782 h 1.46875 v 2.50782 H 373.25 v 1.23437 h -3.03125 v 3.97656 q 0,0.6875 0.0312,1.07813 0.0312,0.38281 0.21875,0.71875 0.17187,0.3125 0.46875,0.46094 0.30469,0.14062 0.92187,0.14062 0.35938,0 0.75,-0.10156 0.39063,-0.10938 0.5625,-0.17969 h 0.0781 z"
     id="path86" /><path
     d="m 385.34375,229.26562 h -0.0781 q -0.24218,-0.0703 -0.63281,-0.14062 -0.39062,-0.0781 -0.6875,-0.0781 -0.94531,0 -1.375,0.42188 -0.42187,0.41406 -0.42187,1.50781 v 0.29688 h 2.64843 v 1.23437 h -2.60156 V 240 h -1.46875 v -7.49219 h -0.99219 v -1.23437 h 0.99219 v -0.28907 q 0,-1.55468 0.77344,-2.38281 0.77344,-0.83594 2.23437,-0.83594 0.49219,0 0.88282,0.0469 0.39843,0.0469 0.72656,0.10937 z"
     id="path88" /><path
     d="m 393.71094,235.64062 q 0,2.13282 -1.09375,3.36719 -1.09375,1.23438 -2.92969,1.23438 -1.85156,0 -2.94531,-1.23438 -1.08594,-1.23437 -1.08594,-3.36719 0,-2.13281 1.08594,-3.36718 1.09375,-1.24219 2.94531,-1.24219 1.83594,0 2.92969,1.24219 1.09375,1.23437 1.09375,3.36718 z m -1.51563,0 q 0,-1.69531 -0.66406,-2.51562 -0.66406,-0.82813 -1.84375,-0.82813 -1.19531,0 -1.85938,0.82813 -0.65625,0.82031 -0.65625,2.51562 0,1.64063 0.66407,2.49219 0.66406,0.84375 1.85156,0.84375 1.17187,0 1.83594,-0.83594 0.67187,-0.84375 0.67187,-2.5 z"
     id="path90" /><path
     d="m 401.42969,232.875 h -0.0781 q -0.32812,-0.0781 -0.64062,-0.10938 -0.30469,-0.0391 -0.72657,-0.0391 -0.67968,0 -1.3125,0.30469 -0.63281,0.29687 -1.21875,0.77344 V 240 h -1.46875 v -8.72656 h 1.46875 v 1.28906 q 0.875,-0.70313 1.53907,-0.99219 0.67187,-0.29687 1.36718,-0.29687 0.38282,0 0.55469,0.0234 0.17188,0.0156 0.51563,0.0703 z"
     id="path92" /><path
     d="m 417.05469,240 h -9.07813 v -1.4375 l 7.13281,-8.82031 h -6.86718 v -1.375 h 8.64062 v 1.39843 l -7.20312,8.85938 h 7.375 z"
     id="path94" /><path
     d="m 426.36719,235.64062 q 0,2.13282 -1.09375,3.36719 -1.09375,1.23438 -2.92969,1.23438 -1.85156,0 -2.94531,-1.23438 -1.08594,-1.23437 -1.08594,-3.36719 0,-2.13281 1.08594,-3.36718 1.09375,-1.24219 2.94531,-1.24219 1.83594,0 2.92969,1.24219 1.09375,1.23437 1.09375,3.36718 z m -1.51563,0 q 0,-1.69531 -0.66406,-2.51562 -0.66406,-0.82813 -1.84375,-0.82813 -1.19531,0 -1.85938,0.82813 -0.65625,0.82031 -0.65625,2.51562 0,1.64063 0.66407,2.49219 0.66406,0.84375 1.85156,0.84375 1.17187,0 1.83594,-0.83594 0.67187,-0.84375 0.67187,-2.5 z"
     id="path96" /><path
     d="M 439.61719,231.27344 437.34375,240 h -1.35938 L 433.74219,233.27344 431.51562,240 h -1.35156 l -2.29687,-8.72656 h 1.53125 l 1.60156,6.75781 2.17969,-6.75781 h 1.21093 l 2.23438,6.75781 1.51562,-6.75781 z"
     id="path98" /><path
     d="m 449.03906,235.78906 h -6.42969 q 0,0.80469 0.24219,1.40625 0.24219,0.59375 0.66406,0.97656 0.40625,0.375 0.96094,0.5625 0.5625,0.1875 1.23438,0.1875 0.89062,0 1.78906,-0.35156 0.90625,-0.35937 1.28906,-0.70312 h 0.0781 v 1.60156 q -0.74219,0.3125 -1.51563,0.52344 -0.77344,0.21093 -1.625,0.21093 -2.17187,0 -3.39062,-1.17187 -1.21875,-1.17969 -1.21875,-3.34375 0,-2.14063 1.16406,-3.39844 1.17187,-1.25781 3.07812,-1.25781 1.76563,0 2.71875,1.03125 0.96094,1.03125 0.96094,2.92969 z m -1.42969,-1.125 q -0.008,-1.15625 -0.58593,-1.78906 -0.57032,-0.63281 -1.74219,-0.63281 -1.17969,0 -1.88281,0.69531 -0.69532,0.69531 -0.78907,1.72656 z"
     id="path100" /></g></svg>
