<svg xmlns="http://www.w3.org/2000/svg" role="img" xmlns:xlink="http://www.w3.org/1999/xlink" viewBox="-4.53 -4.53 248.82 55.07"><path d="M237.32 9.09c-1.06 0-1.93-.86-1.93-1.92s.87-1.93 1.93-1.93 1.93.87 1.93 1.93-.87 1.92-1.93 1.92m0-4.32c-1.32 0-2.4 1.08-2.4 2.4 0 1.32 1.08 2.4 2.4 2.4 1.32 0 2.4-1.08 2.4-2.4 0-1.32-1.08-2.4-2.4-2.4"/><path d="M237.48 7.07l-.51.01-.01-.62h.51c.19-.01.34.11.34.3.01.19-.14.31-.33.31m.83-.32c-.01-.42-.3-.72-.77-.72l-1.07.02.03 2.26h.49l-.01-.81h.35l.46.8.55-.01-.52-.86c.24-.06.49-.28.49-.68M51.8341 23.1805h-5.999V9.3465h5.835c1.574 0 2.557 1.016 2.557 2.393 0 1.377-.983 2.36-2.557 2.36H45v4h6.8341c1.836 0 2.819 1.18 2.819 2.556 0 1.574-1.049 2.525-2.819 2.525m3.376-7.245c2.066-.426 3.771-2.262 3.771-5.015 0-2.918-2.131-5.573-6.295-5.573h-11.506v21.865h11.867c4.163 0 6.359-2.623 6.359-5.901 0-2.754-1.868-5.015-4.196-5.376m17.8225-.5902H68v4.098h3.5576l4.294 7.769h5.343l-4.917-8.327c2.361-.557 4.786-2.622 4.786-6.49m0 0c0-4.065-2.786-7.048-7.343-7.048h-10.228v21.865h4.655V9.4453h4.885c1.869 0 3.278 1.114 3.278 2.95s-1.409 2.95-3.278 2.95m43.4206 4.0652l3.409-9.408 3.41 9.408zm.492-14.063l-8.458 21.865h5.31l1.377-3.704h9.376l1.344 3.704h5.311l-8.425-21.865zm26.9039 17.7671h-3.967v-13.67h3.967c4.491 0 6.851 2.983 6.851 6.852 0 3.704-2.524 6.818-6.851 6.818m0-17.767h-8.622v21.865h8.622c6.851 0 11.604-4.327 11.604-10.916s-4.753-10.949-11.604-10.949m82.1269-.0045l-5.734 9.27-5.734-9.27h-5.146v21.869h4.656v-14.293l5.012 7.622c.574.871 1.851.871 2.424 0l5.013-7.622v14.293h4.656V5.3431z"/><path id="a" d="M95.8253 23.3441c-3.871 0-7.008-3.138-7.008-7.008 0-3.871 3.137-7.009 7.008-7.009 3.87 0 7.008 3.138 7.008 7.009 0 3.87-3.138 7.008-7.008 7.008m0-18.536c-6.367 0-11.528 5.161-11.528 11.528 0 6.366 5.161 11.527 11.528 11.527 6.366 0 11.528-5.161 11.528-11.527 0-6.367-5.162-11.528-11.528-11.528"/><path d="M176.4035 19.7269c-1.195 2.156-3.492 3.617-6.132 3.617-3.87 0-7.008-3.138-7.008-7.008 0-3.871 3.138-7.008 7.008-7.008 2.618 0 4.897 1.438 6.1 3.565l3.27-3.269c-2.092-2.915-5.508-4.816-9.37-4.816-6.367 0-11.527 5.161-11.527 11.528 0 6.366 5.16 11.528 11.527 11.528 3.883 0 7.316-1.922 9.404-4.865z"/><use transform="translate(98.718)" xlink:href="#a"/><ellipse cx="16.52" cy="16.497" fill="#cc092f" rx="16.236" ry="16.235"/><path fill="#fff" d="M30.8253 20.8832c-1.857-.74-3.557-.492-5.261.541 0 0-.621.379-.807.496-.794.498-1.543.97-2.263.97-.687 0-1.363-.184-1.649-1.513-.446-2.073-1.534-7.167-2.009-9.69-.279-1.483-.432-2.282-.591-2.825-.28-.954-.792-1.473-1.519-1.556 0 0-.114-.016-.207-.016-.092 0-.218.018-.218.018-.72.086-1.229.605-1.507 1.554-.159.543-.312 1.342-.591 2.825-.475 2.523-1.563 7.617-2.009 9.69-.286 1.329-.962 1.513-1.649 1.513-.72 0-1.469-.472-2.263-.97-.186-.117-.808-.496-.808-.496-1.703-1.033-3.404-1.281-5.26-.541-.401.16-.79596.33918-1.17196.52018.257.806.57693 1.59925.94993 2.34425.411-.202.84203-.40243 1.28203-.53243.634-.187 1.284-.197 1.914.014.612.205 1.157.568 1.7.909 1.023.643 2.182 1.372 3.657 1.372 2.186 0 3.72-1.305 4.21-3.581.38-1.764 1.222-5.702 1.763-8.418 0 0 1.386 6.654 1.765 8.418.49 2.276 2.025 3.581 4.211 3.581 1.475 0 2.634-.729 3.657-1.372.543-.341 1.088-.704 1.7-.909.629-.211 1.28-.201 1.914-.014.44.13.87039.33065 1.28139.53265.374-.745.69309-1.53862.95009-2.34462-.376-.181-.77048-.36003-1.17148-.52003"/><path d="M59.70497 43.30218h-1.5743c0 .82144.29414 1.46609.88393 1.93548.58978.47092 1.3975.70561 2.4262.70561 1.00737 0 1.78766-.23927 2.33934-.71628.5517-.47549.82754-1.07594.82754-1.7968 0-.70408-.2347-1.24205-.70714-1.61239-.30328-.23926-.75286-.43129-1.35026-.57302l-1.36094-.32766c-.52425-.12497-.86715-.23317-1.0287-.32614-.24993-.1402-.3749-.35052-.3749-.63246 0-.30784.1265-.54711.381-.7178.25298-.17221.59284-.25756 1.01803-.25756.38253 0 .70104.06554.9586.19812.38557.19965.59283.53798.62179 1.01194h1.58496c-.02743-.8382-.33528-1.47828-.92354-1.92024-.58827-.44044-1.29693-.66142-2.12903-.66142-.9967 0-1.7526.23318-2.26771.70104-.5136.4694-.77115 1.05614-.77115 1.76327 0 .77572.2667 1.3457.79858 1.70993.31394.21793.8824.4191 1.70383.60503l.83515.18745c.49073.10668.84887.23012 1.07747.37033.2286.14173.3429.34443.3429.60503 0 .44653-.23012.75133-.69037.91592-.24384.08535-.55931.12802-.94945.12802-.64923 0-1.10795-.16154-1.37618-.48768-.1463-.1783-.24536-.44806-.29565-.80772zm1.60325-5.70128zm5.87959 3.7338c.19507-.22098.46939-.33224.82296-.33224.32461 0 .5974.10516.81686.31395s.34138.51511.36729.91897h-2.3744c.0503-.37948.17222-.67818.36729-.90068zm2.13512-1.31826c-.39014-.18136-.82753-.2728-1.31216-.2728-.81839 0-1.48438.26975-1.99644.80924-.51207.5395-.7681 1.31522-.7681 2.32563 0 1.07899.28347 1.85775.85192 2.33629.56693.47854 1.22225.7178 1.96596.7178.89916 0 1.6002-.28498 2.10007-.85191.32156-.35814.5014-.71019.54102-1.05613h-1.55905c-.0823.1722-.17679.30632-.28347.40233-.1966.17831-.45262.26823-.76657.26823-.29718 0-.55016-.07316-.76047-.22098-.34748-.2347-.53036-.64618-.5517-1.2314h3.99594c.00762-.50444-.00915-.89001-.04725-1.15824-.06858-.4572-.2164-.858-.445-1.20548-.25451-.39167-.57608-.6797-.9647-.86258zm-1.20548-.2728zm7.17956 2.25095h1.56363c-.08535-.8321-.3612-1.41275-.82754-1.74193-.46634-.32766-1.06527-.49226-1.7968-.49226-.86105 0-1.53618.2789-2.02539.83516-.4892.55778-.73457 1.33807-.73457 2.34086 0 .89002.2225 1.61392.66447 2.17018.44348.55778 1.13385.83667 2.07416.83667.93879 0 1.64745-.33375 2.12598-1.00279.30023-.41453.46787-.85344.50445-1.31826h-1.55906c-.032.30785-.12344.55778-.2728.75133-.15087.19203-.40385.28956-.762.28956-.50291 0-.84581-.24384-1.0287-.73-.09905-.2606-.14934-.60502-.14934-1.03327 0-.44958.05029-.81076.14935-1.08204.1905-.51054.54102-.76657 1.05613-.76657.36119 0 .62636.11735.79858.35357.11734.17526.1905.37186.21945.58979zm-1.0348-2.25095zm5.17094.15545H77.868v3.52044c0 .66751.08382 1.17348.25298 1.51638.30023.62179.8824.93269 1.7465.93269.30024 0 .56084-.03963.78487-.11888.2225-.07772.45415-.22402.69342-.4389.07925-.06859.1463-.14631.20421-.23623.0564-.08839.09297-.14325.10668-.16002v.82449h1.48438v-5.83997h-1.54838v3.17754c0 .3749-.0503.67665-.15088.90525-.19202.42215-.55016.63246-1.07137.63246-.40691 0-.6797-.14782-.81991-.445-.07773-.16764-.11735-.41758-.11735-.74981zm1.07137-.15545zm7.3533.01829c-.01981-.00153-.04267-.00153-.07163-.00153-.4572 0-.82905.11888-1.11404.35814-.17526.14326-.381.40996-.61722.79858v-1.01803h-1.45695v5.83997h1.53772V42.9486c0-.46939.05944-.81534.17678-1.04089.21032-.39929.62332-.59893 1.2375-.59893.04724 0 .10667.00152.18287.00457.07468.00457.16002.01067.25603.02134v-1.56363c-.06705-.00457-.11125-.0061-.13106-.00914zm2.5085 1.57277c.19355-.22098.46787-.33224.82144-.33224.32614 0 .5974.10516.81686.31395.22098.20879.3429.51511.36729.91897h-2.37287c.0503-.37948.17221-.67818.36728-.90068zm2.13513-1.31826c-.39015-.18136-.82753-.2728-1.31369-.2728-.81686 0-1.48285.26975-1.99492.80924-.51358.5395-.76962 1.31522-.76962 2.32563 0 1.07899.285 1.85775.85192 2.33629.56845.47854 1.22377.7178 1.96596.7178.90068 0 1.6002-.28498 2.1016-.85191.32004-.35814.5014-.71019.54102-1.05613h-1.55906c-.0823.1722-.17678.30632-.28498.40233-.1966.17831-.4511.26823-.76658.26823-.29565 0-.54864-.07316-.76047-.22098-.34595-.2347-.53035-.64618-.55169-1.2314h3.99745c.0061-.50444-.00914-.89001-.04877-1.15824-.06705-.4572-.2164-.858-.445-1.20548-.25299-.39167-.57455-.6797-.96317-.86258zm-1.20549-.2728zm7.62915-1.07594c-.73914.74523-1.10947 1.80898-1.10947 3.18668 0 1.27559.3246 2.2799.97536 3.01142.64922.72848 1.54228 1.09271 2.67919 1.09271.91745 0 1.6703-.26975 2.25857-.80924.58674-.53797.9525-1.23901 1.09575-2.10007h-1.63525c-.10973.4069-.24994.71323-.41758.91592-.30327.37948-.74523.56845-1.32283.56845-.5654 0-1.03022-.22098-1.39598-.66141-.36576-.44196-.55017-1.1049-.55017-1.99035 0-.88544.17374-1.57124.52121-2.05435.34595-.48463.81839-.72695 1.41885-.72695.58978 0 1.0348.17221 1.33502.51511.16764.19203.3048.47854.41148.8565h1.6505c-.0244-.49226-.20727-.98299-.54712-1.47372-.61418-.8702-1.58496-1.30606-2.9139-1.30606-.99364 0-1.8105.3246-2.45363.97536zm2.40487-1.0668zm7.8745 2.16103c-.0198-.00153-.04419-.00153-.07314-.00153-.4572 0-.82906.11888-1.11405.35814-.17526.14326-.381.40996-.6157.79858v-1.01803h-1.45846v5.83997h1.53771V42.9486c0-.46939.05944-.81534.17679-1.04089.21183-.39929.62331-.59893 1.23749-.59893.04724 0 .1082.00152.18288.00457.07467.00457.16002.01067.25755.02134v-1.56363c-.06858-.00457-.11277-.0061-.13106-.00914zm2.50699 1.57277c.19507-.22098.46787-.33224.82143-.33224.32614 0 .59741.10516.8184.31395.21945.20879.34137.51511.36575.91897h-2.37287c.0503-.37948.17222-.67818.36729-.90068zm2.13512-1.31826c-.39014-.18136-.82753-.2728-1.31369-.2728-.81686 0-1.48285.26975-1.99491.80924-.51207.5395-.76962 1.31522-.76962 2.32563 0 1.07899.28499 1.85775.85191 2.33629.56846.47854 1.22378.7178 1.96749.7178.89916 0 1.6002-.28498 2.10007-.85191.32156-.35814.5014-.71019.54102-1.05613h-1.55905c-.0823.1722-.17679.30632-.28499.40233-.19507.17831-.4511.26823-.76505.26823-.29718 0-.55016-.07316-.76047-.22098-.34748-.2347-.53188-.64618-.55322-1.2314h3.99746c.00762-.50444-.00915-.89001-.04877-1.15824-.06706-.4572-.21489-.858-.44349-1.20548-.2545-.39167-.57607-.6797-.96469-.86258zm-1.20548-.2728zm6.7879.24994c-.27433-.15545-.5898-.23318-.94336-.23318-.7681 0-1.38075.285-1.83947.8565-.45872.5715-.68885 1.35635-.68885 2.35305 0 .8641.23317 1.57124.69952 2.12445.46634.5517 1.03937.82754 1.72212.82754.41453 0 .76047-.07925 1.03937-.23622.27889-.15698.5273-.40844.74523-.7559v.80924h1.48438v-7.8867h-1.54839v2.78587c-.1722-.27432-.39471-.4892-.67056-.64465zm.3749 4.16052c-.22403.32004-.55321.48158-.98603.48158-.4313 0-.75438-.16154-.96622-.48463-.21336-.32309-.31851-.75438-.31851-1.29388 0-.49987.10363-.91897.31242-1.2573.20879-.3368.53645-.50597.98298-.50597.29413 0 .55016.09297.77267.2789.35966.30632.54102.81838.54102 1.53162 0 .51206-.11278.92811-.33833 1.24968zm4.7122-2.8194c.19508-.22098.4694-.33224.82297-.33224.3246 0 .5974.10516.81686.31395s.34138.51511.36728.91897h-2.37439c.0503-.37948.17221-.67818.36729-.90068zm2.13513-1.31826c-.38862-.18136-.826-.2728-1.31216-.2728-.8184 0-1.48286.26975-1.99644.80924-.51207.5395-.7681 1.31522-.7681 2.32563 0 1.07899.28346 1.85775.85192 2.33629.56692.47854 1.22224.7178 1.96596.7178.90068 0 1.6002-.28498 2.10007-.85191.32156-.35814.5014-.71019.54102-1.05613h-1.55905c-.0823.1722-.17679.30632-.28347.40233-.1966.17831-.45263.26823-.76657.26823-.29566 0-.55016-.07316-.76048-.22098-.34594-.2347-.53035-.64618-.55168-1.2314h3.99592c.00762-.50444-.00762-.89001-.04724-1.15824-.06858-.4572-.2164-.858-.445-1.20548-.253-.39167-.57456-.6797-.9647-.86258zm-1.20548-.2728zm8.40943.49073c-.38405-.317-.87783-.47397-1.48133-.47397-.4831 0-.88087.11735-1.19482.35357-.17526.13107-.36118.34747-.55778.6477v-.85191h-1.4737v5.8293h1.52247v-3.16078c0-.36119.05029-.65684.14935-.89002.19355-.4389.54864-.65836 1.0668-.65836.42062 0 .70714.14935.85649.44958.0823.16459.12344.4008.12344.70713v3.55245h1.56515v-3.93192c0-.73305-.19202-1.2573-.57607-1.57277zm-2.04369-.49073zm3.429 1.29692h.81382v3.59512c0 .36424.08534.63398.25756.80924.26365.27432.75742.3993 1.47828.3749l.7239-.02742v-1.14148a2.47983 2.47983 0 0 1-.1524.00914c-.05182.00153-.10211.00305-.14783.00305-.3109 0-.49683-.03048-.55779-.08991-.06096-.05792-.09144-.20727-.09144-.44654v-3.0861h.94946v-1.08813h-.94946V38.3248h-1.51028v1.62763h-.81382zm5.8232-1.83794v-1.4097h-1.54838v1.4097zm-1.54838.69647v5.83997h1.54839v-5.83997zm6.24688 3.00075v.56846c-.01067.51054-.15392.86258-.4313 1.0546-.27584.19355-.57911.28956-.9083.28956-.20574 0-.38252-.0579-.5273-.17373-.14478-.11583-.2164-.3048-.2164-.5654 0-.29261.11734-.50902.35356-.64923.13868-.0823.3688-.15088.69037-.20879l.3429-.064c.17221-.03201.30633-.06706.40539-.10364.09753-.0381.19507-.08687.29108-.14783zm-.9266-.71323l-.51968.06401c-.58978.0762-1.03632.20117-1.3396.37643-.5532.32156-.83057.84125-.83057 1.55905 0 .55321.17221.98146.51816 1.2832.34442.30176.78029.45264 1.30911.45264.41453 0 .78639-.0945 1.11405-.285.27584-.16001.51816-.35508.73-.58368.01066.13258.02438.24993.04267.35356.01676.10364.04876.21489.096.33224h1.66117v-.22556c-.10059-.04572-.17526-.10515-.22555-.17678-.0503-.0701-.08078-.20574-.09144-.4069-.0061-.26366-.01067-.48921-.01067-.67514v-2.67767c0-.70409-.24841-1.18262-.74371-1.43713-.49683-.25298-1.06528-.37948-1.70384-.37948-.98298 0-1.6764.25604-2.07873.77115-.25451.32918-.39777.74828-.42977 1.25882h1.4737c.03658-.22555.10821-.40386.2149-.53492.14934-.17983.40538-.26823.76656-.26823.32004 0 .56388.04572.73.13564.16612.09144.24994.25756.24994.49682 0 .1966-.10973.33986-.32766.43282-.1204.05486-.3231.09906-.60503.13411zm.08078-2.44297zm5.28828 5.99542v-7.89737h-1.52705v7.89737zm5.8552-2.43688h-1.57428c0 .82144.29413 1.46609.88392 1.93548.58978.47092 1.3975.70561 2.4262.70561 1.00737 0 1.78766-.23927 2.33934-.71628.5517-.47549.82754-1.07594.82754-1.7968 0-.70408-.2347-1.24205-.70714-1.61239-.30328-.23926-.75286-.43129-1.35026-.57302l-1.36094-.32766c-.52425-.12497-.86715-.23317-1.0287-.32614-.24993-.1402-.3749-.35052-.3749-.63246 0-.30784.1265-.54711.381-.7178.25298-.17221.59284-.25756 1.01803-.25756.38253 0 .70104.06554.9586.19812.38557.19965.59283.53798.62179 1.01194h1.58496c-.02743-.8382-.33528-1.47828-.92354-1.92024-.58827-.44044-1.29693-.66142-2.12903-.66142-.9967 0-1.7526.23318-2.26771.70104-.5136.4694-.77115 1.05614-.77115 1.76327 0 .77572.2667 1.3457.79858 1.70993.31394.21793.8824.4191 1.70383.60503l.83515.18745c.49073.10668.84887.23012 1.07747.37033.2286.14173.3429.34443.3429.60503 0 .44653-.23012.75133-.69037.91592-.24384.08535-.55931.12802-.94945.12802-.64923 0-1.10795-.16154-1.37618-.48768-.1463-.1783-.24536-.44806-.29565-.80772zm1.60326-5.70128zm3.7978 3.43966h.81534v3.59512c0 .36424.08535.63398.25604.80924.26517.27432.75742.3993 1.4798.3749l.72238-.02742v-1.14148a2.47983 2.47983 0 0 1-.1524.00914c-.05182.00153-.10059.00305-.14783.00305-.3109 0-.4953-.03048-.55626-.08991-.06096-.05792-.09144-.20727-.09144-.44654v-3.0861h.94793v-1.08813h-.94793V38.3248h-1.51029v1.62763h-.81534zm7.90347 3.14554c-.23927.317-.58217.47701-1.0287.47701s-.79096-.16002-1.03175-.47701c-.2408-.31852-.36119-.76962-.36119-1.35636 0-.58522.1204-1.03632.36119-1.35331.2408-.31547.58522-.47397 1.03175-.47397s.78943.1585 1.0287.47397c.23927.31699.35814.7681.35814 1.35331 0 .58674-.11887 1.03784-.35814 1.35636zm1.22072.84277c.49378-.60807.73914-1.34112.73914-2.19913 0-.84277-.24536-1.57277-.73914-2.19151-.49225-.61722-1.24053-.9266-2.24485-.9266-1.0028 0-1.75108.30938-2.24485.9266-.49225.61874-.73914 1.34874-.73914 2.19151 0 .85801.24689 1.59106.73914 2.19913.49377.6096 1.24206.9144 2.24485.9144 1.00432 0 1.7526-.3048 2.24485-.9144zm-2.24485-5.28523zm7.3213.01829c-.01982-.00153-.04268-.00153-.07163-.00153-.4572 0-.82906.11888-1.11405.35814-.17526.14326-.381.40996-.61722.79858v-1.01803h-1.45694v5.83997h1.53772V42.9486c0-.46939.05943-.81534.17678-1.04089.21031-.39929.62332-.59893 1.23749-.59893.04724 0 .1082.00152.18288.00457.07467.00457.16002.01067.25603.02134v-1.56363c-.06706-.00457-.11125-.0061-.13106-.00914zm2.5085 1.57277c.19355-.22098.46787-.33224.82144-.33224.32613 0 .5974.10516.81686.31395.22098.20879.3429.51511.36728.91897h-2.37286c.05029-.37948.1722-.67818.36728-.90068zm2.13512-1.31826c-.39014-.18136-.82753-.2728-1.31368-.2728-.81687 0-1.48286.26975-1.99492.80924-.51359.5395-.76962 1.31522-.76962 2.32563 0 1.07899.28499 1.85775.85192 2.33629.56845.47854 1.22377.7178 1.96596.7178.90068 0 1.6002-.28498 2.1016-.85191.32156-.35814.50139-.71019.54101-1.05613h-1.55905c-.0823.1722-.17678.30632-.28499.40233-.1966.17831-.4511.26823-.76505.26823-.29718 0-.55016-.07316-.762-.22098-.34594-.2347-.53035-.64618-.55168-1.2314h3.99745c.00762-.50444-.00915-.89001-.04877-1.15824-.06706-.4572-.2164-.858-.445-1.20548-.253-.39167-.57456-.6797-.96318-.86258zm-1.20548-.2728z"/></svg>