<?xml version="1.0" encoding="UTF-8" standalone="no"?>
<!-- Generator: Adobe Illustrator 23.0.1, SVG Export Plug-In . SVG Version: 6.00 Build 0) -->

<svg
   id="Layer_1"
   x="0px"
   y="0px"
   viewBox="0 0 400 300"
   style="enable-background:new 0 0 400 245;"
   xml:space="preserve"
   version="1.1"
   xmlns="http://www.w3.org/2000/svg"
   xmlns:svg="http://www.w3.org/2000/svg"><defs
   id="defs137" /> <style
   type="text/css"
   id="style2"> .st0{fill:#4C83C3;} </style> <g
   id="g130"> <path
   id="polygon4"
   class="st0"
   style="fill:#4c83c3"
   d="m 336.1,42.1 h 62.2 V 53.5 H 332 Z" /> <path
   class="st0"
   d="m 221.5,42.1 h 61.6 l 4,11.5 c 0,0 -65.6,0 -65.6,0 0.1,-0.1 0,-11.5 0,-11.5 z"
   id="path6" /> <path
   class="st0"
   d="m 172.7,42.1 c 10.1,1 19,4.6 26.5,11.5 0,0 -111.6,0 -111.6,0 0,0 0,-11.5 0,-11.5 z"
   id="path8" /> <g
   id="g14"> <path
   id="rect10"
   class="st0"
   style="fill:#4c83c3"
   d="m 0,42.099998 h 77.5 v 11.4 H 0 Z" /> <path
   class="st0"
   d="M 38.8,47.8"
   id="path12" /> </g> <path
   class="st0"
   d="m 398.3,75 h -73.9 c 0,0 4,-11.4 4,-11.4 h 69.9 z"
   id="path16" /> <path
   id="polygon18"
   class="st0"
   style="fill:#4c83c3"
   d="m 221.5,63.6 h 69.2 l 4.1,11.4 h -73.3 z" /> <path
   class="st0"
   d="m 207.8,63.6 c 1.5,3.8 3.2,7 3.2,11.4 H 87.6 V 63.6 Z"
   id="path20" /> <g
   id="g26"> <path
   id="rect22"
   class="st0"
   style="fill:#4c83c3"
   d="m 0,63.599998 h 77.5 v 11.4 H 0 Z" /> <path
   class="st0"
   d="M 38.8,69.3"
   id="path24" /> </g> <path
   id="polygon28"
   class="st0"
   style="fill:#4c83c3"
   d="m 376.4,85.1 v 11.4 h -59.6 l 4.1,-11.4 z" /> <path
   id="polygon30"
   class="st0"
   style="fill:#4c83c3"
   d="M 243.4,96.5 V 85.1 h 54.9 l 4.1,11.4 z" /> <path
   class="st0"
   d="m 212,85 c 0,3.9 -0.5,8 -1.6,11.4 H 176.6 V 85 Z"
   id="path32" /> <g
   id="g38"> <path
   id="rect34"
   class="st0"
   style="fill:#4c83c3"
   d="m 21.6,85.099998 h 33.3 v 11.4 H 21.6 Z" /> <path
   class="st0"
   d="M 38.3,90.8"
   id="path36" /> </g> <g
   id="g44"> <path
   id="rect40"
   class="st0"
   style="fill:#4c83c3"
   d="m 110,85 h 33.3 V 96.4 H 110 Z" /> <path
   class="st0"
   d="M 126.6,90.8"
   id="path42" /> </g> <path
   class="st0"
   d="m 276.1,108.8 c 0,0 0,8.7 0,8.7 h -32.8 v -11.4 h 62.4 l 3.9,10.6 c 0,0 3.7,-10.6 3.7,-10.6 h 62.9 v 11.4 h -32.6 c 0,0 0,-8.7 0,-8.7 l -3,8.7 H 279 Z"
   id="path46" /> <path
   class="st0"
   d="m 110,106.1 h 95.5 v 0 c -2.1,3.8 -5.9,8.4 -9.5,11.4 0,0 -86,0 -86,0 0,0 0,-11.4 0,-11.4 z"
   id="path48" /> <g
   id="g54"> <path
   id="rect50"
   class="st0"
   style="fill:#4c83c3"
   d="m 21.6,106.1 h 33.3 v 11.4 H 21.6 Z" /> <path
   class="st0"
   d="M 38.3,111.8"
   id="path52" /> </g> <g
   id="g60"> <path
   id="rect56"
   class="st0"
   style="fill:#4c83c3"
   d="m 343.79999,127.6 h 32.6 V 139 h -32.6 z" /> <path
   class="st0"
   d="M 360.1,133.3"
   id="path58" /> </g> <path
   class="st0"
   d="M 276.1,127.6 H 243.3 V 139 c 0,0 32.8,0 32.8,0 0,-0.1 0.1,-11.4 0,-11.4 z"
   id="path62" /> <path
   class="st0"
   d="m 337.2,127.6 c -0.1,0 -3.8,11.4 -4,11.4 h -46.4 c 0,0 -4.1,-11.4 -4.1,-11.4 z"
   id="path64" /> <path
   class="st0"
   d="m 110,127.6 h 85.8 c 3.9,3.3 7.5,7.3 10.2,11.4 0.2,0 -96.1,0 -96.1,0 0.1,-0.1 0.1,-11.4 0.1,-11.4 z"
   id="path66" /> <path
   class="st0"
   d="M 54.9,138.9 V 127.5 H 21.7 c 0,0 0,11.4 0,11.4 0,0 33.2,0 33.2,0 z"
   id="path68" /> <g
   id="g74"> <path
   id="rect70"
   class="st0"
   style="fill:#4c83c3"
   d="m 343.79999,149 h 32.6 v 11.4 h -32.6 z" /> <path
   class="st0"
   d="M 360.1,154.7"
   id="path72" /> </g> <g
   id="g80"> <path
   id="rect76"
   class="st0"
   style="fill:#4c83c3"
   d="m 243.39999,149 h 32.8 v 11.4 h -32.8 z" /> <path
   class="st0"
   d="M 259.8,154.7"
   id="path78" /> </g> <path
   class="st0"
   d="m 325.6,160.4 c 0,-0.1 4,-11.4 4.1,-11.4 h -39.5 c -0.1,0 4,11.4 4,11.4 0,0 31.4,0.1 31.4,0 z"
   id="path82" /> <path
   class="st0"
   d="m 110,160.4 c 0,0 0,-11.4 0,-11.4 h 33.8 c 0,0 0,11.4 0,11.4 -0.1,0 -33.8,0 -33.8,0 z"
   id="path84" /> <path
   class="st0"
   d="m 210.8,149 c 1.6,3.4 1.8,7.5 2.1,11.4 H 177.1 V 149 Z"
   id="path86" /> <g
   id="g92"> <path
   id="rect88"
   class="st0"
   style="fill:#4c83c3"
   d="M 21.700001,149 H 55 v 11.4 H 21.700001 Z" /> <path
   class="st0"
   d="M 38.3,154.7"
   id="path90" /> </g> <g
   id="g98"> <path
   id="rect94"
   class="st0"
   style="fill:#4c83c3"
   d="m 343.79999,170 h 54.5 v 11.4 h -54.5 z" /> <path
   class="st0"
   d="M 371,175.7"
   id="path96" /> </g> <g
   id="g104"> <path
   id="rect100"
   class="st0"
   style="fill:#4c83c3"
   d="m 221.5,170 h 54.6 v 11.4 h -54.6 z" /> <path
   class="st0"
   d="M 248.8,175.7"
   id="path102" /> </g> <path
   id="polygon106"
   class="st0"
   style="fill:#4c83c3"
   d="m 297.6,170 h 24.5 l -3.9,11.4 h -16.6 z" /> <path
   class="st0"
   d="m 0,170 v 11.4 h 77.5 c 0,0 0,-11.4 0,-11.4 0,0 -77.6,0 -77.5,0 z"
   id="path108" /> <path
   class="st0"
   d="m 211.5,170 c -0.8,3.8 -1.6,8.3 -4.3,11.4 h -1 H 87.6 V 170 Z"
   id="path110" /> <path
   id="polygon112"
   class="st0"
   style="fill:#4c83c3"
   d="m 305.3,191.5 h 9.4 l -4,11.4 h -1.5 z" /> <g
   id="g118"> <path
   id="rect114"
   class="st0"
   style="fill:#4c83c3"
   d="m 343.79999,191.5 h 54.5 v 11.4 h -54.5 z" /> <path
   class="st0"
   d="M 371,197.2"
   id="path116" /> </g> <path
   class="st0"
   d="m 87.6,202.9 v -11.4 c 0,0 111.9,0 112.2,0 -7.5,7.2 -17.8,11.2 -28.9,11.4 H 87.6"
   id="path120" /> <g
   id="g126"> <path
   id="rect122"
   class="st0"
   style="fill:#4c83c3"
   d="m 221.5,191.5 h 54.6 v 11.4 h -54.6 z" /> <path
   class="st0"
   d="M 248.8,197.2"
   id="path124" /> </g> <path
   class="st0"
   d="m 77.5,191.5 c 0,0 0,11.4 0,11.4 0,0 -77.4,0 -77.5,0 0,0 0,-11.4 0,-11.4 0,0 77.4,0.1 77.5,0 z"
   id="path128" /> </g> <g
   aria-label="Shared Memory Communication Tools"
   id="text132"
   style="font-size:22px;text-anchor:middle"><path
     d="m 3.5253906,235.43457 q 0,0.93457 -0.4404297,1.84766 -0.4296875,0.91308 -1.2138672,1.54687 -0.859375,0.6875 -2.00878901,1.07422 -1.13867189,0.38672 -2.74999999,0.38672 -1.7294922,0 -3.1152344,-0.32227 -1.375,-0.32226 -2.8037109,-0.95605 v -2.66406 H -8.65625 q 1.2138672,1.00976 2.8037109,1.55761 1.5898438,0.54785 2.9863282,0.54785 1.97656246,0 3.07226559,-0.74121 Q 1.3125,236.9707 1.3125,235.73535 q 0,-1.06348 -0.52636719,-1.56836 -0.515625,-0.50488 -1.57910156,-0.78418 -0.80566405,-0.21484 -1.75097655,-0.35449 -0.9345703,-0.13965 -1.9873047,-0.35449 -2.1269531,-0.45117 -3.1582031,-1.53613 -1.0205078,-1.09571 -1.0205078,-2.84668 0,-2.00879 1.6972656,-3.28711 1.6972656,-1.28907 4.3076172,-1.28907 1.6865234,0 3.09374998,0.32227 1.40722652,0.32226 2.49218752,0.79492 v 2.51367 H 2.7304688 q -0.913086,-0.77343 -2.40625005,-1.27832 -1.48242185,-0.51562 -3.04003905,-0.51562 -1.7080078,0 -2.75,0.70898 -1.03125,0.70899 -1.03125,1.82617 0,0.99903 0.515625,1.56836 0.515625,0.56934 1.8154297,0.87012 0.6875,0.15039 1.9550781,0.36523 1.26757812,0.21485 2.1484375,0.44043 1.7832031,0.47266 2.6855469,1.42872 0.9023437,0.95605 0.9023437,2.6748 z"
     id="path158" /><path
     d="m 16.813477,240 h -2.019532 v -6.83203 q 0,-0.82715 -0.09668,-1.54688 -0.09668,-0.73047 -0.354493,-1.13867 -0.268554,-0.45117 -0.773437,-0.66601 -0.504883,-0.22559 -1.310547,-0.22559 -0.827148,0 -1.729492,0.4082 -0.9023439,0.40821 -1.7294923,1.042 V 240 H 6.7802734 v -16.71484 h 2.0195313 v 6.04785 q 0.9453125,-0.78418 1.9550783,-1.22461 1.009765,-0.44043 2.073242,-0.44043 1.944336,0 2.964844,1.1709 1.020508,1.1709 1.020508,3.37304 z"
     id="path160" /><path
     d="m 30.026367,240 h -2.008789 v -1.27832 q -0.268555,0.18262 -0.730469,0.51562 -0.451172,0.32227 -0.880859,0.51563 -0.504883,0.24707 -1.160156,0.4082 -0.655274,0.17188 -1.536133,0.17188 -1.62207,0 -2.75,-1.07422 -1.12793,-1.07422 -1.12793,-2.73926 0,-1.36426 0.580078,-2.20215 0.590821,-0.84863 1.675782,-1.33203 1.095703,-0.4834 2.631836,-0.65527 1.536132,-0.17188 3.297851,-0.25781 v -0.31153 q 0,-0.6875 -0.24707,-1.13867 -0.236328,-0.45117 -0.6875,-0.70898 -0.429688,-0.24707 -1.03125,-0.33301 -0.601563,-0.0859 -1.256836,-0.0859 -0.794922,0 -1.772461,0.21484 -0.977539,0.20411 -2.019531,0.60157 h -0.107422 v -2.05176 q 0.59082,-0.16113 1.708008,-0.35449 1.117187,-0.19336 2.202148,-0.19336 1.267578,0 2.202148,0.21484 0.945313,0.2041 1.632813,0.70899 0.676758,0.49414 1.03125,1.27832 0.354492,0.78418 0.354492,1.94433 z m -2.008789,-2.9541 v -3.34082 q -0.923828,0.0537 -2.180664,0.16113 -1.246094,0.10742 -1.976562,0.31152 -0.870118,0.24707 -1.407227,0.77344 -0.537109,0.51563 -0.537109,1.42871 0,1.03125 0.623046,1.55762 0.623047,0.51562 1.901368,0.51562 1.063476,0 1.944336,-0.4082 0.880859,-0.41894 1.632812,-0.99902 z"
     id="path162" /><path
     d="m 41.423828,230.20312 h -0.107422 q -0.451172,-0.10742 -0.880859,-0.15039 -0.418945,-0.0537 -0.999024,-0.0537 -0.93457,0 -1.804687,0.41895 -0.870117,0.4082 -1.675781,1.06348 V 240 h -2.019532 v -11.99902 h 2.019532 v 1.77246 q 1.203125,-0.9668 2.116211,-1.36426 0.923828,-0.4082 1.879882,-0.4082 0.526368,0 0.762696,0.0322 0.236328,0.0215 0.708984,0.0967 z"
     id="path164" /><path
     d="m 53.390625,234.20996 h -8.84082 q 0,1.10645 0.333007,1.93359 0.333008,0.81641 0.913086,1.34278 0.558594,0.51562 1.321289,0.77344 0.773438,0.25781 1.697266,0.25781 1.224609,0 2.459961,-0.4834 1.246094,-0.49414 1.772461,-0.9668 h 0.107422 v 2.20215 q -1.020508,0.42969 -2.083985,0.71973 -1.063476,0.29004 -2.234375,0.29004 -2.986328,0 -4.662109,-1.61133 -1.675781,-1.62207 -1.675781,-4.59766 0,-2.94336 1.600586,-4.67285 1.611328,-1.72949 4.232422,-1.72949 2.427734,0 3.738281,1.41797 1.321289,1.41797 1.321289,4.02832 z m -1.96582,-1.54687 q -0.01074,-1.58985 -0.805664,-2.45997 -0.78418,-0.87011 -2.395508,-0.87011 -1.622071,0 -2.588867,0.95605 -0.956055,0.95606 -1.084961,2.37403 z"
     id="path166" /><path
     d="m 66.18457,240 h -2.019531 v -1.25684 q -0.870117,0.75196 -1.81543,1.1709 -0.945312,0.41895 -2.051757,0.41895 -2.148438,0 -3.416016,-1.6543 -1.256836,-1.6543 -1.256836,-4.58691 0,-1.52539 0.429687,-2.71778 0.44043,-1.19238 1.181641,-2.03027 0.730469,-0.81641 1.697266,-1.24609 0.977539,-0.42969 2.019531,-0.42969 0.945312,0 1.675781,0.2041 0.730469,0.19336 1.536133,0.6123 v -5.19921 h 2.019531 z m -2.019531,-2.9541 v -6.88574 q -0.816406,-0.36524 -1.460937,-0.50489 -0.644532,-0.13965 -1.407227,-0.13965 -1.697266,0 -2.642578,1.18165 -0.945313,1.18164 -0.945313,3.35156 0,2.13769 0.730469,3.25488 0.730469,1.10645 2.341797,1.10645 0.859375,0 1.740234,-0.37598 0.88086,-0.38672 1.643555,-0.98828 z"
     id="path168" /><path
     d="m 92.298828,240 h -2.126953 v -13.78223 l -4.447266,9.37793 h -1.267578 l -4.415039,-9.37793 V 240 h -1.987305 v -15.99512 h 2.900391 l 4.264649,8.90528 4.125,-8.90528 h 2.954101 z"
     id="path170" /><path
     d="m 106.5,234.20996 h -8.84082 q 0,1.10645 0.333007,1.93359 0.333008,0.81641 0.913086,1.34278 0.558594,0.51562 1.321287,0.77344 0.77344,0.25781 1.69727,0.25781 1.22461,0 2.45996,-0.4834 1.24609,-0.49414 1.77246,-0.9668 h 0.10742 v 2.20215 q -1.02051,0.42969 -2.08398,0.71973 -1.06348,0.29004 -2.23438,0.29004 -2.986326,0 -4.662107,-1.61133 -1.675781,-1.62207 -1.675781,-4.59766 0,-2.94336 1.600586,-4.67285 1.611328,-1.72949 4.232422,-1.72949 2.42773,0 3.73828,1.41797 1.32129,1.41797 1.32129,4.02832 z m -1.96582,-1.54687 q -0.0107,-1.58985 -0.80566,-2.45997 -0.78418,-0.87011 -2.39551,-0.87011 -1.622073,0 -2.588869,0.95605 -0.956055,0.95606 -1.084961,2.37403 z"
     id="path172" /><path
     d="m 127.07129,240 h -2.01953 v -6.83203 q 0,-0.77344 -0.0752,-1.49317 -0.0645,-0.71972 -0.29004,-1.14941 -0.24707,-0.46191 -0.70898,-0.69824 -0.46191,-0.23633 -1.33203,-0.23633 -0.84863,0 -1.69727,0.42969 -0.84863,0.41894 -1.69726,1.07422 0.0322,0.24707 0.0537,0.58007 0.0215,0.32227 0.0215,0.64454 V 240 h -2.01953 v -6.83203 q 0,-0.79492 -0.0752,-1.50391 -0.0645,-0.71972 -0.29004,-1.14941 -0.24707,-0.46192 -0.70899,-0.6875 -0.46191,-0.23633 -1.33203,-0.23633 -0.82715,0 -1.66504,0.4082 -0.82715,0.40821 -1.6543,1.042 V 240 h -2.01953 v -11.99902 h 2.01953 v 1.33203 q 0.94532,-0.78418 1.87989,-1.22461 0.94531,-0.44043 2.00879,-0.44043 1.22461,0 2.07324,0.51562 0.85937,0.51563 1.27832,1.42871 1.22461,-1.03125 2.23437,-1.48242 1.00977,-0.46191 2.15918,-0.46191 1.97657,0 2.91114,1.20312 0.94531,1.19239 0.94531,3.34082 z"
     id="path174" /><path
     d="m 141.18652,234.00586 q 0,2.93262 -1.5039,4.62988 -1.50391,1.69727 -4.02832,1.69727 -2.5459,0 -4.04981,-1.69727 -1.49316,-1.69726 -1.49316,-4.62988 0,-2.93262 1.49316,-4.62988 1.50391,-1.70801 4.04981,-1.70801 2.52441,0 4.02832,1.70801 1.5039,1.69726 1.5039,4.62988 z m -2.08398,0 q 0,-2.33106 -0.91309,-3.45899 -0.91308,-1.13867 -2.53515,-1.13867 -1.64356,0 -2.55664,1.13867 -0.90235,1.12793 -0.90235,3.45899 0,2.25586 0.91309,3.42676 0.91308,1.16015 2.5459,1.16015 1.61132,0 2.52441,-1.14941 0.92383,-1.16016 0.92383,-3.4375 z"
     id="path176" /><path
     d="m 151.81055,230.20312 h -0.10743 q -0.45117,-0.10742 -0.88085,-0.15039 -0.41895,-0.0537 -0.99903,-0.0537 -0.93457,0 -1.80469,0.41895 -0.87011,0.4082 -1.67578,1.06348 V 240 h -2.01953 v -11.99902 h 2.01953 v 1.77246 q 1.20313,-0.9668 2.11621,-1.36426 0.92383,-0.4082 1.87989,-0.4082 0.52636,0 0.76269,0.0322 0.23633,0.0215 0.70899,0.0967 z"
     id="path178" /><path
     d="m 164.11035,228.00098 -7.0039,16.4248 h -2.15918 l 2.23437,-5.00586 -4.78027,-11.41894 h 2.1914 l 3.68457,8.89453 3.7168,-8.89453 z"
     id="path180" /><path
     d="m 187.00195,238.83984 q -0.59082,0.25782 -1.07422,0.4834 -0.47265,0.22559 -1.24609,0.47266 -0.65527,0.2041 -1.42871,0.34375 -0.7627,0.15039 -1.68652,0.15039 -1.74024,0 -3.16895,-0.4834 -1.41797,-0.49414 -2.4707,-1.53613 -1.03125,-1.02051 -1.61133,-2.58887 -0.58008,-1.5791 -0.58008,-3.66309 0,-1.97656 0.5586,-3.53418 0.55859,-1.55761 1.61132,-2.63183 1.02051,-1.04199 2.45996,-1.58984 1.4502,-0.54786 3.21192,-0.54786 1.28906,0 2.56738,0.31153 1.28906,0.31152 2.85742,1.0957 v 2.52441 h -0.16113 q -1.32129,-1.10644 -2.62109,-1.61132 -1.29981,-0.50489 -2.78223,-0.50489 -1.21387,0 -2.19141,0.39746 -0.96679,0.38672 -1.72949,1.21387 -0.74121,0.80567 -1.16015,2.04102 -0.40821,1.22461 -0.40821,2.83593 0,1.68653 0.45117,2.9004 0.46192,1.21386 1.18164,1.97656 0.75196,0.79492 1.75098,1.18164 1.00977,0.37597 2.12695,0.37597 1.53614,0 2.87891,-0.52636 1.34277,-0.52637 2.51367,-1.5791 h 0.15039 z"
     id="path182" /><path
     d="m 200.09668,234.00586 q 0,2.93262 -1.50391,4.62988 -1.5039,1.69727 -4.02832,1.69727 -2.5459,0 -4.0498,-1.69727 -1.49317,-1.69726 -1.49317,-4.62988 0,-2.93262 1.49317,-4.62988 1.5039,-1.70801 4.0498,-1.70801 2.52442,0 4.02832,1.70801 1.50391,1.69726 1.50391,4.62988 z m -2.08398,0 q 0,-2.33106 -0.91309,-3.45899 -0.91309,-1.13867 -2.53516,-1.13867 -1.64355,0 -2.55664,1.13867 -0.90234,1.12793 -0.90234,3.45899 0,2.25586 0.91308,3.42676 0.91309,1.16015 2.5459,1.16015 1.61133,0 2.52442,-1.14941 0.92383,-1.16016 0.92383,-3.4375 z"
     id="path184" /><path
     d="m 220.74316,240 h -2.01953 v -6.83203 q 0,-0.77344 -0.0752,-1.49317 -0.0645,-0.71972 -0.29004,-1.14941 -0.24707,-0.46191 -0.70899,-0.69824 -0.46191,-0.23633 -1.33203,-0.23633 -0.84863,0 -1.69726,0.42969 -0.84864,0.41894 -1.69727,1.07422 0.0322,0.24707 0.0537,0.58007 0.0215,0.32227 0.0215,0.64454 V 240 h -2.01953 v -6.83203 q 0,-0.79492 -0.0752,-1.50391 -0.0645,-0.71972 -0.29004,-1.14941 -0.24707,-0.46192 -0.70898,-0.6875 -0.46192,-0.23633 -1.33203,-0.23633 -0.82715,0 -1.66504,0.4082 -0.82715,0.40821 -1.6543,1.042 V 240 h -2.01953 v -11.99902 h 2.01953 v 1.33203 q 0.94531,-0.78418 1.87988,-1.22461 0.94531,-0.44043 2.00879,-0.44043 1.22461,0 2.07324,0.51562 0.85938,0.51563 1.27832,1.42871 1.22461,-1.03125 2.23438,-1.48242 1.00976,-0.46191 2.15918,-0.46191 1.97656,0 2.91113,1.20312 0.94531,1.19239 0.94531,3.34082 z"
     id="path186" /><path
     d="m 242.1416,240 h -2.01953 v -6.83203 q 0,-0.77344 -0.0752,-1.49317 -0.0645,-0.71972 -0.29003,-1.14941 -0.24707,-0.46191 -0.70899,-0.69824 -0.46191,-0.23633 -1.33203,-0.23633 -0.84863,0 -1.69727,0.42969 -0.84863,0.41894 -1.69726,1.07422 0.0322,0.24707 0.0537,0.58007 0.0215,0.32227 0.0215,0.64454 V 240 h -2.01953 v -6.83203 q 0,-0.79492 -0.0752,-1.50391 -0.0645,-0.71972 -0.29004,-1.14941 -0.24707,-0.46192 -0.70899,-0.6875 -0.46191,-0.23633 -1.33203,-0.23633 -0.82715,0 -1.66504,0.4082 -0.82714,0.40821 -1.65429,1.042 V 240 h -2.01953 v -11.99902 h 2.01953 v 1.33203 q 0.94531,-0.78418 1.87988,-1.22461 0.94531,-0.44043 2.00879,-0.44043 1.22461,0 2.07324,0.51562 0.85938,0.51563 1.27832,1.42871 1.22461,-1.03125 2.23438,-1.48242 1.00976,-0.46191 2.15918,-0.46191 1.97656,0 2.91113,1.20312 0.94531,1.19239 0.94531,3.34082 z"
     id="path188" /><path
     d="m 255.97754,240 h -2.01953 v -1.33203 q -1.02051,0.80566 -1.95508,1.23535 -0.93457,0.42969 -2.0625,0.42969 -1.89063,0 -2.94336,-1.14942 -1.05273,-1.16015 -1.05273,-3.39453 v -7.78808 h 2.01953 v 6.83203 q 0,0.91308 0.0859,1.56836 0.0859,0.64453 0.36524,1.10644 0.29004,0.47266 0.75195,0.6875 0.46192,0.21485 1.34278,0.21485 0.78418,0 1.708,-0.40821 0.93457,-0.4082 1.74024,-1.04199 v -8.95898 h 2.01953 z"
     id="path190" /><path
     d="m 269.98535,240 h -2.01953 v -6.83203 q 0,-0.82715 -0.0967,-1.54688 -0.0967,-0.73047 -0.35449,-1.13867 -0.26856,-0.45117 -0.77344,-0.66601 -0.50488,-0.22559 -1.31055,-0.22559 -0.82714,0 -1.72949,0.4082 -0.90234,0.40821 -1.72949,1.042 V 240 h -2.01953 v -11.99902 h 2.01953 v 1.33203 q 0.94531,-0.78418 1.95508,-1.22461 1.00976,-0.44043 2.07324,-0.44043 1.94434,0 2.96484,1.1709 1.02051,1.1709 1.02051,3.37304 z"
     id="path192" /><path
     d="m 276.04395,225.99219 h -2.27735 v -2.09473 h 2.27735 z M 275.91504,240 h -2.01953 v -11.99902 h 2.01953 z"
     id="path194" /><path
     d="m 288.80566,239.24805 q -1.00976,0.4834 -1.92285,0.75195 -0.90234,0.26855 -1.92285,0.26855 -1.2998,0 -2.38476,-0.37597 -1.08497,-0.38672 -1.8584,-1.16016 -0.78418,-0.77344 -1.21387,-1.95508 -0.42969,-1.18164 -0.42969,-2.76074 0,-2.94336 1.61133,-4.61914 1.62207,-1.67578 4.27539,-1.67578 1.03125,0 2.01953,0.29004 0.99903,0.29004 1.82617,0.70898 v 2.24512 h -0.10742 q -0.92383,-0.71973 -1.91211,-1.10645 -0.97754,-0.38671 -1.91211,-0.38671 -1.71875,0 -2.71777,1.16015 -0.98828,1.14942 -0.98828,3.38379 0,2.16992 0.9668,3.34082 0.97753,1.16016 2.73925,1.16016 0.61231,0 1.2461,-0.16113 0.63379,-0.16114 1.13867,-0.41895 0.44043,-0.22559 0.82715,-0.47266 0.38672,-0.25781 0.6123,-0.44043 h 0.10742 z"
     id="path196" /><path
     d="m 300.72949,240 h -2.00879 v -1.27832 q -0.26855,0.18262 -0.73047,0.51562 -0.45117,0.32227 -0.88086,0.51563 -0.50488,0.24707 -1.16015,0.4082 -0.65527,0.17188 -1.53613,0.17188 -1.62207,0 -2.75,-1.07422 -1.12793,-1.07422 -1.12793,-2.73926 0,-1.36426 0.58007,-2.20215 0.59082,-0.84863 1.67579,-1.33203 1.0957,-0.4834 2.63183,-0.65527 1.53613,-0.17188 3.29785,-0.25781 v -0.31153 q 0,-0.6875 -0.24707,-1.13867 -0.23633,-0.45117 -0.6875,-0.70898 -0.42968,-0.24707 -1.03125,-0.33301 -0.60156,-0.0859 -1.25683,-0.0859 -0.79493,0 -1.77246,0.21484 -0.97754,0.20411 -2.01954,0.60157 h -0.10742 v -2.05176 q 0.59082,-0.16113 1.70801,-0.35449 1.11719,-0.19336 2.20215,-0.19336 1.26758,0 2.20215,0.21484 0.94531,0.2041 1.63281,0.70899 0.67676,0.49414 1.03125,1.27832 0.35449,0.78418 0.35449,1.94433 z m -2.00879,-2.9541 v -3.34082 q -0.92383,0.0537 -2.18066,0.16113 -1.24609,0.10742 -1.97656,0.31152 -0.87012,0.24707 -1.40723,0.77344 -0.53711,0.51563 -0.53711,1.42871 0,1.03125 0.62305,1.55762 0.62304,0.51562 1.90136,0.51562 1.06348,0 1.94434,-0.4082 0.88086,-0.41894 1.63281,-0.99902 z"
     id="path198" /><path
     d="m 310.87012,239.89258 q -0.56934,0.15039 -1.2461,0.24707 -0.66601,0.0967 -1.19238,0.0967 -1.83691,0 -2.79297,-0.98828 -0.95605,-0.98828 -0.95605,-3.16895 v -6.38086 h -1.36426 v -1.69726 h 1.36426 v -3.44825 h 2.01953 v 3.44825 h 4.16797 v 1.69726 h -4.16797 v 5.46778 q 0,0.94531 0.043,1.48242 0.043,0.52636 0.30078,0.98828 0.23633,0.42969 0.64453,0.63379 0.41894,0.19336 1.26758,0.19336 0.49414,0 1.03125,-0.13965 0.53711,-0.15039 0.77344,-0.24707 h 0.10742 z"
     id="path200" /><path
     d="m 315.48926,225.99219 h -2.27735 v -2.09473 h 2.27735 z M 315.36035,240 h -2.01953 v -11.99902 h 2.01953 z"
     id="path202" /><path
     d="m 329.60449,234.00586 q 0,2.93262 -1.5039,4.62988 -1.50391,1.69727 -4.02832,1.69727 -2.5459,0 -4.04981,-1.69727 -1.49316,-1.69726 -1.49316,-4.62988 0,-2.93262 1.49316,-4.62988 1.50391,-1.70801 4.04981,-1.70801 2.52441,0 4.02832,1.70801 1.5039,1.69726 1.5039,4.62988 z m -2.08398,0 q 0,-2.33106 -0.91309,-3.45899 -0.91308,-1.13867 -2.53515,-1.13867 -1.64356,0 -2.55665,1.13867 -0.90234,1.12793 -0.90234,3.45899 0,2.25586 0.91309,3.42676 0.91308,1.16015 2.5459,1.16015 1.61132,0 2.52441,-1.14941 0.92383,-1.16016 0.92383,-3.4375 z"
     id="path204" /><path
     d="m 342.77441,240 h -2.01953 v -6.83203 q 0,-0.82715 -0.0967,-1.54688 -0.0967,-0.73047 -0.35449,-1.13867 -0.26855,-0.45117 -0.77344,-0.66601 -0.50488,-0.22559 -1.31054,-0.22559 -0.82715,0 -1.7295,0.4082 -0.90234,0.40821 -1.72949,1.042 V 240 h -2.01953 v -11.99902 h 2.01953 v 1.33203 q 0.94531,-0.78418 1.95508,-1.22461 1.00977,-0.44043 2.07324,-0.44043 1.94434,0 2.96485,1.1709 1.0205,1.1709 1.0205,3.37304 z"
     id="path206" /><path
     d="m 365.9668,225.89551 h -5.71485 V 240 H 358.125 v -14.10449 h -5.71484 v -1.89063 h 13.55664 z"
     id="path208" /><path
     d="m 378.20215,234.00586 q 0,2.93262 -1.50391,4.62988 -1.5039,1.69727 -4.02832,1.69727 -2.5459,0 -4.0498,-1.69727 -1.49317,-1.69726 -1.49317,-4.62988 0,-2.93262 1.49317,-4.62988 1.5039,-1.70801 4.0498,-1.70801 2.52442,0 4.02832,1.70801 1.50391,1.69726 1.50391,4.62988 z m -2.08399,0 q 0,-2.33106 -0.91308,-3.45899 -0.91309,-1.13867 -2.53516,-1.13867 -1.64355,0 -2.55664,1.13867 -0.90234,1.12793 -0.90234,3.45899 0,2.25586 0.91308,3.42676 0.91309,1.16015 2.5459,1.16015 1.61133,0 2.52442,-1.14941 0.92382,-1.16016 0.92382,-3.4375 z"
     id="path210" /><path
     d="m 391.56543,234.00586 q 0,2.93262 -1.50391,4.62988 -1.5039,1.69727 -4.02832,1.69727 -2.5459,0 -4.0498,-1.69727 -1.49317,-1.69726 -1.49317,-4.62988 0,-2.93262 1.49317,-4.62988 1.5039,-1.70801 4.0498,-1.70801 2.52442,0 4.02832,1.70801 1.50391,1.69726 1.50391,4.62988 z m -2.08398,0 q 0,-2.33106 -0.91309,-3.45899 -0.91309,-1.13867 -2.53516,-1.13867 -1.64355,0 -2.55664,1.13867 -0.90234,1.12793 -0.90234,3.45899 0,2.25586 0.91308,3.42676 0.91309,1.16015 2.5459,1.16015 1.61133,0 2.52442,-1.14941 0.92383,-1.16016 0.92383,-3.4375 z"
     id="path212" /><path
     d="m 396.74316,240 h -2.01953 v -16.71484 h 2.01953 z"
     id="path214" /><path
     d="m 409.33301,236.54102 q 0,1.64355 -1.36426,2.69628 -1.35352,1.05274 -3.70605,1.05274 -1.33204,0 -2.44922,-0.31152 -1.10645,-0.32227 -1.8584,-0.69825 v -2.2666 h 0.10742 q 0.95605,0.71973 2.12695,1.14942 1.1709,0.41894 2.24512,0.41894 1.33203,0 2.08398,-0.42969 0.75196,-0.42968 0.75196,-1.35351 0,-0.70899 -0.40821,-1.07422 -0.4082,-0.36524 -1.56835,-0.62305 -0.42969,-0.0967 -1.12793,-0.22558 -0.6875,-0.12891 -1.25684,-0.2793 -1.5791,-0.41895 -2.24512,-1.22461 -0.65527,-0.81641 -0.65527,-1.99805 0,-0.74121 0.30078,-1.39648 0.31152,-0.65527 0.93457,-1.1709 0.60156,-0.50488 1.52539,-0.79492 0.93457,-0.30078 2.08399,-0.30078 1.07421,0 2.16992,0.26855 1.10644,0.25781 1.83691,0.63379 v 2.15918 h -0.10742 q -0.77344,-0.56934 -1.87988,-0.95605 -1.10645,-0.39746 -2.16993,-0.39746 -1.10644,0 -1.86914,0.42968 -0.76269,0.41895 -0.76269,1.25684 0,0.74121 0.46191,1.11719 0.45117,0.37597 1.46094,0.6123 0.55859,0.12891 1.24609,0.25781 0.69825,0.12891 1.16016,0.23633 1.40723,0.32227 2.16992,1.10645 0.7627,0.79492 0.7627,2.10547 z"
     id="path216" /></g></svg>
