<?xml version="1.0" encoding="UTF-8" standalone="no"?>
<!-- Generator: Adobe Illustrator 23.0.1, SVG Export Plug-In . SVG Version: 6.00 Build 0) -->

<svg
   id="Layer_1"
   x="0px"
   y="0px"
   viewBox="0 0 400 300"
   style="enable-background:new 0 0 400 245;"
   xml:space="preserve"
   version="1.1"
   xmlns="http://www.w3.org/2000/svg"
   xmlns:svg="http://www.w3.org/2000/svg"><defs
   id="defs137" /> <style
   type="text/css"
   id="style2"> .st0{fill:#4C83C3;} </style> <g
   id="g130"> <path
   id="polygon4"
   class="st0"
   style="fill:#4c83c3"
   d="m 336.1,42.1 h 62.2 V 53.5 H 332 Z" /> <path
   class="st0"
   d="m 221.5,42.1 h 61.6 l 4,11.5 c 0,0 -65.6,0 -65.6,0 0.1,-0.1 0,-11.5 0,-11.5 z"
   id="path6" /> <path
   class="st0"
   d="m 172.7,42.1 c 10.1,1 19,4.6 26.5,11.5 0,0 -111.6,0 -111.6,0 0,0 0,-11.5 0,-11.5 z"
   id="path8" /> <g
   id="g14"> <path
   id="rect10"
   class="st0"
   style="fill:#4c83c3"
   d="m 0,42.099998 h 77.5 v 11.4 H 0 Z" /> <path
   class="st0"
   d="M 38.8,47.8"
   id="path12" /> </g> <path
   class="st0"
   d="m 398.3,75 h -73.9 c 0,0 4,-11.4 4,-11.4 h 69.9 z"
   id="path16" /> <path
   id="polygon18"
   class="st0"
   style="fill:#4c83c3"
   d="m 221.5,63.6 h 69.2 l 4.1,11.4 h -73.3 z" /> <path
   class="st0"
   d="m 207.8,63.6 c 1.5,3.8 3.2,7 3.2,11.4 H 87.6 V 63.6 Z"
   id="path20" /> <g
   id="g26"> <path
   id="rect22"
   class="st0"
   style="fill:#4c83c3"
   d="m 0,63.599998 h 77.5 v 11.4 H 0 Z" /> <path
   class="st0"
   d="M 38.8,69.3"
   id="path24" /> </g> <path
   id="polygon28"
   class="st0"
   style="fill:#4c83c3"
   d="m 376.4,85.1 v 11.4 h -59.6 l 4.1,-11.4 z" /> <path
   id="polygon30"
   class="st0"
   style="fill:#4c83c3"
   d="M 243.4,96.5 V 85.1 h 54.9 l 4.1,11.4 z" /> <path
   class="st0"
   d="m 212,85 c 0,3.9 -0.5,8 -1.6,11.4 H 176.6 V 85 Z"
   id="path32" /> <g
   id="g38"> <path
   id="rect34"
   class="st0"
   style="fill:#4c83c3"
   d="m 21.6,85.099998 h 33.3 v 11.4 H 21.6 Z" /> <path
   class="st0"
   d="M 38.3,90.8"
   id="path36" /> </g> <g
   id="g44"> <path
   id="rect40"
   class="st0"
   style="fill:#4c83c3"
   d="m 110,85 h 33.3 V 96.4 H 110 Z" /> <path
   class="st0"
   d="M 126.6,90.8"
   id="path42" /> </g> <path
   class="st0"
   d="m 276.1,108.8 c 0,0 0,8.7 0,8.7 h -32.8 v -11.4 h 62.4 l 3.9,10.6 c 0,0 3.7,-10.6 3.7,-10.6 h 62.9 v 11.4 h -32.6 c 0,0 0,-8.7 0,-8.7 l -3,8.7 H 279 Z"
   id="path46" /> <path
   class="st0"
   d="m 110,106.1 h 95.5 v 0 c -2.1,3.8 -5.9,8.4 -9.5,11.4 0,0 -86,0 -86,0 0,0 0,-11.4 0,-11.4 z"
   id="path48" /> <g
   id="g54"> <path
   id="rect50"
   class="st0"
   style="fill:#4c83c3"
   d="m 21.6,106.1 h 33.3 v 11.4 H 21.6 Z" /> <path
   class="st0"
   d="M 38.3,111.8"
   id="path52" /> </g> <g
   id="g60"> <path
   id="rect56"
   class="st0"
   style="fill:#4c83c3"
   d="m 343.79999,127.6 h 32.6 V 139 h -32.6 z" /> <path
   class="st0"
   d="M 360.1,133.3"
   id="path58" /> </g> <path
   class="st0"
   d="M 276.1,127.6 H 243.3 V 139 c 0,0 32.8,0 32.8,0 0,-0.1 0.1,-11.4 0,-11.4 z"
   id="path62" /> <path
   class="st0"
   d="m 337.2,127.6 c -0.1,0 -3.8,11.4 -4,11.4 h -46.4 c 0,0 -4.1,-11.4 -4.1,-11.4 z"
   id="path64" /> <path
   class="st0"
   d="m 110,127.6 h 85.8 c 3.9,3.3 7.5,7.3 10.2,11.4 0.2,0 -96.1,0 -96.1,0 0.1,-0.1 0.1,-11.4 0.1,-11.4 z"
   id="path66" /> <path
   class="st0"
   d="M 54.9,138.9 V 127.5 H 21.7 c 0,0 0,11.4 0,11.4 0,0 33.2,0 33.2,0 z"
   id="path68" /> <g
   id="g74"> <path
   id="rect70"
   class="st0"
   style="fill:#4c83c3"
   d="m 343.79999,149 h 32.6 v 11.4 h -32.6 z" /> <path
   class="st0"
   d="M 360.1,154.7"
   id="path72" /> </g> <g
   id="g80"> <path
   id="rect76"
   class="st0"
   style="fill:#4c83c3"
   d="m 243.39999,149 h 32.8 v 11.4 h -32.8 z" /> <path
   class="st0"
   d="M 259.8,154.7"
   id="path78" /> </g> <path
   class="st0"
   d="m 325.6,160.4 c 0,-0.1 4,-11.4 4.1,-11.4 h -39.5 c -0.1,0 4,11.4 4,11.4 0,0 31.4,0.1 31.4,0 z"
   id="path82" /> <path
   class="st0"
   d="m 110,160.4 c 0,0 0,-11.4 0,-11.4 h 33.8 c 0,0 0,11.4 0,11.4 -0.1,0 -33.8,0 -33.8,0 z"
   id="path84" /> <path
   class="st0"
   d="m 210.8,149 c 1.6,3.4 1.8,7.5 2.1,11.4 H 177.1 V 149 Z"
   id="path86" /> <g
   id="g92"> <path
   id="rect88"
   class="st0"
   style="fill:#4c83c3"
   d="M 21.700001,149 H 55 v 11.4 H 21.700001 Z" /> <path
   class="st0"
   d="M 38.3,154.7"
   id="path90" /> </g> <g
   id="g98"> <path
   id="rect94"
   class="st0"
   style="fill:#4c83c3"
   d="m 343.79999,170 h 54.5 v 11.4 h -54.5 z" /> <path
   class="st0"
   d="M 371,175.7"
   id="path96" /> </g> <g
   id="g104"> <path
   id="rect100"
   class="st0"
   style="fill:#4c83c3"
   d="m 221.5,170 h 54.6 v 11.4 h -54.6 z" /> <path
   class="st0"
   d="M 248.8,175.7"
   id="path102" /> </g> <path
   id="polygon106"
   class="st0"
   style="fill:#4c83c3"
   d="m 297.6,170 h 24.5 l -3.9,11.4 h -16.6 z" /> <path
   class="st0"
   d="m 0,170 v 11.4 h 77.5 c 0,0 0,-11.4 0,-11.4 0,0 -77.6,0 -77.5,0 z"
   id="path108" /> <path
   class="st0"
   d="m 211.5,170 c -0.8,3.8 -1.6,8.3 -4.3,11.4 h -1 H 87.6 V 170 Z"
   id="path110" /> <path
   id="polygon112"
   class="st0"
   style="fill:#4c83c3"
   d="m 305.3,191.5 h 9.4 l -4,11.4 h -1.5 z" /> <g
   id="g118"> <path
   id="rect114"
   class="st0"
   style="fill:#4c83c3"
   d="m 343.79999,191.5 h 54.5 v 11.4 h -54.5 z" /> <path
   class="st0"
   d="M 371,197.2"
   id="path116" /> </g> <path
   class="st0"
   d="m 87.6,202.9 v -11.4 c 0,0 111.9,0 112.2,0 -7.5,7.2 -17.8,11.2 -28.9,11.4 H 87.6"
   id="path120" /> <g
   id="g126"> <path
   id="rect122"
   class="st0"
   style="fill:#4c83c3"
   d="m 221.5,191.5 h 54.6 v 11.4 h -54.6 z" /> <path
   class="st0"
   d="M 248.8,197.2"
   id="path124" /> </g> <path
   class="st0"
   d="m 77.5,191.5 c 0,0 0,11.4 0,11.4 0,0 -77.4,0 -77.5,0 0,0 0,-11.4 0,-11.4 0,0 77.4,0.1 77.5,0 z"
   id="path128" /> </g> <g
   aria-label="snIPL"
   id="text132"
   style="font-size:22px;text-anchor:middle"><path
     d="m 180.45996,236.54102 q 0,1.64355 -1.36426,2.69628 -1.35351,1.05274 -3.70605,1.05274 -1.33203,0 -2.44922,-0.31152 -1.10645,-0.32227 -1.8584,-0.69825 v -2.2666 h 0.10742 q 0.95606,0.71973 2.12696,1.14942 1.17089,0.41894 2.24511,0.41894 1.33203,0 2.08399,-0.42969 0.75195,-0.42968 0.75195,-1.35351 0,-0.70899 -0.4082,-1.07422 -0.40821,-0.36524 -1.56836,-0.62305 -0.42969,-0.0967 -1.12793,-0.22558 -0.6875,-0.12891 -1.25684,-0.2793 -1.5791,-0.41895 -2.24511,-1.22461 -0.65528,-0.81641 -0.65528,-1.99805 0,-0.74121 0.30078,-1.39648 0.31153,-0.65527 0.93457,-1.1709 0.60157,-0.50488 1.52539,-0.79492 0.93457,-0.30078 2.08399,-0.30078 1.07422,0 2.16992,0.26855 1.10645,0.25781 1.83691,0.63379 v 2.15918 h -0.10742 q -0.77343,-0.56934 -1.87988,-0.95605 -1.10645,-0.39746 -2.16992,-0.39746 -1.10645,0 -1.86914,0.42968 -0.7627,0.41895 -0.7627,1.25684 0,0.74121 0.46192,1.11719 0.45117,0.37597 1.46093,0.6123 0.5586,0.12891 1.2461,0.25781 0.69824,0.12891 1.16015,0.23633 1.40723,0.32227 2.16993,1.10645 0.76269,0.79492 0.76269,2.10547 z"
     id="path158" /><path
     d="m 193.39355,240 h -2.01953 v -6.83203 q 0,-0.82715 -0.0967,-1.54688 -0.0967,-0.73047 -0.35449,-1.13867 -0.26855,-0.45117 -0.77344,-0.66601 -0.50488,-0.22559 -1.31054,-0.22559 -0.82715,0 -1.7295,0.4082 -0.90234,0.40821 -1.72949,1.042 V 240 h -2.01953 v -11.99902 h 2.01953 v 1.33203 q 0.94532,-0.78418 1.95508,-1.22461 1.00977,-0.44043 2.07324,-0.44043 1.94434,0 2.96485,1.1709 1.0205,1.1709 1.0205,3.37304 z"
     id="path160" /><path
     d="m 203.08301,240 h -6.31641 v -1.63281 h 2.09473 V 225.6377 h -2.09473 v -1.63282 h 6.31641 v 1.63282 h -2.09473 v 12.72949 h 2.09473 z"
     id="path162" /><path
     d="m 217.1875,228.83887 q 0,1.06347 -0.37598,1.97656 -0.36523,0.90234 -1.03125,1.56836 -0.82715,0.82715 -1.95507,1.24609 -1.12793,0.40821 -2.84668,0.40821 h -2.12696 V 240 h -2.12695 v -15.99512 h 4.33984 q 1.43946,0 2.43848,0.24707 0.99902,0.23633 1.77246,0.75196 0.91309,0.6123 1.40723,1.52539 0.50488,0.91308 0.50488,2.30957 z m -2.21289,0.0537 q 0,-0.82715 -0.29004,-1.43946 -0.29004,-0.6123 -0.88086,-0.99902 -0.51562,-0.33301 -1.18164,-0.47265 -0.65527,-0.1504 -1.66504,-0.1504 h -2.10547 v 6.39161 h 1.79395 q 1.28906,0 2.09472,-0.22559 0.80567,-0.23633 1.31055,-0.74121 0.50488,-0.51563 0.70899,-1.08496 0.21484,-0.56934 0.21484,-1.27832 z"
     id="path164" /><path
     d="m 230.12109,240 h -10.11914 v -15.99512 h 2.12696 v 14.10449 h 7.99218 z"
     id="path166" /></g></svg>
