<?xml version="1.0" encoding="UTF-8" standalone="no"?>
<!-- Generator: Adobe Illustrator 23.0.1, SVG Export Plug-In . SVG Version: 6.00 Build 0) -->

<svg
   id="Layer_1"
   x="0px"
   y="0px"
   viewBox="0 0 400 300"
   style="enable-background:new 0 0 400 245;"
   xml:space="preserve"
   version="1.1"
   xmlns="http://www.w3.org/2000/svg"
   xmlns:svg="http://www.w3.org/2000/svg"><defs
   id="defs137" /> <style
   type="text/css"
   id="style2"> .st0{fill:#4C83C3;} </style> <g
   id="g130"> <path
   id="polygon4"
   class="st0"
   style="fill:#4c83c3"
   d="m 336.1,42.1 h 62.2 V 53.5 H 332 Z" /> <path
   class="st0"
   d="m 221.5,42.1 h 61.6 l 4,11.5 c 0,0 -65.6,0 -65.6,0 0.1,-0.1 0,-11.5 0,-11.5 z"
   id="path6" /> <path
   class="st0"
   d="m 172.7,42.1 c 10.1,1 19,4.6 26.5,11.5 0,0 -111.6,0 -111.6,0 0,0 0,-11.5 0,-11.5 z"
   id="path8" /> <g
   id="g14"> <path
   id="rect10"
   class="st0"
   style="fill:#4c83c3"
   d="m 0,42.099998 h 77.5 v 11.4 H 0 Z" /> <path
   class="st0"
   d="M 38.8,47.8"
   id="path12" /> </g> <path
   class="st0"
   d="m 398.3,75 h -73.9 c 0,0 4,-11.4 4,-11.4 h 69.9 z"
   id="path16" /> <path
   id="polygon18"
   class="st0"
   style="fill:#4c83c3"
   d="m 221.5,63.6 h 69.2 l 4.1,11.4 h -73.3 z" /> <path
   class="st0"
   d="m 207.8,63.6 c 1.5,3.8 3.2,7 3.2,11.4 H 87.6 V 63.6 Z"
   id="path20" /> <g
   id="g26"> <path
   id="rect22"
   class="st0"
   style="fill:#4c83c3"
   d="m 0,63.599998 h 77.5 v 11.4 H 0 Z" /> <path
   class="st0"
   d="M 38.8,69.3"
   id="path24" /> </g> <path
   id="polygon28"
   class="st0"
   style="fill:#4c83c3"
   d="m 376.4,85.1 v 11.4 h -59.6 l 4.1,-11.4 z" /> <path
   id="polygon30"
   class="st0"
   style="fill:#4c83c3"
   d="M 243.4,96.5 V 85.1 h 54.9 l 4.1,11.4 z" /> <path
   class="st0"
   d="m 212,85 c 0,3.9 -0.5,8 -1.6,11.4 H 176.6 V 85 Z"
   id="path32" /> <g
   id="g38"> <path
   id="rect34"
   class="st0"
   style="fill:#4c83c3"
   d="m 21.6,85.099998 h 33.3 v 11.4 H 21.6 Z" /> <path
   class="st0"
   d="M 38.3,90.8"
   id="path36" /> </g> <g
   id="g44"> <path
   id="rect40"
   class="st0"
   style="fill:#4c83c3"
   d="m 110,85 h 33.3 V 96.4 H 110 Z" /> <path
   class="st0"
   d="M 126.6,90.8"
   id="path42" /> </g> <path
   class="st0"
   d="m 276.1,108.8 c 0,0 0,8.7 0,8.7 h -32.8 v -11.4 h 62.4 l 3.9,10.6 c 0,0 3.7,-10.6 3.7,-10.6 h 62.9 v 11.4 h -32.6 c 0,0 0,-8.7 0,-8.7 l -3,8.7 H 279 Z"
   id="path46" /> <path
   class="st0"
   d="m 110,106.1 h 95.5 v 0 c -2.1,3.8 -5.9,8.4 -9.5,11.4 0,0 -86,0 -86,0 0,0 0,-11.4 0,-11.4 z"
   id="path48" /> <g
   id="g54"> <path
   id="rect50"
   class="st0"
   style="fill:#4c83c3"
   d="m 21.6,106.1 h 33.3 v 11.4 H 21.6 Z" /> <path
   class="st0"
   d="M 38.3,111.8"
   id="path52" /> </g> <g
   id="g60"> <path
   id="rect56"
   class="st0"
   style="fill:#4c83c3"
   d="m 343.79999,127.6 h 32.6 V 139 h -32.6 z" /> <path
   class="st0"
   d="M 360.1,133.3"
   id="path58" /> </g> <path
   class="st0"
   d="M 276.1,127.6 H 243.3 V 139 c 0,0 32.8,0 32.8,0 0,-0.1 0.1,-11.4 0,-11.4 z"
   id="path62" /> <path
   class="st0"
   d="m 337.2,127.6 c -0.1,0 -3.8,11.4 -4,11.4 h -46.4 c 0,0 -4.1,-11.4 -4.1,-11.4 z"
   id="path64" /> <path
   class="st0"
   d="m 110,127.6 h 85.8 c 3.9,3.3 7.5,7.3 10.2,11.4 0.2,0 -96.1,0 -96.1,0 0.1,-0.1 0.1,-11.4 0.1,-11.4 z"
   id="path66" /> <path
   class="st0"
   d="M 54.9,138.9 V 127.5 H 21.7 c 0,0 0,11.4 0,11.4 0,0 33.2,0 33.2,0 z"
   id="path68" /> <g
   id="g74"> <path
   id="rect70"
   class="st0"
   style="fill:#4c83c3"
   d="m 343.79999,149 h 32.6 v 11.4 h -32.6 z" /> <path
   class="st0"
   d="M 360.1,154.7"
   id="path72" /> </g> <g
   id="g80"> <path
   id="rect76"
   class="st0"
   style="fill:#4c83c3"
   d="m 243.39999,149 h 32.8 v 11.4 h -32.8 z" /> <path
   class="st0"
   d="M 259.8,154.7"
   id="path78" /> </g> <path
   class="st0"
   d="m 325.6,160.4 c 0,-0.1 4,-11.4 4.1,-11.4 h -39.5 c -0.1,0 4,11.4 4,11.4 0,0 31.4,0.1 31.4,0 z"
   id="path82" /> <path
   class="st0"
   d="m 110,160.4 c 0,0 0,-11.4 0,-11.4 h 33.8 c 0,0 0,11.4 0,11.4 -0.1,0 -33.8,0 -33.8,0 z"
   id="path84" /> <path
   class="st0"
   d="m 210.8,149 c 1.6,3.4 1.8,7.5 2.1,11.4 H 177.1 V 149 Z"
   id="path86" /> <g
   id="g92"> <path
   id="rect88"
   class="st0"
   style="fill:#4c83c3"
   d="M 21.700001,149 H 55 v 11.4 H 21.700001 Z" /> <path
   class="st0"
   d="M 38.3,154.7"
   id="path90" /> </g> <g
   id="g98"> <path
   id="rect94"
   class="st0"
   style="fill:#4c83c3"
   d="m 343.79999,170 h 54.5 v 11.4 h -54.5 z" /> <path
   class="st0"
   d="M 371,175.7"
   id="path96" /> </g> <g
   id="g104"> <path
   id="rect100"
   class="st0"
   style="fill:#4c83c3"
   d="m 221.5,170 h 54.6 v 11.4 h -54.6 z" /> <path
   class="st0"
   d="M 248.8,175.7"
   id="path102" /> </g> <path
   id="polygon106"
   class="st0"
   style="fill:#4c83c3"
   d="m 297.6,170 h 24.5 l -3.9,11.4 h -16.6 z" /> <path
   class="st0"
   d="m 0,170 v 11.4 h 77.5 c 0,0 0,-11.4 0,-11.4 0,0 -77.6,0 -77.5,0 z"
   id="path108" /> <path
   class="st0"
   d="m 211.5,170 c -0.8,3.8 -1.6,8.3 -4.3,11.4 h -1 H 87.6 V 170 Z"
   id="path110" /> <path
   id="polygon112"
   class="st0"
   style="fill:#4c83c3"
   d="m 305.3,191.5 h 9.4 l -4,11.4 h -1.5 z" /> <g
   id="g118"> <path
   id="rect114"
   class="st0"
   style="fill:#4c83c3"
   d="m 343.79999,191.5 h 54.5 v 11.4 h -54.5 z" /> <path
   class="st0"
   d="M 371,197.2"
   id="path116" /> </g> <path
   class="st0"
   d="m 87.6,202.9 v -11.4 c 0,0 111.9,0 112.2,0 -7.5,7.2 -17.8,11.2 -28.9,11.4 H 87.6"
   id="path120" /> <g
   id="g126"> <path
   id="rect122"
   class="st0"
   style="fill:#4c83c3"
   d="m 221.5,191.5 h 54.6 v 11.4 h -54.6 z" /> <path
   class="st0"
   d="M 248.8,197.2"
   id="path124" /> </g> <path
   class="st0"
   d="m 77.5,191.5 c 0,0 0,11.4 0,11.4 0,0 -77.4,0 -77.5,0 0,0 0,-11.4 0,-11.4 0,0 77.4,0.1 77.5,0 z"
   id="path128" /> </g> <g
   aria-label="source VIPA"
   id="text132"
   style="font-size:16px;text-anchor:middle"><path
     d="m 159.27344,237.48437 q 0,1.19532 -0.99219,1.96094 -0.98438,0.76563 -2.69531,0.76563 -0.96875,0 -1.78125,-0.22657 Q 153,239.75 152.45312,239.47656 v -1.64844 h 0.0781 q 0.69531,0.52344 1.54687,0.83594 0.85157,0.30469 1.63282,0.30469 0.96875,0 1.51562,-0.3125 0.54688,-0.3125 0.54688,-0.98438 0,-0.51562 -0.29688,-0.78125 -0.29687,-0.26562 -1.14062,-0.45312 -0.3125,-0.0703 -0.82032,-0.16406 -0.5,-0.0937 -0.91406,-0.20313 -1.14844,-0.30469 -1.63281,-0.89062 -0.47656,-0.59375 -0.47656,-1.45313 0,-0.53906 0.21875,-1.01562 0.22656,-0.47657 0.67968,-0.85157 0.4375,-0.36718 1.10938,-0.57812 0.67969,-0.21875 1.51562,-0.21875 0.78125,0 1.57813,0.19531 0.80469,0.1875 1.33594,0.46094 v 1.57031 h -0.0781 q -0.5625,-0.41406 -1.36719,-0.69531 -0.80468,-0.28906 -1.57812,-0.28906 -0.80469,0 -1.35938,0.3125 -0.55468,0.30468 -0.55468,0.91406 0,0.53906 0.33593,0.8125 0.32813,0.27344 1.0625,0.44531 0.40625,0.0937 0.90625,0.1875 0.50782,0.0937 0.84375,0.17188 1.02344,0.23437 1.57813,0.80468 0.55469,0.57813 0.55469,1.53125 z"
     id="path158" /><path
     d="m 168.82031,235.64062 q 0,2.13282 -1.09375,3.36719 -1.09375,1.23438 -2.92969,1.23438 -1.85156,0 -2.94531,-1.23438 -1.08594,-1.23437 -1.08594,-3.36719 0,-2.13281 1.08594,-3.36718 1.09375,-1.24219 2.94531,-1.24219 1.83594,0 2.92969,1.24219 1.09375,1.23437 1.09375,3.36718 z m -1.51562,0 q 0,-1.69531 -0.66407,-2.51562 -0.66406,-0.82813 -1.84375,-0.82813 -1.19531,0 -1.85937,0.82813 -0.65625,0.82031 -0.65625,2.51562 0,1.64063 0.66406,2.49219 0.66406,0.84375 1.85156,0.84375 1.17188,0 1.83594,-0.83594 0.67188,-0.84375 0.67188,-2.5 z"
     id="path160" /><path
     d="m 178.33594,240 h -1.46875 v -0.96875 q -0.74219,0.58594 -1.42188,0.89844 -0.67969,0.3125 -1.5,0.3125 -1.375,0 -2.14062,-0.83594 -0.76563,-0.84375 -0.76563,-2.46875 v -5.66406 h 1.46875 v 4.96875 q 0,0.66406 0.0625,1.14062 0.0625,0.46875 0.26563,0.80469 0.21093,0.34375 0.54687,0.5 0.33594,0.15625 0.97656,0.15625 0.57032,0 1.24219,-0.29688 0.67969,-0.29687 1.26563,-0.75781 v -6.51562 h 1.46875 z"
     id="path162" /><path
     d="m 186.67187,232.875 h -0.0781 q -0.32813,-0.0781 -0.64063,-0.10938 -0.30468,-0.0391 -0.72656,-0.0391 -0.67969,0 -1.3125,0.30469 -0.63281,0.29687 -1.21875,0.77344 V 240 h -1.46875 v -8.72656 h 1.46875 v 1.28906 q 0.875,-0.70313 1.53906,-0.99219 0.67188,-0.29687 1.36719,-0.29687 0.38281,0 0.55469,0.0234 0.17187,0.0156 0.51562,0.0703 z"
     id="path164" /><path
     d="m 194.52344,239.45312 q -0.73438,0.35157 -1.39844,0.54688 -0.65625,0.19531 -1.39844,0.19531 -0.94531,0 -1.73437,-0.27344 -0.78907,-0.28125 -1.35157,-0.84375 -0.57031,-0.5625 -0.88281,-1.42187 -0.3125,-0.85938 -0.3125,-2.00781 0,-2.14063 1.17188,-3.35938 1.17968,-1.21875 3.10937,-1.21875 0.75,0 1.46875,0.21094 0.72656,0.21094 1.32813,0.51562 v 1.63282 h -0.0781 q -0.67187,-0.52344 -1.39062,-0.80469 -0.71094,-0.28125 -1.39063,-0.28125 -1.25,0 -1.97656,0.84375 -0.71875,0.83594 -0.71875,2.46094 0,1.57812 0.70312,2.42968 0.71094,0.84375 1.99219,0.84375 0.44531,0 0.90625,-0.11718 0.46094,-0.11719 0.82813,-0.30469 0.32031,-0.16406 0.60156,-0.34375 0.28125,-0.1875 0.44531,-0.32031 h 0.0781 z"
     id="path166" /><path
     d="m 203.71875,235.78906 h -6.42969 q 0,0.80469 0.24219,1.40625 0.24219,0.59375 0.66406,0.97656 0.40625,0.375 0.96094,0.5625 0.5625,0.1875 1.23437,0.1875 0.89063,0 1.78907,-0.35156 0.90625,-0.35937 1.28906,-0.70312 h 0.0781 v 1.60156 q -0.74218,0.3125 -1.51562,0.52344 -0.77344,0.21093 -1.625,0.21093 -2.17188,0 -3.39063,-1.17187 -1.21875,-1.17969 -1.21875,-3.34375 0,-2.14063 1.16407,-3.39844 1.17187,-1.25781 3.07812,-1.25781 1.76563,0 2.71875,1.03125 0.96094,1.03125 0.96094,2.92969 z m -1.42969,-1.125 q -0.008,-1.15625 -0.58594,-1.78906 -0.57031,-0.63281 -1.74218,-0.63281 -1.17969,0 -1.88282,0.69531 -0.69531,0.69531 -0.78906,1.72656 z"
     id="path168" /><path
     d="M 220.85937,228.36719 216.625,240 h -2.0625 l -4.23438,-11.63281 h 1.65625 l 3.64844,10.23437 3.64844,-10.23437 z"
     id="path170" /><path
     d="m 226.72656,240 h -4.59375 v -1.1875 h 1.52344 v -9.25781 h -1.52344 v -1.1875 h 4.59375 v 1.1875 h -1.52344 v 9.25781 h 1.52344 z"
     id="path172" /><path
     d="m 236.98437,231.88281 q 0,0.77344 -0.27343,1.4375 -0.26563,0.65625 -0.75,1.14063 -0.60157,0.60156 -1.42188,0.90625 -0.82031,0.29687 -2.07031,0.29687 h -1.54688 V 240 H 229.375 v -11.63281 h 3.15625 q 1.04687,0 1.77344,0.17968 0.72656,0.17188 1.28906,0.54688 0.66406,0.44531 1.02344,1.10937 0.36718,0.66407 0.36718,1.67969 z m -1.60937,0.0391 q 0,-0.60156 -0.21094,-1.04687 -0.21094,-0.44531 -0.64062,-0.72656 -0.375,-0.24219 -0.85938,-0.34375 -0.47656,-0.10938 -1.21094,-0.10938 h -1.53125 v 4.64844 h 1.30469 q 0.9375,0 1.52344,-0.16406 0.58594,-0.17188 0.95312,-0.53907 0.36719,-0.375 0.51563,-0.78906 0.15625,-0.41406 0.15625,-0.92969 z"
     id="path174" /><path
     d="m 248.20312,240 h -1.64843 l -1.14063,-3.24219 h -5.03125 L 239.24219,240 h -1.57032 l 4.23438,-11.63281 h 2.0625 z m -3.26562,-4.57031 -2.03906,-5.71094 -2.04688,5.71094 z"
     id="path176" /></g></svg>
