<?xml version="1.0" encoding="UTF-8" standalone="no"?>
<svg
   role="img"
   viewBox="-4.53 -4.53 239.436 51.749718"
   version="1.1"
   id="svg4"
   width="239.436"
   height="51.749718"
   xmlns:xlink="http://www.w3.org/1999/xlink"
   xmlns="http://www.w3.org/2000/svg"
   xmlns:svg="http://www.w3.org/2000/svg">
  <defs
     id="defs4" />
  <title
     id="title1">Broadcom Corporation logo</title>
  <path
     d="m 232.506,4.2980009 c -1.06,0 -1.93,-0.86 -1.93,-1.92 0,-1.06 0.87,-1.93000003 1.93,-1.93000003 1.06,0 1.93,0.87000003 1.93,1.93000003 0,1.06 -0.87,1.92 -1.93,1.92 m 0,-4.32000003 c -1.32,0 -2.4,1.08000003 -2.4,2.40000003 0,1.32 1.08,2.4 2.4,2.4 1.32,0 2.4,-1.08 2.4,-2.4 0,-1.32 -1.08,-2.40000003 -2.4,-2.40000003"
     id="path1" />
  <path
     d="m 232.666,2.2780009 -0.51,0.01 -0.01,-0.62 h 0.51 c 0.19,-0.01 0.34,0.11 0.34,0.3 0.01,0.19 -0.14,0.31 -0.33,0.31 m 0.83,-0.32 c -0.01,-0.42 -0.3,-0.72 -0.77,-0.72 l -1.07,0.02 0.03,2.26 h 0.49 l -0.01,-0.81 h 0.35 l 0.46,0.8 0.55,-0.01 -0.52,-0.86 c 0.24,-0.06 0.49,-0.28 0.49,-0.68 M 47.0201,18.388501 h -5.999 V 4.5545009 h 5.835 c 1.574,0 2.557,1.016 2.557,2.393 0,1.377 -0.983,2.36 -2.557,2.36 H 40.186 v 4.0000001 h 6.8341 c 1.836,0 2.819,1.18 2.819,2.556 0,1.574 -1.049,2.525 -2.819,2.525 m 3.376,-7.245 c 2.066,-0.426 3.771,-2.2620001 3.771,-5.0150001 0,-2.918 -2.131,-5.57300003 -6.295,-5.57300003 H 36.3661 V 22.420501 h 11.867 c 4.163,0 6.359,-2.623 6.359,-5.901 0,-2.754 -1.868,-5.015 -4.196,-5.376 m 17.8225,-0.5902 H 63.186 v 4.098 h 3.5576 l 4.294,7.769 h 5.343 l -4.917,-8.327 c 2.361,-0.557 4.786,-2.622 4.786,-6.4900001 m 0,0 c 0,-4.065 -2.786,-7.04800003 -7.343,-7.04800003 H 58.6786 V 22.420301 h 4.655 V 4.6533009 h 4.885 c 1.869,0 3.278,1.114 3.278,2.95 0,1.836 -1.409,2.9500001 -3.278,2.9500001 m 43.4206,4.0652 3.409,-9.4080001 3.41,9.4080001 z m 0.492,-14.06300013 -8.458,21.86500013 h 5.31 l 1.377,-3.704 h 9.376 l 1.344,3.704 h 5.311 L 117.9662,0.55550087 Z M 139.0351,18.322601 h -3.967 V 4.6526009 h 3.967 c 4.491,0 6.851,2.983 6.851,6.8520001 0,3.704 -2.524,6.818 -6.851,6.818 m 0,-17.76700013 h -8.622 V 22.420601 h 8.622 c 6.851,0 11.604,-4.327 11.604,-10.916 0,-6.5890001 -4.753,-10.94900013 -11.604,-10.94900013 m 82.1269,-0.0045 -5.734,9.27000003 -5.734,-9.27000003 h -5.146 V 22.420101 h 4.656 V 8.1271009 l 5.012,7.6220001 c 0.574,0.871 1.851,0.871 2.424,0 l 5.013,-7.6220001 V 22.420101 h 4.656 V 0.55110087 Z"
     id="path2" />
  <path
     id="a"
     d="m 91.0113,18.552101 c -3.871,0 -7.008,-3.138 -7.008,-7.008 0,-3.8710001 3.137,-7.0090001 7.008,-7.0090001 3.87,0 7.008,3.138 7.008,7.0090001 0,3.87 -3.138,7.008 -7.008,7.008 m 0,-18.53600013 c -6.367,0 -11.528,5.16100003 -11.528,11.52800013 0,6.366 5.161,11.527 11.528,11.527 6.366,0 11.528,-5.161 11.528,-11.527 0,-6.3670001 -5.162,-11.52800013 -11.528,-11.52800013" />
  <path
     d="m 171.5895,14.934901 c -1.195,2.156 -3.492,3.617 -6.132,3.617 -3.87,0 -7.008,-3.138 -7.008,-7.008 0,-3.8710001 3.138,-7.0080001 7.008,-7.0080001 2.618,0 4.897,1.438 6.1,3.565 l 3.27,-3.269 c -2.092,-2.915 -5.508,-4.81600003 -9.37,-4.81600003 -6.367,0 -11.527,5.16100003 -11.527,11.52800013 0,6.366 5.16,11.528 11.527,11.528 3.883,0 7.316,-1.922 9.404,-4.865 z"
     id="path3" />
  <use
     transform="translate(98.718)"
     xlink:href="#a"
     id="use3" />
  <ellipse
     cx="11.706"
     cy="11.705001"
     fill="#cc092f"
     rx="16.236"
     ry="16.235001"
     id="ellipse3" />
  <path
     fill="#ffffff"
     d="m 26.0113,16.091201 c -1.857,-0.74 -3.557,-0.492 -5.261,0.541 0,0 -0.621,0.379 -0.807,0.496 -0.794,0.498 -1.543,0.97 -2.263,0.97 -0.687,0 -1.363,-0.184 -1.649,-1.513 -0.446,-2.073 -1.534,-7.1670001 -2.009,-9.6900001 -0.279,-1.483 -0.432,-2.282 -0.591,-2.825 -0.28,-0.954 -0.792,-1.473 -1.519,-1.556 0,0 -0.114,-0.016 -0.207,-0.016 -0.092,0 -0.218,0.018 -0.218,0.018 -0.72,0.086 -1.229,0.605 -1.5070004,1.554 -0.159,0.543 -0.312,1.342 -0.591,2.825 -0.475,2.523 -1.563,7.6170001 -2.009,9.6900001 -0.286,1.329 -0.962,1.513 -1.649,1.513 -0.72,0 -1.469,-0.472 -2.263,-0.97 -0.186,-0.117 -0.808,-0.496 -0.808,-0.496 -1.703,-1.033 -3.404,-1.281 -5.26,-0.541 -0.401,0.16 -0.79596,0.33918 -1.17196,0.52018 0.257,0.806 0.57693,1.59925 0.94993,2.34425 0.411,-0.202 0.84203,-0.40243 1.28203,-0.53243 0.634,-0.187 1.284,-0.197 1.914,0.014 0.612,0.205 1.157,0.568 1.7,0.909 1.023,0.643 2.182,1.372 3.657,1.372 2.186,0 3.72,-1.305 4.21,-3.581 0.3800004,-1.764 1.2220004,-5.702 1.7630004,-8.4180001 0,0 1.386,6.6540001 1.765,8.4180001 0.49,2.276 2.025,3.581 4.211,3.581 1.475,0 2.634,-0.729 3.657,-1.372 0.543,-0.341 1.088,-0.704 1.7,-0.909 0.629,-0.211 1.28,-0.201 1.914,-0.014 0.44,0.13 0.87039,0.33065 1.28139,0.53265 0.374,-0.745 0.69309,-1.53862 0.95009,-2.34462 -0.376,-0.181 -0.77048,-0.36003 -1.17148,-0.52003"
     id="path4" />
  <path
     d="m 99.693657,43.132805 q 0,0.424805 -0.200195,0.839844 -0.195313,0.415039 -0.551758,0.703125 -0.390625,0.3125 -0.913086,0.488281 -0.517578,0.175781 -1.25,0.175781 -0.786133,0 -1.416016,-0.146484 -0.625,-0.146485 -1.274414,-0.434571 v -1.210937 h 0.06836 q 0.551757,0.458984 1.274414,0.708008 0.722656,0.249023 1.357421,0.249023 0.898438,0 1.396485,-0.336914 0.50293,-0.336914 0.50293,-0.898437 0,-0.483399 -0.239258,-0.712891 -0.234375,-0.229492 -0.717774,-0.356445 -0.366211,-0.09766 -0.795898,-0.161133 -0.424805,-0.06348 -0.90332,-0.161133 -0.966797,-0.205078 -1.435547,-0.698242 -0.463868,-0.498047 -0.463868,-1.293945 0,-0.913086 0.771485,-1.494141 0.771484,-0.585938 1.958008,-0.585938 0.766601,0 1.40625,0.146485 0.639648,0.146484 1.132812,0.361328 v 1.142578 h -0.06836 q -0.415039,-0.351562 -1.09375,-0.581055 -0.673828,-0.234375 -1.381836,-0.234375 -0.776367,0 -1.25,0.322266 -0.46875,0.322266 -0.46875,0.830078 0,0.454102 0.234375,0.712891 0.234375,0.258789 0.825195,0.395508 0.3125,0.06836 0.888672,0.166015 0.576172,0.09766 0.976563,0.200195 0.810546,0.214844 1.220703,0.649415 0.410156,0.43457 0.410156,1.21582 z m 6.049803,-3.378906 -3.18359,7.46582 h -0.98145 l 1.01563,-2.275391 -2.17285,-5.190429 h 0.99609 l 1.6748,4.042968 1.68946,-4.042968 z m 9.16016,5.454101 h -0.91797 v -3.105469 q 0,-0.351562 -0.0342,-0.678711 -0.0293,-0.327148 -0.13184,-0.52246 -0.1123,-0.209961 -0.32226,-0.317383 -0.20996,-0.107422 -0.60547,-0.107422 -0.38574,0 -0.77149,0.195312 -0.38574,0.19043 -0.77148,0.488282 0.0147,0.112304 0.0244,0.263671 0.01,0.146485 0.01,0.292969 V 45.208 h -0.91797 v -3.105469 q 0,-0.361328 -0.0342,-0.683593 -0.0293,-0.327149 -0.13183,-0.522461 -0.11231,-0.209961 -0.32227,-0.3125 -0.20996,-0.107422 -0.60547,-0.107422 -0.37598,0 -0.75683,0.185547 -0.37598,0.185547 -0.75196,0.473633 V 45.208 h -0.91797 v -5.454101 h 0.91797 v 0.605468 q 0.42969,-0.356445 0.85449,-0.55664 0.42969,-0.200196 0.91309,-0.200196 0.55664,0 0.94238,0.234375 0.39063,0.234375 0.58106,0.649414 0.55664,-0.46875 1.01562,-0.673828 0.45899,-0.209961 0.98145,-0.209961 0.89844,0 1.32324,0.546875 0.42969,0.541993 0.42969,1.518555 z m 7.9834,-3.62793 q 0,0.991211 -0.43457,1.796875 -0.42969,0.805665 -1.14746,1.25 -0.49805,0.307618 -1.11329,0.444336 -0.61035,0.136719 -1.61132,0.136719 h -1.83594 v -7.270508 h 1.8164 q 1.06446,0 1.68946,0.15625 0.62988,0.151368 1.06445,0.419922 0.74219,0.463867 1.15723,1.235352 0.41504,0.771484 0.41504,1.831054 z m -1.01075,-0.01465 q 0,-0.854492 -0.29785,-1.44043 -0.29785,-0.585937 -0.88867,-0.922851 -0.42969,-0.244141 -0.91309,-0.336914 -0.48339,-0.09766 -1.15722,-0.09766 h -0.9082 v 5.610352 h 0.9082 q 0.69824,0 1.21582,-0.102539 0.52246,-0.102539 0.95703,-0.380859 0.54199,-0.34668 0.81055,-0.913086 0.27343,-0.566407 0.27343,-1.416016 z m 7.02149,3.642578 h -0.91797 v -0.605469 q -0.46387,0.366211 -0.88867,0.561524 -0.42481,0.195312 -0.9375,0.195312 -0.85938,0 -1.33789,-0.522461 -0.47852,-0.527343 -0.47852,-1.542968 v -3.540039 h 0.91797 v 3.105468 q 0,0.415039 0.0391,0.712891 0.0391,0.292969 0.16602,0.50293 0.13183,0.214843 0.3418,0.3125 0.20996,0.09766 0.61035,0.09766 0.35644,0 0.77636,-0.185547 0.42481,-0.185547 0.79102,-0.473633 v -4.072265 h 0.91797 z m 9.76562,0 h -0.91797 v -3.105469 q 0,-0.351562 -0.0342,-0.678711 -0.0293,-0.327148 -0.13184,-0.52246 -0.11231,-0.209961 -0.32227,-0.317383 -0.20996,-0.107422 -0.60547,-0.107422 -0.38574,0 -0.77148,0.195312 -0.38574,0.19043 -0.77148,0.488282 0.0146,0.112304 0.0244,0.263671 0.01,0.146485 0.01,0.292969 V 45.208 h -0.91797 v -3.105469 q 0,-0.361328 -0.0342,-0.683593 -0.0293,-0.327149 -0.13184,-0.522461 -0.1123,-0.209961 -0.32226,-0.3125 -0.20997,-0.107422 -0.60547,-0.107422 -0.37598,0 -0.75684,0.185547 -0.37598,0.185547 -0.75195,0.473633 V 45.208 h -0.91797 v -5.454101 h 0.91797 v 0.605468 q 0.42969,-0.356445 0.85449,-0.55664 0.42969,-0.200196 0.91309,-0.200196 0.55664,0 0.94238,0.234375 0.39062,0.234375 0.58105,0.649414 0.55664,-0.46875 1.01563,-0.673828 0.45898,-0.209961 0.98144,-0.209961 0.89844,0 1.32325,0.546875 0.42968,0.541993 0.42968,1.518555 z m 6.56739,-2.792969 q 0,0.664063 -0.19043,1.215821 -0.19043,0.546875 -0.53711,0.927734 -0.32227,0.361328 -0.76172,0.561524 -0.43457,0.195312 -0.92285,0.195312 -0.42481,0 -0.77149,-0.09277 -0.34179,-0.09277 -0.69824,-0.288086 v 2.285156 h -0.91797 v -7.46582 h 0.91797 v 0.571289 q 0.36621,-0.307618 0.82031,-0.512696 0.45899,-0.209961 0.97657,-0.209961 0.98632,0 1.5332,0.747071 0.55176,0.742187 0.55176,2.065429 z m -0.94727,0.02441 q 0,-0.986328 -0.33691,-1.474609 -0.33692,-0.488281 -1.03516,-0.488281 -0.39551,0 -0.7959,0.170898 -0.40039,0.170899 -0.7666,0.449219 v 3.09082 q 0.39063,0.175782 0.66895,0.239258 0.2832,0.06348 0.63964,0.06348 0.76661,0 1.19629,-0.517578 0.42969,-0.517579 0.42969,-1.533204 z"
     id="text4"
     style="font-size:10px;text-anchor:middle"
     aria-label="SymDump" />
</svg>
