<?xml version="1.0" encoding="UTF-8" standalone="no"?>
<svg
   role="img"
   viewBox="-4.53 -4.53 248.82 41.82"
   version="1.1"
   id="svg4"
   xmlns:xlink="http://www.w3.org/1999/xlink"
   xmlns="http://www.w3.org/2000/svg"
   xmlns:svg="http://www.w3.org/2000/svg">
  <defs
     id="defs4" />
  <title
     id="title1">Broadcom Corporation logo</title>
  <path
     d="M237.32 9.09c-1.06 0-1.93-.86-1.93-1.92s.87-1.93 1.93-1.93 1.93.87 1.93 1.93-.87 1.92-1.93 1.92m0-4.32c-1.32 0-2.4 1.08-2.4 2.4 0 1.32 1.08 2.4 2.4 2.4 1.32 0 2.4-1.08 2.4-2.4 0-1.32-1.08-2.4-2.4-2.4"
     id="path1" />
  <path
     d="M237.48 7.07l-.51.01-.01-.62h.51c.19-.01.34.11.34.3.01.19-.14.31-.33.31m.83-.32c-.01-.42-.3-.72-.77-.72l-1.07.02.03 2.26h.49l-.01-.81h.35l.46.8.55-.01-.52-.86c.24-.06.49-.28.49-.68M51.8341 23.1805h-5.999V9.3465h5.835c1.574 0 2.557 1.016 2.557 2.393 0 1.377-.983 2.36-2.557 2.36H45v4h6.8341c1.836 0 2.819 1.18 2.819 2.556 0 1.574-1.049 2.525-2.819 2.525m3.376-7.245c2.066-.426 3.771-2.262 3.771-5.015 0-2.918-2.131-5.573-6.295-5.573h-11.506v21.865h11.867c4.163 0 6.359-2.623 6.359-5.901 0-2.754-1.868-5.015-4.196-5.376m17.8225-.5902H68v4.098h3.5576l4.294 7.769h5.343l-4.917-8.327c2.361-.557 4.786-2.622 4.786-6.49m0 0c0-4.065-2.786-7.048-7.343-7.048h-10.228v21.865h4.655V9.4453h4.885c1.869 0 3.278 1.114 3.278 2.95s-1.409 2.95-3.278 2.95m43.4206 4.0652l3.409-9.408 3.41 9.408zm.492-14.063l-8.458 21.865h5.31l1.377-3.704h9.376l1.344 3.704h5.311l-8.425-21.865zm26.9039 17.7671h-3.967v-13.67h3.967c4.491 0 6.851 2.983 6.851 6.852 0 3.704-2.524 6.818-6.851 6.818m0-17.767h-8.622v21.865h8.622c6.851 0 11.604-4.327 11.604-10.916s-4.753-10.949-11.604-10.949m82.1269-.0045l-5.734 9.27-5.734-9.27h-5.146v21.869h4.656v-14.293l5.012 7.622c.574.871 1.851.871 2.424 0l5.013-7.622v14.293h4.656V5.3431z"
     id="path2" />
  <path
     id="a"
     d="M95.8253 23.3441c-3.871 0-7.008-3.138-7.008-7.008 0-3.871 3.137-7.009 7.008-7.009 3.87 0 7.008 3.138 7.008 7.009 0 3.87-3.138 7.008-7.008 7.008m0-18.536c-6.367 0-11.528 5.161-11.528 11.528 0 6.366 5.161 11.527 11.528 11.527 6.366 0 11.528-5.161 11.528-11.527 0-6.367-5.162-11.528-11.528-11.528" />
  <path
     d="M176.4035 19.7269c-1.195 2.156-3.492 3.617-6.132 3.617-3.87 0-7.008-3.138-7.008-7.008 0-3.871 3.138-7.008 7.008-7.008 2.618 0 4.897 1.438 6.1 3.565l3.27-3.269c-2.092-2.915-5.508-4.816-9.37-4.816-6.367 0-11.527 5.161-11.527 11.528 0 6.366 5.16 11.528 11.527 11.528 3.883 0 7.316-1.922 9.404-4.865z"
     id="path3" />
  <use
     transform="translate(98.718)"
     xlink:href="#a"
     id="use3" />
  <ellipse
     cx="16.52"
     cy="16.497"
     fill="#cc092f"
     rx="16.236"
     ry="16.235"
     id="ellipse3" />
  <path
     fill="#fff"
     d="M30.8253 20.8832c-1.857-.74-3.557-.492-5.261.541 0 0-.621.379-.807.496-.794.498-1.543.97-2.263.97-.687 0-1.363-.184-1.649-1.513-.446-2.073-1.534-7.167-2.009-9.69-.279-1.483-.432-2.282-.591-2.825-.28-.954-.792-1.473-1.519-1.556 0 0-.114-.016-.207-.016-.092 0-.218.018-.218.018-.72.086-1.229.605-1.507 1.554-.159.543-.312 1.342-.591 2.825-.475 2.523-1.563 7.617-2.009 9.69-.286 1.329-.962 1.513-1.649 1.513-.72 0-1.469-.472-2.263-.97-.186-.117-.808-.496-.808-.496-1.703-1.033-3.404-1.281-5.26-.541-.401.16-.79596.33918-1.17196.52018.257.806.57693 1.59925.94993 2.34425.411-.202.84203-.40243 1.28203-.53243.634-.187 1.284-.197 1.914.014.612.205 1.157.568 1.7.909 1.023.643 2.182 1.372 3.657 1.372 2.186 0 3.72-1.305 4.21-3.581.38-1.764 1.222-5.702 1.763-8.418 0 0 1.386 6.654 1.765 8.418.49 2.276 2.025 3.581 4.211 3.581 1.475 0 2.634-.729 3.657-1.372.543-.341 1.088-.704 1.7-.909.629-.211 1.28-.201 1.914-.014.44.13.87039.33065 1.28139.53265.374-.745.69309-1.53862.95009-2.34462-.376-.181-.77048-.36003-1.17148-.52003"
     id="path4" />
  <path
     d="M 68.179535,42.729492 66.289886,50 H 65.201019 L 63.672699,43.964844 62.178558,50 h -1.064453 l -1.923828,-7.270508 h 0.991211 l 1.52832,6.044922 1.503907,-6.044922 h 0.981445 l 1.518555,6.103516 1.518554,-6.103516 z M 73.282074,50 h -0.913086 v -0.581055 q -0.12207,0.08301 -0.332031,0.234375 -0.205078,0.146485 -0.400391,0.234375 Q 71.407074,50 71.109222,50.073242 q -0.297851,0.07813 -0.698242,0.07813 -0.737304,0 -1.25,-0.488281 -0.512695,-0.488281 -0.512695,-1.245117 0,-0.620117 0.263672,-1.000977 0.268554,-0.385742 0.761719,-0.605469 0.498046,-0.219726 1.196289,-0.297851 0.698242,-0.07813 1.499023,-0.117188 v -0.141601 q 0,-0.3125 -0.112305,-0.517578 -0.107422,-0.205078 -0.3125,-0.322266 -0.195312,-0.112305 -0.46875,-0.151367 -0.273437,-0.03906 -0.571289,-0.03906 -0.361328,0 -0.805664,0.09766 -0.444336,0.09277 -0.917969,0.273437 h -0.04883 v -0.932617 q 0.268555,-0.07324 0.776368,-0.161133 0.507812,-0.08789 1.000976,-0.08789 0.576172,0 1.000977,0.09766 0.429687,0.09277 0.742187,0.322265 0.307617,0.22461 0.46875,0.581055 0.161133,0.356445 0.161133,0.883789 z m -0.913086,-1.342773 v -1.518555 q -0.419922,0.02441 -0.991211,0.07324 -0.566406,0.04883 -0.898437,0.141602 -0.395508,0.112304 -0.639649,0.351562 -0.24414,0.234375 -0.24414,0.649414 0,0.46875 0.283203,0.708008 0.283203,0.234375 0.864257,0.234375 0.483399,0 0.88379,-0.185547 0.40039,-0.19043 0.742187,-0.454101 z m 5.512695,1.293945 q -0.258789,0.06836 -0.566406,0.112305 -0.302734,0.04395 -0.541992,0.04395 -0.834961,0 -1.269531,-0.449219 -0.434571,-0.449219 -0.434571,-1.44043 v -2.90039 h -0.620117 v -0.771485 h 0.620117 v -1.567382 h 0.917969 v 1.567382 h 1.894531 v 0.771485 h -1.894531 v 2.485351 q 0,0.429688 0.01953,0.673828 0.01953,0.239258 0.136719,0.449219 0.107422,0.195313 0.292969,0.288086 0.19043,0.08789 0.576172,0.08789 0.224609,0 0.46875,-0.06348 0.24414,-0.06836 0.351562,-0.112304 h 0.04883 z m 5.141602,-0.292969 Q 82.564301,49.87793 82.149261,50 q -0.410156,0.12207 -0.874023,0.12207 -0.59082,0 -1.083984,-0.170898 -0.493164,-0.175781 -0.844727,-0.527344 -0.356445,-0.351562 -0.551758,-0.888672 -0.195312,-0.537109 -0.195312,-1.254883 0,-1.33789 0.732422,-2.099609 0.737304,-0.761719 1.943359,-0.761719 0.46875,0 0.917969,0.131836 0.454101,0.131836 0.830078,0.322266 v 1.020508 h -0.04883 q -0.419922,-0.327149 -0.869141,-0.50293 -0.444336,-0.175781 -0.86914,-0.175781 -0.78125,0 -1.235352,0.527343 -0.449219,0.522461 -0.449219,1.538086 0,0.986329 0.439453,1.518555 0.444336,0.527344 1.245118,0.527344 0.27832,0 0.566406,-0.07324 0.288086,-0.07324 0.517578,-0.19043 0.200195,-0.102539 0.375976,-0.214844 0.175782,-0.117187 0.278321,-0.200195 h 0.04883 z M 88.76059,50 h -0.917969 v -3.105469 q 0,-0.375976 -0.04394,-0.703125 -0.04395,-0.332031 -0.161133,-0.517578 -0.122071,-0.205078 -0.351563,-0.302734 -0.229492,-0.102539 -0.595703,-0.102539 -0.375976,0 -0.786133,0.185547 -0.410156,0.185546 -0.786133,0.473632 V 50 h -0.917968 v -7.597656 h 0.917968 v 2.749023 q 0.429688,-0.356445 0.888672,-0.55664 0.458985,-0.200196 0.942383,-0.200196 0.883789,0 1.347656,0.532227 0.463868,0.532226 0.463868,1.533203 z m 7.026367,-6.411133 H 93.189301 V 50 h -0.966797 v -6.411133 h -2.597657 v -0.859375 h 6.16211 z m 4.477543,3.686524 q 0,1.333007 -0.683598,2.104492 -0.683594,0.771484 -1.831055,0.771484 -1.157226,0 -1.84082,-0.771484 -0.678711,-0.771485 -0.678711,-2.104492 0,-1.333008 0.678711,-2.104493 0.683594,-0.776367 1.84082,-0.776367 1.147461,0 1.831055,0.776367 0.683598,0.771485 0.683598,2.104493 z m -0.94727,0 q 0,-1.059571 -0.415039,-1.572266 -0.415039,-0.517578 -1.152344,-0.517578 -0.74707,0 -1.162109,0.517578 -0.410156,0.512695 -0.410156,1.572266 0,1.02539 0.415039,1.557617 0.415039,0.527344 1.157226,0.527344 0.732422,0 1.147461,-0.522461 0.419922,-0.527344 0.419922,-1.5625 z M 108.54575,44.545898 107.12485,50 h -0.84961 L 104.87387,45.795898 103.48227,50 h -0.84473 L 101.202,44.545898 h 0.95703 l 1.00097,4.223633 1.36231,-4.223633 h 0.75683 l 1.39649,4.223633 0.94726,-4.223633 z m 5.88867,2.822266 h -4.01856 q 0,0.50293 0.15137,0.878906 0.15137,0.371094 0.41504,0.610352 0.25391,0.234375 0.60059,0.351562 0.35156,0.117188 0.77148,0.117188 0.55664,0 1.11816,-0.219727 0.56641,-0.224609 0.80567,-0.439453 h 0.0488 v 1.000977 q -0.46387,0.195312 -0.94727,0.327148 -0.4834,0.131836 -1.01562,0.131836 -1.35743,0 -2.11915,-0.732422 -0.76171,-0.737304 -0.76171,-2.089844 0,-1.33789 0.72753,-2.124023 0.73243,-0.786133 1.92383,-0.786133 1.10352,0 1.69922,0.644531 0.60059,0.644532 0.60059,1.831055 z m -0.89356,-0.703125 q -0.005,-0.722656 -0.36621,-1.118164 -0.35644,-0.395508 -1.08887,-0.395508 -0.7373,0 -1.17675,0.43457 -0.43457,0.434571 -0.49317,1.079102 z m 5.68848,-1.118164 h -0.0488 q -0.20508,-0.04883 -0.40039,-0.06836 -0.19043,-0.02441 -0.4541,-0.02441 -0.42481,0 -0.82031,0.190429 -0.39551,0.185547 -0.76172,0.483399 V 50 h -0.91797 v -5.454102 h 0.91797 v 0.805664 q 0.54687,-0.439453 0.96191,-0.620117 0.41992,-0.185547 0.85449,-0.185547 0.23926,0 0.34668,0.01465 0.10743,0.0098 0.32227,0.04395 z m 10.5957,0.825195 q 0,0.991211 -0.43457,1.796875 -0.42969,0.805664 -1.14746,1.25 -0.49805,0.307617 -1.11328,0.444336 Q 126.51938,50 125.5184,50 h -1.83594 v -7.270508 h 1.81641 q 1.06445,0 1.68945,0.15625 0.62989,0.151367 1.06446,0.419922 0.74218,0.463867 1.15722,1.235352 0.41504,0.771484 0.41504,1.831054 z m -1.01074,-0.01465 q 0,-0.854492 -0.29785,-1.44043 -0.29785,-0.585937 -0.88867,-0.922851 -0.42969,-0.244141 -0.91309,-0.336914 -0.4834,-0.09766 -1.15723,-0.09766 h -0.9082 v 5.610352 h 0.9082 q 0.69825,0 1.21582,-0.102539 0.52247,-0.102539 0.95704,-0.38086 0.54199,-0.346679 0.81054,-0.913086 0.27344,-0.566406 0.27344,-1.416015 z M 135.55258,50 h -0.91308 v -0.581055 q -0.12207,0.08301 -0.33204,0.234375 -0.20507,0.146485 -0.40039,0.234375 -0.22949,0.112305 -0.52734,0.185547 -0.29785,0.07813 -0.69824,0.07813 -0.73731,0 -1.25,-0.488281 -0.5127,-0.488281 -0.5127,-1.245117 0,-0.620117 0.26367,-1.000977 0.26856,-0.385742 0.76172,-0.605469 0.49805,-0.219726 1.19629,-0.297851 0.69824,-0.07813 1.49903,-0.117188 v -0.141601 q 0,-0.3125 -0.11231,-0.517578 -0.10742,-0.205078 -0.3125,-0.322266 -0.19531,-0.112305 -0.46875,-0.151367 -0.27344,-0.03906 -0.57129,-0.03906 -0.36133,0 -0.80566,0.09766 -0.44434,0.09277 -0.91797,0.273437 h -0.0488 v -0.932617 q 0.26856,-0.07324 0.77637,-0.161133 0.50781,-0.08789 1.00097,-0.08789 0.57618,0 1.00098,0.09766 0.42969,0.09277 0.74219,0.322265 0.30762,0.22461 0.46875,0.581055 0.16113,0.356445 0.16113,0.883789 z m -0.91308,-1.342773 v -1.518555 q -0.41993,0.02441 -0.99122,0.07324 -0.5664,0.04883 -0.89843,0.141602 -0.39551,0.112304 -0.63965,0.351562 -0.24414,0.234375 -0.24414,0.649414 0,0.46875 0.2832,0.708008 0.2832,0.234375 0.86426,0.234375 0.4834,0 0.88379,-0.185547 0.40039,-0.19043 0.74219,-0.454101 z m 5.51269,1.293945 q -0.25879,0.06836 -0.56641,0.112305 -0.30273,0.04395 -0.54199,0.04395 -0.83496,0 -1.26953,-0.449219 -0.43457,-0.449219 -0.43457,-1.44043 v -2.90039 h -0.62012 v -0.771485 h 0.62012 v -1.567382 h 0.91797 v 1.567382 h 1.89453 v 0.771485 h -1.89453 v 2.485351 q 0,0.429688 0.0195,0.673828 0.0195,0.239258 0.13672,0.449219 0.10742,0.195313 0.29297,0.288086 0.19043,0.08789 0.57617,0.08789 0.22461,0 0.46875,-0.06348 0.24414,-0.06836 0.35156,-0.112304 h 0.0488 z M 145.49887,50 h -0.91309 v -0.581055 q -0.12207,0.08301 -0.33203,0.234375 -0.20507,0.146485 -0.40039,0.234375 -0.22949,0.112305 -0.52734,0.185547 -0.29785,0.07813 -0.69824,0.07813 -0.73731,0 -1.25,-0.488281 -0.5127,-0.488281 -0.5127,-1.245117 0,-0.620117 0.26367,-1.000977 0.26856,-0.385742 0.76172,-0.605469 0.49805,-0.219726 1.19629,-0.297851 0.69824,-0.07813 1.49902,-0.117188 v -0.141601 q 0,-0.3125 -0.1123,-0.517578 -0.10742,-0.205078 -0.3125,-0.322266 -0.19531,-0.112305 -0.46875,-0.151367 -0.27344,-0.03906 -0.57129,-0.03906 -0.36133,0 -0.80566,0.09766 -0.44434,0.09277 -0.91797,0.273437 h -0.0488 v -0.932617 q 0.26855,-0.07324 0.77637,-0.161133 0.50781,-0.08789 1.00097,-0.08789 0.57618,0 1.00098,0.09766 0.42969,0.09277 0.74219,0.322265 0.30762,0.22461 0.46875,0.581055 0.16113,0.356445 0.16113,0.883789 z m -0.91309,-1.342773 v -1.518555 q -0.41992,0.02441 -0.99121,0.07324 -0.5664,0.04883 -0.89843,0.141602 -0.39551,0.112304 -0.63965,0.351562 -0.24414,0.234375 -0.24414,0.649414 0,0.46875 0.2832,0.708008 0.2832,0.234375 0.86426,0.234375 0.4834,0 0.88379,-0.185547 0.40039,-0.19043 0.74218,-0.454101 z M 153.41879,50 h -2.87109 v -0.742188 h 0.95215 V 43.47168 h -0.95215 v -0.742188 h 2.87109 v 0.742188 h -0.95215 v 5.786132 h 0.95215 z m 6.13282,0 h -0.91797 v -3.105469 q 0,-0.375976 -0.044,-0.703125 -0.0439,-0.332031 -0.16113,-0.517578 -0.12207,-0.205078 -0.35156,-0.302734 -0.2295,-0.102539 -0.59571,-0.102539 -0.37597,0 -0.78613,0.185547 -0.41016,0.185546 -0.78613,0.473632 V 50 h -0.91797 v -5.454102 h 0.91797 v 0.605469 q 0.42968,-0.356445 0.88867,-0.55664 0.45898,-0.200196 0.94238,-0.200196 0.88379,0 1.34766,0.532227 0.46387,0.532226 0.46387,1.533203 z m 5.66406,-1.572266 q 0,0.747071 -0.62012,1.225586 -0.61523,0.478516 -1.68457,0.478516 -0.60547,0 -1.11328,-0.141602 -0.50293,-0.146484 -0.84473,-0.317382 v -1.030274 h 0.0488 q 0.43457,0.327149 0.9668,0.522461 0.53222,0.19043 1.02051,0.19043 0.60546,0 0.94726,-0.195313 0.3418,-0.195312 0.3418,-0.615234 0,-0.322266 -0.18555,-0.488281 -0.18555,-0.166016 -0.71289,-0.283204 -0.19531,-0.04395 -0.5127,-0.102539 -0.3125,-0.05859 -0.57128,-0.126953 -0.71778,-0.190429 -1.02051,-0.55664 -0.29785,-0.371094 -0.29785,-0.908203 0,-0.336915 0.13672,-0.634766 0.1416,-0.297852 0.4248,-0.532227 0.27344,-0.229492 0.69336,-0.361328 0.4248,-0.136719 0.94726,-0.136719 0.48829,0 0.98633,0.122071 0.50293,0.117187 0.83496,0.288086 v 0.981445 h -0.0488 q -0.35157,-0.258789 -0.8545,-0.43457 -0.50293,-0.180664 -0.98632,-0.180664 -0.50293,0 -0.84961,0.195312 -0.34668,0.19043 -0.34668,0.571289 0,0.336914 0.20996,0.507813 0.20508,0.170898 0.66406,0.27832 0.25391,0.05859 0.56641,0.117188 0.31738,0.05859 0.52734,0.107421 0.63965,0.146485 0.98633,0.50293 0.34668,0.361328 0.34668,0.957031 z m 2.2998,-4.794922 h -1.03515 v -0.952148 h 1.03515 z M 167.45688,50 h -0.91797 v -5.454102 h 0.91797 z m 6.24023,-0.620117 q 0,1.386719 -0.62988,2.036133 -0.62988,0.649414 -1.93848,0.649414 -0.43457,0 -0.84961,-0.06348 -0.41015,-0.05859 -0.81054,-0.170898 v -0.9375 h 0.0488 q 0.2246,0.08789 0.71289,0.214843 0.48828,0.131836 0.97656,0.131836 0.46875,0 0.77637,-0.112304 0.30761,-0.112305 0.47851,-0.3125 0.1709,-0.19043 0.24414,-0.458985 0.0732,-0.268554 0.0732,-0.600586 v -0.498047 q -0.41503,0.332032 -0.79589,0.498047 -0.37598,0.161133 -0.96192,0.161133 -0.97656,0 -1.55273,-0.703125 -0.57129,-0.708008 -0.57129,-1.992187 0,-0.703125 0.19531,-1.210938 0.2002,-0.512695 0.54199,-0.883789 0.31739,-0.34668 0.77149,-0.537109 0.4541,-0.195313 0.90332,-0.195313 0.47363,0 0.79101,0.09766 0.32227,0.09277 0.67871,0.288086 l 0.0586,-0.234375 h 0.85937 z m -0.91797,-0.878906 v -2.973633 q -0.36621,-0.166016 -0.68359,-0.234375 -0.3125,-0.07324 -0.625,-0.07324 -0.75684,0 -1.19141,0.507812 -0.43457,0.507813 -0.43457,1.474609 0,0.917969 0.32227,1.391602 0.32227,0.473633 1.06934,0.473633 0.40039,0 0.80078,-0.151367 0.40527,-0.15625 0.74218,-0.415039 z M 180.0643,50 h -0.91797 v -3.105469 q 0,-0.375976 -0.0439,-0.703125 -0.044,-0.332031 -0.16114,-0.517578 -0.12207,-0.205078 -0.35156,-0.302734 -0.22949,-0.102539 -0.5957,-0.102539 -0.37598,0 -0.78613,0.185547 -0.41016,0.185546 -0.78614,0.473632 V 50 h -0.91797 v -7.597656 h 0.91797 v 2.749023 q 0.42969,-0.356445 0.88867,-0.55664 0.45899,-0.200196 0.94239,-0.200196 0.88379,0 1.34765,0.532227 0.46387,0.532226 0.46387,1.533203 z m 4.59961,-0.04883 q -0.25879,0.06836 -0.56641,0.112305 -0.30273,0.04395 -0.54199,0.04395 -0.83496,0 -1.26953,-0.449219 -0.43457,-0.449219 -0.43457,-1.44043 v -2.90039 h -0.62012 v -0.771485 h 0.62012 v -1.567382 h 0.91797 v 1.567382 h 1.89453 v 0.771485 h -1.89453 v 2.485351 q 0,0.429688 0.0195,0.673828 0.0195,0.239258 0.13672,0.449219 0.10742,0.195313 0.29297,0.288086 0.19043,0.08789 0.57617,0.08789 0.22461,0 0.46875,-0.06348 0.24414,-0.06836 0.35156,-0.112304 h 0.0488 z m 5.00488,-1.523438 q 0,0.747071 -0.62011,1.225586 -0.61524,0.478516 -1.68457,0.478516 -0.60547,0 -1.11329,-0.141602 -0.50293,-0.146484 -0.84472,-0.317382 v -1.030274 h 0.0488 q 0.43457,0.327149 0.96679,0.522461 0.53223,0.19043 1.02051,0.19043 0.60547,0 0.94727,-0.195313 0.34179,-0.195312 0.34179,-0.615234 0,-0.322266 -0.18554,-0.488281 -0.18555,-0.166016 -0.71289,-0.283204 -0.19532,-0.04395 -0.5127,-0.102539 -0.3125,-0.05859 -0.57129,-0.126953 -0.71777,-0.190429 -1.02051,-0.55664 -0.29785,-0.371094 -0.29785,-0.908203 0,-0.336915 0.13672,-0.634766 0.1416,-0.297852 0.4248,-0.532227 0.27344,-0.229492 0.69336,-0.361328 0.42481,-0.136719 0.94727,-0.136719 0.48828,0 0.98633,0.122071 0.50293,0.117187 0.83496,0.288086 v 0.981445 h -0.0488 q -0.35156,-0.258789 -0.85449,-0.43457 -0.50293,-0.180664 -0.98633,-0.180664 -0.50293,0 -0.84961,0.195312 -0.34668,0.19043 -0.34668,0.571289 0,0.336914 0.20996,0.507813 0.20508,0.170898 0.66406,0.27832 0.25391,0.05859 0.56641,0.117188 0.31738,0.05859 0.52734,0.107421 0.63965,0.146485 0.98633,0.50293 0.34668,0.361328 0.34668,0.957031 z"
     id="text4"
     style="font-size:10px;text-anchor:middle"
     aria-label="WatchTower Data Insights" />
</svg>
