<svg xmlns="http://www.w3.org/2000/svg" role="img" viewBox="-0.70 -0.70 36.20 15.89"><title>WLX Audit for Db2 z/OS (App Framework ZOWE V1)</title><g stroke-width=".265"><path d="M11.55335 7.81976c.1824.20179.43463.32985.7606.32985.35313 0 .82655-.27164.82655-.8188 0-1.10596-1.397-.5394-1.397-1.36208 0-.31044.2794-.51223.57045-.51223.32208 0 .60148.18238.76447.41134v-.39582c-.23284-.19791-.47731-.29492-.76447-.29492-.43463 0-.82656.27164-.82656.76835 0 1.10984 1.397.54328 1.397 1.36207 0 .35702-.28716.58597-.57044.58597-.34537 0-.58985-.1591-.7606-.44627zm3.02684.32985c.8188 0 1.08268-.76447 1.08268-1.48626 0-1.3155-.71015-1.48625-1.08268-1.48625-.37641 0-1.08655.17074-1.08655 1.48625 0 .72179.26387 1.48626 1.08655 1.48626zm0-.25612c-.62865 0-.83044-.64417-.83044-1.2185 0-.90805.31433-1.2185.83044-1.2185.51224 0 .82656.31045.82656 1.2185 0 .57433-.20179 1.2185-.82656 1.2185zm1.63748.20955h.25611V6.7914h1.40088v-.25612h-1.40088V5.50306h1.42029v-.2794h-1.6764zm2.66067 0h.25611V5.50306h.80716v-.2794h-1.87043v.2794h.80716zm1.90535 0h.36866l.53551-2.5767h.0078l.49671 2.5767h.3803l.79163-2.87938h-.28716l-.68298 2.62326h-.0078l-.50059-2.62326h-.36865l-.55104 2.62326h-.0078l-.63253-2.62326h-.28717zm2.67631 0h.28717l.31044-.96626h1.10208l.31432.96626h.28717l-.9779-2.87938h-.35702zm1.62208-1.1991h-.94686l.46567-1.47073h.0078zm1.3129-1.40088h.67522c.51611 0 .67133.18627.67133.52776 0 .44626-.35313.5394-.72566.5394h-.62089zm-.25612 2.59998h.25612V6.70992l1.28059 1.39312h.37253l-1.24566-1.29999h.26c.43462 0 .93521-.17462.93521-.7994 0-.6364-.45402-.77999-.98954-.77999h-.86925zm2.3723 0h1.5949v-.25612h-1.33878V6.79141h1.33879v-.25612h-1.3388V5.50306h1.3388v-.2794h-1.59491zm-16.82587 3.71188h1.59491v-.25612h-1.33879v-1.0555h1.3388v-.25613h-1.3388V9.21495h1.3388v-.2794h-1.59492zm2.16784 0h.25612V9.19166h.0078l1.52118 2.62326h.3182V8.93555h-.25611v2.49131h-.0078l-1.42805-2.49131h-.41134zm4.57385-1.44745h-.25612v1.02059c-.16686.17074-.35313.21731-.56656.21731-.62865 0-.83044-.64417-.83044-1.2185 0-.90805.31433-1.2185.83044-1.2185.36865 0 .62477.21732.78775.45791v-.357c-.22507-.32597-.60148-.3803-.78775-.3803-.37641 0-1.08656.17074-1.08656 1.48625 0 .72179.26388 1.48626 1.08656 1.48626.3376 0 .62477-.14358.82268-.3997zm.5562 1.44745h.2561V8.93555h-.2561zm.91059 0h.25612V9.19166h.0078l1.52118 2.62326h.3182V8.93555h-.25612v2.49131h-.0078l-1.42804-2.49131h-.41134zm2.79655 0h1.5949v-.25612h-1.33878v-1.0555h1.33879v-.25613h-1.3388V9.21495h1.3388v-.2794h-1.59491zm2.16008 0h1.5949v-.25612h-1.33879v-1.0555h1.3388v-.25613h-1.3388V9.21495h1.3388v-.2794H24.8504zm2.4162-2.59997h.6752c.51612 0 .67135.18626.67135.52775 0 .44627-.35314.5394-.72567.5394h-.62089zm-.25613 2.59997h.25612V10.4218l1.28059 1.39312h.37253l-1.24566-1.29999h.26c.43462 0 .93521-.17462.93521-.7994 0-.6364-.45402-.77998-.98954-.77998h-.86925zm2.3335 0h.25611V8.93555h-.25612zm.9106 0h.2561V9.19166h.0078l1.52119 2.62326h.3182V8.93555h-.25611v2.49131h-.0078L30.6659 8.93555h-.41134zm4.57384-1.44745h-.25612v1.02059c-.16687.17074-.35313.21731-.56656.21731-.62865 0-.83044-.64417-.83044-1.2185 0-.90805.31432-1.2185.83044-1.2185.36865 0 .62477.21732.78775.45791v-.357c-.22507-.32597-.60149-.3803-.78775-.3803-.37642 0-1.08656.17074-1.08656 1.48625 0 .72179.26388 1.48626 1.08656 1.48626.3376 0 .62477-.14358.82268-.3997z"/><path d="M-.0004 11.50972V11.84047H9.3592V11.50972H2.31469zm9.02888-8.66508H9.35921v8.66508H9.02848V4.99437zm-9.02889 0v8.66508h.3638V2.84464H.1319zm7.04452-.3638h-.06614v.3638h2.38124v-.3638H7.57328zm-7.04452 0v.3638h2.3151v-.3638H.56183zM6.97796.00037H2.41392v4.6302h4.56404V1.12485zM3.7699 1.3233h1.85208V3.20844H3.7699V2.2824zm0 1.15755h1.85208v.3638H3.7699v-.16537z"/></g><path d="M3.36552 12.63851h-.40825l.52186 1.83961h.35677l.22223-1.07565.06496-.35571.06497.35571.22223 1.07565H4.777l.51795-1.83961h-.3905l-.24602 1.06464-.05609.28187-.05609-.29323-.21832-1.05328h-.40577l-.20732 1.05967-.0536.28684-.05219-.29323zm2.1616 0v1.83961h1.2954v-.3305h-.91094V12.6385zm1.85452 1.83961l.36955-.62657.34932.62657h.46683l-.59782-.95211.56303-.8875h-.44446l-.3369.59782-.32837-.59782H6.9638l.56268.90241-.59143.9372zm2.62487-.69509l.23714-.72384.22968.72384zm.02378-1.14452l-.65675 1.83961h.40186l.12745-.37807h.6777l.11856.37807h.41678l-.65143-1.83961zm.21442 0zm1.4303.47925h-.36423v.82005c0 .15549.01952.27335.05857.35323.06994.14484.20555.21726.40683.21726.06994 0 .13064-.00923.18283-.0277.05183-.0181.10579-.05218.16152-.10224a.25288.25288 0 0 0 .04757-.05502c.01314-.02059.02166-.03337.02485-.03727v.19205h.34577v-1.36036h-.36068v.74017c0 .08734-.01171.15763-.03514.21088-.04473.09833-.1278.14732-.24957.14732-.09478 0-.15833-.03443-.19099-.10366-.0181-.03905-.02733-.09727-.02733-.17466zm.24956-.03621zm1.6788.05822c-.06426-.03621-.13739-.05431-.21975-.05431-.17892 0-.32163.06638-.42884.1995-.10685.13313-.1601.31595-.1601.54812 0 .20129.05431.36601.16259.49487.10863.12852.24246.19277.4015.19277.09656 0 .17715-.01846.24211-.05502.06497-.03657.12248-.09515.17324-.17608v.1885h.34578v-1.83713h-.36069v.64894c-.03976-.0639-.09194-.11395-.15584-.15016zm.08733.96915c-.05254.07455-.12887.11218-.22969.11218-.10082 0-.17572-.03763-.22542-.11289-.04935-.07526-.0742-.17572-.0742-.3014 0-.11643.0245-.21406.07313-.29287.04864-.07845.12496-.11786.22898-.11786.06816 0 .12816.02166.17963.06497.08414.07135.12603.19063.12603.35677 0 .11928-.02592.2162-.07846.2911zm1.11825-1.1534v-.32837h-.36068v.32838zm-.36068.16224v1.36036h.36068v-1.36036zm.56516.2659h.18992v.83744c0 .08485.01988.14768.06.1885.06141.0639.17608.09302.34435.08734l.16827-.0064v-.26589a.56122.56122 0 0 1-.0355.00213c-.01207.00035-.02343.00071-.03408.00071-.07242 0-.11573-.0071-.12993-.02095-.0142-.01349-.0213-.04828-.0213-.10401v-.71887h.22081v-.25348h-.22081v-.37914h-.3518v.37914h-.18993zm2.26419-.76183a.80158.80158 0 0 0-.06142-.00213c-.19702 0-.32127.04082-.3731.12247-.04899.05503-.07348.15514-.07348.30069v.08733h-.1949v.25098h.19845v1.09695h.35464v-1.09695h.23324v-.25098h-.23324v-.11467c0-.02662.00888-.05112.02663-.07313.0181-.02201.0504-.0323.09762-.03124.04686.00142.08023.0032.10047.00568v-.28968a4.01293 4.01293 0 0 0-.07491-.00533zm1.13813 1.49455c-.05573.07384-.13561.11111-.23962.11111-.10402 0-.18425-.03727-.24034-.11111-.05609-.0742-.08414-.17928-.08414-.31595 0-.13632.02805-.2414.08414-.31524.05609-.07349.13632-.11041.24033-.11041.10402 0 .1839.03692.23963.1104.05573.07385.08378.17893.08378.31525 0 .13667-.02805.24175-.08378.31595zm.28471.19631c.11467-.14164.17218-.3124.17218-.51226 0-.19632-.05752-.36636-.17218-.5105-.11502-.14377-.28932-.21583-.52291-.21583-.23395 0-.40825.07206-.52327.21584-.11467.14413-.17218.31417-.17218.51049 0 .19986.05751.37062.17218.51226.11502.142.28932.213.52327.213.23359 0 .40789-.071.52291-.213zm-.52291-1.23114zm1.70542.00426c-.00462-.00035-.0103-.00035-.01704-.00035-.1065 0-.19312.02769-.25951.08342-.04082.03337-.08875.0955-.14342.18602v-.23714h-.33973v1.36036h.35819v-.65c0-.10934.01385-.18993.04118-.24247.04935-.09301.1452-.13951.28826-.13951.011 0 .0252.00035.0426.00106a1.23286 1.23286 0 0 1 .06.00497v-.36423c-.01598-.00106-.02592-.00142-.03053-.00213zm1.35077-.1278h.35465c.17466 0 .29145.05006.35003.15052.05857.10011.08804.24389.08804.43097 0 .13561-.01953.25276-.05894.35074-.07135.17892-.19773.26838-.37914.26838h-.35464zm.70397-.27938c-.07562-.02521-.1704-.03834-.28436-.04012h-.79271v1.83961h.79271c.27761 0 .48315-.11431.61628-.34328.09834-.1697.14733-.37666.14733-.62125 0-.09656-.01172-.1981-.0348-.3046-.02342-.1065-.06709-.20554-.13099-.29713-.07987-.11324-.1846-.19099-.31346-.23323zm1.89534.60279c-.10118-.12922-.2414-.19348-.41997-.19348-.09904 0-.18069.02059-.24459.06248-.05431.03302-.10366.0813-.14874.14449V12.641h-.3543v1.83712h.34826v-.17075c.04722.06638.09124.11289.13206.13951.06816.04509.15869.06745.27086.06745.17892 0 .31844-.06958.4182-.20838.09975-.13881.1498-.31418.1498-.5254 0-.20377-.05076-.37027-.15158-.49913zm-.29784.82857c-.05077.07419-.12177.11111-.21336.11111-.10579 0-.18425-.03834-.23608-.11502-.05147-.07632-.07703-.17288-.07703-.28932 0-.09905.01243-.17963.03727-.24211.04828-.11751.13703-.17608.2659-.17608.12709 0 .21442.05999.26199.17963.02485.06354.03763.14342.03763.23962 0 .1207-.02556.21797-.07632.29217zm.70148.01242c-.05254.10757-.08023.22614-.08378.35571h1.2393v-.31311h-.78987c.02236-.03763.05005-.07029.08306-.09869.03267-.0284.09373-.0742.18283-.13738l.14235-.10082c.11964-.0852.2059-.16188.25809-.23111.07987-.10401.11999-.22294.11999-.35677 0-.17502-.0568-.31524-.16969-.42139-.11324-.10614-.26554-.15904-.45689-.15904-.2421 0-.41073.09017-.50552.27087-.0497.09478-.07774.21903-.08342.3731h.34541c.00426-.10153.01775-.17572.04012-.22223.03905-.08058.11253-.12105.22081-.12105.07916 0 .13987.02556.18211.07632.0426.05077.0639.11431.0639.19064 0 .09407-.03727.18069-.11111.25986-.04828.05076-.15443.13454-.31844.25205-.18886.1349-.30849.26234-.35926.38304zm2.05686-.71497h.65001l-.69757.79378v.2769h1.17433v-.29216h-.7139l.69012-.77248v-.29572h-1.10299zm.55168-.32589zm1.21054-.49913l-.71283 1.8957h.29323l.71532-1.8957zm1.50804 1.45266c-.08946.11254-.21016.16863-.36245.16863-.1523 0-.2737-.0561-.36459-.16863-.09052-.11218-.13596-.27193-.13596-.47925 0-.20696.04544-.36671.13596-.47925.09089-.11218.2123-.16862.36459-.16862.1523 0 .273.05644.36245.16933.08946.11254.1342.27229.1342.47854 0 .20732-.04474.36707-.1342.47925zm.24034.27974c.18566-.17572.27832-.42848.27832-.75899 0-.3369-.09266-.59001-.27832-.75863-.1388-.14342-.33974-.21478-.60279-.21478-.26306 0-.46399.07136-.60279.21478-.18637.16862-.27974.42174-.27974.75863 0 .3305.09337.58327.27974.75899.1388.14307.33974.21442.60279.21442.26305 0 .46398-.07135.60279-.21442zm-.60279-1.7324zm1.45266 1.32806h-.36672c0 .19134.06852.3415.2059.45085.13703.10969.32554.16436.56516.16436.23466 0 .41642-.05573.54493-.16685.12851-.11076.19276-.25063.19276-.41854 0-.16401-.05502-.28933-.16472-.3756-.07064-.05573-.17572-.10046-.31453-.13347l-.31701-.07633c-.12212-.02911-.202-.05431-.23963-.07597-.05822-.03266-.08733-.08165-.08733-.14732 0-.07171.02947-.12745.08875-.16721.05893-.04011.1381-.06.23715-.06.08875 0 .1633.01527.22329.04616.08981.0465.1381.12531.14484.23572h.3692c-.00639-.19525-.07845-.34435-.21513-.4473-.13703-.1026-.30246-.15407-.49629-.15407-.23217 0-.4079.05431-.52789.1633-.11963.10934-.17963.24601-.17963.41073 0 .1807.06213.31347.18602.39831.07313.05077.20555.09763.3969.14094l.19453.04366c.11396.02485.19774.0536.25099.08627.05325.03301.07987.08023.07987.14093 0 .10402-.0536.17502-.16117.21336-.05644.01988-.12993.02982-.2208.02982-.15124 0-.25845-.03763-.32057-.1136-.03444-.04154-.05715-.10437-.06887-.18815zm.3731-1.32806z"/></svg>