<svg xmlns="http://www.w3.org/2000/svg" role="img" xmlns:xlink="http://www.w3.org/1999/xlink" viewBox="-4.53 -4.53 248.82 56.82"><path d="M237.32 9.09c-1.06 0-1.93-.86-1.93-1.92s.87-1.93 1.93-1.93 1.93.87 1.93 1.93-.87 1.92-1.93 1.92m0-4.32c-1.32 0-2.4 1.08-2.4 2.4 0 1.32 1.08 2.4 2.4 2.4 1.32 0 2.4-1.08 2.4-2.4 0-1.32-1.08-2.4-2.4-2.4"/><path d="M237.48 7.07l-.51.01-.01-.62h.51c.19-.01.34.11.34.3.01.19-.14.31-.33.31m.83-.32c-.01-.42-.3-.72-.77-.72l-1.07.02.03 2.26h.49l-.01-.81h.35l.46.8.55-.01-.52-.86c.24-.06.49-.28.49-.68M51.8341 23.1805h-5.999V9.3465h5.835c1.574 0 2.557 1.016 2.557 2.393 0 1.377-.983 2.36-2.557 2.36H45v4h6.8341c1.836 0 2.819 1.18 2.819 2.556 0 1.574-1.049 2.525-2.819 2.525m3.376-7.245c2.066-.426 3.771-2.262 3.771-5.015 0-2.918-2.131-5.573-6.295-5.573h-11.506v21.865h11.867c4.163 0 6.359-2.623 6.359-5.901 0-2.754-1.868-5.015-4.196-5.376m17.8225-.5902H68v4.098h3.5576l4.294 7.769h5.343l-4.917-8.327c2.361-.557 4.786-2.622 4.786-6.49m0 0c0-4.065-2.786-7.048-7.343-7.048h-10.228v21.865h4.655V9.4453h4.885c1.869 0 3.278 1.114 3.278 2.95s-1.409 2.95-3.278 2.95m43.4206 4.0652l3.409-9.408 3.41 9.408zm.492-14.063l-8.458 21.865h5.31l1.377-3.704h9.376l1.344 3.704h5.311l-8.425-21.865zm26.9039 17.7671h-3.967v-13.67h3.967c4.491 0 6.851 2.983 6.851 6.852 0 3.704-2.524 6.818-6.851 6.818m0-17.767h-8.622v21.865h8.622c6.851 0 11.604-4.327 11.604-10.916s-4.753-10.949-11.604-10.949m82.1269-.0045l-5.734 9.27-5.734-9.27h-5.146v21.869h4.656v-14.293l5.012 7.622c.574.871 1.851.871 2.424 0l5.013-7.622v14.293h4.656V5.3431z"/><path id="a" d="M95.8253 23.3441c-3.871 0-7.008-3.138-7.008-7.008 0-3.871 3.137-7.009 7.008-7.009 3.87 0 7.008 3.138 7.008 7.009 0 3.87-3.138 7.008-7.008 7.008m0-18.536c-6.367 0-11.528 5.161-11.528 11.528 0 6.366 5.161 11.527 11.528 11.527 6.366 0 11.528-5.161 11.528-11.527 0-6.367-5.162-11.528-11.528-11.528"/><path d="M176.4035 19.7269c-1.195 2.156-3.492 3.617-6.132 3.617-3.87 0-7.008-3.138-7.008-7.008 0-3.871 3.138-7.008 7.008-7.008 2.618 0 4.897 1.438 6.1 3.565l3.27-3.269c-2.092-2.915-5.508-4.816-9.37-4.816-6.367 0-11.527 5.161-11.527 11.528 0 6.366 5.16 11.528 11.527 11.528 3.883 0 7.316-1.922 9.404-4.865z"/><use transform="translate(98.718)" xlink:href="#a"/><ellipse cx="16.52" cy="16.497" fill="#cc092f" rx="16.236" ry="16.235"/><path fill="#fff" d="M30.8253 20.8832c-1.857-.74-3.557-.492-5.261.541 0 0-.621.379-.807.496-.794.498-1.543.97-2.263.97-.687 0-1.363-.184-1.649-1.513-.446-2.073-1.534-7.167-2.009-9.69-.279-1.483-.432-2.282-.591-2.825-.28-.954-.792-1.473-1.519-1.556 0 0-.114-.016-.207-.016-.092 0-.218.018-.218.018-.72.086-1.229.605-1.507 1.554-.159.543-.312 1.342-.591 2.825-.475 2.523-1.563 7.617-2.009 9.69-.286 1.329-.962 1.513-1.649 1.513-.72 0-1.469-.472-2.263-.97-.186-.117-.808-.496-.808-.496-1.703-1.033-3.404-1.281-5.26-.541-.401.16-.79596.33918-1.17196.52018.257.806.57693 1.59925.94993 2.34425.411-.202.84203-.40243 1.28203-.53243.634-.187 1.284-.197 1.914.014.612.205 1.157.568 1.7.909 1.023.643 2.182 1.372 3.657 1.372 2.186 0 3.72-1.305 4.21-3.581.38-1.764 1.222-5.702 1.763-8.418 0 0 1.386 6.654 1.765 8.418.49 2.276 2.025 3.581 4.211 3.581 1.475 0 2.634-.729 3.657-1.372.543-.341 1.088-.704 1.7-.909.629-.211 1.28-.201 1.914-.014.44.13.87039.33065 1.28139.53265.374-.745.69309-1.53862.95009-2.34462-.376-.181-.77048-.36003-1.17148-.52003"/><path d="M47.55286 37.95887h-2.12485l2.71612 9.57478h1.85694l1.15666-5.59853.33813-1.8514.33812 1.8514 1.15666 5.59853h1.90868l2.6958-9.57478h-2.03248l-1.28045 5.54125-.29194 1.46707-.29194-1.5262-1.13633-5.48212h-2.11192L49.371 43.47425l-.279 1.49294-.27161-1.5262zm15.52438 7.69197c-.29009.38432-.70582.57833-1.2472.57833-.54137 0-.9571-.194-1.24904-.57833-.29379-.38617-.43976-.93309-.43976-1.64445 0-.70952.14597-1.25644.43976-1.64076.29193-.38247.70767-.57463 1.24904-.57463.54138 0 .95711.19216 1.2472.57463.29009.38432.43606.93124.43606 1.64076 0 .71136-.14597 1.25828-.43606 1.64445zm1.48185 1.02178c.59681-.73723.89614-1.62598.89614-2.66623 0-1.02178-.29933-1.90683-.89614-2.657-.5968-.74831-1.50402-1.1234-2.72166-1.1234-1.21763 0-2.12485.37509-2.72166 1.1234-.59865.75017-.89613 1.63522-.89613 2.657 0 1.04025.29748 1.929.89613 2.66623.5968.73908 1.50403 1.10862 2.72166 1.10862 1.21764 0 2.12486-.36954 2.72166-1.10862zm-2.72166-6.40782zm8.87635.02217c-.02402-.00185-.05358-.00185-.08684-.00185-.5543 0-1.00515.14412-1.35252.43421-.21248.17369-.46007.49703-.74647.9682v-1.23427h-1.7664v7.08039h1.86433V44.1505c0-.5691.07021-.98852.21434-1.26198.25498-.4841.7557-.72615 1.50033-.72615.05543 0 .12934.00185.21987.00555.09239.00554.19586.01293.31227.02587v-1.89574c-.0813-.00555-.13489-.0074-.1589-.0111zm1.22503-2.29484v9.54152h1.81813v-2.22833l.7668-.7982 1.69619 3.02653h2.23387l-2.572-4.3384 2.47407-2.70873h-2.293l-2.30593 2.66254v-5.15693zm9.30871 9.54152v-9.57478h-1.8514v9.57478zm6.2286-1.8828c-.2901.38431-.70582.57832-1.2472.57832-.54138 0-.9571-.194-1.2509-.57833-.29193-.38617-.4379-.93309-.4379-1.64445 0-.70952.14597-1.25644.4379-1.64076.2938-.38247.70952-.57463 1.2509-.57463.54138 0 .9571.19216 1.2472.57463.29009.38432.43605.93124.43605 1.64076 0 .71136-.14596 1.25828-.43605 1.64445zm1.48185 1.02177c.59681-.73723.89614-1.62598.89614-2.66623 0-1.02178-.29933-1.90683-.89614-2.657-.59865-.74831-1.50587-1.1234-2.72166-1.1234-1.21763 0-2.12485.37509-2.72166 1.1234-.59866.75017-.89798 1.63522-.89798 2.657 0 1.04025.29932 1.929.89798 2.66623.5968.73908 1.50403 1.10862 2.72166 1.10862 1.21579 0 2.123-.36954 2.72166-1.10862zm-2.72166-6.40782zm8.84679 3.82658v.6892c-.01294.61898-.18662 1.0458-.5229 1.2786-.33628.23466-.70213.35107-1.10123.35107-.25129 0-.46377-.07022-.6393-.21064-.17554-.14043-.26423-.36954-.26423-.6855 0-.35476.14413-.61713.42867-.78712.16999-.09977.449-.18292.83886-.25313l.41573-.0776c.20694-.0388.37139-.0813.48964-.12565.1201-.0462.23835-.10532.35476-.17923zm-1.1234-.86472l-.63007.0776c-.71506.09239-1.25644.2439-1.62413.45639-.67071.38986-1.007 1.01993-1.007 1.8902 0 .6707.2088 1.18991.62638 1.55576.41758.36584.94787.54876 1.58902.54876.50257 0 .95156-.11455 1.35067-.34552.33258-.194.62822-.43051.8832-.70767.01293.16075.02956.30303.05173.42867.02218.12564.06098.26053.1164.4028h2.014v-.27346c-.1201-.05543-.21248-.1275-.27161-.21433-.06097-.085-.09793-.24944-.11086-.49334-.00924-.31965-.01294-.59311-.01294-.81853v-3.24641c0-.85364-.30117-1.43382-.90352-1.74238-.60235-.30672-1.2897-.46008-2.06573-.46008-1.18992 0-2.03062.31042-2.52026.93494-.30672.3991-.4804.90722-.5192 1.5262h1.78672c.0425-.27346.12934-.48964.25868-.64854.18292-.21803.49149-.3252.92939-.3252.38986 0 .6855.05543.8869.16445.2014.11086.30117.31226.30117.60235 0 .23835-.13119.41203-.3954.52474-.14782.06652-.39172.1201-.73354.1626zm.09608-2.96186zm8.27585.30302c-.3326-.18847-.71322-.2827-1.14188-.2827-.93124 0-1.67587.34552-2.23202 1.0384-.55616.6929-.83517 1.64446-.83517 2.85286 0 1.04764.2827 1.90498.8481 2.5757.5654.66886 1.26198 1.0033 2.0879 1.0033.50257 0 .92385-.09609 1.26013-.2864.33813-.19031.6393-.49518.90353-.91646v.98113h1.79966V37.9718h-1.87727v3.3776c-.20879-.33259-.47855-.59311-.81298-.78158zm.45453 5.04422c-.27161.38802-.67072.58387-1.19361.58387-.52475 0-.91646-.19585-1.1733-.58756-.25682-.39172-.38616-.91462-.38616-1.5687 0-.60605.12564-1.11416.37878-1.52435.25498-.40835.65223-.61344 1.1936-.61344.35477 0 .66703.1127.93495.33813.4379.37139.65593.99221.65593 1.85694 0 .62082-.13673 1.12525-.41019 1.51511zm10.38038-1.69619l1.23426-3.76746 1.19546 3.76746zm.1238-5.95698l-3.4164 9.57478h2.0916l.66332-1.9678h3.52726l.61713 1.9678h2.1692l-3.39053-9.57478zm1.11785 0zm7.44439 2.4944h-1.8976v4.26818c0 .8093.10163 1.42273.30488 1.83846.364.75386 1.06982 1.1308 2.11931 1.1308.36215 0 .67995-.04805.95157-.14413.26976-.09423.55061-.2716.8407-.53213.09423-.08315.17738-.17738.24574-.2864.07022-.10717.11271-.17368.13119-.194v.9996h1.79966v-7.08039h-1.87726v3.85246c0 .45453-.06098.82038-.18293 1.09753-.2328.51181-.66702.7668-1.29893.7668-.49333 0-.82407-.17923-.99406-.53953-.09423-.20325-.14227-.50627-.14227-.90907zm1.29893-.18847zm4.25525 1.57239h.98667v4.35872c0 .4416.10348.76865.31227.98113.31965.33259.9183.4841 1.79226.45454l.87766-.03326v-1.38393a3.09683 3.09683 0 0 1-.18477.01109c-.06282.00184-.1238.0037-.17923.0037-.37693 0-.60235-.03696-.67625-.10902-.07391-.07021-.11087-.25129-.11087-.54138V41.8372h1.15112v-1.31926h-1.15112V38.5446h-1.83107v1.97334h-.98667zm9.58033 3.81365c-.2901.38432-.70582.57833-1.2472.57833-.54138 0-.95711-.194-1.2509-.57833-.29193-.38617-.4379-.93309-.4379-1.64445 0-.70952.14597-1.25644.4379-1.64076.29379-.38247.70952-.57463 1.2509-.57463.54138 0 .9571.19216 1.2472.57463.29009.38432.43605.93124.43605 1.64076 0 .71136-.14596 1.25828-.43605 1.64445zm1.48185 1.02178c.5968-.73723.89614-1.62598.89614-2.66623 0-1.02178-.29933-1.90683-.89614-2.657-.59865-.74831-1.50587-1.1234-2.72166-1.1234-1.21763 0-2.12486.37509-2.72166 1.1234-.59866.75017-.89614 1.63522-.89614 2.657 0 1.04025.29748 1.929.89614 2.66623.5968.73908 1.50403 1.10862 2.72166 1.10862 1.21579 0 2.123-.36954 2.72166-1.10862zm-2.72166-6.40782zm13.77645.21433c-.30302-.1201-.60974-.18107-.922-.18107-.46747 0-.89244.09608-1.27307.29193-.35845.19401-.65963.50073-.90352.91646-.13858-.34737-.34183-.63006-.60974-.85179-.33444-.23835-.7705-.3566-1.31187-.3566-.57279 0-1.0384.13857-1.39686.41573-.20325.1552-.41943.41758-.6504.78527V40.4662h-1.7978v7.06745h1.87726v-4.2608c0-.38617.04989-.67626.14782-.87026.18292-.34183.53768-.51366 1.06612-.51366.45453 0 .7594.17183.91646.51366.08684.1903.12934.49518.12934.91646v4.2146h1.86433v-4.2146c0-.3178.04988-.58757.14966-.813.194-.42496.54692-.6356 1.05873-.6356.4416 0 .74463.16444.90907.49333.08684.17184.12934.39356.12934.66148v4.50839h1.89759l.01293-4.4622c0-.46007-.02217-.80744-.06467-1.0458-.07021-.3603-.20325-.66332-.4028-.90906-.24759-.30303-.5229-.51551-.82592-.63746zm6.89931 3.61225v.6892c-.01293.61898-.18661 1.0458-.5229 1.2786-.33628.23466-.70212.35107-1.10123.35107-.25128 0-.46377-.07022-.6393-.21064-.17553-.14043-.26422-.36954-.26422-.6855 0-.35476.14412-.61713.42867-.78712.16998-.09977.44899-.18292.83885-.25313l.41573-.0776c.20695-.0388.3714-.0813.48964-.12565.1201-.0462.23836-.10532.35476-.17923zm-1.1234-.86472l-.63006.0776c-.71506.09239-1.25644.2439-1.62413.45639-.67072.38986-1.007 1.01993-1.007 1.8902 0 .6707.2088 1.18991.62637 1.55576.41758.36584.94787.54876 1.58902.54876.50258 0 .95157-.11455 1.35067-.34552.33259-.194.62822-.43051.8832-.70767a5.36665 5.36665 0 0 0 .05174.42867c.02217.12564.06097.26053.11825.4028h2.01215v-.27346c-.1201-.05543-.21064-.1275-.27162-.21433-.06097-.085-.09792-.24944-.11086-.49334-.00924-.31965-.01293-.59311-.01293-.81853v-3.24641c0-.85364-.30118-1.43382-.90353-1.74238-.60235-.30672-1.2897-.46008-2.06573-.46008-1.18991 0-2.03062.31042-2.52026.93494-.30672.3991-.4804.90722-.5192 1.5262h1.78672c.0425-.27346.12934-.48964.25868-.64854.18292-.21803.49149-.3252.9294-.3252.38986 0 .6855.05543.8869.16445.20139.11086.30117.31226.30117.60235 0 .23835-.1312.41203-.39541.52474-.14782.06652-.39171.1201-.73354.1626zm.09608-2.96186zm3.79518 1.57239h.98667v4.35872c0 .4416.10347.76865.31226.98113.31965.33259.9183.4841 1.79227.45454l.87766-.03326v-1.38393a3.06753 3.06753 0 0 1-.18662.01109c-.06282.00184-.12195.0037-.17738.0037-.37693 0-.60235-.03696-.67626-.10902-.0739-.07021-.11086-.25129-.11086-.54138V41.8372h1.15112v-1.31926h-1.15112V38.5446h-1.83107v1.97334h-.98667zm7.06006-2.22833v-1.70912h-1.87726v1.70912zm-1.87726.8444v7.08039h1.87726v-7.08039zm8.09477 5.19758c-.29009.38432-.70582.57833-1.2472.57833-.54137 0-.95895-.194-1.2509-.57833-.29193-.38617-.43974-.93309-.43974-1.64445 0-.70952.14781-1.25644.43975-1.64076.29194-.38247.70952-.57463 1.2509-.57463.54137 0 .9571.19216 1.24719.57463.29009.38432.4342.93124.4342 1.64076 0 .71136-.14411 1.25828-.4342 1.64445zm1.48 1.02178c.59866-.73723.89614-1.62598.89614-2.66623 0-1.02178-.29748-1.90683-.89613-2.657-.59681-.74831-1.50403-1.1234-2.72166-1.1234-1.21764 0-2.12486.37509-2.72167 1.1234-.5968.75017-.89613 1.63522-.89613 2.657 0 1.04025.29933 1.929.89613 2.66623.59681.73908 1.50403 1.10862 2.72167 1.10862 1.21763 0 2.12485-.36954 2.72166-1.10862zm-2.72165-6.40782zm10.66307.59496c-.46562-.38433-1.06427-.57464-1.79596-.57464-.58572 0-1.06797.14227-1.4486.42867-.21248.1589-.4379.42127-.67626.78527V40.4662h-1.78672v7.06745h1.84585v-3.83213c0-.4379.06097-.79636.18107-1.07906.23466-.53214.66518-.7982 1.2934-.7982.5118 0 .85733.18107 1.0384.54507.09978.19955.14966.48594.14966.85733v4.30699h1.8976v-4.76707c0-.88874-.23282-1.52435-.69844-1.90682zm-2.47776-.59496zm14.7317-.57833v-1.4486h-6.65171l-.02587 1.66293h4.69685c-.46007.44714-1.02916 1.23426-1.70912 2.36506-1.05134 1.82368-1.60565 3.579-1.66293 5.26779h1.92346c0-.54138.10532-1.23426.3178-2.07866.21249-.8444.45084-1.55946.71506-2.14334.33259-.74462.74647-1.46707 1.2398-2.1655.4952-.70028.87951-1.18622 1.15667-1.45968z"/></svg>