<?xml version="1.0" encoding="UTF-8" standalone="no"?>
<!-- Generator: Adobe Illustrator 23.0.1, SVG Export Plug-In . SVG Version: 6.00 Build 0) -->

<svg
   id="Layer_1"
   x="0px"
   y="0px"
   viewBox="0 0 400 300"
   style="enable-background:new 0 0 400 245;"
   xml:space="preserve"
   version="1.1"
   xmlns="http://www.w3.org/2000/svg"
   xmlns:svg="http://www.w3.org/2000/svg"><defs
   id="defs31" /> <style
   type="text/css"
   id="style1"> .st0{fill:#4C83C3;} </style> <g
   id="g31"> <polygon
   class="st0"
   points="398.3,53.5 332,53.5 336.1,42.1 398.3,42.1 "
   id="polygon1" /> <path
   class="st0"
   d="M221.5,42.1l61.6,0l4,11.5c0,0-65.6,0-65.6,0C221.6,53.5,221.5,42.1,221.5,42.1z"
   id="path1" /> <path
   class="st0"
   d="M172.7,42.1c10.1,1,19,4.6,26.5,11.5c0,0-111.6,0-111.6,0c0,0,0-11.5,0-11.5L172.7,42.1z"
   id="path2" /> <g
   id="g3"> <rect
   x="0"
   y="42.1"
   class="st0"
   width="77.5"
   height="11.4"
   id="rect2" /> <path
   class="st0"
   d="M38.8,47.8"
   id="path3" /> </g> <path
   class="st0"
   d="M398.3,75h-73.9c0,0,4-11.4,4-11.4h69.9V75z"
   id="path4" /> <polygon
   class="st0"
   points="294.8,75 221.5,75 221.5,63.6 290.7,63.6 "
   id="polygon4" /> <path
   class="st0"
   d="M207.8,63.6c1.5,3.8,3.2,7,3.2,11.4H87.6V63.6H207.8z"
   id="path5" /> <g
   id="g6"> <rect
   x="0"
   y="63.6"
   class="st0"
   width="77.5"
   height="11.4"
   id="rect5" /> <path
   class="st0"
   d="M38.8,69.3"
   id="path6" /> </g> <polygon
   class="st0"
   points="316.8,96.5 320.9,85.1 376.4,85.1 376.4,96.5 "
   id="polygon6" /> <polygon
   class="st0"
   points="298.3,85.1 302.4,96.5 243.4,96.5 243.4,85.1 "
   id="polygon7" /> <path
   class="st0"
   d="M212,85c0,3.9-0.5,8-1.6,11.4h-33.8V85H212z"
   id="path7" /> <g
   id="g8"> <rect
   x="21.6"
   y="85.1"
   class="st0"
   width="33.3"
   height="11.4"
   id="rect7" /> <path
   class="st0"
   d="M38.3,90.8"
   id="path8" /> </g> <g
   id="g9"> <rect
   x="110"
   y="85"
   class="st0"
   width="33.3"
   height="11.4"
   id="rect8" /> <path
   class="st0"
   d="M126.6,90.8"
   id="path9" /> </g> <path
   class="st0"
   d="M276.1,108.8c0,0,0,8.7,0,8.7h-32.8v-11.4h62.4l3.9,10.6c0,0,3.7-10.6,3.7-10.6h62.9v11.4h-32.6 c0,0,0-8.7,0-8.7l-3,8.7l-61.6,0L276.1,108.8z"
   id="path10" /> <path
   class="st0"
   d="M110,106.1h95.5v0c-2.1,3.8-5.9,8.4-9.5,11.4c0,0-86,0-86,0C110,117.5,110,106.1,110,106.1z"
   id="path11" /> <g
   id="g12"> <rect
   x="21.6"
   y="106.1"
   class="st0"
   width="33.3"
   height="11.4"
   id="rect11" /> <path
   class="st0"
   d="M38.3,111.8"
   id="path12" /> </g> <g
   id="g13"> <rect
   x="343.8"
   y="127.6"
   class="st0"
   width="32.6"
   height="11.4"
   id="rect12" /> <path
   class="st0"
   d="M360.1,133.3"
   id="path13" /> </g> <path
   class="st0"
   d="M276.1,127.6h-32.8v11.4c0,0,32.8,0,32.8,0C276.1,138.9,276.2,127.6,276.1,127.6z"
   id="path14" /> <path
   class="st0"
   d="M337.2,127.6c-0.1,0-3.8,11.4-4,11.4l-46.4,0c0,0-4.1-11.4-4.1-11.4H337.2z"
   id="path15" /> <path
   class="st0"
   d="M110,127.6h85.8c3.9,3.3,7.5,7.3,10.2,11.4c0.2,0-96.1,0-96.1,0C110,138.9,110,127.6,110,127.6z"
   id="path16" /> <path
   class="st0"
   d="M54.9,138.9v-11.4H21.7c0,0,0,11.4,0,11.4C21.7,138.9,54.9,138.9,54.9,138.9z"
   id="path17" /> <g
   id="g18"> <rect
   x="343.8"
   y="149"
   class="st0"
   width="32.6"
   height="11.4"
   id="rect17" /> <path
   class="st0"
   d="M360.1,154.7"
   id="path18" /> </g> <g
   id="g19"> <rect
   x="243.4"
   y="149"
   class="st0"
   width="32.8"
   height="11.4"
   id="rect18" /> <path
   class="st0"
   d="M259.8,154.7"
   id="path19" /> </g> <path
   class="st0"
   d="M325.6,160.4c0-0.1,4-11.4,4.1-11.4h-39.5c-0.1,0,4,11.4,4,11.4S325.6,160.5,325.6,160.4z"
   id="path20" /> <path
   class="st0"
   d="M110,160.4c0,0,0-11.4,0-11.4h33.8c0,0,0,11.4,0,11.4C143.7,160.4,110,160.4,110,160.4z"
   id="path21" /> <path
   class="st0"
   d="M210.8,149c1.6,3.4,1.8,7.5,2.1,11.4h-35.8V149H210.8z"
   id="path22" /> <g
   id="g23"> <rect
   x="21.7"
   y="149"
   class="st0"
   width="33.3"
   height="11.4"
   id="rect22" /> <path
   class="st0"
   d="M38.3,154.7"
   id="path23" /> </g> <g
   id="g24"> <rect
   x="343.8"
   y="170"
   class="st0"
   width="54.5"
   height="11.4"
   id="rect23" /> <path
   class="st0"
   d="M371,175.7"
   id="path24" /> </g> <g
   id="g25"> <rect
   x="221.5"
   y="170"
   class="st0"
   width="54.6"
   height="11.4"
   id="rect24" /> <path
   class="st0"
   d="M248.8,175.7"
   id="path25" /> </g> <polygon
   class="st0"
   points="318.2,181.4 301.6,181.4 297.6,170 322.1,170 "
   id="polygon25" /> <path
   class="st0"
   d="M0,170v11.4h77.5c0,0,0-11.4,0-11.4C77.5,170-0.1,170,0,170z"
   id="path26" /> <path
   class="st0"
   d="M211.5,170c-0.8,3.8-1.6,8.3-4.3,11.4l-1,0H87.6V170H211.5z"
   id="path27" /> <polygon
   class="st0"
   points="310.7,202.9 309.2,202.9 305.3,191.5 314.7,191.5 "
   id="polygon27" /> <g
   id="g28"> <rect
   x="343.8"
   y="191.5"
   class="st0"
   width="54.5"
   height="11.4"
   id="rect27" /> <path
   class="st0"
   d="M371,197.2"
   id="path28" /> </g> <path
   class="st0"
   d="M87.6,202.9v-11.4c0,0,111.9,0,112.2,0c-7.5,7.2-17.8,11.2-28.9,11.4L87.6,202.9"
   id="path29" /> <g
   id="g30"> <rect
   x="221.5"
   y="191.5"
   class="st0"
   width="54.6"
   height="11.4"
   id="rect29" /> <path
   class="st0"
   d="M248.8,197.2"
   id="path30" /> </g> <path
   class="st0"
   d="M77.5,191.5c0,0,0,11.4,0,11.4c0,0-77.4,0-77.5,0c0,0,0-11.4,0-11.4S77.4,191.6,77.5,191.5z"
   id="path31" /> </g> <path
   d="m 167.71484,240 h -9.07812 v -1.4375 l 7.13281,-8.82031 h -6.86719 v -1.375 h 8.64063 v 1.39843 l -7.20313,8.85938 h 7.375 z m 17.07032,-0.84375 q -0.42969,0.1875 -0.78125,0.35156 -0.34375,0.16406 -0.90625,0.34375 -0.47657,0.14844 -1.03907,0.25 -0.55468,0.10938 -1.22656,0.10938 -1.26562,0 -2.30469,-0.35157 -1.03125,-0.35937 -1.79687,-1.11718 -0.75,-0.74219 -1.17188,-1.88282 -0.42187,-1.14843 -0.42187,-2.66406 0,-1.4375 0.40625,-2.57031 0.40625,-1.13281 1.17187,-1.91406 0.74219,-0.75782 1.78907,-1.15625 1.05468,-0.39844 2.33593,-0.39844 0.9375,0 1.86719,0.22656 0.9375,0.22656 2.07813,0.79688 v 1.83593 h -0.11719 q -0.96094,-0.80468 -1.90625,-1.17187 -0.94531,-0.36719 -2.02344,-0.36719 -0.88281,0 -1.59375,0.28906 -0.70312,0.28125 -1.25781,0.88282 -0.53906,0.58593 -0.84375,1.48437 -0.29688,0.89063 -0.29688,2.0625 0,1.22656 0.32813,2.10938 0.33594,0.88281 0.85937,1.4375 0.54688,0.57812 1.27344,0.85937 0.73438,0.27344 1.54688,0.27344 1.11718,0 2.09375,-0.38281 0.97656,-0.38282 1.82812,-1.14844 h 0.10938 z M 194.15234,240 h -1.46875 v -4.96875 q 0,-0.60156 -0.0703,-1.125 -0.0703,-0.53125 -0.25781,-0.82813 -0.19531,-0.32812 -0.5625,-0.48437 -0.36719,-0.16406 -0.95313,-0.16406 -0.60156,0 -1.25781,0.29687 -0.65625,0.29688 -1.25781,0.75781 V 240 h -1.46875 v -12.15625 h 1.46875 v 4.39844 q 0.6875,-0.57032 1.42187,-0.89063 0.73438,-0.32031 1.50782,-0.32031 1.41406,0 2.15625,0.85156 0.74218,0.85156 0.74218,2.45313 z m 9.60938,0 h -1.46094 v -0.92969 q -0.19531,0.13281 -0.53125,0.375 -0.32812,0.23438 -0.64062,0.375 -0.36719,0.17969 -0.84375,0.29688 -0.47657,0.125 -1.11719,0.125 -1.17969,0 -2,-0.78125 -0.82031,-0.78125 -0.82031,-1.99219 0,-0.99219 0.42187,-1.60156 0.42969,-0.61719 1.21875,-0.96875 0.79688,-0.35157 1.91406,-0.47657 1.11719,-0.125 2.39844,-0.1875 v -0.22656 q 0,-0.5 -0.17969,-0.82812 -0.17187,-0.32813 -0.5,-0.51563 -0.3125,-0.17969 -0.75,-0.24219 -0.4375,-0.0625 -0.91406,-0.0625 -0.57812,0 -1.28906,0.15625 -0.71094,0.14844 -1.46875,0.4375 h -0.0781 v -1.49218 q 0.42969,-0.11719 1.24219,-0.25782 0.8125,-0.14062 1.60156,-0.14062 0.92188,0 1.60157,0.15625 0.6875,0.14844 1.1875,0.51562 0.49218,0.35938 0.75,0.92969 0.25781,0.57031 0.25781,1.41406 z m -1.46094,-2.14844 v -2.42969 q -0.67187,0.0391 -1.58594,0.11719 -0.90625,0.0781 -1.4375,0.22656 -0.63281,0.17969 -1.02343,0.5625 -0.39063,0.375 -0.39063,1.03907 0,0.75 0.45313,1.13281 0.45312,0.375 1.38281,0.375 0.77344,0 1.41406,-0.29688 0.64063,-0.30468 1.1875,-0.72656 z m 8.82031,2.07031 q -0.41406,0.10938 -0.90625,0.17969 -0.48437,0.0703 -0.86718,0.0703 -1.33594,0 -2.03125,-0.71875 -0.69532,-0.71875 -0.69532,-2.30468 v -4.64063 h -0.99218 v -1.23437 h 0.99218 v -2.50782 h 1.46875 v 2.50782 h 3.03125 v 1.23437 h -3.03125 v 3.97656 q 0,0.6875 0.0312,1.07813 0.0312,0.38281 0.21875,0.71875 0.17188,0.3125 0.46875,0.46094 0.30469,0.14062 0.92188,0.14062 0.35937,0 0.75,-0.10156 0.39062,-0.10938 0.5625,-0.17969 h 0.0781 z m 10.5625,-10.21875 q 0.71094,0.78125 1.08594,1.91407 0.38281,1.13281 0.38281,2.57031 0,1.4375 -0.39062,2.57812 -0.38281,1.13282 -1.07813,1.89063 -0.71875,0.78906 -1.70312,1.1875 -0.97656,0.39844 -2.23438,0.39844 -1.22656,0 -2.23437,-0.40625 -1,-0.40625 -1.70313,-1.17969 -0.70312,-0.77344 -1.08593,-1.89844 -0.375,-1.125 -0.375,-2.57031 0,-1.42188 0.375,-2.54688 0.375,-1.13281 1.09375,-1.9375 0.6875,-0.76562 1.70312,-1.17187 1.02344,-0.40625 2.22656,-0.40625 1.25,0 2.24219,0.41406 1,0.40625 1.69531,1.16406 z m -0.14062,4.48438 q 0,-2.26563 -1.01563,-3.49219 -1.01562,-1.23437 -2.77343,-1.23437 -1.77344,0 -2.78907,1.23437 -1.00781,1.22656 -1.00781,3.49219 0,2.28906 1.03125,3.50781 1.03125,1.21094 2.76563,1.21094 1.73437,0 2.75781,-1.21094 1.03125,-1.21875 1.03125,-3.50781 z m 11.625,1.34375 q 0,1.0625 -0.30469,1.94531 -0.30469,0.875 -0.85937,1.48438 -0.51563,0.57812 -1.21875,0.89843 -0.69532,0.3125 -1.47657,0.3125 -0.67968,0 -1.23437,-0.14843 -0.54688,-0.14844 -1.11719,-0.46094 v 3.65625 h -1.46875 v -11.94531 h 1.46875 v 0.91406 q 0.58594,-0.49219 1.3125,-0.82031 0.73438,-0.33594 1.5625,-0.33594 1.57813,0 2.45313,1.19531 0.88281,1.1875 0.88281,3.30469 z m -1.51563,0.0391 q 0,-1.57812 -0.53906,-2.35937 -0.53906,-0.78125 -1.65625,-0.78125 -0.63281,0 -1.27344,0.27343 -0.64062,0.27344 -1.22656,0.71875 v 4.94532 q 0.625,0.28125 1.07031,0.38281 0.45313,0.10156 1.02344,0.10156 1.22656,0 1.91406,-0.82812 0.6875,-0.82813 0.6875,-2.45313 z m 10.03907,1.91406 q 0,1.19532 -0.99219,1.96094 -0.98438,0.76563 -2.69531,0.76563 -0.96875,0 -1.78125,-0.22657 -0.80469,-0.23437 -1.35157,-0.50781 v -1.64844 h 0.0781 q 0.69531,0.52344 1.54687,0.83594 0.85157,0.30469 1.63282,0.30469 0.96875,0 1.51562,-0.3125 0.54688,-0.3125 0.54688,-0.98438 0,-0.51562 -0.29688,-0.78125 -0.29687,-0.26562 -1.14062,-0.45312 -0.3125,-0.0703 -0.82032,-0.16406 -0.5,-0.0937 -0.91406,-0.20313 -1.14844,-0.30469 -1.63281,-0.89062 -0.47656,-0.59375 -0.47656,-1.45313 0,-0.53906 0.21875,-1.01562 0.22656,-0.47657 0.67968,-0.85157 0.4375,-0.36718 1.10938,-0.57812 0.67969,-0.21875 1.51562,-0.21875 0.78125,0 1.57813,0.19531 0.80469,0.1875 1.33594,0.46094 v 1.57031 h -0.0781 q -0.5625,-0.41406 -1.36719,-0.69531 -0.80468,-0.28906 -1.57812,-0.28906 -0.80469,0 -1.35938,0.3125 -0.55468,0.30468 -0.55468,0.91406 0,0.53906 0.33593,0.8125 0.32813,0.27344 1.0625,0.44531 0.40625,0.0937 0.90625,0.1875 0.50782,0.0937 0.84375,0.17188 1.02344,0.23437 1.57813,0.80468 0.55469,0.57813 0.55469,1.53125 z"
   id="text31"
   style="font-size:16px;text-anchor:middle"
   aria-label="Z ChatOps" /></svg>
