<?xml version="1.0" encoding="UTF-8" standalone="no"?>
<!-- Created with Inkscape (http://www.inkscape.org/) -->

<svg
   version="1.1"
   id="svg1"
   width="660.88623"
   height="211.26459"
   viewBox="0 0 660.88623 211.26459"
   xmlns="http://www.w3.org/2000/svg"
   xmlns:svg="http://www.w3.org/2000/svg">
  <defs
     id="defs1" />
  <g
     id="g1"
     transform="translate(-84.113781,-303.64483)">
    <path
       style="fill:#000000"
       d="m 166,511.25328 c -22.62788,-13.4809 -74.870696,-45.84575 -76.724834,-47.53166 -5.229098,-4.75464 -5.376819,-6.42374 -5.06431,-57.22162 0.335224,-54.49023 -0.332893,-50.87381 10.719593,-58.02363 3.752056,-2.42719 22.740141,-13.52641 42.195731,-24.66492 40.40548,-23.13252 39.25828,-22.74851 49.48387,-16.56402 3.23947,1.95925 18.26495,10.62234 33.38995,19.25131 15.125,8.62897 31.22224,18.00929 35.77165,20.84515 13.03414,8.1248 12.22835,4.10375 12.22835,61.02149 0,51.21057 0.0665,50.49731 -5.15499,55.28466 -1.28975,1.18252 -7.07001,5.04633 -12.84501,8.58624 -5.775,3.53992 -23.49019,14.45602 -39.36708,24.25801 C 176.54974,517.53637 176.5475,517.53712 166,511.25328 Z M 165.76279,450.77635 165.5,415.5527 149.5,405.34317 C 120.00265,386.52103 106.3389,378 105.65431,378 c -0.37376,0 -0.56139,16.07817 -0.41694,35.72927 l 0.26263,35.72928 29,18.18559 c 15.95,10.00208 29.56826,18.22391 30.26279,18.27073 0.9994,0.0674 1.20798,-7.26188 1,-35.13852 z m 28.9696,31.09072 c 22.80313,-13.92569 51.87697,-32.35501 52.5023,-33.28015 0.40408,-0.5978 0.74158,-16.72442 0.75,-35.83692 0.012,-27.17543 -0.25716,-34.73596 -1.23469,-34.68557 -0.6875,0.0354 -14.3,8.49221 -30.25,18.79285 l -29,18.72842 -0.26279,35.20715 c -0.14454,19.36393 -0.04,35.20715 0.23238,35.20715 0.27235,0 3.54061,-1.85982 7.2628,-4.13293 z M 206.5534,378.32286 C 222.73751,368.05043 235.87126,359.5539 235.73952,359.44168 234.96763,358.78414 176.6755,326 176.27826,326 c -0.46336,0 -29.13787,16.12253 -49.4896,27.82603 -5.34124,3.07154 -9.55514,5.74082 -9.36423,5.93173 1.05827,1.05828 58.21038,37.15638 58.88945,37.19543 0.44763,0.0258 14.05542,-8.3579 30.23952,-18.63033 z m 185.36705,78.72682 c -8.74319,-1.5944 -16.3639,-7.15945 -20.28499,-14.81318 -3.89388,-7.60061 -4.7476,-28.90286 -1.54341,-38.51147 1.79496,-5.38266 7.30985,-11.38826 13.19745,-14.37173 10.13903,-5.13784 27.81385,-4.16581 35.9814,1.97881 4.66851,3.5122 9.7291,12.27528 9.7291,16.8472 V 411 h -8.31479 -8.31479 l -1.69539,-3.55528 c -2.79507,-5.86131 -10.51883,-8.03627 -17.2297,-4.85175 -5.3512,2.53931 -7.94012,8.94108 -7.84835,19.40703 0.0933,10.64009 1.81071,15.68429 6.40302,18.80634 6.16439,4.19081 16.35023,1.59078 19.02019,-4.85509 1.21624,-2.93624 1.26505,-2.95125 9.60113,-2.95125 8.29893,0 8.37868,0.0241 8.37868,2.53212 0,6.71565 -5.89932,15.08303 -13.24017,18.7794 -5.9022,2.97195 -16.12104,4.14567 -23.83938,2.73816 z m 269.80218,-0.0708 C 652.895,455.46202 643.58239,448.14659 638.83544,439 636.76793,435.01626 636.5,433.1233 636.5,422.5 c 0,-15.34489 1.68967,-20.68464 8.88305,-28.07251 6.68652,-6.86731 13.08344,-8.90637 25.68657,-8.18778 10.37279,0.59144 16.35711,3.16606 21.84178,9.39698 5.35806,6.08707 8.89239,18.51758 7.63987,26.86998 L 699.87745,427 H 677.43873 655 v 3.04966 c 0,3.7121 1.94894,7.64601 5.37235,10.844 5.4369,5.07889 17.82815,3.43112 21.40031,-2.84578 1.70625,-2.99817 1.82905,-3.03531 10.0568,-3.04156 l 8.32945,-0.006 -0.69989,3.25 c -1.55053,7.19999 -6.89061,13.32568 -14.45902,16.58616 -5.28,2.27463 -16.49916,3.30736 -23.27737,2.14268 z m 20.90788,-43.45835 c 0.31226,-0.81373 -0.44353,-3.56852 -1.67954,-6.12176 -5.26817,-10.88259 -19.88272,-10.37261 -24.98715,0.87193 -3.14542,6.92906 -3.50357,6.72934 12.06756,6.72934 11.46349,0 14.13529,-0.27077 14.59913,-1.47951 z M 307.25,456.34546 c -0.84772,-0.34731 -1.25,-2.9948 -1.25,-8.2265 v -7.71437 l 19.11302,-30.45229 c 10.51216,-16.74877 19.3353,-31.0148 19.60699,-31.7023 0.38504,-0.97435 -3.83906,-1.25 -19.15509,-1.25 h -19.64905 l 0.29207,-7.75 0.29206,-7.75 h 30 30 l 0.29138,7.71191 0.29138,7.71192 -20.54943,32.28808 L 325.98391,441.5 346.24195,442 366.5,442.5 v 7 7 l -29,0.17879 c -15.95,0.0983 -29.5625,-0.0517 -30.25,-0.33333 z m 131.41667,-0.0121 C 438.3,455.96667 438,440.75667 438,422.53333 c 0,-24.43703 0.31496,-33.44829 1.2,-34.33333 0.69091,-0.69091 4,-1.2 7.8,-1.2 7.17238,0 9,0.98982 9,4.87431 v 2.47432 l 2.25,-2.05734 c 3.19752,-2.92373 7.57989,-4.94345 12.5,-5.76094 L 475,385.8242 V 394.4121 403 h -3.78811 c -4.69203,0 -12.33344,3.73675 -13.79986,6.74831 -0.61533,1.26368 -1.38903,11.71607 -1.76668,23.86698 -0.36955,11.89026 -0.91749,22.01602 -1.21764,22.50168 -0.6307,1.02049 -14.76291,1.21449 -15.76104,0.21636 z M 490.5,455.10996 c -7.73949,-3.57201 -10.5,-8.49024 -10.5,-18.70718 0,-7.91152 1.59003,-11.95763 6.33695,-16.12548 4.80712,-4.2207 11.87247,-6.20321 24.77421,-6.95153 l 10.61116,-0.61546 -0.92213,-4.10515 c -1.1487,-5.1138 -4.13831,-8.39037 -8.38195,-9.18648 -4.82363,-0.90491 -9.04535,0.36586 -12.15266,3.65807 -2.58839,2.7424 -3.23874,2.92325 -10.51233,2.92325 -8.89536,0 -9.35146,-0.62023 -5.48107,-7.45349 5.15606,-9.10315 15.43697,-13.31932 29.79288,-12.218 11.89864,0.91282 18.06684,4.2435 22.18504,11.97942 2.11928,3.98099 2.24894,5.53696 2.57503,30.90187 l 0.34338,26.7098 -2.3877,0.59928 c -1.31324,0.3296 -4.83865,0.46019 -7.83426,0.2902 -4.96523,-0.28177 -5.47298,-0.53001 -5.74559,-2.80908 -0.61603,-5.15022 -1.08769,-5.47879 -3.98051,-2.77295 -4.82188,4.51023 -8.5419,5.77458 -16.92079,5.75099 -5.43358,-0.0153 -9.01309,-0.582 -11.79966,-1.86808 z m 21.09893,-12.01539 c 4.43745,-2.01525 7.9348,-6.13451 8.83458,-10.40556 0.31157,-1.47896 0.81415,-3.87014 1.11685,-5.31374 l 0.55035,-2.62472 -8.80035,0.44239 c -13.46332,0.67681 -18.37731,4.25291 -16.87175,12.27823 0.48902,2.60666 1.57717,4.17131 3.87565,5.57279 3.95747,2.41302 6.07192,2.4225 11.29467,0.0506 z M 554.2,455.8 c -0.87363,-0.87363 -1.2,-8.48889 -1.2,-28 V 401 h -5 -5 v -4.41821 C 543,389.85053 543.61288,389 548.46339,389 h 4.24941 l 0.64483,-6.93814 c 0.97698,-10.51187 3.04283,-14.66623 8.76445,-17.62499 4.00639,-2.07178 15.14812,-3.54011 21.34022,-2.81236 L 589,362.27536 v 6.18886 6.18886 l -6.96699,-0.0765 c -8.88917,-0.0977 -11.36868,1.87084 -11.46783,9.10437 l -0.0652,4.75573 6,0.0317 6,0.0317 0.29645,6.20108 0.29645,6.20107 -6.29645,0.29893 L 570.5,401.5 l -0.26671,26.95131 c -0.19824,20.03199 -0.58334,27.15243 -1.5,27.73469 -1.95786,1.24361 -13.20233,0.94496 -14.53329,-0.386 z m 54.22403,-1.18313 C 600.05477,450.71977 599.5,448.75428 599.5,423 v -21.5 l -5.29632,-0.30387 -5.29632,-0.30386 0.29632,-6.10434 0.29632,-6.10434 5.5,-0.0918 5.5,-0.0918 0.28671,-9.7914 0.28671,-9.79141 7.71329,0.29141 7.71329,0.2914 0.5,9.46268 0.5,9.46268 7,0.0373 7,0.0373 0.29772,6.25 0.29771,6.25 H 624.54772 617 v 18.84501 C 617,441.99458 617.00228,442 626.32874,442 H 632 v 6.46482 c 0,7.91099 -0.82419,8.53925 -11.18426,8.52541 -5.57776,-0.007 -8.52162,-0.57128 -12.39171,-2.37336 z m 101.0308,1.12602 c -0.26532,-0.69141 -0.36369,-16.32891 -0.21861,-34.75 L 709.5,387.5 l 5.95833,-0.30612 C 724.56562,386.72598 726,387.34118 726,391.71522 v 3.67711 l 3.25,-3.07617 c 4.07167,-3.85389 6.15524,-4.90255 11.5,-5.78793 L 745,385.8242 V 394.4121 403 h -3.53212 c -4.60551,0 -9.35089,2.07411 -12.46788,5.44947 -2.48807,2.6943 -2.50146,2.81289 -2.80587,24.85439 -0.21798,15.78311 -0.64901,22.36532 -1.5,22.90634 -2.07034,1.31623 -14.70355,0.92884 -15.2393,-0.46731 z"
       id="path1" />
  </g>
</svg>
