<svg xmlns="http://www.w3.org/2000/svg" role="img" xmlns:xlink="http://www.w3.org/1999/xlink" viewBox="-4.53 -4.53 248.82 56.82"><path d="M237.32 9.09c-1.06 0-1.93-.86-1.93-1.92s.87-1.93 1.93-1.93 1.93.87 1.93 1.93-.87 1.92-1.93 1.92m0-4.32c-1.32 0-2.4 1.08-2.4 2.4 0 1.32 1.08 2.4 2.4 2.4 1.32 0 2.4-1.08 2.4-2.4 0-1.32-1.08-2.4-2.4-2.4"/><path d="M237.48 7.07l-.51.01-.01-.62h.51c.19-.01.34.11.34.3.01.19-.14.31-.33.31m.83-.32c-.01-.42-.3-.72-.77-.72l-1.07.02.03 2.26h.49l-.01-.81h.35l.46.8.55-.01-.52-.86c.24-.06.49-.28.49-.68M51.8341 23.1805h-5.999V9.3465h5.835c1.574 0 2.557 1.016 2.557 2.393 0 1.377-.983 2.36-2.557 2.36H45v4h6.8341c1.836 0 2.819 1.18 2.819 2.556 0 1.574-1.049 2.525-2.819 2.525m3.376-7.245c2.066-.426 3.771-2.262 3.771-5.015 0-2.918-2.131-5.573-6.295-5.573h-11.506v21.865h11.867c4.163 0 6.359-2.623 6.359-5.901 0-2.754-1.868-5.015-4.196-5.376m17.8225-.5902H68v4.098h3.5576l4.294 7.769h5.343l-4.917-8.327c2.361-.557 4.786-2.622 4.786-6.49m0 0c0-4.065-2.786-7.048-7.343-7.048h-10.228v21.865h4.655V9.4453h4.885c1.869 0 3.278 1.114 3.278 2.95s-1.409 2.95-3.278 2.95m43.4206 4.0652l3.409-9.408 3.41 9.408zm.492-14.063l-8.458 21.865h5.31l1.377-3.704h9.376l1.344 3.704h5.311l-8.425-21.865zm26.9039 17.7671h-3.967v-13.67h3.967c4.491 0 6.851 2.983 6.851 6.852 0 3.704-2.524 6.818-6.851 6.818m0-17.767h-8.622v21.865h8.622c6.851 0 11.604-4.327 11.604-10.916s-4.753-10.949-11.604-10.949m82.1269-.0045l-5.734 9.27-5.734-9.27h-5.146v21.869h4.656v-14.293l5.012 7.622c.574.871 1.851.871 2.424 0l5.013-7.622v14.293h4.656V5.3431z"/><path id="a" d="M95.8253 23.3441c-3.871 0-7.008-3.138-7.008-7.008 0-3.871 3.137-7.009 7.008-7.009 3.87 0 7.008 3.138 7.008 7.009 0 3.87-3.138 7.008-7.008 7.008m0-18.536c-6.367 0-11.528 5.161-11.528 11.528 0 6.366 5.161 11.527 11.528 11.527 6.366 0 11.528-5.161 11.528-11.527 0-6.367-5.162-11.528-11.528-11.528"/><path d="M176.4035 19.7269c-1.195 2.156-3.492 3.617-6.132 3.617-3.87 0-7.008-3.138-7.008-7.008 0-3.871 3.138-7.008 7.008-7.008 2.618 0 4.897 1.438 6.1 3.565l3.27-3.269c-2.092-2.915-5.508-4.816-9.37-4.816-6.367 0-11.527 5.161-11.527 11.528 0 6.366 5.16 11.528 11.527 11.528 3.883 0 7.316-1.922 9.404-4.865z"/><use transform="translate(98.718)" xlink:href="#a"/><ellipse cx="16.52" cy="16.497" fill="#cc092f" rx="16.236" ry="16.235"/><path fill="#fff" d="M30.8253 20.8832c-1.857-.74-3.557-.492-5.261.541 0 0-.621.379-.807.496-.794.498-1.543.97-2.263.97-.687 0-1.363-.184-1.649-1.513-.446-2.073-1.534-7.167-2.009-9.69-.279-1.483-.432-2.282-.591-2.825-.28-.954-.792-1.473-1.519-1.556 0 0-.114-.016-.207-.016-.092 0-.218.018-.218.018-.72.086-1.229.605-1.507 1.554-.159.543-.312 1.342-.591 2.825-.475 2.523-1.563 7.617-2.009 9.69-.286 1.329-.962 1.513-1.649 1.513-.72 0-1.469-.472-2.263-.97-.186-.117-.808-.496-.808-.496-1.703-1.033-3.404-1.281-5.26-.541-.401.16-.79596.33918-1.17196.52018.257.806.57693 1.59925.94993 2.34425.411-.202.84203-.40243 1.28203-.53243.634-.187 1.284-.197 1.914.014.612.205 1.157.568 1.7.909 1.023.643 2.182 1.372 3.657 1.372 2.186 0 3.72-1.305 4.21-3.581.38-1.764 1.222-5.702 1.763-8.418 0 0 1.386 6.654 1.765 8.418.49 2.276 2.025 3.581 4.211 3.581 1.475 0 2.634-.729 3.657-1.372.543-.341 1.088-.704 1.7-.909.629-.211 1.28-.201 1.914-.014.44.13.87039.33065 1.28139.53265.374-.745.69309-1.53862.95009-2.34462-.376-.181-.77048-.36003-1.17148-.52003"/><path d="M58.12695 41.86012h3.31008l-3.55233 4.04224v1.41008h5.9802v-1.48782h-3.63548l3.51436-3.93377v-1.5059h-5.61683zm2.80932-1.65956zm6.1646-2.54177l-3.63006 9.65365h1.49324l3.64272-9.65365zm7.67953 7.39752c-.45556.57307-1.07021.8587-1.84576.8587s-1.39381-.28563-1.85661-.8587c-.46099-.57127-.69239-1.38478-.69239-2.44053 0-1.05395.2314-1.86746.69239-2.44053.4628-.57127 1.08106-.8587 1.85661-.8587.77555 0 1.3902.28743 1.84576.86231.45557.57308.68335 1.38659.68335 2.43692 0 1.05575-.22778 1.86926-.68335 2.44053zm1.22388 1.42455c.94548-.89487 1.41732-2.18202 1.41732-3.86508 0-1.7156-.47184-3.00456-1.41732-3.86327-.70685-.73035-1.73006-1.09372-3.06964-1.09372-1.33958 0-2.3628.36337-3.06964 1.09372-.9491.8587-1.42455 2.14767-1.42455 3.86327 0 1.68306.47545 2.97021 1.42455 3.86508.70685.72854 1.73006 1.0919 3.06964 1.0919 1.33958 0 2.3628-.36336 3.06964-1.0919zm-3.06964-8.82207zm7.39752 6.76298H78.4647c0 .9744.3489 1.7391 1.04852 2.2959.69781.55862 1.65776.83702 2.87802.83702 1.19496 0 2.12055-.28383 2.77497-.84967.65443-.56403.98164-1.2763.98164-2.1314 0-.8352-.2802-1.47335-.83882-1.91265-.35975-.28382-.89486-.5116-1.60171-.67973l-1.61437-.38868c-.62188-.14824-1.02863-.27659-1.22026-.38687-.29648-.16631-.44472-.41579-.44472-.75023 0-.36518.15005-.649.45195-.85148.3001-.20428.70323-.30551 1.20761-.30551.45195 0 .83159.07773 1.1371.23501.45738.23682.70324.63815.73759 1.20038h1.88011c-.03254-.9943-.39952-1.75357-1.09553-2.27783-.6978-.52245-1.54024-.78458-2.5273-.78458-1.1823 0-2.07716.27659-2.6882.83158-.60923.5568-.91474 1.2528-.91474 2.09163 0 .92017.31636 1.59629.94728 2.02835.3724.25852 1.04672.49715 2.02112.7177l.99068.22236c.5803.12654 1.00694.27297 1.27811.4393.27117.16812.40676.40855.40676.71769 0 .52968-.27298.89124-.82074 1.08649-.28744.10123-.66166.15185-1.12446.15185-.77012 0-1.31607-.19163-1.63244-.5785-.17536-.2115-.29106-.53149-.35071-.95813zm1.9-6.76298zM98.1408 39.604v-1.65957h-6.86964v9.36802h7.09923v-1.68306H93.1838v-2.4098h4.55023v-1.62702h-4.55023v-1.98858zm-3.38782-1.65957zm4.31522 9.36802h2.20009l1.20038-2.07716 1.19495 2.07716h2.25614l-2.3646-3.53967 2.27602-3.37516h-2.1549l-1.13168 2.00846-1.157-2.00846h-2.21636l2.26156 3.4077zm7.2077-5.57344h.96536v4.2646c0 .43206.10304.75204.30552.95994.31456.3254.89848.47364 1.75356.44472l.85871-.03254v-1.35405a2.94162 2.94162 0 0 1-.18078.01085c-.06147.0018-.11932.00362-.17536.00362-.36879 0-.58934-.03616-.65984-.10666-.07232-.0687-.10847-.24586-.10847-.52969V41.739h1.12445v-1.29076h-1.12445V38.5175h-1.79334v1.93073h-.96536zm6.80275.3489c.2314-.26213.5568-.3941.9762-.3941.38507 0 .70867.12474.96899.3724.26032.24768.40675.61104.43568 1.09011h-2.81475c.05785-.45014.20429-.80447.43388-1.0684zm2.53272-1.56375c-.46098-.21512-.97982-.3236-1.55651-.3236-.97079 0-1.759.31999-2.36641.95995-.60923.63996-.91294 1.56013-.91294 2.7587 0 1.27993.33625 2.20371 1.01056 2.77136.6743.56765 1.45166.85147 2.33206.85147 1.06841 0 1.8982-.33805 2.49115-1.01056.38145-.42483.59657-.84243.64177-1.2528h-1.84938c-.09581.20428-.2097.36337-.33625.47726-.2332.21151-.53511.31817-.90932.31817-.35072 0-.65262-.08677-.9021-.26213-.41037-.2784-.62911-.7665-.65442-1.4607h4.74186c.00723-.59839-.01085-1.05576-.05785-1.37393-.07954-.54234-.2567-1.0178-.52788-1.42997-.3001-.4646-.68154-.80628-1.14434-1.02322zm-1.42997-.3236zm9.97544.58212c-.45556-.37602-1.04129-.56223-1.75718-.56223-.57126 0-1.0449.1392-1.41731.41941-.2079.15547-.42845.41218-.65985.76832V40.3976h-1.74814v6.91483h1.80418v-3.74937c0-.42845.05966-.77917.17898-1.05576.22778-.52065.649-.78097 1.26365-.78097.50076 0 .83882.17717 1.01779.5333.09762.19524.14643.47545.14643.83882v4.21398h1.8548v-4.66412c0-.86955-.22778-1.49144-.68335-1.86565zm-2.42425-.58211zm8.45327.29648c-.32721-.1844-.69962-.2766-1.11903-.2766-.91113 0-1.63787.33806-2.18382 1.01599-.54415.67792-.81532 1.60894-.81532 2.79124 0 1.02502.2766 1.86384.82797 2.52007.55319.65443 1.23473.98164 2.04462.98164.49173 0 .9021-.094 1.23292-.28021.33083-.1862.6237-.48449.88221-.89667v.95994h1.7608v-9.35536h-1.83673v3.30466c-.20247-.3254-.46822-.5803-.79362-.7647zm.44472 4.9353c-.26756.37963-.65623.57126-1.16965.57126-.51341 0-.89486-.19163-1.14795-.57488-.25129-.38326-.37783-.89487-.37783-1.53483 0-.59295.12474-1.0901.3724-1.49143.24767-.39953.63635-.6002 1.16603-.6002.3471 0 .65262.11028.91475.33084.42845.36336.64177.97078.64177 1.81684 0 .60742-.13197 1.10095-.39952 1.4824zm5.58971-3.34444c.2314-.26213.555-.3941.97622-.3941.38506 0 .70685.12474.96898.3724.26032.24768.40494.61104.43387 1.09011h-2.81475c.05966-.45014.20429-.80447.43568-1.0684zm2.53273-1.56375c-.4628-.21512-.98163-.3236-1.55651-.3236-.9708 0-1.7608.31999-2.36822.95995-.60742.63996-.91294 1.56013-.91294 2.7587 0 1.27993.33806 2.20371 1.01056 2.77136.6743.56765 1.45166.85147 2.33387.85147 1.0666 0 1.89819-.33805 2.49115-1.01056.38144-.42483.59476-.84243.64177-1.2528h-1.84938c-.09762.20428-.2097.36337-.33806.47726-.2314.21151-.53511.31817-.90752.31817-.35252 0-.65261-.08677-.90209-.26213-.41218-.2784-.63092-.7665-.65623-1.4607h4.74186c.00904-.59839-.01085-1.05576-.05785-1.37393-.07954-.54234-.2549-1.0178-.52607-1.42997-.3019-.4646-.68335-.80628-1.14434-1.02322zm-1.42997-.3236zm8.05194.29649c-.3254-.1844-.69961-.2766-1.11902-.2766-.91114 0-1.63787.33806-2.18202 1.01599-.54415.67792-.81712 1.60894-.81712 2.79124 0 1.02502.27659 1.86384.82978 2.52007.55318.65443 1.23292.98164 2.0428.98164.49173 0 .9021-.094 1.23293-.28021.33083-.1862.6255-.48449.88401-.89667v.95994h1.7608v-9.35536h-1.83672v3.30466c-.20429-.3254-.46822-.5803-.79544-.7647zm.44472 4.9353c-.26574.37963-.65623.57126-1.16964.57126-.51161 0-.89487-.19163-1.14615-.57488-.2531-.38326-.37783-.89487-.37783-1.53483 0-.59295.12293-1.0901.3706-1.49143.24767-.39953.63635-.6002 1.16603-.6002.3489 0 .65262.11028.91656.33084.42664.36336.64176.97078.64176 1.81684 0 .60742-.13377 1.10095-.40133 1.4824zm7.59457-7.47526v9.35536h1.9452V43.3841h4.11274v-1.62702h-4.11275v-2.15309h4.69667v-1.6469zm9.66811 1.6017v-1.6722h-1.83672v1.6722zm-1.83672.82617v6.9275h1.83672v-6.9275zm5.43967 6.9275v-9.36803h-1.81142v9.36802zm3.5234-5.22455c.2314-.26213.5568-.3941.97621-.3941.38507 0 .70866.12474.96899.3724.26032.24768.40675.61104.43567 1.09011h-2.81474c.05785-.45014.20428-.80447.43387-1.0684zm2.53273-1.56375c-.46099-.21512-.97983-.3236-1.55652-.3236-.97078 0-1.75899.31999-2.36821.95995-.60742.63996-.91113 1.56013-.91113 2.7587 0 1.27993.33625 2.20371 1.01056 2.77136.6743.56765 1.45166.85147 2.33206.85147 1.0684 0 1.89819-.33805 2.49115-1.01056.38144-.42483.59657-.84243.64176-1.2528h-1.84937c-.09763.20428-.20971.36337-.33626.47726-.2332.21151-.5351.31817-.90932.31817-.35071 0-.65261-.08677-.9021-.26213-.41036-.2784-.6291-.7665-.65441-1.4607h4.74185c.00724-.59839-.01084-1.05576-.05784-1.37393-.08136-.54234-.25671-1.0178-.52788-1.42997-.3001-.4646-.68154-.80628-1.14434-1.02322zm-1.42997-.3236zm5.79038 4.90095h-1.83672c0 .71047.26032 1.2962.77916 1.75719.51884.45918 1.32331.68877 2.4116.68877 1.06842 0 1.85662-.21694 2.36822-.65081.5098-.43387.7647-.9943.7647-1.68125 0-.52065-.17716-.95633-.5333-1.30343-.35975-.34348-.90028-.59838-1.6216-.76831-1.07925-.23683-1.70837-.40495-1.88734-.50257-.17716-.0922-.26574-.24405-.26574-.45014 0-.16632.08315-.31095.24947-.43388.16813-.12112.44834-.18258.84244-.18258.47906 0 .81893.12112 1.01779.36698.10485.13558.17174.31998.19705.55319h1.81141c-.08135-.84605-.3941-1.44263-.93824-1.78792-.54415-.34529-1.2492-.51884-2.11332-.51884-.91113 0-1.61798.2296-2.11874.69058-.50257.45918-.75386 1.00876-.75386 1.64872 0 .54234.1609.95813.48269 1.24557.32178.29286.87497.53511 1.65956.73035 1.0883.25852 1.7174.4411 1.88734.54777.16993.10485.2549.26032.2549.4628 0 .2115-.10485.3706-.31456.47725-.2097.10485-.49353.15909-.84966.15909-.60562 0-1.02141-.12112-1.24558-.36337-.12654-.13559-.2097-.36337-.24767-.68516zm1.38659-4.90094z"/></svg>