<svg xmlns="http://www.w3.org/2000/svg" role="img" xmlns:xlink="http://www.w3.org/1999/xlink" viewBox="-4.53 -4.53 248.82 56.57"><path d="M237.32 9.09c-1.06 0-1.93-.86-1.93-1.92s.87-1.93 1.93-1.93 1.93.87 1.93 1.93-.87 1.92-1.93 1.92m0-4.32c-1.32 0-2.4 1.08-2.4 2.4 0 1.32 1.08 2.4 2.4 2.4 1.32 0 2.4-1.08 2.4-2.4 0-1.32-1.08-2.4-2.4-2.4"/><path d="M237.48 7.07l-.51.01-.01-.62h.51c.19-.01.34.11.34.3.01.19-.14.31-.33.31m.83-.32c-.01-.42-.3-.72-.77-.72l-1.07.02.03 2.26h.49l-.01-.81h.35l.46.8.55-.01-.52-.86c.24-.06.49-.28.49-.68M51.8341 23.1805h-5.999V9.3465h5.835c1.574 0 2.557 1.016 2.557 2.393 0 1.377-.983 2.36-2.557 2.36H45v4h6.8341c1.836 0 2.819 1.18 2.819 2.556 0 1.574-1.049 2.525-2.819 2.525m3.376-7.245c2.066-.426 3.771-2.262 3.771-5.015 0-2.918-2.131-5.573-6.295-5.573h-11.506v21.865h11.867c4.163 0 6.359-2.623 6.359-5.901 0-2.754-1.868-5.015-4.196-5.376m17.8225-.5902H68v4.098h3.5576l4.294 7.769h5.343l-4.917-8.327c2.361-.557 4.786-2.622 4.786-6.49m0 0c0-4.065-2.786-7.048-7.343-7.048h-10.228v21.865h4.655V9.4453h4.885c1.869 0 3.278 1.114 3.278 2.95s-1.409 2.95-3.278 2.95m43.4206 4.0652l3.409-9.408 3.41 9.408zm.492-14.063l-8.458 21.865h5.31l1.377-3.704h9.376l1.344 3.704h5.311l-8.425-21.865zm26.9039 17.7671h-3.967v-13.67h3.967c4.491 0 6.851 2.983 6.851 6.852 0 3.704-2.524 6.818-6.851 6.818m0-17.767h-8.622v21.865h8.622c6.851 0 11.604-4.327 11.604-10.916s-4.753-10.949-11.604-10.949m82.1269-.0045l-5.734 9.27-5.734-9.27h-5.146v21.869h4.656v-14.293l5.012 7.622c.574.871 1.851.871 2.424 0l5.013-7.622v14.293h4.656V5.3431z"/><path id="a" d="M95.8253 23.3441c-3.871 0-7.008-3.138-7.008-7.008 0-3.871 3.137-7.009 7.008-7.009 3.87 0 7.008 3.138 7.008 7.009 0 3.87-3.138 7.008-7.008 7.008m0-18.536c-6.367 0-11.528 5.161-11.528 11.528 0 6.366 5.161 11.527 11.528 11.527 6.366 0 11.528-5.161 11.528-11.527 0-6.367-5.162-11.528-11.528-11.528"/><path d="M176.4035 19.7269c-1.195 2.156-3.492 3.617-6.132 3.617-3.87 0-7.008-3.138-7.008-7.008 0-3.871 3.138-7.008 7.008-7.008 2.618 0 4.897 1.438 6.1 3.565l3.27-3.269c-2.092-2.915-5.508-4.816-9.37-4.816-6.367 0-11.527 5.161-11.527 11.528 0 6.366 5.16 11.528 11.527 11.528 3.883 0 7.316-1.922 9.404-4.865z"/><use transform="translate(98.718)" xlink:href="#a"/><ellipse cx="16.52" cy="16.497" fill="#cc092f" rx="16.236" ry="16.235"/><path fill="#fff" d="M30.8253 20.8832c-1.857-.74-3.557-.492-5.261.541 0 0-.621.379-.807.496-.794.498-1.543.97-2.263.97-.687 0-1.363-.184-1.649-1.513-.446-2.073-1.534-7.167-2.009-9.69-.279-1.483-.432-2.282-.591-2.825-.28-.954-.792-1.473-1.519-1.556 0 0-.114-.016-.207-.016-.092 0-.218.018-.218.018-.72.086-1.229.605-1.507 1.554-.159.543-.312 1.342-.591 2.825-.475 2.523-1.563 7.617-2.009 9.69-.286 1.329-.962 1.513-1.649 1.513-.72 0-1.469-.472-2.263-.97-.186-.117-.808-.496-.808-.496-1.703-1.033-3.404-1.281-5.26-.541-.401.16-.79596.33918-1.17196.52018.257.806.57693 1.59925.94993 2.34425.411-.202.84203-.40243 1.28203-.53243.634-.187 1.284-.197 1.914.014.612.205 1.157.568 1.7.909 1.023.643 2.182 1.372 3.657 1.372 2.186 0 3.72-1.305 4.21-3.581.38-1.764 1.222-5.702 1.763-8.418 0 0 1.386 6.654 1.765 8.418.49 2.276 2.025 3.581 4.211 3.581 1.475 0 2.634-.729 3.657-1.372.543-.341 1.088-.704 1.7-.909.629-.211 1.28-.201 1.914-.014.44.13.87039.33065 1.28139.53265.374-.745.69309-1.53862.95009-2.34462-.376-.181-.77048-.36003-1.17148-.52003"/><path d="M58.12435 41.83383h3.29104l-3.5319 4.01898v1.40198h5.9458v-1.47926h-3.61456l3.49414-3.91115v-1.49723h-5.58452zm2.79316-1.65002zm6.12913-2.52714l-3.60918 9.59812h1.48466l3.62176-9.59812zm7.63536 7.35496c-.45295.56978-1.06406.85377-1.83515.85377-.77108 0-1.3858-.284-1.84593-.85377-.45833-.56798-.6884-1.3768-.6884-2.42649 0-1.04788.23007-1.85671.6884-2.42649.46014-.56798 1.07485-.85376 1.84593-.85376.77109 0 1.3822.28578 1.83515.85736.45294.56977.67942 1.3786.67942 2.42289 0 1.04968-.22648 1.85851-.67942 2.42649zm1.21684 1.41635c.94004-.88971 1.40916-2.16946 1.40916-3.84284 0-1.70573-.46912-2.98728-1.40916-3.84104-.70278-.72615-1.72011-1.08743-3.05199-1.08743-1.33187 0-2.3492.36128-3.05198 1.08743-.94364.85376-1.41635 2.1353-1.41635 3.84104 0 1.67338.47271 2.95313 1.41635 3.84284.70278.72435 1.72011 1.08563 3.05198 1.08563 1.33188 0 2.3492-.36128 3.05199-1.08563zm-3.05199-8.77131zm7.35496 6.72407H78.3451c0 .9688.3469 1.7291 1.0425 2.2827.69379.5554 1.6482.8322 2.86145.8322 1.18808 0 2.10835-.2822 2.75901-.84478.65066-.56079.97599-1.26897.97599-2.11914 0-.8304-.2786-1.46488-.834-1.90164-.35768-.2822-.8897-.50867-1.59249-.67583l-1.60508-.38644c-.6183-.14738-1.02272-.275-1.21324-.38464-.29478-.16536-.44216-.4134-.44216-.74592 0-.36308.14918-.64527.44935-.84658.29836-.2031.69919-.30376 1.20066-.30376.44935 0 .8268.07729 1.13056.23366.45475.23546.6992.63449.73334 1.19348h1.8693c-.03235-.98857-.39723-1.74348-1.08922-2.26473-.6938-.51945-1.53139-.78007-2.51277-.78007-1.1755 0-2.06521.275-2.67273.8268-.60573.5536-.90949 1.2456-.90949 2.0796 0 .91487.31455 1.5871.94184 2.01668.37026.25703 1.0407.49429 2.0095.71357l.98497.22108c.57696.12582 1.00115.2714 1.27076.43677.2696.16715.40441.4062.40441.71356 0 .52664-.2714.88612-.81602 1.08024-.28578.10066-.65784.15098-1.11798.15098-.76569 0-1.3085-.19052-1.62305-.57516-.17435-.2103-.28938-.52844-.3487-.95263zm1.88907-6.72407zm15.81712 1.934v-1.65001h-6.83012v9.31413h7.0584V45.5814h-5.15675v-2.39594h4.52406v-1.61766h-4.52406v-1.97714zm-3.36833-1.65001zm4.2904 9.31413h2.18743l1.19348-2.06522 1.18808 2.06522h2.24315l-2.351-3.51931 2.26293-3.35575h-2.1425l-1.12517 1.99691-1.15034-1.9969h-2.20361l2.24855 3.38809zm7.16623-5.54139h.95981v4.24007c0 .42958.10246.74772.30376.95442.31275.32353.89331.47092 1.74348.44216l.85377-.03236v-1.34625a2.9247 2.9247 0 0 1-.17974.01079c-.06111.0018-.11863.0036-.17435.0036-.36667 0-.58595-.03596-.65605-.10606-.0719-.0683-.10785-.24444-.10785-.52663V41.7134h1.11799v-1.28334h-1.11799v-1.91963h-1.78302v1.91963h-.9598zm6.76362.3469c.23007-.26062.5536-.39183.9706-.39183.38284 0 .70457.12402.9634.37026.25883.24624.40442.60752.43317 1.08383h-2.79855c.05752-.44755.2031-.79984.43138-1.06226zm2.51816-1.55475c-.45834-.2139-.9742-.32174-1.54757-.32174-.9652 0-1.74887.31814-2.3528.95442-.60572.63628-.90768 1.55116-.90768 2.74284 0 1.27255.33432 2.19103 1.00475 2.75541.67043.56438 1.4433.84658 2.31864.84658 1.06227 0 1.88727-.33612 2.47682-1.00475.37925-.42239.59314-.83759.63808-1.2456h-1.83874c-.09527.2031-.2085.36128-.33432.47451-.23186.2103-.53203.31635-.9041.31635-.34869 0-.64885-.08628-.8969-.26063-.408-.2768-.62549-.7621-.65065-1.4523h4.71458c.00719-.59494-.01079-1.04968-.05752-1.36602-.07909-.53922-.25523-1.01194-.52484-1.42174-.29837-.46193-.67762-.80164-1.13775-1.01733zm-1.42175-.32174zm9.91806.57877c-.45295-.37386-1.0353-.559-1.74708-.559-.56798 0-1.0389.1384-1.40916.417-.2067.15458-.42598.4098-.65605.7639v-1.00475h-1.73809v6.87506h1.7938v-3.72781c0-.42599.05932-.77468.17795-1.04968.22647-.51765.64527-.77648 1.25638-.77648.49788 0 .834.17614 1.01194.53023.09706.19412.14559.47272.14559.834v4.18974h1.84413v-4.6373c0-.86455-.22647-1.48285-.67941-1.85491zm-2.41032-.57877zm8.40464.29478c-.32533-.18334-.69559-.275-1.11259-.275-.90589 0-1.62844.3361-2.17126 1.01013-.54101.67403-.81062 1.59969-.81062 2.77519 0 1.01913.275 1.85312.8232 2.50558.55001.65065 1.22763.97598 2.03287.97598.48889 0 .8969-.09346 1.22582-.2786.32893-.18513.6201-.4817.87713-.8915v.95442h1.75067v-9.30155h-1.82616v3.28565c-.2013-.32353-.46552-.57697-.78906-.7603zm.44216 4.9069c-.26601.37745-.65245.56798-1.16291.56798-.51046 0-.88972-.19053-1.14135-.57158-.24984-.38104-.37566-.8897-.37566-1.52599 0-.58955.12402-1.08383.37027-1.48285.24624-.39723.63268-.59674 1.15932-.59674.3451 0 .64886.10964.90948.32892.42599.36128.63808.9652.63808 1.8064 0 .60392-.13121 1.0946-.39723 1.47386zm5.55757-3.32519c.23006-.26062.5518-.39183.9706-.39183.38284 0 .70277.12402.9634.37026.25882.24624.40262.60752.43137 1.08383h-2.79855c.05932-.44755.2031-.79984.43318-1.06226zm2.51815-1.55475c-.46013-.2139-.97599-.32174-1.54756-.32174-.9652 0-1.75067.31814-2.3546.95442-.60392.63628-.90768 1.55116-.90768 2.74284 0 1.27255.33611 2.19103 1.00475 2.75541.67043.56438 1.4433.84658 2.32044.84658 1.06047 0 1.88727-.33612 2.47682-1.00475.37925-.42239.59134-.83759.63807-1.2456h-1.83874c-.09706.2031-.2085.36128-.33611.47451-.23007.2103-.53203.31635-.9023.31635-.35049 0-.64886-.08628-.8969-.26063-.4098-.2768-.62729-.7621-.65245-1.4523h4.71458c.00898-.59494-.01079-1.04968-.05752-1.36602-.07909-.53922-.25343-1.01194-.52304-1.42174-.30017-.46193-.67942-.80164-1.13776-1.01733zm-1.42174-.32174zm8.00562.29478c-.32353-.18334-.6956-.275-1.1126-.275-.90588 0-1.62844.3361-2.16945 1.01013-.54102.67403-.81243 1.59969-.81243 2.77519 0 1.01913.275 1.85312.825 2.50558.55001.65065 1.22584.97598 2.03107.97598.4889 0 .8969-.09346 1.22583-.2786.32892-.18513.6219-.4817.87893-.8915v.95442h1.75066v-9.30155h-1.82616v3.28565c-.2031-.32353-.46552-.57697-.79085-.7603zm.44216 4.9069c-.26422.37745-.65246.56798-1.16292.56798-.50866 0-.88971-.19053-1.13955-.57158-.25164-.38104-.37566-.8897-.37566-1.52599 0-.58955.12223-1.08383.36847-1.48285.24624-.39723.63269-.59674 1.15932-.59674.3469 0 .64886.10964.91129.32892.42418.36128.63807.9652.63807 1.8064 0 .60392-.133 1.0946-.39902 1.47386zm8.68863-1.6626h-1.83874v.2139c0 1.0964.2067 1.96096.6201 2.59544.4116.63269 1.22403.95083 2.43189.95083 1.20965 0 2.04544-.39184 2.50917-1.1755.2732-.46373.4098-1.09103.4098-1.88368v-6.48322h-1.94478v6.51557c0 .44935-.04494.77109-.13301.95982-.14739.31993-.45115.4799-.90949.4799-.46372 0-.76569-.14559-.90768-.43856-.1402-.29298-.21929-.79985-.23726-1.5206zm10.21822 1.70034c-.2822.37386-.6866.5626-1.21325.5626-.52663 0-.93285-.18874-1.21683-.5626-.284-.37565-.42599-.90768-.42599-1.59968 0-.6902.142-1.22223.42599-1.5961.28398-.37205.6902-.55898 1.21683-.55898.52664 0 .93106.18693 1.21325.55899.2822.37386.42419.90589.42419 1.59609 0 .692-.142 1.22403-.42419 1.59968zm1.44151.99397c.58056-.71717.87174-1.58171.87174-2.59365 0-.99396-.29118-1.85492-.87174-2.58466-.58235-.72795-1.46488-1.09282-2.64936-1.09282-1.1827 0-2.06522.36487-2.64757 1.09282-.58056.72974-.87174 1.5907-.87174 2.58466 0 1.01194.29118 1.87648.87174 2.59365.58235.71896 1.46488 1.07844 2.64757 1.07844 1.18448 0 2.067-.35948 2.64936-1.07844zm-2.64936-6.23339zm10.65858 1.01194c-.51226-.65425-1.22223-.97958-2.12633-.97958-.50147 0-.91487.10425-1.2384.31634-.275.16716-.52484.4116-.75311.73154v-3.3108h-1.79381v9.30154h1.76325v-.86455c.23905.33611.46193.57157.66863.70637.3451.22827.80344.34151 1.37142.34151.90589 0 1.61227-.35229 2.11734-1.05507.50507-.70279.7585-1.5907.7585-2.66016 0-1.0317-.25703-1.87468-.7675-2.52714zm-1.50802 4.19513c-.25703.37566-.6165.56259-1.08024.56259-.53562 0-.93285-.19412-1.19527-.58236-.26062-.38644-.39003-.87533-.39003-1.46488 0-.50148.0629-.90949.18872-1.22583.24445-.59494.6938-.8915 1.34626-.8915.64347 0 1.08563.30375 1.32648.90948.12582.32173.19052.72615.19052 1.21324 0 .61112-.12941 1.1036-.38644 1.47926zm4.96622-.33431h-1.82616c0 .70637.25882 1.28873.77468 1.74707.51585.45654 1.3157.6848 2.39773.6848 1.06226 0 1.84593-.21568 2.3546-.64706.50686-.43137.7603-.98857.7603-1.67158 0-.51765-.17615-.95082-.53024-1.29592-.35768-.34151-.8951-.59494-1.61047-.7639-1.07485-.23546-1.70034-.40262-1.87828-.49968-.17615-.09166-.26422-.24265-.26422-.44755 0-.16536.08268-.30915.24984-.43137.16536-.12043.44575-.18154.83759-.18154.47451 0 .81242.12042 1.01014.36487.10604.1348.17075.31814.19591.55h1.801c-.08089-.84118-.39004-1.43432-.93285-1.77762-.54102-.3433-1.24021-.51586-2.10116-.51586-.9041 0-1.60688.22827-2.10656.6866-.49967.45655-.74951 1.00296-.74951 1.63924 0 .53922.15997.95262.4817 1.2384.31994.29119.86994.53204 1.64822.72616 1.08203.25702 1.70932.43856 1.87648.5446.16896.10426.25343.25883.25343.46014 0 .2103-.10424.36847-.31274.47452-.2085.10425-.4907.15817-.84298.15817-.60393 0-1.01553-.12043-1.24021-.36128-.12582-.1348-.2085-.36128-.24624-.68121zm1.3786-4.87276z"/></svg>