<?xml version="1.0" encoding="UTF-8" standalone="no"?>
<!-- Generator: Adobe Illustrator 23.0.1, SVG Export Plug-In . SVG Version: 6.00 Build 0) -->

<svg
   id="Layer_1"
   x="0px"
   y="0px"
   viewBox="0 0 398.30011 200.27499"
   xml:space="preserve"
   version="1.1"
   width="398.30011"
   height="200.27499"
   xmlns="http://www.w3.org/2000/svg"
   xmlns:svg="http://www.w3.org/2000/svg"><defs
   id="defs31" /> <style
   type="text/css"
   id="style1"> .st0{fill:#4C83C3;} </style> <g
   id="g31"
   transform="translate(9.6566519e-5,-42.099998)"> <polygon
   class="st0"
   points="336.1,42.1 398.3,42.1 398.3,53.5 332,53.5 "
   id="polygon1" /> <path
   class="st0"
   d="m 221.5,42.1 h 61.6 l 4,11.5 c 0,0 -65.6,0 -65.6,0 0.1,-0.1 0,-11.5 0,-11.5 z"
   id="path1" /> <path
   class="st0"
   d="m 172.7,42.1 c 10.1,1 19,4.6 26.5,11.5 0,0 -111.6,0 -111.6,0 0,0 0,-11.5 0,-11.5 z"
   id="path2" /> <g
   id="g3"> <rect
   x="0"
   y="42.099998"
   class="st0"
   width="77.5"
   height="11.4"
   id="rect2" /> <path
   class="st0"
   d="M 38.8,47.8"
   id="path3" /> </g> <path
   class="st0"
   d="m 398.3,75 h -73.9 c 0,0 4,-11.4 4,-11.4 h 69.9 z"
   id="path4" /> <polygon
   class="st0"
   points="221.5,63.6 290.7,63.6 294.8,75 221.5,75 "
   id="polygon4" /> <path
   class="st0"
   d="m 207.8,63.6 c 1.5,3.8 3.2,7 3.2,11.4 H 87.6 V 63.6 Z"
   id="path5" /> <g
   id="g6"> <rect
   x="0"
   y="63.599998"
   class="st0"
   width="77.5"
   height="11.4"
   id="rect5" /> <path
   class="st0"
   d="M 38.8,69.3"
   id="path6" /> </g> <polygon
   class="st0"
   points="376.4,85.1 376.4,96.5 316.8,96.5 320.9,85.1 "
   id="polygon6" /> <polygon
   class="st0"
   points="243.4,96.5 243.4,85.1 298.3,85.1 302.4,96.5 "
   id="polygon7" /> <path
   class="st0"
   d="m 212,85 c 0,3.9 -0.5,8 -1.6,11.4 H 176.6 V 85 Z"
   id="path7" /> <g
   id="g8"> <rect
   x="21.6"
   y="85.099998"
   class="st0"
   width="33.299999"
   height="11.4"
   id="rect7" /> <path
   class="st0"
   d="M 38.3,90.8"
   id="path8" /> </g> <g
   id="g9"> <rect
   x="110"
   y="85"
   class="st0"
   width="33.299999"
   height="11.4"
   id="rect8" /> <path
   class="st0"
   d="M 126.6,90.8"
   id="path9" /> </g> <path
   class="st0"
   d="m 276.1,108.8 c 0,0 0,8.7 0,8.7 h -32.8 v -11.4 h 62.4 l 3.9,10.6 c 0,0 3.7,-10.6 3.7,-10.6 h 62.9 v 11.4 h -32.6 c 0,0 0,-8.7 0,-8.7 l -3,8.7 H 279 Z"
   id="path10" /> <path
   class="st0"
   d="m 110,106.1 h 95.5 v 0 c -2.1,3.8 -5.9,8.4 -9.5,11.4 0,0 -86,0 -86,0 z"
   id="path11" /> <g
   id="g12"> <rect
   x="21.6"
   y="106.1"
   class="st0"
   width="33.299999"
   height="11.4"
   id="rect11" /> <path
   class="st0"
   d="M 38.3,111.8"
   id="path12" /> </g> <g
   id="g13"> <rect
   x="343.79999"
   y="127.6"
   class="st0"
   width="32.599998"
   height="11.4"
   id="rect12" /> <path
   class="st0"
   d="M 360.1,133.3"
   id="path13" /> </g> <path
   class="st0"
   d="M 276.1,127.6 H 243.3 V 139 c 0,0 32.8,0 32.8,0 0,-0.1 0.1,-11.4 0,-11.4 z"
   id="path14" /> <path
   class="st0"
   d="m 337.2,127.6 c -0.1,0 -3.8,11.4 -4,11.4 h -46.4 c 0,0 -4.1,-11.4 -4.1,-11.4 z"
   id="path15" /> <path
   class="st0"
   d="m 110,127.6 h 85.8 c 3.9,3.3 7.5,7.3 10.2,11.4 0.2,0 -96.1,0 -96.1,0 0.1,-0.1 0.1,-11.4 0.1,-11.4 z"
   id="path16" /> <path
   class="st0"
   d="M 54.9,138.9 V 127.5 H 21.7 c 0,0 0,11.4 0,11.4 z"
   id="path17" /> <g
   id="g18"> <rect
   x="343.79999"
   y="149"
   class="st0"
   width="32.599998"
   height="11.4"
   id="rect17" /> <path
   class="st0"
   d="M 360.1,154.7"
   id="path18" /> </g> <g
   id="g19"> <rect
   x="243.39999"
   y="149"
   class="st0"
   width="32.799999"
   height="11.4"
   id="rect18" /> <path
   class="st0"
   d="M 259.8,154.7"
   id="path19" /> </g> <path
   class="st0"
   d="m 325.6,160.4 c 0,-0.1 4,-11.4 4.1,-11.4 h -39.5 c -0.1,0 4,11.4 4,11.4 0,0 31.4,0.1 31.4,0 z"
   id="path20" /> <path
   class="st0"
   d="m 110,160.4 c 0,0 0,-11.4 0,-11.4 h 33.8 c 0,0 0,11.4 0,11.4 -0.1,0 -33.8,0 -33.8,0 z"
   id="path21" /> <path
   class="st0"
   d="m 210.8,149 c 1.6,3.4 1.8,7.5 2.1,11.4 H 177.1 V 149 Z"
   id="path22" /> <g
   id="g23"> <rect
   x="21.700001"
   y="149"
   class="st0"
   width="33.299999"
   height="11.4"
   id="rect22" /> <path
   class="st0"
   d="M 38.3,154.7"
   id="path23" /> </g> <g
   id="g24"> <rect
   x="343.79999"
   y="170"
   class="st0"
   width="54.5"
   height="11.4"
   id="rect23" /> <path
   class="st0"
   d="M 371,175.7"
   id="path24" /> </g> <g
   id="g25"> <rect
   x="221.5"
   y="170"
   class="st0"
   width="54.599998"
   height="11.4"
   id="rect24" /> <path
   class="st0"
   d="M 248.8,175.7"
   id="path25" /> </g> <polygon
   class="st0"
   points="297.6,170 322.1,170 318.2,181.4 301.6,181.4 "
   id="polygon25" /> <path
   class="st0"
   d="m 0,170 v 11.4 h 77.5 c 0,0 0,-11.4 0,-11.4 0,0 -77.6,0 -77.5,0 z"
   id="path26" /> <path
   class="st0"
   d="m 211.5,170 c -0.8,3.8 -1.6,8.3 -4.3,11.4 h -1 H 87.6 V 170 Z"
   id="path27" /> <polygon
   class="st0"
   points="305.3,191.5 314.7,191.5 310.7,202.9 309.2,202.9 "
   id="polygon27" /> <g
   id="g28"> <rect
   x="343.79999"
   y="191.5"
   class="st0"
   width="54.5"
   height="11.4"
   id="rect27" /> <path
   class="st0"
   d="M 371,197.2"
   id="path28" /> </g> <path
   class="st0"
   d="m 87.6,202.9 v -11.4 c 0,0 111.9,0 112.2,0 -7.5,7.2 -17.8,11.2 -28.9,11.4 H 87.6"
   id="path29" /> <g
   id="g30"> <rect
   x="221.5"
   y="191.5"
   class="st0"
   width="54.599998"
   height="11.4"
   id="rect29" /> <path
   class="st0"
   d="M 248.8,197.2"
   id="path30" /> </g> <path
   class="st0"
   d="m 77.5,191.5 c 0,0 0,11.4 0,11.4 0,0 -77.4,0 -77.5,0 0,0 0,-11.4 0,-11.4 0,0 77.4,0.1 77.5,0 z"
   id="path31" /> </g> <path
   d="m 139.77744,197.89999 h -7.04688 v -1.08593 l 5.08594,-6.41407 h -4.97656 v -1.22656 h 6.80468 v 1.04688 l -5.10937,6.4375 h 5.24219 z m 7.35156,-12.15625 -5.60156,14.53125 h -1.35157 l 5.57813,-14.53125 z m 10.78125,1.85938 q 0.71094,0.78125 1.08594,1.91406 0.38281,1.13281 0.38281,2.57031 0,1.4375 -0.39063,2.57813 -0.38281,1.13281 -1.07812,1.89062 -0.71875,0.78907 -1.70313,1.1875 -0.97656,0.39844 -2.23437,0.39844 -1.22656,0 -2.23438,-0.40625 -1,-0.40625 -1.70312,-1.17969 -0.70313,-0.77343 -1.08594,-1.89843 -0.375,-1.125 -0.375,-2.57032 0,-1.42187 0.375,-2.54687 0.375,-1.13281 1.09375,-1.9375 0.6875,-0.76563 1.70313,-1.17188 1.02343,-0.40625 2.22656,-0.40625 1.25,0 2.24219,0.41407 1,0.40625 1.69531,1.16406 z m -0.14063,4.48437 q 0,-2.26562 -1.01562,-3.49218 -1.01563,-1.23438 -2.77344,-1.23438 -1.77344,0 -2.78906,1.23438 -1.00781,1.22656 -1.00781,3.49218 0,2.28907 1.03125,3.50782 1.03125,1.21093 2.76562,1.21093 1.73438,0 2.75781,-1.21093 1.03125,-1.21875 1.03125,-3.50782 z m 12.51563,2.49219 q 0,0.67969 -0.32031,1.34375 -0.3125,0.66406 -0.88282,1.125 -0.625,0.5 -1.46093,0.78125 -0.82813,0.28125 -2,0.28125 -1.25782,0 -2.26563,-0.23437 -1,-0.23438 -2.03906,-0.69532 v -1.9375 h 0.10937 q 0.88282,0.73438 2.03907,1.13282 1.15625,0.39843 2.17187,0.39843 1.4375,0 2.23438,-0.53906 0.80468,-0.53906 0.80468,-1.4375 0,-0.77344 -0.38281,-1.14062 -0.375,-0.36719 -1.14844,-0.57032 -0.58593,-0.15625 -1.27343,-0.25781 -0.67969,-0.10156 -1.44532,-0.25781 -1.54687,-0.32813 -2.29687,-1.11719 -0.74219,-0.79687 -0.74219,-2.07031 0,-1.46094 1.23438,-2.39063 1.23437,-0.9375 3.13281,-0.9375 1.22656,0 2.25,0.23438 1.02344,0.23437 1.8125,0.57812 v 1.82813 h -0.10938 q -0.66406,-0.5625 -1.75,-0.92969 -1.07812,-0.375 -2.21093,-0.375 -1.24219,0 -2,0.51563 -0.75,0.51562 -0.75,1.32812 0,0.72656 0.375,1.14063 0.375,0.41406 1.32031,0.63281 0.5,0.10937 1.42187,0.26562 0.92188,0.15625 1.5625,0.32032 1.29688,0.34375 1.95313,1.03906 0.65625,0.69531 0.65625,1.94531 z m 17.09375,2.47656 q -0.42969,0.1875 -0.78125,0.35157 -0.34375,0.16406 -0.90625,0.34375 -0.47656,0.14843 -1.03906,0.25 -0.55469,0.10937 -1.22657,0.10937 -1.26562,0 -2.30468,-0.35156 -1.03125,-0.35938 -1.79688,-1.11719 -0.75,-0.74219 -1.17187,-1.88281 -0.42188,-1.14844 -0.42188,-2.66406 0,-1.4375 0.40625,-2.57032 0.40625,-1.13281 1.17188,-1.91406 0.74218,-0.75781 1.78906,-1.15625 1.05469,-0.39844 2.33594,-0.39844 0.9375,0 1.86718,0.22657 0.9375,0.22656 2.07813,0.79687 v 1.83594 h -0.11719 q -0.96094,-0.80469 -1.90625,-1.17188 -0.94531,-0.36718 -2.02344,-0.36718 -0.88281,0 -1.59375,0.28906 -0.70312,0.28125 -1.25781,0.88281 -0.53906,0.58594 -0.84375,1.48438 -0.29687,0.89062 -0.29687,2.0625 0,1.22656 0.32812,2.10937 0.33594,0.88281 0.85938,1.4375 0.54687,0.57813 1.27343,0.85938 0.73438,0.27343 1.54688,0.27343 1.11719,0 2.09375,-0.38281 0.97656,-0.38281 1.82812,-1.14844 h 0.10938 z m 9.50781,-3.51562 q 0,2.13281 -1.09375,3.36719 -1.09375,1.23437 -2.92969,1.23437 -1.85156,0 -2.94531,-1.23437 -1.08594,-1.23438 -1.08594,-3.36719 0,-2.13281 1.08594,-3.36719 1.09375,-1.24219 2.94531,-1.24219 1.83594,0 2.92969,1.24219 1.09375,1.23438 1.09375,3.36719 z m -1.51562,0 q 0,-1.69531 -0.66407,-2.51563 -0.66406,-0.82812 -1.84375,-0.82812 -1.19531,0 -1.85937,0.82812 -0.65625,0.82032 -0.65625,2.51563 0,1.64062 0.66406,2.49219 0.66406,0.84375 1.85156,0.84375 1.17188,0 1.83594,-0.83594 0.67188,-0.84375 0.67188,-2.5 z m 11.08593,4.35937 h -1.46875 v -4.96875 q 0,-0.60156 -0.0703,-1.125 -0.0703,-0.53125 -0.25781,-0.82812 -0.19531,-0.32813 -0.5625,-0.48438 -0.36719,-0.16406 -0.95313,-0.16406 -0.60156,0 -1.25781,0.29688 -0.65625,0.29687 -1.25781,0.75781 v 6.51562 h -1.46875 v -8.72656 h 1.46875 v 0.96875 q 0.6875,-0.57031 1.42187,-0.89062 0.73438,-0.32032 1.50782,-0.32032 1.41406,0 2.15625,0.85157 0.74218,0.85156 0.74218,2.45312 z m 10.125,0 h -1.46875 v -4.96875 q 0,-0.60156 -0.0703,-1.125 -0.0703,-0.53125 -0.25781,-0.82812 -0.19531,-0.32813 -0.5625,-0.48438 -0.36719,-0.16406 -0.95313,-0.16406 -0.60156,0 -1.25781,0.29688 -0.65625,0.29687 -1.25781,0.75781 v 6.51562 h -1.46875 v -8.72656 h 1.46875 v 0.96875 q 0.6875,-0.57031 1.42187,-0.89062 0.73438,-0.32032 1.50782,-0.32032 1.41406,0 2.15625,0.85157 0.74218,0.85156 0.74218,2.45312 z m 10.13282,-4.21093 h -6.42969 q 0,0.80468 0.24219,1.40625 0.24218,0.59375 0.66406,0.97656 0.40625,0.375 0.96094,0.5625 0.5625,0.1875 1.23437,0.1875 0.89063,0 1.78906,-0.35156 0.90625,-0.35938 1.28907,-0.70313 h 0.0781 v 1.60156 q -0.74219,0.3125 -1.51562,0.52344 -0.77344,0.21094 -1.625,0.21094 -2.17188,0 -3.39063,-1.17188 -1.21875,-1.17968 -1.21875,-3.34375 0,-2.14062 1.16406,-3.39843 1.17188,-1.25782 3.07813,-1.25782 1.76562,0 2.71875,1.03125 0.96094,1.03125 0.96094,2.92969 z m -1.42969,-1.125 q -0.008,-1.15625 -0.58594,-1.78907 -0.57031,-0.63281 -1.74219,-0.63281 -1.17968,0 -1.88281,0.69531 -0.69531,0.69532 -0.78906,1.72657 z m 10.10937,4.78906 q -0.73437,0.35156 -1.39843,0.54687 -0.65625,0.19532 -1.39844,0.19532 -0.94531,0 -1.73438,-0.27344 -0.78906,-0.28125 -1.35156,-0.84375 -0.57031,-0.5625 -0.88281,-1.42188 -0.3125,-0.85937 -0.3125,-2.00781 0,-2.14062 1.17187,-3.35937 1.17969,-1.21875 3.10938,-1.21875 0.75,0 1.46875,0.21093 0.72656,0.21094 1.32812,0.51563 v 1.63281 h -0.0781 q -0.67188,-0.52344 -1.39063,-0.80469 -0.71093,-0.28125 -1.39062,-0.28125 -1.25,0 -1.97656,0.84375 -0.71875,0.83594 -0.71875,2.46094 0,1.57813 0.70312,2.42969 0.71094,0.84375 1.99219,0.84375 0.44531,0 0.90625,-0.11719 0.46094,-0.11719 0.82812,-0.30469 0.32032,-0.16406 0.60157,-0.34375 0.28125,-0.1875 0.44531,-0.32031 h 0.0781 z m 6.41407,0.46875 q -0.41407,0.10937 -0.90625,0.17969 -0.48438,0.0703 -0.86719,0.0703 -1.33594,0 -2.03125,-0.71875 -0.69531,-0.71875 -0.69531,-2.30469 v -4.64062 h -0.99219 v -1.23438 h 0.99219 v -2.50781 h 1.46875 v 2.50781 h 3.03125 v 1.23438 h -3.03125 v 3.97656 q 0,0.6875 0.0312,1.07812 0.0312,0.38282 0.21875,0.71875 0.17187,0.3125 0.46875,0.46094 0.30468,0.14063 0.92187,0.14063 0.35938,0 0.75,-0.10157 0.39063,-0.10937 0.5625,-0.17968 h 0.0781 z m 15.17968,0.0781 h -7.66406 v -11.63281 h 7.66406 v 1.375 h -6.11718 v 3.1875 h 6.11718 v 1.375 h -6.11718 v 4.32031 h 6.11718 z m 10.11719,0 h -7.66406 v -11.63281 h 7.66406 v 1.375 h -6.11719 v 3.1875 h 6.11719 v 1.375 h -6.11719 v 4.32031 h 6.11719 z"
   id="text31"
   style="font-size:16px;text-anchor:middle"
   aria-label="z/OS Connect EE" /></svg>
