<?xml version="1.0" encoding="UTF-8" standalone="no"?>
<svg
   xmlns:dc="http://purl.org/dc/elements/1.1/"
   xmlns:cc="http://creativecommons.org/ns#"
   xmlns:rdf="http://www.w3.org/1999/02/22-rdf-syntax-ns#"
   xmlns:svg="http://www.w3.org/2000/svg"
   xmlns="http://www.w3.org/2000/svg"
   id="Layer_1"
   x="0px"
   y="0px"
   viewBox="0 0 400 300"
   style="enable-background:new 0 0 400 245;"
   xml:space="preserve"
   version="1.1"><metadata
   id="metadata139"><rdf:RDF><cc:Work
       rdf:about=""><dc:format>image/svg+xml</dc:format><dc:type
         rdf:resource="http://purl.org/dc/dcmitype/StillImage" /></cc:Work></rdf:RDF></metadata><defs
   id="defs137" /> <style
   type="text/css"
   id="style2"> .st0{fill:#4C83C3;} </style> <g
   id="g130"> <path
   id="polygon4"
   style="fill:#4c83c3"
   d="m 336.1,42.1 h 62.2 V 53.5 H 332 Z"
   class="st0" /> <path
   class="st0"
   d="m 221.5,42.1 h 61.6 l 4,11.5 c 0,0 -65.6,0 -65.6,0 0.1,-0.1 0,-11.5 0,-11.5 z"
   id="path6" /> <path
   class="st0"
   d="m 172.7,42.1 c 10.1,1 19,4.6 26.5,11.5 0,0 -111.6,0 -111.6,0 0,0 0,-11.5 0,-11.5 z"
   id="path8" /> <g
   id="g14"> <path
   id="rect10"
   style="fill:#4c83c3"
   d="m 0,42.099998 h 77.5 v 11.4 H 0 Z"
   class="st0" /> <path
   class="st0"
   d="M 38.8,47.8"
   id="path12" /> </g> <path
   class="st0"
   d="m 398.3,75 h -73.9 c 0,0 4,-11.4 4,-11.4 h 69.9 z"
   id="path16" /> <path
   id="polygon18"
   style="fill:#4c83c3"
   d="m 221.5,63.6 h 69.2 l 4.1,11.4 h -73.3 z"
   class="st0" /> <path
   class="st0"
   d="m 207.8,63.6 c 1.5,3.8 3.2,7 3.2,11.4 H 87.6 V 63.6 Z"
   id="path20" /> <g
   id="g26"> <path
   id="rect22"
   style="fill:#4c83c3"
   d="m 0,63.599998 h 77.5 v 11.4 H 0 Z"
   class="st0" /> <path
   class="st0"
   d="M 38.8,69.3"
   id="path24" /> </g> <path
   id="polygon28"
   style="fill:#4c83c3"
   d="m 376.4,85.1 v 11.4 h -59.6 l 4.1,-11.4 z"
   class="st0" /> <path
   id="polygon30"
   style="fill:#4c83c3"
   d="M 243.4,96.5 V 85.1 h 54.9 l 4.1,11.4 z"
   class="st0" /> <path
   class="st0"
   d="m 212,85 c 0,3.9 -0.5,8 -1.6,11.4 H 176.6 V 85 Z"
   id="path32" /> <g
   id="g38"> <path
   id="rect34"
   style="fill:#4c83c3"
   d="m 21.6,85.099998 h 33.3 v 11.4 H 21.6 Z"
   class="st0" /> <path
   class="st0"
   d="M 38.3,90.8"
   id="path36" /> </g> <g
   id="g44"> <path
   id="rect40"
   style="fill:#4c83c3"
   d="m 110,85 h 33.3 V 96.4 H 110 Z"
   class="st0" /> <path
   class="st0"
   d="M 126.6,90.8"
   id="path42" /> </g> <path
   class="st0"
   d="m 276.1,108.8 c 0,0 0,8.7 0,8.7 h -32.8 v -11.4 h 62.4 l 3.9,10.6 c 0,0 3.7,-10.6 3.7,-10.6 h 62.9 v 11.4 h -32.6 c 0,0 0,-8.7 0,-8.7 l -3,8.7 H 279 Z"
   id="path46" /> <path
   class="st0"
   d="m 110,106.1 h 95.5 v 0 c -2.1,3.8 -5.9,8.4 -9.5,11.4 0,0 -86,0 -86,0 0,0 0,-11.4 0,-11.4 z"
   id="path48" /> <g
   id="g54"> <path
   id="rect50"
   style="fill:#4c83c3"
   d="m 21.6,106.1 h 33.3 v 11.4 H 21.6 Z"
   class="st0" /> <path
   class="st0"
   d="M 38.3,111.8"
   id="path52" /> </g> <g
   id="g60"> <path
   id="rect56"
   style="fill:#4c83c3"
   d="m 343.79999,127.6 h 32.6 V 139 h -32.6 z"
   class="st0" /> <path
   class="st0"
   d="M 360.1,133.3"
   id="path58" /> </g> <path
   class="st0"
   d="M 276.1,127.6 H 243.3 V 139 c 0,0 32.8,0 32.8,0 0,-0.1 0.1,-11.4 0,-11.4 z"
   id="path62" /> <path
   class="st0"
   d="m 337.2,127.6 c -0.1,0 -3.8,11.4 -4,11.4 h -46.4 c 0,0 -4.1,-11.4 -4.1,-11.4 z"
   id="path64" /> <path
   class="st0"
   d="m 110,127.6 h 85.8 c 3.9,3.3 7.5,7.3 10.2,11.4 0.2,0 -96.1,0 -96.1,0 0.1,-0.1 0.1,-11.4 0.1,-11.4 z"
   id="path66" /> <path
   class="st0"
   d="M 54.9,138.9 V 127.5 H 21.7 c 0,0 0,11.4 0,11.4 0,0 33.2,0 33.2,0 z"
   id="path68" /> <g
   id="g74"> <path
   id="rect70"
   style="fill:#4c83c3"
   d="m 343.79999,149 h 32.6 v 11.4 h -32.6 z"
   class="st0" /> <path
   class="st0"
   d="M 360.1,154.7"
   id="path72" /> </g> <g
   id="g80"> <path
   id="rect76"
   style="fill:#4c83c3"
   d="m 243.39999,149 h 32.8 v 11.4 h -32.8 z"
   class="st0" /> <path
   class="st0"
   d="M 259.8,154.7"
   id="path78" /> </g> <path
   class="st0"
   d="m 325.6,160.4 c 0,-0.1 4,-11.4 4.1,-11.4 h -39.5 c -0.1,0 4,11.4 4,11.4 0,0 31.4,0.1 31.4,0 z"
   id="path82" /> <path
   class="st0"
   d="m 110,160.4 c 0,0 0,-11.4 0,-11.4 h 33.8 c 0,0 0,11.4 0,11.4 -0.1,0 -33.8,0 -33.8,0 z"
   id="path84" /> <path
   class="st0"
   d="m 210.8,149 c 1.6,3.4 1.8,7.5 2.1,11.4 H 177.1 V 149 Z"
   id="path86" /> <g
   id="g92"> <path
   id="rect88"
   style="fill:#4c83c3"
   d="M 21.700001,149 H 55 v 11.4 H 21.700001 Z"
   class="st0" /> <path
   class="st0"
   d="M 38.3,154.7"
   id="path90" /> </g> <g
   id="g98"> <path
   id="rect94"
   style="fill:#4c83c3"
   d="m 343.79999,170 h 54.5 v 11.4 h -54.5 z"
   class="st0" /> <path
   class="st0"
   d="M 371,175.7"
   id="path96" /> </g> <g
   id="g104"> <path
   id="rect100"
   style="fill:#4c83c3"
   d="m 221.5,170 h 54.6 v 11.4 h -54.6 z"
   class="st0" /> <path
   class="st0"
   d="M 248.8,175.7"
   id="path102" /> </g> <path
   id="polygon106"
   style="fill:#4c83c3"
   d="m 297.6,170 h 24.5 l -3.9,11.4 h -16.6 z"
   class="st0" /> <path
   class="st0"
   d="m 0,170 v 11.4 h 77.5 c 0,0 0,-11.4 0,-11.4 0,0 -77.6,0 -77.5,0 z"
   id="path108" /> <path
   class="st0"
   d="m 211.5,170 c -0.8,3.8 -1.6,8.3 -4.3,11.4 h -1 H 87.6 V 170 Z"
   id="path110" /> <path
   id="polygon112"
   style="fill:#4c83c3"
   d="m 305.3,191.5 h 9.4 l -4,11.4 h -1.5 z"
   class="st0" /> <g
   id="g118"> <path
   id="rect114"
   style="fill:#4c83c3"
   d="m 343.79999,191.5 h 54.5 v 11.4 h -54.5 z"
   class="st0" /> <path
   class="st0"
   d="M 371,197.2"
   id="path116" /> </g> <path
   class="st0"
   d="m 87.6,202.9 v -11.4 c 0,0 111.9,0 112.2,0 -7.5,7.2 -17.8,11.2 -28.9,11.4 H 87.6"
   id="path120" /> <g
   id="g126"> <path
   id="rect122"
   style="fill:#4c83c3"
   d="m 221.5,191.5 h 54.6 v 11.4 h -54.6 z"
   class="st0" /> <path
   class="st0"
   d="M 248.8,197.2"
   id="path124" /> </g> <path
   class="st0"
   d="m 77.5,191.5 c 0,0 0,11.4 0,11.4 0,0 -77.4,0 -77.5,0 0,0 0,-11.4 0,-11.4 0,0 77.4,0.1 77.5,0 z"
   id="path128" /> </g> <g
   aria-label="Zowe CLI CICS Deploy"
   id="text132"
   style="font-style:normal;font-variant:normal;font-weight:normal;font-stretch:normal;font-size:22px;line-height:normal;font-family:sans-serif;text-anchor:middle"><path
     d="M 88.345703,240 H 75.863281 v -1.97656 l 9.807617,-12.12793 h -9.442382 v -1.89063 h 11.880859 v 1.92285 l -9.904297,12.18164 h 10.140625 z"
     style="font-style:normal;font-variant:normal;font-weight:normal;font-stretch:normal;font-size:22px;line-height:normal;font-family:sans-serif;text-anchor:middle"
     id="path160" /><path
     d="m 101.80566,234.00586 q 0,2.93262 -1.5039,4.62988 -1.503908,1.69727 -4.028323,1.69727 -2.545898,0 -4.049804,-1.69727 -1.493164,-1.69726 -1.493164,-4.62988 0,-2.93262 1.493164,-4.62988 1.503906,-1.70801 4.049804,-1.70801 2.524415,0 4.028323,1.70801 1.5039,1.69726 1.5039,4.62988 z m -2.08398,0 q 0,-2.33106 -0.913086,-3.45899 -0.913086,-1.13867 -2.535157,-1.13867 -1.643554,0 -2.55664,1.13867 -0.902344,1.12793 -0.902344,3.45899 0,2.25586 0.913086,3.42676 0.913086,1.16015 2.545898,1.16015 1.611329,0 2.524415,-1.14941 0.923828,-1.16016 0.923828,-3.4375 z"
     style="font-style:normal;font-variant:normal;font-weight:normal;font-stretch:normal;font-size:22px;line-height:normal;font-family:sans-serif;text-anchor:middle"
     id="path162" /><path
     d="M 120.03516,228.00098 116.90918,240 h -1.86914 L 111.95703,230.75098 108.89551,240 h -1.8584 l -3.1582,-11.99902 h 2.10547 l 2.20214,9.29199 2.99707,-9.29199 h 1.66504 l 3.07227,9.29199 2.08398,-9.29199 z"
     style="font-style:normal;font-variant:normal;font-weight:normal;font-stretch:normal;font-size:22px;line-height:normal;font-family:sans-serif;text-anchor:middle"
     id="path164" /><path
     d="m 132.99023,234.20996 h -8.84082 q 0,1.10645 0.33301,1.93359 0.33301,0.81641 0.91309,1.34278 0.55859,0.51562 1.32129,0.77344 0.77343,0.25781 1.69726,0.25781 1.22461,0 2.45996,-0.4834 1.2461,-0.49414 1.77246,-0.9668 h 0.10743 v 2.20215 q -1.02051,0.42969 -2.08399,0.71973 -1.06347,0.29004 -2.23437,0.29004 -2.98633,0 -4.66211,-1.61133 -1.67578,-1.62207 -1.67578,-4.59766 0,-2.94336 1.60058,-4.67285 1.61133,-1.72949 4.23242,-1.72949 2.42774,0 3.73829,1.41797 1.32128,1.41797 1.32128,4.02832 z m -1.96582,-1.54687 q -0.0107,-1.58985 -0.80566,-2.45997 -0.78418,-0.87011 -2.39551,-0.87011 -1.62207,0 -2.58886,0.95605 -0.95606,0.95606 -1.08497,2.37403 z"
     style="font-style:normal;font-variant:normal;font-weight:normal;font-stretch:normal;font-size:22px;line-height:normal;font-family:sans-serif;text-anchor:middle"
     id="path166" /><path
     d="m 156.30078,238.83984 q -0.59082,0.25782 -1.07422,0.4834 -0.47265,0.22559 -1.24609,0.47266 -0.65527,0.2041 -1.42871,0.34375 -0.7627,0.15039 -1.68653,0.15039 -1.74023,0 -3.16894,-0.4834 -1.41797,-0.49414 -2.4707,-1.53613 -1.03125,-1.02051 -1.61133,-2.58887 -0.58008,-1.5791 -0.58008,-3.66309 0,-1.97656 0.55859,-3.53418 0.5586,-1.55761 1.61133,-2.63183 1.02051,-1.04199 2.45996,-1.58984 1.4502,-0.54786 3.21192,-0.54786 1.28906,0 2.56738,0.31153 1.28906,0.31152 2.85742,1.0957 v 2.52441 h -0.16113 q -1.32129,-1.10644 -2.6211,-1.61132 -1.2998,-0.50489 -2.78222,-0.50489 -1.21387,0 -2.19141,0.39746 -0.9668,0.38672 -1.72949,1.21387 -0.74121,0.80567 -1.16016,2.04102 -0.4082,1.22461 -0.4082,2.83593 0,1.68653 0.45117,2.9004 0.46192,1.21386 1.18164,1.97656 0.75196,0.79492 1.75098,1.18164 1.00976,0.37597 2.12695,0.37597 1.53614,0 2.87891,-0.52636 1.34277,-0.52637 2.51367,-1.5791 h 0.15039 z"
     style="font-style:normal;font-variant:normal;font-weight:normal;font-stretch:normal;font-size:22px;line-height:normal;font-family:sans-serif;text-anchor:middle"
     id="path168" /><path
     d="m 169.44922,240 h -10.11914 v -15.99512 h 2.12695 v 14.10449 h 7.99219 z"
     style="font-style:normal;font-variant:normal;font-weight:normal;font-stretch:normal;font-size:22px;line-height:normal;font-family:sans-serif;text-anchor:middle"
     id="path170" /><path
     d="m 177.21582,240 h -6.31641 v -1.63281 h 2.09473 V 225.6377 h -2.09473 v -1.63282 h 6.31641 v 1.63282 h -2.09473 v 12.72949 h 2.09473 z"
     style="font-style:normal;font-variant:normal;font-weight:normal;font-stretch:normal;font-size:22px;line-height:normal;font-family:sans-serif;text-anchor:middle"
     id="path172" /><path
     d="m 200.94531,238.83984 q -0.59082,0.25782 -1.07422,0.4834 -0.47265,0.22559 -1.24609,0.47266 -0.65527,0.2041 -1.42871,0.34375 -0.7627,0.15039 -1.68652,0.15039 -1.74024,0 -3.16895,-0.4834 -1.41797,-0.49414 -2.4707,-1.53613 -1.03125,-1.02051 -1.61133,-2.58887 -0.58008,-1.5791 -0.58008,-3.66309 0,-1.97656 0.55859,-3.53418 0.5586,-1.55761 1.61133,-2.63183 1.02051,-1.04199 2.45996,-1.58984 1.4502,-0.54786 3.21192,-0.54786 1.28906,0 2.56738,0.31153 1.28906,0.31152 2.85742,1.0957 v 2.52441 h -0.16113 q -1.32129,-1.10644 -2.62109,-1.61132 -1.29981,-0.50489 -2.78223,-0.50489 -1.21387,0 -2.19141,0.39746 -0.96679,0.38672 -1.72949,1.21387 -0.74121,0.80567 -1.16016,2.04102 -0.4082,1.22461 -0.4082,2.83593 0,1.68653 0.45117,2.9004 0.46192,1.21386 1.18164,1.97656 0.75196,0.79492 1.75098,1.18164 1.00977,0.37597 2.12695,0.37597 1.53614,0 2.87891,-0.52636 1.34277,-0.52637 2.51367,-1.5791 h 0.15039 z"
     style="font-style:normal;font-variant:normal;font-weight:normal;font-stretch:normal;font-size:22px;line-height:normal;font-family:sans-serif;text-anchor:middle"
     id="path174" /><path
     d="m 209.61426,240 h -6.31641 v -1.63281 h 2.09473 V 225.6377 h -2.09473 v -1.63282 h 6.31641 v 1.63282 h -2.09473 v 12.72949 h 2.09473 z"
     style="font-style:normal;font-variant:normal;font-weight:normal;font-stretch:normal;font-size:22px;line-height:normal;font-family:sans-serif;text-anchor:middle"
     id="path176" /><path
     d="m 225.60937,238.83984 q -0.59082,0.25782 -1.07421,0.4834 -0.47266,0.22559 -1.2461,0.47266 -0.65527,0.2041 -1.42871,0.34375 -0.76269,0.15039 -1.68652,0.15039 -1.74024,0 -3.16895,-0.4834 -1.41797,-0.49414 -2.4707,-1.53613 -1.03125,-1.02051 -1.61133,-2.58887 -0.58008,-1.5791 -0.58008,-3.66309 0,-1.97656 0.5586,-3.53418 0.55859,-1.55761 1.61133,-2.63183 1.0205,-1.04199 2.45996,-1.58984 1.45019,-0.54786 3.21191,-0.54786 1.28906,0 2.56738,0.31153 1.28907,0.31152 2.85742,1.0957 v 2.52441 h -0.16113 q -1.32129,-1.10644 -2.62109,-1.61132 -1.29981,-0.50489 -2.78223,-0.50489 -1.21387,0 -2.1914,0.39746 -0.9668,0.38672 -1.7295,1.21387 -0.74121,0.80567 -1.16015,2.04102 -0.40821,1.22461 -0.40821,2.83593 0,1.68653 0.45118,2.9004 0.46191,1.21386 1.18164,1.97656 0.75195,0.79492 1.75097,1.18164 1.00977,0.37597 2.12696,0.37597 1.53613,0 2.8789,-0.52636 1.34278,-0.52637 2.51367,-1.5791 h 0.15039 z"
     style="font-style:normal;font-variant:normal;font-weight:normal;font-stretch:normal;font-size:22px;line-height:normal;font-family:sans-serif;text-anchor:middle"
     id="path178" /><path
     d="m 240.26172,235.43457 q 0,0.93457 -0.44043,1.84766 -0.42969,0.91308 -1.21387,1.54687 -0.85937,0.6875 -2.00879,1.07422 -1.13867,0.38672 -2.75,0.38672 -1.72949,0 -3.11523,-0.32227 -1.375,-0.32226 -2.80371,-0.95605 v -2.66406 h 0.15039 q 1.21387,1.00976 2.80371,1.55761 1.58984,0.54785 2.98633,0.54785 1.97656,0 3.07226,-0.74121 1.10645,-0.74121 1.10645,-1.97656 0,-1.06348 -0.52637,-1.56836 -0.51562,-0.50488 -1.5791,-0.78418 -0.80566,-0.21484 -1.75098,-0.35449 -0.93457,-0.13965 -1.9873,-0.35449 -2.12696,-0.45117 -3.15821,-1.53613 -1.0205,-1.09571 -1.0205,-2.84668 0,-2.00879 1.69726,-3.28711 1.69727,-1.28907 4.30762,-1.28907 1.68652,0 3.09375,0.32227 1.40723,0.32226 2.49219,0.79492 v 2.51367 h -0.15039 q -0.91309,-0.77343 -2.40625,-1.27832 -1.48243,-0.51562 -3.04004,-0.51562 -1.70801,0 -2.75,0.70898 -1.03125,0.70899 -1.03125,1.82617 0,0.99903 0.51562,1.56836 0.51563,0.56934 1.81543,0.87012 0.6875,0.15039 1.95508,0.36523 1.26758,0.21485 2.14844,0.44043 1.7832,0.47266 2.68554,1.42872 0.90235,0.95605 0.90235,2.6748 z"
     style="font-style:normal;font-variant:normal;font-weight:normal;font-stretch:normal;font-size:22px;line-height:normal;font-family:sans-serif;text-anchor:middle"
     id="path180" /><path
     d="m 264.92578,232.01855 q 0,2.18067 -0.95605,3.95313 -0.94532,1.77246 -2.52442,2.75 -1.0957,0.67676 -2.44922,0.97754 Q 257.65332,240 255.45117,240 h -4.03906 v -15.99512 h 3.99609 q 2.3418,0 3.7168,0.34375 1.38574,0.33301 2.3418,0.92383 1.63281,1.02051 2.5459,2.71777 0.91308,1.69727 0.91308,4.02832 z m -2.22363,-0.0322 q 0,-1.87988 -0.65528,-3.16895 -0.65527,-1.28906 -1.95507,-2.03027 -0.94532,-0.53711 -2.00879,-0.74121 -1.06348,-0.21485 -2.5459,-0.21485 h -1.99805 v 12.34278 h 1.99805 q 1.53613,0 2.6748,-0.22559 1.14942,-0.22558 2.10547,-0.83789 1.19239,-0.76269 1.78321,-2.00879 0.60156,-1.24609 0.60156,-3.11523 z"
     style="font-style:normal;font-variant:normal;font-weight:normal;font-stretch:normal;font-size:22px;line-height:normal;font-family:sans-serif;text-anchor:middle"
     id="path182" /><path
     d="m 278.26758,234.20996 h -8.84082 q 0,1.10645 0.33301,1.93359 0.333,0.81641 0.91308,1.34278 0.5586,0.51562 1.32129,0.77344 0.77344,0.25781 1.69727,0.25781 1.22461,0 2.45996,-0.4834 1.24609,-0.49414 1.77246,-0.9668 h 0.10742 v 2.20215 q -1.02051,0.42969 -2.08398,0.71973 -1.06348,0.29004 -2.23438,0.29004 -2.98633,0 -4.66211,-1.61133 -1.67578,-1.62207 -1.67578,-4.59766 0,-2.94336 1.60059,-4.67285 1.61132,-1.72949 4.23242,-1.72949 2.42773,0 3.73828,1.41797 1.32129,1.41797 1.32129,4.02832 z m -1.96582,-1.54687 q -0.0107,-1.58985 -0.80567,-2.45997 -0.78418,-0.87011 -2.3955,-0.87011 -1.62207,0 -2.58887,0.95605 -0.95606,0.95606 -1.08496,2.37403 z"
     style="font-style:normal;font-variant:normal;font-weight:normal;font-stretch:normal;font-size:22px;line-height:normal;font-family:sans-serif;text-anchor:middle"
     id="path184" /><path
     d="m 291.88867,233.85547 q 0,1.46094 -0.41894,2.6748 -0.41895,1.20313 -1.18164,2.04102 -0.70899,0.79492 -1.67579,1.23535 -0.95605,0.42969 -2.03027,0.42969 -0.93457,0 -1.69726,-0.2041 -0.75196,-0.20411 -1.53614,-0.63379 v 5.02734 h -2.01953 v -16.4248 h 2.01953 v 1.25683 q 0.80567,-0.67676 1.80469,-1.12793 1.00977,-0.46191 2.14844,-0.46191 2.16992,0 3.37304,1.64355 1.21387,1.63282 1.21387,4.54395 z m -2.08398,0.0537 q 0,-2.16992 -0.74121,-3.24414 -0.74121,-1.07422 -2.27735,-1.07422 -0.87011,0 -1.75097,0.37598 -0.88086,0.37597 -1.68653,0.98828 v 6.7998 q 0.85938,0.38672 1.47168,0.52637 0.62305,0.13965 1.40723,0.13965 1.68652,0 2.63183,-1.13867 0.94532,-1.13868 0.94532,-3.37305 z"
     style="font-style:normal;font-variant:normal;font-weight:normal;font-stretch:normal;font-size:22px;line-height:normal;font-family:sans-serif;text-anchor:middle"
     id="path186" /><path
     d="m 297.07715,240 h -2.01953 v -16.71484 h 2.01953 z"
     style="font-style:normal;font-variant:normal;font-weight:normal;font-stretch:normal;font-size:22px;line-height:normal;font-family:sans-serif;text-anchor:middle"
     id="path188" /><path
     d="m 311.32129,234.00586 q 0,2.93262 -1.50391,4.62988 -1.5039,1.69727 -4.02832,1.69727 -2.5459,0 -4.0498,-1.69727 -1.49317,-1.69726 -1.49317,-4.62988 0,-2.93262 1.49317,-4.62988 1.5039,-1.70801 4.0498,-1.70801 2.52442,0 4.02832,1.70801 1.50391,1.69726 1.50391,4.62988 z m -2.08399,0 q 0,-2.33106 -0.91308,-3.45899 -0.91309,-1.13867 -2.53516,-1.13867 -1.64355,0 -2.55664,1.13867 -0.90234,1.12793 -0.90234,3.45899 0,2.25586 0.91308,3.42676 0.91309,1.16015 2.5459,1.16015 1.61133,0 2.52442,-1.14941 0.92382,-1.16016 0.92382,-3.4375 z"
     style="font-style:normal;font-variant:normal;font-weight:normal;font-stretch:normal;font-size:22px;line-height:normal;font-family:sans-serif;text-anchor:middle"
     id="path190" /><path
     d="m 324.83496,228.00098 -7.00391,16.4248 h -2.15918 l 2.23438,-5.00586 -4.78027,-11.41894 h 2.1914 l 3.68457,8.89453 3.7168,-8.89453 z"
     style="font-style:normal;font-variant:normal;font-weight:normal;font-stretch:normal;font-size:22px;line-height:normal;font-family:sans-serif;text-anchor:middle"
     id="path192" /></g></svg>
