<?xml version="1.0" encoding="UTF-8" standalone="no"?>
<!-- Generator: Adobe Illustrator 23.0.1, SVG Export Plug-In . SVG Version: 6.00 Build 0) -->

<svg
   id="Layer_1"
   x="0px"
   y="0px"
   viewBox="0 0 400 300"
   style="enable-background:new 0 0 400 245;"
   xml:space="preserve"
   version="1.1"
   xmlns="http://www.w3.org/2000/svg"
   xmlns:svg="http://www.w3.org/2000/svg"><defs
   id="defs137" /> <style
   type="text/css"
   id="style2"> .st0{fill:#4C83C3;} </style> <g
   id="g130"> <path
   id="polygon4"
   class="st0"
   style="fill:#4c83c3"
   d="m 336.1,42.1 h 62.2 V 53.5 H 332 Z" /> <path
   class="st0"
   d="m 221.5,42.1 h 61.6 l 4,11.5 c 0,0 -65.6,0 -65.6,0 0.1,-0.1 0,-11.5 0,-11.5 z"
   id="path6" /> <path
   class="st0"
   d="m 172.7,42.1 c 10.1,1 19,4.6 26.5,11.5 0,0 -111.6,0 -111.6,0 0,0 0,-11.5 0,-11.5 z"
   id="path8" /> <g
   id="g14"> <path
   id="rect10"
   class="st0"
   style="fill:#4c83c3"
   d="m 0,42.099998 h 77.5 v 11.4 H 0 Z" /> <path
   class="st0"
   d="M 38.8,47.8"
   id="path12" /> </g> <path
   class="st0"
   d="m 398.3,75 h -73.9 c 0,0 4,-11.4 4,-11.4 h 69.9 z"
   id="path16" /> <path
   id="polygon18"
   class="st0"
   style="fill:#4c83c3"
   d="m 221.5,63.6 h 69.2 l 4.1,11.4 h -73.3 z" /> <path
   class="st0"
   d="m 207.8,63.6 c 1.5,3.8 3.2,7 3.2,11.4 H 87.6 V 63.6 Z"
   id="path20" /> <g
   id="g26"> <path
   id="rect22"
   class="st0"
   style="fill:#4c83c3"
   d="m 0,63.599998 h 77.5 v 11.4 H 0 Z" /> <path
   class="st0"
   d="M 38.8,69.3"
   id="path24" /> </g> <path
   id="polygon28"
   class="st0"
   style="fill:#4c83c3"
   d="m 376.4,85.1 v 11.4 h -59.6 l 4.1,-11.4 z" /> <path
   id="polygon30"
   class="st0"
   style="fill:#4c83c3"
   d="M 243.4,96.5 V 85.1 h 54.9 l 4.1,11.4 z" /> <path
   class="st0"
   d="m 212,85 c 0,3.9 -0.5,8 -1.6,11.4 H 176.6 V 85 Z"
   id="path32" /> <g
   id="g38"> <path
   id="rect34"
   class="st0"
   style="fill:#4c83c3"
   d="m 21.6,85.099998 h 33.3 v 11.4 H 21.6 Z" /> <path
   class="st0"
   d="M 38.3,90.8"
   id="path36" /> </g> <g
   id="g44"> <path
   id="rect40"
   class="st0"
   style="fill:#4c83c3"
   d="m 110,85 h 33.3 V 96.4 H 110 Z" /> <path
   class="st0"
   d="M 126.6,90.8"
   id="path42" /> </g> <path
   class="st0"
   d="m 276.1,108.8 c 0,0 0,8.7 0,8.7 h -32.8 v -11.4 h 62.4 l 3.9,10.6 c 0,0 3.7,-10.6 3.7,-10.6 h 62.9 v 11.4 h -32.6 c 0,0 0,-8.7 0,-8.7 l -3,8.7 H 279 Z"
   id="path46" /> <path
   class="st0"
   d="m 110,106.1 h 95.5 v 0 c -2.1,3.8 -5.9,8.4 -9.5,11.4 0,0 -86,0 -86,0 0,0 0,-11.4 0,-11.4 z"
   id="path48" /> <g
   id="g54"> <path
   id="rect50"
   class="st0"
   style="fill:#4c83c3"
   d="m 21.6,106.1 h 33.3 v 11.4 H 21.6 Z" /> <path
   class="st0"
   d="M 38.3,111.8"
   id="path52" /> </g> <g
   id="g60"> <path
   id="rect56"
   class="st0"
   style="fill:#4c83c3"
   d="m 343.79999,127.6 h 32.6 V 139 h -32.6 z" /> <path
   class="st0"
   d="M 360.1,133.3"
   id="path58" /> </g> <path
   class="st0"
   d="M 276.1,127.6 H 243.3 V 139 c 0,0 32.8,0 32.8,0 0,-0.1 0.1,-11.4 0,-11.4 z"
   id="path62" /> <path
   class="st0"
   d="m 337.2,127.6 c -0.1,0 -3.8,11.4 -4,11.4 h -46.4 c 0,0 -4.1,-11.4 -4.1,-11.4 z"
   id="path64" /> <path
   class="st0"
   d="m 110,127.6 h 85.8 c 3.9,3.3 7.5,7.3 10.2,11.4 0.2,0 -96.1,0 -96.1,0 0.1,-0.1 0.1,-11.4 0.1,-11.4 z"
   id="path66" /> <path
   class="st0"
   d="M 54.9,138.9 V 127.5 H 21.7 c 0,0 0,11.4 0,11.4 0,0 33.2,0 33.2,0 z"
   id="path68" /> <g
   id="g74"> <path
   id="rect70"
   class="st0"
   style="fill:#4c83c3"
   d="m 343.79999,149 h 32.6 v 11.4 h -32.6 z" /> <path
   class="st0"
   d="M 360.1,154.7"
   id="path72" /> </g> <g
   id="g80"> <path
   id="rect76"
   class="st0"
   style="fill:#4c83c3"
   d="m 243.39999,149 h 32.8 v 11.4 h -32.8 z" /> <path
   class="st0"
   d="M 259.8,154.7"
   id="path78" /> </g> <path
   class="st0"
   d="m 325.6,160.4 c 0,-0.1 4,-11.4 4.1,-11.4 h -39.5 c -0.1,0 4,11.4 4,11.4 0,0 31.4,0.1 31.4,0 z"
   id="path82" /> <path
   class="st0"
   d="m 110,160.4 c 0,0 0,-11.4 0,-11.4 h 33.8 c 0,0 0,11.4 0,11.4 -0.1,0 -33.8,0 -33.8,0 z"
   id="path84" /> <path
   class="st0"
   d="m 210.8,149 c 1.6,3.4 1.8,7.5 2.1,11.4 H 177.1 V 149 Z"
   id="path86" /> <g
   id="g92"> <path
   id="rect88"
   class="st0"
   style="fill:#4c83c3"
   d="M 21.700001,149 H 55 v 11.4 H 21.700001 Z" /> <path
   class="st0"
   d="M 38.3,154.7"
   id="path90" /> </g> <g
   id="g98"> <path
   id="rect94"
   class="st0"
   style="fill:#4c83c3"
   d="m 343.79999,170 h 54.5 v 11.4 h -54.5 z" /> <path
   class="st0"
   d="M 371,175.7"
   id="path96" /> </g> <g
   id="g104"> <path
   id="rect100"
   class="st0"
   style="fill:#4c83c3"
   d="m 221.5,170 h 54.6 v 11.4 h -54.6 z" /> <path
   class="st0"
   d="M 248.8,175.7"
   id="path102" /> </g> <path
   id="polygon106"
   class="st0"
   style="fill:#4c83c3"
   d="m 297.6,170 h 24.5 l -3.9,11.4 h -16.6 z" /> <path
   class="st0"
   d="m 0,170 v 11.4 h 77.5 c 0,0 0,-11.4 0,-11.4 0,0 -77.6,0 -77.5,0 z"
   id="path108" /> <path
   class="st0"
   d="m 211.5,170 c -0.8,3.8 -1.6,8.3 -4.3,11.4 h -1 H 87.6 V 170 Z"
   id="path110" /> <path
   id="polygon112"
   class="st0"
   style="fill:#4c83c3"
   d="m 305.3,191.5 h 9.4 l -4,11.4 h -1.5 z" /> <g
   id="g118"> <path
   id="rect114"
   class="st0"
   style="fill:#4c83c3"
   d="m 343.79999,191.5 h 54.5 v 11.4 h -54.5 z" /> <path
   class="st0"
   d="M 371,197.2"
   id="path116" /> </g> <path
   class="st0"
   d="m 87.6,202.9 v -11.4 c 0,0 111.9,0 112.2,0 -7.5,7.2 -17.8,11.2 -28.9,11.4 H 87.6"
   id="path120" /> <g
   id="g126"> <path
   id="rect122"
   class="st0"
   style="fill:#4c83c3"
   d="m 221.5,191.5 h 54.6 v 11.4 h -54.6 z" /> <path
   class="st0"
   d="M 248.8,197.2"
   id="path124" /> </g> <path
   class="st0"
   d="m 77.5,191.5 c 0,0 0,11.4 0,11.4 0,0 -77.4,0 -77.5,0 0,0 0,-11.4 0,-11.4 0,0 77.4,0.1 77.5,0 z"
   id="path128" /> </g> <g
   aria-label="Zowe Explorer for IBM CICS"
   id="text132"
   style="font-size:22px;text-anchor:middle"><path
     d="M 58.332031,240 H 45.849609 v -1.97656 l 9.807618,-12.12793 h -9.442383 v -1.89063 h 11.880859 v 1.92285 l -9.904297,12.18164 h 10.140625 z"
     style="font-size:22px;text-anchor:middle"
     id="path158" /><path
     d="m 71.791992,234.00586 q 0,2.93262 -1.503906,4.62988 -1.503906,1.69727 -4.02832,1.69727 -2.545899,0 -4.049805,-1.69727 -1.493164,-1.69726 -1.493164,-4.62988 0,-2.93262 1.493164,-4.62988 1.503906,-1.70801 4.049805,-1.70801 2.524414,0 4.02832,1.70801 1.503906,1.69726 1.503906,4.62988 z m -2.083984,0 q 0,-2.33106 -0.913086,-3.45899 -0.913086,-1.13867 -2.535156,-1.13867 -1.643555,0 -2.556641,1.13867 -0.902344,1.12793 -0.902344,3.45899 0,2.25586 0.913086,3.42676 0.913086,1.16015 2.545899,1.16015 1.611328,0 2.524414,-1.14941 0.923828,-1.16016 0.923828,-3.4375 z"
     style="font-size:22px;text-anchor:middle"
     id="path160" /><path
     d="M 90.021484,228.00098 86.895508,240 H 85.026367 L 81.943359,230.75098 78.881836,240 h -1.858399 l -3.158203,-11.99902 h 2.105469 l 2.202149,9.29199 2.99707,-9.29199 h 1.665039 l 3.072266,9.29199 2.083984,-9.29199 z"
     style="font-size:22px;text-anchor:middle"
     id="path162" /><path
     d="m 102.97656,234.20996 h -8.840818 q 0,1.10645 0.333008,1.93359 0.333008,0.81641 0.913086,1.34278 0.558594,0.51562 1.321289,0.77344 0.773437,0.25781 1.697266,0.25781 1.224609,0 2.459959,-0.4834 1.2461,-0.49414 1.77246,-0.9668 h 0.10742 v 2.20215 q -1.0205,0.42969 -2.08398,0.71973 -1.063477,0.29004 -2.234375,0.29004 -2.986328,0 -4.662109,-1.61133 -1.675782,-1.62207 -1.675782,-4.59766 0,-2.94336 1.600586,-4.67285 1.611328,-1.72949 4.232422,-1.72949 2.427738,0 3.738278,1.41797 1.32129,1.41797 1.32129,4.02832 z m -1.96582,-1.54687 q -0.0107,-1.58985 -0.80566,-2.45997 -0.784182,-0.87011 -2.39551,-0.87011 -1.62207,0 -2.588867,0.95605 -0.956055,0.95606 -1.084961,2.37403 z"
     style="font-size:22px;text-anchor:middle"
     id="path164" /><path
     d="m 124.47168,240 h -10.53809 v -15.99512 h 10.53809 v 1.89063 h -8.41113 v 4.38281 h 8.41113 v 1.89063 h -8.41113 v 5.94042 h 8.41113 z"
     style="font-size:22px;text-anchor:middle"
     id="path166" /><path
     d="m 138.08203,240 h -2.5459 L 132.13086,235.3916 128.7041,240 h -2.35254 l 4.6836,-5.9834 -4.64063,-6.01562 h 2.5459 l 3.38379,4.5332 3.39453,-4.5332 h 2.36328 l -4.71582,5.9082 z"
     style="font-size:22px;text-anchor:middle"
     id="path168" /><path
     d="m 151.27344,233.85547 q 0,1.46094 -0.41895,2.6748 -0.41894,1.20313 -1.18164,2.04102 -0.70898,0.79492 -1.67578,1.23535 -0.95605,0.42969 -2.03027,0.42969 -0.93457,0 -1.69727,-0.2041 -0.75195,-0.20411 -1.53613,-0.63379 v 5.02734 h -2.01953 v -16.4248 h 2.01953 v 1.25683 q 0.80566,-0.67676 1.80469,-1.12793 1.00976,-0.46191 2.14843,-0.46191 2.16993,0 3.37305,1.64355 1.21387,1.63282 1.21387,4.54395 z m -2.08399,0.0537 q 0,-2.16992 -0.74121,-3.24414 -0.74121,-1.07422 -2.27734,-1.07422 -0.87012,0 -1.75098,0.37598 -0.88086,0.37597 -1.68652,0.98828 v 6.7998 q 0.85937,0.38672 1.47168,0.52637 0.62304,0.13965 1.40722,0.13965 1.68653,0 2.63184,-1.13867 0.94531,-1.13868 0.94531,-3.37305 z"
     style="font-size:22px;text-anchor:middle"
     id="path170" /><path
     d="m 156.46191,240 h -2.01953 v -16.71484 h 2.01953 z"
     style="font-size:22px;text-anchor:middle"
     id="path172" /><path
     d="m 170.70605,234.00586 q 0,2.93262 -1.5039,4.62988 -1.50391,1.69727 -4.02832,1.69727 -2.5459,0 -4.04981,-1.69727 -1.49316,-1.69726 -1.49316,-4.62988 0,-2.93262 1.49316,-4.62988 1.50391,-1.70801 4.04981,-1.70801 2.52441,0 4.02832,1.70801 1.5039,1.69726 1.5039,4.62988 z m -2.08398,0 q 0,-2.33106 -0.91309,-3.45899 -0.91308,-1.13867 -2.53515,-1.13867 -1.64356,0 -2.55664,1.13867 -0.90235,1.12793 -0.90235,3.45899 0,2.25586 0.91309,3.42676 0.91309,1.16015 2.5459,1.16015 1.61133,0 2.52441,-1.14941 0.92383,-1.16016 0.92383,-3.4375 z"
     style="font-size:22px;text-anchor:middle"
     id="path174" /><path
     d="m 181.33008,230.20312 h -0.10742 q -0.45118,-0.10742 -0.88086,-0.15039 -0.41895,-0.0537 -0.99903,-0.0537 -0.93457,0 -1.80468,0.41895 -0.87012,0.4082 -1.67579,1.06348 V 240 h -2.01953 v -11.99902 h 2.01953 v 1.77246 q 1.20313,-0.9668 2.11622,-1.36426 0.92382,-0.4082 1.87988,-0.4082 0.52637,0 0.76269,0.0322 0.23633,0.0215 0.70899,0.0967 z"
     style="font-size:22px;text-anchor:middle"
     id="path176" /><path
     d="m 193.29687,234.20996 h -8.84082 q 0,1.10645 0.33301,1.93359 0.33301,0.81641 0.91309,1.34278 0.55859,0.51562 1.32129,0.77344 0.77343,0.25781 1.69726,0.25781 1.22461,0 2.45996,-0.4834 1.2461,-0.49414 1.77246,-0.9668 h 0.10743 v 2.20215 q -1.02051,0.42969 -2.08399,0.71973 -1.06347,0.29004 -2.23437,0.29004 -2.98633,0 -4.66211,-1.61133 -1.67578,-1.62207 -1.67578,-4.59766 0,-2.94336 1.60058,-4.67285 1.61133,-1.72949 4.23242,-1.72949 2.42774,0 3.73829,1.41797 1.32128,1.41797 1.32128,4.02832 z m -1.96582,-1.54687 q -0.0107,-1.58985 -0.80566,-2.45997 -0.78418,-0.87011 -2.39551,-0.87011 -1.62207,0 -2.58886,0.95605 -0.95606,0.95606 -1.08497,2.37403 z"
     style="font-size:22px;text-anchor:middle"
     id="path178" /><path
     d="m 203.8457,230.20312 h -0.10742 q -0.45117,-0.10742 -0.88086,-0.15039 -0.41894,-0.0537 -0.99902,-0.0537 -0.93457,0 -1.80469,0.41895 -0.87012,0.4082 -1.67578,1.06348 V 240 h -2.01953 v -11.99902 h 2.01953 v 1.77246 q 1.20312,-0.9668 2.11621,-1.36426 0.92383,-0.4082 1.87988,-0.4082 0.52637,0 0.7627,0.0322 0.23633,0.0215 0.70898,0.0967 z"
     style="font-size:22px;text-anchor:middle"
     id="path180" /><path
     d="m 219.95898,225.24023 h -0.10742 q -0.33301,-0.0967 -0.87011,-0.19336 -0.53711,-0.10742 -0.94532,-0.10742 -1.2998,0 -1.89062,0.58008 -0.58008,0.56934 -0.58008,2.07324 v 0.40821 h 3.6416 v 1.69726 h -3.57715 V 240 h -2.01953 v -10.30176 h -1.36426 v -1.69726 h 1.36426 v -0.39746 q 0,-2.1377 1.06348,-3.27637 1.06347,-1.14942 3.07226,-1.14942 0.67676,0 1.21387,0.0645 0.54785,0.0644 0.99902,0.15039 z"
     style="font-size:22px;text-anchor:middle"
     id="path182" /><path
     d="m 231.46387,234.00586 q 0,2.93262 -1.50391,4.62988 -1.50391,1.69727 -4.02832,1.69727 -2.5459,0 -4.0498,-1.69727 -1.49317,-1.69726 -1.49317,-4.62988 0,-2.93262 1.49317,-4.62988 1.5039,-1.70801 4.0498,-1.70801 2.52441,0 4.02832,1.70801 1.50391,1.69726 1.50391,4.62988 z m -2.08399,0 q 0,-2.33106 -0.91308,-3.45899 -0.91309,-1.13867 -2.53516,-1.13867 -1.64355,0 -2.55664,1.13867 -0.90234,1.12793 -0.90234,3.45899 0,2.25586 0.91308,3.42676 0.91309,1.16015 2.5459,1.16015 1.61133,0 2.52441,-1.14941 0.92383,-1.16016 0.92383,-3.4375 z"
     style="font-size:22px;text-anchor:middle"
     id="path184" /><path
     d="m 242.08789,230.20312 h -0.10742 q -0.45117,-0.10742 -0.88086,-0.15039 -0.41895,-0.0537 -0.99902,-0.0537 -0.93457,0 -1.80469,0.41895 -0.87012,0.4082 -1.67578,1.06348 V 240 h -2.01953 v -11.99902 h 2.01953 v 1.77246 q 1.20312,-0.9668 2.11621,-1.36426 0.92383,-0.4082 1.87988,-0.4082 0.52637,0 0.7627,0.0322 0.23632,0.0215 0.70898,0.0967 z"
     style="font-size:22px;text-anchor:middle"
     id="path186" /><path
     d="m 257.5459,240 h -6.31641 v -1.63281 h 2.09473 V 225.6377 h -2.09473 v -1.63282 h 6.31641 v 1.63282 h -2.09473 v 12.72949 h 2.09473 z"
     style="font-size:22px;text-anchor:middle"
     id="path188" /><path
     d="m 273.25098,235.08008 q 0,1.19238 -0.45118,2.10547 -0.45117,0.91308 -1.21386,1.5039 -0.90235,0.70899 -1.98731,1.00977 Q 268.52441,240 266.85937,240 h -5.67187 v -15.99512 h 4.7373 q 1.75098,0 2.6211,0.12891 0.87012,0.12891 1.66504,0.53711 0.88086,0.46191 1.27832,1.19238 0.39746,0.71973 0.39746,1.72949 0,1.13868 -0.58008,1.94434 -0.58008,0.79492 -1.54687,1.27832 v 0.0859 q 1.62207,0.333 2.55664,1.42871 0.93457,1.08496 0.93457,2.75 z m -3.57715,-7.20801 q 0,-0.58008 -0.19336,-0.97754 -0.19336,-0.39746 -0.62305,-0.64453 -0.50488,-0.29004 -1.22461,-0.35449 -0.71972,-0.0752 -1.7832,-0.0752 h -2.53516 v 4.61914 h 2.75 q 0.99903,0 1.58985,-0.0967 0.59082,-0.10742 1.0957,-0.42968 0.50488,-0.32227 0.70898,-0.82715 0.21485,-0.51563 0.21485,-1.21387 z m 1.36426,7.29395 q 0,-0.9668 -0.29004,-1.53614 -0.29004,-0.56933 -1.05274,-0.96679 -0.51562,-0.26856 -1.25683,-0.34375 -0.73047,-0.0859 -1.78321,-0.0859 h -3.34082 v 5.95117 h 2.81446 q 1.39648,0 2.28808,-0.13965 0.8916,-0.15039 1.46094,-0.53711 0.60156,-0.41894 0.88086,-0.95605 0.2793,-0.53711 0.2793,-1.38574 z"
     style="font-size:22px;text-anchor:middle"
     id="path190" /><path
     d="m 290.51367,240 h -2.12695 v -13.78223 l -4.44727,9.37793 h -1.26758 l -4.41503,-9.37793 V 240 h -1.98731 v -15.99512 h 2.90039 l 4.26465,8.90528 4.125,-8.90528 h 2.9541 z"
     style="font-size:22px;text-anchor:middle"
     id="path192" /><path
     d="m 314.91992,238.83984 q -0.59082,0.25782 -1.07422,0.4834 -0.47265,0.22559 -1.24609,0.47266 -0.65527,0.2041 -1.42871,0.34375 -0.7627,0.15039 -1.68653,0.15039 -1.74023,0 -3.16894,-0.4834 -1.41797,-0.49414 -2.4707,-1.53613 -1.03125,-1.02051 -1.61133,-2.58887 -0.58008,-1.5791 -0.58008,-3.66309 0,-1.97656 0.55859,-3.53418 0.5586,-1.55761 1.61133,-2.63183 1.02051,-1.04199 2.45996,-1.58984 1.4502,-0.54786 3.21192,-0.54786 1.28906,0 2.56738,0.31153 1.28906,0.31152 2.85742,1.0957 v 2.52441 h -0.16113 q -1.32129,-1.10644 -2.62109,-1.61132 -1.29981,-0.50489 -2.78223,-0.50489 -1.21387,0 -2.19141,0.39746 -0.96679,0.38672 -1.72949,1.21387 -0.74121,0.80567 -1.16016,2.04102 -0.4082,1.22461 -0.4082,2.83593 0,1.68653 0.45117,2.9004 0.46192,1.21386 1.18164,1.97656 0.75196,0.79492 1.75098,1.18164 1.00977,0.37597 2.12695,0.37597 1.53614,0 2.87891,-0.52636 1.34277,-0.52637 2.51367,-1.5791 h 0.15039 z"
     style="font-size:22px;text-anchor:middle"
     id="path194" /><path
     d="m 323.58887,240 h -6.31641 v -1.63281 h 2.09473 V 225.6377 h -2.09473 v -1.63282 h 6.31641 v 1.63282 h -2.09473 v 12.72949 h 2.09473 z"
     style="font-size:22px;text-anchor:middle"
     id="path196" /><path
     d="m 339.58398,238.83984 q -0.59082,0.25782 -1.07421,0.4834 -0.47266,0.22559 -1.2461,0.47266 -0.65527,0.2041 -1.42871,0.34375 -0.76269,0.15039 -1.68652,0.15039 -1.74024,0 -3.16895,-0.4834 -1.41797,-0.49414 -2.4707,-1.53613 -1.03125,-1.02051 -1.61133,-2.58887 -0.58008,-1.5791 -0.58008,-3.66309 0,-1.97656 0.5586,-3.53418 0.55859,-1.55761 1.61132,-2.63183 1.02051,-1.04199 2.45997,-1.58984 1.45019,-0.54786 3.21191,-0.54786 1.28906,0 2.56738,0.31153 1.28906,0.31152 2.85742,1.0957 v 2.52441 h -0.16113 q -1.32129,-1.10644 -2.62109,-1.61132 -1.29981,-0.50489 -2.78223,-0.50489 -1.21387,0 -2.19141,0.39746 -0.96679,0.38672 -1.72949,1.21387 -0.74121,0.80567 -1.16015,2.04102 -0.40821,1.22461 -0.40821,2.83593 0,1.68653 0.45118,2.9004 0.46191,1.21386 1.18164,1.97656 0.75195,0.79492 1.75097,1.18164 1.00977,0.37597 2.12696,0.37597 1.53613,0 2.8789,-0.52636 1.34278,-0.52637 2.51367,-1.5791 h 0.15039 z"
     style="font-size:22px;text-anchor:middle"
     id="path198" /><path
     d="m 354.23633,235.43457 q 0,0.93457 -0.44043,1.84766 -0.42969,0.91308 -1.21387,1.54687 -0.85937,0.6875 -2.00879,1.07422 -1.13867,0.38672 -2.75,0.38672 -1.72949,0 -3.11523,-0.32227 -1.375,-0.32226 -2.80371,-0.95605 v -2.66406 h 0.15039 q 1.21386,1.00976 2.80371,1.55761 1.58984,0.54785 2.98633,0.54785 1.97656,0 3.07226,-0.74121 1.10645,-0.74121 1.10645,-1.97656 0,-1.06348 -0.52637,-1.56836 -0.51562,-0.50488 -1.5791,-0.78418 -0.80567,-0.21484 -1.75098,-0.35449 -0.93457,-0.13965 -1.9873,-0.35449 -2.12696,-0.45117 -3.15821,-1.53613 -1.0205,-1.09571 -1.0205,-2.84668 0,-2.00879 1.69726,-3.28711 1.69727,-1.28907 4.30762,-1.28907 1.68652,0 3.09375,0.32227 1.40723,0.32226 2.49219,0.79492 v 2.51367 h -0.15039 q -0.91309,-0.77343 -2.40625,-1.27832 -1.48243,-0.51562 -3.04004,-0.51562 -1.70801,0 -2.75,0.70898 -1.03125,0.70899 -1.03125,1.82617 0,0.99903 0.51562,1.56836 0.51563,0.56934 1.81543,0.87012 0.6875,0.15039 1.95508,0.36523 1.26758,0.21485 2.14844,0.44043 1.7832,0.47266 2.68554,1.42872 0.90235,0.95605 0.90235,2.6748 z"
     style="font-size:22px;text-anchor:middle"
     id="path200" /></g></svg>
