<?xml version="1.0" encoding="UTF-8" standalone="no"?>
<svg
   inkscape:version="1.1 (c4e8f9e, 2021-05-24)"
   height="304.5726"
   width="718.30841"
   sodipodi:docname="zowe-ims-operations-api.svg"
   version="1.1"
   viewBox="0 0 718.30841 304.57261"
   data-name="Layer 1"
   id="Layer_1"
   xmlns:inkscape="http://www.inkscape.org/namespaces/inkscape"
   xmlns:sodipodi="http://sodipodi.sourceforge.net/DTD/sodipodi-0.dtd"
   xmlns="http://www.w3.org/2000/svg"
   xmlns:svg="http://www.w3.org/2000/svg"
   xmlns:rdf="http://www.w3.org/1999/02/22-rdf-syntax-ns#"
   xmlns:cc="http://creativecommons.org/ns#"
   xmlns:dc="http://purl.org/dc/elements/1.1/">
  <metadata
     id="metadata3617">
    <rdf:RDF>
      <cc:Work
         rdf:about="">
        <dc:format>image/svg+xml</dc:format>
        <dc:type
           rdf:resource="http://purl.org/dc/dcmitype/StillImage" />
        <dc:title>zowe-logo-color</dc:title>
      </cc:Work>
    </rdf:RDF>
  </metadata>
  <sodipodi:namedview
     inkscape:current-layer="Layer_1"
     inkscape:window-maximized="0"
     inkscape:window-y="77"
     inkscape:window-x="418"
     inkscape:cy="121.65773"
     inkscape:cx="367.42268"
     inkscape:zoom="0.61237374"
     showgrid="false"
     id="namedview3615"
     inkscape:window-height="853"
     inkscape:window-width="1225"
     inkscape:pageshadow="2"
     inkscape:pageopacity="0"
     guidetolerance="10"
     gridtolerance="10"
     objecttolerance="10"
     borderopacity="1"
     inkscape:document-rotation="0"
     bordercolor="#666666"
     pagecolor="#ffffff"
     inkscape:pagecheckerboard="0" />
  <defs
     id="defs3552">
    <style
       id="style3550">.cls-1{fill:#0033a1;}.cls-2{fill:#2a7de1;}</style>
  </defs>
  <title
     id="title3554">zowe-logo-color</title>
  <polygon
     transform="translate(-29.2,-55.777)"
     id="polygon3556"
     points="29.202,156.633 81.719,155.81 153.203,105.713 168.197,136.32 181.956,55.782 "
     class="cls-1" />
  <polygon
     transform="translate(-29.2,-55.777)"
     id="polygon3558"
     points="181.954,55.777 271.51,191.418 164.529,154.712 "
     class="cls-2" />
  <polyline
     transform="translate(-29.2,-55.777)"
     id="polyline3560"
     points="131.223 229.511 139.675 241.691 216.405 187.184 203.42 168.057 159.152 198.91 164.527 154.716 271.508 191.416 125.787 294.202"
     class="cls-1" />
  <polygon
     transform="translate(-29.2,-55.777)"
     id="polygon3562"
     points="94.075,176.677 143.275,143.238 125.788,293.012 29.2,156.634 81.723,155.811 "
     class="cls-2" />
  <path
     inkscape:connector-curvature="0"
     id="path3564"
     d="m 587.23191,35.4428 h 5.29468 a 6.88644,6.88644 0 0 1 4.63135,1.36974 4.52388,4.52388 0 0 1 1.62157,3.71612 4.67514,4.67514 0 0 1 -1.62157,3.753 7.14731,7.14731 0 0 1 -4.79105,1.382 h -3.65465 V 54.656 h -1.48033 z m 1.48033,1.23459 v 7.69637 h 3.56251 a 5.57788,5.57788 0 0 0 3.6547,-1.01963 3.84745,3.84745 0 0 0 0.27639,-5.436 0.34852,0.34852 0 0 1 -0.043,-0.04916 l -0.1904,-0.20882 a 5.3287,5.3287 0 0 0 -3.50731,-1.038 z"
     class="cls-2" />
  <path
     inkscape:connector-curvature="0"
     id="path3566"
     d="m 603.86285,35.4428 h 4.90774 a 7.28588,7.28588 0 0 1 4.73571,1.35132 4.43482,4.43482 0 0 1 1.63385,3.61781 4.77216,4.77216 0 0 1 -3.65465,4.6559 8.891,8.891 0 0 1 2.56135,2.94829 l 4.34877,6.63987 h -1.77514 l -3.3476,-5.23325 a 12.51111,12.51111 0 0 0 -2.59819,-3.29231 4.8449,4.8449 0 0 0 -2.73333,-0.65719 h -2.65348 v 9.21963 h -1.48028 z m 1.48033,1.23459 v 7.52438 h 3.17557 a 6.18842,6.18842 0 0 0 3.73454,-0.98279 3.61961,3.61961 0 0 0 0.42378,-5.09814 l -0.44224,-0.44224 a 6.15319,6.15319 0 0 0 -3.753,-1.00121 z"
     class="cls-2" />
  <path
     inkscape:connector-curvature="0"
     id="path3568"
     d="m 631.17162,35.19832 a 10.00767,10.00767 0 0 1 7.21716,2.8623 9.627,9.627 0 0 1 0.344,13.61141 c -0.0368,0.0368 -0.0737,0.0737 -0.1105,0.11669 l -0.23347,0.2457 a 10.49871,10.49871 0 0 1 -14.416,0 9.74545,9.74545 0 0 1 -0.20263,-13.77108 l 0.0123,-0.0061 0.19035,-0.19658 a 9.95061,9.95061 0 0 1 7.19888,-2.8623 m 0,18.32252 a 8.24138,8.24138 0 0 0 6.06247,-2.44461 8.5868,8.5868 0 0 0 0,-12.05123 8.71124,8.71124 0 0 0 -12.1434,0 8.50806,8.50806 0 0 0 0,12.03281 8.30684,8.30684 0 0 0 6.08093,2.44461"
     class="cls-2" />
  <path
     inkscape:connector-curvature="0"
     id="path3570"
     d="m 648.82228,35.44463 v 19.25006 a 6.22857,6.22857 0 0 1 -1.19161,4.34877 3.8501,3.8501 0 0 1 -2.8317,1.21617 q -0.44214,0.0184 -0.88448,0 l -0.13515,-1.38815 a 4.62122,4.62122 0 0 0 0.86611,0.0983 c 1.812,0 2.69645,-1.27147 2.69645,-3.85123 V 35.44463 Z"
     class="cls-2" />
  <polygon
     transform="translate(-29.2,-55.777)"
     id="polygon3572"
     points="686.071,92.456 686.071,100.134 694.824,100.134 694.824,101.387 686.071,101.387 686.071,109.182 695.266,109.182 695.266,110.429 684.585,110.429 684.585,91.222 695.057,91.222 695.057,92.456 "
     class="cls-2" />
  <path
     inkscape:connector-curvature="0"
     id="path3574"
     d="m 687.39486,36.81249 v 1.61543 A 14.69811,14.69811 0 0 0 680.54,36.5054 a 8.0693,8.0693 0 0 0 -5.96416,2.44466 8.24453,8.24453 0 0 0 -2.40784,6.08094 8.14392,8.14392 0 0 0 2.40778,6.11777 8.47367,8.47367 0 0 0 6.17916,2.3709 14.50977,14.50977 0 0 0 6.83027,-1.92252 v 1.53558 a 14.27085,14.27085 0 0 1 -6.79343,1.79356 10.06857,10.06857 0 0 1 -7.31548,-2.81319 9.83525,9.83525 0 0 1 -0.006,-13.90622 0.006,0.006 0 0 0 0.006,-0.0061 0.7022,0.7022 0 0 0 0.13515,-0.13515 10.02036,10.02036 0 0 1 7.10666,-2.83161 16.137,16.137 0 0 1 6.7565,1.61544"
     class="cls-2" />
  <polygon
     transform="translate(-29.2,-55.777)"
     id="polygon3576"
     points="728.51,92.456 728.51,110.429 727.005,110.429 727.005,92.456 719.788,92.456 719.788,91.222 735.709,91.222 735.709,92.456 "
     class="cls-2" />
  <polygon
     transform="translate(-29.2,-55.777)"
     id="polygon3578"
     points="410.365,99.444 404.592,106.582 404.076,106.582 398.277,99.444 398.277,111.778 392.043,111.778 392.043,90.495 397.86,90.495 404.401,98.48 410.961,90.495 416.797,90.495 416.797,111.778 410.365,111.778 "
     class="cls-2" />
  <path
     inkscape:connector-curvature="0"
     id="path3580"
     d="m 416.33272,56.00365 h -6.56614 l -1.75054,-4.31193 H 398.778 l -1.769,4.31193 h -6.56615 L 399.859,34.71433 h 7.18037 z m -9.77855,-8.02806 -3.12032,-7.69633 -3.151,7.69633 z"
     class="cls-2" />
  <rect
     id="rect3582"
     height="21.28314"
     width="6.4064398"
     y="34.71859"
     x="419.18277"
     class="cls-2" />
  <polygon
     transform="translate(-29.2,-55.777)"
     id="polygon3584"
     points="466.532,99.923 466.532,111.778 460.181,111.778 460.181,90.495 465.875,90.495 476.882,102.288 476.882,90.495 483.276,90.495 483.276,111.778 477.576,111.778 "
     class="cls-2" />
  <polygon
     transform="translate(-29.2,-55.777)"
     id="polygon3586"
     points="495.039,111.779 488.626,111.779 488.626,90.49 503.871,90.49 503.871,94.765 495.039,94.765 495.039,98.887 503.871,98.887 503.871,103.156 495.039,103.156 "
     class="cls-2" />
  <path
     inkscape:connector-curvature="0"
     id="path3588"
     d="m 499.595,56.00112 h -6.8917 l -1.67074,-3.84509 a 16.48553,16.48553 0 0 0 -1.6584,-3.02815 3.5709,3.5709 0 0 0 -1.43731,-1.22849 5.21472,5.21472 0 0 0 -1.812,-0.27026 h -0.71254 v 8.31674 h -6.431 V 34.718 h 10.91499 a 7.868,7.868 0 0 1 4.33035,1.07488 6.46344,6.46344 0 0 1 2.44461,2.59823 6.72627,6.72627 0 0 1 0.731,2.92373 5.4132,5.4132 0 0 1 -0.61422,2.73334 4.99247,4.99247 0 0 1 -1.30835,1.61543 14.60055,14.60055 0 0 1 -1.56014,0.96433 5.90891,5.90891 0 0 1 1.69529,1.425 16.98237,16.98237 0 0 1 1.88569,3.2923 z m -8.716,-14.56961 a 2.15338,2.15338 0 0 0 -0.98279,-2.03921 6.28282,6.28282 0 0 0 -3.13874,-0.5958 h -1.34518 v 5.14111 h 1.36974 a 7.19359,7.19359 0 0 0 3.23087,-0.52209 2.149,2.149 0 0 0 0.8661,-1.92257"
     class="cls-2" />
  <path
     inkscape:connector-curvature="0"
     id="path3590"
     d="m 525.87192,56.00365 h -6.56615 l -1.73212,-4.31193 h -9.238 l -1.769,4.31193 H 499.982 l 9.41,-21.28932 h 7.10052 z m -9.77856,-8.02806 -3.12036,-7.69633 -3.13874,7.69633 z"
     class="cls-2" />
  <polygon
     transform="translate(-29.2,-55.777)"
     id="polygon3592"
     points="576.245,99.444 570.446,106.582 569.949,106.582 564.132,99.444 564.132,111.778 557.897,111.778 557.897,90.495 563.733,90.495 570.256,98.48 576.84,90.495 582.651,90.495 582.651,111.778 576.245,111.778 "
     class="cls-2" />
  <polygon
     transform="translate(-29.2,-55.777)"
     id="polygon3594"
     points="588.024,90.495 603.804,90.495 603.804,94.764 594.449,94.764 594.449,98.652 603.38,98.652 603.38,102.945 594.449,102.945 594.449,107.485 604.074,107.485 604.074,111.778 588.024,111.778 "
     class="cls-2" />
  <path
     inkscape:connector-curvature="0"
     id="path3596"
     d="m 283.15852,35.42865 a 11.03124,11.03124 0 0 1 8.06485,3.194 10.85708,10.85708 0 0 1 0.31941,15.34967 0.18792,0.18792 0 0 0 -0.0492,0.0492 l -0.27025,0.26412 a 11.73656,11.73656 0 0 1 -16.09291,0 10.89088,10.89088 0 0 1 -0.20882,-15.39265 l 0.20882,-0.215 a 11.08033,11.08033 0 0 1 8.02806,-3.194 m 0,20.46 a 9.21918,9.21918 0 0 0 6.775,-2.73333 9.62184,9.62184 0 0 0 0,-13.47008 9.78988,9.78988 0 0 0 -13.5684,0 9.50155,9.50155 0 0 0 -0.0246,13.44552 l 0.0246,0.0246 a 9.2606,9.2606 0 0 0 6.79343,2.73333"
     class="cls-2" />
  <path
     inkscape:connector-curvature="0"
     id="path3598"
     d="m 298.57146,35.694 h 5.915 a 7.96062,7.96062 0 0 1 5.19642,1.52331 5.61267,5.61267 0 0 1 -0.11669,8.35356 8.05225,8.05225 0 0 1 -5.33156,1.56014 h -4.10303 v 9.98742 h -1.65227 z m 1.65845,1.38815 v 8.66071 h 4.00476 a 6.42467,6.42467 0 0 0 4.07851,-1.13632 4.34636,4.34636 0 0 0 0.23342,-6.13619 0.89411,0.89411 0 0 0 -0.215,-0.215 5.7378,5.7378 0 0 0 -3.8451,-1.1732 z"
     class="cls-2" />
  <polygon
     transform="translate(-29.2,-55.777)"
     id="polygon3600"
     points="345.519,92.862 345.519,101.443 355.304,101.443 355.304,102.831 345.519,102.831 345.519,111.547 355.82,111.547 355.82,112.935 343.867,112.935 343.867,91.474 355.568,91.474 355.568,92.862 "
     class="cls-2" />
  <polygon
     transform="translate(-29.2,-55.777)"
     id="polygon3602"
     points="377.181,112.935 360.885,94.164 360.885,112.935 359.227,112.935 359.227,91.474 360.634,91.474 376.892,110.22 376.892,91.474 378.551,91.474 378.551,112.935 "
     class="cls-2" />
  <path
     inkscape:connector-curvature="0"
     id="path3604"
     d="m 269.81527,175.16729 64.79151,-75.394 h -62.772 V 77.0545 h 96.09326 V 96.744 l -64.79151,75.394 h 64.79151 v 22.71875 h -98.1128 z"
     class="cls-1" />
  <path
     inkscape:connector-curvature="0"
     id="path3606"
     d="m 381.22348,150.26007 v -0.33692 c 0,-25.916 20.86816,-46.95215 48.97265,-46.95215 27.93555,0 48.63477,20.69922 48.63477,46.61622 v 0.33593 c 0,25.917 -20.86719,46.95313 -48.97168,46.95313 -27.93652,0 -48.63574,-20.69922 -48.63574,-46.61621 z m 72.36425,0 v -0.33692 c 0,-13.29443 -9.59277,-24.90625 -23.72851,-24.90625 -14.6416,0 -23.39258,11.27539 -23.39258,24.57032 v 0.33593 c 0,13.29492 9.59277,24.90723 23.72949,24.90723 14.64063,0 23.3916,-11.27538 23.3916,-24.57031 z"
     class="cls-1" />
  <path
     inkscape:connector-curvature="0"
     id="path3608"
     d="m 485.89926,104.65362 h 25.917 L 526.28891,159.348 543.286,104.3172 h 22.0459 l 17.165,55.19873 14.80957,-54.86231 h 25.41211 l -28.10449,90.876 h -23.05565 l -17.334,-55.3667 -17.66992,55.3667 h -22.88768 z"
     class="cls-1" />
  <path
     inkscape:connector-curvature="0"
     id="path3610"
     d="m 629.78793,150.26007 v -0.33692 c 0,-25.748 18.34375,-46.95215 44.59668,-46.95215 30.124,0 43.92383,23.39209 43.92383,48.97168 0,2.01954 -0.16895,4.376 -0.33692,6.73145 H 655.2 c 2.52344,11.6123 10.60156,17.6709 22.0459,17.6709 8.582,0 14.80859,-2.69238 21.877,-9.25586 l 14.6416,12.958 c -8.415,10.43359 -20.53125,16.8291 -36.85547,16.8291 -27.09473,1e-5 -47.1211,-19.01659 -47.1211,-46.6162 z m 63.61328,-7.57276 c -1.51465,-11.44384 -8.24609,-19.18506 -19.0166,-19.18506 -10.60254,0 -17.50195,7.57276 -19.52148,19.18506 z"
     class="cls-1" />
  <polygon
     transform="translate(-29.2,-55.777)"
     id="polygon3612"
     points="143.275,143.239 94.075,176.677 137.471,193.298 "
     class="cls-1" />
  <g
     aria-label="IMS Operations API"
     id="text1054"
     style="font-size:40px;line-height:1.25">
    <path
       d="m 180.7251,287.40619 h -11.48438 v -2.96875 h 3.8086 v -23.14453 h -3.8086 v -2.96875 h 11.48438 v 2.96875 h -3.8086 v 23.14453 h 3.8086 z"
       id="path1922" />
    <path
       d="m 213.24463,287.40619 h -3.86719 V 262.3476 l -8.08594,17.05078 h -2.30468 l -8.02735,-17.05078 v 25.05859 h -3.61328 v -29.08203 h 5.27344 l 7.75391,16.1914 7.5,-16.1914 h 5.37109 z"
       id="path1924" />
    <path
       d="m 242.229,279.10541 q 0,1.69922 -0.80078,3.35937 -0.78125,1.66016 -2.20703,2.8125 -1.5625,1.25 -3.65234,1.95313 -2.07031,0.70312 -5,0.70312 -3.14453,0 -5.66406,-0.58593 -2.5,-0.58594 -5.09766,-1.73829 v -4.84375 h 0.27344 q 2.20703,1.83594 5.09765,2.83204 2.89063,0.99609 5.42969,0.99609 3.59375,0 5.58594,-1.34766 2.01172,-1.34765 2.01172,-3.59375 0,-1.93359 -0.95703,-2.85156 -0.9375,-0.91797 -2.8711,-1.42578 -1.46484,-0.39063 -3.18359,-0.64453 -1.69922,-0.25391 -3.61328,-0.64453 -3.86719,-0.82032 -5.74219,-2.79297 -1.85547,-1.99219 -1.85547,-5.17578 0,-3.65235 3.08594,-5.97657 3.08594,-2.34375 7.83203,-2.34375 3.06641,0 5.625,0.58594 2.55859,0.58594 4.53125,1.44531 v 4.57032 h -0.27344 q -1.66015,-1.40625 -4.375,-2.32422 -2.69531,-0.9375 -5.52734,-0.9375 -3.10547,0 -5,1.28906 -1.875,1.28906 -1.875,3.32031 0,1.81641 0.9375,2.85157 0.9375,1.03515 3.30078,1.58203 1.25,0.27343 3.55469,0.66406 2.30468,0.39062 3.90625,0.80078 3.24218,0.85938 4.88281,2.59766 1.64062,1.73828 1.64062,4.86328 z"
       id="path1926" />
    <path
       d="m 284.18213,261.664 q 1.77734,1.95313 2.71484,4.78516 0.95703,2.83203 0.95703,6.42578 0,3.59375 -0.97656,6.44531 -0.95703,2.83203 -2.69531,4.72656 -1.79688,1.97266 -4.25781,2.96875 -2.44141,0.9961 -5.58594,0.9961 -3.06641,0 -5.58594,-1.01563 -2.5,-1.01562 -4.25781,-2.94922 -1.75781,-1.93359 -2.71484,-4.74609 -0.9375,-2.8125 -0.9375,-6.42578 0,-3.55469 0.9375,-6.36719 0.9375,-2.83203 2.73437,-4.84375 1.71875,-1.91406 4.25781,-2.92969 2.5586,-1.01562 5.56641,-1.01562 3.125,0 5.60547,1.03516 2.5,1.01562 4.23828,2.91015 z m -0.35156,11.21094 q 0,-5.66406 -2.53907,-8.73047 -2.53906,-3.08594 -6.93359,-3.08594 -4.43359,0 -6.97266,3.08594 -2.51953,3.06641 -2.51953,8.73047 0,5.72266 2.57813,8.76953 2.57812,3.02734 6.91406,3.02734 4.33594,0 6.89453,-3.02734 2.57813,-3.04687 2.57813,-8.76953 z"
       id="path1928" />
    <path
       d="m 312.89307,276.23431 q 0,2.65625 -0.76172,4.86329 -0.76172,2.1875 -2.14844,3.71093 -1.28906,1.44532 -3.04687,2.2461 -1.73829,0.78125 -3.69141,0.78125 -1.69922,0 -3.08594,-0.3711 -1.36719,-0.37109 -2.79297,-1.15234 v 9.14062 h -3.67187 v -29.86328 h 3.67187 v 2.28516 q 1.46485,-1.23047 3.28125,-2.05078 1.83594,-0.83985 3.90625,-0.83985 3.94532,0 6.13282,2.98829 2.20703,2.96875 2.20703,8.26171 z m -3.78907,0.0977 q 0,-3.94531 -1.34765,-5.89844 -1.34766,-1.95312 -4.14063,-1.95312 -1.58203,0 -3.18359,0.68359 -1.60156,0.6836 -3.06641,1.79688 v 12.36328 q 1.5625,0.70312 2.67578,0.95703 1.13282,0.25391 2.5586,0.25391 3.0664,0 4.78515,-2.07032 1.71875,-2.07031 1.71875,-6.13281 z"
       id="path1930" />
    <path
       d="m 336.87744,276.87885 h -16.07422 q 0,2.01171 0.60547,3.51562 0.60547,1.48438 1.66016,2.44141 1.01562,0.9375 2.40234,1.40625 1.40625,0.46875 3.08594,0.46875 2.22656,0 4.47266,-0.87891 2.26562,-0.89844 3.22265,-1.75781 h 0.19531 v 4.0039 q -1.85546,0.78125 -3.78906,1.3086 -1.93359,0.52734 -4.0625,0.52734 -5.42969,0 -8.47656,-2.92969 -3.04688,-2.94921 -3.04688,-8.35937 0,-5.35156 2.91016,-8.49609 2.92969,-3.14454 7.69531,-3.14454 4.41407,0 6.79688,2.57813 2.40234,2.57812 2.40234,7.32422 z m -3.57422,-2.8125 q -0.0195,-2.89063 -1.46484,-4.47266 -1.42578,-1.58203 -4.35547,-1.58203 -2.94922,0 -4.70703,1.73828 -1.73828,1.73828 -1.97266,4.31641 z"
       id="path1932" />
    <path
       d="m 356.05713,269.59369 h -0.19531 q -0.82032,-0.19531 -1.60157,-0.27344 -0.76171,-0.0976 -1.8164,-0.0976 -1.69922,0 -3.28125,0.76171 -1.58203,0.74219 -3.04688,1.9336 v 15.48828 h -3.67187 v -21.81641 h 3.67187 v 3.22266 q 2.1875,-1.75781 3.84766,-2.48047 1.67969,-0.74219 3.41797,-0.74219 0.95703,0 1.38672,0.0586 0.42968,0.0391 1.28906,0.17578 z"
       id="path1934" />
    <path
       d="M 376.50635,287.40619 H 372.854 v -2.32422 q -0.48828,0.33203 -1.32812,0.9375 -0.82031,0.58594 -1.60156,0.9375 -0.91797,0.44922 -2.10938,0.74219 -1.1914,0.3125 -2.79297,0.3125 -2.94922,0 -5,-1.95313 -2.05078,-1.95312 -2.05078,-4.98047 0,-2.48046 1.05469,-4.0039 1.07422,-1.54297 3.04687,-2.42188 1.99219,-0.8789 4.78516,-1.1914 2.79297,-0.3125 5.99609,-0.46875 v -0.56641 q 0,-1.25 -0.44921,-2.07031 -0.42969,-0.82031 -1.25,-1.28906 -0.78125,-0.44922 -1.875,-0.60547 -1.09375,-0.15625 -2.28516,-0.15625 -1.44531,0 -3.22266,0.39062 -1.77734,0.3711 -3.67187,1.09375 h -0.19531 v -3.73047 q 1.07421,-0.29297 3.10546,-0.64453 2.03125,-0.35156 4.00391,-0.35156 2.30469,0 4.00391,0.39062 1.71875,0.3711 2.96875,1.28907 1.23047,0.89843 1.875,2.32422 0.64453,1.42578 0.64453,3.53515 z M 372.854,282.0351 v -6.07422 q -1.67968,0.0977 -3.96484,0.29297 -2.26562,0.19531 -3.59375,0.5664 -1.58203,0.44922 -2.55859,1.40625 -0.97657,0.9375 -0.97657,2.59766 0,1.875 1.13282,2.83203 1.13281,0.9375 3.45703,0.9375 1.93359,0 3.53515,-0.74219 1.60157,-0.76172 2.96875,-1.8164 z"
       id="path1936" />
    <path
       d="m 394.94385,287.21088 q -1.03516,0.27343 -2.26563,0.44922 -1.21093,0.17578 -2.16797,0.17578 -3.33984,0 -5.07812,-1.79688 -1.73828,-1.79687 -1.73828,-5.76172 v -11.60156 h -2.48047 v -3.08594 h 2.48047 v -6.26953 h 3.67187 v 6.26953 h 7.57813 v 3.08594 h -7.57813 v 9.94141 q 0,1.71875 0.0781,2.69531 0.0781,0.95703 0.54687,1.79687 0.42969,0.78125 1.17188,1.15235 0.76172,0.35156 2.30469,0.35156 0.89843,0 1.875,-0.25391 0.97656,-0.27343 1.40625,-0.44921 h 0.19531 z"
       id="path1938" />
    <path
       d="m 403.34229,261.93744 h -4.14063 v -3.80859 h 4.14063 z m -0.23438,25.46875 h -3.67187 v -21.81641 h 3.67187 z"
       id="path1940" />
    <path
       d="m 429.00635,276.50775 q 0,5.33203 -2.73438,8.41797 -2.73437,3.08594 -7.32422,3.08594 -4.6289,0 -7.36328,-3.08594 -2.71484,-3.08594 -2.71484,-8.41797 0,-5.33203 2.71484,-8.41797 2.73438,-3.10547 7.36328,-3.10547 4.58985,0 7.32422,3.10547 2.73438,3.08594 2.73438,8.41797 z m -3.78906,0 q 0,-4.23828 -1.66016,-6.28906 -1.66016,-2.07031 -4.60938,-2.07031 -2.98828,0 -4.64843,2.07031 -1.64063,2.05078 -1.64063,6.28906 0,4.10156 1.66016,6.23047 1.66015,2.10938 4.6289,2.10938 2.92969,0 4.58985,-2.08985 1.67969,-2.10937 1.67969,-6.25 z"
       id="path1942" />
    <path
       d="m 452.95166,287.40619 h -3.67187 v -12.42188 q 0,-1.5039 -0.17579,-2.8125 -0.17578,-1.32812 -0.64453,-2.07031 -0.48828,-0.82031 -1.40625,-1.21094 -0.91797,-0.41015 -2.38281,-0.41015 -1.50391,0 -3.14453,0.74219 -1.64063,0.74218 -3.14453,1.89453 v 16.28906 h -3.67188 v -21.81641 h 3.67188 v 2.42188 q 1.71875,-1.42578 3.55469,-2.22656 1.83593,-0.80079 3.76953,-0.80079 3.53515,0 5.39062,2.12891 1.85547,2.12891 1.85547,6.13281 z"
       id="path1944" />
    <path
       d="m 475.60791,281.11713 q 0,2.98828 -2.48047,4.90234 -2.46094,1.91406 -6.73828,1.91406 -2.42187,0 -4.45312,-0.5664 -2.01172,-0.58594 -3.37891,-1.26953 v -4.1211 h 0.19531 q 1.73828,1.3086 3.86719,2.08985 2.12891,0.76171 4.08203,0.76171 2.42188,0 3.78906,-0.78125 1.36719,-0.78125 1.36719,-2.46093 0,-1.28907 -0.74219,-1.95313 -0.74218,-0.66406 -2.85156,-1.13281 -0.78125,-0.17578 -2.05078,-0.41016 -1.25,-0.23437 -2.28516,-0.50781 -2.87109,-0.76172 -4.08203,-2.22656 -1.1914,-1.48438 -1.1914,-3.63281 0,-1.34766 0.54687,-2.53907 0.56641,-1.1914 1.69922,-2.1289 1.09375,-0.91797 2.77344,-1.44532 1.69922,-0.54687 3.78906,-0.54687 1.95312,0 3.94531,0.48828 2.01172,0.46875 3.33985,1.15234 v 3.92579 h -0.19532 q -1.40625,-1.03516 -3.41797,-1.73829 -2.01171,-0.72265 -3.94531,-0.72265 -2.01172,0 -3.39844,0.78125 -1.38671,0.76172 -1.38671,2.28515 0,1.34766 0.83984,2.03125 0.82031,0.6836 2.65625,1.11329 1.01562,0.23437 2.26562,0.46875 1.26954,0.23437 2.10938,0.42968 2.55859,0.58594 3.94531,2.01172 1.38672,1.44531 1.38672,3.82813 z"
       id="path1946" />
    <path
       d="m 518.1665,287.40619 h -4.12109 l -2.85156,-8.10547 h -12.57813 l -2.85156,8.10547 h -3.92578 l 10.58594,-29.08203 h 5.15625 z m -8.16406,-11.42578 -5.09765,-14.27735 -5.11719,14.27735 z"
       id="path1948" />
    <path
       d="m 541.604,267.11322 q 0,1.93359 -0.68359,3.59375 -0.66406,1.64063 -1.875,2.85156 -1.50391,1.50391 -3.55469,2.26563 -2.05078,0.74219 -5.17578,0.74219 h -3.86719 v 10.83984 h -3.86718 v -29.08203 h 7.89062 q 2.61719,0 4.4336,0.44922 1.8164,0.42968 3.22265,1.36718 1.66016,1.11329 2.5586,2.77344 0.91796,1.66016 0.91796,4.19922 z m -4.02343,0.0977 q 0,-1.50391 -0.52735,-2.61719 -0.52734,-1.11328 -1.60156,-1.81641 -0.9375,-0.60547 -2.14844,-0.85937 -1.1914,-0.27344 -3.02734,-0.27344 h -3.82813 v 11.62109 h 3.26172 q 2.34375,0 3.8086,-0.41015 1.46484,-0.42969 2.38281,-1.34766 0.91797,-0.9375 1.28906,-1.97265 0.39063,-1.03516 0.39063,-2.32422 z"
       id="path1950" />
    <path
       d="m 556.9751,287.40619 h -11.48438 v -2.96875 h 3.8086 v -23.14453 h -3.8086 v -2.96875 h 11.48438 v 2.96875 h -3.8086 v 23.14453 h 3.8086 z"
       id="path1952" />
  </g>
</svg>
