<?xml version="1.0" encoding="UTF-8" standalone="no"?>
<svg
   xmlns:dc="http://purl.org/dc/elements/1.1/"
   xmlns:cc="http://creativecommons.org/ns#"
   xmlns:rdf="http://www.w3.org/1999/02/22-rdf-syntax-ns#"
   xmlns:svg="http://www.w3.org/2000/svg"
   xmlns="http://www.w3.org/2000/svg"
   xmlns:sodipodi="http://sodipodi.sourceforge.net/DTD/sodipodi-0.dtd"
   xmlns:inkscape="http://www.inkscape.org/namespaces/inkscape"
   inkscape:version="1.0beta2 (2b71d25, 2019-12-03)"
   height="304.5726"
   width="718.30841"
   sodipodi:docname="zowe-secure-credential-store-plugin-cli.svg"
   version="1.1"
   viewBox="0 0 718.30841 304.57261"
   data-name="Layer 1"
   id="Layer_1">
  <metadata
     id="metadata3617">
    <rdf:RDF>
      <cc:Work
         rdf:about="">
        <dc:format>image/svg+xml</dc:format>
        <dc:type
           rdf:resource="http://purl.org/dc/dcmitype/StillImage" />
        <dc:title>zowe-logo-color</dc:title>
      </cc:Work>
    </rdf:RDF>
  </metadata>
  <sodipodi:namedview
     inkscape:current-layer="Layer_1"
     inkscape:window-maximized="0"
     inkscape:window-y="116"
     inkscape:window-x="700"
     inkscape:cy="121.15287"
     inkscape:cx="366.8"
     inkscape:zoom="0.61237374"
     showgrid="false"
     id="namedview3615"
     inkscape:window-height="853"
     inkscape:window-width="864"
     inkscape:pageshadow="2"
     inkscape:pageopacity="0"
     guidetolerance="10"
     gridtolerance="10"
     objecttolerance="10"
     borderopacity="1"
     inkscape:document-rotation="0"
     bordercolor="#666666"
     pagecolor="#ffffff" />
  <defs
     id="defs3552">
    <style
       id="style3550">.cls-1{fill:#0033a1;}.cls-2{fill:#2a7de1;}</style>
  </defs>
  <title
     id="title3554">zowe-logo-color</title>
  <polygon
     transform="translate(-29.2,-55.777)"
     id="polygon3556"
     points="29.202,156.633 81.719,155.81 153.203,105.713 168.197,136.32 181.956,55.782 "
     class="cls-1" />
  <polygon
     transform="translate(-29.2,-55.777)"
     id="polygon3558"
     points="181.954,55.777 271.51,191.418 164.529,154.712 "
     class="cls-2" />
  <polyline
     transform="translate(-29.2,-55.777)"
     id="polyline3560"
     points="131.223 229.511 139.675 241.691 216.405 187.184 203.42 168.057 159.152 198.91 164.527 154.716 271.508 191.416 125.787 294.202"
     class="cls-1" />
  <polygon
     transform="translate(-29.2,-55.777)"
     id="polygon3562"
     points="94.075,176.677 143.275,143.238 125.788,293.012 29.2,156.634 81.723,155.811 "
     class="cls-2" />
  <path
     inkscape:connector-curvature="0"
     id="path3564"
     d="m 587.23191,35.4428 h 5.29468 a 6.88644,6.88644 0 0 1 4.63135,1.36974 4.52388,4.52388 0 0 1 1.62157,3.71612 4.67514,4.67514 0 0 1 -1.62157,3.753 7.14731,7.14731 0 0 1 -4.79105,1.382 h -3.65465 V 54.656 h -1.48033 z m 1.48033,1.23459 v 7.69637 h 3.56251 a 5.57788,5.57788 0 0 0 3.6547,-1.01963 3.84745,3.84745 0 0 0 0.27639,-5.436 0.34852,0.34852 0 0 1 -0.043,-0.04916 l -0.1904,-0.20882 a 5.3287,5.3287 0 0 0 -3.50731,-1.038 z"
     class="cls-2" />
  <path
     inkscape:connector-curvature="0"
     id="path3566"
     d="m 603.86285,35.4428 h 4.90774 a 7.28588,7.28588 0 0 1 4.73571,1.35132 4.43482,4.43482 0 0 1 1.63385,3.61781 4.77216,4.77216 0 0 1 -3.65465,4.6559 8.891,8.891 0 0 1 2.56135,2.94829 l 4.34877,6.63987 h -1.77514 l -3.3476,-5.23325 a 12.51111,12.51111 0 0 0 -2.59819,-3.29231 4.8449,4.8449 0 0 0 -2.73333,-0.65719 h -2.65348 v 9.21963 h -1.48028 z m 1.48033,1.23459 v 7.52438 h 3.17557 a 6.18842,6.18842 0 0 0 3.73454,-0.98279 3.61961,3.61961 0 0 0 0.42378,-5.09814 l -0.44224,-0.44224 a 6.15319,6.15319 0 0 0 -3.753,-1.00121 z"
     class="cls-2" />
  <path
     inkscape:connector-curvature="0"
     id="path3568"
     d="m 631.17162,35.19832 a 10.00767,10.00767 0 0 1 7.21716,2.8623 9.627,9.627 0 0 1 0.344,13.61141 c -0.0368,0.0368 -0.0737,0.0737 -0.1105,0.11669 l -0.23347,0.2457 a 10.49871,10.49871 0 0 1 -14.416,0 9.74545,9.74545 0 0 1 -0.20263,-13.77108 l 0.0123,-0.0061 0.19035,-0.19658 a 9.95061,9.95061 0 0 1 7.19888,-2.8623 m 0,18.32252 a 8.24138,8.24138 0 0 0 6.06247,-2.44461 8.5868,8.5868 0 0 0 0,-12.05123 8.71124,8.71124 0 0 0 -12.1434,0 8.50806,8.50806 0 0 0 0,12.03281 8.30684,8.30684 0 0 0 6.08093,2.44461"
     class="cls-2" />
  <path
     inkscape:connector-curvature="0"
     id="path3570"
     d="m 648.82228,35.44463 v 19.25006 a 6.22857,6.22857 0 0 1 -1.19161,4.34877 3.8501,3.8501 0 0 1 -2.8317,1.21617 q -0.44214,0.0184 -0.88448,0 l -0.13515,-1.38815 a 4.62122,4.62122 0 0 0 0.86611,0.0983 c 1.812,0 2.69645,-1.27147 2.69645,-3.85123 V 35.44463 Z"
     class="cls-2" />
  <polygon
     transform="translate(-29.2,-55.777)"
     id="polygon3572"
     points="686.071,92.456 686.071,100.134 694.824,100.134 694.824,101.387 686.071,101.387 686.071,109.182 695.266,109.182 695.266,110.429 684.585,110.429 684.585,91.222 695.057,91.222 695.057,92.456 "
     class="cls-2" />
  <path
     inkscape:connector-curvature="0"
     id="path3574"
     d="m 687.39486,36.81249 v 1.61543 A 14.69811,14.69811 0 0 0 680.54,36.5054 a 8.0693,8.0693 0 0 0 -5.96416,2.44466 8.24453,8.24453 0 0 0 -2.40784,6.08094 8.14392,8.14392 0 0 0 2.40778,6.11777 8.47367,8.47367 0 0 0 6.17916,2.3709 14.50977,14.50977 0 0 0 6.83027,-1.92252 v 1.53558 a 14.27085,14.27085 0 0 1 -6.79343,1.79356 10.06857,10.06857 0 0 1 -7.31548,-2.81319 9.83525,9.83525 0 0 1 -0.006,-13.90622 0.006,0.006 0 0 0 0.006,-0.0061 0.7022,0.7022 0 0 0 0.13515,-0.13515 10.02036,10.02036 0 0 1 7.10666,-2.83161 16.137,16.137 0 0 1 6.7565,1.61544"
     class="cls-2" />
  <polygon
     transform="translate(-29.2,-55.777)"
     id="polygon3576"
     points="728.51,92.456 728.51,110.429 727.005,110.429 727.005,92.456 719.788,92.456 719.788,91.222 735.709,91.222 735.709,92.456 "
     class="cls-2" />
  <polygon
     transform="translate(-29.2,-55.777)"
     id="polygon3578"
     points="410.365,99.444 404.592,106.582 404.076,106.582 398.277,99.444 398.277,111.778 392.043,111.778 392.043,90.495 397.86,90.495 404.401,98.48 410.961,90.495 416.797,90.495 416.797,111.778 410.365,111.778 "
     class="cls-2" />
  <path
     inkscape:connector-curvature="0"
     id="path3580"
     d="m 416.33272,56.00365 h -6.56614 l -1.75054,-4.31193 H 398.778 l -1.769,4.31193 h -6.56615 L 399.859,34.71433 h 7.18037 z m -9.77855,-8.02806 -3.12032,-7.69633 -3.151,7.69633 z"
     class="cls-2" />
  <rect
     id="rect3582"
     height="21.28314"
     width="6.4064398"
     y="34.71859"
     x="419.18277"
     class="cls-2" />
  <polygon
     transform="translate(-29.2,-55.777)"
     id="polygon3584"
     points="466.532,99.923 466.532,111.778 460.181,111.778 460.181,90.495 465.875,90.495 476.882,102.288 476.882,90.495 483.276,90.495 483.276,111.778 477.576,111.778 "
     class="cls-2" />
  <polygon
     transform="translate(-29.2,-55.777)"
     id="polygon3586"
     points="495.039,111.779 488.626,111.779 488.626,90.49 503.871,90.49 503.871,94.765 495.039,94.765 495.039,98.887 503.871,98.887 503.871,103.156 495.039,103.156 "
     class="cls-2" />
  <path
     inkscape:connector-curvature="0"
     id="path3588"
     d="m 499.595,56.00112 h -6.8917 l -1.67074,-3.84509 a 16.48553,16.48553 0 0 0 -1.6584,-3.02815 3.5709,3.5709 0 0 0 -1.43731,-1.22849 5.21472,5.21472 0 0 0 -1.812,-0.27026 h -0.71254 v 8.31674 h -6.431 V 34.718 h 10.91499 a 7.868,7.868 0 0 1 4.33035,1.07488 6.46344,6.46344 0 0 1 2.44461,2.59823 6.72627,6.72627 0 0 1 0.731,2.92373 5.4132,5.4132 0 0 1 -0.61422,2.73334 4.99247,4.99247 0 0 1 -1.30835,1.61543 14.60055,14.60055 0 0 1 -1.56014,0.96433 5.90891,5.90891 0 0 1 1.69529,1.425 16.98237,16.98237 0 0 1 1.88569,3.2923 z m -8.716,-14.56961 a 2.15338,2.15338 0 0 0 -0.98279,-2.03921 6.28282,6.28282 0 0 0 -3.13874,-0.5958 h -1.34518 v 5.14111 h 1.36974 a 7.19359,7.19359 0 0 0 3.23087,-0.52209 2.149,2.149 0 0 0 0.8661,-1.92257"
     class="cls-2" />
  <path
     inkscape:connector-curvature="0"
     id="path3590"
     d="m 525.87192,56.00365 h -6.56615 l -1.73212,-4.31193 h -9.238 l -1.769,4.31193 H 499.982 l 9.41,-21.28932 h 7.10052 z m -9.77856,-8.02806 -3.12036,-7.69633 -3.13874,7.69633 z"
     class="cls-2" />
  <polygon
     transform="translate(-29.2,-55.777)"
     id="polygon3592"
     points="576.245,99.444 570.446,106.582 569.949,106.582 564.132,99.444 564.132,111.778 557.897,111.778 557.897,90.495 563.733,90.495 570.256,98.48 576.84,90.495 582.651,90.495 582.651,111.778 576.245,111.778 "
     class="cls-2" />
  <polygon
     transform="translate(-29.2,-55.777)"
     id="polygon3594"
     points="588.024,90.495 603.804,90.495 603.804,94.764 594.449,94.764 594.449,98.652 603.38,98.652 603.38,102.945 594.449,102.945 594.449,107.485 604.074,107.485 604.074,111.778 588.024,111.778 "
     class="cls-2" />
  <path
     inkscape:connector-curvature="0"
     id="path3596"
     d="m 283.15852,35.42865 a 11.03124,11.03124 0 0 1 8.06485,3.194 10.85708,10.85708 0 0 1 0.31941,15.34967 0.18792,0.18792 0 0 0 -0.0492,0.0492 l -0.27025,0.26412 a 11.73656,11.73656 0 0 1 -16.09291,0 10.89088,10.89088 0 0 1 -0.20882,-15.39265 l 0.20882,-0.215 a 11.08033,11.08033 0 0 1 8.02806,-3.194 m 0,20.46 a 9.21918,9.21918 0 0 0 6.775,-2.73333 9.62184,9.62184 0 0 0 0,-13.47008 9.78988,9.78988 0 0 0 -13.5684,0 9.50155,9.50155 0 0 0 -0.0246,13.44552 l 0.0246,0.0246 a 9.2606,9.2606 0 0 0 6.79343,2.73333"
     class="cls-2" />
  <path
     inkscape:connector-curvature="0"
     id="path3598"
     d="m 298.57146,35.694 h 5.915 a 7.96062,7.96062 0 0 1 5.19642,1.52331 5.61267,5.61267 0 0 1 -0.11669,8.35356 8.05225,8.05225 0 0 1 -5.33156,1.56014 h -4.10303 v 9.98742 h -1.65227 z m 1.65845,1.38815 v 8.66071 h 4.00476 a 6.42467,6.42467 0 0 0 4.07851,-1.13632 4.34636,4.34636 0 0 0 0.23342,-6.13619 0.89411,0.89411 0 0 0 -0.215,-0.215 5.7378,5.7378 0 0 0 -3.8451,-1.1732 z"
     class="cls-2" />
  <polygon
     transform="translate(-29.2,-55.777)"
     id="polygon3600"
     points="345.519,92.862 345.519,101.443 355.304,101.443 355.304,102.831 345.519,102.831 345.519,111.547 355.82,111.547 355.82,112.935 343.867,112.935 343.867,91.474 355.568,91.474 355.568,92.862 "
     class="cls-2" />
  <polygon
     transform="translate(-29.2,-55.777)"
     id="polygon3602"
     points="377.181,112.935 360.885,94.164 360.885,112.935 359.227,112.935 359.227,91.474 360.634,91.474 376.892,110.22 376.892,91.474 378.551,91.474 378.551,112.935 "
     class="cls-2" />
  <path
     inkscape:connector-curvature="0"
     id="path3604"
     d="m 269.81527,175.16729 64.79151,-75.394 h -62.772 V 77.0545 h 96.09326 V 96.744 l -64.79151,75.394 h 64.79151 v 22.71875 h -98.1128 z"
     class="cls-1" />
  <path
     inkscape:connector-curvature="0"
     id="path3606"
     d="m 381.22348,150.26007 v -0.33692 c 0,-25.916 20.86816,-46.95215 48.97265,-46.95215 27.93555,0 48.63477,20.69922 48.63477,46.61622 v 0.33593 c 0,25.917 -20.86719,46.95313 -48.97168,46.95313 -27.93652,0 -48.63574,-20.69922 -48.63574,-46.61621 z m 72.36425,0 v -0.33692 c 0,-13.29443 -9.59277,-24.90625 -23.72851,-24.90625 -14.6416,0 -23.39258,11.27539 -23.39258,24.57032 v 0.33593 c 0,13.29492 9.59277,24.90723 23.72949,24.90723 14.64063,0 23.3916,-11.27538 23.3916,-24.57031 z"
     class="cls-1" />
  <path
     inkscape:connector-curvature="0"
     id="path3608"
     d="m 485.89926,104.65362 h 25.917 L 526.28891,159.348 543.286,104.3172 h 22.0459 l 17.165,55.19873 14.80957,-54.86231 h 25.41211 l -28.10449,90.876 h -23.05565 l -17.334,-55.3667 -17.66992,55.3667 h -22.88768 z"
     class="cls-1" />
  <path
     inkscape:connector-curvature="0"
     id="path3610"
     d="m 629.78793,150.26007 v -0.33692 c 0,-25.748 18.34375,-46.95215 44.59668,-46.95215 30.124,0 43.92383,23.39209 43.92383,48.97168 0,2.01954 -0.16895,4.376 -0.33692,6.73145 H 655.2 c 2.52344,11.6123 10.60156,17.6709 22.0459,17.6709 8.582,0 14.80859,-2.69238 21.877,-9.25586 l 14.6416,12.958 c -8.415,10.43359 -20.53125,16.8291 -36.85547,16.8291 -27.09473,1e-5 -47.1211,-19.01659 -47.1211,-46.6162 z m 63.61328,-7.57276 c -1.51465,-11.44384 -8.24609,-19.18506 -19.0166,-19.18506 -10.60254,0 -17.50195,7.57276 -19.52148,19.18506 z"
     class="cls-1" />
  <polygon
     transform="translate(-29.2,-55.777)"
     id="polygon3612"
     points="143.275,143.239 94.075,176.677 137.471,193.298 "
     class="cls-1" />
  <g
     style="font-style:normal;font-weight:normal;font-size:40px;line-height:1.25;font-family:sans-serif;fill:#000000;fill-opacity:1;stroke:none"
     id="text4369"
     aria-label="Secure Credential Store Plug-in">
    <path
       d="m 289.61914,257.78711 v 11.83594 c -0.75521,-1.30209 -1.71224,-2.26563 -2.87109,-2.89063 -1.14584,-0.63802 -2.52605,-0.95703 -4.14063,-0.95703 -2.64323,0 -4.79818,1.05468 -6.46484,3.16406 -1.65364,2.10938 -2.48047,4.88282 -2.48047,8.32032 0,3.4375 0.82683,6.21093 2.48047,8.32031 1.66666,2.10937 3.82161,3.16406 6.46484,3.16406 1.61458,0 2.99479,-0.3125 4.14063,-0.9375 1.15885,-0.63802 2.11588,-1.60808 2.87109,-2.91016 v 3.28125 h 3.59375 v -30.39062 z m 76.69922,0 v 4.55078 h 3.59375 v -4.55078 z m 35.625,0 v 30.39062 h 3.59375 v -30.39062 z m 166.48437,0 v 30.39062 h 3.59375 v -30.39062 z m 76.32813,0 v 4.55078 h 3.59375 v -4.55078 z m -579.023438,0.70312 c -3.190104,0 -5.696615,0.74219 -7.519531,2.22657 -1.809896,1.48437 -2.714844,3.51562 -2.714844,6.09375 0,2.22656 0.657551,3.96484 1.972656,5.21484 1.315104,1.25 3.444011,2.16797 6.386719,2.75391 l 2.402344,0.46875 c 2.005208,0.40364 3.444011,1.00911 4.316406,1.8164 0.885417,0.80729 1.328125,1.92708 1.328125,3.35938 0,1.64062 -0.61198,2.90365 -1.835938,3.78906 -1.223958,0.88542 -2.962239,1.32813 -5.214843,1.32813 -1.484375,0 -2.994792,-0.22786 -4.53125,-0.6836 -1.536458,-0.45572 -3.105469,-1.13281 -4.707032,-2.03125 v 4.0625 c 1.666667,0.61198 3.27474,1.07422 4.824219,1.38672 1.5625,0.3125 3.033855,0.46875 4.414063,0.46875 3.658854,0 6.432291,-0.72917 8.320312,-2.1875 1.901041,-1.45833 2.851563,-3.60026 2.851563,-6.42578 0,-2.36979 -0.703125,-4.25782 -2.109375,-5.66406 -1.39323,-1.41928 -3.561199,-2.40886 -6.503907,-2.96875 l -2.382812,-0.48828 c -2.161458,-0.40365 -3.632813,-0.931 -4.414063,-1.58204 -0.768229,-0.66406 -1.152343,-1.64062 -1.152343,-2.92968 0,-1.53646 0.579427,-2.72136 1.738281,-3.55469 1.171875,-0.83333 2.832031,-1.25 4.980469,-1.25 1.236979,0 2.519531,0.17578 3.847656,0.52734 1.328125,0.35156 2.740885,0.88542 4.238281,1.60157 v -3.84766 c -1.484375,-0.49479 -2.936198,-0.86589 -4.355469,-1.11328 -1.41927,-0.2474 -2.812499,-0.3711 -4.179687,-0.3711 z m 154.003908,0 c -4.41406,0 -7.89063,1.35417 -10.42969,4.0625 -2.53907,2.69532 -3.80859,6.38672 -3.80859,11.07422 0,4.67448 1.26952,8.36589 3.80859,11.07422 2.53906,2.69532 6.01563,4.04297 10.42969,4.04297 1.71875,0 3.34635,-0.23438 4.88281,-0.70312 1.54948,-0.46876 3.01433,-1.17188 4.39453,-2.10938 v -4.12109 c -1.32812,1.23698 -2.7474,2.16145 -4.25781,2.77343 -1.4974,0.61198 -3.09245,0.91797 -4.78516,0.91797 -3.33333,0 -5.88541,-1.01562 -7.65625,-3.04687 -1.77083,-2.04428 -2.65625,-4.98699 -2.65625,-8.82813 0,-3.85416 0.88542,-6.79687 2.65625,-8.82812 1.77084,-2.04428 4.32292,-3.06641 7.65625,-3.06641 1.69271,0 3.28776,0.30599 4.78516,0.91797 1.51041,0.61198 2.92969,1.53646 4.25781,2.77344 v -4.16016 c -1.35416,-0.92447 -2.80599,-1.61458 -4.35547,-2.07031 -1.53646,-0.46875 -3.17708,-0.70313 -4.92187,-0.70313 z m 215.13672,0 c -3.1901,0 -5.69661,0.74219 -7.51953,2.22657 -1.8099,1.48437 -2.71485,3.51562 -2.71485,6.09375 0,2.22656 0.65756,3.96484 1.97266,5.21484 1.3151,1.25 3.44401,2.16797 6.38672,2.75391 l 2.40234,0.46875 c 2.00521,0.40364 3.44401,1.00911 4.31641,1.8164 0.88542,0.80729 1.32812,1.92708 1.32812,3.35938 0,1.64062 -0.61198,2.90365 -1.83594,3.78906 -1.22396,0.88542 -2.96224,1.32813 -5.21484,1.32813 -1.48438,0 -2.9948,-0.22786 -4.53125,-0.6836 -1.53646,-0.45572 -3.10547,-1.13281 -4.70703,-2.03125 v 4.0625 c 1.66667,0.61198 3.27474,1.07422 4.82422,1.38672 1.5625,0.3125 3.03385,0.46875 4.41406,0.46875 3.65885,0 6.43229,-0.72917 8.32031,-2.1875 1.90104,-1.45833 2.85157,-3.60026 2.85157,-6.42578 0,-2.36979 -0.70313,-4.25782 -2.10938,-5.66406 -1.39323,-1.41928 -3.5612,-2.40886 -6.50391,-2.96875 l -2.38281,-0.48828 c -2.16146,-0.40365 -3.63281,-0.931 -4.41406,-1.58204 -0.76823,-0.66406 -1.15234,-1.64062 -1.15234,-2.92968 0,-1.53646 0.57942,-2.72136 1.73828,-3.55469 1.17188,-0.83333 2.83203,-1.25 4.98047,-1.25 1.23698,0 2.51953,0.17578 3.84765,0.52734 1.32813,0.35156 2.74089,0.88542 4.23828,1.60157 v -3.84766 c -1.48437,-0.49479 -2.93619,-0.86589 -4.35547,-1.11328 -1.41927,-0.2474 -2.8125,-0.3711 -4.17968,-0.3711 z m 109.57031,0.52735 v 29.16015 h 3.94531 v -11.71875 h 4.96094 c 3.26823,0 5.73568,-0.73567 7.40234,-2.20703 1.67969,-1.47136 2.51953,-3.64583 2.51953,-6.52343 0,-2.85157 -0.83984,-5.01303 -2.51953,-6.48438 -1.66666,-1.48437 -4.13411,-2.22656 -7.40234,-2.22656 z m -193.88672,1.07422 v 6.21093 h -2.63672 v 2.79297 h 2.63672 v 11.875 c 0,2.73438 0.52735,4.6224 1.58203,5.66407 1.05469,1.02864 2.96875,1.54296 5.74219,1.54296 h 3.69141 v -3.00781 h -3.69141 c -1.4974,0 -2.49349,-0.25391 -2.98828,-0.76172 -0.48177,-0.50781 -0.72266,-1.65364 -0.72266,-3.4375 v -11.875 h 7.40235 v -2.79297 h -7.40235 v -6.21093 z m 100.54688,0 v 6.21093 h -2.63672 v 2.79297 h 2.63672 v 11.875 c 0,2.73438 0.52734,4.6224 1.58203,5.66407 1.05468,1.02864 2.96874,1.54296 5.74218,1.54296 h 3.69141 v -3.00781 h -3.69141 c -1.49739,0 -2.49348,-0.25391 -2.98828,-0.76172 -0.48177,-0.50781 -0.72265,-1.65364 -0.72265,-3.4375 v -11.875 h 7.40234 v -2.79297 h -7.40234 v -6.21093 z m 97.28515,2.16797 h 4.96094 c 1.83593,0 3.25521,0.47526 4.25781,1.42578 1.0026,0.95052 1.50391,2.29817 1.50391,4.04297 0,1.75781 -0.50131,3.11198 -1.50391,4.0625 -1.0026,0.95052 -2.42188,1.42578 -4.25781,1.42578 h -4.96094 z m -457.207029,3.51562 c -3.28125,0 -5.891928,1.05468 -7.832032,3.16406 -1.927083,2.09636 -2.890625,4.9349 -2.890625,8.51563 0,3.46354 1.015625,6.21093 3.046875,8.24219 2.044271,2.03124 4.811198,3.04687 8.300782,3.04687 1.393229,0 2.766927,-0.14323 4.121093,-0.42969 1.354167,-0.28646 2.675781,-0.70312 3.964844,-1.25 v -3.39843 c -1.276042,0.67708 -2.565104,1.18489 -3.867187,1.52343 -1.289063,0.33854 -2.623699,0.50782 -4.003907,0.50782 -2.382812,0 -4.244791,-0.64453 -5.585937,-1.9336 -1.328125,-1.30208 -2.070313,-3.1901 -2.226563,-5.66406 h 16.523436 v -1.75781 c 0,-3.25521 -0.859372,-5.82683 -2.578123,-7.71485 -1.705729,-1.90104 -4.029948,-2.85156 -6.972656,-2.85156 z m 24.882809,0 c -3.41146,0 -6.10026,1.02213 -8.0664,3.06641 -1.95312,2.04427 -2.92969,4.85026 -2.92969,8.41797 0,3.51562 0.97006,6.3086 2.91016,8.3789 1.9401,2.07032 4.55729,3.10547 7.85156,3.10547 1.21094,0 2.35026,-0.11719 3.41797,-0.35156 1.08073,-0.23438 2.1224,-0.58594 3.125,-1.05469 v -3.32031 c -1.01562,0.55989 -2.03776,0.98307 -3.06641,1.26953 -1.01563,0.27344 -2.04427,0.41016 -3.08594,0.41016 -2.33072,0 -4.14062,-0.73568 -5.42968,-2.20704 -1.28906,-1.48438 -1.9336,-3.5612 -1.9336,-6.23046 0,-2.66928 0.64454,-4.73959 1.9336,-6.21094 1.28906,-1.48438 3.09896,-2.22656 5.42968,-2.22656 1.04167,0 2.07031,0.14322 3.08594,0.42968 1.02865,0.27344 2.05079,0.6901 3.06641,1.25 v -3.35937 c -0.98958,-0.45573 -2.01172,-0.79427 -3.06641,-1.01563 -1.05469,-0.23438 -2.13541,-0.35156 -3.24219,-0.35156 z m 48.82813,0 c -1.73177,0 -3.20312,0.32552 -4.41406,0.97656 -1.21094,0.63802 -2.19401,1.6211 -2.94922,2.94922 v -3.39844 h -3.61328 v 21.875 h 3.61328 V 276.6543 c 0,-2.47396 0.54036,-4.3685 1.62109,-5.6836 1.09375,-1.32812 2.65625,-1.99218 4.6875,-1.99218 0.57291,0 1.09375,0.0586 1.5625,0.17578 0.48177,0.10416 0.92448,0.27344 1.32813,0.50781 l -0.0195,-3.69141 c -0.36458,-0.0651 -0.69661,-0.11065 -0.99609,-0.13672 -0.29948,-0.0391 -0.57291,-0.0586 -0.82031,-0.0586 z m 13.94531,0 c -3.28125,0 -5.89193,1.05468 -7.83203,3.16406 -1.92709,2.09636 -2.89063,4.9349 -2.89063,8.51563 0,3.46354 1.01563,6.21093 3.04688,8.24219 2.04427,2.03124 4.81119,3.04687 8.30078,3.04687 1.39323,0 2.76693,-0.14323 4.12109,-0.42969 1.35417,-0.28646 2.67579,-0.70312 3.96485,-1.25 v -3.39843 c -1.27604,0.67708 -2.56511,1.18489 -3.86719,1.52343 -1.28907,0.33854 -2.6237,0.50782 -4.00391,0.50782 -2.38281,0 -4.24479,-0.64453 -5.58593,-1.9336 -1.32812,-1.30208 -2.07031,-3.1901 -2.22657,-5.66406 h 16.52344 v -1.75781 c 0,-3.25521 -0.85937,-5.82683 -2.57812,-7.71485 -1.70573,-1.90104 -4.02995,-2.85156 -6.97266,-2.85156 z m 66.99219,0 c -1.73177,0 -3.20312,0.32552 -4.41406,0.97656 -1.21094,0.63802 -2.19401,1.6211 -2.94922,2.94922 v -3.39844 h -3.61328 v 21.875 h 3.61328 V 276.6543 c 0,-2.47396 0.54036,-4.3685 1.62109,-5.6836 1.09375,-1.32812 2.65625,-1.99218 4.6875,-1.99218 0.57291,0 1.09375,0.0586 1.5625,0.17578 0.48177,0.10416 0.92448,0.27344 1.32813,0.50781 l -0.0195,-3.69141 c -0.36458,-0.0651 -0.69661,-0.11065 -0.99609,-0.13672 -0.29948,-0.0391 -0.57291,-0.0586 -0.82031,-0.0586 z m 13.94531,0 c -3.28125,0 -5.89193,1.05468 -7.83203,3.16406 -1.92709,2.09636 -2.89063,4.9349 -2.89063,8.51563 0,3.46354 1.01563,6.21093 3.04688,8.24219 2.04427,2.03124 4.81119,3.04687 8.30078,3.04687 1.39323,0 2.76693,-0.14323 4.12109,-0.42969 1.35417,-0.28646 2.67579,-0.70312 3.96485,-1.25 v -3.39843 c -1.27604,0.67708 -2.56511,1.18489 -3.86719,1.52343 -1.28907,0.33854 -2.6237,0.50782 -4.00391,0.50782 -2.38281,0 -4.24479,-0.64453 -5.58593,-1.9336 -1.32812,-1.30208 -2.07031,-3.1901 -2.22657,-5.66406 h 16.52344 v -1.75781 c 0,-3.25521 -0.85937,-5.82683 -2.57812,-7.71485 -1.70573,-1.90104 -4.02995,-2.85156 -6.97266,-2.85156 z m 50,0 c -3.28125,0 -5.89193,1.05468 -7.83203,3.16406 -1.92709,2.09636 -2.89063,4.9349 -2.89063,8.51563 0,3.46354 1.01563,6.21093 3.04688,8.24219 2.04427,2.03124 4.81119,3.04687 8.30078,3.04687 1.39323,0 2.76693,-0.14323 4.12109,-0.42969 1.35417,-0.28646 2.67579,-0.70312 3.96485,-1.25 v -3.39843 c -1.27604,0.67708 -2.56511,1.18489 -3.86719,1.52343 -1.28907,0.33854 -2.6237,0.50782 -4.00391,0.50782 -2.38281,0 -4.24479,-0.64453 -5.58593,-1.9336 -1.32812,-1.30208 -2.07031,-3.1901 -2.22657,-5.66406 h 16.52344 v -1.75781 c 0,-3.25521 -0.85937,-5.82683 -2.57812,-7.71485 -1.70573,-1.90104 -4.02995,-2.85156 -6.97266,-2.85156 z m 25.99609,0 c -1.52344,0 -2.87109,0.32552 -4.04296,0.97656 -1.15886,0.65104 -2.16797,1.63412 -3.02735,2.94922 v -3.39844 h -3.61328 v 21.875 h 3.61328 v -12.36328 c 0,-2.13542 0.5599,-3.82161 1.67969,-5.05859 1.11979,-1.23698 2.64974,-1.85547 4.58984,-1.85547 1.61458,0 2.82552,0.51432 3.63282,1.54297 0.80729,1.02865 1.21093,2.57812 1.21093,4.64844 v 13.08593 h 3.59375 v -13.20312 c 0,-3.02083 -0.64453,-5.30599 -1.93359,-6.85547 -1.28907,-1.5625 -3.19011,-2.34375 -5.70313,-2.34375 z m 49.31641,0 c -1.17188,0 -2.37631,0.13021 -3.61328,0.39063 -1.23698,0.24739 -2.51302,0.62499 -3.82813,1.13281 v 3.32031 c 1.09376,-0.59895 2.23308,-1.04818 3.41797,-1.34766 1.1849,-0.29948 2.40235,-0.44921 3.65235,-0.44921 1.96614,0 3.48958,0.45572 4.57031,1.36718 1.09375,0.89844 1.64062,2.17448 1.64062,3.82813 v 0.35156 h -5.03906 c -3.26823,0 -5.72917,0.625 -7.38281,1.875 -1.64063,1.25 -2.46094,3.10547 -2.46094,5.56641 0,2.10937 0.65756,3.79557 1.97266,5.05859 1.32812,1.25 3.11197,1.875 5.35156,1.875 1.77083,0 3.26823,-0.3125 4.49219,-0.9375 1.22396,-0.63802 2.24609,-1.62109 3.0664,-2.94922 v 3.32031 h 3.59375 v -12.48046 c 0,-3.33334 -0.78125,-5.82032 -2.34375,-7.46094 -1.5625,-1.64063 -3.92578,-2.46094 -7.08984,-2.46094 z m 90.25391,0 c -3.13802,0 -5.59896,1.01562 -7.38282,3.04688 -1.77083,2.03124 -2.65625,4.84374 -2.65625,8.4375 0,3.58072 0.88542,6.39322 2.65625,8.4375 1.78386,2.03124 4.2448,3.04687 7.38282,3.04687 3.125,0 5.57942,-1.01563 7.36328,-3.04687 1.78386,-2.04428 2.67578,-4.85678 2.67578,-8.4375 0,-3.59376 -0.89192,-6.40626 -2.67578,-8.4375 -1.78386,-2.03126 -4.23828,-3.04688 -7.36328,-3.04688 z m 26.8164,0 c -1.73177,0 -3.20313,0.32552 -4.41406,0.97656 -1.21094,0.63802 -2.19401,1.6211 -2.94922,2.94922 v -3.39844 h -3.61328 v 21.875 h 3.61328 V 276.6543 c 0,-2.47396 0.54037,-4.3685 1.6211,-5.6836 1.09375,-1.32812 2.65625,-1.99218 4.6875,-1.99218 0.57292,0 1.09375,0.0586 1.5625,0.17578 0.48177,0.10416 0.92447,0.27344 1.32812,0.50781 l -0.0195,-3.69141 c -0.36459,-0.0651 -0.69661,-0.11065 -0.99609,-0.13672 -0.29948,-0.0391 -0.57292,-0.0586 -0.82032,-0.0586 z m 13.94532,0 c -3.28125,0 -5.89193,1.05468 -7.83204,3.16406 -1.92708,2.09636 -2.89062,4.9349 -2.89062,8.51563 0,3.46354 1.01563,6.21093 3.04687,8.24219 2.04428,2.03124 4.81121,3.04687 8.30079,3.04687 1.39323,0 2.76692,-0.14323 4.12109,-0.42969 1.35417,-0.28646 2.67578,-0.70312 3.96484,-1.25 v -3.39843 c -1.27604,0.67708 -2.5651,1.18489 -3.86718,1.52343 -1.28906,0.33854 -2.6237,0.50782 -4.00391,0.50782 -2.38281,0 -4.24479,-0.64453 -5.58594,-1.9336 -1.32812,-1.30208 -2.07031,-3.1901 -2.22656,-5.66406 h 16.52344 v -1.75781 c 0,-3.25521 -0.85938,-5.82683 -2.57813,-7.71485 -1.70573,-1.90104 -4.02995,-2.85156 -6.97265,-2.85156 z m 96.1914,0 c -2.68229,0 -4.84375,1.02213 -6.48437,3.06641 -1.64062,2.04427 -2.46094,4.75911 -2.46094,8.14453 0,3.37239 0.82032,6.08072 2.46094,8.125 1.64062,2.04427 3.80208,3.0664 6.48437,3.0664 1.61458,0 3.0013,-0.31901 4.16016,-0.95703 1.15886,-0.63802 2.10937,-1.60156 2.85156,-2.89062 v 1.77734 c 0,2.48698 -0.58593,4.34245 -1.75781,5.56641 -1.17188,1.23698 -2.9362,1.85547 -5.29297,1.85547 -1.06771,0 -2.11589,-0.13672 -3.14453,-0.41016 -1.02864,-0.27343 -2.07031,-0.69661 -3.125,-1.26953 v 3.49609 c 1.05469,0.39062 2.14193,0.67708 3.26172,0.85938 1.11979,0.19531 2.3112,0.29297 3.57422,0.29297 3.41146,0 5.94401,-0.91146 7.59765,-2.73438 1.65365,-1.80989 2.48047,-4.57682 2.48047,-8.30078 v -19.16016 h -3.59375 v 3.32032 c -0.74219,-1.28906 -1.6927,-2.2526 -2.85156,-2.89063 -1.15886,-0.63802 -2.54558,-0.95703 -4.16016,-0.95703 z m 54.10156,0 c -1.52344,0 -2.87109,0.32552 -4.04296,0.97656 -1.15886,0.65104 -2.16797,1.63412 -3.02735,2.94922 v -3.39844 h -3.61328 v 21.875 h 3.61328 v -12.36328 c 0,-2.13542 0.5599,-3.82161 1.67969,-5.05859 1.11979,-1.23698 2.64974,-1.85547 4.58984,-1.85547 1.61458,0 2.82552,0.51432 3.63282,1.54297 0.80729,1.02865 1.21093,2.57812 1.21093,4.64844 v 13.08593 h 3.59375 v -13.20312 c 0,-3.02083 -0.64453,-5.30599 -1.93359,-6.85547 -1.28907,-1.5625 -3.19011,-2.34375 -5.70313,-2.34375 z m -538.10546,0.52734 v 13.24219 c 0,3.00782 0.65103,5.29297 1.95312,6.85547 1.30208,1.5625 3.20964,2.34375 5.72266,2.34375 1.52344,0 2.85807,-0.31901 4.0039,-0.95703 1.15886,-0.65104 2.17448,-1.64062 3.04688,-2.96875 v 3.35937 h 3.59375 v -21.875 h -3.59375 v 12.40235 c 0,2.13542 -0.56641,3.82162 -1.69922,5.05859 -1.11979,1.23698 -2.64974,1.85547 -4.58984,1.85547 -1.61458,0 -2.82552,-0.51432 -3.63282,-1.54297 -0.80729,-1.04166 -1.21093,-2.59766 -1.21093,-4.66797 v -13.10547 z m 238.02734,0 v 21.875 h 3.59375 v -21.875 z m 212.83203,0 v 13.24219 c 0,3.00782 0.65105,5.29297 1.95313,6.85547 1.30208,1.5625 3.20963,2.34375 5.72265,2.34375 1.52344,0 2.85807,-0.31901 4.00391,-0.95703 1.15886,-0.65104 2.17448,-1.64062 3.04687,-2.96875 v 3.35937 h 3.59375 v -21.875 h -3.59375 v 12.40235 c 0,2.13542 -0.5664,3.82162 -1.69922,5.05859 -1.11979,1.23698 -2.64974,1.85547 -4.58984,1.85547 -1.61459,0 -2.82552,-0.51432 -3.63281,-1.54297 -0.80729,-1.04166 -1.21094,-2.59766 -1.21094,-4.66797 v -13.10547 z m 65.60547,0 v 21.875 h 3.59375 v -21.875 z m -361.26953,2.48047 c 1.90104,0 3.39844,0.75521 4.49219,2.26563 1.09375,1.49739 1.64062,3.5677 1.64062,6.21094 0,2.64322 -0.54687,4.72004 -1.64062,6.23046 -1.09375,1.4974 -2.59115,2.2461 -4.49219,2.2461 -1.90104,0 -3.39844,-0.7487 -4.49219,-2.2461 -1.08073,-1.51042 -1.62109,-3.58724 -1.62109,-6.23046 0,-2.64324 0.54036,-4.71355 1.62109,-6.21094 1.09375,-1.51042 2.59115,-2.26563 4.49219,-2.26563 z m 329.6875,0 c 1.9401,0 3.44401,0.71615 4.51172,2.14844 1.08073,1.43229 1.62109,3.45052 1.62109,6.05469 0,2.59114 -0.54036,4.60286 -1.62109,6.03515 -1.06771,1.43229 -2.57162,2.14844 -4.51172,2.14844 -1.92708,0 -3.43099,-0.71615 -4.51172,-2.14844 -1.06771,-1.43229 -1.60156,-3.44401 -1.60156,-6.03515 0,-2.60417 0.53385,-4.6224 1.60156,-6.05469 1.08073,-1.43229 2.58464,-2.14844 4.51172,-2.14844 z m -521.953127,0.0391 c 1.770833,0 3.190105,0.58593 4.257813,1.75781 1.08073,1.17187 1.634116,2.74088 1.660156,4.70703 l -12.8125,0.0195 c 0.182292,-2.05729 0.872396,-3.65234 2.070312,-4.78516 1.210938,-1.13281 2.81901,-1.69921 4.824219,-1.69921 z m 87.656247,0 c 1.77084,0 3.19011,0.58593 4.25782,1.75781 1.0807,1.17187 1.63409,2.74088 1.66015,4.70703 l -12.8125,0.0195 c 0.1823,-2.05729 0.8724,-3.65234 2.07031,-4.78516 1.21094,-1.13281 2.81902,-1.69921 4.82422,-1.69921 z m 80.9375,0 c 1.77084,0 3.19011,0.58593 4.25782,1.75781 1.0807,1.17187 1.63409,2.74088 1.66015,4.70703 l -12.8125,0.0195 c 0.1823,-2.05729 0.8724,-3.65234 2.07031,-4.78516 1.21094,-1.13281 2.81902,-1.69921 4.82422,-1.69921 z m 50,0 c 1.77084,0 3.19011,0.58593 4.25782,1.75781 1.0807,1.17187 1.63409,2.74088 1.66015,4.70703 l -12.8125,0.0195 c 0.1823,-2.05729 0.8724,-3.65234 2.07031,-4.78516 1.21094,-1.13281 2.81902,-1.69921 4.82422,-1.69921 z m 165.52735,0 c 1.91406,0 3.43099,0.76172 4.55078,2.28515 1.11979,1.51042 1.67969,3.5612 1.67969,6.15235 0,2.60416 -0.5599,4.66146 -1.67969,6.17187 -1.11979,1.51042 -2.63672,2.26563 -4.55078,2.26563 -1.9401,0 -3.47005,-0.7487 -4.58985,-2.2461 -1.10677,-1.51041 -1.66015,-3.57422 -1.66015,-6.1914 0,-2.61719 0.55989,-4.67448 1.67968,-6.17188 1.1198,-1.51041 2.64324,-2.26562 4.57032,-2.26562 z m 40.80078,0 c 1.77083,0 3.1901,0.58593 4.25781,1.75781 1.0807,1.17187 1.63409,2.74088 1.66016,4.70703 l -12.8125,0.0195 c 0.18229,-2.05729 0.87239,-3.65234 2.07031,-4.78516 1.21093,-1.13281 2.81901,-1.69921 4.82422,-1.69921 z m 112.34375,6.79687 v 3.20313 h 10.52734 v -3.20313 z m -241.13281,1.5625 h 3.57421 v 0.80078 c 0,2.34376 -0.60546,4.22526 -1.8164,5.64453 -1.19792,1.40625 -2.79297,2.10938 -4.78516,2.10938 -1.44531,0 -2.59114,-0.3711 -3.4375,-1.11328 -0.83333,-0.75521 -1.25,-1.77083 -1.25,-3.04688 0,-1.60156 0.5599,-2.73438 1.67969,-3.39844 1.11979,-0.66406 3.13151,-0.99609 6.03516,-0.99609 z"
       inkscape:original="M 289.61914 257.78711 L 289.61914 269.62305 C 288.86393 268.32096 287.9069 267.35742 286.74805 266.73242 C 285.60221 266.0944 284.222 265.77539 282.60742 265.77539 C 279.96419 265.77539 277.80924 266.83007 276.14258 268.93945 C 274.48894 271.04883 273.66211 273.82227 273.66211 277.25977 C 273.66211 280.69727 274.48894 283.4707 276.14258 285.58008 C 277.80924 287.68945 279.96419 288.74414 282.60742 288.74414 C 284.222 288.74414 285.60221 288.43164 286.74805 287.80664 C 287.9069 287.16862 288.86393 286.19856 289.61914 284.89648 L 289.61914 288.17773 L 293.21289 288.17773 L 293.21289 257.78711 L 289.61914 257.78711 z M 366.31836 257.78711 L 366.31836 262.33789 L 369.91211 262.33789 L 369.91211 257.78711 L 366.31836 257.78711 z M 401.94336 257.78711 L 401.94336 288.17773 L 405.53711 288.17773 L 405.53711 257.78711 L 401.94336 257.78711 z M 568.42773 257.78711 L 568.42773 288.17773 L 572.02148 288.17773 L 572.02148 257.78711 L 568.42773 257.78711 z M 644.75586 257.78711 L 644.75586 262.33789 L 648.34961 262.33789 L 648.34961 257.78711 L 644.75586 257.78711 z M 65.732422 258.49023 C 62.542318 258.49023 60.035807 259.23242 58.212891 260.7168 C 56.402995 262.20117 55.498047 264.23242 55.498047 266.81055 C 55.498047 269.03711 56.155598 270.77539 57.470703 272.02539 C 58.785807 273.27539 60.914714 274.19336 63.857422 274.7793 L 66.259766 275.24805 C 68.264974 275.65169 69.703777 276.25716 70.576172 277.06445 C 71.461589 277.87174 71.904297 278.99153 71.904297 280.42383 C 71.904297 282.06445 71.292317 283.32748 70.068359 284.21289 C 68.844401 285.09831 67.10612 285.54102 64.853516 285.54102 C 63.369141 285.54102 61.858724 285.31316 60.322266 284.85742 C 58.785808 284.4017 57.216797 283.72461 55.615234 282.82617 L 55.615234 286.88867 C 57.281901 287.50065 58.889974 287.96289 60.439453 288.27539 C 62.001953 288.58789 63.473308 288.74414 64.853516 288.74414 C 68.51237 288.74414 71.285807 288.01497 73.173828 286.55664 C 75.074869 285.09831 76.025391 282.95638 76.025391 280.13086 C 76.025391 277.76107 75.322266 275.87304 73.916016 274.4668 C 72.522786 273.04752 70.354817 272.05794 67.412109 271.49805 L 65.029297 271.00977 C 62.867839 270.60612 61.396484 270.07877 60.615234 269.42773 C 59.847005 268.76367 59.462891 267.78711 59.462891 266.49805 C 59.462891 264.96159 60.042318 263.77669 61.201172 262.94336 C 62.373047 262.11003 64.033203 261.69336 66.181641 261.69336 C 67.41862 261.69336 68.701172 261.86914 70.029297 262.2207 C 71.357422 262.57226 72.770182 263.10612 74.267578 263.82227 L 74.267578 259.97461 C 72.783203 259.47982 71.33138 259.10872 69.912109 258.86133 C 68.492839 258.61393 67.09961 258.49023 65.732422 258.49023 z M 219.73633 258.49023 C 215.32227 258.49023 211.8457 259.8444 209.30664 262.55273 C 206.76757 265.24805 205.49805 268.93945 205.49805 273.62695 C 205.49805 278.30143 206.76757 281.99284 209.30664 284.70117 C 211.8457 287.39649 215.32227 288.74414 219.73633 288.74414 C 221.45508 288.74414 223.08268 288.50976 224.61914 288.04102 C 226.16862 287.57226 227.63347 286.86914 229.01367 285.93164 L 229.01367 281.81055 C 227.68555 283.04753 226.26627 283.972 224.75586 284.58398 C 223.25846 285.19596 221.66341 285.50195 219.9707 285.50195 C 216.63737 285.50195 214.08529 284.48633 212.31445 282.45508 C 210.54362 280.4108 209.6582 277.46809 209.6582 273.62695 C 209.6582 269.77279 210.54362 266.83008 212.31445 264.79883 C 214.08529 262.75455 216.63737 261.73242 219.9707 261.73242 C 221.66341 261.73242 223.25846 262.03841 224.75586 262.65039 C 226.26627 263.26237 227.68555 264.18685 229.01367 265.42383 L 229.01367 261.26367 C 227.65951 260.3392 226.20768 259.64909 224.6582 259.19336 C 223.12174 258.72461 221.48112 258.49023 219.73633 258.49023 z M 434.87305 258.49023 C 431.68295 258.49023 429.17644 259.23242 427.35352 260.7168 C 425.54362 262.20117 424.63867 264.23242 424.63867 266.81055 C 424.63867 269.03711 425.29623 270.77539 426.61133 272.02539 C 427.92643 273.27539 430.05534 274.19336 432.99805 274.7793 L 435.40039 275.24805 C 437.4056 275.65169 438.8444 276.25716 439.7168 277.06445 C 440.60222 277.87174 441.04492 278.99153 441.04492 280.42383 C 441.04492 282.06445 440.43294 283.32748 439.20898 284.21289 C 437.98502 285.09831 436.24674 285.54102 433.99414 285.54102 C 432.50976 285.54102 430.99934 285.31316 429.46289 284.85742 C 427.92643 284.4017 426.35742 283.72461 424.75586 282.82617 L 424.75586 286.88867 C 426.42253 287.50065 428.0306 287.96289 429.58008 288.27539 C 431.14258 288.58789 432.61393 288.74414 433.99414 288.74414 C 437.65299 288.74414 440.42643 288.01497 442.31445 286.55664 C 444.21549 285.09831 445.16602 282.95638 445.16602 280.13086 C 445.16602 277.76107 444.46289 275.87304 443.05664 274.4668 C 441.66341 273.04752 439.49544 272.05794 436.55273 271.49805 L 434.16992 271.00977 C 432.00846 270.60612 430.53711 270.07877 429.75586 269.42773 C 428.98763 268.76367 428.60352 267.78711 428.60352 266.49805 C 428.60352 264.96159 429.18294 263.77669 430.3418 262.94336 C 431.51368 262.11003 433.17383 261.69336 435.32227 261.69336 C 436.55925 261.69336 437.8418 261.86914 439.16992 262.2207 C 440.49805 262.57226 441.91081 263.10612 443.4082 263.82227 L 443.4082 259.97461 C 441.92383 259.47982 440.47201 259.10872 439.05273 258.86133 C 437.63346 258.61393 436.24023 258.49023 434.87305 258.49023 z M 544.44336 259.01758 L 544.44336 288.17773 L 548.38867 288.17773 L 548.38867 276.45898 L 553.34961 276.45898 C 556.61784 276.45898 559.08529 275.72331 560.75195 274.25195 C 562.43164 272.78059 563.27148 270.60612 563.27148 267.72852 C 563.27148 264.87695 562.43164 262.71549 560.75195 261.24414 C 559.08529 259.75977 556.61784 259.01758 553.34961 259.01758 L 544.44336 259.01758 z M 350.55664 260.0918 L 350.55664 266.30273 L 347.91992 266.30273 L 347.91992 269.0957 L 350.55664 269.0957 L 350.55664 280.9707 C 350.55664 283.70508 351.08399 285.5931 352.13867 286.63477 C 353.19336 287.66341 355.10742 288.17773 357.88086 288.17773 L 361.57227 288.17773 L 361.57227 285.16992 L 357.88086 285.16992 C 356.38346 285.16992 355.38737 284.91601 354.89258 284.4082 C 354.41081 283.90039 354.16992 282.75456 354.16992 280.9707 L 354.16992 269.0957 L 361.57227 269.0957 L 361.57227 266.30273 L 354.16992 266.30273 L 354.16992 260.0918 L 350.55664 260.0918 z M 451.10352 260.0918 L 451.10352 266.30273 L 448.4668 266.30273 L 448.4668 269.0957 L 451.10352 269.0957 L 451.10352 280.9707 C 451.10352 283.70508 451.63086 285.5931 452.68555 286.63477 C 453.74023 287.66341 455.65429 288.17773 458.42773 288.17773 L 462.11914 288.17773 L 462.11914 285.16992 L 458.42773 285.16992 C 456.93034 285.16992 455.93425 284.91601 455.43945 284.4082 C 454.95768 283.90039 454.7168 282.75456 454.7168 280.9707 L 454.7168 269.0957 L 462.11914 269.0957 L 462.11914 266.30273 L 454.7168 266.30273 L 454.7168 260.0918 L 451.10352 260.0918 z M 548.38867 262.25977 L 553.34961 262.25977 C 555.18554 262.25977 556.60482 262.73503 557.60742 263.68555 C 558.61002 264.63607 559.11133 265.98372 559.11133 267.72852 C 559.11133 269.48633 558.61002 270.8405 557.60742 271.79102 C 556.60482 272.74154 555.18554 273.2168 553.34961 273.2168 L 548.38867 273.2168 L 548.38867 262.25977 z M 91.181641 265.77539 C 87.900391 265.77539 85.289713 266.83007 83.349609 268.93945 C 81.422526 271.03581 80.458984 273.87435 80.458984 277.45508 C 80.458984 280.91862 81.474609 283.66601 83.505859 285.69727 C 85.55013 287.72851 88.317057 288.74414 91.806641 288.74414 C 93.19987 288.74414 94.573568 288.60091 95.927734 288.31445 C 97.281901 288.02799 98.603515 287.61133 99.892578 287.06445 L 99.892578 283.66602 C 98.616536 284.3431 97.327474 284.85091 96.025391 285.18945 C 94.736328 285.52799 93.401692 285.69727 92.021484 285.69727 C 89.638672 285.69727 87.776693 285.05274 86.435547 283.76367 C 85.107422 282.46159 84.365234 280.57357 84.208984 278.09961 L 100.73242 278.09961 L 100.73242 276.3418 C 100.73242 273.08659 99.873048 270.51497 98.154297 268.62695 C 96.448568 266.72591 94.124349 265.77539 91.181641 265.77539 z M 116.06445 265.77539 C 112.65299 265.77539 109.96419 266.79752 107.99805 268.8418 C 106.04493 270.88607 105.06836 273.69206 105.06836 277.25977 C 105.06836 280.77539 106.03842 283.56837 107.97852 285.63867 C 109.91862 287.70899 112.53581 288.74414 115.83008 288.74414 C 117.04102 288.74414 118.18034 288.62695 119.24805 288.39258 C 120.32878 288.1582 121.37045 287.80664 122.37305 287.33789 L 122.37305 284.01758 C 121.35743 284.57747 120.33529 285.00065 119.30664 285.28711 C 118.29101 285.56055 117.26237 285.69727 116.2207 285.69727 C 113.88998 285.69727 112.08008 284.96159 110.79102 283.49023 C 109.50196 282.00585 108.85742 279.92903 108.85742 277.25977 C 108.85742 274.59049 109.50196 272.52018 110.79102 271.04883 C 112.08008 269.56445 113.88998 268.82227 116.2207 268.82227 C 117.26237 268.82227 118.29101 268.96549 119.30664 269.25195 C 120.33529 269.52539 121.35743 269.94205 122.37305 270.50195 L 122.37305 267.14258 C 121.38347 266.68685 120.36133 266.34831 119.30664 266.12695 C 118.25195 265.89257 117.17123 265.77539 116.06445 265.77539 z M 164.89258 265.77539 C 163.16081 265.77539 161.68946 266.10091 160.47852 266.75195 C 159.26758 267.38997 158.28451 268.37305 157.5293 269.70117 L 157.5293 266.30273 L 153.91602 266.30273 L 153.91602 288.17773 L 157.5293 288.17773 L 157.5293 276.6543 C 157.5293 274.18034 158.06966 272.2858 159.15039 270.9707 C 160.24414 269.64258 161.80664 268.97852 163.83789 268.97852 C 164.4108 268.97852 164.93164 269.03711 165.40039 269.1543 C 165.88216 269.25846 166.32487 269.42774 166.72852 269.66211 L 166.70898 265.9707 C 166.3444 265.90562 166.01237 265.86005 165.71289 265.83398 C 165.41341 265.79492 165.13998 265.77539 164.89258 265.77539 z M 178.83789 265.77539 C 175.55664 265.77539 172.94596 266.83007 171.00586 268.93945 C 169.07877 271.03581 168.11523 273.87435 168.11523 277.45508 C 168.11523 280.91862 169.13086 283.66601 171.16211 285.69727 C 173.20638 287.72851 175.9733 288.74414 179.46289 288.74414 C 180.85612 288.74414 182.22982 288.60091 183.58398 288.31445 C 184.93815 288.02799 186.25977 287.61133 187.54883 287.06445 L 187.54883 283.66602 C 186.27279 284.3431 184.98372 284.85091 183.68164 285.18945 C 182.39257 285.52799 181.05794 285.69727 179.67773 285.69727 C 177.29492 285.69727 175.43294 285.05274 174.0918 283.76367 C 172.76368 282.46159 172.02149 280.57357 171.86523 278.09961 L 188.38867 278.09961 L 188.38867 276.3418 C 188.38867 273.08659 187.5293 270.51497 185.81055 268.62695 C 184.10482 266.72591 181.7806 265.77539 178.83789 265.77539 z M 245.83008 265.77539 C 244.09831 265.77539 242.62696 266.10091 241.41602 266.75195 C 240.20508 267.38997 239.22201 268.37305 238.4668 269.70117 L 238.4668 266.30273 L 234.85352 266.30273 L 234.85352 288.17773 L 238.4668 288.17773 L 238.4668 276.6543 C 238.4668 274.18034 239.00716 272.2858 240.08789 270.9707 C 241.18164 269.64258 242.74414 268.97852 244.77539 268.97852 C 245.3483 268.97852 245.86914 269.03711 246.33789 269.1543 C 246.81966 269.25846 247.26237 269.42774 247.66602 269.66211 L 247.64648 265.9707 C 247.2819 265.90562 246.94987 265.86005 246.65039 265.83398 C 246.35091 265.79492 246.07748 265.77539 245.83008 265.77539 z M 259.77539 265.77539 C 256.49414 265.77539 253.88346 266.83007 251.94336 268.93945 C 250.01627 271.03581 249.05273 273.87435 249.05273 277.45508 C 249.05273 280.91862 250.06836 283.66601 252.09961 285.69727 C 254.14388 287.72851 256.9108 288.74414 260.40039 288.74414 C 261.79362 288.74414 263.16732 288.60091 264.52148 288.31445 C 265.87565 288.02799 267.19727 287.61133 268.48633 287.06445 L 268.48633 283.66602 C 267.21029 284.3431 265.92122 284.85091 264.61914 285.18945 C 263.33007 285.52799 261.99544 285.69727 260.61523 285.69727 C 258.23242 285.69727 256.37044 285.05274 255.0293 283.76367 C 253.70118 282.46159 252.95899 280.57357 252.80273 278.09961 L 269.32617 278.09961 L 269.32617 276.3418 C 269.32617 273.08659 268.4668 270.51497 266.74805 268.62695 C 265.04232 266.72591 262.7181 265.77539 259.77539 265.77539 z M 309.77539 265.77539 C 306.49414 265.77539 303.88346 266.83007 301.94336 268.93945 C 300.01627 271.03581 299.05273 273.87435 299.05273 277.45508 C 299.05273 280.91862 300.06836 283.66601 302.09961 285.69727 C 304.14388 287.72851 306.9108 288.74414 310.40039 288.74414 C 311.79362 288.74414 313.16732 288.60091 314.52148 288.31445 C 315.87565 288.02799 317.19727 287.61133 318.48633 287.06445 L 318.48633 283.66602 C 317.21029 284.3431 315.92122 284.85091 314.61914 285.18945 C 313.33007 285.52799 311.99544 285.69727 310.61523 285.69727 C 308.23242 285.69727 306.37044 285.05274 305.0293 283.76367 C 303.70118 282.46159 302.95899 280.57357 302.80273 278.09961 L 319.32617 278.09961 L 319.32617 276.3418 C 319.32617 273.08659 318.4668 270.51497 316.74805 268.62695 C 315.04232 266.72591 312.7181 265.77539 309.77539 265.77539 z M 335.77148 265.77539 C 334.24804 265.77539 332.90039 266.10091 331.72852 266.75195 C 330.56966 267.40299 329.56055 268.38607 328.70117 269.70117 L 328.70117 266.30273 L 325.08789 266.30273 L 325.08789 288.17773 L 328.70117 288.17773 L 328.70117 275.81445 C 328.70117 273.67903 329.26107 271.99284 330.38086 270.75586 C 331.50065 269.51888 333.0306 268.90039 334.9707 268.90039 C 336.58528 268.90039 337.79622 269.41471 338.60352 270.44336 C 339.41081 271.47201 339.81445 273.02148 339.81445 275.0918 L 339.81445 288.17773 L 343.4082 288.17773 L 343.4082 274.97461 C 343.4082 271.95378 342.76367 269.66862 341.47461 268.11914 C 340.18554 266.55664 338.2845 265.77539 335.77148 265.77539 z M 385.08789 265.77539 C 383.91601 265.77539 382.71158 265.9056 381.47461 266.16602 C 380.23763 266.41341 378.96159 266.79101 377.64648 267.29883 L 377.64648 270.61914 C 378.74024 270.02019 379.87956 269.57096 381.06445 269.27148 C 382.24935 268.972 383.4668 268.82227 384.7168 268.82227 C 386.68294 268.82227 388.20638 269.27799 389.28711 270.18945 C 390.38086 271.08789 390.92773 272.36393 390.92773 274.01758 L 390.92773 274.36914 L 385.88867 274.36914 C 382.62044 274.36914 380.1595 274.99414 378.50586 276.24414 C 376.86523 277.49414 376.04492 279.34961 376.04492 281.81055 C 376.04492 283.91992 376.70248 285.60612 378.01758 286.86914 C 379.3457 288.11914 381.12955 288.74414 383.36914 288.74414 C 385.13997 288.74414 386.63737 288.43164 387.86133 287.80664 C 389.08529 287.16862 390.10742 286.18555 390.92773 284.85742 L 390.92773 288.17773 L 394.52148 288.17773 L 394.52148 275.69727 C 394.52148 272.36393 393.74023 269.87695 392.17773 268.23633 C 390.61523 266.5957 388.25195 265.77539 385.08789 265.77539 z M 475.3418 265.77539 C 472.20378 265.77539 469.74284 266.79101 467.95898 268.82227 C 466.18815 270.85351 465.30273 273.66601 465.30273 277.25977 C 465.30273 280.84049 466.18815 283.65299 467.95898 285.69727 C 469.74284 287.72851 472.20378 288.74414 475.3418 288.74414 C 478.4668 288.74414 480.92122 287.72851 482.70508 285.69727 C 484.48894 283.65299 485.38086 280.84049 485.38086 277.25977 C 485.38086 273.66601 484.48894 270.85351 482.70508 268.82227 C 480.92122 266.79101 478.4668 265.77539 475.3418 265.77539 z M 502.1582 265.77539 C 500.42643 265.77539 498.95507 266.10091 497.74414 266.75195 C 496.5332 267.38997 495.55013 268.37305 494.79492 269.70117 L 494.79492 266.30273 L 491.18164 266.30273 L 491.18164 288.17773 L 494.79492 288.17773 L 494.79492 276.6543 C 494.79492 274.18034 495.33529 272.2858 496.41602 270.9707 C 497.50977 269.64258 499.07227 268.97852 501.10352 268.97852 C 501.67644 268.97852 502.19727 269.03711 502.66602 269.1543 C 503.14779 269.25846 503.59049 269.42774 503.99414 269.66211 L 503.97461 265.9707 C 503.61002 265.90562 503.278 265.86005 502.97852 265.83398 C 502.67904 265.79492 502.4056 265.77539 502.1582 265.77539 z M 516.10352 265.77539 C 512.82227 265.77539 510.21159 266.83007 508.27148 268.93945 C 506.3444 271.03581 505.38086 273.87435 505.38086 277.45508 C 505.38086 280.91862 506.39649 283.66601 508.42773 285.69727 C 510.47201 287.72851 513.23894 288.74414 516.72852 288.74414 C 518.12175 288.74414 519.49544 288.60091 520.84961 288.31445 C 522.20378 288.02799 523.52539 287.61133 524.81445 287.06445 L 524.81445 283.66602 C 523.53841 284.3431 522.24935 284.85091 520.94727 285.18945 C 519.65821 285.52799 518.32357 285.69727 516.94336 285.69727 C 514.56055 285.69727 512.69857 285.05274 511.35742 283.76367 C 510.0293 282.46159 509.28711 280.57357 509.13086 278.09961 L 525.6543 278.09961 L 525.6543 276.3418 C 525.6543 273.08659 524.79492 270.51497 523.07617 268.62695 C 521.37044 266.72591 519.04622 265.77539 516.10352 265.77539 z M 612.29492 265.77539 C 609.61263 265.77539 607.45117 266.79752 605.81055 268.8418 C 604.16993 270.88607 603.34961 273.60091 603.34961 276.98633 C 603.34961 280.35872 604.16993 283.06705 605.81055 285.11133 C 607.45117 287.1556 609.61263 288.17773 612.29492 288.17773 C 613.9095 288.17773 615.29622 287.85872 616.45508 287.2207 C 617.61394 286.58268 618.56445 285.61914 619.30664 284.33008 L 619.30664 286.10742 C 619.30664 288.5944 618.72071 290.44987 617.54883 291.67383 C 616.37695 292.91081 614.61263 293.5293 612.25586 293.5293 C 611.18815 293.5293 610.13997 293.39258 609.11133 293.11914 C 608.08269 292.84571 607.04102 292.42253 605.98633 291.84961 L 605.98633 295.3457 C 607.04102 295.73632 608.12826 296.02278 609.24805 296.20508 C 610.36784 296.40039 611.55925 296.49805 612.82227 296.49805 C 616.23373 296.49805 618.76628 295.58659 620.41992 293.76367 C 622.07357 291.95378 622.90039 289.18685 622.90039 285.46289 L 622.90039 266.30273 L 619.30664 266.30273 L 619.30664 269.62305 C 618.56445 268.33399 617.61394 267.37045 616.45508 266.73242 C 615.29622 266.0944 613.9095 265.77539 612.29492 265.77539 z M 666.39648 265.77539 C 664.87304 265.77539 663.52539 266.10091 662.35352 266.75195 C 661.19466 267.40299 660.18555 268.38607 659.32617 269.70117 L 659.32617 266.30273 L 655.71289 266.30273 L 655.71289 288.17773 L 659.32617 288.17773 L 659.32617 275.81445 C 659.32617 273.67903 659.88607 271.99284 661.00586 270.75586 C 662.12565 269.51888 663.6556 268.90039 665.5957 268.90039 C 667.21028 268.90039 668.42122 269.41471 669.22852 270.44336 C 670.03581 271.47201 670.43945 273.02148 670.43945 275.0918 L 670.43945 288.17773 L 674.0332 288.17773 L 674.0332 274.97461 C 674.0332 271.95378 673.38867 269.66862 672.09961 268.11914 C 670.81054 266.55664 668.9095 265.77539 666.39648 265.77539 z M 128.29102 266.30273 L 128.29102 279.54492 C 128.29102 282.55274 128.94205 284.83789 130.24414 286.40039 C 131.54622 287.96289 133.45378 288.74414 135.9668 288.74414 C 137.49024 288.74414 138.82487 288.42513 139.9707 287.78711 C 141.12956 287.13607 142.14518 286.14649 143.01758 284.81836 L 143.01758 288.17773 L 146.61133 288.17773 L 146.61133 266.30273 L 143.01758 266.30273 L 143.01758 278.70508 C 143.01758 280.8405 142.45117 282.5267 141.31836 283.76367 C 140.19857 285.00065 138.66862 285.61914 136.72852 285.61914 C 135.11394 285.61914 133.903 285.10482 133.0957 284.07617 C 132.28841 283.03451 131.88477 281.47851 131.88477 279.4082 L 131.88477 266.30273 L 128.29102 266.30273 z M 366.31836 266.30273 L 366.31836 288.17773 L 369.91211 288.17773 L 369.91211 266.30273 L 366.31836 266.30273 z M 579.15039 266.30273 L 579.15039 279.54492 C 579.15039 282.55274 579.80144 284.83789 581.10352 286.40039 C 582.4056 287.96289 584.31315 288.74414 586.82617 288.74414 C 588.34961 288.74414 589.68424 288.42513 590.83008 287.78711 C 591.98894 287.13607 593.00456 286.14649 593.87695 284.81836 L 593.87695 288.17773 L 597.4707 288.17773 L 597.4707 266.30273 L 593.87695 266.30273 L 593.87695 278.70508 C 593.87695 280.8405 593.31055 282.5267 592.17773 283.76367 C 591.05794 285.00065 589.52799 285.61914 587.58789 285.61914 C 585.9733 285.61914 584.76237 285.10482 583.95508 284.07617 C 583.14779 283.03451 582.74414 281.47851 582.74414 279.4082 L 582.74414 266.30273 L 579.15039 266.30273 z M 644.75586 266.30273 L 644.75586 288.17773 L 648.34961 288.17773 L 648.34961 266.30273 L 644.75586 266.30273 z M 283.48633 268.7832 C 285.38737 268.7832 286.88477 269.53841 287.97852 271.04883 C 289.07227 272.54622 289.61914 274.61653 289.61914 277.25977 C 289.61914 279.90299 289.07227 281.97981 287.97852 283.49023 C 286.88477 284.98763 285.38737 285.73633 283.48633 285.73633 C 281.58529 285.73633 280.08789 284.98763 278.99414 283.49023 C 277.91341 281.97981 277.37305 279.90299 277.37305 277.25977 C 277.37305 274.61653 277.91341 272.54622 278.99414 271.04883 C 280.08789 269.53841 281.58529 268.7832 283.48633 268.7832 z M 613.17383 268.7832 C 615.11393 268.7832 616.61784 269.49935 617.68555 270.93164 C 618.76628 272.36393 619.30664 274.38216 619.30664 276.98633 C 619.30664 279.57747 618.76628 281.58919 617.68555 283.02148 C 616.61784 284.45377 615.11393 285.16992 613.17383 285.16992 C 611.24675 285.16992 609.74284 284.45377 608.66211 283.02148 C 607.5944 281.58919 607.06055 279.57747 607.06055 276.98633 C 607.06055 274.38216 607.5944 272.36393 608.66211 270.93164 C 609.74284 269.49935 611.24675 268.7832 613.17383 268.7832 z M 91.220703 268.82227 C 92.991536 268.82227 94.410808 269.4082 95.478516 270.58008 C 96.559246 271.75195 97.112632 273.32096 97.138672 275.28711 L 84.326172 275.30664 C 84.508464 273.24935 85.198568 271.6543 86.396484 270.52148 C 87.607422 269.38867 89.215494 268.82227 91.220703 268.82227 z M 178.87695 268.82227 C 180.64779 268.82227 182.06706 269.4082 183.13477 270.58008 C 184.21547 271.75195 184.76886 273.32096 184.79492 275.28711 L 171.98242 275.30664 C 172.16472 273.24935 172.85482 271.6543 174.05273 270.52148 C 175.26367 269.38867 176.87175 268.82227 178.87695 268.82227 z M 259.81445 268.82227 C 261.58529 268.82227 263.00456 269.4082 264.07227 270.58008 C 265.15297 271.75195 265.70636 273.32096 265.73242 275.28711 L 252.91992 275.30664 C 253.10222 273.24935 253.79232 271.6543 254.99023 270.52148 C 256.20117 269.38867 257.80925 268.82227 259.81445 268.82227 z M 309.81445 268.82227 C 311.58529 268.82227 313.00456 269.4082 314.07227 270.58008 C 315.15297 271.75195 315.70636 273.32096 315.73242 275.28711 L 302.91992 275.30664 C 303.10222 273.24935 303.79232 271.6543 304.99023 270.52148 C 306.20117 269.38867 307.80925 268.82227 309.81445 268.82227 z M 475.3418 268.82227 C 477.25586 268.82227 478.77279 269.58399 479.89258 271.10742 C 481.01237 272.61784 481.57227 274.66862 481.57227 277.25977 C 481.57227 279.86393 481.01237 281.92123 479.89258 283.43164 C 478.77279 284.94206 477.25586 285.69727 475.3418 285.69727 C 473.4017 285.69727 471.87175 284.94857 470.75195 283.45117 C 469.64518 281.94076 469.0918 279.87695 469.0918 277.25977 C 469.0918 274.64258 469.65169 272.58529 470.77148 271.08789 C 471.89128 269.57748 473.41472 268.82227 475.3418 268.82227 z M 516.14258 268.82227 C 517.91341 268.82227 519.33268 269.4082 520.40039 270.58008 C 521.48109 271.75195 522.03448 273.32096 522.06055 275.28711 L 509.24805 275.30664 C 509.43034 273.24935 510.12044 271.6543 511.31836 270.52148 C 512.52929 269.38867 514.13737 268.82227 516.14258 268.82227 z M 628.48633 275.61914 L 628.48633 278.82227 L 639.01367 278.82227 L 639.01367 275.61914 L 628.48633 275.61914 z M 387.35352 277.18164 L 390.92773 277.18164 L 390.92773 277.98242 C 390.92773 280.32618 390.32227 282.20768 389.11133 283.62695 C 387.91341 285.0332 386.31836 285.73633 384.32617 285.73633 C 382.88086 285.73633 381.73503 285.36523 380.88867 284.62305 C 380.05534 283.86784 379.63867 282.85222 379.63867 281.57617 C 379.63867 279.97461 380.19857 278.84179 381.31836 278.17773 C 382.43815 277.51367 384.44987 277.18164 387.35352 277.18164 z "
       inkscape:radius="0"
       sodipodi:type="inkscape:offset"
       id="path4425" />
  </g>
</svg>
