<?xml version="1.0" encoding="UTF-8" standalone="no"?>
<!-- Generator: Adobe Illustrator 23.0.1, SVG Export Plug-In . SVG Version: 6.00 Build 0) -->

<svg
   id="Layer_1"
   x="0px"
   y="0px"
   viewBox="0 0 398.30011 201.11874"
   xml:space="preserve"
   version="1.1"
   width="398.30011"
   height="201.11874"
   xmlns="http://www.w3.org/2000/svg"
   xmlns:svg="http://www.w3.org/2000/svg"><defs
   id="defs31" /> <style
   type="text/css"
   id="style1"> .st0{fill:#4C83C3;} </style> <g
   id="g31"
   transform="translate(9.6566519e-5,-42.099998)"> <polygon
   class="st0"
   points="336.1,42.1 398.3,42.1 398.3,53.5 332,53.5 "
   id="polygon1" /> <path
   class="st0"
   d="m 221.5,42.1 h 61.6 l 4,11.5 c 0,0 -65.6,0 -65.6,0 0.1,-0.1 0,-11.5 0,-11.5 z"
   id="path1" /> <path
   class="st0"
   d="m 172.7,42.1 c 10.1,1 19,4.6 26.5,11.5 0,0 -111.6,0 -111.6,0 0,0 0,-11.5 0,-11.5 z"
   id="path2" /> <g
   id="g3"> <rect
   x="0"
   y="42.099998"
   class="st0"
   width="77.5"
   height="11.4"
   id="rect2" /> <path
   class="st0"
   d="M 38.8,47.8"
   id="path3" /> </g> <path
   class="st0"
   d="m 398.3,75 h -73.9 c 0,0 4,-11.4 4,-11.4 h 69.9 z"
   id="path4" /> <polygon
   class="st0"
   points="221.5,63.6 290.7,63.6 294.8,75 221.5,75 "
   id="polygon4" /> <path
   class="st0"
   d="m 207.8,63.6 c 1.5,3.8 3.2,7 3.2,11.4 H 87.6 V 63.6 Z"
   id="path5" /> <g
   id="g6"> <rect
   x="0"
   y="63.599998"
   class="st0"
   width="77.5"
   height="11.4"
   id="rect5" /> <path
   class="st0"
   d="M 38.8,69.3"
   id="path6" /> </g> <polygon
   class="st0"
   points="376.4,85.1 376.4,96.5 316.8,96.5 320.9,85.1 "
   id="polygon6" /> <polygon
   class="st0"
   points="243.4,96.5 243.4,85.1 298.3,85.1 302.4,96.5 "
   id="polygon7" /> <path
   class="st0"
   d="m 212,85 c 0,3.9 -0.5,8 -1.6,11.4 H 176.6 V 85 Z"
   id="path7" /> <g
   id="g8"> <rect
   x="21.6"
   y="85.099998"
   class="st0"
   width="33.299999"
   height="11.4"
   id="rect7" /> <path
   class="st0"
   d="M 38.3,90.8"
   id="path8" /> </g> <g
   id="g9"> <rect
   x="110"
   y="85"
   class="st0"
   width="33.299999"
   height="11.4"
   id="rect8" /> <path
   class="st0"
   d="M 126.6,90.8"
   id="path9" /> </g> <path
   class="st0"
   d="m 276.1,108.8 c 0,0 0,8.7 0,8.7 h -32.8 v -11.4 h 62.4 l 3.9,10.6 c 0,0 3.7,-10.6 3.7,-10.6 h 62.9 v 11.4 h -32.6 c 0,0 0,-8.7 0,-8.7 l -3,8.7 H 279 Z"
   id="path10" /> <path
   class="st0"
   d="m 110,106.1 h 95.5 v 0 c -2.1,3.8 -5.9,8.4 -9.5,11.4 0,0 -86,0 -86,0 z"
   id="path11" /> <g
   id="g12"> <rect
   x="21.6"
   y="106.1"
   class="st0"
   width="33.299999"
   height="11.4"
   id="rect11" /> <path
   class="st0"
   d="M 38.3,111.8"
   id="path12" /> </g> <g
   id="g13"> <rect
   x="343.79999"
   y="127.6"
   class="st0"
   width="32.599998"
   height="11.4"
   id="rect12" /> <path
   class="st0"
   d="M 360.1,133.3"
   id="path13" /> </g> <path
   class="st0"
   d="M 276.1,127.6 H 243.3 V 139 c 0,0 32.8,0 32.8,0 0,-0.1 0.1,-11.4 0,-11.4 z"
   id="path14" /> <path
   class="st0"
   d="m 337.2,127.6 c -0.1,0 -3.8,11.4 -4,11.4 h -46.4 c 0,0 -4.1,-11.4 -4.1,-11.4 z"
   id="path15" /> <path
   class="st0"
   d="m 110,127.6 h 85.8 c 3.9,3.3 7.5,7.3 10.2,11.4 0.2,0 -96.1,0 -96.1,0 0.1,-0.1 0.1,-11.4 0.1,-11.4 z"
   id="path16" /> <path
   class="st0"
   d="M 54.9,138.9 V 127.5 H 21.7 c 0,0 0,11.4 0,11.4 z"
   id="path17" /> <g
   id="g18"> <rect
   x="343.79999"
   y="149"
   class="st0"
   width="32.599998"
   height="11.4"
   id="rect17" /> <path
   class="st0"
   d="M 360.1,154.7"
   id="path18" /> </g> <g
   id="g19"> <rect
   x="243.39999"
   y="149"
   class="st0"
   width="32.799999"
   height="11.4"
   id="rect18" /> <path
   class="st0"
   d="M 259.8,154.7"
   id="path19" /> </g> <path
   class="st0"
   d="m 325.6,160.4 c 0,-0.1 4,-11.4 4.1,-11.4 h -39.5 c -0.1,0 4,11.4 4,11.4 0,0 31.4,0.1 31.4,0 z"
   id="path20" /> <path
   class="st0"
   d="m 110,160.4 c 0,0 0,-11.4 0,-11.4 h 33.8 c 0,0 0,11.4 0,11.4 -0.1,0 -33.8,0 -33.8,0 z"
   id="path21" /> <path
   class="st0"
   d="m 210.8,149 c 1.6,3.4 1.8,7.5 2.1,11.4 H 177.1 V 149 Z"
   id="path22" /> <g
   id="g23"> <rect
   x="21.700001"
   y="149"
   class="st0"
   width="33.299999"
   height="11.4"
   id="rect22" /> <path
   class="st0"
   d="M 38.3,154.7"
   id="path23" /> </g> <g
   id="g24"> <rect
   x="343.79999"
   y="170"
   class="st0"
   width="54.5"
   height="11.4"
   id="rect23" /> <path
   class="st0"
   d="M 371,175.7"
   id="path24" /> </g> <g
   id="g25"> <rect
   x="221.5"
   y="170"
   class="st0"
   width="54.599998"
   height="11.4"
   id="rect24" /> <path
   class="st0"
   d="M 248.8,175.7"
   id="path25" /> </g> <polygon
   class="st0"
   points="297.6,170 322.1,170 318.2,181.4 301.6,181.4 "
   id="polygon25" /> <path
   class="st0"
   d="m 0,170 v 11.4 h 77.5 c 0,0 0,-11.4 0,-11.4 0,0 -77.6,0 -77.5,0 z"
   id="path26" /> <path
   class="st0"
   d="m 211.5,170 c -0.8,3.8 -1.6,8.3 -4.3,11.4 h -1 H 87.6 V 170 Z"
   id="path27" /> <polygon
   class="st0"
   points="305.3,191.5 314.7,191.5 310.7,202.9 309.2,202.9 "
   id="polygon27" /> <g
   id="g28"> <rect
   x="343.79999"
   y="191.5"
   class="st0"
   width="54.5"
   height="11.4"
   id="rect27" /> <path
   class="st0"
   d="M 371,197.2"
   id="path28" /> </g> <path
   class="st0"
   d="m 87.6,202.9 v -11.4 c 0,0 111.9,0 112.2,0 -7.5,7.2 -17.8,11.2 -28.9,11.4 H 87.6"
   id="path29" /> <g
   id="g30"> <rect
   x="221.5"
   y="191.5"
   class="st0"
   width="54.599998"
   height="11.4"
   id="rect29" /> <path
   class="st0"
   d="M 248.8,197.2"
   id="path30" /> </g> <path
   class="st0"
   d="m 77.5,191.5 c 0,0 0,11.4 0,11.4 0,0 -77.4,0 -77.5,0 0,0 0,-11.4 0,-11.4 0,0 77.4,0.1 77.5,0 z"
   id="path31" /> </g> <path
   d="m 119.15634,197.89999 h -9.07812 v -1.4375 l 7.13281,-8.82031 h -6.86719 v -1.375 h 8.64063 v 1.39844 l -7.20313,8.85937 h 7.375 z m 9.3125,-4.35937 q 0,2.13281 -1.09375,3.36719 -1.09375,1.23437 -2.92969,1.23437 -1.85156,0 -2.94531,-1.23437 -1.08594,-1.23438 -1.08594,-3.36719 0,-2.13281 1.08594,-3.36719 1.09375,-1.24219 2.94531,-1.24219 1.83594,0 2.92969,1.24219 1.09375,1.23438 1.09375,3.36719 z m -1.51562,0 q 0,-1.69531 -0.66407,-2.51563 -0.66406,-0.82812 -1.84375,-0.82812 -1.19531,0 -1.85937,0.82812 -0.65625,0.82032 -0.65625,2.51563 0,1.64062 0.66406,2.49219 0.66406,0.84375 1.85156,0.84375 1.17188,0 1.83594,-0.83594 0.67188,-0.84375 0.67188,-2.5 z m 14.76562,-4.36719 -2.27344,8.72656 h -1.35937 l -2.24219,-6.72656 -2.22656,6.72656 h -1.35156 l -2.29688,-8.72656 h 1.53125 l 1.60156,6.75781 2.17969,-6.75781 h 1.21094 l 2.23437,6.75781 1.51563,-6.75781 z m 9.42188,4.51563 h -6.42969 q 0,0.80468 0.24219,1.40625 0.24218,0.59375 0.66406,0.97656 0.40625,0.375 0.96094,0.5625 0.5625,0.1875 1.23437,0.1875 0.89063,0 1.78906,-0.35156 0.90625,-0.35938 1.28907,-0.70313 h 0.0781 v 1.60156 q -0.74219,0.3125 -1.51562,0.52344 -0.77344,0.21094 -1.625,0.21094 -2.17188,0 -3.39063,-1.17188 -1.21875,-1.17968 -1.21875,-3.34375 0,-2.14062 1.16406,-3.39843 1.17188,-1.25782 3.07813,-1.25782 1.76562,0 2.71875,1.03125 0.96094,1.03125 0.96094,2.92969 z m -1.42969,-1.125 q -0.008,-1.15625 -0.58594,-1.78907 -0.57031,-0.63281 -1.74219,-0.63281 -1.17968,0 -1.88281,0.69531 -0.69531,0.69532 -0.78906,1.72657 z m 18.38281,4.49218 q -0.42969,0.1875 -0.78125,0.35157 -0.34375,0.16406 -0.90625,0.34375 -0.47656,0.14843 -1.03906,0.25 -0.55469,0.10937 -1.22656,0.10937 -1.26563,0 -2.30469,-0.35156 -1.03125,-0.35938 -1.79688,-1.11719 -0.75,-0.74219 -1.17187,-1.88281 -0.42188,-1.14844 -0.42188,-2.66406 0,-1.4375 0.40625,-2.57032 0.40625,-1.13281 1.17188,-1.91406 0.74219,-0.75781 1.78906,-1.15625 1.05469,-0.39844 2.33594,-0.39844 0.9375,0 1.86719,0.22657 0.9375,0.22656 2.07812,0.79687 v 1.83594 h -0.11719 q -0.96093,-0.80469 -1.90625,-1.17188 -0.94531,-0.36718 -2.02343,-0.36718 -0.88282,0 -1.59375,0.28906 -0.70313,0.28125 -1.25782,0.88281 -0.53906,0.58594 -0.84375,1.48438 -0.29687,0.89062 -0.29687,2.0625 0,1.22656 0.32812,2.10937 0.33594,0.88281 0.85938,1.4375 0.54687,0.57813 1.27344,0.85938 0.73437,0.27343 1.54687,0.27343 1.11719,0 2.09375,-0.38281 0.97656,-0.38281 1.82813,-1.14844 h 0.10937 z m 9.54688,0.84375 h -7.35938 v -11.63281 h 1.54688 v 10.25781 h 5.8125 z m 5.64843,0 h -4.59375 v -1.1875 h 1.52344 v -9.25781 h -1.52344 v -1.1875 h 4.59375 v 1.1875 h -1.52343 v 9.25781 h 1.52343 z m 17.24219,-0.84375 q -0.42969,0.1875 -0.78125,0.35157 -0.34375,0.16406 -0.90625,0.34375 -0.47656,0.14843 -1.03906,0.25 -0.55469,0.10937 -1.22656,0.10937 -1.26563,0 -2.30469,-0.35156 -1.03125,-0.35938 -1.79688,-1.11719 -0.75,-0.74219 -1.17187,-1.88281 -0.42188,-1.14844 -0.42188,-2.66406 0,-1.4375 0.40625,-2.57032 0.40625,-1.13281 1.17188,-1.91406 0.74219,-0.75781 1.78906,-1.15625 1.05469,-0.39844 2.33594,-0.39844 0.9375,0 1.86719,0.22657 0.9375,0.22656 2.07812,0.79687 v 1.83594 h -0.11719 q -0.96093,-0.80469 -1.90625,-1.17188 -0.94531,-0.36718 -2.02343,-0.36718 -0.88282,0 -1.59375,0.28906 -0.70313,0.28125 -1.25782,0.88281 -0.53906,0.58594 -0.84375,1.48438 -0.29687,0.89062 -0.29687,2.0625 0,1.22656 0.32812,2.10937 0.33594,0.88281 0.85938,1.4375 0.54687,0.57813 1.27344,0.85938 0.73437,0.27343 1.54687,0.27343 1.11719,0 2.09375,-0.38281 0.97656,-0.38281 1.82813,-1.14844 h 0.10937 z m 6.28906,0.84375 h -4.59375 v -1.1875 h 1.52344 v -9.25781 h -1.52344 v -1.1875 h 4.59375 v 1.1875 h -1.52343 v 9.25781 h 1.52343 z m 11.61719,-0.84375 q -0.42969,0.1875 -0.78125,0.35157 -0.34375,0.16406 -0.90625,0.34375 -0.47656,0.14843 -1.03906,0.25 -0.55469,0.10937 -1.22656,0.10937 -1.26563,0 -2.30469,-0.35156 -1.03125,-0.35938 -1.79688,-1.11719 -0.75,-0.74219 -1.17187,-1.88281 -0.42188,-1.14844 -0.42188,-2.66406 0,-1.4375 0.40625,-2.57032 0.40625,-1.13281 1.17188,-1.91406 0.74219,-0.75781 1.78906,-1.15625 1.05469,-0.39844 2.33594,-0.39844 0.9375,0 1.86719,0.22657 0.9375,0.22656 2.07812,0.79687 v 1.83594 h -0.11719 q -0.96093,-0.80469 -1.90625,-1.17188 -0.94531,-0.36718 -2.02343,-0.36718 -0.88282,0 -1.59375,0.28906 -0.70313,0.28125 -1.25782,0.88281 -0.53906,0.58594 -0.84375,1.48438 -0.29687,0.89062 -0.29687,2.0625 0,1.22656 0.32812,2.10937 0.33594,0.88281 0.85938,1.4375 0.54687,0.57813 1.27344,0.85938 0.73437,0.27343 1.54687,0.27343 1.11719,0 2.09375,-0.38281 0.97656,-0.38281 1.82813,-1.14844 h 0.10937 z m 10.64063,-2.47656 q 0,0.67969 -0.32032,1.34375 -0.3125,0.66406 -0.88281,1.125 -0.625,0.5 -1.46094,0.78125 -0.82812,0.28125 -2,0.28125 -1.25781,0 -2.26562,-0.23437 -1,-0.23438 -2.03906,-0.69532 v -1.9375 h 0.10937 q 0.88281,0.73438 2.03906,1.13282 1.15625,0.39843 2.17188,0.39843 1.4375,0 2.23437,-0.53906 0.80469,-0.53906 0.80469,-1.4375 0,-0.77344 -0.38281,-1.14062 -0.375,-0.36719 -1.14844,-0.57032 -0.58594,-0.15625 -1.27344,-0.25781 -0.67968,-0.10156 -1.44531,-0.25781 -1.54687,-0.32813 -2.29687,-1.11719 -0.74219,-0.79687 -0.74219,-2.07031 0,-1.46094 1.23437,-2.39063 1.23438,-0.9375 3.13282,-0.9375 1.22656,0 2.25,0.23438 1.02343,0.23437 1.8125,0.57812 v 1.82813 h -0.10938 q -0.66406,-0.5625 -1.75,-0.92969 -1.07812,-0.375 -2.21094,-0.375 -1.24218,0 -2,0.51563 -0.75,0.51562 -0.75,1.32812 0,0.72656 0.375,1.14063 0.375,0.41406 1.32032,0.63281 0.5,0.10937 1.42187,0.26562 0.92188,0.15625 1.5625,0.32032 1.29688,0.34375 1.95313,1.03906 0.65625,0.69531 0.65625,1.94531 z m 17.9375,-2.48437 q 0,1.58593 -0.69532,2.875 -0.6875,1.28906 -1.83593,2 -0.79688,0.49218 -1.78125,0.71093 -0.97657,0.21875 -2.57813,0.21875 h -2.9375 v -11.63281 h 2.90625 q 1.70313,0 2.70313,0.25 1.00781,0.24219 1.70312,0.67188 1.1875,0.74218 1.85156,1.97656 0.66407,1.23437 0.66407,2.92969 z m -1.61719,-0.0234 q 0,-1.36719 -0.47656,-2.30469 -0.47657,-0.9375 -1.42188,-1.47656 -0.6875,-0.39063 -1.46094,-0.53906 -0.77343,-0.15625 -1.85156,-0.15625 h -1.45312 v 8.97656 h 1.45312 q 1.11719,0 1.94531,-0.16406 0.83594,-0.16407 1.53125,-0.60938 0.86719,-0.55469 1.29688,-1.46094 0.4375,-0.90625 0.4375,-2.26562 z m 11.30469,1.61719 h -6.42969 q 0,0.80468 0.24219,1.40625 0.24218,0.59375 0.66406,0.97656 0.40625,0.375 0.96094,0.5625 0.5625,0.1875 1.23437,0.1875 0.89063,0 1.78906,-0.35156 0.90625,-0.35938 1.28907,-0.70313 h 0.0781 v 1.60156 q -0.74219,0.3125 -1.51562,0.52344 -0.77344,0.21094 -1.625,0.21094 -2.17188,0 -3.39063,-1.17188 -1.21875,-1.17968 -1.21875,-3.34375 0,-2.14062 1.16406,-3.39843 1.17188,-1.25782 3.07813,-1.25782 1.76562,0 2.71875,1.03125 0.96094,1.03125 0.96094,2.92969 z m -1.42969,-1.125 q -0.008,-1.15625 -0.58594,-1.78907 -0.57031,-0.63281 -1.74219,-0.63281 -1.17968,0 -1.88281,0.69531 -0.69531,0.69532 -0.78906,1.72657 z m 11.33594,0.86718 q 0,1.0625 -0.30469,1.94532 -0.30469,0.875 -0.85938,1.48437 -0.51562,0.57813 -1.21875,0.89844 -0.69531,0.3125 -1.47656,0.3125 -0.67969,0 -1.23437,-0.14844 -0.54688,-0.14844 -1.11719,-0.46094 v 3.65625 h -1.46875 v -11.94531 h 1.46875 v 0.91406 q 0.58594,-0.49218 1.3125,-0.82031 0.73437,-0.33594 1.5625,-0.33594 1.57812,0 2.45312,1.19532 0.88282,1.1875 0.88282,3.30468 z m -1.51563,0.0391 q 0,-1.57813 -0.53906,-2.35938 -0.53906,-0.78125 -1.65625,-0.78125 -0.63281,0 -1.27344,0.27344 -0.64062,0.27344 -1.22656,0.71875 v 4.94531 q 0.625,0.28125 1.07031,0.38281 0.45313,0.10157 1.02344,0.10157 1.22656,0 1.91406,-0.82813 0.6875,-0.82812 0.6875,-2.45312 z m 5.28906,4.42968 h -1.46875 v -12.15625 h 1.46875 z m 10.34375,-4.35937 q 0,2.13281 -1.09375,3.36719 -1.09375,1.23437 -2.92968,1.23437 -1.85157,0 -2.94532,-1.23437 -1.08593,-1.23438 -1.08593,-3.36719 0,-2.13281 1.08593,-3.36719 1.09375,-1.24219 2.94532,-1.24219 1.83593,0 2.92968,1.24219 1.09375,1.23438 1.09375,3.36719 z m -1.51562,0 q 0,-1.69531 -0.66406,-2.51563 -0.66407,-0.82812 -1.84375,-0.82812 -1.19532,0 -1.85938,0.82812 -0.65625,0.82032 -0.65625,2.51563 0,1.64062 0.66406,2.49219 0.66407,0.84375 1.85157,0.84375 1.17187,0 1.83593,-0.83594 0.67188,-0.84375 0.67188,-2.5 z m 11.21875,-4.36719 -5.09375,11.94531 h -1.57031 l 1.625,-3.64062 -3.47657,-8.30469 h 1.59375 l 2.67969,6.46875 2.70313,-6.46875 z"
   id="text31"
   style="font-size:16px;text-anchor:middle"
   aria-label="Zowe CLI CICS Deploy" /></svg>
