<?xml version="1.0" encoding="UTF-8" standalone="no"?>
<svg
   xmlns:dc="http://purl.org/dc/elements/1.1/"
   xmlns:cc="http://creativecommons.org/ns#"
   xmlns:rdf="http://www.w3.org/1999/02/22-rdf-syntax-ns#"
   xmlns:svg="http://www.w3.org/2000/svg"
   xmlns="http://www.w3.org/2000/svg"
   viewBox="150 150 170 170"
   height="446.66666"
   width="1128"
   xml:space="preserve"
   id="svg2"
   version="1.1"><metadata
     id="metadata8"><rdf:RDF><cc:Work
         rdf:about=""><dc:format>image/svg+xml</dc:format><dc:type
           rdf:resource="http://purl.org/dc/dcmitype/StillImage" /></cc:Work></rdf:RDF></metadata><defs
     id="defs6"><clipPath
       id="clipPath22"
       clipPathUnits="userSpaceOnUse"><path
         id="path20"
         d="M 0,335 H 846 V 0 H 0 Z" /></clipPath></defs><g
     transform="matrix(1.3333333,0,0,-1.3333333,0,446.66667)"
     id="g10"><path
       id="path12"
       style="fill:#488eff;fill-opacity:1;fill-rule:nonzero;stroke:none"
       d="M 410,0 H 628 V 335 H 410 Z" /><path
       id="path14"
       style="fill:#000000;fill-opacity:1;fill-rule:nonzero;stroke:none"
       d="M 628,0 H 846 V 335 H 628 Z" /><g
       id="g16"><g
         clip-path="url(#clipPath22)"
         id="g18"><g
           transform="translate(551.249,161.4844)"
           id="g24"><path
             id="path26"
             style="fill:#ffffff;fill-opacity:1;fill-rule:nonzero;stroke:none"
             d="m 0,0 -30.576,-21.409 c -0.713,-0.499 -1.65,-0.543 -2.406,-0.112 -0.756,0.432 -1.196,1.26 -1.129,2.128 l 3.407,44.148 -24.984,-17.494 20.441,-29.194 c 0.713,-1.017 0.466,-2.421 -0.553,-3.134 -1.018,-0.713 -2.422,-0.465 -3.135,0.552 L -60.666,6.522 c -0.714,1.018 -0.466,2.422 0.553,3.135 l 30.728,21.517 c 0.713,0.499 1.651,0.543 2.406,0.111 0.757,-0.431 1.197,-1.261 1.129,-2.128 L -29.256,-14.99 -4.272,2.504 -24.605,31.543 c -0.713,1.019 -0.466,2.422 0.552,3.135 1.018,0.713 2.422,0.466 3.135,-0.553 L 0.599,3.396 C 0.982,2.848 1.088,2.188 0.944,1.584 0.873,0.968 0.548,0.384 0,0" /></g><g
           transform="translate(102.249,59.4844)"
           id="g28"><path
             id="path30"
             style="fill:#ffffff;fill-opacity:1;fill-rule:nonzero;stroke:none"
             d="m 0,0 -30.576,-21.409 c -0.713,-0.499 -1.65,-0.543 -2.406,-0.112 -0.756,0.432 -1.196,1.26 -1.129,2.128 l 3.407,44.148 -24.984,-17.494 20.441,-29.194 c 0.713,-1.017 0.466,-2.421 -0.553,-3.134 -1.018,-0.713 -2.422,-0.465 -3.135,0.552 L -60.666,6.522 c -0.714,1.018 -0.466,2.422 0.553,3.135 l 30.728,21.517 c 0.713,0.499 1.651,0.543 2.406,0.111 0.757,-0.431 1.197,-1.261 1.129,-2.128 L -29.256,-14.99 -4.272,2.504 -24.605,31.543 c -0.713,1.019 -0.466,2.422 0.552,3.135 1.018,0.713 2.422,0.466 3.135,-0.553 L 0.599,3.396 C 0.982,2.848 1.088,2.188 0.944,1.584 0.873,0.968 0.548,0.384 0,0" /></g><g
           transform="translate(769.249,160.4844)"
           id="g32"><path
             id="path34"
             style="fill:#488eff;fill-opacity:1;fill-rule:nonzero;stroke:none"
             d="m 0,0 -30.576,-21.409 c -0.713,-0.499 -1.65,-0.543 -2.406,-0.112 -0.756,0.432 -1.196,1.26 -1.129,2.128 l 3.407,44.148 -24.984,-17.494 20.441,-29.194 c 0.713,-1.017 0.466,-2.421 -0.553,-3.134 -1.018,-0.713 -2.422,-0.465 -3.135,0.552 L -60.666,6.522 c -0.714,1.018 -0.466,2.422 0.553,3.135 l 30.728,21.517 c 0.713,0.499 1.651,0.543 2.406,0.111 0.757,-0.431 1.197,-1.261 1.129,-2.128 L -29.256,-14.99 -4.272,2.504 -24.605,31.543 c -0.713,1.019 -0.466,2.422 0.552,3.135 1.018,0.713 2.422,0.466 3.135,-0.553 L 0.599,3.396 C 0.982,2.848 1.088,2.188 0.944,1.584 0.873,0.968 0.548,0.384 0,0" /></g><g
           transform="translate(374.249,59.4844)"
           id="g36"><path
             id="path38"
             style="fill:#488eff;fill-opacity:1;fill-rule:nonzero;stroke:none"
             d="m 0,0 -30.576,-21.409 c -0.713,-0.499 -1.65,-0.543 -2.406,-0.112 -0.756,0.432 -1.196,1.26 -1.129,2.128 l 3.407,44.148 -24.984,-17.494 20.441,-29.194 c 0.713,-1.017 0.466,-2.421 -0.553,-3.134 -1.018,-0.713 -2.422,-0.465 -3.135,0.552 L -60.666,6.522 c -0.714,1.018 -0.466,2.422 0.553,3.135 l 30.728,21.517 c 0.713,0.499 1.651,0.543 2.406,0.111 0.757,-0.431 1.197,-1.261 1.129,-2.128 L -29.256,-14.99 -4.272,2.504 -24.605,31.543 c -0.713,1.019 -0.466,2.422 0.552,3.135 1.018,0.713 2.422,0.466 3.135,-0.553 L 0.599,3.396 C 0.982,2.848 1.088,2.188 0.944,1.584 0.873,0.968 0.548,0.384 0,0" /></g><g
           transform="translate(186.0088,257.5098)"
           id="g40"><path
             id="path42"
             style="fill:#000000;fill-opacity:1;fill-rule:nonzero;stroke:none"
             d="M 0,0 H 22.321 V -6.102 H -8.603 v 4.791 L 12.168,27.341 H -7.509 v 6.101 h 28.674 v -4.534 z" /></g><g
           transform="translate(220.751,266.209)"
           id="g44"><path
             id="path46"
             style="fill:#000000;fill-opacity:1;fill-rule:nonzero;stroke:none"
             d="m 0,0 c 0,-6.143 3.053,-9.644 8.016,-9.644 4.993,0 8.016,3.562 8.016,9.644 0,6.082 -3.023,9.645 -8.016,9.645 C 3.053,9.645 0,6.143 0,0 m 22.95,0 c 0,-10.899 -7.305,-15.637 -14.934,-15.637 -7.63,0 -14.936,4.738 -14.936,15.637 0,10.899 7.306,15.637 14.936,15.637 7.629,0 14.934,-4.738 14.934,-15.637" /></g><g
           transform="translate(278.3516,251.4082)"
           id="g48"><path
             id="path50"
             style="fill:#000000;fill-opacity:1;fill-rule:nonzero;stroke:none"
             d="M 0,0 H -4.475 L -11.253,19.721 -18.415,0 h -4.474 l -9.602,29.602 h 6.716 l 5.737,-20.601 6.855,20.601 h 4.436 L -2.095,8.758 4.036,29.602 h 6.561 z" /></g><g
           transform="translate(312.4473,268.4248)"
           id="g52"><path
             id="path54"
             style="fill:#000000;fill-opacity:1;fill-rule:nonzero;stroke:none"
             d="m 0,0 c -0.203,4.922 -2.845,8.059 -7.059,8.059 -4.159,0 -6.986,-2.549 -7.485,-8.059 z m 6.234,-0.583 c 0,-1.306 -0.108,-2.744 -0.353,-3.985 h -20.312 c 0.808,-5.645 4.066,-7.739 8.441,-7.739 3.516,0 6.364,1.3 8.427,3.002 l 2.819,-4.409 c -3.061,-2.59 -6.962,-4.139 -12.259,-4.139 -7.745,0 -14.272,4.99 -14.272,15.494 0,9.638 5.691,15.78 14.05,15.78 9.091,0 13.459,-6.873 13.459,-14.003 z" /></g><g
           transform="translate(154.249,263.4844)"
           id="g56"><path
             id="path58"
             style="fill:#000000;fill-opacity:1;fill-rule:nonzero;stroke:none"
             d="m 0,0 -30.576,-21.409 c -0.713,-0.499 -1.65,-0.543 -2.406,-0.112 -0.756,0.432 -1.196,1.26 -1.129,2.128 l 3.407,44.148 -24.984,-17.494 20.441,-29.194 c 0.713,-1.017 0.466,-2.421 -0.553,-3.134 -1.018,-0.713 -2.422,-0.465 -3.135,0.552 L -60.666,6.522 c -0.714,1.018 -0.466,2.422 0.553,3.135 l 30.728,21.517 c 0.713,0.499 1.651,0.543 2.406,0.111 0.757,-0.431 1.197,-1.261 1.129,-2.128 L -29.256,-14.99 -4.272,2.504 -24.605,31.543 c -0.713,1.019 -0.466,2.422 0.552,3.135 1.018,0.713 2.422,0.466 3.135,-0.553 L 0.599,3.396 C 0.982,2.848 1.088,2.188 0.944,1.584 0.873,0.968 0.548,0.384 0,0" /></g><g
           transform="translate(238.249,59.4844)"
           id="g60"><path
             id="path62"
             style="fill:#000000;fill-opacity:1;fill-rule:nonzero;stroke:none"
             d="m 0,0 -30.576,-21.409 c -0.713,-0.499 -1.65,-0.543 -2.406,-0.112 -0.756,0.432 -1.196,1.26 -1.129,2.128 l 3.407,44.148 -24.984,-17.494 20.441,-29.194 c 0.713,-1.017 0.466,-2.421 -0.553,-3.134 -1.018,-0.713 -2.422,-0.465 -3.135,0.552 L -60.666,6.522 c -0.714,1.018 -0.466,2.422 0.553,3.135 l 30.728,21.517 c 0.713,0.499 1.651,0.543 2.406,0.111 0.757,-0.431 1.197,-1.261 1.129,-2.128 L -29.256,-14.99 -4.272,2.504 -24.605,31.543 c -0.713,1.019 -0.466,2.422 0.552,3.135 1.018,0.713 2.422,0.466 3.135,-0.553 L 0.599,3.396 C 0.982,2.848 1.088,2.188 0.944,1.584 0.873,0.968 0.548,0.384 0,0" /></g><g
           transform="translate(188.0088,159.5098)"
           id="g64"><path
             id="path66"
             style="fill:#000000;fill-opacity:1;fill-rule:nonzero;stroke:none"
             d="M 0,0 H 22.321 V -6.102 H -8.603 v 4.791 L 12.168,27.341 H -7.509 v 6.101 h 28.674 v -4.534 z" /></g><g
           transform="translate(222.751,168.209)"
           id="g68"><path
             id="path70"
             style="fill:#000000;fill-opacity:1;fill-rule:nonzero;stroke:none"
             d="m 0,0 c 0,-6.143 3.053,-9.644 8.016,-9.644 4.993,0 8.016,3.562 8.016,9.644 0,6.082 -3.023,9.645 -8.016,9.645 C 3.053,9.645 0,6.143 0,0 m 22.95,0 c 0,-10.899 -7.305,-15.637 -14.934,-15.637 -7.63,0 -14.936,4.738 -14.936,15.637 0,10.899 7.306,15.637 14.936,15.637 7.629,0 14.934,-4.738 14.934,-15.637" /></g><g
           transform="translate(280.3516,153.4082)"
           id="g72"><path
             id="path74"
             style="fill:#000000;fill-opacity:1;fill-rule:nonzero;stroke:none"
             d="M 0,0 H -4.475 L -11.253,19.721 -18.415,0 h -4.474 l -9.602,29.602 h 6.716 l 5.737,-20.601 6.855,20.601 h 4.436 L -2.095,8.758 4.036,29.602 h 6.561 z" /></g><g
           transform="translate(314.4473,170.4248)"
           id="g76"><path
             id="path78"
             style="fill:#000000;fill-opacity:1;fill-rule:nonzero;stroke:none"
             d="m 0,0 c -0.203,4.922 -2.845,8.059 -7.059,8.059 -4.159,0 -6.986,-2.549 -7.485,-8.059 z m 6.234,-0.583 c 0,-1.306 -0.108,-2.744 -0.353,-3.985 h -20.312 c 0.808,-5.645 4.066,-7.739 8.441,-7.739 3.516,0 6.364,1.3 8.427,3.002 l 2.819,-4.409 c -3.061,-2.59 -6.962,-4.139 -12.259,-4.139 -7.745,0 -14.272,4.99 -14.272,15.494 0,9.638 5.691,15.78 14.05,15.78 9.091,0 13.459,-6.873 13.459,-14.003 z" /></g><g
           transform="translate(156.249,165.4844)"
           id="g80"><path
             id="path82"
             style="fill:#488eff;fill-opacity:1;fill-rule:nonzero;stroke:none"
             d="m 0,0 -30.576,-21.409 c -0.713,-0.499 -1.65,-0.543 -2.406,-0.112 -0.756,0.432 -1.196,1.26 -1.129,2.128 l 3.407,44.148 -24.984,-17.494 20.441,-29.194 c 0.713,-1.017 0.466,-2.421 -0.553,-3.134 -1.018,-0.713 -2.422,-0.465 -3.135,0.552 L -60.666,6.522 c -0.714,1.018 -0.466,2.422 0.553,3.135 l 30.728,21.517 c 0.713,0.499 1.651,0.543 2.406,0.111 0.757,-0.431 1.197,-1.261 1.129,-2.128 L -29.256,-14.99 -4.272,2.504 -24.605,31.543 c -0.713,1.019 -0.466,2.422 0.552,3.135 1.018,0.713 2.422,0.466 3.135,-0.553 L 0.599,3.396 C 0.982,2.848 1.088,2.188 0.944,1.584 0.873,0.968 0.548,0.384 0,0" /></g></g></g></g></svg>
