<?xml version="1.0" encoding="UTF-8" standalone="no"?>
<!-- Generator: Adobe Illustrator 23.0.1, SVG Export Plug-In . SVG Version: 6.00 Build 0) -->

<svg
   id="Layer_1"
   x="0px"
   y="0px"
   viewBox="0 0 438.05939 181.96457"
   xml:space="preserve"
   version="1.1"
   sodipodi:docname="zowe-explorer-for-ibm-cics.svg"
   width="438.05939"
   height="181.96457"
   inkscape:version="1.1.1 (c3084ef, 2021-09-22)"
   xmlns:inkscape="http://www.inkscape.org/namespaces/inkscape"
   xmlns:sodipodi="http://sodipodi.sourceforge.net/DTD/sodipodi-0.dtd"
   xmlns="http://www.w3.org/2000/svg"
   xmlns:svg="http://www.w3.org/2000/svg"><sodipodi:namedview
   id="namedview92"
   pagecolor="#ffffff"
   bordercolor="#666666"
   borderopacity="1.0"
   inkscape:pageshadow="2"
   inkscape:pageopacity="0.0"
   inkscape:pagecheckerboard="0"
   showgrid="false"
   inkscape:zoom="1.4835225"
   inkscape:cx="299.28768"
   inkscape:cy="74.484885"
   inkscape:window-width="1379"
   inkscape:window-height="773"
   inkscape:window-x="58"
   inkscape:window-y="25"
   inkscape:window-maximized="0"
   inkscape:current-layer="Layer_1" /><defs
   id="defs137" /> <style
   type="text/css"
   id="style2"> .st0{fill:#4C83C3;} </style>  <g
   aria-label="Zowe Explorer for IBM CICS"
   id="text132"
   style="font-size:22px;text-anchor:middle"
   transform="translate(19.7009,-62.461207)"><path
     d="M 58.332031,240 H 45.849609 v -1.97656 l 9.807618,-12.12793 h -9.442383 v -1.89063 h 11.880859 v 1.92285 l -9.904297,12.18164 h 10.140625 z"
     style="font-size:22px;text-anchor:middle"
     id="path158" /><path
     d="m 71.791992,234.00586 q 0,2.93262 -1.503906,4.62988 -1.503906,1.69727 -4.02832,1.69727 -2.545899,0 -4.049805,-1.69727 -1.493164,-1.69726 -1.493164,-4.62988 0,-2.93262 1.493164,-4.62988 1.503906,-1.70801 4.049805,-1.70801 2.524414,0 4.02832,1.70801 1.503906,1.69726 1.503906,4.62988 z m -2.083984,0 q 0,-2.33106 -0.913086,-3.45899 -0.913086,-1.13867 -2.535156,-1.13867 -1.643555,0 -2.556641,1.13867 -0.902344,1.12793 -0.902344,3.45899 0,2.25586 0.913086,3.42676 0.913086,1.16015 2.545899,1.16015 1.611328,0 2.524414,-1.14941 0.923828,-1.16016 0.923828,-3.4375 z"
     style="font-size:22px;text-anchor:middle"
     id="path160" /><path
     d="M 90.021484,228.00098 86.895508,240 H 85.026367 L 81.943359,230.75098 78.881836,240 h -1.858399 l -3.158203,-11.99902 h 2.105469 l 2.202149,9.29199 2.99707,-9.29199 h 1.665039 l 3.072266,9.29199 2.083984,-9.29199 z"
     style="font-size:22px;text-anchor:middle"
     id="path162" /><path
     d="m 102.97656,234.20996 h -8.840818 q 0,1.10645 0.333008,1.93359 0.333008,0.81641 0.913086,1.34278 0.558594,0.51562 1.321289,0.77344 0.773437,0.25781 1.697266,0.25781 1.224609,0 2.459959,-0.4834 1.2461,-0.49414 1.77246,-0.9668 h 0.10742 v 2.20215 q -1.0205,0.42969 -2.08398,0.71973 -1.063477,0.29004 -2.234375,0.29004 -2.986328,0 -4.662109,-1.61133 -1.675782,-1.62207 -1.675782,-4.59766 0,-2.94336 1.600586,-4.67285 1.611328,-1.72949 4.232422,-1.72949 2.427738,0 3.738278,1.41797 1.32129,1.41797 1.32129,4.02832 z m -1.96582,-1.54687 q -0.0107,-1.58985 -0.80566,-2.45997 -0.784182,-0.87011 -2.39551,-0.87011 -1.62207,0 -2.588867,0.95605 -0.956055,0.95606 -1.084961,2.37403 z"
     style="font-size:22px;text-anchor:middle"
     id="path164" /><path
     d="m 124.47168,240 h -10.53809 v -15.99512 h 10.53809 v 1.89063 h -8.41113 v 4.38281 h 8.41113 v 1.89063 h -8.41113 v 5.94042 h 8.41113 z"
     style="font-size:22px;text-anchor:middle"
     id="path166" /><path
     d="m 138.08203,240 h -2.5459 L 132.13086,235.3916 128.7041,240 h -2.35254 l 4.6836,-5.9834 -4.64063,-6.01562 h 2.5459 l 3.38379,4.5332 3.39453,-4.5332 h 2.36328 l -4.71582,5.9082 z"
     style="font-size:22px;text-anchor:middle"
     id="path168" /><path
     d="m 151.27344,233.85547 q 0,1.46094 -0.41895,2.6748 -0.41894,1.20313 -1.18164,2.04102 -0.70898,0.79492 -1.67578,1.23535 -0.95605,0.42969 -2.03027,0.42969 -0.93457,0 -1.69727,-0.2041 -0.75195,-0.20411 -1.53613,-0.63379 v 5.02734 h -2.01953 v -16.4248 h 2.01953 v 1.25683 q 0.80566,-0.67676 1.80469,-1.12793 1.00976,-0.46191 2.14843,-0.46191 2.16993,0 3.37305,1.64355 1.21387,1.63282 1.21387,4.54395 z m -2.08399,0.0537 q 0,-2.16992 -0.74121,-3.24414 -0.74121,-1.07422 -2.27734,-1.07422 -0.87012,0 -1.75098,0.37598 -0.88086,0.37597 -1.68652,0.98828 v 6.7998 q 0.85937,0.38672 1.47168,0.52637 0.62304,0.13965 1.40722,0.13965 1.68653,0 2.63184,-1.13867 0.94531,-1.13868 0.94531,-3.37305 z"
     style="font-size:22px;text-anchor:middle"
     id="path170" /><path
     d="m 156.46191,240 h -2.01953 v -16.71484 h 2.01953 z"
     style="font-size:22px;text-anchor:middle"
     id="path172" /><path
     d="m 170.70605,234.00586 q 0,2.93262 -1.5039,4.62988 -1.50391,1.69727 -4.02832,1.69727 -2.5459,0 -4.04981,-1.69727 -1.49316,-1.69726 -1.49316,-4.62988 0,-2.93262 1.49316,-4.62988 1.50391,-1.70801 4.04981,-1.70801 2.52441,0 4.02832,1.70801 1.5039,1.69726 1.5039,4.62988 z m -2.08398,0 q 0,-2.33106 -0.91309,-3.45899 -0.91308,-1.13867 -2.53515,-1.13867 -1.64356,0 -2.55664,1.13867 -0.90235,1.12793 -0.90235,3.45899 0,2.25586 0.91309,3.42676 0.91309,1.16015 2.5459,1.16015 1.61133,0 2.52441,-1.14941 0.92383,-1.16016 0.92383,-3.4375 z"
     style="font-size:22px;text-anchor:middle"
     id="path174" /><path
     d="m 181.33008,230.20312 h -0.10742 q -0.45118,-0.10742 -0.88086,-0.15039 -0.41895,-0.0537 -0.99903,-0.0537 -0.93457,0 -1.80468,0.41895 -0.87012,0.4082 -1.67579,1.06348 V 240 h -2.01953 v -11.99902 h 2.01953 v 1.77246 q 1.20313,-0.9668 2.11622,-1.36426 0.92382,-0.4082 1.87988,-0.4082 0.52637,0 0.76269,0.0322 0.23633,0.0215 0.70899,0.0967 z"
     style="font-size:22px;text-anchor:middle"
     id="path176" /><path
     d="m 193.29687,234.20996 h -8.84082 q 0,1.10645 0.33301,1.93359 0.33301,0.81641 0.91309,1.34278 0.55859,0.51562 1.32129,0.77344 0.77343,0.25781 1.69726,0.25781 1.22461,0 2.45996,-0.4834 1.2461,-0.49414 1.77246,-0.9668 h 0.10743 v 2.20215 q -1.02051,0.42969 -2.08399,0.71973 -1.06347,0.29004 -2.23437,0.29004 -2.98633,0 -4.66211,-1.61133 -1.67578,-1.62207 -1.67578,-4.59766 0,-2.94336 1.60058,-4.67285 1.61133,-1.72949 4.23242,-1.72949 2.42774,0 3.73829,1.41797 1.32128,1.41797 1.32128,4.02832 z m -1.96582,-1.54687 q -0.0107,-1.58985 -0.80566,-2.45997 -0.78418,-0.87011 -2.39551,-0.87011 -1.62207,0 -2.58886,0.95605 -0.95606,0.95606 -1.08497,2.37403 z"
     style="font-size:22px;text-anchor:middle"
     id="path178" /><path
     d="m 203.8457,230.20312 h -0.10742 q -0.45117,-0.10742 -0.88086,-0.15039 -0.41894,-0.0537 -0.99902,-0.0537 -0.93457,0 -1.80469,0.41895 -0.87012,0.4082 -1.67578,1.06348 V 240 h -2.01953 v -11.99902 h 2.01953 v 1.77246 q 1.20312,-0.9668 2.11621,-1.36426 0.92383,-0.4082 1.87988,-0.4082 0.52637,0 0.7627,0.0322 0.23633,0.0215 0.70898,0.0967 z"
     style="font-size:22px;text-anchor:middle"
     id="path180" /><path
     d="m 219.95898,225.24023 h -0.10742 q -0.33301,-0.0967 -0.87011,-0.19336 -0.53711,-0.10742 -0.94532,-0.10742 -1.2998,0 -1.89062,0.58008 -0.58008,0.56934 -0.58008,2.07324 v 0.40821 h 3.6416 v 1.69726 h -3.57715 V 240 h -2.01953 v -10.30176 h -1.36426 v -1.69726 h 1.36426 v -0.39746 q 0,-2.1377 1.06348,-3.27637 1.06347,-1.14942 3.07226,-1.14942 0.67676,0 1.21387,0.0645 0.54785,0.0644 0.99902,0.15039 z"
     style="font-size:22px;text-anchor:middle"
     id="path182" /><path
     d="m 231.46387,234.00586 q 0,2.93262 -1.50391,4.62988 -1.50391,1.69727 -4.02832,1.69727 -2.5459,0 -4.0498,-1.69727 -1.49317,-1.69726 -1.49317,-4.62988 0,-2.93262 1.49317,-4.62988 1.5039,-1.70801 4.0498,-1.70801 2.52441,0 4.02832,1.70801 1.50391,1.69726 1.50391,4.62988 z m -2.08399,0 q 0,-2.33106 -0.91308,-3.45899 -0.91309,-1.13867 -2.53516,-1.13867 -1.64355,0 -2.55664,1.13867 -0.90234,1.12793 -0.90234,3.45899 0,2.25586 0.91308,3.42676 0.91309,1.16015 2.5459,1.16015 1.61133,0 2.52441,-1.14941 0.92383,-1.16016 0.92383,-3.4375 z"
     style="font-size:22px;text-anchor:middle"
     id="path184" /><path
     d="m 242.08789,230.20312 h -0.10742 q -0.45117,-0.10742 -0.88086,-0.15039 -0.41895,-0.0537 -0.99902,-0.0537 -0.93457,0 -1.80469,0.41895 -0.87012,0.4082 -1.67578,1.06348 V 240 h -2.01953 v -11.99902 h 2.01953 v 1.77246 q 1.20312,-0.9668 2.11621,-1.36426 0.92383,-0.4082 1.87988,-0.4082 0.52637,0 0.7627,0.0322 0.23632,0.0215 0.70898,0.0967 z"
     style="font-size:22px;text-anchor:middle"
     id="path186" /><path
     d="m 257.5459,240 h -6.31641 v -1.63281 h 2.09473 V 225.6377 h -2.09473 v -1.63282 h 6.31641 v 1.63282 h -2.09473 v 12.72949 h 2.09473 z"
     style="font-size:22px;text-anchor:middle"
     id="path188" /><path
     d="m 273.25098,235.08008 q 0,1.19238 -0.45118,2.10547 -0.45117,0.91308 -1.21386,1.5039 -0.90235,0.70899 -1.98731,1.00977 Q 268.52441,240 266.85937,240 h -5.67187 v -15.99512 h 4.7373 q 1.75098,0 2.6211,0.12891 0.87012,0.12891 1.66504,0.53711 0.88086,0.46191 1.27832,1.19238 0.39746,0.71973 0.39746,1.72949 0,1.13868 -0.58008,1.94434 -0.58008,0.79492 -1.54687,1.27832 v 0.0859 q 1.62207,0.333 2.55664,1.42871 0.93457,1.08496 0.93457,2.75 z m -3.57715,-7.20801 q 0,-0.58008 -0.19336,-0.97754 -0.19336,-0.39746 -0.62305,-0.64453 -0.50488,-0.29004 -1.22461,-0.35449 -0.71972,-0.0752 -1.7832,-0.0752 h -2.53516 v 4.61914 h 2.75 q 0.99903,0 1.58985,-0.0967 0.59082,-0.10742 1.0957,-0.42968 0.50488,-0.32227 0.70898,-0.82715 0.21485,-0.51563 0.21485,-1.21387 z m 1.36426,7.29395 q 0,-0.9668 -0.29004,-1.53614 -0.29004,-0.56933 -1.05274,-0.96679 -0.51562,-0.26856 -1.25683,-0.34375 -0.73047,-0.0859 -1.78321,-0.0859 h -3.34082 v 5.95117 h 2.81446 q 1.39648,0 2.28808,-0.13965 0.8916,-0.15039 1.46094,-0.53711 0.60156,-0.41894 0.88086,-0.95605 0.2793,-0.53711 0.2793,-1.38574 z"
     style="font-size:22px;text-anchor:middle"
     id="path190" /><path
     d="m 290.51367,240 h -2.12695 v -13.78223 l -4.44727,9.37793 h -1.26758 l -4.41503,-9.37793 V 240 h -1.98731 v -15.99512 h 2.90039 l 4.26465,8.90528 4.125,-8.90528 h 2.9541 z"
     style="font-size:22px;text-anchor:middle"
     id="path192" /><path
     d="m 314.91992,238.83984 q -0.59082,0.25782 -1.07422,0.4834 -0.47265,0.22559 -1.24609,0.47266 -0.65527,0.2041 -1.42871,0.34375 -0.7627,0.15039 -1.68653,0.15039 -1.74023,0 -3.16894,-0.4834 -1.41797,-0.49414 -2.4707,-1.53613 -1.03125,-1.02051 -1.61133,-2.58887 -0.58008,-1.5791 -0.58008,-3.66309 0,-1.97656 0.55859,-3.53418 0.5586,-1.55761 1.61133,-2.63183 1.02051,-1.04199 2.45996,-1.58984 1.4502,-0.54786 3.21192,-0.54786 1.28906,0 2.56738,0.31153 1.28906,0.31152 2.85742,1.0957 v 2.52441 h -0.16113 q -1.32129,-1.10644 -2.62109,-1.61132 -1.29981,-0.50489 -2.78223,-0.50489 -1.21387,0 -2.19141,0.39746 -0.96679,0.38672 -1.72949,1.21387 -0.74121,0.80567 -1.16016,2.04102 -0.4082,1.22461 -0.4082,2.83593 0,1.68653 0.45117,2.9004 0.46192,1.21386 1.18164,1.97656 0.75196,0.79492 1.75098,1.18164 1.00977,0.37597 2.12695,0.37597 1.53614,0 2.87891,-0.52636 1.34277,-0.52637 2.51367,-1.5791 h 0.15039 z"
     style="font-size:22px;text-anchor:middle"
     id="path194" /><path
     d="m 323.58887,240 h -6.31641 v -1.63281 h 2.09473 V 225.6377 h -2.09473 v -1.63282 h 6.31641 v 1.63282 h -2.09473 v 12.72949 h 2.09473 z"
     style="font-size:22px;text-anchor:middle"
     id="path196" /><path
     d="m 339.58398,238.83984 q -0.59082,0.25782 -1.07421,0.4834 -0.47266,0.22559 -1.2461,0.47266 -0.65527,0.2041 -1.42871,0.34375 -0.76269,0.15039 -1.68652,0.15039 -1.74024,0 -3.16895,-0.4834 -1.41797,-0.49414 -2.4707,-1.53613 -1.03125,-1.02051 -1.61133,-2.58887 -0.58008,-1.5791 -0.58008,-3.66309 0,-1.97656 0.5586,-3.53418 0.55859,-1.55761 1.61132,-2.63183 1.02051,-1.04199 2.45997,-1.58984 1.45019,-0.54786 3.21191,-0.54786 1.28906,0 2.56738,0.31153 1.28906,0.31152 2.85742,1.0957 v 2.52441 h -0.16113 q -1.32129,-1.10644 -2.62109,-1.61132 -1.29981,-0.50489 -2.78223,-0.50489 -1.21387,0 -2.19141,0.39746 -0.96679,0.38672 -1.72949,1.21387 -0.74121,0.80567 -1.16015,2.04102 -0.40821,1.22461 -0.40821,2.83593 0,1.68653 0.45118,2.9004 0.46191,1.21386 1.18164,1.97656 0.75195,0.79492 1.75097,1.18164 1.00977,0.37597 2.12696,0.37597 1.53613,0 2.8789,-0.52636 1.34278,-0.52637 2.51367,-1.5791 h 0.15039 z"
     style="font-size:22px;text-anchor:middle"
     id="path198" /><path
     d="m 354.23633,235.43457 q 0,0.93457 -0.44043,1.84766 -0.42969,0.91308 -1.21387,1.54687 -0.85937,0.6875 -2.00879,1.07422 -1.13867,0.38672 -2.75,0.38672 -1.72949,0 -3.11523,-0.32227 -1.375,-0.32226 -2.80371,-0.95605 v -2.66406 h 0.15039 q 1.21386,1.00976 2.80371,1.55761 1.58984,0.54785 2.98633,0.54785 1.97656,0 3.07226,-0.74121 1.10645,-0.74121 1.10645,-1.97656 0,-1.06348 -0.52637,-1.56836 -0.51562,-0.50488 -1.5791,-0.78418 -0.80567,-0.21484 -1.75098,-0.35449 -0.93457,-0.13965 -1.9873,-0.35449 -2.12696,-0.45117 -3.15821,-1.53613 -1.0205,-1.09571 -1.0205,-2.84668 0,-2.00879 1.69726,-3.28711 1.69727,-1.28907 4.30762,-1.28907 1.68652,0 3.09375,0.32227 1.40723,0.32226 2.49219,0.79492 v 2.51367 h -0.15039 q -0.91309,-0.77343 -2.40625,-1.27832 -1.48243,-0.51562 -3.04004,-0.51562 -1.70801,0 -2.75,0.70898 -1.03125,0.70899 -1.03125,1.82617 0,0.99903 0.51562,1.56836 0.51563,0.56934 1.81543,0.87012 0.6875,0.15039 1.95508,0.36523 1.26758,0.21485 2.14844,0.44043 1.7832,0.47266 2.68554,1.42872 0.90235,0.95605 0.90235,2.6748 z"
     style="font-size:22px;text-anchor:middle"
     id="path200" /></g><g
   id="g531"
   transform="scale(0.6098486)"><polygon
     class="cls-1"
     points="168.197,136.32 181.956,55.782 29.202,156.633 81.719,155.81 153.203,105.713 "
     id="polygon279"
     style="fill:#0033a1"
     transform="translate(-29.2,-55.777)" /><polygon
     class="cls-2"
     points="271.51,191.418 164.529,154.712 181.954,55.777 "
     id="polygon281"
     style="fill:#2a7de1"
     transform="translate(-29.2,-55.777)" /><polyline
     class="cls-1"
     points="131.223 229.511 139.675 241.691 216.405 187.184 203.42 168.057 159.152 198.91 164.527 154.716 271.508 191.416 125.787 294.202"
     id="polyline283"
     style="fill:#0033a1"
     transform="translate(-29.2,-55.777)" /><polygon
     class="cls-2"
     points="29.2,156.634 81.723,155.811 94.075,176.677 143.275,143.238 125.788,293.012 "
     id="polygon285"
     style="fill:#2a7de1"
     transform="translate(-29.2,-55.777)" /><path
     class="cls-2"
     d="m 587.23191,35.4428 h 5.29468 a 6.88644,6.88644 0 0 1 4.63135,1.36974 4.52388,4.52388 0 0 1 1.62157,3.71612 4.67514,4.67514 0 0 1 -1.62157,3.753 7.14731,7.14731 0 0 1 -4.79105,1.382 h -3.65465 V 54.656 h -1.48033 z m 1.48033,1.23459 v 7.69637 h 3.56251 a 5.57788,5.57788 0 0 0 3.6547,-1.01963 3.84745,3.84745 0 0 0 0.27639,-5.436 0.34852,0.34852 0 0 1 -0.043,-0.04916 l -0.1904,-0.20882 a 5.3287,5.3287 0 0 0 -3.50731,-1.038 z"
     id="path287"
     style="fill:#2a7de1" /><path
     class="cls-2"
     d="m 603.86285,35.4428 h 4.90774 a 7.28588,7.28588 0 0 1 4.73571,1.35132 4.43482,4.43482 0 0 1 1.63385,3.61781 4.77216,4.77216 0 0 1 -3.65465,4.6559 8.891,8.891 0 0 1 2.56135,2.94829 l 4.34877,6.63987 h -1.77514 l -3.3476,-5.23325 a 12.51111,12.51111 0 0 0 -2.59819,-3.29231 4.8449,4.8449 0 0 0 -2.73333,-0.65719 h -2.65348 v 9.21963 h -1.48028 z m 1.48033,1.23459 v 7.52438 h 3.17557 a 6.18842,6.18842 0 0 0 3.73454,-0.98279 3.61961,3.61961 0 0 0 0.42378,-5.09814 l -0.44224,-0.44224 a 6.15319,6.15319 0 0 0 -3.753,-1.00121 z"
     id="path289"
     style="fill:#2a7de1" /><path
     class="cls-2"
     d="m 631.17162,35.19832 a 10.00767,10.00767 0 0 1 7.21716,2.8623 9.627,9.627 0 0 1 0.344,13.61141 c -0.0368,0.0368 -0.0737,0.0737 -0.1105,0.11669 l -0.23347,0.2457 a 10.49871,10.49871 0 0 1 -14.416,0 9.74545,9.74545 0 0 1 -0.20263,-13.77108 l 0.0123,-0.0061 0.19035,-0.19658 a 9.95061,9.95061 0 0 1 7.19888,-2.8623 m 0,18.32252 a 8.24138,8.24138 0 0 0 6.06247,-2.44461 8.5868,8.5868 0 0 0 0,-12.05123 8.71124,8.71124 0 0 0 -12.1434,0 8.50806,8.50806 0 0 0 0,12.03281 8.30684,8.30684 0 0 0 6.08093,2.44461"
     id="path291"
     style="fill:#2a7de1" /><path
     class="cls-2"
     d="m 648.82228,35.44463 v 19.25006 a 6.22857,6.22857 0 0 1 -1.19161,4.34877 3.8501,3.8501 0 0 1 -2.8317,1.21617 q -0.44214,0.0184 -0.88448,0 l -0.13515,-1.38815 a 4.62122,4.62122 0 0 0 0.86611,0.0983 c 1.812,0 2.69645,-1.27147 2.69645,-3.85123 V 35.44463 Z"
     id="path293"
     style="fill:#2a7de1" /><polygon
     class="cls-2"
     points="686.071,100.134 694.824,100.134 694.824,101.387 686.071,101.387 686.071,109.182 695.266,109.182 695.266,110.429 684.585,110.429 684.585,91.222 695.057,91.222 695.057,92.456 686.071,92.456 "
     id="polygon295"
     style="fill:#2a7de1"
     transform="translate(-29.2,-55.777)" /><path
     class="cls-2"
     d="m 687.39486,36.81249 v 1.61543 A 14.69811,14.69811 0 0 0 680.54,36.5054 a 8.0693,8.0693 0 0 0 -5.96416,2.44466 8.24453,8.24453 0 0 0 -2.40784,6.08094 8.14392,8.14392 0 0 0 2.40778,6.11777 8.47367,8.47367 0 0 0 6.17916,2.3709 14.50977,14.50977 0 0 0 6.83027,-1.92252 v 1.53558 a 14.27085,14.27085 0 0 1 -6.79343,1.79356 10.06857,10.06857 0 0 1 -7.31548,-2.81319 9.83525,9.83525 0 0 1 -0.006,-13.90622 0.006,0.006 0 0 0 0.006,-0.0061 0.7022,0.7022 0 0 0 0.13515,-0.13515 10.02036,10.02036 0 0 1 7.10666,-2.83161 16.137,16.137 0 0 1 6.7565,1.61544"
     id="path297"
     style="fill:#2a7de1" /><polygon
     class="cls-2"
     points="728.51,110.429 727.005,110.429 727.005,92.456 719.788,92.456 719.788,91.222 735.709,91.222 735.709,92.456 728.51,92.456 "
     id="polygon299"
     style="fill:#2a7de1"
     transform="translate(-29.2,-55.777)" /><polygon
     class="cls-2"
     points="416.797,111.778 410.365,111.778 410.365,99.444 404.592,106.582 404.076,106.582 398.277,99.444 398.277,111.778 392.043,111.778 392.043,90.495 397.86,90.495 404.401,98.48 410.961,90.495 416.797,90.495 "
     id="polygon301"
     style="fill:#2a7de1"
     transform="translate(-29.2,-55.777)" /><path
     class="cls-2"
     d="m 416.33272,56.00365 h -6.56614 l -1.75054,-4.31193 H 398.778 l -1.769,4.31193 h -6.56615 L 399.859,34.71433 h 7.18037 z m -9.77855,-8.02806 -3.12032,-7.69633 -3.151,7.69633 z"
     id="path303"
     style="fill:#2a7de1" /><rect
     class="cls-2"
     x="419.18277"
     y="34.71859"
     width="6.4064398"
     height="21.28314"
     id="rect305"
     style="fill:#2a7de1" /><polygon
     class="cls-2"
     points="460.181,90.495 465.875,90.495 476.882,102.288 476.882,90.495 483.276,90.495 483.276,111.778 477.576,111.778 466.532,99.923 466.532,111.778 460.181,111.778 "
     id="polygon307"
     style="fill:#2a7de1"
     transform="translate(-29.2,-55.777)" /><polygon
     class="cls-2"
     points="503.871,90.49 503.871,94.765 495.039,94.765 495.039,98.887 503.871,98.887 503.871,103.156 495.039,103.156 495.039,111.779 488.626,111.779 488.626,90.49 "
     id="polygon309"
     style="fill:#2a7de1"
     transform="translate(-29.2,-55.777)" /><path
     class="cls-2"
     d="m 499.595,56.00112 h -6.8917 l -1.67074,-3.84509 a 16.48553,16.48553 0 0 0 -1.6584,-3.02815 3.5709,3.5709 0 0 0 -1.43731,-1.22849 5.21472,5.21472 0 0 0 -1.812,-0.27026 h -0.71254 v 8.31674 h -6.431 V 34.718 h 10.91499 a 7.868,7.868 0 0 1 4.33035,1.07488 6.46344,6.46344 0 0 1 2.44461,2.59823 6.72627,6.72627 0 0 1 0.731,2.92373 5.4132,5.4132 0 0 1 -0.61422,2.73334 4.99247,4.99247 0 0 1 -1.30835,1.61543 14.60055,14.60055 0 0 1 -1.56014,0.96433 5.90891,5.90891 0 0 1 1.69529,1.425 16.98237,16.98237 0 0 1 1.88569,3.2923 z m -8.716,-14.56961 a 2.15338,2.15338 0 0 0 -0.98279,-2.03921 6.28282,6.28282 0 0 0 -3.13874,-0.5958 h -1.34518 v 5.14111 h 1.36974 a 7.19359,7.19359 0 0 0 3.23087,-0.52209 2.149,2.149 0 0 0 0.8661,-1.92257"
     id="path311"
     style="fill:#2a7de1" /><path
     class="cls-2"
     d="m 525.87192,56.00365 h -6.56615 l -1.73212,-4.31193 h -9.238 l -1.769,4.31193 H 499.982 l 9.41,-21.28932 h 7.10052 z m -9.77856,-8.02806 -3.12036,-7.69633 -3.13874,7.69633 z"
     id="path313"
     style="fill:#2a7de1" /><polygon
     class="cls-2"
     points="582.651,111.778 576.245,111.778 576.245,99.444 570.446,106.582 569.949,106.582 564.132,99.444 564.132,111.778 557.897,111.778 557.897,90.495 563.733,90.495 570.256,98.48 576.84,90.495 582.651,90.495 "
     id="polygon315"
     style="fill:#2a7de1"
     transform="translate(-29.2,-55.777)" /><polygon
     class="cls-2"
     points="603.804,90.495 603.804,94.764 594.449,94.764 594.449,98.652 603.38,98.652 603.38,102.945 594.449,102.945 594.449,107.485 604.074,107.485 604.074,111.778 588.024,111.778 588.024,90.495 "
     id="polygon317"
     style="fill:#2a7de1"
     transform="translate(-29.2,-55.777)" /><path
     class="cls-2"
     d="m 283.15852,35.42865 a 11.03124,11.03124 0 0 1 8.06485,3.194 10.85708,10.85708 0 0 1 0.31941,15.34967 0.18792,0.18792 0 0 0 -0.0492,0.0492 l -0.27025,0.26412 a 11.73656,11.73656 0 0 1 -16.09291,0 10.89088,10.89088 0 0 1 -0.20882,-15.39265 l 0.20882,-0.215 a 11.08033,11.08033 0 0 1 8.02806,-3.194 m 0,20.46 a 9.21918,9.21918 0 0 0 6.775,-2.73333 9.62184,9.62184 0 0 0 0,-13.47008 9.78988,9.78988 0 0 0 -13.5684,0 9.50155,9.50155 0 0 0 -0.0246,13.44552 l 0.0246,0.0246 a 9.2606,9.2606 0 0 0 6.79343,2.73333"
     id="path319"
     style="fill:#2a7de1" /><path
     class="cls-2"
     d="m 298.57146,35.694 h 5.915 a 7.96062,7.96062 0 0 1 5.19642,1.52331 5.61267,5.61267 0 0 1 -0.11669,8.35356 8.05225,8.05225 0 0 1 -5.33156,1.56014 h -4.10303 v 9.98742 h -1.65227 z m 1.65845,1.38815 v 8.66071 h 4.00476 a 6.42467,6.42467 0 0 0 4.07851,-1.13632 4.34636,4.34636 0 0 0 0.23342,-6.13619 0.89411,0.89411 0 0 0 -0.215,-0.215 5.7378,5.7378 0 0 0 -3.8451,-1.1732 z"
     id="path321"
     style="fill:#2a7de1" /><polygon
     class="cls-2"
     points="345.519,101.443 355.304,101.443 355.304,102.831 345.519,102.831 345.519,111.547 355.82,111.547 355.82,112.935 343.867,112.935 343.867,91.474 355.568,91.474 355.568,92.862 345.519,92.862 "
     id="polygon323"
     style="fill:#2a7de1"
     transform="translate(-29.2,-55.777)" /><polygon
     class="cls-2"
     points="359.227,112.935 359.227,91.474 360.634,91.474 376.892,110.22 376.892,91.474 378.551,91.474 378.551,112.935 377.181,112.935 360.885,94.164 360.885,112.935 "
     id="polygon325"
     style="fill:#2a7de1"
     transform="translate(-29.2,-55.777)" /><path
     class="cls-1"
     d="m 269.81527,175.16729 64.79151,-75.394 h -62.772 V 77.0545 h 96.09326 V 96.744 l -64.79151,75.394 h 64.79151 v 22.71875 h -98.1128 z"
     id="path327"
     style="fill:#0033a1" /><path
     class="cls-1"
     d="m 381.22348,150.26007 v -0.33692 c 0,-25.916 20.86816,-46.95215 48.97265,-46.95215 27.93555,0 48.63477,20.69922 48.63477,46.61622 v 0.33593 c 0,25.917 -20.86719,46.95313 -48.97168,46.95313 -27.93652,0 -48.63574,-20.69922 -48.63574,-46.61621 z m 72.36425,0 v -0.33692 c 0,-13.29443 -9.59277,-24.90625 -23.72851,-24.90625 -14.6416,0 -23.39258,11.27539 -23.39258,24.57032 v 0.33593 c 0,13.29492 9.59277,24.90723 23.72949,24.90723 14.64063,0 23.3916,-11.27538 23.3916,-24.57031 z"
     id="path329"
     style="fill:#0033a1" /><path
     class="cls-1"
     d="m 485.89926,104.65362 h 25.917 L 526.28891,159.348 543.286,104.3172 h 22.0459 l 17.165,55.19873 14.80957,-54.86231 h 25.41211 l -28.10449,90.876 h -23.05565 l -17.334,-55.3667 -17.66992,55.3667 h -22.88768 z"
     id="path331"
     style="fill:#0033a1" /><path
     class="cls-1"
     d="m 629.78793,150.26007 v -0.33692 c 0,-25.748 18.34375,-46.95215 44.59668,-46.95215 30.124,0 43.92383,23.39209 43.92383,48.97168 0,2.01954 -0.16895,4.376 -0.33692,6.73145 H 655.2 c 2.52344,11.6123 10.60156,17.6709 22.0459,17.6709 8.582,0 14.80859,-2.69238 21.877,-9.25586 l 14.6416,12.958 c -8.415,10.43359 -20.53125,16.8291 -36.85547,16.8291 -27.09473,1e-5 -47.1211,-19.01659 -47.1211,-46.6162 z m 63.61328,-7.57276 c -1.51465,-11.44384 -8.24609,-19.18506 -19.0166,-19.18506 -10.60254,0 -17.50195,7.57276 -19.52148,19.18506 z"
     id="path333"
     style="fill:#0033a1" /><polygon
     class="cls-1"
     points="94.075,176.677 137.471,193.298 143.275,143.239 "
     id="polygon335"
     style="fill:#0033a1"
     transform="translate(-29.2,-55.777)" /></g></svg>
