<svg id="Layer_1" data-name="Layer 1" xmlns="http://www.w3.org/2000/svg" viewBox="0 0 1043.12 313.56475"><defs><style>.cls-1{fill:#488eff;}</style></defs><title>zowe</title><path d="M431.32805,206.21142H529.8714v26.94049H393.34562V212.004l91.7-126.50365h-86.87V58.56866H524.772V78.582Z"/><path d="M584.71481,167.80511c0,27.12151,13.479,42.57847,35.39085,42.57847,22.04419,0,35.39085-15.72629,35.39085-42.57847s-13.34659-42.58292-35.39085-42.58292c-21.91175,0-35.39085,15.46141-35.39085,42.58292m101.32476,0c0,48.11935-32.25171,69.03769-65.934,69.03769-33.68665,0-65.9428-20.91841-65.9428-69.03769s32.25615-69.03769,65.9428-69.03769c33.6822,0,65.934,20.91841,65.934,69.03769"/><path d="M839.02448,233.15185H819.26722l-29.925-87.06864-31.62034,87.06426H737.96911L695.576,102.45838h29.65131l25.32905,90.9495,30.265-90.9495H800.4065l29.36877,92.02671,27.06411-92.02671h28.97144Z"/><path d="M989.5547,158.02141c-.89626-21.73074-12.56075-35.5807-31.16561-35.5807-18.36206,0-30.84332,11.25832-33.04638,35.58507Zm27.52329,2.57392a94.501,94.501,0,0,1-1.55849,17.59387h-89.678c3.5674,24.92283,17.95153,34.1723,37.26725,34.1723a57.79825,57.79825,0,0,0,37.20541-13.25834l12.4504,19.47027c-13.51885,11.4349-30.74186,18.26937-54.12823,18.26937-34.19433,0-63.01122-22.031-63.01122-68.40638,0-42.552,25.12594-69.66906,62.031-69.66906,40.137,0,59.42617,30.34446,59.42617,61.82359Z"/><path class="cls-1" d="M291.10687,179.83608,156.11311,274.35729a9.94265,9.94265,0,0,1-15.60713-8.90071L155.548,70.54216,45.243,147.77859l90.2475,128.89218a9.94263,9.94263,0,0,1-16.28262,11.3996L23.265,151.04128a9.93382,9.93382,0,0,1,2.43427-13.836l.00724-.00505L161.37137,42.20216a9.93381,9.93381,0,0,1,15.60713,8.9051l-15.03756,194.91,110.30494-77.23643L182.47518,40.56863a9.93822,9.93822,0,1,1,15.99476-11.8q.14673.19887.28341.40488l94.998,135.66926a11.4718,11.4718,0,0,1-2.64459,14.9934"/></svg>