<svg xmlns="http://www.w3.org/2000/svg" role="img" viewBox="-8.76 -8.76 455.52 199.27"><style>.st0{fill:#4C83C3;}</style><style/><style/><style/><style/><style/><path d="M78.033 177.539H65.551v-1.9766l9.8076-12.128h-9.4424v-1.8906h11.881v1.9228l-9.9043 12.182h10.141zm13.46-5.99q0 2.9326-1.5039 4.6299-1.5039 1.6973-4.0283 1.6973-2.5459 0-4.0498-1.6973-1.4932-1.6973-1.4932-4.6299t1.4932-4.6299q1.5039-1.708 4.0498-1.708 2.5244 0 4.0283 1.708 1.5039 1.6973 1.5039 4.6299zm-2.084 0q0-2.3311-.91309-3.459-.91309-1.1387-2.5352-1.1387-1.6436 0-2.5566 1.1387-.90234 1.1279-.90234 3.459 0 2.2559.91309 3.4268.91309 1.1602 2.5459 1.1602 1.6113 0 2.5244-1.1494.92383-1.1602.92383-3.4375zm20.313-6.01l-3.126 11.999h-1.8691l-3.083-9.249-3.0615 9.249H96.724l-3.1582-11.999h2.1055l2.2021 9.292 2.9971-9.292h1.665l3.0723 9.292 2.084-9.292zm12.959 6.21h-8.8408q0 1.1064.33301 1.9336.33301.81641.91309 1.3428.55859.51562 1.3213.77344.77344.25781 1.6973.25781 1.2246 0 2.46-.4834 1.2461-.49414 1.7725-.9668h.10742v2.2022q-1.0205.42969-2.084.71973-1.0635.29004-2.2344.29004-2.9863 0-4.6621-1.6113-1.6758-1.6221-1.6758-4.5977 0-2.9434 1.6006-4.6728 1.6113-1.7295 4.2324-1.7295 2.4277 0 3.7383 1.418 1.3213 1.418 1.3213 4.0283zm-1.9658-1.5469q-.0107-1.5898-.80566-2.46-.78418-.87011-2.3955-.87011-1.6221 0-2.5889.95605-.95606.95606-1.085 2.374zm23.4558 7.3369h-10.538v-15.995h10.538v1.8906h-8.4111v4.3828h8.4111v1.8906h-8.4111v5.9404h8.4111zm13.61 0h-2.5459l-3.4053-4.6084-3.4268 4.6084h-2.3525l4.6836-5.9834-4.6406-6.0156h2.5459l3.3838 4.5332 3.3945-4.5332h2.3633l-4.7158 5.9082zm13.19-6.14q0 1.4609-.41895 2.6748-.41894 1.2031-1.1816 2.041-.70898.79492-1.6758 1.2354-.95605.42969-2.0303.42969-.93457 0-1.6973-.2041-.75195-.20411-1.5361-.63379v5.0273h-2.0195v-16.425h2.0195v1.2568q.80566-.67676 1.8047-1.1279 1.0098-.46191 2.1484-.46191 2.1699 0 3.373 1.6436 1.2139 1.6328 1.2139 4.544zm-2.084.0537q0-2.1699-.74121-3.2441t-2.2773-1.0742q-.87012 0-1.751.37598-.88086.37597-1.6865.98828v6.7998q.85937.38672 1.4717.52637.62304.13965 1.4072.13965 1.6865 0 2.6318-1.1387.94531-1.1387.94531-3.373zm7.274 6.0863h-2.0195v-16.715h2.0195zm14.25-5.99q0 2.9326-1.5039 4.6299-1.5039 1.6973-4.0283 1.6973-2.5459 0-4.0498-1.6973-1.4932-1.6973-1.4932-4.6299t1.4932-4.6299q1.5039-1.708 4.0498-1.708 2.5244 0 4.0283 1.708 1.5039 1.6973 1.5039 4.6299zm-2.084 0q0-2.3311-.91309-3.459-.91308-1.1387-2.5352-1.1387-1.6436 0-2.5566 1.1387-.90235 1.1279-.90235 3.459 0 2.2559.91309 3.4268.91309 1.1602 2.5459 1.1602 1.6113 0 2.5244-1.1494.92383-1.1602.92383-3.4375zm12.704-3.81h-.10742q-.45118-.10742-.88086-.15039-.41895-.0537-.99903-.0537-.93457 0-1.8047.41895-.87012.4082-1.6758 1.0635v8.5185h-2.0195v-11.999h2.0195v1.7725q1.2031-.9668 2.1162-1.3643.92382-.4082 1.8799-.4082.52637 0 .76269.0322.23633.0215.70899.0967zm11.97 4.01h-8.8408q0 1.1064.33301 1.9336.33301.81641.91309 1.3428.55859.51562 1.3213.77344.77343.25781 1.6973.25781 1.2246 0 2.46-.4834 1.2461-.49414 1.7725-.9668h.10743v2.2022q-1.0205.42969-2.084.71973-1.0635.29004-2.2344.29004-2.9863 0-4.6621-1.6113-1.6758-1.6221-1.6758-4.5977 0-2.9434 1.6006-4.6728 1.6113-1.7295 4.2324-1.7295 2.4277 0 3.7383 1.418 1.3213 1.418 1.3213 4.0283zm-1.9658-1.5469q-.0107-1.5898-.80566-2.46-.78418-.87011-2.3955-.87011-1.6221 0-2.5889.95605-.95606.95606-1.085 2.374zm12.5158-2.4631h-.10742q-.45117-.10742-.88086-.15039-.41894-.0537-.99902-.0537-.93457 0-1.8047.41895-.87012.4082-1.6758 1.0635v8.5185h-2.0195v-11.999h2.0195v1.7725q1.2031-.9668 2.1162-1.3643.92383-.4082 1.8799-.4082.52637 0 .7627.0322.23633.0215.70898.0967zm16.11-4.96h-.10742q-.33301-.0967-.87011-.19336-.53711-.10742-.94532-.10742-1.2998 0-1.8906.58008-.58008.56934-.58008 2.0732v.40821h3.6416v1.6973h-3.5772v10.302h-2.0195v-10.302h-1.3643v-1.6973h1.3643v-.39746q0-2.1377 1.0635-3.2764 1.0635-1.1494 3.0723-1.1494.67676 0 1.2139.0645.54785.0644.99902.15039zm11.5 8.77q0 2.9326-1.5039 4.6299-1.5039 1.6973-4.0283 1.6973-2.5459 0-4.0498-1.6973-1.4932-1.6973-1.4932-4.6299t1.4932-4.6299q1.5039-1.708 4.0498-1.708 2.5244 0 4.0283 1.708 1.5039 1.6973 1.5039 4.6299zm-2.084 0q0-2.3311-.91308-3.459-.91309-1.1387-2.5352-1.1387-1.6436 0-2.5566 1.1387-.90234 1.1279-.90234 3.459 0 2.2559.91308 3.4268.91309 1.1602 2.5459 1.1602 1.6113 0 2.5244-1.1494.92383-1.1602.92383-3.4375zm12.714-3.81h-.10742q-.45117-.10742-.88086-.15039-.41895-.0537-.99902-.0537-.93457 0-1.8047.41895-.87012.4082-1.6758 1.0635v8.5185h-2.0195v-11.999h2.0195v1.7725q1.2031-.9668 2.1162-1.3643.92383-.4082 1.8799-.4082.52637 0 .7627.0322.23632.0215.70898.0967zm15.46 9.8h-6.3164v-1.6328h2.0947v-12.729h-2.0947v-1.6328h6.3164v1.6328h-2.0947v12.729h2.0947zm15.7-4.92q0 1.1924-.45118 2.1055-.45117.91308-1.2139 1.5039-.90235.70899-1.9873 1.0098-1.0742.30078-2.7393.30078h-5.6719v-15.995h4.7373q1.751 0 2.6211.12891t1.665.53711q.88086.46191 1.2783 1.1924.39746.71973.39746 1.7295 0 1.1387-.58008 1.9443-.58008.79492-1.5469 1.2783v.0859q1.6221.333 2.5566 1.4287.93457 1.085.93457 2.75zm-3.5772-7.208q0-.58008-.19336-.97754t-.62305-.64453q-.50488-.29004-1.2246-.35449-.71972-.0752-1.7832-.0752h-2.5352v4.6191h2.75q.99903 0 1.5898-.0967.59082-.10742 1.0957-.42968.50488-.32227.70898-.82715.21485-.51563.21485-1.2139zm1.3643 7.294q0-.9668-.29004-1.5361-.29004-.56933-1.0527-.96679-.51562-.26856-1.2568-.34375-.73047-.0859-1.7832-.0859h-3.3408v5.9512h2.8145q1.3965 0 2.2881-.13965.8916-.15039 1.4609-.53711.60156-.41894.88086-.95605t.2793-1.3857zm19.4729 4.834h-2.127v-13.782l-4.4473 9.3779h-1.2676l-4.415-9.3779v13.782h-1.9873v-15.995h2.9004l4.2646 8.9053 4.125-8.9053h2.9541zm24.41-1.16q-.59082.25782-1.0742.4834-.47265.22559-1.2461.47266-.65527.2041-1.4287.34375-.7627.15039-1.6865.15039-1.7402 0-3.1689-.4834-1.418-.49414-2.4707-1.5361-1.0312-1.0205-1.6113-2.5889-.58008-1.5791-.58008-3.6631 0-1.9766.55859-3.5342.5586-1.5576 1.6113-2.6318 1.0205-1.042 2.46-1.5898 1.4502-.54786 3.2119-.54786 1.2891 0 2.5674.31153 1.2891.31152 2.8574 1.0957v2.5244h-.16113q-1.3213-1.1064-2.6211-1.6113-1.2998-.50489-2.7822-.50489-1.2139 0-2.1914.39746-.96679.38672-1.7295 1.2139-.74121.80567-1.1602 2.041-.4082 1.2246-.4082 2.8359 0 1.6865.45117 2.9004.46192 1.2139 1.1816 1.9766.75196.79492 1.751 1.1816 1.0098.37597 2.127.37597 1.5361 0 2.8789-.52636 1.3428-.52637 2.5137-1.5791h.15039zm8.67 1.16h-6.3164v-1.6328h2.0947v-12.729h-2.0947v-1.6328h6.3164v1.6328h-2.0947v12.729h2.0947zm15.99-1.16q-.59082.25782-1.0742.4834-.47266.22559-1.2461.47266-.65527.2041-1.4287.34375-.76269.15039-1.6865.15039-1.7402 0-3.169-.4834-1.418-.49414-2.4707-1.5361-1.0312-1.0205-1.6113-2.5889-.58008-1.5791-.58008-3.6631 0-1.9766.5586-3.5342.55859-1.5576 1.6113-2.6318 1.0205-1.042 2.46-1.5898 1.4502-.54786 3.2119-.54786 1.2891 0 2.5674.31153 1.2891.31152 2.8574 1.0957v2.5244h-.16113q-1.3213-1.1064-2.6211-1.6113-1.2998-.50489-2.7822-.50489-1.2139 0-2.1914.39746-.96679.38672-1.7295 1.2139-.74121.80567-1.1602 2.041-.40821 1.2246-.40821 2.8359 0 1.6865.45118 2.9004.46191 1.2139 1.1816 1.9766.75195.79492 1.751 1.1816 1.0098.37597 2.127.37597 1.5361 0 2.8789-.52636 1.3428-.52637 2.5137-1.5791h.15039zm14.66-3.41q0 .93457-.44043 1.8477-.42969.91308-1.2139 1.5469-.85937.6875-2.0088 1.0742-1.1387.38672-2.75.38672-1.7295 0-3.1152-.32227-1.375-.32226-2.8037-.95605v-2.6641h.15039q1.2139 1.0098 2.8037 1.5576 1.5898.54785 2.9863.54785 1.9766 0 3.0723-.74121 1.1064-.74121 1.1064-1.9766 0-1.0635-.52637-1.5684-.51562-.50488-1.5791-.78418-.80567-.21484-1.751-.35449-.93457-.13965-1.9873-.35449-2.127-.45117-3.1582-1.5361-1.0205-1.0957-1.0205-2.8467 0-2.0088 1.6973-3.2871 1.6973-1.2891 4.3076-1.2891 1.6865 0 3.0938.32227 1.4072.32226 2.4922.79492v2.5137h-.15039q-.91309-.77343-2.4062-1.2783-1.4824-.51562-3.04-.51562-1.708 0-2.75.70898-1.0312.70899-1.0312 1.8262 0 .99903.51562 1.5684.51563.56934 1.8154.87012.6875.15039 1.9551.36523 1.2676.21485 2.1484.44043 1.7832.47266 2.6855 1.4287.90235.95605.90235 2.6748z"/><path fill="#0033a1" d="M84.76877 49.11875L93.16031.00265.00084 61.50481l32.0275-.50008 43.59268-30.55349z" class="cls-1"/><path fill="#2a7de1" d="M147.77237 82.72149l-65.24175-22.3876L93.15421-.0004z" class="cls-2"/><path fill="#0033a1" d="M62.21652 105.95067l5.15933 7.42798 46.78769-33.24293-7.91585-11.66033-26.99806 18.81387 3.281-26.94927 65.24174 22.3815-88.86734 62.68038" class="cls-1"/><g fill="#2a7de1"><path d="M-.00038 61.5048l32.03115-.50007 7.53287 12.72757L69.5713 53.3389l-10.66628 91.33724z" class="cls-2"/><path d="M358.12222 21.61491h3.22897a4.19967 4.19967 0 0 1 2.82446.83532 2.7589 2.7589 0 0 1 .98893 2.26626 2.85111 2.85111 0 0 1-.98893 2.28877 4.35878 4.35878 0 0 1-2.9218.8428h-2.22875v5.48396h-.90276zm.90276.75292v4.69365h2.17259a3.40168 3.40168 0 0 0 2.22882-.6218 2.34634 2.34634 0 0 0 .16855-3.31514.21254.21254 0 0 1-.02622-.02998l-.11612-.12735a3.2497 3.2497 0 0 0-2.13892-.63303zm9.23904-.75292h2.99296a4.4433 4.4433 0 0 1 2.88807.8241 2.70456 2.70456 0 0 1 .99637 2.2063 2.91033 2.91033 0 0 1-2.22876 2.83941 5.42218 5.42218 0 0 1 1.56207 1.79802l2.65212 4.04934h-1.08255l-2.04153-3.19146a7.62983 7.62983 0 0 0-1.58451-2.00781 2.95466 2.95466 0 0 0-1.6669-.40079h-1.61824v5.62257h-.90276zm.90276.75292v4.58876h1.93664a3.774 3.774 0 0 0 2.27749-.59935 2.20741 2.20741 0 0 0 .25844-3.10908l-.2697-.2697a3.75253 3.75253 0 0 0-2.28877-.61058zm15.75224-.90233a6.10338 6.10338 0 0 1 4.40141 1.74557 5.87103 5.87103 0 0 1 .2098 8.30067c-.02245.02244-.04495.04495-.0674.07117l-.14238.14984a6.40282 6.40282 0 0 1-8.7916 0 5.94323 5.94323 0 0 1-.12357-8.39825l.0075-.00372.11609-.11988a6.06837 6.06837 0 0 1 4.39025-1.74558m0 11.17428a5.02602 5.02602 0 0 0 3.69721-1.49083 5.23666 5.23666 0 0 0 0-7.3493 5.31253 5.31253 0 0 0-7.4054 0 5.18866 5.18866 0 0 0 0 7.33832 5.0659 5.0659 0 0 0 3.70843 1.49084m10.76352-11.0125v11.73962a3.79851 3.79851 0 0 1-.7267 2.65211 2.34798 2.34798 0 0 1-1.72691.7417q-.26964.01122-.5394 0l-.08242-.8466a2.81824 2.81824 0 0 0 .5282.05996c1.10504 0 1.6444-.77543 1.6444-2.34866V21.61607z" class="cls-2"/><path d="M400.59179 27.04828h5.33619v.76841h-5.33619v4.75073h5.61062v.76232h-6.5193v-11.714h6.39123v.75255h-5.48255z" class="cls-2"/><path d="M419.2048 22.4498v.98515a8.96358 8.96358 0 0 0-4.18047-1.17244 4.92106 4.92106 0 0 0-3.63727 1.4909 5.0279 5.0279 0 0 0-1.4684 3.70844 4.96656 4.96656 0 0 0 1.4684 3.73094 5.16769 5.16769 0 0 0 3.76839 1.4459 8.84892 8.84892 0 0 0 4.16546-1.17244v.93648a8.70317 8.70317 0 0 1-4.14296 1.09383 6.14058 6.14058 0 0 1-4.46136-1.71563 5.998 5.998 0 0 1-.00365-8.48057.00366.00366 0 0 0 .00365-.00372.42824.42824 0 0 0 .08243-.08243 6.1107 6.1107 0 0 1 4.33402-1.72685 9.84115 9.84115 0 0 1 4.12045.98516" class="cls-2"/><path d="M426.47382 33.32974h-.92087V22.36829h-4.39702v-.75255h9.70881v.75255h-4.39092zm-190.09634.8233h-3.92743v-7.52312l-3.51884 4.3519h-.31102l-3.53713-4.3519v7.52311h-3.80547V21.17238h3.54933l3.98842 4.86965 4.00062-4.86965h3.56152z" class="cls-2"/><path d="M253.89885 34.15404h-4.00434l-1.06754-2.62961h-5.6338l-1.07882 2.6296h-4.0044l5.74248-12.98309h4.37896zm-5.96348-4.89594l-1.90291-4.69359-1.92164 4.6936zm7.70155-8.08472h3.9067v12.97944h-3.9067z" class="cls-2"/><path d="M262.83277 21.17238h3.47615l6.70835 7.19318v-7.19318h3.90304v12.98065h-3.47615l-6.73884-7.23099v7.231h-3.87255zm26.64435-.00305v2.6071h-5.38498v2.5138h5.38498v2.6059h-5.38498v5.2569h-3.90913v-12.9837z" class="cls-2"/><path d="M304.68106 34.15221h-4.2029l-1.01888-2.34493a10.05399 10.05399 0 0 0-1.01137-1.84675 2.17771 2.17771 0 0 0-.87654-.7492 3.18018 3.18018 0 0 0-1.10505-.16482h-.43454v5.07194h-3.92195v-12.9459h6.65651a4.7983 4.7983 0 0 1 2.6409.65553 3.9417 3.9417 0 0 1 1.49084 1.58451 4.10203 4.10203 0 0 1 .4458 1.78302 3.30124 3.30124 0 0 1-.37458 1.6669 3.04468 3.04468 0 0 1-.79793.98516 8.90442 8.90442 0 0 1-.95143.5881 3.60354 3.60354 0 0 1 1.03388.86903 10.35647 10.35647 0 0 1 1.15 2.0078zm-5.31545-8.88551a1.31325 1.31325 0 0 0-.59936-1.24361 3.83157 3.83157 0 0 0-1.91413-.36335h-.82037v3.1353h.8353a4.38702 4.38702 0 0 0 1.97037-.3184 1.31057 1.31057 0 0 0 .5282-1.1725m21.3362 8.8499h-4.0044l-1.05632-2.62961h-5.6338l-1.07882 2.6296h-4.01562l5.7387-12.98309h4.33023zm-5.96348-4.89594l-1.90298-4.69359-1.91413 4.6936z" class="cls-2"/><path d="M337.5211 34.15303h-3.90914v-7.5231l-3.53103 4.35188h-.30492l-3.54933-4.35189v7.52311h-3.79937V21.17238h3.55543l3.98232 4.86965 4.01281-4.86965h3.54323zm12.89833-12.98065v2.60345h-5.7021v2.3711h5.44596v2.61503h-5.44596v2.76872h5.86676v2.62235h-9.7881V21.17238z" class="cls-2"/><path d="M172.68513 21.60638a6.72726 6.72726 0 0 1 4.91831 1.94786 6.62114 6.62114 0 0 1 .1948 9.3612.1146.1146 0 0 0-.03.03l-.16482.16107a7.1578 7.1578 0 0 1-9.81432 0 6.64188 6.64188 0 0 1-.12735-9.38742l.12735-.13112a6.75714 6.75714 0 0 1 4.89594-1.94786m0 12.47753a5.62233 5.62233 0 0 0 4.13173-1.6669 5.86785 5.86785 0 0 0 0-8.21468 5.97037 5.97037 0 0 0-8.27444 0 5.79455 5.79455 0 0 0-.015 8.20004l.015.015a5.64758 5.64758 0 0 0 4.14295 1.6669m9.39763-12.35001h3.60727a4.85477 4.85477 0 0 1 3.16902.92898 3.4229 3.4229 0 0 1-.07116 5.09444 4.91063 4.91063 0 0 1-3.25148.95143h-2.50221v6.09082h-1.00766zm1.01138.84659v5.28173h2.44233a3.9181 3.9181 0 0 0 2.48727-.69297 2.65065 2.65065 0 0 0 .14235-3.74217.54527.54527 0 0 0-.13112-.13111 3.4992 3.4992 0 0 0-2.34493-.71548z" class="cls-2"/><path d="M192.90737 27.84718h5.96434v.8477h-5.96434v5.31789h6.28146v.84769h-7.28771V21.76942h7.13524v.84647h-6.12899zm8.36105 7.01328V21.76942h.85379l9.91616 11.43225V21.76942h1.01235v13.09104h-.8355l-9.94055-11.45054v11.45054z" class="cls-2"/></g><g fill="#0033a1"><path d="M164.54973 106.82742l39.5134-45.97903h-38.2815V46.99321h58.60231v12.00795l-39.5134 45.97903h39.5134v13.85518h-59.83421zm67.93729-15.19136v-.20547c0-15.80487 12.72635-28.63368 29.86618-28.63368 17.03677 0 29.66006 12.62329 29.66006 28.42877v.20487c0 15.80548-12.72574 28.63428-29.86558 28.63428-17.03738 0-29.66066-12.62328-29.66066-28.42876zm44.13118 0v-.20547c0-8.10735-5.85017-15.18892-14.47113-15.18892-8.92942 0-14.26622 6.87605-14.26622 14.98401v.20487c0 8.10795 5.85017 15.18953 14.47113 15.18953 8.92882 0 14.26561-6.87606 14.26561-14.98401zm19.70791-27.81526h15.80549l8.82636 33.35514 10.36562-33.56066h13.44475l10.46808 33.66311 9.03187-33.45759h15.49751l-17.13922 55.42073h-14.0607l-10.57114-33.76556-10.77605 33.76556h-13.95825zm87.75132 27.81526v-.20547c0-15.70242 11.18709-28.63368 27.19748-28.63368 18.37112 0 26.78705 14.26561 26.78705 29.86558 0 1.23159-.10303 2.6687-.20547 4.10514H399.575c1.5389 7.08158 6.46563 10.77666 13.44475 10.77666 5.23373 0 9.03127-1.64196 13.34169-5.64471l8.92942 7.90244c-5.13188 6.36317-12.52083 10.26316-22.47602 10.26316-16.52388 0-28.73674-11.59752-28.73674-28.42877zm38.79439-4.61827c-.92368-6.97912-5.02888-11.69997-11.59752-11.69997-6.46624 0-10.6736 4.61827-11.90488 11.69997z" class="cls-1"/><path d="M39.56364 73.7323L66.02808 83.868l3.54323-30.52909z" class="cls-1"/></g></svg>