<svg xmlns="http://www.w3.org/2000/svg" role="img" xmlns:xlink="http://www.w3.org/1999/xlink" viewBox="-4.53 -4.53 248.82 61.07"><title>Abend Analyzer for Mainframe logo</title><path d="M237.32 9.09c-1.06 0-1.93-.86-1.93-1.92s.87-1.93 1.93-1.93 1.93.87 1.93 1.93-.87 1.92-1.93 1.92m0-4.32c-1.32 0-2.4 1.08-2.4 2.4 0 1.32 1.08 2.4 2.4 2.4 1.32 0 2.4-1.08 2.4-2.4 0-1.32-1.08-2.4-2.4-2.4"/><path d="M237.48 7.07l-.51.01-.01-.62h.51c.19-.01.34.11.34.3.01.19-.14.31-.33.31m.83-.32c-.01-.42-.3-.72-.77-.72l-1.07.02.03 2.26h.49l-.01-.81h.35l.46.8.55-.01-.52-.86c.24-.06.49-.28.49-.68M51.8341 23.1805h-5.999V9.3465h5.835c1.574 0 2.557 1.016 2.557 2.393 0 1.377-.983 2.36-2.557 2.36H45v4h6.8341c1.836 0 2.819 1.18 2.819 2.556 0 1.574-1.049 2.525-2.819 2.525m3.376-7.245c2.066-.426 3.771-2.262 3.771-5.015 0-2.918-2.131-5.573-6.295-5.573h-11.506v21.865h11.867c4.163 0 6.359-2.623 6.359-5.901 0-2.754-1.868-5.015-4.196-5.376m17.8225-.5902H68v4.098h3.5576l4.294 7.769h5.343l-4.917-8.327c2.361-.557 4.786-2.622 4.786-6.49m0 0c0-4.065-2.786-7.048-7.343-7.048h-10.228v21.865h4.655V9.4453h4.885c1.869 0 3.278 1.114 3.278 2.95s-1.409 2.95-3.278 2.95m43.4206 4.0652l3.409-9.408 3.41 9.408zm.492-14.063l-8.458 21.865h5.31l1.377-3.704h9.376l1.344 3.704h5.311l-8.425-21.865zm26.9039 17.7671h-3.967v-13.67h3.967c4.491 0 6.851 2.983 6.851 6.852 0 3.704-2.524 6.818-6.851 6.818m0-17.767h-8.622v21.865h8.622c6.851 0 11.604-4.327 11.604-10.916s-4.753-10.949-11.604-10.949m82.1269-.0045l-5.734 9.27-5.734-9.27h-5.146v21.869h4.656v-14.293l5.012 7.622c.574.871 1.851.871 2.424 0l5.013-7.622v14.293h4.656V5.3431z"/><path id="a" d="M95.8253 23.3441c-3.871 0-7.008-3.138-7.008-7.008 0-3.871 3.137-7.009 7.008-7.009 3.87 0 7.008 3.138 7.008 7.009 0 3.87-3.138 7.008-7.008 7.008m0-18.536c-6.367 0-11.528 5.161-11.528 11.528 0 6.366 5.161 11.527 11.528 11.527 6.366 0 11.528-5.161 11.528-11.527 0-6.367-5.162-11.528-11.528-11.528"/><path d="M176.4035 19.7269c-1.195 2.156-3.492 3.617-6.132 3.617-3.87 0-7.008-3.138-7.008-7.008 0-3.871 3.138-7.008 7.008-7.008 2.618 0 4.897 1.438 6.1 3.565l3.27-3.269c-2.092-2.915-5.508-4.816-9.37-4.816-6.367 0-11.527 5.161-11.527 11.528 0 6.366 5.16 11.528 11.527 11.528 3.883 0 7.316-1.922 9.404-4.865z"/><use transform="translate(98.718)" xlink:href="#a"/><ellipse cx="16.52" cy="16.497" fill="#cc092f" rx="16.236" ry="16.235"/><path fill="#fff" d="M30.8253 20.8832c-1.857-.74-3.557-.492-5.261.541 0 0-.621.379-.807.496-.794.498-1.543.97-2.263.97-.687 0-1.363-.184-1.649-1.513-.446-2.073-1.534-7.167-2.009-9.69-.279-1.483-.432-2.282-.591-2.825-.28-.954-.792-1.473-1.519-1.556 0 0-.114-.016-.207-.016-.092 0-.218.018-.218.018-.72.086-1.229.605-1.507 1.554-.159.543-.312 1.342-.591 2.825-.475 2.523-1.563 7.617-2.009 9.69-.286 1.329-.962 1.513-1.649 1.513-.72 0-1.469-.472-2.263-.97-.186-.117-.808-.496-.808-.496-1.703-1.033-3.404-1.281-5.26-.541-.401.16-.79596.33918-1.17196.52018.257.806.57693 1.59925.94993 2.34425.411-.202.84203-.40243 1.28203-.53243.634-.187 1.284-.197 1.914.014.612.205 1.157.568 1.7.909 1.023.643 2.182 1.372 3.657 1.372 2.186 0 3.72-1.305 4.21-3.581.38-1.764 1.222-5.702 1.763-8.418 0 0 1.386 6.654 1.765 8.418.49 2.276 2.025 3.581 4.211 3.581 1.475 0 2.634-.729 3.657-1.372.543-.341 1.088-.704 1.7-.909.629-.211 1.28-.201 1.914-.014.44.13.87039.33065 1.28139.53265.374-.745.69309-1.53862.95009-2.34462-.376-.181-.77048-.36003-1.17148-.52003"/><g text-anchor="middle"><path d="M55.10092 50h-1.03027l-.7129-2.02637h-3.14452L49.50033 50h-.98144l2.64649-7.2705h1.28906zm-2.04101-2.85644l-1.27442-3.56934-1.2793 3.56934z"/><path d="M60.931 47.23145q0 .68359-.19531 1.23046-.19043.54688-.51758.91797-.34668.38574-.76172.58106-.41504.19043-.91309.19043-.46386 0-.81054-.1123-.34668-.10743-.6836-.29298L56.99057 50h-.85938v-7.59766h.91797v2.71485q.38575-.31738.82032-.51758.43457-.20508.97656-.20508.9668 0 1.52344.74219.56152.74219.56152 2.09473zm-.94727.0244q0-.97656-.32226-1.47949-.32227-.5078-1.04004-.5078-.4004 0-.81055.17577-.41015.1709-.76172.44434v3.125q.39063.17578.66895.24414.2832.06836.63965.06836.76172 0 1.1914-.49805.43457-.50293.43457-1.57226z"/><path d="M66.9271 47.36816h-4.01856q0 .50293.15137.87891.15136.3711.41503.61035.25391.23438.6006.35156.35155.1172.77147.1172.55665 0 1.11817-.21974.5664-.2246.80566-.43945h.04883v1.00098q-.46386.19531-.94726.32715-.4834.13183-1.01563.13183-1.35742 0-2.11914-.73242-.76172-.7373-.76172-2.08984 0-1.3379.72754-2.12403.73242-.78613 1.92383-.78613 1.10352 0 1.69922.64453.60059.64453.60059 1.83106zm-.89356-.70312q-.0049-.72266-.36621-1.11816-.35645-.39551-1.08887-.39551-.7373 0-1.17676.43457-.43457.43457-.49316 1.0791z"/><path d="M72.87924 50h-.91797v-3.10547q0-.37598-.04395-.70312-.04394-.33203-.16113-.51758-.12207-.20508-.35156-.30274-.2295-.10254-.5957-.10254-.37598 0-.78614.18555-.41015.18555-.78613.47363V50h-.91797v-5.4541h.91797v.60547q.42969-.35645.88867-.55664.45898-.2002.94238-.2002.8838 0 1.34766.53223.46387.53222.46387 1.5332z"/><path d="M79.07065 50h-.91797v-.57129q-.3955.3418-.8252.53223-.42968.19043-.93261.19043-.97657 0-1.55274-.75196-.57129-.75195-.57129-2.08496 0-.69336.19532-1.23535.2002-.542.5371-.92285.33204-.3711.77149-.5664.44434-.19532.91797-.19532.42969 0 .76172.09277.33203.0879.69824.27832v-2.36328h.91797zm-.91797-1.34277v-3.12989q-.3711-.16601-.66406-.22949-.29297-.06348-.63965-.06348-.77149 0-1.20117.53711-.4297.53711-.4297 1.52344 0 .97168.33204 1.4795.33203.50292 1.06445.50292.39063 0 .79102-.1709.40039-.17578.74707-.44922z"/><path d="M90.19858 50H89.1683l-.71289-2.02637h-3.14453L84.598 50h-.98144l2.64648-7.2705h1.28906zm-2.04102-2.85644l-1.27441-3.56934-1.2793 3.56934z"/><path d="M95.7894 50h-.91797v-3.10547q0-.37598-.04395-.70312-.04394-.33203-.16113-.51758-.12207-.20508-.35157-.30274-.22949-.10254-.5957-.10254-.37598 0-.78613.18555-.41016.18555-.78614.47363V50h-.91796v-5.4541h.91796v.60547q.4297-.35645.88868-.55664.45898-.2002.94238-.2002.88379 0 1.34766.53223.46386.53222.46386 1.5332z"/><path d="M101.79526 50h-.91309v-.58105q-.12207.083-.33203.23437-.20508.14649-.40039.23438-.2295.1123-.52734.18554-.29786.07813-.69825.07813-.7373 0-1.25-.48828t-.5127-1.24512q0-.62011.26368-1.00097.26856-.38574.76172-.60547.49805-.21973 1.19629-.29785.69824-.07813 1.49902-.1172v-.1416q0-.3125-.1123-.51757-.10742-.20508-.3125-.32227-.19532-.1123-.46875-.15136-.27344-.03906-.5713-.03906-.36132 0-.80566.09766-.44433.09277-.91796.27343h-.04884v-.93261q.26856-.07324.77637-.16114.50782-.08789 1.00098-.08789.57617 0 1.00098.09766.42968.09277.74218.32227.30762.2246.46875.58105.16114.35645.16114.8838zm-.91309-1.34277v-1.51856q-.41992.02441-.9912.07324-.56642.04883-.89845.1416-.3955.1123-.63964.35157-.24415.23437-.24415.64941 0 .46875.2832.708.28321.23438.86427.23438.4834 0 .88378-.18554.40039-.19043.74219-.4541z"/><path d="M104.49057 50h-.91797v-7.59766h.91797z"/><path d="M111.02377 44.5459l-3.18359 7.46582h-.98145l1.01563-2.2754-2.17285-5.19042h.99609l1.67481 4.04297 1.68945-4.04297z"/><path d="M116.18002 50h-4.40429v-.67871l3.17871-4.00879h-3.11035v-.7666h4.25293v.6543l-3.19336 4.02343h3.27636z"/><path d="M121.98569 47.36816h-4.01856q0 .50293.15137.87891.15137.3711.41504.61035.25391.23438.60058.35156.35157.1172.77149.1172.55664 0 1.11816-.21974.56641-.2246.80567-.43945h.0488v1.00098q-.46387.19531-.94727.32715-.4834.13183-1.01563.13183-1.35742 0-2.11914-.73242-.76171-.7373-.76171-2.08984 0-1.3379.72753-2.12403.73243-.78613 1.92383-.78613 1.10352 0 1.69922.64453.60059.64453.60059 1.83106zm-.89356-.70312q-.005-.72266-.36621-1.11816-.35644-.39551-1.08887-.39551-.7373 0-1.17675.43457-.43457.43457-.49317 1.0791z"/><path d="M126.78061 45.54688h-.0488q-.20508-.04884-.40039-.06837-.19043-.0244-.4541-.0244-.42481 0-.82031.19042-.39551.18555-.76172.4834V50h-.91797v-5.4541h.91797v.80566q.54687-.43945.96191-.62011.41992-.18555.85449-.18555.23926 0 .34668.01465.10743.0098.32227.04395z"/><path d="M134.09506 43.29102h-.0488q-.15136-.04395-.3955-.0879-.24414-.04882-.42969-.04882-.59082 0-.85938.26367-.26367.25879-.26367.94238v.18555h1.65528v.77148h-1.62598V50h-.91797v-4.68262h-.62012v-.77148h.62012v-.18067q0-.97167.4834-1.48925.4834-.52246 1.39648-.52246.30762 0 .55176.0293.24902.0293.4541.06836z"/><path d="M139.32455 47.2754q0 1.333-.68359 2.10448-.68359.77149-1.83105.77149-1.15723 0-1.84082-.77149-.67872-.77148-.67872-2.10449 0-1.333.67872-2.1045.68359-.77636 1.84082-.77636 1.14746 0 1.83105.77637.68359.77148.68359 2.1045zm-.94726 0q0-1.05958-.41504-1.57227-.41504-.51758-1.15234-.51758-.74707 0-1.16211.51758-.41016.51269-.41016 1.57226 0 1.0254.41504 1.55762.41504.52734 1.15723.52734.73242 0 1.14746-.52246.41992-.52734.41992-1.5625z"/><path d="M144.14877 45.54688h-.0488q-.20508-.04884-.4004-.06837-.19043-.0244-.4541-.0244-.4248 0-.82031.19042-.39551.18555-.76172.4834V50h-.91797v-5.4541h.91797v.80566q.54688-.43945.96192-.62011.41992-.18555.85449-.18555.23926 0 .34668.01465.10742.0098.32226.04395z"/><path d="M155.07651 50h-.9668v-6.26465l-2.02148 4.2627h-.57618l-2.00683-4.2627V50h-.90332v-7.2705h1.31836l1.93847 4.04784 1.875-4.04785h1.34278z"/><path d="M161.19467 50h-.91308v-.58105q-.12207.083-.33204.23437-.20507.14649-.40039.23438-.22949.1123-.52734.18554-.29785.07813-.69824.07813-.73731 0-1.25-.48828-.5127-.48828-.5127-1.24512 0-.62011.26367-1.00097.26856-.38574.76172-.60547.49805-.21973 1.19629-.29785.69824-.07813 1.49903-.1172v-.1416q0-.3125-.11231-.51757-.10742-.20508-.3125-.32227-.19531-.1123-.46875-.15136t-.57129-.03906q-.36133 0-.80566.09766-.44434.09277-.91797.27343h-.0488v-.93261q.26856-.07324.77637-.16114.50781-.08789 1.00097-.08789.57618 0 1.00098.09766.42969.09277.74219.32227.30762.2246.46875.58105.16113.35645.16113.8838zm-.91308-1.34277v-1.51856q-.41993.02441-.99122.07324-.5664.04883-.89843.1416-.39551.1123-.63965.35157-.24414.23437-.24414.64941 0 .46875.2832.708.2832.23438.86426.23438.4834 0 .88379-.18554.40039-.19043.74219-.4541z"/><path d="M163.94858 43.63281h-1.03516v-.95215h1.03516zM163.88998 50h-.91796v-5.4541h.91796z"/><path d="M170.26694 50h-.91797v-3.10547q0-.37598-.0439-.70312-.0439-.33203-.16113-.51758-.12207-.20508-.35156-.30274-.22949-.10254-.59571-.10254-.37597 0-.78613.18555-.41015.18555-.78613.47363V50h-.91797v-5.4541h.91797v.60547q.42969-.35645.88867-.55664.45899-.2002.94238-.2002.88379 0 1.34766.53223.46387.53222.46387 1.5332z"/><path d="M174.96909 43.29102h-.0488q-.15137-.04395-.39551-.0879-.24414-.04882-.42969-.04882-.59082 0-.85937.26367-.26367.25879-.26367.94238v.18555h1.65527v.77148h-1.62598V50h-.91797v-4.68262h-.62011v-.77148h.62011v-.18067q0-.97167.4834-1.48925.4834-.52246 1.39649-.52246.30761 0 .55175.0293.24903.0293.45411.06836z"/><path d="M178.95346 45.54688h-.0488q-.20508-.04884-.40039-.06837-.19043-.0244-.4541-.0244-.4248 0-.82031.19042-.39551.18555-.76172.4834V50h-.91797v-5.4541h.91797v.80566q.54687-.43945.96191-.62011.41993-.18555.8545-.18555.23925 0 .34668.01465.10742.0098.32226.04395z"/><path d="M183.88022 50h-.91309v-.58105q-.12207.083-.33203.23437-.20508.14649-.40039.23438-.22949.1123-.52734.18554-.29785.07813-.69825.07813-.7373 0-1.25-.48828-.51269-.48828-.51269-1.24512 0-.62011.26367-1.00097.26856-.38574.76172-.60547.49805-.21973 1.19629-.29785.69824-.07813 1.49902-.1172v-.1416q0-.3125-.1123-.51757-.10742-.20508-.3125-.32227-.19531-.1123-.46875-.15136t-.57129-.03906q-.36133 0-.80567.09766-.44433.09277-.91796.27343h-.0488v-.93261q.26855-.07324.77637-.16114.50781-.08789 1.00097-.08789.57617 0 1.00098.09766.42969.09277.74219.32227.30761.2246.46875.58105.16113.35645.16113.8838zm-.91309-1.34277v-1.51856q-.41992.02441-.99121.07324-.5664.04883-.89844.1416-.3955.1123-.63964.35157-.24414.23437-.24414.64941 0 .46875.2832.708.2832.23438.86426.23438.48339 0 .88379-.18554.40039-.19043.74218-.4541z"/><path d="M193.60678 50h-.91797v-3.10547q0-.35156-.0342-.67871-.0293-.32715-.13183-.52246-.11231-.20996-.32227-.31738-.20996-.10742-.60547-.10742-.38574 0-.77148.1953-.38574.19044-.77149.48829.0147.1123.0244.26367.01.14649.01.29297V50h-.91797v-3.10547q0-.36133-.0342-.6836-.0293-.32714-.13183-.52245-.11231-.20996-.32227-.3125-.20996-.10742-.60547-.10742-.37597 0-.75683.18554-.37598.18555-.75195.47363V50h-.91797v-5.4541h.91797v.60547q.42968-.35645.85449-.55664.42969-.2002.91308-.2002.55664 0 .94239.23438.39062.23437.58105.64941.55664-.46875 1.01563-.67383.45898-.20996.98144-.20996.89844 0 1.32324.54688.42969.54199.42969 1.51855z"/><path d="M199.93979 47.36816h-4.01856q0 .50293.15137.87891.15137.3711.41504.61035.25391.23438.60059.35156.35156.1172.77148.1172.55664 0 1.11816-.21974.56641-.2246.80567-.43945h.0488v1.00098q-.46387.19531-.94727.32715-.4834.13183-1.01562.13183-1.35743 0-2.11914-.73242-.76172-.7373-.76172-2.08984 0-1.3379.72754-2.12403.73242-.78613 1.92382-.78613 1.10352 0 1.69922.64453.60059.64453.60059 1.83106zm-.89356-.70312q-.005-.72266-.36621-1.11816-.35644-.39551-1.08886-.39551-.73731 0-1.17676.43457-.43457.43457-.49317 1.0791z"/></g></svg>