<svg xmlns="http://www.w3.org/2000/svg" role="img" xmlns:xlink="http://www.w3.org/1999/xlink" viewBox="-9.54 -9.29 249.08 59.33"><title>Alert Central logo</title><path d="M232.506 4.298c-1.06 0-1.93-.86-1.93-1.92s.87-1.93 1.93-1.93 1.93.87 1.93 1.93-.87 1.92-1.93 1.92m0-4.32c-1.32 0-2.4 1.08-2.4 2.4 0 1.32 1.08 2.4 2.4 2.4 1.32 0 2.4-1.08 2.4-2.4 0-1.32-1.08-2.4-2.4-2.4"/><path d="M232.666 2.278l-.51.01-.01-.62h.51c.19-.01.34.11.34.3.01.19-.14.31-.33.31m.83-.32c-.01-.42-.3-.72-.77-.72l-1.07.02.03 2.26h.49l-.01-.81h.35l.46.8.55-.01-.52-.86c.24-.06.49-.28.49-.68M47.0201 18.3885h-5.999V4.5545h5.835c1.574 0 2.557 1.016 2.557 2.393 0 1.377-.983 2.36-2.557 2.36H40.186v4h6.8341c1.836 0 2.819 1.18 2.819 2.556 0 1.574-1.049 2.525-2.819 2.525m3.376-7.245c2.066-.426 3.771-2.262 3.771-5.015 0-2.918-2.131-5.573-6.295-5.573h-11.506v21.865h11.867c4.163 0 6.359-2.623 6.359-5.901 0-2.754-1.868-5.015-4.196-5.376m17.8225-.5902H63.186v4.098h3.5576l4.294 7.769h5.343l-4.917-8.327c2.361-.557 4.786-2.622 4.786-6.49m0 0c0-4.065-2.786-7.048-7.343-7.048h-10.228v21.865h4.655V4.6533h4.885c1.869 0 3.278 1.114 3.278 2.95s-1.409 2.95-3.278 2.95m43.4206 4.0652l3.409-9.408 3.41 9.408zm.492-14.063l-8.458 21.865h5.31l1.377-3.704h9.376l1.344 3.704h5.311l-8.425-21.865zm26.9039 17.7671h-3.967v-13.67h3.967c4.491 0 6.851 2.983 6.851 6.852 0 3.704-2.524 6.818-6.851 6.818m0-17.767h-8.622v21.865h8.622c6.851 0 11.604-4.327 11.604-10.916s-4.753-10.949-11.604-10.949M221.162.5511l-5.734 9.27-5.734-9.27h-5.146v21.869h4.656V8.1271l5.012 7.622c.574.871 1.851.871 2.424 0l5.013-7.622v14.293h4.656V.5511z"/><path id="a" d="M91.0113 18.5521c-3.871 0-7.008-3.138-7.008-7.008 0-3.871 3.137-7.009 7.008-7.009 3.87 0 7.008 3.138 7.008 7.009 0 3.87-3.138 7.008-7.008 7.008m0-18.536c-6.367 0-11.528 5.161-11.528 11.528 0 6.366 5.161 11.527 11.528 11.527 6.366 0 11.528-5.161 11.528-11.527 0-6.367-5.162-11.528-11.528-11.528"/><path d="M171.5895 14.9349c-1.195 2.156-3.492 3.617-6.132 3.617-3.87 0-7.008-3.138-7.008-7.008 0-3.871 3.138-7.008 7.008-7.008 2.618 0 4.897 1.438 6.1 3.565l3.27-3.269c-2.092-2.915-5.508-4.816-9.37-4.816-6.367 0-11.527 5.161-11.527 11.528 0 6.366 5.16 11.528 11.527 11.528 3.883 0 7.316-1.922 9.404-4.865z"/><use transform="translate(98.718)" xlink:href="#a"/><ellipse cx="11.706" cy="11.705" fill="#cc092f" rx="16.236" ry="16.235"/><path fill="#fff" d="M26.0113 16.0912c-1.857-.74-3.557-.492-5.261.541 0 0-.621.379-.807.496-.794.498-1.543.97-2.263.97-.687 0-1.363-.184-1.649-1.513-.446-2.073-1.534-7.167-2.009-9.69-.279-1.483-.432-2.282-.591-2.825-.28-.954-.792-1.473-1.519-1.556 0 0-.114-.016-.207-.016-.092 0-.218.018-.218.018-.72.086-1.229.605-1.507 1.554-.159.543-.312 1.342-.591 2.825-.475 2.523-1.563 7.617-2.009 9.69-.286 1.329-.962 1.513-1.649 1.513-.72 0-1.469-.472-2.263-.97-.186-.117-.808-.496-.808-.496-1.703-1.033-3.404-1.281-5.26-.541-.401.16-.79596.33918-1.17196.52018.257.806.57693 1.59925.94993 2.34425.411-.202.84203-.40243 1.28203-.53243.634-.187 1.284-.197 1.914.014.612.205 1.157.568 1.7.909 1.023.643 2.182 1.372 3.657 1.372 2.186 0 3.72-1.305 4.21-3.581.38-1.764 1.222-5.702 1.763-8.418 0 0 1.386 6.654 1.765 8.418.49 2.276 2.025 3.581 4.211 3.581 1.475 0 2.634-.729 3.657-1.372.543-.341 1.088-.704 1.7-.909.629-.211 1.28-.201 1.914-.014.44.13.87039.33065 1.28139.53265.374-.745.69309-1.53862.95009-2.34462-.376-.181-.77048-.36003-1.17148-.52003"/><path d="M94.64971 45.208h-1.03027l-.7129-2.02637h-3.14452l-.7129 2.02637h-.98144l2.64649-7.2705h1.28906zm-2.04101-2.85644l-1.27442-3.56934-1.2793 3.56933zm3.99902 2.85644h-.91797v-7.59766h.91797zm6.38184-2.63184H98.971q0 .50293.15137.87891.15136.3711.41504.61035.2539.23438.60058.35156.35157.1172.77149.1172.55664 0 1.11816-.21974.56641-.2246.80567-.43945h.0488v1.00098q-.46386.19531-.94726.32715-.4834.13183-1.01563.13183-1.35742 0-2.11914-.73242-.76172-.7373-.76172-2.08984 0-1.3379.72754-2.12403.73242-.78613 1.92383-.78613 1.10352 0 1.69922.64453.60059.64453.60059 1.83106zm-.89356-.70312q-.005-.72266-.36621-1.11817-.35645-.3955-1.08887-.3955-.7373 0-1.17675.43457-.43458.43457-.49317 1.0791zm5.68848-1.11817h-.0488q-.20508-.04882-.40039-.06835-.19043-.02442-.4541-.02442-.42481 0-.82032.19043-.3955.18555-.76171.4834V45.208h-.91797v-5.4541h.91797v.80566q.54687-.43945.96191-.62012.41992-.18554.85449-.18554.23926 0 .34668.01465.10742.0098.32227.04395zm3.69629 4.4043q-.25879.06836-.56641.1123-.30273.04396-.54199.04396-.83496 0-1.26953-.44922t-.43457-1.44043v-2.9004h-.62012v-.77148h.62012v-1.56738h.91797v1.56738h1.89453v.77149h-1.89453v2.48535q0 .42969.0195.67383.0195.23925.13672.44922.10742.1953.29296.28808.19043.0879.57618.0879.22461 0 .46875-.06349.24414-.06836.35156-.1123h.0488zm10.3125-.47851q-.26856.11718-.48828.21972-.21485.10254-.56641.21485-.29785.09277-.64942.15625-.34667.06836-.7666.06836-.79101 0-1.44043-.21973-.64453-.2246-1.12304-.69824-.46875-.46387-.73243-1.17676-.26367-.71777-.26367-1.66504 0-.89844.25391-1.60644.25391-.70801.73242-1.1963.46387-.47363 1.11817-.72265.65917-.24902 1.45996-.24902.58593 0 1.16699.1416.58594.1416 1.29883.49805v1.14746h-.0733q-.60058-.50293-1.1914-.73243-.59082-.22949-1.26465-.22949-.55176 0-.99609.18067-.43946.17578-.78614.55175-.33691.36622-.52734.92774-.18555.55664-.18555 1.28906 0 .7666.20508 1.31836.20996.55176.53711.89844.3418.36133.7959.5371.45898.1709.9668.1709.69824 0 1.30859-.23925.61035-.23926 1.14258-.71778h.0684zm5.85937-2.1045h-4.01855q0 .50293.15136.87891.15137.3711.41504.61035.25391.23438.60059.35156.35156.1172.77148.1172.55664 0 1.11817-.21974.5664-.2246.80566-.43945h.0488v1.00098q-.46387.19531-.94727.32715-.48339.13183-1.01562.13183-1.35742 0-2.11914-.73242-.76172-.7373-.76172-2.08984 0-1.3379.72754-2.12403.73242-.78613 1.92383-.78613 1.10351 0 1.69922.64453.60058.64453.60058 1.83106zm-.89355-.70312q-.005-.72266-.36621-1.11817-.35645-.3955-1.08887-.3955-.73731 0-1.17676.43457-.43457.43457-.49316 1.0791zm6.8457 3.33496h-.91797v-3.10547q0-.37598-.0439-.70312-.0439-.33204-.16114-.51758-.12207-.20508-.35156-.30274-.22949-.10254-.5957-.10254-.37598 0-.78614.18555-.41015.18555-.78613.47363V45.208h-.91797v-5.4541h.91797v.60547q.42969-.35645.88867-.55664.45899-.2002.94239-.2002.88379 0 1.34765.53223.46387.53222.46387 1.5332zm4.59961-.04883q-.25879.06836-.56641.1123-.30273.04395-.54199.04395-.83496 0-1.26953-.44921-.43457-.44922-.43457-1.44043v-2.9004h-.62012v-.77148h.62012v-1.56738h.91797v1.56738h1.89453v.77149h-1.89453v2.48535q0 .42968.0195.67383.0195.23925.13672.44921.10742.19532.29297.28809.19043.08789.57617.08789.22461 0 .46875-.06348.24414-.06836.35156-.1123h.0488zm4.51172-4.4043h-.0488q-.20508-.04883-.40039-.06836-.19043-.0244-.4541-.0244-.42481 0-.82031.19042-.39551.18555-.76172.4834V45.208h-.91797v-5.4541h.91797v.80566q.54687-.43945.96191-.62012.41992-.18554.85449-.18554.23926 0 .34668.01465.10742.0098.32227.04395zm4.92676 4.45313h-.91309v-.58106q-.12207.08301-.33203.23438-.20508.14648-.40039.23437-.22949.1123-.52735.18555-.29785.07813-.69824.07813-.7373 0-1.25-.48828-.51269-.48828-.51269-1.24512 0-.62012.26367-1.00098.26855-.38574.76172-.60546.49804-.21973 1.19629-.29786.69824-.07813 1.49902-.11718v-.1416q0-.3125-.1123-.51758-.10743-.20508-.3125-.32227-.19532-.1123-.46875-.15137-.27344-.03906-.57129-.03906-.36133 0-.80567.09767-.44433.09276-.91797.27343h-.0488v-.93262q.26855-.07324.77636-.16113.50781-.08789 1.00098-.08789.57617 0 1.00098.09766.42968.09277.74218.32227.30762.2246.46875.58105.16114.35645.16114.8838zm-.91309-1.34278v-1.51855q-.41992.02441-.99121.07324-.56641.04883-.89844.1416-.39551.1123-.63965.35156-.24414.23438-.24414.64942 0 .46875.28321.708.2832.23438.86425.23438.4834 0 .88379-.18555.40039-.19043.74219-.4541zm3.6084 1.34278h-.91797v-7.59766h.91797z" text-anchor="middle"/></svg>