<svg xmlns="http://www.w3.org/2000/svg" role="img" viewBox="-13.30 -13.30 691.60 188.10"><title>Alpine Linux logo</title><defs><clipPath clipPathUnits="userSpaceOnUse"><path d="M0 560h960V0H0v560z"/></clipPath></defs><g fill="#0d597f" fill-opacity="1" transform="matrix(1.25 0 0 -1.25 -267.557 592.225)"><path fill="#0d597f" fill-opacity="1" fill-rule="nonzero" stroke="none" d="M686.784 397.958c-3.74 6.413-3.73 19.372.023 26.161 1.64 2.969 6.622 9.559 28.367 9.559 4.468 0 7.739-.229 10.148-.554 5.278-.71 9.297-2.509 9.297-7.425 0-6.49-9.565-6.55-9.565-6.55h-20.27c-8.608 0-9.266-11.904-9.266-11.904h29.536c10.375 0 21.125 4.649 21.125 18.258 0 9.047-5.207 15.135-13.71 17.468-8.498 2.332-11.809 2.206-23.391 1.998-9.274-.166-14.615-2.201-17.989-3.259-5.914-1.856-11.212-5.32-14.785-11.786-5.817-10.528-5.764-27.936.115-38.013 6.285-10.774 17.061-16.54 30.088-16.55h39.672l.001 11.943h-39.714c-11.436-.034-17.111 6.246-19.682 10.654"/><path fill="#0d597f" fill-opacity="1" fill-rule="nonzero" stroke="none" d="M441.93 442.965c-10.527 5.817-27.936 5.764-38.013-.115-14.384-8.391-19.841-24.786-14.594-43.858 2.693-9.79 9.965-17.002 21.03-20.855 7.818-2.723 15.012-2.801 15.31-2.803l-.015 12c-.207.001-20.756.305-24.755 14.842-5.16 18.758 3.468 27.041 9.071 30.309 6.413 3.74 19.372 3.73 26.161-.023 7.212-3.985 7.733-12.297 7.733-25.513v-24.358c0-8.608 12-9.171 12-9.171V406.949c0 12.618 0 28.319-13.928 36.016"/><path fill="#0d597f" fill-opacity="1" fill-rule="nonzero" stroke="none" d="M597.61 375.366v37.405c.011 13.027 5.776 23.803 16.55 30.088 10.078 5.878 27.486 5.932 38.013.115 13.928-7.697 13.928-23.399 13.928-36.016V373.468s-12 .563-12 9.171v24.319c0 13.216-.521 21.528-7.733 25.513-6.789 3.753-19.748 3.763-26.161.023-4.408-2.571-10.688-8.246-10.654-19.682v-37.447l-11.943.001z"/><path fill="#0d597f" fill-opacity="1" fill-rule="nonzero" stroke="none" d="M579.83 375.366v56.733s11.904-.658 11.904-9.267v-47.466H579.83z"/><path fill="#0d597f" fill-opacity="1" fill-rule="nonzero" stroke="none" d="M591.735 443.852v-11.199s-11.904.658-11.904 9.267v1.932h11.904z"/><path fill="#0d597f" fill-opacity="1" fill-rule="nonzero" stroke="none" d="M519.393 442.68c10.527 5.817 27.936 5.764 38.013-.115 14.384-8.391 19.841-24.786 14.594-43.858-2.693-9.79-9.965-17.002-21.03-20.855-7.818-2.723-15.007-2.447-15.305-2.449l.01 11.899c.207.001 20.756.052 24.755 14.589 5.16 18.758-3.468 27.041-9.071 30.309-6.413 3.74-19.372 3.73-26.161-.023-7.212-3.985-7.733-12.297-7.733-25.513v-12.612c0-8.608-12-9.17-12-9.17v21.782c0 12.618 0 28.319 13.928 36.016"/><path fill="#0d597f" fill-opacity="1" fill-rule="nonzero" stroke="none" d="M517.37 344.628v39.675s-11.904-.658-11.904-9.266v-30.409h11.904z"/><path fill="#0d597f" fill-opacity="1" fill-rule="nonzero" stroke="none" d="M473.349 473.78v-41.529s-11.904.658-11.904 9.266v32.263h11.904z"/><path fill="#0d597f" fill-opacity="1" fill-rule="nonzero" stroke="none" d="M474.96 402.145c-1.039 3.777-1.519 7.129-1.577 10.101l-.034 10.255c0 8.608-11.913 9.171-11.913 9.171V412.308c.037-4.24.68-8.714 1.954-13.347 2.693-9.79 9.966-17.002 21.03-20.855 7.818-2.723 14.992-2.743 15.289-2.745l.006 11.942c-.207.001-20.756.305-24.755 14.842"/><path fill="#0d597f" fill-opacity="1" fill-rule="nonzero" stroke="none" d="M268.14 393.272v15.687l-11.296-11.308c1.217-.847 2.364-1.543 3.443-2.109 1.079-.567 2.089-1.005 3.03-1.338.941-.334 1.814-.562 2.617-.71.804-.147 1.539-.213 2.206-.222m57.751 1.304c.02-.017.13-.11.333-.239.204-.13.502-.297.898-.462.395-.164.889-.327 1.485-.448.596-.122 1.294-.202 2.098-.202.671 0 1.411.059 2.222.2.812.142 1.693.367 2.645.699.953.333 1.976.773 3.07 1.344 1.094.572 2.259 1.276 3.495 2.136l-8.572 8.397-28.41 28.516-12.466-12.469-16.816 17.341-42.204-41.727c1.235-.86 2.398-1.564 3.491-2.136 1.093-.571 2.115-1.011 3.067-1.344.951-.332 1.832-.557 2.643-.698.81-.142 1.55-.201 2.22-.201.804 0 1.502.08 2.097.202.596.121 1.089.284 1.485.449.396.164.693.331.897.461.204.13.314.223.334.24l19.052 19.052 6.813 6.533 18.866-18.866 6.591-6.778c.02-.017.13-.11.334-.239.204-.13.501-.297.897-.462.396-.164.89-.327 1.485-.448.596-.122 1.295-.202 2.099-.202.67 0 1.411.059 2.222.2.811.142 1.693.367 2.645.699.952.333 1.975.773 3.069 1.344 1.094.572 2.259 1.276 3.495 2.136l-15.139 14.825 2.818 2.818 13.101-13.101 7.64-7.57m-.163 79.016l37.219-64.482-37.219-64.482h-74.463l-37.219 64.482 37.219 64.482h74.463z"/><path fill="#0d597f" fill-opacity="1" fill-rule="nonzero" stroke="none" d="M302.504 412.251l-9.913 9.895.705.709 9.983-9.874-.775-.73z"/><path fill="#0d597f" fill-opacity="1" fill-rule="nonzero" stroke="none" d="M528.434 353.235v22.161h-2v-22.161c0-4.295 3.35-8.885 12.75-8.885h15.25v2h-15.25c-9.975 0-10.75 5.27-10.75 6.885"/><path fill-rule="nonzero" stroke="none" d="M561.073 344.35h2v22.787h-2V344.35z"/><path fill-rule="nonzero" stroke="none" d="M561.073 368.358h2v2.992h-2v-2.992z"/><path fill="#0d597f" fill-opacity="1" fill-rule="nonzero" stroke="none" d="M664.623 367.137h-2.634l-8.469-9.888-8.481 9.888h-2.634l9.796-11.428-9.729-11.359h2.62l8.422 9.827 8.423-9.827h2.647l-9.75 11.367 9.789 11.42z"/><path fill="#0d597f" fill-opacity="1" fill-rule="nonzero" stroke="none" d="M634.353 353.11c0-.691-.366-6.76-13.063-6.76-12.574 0-12.937 6.069-12.937 6.76v14.027h-2V353.11c0-.896.419-8.76 14.937-8.76 14.64 0 15.063 7.864 15.063 8.76v14.027h-2V353.11z"/><path fill="#0d597f" fill-opacity="1" fill-rule="nonzero" stroke="none" d="M584.776 367.137c-14.64 0-15.063-7.863-15.063-8.76V344.35h2v14.027c0 .692.367 6.76 13.063 6.76 12.574 0 12.938-6.068 12.938-6.76V344.35h2v14.027c0 .897-.419 8.76-14.938 8.76"/></g></svg>