<svg xmlns="http://www.w3.org/2000/svg" role="img" xmlns:xlink="http://www.w3.org/1999/xlink" viewBox="-5.20 -5.20 270.66 98.66"><title>Apache JMeter logo</title><defs><linearGradient id="k" x1="-7708.797" x2="-7633.153" y1="-803.36" y2="-714.907" gradientTransform="rotate(-65.001 -3054.253 -6609.844)" gradientUnits="userSpaceOnUse" xlink:href="#a"/><linearGradient id="l" x1="-8268.639" x2="-7728.958" y1="-813.123" y2="-813.123" gradientTransform="rotate(-65.001 -3054.253 -6609.844)" gradientUnits="userSpaceOnUse" xlink:href="#b"/><linearGradient id="m" x1="-8203.492" x2="-7881.895" y1="-758.994" y2="-758.994" gradientTransform="rotate(-65.001 -3054.253 -6609.844)" gradientUnits="userSpaceOnUse" xlink:href="#c"/><linearGradient id="n" x1="-8238.328" x2="-7698.647" y1="-818.152" y2="-818.152" gradientTransform="rotate(-65.001 -3054.253 -6609.844)" gradientUnits="userSpaceOnUse" xlink:href="#d"/><linearGradient id="o" x1="-8198.968" x2="-7915.35" y1="-810.851" y2="-810.851" gradientTransform="rotate(-65.001 -3054.253 -6609.844)" gradientUnits="userSpaceOnUse" xlink:href="#e"/><linearGradient id="p" x1="-8238.328" x2="-7698.647" y1="-762.297" y2="-762.297" gradientTransform="rotate(-65.001 -3054.253 -6609.844)" gradientUnits="userSpaceOnUse" xlink:href="#f"/><linearGradient id="q" x1="-8271.806" x2="-7732.125" y1="-765.071" y2="-765.071" gradientTransform="rotate(-65.001 -3054.253 -6609.844)" gradientUnits="userSpaceOnUse" xlink:href="#g"/><linearGradient id="r" x1="-8238.328" x2="-7698.647" y1="-745.685" y2="-745.685" gradientTransform="rotate(-65.001 -3054.253 -6609.844)" gradientUnits="userSpaceOnUse" xlink:href="#h"/><linearGradient id="s" x1="-8238.328" x2="-7698.647" y1="-747.586" y2="-747.586" gradientTransform="rotate(-65.001 -3054.253 -6609.844)" gradientUnits="userSpaceOnUse" xlink:href="#i"/><linearGradient id="t" x1="-7935.143" x2="-7815.856" y1="-747.967" y2="-747.967" gradientTransform="rotate(-65.001 -3054.253 -6609.844)" gradientUnits="userSpaceOnUse" xlink:href="#j"/><linearGradient x1="580.104" x2="634.469" y1="215.967" y2="215.967" gradientUnits="userSpaceOnUse" xlink:href="#e"/><linearGradient x1="496.007" x2="574.7" y1="216.752" y2="216.752" gradientUnits="userSpaceOnUse" xlink:href="#e"/><linearGradient x1="433.142" x2="491.823" y1="208.237" y2="208.237" gradientUnits="userSpaceOnUse" xlink:href="#e"/><linearGradient x1="351.912" x2="430.605" y1="216.752" y2="216.752" gradientUnits="userSpaceOnUse" xlink:href="#e"/><linearGradient x1="225.437" x2="344.311" y1="203.293" y2="203.293" gradientUnits="userSpaceOnUse" xlink:href="#e"/></defs><g transform="translate(-433.588 -211.853)"><g transform="translate(427.125 209.046) scale(.16486)"><linearGradient id="a" x1="-7708.797" x2="-7633.153" y1="-803.36" y2="-714.907" gradientTransform="rotate(-65.001 -3054.253 -6609.844)" gradientUnits="userSpaceOnUse"><stop offset="0" stop-color="#f69923"/><stop offset=".312" stop-color="#f79a23"/><stop offset=".838" stop-color="#e97826"/></linearGradient><path fill="url(#k)" d="M267.1 19.6c-8.4 5-22.4 19-39 39.3l15.3 28.9c10.7-15.4 21.7-29.2 32.7-41 .8-.9 1.3-1.4 1.3-1.4-.4.5-.9.9-1.3 1.4-3.6 3.9-14.4 16.5-30.7 41.6 15.7-.8 39.8-4 59.5-7.4 5.9-32.8-5.7-47.8-5.7-47.8s-14.8-23.9-32.1-13.6z"/><path fill="none" d="M241.1 184.4c.1 0 .2 0 .3-.1l-2.2.2c-.1.1-.3.1-.4.2.8-.1 1.6-.2 2.3-.3z"/><path fill="none" d="M225.5 236.1c-1.2.3-2.5.5-3.8.7 1.3-.2 2.6-.4 3.8-.7z"/><path fill="none" d="M119.3 352.2c.2-.4.3-.9.5-1.3 3.4-8.9 6.7-17.5 10-26 3.7-9.4 7.4-18.6 11-27.5 3.8-9.3 7.6-18.4 11.3-27.1 3.9-9.2 7.7-18 11.5-26.5 3.1-6.9 6.1-13.6 9.1-20.1 1-2.2 2-4.3 3-6.4 2-4.2 3.9-8.3 5.8-12.3 1.8-3.7 3.5-7.3 5.2-10.9.6-1.2 1.2-2.4 1.7-3.5l.3-.6-1.9.2-1.5-2.9c-.1.3-.3.6-.4.9-2.7 5.3-5.4 10.7-8 16.2-1.5 3.1-3 6.3-4.6 9.5-4.2 8.8-8.3 17.6-12.3 26.6-4.1 9-8.1 18.1-12 27.1-3.9 8.9-7.6 17.8-11.3 26.7-3.7 8.9-7.3 17.7-10.8 26.5-3.7 9.2-7.3 18.3-10.7 27.3-.8 2-1.6 4.1-2.3 6.1-2.8 7.3-5.5 14.4-8.1 21.5l2.4 4.7 2.1-.2c.1-.2.2-.4.2-.6 3.1-9.5 6.5-18.6 9.8-27.4z"/><path fill="none" d="M220.7 236.9z"/><path fill="#be202e" d="M215.6 262.2c-2 .4-4 .7-6 1 1-.1 2.1-.3 3.1-.5 1-.1 2-.3 2.9-.5z"/><path fill="#be202e" d="M215.6 262.2c-2 .4-4 .7-6 1 1-.1 2.1-.3 3.1-.5 1-.1 2-.3 2.9-.5z" opacity=".35"/><path fill="#be202e" d="M220.8 236.9c-.1 0-.1 0 0 0 .3 0 .6-.1.9-.1 1.3-.2 2.6-.4 3.8-.7-1.5.3-3.1.5-4.7.8z"/><path fill="#be202e" d="M220.8 236.9c-.1 0-.1 0 0 0 .3 0 .6-.1.9-.1 1.3-.2 2.6-.4 3.8-.7-1.5.3-3.1.5-4.7.8z" opacity=".35"/><linearGradient id="b" x1="-8268.639" x2="-7728.958" y1="-813.123" y2="-813.123" gradientTransform="rotate(-65.001 -3054.253 -6609.844)" gradientUnits="userSpaceOnUse"><stop offset=".323" stop-color="#9e2064"/><stop offset=".63" stop-color="#c92037"/><stop offset=".751" stop-color="#cd2335"/><stop offset="1" stop-color="#e97826"/></linearGradient><path fill="url(#l)" d="M198.2 162.4c4.7-8.7 9.4-17.2 14.1-25.5 4.9-8.6 9.9-16.9 15-25 .3-.5.6-1 .9-1.4 5-7.9 10-15.5 15.1-22.8L228 58.9c-1.1 1.4-2.3 2.8-3.5 4.3-4.4 5.5-9 11.4-13.7 17.7-5.3 7.1-10.7 14.6-16.3 22.5-5.1 7.3-10.3 15-15.5 22.9-4.4 6.8-8.8 13.7-13.2 20.8-.2.3-.3.5-.5.8l19.9 39.3c4.4-8.3 8.7-16.6 13-24.8z"/><linearGradient id="c" x1="-8203.492" x2="-7881.895" y1="-758.994" y2="-758.994" gradientTransform="rotate(-65.001 -3054.253 -6609.844)" gradientUnits="userSpaceOnUse"><stop offset="0" stop-color="#282662"/><stop offset=".095" stop-color="#662e8d"/><stop offset=".788" stop-color="#9f2064"/><stop offset=".949" stop-color="#cd2032"/></linearGradient><path fill="url(#m)" d="M107.5 384.1c-2.6 7.2-5.3 14.6-7.9 22.2 0 .1-.1.2-.1.3-.4 1.1-.8 2.1-1.1 3.2-1.8 5.1-3.3 9.7-6.9 20.1 5.9 2.7 10.6 9.7 15 17.7-.5-8.3-3.9-16.1-10.4-22.1 28.9 1.3 53.9-6 66.7-27.2 1.1-1.9 2.2-3.9 3.2-6-5.9 7.4-13.1 10.6-26.8 9.8h-.1.1c20.1-9 30.2-17.7 39.1-32 2.1-3.4 4.2-7.1 6.3-11.2-17.6 18.1-38 23.2-59.5 19.3L109 380c-.5 1.4-1 2.7-1.5 4.1z"/><linearGradient id="d" x1="-8238.328" x2="-7698.647" y1="-818.152" y2="-818.152" gradientTransform="rotate(-65.001 -3054.253 -6609.844)" gradientUnits="userSpaceOnUse"><stop offset=".323" stop-color="#9e2064"/><stop offset=".63" stop-color="#c92037"/><stop offset=".751" stop-color="#cd2335"/><stop offset="1" stop-color="#e97826"/></linearGradient><path fill="url(#n)" d="M115 348c3.5-9 7.1-18.1 10.7-27.3 3.5-8.8 7.1-17.6 10.8-26.5 3.7-8.9 7.5-17.8 11.3-26.7 3.9-9.1 7.9-18.1 12-27.1 4-8.9 8.2-17.8 12.3-26.6 1.5-3.2 3-6.3 4.6-9.5 2.6-5.4 5.3-10.8 8-16.2.1-.3.3-.6.4-.9L165.4 148c-.3.5-.6 1.1-1 1.6-4.6 7.6-9.3 15.3-13.8 23.2-4.6 8-9.1 16.1-13.5 24.4-3.7 7-7.3 14-10.9 21.1-.7 1.4-1.4 2.9-2.1 4.3-4.3 8.9-8.3 17.6-11.8 25.9-4 9.4-7.5 18.4-10.6 26.9-2 5.6-3.9 11-5.6 16.2-1.4 4.4-2.7 8.9-4 13.3-3 10.4-5.5 20.8-7.6 31.2l20 39.5c2.6-7.1 5.4-14.2 8.1-21.5.8-2 1.6-4 2.4-6.1z"/><linearGradient id="e" x1="-8198.968" x2="-7915.35" y1="-810.851" y2="-810.851" gradientTransform="rotate(-65.001 -3054.253 -6609.844)" gradientUnits="userSpaceOnUse"><stop offset="0" stop-color="#282662"/><stop offset=".095" stop-color="#662e8d"/><stop offset=".788" stop-color="#9f2064"/><stop offset=".949" stop-color="#cd2032"/></linearGradient><path fill="url(#o)" d="M84.2 337.5c-2.5 12.6-4.3 25.2-5.2 37.8 0 .4-.1.9-.1 1.3-6.2-10-23-19.8-22.9-19.7 12 17.4 21.1 34.6 22.4 51.5-6.4 1.3-15.2-.6-25.3-4.3 10.6 9.7 18.5 12.4 21.6 13.1-9.7.6-19.8 7.3-30 15 14.9-6.1 27-8.5 35.6-6.5-13.7 38.7-27.4 81.5-41.1 126.9 4.2-1.2 6.7-4.1 8.1-7.9 2.4-8.2 18.7-62.2 44.1-133.1.7-2 1.5-4 2.2-6.1.2-.6.4-1.1.6-1.7 2.7-7.4 5.5-15 8.4-22.8.7-1.8 1.3-3.5 2-5.3v-.1l-20-39.5c-.2.5-.3.9-.4 1.4z"/><linearGradient id="f" x1="-8238.328" x2="-7698.647" y1="-762.297" y2="-762.297" gradientTransform="rotate(-65.001 -3054.253 -6609.844)" gradientUnits="userSpaceOnUse"><stop offset=".323" stop-color="#9e2064"/><stop offset=".63" stop-color="#c92037"/><stop offset=".751" stop-color="#cd2335"/><stop offset="1" stop-color="#e97826"/></linearGradient><path fill="url(#p)" d="M188.4 190.6c-.6 1.2-1.1 2.3-1.7 3.5-1.7 3.6-3.5 7.2-5.2 10.9-1.9 4-3.8 8.1-5.8 12.3-1 2.1-2 4.2-3 6.4-3 6.5-6 13.2-9.1 20.1-3.8 8.5-7.6 17.3-11.5 26.5-3.7 8.7-7.5 17.8-11.3 27.1-3.6 8.9-7.3 18-11 27.5-3.3 8.4-6.6 17.1-10 26-.2.4-.3.9-.5 1.3-3.3 8.8-6.7 17.9-10.1 27.2-.1.2-.2.4-.2.6l16.1-1.8c-.3-.1-.6-.1-1-.2 19.3-2.4 44.9-16.8 61.4-34.6 7.6-8.2 14.5-17.8 20.9-29.1 4.8-8.4 9.2-17.7 13.5-28.1 3.7-9 7.3-18.8 10.7-29.4-4.4 2.3-9.5 4-15.1 5.2l-3 .6c-1 .2-2 .3-3.1.5 18-6.9 29.3-20.2 37.5-36.6-4.7 3.2-12.4 7.4-21.6 9.5-1.2.3-2.5.5-3.8.7-.3 0-.6.1-1 .1 6.2-2.6 11.5-5.5 16.1-9 1-.7 1.9-1.5 2.8-2.3 1.4-1.2 2.7-2.5 4-3.8.8-.9 1.6-1.7 2.4-2.6 1.8-2.1 3.5-4.4 5-6.9.5-.8 1-1.5 1.4-2.3.6-1.2 1.2-2.3 1.7-3.4 2.5-5 4.5-9.5 6.1-13.5.8-2 1.5-3.8 2.1-5.5.2-.7.5-1.3.7-2 .6-1.9 1.2-3.6 1.6-5.1.6-2.2 1-4 1.2-5.3-.6.5-1.3 1-2.1 1.4-5.4 3.2-14.7 6.2-22.2 7.6l14.8-1.6-14.8 1.6c-.1 0-.2 0-.3.1-.7.1-1.5.2-2.3.4.1-.1.3-.1.4-.2l-50.6 5.5c.1.4 0 .6-.1.7z"/><linearGradient id="g" x1="-8271.806" x2="-7732.125" y1="-765.071" y2="-765.071" gradientTransform="rotate(-65.001 -3054.253 -6609.844)" gradientUnits="userSpaceOnUse"><stop offset=".323" stop-color="#9e2064"/><stop offset=".63" stop-color="#c92037"/><stop offset=".751" stop-color="#cd2335"/><stop offset="1" stop-color="#e97826"/></linearGradient><path fill="url(#q)" d="M245.4 88.4c-4.5 6.9-9.4 14.8-14.7 23.6-.3.5-.6.9-.8 1.4-4.6 7.7-9.4 16.1-14.5 25.4-4.4 8-9 16.5-13.8 25.8-4.2 8-8.4 16.5-12.9 25.5l50.6-5.5c14.7-6.8 21.3-12.9 27.7-21.8 1.7-2.4 3.4-5 5.1-7.7 5.2-8.1 10.3-17 14.8-25.9 4.4-8.6 8.3-17.1 11.2-24.7 1.9-4.9 3.4-9.4 4.5-13.4.9-3.5 1.6-6.8 2.2-10-19.6 3.3-43.7 6.5-59.4 7.3z"/><path fill="#be202e" d="M212.7 262.8c-1 .2-2 .3-3.1.5 1-.2 2-.4 3.1-.5z"/><path fill="#be202e" d="M212.7 262.8c-1 .2-2 .3-3.1.5 1-.2 2-.4 3.1-.5z" opacity=".35"/><linearGradient id="h" x1="-8238.328" x2="-7698.647" y1="-745.685" y2="-745.685" gradientTransform="rotate(-65.001 -3054.253 -6609.844)" gradientUnits="userSpaceOnUse"><stop offset=".323" stop-color="#9e2064"/><stop offset=".63" stop-color="#c92037"/><stop offset=".751" stop-color="#cd2335"/><stop offset="1" stop-color="#e97826"/></linearGradient><path fill="url(#r)" d="M212.7 262.8c-1 .2-2 .3-3.1.5 1-.2 2-.4 3.1-.5z"/><path fill="#be202e" d="M220.7 236.9c.3 0 .6-.1 1-.1-.3 0-.6.1-1 .1z"/><path fill="#be202e" d="M220.7 236.9c.3 0 .6-.1 1-.1-.3 0-.6.1-1 .1z" opacity=".35"/><linearGradient id="i" x1="-8238.328" x2="-7698.647" y1="-747.586" y2="-747.586" gradientTransform="rotate(-65.001 -3054.253 -6609.844)" gradientUnits="userSpaceOnUse"><stop offset=".323" stop-color="#9e2064"/><stop offset=".63" stop-color="#c92037"/><stop offset=".751" stop-color="#cd2335"/><stop offset="1" stop-color="#e97826"/></linearGradient><path fill="url(#s)" d="M220.7 236.9c.3 0 .6-.1 1-.1-.3 0-.6.1-1 .1z"/><path fill="#be202e" d="M220.8 236.9z"/><path fill="#be202e" d="M220.8 236.9z" opacity=".35"/><linearGradient id="j" x1="-7935.143" x2="-7815.856" y1="-747.967" y2="-747.967" gradientTransform="rotate(-65.001 -3054.253 -6609.844)" gradientUnits="userSpaceOnUse"><stop offset=".323" stop-color="#9e2064"/><stop offset=".63" stop-color="#c92037"/><stop offset=".751" stop-color="#cd2335"/><stop offset="1" stop-color="#e97826"/></linearGradient><path fill="url(#t)" d="M220.8 236.9z"/></g><path fill="#b0afb0" d="M467.34728 239.32927v1.20513h-.33894v-1.20513h-.42681v-.28873h1.18002v.28873h-.41427z"/><path fill="#b0afb0" d="M469.34328 239.59289l-.40171.81597h-.20085l-.40172-.81597v.94151h-.32638v-1.49386h.45192l.38916.81597.38916-.81597h.45192v1.49386h-.32639v-.94151z"/><path fill="#d22128" fill-opacity="1" stroke="#d22128" stroke-dasharray="none" stroke-linejoin="round" stroke-miterlimit="4" stroke-opacity="1" stroke-width="1.229" d="M481.04365 297.79747c-1.39288-.00001-2.61433-.075-3.66436-.225-1.05002-.12859-1.93932-.28931-2.66792-.48216v-8.29303c.79288.17143 1.62861.32143 2.5072.45001.85716.12857 1.80004.19285 2.82863.19286.98574-.00001 1.89647-.10715 2.7322-.32144.85717-.21429 1.59646-.5893 2.21791-1.12502.64287-.5143 1.13573-1.21074 1.4786-2.08933.36429-.87859.54644-1.98218.54644-3.31079v-45.6117h9.96451v45.29027c-.00002 2.70006-.39646 5.0251-1.18932 6.97515-.77146 1.95003-1.86433 3.55721-3.27864 4.82153-1.39289 1.28573-3.06436 2.22861-5.01439 2.82864-1.95005.59999-4.10367.9-6.46086.90001"/><path fill="#000" fill-opacity="1" stroke="#000" stroke-dasharray="none" stroke-linejoin="round" stroke-miterlimit="4" stroke-opacity="1" stroke-width="1.229" d="M502.3266 236.98674v46.98748h8.90855v-21.86178c-.00004-.6-.017-1.27231-.0384-2.02235-.00001-.74999-.0211-1.528-.064-2.34233-.0215-.81427-.0467-1.63457-.0896-2.47033-.0215-.8357-.0596-1.65183-.10239-2.44473-.0857-1.84287-.19144-3.74994-.31999-5.72144h.29439l10.31651 36.86296h9.15174l11.12289-36.79896h.25599c-.0643 1.95007-.13192 3.81903-.21759 5.61904-.0215.77148-.0596 1.56646-.1024 2.38073-.0215.81433-.0426 1.61349-.064 2.40633-.0215.79291-.0426 1.54561-.064 2.25274-.00004.70718-.00004 1.33722 0 1.89435v22.24577h9.29254v-46.98748h-13.56762l-10.80289 35.92859h-.192l-10.15011-35.92859H502.3266zm93.29657 3.40471l-2.82872 7.57739-5.38864 3.2895v4.14709h4.68466v17.31791c0 2.31434.27482 4.24255.83198 5.78544.57858 1.52146 1.36939 2.73925 2.35513 3.66069.98573.90002 2.15706 1.54285 3.50711 1.90715 1.35001.36429 2.80034.53758 4.36467.53758 1.60716 0 3.09143-.15215 4.44148-.47358 1.37143-.30001 2.50883-.69333 3.4303-1.16477v-7.29579c-.90004.32144-1.78376.59209-2.66232.80637-.85719.2143-1.77484.32-2.73913.31999-1.11432.00001-2.01501-.33406-2.70072-.99837-.68575-.66429-1.02399-1.69182-1.02397-3.08471v-17.31791h8.74215v-7.3598H601.895v-7.65418h-6.27183zm-25.16409 6.9758c-2.44292.00004-4.66709.39753-6.68141 1.19037-1.99291.7929-3.70972 1.97258-5.14546 3.5583-1.41432 1.56435-2.52223 3.53067-3.3151 5.88783-.79288 2.35722-1.19037 5.10572-1.19037 8.25577 0 3.10722.4356 5.82624 1.29277 8.14057.87858 2.29291 2.09637 4.19999 3.66069 5.72144 1.56431 1.50004 3.4291 2.61629 5.59344 3.36631 2.16432.75001 4.53231 1.12636 7.1038 1.12636 1.32858 0 2.54637-.0464 3.6607-.15359 1.11429-.0857 2.15878-.2337 3.12311-.44799.96428-.21429 1.86914-.48077 2.72633-.78078.87856-.32143 1.75393-.70195 2.61112-1.15196v-7.59019c-.94291.47145-1.86473.89008-2.76472 1.25436-.90005.34287-1.8177.63467-2.73912.87038-.92148.23573-1.86861.42181-2.85432.55038-.96433.10716-1.99186.15361-3.08471.1536-1.3072.00001-2.47853-.19442-3.50711-.60158-1.00718-.40715-1.88255-.99073-2.61112-1.74075-.70718-.77144-1.25682-1.71024-1.66396-2.80313-.38573-1.11429-.59713-2.35322-.63998-3.72469h21.91299v-4.76147c-.00004-2.61431-.35942-4.92305-1.08797-6.9374-.70719-2.03573-1.73472-3.75254-3.08472-5.14546-1.32862-1.39285-2.96087-2.44151-4.88946-3.14871-1.90721-.72855-4.04682-1.08793-6.42542-1.08797zm59.01914 0c-2.44292.00004-4.6671.39753-6.68141 1.19037-1.99291.7929-3.70972 1.97258-5.14546 3.5583-1.41432 1.56435-2.52223 3.53067-3.3151 5.88783-.79288 2.35722-1.19037 5.10572-1.19037 8.25577 0 3.10722.4356 5.82624 1.29276 8.14057.87859 2.29291 2.09637 4.19999 3.6607 5.72144 1.56431 1.50004 3.4291 2.61629 5.59344 3.36631 2.16432.75001 4.5323 1.12636 7.1038 1.12636 1.32858 0 2.54637-.0464 3.6607-.15359 1.11429-.0857 2.15878-.2337 3.12311-.44799.96428-.21429 1.86914-.48077 2.72633-.78078.87856-.32143 1.75393-.70195 2.61112-1.15196v-7.59019c-.94291.47145-1.86473.89008-2.76472 1.25436-.90005.34287-1.8177.63467-2.73912.87038-.92148.23573-1.86861.42181-2.85432.55038-.96433.10716-1.99186.15361-3.08471.1536-1.3072.00001-2.47853-.19442-3.50711-.60158-1.00718-.40715-1.86975-.99073-2.59832-1.74075-.70717-.77144-1.26962-1.71024-1.67676-2.80313-.38573-1.11429-.59713-2.35322-.63998-3.72469h21.91299v-4.76147c-.00004-2.61431-.35942-4.92305-1.08797-6.9374-.7072-2.03573-1.73472-3.75254-3.08472-5.14546-1.32862-1.39285-2.96088-2.44151-4.88946-3.14871-1.90721-.72855-4.04682-1.08793-6.42542-1.08797zm36.85016 0c-1.20004.00004-2.26985.14802-3.21271.44799-.92147.27861-1.75873.68028-2.50872 1.21597-.72861.51433-1.38395 1.15716-1.98395 1.90714-.60003.75005-1.16247 1.57452-1.67675 2.49593h-.48639l-1.44636-5.38865h-7.42379v35.92859h9.80453v-18.29068c-.00002-1.69288.20721-3.11789.61438-4.27508.42856-1.17858 1.01631-2.12154 1.76635-2.82872.77143-.72856 1.68908-1.2529 2.73912-1.57436 1.07143-.32141 2.22997-.48636 3.4943-.48639.21427.00005.48492.017.80638.0384.32141.00003.63851.0212.95997.064.34284.0215.67274.0596.97278.1024.29997.0429.53251.0852.70398.12799v-9.20294c-.12861-.0428-.31887-.0681-.57599-.0896-.23574-.0428-.5064-.0809-.80637-.1024-.27861-.0428-.57457-.064-.89598-.064-.30003-.0214-.58765-.0256-.84478-.0256zm-95.8053 6.97581c1.02857.00002 1.92926.19029 2.70072.57598.77143.38575 1.41843.91425 1.93275 1.59995.51427.66433.89479 1.45932 1.15197 2.38074.25712.92147.40092 1.92785.42239 3.02071h-12.50525c.17142-2.61431.82259-4.52556 1.95834-5.74704 1.15716-1.22142 2.60331-1.83032 4.33908-1.83034zm59.01914 0c1.02857.00002 1.92926.19029 2.70072.57598.77143.38575 1.41843.91425 1.93275 1.59995.51427.66433.89479 1.45932 1.15197 2.38074.25712.92147.40092 1.92785.42238 3.02071H623.2448c.17142-2.61431.82259-4.52556 1.95834-5.74704 1.15715-1.22142 2.60331-1.83032 4.33908-1.83034z"/><g fill="#4d4d4d" fill-opacity="1" stroke="none" transform="translate(409.785 177.212) scale(.40959)"><path d="M658.02758 171.06244h-5.32069V150.3307h-6.31939v-4.44251h17.94225v4.44251h-6.30217v20.73174"/><path d="M678.32884 171.06244l-5.52732-19.75025h-.15497c.0689 1.05612.12627 2.07778.17219 3.06499.0229.42475.0402.86097.0517 1.30865.023.44771.0402.88966.0517 1.32586.023.43623.0344.85523.0344 1.25699.0115.4018.0172.76339.0172 1.08481v11.70895h-4.76967v-25.17425h7.26643l5.44122 19.2509h.10332l5.7856-19.2509h7.26644v25.17425h-4.97631v-11.91558c-.00002-.29845-.00002-.6371 0-1.01593.0115-.3788.0229-.78058.0344-1.20533.0115-.42472.0229-.8552.0344-1.29143.0229-.4362.0401-.86094.0517-1.27421.0459-.96425.0861-1.96869.12053-3.01333h-.13775l-5.95779 19.71581h-4.90743"/></g><g fill="#d22128" transform="translate(453.68 190.165) scale(.14277)"><path d="M232.6 277.3l49.3-117.8h9.5l49.3 117.8h-12.4L313 240.5h-53l-15.1 36.8h-12.3zm54.1-104.2l-24.2 58.2h47.8l-23.6-58.2z"/><path d="M353.3 277.3V159.5h48.8c20.2 0 34.8 18.7 34.8 37 0 19.2-13.6 37.3-33.8 37.3h-38.3v43.5h-11.5zm11.5-53.8h37.7c13.9 0 22.9-12.8 22.9-27 0-14.8-10.9-26.7-23.9-26.7h-36.7v53.7z"/><path d="M430.5 277.3l49.3-117.8h9.5l49.3 117.8H526l-15.3-36.8h-52.9l-15.1 36.8h-12.2zm54.1-104.2l-24.2 58.2h47.8l-23.6-58.2z"/><path d="M594.2 158.8c20.9 0 36.2 10.6 43.5 25.7l-9.3 5.6c-7.5-15.6-22.1-20.9-34.8-20.9-28.2 0-43.6 25.2-43.6 48.9 0 26 19.1 49.6 44.1 49.6 13.3 0 28.9-6.6 36.3-21.9l9.6 5c-7.6 17.6-28.5 27.4-46.6 27.4-32.3 0-55.1-30.9-55.1-60.7 0-28.3 20.4-58.7 55.9-58.7z"/><path d="M749.1 159.5v117.8h-11.6v-55.1h-69.8v55.1h-11.4V159.5h11.4v52.4h69.8v-52.4h11.6z"/><path d="M854.8 267v10.3h-79.1V159.5h77.6v10.3h-66.2v42.5h57.7v9.8h-57.7V267h67.7z"/></g></g></svg>