<svg xmlns="http://www.w3.org/2000/svg" role="img" xmlns:xlink="http://www.w3.org/1999/xlink" viewBox="-6.11 -5.86 301.47 304.72"><title>Apache CouchDB logo</title><style>svg {enable-background:new 0 0 289.598 293.201}</style><g><defs><path id="SVGID_1_" d="M-275.786 -151.084H566.104V444.19599999999997H-275.786z"/></defs><clipPath id="SVGID_2_"><use overflow="visible" xlink:href="#SVGID_1_"/></clipPath><path fill="#444" d="M59.298 218.992c-11.214 0-16.476 7.621-16.476 19.343 0 11.322 5.262 19.161 16.476 19.161 11.177 0 16.44-7.839 16.44-19.161C75.738 226.613 70.475 218.992 59.298 218.992M59.298 252.415c-7.258 0-9.69-5.808-9.69-14.153 0-9.036 2.432-14.117 9.69-14.117 7.149 0 9.689 5.081 9.689 14.117C68.987 246.607 66.556 252.415 59.298 252.415M115.802 219.428h-6.714v29.54c-.834.652-1.815 1.231-2.903 1.742-1.852.867-4.427 1.704-7.476 1.704-5.371 0-7.04-3.302-7.04-11.721v-21.266h-6.678v21.52c0 11.359 3.738 16.548 12.158 16.548 4.101 0 7.288-1.209 9.508-2.468 1.3-.737 2.431-1.56 3.375-2.467l.907 4.681 4.863-.398V219.428zM125.347 238.479c0 14.225 8.056 19.121 16.04 19.016 3.085-.041 5.729-.453 7.585-.979 1.084-.308 2.069-.617 2.94-1.017l.579-4.827c-.942.327-1.96.614-3.084.871-1.888.434-4.464.828-7.222.871-6.497.103-9.962-4.282-9.98-14.044-.019-10.125 3.484-14.263 9.98-14.263 2.758 0 5.297.476 7.186.908 1.124.258 2.141.58 3.085.906l-.544-4.898c-.871-.399-1.857-.706-2.977-1.018-1.893-.523-4.537-1.015-7.73-1.015C133.367 218.99 125.347 223.489 125.347 238.479M161.165 257.496h6.714v-28.852c1.742-.58 6.314-3.883 10.814-3.883 4.354 0 6.714 2.468 6.714 12.339v20.396h6.714v-20.904c0-12.192-3.266-16.947-11.722-16.947-4.899 0-8.565 1.198-12.521 4.282v-18.581L161.165 206V257.496zM235.814 209.593c-4.559-3.502-10.415-4.247-16.585-4.247h-14.951v52.15h16.584c18.146 0 22.465-10.742 22.465-27.146C243.327 218.992 240.327 213.059 235.814 209.593M218.577 252.27h-7.331v-41.661h9.87c12.013 0 15.404 6.532 15.388 20.032C236.483 247.371 232.73 252.27 218.577 252.27M283.719 231.185c-1.709-.974-3.665-1.523-5.879-1.704 2.758-.291 9.29-2.795 9.29-10.452 0-9.871-4.899-13.683-18.399-13.683h-14.335v52.15h17.093c12.085 0 18.109-4.646 18.109-15.062C289.598 235.94 286.654 232.86 283.719 231.185M260.965 210.609h6.858c9.11 0 12.793 1.523 12.774 8.129-.017 5.696-2.867 8.818-11.178 8.818h-8.455V210.609zM269.747 252.27h-8.782v-20.104h8.673c9.291 0 13.5 2.178 13.5 10.198C283.138 250.746 278.602 252.27 269.747 252.27M20.794 257.496c4.246 0 7.84-.577 10.415-1.198 1.489-.358 2.831-.762 4.029-1.234l.617-5.66c-1.271.472-2.655.887-4.138 1.306-2.619.742-6.096 1.286-10.125 1.307-9.653.052-14.353-6.206-14.407-21.846-.055-16.114 5.733-21.152 15.097-21.231 3.738-.03 7.119.557 9.581 1.125 1.457.339 2.794.764 3.992 1.198l-.581-5.625c-1.161-.398-2.467-.729-3.92-1.052-2.466-.549-5.915-1.089-9.834-1.089-12.375 0-21.544 6.604-21.52 26.746.012 10.415 2.322 17.383 6.06 21.593C9.798 256.044 14.951 257.496 20.794 257.496" clip-path="url(#SVGID_2_)"/><path fill="#777" d="M213.361 270.927c-2.085 0-4.108.949-5.698 2.601l-.722-2.601-2.663.207v21.324h3.819v-16.494c.475-.352.991-.68 1.548-.95.972-.472 2.312-.97 3.881-.97.661 0 1.053.083 1.28.145l.289.145.454-2.952c-.206-.082-.434-.165-.682-.228C214.455 271.051 213.918 270.927 213.361 270.927M235.471 278.275c-.09-3.777-2.663-7.38-7.865-7.349-5.244.031-9.228 3.324-9.228 11.188 0 7.122 3.364 10.715 10.032 10.715 1.672 0 3.098-.246 4.149-.496.599-.143 1.156-.31 1.652-.495l.392-2.767c-.557.165-1.157.305-1.796.434-1.095.222-2.561.415-4.129.433-3.819.044-6.358-1.774-6.358-6.977v-.743h12.82c.082-.269.135-.93.206-1.652C235.42 279.822 235.484 278.854 235.471 278.275M232.167 279.391c-.015.125-.021.289-.021.516h-9.764c.165-2.478.846-3.922 1.816-4.851s2.188-1.301 3.488-1.301c2.54 0 4.403 1.485 4.501 4.996C232.193 278.937 232.194 279.164 232.167 279.391M240.734 292.829L244.532 292.829 244.532 263.164 240.734 263.536zM266.952 290.229c-.352-.146-.455-.661-.455-1.651v-8.361c0-6.688-1.589-9.125-8.278-9.125-2.063 0-3.692.336-4.851.661-.68.191-1.28.413-1.796.641l-.413 2.87c.661-.248 1.362-.457 2.127-.641 1.3-.313 2.931-.619 4.644-.619 3.53 0 4.77.681 4.77 5.078v2.332l-1.135-.165c-.719-.104-1.652-.144-2.622-.144-4.789 0-9.455 1.114-9.455 6.048 0 3.737 2.539 6.084 6.296 6.049 2.746-.027 4.519-.664 5.657-1.384.657-.416 1.176-.887 1.548-1.403 0 .33.227 1.218.723 1.775.495.557 1.259 1.012 2.395 1.012.66 0 1.241-.071 1.651-.186l.66-.187.27-2.519C268.108 290.311 267.344 290.392 266.952 290.229M262.699 288.618c-.476.351-1.015.633-1.61.908-1.015.468-2.457.888-4.19.888-2.498 0-3.923-.991-3.923-3.117 0-3.612 4.15-3.89 6.586-3.818l2.126.062 1.012.062V288.618zM271.184 292.829L275.415 292.829 280.391 284.53 285.324 292.829 289.598 292.829 282.496 282.239 289.598 271.546 285.552 271.546 280.391 280.093 275.188 271.546 271.184 271.546 278.243 282.239z" clip-path="url(#SVGID_2_)"/><path fill="#e42528" d="M235.298,126.699c0,12.001-6.323,17.882-18.1,18.09v0.01H72.399v-0.01 c-11.777-0.208-18.1-6.089-18.1-18.09s6.323-17.882,18.1-18.09v-0.01h144.799v0.01 C228.975,108.817,235.298,114.698,235.298,126.699 M217.198,153.858v-0.01H72.399v0.01c-11.777,0.208-18.1,6.09-18.1,18.091 s6.323,17.882,18.1,18.09v0.01h144.799v-0.01c11.776-0.208,18.1-6.089,18.1-18.09S228.975,154.066,217.198,153.858 M262.448,54.32 v-0.01c-11.777,0.208-18.101,6.089-18.101,18.09v99.549c0,12.001,6.323,17.882,18.101,18.09v-0.021 c17.665-0.623,27.149-18.266,27.149-54.27V90.5C289.598,66.498,280.113,54.736,262.448,54.32 M27.15,54.31v0.01 C9.484,54.736,0,66.497,0,90.5v45.249c0,36.004,9.484,53.646,27.15,54.27v0.021c11.777-0.208,18.099-6.089,18.099-18.09V72.4 C45.249,60.399,38.927,54.518,27.15,54.31 M262.448,45.25c0-30.003-15.808-44.705-45.25-45.225V0H72.399v0.025 C42.957,0.545,27.15,15.247,27.15,45.25v0.015c17.665,0.312,27.149,9.133,27.149,27.135c0,18.001,9.485,26.823,27.15,27.135v0.015 h126.699v-0.015c17.666-0.312,27.15-9.134,27.15-27.135c0-18.002,9.484-26.823,27.15-27.135V45.25z" clip-path="url(#SVGID_2_)"/></g></svg>