<svg xmlns="http://www.w3.org/2000/svg" role="img" xmlns:xlink="http://www.w3.org/1999/xlink" viewBox="-9.60 -9.60 499.20 201.70"><title>Apache HTTP Server Project logo</title><defs><linearGradient id="a" x1="-6873.648" x2="-6636.237" y1="2774.3" y2="2496.689" gradientTransform="scale(1.0281 -1.0281) rotate(65 -830.492 7208.067)" gradientUnits="userSpaceOnUse"><stop offset="0" stop-color="#f59723"/><stop offset=".312" stop-color="#f69822"/><stop offset=".838" stop-color="#e87726"/></linearGradient><linearGradient id="b" x1="-8630.72" x2="-6936.925" y1="2804.961" y2="2804.961" gradientTransform="scale(1.0281 -1.0281) rotate(65 -830.492 7208.067)" gradientUnits="userSpaceOnUse"><stop offset=".323" stop-color="#9c2063"/><stop offset=".63" stop-color="#c82037"/><stop offset=".751" stop-color="#cc2135"/><stop offset="1" stop-color="#e87726"/></linearGradient><linearGradient id="c" x1="-8426.256" x2="-7416.919" y1="2635.284" y2="2635.284" gradientTransform="scale(1.0281 -1.0281) rotate(65 -830.492 7208.067)" gradientUnits="userSpaceOnUse"><stop offset="0" stop-color="#282661"/><stop offset=".095" stop-color="#662e8c"/><stop offset=".788" stop-color="#9e2064"/><stop offset=".949" stop-color="#cc2032"/></linearGradient><linearGradient id="d" x1="-8535.588" x2="-6841.793" y1="2820.86" y2="2820.86" gradientTransform="scale(1.0281 -1.0281) rotate(65 -830.492 7208.067)" gradientUnits="userSpaceOnUse"><stop offset=".323" stop-color="#9c2063"/><stop offset=".63" stop-color="#c82037"/><stop offset=".751" stop-color="#cc2135"/><stop offset="1" stop-color="#e87726"/></linearGradient><linearGradient id="e" x1="-8412.058" x2="-7521.917" y1="2797.879" y2="2797.879" gradientTransform="scale(1.0281 -1.0281) rotate(65 -830.492 7208.067)" gradientUnits="userSpaceOnUse"><stop offset="0" stop-color="#282661"/><stop offset=".095" stop-color="#662e8c"/><stop offset=".788" stop-color="#9e2064"/><stop offset=".949" stop-color="#cc2032"/></linearGradient><linearGradient id="f" x1="-8535.588" x2="-6841.793" y1="2645.49" y2="2645.49" gradientTransform="scale(1.0281 -1.0281) rotate(65 -830.492 7208.067)" gradientUnits="userSpaceOnUse"><stop offset=".323" stop-color="#9c2063"/><stop offset=".63" stop-color="#c82037"/><stop offset=".751" stop-color="#cc2135"/><stop offset="1" stop-color="#e87726"/></linearGradient><linearGradient id="g" x1="-8640.659" x2="-6946.865" y1="2654.265" y2="2654.265" gradientTransform="scale(1.0281 -1.0281) rotate(65 -830.492 7208.067)" gradientUnits="userSpaceOnUse"><stop offset=".323" stop-color="#9c2063"/><stop offset=".63" stop-color="#c82037"/><stop offset=".751" stop-color="#cc2135"/><stop offset="1" stop-color="#e87726"/></linearGradient><linearGradient id="h" x1="-8535.589" x2="-6841.792" y1="2593.446" y2="2593.446" gradientTransform="scale(1.0281 -1.0281) rotate(65 -830.492 7208.067)" gradientUnits="userSpaceOnUse"><stop offset=".323" stop-color="#9c2063"/><stop offset=".63" stop-color="#c82037"/><stop offset=".751" stop-color="#cc2135"/><stop offset="1" stop-color="#e87726"/></linearGradient><linearGradient id="i" x1="-8535.589" x2="-6841.792" y1="2599.324" y2="2599.324" gradientTransform="scale(1.0281 -1.0281) rotate(65 -830.492 7208.067)" gradientUnits="userSpaceOnUse"><stop offset=".323" stop-color="#9c2063"/><stop offset=".63" stop-color="#c82037"/><stop offset=".751" stop-color="#cc2135"/><stop offset="1" stop-color="#e87726"/></linearGradient><linearGradient id="j" x1="-7584.039" x2="-7209.654" y1="2600.552" y2="2600.552" gradientTransform="scale(1.0281 -1.0281) rotate(65 -830.492 7208.067)" gradientUnits="userSpaceOnUse"><stop offset=".323" stop-color="#9c2063"/><stop offset=".63" stop-color="#c82037"/><stop offset=".751" stop-color="#cc2135"/><stop offset="1" stop-color="#e87726"/></linearGradient><linearGradient id="k" x1="-6873.648" x2="-6636.237" y1="2774.3" y2="2496.689" gradientTransform="scale(1.0281 -1.0281) rotate(65 -830.492 7208.067)" gradientUnits="userSpaceOnUse" xlink:href="#a"/><linearGradient id="l" x1="-8630.72" x2="-6936.925" y1="2804.961" y2="2804.961" gradientTransform="scale(1.0281 -1.0281) rotate(65 -830.492 7208.067)" gradientUnits="userSpaceOnUse" xlink:href="#b"/><linearGradient id="m" x1="-8426.256" x2="-7416.919" y1="2635.284" y2="2635.284" gradientTransform="scale(1.0281 -1.0281) rotate(65 -830.492 7208.067)" gradientUnits="userSpaceOnUse" xlink:href="#c"/><linearGradient id="n" x1="-8535.588" x2="-6841.793" y1="2820.86" y2="2820.86" gradientTransform="scale(1.0281 -1.0281) rotate(65 -830.492 7208.067)" gradientUnits="userSpaceOnUse" xlink:href="#d"/><linearGradient id="o" x1="-8412.058" x2="-7521.917" y1="2797.879" y2="2797.879" gradientTransform="scale(1.0281 -1.0281) rotate(65 -830.492 7208.067)" gradientUnits="userSpaceOnUse" xlink:href="#e"/><linearGradient id="p" x1="-8535.588" x2="-6841.793" y1="2645.49" y2="2645.49" gradientTransform="scale(1.0281 -1.0281) rotate(65 -830.492 7208.067)" gradientUnits="userSpaceOnUse" xlink:href="#f"/><linearGradient id="q" x1="-8640.659" x2="-6946.865" y1="2654.265" y2="2654.265" gradientTransform="scale(1.0281 -1.0281) rotate(65 -830.492 7208.067)" gradientUnits="userSpaceOnUse" xlink:href="#g"/><linearGradient id="r" x1="-8535.589" x2="-6841.792" y1="2593.446" y2="2593.446" gradientTransform="scale(1.0281 -1.0281) rotate(65 -830.492 7208.067)" gradientUnits="userSpaceOnUse" xlink:href="#h"/><linearGradient id="s" x1="-8535.589" x2="-6841.792" y1="2599.324" y2="2599.324" gradientTransform="scale(1.0281 -1.0281) rotate(65 -830.492 7208.067)" gradientUnits="userSpaceOnUse" xlink:href="#i"/><linearGradient id="t" x1="-7584.039" x2="-7209.654" y1="2600.552" y2="2600.552" gradientTransform="scale(1.0281 -1.0281) rotate(65 -830.492 7208.067)" gradientUnits="userSpaceOnUse" xlink:href="#j"/><linearGradient id="u" x1="-6873.648" x2="-6636.237" y1="2774.3" y2="2496.689" gradientTransform="scale(1.0281 -1.0281) rotate(65 -830.492 7208.067)" gradientUnits="userSpaceOnUse" xlink:href="#a"/><linearGradient id="v" x1="-8630.72" x2="-6936.925" y1="2804.961" y2="2804.961" gradientTransform="scale(1.0281 -1.0281) rotate(65 -830.492 7208.067)" gradientUnits="userSpaceOnUse" xlink:href="#b"/><linearGradient id="w" x1="-8426.256" x2="-7416.919" y1="2635.284" y2="2635.284" gradientTransform="scale(1.0281 -1.0281) rotate(65 -830.492 7208.067)" gradientUnits="userSpaceOnUse" xlink:href="#c"/><linearGradient id="x" x1="-8535.588" x2="-6841.793" y1="2820.86" y2="2820.86" gradientTransform="scale(1.0281 -1.0281) rotate(65 -830.492 7208.067)" gradientUnits="userSpaceOnUse" xlink:href="#d"/><linearGradient id="y" x1="-8412.058" x2="-7521.917" y1="2797.879" y2="2797.879" gradientTransform="scale(1.0281 -1.0281) rotate(65 -830.492 7208.067)" gradientUnits="userSpaceOnUse" xlink:href="#e"/><linearGradient id="z" x1="-8535.588" x2="-6841.793" y1="2645.49" y2="2645.49" gradientTransform="scale(1.0281 -1.0281) rotate(65 -830.492 7208.067)" gradientUnits="userSpaceOnUse" xlink:href="#f"/><linearGradient id="A" x1="-8640.659" x2="-6946.865" y1="2654.265" y2="2654.265" gradientTransform="scale(1.0281 -1.0281) rotate(65 -830.492 7208.067)" gradientUnits="userSpaceOnUse" xlink:href="#g"/><linearGradient id="B" x1="-8535.589" x2="-6841.792" y1="2593.446" y2="2593.446" gradientTransform="scale(1.0281 -1.0281) rotate(65 -830.492 7208.067)" gradientUnits="userSpaceOnUse" xlink:href="#h"/><linearGradient id="C" x1="-8535.589" x2="-6841.792" y1="2599.324" y2="2599.324" gradientTransform="scale(1.0281 -1.0281) rotate(65 -830.492 7208.067)" gradientUnits="userSpaceOnUse" xlink:href="#i"/><linearGradient id="D" x1="-7584.039" x2="-7209.654" y1="2600.552" y2="2600.552" gradientTransform="scale(1.0281 -1.0281) rotate(65 -830.492 7208.067)" gradientUnits="userSpaceOnUse" xlink:href="#j"/></defs><path fill="url(#k)" d="M736.1 8.1c-27.1 16-72.2 61.3-125.8 127l49.3 93.2C694.3 178.8 729.5 134.1 765 96c2.8-3 4.1-4.4 4.1-4.4-1.3 1.4-2.8 3-4.1 4.4-11.5 12.6-46.4 53.4-99 134.2 50.7-2.5 128.5-12.9 192-23.7 19-105.9-18.5-154.3-18.5-154.3s-47.6-77-103.4-44.1z" transform="translate(-.074 .008) scale(.10592)"/><path fill="none" d="M69.0388 57.1942c.03178-.01058.07414-.01058.11651-.02118l-.75203.08474-.1271.06355c.24361-.05296.50841-.09533.76262-.1271zm-5.34896 17.68865c-.42368.09533-.85795.16947-1.30282.24361.44487-.07414.87914-.15888 1.30282-.24361zm-36.2882 39.66704c.05297-.1377.10593-.29658.15889-.43427 1.15453-3.0399 2.29846-5.99508 3.42121-8.8761 1.26045-3.23056 2.5103-6.3552 3.76016-9.38451 1.30282-3.1882 2.59504-6.28106 3.8555-9.268a544.91075 544.91075 0 0 1 3.92962-9.04557c1.04861-2.36202 2.07604-4.64989 3.09287-6.86362a218.4551 218.4551 0 0 1 1.01683-2.19254c.6673-1.44051 1.324-2.83866 1.9807-4.21562.60375-1.26044 1.1969-2.4997 1.80064-3.72838.20125-.4025.3919-.805.59316-1.20749.03177-.06355.06355-.1271.09532-.20125l-.6461.06356-.50842-1.00624c-.05296.09532-.09533.20124-.1483.29657-.9109 1.83242-1.8324 3.66483-2.73273 5.51843-.519 1.08039-1.03801 2.16077-1.55702 3.23056-1.42992 2.99754-2.82807 6.03744-4.21562 9.06676-1.39814 3.08227-2.76451 6.17513-4.12029 9.27859-1.3134 3.0505-2.61622 6.10099-3.87667 9.1409-1.26045 3.0399-2.49971 6.06921-3.7072 9.06675-1.26045 3.13523-2.47853 6.24928-3.66483 9.32096-.2754.69907-.5296 1.38755-.805 2.07603-.95327 2.47853-1.88537 4.93587-2.78569 7.35085l.805 1.5888.72025-.07415c.02118-.07414.05296-.1377.07414-.22243 1.17572-3.15642 2.33024-6.25987 3.46359-9.2786z"/><path fill="#bd202e" d="M60.32158 83.79072c-.6673.11651-1.34518.24362-2.05484.36013 0 0-.0106 0-.0106.01059.36013-.05296.70967-.10592 1.0592-.15888.32836-.07414.6673-.1377 1.00624-.21184z"/><path fill="#bd202e" d="M60.32158 83.79072c-.6673.11651-1.34518.24362-2.05484.36013 0 0-.0106 0-.0106.01059.36013-.05296.70967-.10592 1.0592-.15888.32836-.07414.6673-.1377 1.00624-.21184z" opacity=".35"/><path fill="#bd202e" d="M62.06926 75.15824s0 .0106 0 0c-.01059 0-.01059 0-.01059.0106.10592-.0106.22243-.03178.32835-.05297.44487-.06355.87914-.1377 1.30282-.24361-.5296.09532-1.0592.19065-1.62058.28598z"/><path fill="#bd202e" d="M62.06926 75.15824s0 .0106 0 0c-.01059 0-.01059 0-.01059.0106.10592-.0106.22243-.03178.32835-.05297.44487-.06355.87914-.1377 1.30282-.24361-.5296.09532-1.0592.19065-1.62058.28598z" opacity=".35"/><path fill="url(#l)" d="M514 469.2c15-28.1 30.2-55.5 45.5-82.1 15.9-27.8 32.1-54.6 48.4-80.6.9-1.5 2-3.1 2.9-4.6 16.1-25.5 32.4-50.1 48.7-73.5l-49.3-93.2c-3.7 4.5-7.4 9.1-11.2 13.9-14.3 17.8-29 36.8-44.2 57.1-17.1 22.8-34.6 47.2-52.5 72.8-16.4 23.6-33.2 48.3-50 74-14.3 21.8-28.5 44.2-42.7 67.2-.5.8-1 1.7-1.5 2.6l64.3 127c13.6-27.5 27.6-54.4 41.6-80.6z" transform="translate(-.074 .008) scale(.10592)"/><path fill="url(#m)" d="M221.2 1184.4c-8.5 23.3-17.1 47.2-25.6 71.5-.1.3-.2.7-.4 1-1.2 3.4-2.5 6.9-3.6 10.3-5.8 16.4-10.8 31.2-22.3 64.7 18.9 8.6 34.1 31.4 48.5 57.2-1.5-26.7-12.5-51.8-33.6-71.2 93.3 4.2 173.7-19.4 215.3-87.6 3.7-6.1 7.1-12.4 10.2-19.3-18.9 24-42.4 34.1-86.5 31.7-.1 0-.2.1-.3.1.1 0 .2-.1.3-.1 65-29.1 97.5-57 126.4-103.2 6.8-11 13.5-22.9 20.3-36.2-56.8 58.3-122.5 74.9-191.8 62.3l-52 5.7c-1.7 4.4-3.2 8.7-4.9 13.1z" transform="translate(-.074 .008) scale(.10592)"/><path fill="url(#n)" d="M245.5 1068.1c11.2-29 22.8-58.4 34.6-88 11.4-28.4 23-57 35-85.6 12-28.6 24.2-57.5 36.6-86.3 12.6-29.3 25.6-58.5 38.9-87.6 13.1-28.8 26.3-57.4 39.8-85.6 4.8-10.2 9.8-20.4 14.7-30.5 8.5-17.5 17.1-34.9 25.8-52.1.5-.9.9-1.9 1.4-2.8l-64.3-127c-1 1.7-2.1 3.5-3.2 5.1-15 24.5-29.9 49.5-44.5 75-14.8 25.8-29.3 52.1-43.5 78.8-11.9 22.5-23.6 45.1-35.1 68.1-2.3 4.6-4.5 9.3-6.8 13.9-14 28.9-26.6 56.6-38.1 83.5-13 30.3-24.4 59.3-34.3 86.8-6.6 18.1-12.5 35.5-18 52.3-4.5 14.3-8.7 28.7-12.9 43-9.6 33.6-17.9 67.2-24.7 100.6l64.6 127.5c8.5-22.8 17.3-46 26.3-69.4 2.7-6.7 5.1-13.3 7.7-19.7z" transform="translate(-.074 .008) scale(.10592)"/><path fill="url(#o)" d="M146.2 1034c-8.1 40.8-13.9 81.4-16.8 121.8l-.3 4.2c-20.2-32.3-74.1-63.8-74-63.5 38.7 56 68 111.6 72.3 166.2-20.7 4.2-49-1.9-81.7-13.9 34.1 31.4 59.7 40 69.8 42.4-31.4 2-64 23.5-96.9 48.3 48.1-19.6 87-27.4 114.8-21.1C89.2 1443.4 45 1581.4.7 1728c13.6-4 21.7-13.2 26.2-25.5 7.9-26.5 60.2-200.7 142.3-429.4 2.4-6.5 4.7-13.1 7.1-19.6.6-1.9 1.3-3.7 2-5.4 8.6-24 17.7-48.5 26.9-73.5 2.1-5.7 4.2-11.4 6.4-17.1 0-.1.1-.2.1-.3L147 1029.7c-.2 1.3-.5 2.8-.8 4.3z" transform="translate(-.074 .008) scale(.10592)"/><path fill="url(#p)" d="M482.3 560.2c-1.9 3.8-3.7 7.6-5.6 11.4-5.6 11.5-11.2 23.2-17 35.2-6.2 13-12.4 26.2-18.7 39.8-3.2 6.8-6.4 13.7-9.6 20.7-9.6 20.9-19.3 42.5-29.2 64.8-12.1 27.3-24.6 55.8-37.1 85.4-11.9 28.2-24.2 57.3-36.4 87.5-11.7 28.6-23.5 58.2-35.5 88.6-10.7 27.1-21.5 55.1-32.3 83.8-.5 1.3-1 2.8-1.5 4.1-10.8 28.5-21.7 57.8-32.6 87.8-.2.7-.5 1.3-.7 2.1l52-5.7c-1-.2-2.1-.3-3.1-.5 62.1-7.7 144.8-54.2 198.1-111.5 24.6-26.4 46.9-57.6 67.5-94.1 15.3-27.1 29.8-57.3 43.6-90.6 12-29.1 23.5-60.7 34.6-94.8-14.3 7.5-30.6 13.1-48.6 16.9-3.2.7-6.4 1.3-9.7 1.9-3.3.6-6.6 1.1-10 1.5 0 0 .1 0 .1-.1 58-22.3 94.5-65.3 121-118-15.2 10.4-40 24-69.7 30.5-4 .9-8.1 1.6-12.3 2.3-1 .1-2.1.3-3.1.5h.2c20.2-8.4 37.1-17.9 51.8-29 3.2-2.4 6.3-4.8 9.1-7.4 4.5-3.9 8.7-8 12.9-12.2 2.6-2.8 5.1-5.6 7.6-8.5 5.8-6.9 11.2-14.3 16.2-22.3 1.5-2.5 3.1-4.9 4.5-7.5 2-3.7 3.8-7.4 5.6-10.9 8.1-16.2 14.6-30.8 19.7-43.5 2.6-6.4 4.8-12.2 6.8-17.8.8-2.2 1.5-4.3 2.2-6.4 2.1-6.1 3.7-11.5 5-16.3 2-7.2 3.2-12.9 3.8-17-2 1.5-4.2 3.1-6.8 4.6-17.5 10.5-47.5 19.9-71.7 24.4l47.7-5.2-47.7 5.2c-.3.1-.7.1-1.1.2-2.5.4-4.8.8-7.3 1.1l1.2-.6-163.3 17.9c0 .4-.3 1.1-.6 1.7z" transform="translate(-.074 .008) scale(.10592)"/><path fill="url(#q)" d="M666.1 230.2c-14.5 22.3-30.3 47.6-47.5 76.3-.9 1.4-1.9 3.1-2.7 4.5-14.7 24.8-30.3 52-46.9 81.9-14.2 25.8-29 53.4-44.4 83.1-13.4 25.9-27.2 53.4-41.5 82.5l163.3-17.9c47.6-21.9 68.8-41.6 89.4-70.3 5.4-7.9 11-16.1 16.4-24.7 16.8-26.2 33.2-55 47.9-83.7 14.2-27.7 26.7-55.1 36.3-79.9 6.1-15.7 11-30.3 14.4-43.2 3-11.3 5.3-22.1 7.1-32.4-63.3 10.9-141.2 21.3-191.8 23.8z" transform="translate(-.074 .008) scale(.10592)"/><path fill="#bd202e" d="M59.29416 83.98138c-.34954.06355-.69907.1165-1.0592.15888.36013-.03178.72026-.09533 1.0592-.15888z"/><path fill="#bd202e" d="M59.29416 83.98138c-.34954.06355-.69907.1165-1.0592.15888.36013-.03178.72026-.09533 1.0592-.15888z" opacity=".35"/><path fill="url(#r)" d="M560.5 792.8c-3.3.6-6.6 1.1-10 1.5 3.4-.3 6.8-.9 10-1.5z" transform="translate(-.074 .008) scale(.10592)"/><path fill="#bd202e" d="M62.05867 75.16883c.10592-.01059.22243-.03177.32835-.05296-.10592.0106-.21184.04237-.32835.05296z"/><path fill="#bd202e" d="M62.05867 75.16883c.10592-.01059.22243-.03177.32835-.05296-.10592.0106-.21184.04237-.32835.05296z" opacity=".35"/><path fill="url(#s)" d="M586.6 709.6c1-.1 2.1-.3 3.1-.5-1 .1-2 .4-3.1.5z" transform="translate(-.074 .008) scale(.10592)"/><path fill="#bd202e" d="M62.05867 75.16883c.0106 0 .0106-.01059 0 0 .0106-.01059.0106 0 0 0z"/><path fill="#bd202e" d="M62.05867 75.16883c.0106 0 .0106-.01059 0 0 .0106-.01059.0106 0 0 0z" opacity=".35"/><path fill="url(#t)" d="M586.6 709.6c.1 0 .1-.1 0 0 .1-.1.1 0 0 0z" transform="translate(-.074 .008) scale(.10592)"/><path fill="#a00" d="M309.86755 123.55258c-1.06174-.19053-5.06926-1.21724-5.69612-1.45939-1.46975-.56755-6.51748-3.1531-7.11017-3.64189-.79235-.65349-.89408-.73215-2.3373-1.80763-1.43004-1.06563-4.49744-4.13316-5.5625-5.56269-.45541-.6113-.95307-1.26347-1.1059-1.44912a308.17286 308.17286 0 0 1-.56943-.6947c-.33666-.41214-3.18165-5.21956-3.18165-5.37628 0-.05753-.296-.76474-.65775-1.57158-.36174-.80689-.87515-2.0922-1.14083-2.85629-.26572-.76413-.59052-1.63942-.72184-1.94504-.29386-.6842-1.09624-4.46387-1.38611-6.52968-.30661-2.18489-.29719-8.18039.01594-10.14193.82484-5.16706 1.47551-7.3752 3.36233-11.41052.29052-.62128.52826-1.27777.52826-1.45873 0-.18101.12504-.32911.27783-.32911.15283 0 .27787-.16147.27787-.35889 0-.19737.77205-1.52882 1.71564-2.95872 1.53056-2.31925 5.01652-6.17033 7.31481-8.08086 2.37805-1.97692 7.08195-4.55365 9.89107-5.41825.82564-.25405 1.81378-.57008 2.19582-.70215 1.4119-.48809 4.12496-.84308 7.64115-.99971 4.53209-.20192 9.28705.38973 12.64263 1.57317 2.50954.88504 4.80198 1.94373 4.95514 2.28831.05096.11467.21411.20844.36259.20844.58597 0 3.74038 2.38976 5.63418 4.26846 2.19145 2.17392 3.62618 4.07808 4.76284 6.3212.712 1.405.72039 1.47355.22316 1.81653-.28416.19602-.64782.45443-.80806.57426-.16024.11983-.61725.40544-1.01551.63469-.39831.2292-1.30032.77341-2.00444 1.20927-1.43487.88828-1.9819.82306-2.40369-.2864-1.17824-3.099-6.58237-8.18395-10.26195-9.65581-4.05183-1.62076-6.50929-2.10435-10.67916-2.10154-4.41825.0047-7.25973.5458-10.7914 2.06136-1.20631.51767-3.78023 2.05512-4.32078 2.5809-.20192.19643-.45255.35715-.55686.35715-.29517 0-3.38535 3.04972-4.74474 4.68266-1.47186 1.76797-4.0283 6.31417-4.63227 8.23778-.23995.76413-.54604 1.63942-.68017 1.94504-1.18035 2.68915-1.8757 9.2034-1.44589 13.54566.29424 2.97214.91214 6.08426 1.44828 7.29386.13545.30562.32935.8683.43085 1.25034.44763 1.68494 3.06388 6.56015 4.43508 8.26436 1.36933 1.70196 3.86772 4.32913 5.00147 5.25936 1.29872 1.06554 5.51553 3.70153 5.92748 3.70528.10197 0 .5082.17013.90276.37608.3945.20586 1.83243.67374 3.19538 1.0398 2.08339.55949 3.07541.6601 6.22917.63169 5.27694-.04754 8.62535-.95827 13.0594-3.55192 2.90528-1.69948 6.91819-5.62289 8.3358-8.14992.53488-.95349 1.09751-1.73534 1.25035-1.73745.58916-.00797 5.97398 2.92178 5.97398 3.25047 0 .38926-1.6185 3.47799-1.93557 3.69379-.11228.07641-.34814.41251-.52414.74692-.66333 1.26023-3.70499 4.23457-6.57074 6.42532-1.52072 1.16258-5.54605 3.20691-8.33576 4.23349-3.70664 1.36403-5.95486 1.7299-11.11441 1.80875-2.7508.0422-5.31408.02063-5.69612-.0482zm-221.73203-.38851c0-.1549.12063-.49869.26812-.76408.14744-.26536.5294-1.10769.84875-1.87177.31931-.76413.69071-1.63942.82522-1.94509.13455-.30562 1.00885-2.36866 1.94288-4.58463.93403-2.21593 1.8118-4.27906 1.95067-4.58469.13882-.30567.57618-1.36844.9719-2.36182.39574-.99334.83212-2.0562.96976-2.36182.13765-.30562.51622-1.18086.84125-1.94495.32504-.76413.76948-1.78334.98767-2.26491.21819-.48158.39671-.95733.39671-1.0572 0-.15766.53277-1.43843 1.39202-3.34657.13765-.30562.57407-1.36844.9698-2.36182.39573-.99338.83333-2.05615.97248-2.36182.13914-.30563.57679-1.36844.97252-2.36182.39573-.99334.83215-2.0561.9698-2.36178.1376-.30562.51397-1.18091.83628-1.94504.32236-.76408.69624-1.63932.83089-1.945.13464-.30562.82208-1.93116 1.5276-3.61216.70553-1.68105 1.39502-3.30654 1.53225-3.6122.13717-.30563.76206-1.8061 1.3886-3.3343.62657-1.52826 1.251-3.02867 1.38756-3.3343.13662-.30567.68574-1.6186 1.22025-2.9176 2.99454-7.27731 3.68075-8.92292 4.34507-10.41967.13563-.30567.57275-1.36849.9714-2.36182.39863-.99339.9675-2.33754 1.26421-2.987l.53947-1.18095h6.04164l.62114 1.45878c.7727 1.81466 1.62226 3.78384 1.94804 4.51525.94584 2.12366 1.38925 3.18788 1.38925 3.3343 0 .15531.5331 1.41353 1.54833 3.65417.21819.48157.39671.95733.39671 1.05723 0 .157.42968 1.19202 1.3893 3.34653.9459 2.12371 1.3893 3.18788 1.3893 3.3343 0 .09325.25912.75648.57581 1.47401s.76277 1.74223.99127 2.27716c.22855.53483.52649 1.2225.66217 1.5282.13563.30563.5704 1.36845.96614 2.36183.39573.99334.83112 2.05615.96755 2.36177.13643.30568 1.01387 2.36881 1.94996 4.58469.9361 2.21597 1.81359 4.27906 1.94997 4.58468.13642.30567.45166 1.05593.7006 1.66717 2.55516 6.27511 3.56974 8.742 3.88535 9.44724.2052.4585.8879 2.0839 1.51715 3.61221.62925 1.52822 1.25601 3.02868 1.39286 3.3343.13685.30562.51256 1.18086.83487 1.945.32237.76412.69869 1.6394.83633 1.94503.13765.30563.57403 1.36844.9698 2.36178.39573.99338.8324 2.0562.97037 2.36182 1.34589 2.9815 3.05858 7.1888 3.05858 7.51345 0 .33675-.68026.40553-4.01024.40553-3.917 0-4.0147-.01454-4.201-.62513-.17047-.55874-.81664-2.12736-1.51659-3.68169-.13764-.30562-.57623-1.36844-.97468-2.36177-.67908-1.69305-1.2285-3.00218-1.80753-4.30682-.13563-.30567-.57041-1.36848-.96614-2.36186-.39574-.99334-.83216-2.0561-.9698-2.36178-.84271-1.87143-1.39203-3.18713-1.39203-3.33434 0-.09315-.23234-.69395-.51626-1.33506-.28397-.64111-.68959-1.57205-.9014-2.06867l-.38514-.90309H105.7091l-.56047 1.31987c-.30824.72592-.90252 2.19511-1.32057 3.26482-.4181 1.0698-.99399 2.4696-1.27983 3.11067-.28584.6411-.51973 1.2419-.51973 1.3351 0 .14721-.54927 1.4629-1.39202 3.33434-.13765.30563-.57407 1.3684-.9698 2.36178-.39574.99338-.83591 2.0562-.97815 2.36182-.14229.30562-.71045 1.68105-1.26267 3.05647-.55218 1.37538-1.06877 2.657-1.14796 2.84804-.18279.4412-8.14237.50534-8.14237.06568zm48.62545-29.18677c0-.26511-.4096-1.2646-1.54833-3.7778-.21818-.48157-.39671-.96286-.39671-1.06947 0-.10665-.18167-.58785-.40366-1.06942-.22203-.48157-1.0998-2.62614-1.95052-4.7656-.85077-2.13951-1.66267-4.1401-1.80425-4.44578-.14163-.30567-.83216-2.05615-1.5346-3.89003-.70243-1.83393-1.38836-3.58441-1.52436-3.89008-.13596-.30567-.43422-.99334-.66273-1.52821-.22854-.53488-.67463-1.55958-.99132-2.27711-.31668-.71748-.57655-1.4052-.57749-1.52821 0-.12302-.16315-.53624-.36043-.91828-.19728-.38209-.65949-1.5074-1.02718-2.50078-.36765-.99334-.8299-2.11864-1.02719-2.50069-.19728-.38208-.35944-.85095-.36038-1.042-.00469-.5842-.50834-.38602-.70853.27787-.10375.34384-.35377 1.00033-.55569 1.45874-.20192.4585-.88213 2.08395-1.51161 3.6122-.62944 1.52822-1.5082 3.65385-1.95278 4.72365-.44458 1.0697-2.8048 6.75893-5.24502 12.64262-2.44016 5.88365-4.63494 11.1665-4.87727 11.73958l-.44055 1.042h14.73027c10.14574 0 14.73033-.09128 14.73033-.2932zm27.23024-7.76478V48.97926l15.4907.00469c16.1788.00468 19.10873.15353 21.703 1.12048 1.83092.68246 4.66874 2.08892 5.18767 2.571.19855.18444.7782.64562 1.28808 1.02475 3.58493 2.6659 7.00943 7.98855 8.31612 12.92574 1.26511 4.78042.74763 11.28849-1.25826 15.82418-2.87922 6.5105-7.72536 11.01657-13.84309 12.87169-1.22657.37196-3.66608.45831-15.41958.5464l-13.96244.10465V123.44827h-7.5022V86.2151zm32.97572 2.75577c5.12537-.709 9.27959-4.61431 11.3551-10.6748.71401-2.08498.87655-7.84021.28668-10.15295-.8015-3.14245-2.2703-5.75172-4.4514-7.90792-1.08208-1.0698-2.341-2.13242-2.7975-2.3614-.45653-.22897-.89258-.48372-.969-.56605-.07637-.08242-.70159-.39212-1.38925-.68823-1.1676-.5028-2.11977-.5443-14.37927-.62746l-13.12888-.08908v33.36854h11.65003c6.83137 0 12.549-.12433 13.82349-.30065zm15.56088 34.269c-.0669-.11457.35748-1.3337.94308-2.70907.58565-1.37542 2.14382-5.12655 3.46261-8.33585 1.3188-3.20926 2.56656-6.21013 2.77284-6.6686.20623-.4585.89202-2.08394 1.524-3.6122 1.1066-2.67617 1.70715-4.09941 2.22778-5.27934.13483-.30562.76-1.80603 1.38925-3.3343.62925-1.5282 1.30928-3.1537 1.5112-3.61216.20192-.45846 1.01143-2.39656 1.7989-4.30681.78748-1.9103 1.79376-4.34854 2.23614-5.4183.94307-2.28048 4.09706-9.75262 4.45679-10.55867.13642-.30567.57182-1.36848.96755-2.36182.39573-.99338.8321-2.05615.9698-2.36177.1376-.30572.51617-1.18096.8412-1.94509.32503-.76408.76948-1.78325.98767-2.26487.21818-.48152.39671-.95724.39671-1.05719 0-.157.42967-1.19202 1.3893-3.34653.5519-1.23914 1.34472-3.14827 1.96164-4.7236.35902-.91696.7676-1.82347.90787-2.01447.1766-.2406 1.17397-.3474 3.24372-.3474h2.98872l.36259.9031c.72878 1.81503 3.92023 9.39107 4.71122 11.18384.13483.30567.75785 1.80608 1.38438 3.3343.62653 1.5282 1.25423 3.0287 1.39478 3.33433.1406.30563 1.20276 2.8689 2.36028 5.69617 1.15756 2.82722 2.21705 5.39049 2.35437 5.69611.13736.30563.89985 2.11865 1.69445 4.02895 1.87805 4.5152 3.82998 9.162 4.14348 9.86402.13647.30567.51186 1.1809.83417 1.94504.32236.76408.69868 1.63937.83633 1.945.13764.30566.57623 1.36848.97472 2.36181.67909 1.69305 1.2285 3.00214 1.8075 4.30686.13567.30563.5726 1.36844.97106 2.36173.39845.99338.90421 2.20013 1.12385 2.6817.21974.48152.39948.9615.39948 1.06652 0 .10497.3751 1.0013.83357 1.99187.45846.99048.8336 1.86713.8336 1.94795 0 .08083.17975.54102.39944 1.0226.21969.48156.72545 1.6883 1.12386 2.68164.39845.99338.83703 2.05615.97472 2.36187.9624 2.13716 1.39202 3.20434 1.39202 3.45797 0 .44664-7.63033.39489-7.9908-.05424-.15335-.19105-1.37154-3.03561-2.70711-6.3213-1.33553-3.28567-2.59295-6.34908-2.7943-6.80759-.20137-.45845-.69213-1.64626-1.09053-2.63964-.39845-.99334-.83703-2.05615-.97472-2.36182-.37675-.8367-1.25846-2.94016-1.66056-3.96167l-.35635-.9052-16.53032.07164-16.53021.07163-1.64519 4.029c-.90482 2.21592-1.76562 4.31839-1.91283 4.6722-.14716.35383-.2676.7045-.2676.77933 0 .1189-.60323 1.54935-1.39202 3.301-.13765.30568-.57628 1.3685-.97473 2.36183-.3984.99333-.8885 2.18114-1.08902 2.63964-.20056.4585-.77997 1.8651-1.2877 3.1259l-.92307 2.29235h-3.81896c-2.10045 0-3.87372-.09372-3.94062-.2084zm48.43642-29.11414c0-.13708-.95681-2.5185-1.78283-4.43738-.19732-.45846-.65255-1.6463-1.01152-2.63964-.35902-.99338-.81415-2.1187-1.01143-2.50078-.19728-.38204-.35945-.79526-.36039-.91833-.00468-.19362-.49127-1.38447-1.39375-3.38849-.13765-.30562-.57623-1.36848-.97468-2.36177-.3984-.99338-.88832-2.18123-1.08864-2.63974-.20033-.45846-.59405-1.45878-.87492-2.22286-.28091-.76413-.67111-1.70187-.86713-2.08395-.19596-.38204-.35714-.8008-.35808-.93052 0-.12972-.18247-.62986-.40333-1.11143-.2209-.48157-.86145-2.06346-1.42343-3.51526-.56197-1.4518-1.23871-3.13978-1.50393-3.75107-.26516-.61135-.6556-1.518-.8675-2.015-.48073-1.12713-.79582-1.03693-1.26924.36348-.2037.60267-.48837 1.34585-.63253 1.65152-.1442.30562-.52587 1.18086-.84823 1.94499-.32236.76408-.69892 1.63937-.8369 1.94504-.22592.50056-3.24896 7.72601-6.9752 16.67161-.76389 1.83384-1.50054 3.58441-1.63707 3.89004-.13652.30562-.75869 1.80608-1.38264 3.33434-.62395 1.52821-1.3179 3.18915-1.54209 3.69102-.22419.50187-.40764.97074-.40764 1.042 0 .07121 6.62696.12953 14.72658.12953 8.09956 0 14.72652-.06638 14.72652-.14735zm93.21445 28.98358c-.07445-.19559-.10323-16.92304-.06394-37.17208l.07144-36.81643h7.22437l.07164 16.46317.07169 16.46323h43.61958V48.97926h7.50219v74.46643h-7.5022V88.71325h-43.61981L361.4821 106.01l-.07154 17.29679-3.54827.07782c-2.68483.05884-3.58117-.00844-3.6836-.27787zm74.89072-36.89421V48.97926h48.90334v6.9465H436.57158V82.04462h36.12173v6.66864h-36.12173v27.78597h42.23468V123.44568H429.0694z"/><g stroke-width="2.558"><path d="M86.00326 155.32453v-23.04925h3.891v9.9913h11.4422v-9.9913h3.891v23.04925h-3.891v-9.43074h-11.4422v9.43074zm34.3379-19.48799v19.48799h-3.891v-19.48799h-6.99062v-3.56126h17.87223v3.56126zm19.90068 0v19.48799h-3.891v-19.48799h-6.99062v-3.56126h17.87224v3.56126zm19.1093-3.56126q5.24296 0 7.6501 2.01145 2.40715 2.01146 2.40715 6.19923 0 4.18778-2.4731 6.13328-2.44012 1.9455-7.5182 1.9455h-4.08886v6.75979h-3.891v-23.04925zm.49462 12.76117q3.2315 0 4.38562-1.22005 1.18708-1.25304 1.18708-3.62721 0-2.40715-1.48385-3.39638-1.48386-.98924-4.64942-.98924h-3.95696v9.23288zm30.10683-9.7275q-1.6817 0-2.76987.69246-1.08815.69247-1.08815 2.11038 0 1.38493 1.08815 2.14335 1.08817.72544 4.61645 1.58278 3.56126.85734 5.34188 2.40715 1.8136 1.5498 1.8136 4.58346 0 3.0007-2.27524 4.88024-2.27525 1.87956-5.9684 1.87956-5.40784 0-9.5956-3.72613l2.44011-2.93474q3.4953 3.03366 7.25441 3.03366 1.87955 0 2.96771-.7914 1.12114-.82435 1.12114-2.14334 0-1.35196-1.05519-2.0774-1.0222-.75841-3.56125-1.35196-2.53905-.62652-3.85803-1.12114-1.31898-.52759-2.3412-1.35195-2.04442-1.5498-2.04442-4.74835 0-3.19853 2.30822-4.91321 2.3412-1.74765 5.77055-1.74765 2.2093 0 4.38563.72544 2.17632.72544 3.7591 2.04443l-2.0774 2.93473q-1.02221-.92329-2.76987-1.51683-1.74765-.59354-3.46233-.59354zm30.03522-3.03367v3.66019H207.6883v6.1003h11.04649v3.46233h-11.0465v6.16625h12.69523v3.66018H203.7973v-23.04925zm23.78447 7.48524q0 5.7046-4.97916 7.18846l6.03435 8.37555h-4.94619l-5.50676-7.74903h-5.11106v7.74903h-3.891v-23.04925h8.57339q5.27594 0 7.55119 1.78063 2.27524 1.78063 2.27524 5.7046zm-9.66155 4.2867q3.29745 0 4.48454-1.02222 1.18708-1.0222 1.18708-3.26448 0-2.27525-1.22005-3.09961-1.22006-.85734-4.35265-.85734h-4.9462v8.24364zm25.48111 11.2773h-4.35264l-9.26587-23.04924h4.35265l7.08954 17.21275 7.08954-17.21275h4.35264zm28.7281-23.04924v3.66019h-12.29952v6.1003h11.04648v3.46233h-11.04648v6.16625h12.69521v3.66018h-16.58622v-23.04925zm23.78447 7.48524q0 5.7046-4.97916 7.18846l6.03435 8.37555h-4.94619l-5.50676-7.74903h-5.11106v7.74903h-3.891v-23.04925h8.5734q5.27593 0 7.55118 1.78063 2.27524 1.78063 2.27524 5.7046zm-9.66155 4.2867q3.29746 0 4.48454-1.02222 1.18709-1.0222 1.18709-3.26448 0-2.27525-1.22006-3.09961-1.22006-.85734-4.35265-.85734h-4.94619v8.24364zm32.21464-11.77194q5.24296 0 7.6501 2.01145 2.40715 2.01146 2.40715 6.19923 0 4.18778-2.4731 6.13328-2.44012 1.9455-7.5182 1.9455h-4.08885v6.75979h-3.891v-23.04925zm.49461 12.76117q3.23152 0 4.38563-1.22005 1.18708-1.25304 1.18708-3.62721 0-2.40715-1.48385-3.39638-1.48386-.98924-4.64942-.98924h-3.95695v9.23288zm32.53253-5.27593q0 5.7046-4.97917 7.18846l6.03435 8.37555h-4.94619l-5.50675-7.74903h-5.11106v7.74903h-3.891v-23.04925h8.57339q5.27593 0 7.55118 1.78063 2.27525 1.78063 2.27525 5.7046zm-9.66156 4.2867q3.29746 0 4.48455-1.02222 1.18708-1.0222 1.18708-3.26448 0-2.27525-1.22006-3.09961-1.22006-.85734-4.35265-.85734h-4.94618v8.24364zm31.70559-6.33112q-2.3412-2.44013-5.77056-2.44013-3.42936 0-5.80353 2.44013-2.3412 2.44011-2.3412 5.93542 0 3.46234 2.3412 5.90245 2.37417 2.44012 5.80353 2.44012 3.42936 0 5.77056-2.44012 2.37417-2.44011 2.37417-5.90245 0-3.4953-2.37417-5.93542zm2.86878 14.44287q-3.4953 3.39638-8.63934 3.39638t-8.63934-3.39638q-3.49531-3.42936-3.49531-8.50745 0-5.11106 3.4953-8.50745 3.49531-3.42935 8.63935-3.42935t8.63934 3.42935q3.49531 3.39639 3.49531 8.50745 0 5.07809-3.4953 8.50745zm8.45336-16.38838v-3.4953h11.21136v15.20129q0 4.0229-2.04443 6.03435-2.04442 2.01145-5.24295 2.01145-4.0229 0-6.85872-2.83582l2.2093-3.06664q2.24227 2.14335 4.38562 2.14335 1.51683 0 2.57202-1.02221 1.08816-1.02221 1.08816-3.06664V135.7706zm33.5939-3.4953v3.66018H422.3452v6.1003h11.0465v3.46233h-11.0465v6.16625h12.69522v3.66018h-16.58622v-23.04925zm15.90351 19.52096q2.01148 0 3.46238-.6595 1.45086-.69246 3.03364-2.17632l2.50608 2.57202q-3.66017 4.05588-8.90313 4.05588-5.21 0-8.67232-3.36341-3.42938-3.36341-3.42938-8.50745t3.4953-8.5734q3.52828-3.42935 8.87016-3.42935 5.37488 0 8.96909 3.95695l-2.47307 2.70391q-1.64875-1.58277-3.13261-2.2093-1.45086-.6265-3.42933-.6265-3.49533 0-5.86948 2.27524-2.3742 2.24227-2.3742 5.77055 0 3.4953 2.3412 5.86948 2.3742 2.3412 5.60567 2.3412zm22.46656-15.95971v19.48799h-3.89102v-19.48799h-6.99062v-3.56126h17.87222v3.56126z"/></g><g><path fill="url(#u)" d="M736.1 8.1c-27.1 16-72.2 61.3-125.8 127l49.3 93.2C694.3 178.8 729.5 134.1 765 96c2.8-3 4.1-4.4 4.1-4.4-1.3 1.4-2.8 3-4.1 4.4-11.5 12.6-46.4 53.4-99 134.2 50.7-2.5 128.5-12.9 192-23.7 19-105.9-18.5-154.3-18.5-154.3s-47.6-77-103.4-44.1z" transform="translate(-.074 .008) scale(.10592)"/><path fill="none" d="M69.0388 57.1942c.03178-.01058.07414-.01058.11651-.02118l-.75203.08474-.1271.06355c.24361-.05296.50841-.09533.76262-.1271zm-5.34896 17.68865c-.42368.09533-.85795.16947-1.30282.24361.44487-.07414.87914-.15888 1.30282-.24361zm-36.2882 39.66704c.05297-.1377.10593-.29658.15889-.43427 1.15453-3.0399 2.29846-5.99508 3.42121-8.8761 1.26045-3.23056 2.5103-6.3552 3.76016-9.38451 1.30282-3.1882 2.59504-6.28106 3.8555-9.268a544.91075 544.91075 0 0 1 3.92962-9.04557c1.04861-2.36202 2.07604-4.64989 3.09287-6.86362a218.4551 218.4551 0 0 1 1.01683-2.19254c.6673-1.44051 1.324-2.83866 1.9807-4.21562.60375-1.26044 1.1969-2.4997 1.80064-3.72838.20125-.4025.3919-.805.59316-1.20749.03177-.06355.06355-.1271.09532-.20125l-.6461.06356-.50842-1.00624c-.05296.09532-.09533.20124-.1483.29657-.9109 1.83242-1.8324 3.66483-2.73273 5.51843-.519 1.08039-1.03801 2.16077-1.55702 3.23056-1.42992 2.99754-2.82807 6.03744-4.21562 9.06676-1.39814 3.08227-2.76451 6.17513-4.12029 9.27859-1.3134 3.0505-2.61622 6.10099-3.87667 9.1409-1.26045 3.0399-2.49971 6.06921-3.7072 9.06675-1.26045 3.13523-2.47853 6.24928-3.66483 9.32096-.2754.69907-.5296 1.38755-.805 2.07603-.95327 2.47853-1.88537 4.93587-2.78569 7.35085l.805 1.5888.72025-.07415c.02118-.07414.05296-.1377.07414-.22243 1.17572-3.15642 2.33024-6.25987 3.46359-9.2786z"/><path fill="#bd202e" d="M60.32158 83.79072c-.6673.11651-1.34518.24362-2.05484.36013 0 0-.0106 0-.0106.01059.36013-.05296.70967-.10592 1.0592-.15888.32836-.07414.6673-.1377 1.00624-.21184z"/><path fill="#bd202e" d="M60.32158 83.79072c-.6673.11651-1.34518.24362-2.05484.36013 0 0-.0106 0-.0106.01059.36013-.05296.70967-.10592 1.0592-.15888.32836-.07414.6673-.1377 1.00624-.21184z" opacity=".35"/><path fill="#bd202e" d="M62.06926 75.15824s0 .0106 0 0c-.01059 0-.01059 0-.01059.0106.10592-.0106.22243-.03178.32835-.05297.44487-.06355.87914-.1377 1.30282-.24361-.5296.09532-1.0592.19065-1.62058.28598z"/><path fill="#bd202e" d="M62.06926 75.15824s0 .0106 0 0c-.01059 0-.01059 0-.01059.0106.10592-.0106.22243-.03178.32835-.05297.44487-.06355.87914-.1377 1.30282-.24361-.5296.09532-1.0592.19065-1.62058.28598z" opacity=".35"/><path fill="url(#v)" d="M514 469.2c15-28.1 30.2-55.5 45.5-82.1 15.9-27.8 32.1-54.6 48.4-80.6.9-1.5 2-3.1 2.9-4.6 16.1-25.5 32.4-50.1 48.7-73.5l-49.3-93.2c-3.7 4.5-7.4 9.1-11.2 13.9-14.3 17.8-29 36.8-44.2 57.1-17.1 22.8-34.6 47.2-52.5 72.8-16.4 23.6-33.2 48.3-50 74-14.3 21.8-28.5 44.2-42.7 67.2-.5.8-1 1.7-1.5 2.6l64.3 127c13.6-27.5 27.6-54.4 41.6-80.6z" transform="translate(-.074 .008) scale(.10592)"/><path fill="url(#w)" d="M221.2 1184.4c-8.5 23.3-17.1 47.2-25.6 71.5-.1.3-.2.7-.4 1-1.2 3.4-2.5 6.9-3.6 10.3-5.8 16.4-10.8 31.2-22.3 64.7 18.9 8.6 34.1 31.4 48.5 57.2-1.5-26.7-12.5-51.8-33.6-71.2 93.3 4.2 173.7-19.4 215.3-87.6 3.7-6.1 7.1-12.4 10.2-19.3-18.9 24-42.4 34.1-86.5 31.7-.1 0-.2.1-.3.1.1 0 .2-.1.3-.1 65-29.1 97.5-57 126.4-103.2 6.8-11 13.5-22.9 20.3-36.2-56.8 58.3-122.5 74.9-191.8 62.3l-52 5.7c-1.7 4.4-3.2 8.7-4.9 13.1z" transform="translate(-.074 .008) scale(.10592)"/><path fill="url(#x)" d="M245.5 1068.1c11.2-29 22.8-58.4 34.6-88 11.4-28.4 23-57 35-85.6 12-28.6 24.2-57.5 36.6-86.3 12.6-29.3 25.6-58.5 38.9-87.6 13.1-28.8 26.3-57.4 39.8-85.6 4.8-10.2 9.8-20.4 14.7-30.5 8.5-17.5 17.1-34.9 25.8-52.1.5-.9.9-1.9 1.4-2.8l-64.3-127c-1 1.7-2.1 3.5-3.2 5.1-15 24.5-29.9 49.5-44.5 75-14.8 25.8-29.3 52.1-43.5 78.8-11.9 22.5-23.6 45.1-35.1 68.1-2.3 4.6-4.5 9.3-6.8 13.9-14 28.9-26.6 56.6-38.1 83.5-13 30.3-24.4 59.3-34.3 86.8-6.6 18.1-12.5 35.5-18 52.3-4.5 14.3-8.7 28.7-12.9 43-9.6 33.6-17.9 67.2-24.7 100.6l64.6 127.5c8.5-22.8 17.3-46 26.3-69.4 2.7-6.7 5.1-13.3 7.7-19.7z" transform="translate(-.074 .008) scale(.10592)"/><path fill="url(#y)" d="M146.2 1034c-8.1 40.8-13.9 81.4-16.8 121.8l-.3 4.2c-20.2-32.3-74.1-63.8-74-63.5 38.7 56 68 111.6 72.3 166.2-20.7 4.2-49-1.9-81.7-13.9 34.1 31.4 59.7 40 69.8 42.4-31.4 2-64 23.5-96.9 48.3 48.1-19.6 87-27.4 114.8-21.1C89.2 1443.4 45 1581.4.7 1728c13.6-4 21.7-13.2 26.2-25.5 7.9-26.5 60.2-200.7 142.3-429.4 2.4-6.5 4.7-13.1 7.1-19.6.6-1.9 1.3-3.7 2-5.4 8.6-24 17.7-48.5 26.9-73.5 2.1-5.7 4.2-11.4 6.4-17.1 0-.1.1-.2.1-.3L147 1029.7c-.2 1.3-.5 2.8-.8 4.3z" transform="translate(-.074 .008) scale(.10592)"/><path fill="url(#z)" d="M482.3 560.2c-1.9 3.8-3.7 7.6-5.6 11.4-5.6 11.5-11.2 23.2-17 35.2-6.2 13-12.4 26.2-18.7 39.8-3.2 6.8-6.4 13.7-9.6 20.7-9.6 20.9-19.3 42.5-29.2 64.8-12.1 27.3-24.6 55.8-37.1 85.4-11.9 28.2-24.2 57.3-36.4 87.5-11.7 28.6-23.5 58.2-35.5 88.6-10.7 27.1-21.5 55.1-32.3 83.8-.5 1.3-1 2.8-1.5 4.1-10.8 28.5-21.7 57.8-32.6 87.8-.2.7-.5 1.3-.7 2.1l52-5.7c-1-.2-2.1-.3-3.1-.5 62.1-7.7 144.8-54.2 198.1-111.5 24.6-26.4 46.9-57.6 67.5-94.1 15.3-27.1 29.8-57.3 43.6-90.6 12-29.1 23.5-60.7 34.6-94.8-14.3 7.5-30.6 13.1-48.6 16.9-3.2.7-6.4 1.3-9.7 1.9-3.3.6-6.6 1.1-10 1.5 0 0 .1 0 .1-.1 58-22.3 94.5-65.3 121-118-15.2 10.4-40 24-69.7 30.5-4 .9-8.1 1.6-12.3 2.3-1 .1-2.1.3-3.1.5h.2c20.2-8.4 37.1-17.9 51.8-29 3.2-2.4 6.3-4.8 9.1-7.4 4.5-3.9 8.7-8 12.9-12.2 2.6-2.8 5.1-5.6 7.6-8.5 5.8-6.9 11.2-14.3 16.2-22.3 1.5-2.5 3.1-4.9 4.5-7.5 2-3.7 3.8-7.4 5.6-10.9 8.1-16.2 14.6-30.8 19.7-43.5 2.6-6.4 4.8-12.2 6.8-17.8.8-2.2 1.5-4.3 2.2-6.4 2.1-6.1 3.7-11.5 5-16.3 2-7.2 3.2-12.9 3.8-17-2 1.5-4.2 3.1-6.8 4.6-17.5 10.5-47.5 19.9-71.7 24.4l47.7-5.2-47.7 5.2c-.3.1-.7.1-1.1.2-2.5.4-4.8.8-7.3 1.1l1.2-.6-163.3 17.9c0 .4-.3 1.1-.6 1.7z" transform="translate(-.074 .008) scale(.10592)"/><path fill="url(#A)" d="M666.1 230.2c-14.5 22.3-30.3 47.6-47.5 76.3-.9 1.4-1.9 3.1-2.7 4.5-14.7 24.8-30.3 52-46.9 81.9-14.2 25.8-29 53.4-44.4 83.1-13.4 25.9-27.2 53.4-41.5 82.5l163.3-17.9c47.6-21.9 68.8-41.6 89.4-70.3 5.4-7.9 11-16.1 16.4-24.7 16.8-26.2 33.2-55 47.9-83.7 14.2-27.7 26.7-55.1 36.3-79.9 6.1-15.7 11-30.3 14.4-43.2 3-11.3 5.3-22.1 7.1-32.4-63.3 10.9-141.2 21.3-191.8 23.8z" transform="translate(-.074 .008) scale(.10592)"/><path fill="#bd202e" d="M59.29416 83.98138c-.34954.06355-.69907.1165-1.0592.15888.36013-.03178.72026-.09533 1.0592-.15888z"/><path fill="#bd202e" d="M59.29416 83.98138c-.34954.06355-.69907.1165-1.0592.15888.36013-.03178.72026-.09533 1.0592-.15888z" opacity=".35"/><path fill="url(#B)" d="M560.5 792.8c-3.3.6-6.6 1.1-10 1.5 3.4-.3 6.8-.9 10-1.5z" transform="translate(-.074 .008) scale(.10592)"/><path fill="#bd202e" d="M62.05867 75.16883c.10592-.01059.22243-.03177.32835-.05296-.10592.0106-.21184.04237-.32835.05296z"/><path fill="#bd202e" d="M62.05867 75.16883c.10592-.01059.22243-.03177.32835-.05296-.10592.0106-.21184.04237-.32835.05296z" opacity=".35"/><path fill="url(#C)" d="M586.6 709.6c1-.1 2.1-.3 3.1-.5-1 .1-2 .4-3.1.5z" transform="translate(-.074 .008) scale(.10592)"/><path fill="#bd202e" d="M62.05867 75.16883c.0106 0 .0106-.01059 0 0 .0106-.01059.0106 0 0 0z"/><path fill="#bd202e" d="M62.05867 75.16883c.0106 0 .0106-.01059 0 0 .0106-.01059.0106 0 0 0z" opacity=".35"/><path fill="url(#D)" d="M586.6 709.6c.1 0 .1-.1 0 0 .1-.1.1 0 0 0z" transform="translate(-.074 .008) scale(.10592)"/><path fill="#a00" d="M309.86755 123.55258c-1.06174-.19053-5.06926-1.21724-5.69612-1.45939-1.46975-.56755-6.51748-3.1531-7.11017-3.64189-.79235-.65349-.89408-.73215-2.3373-1.80763-1.43004-1.06563-4.49744-4.13316-5.5625-5.56269-.45541-.6113-.95307-1.26347-1.1059-1.44912a308.17286 308.17286 0 0 1-.56943-.6947c-.33666-.41214-3.18165-5.21956-3.18165-5.37628 0-.05753-.296-.76474-.65775-1.57158-.36174-.80689-.87515-2.0922-1.14083-2.85629-.26572-.76413-.59052-1.63942-.72184-1.94504-.29386-.6842-1.09624-4.46387-1.38611-6.52968-.30661-2.18489-.29719-8.18039.01594-10.14193.82484-5.16706 1.47551-7.3752 3.36233-11.41052.29052-.62128.52826-1.27777.52826-1.45873 0-.18101.12504-.32911.27783-.32911.15283 0 .27787-.16147.27787-.35889 0-.19737.77205-1.52882 1.71564-2.95872 1.53056-2.31925 5.01652-6.17033 7.31481-8.08086 2.37805-1.97692 7.08195-4.55365 9.89107-5.41825.82564-.25405 1.81378-.57008 2.19582-.70215 1.4119-.48809 4.12496-.84308 7.64115-.99971 4.53209-.20192 9.28705.38973 12.64263 1.57317 2.50954.88504 4.80198 1.94373 4.95514 2.28831.05096.11467.21411.20844.36259.20844.58597 0 3.74038 2.38976 5.63418 4.26846 2.19145 2.17392 3.62618 4.07808 4.76284 6.3212.712 1.405.72039 1.47355.22316 1.81653-.28416.19602-.64782.45443-.80806.57426-.16024.11983-.61725.40544-1.01551.63469-.39831.2292-1.30032.77341-2.00444 1.20927-1.43487.88828-1.9819.82306-2.40369-.2864-1.17824-3.099-6.58237-8.18395-10.26195-9.65581-4.05183-1.62076-6.50929-2.10435-10.67916-2.10154-4.41825.0047-7.25973.5458-10.7914 2.06136-1.20631.51767-3.78023 2.05512-4.32078 2.5809-.20192.19643-.45255.35715-.55686.35715-.29517 0-3.38535 3.04972-4.74474 4.68266-1.47186 1.76797-4.0283 6.31417-4.63227 8.23778-.23995.76413-.54604 1.63942-.68017 1.94504-1.18035 2.68915-1.8757 9.2034-1.44589 13.54566.29424 2.97214.91214 6.08426 1.44828 7.29386.13545.30562.32935.8683.43085 1.25034.44763 1.68494 3.06388 6.56015 4.43508 8.26436 1.36933 1.70196 3.86772 4.32913 5.00147 5.25936 1.29872 1.06554 5.51553 3.70153 5.92748 3.70528.10197 0 .5082.17013.90276.37608.3945.20586 1.83243.67374 3.19538 1.0398 2.08339.55949 3.07541.6601 6.22917.63169 5.27694-.04754 8.62535-.95827 13.0594-3.55192 2.90528-1.69948 6.91819-5.62289 8.3358-8.14992.53488-.95349 1.09751-1.73534 1.25035-1.73745.58916-.00797 5.97398 2.92178 5.97398 3.25047 0 .38926-1.6185 3.47799-1.93557 3.69379-.11228.07641-.34814.41251-.52414.74692-.66333 1.26023-3.70499 4.23457-6.57074 6.42532-1.52072 1.16258-5.54605 3.20691-8.33576 4.23349-3.70664 1.36403-5.95486 1.7299-11.11441 1.80875-2.7508.0422-5.31408.02063-5.69612-.0482zm-221.73203-.38851c0-.1549.12063-.49869.26812-.76408.14744-.26536.5294-1.10769.84875-1.87177.31931-.76413.69071-1.63942.82522-1.94509.13455-.30562 1.00885-2.36866 1.94288-4.58463.93403-2.21593 1.8118-4.27906 1.95067-4.58469.13882-.30567.57618-1.36844.9719-2.36182.39574-.99334.83212-2.0562.96976-2.36182.13765-.30562.51622-1.18086.84125-1.94495.32504-.76413.76948-1.78334.98767-2.26491.21819-.48158.39671-.95733.39671-1.0572 0-.15766.53277-1.43843 1.39202-3.34657.13765-.30562.57407-1.36844.9698-2.36182.39573-.99338.83333-2.05615.97248-2.36182.13914-.30563.57679-1.36844.97252-2.36182.39573-.99334.83215-2.0561.9698-2.36178.1376-.30562.51397-1.18091.83628-1.94504.32236-.76408.69624-1.63932.83089-1.945.13464-.30562.82208-1.93116 1.5276-3.61216.70553-1.68105 1.39502-3.30654 1.53225-3.6122.13717-.30563.76206-1.8061 1.3886-3.3343.62657-1.52826 1.251-3.02867 1.38756-3.3343.13662-.30567.68574-1.6186 1.22025-2.9176 2.99454-7.27731 3.68075-8.92292 4.34507-10.41967.13563-.30567.57275-1.36849.9714-2.36182.39863-.99339.9675-2.33754 1.26421-2.987l.53947-1.18095h6.04164l.62114 1.45878c.7727 1.81466 1.62226 3.78384 1.94804 4.51525.94584 2.12366 1.38925 3.18788 1.38925 3.3343 0 .15531.5331 1.41353 1.54833 3.65417.21819.48157.39671.95733.39671 1.05723 0 .157.42968 1.19202 1.3893 3.34653.9459 2.12371 1.3893 3.18788 1.3893 3.3343 0 .09325.25912.75648.57581 1.47401s.76277 1.74223.99127 2.27716c.22855.53483.52649 1.2225.66217 1.5282.13563.30563.5704 1.36845.96614 2.36183.39573.99334.83112 2.05615.96755 2.36177.13643.30568 1.01387 2.36881 1.94996 4.58469.9361 2.21597 1.81359 4.27906 1.94997 4.58468.13642.30567.45166 1.05593.7006 1.66717 2.55516 6.27511 3.56974 8.742 3.88535 9.44724.2052.4585.8879 2.0839 1.51715 3.61221.62925 1.52822 1.25601 3.02868 1.39286 3.3343.13685.30562.51256 1.18086.83487 1.945.32237.76412.69869 1.6394.83633 1.94503.13765.30563.57403 1.36844.9698 2.36178.39573.99338.8324 2.0562.97037 2.36182 1.34589 2.9815 3.05858 7.1888 3.05858 7.51345 0 .33675-.68026.40553-4.01024.40553-3.917 0-4.0147-.01454-4.201-.62513-.17047-.55874-.81664-2.12736-1.51659-3.68169-.13764-.30562-.57623-1.36844-.97468-2.36177-.67908-1.69305-1.2285-3.00218-1.80753-4.30682-.13563-.30567-.57041-1.36848-.96614-2.36186-.39574-.99334-.83216-2.0561-.9698-2.36178-.84271-1.87143-1.39203-3.18713-1.39203-3.33434 0-.09315-.23234-.69395-.51626-1.33506-.28397-.64111-.68959-1.57205-.9014-2.06867l-.38514-.90309H105.7091l-.56047 1.31987c-.30824.72592-.90252 2.19511-1.32057 3.26482-.4181 1.0698-.99399 2.4696-1.27983 3.11067-.28584.6411-.51973 1.2419-.51973 1.3351 0 .14721-.54927 1.4629-1.39202 3.33434-.13765.30563-.57407 1.3684-.9698 2.36178-.39574.99338-.83591 2.0562-.97815 2.36182-.14229.30562-.71045 1.68105-1.26267 3.05647-.55218 1.37538-1.06877 2.657-1.14796 2.84804-.18279.4412-8.14237.50534-8.14237.06568zm48.62545-29.18677c0-.26511-.4096-1.2646-1.54833-3.7778-.21818-.48157-.39671-.96286-.39671-1.06947 0-.10665-.18167-.58785-.40366-1.06942-.22203-.48157-1.0998-2.62614-1.95052-4.7656-.85077-2.13951-1.66267-4.1401-1.80425-4.44578-.14163-.30567-.83216-2.05615-1.5346-3.89003-.70243-1.83393-1.38836-3.58441-1.52436-3.89008-.13596-.30567-.43422-.99334-.66273-1.52821-.22854-.53488-.67463-1.55958-.99132-2.27711-.31668-.71748-.57655-1.4052-.57749-1.52821 0-.12302-.16315-.53624-.36043-.91828-.19728-.38209-.65949-1.5074-1.02718-2.50078-.36765-.99334-.8299-2.11864-1.02719-2.50069-.19728-.38208-.35944-.85095-.36038-1.042-.00469-.5842-.50834-.38602-.70853.27787-.10375.34384-.35377 1.00033-.55569 1.45874-.20192.4585-.88213 2.08395-1.51161 3.6122-.62944 1.52822-1.5082 3.65385-1.95278 4.72365-.44458 1.0697-2.8048 6.75893-5.24502 12.64262-2.44016 5.88365-4.63494 11.1665-4.87727 11.73958l-.44055 1.042h14.73027c10.14574 0 14.73033-.09128 14.73033-.2932zm27.23024-7.76478V48.97926l15.4907.00469c16.1788.00468 19.10873.15353 21.703 1.12048 1.83092.68246 4.66874 2.08892 5.18767 2.571.19855.18444.7782.64562 1.28808 1.02475 3.58493 2.6659 7.00943 7.98855 8.31612 12.92574 1.26511 4.78042.74763 11.28849-1.25826 15.82418-2.87922 6.5105-7.72536 11.01657-13.84309 12.87169-1.22657.37196-3.66608.45831-15.41958.5464l-13.96244.10465V123.44827h-7.5022V86.2151zm32.97572 2.75577c5.12537-.709 9.27959-4.61431 11.3551-10.6748.71401-2.08498.87655-7.84021.28668-10.15295-.8015-3.14245-2.2703-5.75172-4.4514-7.90792-1.08208-1.0698-2.341-2.13242-2.7975-2.3614-.45653-.22897-.89258-.48372-.969-.56605-.07637-.08242-.70159-.39212-1.38925-.68823-1.1676-.5028-2.11977-.5443-14.37927-.62746l-13.12888-.08908v33.36854h11.65003c6.83137 0 12.549-.12433 13.82349-.30065zm15.56088 34.269c-.0669-.11457.35748-1.3337.94308-2.70907.58565-1.37542 2.14382-5.12655 3.46261-8.33585 1.3188-3.20926 2.56656-6.21013 2.77284-6.6686.20623-.4585.89202-2.08394 1.524-3.6122 1.1066-2.67617 1.70715-4.09941 2.22778-5.27934.13483-.30562.76-1.80603 1.38925-3.3343.62925-1.5282 1.30928-3.1537 1.5112-3.61216.20192-.45846 1.01143-2.39656 1.7989-4.30681.78748-1.9103 1.79376-4.34854 2.23614-5.4183.94307-2.28048 4.09706-9.75262 4.45679-10.55867.13642-.30567.57182-1.36848.96755-2.36182.39573-.99338.8321-2.05615.9698-2.36177.1376-.30572.51617-1.18096.8412-1.94509.32503-.76408.76948-1.78325.98767-2.26487.21818-.48152.39671-.95724.39671-1.05719 0-.157.42967-1.19202 1.3893-3.34653.5519-1.23914 1.34472-3.14827 1.96164-4.7236.35902-.91696.7676-1.82347.90787-2.01447.1766-.2406 1.17397-.3474 3.24372-.3474h2.98872l.36259.9031c.72878 1.81503 3.92023 9.39107 4.71122 11.18384.13483.30567.75785 1.80608 1.38438 3.3343.62653 1.5282 1.25423 3.0287 1.39478 3.33433.1406.30563 1.20276 2.8689 2.36028 5.69617 1.15756 2.82722 2.21705 5.39049 2.35437 5.69611.13736.30563.89985 2.11865 1.69445 4.02895 1.87805 4.5152 3.82998 9.162 4.14348 9.86402.13647.30567.51186 1.1809.83417 1.94504.32236.76408.69868 1.63937.83633 1.945.13764.30566.57623 1.36848.97472 2.36181.67909 1.69305 1.2285 3.00214 1.8075 4.30686.13567.30563.5726 1.36844.97106 2.36173.39845.99338.90421 2.20013 1.12385 2.6817.21974.48152.39948.9615.39948 1.06652 0 .10497.3751 1.0013.83357 1.99187.45846.99048.8336 1.86713.8336 1.94795 0 .08083.17975.54102.39944 1.0226.21969.48156.72545 1.6883 1.12386 2.68164.39845.99338.83703 2.05615.97472 2.36187.9624 2.13716 1.39202 3.20434 1.39202 3.45797 0 .44664-7.63033.39489-7.9908-.05424-.15335-.19105-1.37154-3.03561-2.70711-6.3213-1.33553-3.28567-2.59295-6.34908-2.7943-6.80759-.20137-.45845-.69213-1.64626-1.09053-2.63964-.39845-.99334-.83703-2.05615-.97472-2.36182-.37675-.8367-1.25846-2.94016-1.66056-3.96167l-.35635-.9052-16.53032.07164-16.53021.07163-1.64519 4.029c-.90482 2.21592-1.76562 4.31839-1.91283 4.6722-.14716.35383-.2676.7045-.2676.77933 0 .1189-.60323 1.54935-1.39202 3.301-.13765.30568-.57628 1.3685-.97473 2.36183-.3984.99333-.8885 2.18114-1.08902 2.63964-.20056.4585-.77997 1.8651-1.2877 3.1259l-.92307 2.29235h-3.81896c-2.10045 0-3.87372-.09372-3.94062-.2084zm48.43642-29.11414c0-.13708-.95681-2.5185-1.78283-4.43738-.19732-.45846-.65255-1.6463-1.01152-2.63964-.35902-.99338-.81415-2.1187-1.01143-2.50078-.19728-.38204-.35945-.79526-.36039-.91833-.00468-.19362-.49127-1.38447-1.39375-3.38849-.13765-.30562-.57623-1.36848-.97468-2.36177-.3984-.99338-.88832-2.18123-1.08864-2.63974-.20033-.45846-.59405-1.45878-.87492-2.22286-.28091-.76413-.67111-1.70187-.86713-2.08395-.19596-.38204-.35714-.8008-.35808-.93052 0-.12972-.18247-.62986-.40333-1.11143-.2209-.48157-.86145-2.06346-1.42343-3.51526-.56197-1.4518-1.23871-3.13978-1.50393-3.75107-.26516-.61135-.6556-1.518-.8675-2.015-.48073-1.12713-.79582-1.03693-1.26924.36348-.2037.60267-.48837 1.34585-.63253 1.65152-.1442.30562-.52587 1.18086-.84823 1.94499-.32236.76408-.69892 1.63937-.8369 1.94504-.22592.50056-3.24896 7.72601-6.9752 16.67161-.76389 1.83384-1.50054 3.58441-1.63707 3.89004-.13652.30562-.75869 1.80608-1.38264 3.33434-.62395 1.52821-1.3179 3.18915-1.54209 3.69102-.22419.50187-.40764.97074-.40764 1.042 0 .07121 6.62696.12953 14.72658.12953 8.09956 0 14.72652-.06638 14.72652-.14735zm93.21445 28.98358c-.07445-.19559-.10323-16.92304-.06394-37.17208l.07144-36.81643h7.22437l.07164 16.46317.07169 16.46323h43.61958V48.97926h7.50219v74.46643h-7.5022V88.71325h-43.61981L361.4821 106.01l-.07154 17.29679-3.54827.07782c-2.68483.05884-3.58117-.00844-3.6836-.27787zm74.89072-36.89421V48.97926h48.90334v6.9465H436.57158V82.04462h36.12173v6.66864h-36.12173v27.78597h42.23468V123.44568H429.0694z"/><g stroke-width="2.558"><path d="M86.00326 155.32453v-23.04925h3.891v9.9913h11.4422v-9.9913h3.891v23.04925h-3.891v-9.43074h-11.4422v9.43074zm34.3379-19.48799v19.48799h-3.891v-19.48799h-6.99062v-3.56126h17.87223v3.56126zm19.90068 0v19.48799h-3.891v-19.48799h-6.99062v-3.56126h17.87224v3.56126zm19.1093-3.56126q5.24296 0 7.6501 2.01145 2.40715 2.01146 2.40715 6.19923 0 4.18778-2.4731 6.13328-2.44012 1.9455-7.5182 1.9455h-4.08886v6.75979h-3.891v-23.04925zm.49462 12.76117q3.2315 0 4.38562-1.22005 1.18708-1.25304 1.18708-3.62721 0-2.40715-1.48385-3.39638-1.48386-.98924-4.64942-.98924h-3.95696v9.23288zm30.10683-9.7275q-1.6817 0-2.76987.69246-1.08815.69247-1.08815 2.11038 0 1.38493 1.08815 2.14335 1.08817.72544 4.61645 1.58278 3.56126.85734 5.34188 2.40715 1.8136 1.5498 1.8136 4.58346 0 3.0007-2.27524 4.88024-2.27525 1.87956-5.9684 1.87956-5.40784 0-9.5956-3.72613l2.44011-2.93474q3.4953 3.03366 7.25441 3.03366 1.87955 0 2.96771-.7914 1.12114-.82435 1.12114-2.14334 0-1.35196-1.05519-2.0774-1.0222-.75841-3.56125-1.35196-2.53905-.62652-3.85803-1.12114-1.31898-.52759-2.3412-1.35195-2.04442-1.5498-2.04442-4.74835 0-3.19853 2.30822-4.91321 2.3412-1.74765 5.77055-1.74765 2.2093 0 4.38563.72544 2.17632.72544 3.7591 2.04443l-2.0774 2.93473q-1.02221-.92329-2.76987-1.51683-1.74765-.59354-3.46233-.59354zm30.03522-3.03367v3.66019H207.6883v6.1003h11.04649v3.46233h-11.0465v6.16625h12.69523v3.66018H203.7973v-23.04925zm23.78447 7.48524q0 5.7046-4.97916 7.18846l6.03435 8.37555h-4.94619l-5.50676-7.74903h-5.11106v7.74903h-3.891v-23.04925h8.57339q5.27594 0 7.55119 1.78063 2.27524 1.78063 2.27524 5.7046zm-9.66155 4.2867q3.29745 0 4.48454-1.02222 1.18708-1.0222 1.18708-3.26448 0-2.27525-1.22005-3.09961-1.22006-.85734-4.35265-.85734h-4.9462v8.24364zm25.48111 11.2773h-4.35264l-9.26587-23.04924h4.35265l7.08954 17.21275 7.08954-17.21275h4.35264zm28.7281-23.04924v3.66019h-12.29952v6.1003h11.04648v3.46233h-11.04648v6.16625h12.69521v3.66018h-16.58622v-23.04925zm23.78447 7.48524q0 5.7046-4.97916 7.18846l6.03435 8.37555h-4.94619l-5.50676-7.74903h-5.11106v7.74903h-3.891v-23.04925h8.5734q5.27593 0 7.55118 1.78063 2.27524 1.78063 2.27524 5.7046zm-9.66155 4.2867q3.29746 0 4.48454-1.02222 1.18709-1.0222 1.18709-3.26448 0-2.27525-1.22006-3.09961-1.22006-.85734-4.35265-.85734h-4.94619v8.24364zm32.21464-11.77194q5.24296 0 7.6501 2.01145 2.40715 2.01146 2.40715 6.19923 0 4.18778-2.4731 6.13328-2.44012 1.9455-7.5182 1.9455h-4.08885v6.75979h-3.891v-23.04925zm.49461 12.76117q3.23152 0 4.38563-1.22005 1.18708-1.25304 1.18708-3.62721 0-2.40715-1.48385-3.39638-1.48386-.98924-4.64942-.98924h-3.95695v9.23288zm32.53253-5.27593q0 5.7046-4.97917 7.18846l6.03435 8.37555h-4.94619l-5.50675-7.74903h-5.11106v7.74903h-3.891v-23.04925h8.57339q5.27593 0 7.55118 1.78063 2.27525 1.78063 2.27525 5.7046zm-9.66156 4.2867q3.29746 0 4.48455-1.02222 1.18708-1.0222 1.18708-3.26448 0-2.27525-1.22006-3.09961-1.22006-.85734-4.35265-.85734h-4.94618v8.24364zm31.70559-6.33112q-2.3412-2.44013-5.77056-2.44013-3.42936 0-5.80353 2.44013-2.3412 2.44011-2.3412 5.93542 0 3.46234 2.3412 5.90245 2.37417 2.44012 5.80353 2.44012 3.42936 0 5.77056-2.44012 2.37417-2.44011 2.37417-5.90245 0-3.4953-2.37417-5.93542zm2.86878 14.44287q-3.4953 3.39638-8.63934 3.39638t-8.63934-3.39638q-3.49531-3.42936-3.49531-8.50745 0-5.11106 3.4953-8.50745 3.49531-3.42935 8.63935-3.42935t8.63934 3.42935q3.49531 3.39639 3.49531 8.50745 0 5.07809-3.4953 8.50745zm8.45336-16.38838v-3.4953h11.21136v15.20129q0 4.0229-2.04443 6.03435-2.04442 2.01145-5.24295 2.01145-4.0229 0-6.85872-2.83582l2.2093-3.06664q2.24227 2.14335 4.38562 2.14335 1.51683 0 2.57202-1.02221 1.08816-1.02221 1.08816-3.06664V135.7706zm33.5939-3.4953v3.66018H422.3452v6.1003h11.0465v3.46233h-11.0465v6.16625h12.69522v3.66018h-16.58622v-23.04925zm15.90351 19.52096q2.01148 0 3.46238-.6595 1.45086-.69246 3.03364-2.17632l2.50608 2.57202q-3.66017 4.05588-8.90313 4.05588-5.21 0-8.67232-3.36341-3.42938-3.36341-3.42938-8.50745t3.4953-8.5734q3.52828-3.42935 8.87016-3.42935 5.37488 0 8.96909 3.95695l-2.47307 2.70391q-1.64875-1.58277-3.13261-2.2093-1.45086-.6265-3.42933-.6265-3.49533 0-5.86948 2.27524-2.3742 2.24227-2.3742 5.77055 0 3.4953 2.3412 5.86948 2.3742 2.3412 5.60567 2.3412zm22.46656-15.95971v19.48799h-3.89102v-19.48799h-6.99062v-3.56126h17.87222v3.56126z"/></g></g></svg>