<svg xmlns="http://www.w3.org/2000/svg" role="img" viewBox="-3.94 -3.94 204.88 69.63"><title>Apache Storm logo</title><g fill="#3c3c3b"><path d="M84.97694 28.02117q-1.4225 0-2.34294.58574-.92044.58573-.92044 1.78509 0 1.17147.92044 1.81299.92044.61363 3.9049 1.33882 3.01235.7252 4.51852 2.03613 1.53407 1.31093 1.53407 3.87701 0 2.53818-1.92456 4.12803-1.92455 1.58985-5.04847 1.58985-4.57431 0-8.11661-3.15181l2.06402-2.4824q2.95656 2.56608 6.13627 2.56608 1.58985 0 2.51029-.66941.94833-.69731.94833-1.81299 0-1.14358-.89255-1.75721-.86465-.64152-3.01235-1.14357-2.14769-.52995-3.26338-.94834-1.11568-.44627-1.98034-1.14357-1.72931-1.31093-1.72931-4.01647t1.95245-4.15593q1.98034-1.47828 4.88112-1.47828 1.86877 0 3.70965.61363 1.84088.61363 3.17971 1.72931l-1.75721 2.4824q-.86465-.78098-2.34294-1.28304-1.47828-.50206-2.92867-.50206zm19.07429.44628v16.48424h-3.29127V28.46745h-5.91313V25.4551h15.11753v3.01235zm22.81533 1.58985q-1.98035-2.06402-4.88113-2.06402-2.90078 0-4.90901 2.06402-1.98034 2.06402-1.98034 5.02058 0 2.92867 1.98034 4.99269 2.00823 2.06402 4.90901 2.06402t4.88113-2.06402q2.00823-2.06402 2.00823-4.99269 0-2.95656-2.00823-5.02058zm2.42661 12.21675q-2.95656 2.87289-7.30774 2.87289-4.35117 0-7.30773-2.87289-2.95657-2.90078-2.95657-7.19617 0-4.32328 2.95657-7.19617 2.95656-2.90078 7.30773-2.90078 4.35118 0 7.30774 2.90078 2.95657 2.87289 2.95657 7.19617 0 4.29539-2.95657 7.19617zm22.67194-10.48744q0 4.82534-4.21171 6.08048l5.10426 7.0846h-4.18382l-4.65799-6.55465h-4.32328v6.55465h-3.29127V25.4551h7.25196q4.46274 0 6.38729 1.50617 1.92456 1.50618 1.92456 4.82534zm-8.17239 3.62598q2.78921 0 3.79333-.86466 1.00411-.86466 1.00411-2.76132 0-1.92456-1.03201-2.62186-1.03201-.72519-3.68176-.72519h-4.18382v6.97303zm16.21971 9.5391h-3.29127V25.4551h5.13215l5.88524 12.24464 5.88524-12.24464h5.10426v19.49659h-3.29128v-15.2291l-6.80567 13.52768h-1.84088l-6.77779-13.52768z" stroke-width="2.092"/><path d="M89.00523 20.3451l-1.39076-3.1512h-6.7073l-1.37315 3.1512h-1.49638l5.5278-12.32314h1.46117l5.5102 12.32314zm-7.51711-4.45394h5.56301l-2.79911-6.33761zm15.62837-7.8692q2.28858 0 3.5385 1.09148 1.26752 1.07387 1.26752 3.04558 0 2.02451-1.26752 3.1512-1.24992 1.12668-3.5385 1.12668h-3.22162v3.9082h-1.40836V8.02196zm-.0528 7.11221q1.67243 0 2.58786-.73939.91543-.75699.91543-2.20056 0-1.40835-.91543-2.13014-.91543-.73938-2.58786-.73938h-3.1688v5.80947zm15.7007 5.21093l-1.39076-3.1512h-6.7073l-1.37315 3.1512h-1.49638l5.52781-12.32314h1.46117l5.5102 12.32314zm-7.51711-4.45394h5.56301l-2.79911-6.33761zm19.61441-5.1405q-.72179-.72179-1.69003-1.12669-.95064-.42251-1.9541-.42251-1.37315 0-2.53504.66897-1.14429.65137-1.81326 1.79566-.66897 1.14429-.66897 2.49984 0 1.33794.66897 2.48223t1.81326 1.81326q1.16189.66897 2.53504.66897 1.00346 0 1.9541-.3873.95064-.4049 1.69003-1.10908l.86262.93303q-.93304.88023-2.13015 1.39076-1.17949.49292-2.44702.49292-1.74284 0-3.20401-.82741-1.46117-.84501-2.32379-2.28858-.84502-1.44357-.84502-3.1688 0-1.70764.86262-3.1336.86262-1.44357 2.32379-2.27098 1.47878-.84501 3.23923-.84501 1.24991 0 2.42941.47532 1.1795.47532 2.07733 1.33794zm3.3839-2.7287h1.40836v5.58062h7.42909V8.02196h1.40836V20.3451h-1.40836v-5.45739h-7.42909v5.45739h-1.40836zm13.99419 0h8.36212V9.3247h-6.95376v4.13705h6.21437v1.28512h-6.21437v4.29549h7.18262v1.30274h-8.59098z" stroke-width="1.32"/></g><path fill="#225593" d="M22.92765 61.52158c.0485-.13323 4.26216-3.49674 9.36366-7.47447 11.31865-8.82535 10.70058-8.33301 10.70058-8.52366 0-.0863-4.12103-.18824-9.15784-.22651l-9.15783-.0696 2.74169-2.09605c1.50792-1.15283 5.01282-3.91074 7.78866-6.1287l5.04698-4.03264 7.12386-.0991c6.51936-.0907 7.25529-.14785 8.67287-.67402 3.16221-1.17374 4.78968-3.22159 4.79687-6.03593.006-2.35869-1.00807-3.91472-3.31341-5.08409-2.08648-1.05836-3.93778-1.37826-7.98765-1.38026l-3.10308-.002 1.05402-1.63077c1.24753-1.93019 1.67348-3.26997 1.66856-5.2484-.005-1.94505-.75689-3.55582-2.42836-5.20113C42.45912 3.40309 34.71895 2.28404 29.00791 5.051c-2.0937 1.01438-8.81572 6.32869-7.31498 5.7831.29104-.10581 2.13651-.25086 4.10104-.32233 5.65476-.20572 8.98213.74495 11.74157 3.35471 3.54195 3.34983 4.61477 8.67723 2.5798 12.81083-2.119 4.30429-7.2825 6.95623-15.24741 7.83098-1.6293.17894-6.91441.26073-13.7561.2129l-11.11026-.0777 3.56964-2.79072c1.9633-1.5349 5.67139-4.42216 8.24021-6.41614l4.67057-3.62543H22.4029l-1.41332 1.13893c-.77733.62641-3.42286 2.68024-5.87895 4.56406l-4.46564 3.42514 5.92085.0809c8.29842.11333 12.0895-.39753 15.80666-2.13 2.12364-.98977 3.59468-2.31146 4.44894-3.99724.56949-1.12384.65312-1.59292.56904-3.19179-.25877-4.92121-3.80752-7.56287-10.15979-7.56287-4.78586 0-9.5912 1.22773-16.91484 4.32164-1.89178.79918-3.47443 1.41868-3.51702 1.37665C6.62501 19.66508 19.79987 7.112 22.356 5.01366c2.41255-1.98048 4.93577-3.45603 7.33677-4.29048 1.87059-.65011 2.40928-.71479 6.02308-.72315 3.3627-.008 4.28968.0831 6.07044.59549 8.51762 2.45062 13.53657 9.30462 11.12786 15.19645-.16653.40734-.0167.46302 1.2462.46302 4.04714 0 8.14725 2.43807 9.66115 5.74487 2.16999 4.73989.0934 10.48433-4.66109 12.89359-2.4903 1.26193-4.17638 1.51578-11.00915 1.65747l-6.35.13168-3.42426 2.55234-3.42427 2.55234 9.24408.13229 9.24408.1323-1.45419 1.11651c-.7998.61408-5.5206 4.26227-10.49066 8.10708-4.97005 3.84481-10.06775 7.77746-11.32821 8.73922l-2.29175 1.74864h-2.51831c-1.41185 0-2.47956-.10643-2.43012-.24224z"/><path fill="#7a7572" d="M40.24493 32.97685l6.12681-.13705-4.57048 3.8428-6.12426-.0539z"/><path fill="#ea9941" d="M35.91605 36.56607c-.41076-.0587-.60728.40693-.92988.57336-3.37315 2.70275-6.78713 5.35502-10.21714 7.98605.16968.22446.76969.048 1.09986.11882 4.81674.0986 9.63546.0528 14.45179.18674.86664.053 1.78644-.0282 2.62163.15824-1.35782 1.23122-2.86121 2.30557-4.28917 3.45852L24.10328 60.48835l-1.65118 1.3426 5.35538-.006c.16436-.11791.38876-.28783.5598-.38302l.213-.17814s18.56886-14.31062 24.85243-19.17411c-.12386-.21514-.65471-.0374-.94158-.0923-5.78881-.0569-11.5776-.13784-17.36547-.25644 2.16605-1.71984 4.44892-3.31086 6.62445-5.00569-.42922-.12927-.97987-.0342-1.45472-.0786-1.45986-.0246-2.91963-.0602-4.37927-.0906z"/><path fill="#326ba3" d="M7.11302 19.47115c.49377-.56996 7.23171-7.11039 7.5672-7.34538.40585-.28426 3.99958-1.05852 5.93626-1.27893.34912-.0397.71331-.085.80931-.10066.13855-.0225.01.13277-.62434.75318-1.21971 1.19331-2.13767 2.34774-2.96769 3.73218-.27817.46397-.41022.62282-.54605.65686-.75243.18857-4.55211 1.62754-7.06134 2.6742-1.66803.69577-3.23363 1.30213-3.36208 1.30213-.0507 0 .0612-.17711.24873-.39358z"/><path fill="#318fbf" d="M27.09411 10.52491c-1.88235.007-3.776.10427-5.63772.32952-.68925.49086-1.20187 1.19817-1.78423 1.80746-.83501.95602-1.57001 2.00708-2.20223 3.10323.10237.18609.42424-.0709.6035-.0651 3.10862-.88602 6.31689-1.53828 9.5633-1.41619 1.82313-.0111 3.67417.29801 5.34775 1.01433 1.83899.78898 3.36258 2.34084 3.93335 4.28088.38216 1.31111.55037 2.73301.30159 4.08486-.61887 2.35235-2.55106 4.13748-4.70598 5.14768-2.90969 1.442-6.18375 1.95572-9.40097 2.12902-4.10937.0779-8.22236.13984-12.33107.001 3.82673-2.95545 7.69628-5.85856 11.44848-8.9085.23424-.2087-.21747-.18947-.345-.18855-1.81841-.0411-3.64246-.0352-5.45819-.0171-5.47567 4.26511-10.95814 8.52152-16.42677 12.79566.17127.22395.76975.0472 1.10028.11768 6.54831.0925 13.09799.035 19.64664.00052 2.0252.003 4.05829-.0292 6.0581-.38424 3.66931-.59858 7.42585-1.63632 10.3816-3.99243 2.08248-1.66042 3.58932-4.12329 3.86377-6.79403.10284-1.74386.0754-3.54568-.59233-5.18846-.67721-1.81799-1.7721-3.48081-3.24469-4.75239-1.88353-1.74427-4.38938-2.66814-6.91338-2.94897-1.0625-.14027-2.13555-.15883-3.2058-.15595z"/><g fill="#2b629c" stroke-width=".559"><path d="M79.89072 54.41163q.75283 0 1.36403.34287.61121.34287.96153.93917.35778.59629.35778 1.32676 0 .73046-.35778 1.32676-.35032.5963-.96898.93917-.61866.34287-1.37894.34287h-2.08704v-5.2176zm.007 4.66602q.57393 0 1.04352-.26833.47704-.26834.75282-.73792.27579-.46958.27579-1.04352 0-.58139-.28324-1.05097-.27579-.46959-.75283-.73792-.47703-.27579-1.05842-.27579h-1.4982v4.11445zm3.68306-3.36908h.57393v3.92066h-.57393zm.28324-1.52801q.16398 0 .26833.11926.11181.11181.11181.28324 0 .17144-.11181.28325-.10435.1118-.26833.1118-.16398 0-.27579-.1118-.10435-.11181-.10435-.28325 0-.17143.10435-.28324.11181-.11926.27579-.11926zm3.78334 2.3032q-.23107-.14907-.51431-.23106-.28324-.082-.55157-.082-.35033 0-.56648.13417-.20871.12671-.20871.39505 0 .18634.11926.3056.11926.11926.29815.1938.17889.0671.49195.16398.40995.12671.66338.24597.26088.11926.43976.34287.17889.22361.17889.58884 0 .54413-.4174.82737-.40996.28324-1.02116.28324-.42486 0-.82736-.14162-.4025-.14908-.67829-.40996l.22361-.42486q.24597.23107.5963.36523.35777.13417.7081.13417.37268 0 .60375-.14907.23852-.14908.23852-.43977 0-.28324-.23107-.42486-.23106-.14163-.70065-.27579-.39504-.11926-.64101-.23107-.24598-.11926-.42487-.33541-.17143-.21616-.17143-.56649 0-.52921.38759-.79754.38759-.27579.97644-.27579.34287 0 .67083.0969.32796.0969.58139.26088zm3.33274 2.87713q-.43977.2907-.9019.2907-.44722 0-.71556-.27579-.26833-.28324-.26833-.83482v-2.25847h-.56648v-.45468h.56648v-1.02861h.57394v1.02861h1.24477v.45468h-1.24477v2.16158q0 .35032.12671.5143.13417.15653.39505.15653.3056-.0149.62611-.20125zm1.46559-2.78023q.19379-.43232.55157-.65593.35778-.23106.85718-.23852v.56649q-.61121-.007-.98389.34287-.37269.34287-.42486.94662v2.08704h-.58139v-3.92066h.58139zm2.18463-.87209h.57394v3.92066h-.57394zm.28324-1.52801q.16398 0 .26834.11926.1118.11181.1118.28324 0 .17144-.1118.28325-.10436.1118-.26834.1118-.16398 0-.27578-.1118-.10436-.11181-.10436-.28325 0-.17143.10436-.28324.1118-.11926.27578-.11926zm3.84297 1.50565q.55158 0 .97644.25343.43231.25343.67083.7081.23852.44722.23852 1.02861 0 .57394-.23852 1.02862-.23106.44722-.65592.70065-.42486.24597-.97644.24597-.52176 0-.91681-.22361-.38759-.23107-.6112-.64102v.84227h-.58139v-5.53066h.58139v2.45227q.22361-.40995.6112-.63356.39505-.23107.9019-.23107zm-.10435 3.45107q.4025 0 .72301-.18634.32051-.1938.4994-.52921.17889-.33542.17889-.76028 0-.41741-.17889-.75283-.17889-.34287-.4994-.52921-.32051-.1938-.72301-.1938-.40995 0-.73046.1938-.32051.18634-.4994.52176t-.17889.76028q0 .42486.17889.76028.17889.33541.4994.52921.32051.18634.73046.18634zm6.41602-3.42871v3.92066h-.58139v-.887q-.38014.89445-1.49075.90936-.68574 0-1.08078-.40996-.3876-.40995-.3876-1.11805v-2.41501h.58139v2.26593q0 .52176.2907.81991.29069.29815.79755.29815.60375-.007.94662-.40995.34287-.40251.34287-1.05098v-1.92306zm3.43977 3.65232q-.43977.2907-.9019.2907-.44722 0-.71556-.27579-.26833-.28324-.26833-.83482v-2.25847h-.56648v-.45468h.56648v-1.02861h.57394v1.02861h1.24476v.45468h-1.24476v2.16158q0 .35032.12671.5143.13417.15653.39504.15653.30561-.0149.62612-.20125zm2.37633-3.67468q.93172 0 1.4013.5963.47704.58884.43232 1.60255h-3.2051q.0745.58139.46213.93171.38759.35033.96153.35033.35778 0 .67083-.12672.31306-.13416.54412-.37268l.32051.33541q-.28324.31306-.69319.4845-.4025.16398-.88699.16398-.57394 0-1.02116-.24597-.43977-.25343-.68574-.70065-.24598-.45468-.24598-1.03607 0-.57394.24598-1.02116.24597-.45467.68574-.7081.44722-.25343 1.0137-.25343zm1.31186 1.73672q-.0298-.57394-.3876-.90935-.35032-.34288-.92426-.34288-.56648 0-.93916.34288-.37269.33541-.43232.90935zm5.12733-3.32436v5.53066h-.58139v-.84227q-.22361.41741-.61865.64847-.3876.22361-.90936.22361-.55157 0-.98389-.25342-.43231-.25343-.67083-.70811-.23852-.45467-.23852-1.03606t.23852-1.02862q.23852-.45467.66338-.70064.43231-.25343.98389-.25343.52176 0 .91681.23106.4025.22362.61865.64848v-2.45973zm-1.99759 5.06107q.40995 0 .73046-.18634.32051-.1938.4994-.52921.18634-.34287.18634-.76774 0-.42486-.18634-.76773-.17889-.34287-.4994-.52921-.32051-.1938-.73046-.1938-.40996 0-.73792.1938-.32051.18634-.50685.52921-.17889.34287-.17889.76773 0 .42487.17889.76774.18634.33541.50685.52921.32796.18634.73792.18634zm5.75031-2.0125q.16398 0 .26833.11926.1118.11181.1118.28324 0 .17144-.1118.28324-.10435.11181-.26833.11181-.16399 0-.27579-.11181-.10435-.1118-.10435-.28324 0-.17143.10435-.28324.1118-.11926.27579-.11926zm7.19958 2.48209l-1.0957-1.66963q-.2087.0149-.33541.0149h-1.38639v1.65473h-.5963v-5.2176h1.98269q.97643 0 1.5131.46213.54412.45468.54412 1.28949 0 .64102-.3056 1.07334-.3056.43231-.87208.6112l1.22986 1.78144zm-1.43111-2.2063q.71555 0 1.09569-.31306.3876-.32051.3876-.93171 0-.5963-.3876-.9019-.38014-.31306-1.09569-.31306h-1.38639v2.45973zm4.87216-1.73672q.93172 0 1.4013.5963.47704.58884.43231 1.60255h-3.20509q.0745.58139.46213.93171.38759.35033.96153.35033.35778 0 .67083-.12672.31306-.13416.54412-.37268l.32051.33541q-.28324.31306-.69319.4845-.4025.16398-.88699.16398-.57394 0-1.02116-.24597-.43977-.25343-.68574-.70065-.24598-.45468-.24598-1.03607 0-.57394.24598-1.02116.24597-.45467.68574-.7081.44722-.25343 1.0137-.25343zm1.31186 1.73672q-.0298-.57394-.3876-.90935-.35032-.34288-.92426-.34288-.56648 0-.93917.34288-.37268.33541-.43231.90935zm3.59187-.93917q-.23106-.14907-.5143-.23106-.28325-.082-.55158-.082-.35032 0-.56648.13417-.20871.12671-.20871.39505 0 .18634.11926.3056.11926.11926.29815.1938.17889.0671.49195.16398.40995.12671.66338.24597.26088.11926.43977.34287t.17889.58884q0 .54413-.41741.82737-.40996.28324-1.02116.28324-.42486 0-.82736-.14162-.4025-.14908-.67829-.40996l.22361-.42486q.24597.23107.5963.36523.35778.13417.7081.13417.37269 0 .60375-.14907.23852-.14908.23852-.43977 0-.28324-.23107-.42486-.23106-.14163-.70064-.27579-.39505-.11926-.64102-.23107-.24598-.11926-.42486-.33541-.17144-.21616-.17144-.56649 0-.52921.38759-.79754.3876-.27579.97644-.27579.34287 0 .67083.0969.32797.0969.58139.26088zm1.30533-.77519h.57394v3.92066h-.57394zm.28324-1.52801q.16398 0 .26833.11926.11181.11181.11181.28324 0 .17144-.11181.28325-.10435.1118-.26833.1118-.16398 0-.27579-.1118-.10435-.11181-.10435-.28325 0-.17143.10435-.28324.11181-.11926.27579-.11926zm1.74848-.08199h.5814v5.53066h-.5814zm2.02998 1.61h.57393v3.92066h-.57393zm.28324-1.52801q.16398 0 .26833.11926.1118.11181.1118.28324 0 .17144-.1118.28325-.10435.1118-.26833.1118-.16398 0-.2758-.1118-.10434-.11181-.10434-.28325 0-.17143.10435-.28324.1118-.11926.27579-.11926zm3.26157 1.50565q.93172 0 1.4013.5963.47704.58884.43232 1.60255h-3.2051q.07454.58139.46213.93171.3876.35033.96153.35033.35778 0 .67083-.12672.31306-.13416.54412-.37268l.32051.33541q-.28324.31306-.6932.4845-.4025.16398-.88698.16398-.57394 0-1.02116-.24597-.43977-.25343-.68574-.70065-.24598-.45468-.24598-1.03607 0-.57394.24598-1.02116.24597-.45467.68574-.7081.44722-.25343 1.0137-.25343zm1.31186 1.73672q-.02981-.57394-.3876-.90935-.35032-.34288-.92426-.34288-.56648 0-.93916.34288-.37269.33541-.43232.90935zm3.62168-1.73672q.70065 0 1.0957.40996.39505.4025.39505 1.11805v2.41501h-.5814V57.3633q0-.52176-.29814-.81991-.2907-.29815-.81246-.29815-.57393.007-.92426.35778-.34287.34287-.39504.92426v2.10195h-.5814v-3.92066h.5814v.86464q.4025-.87209 1.52055-.887zm4.81697 3.67468q-.43977.2907-.9019.2907-.44722 0-.71556-.27579-.26833-.28324-.26833-.83482v-2.25847h-.56648v-.45468h.56648v-1.02861h.57394v1.02861h1.24477v.45468h-1.24477v2.16158q0 .35032.1267.5143.13418.15653.39506.15653.3056-.0149.6261-.20125zm3.1783-2.21375q.16399 0 .26834.11926.1118.11181.1118.28324 0 .17144-.1118.28324-.10435.11181-.26833.11181-.16398 0-.2758-.11181-.10434-.1118-.10434-.28324 0-.17143.10435-.28324.1118-.11926.27579-.11926zm7.1996 2.48209l-1.0957-1.66963q-.2087.0149-.33542.0149h-1.38639v1.65473h-.5963v-5.2176h1.9827q.97643 0 1.5131.46213.54412.45468.54412 1.28949 0 .64102-.3056 1.07334-.3056.43231-.87209.6112l1.22986 1.78144zm-1.43112-2.2063q.71556 0 1.0957-.31306.3876-.32051.3876-.93171 0-.5963-.3876-.9019-.38014-.31306-1.0957-.31306h-1.38639v2.45973zm4.87216-1.73672q.93172 0 1.4013.5963.47704.58884.43232 1.60255h-3.2051q.07454.58139.46213.93171.3876.35033.96153.35033.35778 0 .67083-.12672.31306-.13416.54412-.37268l.32051.33541q-.28324.31306-.6932.4845-.4025.16398-.88698.16398-.57394 0-1.02116-.24597-.43977-.25343-.68574-.70065-.24597-.45468-.24597-1.03607 0-.57394.24597-1.02116.24597-.45467.68574-.7081.44722-.25343 1.0137-.25343zm1.31186 1.73672q-.02981-.57394-.3876-.90935-.35032-.34288-.92426-.34288-.56648 0-.93916.34288-.37269.33541-.43232.90935zm3.9571 2.2063v-.61121q-.46958.63357-1.43857.63357-.39504 0-.70064-.15653-.3056-.15653-.46959-.42486-.16398-.26834-.16398-.60375 0-.51431.3876-.81246.38759-.3056 1.08078-.31305h1.2895v-.24598q0-.43976-.26834-.67828-.26833-.24598-.78264-.24598-.60375 0-1.24477.45468l-.24597-.40995q.4174-.27579.76773-.4025.35778-.12672.83482-.12672.723 0 1.1106.35778.39505.35778.4025.99135l.0075 2.59389zm-1.32676-.46213q.4994 0 .84972-.23107.35778-.23852.46959-.65593v-.47703h-1.22241q-.9988 0-.9988.64102 0 .32796.24597.52921.24598.1938.65593.1938zm3.22129-5.06853h.58139v5.53066h-.58139zm1.7989 3.06348h1.75163v.42486h-1.75163zm4.96627 2.19884q-.43977.2907-.9019.2907-.44722 0-.71555-.27579-.26834-.28324-.26834-.83482v-2.25847h-.56648v-.45468h.56648v-1.02861h.57394v1.02861h1.24477v.45468h-1.24477v2.16158q0 .35032.12671.5143.13417.15653.39505.15653.3056-.0149.62611-.20125zm.8842-3.65232h.57394v3.92066h-.57394zm.28324-1.52801q.16398 0 .26833.11926.1118.11181.1118.28324 0 .17144-.1118.28325-.10435.1118-.26833.1118-.16398 0-.27579-.1118-.10435-.11181-.10435-.28325 0-.17143.10435-.28324.1118-.11926.27579-.11926zm6.74246 1.50565q.68574 0 1.07333.40996.3876.4025.3876 1.11805v2.41501h-.5814V57.3633q0-.52922-.29069-.82736-.2907-.29815-.79754-.29815-.60375.0149-.94662.41741-.33542.39504-.33542 1.04352v1.93051h-.58884V57.3633q0-.52922-.2907-.82736-.28324-.29815-.79755-.29815-.5963.0149-.94662.41741-.34287.4025-.34287 1.04352v1.93051h-.57394v-3.92066h.57394v.887q.1938-.44723.57394-.67084.38014-.23106.92426-.23852.55157 0 .9168.26834.36524.26833.49195.75282.17889-.50685.57393-.76028.4025-.25342.97644-.26088zm4.30767 0q.93171 0 1.4013.5963.47703.58884.43231 1.60255h-3.2051q.07455.58139.46214.93171.38759.35033.96152.35033.35778 0 .67084-.12672.31305-.13416.54412-.37268l.3205.33541q-.28323.31306-.69319.4845-.4025.16398-.88699.16398-.57393 0-1.02116-.24597-.43976-.25343-.68574-.70065-.24597-.45468-.24597-1.03607 0-.57394.24597-1.02116.24598-.45467.68574-.7081.44723-.25343 1.0137-.25343zm1.31185 1.73672q-.0298-.57394-.3876-.90935-.35032-.34288-.92425-.34288-.56648 0-.93917.34288-.37268.33541-.43231.90935z"/></g><g fill="#3c3c3b" stroke-width=".265"><path d="M181.8239 25.79855v2.08492h-.41629v-2.08492h-.74789v-.381h1.91206v.381zm1.614 2.08492h-.41627v-2.46592h.6491l.74437 1.5487.74436-1.5487h.64558v2.46592h-.41627V25.9573l-.86078 1.71097h-.23284l-.85725-1.71097z"/></g></svg>