<svg xmlns="http://www.w3.org/2000/svg" role="img" viewBox="10.05 11.42 147.03 49.28"><title>Apache ActiveMQ logo</title><defs><filter id="a" color-interpolation-filters="sRGB"><feFlood flood-color="#000" flood-opacity=".498" result="flood"/><feComposite in="flood" in2="SourceGraphic" operator="in" result="composite1"/><feGaussianBlur in="composite1" result="blur" stdDeviation=".2"/><feOffset dx="1" dy="1" result="offset"/><feComposite in="SourceGraphic" in2="offset" operator="over" result="composite2"/></filter></defs><g fill="#fff" stroke-dasharray="none" stroke-miterlimit="4" stroke-width=".395" filter="url(#a)" display="inline" transform="translate(-27.263 -96.95)"><path d="M64.6972 153.55181l-8.35185-.0491-4.1334-7.25747 4.21846-7.20836 8.35185.0491 4.13339 7.25746z"/><path d="M52.63214 146.55309l-8.35185-.0491-4.1334-7.25747 4.21846-7.20835 8.35185.0491 4.1334 7.25747z" display="inline"/><path d="M64.77126 139.58889l-8.35184-.0491-4.1334-7.25747 4.21846-7.20836 8.35185.0491 4.13339 7.25747z" display="inline"/><path d="M64.76549 125.70228l-8.35185-.0491-4.1334-7.25747 4.21846-7.20836 8.35185.0491 4.1334 7.25747z" display="inline"/><path d="M52.69604 132.67611l-8.35185-.0491-4.1334-7.25747 4.21846-7.20836 8.35185.0491 4.1334 7.25747z" display="inline"/></g><g display="inline" transform="translate(-27.263 -96.95)"><path fill="#c12766" fill-opacity="1" stroke="none" stroke-dasharray="none" stroke-miterlimit="4" stroke-opacity="1" stroke-width="3" d="M64.27326 138.65693l-7.29642-.02227-3.62892-6.33002 3.6675-6.30774 7.29641.02227 3.62892 6.33001z" opacity="1"/><path fill="#3e489f" fill-opacity="1" stroke="none" stroke-dasharray="none" stroke-miterlimit="4" stroke-opacity="1" stroke-width="15" d="M52.13426 145.62093l-7.29642-.02227-3.62892-6.33002 3.6675-6.30774 7.29641.02227 3.62892 6.33001z" opacity="1"/><path fill="#714099" fill-opacity="1" stroke="none" stroke-dasharray="none" stroke-miterlimit="4" stroke-opacity="1" stroke-width="3" d="M64.19826 152.61893l-7.29642-.02227-3.62892-6.33002 3.6675-6.30774 7.29641.02227 3.62892 6.33001z" opacity="1"/><path fill="#78932c" fill-opacity="1" stroke="none" stroke-dasharray="none" stroke-miterlimit="4" stroke-opacity="1" stroke-width="3" d="M52.19826 131.74393l-7.29642-.02227-3.62892-6.33002 3.6675-6.30774 7.29641.02227 3.62892 6.33001z" opacity="1"/><path fill="#cf242a" fill-opacity="1" stroke="none" stroke-dasharray="none" stroke-miterlimit="4" stroke-opacity="1" stroke-width="3" d="M64.26726 124.77093l-7.29642-.02227-3.62892-6.33002 3.6675-6.30774 7.29641.02227 3.62892 6.33001z" opacity="1"/><path fill="#fff" fill-opacity="1" stroke="none" stroke-dasharray="none" stroke-miterlimit="4" stroke-opacity="1" stroke-width=".32" d="M62.16416 146.29434a1.60036 1.60036 0 0 1-1.60036 1.60036 1.60036 1.60036 0 0 1-1.60036-1.60036 1.60036 1.60036 0 0 1 1.60036-1.60035 1.60036 1.60036 0 0 1 1.60036 1.60035z" opacity="1"/><path fill="none" fill-rule="evenodd" stroke="#fff" stroke-dasharray="none" stroke-linecap="butt" stroke-linejoin="miter" stroke-miterlimit="4" stroke-opacity="1" stroke-width=".524" d="M61.74766 117.71039l-14.26687 8.17385"/><path fill="none" fill-rule="evenodd" stroke="#fff" stroke-dasharray="none" stroke-linecap="butt" stroke-linejoin="miter" stroke-miterlimit="4" stroke-opacity="1" stroke-width=".524" d="M48.51363 124.19675l.0481 16.44242"/><path fill="none" fill-rule="evenodd" stroke="#fff" stroke-dasharray="none" stroke-linecap="butt" stroke-linejoin="miter" stroke-miterlimit="4" stroke-opacity="1" stroke-width=".524" d="M47.52452 138.71468l14.13645 8.39741"/><path fill="none" fill-rule="evenodd" stroke="#fff" stroke-dasharray="none" stroke-linecap="butt" stroke-linejoin="miter" stroke-miterlimit="4" stroke-opacity="1" stroke-width=".524" d="M60.5901 117.13251l.04811 16.44242"/><path fill="none" fill-rule="evenodd" stroke="#fff" stroke-dasharray="none" stroke-linecap="butt" stroke-linejoin="miter" stroke-miterlimit="4" stroke-opacity="1" stroke-width=".524" d="M60.65737 131.09278l.04811 16.44242"/><path fill="none" fill-rule="evenodd" stroke="#fff" stroke-dasharray="none" stroke-linecap="butt" stroke-linejoin="miter" stroke-miterlimit="4" stroke-opacity="1" stroke-width=".524" d="M61.76555 131.70801l-14.26687 8.17386"/><path fill="none" fill-rule="evenodd" stroke="#fff" stroke-dasharray="none" stroke-linecap="butt" stroke-linejoin="miter" stroke-miterlimit="4" stroke-opacity="1" stroke-width=".524" d="M47.56389 124.84086l14.13645 8.39741"/><g fill="#000" fill-opacity="1" stroke="none" stroke-linecap="butt" stroke-linejoin="miter" stroke-opacity="1" stroke-width=".083"><path d="M82.05399 136.69536h-5.34843l-.84402 2.41656h-3.43828l4.9131-13.26445h4.07795l4.91309 13.26445h-3.43828zm-4.49552-2.46099h3.63373l-1.81243-5.27735z"/><path d="M98.5968 138.3834q-.94175.48864-1.96346.73741-1.02171.24876-2.13226.24876-3.3139 0-5.2507-1.84796-1.9368-1.85685-1.9368-5.02859 0-3.18063 1.9368-5.02859 1.9368-1.85684 5.2507-1.85684 1.11055 0 2.13226.24876 1.02171.24877 1.96346.73741v2.74529q-.95064-.64857-1.87462-.95064-.92398-.30207-1.94569-.30207-1.83019 0-2.87855 1.17275-1.04837 1.17274-1.04837 3.23393 0 2.05231 1.04837 3.22505 1.04836 1.17275 2.87855 1.17275 1.02171 0 1.9457-.30208.92398-.30207 1.87461-.95063z"/><path d="M99.85839 125.84747h12.22498v2.58537h-4.3978v10.67908h-3.4205v-10.67908h-4.40668z"/><path d="M113.84248 125.84747h3.42051v13.26445h-3.42051z"/><path d="M119.04876 125.84747h3.43828l3.51823 9.79064 3.50935-9.79064h3.43828l-4.91309 13.26445h-4.07796z"/><path d="M134.70313 125.84747h9.23092v2.58537h-5.81041v2.46987h5.46392v2.58537h-5.46392v3.03847h6.00587v2.58537h-9.42638z"/></g><g fill="#000" fill-opacity="1" stroke="none" stroke-linecap="butt" stroke-linejoin="miter" stroke-opacity="1" stroke-width=".083"><path d="M77.53573 118.76791l-1.00236 2.71807h2.00838zm-.41704-.72799h.83774l2.08154 5.46176h-.76823l-.49752-1.40111h-2.462l-.49752 1.40111h-.7792z"/><path d="M81.57078 118.64718v2.05228h.9292q.5158 0 .7975-.26705.28168-.26705.28168-.76092 0-.4902-.28169-.75725-.28168-.26706-.7975-.26706zm-.73897-.60726h1.66816q.91822 0 1.38648.41704.47191.41338.47191 1.21453 0 .80848-.47191 1.22186-.46826.41338-1.38648.41338h-.92919v2.19495h-.73897z"/><path d="M86.69598 118.76791l-1.00236 2.71807H87.702zm-.41704-.72799h.83774l2.08154 5.46176H88.43l-.49752-1.40111h-2.462l-.49752 1.40111h-.7792z"/><path d="M93.95029 118.46061v.77921q-.37314-.34753-.7975-.51947-.4207-.17194-.89627-.17194-.93651 0-1.43403.57435-.49753.57068-.49753 1.65352 0 1.07919.49753 1.65353.49752.57069 1.43403.57069.47557 0 .89627-.17194.42436-.17194.7975-.51947v.77189q-.38778.26339-.8231.39509-.43168.1317-.91457.1317-1.24015 0-1.9535-.75726-.71336-.76091-.71336-2.07423 0-1.31696.71336-2.07422.71335-.76092 1.9535-.76092.4902 0 .92188.1317.43533.12804.81579.38777z"/><path d="M95.09898 118.03992h.73896v2.23884h2.68515v-2.23884h.73897v5.46176h-.73897v-2.60102h-2.68515v2.60102h-.73896z"/><path d="M100.73268 118.03992h3.45338v.6219h-2.71442v1.61694h2.60102v.6219h-2.60102v1.97912h2.78027v.6219h-3.51923z"/></g><g fill="#c12766" fill-opacity="1" stroke="none" stroke-linecap="butt" stroke-linejoin="miter" stroke-opacity="1" stroke-width=".083"><path d="M146.90921 125.84747h4.35337l3.02071 7.09866 3.03847-7.09866h4.34449v13.26445h-3.23393v-9.7018l-3.05625 7.15197h-2.1678l-3.05624-7.15197v9.7018h-3.24282z"/><path d="M171.4569 139.3518h-.26654q-3.27835 0-5.09966-1.81242-1.82131-1.81243-1.82131-5.04636 0-3.22505 1.81242-5.05524 1.82131-1.83019 5.01082-1.83019 3.22505 0 5.01971 1.81242 1.80354 1.81243 1.80354 5.07301 0 2.23888-.95952 3.85584-.95064 1.61697-2.74529 2.43434l2.67421 2.98517h-3.26058zm-.36427-11.26546q-1.56366 0-2.42545 1.15498-.86179 1.15498-.86179 3.2517 0 2.13227.84403 3.26947.84402 1.12833 2.44321 1.12833 1.57255 0 2.43434-1.15498.86179-1.15498.86179-3.24282 0-2.09672-.86179-3.2517-.86179-1.15498-2.43434-1.15498z"/></g><g fill="#000" fill-opacity="1" stroke="none" stroke-width=".085"><path d="M176.91988 124.47477h2.09089v.28143h-.87742v2.19022h-.33606v-2.19022h-.87741z"/><path d="M179.33524 124.47477h.49831l.63074 1.68198.63405-1.68198h.49831v2.47165h-.32613v-2.17035l-.63737 1.69522h-.33607l-.63736-1.69522v2.17035h-.32448z"/></g><path fill="#fff" fill-opacity="1" stroke="none" stroke-dasharray="none" stroke-miterlimit="4" stroke-opacity="1" stroke-width=".32" d="M49.93406 139.24219a1.60036 1.60036 0 0 1-1.60035 1.60035 1.60036 1.60036 0 0 1-1.60036-1.60035 1.60036 1.60036 0 0 1 1.60036-1.60036 1.60036 1.60036 0 0 1 1.60035 1.60036z" opacity="1"/><path fill="#fff" fill-opacity="1" stroke="none" stroke-dasharray="none" stroke-miterlimit="4" stroke-opacity="1" stroke-width=".32" d="M62.50177 132.48586a1.60036 1.60036 0 0 1-1.60036 1.60035 1.60036 1.60036 0 0 1-1.60035-1.60035 1.60036 1.60036 0 0 1 1.60035-1.60036 1.60036 1.60036 0 0 1 1.60036 1.60036z" opacity="1"/><path fill="#fff" fill-opacity="1" stroke="none" stroke-dasharray="none" stroke-miterlimit="4" stroke-opacity="1" stroke-width=".32" d="M50.163 125.41864a1.60036 1.60036 0 0 1-1.60035 1.60036 1.60036 1.60036 0 0 1-1.60036-1.60036 1.60036 1.60036 0 0 1 1.60036-1.60036 1.60036 1.60036 0 0 1 1.60035 1.60036z" opacity="1"/><path fill="#fff" fill-opacity="1" stroke="none" stroke-dasharray="none" stroke-miterlimit="4" stroke-opacity="1" stroke-width=".32" d="M62.23245 118.44482a1.60036 1.60036 0 0 1-1.60036 1.60035 1.60036 1.60036 0 0 1-1.60035-1.60035 1.60036 1.60036 0 0 1 1.60035-1.60036 1.60036 1.60036 0 0 1 1.60036 1.60036z" opacity="1"/></g></svg>