<svg xmlns="http://www.w3.org/2000/svg" role="img" xmlns:xlink="http://www.w3.org/1999/xlink" viewBox="-9.60 -9.60 499.20 201.70"><title>Apache HTTP Server Project logo</title><defs><linearGradient id="a" x1="-6873.648" x2="-6636.237" y1="2774.3" y2="2496.689" gradientTransform="scale(1.0281 -1.0281) rotate(65 -830.492 7208.067)" gradientUnits="userSpaceOnUse"><stop offset="0" stop-color="#f59723"/><stop offset=".312" stop-color="#f69822"/><stop offset=".838" stop-color="#e87726"/></linearGradient><linearGradient id="b" x1="-8630.72" x2="-6936.925" y1="2804.961" y2="2804.961" gradientTransform="scale(1.0281 -1.0281) rotate(65 -830.492 7208.067)" gradientUnits="userSpaceOnUse"><stop offset=".323" stop-color="#9c2063"/><stop offset=".63" stop-color="#c82037"/><stop offset=".751" stop-color="#cc2135"/><stop offset="1" stop-color="#e87726"/></linearGradient><linearGradient id="c" x1="-8426.256" x2="-7416.919" y1="2635.284" y2="2635.284" gradientTransform="scale(1.0281 -1.0281) rotate(65 -830.492 7208.067)" gradientUnits="userSpaceOnUse"><stop offset="0" stop-color="#282661"/><stop offset=".095" stop-color="#662e8c"/><stop offset=".788" stop-color="#9e2064"/><stop offset=".949" stop-color="#cc2032"/></linearGradient><linearGradient id="d" x1="-8535.588" x2="-6841.793" y1="2820.86" y2="2820.86" gradientTransform="scale(1.0281 -1.0281) rotate(65 -830.492 7208.067)" gradientUnits="userSpaceOnUse"><stop offset=".323" stop-color="#9c2063"/><stop offset=".63" stop-color="#c82037"/><stop offset=".751" stop-color="#cc2135"/><stop offset="1" stop-color="#e87726"/></linearGradient><linearGradient id="e" x1="-8412.058" x2="-7521.917" y1="2797.879" y2="2797.879" gradientTransform="scale(1.0281 -1.0281) rotate(65 -830.492 7208.067)" gradientUnits="userSpaceOnUse"><stop offset="0" stop-color="#282661"/><stop offset=".095" stop-color="#662e8c"/><stop offset=".788" stop-color="#9e2064"/><stop offset=".949" stop-color="#cc2032"/></linearGradient><linearGradient id="f" x1="-8535.588" x2="-6841.793" y1="2645.49" y2="2645.49" gradientTransform="scale(1.0281 -1.0281) rotate(65 -830.492 7208.067)" gradientUnits="userSpaceOnUse"><stop offset=".323" stop-color="#9c2063"/><stop offset=".63" stop-color="#c82037"/><stop offset=".751" stop-color="#cc2135"/><stop offset="1" stop-color="#e87726"/></linearGradient><linearGradient id="g" x1="-8640.659" x2="-6946.865" y1="2654.265" y2="2654.265" gradientTransform="scale(1.0281 -1.0281) rotate(65 -830.492 7208.067)" gradientUnits="userSpaceOnUse"><stop offset=".323" stop-color="#9c2063"/><stop offset=".63" stop-color="#c82037"/><stop offset=".751" stop-color="#cc2135"/><stop offset="1" stop-color="#e87726"/></linearGradient><linearGradient id="h" x1="-8535.589" x2="-6841.792" y1="2593.446" y2="2593.446" gradientTransform="scale(1.0281 -1.0281) rotate(65 -830.492 7208.067)" gradientUnits="userSpaceOnUse"><stop offset=".323" stop-color="#9c2063"/><stop offset=".63" stop-color="#c82037"/><stop offset=".751" stop-color="#cc2135"/><stop offset="1" stop-color="#e87726"/></linearGradient><linearGradient id="i" x1="-8535.589" x2="-6841.792" y1="2599.324" y2="2599.324" gradientTransform="scale(1.0281 -1.0281) rotate(65 -830.492 7208.067)" gradientUnits="userSpaceOnUse"><stop offset=".323" stop-color="#9c2063"/><stop offset=".63" stop-color="#c82037"/><stop offset=".751" stop-color="#cc2135"/><stop offset="1" stop-color="#e87726"/></linearGradient><linearGradient id="j" x1="-7584.039" x2="-7209.654" y1="2600.552" y2="2600.552" gradientTransform="scale(1.0281 -1.0281) rotate(65 -830.492 7208.067)" gradientUnits="userSpaceOnUse"><stop offset=".323" stop-color="#9c2063"/><stop offset=".63" stop-color="#c82037"/><stop offset=".751" stop-color="#cc2135"/><stop offset="1" stop-color="#e87726"/></linearGradient><linearGradient id="k" x1="-6873.648" x2="-6636.237" y1="2774.3" y2="2496.689" gradientTransform="scale(1.0281 -1.0281) rotate(65 -830.492 7208.067)" gradientUnits="userSpaceOnUse" xlink:href="#a"/><linearGradient id="l" x1="-8630.72" x2="-6936.925" y1="2804.961" y2="2804.961" gradientTransform="scale(1.0281 -1.0281) rotate(65 -830.492 7208.067)" gradientUnits="userSpaceOnUse" xlink:href="#b"/><linearGradient id="m" x1="-8426.256" x2="-7416.919" y1="2635.284" y2="2635.284" gradientTransform="scale(1.0281 -1.0281) rotate(65 -830.492 7208.067)" gradientUnits="userSpaceOnUse" xlink:href="#c"/><linearGradient id="n" x1="-8535.588" x2="-6841.793" y1="2820.86" y2="2820.86" gradientTransform="scale(1.0281 -1.0281) rotate(65 -830.492 7208.067)" gradientUnits="userSpaceOnUse" xlink:href="#d"/><linearGradient id="o" x1="-8412.058" x2="-7521.917" y1="2797.879" y2="2797.879" gradientTransform="scale(1.0281 -1.0281) rotate(65 -830.492 7208.067)" gradientUnits="userSpaceOnUse" xlink:href="#e"/><linearGradient id="p" x1="-8535.588" x2="-6841.793" y1="2645.49" y2="2645.49" gradientTransform="scale(1.0281 -1.0281) rotate(65 -830.492 7208.067)" gradientUnits="userSpaceOnUse" xlink:href="#f"/><linearGradient id="q" x1="-8640.659" x2="-6946.865" y1="2654.265" y2="2654.265" gradientTransform="scale(1.0281 -1.0281) rotate(65 -830.492 7208.067)" gradientUnits="userSpaceOnUse" xlink:href="#g"/><linearGradient id="r" x1="-8535.589" x2="-6841.792" y1="2593.446" y2="2593.446" gradientTransform="scale(1.0281 -1.0281) rotate(65 -830.492 7208.067)" gradientUnits="userSpaceOnUse" xlink:href="#h"/><linearGradient id="s" x1="-8535.589" x2="-6841.792" y1="2599.324" y2="2599.324" gradientTransform="scale(1.0281 -1.0281) rotate(65 -830.492 7208.067)" gradientUnits="userSpaceOnUse" xlink:href="#i"/><linearGradient id="t" x1="-7584.039" x2="-7209.654" y1="2600.552" y2="2600.552" gradientTransform="scale(1.0281 -1.0281) rotate(65 -830.492 7208.067)" gradientUnits="userSpaceOnUse" xlink:href="#j"/><linearGradient id="u" x1="-6873.648" x2="-6636.237" y1="2774.3" y2="2496.689" gradientTransform="scale(1.0281 -1.0281) rotate(65 -830.492 7208.067)" gradientUnits="userSpaceOnUse" xlink:href="#a"/><linearGradient id="v" x1="-8630.72" x2="-6936.925" y1="2804.961" y2="2804.961" gradientTransform="scale(1.0281 -1.0281) rotate(65 -830.492 7208.067)" gradientUnits="userSpaceOnUse" xlink:href="#b"/><linearGradient id="w" x1="-8426.256" x2="-7416.919" y1="2635.284" y2="2635.284" gradientTransform="scale(1.0281 -1.0281) rotate(65 -830.492 7208.067)" gradientUnits="userSpaceOnUse" xlink:href="#c"/><linearGradient id="x" x1="-8535.588" x2="-6841.793" y1="2820.86" y2="2820.86" gradientTransform="scale(1.0281 -1.0281) rotate(65 -830.492 7208.067)" gradientUnits="userSpaceOnUse" xlink:href="#d"/><linearGradient id="y" x1="-8412.058" x2="-7521.917" y1="2797.879" y2="2797.879" gradientTransform="scale(1.0281 -1.0281) rotate(65 -830.492 7208.067)" gradientUnits="userSpaceOnUse" xlink:href="#e"/><linearGradient id="z" x1="-8535.588" x2="-6841.793" y1="2645.49" y2="2645.49" gradientTransform="scale(1.0281 -1.0281) rotate(65 -830.492 7208.067)" gradientUnits="userSpaceOnUse" xlink:href="#f"/><linearGradient id="A" x1="-8640.659" x2="-6946.865" y1="2654.265" y2="2654.265" gradientTransform="scale(1.0281 -1.0281) rotate(65 -830.492 7208.067)" gradientUnits="userSpaceOnUse" xlink:href="#g"/><linearGradient id="B" x1="-8535.589" x2="-6841.792" y1="2593.446" y2="2593.446" gradientTransform="scale(1.0281 -1.0281) rotate(65 -830.492 7208.067)" gradientUnits="userSpaceOnUse" xlink:href="#h"/><linearGradient id="C" x1="-8535.589" x2="-6841.792" y1="2599.324" y2="2599.324" gradientTransform="scale(1.0281 -1.0281) rotate(65 -830.492 7208.067)" gradientUnits="userSpaceOnUse" xlink:href="#i"/><linearGradient id="D" x1="-7584.039" x2="-7209.654" y1="2600.552" y2="2600.552" gradientTransform="scale(1.0281 -1.0281) rotate(65 -830.492 7208.067)" gradientUnits="userSpaceOnUse" xlink:href="#j"/></defs><g transform="translate(-33.902 -218.83) scale(.46882)"><g transform="translate(72.156 466.789) scale(.22594)"><linearGradient x1="-6873.648" x2="-6636.237" y1="2774.3" y2="2496.689" gradientTransform="scale(1.0281 -1.0281) rotate(65 -830.492 7208.067)" gradientUnits="userSpaceOnUse"><stop offset="0" stop-color="#f59723"/><stop offset=".312" stop-color="#f69822"/><stop offset=".838" stop-color="#e87726"/></linearGradient><path fill="url(#k)" d="M736.1 8.1c-27.1 16-72.2 61.3-125.8 127l49.3 93.2C694.3 178.8 729.5 134.1 765 96c2.8-3 4.1-4.4 4.1-4.4-1.3 1.4-2.8 3-4.1 4.4-11.5 12.6-46.4 53.4-99 134.2 50.7-2.5 128.5-12.9 192-23.7 19-105.9-18.5-154.3-18.5-154.3s-47.6-77-103.4-44.1z"/><path fill="none" d="M652.5 539.9c.3-.1.7-.1 1.1-.2l-7.1.8-1.2.6c2.3-.5 4.8-.9 7.2-1.2z"/><path fill="none" d="M602 706.9c-4 .9-8.1 1.6-12.3 2.3 4.2-.7 8.3-1.5 12.3-2.3z"/><path fill="none" d="M259.4 1081.4c.5-1.3 1-2.8 1.5-4.1 10.9-28.7 21.7-56.6 32.3-83.8 11.9-30.5 23.7-60 35.5-88.6 12.3-30.1 24.5-59.3 36.4-87.5 12.5-29.5 24.9-58 37.1-85.4 9.9-22.3 19.6-43.9 29.2-64.8 3.2-7 6.4-13.9 9.6-20.7 6.3-13.6 12.5-26.8 18.7-39.8 5.7-11.9 11.3-23.6 17-35.2 1.9-3.8 3.7-7.6 5.6-11.4.3-.6.6-1.2.9-1.9l-6.1.6-4.8-9.5c-.5.9-.9 1.9-1.4 2.8-8.6 17.3-17.3 34.6-25.8 52.1-4.9 10.2-9.8 20.4-14.7 30.5-13.5 28.3-26.7 57-39.8 85.6-13.2 29.1-26.1 58.3-38.9 87.6-12.4 28.8-24.7 57.6-36.6 86.3-11.9 28.7-23.6 57.3-35 85.6-11.9 29.6-23.4 59-34.6 88-2.6 6.6-5 13.1-7.6 19.6-9 23.4-17.8 46.6-26.3 69.4l7.6 15 6.8-.7c.2-.7.5-1.3.7-2.1 11.1-29.8 22-59.1 32.7-87.6z"/><path fill="#bd202e" d="M570.2 791c-6.3 1.1-12.7 2.3-19.4 3.4 0 0-.1 0-.1.1 3.4-.5 6.7-1 10-1.5 3.1-.7 6.3-1.3 9.5-2z"/><path fill="#bd202e" d="M570.2 791c-6.3 1.1-12.7 2.3-19.4 3.4 0 0-.1 0-.1.1 3.4-.5 6.7-1 10-1.5 3.1-.7 6.3-1.3 9.5-2z" opacity=".35"/><path fill="#bd202e" d="M586.7 709.5s0 .1 0 0c-.1 0-.1 0-.1.1 1-.1 2.1-.3 3.1-.5 4.2-.6 8.3-1.3 12.3-2.3-5 .9-10 1.8-15.3 2.7z"/><path fill="#bd202e" d="M586.7 709.5s0 .1 0 0c-.1 0-.1 0-.1.1 1-.1 2.1-.3 3.1-.5 4.2-.6 8.3-1.3 12.3-2.3-5 .9-10 1.8-15.3 2.7z" opacity=".35"/><linearGradient x1="-8630.72" x2="-6936.925" y1="2804.961" y2="2804.961" gradientTransform="scale(1.0281 -1.0281) rotate(65 -830.492 7208.067)" gradientUnits="userSpaceOnUse"><stop offset=".323" stop-color="#9c2063"/><stop offset=".63" stop-color="#c82037"/><stop offset=".751" stop-color="#cc2135"/><stop offset="1" stop-color="#e87726"/></linearGradient><path fill="url(#l)" d="M514 469.2c15-28.1 30.2-55.5 45.5-82.1 15.9-27.8 32.1-54.6 48.4-80.6.9-1.5 2-3.1 2.9-4.6 16.1-25.5 32.4-50.1 48.7-73.5l-49.3-93.2c-3.7 4.5-7.4 9.1-11.2 13.9-14.3 17.8-29 36.8-44.2 57.1-17.1 22.8-34.6 47.2-52.5 72.8-16.4 23.6-33.2 48.3-50 74-14.3 21.8-28.5 44.2-42.7 67.2-.5.8-1 1.7-1.5 2.6l64.3 127c13.6-27.5 27.6-54.4 41.6-80.6z"/><linearGradient x1="-8426.256" x2="-7416.919" y1="2635.284" y2="2635.284" gradientTransform="scale(1.0281 -1.0281) rotate(65 -830.492 7208.067)" gradientUnits="userSpaceOnUse"><stop offset="0" stop-color="#282661"/><stop offset=".095" stop-color="#662e8c"/><stop offset=".788" stop-color="#9e2064"/><stop offset=".949" stop-color="#cc2032"/></linearGradient><path fill="url(#m)" d="M221.2 1184.4c-8.5 23.3-17.1 47.2-25.6 71.5-.1.3-.2.7-.4 1-1.2 3.4-2.5 6.9-3.6 10.3-5.8 16.4-10.8 31.2-22.3 64.7 18.9 8.6 34.1 31.4 48.5 57.2-1.5-26.7-12.5-51.8-33.6-71.2 93.3 4.2 173.7-19.4 215.3-87.6 3.7-6.1 7.1-12.4 10.2-19.3-18.9 24-42.4 34.1-86.5 31.7-.1 0-.2.1-.3.1.1 0 .2-.1.3-.1 65-29.1 97.5-57 126.4-103.2 6.8-11 13.5-22.9 20.3-36.2-56.8 58.3-122.5 74.9-191.8 62.3l-52 5.7c-1.7 4.4-3.2 8.7-4.9 13.1z"/><linearGradient x1="-8535.588" x2="-6841.793" y1="2820.86" y2="2820.86" gradientTransform="scale(1.0281 -1.0281) rotate(65 -830.492 7208.067)" gradientUnits="userSpaceOnUse"><stop offset=".323" stop-color="#9c2063"/><stop offset=".63" stop-color="#c82037"/><stop offset=".751" stop-color="#cc2135"/><stop offset="1" stop-color="#e87726"/></linearGradient><path fill="url(#n)" d="M245.5 1068.1c11.2-29 22.8-58.4 34.6-88 11.4-28.4 23-57 35-85.6 12-28.6 24.2-57.5 36.6-86.3 12.6-29.3 25.6-58.5 38.9-87.6 13.1-28.8 26.3-57.4 39.8-85.6 4.8-10.2 9.8-20.4 14.7-30.5 8.5-17.5 17.1-34.9 25.8-52.1.5-.9.9-1.9 1.4-2.8l-64.3-127c-1 1.7-2.1 3.5-3.2 5.1-15 24.5-29.9 49.5-44.5 75-14.8 25.8-29.3 52.1-43.5 78.8-11.9 22.5-23.6 45.1-35.1 68.1-2.3 4.6-4.5 9.3-6.8 13.9-14 28.9-26.6 56.6-38.1 83.5-13 30.3-24.4 59.3-34.3 86.8-6.6 18.1-12.5 35.5-18 52.3-4.5 14.3-8.7 28.7-12.9 43-9.6 33.6-17.9 67.2-24.7 100.6l64.6 127.5c8.5-22.8 17.3-46 26.3-69.4 2.7-6.7 5.1-13.3 7.7-19.7z"/><linearGradient x1="-8412.058" x2="-7521.917" y1="2797.879" y2="2797.879" gradientTransform="scale(1.0281 -1.0281) rotate(65 -830.492 7208.067)" gradientUnits="userSpaceOnUse"><stop offset="0" stop-color="#282661"/><stop offset=".095" stop-color="#662e8c"/><stop offset=".788" stop-color="#9e2064"/><stop offset=".949" stop-color="#cc2032"/></linearGradient><path fill="url(#o)" d="M146.2 1034c-8.1 40.8-13.9 81.4-16.8 121.8l-.3 4.2c-20.2-32.3-74.1-63.8-74-63.5 38.7 56 68 111.6 72.3 166.2-20.7 4.2-49-1.9-81.7-13.9 34.1 31.4 59.7 40 69.8 42.4-31.4 2-64 23.5-96.9 48.3 48.1-19.6 87-27.4 114.8-21.1C89.2 1443.4 45 1581.4.7 1728c13.6-4 21.7-13.2 26.2-25.5 7.9-26.5 60.2-200.7 142.3-429.4 2.4-6.5 4.7-13.1 7.1-19.6.6-1.9 1.3-3.7 2-5.4 8.6-24 17.7-48.5 26.9-73.5 2.1-5.7 4.2-11.4 6.4-17.1 0-.1.1-.2.1-.3L147 1029.7c-.2 1.3-.5 2.8-.8 4.3z"/><linearGradient x1="-8535.588" x2="-6841.793" y1="2645.49" y2="2645.49" gradientTransform="scale(1.0281 -1.0281) rotate(65 -830.492 7208.067)" gradientUnits="userSpaceOnUse"><stop offset=".323" stop-color="#9c2063"/><stop offset=".63" stop-color="#c82037"/><stop offset=".751" stop-color="#cc2135"/><stop offset="1" stop-color="#e87726"/></linearGradient><path fill="url(#p)" d="M482.3 560.2c-1.9 3.8-3.7 7.6-5.6 11.4-5.6 11.5-11.2 23.2-17 35.2-6.2 13-12.4 26.2-18.7 39.8-3.2 6.8-6.4 13.7-9.6 20.7-9.6 20.9-19.3 42.5-29.2 64.8-12.1 27.3-24.6 55.8-37.1 85.4-11.9 28.2-24.2 57.3-36.4 87.5-11.7 28.6-23.5 58.2-35.5 88.6-10.7 27.1-21.5 55.1-32.3 83.8-.5 1.3-1 2.8-1.5 4.1-10.8 28.5-21.7 57.8-32.6 87.8-.2.7-.5 1.3-.7 2.1l52-5.7c-1-.2-2.1-.3-3.1-.5 62.1-7.7 144.8-54.2 198.1-111.5 24.6-26.4 46.9-57.6 67.5-94.1 15.3-27.1 29.8-57.3 43.6-90.6 12-29.1 23.5-60.7 34.6-94.8-14.3 7.5-30.6 13.1-48.6 16.9-3.2.7-6.4 1.3-9.7 1.9-3.3.6-6.6 1.1-10 1.5 0 0 .1 0 .1-.1 58-22.3 94.5-65.3 121-118-15.2 10.4-40 24-69.7 30.5-4 .9-8.1 1.6-12.3 2.3-1 .1-2.1.3-3.1.5h.2c20.2-8.4 37.1-17.9 51.8-29 3.2-2.4 6.3-4.8 9.1-7.4 4.5-3.9 8.7-8 12.9-12.2 2.6-2.8 5.1-5.6 7.6-8.5 5.8-6.9 11.2-14.3 16.2-22.3 1.5-2.5 3.1-4.9 4.5-7.5 2-3.7 3.8-7.4 5.6-10.9 8.1-16.2 14.6-30.8 19.7-43.5 2.6-6.4 4.8-12.2 6.8-17.8.8-2.2 1.5-4.3 2.2-6.4 2.1-6.1 3.7-11.5 5-16.3 2-7.2 3.2-12.9 3.8-17-2 1.5-4.2 3.1-6.8 4.6-17.5 10.5-47.5 19.9-71.7 24.4l47.7-5.2-47.7 5.2c-.3.1-.7.1-1.1.2-2.5.4-4.8.8-7.3 1.1l1.2-.6-163.3 17.9c0 .4-.3 1.1-.6 1.7z"/><linearGradient x1="-8640.659" x2="-6946.865" y1="2654.265" y2="2654.265" gradientTransform="scale(1.0281 -1.0281) rotate(65 -830.492 7208.067)" gradientUnits="userSpaceOnUse"><stop offset=".323" stop-color="#9c2063"/><stop offset=".63" stop-color="#c82037"/><stop offset=".751" stop-color="#cc2135"/><stop offset="1" stop-color="#e87726"/></linearGradient><path fill="url(#q)" d="M666.1 230.2c-14.5 22.3-30.3 47.6-47.5 76.3-.9 1.4-1.9 3.1-2.7 4.5-14.7 24.8-30.3 52-46.9 81.9-14.2 25.8-29 53.4-44.4 83.1-13.4 25.9-27.2 53.4-41.5 82.5l163.3-17.9c47.6-21.9 68.8-41.6 89.4-70.3 5.4-7.9 11-16.1 16.4-24.7 16.8-26.2 33.2-55 47.9-83.7 14.2-27.7 26.7-55.1 36.3-79.9 6.1-15.7 11-30.3 14.4-43.2 3-11.3 5.3-22.1 7.1-32.4-63.3 10.9-141.2 21.3-191.8 23.8z"/><path fill="#bd202e" d="M560.5 792.8c-3.3.6-6.6 1.1-10 1.5 3.4-.3 6.8-.9 10-1.5z"/><path fill="#bd202e" d="M560.5 792.8c-3.3.6-6.6 1.1-10 1.5 3.4-.3 6.8-.9 10-1.5z" opacity=".35"/><linearGradient x1="-8535.589" x2="-6841.792" y1="2593.446" y2="2593.446" gradientTransform="scale(1.0281 -1.0281) rotate(65 -830.492 7208.067)" gradientUnits="userSpaceOnUse"><stop offset=".323" stop-color="#9c2063"/><stop offset=".63" stop-color="#c82037"/><stop offset=".751" stop-color="#cc2135"/><stop offset="1" stop-color="#e87726"/></linearGradient><path fill="url(#r)" d="M560.5 792.8c-3.3.6-6.6 1.1-10 1.5 3.4-.3 6.8-.9 10-1.5z"/><path fill="#bd202e" d="M586.6 709.6c1-.1 2.1-.3 3.1-.5-1 .1-2 .4-3.1.5z"/><path fill="#bd202e" d="M586.6 709.6c1-.1 2.1-.3 3.1-.5-1 .1-2 .4-3.1.5z" opacity=".35"/><linearGradient x1="-8535.589" x2="-6841.792" y1="2599.324" y2="2599.324" gradientTransform="scale(1.0281 -1.0281) rotate(65 -830.492 7208.067)" gradientUnits="userSpaceOnUse"><stop offset=".323" stop-color="#9c2063"/><stop offset=".63" stop-color="#c82037"/><stop offset=".751" stop-color="#cc2135"/><stop offset="1" stop-color="#e87726"/></linearGradient><path fill="url(#s)" d="M586.6 709.6c1-.1 2.1-.3 3.1-.5-1 .1-2 .4-3.1.5z"/><path fill="#bd202e" d="M586.6 709.6c.1 0 .1-.1 0 0 .1-.1.1 0 0 0z"/><path fill="#bd202e" d="M586.6 709.6c.1 0 .1-.1 0 0 .1-.1.1 0 0 0z" opacity=".35"/><linearGradient x1="-7584.039" x2="-7209.654" y1="2600.552" y2="2600.552" gradientTransform="scale(1.0281 -1.0281) rotate(65 -830.492 7208.067)" gradientUnits="userSpaceOnUse"><stop offset=".323" stop-color="#9c2063"/><stop offset=".63" stop-color="#c82037"/><stop offset=".751" stop-color="#cc2135"/><stop offset="1" stop-color="#e87726"/></linearGradient><path fill="url(#t)" d="M586.6 709.6c.1 0 .1-.1 0 0 .1-.1.1 0 0 0z"/></g><path fill="#a00" d="M733.26554 730.30711c-2.2647-.4064-10.8128-2.5964-12.1499-3.1129-3.135-1.2106-13.9019-6.7256-15.1661-7.7682-1.6901-1.3939-1.9071-1.5617-4.9855-3.8557-3.0503-2.273-9.5931-8.8161-11.8649-11.8653-.9714-1.3039-2.0329-2.695-2.3589-3.091-.3259-.3961-.8725-1.063-1.2146-1.4818-.7181-.8791-6.7865-11.1334-6.7865-11.4677 0-.1227-.6314-1.6312-1.403-3.3522-.7716-1.7211-1.8667-4.4627-2.4334-6.0925-.5668-1.6299-1.2596-3.4969-1.5397-4.1488-.6268-1.4594-2.3383-9.5215-2.9566-13.9279-.654-4.6604-.6339-17.4489.034-21.6329 1.7594-11.0214 3.1473-15.7314 7.1719-24.3388.6197-1.3252 1.1268-2.7255 1.1268-3.1115 0-.3861.2667-.702.5926-.702.326 0 .5927-.3444.5927-.7655 0-.421 1.6468-3.261 3.6595-6.311 3.2647-4.947 10.7003-13.1614 15.6026-17.2366 5.0724-4.2168 15.1059-9.713 21.0978-11.5572 1.7611-.5419 3.8688-1.216 4.6837-1.4977 3.0116-1.0411 8.7986-1.7983 16.2987-2.1324 9.667-.4307 19.8094.8313 26.9669 3.3556 5.3529 1.8878 10.2427 4.146 10.5694 4.881.1087.2446.4567.4446.7734.4446 1.2499 0 7.9783 5.0974 12.0178 9.1047 4.6744 4.637 7.7347 8.6986 10.1592 13.4832 1.5187 2.9969 1.5366 3.1431.476 3.8747-.6061.4181-1.3818.9693-1.7236 1.2249-.3418.2556-1.3166.8648-2.1661 1.3538-.8496.4889-2.7736 1.6497-4.2755 2.5794-3.0606 1.8947-4.2274 1.7556-5.1271-.6109-2.5132-6.6102-14.0403-17.4565-21.8889-20.596-8.6426-3.4571-13.8844-4.4886-22.7788-4.4826-9.4242.01-15.4851 1.1642-23.0182 4.3969-2.5731 1.1042-8.0633 4.3836-9.2163 5.5051-.4307.419-.9653.7618-1.1878.7618-.6296 0-7.221 6.5051-10.1206 9.9882-3.1395 3.7711-8.5924 13.4682-9.8807 17.5713-.5118 1.6299-1.1647 3.4969-1.4508 4.1488-2.5177 5.736-4.0009 19.631-3.0841 28.8931.6276 6.3396 1.9456 12.9778 3.0892 15.5579.2889.6519.7025 1.8521.919 2.667.9548 3.594 6.5353 13.9929 9.4601 17.628 2.9208 3.6303 8.2499 9.2341 10.6682 11.2183 2.7702 2.2728 11.7647 7.8954 12.6434 7.9034.2175 0 1.084.3629 1.9256.8022.8415.4391 3.9086 1.4371 6.8158 2.2179 4.4439 1.1934 6.5599 1.408 13.2869 1.3474 11.2558-.1014 18.398-2.044 27.8559-7.5763 6.197-3.625 14.7566-11.9937 17.7804-17.3839 1.1409-2.0338 2.341-3.7015 2.667-3.706 1.2567-.017 12.7426 6.2322 12.7426 6.9333 0 .8303-3.4523 7.4186-4.1286 7.8789-.2395.163-.7426.8799-1.118 1.5932-1.4149 2.6881-7.9028 9.0324-14.0155 13.7053-3.2437 2.4798-11.8298 6.8404-17.7803 9.0301-7.9063 2.9095-12.7018 3.6899-23.7072 3.8581-5.8675.09-11.335.044-12.1499-.1028zm-472.9577-.8287c0-.3304.2573-1.0637.5719-1.6298.3145-.566 1.1292-2.3627 1.8104-3.9925.6811-1.6299 1.4733-3.4969 1.7602-4.1489.287-.6519 2.1519-5.0524 4.1442-9.7791 1.9923-4.7266 3.8646-9.1273 4.1608-9.7792.2961-.652 1.229-2.9189 2.0731-5.0378.8441-2.1188 1.7749-4.3859 2.0685-5.0378.2936-.6519 1.1011-2.5188 1.7944-4.1486.6933-1.6299 1.6413-3.8039 2.1067-4.8311.4654-1.0272.8462-2.042.8462-2.255 0-.3363 1.1364-3.0682 2.9692-7.1383.2936-.6519 1.2245-2.9189 2.0686-5.0378.8441-2.1189 1.7775-4.3858 2.0743-5.0378.2968-.6519 1.2303-2.9189 2.0744-5.0378.8441-2.1188 1.775-4.3857 2.0686-5.0377.2935-.6519 1.0963-2.5189 1.7838-4.1488.6876-1.6298 1.4851-3.4967 1.7723-4.1487.2872-.6519 1.7535-4.1192 3.2584-7.7048 1.5049-3.5857 2.9756-7.0529 3.2683-7.7049.2926-.6519 1.6255-3.8524 2.9619-7.1121 1.3365-3.2598 2.6684-6.4602 2.9597-7.1121.2914-.652 1.4627-3.4525 2.6028-6.2233 6.3874-15.5226 7.8511-19.0327 9.2681-22.2253.2893-.652 1.2217-2.919 2.072-5.0378.8503-2.1189 2.0637-4.986 2.6966-6.3713l1.1507-2.519h12.8869l1.3249 3.1116c1.6482 3.8707 3.4603 8.071 4.1552 9.6311 2.0175 4.5298 2.9633 6.7998 2.9633 7.1121 0 .3313 1.1371 3.0151 3.3026 7.7944.4654 1.0272.8462 2.042.8462 2.2551 0 .3349.9165 2.5426 2.9634 7.1382 2.0176 4.5299 2.9634 6.7998 2.9634 7.1121 0 .1989.5527 1.6136 1.2282 3.1441s1.627 3.7162 2.1144 4.8572c.4875 1.1408 1.123 2.6076 1.4124 3.2597.2893.6519 1.2167 2.9189 2.0608 5.0378.8441 2.1188 1.7728 4.3858 2.0638 5.0377.291.652 2.1626 5.0527 4.1593 9.7792 1.9967 4.7267 3.8684 9.1273 4.1593 9.7792.291.652.9634 2.2523 1.4944 3.5561 5.4502 13.3849 7.6143 18.6468 8.2875 20.1511.4377.978 1.8939 4.445 3.2361 7.7049 1.3422 3.2597 2.6791 6.4602 2.971 7.1121.2919.6519 1.0933 2.5188 1.7808 4.1487.6876 1.6299 1.4903 3.4969 1.7839 4.1488.2936.6519 1.2244 2.9189 2.0686 5.0377.8441 2.1189 1.7755 4.3859 2.0698 5.0378 2.8708 6.3596 6.524 15.3338 6.524 16.0263 0 .7183-1.451.865-8.5539.865-8.355 0-8.5634-.031-8.9608-1.3334-.3636-1.1918-1.7419-4.5377-3.2349-7.8531-.2936-.6519-1.2291-2.9189-2.079-5.0377-1.4485-3.6113-2.6204-6.4037-3.8555-9.1865-.2893-.652-1.2167-2.919-2.0608-5.0379-.8441-2.1188-1.775-4.3857-2.0686-5.0377-1.7975-3.9918-2.9692-6.7982-2.9692-7.1122 0-.1987-.4956-1.4802-1.1012-2.8477-.6057-1.3675-1.4709-3.3532-1.9227-4.4125l-.8215-1.9263h-70.0935l-1.1955 2.8153c-.6575 1.5484-1.9251 4.6822-2.8168 6.9639-.8918 2.2819-2.1202 5.2677-2.7299 6.6351-.6097 1.3675-1.1086 2.649-1.1086 2.8478 0 .314-1.1716 3.1204-2.9692 7.1122-.2936.6519-1.2245 2.9188-2.0686 5.0377-.8441 2.1189-1.783 4.3859-2.0864 5.0378-.3035.6519-1.5154 3.5857-2.6933 6.5195-1.1778 2.9337-2.2797 5.6674-2.4486 6.0749-.3899.9411-17.3678 1.0779-17.3678.1401zm103.7188-62.2558c0-.5655-.8737-2.6974-3.3026-8.0581-.4654-1.0272-.8462-2.0538-.8462-2.2812 0-.2275-.3875-1.2539-.861-2.2811-.4736-1.0272-2.3459-5.6016-4.1605-10.1651-1.8147-4.5636-3.5465-8.8309-3.8485-9.4829-.3021-.652-1.775-4.3858-3.2733-8.2975-1.4983-3.9118-2.9614-7.6456-3.2515-8.2976-.29-.652-.9262-2.1188-1.4136-3.2597-.4875-1.1409-1.439-3.3266-2.1145-4.8571-.6755-1.5304-1.2298-2.9973-1.2318-3.2597 0-.2624-.348-1.1438-.7688-1.9587-.4208-.815-1.4067-3.2153-2.191-5.3342-.7842-2.1188-1.7702-4.5191-2.191-5.334-.4208-.815-.7667-1.8151-.7687-2.2226-.01-1.2461-1.0843-.8234-1.5113.5927-.2213.7334-.7546 2.1337-1.1853 3.1115-.4307.978-1.8816 4.4451-3.2243 7.7049-1.3426 3.2597-3.217 7.7937-4.1653 10.0756-.9483 2.2817-5.9827 14.4169-11.1877 26.9669-5.2049 12.5499-9.8864 23.8183-10.4033 25.0407l-.9397 2.2226h31.4199c21.641 0 31.42-.1947 31.42-.6254zm58.0825-16.5624v-79.4191l33.0419.01c34.5096.01 40.7592.3275 46.2928 2.39 3.9054 1.4557 9.9585 4.4557 11.0654 5.484.4235.3934 1.6599 1.3771 2.7475 2.1858 7.6467 5.6864 14.9512 17.0397 17.7384 27.5708 2.6985 10.1967 1.5947 24.0785-2.6839 33.7532-6.1414 13.887-16.4783 23.4985-29.5275 27.4555-2.6163.7934-7.8198.9776-32.8902 1.1655l-29.7821.2232V730.08461H422.10914v-79.4189zm70.3377 5.8781c10.9325-1.5123 19.7935-9.8424 24.2206-22.7695 1.523-4.4473 1.8697-16.7233.6115-21.6564-1.7096-6.7029-4.8426-12.2685-9.4949-16.8677-2.3081-2.2819-4.9934-4.5485-5.9671-5.0369-.9738-.4884-1.9039-1.0318-2.0669-1.2074-.1629-.1758-1.4965-.8364-2.9633-1.468-2.4905-1.0725-4.5215-1.161-30.6712-1.3384l-28.0041-.19v71.1756h24.8497c14.5714 0 26.7672-.2652 29.4857-.6413zm33.1916 73.0963c-.1427-.2444.7625-2.8448 2.0116-5.7785 1.2492-2.9338 4.5728-10.935 7.3858-17.7805 2.813-6.8454 5.4745-13.2463 5.9145-14.2242.4399-.978 1.9027-4.4451 3.2507-7.7049 2.3604-5.7083 3.6414-8.7441 4.7519-11.2609.2876-.6519 1.6211-3.8523 2.9633-7.1121 1.3422-3.2597 2.7927-6.7269 3.2234-7.7048.4307-.9779 2.1574-5.1119 3.8371-9.1865 1.6797-4.0747 3.8261-9.2755 4.7697-11.5573 2.0116-4.8643 8.7391-20.8025 9.5064-22.5218.291-.652 1.2197-2.919 2.0638-5.0378.8441-2.1189 1.7749-4.3858 2.0686-5.0377.2935-.6521 1.101-2.519 1.7943-4.1489.6933-1.6298 1.6413-3.8037 2.1067-4.831.4654-1.0271.8462-2.0418.8462-2.255 0-.3349.9165-2.5426 2.9634-7.1382 1.1772-2.6431 2.8683-6.7153 4.1842-10.0755.7658-1.9559 1.6373-3.8895 1.9365-4.2969.3767-.5132 2.5041-.741 6.9189-.741h6.375l.7734 1.9263c1.5545 3.8715 8.3619 20.0313 10.0491 23.8553.2876.652 1.6165 3.8524 2.9529 7.1121s2.6753 6.4603 2.9751 7.1122c.2999.6519 2.5655 6.1194 5.0345 12.15 2.4691 6.0305 4.729 11.498 5.0219 12.1499.293.6519 1.9194 4.5191 3.6143 8.5938 4.0059 9.631 8.1694 19.5427 8.8381 21.0401.2911.652 1.0918 2.5189 1.7793 4.1488.6876 1.6298 1.4903 3.4968 1.7839 4.1487.2936.652 1.2291 2.919 2.0791 5.0378 1.4485 3.6113 2.6204 6.4036 3.8554 9.1866.2894.6519 1.2214 2.9189 2.0713 5.0376.8499 2.1189 1.9287 4.6929 2.3972 5.7201.4687 1.0271.8521 2.0509.8521 2.2749 0 .2239.8001 2.1358 1.778 4.2487.9779 2.1127 1.7781 3.9826 1.7781 4.155 0 .1724.3834 1.154.852 2.1812.4686 1.0272 1.5474 3.6012 2.3972 5.72.8499 2.1189 1.7854 4.3858 2.0791 5.0379 2.0528 4.5586 2.9692 6.8349 2.9692 7.3759 0 .9527-16.2756.8423-17.0445-.1157-.3271-.4075-2.9255-6.475-5.7743-13.4834-2.8487-7.0084-5.5308-13.5427-5.9603-14.5207-.4295-.9779-1.4763-3.5115-2.3261-5.6304-.8499-2.1188-1.7854-4.3858-2.0791-5.0378-.8036-1.7847-2.6843-6.2714-3.542-8.4503l-.7601-1.9308-35.2594.1528-35.2592.1528-3.5092 8.5939c-1.93 4.7266-3.7661 9.2112-4.0801 9.9659-.3139.7547-.5708 1.5027-.5708 1.6623 0 .2536-1.2867 3.3048-2.9692 7.0411-.2936.652-1.2292 2.919-2.0791 5.0378-.8498 2.1188-1.8952 4.6524-2.3229 5.6304-.4278.978-1.6637 3.9783-2.7467 6.6676l-1.9689 4.8896h-8.1459c-4.4803 0-8.2627-.1999-8.4054-.4445zm103.3156-62.1009c0-.2924-2.0409-5.372-3.8028-9.465-.4209-.9779-1.3919-3.5116-2.1576-5.6304-.7658-2.1189-1.7366-4.5192-2.1574-5.3342-.4208-.8149-.7667-1.6963-.7687-1.9588-.01-.413-1.0479-2.9531-2.9729-7.2277-.2936-.6519-1.2291-2.919-2.079-5.0377-.8498-2.1189-1.8948-4.6526-2.3221-5.6306-.4273-.9779-1.2671-3.1116-1.8662-4.7414-.5992-1.6299-1.4315-3.6301-1.8496-4.4451-.418-.8149-.7618-1.7081-.7638-1.9848 0-.2767-.3892-1.3435-.8603-2.3707-.4712-1.0272-1.8375-4.4014-3.0362-7.4981-1.1987-3.0967-2.6422-6.6972-3.2079-8.0011-.5656-1.304-1.3984-3.2379-1.8504-4.298-1.0254-2.4042-1.6975-2.2118-2.7073.7753-.4345 1.2855-1.0417 2.8707-1.3492 3.5227-.3076.6519-1.1217 2.5188-1.8093 4.1487-.6876 1.6298-1.4908 3.4968-1.7851 4.1488-.4819 1.0677-6.9301 16.4797-14.8782 35.5608-1.6294 3.9116-3.2007 7.6456-3.4919 8.2975-.2912.6519-1.6183 3.8524-2.9492 7.1122-1.3309 3.2597-2.8111 6.8025-3.2893 7.873-.4782 1.0705-.8695 2.0706-.8695 2.2226 0 .1519 14.1354.2763 31.412.2763 17.2765 0 31.4119-.1416 31.4119-.3143zm198.8278 61.8224c-.1588-.4172-.2202-36.0971-.1364-79.2886l.1524-78.53h15.4097l.1528 35.1162.1529 35.1163h93.0412v-70.5289H952.55674v158.838H936.55444v-74.0848H843.51274l-.1526 36.8942-.1526 36.8943-7.5685.166c-5.7268.1255-7.6387-.018-7.8572-.5927zm159.743-78.6959v-79.4191h104.31156v14.817H1003.5271v55.7119H1080.5753v14.2243H1003.5271v59.2679h90.0872v14.8169H987.52484z"/><g fill="#000" fill-opacity="1" stroke="none" stroke-linecap="butt" stroke-linejoin="miter" stroke-opacity="1" stroke-width="2.558"><path d="M255.7597 798.07715v-49.16438h8.29957v21.3116h24.40635v-21.3116h8.29957v49.16438h-8.29957v-20.1159h-24.40635v20.1159z"/><path d="M329.00293 756.50898v41.56817h-8.29956v-41.56817h-14.91109v-7.59621h38.12174v7.59621z"/><path d="M371.45139 756.50898v41.56817h-8.29956v-41.56817h-14.91109v-7.59621h38.12174v7.59621z"/><path d="M412.2118 748.91277q11.18332 0 16.31779 4.29045 5.13448 4.29046 5.13448 13.22304 0 8.93259-5.27515 13.08237-5.20481 4.14978-16.03645 4.14978h-8.72158v14.41874h-8.29956v-49.16438zm1.05503 27.21976q6.89286 0 9.3546-2.6024 2.53207-2.67274 2.53207-7.73689 0-5.13447-3.16509-7.24453t-9.91728-2.11006h-8.44024v19.69388z"/><path d="M477.48516 755.38362q-3.5871 0-5.90817 1.47704-2.32106 1.47704-2.32106 4.50146 0 2.95408 2.32106 4.57179 2.32107 1.54738 9.84694 3.3761 7.59622 1.82872 11.39432 5.13448 3.86845 3.30576 3.86845 9.7766 0 6.40052-4.85314 10.40963t-12.73069 4.00911q-11.53499 0-20.46757-7.94789l5.20481-6.25984q7.45554 6.47085 15.47377 6.47085 4.00911 0 6.33017-1.68805 2.3914-1.75838 2.3914-4.57179 0-2.88375-2.25073-4.43113-2.18039-1.61771-7.59621-2.88375-5.41582-1.33637-8.22923-2.3914-2.81341-1.12536-4.99381-2.88374-4.36079-3.30576-4.36079-10.12829 0-6.82252 4.92348-10.47996 4.9938-3.72777 12.30867-3.72777 4.71247 0 9.3546 1.54738 4.64213 1.54737 8.01822 4.36079l-4.43112 6.25984q-2.18039-1.96939-5.90817-3.23543-3.72777-1.26603-7.3852-1.26603z"/><path d="M541.55073 748.91277v7.80722h-26.23507v13.01203h23.56233v7.38521h-23.56233v13.1527h27.0791v7.80722H507.0161v-49.16438z"/><path d="M592.28335 764.87888q0 12.16801-10.62063 15.3331l12.87136 17.86517h-10.55029l-11.746-16.5288h-10.90197v16.5288h-8.29957v-49.16438h18.28718q11.25365 0 16.10679 3.79811 4.85313 3.7981 4.85313 12.168zm-20.60824 9.14359q7.03353 0 9.5656-2.18039t2.53207-6.9632q0-4.85313-2.6024-6.61151-2.60241-1.82872-9.28426-1.82872h-10.5503v17.58382z"/><path d="M626.02671 798.07715h-9.28426l-19.76422-49.16438h9.28426l15.12209 36.71503 15.12209-36.71503h9.28426z"/><path d="M687.30417 748.91277v7.80722H661.0691v13.01203h23.56232v7.38521H661.0691v13.1527h27.07909v7.80722h-35.37866v-49.16438z"/><path d="M738.0368 764.87888q0 12.16801-10.62063 15.3331l12.87136 17.86517h-10.55029l-11.746-16.5288h-10.90197v16.5288h-8.29957v-49.16438h18.28718q11.25365 0 16.10679 3.79811 4.85313 3.7981 4.85313 12.168zm-20.60824 9.14359q7.03353 0 9.5656-2.18039t2.53207-6.9632q0-4.85313-2.60241-6.61151-2.6024-1.82872-9.28426-1.82872h-10.55029v17.58382z"/><path d="M786.14286 748.91277q11.18332 0 16.31779 4.29045 5.13448 4.29046 5.13448 13.22304 0 8.93259-5.27515 13.08237-5.20481 4.14978-16.03645 4.14978h-8.72157v14.41874h-8.29957v-49.16438zm1.05503 27.21976q6.89286 0 9.3546-2.6024 2.53207-2.67274 2.53207-7.73689 0-5.13447-3.16509-7.24453t-9.91728-2.11006h-8.44023v19.69388z"/><path d="M856.59024 764.87888q0 12.16801-10.62063 15.3331l12.87136 17.86517h-10.5503l-11.74599-16.5288h-10.90197v16.5288h-8.29957v-49.16438h18.28718q11.25365 0 16.10678 3.79811 4.85314 3.7981 4.85314 12.168zm-20.60825 9.14359q7.03354 0 9.56561-2.18039 2.53207-2.18039 2.53207-6.9632 0-4.85313-2.60241-6.61151-2.60241-1.82872-9.28426-1.82872h-10.55029v17.58382z"/><path d="M903.61048 760.5181q-4.99381-5.20482-12.30868-5.20482-7.31487 0-12.37901 5.20482-4.99381 5.20481-4.99381 12.66035 0 7.38521 4.99381 12.59002 5.06414 5.20481 12.37901 5.20481 7.31487 0 12.30868-5.20481 5.06414-5.20481 5.06414-12.59002 0-7.45554-5.06414-12.66035zm6.11917 30.80686q-7.45554 7.24454-18.42785 7.24454t-18.42785-7.24454q-7.45554-7.31487-7.45554-18.14651 0-10.90197 7.45554-18.14651 7.45554-7.31487 18.42785-7.31487t18.42785 7.31487q7.45554 7.24454 7.45554 18.14651 0 10.83164-7.45554 18.14651z"/><path d="M927.76078 756.36831v-7.45554h23.914v32.42458q0 8.5809-4.36079 12.87136-4.36079 4.29045-11.18331 4.29045-8.58091 0-14.62974-6.04884l4.71246-6.54118q4.7828 4.5718 9.3546 4.5718 3.23542 0 5.48615-2.1804 2.32107-2.18039 2.32107-6.54118v-25.39105z"/><path d="M999.41708 748.91277v7.80722h-26.23507v13.01203h23.56233v7.38521h-23.56233v13.1527h27.07909v7.80722h-35.37865v-49.16438z"/><path d="M1033.3395 790.55127q4.2905 0 7.3853-1.40671 3.0947-1.47704 6.4708-4.64213l5.3455 5.48616q-7.8072 8.65124-18.9905 8.65124-11.113 0-18.4982-7.1742-7.3149-7.1742-7.3149-18.14651t7.4555-18.28718q7.5259-7.31487 18.9202-7.31487 11.4647 0 19.1312 8.44024l-5.2751 5.76749q-3.5168-3.37609-6.6819-4.71246-3.0947-1.33637-7.3148-1.33637-7.4556 0-12.5197 4.85313-5.0642 4.7828-5.0642 12.30868 0 7.45554 4.9938 12.51968 5.0642 4.99381 11.957 4.99381z"/><path d="M1081.261 756.50898v41.56817h-8.2996v-41.56817h-14.9111v-7.59621h38.1217v7.59621z"/></g></g><g transform="translate(-33.902 -218.83) scale(.46882)"><g transform="translate(72.156 466.789) scale(.22594)"><linearGradient x1="-6873.648" x2="-6636.237" y1="2774.3" y2="2496.689" gradientTransform="scale(1.0281 -1.0281) rotate(65 -830.492 7208.067)" gradientUnits="userSpaceOnUse"><stop offset="0" stop-color="#f59723"/><stop offset=".312" stop-color="#f69822"/><stop offset=".838" stop-color="#e87726"/></linearGradient><path fill="url(#u)" d="M736.1 8.1c-27.1 16-72.2 61.3-125.8 127l49.3 93.2C694.3 178.8 729.5 134.1 765 96c2.8-3 4.1-4.4 4.1-4.4-1.3 1.4-2.8 3-4.1 4.4-11.5 12.6-46.4 53.4-99 134.2 50.7-2.5 128.5-12.9 192-23.7 19-105.9-18.5-154.3-18.5-154.3s-47.6-77-103.4-44.1z"/><path fill="none" d="M652.5 539.9c.3-.1.7-.1 1.1-.2l-7.1.8-1.2.6c2.3-.5 4.8-.9 7.2-1.2z"/><path fill="none" d="M602 706.9c-4 .9-8.1 1.6-12.3 2.3 4.2-.7 8.3-1.5 12.3-2.3z"/><path fill="none" d="M259.4 1081.4c.5-1.3 1-2.8 1.5-4.1 10.9-28.7 21.7-56.6 32.3-83.8 11.9-30.5 23.7-60 35.5-88.6 12.3-30.1 24.5-59.3 36.4-87.5 12.5-29.5 24.9-58 37.1-85.4 9.9-22.3 19.6-43.9 29.2-64.8 3.2-7 6.4-13.9 9.6-20.7 6.3-13.6 12.5-26.8 18.7-39.8 5.7-11.9 11.3-23.6 17-35.2 1.9-3.8 3.7-7.6 5.6-11.4.3-.6.6-1.2.9-1.9l-6.1.6-4.8-9.5c-.5.9-.9 1.9-1.4 2.8-8.6 17.3-17.3 34.6-25.8 52.1-4.9 10.2-9.8 20.4-14.7 30.5-13.5 28.3-26.7 57-39.8 85.6-13.2 29.1-26.1 58.3-38.9 87.6-12.4 28.8-24.7 57.6-36.6 86.3-11.9 28.7-23.6 57.3-35 85.6-11.9 29.6-23.4 59-34.6 88-2.6 6.6-5 13.1-7.6 19.6-9 23.4-17.8 46.6-26.3 69.4l7.6 15 6.8-.7c.2-.7.5-1.3.7-2.1 11.1-29.8 22-59.1 32.7-87.6z"/><path fill="#bd202e" d="M570.2 791c-6.3 1.1-12.7 2.3-19.4 3.4 0 0-.1 0-.1.1 3.4-.5 6.7-1 10-1.5 3.1-.7 6.3-1.3 9.5-2z"/><path fill="#bd202e" d="M570.2 791c-6.3 1.1-12.7 2.3-19.4 3.4 0 0-.1 0-.1.1 3.4-.5 6.7-1 10-1.5 3.1-.7 6.3-1.3 9.5-2z" opacity=".35"/><path fill="#bd202e" d="M586.7 709.5s0 .1 0 0c-.1 0-.1 0-.1.1 1-.1 2.1-.3 3.1-.5 4.2-.6 8.3-1.3 12.3-2.3-5 .9-10 1.8-15.3 2.7z"/><path fill="#bd202e" d="M586.7 709.5s0 .1 0 0c-.1 0-.1 0-.1.1 1-.1 2.1-.3 3.1-.5 4.2-.6 8.3-1.3 12.3-2.3-5 .9-10 1.8-15.3 2.7z" opacity=".35"/><linearGradient x1="-8630.72" x2="-6936.925" y1="2804.961" y2="2804.961" gradientTransform="scale(1.0281 -1.0281) rotate(65 -830.492 7208.067)" gradientUnits="userSpaceOnUse"><stop offset=".323" stop-color="#9c2063"/><stop offset=".63" stop-color="#c82037"/><stop offset=".751" stop-color="#cc2135"/><stop offset="1" stop-color="#e87726"/></linearGradient><path fill="url(#v)" d="M514 469.2c15-28.1 30.2-55.5 45.5-82.1 15.9-27.8 32.1-54.6 48.4-80.6.9-1.5 2-3.1 2.9-4.6 16.1-25.5 32.4-50.1 48.7-73.5l-49.3-93.2c-3.7 4.5-7.4 9.1-11.2 13.9-14.3 17.8-29 36.8-44.2 57.1-17.1 22.8-34.6 47.2-52.5 72.8-16.4 23.6-33.2 48.3-50 74-14.3 21.8-28.5 44.2-42.7 67.2-.5.8-1 1.7-1.5 2.6l64.3 127c13.6-27.5 27.6-54.4 41.6-80.6z"/><linearGradient x1="-8426.256" x2="-7416.919" y1="2635.284" y2="2635.284" gradientTransform="scale(1.0281 -1.0281) rotate(65 -830.492 7208.067)" gradientUnits="userSpaceOnUse"><stop offset="0" stop-color="#282661"/><stop offset=".095" stop-color="#662e8c"/><stop offset=".788" stop-color="#9e2064"/><stop offset=".949" stop-color="#cc2032"/></linearGradient><path fill="url(#w)" d="M221.2 1184.4c-8.5 23.3-17.1 47.2-25.6 71.5-.1.3-.2.7-.4 1-1.2 3.4-2.5 6.9-3.6 10.3-5.8 16.4-10.8 31.2-22.3 64.7 18.9 8.6 34.1 31.4 48.5 57.2-1.5-26.7-12.5-51.8-33.6-71.2 93.3 4.2 173.7-19.4 215.3-87.6 3.7-6.1 7.1-12.4 10.2-19.3-18.9 24-42.4 34.1-86.5 31.7-.1 0-.2.1-.3.1.1 0 .2-.1.3-.1 65-29.1 97.5-57 126.4-103.2 6.8-11 13.5-22.9 20.3-36.2-56.8 58.3-122.5 74.9-191.8 62.3l-52 5.7c-1.7 4.4-3.2 8.7-4.9 13.1z"/><linearGradient x1="-8535.588" x2="-6841.793" y1="2820.86" y2="2820.86" gradientTransform="scale(1.0281 -1.0281) rotate(65 -830.492 7208.067)" gradientUnits="userSpaceOnUse"><stop offset=".323" stop-color="#9c2063"/><stop offset=".63" stop-color="#c82037"/><stop offset=".751" stop-color="#cc2135"/><stop offset="1" stop-color="#e87726"/></linearGradient><path fill="url(#x)" d="M245.5 1068.1c11.2-29 22.8-58.4 34.6-88 11.4-28.4 23-57 35-85.6 12-28.6 24.2-57.5 36.6-86.3 12.6-29.3 25.6-58.5 38.9-87.6 13.1-28.8 26.3-57.4 39.8-85.6 4.8-10.2 9.8-20.4 14.7-30.5 8.5-17.5 17.1-34.9 25.8-52.1.5-.9.9-1.9 1.4-2.8l-64.3-127c-1 1.7-2.1 3.5-3.2 5.1-15 24.5-29.9 49.5-44.5 75-14.8 25.8-29.3 52.1-43.5 78.8-11.9 22.5-23.6 45.1-35.1 68.1-2.3 4.6-4.5 9.3-6.8 13.9-14 28.9-26.6 56.6-38.1 83.5-13 30.3-24.4 59.3-34.3 86.8-6.6 18.1-12.5 35.5-18 52.3-4.5 14.3-8.7 28.7-12.9 43-9.6 33.6-17.9 67.2-24.7 100.6l64.6 127.5c8.5-22.8 17.3-46 26.3-69.4 2.7-6.7 5.1-13.3 7.7-19.7z"/><linearGradient x1="-8412.058" x2="-7521.917" y1="2797.879" y2="2797.879" gradientTransform="scale(1.0281 -1.0281) rotate(65 -830.492 7208.067)" gradientUnits="userSpaceOnUse"><stop offset="0" stop-color="#282661"/><stop offset=".095" stop-color="#662e8c"/><stop offset=".788" stop-color="#9e2064"/><stop offset=".949" stop-color="#cc2032"/></linearGradient><path fill="url(#y)" d="M146.2 1034c-8.1 40.8-13.9 81.4-16.8 121.8l-.3 4.2c-20.2-32.3-74.1-63.8-74-63.5 38.7 56 68 111.6 72.3 166.2-20.7 4.2-49-1.9-81.7-13.9 34.1 31.4 59.7 40 69.8 42.4-31.4 2-64 23.5-96.9 48.3 48.1-19.6 87-27.4 114.8-21.1C89.2 1443.4 45 1581.4.7 1728c13.6-4 21.7-13.2 26.2-25.5 7.9-26.5 60.2-200.7 142.3-429.4 2.4-6.5 4.7-13.1 7.1-19.6.6-1.9 1.3-3.7 2-5.4 8.6-24 17.7-48.5 26.9-73.5 2.1-5.7 4.2-11.4 6.4-17.1 0-.1.1-.2.1-.3L147 1029.7c-.2 1.3-.5 2.8-.8 4.3z"/><linearGradient x1="-8535.588" x2="-6841.793" y1="2645.49" y2="2645.49" gradientTransform="scale(1.0281 -1.0281) rotate(65 -830.492 7208.067)" gradientUnits="userSpaceOnUse"><stop offset=".323" stop-color="#9c2063"/><stop offset=".63" stop-color="#c82037"/><stop offset=".751" stop-color="#cc2135"/><stop offset="1" stop-color="#e87726"/></linearGradient><path fill="url(#z)" d="M482.3 560.2c-1.9 3.8-3.7 7.6-5.6 11.4-5.6 11.5-11.2 23.2-17 35.2-6.2 13-12.4 26.2-18.7 39.8-3.2 6.8-6.4 13.7-9.6 20.7-9.6 20.9-19.3 42.5-29.2 64.8-12.1 27.3-24.6 55.8-37.1 85.4-11.9 28.2-24.2 57.3-36.4 87.5-11.7 28.6-23.5 58.2-35.5 88.6-10.7 27.1-21.5 55.1-32.3 83.8-.5 1.3-1 2.8-1.5 4.1-10.8 28.5-21.7 57.8-32.6 87.8-.2.7-.5 1.3-.7 2.1l52-5.7c-1-.2-2.1-.3-3.1-.5 62.1-7.7 144.8-54.2 198.1-111.5 24.6-26.4 46.9-57.6 67.5-94.1 15.3-27.1 29.8-57.3 43.6-90.6 12-29.1 23.5-60.7 34.6-94.8-14.3 7.5-30.6 13.1-48.6 16.9-3.2.7-6.4 1.3-9.7 1.9-3.3.6-6.6 1.1-10 1.5 0 0 .1 0 .1-.1 58-22.3 94.5-65.3 121-118-15.2 10.4-40 24-69.7 30.5-4 .9-8.1 1.6-12.3 2.3-1 .1-2.1.3-3.1.5h.2c20.2-8.4 37.1-17.9 51.8-29 3.2-2.4 6.3-4.8 9.1-7.4 4.5-3.9 8.7-8 12.9-12.2 2.6-2.8 5.1-5.6 7.6-8.5 5.8-6.9 11.2-14.3 16.2-22.3 1.5-2.5 3.1-4.9 4.5-7.5 2-3.7 3.8-7.4 5.6-10.9 8.1-16.2 14.6-30.8 19.7-43.5 2.6-6.4 4.8-12.2 6.8-17.8.8-2.2 1.5-4.3 2.2-6.4 2.1-6.1 3.7-11.5 5-16.3 2-7.2 3.2-12.9 3.8-17-2 1.5-4.2 3.1-6.8 4.6-17.5 10.5-47.5 19.9-71.7 24.4l47.7-5.2-47.7 5.2c-.3.1-.7.1-1.1.2-2.5.4-4.8.8-7.3 1.1l1.2-.6-163.3 17.9c0 .4-.3 1.1-.6 1.7z"/><linearGradient x1="-8640.659" x2="-6946.865" y1="2654.265" y2="2654.265" gradientTransform="scale(1.0281 -1.0281) rotate(65 -830.492 7208.067)" gradientUnits="userSpaceOnUse"><stop offset=".323" stop-color="#9c2063"/><stop offset=".63" stop-color="#c82037"/><stop offset=".751" stop-color="#cc2135"/><stop offset="1" stop-color="#e87726"/></linearGradient><path fill="url(#A)" d="M666.1 230.2c-14.5 22.3-30.3 47.6-47.5 76.3-.9 1.4-1.9 3.1-2.7 4.5-14.7 24.8-30.3 52-46.9 81.9-14.2 25.8-29 53.4-44.4 83.1-13.4 25.9-27.2 53.4-41.5 82.5l163.3-17.9c47.6-21.9 68.8-41.6 89.4-70.3 5.4-7.9 11-16.1 16.4-24.7 16.8-26.2 33.2-55 47.9-83.7 14.2-27.7 26.7-55.1 36.3-79.9 6.1-15.7 11-30.3 14.4-43.2 3-11.3 5.3-22.1 7.1-32.4-63.3 10.9-141.2 21.3-191.8 23.8z"/><path fill="#bd202e" d="M560.5 792.8c-3.3.6-6.6 1.1-10 1.5 3.4-.3 6.8-.9 10-1.5z"/><path fill="#bd202e" d="M560.5 792.8c-3.3.6-6.6 1.1-10 1.5 3.4-.3 6.8-.9 10-1.5z" opacity=".35"/><linearGradient x1="-8535.589" x2="-6841.792" y1="2593.446" y2="2593.446" gradientTransform="scale(1.0281 -1.0281) rotate(65 -830.492 7208.067)" gradientUnits="userSpaceOnUse"><stop offset=".323" stop-color="#9c2063"/><stop offset=".63" stop-color="#c82037"/><stop offset=".751" stop-color="#cc2135"/><stop offset="1" stop-color="#e87726"/></linearGradient><path fill="url(#B)" d="M560.5 792.8c-3.3.6-6.6 1.1-10 1.5 3.4-.3 6.8-.9 10-1.5z"/><path fill="#bd202e" d="M586.6 709.6c1-.1 2.1-.3 3.1-.5-1 .1-2 .4-3.1.5z"/><path fill="#bd202e" d="M586.6 709.6c1-.1 2.1-.3 3.1-.5-1 .1-2 .4-3.1.5z" opacity=".35"/><linearGradient x1="-8535.589" x2="-6841.792" y1="2599.324" y2="2599.324" gradientTransform="scale(1.0281 -1.0281) rotate(65 -830.492 7208.067)" gradientUnits="userSpaceOnUse"><stop offset=".323" stop-color="#9c2063"/><stop offset=".63" stop-color="#c82037"/><stop offset=".751" stop-color="#cc2135"/><stop offset="1" stop-color="#e87726"/></linearGradient><path fill="url(#C)" d="M586.6 709.6c1-.1 2.1-.3 3.1-.5-1 .1-2 .4-3.1.5z"/><path fill="#bd202e" d="M586.6 709.6c.1 0 .1-.1 0 0 .1-.1.1 0 0 0z"/><path fill="#bd202e" d="M586.6 709.6c.1 0 .1-.1 0 0 .1-.1.1 0 0 0z" opacity=".35"/><linearGradient x1="-7584.039" x2="-7209.654" y1="2600.552" y2="2600.552" gradientTransform="scale(1.0281 -1.0281) rotate(65 -830.492 7208.067)" gradientUnits="userSpaceOnUse"><stop offset=".323" stop-color="#9c2063"/><stop offset=".63" stop-color="#c82037"/><stop offset=".751" stop-color="#cc2135"/><stop offset="1" stop-color="#e87726"/></linearGradient><path fill="url(#D)" d="M586.6 709.6c.1 0 .1-.1 0 0 .1-.1.1 0 0 0z"/></g><path fill="#a00" d="M733.26554 730.30711c-2.2647-.4064-10.8128-2.5964-12.1499-3.1129-3.135-1.2106-13.9019-6.7256-15.1661-7.7682-1.6901-1.3939-1.9071-1.5617-4.9855-3.8557-3.0503-2.273-9.5931-8.8161-11.8649-11.8653-.9714-1.3039-2.0329-2.695-2.3589-3.091-.3259-.3961-.8725-1.063-1.2146-1.4818-.7181-.8791-6.7865-11.1334-6.7865-11.4677 0-.1227-.6314-1.6312-1.403-3.3522-.7716-1.7211-1.8667-4.4627-2.4334-6.0925-.5668-1.6299-1.2596-3.4969-1.5397-4.1488-.6268-1.4594-2.3383-9.5215-2.9566-13.9279-.654-4.6604-.6339-17.4489.034-21.6329 1.7594-11.0214 3.1473-15.7314 7.1719-24.3388.6197-1.3252 1.1268-2.7255 1.1268-3.1115 0-.3861.2667-.702.5926-.702.326 0 .5927-.3444.5927-.7655 0-.421 1.6468-3.261 3.6595-6.311 3.2647-4.947 10.7003-13.1614 15.6026-17.2366 5.0724-4.2168 15.1059-9.713 21.0978-11.5572 1.7611-.5419 3.8688-1.216 4.6837-1.4977 3.0116-1.0411 8.7986-1.7983 16.2987-2.1324 9.667-.4307 19.8094.8313 26.9669 3.3556 5.3529 1.8878 10.2427 4.146 10.5694 4.881.1087.2446.4567.4446.7734.4446 1.2499 0 7.9783 5.0974 12.0178 9.1047 4.6744 4.637 7.7347 8.6986 10.1592 13.4832 1.5187 2.9969 1.5366 3.1431.476 3.8747-.6061.4181-1.3818.9693-1.7236 1.2249-.3418.2556-1.3166.8648-2.1661 1.3538-.8496.4889-2.7736 1.6497-4.2755 2.5794-3.0606 1.8947-4.2274 1.7556-5.1271-.6109-2.5132-6.6102-14.0403-17.4565-21.8889-20.596-8.6426-3.4571-13.8844-4.4886-22.7788-4.4826-9.4242.01-15.4851 1.1642-23.0182 4.3969-2.5731 1.1042-8.0633 4.3836-9.2163 5.5051-.4307.419-.9653.7618-1.1878.7618-.6296 0-7.221 6.5051-10.1206 9.9882-3.1395 3.7711-8.5924 13.4682-9.8807 17.5713-.5118 1.6299-1.1647 3.4969-1.4508 4.1488-2.5177 5.736-4.0009 19.631-3.0841 28.8931.6276 6.3396 1.9456 12.9778 3.0892 15.5579.2889.6519.7025 1.8521.919 2.667.9548 3.594 6.5353 13.9929 9.4601 17.628 2.9208 3.6303 8.2499 9.2341 10.6682 11.2183 2.7702 2.2728 11.7647 7.8954 12.6434 7.9034.2175 0 1.084.3629 1.9256.8022.8415.4391 3.9086 1.4371 6.8158 2.2179 4.4439 1.1934 6.5599 1.408 13.2869 1.3474 11.2558-.1014 18.398-2.044 27.8559-7.5763 6.197-3.625 14.7566-11.9937 17.7804-17.3839 1.1409-2.0338 2.341-3.7015 2.667-3.706 1.2567-.017 12.7426 6.2322 12.7426 6.9333 0 .8303-3.4523 7.4186-4.1286 7.8789-.2395.163-.7426.8799-1.118 1.5932-1.4149 2.6881-7.9028 9.0324-14.0155 13.7053-3.2437 2.4798-11.8298 6.8404-17.7803 9.0301-7.9063 2.9095-12.7018 3.6899-23.7072 3.8581-5.8675.09-11.335.044-12.1499-.1028zm-472.9577-.8287c0-.3304.2573-1.0637.5719-1.6298.3145-.566 1.1292-2.3627 1.8104-3.9925.6811-1.6299 1.4733-3.4969 1.7602-4.1489.287-.6519 2.1519-5.0524 4.1442-9.7791 1.9923-4.7266 3.8646-9.1273 4.1608-9.7792.2961-.652 1.229-2.9189 2.0731-5.0378.8441-2.1188 1.7749-4.3859 2.0685-5.0378.2936-.6519 1.1011-2.5188 1.7944-4.1486.6933-1.6299 1.6413-3.8039 2.1067-4.8311.4654-1.0272.8462-2.042.8462-2.255 0-.3363 1.1364-3.0682 2.9692-7.1383.2936-.6519 1.2245-2.9189 2.0686-5.0378.8441-2.1189 1.7775-4.3858 2.0743-5.0378.2968-.6519 1.2303-2.9189 2.0744-5.0378.8441-2.1188 1.775-4.3857 2.0686-5.0377.2935-.6519 1.0963-2.5189 1.7838-4.1488.6876-1.6298 1.4851-3.4967 1.7723-4.1487.2872-.6519 1.7535-4.1192 3.2584-7.7048 1.5049-3.5857 2.9756-7.0529 3.2683-7.7049.2926-.6519 1.6255-3.8524 2.9619-7.1121 1.3365-3.2598 2.6684-6.4602 2.9597-7.1121.2914-.652 1.4627-3.4525 2.6028-6.2233 6.3874-15.5226 7.8511-19.0327 9.2681-22.2253.2893-.652 1.2217-2.919 2.072-5.0378.8503-2.1189 2.0637-4.986 2.6966-6.3713l1.1507-2.519h12.8869l1.3249 3.1116c1.6482 3.8707 3.4603 8.071 4.1552 9.6311 2.0175 4.5298 2.9633 6.7998 2.9633 7.1121 0 .3313 1.1371 3.0151 3.3026 7.7944.4654 1.0272.8462 2.042.8462 2.2551 0 .3349.9165 2.5426 2.9634 7.1382 2.0176 4.5299 2.9634 6.7998 2.9634 7.1121 0 .1989.5527 1.6136 1.2282 3.1441s1.627 3.7162 2.1144 4.8572c.4875 1.1408 1.123 2.6076 1.4124 3.2597.2893.6519 1.2167 2.9189 2.0608 5.0378.8441 2.1188 1.7728 4.3858 2.0638 5.0377.291.652 2.1626 5.0527 4.1593 9.7792 1.9967 4.7267 3.8684 9.1273 4.1593 9.7792.291.652.9634 2.2523 1.4944 3.5561 5.4502 13.3849 7.6143 18.6468 8.2875 20.1511.4377.978 1.8939 4.445 3.2361 7.7049 1.3422 3.2597 2.6791 6.4602 2.971 7.1121.2919.6519 1.0933 2.5188 1.7808 4.1487.6876 1.6299 1.4903 3.4969 1.7839 4.1488.2936.6519 1.2244 2.9189 2.0686 5.0377.8441 2.1189 1.7755 4.3859 2.0698 5.0378 2.8708 6.3596 6.524 15.3338 6.524 16.0263 0 .7183-1.451.865-8.5539.865-8.355 0-8.5634-.031-8.9608-1.3334-.3636-1.1918-1.7419-4.5377-3.2349-7.8531-.2936-.6519-1.2291-2.9189-2.079-5.0377-1.4485-3.6113-2.6204-6.4037-3.8555-9.1865-.2893-.652-1.2167-2.919-2.0608-5.0379-.8441-2.1188-1.775-4.3857-2.0686-5.0377-1.7975-3.9918-2.9692-6.7982-2.9692-7.1122 0-.1987-.4956-1.4802-1.1012-2.8477-.6057-1.3675-1.4709-3.3532-1.9227-4.4125l-.8215-1.9263h-70.0935l-1.1955 2.8153c-.6575 1.5484-1.9251 4.6822-2.8168 6.9639-.8918 2.2819-2.1202 5.2677-2.7299 6.6351-.6097 1.3675-1.1086 2.649-1.1086 2.8478 0 .314-1.1716 3.1204-2.9692 7.1122-.2936.6519-1.2245 2.9188-2.0686 5.0377-.8441 2.1189-1.783 4.3859-2.0864 5.0378-.3035.6519-1.5154 3.5857-2.6933 6.5195-1.1778 2.9337-2.2797 5.6674-2.4486 6.0749-.3899.9411-17.3678 1.0779-17.3678.1401zm103.7188-62.2558c0-.5655-.8737-2.6974-3.3026-8.0581-.4654-1.0272-.8462-2.0538-.8462-2.2812 0-.2275-.3875-1.2539-.861-2.2811-.4736-1.0272-2.3459-5.6016-4.1605-10.1651-1.8147-4.5636-3.5465-8.8309-3.8485-9.4829-.3021-.652-1.775-4.3858-3.2733-8.2975-1.4983-3.9118-2.9614-7.6456-3.2515-8.2976-.29-.652-.9262-2.1188-1.4136-3.2597-.4875-1.1409-1.439-3.3266-2.1145-4.8571-.6755-1.5304-1.2298-2.9973-1.2318-3.2597 0-.2624-.348-1.1438-.7688-1.9587-.4208-.815-1.4067-3.2153-2.191-5.3342-.7842-2.1188-1.7702-4.5191-2.191-5.334-.4208-.815-.7667-1.8151-.7687-2.2226-.01-1.2461-1.0843-.8234-1.5113.5927-.2213.7334-.7546 2.1337-1.1853 3.1115-.4307.978-1.8816 4.4451-3.2243 7.7049-1.3426 3.2597-3.217 7.7937-4.1653 10.0756-.9483 2.2817-5.9827 14.4169-11.1877 26.9669-5.2049 12.5499-9.8864 23.8183-10.4033 25.0407l-.9397 2.2226h31.4199c21.641 0 31.42-.1947 31.42-.6254zm58.0825-16.5624v-79.4191l33.0419.01c34.5096.01 40.7592.3275 46.2928 2.39 3.9054 1.4557 9.9585 4.4557 11.0654 5.484.4235.3934 1.6599 1.3771 2.7475 2.1858 7.6467 5.6864 14.9512 17.0397 17.7384 27.5708 2.6985 10.1967 1.5947 24.0785-2.6839 33.7532-6.1414 13.887-16.4783 23.4985-29.5275 27.4555-2.6163.7934-7.8198.9776-32.8902 1.1655l-29.7821.2232V730.08461H422.10914v-79.4189zm70.3377 5.8781c10.9325-1.5123 19.7935-9.8424 24.2206-22.7695 1.523-4.4473 1.8697-16.7233.6115-21.6564-1.7096-6.7029-4.8426-12.2685-9.4949-16.8677-2.3081-2.2819-4.9934-4.5485-5.9671-5.0369-.9738-.4884-1.9039-1.0318-2.0669-1.2074-.1629-.1758-1.4965-.8364-2.9633-1.468-2.4905-1.0725-4.5215-1.161-30.6712-1.3384l-28.0041-.19v71.1756h24.8497c14.5714 0 26.7672-.2652 29.4857-.6413zm33.1916 73.0963c-.1427-.2444.7625-2.8448 2.0116-5.7785 1.2492-2.9338 4.5728-10.935 7.3858-17.7805 2.813-6.8454 5.4745-13.2463 5.9145-14.2242.4399-.978 1.9027-4.4451 3.2507-7.7049 2.3604-5.7083 3.6414-8.7441 4.7519-11.2609.2876-.6519 1.6211-3.8523 2.9633-7.1121 1.3422-3.2597 2.7927-6.7269 3.2234-7.7048.4307-.9779 2.1574-5.1119 3.8371-9.1865 1.6797-4.0747 3.8261-9.2755 4.7697-11.5573 2.0116-4.8643 8.7391-20.8025 9.5064-22.5218.291-.652 1.2197-2.919 2.0638-5.0378.8441-2.1189 1.7749-4.3858 2.0686-5.0377.2935-.6521 1.101-2.519 1.7943-4.1489.6933-1.6298 1.6413-3.8037 2.1067-4.831.4654-1.0271.8462-2.0418.8462-2.255 0-.3349.9165-2.5426 2.9634-7.1382 1.1772-2.6431 2.8683-6.7153 4.1842-10.0755.7658-1.9559 1.6373-3.8895 1.9365-4.2969.3767-.5132 2.5041-.741 6.9189-.741h6.375l.7734 1.9263c1.5545 3.8715 8.3619 20.0313 10.0491 23.8553.2876.652 1.6165 3.8524 2.9529 7.1121s2.6753 6.4603 2.9751 7.1122c.2999.6519 2.5655 6.1194 5.0345 12.15 2.4691 6.0305 4.729 11.498 5.0219 12.1499.293.6519 1.9194 4.5191 3.6143 8.5938 4.0059 9.631 8.1694 19.5427 8.8381 21.0401.2911.652 1.0918 2.5189 1.7793 4.1488.6876 1.6298 1.4903 3.4968 1.7839 4.1487.2936.652 1.2291 2.919 2.0791 5.0378 1.4485 3.6113 2.6204 6.4036 3.8554 9.1866.2894.6519 1.2214 2.9189 2.0713 5.0376.8499 2.1189 1.9287 4.6929 2.3972 5.7201.4687 1.0271.8521 2.0509.8521 2.2749 0 .2239.8001 2.1358 1.778 4.2487.9779 2.1127 1.7781 3.9826 1.7781 4.155 0 .1724.3834 1.154.852 2.1812.4686 1.0272 1.5474 3.6012 2.3972 5.72.8499 2.1189 1.7854 4.3858 2.0791 5.0379 2.0528 4.5586 2.9692 6.8349 2.9692 7.3759 0 .9527-16.2756.8423-17.0445-.1157-.3271-.4075-2.9255-6.475-5.7743-13.4834-2.8487-7.0084-5.5308-13.5427-5.9603-14.5207-.4295-.9779-1.4763-3.5115-2.3261-5.6304-.8499-2.1188-1.7854-4.3858-2.0791-5.0378-.8036-1.7847-2.6843-6.2714-3.542-8.4503l-.7601-1.9308-35.2594.1528-35.2592.1528-3.5092 8.5939c-1.93 4.7266-3.7661 9.2112-4.0801 9.9659-.3139.7547-.5708 1.5027-.5708 1.6623 0 .2536-1.2867 3.3048-2.9692 7.0411-.2936.652-1.2292 2.919-2.0791 5.0378-.8498 2.1188-1.8952 4.6524-2.3229 5.6304-.4278.978-1.6637 3.9783-2.7467 6.6676l-1.9689 4.8896h-8.1459c-4.4803 0-8.2627-.1999-8.4054-.4445zm103.3156-62.1009c0-.2924-2.0409-5.372-3.8028-9.465-.4209-.9779-1.3919-3.5116-2.1576-5.6304-.7658-2.1189-1.7366-4.5192-2.1574-5.3342-.4208-.8149-.7667-1.6963-.7687-1.9588-.01-.413-1.0479-2.9531-2.9729-7.2277-.2936-.6519-1.2291-2.919-2.079-5.0377-.8498-2.1189-1.8948-4.6526-2.3221-5.6306-.4273-.9779-1.2671-3.1116-1.8662-4.7414-.5992-1.6299-1.4315-3.6301-1.8496-4.4451-.418-.8149-.7618-1.7081-.7638-1.9848 0-.2767-.3892-1.3435-.8603-2.3707-.4712-1.0272-1.8375-4.4014-3.0362-7.4981-1.1987-3.0967-2.6422-6.6972-3.2079-8.0011-.5656-1.304-1.3984-3.2379-1.8504-4.298-1.0254-2.4042-1.6975-2.2118-2.7073.7753-.4345 1.2855-1.0417 2.8707-1.3492 3.5227-.3076.6519-1.1217 2.5188-1.8093 4.1487-.6876 1.6298-1.4908 3.4968-1.7851 4.1488-.4819 1.0677-6.9301 16.4797-14.8782 35.5608-1.6294 3.9116-3.2007 7.6456-3.4919 8.2975-.2912.6519-1.6183 3.8524-2.9492 7.1122-1.3309 3.2597-2.8111 6.8025-3.2893 7.873-.4782 1.0705-.8695 2.0706-.8695 2.2226 0 .1519 14.1354.2763 31.412.2763 17.2765 0 31.4119-.1416 31.4119-.3143zm198.8278 61.8224c-.1588-.4172-.2202-36.0971-.1364-79.2886l.1524-78.53h15.4097l.1528 35.1162.1529 35.1163h93.0412v-70.5289H952.55674v158.838H936.55444v-74.0848H843.51274l-.1526 36.8942-.1526 36.8943-7.5685.166c-5.7268.1255-7.6387-.018-7.8572-.5927zm159.743-78.6959v-79.4191h104.31156v14.817H1003.5271v55.7119H1080.5753v14.2243H1003.5271v59.2679h90.0872v14.8169H987.52484z"/><g fill="#000" fill-opacity="1" stroke="none" stroke-linecap="butt" stroke-linejoin="miter" stroke-opacity="1" stroke-width="2.558"><path d="M255.7597 798.07715v-49.16438h8.29957v21.3116h24.40635v-21.3116h8.29957v49.16438h-8.29957v-20.1159h-24.40635v20.1159z"/><path d="M329.00293 756.50898v41.56817h-8.29956v-41.56817h-14.91109v-7.59621h38.12174v7.59621z"/><path d="M371.45139 756.50898v41.56817h-8.29956v-41.56817h-14.91109v-7.59621h38.12174v7.59621z"/><path d="M412.2118 748.91277q11.18332 0 16.31779 4.29045 5.13448 4.29046 5.13448 13.22304 0 8.93259-5.27515 13.08237-5.20481 4.14978-16.03645 4.14978h-8.72158v14.41874h-8.29956v-49.16438zm1.05503 27.21976q6.89286 0 9.3546-2.6024 2.53207-2.67274 2.53207-7.73689 0-5.13447-3.16509-7.24453t-9.91728-2.11006h-8.44024v19.69388z"/><path d="M477.48516 755.38362q-3.5871 0-5.90817 1.47704-2.32106 1.47704-2.32106 4.50146 0 2.95408 2.32106 4.57179 2.32107 1.54738 9.84694 3.3761 7.59622 1.82872 11.39432 5.13448 3.86845 3.30576 3.86845 9.7766 0 6.40052-4.85314 10.40963t-12.73069 4.00911q-11.53499 0-20.46757-7.94789l5.20481-6.25984q7.45554 6.47085 15.47377 6.47085 4.00911 0 6.33017-1.68805 2.3914-1.75838 2.3914-4.57179 0-2.88375-2.25073-4.43113-2.18039-1.61771-7.59621-2.88375-5.41582-1.33637-8.22923-2.3914-2.81341-1.12536-4.99381-2.88374-4.36079-3.30576-4.36079-10.12829 0-6.82252 4.92348-10.47996 4.9938-3.72777 12.30867-3.72777 4.71247 0 9.3546 1.54738 4.64213 1.54737 8.01822 4.36079l-4.43112 6.25984q-2.18039-1.96939-5.90817-3.23543-3.72777-1.26603-7.3852-1.26603z"/><path d="M541.55073 748.91277v7.80722h-26.23507v13.01203h23.56233v7.38521h-23.56233v13.1527h27.0791v7.80722H507.0161v-49.16438z"/><path d="M592.28335 764.87888q0 12.16801-10.62063 15.3331l12.87136 17.86517h-10.55029l-11.746-16.5288h-10.90197v16.5288h-8.29957v-49.16438h18.28718q11.25365 0 16.10679 3.79811 4.85313 3.7981 4.85313 12.168zm-20.60824 9.14359q7.03353 0 9.5656-2.18039t2.53207-6.9632q0-4.85313-2.6024-6.61151-2.60241-1.82872-9.28426-1.82872h-10.5503v17.58382z"/><path d="M626.02671 798.07715h-9.28426l-19.76422-49.16438h9.28426l15.12209 36.71503 15.12209-36.71503h9.28426z"/><path d="M687.30417 748.91277v7.80722H661.0691v13.01203h23.56232v7.38521H661.0691v13.1527h27.07909v7.80722h-35.37866v-49.16438z"/><path d="M738.0368 764.87888q0 12.16801-10.62063 15.3331l12.87136 17.86517h-10.55029l-11.746-16.5288h-10.90197v16.5288h-8.29957v-49.16438h18.28718q11.25365 0 16.10679 3.79811 4.85313 3.7981 4.85313 12.168zm-20.60824 9.14359q7.03353 0 9.5656-2.18039t2.53207-6.9632q0-4.85313-2.60241-6.61151-2.6024-1.82872-9.28426-1.82872h-10.55029v17.58382z"/><path d="M786.14286 748.91277q11.18332 0 16.31779 4.29045 5.13448 4.29046 5.13448 13.22304 0 8.93259-5.27515 13.08237-5.20481 4.14978-16.03645 4.14978h-8.72157v14.41874h-8.29957v-49.16438zm1.05503 27.21976q6.89286 0 9.3546-2.6024 2.53207-2.67274 2.53207-7.73689 0-5.13447-3.16509-7.24453t-9.91728-2.11006h-8.44023v19.69388z"/><path d="M856.59024 764.87888q0 12.16801-10.62063 15.3331l12.87136 17.86517h-10.5503l-11.74599-16.5288h-10.90197v16.5288h-8.29957v-49.16438h18.28718q11.25365 0 16.10678 3.79811 4.85314 3.7981 4.85314 12.168zm-20.60825 9.14359q7.03354 0 9.56561-2.18039 2.53207-2.18039 2.53207-6.9632 0-4.85313-2.60241-6.61151-2.60241-1.82872-9.28426-1.82872h-10.55029v17.58382z"/><path d="M903.61048 760.5181q-4.99381-5.20482-12.30868-5.20482-7.31487 0-12.37901 5.20482-4.99381 5.20481-4.99381 12.66035 0 7.38521 4.99381 12.59002 5.06414 5.20481 12.37901 5.20481 7.31487 0 12.30868-5.20481 5.06414-5.20481 5.06414-12.59002 0-7.45554-5.06414-12.66035zm6.11917 30.80686q-7.45554 7.24454-18.42785 7.24454t-18.42785-7.24454q-7.45554-7.31487-7.45554-18.14651 0-10.90197 7.45554-18.14651 7.45554-7.31487 18.42785-7.31487t18.42785 7.31487q7.45554 7.24454 7.45554 18.14651 0 10.83164-7.45554 18.14651z"/><path d="M927.76078 756.36831v-7.45554h23.914v32.42458q0 8.5809-4.36079 12.87136-4.36079 4.29045-11.18331 4.29045-8.58091 0-14.62974-6.04884l4.71246-6.54118q4.7828 4.5718 9.3546 4.5718 3.23542 0 5.48615-2.1804 2.32107-2.18039 2.32107-6.54118v-25.39105z"/><path d="M999.41708 748.91277v7.80722h-26.23507v13.01203h23.56233v7.38521h-23.56233v13.1527h27.07909v7.80722h-35.37865v-49.16438z"/><path d="M1033.3395 790.55127q4.2905 0 7.3853-1.40671 3.0947-1.47704 6.4708-4.64213l5.3455 5.48616q-7.8072 8.65124-18.9905 8.65124-11.113 0-18.4982-7.1742-7.3149-7.1742-7.3149-18.14651t7.4555-18.28718q7.5259-7.31487 18.9202-7.31487 11.4647 0 19.1312 8.44024l-5.2751 5.76749q-3.5168-3.37609-6.6819-4.71246-3.0947-1.33637-7.3148-1.33637-7.4556 0-12.5197 4.85313-5.0642 4.7828-5.0642 12.30868 0 7.45554 4.9938 12.51968 5.0642 4.99381 11.957 4.99381z"/><path d="M1081.261 756.50898v41.56817h-8.2996v-41.56817h-14.9111v-7.59621h38.1217v7.59621z"/></g></g></svg>