<svg xmlns="http://www.w3.org/2000/svg" role="img" xmlns:xlink="http://www.w3.org/1999/xlink" viewBox="-4.53 -4.53 248.82 61.32"><title>Brightside (Support Provider Explorer for Visual Studio Code ZOWE V2) logo</title><path d="M237.32 9.09c-1.06 0-1.93-.86-1.93-1.92s.87-1.93 1.93-1.93 1.93.87 1.93 1.93-.87 1.92-1.93 1.92m0-4.32c-1.32 0-2.4 1.08-2.4 2.4 0 1.32 1.08 2.4 2.4 2.4 1.32 0 2.4-1.08 2.4-2.4 0-1.32-1.08-2.4-2.4-2.4"/><path d="M237.48 7.07l-.51.01-.01-.62h.51c.19-.01.34.11.34.3.01.19-.14.31-.33.31m.83-.32c-.01-.42-.3-.72-.77-.72l-1.07.02.03 2.26h.49l-.01-.81h.35l.46.8.55-.01-.52-.86c.24-.06.49-.28.49-.68M51.8341 23.1805h-5.999V9.3465h5.835c1.574 0 2.557 1.016 2.557 2.393 0 1.377-.983 2.36-2.557 2.36H45v4h6.8341c1.836 0 2.819 1.18 2.819 2.556 0 1.574-1.049 2.525-2.819 2.525m3.376-7.245c2.066-.426 3.771-2.262 3.771-5.015 0-2.918-2.131-5.573-6.295-5.573h-11.506v21.865h11.867c4.163 0 6.359-2.623 6.359-5.901 0-2.754-1.868-5.015-4.196-5.376m17.8225-.5902H68v4.098h3.5576l4.294 7.769h5.343l-4.917-8.327c2.361-.557 4.786-2.622 4.786-6.49m0 0c0-4.065-2.786-7.048-7.343-7.048h-10.228v21.865h4.655V9.4453h4.885c1.869 0 3.278 1.114 3.278 2.95s-1.409 2.95-3.278 2.95m43.4206 4.0652l3.409-9.408 3.41 9.408zm.492-14.063l-8.458 21.865h5.31l1.377-3.704h9.376l1.344 3.704h5.311l-8.425-21.865zm26.9039 17.7671h-3.967v-13.67h3.967c4.491 0 6.851 2.983 6.851 6.852 0 3.704-2.524 6.818-6.851 6.818m0-17.767h-8.622v21.865h8.622c6.851 0 11.604-4.327 11.604-10.916s-4.753-10.949-11.604-10.949m82.1269-.0045l-5.734 9.27-5.734-9.27h-5.146v21.869h4.656v-14.293l5.012 7.622c.574.871 1.851.871 2.424 0l5.013-7.622v14.293h4.656V5.3431z"/><path id="a" d="M95.8253 23.3441c-3.871 0-7.008-3.138-7.008-7.008 0-3.871 3.137-7.009 7.008-7.009 3.87 0 7.008 3.138 7.008 7.009 0 3.87-3.138 7.008-7.008 7.008m0-18.536c-6.367 0-11.528 5.161-11.528 11.528 0 6.366 5.161 11.527 11.528 11.527 6.366 0 11.528-5.161 11.528-11.527 0-6.367-5.162-11.528-11.528-11.528"/><path d="M176.4035 19.7269c-1.195 2.156-3.492 3.617-6.132 3.617-3.87 0-7.008-3.138-7.008-7.008 0-3.871 3.138-7.008 7.008-7.008 2.618 0 4.897 1.438 6.1 3.565l3.27-3.269c-2.092-2.915-5.508-4.816-9.37-4.816-6.367 0-11.527 5.161-11.527 11.528 0 6.366 5.16 11.528 11.527 11.528 3.883 0 7.316-1.922 9.404-4.865z"/><use transform="translate(98.718)" xlink:href="#a"/><ellipse cx="16.52" cy="16.497" fill="#cc092f" rx="16.236" ry="16.235"/><path fill="#fff" d="M30.8253 20.8832c-1.857-.74-3.557-.492-5.261.541 0 0-.621.379-.807.496-.794.498-1.543.97-2.263.97-.687 0-1.363-.184-1.649-1.513-.446-2.073-1.534-7.167-2.009-9.69-.279-1.483-.432-2.282-.591-2.825-.28-.954-.792-1.473-1.519-1.556 0 0-.114-.016-.207-.016-.092 0-.218.018-.218.018-.72.086-1.229.605-1.507 1.554-.159.543-.312 1.342-.591 2.825-.475 2.523-1.563 7.617-2.009 9.69-.286 1.329-.962 1.513-1.649 1.513-.72 0-1.469-.472-2.263-.97-.186-.117-.808-.496-.808-.496-1.703-1.033-3.404-1.281-5.26-.541-.401.16-.79596.33918-1.17196.52018.257.806.57693 1.59925.94993 2.34425.411-.202.84203-.40243 1.28203-.53243.634-.187 1.284-.197 1.914.014.612.205 1.157.568 1.7.909 1.023.643 2.182 1.372 3.657 1.372 2.186 0 3.72-1.305 4.21-3.581.38-1.764 1.222-5.702 1.763-8.418 0 0 1.386 6.654 1.765 8.418.49 2.276 2.025 3.581 4.211 3.581 1.475 0 2.634-.729 3.657-1.372.543-.341 1.088-.704 1.7-.909.629-.211 1.28-.201 1.914-.014.44.13.87039.33065 1.28139.53265.374-.745.69309-1.53862.95009-2.34462-.376-.181-.77048-.36003-1.17148-.52003"/><g text-anchor="middle"><path d="M103.73666 47.54004q0 .59619-.22558 1.05273-.22559.45655-.60694.75196-.45117.35449-.99365.50488Q101.37338 50 100.54086 50h-2.83593v-7.99756h2.36865q.87549 0 1.31054.06445.43506.06445.83252.26855.44043.23096.63916.5962.19873.35986.19873.86474 0 .56934-.29003.97217-.29004.39746-.77344.63916v.04297q.81103.1665 1.27832.71436.46728.54248.46728 1.375zm-1.78857-3.604q0-.29004-.0967-.48877-.0967-.19874-.31152-.32227-.25244-.14502-.61231-.17725-.35986-.0376-.8916-.0376h-1.26758v2.30958h1.375q.49951 0 .79492-.04834.29541-.05372.54786-.21485.25244-.16113.35449-.41357.10742-.25782.10742-.60694zm.68213 3.64697q0-.4834-.14502-.76807-.14502-.28467-.52637-.4834-.25781-.13427-.62842-.17187-.36523-.04297-.8916-.04297h-1.6704v2.97558h1.40722q.69824 0 1.14404-.06982.4458-.0752.73047-.26855.30078-.20947.44043-.47803.13965-.26855.13965-.69287z"/><path d="M108.90903 45.10156h-.0537q-.22559-.0537-.44043-.0752-.20948-.02685-.49952-.02685-.46728 0-.90234.20947-.43506.2041-.83789.53174V50h-1.00977v-5.99951h1.00977v.88623q.60156-.4834 1.05811-.68213.46191-.2041.93994-.2041.26318 0 .38134.0161.11817.01075.3545.04835z"/><path d="M110.94467 42.9961H109.806v-1.04737h1.13867zM110.88022 50h-1.00977v-5.99951h1.00977z"/><path d="M117.74448 49.31787q0 1.5254-.69287 2.23975-.69288.71435-2.13233.71435-.47803 0-.93457-.06983-.45117-.06445-.8916-.18799V50.9829h.0537q.24707.09668.78418.23633.53711.14502 1.07422.14502.51562 0 .854-.12353.33838-.12354.52637-.34375.18799-.20948.26855-.50489.0806-.2954.0806-.66064v-.54785q-.45654.36523-.87549.54785-.41357.17725-1.0581.17725-1.07422 0-1.70801-.77344-.62842-.77881-.62842-2.1914 0-.77345.21484-1.33204.22022-.56396.5962-.97217.34912-.38134.84863-.59082.49951-.21484.99365-.21484.521 0 .87012.10742.35449.10205.74658.3169l.0644-.25782h.94532zm-1.00977-.9668v-3.271q-.40283-.1826-.75195-.2578-.34375-.08057-.6875-.08057-.83252 0-1.31055.55859-.47803.5586-.47803 1.62207 0 1.00977.3545 1.53076.35449.521 1.17627.521.44042 0 .88085-.1665.44581-.17188.81641-.45655z"/><path d="M124.74838 50h-1.00976v-3.41602q0-.41357-.0483-.77343-.0483-.36524-.17725-.56934-.13428-.22559-.38672-.333-.25244-.1128-.65527-.1128-.41358 0-.86475.2041t-.86474.521V50h-1.00977v-8.35742h1.00977v3.02392q.47265-.39209.97754-.6123.50488-.22022 1.03662-.22022.97216 0 1.48242.58545.51025.58545.51025 1.68653z"/><path d="M129.80795 49.94629q-.28467.0752-.62304.12353-.33301.04834-.5962.04834-.91845 0-1.39648-.49414-.47803-.49414-.47803-1.58447v-3.19043h-.68213v-.84863h.68213v-1.72412h1.00977v1.72412h2.08398v.84863h-2.08398v2.73389q0 .47265.0215.7412.0215.2632.15039.49415.11817.21484.32227.3169.20947.09667.63379.09667.24707 0 .51562-.06983.26856-.0752.38672-.12353h.0537z"/><path d="M135.31332 48.2705q0 .82179-.68212 1.34815-.67676.52637-1.85303.52637-.66602 0-1.22461-.15576-.55322-.16114-.9292-.34912v-1.1333h.0537q.47803.35986 1.06348.5747.58545.20948 1.12256.20948.66601 0 1.04199-.21485.37597-.21484.37597-.67676 0-.35449-.2041-.5371-.2041-.18262-.78418-.31153-.21484-.04834-.56396-.1128-.34375-.06444-.62842-.13964-.78955-.20947-1.12256-.6123-.32764-.4082-.32764-.99903 0-.3706.1504-.69824.15576-.32764.46728-.58545.30078-.25244.7627-.39746.46728-.1504 1.04199-.1504.53711 0 1.08496.13429.55322.1289.91846.3169v1.07958h-.0537q-.38671-.28467-.93994-.47803-.55322-.19873-1.08496-.19873-.55322 0-.93457.21485-.38135.20947-.38135.62841 0 .37061.23096.5586.22559.18799.73047.30615.2793.06445.62305.1289.34912.06446.58008.11817.70361.16113 1.08496.55322.38134.39746.38134 1.05274z"/><path d="M137.84311 42.9961h-1.13867v-1.04737h1.13867zM137.77866 50h-1.00977v-5.99951h1.00977z"/><path d="M144.64291 50h-1.00976v-.62842q-.43506.37598-.90772.58545-.47265.20947-1.02588.20947-1.07421 0-1.708-.82715-.62842-.82714-.62842-2.29345 0-.7627.21484-1.35889.22022-.59619.59082-1.01514.36524-.4082.84864-.62304.48877-.21485 1.00976-.21485.47266 0 .83789.10205.36524.09668.76807.30616v-2.59961h1.00976zm-1.00976-1.47705v-3.44287q-.4082-.18262-.73047-.25244-.32227-.06983-.70361-.06983-.84864 0-1.32129.59082-.47266.59082-.47266 1.67578 0 1.06885.36524 1.62744.36523.55322 1.17089.55322.42969 0 .87012-.18799.44043-.19335.82178-.49414z"/><path d="M151.65219 47.10498h-4.42041q0 .55322.1665.9668.16651.4082.45655.67138.27929.25782.66064.38672.38672.1289.84864.1289.6123 0 1.22998-.24169.62304-.24707.88623-.4834h.0537v1.10108q-.51026.21484-1.042.35986-.53173.14502-1.11718.14502-1.49317 0-2.33106-.80567-.83789-.81103-.83789-2.29882 0-1.47168.8003-2.33643.80566-.86475 2.11621-.86475 1.21386 0 1.86914.70899.66064.70898.66064 2.01416zm-.98291-.77344q-.005-.79492-.40283-1.22998-.39209-.43506-1.19775-.43506-.81104 0-1.29444.47803-.47803.47803-.54248 1.18701z"/></g></svg>