<svg xmlns="http://www.w3.org/2000/svg" role="img" xmlns:xlink="http://www.w3.org/1999/xlink" viewBox="-4.53 -4.53 248.82 61.32"><title>Brightside logo</title><path d="M237.32 9.09c-1.06 0-1.93-.86-1.93-1.92s.87-1.93 1.93-1.93 1.93.87 1.93 1.93-.87 1.92-1.93 1.92m0-4.32c-1.32 0-2.4 1.08-2.4 2.4 0 1.32 1.08 2.4 2.4 2.4 1.32 0 2.4-1.08 2.4-2.4 0-1.32-1.08-2.4-2.4-2.4"/><path d="M237.48 7.07l-.51.01-.01-.62h.51c.19-.01.34.11.34.3.01.19-.14.31-.33.31m.83-.32c-.01-.42-.3-.72-.77-.72l-1.07.02.03 2.26h.49l-.01-.81h.35l.46.8.55-.01-.52-.86c.24-.06.49-.28.49-.68M51.8341 23.1805h-5.999V9.3465h5.835c1.574 0 2.557 1.016 2.557 2.393 0 1.377-.983 2.36-2.557 2.36H45v4h6.8341c1.836 0 2.819 1.18 2.819 2.556 0 1.574-1.049 2.525-2.819 2.525m3.376-7.245c2.066-.426 3.771-2.262 3.771-5.015 0-2.918-2.131-5.573-6.295-5.573h-11.506v21.865h11.867c4.163 0 6.359-2.623 6.359-5.901 0-2.754-1.868-5.015-4.196-5.376m17.8225-.5902H68v4.098h3.5576l4.294 7.769h5.343l-4.917-8.327c2.361-.557 4.786-2.622 4.786-6.49m0 0c0-4.065-2.786-7.048-7.343-7.048h-10.228v21.865h4.655V9.4453h4.885c1.869 0 3.278 1.114 3.278 2.95s-1.409 2.95-3.278 2.95m43.4206 4.0652l3.409-9.408 3.41 9.408zm.492-14.063l-8.458 21.865h5.31l1.377-3.704h9.376l1.344 3.704h5.311l-8.425-21.865zm26.9039 17.7671h-3.967v-13.67h3.967c4.491 0 6.851 2.983 6.851 6.852 0 3.704-2.524 6.818-6.851 6.818m0-17.767h-8.622v21.865h8.622c6.851 0 11.604-4.327 11.604-10.916s-4.753-10.949-11.604-10.949m82.1269-.0045l-5.734 9.27-5.734-9.27h-5.146v21.869h4.656v-14.293l5.012 7.622c.574.871 1.851.871 2.424 0l5.013-7.622v14.293h4.656V5.3431z"/><path id="a" d="M95.8253 23.3441c-3.871 0-7.008-3.138-7.008-7.008 0-3.871 3.137-7.009 7.008-7.009 3.87 0 7.008 3.138 7.008 7.009 0 3.87-3.138 7.008-7.008 7.008m0-18.536c-6.367 0-11.528 5.161-11.528 11.528 0 6.366 5.161 11.527 11.528 11.527 6.366 0 11.528-5.161 11.528-11.527 0-6.367-5.162-11.528-11.528-11.528"/><path d="M176.4035 19.7269c-1.195 2.156-3.492 3.617-6.132 3.617-3.87 0-7.008-3.138-7.008-7.008 0-3.871 3.138-7.008 7.008-7.008 2.618 0 4.897 1.438 6.1 3.565l3.27-3.269c-2.092-2.915-5.508-4.816-9.37-4.816-6.367 0-11.527 5.161-11.527 11.528 0 6.366 5.16 11.528 11.527 11.528 3.883 0 7.316-1.922 9.404-4.865z"/><use transform="translate(98.718)" xlink:href="#a"/><ellipse cx="16.52" cy="16.497" fill="#cc092f" rx="16.236" ry="16.235"/><path fill="#fff" d="M30.8253 20.8832c-1.857-.74-3.557-.492-5.261.541 0 0-.621.379-.807.496-.794.498-1.543.97-2.263.97-.687 0-1.363-.184-1.649-1.513-.446-2.073-1.534-7.167-2.009-9.69-.279-1.483-.432-2.282-.591-2.825-.28-.954-.792-1.473-1.519-1.556 0 0-.114-.016-.207-.016-.092 0-.218.018-.218.018-.72.086-1.229.605-1.507 1.554-.159.543-.312 1.342-.591 2.825-.475 2.523-1.563 7.617-2.009 9.69-.286 1.329-.962 1.513-1.649 1.513-.72 0-1.469-.472-2.263-.97-.186-.117-.808-.496-.808-.496-1.703-1.033-3.404-1.281-5.26-.541-.401.16-.79596.33918-1.17196.52018.257.806.57693 1.59925.94993 2.34425.411-.202.84203-.40243 1.28203-.53243.634-.187 1.284-.197 1.914.014.612.205 1.157.568 1.7.909 1.023.643 2.182 1.372 3.657 1.372 2.186 0 3.72-1.305 4.21-3.581.38-1.764 1.222-5.702 1.763-8.418 0 0 1.386 6.654 1.765 8.418.49 2.276 2.025 3.581 4.211 3.581 1.475 0 2.634-.729 3.657-1.372.543-.341 1.088-.704 1.7-.909.629-.211 1.28-.201 1.914-.014.44.13.87039.33065 1.28139.53265.374-.745.69309-1.53862.95009-2.34462-.376-.181-.77048-.36003-1.17148-.52003"/><g text-anchor="middle"><path d="M105.61606 47.76367q0 .542-.20508.95703-.20508.41504-.55176.6836-.41015.32226-.90332.45898Q103.46762 50 102.71078 50h-2.57812v-7.2705h2.15332q.7959 0 1.19141.05858.3955.0586.75683.24414.40039.20996.58106.542.18066.32714.18066.78613 0 .51758-.26367.88379-.26367.36133-.70313.58105v.03906q.73731.15137 1.16211.64942.42481.49316.42481 1.25zm-1.62598-3.27636q0-.26368-.0879-.44434t-.2832-.29297q-.22949-.13184-.55664-.16113-.32715-.03418-.81055-.03418h-1.15234v2.0996h1.25q.4541 0 .72265-.04394.26856-.04883.49805-.19532.22949-.14648.32227-.37597.0977-.23438.0977-.55176zm.62012 3.31542q0-.43945-.13184-.69824-.13183-.25879-.47851-.43945-.23438-.12207-.57129-.15625-.33203-.03906-.81055-.03906h-1.51855v2.70508h1.27929q.63477 0 1.04004-.06348.40528-.06836.66407-.24414.27343-.19043.40039-.43457.12695-.24414.12695-.62989z"/><path d="M110.31821 45.54688h-.0488q-.20508-.04884-.40039-.06837-.19043-.0244-.4541-.0244-.42481 0-.82032.19042-.3955.18555-.76171.4834V50h-.91797v-5.4541h.91797v.80566q.54687-.43945.96191-.62011.41992-.18555.85449-.18555.23926 0 .34668.01465.10742.0098.32227.04395z"/><path d="M112.16879 43.63281h-1.03515v-.95215h1.03515zM112.1102 50h-.91797v-5.4541h.91797z"/><path d="M118.35043 49.37988q0 1.38672-.62988 2.03614-.62988.64941-1.93848.64941-.43457 0-.84961-.06348-.41015-.05859-.81054-.1709v-.9375h.0488q.22461.0879.71289.21485.48828.13183.97656.13183.46875 0 .77637-.1123.30761-.1123.47851-.3125.1709-.19043.24414-.45899.0732-.26855.0732-.60058v-.49805q-.41503.33203-.79589.49805-.37598.16113-.96192.16113-.97656 0-1.55273-.70313-.57129-.708-.57129-1.99218 0-.70313.19531-1.21094.2002-.5127.54199-.88379.31739-.34668.77149-.5371.4541-.19532.90332-.19532.47363 0 .79101.09766.32227.09277.67871.28808l.0586-.23437h.85937zm-.91797-.8789v-2.97364q-.36621-.16601-.68359-.23437-.3125-.07324-.625-.07324-.75684 0-1.19141.50781-.43457.50781-.43457 1.47461 0 .91797.32227 1.3916.32227.47364 1.06934.47364.40039 0 .80078-.15137.40527-.15625.74218-.41504z"/><path d="M124.71762 50h-.91797v-3.10547q0-.37598-.0439-.70312-.0439-.33203-.16114-.51758-.12207-.20508-.35156-.30274-.22949-.10254-.5957-.10254-.37598 0-.78613.18555-.41016.18555-.78614.47363V50h-.91797v-7.59766h.91797v2.74903q.42969-.35645.88867-.55664.45899-.2002.94239-.2002.88379 0 1.34765.53223.46387.53222.46387 1.5332z"/><path d="M129.31723 49.95117q-.25879.06836-.56641.1123-.30273.04396-.54199.04396-.83496 0-1.26953-.44922t-.43457-1.44043v-2.9004h-.62012v-.77148h.62012v-1.56738h.91797v1.56738h1.89453v.77149h-1.89453v2.48535q0 .42969.0195.67383.0195.23926.13672.44922.10742.1953.29297.28808.19043.0879.57617.0879.22461 0 .46875-.06349.24414-.06836.35156-.1123h.0488z"/><path d="M134.32211 48.42773q0 .74708-.62011 1.22559-.61524.47852-1.68457.47852-.60547 0-1.11329-.1416-.50293-.14649-.84472-.31739v-1.03027h.0488q.43457.32715.96679.52246.53223.19043 1.02051.19043.60547 0 .94727-.19531.34179-.19532.34179-.61524 0-.32226-.18554-.48828-.18555-.16602-.71289-.2832-.19532-.04395-.5127-.10254-.3125-.0586-.57129-.12696-.71777-.19042-1.02051-.55663-.29785-.3711-.29785-.9082 0-.33692.13672-.63477.1416-.29786.42481-.53223.27343-.2295.69335-.36133.42481-.13672.94727-.13672.48828 0 .98633.12207.50293.11719.83496.28809v.98144h-.0488q-.35156-.25879-.85449-.43457-.50293-.18066-.98633-.18066-.50293 0-.84961.19531-.34668.19043-.34668.5713 0 .3369.20996.5078.20508.1709.66407.27832.2539.0586.5664.1172.31738.05858.52735.10741.63964.14649.98632.50293.34668.36133.34668.95703z"/><path d="M136.62192 43.63281h-1.03516v-.95215h1.03516zM136.56332 50h-.91796v-5.4541h.91796z"/><path d="M142.80356 50h-.91797v-.57129q-.39551.3418-.8252.53223-.42968.19043-.93261.19043-.97657 0-1.55274-.75196-.57129-.75195-.57129-2.08496 0-.69336.19532-1.23535.20019-.542.53711-.92285.33203-.3711.77148-.5664.44434-.19532.91797-.19532.42969 0 .76172.09277.33203.0879.69824.27832v-2.36328h.91797zm-.91797-1.34277v-3.12989q-.37109-.16601-.66406-.22949-.29297-.06348-.63965-.06348-.77149 0-1.20117.53711-.42969.53711-.42969 1.52344 0 .97168.33203 1.4795.33203.50292 1.06445.50292.39063 0 .79102-.1709.40039-.17578.74707-.44922z"/><path d="M149.17563 47.36816h-4.01856q0 .50293.15137.87891.15137.3711.41504.61035.25391.23438.60059.35156.35156.1172.77148.1172.55664 0 1.11816-.21974.56641-.2246.80567-.43945h.0488v1.00098q-.46387.19531-.94727.32715-.4834.13183-1.01562.13183-1.35743 0-2.11914-.73242-.76172-.7373-.76172-2.08984 0-1.3379.72754-2.12403.73242-.78613 1.92382-.78613 1.10352 0 1.69922.64453.60059.64453.60059 1.83106zm-.89356-.70312q-.005-.72266-.36621-1.11816-.35644-.39551-1.08886-.39551-.73731 0-1.17676.43457-.43457.43457-.49317 1.0791z"/></g></svg>