<svg xmlns="http://www.w3.org/2000/svg" role="img" xmlns:xlink="http://www.w3.org/1999/xlink" viewBox="-29.15 -5.65 306.80 63.55"><title>CA Database Management Solutions for Db2 for z/OS (API Mediation Layer ZOWE V1) logo</title><path d="M237.32 9.09c-1.06 0-1.93-.86-1.93-1.92s.87-1.93 1.93-1.93 1.93.87 1.93 1.93-.87 1.92-1.93 1.92m0-4.32c-1.32 0-2.4 1.08-2.4 2.4 0 1.32 1.08 2.4 2.4 2.4 1.32 0 2.4-1.08 2.4-2.4 0-1.32-1.08-2.4-2.4-2.4"/><path d="M237.48 7.07l-.51.01-.01-.62h.51c.19-.01.34.11.34.3.01.19-.14.31-.33.31m.83-.32c-.01-.42-.3-.72-.77-.72l-1.07.02.03 2.26h.49l-.01-.81h.35l.46.8.55-.01-.52-.86c.24-.06.49-.28.49-.68M51.8341 23.1805h-5.999V9.3465h5.835c1.574 0 2.557 1.016 2.557 2.393 0 1.377-.983 2.36-2.557 2.36H45v4h6.8341c1.836 0 2.819 1.18 2.819 2.556 0 1.574-1.049 2.525-2.819 2.525m3.376-7.245c2.066-.426 3.771-2.262 3.771-5.015 0-2.918-2.131-5.573-6.295-5.573h-11.506v21.865h11.867c4.163 0 6.359-2.623 6.359-5.901 0-2.754-1.868-5.015-4.196-5.376m17.8225-.5902H68v4.098h3.5576l4.294 7.769h5.343l-4.917-8.327c2.361-.557 4.786-2.622 4.786-6.49m0 0c0-4.065-2.786-7.048-7.343-7.048h-10.228v21.865h4.655V9.4453h4.885c1.869 0 3.278 1.114 3.278 2.95s-1.409 2.95-3.278 2.95m43.4206 4.0652l3.409-9.408 3.41 9.408zm.492-14.063l-8.458 21.865h5.31l1.377-3.704h9.376l1.344 3.704h5.311l-8.425-21.865zm26.9039 17.7671h-3.967v-13.67h3.967c4.491 0 6.851 2.983 6.851 6.852 0 3.704-2.524 6.818-6.851 6.818m0-17.767h-8.622v21.865h8.622c6.851 0 11.604-4.327 11.604-10.916s-4.753-10.949-11.604-10.949m82.1269-.0045l-5.734 9.27-5.734-9.27h-5.146v21.869h4.656v-14.293l5.012 7.622c.574.871 1.851.871 2.424 0l5.013-7.622v14.293h4.656V5.3431z"/><path id="a" d="M95.8253 23.3441c-3.871 0-7.008-3.138-7.008-7.008 0-3.871 3.137-7.009 7.008-7.009 3.87 0 7.008 3.138 7.008 7.009 0 3.87-3.138 7.008-7.008 7.008m0-18.536c-6.367 0-11.528 5.161-11.528 11.528 0 6.366 5.161 11.527 11.528 11.527 6.366 0 11.528-5.161 11.528-11.527 0-6.367-5.162-11.528-11.528-11.528"/><path d="M176.4035 19.7269c-1.195 2.156-3.492 3.617-6.132 3.617-3.87 0-7.008-3.138-7.008-7.008 0-3.871 3.138-7.008 7.008-7.008 2.618 0 4.897 1.438 6.1 3.565l3.27-3.269c-2.092-2.915-5.508-4.816-9.37-4.816-6.367 0-11.527 5.161-11.527 11.528 0 6.366 5.16 11.528 11.527 11.528 3.883 0 7.316-1.922 9.404-4.865z"/><use transform="translate(98.718)" xlink:href="#a"/><ellipse cx="16.52" cy="16.497" fill="#cc092f" rx="16.236" ry="16.235"/><path fill="#fff" d="M30.8253 20.8832c-1.857-.74-3.557-.492-5.261.541 0 0-.621.379-.807.496-.794.498-1.543.97-2.263.97-.687 0-1.363-.184-1.649-1.513-.446-2.073-1.534-7.167-2.009-9.69-.279-1.483-.432-2.282-.591-2.825-.28-.954-.792-1.473-1.519-1.556 0 0-.114-.016-.207-.016-.092 0-.218.018-.218.018-.72.086-1.229.605-1.507 1.554-.159.543-.312 1.342-.591 2.825-.475 2.523-1.563 7.617-2.009 9.69-.286 1.329-.962 1.513-1.649 1.513-.72 0-1.469-.472-2.263-.97-.186-.117-.808-.496-.808-.496-1.703-1.033-3.404-1.281-5.26-.541-.401.16-.79596.33918-1.17196.52018.257.806.57693 1.59925.94993 2.34425.411-.202.84203-.40243 1.28203-.53243.634-.187 1.284-.197 1.914.014.612.205 1.157.568 1.7.909 1.023.643 2.182 1.372 3.657 1.372 2.186 0 3.72-1.305 4.21-3.581.38-1.764 1.222-5.702 1.763-8.418 0 0 1.386 6.654 1.765 8.418.49 2.276 2.025 3.581 4.211 3.581 1.475 0 2.634-.729 3.657-1.372.543-.341 1.088-.704 1.7-.909.629-.211 1.28-.201 1.914-.014.44.13.87039.33065 1.28139.53265.374-.745.69309-1.53862.95009-2.34462-.376-.181-.77048-.36003-1.17148-.52003"/><path d="M-16.48453 49.41992q-.2954.1289-.5371.2417-.23634.1128-.62305.23633-.32764.10205-.71436.17187-.38135.0752-.84326.0752-.87012 0-1.58447-.2417-.70899-.24707-1.23536-.76806-.51562-.51026-.80566-1.29444-.29004-.78955-.29004-1.83154 0-.98828.2793-1.76709.2793-.7788.80566-1.31592.51026-.521 1.22998-.79492.7251-.27392 1.60596-.27392.64453 0 1.2837.15576.64452.15576 1.4287.54785v1.2622h-.08057q-.66064-.55322-1.31055-.80566-.6499-.25244-1.3911-.25244-.60694 0-1.09571.19873-.4834.19336-.86475.60693-.3706.40284-.58008 1.02051-.2041.6123-.2041 1.41797 0 .84326.22559 1.4502.23096.60693.59082.98828.37598.39746.87549.59082.50488.18799 1.06347.18799.76807 0 1.43946-.26319.67138-.26318 1.25683-.78955h.0752zM-8.66422 50h-1.1333l-.78418-2.229h-3.45898L-14.82486 50h-1.07959l2.91113-7.99756h1.41797zm-2.24511-3.14209l-1.40186-3.92627-1.40722 3.92627zm14.083-.84863q0 1.09033-.47802 1.97656-.47266.88623-1.2622 1.375-.54786.33838-1.22462.48877Q-.46255 50-1.56363 50h-2.01953v-7.99756h1.99805q1.1709 0 1.8584.17188.69287.1665 1.1709.46191.8164.51025 1.27294 1.35889.45655.84863.45655 2.01416zm-1.11181-.01611q0-.93994-.32764-1.58448-.32763-.64453-.97754-1.01514-.47265-.26855-1.0044-.3706-.53173-.10742-1.27294-.10742h-.99902v6.17138h.99902q.76807 0 1.3374-.11279.5747-.1128 1.05274-.41894.59619-.38135.8916-1.0044.30078-.62305.30078-1.55762zM9.4847 50h-1.0044v-.63916q-.13427.0913-.36523.25781-.22558.16113-.44043.25782-.25244.12353-.58008.2041-.32763.08594-.76806.08594-.81104 0-1.375-.53711-.56397-.53711-.56397-1.36963 0-.68213.29004-1.10108.29541-.42431.8379-.66601.54784-.2417 1.31591-.32764.76807-.08594 1.64893-.1289v-.15577q0-.34375-.12354-.56933-.11816-.2256-.34375-.3545-.21484-.12353-.51562-.1665-.30079-.04297-.62842-.04297-.39746 0-.88623.10742-.48877.10205-1.00977.30078h-.0537V44.1294q.2954-.08056.854-.17724.55859-.09668 1.10107-.09668.63379 0 1.10107.10742.47266.10205.81641.3545.33838.24706.51562.63915.17725.3921.17725.97217zm-1.0044-1.47705v-1.67041q-.4619.02686-1.09033.08057-.62304.0537-.98828.15576-.43506.12354-.70361.38672-.26856.25781-.26856.71436 0 .51562.31153.7788.31152.25782.95068.25782.53174 0 .97217-.2041.44043-.20948.8164-.49952zm6.07471 1.42334q-.28467.0752-.62304.12353-.33301.04834-.5962.04834-.91845 0-1.39648-.49414-.47803-.49414-.47803-1.58447v-3.19043h-.68213v-.84863h.68213v-1.72412h1.00977v1.72412h2.08398v.84863h-2.08398v2.73389q0 .47265.02148.7412.02149.2632.15039.49415.11816.21484.32227.3169.20947.09667.63379.09667.24707 0 .51562-.06983.26855-.0752.38672-.12353h.0537zM20.44174 50h-1.0044v-.63916q-.13427.09131-.36523.25781-.22558.16114-.44043.25782-.25244.12353-.58008.2041-.32763.08594-.76806.08594-.81104 0-1.375-.53711-.56397-.53711-.56397-1.36963 0-.68213.29004-1.10108.29541-.42431.8379-.66601.54784-.2417 1.31591-.32764.76807-.08594 1.64893-.1289v-.15577q0-.34375-.12354-.56933-.11816-.22559-.34375-.3545-.21484-.12353-.51562-.1665-.30078-.04297-.62842-.04297-.39746 0-.88623.10742-.48877.10205-1.00977.30078h-.0537V44.1294q.2954-.08057.854-.17725.5586-.09668 1.10107-.09668.63379 0 1.10108.10742.47265.10205.8164.3545.33838.24706.51563.63915.17724.3921.17724.97217zm-1.0044-1.47705v-1.67041q-.4619.02686-1.09032.08057-.62305.0537-.98829.15576-.43505.12354-.7036.38672-.26856.25781-.26856.71436 0 .51562.31152.7788.31152.25782.95068.25782.53174 0 .97217-.2041.44043-.20948.8164-.49952zm8.23926-1.56836q0 .75195-.21484 1.35352-.20947.60156-.56933 1.00976-.38135.42432-.8379.63916-.45654.20947-1.00439.20947-.51025 0-.8916-.12353-.38135-.11816-.75195-.32227L23.34213 50h-.94531v-8.35742h1.00977v2.98633q.42431-.34912.90234-.56934.47803-.22559 1.07422-.22559 1.06347 0 1.67578.81641.61767.8164.61767 2.3042zm-1.04199.02685q0-1.07422-.35449-1.62744-.3545-.5586-1.14404-.5586-.44043 0-.8916.19337-.45118.18798-.8379.48876v3.4375q.4297.19336.73585.26856.31152.0752.7036.0752.8379 0 1.31056-.54785.47802-.55322.47802-1.7295zM33.91244 50h-1.00439v-.63916q-.13428.09131-.36523.25781-.22559.16114-.44043.25782-.25244.12353-.58008.2041-.32764.08594-.76807.08594-.81103 0-1.375-.53711-.56396-.53711-.56396-1.36963 0-.68213.29004-1.10108.2954-.42431.83789-.66601.54785-.2417 1.31591-.32764.76807-.08594 1.64893-.1289v-.15577q0-.34375-.12354-.56933-.11816-.22559-.34374-.3545-.21485-.12353-.51563-.1665-.30078-.04297-.62842-.04297-.39746 0-.88623.10742-.48877.10205-1.00976.30078h-.05371V44.1294q.2954-.08057.854-.17725.5586-.09668 1.10108-.09668.63378 0 1.10107.10742.47265.10205.8164.3545.33838.24706.51563.63915.17725.3921.17725.97217zm-1.00439-1.47705v-1.67041q-.46191.02686-1.09033.08057-.62305.0537-.98828.15576-.43506.12354-.70362.38672-.26855.25781-.26855.71436 0 .51562.31152.7788.31153.25782.95069.25782.53173 0 .97216-.2041.44043-.20948.81641-.49952zm7.2456-.25244q0 .82177-.68212 1.34814-.67676.52637-1.85303.52637-.66602 0-1.22461-.15576-.55322-.16114-.9292-.34912v-1.1333h.05371q.47803.35986 1.06348.5747.58545.20948 1.12256.20948.66601 0 1.04199-.21485.37598-.21484.37598-.67676 0-.35449-.2041-.5371-.2041-.18262-.78419-.31153-.21484-.04834-.56396-.1128-.34375-.06444-.62842-.13964-.78955-.20947-1.12256-.6123-.32763-.4082-.32763-.99903 0-.3706.15039-.69824.15576-.32764.46728-.58545.30078-.25244.7627-.39746.46728-.1504 1.04199-.1504.5371 0 1.08496.13429.55322.1289.91846.3169v1.07958h-.05371q-.38672-.28467-.93994-.47803-.55323-.19873-1.08497-.19873-.55322 0-.93457.21485-.38134.20947-.38134.62841 0 .37061.23095.5586.22559.18799.73047.30615.2793.06445.62305.1289.34912.06446.58008.11817.70361.16113 1.08496.55322.38135.39746.38135 1.05274zm6.47217-1.16553h-4.4204q0 .55322.1665.9668.1665.4082.45654.67138.2793.25782.66065.38672.38671.1289.84863.1289.6123 0 1.22998-.24169.62305-.24707.88623-.4834h.0537v1.10108q-.51024.21484-1.04198.35986-.53174.14502-1.1172.14502-1.49315 0-2.33104-.80567-.8379-.81103-.8379-2.29882 0-1.47168.8003-2.33643.80566-.86475 2.1162-.86475 1.21388 0 1.86915.70899.66064.70898.66064 2.01416zm-.9829-.77344q-.0054-.79492-.40284-1.22998-.39209-.43506-1.19775-.43506-.81104 0-1.29444.47803-.47802.47803-.54248 1.18701zM59.2264 50h-1.06348v-6.89111l-2.22363 4.68896h-.63379L53.098 43.1089V50h-.99365v-7.99756h1.4502l2.13232 4.45264 2.0625-4.45264h1.47705zm6.74072 0h-1.0044v-.63916q-.13427.09131-.36523.25781-.22558.16114-.44043.25782-.25244.12353-.58007.2041-.32764.08594-.76807.08594-.81104 0-1.375-.53711t-.56396-1.36963q0-.68213.29003-1.10108.29541-.42431.8379-.66601.54785-.2417 1.31591-.32764.76807-.08594 1.64893-.1289v-.15577q0-.34375-.12354-.56933-.11816-.22559-.34375-.3545-.21484-.12353-.51562-.1665-.30078-.04297-.62842-.04297-.39746 0-.88623.10742-.48877.10205-1.00977.30078h-.0537V44.1294q.2954-.08057.854-.17725.5586-.09668 1.10107-.09668.6338 0 1.10108.10742.47265.10205.8164.3545.33838.24706.51563.63915.17724.3921.17724.97217zm-1.0044-1.47705v-1.67041q-.4619.02686-1.09032.08057-.62305.0537-.98829.15576-.43505.12354-.7036.38672-.26856.25781-.26856.71436 0 .51562.31152.7788.31152.25782.95068.25782.53174 0 .97217-.2041.44043-.20948.8164-.49952zM72.93882 50h-1.00976v-3.41602q0-.41357-.04834-.77343-.04834-.36524-.17725-.56934-.13428-.22559-.38672-.333-.25244-.1128-.65527-.1128-.41358 0-.86475.2041t-.86474.521V50H67.9222v-5.99951h1.00977v.66601q.47265-.39209.97754-.6123.50488-.22022 1.03662-.22022.97216 0 1.48242.58545.51025.58545.51025 1.68653zm6.60645 0h-1.0044v-.63916q-.13427.09131-.36523.25781-.22559.16114-.44043.25782-.25244.12353-.58008.2041-.32764.08594-.76807.08594-.81103 0-1.375-.53711-.56396-.53711-.56396-1.36963 0-.68213.29004-1.10108.2954-.42431.83789-.66601.54785-.2417 1.31592-.32764.76806-.08594 1.64892-.1289v-.15577q0-.34375-.12353-.56933-.11817-.22559-.34375-.3545-.21485-.12353-.51563-.1665-.30078-.04297-.62842-.04297-.39746 0-.88623.10742-.48877.10205-1.00976.30078h-.05371V44.1294q.2954-.08057.854-.17725.5586-.09668 1.10108-.09668.63379 0 1.10107.10742.47266.10205.8164.3545.33839.24706.51563.63915.17725.3921.17725.97217zm-1.0044-1.47705v-1.67041q-.46191.02686-1.09033.08057-.62305.0537-.98828.15576-.43506.12354-.70361.38672-.26856.25781-.26856.71436 0 .51562.31152.7788.31153.25782.95069.25782.53174 0 .97217-.2041.44043-.20948.8164-.49952zm7.82569.79492q0 1.5254-.69287 2.23975-.69288.71435-2.13233.71435-.47803 0-.93457-.06983-.45117-.06445-.8916-.18799V50.9829h.0537q.24708.09668.78419.23633.5371.14502 1.07422.14502.51562 0 .854-.12353.33838-.12354.52637-.34375.18799-.20948.26855-.50489.08057-.2954.08057-.66064v-.54785q-.45654.36523-.87548.54785-.41358.17725-1.05811.17725-1.07422 0-1.708-.77344-.62843-.77881-.62843-2.1914 0-.77345.21485-1.33204.22021-.56396.59619-.97217.34912-.38134.84863-.59082.49951-.21484.99365-.21484.521 0 .87012.10742.3545.10205.74658.3169l.06445-.25782h.94532zm-1.00977-.9668v-3.271q-.40283-.1826-.75195-.2578-.34375-.08057-.6875-.08057-.83252 0-1.31055.55859-.47803.5586-.47803 1.62207 0 1.00977.3545 1.53076.35449.521 1.17626.521.44044 0 .88087-.1665.4458-.17188.8164-.45655zm8.01904-1.24609h-4.4204q0 .55322.1665.9668.1665.4082.45654.67138.2793.25782.66064.38672.38672.1289.84864.1289.6123 0 1.22998-.24169.62305-.24707.88623-.4834h.0537v1.10108q-.51025.21484-1.04198.35986-.53174.14502-1.1172.14502-1.49316 0-2.33105-.80567-.83789-.81103-.83789-2.29882 0-1.47168.8003-2.33643.80566-.86475 2.1162-.86475 1.21387 0 1.86915.70899.66064.70898.66064 2.01416zm-.9829-.77344q-.0054-.79492-.40284-1.22998-.39209-.43506-1.19775-.43506-.81104 0-1.29444.47803-.47802.47803-.54248 1.18701zM103.66146 50h-1.00977v-3.41602q0-.38671-.0376-.74658-.0322-.35986-.14502-.5747-.12354-.23096-.3545-.34913-.23095-.11816-.66601-.11816-.42432 0-.84863.21484-.42432.20948-.84864.53711.01611.12354.02686.29004.01074.16114.01074.32227V50h-1.00976v-3.41602q0-.39746-.0376-.75195-.03223-.35986-.14502-.5747-.12354-.23096-.3545-.34376-.23095-.11816-.66601-.11816-.41358 0-.83252.2041-.41357.2041-.82715.521V50h-1.00977v-5.99951h1.00977v.66601q.47266-.39209.93994-.6123.47266-.22022 1.0044-.22022.6123 0 1.03662.25782.42968.2578.63916.71435.6123-.51562 1.11719-.7412.50488-.23097 1.07959-.23097.98828 0 1.45556.60157.47266.59619.47266 1.6704zm6.96631-2.89502h-4.42041q0 .55322.1665.9668.1665.4082.45654.67138.2793.25782.66065.38672.38672.1289.84863.1289.61231 0 1.22998-.24169.62305-.24707.88623-.4834h.0537v1.10108q-.51025.21484-1.04199.35986t-1.11719.14502q-1.49316 0-2.33105-.80567-.83789-.81103-.83789-2.29882 0-1.47168.80029-2.33643.80567-.86475 2.11621-.86475 1.21387 0 1.86914.70899.66065.70898.66065 2.01416zm-.98291-.77344q-.005-.79492-.40284-1.22998-.39208-.43506-1.19775-.43506-.81103 0-1.29443.47803-.47803.47803-.54248 1.18701zM117.17514 50h-1.00977v-3.41602q0-.41357-.0483-.77343-.0483-.36524-.17724-.56934-.13428-.22559-.38672-.333-.25244-.1128-.65527-.1128-.41358 0-.86475.2041t-.86475.521V50h-1.00976v-5.99951h1.00976v.66601q.47266-.39209.97754-.6123.50489-.22022 1.03662-.22022.97217 0 1.48243.58545.51025.58545.51025 1.68653zm5.05957-.05371q-.28467.0752-.62305.12353-.333.04834-.59619.04834-.91845 0-1.39648-.49414-.47803-.49414-.47803-1.58447v-3.19043h-.68213v-.84863h.68213v-1.72412h1.00977v1.72412h2.08398v.84863h-2.08398v2.73389q0 .47265.0215.7412.0215.2632.15039.49415.11817.21484.32227.3169.20947.09667.63379.09667.24707 0 .51562-.06983.26856-.0752.38672-.12353h.0537zm10.98389-2.229q0 .46728-.22022.92382-.21484.45655-.60693.77344-.42969.34375-1.0044.53711-.56933.19336-1.375.19336-.86474 0-1.55761-.16113-.6875-.16114-1.40186-.47803v-1.33203h.0752q.60693.50488 1.40185.7788.79492.27393 1.49317.27393.98828 0 1.53613-.3706.55322-.3706.55322-.98828 0-.53174-.26318-.78418-.25781-.25245-.78955-.3921-.40283-.10742-.87549-.17724-.46729-.06982-.99365-.17725-1.06348-.22558-1.5791-.76806-.51026-.54785-.51026-1.42334 0-1.0044.84863-1.64356.84864-.64453 2.15381-.64453.84326 0 1.54688.16114.70361.16113 1.24609.39746v1.25683h-.0752q-.45655-.38672-1.20313-.63916-.74121-.25781-1.52002-.25781-.854 0-1.375.3545-.51562.35448-.51562.91308 0 .4995.25781.78418.25781.28466.90771.43505.34375.0752.97754.18262t1.07422.22022q.8916.23633 1.34278.71435.45117.47803.45117 1.3374zm6.74072-.71436q0 1.4663-.75195 2.31494-.75196.84863-2.01416.84863-1.27295 0-2.02491-.84863-.74658-.84863-.74658-2.31494 0-1.4663.74658-2.31494.75196-.854 2.02491-.854 1.2622 0 2.01416.854.75195.84863.75195 2.31494zm-1.04199 0q0-1.16553-.45655-1.7295-.45654-.56933-1.26757-.56933-.82178 0-1.27832.56934-.45118.56396-.45118 1.72949 0 1.12793.45655 1.71338.45654.58008 1.27295.58008.80566 0 1.2622-.57471.46192-.58008.46192-1.71875zM142.54819 50h-1.00977v-8.35742h1.00977zm6.98242 0h-1.00977v-.66602q-.51025.40284-.97754.61768-.46728.21484-1.03125.21484-.94531 0-1.47168-.5747-.52636-.58008-.52636-1.69727V44.0005h1.00976v3.41601q0 .45655.043.78418.043.32227.18262.55323.14502.23632.37598.34375.23095.10742.67138.10742.39209 0 .85401-.2041.46728-.2041.87011-.521v-4.4795h1.00977zm5.10254-.05371q-.28467.0752-.62305.12353-.33301.04834-.59619.04834-.91846 0-1.39648-.49414-.47803-.49414-.47803-1.58447v-3.19043h-.68213v-.84863h.68213v-1.72412h1.00976v1.72412h2.08399v.84863h-2.08399v2.73389q0 .47265.0215.7412.0215.2632.15039.49415.11816.21484.32226.3169.20948.09667.63379.09667.24707 0 .51563-.06983.26855-.0752.38672-.12353h.0537zm2.30957-6.9502h-1.13867v-1.04736h1.13867zM156.87827 50h-1.00977v-5.99951h1.00977zm7.12207-2.99707q0 1.4663-.75196 2.31494-.75195.84863-2.01416.84863-1.27295 0-2.0249-.84863-.74658-.84863-.74658-2.31494 0-1.4663.74658-2.31494.75195-.854 2.0249-.854 1.26221 0 2.01416.854.75196.84863.75196 2.31494zm-1.042 0q0-1.16553-.45654-1.7295-.45654-.56933-1.26758-.56933-.82177 0-1.27832.56934-.45117.56396-.45117 1.72949 0 1.12793.45654 1.71338.45655.58008 1.27295.58008.80567 0 1.26221-.57471.46191-.58008.46191-1.71875zM170.5853 50h-1.00977v-3.41602q0-.41357-.0483-.77343-.0483-.36524-.17724-.56934-.13428-.22559-.38672-.333-.25245-.1128-.65528-.1128-.41357 0-.86474.2041-.45118.2041-.86475.521V50h-1.00976v-5.99951h1.00976v.66601q.47266-.39209.97754-.6123.50488-.22022 1.03662-.22022.97217 0 1.48242.58545.51026.58545.51026 1.68653zm6.23047-1.7295q0 .82179-.68213 1.34815-.67676.52637-1.85303.52637-.66602 0-1.22461-.15576-.55322-.16114-.9292-.34912v-1.1333h.0537q.47803.35986 1.06348.5747.58545.20948 1.12256.20948.66601 0 1.04199-.21485.37598-.21484.37598-.67676 0-.35449-.20411-.5371-.2041-.18262-.78418-.31153-.21484-.04834-.56396-.1128-.34375-.06444-.62842-.13964-.78955-.20947-1.12256-.6123-.32763-.4082-.32763-.99903 0-.3706.15039-.69824.15576-.32764.46728-.58545.30078-.25244.7627-.39746.46728-.1504 1.04199-.1504.53711 0 1.08496.13429.55322.1289.91846.3169v1.07958h-.0537q-.38672-.28467-.93995-.47803-.55322-.19873-1.08496-.19873-.55322 0-.93457.21485-.38134.20947-.38134.62841 0 .37061.23095.5586.22559.18799.73047.30615.2793.06445.62305.1289.34912.06446.58008.11817.70361.16113 1.08496.55322.38135.39746.38135 1.05274zm8.54541-5.65038h-.0537q-.1665-.04834-.43505-.09668-.26856-.05371-.47266-.05371-.6499 0-.94531.29004-.29004.28466-.29004 1.03662v.2041h1.8208v.84863h-1.78858V50h-1.00976v-5.15088h-.68213v-.84863h.68213v-.19873q0-1.06885.53174-1.63819.53174-.5747 1.53613-.5747.33838 0 .60693.03223.27393.03223.49952.0752zm5.75244 4.38281q0 1.4663-.75196 2.31494-.75195.84863-2.01416.84863-1.27295 0-2.0249-.84863-.74658-.84863-.74658-2.31494 0-1.4663.74658-2.31494.75195-.854 2.0249-.854 1.26221 0 2.01416.854.75196.84863.75196 2.31494zm-1.042 0q0-1.16553-.45654-1.7295-.45654-.56933-1.26758-.56933-.82177 0-1.27832.56934-.45117.56396-.45117 1.72949 0 1.12793.45654 1.71338.45655.58008 1.27295.58008.80567 0 1.26221-.57471.46191-.58008.46191-1.71875zm6.35401-1.90137h-.0537q-.22559-.0537-.44043-.0752-.20947-.02685-.49951-.02685-.46729 0-.90235.20947-.43506.2041-.83789.53174V50h-1.00976v-5.99951h1.00976v.88623q.60156-.4834 1.05811-.68213.46191-.2041.93994-.2041.26318 0 .38135.0161.11816.01075.35449.04835zm11.66601.90772q0 1.09033-.47802 1.97656-.47266.88623-1.26221 1.375-.54785.33838-1.22461.48877Q204.45541 50 203.35434 50h-2.01953v-7.99756h1.99805q1.17089 0 1.85839.17188.69287.1665 1.1709.46191.81641.51025 1.27295 1.35889.45654.84863.45654 2.01416zm-1.11181-.01611q0-.93994-.32764-1.58448-.32764-.64453-.97754-1.01513-.47265-.26856-1.00439-.3706-.53174-.10743-1.27295-.10743h-.99903v6.17139h.99903q.76806 0 1.3374-.1128.57471-.11279 1.05274-.41894.59619-.38135.8916-1.0044.30078-.62304.30078-1.55761zm8.04053.96142q0 .75195-.21485 1.35352-.20947.60156-.56933 1.00976-.38135.42432-.8379.63916-.45654.20947-1.00439.20947-.51025 0-.8916-.12353-.38135-.11816-.75195-.32227l-.06446.2793h-.94531v-8.35742h1.00977v2.98633q.42431-.34912.90234-.56934.47803-.22559 1.07422-.22559 1.06347 0 1.67578.81641.61768.8164.61768 2.3042zm-1.042.02685q0-1.07422-.35449-1.62744-.35449-.5586-1.14404-.5586-.44043 0-.8916.19337-.45118.18798-.83789.48876v3.4375q.42968.19336.73584.26856.31152.0752.70361.0752.83789 0 1.31055-.54785.47802-.55322.47802-1.7295zM221.87924 50h-5.41406v-1.12256l1.12793-.9668q.56934-.4834 1.0581-.96142 1.03125-.99903 1.4126-1.58447.38135-.59082.38135-1.27295 0-.62305-.41357-.97217-.40821-.3545-1.14405-.3545-.48877 0-1.0581.17188-.56934.17188-1.11182.52637h-.0537v-1.12793q.38135-.18799 1.01514-.34375.63916-.15576 1.23535-.15576 1.22998 0 1.92822.59619.69824.59082.69824 1.60596 0 .45654-.11816.854-.11279.39209-.33838.74658-.20947.33301-.49414.65527-.2793.32227-.68213.71436-.57471.56397-1.18701 1.0957-.61231.52637-1.14404.97754h4.30224zm8.81397-7.37988h-.0537q-.16651-.04834-.43506-.09668-.26856-.05371-.47266-.05371-.6499 0-.94531.29004-.29004.28466-.29004 1.03662v.2041h1.8208v.84863h-1.78857V50h-1.00977v-5.15088h-.68213v-.84863h.68213v-.19873q0-1.06885.53174-1.63819.53174-.5747 1.53613-.5747.33838 0 .60694.03223.27392.03223.49951.0752zm5.75244 4.38281q0 1.4663-.75195 2.31494-.75196.84863-2.01417.84863-1.27294 0-2.0249-.84863-.74658-.84863-.74658-2.31494 0-1.4663.74658-2.31494.75196-.854 2.0249-.854 1.26221 0 2.01417.854.75195.84863.75195 2.31494zm-1.04199 0q0-1.16553-.45655-1.7295-.45654-.56933-1.26758-.56933-.82177 0-1.27832.56934-.45117.56396-.45117 1.72949 0 1.12793.45655 1.71338.45654.58008 1.27294.58008.80567 0 1.26221-.57471.46192-.58008.46192-1.71875zm6.354-1.90137h-.0537q-.22559-.0537-.44043-.0752-.20947-.02685-.49951-.02685-.46729 0-.90235.20947-.43505.2041-.83789.53174V50h-1.00976v-5.99951h1.00976v.88623q.60157-.4834 1.05811-.68213.46191-.2041.93994-.2041.26318 0 .38135.0161.11816.01075.35449.04835zM250.93686 50h-4.84473v-.74658l3.49658-4.40967h-3.42138v-.84326h4.67822v.71972l-3.51269 4.42579h3.604zm5.0542-8.35742l-3.85108 9.99023h-.9292l3.83497-9.99023zm7.42285 1.27832q.48877.5371.74658 1.31592.26319.7788.26319 1.76709 0 .98828-.26856 1.77246-.26318.7788-.74121 1.2998-.49414.54248-1.1709.8164-.67139.27393-1.53613.27393-.84326 0-1.53613-.2793-.6875-.27929-1.1709-.81103-.4834-.53174-.74658-1.30517-.25782-.77344-.25782-1.7671 0-.97753.25782-1.75097.25781-.7788.75195-1.33203.47265-.52637 1.1709-.80567.70361-.2793 1.53076-.2793.85937 0 1.5415.28468.6875.2793 1.16553.80029zm-.0967 3.083q0-1.55761-.69824-2.40087-.69824-.84863-1.90674-.84863-1.21924 0-1.91748.84863-.69287.84326-.69287 2.40088 0 1.57373.70898 2.41162.70899.83252 1.90137.83252t1.896-.83252q.70898-.8379.70898-2.41162zm8.60451 1.71338q0 .46729-.22021.92383-.21485.45655-.60694.77344-.42968.34375-1.00439.53711-.56934.19336-1.375.19336-.86475 0-1.55762-.16113-.6875-.16114-1.40185-.47803v-1.33203h.0752q.60694.50488 1.40186.7788.79492.27393 1.49316.27393.98828 0 1.53613-.3706.55323-.3706.55323-.98828 0-.53174-.26319-.78418-.25781-.25245-.78955-.3921-.40283-.10742-.87549-.17724-.46728-.06982-.99365-.17725-1.06347-.22558-1.5791-.76806-.51025-.54785-.51025-1.42334 0-1.0044.84863-1.64356.84863-.64453 2.15381-.64453.84326 0 1.54687.16114.70362.16113 1.2461.39746v1.25683h-.0752q-.45654-.38672-1.20312-.63916-.74121-.25781-1.52002-.25781-.85401 0-1.375.3545-.51563.35448-.51563.91308 0 .4995.25781.78418.25782.28466.90772.43505.34375.0752.97754.18262t1.07422.22022q.8916.23633 1.34277.71435.45117.47803.45117 1.3374z" text-anchor="middle"/></svg>