<svg xmlns="http://www.w3.org/2000/svg" role="img" xmlns:xlink="http://www.w3.org/1999/xlink" viewBox="-4.53 -4.53 248.82 61.32"><title>CA Data Content Discovery logo</title><path d="M237.32 9.09c-1.06 0-1.93-.86-1.93-1.92s.87-1.93 1.93-1.93 1.93.87 1.93 1.93-.87 1.92-1.93 1.92m0-4.32c-1.32 0-2.4 1.08-2.4 2.4 0 1.32 1.08 2.4 2.4 2.4 1.32 0 2.4-1.08 2.4-2.4 0-1.32-1.08-2.4-2.4-2.4"/><path d="M237.48 7.07l-.51.01-.01-.62h.51c.19-.01.34.11.34.3.01.19-.14.31-.33.31m.83-.32c-.01-.42-.3-.72-.77-.72l-1.07.02.03 2.26h.49l-.01-.81h.35l.46.8.55-.01-.52-.86c.24-.06.49-.28.49-.68M51.8341 23.1805h-5.999V9.3465h5.835c1.574 0 2.557 1.016 2.557 2.393 0 1.377-.983 2.36-2.557 2.36H45v4h6.8341c1.836 0 2.819 1.18 2.819 2.556 0 1.574-1.049 2.525-2.819 2.525m3.376-7.245c2.066-.426 3.771-2.262 3.771-5.015 0-2.918-2.131-5.573-6.295-5.573h-11.506v21.865h11.867c4.163 0 6.359-2.623 6.359-5.901 0-2.754-1.868-5.015-4.196-5.376m17.8225-.5902H68v4.098h3.5576l4.294 7.769h5.343l-4.917-8.327c2.361-.557 4.786-2.622 4.786-6.49m0 0c0-4.065-2.786-7.048-7.343-7.048h-10.228v21.865h4.655V9.4453h4.885c1.869 0 3.278 1.114 3.278 2.95s-1.409 2.95-3.278 2.95m43.4206 4.0652l3.409-9.408 3.41 9.408zm.492-14.063l-8.458 21.865h5.31l1.377-3.704h9.376l1.344 3.704h5.311l-8.425-21.865zm26.9039 17.7671h-3.967v-13.67h3.967c4.491 0 6.851 2.983 6.851 6.852 0 3.704-2.524 6.818-6.851 6.818m0-17.767h-8.622v21.865h8.622c6.851 0 11.604-4.327 11.604-10.916s-4.753-10.949-11.604-10.949m82.1269-.0045l-5.734 9.27-5.734-9.27h-5.146v21.869h4.656v-14.293l5.012 7.622c.574.871 1.851.871 2.424 0l5.013-7.622v14.293h4.656V5.3431z"/><path id="a" d="M95.8253 23.3441c-3.871 0-7.008-3.138-7.008-7.008 0-3.871 3.137-7.009 7.008-7.009 3.87 0 7.008 3.138 7.008 7.009 0 3.87-3.138 7.008-7.008 7.008m0-18.536c-6.367 0-11.528 5.161-11.528 11.528 0 6.366 5.161 11.527 11.528 11.527 6.366 0 11.528-5.161 11.528-11.527 0-6.367-5.162-11.528-11.528-11.528"/><path d="M176.4035 19.7269c-1.195 2.156-3.492 3.617-6.132 3.617-3.87 0-7.008-3.138-7.008-7.008 0-3.871 3.138-7.008 7.008-7.008 2.618 0 4.897 1.438 6.1 3.565l3.27-3.269c-2.092-2.915-5.508-4.816-9.37-4.816-6.367 0-11.527 5.161-11.527 11.528 0 6.366 5.16 11.528 11.527 11.528 3.883 0 7.316-1.922 9.404-4.865z"/><use transform="translate(98.718)" xlink:href="#a"/><ellipse cx="16.52" cy="16.497" fill="#cc092f" rx="16.236" ry="16.235"/><path fill="#fff" d="M30.8253 20.8832c-1.857-.74-3.557-.492-5.261.541 0 0-.621.379-.807.496-.794.498-1.543.97-2.263.97-.687 0-1.363-.184-1.649-1.513-.446-2.073-1.534-7.167-2.009-9.69-.279-1.483-.432-2.282-.591-2.825-.28-.954-.792-1.473-1.519-1.556 0 0-.114-.016-.207-.016-.092 0-.218.018-.218.018-.72.086-1.229.605-1.507 1.554-.159.543-.312 1.342-.591 2.825-.475 2.523-1.563 7.617-2.009 9.69-.286 1.329-.962 1.513-1.649 1.513-.72 0-1.469-.472-2.263-.97-.186-.117-.808-.496-.808-.496-1.703-1.033-3.404-1.281-5.26-.541-.401.16-.79596.33918-1.17196.52018.257.806.57693 1.59925.94993 2.34425.411-.202.84203-.40243 1.28203-.53243.634-.187 1.284-.197 1.914.014.612.205 1.157.568 1.7.909 1.023.643 2.182 1.372 3.657 1.372 2.186 0 3.72-1.305 4.21-3.581.38-1.764 1.222-5.702 1.763-8.418 0 0 1.386 6.654 1.765 8.418.49 2.276 2.025 3.581 4.211 3.581 1.475 0 2.634-.729 3.657-1.372.543-.341 1.088-.704 1.7-.909.629-.211 1.28-.201 1.914-.014.44.13.87039.33065 1.28139.53265.374-.745.69309-1.53862.95009-2.34462-.376-.181-.77048-.36003-1.17148-.52003"/><g text-anchor="middle"><path d="M56.63754 49.41992q-.2954.1289-.5371.2417-.23633.1128-.62305.23633-.32764.10205-.71436.17187-.38135.0752-.84326.0752-.87012 0-1.58447-.2417-.70899-.24707-1.23535-.76807-.51563-.51025-.80567-1.29443-.29004-.78955-.29004-1.83154 0-.98828.2793-1.7671.2793-.7788.80566-1.31591.51026-.521 1.22998-.79492.7251-.27393 1.60596-.27393.64453 0 1.2837.15576.64452.15576 1.4287.54785v1.26221h-.08057q-.66064-.55322-1.31054-.80566t-1.39112-.25244q-.60693 0-1.0957.19873-.4834.19336-.86475.60693-.3706.40283-.58007 1.0205-.2041.61231-.2041 1.41798 0 .84326.22558 1.4502.23096.60693.59082.98827.37598.39746.87549.59082.50488.188 1.06348.188.76806 0 1.43945-.2632.67139-.26318 1.25683-.78954h.0752z"/><path d="M64.44711 50h-1.1333l-.78418-2.229h-3.45898L58.28647 50h-1.0796l2.91114-7.99756h1.41797zM62.202 46.85791l-1.40186-3.92627-1.40723 3.92627z"/><path d="M76.285 46.00928q0 1.09033-.47802 1.97656-.47266.88623-1.26221 1.375-.54785.33838-1.22461.48877Q72.64877 50 71.5477 50h-2.01953v-7.99756h1.99804q1.1709 0 1.8584.17188.69287.1665 1.1709.46191.8164.51025 1.27295 1.35889.45654.84863.45654 2.01416zm-1.11181-.01611q0-.93994-.32764-1.58448-.32764-.64453-.97754-1.01514-.47266-.26855-1.0044-.3706-.53173-.10742-1.27294-.10742h-.99903v6.17138h.99903q.76806 0 1.3374-.11279.5747-.1128 1.05273-.41894.5962-.38135.8916-1.0044.30079-.62305.30079-1.55762z"/><path d="M82.5853 50h-1.0044v-.63916q-.13428.09131-.36523.25781-.22559.16114-.44043.25782-.25244.12353-.58008.2041-.32764.08594-.76807.08594-.81103 0-1.375-.53711-.56396-.53711-.56396-1.36963 0-.68213.29004-1.10108.2954-.42431.83789-.66601.54785-.2417 1.31592-.32764.76806-.08594 1.64892-.1289v-.15577q0-.34375-.12353-.56933-.11817-.22559-.34375-.3545-.21485-.12353-.51563-.1665-.30078-.04297-.62842-.04297-.39746 0-.88623.10742-.48877.10205-1.00976.30078h-.05371V44.1294q.2954-.08057.854-.17725.5586-.09668 1.10108-.09668.63378 0 1.10107.10742.47266.10205.8164.3545.33838.24706.51563.63915.17725.3921.17725.97217zm-1.0044-1.47705v-1.67041q-.46191.02686-1.09033.08057-.62305.0537-.98828.15576-.43506.12354-.70361.38672-.26856.25781-.26856.71436 0 .51562.31152.7788.31153.25782.95069.25782.53174 0 .97217-.2041.44043-.20948.8164-.49952z"/><path d="M87.64487 49.94629q-.28467.0752-.62305.12353-.333.04834-.5962.04834-.91845 0-1.39648-.49414-.47802-.49414-.47802-1.58447v-3.19043h-.68213v-.84863h.68213v-1.72412h1.00976v1.72412h2.08399v.84863h-2.08399v2.73389q0 .47265.02148.7412.02148.2632.1504.49415.11816.21484.32226.3169.20947.09667.63379.09667.24707 0 .51562-.06983.26856-.0752.38672-.12353h.05371z"/><path d="M93.52621 50h-1.00439v-.63916q-.13428.09131-.36523.25781-.22559.16113-.44043.25782-.25245.12353-.58008.2041-.32764.08594-.76807.08594-.81103 0-1.375-.53711-.56396-.53711-.56396-1.36963 0-.68213.29004-1.10108.2954-.42431.83789-.66601.54785-.2417 1.31591-.32764.76807-.08594 1.64893-.1289v-.15577q0-.34375-.12354-.56933-.11816-.22559-.34375-.3545-.21484-.12353-.51562-.1665-.30078-.04297-.62842-.04297-.39746 0-.88623.10742-.48877.10205-1.00976.30078h-.05371V44.1294q.2954-.08057.854-.17725.5586-.09668 1.10107-.09668.6338 0 1.10108.10742.47265.10205.8164.3545.33838.24706.51563.63915.17725.3921.17725.97217zm-1.00439-1.47705v-1.67041q-.46191.02686-1.09033.08057-.62305.0537-.98828.15576-.43506.12354-.70362.38672-.26855.25781-.26855.71436 0 .51562.31152.7788.31153.25782.95069.25782.53173 0 .97216-.2041.44043-.20948.81641-.49952z"/><path d="M105.59506 49.41992q-.29541.1289-.53711.2417-.23633.1128-.62304.23633-.32764.10205-.71436.17187-.38135.0752-.84326.0752-.87012 0-1.58447-.2417-.70899-.24707-1.23536-.76806-.51562-.51026-.80566-1.29444-.29004-.78955-.29004-1.83154 0-.98828.2793-1.76709.2793-.7788.80566-1.31592.51026-.521 1.22998-.79492.7251-.27392 1.60596-.27392.64453 0 1.28369.15576.64453.15576 1.42871.54785v1.2622h-.0806q-.66065-.55322-1.31055-.80566-.6499-.25244-1.39111-.25244-.60694 0-1.09571.19873-.4834.19336-.86474.60693-.37061.40284-.58008 1.02051-.2041.6123-.2041 1.41797 0 .84326.22558 1.4502.23096.60693.59082.98828.37598.39746.87549.59082.50488.18799 1.06348.18799.76806 0 1.43945-.26319.67139-.26318 1.25684-.78955h.0752z"/><path d="M112.13168 47.00293q0 1.4663-.75195 2.31494-.75195.84863-2.01416.84863-1.27295 0-2.0249-.84863-.74658-.84863-.74658-2.31494 0-1.4663.74658-2.31494.75195-.854 2.0249-.854 1.26221 0 2.01416.854.75195.84863.75195 2.31494zm-1.04199 0q0-1.16553-.45654-1.7295-.45654-.56933-1.26758-.56933-.82178 0-1.27832.56934-.45117.56396-.45117 1.72949 0 1.12793.45654 1.71338.45654.58008 1.27295.58008.80566 0 1.26221-.57471.46191-.58008.46191-1.71875z"/><path d="M118.71127 50h-1.00976v-3.41602q0-.41357-.0483-.77343-.0483-.36524-.17725-.56934-.13428-.22559-.38672-.333-.25244-.1128-.65527-.1128-.41357 0-.86475.2041-.45117.2041-.86474.521V50h-1.00977v-5.99951h1.00977v.66601q.47265-.39209.97754-.6123.50488-.22022 1.03662-.22022.97217 0 1.48242.58545.51025.58545.51025 1.68653z"/><path d="M123.77084 49.94629q-.28466.0752-.62304.12353-.33301.04834-.59619.04834-.91846 0-1.39649-.49414-.47803-.49414-.47803-1.58447v-3.19043h-.68213v-.84863h.68213v-1.72412h1.00977v1.72412h2.08398v.84863h-2.08398v2.73389q0 .47265.0215.7412.0215.2632.15039.49415.11817.21484.32227.3169.20947.09667.63379.09667.24707 0 .51562-.06983.26856-.0752.38672-.12353h.0537z"/><path d="M130.01205 47.10498h-4.42041q0 .55322.16651.9668.1665.4082.45654.67138.2793.25782.66065.38672.38671.1289.84863.1289.6123 0 1.22998-.24169.62305-.24707.88623-.4834h.0537v1.10108q-.51025.21484-1.04199.35986t-1.11719.14502q-1.49316 0-2.33105-.80567-.83789-.81103-.83789-2.29882 0-1.47168.80029-2.33643.80566-.86475 2.11621-.86475 1.21387 0 1.86914.70899.66064.70898.66064 2.01416zm-.98291-.77344q-.005-.79492-.40283-1.22998-.39209-.43506-1.19775-.43506-.81104 0-1.29444.47803-.47802.47803-.54248 1.18701z"/><path d="M136.55942 50h-1.00977v-3.41602q0-.41357-.0483-.77343-.0483-.36524-.17724-.56934-.13428-.22559-.38672-.333-.25244-.1128-.65528-.1128-.41357 0-.86474.2041-.45117.2041-.86475.521V50h-1.00976v-5.99951h1.00976v.66601q.47266-.39209.97754-.6123.50488-.22022 1.03662-.22022.97217 0 1.48242.58545.51026.58545.51026 1.68653z"/><path d="M141.61899 49.94629q-.28467.0752-.62305.12353-.33301.04834-.59619.04834-.91846 0-1.39648-.49414-.47803-.49414-.47803-1.58447v-3.19043h-.68213v-.84863h.68213v-1.72412h1.00976v1.72412h2.08399v.84863H139.535v2.73389q0 .47265.0215.7412.0215.2632.15039.49415.11816.21484.32226.3169.20948.09667.63379.09667.24707 0 .51563-.06983.26855-.0752.38672-.12353h.0537z"/><path d="M153.54282 46.00928q0 1.09033-.47803 1.97656-.47266.88623-1.26221 1.375-.54785.33838-1.22461.48877Q149.90659 50 148.80551 50h-2.01953v-7.99756h1.99805q1.1709 0 1.8584.17188.69287.1665 1.17089.46191.81641.51025 1.27295 1.35889.45655.84863.45655 2.01416zm-1.11182-.01611q0-.93994-.32764-1.58448-.32763-.64453-.97754-1.01513-.47265-.26856-1.00439-.3706-.53174-.10743-1.27295-.10743h-.99902v6.17139h.99902q.76807 0 1.3374-.1128.57471-.11279 1.05274-.41894.59619-.38135.8916-1.0044.30078-.62304.30078-1.55761z"/><path d="M156.26596 42.9961h-1.13867v-1.04737h1.13867zM156.20151 50h-1.00977v-5.99951h1.00977z"/><path d="M162.48569 48.2705q0 .82179-.68213 1.34815-.67676.52637-1.85303.52637-.66601 0-1.22461-.15576-.55322-.16114-.9292-.34912v-1.1333h.0537q.47803.35986 1.06348.5747.58545.20948 1.12256.20948.66601 0 1.04199-.21485.37598-.21484.37598-.67676 0-.35449-.2041-.5371-.20411-.18262-.78418-.31153-.21485-.04834-.56397-.1128-.34375-.06444-.62842-.13964-.78955-.20947-1.12256-.6123-.32763-.4082-.32763-.99903 0-.3706.15039-.69824.15576-.32764.46728-.58545.30078-.25244.7627-.39746.46728-.1504 1.04199-.1504.53711 0 1.08496.13429.55322.1289.91846.3169v1.07958h-.0537q-.38672-.28467-.93994-.47803-.55323-.19873-1.08496-.19873-.55323 0-.93457.21485-.38135.20947-.38135.62841 0 .37061.23095.5586.22559.18799.73047.30615.2793.06445.62305.1289.34912.06446.58008.11817.70361.16113 1.08496.55322.38135.39746.38135 1.05274z"/><path d="M168.36703 49.62402q-.50488.2417-.96142.37598-.45117.13428-.96143.13428-.6499 0-1.19238-.188-.54248-.19335-.9292-.58007-.39209-.38672-.60693-.97754-.21485-.59082-.21485-1.38037 0-1.47168.80567-2.30957.81103-.83789 2.13769-.83789.51563 0 1.00977.14502.49951.14502.91308.3545v1.12255h-.0537q-.46191-.35986-.95605-.55322-.48877-.19336-.95606-.19336-.85937 0-1.35888.58008-.49414.5747-.49414 1.6919 0 1.08495.4834 1.6704.48877.58008 1.36962.58008.30616 0 .62305-.08057.3169-.08057.56934-.20947.22021-.1128.41357-.23633.19336-.1289.30615-.22022h.0537z"/><path d="M174.77475 47.00293q0 1.4663-.75195 2.31494-.75196.84863-2.01416.84863-1.27295 0-2.02491-.84863-.74658-.84863-.74658-2.31494 0-1.4663.74658-2.31494.75196-.854 2.02491-.854 1.2622 0 2.01416.854.75195.84863.75195 2.31494zm-1.04199 0q0-1.16553-.45655-1.7295-.45654-.56933-1.26757-.56933-.82178 0-1.27832.56934-.45118.56396-.45118 1.72949 0 1.12793.45655 1.71338.45654.58008 1.27295.58008.80566 0 1.2622-.57471.46192-.58008.46192-1.71875z"/><path d="M181.44565 44.00049L179.01791 50h-1.01513l-2.41162-5.99951h1.0957l1.8584 4.7749 1.84228-4.7749z"/><path d="M187.69223 47.10498h-4.42041q0 .55322.1665.9668.16651.4082.45655.67138.27929.25782.66064.38672.38672.1289.84863.1289.61231 0 1.22998-.24169.62305-.24707.88624-.4834h.0537v1.10108q-.51026.21484-1.042.35986-.53173.14502-1.11718.14502-1.49317 0-2.33106-.80567-.83789-.81103-.83789-2.29882 0-1.47168.80029-2.33643.80567-.86475 2.11622-.86475 1.21386 0 1.86914.70899.66064.70898.66064 2.01416zm-.98291-.77344q-.005-.79492-.40283-1.22998-.39209-.43506-1.19776-.43506-.81103 0-1.29443.47803-.47803.47803-.54248 1.18701z"/><path d="M192.96664 45.10156h-.0537q-.22558-.0537-.44043-.0752-.20947-.02685-.49951-.02685-.46728 0-.90234.20947-.43506.2041-.83789.53174V50H189.223v-5.99951h1.00977v.88623q.60156-.4834 1.0581-.68213.46192-.2041.93994-.2041.26319 0 .38135.0161.11817.01075.35449.04835z"/><path d="M199.1058 44.00049l-3.50195 8.2124h-1.07959l1.11719-2.50293-2.39014-5.70947h1.09571l1.84228 4.44726 1.8584-4.44726z"/></g></svg>