<svg xmlns="http://www.w3.org/2000/svg" role="img" viewBox="36.77 -4.23 363.22 245.97"><title>CA Endevor® SCM Plug-in for Zowe CLI logo</title><style>svg {enable-background:new 0 0 400 245}</style><style id="style2" type="text/css">.st2{fill:#cc092f}</style><g id="g38" transform="matrix(1.33333 0 0 -1.33333 0 489.6)"><path id="path4" d="M212.9 270.7l1.9 1.6c-1.1 1.3-2.7 1.9-4.4 1.9-2.2 0-4.1-1.3-4.1-3.7 0-4.4 6.3-3.6 6.3-5.8 0-.9-.7-1.4-1.8-1.4-1.3 0-2.2.8-2.9 1.8l-2-1.5c1.1-1.6 2.7-2.6 4.7-2.6 2.6 0 4.6 1.2 4.6 3.8 0 4.6-6.3 3.7-6.3 5.8 0 .8.5 1.2 1.7 1.2.9.3 1.7-.4 2.3-1.1m-1.1 24.7c0 2.3-1.5 3.9-3.7 3.9s-3.7-1.6-3.7-3.9 1.5-3.8 3.7-3.8c2.1 0 3.7 1.5 3.7 3.8m-.5 0c0-2.2-1.4-3.4-3.2-3.4-1.8 0-3.2 1.2-3.2 3.4s1.4 3.4 3.2 3.4c1.7 0 3.2-1.2 3.2-3.4m-1.5-1.9l-1.2 1.7c.5.2.9.6.9 1.2 0 .8-.6 1.2-1.5 1.2h-1.3v-4.2h.7v1.7h.4l1.3-1.8zm-1.8 2.3h-.5v1.3h.6c.5 0 .8-.2.8-.6-.1-.5-.4-.7-.9-.7m-3.7-27.3c0 3-1.8 5.8-5.1 5.8-3.4 0-5.4-2.5-5.4-6.6 0-4 2-6.6 5.3-6.6 2.4 0 4.1.8 5.3 2.6l-2.2 1.4c-.8-.9-1.4-1.5-2.8-1.5s-2.6 1-2.6 3.6h7.6zm-2.7.8h-4.8c0 1.7 1 2.8 2.4 2.8s2.3-1 2.4-2.8m-21.3 22.4h20.2c-1.1 3.5-1.4 7.1-1.4 10.8v37.4c0 9.1-1.7 14.2-6.6 18.6-4.6 4.2-12.2 6.6-22.4 6.6-8.8 0-16.4-1.9-22.2-5.5 4.5-3.8 7.6-8.8 9.1-14.8 1.9 3.1 5.8 4.4 10.7 4.4 8.1 0 10.5-5.7 10.6-10.5l.1-2.3c-22.5-1.1-43.8-5.3-43.3-25.9.3-14.4 13.4-20.3 22.3-20.3 10.4 0 16.3 2.8 22 9.9 0-2.9.4-6.1.9-8.4m-2 31.6c0-6-.1-9.3-2.8-13.4-2.4-3.7-6.2-6-10.5-6-5.8 0-10.6 2.6-10.6 9 0 9.3 13.6 12.6 24 13.2v-2.8zm-54.2 41.8c-22.7 0-36-16-36-38.1 0-21.2 12.9-36.7 34.7-36.7 5.6 0 11.8 1.2 17.2 4-4.1 3.5-7.1 8.6-7.4 15.7-1.9-1.8-4.6-2.8-7.8-2.8-10.5 0-13.4 7.9-13.4 21.4 0 13.3 3.2 20.5 13.4 20.5 6.4 0 10.9-3.4 10.9-9.9h19.8c-1.4 17.1-14.9 25.9-31.4 25.9m-37.5-86.9V274h-1.7v-2.4h1.7v-7.5c0-1.8.9-2.9 3.1-2.9.8 0 1.5.1 2.4.2v2.5c-.4-.1-.9-.2-1.4-.2-.7 0-1.1.2-1.1.9v7.1h2.5v2.4h-2.5v4.2h-3zm6.9-10.4c0-4 2-6.6 5.3-6.6 2.4 0 4.1.8 5.2 2.6l-2.2 1.4c-.7-.9-1.4-1.5-2.8-1.5s-2.6 1-2.6 3.6h7.6v1.2c0 3-1.8 5.8-5.1 5.8s-5.4-2.5-5.4-6.5m3 1.5c.1 1.7 1 2.8 2.4 2.8s2.4-1 2.4-2.8zm9.4-1.5c0-4 2-6.6 5.4-6.6 2.3 0 3.8.9 5 3.2l-2.3 1.3c-.6-1.1-1.3-2-2.6-2-1.8 0-2.6 1.3-2.6 4.1s.8 4.1 2.5 4.1c1.5 0 2-.8 2.5-1.9l2.5 1c-.7 2.1-2.6 3.4-4.9 3.4-3.5-.1-5.5-2.6-5.5-6.6m15.6 11.2h-3v-17.5h3v9.1c.5.6 1.5 1.3 2.8 1.3 1 0 1.5-.5 1.5-2.2v-8.2h3v8.6c0 2.6-1.2 4.2-3.7 4.2-1.5 0-2.7-.8-3.6-1.6zm13.1-4.9h-2.7v-12.6h3v9.1c.5.6 1.5 1.3 2.8 1.3 1 0 1.5-.5 1.5-2.2v-8.2h3v8.6c0 2.6-1.2 4.2-3.7 4.2-1.5 0-2.7-.8-3.9-1.6zm9.7-6.3c0-4 2-6.6 5.4-6.6 3.4 0 5.4 2.6 5.4 6.6 0 4-2 6.6-5.4 6.6-3.3-.1-5.4-2.6-5.4-6.6m3 0c0 2.8.8 4.1 2.5 4.1s2.5-1.3 2.5-4.1-.8-4.1-2.5-4.1c-1.7-.1-2.5 1.2-2.5 4.1m13.3 11.2h-3v-17.5h3v4.4zm2.4-11.2c0-4 2-6.6 5.4-6.6 3.4 0 5.4 2.6 5.4 6.6 0 4-2 6.6-5.4 6.6-3.3-.1-5.4-2.6-5.4-6.6m3 0c0 2.8.8 4.1 2.5 4.1s2.5-1.3 2.5-4.1-.8-4.1-2.5-4.1c-1.7-.1-2.5 1.2-2.5 4.1m8.8-8c0-2 2.2-3 5.6-3 4 0 5.8 1.9 5.8 3.7 0 5-8.2 2.3-8.2 4.3 0 .7 1 .8 2.3.8 3.1 0 4.7 1.7 4.7 4.1 0 1-.3 1.7-.7 2.2.5.3 1.2.3 1.9.3v2c-1.4.1-2.4-.3-2.9-1.1-.8.7-2 1.1-3.1 1.1-3.3 0-4.9-2.2-4.9-4.4 0-1.5.8-2.5 1.8-3.3-.6-.2-1.9-1.1-1.9-2.3 0-1.4 1.3-1.7 1.8-2v-.1c-1 .1-2.2-.7-2.2-2.3M178 270c0 1.2.9 2.1 2.2 2.1 1.1 0 2-.9 2-2.1 0-1.2-.9-2.1-2-2.1-1.3 0-2.2.9-2.2 2.1m-.5-9.8c0 .5.5 1.5 2.1 1.5 2.9 0 3.8-.9 3.8-1.5 0-.4-.7-1.4-2.6-1.4-2.4 0-3.3.5-3.3 1.4m13.9 19h-3v-2.8h3v1.6zm0-5.1h-3v-12.6h3v3.7z"/><path id="path6" fill="#cc092f" d="M71.2 241.6l-2.5 5.8-2.5-5.8zm-3.1 7.3h1.2l5-11.5H73l-1.3 3h-6l-1.3-3h-1.3z" class="st2"/><path id="path8" fill="#cc092f" d="M85.6 242.3h-3.1v-3.1h3.2c1.3 0 2.1.5 2.1 1.6.1.9-.7 1.5-2.2 1.5m1.7 3.3c0 .9-.7 1.5-1.9 1.5h-2.8v-3h2.6c1.2-.1 2.1.4 2.1 1.5zm-6.6 3.2h4.9c1.3 0 2.2-.4 2.9-1 .5-.5.7-1.1.7-1.9 0-1.4-.8-2.1-1.6-2.5 1.3-.5 2.2-1.2 2.2-2.8 0-2-1.6-3.1-4.1-3.1h-5.1z" class="st2"/><path id="path10" fill="#cc092f" d="M91.6 246h1.9v-2c.5 1.3 1.5 2.2 2.9 2.1V244h-.1c-1.7 0-2.8-1.1-2.8-3.4v-3.3h-1.9z" class="st2"/><path id="path12" fill="#cc092f" d="M104.1 241.6c0 1.5-1 2.8-2.5 2.8s-2.5-1.2-2.5-2.7c0-1.5 1-2.8 2.5-2.8s2.5 1.3 2.5 2.7m-6.9 0c0 2.5 1.9 4.5 4.4 4.5 2.5 0 4.4-2 4.4-4.5 0-2.4-1.9-4.5-4.4-4.5-2.6.1-4.4 2.1-4.4 4.5" class="st2"/><path id="path14" fill="#cc092f" d="M112.9 240.5v.6c-.5.2-1.1.3-1.9.3-1.2 0-1.9-.5-1.9-1.4 0-.8.7-1.3 1.6-1.3 1.2-.1 2.2.7 2.2 1.8m-5.7-.6c0 1.9 1.4 2.8 3.4 2.8.9 0 1.6-.1 2.2-.4v.2c0 1.2-.7 1.9-2.1 1.9-.9 0-1.6-.2-2.4-.5l-.5 1.5c.9.4 1.8.7 3.1.7 1.2 0 2.2-.3 2.7-1 .6-.6.9-1.5.9-2.7v-5.1h-1.8v1.1c-.6-.7-1.4-1.3-2.7-1.3-1.4.1-2.8 1-2.8 2.8" class="st2"/><path id="path16" fill="#cc092f" d="M123 241.7c0 1.7-1.1 2.8-2.4 2.8-1.3 0-2.4-1.1-2.4-2.8 0-1.7 1.1-2.8 2.4-2.8 1.3 0 2.4 1.1 2.4 2.8m-6.6 0c0 2.9 1.9 4.5 3.8 4.5 1.4 0 2.2-.7 2.8-1.5v4.6h1.9v-11.9H123v1.4c-.6-.9-1.5-1.6-2.8-1.6-1.9 0-3.8 1.6-3.8 4.5" class="st2"/><path id="path18" fill="#cc092f" d="M126.7 241.6c0 2.5 1.8 4.5 4.3 4.5 1.6 0 2.5-.6 3.3-1.5l-1.2-1.3c-.6.6-1.2 1.1-2.1 1.1-1.4 0-2.4-1.2-2.4-2.7 0-1.5 1-2.8 2.5-2.8.9 0 1.5.4 2.1 1.1l1.1-1.2c-.8-.9-1.8-1.6-3.4-1.6-2.4 0-4.2 2-4.2 4.4" class="st2"/><path id="path20" fill="#cc092f" d="M142.1 241.6c0 1.5-1 2.8-2.5 2.8s-2.5-1.2-2.5-2.7c0-1.5 1-2.8 2.5-2.8 1.6 0 2.5 1.3 2.5 2.7m-6.9 0c0 2.5 1.9 4.5 4.4 4.5 2.5 0 4.4-2 4.4-4.5 0-2.4-1.9-4.5-4.4-4.5-2.5.1-4.4 2.1-4.4 4.5" class="st2"/><path id="path22" fill="#cc092f" d="M145.8 246h1.9v-1.3c.5.8 1.3 1.5 2.5 1.5s2-.6 2.5-1.5c.7.9 1.5 1.5 2.8 1.5 1.8 0 2.9-1.2 2.9-3.3v-5.5h-1.9v4.9c0 1.4-.6 2.1-1.7 2.1-1 0-1.8-.8-1.8-2.1v-4.9h-1.9v4.9c0 1.3-.6 2.1-1.7 2.1-1 0-1.8-.8-1.8-2.1v-4.9h-1.9v8.6z" class="st2"/><path id="path24" fill="#cc092f" d="M164.9 243.1c0 3.3 2.3 5.9 5.5 5.9 2 0 3.2-.7 4.3-1.8l-.8-.9c-.9.9-2 1.6-3.4 1.6-2.4 0-4.2-2.1-4.2-4.7s1.8-4.7 4.2-4.7c1.5 0 2.5.6 3.5 1.6l.8-.8c-1.1-1.2-2.4-2-4.4-2-3.1-.1-5.5 2.5-5.5 5.8" class="st2"/><path id="path26" fill="#cc092f" d="M183.2 241.6c0 1.8-1.3 3.3-3 3.3-1.8 0-3-1.5-3-3.3 0-1.8 1.3-3.3 3-3.3 1.8 0 3 1.5 3 3.3m-7.2 0c0 2.4 1.8 4.4 4.2 4.4 2.4 0 4.2-2 4.2-4.4 0-2.4-1.8-4.4-4.2-4.4-2.4 0-4.2 2-4.2 4.4" class="st2"/><path id="path28" fill="#cc092f" d="M186.5 245.8h1.2v-1.4c.5.8 1.3 1.6 2.6 1.6s2.2-.7 2.6-1.7c.6.9 1.4 1.7 2.8 1.7 1.9 0 3-1.3 3-3.4v-5.2h-1.2v4.9c0 1.6-.8 2.5-2.1 2.5-1.2 0-2.2-.9-2.2-2.6v-4.9H192v5c0 1.6-.8 2.5-2.1 2.5s-2.3-1.1-2.3-2.7v-4.8h-1.2z" class="st2"/><path id="path30" fill="#cc092f" d="M208.1 241.6c0 2-1.3 3.3-2.9 3.3-1.5 0-2.9-1.3-2.9-3.2 0-2 1.4-3.3 2.9-3.3 1.6-.1 2.9 1.1 2.9 3.2m-7 4.2h1.2v-1.7c.7 1 1.6 1.9 3.1 1.9 1.9 0 3.9-1.6 3.9-4.4 0-2.8-1.9-4.4-3.9-4.4-1.5 0-2.5.8-3.1 1.8v-4.2h-1.2z" class="st2"/><path id="path32" fill="#cc092f" d="M216.7 240.5v.8c-.6.2-1.4.4-2.4.4-1.5 0-2.4-.7-2.4-1.7 0-1.1.9-1.7 2-1.7 1.6-.1 2.8.8 2.8 2.2m-5.9-.7c0 1.8 1.4 2.8 3.5 2.8 1 0 1.8-.1 2.5-.4v.3c0 1.5-.9 2.3-2.4 2.3-1 0-1.7-.3-2.5-.6l-.4 1c.9.4 1.8.7 2.9.7 1.1 0 2-.3 2.6-.9.5-.6.8-1.4.8-2.5v-5.2h-1.2v1.3c-.6-.8-1.5-1.5-2.9-1.5-1.4.1-2.9 1-2.9 2.7" class="st2"/><path id="path34" fill="#cc092f" d="M220.3 245.8h1.2v-1.5c.5.9 1.4 1.6 2.8 1.6 2 0 3.1-1.4 3.1-3.4v-5.2h-1.2v4.9c0 1.6-.8 2.5-2.2 2.5-1.4 0-2.4-1.1-2.4-2.6v-4.8h-1.2z" class="st2"/><path id="path36" fill="#cc092f" d="M235.6 245.8h1.3l-3.4-8.7c-.7-1.7-1.5-2.4-2.7-2.4-.7 0-1.2.1-1.7.4l.4 1c.4-.2.8-.3 1.3-.3.7 0 1.2.4 1.7 1.6l-3.7 8.4h1.3l2.9-7z" class="st2"/></g><g id="g42"><g id="text40" transform="translate(41.694 234.258)"><path id="path51" d="M24.474-25.568v3.952q-1.893-1.763-4.045-2.635-2.134-.872-4.546-.872-4.75 0-7.274 2.913-2.523 2.895-2.523 8.387 0 5.473 2.523 8.386 2.524 2.895 7.274 2.895 2.412 0 4.546-.872 2.152-.872 4.045-2.635v3.915Q22.507-.798 20.299-.13q-2.19.668-4.639.668-6.29 0-9.908-3.84-3.618-3.86-3.618-10.521 0-6.68 3.618-10.52 3.618-3.86 9.908-3.86 2.486 0 4.676.668 2.208.65 4.138 1.967z"/><path id="path53" d="M39.559-24.01l-5.084 13.786H44.66zm-2.116-3.692h4.25L52.25 0h-3.896L45.83-7.106H33.343L30.819 0h-3.952z"/><path id="path55" d="M68.374-27.702H85.89v3.154H72.122v8.201h13.192v3.155H72.122v10.038h14.102V0h-17.85z"/><path id="path57" d="M109.547-12.543V0h-3.414v-12.432q0-2.95-1.15-4.416-1.151-1.465-3.452-1.465-2.764 0-4.36 1.762-1.596 1.763-1.596 4.806V0h-3.432v-20.781h3.432v3.228q1.225-1.874 2.876-2.801 1.67-.928 3.841-.928 3.581 0 5.418 2.226 1.837 2.208 1.837 6.513z"/><path id="path59" d="M130.068-17.627v-11.244h3.414V0h-3.414v-3.117q-1.076 1.855-2.727 2.764-1.633.891-3.934.891-3.766 0-6.141-3.006-2.357-3.006-2.357-7.904 0-4.899 2.357-7.904 2.375-3.006 6.141-3.006 2.301 0 3.934.909 1.651.89 2.727 2.746zm-11.633 7.255q0 3.767 1.54 5.919 1.558 2.134 4.267 2.134 2.71 0 4.268-2.134 1.558-2.152 1.558-5.92 0-3.766-1.558-5.9-1.559-2.152-4.268-2.152-2.709 0-4.267 2.153-1.54 2.133-1.54 5.9z"/><path id="path61" d="M158.29-11.244v1.67h-15.697q.222 3.525 2.115 5.38 1.911 1.838 5.307 1.838 1.966 0 3.803-.483 1.856-.482 3.674-1.447v3.228q-1.837.78-3.766 1.188-1.93.408-3.915.408-4.973 0-7.886-2.894-2.895-2.895-2.895-7.83 0-5.103 2.746-8.09 2.765-3.006 7.44-3.006 4.194 0 6.625 2.709 2.449 2.69 2.449 7.329zm-3.414-1.002q-.037-2.802-1.577-4.472-1.522-1.67-4.045-1.67-2.858 0-4.583 1.615-1.707 1.614-1.967 4.545z"/><path id="path63" d="M161.444-20.781h3.619l6.494 17.441 6.494-17.441h3.618L173.876 0h-4.639z"/><path id="path65" d="M194.435-18.388q-2.747 0-4.342 2.153-1.596 2.133-1.596 5.863 0 3.73 1.577 5.882 1.596 2.134 4.36 2.134 2.728 0 4.324-2.153 1.596-2.152 1.596-5.863 0-3.692-1.596-5.845-1.596-2.17-4.323-2.17zm0-2.894q4.453 0 6.995 2.894 2.542 2.895 2.542 8.016 0 5.102-2.542 8.016-2.542 2.894-6.995 2.894-4.472 0-7.014-2.894-2.524-2.914-2.524-8.016 0-5.121 2.524-8.016 2.542-2.894 7.014-2.894z"/><path id="path67" d="M221.654-17.59q-.575-.334-1.261-.482-.668-.167-1.485-.167-2.894 0-4.453 1.892-1.54 1.874-1.54 5.4V0h-3.433v-20.781h3.433v3.228q1.076-1.892 2.802-2.801 1.725-.928 4.193-.928.353 0 .78.055.426.038.946.13z"/><path id="path69" d="M240.691-25.643q-2.43 0-4.527.872-2.097.873-3.84 2.617-1.745 1.744-2.636 3.878-.89 2.115-.89 4.527 0 2.394.89 4.509.891 2.096 2.635 3.84 1.744 1.745 3.841 2.635 2.097.872 4.527.872 2.45 0 4.546-.872 2.116-.89 3.86-2.634 1.725-1.726 2.579-3.823.872-2.096.872-4.527 0-2.468-.872-4.564-.872-2.116-2.58-3.841-1.743-1.744-3.859-2.617-2.096-.872-4.546-.872zm0-1.91q2.82 0 5.251 1.02 2.45 1.02 4.472 3.043 2.023 2.022 3.024 4.453 1.002 2.43 1.002 5.288 0 2.82-1.002 5.251-1.001 2.412-3.024 4.435-2.022 2.022-4.472 3.042Q243.512 0 240.692 0t-5.27-1.02q-2.43-1.021-4.453-3.043-2.023-2.023-3.025-4.435-1.002-2.43-1.002-5.251 0-2.857 1.002-5.288 1.002-2.43 3.025-4.453 2.022-2.023 4.453-3.043 2.45-1.02 5.27-1.02zm-.5 7.68h-2.283v5.122h2.282q2.041 0 2.84-.575.816-.575.816-1.967 0-1.41-.817-1.985-.816-.594-2.839-.594zm.13-1.91q3.265 0 4.88 1.113 1.613 1.095 1.613 3.34 0 1.596-.983 2.635-.965 1.039-2.746 1.354.445.149 1.058.872.63.705 1.484 2.06l2.542 4.138h-3.191l-2.394-3.878q-1.095-1.782-1.781-2.246-.668-.482-1.67-.482h-1.225v6.606h-2.876v-15.512z"/><path id="path71" d="M292.125-26.793v3.655q-2.134-1.02-4.026-1.521-1.893-.501-3.656-.501-3.061 0-4.731 1.187-1.651 1.188-1.651 3.377 0 1.837 1.094 2.783 1.114.928 4.194 1.503l2.263.464q4.194.798 6.179 2.82 2.004 2.005 2.004 5.381 0 4.027-2.71 6.105-2.69 2.078-7.903 2.078-1.967 0-4.194-.445-2.208-.446-4.583-1.318v-3.859q2.283 1.28 4.472 1.93 2.19.65 4.305.65 3.21 0 4.954-1.263 1.744-1.261 1.744-3.6 0-2.04-1.262-3.19-1.243-1.151-4.1-1.726l-2.283-.446q-4.193-.834-6.067-2.616-1.874-1.781-1.874-4.954 0-3.674 2.58-5.789 2.597-2.115 7.143-2.115 1.948 0 3.97.352 2.023.353 4.138 1.058z"/><path id="path73" d="M320.384-25.568v3.952q-1.893-1.763-4.045-2.635-2.134-.872-4.546-.872-4.75 0-7.273 2.913-2.524 2.895-2.524 8.387 0 5.473 2.524 8.386 2.523 2.895 7.273 2.895 2.412 0 4.546-.872 2.152-.872 4.045-2.635v3.915q-1.967 1.336-4.175 2.004-2.19.668-4.639.668-6.29 0-9.908-3.84-3.618-3.86-3.618-10.521 0-6.68 3.618-10.52 3.618-3.86 9.908-3.86 2.487 0 4.676.668 2.208.65 4.138 1.967z"/><path id="path75" d="M326.21-27.702h5.585l7.07 18.851 7.106-18.851h5.585V0H347.9v-24.325l-7.143 19h-3.767l-7.143-19V0h-3.637z"/></g></g></svg>