<svg xmlns="http://www.w3.org/2000/svg" role="img" xmlns:xlink="http://www.w3.org/1999/xlink" viewBox="-4.53 -4.53 248.82 60.07"><title>CA Endevor® logo</title><path d="M237.32 9.09c-1.06 0-1.93-.86-1.93-1.92s.87-1.93 1.93-1.93 1.93.87 1.93 1.93-.87 1.92-1.93 1.92m0-4.32c-1.32 0-2.4 1.08-2.4 2.4 0 1.32 1.08 2.4 2.4 2.4 1.32 0 2.4-1.08 2.4-2.4 0-1.32-1.08-2.4-2.4-2.4"/><path d="M237.48 7.07l-.51.01-.01-.62h.51c.19-.01.34.11.34.3.01.19-.14.31-.33.31m.83-.32c-.01-.42-.3-.72-.77-.72l-1.07.02.03 2.26h.49l-.01-.81h.35l.46.8.55-.01-.52-.86c.24-.06.49-.28.49-.68M51.8341 23.1805h-5.999V9.3465h5.835c1.574 0 2.557 1.016 2.557 2.393 0 1.377-.983 2.36-2.557 2.36H45v4h6.8341c1.836 0 2.819 1.18 2.819 2.556 0 1.574-1.049 2.525-2.819 2.525m3.376-7.245c2.066-.426 3.771-2.262 3.771-5.015 0-2.918-2.131-5.573-6.295-5.573h-11.506v21.865h11.867c4.163 0 6.359-2.623 6.359-5.901 0-2.754-1.868-5.015-4.196-5.376m17.8225-.5902H68v4.098h3.5576l4.294 7.769h5.343l-4.917-8.327c2.361-.557 4.786-2.622 4.786-6.49m0 0c0-4.065-2.786-7.048-7.343-7.048h-10.228v21.865h4.655V9.4453h4.885c1.869 0 3.278 1.114 3.278 2.95s-1.409 2.95-3.278 2.95m43.4206 4.0652l3.409-9.408 3.41 9.408zm.492-14.063l-8.458 21.865h5.31l1.377-3.704h9.376l1.344 3.704h5.311l-8.425-21.865zm26.9039 17.7671h-3.967v-13.67h3.967c4.491 0 6.851 2.983 6.851 6.852 0 3.704-2.524 6.818-6.851 6.818m0-17.767h-8.622v21.865h8.622c6.851 0 11.604-4.327 11.604-10.916s-4.753-10.949-11.604-10.949m82.1269-.0045l-5.734 9.27-5.734-9.27h-5.146v21.869h4.656v-14.293l5.012 7.622c.574.871 1.851.871 2.424 0l5.013-7.622v14.293h4.656V5.3431z"/><path id="a" d="M95.8253 23.3441c-3.871 0-7.008-3.138-7.008-7.008 0-3.871 3.137-7.009 7.008-7.009 3.87 0 7.008 3.138 7.008 7.009 0 3.87-3.138 7.008-7.008 7.008m0-18.536c-6.367 0-11.528 5.161-11.528 11.528 0 6.366 5.161 11.527 11.528 11.527 6.366 0 11.528-5.161 11.528-11.527 0-6.367-5.162-11.528-11.528-11.528"/><path d="M176.4035 19.7269c-1.195 2.156-3.492 3.617-6.132 3.617-3.87 0-7.008-3.138-7.008-7.008 0-3.871 3.138-7.008 7.008-7.008 2.618 0 4.897 1.438 6.1 3.565l3.27-3.269c-2.092-2.915-5.508-4.816-9.37-4.816-6.367 0-11.527 5.161-11.527 11.528 0 6.366 5.16 11.528 11.527 11.528 3.883 0 7.316-1.922 9.404-4.865z"/><use transform="translate(98.718)" xlink:href="#a"/><ellipse cx="16.52" cy="16.497" fill="#cc092f" rx="16.236" ry="16.235"/><path fill="#fff" d="M30.8253 20.8832c-1.857-.74-3.557-.492-5.261.541 0 0-.621.379-.807.496-.794.498-1.543.97-2.263.97-.687 0-1.363-.184-1.649-1.513-.446-2.073-1.534-7.167-2.009-9.69-.279-1.483-.432-2.282-.591-2.825-.28-.954-.792-1.473-1.519-1.556 0 0-.114-.016-.207-.016-.092 0-.218.018-.218.018-.72.086-1.229.605-1.507 1.554-.159.543-.312 1.342-.591 2.825-.475 2.523-1.563 7.617-2.009 9.69-.286 1.329-.962 1.513-1.649 1.513-.72 0-1.469-.472-2.263-.97-.186-.117-.808-.496-.808-.496-1.703-1.033-3.404-1.281-5.26-.541-.401.16-.79596.33918-1.17196.52018.257.806.57693 1.59925.94993 2.34425.411-.202.84203-.40243 1.28203-.53243.634-.187 1.284-.197 1.914.014.612.205 1.157.568 1.7.909 1.023.643 2.182 1.372 3.657 1.372 2.186 0 3.72-1.305 4.21-3.581.38-1.764 1.222-5.702 1.763-8.418 0 0 1.386 6.654 1.765 8.418.49 2.276 2.025 3.581 4.211 3.581 1.475 0 2.634-.729 3.657-1.372.543-.341 1.088-.704 1.7-.909.629-.211 1.28-.201 1.914-.014.44.13.87039.33065 1.28139.53265.374-.745.69309-1.53862.95009-2.34462-.376-.181-.77048-.36003-1.17148-.52003"/><g text-anchor="middle"><path d="M96.83188 49.47266q-.26856.11718-.48828.21972-.21485.10254-.5664.21485-.29786.09277-.64942.15625-.34668.06836-.7666.06836-.79102 0-1.44043-.21973-.64454-.22461-1.12305-.69824-.46875-.46387-.73242-1.17676-.26368-.71777-.26368-1.66504 0-.89844.25391-1.60644.2539-.70801.73242-1.1963.46387-.47363 1.11817-.72265.65918-.24902 1.45996-.24902.58594 0 1.167.1416.58593.1416 1.29882.49804v1.14747h-.07324q-.60059-.50293-1.1914-.73243-.59083-.22949-1.26465-.22949-.55176 0-.9961.18067-.43945.17578-.78613.55175-.33692.36621-.52735.92774-.18554.55664-.18554 1.28906 0 .7666.20508 1.31836.20996.55176.5371.89844.3418.36133.7959.5371.45899.1709.9668.1709.69824 0 1.3086-.23925.61035-.23926 1.14257-.71778h.06836z"/><path d="M103.93149 50h-1.03028l-.71289-2.02637h-3.14453L98.3309 50h-.98144l2.64648-7.2705h1.28906zm-2.04102-2.85644l-1.27441-3.56934-1.2793 3.56934z"/><path d="M113.34067 50h-4.79004v-7.2705h4.79004v.85937h-3.82324v1.99219h3.82324v.85937h-3.82324v2.7002h3.82324z"/><path d="M119.36118 50h-.91797v-3.10547q0-.37598-.0439-.70312-.0439-.33203-.16113-.51758-.12207-.20508-.35156-.30274-.2295-.10254-.59571-.10254-.37597 0-.78613.18555-.41016.18555-.78613.47363V50h-.91797v-5.4541h.91797v.60547q.42968-.35645.88867-.55664.45898-.2002.94238-.2002.88379 0 1.34766.53223.46387.53222.46387 1.5332z"/><path d="M125.55258 50h-.91797v-.57129q-.3955.3418-.82519.53223-.42969.19043-.93262.19043-.97656 0-1.55273-.75196-.57129-.75195-.57129-2.08496 0-.69336.19531-1.23535.20019-.542.53711-.92285.33203-.3711.77148-.5664.44434-.19532.91797-.19532.42969 0 .76172.09277.33203.0879.69824.27832v-2.36328h.91797zm-.91797-1.34277v-3.12989q-.37109-.16601-.66406-.22949-.29297-.06348-.63965-.06348-.77148 0-1.20117.53711t-.42969 1.52344q0 .97168.33203 1.4795.33204.50292 1.06446.50292.39062 0 .79101-.1709.40039-.17578.74707-.44922z"/><path d="M131.92465 47.36816h-4.01855q0 .50293.15136.87891.15137.3711.41504.61035.25391.23438.60059.35156.35156.1172.77148.1172.55664 0 1.11817-.21974.5664-.2246.80566-.43945h.0488v1.00098q-.46387.19531-.94727.32715-.48339.13183-1.01562.13183-1.35742 0-2.11914-.73242-.76172-.7373-.76172-2.08984 0-1.3379.72754-2.12403.73242-.78613 1.92383-.78613 1.10351 0 1.69922.64453.60058.64453.60058 1.83106zm-.89355-.70312q-.005-.72266-.36621-1.11816-.35645-.39551-1.08887-.39551-.73731 0-1.17676.43457-.43457.43457-.49316 1.0791z"/><path d="M138.03305 44.5459L135.82602 50h-.92285l-2.19239-5.4541h.9961l1.68945 4.34082 1.67481-4.34082z"/><path d="M143.79477 47.2754q0 1.333-.68359 2.10448-.6836.77149-1.83106.77149-1.15723 0-1.84082-.77149-.67871-.77148-.67871-2.10449 0-1.333.67871-2.1045.68359-.77636 1.84082-.77636 1.14746 0 1.83106.77637.68359.77148.68359 2.1045zm-.94727 0q0-1.05958-.41504-1.57227-.41503-.51758-1.15234-.51758-.74707 0-1.16211.51758-.41015.51269-.41015 1.57226 0 1.0254.41503 1.55762.41504.52734 1.15723.52734.73242 0 1.14746-.52246.41992-.52734.41992-1.5625z"/><path d="M148.61899 45.54688h-.0488q-.20508-.04884-.40039-.06837-.19043-.0244-.4541-.0244-.42481 0-.82031.19042-.39551.18555-.76172.4834V50h-.91797v-5.4541h.91797v.80566q.54687-.43945.96191-.62011.41992-.18555.85449-.18555.23926 0 .34668.01465.10742.0098.32227.04395z"/><path d="M157.80356 46.80176q0 1.74804-1.24024 2.98828-1.23535 1.23535-2.98339 1.23535-1.74805 0-2.98829-1.23535-1.23535-1.24023-1.23535-2.98828t1.23535-2.9834q1.24024-1.24023 2.98829-1.24023 1.74804 0 2.98339 1.24023 1.24024 1.23535 1.24024 2.9834zm-.56641 0q0-1.51367-1.07422-2.59766-1.06933-1.08398-2.583-1.08398-1.51368 0-2.5879 1.08398-1.06933 1.08399-1.06933 2.59766 0 1.51367 1.06933 2.59765 1.07422 1.08399 2.5879 1.08399 1.51367 0 2.583-1.08399 1.07422-1.08398 1.07422-2.59765zm-.9375 2.14843h-1.08887l-1.61621-1.7334h-.79101v1.7334h-.80567v-4.46777h1.52344q.45899 0 .75684.03906.29785.03906.58594.19043.30761.16602.44921.40527.14649.23438.14649.59083 0 .47363-.27832.79101-.27344.3125-.75684.49805zm-1.71875-3.18847q0-.17578-.0684-.3125t-.22949-.22461q-.15137-.08301-.32227-.10742-.17089-.02441-.42968-.02441h-.72754v1.50879h.62012q.30273 0 .52246-.04395.21972-.04883.36132-.16114.15137-.12207.20997-.26855.0635-.14649.0635-.36621z"/></g></svg>