<svg xmlns="http://www.w3.org/2000/svg" role="img" xmlns:xlink="http://www.w3.org/1999/xlink" viewBox="-4.78 -4.78 248.82 71.32"><title>CA Endevor® Plug-in for Zowe CLI (CLI 2019) logo</title><path d="M237.0368 8.82828c-1.06 0-1.93-.86-1.93-1.92s.87-1.93 1.93-1.93 1.93.87 1.93 1.93-.87 1.92-1.93 1.92m0-4.32c-1.32 0-2.4 1.08-2.4 2.4 0 1.32 1.08 2.4 2.4 2.4 1.32 0 2.4-1.08 2.4-2.4 0-1.32-1.08-2.4-2.4-2.4"/><path d="M237.1968 6.80828l-.51.01-.01-.62h.51c.19-.01.34.11.34.3.01.19-.14.31-.33.31m.83-.32c-.01-.42-.3-.72-.77-.72l-1.07.02.03 2.26h.49l-.01-.81h.35l.46.8.55-.01-.52-.86c.24-.06.49-.28.49-.68M51.5509 22.91878h-5.999v-13.834h5.835c1.574 0 2.557 1.016 2.557 2.393 0 1.377-.983 2.36-2.557 2.36h-6.6701v4h6.8341c1.836 0 2.819 1.18 2.819 2.556 0 1.574-1.049 2.525-2.819 2.525m3.376-7.245c2.066-.426 3.771-2.262 3.771-5.015 0-2.918-2.131-5.573-6.295-5.573h-11.506v21.865h11.867c4.163 0 6.359-2.623 6.359-5.901 0-2.754-1.868-5.015-4.196-5.376m17.8225-.5902h-5.0326v4.098h3.5576l4.294 7.769h5.343l-4.917-8.327c2.361-.557 4.786-2.622 4.786-6.49m0 0c0-4.065-2.786-7.048-7.343-7.048h-10.228v21.865h4.655v-17.767h4.885c1.869 0 3.278 1.114 3.278 2.95s-1.409 2.95-3.278 2.95m43.4206 4.0652l3.409-9.408 3.41 9.408zm.492-14.063l-8.458 21.865h5.31l1.377-3.704h9.376l1.344 3.704h5.311l-8.425-21.865zm26.9039 17.7671h-3.967v-13.67h3.967c4.491 0 6.851 2.983 6.851 6.852 0 3.704-2.524 6.818-6.851 6.818m0-17.767h-8.622v21.865h8.622c6.851 0 11.604-4.327 11.604-10.916s-4.753-10.949-11.604-10.949m82.1269-.0045l-5.734 9.27-5.734-9.27h-5.146v21.869h4.656v-14.293l5.012 7.622c.574.871 1.851.871 2.424 0l5.013-7.622v14.293h4.656v-21.869z"/><path id="a" d="M95.5421 23.08238c-3.871 0-7.008-3.138-7.008-7.008 0-3.871 3.137-7.009 7.008-7.009 3.87 0 7.008 3.138 7.008 7.009 0 3.87-3.138 7.008-7.008 7.008m0-18.536c-6.367 0-11.528 5.161-11.528 11.528 0 6.366 5.161 11.527 11.528 11.527 6.366 0 11.528-5.161 11.528-11.527 0-6.367-5.162-11.528-11.528-11.528"/><path d="M176.1203 19.46518c-1.195 2.156-3.492 3.617-6.132 3.617-3.87 0-7.008-3.138-7.008-7.008 0-3.871 3.138-7.008 7.008-7.008 2.618 0 4.897 1.438 6.1 3.565l3.27-3.269c-2.092-2.915-5.508-4.816-9.37-4.816-6.367 0-11.527 5.161-11.527 11.528 0 6.366 5.16 11.528 11.527 11.528 3.883 0 7.316-1.922 9.404-4.865z"/><use width="100%" height="100%" transform="translate(98.718)" xlink:href="#a"/><ellipse cx="16.236" cy="16.235" fill="#cc092f" rx="16.236" ry="16.235"/><path fill="#fff" d="M30.5421 20.62148c-1.857-.74-3.557-.492-5.261.541 0 0-.621.379-.807.496-.794.498-1.543.97-2.263.97-.687 0-1.363-.184-1.649-1.513-.446-2.073-1.534-7.167-2.009-9.69-.279-1.483-.432-2.282-.591-2.825-.28-.954-.792-1.473-1.519-1.556 0 0-.114-.016-.207-.016-.092 0-.218.018-.218.018-.72.086-1.229.605-1.507 1.554-.159.543-.312 1.342-.591 2.825-.475 2.523-1.563 7.617-2.009 9.69-.286 1.329-.962 1.513-1.649 1.513-.72 0-1.469-.472-2.263-.97-.186-.117-.808-.496-.808-.496-1.703-1.033-3.404-1.281-5.26-.541-.401.16-.79597.33918-1.17197.52018.257.806.57694 1.59925.94994 2.34425.411-.202.84203-.40243 1.28203-.53243.634-.187 1.284-.197 1.914.014.612.205 1.157.568 1.7.909 1.023.643 2.182 1.372 3.657 1.372 2.186 0 3.72-1.305 4.21-3.581.38-1.764 1.222-5.702 1.763-8.418 0 0 1.386 6.654 1.765 8.418.49 2.276 2.025 3.581 4.211 3.581 1.475 0 2.634-.729 3.657-1.372.543-.341 1.088-.704 1.7-.909.629-.211 1.28-.201 1.914-.014.44.13.87038.33065 1.28138.53265.374-.745.6931-1.53862.9501-2.34462-.376-.181-.77048-.36003-1.17148-.52003"/><path d="M121.50317 38.55062v6.3924c-.65955-.3434-1.28832-.59433-1.88632-.75283-.59798-.1673-1.28392-.25094-2.0578-.25094-.85302 0-1.67965.1761-2.4799.5283-.79146.3522-1.4862.86289-2.08419 1.53206-.60678.68678-1.09045 1.51885-1.451 2.4962-.35177.97735-.52765 2.09117-.52765 3.34148 0 2.40375.51446 4.2836 1.54335 5.63956 1.0377 1.35597 2.43594 2.03395 4.19474 2.03395.90579 0 1.74562-.1717 2.51949-.51509.77387-.34339 1.51696-.82326 2.22928-1.4396v1.54526h2.47991V38.55062zm78.47335.47547c-3.14825 0-5.83922 1.11823-8.0729 3.35469-2.22488 2.22765-3.33732 4.91756-3.33732 8.06973s1.11244 5.84648 3.33732 8.08294c2.23368 2.22766 4.92465 3.34148 8.0729 3.34148 3.14825 0 5.83483-1.11382 8.05971-3.34148 2.23368-2.23646 3.35052-4.93077 3.35052-8.08294 0-3.15217-1.11684-5.84208-3.35052-8.06973-2.22488-2.23646-4.91146-3.35469-8.0597-3.35469zM39.6925 39.0789c-1.44222 0-2.75692.22454-3.94411.67359-1.1784.44905-2.18531 1.10061-3.02075 1.9547-.8618.88048-1.52136 1.9591-1.97865 3.23581-.45729 1.27672-.68593 2.72513-.68593 4.34524 0 1.70816.23744 3.2094.71231 4.50374.47488 1.28552 1.13443 2.34651 1.97866 3.18298.86181.85408 1.87312 1.48364 3.03393 1.88867 1.1696.39622 2.46672.59433 3.89135.59433.75629 0 1.44662-.0616 2.07099-.1849.63317-.11447 1.21797-.25535 1.7544-.42265.63317-.20251 1.14323-.39622 1.53016-.58112.39573-.1849.83543-.38302 1.3191-.59434v-3.06412h-.18467c-.95855.86289-1.98745 1.51005-3.0867 1.9415-1.09925.43144-2.27765.64716-3.53519.64716-.91458 0-1.78518-.1541-2.61182-.46226-.81784-.31698-1.53456-.80125-2.15014-1.45282-.5892-.62515-1.07287-1.4352-1.451-2.43016-.36936-.99496-.55403-2.18363-.55403-3.566 0-1.32075.16709-2.483.50126-3.48677.34296-1.01257.81784-1.84904 1.42463-2.5094.62437-.678 1.33229-1.17547 2.12375-1.49245.80026-.32578 1.69725-.48867 2.69097-.48867 1.21357 0 2.3524.20691 3.41647.62075 1.06408.41383 2.13695 1.0742 3.2186 1.98111h.19787v-3.10374c-1.28392-.64276-2.45352-1.09182-3.5088-1.34716-1.0465-.25535-2.09738-.38302-3.15266-.38302zm15.23562.3566l-7.14953 19.66586h2.6514l1.92589-5.48108h8.495l1.9259 5.48108h2.7833L58.41054 39.4355zm23.11066 0v19.66586h12.9404v-2.3245H80.6506v-7.30371h10.32856v-2.3245H80.6506V41.76h10.32856v-2.3245zm121.93775 1.0566c2.72614 0 5.05216.97735 6.97805 2.93204 1.93468 1.9547 2.90202 4.29682 2.90202 7.02636 0 2.72952-.96734 5.07165-2.90202 7.02634-1.9259 1.9547-4.2519 2.93205-6.97805 2.93205-2.72614 0-5.05655-.97735-6.99124-2.93205-1.92589-1.9547-2.88883-4.29682-2.88883-7.02634 0-2.72954.96294-5.07165 2.88883-7.02636 1.93469-1.9547 4.2651-2.93204 6.99124-2.93204zM56.60337 41.7204l3.44286 9.65463h-6.8989zm45.75964 2.21884c-.87061 0-1.71923.1805-2.54587.5415-.82663.36101-1.6269.8629-2.40076 1.50566v-1.63772h-2.47992v14.75269h2.47992V48.08637c.67713-.5195 1.38505-.94653 2.12375-1.28113.7387-.33458 1.44661-.50187 2.12375-.50187.65955 0 1.19599.09244 1.6093.27735.41332.1761.7299.44905.94976.81886.21105.33459.35616.80125.4353 1.39999.07915.58993.11873 1.22389.11873 1.90186v8.39993h2.4799v-9.57539c0-1.805-.41771-3.18739-1.25314-4.14712-.83544-.95974-2.04901-1.43962-3.64072-1.43962zm32.62138 0c-2.14574 0-3.87816.7088-5.19726 2.1264-1.3103 1.4176-1.96546 3.33267-1.96546 5.74523 0 2.43897.68593 4.32323 2.0578 5.65277 1.37186 1.32075 3.28016 1.98112 5.7249 1.98112.95854 0 1.87312-.11887 2.74373-.3566.8706-.23773 1.72362-.5327 2.55905-.8849v-2.70752h-.1319c-.43092.38742-1.15642.78364-2.17652 1.18867-1.01131.39622-2.01823.59433-3.02075.59433-.75628 0-1.451-.10565-2.08417-.31697-.62438-.21132-1.16521-.5283-1.6225-.95094-.47488-.43144-.84863-.98175-1.12124-1.65093-.27261-.67798-.40892-1.47042-.40892-2.37734h10.8562V50.6354c0-2.1396-.54082-3.79053-1.6225-4.95278-1.07286-1.16226-2.60302-1.74339-4.59046-1.74339zm31.72439 0c-2.08418 0-3.74185.7-4.97301 2.09999-1.22237 1.39118-1.83355 3.28864-1.83355 5.6924 0 2.40375.61118 4.30121 1.83355 5.6924 1.23116 1.39118 2.88883 2.08677 4.973 2.08677 2.0666 0 3.71548-.6956 4.94664-2.08678 1.23116-1.39118 1.84675-3.28864 1.84675-5.6924 0-2.40375-.61559-4.30121-1.84675-5.6924-1.23116-1.39998-2.88004-2.09998-4.94663-2.09998zm28.99385.23774v12.0848h2.17652v-4.68865h2.13694l4.36623 4.68864h2.9416l-5.06535-5.28297c.8706-.33458 1.55214-.78364 2.0446-1.34716.50126-.57231.7519-1.28552.7519-2.1396 0-.64276-.13191-1.17546-.39574-1.5981-.25503-.43144-.65955-.79684-1.21357-1.09621-.51884-.27295-1.04649-.44465-1.58292-.51509-.53643-.07044-1.21797-.10566-2.04461-.10566zm-52.38152.1717l5.92277 14.75269h2.4931l5.96234-14.7527h-2.59864l-4.5245 11.7414-4.5641-11.7414zm34.03282 0v14.75269h2.47991V48.62787c.65955-.5371 1.34549-.97294 2.0578-1.30754.71231-.34339 1.45101-.51509 2.21609-.51509.47488 0 .8838.02198 1.22677.06607.35175.03523.71231.09686 1.08166.1849h.1319V44.5072c-.38693-.0616-.67713-.10125-.8706-.11888-.19347-.02644-.50566-.03962-.93656-.03962-.78267 0-1.55214.1673-2.30843.50188-.74749.32578-1.6137.8849-2.59863 1.67734V44.3487zm20.52522 1.47923h1.96546c.46609 0 .85302.02197 1.1608.06606.3078.04403.598.14088.87062.29057.2902.15848.49686.361.61998.60753.12311.24654.18467.5283.18467.84528 0 .39622-.05714.72642-.17148.99056-.10554.26415-.2946.50629-.56722.72641-.25502.20251-.5804.3478-.97613.43584-.39573.07924-.86622.11887-1.41144.11887h-1.67526zm-63.02667.15849c1.3191 0 2.29963.3566 2.9416 1.0698.65077.7132.98054 1.72136.98932 3.0245h-8.44225c.10552-1.16225.54963-2.1352 1.33229-2.91884.79146-.78365 1.85115-1.17546 3.17904-1.17546zm31.8563.09245c1.3279 0 2.3656.46666 3.11308 1.39999.7475.92452 1.12124 2.34211 1.12124 4.25279 0 1.86664-.37815 3.27544-1.13443 4.22637-.7475.94213-1.78079 1.4132-3.0999 1.4132-1.33668 0-2.37878-.47547-3.12626-1.4264-.7475-.95975-1.12124-2.36414-1.12124-4.21317 0-1.91068.36935-3.32827 1.10805-4.2528.74748-.93332 1.79398-1.39998 3.13946-1.39998zm-48.7276.13207c.62436 0 1.20037.05721 1.72801.1717.52764.11447 1.12563.32138 1.79398.62075v8.46595c-.62438.49308-1.29711.89811-2.01822 1.21509-.72111.30817-1.43343.46226-2.13695.46226-1.3191 0-2.27765-.45346-2.87564-1.36037-.598-.9157-.89699-2.24966-.89699-4.00185 0-1.7786.38694-3.15216 1.16081-4.1207.77387-.96856 1.85553-1.45283 3.245-1.45283z"/></svg>