<svg xmlns="http://www.w3.org/2000/svg" role="img" viewBox="17.88 -5.13 409.50 247.75"><title>CA File Master™ Plus Plug-in for Zowe CLI logo</title><style>svg {enable-background:new 0 0 400 245}</style><style id="style2" type="text/css">.st2{fill:#cc092f}</style><g id="g38" transform="matrix(1.33333 0 0 -1.33333 0 489.6)"><path id="path4" d="M212.9 270.7l1.9 1.6c-1.1 1.3-2.7 1.9-4.4 1.9-2.2 0-4.1-1.3-4.1-3.7 0-4.4 6.3-3.6 6.3-5.8 0-.9-.7-1.4-1.8-1.4-1.3 0-2.2.8-2.9 1.8l-2-1.5c1.1-1.6 2.7-2.6 4.7-2.6 2.6 0 4.6 1.2 4.6 3.8 0 4.6-6.3 3.7-6.3 5.8 0 .8.5 1.2 1.7 1.2.9.3 1.7-.4 2.3-1.1m-1.1 24.7c0 2.3-1.5 3.9-3.7 3.9s-3.7-1.6-3.7-3.9 1.5-3.8 3.7-3.8c2.1 0 3.7 1.5 3.7 3.8m-.5 0c0-2.2-1.4-3.4-3.2-3.4-1.8 0-3.2 1.2-3.2 3.4s1.4 3.4 3.2 3.4c1.7 0 3.2-1.2 3.2-3.4m-1.5-1.9l-1.2 1.7c.5.2.9.6.9 1.2 0 .8-.6 1.2-1.5 1.2h-1.3v-4.2h.7v1.7h.4l1.3-1.8zm-1.8 2.3h-.5v1.3h.6c.5 0 .8-.2.8-.6-.1-.5-.4-.7-.9-.7m-3.7-27.3c0 3-1.8 5.8-5.1 5.8-3.4 0-5.4-2.5-5.4-6.6 0-4 2-6.6 5.3-6.6 2.4 0 4.1.8 5.3 2.6l-2.2 1.4c-.8-.9-1.4-1.5-2.8-1.5s-2.6 1-2.6 3.6h7.6zm-2.7.8h-4.8c0 1.7 1 2.8 2.4 2.8s2.3-1 2.4-2.8m-21.3 22.4h20.2c-1.1 3.5-1.4 7.1-1.4 10.8v37.4c0 9.1-1.7 14.2-6.6 18.6-4.6 4.2-12.2 6.6-22.4 6.6-8.8 0-16.4-1.9-22.2-5.5 4.5-3.8 7.6-8.8 9.1-14.8 1.9 3.1 5.8 4.4 10.7 4.4 8.1 0 10.5-5.7 10.6-10.5l.1-2.3c-22.5-1.1-43.8-5.3-43.3-25.9.3-14.4 13.4-20.3 22.3-20.3 10.4 0 16.3 2.8 22 9.9 0-2.9.4-6.1.9-8.4m-2 31.6c0-6-.1-9.3-2.8-13.4-2.4-3.7-6.2-6-10.5-6-5.8 0-10.6 2.6-10.6 9 0 9.3 13.6 12.6 24 13.2v-2.8zm-54.2 41.8c-22.7 0-36-16-36-38.1 0-21.2 12.9-36.7 34.7-36.7 5.6 0 11.8 1.2 17.2 4-4.1 3.5-7.1 8.6-7.4 15.7-1.9-1.8-4.6-2.8-7.8-2.8-10.5 0-13.4 7.9-13.4 21.4 0 13.3 3.2 20.5 13.4 20.5 6.4 0 10.9-3.4 10.9-9.9h19.8c-1.4 17.1-14.9 25.9-31.4 25.9m-37.5-86.9V274h-1.7v-2.4h1.7v-7.5c0-1.8.9-2.9 3.1-2.9.8 0 1.5.1 2.4.2v2.5c-.4-.1-.9-.2-1.4-.2-.7 0-1.1.2-1.1.9v7.1h2.5v2.4h-2.5v4.2h-3zm6.9-10.4c0-4 2-6.6 5.3-6.6 2.4 0 4.1.8 5.2 2.6l-2.2 1.4c-.7-.9-1.4-1.5-2.8-1.5s-2.6 1-2.6 3.6h7.6v1.2c0 3-1.8 5.8-5.1 5.8s-5.4-2.5-5.4-6.5m3 1.5c.1 1.7 1 2.8 2.4 2.8s2.4-1 2.4-2.8zm9.4-1.5c0-4 2-6.6 5.4-6.6 2.3 0 3.8.9 5 3.2l-2.3 1.3c-.6-1.1-1.3-2-2.6-2-1.8 0-2.6 1.3-2.6 4.1s.8 4.1 2.5 4.1c1.5 0 2-.8 2.5-1.9l2.5 1c-.7 2.1-2.6 3.4-4.9 3.4-3.5-.1-5.5-2.6-5.5-6.6m15.6 11.2h-3v-17.5h3v9.1c.5.6 1.5 1.3 2.8 1.3 1 0 1.5-.5 1.5-2.2v-8.2h3v8.6c0 2.6-1.2 4.2-3.7 4.2-1.5 0-2.7-.8-3.6-1.6zm13.1-4.9h-2.7v-12.6h3v9.1c.5.6 1.5 1.3 2.8 1.3 1 0 1.5-.5 1.5-2.2v-8.2h3v8.6c0 2.6-1.2 4.2-3.7 4.2-1.5 0-2.7-.8-3.9-1.6zm9.7-6.3c0-4 2-6.6 5.4-6.6 3.4 0 5.4 2.6 5.4 6.6 0 4-2 6.6-5.4 6.6-3.3-.1-5.4-2.6-5.4-6.6m3 0c0 2.8.8 4.1 2.5 4.1s2.5-1.3 2.5-4.1-.8-4.1-2.5-4.1c-1.7-.1-2.5 1.2-2.5 4.1m13.3 11.2h-3v-17.5h3v4.4zm2.4-11.2c0-4 2-6.6 5.4-6.6 3.4 0 5.4 2.6 5.4 6.6 0 4-2 6.6-5.4 6.6-3.3-.1-5.4-2.6-5.4-6.6m3 0c0 2.8.8 4.1 2.5 4.1s2.5-1.3 2.5-4.1-.8-4.1-2.5-4.1c-1.7-.1-2.5 1.2-2.5 4.1m8.8-8c0-2 2.2-3 5.6-3 4 0 5.8 1.9 5.8 3.7 0 5-8.2 2.3-8.2 4.3 0 .7 1 .8 2.3.8 3.1 0 4.7 1.7 4.7 4.1 0 1-.3 1.7-.7 2.2.5.3 1.2.3 1.9.3v2c-1.4.1-2.4-.3-2.9-1.1-.8.7-2 1.1-3.1 1.1-3.3 0-4.9-2.2-4.9-4.4 0-1.5.8-2.5 1.8-3.3-.6-.2-1.9-1.1-1.9-2.3 0-1.4 1.3-1.7 1.8-2v-.1c-1 .1-2.2-.7-2.2-2.3M178 270c0 1.2.9 2.1 2.2 2.1 1.1 0 2-.9 2-2.1 0-1.2-.9-2.1-2-2.1-1.3 0-2.2.9-2.2 2.1m-.5-9.8c0 .5.5 1.5 2.1 1.5 2.9 0 3.8-.9 3.8-1.5 0-.4-.7-1.4-2.6-1.4-2.4 0-3.3.5-3.3 1.4m13.9 19h-3v-2.8h3v1.6zm0-5.1h-3v-12.6h3v3.7z"/><path id="path6" fill="#cc092f" d="M71.2 241.6l-2.5 5.8-2.5-5.8zm-3.1 7.3h1.2l5-11.5H73l-1.3 3h-6l-1.3-3h-1.3z" class="st2"/><path id="path8" fill="#cc092f" d="M85.6 242.3h-3.1v-3.1h3.2c1.3 0 2.1.5 2.1 1.6.1.9-.7 1.5-2.2 1.5m1.7 3.3c0 .9-.7 1.5-1.9 1.5h-2.8v-3h2.6c1.2-.1 2.1.4 2.1 1.5zm-6.6 3.2h4.9c1.3 0 2.2-.4 2.9-1 .5-.5.7-1.1.7-1.9 0-1.4-.8-2.1-1.6-2.5 1.3-.5 2.2-1.2 2.2-2.8 0-2-1.6-3.1-4.1-3.1h-5.1z" class="st2"/><path id="path10" fill="#cc092f" d="M91.6 246h1.9v-2c.5 1.3 1.5 2.2 2.9 2.1V244h-.1c-1.7 0-2.8-1.1-2.8-3.4v-3.3h-1.9z" class="st2"/><path id="path12" fill="#cc092f" d="M104.1 241.6c0 1.5-1 2.8-2.5 2.8s-2.5-1.2-2.5-2.7c0-1.5 1-2.8 2.5-2.8s2.5 1.3 2.5 2.7m-6.9 0c0 2.5 1.9 4.5 4.4 4.5 2.5 0 4.4-2 4.4-4.5 0-2.4-1.9-4.5-4.4-4.5-2.6.1-4.4 2.1-4.4 4.5" class="st2"/><path id="path14" fill="#cc092f" d="M112.9 240.5v.6c-.5.2-1.1.3-1.9.3-1.2 0-1.9-.5-1.9-1.4 0-.8.7-1.3 1.6-1.3 1.2-.1 2.2.7 2.2 1.8m-5.7-.6c0 1.9 1.4 2.8 3.4 2.8.9 0 1.6-.1 2.2-.4v.2c0 1.2-.7 1.9-2.1 1.9-.9 0-1.6-.2-2.4-.5l-.5 1.5c.9.4 1.8.7 3.1.7 1.2 0 2.2-.3 2.7-1 .6-.6.9-1.5.9-2.7v-5.1h-1.8v1.1c-.6-.7-1.4-1.3-2.7-1.3-1.4.1-2.8 1-2.8 2.8" class="st2"/><path id="path16" fill="#cc092f" d="M123 241.7c0 1.7-1.1 2.8-2.4 2.8-1.3 0-2.4-1.1-2.4-2.8 0-1.7 1.1-2.8 2.4-2.8 1.3 0 2.4 1.1 2.4 2.8m-6.6 0c0 2.9 1.9 4.5 3.8 4.5 1.4 0 2.2-.7 2.8-1.5v4.6h1.9v-11.9H123v1.4c-.6-.9-1.5-1.6-2.8-1.6-1.9 0-3.8 1.6-3.8 4.5" class="st2"/><path id="path18" fill="#cc092f" d="M126.7 241.6c0 2.5 1.8 4.5 4.3 4.5 1.6 0 2.5-.6 3.3-1.5l-1.2-1.3c-.6.6-1.2 1.1-2.1 1.1-1.4 0-2.4-1.2-2.4-2.7 0-1.5 1-2.8 2.5-2.8.9 0 1.5.4 2.1 1.1l1.1-1.2c-.8-.9-1.8-1.6-3.4-1.6-2.4 0-4.2 2-4.2 4.4" class="st2"/><path id="path20" fill="#cc092f" d="M142.1 241.6c0 1.5-1 2.8-2.5 2.8s-2.5-1.2-2.5-2.7c0-1.5 1-2.8 2.5-2.8 1.6 0 2.5 1.3 2.5 2.7m-6.9 0c0 2.5 1.9 4.5 4.4 4.5 2.5 0 4.4-2 4.4-4.5 0-2.4-1.9-4.5-4.4-4.5-2.5.1-4.4 2.1-4.4 4.5" class="st2"/><path id="path22" fill="#cc092f" d="M145.8 246h1.9v-1.3c.5.8 1.3 1.5 2.5 1.5s2-.6 2.5-1.5c.7.9 1.5 1.5 2.8 1.5 1.8 0 2.9-1.2 2.9-3.3v-5.5h-1.9v4.9c0 1.4-.6 2.1-1.7 2.1-1 0-1.8-.8-1.8-2.1v-4.9h-1.9v4.9c0 1.3-.6 2.1-1.7 2.1-1 0-1.8-.8-1.8-2.1v-4.9h-1.9v8.6z" class="st2"/><path id="path24" fill="#cc092f" d="M164.9 243.1c0 3.3 2.3 5.9 5.5 5.9 2 0 3.2-.7 4.3-1.8l-.8-.9c-.9.9-2 1.6-3.4 1.6-2.4 0-4.2-2.1-4.2-4.7s1.8-4.7 4.2-4.7c1.5 0 2.5.6 3.5 1.6l.8-.8c-1.1-1.2-2.4-2-4.4-2-3.1-.1-5.5 2.5-5.5 5.8" class="st2"/><path id="path26" fill="#cc092f" d="M183.2 241.6c0 1.8-1.3 3.3-3 3.3-1.8 0-3-1.5-3-3.3 0-1.8 1.3-3.3 3-3.3 1.8 0 3 1.5 3 3.3m-7.2 0c0 2.4 1.8 4.4 4.2 4.4 2.4 0 4.2-2 4.2-4.4 0-2.4-1.8-4.4-4.2-4.4-2.4 0-4.2 2-4.2 4.4" class="st2"/><path id="path28" fill="#cc092f" d="M186.5 245.8h1.2v-1.4c.5.8 1.3 1.6 2.6 1.6s2.2-.7 2.6-1.7c.6.9 1.4 1.7 2.8 1.7 1.9 0 3-1.3 3-3.4v-5.2h-1.2v4.9c0 1.6-.8 2.5-2.1 2.5-1.2 0-2.2-.9-2.2-2.6v-4.9H192v5c0 1.6-.8 2.5-2.1 2.5s-2.3-1.1-2.3-2.7v-4.8h-1.2z" class="st2"/><path id="path30" fill="#cc092f" d="M208.1 241.6c0 2-1.3 3.3-2.9 3.3-1.5 0-2.9-1.3-2.9-3.2 0-2 1.4-3.3 2.9-3.3 1.6-.1 2.9 1.1 2.9 3.2m-7 4.2h1.2v-1.7c.7 1 1.6 1.9 3.1 1.9 1.9 0 3.9-1.6 3.9-4.4 0-2.8-1.9-4.4-3.9-4.4-1.5 0-2.5.8-3.1 1.8v-4.2h-1.2z" class="st2"/><path id="path32" fill="#cc092f" d="M216.7 240.5v.8c-.6.2-1.4.4-2.4.4-1.5 0-2.4-.7-2.4-1.7 0-1.1.9-1.7 2-1.7 1.6-.1 2.8.8 2.8 2.2m-5.9-.7c0 1.8 1.4 2.8 3.5 2.8 1 0 1.8-.1 2.5-.4v.3c0 1.5-.9 2.3-2.4 2.3-1 0-1.7-.3-2.5-.6l-.4 1c.9.4 1.8.7 2.9.7 1.1 0 2-.3 2.6-.9.5-.6.8-1.4.8-2.5v-5.2h-1.2v1.3c-.6-.8-1.5-1.5-2.9-1.5-1.4.1-2.9 1-2.9 2.7" class="st2"/><path id="path34" fill="#cc092f" d="M220.3 245.8h1.2v-1.5c.5.9 1.4 1.6 2.8 1.6 2 0 3.1-1.4 3.1-3.4v-5.2h-1.2v4.9c0 1.6-.8 2.5-2.2 2.5-1.4 0-2.4-1.1-2.4-2.6v-4.8h-1.2z" class="st2"/><path id="path36" fill="#cc092f" d="M235.6 245.8h1.3l-3.4-8.7c-.7-1.7-1.5-2.4-2.7-2.4-.7 0-1.2.1-1.7.4l.4 1c.4-.2.8-.3 1.3-.3.7 0 1.2.4 1.7 1.6l-3.7 8.4h1.3l2.9-7z" class="st2"/></g><g id="g42"><g id="text40" transform="translate(23.816 234.258)"><path id="path51" d="M24.474-25.568v3.952q-1.893-1.763-4.045-2.635-2.134-.872-4.546-.872-4.75 0-7.274 2.913-2.523 2.895-2.523 8.387 0 5.473 2.523 8.386 2.524 2.895 7.274 2.895 2.412 0 4.546-.872 2.152-.872 4.045-2.635v3.915Q22.507-.798 20.299-.13q-2.19.668-4.639.668-6.29 0-9.908-3.84-3.618-3.86-3.618-10.521 0-6.68 3.618-10.52 3.618-3.86 9.908-3.86 2.486 0 4.676.668 2.208.65 4.138 1.967z"/><path id="path53" d="M39.559-24.01l-5.084 13.786H44.66zm-2.116-3.692h4.25L52.25 0h-3.896L45.83-7.106H33.343L30.819 0h-3.952z"/><path id="path55" d="M68.374-27.702h15.92v3.154H72.122v8.164h10.984v3.155H72.122V0h-3.748z"/><path id="path57" d="M87.374-20.781h3.414V0h-3.414zm0-8.09h3.414v4.323h-3.414z"/><path id="path59" d="M97.913-28.871h3.414V0h-3.414z"/><path id="path61" d="M126.228-11.244v1.67H110.53q.223 3.525 2.116 5.38 1.91 1.838 5.306 1.838 1.967 0 3.804-.483 1.855-.482 3.674-1.447v3.228q-1.837.78-3.767 1.188-1.93.408-3.915.408-4.973 0-7.886-2.894-2.894-2.895-2.894-7.83 0-5.103 2.746-8.09 2.765-3.006 7.44-3.006 4.194 0 6.624 2.709 2.45 2.69 2.45 7.329zm-3.415-1.002q-.037-2.802-1.577-4.472-1.521-1.67-4.045-1.67-2.857 0-4.583 1.615-1.707 1.614-1.966 4.545z"/><path id="path63" d="M144.077-27.702h5.585l7.07 18.851 7.106-18.851h5.585V0h-3.655v-24.325l-7.144 19h-3.767l-7.143-19V0h-3.637z"/><path id="path65" d="M186.178-10.446q-4.138 0-5.734.946-1.595.946-1.595 3.229 0 1.818 1.187 2.894 1.206 1.058 3.266 1.058 2.839 0 4.546-2.004 1.725-2.023 1.725-5.363v-.76zm6.81-1.41V0h-3.415v-3.154q-1.169 1.892-2.913 2.801-1.744.891-4.267.891-3.192 0-5.084-1.781-1.874-1.8-1.874-4.806 0-3.507 2.337-5.288 2.357-1.781 7.014-1.781h4.787v-.334q0-2.357-1.558-3.637-1.54-1.299-4.342-1.299-1.781 0-3.47.427-1.688.427-3.247 1.28v-3.154q1.874-.724 3.637-1.076 1.762-.371 3.432-.371 4.51 0 6.736 2.338t2.226 7.088z"/><path id="path67" d="M213.286-20.169v3.229q-1.447-.743-3.006-1.114-1.558-.37-3.228-.37-2.542 0-3.823.778-1.261.78-1.261 2.338 0 1.188.909 1.874.91.668 3.655 1.28l1.17.26q3.636.78 5.157 2.208 1.54 1.41 1.54 3.953 0 2.894-2.3 4.583-2.283 1.688-6.29 1.688-1.67 0-3.489-.334-1.8-.315-3.803-.965v-3.525q1.892.983 3.73 1.484 1.836.483 3.636.483 2.412 0 3.71-.817 1.3-.835 1.3-2.338 0-1.391-.947-2.133-.927-.743-4.1-1.43l-1.188-.277q-3.173-.668-4.583-2.041-1.41-1.392-1.41-3.804 0-2.932 2.078-4.528 2.078-1.595 5.9-1.595 1.893 0 3.563.278 1.67.278 3.08.835z"/><path id="path69" d="M223.231-26.682v5.9h7.033v2.654h-7.033v11.281q0 2.542.687 3.266.705.724 2.839.724h3.507V0h-3.507q-3.952 0-5.455-1.466-1.503-1.484-1.503-5.38v-11.282h-2.505v-2.653h2.505v-5.9z"/><path id="path71" d="M252.548-11.244v1.67H236.85q.222 3.525 2.115 5.38 1.91 1.838 5.306 1.838 1.967 0 3.804-.483 1.856-.482 3.674-1.447v3.228q-1.837.78-3.767 1.188-1.93.408-3.915.408-4.972 0-7.885-2.894-2.895-2.895-2.895-7.83 0-5.103 2.746-8.09 2.765-3.006 7.44-3.006 4.194 0 6.625 2.709 2.449 2.69 2.449 7.329zm-3.414-1.002q-.037-2.802-1.577-4.472-1.522-1.67-4.045-1.67-2.858 0-4.583 1.615-1.707 1.614-1.967 4.545z"/><path id="path73" d="M270.193-17.59q-.575-.334-1.261-.482-.668-.167-1.485-.167-2.894 0-4.453 1.892-1.54 1.874-1.54 5.4V0h-3.433v-20.781h3.433v3.228q1.076-1.892 2.802-2.801 1.725-.928 4.193-.928.353 0 .78.055.426.038.946.13z"/><path id="path75" d="M290.604-27.702l3.228 4.75 3.043-4.75h3.154v10.724h-2.096v-8.98l-3.619 5.622h-1.02l-3.767-5.622v8.98h-2.115v-10.724zm-5.289 0v1.744h-3.766v8.98h-2.115v-8.98h-3.73v-1.744z"/><path id="path77" d="M327.806-24.622v10.41h4.713q2.616 0 4.044-1.355 1.43-1.355 1.43-3.86 0-2.486-1.43-3.84-1.428-1.355-4.044-1.355zm-3.748-3.08h8.46q4.658 0 7.033 2.115 2.393 2.097 2.393 6.16 0 4.1-2.393 6.198-2.375 2.096-7.032 2.096h-4.713V0h-3.748z"/><path id="path79" d="M346.843-28.871h3.414V0h-3.414z"/><path id="path81" d="M357.03-8.201v-12.58h3.413v12.45q0 2.95 1.15 4.435 1.151 1.465 3.452 1.465 2.765 0 4.36-1.762Q371.02-5.956 371.02-9v-11.782h3.414V0h-3.414v-3.191q-1.244 1.892-2.895 2.82-1.633.91-3.804.91-3.58 0-5.436-2.227-1.856-2.227-1.856-6.513zm8.59-13.081z"/><path id="path83" d="M394.751-20.169v3.229q-1.447-.743-3.006-1.114-1.558-.37-3.228-.37-2.542 0-3.823.778-1.261.78-1.261 2.338 0 1.188.909 1.874.909.668 3.655 1.28l1.169.26q3.637.78 5.158 2.208 1.54 1.41 1.54 3.953 0 2.894-2.3 4.583-2.283 1.688-6.29 1.688-1.67 0-3.489-.334-1.8-.315-3.804-.965v-3.525q1.893.983 3.73 1.484 1.837.483 3.637.483 2.412 0 3.71-.817 1.3-.835 1.3-2.338 0-1.391-.947-2.133-.928-.743-4.1-1.43l-1.188-.277q-3.173-.668-4.583-2.041-1.41-1.392-1.41-3.804 0-2.932 2.078-4.528 2.078-1.595 5.9-1.595 1.893 0 3.563.278 1.67.278 3.08.835z"/></g></g></svg>