<svg xmlns="http://www.w3.org/2000/svg" role="img" xmlns:xlink="http://www.w3.org/1999/xlink" viewBox="-4.53 -4.53 248.82 59.32"><title>CA File Master™ Plus (API Mediation Layer ZOWE V1) logo</title><path id="path4" d="M237.32 9.09c-1.06 0-1.93-.86-1.93-1.92s.87-1.93 1.93-1.93 1.93.87 1.93 1.93-.87 1.92-1.93 1.92m0-4.32c-1.32 0-2.4 1.08-2.4 2.4 0 1.32 1.08 2.4 2.4 2.4 1.32 0 2.4-1.08 2.4-2.4 0-1.32-1.08-2.4-2.4-2.4"/><path id="path6" d="M237.48 7.07l-.51.01-.01-.62h.51c.19-.01.34.11.34.3.01.19-.14.31-.33.31m.83-.32c-.01-.42-.3-.72-.77-.72l-1.07.02.03 2.26h.49l-.01-.81h.35l.46.8.55-.01-.52-.86c.24-.06.49-.28.49-.68M51.8341 23.1805h-5.999V9.3465h5.835c1.574 0 2.557 1.016 2.557 2.393 0 1.377-.983 2.36-2.557 2.36H45v4h6.8341c1.836 0 2.819 1.18 2.819 2.556 0 1.574-1.049 2.525-2.819 2.525m3.376-7.245c2.066-.426 3.771-2.262 3.771-5.015 0-2.918-2.131-5.573-6.295-5.573h-11.506v21.865h11.867c4.163 0 6.359-2.623 6.359-5.901 0-2.754-1.868-5.015-4.196-5.376m17.8225-.5902H68v4.098h3.5576l4.294 7.769h5.343l-4.917-8.327c2.361-.557 4.786-2.622 4.786-6.49m0 0c0-4.065-2.786-7.048-7.343-7.048h-10.228v21.865h4.655V9.4453h4.885c1.869 0 3.278 1.114 3.278 2.95s-1.409 2.95-3.278 2.95m43.4206 4.0652l3.409-9.408 3.41 9.408zm.492-14.063l-8.458 21.865h5.31l1.377-3.704h9.376l1.344 3.704h5.311l-8.425-21.865zm26.9039 17.7671h-3.967v-13.67h3.967c4.491 0 6.851 2.983 6.851 6.852 0 3.704-2.524 6.818-6.851 6.818m0-17.767h-8.622v21.865h8.622c6.851 0 11.604-4.327 11.604-10.916s-4.753-10.949-11.604-10.949m82.1269-.0045l-5.734 9.27-5.734-9.27h-5.146v21.869h4.656v-14.293l5.012 7.622c.574.871 1.851.871 2.424 0l5.013-7.622v14.293h4.656V5.3431z"/><path id="a" d="M95.8253 23.3441c-3.871 0-7.008-3.138-7.008-7.008 0-3.871 3.137-7.009 7.008-7.009 3.87 0 7.008 3.138 7.008 7.009 0 3.87-3.138 7.008-7.008 7.008m0-18.536c-6.367 0-11.528 5.161-11.528 11.528 0 6.366 5.161 11.527 11.528 11.527 6.366 0 11.528-5.161 11.528-11.527 0-6.367-5.162-11.528-11.528-11.528"/><path id="path9" d="M176.4035 19.7269c-1.195 2.156-3.492 3.617-6.132 3.617-3.87 0-7.008-3.138-7.008-7.008 0-3.871 3.138-7.008 7.008-7.008 2.618 0 4.897 1.438 6.1 3.565l3.27-3.269c-2.092-2.915-5.508-4.816-9.37-4.816-6.367 0-11.527 5.161-11.527 11.528 0 6.366 5.16 11.528 11.527 11.528 3.883 0 7.316-1.922 9.404-4.865z"/><use id="use11" transform="translate(98.718)" xlink:href="#a"/><ellipse id="ellipse13" cx="16.52" cy="16.497" fill="#cc092f" rx="16.236" ry="16.235"/><path id="path15" fill="#fff" d="M30.8253 20.8832c-1.857-.74-3.557-.492-5.261.541 0 0-.621.379-.807.496-.794.498-1.543.97-2.263.97-.687 0-1.363-.184-1.649-1.513-.446-2.073-1.534-7.167-2.009-9.69-.279-1.483-.432-2.282-.591-2.825-.28-.954-.792-1.473-1.519-1.556 0 0-.114-.016-.207-.016-.092 0-.218.018-.218.018-.72.086-1.229.605-1.507 1.554-.159.543-.312 1.342-.591 2.825-.475 2.523-1.563 7.617-2.009 9.69-.286 1.329-.962 1.513-1.649 1.513-.72 0-1.469-.472-2.263-.97-.186-.117-.808-.496-.808-.496-1.703-1.033-3.404-1.281-5.26-.541-.401.16-.79596.33918-1.17196.52018.257.806.57693 1.59925.94993 2.34425.411-.202.84203-.40243 1.28203-.53243.634-.187 1.284-.197 1.914.014.612.205 1.157.568 1.7.909 1.023.643 2.182 1.372 3.657 1.372 2.186 0 3.72-1.305 4.21-3.581.38-1.764 1.222-5.702 1.763-8.418 0 0 1.386 6.654 1.765 8.418.49 2.276 2.025 3.581 4.211 3.581 1.475 0 2.634-.729 3.657-1.372.543-.341 1.088-.704 1.7-.909.629-.211 1.28-.201 1.914-.014.44.13.87039.33065 1.28139.53265.374-.745.69309-1.53862.95009-2.34462-.376-.181-.77048-.36003-1.17148-.52003"/><g id="text17" text-anchor="middle"><path id="path25" d="m 73.620941,49.419922 q -0.29541,0.128906 -0.537109,0.241699 -0.236328,0.112793 -0.623047,0.236328 Q 72.133148,50 71.746429,50.069824 q -0.381347,0.0752 -0.843261,0.0752 -0.870117,0 -1.584473,-0.2417 Q 68.609711,49.65625 68.083344,49.135254 67.567719,48.625 67.277679,47.84082 66.98764,47.05127 66.98764,46.009277 q 0,-0.988281 0.279297,-1.76709 0.279297,-0.778808 0.805664,-1.315917 0.510254,-0.520997 1.229981,-0.794922 0.725097,-0.273926 1.605957,-0.273926 0.644531,0 1.283691,0.155762 0.644531,0.155761 1.428711,0.547851 v 1.262207 h -0.08057 q -0.660645,-0.553222 -1.310547,-0.805664 -0.649902,-0.252441 -1.391113,-0.252441 -0.606934,0 -1.095704,0.19873 -0.483398,0.19336 -0.864746,0.606934 -0.370605,0.402832 -0.580078,1.020508 -0.204101,0.612304 -0.204101,1.417968 0,0.843262 0.225586,1.450196 0.230957,0.606933 0.59082,0.988281 0.375977,0.397461 0.875488,0.59082 0.504883,0.187988 1.063477,0.187988 0.768066,0 1.439453,-0.263183 0.671387,-0.263184 1.256836,-0.789551 h 0.0752 z"/><path id="path27" d="m 81.441254,50 h -1.133301 l -0.78418,-2.229004 H 76.064789 L 75.280609,50 h -1.07959 l 2.911133,-7.997559 h 1.417969 z m -2.245118,-3.14209 -1.401855,-3.926269 -1.407227,3.926269 z"/><path id="path29" d="m 91.630219,42.947754 h -4.044434 v 2.255859 h 3.475098 v 0.945313 H 87.585785 V 50 h -1.063477 v -7.997559 h 5.107911 z"/><path id="path31" d="M 93.843109,42.996094 H 92.704437 V 41.94873 h 1.138672 z M 93.778656,50 H 92.76889 v -5.999512 h 1.009766 z"/><path id="path33" d="m 96.807953,50 h -1.009766 v -8.357422 h 1.009766 z"/><path id="path35" d="m 103.83871,47.10498 h -4.420406 q 0,0.553223 0.166504,0.966797 0.166504,0.408203 0.456542,0.671387 0.2793,0.257813 0.66065,0.386719 0.38671,0.128906 0.84863,0.128906 0.6123,0 1.22998,-0.241699 0.62305,-0.24707 0.88623,-0.483399 h 0.0537 v 1.101075 q -0.51025,0.214843 -1.04199,0.359863 -0.53174,0.145019 -1.11719,0.145019 -1.49316,0 -2.331054,-0.805664 -0.83789,-0.811035 -0.83789,-2.298828 0,-1.471679 0.800293,-2.336426 0.805664,-0.864746 2.116211,-0.864746 1.21387,0 1.86914,0.708985 0.66064,0.708984 0.66064,2.01416 z m -0.98291,-0.773437 q -0.005,-0.794922 -0.40283,-1.229981 -0.39209,-0.435058 -1.19775,-0.435058 -0.81104,0 -1.294435,0.478027 -0.478027,0.478028 -0.542481,1.187012 z"/><path id="path37" d="m 116.4393,50 h -1.06348 v -6.891113 l -2.22363,4.688965 h -0.63379 l -2.20752,-4.688965 V 50 h -0.99365 v -7.997559 h 1.4502 l 2.13232,4.452637 2.0625,-4.452637 h 1.47705 z"/><path id="path39" d="m 123.18002,50 h -1.00439 v -0.63916 q -0.13428,0.09131 -0.36524,0.257812 -0.22558,0.161133 -0.44043,0.257813 -0.25244,0.123535 -0.58007,0.204101 -0.32764,0.08594 -0.76807,0.08594 -0.81104,0 -1.375,-0.537109 -0.56396,-0.53711 -0.56396,-1.369629 0,-0.682129 0.29003,-1.101075 0.29541,-0.424316 0.83789,-0.666015 0.54786,-0.241699 1.31592,-0.327637 0.76807,-0.08594 1.64893,-0.128906 v -0.155762 q 0,-0.34375 -0.12354,-0.569336 -0.11816,-0.225586 -0.34375,-0.354492 -0.21484,-0.123535 -0.51562,-0.166504 -0.30078,-0.04297 -0.62842,-0.04297 -0.39746,0 -0.88623,0.107422 -0.48877,0.102051 -1.00977,0.300781 h -0.0537 v -1.025878 q 0.29541,-0.08057 0.85401,-0.177247 0.55859,-0.09668 1.10107,-0.09668 0.63379,0 1.10108,0.107422 0.47265,0.10205 0.8164,0.354492 0.33838,0.24707 0.51563,0.63916 0.17724,0.39209 0.17724,0.972168 z m -1.00439,-1.477051 v -1.67041 q -0.46192,0.02686 -1.09033,0.08057 -0.62305,0.05371 -0.98828,0.155762 -0.43506,0.123535 -0.70362,0.386719 -0.26855,0.257812 -0.26855,0.714355 0,0.515625 0.31152,0.778809 0.31152,0.257812 0.95068,0.257812 0.53174,0 0.97217,-0.204101 0.44043,-0.209473 0.81641,-0.499512 z"/><path id="path41" d="m 129.42123,48.270508 q 0,0.821777 -0.68212,1.348144 -0.67676,0.526368 -1.85303,0.526368 -0.66602,0 -1.22461,-0.155762 -0.55322,-0.161133 -0.9292,-0.349121 v -1.133301 h 0.0537 q 0.47803,0.359863 1.06348,0.574707 0.58545,0.209473 1.12256,0.209473 0.66601,0 1.04199,-0.214844 0.37597,-0.214844 0.37597,-0.676758 0,-0.354492 -0.2041,-0.537109 -0.2041,-0.182618 -0.78418,-0.311524 -0.21484,-0.04834 -0.56396,-0.112793 -0.34375,-0.06445 -0.62842,-0.139648 -0.78955,-0.209473 -1.12256,-0.612305 -0.32764,-0.408203 -0.32764,-0.999023 0,-0.370606 0.1504,-0.698242 0.15576,-0.327637 0.46728,-0.58545 0.30078,-0.252441 0.7627,-0.397461 0.46728,-0.15039 1.04199,-0.15039 0.53711,0 1.08496,0.134277 0.55322,0.128906 0.91846,0.316895 v 1.079589 h -0.0537 q -0.38672,-0.284668 -0.93995,-0.478027 -0.55322,-0.19873 -1.08496,-0.19873 -0.55322,0 -0.93457,0.214843 -0.38135,0.209473 -0.38135,0.628418 0,0.370606 0.23096,0.558594 0.22559,0.187988 0.73047,0.306152 0.2793,0.06445 0.62305,0.128907 0.34912,0.06445 0.58008,0.118164 0.70361,0.161133 1.08496,0.553222 0.38134,0.397461 0.38134,1.052735 z"/><path id="path43" d="m 133.98666,49.946289 q -0.28466,0.0752 -0.62304,0.123535 -0.33301,0.04834 -0.59619,0.04834 -0.91846,0 -1.39649,-0.494141 -0.47803,-0.49414 -0.47803,-1.584472 v -3.19043 h -0.68213 v -0.848633 h 0.68213 v -1.724121 h 1.00977 v 1.724121 h 2.08398 v 0.848633 h -2.08398 v 2.733887 q 0,0.472656 0.0215,0.741211 0.0215,0.263183 0.15039,0.49414 0.11817,0.214844 0.32227,0.316895 0.20947,0.09668 0.63379,0.09668 0.24707,0 0.51562,-0.06983 0.26856,-0.0752 0.38672,-0.123535 h 0.0537 z"/><path id="path45" d="m 140.23325,47.10498 h -4.42041 q 0,0.553223 0.1665,0.966797 0.1665,0.408203 0.45654,0.671387 0.2793,0.257813 0.66065,0.386719 0.38672,0.128906 0.84863,0.128906 0.6123,0 1.22998,-0.241699 0.62305,-0.24707 0.88623,-0.483399 h 0.0537 v 1.101075 q -0.51025,0.214843 -1.04199,0.359863 -0.53174,0.145019 -1.11719,0.145019 -1.49316,0 -2.33105,-0.805664 -0.83789,-0.811035 -0.83789,-2.298828 0,-1.471679 0.80029,-2.336426 0.80566,-0.864746 2.11621,-0.864746 1.21387,0 1.86914,0.708985 0.66065,0.708984 0.66065,2.01416 z m -0.98291,-0.773437 q -0.005,-0.794922 -0.40284,-1.229981 -0.39209,-0.435058 -1.19775,-0.435058 -0.81104,0 -1.29443,0.478027 -0.47803,0.478028 -0.54248,1.187012 z"/><path id="path47" d="m 145.50766,45.101562 h -0.0537 q -0.22559,-0.05371 -0.44043,-0.0752 -0.20947,-0.02685 -0.49951,-0.02685 -0.46729,0 -0.90235,0.209472 -0.43505,0.204102 -0.83789,0.531739 V 50 h -1.00976 v -5.999512 h 1.00976 v 0.886231 q 0.60157,-0.483399 1.05811,-0.682129 0.46191,-0.204102 0.93994,-0.204102 0.26318,0 0.38135,0.01611 0.11816,0.01074 0.35449,0.04834 z"/><path id="path49" d="m 155.01987,45.783691 h -0.66602 v -3.313964 h -0.10742 l -1.27295,2.422363 h -0.42432 l -1.28369,-2.459961 h -0.13427 v 3.351562 h -0.66065 v -3.78125 h 1.27832 l 1.02588,2.051758 1.02588,-2.051758 h 1.21924 z m -5.48926,-3.152832 h -1.22998 v 3.152832 h -0.68213 v -3.152832 h -1.22998 v -0.628418 h 3.14209 z"/><path id="path51" d="m 166.39047,44.419434 q 0,0.531738 -0.18799,0.988281 -0.18261,0.451172 -0.51562,0.78418 -0.41358,0.413574 -0.97754,0.623046 -0.56396,0.204102 -1.42334,0.204102 H 162.2225 V 50 h -1.06347 v -7.997559 h 2.16992 q 0.71973,0 1.21924,0.123536 0.49951,0.118164 0.88623,0.375976 0.45654,0.306152 0.70361,0.762695 0.25244,0.456543 0.25244,1.154786 z m -1.10644,0.02685 q 0,-0.413574 -0.14502,-0.719727 -0.14502,-0.306152 -0.44043,-0.499511 -0.25781,-0.166504 -0.59082,-0.236328 -0.32764,-0.0752 -0.83252,-0.0752 h -1.05274 v 3.195801 h 0.89698 q 0.64453,0 1.04736,-0.112793 0.40283,-0.118164 0.65527,-0.370605 0.25244,-0.257813 0.3545,-0.542481 0.10742,-0.284668 0.10742,-0.63916 z"/><path id="path53" d="m 168.73764,50 h -1.00977 v -8.357422 h 1.00977 z"/><path id="path55" d="m 175.72006,50 h -1.00976 v -0.666016 q -0.51026,0.402832 -0.97754,0.617676 -0.46729,0.214844 -1.03125,0.214844 -0.94531,0 -1.47168,-0.574707 -0.52637,-0.580078 -0.52637,-1.697266 v -3.894043 h 1.00977 v 3.416016 q 0,0.456543 0.043,0.78418 0.043,0.322265 0.18261,0.553222 0.14502,0.236328 0.37598,0.34375 0.23096,0.107422 0.67139,0.107422 0.39209,0 0.854,-0.204101 0.46728,-0.204102 0.87012,-0.520997 v -4.479492 h 1.00976 z"/><path id="path57" d="m 181.9935,48.270508 q 0,0.821777 -0.68213,1.348144 -0.67676,0.526368 -1.85303,0.526368 -0.66601,0 -1.22461,-0.155762 -0.55322,-0.161133 -0.9292,-0.349121 v -1.133301 h 0.0537 q 0.47802,0.359863 1.06347,0.574707 0.58545,0.209473 1.12256,0.209473 0.66602,0 1.04199,-0.214844 0.37598,-0.214844 0.37598,-0.676758 0,-0.354492 -0.2041,-0.537109 -0.2041,-0.182618 -0.78418,-0.311524 -0.21485,-0.04834 -0.56397,-0.112793 -0.34375,-0.06445 -0.62841,-0.139648 -0.78956,-0.209473 -1.12256,-0.612305 -0.32764,-0.408203 -0.32764,-0.999023 0,-0.370606 0.15039,-0.698242 0.15576,-0.327637 0.46729,-0.58545 0.30078,-0.252441 0.76269,-0.397461 0.46729,-0.15039 1.04199,-0.15039 0.53711,0 1.08496,0.134277 0.55323,0.128906 0.91846,0.316895 v 1.079589 h -0.0537 q -0.38672,-0.284668 -0.93994,-0.478027 -0.55322,-0.19873 -1.08496,-0.19873 -0.55322,0 -0.93457,0.214843 -0.38135,0.209473 -0.38135,0.628418 0,0.370606 0.23096,0.558594 0.22558,0.187988 0.73047,0.306152 0.27929,0.06445 0.62304,0.128907 0.34912,0.06445 0.58008,0.118164 0.70361,0.161133 1.08496,0.553222 0.38135,0.397461 0.38135,1.052735 z"/></g></svg>