<svg xmlns="http://www.w3.org/2000/svg" role="img" xmlns:xlink="http://www.w3.org/1999/xlink" viewBox="-4.53 -4.53 248.82 59.32"><title>CA File Master™ Plus (CLI 2019) logo</title><path d="M237.32 9.09c-1.06 0-1.93-.86-1.93-1.92s.87-1.93 1.93-1.93 1.93.87 1.93 1.93-.87 1.92-1.93 1.92m0-4.32c-1.32 0-2.4 1.08-2.4 2.4 0 1.32 1.08 2.4 2.4 2.4 1.32 0 2.4-1.08 2.4-2.4 0-1.32-1.08-2.4-2.4-2.4"/><path d="M237.48 7.07l-.51.01-.01-.62h.51c.19-.01.34.11.34.3.01.19-.14.31-.33.31m.83-.32c-.01-.42-.3-.72-.77-.72l-1.07.02.03 2.26h.49l-.01-.81h.35l.46.8.55-.01-.52-.86c.24-.06.49-.28.49-.68M51.8341 23.1805h-5.999V9.3465h5.835c1.574 0 2.557 1.016 2.557 2.393 0 1.377-.983 2.36-2.557 2.36H45v4h6.8341c1.836 0 2.819 1.18 2.819 2.556 0 1.574-1.049 2.525-2.819 2.525m3.376-7.245c2.066-.426 3.771-2.262 3.771-5.015 0-2.918-2.131-5.573-6.295-5.573h-11.506v21.865h11.867c4.163 0 6.359-2.623 6.359-5.901 0-2.754-1.868-5.015-4.196-5.376m17.8225-.5902H68v4.098h3.5576l4.294 7.769h5.343l-4.917-8.327c2.361-.557 4.786-2.622 4.786-6.49m0 0c0-4.065-2.786-7.048-7.343-7.048h-10.228v21.865h4.655V9.4453h4.885c1.869 0 3.278 1.114 3.278 2.95s-1.409 2.95-3.278 2.95m43.4206 4.0652l3.409-9.408 3.41 9.408zm.492-14.063l-8.458 21.865h5.31l1.377-3.704h9.376l1.344 3.704h5.311l-8.425-21.865zm26.9039 17.7671h-3.967v-13.67h3.967c4.491 0 6.851 2.983 6.851 6.852 0 3.704-2.524 6.818-6.851 6.818m0-17.767h-8.622v21.865h8.622c6.851 0 11.604-4.327 11.604-10.916s-4.753-10.949-11.604-10.949m82.1269-.0045l-5.734 9.27-5.734-9.27h-5.146v21.869h4.656v-14.293l5.012 7.622c.574.871 1.851.871 2.424 0l5.013-7.622v14.293h4.656V5.3431z"/><path id="a" d="M95.8253 23.3441c-3.871 0-7.008-3.138-7.008-7.008 0-3.871 3.137-7.009 7.008-7.009 3.87 0 7.008 3.138 7.008 7.009 0 3.87-3.138 7.008-7.008 7.008m0-18.536c-6.367 0-11.528 5.161-11.528 11.528 0 6.366 5.161 11.527 11.528 11.527 6.366 0 11.528-5.161 11.528-11.527 0-6.367-5.162-11.528-11.528-11.528"/><path d="M176.4035 19.7269c-1.195 2.156-3.492 3.617-6.132 3.617-3.87 0-7.008-3.138-7.008-7.008 0-3.871 3.138-7.008 7.008-7.008 2.618 0 4.897 1.438 6.1 3.565l3.27-3.269c-2.092-2.915-5.508-4.816-9.37-4.816-6.367 0-11.527 5.161-11.527 11.528 0 6.366 5.16 11.528 11.527 11.528 3.883 0 7.316-1.922 9.404-4.865z"/><use transform="translate(98.718)" xlink:href="#a"/><ellipse cx="16.52" cy="16.497" fill="#cc092f" rx="16.236" ry="16.235"/><path fill="#fff" d="M30.8253 20.8832c-1.857-.74-3.557-.492-5.261.541 0 0-.621.379-.807.496-.794.498-1.543.97-2.263.97-.687 0-1.363-.184-1.649-1.513-.446-2.073-1.534-7.167-2.009-9.69-.279-1.483-.432-2.282-.591-2.825-.28-.954-.792-1.473-1.519-1.556 0 0-.114-.016-.207-.016-.092 0-.218.018-.218.018-.72.086-1.229.605-1.507 1.554-.159.543-.312 1.342-.591 2.825-.475 2.523-1.563 7.617-2.009 9.69-.286 1.329-.962 1.513-1.649 1.513-.72 0-1.469-.472-2.263-.97-.186-.117-.808-.496-.808-.496-1.703-1.033-3.404-1.281-5.26-.541-.401.16-.79596.33918-1.17196.52018.257.806.57693 1.59925.94993 2.34425.411-.202.84203-.40243 1.28203-.53243.634-.187 1.284-.197 1.914.014.612.205 1.157.568 1.7.909 1.023.643 2.182 1.372 3.657 1.372 2.186 0 3.72-1.305 4.21-3.581.38-1.764 1.222-5.702 1.763-8.418 0 0 1.386 6.654 1.765 8.418.49 2.276 2.025 3.581 4.211 3.581 1.475 0 2.634-.729 3.657-1.372.543-.341 1.088-.704 1.7-.909.629-.211 1.28-.201 1.914-.014.44.13.87039.33065 1.28139.53265.374-.745.69309-1.53862.95009-2.34462-.376-.181-.77048-.36003-1.17148-.52003"/><path d="M73.62094 49.41992q-.2954.1289-.5371.2417-.23634.1128-.62305.23633-.32764.10205-.71436.17187-.38135.0752-.84326.0752-.87012 0-1.58447-.2417-.70899-.24707-1.23536-.76807-.51562-.51025-.80566-1.29443-.29004-.78955-.29004-1.83154 0-.98828.2793-1.7671.2793-.7788.80566-1.31591.51025-.521 1.22998-.79492.7251-.27393 1.60596-.27393.64453 0 1.28369.15576.64453.15576 1.42871.54785v1.26221h-.08057q-.66064-.55322-1.31055-.80566-.6499-.25244-1.3911-.25244-.60694 0-1.09571.19873-.4834.19336-.86475.60693-.3706.40283-.58008 1.0205-.2041.61231-.2041 1.41798 0 .84326.22559 1.4502.23096.60693.59082.98827.37598.39746.87549.59082.50488.188 1.06347.188.76807 0 1.43946-.2632.67138-.26318 1.25683-.78954h.0752zM81.44125 50h-1.1333l-.78418-2.229H76.0648L75.2806 50H74.201l2.91114-7.99756h1.41797zm-2.24511-3.14209l-1.40186-3.92627-1.40723 3.92627zm12.43408-3.91016h-4.04443v2.25586h3.4751v.94532h-3.4751V50H86.5223v-7.99756h5.1079zm2.21289.04834h-1.13867v-1.04736h1.13867zM93.77866 50h-1.00977v-5.99951h1.00977zm3.0293 0h-1.00977v-8.35742h1.00976zm7.03075-2.89502h-4.4204q0 .55322.1665.9668.1665.4082.45654.67138.2793.25782.66065.38672.38671.1289.84863.1289.6123 0 1.22998-.24169.62305-.24707.88623-.4834h.0537v1.10108q-.51025.21484-1.04199.35986t-1.11719.14502q-1.49316 0-2.33105-.80567-.8379-.81103-.8379-2.29882 0-1.47168.8003-2.33643.80566-.86475 2.11621-.86475 1.21387 0 1.86914.70899.66064.70898.66064 2.01416zm-.98291-.77344q-.005-.79492-.40283-1.22998-.39209-.43506-1.19775-.43506-.81104 0-1.29443.47803-.47803.47803-.54249 1.18701zM116.4393 50h-1.06348v-6.89111l-2.22363 4.68896h-.63379l-2.20752-4.68896V50h-.99365v-7.99756h1.4502l2.13232 4.45264 2.0625-4.45264h1.47705zm6.74072 0h-1.00439v-.63916q-.13428.09131-.36524.25781-.22558.16114-.44043.25782-.25244.12353-.58007.2041-.32764.08594-.76807.08594-.81104 0-1.375-.53711t-.56396-1.36963q0-.68213.29003-1.10108.29541-.42431.83789-.66601.54786-.2417 1.31592-.32764.76807-.08594 1.64893-.1289v-.15577q0-.34375-.12354-.56933-.11816-.22559-.34375-.3545-.21484-.12353-.51562-.1665-.30078-.04297-.62842-.04297-.39746 0-.88623.10742-.48877.10205-1.00977.30078h-.0537V44.1294q.29541-.08057.85401-.17725.55859-.09668 1.10107-.09668.63379 0 1.10108.10742.47265.10205.8164.3545.33838.24706.51563.63915.17724.3921.17724.97217zm-1.00439-1.47705v-1.67041q-.46192.02686-1.09033.08057-.62305.0537-.98828.15576-.43506.12354-.70362.38672-.26855.25781-.26855.71436 0 .51562.31152.7788.31152.25782.95068.25782.53174 0 .97217-.2041.44043-.20948.81641-.49952zm7.2456-.25244q0 .82177-.68212 1.34814-.67676.52637-1.85303.52637-.66602 0-1.22461-.15576-.55322-.16114-.9292-.34912v-1.1333h.0537q.47803.35986 1.06348.5747.58545.20948 1.12256.20948.66601 0 1.04199-.21485.37597-.21484.37597-.67676 0-.35449-.2041-.5371-.2041-.18262-.78418-.31153-.21484-.04834-.56396-.1128-.34375-.06444-.62842-.13964-.78955-.20947-1.12256-.6123-.32764-.4082-.32764-.99903 0-.3706.1504-.69824.15576-.32764.46728-.58545.30078-.25244.7627-.39746.46728-.1504 1.04199-.1504.53711 0 1.08496.13429.55322.1289.91846.3169v1.07958h-.0537q-.38672-.28467-.93995-.47803-.55322-.19873-1.08496-.19873-.55322 0-.93457.21485-.38135.20947-.38135.62841 0 .37061.23096.5586.22559.18799.73047.30615.2793.06445.62305.1289.34912.06446.58008.11817.70361.16113 1.08496.55322.38134.39746.38134 1.05274zm4.56543 1.67578q-.28466.0752-.62304.12353-.33301.04834-.59619.04834-.91846 0-1.39649-.49414-.47803-.49414-.47803-1.58447v-3.19043h-.68213v-.84863h.68213v-1.72412h1.00977v1.72412h2.08398v.84863h-2.08398v2.73389q0 .47265.0215.7412.0215.2632.15039.49415.11817.21484.32227.3169.20947.09667.63379.09667.24707 0 .51562-.06983.26856-.0752.38672-.12353h.0537zm6.24659-2.84131h-4.42041q0 .55322.1665.9668.1665.4082.45654.67138.2793.25782.66065.38672.38672.1289.84863.1289.6123 0 1.22998-.24169.62305-.24707.88623-.4834h.0537v1.10108q-.51025.21484-1.04199.35986t-1.11719.14502q-1.49316 0-2.33105-.80567-.83789-.81103-.83789-2.29882 0-1.47168.80029-2.33643.80566-.86475 2.11621-.86475 1.21387 0 1.86914.70899.66065.70898.66065 2.01416zm-.98291-.77344q-.005-.79492-.40284-1.22998-.39209-.43506-1.19775-.43506-.81104 0-1.29443.47803-.47803.47803-.54248 1.18701zm6.25732-1.22998h-.0537q-.22559-.0537-.44043-.0752-.20947-.02685-.49951-.02685-.46729 0-.90235.20947-.43505.2041-.83789.53174V50h-1.00976v-5.99951h1.00976v.88623q.60157-.4834 1.05811-.68213.46191-.2041.93994-.2041.26318 0 .38135.0161.11816.01075.35449.04835zm9.51221.68213h-.66602v-3.31396h-.10742l-1.27295 2.42236h-.42432l-1.28369-2.45996h-.13427v3.35156h-.66065v-3.78125h1.27832l1.02588 2.05176 1.02588-2.05176h1.21924zm-5.48926-3.15283h-1.22998v3.15283h-.68213v-3.15283h-1.22998v-.62842h3.14209zm16.85986 1.78857q0 .53174-.18799.98829-.18261.45117-.51562.78418-.41358.41357-.97754.62304-.56396.2041-1.42334.2041h-1.06348V50h-1.06347v-7.99756h2.16992q.71973 0 1.21924.12354.49951.11816.88623.37597.45654.30615.70361.7627.25244.45654.25244 1.15478zm-1.10644.02685q0-.41357-.14502-.71972-.14502-.30615-.44043-.49951-.25781-.1665-.59082-.23633-.32764-.0752-.83252-.0752h-1.05274v3.1958h.89698q.64453 0 1.04736-.1128.40283-.11816.65527-.3706.25244-.25781.3545-.54248.10742-.28467.10742-.63916zM168.73764 50h-1.00977v-8.35742h1.00977zm6.98242 0h-1.00976v-.66602q-.51026.40284-.97754.61768-.46729.21484-1.03125.21484-.94531 0-1.47168-.5747-.52637-.58008-.52637-1.69727V44.0005h1.00977v3.41601q0 .45655.043.78418.043.32227.18261.55323.14502.23632.37598.34375.23096.10742.67139.10742.39209 0 .854-.2041.46728-.2041.87012-.521v-4.4795h1.00976zm6.27344-1.7295q0 .82179-.68213 1.34815-.67676.52637-1.85303.52637-.66601 0-1.22461-.15576-.55322-.16114-.9292-.34912v-1.1333h.0537q.47802.35986 1.06347.5747.58545.20948 1.12256.20948.66602 0 1.04199-.21485.37598-.21484.37598-.67676 0-.35449-.2041-.5371-.2041-.18262-.78418-.31153-.21485-.04834-.56397-.1128-.34375-.06444-.62841-.13964-.78956-.20947-1.12256-.6123-.32764-.4082-.32764-.99903 0-.3706.15039-.69824.15576-.32764.46729-.58545.30078-.25244.76269-.39746.46729-.1504 1.04199-.1504.53711 0 1.08496.13429.55323.1289.91846.3169v1.07958h-.0537q-.38672-.28467-.93994-.47803-.55322-.19873-1.08496-.19873-.55322 0-.93457.21485-.38135.20947-.38135.62841 0 .37061.23096.5586.22558.18799.73047.30615.27929.06445.62304.1289.34912.06446.58008.11817.70361.16113 1.08496.55322.38135.39746.38135 1.05274z" text-anchor="middle"/></svg>