<svg xmlns="http://www.w3.org/2000/svg" role="img" viewBox="-1.49 -4.74 389.74 241.49"><title>CA IDMS REST API (API Mediation Layer ZOWE V1) logo</title><style>svg {enable-background:new 0 0 400 245}</style><style id="style2" type="text/css">.st2{fill:#cc092f}</style><g id="g38" transform="matrix(1.33333 0 0 -1.33333 0 489.6)"><path id="path4" d="M212.9 270.7l1.9 1.6c-1.1 1.3-2.7 1.9-4.4 1.9-2.2 0-4.1-1.3-4.1-3.7 0-4.4 6.3-3.6 6.3-5.8 0-.9-.7-1.4-1.8-1.4-1.3 0-2.2.8-2.9 1.8l-2-1.5c1.1-1.6 2.7-2.6 4.7-2.6 2.6 0 4.6 1.2 4.6 3.8 0 4.6-6.3 3.7-6.3 5.8 0 .8.5 1.2 1.7 1.2.9.3 1.7-.4 2.3-1.1m-1.1 24.7c0 2.3-1.5 3.9-3.7 3.9s-3.7-1.6-3.7-3.9 1.5-3.8 3.7-3.8c2.1 0 3.7 1.5 3.7 3.8m-.5 0c0-2.2-1.4-3.4-3.2-3.4-1.8 0-3.2 1.2-3.2 3.4s1.4 3.4 3.2 3.4c1.7 0 3.2-1.2 3.2-3.4m-1.5-1.9l-1.2 1.7c.5.2.9.6.9 1.2 0 .8-.6 1.2-1.5 1.2h-1.3v-4.2h.7v1.7h.4l1.3-1.8zm-1.8 2.3h-.5v1.3h.6c.5 0 .8-.2.8-.6-.1-.5-.4-.7-.9-.7m-3.7-27.3c0 3-1.8 5.8-5.1 5.8-3.4 0-5.4-2.5-5.4-6.6 0-4 2-6.6 5.3-6.6 2.4 0 4.1.8 5.3 2.6l-2.2 1.4c-.8-.9-1.4-1.5-2.8-1.5s-2.6 1-2.6 3.6h7.6zm-2.7.8h-4.8c0 1.7 1 2.8 2.4 2.8s2.3-1 2.4-2.8m-21.3 22.4h20.2c-1.1 3.5-1.4 7.1-1.4 10.8v37.4c0 9.1-1.7 14.2-6.6 18.6-4.6 4.2-12.2 6.6-22.4 6.6-8.8 0-16.4-1.9-22.2-5.5 4.5-3.8 7.6-8.8 9.1-14.8 1.9 3.1 5.8 4.4 10.7 4.4 8.1 0 10.5-5.7 10.6-10.5l.1-2.3c-22.5-1.1-43.8-5.3-43.3-25.9.3-14.4 13.4-20.3 22.3-20.3 10.4 0 16.3 2.8 22 9.9 0-2.9.4-6.1.9-8.4m-2 31.6c0-6-.1-9.3-2.8-13.4-2.4-3.7-6.2-6-10.5-6-5.8 0-10.6 2.6-10.6 9 0 9.3 13.6 12.6 24 13.2v-2.8zm-54.2 41.8c-22.7 0-36-16-36-38.1 0-21.2 12.9-36.7 34.7-36.7 5.6 0 11.8 1.2 17.2 4-4.1 3.5-7.1 8.6-7.4 15.7-1.9-1.8-4.6-2.8-7.8-2.8-10.5 0-13.4 7.9-13.4 21.4 0 13.3 3.2 20.5 13.4 20.5 6.4 0 10.9-3.4 10.9-9.9h19.8c-1.4 17.1-14.9 25.9-31.4 25.9m-37.5-86.9V274h-1.7v-2.4h1.7v-7.5c0-1.8.9-2.9 3.1-2.9.8 0 1.5.1 2.4.2v2.5c-.4-.1-.9-.2-1.4-.2-.7 0-1.1.2-1.1.9v7.1h2.5v2.4h-2.5v4.2h-3zm6.9-10.4c0-4 2-6.6 5.3-6.6 2.4 0 4.1.8 5.2 2.6l-2.2 1.4c-.7-.9-1.4-1.5-2.8-1.5s-2.6 1-2.6 3.6h7.6v1.2c0 3-1.8 5.8-5.1 5.8s-5.4-2.5-5.4-6.5m3 1.5c.1 1.7 1 2.8 2.4 2.8s2.4-1 2.4-2.8zm9.4-1.5c0-4 2-6.6 5.4-6.6 2.3 0 3.8.9 5 3.2l-2.3 1.3c-.6-1.1-1.3-2-2.6-2-1.8 0-2.6 1.3-2.6 4.1s.8 4.1 2.5 4.1c1.5 0 2-.8 2.5-1.9l2.5 1c-.7 2.1-2.6 3.4-4.9 3.4-3.5-.1-5.5-2.6-5.5-6.6m15.6 11.2h-3v-17.5h3v9.1c.5.6 1.5 1.3 2.8 1.3 1 0 1.5-.5 1.5-2.2v-8.2h3v8.6c0 2.6-1.2 4.2-3.7 4.2-1.5 0-2.7-.8-3.6-1.6zm13.1-4.9h-2.7v-12.6h3v9.1c.5.6 1.5 1.3 2.8 1.3 1 0 1.5-.5 1.5-2.2v-8.2h3v8.6c0 2.6-1.2 4.2-3.7 4.2-1.5 0-2.7-.8-3.9-1.6zm9.7-6.3c0-4 2-6.6 5.4-6.6 3.4 0 5.4 2.6 5.4 6.6 0 4-2 6.6-5.4 6.6-3.3-.1-5.4-2.6-5.4-6.6m3 0c0 2.8.8 4.1 2.5 4.1s2.5-1.3 2.5-4.1-.8-4.1-2.5-4.1c-1.7-.1-2.5 1.2-2.5 4.1m13.3 11.2h-3v-17.5h3v4.4zm2.4-11.2c0-4 2-6.6 5.4-6.6 3.4 0 5.4 2.6 5.4 6.6 0 4-2 6.6-5.4 6.6-3.3-.1-5.4-2.6-5.4-6.6m3 0c0 2.8.8 4.1 2.5 4.1s2.5-1.3 2.5-4.1-.8-4.1-2.5-4.1c-1.7-.1-2.5 1.2-2.5 4.1m8.8-8c0-2 2.2-3 5.6-3 4 0 5.8 1.9 5.8 3.7 0 5-8.2 2.3-8.2 4.3 0 .7 1 .8 2.3.8 3.1 0 4.7 1.7 4.7 4.1 0 1-.3 1.7-.7 2.2.5.3 1.2.3 1.9.3v2c-1.4.1-2.4-.3-2.9-1.1-.8.7-2 1.1-3.1 1.1-3.3 0-4.9-2.2-4.9-4.4 0-1.5.8-2.5 1.8-3.3-.6-.2-1.9-1.1-1.9-2.3 0-1.4 1.3-1.7 1.8-2v-.1c-1 .1-2.2-.7-2.2-2.3M178 270c0 1.2.9 2.1 2.2 2.1 1.1 0 2-.9 2-2.1 0-1.2-.9-2.1-2-2.1-1.3 0-2.2.9-2.2 2.1m-.5-9.8c0 .5.5 1.5 2.1 1.5 2.9 0 3.8-.9 3.8-1.5 0-.4-.7-1.4-2.6-1.4-2.4 0-3.3.5-3.3 1.4m13.9 19h-3v-2.8h3v1.6zm0-5.1h-3v-12.6h3v3.7z"/><path id="path6" fill="#cc092f" d="M71.2 241.6l-2.5 5.8-2.5-5.8zm-3.1 7.3h1.2l5-11.5H73l-1.3 3h-6l-1.3-3h-1.3z" class="st2"/><path id="path8" fill="#cc092f" d="M85.6 242.3h-3.1v-3.1h3.2c1.3 0 2.1.5 2.1 1.6.1.9-.7 1.5-2.2 1.5m1.7 3.3c0 .9-.7 1.5-1.9 1.5h-2.8v-3h2.6c1.2-.1 2.1.4 2.1 1.5zm-6.6 3.2h4.9c1.3 0 2.2-.4 2.9-1 .5-.5.7-1.1.7-1.9 0-1.4-.8-2.1-1.6-2.5 1.3-.5 2.2-1.2 2.2-2.8 0-2-1.6-3.1-4.1-3.1h-5.1z" class="st2"/><path id="path10" fill="#cc092f" d="M91.6 246h1.9v-2c.5 1.3 1.5 2.2 2.9 2.1V244h-.1c-1.7 0-2.8-1.1-2.8-3.4v-3.3h-1.9z" class="st2"/><path id="path12" fill="#cc092f" d="M104.1 241.6c0 1.5-1 2.8-2.5 2.8s-2.5-1.2-2.5-2.7c0-1.5 1-2.8 2.5-2.8s2.5 1.3 2.5 2.7m-6.9 0c0 2.5 1.9 4.5 4.4 4.5 2.5 0 4.4-2 4.4-4.5 0-2.4-1.9-4.5-4.4-4.5-2.6.1-4.4 2.1-4.4 4.5" class="st2"/><path id="path14" fill="#cc092f" d="M112.9 240.5v.6c-.5.2-1.1.3-1.9.3-1.2 0-1.9-.5-1.9-1.4 0-.8.7-1.3 1.6-1.3 1.2-.1 2.2.7 2.2 1.8m-5.7-.6c0 1.9 1.4 2.8 3.4 2.8.9 0 1.6-.1 2.2-.4v.2c0 1.2-.7 1.9-2.1 1.9-.9 0-1.6-.2-2.4-.5l-.5 1.5c.9.4 1.8.7 3.1.7 1.2 0 2.2-.3 2.7-1 .6-.6.9-1.5.9-2.7v-5.1h-1.8v1.1c-.6-.7-1.4-1.3-2.7-1.3-1.4.1-2.8 1-2.8 2.8" class="st2"/><path id="path16" fill="#cc092f" d="M123 241.7c0 1.7-1.1 2.8-2.4 2.8-1.3 0-2.4-1.1-2.4-2.8 0-1.7 1.1-2.8 2.4-2.8 1.3 0 2.4 1.1 2.4 2.8m-6.6 0c0 2.9 1.9 4.5 3.8 4.5 1.4 0 2.2-.7 2.8-1.5v4.6h1.9v-11.9H123v1.4c-.6-.9-1.5-1.6-2.8-1.6-1.9 0-3.8 1.6-3.8 4.5" class="st2"/><path id="path18" fill="#cc092f" d="M126.7 241.6c0 2.5 1.8 4.5 4.3 4.5 1.6 0 2.5-.6 3.3-1.5l-1.2-1.3c-.6.6-1.2 1.1-2.1 1.1-1.4 0-2.4-1.2-2.4-2.7 0-1.5 1-2.8 2.5-2.8.9 0 1.5.4 2.1 1.1l1.1-1.2c-.8-.9-1.8-1.6-3.4-1.6-2.4 0-4.2 2-4.2 4.4" class="st2"/><path id="path20" fill="#cc092f" d="M142.1 241.6c0 1.5-1 2.8-2.5 2.8s-2.5-1.2-2.5-2.7c0-1.5 1-2.8 2.5-2.8 1.6 0 2.5 1.3 2.5 2.7m-6.9 0c0 2.5 1.9 4.5 4.4 4.5 2.5 0 4.4-2 4.4-4.5 0-2.4-1.9-4.5-4.4-4.5-2.5.1-4.4 2.1-4.4 4.5" class="st2"/><path id="path22" fill="#cc092f" d="M145.8 246h1.9v-1.3c.5.8 1.3 1.5 2.5 1.5s2-.6 2.5-1.5c.7.9 1.5 1.5 2.8 1.5 1.8 0 2.9-1.2 2.9-3.3v-5.5h-1.9v4.9c0 1.4-.6 2.1-1.7 2.1-1 0-1.8-.8-1.8-2.1v-4.9h-1.9v4.9c0 1.3-.6 2.1-1.7 2.1-1 0-1.8-.8-1.8-2.1v-4.9h-1.9v8.6z" class="st2"/><path id="path24" fill="#cc092f" d="M164.9 243.1c0 3.3 2.3 5.9 5.5 5.9 2 0 3.2-.7 4.3-1.8l-.8-.9c-.9.9-2 1.6-3.4 1.6-2.4 0-4.2-2.1-4.2-4.7s1.8-4.7 4.2-4.7c1.5 0 2.5.6 3.5 1.6l.8-.8c-1.1-1.2-2.4-2-4.4-2-3.1-.1-5.5 2.5-5.5 5.8" class="st2"/><path id="path26" fill="#cc092f" d="M183.2 241.6c0 1.8-1.3 3.3-3 3.3-1.8 0-3-1.5-3-3.3 0-1.8 1.3-3.3 3-3.3 1.8 0 3 1.5 3 3.3m-7.2 0c0 2.4 1.8 4.4 4.2 4.4 2.4 0 4.2-2 4.2-4.4 0-2.4-1.8-4.4-4.2-4.4-2.4 0-4.2 2-4.2 4.4" class="st2"/><path id="path28" fill="#cc092f" d="M186.5 245.8h1.2v-1.4c.5.8 1.3 1.6 2.6 1.6s2.2-.7 2.6-1.7c.6.9 1.4 1.7 2.8 1.7 1.9 0 3-1.3 3-3.4v-5.2h-1.2v4.9c0 1.6-.8 2.5-2.1 2.5-1.2 0-2.2-.9-2.2-2.6v-4.9H192v5c0 1.6-.8 2.5-2.1 2.5s-2.3-1.1-2.3-2.7v-4.8h-1.2z" class="st2"/><path id="path30" fill="#cc092f" d="M208.1 241.6c0 2-1.3 3.3-2.9 3.3-1.5 0-2.9-1.3-2.9-3.2 0-2 1.4-3.3 2.9-3.3 1.6-.1 2.9 1.1 2.9 3.2m-7 4.2h1.2v-1.7c.7 1 1.6 1.9 3.1 1.9 1.9 0 3.9-1.6 3.9-4.4 0-2.8-1.9-4.4-3.9-4.4-1.5 0-2.5.8-3.1 1.8v-4.2h-1.2z" class="st2"/><path id="path32" fill="#cc092f" d="M216.7 240.5v.8c-.6.2-1.4.4-2.4.4-1.5 0-2.4-.7-2.4-1.7 0-1.1.9-1.7 2-1.7 1.6-.1 2.8.8 2.8 2.2m-5.9-.7c0 1.8 1.4 2.8 3.5 2.8 1 0 1.8-.1 2.5-.4v.3c0 1.5-.9 2.3-2.4 2.3-1 0-1.7-.3-2.5-.6l-.4 1c.9.4 1.8.7 2.9.7 1.1 0 2-.3 2.6-.9.5-.6.8-1.4.8-2.5v-5.2h-1.2v1.3c-.6-.8-1.5-1.5-2.9-1.5-1.4.1-2.9 1-2.9 2.7" class="st2"/><path id="path34" fill="#cc092f" d="M220.3 245.8h1.2v-1.5c.5.9 1.4 1.6 2.8 1.6 2 0 3.1-1.4 3.1-3.4v-5.2h-1.2v4.9c0 1.6-.8 2.5-2.2 2.5-1.4 0-2.4-1.1-2.4-2.6v-4.8h-1.2z" class="st2"/><path id="path36" fill="#cc092f" d="M235.6 245.8h1.3l-3.4-8.7c-.7-1.7-1.5-2.4-2.7-2.4-.7 0-1.2.1-1.7.4l.4 1c.4-.2.8-.3 1.3-.3.7 0 1.2.4 1.7 1.6l-3.7 8.4h1.3l2.9-7z" class="st2"/></g><g id="text377"><path id="path403" d="M20.36523 199.22852c-2.13541 0-4.08203.33202-5.83984.99609-1.7448.66406-3.23568 1.6276-4.47266 2.89062-1.27604 1.30209-2.2526 2.89714-2.92968 4.78516-.67709 1.88802-1.01563 4.02995-1.01563 6.42578 0 2.52604.35156 4.74609 1.05469 6.66016.70312 1.90104 1.67969 3.47005 2.92969 4.70703 1.27604 1.26302 2.77343 2.19401 4.49218 2.79297 1.73178.58593 3.65235.8789 5.76172.8789 1.1198 0 2.14193-.0911 3.0664-.27343.9375-.16928 1.8034-.37761 2.59767-.625.9375-.29948 1.6927-.58594 2.26562-.85938.58594-.27344 1.23698-.5664 1.95313-.8789v-4.53125h-.27344c-1.41927 1.27604-2.94271 2.23307-4.57031 2.87109-1.6276.63802-3.3724.95703-5.23438.95703-1.35417 0-2.64323-.22787-3.86719-.68359-1.21093-.46876-2.27213-1.1849-3.1836-2.14844-.87239-.92448-1.58853-2.1224-2.14843-3.59375-.54687-1.47135-.82031-3.22916-.82031-5.27344 0-1.95312.2474-3.67187.74219-5.15625.5078-1.49739 1.21093-2.73437 2.10937-3.71094.92448-1.0026 1.97266-1.73827 3.14453-2.20703 1.1849-.48176 2.51302-.72265 3.98438-.72265 1.79687 0 3.48307.30599 5.0586.91797 1.57551.61198 3.16405 1.58854 4.76562 2.92968h.29297v-4.58984c-1.90105-.95052-3.63282-1.61458-5.19532-1.99219-1.54948-.3776-3.10547-.5664-4.66797-.5664zm148.06641 0c-3.16406 0-5.77474.78125-7.83203 2.34375-2.05729 1.54948-3.08594 3.54166-3.08594 5.97656 0 2.12239.61849 3.84765 1.85547 5.17578 1.25 1.3151 3.16406 2.24609 5.74219 2.79297 1.27604.26041 2.48047.47526 3.61328.64453 1.14583.16927 2.20703.38411 3.18359.64453 1.28907.33854 2.2461.8138 2.8711 1.42578.63802.61198.95703 1.5625.95703 2.85156 0 1.4974-.67057 2.69532-2.01172 3.59375-1.32813.89844-3.1901 1.34766-5.58594 1.34766-1.6927 0-3.5026-.33203-5.42969-.99609-1.92708-.66407-3.6263-1.60807-5.09765-2.83203h-.27344v4.84375c1.73177.76823 3.43099 1.34765 5.09766 1.73828 1.67968.39062 3.56771.58593 5.66406.58593 1.95313 0 3.61979-.23437 5-.70312 1.39323-.46875 2.61068-1.11979 3.65234-1.95313.95052-.76822 1.6862-1.70572 2.20703-2.8125.53386-1.10676.80079-2.22656.80079-3.35937 0-2.08333-.54688-3.70443-1.64063-4.86328-1.09375-1.15886-2.72135-2.02474-4.88281-2.59766-1.06771-.27344-2.36979-.54037-3.90625-.80078-1.53646-.26042-2.72136-.48178-3.55469-.66406-1.57552-.36459-2.67578-.89193-3.30078-1.58203-.625-.69011-.9375-1.64063-.9375-2.85157 0-1.35416.625-2.46093 1.875-3.32031 1.26302-.85937 2.92969-1.28906 5-1.28906 1.88802 0 3.73047.3125 5.52734.9375 1.8099.61198 3.26824 1.38672 4.375 2.32422h.27344v-4.57031c-1.31511-.57292-2.82552-1.05469-4.53125-1.44532-1.70573-.39062-3.58073-.58593-5.625-.58593zm94.53125 0c-3.16406 0-5.77474.78125-7.83203 2.34375-2.05729 1.54948-3.08594 3.54166-3.08594 5.97656 0 2.12239.61849 3.84765 1.85547 5.17578 1.25 1.3151 3.16406 2.24609 5.74219 2.79297 1.27604.26041 2.48047.47526 3.61328.64453 1.14583.16927 2.20703.38411 3.18359.64453 1.28907.33854 2.2461.8138 2.8711 1.42578.63802.61198.95703 1.5625.95703 2.85156 0 1.4974-.67057 2.69532-2.01172 3.59375-1.32813.89844-3.1901 1.34766-5.58594 1.34766-1.6927 0-3.5026-.33203-5.42969-.99609-1.92708-.66407-3.6263-1.60807-5.09765-2.83203h-.27344v4.84375c1.73177.76823 3.43099 1.34765 5.09766 1.73828 1.67968.39062 3.56771.58593 5.66406.58593 1.95313 0 3.61979-.23437 5-.70312 1.39323-.46875 2.61068-1.11979 3.65234-1.95313.95052-.76822 1.6862-1.70572 2.20703-2.8125.53386-1.10676.80079-2.22656.80079-3.35937 0-2.08333-.54688-3.70443-1.64063-4.86328-1.09375-1.15886-2.72135-2.02474-4.88281-2.59766-1.06771-.27344-2.36979-.54037-3.90625-.80078-1.53646-.26042-2.72136-.48178-3.55469-.66406-1.57552-.36459-2.67578-.89193-3.30078-1.58203-.625-.69011-.9375-1.64063-.9375-2.85157 0-1.35416.625-2.46093 1.875-3.32031 1.26302-.85937 2.92969-1.28906 5-1.28906 1.88802 0 3.73047.3125 5.52734.9375 1.8099.61198 3.26824 1.38672 4.375 2.32422h.27344v-4.57031c-1.31511-.57292-2.82552-1.05469-4.53125-1.44532-1.70573-.39062-3.58073-.58593-5.625-.58593zm-220.03906.52734l-10.58594 29.08203h3.92578l2.85156-8.10547h12.57813l2.85156 8.10547h4.1211l-10.58594-29.08203zm32.98828 0v2.96875h3.8086v23.14453h-3.8086v2.96875h11.48437v-2.96875H83.5879v-23.14453h3.8086v-2.96875zm18.10547 0v29.08203h7.34375c2.66926 0 4.8177-.18229 6.44531-.54687 1.64063-.36458 3.125-.95703 4.45313-1.77735 1.91406-1.18489 3.44401-2.85156 4.58984-5 1.15885-2.14844 1.73828-4.54427 1.73828-7.1875 0-2.82552-.55338-5.26692-1.66016-7.32422-1.10676-2.05729-2.64974-3.70443-4.6289-4.9414-1.15886-.71615-2.57813-1.27604-4.25781-1.67969-1.66667-.41667-3.91927-.625-6.75782-.625zm30.85937 0v29.08203h3.61328V203.7793l8.02735 17.05078h2.30469l8.08593-17.05078v25.05859h3.86719v-29.08203h-5.37109l-7.5 16.19141-7.75391-16.19141zm75.15625 0v29.08203h3.86719v-11.5625h5.44922l9.72656 11.5625h5.01953l-10.9375-12.71484c1.84896-.71615 3.30079-1.77734 4.35547-3.1836 1.05469-1.41926 1.58203-3.17707 1.58203-5.27343 0-1.54948-.29948-2.82552-.89843-3.82813-.58594-1.01563-1.40626-1.85547-2.46094-2.51953-.9375-.58594-1.99219-.98958-3.16406-1.21094-1.17188-.23437-2.63672-.35156-4.39454-.35156zm27.8125 0v29.08203h19.16016v-3.4375h-15.29297v-10.80078h15.29297v-3.4375h-15.29297v-7.96875h15.29297v-3.4375zm48.75 0v3.4375h10.39063v25.64453h3.86719v-25.64453h10.39062v-3.4375zm49.84375 0l-10.58593 29.08203h3.92578l2.85156-8.10547h12.57812l2.85157 8.10547h4.12109l-10.58594-29.08203zm20.15625 0v29.08203h3.86719v-10.83984h3.86719c2.08333 0 3.80859-.2474 5.17578-.74219 1.36719-.50781 2.55208-1.26302 3.55469-2.26563.80728-.80728 1.43228-1.7578 1.875-2.85156.45572-1.10677.68359-2.30469.68359-3.59375 0-1.6927-.30599-3.09244-.91797-4.19922-.59896-1.10676-1.45183-2.03124-2.55859-2.77343-.9375-.625-2.01172-1.08074-3.22266-1.36719-1.21093-.29948-2.6888-.44922-4.43359-.44922zm22.91016 0v2.96875h3.80859v23.14453h-3.80859v2.96875h11.48437v-2.96875h-3.80859v-23.14453h3.80859v-2.96875zm-271.6211 3.32031h3.63282c1.79687 0 3.33984.13021 4.6289.39063 1.28907.24739 2.50651.69661 3.65235 1.34765 1.57552.89844 2.76041 2.12891 3.55469 3.69141.79426 1.5625 1.1914 3.48307 1.1914 5.76172 0 2.26562-.36458 4.15364-1.09375 5.66406-.71614 1.51041-1.79687 2.72786-3.24219 3.65234-1.15885.74219-2.43489 1.25-3.82812 1.52344-1.38021.27344-3.0013.41016-4.86328.41016h-3.63281zm106.01563 0h4.55078c1.04167 0 1.94661.0781 2.71485.23438.76822.14322 1.43229.40364 1.99218.78125.67709.4427 1.15886.98958 1.44532 1.64062.29947.63802.44921 1.3737.44921 2.20703 0 1.09376-.14323 1.9987-.42968 2.71485-.27344.70312-.70313 1.32812-1.28907 1.875-.63802.58593-1.41276.98958-2.32421 1.21093-.91146.20834-1.97917.3125-3.20313.3125h-3.90625zm146.5625 0h3.82813c1.22395 0 2.23307.0911 3.02734.27344.80729.16927 1.52344.45573 2.14844.85937.71614.46876 1.25 1.07422 1.60156 1.81641.35156.74219.52734 1.61458.52734 2.61719 0 .85937-.13021 1.63411-.39062 2.32422-.2474.6901-.67709 1.34765-1.28906 1.97265-.61198.61198-1.40625 1.0612-2.38282 1.34766-.97656.27343-2.24609.41016-3.80859.41016h-3.26172zm-305.0586.0586l5.09766 14.27734H40.28711zm283.51563 0l5.09766 14.27734h-10.21485z"/></g></svg>