<svg xmlns="http://www.w3.org/2000/svg" role="img" viewBox="1.29 -4.96 400.92 236.17"><title>CA MAT plug-in for Zowe CLI (CLI ZOWE V1) logo</title><style>svg {enable-background:new 0 0 400 245}</style><style id="style2" type="text/css">.st2{fill:#cc092f}</style><g id="g38" transform="matrix(1.33333 0 0 -1.33333 0 489.6)"><path id="path4" d="M212.9 270.7l1.9 1.6c-1.1 1.3-2.7 1.9-4.4 1.9-2.2 0-4.1-1.3-4.1-3.7 0-4.4 6.3-3.6 6.3-5.8 0-.9-.7-1.4-1.8-1.4-1.3 0-2.2.8-2.9 1.8l-2-1.5c1.1-1.6 2.7-2.6 4.7-2.6 2.6 0 4.6 1.2 4.6 3.8 0 4.6-6.3 3.7-6.3 5.8 0 .8.5 1.2 1.7 1.2.9.3 1.7-.4 2.3-1.1m-1.1 24.7c0 2.3-1.5 3.9-3.7 3.9s-3.7-1.6-3.7-3.9 1.5-3.8 3.7-3.8c2.1 0 3.7 1.5 3.7 3.8m-.5 0c0-2.2-1.4-3.4-3.2-3.4-1.8 0-3.2 1.2-3.2 3.4s1.4 3.4 3.2 3.4c1.7 0 3.2-1.2 3.2-3.4m-1.5-1.9l-1.2 1.7c.5.2.9.6.9 1.2 0 .8-.6 1.2-1.5 1.2h-1.3v-4.2h.7v1.7h.4l1.3-1.8zm-1.8 2.3h-.5v1.3h.6c.5 0 .8-.2.8-.6-.1-.5-.4-.7-.9-.7m-3.7-27.3c0 3-1.8 5.8-5.1 5.8-3.4 0-5.4-2.5-5.4-6.6 0-4 2-6.6 5.3-6.6 2.4 0 4.1.8 5.3 2.6l-2.2 1.4c-.8-.9-1.4-1.5-2.8-1.5s-2.6 1-2.6 3.6h7.6zm-2.7.8h-4.8c0 1.7 1 2.8 2.4 2.8s2.3-1 2.4-2.8m-21.3 22.4h20.2c-1.1 3.5-1.4 7.1-1.4 10.8v37.4c0 9.1-1.7 14.2-6.6 18.6-4.6 4.2-12.2 6.6-22.4 6.6-8.8 0-16.4-1.9-22.2-5.5 4.5-3.8 7.6-8.8 9.1-14.8 1.9 3.1 5.8 4.4 10.7 4.4 8.1 0 10.5-5.7 10.6-10.5l.1-2.3c-22.5-1.1-43.8-5.3-43.3-25.9.3-14.4 13.4-20.3 22.3-20.3 10.4 0 16.3 2.8 22 9.9 0-2.9.4-6.1.9-8.4m-2 31.6c0-6-.1-9.3-2.8-13.4-2.4-3.7-6.2-6-10.5-6-5.8 0-10.6 2.6-10.6 9 0 9.3 13.6 12.6 24 13.2v-2.8zm-54.2 41.8c-22.7 0-36-16-36-38.1 0-21.2 12.9-36.7 34.7-36.7 5.6 0 11.8 1.2 17.2 4-4.1 3.5-7.1 8.6-7.4 15.7-1.9-1.8-4.6-2.8-7.8-2.8-10.5 0-13.4 7.9-13.4 21.4 0 13.3 3.2 20.5 13.4 20.5 6.4 0 10.9-3.4 10.9-9.9h19.8c-1.4 17.1-14.9 25.9-31.4 25.9m-37.5-86.9V274h-1.7v-2.4h1.7v-7.5c0-1.8.9-2.9 3.1-2.9.8 0 1.5.1 2.4.2v2.5c-.4-.1-.9-.2-1.4-.2-.7 0-1.1.2-1.1.9v7.1h2.5v2.4h-2.5v4.2h-3zm6.9-10.4c0-4 2-6.6 5.3-6.6 2.4 0 4.1.8 5.2 2.6l-2.2 1.4c-.7-.9-1.4-1.5-2.8-1.5s-2.6 1-2.6 3.6h7.6v1.2c0 3-1.8 5.8-5.1 5.8s-5.4-2.5-5.4-6.5m3 1.5c.1 1.7 1 2.8 2.4 2.8s2.4-1 2.4-2.8zm9.4-1.5c0-4 2-6.6 5.4-6.6 2.3 0 3.8.9 5 3.2l-2.3 1.3c-.6-1.1-1.3-2-2.6-2-1.8 0-2.6 1.3-2.6 4.1s.8 4.1 2.5 4.1c1.5 0 2-.8 2.5-1.9l2.5 1c-.7 2.1-2.6 3.4-4.9 3.4-3.5-.1-5.5-2.6-5.5-6.6m15.6 11.2h-3v-17.5h3v9.1c.5.6 1.5 1.3 2.8 1.3 1 0 1.5-.5 1.5-2.2v-8.2h3v8.6c0 2.6-1.2 4.2-3.7 4.2-1.5 0-2.7-.8-3.6-1.6zm13.1-4.9h-2.7v-12.6h3v9.1c.5.6 1.5 1.3 2.8 1.3 1 0 1.5-.5 1.5-2.2v-8.2h3v8.6c0 2.6-1.2 4.2-3.7 4.2-1.5 0-2.7-.8-3.9-1.6zm9.7-6.3c0-4 2-6.6 5.4-6.6 3.4 0 5.4 2.6 5.4 6.6 0 4-2 6.6-5.4 6.6-3.3-.1-5.4-2.6-5.4-6.6m3 0c0 2.8.8 4.1 2.5 4.1s2.5-1.3 2.5-4.1-.8-4.1-2.5-4.1c-1.7-.1-2.5 1.2-2.5 4.1m13.3 11.2h-3v-17.5h3v4.4zm2.4-11.2c0-4 2-6.6 5.4-6.6 3.4 0 5.4 2.6 5.4 6.6 0 4-2 6.6-5.4 6.6-3.3-.1-5.4-2.6-5.4-6.6m3 0c0 2.8.8 4.1 2.5 4.1s2.5-1.3 2.5-4.1-.8-4.1-2.5-4.1c-1.7-.1-2.5 1.2-2.5 4.1m8.8-8c0-2 2.2-3 5.6-3 4 0 5.8 1.9 5.8 3.7 0 5-8.2 2.3-8.2 4.3 0 .7 1 .8 2.3.8 3.1 0 4.7 1.7 4.7 4.1 0 1-.3 1.7-.7 2.2.5.3 1.2.3 1.9.3v2c-1.4.1-2.4-.3-2.9-1.1-.8.7-2 1.1-3.1 1.1-3.3 0-4.9-2.2-4.9-4.4 0-1.5.8-2.5 1.8-3.3-.6-.2-1.9-1.1-1.9-2.3 0-1.4 1.3-1.7 1.8-2v-.1c-1 .1-2.2-.7-2.2-2.3M178 270c0 1.2.9 2.1 2.2 2.1 1.1 0 2-.9 2-2.1 0-1.2-.9-2.1-2-2.1-1.3 0-2.2.9-2.2 2.1m-.5-9.8c0 .5.5 1.5 2.1 1.5 2.9 0 3.8-.9 3.8-1.5 0-.4-.7-1.4-2.6-1.4-2.4 0-3.3.5-3.3 1.4m13.9 19h-3v-2.8h3v1.6zm0-5.1h-3v-12.6h3v3.7z"/><path id="path6" fill="#cc092f" d="M71.2 241.6l-2.5 5.8-2.5-5.8zm-3.1 7.3h1.2l5-11.5H73l-1.3 3h-6l-1.3-3h-1.3z" class="st2"/><path id="path8" fill="#cc092f" d="M85.6 242.3h-3.1v-3.1h3.2c1.3 0 2.1.5 2.1 1.6.1.9-.7 1.5-2.2 1.5m1.7 3.3c0 .9-.7 1.5-1.9 1.5h-2.8v-3h2.6c1.2-.1 2.1.4 2.1 1.5zm-6.6 3.2h4.9c1.3 0 2.2-.4 2.9-1 .5-.5.7-1.1.7-1.9 0-1.4-.8-2.1-1.6-2.5 1.3-.5 2.2-1.2 2.2-2.8 0-2-1.6-3.1-4.1-3.1h-5.1z" class="st2"/><path id="path10" fill="#cc092f" d="M91.6 246h1.9v-2c.5 1.3 1.5 2.2 2.9 2.1V244h-.1c-1.7 0-2.8-1.1-2.8-3.4v-3.3h-1.9z" class="st2"/><path id="path12" fill="#cc092f" d="M104.1 241.6c0 1.5-1 2.8-2.5 2.8s-2.5-1.2-2.5-2.7c0-1.5 1-2.8 2.5-2.8s2.5 1.3 2.5 2.7m-6.9 0c0 2.5 1.9 4.5 4.4 4.5 2.5 0 4.4-2 4.4-4.5 0-2.4-1.9-4.5-4.4-4.5-2.6.1-4.4 2.1-4.4 4.5" class="st2"/><path id="path14" fill="#cc092f" d="M112.9 240.5v.6c-.5.2-1.1.3-1.9.3-1.2 0-1.9-.5-1.9-1.4 0-.8.7-1.3 1.6-1.3 1.2-.1 2.2.7 2.2 1.8m-5.7-.6c0 1.9 1.4 2.8 3.4 2.8.9 0 1.6-.1 2.2-.4v.2c0 1.2-.7 1.9-2.1 1.9-.9 0-1.6-.2-2.4-.5l-.5 1.5c.9.4 1.8.7 3.1.7 1.2 0 2.2-.3 2.7-1 .6-.6.9-1.5.9-2.7v-5.1h-1.8v1.1c-.6-.7-1.4-1.3-2.7-1.3-1.4.1-2.8 1-2.8 2.8" class="st2"/><path id="path16" fill="#cc092f" d="M123 241.7c0 1.7-1.1 2.8-2.4 2.8-1.3 0-2.4-1.1-2.4-2.8 0-1.7 1.1-2.8 2.4-2.8 1.3 0 2.4 1.1 2.4 2.8m-6.6 0c0 2.9 1.9 4.5 3.8 4.5 1.4 0 2.2-.7 2.8-1.5v4.6h1.9v-11.9H123v1.4c-.6-.9-1.5-1.6-2.8-1.6-1.9 0-3.8 1.6-3.8 4.5" class="st2"/><path id="path18" fill="#cc092f" d="M126.7 241.6c0 2.5 1.8 4.5 4.3 4.5 1.6 0 2.5-.6 3.3-1.5l-1.2-1.3c-.6.6-1.2 1.1-2.1 1.1-1.4 0-2.4-1.2-2.4-2.7 0-1.5 1-2.8 2.5-2.8.9 0 1.5.4 2.1 1.1l1.1-1.2c-.8-.9-1.8-1.6-3.4-1.6-2.4 0-4.2 2-4.2 4.4" class="st2"/><path id="path20" fill="#cc092f" d="M142.1 241.6c0 1.5-1 2.8-2.5 2.8s-2.5-1.2-2.5-2.7c0-1.5 1-2.8 2.5-2.8 1.6 0 2.5 1.3 2.5 2.7m-6.9 0c0 2.5 1.9 4.5 4.4 4.5 2.5 0 4.4-2 4.4-4.5 0-2.4-1.9-4.5-4.4-4.5-2.5.1-4.4 2.1-4.4 4.5" class="st2"/><path id="path22" fill="#cc092f" d="M145.8 246h1.9v-1.3c.5.8 1.3 1.5 2.5 1.5s2-.6 2.5-1.5c.7.9 1.5 1.5 2.8 1.5 1.8 0 2.9-1.2 2.9-3.3v-5.5h-1.9v4.9c0 1.4-.6 2.1-1.7 2.1-1 0-1.8-.8-1.8-2.1v-4.9h-1.9v4.9c0 1.3-.6 2.1-1.7 2.1-1 0-1.8-.8-1.8-2.1v-4.9h-1.9v8.6z" class="st2"/><path id="path24" fill="#cc092f" d="M164.9 243.1c0 3.3 2.3 5.9 5.5 5.9 2 0 3.2-.7 4.3-1.8l-.8-.9c-.9.9-2 1.6-3.4 1.6-2.4 0-4.2-2.1-4.2-4.7s1.8-4.7 4.2-4.7c1.5 0 2.5.6 3.5 1.6l.8-.8c-1.1-1.2-2.4-2-4.4-2-3.1-.1-5.5 2.5-5.5 5.8" class="st2"/><path id="path26" fill="#cc092f" d="M183.2 241.6c0 1.8-1.3 3.3-3 3.3-1.8 0-3-1.5-3-3.3 0-1.8 1.3-3.3 3-3.3 1.8 0 3 1.5 3 3.3m-7.2 0c0 2.4 1.8 4.4 4.2 4.4 2.4 0 4.2-2 4.2-4.4 0-2.4-1.8-4.4-4.2-4.4-2.4 0-4.2 2-4.2 4.4" class="st2"/><path id="path28" fill="#cc092f" d="M186.5 245.8h1.2v-1.4c.5.8 1.3 1.6 2.6 1.6s2.2-.7 2.6-1.7c.6.9 1.4 1.7 2.8 1.7 1.9 0 3-1.3 3-3.4v-5.2h-1.2v4.9c0 1.6-.8 2.5-2.1 2.5-1.2 0-2.2-.9-2.2-2.6v-4.9H192v5c0 1.6-.8 2.5-2.1 2.5s-2.3-1.1-2.3-2.7v-4.8h-1.2z" class="st2"/><path id="path30" fill="#cc092f" d="M208.1 241.6c0 2-1.3 3.3-2.9 3.3-1.5 0-2.9-1.3-2.9-3.2 0-2 1.4-3.3 2.9-3.3 1.6-.1 2.9 1.1 2.9 3.2m-7 4.2h1.2v-1.7c.7 1 1.6 1.9 3.1 1.9 1.9 0 3.9-1.6 3.9-4.4 0-2.8-1.9-4.4-3.9-4.4-1.5 0-2.5.8-3.1 1.8v-4.2h-1.2z" class="st2"/><path id="path32" fill="#cc092f" d="M216.7 240.5v.8c-.6.2-1.4.4-2.4.4-1.5 0-2.4-.7-2.4-1.7 0-1.1.9-1.7 2-1.7 1.6-.1 2.8.8 2.8 2.2m-5.9-.7c0 1.8 1.4 2.8 3.5 2.8 1 0 1.8-.1 2.5-.4v.3c0 1.5-.9 2.3-2.4 2.3-1 0-1.7-.3-2.5-.6l-.4 1c.9.4 1.8.7 2.9.7 1.1 0 2-.3 2.6-.9.5-.6.8-1.4.8-2.5v-5.2h-1.2v1.3c-.6-.8-1.5-1.5-2.9-1.5-1.4.1-2.9 1-2.9 2.7" class="st2"/><path id="path34" fill="#cc092f" d="M220.3 245.8h1.2v-1.5c.5.9 1.4 1.6 2.8 1.6 2 0 3.1-1.4 3.1-3.4v-5.2h-1.2v4.9c0 1.6-.8 2.5-2.2 2.5-1.4 0-2.4-1.1-2.4-2.6v-4.8h-1.2z" class="st2"/><path id="path36" fill="#cc092f" d="M235.6 245.8h1.3l-3.4-8.7c-.7-1.7-1.5-2.4-2.7-2.4-.7 0-1.2.1-1.7.4l.4 1c.4-.2.8-.3 1.3-.3.7 0 1.2.4 1.7 1.6l-3.7 8.4h1.3l2.9-7z" class="st2"/></g><g id="text97"><path id="path141" d="M231.26562 197.82617c-1.62326 0-2.86328.46376-3.72265 1.39258-.85938.92014-1.28906 2.24522-1.28906 3.97266v.48047h-1.6543v2.05859h1.6543v12.48633h2.44726v-12.48633h4.33594v-2.05859h-4.41406v-.49415c0-1.21528.23438-2.05359.70312-2.51367.47744-.46874 1.24067-.70312 2.29102-.70312.32986 0 .71246.044 1.14648.13086.43403.0781.78559.15625 1.05469.23437h.13086v-2.24023c-.36459-.0695-.76823-.12958-1.21094-.18164-.43403-.0521-.92578-.0781-1.47266-.0781zm-91.67968.13086v20.25977h2.44922v-20.25977zm-120.85938.51953c-1.42361 0-2.7207.22136-3.89258.66406-1.1632.44272-2.15776 1.08573-2.98242 1.92774-.8507.86806-1.50173 1.93077-1.95312 3.18945-.4514 1.25868-.67578 2.68793-.67578 4.28516 0 1.68403.23437 3.16341.70312 4.43945.46875 1.26736 1.1198 2.31402 1.95313 3.13867.8507.84202 1.8483 1.46203 2.99414 1.86133 1.15451.39063 2.43554.58594 3.8418.58594.74652 0 1.42664-.0601 2.04296-.18164.625-.11285 1.20291-.25304 1.73242-.41797.625-.19965 1.12782-.38998 1.50977-.57227.39062-.18229.8253-.3776 1.30273-.58593v-3.02149h-.18164c-.94618.8507-1.9618 1.48871-3.04687 1.91406-1.08507.42535-2.24891.63868-3.49024.63868-.90277 0-1.76215-.15126-2.57812-.45508-.8073-.3125-1.5154-.79123-2.12305-1.4336-.5816-.61631-1.05837-1.41363-1.43164-2.39453-.36458-.9809-.54687-2.15277-.54687-3.51562 0-1.30209.16428-2.44791.49414-3.4375.33854-.99826.80729-1.82356 1.40625-2.47461.61632-.6684 1.3164-1.1582 2.09765-1.4707.78993-.32119 1.67535-.48243 2.65625-.48243 1.19792 0 2.32075.20335 3.3711.61133 1.05034.40799 2.11002 1.05903 3.17773 1.95313h.19531v-3.0586c-1.26736-.63368-2.42122-1.07639-3.46289-1.32812-1.03298-.25174-2.07161-.37891-3.11328-.37891zm343.90821 0c-1.42362 0-2.72266.22136-3.89454.66406-1.1632.44272-2.15776 1.08573-2.98242 1.92774-.85069.86806-1.50173 1.93077-1.95312 3.18945-.45139 1.25868-.67578 2.68793-.67578 4.28516 0 1.68403.23437 3.16341.70312 4.43945.46875 1.26736 1.11979 2.31402 1.95313 3.13867.8507.84202 1.8483 1.46203 2.99414 1.86133 1.15451.39063 2.43554.58594 3.84179.58594.74653 0 1.42861-.0601 2.04493-.18164.625-.11285 1.20094-.25304 1.73046-.41797.625-.19965 1.12978-.38998 1.51172-.57227.39063-.18229.82335-.3776 1.30078-.58593v-3.02149h-.18164c-.94618.8507-1.9618 1.48871-3.04687 1.91406-1.08507.42535-2.24892.63868-3.49024.63868-.90278 0-1.76215-.15126-2.57812-.45508-.80729-.3125-1.51541-.79123-2.12305-1.4336-.58159-.61631-1.05837-1.41363-1.43164-2.39453-.36458-.9809-.54687-2.15277-.54687-3.51562 0-1.30209.16427-2.44791.49414-3.4375.33854-.99826.80729-1.82356 1.40625-2.47461.61632-.6684 1.3164-1.1582 2.09765-1.4707.78993-.32119 1.67535-.48243 2.65625-.48243 1.19792 0 2.3227.20335 3.37305.61133 1.05035.40799 2.10807 1.05903 3.17578 1.95313h.19531v-3.0586c-1.26736-.63368-2.42122-1.07639-3.46289-1.32812-1.03298-.25174-2.06966-.37891-3.11132-.37891zm-170.23633.22266v2.53906h2.76172v-2.53906zm-158.63281.1289l-7.05665 19.38868h2.6172l1.90038-5.4043h8.38672l1.9004 5.4043h2.74804l-7.0586-19.38868zm22.8125 0v19.38868h2.41015v-16.70508l5.35156 11.36719H65.875l5.39063-11.36719v16.70508h2.57812v-19.38868h-3.58008l-5 10.79493-5.16992-10.79493zm27.29296 0L76.8125 218.2168h2.61719l1.90234-5.4043h8.38477l1.90039 5.4043h2.74804l-7.05664-19.38868zm10.83204 0v2.29297h6.92773v17.09571h2.57812v-17.09571h6.92774v-2.29297zm177.44921 0v2.29297h11.44532l-11.88868 14.69922v2.39649h15.13086v-2.29102h-12.29296l12.00585-14.76562v-2.33204zm100.72852 0v19.38868h12.26562v-2.29102h-9.6875v-17.09766zm14.02344 0v1.98047h2.53906v15.42969h-2.53906v1.97852h7.65625v-1.97852h-2.53907v-15.42969h2.53907v-1.98047zm-351.48438 2.25391l3.39844 9.51758H32.0078zm50.10352 0l3.39843 9.51758h-6.80859zm44.66211 2.1875c-.92014 0-1.78755.18533-2.60352.55859-.80729.36459-1.53646.82032-2.1875 1.36719v-1.52343h-2.44922v19.91015h2.44922v-6.09375c.63368.34723 1.25369.60265 1.86133.76758.61632.16493 1.30143.24805 2.05664.24805.86806 0 1.68836-.17426 2.46094-.52149.78124-.3559 1.45833-.85569 2.03125-1.49804.61632-.67709 1.09505-1.50043 1.43359-2.47266.33854-.9809.50781-2.06163.50781-3.24219 0-2.35243-.49175-4.18836-1.47265-5.50781-.97223-1.32813-2.33442-1.99219-4.08789-1.99219zm39.02343 0c-.79861 0-1.60091.17231-2.4082.51953-.80729.33854-1.49435.81728-2.05859 1.4336-.60764.65972-1.08941 1.44401-1.44531 2.35546-.34723.90278-.51954 1.98047-.51954 3.23047 0 2.28299.50781 4.05382 1.52344 5.3125 1.02431 1.25001 2.40451 1.875 4.14063 1.875 1.04166 0 1.89604-.14322 2.56445-.42968.67709-.29514 1.3852-.73785 2.12305-1.32813v1.32813c0 .59027-.0651 1.12413-.19532 1.60156-.13021.47743-.34852.88411-.65234 1.22265-.30382.35591-.72852.63434-1.27539.83399-.54687.19965-1.23697.29883-2.07031.29883-.86806 0-1.73546-.11719-2.60352-.35156-.86805-.2257-1.50304-.41602-1.90234-.57227h-.12891v2.5a16.76385 16.76385 0 0 0 2.16016.45508c.73785.11284 1.49306.16992 2.26562.16992 2.3264 0 4.05013-.57791 5.16992-1.73242 1.1198-1.15452 1.67969-2.96441 1.67969-5.42969v-12.89062h-2.29101l-.15625.625c-.63368-.34723-1.23763-.60265-1.81055-.76758-.56423-.17362-1.26736-.25977-2.10938-.25977zm37.99414 0c-.85937 0-1.69574.1773-2.51171.5332-.81598.3559-1.6072.85069-2.3711 1.48438v-1.61523h-2.44726v14.54492h2.44726v-10.85938c.66841-.51215 1.36849-.93381 2.09766-1.26367.72917-.32986 1.4273-.49414 2.0957-.49414.65104 0 1.17991.0911 1.58789.27344.40799.17361.72049.44205.9375.80664.20834.32986.35156.79058.42969 1.38086.0781.58159.11719 1.20659.11719 1.875v8.28125h2.44922v-9.43946c0-1.77951-.41363-3.14366-1.23828-4.08984-.82466-.94619-2.02257-1.41797-3.59376-1.41797zm33.98438 0c-2.05729 0-3.69292.6901-4.9082 2.07031-1.2066 1.37153-1.81055 3.24153-1.81055 5.61133 0 2.3698.60395 4.2398 1.81055 5.61133 1.21528 1.37153 2.85091 2.05859 4.9082 2.05859 2.03993 0 3.66753-.68706 4.88281-2.05859 1.21528-1.37153 1.82422-3.24153 1.82422-5.61133 0-2.3698-.60894-4.2398-1.82422-5.61133-1.21528-1.38021-2.84288-2.07031-4.88281-2.07031zm55.26172 0c-2.05729 0-3.69488.6901-4.91016 2.07031-1.2066 1.37153-1.80859 3.24153-1.80859 5.61133 0 2.3698.60199 4.2398 1.80859 5.61133 1.21528 1.37153 2.85287 2.05859 4.91016 2.05859 2.03993 0 3.66753-.68706 4.88281-2.05859 1.21528-1.37153 1.82227-3.24153 1.82227-5.61133 0-2.3698-.60699-4.2398-1.82227-5.61133-1.21528-1.38021-2.84288-2.07031-4.88281-2.07031zm38.37109 0c-2.11806 0-3.82682.69813-5.1289 2.0957-1.29341 1.39758-1.94141 3.28559-1.94141 5.66407 0 2.40452.67708 4.2615 2.03125 5.57226 1.35417 1.30209 3.23914 1.95313 5.65234 1.95313.94618 0 1.84766-.11719 2.70703-.35157.85938-.23437 1.7027-.52386 2.52735-.87109v-2.66992h-.13086c-.42535.38194-1.14149.77257-2.14844 1.17187-.99826.39063-1.99283.58594-2.98242.58594-.74653 0-1.43164-.10416-2.05664-.3125-.61632-.20833-1.15018-.52083-1.60156-.9375-.46876-.42534-.83832-.96722-1.10743-1.62695-.26909-.6684-.40234-1.44965-.40234-2.34375h10.71484v-1.32813c.00001-2.10937-.53384-3.73698-1.60156-4.88281-1.05902-1.14584-2.56944-1.71875-4.53125-1.71875zm-188.01953.40235v9.4414c0 1.80555.4247 3.17578 1.27539 4.11328.8507.92883 2.04058 1.39453 3.56836 1.39453.91146 0 1.74479-.17425 2.5-.52148.75521-.34722 1.54449-.847 2.36914-1.49805v1.61524h2.44727v-14.54492h-2.44727v10.85937c-.65104.51215-1.35416.93381-2.10937 1.26367-.74653.32986-1.43664.49414-2.07032.49414-.7118 0-1.25368-.0862-1.62695-.25976-.37327-.17362-.67773-.45204-.91211-.83399-.22569-.37326-.37391-.819-.44336-1.33984-.0694-.52951-.10351-1.1645-.10351-1.90235v-8.28124zm45.75391 0v14.54492h2.44922v-14.54492zm59.14062 0v14.54492h2.44922v-10.32618c.65104-.52952 1.32812-.9592 2.03125-1.28906.70313-.33854 1.43229-.50781 2.1875-.50781.46875 0 .8724.023 1.21094.0664.34722.0347.70182.0948 1.0664.18164h.13086v-2.51368c-.38194-.0608-.6684-.0999-.85937-.11718-.19097-.0261-.49848-.0391-.92383-.0391-.77257-.00001-1.53276.16623-2.2793.49609-.73784.32118-1.59223.87109-2.56445 1.65234v-2.14843zm53.97266 0l3.82812 14.54492h2.25196l3.71093-11.21094 3.73633 11.21094h2.26563l3.78906-14.54492h-2.46094l-2.52539 11.26367-3.72461-11.26367h-2.01758l-3.63281 11.26367-2.66992-11.26367zm29.02344 1.61523c1.30208 0 2.26866.35157 2.90234 1.05469.64237.70312.9679 1.69769.97656 2.98242h-8.33203c.10417-1.14583.54189-2.10633 1.31445-2.87891.78126-.77256 1.82791-1.1582 3.13868-1.1582zm-93.50391.0918c1.31077 0 2.33637.45876 3.07422 1.3789.73785.91146 1.10547 2.30968 1.10547 4.19336 0 1.84028-.37262 3.22852-1.11914 4.16602-.73785.92882-1.75846 1.39453-3.06055 1.39453-1.31945 0-2.34809-.46875-3.08594-1.40625-.73784-.94619-1.10547-2.33138-1.10547-4.1543 0-1.88368.36459-3.2819 1.09375-4.19336.73785-.92014 1.76953-1.3789 3.09766-1.3789zm55.26172 0c1.31077 0 2.33442.45876 3.07226 1.3789.73785.91146 1.10743 2.30968 1.10743 4.19336 0 1.84028-.37457 3.22852-1.1211 4.16602-.73784.92882-1.7565 1.39453-3.05859 1.39453-1.31945 0-2.34809-.46875-3.08594-1.40625-.73785-.94619-1.10742-2.33138-1.10742-4.1543 0-1.88368.36458-3.2819 1.09375-4.19336.73785-.92014 1.77148-1.3789 3.09961-1.3789zm-126.81055.0898c.55556 0 1.11046.0651 1.66602.19531.56423.12153 1.17317.32986 1.82422.625v7.92969c-.59896.46007-1.25999.82964-1.98047 1.10742-.71181.2691-1.42296.4043-2.13477.4043-1.32812 0-2.27864-.42165-2.85156-1.26367-.57291-.84202-.85938-2.07899-.85938-3.71094 0-1.71875.38564-3.02887 1.15821-3.93164.77257-.90278 1.83225-1.35547 3.17773-1.35547zm-40.07812.13086c1.24132 0 2.1608.43468 2.75976 1.30273.59896.86806.89844 2.17817.89844 3.93164 0 1.80556-.38064 3.16775-1.14453 4.0879-.76389.92014-1.82856 1.38085-3.19141 1.38085-.63368 0-1.20161-.0571-1.70508-.16992-.49479-.11284-1.08875-.32422-1.7832-.63672v-8.24218c.65104-.49479 1.33116-.8954 2.04297-1.19922s1.41992-.45508 2.12305-.45508zm50.41601 2.95508v2.35742h8.125v-2.35742z"/></g></svg>