<svg xmlns="http://www.w3.org/2000/svg" role="img" xmlns:xlink="http://www.w3.org/1999/xlink" viewBox="-4.53 -4.53 248.82 59.32"><title>CA MAT Detect (CLI ZOWE V1) logo</title><path d="M237.32 9.09c-1.06 0-1.93-.86-1.93-1.92s.87-1.93 1.93-1.93 1.93.87 1.93 1.93-.87 1.92-1.93 1.92m0-4.32c-1.32 0-2.4 1.08-2.4 2.4 0 1.32 1.08 2.4 2.4 2.4 1.32 0 2.4-1.08 2.4-2.4 0-1.32-1.08-2.4-2.4-2.4"/><path d="M237.48 7.07l-.51.01-.01-.62h.51c.19-.01.34.11.34.3.01.19-.14.31-.33.31m.83-.32c-.01-.42-.3-.72-.77-.72l-1.07.02.03 2.26h.49l-.01-.81h.35l.46.8.55-.01-.52-.86c.24-.06.49-.28.49-.68M51.8341 23.1805h-5.999V9.3465h5.835c1.574 0 2.557 1.016 2.557 2.393 0 1.377-.983 2.36-2.557 2.36H45v4h6.8341c1.836 0 2.819 1.18 2.819 2.556 0 1.574-1.049 2.525-2.819 2.525m3.376-7.245c2.066-.426 3.771-2.262 3.771-5.015 0-2.918-2.131-5.573-6.295-5.573h-11.506v21.865h11.867c4.163 0 6.359-2.623 6.359-5.901 0-2.754-1.868-5.015-4.196-5.376m17.8225-.5902H68v4.098h3.5576l4.294 7.769h5.343l-4.917-8.327c2.361-.557 4.786-2.622 4.786-6.49m0 0c0-4.065-2.786-7.048-7.343-7.048h-10.228v21.865h4.655V9.4453h4.885c1.869 0 3.278 1.114 3.278 2.95s-1.409 2.95-3.278 2.95m43.4206 4.0652l3.409-9.408 3.41 9.408zm.492-14.063l-8.458 21.865h5.31l1.377-3.704h9.376l1.344 3.704h5.311l-8.425-21.865zm26.9039 17.7671h-3.967v-13.67h3.967c4.491 0 6.851 2.983 6.851 6.852 0 3.704-2.524 6.818-6.851 6.818m0-17.767h-8.622v21.865h8.622c6.851 0 11.604-4.327 11.604-10.916s-4.753-10.949-11.604-10.949m82.1269-.0045l-5.734 9.27-5.734-9.27h-5.146v21.869h4.656v-14.293l5.012 7.622c.574.871 1.851.871 2.424 0l5.013-7.622v14.293h4.656V5.3431z"/><path id="a" d="M95.8253 23.3441c-3.871 0-7.008-3.138-7.008-7.008 0-3.871 3.137-7.009 7.008-7.009 3.87 0 7.008 3.138 7.008 7.009 0 3.87-3.138 7.008-7.008 7.008m0-18.536c-6.367 0-11.528 5.161-11.528 11.528 0 6.366 5.161 11.527 11.528 11.527 6.366 0 11.528-5.161 11.528-11.527 0-6.367-5.162-11.528-11.528-11.528"/><path d="M176.4035 19.7269c-1.195 2.156-3.492 3.617-6.132 3.617-3.87 0-7.008-3.138-7.008-7.008 0-3.871 3.138-7.008 7.008-7.008 2.618 0 4.897 1.438 6.1 3.565l3.27-3.269c-2.092-2.915-5.508-4.816-9.37-4.816-6.367 0-11.527 5.161-11.527 11.528 0 6.366 5.16 11.528 11.527 11.528 3.883 0 7.316-1.922 9.404-4.865z"/><use transform="translate(98.718)" xlink:href="#a"/><ellipse cx="16.52" cy="16.497" fill="#cc092f" rx="16.236" ry="16.235"/><path fill="#fff" d="M30.8253 20.8832c-1.857-.74-3.557-.492-5.261.541 0 0-.621.379-.807.496-.794.498-1.543.97-2.263.97-.687 0-1.363-.184-1.649-1.513-.446-2.073-1.534-7.167-2.009-9.69-.279-1.483-.432-2.282-.591-2.825-.28-.954-.792-1.473-1.519-1.556 0 0-.114-.016-.207-.016-.092 0-.218.018-.218.018-.72.086-1.229.605-1.507 1.554-.159.543-.312 1.342-.591 2.825-.475 2.523-1.563 7.617-2.009 9.69-.286 1.329-.962 1.513-1.649 1.513-.72 0-1.469-.472-2.263-.97-.186-.117-.808-.496-.808-.496-1.703-1.033-3.404-1.281-5.26-.541-.401.16-.79596.33918-1.17196.52018.257.806.57693 1.59925.94993 2.34425.411-.202.84203-.40243 1.28203-.53243.634-.187 1.284-.197 1.914.014.612.205 1.157.568 1.7.909 1.023.643 2.182 1.372 3.657 1.372 2.186 0 3.72-1.305 4.21-3.581.38-1.764 1.222-5.702 1.763-8.418 0 0 1.386 6.654 1.765 8.418.49 2.276 2.025 3.581 4.211 3.581 1.475 0 2.634-.729 3.657-1.372.543-.341 1.088-.704 1.7-.909.629-.211 1.28-.201 1.914-.014.44.13.87039.33065 1.28139.53265.374-.745.69309-1.53862.95009-2.34462-.376-.181-.77048-.36003-1.17148-.52003"/><path d="M90.3895 49.41992q-.29541.1289-.53711.2417-.23633.1128-.62305.23633-.32764.10205-.71436.17187-.38134.0752-.84326.0752-.87011 0-1.58447-.2417-.70898-.24707-1.23535-.76806-.51563-.51026-.80567-1.29444-.29003-.78955-.29003-1.83154 0-.98828.2793-1.76709.27929-.7788.80566-1.31592.51025-.521 1.22998-.79492.7251-.27392 1.60595-.27392.64453 0 1.2837.15576.64453.15576 1.4287.54785v1.2622h-.08056q-.66065-.55322-1.31055-.80566-.6499-.25244-1.39111-.25244-.60694 0-1.0957.19873-.4834.19336-.86475.60693-.3706.40284-.58008 1.02051-.2041.6123-.2041 1.41797 0 .84326.22558 1.4502.23096.60693.59082.98828.37598.39746.8755.59082.50488.18799 1.06347.18799.76807 0 1.43945-.26319.67139-.26318 1.25684-.78955h.07519zM98.2098 50h-1.1333l-.78417-2.229h-3.45899L92.04916 50h-1.07959l2.91114-7.99756h1.41797zm-2.2451-3.14209l-1.40186-3.92627-1.40723 3.92627zM110.41292 50h-1.06347v-6.89111l-2.22364 4.68896h-.63379l-2.20751-4.68896V50h-.99366v-7.99756h1.4502l2.13232 4.45264 2.0625-4.45264h1.47705zm8.46485 0h-1.1333l-.78418-2.229h-3.45899L112.71713 50h-1.07959l2.91114-7.99756h1.41796zm-2.24512-3.14209l-1.40186-3.92627-1.40722 3.92627zm9.16309-3.91016h-2.85743V50h-1.06347v-7.05225h-2.85742v-.9453h6.77832zm11.70898 3.06153q0 1.09033-.47803 1.97656-.47265.88623-1.2622 1.375-.54786.33838-1.22461.48877Q133.8685 50 132.76743 50h-2.01954v-7.99756h1.99805q1.1709 0 1.8584.17188.69287.1665 1.1709.46191.8164.51025 1.27295 1.35889.45654.84863.45654 2.01416zm-1.11182-.01611q0-.93994-.32763-1.58448-.32764-.64453-.97754-1.01513-.47266-.26856-1.0044-.3706-.53173-.10743-1.27295-.10743h-.99902v6.17139h.99902q.76807 0 1.33741-.1128.5747-.11279 1.05273-.41894.59619-.38135.8916-1.0044.30078-.62304.30078-1.55761zm7.78272 1.11181h-4.42041q0 .55322.1665.9668.16651.4082.45655.67138.27929.25782.66064.38672.38672.1289.84863.1289.61231 0 1.22998-.24169.62305-.24707.88623-.4834h.0537v1.10108q-.51025.21484-1.04199.35986t-1.11719.14502q-1.49316 0-2.33105-.80567-.83789-.81103-.83789-2.29882 0-1.47168.80029-2.33643.80567-.86475 2.11621-.86475 1.21387 0 1.86914.70899.66065.70898.66065 2.01416zm-.98291-.77344q-.005-.79492-.40283-1.22998-.39209-.43506-1.19776-.43506-.81103 0-1.29443.47803-.47803.47803-.54248 1.18701zm5.6289 3.61475q-.28466.0752-.62304.12353-.33301.04834-.59619.04834-.91846 0-1.39649-.49414-.47803-.49414-.47803-1.58447v-3.19043h-.68212v-.84863h.68212v-1.72412h1.00977v1.72412h2.08398v.84863h-2.08398v2.73389q0 .47265.0215.7412.0215.2632.1504.49415.11816.21484.32226.3169.20947.09667.63379.09667.24707 0 .51563-.06983.26855-.0752.38671-.12353h.0537zm6.24659-2.84131h-4.42041q0 .55322.1665.9668.1665.4082.45654.67138.2793.25782.66065.38672.38672.1289.84863.1289.61231 0 1.22998-.24169.62305-.24707.88623-.4834h.0537v1.10108q-.51025.21484-1.04199.35986t-1.11719.14502q-1.49316 0-2.33105-.80567-.83789-.81103-.83789-2.29882 0-1.47168.80029-2.33643.80566-.86475 2.11621-.86475 1.21387 0 1.86914.70899.66065.70898.66065 2.01416zm-.98291-.77344q-.005-.79492-.40284-1.22998-.39209-.43506-1.19775-.43506-.81103 0-1.29443.47803-.47803.47803-.54248 1.18701zm6.95019 3.29248q-.50488.2417-.96142.37598-.45118.13428-.96143.13428-.6499 0-1.19238-.188-.54248-.19335-.9292-.58007-.39209-.38672-.60694-.97754-.21484-.59082-.21484-1.38037 0-1.47168.80567-2.30957.81103-.83789 2.13769-.83789.51563 0 1.00977.14502.49951.14502.91308.3545v1.12255h-.0537q-.46191-.35986-.95605-.55322-.48877-.19336-.95606-.19336-.85937 0-1.35889.58008-.49414.5747-.49414 1.6919 0 1.08495.4834 1.6704.48877.58008 1.36963.58008.30615 0 .62305-.08057.31689-.08057.56933-.20947.22022-.1128.41358-.23633.19336-.1289.30615-.22022h.0537zm4.41504.32227q-.28467.0752-.62305.12353-.333.04834-.59619.04834-.91845 0-1.39648-.49414-.47803-.49414-.47803-1.58447v-3.19043h-.68213v-.84863h.68213v-1.72412h1.00977v1.72412h2.08398v.84863h-2.08398v2.73389q0 .47265.0215.7412.0215.2632.15039.49415.11817.21484.32227.3169.20947.09667.63379.09667.24707 0 .51562-.06983.26856-.0752.38672-.12353h.0537z" text-anchor="middle"/></svg>