<svg xmlns="http://www.w3.org/2000/svg" role="img" xmlns:xlink="http://www.w3.org/1999/xlink" viewBox="-4.53 -4.53 248.82 61.32"><title>CA Mainframe Security Insights Platform logo</title><path d="M237.32 9.09c-1.06 0-1.93-.86-1.93-1.92s.87-1.93 1.93-1.93 1.93.87 1.93 1.93-.87 1.92-1.93 1.92m0-4.32c-1.32 0-2.4 1.08-2.4 2.4 0 1.32 1.08 2.4 2.4 2.4 1.32 0 2.4-1.08 2.4-2.4 0-1.32-1.08-2.4-2.4-2.4"/><path d="M237.48 7.07l-.51.01-.01-.62h.51c.19-.01.34.11.34.3.01.19-.14.31-.33.31m.83-.32c-.01-.42-.3-.72-.77-.72l-1.07.02.03 2.26h.49l-.01-.81h.35l.46.8.55-.01-.52-.86c.24-.06.49-.28.49-.68M51.8341 23.1805h-5.999V9.3465h5.835c1.574 0 2.557 1.016 2.557 2.393 0 1.377-.983 2.36-2.557 2.36H45v4h6.8341c1.836 0 2.819 1.18 2.819 2.556 0 1.574-1.049 2.525-2.819 2.525m3.376-7.245c2.066-.426 3.771-2.262 3.771-5.015 0-2.918-2.131-5.573-6.295-5.573h-11.506v21.865h11.867c4.163 0 6.359-2.623 6.359-5.901 0-2.754-1.868-5.015-4.196-5.376m17.8225-.5902H68v4.098h3.5576l4.294 7.769h5.343l-4.917-8.327c2.361-.557 4.786-2.622 4.786-6.49m0 0c0-4.065-2.786-7.048-7.343-7.048h-10.228v21.865h4.655V9.4453h4.885c1.869 0 3.278 1.114 3.278 2.95s-1.409 2.95-3.278 2.95m43.4206 4.0652l3.409-9.408 3.41 9.408zm.492-14.063l-8.458 21.865h5.31l1.377-3.704h9.376l1.344 3.704h5.311l-8.425-21.865zm26.9039 17.7671h-3.967v-13.67h3.967c4.491 0 6.851 2.983 6.851 6.852 0 3.704-2.524 6.818-6.851 6.818m0-17.767h-8.622v21.865h8.622c6.851 0 11.604-4.327 11.604-10.916s-4.753-10.949-11.604-10.949m82.1269-.0045l-5.734 9.27-5.734-9.27h-5.146v21.869h4.656v-14.293l5.012 7.622c.574.871 1.851.871 2.424 0l5.013-7.622v14.293h4.656V5.3431z"/><path id="a" d="M95.8253 23.3441c-3.871 0-7.008-3.138-7.008-7.008 0-3.871 3.137-7.009 7.008-7.009 3.87 0 7.008 3.138 7.008 7.009 0 3.87-3.138 7.008-7.008 7.008m0-18.536c-6.367 0-11.528 5.161-11.528 11.528 0 6.366 5.161 11.527 11.528 11.527 6.366 0 11.528-5.161 11.528-11.527 0-6.367-5.162-11.528-11.528-11.528"/><path d="M176.4035 19.7269c-1.195 2.156-3.492 3.617-6.132 3.617-3.87 0-7.008-3.138-7.008-7.008 0-3.871 3.138-7.008 7.008-7.008 2.618 0 4.897 1.438 6.1 3.565l3.27-3.269c-2.092-2.915-5.508-4.816-9.37-4.816-6.367 0-11.527 5.161-11.527 11.528 0 6.366 5.16 11.528 11.527 11.528 3.883 0 7.316-1.922 9.404-4.865z"/><use transform="translate(98.718)" xlink:href="#a"/><ellipse cx="16.52" cy="16.497" fill="#cc092f" rx="16.236" ry="16.235"/><path fill="#fff" d="M30.8253 20.8832c-1.857-.74-3.557-.492-5.261.541 0 0-.621.379-.807.496-.794.498-1.543.97-2.263.97-.687 0-1.363-.184-1.649-1.513-.446-2.073-1.534-7.167-2.009-9.69-.279-1.483-.432-2.282-.591-2.825-.28-.954-.792-1.473-1.519-1.556 0 0-.114-.016-.207-.016-.092 0-.218.018-.218.018-.72.086-1.229.605-1.507 1.554-.159.543-.312 1.342-.591 2.825-.475 2.523-1.563 7.617-2.009 9.69-.286 1.329-.962 1.513-1.649 1.513-.72 0-1.469-.472-2.263-.97-.186-.117-.808-.496-.808-.496-1.703-1.033-3.404-1.281-5.26-.541-.401.16-.79596.33918-1.17196.52018.257.806.57693 1.59925.94993 2.34425.411-.202.84203-.40243 1.28203-.53243.634-.187 1.284-.197 1.914.014.612.205 1.157.568 1.7.909 1.023.643 2.182 1.372 3.657 1.372 2.186 0 3.72-1.305 4.21-3.581.38-1.764 1.222-5.702 1.763-8.418 0 0 1.386 6.654 1.765 8.418.49 2.276 2.025 3.581 4.211 3.581 1.475 0 2.634-.729 3.657-1.372.543-.341 1.088-.704 1.7-.909.629-.211 1.28-.201 1.914-.014.44.13.87039.33065 1.28139.53265.374-.745.69309-1.53862.95009-2.34462-.376-.181-.77048-.36003-1.17148-.52003"/><g text-anchor="middle"><path d="M19.27622 49.41992q-.29542.1289-.53711.2417-.23633.1128-.62305.23633-.32764.10205-.71436.17187-.38135.0752-.84326.0752-.87012 0-1.58447-.2417-.70899-.24707-1.23535-.76806-.51563-.51026-.80567-1.29444-.29004-.78955-.29004-1.83154 0-.98828.2793-1.76709.2793-.7788.80567-1.31592.51025-.521 1.22998-.79492.7251-.27392 1.60595-.27392.64453 0 1.2837.15576.64452.15576 1.4287.54785v1.2622h-.08057q-.66064-.55322-1.31054-.80566t-1.39112-.25244q-.60693 0-1.0957.19873-.4834.19336-.86474.60693-.37061.40284-.58008 1.02051-.2041.6123-.2041 1.41797 0 .84326.22558 1.4502.23096.60693.59082.98828.37598.39746.8755.59082.50487.18799 1.06347.18799.76806 0 1.43945-.26319.67139-.26318 1.25684-.78955h.0752z"/><path d="M27.08579 50h-1.1333l-.78419-2.229h-3.45898L20.92514 50h-1.07959l2.91113-7.99756h1.41797zm-2.24512-3.14209l-1.40186-3.92627-1.40722 3.92627z"/><path d="M39.28891 50h-1.06348v-6.89111l-2.22363 4.68896h-.63379L33.1605 43.1089V50h-.99365v-7.99756h1.4502l2.13232 4.45264 2.0625-4.45264h1.47705z"/><path d="M46.01889 50h-1.0044v-.63916q-.13427.09131-.36523.25781-.22558.16114-.44043.25782-.25244.12353-.58008.2041-.32763.08594-.76806.08594-.81104 0-1.375-.53711-.56397-.53711-.56397-1.36963 0-.68213.29004-1.10108.29541-.42431.8379-.66601.54784-.2417 1.31591-.32764.76807-.08594 1.64893-.1289v-.15577q0-.34375-.12354-.56933-.11816-.22559-.34375-.3545-.21484-.12353-.51562-.1665-.30079-.04297-.62842-.04297-.39746 0-.88623.10742-.48877.10205-1.00977.30078h-.0537V44.1294q.2954-.08057.854-.17725.55859-.09668 1.10107-.09668.63379 0 1.10107.10742.47266.10205.81641.3545.33838.24706.51562.63915.17725.3921.17725.97217zm-1.0044-1.47705v-1.67041q-.4619.02686-1.09033.08057-.62304.0537-.98828.15576-.43506.12354-.70361.38672-.26855.25781-.26855.71436 0 .51562.31152.7788.31152.25782.95068.25782.53174 0 .97217-.2041.44043-.20948.8164-.49952z"/><path d="M49.04819 42.9961h-1.13867v-1.04737h1.13867zM48.98373 50h-1.00976v-5.99951h1.00976z"/><path d="M55.99838 50h-1.00976v-3.41602q0-.41357-.04834-.77343-.04834-.36524-.17725-.56934-.13428-.22559-.38672-.333-.25244-.1128-.65527-.1128-.41358 0-.86475.2041t-.86474.521V50h-1.00977v-5.99951h1.00977v.66601q.47265-.39209.97754-.6123.50488-.22022 1.03662-.22022.97217 0 1.48242.58545.51025.58545.51025 1.68653z"/><path d="M61.17075 42.62012h-.05371q-.1665-.04834-.43506-.09668-.26856-.05371-.47266-.05371-.6499 0-.94531.29004-.29004.28466-.29004 1.03662v.2041h1.8208v.84863h-1.78858V50h-1.00976v-5.15088h-.68213v-.84863h.68213v-.19873q0-1.06885.53174-1.63819.53174-.5747 1.53613-.5747.33838 0 .60693.03223.27393.03223.49952.0752z"/><path d="M65.55356 45.10156h-.05371q-.22559-.0537-.44043-.0752-.20947-.02685-.49951-.02685-.46729 0-.90235.20947-.43505.2041-.83789.53174V50h-1.00976v-5.99951h1.00976v.88623q.60157-.4834 1.0581-.68213.46192-.2041.93995-.2041.26318 0 .38135.0161.11816.01075.35449.04835z"/><path d="M70.973 50h-1.0044v-.63916q-.13428.09131-.36524.25781-.22558.16114-.44043.25782-.25244.12353-.58008.2041-.32763.08594-.76806.08594-.81104 0-1.375-.53711-.56397-.53711-.56397-1.36963 0-.68213.29004-1.10108.29541-.42431.8379-.66601.54784-.2417 1.31591-.32764.76807-.08594 1.64893-.1289v-.15577q0-.34375-.12354-.56933-.11816-.22559-.34375-.3545-.21484-.12353-.51562-.1665-.30078-.04297-.62842-.04297-.39746 0-.88623.10742-.48877.10205-1.00977.30078h-.0537V44.1294q.2954-.08057.854-.17725.5586-.09668 1.10107-.09668.63379 0 1.10108.10742.47265.10205.8164.3545.33838.24706.51563.63915.17724.3921.17724.97217zm-1.0044-1.47705v-1.67041q-.46192.02686-1.09033.08057-.62305.0537-.98829.15576-.43505.12354-.7036.38672-.26856.25781-.26856.71436 0 .51562.31152.7788.31152.25782.95068.25782.53174 0 .97217-.2041.44043-.20948.8164-.49952z"/><path d="M81.67221 50h-1.00977v-3.41602q0-.38671-.0376-.74658-.03222-.35986-.14501-.5747-.12354-.23096-.3545-.34913-.23095-.11816-.66601-.11816-.42432 0-.84863.21484-.42432.20948-.84864.53711.01611.12354.02686.29004.01074.16114.01074.32227V50H76.7899v-3.41602q0-.39746-.0376-.75195-.03223-.35986-.14502-.5747-.12354-.23096-.3545-.34376-.23095-.11816-.66601-.11816-.41358 0-.83252.2041-.41357.2041-.82715.521V50h-1.00977v-5.99951h1.00977v.66601q.47266-.39209.93994-.6123.47266-.22022 1.0044-.22022.6123 0 1.03662.25782.42969.2578.63916.71435.6123-.51562 1.11719-.7412.50488-.23097 1.07959-.23097.98828 0 1.45556.60157.47266.59619.47266 1.6704z"/><path d="M88.63852 47.10498H84.2181q0 .55322.1665.9668.1665.4082.45655.67138.2793.25782.66064.38672.38672.1289.84863.1289.6123 0 1.22998-.24169.62305-.24707.88623-.4834h.05371v1.10108q-.51025.21484-1.04199.35986t-1.11719.14502q-1.49316 0-2.33105-.80567-.8379-.81103-.8379-2.29882 0-1.47168.8003-2.33643.80567-.86475 2.11621-.86475 1.21387 0 1.86914.70899.66065.70898.66065 2.01416zm-.98291-.77344q-.0054-.79492-.40283-1.22998-.3921-.43506-1.19776-.43506-.81103 0-1.29443.47803-.47803.47803-.54248 1.18701z"/><path d="M99.92856 47.71728q0 .46729-.22022.92383-.21484.45655-.60693.77344-.42969.34375-1.0044.53711-.56933.19336-1.375.19336-.86474 0-1.55761-.16113-.6875-.16114-1.40186-.47803v-1.33203h.0752q.60694.50488 1.40186.7788.79492.27393 1.49316.27393.98828 0 1.53613-.3706.55323-.3706.55323-.98828 0-.53174-.26319-.78418-.2578-.25245-.78955-.3921-.40283-.10742-.87549-.17724-.46728-.06982-.99365-.17725-1.06347-.22558-1.5791-.76806-.51025-.54785-.51025-1.42334 0-1.0044.84863-1.64356.84863-.64453 2.1538-.64453.84327 0 1.54688.16114.70362.16113 1.2461.39746v1.25683h-.0752q-.45655-.38672-1.20313-.63916-.7412-.25781-1.52002-.25781-.854 0-1.375.3545-.51562.35448-.51562.91308 0 .4995.25781.78418.25781.28466.90772.43505.34375.0752.97753.18262.6338.10742 1.07422.22022.8916.23633 1.34278.71435.45117.47803.45117 1.3374z"/><path d="M106.57797 47.10498h-4.42041q0 .55322.16651.9668.1665.4082.45654.67138.2793.25782.66064.38672.38672.1289.84864.1289.6123 0 1.22998-.24169.62304-.24707.88623-.4834h.0537v1.10108q-.51026.21484-1.04199.35986-.53174.14502-1.11719.14502-1.49317 0-2.33106-.80567-.83789-.81103-.83789-2.29882 0-1.47168.8003-2.33643.80566-.86475 2.11621-.86475 1.21386 0 1.86914.70899.66064.70898.66064 2.01416zm-.98291-.77344q-.005-.79492-.40283-1.22998-.39209-.43506-1.19775-.43506-.81104 0-1.29444.47803-.47802.47803-.54248 1.18701z"/><path d="M112.54526 49.62402q-.50489.2417-.96143.37598-.45117.13428-.96142.13428-.64991 0-1.19239-.188-.54248-.19335-.9292-.58007-.39209-.38672-.60693-.97754-.21484-.59082-.21484-1.38037 0-1.47168.80566-2.30957.81104-.83789 2.1377-.83789.51562 0 1.00976.14502.49951.14502.91309.3545v1.12255h-.0537q-.46192-.35986-.95606-.55322-.48877-.19336-.95605-.19336-.85938 0-1.35889.58008-.49414.5747-.49414 1.6919 0 1.08495.4834 1.6704.48877.58008 1.36963.58008.30615 0 .62304-.08057.3169-.08057.56934-.20947.22021-.1128.41357-.23633.19336-.1289.30616-.22022h.0537z"/><path d="M118.81332 50h-1.00976v-.66602q-.51026.40284-.97754.61768-.46729.21484-1.03125.21484-.94531 0-1.47168-.5747-.52637-.58008-.52637-1.69727V44.0005h1.00977v3.41601q0 .45655.043.78418.043.32227.18261.55323.14502.23632.37598.34375.23096.10742.67139.10742.39209 0 .854-.2041.46729-.2041.87012-.521v-4.4795h1.00976z"/><path d="M124.54428 45.10156h-.0537q-.22559-.0537-.44043-.0752-.20947-.02685-.49951-.02685-.46729 0-.90235.20947-.43505.2041-.83789.53174V50h-1.00976v-5.99951h1.00976v.88623q.60157-.4834 1.05811-.68213.46191-.2041.93994-.2041.26318 0 .38135.0161.11816.01075.35449.04835z"/><path d="M126.57993 42.9961h-1.13868v-1.04737h1.13868zM126.51547 50h-1.00976v-5.99951h1.00976z"/><path d="M131.62875 49.94629q-.28466.0752-.62304.12353-.33301.04834-.59619.04834-.91846 0-1.39649-.49414-.47803-.49414-.47803-1.58447v-3.19043h-.68213v-.84863h.68213v-1.72412h1.00977v1.72412h2.08398v.84863h-2.08398v2.73389q0 .47265.0215.7412.0215.2632.15039.49415.11817.21484.32227.3169.20947.09667.63379.09667.24707 0 .51562-.06983.26856-.0752.38672-.12353h.0537z"/><path d="M137.98276 44.00049l-3.50196 8.2124h-1.07959l1.11719-2.50293-2.39013-5.70947h1.0957l1.84228 4.44726 1.8584-4.44726z"/><path d="M146.07162 50h-3.1582v-.8164h1.04736v-6.36475h-1.04736v-.8164h3.1582v.8164h-1.04736v6.36474h1.04736z"/><path d="M152.81772 50h-1.00977v-3.41602q0-.41357-.0483-.77343-.0483-.36524-.17724-.56934-.13428-.22559-.38672-.333-.25244-.1128-.65528-.1128-.41357 0-.86474.2041-.45117.2041-.86475.521V50h-1.00976v-5.99951h1.00976v.66601q.47266-.39209.97754-.6123.50488-.22022 1.03662-.22022.97217 0 1.48242.58545.51026.58545.51026 1.68653z"/><path d="M159.04819 48.2705q0 .82179-.68213 1.34815-.67676.52637-1.85303.52637-.66601 0-1.22461-.15576-.55322-.16114-.9292-.34912v-1.1333h.0537q.47803.35986 1.06348.5747.58545.20948 1.12256.20948.66601 0 1.04199-.21485.37598-.21484.37598-.67676 0-.35449-.2041-.5371-.20411-.18262-.78418-.31153-.21485-.04834-.56397-.1128-.34375-.06444-.62842-.13964-.78955-.20947-1.12256-.6123-.32763-.4082-.32763-.99903 0-.3706.15039-.69824.15576-.32764.46728-.58545.30078-.25244.7627-.39746.46728-.1504 1.04199-.1504.53711 0 1.08496.13429.55322.1289.91846.3169v1.07958h-.0537q-.38672-.28467-.93994-.47803-.55323-.19873-1.08496-.19873-.55323 0-.93457.21485-.38135.20947-.38135.62841 0 .37061.23095.5586.22559.18799.73047.30615.2793.06445.62305.1289.34912.06446.58008.11817.70361.16113 1.08496.55322.38135.39746.38135 1.05274z"/><path d="M161.57797 42.9961h-1.13867v-1.04737h1.13867zM161.51352 50h-1.00977v-5.99951h1.00977z"/><path d="M168.37778 49.31787q0 1.5254-.69287 2.23975-.69288.71435-2.13233.71435-.47803 0-.93457-.06983-.45117-.06445-.8916-.18799V50.9829h.0537q.24707.09668.78418.23633.53711.14502 1.07422.14502.51562 0 .854-.12353.33838-.12354.52637-.34375.18799-.20948.26856-.50489.0806-.2954.0806-.66064v-.54785q-.45654.36523-.87549.54785-.41357.17725-1.0581.17725-1.07422 0-1.70801-.77344-.62842-.77881-.62842-2.1914 0-.77345.21485-1.33204.22021-.56396.59619-.97217.34912-.38134.84863-.59082.49951-.21484.99365-.21484.521 0 .87012.10742.35449.10205.74658.3169l.0644-.25782h.94532zm-1.00977-.9668v-3.271q-.40283-.1826-.75195-.2578-.34375-.08057-.6875-.08057-.83252 0-1.31055.55859-.47803.5586-.47803 1.62207 0 1.00977.3545 1.53076.35449.521 1.17627.521.44043 0 .88086-.1665.4458-.17188.8164-.45655z"/><path d="M175.38168 50h-1.00976v-3.41602q0-.41357-.0483-.77343-.0483-.36524-.17725-.56934-.13428-.22559-.38672-.333-.25244-.1128-.65527-.1128-.41357 0-.86475.2041-.45117.2041-.86474.521V50h-1.00977v-8.35742h1.00977v3.02392q.47265-.39209.97754-.6123.50488-.22022 1.03662-.22022.97217 0 1.48242.58545.51025.58545.51025 1.68653z"/><path d="M180.44125 49.94629q-.28466.0752-.62304.12353-.33301.04834-.59619.04834-.91846 0-1.39649-.49414-.47803-.49414-.47803-1.58447v-3.19043h-.68213v-.84863h.68213v-1.72412h1.00977v1.72412h2.08398v.84863h-2.08398v2.73389q0 .47265.0215.7412.0215.2632.15039.49415.11817.21484.32227.3169.20947.09667.63379.09667.24707 0 .51562-.06983.26856-.0752.38672-.12353h.0537z"/><path d="M185.94662 48.2705q0 .82179-.68212 1.34815-.67676.52637-1.85303.52637-.66602 0-1.22461-.15576-.55322-.16114-.9292-.34912v-1.1333h.0537q.47803.35986 1.06348.5747.58545.20948 1.12256.20948.66601 0 1.04199-.21485.37597-.21484.37597-.67676 0-.35449-.2041-.5371-.2041-.18262-.78418-.31153-.21484-.04834-.56396-.1128-.34375-.06444-.62842-.13964-.78955-.20947-1.12256-.6123-.32763-.4082-.32763-.99903 0-.3706.15039-.69824.15576-.32764.46728-.58545.30078-.25244.7627-.39746.46728-.1504 1.04199-.1504.53711 0 1.08496.13429.55322.1289.91846.3169v1.07958h-.0537q-.38672-.28467-.93995-.47803-.55322-.19873-1.08496-.19873-.55322 0-.93457.21485-.38134.20947-.38134.62841 0 .37061.23095.5586.22559.18799.73047.30615.2793.06445.62305.1289.34912.06446.58008.11817.70361.16113 1.08496.55322.38134.39746.38134 1.05274z"/><path d="M196.57065 44.41943q0 .53174-.18799.98829-.18262.45117-.51563.78418-.41357.41357-.97753.62304-.56397.2041-1.42334.2041h-1.06348V50h-1.06348v-7.99756h2.16992q.71973 0 1.21924.12354.49951.11816.88623.37597.45655.30615.70362.7627.25244.45654.25244 1.15478zm-1.10645.02685q0-.41357-.14502-.71972-.14502-.30615-.44043-.49951-.25781-.1665-.59082-.23633-.32763-.0752-.83252-.0752h-1.05273v3.1958h.89697q.64453 0 1.04737-.1128.40283-.11816.65527-.3706.25244-.25781.35449-.54248.10742-.28467.10742-.63916z"/><path d="M198.91245 50h-1.00977v-8.35742h1.00977z"/><path d="M205.5726 50h-1.00439v-.63916q-.13428.09131-.36524.25781-.22558.16114-.44043.25782-.25244.12353-.58008.2041-.32763.08594-.76806.08594-.81104 0-1.375-.53711-.56397-.53711-.56397-1.36963 0-.68213.29004-1.10108.29541-.42431.83789-.66601.54785-.2417 1.31592-.32764.76807-.08594 1.64893-.1289v-.15577q0-.34375-.12354-.56933-.11816-.22559-.34375-.3545-.21484-.12353-.51562-.1665-.30078-.04297-.62842-.04297-.39746 0-.88623.10742-.48877.10205-1.00977.30078h-.0537V44.1294q.29541-.08057.85401-.17725.55859-.09668 1.10107-.09668.63379 0 1.10107.10742.47266.10205.81641.3545.33838.24706.51563.63915.17724.3921.17724.97217zm-1.00439-1.47705v-1.67041q-.46192.02686-1.09034.08057-.62304.0537-.98828.15576-.43506.12354-.70361.38672-.26855.25781-.26855.71436 0 .51562.31152.7788.31152.25782.95068.25782.53174 0 .97217-.2041.44043-.20948.81641-.49952z"/><path d="M210.63217 49.94629q-.28467.0752-.62305.12353-.333.04834-.59619.04834-.91845 0-1.39648-.49414-.47803-.49414-.47803-1.58447v-3.19043h-.68213v-.84863h.68213v-1.72412h1.00977v1.72412h2.08398v.84863h-2.08398v2.73389q0 .47265.0215.7412.0215.2632.15039.49415.11817.21484.32227.3169.20947.09667.63379.09667.24707 0 .51562-.06983.26856-.0752.38672-.12353h.0537z"/><path d="M215.07944 42.62012h-.0537q-.16651-.04834-.43506-.09668-.26856-.05371-.47266-.05371-.6499 0-.94531.29004-.29004.28466-.29004 1.03662v.2041h1.8208v.84863h-1.78857V50h-1.00977v-5.15088h-.68213v-.84863h.68213v-.19873q0-1.06885.53174-1.63819.53174-.5747 1.53613-.5747.33838 0 .60694.03223.27392.03223.49951.0752z"/><path d="M220.83188 47.00293q0 1.4663-.75195 2.31494-.75196.84863-2.01416.84863-1.27295 0-2.02491-.84863-.74658-.84863-.74658-2.31494 0-1.4663.74658-2.31494.75196-.854 2.02491-.854 1.2622 0 2.01416.854.75195.84863.75195 2.31494zm-1.04199 0q0-1.16553-.45655-1.7295-.45654-.56933-1.26757-.56933-.82178 0-1.27832.56934-.45118.56396-.45118 1.72949 0 1.12793.45655 1.71338.45654.58008 1.27295.58008.80566 0 1.2622-.57471.46192-.58008.46192-1.71875z"/><path d="M226.13852 45.10156h-.0537q-.22559-.0537-.44043-.0752-.20947-.02685-.49951-.02685-.46729 0-.90235.20947-.43506.2041-.83789.53174V50h-1.00976v-5.99951h1.00976v.88623q.60157-.4834 1.05811-.68213.46191-.2041.93994-.2041.26318 0 .38135.0161.11816.01075.35449.04835z"/><path d="M235.84409 50h-1.00977v-3.41602q0-.38671-.0376-.74658-.0322-.35986-.14502-.5747-.12353-.23096-.35449-.34913-.23096-.11816-.66601-.11816-.42432 0-.84864.21484-.42431.20948-.84863.53711.0161.12354.0268.29004.0108.16114.0108.32227V50h-1.00977v-3.41602q0-.39746-.0376-.75195-.0322-.35986-.14502-.5747-.12353-.23096-.35449-.34376-.23095-.11816-.66601-.11816-.41358 0-.83252.2041-.41358.2041-.82715.521V50h-1.00977v-5.99951h1.00977v.66601q.47265-.39209.93994-.6123.47266-.22022 1.00439-.22022.61231 0 1.03663.25782.42968.2578.63916.71435.6123-.51562 1.11718-.7412.50489-.23097 1.07959-.23097.98828 0 1.45557.60157.47266.59619.47266 1.6704z"/></g></svg>