<svg xmlns="http://www.w3.org/2000/svg" role="img" xmlns:xlink="http://www.w3.org/1999/xlink" viewBox="-4.53 -4.53 248.82 60.82"><title>CA OPS/MVS® (CLI 2019) logo</title><path d="M237.32 9.09c-1.06 0-1.93-.86-1.93-1.92s.87-1.93 1.93-1.93 1.93.87 1.93 1.93-.87 1.92-1.93 1.92m0-4.32c-1.32 0-2.4 1.08-2.4 2.4 0 1.32 1.08 2.4 2.4 2.4 1.32 0 2.4-1.08 2.4-2.4 0-1.32-1.08-2.4-2.4-2.4"/><path d="M237.48 7.07l-.51.01-.01-.62h.51c.19-.01.34.11.34.3.01.19-.14.31-.33.31m.83-.32c-.01-.42-.3-.72-.77-.72l-1.07.02.03 2.26h.49l-.01-.81h.35l.46.8.55-.01-.52-.86c.24-.06.49-.28.49-.68M51.8341 23.1805h-5.999V9.3465h5.835c1.574 0 2.557 1.016 2.557 2.393 0 1.377-.983 2.36-2.557 2.36H45v4h6.8341c1.836 0 2.819 1.18 2.819 2.556 0 1.574-1.049 2.525-2.819 2.525m3.376-7.245c2.066-.426 3.771-2.262 3.771-5.015 0-2.918-2.131-5.573-6.295-5.573h-11.506v21.865h11.867c4.163 0 6.359-2.623 6.359-5.901 0-2.754-1.868-5.015-4.196-5.376m17.8225-.5902H68v4.098h3.5576l4.294 7.769h5.343l-4.917-8.327c2.361-.557 4.786-2.622 4.786-6.49m0 0c0-4.065-2.786-7.048-7.343-7.048h-10.228v21.865h4.655V9.4453h4.885c1.869 0 3.278 1.114 3.278 2.95s-1.409 2.95-3.278 2.95m43.4206 4.0652l3.409-9.408 3.41 9.408zm.492-14.063l-8.458 21.865h5.31l1.377-3.704h9.376l1.344 3.704h5.311l-8.425-21.865zm26.9039 17.7671h-3.967v-13.67h3.967c4.491 0 6.851 2.983 6.851 6.852 0 3.704-2.524 6.818-6.851 6.818m0-17.767h-8.622v21.865h8.622c6.851 0 11.604-4.327 11.604-10.916s-4.753-10.949-11.604-10.949m82.1269-.0045l-5.734 9.27-5.734-9.27h-5.146v21.869h4.656v-14.293l5.012 7.622c.574.871 1.851.871 2.424 0l5.013-7.622v14.293h4.656V5.3431z"/><path id="a" d="M95.8253 23.3441c-3.871 0-7.008-3.138-7.008-7.008 0-3.871 3.137-7.009 7.008-7.009 3.87 0 7.008 3.138 7.008 7.009 0 3.87-3.138 7.008-7.008 7.008m0-18.536c-6.367 0-11.528 5.161-11.528 11.528 0 6.366 5.161 11.527 11.528 11.527 6.366 0 11.528-5.161 11.528-11.527 0-6.367-5.162-11.528-11.528-11.528"/><path d="M176.4035 19.7269c-1.195 2.156-3.492 3.617-6.132 3.617-3.87 0-7.008-3.138-7.008-7.008 0-3.871 3.138-7.008 7.008-7.008 2.618 0 4.897 1.438 6.1 3.565l3.27-3.269c-2.092-2.915-5.508-4.816-9.37-4.816-6.367 0-11.527 5.161-11.527 11.528 0 6.366 5.16 11.528 11.527 11.528 3.883 0 7.316-1.922 9.404-4.865z"/><use transform="translate(98.718)" xlink:href="#a"/><ellipse cx="16.52" cy="16.497" fill="#cc092f" rx="16.236" ry="16.235"/><path fill="#fff" d="M30.8253 20.8832c-1.857-.74-3.557-.492-5.261.541 0 0-.621.379-.807.496-.794.498-1.543.97-2.263.97-.687 0-1.363-.184-1.649-1.513-.446-2.073-1.534-7.167-2.009-9.69-.279-1.483-.432-2.282-.591-2.825-.28-.954-.792-1.473-1.519-1.556 0 0-.114-.016-.207-.016-.092 0-.218.018-.218.018-.72.086-1.229.605-1.507 1.554-.159.543-.312 1.342-.591 2.825-.475 2.523-1.563 7.617-2.009 9.69-.286 1.329-.962 1.513-1.649 1.513-.72 0-1.469-.472-2.263-.97-.186-.117-.808-.496-.808-.496-1.703-1.033-3.404-1.281-5.26-.541-.401.16-.79596.33918-1.17196.52018.257.806.57693 1.59925.94993 2.34425.411-.202.84203-.40243 1.28203-.53243.634-.187 1.284-.197 1.914.014.612.205 1.157.568 1.7.909 1.023.643 2.182 1.372 3.657 1.372 2.186 0 3.72-1.305 4.21-3.581.38-1.764 1.222-5.702 1.763-8.418 0 0 1.386 6.654 1.765 8.418.49 2.276 2.025 3.581 4.211 3.581 1.475 0 2.634-.729 3.657-1.372.543-.341 1.088-.704 1.7-.909.629-.211 1.28-.201 1.914-.014.44.13.87039.33065 1.28139.53265.374-.745.69309-1.53862.95009-2.34462-.376-.181-.77048-.36003-1.17148-.52003"/><path d="M86.14063 49.41992q-.29542.1289-.53711.2417-.23633.1128-.62305.23633-.32764.10205-.71436.17187-.38134.0752-.84326.0752-.87012 0-1.58447-.2417-.70898-.24707-1.23535-.76806-.51563-.51026-.80567-1.29444-.29004-.78955-.29004-1.83154 0-.98828.2793-1.76709.2793-.7788.80567-1.31592.51025-.521 1.22998-.79492.7251-.27392 1.60595-.27392.64453 0 1.2837.15576.64453.15576 1.4287.54785v1.2622h-.08056q-.66065-.55322-1.31055-.80566-.6499-.25244-1.39112-.25244-.60693 0-1.0957.19873-.4834.19336-.86474.60693-.37061.40284-.58008 1.02051-.2041.6123-.2041 1.41797 0 .84326.22558 1.4502.23096.60693.59082.98828.37598.39746.87549.59082.50488.18799 1.06348.18799.76806 0 1.43945-.26319.67139-.26318 1.25684-.78955h.07519zM93.96093 50h-1.1333l-.78417-2.229h-3.45899L87.8003 50H86.7207l2.91114-7.99756h1.41797zm-2.24511-3.14209l-1.40185-3.92627-1.40723 3.92627zm13.28809-3.93701q.48877.5371.74658 1.31592.26318.7788.26318 1.76709 0 .98828-.26855 1.77246-.26319.7788-.74121 1.2998-.49414.54248-1.1709.8164-.67139.27393-1.53613.27393-.84327 0-1.53614-.2793-.6875-.27929-1.1709-.81103-.4834-.53174-.74658-1.30517-.25781-.77344-.25781-1.7671 0-.97753.25781-1.75097.25781-.7788.75195-1.33203.47266-.52637 1.1709-.80567.70362-.2793 1.53077-.2793.85937 0 1.5415.28468.6875.2793 1.16553.80029zm-.0967 3.083q0-1.55761-.69825-2.40087-.69824-.84863-1.90673-.84863-1.21924 0-1.91748.84863-.69287.84326-.69287 2.40088 0 1.57373.70898 2.41162.70898.83252 1.90137.83252 1.19238 0 1.89599-.83252.70899-.8379.70899-2.41162zm8.02443-1.58447q0 .53174-.18799.98829-.18261.45117-.51562.78418-.41358.41357-.97754.62304-.56397.2041-1.42334.2041h-1.06348V50h-1.06347v-7.99756h2.16992q.71972 0 1.21924.12354.49951.11816.88623.37597.45654.30615.70361.7627.25244.45654.25244 1.15478zm-1.10644.02685q0-.41357-.14502-.71972-.14502-.30615-.44043-.49951-.25782-.1665-.59082-.23633-.32764-.0752-.83252-.0752h-1.05274v3.1958h.89697q.64454 0 1.04737-.1128.40283-.11816.65527-.3706.25244-.25781.35449-.54248.10743-.28467.10743-.63916zm8.32519 3.271q0 .46729-.22021.92383-.21485.45655-.60694.77344-.42969.34375-1.00439.53711-.56934.19336-1.375.19336-.86475 0-1.55762-.16113-.6875-.16114-1.40185-.47803v-1.33203h.0752q.60693.50488 1.40186.7788.79492.27393 1.49316.27393.98828 0 1.53613-.3706.55323-.3706.55323-.98828 0-.53174-.26319-.78418-.25781-.25245-.78955-.3921-.40283-.10742-.87549-.17724-.46728-.06982-.99365-.17725-1.06348-.22558-1.5791-.76806-.51026-.54785-.51026-1.42334 0-1.0044.84864-1.64356.84863-.64453 2.15381-.64453.84326 0 1.54687.16114.70361.16113 1.2461.39746v1.25683h-.0752q-.45654-.38672-1.20313-.63916-.74121-.25781-1.52001-.25781-.85401 0-1.375.3545-.51563.35448-.51563.91308 0 .4995.25781.78418.25782.28466.90772.43505.34375.0752.97754.18262t1.07422.22022q.8916.23633 1.34277.71435.45117.47803.45117 1.3374zm5.25293-6.0747l-3.85107 9.99023h-.9292l3.83496-9.99023zM133.98633 50h-1.06348v-6.89111l-2.22363 4.68896h-.63379l-2.20752-4.68896V50h-.99365v-7.99756h1.45019l2.13233 4.45264 2.0625-4.45264h1.47705zm8.46484-7.99756L139.54004 50h-1.41797l-2.91113-7.99756h1.13867l2.5083 7.03613 2.5083-7.03613zm7.02539 5.71484q0 .46729-.22021.92383-.21485.45655-.60694.77344-.42968.34375-1.00439.53711-.56934.19336-1.375.19336-.86475 0-1.55762-.16113-.6875-.16114-1.40185-.47803v-1.33203h.0752q.60694.50488 1.40186.7788.79492.27393 1.49316.27393.98828 0 1.53613-.3706.55323-.3706.55323-.98828 0-.53174-.26319-.78418-.25781-.25245-.78955-.3921-.40283-.10742-.87549-.17724-.46728-.06982-.99365-.17725-1.06347-.22558-1.5791-.76806-.51025-.54785-.51025-1.42334 0-1.0044.84863-1.64356.84863-.64453 2.15381-.64453.84326 0 1.54687.16114.70362.16113 1.2461.39746v1.25683h-.0752q-.45654-.38672-1.20312-.63916-.74121-.25781-1.52002-.25781-.85401 0-1.375.3545-.51563.35448-.51563.91308 0 .4995.25781.78418.25782.28466.90772.43505.34375.0752.97754.18262t1.07422.22022q.8916.23633 1.34277.71435.45117.47803.45117 1.3374zm10.77979-1.23535q0 1.92286-1.36426 3.28711-1.35889 1.35889-3.28174 1.35889-1.92285 0-3.28711-1.35889-1.35888-1.36425-1.35888-3.2871 0-1.92286 1.35888-3.28174 1.36426-1.36426 3.28711-1.36426 1.92285 0 3.28174 1.36426 1.36426 1.35888 1.36426 3.28173zm-.62305 0q0-1.66503-1.18164-2.85742-1.17627-1.19238-2.84131-1.19238t-2.84668 1.19238q-1.17627 1.19239-1.17627 2.85742 0 1.66504 1.17627 2.85743 1.18164 1.19238 2.84668 1.19238t2.84131-1.19238q1.18164-1.19239 1.18164-2.85743zm-1.03125 2.36329h-1.19775l-1.77784-1.90674h-.87011v1.90674h-.88623v-4.91456h1.67578q.50488 0 .83252.04297.32763.04297.64453.20948.33838.18261.49414.4458.16113.25781.16113.6499 0 .521-.30615.87012-.30078.34375-.83252.54785zm-1.89062-3.50733q0-.19336-.0752-.34375t-.25244-.24707q-.1665-.09131-.35449-.11816-.18799-.02685-.47266-.02685h-.80029v1.65966h.68213q.333 0 .5747-.04834.2417-.0537.39746-.17724.16651-.13428.23096-.29541.0698-.16113.0698-.40283z" text-anchor="middle"/></svg>