<svg xmlns="http://www.w3.org/2000/svg" role="img" xmlns:xlink="http://www.w3.org/1999/xlink" viewBox="-4.78 -4.78 248.82 81.57"><title>CA Secure Credential Store Plug-in for Zowe CLI (CLI 2019) logo</title><path d="M237.0368 8.82828c-1.06 0-1.93-.86-1.93-1.92s.87-1.93 1.93-1.93 1.93.87 1.93 1.93-.87 1.92-1.93 1.92m0-4.32c-1.32 0-2.4 1.08-2.4 2.4 0 1.32 1.08 2.4 2.4 2.4 1.32 0 2.4-1.08 2.4-2.4 0-1.32-1.08-2.4-2.4-2.4"/><path d="M237.1968 6.80828l-.51.01-.01-.62h.51c.19-.01.34.11.34.3.01.19-.14.31-.33.31m.83-.32c-.01-.42-.3-.72-.77-.72l-1.07.02.03 2.26h.49l-.01-.81h.35l.46.8.55-.01-.52-.86c.24-.06.49-.28.49-.68M51.5509 22.91878h-5.999v-13.834h5.835c1.574 0 2.557 1.016 2.557 2.393 0 1.377-.983 2.36-2.557 2.36h-6.6701v4h6.8341c1.836 0 2.819 1.18 2.819 2.556 0 1.574-1.049 2.525-2.819 2.525m3.376-7.245c2.066-.426 3.771-2.262 3.771-5.015 0-2.918-2.131-5.573-6.295-5.573h-11.506v21.865h11.867c4.163 0 6.359-2.623 6.359-5.901 0-2.754-1.868-5.015-4.196-5.376m17.8225-.5902h-5.0326v4.098h3.5576l4.294 7.769h5.343l-4.917-8.327c2.361-.557 4.786-2.622 4.786-6.49m0 0c0-4.065-2.786-7.048-7.343-7.048h-10.228v21.865h4.655v-17.767h4.885c1.869 0 3.278 1.114 3.278 2.95s-1.409 2.95-3.278 2.95m43.4206 4.0652l3.409-9.408 3.41 9.408zm.492-14.063l-8.458 21.865h5.31l1.377-3.704h9.376l1.344 3.704h5.311l-8.425-21.865zm26.9039 17.7671h-3.967v-13.67h3.967c4.491 0 6.851 2.983 6.851 6.852 0 3.704-2.524 6.818-6.851 6.818m0-17.767h-8.622v21.865h8.622c6.851 0 11.604-4.327 11.604-10.916s-4.753-10.949-11.604-10.949m82.1269-.0045l-5.734 9.27-5.734-9.27h-5.146v21.869h4.656v-14.293l5.012 7.622c.574.871 1.851.871 2.424 0l5.013-7.622v14.293h4.656v-21.869z"/><path id="a" d="M95.5421 23.08238c-3.871 0-7.008-3.138-7.008-7.008 0-3.871 3.137-7.009 7.008-7.009 3.87 0 7.008 3.138 7.008 7.009 0 3.87-3.138 7.008-7.008 7.008m0-18.536c-6.367 0-11.528 5.161-11.528 11.528 0 6.366 5.161 11.527 11.528 11.527 6.366 0 11.528-5.161 11.528-11.527 0-6.367-5.162-11.528-11.528-11.528"/><path d="M176.1203 19.46518c-1.195 2.156-3.492 3.617-6.132 3.617-3.87 0-7.008-3.138-7.008-7.008 0-3.871 3.138-7.008 7.008-7.008 2.618 0 4.897 1.438 6.1 3.565l3.27-3.269c-2.092-2.915-5.508-4.816-9.37-4.816-6.367 0-11.527 5.161-11.527 11.528 0 6.366 5.16 11.528 11.527 11.528 3.883 0 7.316-1.922 9.404-4.865z"/><use width="100%" height="100%" transform="translate(98.718)" xlink:href="#a"/><ellipse cx="16.236" cy="16.235" fill="#cc092f" rx="16.236" ry="16.235"/><path fill="#fff" d="M30.5421 20.62148c-1.857-.74-3.557-.492-5.261.541 0 0-.621.379-.807.496-.794.498-1.543.97-2.263.97-.687 0-1.363-.184-1.649-1.513-.446-2.073-1.534-7.167-2.009-9.69-.279-1.483-.432-2.282-.591-2.825-.28-.954-.792-1.473-1.519-1.556 0 0-.114-.016-.207-.016-.092 0-.218.018-.218.018-.72.086-1.229.605-1.507 1.554-.159.543-.312 1.342-.591 2.825-.475 2.523-1.563 7.617-2.009 9.69-.286 1.329-.962 1.513-1.649 1.513-.72 0-1.469-.472-2.263-.97-.186-.117-.808-.496-.808-.496-1.703-1.033-3.404-1.281-5.26-.541-.401.16-.79597.33918-1.17197.52018.257.806.57694 1.59925.94994 2.34425.411-.202.84203-.40243 1.28203-.53243.634-.187 1.284-.197 1.914.014.612.205 1.157.568 1.7.909 1.023.643 2.182 1.372 3.657 1.372 2.186 0 3.72-1.305 4.21-3.581.38-1.764 1.222-5.702 1.763-8.418 0 0 1.386 6.654 1.765 8.418.49 2.276 2.025 3.581 4.211 3.581 1.475 0 2.634-.729 3.657-1.372.543-.341 1.088-.704 1.7-.909.629-.211 1.28-.201 1.914-.014.44.13.87038.33065 1.28138.53265.374-.745.6931-1.53862.9501-2.34462-.376-.181-.77048-.36003-1.17148-.52003"/><path d="M22.56881 37.8882v2.09164q-1.03336-.9329-2.20856-1.39443-1.16507-.46153-2.4821-.46153-2.59354 0-3.97136 1.54172-1.37782 1.5319-1.37782 4.43859 0 2.89686 1.37782 4.43858 1.37782 1.5319 3.97136 1.5319 1.31703 0 2.4821-.46153 1.1752-.46153 2.20856-1.39442v2.072q-1.07389.70703-2.27948 1.06054-1.19546.35352-2.53275.35352-3.43442 0-5.40996-2.03272-1.97555-2.04253-1.97555-5.56787 0-3.53516 1.97555-5.56787 1.97554-2.04254 5.40996-2.04254 1.35755 0 2.55301.35352 1.2056.3437 2.25922 1.0409zm8.23652.82487l-2.7759 7.29618h5.56193zm-1.15494-1.95415h2.32L37.73495 51.42h-2.1275l-1.37783-3.76101h-6.81817L26.03362 51.42h-2.1579zm25.95567.48117v1.93452q-1.16507-.5401-2.19843-.80523-1.03337-.26514-1.99581-.26514-1.67162 0-2.58341.62847-.90166.62848-.90166 1.78722 0 .97217.59773 1.47298.60786.491 2.2896.79541l1.236.2455q2.2896.42226 3.37362 1.49262 1.09415 1.06055 1.09415 2.84777 0 2.13091-1.47913 3.23074-1.469 1.09983-4.31581 1.09983-1.07389 0-2.28961-.23568-1.2056-.23568-2.50236-.69721v-2.04254q1.24611.67757 2.44157 1.02127 1.19546.3437 2.3504.3437 1.75266 0 2.70498-.66776.95232-.66775.95232-1.90505 0-1.08019-.68891-1.68902-.67878-.60884-2.23896-.91325l-1.24611-.23568q-2.28961-.4419-3.31285-1.3846-1.02323-.94271-1.02323-2.62191 0-1.94434 1.40821-3.0638 1.41834-1.11947 3.90044-1.11947 1.06376 0 2.16804.18658t2.25922.55973zm13.72752 8.22906v.8838h-8.57084q.12158 1.86577 1.15494 2.84776 1.0435.97217 2.89747.97217 1.07389 0 2.07686-.25532 1.0131-.25532 2.00594-.76595v1.70866q-1.00297.41243-2.0566.62847-1.05362.21604-2.13764.21604-2.71511 0-4.30568-1.5319-1.58044-1.5319-1.58044-4.144 0-2.70046 1.49939-4.28146 1.50952-1.59082 4.06254-1.59082 2.2896 0 3.61677 1.4337 1.3373 1.42388 1.3373 3.87885zm-1.8641-.53027q-.02026-1.4828-.86114-2.3666-.83074-.88378-2.20856-.88378-1.56018 0-2.50236.85433-.93206.85433-1.07389 2.40587zm13.08927-4.0949v1.68903q-.79022-.42226-1.59057-.62848-.79022-.21603-1.6007-.21603-1.81345 0-2.81642 1.11946-1.00297 1.10965-1.00297 3.12273 0 2.01307 1.00297 3.13254 1.00297 1.10965 2.81642 1.10965.81048 0 1.6007-.20622.80035-.21604 1.59057-.6383v1.66939q-.78009.35351-1.62096.53027-.83074.17676-1.77293.17676-2.56314 0-4.07267-1.56136-1.50952-1.56137-1.50952-4.21273 0-2.69065 1.51965-4.23237 1.52979-1.54172 4.18411-1.54172.86114 0 1.68175.17675.82062.16694 1.59057.51064zm3.0697 6.23563v-6.65788h1.8641v6.58914q0 1.56136.62813 2.34695.62812.77578 1.88437.77578 1.50952 0 2.3808-.9329.8814-.93288.8814-2.54334v-6.23563h1.8641V51.42h-1.8641v-1.68902q-.67879 1.00163-1.58045 1.49262-.89153.48118-2.07686.48118-1.95528 0-2.96839-1.17839-1.0131-1.17839-1.0131-3.44678zm4.69066-6.92301zm15.24718 1.95415q-.31406-.17676-.68891-.25532-.36472-.08837-.81048-.08837-1.58044 0-2.43145 1.00162-.84087.99181-.84087 2.85759V51.42h-1.87424V40.42173h1.87424v1.70866q.5876-1.00163 1.52978-1.4828.94219-.491 2.28961-.491.1925 0 .4255.02947.23302.01964.51669.06874zm11.2353 3.3584v.8838h-8.57084q.12157 1.86577 1.15493 2.84776 1.0435.97217 2.89747.97217 1.0739 0 2.07686-.25532 1.0131-.25532 2.00594-.76595v1.70866q-1.00297.41243-2.0566.62847-1.05362.21604-2.13764.21604-2.71511 0-4.30568-1.5319-1.58044-1.5319-1.58044-4.144 0-2.70046 1.49939-4.28146 1.50953-1.59082 4.06254-1.59082 2.28961 0 3.61677 1.4337 1.3373 1.42388 1.3373 3.87885zm-1.8641-.53027q-.02028-1.4828-.86115-2.3666-.83074-.88378-2.20856-.88378-1.56017 0-2.50236.85433-.93205.85433-1.07389 2.40587zm22.93661-7.05068v2.09164q-1.03336-.9329-2.20856-1.39443-1.16507-.46153-2.4821-.46153-2.59354 0-3.97136 1.54172-1.37782 1.5319-1.37782 4.43859 0 2.89686 1.37782 4.43858 1.37782 1.5319 3.97136 1.5319 1.31703 0 2.4821-.46153 1.1752-.46153 2.20856-1.39442v2.072q-1.07388.70703-2.27948 1.06054-1.19546.35352-2.53275.35352-3.43442 0-5.40997-2.03272-1.97555-2.04253-1.97555-5.56787 0-3.53516 1.97555-5.56787 1.97555-2.04254 5.40997-2.04254 1.35755 0 2.55301.35352 1.2056.3437 2.25922 1.0409zm9.67513 4.22255q-.31406-.17676-.6889-.25532-.36472-.08837-.81049-.08837-1.58044 0-2.43144 1.00162-.84088.99181-.84088 2.85759V51.42h-1.87424V40.42173h1.87424v1.70866q.5876-1.00163 1.52978-1.4828.94219-.491 2.28962-.491.19248 0 .4255.02947.23301.01964.51668.06874zm11.2353 3.3584v.8838h-8.57084q.12157 1.86577 1.15493 2.84776 1.0435.97217 2.89747.97217 1.07389 0 2.07686-.25532 1.0131-.25532 2.00595-.76595v1.70866q-1.00297.41243-2.0566.62847-1.05363.21604-2.13764.21604-2.71512 0-4.30569-1.5319-1.58044-1.5319-1.58044-4.144 0-2.70046 1.4994-4.28146 1.50951-1.59082 4.06253-1.59082 2.2896 0 3.61678 1.4337 1.3373 1.42388 1.3373 3.87885zm-1.86411-.53027q-.02027-1.4828-.86114-2.3666-.83074-.88378-2.20856-.88378-1.56018 0-2.50235.85433-.93206.85433-1.0739 2.40587zm12.39023-2.84777v-5.95085h1.8641V51.42h-1.8641v-1.64974q-.5876.98199-1.48927 1.46316-.89152.47136-2.14777.47136-2.0566 0-3.35337-1.59082-1.28663-1.59083-1.28663-4.18327 0-2.59245 1.28663-4.18327 1.29677-1.59082 3.35337-1.59082 1.25625 0 2.14777.48117.90166.47135 1.48927 1.45334zm-6.35215 3.83958q0 1.99343.84087 3.13254.851 1.12928 2.33013 1.12928t2.33014-1.12928q.851-1.1391.851-3.13254t-.851-3.12273q-.851-1.1391-2.33014-1.1391-1.47913 0-2.33013 1.1391-.84087 1.12929-.84087 3.12273zm21.76143-.46154v.8838h-8.57084q.12157 1.86577 1.15493 2.84776 1.0435.97217 2.89748.97217 1.07388 0 2.07686-.25532 1.0131-.25532 2.00593-.76595v1.70866q-1.00297.41243-2.0566.62847-1.05362.21604-2.13764.21604-2.71511 0-4.30568-1.5319-1.58044-1.5319-1.58044-4.144 0-2.70046 1.4994-4.28146 1.50952-1.59082 4.06254-1.59082 2.2896 0 3.61676 1.4337 1.3373 1.42388 1.3373 3.87885zm-1.8641-.53027q-.02028-1.4828-.86114-2.3666-.83074-.88378-2.20856-.88378-1.56018 0-2.50237.85433-.93205.85433-1.07388 2.40587zm14.35564-.15712V51.42h-1.8641v-6.57932q0-1.56136-.62813-2.33713-.62812-.77577-1.88436-.77577-1.50953 0-2.3808.93289-.87126.93288-.87126 2.54334V51.42h-1.87424V40.42173h1.87424v1.70866q.66864-.9918 1.5703-1.4828.9118-.491 2.09713-.491 1.95528 0 2.95826 1.1784 1.00296 1.16856 1.00296 3.44677zm5.5822-7.48275v3.12272h3.83964v1.40425h-3.83965v5.97048q0 1.34533.37485 1.7283.38498.38298 1.55004.38298h1.91476V51.42h-1.91476q-2.1579 0-2.97851-.77577-.82062-.7856-.82062-2.84777v-5.97048h-1.36769v-1.40425h1.3677v-3.12272zm6.30148 3.12272h1.86411V51.42h-1.8641zm0-4.28147h1.86411v2.28804h-1.8641zm10.9111 9.75115q-2.25921 0-3.13048.50081-.87126.50081-.87126 1.70866 0 .96235.64838 1.5319.65852.55973 1.78306.55973 1.55005 0 2.4821-1.06054.94218-1.07037.94218-2.83795v-.40261zm3.7181-.74631V51.42h-1.86412v-1.66938q-.63825 1.00163-1.59056 1.4828-.95232.47136-2.33014.47136-1.74253 0-2.7759-.94271-1.02323-.95253-1.02323-2.54335 0-1.85596 1.2765-2.79867 1.28665-.9427 3.82953-.9427h2.6138v-.17676q0-1.24713-.851-1.9247-.84087-.6874-2.37066-.6874-.97258 0-1.8945.22586-.92192.22586-1.77293.67758v-1.66938q1.02323-.38298 1.98568-.56956.96245-.1964 1.87424-.1964 2.46184 0 3.67756 1.23731 1.21572 1.2373 1.21572 3.7512zm3.84979-9.00484h1.8641V51.42h-1.8641zM91.79578 57.78736v1.9345q-1.16507-.54009-2.19843-.80522-1.03336-.26514-1.99581-.26514-1.67162 0-2.58341.62847-.90166.62848-.90166 1.78722 0 .97217.59773 1.47298.60786.491 2.28961.79541l1.23598.2455q2.28961.42226 3.37363 1.49262 1.09415 1.06055 1.09415 2.84777 0 2.13091-1.47913 3.23074-1.469 1.09983-4.31581 1.09983-1.07389 0-2.28961-.23568-1.2056-.23568-2.50236-.69721V69.2766q1.24611.67757 2.44157 1.02127 1.19546.3437 2.3504.3437 1.75266 0 2.70498-.66776.95232-.66775.95232-1.90505 0-1.0802-.6889-1.68902-.67879-.60884-2.23897-.91325l-1.24611-.23568q-2.28961-.4419-3.31284-1.3846-1.02324-.94271-1.02324-2.62191 0-1.94434 1.40821-3.0638 1.41835-1.11947 3.90044-1.11947 1.06376 0 2.16804.18658t2.25922.55973zm5.86585.05891v3.12272h3.83966v1.40425h-3.83966v5.97048q0 1.34533.37486 1.7283.38497.38298 1.55004.38298h1.91476v1.51226h-1.91476q-2.1579 0-2.97852-.77577-.82061-.7856-.82061-2.84777v-5.97048H94.4197v-1.40425h1.36769v-3.12272zM108.36 62.23576q-1.4994 0-2.37066 1.1391-.87126 1.12929-.87126 3.10309t.86113 3.1129q.87127 1.12929 2.3808 1.12929 1.48925 0 2.36052-1.13911.87127-1.1391.87127-3.10308 0-1.95416-.87127-3.09327-.87127-1.14892-2.36053-1.14892zm0-1.5319q2.43144 0 3.8194 1.5319 1.38794 1.5319 1.38794 4.24219 0 2.70046-1.38794 4.24219-1.38796 1.5319-3.8194 1.5319-2.44157 0-3.82952-1.5319-1.37782-1.54173-1.37782-4.2422 0-2.71028 1.37782-4.24218 1.38795-1.5319 3.82952-1.5319zm14.8622 1.95415q-.31406-.17676-.6889-.25532-.36472-.08837-.81049-.08837-1.58043 0-2.43144 1.00162-.84088.99181-.84088 2.85759v5.79373h-1.87424V60.96899h1.87424v1.70866q.5876-1.00163 1.5298-1.4828.94217-.491 2.2896-.491.19249 0 .4255.02946.23302.01964.51669.06875zm11.2353 3.3584v.8838h-8.57084q.12157 1.86577 1.15494 2.84776 1.04349.97217 2.89746.97217 1.0739 0 2.07686-.25532 1.01311-.25532 2.00595-.76595v1.70866q-1.00297.41243-2.0566.62847-1.05362.21604-2.13764.21604-2.71512 0-4.30568-1.5319-1.58044-1.5319-1.58044-4.144 0-2.70046 1.49939-4.28146 1.50952-1.59082 4.06253-1.59082 2.28961 0 3.61678 1.4337 1.3373 1.42388 1.3373 3.87885zm-1.8641-.53027q-.02028-1.4828-.86114-2.3666-.83075-.88378-2.20857-.88378-1.56017 0-2.50235.85433-.93206.85433-1.07389 2.40587z"/></svg>