<svg xmlns="http://www.w3.org/2000/svg" role="img" xmlns:xlink="http://www.w3.org/1999/xlink" viewBox="-4.53 -4.53 248.82 61.32"><title>CA SYSVIEW® Performance Management (CLI ZOWE V1) logo</title><path d="M237.32 9.09c-1.06 0-1.93-.86-1.93-1.92s.87-1.93 1.93-1.93 1.93.87 1.93 1.93-.87 1.92-1.93 1.92m0-4.32c-1.32 0-2.4 1.08-2.4 2.4 0 1.32 1.08 2.4 2.4 2.4 1.32 0 2.4-1.08 2.4-2.4 0-1.32-1.08-2.4-2.4-2.4"/><path d="M237.48 7.07l-.51.01-.01-.62h.51c.19-.01.34.11.34.3.01.19-.14.31-.33.31m.83-.32c-.01-.42-.3-.72-.77-.72l-1.07.02.03 2.26h.49l-.01-.81h.35l.46.8.55-.01-.52-.86c.24-.06.49-.28.49-.68M51.8341 23.1805h-5.999V9.3465h5.835c1.574 0 2.557 1.016 2.557 2.393 0 1.377-.983 2.36-2.557 2.36H45v4h6.8341c1.836 0 2.819 1.18 2.819 2.556 0 1.574-1.049 2.525-2.819 2.525m3.376-7.245c2.066-.426 3.771-2.262 3.771-5.015 0-2.918-2.131-5.573-6.295-5.573h-11.506v21.865h11.867c4.163 0 6.359-2.623 6.359-5.901 0-2.754-1.868-5.015-4.196-5.376m17.8225-.5902H68v4.098h3.5576l4.294 7.769h5.343l-4.917-8.327c2.361-.557 4.786-2.622 4.786-6.49m0 0c0-4.065-2.786-7.048-7.343-7.048h-10.228v21.865h4.655V9.4453h4.885c1.869 0 3.278 1.114 3.278 2.95s-1.409 2.95-3.278 2.95m43.4206 4.0652l3.409-9.408 3.41 9.408zm.492-14.063l-8.458 21.865h5.31l1.377-3.704h9.376l1.344 3.704h5.311l-8.425-21.865zm26.9039 17.7671h-3.967v-13.67h3.967c4.491 0 6.851 2.983 6.851 6.852 0 3.704-2.524 6.818-6.851 6.818m0-17.767h-8.622v21.865h8.622c6.851 0 11.604-4.327 11.604-10.916s-4.753-10.949-11.604-10.949m82.1269-.0045l-5.734 9.27-5.734-9.27h-5.146v21.869h4.656v-14.293l5.012 7.622c.574.871 1.851.871 2.424 0l5.013-7.622v14.293h4.656V5.3431z"/><path id="a" d="M95.8253 23.3441c-3.871 0-7.008-3.138-7.008-7.008 0-3.871 3.137-7.009 7.008-7.009 3.87 0 7.008 3.138 7.008 7.009 0 3.87-3.138 7.008-7.008 7.008m0-18.536c-6.367 0-11.528 5.161-11.528 11.528 0 6.366 5.161 11.527 11.528 11.527 6.366 0 11.528-5.161 11.528-11.527 0-6.367-5.162-11.528-11.528-11.528"/><path d="M176.4035 19.7269c-1.195 2.156-3.492 3.617-6.132 3.617-3.87 0-7.008-3.138-7.008-7.008 0-3.871 3.138-7.008 7.008-7.008 2.618 0 4.897 1.438 6.1 3.565l3.27-3.269c-2.092-2.915-5.508-4.816-9.37-4.816-6.367 0-11.527 5.161-11.527 11.528 0 6.366 5.16 11.528 11.527 11.528 3.883 0 7.316-1.922 9.404-4.865z"/><use transform="translate(98.718)" xlink:href="#a"/><ellipse cx="16.52" cy="16.497" fill="#cc092f" rx="16.236" ry="16.235"/><path fill="#fff" d="M30.8253 20.8832c-1.857-.74-3.557-.492-5.261.541 0 0-.621.379-.807.496-.794.498-1.543.97-2.263.97-.687 0-1.363-.184-1.649-1.513-.446-2.073-1.534-7.167-2.009-9.69-.279-1.483-.432-2.282-.591-2.825-.28-.954-.792-1.473-1.519-1.556 0 0-.114-.016-.207-.016-.092 0-.218.018-.218.018-.72.086-1.229.605-1.507 1.554-.159.543-.312 1.342-.591 2.825-.475 2.523-1.563 7.617-2.009 9.69-.286 1.329-.962 1.513-1.649 1.513-.72 0-1.469-.472-2.263-.97-.186-.117-.808-.496-.808-.496-1.703-1.033-3.404-1.281-5.26-.541-.401.16-.79596.33918-1.17196.52018.257.806.57693 1.59925.94993 2.34425.411-.202.84203-.40243 1.28203-.53243.634-.187 1.284-.197 1.914.014.612.205 1.157.568 1.7.909 1.023.643 2.182 1.372 3.657 1.372 2.186 0 3.72-1.305 4.21-3.581.38-1.764 1.222-5.702 1.763-8.418 0 0 1.386 6.654 1.765 8.418.49 2.276 2.025 3.581 4.211 3.581 1.475 0 2.634-.729 3.657-1.372.543-.341 1.088-.704 1.7-.909.629-.211 1.28-.201 1.914-.014.44.13.87039.33065 1.28139.53265.374-.745.69309-1.53862.95009-2.34462-.376-.181-.77048-.36003-1.17148-.52003"/><g text-anchor="middle"><path d="M16.46713 49.41992q-.2954.1289-.5371.2417-.23634.1128-.62305.23633-.32764.10205-.71436.17187-.38135.0752-.84326.0752-.87012 0-1.58447-.2417-.70899-.24707-1.23536-.76807-.51562-.51025-.80566-1.29443-.29004-.78955-.29004-1.83154 0-.98828.2793-1.7671.2793-.7788.80566-1.31591.51026-.521 1.22998-.79492.7251-.27393 1.60596-.27393.64453 0 1.2837.15576.64452.15576 1.4287.54785v1.26221h-.08057q-.66064-.55322-1.31054-.80566t-1.39112-.25244q-.60693 0-1.0957.19873-.4834.19336-.86475.60693-.3706.40283-.58007 1.0205-.2041.61231-.2041 1.41798 0 .84326.22558 1.4502.23096.60693.59082.98827.37598.39746.87549.59082.50488.188 1.06347.188.76807 0 1.43946-.2632.67138-.26318 1.25683-.78954h.0752z"/><path d="M24.2767 50h-1.1333l-.78418-2.229h-3.45898L18.11606 50h-1.0796l2.91114-7.99756h1.41797zm-2.24511-3.14209l-1.40186-3.92627-1.40723 3.92627z"/><path d="M35.16928 47.71728q0 .46729-.22021.92383-.21485.45655-.60694.77344-.42969.34375-1.0044.53711-.56933.19336-1.375.19336-.86474 0-1.5576-.16113-.6875-.16114-1.40187-.47803v-1.33203h.0752q.60694.50488 1.40186.7788.79492.27393 1.49316.27393.98828 0 1.53614-.3706.55322-.3706.55322-.98828 0-.53174-.26318-.78418-.25782-.25245-.78956-.3921-.40283-.10742-.87548-.17724-.46729-.06982-.99365-.17725-1.06348-.22558-1.5791-.76806-.51026-.54785-.51026-1.42334 0-1.0044.84863-1.64356.84863-.64453 2.15381-.64453.84326 0 1.54688.16114.7036.16113 1.24609.39746v1.25683h-.0752q-.45654-.38672-1.20313-.63916-.7412-.25781-1.52001-.25781-.854 0-1.375.3545-.51563.35448-.51563.91308 0 .4995.25781.78418.25782.28466.90772.43505.34375.0752.97754.18262t1.07422.22022q.8916.23633 1.34277.71435.45117.47803.45117 1.3374z"/><path d="M42.53842 42.00244l-2.81445 4.49024V50h-1.06348v-3.39453l-2.8252-4.60303h1.17628l2.18603 3.57715 2.20752-3.57715z"/><path d="M49.45639 47.71728q0 .46729-.22021.92383-.21485.45655-.60694.77344-.42969.34375-1.0044.53711-.56933.19336-1.375.19336-.86474 0-1.55761-.16113-.6875-.16114-1.40186-.47803v-1.33203h.0752q.60694.50488 1.40186.7788.79492.27393 1.49317.27393.98828 0 1.53613-.3706.55322-.3706.55322-.98828 0-.53174-.26318-.78418-.25782-.25245-.78955-.3921-.40284-.10742-.8755-.17724-.46728-.06982-.99364-.17725-1.06348-.22558-1.5791-.76806-.51026-.54785-.51026-1.42334 0-1.0044.84863-1.64356.84864-.64453 2.15381-.64453.84326 0 1.54688.16114.7036.16113 1.24609.39746v1.25683h-.0752q-.45654-.38672-1.20312-.63916-.74121-.25781-1.52002-.25781-.854 0-1.375.3545-.51563.35448-.51563.91308 0 .4995.25781.78418.25782.28466.90772.43505.34375.0752.97754.18262t1.07422.22022q.8916.23633 1.34277.71435.45117.47803.45117 1.3374z"/><path d="M57.47006 42.00244L54.55893 50h-1.41797l-2.91113-7.99756h1.13867l2.5083 7.03613 2.5083-7.03613z"/><path d="M61.50375 50h-3.1582v-.8164h1.04736v-6.36475h-1.04736v-.8164h3.1582v.8164H60.4564v6.36474h1.04736z"/><path d="M68.58285 50h-5.26904v-7.99756h5.26905v.94531h-4.20557v2.19141h4.20556v.94531H64.3773v2.97022h4.20556z"/><path d="M79.57748 42.00244L77.49888 50h-1.19776l-1.68116-6.63867L72.97641 50h-1.1709l-2.1162-7.99756h1.09032l1.68116 6.64941 1.6543-6.6494h1.07958l1.67041 6.71386 1.67041-6.71387z"/><path d="M90.21762 46.48193q0 1.92286-1.36426 3.28711-1.35888 1.35889-3.28174 1.35889-1.92285 0-3.2871-1.35889-1.3589-1.36425-1.3589-3.2871 0-1.92286 1.3589-3.28174 1.36425-1.36426 3.2871-1.36426 1.92286 0 3.28174 1.36426 1.36426 1.35888 1.36426 3.28173zm-.62305 0q0-1.66503-1.18164-2.85742-1.17627-1.19238-2.8413-1.19238-1.66504 0-2.84669 1.19238-1.17626 1.19239-1.17626 2.85742 0 1.66504 1.17626 2.85743 1.18165 1.19238 2.84668 1.19238 1.66504 0 2.84131-1.19238 1.18164-1.19239 1.18164-2.85743zm-1.03125 2.36329h-1.19775l-1.77783-1.90674h-.87012v1.90674h-.88623v-4.91456h1.67578q.50488 0 .83252.04297.32764.04297.64453.20948.33838.18261.49414.4458.16114.25781.16114.6499 0 .521-.30616.87012-.30078.34375-.83252.54785zm-1.89062-3.50733q0-.19336-.0752-.34375t-.25243-.24707q-.1665-.09131-.3545-.11816-.18798-.02685-.47265-.02685h-.8003v1.65966h.68213q.33301 0 .57471-.04834.2417-.0537.39746-.17724.1665-.13428.23096-.29541.06982-.16113.06982-.40283z"/><path d="M101.24448 44.41943q0 .53174-.18799.98829-.18262.45117-.51563.78418-.41357.41357-.97754.62304-.56396.2041-1.42334.2041h-1.06347V50h-1.06348v-7.99756h2.16992q.71973 0 1.21924.12354.49951.11816.88623.37597.45654.30615.70361.7627.25245.45654.25245 1.15478zm-1.10645.02685q0-.41357-.14502-.71972-.14502-.30615-.44043-.49951-.25781-.1665-.59082-.23633-.32764-.0752-.83252-.0752h-1.05273v3.1958h.89697q.64453 0 1.04736-.1128.40284-.11816.65528-.3706.25244-.25781.35449-.54248.10742-.28467.10742-.63916z"/><path d="M107.31918 47.10498h-4.42041q0 .55322.16651.9668.1665.4082.45654.67138.2793.25782.66064.38672.38672.1289.84864.1289.6123 0 1.22998-.24169.62304-.24707.88623-.4834h.0537v1.10108q-.51025.21484-1.04199.35986t-1.11719.14502q-1.49316 0-2.33106-.80567-.83789-.81103-.83789-2.29882 0-1.47168.8003-2.33643.80566-.86475 2.11621-.86475 1.21387 0 1.86914.70899.66064.70898.66064 2.01416zm-.98291-.77344q-.005-.79492-.40283-1.22998-.39209-.43506-1.19775-.43506-.81104 0-1.29444.47803-.47802.47803-.54248 1.18701z"/><path d="M112.5936 45.10156h-.0537q-.22559-.0537-.44043-.0752-.20948-.02685-.49951-.02685-.46729 0-.90235.20947-.43506.2041-.83789.53174V50h-1.00976v-5.99951h1.00976v.88623q.60156-.4834 1.05811-.68213.46191-.2041.93994-.2041.26318 0 .38135.0161.11816.01075.35449.04835z"/><path d="M116.77231 42.62012h-.0537q-.16651-.04834-.43506-.09668-.26856-.05371-.47266-.05371-.6499 0-.94531.29004-.29004.28466-.29004 1.03662v.2041h1.8208v.84863h-1.78857V50H113.598v-5.15088h-.68213v-.84863h.68213v-.19873q0-1.06885.53174-1.63819.53174-.5747 1.53613-.5747.33838 0 .60694.03223.27392.03223.49951.0752z"/><path d="M122.52475 47.00293q0 1.4663-.75195 2.31494-.75196.84863-2.01416.84863-1.27295 0-2.02491-.84863-.74658-.84863-.74658-2.31494 0-1.4663.74658-2.31494.75196-.854 2.02491-.854 1.2622 0 2.01416.854.75195.84863.75195 2.31494zm-1.04199 0q0-1.16553-.45655-1.7295-.45654-.56933-1.26757-.56933-.82178 0-1.27832.56934-.45118.56396-.45118 1.72949 0 1.12793.45655 1.71338.45654.58008 1.27295.58008.80566 0 1.2622-.57471.46192-.58008.46192-1.71875z"/><path d="M127.83139 45.10156h-.0537q-.22559-.0537-.44043-.0752-.20947-.02685-.49951-.02685-.46729 0-.90235.20947-.43505.2041-.83789.53174V50h-1.00976v-5.99951h1.00976v.88623q.60157-.4834 1.05811-.68213.46191-.2041.93994-.2041.26318 0 .38135.0161.11816.01075.35449.04835z"/><path d="M137.53696 50h-1.00977v-3.41602q0-.38671-.0376-.74658-.0322-.35986-.14502-.5747-.12353-.23096-.35449-.34913-.23096-.11816-.66601-.11816-.42432 0-.84864.21484-.42431.20948-.84863.53711.0161.12354.0269.29004.0107.16114.0107.32227V50h-1.00977v-3.41602q0-.39746-.0376-.75195-.0322-.35986-.14501-.5747-.12354-.23096-.3545-.34376-.23095-.11816-.66601-.11816-.41358 0-.83252.2041-.41358.2041-.82715.521V50h-1.00977v-5.99951h1.00977v.66601q.47266-.39209.93994-.6123.47266-.22022 1.0044-.22022.6123 0 1.03662.25782.42968.2578.63916.71435.6123-.51562 1.11718-.7412.50489-.23097 1.07959-.23097.98829 0 1.45557.60157.47266.59619.47266 1.6704z"/><path d="M144.1434 50h-1.00439v-.63916q-.13428.09131-.36524.25781-.22558.16114-.44043.25782-.25244.12353-.58007.2041-.32764.08594-.76807.08594-.81104 0-1.375-.53711-.56397-.53711-.56397-1.36963 0-.68213.29004-1.10108.29541-.42431.83789-.66601.54786-.2417 1.31592-.32764.76807-.08594 1.64893-.1289v-.15577q0-.34375-.12354-.56933-.11816-.22559-.34375-.3545-.21484-.12353-.51562-.1665-.30078-.04297-.62842-.04297-.39746 0-.88623.10742-.48877.10205-1.00977.30078h-.0537V44.1294q.29541-.08057.85401-.17725.55859-.09668 1.10107-.09668.63379 0 1.10107.10742.47266.10205.81641.3545.33838.24706.51563.63915.17724.3921.17724.97217zm-1.00439-1.47705v-1.67041q-.46192.02686-1.09033.08057-.62305.0537-.98829.15576-.43505.12354-.70361.38672-.26855.25781-.26855.71436 0 .51562.31152.7788.31152.25782.95068.25782.53174 0 .97217-.2041.44043-.20948.81641-.49952z"/><path d="M151.10434 50h-1.00977v-3.41602q0-.41357-.0483-.77343-.0483-.36524-.17724-.56934-.13428-.22559-.38672-.333-.25244-.1128-.65527-.1128-.41358 0-.86475.2041t-.86475.521V50h-1.00976v-5.99951h1.00976v.66601q.47266-.39209.97754-.6123.50489-.22022 1.03662-.22022.97217 0 1.48243.58545.51025.58545.51025 1.68653z"/><path d="M157.4852 49.62402q-.50488.2417-.96143.37598-.45117.13428-.96142.13428-.6499 0-1.19239-.188-.54248-.19335-.92919-.58007-.39209-.38672-.60694-.97754-.21484-.59082-.21484-1.38037 0-1.47168.80566-2.30957.81104-.83789 2.1377-.83789.51562 0 1.00976.14502.49951.14502.91309.3545v1.12255h-.0537q-.46192-.35986-.95606-.55322-.48877-.19336-.95605-.19336-.85938 0-1.35889.58008-.49414.5747-.49414 1.6919 0 1.08495.4834 1.6704.48877.58008 1.36963.58008.30615 0 .62305-.08057.31689-.08057.56933-.20947.22022-.1128.41358-.23633.19336-.1289.30615-.22022h.0537z"/><path d="M163.80161 47.10498h-4.42041q0 .55322.1665.9668.1665.4082.45654.67138.2793.25782.66065.38672.38672.1289.84863.1289.6123 0 1.22998-.24169.62305-.24707.88623-.4834h.0537v1.10108q-.51025.21484-1.04199.35986t-1.11719.14502q-1.49316 0-2.33105-.80567-.83789-.81103-.83789-2.29882 0-1.47168.80029-2.33643.80566-.86475 2.11621-.86475 1.21387 0 1.86914.70899.66065.70898.66065 2.01416zm-.98291-.77344q-.005-.79492-.40284-1.22998-.39209-.43506-1.19775-.43506-.81104 0-1.29443.47803-.47803.47803-.54248 1.18701z"/><path d="M176.40219 50h-1.06348v-6.89111l-2.22363 4.68896h-.63379l-2.20752-4.68896V50h-.99365v-7.99756h1.4502l2.13232 4.45264 2.0625-4.45264h1.47705z"/><path d="M183.13217 50h-1.00439v-.63916q-.13428.09131-.36524.25781-.22558.16114-.44043.25782-.25244.12353-.58008.2041-.32763.08594-.76806.08594-.81104 0-1.375-.53711-.56397-.53711-.56397-1.36963 0-.68213.29004-1.10108.29541-.42431.83789-.66601.54785-.2417 1.31592-.32764.76807-.08594 1.64893-.1289v-.15577q0-.34375-.12354-.56933-.11816-.22559-.34375-.3545-.21484-.12353-.51562-.1665-.30078-.04297-.62842-.04297-.39746 0-.88623.10742-.48877.10205-1.00977.30078h-.0537V44.1294q.29541-.08057.85401-.17725.55859-.09668 1.10107-.09668.63379 0 1.10107.10742.47266.10205.81641.3545.33838.24706.51563.63915.17724.3921.17724.97217zm-1.00439-1.47705v-1.67041q-.46192.02686-1.09033.08057-.62305.0537-.98829.15576-.43505.12354-.70361.38672-.26855.25781-.26855.71436 0 .51562.31152.7788.31152.25782.95068.25782.53174 0 .97217-.2041.44043-.20948.81641-.49952z"/><path d="M190.09311 50h-1.00977v-3.41602q0-.41357-.0483-.77343-.0483-.36524-.17724-.56934-.13428-.22559-.38672-.333-.25244-.1128-.65527-.1128-.41358 0-.86475.2041t-.86475.521V50h-1.00976v-5.99951h1.00976v.66601q.47266-.39209.97754-.6123.50489-.22022 1.03662-.22022.97217 0 1.48243.58545.51025.58545.51025 1.68653z"/><path d="M196.69955 50h-1.00439v-.63916q-.13428.09131-.36523.25781-.22559.16114-.44043.25782-.25245.12353-.58008.2041-.32764.08594-.76807.08594-.81103 0-1.375-.53711-.56396-.53711-.56396-1.36963 0-.68213.29004-1.10108.29541-.42431.83789-.66601.54785-.2417 1.31591-.32764.76807-.08594 1.64893-.1289v-.15577q0-.34375-.12354-.56933-.11816-.22559-.34375-.3545-.21484-.12353-.51562-.1665-.30078-.04297-.62842-.04297-.39746 0-.88623.10742-.48877.10205-1.00976.30078h-.0537V44.1294q.29541-.08057.85401-.17725.55859-.09668 1.10107-.09668.63379 0 1.10108.10742.47265.10205.8164.3545.33838.24706.51563.63915.17724.3921.17724.97217zm-1.00439-1.47705v-1.67041q-.46191.02686-1.09033.08057-.62305.0537-.98828.15576-.43506.12354-.70362.38672-.26855.25781-.26855.71436 0 .51562.31152.7788.31153.25782.95069.25782.53173 0 .97216-.2041.44043-.20948.81641-.49952z"/><path d="M203.5101 49.31787q0 1.5254-.69287 2.23975-.69287.71435-2.13232.71435-.47803 0-.93457-.06983-.45118-.06445-.89161-.18799V50.9829h.0537q.24707.09668.78417.23633.53711.14502 1.07422.14502.51563 0 .85401-.12353.33838-.12354.52636-.34375.18799-.20948.26856-.50489.0806-.2954.0806-.66064v-.54785q-.45655.36523-.87549.54785-.41358.17725-1.05811.17725-1.07422 0-1.70801-.77344-.62841-.77881-.62841-2.1914 0-.77345.21484-1.33204.22021-.56396.59619-.97217.34912-.38134.84863-.59082.49952-.21484.99366-.21484.52099 0 .87011.10742.3545.10205.74659.3169l.0644-.25782h.94531zm-1.00976-.9668v-3.271q-.40284-.1826-.75196-.2578-.34375-.08057-.6875-.08057-.83252 0-1.31054.55859-.47803.5586-.47803 1.62207 0 1.00977.35449 1.53076.35449.521 1.17627.521.44043 0 .88086-.1665.4458-.17188.81641-.45655z"/><path d="M210.51938 47.10498h-4.42041q0 .55322.1665.9668.16651.4082.45655.67138.27929.25782.66064.38672.38672.1289.84863.1289.61231 0 1.22998-.24169.62305-.24707.88623-.4834h.0537v1.10108q-.51025.21484-1.04199.35986t-1.11719.14502q-1.49316 0-2.33105-.80567-.83789-.81103-.83789-2.29882 0-1.47168.80029-2.33643.80567-.86475 2.11621-.86475 1.21387 0 1.86914.70899.66065.70898.66065 2.01416zm-.98291-.77344q-.005-.79492-.40283-1.22998-.39209-.43506-1.19776-.43506-.81103 0-1.29443.47803-.47803.47803-.54248 1.18701z"/><path d="M220.80502 50h-1.00976v-3.41602q0-.38671-.0376-.74658-.0322-.35986-.14502-.5747-.12353-.23096-.35449-.34913-.23096-.11816-.66602-.11816-.42431 0-.84863.21484-.42432.20948-.84863.53711.0161.12354.0268.29004.0107.16114.0107.32227V50h-1.00976v-3.41602q0-.39746-.0376-.75195-.0322-.35986-.14502-.5747-.12353-.23096-.35449-.34376-.23096-.11816-.66602-.11816-.41357 0-.83252.2041-.41357.2041-.82714.521V50h-1.00977v-5.99951h1.00977v.66601q.47265-.39209.93994-.6123.47265-.22022 1.00439-.22022.61231 0 1.03662.25782.42969.2578.63916.71435.61231-.51562 1.11719-.7412.50488-.23097 1.07959-.23097.98828 0 1.45557.60157.47265.59619.47265 1.6704z"/><path d="M227.77133 47.10498h-4.42041q0 .55322.16651.9668.1665.4082.45654.67138.2793.25782.66064.38672.38672.1289.84864.1289.6123 0 1.22998-.24169.62304-.24707.88623-.4834h.0537v1.10108q-.51026.21484-1.04199.35986-.53174.14502-1.11719.14502-1.49317 0-2.33106-.80567-.83789-.81103-.83789-2.29882 0-1.47168.8003-2.33643.80566-.86475 2.11621-.86475 1.21386 0 1.86914.70899.66064.70898.66064 2.01416zm-.98291-.77344q-.005-.79492-.40283-1.22998-.39209-.43506-1.19775-.43506-.81104 0-1.29444.47803-.47803.47803-.54248 1.18701z"/><path d="M234.3187 50h-1.00977v-3.41602q0-.41357-.0483-.77343-.0483-.36524-.17725-.56934-.13427-.22559-.38672-.333-.25244-.1128-.65527-.1128-.41357 0-.86474.2041-.45118.2041-.86475.521V50h-1.00977v-5.99951h1.00977v.66601q.47266-.39209.97754-.6123.50488-.22022 1.03662-.22022.97217 0 1.48242.58545.51026.58545.51026 1.68653z"/><path d="M239.37827 49.94629q-.28467.0752-.62305.12353-.33301.04834-.59619.04834-.91846 0-1.39649-.49414-.47802-.49414-.47802-1.58447v-3.19043h-.68213v-.84863h.68213v-1.72412h1.00976v1.72412h2.08399v.84863h-2.08399v2.73389q0 .47265.0215.7412.0215.2632.15039.49415.11816.21484.32226.3169.20947.09667.63379.09667.24707 0 .51563-.06983.26855-.0752.38671-.12353h.0537z"/></g></svg>