<svg xmlns="http://www.w3.org/2000/svg" role="img" xmlns:xlink="http://www.w3.org/1999/xlink" viewBox="-4.53 -4.53 248.82 61.32"><title>CA SymDump (API Mediation Layer ZOWE V1) logo</title><path d="M237.32 9.09c-1.06 0-1.93-.86-1.93-1.92s.87-1.93 1.93-1.93 1.93.87 1.93 1.93-.87 1.92-1.93 1.92m0-4.32c-1.32 0-2.4 1.08-2.4 2.4 0 1.32 1.08 2.4 2.4 2.4 1.32 0 2.4-1.08 2.4-2.4 0-1.32-1.08-2.4-2.4-2.4"/><path d="M237.48 7.07l-.51.01-.01-.62h.51c.19-.01.34.11.34.3.01.19-.14.31-.33.31m.83-.32c-.01-.42-.3-.72-.77-.72l-1.07.02.03 2.26h.49l-.01-.81h.35l.46.8.55-.01-.52-.86c.24-.06.49-.28.49-.68M51.8341 23.1805h-5.999V9.3465h5.835c1.574 0 2.557 1.016 2.557 2.393 0 1.377-.983 2.36-2.557 2.36H45v4h6.8341c1.836 0 2.819 1.18 2.819 2.556 0 1.574-1.049 2.525-2.819 2.525m3.376-7.245c2.066-.426 3.771-2.262 3.771-5.015 0-2.918-2.131-5.573-6.295-5.573h-11.506v21.865h11.867c4.163 0 6.359-2.623 6.359-5.901 0-2.754-1.868-5.015-4.196-5.376m17.8225-.5902H68v4.098h3.5576l4.294 7.769h5.343l-4.917-8.327c2.361-.557 4.786-2.622 4.786-6.49m0 0c0-4.065-2.786-7.048-7.343-7.048h-10.228v21.865h4.655V9.4453h4.885c1.869 0 3.278 1.114 3.278 2.95s-1.409 2.95-3.278 2.95m43.4206 4.0652l3.409-9.408 3.41 9.408zm.492-14.063l-8.458 21.865h5.31l1.377-3.704h9.376l1.344 3.704h5.311l-8.425-21.865zm26.9039 17.7671h-3.967v-13.67h3.967c4.491 0 6.851 2.983 6.851 6.852 0 3.704-2.524 6.818-6.851 6.818m0-17.767h-8.622v21.865h8.622c6.851 0 11.604-4.327 11.604-10.916s-4.753-10.949-11.604-10.949m82.1269-.0045l-5.734 9.27-5.734-9.27h-5.146v21.869h4.656v-14.293l5.012 7.622c.574.871 1.851.871 2.424 0l5.013-7.622v14.293h4.656V5.3431z"/><path id="a" d="M95.8253 23.3441c-3.871 0-7.008-3.138-7.008-7.008 0-3.871 3.137-7.009 7.008-7.009 3.87 0 7.008 3.138 7.008 7.009 0 3.87-3.138 7.008-7.008 7.008m0-18.536c-6.367 0-11.528 5.161-11.528 11.528 0 6.366 5.161 11.527 11.528 11.527 6.366 0 11.528-5.161 11.528-11.527 0-6.367-5.162-11.528-11.528-11.528"/><path d="M176.4035 19.7269c-1.195 2.156-3.492 3.617-6.132 3.617-3.87 0-7.008-3.138-7.008-7.008 0-3.871 3.138-7.008 7.008-7.008 2.618 0 4.897 1.438 6.1 3.565l3.27-3.269c-2.092-2.915-5.508-4.816-9.37-4.816-6.367 0-11.527 5.161-11.527 11.528 0 6.366 5.16 11.528 11.527 11.528 3.883 0 7.316-1.922 9.404-4.865z"/><use transform="translate(98.718)" xlink:href="#a"/><ellipse cx="16.52" cy="16.497" fill="#cc092f" rx="16.236" ry="16.235"/><path fill="#fff" d="M30.8253 20.8832c-1.857-.74-3.557-.492-5.261.541 0 0-.621.379-.807.496-.794.498-1.543.97-2.263.97-.687 0-1.363-.184-1.649-1.513-.446-2.073-1.534-7.167-2.009-9.69-.279-1.483-.432-2.282-.591-2.825-.28-.954-.792-1.473-1.519-1.556 0 0-.114-.016-.207-.016-.092 0-.218.018-.218.018-.72.086-1.229.605-1.507 1.554-.159.543-.312 1.342-.591 2.825-.475 2.523-1.563 7.617-2.009 9.69-.286 1.329-.962 1.513-1.649 1.513-.72 0-1.469-.472-2.263-.97-.186-.117-.808-.496-.808-.496-1.703-1.033-3.404-1.281-5.26-.541-.401.16-.79596.33918-1.17196.52018.257.806.57693 1.59925.94993 2.34425.411-.202.84203-.40243 1.28203-.53243.634-.187 1.284-.197 1.914.014.612.205 1.157.568 1.7.909 1.023.643 2.182 1.372 3.657 1.372 2.186 0 3.72-1.305 4.21-3.581.38-1.764 1.222-5.702 1.763-8.418 0 0 1.386 6.654 1.765 8.418.49 2.276 2.025 3.581 4.211 3.581 1.475 0 2.634-.729 3.657-1.372.543-.341 1.088-.704 1.7-.909.629-.211 1.28-.201 1.914-.014.44.13.87039.33065 1.28139.53265.374-.745.69309-1.53862.95009-2.34462-.376-.181-.77048-.36003-1.17148-.52003"/><g text-anchor="middle"><path d="M93.25766 49.41992q-.29541.1289-.5371.2417-.23634.1128-.62306.23633-.32763.10205-.71435.17187-.38135.0752-.84326.0752-.87012 0-1.58448-.2417-.70898-.24707-1.23535-.76806-.51562-.51026-.80566-1.29444-.29004-.78955-.29004-1.83154 0-.98828.2793-1.76709.2793-.7788.80566-1.31592.51025-.521 1.22998-.79492.7251-.27392 1.60596-.27392.64453 0 1.28369.15576.64453.15576 1.42871.54785v1.2622h-.08057q-.66064-.55322-1.31055-.80566-.6499-.25244-1.39111-.25244-.60693 0-1.0957.19873-.4834.19336-.86475.60693-.3706.40284-.58008 1.02051-.2041.6123-.2041 1.41797 0 .84326.22559 1.4502.23095.60693.59082.98828.37597.39746.87549.59082.50488.18799 1.06347.18799.76807 0 1.43946-.26319.67138-.26318 1.25683-.78955h.0752z"/><path d="M101.07797 50h-1.1333l-.78418-2.229h-3.45898L94.91733 50h-1.0796l2.91114-7.99756h1.41797zm-2.24511-3.14209L97.431 42.93164l-1.40723 3.92627z"/><path d="M111.97055 47.71728q0 .46729-.22021.92383-.21485.45655-.60694.77344-.42969.34375-1.00439.53711-.56934.19336-1.375.19336-.86475 0-1.55762-.16113-.6875-.16114-1.40186-.47803v-1.33203h.0752q.60693.50488 1.40186.7788.79492.27393 1.49316.27393.98828 0 1.53613-.3706.55323-.3706.55323-.98828 0-.53174-.26319-.78418-.25781-.25245-.78955-.3921-.40283-.10742-.87549-.17724-.46728-.06982-.99365-.17725-1.06348-.22558-1.5791-.76806-.51026-.54785-.51026-1.42334 0-1.0044.84864-1.64356.84863-.64453 2.15381-.64453.84326 0 1.54687.16114.70361.16113 1.24609.39746v1.25683h-.0752q-.45654-.38672-1.20313-.63916-.74121-.25781-1.52001-.25781-.85401 0-1.375.3545-.51563.35448-.51563.91308 0 .4995.25781.78418.25782.28466.90772.43505.34375.0752.97754.18262t1.07422.22022q.8916.23633 1.34277.71435.45117.47803.45117 1.3374z"/><path d="M118.78647 44.00049l-3.50195 8.2124h-1.07959l1.11718-2.50293-2.39013-5.70947h1.0957l1.84228 4.44726 1.8584-4.44726z"/><path d="M128.86264 50h-1.00977v-3.41602q0-.38671-.0376-.74658-.0322-.35986-.14502-.5747-.12354-.23096-.35449-.34913-.23096-.11816-.66602-.11816-.42432 0-.84863.21484-.42432.20948-.84864.53711.0161.12354.0269.29004.0107.16114.0107.32227V50h-1.00976v-3.41602q0-.39746-.0376-.75195-.0322-.35986-.14502-.5747-.12354-.23096-.35449-.34376-.23096-.11816-.66602-.11816-.41357 0-.83252.2041-.41357.2041-.82715.521V50h-1.00976v-5.99951h1.00976v.66601q.47266-.39209.93994-.6123.47266-.22022 1.0044-.22022.6123 0 1.03662.25782.42969.2578.63916.71435.61231-.51562 1.11719-.7412.50488-.23097 1.07959-.23097.98828 0 1.45556.60157.47266.59619.47266 1.6704z"/><path d="M137.64438 46.00928q0 1.09033-.47803 1.97656-.47265.88623-1.26221 1.375-.54785.33838-1.22461.48877Q134.00815 50 132.90707 50h-2.01953v-7.99756h1.99805q1.1709 0 1.8584.17188.69287.1665 1.1709.46191.8164.51025 1.27295 1.35889.45654.84863.45654 2.01416zm-1.11182-.01611q0-.93994-.32763-1.58448-.32764-.64453-.97754-1.01513-.47266-.26856-1.0044-.3706-.53174-.10743-1.27295-.10743h-.99902v6.17139h.99902q.76807 0 1.33741-.1128.5747-.11279 1.05273-.41894.59619-.38135.8916-1.0044.30078-.62304.30078-1.55761z"/><path d="M144.26694 50h-1.00977v-.66602q-.51025.40284-.97754.61768-.46728.21484-1.03125.21484-.94531 0-1.47168-.5747-.52636-.58008-.52636-1.69727V44.0005h1.00976v3.41601q0 .45655.043.78418.043.32227.18262.55323.14502.23632.37597.34375.23096.10742.67139.10742.39209 0 .854-.2041.46729-.2041.87012-.521v-4.4795h1.00977z"/><path d="M155.00912 50h-1.00976v-3.41602q0-.38671-.0376-.74658-.0322-.35986-.14502-.5747-.12353-.23096-.35449-.34913-.23096-.11816-.66602-.11816-.42431 0-.84863.21484-.42432.20948-.84863.53711.0161.12354.0268.29004.0108.16114.0108.32227V50h-1.00977v-3.41602q0-.39746-.0376-.75195-.0322-.35986-.14502-.5747-.12353-.23096-.35449-.34376-.23096-.11816-.66601-.11816-.41358 0-.83252.2041-.41358.2041-.82715.521V50h-1.00977v-5.99951h1.00977v.66601q.47265-.39209.93994-.6123.47266-.22022 1.00439-.22022.61231 0 1.03662.25782.42969.2578.63916.71435.61231-.51562 1.11719-.7412.50489-.23097 1.07959-.23097.98828 0 1.45557.60157.47265.59619.47265 1.6704z"/><path d="M162.23325 46.92773q0 .73047-.20948 1.3374-.20947.60157-.59082 1.02052-.35449.39746-.83789.61767-.47803.21484-1.01513.21484-.46729 0-.84864-.10205-.37597-.10205-.76806-.3169v2.51368h-1.00977v-8.2124h1.00977v.62842q.40283-.33838.90234-.56397.50488-.23096 1.07422-.23096 1.08496 0 1.68652.82178.60694.8164.60694 2.27197zm-1.042.02686q0-1.08496-.3706-1.62207-.37061-.5371-1.13867-.5371-.43506 0-.87549.18798-.44043.188-.84326.49414v3.3999q.42968.19336.73584.26319.31152.06982.70361.06982.84326 0 1.31592-.56934.47265-.56933.47265-1.68652z"/></g></svg>