<svg xmlns="http://www.w3.org/2000/svg" role="img" xmlns:xlink="http://www.w3.org/1999/xlink" viewBox="-4.53 -4.53 248.82 61.32"><title>CA SYSVIEW® Performance Management (CLI ZOWE V1) logo</title><path d="m 237.32,9.09 c -1.06,0 -1.93,-0.86 -1.93,-1.92 0,-1.06 0.87,-1.93 1.93,-1.93 1.06,0 1.93,0.87 1.93,1.93 0,1.06 -0.87,1.92 -1.93,1.92 m 0,-4.32 c -1.32,0 -2.4,1.08 -2.4,2.4 0,1.32 1.08,2.4 2.4,2.4 1.32,0 2.4,-1.08 2.4,-2.4 0,-1.32 -1.08,-2.4 -2.4,-2.4"/><path d="M237.48 7.07l-.51.01-.01-.62h.51c.19-.01.34.11.34.3.01.19-.14.31-.33.31m.83-.32c-.01-.42-.3-.72-.77-.72l-1.07.02.03 2.26h.49L236.98 7.5h.35l.46.8.55-.01-.52-.86c.24-.06.49-.28.49-.68M51.8341 23.1805h-5.999V9.3465h5.835c1.574 0 2.557 1.016 2.557 2.393 0 1.377-.983 2.36-2.557 2.36H45v4h6.8341c1.836 0 2.819 1.18 2.819 2.556 0 1.574-1.049 2.525-2.819 2.525m3.376-7.245c2.066-.426 3.771-2.262 3.771-5.015 0-2.918-2.131-5.573-6.295-5.573h-11.506v21.865h11.867c4.163 0 6.359-2.623 6.359-5.901 0-2.754-1.868-5.015-4.196-5.376M73.0326 15.3453H68v4.098h3.5576l4.294 7.769h5.343l-4.917-8.327c2.361-.557 4.786-2.622 4.786-6.49m0 0c0-4.065-2.786-7.048-7.343-7.048h-10.228v21.865h4.655V9.4453h4.885c1.869 0 3.278 1.114 3.278 2.95 0 1.836-1.409 2.95-3.278 2.95M116.4532 19.4105l3.409-9.408 3.41 9.408zm.492-14.063l-8.458 21.865h5.31l1.377-3.704h9.376l1.344 3.704h5.311l-8.425-21.865zM143.8491 23.1146h-3.967v-13.67h3.967c4.491 0 6.851 2.983 6.851 6.852 0 3.704-2.524 6.818-6.851 6.818m0-17.767h-8.622v21.865h8.622c6.851 0 11.604-4.327 11.604-10.916 0-6.589-4.753-10.949-11.604-10.949M225.976 5.3431l-5.734 9.27-5.734-9.27h-5.146v21.869h4.656v-14.293l5.012 7.622c.574.871 1.851.871 2.424 0l5.013-7.622v14.293h4.656V5.3431z"/><path id="a" d="m 95.8253,23.3441 c -3.871,0 -7.008,-3.138 -7.008,-7.008 0,-3.871 3.137,-7.009 7.008,-7.009 3.87,0 7.008,3.138 7.008,7.009 0,3.87 -3.138,7.008 -7.008,7.008 m 0,-18.536 c -6.367,0 -11.528,5.161 -11.528,11.528 0,6.366 5.161,11.527 11.528,11.527 6.366,0 11.528,-5.161 11.528,-11.527 0,-6.367 -5.162,-11.528 -11.528,-11.528"/><path d="m 176.4035,19.7269 c -1.195,2.156 -3.492,3.617 -6.132,3.617 -3.87,0 -7.008,-3.138 -7.008,-7.008 0,-3.871 3.138,-7.008 7.008,-7.008 2.618,0 4.897,1.438 6.1,3.565 l 3.27,-3.269 c -2.092,-2.915 -5.508,-4.816 -9.37,-4.816 -6.367,0 -11.527,5.161 -11.527,11.528 0,6.366 5.16,11.528 11.527,11.528 3.883,0 7.316,-1.922 9.404,-4.865 z"/><use transform="translate(98.718)" xlink:href="#a"/><ellipse cx="16.52" cy="16.497" fill="#cc092f" rx="16.236" ry="16.235"/><path fill="#fff" d="m 30.8253,20.8832 c -1.857,-0.74 -3.557,-0.492 -5.261,0.541 0,0 -0.621,0.379 -0.807,0.496 -0.794,0.498 -1.543,0.97 -2.263,0.97 -0.687,0 -1.363,-0.184 -1.649,-1.513 -0.446,-2.073 -1.534,-7.167 -2.009,-9.69 -0.279,-1.483 -0.432,-2.282 -0.591,-2.825 -0.28,-0.954 -0.792,-1.473 -1.519,-1.556 0,0 -0.114,-0.016 -0.207,-0.016 -0.092,0 -0.218,0.018 -0.218,0.018 -0.72,0.086 -1.229,0.605 -1.507,1.554 -0.159,0.543 -0.312,1.342 -0.591,2.825 -0.475,2.523 -1.563,7.617 -2.009,9.69 -0.286,1.329 -0.962,1.513 -1.649,1.513 -0.72,0 -1.469,-0.472 -2.263,-0.97 -0.186,-0.117 -0.808,-0.496 -0.808,-0.496 -1.703,-1.033 -3.404,-1.281 -5.26,-0.541 -0.401,0.16 -0.7959632,0.339183 -1.1719632,0.520183 0.257,0.806 0.5769317,1.59925 0.9499317,2.34425 0.411,-0.202 0.8420315,-0.402433 1.2820315,-0.532433 0.634,-0.187 1.284,-0.197 1.914,0.014 0.612,0.205 1.157,0.568 1.7,0.909 1.023,0.643 2.182,1.372 3.657,1.372 2.186,0 3.72,-1.305 4.21,-3.581 0.38,-1.764 1.222,-5.702 1.763,-8.418 0,0 1.386,6.654 1.765,8.418 0.49,2.276 2.025,3.581 4.211,3.581 1.475,0 2.634,-0.729 3.657,-1.372 0.543,-0.341 1.088,-0.704 1.7,-0.909 0.629,-0.211 1.28,-0.201 1.914,-0.014 0.44,0.13 0.870387,0.330647 1.281387,0.532647 0.374,-0.745 0.693089,-1.538621 0.950089,-2.344621 -0.376,-0.181 -0.770476,-0.360026 -1.171476,-0.520026"/><g text-anchor="middle"><path d="M11.869141 49.419922q-.295411.128906-.53711.241699-.236328.112793-.623047.236328Q10.381348 50 9.9946289 50.069824q-.3813476.0752-.8432617.0752-.8701172 0-1.5844727-.2417Q6.8579102 49.65625 6.331543 49.135254 5.815918 48.625 5.5258789 47.84082 5.2358398 47.05127 5.2358398 46.009277q0-.988281.2792969-1.76709.2792969-.778808.8056641-1.315917.5102539-.520997 1.2299804-.794922.7250977-.273926 1.6059571-.273926.6445312 0 1.2836917.155762.644531.155761 1.428711.547851v1.262207h-.08057Q11.12793 43.27002 10.478027 43.017578 9.828125 42.765137 9.0869141 42.765137q-.6069336 0-1.0957032.19873-.4833984.19336-.8647461.606934-.3706054.402832-.5800781 1.020508-.2041015.612304-.2041015 1.417968 0 .843262.2255859 1.450196.230957.606933.5908203.988281.3759766.397461.8754883.59082.5048828.187988 1.0634766.187988.7680664 0 1.4394527-.263183.671387-.263184 1.256836-.789551h.0752zM19.689453 50H18.556152L17.771973 47.770996H14.312988L13.528809 50h-1.07959l2.911133-7.997559H16.77832zM17.444336 46.85791L16.04248 42.931641 14.635254 46.85791zM30.582031 47.717285q0 .467285-.220215.923828-.214843.456543-.606933.773438-.429688.34375-1.004395.537109-.569336.19336-1.375.19336-.864746 0-1.557617-.161133-.6875-.161133-1.401855-.478028v-1.332031h.0752q.606934.504883 1.401855.778809.794922.273925 1.493164.273925.988282 0 1.536133-.370605.553223-.370605.553223-.988281 0-.531739-.263184-.78418-.257812-.252441-.78955-.39209-.402832-.107422-.875489-.177246-.467285-.06982-.993652-.177246-1.063477-.225586-1.579102-.768066-.510254-.547852-.510254-1.42334 0-1.004395.848633-1.643555.848633-.644531 2.153809-.644531.843262 0 1.546875.161133.703613.161132 1.246094.397461v1.256836h-.0752q-.456543-.386719-1.203125-.639161-.741211-.257812-1.520019-.257812-.854004 0-1.375.354492-.515625.354492-.515625.913086 0 .499512.257812.78418.257813.284668.907715.435058.34375.0752.977539.182617.633789.107422 1.074219.220215.891601.236328 1.342773.714356.451172.478027.451172 1.337402zM37.951172 42.002441l-2.814453 4.490235V50h-1.063477v-3.394531l-2.825195-4.603028h1.176269l2.186036 3.577149 2.207519-3.577149zM44.869141 47.717285q0 .467285-.220215.923828-.214844.456543-.606934.773438-.429687.34375-1.004394.537109-.569336.19336-1.375.19336-.864746 0-1.557618-.161133-.6875-.161133-1.401855-.478028v-1.332031h.0752q.606934.504883 1.401856.778809.794922.273925 1.493164.273925.988281 0 1.536133-.370605.553222-.370605.553222-.988281 0-.531739-.263183-.78418-.257813-.252441-.789551-.39209-.402832-.107422-.875488-.177246-.467286-.06982-.993653-.177246-1.063476-.225586-1.579101-.768066-.510254-.547852-.510254-1.42334 0-1.004395.848633-1.643555.848632-.644531 2.153808-.644531.843262 0 1.546875.161133.703614.161132 1.246094.397461v1.256836h-.0752q-.456543-.386719-1.203125-.639161-.741211-.257812-1.52002-.257812-.854004 0-1.375.354492-.515625.354492-.515625.913086 0 .499512.257813.78418.257812.284668.907714.435058.34375.0752.97754.182617.633789.107422 1.074218.220215.891602.236328 1.342774.714356.451172.478027.451172 1.337402zM52.882812 42.002441L49.97168 50h-1.417969l-2.911133-7.997559h1.138672l2.508301 7.036133 2.508301-7.036133zM56.916504 50h-3.158203v-.816406h1.047363v-6.364746h-1.047363v-.816407h3.158203v.816407h-1.047363v6.364746h1.047363zM64.006348 50h-5.269043v-7.997559h5.269043v.945313h-4.205567v2.191406h4.205567v.945313h-4.205567v2.970214h4.205567zM75.006348 42.002441L72.927734 50H71.72998L70.048828 43.361328 68.405273 50h-1.170898l-2.116211-7.997559h1.090332l1.681152 6.649414 1.654297-6.649414h1.07959l1.67041 6.713868 1.67041-6.713868zM85.641113 46.481934q0 1.922851-1.364258 3.287109-1.358886 1.358887-3.281738 1.358887-1.922851 0-3.287109-1.358887-1.358887-1.364258-1.358887-3.287109 0-1.922852 1.358887-3.281739 1.364258-1.364258 3.287109-1.364258 1.922852 0 3.281738 1.364258 1.364258 1.358887 1.364258 3.281739zm-.623047 0q0-1.665039-1.18164-2.857422-1.17627-1.192383-2.841309-1.192383-1.665039 0-2.84668 1.192383-1.176269 1.192383-1.176269 2.857422 0 1.665039 1.176269 2.857421 1.181641 1.192383 2.84668 1.192383 1.665039 0 2.841309-1.192383 1.18164-1.192382 1.18164-2.857421zm-1.03125 2.363281H82.789062L81.01123 46.938477h-.870117v1.906738h-.88623v-4.914551h1.675781q.504883 0 .83252.04297.327636.04297.644531.209472.338379.182618.49414.445801.161133.257813.161133.649903 0 .520996-.306152.870117-.300781.34375-.83252.547851zm-1.890625-3.507324q0-.19336-.0752-.34375-.07519-.150391-.252441-.247071-.166504-.09131-.354493-.118164-.187988-.02685-.472656-.02685h-.800293v1.659668h.682129q.333008 0 .574707-.04834.241699-.05371.397461-.177246.166504-.134278.230957-.29541.06982-.161133.06982-.402832zM96.667969 44.419434q0 .531738-.187989.988281-.182617.451172-.515625.78418-.413574.413574-.977539.623046-.563964.204102-1.423339.204102H92.5V50h-1.063477v-7.997559h2.169922q.719727 0 1.219239.123536.499511.118164.88623.375976.456543.306152.703613.762695.252442.456543.252442 1.154786zm-1.106446.02685q0-.413574-.145019-.719727-.14502-.306152-.44043-.499511-.257812-.166504-.59082-.236328-.327637-.0752-.83252-.0752H92.5v3.195801h.896973q.644531 0 1.047363-.112793.402832-.118164.655273-.370605.252442-.257813.354493-.542481.107421-.284668.107421-.63916zM103.0166 47.10498h-4.420409q0 .553223.166504.966797.166504.408203.456543.671387.279297.257813.660645.386719.386717.128906.848637.128906.6123 0 1.22998-.241699.62304-.24707.88623-.483399h.0537v1.101075q-.51026.214843-1.04199.359863-.53174.145019-1.11719.145019-1.493166 0-2.331057-.805664-.837891-.811035-.837891-2.298828 0-1.471679.800293-2.336426.805665-.864746 2.116215-.864746 1.21386 0 1.86914.708985.66064.708984.66064 2.01416zm-.98291-.773437q-.005-.794922-.40283-1.229981-.39209-.435058-1.19775-.435058-.81104 0-1.294438.478027-.478027.478028-.542481 1.187012zM108.29102 45.101562h-.0537q-.22558-.05371-.44042-.0752-.20948-.02685-.49952-.02685-.46728 0-.90234.209472-.43506.204102-.83789.531739V50h-1.00977v-5.999512h1.00977v.886231q.60156-.483399 1.0581-.682129.46192-.204102.93995-.204102.26318 0 .38134.01611.11817.01074.3545.04834zM112.48047 42.620117h-.0537q-.16651-.04834-.43506-.09668-.26856-.05371-.47266-.05371-.6499 0-.94531.290039-.29004.284668-.29004 1.036621v.204101h1.8208v.848633h-1.78857V50h-1.00977v-5.150879h-.68213v-.848633h.68213v-.19873q0-1.068848.53174-1.638184.53174-.574707 1.53613-.574707.33838 0 .60694.03223.27392.03223.49951.0752zM118.23291 47.00293q0 1.466308-.75195 2.314941-.75196.848633-2.01416.848633-1.27295 0-2.02491-.848633-.74658-.848633-.74658-2.314941 0-1.466309.74658-2.314942.75196-.854004 2.02491-.854004 1.2622 0 2.01416.854004.75195.848633.75195 2.314942zm-1.04199 0q0-1.165528-.45654-1.729493-.45655-.569335-1.26758-.569335-.82178 0-1.27832.569335-.45118.563965-.45118 1.729493 0 1.127929.45655 1.713379.45654.580078 1.27295.580078.80566 0 1.2622-.574707.46192-.580078.46192-1.71875zM123.54492 45.101562h-.0537q-.22558-.05371-.44043-.0752-.20947-.02685-.49951-.02685-.46729 0-.90234.209472-.43506.204102-.83789.531739V50h-1.00977v-5.999512h1.00977v.886231q.60156-.483399 1.0581-.682129.46191-.204102.93994-.204102.26319 0 .38135.01611.11816.01074.35449.04834zM133.26123 50h-1.00977v-3.416016q0-.386718-.0376-.746582-.0322-.359863-.14502-.574707-.12354-.230957-.35449-.349121-.23096-.118164-.66602-.118164-.42432 0-.84863.214844-.42432.209473-.84864.537109.0161.123535.0269.290039.0107.161133.0107.322266V50h-1.00976v-3.416016q0-.397461-.0376-.751953-.0322-.359863-.14502-.574707-.12354-.230957-.35449-.34375-.23096-.118164-.66602-.118164-.41357 0-.83252.204102-.41357.204101-.82715.520996V50h-1.00976v-5.999512h1.00976v.666016q.47266-.39209.93994-.612305.47266-.220215 1.0044-.220215.6123 0 1.03662.257813.42969.257812.63916.714355.61231-.515625 1.11719-.741211.50488-.230957 1.07959-.230957.98828 0 1.45556.601563.47266.596191.47266 1.67041zM139.86768 50h-1.0044v-.63916q-.13428.09131-.36523.257812-.22559.161133-.44043.257813-.25244.123535-.58008.204101-.32764.08594-.76807.08594-.81103 0-1.375-.537109-.56396-.53711-.56396-1.369629 0-.682129.29004-1.101075.29541-.424316.83789-.666015.54785-.241699 1.31592-.327637.76806-.08594 1.64892-.128906v-.155762q0-.34375-.12353-.569336-.11817-.225586-.34375-.354492-.21485-.123535-.51563-.166504-.30078-.04297-.62842-.04297-.39746 0-.88623.107422-.48877.102051-1.00976.300781h-.0537v-1.025878q.29541-.08057.854-.177247.55859-.09668 1.10107-.09668.63379 0 1.10108.107422.47265.10205.8164.354492.33838.24707.51563.63916.17725.39209.17725.972168zm-1.0044-1.477051v-1.67041q-.46191.02686-1.09033.08057-.62305.05371-.98828.155762-.43506.123535-.70362.386719-.26855.257812-.26855.714355 0 .515625.31152.778809.31153.257812.95069.257812.53174 0 .97216-.204101.44043-.209473.81641-.499512zM146.83936 50h-1.00977v-3.416016q0-.413574-.0483-.773437-.0483-.365235-.17725-.569336-.13427-.225586-.38671-.333008-.25245-.112793-.65528-.112793-.41357 0-.86474.204102-.45118.204101-.86475.520996V50h-1.00977v-5.999512h1.00977v.666016q.47266-.39209.97754-.612305.50488-.220215 1.03662-.220215.97217 0 1.48242.58545.51026.585449.51026 1.686523zM153.22021 49.624023q-.50488.2417-.96142.375977-.45117.134277-.96143.134277-.6499 0-1.19238-.187988-.54248-.193359-.9292-.580078-.39209-.386719-.60693-.977539-.21485-.59082-.21485-1.380371 0-1.47168.80567-2.309571.81103-.83789 2.13769-.83789.51563 0 1.00977.145019.49951.14502.91308.354493v1.122558h-.0537q-.46191-.359863-.95605-.553223-.48877-.193359-.95606-.193359-.85937 0-1.35888.580078-.49414.574707-.49414 1.691895 0 1.084961.4834 1.67041.48877.580078 1.36962.580078.30616 0 .62305-.08057.3169-.08057.56934-.209473.22021-.112793.41357-.236328.19336-.128906.30615-.220215h.0537zM159.54199 47.10498h-4.42041q0 .553223.16651.966797.1665.408203.45654.671387.2793.257813.66064.386719.38672.128906.84864.128906.6123 0 1.22998-.241699.62304-.24707.88623-.483399h.0537v1.101075q-.51026.214843-1.04199.359863-.53174.145019-1.11719.145019-1.49317 0-2.33106-.805664-.83789-.811035-.83789-2.298828 0-1.471679.8003-2.336426.80566-.864746 2.11621-.864746 1.21386 0 1.86914.708985.66064.708984.66064 2.01416zm-.98291-.773437q-.005-.794922-.40283-1.229981-.39209-.435058-1.19775-.435058-.81104 0-1.29444.478027-.47802.478028-.54248 1.187012zM172.14258 50h-1.06348v-6.891113l-2.22363 4.688965h-.63379l-2.20752-4.688965V50h-.99365v-7.997559h1.45019l2.13233 4.452637 2.0625-4.452637h1.47705zM178.8833 50h-1.00439v-.63916q-.13428.09131-.36524.257812-.22558.161133-.44043.257813-.25244.123535-.58008.204101-.32763.08594-.76806.08594-.81104 0-1.375-.537109-.56397-.53711-.56397-1.369629 0-.682129.29004-1.101075.29541-.424316.83789-.666015.54785-.241699 1.31592-.327637.76807-.08594 1.64893-.128906v-.155762q0-.34375-.12354-.569336-.11816-.225586-.34375-.354492-.21484-.123535-.51562-.166504-.30079-.04297-.62842-.04297-.39746 0-.88623.107422-.48877.102051-1.00977.300781h-.0537v-1.025878q.29541-.08057.854-.177247.5586-.09668 1.10108-.09668.63379 0 1.10107.107422.47266.10205.81641.354492.33838.24707.51562.63916.17725.39209.17725.972168zm-1.00439-1.477051v-1.67041q-.46192.02686-1.09034.08057-.62304.05371-.98828.155762-.43506.123535-.70361.386719-.26856.257812-.26856.714355 0 .515625.31153.778809.31152.257812.95068.257812.53174 0 .97217-.204101.44043-.209473.81641-.499512zM185.85498 50h-1.00977v-3.416016q0-.413574-.0483-.773437-.0483-.365235-.17724-.569336-.13428-.225586-.38672-.333008-.25244-.112793-.65527-.112793-.41358 0-.86475.204102-.45117.204101-.86475.520996V50h-1.00976v-5.999512h1.00976v.666016q.47266-.39209.97754-.612305.50489-.220215 1.03662-.220215.97217 0 1.48243.58545.51025.585449.51025 1.686523zM192.46143 50h-1.0044v-.63916q-.13428.09131-.36523.257812-.22559.161133-.44043.257813-.25244.123535-.58008.204101-.32764.08594-.76807.08594-.81103 0-1.375-.537109-.56396-.53711-.56396-1.369629 0-.682129.29004-1.101075.29541-.424316.83789-.666015.54785-.241699 1.31592-.327637.76806-.08594 1.64892-.128906v-.155762q0-.34375-.12353-.569336-.11817-.225586-.34375-.354492-.21485-.123535-.51563-.166504-.30078-.04297-.62842-.04297-.39746 0-.88623.107422-.48877.102051-1.00976.300781h-.0537v-1.025878q.29541-.08057.854-.177247.55859-.09668 1.10107-.09668.63379 0 1.10108.107422.47265.10205.8164.354492.33838.24707.51563.63916.17725.39209.17725.972168zm-1.0044-1.477051v-1.67041q-.46191.02686-1.09033.08057-.62305.05371-.98828.155762-.43506.123535-.70362.386719-.26855.257812-.26855.714355 0 .515625.31152.778809.31153.257812.95069.257812.53174 0 .97216-.204101.44043-.209473.81641-.499512zM199.28271 49.317871q0 1.525391-.69287 2.239746-.69287.714356-2.13232.714356-.47803 0-.93457-.06983-.45117-.06445-.8916-.187988v-1.03125h.0537q.24707.09668.78418.236328.53711.14502 1.07422.14502.51562 0 .854-.123535.33838-.123536.52637-.34375.18799-.209473.26855-.504883.0806-.29541.0806-.660645v-.547851q-.45654.365234-.87549.547851-.41357.177246-1.0581.177246-1.07422 0-1.70801-.773437-.62842-.778809-.62842-2.191406 0-.773438.21484-1.332032.22022-.563964.59619-.972168.34913-.381347.84864-.59082.49951-.214844.99365-.214844.521 0 .87012.107422.35449.102051.74658.316895l.0644-.257813h.94531zm-1.00976-.966797v-3.270996q-.40283-.182617-.75195-.257812-.34375-.08057-.6875-.08057-.83252 0-1.31055.558594-.47803.558594-.47803 1.62207 0 1.009766.35449 1.530762.3545.520996 1.17627.520996.44043 0 .88086-.166504.4458-.171875.81641-.456543zM206.29199 47.10498h-4.42041q0 .553223.16651.966797.1665.408203.45654.671387.2793.257813.66064.386719.38672.128906.84864.128906.6123 0 1.22998-.241699.62304-.24707.88623-.483399h.0537v1.101075q-.51026.214843-1.04199.359863-.53174.145019-1.11719.145019-1.49317 0-2.33106-.805664-.83789-.811035-.83789-2.298828 0-1.471679.8003-2.336426.80566-.864746 2.11621-.864746 1.21386 0 1.86914.708985.66064.708984.66064 2.01416zm-.98291-.773437q-.005-.794922-.40283-1.229981-.39209-.435058-1.19775-.435058-.81104 0-1.29444.478027-.47802.478028-.54248 1.187012zM216.57764 50h-1.00977v-3.416016q0-.386718-.0376-.746582-.0322-.359863-.14502-.574707-.12353-.230957-.35449-.349121-.23096-.118164-.66601-.118164-.42432 0-.84864.214844-.42431.209473-.84863.537109.0161.123535.0269.290039.0107.161133.0107.322266V50h-1.00977v-3.416016q0-.397461-.0376-.751953-.0322-.359863-.14501-.574707-.12354-.230957-.3545-.34375-.23095-.118164-.66601-.118164-.41358 0-.83252.204102-.41358.204101-.82715.520996V50h-1.00977v-5.999512h1.00977v.666016q.47266-.39209.93994-.612305.47266-.220215 1.0044-.220215.6123 0 1.03662.257813.42968.257812.63916.714355.6123-.515625 1.11718-.741211.50489-.230957 1.07959-.230957.98829 0 1.45557.601563.47266.596191.47266 1.67041zM223.54395 47.10498h-4.42041q0 .553223.1665.966797.1665.408203.45654.671387.2793.257813.66065.386719.38672.128906.84863.128906.6123 0 1.22998-.241699.62305-.24707.88623-.483399h.0537v1.101075q-.51025.214843-1.04199.359863-.53174.145019-1.11719.145019-1.49316 0-2.33105-.805664-.83789-.811035-.83789-2.298828 0-1.471679.80029-2.336426.80566-.864746 2.11621-.864746 1.21387 0 1.86914.708985.66065.708984.66065 2.01416zm-.98291-.773437q-.005-.794922-.40284-1.229981-.39209-.435058-1.19775-.435058-.81104 0-1.29443.478027-.47803.478028-.54248 1.187012zM230.09131 50h-1.00977v-3.416016q0-.413574-.0483-.773437-.0483-.365235-.17724-.569336-.13428-.225586-.38672-.333008-.25244-.112793-.65528-.112793-.41357 0-.86474.204102-.45117.204101-.86475.520996V50h-1.00976v-5.999512h1.00976v.666016q.47266-.39209.97754-.612305.50488-.220215 1.03662-.220215.97217 0 1.48242.58545.51026.585449.51026 1.686523zM235.15088 49.946289q-.28467.0752-.62305.123535-.33301.04834-.59619.04834-.91846 0-1.39648-.494141-.47803-.49414-.47803-1.584472v-3.19043H231.375v-.848633h.68213v-1.724121h1.00976v1.724121h2.08399v.848633h-2.08399v2.733887q0 .472656.0215.741211.0215.263183.15039.49414.11816.214844.32227.316895.20947.09668.63378.09668.24707 0 .51563-.06983.26855-.0752.38672-.123535h.0537z"/></g></svg>