<svg xmlns="http://www.w3.org/2000/svg" role="img" xmlns:xlink="http://www.w3.org/1999/xlink" viewBox="-4.53 -4.53 248.82 59.32"><title>CA Secure Credential Store (CLI 2019) logo</title><path d="M237.32 9.09c-1.06 0-1.93-.86-1.93-1.92s.87-1.93 1.93-1.93 1.93.87 1.93 1.93-.87 1.92-1.93 1.92m0-4.32c-1.32 0-2.4 1.08-2.4 2.4 0 1.32 1.08 2.4 2.4 2.4 1.32 0 2.4-1.08 2.4-2.4 0-1.32-1.08-2.4-2.4-2.4"/><path d="M237.48 7.07l-.51.01-.01-.62h.51c.19-.01.34.11.34.3.01.19-.14.31-.33.31m.83-.32c-.01-.42-.3-.72-.77-.72l-1.07.02.03 2.26h.49l-.01-.81h.35l.46.8.55-.01-.52-.86c.24-.06.49-.28.49-.68M51.8341 23.1805h-5.999V9.3465h5.835c1.574 0 2.557 1.016 2.557 2.393 0 1.377-.983 2.36-2.557 2.36H45v4h6.8341c1.836 0 2.819 1.18 2.819 2.556 0 1.574-1.049 2.525-2.819 2.525m3.376-7.245c2.066-.426 3.771-2.262 3.771-5.015 0-2.918-2.131-5.573-6.295-5.573h-11.506v21.865h11.867c4.163 0 6.359-2.623 6.359-5.901 0-2.754-1.868-5.015-4.196-5.376m17.8225-.5902H68v4.098h3.5576l4.294 7.769h5.343l-4.917-8.327c2.361-.557 4.786-2.622 4.786-6.49m0 0c0-4.065-2.786-7.048-7.343-7.048h-10.228v21.865h4.655V9.4453h4.885c1.869 0 3.278 1.114 3.278 2.95s-1.409 2.95-3.278 2.95m43.4206 4.0652l3.409-9.408 3.41 9.408zm.492-14.063l-8.458 21.865h5.31l1.377-3.704h9.376l1.344 3.704h5.311l-8.425-21.865zm26.9039 17.7671h-3.967v-13.67h3.967c4.491 0 6.851 2.983 6.851 6.852 0 3.704-2.524 6.818-6.851 6.818m0-17.767h-8.622v21.865h8.622c6.851 0 11.604-4.327 11.604-10.916s-4.753-10.949-11.604-10.949m82.1269-.0045l-5.734 9.27-5.734-9.27h-5.146v21.869h4.656v-14.293l5.012 7.622c.574.871 1.851.871 2.424 0l5.013-7.622v14.293h4.656V5.3431z"/><path id="a" d="M95.8253 23.3441c-3.871 0-7.008-3.138-7.008-7.008 0-3.871 3.137-7.009 7.008-7.009 3.87 0 7.008 3.138 7.008 7.009 0 3.87-3.138 7.008-7.008 7.008m0-18.536c-6.367 0-11.528 5.161-11.528 11.528 0 6.366 5.161 11.527 11.528 11.527 6.366 0 11.528-5.161 11.528-11.527 0-6.367-5.162-11.528-11.528-11.528"/><path d="M176.4035 19.7269c-1.195 2.156-3.492 3.617-6.132 3.617-3.87 0-7.008-3.138-7.008-7.008 0-3.871 3.138-7.008 7.008-7.008 2.618 0 4.897 1.438 6.1 3.565l3.27-3.269c-2.092-2.915-5.508-4.816-9.37-4.816-6.367 0-11.527 5.161-11.527 11.528 0 6.366 5.16 11.528 11.527 11.528 3.883 0 7.316-1.922 9.404-4.865z"/><use transform="translate(98.718)" xlink:href="#a"/><ellipse cx="16.52" cy="16.497" fill="#cc092f" rx="16.236" ry="16.235"/><path fill="#fff" d="M30.8253 20.8832c-1.857-.74-3.557-.492-5.261.541 0 0-.621.379-.807.496-.794.498-1.543.97-2.263.97-.687 0-1.363-.184-1.649-1.513-.446-2.073-1.534-7.167-2.009-9.69-.279-1.483-.432-2.282-.591-2.825-.28-.954-.792-1.473-1.519-1.556 0 0-.114-.016-.207-.016-.092 0-.218.018-.218.018-.72.086-1.229.605-1.507 1.554-.159.543-.312 1.342-.591 2.825-.475 2.523-1.563 7.617-2.009 9.69-.286 1.329-.962 1.513-1.649 1.513-.72 0-1.469-.472-2.263-.97-.186-.117-.808-.496-.808-.496-1.703-1.033-3.404-1.281-5.26-.541-.401.16-.79596.33918-1.17196.52018.257.806.57693 1.59925.94993 2.34425.411-.202.84203-.40243 1.28203-.53243.634-.187 1.284-.197 1.914.014.612.205 1.157.568 1.7.909 1.023.643 2.182 1.372 3.657 1.372 2.186 0 3.72-1.305 4.21-3.581.38-1.764 1.222-5.702 1.763-8.418 0 0 1.386 6.654 1.765 8.418.49 2.276 2.025 3.581 4.211 3.581 1.475 0 2.634-.729 3.657-1.372.543-.341 1.088-.704 1.7-.909.629-.211 1.28-.201 1.914-.014.44.13.87039.33065 1.28139.53265.374-.745.69309-1.53862.95009-2.34462-.376-.181-.77048-.36003-1.17148-.52003"/><path d="M33.99707 40.58008v1.45605q-.69727-.64941-1.49023-.9707-.78614-.32129-1.6748-.32129-1.75 0-2.6797 1.07324-.92968 1.0664-.92968 3.08985 0 2.0166.92968 3.08984.9297 1.0664 2.6797 1.0664.88866 0 1.6748-.32128.79297-.3213 1.49023-.9707v1.44238q-.7246.49219-1.53809.73828-.80664.2461-1.70898.2461-2.31738 0-3.6504-1.41505-1.333-1.42187-1.333-3.87597 0-2.46094 1.333-3.87598 1.33302-1.42188 3.6504-1.42188.91602 0 1.72266.2461.81347.23926 1.52441.7246zm5.55762.57422l-1.87305 5.0791h3.75293zm-.7793-1.36035h1.56543L44.23047 50h-1.43555l-.92969-2.61816h-4.60058L36.33496 50h-1.45605zm17.51367.33496v1.34668q-.78613-.37598-1.4834-.56055-.69726-.18457-1.34668-.18457-1.12792 0-1.74316.4375-.6084.4375-.6084 1.24414 0 .67676.40332 1.02539.41016.3418 1.54492.55371l.83399.1709q1.54492.29395 2.27637 1.03906.73828.73828.73828 1.98242 0 1.4834-.99805 2.24903-.99121.76562-2.9121.76562-.72462 0-1.54493-.16406-.81348-.16406-1.68848-.48535v-1.42188q.84082.47168 1.64746.71094.80664.23926 1.58594.23926 1.18262 0 1.8252-.46485.64257-.46484.64257-1.32617 0-.75195-.46484-1.17578-.458-.42383-1.51074-.63574l-.84082-.16406q-1.54492-.30762-2.23535-.96387-.69043-.65625-.69043-1.8252 0-1.35351.9502-2.1328.95702-.7793 2.63183-.7793.71777 0 1.46289.12988t1.52441.38965zm9.2627 5.72851v.61524h-5.7832q.08203 1.29882.7793 1.98242.7041.67676 1.95507.67676.7246 0 1.40137-.17774.6836-.17773 1.35351-.5332v1.18945q-.67676.28711-1.3877.4375-.71093.1504-1.44238.1504-1.83203 0-2.90527-1.06641-1.0664-1.06641-1.0664-2.88477 0-1.87988 1.01171-2.98047 1.01856-1.10742 2.74121-1.10742 1.54493 0 2.44043.99805.90235.9912.90235 2.7002zm-1.25781-.36914q-.01367-1.03223-.58106-1.64746-.56055-.61523-1.49023-.61523-1.05274 0-1.68848.59472-.6289.59473-.72461 1.6748zm8.83203-2.85059v1.17579q-.5332-.29395-1.07325-.4375-.5332-.1504-1.08007-.1504-1.22364 0-1.9004.7793-.67675.77246-.67675 2.17383t.67676 2.18066q.67675.77247 1.90039.77247.54687 0 1.08007-.14356.54004-.15039 1.07325-.44434v1.16212q-.52637.24609-1.09375.36913-.56055.12305-1.1963.12305-1.72949 0-2.74804-1.08691-1.01855-1.08692-1.01855-2.93262 0-1.87305 1.02539-2.94629 1.03222-1.07324 2.82324-1.07324.58105 0 1.13476.12305.55371.1162 1.07325.35547zm2.07129 4.34083v-4.63477h1.2578v4.58691q0 1.08692.42384 1.6338.42382.54003 1.27148.54003 1.01855 0 1.60645-.64941.59472-.64942.59472-1.77051v-4.34082h1.25781V50h-1.2578v-1.17578q-.45802.69726-1.06641 1.03906-.60157.33496-1.40137.33496-1.31934 0-2.00293-.82031-.6836-.82031-.6836-2.39941zm3.16503-4.81934zm10.2881 1.36035q-.21192-.12305-.46485-.17773-.2461-.06152-.54688-.06152-1.0664 0-1.64062.69726-.56739.69043-.56739 1.98926V50h-1.26464v-7.65625h1.26464v1.18945q.39649-.69726 1.03223-1.03222.63574-.3418 1.54492-.3418.12988 0 .28711.02051.15723.01367.34863.04785zm7.58104 2.3379v.61523h-5.7832q.08203 1.29882.7793 1.98242.7041.67676 1.95508.67676.7246 0 1.40136-.17774.6836-.17773 1.35352-.5332v1.18945q-.67676.28711-1.3877.4375-.71093.1504-1.44238.1504-1.83203 0-2.90527-1.06641-1.0664-1.06641-1.0664-2.88477 0-1.87988 1.01171-2.98047 1.01856-1.10742 2.74121-1.10742 1.54492 0 2.44043.99805.90234.9912.90234 2.7002zm-1.2578-.36915q-.01368-1.03223-.58106-1.64746-.56055-.61523-1.49024-.61523-1.05273 0-1.68847.59472-.6289.59473-.72461 1.6748zm15.47656-4.9082v1.45605q-.69727-.64941-1.49024-.9707-.78613-.32129-1.6748-.32129-1.75 0-2.67969 1.07324-.92969 1.0664-.92969 3.08985 0 2.0166.92969 3.08984.92969 1.0664 2.67969 1.0664.88867 0 1.6748-.32128.79297-.3213 1.49024-.9707v1.44238q-.72461.49219-1.53809.73828-.80664.2461-1.70898.2461-2.31739 0-3.6504-1.41505-1.333-1.42187-1.333-3.87597 0-2.46094 1.333-3.87598 1.33301-1.42188 3.6504-1.42188.91601 0 1.72265.2461.81348.23926 1.52442.7246zm6.52832 2.93945q-.21192-.12305-.46485-.17773-.24609-.06152-.54687-.06152-1.06641 0-1.64063.69726-.56738.69043-.56738 1.98926V50h-1.26465v-7.65625h1.26465v1.18945q.39648-.69726 1.03223-1.03222.63574-.3418 1.54492-.3418.12988 0 .28711.02051.15722.01367.34863.04785zm7.58105 2.3379v.61523h-5.7832q.082 1.29882.77929 1.98242.70411.67676 1.95508.67676.72461 0 1.40137-.17774.68359-.17773 1.35352-.5332v1.18945q-.67676.28711-1.3877.4375-.71094.1504-1.44238.1504-1.83203 0-2.90528-1.06641-1.0664-1.06641-1.0664-2.88477 0-1.87988 1.01172-2.98047 1.01855-1.10742 2.74121-1.10742 1.54492 0 2.44043.99805.90234.9912.90234 2.7002zm-1.25781-.36915q-.0137-1.03223-.58106-1.64746-.56054-.61523-1.49023-.61523-1.05274 0-1.68848.59472-.6289.59473-.72461 1.6748zm8.36035-1.98242v-4.14258h1.25781V50h-1.25781v-1.14844q-.39649.6836-1.00488 1.01856-.60157.32812-1.44922.32812-1.3877 0-2.2627-1.10742-.86816-1.10742-.86816-2.9121 0-1.8047.86816-2.91212.875-1.10742 2.2627-1.10742.84765 0 1.44922.33496.60839.32813 1.00488 1.01172zm-4.28613 2.67285q0 1.3877.56738 2.18066.57422.78614 1.57226.78614.99805 0 1.57227-.78614.57422-.79296.57422-2.18066 0-1.3877-.57422-2.17383-.57422-.79297-1.57227-.79297-.99804 0-1.57226.79297-.56738.78614-.56738 2.17383zm14.68359-.32129v.61524h-5.7832q.082 1.29882.77929 1.98242.70411.67676 1.95508.67676.72461 0 1.40137-.17774.68359-.17773 1.35351-.5332v1.18945q-.67675.28711-1.38769.4375-.71094.1504-1.44238.1504-1.83203 0-2.90528-1.06641-1.0664-1.06641-1.0664-2.88477 0-1.87988 1.01172-2.98047 1.01855-1.10742 2.74121-1.10742 1.54492 0 2.44043.99805.90234.9912.90234 2.7002zm-1.25781-.36914q-.0137-1.03223-.58106-1.64746-.56054-.61523-1.49023-.61523-1.05274 0-1.68848.59472-.6289.59473-.72461 1.6748zm9.68652-.10937V50h-1.25781v-4.58008q0-1.08691-.42383-1.62695-.42383-.54004-1.27148-.54004-1.01856 0-1.60645.64941-.58789.64942-.58789 1.77051V50h-1.26465v-7.65625h1.26465v1.18945q.45117-.69043 1.05957-1.03222.61523-.3418 1.41504-.3418 1.31934 0 1.99609.82031.67676.81348.67676 2.39942zm3.7666-5.20899v2.17383h2.59082v.97754h-2.59082v4.15625q0 .93652.25293 1.20312.25977.2666 1.0459.2666h1.29199V50h-1.29199q-1.45605 0-2.00976-.54004-.55372-.54687-.55372-1.98242v-4.15625h-.92285v-.97754h.92285v-2.17383zm4.25196 2.17383h1.25781V50h-1.25781zm0-2.98047h1.25781v1.59277h-1.25781zm7.3623 6.78809q-1.52441 0-2.1123.34863-.58789.34863-.58789 1.18945 0 .66992.4375 1.0664.44433.38966 1.20312.38966 1.0459 0 1.6748-.73828.63575-.74512.63575-1.97559v-.28027zm2.50879-.51953V50h-1.25781v-1.1621q-.43067.69726-1.07325 1.03222-.64257.32812-1.57226.32812-1.17578 0-1.87305-.65625-.69043-.66308-.69043-1.7705 0-1.292.86133-1.94825.86816-.65625 2.58399-.65625h1.76367v-.12304q0-.86817-.57422-1.33985-.56738-.47851-1.59961-.47851-.65625 0-1.27832.15722-.62207.15723-1.19629.47168v-1.1621q.69043-.2666 1.33984-.3965.64942-.13671 1.26465-.13671 1.66113 0 2.48145.86133.82031.86133.82031 2.61133zm2.59766-6.26856h1.25781V50h-1.25781zm14.51269.76563v1.34668q-.78613-.37598-1.4834-.56055-.69726-.18457-1.34668-.18457-1.12793 0-1.74316.4375-.6084.4375-.6084 1.24414 0 .67676.40332 1.02539.41016.3418 1.54492.55371l.83399.1709q1.54492.29395 2.27636 1.03906.73829.73828.73829 1.98242 0 1.4834-.99805 2.24903-.99121.76562-2.91211.76562-.72461 0-1.54492-.16406-.81348-.16406-1.68848-.48535v-1.42188q.84082.47168 1.64746.71094.80664.23926 1.58594.23926 1.18262 0 1.82519-.46485.64258-.46484.64258-1.32617 0-.75195-.46484-1.17578-.45801-.42383-1.51074-.63574l-.84082-.16406q-1.54493-.30762-2.23536-.96387-.69042-.65625-.69042-1.8252 0-1.35351.95019-2.1328.95703-.7793 2.63184-.7793.71777 0 1.46289.12988.74511.12988 1.52441.38965zm3.95801.04101v2.17383h2.59082v.97754h-2.59082v4.15625q0 .93652.25293 1.20312.25976.2666 1.0459.2666h1.29199V50h-1.29199q-1.45606 0-2.00977-.54004-.55371-.54687-.55371-1.98242v-4.15625h-.92285v-.97754h.92285v-2.17383zm7.21875 3.05567q-1.01172 0-1.59961.79297-.58789.78613-.58789 2.16015 0 1.37402.58105 2.167.58789.78613 1.60645.78613 1.00488 0 1.59277-.79297t.58789-2.16016q0-1.36035-.58789-2.15332-.58789-.7998-1.59277-.7998zm0-1.06641q1.64062 0 2.57715 1.0664.93652 1.06641.93652 2.95313 0 1.87988-.93652 2.95313-.93653 1.0664-2.57715 1.0664-1.64746 0-2.58399-1.0664-.92968-1.07325-.92968-2.95313 0-1.88672.92968-2.95312.93653-1.06641 2.58399-1.06641zm10.02832 1.36035q-.21191-.12305-.46484-.17773-.2461-.06152-.54688-.06152-1.06641 0-1.64062.69726-.56739.69043-.56739 1.98926V50h-1.26465v-7.65625h1.26465v1.18945q.39649-.69726 1.03223-1.03222.63574-.3418 1.54492-.3418.12988 0 .28711.02051.15723.01367.34863.04785zm7.58105 2.3379v.61523h-5.7832q.082 1.29882.7793 1.98242.7041.67676 1.95508.67676.72461 0 1.40136-.17774.6836-.17773 1.35352-.5332v1.18945q-.67676.28711-1.3877.4375-.71093.1504-1.44238.1504-1.83203 0-2.90527-1.06641-1.06641-1.06641-1.06641-2.88477 0-1.87988 1.01172-2.98047 1.01855-1.10742 2.74121-1.10742 1.54492 0 2.44043.99805.90234.9912.90234 2.7002zm-1.25781-.36915q-.0137-1.03223-.58105-1.64746-.56055-.61523-1.49024-.61523-1.05273 0-1.68847.59472-.62891.59473-.72461 1.6748z" text-anchor="middle"/></svg>