<svg xmlns="http://www.w3.org/2000/svg" role="img" xmlns:xlink="http://www.w3.org/1999/xlink" viewBox="-4.53 -4.53 248.82 59.32"><title>CA Secure Credential Store logo</title><path id="path4" d="M237.32 9.09c-1.06 0-1.93-.86-1.93-1.92s.87-1.93 1.93-1.93 1.93.87 1.93 1.93-.87 1.92-1.93 1.92m0-4.32c-1.32 0-2.4 1.08-2.4 2.4 0 1.32 1.08 2.4 2.4 2.4 1.32 0 2.4-1.08 2.4-2.4 0-1.32-1.08-2.4-2.4-2.4"/><path id="path6" d="M237.48 7.07l-.51.01-.01-.62h.51c.19-.01.34.11.34.3.01.19-.14.31-.33.31m.83-.32c-.01-.42-.3-.72-.77-.72l-1.07.02.03 2.26h.49l-.01-.81h.35l.46.8.55-.01-.52-.86c.24-.06.49-.28.49-.68M51.8341 23.1805h-5.999V9.3465h5.835c1.574 0 2.557 1.016 2.557 2.393 0 1.377-.983 2.36-2.557 2.36H45v4h6.8341c1.836 0 2.819 1.18 2.819 2.556 0 1.574-1.049 2.525-2.819 2.525m3.376-7.245c2.066-.426 3.771-2.262 3.771-5.015 0-2.918-2.131-5.573-6.295-5.573h-11.506v21.865h11.867c4.163 0 6.359-2.623 6.359-5.901 0-2.754-1.868-5.015-4.196-5.376m17.8225-.5902H68v4.098h3.5576l4.294 7.769h5.343l-4.917-8.327c2.361-.557 4.786-2.622 4.786-6.49m0 0c0-4.065-2.786-7.048-7.343-7.048h-10.228v21.865h4.655V9.4453h4.885c1.869 0 3.278 1.114 3.278 2.95s-1.409 2.95-3.278 2.95m43.4206 4.0652l3.409-9.408 3.41 9.408zm.492-14.063l-8.458 21.865h5.31l1.377-3.704h9.376l1.344 3.704h5.311l-8.425-21.865zm26.9039 17.7671h-3.967v-13.67h3.967c4.491 0 6.851 2.983 6.851 6.852 0 3.704-2.524 6.818-6.851 6.818m0-17.767h-8.622v21.865h8.622c6.851 0 11.604-4.327 11.604-10.916s-4.753-10.949-11.604-10.949m82.1269-.0045l-5.734 9.27-5.734-9.27h-5.146v21.869h4.656v-14.293l5.012 7.622c.574.871 1.851.871 2.424 0l5.013-7.622v14.293h4.656V5.3431z"/><path id="a" d="M95.8253 23.3441c-3.871 0-7.008-3.138-7.008-7.008 0-3.871 3.137-7.009 7.008-7.009 3.87 0 7.008 3.138 7.008 7.009 0 3.87-3.138 7.008-7.008 7.008m0-18.536c-6.367 0-11.528 5.161-11.528 11.528 0 6.366 5.161 11.527 11.528 11.527 6.366 0 11.528-5.161 11.528-11.527 0-6.367-5.162-11.528-11.528-11.528"/><path id="path9" d="M176.4035 19.7269c-1.195 2.156-3.492 3.617-6.132 3.617-3.87 0-7.008-3.138-7.008-7.008 0-3.871 3.138-7.008 7.008-7.008 2.618 0 4.897 1.438 6.1 3.565l3.27-3.269c-2.092-2.915-5.508-4.816-9.37-4.816-6.367 0-11.527 5.161-11.527 11.528 0 6.366 5.16 11.528 11.527 11.528 3.883 0 7.316-1.922 9.404-4.865z"/><use id="use11" transform="translate(98.718)" xlink:href="#a"/><ellipse id="ellipse13" cx="16.52" cy="16.497" fill="#cc092f" rx="16.236" ry="16.235"/><path id="path15" fill="#fff" d="M30.8253 20.8832c-1.857-.74-3.557-.492-5.261.541 0 0-.621.379-.807.496-.794.498-1.543.97-2.263.97-.687 0-1.363-.184-1.649-1.513-.446-2.073-1.534-7.167-2.009-9.69-.279-1.483-.432-2.282-.591-2.825-.28-.954-.792-1.473-1.519-1.556 0 0-.114-.016-.207-.016-.092 0-.218.018-.218.018-.72.086-1.229.605-1.507 1.554-.159.543-.312 1.342-.591 2.825-.475 2.523-1.563 7.617-2.009 9.69-.286 1.329-.962 1.513-1.649 1.513-.72 0-1.469-.472-2.263-.97-.186-.117-.808-.496-.808-.496-1.703-1.033-3.404-1.281-5.26-.541-.401.16-.79596.33918-1.17196.52018.257.806.57693 1.59925.94993 2.34425.411-.202.84203-.40243 1.28203-.53243.634-.187 1.284-.197 1.914.014.612.205 1.157.568 1.7.909 1.023.643 2.182 1.372 3.657 1.372 2.186 0 3.72-1.305 4.21-3.581.38-1.764 1.222-5.702 1.763-8.418 0 0 1.386 6.654 1.765 8.418.49 2.276 2.025 3.581 4.211 3.581 1.475 0 2.634-.729 3.657-1.372.543-.341 1.088-.704 1.7-.909.629-.211 1.28-.201 1.914-.014.44.13.87039.33065 1.28139.53265.374-.745.69309-1.53862.95009-2.34462-.376-.181-.77048-.36003-1.17148-.52003"/><g id="text17" text-anchor="middle"><path id="path25" d="m 62.427582,49.472656 q -0.268555,0.117188 -0.488281,0.219727 -0.214844,0.102539 -0.566407,0.214844 -0.297851,0.09277 -0.649414,0.15625 -0.346679,0.06836 -0.766601,0.06836 -0.791016,0 -1.44043,-0.219727 Q 57.871918,49.6875 57.393402,49.213867 56.924652,48.75 56.66098,48.037109 56.397308,47.319336 56.397308,46.37207 q 0,-0.898437 0.253907,-1.606445 0.253906,-0.708008 0.732421,-1.196289 0.463868,-0.473633 1.118165,-0.722656 0.659179,-0.249024 1.45996,-0.249024 0.585938,0 1.166993,0.141602 0.585937,0.141601 1.298828,0.498047 v 1.147461 h -0.07324 q -0.600586,-0.50293 -1.191407,-0.732422 -0.59082,-0.229492 -1.264648,-0.229492 -0.551758,0 -0.996094,0.180664 -0.439453,0.175781 -0.786133,0.551757 -0.336914,0.366211 -0.527343,0.927735 -0.185547,0.55664 -0.185547,1.289062 0,0.766602 0.205078,1.31836 0.209961,0.551757 0.537109,0.898437 0.341797,0.361328 0.795899,0.53711 0.458984,0.170898 0.966797,0.170898 0.698242,0 1.308593,-0.239258 0.610352,-0.239258 1.142578,-0.717773 h 0.06836 z"/><path id="path27" d="M 69.527191,50 H 68.496918 L 67.784027,47.973633 H 64.639496 L 63.926605,50 H 62.94516 l 2.646484,-7.270508 h 1.289063 z m -2.041015,-2.856445 -1.274415,-3.569336 -1.279296,3.569336 z"/><path id="path29" d="m 79.429535,47.924805 q 0,0.424804 -0.200195,0.839843 -0.195313,0.415039 -0.551758,0.703125 -0.390625,0.3125 -0.913086,0.488282 -0.517578,0.175781 -1.25,0.175781 -0.786133,0 -1.416016,-0.146484 -0.625,-0.146485 -1.274414,-0.434571 v -1.210937 h 0.06836 q 0.551757,0.458984 1.274414,0.708008 0.722656,0.249023 1.357421,0.249023 0.898438,0 1.396485,-0.336914 0.50293,-0.336914 0.50293,-0.898438 0,-0.483398 -0.239258,-0.71289 -0.234375,-0.229492 -0.717774,-0.356446 -0.366211,-0.09766 -0.795898,-0.161132 -0.424805,-0.06348 -0.90332,-0.161133 -0.966797,-0.205078 -1.435547,-0.698242 -0.463868,-0.498047 -0.463868,-1.293946 0,-0.913086 0.771485,-1.49414 0.771484,-0.585938 1.958008,-0.585938 0.766601,0 1.40625,0.146485 0.639648,0.146484 1.132812,0.361328 v 1.142578 h -0.06836 q -0.415039,-0.351563 -1.09375,-0.581055 -0.673828,-0.234375 -1.381836,-0.234375 -0.776367,0 -1.25,0.322266 -0.46875,0.322265 -0.46875,0.830078 0,0.454101 0.234375,0.712891 0.234375,0.258789 0.825195,0.395507 0.3125,0.06836 0.888672,0.166016 0.576172,0.09766 0.976563,0.200195 0.810546,0.214844 1.220703,0.649414 0.410156,0.434571 0.410156,1.215821 z"/><path id="path31" d="m 85.474457,47.368164 h -4.018555 q 0,0.50293 0.151367,0.878906 0.151367,0.371094 0.415039,0.610352 0.253907,0.234375 0.600586,0.351562 0.351563,0.117188 0.771485,0.117188 0.55664,0 1.118164,-0.219727 0.566406,-0.224609 0.805664,-0.439453 h 0.04883 v 1.000977 q -0.463867,0.195312 -0.947266,0.327148 -0.483398,0.131836 -1.015625,0.131836 -1.357422,0 -2.11914,-0.732422 -0.761719,-0.737304 -0.761719,-2.089844 0,-1.33789 0.727539,-2.124023 0.732422,-0.786133 1.923828,-0.786133 1.103516,0 1.699219,0.644531 0.600586,0.644532 0.600586,1.831055 z m -0.893555,-0.703125 q -0.0049,-0.722656 -0.366211,-1.118164 -0.356445,-0.395508 -1.088867,-0.395508 -0.737305,0 -1.176758,0.43457 -0.43457,0.434571 -0.493164,1.079102 z"/><path id="path33" d="M 90.899261,49.658203 Q 90.440277,49.87793 90.025238,50 q -0.410156,0.12207 -0.874023,0.12207 -0.590821,0 -1.083985,-0.170898 -0.493164,-0.175781 -0.844726,-0.527344 -0.356446,-0.351562 -0.551758,-0.888672 -0.195313,-0.537109 -0.195313,-1.254883 0,-1.33789 0.732422,-2.099609 0.737305,-0.761719 1.94336,-0.761719 0.46875,0 0.917968,0.131836 0.454102,0.131836 0.830078,0.322266 v 1.020508 h -0.04883 q -0.419922,-0.327149 -0.86914,-0.50293 -0.444336,-0.175781 -0.869141,-0.175781 -0.78125,0 -1.235351,0.527343 -0.449219,0.522461 -0.449219,1.538086 0,0.986329 0.439453,1.518555 0.444336,0.527344 1.245117,0.527344 0.27832,0 0.566406,-0.07324 0.288086,-0.07324 0.517578,-0.19043 0.200196,-0.102539 0.375977,-0.214844 0.175781,-0.117187 0.27832,-0.200195 h 0.04883 z"/><path id="path35" d="m 96.597504,50 h -0.917969 v -0.605469 q -0.463867,0.366211 -0.888672,0.561524 -0.424805,0.195312 -0.9375,0.195312 -0.859375,0 -1.337891,-0.522461 -0.478515,-0.527344 -0.478515,-1.542969 v -3.540039 h 0.917969 v 3.105469 q 0,0.415039 0.03906,0.712891 0.03906,0.292969 0.166016,0.502929 0.131836,0.214844 0.341797,0.3125 0.20996,0.09766 0.610351,0.09766 0.356445,0 0.776367,-0.185547 0.424805,-0.185547 0.791016,-0.473633 v -4.072266 h 0.917969 z"/><path id="path37" d="m 101.80746,45.546875 h -0.0488 q -0.20508,-0.04883 -0.40039,-0.06836 -0.19043,-0.02441 -0.45411,-0.02441 -0.4248,0 -0.82031,0.190429 -0.395506,0.185547 -0.761717,0.483399 V 50 h -0.917969 v -5.454102 h 0.917969 v 0.805664 q 0.546875,-0.439453 0.961917,-0.620117 0.41992,-0.185547 0.85449,-0.185547 0.23926,0 0.34668,0.01465 0.10742,0.0098 0.32226,0.04395 z"/><path id="path39" d="m 107.23715,47.368164 h -4.01855 q 0,0.50293 0.15136,0.878906 0.15137,0.371094 0.41504,0.610352 0.25391,0.234375 0.60059,0.351562 0.35156,0.117188 0.77148,0.117188 0.55664,0 1.11817,-0.219727 0.5664,-0.224609 0.80566,-0.439453 h 0.0488 v 1.000977 q -0.46387,0.195312 -0.94727,0.327148 -0.48339,0.131836 -1.01562,0.131836 -1.35742,0 -2.11914,-0.732422 -0.76172,-0.737304 -0.76172,-2.089844 0,-1.33789 0.72754,-2.124023 0.73242,-0.786133 1.92383,-0.786133 1.10351,0 1.69922,0.644531 0.60058,0.644532 0.60058,1.831055 z m -0.89355,-0.703125 q -0.005,-0.722656 -0.36621,-1.118164 -0.35645,-0.395508 -1.08887,-0.395508 -0.73731,0 -1.17676,0.43457 -0.43457,0.434571 -0.49316,1.079102 z"/><path id="path41" d="m 117.83286,49.472656 q -0.26856,0.117188 -0.48829,0.219727 -0.21484,0.102539 -0.5664,0.214844 -0.29785,0.09277 -0.64942,0.15625 -0.34668,0.06836 -0.7666,0.06836 -0.79101,0 -1.44043,-0.219727 -0.64453,-0.224609 -1.12304,-0.698242 -0.46875,-0.463867 -0.73243,-1.176758 -0.26367,-0.717773 -0.26367,-1.665039 0,-0.898437 0.25391,-1.606445 0.2539,-0.708008 0.73242,-1.196289 0.46387,-0.473633 1.11816,-0.722656 0.65918,-0.249024 1.45996,-0.249024 0.58594,0 1.167,0.141602 0.58593,0.141601 1.29883,0.498047 v 1.147461 h -0.0733 q -0.60058,-0.50293 -1.1914,-0.732422 -0.59082,-0.229492 -1.26465,-0.229492 -0.55176,0 -0.9961,0.180664 -0.43945,0.175781 -0.78613,0.551757 -0.33691,0.366211 -0.52734,0.927735 -0.18555,0.55664 -0.18555,1.289062 0,0.766602 0.20508,1.31836 0.20996,0.551757 0.53711,0.898437 0.3418,0.361328 0.7959,0.53711 0.45898,0.170898 0.96679,0.170898 0.69825,0 1.3086,-0.239258 0.61035,-0.239258 1.14258,-0.717773 h 0.0684 z"/><path id="path43" d="m 122.53012,45.546875 h -0.0488 q -0.20508,-0.04883 -0.40039,-0.06836 -0.19043,-0.02441 -0.4541,-0.02441 -0.4248,0 -0.82031,0.190429 -0.39551,0.185547 -0.76172,0.483399 V 50 h -0.91797 v -5.454102 h 0.91797 v 0.805664 q 0.54687,-0.439453 0.96191,-0.620117 0.41993,-0.185547 0.8545,-0.185547 0.23925,0 0.34668,0.01465 0.10742,0.0098 0.32226,0.04395 z"/><path id="path45" d="m 127.95981,47.368164 h -4.01856 q 0,0.50293 0.15137,0.878906 0.15137,0.371094 0.41504,0.610352 0.25391,0.234375 0.60059,0.351562 0.35156,0.117188 0.77148,0.117188 0.55664,0 1.11816,-0.219727 0.56641,-0.224609 0.80567,-0.439453 h 0.0488 v 1.000977 q -0.46387,0.195312 -0.94727,0.327148 -0.4834,0.131836 -1.01562,0.131836 -1.35743,0 -2.11914,-0.732422 -0.76172,-0.737304 -0.76172,-2.089844 0,-1.33789 0.72754,-2.124023 0.73242,-0.786133 1.92382,-0.786133 1.10352,0 1.69922,0.644531 0.60059,0.644532 0.60059,1.831055 z m -0.89356,-0.703125 q -0.005,-0.722656 -0.36621,-1.118164 -0.35644,-0.395508 -1.08886,-0.395508 -0.73731,0 -1.17676,0.43457 -0.43457,0.434571 -0.49317,1.079102 z"/><path id="path47" d="m 133.77524,50 h -0.91797 v -0.571289 q -0.39551,0.341797 -0.8252,0.532226 -0.42968,0.19043 -0.93261,0.19043 -0.97657,0 -1.55274,-0.751953 -0.57129,-0.751953 -0.57129,-2.084961 0,-0.693359 0.19532,-1.235351 0.20019,-0.541993 0.53711,-0.922852 0.33203,-0.371094 0.77148,-0.566406 0.44434,-0.195313 0.91797,-0.195313 0.42969,0 0.76172,0.09277 0.33203,0.08789 0.69824,0.27832 v -2.363281 h 0.91797 z m -0.91797,-1.342773 v -3.129883 q -0.37109,-0.166016 -0.66406,-0.229492 -0.29297,-0.06348 -0.63965,-0.06348 -0.77149,0 -1.20117,0.537109 -0.42969,0.53711 -0.42969,1.523438 0,0.97168 0.33203,1.479492 0.33203,0.50293 1.06445,0.50293 0.39063,0 0.79102,-0.170899 0.40039,-0.175781 0.74707,-0.449218 z"/><path id="path49" d="m 140.14731,47.368164 h -4.01856 q 0,0.50293 0.15137,0.878906 0.15137,0.371094 0.41504,0.610352 0.25391,0.234375 0.60059,0.351562 0.35156,0.117188 0.77148,0.117188 0.55664,0 1.11816,-0.219727 0.56641,-0.224609 0.80567,-0.439453 h 0.0488 v 1.000977 q -0.46387,0.195312 -0.94727,0.327148 -0.4834,0.131836 -1.01562,0.131836 -1.35743,0 -2.11914,-0.732422 -0.76172,-0.737304 -0.76172,-2.089844 0,-1.33789 0.72754,-2.124023 0.73242,-0.786133 1.92382,-0.786133 1.10352,0 1.69922,0.644531 0.60059,0.644532 0.60059,1.831055 z m -0.89356,-0.703125 q -0.005,-0.722656 -0.36621,-1.118164 -0.35644,-0.395508 -1.08886,-0.395508 -0.73731,0 -1.17676,0.43457 -0.43457,0.434571 -0.49317,1.079102 z"/><path id="path51" d="m 146.09946,50 h -0.91797 v -3.105469 q 0,-0.375976 -0.0439,-0.703125 -0.0439,-0.332031 -0.16113,-0.517578 -0.12207,-0.205078 -0.35156,-0.302734 -0.22949,-0.102539 -0.59571,-0.102539 -0.37597,0 -0.78613,0.185547 -0.41015,0.185546 -0.78613,0.473632 V 50 h -0.91797 v -5.454102 h 0.91797 v 0.605469 q 0.42969,-0.356445 0.88867,-0.55664 0.45898,-0.200196 0.94238,-0.200196 0.88379,0 1.34766,0.532227 0.46387,0.532226 0.46387,1.533203 z"/><path id="path53" d="m 150.69907,49.951172 q -0.25879,0.06836 -0.56641,0.112305 -0.30273,0.04395 -0.54199,0.04395 -0.83496,0 -1.26953,-0.449219 -0.43457,-0.449219 -0.43457,-1.44043 v -2.90039 h -0.62012 v -0.771485 h 0.62012 v -1.567382 h 0.91796 v 1.567382 h 1.89454 v 0.771485 h -1.89454 v 2.485351 q 0,0.429688 0.0195,0.673828 0.0195,0.239258 0.13671,0.449219 0.10743,0.195313 0.29297,0.288086 0.19043,0.08789 0.57618,0.08789 0.2246,0 0.46875,-0.06348 0.24414,-0.06836 0.35156,-0.112304 h 0.0488 z"/><path id="path55" d="m 152.79379,43.632812 h -1.03515 v -0.952148 h 1.03515 z M 152.7352,50 h -0.91797 v -5.454102 h 0.91797 z"/><path id="path57" d="m 158.78989,50 h -0.91309 v -0.581055 q -0.12207,0.08301 -0.33203,0.234375 -0.20508,0.146485 -0.40039,0.234375 -0.22949,0.112305 -0.52735,0.185547 -0.29785,0.07813 -0.69824,0.07813 -0.7373,0 -1.25,-0.488281 -0.51269,-0.488281 -0.51269,-1.245117 0,-0.620117 0.26367,-1.000977 0.26855,-0.385742 0.76172,-0.605469 0.49804,-0.219726 1.19629,-0.297851 0.69824,-0.07813 1.49902,-0.117188 v -0.141601 q 0,-0.3125 -0.1123,-0.517578 -0.10743,-0.205078 -0.3125,-0.322266 -0.19532,-0.112305 -0.46875,-0.151367 -0.27344,-0.03906 -0.57129,-0.03906 -0.36133,0 -0.80567,0.09766 -0.44433,0.09277 -0.91797,0.273437 h -0.0488 v -0.932617 q 0.26855,-0.07324 0.77636,-0.161133 0.50782,-0.08789 1.00098,-0.08789 0.57617,0 1.00098,0.09766 0.42968,0.09277 0.74218,0.322265 0.30762,0.22461 0.46875,0.581055 0.16114,0.356445 0.16114,0.883789 z m -0.91309,-1.342773 v -1.518555 q -0.41992,0.02441 -0.99121,0.07324 -0.56641,0.04883 -0.89844,0.141602 -0.39551,0.112304 -0.63965,0.351562 -0.24414,0.234375 -0.24414,0.649414 0,0.46875 0.28321,0.708008 0.2832,0.234375 0.86425,0.234375 0.4834,0 0.88379,-0.185547 0.40039,-0.19043 0.74219,-0.454101 z"/><path id="path59" d="m 161.4852,50 h -0.91797 v -7.597656 h 0.91797 z"/><path id="path61" d="m 172.17368,47.924805 q 0,0.424804 -0.2002,0.839843 -0.19531,0.415039 -0.55176,0.703125 -0.39062,0.3125 -0.91308,0.488282 -0.51758,0.175781 -1.25,0.175781 -0.78614,0 -1.41602,-0.146484 -0.625,-0.146485 -1.27441,-0.434571 v -1.210937 h 0.0684 q 0.55175,0.458984 1.27441,0.708008 0.72266,0.249023 1.35742,0.249023 0.89844,0 1.39649,-0.336914 0.50293,-0.336914 0.50293,-0.898438 0,-0.483398 -0.23926,-0.71289 -0.23438,-0.229492 -0.71778,-0.356446 -0.36621,-0.09766 -0.79589,-0.161132 -0.42481,-0.06348 -0.90332,-0.161133 -0.9668,-0.205078 -1.43555,-0.698242 -0.46387,-0.498047 -0.46387,-1.293946 0,-0.913086 0.77149,-1.49414 0.77148,-0.585938 1.958,-0.585938 0.76661,0 1.40625,0.146485 0.63965,0.146484 1.13282,0.361328 v 1.142578 h -0.0684 q -0.41504,-0.351563 -1.09375,-0.581055 -0.67383,-0.234375 -1.38184,-0.234375 -0.77637,0 -1.25,0.322266 -0.46875,0.322265 -0.46875,0.830078 0,0.454101 0.23438,0.712891 0.23437,0.258789 0.82519,0.395507 0.3125,0.06836 0.88867,0.166016 0.57618,0.09766 0.97657,0.200195 0.81054,0.214844 1.2207,0.649414 0.41016,0.434571 0.41016,1.215821 z"/><path id="path63" d="m 176.4852,49.951172 q -0.25879,0.06836 -0.56641,0.112305 -0.30273,0.04395 -0.54199,0.04395 -0.83496,0 -1.26953,-0.449219 -0.43457,-0.449219 -0.43457,-1.44043 v -2.90039 h -0.62012 v -0.771485 h 0.62012 v -1.567382 h 0.91797 v 1.567382 h 1.89453 v 0.771485 h -1.89453 v 2.485351 q 0,0.429688 0.0195,0.673828 0.0195,0.239258 0.13672,0.449219 0.10742,0.195313 0.29297,0.288086 0.19043,0.08789 0.57617,0.08789 0.22461,0 0.46875,-0.06348 0.24414,-0.06836 0.35156,-0.112304 h 0.0488 z"/><path id="path65" d="m 182.24203,47.275391 q 0,1.333007 -0.68359,2.104492 -0.68359,0.771484 -1.83105,0.771484 -1.15723,0 -1.84082,-0.771484 -0.67871,-0.771485 -0.67871,-2.104492 0,-1.333008 0.67871,-2.104493 0.68359,-0.776367 1.84082,-0.776367 1.14746,0 1.83105,0.776367 0.68359,0.771485 0.68359,2.104493 z m -0.94726,0 q 0,-1.059571 -0.41504,-1.572266 -0.41504,-0.517578 -1.15234,-0.517578 -0.74707,0 -1.16211,0.517578 -0.41016,0.512695 -0.41016,1.572266 0,1.02539 0.41504,1.557617 0.41504,0.527344 1.15723,0.527344 0.73242,0 1.14746,-0.522461 0.41992,-0.527344 0.41992,-1.5625 z"/><path id="path67" d="m 187.06625,45.546875 h -0.0488 q -0.20508,-0.04883 -0.4004,-0.06836 -0.19042,-0.02441 -0.4541,-0.02441 -0.4248,0 -0.82031,0.190429 -0.39551,0.185547 -0.76172,0.483399 V 50 h -0.91797 v -5.454102 h 0.91797 v 0.805664 q 0.54688,-0.439453 0.96192,-0.620117 0.41992,-0.185547 0.85449,-0.185547 0.23926,0 0.34668,0.01465 0.10742,0.0098 0.32226,0.04395 z"/><path id="path69" d="m 192.49594,47.368164 h -4.01855 q 0,0.50293 0.15136,0.878906 0.15137,0.371094 0.41504,0.610352 0.25391,0.234375 0.60059,0.351562 0.35156,0.117188 0.77148,0.117188 0.55664,0 1.11817,-0.219727 0.5664,-0.224609 0.80566,-0.439453 h 0.0488 v 1.000977 q -0.46387,0.195312 -0.94727,0.327148 -0.48339,0.131836 -1.01562,0.131836 -1.35742,0 -2.11914,-0.732422 -0.76172,-0.737304 -0.76172,-2.089844 0,-1.33789 0.72754,-2.124023 0.73242,-0.786133 1.92383,-0.786133 1.10351,0 1.69922,0.644531 0.60058,0.644532 0.60058,1.831055 z m -0.89355,-0.703125 q -0.005,-0.722656 -0.36621,-1.118164 -0.35645,-0.395508 -1.08887,-0.395508 -0.73731,0 -1.17676,0.43457 -0.43457,0.434571 -0.49316,1.079102 z"/></g></svg>