<svg xmlns="http://www.w3.org/2000/svg" role="img" xmlns:xlink="http://www.w3.org/1999/xlink" viewBox="-7.73 -7.48 388.70 129.70"><title>CA SYSVIEW® Performance Management Plug-in for Zowe CLI (CLI ZOWE V1) logo</title><style>.st0{fill-rule:evenodd;clip-rule:evenodd;fill:#CF4044;} .st1{fill:#000F9F;} .st2{fill:#CC092F;} .st3{font-family:&apos;HelveticaNeue-Light&apos;;} .st4{font-size:38px;} .st5{fill:#4C83C3;}</style><style/><style/><style/><style/><style/><path d="M239.179 67.51c-1.2986 0-2.291.37218-2.9785 1.1152-.6875.73611-1.0312 1.7958-1.0312 3.1777v.38476h-1.3242v1.6465h1.3242v9.9883h1.957v-9.9883h3.4688v-1.6465h-3.5312v-.39648c0-.97222.1875-1.6417.5625-2.0098.38194-.375.99371-.5625 1.834-.5625.26388 0 .56879.0341.91601.10352.34723.0625.62848.12503.84375.1875h.10547v-1.791c-.29167-.0556-.61458-.10482-.96875-.14648-.34722-.0417-.74023-.0625-1.1777-.0625zm-58.916.48047c-2.4861 0-4.6111.88064-6.375 2.6445-1.757 1.7569-2.6367 3.8791-2.6367 6.3652s.87977 4.6111 2.6367 6.375c1.7639 1.7569 3.8889 2.6348 6.375 2.6348s4.6063-.87783 6.3633-2.6348c1.7639-1.7639 2.6465-3.8889 2.6465-6.375s-.8826-4.6083-2.6465-6.3652c-1.7569-1.7639-3.8772-2.6445-6.3633-2.6445zm-139.32.041c-1.1389 0-2.1758.17708-3.1133.53125-.93055.35417-1.727.8674-2.3867 1.541-.68055.69444-1.2014 1.5458-1.5625 2.5527-.36111 1.0069-.54102 2.15-.54102 3.4277 0 1.3472.1875 2.5299.5625 3.5508.375 1.0139.89583 1.852 1.5625 2.5117.68055.67361 1.4798 1.1688 2.3965 1.4883.92361.31249 1.9473.46875 3.0723.46875.59722 0 1.1417-.0473 1.6348-.14453.5-.0903.96311-.20204 1.3867-.33399.5-.15972.90148-.31315 1.207-.45898.3125-.14584.66102-.30209 1.043-.46875v-2.416h-.14648c-.75694.68056-1.5694 1.191-2.4375 1.5312-.86806.34028-1.798.50977-2.791.50977-.72222 0-1.4097-.12022-2.0625-.36328-.64583-.25-1.2131-.6326-1.6992-1.1465-.46528-.49305-.84592-1.1313-1.1445-1.916-.29167-.78472-.4375-1.7222-.4375-2.8125 0-1.0417.13064-1.9583.39453-2.75.27083-.79862.64583-1.4596 1.125-1.9805.49306-.53472 1.0527-.92578 1.6777-1.1758.63194-.25694 1.3403-.38672 2.125-.38672.95833 0 1.857.16384 2.6973.49023s1.6888.84722 2.543 1.5625h.15625v-2.4473c-1.0139-.50694-1.9382-.86112-2.7715-1.0625-.82639-.2014-1.6569-.30274-2.4902-.30274zm35.512 0c-1.6875 0-3.0805.41667-4.1777 1.25-1.0972.82639-1.6465 1.8889-1.6465 3.1875 0 1.1319.33051 2.0514.99024 2.7598.66666.70138 1.6875 1.1986 3.0625 1.4902.68055.13889 1.3236.25347 1.9277.34375.61111.0903 1.1764.20486 1.6973.34375.6875.18055 1.1979.43338 1.5312.75977.34028.32639.50976.83399.50976 1.5215 0 .79861-.35699 1.4368-1.0723 1.916-.70833.47916-1.7007.71875-2.9785.71875-.90278 0-1.8687-.17709-2.8965-.53125-1.0278-.35417-1.934-.85699-2.7188-1.5098h-.14648v2.584c.92361.40972 1.8299.71744 2.7188.92578.89583.20832 1.9034.3125 3.0215.3125 1.0417 0 1.9299-.12501 2.666-.375.74305-.25 1.3937-.59657 1.9492-1.041.50694-.40972.898-.90972 1.1758-1.5.28472-.59027.42774-1.1868.42774-1.791 0-1.1111-.29167-1.9757-.875-2.5938-.58333-.61806-1.4507-1.0812-2.6035-1.3867-.56944-.14584-1.2645-.2869-2.084-.42578-.81944-.1389-1.452-.25825-1.8965-.35547-.84028-.19445-1.4264-.4757-1.7598-.84375-.33333-.36806-.5-.8737-.5-1.5195 0-.72222.33333-1.3132 1-1.7715.67361-.45833 1.5618-.6875 2.666-.6875 1.0069 0 1.9909.16667 2.9492.5.96528.32639 1.7418.74024 2.332 1.2402h.14648v-2.4375c-.70139-.30556-1.5063-.56316-2.416-.77149s-1.9097-.3125-3-.3125zm27.707 0c-1.6875 0-3.0786.41667-4.1758 1.25-1.0972.82639-1.6465 1.8889-1.6465 3.1875 0 1.1319.33051 2.0514.99023 2.7598.66667.70138 1.6875 1.1986 3.0625 1.4902.68055.13889 1.3216.25347 1.9258.34375.61111.0903 1.1784.20486 1.6992.34375.6875.18055 1.1979.43338 1.5312.75977.34028.32639.50977.83399.50977 1.5215 0 .79861-.35699 1.4368-1.0723 1.916-.70833.47916-1.7027.71875-2.9805.71875-.90277 0-1.8668-.17709-2.8945-.53125-1.0278-.35417-1.934-.85699-2.7188-1.5098h-.14648v2.584c.92361.40972 1.8299.71744 2.7188.92578.89583.20832 1.9034.3125 3.0215.3125 1.0417 0 1.9299-.12501 2.666-.375.74305-.25 1.3917-.59657 1.9473-1.041.50695-.40972.89996-.90972 1.1777-1.5.28472-.59027.42773-1.1868.42773-1.791 0-1.1111-.29167-1.9757-.875-2.5938-.58333-.61806-1.4527-1.0812-2.6055-1.3867-.56945-.14584-1.2626-.2869-2.082-.42578-.81945-.1389-1.452-.25825-1.8965-.35547-.84028-.19445-1.4264-.4757-1.7598-.84375-.33333-.36806-.5-.8737-.5-1.5195 0-.72222.33333-1.3132 1-1.7715.67361-.45833 1.5619-.6875 2.666-.6875 1.0069 0 1.9889.16667 2.9473.5.96527.32639 1.7437.74024 2.334 1.2402h.14648v-2.4375c-.70139-.30556-1.5082-.56316-2.418-.77149-.90972-.20833-1.9097-.3125-3-.3125zm-51.187.28125l-5.6445 15.51h2.0938l1.5195-4.3223h6.709l1.5215 4.3223h2.1973l-5.6465-15.51zm30.812 0l5.4805 8.9277v6.582H91.33v-6.8008l5.457-8.709h-2.1973l-4.2812 6.9375-4.2402-6.9375zm27.918 0l5.6445 15.51h2.75l5.6465-15.51h-2.1035l-4.8652 13.646-4.8652-13.646zm15.738 0v1.584h2.0312v12.344h-2.0312v1.582h6.125v-1.582h-2.0312v-12.344h2.0312v-1.584zm9.6562 0v15.51h10.219v-1.832h-8.1562v-5.7617h8.1562v-1.832h-8.1562v-4.25h8.1562v-1.834zm12.375 0l4.1055 15.51h2.2695l3.1875-12.875 3.2617 12.875h2.3223l4.0312-15.51h-2.0215l-3.2383 13.021-3.2402-13.021h-2.0938l-3.209 12.896-3.2598-12.896zm51.043 0v15.51h2.0625v-5.7812h2.0625c1.1111 0 2.0306-.13065 2.7598-.39453.72916-.27084 1.3618-.67427 1.8965-1.209.43055-.43055.76389-.93815 1-1.5215.24306-.59028.36328-1.2285.36328-1.916 0-.90278-.16189-1.65-.48828-2.2402-.31944-.59028-.77495-1.0827-1.3652-1.4785-.5-.33333-1.0729-.57574-1.7188-.72851-.64584-.15973-1.4347-.24024-2.3652-.24024zm-20.25.83399c2.1528 0 3.9889.77083 5.5098 2.3125 1.5278 1.5417 2.291 3.3882 2.291 5.541s-.76323 3.9994-2.291 5.541c-1.5208 1.5417-3.357 2.3125-5.5098 2.3125s-3.9937-.77084-5.5215-2.3125c-1.5208-1.5417-2.2812-3.3882-2.2812-5.541s.76042-3.9994 2.2812-5.541c1.5278-1.5417 3.3687-2.3125 5.5215-2.3125zm22.312.9375h2.041c.65277 0 1.1916.0473 1.6152.14453.43055.0903.8112.2437 1.1445.45898.38195.25.66797.57292.85547.96875s.28125.86177.28125 1.3965c0 .45833-.0701.87022-.20898 1.2383-.13194.36805-.36111.7194-.6875 1.0527-.32639.32639-.75066.56597-1.2715.71875-.52083.14583-1.1979.21875-2.0312.21875h-1.7383zm-148.28.0312l2.7188 7.6133h-5.4492zm163.77 1.75c-1.6944 0-3.0618.55772-4.1035 1.6758-1.0347 1.118-1.5527 2.6285-1.5527 4.5312 0 1.9236.54167 3.4104 1.625 4.459 1.0833 1.0417 2.5909 1.5625 4.5215 1.5625.75694 0 1.4785-.0937 2.166-.28125.68749-.1875 1.3618-.41948 2.0215-.69726v-2.1367h-.10352c-.34028.30555-.9132.61805-1.7188.9375-.79861.3125-1.595.46875-2.3867.46875-.59722 0-1.1445-.0833-1.6445-.25-.49305-.16667-.92014-.41667-1.2812-.75-.375-.34028-.67145-.77301-.88672-1.3008-.21528-.53472-.32226-1.1597-.32226-1.875h8.5723v-1.0625c0-1.6875-.42708-2.9896-1.2812-3.9062-.84722-.91667-2.0556-1.375-3.625-1.375zm29.053 0c-1.6458 0-2.9555.55208-3.9277 1.6562-.96528 1.0972-1.4473 2.5924-1.4473 4.4883s.48198 3.393 1.4473 4.4902c.97222 1.0972 2.2819 1.6465 3.9277 1.6465 1.6319 0 2.934-.54927 3.9062-1.6465s1.459-2.5944 1.459-4.4902-.48676-3.3911-1.459-4.4883c-.97222-1.1042-2.2743-1.6562-3.9062-1.6562zm23.26 0c-.6875 0-1.3362.14106-1.9473.42578-.60417.28472-1.2112.68056-1.8223 1.1875v-1.291h-1.959v11.635h1.959v-8.6875c.53473-.40972 1.0688-.74588 1.6035-1.0098.54166-.26389 1.0805-.39648 1.6152-.39648.5625 0 .99241.0777 1.291.23047.29861.14583.52778.3674.6875.66601.14583.27778.23958.64996.28125 1.1152.0486.45833.0723.94313.0723 1.457v6.625h1.959v-7.4473c0-.20833-.008-.41667-.0215-.625-.0139-.21527-.03-.40277-.0508-.5625.54861-.42361 1.0959-.77018 1.6445-1.041.54861-.27778 1.0979-.41797 1.6465-.41797.5625 0 .9924.0777 1.291.23047s.52778.37716.6875.67578c.14583.27778.23958.64996.28125 1.1152.0486.46528.0742.94727.0742 1.4473v6.625h1.957v-7.5508c0-1.3889-.30491-2.4694-.91601-3.2402-.60417-.77778-1.5445-1.166-2.8223-1.166-.74305 0-1.441.14865-2.0938.44726-.65277.29167-1.3763.77084-2.168 1.4375-.27083-.59027-.68273-1.0514-1.2383-1.3848-.54861-.33334-1.22-.5-2.0117-.5zm33.719 0c-.6875 0-1.357.14106-2.0098.42578s-1.2854.68056-1.8965 1.1875v-1.291h-1.957v11.635h1.957v-8.6875c.53472-.40972 1.0944-.74588 1.6777-1.0098.58333-.26389 1.143-.39648 1.6777-.39648.52083 0 .94314.0729 1.2695.21875.32639.13888.57639.35481.75.64648.1667.26389.28128.6313.34375 1.1035.0625.46527.0937.96527.0937 1.5v6.625h1.959v-7.5508c0-1.4236-.33052-2.5146-.99024-3.2715-.65972-.75695-1.6181-1.1348-2.875-1.1348zm23.594 0c-1.6944 0-3.0618.55772-4.1035 1.6758-1.0347 1.118-1.5527 2.6285-1.5527 4.5312 0 1.9236.54167 3.4104 1.625 4.459 1.0833 1.0417 2.5909 1.5625 4.5215 1.5625.75694 0 1.4785-.0937 2.166-.28125.6875-.1875 1.3618-.41948 2.0215-.69726v-2.1367h-.10352c-.34028.30555-.9132.61805-1.7188.9375-.79861.3125-1.5951.46875-2.3867.46875-.59723 0-1.1445-.0833-1.6445-.25-.49306-.16667-.92014-.41667-1.2812-.75-.375-.34028-.67144-.77301-.88672-1.3008-.21527-.53472-.32226-1.1597-.32226-1.875h8.5723v-1.0625c0-1.6875-.42708-2.9896-1.2812-3.9062-.84722-.91667-2.0556-1.375-3.625-1.375zm-38.312.041c-.70139 0-1.4125.0625-2.1348.1875s-1.2743.23958-1.6562.34375v1.9902h.10351c.67361-.25695 1.327-.45204 1.959-.58399.63194-.13889 1.2049-.20898 1.7188-.20898.4236 0 .82985.0284 1.2188.084.38888.0556.72222.16255 1 .32227.29166.16666.51323.39583.66601.6875.15972.29166.24024.66103.24024 1.1055v.30078c-1.1389.0555-2.2042.13888-3.1973.25-.99305.1111-1.8444.32422-2.5527.63672-.70139.3125-1.2431.7424-1.625 1.291-.375.54167-.5625 1.2528-.5625 2.1348 0 1.0764.36459 1.9618 1.0938 2.6562.72916.69444 1.6174 1.043 2.666 1.043.56944 0 1.0666-.0569 1.4902-.16797.4236-.10416.7986-.23481 1.125-.39453.27777-.125.56184-.29167.85351-.5.29861-.21528.53538-.38194.70899-.5v1.2383h1.9473v-7.8945c0-.75-.11458-1.3798-.34375-1.8867s-.5625-.91884-1-1.2383c-.44445-.32639-.97092-.55556-1.582-.6875-.60417-.13889-1.3173-.20899-2.1367-.20899zm27.23.00984c-1.7153 0-3.0979.54166-4.1465 1.625-1.0417 1.0833-1.5625 2.5777-1.5625 4.4805 0 1.0208.13823 1.9119.41601 2.6758.27777.76388.67079 1.3965 1.1777 1.8965.5.5 1.1013.875 1.8027 1.125.70139.24305 1.4722.36524 2.3125.36524.65973 0 1.28-.0881 1.8633-.26172.59028-.17362 1.2125-.41602 1.8652-.72852v-2.1562h-.10352c-.14583.11806-.34375.26107-.59375.42774-.25.15972-.51801.31119-.80273.45703-.3264.16666-.6938.30208-1.1035.40625-.40972.10416-.81315.15625-1.209.15625-1.1389 0-2.0243-.375-2.6562-1.125-.625-.75695-.9375-1.8355-.9375-3.2383 0-1.4444.32009-2.5382.95898-3.2812.64583-.75 1.5237-1.125 2.6348-1.125.60416 0 1.2216.125 1.8535.375.63889.25 1.2582.60699 1.8555 1.0723h.10352v-2.1777c-.53472-.27084-1.1257-.5-1.7715-.6875-.63889-.1875-1.2904-.28125-1.957-.28125zm-139.72.13672v9.5312h1.7188v-3.6992h1.6875l3.4473 3.6992h2.3223l-4-4.168c.6875-.2639 1.2264-.61806 1.6152-1.0625.39583-.4514.59375-1.0139.59375-1.6875 0-.50695-.10417-.92644-.3125-1.2598-.2014-.34027-.5215-.62912-.95899-.86523-.40973-.2153-.82639-.35072-1.25-.40625-.42361-.0555-.96051-.082-1.6133-.082zm49.051.13476v11.635h1.959v-8.2598c.52083-.42361 1.0625-.76736 1.625-1.0312.5625-.27083 1.1458-.40625 1.75-.40625.375 0 .69791.018.96875.0527.27778.0278.56184.0751.85351.14453h.10547v-2.0098c-.30555-.0486-.53472-.0799-.6875-.0937-.15277-.0208-.39995-.0312-.74023-.0312-.61806 0-1.225.1326-1.8223.39649-.59028.25694-1.275.69727-2.0527 1.3223V72.188zm29.584 0v11.635h1.959v-8.2598c.52083-.42361 1.0625-.76736 1.625-1.0312.5625-.27083 1.1458-.40625 1.75-.40625.375 0 .69792.018.96875.0527.27778.0278.56185.0751.85352.14453h.10351v-2.0098c-.30555-.0486-.53473-.0799-.6875-.0937-.15278-.0208-.398-.0312-.73828-.0312-.61805 0-1.227.1326-1.8242.39649-.59028.25694-1.273.69727-2.0508 1.3223V72.188zm-76.916 1.166h1.5508c.36805 0 .67491.018.91797.0527.24305.0347.47223.11046.6875.22852.22917.125.39105.28602.48828.48047.0972.19444.14649.41601.14649.66601 0 .3125-.0445.57292-.13477.78125-.0833.20833-.23395.39865-.44922.57227-.20139.15972-.45704.2743-.76953.34375-.3125.0625-.68467.0937-1.1152.0937h-1.3223zm39.354.125c1.0417 0 1.8153.28125 2.3223.84375.5139.5625.77432 1.3589.78125 2.3867h-6.666c.0833-.91666.43468-1.6847 1.0527-2.3027.625-.61805 1.4612-.92773 2.5098-.92773zm109.62 0c1.0417 0 1.8153.28125 2.3223.84375.5139.5625.77432 1.3589.78125 2.3867h-6.666c.0833-.91666.43468-1.6847 1.0527-2.3027.625-.61805 1.4612-.92773 2.5098-.92773zm-80.469.0742c1.0486 0 1.8687.3674 2.459 1.1035.59028.72917.88477 1.8466.88477 3.3535 0 1.4722-.29927 2.584-.89649 3.334-.59028.74305-1.4056 1.1152-2.4473 1.1152-1.0556 0-1.8785-.37501-2.4688-1.125-.59028-.75695-.88477-1.8659-.88477-3.3242 0-1.5069.29167-2.6244.875-3.3535.59028-.73611 1.416-1.1035 2.4785-1.1035zm45.375 4.166v3.2402c-.48611.375-1.0145.69792-1.584.96875-.56944.26389-1.1973.39453-1.8848.39453-.82639 0-1.441-.16667-1.8438-.5-.40278-.34028-.60352-.8431-.60352-1.5098 0-.59027.17231-1.0514.51953-1.3848.34722-.34028.80274-.59028 1.3652-.75.47222-.13195 1.1105-.2333 1.916-.30274.8125-.0694 1.518-.12152 2.1152-.15625zm-54.791 16.459c-1.2986 0-2.293.37022-2.9805 1.1133-.68749.7361-1.0312 1.7958-1.0312 3.1777v.38477h-1.3223v1.6465h1.3223v9.9902h1.959v-9.9902h3.4688v-1.6465h-3.5312v-.39453c0-.97222.1875-1.6437.5625-2.0117.38194-.375.9937-.5625 1.834-.5625.26389 0 .5688.036.91602.10547.34722.0625.62847.12503.84375.1875h.10351v-1.793c-.29167-.0556-.61458-.10287-.96875-.14453-.34722-.0417-.73828-.0625-1.1758-.0625zm-73.344.10353v16.209h1.957v-16.209zm178.44.41602c-1.1389 0-2.1777.17708-3.1152.53125-.93056.35416-1.725.86936-2.3848 1.543-.68055.69444-1.2014 1.5438-1.5625 2.5508s-.54297 2.15-.54297 3.4277c0 1.3472.1875 2.5319.5625 3.5527.375 1.0139.89583 1.85 1.5625 2.5098.68055.67361 1.4798 1.1708 2.3965 1.4902.9236.3125 1.9473.46875 3.0723.46875.59722 0 1.1437-.0493 1.6367-.14649.5-.0903.96115-.20204 1.3848-.33398.5-.15972.90343-.3112 1.209-.45703.3125-.14584.65908-.30209 1.041-.46875v-2.418h-.14649c-.75694.68055-1.5694 1.191-2.4375 1.5312-.86805.34027-1.798.51172-2.791.51172-.72222 0-1.4097-.12219-2.0625-.36524-.64583-.25-1.2112-.6326-1.6973-1.1465-.46527-.49306-.84787-1.1313-1.1465-1.916-.29167-.78472-.4375-1.7222-.4375-2.8125 0-1.0417.13259-1.9583.39648-2.75.27083-.79861.64583-1.4577 1.125-1.9785.49305-.53472 1.0508-.92774 1.6758-1.1777.63195-.25695 1.3403-.38476 2.125-.38476.95833 0 1.859.16189 2.6992.48828.84028.32639 1.6869.84722 2.541 1.5625h.15625v-2.4473c-1.0139-.50695-1.9382-.86111-2.7715-1.0625-.82639-.20139-1.655-.30273-2.4883-.30273zm-136.19.17773v2.0312h2.207v-2.0312zm-201.03.10352v15.512H7.503v-13.365l4.2812 9.0938h1.2305l4.3125-9.0938v13.365h2.0625v-15.512h-2.8652l-4 8.6367-4.1348-8.6367zm146.04 0v15.512h2.0625v-5.7812h2.0625c1.1111 0 2.0306-.1326 2.7598-.39649.72917-.27083 1.3618-.67426 1.8965-1.209.43056-.43056.76389-.9362 1-1.5195.24305-.59028.36523-1.2305.36523-1.918 0-.90278-.16385-1.648-.49023-2.2383-.31944-.59028-.77496-1.0846-1.3652-1.4805-.5-.33334-1.0729-.57574-1.7188-.72852-.64583-.15972-1.4327-.24023-2.3633-.24023zm118.79 0v1.834h9.1562l-9.5098 11.76v1.918h12.104v-1.834h-9.832l9.6035-11.812v-1.8652zm80.584 0v15.512h9.8125v-1.834h-7.75v-13.678zm11.219 0v1.584h2.0312v12.344h-2.0312v1.584h6.125v-1.584h-2.0312v-12.344h2.0312v-1.584zm-226.62.53125v3.3438h-1.3223v1.6465h1.3223v6.1875c0 1.4097.30968 2.4334.92773 3.0723.61806.63889 1.5195.95898 2.707.95898.34028 0 .7257-.0313 1.1562-.0937.4375-.0625.84093-.14301 1.209-.24023v-1.7598h-.10352c-.15278.0625-.40278.14302-.75.24024-.34722.0903-.68055.13476-1 .13476-.54861 0-.95964-.0625-1.2305-.1875-.26389-.13195-.47223-.33746-.625-.61523-.16665-.29862-.26321-.61675-.29101-.95703-.0278-.34722-.041-.8264-.041-1.4375v-5.3027h4.041v-1.6465h-4.041v-3.3438zm18.094 1.2402h2.041c.65277 0 1.1916.0493 1.6152.14649.43055.0903.81315.24175 1.1465.45703.38195.25.66602.57291.85352.96875.1875.39583.28125.86176.28125 1.3965 0 .45833-.0701.87218-.20899 1.2402-.13195.36806-.36111.71744-.6875 1.0508-.32639.32638-.7487.56597-1.2695.71875-.52083.14582-1.1979.21875-2.0312.21875h-1.7402zm-111.56 1.7812c-.6875 0-1.357.14302-2.0098.42774s-1.2854.68055-1.8965 1.1875v-1.293h-1.959v11.637h1.959v-8.6875c.53472-.40972 1.0944-.74784 1.6777-1.0117.58333-.26389 1.1411-.39453 1.6758-.39453.52083 0 .9451.0729 1.2715.21875.32639.13888.57639.35286.75.64453.16667.26388.28125.63325.34375 1.1055.0625.46528.09375.96528.09375 1.5v6.625h1.959v-7.5527c0-1.4236-.33051-2.5145-.99023-3.2715-.65972-.75694-1.6181-1.1348-2.875-1.1348zm24.812 0c-.63889 0-1.2819.13824-1.9277.41602-.64583.27083-1.1931.65343-1.6445 1.1465-.48611.52778-.87153 1.1556-1.1562 1.8848-.27778.72222-.41797 1.584-.41797 2.584 0 1.8264.40625 3.243 1.2188 4.25.81944 1 1.9236 1.5 3.3125 1.5.83333 0 1.518-.11458 2.0527-.34375.54166-.23611 1.107-.59028 1.6973-1.0625v1.0625c0 .47222-.05208.8993-.15625 1.2812-.10417.38194-.27648.70768-.51953.97852-.24306.28472-.58398.50824-1.0215.66797-.4375.15972-.98958.23828-1.6562.23828-.69444 0-1.3895-.0937-2.084-.28125-.69444-.18056-1.2001-.33203-1.5195-.45703h-.10547v2c.56944.15972 1.1471.27994 1.7305.36328.59028.0903 1.1944.13672 1.8125.13672 1.8611 0 3.2389-.46312 4.1348-1.3867.89583-.92362 1.3438-2.3715 1.3438-4.3438v-10.312h-1.834l-.125.5c-.50694-.27778-.98893-.48134-1.4473-.61328-.45139-.13889-1.0139-.20899-1.6875-.20899zm13.781 0c-1.6944 0-3.0619.55968-4.1035 1.6777-1.0347 1.118-1.5527 2.6285-1.5527 4.5312 0 1.9236.54167 3.4084 1.625 4.457 1.0833 1.0417 2.5909 1.5625 4.5215 1.5625.75694 0 1.4785-.0937 2.166-.28125.6875-.1875 1.3618-.4195 2.0215-.69727v-2.1348h-.10547c-.34027.30556-.91319.61806-1.7188.9375-.79861.3125-1.5931.46875-2.3848.46875-.59722 0-1.1465-.0833-1.6465-.25-.49305-.16667-.92014-.41667-1.2812-.75-.375-.34028-.66949-.77496-.88476-1.3027-.21528-.53472-.32227-1.1597-.32227-1.875h8.5723v-1.0625c0-1.6875-.42709-2.9896-1.2812-3.9062-.84723-.91666-2.0556-1.375-3.625-1.375zm13.604 0c-.6875 0-1.3362.14302-1.9473.42774-.60417.28472-1.2112.68055-1.8223 1.1875v-1.293h-1.959v11.637h1.959v-8.6875c.53472-.40972 1.0688-.74784 1.6035-1.0117.54166-.26389 1.0805-.39453 1.6152-.39453.5625 0 .9924.0757 1.291.22851.2986.14583.52777.3674.6875.66602.14583.27777.23958.64995.28125 1.1152.0486.45833.0723.9451.0723 1.459v6.625h1.959v-7.4492c0-.20833-.008-.41667-.0215-.625-.0139-.21528-.03-.40278-.0508-.5625.54861-.42362 1.0959-.77019 1.6445-1.041.54861-.27777 1.0979-.41601 1.6465-.41601.5625 0 .9924.0757 1.291.22851.29861.15278.52778.37913.6875.67774.14583.27778.23958.648.28125 1.1133.0486.46527.0742.94922.0742 1.4492v6.625h1.957v-7.5527c0-1.3889-.3049-2.4694-.91601-3.2402-.60417-.77778-1.5445-1.166-2.8223-1.166-.74305 0-1.441.14866-2.0938.44727-.65277.29166-1.3763.77083-2.168 1.4375-.27083-.59028-.68273-1.0514-1.2383-1.3848-.54861-.33333-1.2201-.5-2.0117-.5zm19.855 0c-1.6944 0-3.0638.55968-4.1055 1.6777-1.0347 1.118-1.5508 2.6285-1.5508 4.5312 0 1.9236.54167 3.4084 1.625 4.457 1.0833 1.0417 2.589 1.5625 4.5195 1.5625.75694 0 1.4805-.0937 2.168-.28125a16.13548 16.13548 0 0 0 2.0195-.69727v-2.1348h-.10351c-.34028.30556-.9132.61806-1.7188.9375-.79862.3125-1.5931.46875-2.3848.46875-.59722 0-1.1465-.0833-1.6465-.25-.49306-.16667-.92014-.41667-1.2812-.75-.375-.34028-.66949-.77496-.88477-1.3027-.21528-.53472-.32422-1.1597-.32422-1.875h8.5742v-1.0625c0-1.6875-.42708-2.9896-1.2812-3.9062-.84722-.91666-2.0556-1.375-3.625-1.375zm13.738 0c-.6875 0-1.357.14302-2.0098.42774s-1.2854.68055-1.8965 1.1875v-1.293h-1.957v11.637h1.957v-8.6875c.53472-.40972 1.0944-.74784 1.6777-1.0117.58333-.26389 1.143-.39453 1.6777-.39453.52083 0 .94314.0729 1.2695.21875.32639.13888.57639.35286.75.64453.1667.26388.28128.63325.34375 1.1055.0625.46528.0937.96528.0937 1.5v6.625h1.959v-7.5527c0-1.4236-.33052-2.5145-.99024-3.2715s-1.6181-1.1348-2.875-1.1348zm60.146 0c-.63889 0-1.2819.13824-1.9277.41602-.64583.27083-1.1931.65343-1.6445 1.1465-.48611.52778-.87153 1.1556-1.1562 1.8848-.27778.72222-.41797 1.584-.41797 2.584 0 1.8264.40625 3.243 1.2188 4.25.81945 1 1.9236 1.5 3.3125 1.5.83333 0 1.518-.11458 2.0527-.34375.54166-.23611 1.107-.59028 1.6973-1.0625v1.0625c0 .47222-.0521.8993-.15625 1.2812-.10417.38194-.27648.70768-.51953.97852-.24305.28472-.58398.50824-1.0215.66797-.4375.15972-.98959.23828-1.6562.23828-.69445 0-1.3896-.0937-2.084-.28125-.69445-.18056-1.2001-.33203-1.5195-.45703h-.10547v2c.56945.15972 1.1471.27994 1.7305.36328.59027.0903 1.1944.13672 1.8125.13672 1.8611 0 3.2389-.46312 4.1348-1.3867.89583-.92362 1.3438-2.3715 1.3438-4.3438v-10.312h-1.834l-.125.5c-.50694-.27778-.98893-.48134-1.4473-.61328-.4514-.13889-1.0139-.20899-1.6875-.20899zm30.396 0c-.68749 0-1.3589.14302-2.0117.42774-.65277.28472-1.2834.68055-1.8945 1.1875v-1.293h-1.959v11.637h1.959v-8.6875c.53472-.40972 1.0924-.74784 1.6758-1.0117.58333-.26389 1.143-.39453 1.6777-.39453.52083 0 .94509.0729 1.2715.21875.32639.13888.57639.35286.75.64453.1667.26388.28128.63325.34375 1.1055.0625.46528.0937.96528.0937 1.5v6.625h1.957v-7.5527c0-1.4236-.32856-2.5145-.98828-3.2715s-1.618-1.1348-2.875-1.1348zm27.188 0c-1.6458 0-2.9555.55209-3.9277 1.6562-.96528 1.0972-1.4473 2.5944-1.4473 4.4902s.48199 3.391 1.4473 4.4883c.97222 1.0972 2.2819 1.6465 3.9277 1.6465 1.6319 0 2.934-.54926 3.9062-1.6465.97223-1.0972 1.457-2.5925 1.457-4.4883s-.4848-3.393-1.457-4.4902c-.97222-1.1042-2.2743-1.6562-3.9062-1.6562zm44.207 0c-1.6458 0-2.9536.55209-3.9258 1.6562-.96528 1.0972-1.4492 2.5944-1.4492 4.4902s.48394 3.391 1.4492 4.4883c.97222 1.0972 2.28 1.6465 3.9258 1.6465 1.632 0 2.934-.54926 3.9062-1.6465.97222-1.0972 1.459-2.5925 1.459-4.4883s-.48677-3.393-1.459-4.4902c-.97222-1.1042-2.2743-1.6562-3.9062-1.6562zm30.699 0c-1.6944 0-3.0638.55968-4.1055 1.6777-1.0347 1.118-1.5508 2.6285-1.5508 4.5312 0 1.9236.54167 3.4084 1.625 4.457 1.0833 1.0417 2.589 1.5625 4.5195 1.5625.75695 0 1.4805-.0937 2.168-.28125a16.13548 16.13548 0 0 0 2.0195-.69727v-2.1348h-.10351c-.34028.30556-.9132.61806-1.7188.9375-.79861.3125-1.5931.46875-2.3848.46875-.59722 0-1.1465-.0833-1.6465-.25-.49306-.16667-.92015-.41667-1.2812-.75-.375-.34028-.66949-.77496-.88477-1.3027-.21527-.53472-.32422-1.1597-.32422-1.875h8.5742v-1.0625c0-1.6875-.42708-2.9896-1.2812-3.9062-.84722-.91666-2.0556-1.375-3.625-1.375zm-293.15.041c-.70139 0-1.4125.0625-2.1348.1875s-1.2743.23958-1.6562.34375v1.9902h.10352c.67361-.25694 1.327-.45204 1.959-.58398.63194-.13889 1.2049-.20703 1.7188-.20703.42361 0 .82986.0265 1.2188.082.38889.0555.72222.16449 1 .32422.29167.16666.51324.39583.66602.6875.15972.29166.24023.65906.24023 1.1035v.30274c-1.1389.0556-2.2062.13888-3.1992.25-.99305.11111-1.8424.32226-2.5508.63476-.70139.3125-1.2431.74241-1.625 1.291-.375.54166-.5625 1.2548-.5625 2.1367 0 1.0764.36458 1.9618 1.0938 2.6562.72917.69444 1.6174 1.041 2.666 1.041.56944 0 1.0666-.0549 1.4902-.16601.42361-.10417.79861-.23677 1.125-.39649.27778-.125.56185-.29167.85352-.5.29861-.21528.53537-.38195.70898-.5v1.2402h1.9473v-7.8965c0-.75-.11458-1.3778-.34375-1.8848-.22917-.50695-.5625-.92079-1-1.2402-.44444-.32639-.97287-.55555-1.584-.6875-.60416-.13889-1.3153-.20898-2.1348-.20898zm26.334 0c-.70139 0-1.4145.0625-2.1367.1875s-1.2743.23958-1.6562.34375v1.9902h.10547c.67361-.25694 1.3251-.45204 1.957-.58398.63194-.13889 1.2049-.20703 1.7188-.20703.42361 0 .82986.0265 1.2188.082s.72222.16449 1 .32422c.29167.16666.51519.39583.66797.6875.15972.29166.23828.65906.23828 1.1035v.30274c-1.1389.0556-2.2042.13888-3.1973.25-.99305.11111-1.8444.32226-2.5527.63476-.70139.3125-1.2431.74241-1.625 1.291-.375.54166-.5625 1.2548-.5625 2.1367 0 1.0764.36458 1.9618 1.0938 2.6562.72917.69444 1.6194 1.041 2.668 1.041.56944 0 1.0647-.0549 1.4883-.16601.42361-.10417.79861-.23677 1.125-.39649.27778-.125.5638-.29167.85547-.5.29861-.21528.53342-.38195.70703-.5v1.2402h1.9492v-7.8965c0-.75-.11458-1.3778-.34375-1.8848-.22917-.50695-.5625-.92079-1-1.2402-.44444-.32639-.97287-.55555-1.584-.6875-.60417-.13889-1.3153-.20898-2.1348-.20898zm116.39.28125v7.5527c0 1.4444.34093 2.541 1.0215 3.291.68055.74306 1.6313 1.1152 2.8535 1.1152.72917 0 1.3958-.13823 2-.41601.60417-.27778 1.2368-.67839 1.8965-1.1992v1.293h1.959v-11.637h-1.959v8.6875c-.52083.40972-1.0833.74783-1.6875 1.0117-.59722.26389-1.1493.39453-1.6562.39453-.56945 0-1.0041-.0681-1.3027-.20703-.29861-.13889-.54101-.36242-.72851-.66797-.18058-.29862-.29799-.6556-.35352-1.0723-.0555-.42361-.084-.9312-.084-1.5215v-6.625zm36.605 0v11.637h1.957v-11.637zm47.312 0v11.637h1.957v-8.2617c.52083-.42362 1.0625-.76737 1.625-1.0312.56249-.27084 1.1458-.40625 1.75-.40625.375 0 .69792.018.96875.0527.27778.0278.5638.077.85547.14649h.10352v-2.0117c-.30556-.0486-.53472-.0799-.6875-.0937-.15278-.0208-.39996-.0312-.74024-.0312-.61805 0-1.225.13259-1.8223.39648-.59028.25695-1.275.69727-2.0527 1.3223v-1.7188zm43.176 0l3.0625 11.637h1.8027l2.9688-8.9688 2.9902 8.9688h1.8125l3.0312-11.637h-1.9688l-2.0215 9.0117-2.9785-9.0117h-1.6152l-2.9062 9.0117-2.1348-9.0117zm-216.61 1.293c1.0417 0 1.8153.28125 2.3223.84375.5139.5625.77431 1.357.78125 2.3848h-6.666c.08333-.91667.43273-1.6847 1.0508-2.3027.625-.61806 1.4631-.92578 2.5117-.92578zm33.457 0c1.0417 0 1.8173.28125 2.3242.84375.5139.5625.77432 1.357.78125 2.3848h-6.668c.0833-.91667.43468-1.6847 1.0527-2.3027.625-.61806 1.4612-.92578 2.5098-.92578zm206.38 0c1.0417 0 1.8173.28125 2.3242.84375.5139.5625.77432 1.357.78125 2.3848h-6.668c.0833-.91667.43468-1.6847 1.0527-2.3027.625-.61806 1.4612-.92578 2.5098-.92578zm-74.801.0723c1.0486 0 1.8668.3674 2.457 1.1035.59028.72916.88672 1.8485.88672 3.3555 0 1.4722-.29926 2.582-.89648 3.332-.59028.74305-1.4056 1.1152-2.4473 1.1152-1.0556 0-1.8785-.375-2.4688-1.125-.59027-.75694-.88672-1.8639-.88672-3.3223 0-1.5069.29167-2.6263.875-3.3555.59027-.73612 1.418-1.1035 2.4805-1.1035zm44.207 0c1.0486 0 1.8687.3674 2.459 1.1035.59028.72916.88476 1.8485.88476 3.3555 0 1.4722-.29731 2.582-.89453 3.332-.59028.74305-1.4076 1.1152-2.4492 1.1152-1.0556 0-1.8785-.375-2.4688-1.125-.59028-.75694-.88476-1.8639-.88476-3.3223 0-1.5069.29166-2.6263.875-3.3555.59028-.73612 1.416-1.1035 2.4785-1.1035zm-222.57.0723c.44444 0 .88954.0521 1.334.15625.45139.0972.9362.26388 1.457.5v6.3438c-.47917.36805-1.0056.6645-1.582.88672-.56944.21528-1.1395.32226-1.709.32226-1.0625 0-1.8229-.33615-2.2812-1.0098-.45833-.67361-.6875-1.6632-.6875-2.9688 0-1.375.30968-2.4243.92773-3.1465s1.4646-1.084 2.541-1.084zm121.13 0c.44444 0 .88953.0521 1.334.15625.45139.0972.9362.26388 1.457.5v6.3438c-.47917.36805-1.0056.6645-1.582.88672-.56945.21528-1.1395.32226-1.709.32226-1.0625 0-1.8229-.33615-2.2812-1.0098-.45834-.67361-.6875-1.6632-.6875-2.9688 0-1.375.30967-2.4243.92773-3.1465.61805-.72222 1.4646-1.084 2.541-1.084zm8.2715 2.4688v1.8867h6.5v-1.8867zm-166.16 1.625v3.2402c-.48611.375-1.0145.69792-1.584.96875-.56944.26389-1.1973.39649-1.8848.39649-.82639 0-1.441-.16667-1.8438-.5-.40278-.34028-.60547-.84506-.60547-1.5117 0-.59028.17426-1.0514.52148-1.3848.34722-.34027.80274-.59028 1.3652-.75.47222-.13195 1.1105-.23329 1.916-.30273.8125-.0694 1.518-.12152 2.1152-.15625zm26.332 0v3.2402c-.48611.375-1.0126.69792-1.582.96875-.56944.26389-1.1992.39649-1.8867.39649-.82639 0-1.441-.16667-1.8438-.5-.40278-.34028-.60352-.84506-.60352-1.5117 0-.59028.17426-1.0514.52148-1.3848.34722-.34027.80078-.59028 1.3633-.75.47222-.13195 1.1124-.23329 1.918-.30273.8125-.0694 1.5161-.12152 2.1133-.15625z"/><g stroke-width="1.56"><path d="M369.9 13.777c-1.6542 0-3.0118-1.3421-3.0118-2.9962S368.2459 7.769 369.9 7.769c1.6542 0 3.0118 1.3577 3.0118 3.0118s-1.3576 2.9962-3.0118 2.9962m0-6.7415c-2.0599 0-3.7453 1.6854-3.7453 3.7453s1.6854 3.7453 3.7453 3.7453 3.7453-1.6854 3.7453-3.7453-1.6854-3.7453-3.7453-3.7453"/><path d="M370.15 10.625l-.79588.0156-.0156-.96753h.79587c.29651-.0156.53058.17166.53058.46816.0156.29651-.21847.48377-.51497.48377m1.2952-.49937c-.0156-.65543-.46816-1.1236-1.2016-1.1236l-1.6698.0312.0468 3.5268h.76467l-.0156-1.264h.54619l.71784 1.2484.8583-.0156-.81148-1.3421c.37453-.0936.76466-.43695.76466-1.0612M80.447 35.766h-9.3617V14.178h9.1057c2.4563 0 3.9903 1.5855 3.9903 3.7344 0 2.1489-1.534 3.6829-3.9903 3.6829H69.782v6.2422h10.665c2.8651 0 4.3991 1.8414 4.3991 3.9887 0 2.4563-1.637 3.9404-4.3991 3.9404m5.2684-11.306c3.2241-.66479 5.8848-3.5299 5.8848-7.8261 0-4.5536-3.3255-8.6969-9.8236-8.6969h-17.956v34.121h18.519c6.4965 0 9.9235-4.0933 9.9235-9.2087 0-4.2977-2.9151-7.8261-6.548-8.3894m27.8149-.9225h-7.8536v6.3951h5.5518l6.7009 12.124h8.338l-7.6732-12.995c3.6844-.86921 7.4687-4.0917 7.4687-10.128 0-6.3436-4.3476-10.999-11.459-10.999h-15.961v34.121h7.2643v-27.726h7.6232c2.9166 0 5.1154 1.7384 5.1154 4.6036 0 2.8651-2.1988 4.6036-5.1154 4.6036M181.29 29.882l5.3199-14.682 5.3214 14.682zm.76779-21.946l-13.199 34.121h8.2865l2.1489-5.7802h14.632l2.0974 5.7802h8.288l-13.148-34.121zM224.04 35.663h-6.1906V14.33h6.1906c7.0084 0 10.691 4.6551 10.691 10.693 0 5.7802-3.9388 10.64-10.691 10.64m0-27.726h-13.455v34.121h13.455c10.691 0 18.108-6.7524 18.108-17.035 0-10.282-7.4172-17.086-18.108-17.086m128.16-.0073l-8.9481 14.466-8.9481-14.466h-8.0305v34.127h7.2659v-22.305l7.8214 11.894c.89576 1.3592 2.8886 1.3592 3.7828 0l7.823-11.894v22.305h7.2659V7.9297z"/><path id="path20" stroke-width="1.56" d="M149.1 36.021c-6.0408 0-10.936-4.897-10.936-10.936 0-6.0408 4.8954-10.938 10.936-10.938 6.0393 0 10.936 4.897 10.936 10.938 0 6.0393-4.897 10.936-10.936 10.936m0-28.926c-9.9359 0-17.99 8.0539-17.99 17.99 0 9.9344 8.0539 17.988 17.99 17.988 9.9344 0 17.99-8.0539 17.99-17.988 0-9.9359-8.0555-17.99-17.99-17.99"/><path d="M274.84 30.376c-1.8648 3.3645-5.4494 5.6445-9.5692 5.6445-6.0393 0-10.936-4.897-10.936-10.936 0-6.0408 4.897-10.936 10.936-10.936 4.0855 0 7.6419 2.244 9.5193 5.5633l5.103-5.1014c-3.2646-4.549-8.5954-7.5156-14.622-7.5156-9.9359 0-17.988 8.0539-17.988 17.99 0 9.9344 8.0524 17.99 17.988 17.99 6.0596 0 11.417-2.9994 14.675-7.592z"/></g><use width="100%" height="100%" transform="translate(154.05)" xlink:href="#path20"/><ellipse cx="25.337" cy="25.336" fill="#cc092f" stroke-width="1.56" rx="25.337" ry="25.336"/><path fill="#fff" stroke-width="1.56" d="M47.662 32.181c-2.8979-1.1548-5.5508-.76778-8.21.84425 0 0-.96909.59145-1.2594.77403-1.2391.77714-2.4079 1.5137-3.5315 1.5137-1.0721 0-2.127-.28714-2.5733-2.3611-.696-3.235-2.3939-11.184-3.1351-15.122-.43539-2.3143-.67415-3.5611-.92228-4.4085-.43695-1.4888-1.2359-2.2987-2.3705-2.4282 0 0-.1779-.025-.32303-.025-.14357 0-.3402.028-.3402.028-1.1236.13421-1.9179.94413-2.3517 2.4251-.24812.84737-.48689 2.0942-.92228 4.4085-.74126 3.9372-2.4391 11.887-3.1351 15.122-.44631 2.0739-1.5012 2.3611-2.5733 2.3611-1.1236 0-2.2924-.73658-3.5315-1.5137-.29026-.18257-1.2609-.77402-1.2609-.77402-2.6576-1.612-5.3121-1.999-8.2084-.84426-.62578.24969-1.2421.52931-1.8289.81177.40106 1.2578.90034 2.4957 1.4824 3.6583.64138-.31523 1.314-.62801 2.0007-.83088.98938-.29182 2.0037-.30743 2.9869.0218.95505.31991 1.8055.88639 2.6529 1.4185 1.5964 1.0034 3.4051 2.141 5.7069 2.141 3.4113 0 5.8052-2.0365 6.5699-5.5883.593-2.7528 1.907-8.8982 2.7512-13.137 0 0 2.1629 10.384 2.7543 13.137.76466 3.5518 3.1601 5.5883 6.5714 5.5883 2.3018 0 4.1105-1.1376 5.7069-2.141.84737-.53214 1.6979-1.0986 2.6529-1.4185.98158-.32927 1.9975-.31368 2.9869-.0218.68664.20287 1.3583.51598 1.9996.83122.58364-1.1626 1.0816-2.4011 1.4826-3.6589-.58676-.28246-1.2023-.56184-1.8281-.81153"/></svg>