<svg xmlns="http://www.w3.org/2000/svg" role="img" xmlns:xlink="http://www.w3.org/1999/xlink" viewBox="-4.53 -4.53 248.82 60.82"><title>CA z/OS Extended Jobs logo</title><path d="M237.32 9.09c-1.06 0-1.93-.86-1.93-1.92s.87-1.93 1.93-1.93 1.93.87 1.93 1.93-.87 1.92-1.93 1.92m0-4.32c-1.32 0-2.4 1.08-2.4 2.4 0 1.32 1.08 2.4 2.4 2.4 1.32 0 2.4-1.08 2.4-2.4 0-1.32-1.08-2.4-2.4-2.4"/><path d="M237.48 7.07l-.51.01-.01-.62h.51c.19-.01.34.11.34.3.01.19-.14.31-.33.31m.83-.32c-.01-.42-.3-.72-.77-.72l-1.07.02.03 2.26h.49l-.01-.81h.35l.46.8.55-.01-.52-.86c.24-.06.49-.28.49-.68M51.8341 23.1805h-5.999V9.3465h5.835c1.574 0 2.557 1.016 2.557 2.393 0 1.377-.983 2.36-2.557 2.36H45v4h6.8341c1.836 0 2.819 1.18 2.819 2.556 0 1.574-1.049 2.525-2.819 2.525m3.376-7.245c2.066-.426 3.771-2.262 3.771-5.015 0-2.918-2.131-5.573-6.295-5.573h-11.506v21.865h11.867c4.163 0 6.359-2.623 6.359-5.901 0-2.754-1.868-5.015-4.196-5.376m17.8225-.5902H68v4.098h3.5576l4.294 7.769h5.343l-4.917-8.327c2.361-.557 4.786-2.622 4.786-6.49m0 0c0-4.065-2.786-7.048-7.343-7.048h-10.228v21.865h4.655V9.4453h4.885c1.869 0 3.278 1.114 3.278 2.95s-1.409 2.95-3.278 2.95m43.4206 4.0652l3.409-9.408 3.41 9.408zm.492-14.063l-8.458 21.865h5.31l1.377-3.704h9.376l1.344 3.704h5.311l-8.425-21.865zm26.9039 17.7671h-3.967v-13.67h3.967c4.491 0 6.851 2.983 6.851 6.852 0 3.704-2.524 6.818-6.851 6.818m0-17.767h-8.622v21.865h8.622c6.851 0 11.604-4.327 11.604-10.916s-4.753-10.949-11.604-10.949m82.1269-.0045l-5.734 9.27-5.734-9.27h-5.146v21.869h4.656v-14.293l5.012 7.622c.574.871 1.851.871 2.424 0l5.013-7.622v14.293h4.656V5.3431z"/><path id="a" d="M95.8253 23.3441c-3.871 0-7.008-3.138-7.008-7.008 0-3.871 3.137-7.009 7.008-7.009 3.87 0 7.008 3.138 7.008 7.009 0 3.87-3.138 7.008-7.008 7.008m0-18.536c-6.367 0-11.528 5.161-11.528 11.528 0 6.366 5.161 11.527 11.528 11.527 6.366 0 11.528-5.161 11.528-11.527 0-6.367-5.162-11.528-11.528-11.528"/><path d="M176.4035 19.7269c-1.195 2.156-3.492 3.617-6.132 3.617-3.87 0-7.008-3.138-7.008-7.008 0-3.871 3.138-7.008 7.008-7.008 2.618 0 4.897 1.438 6.1 3.565l3.27-3.269c-2.092-2.915-5.508-4.816-9.37-4.816-6.367 0-11.527 5.161-11.527 11.528 0 6.366 5.16 11.528 11.527 11.528 3.883 0 7.316-1.922 9.404-4.865z"/><use transform="translate(98.718)" xlink:href="#a"/><ellipse cx="16.52" cy="16.497" fill="#cc092f" rx="16.236" ry="16.235"/><path fill="#fff" d="M30.8253 20.8832c-1.857-.74-3.557-.492-5.261.541 0 0-.621.379-.807.496-.794.498-1.543.97-2.263.97-.687 0-1.363-.184-1.649-1.513-.446-2.073-1.534-7.167-2.009-9.69-.279-1.483-.432-2.282-.591-2.825-.28-.954-.792-1.473-1.519-1.556 0 0-.114-.016-.207-.016-.092 0-.218.018-.218.018-.72.086-1.229.605-1.507 1.554-.159.543-.312 1.342-.591 2.825-.475 2.523-1.563 7.617-2.009 9.69-.286 1.329-.962 1.513-1.649 1.513-.72 0-1.469-.472-2.263-.97-.186-.117-.808-.496-.808-.496-1.703-1.033-3.404-1.281-5.26-.541-.401.16-.79596.33918-1.17196.52018.257.806.57693 1.59925.94993 2.34425.411-.202.84203-.40243 1.28203-.53243.634-.187 1.284-.197 1.914.014.612.205 1.157.568 1.7.909 1.023.643 2.182 1.372 3.657 1.372 2.186 0 3.72-1.305 4.21-3.581.38-1.764 1.222-5.702 1.763-8.418 0 0 1.386 6.654 1.765 8.418.49 2.276 2.025 3.581 4.211 3.581 1.475 0 2.634-.729 3.657-1.372.543-.341 1.088-.704 1.7-.909.629-.211 1.28-.201 1.914-.014.44.13.87039.33065 1.28139.53265.374-.745.69309-1.53862.95009-2.34462-.376-.181-.77048-.36003-1.17148-.52003"/><g text-anchor="middle"><path d="M66.8668 49.41992q-.29542.1289-.53712.2417-.23633.1128-.62304.23633-.32764.10205-.71436.17187-.38135.0752-.84326.0752-.87012 0-1.58447-.2417-.70899-.24707-1.23536-.76807-.51562-.51025-.80566-1.29443-.29004-.78955-.29004-1.83154 0-.98828.2793-1.7671.2793-.7788.80566-1.31591.51026-.521 1.22998-.79492.7251-.27393 1.60596-.27393.64453 0 1.28369.15576.64453.15576 1.42871.54785v1.26221h-.08057q-.66064-.55322-1.31055-.80566-.6499-.25244-1.3911-.25244-.60694 0-1.09571.19873-.4834.19336-.86475.60693-.3706.40283-.58008 1.0205-.2041.61231-.2041 1.41798 0 .84326.22559 1.4502.23096.60693.59082.98827.37598.39746.87549.59082.50488.188 1.06347.188.76807 0 1.43946-.2632.67138-.26318 1.25683-.78954h.0752z"/><path d="M74.67636 50h-1.1333l-.78418-2.229H69.2999L68.51572 50h-1.0796l2.91114-7.99756h1.41797zm-2.24512-3.14209l-1.40185-3.92627-1.40723 3.92627z"/><path d="M84.02743 50h-4.84472v-.74658l3.49658-4.40967H79.2579v-.84326h4.67823v.71972l-3.5127 4.42579h3.604z"/><path d="M89.08164 41.64258l-3.85108 9.99023h-.9292l3.83496-9.99023z"/><path d="M96.49374 42.9209q.48877.5371.74659 1.31592.26318.7788.26318 1.76709 0 .98828-.26855 1.77246-.26319.7788-.74122 1.2998-.49414.54248-1.1709.8164-.67138.27393-1.53613.27393-.84326 0-1.53613-.2793-.6875-.27929-1.1709-.81103-.4834-.53174-.74658-1.30517-.25781-.77344-.25781-1.7671 0-.97753.2578-1.75097.25782-.7788.75196-1.33203.47266-.52637 1.1709-.80567.70361-.2793 1.53076-.2793.85938 0 1.5415.28468.6875.2793 1.16553.80029zm-.09668 3.083q0-1.55761-.69824-2.40087-.69824-.84863-1.90674-.84863-1.21923 0-1.91748.84863-.69287.84326-.69287 2.40088 0 1.57373.70899 2.41162.70898.83252 1.90136.83252 1.19239 0 1.896-.83252.70898-.8379.70898-2.41162z"/><path d="M105.00156 47.71728q0 .46729-.22022.92383-.21484.45655-.60693.77344-.42969.34375-1.0044.53711-.56933.19336-1.375.19336-.86474 0-1.55761-.16113-.6875-.16114-1.40186-.47803v-1.33203h.0752q.60692.50488 1.40184.7788.79493.27393 1.49318.27393.98827 0 1.53612-.3706.55323-.3706.55323-.98828 0-.53174-.26319-.78418-.25781-.25245-.78954-.3921-.40285-.10742-.8755-.17724-.46729-.06982-.99365-.17725-1.06348-.22558-1.5791-.76806-.51025-.54785-.51025-1.42334 0-1.0044.84863-1.64356.84863-.64453 2.1538-.64453.84326 0 1.54688.16114.70361.16113 1.2461.39746v1.25683h-.0752q-.45656-.38672-1.20314-.63916-.7412-.25781-1.52002-.25781-.854 0-1.375.3545-.51562.35448-.51562.91308 0 .4995.25781.78418.25781.28466.90771.43505.34375.0752.97754.18262.6338.10742 1.07422.22022.8916.23633 1.34277.71435.45118.47803.45118 1.3374z"/><path d="M115.84579 50h-5.26904v-7.99756h5.26904v.94531h-4.20556v2.19141h4.20556v.94531h-4.20556v2.97022h4.20556z"/><path d="M122.6456 50h-1.27295l-1.70264-2.3042L117.95663 50h-1.17627l2.3418-2.9917-2.32031-3.00781h1.27295l1.69189 2.2666 1.69727-2.2666h1.18164l-2.35791 2.9541z"/><path d="M127.07675 49.94629q-.28467.0752-.62305.12353-.333.04834-.59619.04834-.91845 0-1.39648-.49414-.47803-.49414-.47803-1.58447v-3.19043h-.68213v-.84863h.68213v-1.72412h1.00977v1.72412h2.08398v.84863h-2.08398v2.73389q0 .47265.0215.7412.0215.2632.15039.49415.11817.21484.32227.3169.20947.09667.63379.09667.24707 0 .51562-.06983.26856-.0752.38672-.12353h.0537z"/><path d="M133.31796 47.10498h-4.42041q0 .55322.16651.9668.1665.4082.45654.67138.2793.25782.66064.38672.38672.1289.84864.1289.6123 0 1.22998-.24169.62304-.24707.88623-.4834h.0537v1.10108q-.51026.21484-1.04199.35986-.53174.14502-1.11719.14502-1.49317 0-2.33106-.80567-.83789-.81103-.83789-2.29882 0-1.47168.8003-2.33643.80566-.86475 2.11621-.86475 1.21386 0 1.86914.70899.66064.70898.66064 2.01416zm-.98291-.77344q-.005-.79492-.40283-1.22998-.39209-.43506-1.19775-.43506-.81104 0-1.29444.47803-.47802.47803-.54248 1.18701z"/><path d="M139.86533 50h-1.00977v-3.41602q0-.41357-.0483-.77343-.0483-.36524-.17725-.56934-.13427-.22559-.38671-.333-.25245-.1128-.65528-.1128-.41357 0-.86474.2041-.45118.2041-.86475.521V50h-1.00977v-5.99951h1.00977v.66601q.47266-.39209.97754-.6123.50488-.22022 1.03662-.22022.97217 0 1.48242.58545.51026.58545.51026 1.68653z"/><path d="M146.67587 50h-1.00976v-.62842q-.43506.37598-.90772.58545-.47265.20947-1.02588.20947-1.07422 0-1.708-.82715-.62842-.82714-.62842-2.29345 0-.7627.21484-1.35889.22022-.59619.59082-1.01514.36524-.4082.84863-.62304.48877-.21485 1.00977-.21485.47266 0 .83789.10205.36524.09668.76807.30616v-2.59961h1.00976zm-1.00976-1.47705v-3.44287q-.40821-.18262-.73047-.25244-.32227-.06983-.70361-.06983-.84864 0-1.32129.59082-.47266.59082-.47266 1.67578 0 1.06885.36523 1.62744.36524.55322 1.1709.55322.42969 0 .87012-.18799.44043-.19335.82178-.49414z"/><path d="M153.68515 47.10498h-4.42041q0 .55322.1665.9668.16651.4082.45655.67138.27929.25782.66064.38672.38672.1289.84863.1289.61231 0 1.22998-.24169.62305-.24707.88624-.4834h.0537v1.10108q-.51026.21484-1.042.35986-.53173.14502-1.11718.14502-1.49317 0-2.33106-.80567-.83789-.81103-.83789-2.29882 0-1.47168.80029-2.33643.80567-.86475 2.11621-.86475 1.21387 0 1.86915.70899.66064.70898.66064 2.01416zm-.98291-.77344q-.005-.79492-.40283-1.22998-.39209-.43506-1.19776-.43506-.81103 0-1.29443.47803-.47803.47803-.54248 1.18701z"/><path d="M160.08212 50h-1.00976v-.62842q-.43506.37598-.90772.58545-.47265.20947-1.02588.20947-1.07422 0-1.708-.82715-.62842-.82714-.62842-2.29345 0-.7627.21484-1.35889.22022-.59619.59082-1.01514.36524-.4082.84863-.62304.48877-.21485 1.00977-.21485.47266 0 .83789.10205.36524.09668.76807.30616v-2.59961h1.00976zm-1.00976-1.47705v-3.44287q-.40821-.18262-.73047-.25244-.32227-.06983-.70361-.06983-.84864 0-1.32129.59082-.47266.59082-.47266 1.67578 0 1.06885.36523 1.62744.36524.55322 1.1709.55322.42969 0 .87012-.18799.44043-.19335.82178-.49414z"/><path d="M168.9498 47.92139q0 1.05273-.64453 1.62207-.63916.56933-1.71875.56933-.25782 0-.6875-.04834-.42969-.04297-.71973-.10742v-.99365h.0591q.22022.07519.54248.15576.32227.08057.66065.08057.49414 0 .78418-.1128.29541-.11278.43506-.32226.14502-.21484.18261-.52636.043-.31153.043-.71973v-4.66748h-1.69189v-.84864h2.75537z"/><path d="M176.05038 47.00293q0 1.4663-.75195 2.31494-.75195.84863-2.01416.84863-1.27295 0-2.0249-.84863-.74658-.84863-.74658-2.31494 0-1.4663.74658-2.31494.75195-.854 2.0249-.854 1.26221 0 2.01416.854.75195.84863.75195 2.31494zm-1.04199 0q0-1.16553-.45654-1.7295-.45654-.56933-1.26758-.56933-.82178 0-1.27832.56934-.45117.56396-.45117 1.72949 0 1.12793.45654 1.71338.45654.58008 1.27295.58008.80567 0 1.26221-.57471.46191-.58008.46191-1.71875z"/><path d="M182.89316 46.95459q0 .75195-.21485 1.35352-.20947.60156-.56933 1.00976-.38135.42432-.83789.63916-.45655.20947-1.0044.20947-.51025 0-.8916-.12353-.38135-.11816-.75195-.32227l-.06445.2793h-.94532v-8.35742h1.00977v2.98633q.42431-.34912.90234-.56934.47803-.22559 1.07422-.22559 1.06348 0 1.67578.81641.61768.8164.61768 2.3042zm-1.04199.02685q0-1.07422-.3545-1.62744-.35449-.5586-1.14404-.5586-.44043 0-.8916.19337-.45117.18798-.83789.48876v3.4375q.42969.19336.73584.26856.31152.0752.70361.0752.83789 0 1.31055-.54785.47803-.55322.47803-1.7295z"/><path d="M188.75302 48.2705q0 .82179-.68213 1.34815-.67676.52637-1.85303.52637-.66601 0-1.2246-.15576-.55323-.16114-.9292-.34912v-1.1333h.0537q.47802.35986 1.06347.5747.58545.20948 1.12256.20948.66602 0 1.04199-.21485.37598-.21484.37598-.67676 0-.35449-.2041-.5371-.2041-.18262-.78418-.31153-.21484-.04834-.56396-.1128-.34375-.06444-.62842-.13964-.78955-.20947-1.12256-.6123-.32764-.4082-.32764-.99903 0-.3706.15039-.69824.15576-.32764.46729-.58545.30078-.25244.76269-.39746.46729-.1504 1.042-.1504.5371 0 1.08496.13429.55322.1289.91845.3169v1.07958h-.0537q-.38672-.28467-.93994-.47803-.55322-.19873-1.08496-.19873-.55322 0-.93457.21485-.38135.20947-.38135.62841 0 .37061.23096.5586.22558.18799.73047.30615.27929.06445.62304.1289.34913.06446.58008.11817.70362.16113 1.08496.55322.38135.39746.38135 1.05274z"/></g></svg>