<svg xmlns="http://www.w3.org/2000/svg" role="img" xmlns:xlink="http://www.w3.org/1999/xlink" viewBox="-4.78 -4.78 248.82 80.32"><title>CA z/OS Extended Jobs Plug-in for Zowe CLI (CLI ZOWE V1) logo</title><path d="M237.0368 8.82828c-1.06 0-1.93-.86-1.93-1.92s.87-1.93 1.93-1.93 1.93.87 1.93 1.93-.87 1.92-1.93 1.92m0-4.32c-1.32 0-2.4 1.08-2.4 2.4 0 1.32 1.08 2.4 2.4 2.4 1.32 0 2.4-1.08 2.4-2.4 0-1.32-1.08-2.4-2.4-2.4"/><path d="M237.1968 6.80828l-.51.01-.01-.62h.51c.19-.01.34.11.34.3.01.19-.14.31-.33.31m.83-.32c-.01-.42-.3-.72-.77-.72l-1.07.02.03 2.26h.49l-.01-.81h.35l.46.8.55-.01-.52-.86c.24-.06.49-.28.49-.68M51.5509 22.91878h-5.999v-13.834h5.835c1.574 0 2.557 1.016 2.557 2.393 0 1.377-.983 2.36-2.557 2.36h-6.6701v4h6.8341c1.836 0 2.819 1.18 2.819 2.556 0 1.574-1.049 2.525-2.819 2.525m3.376-7.245c2.066-.426 3.771-2.262 3.771-5.015 0-2.918-2.131-5.573-6.295-5.573h-11.506v21.865h11.867c4.163 0 6.359-2.623 6.359-5.901 0-2.754-1.868-5.015-4.196-5.376m17.8225-.5902h-5.0326v4.098h3.5576l4.294 7.769h5.343l-4.917-8.327c2.361-.557 4.786-2.622 4.786-6.49m0 0c0-4.065-2.786-7.048-7.343-7.048h-10.228v21.865h4.655v-17.767h4.885c1.869 0 3.278 1.114 3.278 2.95s-1.409 2.95-3.278 2.95m43.4206 4.0652l3.409-9.408 3.41 9.408zm.492-14.063l-8.458 21.865h5.31l1.377-3.704h9.376l1.344 3.704h5.311l-8.425-21.865zm26.9039 17.7671h-3.967v-13.67h3.967c4.491 0 6.851 2.983 6.851 6.852 0 3.704-2.524 6.818-6.851 6.818m0-17.767h-8.622v21.865h8.622c6.851 0 11.604-4.327 11.604-10.916s-4.753-10.949-11.604-10.949m82.1269-.0045l-5.734 9.27-5.734-9.27h-5.146v21.869h4.656v-14.293l5.012 7.622c.574.871 1.851.871 2.424 0l5.013-7.622v14.293h4.656v-21.869z"/><path id="a" d="M95.5421 23.08238c-3.871 0-7.008-3.138-7.008-7.008 0-3.871 3.137-7.009 7.008-7.009 3.87 0 7.008 3.138 7.008 7.009 0 3.87-3.138 7.008-7.008 7.008m0-18.536c-6.367 0-11.528 5.161-11.528 11.528 0 6.366 5.161 11.527 11.528 11.527 6.366 0 11.528-5.161 11.528-11.527 0-6.367-5.162-11.528-11.528-11.528"/><path d="M176.1203 19.46518c-1.195 2.156-3.492 3.617-6.132 3.617-3.87 0-7.008-3.138-7.008-7.008 0-3.871 3.138-7.008 7.008-7.008 2.618 0 4.897 1.438 6.1 3.565l3.27-3.269c-2.092-2.915-5.508-4.816-9.37-4.816-6.367 0-11.527 5.161-11.527 11.528 0 6.366 5.16 11.528 11.527 11.528 3.883 0 7.316-1.922 9.404-4.865z"/><use width="100%" height="100%" transform="translate(98.718)" xlink:href="#a"/><ellipse cx="16.236" cy="16.235" fill="#cc092f" rx="16.236" ry="16.235"/><path fill="#fff" d="M30.5421 20.62148c-1.857-.74-3.557-.492-5.261.541 0 0-.621.379-.807.496-.794.498-1.543.97-2.263.97-.687 0-1.363-.184-1.649-1.513-.446-2.073-1.534-7.167-2.009-9.69-.279-1.483-.432-2.282-.591-2.825-.28-.954-.792-1.473-1.519-1.556 0 0-.114-.016-.207-.016-.092 0-.218.018-.218.018-.72.086-1.229.605-1.507 1.554-.159.543-.312 1.342-.591 2.825-.475 2.523-1.563 7.617-2.009 9.69-.286 1.329-.962 1.513-1.649 1.513-.72 0-1.469-.472-2.263-.97-.186-.117-.808-.496-.808-.496-1.703-1.033-3.404-1.281-5.26-.541-.401.16-.79597.33918-1.17197.52018.257.806.57694 1.59925.94994 2.34425.411-.202.84203-.40243 1.28203-.53243.634-.187 1.284-.197 1.914.014.612.205 1.157.568 1.7.909 1.023.643 2.182 1.372 3.657 1.372 2.186 0 3.72-1.305 4.21-3.581.38-1.764 1.222-5.702 1.763-8.418 0 0 1.386 6.654 1.765 8.418.49 2.276 2.025 3.581 4.211 3.581 1.475 0 2.634-.729 3.657-1.372.543-.341 1.088-.704 1.7-.909.629-.211 1.28-.201 1.914-.014.44.13.87038.33065 1.28138.53265.374-.745.6931-1.53862.9501-2.34462-.376-.181-.77048-.36003-1.17148-.52003"/><path d="M29.81944 37.26816v1.83907q-.87372-.82024-1.86737-1.22605-.98508-.4058-2.09865-.4058-2.19287 0-3.35784 1.35556-1.16496 1.34692-1.16496 3.90263 0 2.54707 1.16496 3.90263 1.16497 1.34692 3.35784 1.34692 1.11357 0 2.09865-.4058.99365-.4058 1.86737-1.22605v1.8218q-.90799.62166-1.92733.9325-1.01078.31082-2.14148.31082-2.90384 0-4.5742-1.78727-1.67035-1.7959-1.67035-4.89555 0-3.1083 1.67035-4.89556 1.67036-1.7959 4.5742-1.7959 1.14783 0 2.15861.31083 1.01934.3022 1.9102.91522zm6.96408.72527l-2.34706 6.41516h4.7027zm-.9765-1.7182h1.96158l4.874 12.89077h-1.79883l-1.16497-3.30687h-5.76486L32.74898 49.166h-1.82454zm13.52557 3.22054h7.4866v1.45053l-5.9276 6.95048h5.9276V49.166h-7.70075v-1.45053l5.9276-6.95049H49.3326zm12.70324-3.22054h1.4562L59.03777 50.8065h-1.4562zm8.38603 1.18288q-1.8845 0-2.99807 1.416-1.105 1.416-1.105 3.85946 0 2.43482 1.105 3.85082 1.11357 1.416 2.99807 1.416 1.8845 0 2.98094-1.416 1.105-1.416 1.105-3.85082 0-2.44346-1.105-3.85946-1.09644-1.416-2.98094-1.416zm0-1.416q2.6897 0 4.30009 1.8218 1.61039 1.81317 1.61039 4.86966 0 3.04785-1.6104 4.86965-1.61038 1.81317-4.30008 1.81317-2.69826 0-4.31722-1.81317-1.61039-1.81317-1.61039-4.86965 0-3.05649 1.6104-4.86965 1.61895-1.8218 4.31721-1.8218zm16.2838.6562v1.70092q-.98508-.47488-1.8588-.708-.87372-.23312-1.68749-.23312-1.41337 0-2.1843.55259-.76237.55258-.76237 1.5714 0 .85479.50539 1.29513.51395.4317 1.9359.69936l1.04504.21586q1.93589.37127 2.85244 1.31239.92512.93248.92512 2.5039 0 1.8736-1.25062 2.84063-1.24206.96702-3.64908.96702-.90798 0-1.9359-.20722-1.01934-.20722-2.11577-.61302v-1.7959q1.0536.59575 2.06438.89795 1.01078.3022 1.9873.3022 1.4819 0 2.28709-.58713.8052-.58712.8052-1.67502 0-.94976-.58248-1.48507-.57392-.53532-1.89307-.80298l-1.0536-.20722q-1.9359-.38853-2.80106-1.21741-.86516-.82888-.86516-2.30532 0-1.70955 1.19066-2.69385 1.19923-.98429 3.29788-.98429.89942 0 1.8331.16405.93369.16405 1.9102.49215zm9.05416-.42308h8.08623v1.4678h-6.3559v3.8163h6.09036v1.4678h-6.09037v4.67107h6.5101v1.4678h-8.24042zm19.00777 3.22054l-3.4692 4.7056 3.64908 4.96463h-1.8588l-2.79249-3.79902-2.79248 3.79902h-1.8588l3.72616-5.0596-3.40923-4.61063h1.8588l2.54408 3.44502 2.54407-3.44502zm3.96602-2.74566v2.74566h3.24648v1.23468h-3.24648V45.98q0 1.18288.31693 1.51961.32551.33673 1.3106.33673h1.61895V49.166h-1.61896q-1.82454 0-2.51838-.6821-.69384-.69073-.69384-2.5039v-5.24955h-1.1564v-1.23468h1.1564V36.7501zm13.53413 7.1836v.77708h-7.24676q.10279 1.64048.97651 2.5039.8823.85477 2.44985.85477.90799 0 1.75602-.22448.85659-.22449 1.69604-.67347v1.50234q-.84802.36264-1.73888.55259-.89085.18995-1.8074.18995-2.29566 0-3.64052-1.34693-1.33627-1.34692-1.33627-3.6436 0-2.37439 1.26775-3.76448 1.27632-1.39873 3.43493-1.39873 1.9359 0 3.05803 1.26058 1.1307 1.25195 1.1307 3.41048zm-1.57613-.46624q-.01714-1.30375-.7281-2.08083-.7024-.77707-1.86737-.77707-1.31915 0-2.11578.75117-.78806.75117-.90799 2.11536zm12.1379-.13815V49.166h-1.57613v-5.78487q0-1.37283-.53108-2.05493-.53109-.6821-1.59326-.6821-1.27632 0-2.013.82025-.73666.82024-.73666 2.23624V49.166h-1.5847v-9.67023h1.5847v1.50234q.56535-.87205 1.32771-1.30376.77094-.4317 1.77315-.4317 1.65322 0 2.50125 1.0361.84802 1.02745.84802 3.03057zm9.4739-2.36575v-5.23229h1.57613V49.166h-1.57612v-1.45053q-.49683.8634-1.2592 1.28648-.7538.41444-1.81597.41444-1.73888 0-2.83532-1.39873-1.08786-1.39873-1.08786-3.67814t1.08786-3.67814q1.09644-1.39873 2.83532-1.39873 1.06218 0 1.81597.42307.76237.41444 1.2592 1.27785zm-5.37082 3.37595q0 1.75273.71097 2.75429.71953.99292 1.97016.99292 1.25062 0 1.97016-.99292.71954-1.00156.71954-2.7543 0-1.75272-.71954-2.74565-.71954-1.00156-1.97016-1.00156-1.25063 0-1.97016 1.00156-.71097.99293-.71097 2.74566zm18.39958-.4058v.77707h-7.24677q.1028 1.64048.97651 2.5039.8823.85477 2.44986.85477.90798 0 1.756-.22448.8566-.22449 1.69606-.67347v1.50234q-.84803.36264-1.73888.55259-.89086.18995-1.8074.18995-2.29567 0-3.64052-1.34693-1.33628-1.34692-1.33628-3.6436 0-2.37439 1.26775-3.76448 1.27632-1.39873 3.43493-1.39873 1.9359 0 3.05803 1.26058 1.1307 1.25195 1.1307 3.41048zm-1.57614-.46625q-.01713-1.30375-.7281-2.08083-.7024-.77707-1.86737-.77707-1.31915 0-2.11577.75117-.78807.75117-.908 2.11536zm10.47612-2.5039v-5.23229h1.57613V49.166h-1.57613v-1.45053q-.49682.8634-1.2592 1.28648-.75379.41444-1.81596.41444-1.73888 0-2.83532-1.39873-1.08787-1.39873-1.08787-3.67814t1.08787-3.67814q1.09644-1.39873 2.83532-1.39873 1.06217 0 1.81597.42307.76237.41444 1.25919 1.27785zm-5.37083 3.37595q0 1.75273.71097 2.75429.71954.99292 1.97016.99292 1.25063 0 1.97016-.99292.71954-1.00156.71954-2.7543 0-1.75272-.71954-2.74565-.71953-1.00156-1.97016-1.00156-1.25062 0-1.97016 1.00156-.71097.99293-.71097 2.74566zm15.84693-8.06429h1.73032v11.99282q0 2.33122-.8823 3.38458-.87371 1.05337-2.81818 1.05337h-.65957v-1.4678h.53965q1.14783 0 1.61896-.64757.47112-.64756.47112-2.32258zm8.82289 4.33434q-1.26775 0-2.00442 1.00156-.73667.99293-.73667 2.72839 0 1.73546.7281 2.73702.73667.99292 2.01299.99292 1.2592 0 1.99586-1.00156.73667-1.00156.73667-2.72838 0-1.7182-.73667-2.71976-.73667-1.01019-1.99586-1.01019zm0-1.34692q2.05582 0 3.22935 1.34692 1.17353 1.34693 1.17353 3.72995 0 2.37439-1.17353 3.72994-1.17353 1.34693-3.22935 1.34693-2.06438 0-3.23791-1.34693-1.16497-1.35555-1.16497-3.72994 0-2.38302 1.16497-3.72995 1.17353-1.34692 3.23791-1.34692zm13.8939 5.07687q0-1.75273-.71953-2.74566-.71097-1.00156-1.9616-1.00156-1.25062 0-1.97015 1.00156-.71097.99293-.71097 2.74566 0 1.75273.71097 2.75429.71953.99292 1.97016.99292 1.25062 0 1.9616-.99292.71953-1.00156.71953-2.7543zm-5.36225-3.37595q.49682-.86341 1.25062-1.27785.76237-.42307 1.81597-.42307 1.74745 0 2.83532 1.39873 1.09644 1.39873 1.09644 3.67814t-1.09644 3.67814q-1.08787 1.39873-2.83532 1.39873-1.0536 0-1.81597-.41444-.7538-.42307-1.25062-1.28648V49.166h-1.5847V35.73128h1.5847zm15.72701-1.18288v1.50234q-.66813-.34536-1.38767-.51805-.71954-.17268-1.49047-.17268-1.17353 0-1.76458.36264-.58248.36263-.58248 1.0879 0 .55258.41973.87205.41973.31082 1.68748.59575l.53966.12088q1.67892.36263 2.38132 1.02746.71097.6562.71097 1.83907 0 1.34693-1.06217 2.13263-1.05361.78571-2.90385.78571-.77093 0-1.61038-.15541-.8309-.14678-1.75602-.44898v-1.64049q.87372.45761 1.72175.69074.84802.22448 1.67892.22448 1.11357 0 1.71318-.3799.59961-.38854.59961-1.0879 0-.64756-.43686-.99293-.4283-.34536-1.89306-.66482l-.54822-.12952q-1.46478-.31083-2.11578-.94975-.651-.64756-.651-1.77 0-1.3642.95937-2.10673.95938-.74253 2.72396-.74253.87372 0 1.64466.1295.77093.12952 1.42193.38854zM39.4386 55.7747v4.84375h2.17574q1.2078 0 1.86737-.6303.65958-.63028.65958-1.7959 0-1.15697-.65958-1.78726-.65957-.63029-1.86737-.63029zm-1.73031-1.43327h3.90605q2.15005 0 3.24648.9843 1.105.97565 1.105 2.86653 0 1.90814-1.105 2.8838-1.09643.97566-3.24648.97566H39.4386v5.18048H37.7083zm10.51894-.54395h1.57613V67.2322h-1.57613zm4.70268 9.61843v-5.85394h1.57613v5.7935q0 1.37283.53109 2.06356.53108.6821 1.59326.6821 1.27632 0 2.01299-.82025.74523-.82024.74523-2.23624v-5.48267h1.57613v9.67023H59.3886v-1.48507q-.57392.88068-1.33628 1.31239-.7538.42307-1.75601.42307-1.65322 0-2.50982-1.0361-.85659-1.0361-.85659-3.03058zm3.96602-6.08706zm13.6455 4.95599q0-1.72683-.71097-2.67658-.7024-.94976-1.97873-.94976-1.26775 0-1.97872.94976-.7024.94975-.7024 2.67658 0 1.7182.7024 2.66795.71097.94975 1.97872.94975 1.27632 0 1.97873-.94975.71097-.94976.71097-2.66795zm1.57613 3.74722q0 2.46936-1.08788 3.6695-1.08787 1.20878-3.33213 1.20878-.8309 0-1.56757-.12951-.73667-.12088-1.4305-.3799V68.8554q.69383.3799 1.37054.56122.6767.18131 1.37911.18131 1.55043 0 2.32137-.82024.77093-.8116.77093-2.46073v-.7857q-.48826.85477-1.25063 1.27785-.76236.42307-1.82453.42307-1.76458 0-2.84389-1.35556-1.0793-1.35556-1.0793-3.5918 0-2.24488 1.0793-3.60044 1.0793-1.35555 2.84389-1.35555 1.06217 0 1.82453.42307.76237.42307 1.25063 1.27785v-1.4678h1.57613zm2.44984-4.35161h4.61703v1.416H74.5674zm7.13541-4.11848h1.57613v9.67023H81.7028zm0-3.76449h1.57613v2.01176H81.7028zm12.8403 7.59804v5.83668h-1.57613v-5.78487q0-1.37283-.53108-2.05493-.5311-.6821-1.59327-.6821-1.27632 0-2.01298.82025-.73667.82024-.73667 2.23624v5.46541h-1.5847v-9.67023h1.5847v1.50234q.56535-.87205 1.32772-1.30376.77093-.4317 1.77314-.4317 1.65322 0 2.50124 1.0361.84803 1.02745.84803 3.03057zm13.60267-7.59804v1.32103h-1.5076q-.84803 0-1.1821.34536-.3255.34537-.3255 1.24332v.85478h2.59547v1.23468h-2.59547v8.43555h-1.5847v-8.43555h-1.5076v-1.23468h1.5076v-.67347q0-1.61458.74524-2.34848.74523-.74254 2.36419-.74254zm5.0282 4.87829q-1.26776 0-2.00444 1.00156-.73666.99293-.73666 2.72839 0 1.73546.7281 2.73702.73667.99292 2.013.99292 1.25918 0 1.99585-1.00156.73667-1.00156.73667-2.72838 0-1.7182-.73667-2.71976-.73667-1.01019-1.99586-1.01019zm0-1.34692q2.05581 0 3.22934 1.34692 1.17353 1.34693 1.17353 3.72995 0 2.37439-1.17353 3.72994-1.17353 1.34693-3.22935 1.34693-2.06439 0-3.23791-1.34693-1.16497-1.35555-1.16497-3.72994 0-2.38302 1.16497-3.72995 1.17352-1.34692 3.23791-1.34692zm12.56619 1.71819q-.26555-.15542-.58249-.22449-.30837-.0777-.68527-.0777-1.33628 0-2.05582.88068-.71097.87204-.71097 2.51253v5.09414h-1.5847v-9.67023h1.5847v1.50234q.49683-.88069 1.29345-1.30376.79663-.4317 1.9359-.4317.16275 0 .35976.0259.19702.01726.43687.06044zm6.58718-4.7056h10.04781v1.32965l-8.08622 10.0933h8.28324v1.46781h-10.44185v-1.32966l8.08622-10.0933h-7.8892zm16.41229 4.33433q-1.26776 0-2.00443 1.00156-.73667.99293-.73667 2.72839 0 1.73546.7281 2.73702.73667.99292 2.013.99292 1.25918 0 1.99585-1.00156.73667-1.00156.73667-2.72838 0-1.7182-.73667-2.71976-.73667-1.01019-1.99585-1.01019zm0-1.34692q2.05581 0 3.22934 1.34692 1.17353 1.34693 1.17353 3.72995 0 2.37439-1.17353 3.72994-1.17353 1.34693-3.22934 1.34693-2.0644 0-3.23793-1.34693-1.16495-1.35555-1.16495-3.72994 0-2.38302 1.16495-3.72995 1.17354-1.34692 3.23793-1.34692zm6.09036.23312h1.57613l1.97016 7.54623 1.9616-7.54623h1.8588l1.97016 7.54623 1.9616-7.54623h1.57612l-2.50981 9.67023h-1.8588l-2.06439-7.92614-2.07296 7.92614h-1.8588zm23.47916 4.43794v.77708h-7.24676q.10279 1.64048.97652 2.5039.88228.85477 2.44984.85477.90799 0 1.75602-.22448.85659-.22449 1.69605-.67347v1.50234q-.84803.36264-1.73888.55259t-1.8074.18995q-2.29567 0-3.64052-1.34693-1.33628-1.34692-1.33628-3.6436 0-2.37439 1.26775-3.76448 1.27632-1.39873 3.43493-1.39873 1.9359 0 3.05803 1.26058 1.1307 1.25195 1.1307 3.41048zm-1.57613-.46624q-.01713-1.30376-.7281-2.08083-.7024-.77707-1.86737-.77707-1.31915 0-2.11577.75117-.78807.75117-.908 2.11536zm19.39323-6.19931v1.83907q-.87372-.82024-1.86737-1.22605-.98508-.4058-2.09864-.4058-2.19288 0-3.35784 1.35556-1.16497 1.34692-1.16497 3.90263 0 2.54707 1.16497 3.90263 1.16496 1.34692 3.35784 1.34692 1.11356 0 2.09864-.4058.99365-.4058 1.86737-1.22605v1.8218q-.90799.62166-1.92733.9325-1.01078.31082-2.14148.31082-2.90384 0-4.5742-1.78727-1.67035-1.7959-1.67035-4.89555 0-3.1083 1.67036-4.89556 1.67035-1.7959 4.5742-1.7959 1.14783 0 2.1586.31083 1.01934.3022 1.9102.91522zm2.6897-.99293h1.7303V65.7644h6.22743v1.4678h-7.95773zm9.76514 0h1.73031V67.2322h-1.7303z"/></svg>