<svg xmlns="http://www.w3.org/2000/svg" role="img" viewBox="67.81 39.30 335.14 178.39"><title>Citi logo</title><path fill="#ff3c28" d="M271.45 45.9a111.58 111.58 0 0 1 91.4 47.2h-25.4a88.78 88.78 0 0 0-132 0h-25.4a111.58 111.58 0 0 1 91.4-47.2z"/><path fill="#255be3" d="M74.25 158.3c0-29.8 24.4-53 56.2-53 18.4 0 35.2 8.2 44.8 20.6l-13.8 13.8a39.54 39.54 0 0 0-30.8-15.2c-19 0-34.2 14.2-34.2 33.8 0 19.8 15.2 34 34.2 34a40 40 0 0 0 31.8-15.8l13.6 13.4c-9.2 13-26.8 21.6-45.6 21.6-31.8 0-56.2-23.2-56.2-53.2zm119.8-49.4h21.8v99h-21.8zm62.4 72.4v-54h-23.8v-18.4h24.8V87.7l20.4-10v31.2h32.4v18.4h-32.4v50.4c0 10 5.6 14.4 16.2 14.4a38.41 38.41 0 0 0 16-3.4v18.8a47.56 47.56 0 0 1-20 4c-19.4 0-33.6-10.6-33.6-30.2zm71-72.4h21.8v99h-21.8zm57.8-32.4c6.59 0 11.39 4.6 11.39 10.8s-4.8 10.8-11.39 10.8-11.41-4.6-11.41-10.8 4.81-10.8 11.41-10.8zm0 19.6c5.39 0 9.2-3.4 9.2-8.8s-3.81-8.8-9.2-8.8-9.25 3.4-9.25 8.8 3.84 8.8 9.25 8.8zm-4.41-14.6h5.61c2.39 0 4.19 1 4.19 3.4a3.43 3.43 0 0 1-2.8 3.4l2.8 4.8H388l-2.4-4.6h-2.39v4.6h-2.41zm5.2 5c1.21 0 2-.2 2-1.6 0-1-.59-1.4-1.79-1.4h-3v3z"/></svg>