<svg xmlns="http://www.w3.org/2000/svg" role="img" xmlns:xlink="http://www.w3.org/1999/xlink" viewBox="-10.44 -9.94 398.38 516.88"><title>ClefOS for System z logo</title><symbol id="a" transform="translate(-23.19 6.627)" viewBox="-138.044 -199.949 276.088 399.898"><path fill="#e8e8e8" fill-rule="evenodd" d="M-51.216 126.329s1.5 4.5 3.5 9 8.5 17 14.5 26 21 29.5 43.5 33.5 59.5 6.5 77.5-16.5 17.5-58 19-68 1-39.5-16-123.5c-1.5-8.499 30-76 30-76 6-14 14-22.5 14.5-25s-118.5-29-166.5-6.5c21.5 43 43 84.5 44 107s-3 74.5-3 74.5c-9 2-21 4-25.5 7-3.5 0 .5 5-11-6s-16-17.5-36-26c-19.999-8.5-45.999-10-59.499-6.5s-14 11.5-13 15 56.5 41.5 64.499 51.5c8 10 18.5 24 19.5 30.5z" clip-rule="evenodd"/><g fill="#c5c5c5" fill-rule="evenodd" clip-rule="evenodd"><path d="M71.118-8.506c11-13.333 22.857-17.717 22.857-17.717-2.225 6.343-3.525 11.159-3.191 13.052 17 84 17.5 113.5 16 123.5s-1 45-19 68c0 0-2.666-12.167-5-15.833-3.227-5.07-14.671-2.399-27.666-1.334-20.334 1.667-31.875-7.5-33.75-14.458-1.688-6.263 1.957-9.333 8.5-10.042 6.759-.73 12.91 3.828 17.916 9.167 5 5.333 14.334 11.667 23 5.667s12.334-3.334 16.334-7.667 4-28-.334-42.667c-4.334-14.667-78-6.333-90-6.666-12-.334-10.333 11.333-10.333 13.333s-8 4-10.333 4c-2.334 0-8.334-4-8.667-5.667-.333-1.667 10.667-29.333 16.833-38.333 4.5-3 16.5-5 25.5-7 0 0 4-52 3-74.5-.812-18.293-15.174-49.14-32.07-83.144 14.404-10.025 27.07-22.691 26.07-15.691-1 7 7.535 72.182 18.667 86 9.667 12 37.59 27.789 45.667 18z"/><path d="M-33.216 161.329c-6-9-12.5-21.5-14.5-26s-3.5-9-3.5-9c3.334-4.167 6.772-16.22 11-7.5 5.334 11 26.843 33.694 18.334 29-19.334-10.667-11.334 13.5-11.334 13.5z"/></g><path fill="#737373" fill-rule="evenodd" d="M-4.653 63.954c4.688-1.125 9.938-2.125 14.438-3.125 0 0 1.158-15.056 2.072-32.471 12.428 24.471 34.545 19.499 32.428 27.971-1 4-5.5 9.5-9.5 8.5-6.598-1.649-31.876-2.25-39.438-.875z" clip-rule="evenodd"/><path fill="#737373" fill-rule="evenodd" d="M-11.077 65.744c-1.908.643-3.51 1.332-4.639 2.085-3.5 0 .5 5-11-6s-16-17.5-36-26c-19.999-8.5-45.999-10-59.499-6.5s-14 11.5-13 15 56.5 41.5 64.499 51.5c8 10 18.5 24 19.5 30.5 0 0 .824 2.472 2.065 5.584.433 1.087.917 2.251 1.435 3.416 0-7-1.25-5.25.75-9.5s6-7.5 12.5-4.75 7.75 6.75 9.5 5.25 3.5-34 12-37.5 13.5-.5 12.25-3.5-4.75-8.5-5-11.5-5.25-3-5-7" clip-rule="evenodd"/><path fill="#878787" fill-rule="evenodd" d="M-129.965 46.079c1 1.5 12 10.5 14.5 11s28 2.5 45.499 24.25c7-6.25 31.598 3.042 35.5-1 7-7.25-39.499-29.75-54.249-34s-18.25-3.75-14-5.5 17.45 2.798 19.75.5c1.5-1.5 4.25-1.5-3.5-4-10.407-3.356-44-1.25-43.5 8.75z" clip-rule="evenodd"/><g fill-rule="evenodd" clip-rule="evenodd"><path fill="#212122" d="M-119.715 30.579c-3.937.944-1.25 8.75-1.5 11.5s-3.017 1.329-4.267-1.171c-1.25-2.5-.155-5.996-1.52-7.477-.342-.371-1.14-.366-1.635-.272-1.487.281-1.579.17-1.579.17 2.666-1.644 11.388-4.47 12.638-4.22s-2.137 1.47-2.137 1.47z"/><path fill="#4e4e4e" d="M-48.466 96.579c-2.248-.713-6.495-5.128-4-6.812 3.125-2.109 6.464-.931 8.203 1.141 1.641 1.953 3.168 3.813 1.734 4.906-2.296 1.749-4.656 1.171-5.937.765z"/><path fill="#262a2f" d="M-46.622 95.298c-1.076-.149-3.004-.845-3.984-2.609-1.25-2.25-.328-1.719 1.672-1.219s4.521.931 4.969 1.859c.624 1.297-1.423 2.141-2.657 1.969z"/></g><path fill="none" fill-rule="evenodd" stroke="#000" stroke-linecap="round" stroke-linejoin="round" stroke-width="5" d="M-51.216 126.329s1.5 4.5 3.5 9 8.5 17 14.5 26 21 29.5 43.5 33.5 59.5 6.5 77.5-16.5 17.5-58 19-68 1-39.5-16-123.5c-1.5-8.499 30-76 30-76 6-14 14-22.5 14.5-25s-147.394-11-166.5-6.5c21.5 43 43 84.5 44 107s-3 74.5-3 74.5c-9 2-21 4-25.5 7-3.5 0 .5 5-11-6s-16-17.5-36-26c-19.999-8.5-45.999-10-59.499-6.5s-14 11.5-13 15 56.5 41.5 64.499 51.5c8 10 18.5 24 19.5 30.5z" clip-rule="evenodd"/><g fill-rule="evenodd" clip-rule="evenodd"><path fill="#212122" d="M42.95 150.329c1.163-4.544-4.062-8.729-7.166-10-3.666-1.5-10.564-.825-12.334 1.833-1.332 2.834 1.313 9.297 6.334 11.334 3.418 1.387 10.834 1.964 13.166-3.167z"/><path fill="#007fff" d="M34.99 151.795c.48-1.236-.728-2.859-2.701-3.625-1.972-.766-3.96-.385-4.44.853-.479 1.237.729 2.861 2.702 3.627 1.971.765 3.96.381 4.439-.855z"/><path fill="#fff" d="M32.263 151.757c.222-.571-.336-1.322-1.248-1.675-.911-.355-1.83-.178-2.053.395-.222.57.338 1.322 1.248 1.676.912.353 1.83.176 2.053-.396z"/></g><g fill="#fff" fill-rule="evenodd" clip-rule="evenodd"><path d="M-10.882-79.504c4.666-9 37.832-39.5 56-40.334 1.666-1 .832-4.5-.5-6.5-1.334-2-28.5-58.832-32.667-68.666-2.069-4.885-6.631-2.477-7-1.334-6.667 20.668-37.833 76.168-41.5 80.5-3.667 4.334 9.667 31.334 11 34 1.333 2.668 14.667 2.334 14.667 2.334z"/><path d="M53.784-120.504c-2.445-.895 24.667-61.166 25-71.5.087-2.686 5.166-1.5 6.5-.166 1.334 1.332 4.834 5.666 9.834 15 5 9.332 43.04 61.797 40.833 66.332-3 6.168-10.927 24.18-12.333 29.334-1 3.668-6.5 3.332-7.167 2-.667-1.334-31.667-29.666-62.667-41z"/></g><g fill="#c5c5c5" fill-rule="evenodd" clip-rule="evenodd"><path d="M44.618-126.338c-1.334-2-28.5-58.832-32.667-68.666-2.069-4.885-6.631-2.477-7-1.334-6.667 20.668-37.833 76.168-41.5 80.5-3.667 4.334 9.667 31.334 11 34 .729 1.457 5.041 2.02 8.803 2.229 0 0 2.282-2.258 2.53-4.061 1.75-12.75 35.006-32.988 48.75-39 4-1.75 10.084-3.668 10.084-3.668z"/><path d="M55.417-127.303c5.704-16.227 23.102-56.436 23.367-64.701.087-2.686 5.166-1.5 6.5-.166 1.334 1.332 4.834 5.666 9.834 15 5 9.332 43.04 61.797 40.833 66.332-3 6.168-10.927 24.18-12.333 29.334-.379 1.391-1.404 2.205-2.567 2.607 0 0-1.206-5.635-2.267-7.273-2.75-4.25-32.75-26.25-46-33.75s-17.367-7.383-17.367-7.383z"/></g><g fill="none" fill-rule="evenodd" stroke="#000" stroke-width="4" clip-rule="evenodd"><path d="M-10.882-79.504c4.666-9 37.832-39.5 56-40.334 1.666-1 .832-4.5-.5-6.5-1.334-2-28.5-58.832-32.667-68.666-2.069-4.885-6.631-2.477-7-1.334-6.667 20.668-37.833 76.168-41.5 80.5-3.667 4.334 9.667 31.334 11 34 1.333 2.668 14.667 2.334 14.667 2.334z"/><path d="M53.784-120.504c-2.445-.895 24.667-61.166 25-71.5.087-2.686 5.166-1.5 6.5-.166 1.334 1.332 4.834 5.666 9.834 15 5 9.332 43.04 61.797 40.833 66.332-3 6.168-10.927 24.18-12.333 29.334-1 3.668-6.5 3.332-7.167 2-.667-1.334-31.667-29.666-62.667-41z"/></g><path fill="#fff" fill-rule="evenodd" d="M6.034-187.17c0-1.75 1-7 2-5.25s2.75 5.25 2.75 5.25c-1.25 1-4.75 0-4.75 0z" clip-rule="evenodd"/><path fill="#fff" fill-rule="evenodd" d="M81.034-184.92c.167-2.01.75-4.75 1.75-4.5s3.25 3.25 3.25 4-5.25 3.5-5 .5z" clip-rule="evenodd"/><path fill="#007fff" fill-rule="evenodd" d="M58.784-151.92c-2.25-1.25-21-1-23.5 0-17-34-52.5-27-57-25s-6.5 34.5-6.25 43.75 3.225 24.723 6.25 27.75c2.25 2.25 33.75-3.25 49.75-11.5 2.533-1.307 6.752-6.775 9.5-6.5 2.5.25 17.25 1.25 21.25-.5.944-.414 8.25 7.25 19.25 11.5 8.082 3.121 37.5 8.75 37.5 8.75s1.948-1.109 2.75-3.25c2.636-7.043 6.925-23.057 7.5-29 .75-7.75-3-44-5-45.25s-36.5 6.75-43.25 10.5-17.75 16.5-18.75 18.75z" clip-rule="evenodd"/><path fill="#006ac9" fill-rule="evenodd" d="M120.784-181.17c-2-1.25-36.5 6.75-43.25 10.5s-17.75 16.5-18.75 18.75c-2.25-1.25-21-1-23.5 0-17-34-52.5-27-57-25s-6.5 34.5-6.25 43.75 3.225 24.723 6.25 27.75c0 0-1.492-24.863-.25-25 2.25-.25 4.75-3.5 6-9.25s1.816-3.641 5.75-5.25c5.5-2.25 40.407 5.553 44 3.5 1.75-1 3.25-2.5 3.25-2.5s7-1 16.5-.25 62.5 0 65.75 1.75-15.75-16.5-24-15.75-28.75 9.5-31.25 10.25-8.25 1.5-4.5-.5 12.75-6.5 16.5-11.75 1.273-6.676 3.75-7.5c3.75-1.25 20.5-5.5 26.75-8.25s14.25-5.25 14.25-5.25z" clip-rule="evenodd"/><g fill="#2eb4ff" fill-rule="evenodd" clip-rule="evenodd"><path d="M58.784-123.92c.944-.414 8.25 7.25 19.25 11.5 6.154 2.377 24.681 6.207 33.168 7.898l1.332-3.398s-7.75-7.25-10.5-10.75.25-.5-11.25-1.25-22.5-8.25-29.5-8.5-4.5-2-4.5-3.25-15.25-.25-17.5 1.75-.5 5 1.25 5 13.5-1 14.25-.5 4 1.5 4 1.5z"/><path d="M5.534-117.17c-2.851 0 8.25 4.25 12 2.25s9.5-7.75 11-7.75h6s2-2.75.25-3.75-3.5-1.75-6.5-1.5-21.25 10.75-22.75 10.75z"/></g><g fill="#212122" fill-rule="evenodd" clip-rule="evenodd"><path d="M-5.151-149.432c-.916-.012-1.865-2.014-.598-2.637 6.232-3.07 17.762-1.338 25.148.703 7.387 2.039 9.602 2.814 9.777 3.131.175.317.338.375.141 1.125-.287 1.09-26.488-2.219-34.468-2.322z"/><path d="M64.534-148.42c-4.349 1.449 22.232.316 25.375 1.125 5.111 1.314 14.975 1.389 16.5-.25.785-.844-.124-1.115-1.674-2.01-1.2-.691-6.625-2.531-8.951-2.365-1.065.074-1.183.734-2.662 1.436-.909.43-1.972.066-3.722-.559-2.273-.811-12.741-2.127-20.741.873-1.625.75-3 1.375-4.125 1.75z"/><path d="M94.534-123.67c-6.44-3.006-34.375-11.375-36-11.125s.625 2 1.5 2.75c3.142 2.693 27.375 8.375 29.25 8.75s7.125.5 5.25-.375z"/><path d="M6.066-124.284c-1.601-.148-4.913-1.115-4.615-3.088.298-1.973 3.374-.152 4.913-1.451 6.699-5.658 19.764-4.578 26.165-6.775 3.777-1.295 4.578-.408 4.615.299.037.707-3.982 3.275-6.104 4.131-1.884.76-17.529 4.689-20.321 5.658-2.792.967-4.653 1.226-4.653 1.226z"/></g><path fill="none" fill-rule="evenodd" stroke="#000" stroke-width="4" d="M58.784-151.92c-2.25-1.25-21-1-23.5 0-17-34-52.5-27-57-25s-6.5 34.5-6.25 43.75 3.225 24.723 6.25 27.75c2.25 2.25 33.75-3.25 49.75-11.5 2.533-1.307 6.752-6.775 9.5-6.5 2.5.25 17.25 1.25 21.25-.5.944-.414 8.25 7.25 19.25 11.5 8.082 3.121 37.5 8.75 37.5 8.75s1.948-1.109 2.75-3.25c2.636-7.043 6.925-23.057 7.5-29 .75-7.75-3-44-5-45.25s-36.5 6.75-43.25 10.5-17.75 16.5-18.75 18.75z" clip-rule="evenodd"/></symbol><g transform="matrix(-1 0 0 1 409.98 -13.373)"><path fill="#848484" fill-rule="evenodd" d="M220.932 387.469c-102.036 0-185.049-83.012-185.049-185.048S118.896 17.373 220.932 17.373 405.98 100.385 405.98 202.421s-83.012 185.048-185.048 185.048z" clip-rule="evenodd"/><path d="M220.932 21.373c48.358 0 93.823 18.832 128.02 53.028 34.195 34.196 53.028 79.661 53.028 128.021 0 48.358-18.833 93.823-53.028 128.02-34.196 34.195-79.661 53.028-128.02 53.028-48.36 0-93.826-18.832-128.021-53.028-34.195-34.195-53.027-79.66-53.027-128.02 0-48.36 18.832-93.825 53.027-128.021 34.194-34.196 79.66-53.028 128.021-53.028m0-8c-104.41 0-189.049 84.64-189.049 189.048 0 104.406 84.639 189.048 189.049 189.048 104.405 0 189.048-84.642 189.048-189.048-.001-104.409-84.643-189.048-189.048-189.048z"/><circle cx="220.932" cy="202.421" r="176.705" fill="#282828" fill-rule="evenodd" stroke="#e2e2e2" stroke-width="6" clip-rule="evenodd"/></g><use width="276.088" height="399.898" x="-138.044" y="-199.949" overflow="visible" transform="matrix(-1 0 0 1 409.98 6.627) matrix(1.0803 0 0 -1.0803 197.37 224.1)" xlink:href="#a"/><path d="M207.11133 447.54688c-4.625-.00001-8.08334 1.07291-10.375 3.21874-2.27084 2.14584-3.40625 5.36459-3.40625 9.65626v.96874h-4.8125v7.625h4.8125v27.46876h11.25v-27.46876h8.3125v-7.625h-8.6875v-.28124c0-2.27084.38541-3.80209 1.15625-4.59376.79166-.79166 2.29166-1.1875 4.5-1.1875.91666 0 1.77083.0938 2.5625.28126.8125.18749 1.46875.35416 1.96875.5h.84375v-7.9375c-1.04167-.18751-2.23959-.33334-3.59375-.4375-1.35417-.125-2.86459-.1875-4.53125-.1875zm-79 .3125v48.625h11.25v-48.625zm113.25 1.125c-7.47917 0-13.34375 2.17708-17.59375 6.53124-4.25 4.33334-6.375 10.23959-6.375 17.71876 0 7.41666 2.125 13.3125 6.375 17.6875 4.25 4.35416 10.11458 6.53124 17.59375 6.53124 7.5 0 13.375-2.17708 17.625-6.53124 4.25-4.37501 6.375-10.27084 6.375-17.6875 0-7.47917-2.13542-13.38542-6.40625-17.71876-4.27084-4.35416-10.13542-6.53124-17.59375-6.53124zm-137.9375.0625c-3.54167 0-6.8125.5625-9.8125 1.6875-2.97917 1.125-5.47917 2.71874-7.5 4.78124-2.10417 2.14584-3.70833 4.71876-4.8125 7.71876-1.10417 3-1.65625 6.34374-1.65625 10.03124 0 3.95834.57292 7.44792 1.71875 10.46876 1.16667 3.02083 2.80208 5.54166 4.90625 7.5625 2.10417 2.02083 4.61458 3.54166 7.53125 4.5625 2.9375 1.02083 6.13542 1.53124 9.59375 1.53124 2.33333 0 4.16666-.11458 5.5-.34374 1.33333-.22917 2.76041-.5625 4.28125-1 1.16666-.33334 2.28125-.72917 3.34375-1.1875 1.0625-.45834 2.17708-.94792 3.34375-1.46876v-11.125h-1.25c-.5625.5-1.28125 1.09376-2.15625 1.78126s-1.82292 1.33333-2.84375 1.9375c-1.20834.75-2.53125 1.34374-3.96875 1.78124-1.41667.4375-2.85417.65626-4.3125.65626-1.52084-.00001-3.0625-.23959-4.625-.71876-1.5625-.5-2.97917-1.32291-4.25-2.46874-1.25-1.125-2.29167-2.66667-3.125-4.625-.8125-1.95834-1.21875-4.39584-1.21875-7.3125 0-2.79167.375-5.16667 1.125-7.125.77083-1.95834 1.77083-3.53126 3-4.71876 1.29167-1.22916 2.69792-2.10416 4.21875-2.625 1.52083-.54166 3.125-.8125 4.8125-.8125 1.52083 0 2.94791.22917 4.28125.6875 1.33333.45834 2.57291 1.02084 3.71875 1.6875 1.125.66667 2.125 1.34376 3 2.03126.89583.6875 1.63541 1.28124 2.21875 1.78124h1.375v-11.28124c-.85417-.41667-1.85417-.86459-3-1.34376-1.125-.5-2.38542-.94791-3.78125-1.34374-1.33334-.35417-2.79167-.63542-4.375-.84376-1.5625-.22916-3.32292-.34374-5.28125-.34374zm189.625.0625c-6.10417 0-11.10417 1.375-15 4.125-3.875 2.72916-5.8125 6.26041-5.8125 10.59374 0 3.22917.85416 5.9375 2.5625 8.125 1.72916 2.16667 4.55208 3.88542 8.46875 5.15626 1.70833.5625 3.53125 1.03124 5.46875 1.40624 1.95833.35417 3.8125.73959 5.5625 1.15626 1.66666.39583 2.92708.96874 3.78125 1.71874.875.72917 1.3125 1.60417 1.3125 2.625 0 1.10417-.30209 1.9375-.90625 2.5-.58334.5625-1.33334 1.03126-2.25 1.40626-.75.29166-1.71875.5-2.90625.625s-2.14584.1875-2.875.1875c-2.83334 0-5.79167-.53126-8.875-1.59376-3.0625-1.0625-5.83334-2.58333-8.3125-4.5625h-1.3125v11.15626c2.5 1.04166 5.17708 1.90624 8.03125 2.59374 2.875.66667 6.23958 1 10.09375 1 6.66666 0 11.9375-1.42708 15.8125-4.28124 3.89583-2.875 5.84375-6.60417 5.84375-11.1875 0-3.20834-.85417-5.8125-2.5625-7.8125-1.6875-2.02084-4.3125-3.61459-7.875-4.78126-1.8125-.58333-3.51042-1.04166-5.09375-1.375-1.5625-.33333-3.19792-.67708-4.90625-1.03124-2.60417-.54167-4.375-1.13542-5.3125-1.78126-.9375-.66666-1.40625-1.61458-1.40625-2.84374 0-.8125.29166-1.53126.875-2.15626.58333-.64583 1.28125-1.125 2.09375-1.4375.91666-.375 1.86458-.625 2.84375-.75 1-.14583 2-.21874 3-.21874 2.83333-.00001 5.60416.51041 8.3125 1.53124 2.72916 1 5.03125 2.25 6.90625 3.75h1.28125v-10.71874c-2.1875-.89584-4.78125-1.63542-7.78125-2.21876-2.97917-.60416-6-.90624-9.0625-.90624zm-51.65625 8.65624c1.5 0 2.9375.28126 4.3125.84376 1.39583.5625 2.625 1.46874 3.6875 2.71874 1.04166 1.20834 1.88541 2.79167 2.53125 4.75.64583 1.95834.96875 4.33334.96875 7.125 0 2.60417-.28125 4.875-.84375 6.8125-.5625 1.91667-1.42709 3.58334-2.59375 5-1.04167 1.25-2.26042 2.17709-3.65625 2.78126-1.39584.58333-2.86459.875-4.40625.875-1.54167 0-3.01042-.29167-4.40625-.875-1.39584-.58334-2.61459-1.48959-3.65625-2.71876-1.04167-1.22916-1.88542-2.8125-2.53125-4.75-.625-1.95833-.9375-4.32291-.9375-7.09374 0-2.70834.32291-5.08334.96875-7.125.66666-2.06251 1.52083-3.67709 2.5625-4.84376 1.125-1.25 2.35416-2.14583 3.6875-2.6875 1.35416-.54166 2.79166-.8125 4.3125-.8125zm-74.03125 2.53126c-6.1875-.00001-11.0625 1.69791-14.625 5.09374-3.54167 3.375-5.3125 7.95834-5.3125 13.75 0 5.85417 1.875 10.36459 5.625 13.53126 3.75 3.16666 9.14583 4.75 16.1875 4.75 2.72916 0 5.21875-.22917 7.46875-.6875 2.25-.45834 4.64583-1.19792 7.1875-2.21876v-9.03124h-1.25c-1.29167.97916-3.05209 1.89583-5.28125 2.75-2.22917.85416-4.53125 1.28124-6.90625 1.28124-3.75 0-6.59375-.72916-8.53125-2.1875-1.91667-1.45833-2.95834-3.5625-3.125-6.3125h25.75v-3.9375c0-5.41666-1.4375-9.5625-4.3125-12.4375-2.875-2.89583-7.16667-4.34374-12.875-4.34374zm-.90625 7.03124c2.33333 0 4.05208.59376 5.15625 1.78126 1.1042 1.1875 1.68753 2.95833 1.75 5.3125h-14.59375c.16666-2.47917.94791-4.28126 2.34375-5.40626 1.39583-1.125 3.17708-1.6875 5.34375-1.6875z" fill="#000" fill-opacity="1" stroke="none"/></svg>