<svg xmlns="http://www.w3.org/2000/svg" role="img" viewBox="62.73 36.73 326.04 203.79"><title>Cloud Foundry logo</title><defs><clipPath id="a" clipPathUnits="userSpaceOnUse"><path d="M0 216h360V0H0v216z"/></clipPath><clipPath id="c" clipPathUnits="userSpaceOnUse"><path d="M0 216h360V0H0v216z"/></clipPath><linearGradient id="b" x1="0" x2="1" y1="0" y2="0" gradientTransform="rotate(-98.13 170.333 6.858) scale(104.64701)" gradientUnits="userSpaceOnUse" spreadMethod="pad"><stop offset="0" stop-color="#60baeb" stop-opacity="1"/><stop offset=".041" stop-color="#60baeb" stop-opacity="1"/><stop offset=".129" stop-color="#4fb4e9" stop-opacity="1"/><stop offset=".822" stop-color="#4054ad" stop-opacity="1"/><stop offset="1" stop-color="#4054ad" stop-opacity="1"/></linearGradient></defs><g transform="matrix(1.25 0 0 -1.25 0 270)"><g clip-path="url(#a)"><path fill="#353435" fill-opacity="1" fill-rule="nonzero" stroke="none" d="M170.04 119.163s1.828 6.924-6.112 15.851l-.265.279c-3.34 3.965-5.186 8.989-5.186 14.162 0 12.134 9.883 22.008 22.035 22.008h.512c12.151 0 22.034-9.874 22.034-22.008 0-5.173-1.841-10.197-5.182-14.158-.04-.045-.13-.139-.265-.274-7.045-7.059-6.116-15.86-6.116-15.86 12.87 4.437 21.568 16.538 21.64 30.113.094 16.969-13.607 31.437-30.535 32.25-.211.009-.423.014-.629.014-.256 0-1.208-.018-1.203-.018-.027 0-.948.018-1.2.018-.211 0-.422-.005-.628-.014-16.933-.813-30.629-15.281-30.54-32.25.077-13.575 8.77-25.676 21.64-30.113"/><path fill="#353435" fill-opacity="1" fill-rule="nonzero" stroke="none" d="M211.626 93.626c.557.233 1.208.422 1.926.561.669.148 1.415.243 2.228.27 0 0-.036.251-.086.624-.022.368-.197.858-.364 1.342-.085.239-.17.476-.247.697-.098.22-.224.422-.314.597-.188.341-.314.57-.314.57-.804.13-1.563.31-2.299.521-.75.211-1.455.453-2.075.714-1.176.516-2.281 1.096-2.865 1.742-.705.615-.835 1.231-.812 1.787.04.274.166.539.381.786.198.243.458.463.835.651 0 0-.282.157-.696.391-.211.112-.44.247-.709.386-.283.135-.579.279-.876.418-.583.278-1.167.557-1.657.741-.467.188-.776.314-.776.314-.566-.076-1.181-.117-1.806-.126-.646-.013-1.306.005-1.948.054-1.262.108-2.547.283-3.656.611-.575.148-1.064.323-1.49.516-.427.189-.809.377-1.114.589-.584.426-.984.857-.979 1.293 0 0-.355.058-.885.148-.548.085-1.715.242-2.456.341-.013-.125-.094-.242-.121-.449l-.189-.907c-.386-1.814.665-3.655 2.447-4.171 4.365-1.271 7.666-3.364 8.618-5.932 1.926-5.196-6.166-10.274-18.47-10.274-12.308 0-20.4 5.078-18.478 10.274.93 2.505 4.1 4.557 8.308 5.837 1.863.566 2.968 2.483 2.568 4.387l-.26 1.235c-.49-.058-1.06-.13-1.644-.202-.732-.081-1.428-.211-1.962-.296-.534-.086-.894-.148-.894-.148.036-.423-.265-.899-.84-1.307-.3-.207-.633-.422-1.041-.615-.409-.198-.912-.364-1.437-.539-.543-.171-1.15-.297-1.756-.404-.597-.117-1.235-.202-1.89-.256-1.307-.104-2.618-.13-3.808.018 0 0-.081-.032-.216-.086-.13-.058-.341-.134-.552-.238-.436-.206-1.024-.489-1.617-.772-.583-.292-1.104-.606-1.526-.84-.212-.116-.387-.215-.508-.283-.112-.076-.175-.116-.175-.116.822-.382 1.28-.898 1.37-1.446.206-.579-.077-1.181-.611-1.837-.31-.332-.728-.646-1.154-.952-.454-.31-1.02-.602-1.653-.88-1.185-.561-2.721-1.055-4.369-1.352 0 0-.144-.233-.251-.583-.126-.355-.292-.836-.463-1.325-.072-.485-.139-.983-.193-1.365-.072-.386-.036-.638-.036-.638 1.702-.018 3.215-.305 4.347-.759 1.316-.435 2.11-1.086 2.726-1.881.485-.858.678-1.756.247-2.793-.301-1.011-1.128-2.138-2.475-3.161 0 0 .077-.068.207-.18.148-.108.364-.26.624-.445.535-.368 1.208-.889 1.998-1.36.835-.458 1.684-.921 2.326-1.275.319-.18.643-.292.845-.387.211-.094.332-.143.332-.143 1.899.812 3.938 1.23 5.977 1.446 1.019.107 2.02.134 2.977.071.974-.049 1.966-.125 2.896-.345.921-.243 1.819-.472 2.605-.822.799-.346 1.508-.799 2.182-1.235 1.343-.916 2.375-2.209 2.82-3.57 0 0 .692-.027 1.729-.067 1.041-.027 2.429-.121 3.812-.05 1.383.045 2.771.068 3.799.135 1.015.099 1.693.162 1.693.162.144.709.458 1.378.889 1.985.211.296.454.579.723.844.26.274.534.552.84.799.601.494 1.289.921 2.065 1.262.755.355 1.563.687 2.497.898.952.189 1.846.377 2.815.445.957.076 1.999.031 2.964-.009 1.971-.108 4.158-.562 6.058-1.28 0 0 .422.233 1.051.584.601.359 1.468.785 2.132 1.315.678.503 1.392.979 1.824 1.374.422.395.696.656.696.656-1.415.974-2.228 2.021-2.748 3.053-.243.499-.31.966-.324 1.428-.036.467.063.903.324 1.307.368.826 1.311 1.437 2.384 1.922"/></g><path fill="url(#b)" stroke="none" d="M164.451 149.388c-.036-4.045 1.921-7.701 5.087-10.278 3.916-3.188 7.127-9.641 7.315-16.682.207-7.817-.328-16.866-.656-21.469-4.185-.593-7.126-1.993-7.126-3.624 0-2.168 5.209-4.674 11.635-4.674s11.635 2.506 11.635 4.674c0 1.631-2.937 3.031-7.131 3.624-.328 4.603-.858 13.652-.651 21.469.193 7.041 3.394 13.494 7.315 16.682 3.166 2.577 5.128 6.233 5.087 10.278-.067 7.706-7.346 13.907-16.255 13.907-8.913 0-16.192-6.201-16.255-13.907"/><g clip-path="url(#c)"><path fill="#333430" fill-opacity="1" fill-rule="nonzero" stroke="none" d="M71.333 31.374c-1.814-1.814-4.221-2.721-6.605-2.721-6.116 0-9.3 4.275-9.332 9.174-.049 4.84 3.112 9.376 9.332 9.376 2.384 0 4.791-.907 6.605-2.721l-.961-.827c-1.554 1.554-3.602 2.304-5.644 2.304-5.286 0-8.007-3.732-7.98-8.083.049-4.248 2.744-7.925 7.98-7.925 2.042 0 4.117.776 5.671 2.303l.934-.88z"/><path fill="#333430" fill-opacity="1" fill-rule="nonzero" stroke="none" d="M78.24 46.995V30.183h10.207v-1.325H76.839v18.137h1.401z"/><path fill="#333430" fill-opacity="1" fill-rule="nonzero" stroke="none" d="M94.731 37.928c.027-4.095 2.618-8.083 7.773-8.083 5.182 0 7.8 3.988 7.8 8.083 0 4.199-2.591 8.056-7.8 8.056s-7.8-3.781-7.773-8.056m16.915-.027c-.022-4.764-3.053-9.354-9.142-9.354-6.089 0-9.147 4.612-9.147 9.408 0 4.868 3.031 9.327 9.147 9.327 6.111 0 9.169-4.482 9.142-9.381"/><path fill="#333430" fill-opacity="1" fill-rule="nonzero" stroke="none" d="M131.897 46.995V35.724c0-9.479-13.885-9.506-13.885 0v11.271h1.37V35.724c0-7.795 11.141-7.773 11.141 0v11.271h1.374z"/><path fill="#333430" fill-opacity="1" fill-rule="nonzero" stroke="none" d="M140.021 45.674V30.209h4.742c5.388 0 7.876 4.041 7.795 7.926-.076 3.785-2.564 7.539-7.795 7.539h-4.742zm13.938-7.539c.103-4.612-2.851-9.273-9.196-9.273h-6.143v18.132h6.143c6.138 0 9.093-4.405 9.196-8.859"/><path fill="#333430" fill-opacity="1" fill-rule="nonzero" stroke="none" d="M162.132 28.86v18.11h13.031v-3.292h-9.614V38.73h9.098v-3.161h-9.098V28.86h-3.417z"/><path fill="#333430" fill-opacity="1" fill-rule="nonzero" stroke="none" d="M183.133 37.746c.076-2.977 1.684-6.165 5.959-6.165 4.275 0 5.882 3.21 5.931 6.192.054 3.058-1.656 6.475-5.931 6.475s-6.035-3.444-5.959-6.502m15.258.076c-.049-4.688-2.927-9.376-9.299-9.376-6.377 0-9.327 4.585-9.327 9.349 0 4.769 3.058 9.56 9.327 9.56 6.241 0 9.353-4.791 9.299-9.533"/><path fill="#333430" fill-opacity="1" fill-rule="nonzero" stroke="none" d="M219.86 46.97V36.579c0-5.361-3.292-8.11-7.849-8.11-4.356 0-8.061 2.645-8.061 8.11V46.97h3.395V36.579c0-3.264 1.868-4.998 4.693-4.998 2.824 0 4.427 1.891 4.427 4.998V46.97h3.395z"/><path fill="#333430" fill-opacity="1" fill-rule="nonzero" stroke="none" d="M238.165 47.022h3.417V28.858h-2.124v-.022l-9.533 12.254V28.858h-3.417v18.137h2.77l8.887-11.244v11.271z"/><path fill="#333430" fill-opacity="1" fill-rule="nonzero" stroke="none" d="M250.927 32.15h3.732c4.117 0 5.752 3.004 5.671 5.959-.077 2.824-1.734 5.649-5.671 5.649h-3.732V32.15zm12.798 5.932c.08-4.585-2.722-9.223-9.066-9.223h-7.127v18.136h7.127c6.219 0 8.989-4.432 9.066-8.913"/><path fill="#333430" fill-opacity="1" fill-rule="nonzero" stroke="none" d="M272.47 43.81v-5.802h5.209c2.173 0 3.107 1.451 3.107 2.901 0 1.451-.961 2.901-3.107 2.901h-5.209zm12.64-14.949h-4.068l-5.285 6.062h-3.287v-6.062h-3.422v18.16c2.879 0 5.752-.023 8.631-.023 4.27-.027 6.524-2.878 6.524-6.013 0-2.487-1.14-4.997-4.584-5.698l5.491-6.192v-.234z"/><path fill="#333430" fill-opacity="1" fill-rule="nonzero" stroke="none" d="M297.201 39.509l4.818 7.486h4.122v-.153l-7.229-10.494v-7.486h-3.422v7.486l-6.969 10.494v.153h4.068l4.612-7.486z"/></g></g></svg>