<svg xmlns="http://www.w3.org/2000/svg" role="img" viewBox="-21.76 -21.76 1022.52 1131.52"><title>CMS TAR logo</title><path d="M385.328 507.125h-112c-11 0-19.9 8.9-19.9 19.9v111.7c0 11 8.9 19.9 19.9 19.9h112c11 0 19.9-8.9 19.9-19.9v-111.7c0-11-8.9-19.9-19.9-19.9zm-19.9 111.7h-72.2v-71.9h72.2z"/><path d="M973.028 402.725l-470.1-398c-7.4-6.3-18.3-6.3-25.7 0l-470.2 398c-8.4 7.1-9.4 19.6-2.3 28 3.9 4.7 9.5 7 15.2 7 4.5 0 9.1-1.6 12.8-4.7l48.1-40.7v521.6c0 11 8.9 19.9 19.9 19.9h778.5c11 0 19.9-8.9 19.9-19.9v-521.6l48.1 40.7c8.4 7.1 21 6 28-2.3 7.2-8.4 6.1-20.9-2.2-28zm-444.9 491.3v-347.1h158.7v347.1zm331.3 0h-132.8v-367c0-11-8.9-19.9-19.9-19.9h-198.5c-11 0-19.9 8.9-19.9 19.9v367h-367.7v-535.3l369.4-312.8 369.4 312.7z"/><g><path d="M125.34961 944.18359c-10.25 0-19.59375 1.59375-28.03125 4.78125-8.375 3.1875-15.53125 7.8125-21.46875 13.875-6.125 6.25-10.8125 13.90625-14.0625 22.96875s-4.875 19.34381-4.875 30.84371c0 12.125 1.6875 22.7832 5.0625 31.9707 3.375 9.125 8.0625 16.6544 14.0625 22.5918 6.125 6.0626 13.3125 10.5332 21.5625 13.4082 8.3125 2.8125 17.53125 4.2168 27.65625 4.2168 5.375 0 10.28125-.4375 14.71875-1.3125 4.5-.8124 8.65625-1.8124 12.46875-3 4.5-1.4374 8.125-2.8124 10.875-4.125 2.8125-1.3124 5.9375-2.7168 9.375-4.2168v-21.75h-1.3125c-6.8125 6.125-14.125 10.7169-21.9375 13.7793-7.8125 3.0626-16.1875 4.5957-25.125 4.5957-6.5 0-12.6875-1.0956-18.5625-3.2832-5.8125-2.25-10.90625-5.6875-15.28125-10.3125-4.1875-4.4374-7.625-10.1874-10.3125-17.25-2.625-7.0624-3.9375-15.4999-3.9375-25.3125 0-9.375 1.1875-17.62497 3.5625-24.74996 2.4375-7.1875 5.8125-13.125 10.125-17.8125 4.4375-4.8125 9.46875-8.34375 15.09375-10.59375 5.6875-2.3125 12.0625-3.46875 19.125-3.46875 8.625 0 16.71875 1.46875 24.28125 4.40625s15.1875 7.625 22.875 14.0625h1.40625v-22.03125c-9.125-4.5625-17.4375-7.75-24.9375-9.5625-7.4375-1.8125-14.90625-2.71875-22.40625-2.71875zm282.84375 0c-15.1875 0-27.71875 3.75-37.59375 11.25-9.875 7.4375-14.8125 17-14.8125 28.6875 0 10.1875 2.96875 18.46881 8.90625 24.84371 6 6.3126 15.1875 10.7832 27.5625 13.4082 6.125 1.25 11.90625 2.2794 17.34375 3.0918 5.5.8126 10.59375 1.8457 15.28125 3.0957 6.1875 1.625 10.78125 3.9044 13.78125 6.8418 3.0625 2.9376 4.59375 7.5001 4.59375 13.6875 0 7.1876-3.21875 12.9376-9.65625 17.25-6.375 4.3126-15.3125 6.4707-26.8125 6.4707-8.125 0-16.8125-1.5956-26.0625-4.7832-9.25-3.1874-17.40625-7.7168-24.46875-13.5918h-1.3125v23.25c8.3125 3.6875 16.46875 6.4668 24.46875 8.3418 8.0625 1.875 17.125 2.8125 27.1875 2.8125 9.375 0 17.375-1.125 24-3.375 6.6875-2.25 12.53125-5.375 17.53125-9.375 4.5625-3.6874 8.09375-8.1874 10.59375-13.5 2.5625-5.3124 3.84375-10.6874 3.84375-16.125 0-10-2.625-17.7793-7.875-23.3418s-13.0625-9.7207-23.4375-12.4707c-5.125-1.3124-11.375-2.5918-18.75-3.8418s-13.0625-2.3125-17.0625-3.1875c-7.5625-1.75-12.84375-4.28314-15.84375-7.59566-3-3.3125-4.5-7.875-4.5-13.6875 0-6.5 3-11.8125 9-15.9375 6.0625-4.125 14.0625-6.1875 24-6.1875 9.0625 0 17.90625 1.5 26.53125 4.5 8.6875 2.9375 15.6875 6.65625 21 11.15625h1.3125v-21.9375c-6.3125-2.75-13.5625-5.0625-21.75-6.9375s-17.1875-2.8125-27-2.8125zm-209.0625 2.53125v139.59566h17.34375V966.02734l38.53125 81.84566h11.0625l38.8125-81.84566v120.28316h18.5625V946.71484h-25.78125l-36 77.72066-37.21875-77.72066zm342 0v16.5h49.875v123.09566h18.5625V963.21484h49.875v-16.5zm171.75 0l-50.8125 139.59566h18.84375l13.6875-38.9082h60.375l13.6875 38.9082h19.78125l-50.8125-139.59566zm96.75 0v139.59566h18.5625v-55.5h26.15625l46.6875 55.5h24.09375l-52.5-61.0332c8.875-3.4374 15.84375-8.5293 20.90625-15.2793 5.0625-6.8125 7.59375-15.25191 7.59375-25.31441 0-7.4375-1.4375-13.5625-4.3125-18.375-2.8125-4.875-6.75-8.90625-11.8125-12.09375-4.5-2.8125-9.5625-4.75-15.1875-5.8125-5.625-1.125-12.65625-1.6875-21.09375-1.6875zm18.5625 15.9375h21.84375c5 0 9.34375.375 13.03125 1.125 3.6875.6875 6.875 1.9375 9.5625 3.75 3.25 2.125 5.5625 4.75 6.9375 7.875 1.4375 3.0625 2.15625 6.59375 2.15625 10.59375 0 5.25-.6875 9.59375-2.0625 13.03125-1.3125 3.37496-3.375 6.37496-6.1875 8.99996-3.0625 2.8126-6.78125 4.7501-11.15625 5.8125-4.375 1-9.5 1.5-15.375 1.5h-18.75zm-103.40625.28125l24.46875 68.53121h-49.03125z"/></g></svg>