<svg xmlns="http://www.w3.org/2000/svg" role="img" viewBox="-22.10 -22.10 1026.20 1149.20"><title>CMS Make logo</title><path d="M385.328 507.125h-112c-11 0-19.9 8.9-19.9 19.9v111.7c0 11 8.9 19.9 19.9 19.9h112c11 0 19.9-8.9 19.9-19.9v-111.7c0-11-8.9-19.9-19.9-19.9zm-19.9 111.7h-72.2v-71.9h72.2z"/><path d="M973.028 402.725l-470.1-398c-7.4-6.3-18.3-6.3-25.7 0l-470.2 398c-8.4 7.1-9.4 19.6-2.3 28 3.9 4.7 9.5 7 15.2 7 4.5 0 9.1-1.6 12.8-4.7l48.1-40.7v521.6c0 11 8.9 19.9 19.9 19.9h778.5c11 0 19.9-8.9 19.9-19.9v-521.6l48.1 40.7c8.4 7.1 21 6 28-2.3 7.2-8.4 6.1-20.9-2.2-28zm-444.9 491.3v-347.1h158.7v347.1zm331.3 0h-132.8v-367c0-11-8.9-19.9-19.9-19.9h-198.5c-11 0-19.9 8.9-19.9 19.9v367h-367.7v-535.3l369.4-312.8 369.4 312.7z"/><g><path d="M781.63347 956.97773v145.87497h17.625v-34.9687l11.4375-10.875 42 45.8437h23.25l-52.21875-56.3437 48.65625-48.375h-22.21875l-50.90625 52.4062v-93.56247zm-711.375 3.75c-10.25 0-19.59375 1.59375-28.03125 4.78125-8.375 3.18752-15.53125 7.81252-21.46875 13.87502-6.125 6.25-10.8125 13.9062-14.0625 22.9687-3.25 9.0625-4.875 19.3438-4.875 30.8438 0 12.125 1.6875 22.7812 5.0625 31.9687 3.375 9.125 8.0625 16.6563 14.0625 22.5938 6.125 6.0625 13.3125 10.5312 21.5625 13.4062 8.3125 2.8125 17.53125 4.2188 27.65625 4.2188 5.375 0 10.28125-.4375 14.71875-1.3125 4.5-.8125 8.65625-1.8125 12.46875-3 4.5-1.4375 8.125-2.8125 10.875-4.125 2.8125-1.3125 5.9375-2.7188 9.375-4.2188v-21.75h-1.3125c-6.8125 6.125-14.125 10.7188-21.9375 13.7813s-16.1875 4.5937-25.125 4.5937c-6.5 0-12.6875-1.0937-18.5625-3.2812-5.8125-2.25-10.90625-5.6875-15.28125-10.3125-4.1875-4.4375-7.625-10.1875-10.3125-17.25-2.625-7.0625-3.9375-15.5-3.9375-25.3125 0-9.375 1.1875-17.625 3.5625-24.75 2.4375-7.1875 5.8125-13.125 10.125-17.8125 4.4375-4.8125 9.46875-8.3438 15.09375-10.5938 5.6875-2.3125 12.0625-3.4687 19.125-3.4687 8.625 0 16.71875 1.4687 24.28125 4.4062s15.1875 7.625 22.875 14.0625h1.40625V973.009c-9.125-4.5625-17.4375-7.75002-24.9375-9.56252-7.4375-1.8125-14.90625-2.71875-22.40625-2.71875zm282.84375 0c-15.1875 0-27.71875 3.75-37.59375 11.24997-9.875 7.4375-14.8125 17-14.8125 28.6875 0 10.1875 2.96875 18.4688 8.90625 24.8438 6 6.3125 15.1875 10.7812 27.5625 13.4062 6.125 1.25 11.90625 2.2813 17.34375 3.0938 5.5.8125 10.59375 1.8437 15.28125 3.0937 6.1875 1.625 10.78125 3.9063 13.78125 6.8438 3.0625 2.9375 4.59375 7.5 4.59375 13.6875 0 7.1875-3.21875 12.9375-9.65625 17.25-6.375 4.3125-15.3125 6.4687-26.8125 6.4687-8.125 0-16.8125-1.5937-26.0625-4.7812s-17.40625-7.7188-24.46875-13.5938h-1.3125v23.25c8.3125 3.6875 16.46875 6.4688 24.46875 8.3438 8.0625 1.875 17.125 2.8125 27.1875 2.8125 9.375 0 17.375-1.125 24-3.375 6.6875-2.25 12.53125-5.375 17.53125-9.375 4.5625-3.6875 8.09375-8.1875 10.59375-13.5 2.5625-5.3125 3.84375-10.6875 3.84375-16.125 0-10-2.625-17.7813-7.875-23.3438s-13.0625-9.7187-23.4375-12.4687c-5.125-1.3125-11.375-2.5938-18.75-3.8438s-13.0625-2.3125-17.0625-3.1875c-7.5625-1.75-12.84375-4.2812-15.84375-7.5937s-4.5-7.875-4.5-13.6875c0-6.5 3-11.8125 9-15.9375 6.0625-4.125 14.0625-6.1875 24-6.1875 9.0625 0 17.90625 1.5 26.53125 4.5 8.6875 2.9375 15.6875 6.6562 21 11.1562h1.3125v-21.9375c-6.3125-2.75-13.5625-5.06247-21.75-6.93747s-17.1875-2.8125-27-2.8125zm-209.0625 2.53125v139.59372h17.34375V982.5715l38.53125 81.8437h11.0625l38.8125-81.8437v120.2812h18.5625V963.25898h-25.78125l-36 77.71872-37.21875-77.71872zm360.75 0v139.59372h17.34375V982.5715l38.53125 81.8437h11.0625l38.8125-81.8437v120.2812h18.5625V963.25898h-25.78125l-36 77.71872-37.21875-77.71872zm433.21875 31.96872c-15.25 0-27.5625 5.0313-36.9375 15.0938-9.3125 10.0625-13.96875 23.6562-13.96875 40.7812 0 17.3125 4.875 30.6875 14.625 40.125 9.75 9.375 23.3125 14.0625 40.6875 14.0625 6.8125 0 13.3125-.8437 19.5-2.5312s12.25-3.7813 18.1875-6.2813v-19.2187h-.9375c-3.0625 2.75-8.21875 5.5625-15.46875 8.4375-7.1875 2.8125-14.34375 4.2187-21.46875 4.2187-5.375 0-10.3125-.75-14.8125-2.25-4.4375-1.5-8.28125-3.75-11.53125-6.75-3.375-3.0625-6.03125-6.9687-7.96875-11.7187-1.9375-4.8125-2.90625-10.4375-2.90625-16.875h77.15625v-9.5625c0-15.1875-3.84375-26.9063-11.53125-35.1563-7.625-8.25-18.5-12.375-32.625-12.375zm-236.8125.375c-6.3125 0-12.71875.5625-19.21875 1.6875s-11.46875 2.1563-14.90625 3.0938v17.9062h.9375c6.0625-2.3125 11.9375-4.0625 17.625-5.25 5.6875-1.25 10.84375-1.875 15.46875-1.875 3.8125 0 7.46875.25 10.96875.75s6.5 1.4688 9 2.9063c2.625 1.5 4.625 3.5625 6 6.1875 1.4375 2.625 2.15625 5.9375 2.15625 9.9375v2.7187c-10.25.5-19.84375 1.25-28.78125 2.25s-16.59375 2.9063-22.96875 5.7188c-6.3125 2.8125-11.1875 6.6875-14.625 11.625-3.375 4.875-5.0625 11.2812-5.0625 19.2187 0 9.6875 3.28125 17.6563 9.84375 23.9063s14.5625 9.375 24 9.375c5.125 0 9.59375-.5 13.40625-1.5 3.8125-.9375 7.1875-2.125 10.125-3.5625 2.5-1.125 5.0625-2.625 7.6875-4.5 2.6875-1.9375 4.8125-3.4375 6.375-4.5v11.1562h17.53125v-71.0625c0-6.75-1.03125-12.4062-3.09375-16.9687-2.0625-4.5625-5.0625-8.2813-9-11.1563-4-2.9375-8.75-5-14.25-6.1875-5.4375-1.25-11.84375-1.875-19.21875-1.875zm235.875 14.1563c9.375 0 16.34375 2.5312 20.90625 7.5937 4.62503 5.0625 6.96878 12.2188 7.03125 21.4688h-60c.75-8.25 3.90625-15.1563 9.46875-20.7188 5.625-5.5625 13.15625-8.3437 22.59375-8.3437zm-207.84375 38.1562v29.1563c-4.375 3.375-9.125 6.2812-14.25 8.7187-5.125 2.375-10.78125 3.5625-16.96875 3.5625-7.4375 0-12.96875-1.5-16.59375-4.5-3.625-3.0625-5.4375-7.5937-5.4375-13.5937 0-5.3125 1.5625-9.4688 4.6875-12.4688 3.125-3.0625 7.21875-5.3125 12.28125-6.75 4.25-1.1875 10-2.0937 17.25-2.7187 7.3125-.625 13.65625-1.0938 19.03125-1.4063z"/></g></svg>