<svg xmlns="http://www.w3.org/2000/svg" role="img" xmlns:xlink="http://www.w3.org/1999/xlink" viewBox="-9.54 -9.29 249.08 61.08"><title>COBOL Language Support logo</title><path d="M232.506 4.298c-1.06 0-1.93-.86-1.93-1.92s.87-1.93 1.93-1.93 1.93.87 1.93 1.93-.87 1.92-1.93 1.92m0-4.32c-1.32 0-2.4 1.08-2.4 2.4 0 1.32 1.08 2.4 2.4 2.4 1.32 0 2.4-1.08 2.4-2.4 0-1.32-1.08-2.4-2.4-2.4"/><path d="M232.666 2.278l-.51.01-.01-.62h.51c.19-.01.34.11.34.3.01.19-.14.31-.33.31m.83-.32c-.01-.42-.3-.72-.77-.72l-1.07.02.03 2.26h.49l-.01-.81h.35l.46.8.55-.01-.52-.86c.24-.06.49-.28.49-.68M47.0201 18.3885h-5.999V4.5545h5.835c1.574 0 2.557 1.016 2.557 2.393 0 1.377-.983 2.36-2.557 2.36H40.186v4h6.8341c1.836 0 2.819 1.18 2.819 2.556 0 1.574-1.049 2.525-2.819 2.525m3.376-7.245c2.066-.426 3.771-2.262 3.771-5.015 0-2.918-2.131-5.573-6.295-5.573h-11.506v21.865h11.867c4.163 0 6.359-2.623 6.359-5.901 0-2.754-1.868-5.015-4.196-5.376m17.8225-.5902H63.186v4.098h3.5576l4.294 7.769h5.343l-4.917-8.327c2.361-.557 4.786-2.622 4.786-6.49m0 0c0-4.065-2.786-7.048-7.343-7.048h-10.228v21.865h4.655V4.6533h4.885c1.869 0 3.278 1.114 3.278 2.95s-1.409 2.95-3.278 2.95m43.4206 4.0652l3.409-9.408 3.41 9.408zm.492-14.063l-8.458 21.865h5.31l1.377-3.704h9.376l1.344 3.704h5.311l-8.425-21.865zm26.9039 17.7671h-3.967v-13.67h3.967c4.491 0 6.851 2.983 6.851 6.852 0 3.704-2.524 6.818-6.851 6.818m0-17.767h-8.622v21.865h8.622c6.851 0 11.604-4.327 11.604-10.916s-4.753-10.949-11.604-10.949M221.162.5511l-5.734 9.27-5.734-9.27h-5.146v21.869h4.656V8.1271l5.012 7.622c.574.871 1.851.871 2.424 0l5.013-7.622v14.293h4.656V.5511z"/><path id="a" d="M91.0113 18.5521c-3.871 0-7.008-3.138-7.008-7.008 0-3.871 3.137-7.009 7.008-7.009 3.87 0 7.008 3.138 7.008 7.009 0 3.87-3.138 7.008-7.008 7.008m0-18.536c-6.367 0-11.528 5.161-11.528 11.528 0 6.366 5.161 11.527 11.528 11.527 6.366 0 11.528-5.161 11.528-11.527 0-6.367-5.162-11.528-11.528-11.528"/><path d="M171.5895 14.9349c-1.195 2.156-3.492 3.617-6.132 3.617-3.87 0-7.008-3.138-7.008-7.008 0-3.871 3.138-7.008 7.008-7.008 2.618 0 4.897 1.438 6.1 3.565l3.27-3.269c-2.092-2.915-5.508-4.816-9.37-4.816-6.367 0-11.527 5.161-11.527 11.528 0 6.366 5.16 11.528 11.527 11.528 3.883 0 7.316-1.922 9.404-4.865z"/><use transform="translate(98.718)" xlink:href="#a"/><ellipse cx="11.706" cy="11.705" fill="#cc092f" rx="16.236" ry="16.235"/><path fill="#fff" d="M26.0113 16.0912c-1.857-.74-3.557-.492-5.261.541 0 0-.621.379-.807.496-.794.498-1.543.97-2.263.97-.687 0-1.363-.184-1.649-1.513-.446-2.073-1.534-7.167-2.009-9.69-.279-1.483-.432-2.282-.591-2.825-.28-.954-.792-1.473-1.519-1.556 0 0-.114-.016-.207-.016-.092 0-.218.018-.218.018-.72.086-1.229.605-1.507 1.554-.159.543-.312 1.342-.591 2.825-.475 2.523-1.563 7.617-2.009 9.69-.286 1.329-.962 1.513-1.649 1.513-.72 0-1.469-.472-2.263-.97-.186-.117-.808-.496-.808-.496-1.703-1.033-3.404-1.281-5.26-.541-.401.16-.79596.33918-1.17196.52018.257.806.57693 1.59925.94993 2.34425.411-.202.84203-.40243 1.28203-.53243.634-.187 1.284-.197 1.914.014.612.205 1.157.568 1.7.909 1.023.643 2.182 1.372 3.657 1.372 2.186 0 3.72-1.305 4.21-3.581.38-1.764 1.222-5.702 1.763-8.418 0 0 1.386 6.654 1.765 8.418.49 2.276 2.025 3.581 4.211 3.581 1.475 0 2.634-.729 3.657-1.372.543-.341 1.088-.704 1.7-.909.629-.211 1.28-.201 1.914-.014.44.13.87039.33065 1.28139.53265.374-.745.69309-1.53862.95009-2.34462-.376-.181-.77048-.36003-1.17148-.52003"/><path d="M60.82159 44.68066q-.26856.11718-.48828.21972-.21485.10254-.56641.21485-.29785.09277-.64941.15625-.34668.06836-.7666.06836-.79102 0-1.44044-.21973-.64453-.2246-1.12304-.69824-.46875-.46387-.73242-1.17676-.26368-.71777-.26368-1.66504 0-.89844.2539-1.60644.25392-.70801.73243-1.1963.46387-.47363 1.11817-.72265.65918-.24902 1.45996-.24902.58593 0 1.16699.1416.58594.1416 1.29883.49805v1.14746h-.07324q-.60059-.50293-1.1914-.73243-.59083-.22949-1.26466-.22949-.55176 0-.9961.18067-.43944.17578-.78612.55175-.33692.36622-.52735.92774-.18554.55664-.18554 1.28906 0 .7666.20507 1.31836.20997.55176.53711.89844.3418.36133.7959.5371.45899.1709.9668.1709.69824 0 1.3086-.23925.61034-.23926 1.14257-.71778h.06836zm6.7871-5.9082q.44434.48827.67872 1.19628.23926.70801.23926 1.60645 0 .89843-.24415 1.61133-.23925.708-.67382 1.18164-.44922.49316-1.06446.74218-.61035.24903-1.39648.24903-.7666 0-1.39649-.2539-.625-.25391-1.06445-.73731-.43945-.4834-.67871-1.18653-.23437-.70312-.23437-1.60644 0-.88867.23437-1.5918.23438-.708.6836-1.21094.42968-.47851 1.06445-.73242.63965-.2539 1.3916-.2539.78125 0 1.40137.25878.625.25391 1.05957.72754zm-.08788 2.80273q0-1.41602-.63477-2.18262-.63477-.77148-1.7334-.77148-1.1084 0-1.74316.77148-.62989.7666-.62989 2.18262 0 1.43066.64454 2.19238.64453.75684 1.72851.75684 1.08399 0 1.72363-.75684.64454-.76172.64454-2.19238zm8.02246 1.39648q0 .542-.20508.95703-.20508.41504-.55176.6836-.41016.32226-.90332.45898-.48828.13672-1.24512.13672h-2.57812v-7.2705h2.15332q.7959 0 1.1914.05858.39551.0586.75684.24414.4004.20996.58105.542.18067.32714.18067.78613 0 .51758-.26367.88379-.26368.36133-.70313.58105v.03906q.7373.15137 1.16211.64942.4248.49316.4248 1.25zm-1.62598-3.27637q0-.26367-.08789-.44433-.08789-.18067-.2832-.29297-.2295-.13184-.55664-.16113-.32715-.03418-.81055-.03418h-1.15234v2.0996h1.25q.4541 0 .72265-.04394.26856-.04883.49805-.19532.2295-.14648.32226-.37597.09766-.23438.09766-.55176zm.62012 3.31543q0-.43945-.13184-.69824-.13184-.25879-.47852-.43945-.23437-.12207-.57128-.15625-.33204-.03906-.81055-.03906h-1.51856v2.70508h1.2793q.63477 0 1.04004-.06348.40527-.06836.66406-.24414.27344-.19043.4004-.43457.12695-.24414.12695-.62989zm7.79785-4.23828q.44433.48828.6787 1.1963.23927.708.23927 1.60644 0 .89843-.24414 1.61133-.23926.708-.67383 1.18164-.44922.49316-1.06446.74218-.61035.24903-1.39648.24903-.7666 0-1.39648-.2539-.625-.25391-1.06446-.73731-.43945-.4834-.6787-1.18653-.23438-.70312-.23438-1.60644 0-.88867.23437-1.5918.23438-.708.6836-1.21094.42968-.47851 1.06445-.73242.63965-.2539 1.3916-.2539.78125 0 1.40137.25878.625.25391 1.05957.72754zm-.0879 2.80274q0-1.41602-.63476-2.18262-.63476-.77148-1.7334-.77148-1.1084 0-1.74316.77148-.62988.7666-.62988 2.18262 0 1.43066.64453 2.19238.64453.75684 1.72851.75684 1.08399 0 1.72364-.75684.64453-.76172.64453-2.19238zm7.13868 3.63281h-4.59961v-7.2705h.9668v6.41112h3.63281zm9.08203 0h-4.5996v-7.2705h.96679v6.41112h3.63281zm5.13184 0h-.91309v-.58105q-.12207.083-.33203.23437-.20508.14649-.40039.23438-.22949.1123-.52734.18554-.29786.07813-.69825.07813-.7373 0-1.25-.48828t-.5127-1.24512q0-.62011.26368-1.00097.26855-.38574.76172-.60547.49805-.21973 1.19629-.29785.69824-.07813 1.49902-.11719v-.1416q0-.3125-.1123-.51758-.10743-.20508-.3125-.32227-.19532-.1123-.46875-.15136-.27344-.03906-.57129-.03906-.36133 0-.80567.09766-.44433.09277-.91797.27343h-.04883v-.93261q.26856-.07324.77637-.16114.50782-.08789 1.00098-.08789.57617 0 1.00098.09766.42968.09277.74218.32227.30762.2246.46875.58105.16114.35645.16114.8838zm-.91309-1.34277v-1.51856q-.41992.02441-.99121.07324-.56641.04883-.89844.1416-.39551.1123-.63965.35157-.24414.23437-.24414.64941 0 .46875.28321.708.2832.23438.86425.23438.4834 0 .88379-.18554.40039-.19043.74219-.4541zm7.24121 1.34277h-.91797v-3.10547q0-.37598-.0439-.70312-.044-.33204-.16113-.51758-.12208-.20508-.35157-.30274-.22949-.10254-.5957-.10254-.37598 0-.78613.18555-.41016.18555-.78614.47363V45.208h-.91796v-5.4541h.91796v.60547q.42969-.35645.88868-.55664.45898-.2002.94238-.2002.88379 0 1.34765.53223.46387.53222.46387 1.5332zm6.19141-.62012q0 1.38672-.62988 2.03614-.62989.64941-1.93848.64941-.43457 0-.84961-.06348-.41016-.05859-.81055-.1709v-.9375h.0488q.22461.0879.71289.21485.48828.13183.97656.13183.46875 0 .77637-.1123t.47852-.3125q.1709-.19043.24414-.45899.0732-.26855.0732-.60058v-.49805q-.41504.33203-.7959.49805-.37598.16113-.96191.16113-.97657 0-1.55274-.70313-.57129-.708-.57129-1.99218 0-.70313.19532-1.21094.20019-.5127.54199-.88379.31738-.34668.77148-.5371.4541-.19532.90332-.19532.47364 0 .79102.09766.32226.09277.67871.28808l.0586-.23437h.85938zm-.91797-.8789v-2.97364q-.36621-.16601-.68359-.23437-.3125-.07324-.625-.07324-.75684 0-1.19141.50781-.43457.50781-.43457 1.47461 0 .91797.32226 1.3916.32227.47364 1.06934.47364.40039 0 .80078-.15137.40528-.15625.74219-.41504zm7.24609 1.49902h-.91797v-.60547q-.46386.36621-.88867.56152-.4248.19532-.9375.19532-.85937 0-1.33789-.52246-.47851-.52735-.47851-1.54297V39.7539h.91797v3.10547q0 .41504.0391.71289.0391.29297.16601.50293.13184.21484.3418.3125.20996.09766.61035.09766.35645 0 .77637-.18555.4248-.18555.79101-.47363V39.7539h.91797zm6.04493 0h-.91309v-.58105q-.12207.083-.33203.23437-.20508.14649-.40039.23438-.22949.1123-.52735.18554-.29785.07813-.69824.07813-.7373 0-1.25-.48828-.51269-.48828-.51269-1.24512 0-.62011.26367-1.00097.26855-.38574.76172-.60547.49804-.21973 1.19629-.29785.69824-.07813 1.49902-.11719v-.1416q0-.3125-.11231-.51758-.10742-.20508-.3125-.32227-.19531-.1123-.46875-.15136-.27343-.03906-.57128-.03906-.36133 0-.80567.09766-.44433.09277-.91797.27343h-.0488v-.93261q.26856-.07324.77637-.16114.50781-.08789 1.00098-.08789.57617 0 1.00097.09766.42969.09277.74219.32227.30762.2246.46875.58105.16114.35645.16114.8838zm-.91309-1.34277v-1.51856q-.41992.02441-.99121.07324-.56641.04883-.89844.1416-.39551.1123-.63965.35157-.24414.23437-.24414.64941 0 .46875.2832.708.28321.23438.86426.23438.4834 0 .88379-.18554.40039-.19043.74219-.4541zm7.10449.72265q0 1.38672-.62988 2.03614-.62988.64941-1.93848.64941-.43457 0-.84961-.06348-.41015-.05859-.81054-.1709v-.9375h.0488q.22461.0879.71289.21485.48829.13183.97657.13183.46875 0 .77636-.1123.30762-.1123.47852-.3125.1709-.19043.24414-.45899.0732-.26855.0732-.60058v-.49805q-.41504.33203-.7959.49805-.37597.16113-.96191.16113-.97656 0-1.55273-.70313-.57129-.708-.57129-1.99218 0-.70313.19531-1.21094.20019-.5127.54199-.88379.31738-.34668.77149-.5371.4541-.19532.90332-.19532.47363 0 .79101.09766.32227.09277.67871.28808l.0586-.23437h.85937zm-.91797-.8789v-2.97364q-.36621-.16601-.68359-.23437-.3125-.07324-.625-.07324-.75684 0-1.19141.50781-.43457.50781-.43457 1.47461 0 .91797.32227 1.3916.32226.47364 1.06933.47364.40039 0 .80079-.15137.40527-.15625.74218-.41504zm7.29004-1.13282h-4.01855q0 .50293.15136.87891.15137.3711.41504.61035.25391.23438.60059.35156.35156.1172.77148.1172.55664 0 1.11817-.21974.5664-.2246.80566-.43945h.0488v1.00098q-.46387.19531-.94727.32715-.48339.13183-1.01562.13183-1.35742 0-2.11914-.73242-.76172-.7373-.76172-2.08984 0-1.3379.72754-2.12403.73242-.78613 1.92383-.78613 1.10351 0 1.69922.64453.60058.64453.60058 1.83106zm-.89355-.70312q-.005-.72266-.36621-1.11817-.35645-.3955-1.08887-.3955-.73731 0-1.17676.43457-.43457.43457-.49316 1.0791zm11.15722 1.25976q0 .42481-.20019.83985-.19531.41504-.55176.70312-.39062.3125-.91309.48828-.51757.17579-1.25.17579-.78613 0-1.41601-.14649-.625-.14648-1.27442-.43457v-1.21094h.0684q.55176.45899 1.27442.70801.72265.24902 1.35742.24902.89844 0 1.39648-.3369.50293-.33692.50293-.89845 0-.4834-.23925-.71289-.23438-.22949-.71778-.35644-.36621-.09766-.7959-.16114-.4248-.06348-.90332-.16113-.96679-.20508-1.43554-.69824-.46387-.49805-.46387-1.29394 0-.9131.77148-1.49415.77149-.58593 1.95801-.58593.7666 0 1.40625.14648t1.13281.36133v1.14258h-.0683q-.41504-.35156-1.09375-.58106-.67383-.23437-1.38184-.23437-.77637 0-1.25.32226-.46875.32227-.46875.83008 0 .4541.23437.7129.23438.25878.8252.3955.3125.06836.88867.16601.57617.09767.97656.2002.81055.21484 1.22071.64941.41015.43457.41015 1.21582zm6.00098 2.0752h-.91797v-.60547q-.46387.36621-.88867.56152-.42481.19532-.9375.19532-.85938 0-1.33789-.52246-.47852-.52735-.47852-1.54297V39.7539h.91797v3.10547q0 .41504.0391.71289.0391.29297.16602.50293.13184.21484.3418.3125.20996.09766.61035.09766.35644 0 .77637-.18555.4248-.18555.79101-.47363V39.7539h.91797zm6.60645-2.79297q0 .66406-.19043 1.21582-.19043.54688-.53711.92774-.32227.36132-.76172.56152-.43457.19531-.92285.19531-.42481 0-.77149-.09277-.3418-.09277-.69824-.28808v2.28515h-.91797V39.7539h.91797v.5713q.36621-.30763.82031-.5127.45899-.20997.97656-.20997.98633 0 1.53321.74707.55176.7422.55176 2.06543zm-.94727.02441q0-.98633-.33691-1.4746-.33692-.48829-1.03516-.48829-.39551 0-.7959.1709-.40039.1709-.7666.44922v3.09082q.39062.17578.66894.23926.28321.06348.63965.06348.7666 0 1.19629-.51758.42969-.51758.42969-1.5332zm7.17773-.0244q0 .66405-.19043 1.21581-.19043.54688-.5371.92774-.32227.36132-.76172.56152-.43457.19531-.92286.19531-.4248 0-.77148-.09277-.3418-.09277-.69824-.28808v2.28515h-.91797V39.7539h.91797v.5713q.36621-.30763.82031-.5127.45899-.20997.97656-.20997.98633 0 1.53321.74707.55175.7422.55175 2.06543zm-.94726.0244q0-.98633-.33692-1.4746-.33691-.48829-1.03515-.48829-.39551 0-.7959.1709-.40039.1709-.7666.44922v3.09082q.39062.17578.66894.23926.28321.06348.63965.06348.7666 0 1.19629-.51758.42969-.51758.42969-1.5332zm7.02637.04395q0 1.333-.6836 2.1045-.68359.77148-1.83105.77148-1.15723 0-1.84082-.77149-.67871-.77148-.67871-2.10449 0-1.333.67871-2.1045.68359-.77636 1.84082-.77636 1.14746 0 1.83105.77637.6836.77148.6836 2.1045zm-.94727 0q0-1.05957-.41504-1.57226-.41504-.51758-1.15234-.51758-.74707 0-1.16211.51758-.41016.51269-.41016 1.57226 0 1.0254.41504 1.55762.41504.52734 1.15723.52734.73242 0 1.14746-.52246.41992-.52734.41992-1.5625zm5.77148-1.72851h-.0488q-.20508-.04883-.40039-.06836-.19043-.02441-.45411-.02441-.4248 0-.82031.19042-.39551.18555-.76172.4834V45.208h-.91797v-5.4541h.91797v.80566q.54688-.43945.96192-.62012.41992-.18554.85449-.18554.23926 0 .34668.01465.10742.0098.32226.04395zm3.69629 4.4043q-.25879.06835-.5664.1123-.30274.04395-.54199.04395-.83497 0-1.26954-.44922-.43457-.44922-.43457-1.44043v-2.9004h-.62011v-.77148h.62011v-1.56738h.91797v1.56738h1.89453v.77149h-1.89453v2.48535q0 .42969.0195.67383.0195.23926.13672.44922.10742.1953.29297.28808.19043.0879.57617.0879.22461 0 .46875-.06349.24414-.06836.35157-.1123h.0488z" text-anchor="middle"/></svg>