<svg xmlns="http://www.w3.org/2000/svg" role="img" xmlns:xlink="http://www.w3.org/1999/xlink" viewBox="-4.53 -4.53 248.82 59.32"><title>COBOL Control Flow (Explorer for Visual Studio Code ZOWE V1) logo</title><path d="M237.32 9.09c-1.06 0-1.93-.86-1.93-1.92s.87-1.93 1.93-1.93 1.93.87 1.93 1.93-.87 1.92-1.93 1.92m0-4.32c-1.32 0-2.4 1.08-2.4 2.4 0 1.32 1.08 2.4 2.4 2.4 1.32 0 2.4-1.08 2.4-2.4 0-1.32-1.08-2.4-2.4-2.4"/><path d="M237.48 7.07l-.51.01-.01-.62h.51c.19-.01.34.11.34.3.01.19-.14.31-.33.31m.83-.32c-.01-.42-.3-.72-.77-.72l-1.07.02.03 2.26h.49l-.01-.81h.35l.46.8.55-.01-.52-.86c.24-.06.49-.28.49-.68M51.8341 23.1805h-5.999V9.3465h5.835c1.574 0 2.557 1.016 2.557 2.393 0 1.377-.983 2.36-2.557 2.36H45v4h6.8341c1.836 0 2.819 1.18 2.819 2.556 0 1.574-1.049 2.525-2.819 2.525m3.376-7.245c2.066-.426 3.771-2.262 3.771-5.015 0-2.918-2.131-5.573-6.295-5.573h-11.506v21.865h11.867c4.163 0 6.359-2.623 6.359-5.901 0-2.754-1.868-5.015-4.196-5.376m17.8225-.5902H68v4.098h3.5576l4.294 7.769h5.343l-4.917-8.327c2.361-.557 4.786-2.622 4.786-6.49m0 0c0-4.065-2.786-7.048-7.343-7.048h-10.228v21.865h4.655V9.4453h4.885c1.869 0 3.278 1.114 3.278 2.95s-1.409 2.95-3.278 2.95m43.4206 4.0652l3.409-9.408 3.41 9.408zm.492-14.063l-8.458 21.865h5.31l1.377-3.704h9.376l1.344 3.704h5.311l-8.425-21.865zm26.9039 17.7671h-3.967v-13.67h3.967c4.491 0 6.851 2.983 6.851 6.852 0 3.704-2.524 6.818-6.851 6.818m0-17.767h-8.622v21.865h8.622c6.851 0 11.604-4.327 11.604-10.916s-4.753-10.949-11.604-10.949m82.1269-.0045l-5.734 9.27-5.734-9.27h-5.146v21.869h4.656v-14.293l5.012 7.622c.574.871 1.851.871 2.424 0l5.013-7.622v14.293h4.656V5.3431z"/><path id="a" d="M95.8253 23.3441c-3.871 0-7.008-3.138-7.008-7.008 0-3.871 3.137-7.009 7.008-7.009 3.87 0 7.008 3.138 7.008 7.009 0 3.87-3.138 7.008-7.008 7.008m0-18.536c-6.367 0-11.528 5.161-11.528 11.528 0 6.366 5.161 11.527 11.528 11.527 6.366 0 11.528-5.161 11.528-11.527 0-6.367-5.162-11.528-11.528-11.528"/><path d="M176.4035 19.7269c-1.195 2.156-3.492 3.617-6.132 3.617-3.87 0-7.008-3.138-7.008-7.008 0-3.871 3.138-7.008 7.008-7.008 2.618 0 4.897 1.438 6.1 3.565l3.27-3.269c-2.092-2.915-5.508-4.816-9.37-4.816-6.367 0-11.527 5.161-11.527 11.528 0 6.366 5.16 11.528 11.527 11.528 3.883 0 7.316-1.922 9.404-4.865z"/><use transform="translate(98.718)" xlink:href="#a"/><ellipse cx="16.52" cy="16.497" fill="#cc092f" rx="16.236" ry="16.235"/><path fill="#fff" d="M30.8253 20.8832c-1.857-.74-3.557-.492-5.261.541 0 0-.621.379-.807.496-.794.498-1.543.97-2.263.97-.687 0-1.363-.184-1.649-1.513-.446-2.073-1.534-7.167-2.009-9.69-.279-1.483-.432-2.282-.591-2.825-.28-.954-.792-1.473-1.519-1.556 0 0-.114-.016-.207-.016-.092 0-.218.018-.218.018-.72.086-1.229.605-1.507 1.554-.159.543-.312 1.342-.591 2.825-.475 2.523-1.563 7.617-2.009 9.69-.286 1.329-.962 1.513-1.649 1.513-.72 0-1.469-.472-2.263-.97-.186-.117-.808-.496-.808-.496-1.703-1.033-3.404-1.281-5.26-.541-.401.16-.79596.33918-1.17196.52018.257.806.57693 1.59925.94993 2.34425.411-.202.84203-.40243 1.28203-.53243.634-.187 1.284-.197 1.914.014.612.205 1.157.568 1.7.909 1.023.643 2.182 1.372 3.657 1.372 2.186 0 3.72-1.305 4.21-3.581.38-1.764 1.222-5.702 1.763-8.418 0 0 1.386 6.654 1.765 8.418.49 2.276 2.025 3.581 4.211 3.581 1.475 0 2.634-.729 3.657-1.372.543-.341 1.088-.704 1.7-.909.629-.211 1.28-.201 1.914-.014.44.13.87039.33065 1.28139.53265.374-.745.69309-1.53862.95009-2.34462-.376-.181-.77048-.36003-1.17148-.52003"/><g text-anchor="middle"><path d="M75.89829 49.41992q-.29542.1289-.53711.2417-.23633.1128-.62305.23633-.32764.10205-.71436.17187-.38134.0752-.84326.0752-.87012 0-1.58447-.2417-.70899-.24707-1.23535-.76806-.51563-.51026-.80567-1.29444-.29004-.78955-.29004-1.83154 0-.98828.2793-1.76709.2793-.7788.80567-1.31592.51025-.521 1.22998-.79492.7251-.27392 1.60595-.27392.64453 0 1.2837.15576.64453.15576 1.4287.54785v1.2622h-.08056q-.66065-.55322-1.31055-.80566-.6499-.25244-1.39112-.25244-.60693 0-1.0957.19873-.4834.19336-.86474.60693-.37061.40284-.58008 1.02051-.2041.6123-.2041 1.41797 0 .84326.22558 1.4502.23096.60693.59082.98828.37598.39746.87549.59082.50488.18799 1.06348.18799.76806 0 1.43945-.26319.67139-.26318 1.25684-.78955h.0752z"/><path d="M83.37485 42.9209q.48877.5371.74658 1.31592.26318.7788.26318 1.76709 0 .98828-.26855 1.77246-.26319.7788-.74121 1.2998-.49414.54248-1.1709.8164-.67139.27393-1.53613.27393-.84327 0-1.53614-.2793-.6875-.27929-1.1709-.81103-.4834-.53174-.74658-1.30517-.25781-.77344-.25781-1.7671 0-.97753.25781-1.75097.25781-.7788.75196-1.33203.47265-.52637 1.1709-.80567.7036-.2793 1.53076-.2793.85937 0 1.5415.28468.6875.2793 1.16553.80029zm-.09668 3.083q0-1.55761-.69825-2.40087-.69824-.84863-1.90673-.84863-1.21924 0-1.91748.84863-.69287.84326-.69287 2.40088 0 1.57373.70898 2.41162.70898.83252 1.90137.83252 1.19238 0 1.896-.83252.70898-.8379.70898-2.41162z"/><path d="M92.10287 47.54004q0 .59619-.22558 1.05273-.22559.45655-.60694.75196-.45117.35449-.99365.50488Q89.7396 50 88.90707 50h-2.83593v-7.99756h2.36865q.87549 0 1.31055.06445.43505.06445.83251.26855.44044.23096.63917.5962.19873.35986.19873.86474 0 .56934-.29004.97217-.29004.39746-.77344.63916v.04297q.81103.1665 1.27832.71436.46729.54248.46729 1.375zm-1.78857-3.604q0-.29004-.09668-.48877-.09668-.19874-.31152-.32227-.25244-.14502-.6123-.17725-.35987-.0376-.8916-.0376H87.1346v2.30958h1.375q.49951 0 .79492-.04834.29541-.05372.54786-.21485.25244-.16113.35449-.41357.10742-.25782.10742-.60694zm.68213 3.64697q0-.4834-.14502-.76807-.14502-.28467-.52637-.4834-.25781-.13427-.62841-.17187-.36524-.04297-.8916-.04297H87.1346v2.97558h1.40723q.69824 0 1.14404-.06982.4458-.0752.73047-.26855.30078-.20947.44043-.47803.13965-.26855.13965-.69287z"/><path d="M99.57407 42.9209q.48877.5371.74658 1.31592.26318.7788.26318 1.76709 0 .98828-.26855 1.77246-.26319.7788-.74121 1.2998-.49414.54248-1.1709.8164-.67139.27393-1.53613.27393-.84327 0-1.53614-.2793-.6875-.27929-1.1709-.81103-.4834-.53174-.74658-1.30517-.25781-.77344-.25781-1.7671 0-.97753.25781-1.75097.25781-.7788.75195-1.33203.47266-.52637 1.1709-.80567.70362-.2793 1.53076-.2793.85938 0 1.5415.28468.6875.2793 1.16554.80029zm-.09668 3.083q0-1.55761-.69825-2.40087-.69824-.84863-1.90673-.84863-1.21924 0-1.91748.84863-.69288.84326-.69288 2.40088 0 1.57373.70899 2.41162.70898.83252 1.90137.83252 1.19238 0 1.896-.83252.70898-.8379.70898-2.41162z"/><path d="M107.32993 50h-5.05957v-7.99756h1.06347v7.05225h3.9961z"/><path d="M118.43735 49.41992q-.29541.1289-.53711.2417-.23633.1128-.62305.23633-.32764.10205-.71435.17187-.38135.0752-.84327.0752-.87011 0-1.58447-.2417-.70898-.24707-1.23535-.76806-.51563-.51026-.80566-1.29444-.29004-.78955-.29004-1.83154 0-.98828.27929-1.76709.2793-.7788.80567-1.31592.51025-.521 1.22998-.79492.7251-.27392 1.60596-.27392.64453 0 1.28369.15576.64453.15576 1.42871.54785v1.2622h-.0806q-.66064-.55322-1.31055-.80566-.6499-.25244-1.39111-.25244-.60693 0-1.0957.19873-.4834.19336-.86475.60693-.3706.40284-.58008 1.02051-.2041.6123-.2041 1.41797 0 .84326.22559 1.4502.23095.60693.59082.98828.37597.39746.87549.59082.50488.18799 1.06347.18799.76807 0 1.43946-.26319.67138-.26318 1.25683-.78955h.0752z"/><path d="M124.98471 47.00293q0 1.4663-.75195 2.31494-.75196.84863-2.01416.84863-1.27295 0-2.0249-.84863-.74659-.84863-.74659-2.31494 0-1.4663.74659-2.31494.75195-.854 2.0249-.854 1.2622 0 2.01416.854.75195.84863.75195 2.31494zm-1.04199 0q0-1.16553-.45654-1.7295-.45655-.56933-1.26758-.56933-.82178 0-1.27832.56934-.45117.56396-.45117 1.72949 0 1.12793.45654 1.71338.45654.58008 1.27295.58008.80566 0 1.2622-.57471.46192-.58008.46192-1.71875z"/><path d="M131.56967 50h-1.00976v-3.41602q0-.41357-.0483-.77343-.0483-.36524-.17725-.56934-.13428-.22559-.38672-.333-.25244-.1128-.65527-.1128-.41358 0-.86475.2041t-.86474.521V50h-1.00977v-5.99951h1.00977v.66601q.47265-.39209.97753-.6123.50489-.22022 1.03663-.22022.97216 0 1.48242.58545.51025.58545.51025 1.68653z"/><path d="M136.62924 49.94629q-.28467.0752-.62304.12353-.33301.04834-.5962.04834-.91845 0-1.39648-.49414-.47803-.49414-.47803-1.58447v-3.19043h-.68213v-.84863h.68213v-1.72412h1.00977v1.72412h2.08398v.84863h-2.08398v2.73389q0 .47265.0215.7412.0215.2632.15039.49415.11817.21484.32227.3169.20947.09667.63379.09667.24707 0 .51562-.06983.26856-.0752.38672-.12353h.0537z"/><path d="M141.5975 45.10156h-.0537q-.22558-.0537-.44043-.0752-.20947-.02685-.49951-.02685-.46728 0-.90234.20947-.43506.2041-.83789.53174V50h-1.00977v-5.99951h1.00977v.88623q.60156-.4834 1.0581-.68213.46192-.2041.93994-.2041.26319 0 .38135.0161.11817.01075.35449.04835z"/><path d="M147.67221 47.00293q0 1.4663-.75195 2.31494-.75196.84863-2.01416.84863-1.27295 0-2.0249-.84863-.74659-.84863-.74659-2.31494 0-1.4663.74659-2.31494.75195-.854 2.0249-.854 1.2622 0 2.01416.854.75195.84863.75195 2.31494zm-1.04199 0q0-1.16553-.45654-1.7295-.45655-.56933-1.26758-.56933-.82178 0-1.27832.56934-.45117.56396-.45117 1.72949 0 1.12793.45654 1.71338.45654.58008 1.27295.58008.80566 0 1.2622-.57471.46192-.58008.46192-1.71875z"/><path d="M150.26108 50h-1.00977v-8.35742h1.00977z"/><path d="M161.32553 42.94775h-4.04443v2.25586h3.4751v.94532h-3.4751V50h-1.06348v-7.99756h5.10791z"/><path d="M163.47397 50h-1.00977v-8.35742h1.00977z"/><path d="M170.59604 47.00293q0 1.4663-.75195 2.31494-.75196.84863-2.01416.84863-1.27295 0-2.02491-.84863-.74658-.84863-.74658-2.31494 0-1.4663.74658-2.31494.75196-.854 2.02491-.854 1.2622 0 2.01416.854.75195.84863.75195 2.31494zm-1.04199 0q0-1.16553-.45655-1.7295-.45654-.56933-1.26757-.56933-.82178 0-1.27832.56934-.45118.56396-.45118 1.72949 0 1.12793.45655 1.71338.45654.58008 1.27295.58008.80566 0 1.2622-.57471.46192-.58008.46192-1.71875z"/><path d="M179.71078 44.00049L178.1478 50h-.93457l-1.54151-4.62451L174.14096 50h-.9292l-1.5791-5.99951h1.05273l1.10108 4.646 1.49853-4.646h.83252l1.53614 4.646 1.04199-4.646z"/></g></svg>