<svg xmlns="http://www.w3.org/2000/svg" role="img" viewBox="-7.97 34.03 414.18 213.93"><title>crc32-s390x logo</title><style>svg {enable-background:new 0 0 400 245}</style><style id="style1" type="text/css">.st0{fill:#4c83c3}</style><g id="g31"><path id="polygon1" d="M398.3 53.5L332 53.5 336.1 42.1 398.3 42.1z" class="st0"/><path id="path1" d="M221.5,42.1l61.6,0l4,11.5c0,0-65.6,0-65.6,0C221.6,53.5,221.5,42.1,221.5,42.1z" class="st0"/><path id="path2" d="M172.7,42.1c10.1,1,19,4.6,26.5,11.5c0,0-111.6,0-111.6,0c0,0,0-11.5,0-11.5L172.7,42.1z" class="st0"/><g id="g3"><path id="rect2" d="M0 42.1H77.5V53.5H0z" class="st0"/></g><path id="path4" d="M398.3,75h-73.9c0,0,4-11.4,4-11.4h69.9V75z" class="st0"/><path id="polygon4" d="M294.8 75L221.5 75 221.5 63.6 290.7 63.6z" class="st0"/><path id="path5" d="M207.8,63.6c1.5,3.8,3.2,7,3.2,11.4H87.6V63.6H207.8z" class="st0"/><g id="g6"><path id="rect5" d="M0 63.6H77.5V75H0z" class="st0"/></g><path id="polygon6" d="M316.8 96.5L320.9 85.1 376.4 85.1 376.4 96.5z" class="st0"/><path id="polygon7" d="M298.3 85.1L302.4 96.5 243.4 96.5 243.4 85.1z" class="st0"/><path id="path7" d="M212,85c0,3.9-0.5,8-1.6,11.4h-33.8V85H212z" class="st0"/><g id="g8"><path id="rect7" d="M21.6 85.1H54.9V96.5H21.6z" class="st0"/></g><g id="g9"><path id="rect8" d="M110 85H143.3V96.4H110z" class="st0"/></g><path id="path10" d="M276.1,108.8c0,0,0,8.7,0,8.7h-32.8v-11.4h62.4l3.9,10.6c0,0,3.7-10.6,3.7-10.6h62.9v11.4h-32.6 c0,0,0-8.7,0-8.7l-3,8.7l-61.6,0L276.1,108.8z" class="st0"/><path id="path11" d="M110,106.1h95.5v0c-2.1,3.8-5.9,8.4-9.5,11.4c0,0-86,0-86,0C110,117.5,110,106.1,110,106.1z" class="st0"/><g id="g12"><path id="rect11" d="M21.6 106.1H54.9V117.5H21.6z" class="st0"/></g><g id="g13"><path id="rect12" d="M343.8 127.6H376.40000000000003V139H343.8z" class="st0"/></g><path id="path14" d="M276.1,127.6h-32.8v11.4c0,0,32.8,0,32.8,0C276.1,138.9,276.2,127.6,276.1,127.6z" class="st0"/><path id="path15" d="M337.2,127.6c-0.1,0-3.8,11.4-4,11.4l-46.4,0c0,0-4.1-11.4-4.1-11.4H337.2z" class="st0"/><path id="path16" d="M110,127.6h85.8c3.9,3.3,7.5,7.3,10.2,11.4c0.2,0-96.1,0-96.1,0C110,138.9,110,127.6,110,127.6z" class="st0"/><path id="path17" d="M54.9,138.9v-11.4H21.7c0,0,0,11.4,0,11.4C21.7,138.9,54.9,138.9,54.9,138.9z" class="st0"/><g id="g18"><path id="rect17" d="M343.8 149H376.40000000000003V160.4H343.8z" class="st0"/></g><g id="g19"><path id="rect18" d="M243.4 149H276.2V160.4H243.4z" class="st0"/></g><path id="path20" d="M325.6,160.4c0-0.1,4-11.4,4.1-11.4h-39.5c-0.1,0,4,11.4,4,11.4S325.6,160.5,325.6,160.4z" class="st0"/><path id="path21" d="M110,160.4c0,0,0-11.4,0-11.4h33.8c0,0,0,11.4,0,11.4C143.7,160.4,110,160.4,110,160.4z" class="st0"/><path id="path22" d="M210.8,149c1.6,3.4,1.8,7.5,2.1,11.4h-35.8V149H210.8z" class="st0"/><g id="g23"><path id="rect22" d="M21.7 149H55V160.4H21.7z" class="st0"/></g><g id="g24"><path id="rect23" d="M343.8 170H398.3V181.4H343.8z" class="st0"/></g><g id="g25"><path id="rect24" d="M221.5 170H276.1V181.4H221.5z" class="st0"/></g><path id="polygon25" d="M318.2 181.4L301.6 181.4 297.6 170 322.1 170z" class="st0"/><path id="path26" d="M0,170v11.4h77.5c0,0,0-11.4,0-11.4C77.5,170-0.1,170,0,170z" class="st0"/><path id="path27" d="M211.5,170c-0.8,3.8-1.6,8.3-4.3,11.4l-1,0H87.6V170H211.5z" class="st0"/><path id="polygon27" d="M310.7 202.9L309.2 202.9 305.3 191.5 314.7 191.5z" class="st0"/><g id="g28"><path id="rect27" d="M343.8 191.5H398.3V202.9H343.8z" class="st0"/></g><path id="path29" d="M87.6,202.9v-11.4c0,0,111.9,0,112.2,0c-7.5,7.2-17.8,11.2-28.9,11.4L87.6,202.9" class="st0"/><g id="g30"><path id="rect29" d="M221.5 191.5H276.1V202.9H221.5z" class="st0"/></g><path id="path31" d="M77.5,191.5c0,0,0,11.4,0,11.4c0,0-77.4,0-77.5,0c0,0,0-11.4,0-11.4S77.4,191.6,77.5,191.5z" class="st0"/></g><path id="text31" d="m 158.18359,239.45312 q -0.73437,0.35157 -1.39843,0.54688 -0.65625,0.19531 -1.39844,0.19531 -0.94531,0 -1.73438,-0.27344 -0.78906,-0.28125 -1.35156,-0.84375 -0.57031,-0.5625 -0.88281,-1.42187 -0.3125,-0.85938 -0.3125,-2.00781 0,-2.14063 1.17187,-3.35938 1.17969,-1.21875 3.10938,-1.21875 0.75,0 1.46875,0.21094 0.72656,0.21094 1.32812,0.51562 v 1.63282 h -0.0781 q -0.67188,-0.52344 -1.39063,-0.80469 -0.71093,-0.28125 -1.39062,-0.28125 -1.25,0 -1.97656,0.84375 -0.71875,0.83594 -0.71875,2.46094 0,1.57812 0.70312,2.42968 0.71094,0.84375 1.99219,0.84375 0.44531,0 0.90625,-0.11718 0.46094,-0.11719 0.82812,-0.30469 0.32032,-0.16406 0.60157,-0.34375 0.28125,-0.1875 0.44531,-0.32031 h 0.0781 z m 7.32813,-6.57812 h -0.0781 q -0.32812,-0.0781 -0.64062,-0.10938 -0.30469,-0.0391 -0.72656,-0.0391 -0.67969,0 -1.3125,0.30469 -0.63282,0.29687 -1.21875,0.77344 V 240 h -1.46875 v -8.72656 h 1.46875 v 1.28906 q 0.875,-0.70313 1.53906,-0.99219 0.67187,-0.29687 1.36719,-0.29687 0.38281,0 0.55468,0.0234 0.17188,0.0156 0.51563,0.0703 z m 7.83594,6.57812 q -0.73438,0.35157 -1.39844,0.54688 -0.65625,0.19531 -1.39844,0.19531 -0.94531,0 -1.73437,-0.27344 -0.78907,-0.28125 -1.35157,-0.84375 -0.57031,-0.5625 -0.88281,-1.42187 -0.3125,-0.85938 -0.3125,-2.00781 0,-2.14063 1.17188,-3.35938 1.17968,-1.21875 3.10937,-1.21875 0.75,0 1.46875,0.21094 0.72656,0.21094 1.32813,0.51562 v 1.63282 h -0.0781 q -0.67187,-0.52344 -1.39062,-0.80469 -0.71094,-0.28125 -1.39063,-0.28125 -1.25,0 -1.97656,0.84375 -0.71875,0.83594 -0.71875,2.46094 0,1.57812 0.70312,2.42968 0.71094,0.84375 1.99219,0.84375 0.44531,0 0.90625,-0.11718 0.46094,-0.11719 0.82813,-0.30469 0.32031,-0.16406 0.60156,-0.34375 0.28125,-0.1875 0.44531,-0.32031 h 0.0781 z m 8.54687,-5.05468 q 0.375,0.33593 0.61719,0.84375 0.24219,0.50781 0.24219,1.3125 0,0.79687 -0.28907,1.46093 -0.28906,0.66407 -0.8125,1.15625 -0.58593,0.54688 -1.38281,0.8125 -0.78906,0.25782 -1.73437,0.25782 -0.96875,0 -1.90625,-0.23438 -0.9375,-0.22656 -1.53907,-0.5 V 237.875 h 0.11719 q 0.66406,0.4375 1.5625,0.72656 0.89844,0.28906 1.73438,0.28906 0.49218,0 1.04687,-0.16406 0.55469,-0.16406 0.89844,-0.48437 0.35937,-0.34375 0.53125,-0.75782 0.17969,-0.41406 0.17969,-1.04687 0,-0.625 -0.20313,-1.03125 -0.19531,-0.41406 -0.54687,-0.64844 -0.35157,-0.24219 -0.85157,-0.32812 -0.5,-0.0937 -1.07812,-0.0937 h -0.70313 v -1.29688 h 0.54688 q 1.1875,0 1.89062,-0.49219 0.71094,-0.5 0.71094,-1.45312 0,-0.42188 -0.17969,-0.73438 -0.17968,-0.32031 -0.5,-0.52343 -0.33593,-0.20313 -0.71875,-0.28125 -0.38281,-0.0781 -0.86718,-0.0781 -0.74219,0 -1.57813,0.26563 -0.83594,0.26562 -1.57812,0.75 h -0.0781 v -1.63282 q 0.55469,-0.27343 1.47656,-0.5 0.92969,-0.23437 1.79688,-0.23437 0.85156,0 1.5,0.15625 0.64844,0.15625 1.17187,0.5 0.5625,0.375 0.85157,0.90625 0.28906,0.53125 0.28906,1.24219 0,0.96875 -0.6875,1.69531 -0.67969,0.71875 -1.60938,0.90625 v 0.10937 q 0.375,0.0625 0.85938,0.26563 0.48437,0.19531 0.82031,0.49219 z M 193.08984,240 h -7.875 v -1.63281 q 0.82032,-0.70313 1.64063,-1.40625 0.82812,-0.70313 1.53906,-1.39844 1.5,-1.45313 2.05469,-2.30469 0.55469,-0.85937 0.55469,-1.85156 0,-0.90625 -0.60157,-1.41406 -0.59375,-0.51563 -1.66406,-0.51563 -0.71094,0 -1.53906,0.25 -0.82813,0.25 -1.61719,0.76563 h -0.0781 v -1.64063 q 0.55468,-0.27344 1.47656,-0.5 0.92969,-0.22656 1.79687,-0.22656 1.78907,0 2.80469,0.86719 1.01563,0.85937 1.01563,2.33593 0,0.66407 -0.17188,1.24219 -0.16406,0.57031 -0.49219,1.08594 -0.30468,0.48437 -0.71875,0.95312 -0.40625,0.46875 -0.99218,1.03907 -0.83594,0.82031 -1.72657,1.59375 -0.89062,0.76562 -1.66406,1.42187 h 6.25781 z m 7.10938,-4.38281 h -4.875 v -1.41407 h 4.875 z m 8.875,1.86718 q 0,1.19532 -0.99219,1.96094 -0.98437,0.76563 -2.69531,0.76563 -0.96875,0 -1.78125,-0.22657 -0.80469,-0.23437 -1.35156,-0.50781 v -1.64844 h 0.0781 q 0.69531,0.52344 1.54688,0.83594 0.85156,0.30469 1.63281,0.30469 0.96875,0 1.51562,-0.3125 0.54688,-0.3125 0.54688,-0.98438 0,-0.51562 -0.29688,-0.78125 -0.29687,-0.26562 -1.14062,-0.45312 -0.3125,-0.0703 -0.82031,-0.16406 -0.5,-0.0937 -0.91407,-0.20313 -1.14843,-0.30469 -1.63281,-0.89062 -0.47656,-0.59375 -0.47656,-1.45313 0,-0.53906 0.21875,-1.01562 0.22656,-0.47657 0.67969,-0.85157 0.4375,-0.36718 1.10937,-0.57812 0.67969,-0.21875 1.51563,-0.21875 0.78125,0 1.57812,0.19531 0.80469,0.1875 1.33594,0.46094 v 1.57031 h -0.0781 q -0.5625,-0.41406 -1.36718,-0.69531 -0.80469,-0.28906 -1.57813,-0.28906 -0.80469,0 -1.35937,0.3125 -0.55469,0.30468 -0.55469,0.91406 0,0.53906 0.33594,0.8125 0.32812,0.27344 1.0625,0.44531 0.40625,0.0937 0.90625,0.1875 0.50781,0.0937 0.84375,0.17188 1.02343,0.23437 1.57812,0.80468 0.55469,0.57813 0.55469,1.53125 z m 8.76562,-3.08593 q 0.375,0.33593 0.61719,0.84375 0.24219,0.50781 0.24219,1.3125 0,0.79687 -0.28906,1.46093 -0.28907,0.66407 -0.8125,1.15625 -0.58594,0.54688 -1.38282,0.8125 -0.78906,0.25782 -1.73437,0.25782 -0.96875,0 -1.90625,-0.23438 -0.9375,-0.22656 -1.53906,-0.5 V 237.875 h 0.11718 q 0.66407,0.4375 1.5625,0.72656 0.89844,0.28906 1.73438,0.28906 0.49219,0 1.04687,-0.16406 0.55469,-0.16406 0.89844,-0.48437 0.35938,-0.34375 0.53125,-0.75782 0.17969,-0.41406 0.17969,-1.04687 0,-0.625 -0.20313,-1.03125 -0.19531,-0.41406 -0.54687,-0.64844 -0.35156,-0.24219 -0.85156,-0.32812 -0.5,-0.0937 -1.07813,-0.0937 h -0.70312 v -1.29688 h 0.54687 q 1.1875,0 1.89063,-0.49219 0.71093,-0.5 0.71093,-1.45312 0,-0.42188 -0.17968,-0.73438 -0.17969,-0.32031 -0.5,-0.52343 -0.33594,-0.20313 -0.71875,-0.28125 -0.38282,-0.0781 -0.86719,-0.0781 -0.74219,0 -1.57813,0.26563 -0.83593,0.26562 -1.57812,0.75 h -0.0781 v -1.63282 q 0.55469,-0.27343 1.47657,-0.5 0.92968,-0.23437 1.79687,-0.23437 0.85156,0 1.5,0.15625 0.64844,0.15625 1.17188,0.5 0.5625,0.375 0.85156,0.90625 0.28906,0.53125 0.28906,1.24219 0,0.96875 -0.6875,1.69531 -0.67969,0.71875 -1.60937,0.90625 v 0.10937 q 0.375,0.0625 0.85937,0.26563 0.48438,0.19531 0.82031,0.49219 z m 11.17969,-0.91407 q 0,1.52344 -0.35156,2.76563 -0.34375,1.24219 -1.04688,2.11719 -0.71093,0.89062 -1.78125,1.375 -1.07031,0.48437 -2.51562,0.48437 -0.40625,0 -0.76563,-0.0469 -0.35937,-0.0391 -0.64062,-0.13282 v -1.49218 h 0.0781 q 0.22657,0.11718 0.64063,0.22656 0.41406,0.10156 0.92187,0.10156 1.72657,0 2.70313,-1.03125 0.98437,-1.03906 1.14062,-2.85937 -0.72656,0.4375 -1.36718,0.625 -0.64063,0.1875 -1.39844,0.1875 -0.71875,0 -1.30469,-0.14063 -0.57812,-0.14062 -1.16406,-0.54687 -0.6875,-0.47657 -1.03906,-1.21094 -0.34375,-0.73438 -0.34375,-1.75781 0,-1.78125 1.17187,-2.89844 1.17188,-1.11719 2.85938,-1.11719 0.84375,0 1.5625,0.26563 0.71875,0.25781 1.25781,0.78125 0.66406,0.64843 1.02344,1.67187 0.35937,1.01563 0.35937,2.63281 z m -1.57812,-0.33593 q 0,-1.21094 -0.25,-1.94532 -0.25,-0.73437 -0.6875,-1.14062 -0.36719,-0.35156 -0.78907,-0.5 -0.42187,-0.15625 -0.91406,-0.15625 -1.125,0 -1.78125,0.70312 -0.64844,0.70313 -0.64844,1.97657 0,0.74218 0.21094,1.21093 0.21094,0.46875 0.71094,0.82032 0.35156,0.24218 0.77344,0.32812 0.42187,0.0781 0.9375,0.0781 0.60937,0 1.23437,-0.16407 0.625,-0.16406 1.17188,-0.47656 0.008,-0.16406 0.0156,-0.32031 0.0156,-0.16406 0.0156,-0.41406 z m 11.75,1.03125 q 0,3.13281 -0.98438,4.60156 -0.97656,1.46094 -3.03906,1.46094 -2.09375,0 -3.0625,-1.48438 -0.96094,-1.48437 -0.96094,-4.5625 0,-3.10156 0.97656,-4.57812 0.97657,-1.48438 3.04688,-1.48438 2.09375,0 3.05469,1.50781 0.96875,1.5 0.96875,4.53907 z m -2.05469,3.54687 q 0.27344,-0.63281 0.36719,-1.48437 0.10156,-0.85938 0.10156,-2.0625 0,-1.1875 -0.10156,-2.0625 -0.0937,-0.875 -0.375,-1.48438 -0.27344,-0.60156 -0.75,-0.90625 -0.46875,-0.30469 -1.21094,-0.30469 -0.73438,0 -1.21875,0.30469 -0.47656,0.30469 -0.75781,0.92188 -0.26563,0.57812 -0.36719,1.50781 -0.0937,0.92969 -0.0937,2.03906 0,1.21875 0.0859,2.03906 0.0859,0.82032 0.36718,1.46875 0.25782,0.60938 0.72657,0.92969 0.47656,0.32031 1.25781,0.32031 0.73437,0 1.21875,-0.30468 0.48437,-0.30469 0.75,-0.92188 z M 249.24609,240 h -1.85156 L 244.91797,236.64844 242.42578,240 h -1.71094 l 3.40625,-4.35156 -3.375,-4.375 h 1.85157 l 2.46093,3.29687 2.46875,-3.29687 h 1.71875 l -3.42968,4.29687 z" text-anchor="middle"/></svg>