<svg xmlns="http://www.w3.org/2000/svg" role="img" xmlns:xlink="http://www.w3.org/1999/xlink" viewBox="-9.54 -9.29 249.08 59.33"><title>Data Editor for Mainframe logo</title><path d="M232.506 4.298c-1.06 0-1.93-.86-1.93-1.92s.87-1.93 1.93-1.93 1.93.87 1.93 1.93-.87 1.92-1.93 1.92m0-4.32c-1.32 0-2.4 1.08-2.4 2.4 0 1.32 1.08 2.4 2.4 2.4 1.32 0 2.4-1.08 2.4-2.4 0-1.32-1.08-2.4-2.4-2.4"/><path d="M232.666 2.278l-.51.01-.01-.62h.51c.19-.01.34.11.34.3.01.19-.14.31-.33.31m.83-.32c-.01-.42-.3-.72-.77-.72l-1.07.02.03 2.26h.49l-.01-.81h.35l.46.8.55-.01-.52-.86c.24-.06.49-.28.49-.68M47.0201 18.3885h-5.999V4.5545h5.835c1.574 0 2.557 1.016 2.557 2.393 0 1.377-.983 2.36-2.557 2.36H40.186v4h6.8341c1.836 0 2.819 1.18 2.819 2.556 0 1.574-1.049 2.525-2.819 2.525m3.376-7.245c2.066-.426 3.771-2.262 3.771-5.015 0-2.918-2.131-5.573-6.295-5.573h-11.506v21.865h11.867c4.163 0 6.359-2.623 6.359-5.901 0-2.754-1.868-5.015-4.196-5.376m17.8225-.5902H63.186v4.098h3.5576l4.294 7.769h5.343l-4.917-8.327c2.361-.557 4.786-2.622 4.786-6.49m0 0c0-4.065-2.786-7.048-7.343-7.048h-10.228v21.865h4.655V4.6533h4.885c1.869 0 3.278 1.114 3.278 2.95s-1.409 2.95-3.278 2.95m43.4206 4.0652l3.409-9.408 3.41 9.408zm.492-14.063l-8.458 21.865h5.31l1.377-3.704h9.376l1.344 3.704h5.311l-8.425-21.865zm26.9039 17.7671h-3.967v-13.67h3.967c4.491 0 6.851 2.983 6.851 6.852 0 3.704-2.524 6.818-6.851 6.818m0-17.767h-8.622v21.865h8.622c6.851 0 11.604-4.327 11.604-10.916s-4.753-10.949-11.604-10.949M221.162.5511l-5.734 9.27-5.734-9.27h-5.146v21.869h4.656V8.1271l5.012 7.622c.574.871 1.851.871 2.424 0l5.013-7.622v14.293h4.656V.5511z"/><path id="a" d="M91.0113 18.5521c-3.871 0-7.008-3.138-7.008-7.008 0-3.871 3.137-7.009 7.008-7.009 3.87 0 7.008 3.138 7.008 7.009 0 3.87-3.138 7.008-7.008 7.008m0-18.536c-6.367 0-11.528 5.161-11.528 11.528 0 6.366 5.161 11.527 11.528 11.527 6.366 0 11.528-5.161 11.528-11.527 0-6.367-5.162-11.528-11.528-11.528"/><path d="M171.5895 14.9349c-1.195 2.156-3.492 3.617-6.132 3.617-3.87 0-7.008-3.138-7.008-7.008 0-3.871 3.138-7.008 7.008-7.008 2.618 0 4.897 1.438 6.1 3.565l3.27-3.269c-2.092-2.915-5.508-4.816-9.37-4.816-6.367 0-11.527 5.161-11.527 11.528 0 6.366 5.16 11.528 11.527 11.528 3.883 0 7.316-1.922 9.404-4.865z"/><use transform="translate(98.718)" xlink:href="#a"/><ellipse cx="11.706" cy="11.705" fill="#cc092f" rx="16.236" ry="16.235"/><path fill="#fff" d="M26.0113 16.0912c-1.857-.74-3.557-.492-5.261.541 0 0-.621.379-.807.496-.794.498-1.543.97-2.263.97-.687 0-1.363-.184-1.649-1.513-.446-2.073-1.534-7.167-2.009-9.69-.279-1.483-.432-2.282-.591-2.825-.28-.954-.792-1.473-1.519-1.556 0 0-.114-.016-.207-.016-.092 0-.218.018-.218.018-.72.086-1.229.605-1.507 1.554-.159.543-.312 1.342-.591 2.825-.475 2.523-1.563 7.617-2.009 9.69-.286 1.329-.962 1.513-1.649 1.513-.72 0-1.469-.472-2.263-.97-.186-.117-.808-.496-.808-.496-1.703-1.033-3.404-1.281-5.26-.541-.401.16-.79596.33918-1.17196.52018.257.806.57693 1.59925.94993 2.34425.411-.202.84203-.40243 1.28203-.53243.634-.187 1.284-.197 1.914.014.612.205 1.157.568 1.7.909 1.023.643 2.182 1.372 3.657 1.372 2.186 0 3.72-1.305 4.21-3.581.38-1.764 1.222-5.702 1.763-8.418 0 0 1.386 6.654 1.765 8.418.49 2.276 2.025 3.581 4.211 3.581 1.475 0 2.634-.729 3.657-1.372.543-.341 1.088-.704 1.7-.909.629-.211 1.28-.201 1.914-.014.44.13.87039.33065 1.28139.53265.374-.745.69309-1.53862.95009-2.34462-.376-.181-.77048-.36003-1.17148-.52003"/><path d="M61.49786 41.58007q0 .99121-.43457 1.79688-.4297.80566-1.14747 1.25-.49804.30761-1.11328.44433-.61035.13672-1.61132.13672h-1.83594v-7.2705h1.8164q1.06446 0 1.68946.15624.62988.15137 1.06445.41992.74219.46387 1.15723 1.23536.41504.77148.41504 1.83105zm-1.01075-.01465q0-.8545-.29785-1.44043-.29785-.58593-.88867-.92285-.42969-.24414-.91309-.33691-.4834-.09766-1.15722-.09766h-.9082v5.61035h.9082q.69824 0 1.21582-.10254.52246-.10254.95703-.38086.542-.34668.81055-.91308.27343-.5664.27343-1.41602zM67.2254 45.208h-.9131v-.58105q-.12206.083-.33202.23437-.20508.14649-.4004.23438-.22949.1123-.52734.18554-.29785.07813-.69824.07813-.7373 0-1.25-.48828t-.5127-1.24512q0-.62011.26368-1.00097.26855-.38574.76172-.60547.49804-.21973 1.19629-.29785.69824-.07813 1.49902-.11719v-.1416q0-.3125-.1123-.51758-.10743-.20508-.3125-.32227-.19532-.1123-.46876-.15136-.27343-.03906-.57128-.03906-.36133 0-.80567.09766-.44433.09277-.91797.27343H63.075v-.93261q.26856-.07324.77637-.16114.50781-.08789 1.00098-.08789.57617 0 1.00097.09766.42969.09277.74219.32227.30762.2246.46875.58105.16113.35645.16113.8838zm-.9131-1.34277v-1.51856q-.41991.02441-.9912.07324-.5664.04883-.89844.1416-.3955.1123-.63965.35157-.24414.23437-.24414.64941 0 .46875.2832.708.2832.23438.86426.23438.4834 0 .8838-.18554.40038-.19043.74218-.4541zm5.5127 1.29394q-.25878.06836-.5664.1123-.30274.04396-.542.04396-.83495 0-1.26952-.44922t-.43457-1.44043v-2.9004h-.62012v-.77148h.62012v-1.56738h.91796v1.56738h1.89454v.77149h-1.89454v2.48535q0 .42969.01953.67383.01953.23925.13672.44922.10742.1953.29297.28808.19043.0879.57617.0879.22461 0 .46875-.06349.24414-.06836.35156-.1123h.04883zm5.34668.04883h-.91308v-.58105q-.12207.083-.33203.23437-.20508.14649-.4004.23438-.22949.1123-.52734.18554-.29785.07813-.69824.07813-.7373 0-1.25-.48828t-.5127-1.24511q0-.62012.26368-1.00098.26855-.38574.76172-.60547.49804-.21973 1.19628-.29785.69825-.07813 1.49903-.11719v-.1416q0-.3125-.1123-.51758-.10743-.20508-.3125-.32226-.19532-.1123-.46876-.15137-.27343-.03906-.57129-.03906-.36132 0-.80566.09766-.44434.09277-.91797.27344h-.04883v-.93262q.26856-.07324.77637-.16113.50781-.0879 1.00098-.0879.57617 0 1.00097.09767.42969.09277.74219.32226.30762.22461.46875.58106.16113.35644.16113.88378zm-.91308-1.34277v-1.51856q-.41992.02441-.99121.07324-.5664.04883-.89844.1416-.3955.11231-.63965.35157-.24414.23437-.24414.64941 0 .46875.2832.70801.2832.23438.86426.23438.4834 0 .8838-.18555.40038-.19043.74218-.4541zM87.31817 45.208h-4.79004v-7.2705h4.79004v.85937h-3.82324v1.99219h3.82324v.85937h-3.82324v2.7002h3.82324zm5.88379 0h-.91797v-.57129q-.3955.3418-.8252.53223-.42968.19043-.93261.19043-.97657 0-1.55274-.75196-.57129-.75195-.57129-2.08496 0-.69336.19532-1.23535.2002-.54199.5371-.92285.33204-.3711.77149-.5664.44434-.19532.91797-.19532.42969 0 .76172.09277.33203.0879.69824.27832v-2.36328h.91797zm-.91797-1.34277v-3.12989q-.3711-.16601-.66406-.22949-.29297-.06348-.63965-.06348-.77149 0-1.20117.53711-.4297.53711-.4297 1.52344 0 .97168.33204 1.4795.33203.50292 1.06445.50292.39063 0 .79102-.1709.40039-.17578.74707-.44922zm3.71094-5.02442h-1.03516v-.95215h1.03516zm-.0586 6.36719h-.91797v-5.4541h.91797zm4.64844-.04883q-.25879.06836-.56641.1123-.30273.04395-.54199.04395-.83496 0-1.26953-.44921-.43457-.44922-.43457-1.44043v-2.9004h-.62012v-.77148h.62012v-1.56738h.91797v1.56738h1.89453v.77149h-1.89453v2.48535q0 .42968.01953.67383.01953.23925.13672.44921.10742.19532.29297.28809.19043.08789.57617.08789.2246 0 .46875-.06348.24414-.06836.35156-.1123h.0488zm5.75684-2.67578q0 1.333-.6836 2.1045-.68359.77147-1.83105.77147-1.15723 0-1.84082-.77148-.67871-.77148-.67871-2.1045 0-1.333.67871-2.10448.68359-.77637 1.84082-.77637 1.14746 0 1.83105.77637.6836.77148.6836 2.10449zm-.94727 0q0-1.05957-.41504-1.57227-.41504-.51758-1.15234-.51758-.74707 0-1.16211.51758-.41016.5127-.41016 1.57227 0 1.02539.41504 1.55762.41504.52734 1.15723.52734.73242 0 1.14746-.52246.41992-.52735.41992-1.5625zm5.77148-1.72852h-.0488q-.20508-.04883-.40039-.06836-.19043-.0244-.45411-.0244-.4248 0-.82031.19042-.39551.18555-.76172.4834V45.208h-.91797v-5.4541h.91797v.80566q.54688-.43945.96192-.62012.41992-.18554.85449-.18554.23926 0 .34668.01465.10742.0098.32226.04395zm7.31446-2.25586h-.0488q-.15137-.04395-.39551-.08789-.24414-.04883-.42969-.04883-.59082 0-.85937.26368-.26367.25878-.26367.94238v.18555h1.65527v.77148h-1.62601V45.208h-.91796v-4.68262h-.62012v-.77148h.62012v-.18067q0-.97168.48339-1.48925.4834-.52246 1.39649-.52246.30762 0 .55176.0293.24902.0293.4541.06836zm5.22949 3.98438q0 1.333-.68359 2.1045-.6836.77147-1.83106.77147-1.15722 0-1.84082-.77148-.67871-.77148-.67871-2.1045 0-1.333.67871-2.10448.6836-.77637 1.84082-.77637 1.14746 0 1.83106.77637.68359.77148.68359 2.10449zm-.94727 0q0-1.05957-.41503-1.57227-.41504-.51758-1.15235-.51758-.74707 0-1.16211.51758-.41015.5127-.41015 1.57227 0 1.02539.41504 1.55762.41503.52734 1.15722.52734.73242 0 1.14746-.52246.41992-.52735.41992-1.5625zm5.77149-1.72852h-.0488q-.20508-.04883-.40039-.06836-.19043-.0244-.4541-.0244-.42481 0-.82031.19042-.39551.18555-.76172.4834V45.208h-.91797v-5.4541h.91797v.80566q.54687-.43945.96191-.62012.41992-.18554.85449-.18554.23926 0 .34668.01465.10743.0098.32227.04395zm10.92773 4.45313h-.96679v-6.26465l-2.02149 4.2627h-.57617l-2.00684-4.2627V45.208h-.90332v-7.2705h1.31836l1.93848 4.04784 1.875-4.04785h1.34277zm6.11817 0h-.91309v-.58105q-.12207.083-.33203.23437-.20508.14649-.40039.23438-.22949.1123-.52734.18554-.29786.07813-.69825.07813-.7373 0-1.25-.48828-.51269-.48828-.51269-1.24512 0-.62011.26367-1.00097.26855-.38574.76172-.60547.49805-.21973 1.19629-.29785.69824-.07813 1.49902-.11719v-.1416q0-.3125-.1123-.51758-.10743-.20508-.3125-.32227-.19532-.1123-.46875-.15136-.27344-.03906-.57129-.03906-.36133 0-.80567.09766-.44433.09277-.91797.27343h-.0488v-.93261q.26855-.07324.77636-.16114.50782-.08789 1.00098-.08789.57617 0 1.00098.09766.42968.09277.74218.32227.30762.2246.46875.58105.16114.35645.16114.8838zm-.91309-1.34277v-1.51856q-.41992.02441-.99121.07324-.56641.04883-.89844.1416-.3955.1123-.63965.35157-.24414.23437-.24414.64941 0 .46875.28321.708.2832.23438.86425.23438.4834 0 .88379-.18554.40039-.19043.74219-.4541zm3.66699-5.02442h-1.03515v-.95215h1.03515zm-.05859 6.36719h-.91797v-5.4541h.91797zm6.37695 0h-.91797v-3.10547q0-.37598-.0439-.70312-.0439-.33204-.16113-.51758-.12207-.20508-.35157-.30274-.22949-.10254-.5957-.10254-.37598 0-.78613.18555-.41016.18555-.78614.47363V45.208h-.91796v-5.4541h.91796v.60547q.42969-.35645.88868-.55664.45898-.2002.94238-.2002.88379 0 1.34766.53223.46386.53222.46386 1.5332zm4.70215-6.70898h-.0488q-.15136-.04395-.3955-.0879-.24415-.04882-.42969-.04882-.59082 0-.85938.26367-.26367.25879-.26367.94238v.18555h1.65527v.77148h-1.62597V45.208h-.91797v-4.68262h-.62012v-.77148h.62012v-.18067q0-.97168.4834-1.48925.4834-.52246 1.39648-.52246.30762 0 .55176.0293.24902.0293.4541.06836zm3.98438 2.25585h-.0488q-.20508-.04882-.40039-.06835-.19043-.02442-.4541-.02442-.42481 0-.82032.19043-.3955.18555-.76172.4834V45.208h-.91796v-5.4541h.91796v.80566q.54688-.43945.96192-.62012.41992-.18554.85449-.18554.23926 0 .34668.01465.10742.0098.32227.04395zm4.92675 4.45313h-.91308v-.58105q-.12207.083-.33203.23437-.20508.14649-.40039.23438-.2295.1123-.52735.18554-.29785.07813-.69824.07813-.7373 0-1.25-.48828-.51269-.48828-.51269-1.24512 0-.62011.26367-1.00097.26855-.38574.76172-.60547.49804-.21973 1.19628-.29785.69825-.07813 1.49903-.11719v-.1416q0-.3125-.11231-.51758-.10742-.20508-.3125-.32227-.19531-.1123-.46875-.15136-.27343-.03906-.57129-.03906-.36132 0-.80566.09766-.44434.09277-.91797.27343h-.0488v-.93261q.26856-.07324.77637-.16114.50781-.08789 1.00098-.08789.57617 0 1.00097.09766.42969.09277.74219.32227.30762.2246.46875.58105.16113.35645.16113.8838zm-.91308-1.34277v-1.51856q-.41992.02441-.99121.07324-.56641.04883-.89844.1416-.39551.1123-.63965.35157-.24414.23437-.24414.64941 0 .46875.2832.708.28321.23438.86426.23438.4834 0 .88379-.18554.40039-.19043.74219-.4541zM177.992 45.208h-.91797v-3.10547q0-.35156-.0342-.67871-.0293-.32715-.13184-.52246-.1123-.20996-.32226-.31738-.20996-.10742-.60547-.10742-.38574 0-.77149.1953-.38574.19044-.77148.48829.0147.1123.0244.26367.01.14649.01.29297V45.208h-.91797v-3.10547q0-.36133-.0342-.6836-.0293-.32714-.13184-.52245-.1123-.20996-.32226-.3125-.20996-.10742-.60547-.10742-.37598 0-.75684.18554-.37597.18555-.75195.47363V45.208h-.91797v-5.4541h.91797v.60547q.42969-.35645.85449-.55664.42969-.2002.91309-.2002.55664 0 .94238.23438.39063.23437.58106.64941.55664-.46875 1.01562-.67383.45899-.20996.98145-.20996.89843 0 1.32324.54688.42969.54199.42969 1.51855zm6.333-2.63184h-4.01855q0 .50293.15137.87891.15136.3711.41504.61035.2539.23438.60058.35156.35156.1172.77149.1172.55664 0 1.11816-.21974.56641-.2246.80566-.43945h.0488v1.00098q-.46386.19531-.94726.32715-.4834.13183-1.01563.13183-1.35742 0-2.11914-.73242-.76172-.7373-.76172-2.08984 0-1.3379.72754-2.12403.73242-.78613 1.92383-.78613 1.10352 0 1.69922.64453.60058.64453.60058 1.83106zm-.89355-.70312q-.005-.72266-.36621-1.11817-.35645-.3955-1.08887-.3955-.7373 0-1.17676.43457-.43457.43457-.49316 1.0791z" text-anchor="middle"/></svg>