<svg xmlns="http://www.w3.org/2000/svg" role="img" xmlns:xlink="http://www.w3.org/1999/xlink" viewBox="-9.50 -9.50 260.00 61.50"><title>Database Management Solutions for Db2 for z/OS logo</title><path d="M233.31896 4.298c-1.06 0-1.93-.86-1.93-1.92s.87-1.93 1.93-1.93 1.93.87 1.93 1.93-.87 1.92-1.93 1.92m0-4.32c-1.32 0-2.4 1.08-2.4 2.4 0 1.32 1.08 2.4 2.4 2.4 1.32 0 2.4-1.08 2.4-2.4 0-1.32-1.08-2.4-2.4-2.4"/><path d="M233.47896 2.278l-.51.01-.01-.62h.51c.19-.01.34.11.34.3.01.19-.14.31-.33.31m.83-.32c-.01-.42-.3-.72-.77-.72l-1.07.02.03 2.26h.49l-.01-.81h.35l.46.8.55-.01-.52-.86c.24-.06.49-.28.49-.68M47.83306 18.3885h-5.999V4.5545h5.835c1.574 0 2.557 1.016 2.557 2.393 0 1.377-.983 2.36-2.557 2.36h-6.6701v4h6.8341c1.836 0 2.819 1.18 2.819 2.556 0 1.574-1.049 2.525-2.819 2.525m3.376-7.245c2.066-.426 3.771-2.262 3.771-5.015 0-2.918-2.131-5.573-6.295-5.573h-11.506v21.865h11.867c4.163 0 6.359-2.623 6.359-5.901 0-2.754-1.868-5.015-4.196-5.376m17.8225-.5902h-5.0326v4.098h3.5576l4.294 7.769h5.343l-4.917-8.327c2.361-.557 4.786-2.622 4.786-6.49m0 0c0-4.065-2.786-7.048-7.343-7.048h-10.228v21.865h4.655V4.6533h4.885c1.869 0 3.278 1.114 3.278 2.95s-1.409 2.95-3.278 2.95m43.4206 4.0652l3.409-9.408 3.41 9.408zm.492-14.063l-8.458 21.865h5.31l1.377-3.704h9.376l1.344 3.704h5.311l-8.425-21.865zm26.9039 17.7671h-3.967v-13.67h3.967c4.491 0 6.851 2.983 6.851 6.852 0 3.704-2.524 6.818-6.851 6.818m0-17.767h-8.622v21.865h8.622c6.851 0 11.604-4.327 11.604-10.916s-4.753-10.949-11.604-10.949m82.1269-.0045l-5.734 9.27-5.734-9.27h-5.146v21.869h4.656V8.1271l5.012 7.622c.574.871 1.851.871 2.424 0l5.013-7.622v14.293h4.656V.5511z"/><path id="a" d="M91.82426 18.5521c-3.871 0-7.008-3.138-7.008-7.008 0-3.871 3.137-7.009 7.008-7.009 3.87 0 7.008 3.138 7.008 7.009 0 3.87-3.138 7.008-7.008 7.008m0-18.536c-6.367 0-11.528 5.161-11.528 11.528 0 6.366 5.161 11.527 11.528 11.527 6.366 0 11.528-5.161 11.528-11.527 0-6.367-5.162-11.528-11.528-11.528"/><path d="M172.40246 14.9349c-1.195 2.156-3.492 3.617-6.132 3.617-3.87 0-7.008-3.138-7.008-7.008 0-3.871 3.138-7.008 7.008-7.008 2.618 0 4.897 1.438 6.1 3.565l3.27-3.269c-2.092-2.915-5.508-4.816-9.37-4.816-6.367 0-11.527 5.161-11.527 11.528 0 6.366 5.16 11.528 11.527 11.528 3.883 0 7.316-1.922 9.404-4.865z"/><use transform="translate(98.718)" xlink:href="#a"/><ellipse cx="12.519" cy="11.705" fill="#cc092f" rx="16.236" ry="16.235"/><path fill="#fff" d="M26.82426 16.0912c-1.857-.74-3.557-.492-5.261.541 0 0-.621.379-.807.496-.794.498-1.543.97-2.263.97-.687 0-1.363-.184-1.649-1.513-.446-2.073-1.534-7.167-2.009-9.69-.279-1.483-.432-2.282-.591-2.825-.28-.954-.792-1.473-1.519-1.556 0 0-.114-.016-.207-.016-.092 0-.218.018-.218.018-.72.086-1.229.605-1.507 1.554-.159.543-.312 1.342-.591 2.825-.475 2.523-1.563 7.617-2.009 9.69-.286 1.329-.962 1.513-1.649 1.513-.72 0-1.469-.472-2.263-.97-.186-.117-.808-.496-.808-.496-1.703-1.033-3.404-1.281-5.26-.541-.401.16-.79596.33918-1.17196.52018.257.806.57693 1.59925.94993 2.34425.411-.202.84203-.40243 1.28203-.53243.634-.187 1.284-.197 1.914.014.612.205 1.157.568 1.7.909 1.023.643 2.182 1.372 3.657 1.372 2.186 0 3.72-1.305 4.21-3.581.38-1.764 1.222-5.702 1.763-8.418 0 0 1.386 6.654 1.765 8.418.49 2.276 2.025 3.581 4.211 3.581 1.475 0 2.634-.729 3.657-1.372.543-.341 1.088-.704 1.7-.909.629-.211 1.28-.201 1.914-.014.44.13.8704.33065 1.2814.53265.374-.745.69308-1.53862.95008-2.34462-.376-.181-.77048-.36003-1.17148-.52003"/><path d="M1.61259 41.58007q0 .99121-.43457 1.79688-.4297.80566-1.14746 1.25-.49805.30761-1.11329.44433-.61035.13672-1.61132.13672H-4.53v-7.2705h1.8164q1.06446 0 1.68946.15624.62988.15137 1.06445.41992.74219.46387 1.15723 1.23536.41504.77148.41504 1.83105zm-1.01075-.01465q0-.8545-.29785-1.44043-.29785-.58593-.88867-.92285-.42969-.24414-.91308-.33691-.4834-.09766-1.15723-.09766h-.9082v5.61035h.9082q.69824 0 1.21582-.10254.52246-.10254.95703-.38086.542-.34668.81055-.91308.27343-.5664.27343-1.41602zM7.34013 45.208h-.91309v-.58105q-.12207.083-.33203.23437-.20508.14648-.4004.23438-.22948.1123-.52734.18554-.29785.07813-.69824.07813-.7373 0-1.25-.48828t-.5127-1.24512q0-.62011.26368-1.00097.26855-.38574.76172-.60547.49804-.21973 1.19629-.29785.69824-.07813 1.49902-.11719v-.1416q0-.3125-.1123-.51758-.10743-.20508-.3125-.32227-.19532-.1123-.46875-.15136-.27344-.03906-.5713-.03906-.36132 0-.80566.09766-.44433.09277-.91797.27343h-.04882v-.93261q.26855-.07324.77636-.16114.50782-.08789 1.00098-.08789.57617 0 1.00098.09766.42968.09277.74218.32227.30762.2246.46875.58105.16114.35645.16114.8838zm-.91309-1.34277v-1.51856q-.41992.02441-.99121.07324-.5664.04883-.89844.1416-.3955.1123-.63965.35157-.24414.23437-.24414.64941 0 .46875.2832.708.2832.23438.86426.23438.4834 0 .8838-.18554.40038-.19043.74218-.4541zm5.5127 1.29394q-.2588.06836-.56641.1123-.30274.04396-.542.04396-.83495 0-1.26952-.44922-.43457-.44923-.43457-1.44044v-2.90039h-.62012v-.77148h.62012v-1.56738h.91796v1.56738h1.89454v.77148H10.0452v2.48535q0 .4297.01953.67383.01953.23926.13672.44922.10742.19531.29297.28809.19043.08789.57617.08789.22461 0 .46875-.06348.24414-.06836.35157-.1123h.04883zm5.34667.04883h-.91308v-.58105q-.12207.083-.33203.23437-.20508.14649-.4004.23438-.22949.1123-.52734.18554-.29785.07813-.69824.07813-.7373 0-1.25-.48828t-.5127-1.24511q0-.62012.26368-1.00098.26855-.38574.76172-.60547.49804-.21973 1.19629-.29785.69824-.07813 1.49902-.11719v-.1416q0-.3125-.1123-.51758-.10743-.20508-.3125-.32226-.19532-.1123-.46876-.15137-.27343-.03906-.57129-.03906-.36132 0-.80566.09766-.44434.09277-.91797.27344h-.04883v-.93262q.26856-.07324.77637-.16113.50781-.0879 1.00098-.0879.57617 0 1.00097.09767.4297.09277.7422.32226.3076.22461.46874.58106.16113.35644.16113.88378zm-.91308-1.34277v-1.51856q-.41992.02441-.99121.07324-.5664.04883-.89844.1416-.3955.11231-.63965.35157-.24414.23437-.24414.64941 0 .46875.2832.70801.2832.23438.86426.23438.4834 0 .8838-.18555.40038-.19043.74218-.4541zm7.48047-1.42578q0 .6836-.19532 1.23047-.19042.54687-.51757.91797-.34668.38574-.76172.58105-.41504.19043-.91309.19043-.46387 0-.81054-.1123-.34668-.10743-.6836-.29297l-.0586.2539H19.054v-7.59766h.91797v2.71485q.38574-.31739.82031-.51758.43458-.20508.97657-.20508.9668 0 1.52343.74219.56153.74219.56153 2.09472zm-.94727.0244q0-.97656-.32226-1.47949-.32227-.5078-1.04004-.5078-.4004 0-.81055.17577-.41016.1709-.76172.44434v3.125q.39063.17578.66895.24414.2832.06836.63965.06836.76171 0 1.1914-.49805.43457-.50293.43457-1.57226zm6.61621 2.74415h-.91308v-.58106q-.12207.08301-.33203.23438-.20508.14648-.4004.23437-.22949.1123-.52734.18555-.29785.07813-.69824.07813-.7373 0-1.25-.48828t-.5127-1.24512q0-.62012.26368-1.00098.26855-.38574.76171-.60546.49805-.21973 1.1963-.29786.69824-.07813 1.49902-.11718v-.1416q0-.3125-.1123-.51758-.10743-.20508-.3125-.32227-.19532-.1123-.46876-.15137-.27344-.03906-.57129-.03906-.36133 0-.80566.09766-.44434.09277-.91797.27344h-.04883v-.93262q.26855-.07324.77637-.16113.50781-.08789 1.00097-.08789.57618 0 1.00098.09766.42969.09277.74219.32227.30762.2246.46875.58105.16113.35645.16113.88379zm-.91308-1.34278v-1.51855q-.41993.0244-.99121.07324-.56641.04883-.89844.1416-.3955.1123-.63965.35156-.24414.23438-.24414.64942 0 .46875.2832.708.2832.23438.86426.23438.4834 0 .88379-.18555.40039-.19043.74219-.4541zm6.57715-.22949q0 .74707-.62012 1.22559-.61524.47851-1.68457.47851-.60547 0-1.11328-.1416-.50293-.14648-.84473-.31738v-1.03027h.04883q.43457.32714.9668.52246.53222.19043 1.0205.19043.60547 0 .94727-.19532.3418-.1953.3418-.61523 0-.32227-.18555-.48828-.18555-.16602-.7129-.2832-.1953-.04395-.51269-.10254-.3125-.0586-.57129-.12696-.71777-.19043-1.0205-.55664-.29786-.3711-.29786-.9082 0-.33691.13672-.63477.1416-.29785.4248-.53222.27345-.2295.69337-.36133.4248-.13672.94726-.13672.48828 0 .98633.12207.50293.11719.83496.28809v.98144h-.04883q-.35156-.25879-.85449-.43457-.50293-.18066-.98633-.18066-.50293 0-.8496.1953-.34669.19044-.34669.5713 0 .33691.20996.50781.20508.1709.66407.27832.2539.0586.5664.11719.31739.05859.52735.10742.63964.14649.98632.50293.34668.36133.34668.95703zm5.8789-1.05957h-4.01855q0 .50293.15136.8789.15137.3711.41504.61036.25391.23437.60059.35156.35156.11719.77148.11719.55664 0 1.11817-.21973.5664-.2246.80566-.43945h.04883v1.00098q-.46386.1953-.94726.32714-.4834.13184-1.01563.13184-1.35742 0-2.11914-.73242-.76172-.7373-.76172-2.08984 0-1.3379.72754-2.12403.73242-.78613 1.92383-.78613 1.10352 0 1.69922.64453.60058.64453.60058 1.83105zm-.89355-.70312q-.0049-.72266-.36621-1.11817-.35645-.3955-1.08887-.3955-.7373 0-1.17676.43457-.43457.43457-.49316 1.0791zM52.52079 45.208h-.9668v-6.26465l-2.02148 4.2627h-.57617l-2.00684-4.2627V45.208h-.90332v-7.2705h1.31836l1.93848 4.04784 1.875-4.04785h1.34277zm6.11816 0h-.91308v-.58105q-.12207.083-.33203.23437-.20508.14649-.4004.23438-.22949.1123-.52734.18554-.29785.07813-.69824.07813-.7373 0-1.25-.48828t-.5127-1.24512q0-.62011.26368-1.00097.26855-.38574.76172-.60547.49804-.21973 1.19628-.29785.69825-.07813 1.49903-.11719v-.1416q0-.3125-.1123-.51758-.10743-.20508-.3125-.32227-.19532-.1123-.46876-.15136-.27343-.03906-.57129-.03906-.36132 0-.80566.09766-.44434.09277-.91797.27343h-.04883v-.93261q.26856-.07324.77637-.16114.50781-.08789 1.00097-.08789.57618 0 1.00098.09766.42969.09277.74219.32227.30762.2246.46875.58105.16113.35645.16113.8838zm-.91308-1.34277v-1.51856q-.41992.02441-.99121.07324-.5664.04883-.89844.1416-.3955.1123-.63965.35157-.24414.23437-.24414.64941 0 .46875.2832.708.2832.23438.86426.23438.4834 0 .8838-.18554.40038-.19043.74218-.4541zm7.2412 1.34277h-.91796v-3.10547q0-.37598-.04394-.70312-.04395-.33204-.16113-.51758-.12207-.20508-.35157-.30274-.22949-.10254-.5957-.10254-.37598 0-.78613.18555-.41016.18555-.78613.47363V45.208h-.91797v-5.4541h.91797v.60547q.42968-.35645.88867-.55664.45898-.2002.94238-.2002.88379 0 1.34766.53223.46386.53222.46386 1.5332zm6.00587 0h-.91309v-.58105q-.12207.083-.33203.23437-.20508.14649-.40039.23438-.2295.1123-.52734.18554-.29786.07813-.69825.07813-.7373 0-1.25-.48828t-.5127-1.24512q0-.62011.26368-1.00097.26856-.38574.76172-.60547.49805-.21973 1.19629-.29785.69824-.07813 1.49902-.11719v-.1416q0-.3125-.1123-.51758-.10742-.20508-.3125-.32227-.19532-.1123-.46875-.15136-.27344-.03906-.5713-.03906-.36132 0-.80566.09766-.44433.09277-.91796.27343h-.04883v-.93261q.26855-.07324.77636-.16114.50782-.08789 1.00098-.08789.57617 0 1.00098.09766.42968.09277.74218.32227.30762.2246.46875.58105.16114.35645.16114.8838zm-.91309-1.34277v-1.51856q-.41992.02441-.9912.07324-.56642.04883-.89845.1416-.3955.1123-.63964.35157-.24415.23437-.24415.64941 0 .46875.2832.708.28321.23438.86427.23438.4834 0 .88378-.18554.4004-.19043.7422-.4541zm7.1045.72265q0 1.38672-.62989 2.03614-.62988.64941-1.93848.64941-.43457 0-.8496-.06348-.41016-.05859-.81055-.1709v-.9375h.04883q.2246.0879.71289.21485.48828.13183.97656.13183.46875 0 .77637-.1123t.47851-.3125q.1709-.19043.24415-.45899.07324-.26855.07324-.60058v-.49805q-.41504.33203-.7959.49805-.37598.16113-.96192.16113-.97656 0-1.55273-.70313-.57129-.708-.57129-1.99218 0-.70313.19531-1.21094.2002-.5127.542-.88379.31738-.34668.77148-.5371.4541-.19532.90332-.19532.47363 0 .79101.09766.32227.09277.67872.28808l.05859-.23437h.85937zm-.91797-.8789v-2.97364q-.36622-.16601-.6836-.23437-.3125-.07324-.625-.07324-.75683 0-1.1914.50781t-.43457 1.47461q0 .91797.32226 1.3916.32227.47364 1.06934.47364.40039 0 .80078-.15137.40527-.15625.74219-.41504zm7.29003-1.13282h-4.01855q0 .50293.15137.87891.15137.3711.41504.61035.2539.23438.60058.35156.35157.1172.77149.1172.55664 0 1.11816-.21974.5664-.2246.80566-.43945h.04883v1.00098q-.46386.19531-.94726.32715-.4834.13183-1.01563.13183-1.35742 0-2.11914-.73242-.76172-.7373-.76172-2.08984 0-1.3379.72754-2.12403.73243-.78613 1.92383-.78613 1.10352 0 1.69922.64453.60059.64453.60059 1.83106zm-.89355-.70312q-.0049-.72266-.36621-1.11817-.35645-.3955-1.08887-.3955-.7373 0-1.17676.43457-.43457.43457-.49316 1.0791zM92.887 45.208h-.91797v-3.10547q0-.35156-.03418-.67871-.0293-.32715-.13183-.52246-.1123-.20996-.32227-.31738-.20996-.10742-.60547-.10742-.38574 0-.77148.1953-.38575.19044-.77149.48829.01465.1123.02441.26367.0098.14649.0098.29297V45.208h-.91797v-3.10547q0-.36133-.03418-.6836-.0293-.32714-.13183-.52245-.1123-.20996-.32227-.3125-.20996-.10742-.60547-.10742-.37597 0-.75683.18554-.37598.18555-.75196.47363V45.208h-.91796v-5.4541h.91796v.60547q.4297-.35645.8545-.55664.42968-.2002.91308-.2002.55664 0 .94238.23438.39063.23437.58106.64941.55664-.46875 1.01563-.67383.45898-.20996.98144-.20996.89844 0 1.32324.54688.42969.54199.42969 1.51855zm6.333-2.63184h-4.01855q0 .50293.15137.87891.15137.3711.41504.61035.2539.23438.60059.35156.35156.1172.77148.1172.55664 0 1.11816-.21974.56641-.2246.80567-.43945h.04883v1.00098q-.46387.19531-.94727.32715-.4834.13183-1.01562.13183-1.35742 0-2.11914-.73242-.76172-.7373-.76172-2.08984 0-1.3379.72754-2.12403.73242-.78613 1.92383-.78613 1.10351 0 1.69921.64453.6006.64453.6006 1.83106zm-.89355-.70312q-.0049-.72266-.3662-1.11817-.35645-.3955-1.08887-.3955-.7373 0-1.17676.43457-.43457.43457-.49317 1.0791zm6.84571 3.33496h-.91797v-3.10547q0-.37598-.0439-.70312-.0439-.33204-.16113-.51758-.12207-.20508-.35156-.30274-.22949-.10254-.59571-.10254-.37597 0-.78613.18555-.41015.18555-.78613.47363V45.208h-.91797v-5.4541h.91797v.60547q.42969-.35645.88867-.55664.45899-.2002.94238-.2002.88379 0 1.34766.53223.46387.53222.46387 1.5332zm4.59961-.04883q-.25879.06836-.56641.1123-.30273.04395-.54199.04395-.83496 0-1.26953-.44921-.43457-.44922-.43457-1.44043v-2.9004h-.62012v-.77148h.62012v-1.56738h.91797v1.56738h1.89453v.77149h-1.89453v2.48535q0 .42968.0195.67383.0195.23925.13672.44921.10742.19532.29296.28809.19043.08789.57618.08789.22461 0 .46875-.06348.24414-.06836.35156-.1123h.0488zm9.98047-2.02637q0 .4248-.2002.83985-.19531.41504-.55176.70312-.39062.3125-.91308.48828-.51758.17578-1.25.17578-.78614 0-1.41602-.14648-.625-.14649-1.27441-.43457v-1.21094h.0684q.55175.45899 1.27441.70801.72266.24902 1.35742.24902.89844 0 1.39649-.33691.50293-.33692.50293-.89844 0-.4834-.23926-.71289-.23438-.2295-.71778-.35644-.36621-.09766-.79589-.16114-.42481-.06348-.90332-.16113-.9668-.20508-1.43555-.69824-.46387-.49805-.46387-1.29395 0-.91308.77149-1.49414.77148-.58594 1.958-.58594.76661 0 1.40625.14649.63965.14648 1.13282.36133v1.14257h-.0684q-.41504-.35156-1.09375-.58105-.67383-.23438-1.38184-.23438-.77637 0-1.25.32227-.46875.32227-.46875.83008 0 .4541.23438.71289.23437.25879.82519.3955.3125.06837.88867.16602.57618.09766.97657.2002.81054.21484 1.2207.64941.41016.43457.41016 1.21582zm6.12793-.64941q0 1.333-.6836 2.1045-.68359.77147-1.83105.77147-1.15723 0-1.84082-.77148-.67871-.77148-.67871-2.1045 0-1.333.67871-2.10448.68359-.77637 1.84082-.77637 1.14746 0 1.83105.77637.6836.77148.6836 2.10449zm-.94727 0q0-1.05957-.41504-1.57227-.41504-.51758-1.15234-.51758-.74707 0-1.16211.51758-.41016.5127-.41016 1.57227 0 1.02539.41504 1.55762.41504.52734 1.15723.52734.73242 0 1.14746-.52246.41992-.52735.41992-1.5625zm3.2959 2.7246h-.91797v-7.59765h.91797zm6.33789 0h-.91797v-.60546q-.46387.36621-.88867.56152-.42481.19531-.9375.19531-.85938 0-1.33789-.52246-.47852-.52734-.47852-1.54296V39.7539h.91797v3.10546q0 .41504.0391.7129.0391.29296.16602.50293.13183.21484.3418.3125.20996.09766.61035.09766.35644 0 .77636-.18555.42481-.18555.79102-.47363V39.7539h.91797zm4.63867-.04882q-.25879.06836-.56641.1123-.30273.04395-.54199.04395-.83496 0-1.26953-.44922-.43457-.44921-.43457-1.44043v-2.90039h-.62012v-.77148h.62012v-1.56738h.91797v1.56738h1.89453v.77148h-1.89453v2.48536q0 .42968.0195.67382.0195.23926.13672.44922.10742.19531.29297.28809.19043.08789.57617.08789.22461 0 .46875-.06348.24414-.06836.35156-.1123h.0488zm2.09473-6.31836h-1.03516v-.95215h1.03516zm-.0586 6.36719h-.91797v-5.4541h.91797zm6.46485-2.72461q0 1.333-.6836 2.10449-.68359.77148-1.83105.77148-1.15723 0-1.84082-.77148-.67871-.77149-.67871-2.1045 0-1.333.67871-2.10449.68359-.77636 1.84082-.77636 1.14746 0 1.83105.77636.6836.77149.6836 2.1045zm-.94727 0q0-1.05957-.41504-1.57227-.41504-.51758-1.15234-.51758-.74707 0-1.16211.51758-.41016.5127-.41016 1.57227 0 1.02539.41504 1.55761.41504.52735 1.15723.52735.73242 0 1.14746-.52246.41992-.52735.41992-1.5625zm6.92871 2.7246h-.91797v-3.10546q0-.37598-.0439-.70313-.0439-.33203-.16113-.51758-.12207-.20507-.35157-.30273-.22949-.10254-.5957-.10254-.37598 0-.78613.18555-.41016.18554-.78614.47363V45.208h-.91796v-5.4541h.91796v.60547q.42969-.35645.88868-.55664.45898-.2002.94238-.2002.88379 0 1.34766.53223.46386.53222.46386 1.5332zm5.66406-1.57226q0 .74707-.62011 1.22559-.61524.47851-1.68457.47851-.60547 0-1.11328-.1416-.50293-.14648-.84473-.31738v-1.03028h.0488q.43457.32715.96679.52246.53223.19043 1.02051.19043.60547 0 .94727-.1953.34179-.19532.34179-.61524 0-.32227-.18554-.48828-.18555-.16602-.71289-.2832-.19532-.04396-.5127-.10255-.3125-.05859-.57129-.12695-.71777-.19043-1.0205-.55664-.29786-.3711-.29786-.9082 0-.33692.13672-.63477.1416-.29785.42481-.53222.27343-.2295.69336-.36133.4248-.13672.94726-.13672.48828 0 .98633.12207.50293.11719.83496.28808v.98145h-.0488q-.35156-.25879-.85449-.43457-.50293-.18066-.98633-.18066-.50293 0-.84961.1953-.34668.19044-.34668.5713 0 .33691.20996.50781.20508.1709.66407.27832.2539.05859.5664.11719.31739.05859.52735.10742.63965.14648.98633.50293.34667.36133.34667.95703zm7.76368-5.13672h-.0488q-.15137-.04395-.39551-.08789-.24414-.04883-.42969-.04883-.59082 0-.85937.26367-.26367.2588-.26367.94239v.18554h1.65527v.77149h-1.62598V45.208h-.91797v-4.68262h-.62011v-.77148h.62011v-.18067q0-.97168.4834-1.48925.4834-.52246 1.39649-.52246.30761 0 .55176.0293.24902.0293.4541.06836zm5.22949 3.98438q0 1.333-.68359 2.10449-.6836.77148-1.83106.77148-1.15723 0-1.84082-.77148-.67871-.77149-.67871-2.1045 0-1.333.67871-2.10449.68359-.77636 1.84082-.77636 1.14746 0 1.83106.77636.68359.77149.68359 2.1045zm-.94727 0q0-1.05957-.41504-1.57227-.41503-.51758-1.15234-.51758-.74707 0-1.16211.51758-.41016.5127-.41016 1.57227 0 1.02539.41504 1.55761.41504.52735 1.15723.52735.73242 0 1.14746-.52246.41992-.52735.41992-1.5625zm5.77149-1.72852h-.0488q-.20508-.04883-.40039-.06836-.19043-.0244-.4541-.0244-.42481 0-.82032.19042-.3955.18555-.76171.4834V45.208h-.91797v-5.4541h.91797v.80566q.54687-.43945.96191-.62012.41992-.18554.85449-.18554.23926 0 .34668.01465.10742.0098.32227.04395zm10.5957.8252q0 .9912-.43457 1.79687-.42969.80567-1.14746 1.25-.49805.30762-1.11328.44434-.61035.13672-1.61133.13672h-1.83594v-7.27051h1.81641q1.06445 0 1.68945.15625.62988.15137 1.06446.41992.74218.46387 1.15722 1.23535.41504.77149.41504 1.83106zm-1.01074-.01465q0-.8545-.29785-1.44043-.29785-.58594-.88867-.92286-.42969-.24414-.91309-.3369-.4834-.09767-1.15723-.09767h-.9082v5.61035h.9082q.69824 0 1.21582-.10254.52246-.10254.95703-.38086.542-.34668.81055-.91308.27344-.5664.27344-1.41602zm7.2998.87402q0 .6836-.19531 1.23047-.19043.54687-.51758.91797-.34668.38574-.76172.58105-.41504.19043-.91308.19043-.46387 0-.81055-.1123-.34668-.10743-.68359-.29297l-.0586.2539h-.85937v-7.59765h.91797v2.71484q.38574-.31738.82031-.51758.43457-.20508.97656-.20508.9668 0 1.52344.7422.56152.74218.56152 2.09472zm-.94726.0244q0-.97655-.32227-1.47948-.32226-.50782-1.04004-.50782-.40039 0-.81054.17578-.41016.1709-.76172.44434v3.125q.39062.17578.66894.24414.28321.06836.63965.06836.76172 0 1.19141-.49805.43457-.50293.43457-1.57226zm7.18261 2.74415h-4.92187v-1.0205l1.02539-.87891q.51758-.43946.96191-.87403.9375-.9082 1.28418-1.44043.34668-.5371.34668-1.15723 0-.5664-.37597-.88378-.3711-.32227-1.04004-.32227-.44434 0-.96192.15625-.51757.15625-1.01074.47852h-.0488v-1.0254q.34668-.1709.92286-.3125.58105-.1416 1.12304-.1416 1.11817 0 1.75293.542.63477.5371.63477 1.45996 0 .41504-.10742.77636-.10254.35645-.30762.67871-.19043.30274-.44922.5957-.25391.29298-.62012.64942-.52246.5127-1.0791.9961-.55664.47851-1.04004.88867h3.91113zm8.00293-6.70899h-.0488q-.15137-.04395-.39551-.08789-.24414-.04883-.42969-.04883-.59082 0-.85937.26368-.26368.25879-.26368.94238v.18555h1.65528v.77148h-1.626V45.208h-.91797v-4.68262h-.62011v-.77148h.62011v-.18067q0-.97168.4834-1.48925.4834-.52246 1.39649-.52246.30761 0 .55175.0293.24903.0293.4541.06836zm5.2295 3.98438q0 1.333-.6836 2.1045-.68359.77148-1.83105.77148-1.15723 0-1.84082-.77149-.67871-.77148-.67871-2.10449 0-1.333.67871-2.1045.68359-.77636 1.84082-.77636 1.14746 0 1.83105.77637.6836.77148.6836 2.10449zm-.94727 0q0-1.05957-.41504-1.57227-.41504-.51757-1.15234-.51757-.74707 0-1.16211.51757-.41016.5127-.41016 1.57227 0 1.02539.41504 1.55762.41504.52734 1.15723.52734.73242 0 1.14746-.52246.41992-.52734.41992-1.5625zm5.77149-1.72852h-.0488q-.20508-.04883-.40039-.06836-.19043-.0244-.4541-.0244-.42481 0-.82032.19042-.39551.18555-.76172.4834V45.208h-.91796v-5.4541h.91796v.80566q.54688-.43945.96192-.62012.41992-.18554.85449-.18554.23926 0 .34668.01465.10742.0098.32227.04395zm8.33496 4.45313h-4.4043v-.67871l3.17871-4.0088h-3.11035v-.7666h4.25293v.6543l-3.19336 4.02344h3.27637zm4.59472-7.59766l-3.50097 9.08203h-.84473l3.48633-9.08203zm6.73828 1.16211q.44434.48828.67872 1.1963.23925.708.23925 1.60644 0 .89843-.24414 1.61132-.23926.70801-.67383 1.18164-.44921.49317-1.06445.7422-.61035.24902-1.39648.24902-.7666 0-1.39649-.25391-.625-.2539-1.06445-.7373-.43945-.4834-.67871-1.18653-.23438-.70312-.23438-1.60644 0-.88868.23438-1.5918.23437-.708.68359-1.21094.42969-.47851 1.06446-.73242.63964-.2539 1.3916-.2539.78125 0 1.40136.25878.625.2539 1.05957.72754zm-.0879 2.80274q0-1.41602-.63476-2.18262-.63477-.77149-1.7334-.77149-1.1084 0-1.74316.77149-.62989.7666-.62989 2.18262 0 1.43066.64453 2.19238.64454.75683 1.72852.75683t1.72363-.75683q.64453-.76172.64453-2.19238zm7.82227 1.55761q0 .4248-.2002.83985-.19531.41504-.55175.70312-.39063.3125-.91309.48828-.51758.17578-1.25.17578-.78613 0-1.41602-.14648-.625-.14648-1.27441-.43457v-1.21094h.0684q.55176.45899 1.27441.70801.72266.24902 1.35743.24902.89843 0 1.39648-.33691.50293-.33691.50293-.89844 0-.4834-.23926-.71289-.23437-.22949-.71777-.35644-.36621-.09766-.7959-.16114-.4248-.06348-.90332-.16113-.9668-.20508-1.43555-.69824-.46386-.49805-.46386-1.29395 0-.91308.77148-1.49414.77148-.58594 1.95801-.58594.7666 0 1.40625.14649.63965.14648 1.13281.36133v1.14258h-.0684q-.41504-.35157-1.09375-.58106-.67383-.23437-1.38183-.23437-.77637 0-1.25.32226-.46875.32227-.46875.83008 0 .4541.23437.7129.23438.25878.8252.3955.3125.06836.88867.16601.57617.09766.97656.2002.81055.21484 1.2207.64941.41016.43457.41016 1.21582z" text-anchor="middle"/></svg>