<svg xmlns="http://www.w3.org/2000/svg" role="img" xmlns:xlink="http://www.w3.org/1999/xlink" viewBox="-9.54 -9.29 249.08 61.08"><title>Data Content Discovery logo</title><path d="M232.506 4.298c-1.06 0-1.93-.86-1.93-1.92s.87-1.93 1.93-1.93 1.93.87 1.93 1.93-.87 1.92-1.93 1.92m0-4.32c-1.32 0-2.4 1.08-2.4 2.4 0 1.32 1.08 2.4 2.4 2.4 1.32 0 2.4-1.08 2.4-2.4 0-1.32-1.08-2.4-2.4-2.4"/><path d="M232.666 2.278l-.51.01-.01-.62h.51c.19-.01.34.11.34.3.01.19-.14.31-.33.31m.83-.32c-.01-.42-.3-.72-.77-.72l-1.07.02.03 2.26h.49l-.01-.81h.35l.46.8.55-.01-.52-.86c.24-.06.49-.28.49-.68M47.0201 18.3885h-5.999V4.5545h5.835c1.574 0 2.557 1.016 2.557 2.393 0 1.377-.983 2.36-2.557 2.36H40.186v4h6.8341c1.836 0 2.819 1.18 2.819 2.556 0 1.574-1.049 2.525-2.819 2.525m3.376-7.245c2.066-.426 3.771-2.262 3.771-5.015 0-2.918-2.131-5.573-6.295-5.573h-11.506v21.865h11.867c4.163 0 6.359-2.623 6.359-5.901 0-2.754-1.868-5.015-4.196-5.376m17.8225-.5902H63.186v4.098h3.5576l4.294 7.769h5.343l-4.917-8.327c2.361-.557 4.786-2.622 4.786-6.49m0 0c0-4.065-2.786-7.048-7.343-7.048h-10.228v21.865h4.655V4.6533h4.885c1.869 0 3.278 1.114 3.278 2.95s-1.409 2.95-3.278 2.95m43.4206 4.0652l3.409-9.408 3.41 9.408zm.492-14.063l-8.458 21.865h5.31l1.377-3.704h9.376l1.344 3.704h5.311l-8.425-21.865zm26.9039 17.7671h-3.967v-13.67h3.967c4.491 0 6.851 2.983 6.851 6.852 0 3.704-2.524 6.818-6.851 6.818m0-17.767h-8.622v21.865h8.622c6.851 0 11.604-4.327 11.604-10.916s-4.753-10.949-11.604-10.949M221.162.5511l-5.734 9.27-5.734-9.27h-5.146v21.869h4.656V8.1271l5.012 7.622c.574.871 1.851.871 2.424 0l5.013-7.622v14.293h4.656V.5511z"/><path id="a" d="M91.0113 18.5521c-3.871 0-7.008-3.138-7.008-7.008 0-3.871 3.137-7.009 7.008-7.009 3.87 0 7.008 3.138 7.008 7.009 0 3.87-3.138 7.008-7.008 7.008m0-18.536c-6.367 0-11.528 5.161-11.528 11.528 0 6.366 5.161 11.527 11.528 11.527 6.366 0 11.528-5.161 11.528-11.527 0-6.367-5.162-11.528-11.528-11.528"/><path d="M171.5895 14.9349c-1.195 2.156-3.492 3.617-6.132 3.617-3.87 0-7.008-3.138-7.008-7.008 0-3.871 3.138-7.008 7.008-7.008 2.618 0 4.897 1.438 6.1 3.565l3.27-3.269c-2.092-2.915-5.508-4.816-9.37-4.816-6.367 0-11.527 5.161-11.527 11.528 0 6.366 5.16 11.528 11.527 11.528 3.883 0 7.316-1.922 9.404-4.865z"/><use transform="translate(98.718)" xlink:href="#a"/><ellipse cx="11.706" cy="11.705" fill="#cc092f" rx="16.236" ry="16.235"/><path fill="#fff" d="M26.0113 16.0912c-1.857-.74-3.557-.492-5.261.541 0 0-.621.379-.807.496-.794.498-1.543.97-2.263.97-.687 0-1.363-.184-1.649-1.513-.446-2.073-1.534-7.167-2.009-9.69-.279-1.483-.432-2.282-.591-2.825-.28-.954-.792-1.473-1.519-1.556 0 0-.114-.016-.207-.016-.092 0-.218.018-.218.018-.72.086-1.229.605-1.507 1.554-.159.543-.312 1.342-.591 2.825-.475 2.523-1.563 7.617-2.009 9.69-.286 1.329-.962 1.513-1.649 1.513-.72 0-1.469-.472-2.263-.97-.186-.117-.808-.496-.808-.496-1.703-1.033-3.404-1.281-5.26-.541-.401.16-.79596.33918-1.17196.52018.257.806.57693 1.59925.94993 2.34425.411-.202.84203-.40243 1.28203-.53243.634-.187 1.284-.197 1.914.014.612.205 1.157.568 1.7.909 1.023.643 2.182 1.372 3.657 1.372 2.186 0 3.72-1.305 4.21-3.581.38-1.764 1.222-5.702 1.763-8.418 0 0 1.386 6.654 1.765 8.418.49 2.276 2.025 3.581 4.211 3.581 1.475 0 2.634-.729 3.657-1.372.543-.341 1.088-.704 1.7-.909.629-.211 1.28-.201 1.914-.014.44.13.87039.33065 1.28139.53265.374-.745.69309-1.53862.95009-2.34462-.376-.181-.77048-.36003-1.17148-.52003"/><path d="M67.179 41.58007q0 .99121-.43456 1.79688-.42969.80566-1.14746 1.25-.49805.30761-1.11328.44433-.61036.13672-1.61133.13672h-1.83594v-7.2705h1.8164q1.06446 0 1.68946.15624.62988.15137 1.06445.41992.74219.46387 1.15723 1.23536.41504.77148.41504 1.83105zm-1.01073-.01465q0-.8545-.29786-1.44043-.29785-.58593-.88867-.92285-.42969-.24414-.91308-.33691-.4834-.09766-1.15723-.09766h-.9082v5.61035h.9082q.69824 0 1.21582-.10254.52246-.10254.95703-.38086.542-.34668.81055-.91308.27344-.5664.27344-1.41602zm6.73828 3.64258h-.91309v-.58105q-.12207.083-.33203.23437-.20508.14649-.40039.23438-.2295.1123-.52734.18554-.29786.07813-.69825.07813-.7373 0-1.25-.48828t-.5127-1.24512q0-.62011.26368-1.00097.26855-.38574.76172-.60547.49805-.21973 1.19629-.29785.69824-.07813 1.49902-.11719v-.1416q0-.3125-.1123-.51758-.10743-.20508-.3125-.32227-.19532-.1123-.46875-.15136-.27344-.03906-.5713-.03906-.36132 0-.80566.09766-.44433.09277-.91796.27343h-.04884v-.93261q.26856-.07324.77637-.16114.50781-.08789 1.00098-.08789.57617 0 1.00098.09766.42968.09277.74218.32227.30762.2246.46875.58105.16114.35645.16114.8838zm-.91309-1.34277v-1.51856q-.41992.02441-.9912.07324-.56642.04883-.89845.1416-.3955.1123-.63965.35157-.24414.23437-.24414.64941 0 .46875.2832.708.28321.23438.86426.23438.4834 0 .8838-.18554.40039-.19043.74218-.4541zm5.5127 1.29394q-.2588.06836-.5664.1123-.30274.04396-.542.04396-.83496 0-1.26953-.44922t-.43457-1.44043v-2.9004h-.62012v-.77148h.62012v-1.56738h.91797v1.56738h1.89453v.77148h-1.89453v2.48535q0 .4297.01953.67383.01953.23926.13671.44922.10743.19531.29297.28809.19043.08789.57617.08789.22461 0 .46875-.06348.24415-.06836.35157-.1123h.04883zm5.34668.04883h-.91309v-.58105q-.12207.083-.33203.23437-.20508.14649-.4004.23438-.22948.1123-.52734.18554-.29785.07813-.69824.07813-.7373 0-1.25-.48828t-.5127-1.24511q0-.62012.26368-1.00098.26855-.38574.76172-.60547.49805-.21973 1.19629-.29785.69824-.07813 1.49902-.11719v-.1416q0-.3125-.1123-.51758-.10743-.20508-.3125-.32226-.19532-.1123-.46875-.15137-.27344-.03906-.5713-.03906-.36132 0-.80566.09766-.44433.09277-.91797.27344h-.04883v-.93262q.26856-.07324.77637-.16113.50781-.0879 1.00098-.0879.57617 0 1.00097.09767.4297.09277.7422.32226.3076.22461.46874.58106.16114.35644.16114.88378zm-.91309-1.34277v-1.51856q-.41992.02441-.99121.07324-.5664.04883-.89844.1416-.3955.11231-.63965.35157-.24414.23437-.24414.64941 0 .46875.2832.70801.2832.23438.86426.23438.4834 0 .8838-.18555.40038-.19043.74218-.4541zm11.88477.81543q-.26856.11719-.48829.21972-.21484.10254-.5664.21485-.29785.09277-.64942.15625-.34668.06836-.7666.06836-.79101 0-1.44043-.21973-.64453-.2246-1.12304-.69824-.46875-.46387-.73243-1.17676-.26367-.71777-.26367-1.66504 0-.89843.2539-1.60644.25391-.70801.73243-1.1963.46387-.47362 1.11816-.72265.65918-.24902 1.45997-.24902.58593 0 1.16699.1416.58594.1416 1.29883.49805v1.14746h-.07324q-.60059-.50293-1.19141-.73242-.59082-.2295-1.26465-.2295-.55176 0-.9961.18067-.43945.17578-.78613.55176-.3369.3662-.52734.92773-.18555.55664-.18555 1.28906 0 .7666.20508 1.31836.20996.55176.53711.89844.3418.36133.7959.53711.45898.1709.9668.1709.69824 0 1.3086-.23926.61034-.23926 1.14257-.71777h.06836zm5.94238-2.19727q0 1.33301-.6836 2.1045-.68359.77148-1.83105.77148-1.15723 0-1.84082-.77148-.67871-.77149-.67871-2.1045 0-1.333.67871-2.10449.6836-.77637 1.84082-.77637 1.14746 0 1.83105.77637.6836.77148.6836 2.1045zm-.94727 0q0-1.05957-.41504-1.57226-.41503-.51758-1.15234-.51758-.74707 0-1.1621.51758-.41016.5127-.41016 1.57226 0 1.0254.41503 1.55762.41504.52734 1.15723.52734.73242 0 1.14746-.52246.41992-.52734.41992-1.5625zm6.92871 2.72461h-.91796v-3.10547q0-.37598-.044-.70312-.0439-.33204-.16113-.51758-.12207-.20508-.35156-.30274-.2295-.10254-.59571-.10254-.37597 0-.78613.18555-.41016.18555-.78613.47363V45.208h-.91797v-5.4541h.91797v.60547q.42968-.35645.88867-.55664.45898-.2002.94238-.2002.88379 0 1.34766.53223.46386.53222.46386 1.5332zm4.59961-.04883q-.25879.06836-.5664.1123-.30274.04395-.54199.04395-.83497 0-1.26954-.44921-.43457-.44922-.43457-1.44043v-2.9004h-.62011v-.77148h.62011v-1.56738h.91797v1.56738h1.89453v.77149h-1.89453v2.48535q0 .42968.0195.67383.0195.23925.13672.44921.10742.19532.29297.28809.19043.08789.57617.08789.22461 0 .46875-.06348.24414-.06836.35157-.1123h.0488zm5.67383-2.583h-4.01855q0 .50292.15136.8789.15137.3711.41504.61035.25391.23437.60059.35156.35156.11719.77148.11719.55664 0 1.11817-.21973.5664-.2246.80566-.43945h.0488v1.00098q-.46387.1953-.94727.32714-.48339.13184-1.01562.13184-1.35742 0-2.11914-.73242-.76172-.7373-.76172-2.08984 0-1.3379.72754-2.12403.73242-.78613 1.92383-.78613 1.10351 0 1.69922.64453.60058.64453.60058 1.83105zm-.89355-.70313q-.005-.72266-.36621-1.11817-.35645-.3955-1.08887-.3955-.73731 0-1.17676.43457-.43457.43457-.49316 1.0791zm6.8457 3.33496h-.91797v-3.10547q0-.37598-.0439-.70313-.044-.33203-.16114-.51757-.12207-.20508-.35156-.30274-.22949-.10254-.5957-.10254-.37598 0-.78613.18555-.41016.18555-.78614.47363V45.208h-.91797v-5.4541h.91797v.60547q.42969-.35645.88867-.55664.45899-.2002.94239-.2002.88379 0 1.34765.53223.46387.53222.46387 1.5332zm4.59961-.04883q-.25879.06836-.56641.1123-.30273.04395-.54199.04395-.83496 0-1.26953-.44922-.43457-.44921-.43457-1.44043v-2.90039h-.62012v-.77148h.62012v-1.56738h.91797v1.56738h1.89453v.77148h-1.89453v2.48536q0 .42968.0195.67382.0195.23926.13672.44922.10742.19531.29297.28809.19043.08789.57617.08789.22461 0 .46875-.06348.24414-.06836.35156-.1123h.0488zm10.83984-3.5791q0 .9912-.43457 1.79687-.42968.80567-1.14746 1.25-.49804.30762-1.11328.44434-.61035.13672-1.61133.13672h-1.83593v-7.27051h1.8164q1.06445 0 1.68945.15625.62989.15137 1.06446.41992.74219.46387 1.15722 1.23535.41504.77149.41504 1.83106zm-1.01074-.01465q0-.8545-.29785-1.44043-.29785-.58594-.88867-.92286-.42969-.24414-.91309-.3369-.4834-.09767-1.15722-.09767h-.90821v5.61035h.90821q.69824 0 1.21582-.10254.52246-.10254.95703-.38086.54199-.34668.81054-.91308.27344-.5664.27344-1.41602zm3.48633-2.72461h-1.03516v-.95215h1.03516zm-.0586 6.36718h-.91797v-5.4541h.91797zm5.71289-1.57226q0 .74707-.62012 1.22558-.61524.47852-1.68457.47852-.60547 0-1.11328-.1416-.50293-.14649-.84473-.31738v-1.03028h.0488q.43457.32715.9668.52246.53222.19043 1.0205.19043.60547 0 .94727-.19531t.3418-.61523q0-.32227-.18555-.48829-.18555-.16601-.71289-.2832-.19531-.04395-.5127-.10254-.3125-.05859-.57129-.12695-.71777-.19043-1.0205-.55664-.29785-.3711-.29785-.9082 0-.33692.13671-.63477.14161-.29785.42481-.53223.27344-.22949.69336-.36133.4248-.13671.94726-.13671.48828 0 .98633.12207.50293.11718.83496.28808v.98145h-.0488q-.35156-.2588-.85449-.43457-.50293-.18067-.98633-.18067-.50293 0-.84961.19532-.34667.19043-.34667.57128 0 .33692.20996.50782.20507.1709.66406.27832.2539.05859.5664.11719.31739.05859.52735.10742.63965.14648.98633.50293.34668.36132.34668.95703zm5.34668 1.23047q-.45899.21972-.87403.3418-.41015.12206-.87402.12206-.59082 0-1.08399-.1709-.49316-.17578-.84472-.52734-.35645-.35156-.55176-.88867-.19531-.5371-.19531-1.25488 0-1.3379.73242-2.09961.7373-.76172 1.94336-.76172.46875 0 .91797.13183.4541.13184.83008.32227v1.0205h-.0488q-.41992-.32714-.86914-.50292-.44434-.17578-.86914-.17578-.78125 0-1.23535.52734-.44922.52246-.44922 1.53809 0 .98633.43945 1.51855.44434.52735 1.24512.52735.27832 0 .5664-.07324.28809-.07324.51758-.19043.2002-.10254.37598-.21485.17578-.11719.27832-.2002h.0488zm5.82519-2.38282q0 1.33301-.68359 2.1045-.6836.77148-1.83106.77148-1.15722 0-1.84082-.77148-.67871-.77149-.67871-2.1045 0-1.333.67871-2.10449.6836-.77637 1.84082-.77637 1.14746 0 1.83106.77637.68359.77149.68359 2.1045zm-.94726 0q0-1.05957-.41504-1.57226-.41504-.51758-1.15235-.51758-.74707 0-1.16211.51758-.41015.5127-.41015 1.57226 0 1.0254.41504 1.55762.41504.52735 1.15722.52735.73242 0 1.14746-.52247.41993-.52734.41993-1.5625zm7.01171-2.72949l-2.20703 5.4541h-.92285l-2.19238-5.4541h.99609l1.68946 4.34082 1.6748-4.34082zm5.67872 2.82227h-4.01856q0 .50293.15137.8789.15137.3711.41504.61036.2539.23437.60058.35156.35157.11719.77149.11719.55664 0 1.11816-.21973.56641-.22461.80567-.43945h.0488v1.00097q-.46386.19531-.94726.32715-.4834.13184-1.01563.13184-1.35742 0-2.11914-.73243-.76172-.7373-.76172-2.08984 0-1.33789.72754-2.12402.73242-.78614 1.92383-.78614 1.10352 0 1.69922.64454.60059.64453.60059 1.83105zm-.89356-.70313q-.005-.72265-.36621-1.11816-.35645-.3955-1.08887-.3955-.7373 0-1.17676.43456-.43457.43457-.49316 1.0791zm5.68848-1.11816h-.0488q-.20508-.04883-.40039-.06836-.19043-.02441-.4541-.02441-.42481 0-.82032.19043-.3955.18554-.76171.4834V45.208h-.91797v-5.4541h.91797v.80566q.54687-.43945.96191-.62012.41992-.18554.85449-.18554.23926 0 .34668.01465.10742.0098.32227.04395zm5.58105-1.00098l-3.18359 7.46582h-.98145l1.01563-2.27539-2.17285-5.19043h.99609l1.6748 4.04297 1.68946-4.04297z" text-anchor="middle"/></svg>