<svg xmlns="http://www.w3.org/2000/svg" role="img" viewBox="11.22 0.22 1028.56 410.56"><title>Debian s390x Working Group logo</title><defs><clipPath id="clip-path"><path d="M115.33066 22.86833l-74.892 43.24a18.3191 18.3191 0 0 0-9.16 15.86531v86.476a18.31905 18.31905 0 0 0 9.16 15.86531l74.892 43.23869a18.32263 18.32263 0 0 0 18.32 0l74.89067-43.23869a18.31907 18.31907 0 0 0 9.16-15.86531v-86.476a18.31907 18.31907 0 0 0-9.16-15.86531l-74.89066-43.24a18.31376 18.31376 0 0 0-9.16-2.45467 18.31375 18.31375 0 0 0-9.16 2.45467" class="cls-1"/></clipPath><clipPath id="clip-path-2"><path d="M57.662 67.68h273.736v255.14H57.662z" class="cls-1"/></clipPath><style>.cls-1{fill:none}.cls-8{fill:#002a3a}.cls-9{fill:#0033a1}</style></defs><g id="g10"><g id="g12"><g id="g14"><g id="g20"><path id="path22" fill="#2b7de1" d="M208.542 66.10779L133.65 22.86912a18.3202 18.3202 0 0 0-18.31867 0l-74.892 43.23867a18.31912 18.31912 0 0 0-9.16 15.86533v86.47733a18.32076 18.32076 0 0 0 9.16 15.86534l74.892 43.23866a18.32015 18.32015 0 0 0 18.31867 0l74.892-43.23867a18.32075 18.32075 0 0 0 9.16-15.86534V81.97311a18.31912 18.31912 0 0 0-9.16-15.86532"/></g></g></g><g id="g24" clip-path="url(#clip-path)"><g id="g26"><g id="g32"><g id="g46" clip-path="url(#clip-path-2)"><g id="g44" opacity=".4"><g id="g42"><path id="path40" fill="#231f20" d="M331.25692 226.22122v-.05866l-.14-.08134v-.05866l-.14-.08134v-.05866l-.14-.08134v-.05866l-.14-.08134v-.05866l-.14-.08134v-.05866l-.14-.08134v-.05866l-.14-.08134v-.05866l-.14-.08134v-.05866l-.14-.08134v-.05866l-.14-.08134v-.05866l-.13867-.08134v-.05866l-.14-.08v-.06l-.14-.08v-.06l-.14-.08v-.06l-.14-.08v-.06l-.14-.08v-.06l-.14-.08v-.06l-.14-.08v-.06l-.14-.08v-.05867l-.14-.08133v-.05867l-.14-.08133v-.05867l-.14-.08133v-.05867l-.14-.08133v-.05867l-.14-.08133v-.05867l-.14-.08133v-.05867l-.14-.08133v-.05867l-.14-.08133v-.05867l-.14-.08133v-.05867l-.14-.08133v-.05867l-.14-.08133v-.05867l-.14-.08133v-.05867l-.13867-.08v-.06l-.14-.08133v-.05867l-.14-.08v-.06l-.14-.08v-.06l-.14-.08v-.06l-.14-.08v-.06l-.14-.08v-.06l-.14-.08v-.06l-.14-.08v-.05867l-.14-.08133v-.05867l-.14-.08133v-.05867l-.14-.08133v-.05867l-.14-.08133v-.05867l-.14-.08133v-.05867l-.14-.08133v-.05867l-.14-.08133v-.05867l-.14-.08133v-.05867l-.14-.08133v-.05867l-.14-.08133v-.05867l-.14-.08133v-.05867l-.14-.08133v-.05867l-.13866-.08v-.06l-.14-.08v-.06l-.14-.08v-.06l-.14-.08v-.06l-.14-.08v-.06l-.14-.08v-.06l-.14-.08v-.06l-.14-.08v-.06l-.14-.08v-.06l-.14-.08v-.05866l-.14-.08134v-.05866l-.14-.08134v-.05866l-.14-.08134v-.05866l-.14-.08134v-.05866l-.14-.08134v-.05866l-.14-.08134v-.05866l-.14-.08134v-.05866l-.14-.08134v-.05866l-.14-.08134v-.05866l-.14-.08134v-.05866l-.14-.08134v-.05866l-.14-.08134v-.05866l-.13867-.08v-.06l-.14-.08v-.06l-.14-.08v-.06l-.14-.08v-.06l-.14-.08v-.06l-.14-.08v-.06l-.14-.08v-.06l-.14-.08v-.05866l-.14-.08133v-.05867l-.14-.08133v-.05867l-.14-.08133v-.05867l-.14-.08133v-.05867l-.14-.08133v-.05867l-.14-.08133v-.05867l-.14-.08133v-.05867l-.14-.08133v-.05867l-.14-.08133v-.05867l-.14-.08133v-.05867l-.14-.08133v-.05867l-.14-.08133v-.05867l-.14-.08133v-.05867l-.13866-.08v-.06l-.14-.08v-.06l-.14-.08v-.06l-.14-.08v-.06l-.14-.08v-.06l-.14-.08v-.06l-.14-.08v-.06l-.14-.08v-.06l-.14-.08v-.05867l-.14-.08133v-.05867l-.14-.08133v-.05867l-.14-.08133v-.05867l-.14-.08133v-.05867l-.14-.08133v-.05867l-.14-.08133v-.05867l-.14-.08133v-.05867l-.14-.08133v-.05866l-.14-.08134v-.05866l-.14-.08134v-.05866l-.14-.08134v-.05866l-.14-.08134v-.05866l-.13866-.08v-.06l-.14-.08v-.06l-.14-.08v-.06l-.14-.08v-.06l-.14-.08v-.06l-.14-.08v-.06l-.14-.08v-.06l-.14-.08v-.06l-.14-.08v-.05866l-.14-.08134v-.05866l-.14-.08134v-.05866l-.14-.08134v-.05866l-.14-.08134v-.05866l-.14-.08133v-.05867l-.14-.08133v-.05867l-.14-.08133v-.05867l-.14-.08133v-.05867l-.14-.08133v-.05867l-.14-.08133v-.05867l-.14-.08133v-.05867l-.14-.08133v-.05867l-.14-.08133v-.05867l-.13867-.08v-.06l-.14-.08v-.06l-.14-.08v-.06l-.14-.08v-.06l-.14-.08v-.06l-.14-.08v-.06l-.14-.08v-.06l-.14-.08v-.05867l-.14-.08133v-.05867l-.14-.08133v-.05867l-.14-.08133v-.05867l-.14-.08133v-.05866l-.14-.08134v-.05866l-.14-.08134v-.05866l-.14-.08134v-.05866l-.14-.08134v-.05867l-.14-.08133v-.05867l-.14-.08133v-.05867l-.14-.08133v-.05867l-.14-.08134v-.05866l-.14-.08134v-.05867l-.13867-.08v-.06l-.14-.08v-.06l-.14-.08v-.06l-.14-.08v-.06l-.14-.08v-.06l-.14-.08v-.06l-.14-.08v-.06l-.14-.08v-.06l-.14-.08v-.05867l-.14-.08133v-.05867l-.14-.08133v-.05867l-.14-.08134v-.05866l-.14-.08134v-.05867l-.14-.08133v-.05867l-.14-.08133v-.05867l-.14-.08133v-.05867l-.14-.08134v-.05866l-.14-.08134v-.05866l-.14-.08134v-.05867l-.14-.08133v-.05867l-.14-.08133v-.05867l-.14-.08134v-.05866l-.13866-.08v-.06l-.14-.08v-.06l-.14-.08v-.06l-.14-.08v-.06l-.14-.08v-.06l-.14-.08v-.06l-.14-.08v-.06l-.14-.08v-.05867l-.14-.08133v-.05867l-.14-.08133v-.05867l-.14-.08133v-.05867l-.14-.08134v-.05863l-.14-.08134v-.05866l-.14-.08134v-.05867l-.14-.08133v-.05867l-.14-.08133v-.05867l-.14-.08133v-.05867l-.14-.08134v-.05866l-.14-.08134v-.05867l-.14-.08133v-.05867l-.14-.08133v-.05867l-.13867-.08v-.06l-.14-.08v-.06l-.14-.08v-.06l-.14-.08v-.06l-.14-.08v-.06l-.14-.08v-.06l-.14-.08v-.06l-.14-.08v-.05867l-.14-.08134v-.05866l-.14-.08134v-.05867l-.14-.08133v-.05867l-.14-.08133v-.05867l-.14-.08133v-.05867l-.14-.08134v-.05866l-.14-.08134v-.05867l-.14-.08133v-.05867l-.14-.08133v-.05867l-.14-.08133v-.05867l-.14-.08134v-.05866l-.14007-.0813v-.05867l-.14-.08133v-.05867l-.13866-.08v-.06l-.14-.08v-.06l-.14-.08v-.06l-.14-.08v-.06l-.14-.08v-.06l-.14-.08v-.06l-.14-.08v-.06l-.14-.08v-.06l-.14-.08v-.05866l-.14-.08134v-.05867l-.14-.08133v-.05867l-.14-.08133v-.05867l-.14-.08133v-.05867l-.14-.08134v-.05866l-.14-.08134v-.05866l-.14-.08134v-.05867l-.14-.08133v-.05867l-.14-.08133v-.05867l-.14-.08134v-.05866l-.14-.08134v-.05866l-.14-.08134v-.05867l-.14-.08133v-.05867l-.13867-.08v-.06l-.14-.08v-.06l-.14-.08v-.06l-.14-.08v-.06l-.14-.08v-.06l-.14-.08v-.06l-.14-.08v-.06l-.14-.08v-.05867l-.14-.08134v-.05866l-.14-.08134v-.05866l-.14-.08134v-.05867l-.14-.08133v-.05867l-.14-.08133v-.05867l-.14-.08133v-.05867l-.14-.08134v-.05866l-.14-.08134v-.05867l-.14-.08133v-.05867l-.14-.08133v-.05867l-.14-.08133v-.05867l-.14-.08134v-.05866l-.14-.08134v-.05867l-.13867-.08v-.06l-.14-.08v-.06l-.14-.08v-.06l-.14-.08v-.06l-.14-.08v-.06l-.14-.08v-.06l-.14-.08v-.06l-.14-.08v-.06l-.14-.08v-.05867l-.14-.08133v-.05867l-.14-.08133v-.05867l-.14-.08134v-.05866l-.14-.08134v-.05867l-.14-.08133v-.05867l-.14-.08133v-.05867l-.14-.08133v-.05867l-.14-.08134v-.05866l-.14-.08134v-.05866l-.14-.08134v-.05867l-.14-.08133v-.05867l-.14-.08133v-.05867l-.13866-.08v-.06l-.14-.08v-.06l-.14-.08v-.06l-.14-.08v-.06l-.14-.08v-.06l-.14-.08v-.06l-.14-.08v-.06l-.14-.08v-.06l-.14-.08v-.05866l-.14-.08134v-.05866l-.14-.08134v-.05867l-.14-.08133v-.05867l-.14-.08133v-.05867l-.14-.08133v-.05867l-.14-.08134v-.05866l-.14-.08134v-.05867l-.14-.08133v-.05867l-.14-.08133v-.05867l-.14-.08133v-.05867l-.14-.08133v-.05867l-.14-.08133v-.05867l-.14-.08133v-.05866l-.13867-.08v-.06l-.14-.08v-.06l-.14-.08v-.06l-.14-.08v-.06l-.14-.08v-.05994l-.14-.08v-.06l-.14-.08v-.06l-.14-.08v-.05866l-.14-.08134v-.05866l-.14-.08134v-.05866l-.14-.08133v-.05867l-.14-.08133v-.05867l-.14-.08133v-.05867l-.14006-.08134v-.05866l-.14-.08134v-.05866l-.14-.08134v-.05866l-.14-.08134v-.05866l-.14-.08134v-.05866l-.14-.08133v-.05867l-.14-.08133v-.05867l-.14-.08133v-.05867l-.13866-.08v-.06l-.14-.08v-.06l-.14-.08v-.06l-.14-.08v-.06l-.14-.08v-.06l-.14-.08v-.06l-.14-.08v-.06l-.14-.08v-.06l-.14-.08v-.05866l-.14-.08133v-.05867l-.14-.08133v-.05867l-.14-.08133v-.05867l-.14-.08133v-.05867l-.14-.08133v-.05867l-.14-.08133v-.05867l-.14-.08133v-.05867l-.14-.08133v-.05867l-.14-.08133v-.05866l-.14-.08134v-.05866l-.14-.08134v-.05866l-.14-.08134v-.05866l-.13867-.08v-.06l-.14-.08v-.06l-.14-.08v-.06l-.14-.08v-.06l-.14-.08v-.06l-.14-.08v-.06l-.14-.08v-.06l-.14-.08v-.06l-.14-.08v-.05866l-.14-.08134v-.05866l-.14-.08134v-.05866l-.14-.08134v-.05866l-.14-.08134v-.05866l-.14-.08134v-.05866l-.14-.08134v-.05866l-.14-.08134v-.05866l-.14-.08133v-.05867l-.14-.08133v-.05867l-.14-.08133v-.05867l-.14-.08133v-.05867l-.14-.08133v-.05867l-.14-.08v-.06l-.13866-.08v-.06l-.14-.08v-.06l-.14-.08v-.06l-.14-.08v-.06l-.14-.08v-.06l-.14-.08v-.06l-.14-.08v-.06l-.14-.08v-.05867l-.14-.08133v-.05867l-.14-.08133v-.05867l-.14-.08133v-.05867l-.14-.08133v-.05867l-.14-.08133v-.05867l-.14-.08133v-.05867l-.14-.08133v-.05866l-.14-.08134v-.05866l-.14-.08134v-.05866l-.14-.08134v-.05866l-.14-.08134v-.05866l-.14-.08134v-.05866l-.14-.08v-.06l-.13867-.08v-.06l-.14-.08v-.06l-.14-.08v-.06l-.14-.08v-.06l-.14-.08v-.06l-.14-.08v-.06l-.14-.08v-.05866l-.14-.08134v-.06l-.14-.08v-.05866l-.14-.08134v-.05866l-.14-.08134v-.05866l-.14-.08134v-.05866l-.14-.08134v-.05866l-.14-.08133v-.05867l-.14-.08133v-.05867l-.14-.08133v-.05867l-.14-.08133v-.05867l-.14-.08133v-.05867l-.14-.08133v-.05867l-.14-.08133v-.05867l-.13867-.08133v-.05872l-.14-.08v-.06l-.14-.08v-.06l-.14-.08v-.06l-.14-.08v-.06l-.14-.08v-.06l-.14-.08v-.06l-.14-.08v-.06l-.14-.08v-.05867l-.14005-.08134v-.05866l-.14-.08134v-.05866l-.14-.08134v-.05866l-.14-.08134v-.05866l-.14-.08134v-.05866l-.14-.08133v-.05867l-.14-.08133v-.05867l-.14-.08133v-.05867l-.14-.08133v-.05867l-.14-.08133v-.05867l-.14-.08133v-.05867l-.14-.08133v-.05867l-.13866-.08v-.06l-.14-.08133v-.05866l-.14-.08v-.06l-.14-.08v-.06l-.14-.08v-.06l-.14-.08v-.06l-.14-.08v-.06l-.14-.08v-.06l-.14-.08v-.05867l-.14-.08133v-.05867l-.14-.08133v-.05867l-.14-.08133v-.05867l-.14-.08133v-.05867l-.14-.08133v-.05866l-.14-.08134v-.05866l-.14-.08134v-.05866l-.14-.08134v-.05866l-.14-.08134v-.05866l-.14-.08134v-.05866l-.14-.08134v-.05866l-.14-.08134v-.05866l-.14-.08134v-.05866l-.13867-.08v-.06l-.14-.08v-.06l-.14-.08v-.06l-.14-.08v-.06l-.14-.08v-.06l-.14-.08v-.06l-.14-.08v-.06l-.14-.08v-.06l-.14-.08v-.05866l-.14-.08134v-.05866l-.14-.08134v-.05866l-.14-.08134v-.05866l-.14-.08133v-.05867l-.14-.08133v-.05867l-.14-.08133v-.05867l-.14-.08133v-.05867l-.14-.08133v-.05867l-.14-.08133v-.05867l-.14-.08133v-.05867l-.14-.08133v-.05867l-.14-.08133v-.05866l-.13867-.08v-.06l-.14-.08v-.06l-.14-.08v-.06l-.14-.08v-.06l-.14-.08v-.06l-.14-.08v-.06l-.14-.08v-.06l-.14-.08v-.06l-.14-.08v-.05867l-.14-.08133v-.05867l-.14-.08133v-.05867l-.14-.08133v-.05866l-.14-.08134v-.05866l-.14-.08134v-.05866l-.14-.08134v-.05866l-.14-.08134v-.05866l-.14-.08134v-.05866l-.14-.08134v-.05866l-.14-.08134v-.05866l-.14-.08133v-.05867l-.14-.08133v-.05867l-.13866-.08133v-.05867l-.14-.08v-.06l-.14-.08v-.06l-.14-.08v-.06l-.14-.08v-.06l-.14-.08v-.06l-.14-.08v-.06l-.14-.08v-.06l-.14-.08v-.05866l-.14-.08134v-.05866l-.14-.08133v-.05867l-.14-.08133v-.05867l-.14-.08133v-.05867l-.14-.08133v-.05867l-.14-.08133v-.05867l-.14-.08133v-.05867l-.14-.08133v-.05872l-.14-.08134v-.05866l-.14-.08134v-.05866l-.14-.08133v-.05867l-.14-.08133v-.05867l-.14-.08133v-.05867l-.13867-.08v-.06l-.14-.08v-.06l-.14-.08v-.06l-.14005-.08v-.06l-.14-.08v-.06l-.14-.08v-.06l-.14-.08v-.06l-.14-.08v-.05866l-.14-.08134v-.05866l-.14-.08133v-.05867l-.14-.08133v-.05867l-.14-.08133v-.05867l-.14-.08133v-.05867l-.14-.08133v-.05867l-.14-.08133v-.05867l-.14-.08133v-.05867l-.14-.08133v-.05867l-.14-.08133v-.05866l-.14-.08134v-.05866l-.14-.08134v-.05866l-.14-.08134v-.05866l-.13867-.08v-.06l-.14-.08v-.06l-.14-.08v-.06l-.14-.08v-.06l-.14-.08v-.06l-.14-.08v-.06l-.14-.08v-.06l-.14-.08v-.06l-.14-.08v-.05866l-.14-.08134v-.05866l-.14-.08134v-.05866l-.14-.08134v-.05866l-.14-.08134v-.05866l-.14-.08134v-.05866l-.14-.08134v-.05866l-.14-.08134v-.05866l-.14-.08133v-.05867l-.14-.08133v-.05867l-.14-.08133v-.05867l-.14-.08133v-.05867l-.14-.08133v-.05867l-.13866-.08v-.06l-.14-.08v-.06l-.14-.08v-.06l-.14-.08v-.06l-.14-.08v-.06l-.14-.08v-.06l-.14-.08v-.06l-.14-.08v-.06l-.14-.08v-.05867l-.14-.08133v-.05867l-.14-.08133v-.05867l-.14-.08133v-.05867l-.14-.08133v-.05867l-.14-.08133v-.05867l-.14-.08133v-.05867l-.14-.08133v-.05866l-.14-.08134v-.05866l-.14-.08134v-.05866l-.14-.08134v-.05866l-.14-.08134v-.05866l-.14-.08134v-.05866l-.14-.08134v-.05866l-.13867-.08v-.06l-.14-.08v-.06l-.14-.08v-.06l-.14-.08v-.06l-.14-.08v-.06l-.14-.08v-.06l-.14-.08v-.06l-.14-.08v-.05866l-.14-.08134v-.05866l-.14-.08134v-.05866l-.14-.08134v-.05866l-.14-.08134v-.05866l-.14-.08134v-.05866l-.14-.08133v-.05867l-.14-.08133v-.05867l-.14-.08133v-.05867l-.14-.08133v-.05867l-.14-.08133v-.05867l-.14-.08133v-.05867l-.14-.08133v-.05867l-.14-.08133v-.05867l-.13867-.08v-.06l-.14-.08v-.06l-.14-.08v-.06l-.14-.08v-.06l-.14-.08v-.06l-.14-.08v-.06l-.14-.08v-.06l-.14-.08v-.06l-.14-.08v-.05867l-.14-.08133v-.05866l-.14-.08133v-.05877l-.14-.08133v-.05866l-.14-.08133v-.05867l-.14-.08133v-.05866l-.14-.08133v-.05866l-.14-.08133v-.05867l-.14-.08133v-.05866l-.14-.08133v-.05867l-.14-.08133v-.05866l-.14-.08133v-.05867l-.14-.08133v-.05866l-.13866-.08v-.06l-.14-.08v-.06l-.14-.08v-.06l-.14-.08v-.06l-.14-.08v-.06l-.14-.08v-.06l-.14-.08v-.06l-.14-.08v-.06l-.14-.08v-.05867l-.14-.08133v-.05866l-.14-.08133v-.05866l-.14-.08133v-.05867l-.14-.08133v-.05866l-.14-.08133v-.05867l-.14-.08133v-.05866l-.14-.08133v-.05867l-.14-.08133v-.05866l-.14-.08133v-.05866l-.1399-.0815v-.05866l-.14-.08133v-.05867l-.14-.08133v-.05866l-.14-.08133v-.05866l-.13867-.08v-.06l-.14-.08v-.06l-.14-.08v-.06l-.14-.08v-.06l-.14-.08v-.06l-.14-.08v-.06l-.14-.08v-.06l-.14-.08v-.05844l-.14-.08133v-.05867l-.14-.08133v-.05867l-.14-.08132v-.05868l-.14-.08133v-.05867l-.14-.08133v-.05867l-.14-.08133v-.05867l-.14-.08133v-.05867l-.14-.08133v-.05867l-.14-.08133v-.05867l-.14-.08132v-.05868l-.14-.08133v-.05867l-.14-.08133v-.05867l-.14-.08133v-.05867l-.13866-.08v-.06l-.14-.08v-.06l-.14-.08v-.06l-.14-.08v-.06l-.14-.08v-.06l-.14-.08v-.06l-.14-.08v-.06l-.14-.08v-.06l-.14-.08v-.05867l-.14-.08133v-.05866l-.14-.08133v-.05867l-.14-.08133v-.05866l-.14-.08133v-.05867l-.14-.08132v-.05867l-.14-.08133v-.05866l-.14-.08133v-.05867l-.14-.08133v-.05866l-.14-.08133v-.05867l-.14-.08133v-.05866l-.14-.08133v-.05867l-.14-.08133v-.05866l-.13866-.08v-.06l-.14-.08v-.06l-.14-.08v-.06l-.14-.08v-.06l-.14-.08v-.06l-.14-.08v-.06l-.14-.08v-.06l-.14-.08v-.06l-.14-.08v-.05867l-.14-.08133v-.05866l-.14-.08133v-.05866l-.14-.08133v-.05867l-.14-.08133v-.05866l-.14-.08133v-.05867l-.14-.08133v-.05866l-.14-.08133v-.05867l-.14-.08133v-.05866l-.14-.08133v-.05866l-.14-.08133v-.05867l-.14-.08133v-.05866l-.14-.08133v-.05867l-.14-.08133v-.05866l-.13866-.08v-.06l-.14-.08v-.06l-.14-.08v-.06l-.14-.08v-.06l-.14-.08v-.06l-.14-.08v-.06l-.14-.08v-.06l-.14-.08v-.05866l-.14-.08133v-.05867l-.14-.08133v-.05866l-.14-.08133v-.05867l-.14-.08133v-.05866l-.14-.08133v-.05867l-.14-.08132v-.05867l-.14-.08133v-.05866l-.14-.08133v-.05867l-.14-.08133v-.05866l-.14-.08133v-.05867l-.14-.08133v-.05866l-.14-.08133v-.05867l-.14-.08132v-.05867l-.13866-.08v-.06l-.14-.08v-.06l-.14-.08v-.06l-.14-.08v-.06052l-.14-.08v-.06l-.14-.08v-.06l-.14-.08v-.06l-.14-.08v-.06l-.14-.08v-.05866l-.14-.08133v-.05867l-.14-.08133v-.05866l-.14-.08133v-.05867l-.1396-.08138v-.05866l-.14-.08133v-.05867l-.14-.08133v-.05866l-.14-.08133v-.05867l-.14-.08132v-.05867l-.14-.08133v-.05866l-.14-.08133v-.05867l-.14-.08133v-.05866l-.14-.08133v-.05867l-.14-.08133v-.05866l-.13866-.08v-.06l-.14-.08v-.06l-.14-.08v-.06l-.14-.08v-.06l-.14-.08v-.06l-.14-.08v-.06l-.14-.08v-.06l-.14-.08v-.05866l-.14-.08133v-.05867l-.14-.08133v-.05866l-.14-.08133v-.05867l-.14-.08133v-.05866l-.14-.08133v-.05866l-.14-.08133v-.05867l-.14-.08133v-.05866l-.14-.08133v-.05867l-.14-.08133v-.05866l-.14-.08133v-.05867l-.14-.08133v-.05866l-.14-.08133v-.05866l-.14-.08133v-.05867l-.13866-.08v-.06l-.14-.08v-.06l-.14-.08v-.06l-.14-.08v-.06l-.14-.08v-.06l-.14-.08v-.06l-.14-.08v-.06l-.14-.08v-.05866l-.14-.08133v-.05866l-.14-.08133v-.05867l-.14-.08133v-.05866l-.14-.08133v-.05867l-.14-.08133v-.05866l-.14-.08133v-.05867l-.14-.08133v-.05866l-.14-.08133v-.05866l-.14-.08133v-.05867l-.14-.08133v-.05866l-.14-.08133v-.05867l-.14-.08133v-.05866l-.14-.08133v-.05867l-.13867-.08v-.06l-.14-.08v-.06l-.14-.08v-.06l-.14-.08v-.06l-.14-.08v-.06l-.14-.08v-.06l-.14-.08v-.05866l-.14-.08133v-.06l-.14-.08v-.05866l-.14-.08133v-.05867l-.14-.08133v-.05866l-.14-.08133v-.05867l-.14-.08132v-.05867l-.14-.08133v-.05866l-.14-.08133v-.05867l-.14-.08133v-.05866l-.14-.08133v-.05867l-.14-.08133v-.05866l-.14-.08133v-.05867l-.14-.08132v-.05867l-.14-.08133v-.05866l-.14-.08v-.06l-.13866-.08v-.06l-.14-.08v-.06l-.14-.08v-.06l-.14-.08v-.06l-.14-.08v-.06l-.14-.08v-.06l-.14-.08v-.06l-.14-.08v-.0583l-.14-.08133v-.05867l-.14-.08133v-.05867l-.14-.08133v-.05867l-.14-.08133v-.05867l-.14-.08133v-.05866l-.14-.08133v-.05867l-.14-.08132v-.05867l-.14-.08133v-.05866l-.14-.08133v-.05867l-.14-.08133v-.05866l-.14-.08133v-.05919l-.14-.08v-.06l-.14-.08133v-.05866l-.13866-.08v-.06l-.14-.08v-.06l-.14-.08v-.06l-.14-.08v-.06l-.14-.08v-.06l-.14-.08v-.06005l-.1396-.08v-.05866l-.14-.08133v-.06l-.14-.08v-.05866l-.14-.08133v-.05867l-.14-.08133v-.05866l-.14-.08133v-.05866l-.14-.08133v-.05867l-.14-.08133v-.05866l-.14-.08133v-.05867l-.14-.08133v-.05853l-.14-.08133v-.05867l-.14-.08133v-.05867l-.14-.08133v-.05867l-.14-.08133v-.05867l-.13866-.08v-.06l-.14-.08v-.06l-.14-.08v-.06l-.14-.08v-.06l-.14-.08v-.06l-.14-.08v-.06l-.14-.08v-.06l-.14-.08v-.06l-.14-.08v-.05866l-.14-.08133v-.05867l-.14-.08133v-.05866l-.14-.08133v-.05867l-.14-.08133v-.05866l-.14-.08133v-.05867l-.14-.08133v-.05866l-.14-.08133v-.05866l-.14-.08133v-.05867l-.14-.08133v-.05866l-.14-.08133v-.05867l-.14-.08133v-.05866l-.14-.08133v-.05867l-.13866-.08v-.06l-.14-.08133v-.05866l-.14-.08v-.06l-.14-.08v-.06l-.14-.08v-.06l-.14-.08v-.06l-.14-.08v-.06l-.14-.08v-.06l-.14-.08v-.05866l-.14-.08133v-.05867l-.14-.08133v-.05866l-.14-.08133v-.05867l-.14-.08132v-.05867l-.14-.08133v-.05866l-.14-.08133v-.05867l-.14-.08133v-.05866l-.14-.08133v-.05867l-.14-.08133v-.05866l-.14-.08133v-.05867l-.14-.08132v-.05867l-.14-.08133v-.05866l-.14-.08133v-.05867l-.13866-.08v-.06l-.14-.08v-.06l-.14-.08v-.06l-.14-.08v-.06l-.14-.08v-.06l-.14-.08v-.06l-.14-.08v-.06l-.14-.08v-.05867l-.14-.08133v-.05866l-.14-.08133v-.05867l-.14-.08133v-.05866l-.14-.08133v-.05867l-.14-.08133v-.05866l-.14-.08133v-.05867l-.14-.08133v-.05855l-.14-.08133v-.05866l-.14-.08133v-.05867l-.14-.08133v-.05866l-.14-.08133v-.05867l-.14-.08133v-.05866l-.14-.08133v-.05867l-.13866-.08v-.06l-.14-.08v-.06l-.14-.08v-.06l-.14-.08v-.06l-.14-.08v-.06l-.14-.08v-.06l-.14-.08v-.06l-.14-.08v-.05867l-.14-.08133v-.05866l-.14-.08133v-.05867l-.14-.08133v-.05866l-.14-.08133v-.05866l-.14-.08133v-.05867l-.14-.08133v-.05866l-.14-.08133v-.05919l-.14-.08133v-.05866l-.14-.08133v-.05866l-.14-.08133v-.05867l-.14-.08133v-.05866l-.14-.08133v-.05867l-.14-.08133v-.05866l-.13866-.08v-.06l-.14-.08v-.06l-.1396-.08v-.06l-.14-.08v-.06l-.14-.08v-.06l-.14-.08v-.06l-.14-.08v-.06l-.14-.08v-.06l-.14-.08v-.05862l-.14-.08133v-.05866l-.14-.08133v-.05867l-.14-.08133v-.05866l-.14-.08133v-.05867l-.14-.08133v-.05866l-.14-.08133v-.05866l-.14-.08133v-.05867l-.14-.08133v-.05866l-.14-.08133v-.05867l-.14-.08133v-.05866l-.14-.08133v-.05867l-.14-.08133v-.05866l-.14-.08133v-.05866l-.13866-.08v-.06l-.14-.08v-.06l-.14-.08v-.06l-.14-.08v-.06l-.14-.08v-.06l-.14-.08v-.06l-.14-.08v-.06l-.14-.08v-.05867l-.14-.08133v-.05866l-.14-.08133v-.05867l-.14-.08132v-.05867l-.14-.08133v-.05866l-.14-.08133v-.05867l-.14-.08133v-.05866l-.14-.08133v-.05867l-.14-.08133v-.05862l-.14-.08133v-.05867l-.14-.08132v-.05867l-.14-.08133v-.05866l-.14-.08133v-.05867l-.14-.08133v-.05866l-.13866-.08v-.06l-.14-.08v-.06l-.14-.08v-.06l-.14-.08v-.06l-.14-.08v-.06l-.14-.08v-.06l-.14-.08v-.06l-.14-.08v-.06l-.14-.08v-.05867l-.14-.08133v-.05866l-.14-.08133v-.05867l-32.12-18.54532-31.34533 38.08532-.016-.01867-.01734.00934-.12266-.14933-.01733.01067-.12266-.15067-.01734.01068-.12266-.15067-.016.01067-.12266-.15066-.01733.01067-.12266-.15067-.01734.01067-.12266-.15066-.01733.01067-.12266-.15067-.01734.01067-.12266-.15066-.01733.01067-.12266-.15067-.01733.01068-.12266-.15067-.01734.01067-.12266-.14933-.01733.00934-.12266-.14934-.01734.00934-.12266-.14933-.01733.00934-.12266-.14933-.01734.00933-.12266-.14933-.01733.00934-.12266-.14933-.01733.00934-.12266-.14934-.01734.00934-.12266-.14933-.01733.00934-.12266-.14934-.01734.00934-.12266-.14933-.01733.00934-.12266-.14933-.01734.00933-.12266-.14933-.01733.00934-.12266-.14933-.016.01067-.124-.15067-.016.01067-.124-.15066-.016.01067-.12266-.15067-.01733.01068-.12266-.15067-.01734.01067-.12266-.15066-.01733.01067-.12266-.15067-.01734.01067-.12266-.15066-.01733.01067-.12266-.15067-.01734.01067-.12266-.14933-.01733.00934-.12266-.14933-.01733.00934-.12266-.14934-.01734.00934-.12266-.14933-.01733.00934-.12266-.14934-.01734.00934-.12266-.14933-.01733.00934-.12266-.14933-.01734.00933-.12266-.14933-.01733.00934-.12266-.14933-.01733.00934-.12266-.14934-.01734.00934-.12266-.14933-.01733.00934-.12266-.14934-.01734.00934-.12266-.14933-.01733.01067-.12266-.15066-.01734.01067-.12266-.15067-.016.01067-.12266-.15066-.01733.01067-.12266-.15067-.01734.01067-.12266-.15066-.01733.01067-.12266-.15067-.01733.01067-.12266-.15066-.01734.01067-.12266-.15066-.01733.01067-.12266-.14934-.01734.00934-.12266-.14933-.01733.00934-.12266-.14933-.01734.00933-.12266-.14933-.01733.00934-.12266-.14933-.01733.00933-.12266-.14933-.01734.00934-.12266-.14933-.01733.00934-.12266-.14934-.01734.00934-.12266-.14933-.01733.00934-.12266-.14934-.01734.00934-.12266-.14933-.01733.00934-.12266-.14933-.01733.00933-.12266-.14933-.01734.01067-.12266-.15066-.01733.01067-.12266-.15067-.016.01067-.124-.15066-.016.01067-.12266-.15067-.01733.01068-.12266-.15067-.01734.01067-.12266-.15066-.01733.01067-.12266-.15067-.01734.01067-.12266-.15066-.01733.01067-.12266-.15067-.01733.01067-.12266-.14933-.01734.00934-.12266-.14933-.01733.00934-.12266-.14934-.01734.00934-.12266-.14933-.01733.00934-.12266-.14934-.01734.00934-.12266-.14933-.01733.00934-.12266-.14933-.01733.00933-.12266-.14933-.01734.00934-.12266-.14933-.01733.00934-.12266-.14934-.01734.00934-.12266-.14933-.01733.00934-.12266-.14934-.01734.00934-.12266-.14933-.016.01067-.124-.15066-.016.01067-.124-.15067-.016.01067-.12266-.15066-.01733.01067-.12266-.15067-.01733.01067-.12267-.15066-.01733.01067-.12266-.15067-.01733.01068-.12266-.15067-.01734.01067-.12266-.15066-.01733.01067-.12266-.14934-.01734.00934-.12266-.14933-.01733.00934-.12266-.14933-.01733.00933-.12267-.14933-.01733.00934-.12266-.14933-.01733.00934-.12266-.14934-.01734.00934-.12266-.14933-.01733.00934-.12266-.14934-.01734.00934-.12266-.14933-.01733.00934-.12266-.14933-.01733.00933-.12267-.14933-.01733.00934-.12266-.14933-.01733.00934-.12266-.14934-.01734.01067-.12266-.15066-.01733.01067-.12266-.15067-.016.01068-.12266-.15067-.01734.01067-.12266-.15066-.01733.01067-.12266-.15067-.01734.01067-.12266-.15066-.01733.01067-.12266-.15067-.01734.01067-.12266-.15066-.01733.01067-.12266-.15067-.01733.01067-.12266-.14933-.01734.00934-.12266-.14933-.01733.00934-.12266-.14934-.01734.00934-.12266-.14933-.01733.00934-.12266-.14933-.01734.00933-.12266-.14933-.01733.00934-.12266-.14933-.01733.00933-.12266-.14933-.01734.00934-.12266-.14933-.01733.00934-.12266-.14934-.01734.00934-.12266-.14933-.01733.00934-.12266-.14933-.01734.00933-.12266-.14933-.01733.01067-.12266-.15066-.016.01067-.124-.15067-.016.01067-.12266-.15066-.01733.01067-.12266-.15067-.01733.01067-.12266-.15066-.01734.01067-.12266-.15067-.01733.01068-.12266-.15067-.01734.01067-.12266-.15066-.01733.01067-.12266-.14934-.01734.00934-.12266-.14933-.01733.00934-.12266-.14933-.01733.00933-.12266-.14933-.01734.00934-.12266-.14933-.01733.00934-.12266-.14934-.01734.00934-.12266-.14933-.01733.00934-.12266-.14934-.01734.00934-.12266-.14933-.01733.00934-.12266-.14933-.01733.00933-.12266-.14933-.01734.00934-.12266-.14933-.01733.00934-.12266-.14934-.016.01067-.124-.15066-.016.01067-.124-.15067-.016.01068-.12266-.15067-.01734.01067-.12266-.15066-.01733.01067-.12266-.15067-.01734.01067-.12266-.15066-.01733.01067-.12266-.15067-.01733.01067-.12266-.15066-.01734.01067-.12266-.14933-.01733.00934-.12266-.14934-.01734.00934-.12266-.14933-.01733.00934-.12266-.14934-.01734.00934-.12266-.14933-.01733.00934-.12266-.14933-.01733.00933-.12266-.14933-.01734.00934-.12266-.14933-.01733.00934-.12266-.14934-.01734.00934-.12266-.14933-.01733.00934-.12266-.14934-.01734.00934-.12266-.14933-.01733.00934-.12266-.14933-.01733.01067-.12266-.15067-.01734.01067-.12266-.15066-.016.01067-.12266-.15067-.01733.01067-.12266-.15066-.01734.01067-.12266-.15067-.01733.01068-.12266-.15067-.01734.01067-.12266-.15066-.01733.01067-.12266-.14934-.01734.00934-.12266-.15066-.01733.01067-.12266-.14933-.01733.00933-.12266-.14933-.01734.00934-.12266-.14933-.01733.00933-.12266-.14933-.01734.00934-.12266-.14933-.01733.00934-.12266-.14934-.01734.00934-.12266-.14933-.01733.00934-.12266-.14933-.01733.00933-.12266-.14933-.01734.00934-.12266-.14933-.01733.00933-.12266-.14933-.01734.00934-.12266-.14933-.01733.00934-.12391-.14924-.016.01067-.124-.15066-.016.01067-.124-.15066-.016.01067-.12266-.15067-.01734.01067-.12266-.15066-.01733.01067-.12264-.1507-.01733.01067-.12267-.15067-.01733.01067-.12266-.15067-.01733.01067-.12266-.15067-.01734.01067-.12266-.14933-.01733.00934-.12266-.14934-.01734.00934-.12266-.14933-.01733.00934-.12266-.14934-.01733.00934-.12267-.14933-.01733.00934-.12266-.14933-.01733.00933-.12266-.14933-.01734.00934-.12266-.14933-.01733.00934-.12266-.14934-.01734.00934-.12266-.14933-.01733.00934-.12266-.14934-.01733.00934-.12267-.14933-.01733.00934-.12266-.14933-.016.01067-.124-.15067-.016.01067-.124-.15066-.016.01067-.12266-.15067-.01733.01067-.12266-.15066-.01734.01067-.12266-.15067-.01733.01068-.12266-.15067-.01734.01067-.12266-.15066-.01733.01067-.12266-.14934-.01734.00934-.12266-.14933-.01733.00934-.12266-.14933-.01733.00933-.12266-.14933-.01734.00934-.12266-.14933-.01733.00934-.12266-.14934-.01734.00934-.12266-.14933-.01733.00934-.12266-.14934-.01734.00934-.12266-.14933-.01733.00934-.12266-.14933-.01733.00933-.12266-.14933-.01734.00934-.12266-.14933-.01733.00934-.12266-.14934-.016.00934-.124-.14933-.016.01067-.124-.15067-.016.01068-.124-.15067-.016.01067-.12266-.15066-.01733.01067-.12266-.15067-.01734.01067-.12266-.15066-.01733.01067-.12266-.15067-.01733.01067-.12266-.15066-.01734.01067-.12266-.15067-.01733.01068-.12266-.14934-.01734.00934-.12266-.14933-.01733.00934-.12266-.14934-.01734.00934-.12266-.14933-.01733.00934-.12266-.14933-.01733.00933-.12266-.14933-.01734.00934-.12266-.14933-.01733.00934-.12266-.14934-.01734.00934-.12266-.14933-.01733.00934-.12266-.14934-.01734.00934-.12266-.14933-.01733.00934-.12266-.14933-.01733.01067-.12266-.15067-.01734.00934-.12266-.14933-.016.01067-.124-.15067-.016.01067-.124-.15066-.016.01067-.12266-.15067-.01733.01067-.12266-.15066-.01734.01067-.12266-.15066-.01733.01067-.12266-.15067-.01734.01067-.12266-.15066-.01733.01067-.12266-.14934-.01733.00934-.12266-.14933-.01734.00934-.12266-.14933-.01733.00933-.12266-.14933-.01734.00934-.12266-.14933-.01733.00934-.12266-.14934-.01734.00934-.12266-.14933-32.1146 18.54133v77.16483l.14.08133v.05867l.14.08133v.05867l.14.08133v.05867l.14.08133v.05867l.14.08133v.05867l.14.08133v.05867l.14.08133v.05867l.14.08133v.05866l.14.08134v.05866l.14.08v.06l.14.08v.06l.14.08v.06l.14.08v.06l.14.08v.06l.14.08v.06l.14.08v.06l.14.08v.06l.14.08v.05867l.14.08133v.05867l.14.08133v.05866l.14.08134v.05866l.13867.08134v.05866l.14.08134v.05866l.14.08134v.05866l.14.08134v.05866l.14.08134v.05866l.14.08134v.05866l.14.08134v.05866l.14.08133v.05867l.14.08133v.05867l.14.08v.06l.14.08133v.05867l.14.08v.06l.14.08v.06l.14.08v.06l.14.08v.06l.14.08v.06l.14.08v.05866l.14.08134v.05866l.14.08134v.05866l.14.08133v.05867l.14.08133v.05867l.13867.08133v.05867l.14.08133v.05867l.14.08133v.05867l.14.08133v.05867l.14.08133v.05867l.14.08133v.05867l.14.08133v.05866l.14.08134v.05866l.14.08v.06l.14.08134v.05866l.14.08v.06l.14.08v.06l.14.08v.06l.14.08v.06l.14.08v.06l.14.08v.06l.14.08v.0587l.14.08134v.06l.14.08v.05866l.14.08133v.05867l.14.08133v.05867l.14.08134v.05866l.13867.08134v.05866l.14.08134v.05866l.14.08134v.05866l.14.08134v.05866l.14.08134v.05866l.14.08133v.05867l.14.08133v.05867l.14.08134v.05866l.14.08134v.05866l.14.08v.06l.14.08v.06l.14.08v.06l.14.08v.06l.14.08v.06l.14.08v.06l.14.08v.06l.14.08v.05867l.14.08133v.05866l.14.08134v.05866l.14.08134v.05866l.14.08134v.05866l.13867.08134v.05866l.14.08134v.05866l.14.08134v.05866l.14.08134v.05866l.14.08133v.05867l.14.08133v.05867l.14.08133v.05867l.14.08133v.05867l.14.08v.06l.14.08133v.05867l.14.08v.06l.14.08v.06l.14.08v.06l.14.08v.06l.14.08v.06l.14.08v.06l.14.08v.05867l.14.08133v.05867l.14.08133v.05867l.14.08133v.05867l.14.08133v.05867l.13867.08133v.05867l.14.08133v.05867l.14.08133v.05867l.14.08133v.05866l.14.08134v.05866l.14.08134v.05866l.14.08134v.05866l.14.08134v.05866l.14.08134v.05866l.14.08v.06l.14.08v.06l.14.08v.06l.14.08v.06l.14.08v.06l.14.08v.06l.14.08v.06l.14.08v.06l.14.08v.05866l.14.08134v.05866l.14.08134v.05866l.14.08134v.05866l.14.08134v.05866l.13867.08134v.05866l.14.08133v.05867l.14.08133v.05867l.14.08133v.05867l.14.08133v.05867l.14.08133v.05867l.14.08133v.05867l.14.08133v.05867l.14.08133v.05867l.14.08v.06l.14.08v.06l.14.08v.06l.14.08v.06l.14.08v.06l.14.08v.06l.14.08v.06l.14.08v.05867l.14.08133v.05867l.14.08133v.05867l.14.08134v.05866l.14.08134v.05867l.13867.08133v.05867l.14.08133v.05867l.14.08133v.05867l.14.08134v.05866l.14.08134v.05867l.14.08133v.05867l.14.08133v.05867l.14.08133v.05867l.14.08v.06l.14.08v.06l.14.08v.06l.14.08v.06l.14.08v.06l.14.08v.06l.14.08v.06l.14.08v.06l.14.08v.05868l.14.08134v.05866l.14.08134v.05866l.14.08134v.05867l.14.08133v.05866l.13868.08134v.05867l.14.08133v.05866l.14.08134v.05867l.14.08133v.05866l.14.08134v.05867l.14.08133v.05866l.14.08134v.05867l.14.08133v.05866l.14.08v.06l.14.08v.06l.14.08v.06l.14.08v.06l.14.08v.06l.14.08v.06l.14.08v.06l.14.08v.06l.14.08v.06l.14.08v.05867l.14.08133v.05867l.14.08134v.05866l.14.08134v.05867l.14.08133v.05867l.13867.08133v.05867l.14.08133v.05867l.14.08134v.05866l.14.08134v.05866l.14.08134v.05867l.14.08133v.05867l.14.08133v.05867l.14.08134v.05866l.14.08134v.05866l.14.08v.06l.14.08v.06l.14.08v.06l.14.08v.06l.14.08v.06l.14.08v.06l.14.08v.06l.14.08v.05867l.14.08133v.05867l.14.08133v.05867l.14.08134v.05866l.14.08134v.05866l.13868.08134v.05867l.14.08133v.05867l.14.08133v.05867l.14.08133v.05867l.14.08134v.05866l.14.08134v.05867l.14.08133v.05867l.14.08133v.05867l.14.08v.06l.14.08v.06l.14.08v.06l.14.08v.06l.14.08v.06l.14.08v.06l.14.08v.06l.14.08v.06l.14.08v.05867l.14.08134v.05866l.14.08134v.05867l.14.08133v.05867l.14.08133v.05867l.13867.08133v.05867l.14.08134v.05866l.14.08134v.05867l.14.08133v.05867l.14.08133v.05867l.14.08133v.05867l.14.08134v.05866l.14.08134v.05867l.14.08133v.05867l.14.08133v.05867l.14.08v.06l.14.08v.06l.14.08v.06l.14.08v.06l.14.08v.06l.14.08v.06l.14.08v.06l.14.08v.05867l.14.08134v.05866l.14.08134v.05867l.14.08133v.05867l.14.08133v.05867l.13868.08133v.05867l.14.08134v.05866l.14.08134v.05866l.14.08134v.05867l.14.08133v.05867l.14.08133v.05867l.14.08134v.05866l.14.08134v.05866l.14.08134v.05867l.14.08v.06l.14.08v.06l.14.08v.06l.14.08v.06l.14.08v.06l.14.08v.06l.14.08v.06l.14.08v.05859l.14.08133v.05867l.14.08133v.05867l.14.08133v.05867l.14.08133v.05867l.13867.08133v.05867l.14.08133v.05867l.14.08133v.05867l.14.08133v.05867l.14.08133v.05867l.14.08133v.05867l.14.08133v.05867l.14.08133v.05867l.14.08v.06l.14.08v.06l.14.08v.06l.14.08v.06l.14.08v.06l.14.08v.06l.14.08v.06l.14.08v.06l.14.08v.05867l.14.08134v.05866l.14.08134v.05867l.14.08133v.05867l.13867.08133v.05866l.14.08134v.05866l.14.08134v.05866l.14.08134v.05866l.14.08134v.05866l.14.08134v.05866l.14.08133v.05867l.14.08133v.05867l.14.08133v.05867l.14.08133v.05867l.14.08133v.05867l.14.08v.06l.14.08v.06l.14.08v.06l.14.08v.06l.14.08v.06l.14.08v.06l.14.08v.06l.14.08v.05867l.14.08133v.05867l.14.08133v.05867l.14.08133v.05867l.14.08133v.05867l.13867.08133v.05867l.14.08133v.05867l.14.08133v.05867l.14.08133v.05866l.14.08134v.05866l.14.08134v.05866l.14.08134v.05866l.14.08134v.05866l.14.08134v.05866l.14.08v.06l.14.08v.06l.14.08v.06l.14.08v.06l.14.08v.06l.14.08v.06l.14.08v.06l.14.08v.05866l.14.08134v.05866l.14.08134v.05866l.14.08134v.05866l.13867.08133v.05867l.14.08133v.05867l.14.08133v.05867l.14.08133v.05867l.14.08133v.05867l.14.08133v.05867l.14.08133v.05867l.14.08133v.05867l.14.08133v.05867l.14.08v.06l.14.08v.06l.14.08v.06l.14.08v.06l.14.08v.06l.14.08v.06l.14.08v.06l.14.08v.06l.14.08v.05866l.14.08134v.05866l.14.08134v.05866l.14.08134v.05866l.13867.08134v.05866l.14.08134v.05866l.14.08134v.05866l.14.08134v.05866l.14.08134v.05866l.14.08134v.05866l.14.08134v.05866l.14.08134v.05866l.14.08134v.05866l.14.08134v.05866l.14.08134v.05866l.14.08v.06l.14.08v.06l.14.08v.06l.14.08v.06l.14.08v.06l.14.08v.06l.14.08v.06l.14.08v.05867l.14.08133v.05867l.14.08133v.05867l.13918.08133v.05867l.14.08133v.05867l.14.08133v.05867l.14.08133v.05867l.14.08133v.05867l.14.08133v.05867l.14.08133v.05867l.14.08133v.05867l.14.08133v.05867l.14.08133v.05867l.14.08133v.05867l.14.08v.06l.14.08v.06l.14.08v.06l.14007.08v.06l.14.08v.06l.14.08v.06l.14.08v.05867l.14.08133v.05867l.14.08133v.05867l.14.08133v.05867l.14.08133v.05867l.13868.08133v.05867l.14.08133v.05867l.14.08133v.05867l.14.08133v.05867l.14.08133v.05867l.14.08133v.05867l.14.08133v.05867l.14.08133v.05867l.14.08133v.05867l.14.08v.06l.14.08v.06l.14.08v.06l.14.08v.06l.14.08v.06l.14.08v.06l.14.08v.06l.14.08v.06l.14.08v.06l.14.08v.05866l.14.08134v.05866l.14.08134v.05866l.13867.08134v.05866l.14.08134v.05866l.14.08134v.05866l.14.08134v.05866l.14.08134v.05866l.14.08134v.05866l.14.08134v.05866l.14.08134v.05866l.14.08134v.05866l.14.08v.06l.14.08134v.05866l.14.08v.06l.14.08v.06l.14.08v.06l.14.08v.06l.14.08v.06l.14.08v.06l.14.08v.05867l.14.08133v.05867l.14.08133v.05867l.14.08133v.05867l.13867.08133v.05867l.14.08133v.05867l.14.08133v.05867l.14.08133v.05867l.14.08133v.05867l.14.08133v.05867l.14.08133v.05867l.14.08133v.05867l.14.08133v.05867l.14.08133v.05867l.14.08v.06l.14.08v.06l.14.08v.06l.14.08v.06l.14.08v.06l.14.08v.06l.14.08v.06l.14.08v.06l.14.08v.05866l.14.08134v.05866l.14.08134v.05866l.14.08134v.05866l.13867.08134v.05866l.14.08134v.05866l.14.08134v.05866l.14.08134v.05866l.14.08134v.05866l.14.08134v.05866l.14.08134v.05866l.14.08134v.05866l.14.08134v.05866l.14.08v.06l.14.08v.06l.14.08v.06l.14.08v.06l.14.08v.06l.14.08v.06l.14.08v.06l.14.08v.05867l.14.08133v.05867l.14.08133v.05867l.14.08133v.05867l.14.08133v.05867l.13867.08133v.05867l.14.08133v.05867l.14.08133v.05867l.14.08133v.05867l.14.08133v.05867l.14.08133v.05867l.14.08133v.05867l.14.08133v.05867l.14.08v.06l.14.08133v.05867l.14.08v.06l.14.08v.06l.14.08v.06l.14.08v.06l.14.08v.06l.14.08v.06l.14.08v.05867l.14.08133v.05867l.14.08133v.05867l.14.08133v.05867l.14.08133v.05867l.13867.08133v.05867l.14.08133v.05867l.14.08133v.05867l.14.08133v.05867l.14.08133v.05867l.14.08133v.05867l.14.08133v.05867l.14.08133v.05867l.14.08133v.05867l.14.08133v.05867l.14.08v.06l.14.08v.06l.14.08v.06l.14.08v.06l.14.08v.06l.14.08v.06l.14.08v.06l.14.08v.05867l.14.08133v.05867l.14.08133v.05866l.14.08134v.05866l.14.08134v.05866l.13867.08134v.05866l.14.08134v.05866l.14.08134v.05866l.14.08133v.05867l.14.08133v.05867l.14.08133v.05867l.14.08133v.05867l.14.08133v.05867l.14.08133v.05867l.14.08v.06l.14.08v.06l.14.08v.06l.14.08v.06l.14.08v.06l.14.08v.06l.14.08v.06l.14.08v.05867l.14.08133v.05867l.14.08133v.05867l.14.08133v.05867l.14.08133v.05867l.13867.08133v.05867l.14.08133v.05867l.14.08133v.05866l.14.08134v.05866l.14.08134v.05866l.14.08134v.05866l.14.08134v.05866l.14.08134v.05866l.14.08v.06l.14.08v.06l.14.08v.06l.14.08v.06l.14.08v.06l.14.08v.06l.14.08v.06l.14.08v.06l.14.08v.05866l.14.08134v.05866l.14.08134v.05866l.14.08134v.05866l.14.08134v.05866l.14.08133v.05867l.13867.08133v.05867l.14.08133v.05867l.14.08133v.05867l.14.08133v.05867l.14.08133v.05867l.14.08133v.05867l.14.08133v.05867l.14.08133v.05867l.14.08133v.05867l.14.08v.06l.14.08v.06l.14.08v.06l.14.08v.06l.14.08v.06l.14.08v.06l.14.08v.06l.14.08v.05867l.14.08133v.05867l.14.08133v.05867l.14.08133v.05866l.14.08134v.05866l.13867.08134v.05866l.14.08134v.05866l.14.08134v.05866l.14.08134v.05866l.14.08133v.05867l.14.08134v.05866l.14.08134v.05866l.14.08134v.05867l.14.08v.06l.14.08v.06l.14.08v.06l.14.08v.06l.14.08v.06l.14.08v.06l.14.08v.06l.14.08v.06l.14.08v.05867l.14.08133v.05867l.14.08134v.05866l.14.08134v.05866l.14.08134v.05867l.13868.08133v.05867l.14.08133v.05867l.14.08133v.05867l.14.08134v.05866l.14.08134v.05867l.14.08133v.05867l.14.08133v.05867l.14.08133v.05867l.14.08v.06l.14.08v.06l.14.08v.06l.14.08v.06l.14.08v.06l.14.08v.06l.14.08v.06l.14.08v.06l.14.08v.06l.14.08v.05866l.14.08134v.05866l.14.08134v.05867l.14.08133v.05867l.14.08133v.05867l.13867.08134v.05866l.14.08134v.05866l.14.08134v.05867l.14.08133v.05867l.14.08133v.05867l.14.08133v.05867l.14.08134v.05866l.14.08134v.05867l.14.08133v.05867l.14.08v.06l.14.08v.06l.14.08v.06l.14.08v.06l.14.08v.06l.14.08v.06l.14.08v.06l.14.08v.05867l.14.08133v.05867l.14.08134v.05866l.14.08134v.05867l.14.08133v.05867l.13868.08133v.05867l.14.08133v.05867l.14.08134v.05866l.14.08134v.05867l.14.08133v.05867l.14.08133v.05867l.14.08133v.05867l.14.08134v.05866l.14.08v.06l.14.08v.06l.14.08v.06l.14.08v.06l.14.08v.06l.14.08v.06l.14.08v.06l.14.08v.06l.14.08v.05867l.14.08133v.05867l.14.08133v.05867l.14.08133v.05867l.14.08134v.05866l.13867.08134v.05867l.14.08133v.05867l.14.08133v.05867l.14.08133v.05867l.14.08134v.05866l.14.08134v.05866l.14.08134v.05867l.14.08133v.05867l.14.08v.06l.14.08v.06l.14.08v.06l.14.08v.06l.14.08v.06l.14.08v.06l.14.08v.06l.14.08v.06l.14.08v.06l.14.08v.05867l.14.08133v.05867l.14.08134v.05866l.14.08134v.05867l.14.08133v.05867l.13868.08133v.05867l.14.08133v.05867l.14.08134v.05866l.14.08134v.05867l.14.08133v.05867l.14.08133v.05867l.14.08133v.05867l.14.08134v.05857l.14.08133v.05867l.14.08v.06l.14.08v.06l.14.08v.06l.14.08v.06l.14.08v.06l.14.08v.06l.14.08v.06l.14.08v.05867l.14.08133v.05867l.14.08134v.05866l.14.08134v.05867l.14.08133v.05867l.13867.08133v.05867l.14.08133v.05867l.14.08134v.05866l.14.08134v.05867l.14.08133v.05867l.14.08133v.05867l.14.08133v.05867l.14.08134v.05866l.14.08v.06l.14.08v.06l.14.08v.06l.14.08v.06l.14.08v.06l.14.08v.06l.14.08v.06l.14.08v.06l.14.08v.05867l.14.08133v.05867l.14.08133v.05867l.14.08133v.05867l.13866.08134v.05866l.14.08134v.05867l.14.08133v.05867l.14.08133v.05867l.14.08133v.05867l.14.08134v.05866l.14.08134v.05866l.14.08134v.05867l.14.08133v.05867l.14.08133v.05867l.14.08133v.05867l.14.08v.06l.14.08v.06l.14.08v.06l.14.08v.06l.14.08v.06l.14.08v.06l.14.08v.06l.14.08v.05866l.14.08134v.05866l.14.08134v.05866l.13866.08134v.05866l.14.08133v.05867l.14.08133v.05867l.14.08133v.05867l.14.08133v.05867l.14.08133v.05867l.14.08133v.05867l.14.08133v.05867l.14.08133v.05867l.14.08133v.05866l.14.08134v.05866l.14.08v.06l.14.08v.06l.14.08v.06l.14.08v.06l.14.08v.06l.14.08v.06l.14.08v.06l.14.08v.05867l.14.08133v.05867l.14.08133v.05867l.14.08133v.05866l.13866.08134v.05866l.14.08134v.05866l.14.08134v.05866l.14.08134v.05866l.14.08134v.05866l.14.08134v.05866l.14.08134v.05866l.14.08133v.05867l.14.08133v.05867l.14.08v.06l.14.08v.06l.14.08v.06l.14.08v.06l.14.08v.06l.14.08v.06l.14.08v.06l.14.08v.06l.14.08v.05866l.14.08134v.05866l.14.08133v.05867l.14.08133v.05867l.13867.08133v.05867l.14.08133v.05867l.14.08133v.05867l.14.08133v.05866l.14.08133v.05867l.14.08133v.05867l.14.08133v.05866l.14.08134v.05866l.14.08134v.05866l.14.08134v.05866l.14.08134v.05866l.14.08v.06l.14.08v.06l.14.08v.06l.14.08v.06l.14.08v.06l.14.08v.06l.14.08v.06l.14.08v.05866l.14.08134v.05866l.14.08134v.05866l.13867.08134v.05866l.14.08134v.05866l.14.08134v.05866l.14.08134v.05866l.14.08134v.05866l.14.08133v.05867l.14.08133v.05867l.14.08133v.05867l.14.08133v.05867l.14.08133v.05867l.14.08133v.05867l.14.08v.06l.14.08v.06l.14.08v.06l.14.08v.06l.14.08v.06l.14.08v.06l.14.08v.05867l.14.08133v.05867l.14.08133v.05867l.14.08133v.05867l.14.08133v.05867l.13866.08133v.05867l.14.08133v.05867l.14.08133v.05867l.14.08133v.05866l.14.08134v.05866l.14.08134v.05866l.14.08134v.05866l.14.08134v.05866l.14.08134v.05866l.14.08v.06l.14.08v.06l.14.08v.06l.14.08v.06l.14.08v.06l.14.08v.06l.14.08v.06l.14.08v.06l.14.08v.05866l.14.08134v.05866l.14.08134v.05866l.14.08134v.05866l.13866.08134v.05866l.14.08134v.05866l.14.08133v.05867l.14.08133v.05867l.14.08133v.05867l.14.08133v.05867l.14.08133v.05867l.14.08133v.05867l.14.08133v.05867l.14.08v.06l.14.08v.06l.14.08v.06l.14.08v.06l.14.08v.06l.14.08v.06l.14.08v.06l.14.08v.06l.14.08v.05867l.14.08133v.05867l.14.08133v.05867l.14.08133v.05867l.13866.08133v.05867l.14.08133v.05866l.14.08134v.05866l.14.08134v.05866l.14.08134v.05866l.14.08134v.05866l.14.08134v.05866l.14.08134v.05866l.14.08134v.05866l.14.08133v.05867l.14.08133v.05867l.14.08v.06l.14.08v.06l.14.08v.06l.14.08v.06l.14.08v.06l.14.08v.06l.14.08v.05866l.14.08134v.05866l.14.08134v.05872l.14.08134v.05866l.14.08134v.05866l.13866.08134v.05866l.14.08133v.05867l.14.08133v.05867l.14.08133v.05867l.14.08133v.05867l.14.08133v.05867l.14.08133v.05867l.14.08133v.05867l.14.08133v.05867l.14.08v.06l.14.08v.06l.14.08v.06l.14.08v.06l.14.08v.06l.14.08v.06l.14.08v.06l.14.08v.05867l.14.08133v.05867l.14.08133v.05867l.14.08133v.05867l.14.08133v.05867l.13866.08133v.05866l.14.08134v.05866l.14.08134v.05866l.14.08134v.05866l.14.08134v.05866l.14.08134v.05866l.14.08134v.05866l.14.08134v.05866l.14.08v.06l.14.08v.06l.14.08v.06l.14.08v.06l.14.08v.06l.14.08v.06l.14.08v.06l.14.08v.06l.14.08v.05866l.14.08134v.05866l.14.08134v.05866l.14.08134v.05866l.14.08133v.05867l.13866.08133v.05867l.14.08133v.05867l.14.08133v.05867l.14.08133v.05867l.14.08133v.05867l.14.08133v.05867l.14.08133v.05867l.14.08133v.05866l.14.08134v.05866l.14.08134v.05866l.14.08v.06l.14.08v.06l.14.08v.06l.14.08v.06l.14.08v.06l.14.08v.06l.14.08v.06l.14.08v.05867l.14.08133v.05867l.14.08133v.05866l.14.08134v.05866l.14.08134v.05866l.13866.08134v.05866l.14.08134v.05866l.14.08134v.05866l.14.08134v.05866l.14.08134v.05866l.14.08133v.05867l.14.08133v.05867l.14.08133v.05867l.14.08133v.05867l.14.08v.06l.14.08v.06l.14.08v.06l.14.08v.06l.14.08v.06l.14.08v.06l.14.08v.06l.14.08v.05866l.14.08133v.05867l.14.08133v.05867l.14.08133v.05867l.14.08133v.05867l.13866.08133v.05867l32.48666 18.756v-59.32543h.016l.11333.14h.02533l.11467.14h.02533l.11466.14h.02533l.11467.14h.02533l.11466.14h.02533l.11467.14h.02532l.11467.14h.02533l.11333.14h.02666l.11334.14h.02666l.11333.14h.02666l.11333.14h.02667l.11333.14h.02666l.11333.14h.02666l.11334.14h.02666l.11333.14h.02666l.11334.14h.02666l.11333.14h.02666l.11333.14h.02667l.11333.14h.02666l.11333.13867h.02666l.11334.14h.02666l.11333.14h.02533l.11467.14h.02533l.11466.14h.02533l.11466.14h.02533l.11467.14h.02533l.11466.14h.02533l.11467.14h.02533l.11333.14h.02666l.11333.14h.02667l.11333.14h.02666l.11333.14h.02666l.11334.14h.02666l.11333.14h.02666l.11333.14h.02667l.11333.14h.02666l.11333.14h.02667l.11333.14h.02666l.11333.14h.02666l.11334.14h.02666l.11333.13866h.02666l.11333.14h.02667l.11333.14h.02533l.11466.14h.02533l.11467.14h.02533l.11466.14h.02533l.11467.14h.02533l.11466.14h.02533l.11466.14h.02533l.11467.14h.02533l.11333.14h.02666l.11334.14h.02666l.11333.14h.02666l.11333.14h.02667l.11333.14h.02666l.11333.14h.02666l.11334.14h.02666l.11333.14h.02666l.11334.14h.02666l.11333.14h.02666l.11333.14h.02667l.11333.13867h.02666l.11333.14h.02666l.11334.14h.02666l.11333.14h.02533l.11467.14h.02532l.11467.14h.02533l.11466.14h.02533l.11467.14h.02533l.11466.14h.02533l.11467.14h.02533l.11333.14h.02666l.11333.14h.02666l.11334.14h.02666l.11333.14h.02666l.11334.14h.02666l.11333.14h.02666l.11333.14h.02667l.11333.14h.02666l.11333.14h.02666l.11334.14h.02666l.11333.14h.02666l.11334.14h.02666l.11333.13867h.02666l.11333.14h.02667l.11333.14h.02533l.11466.14h.02533l.11467.14h.02533l.11466.14h.02533l.11467.14h.02533l.11466.14h.02533l.11466.14h.02533l.11334.14h.02666l.11333.14h.02666l.11333.14h.02667l.11333.14h.02666l.11333.14h.02667l.11333.14h.02666l.11333.14h.02666l.11334.14h.02666l.11333.14h.02666l.11333.14h.02667l.11333.14h.02666l.11333.14h.02667l.11333.13867h.02666l.11333.14h.02666l.11334.14h.02533l.11466.14h.02533l.11466.14h.02533l.11467.14h.02533l.11466.14h.02533l.11467.14h.02533l.11466.14h.02534l.11466.14h.02534l.11333.14h.02667l.11333.14h.02666l.11334.14h.02666l.11334.14h.02666l.11334.14h.02666l.11333.14h.02667l.11333.14h.02667l.11333.14h.02667l.11333.14h.02667l.11333.14h.02667l.11333.14h.02667l.11333.13867h.02667l.11333.14h.02667l.11333.14h.02667l.11333.14h.02533l.11467.14h.02533l.11467.14h.02533l.11467.14h.02533l.11467.14h.02533l.11467.14h.02533l.11467.14h.02533l.11333.14h.02667l.11333.14h.02667l.11333.14h.02667l.11333.14h.02667l.11333.14h.02667l.11333.14h.02667l.11333.14h.02667l.11333.14h.02667l.11333.14h.02666l.11334.14h.02666l.11334.14h.02666l.11334.14h.02666l.11333.13866h.02667l.11333.14h.02667l.11333.14h.02534l.11466.14h.02534l.11466.14h.02534l.11466.14h.02534l.11466.14h.02534l.11466.14h.02534l.11466.14h.02533l.11334.14h.02666l.11334.14h.02666l.11334.14h.02666l.11333.14h.02667l.11333.14h.02667l.11333.14h.02667l.11333.14h.02667l.11333.14h.02667l.11333.14h.02667l.11333.14h.02667l.11333.14h.02667l.11333.14h.02667l.11333.13867h.02667l.11333.14h.02533l.11467.14h.02533l.11467.14h.02533l.11467.14h.02533l.11467.14h.02533l.11467.14h.02533l.11467.14h.02533l.11466.14h.02534l.11466.14h.02534l.11333.14h.02667l.11333.14h.02667l.11333.14h.02667l.11333.14h.02667l.11333.14h.02667l.11333.14h.02666l.11334.14h.02666l.11334.14h.02666l.11334.14h.02666l.11334.14h.02666l.11333.14h.02667l.11333.13866h.02667l.11333.14h.02534l.11466.14h.02534l.11466.14h.02534l.11466.14h.02534l.11466.14h.02534l.11466.14h.02533l.11467.14h.02533l.11467.14h.02533l.11467.14h.02533l.11334.14h.02666l.11333.14h.02667l.11333.14h.02667l.11333.14h.02667l.11333.14h.02667l.11333.14h.02667l.11333.14h.02667l.11333.14h.02667l.11333.14h.02667l.11333.14h.02667l.11333.13867h.02667l.11333.14h.02667l.11333.14h.02666l.11334.14h.02533l.11467.14h.02533l.11467.14h.02533l.11467.14h.02533l.11466.14h.02534l.11466.14h.02534l.11466.14h.02534l.11466.14h.02534l.11333.14h.02667l.11333.14h.02667l.11333.14h.02667l.11333.14h.02666l.11334.14h.02666l.11334.14h.02666l.11334.14h.02666l.11334.14h.02666l.11333.14h.02667l.11333.14h.02667l.11333.14h.02667l.11333.14h2.83334l2.28133-2.81466v.18133l.14-.08v.22l.14-.08v.22l.14-.08v.22l.14-.08v.22l.14-.08v.22l.14-.08133v.22133l.13867-.08v.22l.14-.08134v.22134l.14-.08134v.22134l.14-.08134v.22134l.14-.08134v.22134l.14-.08134v.22134l.14-.08134v.22134l.14-.08134v.22133l.14-.08133v.22133l.14-.08133v.22133l.14-.08133v.22133l.14-.08133v.22133l.14-.08133v.22l.14-.08v.22l.14-.08v.22l.14-.08v.22l.14-.08v.22l.14-.08v.22l.14-.08v.22l.14-.08v.22l.14-.08v.22l.13866-.08v.22l.14-.08133v.22133l.14-.08133v.22133l.14-.08133v.22133l.14-.08133v.22133l.14-.08133v.22133l.14-.08133v.22133l.14-.08133v.22133l.14-.08134v.22134l.14-.08134v.22134l.14-.08134v.22134l.14-.08134v.22134l.14-.08134v.22l.14-.08v.22l.14-.08v.22l.14-.08v.22l.14-.08v.22l.14-.08v.22l.14-.08v.22l.14-.08v.22l.14-.08v.22l.13867-.08v.22l.14-.08134v.22134l.14-.08134v.22134l.14-.08134v.22134l.14-.08134v.22134l.14-.08134v.22133l.14-.08133v.22133l.14-.08133v.22133l.14-.08133v.22133l.14-.08133v.22133l.14-.08133v.22133l.14-.08133v.22133l.14-.08133v.22133l.14-.08133v.22l.14-.08v.22l.14-.08v.22l.14-.08v.22l.14-.08v.22l.14-.08v.22l.14-.08v.22l.14-.08v.22l.14-.08133v.22133l.13866-.08v.22l.14-.08133v.22133l.14-.08133v.22133l.14-.08133v.22133l.14-.08133v.22133l.14-.08134v.22134l.14-.08134v.22134l.14-.08134v.22134l.14-.08134v.22134l.14-.08134v.22134l.14-.08134v.22134l.14-.08134v.22133l.14-.08133v.22l.14-.08v.22023l.14-.08v.22l.14-.08v.22l.14-.08v.22l.14-.08v.22l.14-.08v.22l.14-.08v.22l.14-.08v.22l.13867-.08v.22l.14-.08133v.22133l.14-.08134v.22134l.14-.08134v.22134l.14-.08134v.22134l.14-.08134v.22134l.14-.08134v.22134l.14-.08134v.22134l.14-.08134v.22133l.14-.08133v.22133l.14-.08133v.22133l.14-.08133v.22133l.14-.08133v.22l.14-.08v.22l.14-.08v.22l.14-.08v.22l.14-.08v.22l.14-.08v.22l.14-.08v.22l.14-.08v.22l.14-.08v.22l.13867-.08v.22l.14-.08133v.22133l.14-.08133v.22133l.14-.08133v.22133l.14-.08133v.22133l.14-.08133v.22133l.14-.08133v.22133l.14-.08133v.22133l.14-.08133v.22133l.14-.08134v.22134l.14-.08134v.22134l.14-.08134v.22134l.14-.08134v.22134l.14-.08134v.22l.14-.08v.22l.14-.08v.22l.14-.08v.22l.14-.08v.22l.14-.08v.22l.14-.08v.22l.14-.08v.22l.14-.08134v.22134l.13867-.08v.22l.14-.08134v.22133l.14-.08133v.22134l.14-.08133v.22133l.14-.08133v.22134l.14-.08133v.22133l.14-.08133v.22133l.14-.08132v.22133l.14-.08133v.22133l.14-.08133v.22134l.14-.08133v.22133l.14-.08133v.22134l.14-.08133v.22l.14-.08v.22l.14-.08v.22l.14-.08v.22l.14-.08v.22l.14-.08v.22l.14-.08v.22l.14-.08v.22l.14-.08v.22l.13867-.08v.22l.14-.08133v.22133l.14-.08133v.22134l.14-.08133v.22133l.14-.08133v.22134l.14-.08133v.22133l.14-.08133v.22134l.14-.08133v.22133l.14-.08133v.22133l.14-.08132v.22133l.14-.08133v.22133l.14-.08133v.22134l.14-.08133v.22l.14-.08v.22l.14-.08v.22l.14-.08v.22l.14-.08v.22l.14-.08v.22l.14-.08v.22l.14-.08v.22l.14-.08v.22l.13866-.08v.22l.14-.08133v.22133l.14-.08132v.22133l.14-.08133v.22133l.14-.08133v.22134l.14-.08133v.22133l.14-.08133v.22134l.14-.08133v.22133l.14-.08133v.22134l.14-.08133v.22133l.14-.08133v.22133l.14-.08132v.22133l.14-.08133v.22133l.14-.08133v.22l.14-.08v.22l.14-.08v.22l.14-.08v.22l.14-.08v.22l.14-.08v.22l.14-.08v.22l.14-.08v.22l.14-.08133v.22133l.13867-.08v.22l.14-.08133v.22133l.14-.08133v.22133l.14-.08132v.22133l.14-.08133v.22133l.14-.08133v.22134l.14-.08133v.22106l.14-.08133v.22133l.14-.08133v.22134l.14-.08133v.22133l.14-.08133v.22134l.14-.08133v.22133l.14-.08133v.22l.14-.08v.22l.14-.08v.22l.14-.08v.22l.14-.08v.22l33.516-19.35067V226.3026z"/></g></g></g></g></g></g><g id="g48"><g id="g50"><g id="g56"><path id="path58" fill="#fff" d="M122.60226 155.28857h2.83333l32.368-39.924v67.37866l33.516-19.35066v-77.168l-32.12-18.544-34.79467 42.27467-34.62933-42.272-32.11466 18.54133v77.168l32.48666 18.756v-66.784z"/></g><g id="g60"><path id="path62" d="M744.18355 258.89456v18.19066h8.38533q5.644 0 8.58-2.38666a9.12889 9.12889 0 0 0 .06533-13.35333q-2.874-2.45-8.22533-2.45067zm-3.484-2.90267h12.41867q7.126 0 10.91733 3.19334a10.78332 10.78332 0 0 1 3.78933 8.708 11.0119 11.0119 0 0 1-3.82133 8.83733q-3.822 3.258-11.20934 3.25867h-8.61066v21.06h-3.484z" class="cls-8"/></g><g id="g64"><path id="path66" d="M783.20405 258.89456v17.64267h7.48267q5.708 0 8.72533-2.30667a8.48348 8.48348 0 0 0-.04933-13.01467q-3.064-2.322-8.804-2.32133zm-3.484-2.90267h11.548q7.256 0 11.09467 3.144a10.41021 10.41021 0 0 1 3.83733 8.49867q0 7.806-8.57866 10.96667 2.226 1.064 5.99866 6.87066l10.192 15.57734h-4.12266l-7.84933-12.348q-3.932-6.196-6.12534-7.728a11.17889 11.17889 0 0 0-6.416-1.53334h-6.09467v21.60934h-3.484z" class="cls-8"/></g><g id="g68"><path id="path70" d="M843.93314 298.40562a19.3677 19.3677 0 0 0 14.208-5.75866 20.12841 20.12841 0 0 0 0-28.252 19.36771 19.36771 0 0 0-14.208-5.75867 19.62014 19.62014 0 0 0-14.304 5.75867 19.972 19.972 0 0 0 0 28.252 19.62013 19.62013 0 0 0 14.304 5.75866m-.12934-42.99462a23.46012 23.46012 0 0 1 16.94934 6.72534 22.7839 22.7839 0 0 1 0 32.76933 24.63842 24.63842 0 0 1-33.83334 0 22.86027 22.86027 0 0 1 0-32.76933 23.31122 23.31122 0 0 1 16.884-6.72534" class="cls-8"/></g><g id="g72"><path id="path74" d="M885.213 255.99189v45.05866q0 7.45-2.80667 10.28933a9.03648 9.03648 0 0 1-6.64533 2.83734 19.95531 19.95531 0 0 1-2.09467-.12934l-.324-3.28933a9.12389 9.12389 0 0 0 2.06534.25867q6.32 0 6.32133-9.032v-45.99333z" class="cls-8"/></g><g id="g76"><path id="path78" d="M925.20071 255.99189v2.90267h-21.09333v18.02933h20.54533v2.936h-20.54533v18.28666H925.718v2.904h-25.09329v-45.05866z" class="cls-8"/></g><g id="g80"><path id="path82" d="M975.73757 259.185v3.80534a34.08588 34.08588 0 0 0-16.06266-4.35467 18.93505 18.93505 0 0 0-14.03067 5.71067 19.45808 19.45808 0 0 0-5.644 14.25466 19.09635 19.09635 0 0 0 5.676 14.224 19.80016 19.80016 0 0 0 14.48133 5.58q7.356 0 16.032-4.612v3.612a33.92473 33.92473 0 0 1-15.96533 4.22534 23.72989 23.72989 0 0 1-17.14267-6.596 23.091 23.091 0 0 1 .144-32.97866 23.38485 23.38485 0 0 1 16.676-6.644 37.91105 37.91105 0 0 1 15.836 3.77333" class="cls-8"/></g><g id="g84"><path id="path86" d="M1020.56488 255.99189v2.90267h-16.90133v42.156h-3.51467v-42.156h-16.90133v-2.90267z" class="cls-8"/></g><g id="g88"><path id="path90" d="M310.81 106.30631a31.93636 31.93636 0 0 0 23.42133-9.49066 31.5489 31.5489 0 0 0 9.544-23.26267 31.60829 31.60829 0 0 0-9.544-23.31467A31.93113 31.93113 0 0 0 310.81 40.74765a32.35058 32.35058 0 0 0-23.58133 9.49067A31.42817 31.42817 0 0 0 277.578 73.553a31.36959 31.36959 0 0 0 9.65067 23.26267 32.3559 32.3559 0 0 0 23.58133 9.49064m-.21333-70.876A38.68464 38.68464 0 0 1 338.538 46.51565 36.19253 36.19253 0 0 1 349.99531 73.553a36.12861 36.12861 0 0 1-11.45731 26.984 40.61875 40.61875 0 0 1-55.776 0 36.21316 36.21316 0 0 1-11.40533-26.984A36.27739 36.27739 0 0 1 282.762 46.51565a38.4379 38.4379 0 0 1 27.83467-11.08534" class="cls-8"/></g><g id="g92"><path id="path94" d="M369.72223 41.17257v29.988h13.824q9.304 0 14.144-3.93466 4.838-3.934 4.83733-11.112a13.59487 13.59487 0 0 0-4.732-10.9q-4.732-4.04-13.55733-4.04133zm-5.74267-4.78534h20.47067q11.75 0 17.99733 5.264 6.248 5.264 6.248 14.356 0 9.198-6.3 14.568-6.3 5.372-18.476 5.37067h-14.19733v34.72h-5.74267z" class="cls-8"/></g><g id="g96"><path id="path98" d="M460.21758 36.387v4.7853h-34.77333V70.895h33.86933v4.83867h-33.86933v30.14666h35.624v4.78534h-41.36666V36.387z" class="cls-8"/></g><g id="g100"><path id="path102" d="M539.81344 36.387v74.27867h-4.72533l-56.47333-64.92v64.92h-5.74266V36.387h4.86533l56.33466 64.92134V36.387z" class="cls-8"/></g><g id="g104"><path id="path106" d="M360.78969 225.31672h-22.22533v-42.696l-20.04533 24.724h-1.75466l-20.09734-24.724v42.696H275.079v-73.69333h20.152l22.65066 27.648 22.756-27.648h20.152z" class="cls-9"/></g><g id="g108"><path id="path110" d="M426.45424 197.56245l-10.79333-26.904-10.9 26.904zm33.86933 27.75467h-22.756l-6.00933-14.94h-32.008l-6.11467 14.94h-22.75733l32.59333-73.69467h24.56534z" class="cls-9"/></g><path id="path112" d="M492.43865 225.31631h-22.224V151.623h22.224z" class="cls-9"/><g id="g114"><path id="path116" d="M591.06942 225.31672h-19.78l-38.228-41.048v41.048h-22.012v-73.69333h19.72533l38.124 40.83333v-40.83333h22.17066z" class="cls-9"/></g><g id="g118"><path id="path120" d="M662.37 195.48791h-30.572v29.82933h-22.22537v-73.69466H662.37v14.78133h-30.572v14.25066h30.572z" class="cls-9"/></g><g id="g122"><path id="path124" d="M718.46505 174.91125q0-5.104-3.34934-7.12534-3.35-2.018-10.9-2.02h-4.67866v17.75866h4.78533q8.136 0 11.13866-1.78133 3.004-1.78 3.004-6.832m30.20133 50.40533H724.793l-5.796-13.07867a54.3087 54.3087 0 0 0-5.74266-10.50266 12.4029 12.4029 0 0 0-4.97067-4.25334 17.67574 17.67574 0 0 0-6.248-.92933h-2.49866v28.764h-22.2253v-73.69332h37.804q9.144 0 14.99333 3.72133a22.34783 22.34783 0 0 1 8.428 9.03867 23.19808 23.19808 0 0 1 2.57867 10.10267 19.12058 19.12058 0 0 1-2.152 9.43866 17.33757 17.33757 0 0 1-4.54667 5.60933 45.49536 45.49536 0 0 1-5.37066 3.34934 21.18327 21.18327 0 0 1 5.87466 4.91866q2.314 2.844 6.30134 11.51067z" class="cls-9"/></g><g id="g126"><path id="path128" d="M805.82409 197.56245l-10.79333-26.904-10.9 26.904zm33.86933 27.75467h-22.75733l-6.008-14.94h-32.008l-6.11467 14.94h-22.756l32.592-73.69467h24.56534z" class="cls-9"/></g><g id="g130"><path id="path132" d="M935.18582 225.31672h-22.224v-42.696l-20.04533 24.724h-1.75467l-20.09866-24.724v42.696h-21.58667v-73.69333h20.152l22.65066 27.648 22.756-27.648h20.15067z" class="cls-9"/></g><g id="g134"><path id="path136" d="M1009.3585 225.31672h-55.56266v-73.69333h54.66v14.78134h-32.43467v13.504h30.944v14.836h-30.944v15.73734h33.33733z" class="cls-9"/></g></g></g></g><path d="M127.1864 344.12083h8.17761c4.03145 0 6.72728 1.15535 8.07929 3.47425 1.352 2.31071 2.0321 5.62928 2.0321 9.94752 0 3.1301-.45066 5.83413-1.352 8.09567-1.65519 4.12978-4.57225 6.19467-8.75939 6.19467h-8.17761zm16.2405-6.44868c-1.74531-.58177-3.93311-.88495-6.56339-.92592h-18.2972v42.4613h18.2972c6.4159 0 11.16023-2.63846 14.23298-7.9236 2.26155-3.91672 3.39232-8.69383 3.39232-14.3395 0-2.22876-.26221-4.57224-.80301-7.03044-.5408-2.4582-1.54867-4.74433-3.02359-6.85838-1.84365-2.61389-4.25269-4.40837-7.2353-5.38346zm25.04907 17.85473c1.04883-1.18813 2.52375-1.7863 4.42476-1.7863 1.74532 0 3.21204.56539 4.39198 1.68797 1.17994 1.12258 1.83546 2.76957 1.97475 4.94098h-12.76625c.2704-2.0403.93412-3.64633 1.97476-4.84265zm11.47979-7.08781c-2.08947-.97509-4.44115-1.46673-7.05503-1.46673-4.40018 0-7.97277 1.45034-10.73414 4.35101-2.75319 2.90068-4.12978 7.07143-4.12978 12.50405 0 5.80135 1.52408 9.98848 4.58045 12.5614 3.04816 2.57292 6.57978 3.85937 10.57026 3.85937 4.84265 0 8.6037-1.53227 11.29133-4.58044 1.72893-1.9256 2.69582-3.8184 2.90887-5.67844h-8.38246c-.44248.92592-.9505 1.64699-1.52409 2.16321-1.05702.9587-2.43362 1.44215-4.12158 1.44215-1.58964 0-2.95803-.39332-4.0888-1.18813-1.86004-1.26188-2.85152-3.47426-2.96623-6.62076h21.48466c.04097-2.71221-.04097-4.7853-.25401-6.22744-.36873-2.4582-1.16355-4.61322-2.39265-6.48145-1.3602-2.10586-3.08914-3.65452-5.1868-4.6378zm-6.48145-1.46673zm46.50914 4.61322c-2.33529-2.98261-5.56373-4.46573-9.6935-4.46573-2.28613 0-4.16255.47525-5.64567 1.44215-1.24549.76204-2.39265 1.87642-3.42509 3.33495V336.8036h-8.1858v42.40395h8.0383v-3.94132c1.098 1.53228 2.11406 2.6057 3.05637 3.22024 1.57325 1.04064 3.65452 1.55686 6.25202 1.55686 4.12978 0 7.34183-1.60602 9.64434-4.80987 2.3107-3.20386 3.45787-7.2517 3.45787-12.12712 0-4.70336-1.16355-8.54635-3.49884-11.52077zm-6.86657 19.1248c-1.17174 1.71254-2.81874 2.56472-4.9246 2.56472-2.4418 0-4.26088-.88495-5.449-2.65486-1.18814-1.7617-1.7863-3.99047-1.7863-6.6781 0-2.28613.2868-4.14617.86857-5.58831 1.11438-2.71222 3.15469-4.06423 6.1291-4.06423 2.94165 0 4.95738 1.38479 6.05537 4.14617.57358 1.46672.86037 3.31037.86037 5.53095 0 2.78596-.58177 5.03111-1.75351 6.74366zm24.68852-26.64689v-7.57945h-8.3251v7.57945zm-8.3251 3.74466v31.3994h8.3251v-31.3994zm33.5872 16.13398v3.05637c-.05736 2.74499-.83579 4.6378-2.3189 5.67024-1.4913 1.04064-3.11372 1.55686-4.88362 1.55686-1.11439 0-2.0567-.31137-2.83513-.93411-.77843-.62275-1.17174-1.6388-1.17174-3.03998 0-1.57324.63913-2.7368 1.901-3.49064.75386-.44248 1.99115-.8112 3.72008-1.12258l1.84365-.34415c.91773-.17207 1.647-.36053 2.17141-.55719.53261-.20485 1.05703-.46706 1.57325-.79482zm-4.98195-3.83479l-2.79415.34415c-3.17108.4097-5.57192 1.0816-7.20253 2.02392-2.98262 1.72893-4.46573 4.52309-4.46573 8.38246 0 2.97442.92592 5.27694 2.77777 6.89935 1.85184 1.62241 4.20352 2.43362 7.04684 2.43362 2.22057 0 4.2199-.50803 5.98981-1.53228 1.47492-.86037 2.78596-1.9092 3.91673-3.1383.05736.71287.1311 1.34381.22943 1.901.09833.5572.2704 1.15536.51623 1.7863h8.93146v-1.21272c-.53261-.24582-.94231-.56538-1.20452-.9505-.2704-.37692-.43428-1.10619-.49164-2.1878-.04097-1.41756-.05736-2.63027-.05736-3.62994v-14.39686c0-3.78563-1.33562-6.35854-4.00687-7.72694-2.67124-1.3602-5.7194-2.0403-9.16089-2.0403-5.27693 0-9.0052 1.37659-11.17661 4.14616-1.3602 1.7699-2.13044 4.02325-2.30252 6.76824h7.9236c.18846-1.21271.57358-2.1714 1.14716-2.8761.8112-.96688 2.1796-1.44214 4.12158-1.44214 1.72894 0 3.03998.24582 3.93312.72927.89315.49164 1.33562 1.38479 1.33562 2.67124 0 1.05703-.58177 1.82727-1.75351 2.3271-.65552.29498-1.73713.53261-3.25302.72107zm.42609-13.13498zm45.41934 2.63847c-2.06489-1.70435-4.71974-2.54834-7.96457-2.54834-2.5975 0-4.73613.63094-6.4241 1.90101-.9423.70469-1.94197 1.86823-2.999 3.48245v-4.58044h-7.9236v31.34205h8.18581v-16.99436c0-1.94198.2622-3.53161.80301-4.7853 1.04064-2.35987 2.94984-3.5398 5.7358-3.5398 2.26155 0 3.80202.803 4.60503 2.41723.44248.88495.66371 2.15502.66371 3.80201v19.10022h8.41524v-21.14052c0-3.94132-1.03244-6.76005-3.09733-8.45621zm-10.98815-2.63847zm44.44425 22.21393h-8.3251c0 3.22025 1.17993 5.8751 3.53161 7.96457 2.35168 2.08128 5.99801 3.12192 10.9308 3.12192 4.84265 0 8.41524-.98328 10.73414-2.94984 2.3107-1.96656 3.46606-4.5067 3.46606-7.62042 0-2.35988-.80301-4.33463-2.41723-5.90788-1.6306-1.55686-4.08061-2.71221-7.35002-3.48245-4.89182-1.07341-7.74333-1.83545-8.55453-2.27793-.80302-.4179-1.20452-1.10619-1.20452-2.0403 0-.75385.37692-1.40937 1.13077-1.96657.76204-.549 2.03211-.82759 3.8184-.82759 2.17141 0 3.71189.549 4.61323 1.66338.47525.61455.77843 1.45034.89314 2.50737h8.21039c-.36873-3.8348-1.7863-6.53882-4.25269-8.10387-2.46639-1.56505-5.66205-2.35168-9.57878-2.35168-4.12978 0-7.33363 1.04064-9.60337 3.13011-2.27793 2.08128-3.4169 4.57225-3.4169 7.47293 0 2.4582.72927 4.34282 2.1878 5.64566 1.45853 1.32743 3.9659 2.42543 7.5221 3.31038 4.93278 1.17174 7.7843 1.99934 8.55453 2.48278.77023.47525 1.15535 1.17994 1.15535 2.09767 0 .9587-.47525 1.67977-1.42575 2.16321-.9505.47525-2.23697.72107-3.85118.72107-2.745 0-4.62961-.549-5.64567-1.64699-.57358-.61455-.9505-1.647-1.12258-3.10553zm6.2848-22.21393zm25.92582 19.41978h-8.0711c.1393 3.31857.81121 6.0062 2.01573 8.0629 2.3107 3.85937 6.4159 5.79315 12.33197 5.79315 4.80168 0 8.42343-1.34381 10.87344-4.02325 2.45-2.67944 3.67091-5.78496 3.67091-9.31658 0-3.35954-1.04064-6.0144-3.1383-7.94818-1.40118-1.28646-2.47459-1.93378-3.22844-1.93378.99967-.38512 1.96656-1.1062 2.88429-2.16322 1.45853-1.68796 2.1878-3.76104 2.1878-6.21924 0-3.47426-1.2209-6.24383-3.67091-8.30872-2.45001-2.06489-5.67025-3.09733-9.66892-3.09733-2.14683 0-3.9659.2622-5.44082.77843-1.47492.51622-2.75318 1.26187-3.8348 2.24515-1.43394 1.38479-2.49097 2.89249-3.16288 4.5231-.63913 1.86003-.99147 3.83478-1.06522 5.90787h7.6614c-.04098-2.0567.3933-3.6955 1.31103-4.9246.90954-1.2373 2.3353-1.84365 4.27727-1.84365 1.68797 0 2.999.49164 3.93312 1.49131.92592.99967 1.39298 2.29432 1.39298 3.89215 0 2.4582-.90953 4.0888-2.7368 4.90001-1.05702.47525-2.91706.73746-5.5883.77843v5.8751c2.7286 0 4.72794.25401 5.98981.77843 2.22877.91773 3.34315 2.75318 3.34315 5.49817 0 2.07309-.59816 3.66272-1.79448 4.76891-1.20452 1.1062-2.61389 1.65519-4.2281 1.65519-2.63028 0-4.44115-1.00786-5.44082-3.02359-.5408-1.098-.80301-2.47458-.80301-4.14616zm28.8183-25.1392c-2.58112 2.77777-3.87577 6.39952-3.87577 10.87345 0 4.32643 1.28646 7.6368 3.85938 9.93112 2.57291 2.29432 5.52275 3.44148 8.84952 3.44148 2.24515 0 4.13797-.46705 5.67024-1.38478.84399-.49984 1.6388-1.2209 2.39265-2.16322-.15568 3.17108-.5326 5.58012-1.12258 7.2353-1.098 2.99081-2.999 4.49032-5.70302 4.49032-1.40117 0-2.53195-.38512-3.37593-1.14716-.84398-.77024-1.3602-1.7699-1.54866-2.999h-8.18581c.36873 3.548 1.79449 6.25201 4.29366 8.11205 2.49917 1.85185 5.3097 2.77777 8.43982 2.77777 6.57158 0 11.07828-3.22024 13.53648-9.65253 1.28646-3.37593 1.93379-7.59584 1.93379-12.64335 0-5.20319-.67191-9.4067-2.01573-12.59417-2.35987-5.62109-6.72727-8.43982-13.07762-8.43982-4.12978 0-7.48932 1.39298-10.07043 4.16255zm13.81508 16.58466c-.99967.64733-2.06489.97509-3.20386.97509-2.08947 0-3.63813-.62274-4.646-1.86004-1.00786-1.2373-1.51588-3.09733-1.51588-5.57192 0-2.94164.78662-5.02292 2.35987-6.25202.99967-.78662 2.20418-1.17994 3.60536-1.17994 1.9174 0 3.43328.6883 4.53947 2.07309 1.098 1.38478 1.6552 3.25301 1.6552 5.62108 0 2.93345-.93412 4.99834-2.79416 6.19466zm24.77046 11.90589c-.78662-2.54014-1.17994-6.21925-1.17994-11.01274 0-5.03931.39332-8.75939 1.17994-11.18481.78662-2.41723 2.40084-3.62175 4.84265-3.62175 2.43362 0 4.03965 1.20452 4.7935 3.62175.76204 2.42542 1.13896 6.1455 1.13896 11.18481 0 4.79349-.37692 8.4726-1.13897 11.01274-.75384 2.54833-2.35987 3.8184-4.79349 3.8184-2.4418 0-4.05603-1.27007-4.84265-3.8184zm16.03566-26.97465c-2.14683-3.74466-5.8751-5.62109-11.193-5.62109-5.31791 0-9.05438 1.87643-11.19301 5.62109-2.13863 3.74466-3.21205 9.06256-3.21205 15.96191 0 6.89115 1.07342 12.20087 3.21205 15.92914 2.13863 3.72007 5.8751 5.5883 11.193 5.5883 5.31791 0 9.04618-1.86823 11.193-5.5883 2.13864-3.72827 3.21206-9.03799 3.21206-15.92914 0-6.89935-1.07342-12.21725-3.21205-15.96191zm6.12092 36.43872h9.9639l5.44901-9.41491 5.40804 9.4149h10.2343l-10.71775-16.04385 10.30806-15.2982h-9.75906l-5.12944 9.10354-5.24416-9.10353h-10.05404l10.2507 15.44569zm58.73459-42.46131h-9.4231l12.04518 42.4613h8.23497l5.12944-24.82781 1.4995-8.2104 1.4995 8.2104 5.12945 24.82782h8.4644l11.95505-42.46131h-9.0134l-5.67844 24.5738-1.29466 6.50604-1.29465-6.76824-5.0393-24.3116h-9.36575l-4.7853 24.45909-1.23729 6.62075-1.20452-6.76824zm68.84599 34.11162c-1.28646 1.70435-3.13011 2.56472-5.53095 2.56472-2.40085 0-4.2445-.86037-5.53915-2.56472-1.30284-1.71255-1.95017-4.13797-1.95017-7.29266 0-3.1465.64733-5.57192 1.95017-7.27627 1.29465-1.69616 3.1383-2.54834 5.53915-2.54834 2.40084 0 4.24449.85218 5.53095 2.54834 1.28645 1.70435 1.93378 4.12977 1.93378 7.27627 0 3.15469-.64733 5.58011-1.93378 7.29266zm6.57158 4.53128c2.64667-3.2694 3.9741-7.21072 3.9741-11.82394 0-4.53128-1.32743-8.4562-3.9741-11.78297-2.64666-3.31857-6.6781-4.98195-12.06976-4.98195-5.39984 0-9.4231 1.66338-12.06976 4.98195-2.65486 3.32676-3.97409 7.25169-3.97409 11.78297 0 4.61322 1.31923 8.55454 3.97409 11.82394 2.64666 3.2776 6.66992 4.9164 12.06976 4.9164 5.39165 0 9.4231-1.6388 12.06976-4.9164zm-12.06976-28.41679zm39.36398.09833c-.10652-.0082-.23763-.0082-.38512-.0082-2.4582 0-4.45754.63914-5.998 1.9256-.94232.77023-2.04031 2.20418-3.31038 4.29365v-5.4736h-7.83347v31.39942h8.26775v-15.00322c0-2.52375.31137-4.38379.9505-5.5965 1.13077-2.14683 3.35135-3.22024 6.65353-3.22024.24582 0 .57358.0082.97509.02458.4097.02458.86856.05736 1.38478.11472v-8.40705c-.36053-.02458-.59816-.03277-.70468-.04916zm5.43262-10.17695v42.31382h8.0629v-9.88197l3.4005-3.5398 7.5139 13.42177h9.91474l-11.40604-19.23952 10.97176-12.0124h-10.16875l-10.22611 11.80755v-22.86945zm41.33873 7.16975v-7.57945h-8.3251v7.57945zm-8.3251 3.74466v31.3994h8.3251v-31.3994zm41.63371 1.80268c-2.06489-1.70435-4.71974-2.54834-7.96457-2.54834-2.5893 0-4.72794.63094-6.4241 1.90101-.93411.70469-1.93378 1.86823-2.9908 3.48245v-4.58044h-7.9236v31.34205h8.17761v-16.99436c0-1.94198.2704-3.53161.8112-4.7853 1.03245-2.35987 2.94985-3.5398 5.72761-3.5398 2.26974 0 3.81021.803 4.61322 2.41723.44248.88495.66372 2.15502.66372 3.80201v19.10022h8.40704v-21.14052c0-3.94132-1.03244-6.76005-3.09733-8.45621zm-10.98815-2.63847zm40.0113 23.32012c-1.31924 1.45034-2.94165 2.17141-4.86724 2.17141-2.8761 0-4.87543-1.31923-5.98981-3.97409-.61455-1.41756-.91773-3.03997-.91773-4.86723 0-2.11405.28679-3.88396.86037-5.3261 1.098-2.71222 3.08094-4.06423 5.96523-4.06423 2.11405 0 3.79382.77843 5.0557 2.3353 1.25368 1.55685 1.88462 3.8184 1.88462 6.80101 0 3.16289-.66371 5.4736-1.99114 6.92393zm-2.79416-22.50891c-1.17174-.48345-2.54014-.72108-4.11338-.72108-4.26908 0-7.56307 1.58964-9.88197 4.76891-2.3271 3.17108-3.49064 7.096-3.49064 11.76659 0 4.83446 1.20452 8.66925 3.62175 11.50437 2.40903 2.83513 5.62927 4.25269 9.66072 4.25269 2.61389 0 4.73613-.62275 6.36674-1.87643.90134-.6719 1.74532-1.67977 2.53195-3.02358v2.01572c0 2.999-.31957 5.12944-.97509 6.39951-.99967 1.97476-2.97442 2.96623-5.93246 2.96623-2.09766 0-3.58077-.37692-4.46573-1.12258-.51622-.42608-.89314-1.11438-1.12257-2.07308h-8.93146c.2704 3.13011 1.67157 5.48179 4.20352 7.05504 2.53194 1.57324 5.80954 2.35987 9.8246 2.35987 6.64534 0 11.13565-1.7699 13.47913-5.30152 1.3684-2.0567 2.0485-5.10486 2.0485-9.1609v-29.78518h-7.98095v4.52309c-1.2291-2.20419-2.84332-3.72827-4.84266-4.54767zm-1.4913-.81121zm67.57591 3.02359h8.72661c-.47525-4.08881-2.35167-7.5057-5.62927-10.2425-3.26941-2.7286-7.61223-4.097-13.00388-4.097-6.21925 0-11.22578 2.07308-15.01141 6.21924-3.77743 4.14617-5.67025 9.66073-5.67025 16.5355 0 6.80101 1.86823 12.1517 5.6129 16.07662 3.58896 3.89215 8.20219 5.84232 13.83146 5.84232 3.4169 0 6.293-.72107 8.63648-2.15502 1.3684-.8276 2.90068-2.25335 4.61322-4.26907l.89315 5.30152h5.8751v-22.78752h-17.69085v7.08781h9.8246c-.44247 2.78596-1.61421 5.03931-3.51522 6.76005-1.901 1.71255-4.33463 2.57292-7.31724 2.57292-3.03178 0-5.7358-1.08161-8.12026-3.25302-2.38445-2.17141-3.57258-5.8669-3.57258-11.09468 0-5.1786 1.098-9.06256 3.30218-11.65186 2.196-2.58111 5.00654-3.87577 8.42343-3.87577 1.7863 0 3.4087.31957 4.86724.9587 2.61389 1.14716 4.25269 3.17108 4.9246 6.07176zm-9.93932-14.3395zm44.06733 11.41424c-.10652-.0082-.23762-.0082-.3933-.0082-2.4582 0-4.45754.63914-5.98982 1.9256-.94231.77023-2.0485 2.20418-3.31038 4.29365v-5.4736h-7.84166v31.39942h8.26775v-15.00322c0-2.52375.31957-4.38379.9505-5.5965 1.13897-2.14683 3.35135-3.22024 6.65353-3.22024.25402 0 .58178.0082.98328.02458.4015.02458.86037.05736 1.38479.11472v-8.40705c-.36873-.02458-.60636-.03277-.70469-.04916zm25.131 23.78718c-1.28646 1.70435-3.1301 2.56472-5.53095 2.56472-2.40084 0-4.25268-.86037-5.54734-2.56472-1.29465-1.71255-1.94197-4.13797-1.94197-7.29266 0-3.1465.64732-5.57192 1.94197-7.27627 1.29466-1.69616 3.1465-2.54834 5.54734-2.54834s4.2445.85218 5.53095 2.54834c1.28646 1.70435 1.9256 4.12977 1.9256 7.27627 0 3.15469-.63914 5.58011-1.9256 7.29266zm6.5634 4.53128c2.65485-3.2694 3.98228-7.21072 3.98228-11.82394 0-4.53128-1.32743-8.4562-3.98228-11.78297-2.64667-3.31857-6.66992-4.98195-12.06977-4.98195-5.39165 0-9.4149 1.66338-12.06976 4.98195-2.64666 3.32676-3.97409 7.25169-3.97409 11.78297 0 4.61322 1.32743 8.55454 3.9741 11.82394 2.65485 3.2776 6.6781 4.9164 12.06975 4.9164 5.39985 0 9.4231-1.6388 12.06977-4.9164zm-12.06977-28.41679zm30.10476.83579h-8.40704v18.92814c0 3.58897.45067 6.30938 1.352 8.15303 1.61422 3.34315 4.74433 5.01473 9.39033 5.01473 1.61422 0 3.02359-.21305 4.21991-.63914 1.20452-.41789 2.44181-1.20451 3.72827-2.35987.42609-.36873.78662-.78662 1.098-1.27007.30317-.47525.49983-.77023.57358-.86037v4.43296h7.98095v-31.39941h-8.3251v17.08449c0 2.01572-.2704 3.63813-.80301 4.86723-1.04064 2.26974-2.95804 3.40051-5.76858 3.40051-2.1878 0-3.65452-.79481-4.40018-2.39264-.42609-.90134-.63913-2.24516-.63913-4.03145zm5.76038-.83579zm42.0762 10.1114c1.10618 1.86003 1.65518 4.00686 1.65518 6.4241 0 2.94164-.59816 5.29332-1.80268 7.05503-1.19632 1.7699-2.94165 2.65485-5.22777 2.65485-1.57325 0-2.93345-.43428-4.0888-1.29465-1.94199-1.48311-2.90888-4.04784-2.90888-7.69417 0-2.30251.2868-4.20352.86037-5.70302 1.11439-2.82693 3.16289-4.2363 6.1373-4.2363 2.48279 0 4.26908.93412 5.37527 2.79416zm6.30937-5.90788c-2.54833-2.70402-5.65386-4.05603-9.31658-4.05603-2.51555 0-4.68696.6965-6.51423 2.09767-.99966.78662-1.94197 1.86823-2.82693 3.22843v-4.6378h-7.85804v43.75596h8.12025v-16.36342c.86857 1.32743 1.74532 2.33529 2.65486 3.03178 1.647 1.24549 3.72007 1.86823 6.21924 1.86823 3.91674 0 7.12059-1.45034 9.60337-4.35101 2.49098-2.90068 3.73647-7.1124 3.73647-12.64334 0-5.24416-1.27827-9.21825-3.8184-11.93047z"/></svg>