<svg xmlns="http://www.w3.org/2000/svg" role="img" viewBox="-7.99 -7.99 415.74 93.74"><title>Doxygen logo</title><g fill-rule="evenodd"><path fill="#e1e1e3" d="M61.389 5.03c-.553.268-.555.362-.417 23.553l.128 21.5.471 1.417.47 1.417.771-.845c1.142-1.25 3.634-3.009 6.009-4.239.828-.429 2.363-.483 3.134-.111.387.188.749.297.803.242.406-.406.502-7.464.142-10.403l-.105-.857-.809-.107c-.889-.118-.811.005-1.319-2.097-.207-.859-.571-9.153-.57-13 0-3.404.439-4.934 1.795-6.25 3.469-3.369 11.951-1.616 14.093 2.912.248.525.616 1.163.816 1.419.201.255.366.557.366.671 0 .114.112.3.249.414.137.114.34.517.451.895.111.379.336.787.5.906.447.326.601.704.801 1.967.1.632.328 1.626.507 2.209.732 2.385-.074 7.281-1.433 8.699-.234.244-.552.668-.708.943-.35.617-2.116 2.215-2.447 2.215-.133 0-.495.222-.805.494-.708.622-1.193.807-2.897 1.107-.751.132-1.679.351-2.063.486-.383.136-.948.246-1.254.246-.385 0-.738.16-1.146.518l-.589.517.002 2.524c.003 3.706.52 5.441 1.622 5.441.81 0 3.316-.721 4.626-1.331.55-.256 1.45-.655 2-.886 6.349-2.663 9.223-5.499 12.958-12.783.728-1.421 1.486-2.72 1.683-2.887.198-.168.532-.452.744-.632.382-.326.385-.326.666.015.156.188.516.408.801.488l.519.147.106-1.257c.264-3.119.097-4.915-.482-5.179-.462-.211-.702-1.198-.895-3.682-.11-1.422-.195-1.763-.583-2.322-.25-.36-.551-1.023-.67-1.472-.249-.945-.514-1.498-.943-1.971-.167-.185-.426-.635-.575-1-.149-.365-.488-.889-.753-1.164-3.106-3.22-4.241-4.286-4.941-4.641-.441-.224-.941-.562-1.112-.751-.171-.189-.822-.539-1.446-.778-.625-.238-1.229-.546-1.343-.683-.325-.392-1.19-.691-2.804-.97-.82-.141-1.881-.411-2.358-.598-1.579-.623-20.6-1.03-21.766-.466m221.278 12.843c-3.206.27-5.962.881-6.584 1.459-.183.171-.783.476-1.333.679-.856.316-1.774.967-2.917 2.07-.571.552-1.213 1.193-1.553 1.552-.2.21-.634.66-.965 1-.331.339-.757.971-.947 1.404-.19.434-.571 1.071-.845 1.417-.351.441-.557.953-.69 1.713-.104.595-.388 1.495-.63 2-.766 1.596-.801 7.167-.054 8.631.187.367.496 1.249.686 1.96.417 1.553.531 1.782 1.06 2.129.225.147.497.536.606.865.131.397.416.735.854 1.012.362.228.742.6.845.826.123.269.409.471.824.583.35.095.715.317.809.494.155.289.303.312 1.462.227.859-.063 1.788-.004 2.788.178 6.131 1.116 6.439 1.154 9.5 1.163 3.363.01 4.036-.114 6.667-1.228.825-.349 1.8-.739 2.167-.868.586-.206.69-.323.861-.978.774-2.955-.802-6.678-2.296-5.422-.277.234-1.043.584-1.701.779-.659.195-1.487.548-1.84.786-.923.621-3.49.75-4.066.205-.491-.465-.477-.56.182-1.3.307-.344.643-.877.748-1.185.105-.308.483-.989.842-1.514.685-1.005.86-1.628 1.185-4.233.586-4.686 4.416-8.542 8.46-8.516 1.46.009 1.969-.421 1-.846-.226-.099-.46-.431-.587-.832-.352-1.105-2.841-3.479-4.211-4.015-.409-.16-1.062-.515-1.45-.789-.778-.55-2.66-1.007-5.294-1.287-.825-.088-1.613-.181-1.75-.206-.138-.026-.963.013-1.833.087m-160.084.133c-2.968.2-4.899.669-5.768 1.4-.259.219-.832.517-1.272.663-.441.147-1.164.566-1.607.932-.443.366-.891.669-.996.674-.104.004-.677.536-1.273 1.182-.596.646-1.355 1.455-1.686 1.798-.332.342-.768 1.066-.97 1.609-.202.542-.54 1.174-.75 1.403-.364.395-.928 1.79-.928 2.293 0 .129-.232.809-.517 1.512-.785 1.939-.803 6.843-.032 8.529.273.595.631 1.597.796 2.226.2.762.461 1.307.783 1.637.265.271.602.791.747 1.154.152.38.456.76.713.893.247.128.661.539.921.914.26.374.645.725.857.778.212.053.473.202.579.33.116.139.508.234.97.234.683 0 2.494.288 6.85 1.091 3.147.58 7.175.171 9.836-.999 4.687-2.061 7.326-5.526 9.993-13.122.359-1.022.459-1.15 1.216-1.562.958-.521.986-.813.234-2.432-.229-.491-.462-1.306-.52-1.81-.172-1.506-.455-2.385-.954-2.964-.259-.301-.472-.655-.472-.786s-.334-.615-.742-1.075c-.409-.46-.815-.969-.903-1.13-.088-.162-.585-.632-1.104-1.045-.518-.412-1.259-1.026-1.646-1.364-.386-.338-1.112-.77-1.612-.96-.5-.19-1.217-.554-1.593-.81-1.234-.84-5.72-1.425-9.15-1.193m117.667-.052c-2.463.188-5.064.817-5.662 1.37-.186.172-.812.504-1.392.738-.58.233-1.211.624-1.403.868-.192.244-.593.546-.89.67-.298.124-.7.448-.893.72-.194.271-.5.541-.68.598-.181.057-.517.426-.748.819-.23.393-.576.856-.769 1.03-.192.174-.598.808-.901 1.409-.303.601-.669 1.191-.813 1.311-.145.12-.418.753-.607 1.407s-.536 1.752-.77 2.439c-.595 1.747-.662 6.99-.104 8.084.188.366.535 1.306.772 2.088.318 1.048.57 1.551.959 1.917.29.272.668.806.84 1.187.217.48.465.746.812.866.285.1.651.429.849.767l.35.591 1.691.001c.931 0 2.367.108 3.192.239.825.13 2.513.322 3.75.424 3.193.266 3.894.49 4.498 1.443l.481.759-.489.675c-.681.94-.662.959.915.959h1.405l.085-.875c.046-.481.165-1.662.262-2.625.252-2.474.234-5.944-.032-6.111-.114-.072-1.224-.146-2.465-.164-2.209-.033-3.66-.327-3.66-.744 0-.083-.375-.381-.833-.663-.458-.282-.833-.575-.833-.652 0-.076-.269-.388-.596-.694-.704-.655-1-1.172-1.159-2.024-.065-.343-.247-.693-.406-.778-2.916-1.56-1.178-6.927 2.915-9 3.075-1.557 7.609-.373 8.003 2.089.08.5.227.739.581.942.343.197.506.449.587.911.061.351.284.939.494 1.307.714 1.25.773 2.146.717 10.831l-.053 8.167-.876 1.777c-.892 1.808-1.232 2.183-3.043 3.352-1.842 1.189-6.203 1.746-8.596 1.097-2.745-.743-2.733-.759-2.721 3.607.014 5.033.399 5.975 2.069 5.064 2.024-1.104 2.582-1.322 4.613-1.801 6.171-1.456 7.987-2.155 10.203-3.929 4.048-3.241 5.965-7.395 6.767-14.667.452-4.103.952-7.224 1.373-8.582.292-.94.34-1.577.357-4.781l.021-3.696-.452-.473c-.257-.269-.606-.973-.811-1.637-.224-.726-.565-1.392-.906-1.771-.301-.334-.596-.759-.655-.946-.059-.187-.368-.493-.685-.68-.318-.188-.667-.537-.776-.776-.109-.239-.502-.587-.873-.773-.372-.186-.866-.516-1.099-.734-2.073-1.939-7.503-3.283-11.91-2.947m75.417.378c-1.81.343-2.445.561-2.917 1-.183.171-.799.512-1.368.758-.569.246-1.145.615-1.279.821-.135.205-.515.501-.845.657-.33.157-.782.574-1.005.927-.223.354-.557.749-.742.879-.185.129-.538.679-.784 1.222-.245.543-.644 1.216-.886 1.496-.342.395-.526.937-.821 2.417-.21 1.049-.53 2.433-.711 3.074-.314 1.109-.328 1.611-.278 10.119l.052 8.952.834.85.833.851.5-.555c.275-.305 1.156-1.105 1.957-1.778 4.21-3.533 4.554-4.45 4.38-11.675-.153-6.38.205-7.957 2.279-10.03 3.203-3.204 8.29-1.743 9.056 2.6.065.366.235.891.378 1.166.226.434.262 1.63.272 9l.011 8.5.472 1.5c.596 1.894.604 1.901 1.267 1.016.304-.406 1.189-1.25 1.968-1.876 4.185-3.366 4.709-4.598 4.711-11.07.002-5.665.154-6.495 1.616-8.832.254-.406.241-.499-.243-1.766-.28-.735-.564-1.77-.63-2.298-.087-.696-.246-1.106-.576-1.484-.251-.288-.503-.673-.56-.856-.098-.314-1.501-1.816-2.851-3.053-.332-.304-.882-.669-1.222-.811-.34-.142-.865-.475-1.166-.739-.301-.264-.603-.481-.67-.481-.068 0-1.021-.187-2.119-.415-2.527-.526-6.399-.563-8.913-.086m-168.068.363c-.626.893-.265 7.171.497 8.636.215.414.506 1.199.647 1.745.175.677.437 1.181.823 1.584.311.324.715.89.899 1.257.183.366.499.816.702 1 1.091.986 1.09 1.739-.003 3.083-.336.412-.694.908-.797 1.101-.102.193-.446.661-.763 1.041-.318.38-.629.935-.692 1.233-.063.298-.363 1.07-.666 1.717-.682 1.452-.918 3.018-.897 5.962.04 5.641.472 6.686 2.04 4.942.423-.471 1.427-1.379 2.232-2.017 2.627-2.086 3.4-3.248 4.696-7.056 1.379-4.052 3.013-5.673 5.688-5.645 2.059.021 3.857 1.245 4.109 2.795.054.331.212.622.366.671.75.238.978 1.537 1.156 6.589l.114 3.25.485.635c.91 1.188.964 1.19 2.145.047.576-.558 1.782-1.681 2.678-2.495 1.62-1.471 3.56-3.703 4.063-4.676.652-1.261.207-4.789-.674-5.345-.312-.196-.596-.556-.69-.874-.092-.312-.304-.585-.5-.644-.446-.135-1.09-.73-1.09-1.009 0-.121-.219-.414-.486-.652-2.458-2.19.727-11.125 4.162-11.674.708-.113.72-.134.975-1.646.255-1.511.274-3.117.042-3.542-.268-.49-8.75-.587-10.328-.119-1.046.311-.999.147-1.083 3.828-.087 3.886-.255 4.364-1.925 5.5-1.656 1.126-2.804 1.17-4.575.178-1.866-1.046-2.165-1.902-2.185-6.259l-.014-2.913-.5-.253c-.406-.206-1.429-.263-5.443-.304l-4.942-.051-.266.38M187 18.53c-1.067.305-1-.46-1 11.406 0 10.361.016 10.943.325 11.855.178.527.445 1.446.593 2.042.438 1.766.616 2.138 1.276 2.669.391.314.701.749.822 1.152.252.841 2.097 1.248 2.795.617 1.759-1.593 8.547-.712 9.842 1.277l.403.619h1.568c1.51 0 1.586.018 2.054.485l.485.486-.328.723c-.18.397-.329.849-.331 1.004-.002.155-.305.642-.674 1.083-1.555 1.863-2.482 2.659-3.356 2.884-.398.102-1.319.38-2.047.618-1.516.495-4.873.484-5.841-.018-.916-.475-2.728-.695-3.052-.371-.398.399-.402 7.309-.005 8.356.39 1.027 1.485 1.116 2.854.23.784-.506 1.409-.726 3.252-1.143 7.323-1.658 7.594-1.742 9.72-3.005 5.127-3.046 7.703-8.574 8.307-17.832.099-1.513.223-3.088.276-3.5.053-.413.145-3.563.206-7l.109-6.25.8-1.2c1.166-1.75 1.93-6.24 1.2-7.047-.466-.515-9.389-.519-10.17-.005l-.5.329-.083 8.962-.083 8.961L205.93 38c-.878 1.955-3.623 3.434-4.851 2.614-.181-.121-.676-.349-1.099-.506-1.556-.577-2.529-2.171-2.843-4.653l-.196-1.557-.783-.438c-1.986-1.108-1.925-6.509.096-8.627l.716-.75.292-2.446c.274-2.296.275-2.472.011-2.875l-.281-.429-4.704.015c-2.588.009-4.967.09-5.288.182m-61.309 7.907c1.125.315 2.792 1.694 3.142 2.598.377.971 1.042 2.379 1.164 2.465.218.152.458.741.577 1.417.065.366.303 1.207.529 1.867l.412 1.2-.322.633c-.177.348-.471 1.134-.654 1.746-.638 2.133-3.764 4.304-6.199 4.304-1.393 0-3.69-1.103-4.84-2.322-.413-.438-.948-.916-1.19-1.062-.437-.265-.974-1.465-.979-2.188-.001-.211-.232-.494-.597-.731-1.436-.93-1.676-3.66-.506-5.752 1.293-2.312 3.325-3.776 6.022-4.337.808-.169 2.557-.086 3.441.162m155.828 1.535c.265.204.945.372 2.037.503 1.722.208 2.313.419 2.861 1.026l.333.368-.52.441c-.287.242-.684.762-.882 1.155-.199.393-.546.799-.771.901-.224.103-.558.44-.741.751-.183.31-.546.686-.806.835-.26.149-.595.484-.745.745-.149.26-.537.63-.861.821-.325.192-.591.458-.591.592 0 .351-1.596 1.987-2.172 2.226-1.149.476-1.385-.108-1.736-4.299-.301-3.602-.269-4.158.268-4.644.188-.17.444-.509.571-.753.446-.864 2.927-1.305 3.755-.668M91.583 58.356c-4.77.254-24.076.335-28.447.12-5.222-.257-4.702-.665-4.584 3.603.14 5.037.165 5.07 2.757 3.766 1.321-.664 2.388-1.025 4.024-1.364.672-.139 15.584-.204 55.834-.242 62.345-.058 56.199.106 61.945-1.655l1.528-.469.175-.695c.79-3.138.752-3.172-3.314-2.986-4.04.186-9.781.17-13.834-.037-1.696-.087-4.096-.109-5.334-.049-7.517.365-8.468.369-13.898.061-5.78-.329-5.618-.331-18.185.287-3.971.196-7.05.125-16-.367-3.225-.178-19.178-.159-22.667.027m130.972.142c-1.429.158-1.555.223-1.556.804-.001.729-.318 1.655-.734 2.151-.214.255-.527.901-.695 1.435-.229.726-.463 1.097-.927 1.464-.341.27-.704.746-.807 1.056-.129.392-.337.618-.678.737-1.032.359-.555.563 1.134.485l1.625-.074 2.263-1.204c3.686-1.96 5.26-3.486 5.678-5.506.167-.809.167-1.055.001-1.221-.249-.249-3.497-.327-5.304-.127m42.195-.026c-.951.176-1.026.255-1.155 1.224-.075.568-.286 1.102-.605 1.537-.27.366-.49.745-.491.842-.003.651-.456 1.566-1.096 2.216-.405.41-.736.843-.736.961 0 .119-.282.443-.625.72-1.498 1.208 1.936 1.116 5.112-.138 3.987-1.573 2.743-1.521 35.651-1.507 32.785.014 30.726.115 35.607-1.734 1.68-.636 1.653-.598 1.85-2.597.144-1.464.764-1.342-7.309-1.444-10.711-.135-11.505-.134-16.786.016-3.226.091-6.264.076-8.834-.046-3.141-.148-4.972-.136-9.25.06-6.11.281-11.64.309-16.083.082-4.209-.215-14.43-.344-15.25-.192m-219.138.15l-.637.066.054 3.226c.059 3.526.068 3.564.751 3.205.259-.136 1.107-.55 1.887-.922 1.334-.635 4.426-2.47 5.021-2.979.354-.303.578-2.147.301-2.481-.19-.229-5.478-.312-7.377-.115m298.284.122c-.137.357-.002 6.707.146 6.854.069.069.294-.029.5-.218.206-.189.937-.625 1.625-.968 1.392-.695 4.299-2.409 5.108-3.012.605-.451.963-2.163.555-2.654-.303-.365-7.794-.367-7.934-.002"/><path fill="#264da0" d="M0 39v39h400V0H0v39M84.775 4.358c.472.138 1.097.452 1.388.697.292.245.734.445.986.445.849 0 2.136.484 2.414.908.181.278.588.497 1.282.692.759.213 1.126.424 1.456.837.243.304.646.598.897.653.64.141 5.29 4.806 5.415 5.434.052.257.339.654.64.883.334.255.645.708.801 1.167.141.412.483 1.033.76 1.379.355.443.591 1.022.793 1.947.183.833.427 1.466.666 1.723.845.912 1.255 11.963.523 14.11-.153.448-.214.748-.136.666.327-.343.535-1.621.622-3.816.11-2.784.254-3.204.518-1.51.107.689.421 1.94.697 2.779 1.075 3.261.646 9.496-.732 10.636-.158.131-.401.458-.54.727-.139.269-.534.8-.878 1.179-.343.379-.875 1.064-1.181 1.523-3.307 4.95-7.251 7.934-11.682 8.836-3.966.808-5.784.95-8.412.658-3.704-.413-4.986-.47-6.278-.278-.666.098-1.961.27-2.877.383-.917.112-1.72.248-1.784.302-.281.238 17.531.021 21.7-.264 5.212-.357 18.076-.402 21.834-.077 1.329.115 3.616.241 5.083.279 2.904.075 2.948.11-1-.773-2.547-.57-2.918-.751-4.723-2.305-1.062-.913-2.526-2.79-2.528-3.239 0-.104-.152-.437-.336-.74l-.337-.552.711.052c.558.04.722.122.767.384.076.443.495.751 1.02.749l.426-.001-.44-.29c-.242-.16-.579-.463-.75-.672-.17-.21-.496-.474-.723-.587-.227-.113-.577-.497-.777-.854-.2-.357-.544-.758-.765-.891-.22-.134-.578-.591-.794-1.015-.217-.425-.608-1.002-.868-1.283-.284-.308-.602-.965-.799-1.652-.179-.627-.512-1.41-.74-1.739-.667-.963-.81-2.089-.827-6.515-.018-4.382.056-4.899.839-5.83.226-.268.549-.985.718-1.594.204-.738.48-1.285.83-1.646.288-.297.6-.816.693-1.153.168-.608.721-1.275 1.059-1.278.098-.001.303-.302.457-.669.213-.506.397-.69.764-.763.364-.073.537-.243.697-.686.157-.434.372-.651.822-.828.335-.132.733-.454.883-.716.212-.369.505-.542 1.285-.761.658-.185 1.206-.473 1.569-.826.457-.444.784-.582 1.796-.758.907-.158 1.38-.338 1.77-.674.703-.604 1.492-.691 5.658-.623l3.357.055.727.523c.535.385 1.042.571 1.923.708 1.547.24 1.974.411 2.312.927.169.258.547.494.967.605.38.1.953.428 1.274.73.32.301.931.747 1.356.991.425.243.958.721 1.186 1.063.227.341.721.955 1.097 1.364.376.409.73.958.788 1.219.057.261.27.551.472.643.516.235.714.613.96 1.833.127.629.336 1.15.512 1.279.586.431.813 1.184.906 3.001.066 1.281.185 1.981.424 2.494.385.824.31 3.01-.138 3.995-.135.298-.277.936-.316 1.417-.073.913-.008.815.166-.25.116-.71.477-.822 1.072-.333.309.254.368.527.458 2.126.232 4.139-.545 7.515-2.228 9.681-.349.45-.84 1.134-1.091 1.521-.86 1.327-3.95 3.613-5.428 4.016-1.965.535-4.331 1.044-5.53 1.19-1.759.213 3.713.012 6.967-.255 3.756-.309 9.249-.303 11.617.014 2.118.284 9.529.337 11.25.08 2.318-.345 6.302-.383 8.916-.084 2.013.23 3.653.275 8.417.233 9.374-.083 8.89-.544 8.247 7.853-.081 1.059-.078 1.068.129.43.375-1.162.938-.734 1.938 1.47 1.266 2.793-1.755 5.42-6.815 5.925-2.901.29-115.555.156-116.832-.139-3.093-.713-4.968-2.324-4.73-4.062l.103-.749 1.188-.164 1.189-.163-1.607-.024c-2.581-.039-2.604-.091-2.629-5.791-.022-5.008.268-5.276 5.152-4.743.779.086 2.654.192 4.167.237 2.14.064 2.408.051 1.21-.056-2.583-.231-5.079-1.138-5.391-1.958-.365-.96-.298-1.105.598-1.301.818-.179.806-.182-.667-.172-1.676.011-2.655-.252-2.943-.789-.385-.721-.49-7.188-.441-27.231l.051-20.529.349-.471c.64-.863.86-.877 12.984-.827 9.362.039 11.305.087 12.025.298m203.719 12.5c.409.177.86.427 1.003.556.142.128.774.316 1.405.417 1.357.217 1.63.345 2.082.98.234.329.537.51.97.58.726.116 2.074 1.136 3.672 2.776 2.263 2.324 2.667 4.919.903 5.818-.346.177-.72.519-.83.76-.177.388-.168.421.073.286 1.226-.686 2.58 1.344 2.147 3.219-.409 1.764-2.896 4.982-4.385 5.672-.339.157-.853.462-1.142.677-.288.216-.851.442-1.25.503-.913.14-1.876.617-2.21 1.094-.418.597-.167.558.826-.125.81-.558 1.057-.644 1.879-.648 2.011-.01 2.303.343 2.631 3.178.142 1.217.328 2.045.543 2.417.75 1.29 1.044 5.813.424 6.498-.363.402.007.446.551.065.598-.419 1.224.783 1.012 1.946-.395 2.176-2.336 3.772-4.809 3.954-.956.07 5.723.128 14.844.127 9.121 0 19.493.013 23.05.029l6.465.03.41.409c.452.452.568 3.65.25 6.924-.159 1.637-.104 1.863.188.772.254-.948.331-.954.938-.064 2.229 3.264.413 6.123-4.551 7.165-1.454.306-67.095.298-68.897-.007-3.176-.539-4.714-2.172-3.78-4.012.381-.75.42-.776 1.451-.959.978-.173.824-.189-1.99-.208-3.183-.021-3.603-.102-4.247-.813-.286-.316-.276-.349.295-.975.324-.357 1.02-1.211 1.546-1.899.526-.687 1.044-1.307 1.151-1.376.277-.178.507-.99.73-2.57.361-2.552.008-2.475 11.325-2.453 5.831.012 8.337-.028 7-.112-2.359-.147-2.935-.344-5.565-1.908-2.465-1.466-5.269-4.604-5.269-5.897 0-.537 1.556-.146 1.737.436.07.224.325.43.648.523.293.085.682.208.865.273.184.066.071-.048-.25-.252-.579-.369-1.817-1.388-2.372-1.953-1.431-1.455-1.997-2.183-2.25-2.896-.163-.46-.421-.859-.588-.912-.436-.139-.731-.69-.971-1.82-.134-.625-.359-1.138-.601-1.368-.722-.687-.782-1.09-.848-5.729-.07-4.836-.001-5.399.783-6.385.354-.446.54-.937.688-1.814.171-1.014.29-1.286.759-1.729.306-.29.679-.83.827-1.201.179-.448.436-.749.762-.891.27-.119.532-.378.582-.575.113-.445.702-1.004 1.144-1.085.182-.033.359-.209.392-.391.083-.458.644-1.033 1.126-1.154.22-.055.401-.199.401-.318 0-.358.702-.897 1.458-1.12.39-.115.708-.271.708-.347 0-.38 1.328-.977 2.584-1.161 1.061-.156 1.445-.293 1.88-.672.302-.262.602-.486.667-.498 2.123-.377 7.983-.239 9.03.213m-42.577-.175c.366.1.854.353 1.083.563.256.235.738.426 1.25.497 1.551.214 2.25.462 2.848 1.01.327.3.916.668 1.307.817.429.164.786.434.898.68.102.224.453.519.78.656.386.161.672.433.817.777.135.321.429.615.75.75.316.133.615.429.745.738.119.284.446.655.726.826.358.217.593.559.787 1.144.152.458.391.928.53 1.043.42.349.851 1.345 1.075 2.48.116.589.383 1.326.594 1.637.211.311.442.84.514 1.174.154.726.164 14.296.012 16.442-.069.97-.057 1.264.034.833.078-.367.228-2.709.334-5.204.251-5.91.272-5.983 1.049-3.545 1.067 3.353 1.077 3.468.609 7.582-.084.734-.223 2.346-.31 3.584-.328 4.66-.611 6.306-1.589 9.25-.858 2.581-.974 2.826-1.638 3.453-.342.322-.622.7-.622.838 0 .139-.259.45-.576.692-.594.453-.921 1.229-.923 2.19-.001.536-.416.876-3.301 2.699-4.926 3.114-12.984 3.987-17.341 1.88-1.511-.73-1.968-1.277-2.617-3.127L233.377 68l.77-.017c1.355-.029 1.75-.281.47-.3-2.649-.039-3.427-1.811-3.231-7.359.149-4.206-.033-4.072 5.531-4.081 5.115-.009 6.204-.127 6.463-.696.102-.224.455-.545.784-.713.552-.281 2.003-1.552 2.003-1.754 0-.188-.86.489-1.164.916-.177.248-.569.522-.871.609-.322.092-.686.371-.882.675-.319.496-.396.523-1.797.637-5.963.485-10.507-1.367-13.012-5.301-.338-.533-.566-1.048-.505-1.147.113-.183 1.676-.105 2.314.115.183.064-.047-.11-.511-.387-.999-.594-3.165-2.889-3.438-3.643-.106-.291-.366-.622-.578-.735-.359-.193-1.056-1.663-1.056-2.229 0-.127-.196-.463-.434-.747-.799-.949-.915-1.728-.916-6.146-.001-5.215.074-5.751.937-6.697.22-.241.465-.835.582-1.411.155-.758.34-1.132.781-1.573.318-.318.666-.846.773-1.172.131-.403.364-.674.722-.844.376-.177.558-.4.628-.766.119-.623 1.92-2.401 2.431-2.401.211 0 .469-.218.679-.573.25-.424.548-.643 1.141-.84.442-.147.943-.425 1.114-.618.414-.466 1.453-.905 2.478-1.048.468-.065.991-.262 1.193-.449.826-.767 7.05-1.19 9.141-.622m77.813-.002c.355.099.832.366 1.059.593.323.323.673.443 1.604.552 1.486.174 1.73.273 2.014.819.155.298.51.538 1.11.749.6.211 1.133.57 1.668 1.125.431.448.866.814.965.814.098 0 .378.319.622.709.243.389.687.981.985 1.314.301.338.659 1.009.805 1.513.145.498.422 1.049.616 1.225.559.506.658.804.915 2.757.133 1.012.315 1.977.405 2.144.096.18.13 1.354.084 2.863-.222 7.267-.246 13.502-.051 13.437.789-.263 1.084-1.962 1.138-6.545.011-1.008.081-1.983.155-2.167.113-.284.391 11.405.346 14.567-.016 1.148-.583 2.418-1.644 3.683l-.489.584h-3.993c-4.768 0-5.317-.213-5.809-2.25-.214-.882-.211-.886.682-1.082.813-.178.795-.182-.75-.184-3.254-.004-3.084.598-3.084-10.927 0-8.874-.067-10.554-.321-7.978l-.116 1.171-1.394.665c-1.526.729-2.175 1.373-3.024 3.001l-.478.917-.049 3.75c-.026 2.063.012 4.788.086 6.056.197 3.392-.291 5.054-1.849 6.307l-.688.554h-7.734l-.68-.664c-.64-.626-1.322-2.154-1.073-2.406.053-.054.446-.179.875-.279.744-.174.705-.182-.861-.198-2.927-.03-2.694 1.061-2.694-12.62 0-11.926.004-11.985.739-13.101.272-.413.561-1.163.663-1.719.185-1.012.524-1.694 1.017-2.046.154-.11.408-.537.566-.949.2-.524.433-.815.776-.966.309-.137.556-.416.667-.753.125-.377.36-.615.801-.81.344-.151.695-.436.781-.632.086-.197.546-.545 1.022-.774.476-.229 1.039-.582 1.252-.784.501-.474 1.339-.812 2.383-.96.464-.065.992-.265 1.193-.451.823-.764 6.763-1.186 8.787-.624m-166.049.338c.573.123 1.068.371 1.467.737l.602.551.108 3.472c.059 1.909.115 3.553.125 3.654.13 1.389 5.184 2.52 5.184 1.16 0-.113.3-.474.666-.803l.667-.599.001-2.887c.002-5.422.192-5.556 7.788-5.447l4.206.06.627.627.628.627.053 2.541c.049 2.373-.248 5.849-.572 6.693-.079.208-.059.278.058.205.215-.132.71-1.528.714-2.015.004-.445.808.825 1.223 1.932.725 1.937-.479 6.357-2.451 9-.312.418-1.652.126-2.206-.481-.418-.458-.417-.455.036.287.252.413.66.975.907 1.25s.541.8.655 1.167c.113.367.411.892.662 1.167.702.769.724.906.83 5.083.081 3.215.125 3.727.244 2.856l.144-1.061.243.561c1.884 4.349 1.473 7.925-1.03 8.959-2.87 1.186-5.618 1.183-8.483-.01-1.583-.658-1.828-1.887-.444-2.223.7-.17.638-.183-.916-.185-2.788-.004-2.744.079-2.769-5.2-.016-3.246-.26-4.852-.305-2.003-.009.599-.031.618-1.188 1.072-2.079.816-3.175 2.138-3.812 4.597-.698 2.699-1.018 3.351-1.843 3.751-2.874 1.395-6.303 1.413-9.39.047-1.078-.477-1.357-1.861-.412-2.042.212-.041-.117-.084-.732-.096-2.375-.049-2.365-.023-2.372-6.514-.006-6.212.066-6.869.843-7.646.372-.372.63-.837.742-1.337.189-.841.703-1.778 1.049-1.911.122-.047.382-.427.578-.845.218-.463.553-.861.859-1.019.621-.322.621-.347-.012-.675-.351-.181-.623-.527-.856-1.088-.188-.452-.406-.821-.485-.821-.284 0-1.12-1.36-1.228-1.996-.071-.42-.25-.741-.507-.91-.723-.474-.922-1.621-1.025-5.928-.122-5.064.141-6.032 1.724-6.337 1.041-.202 8.444-.183 9.405.023m38.699-.035c.799.132 1.224.442 1.622 1.186.218.408.265 5.347.094 9.997-.054 1.468-.034 1.837.066 1.25.078-.459.149-1.335.157-1.949.008-.613.086-1.159.174-1.214.965-.596 1.502 7.799.57 8.907-.595.706-.631.619-.751-1.799l-.104-2.112.04 2.417.04 2.416.603.888c.332.488.688 1.172.793 1.52.321 1.072 3.344 1.123 4.464.076.79-.738.85-1.511.851-10.986.001-9.891-.102-9.265 1.676-10.207l1.064-.564 4.52.053 4.52.054.681.471c1.318.915 1.576 1.502 1.484 3.388-.045.902-.157 6.253-.249 11.891-.093 5.637-.221 11.843-.284 13.791-.095 2.933-.076 3.542.112 3.539.565-.006.627-.258.693-2.835.036-1.418.188-4.266.336-6.329.148-2.062.288-4.875.309-6.25l.04-2.5.113 2.834c.062 1.558.193 4.521.291 6.583.134 2.802.13 4.235-.017 5.667-.108 1.054-.199 2.929-.204 4.166-.014 3.715-.225 5.611-.685 6.158-.562.667-.675 1.069-.808 2.863-.11 1.485-.15 1.621-.537 1.828-.23.123-.557.498-.728.833-.311.609-.713 1.089-2.207 2.639-.848.88-.907 1.237-.352 2.128.726 1.164-6.243 4.518-11.017 5.303-6.468 1.064-12.75-1.049-12.75-4.287v-.755l1.208-.141 1.209-.141-1.474-.089c-2.436-.147-2.504-.345-2.413-7.043.051-3.773.07-3.97.408-4.308.413-.412.329-.408 3.895-.185 1.513.094 3.575.12 4.584.056l1.833-.115-2.935-.107c-3.211-.117-3.245-.126-5.284-1.425-1.084-.691-2.364-1.723-2.364-1.906 0-.068-.19-.403-.421-.744-.232-.342-.357-.684-.279-.762.178-.178 2.033.027 2.033.223 0 .317.694.81 1.125.8.401-.009.417-.027.125-.147-.183-.075-.481-.3-.66-.5-.18-.2-.677-.514-1.103-.697-.427-.184-.863-.498-.971-.698-.107-.201-.423-.496-.702-.656-.301-.173-.612-.556-.764-.944-.141-.358-.39-.687-.553-.73-.408-.106-.772-.711-1.023-1.701-.117-.458-.377-1.037-.579-1.287-.818-1.014-.812-.899-.812-14.084V18.34l.525-.525c.831-.831 1.639-.959 6.059-.96 2.154-.001 4.275.057 4.713.129M86.916 22.985c.28.909.598 1.506.925 1.735.28.196.336.386.294 1.003l-.052.762-1.297-.653c-5.438-2.738-8.928-2.357-10.748 1.173l-.538 1.042v3.747c0 3.82-.24 6.208-.762 7.584-.181.478-.231 1.399-.207 3.834l.03 3.205.097-2.75c.139-3.976.198-4.03 4.686-4.351l2.739-.195.5-.55c.44-.484 1.68-1.064 2.298-1.075.111-.002.315-.245.452-.541.141-.303.486-.648.788-.788.296-.138.54-.351.542-.475.007-.412.529-1.339 1.088-1.931.779-.826 1.105-7.612.437-9.094-.301-.668-1.413-2.138-1.272-1.682M73.881 26.75c.001.458.034.626.072.373.038-.254.037-.629-.002-.834-.04-.205-.071.003-.07.461m.189 8.75c0 1.787.024 2.519.054 1.625.03-.894.03-2.356 0-3.25-.03-.894-.054-.163-.054 1.625M246.349 34c-.009.504-.093 1.189-.186 1.522l-.168.605-1.539.074c-1.826.087-3.516.713-5.126 1.898l-.991.73-.113-.456c-.147-.599-.531-1.179-.916-1.386-.24-.128-.197.013.19.623.275.434.5.909.5 1.056 0 .359.329.667.713.667.172 0 .544.232.827.515.747.747 1.005.801 3.9.827 2.272.021 2.651-.013 2.827-.253.546-.747.739-4.508.326-6.339l-.226-1-.018.917m-116.712.902c-.084 1.319-.081 1.316-.995 1.111-1.723-.386-4.459.407-6.772 1.963-1.521 1.022-1.543 1.03-1.688.648-.18-.473-.466-.71-1.015-.843-.416-.101-.416-.1-.069.184.192.157.517.566.722.91.206.344.449.625.54.625.091 0 .456.293.811.652 1.285 1.297 6.48 1.045 6.918-.336.057-.181.388-.508.735-.727.793-.5 1.036-1.346 1.024-3.567-.01-1.85-.113-2.153-.211-.62m186.436 8.431c0 2.429.023 3.423.052 2.209.028-1.215.028-3.202 0-4.417-.029-1.215-.052-.221-.052 2.208m-241.852-2.75c.001.642.031.884.067.538.036-.346.036-.871-.001-1.166-.037-.296-.066-.013-.066.628m215.406.202c.207.039.507.038.667-.004.159-.042-.011-.074-.377-.072-.367.002-.497.036-.29.076m-1.919.168c.252.038.665.038.917 0s.046-.07-.458-.07c-.505 0-.711.032-.459.07m-60.052 7.589c-.01.506-.021.516-.167.151-.086-.215-.114-.459-.063-.542.171-.276.241-.157.23.391m-118.006.25c-.015.557-.031.58-.15.208-.191-.596-.191-.833 0-.833.092 0 .159.281.15.625m159.347-.25c-.002.303-.033.327-.164.125-.208-.323-.208-.5 0-.5.092 0 .166.168.164.375m-67.251 6.698c-.299.392-.605.595-.967.64l-.529.067.5.024c.591.028.712-.048 1.213-.763.506-.72.338-.695-.217.032m26 2.421c.959.223 1.087.496 1.087 2.313 0 1.751-.431 5.898-.674 6.49-.139.337-.122.361.153.214.17-.091.403-.393.519-.672.115-.278.261-.506.325-.506.434 0 1.976 2.565 1.66 2.761-.077.047-.228.378-.334.735-.668 2.226-5.576 4.185-8.315 3.317-2.958-.936-3.432-3.882-.712-4.42.876-.173.696-.192-2.008-.208-3.031-.019-3.348-.076-4.071-.734l-.373-.34.397-.521c.219-.287.649-.785.957-1.108 1.863-1.955 2.805-3.771 2.808-5.411.002-1.113.899-1.735 2.752-1.911 1.794-.171 5.09-.17 5.829.001m-174.356.191c.861.392.937 1.26.516 5.877-.304 3.337-.423 3.587-1.727 3.629l-.762.025.75.103c.927.127 1.844-.048 2.102-.401.17-.232.24-.193.546.302.696 1.126.416 2.143-.848 3.075-2.934 2.164-7.101 1.162-6.719-1.616l.112-.815 1.445-.2c2.683-.37 2.668-.475-.055-.392-1.467.045-2.836.116-3.043.158-.458.093-1.282-.308-1.471-.716-.076-.164-.166-2.114-.2-4.334l-.062-4.036.422-.422.422-.422h4.083c2.638 0 4.227.065 4.489.185m298.841.003c.69.314.829.94.715 3.197-.284 5.581-.491 6.259-1.933 6.306l-.763.025.75.102c.888.12 1.992-.036 2.159-.306.161-.26.508.946.508 1.767 0 1.352-2.552 2.889-4.393 2.646-2.614-.346-3.629-1.155-3.481-2.775l.07-.767 1.622-.207c.893-.113 1.88-.267 2.194-.341l.571-.135-.667-.008c-.366-.004-1.754.055-3.083.132-3.733.216-3.548.468-3.631-4.944l-.062-4.036.422-.422.423-.422h4.083c2.679 0 4.225.064 4.496.188m-312.67.324c.57.448.595 2.016.093 5.791-.419 3.159-.217 2.862-1.956 2.872-.796.005-2.536.108-3.865.23l-2.416.22-.393-.376c-.796-.761-.835-8.126-.047-8.764.628-.508 7.933-.486 8.584.027m326.449.105l.536.451-.097 1.591c-.12 1.975-.605 5.838-.775 6.174-.097.193-.616.276-2.275.366-1.182.064-2.899.184-3.816.266-2.619.236-2.583.299-2.707-4.662l-.091-3.614.512-.511.511-.512h7.666l.536.451M25.624 59.5c.082 1.818-.254 2.693-1.208 3.146-1.123.533-4.288 2.414-5.401 3.209-1.616 1.154-1.609 1.168-1.785-3.725-.145-4.045-.627-3.646 4.334-3.591l4.019.044.041.917m353.952.167c-.014 2.22-.148 2.585-1.099 2.994-.463.199-1.321.655-1.907 1.014-.585.358-1.587.915-2.226 1.236-.639.322-1.419.811-1.733 1.087-1.145 1.006-1.219.792-1.388-4.036-.135-3.85-.607-3.478 4.341-3.423l4.019.044-.007 1.084"/><path fill="#848b9a" d="M60.849 4.215c-.459.126-.865.378-1.083.672l-.349.471-.051 20.529c-.049 20.043.056 26.51.441 27.231.438.817.951.856 8.346.636l4.735-.141.464-.432.463-.431.187-3.583c.14-2.674.138-6.99-.008-17-.163-11.231-.158-13.526.031-14.084l.226-.666 1.39-.049c1.02-.036 1.753.047 2.75.311.747.198 1.922.49 2.609.647 1.413.325 2.1.638 2.584 1.179.183.205.61.494.949.642.339.148.791.532 1.004.853.213.321.555.657.759.748.204.09.45.404.546.696.097.292.438.875.759 1.295 1.231 1.613 1.32 8.866.123 10.063-.514.513-1.054 1.477-1.061 1.89-.002.124-.246.337-.542.475-.302.14-.647.485-.788.788-.137.296-.341.539-.452.541-.618.011-1.858.591-2.298 1.075l-.5.55-2.75.194c-3.332.236-4.107.513-4.475 1.602-.5 1.479.042 11.277.666 12.029.929 1.12 6.138.971 9.417-.269.72-.272 1.735-.612 2.256-.754.521-.143 1.159-.434 1.417-.648.258-.213.919-.592 1.469-.841s1.15-.59 1.333-.757c.184-.168.597-.437.917-.599 1.358-.685 4.659-3.93 5.928-5.828.246-.367.538-.72.651-.786.112-.065.414-.59.67-1.166.257-.577.673-1.285.924-1.574.251-.289.62-1.016.819-1.615.199-.599.575-1.357.836-1.685 1.304-1.642 1.394-13.917.112-15.301-.239-.257-.483-.89-.666-1.723-.202-.925-.438-1.504-.793-1.947-.277-.346-.619-.967-.76-1.379-.156-.459-.467-.912-.801-1.167-.301-.229-.588-.626-.64-.883-.125-.628-4.775-5.293-5.415-5.434-.251-.055-.654-.349-.897-.653-.33-.413-.697-.624-1.456-.837-.694-.195-1.101-.414-1.282-.692-.278-.424-1.565-.908-2.414-.908-.252 0-.694-.2-.986-.445-1.109-.933-1.258-.944-13.413-.995-8.33-.034-11.353.005-11.901.155m22.817.357c.595.152 1.319.416 1.608.586.289.171 1.095.428 1.793.573 1.287.266 2 .603 2.16 1.02.049.127.412.318.806.424.95.256 1.665.635 1.945 1.031.125.177.551.461.947.631.396.17.849.505 1.006.744.157.24.502.548.767.685s.597.491.738.788c.141.296.47.66.73.81.259.149.609.484.777.745.168.261.549.708.848.994.298.286.542.629.542.762s.26.545.578.916c.317.371.74 1.116.939 1.655.199.539.532 1.281.74 1.647.207.367.496 1.202.641 1.856.145.654.419 1.55.609 1.992.791 1.847 1.04 7.847.423 10.188-.274 1.038-1.946 2.806-2.805 2.968-.432.081-.681.302-1.176 1.049-.346.521-.766 1.135-.934 1.364-.168.229-.813 1.191-1.433 2.137-1.144 1.746-3.3 4.073-4.443 4.796-.336.213-.657.462-.714.554-.187.302-3.136 1.948-5.175 2.888-5.174 2.386-6.073 2.72-7.583 2.824l-.75.051-.546-1.033c-.899-1.7-1.204-3.232-1.204-6.052 0-3.633.315-3.977 4.118-4.509 2.963-.414 2.898-.396 3.564-.987.312-.277.866-.595 1.23-.707.742-.228 2.372-1.727 2.819-2.593.154-.297.427-.632.607-.744 1.435-.896 1.727-9.534.384-11.352-.212-.288-.508-.785-.656-1.106-.149-.321-.562-.901-.918-1.288-.356-.388-.648-.781-.648-.873 0-.093-.3-.358-.667-.589-.366-.232-.666-.519-.666-.638 0-.219-.841-1.112-1.047-1.112-.061 0-.444-.333-.851-.74-2.363-2.363-6.96-2.846-9.398-.987-1.642 1.253-2.193 4.82-1.296 8.389.327 1.3.564 3.446.766 6.921.095 1.65.285 4.05.421 5.333.54 5.106.475 9.809-.17 12.226-.296 1.111-.255 1.079-.978.777-1.857-.777-4.637.155-7.127 2.389-1.407 1.262-3.43 1.646-4.422.84-.48-.39-.551-3.401-.599-25.38l-.049-22.316.437-.326c.778-.581 1.419-.611 11.896-.554 8.958.049 10.477.093 11.416.333m197.751 11.93c-1.009.067-1.887.132-1.953.143-.065.012-.365.236-.667.498-.435.379-.819.516-1.88.672-1.256.184-2.584.781-2.584 1.161 0 .076-.318.232-.708.347-.756.223-1.458.762-1.458 1.12 0 .119-.181.263-.401.318-.482.121-1.043.696-1.126 1.154-.033.182-.21.358-.392.391-.442.081-1.031.64-1.144 1.085-.05.197-.312.456-.582.575-.326.142-.583.443-.762.891-.148.371-.521.911-.827 1.201-.469.443-.588.715-.759 1.729-.148.877-.334 1.368-.688 1.814-.784.986-.853 1.549-.783 6.385.066 4.639.126 5.042.848 5.729.242.23.467.743.601 1.368.24 1.13.535 1.681.971 1.82.167.053.425.452.588.912.254.715.742 1.344 2.25 2.9.721.745 2.12 1.82 2.847 2.189.438.222.891.517 1.007.657.116.139.711.418 1.323.619.611.201 1.427.548 1.813.771.404.233 1.286.503 2.083.635.761.127 2.245.388 3.299.582 2.185.401 4.573.383 6.25-.047.55-.141 1.825-.381 2.834-.533 1.259-.19 2.12-.423 2.75-.743.504-.256 1.302-.557 1.774-.668 1.45-.341 1.583-.604 1.571-3.096-.012-2.247-.166-3.142-.701-4.063-.215-.372-.401-1.2-.543-2.417-.328-2.835-.62-3.188-2.631-3.178-.819.004-1.07.09-1.868.64-.925.637-2.06.916-3.793.932-.814.007-.974-.401-.294-.753.318-.164.62-.529.816-.986.178-.416.459-.773.659-.836.192-.061.489-.387.661-.724.172-.337.479-.763.682-.946.202-.183.564-.671.804-1.083.659-1.135 1.906-2.541 4.202-4.735 1.143-1.092 2.148-2.129 2.233-2.305.086-.175.441-.464.789-.641 1.765-.901 1.363-3.494-.902-5.819-1.598-1.64-2.946-2.66-3.672-2.776-.433-.07-.736-.251-.97-.58-.452-.635-.725-.763-2.082-.98-.631-.101-1.263-.289-1.405-.417-.948-.858-3.904-1.192-8.08-.912m-161.055.158c-.306.075-.756.321-1 .546-.318.292-.801.471-1.683.622-1.015.175-1.338.31-1.796.755-.363.353-.911.641-1.569.826-.78.219-1.073.392-1.285.761-.15.262-.548.584-.883.716-.45.177-.665.394-.822.828-.16.443-.333.613-.697.686-.367.073-.551.257-.764.763-.154.367-.359.668-.457.669-.338.003-.891.67-1.059 1.278-.093.337-.405.856-.693 1.153-.35.361-.626.908-.83 1.646-.169.609-.492 1.326-.718 1.594-1.243 1.478-1.252 10.554-.012 12.345.228.329.561 1.112.74 1.739.197.687.515 1.344.799 1.652.26.281.651.858.868 1.283.216.424.574.881.794 1.015.221.133.565.534.765.891.2.357.539.736.753.843.215.107.596.42.848.696.253.277.751.651 1.107.833.357.182.793.491.97.686.177.196.838.513 1.468.704.631.192 1.355.523 1.608.736.335.282.977.485 2.365.747 1.047.198 2.429.472 3.071.608 1.509.32 3.635.226 5.25-.232.688-.196 1.724-.447 2.304-.56.58-.112 1.33-.392 1.667-.623.337-.23 1.059-.595 1.604-.81.545-.215 1.183-.569 1.417-.787.233-.217.734-.587 1.112-.821.88-.545 3.57-3.185 4.026-3.951.192-.322.537-.763.767-.978.229-.216.551-.764.714-1.217.163-.454.536-1.094.829-1.424.566-.636.652-.929.893-3.043.084-.736.263-1.581.398-1.878.447-.984.522-3.17.137-3.994-.239-.513-.358-1.213-.424-2.494-.093-1.817-.32-2.57-.906-3.001-.176-.129-.385-.65-.512-1.279-.246-1.22-.444-1.598-.96-1.833-.202-.092-.415-.382-.472-.643-.058-.261-.412-.81-.788-1.219-.376-.409-.87-1.023-1.097-1.364-.228-.342-.761-.82-1.186-1.063-.425-.244-1.036-.69-1.356-.991-.321-.302-.894-.63-1.274-.73-.42-.111-.798-.347-.967-.605-.338-.516-.765-.687-2.312-.927-.881-.137-1.388-.323-1.923-.708l-.727-.523-3.774-.03c-2.075-.016-4.023.032-4.328.107m117.414.083c-.353.126-.803.379-1 .562-.202.187-.725.384-1.193.449-1.025.143-2.064.582-2.478 1.048-.171.193-.672.471-1.114.618-.593.197-.891.416-1.141.84-.21.355-.468.573-.679.573-.511 0-2.312 1.778-2.431 2.401-.07.366-.252.589-.628.766-.358.17-.591.441-.722.844-.107.326-.455.854-.773 1.172-.441.441-.626.815-.781 1.573-.117.576-.362 1.17-.582 1.411-.863.946-.938 1.482-.937 6.697.001 4.418.117 5.197.916 6.146.238.284.434.62.434.747 0 .566.697 2.036 1.056 2.229.212.113.472.445.578.738.294.814 2.536 3.135 3.559 3.686.49.263 1.065.65 1.279.859.213.209.869.54 1.456.735.588.196 1.111.425 1.164.511.55.889 9.978 1.614 11.691.899.761-.318.717-.339.717.337 0 .662-.924 1.7-2.003 2.25-.329.168-.682.489-.784.713-.259.569-1.348.687-6.463.696-5.564.009-5.382-.125-5.531 4.081-.192 5.427.605 7.337 3.064 7.347.532.002 1.252.07 1.601.151.396.092 1.929.061 4.083-.082 5.576-.37 7.108-.605 8.511-1.308.425-.212 1.157-.512 1.627-.666.471-.154.996-.435 1.167-.624.171-.189.585-.484.921-.655.912-.466 3.076-2.442 3.645-3.327.274-.428.659-.921.854-1.094.196-.174.526-.691.734-1.149.208-.459.565-1.082.793-1.386.245-.326.568-1.179.789-2.083.205-.842.519-1.823.697-2.179.591-1.179 1.031-9.249.91-16.692-.084-5.152-.164-5.776-.848-6.571-.122-.141-.313-.742-.426-1.335-.217-1.137-.647-2.135-1.07-2.487-.139-.115-.378-.585-.53-1.043-.194-.585-.429-.927-.787-1.144-.28-.171-.607-.542-.726-.826-.13-.309-.429-.605-.745-.738-.321-.135-.615-.429-.75-.75-.145-.344-.431-.616-.817-.777-.327-.137-.678-.432-.78-.656-.112-.246-.469-.516-.898-.68-.391-.149-.98-.517-1.307-.817-.598-.548-1.297-.796-2.848-1.01-.512-.071-.994-.262-1.25-.497-.827-.757-7.492-1.121-9.224-.503m78.167 0c-.353.126-.803.379-1 .562-.201.186-.729.386-1.193.451-1.044.148-1.882.486-2.383.96-.213.202-.776.555-1.252.784-.476.229-.936.577-1.022.774-.086.196-.437.481-.781.632-.441.195-.676.433-.801.81-.111.337-.358.616-.667.753-.343.151-.576.442-.776.966-.158.412-.412.839-.566.949-.494.353-.832 1.035-1.014 2.046-.099.542-.357 1.249-.574 1.57-.839 1.237-.818.957-.882 11.917-.065 11.182-.007 12.871.462 13.45.387.478 1.553.592 4.423.433 1.191-.067 3.283-.136 4.648-.155 2.295-.031 2.513-.061 2.91-.403l.429-.369.09-9.978c.101-11.247.025-10.608 1.451-12.313 1.072-1.282 2.861-1.417 4.097-.309.344.308.729.56.855.56.595 0 .64.753.663 11.288.029 13.02-.372 12.09 5.054 11.705 1.331-.095 3.431-.181 4.668-.193 3.741-.034 3.428.944 3.616-11.3.059-3.804.146-7.834.195-8.956.054-1.263.022-2.163-.085-2.363-.096-.178-.282-1.151-.415-2.163-.257-1.953-.356-2.251-.915-2.757-.194-.176-.471-.727-.616-1.225-.146-.504-.504-1.175-.805-1.513-.298-.333-.742-.925-.985-1.314-.244-.39-.524-.709-.622-.709-.099 0-.534-.366-.965-.814-.535-.555-1.068-.914-1.668-1.125-.6-.211-.955-.451-1.11-.749-.284-.546-.528-.645-2.014-.819-.931-.109-1.281-.229-1.604-.552-.782-.782-7.083-1.16-8.846-.531m-27.693.578c.55.256 1.487.559 2.081.672 1.212.231 1.774.479 2.231.983.171.189.677.465 1.124.614.448.148.921.423 1.052.61s.498.5.817.695c.848.52 2.551 2.52 3.17 3.722.229.443.245.673.097 1.364-.233 1.087-.311 1.134-2.072 1.268-3.656.278-6.501 3.124-7.082 7.084-.245 1.668-1.834 4.901-2.659 5.412-.083.051-.241.373-.35.716-.11.342-.386.822-.614 1.067-.856.918 1.071 1.176 2.788.374.504-.236 1.458-.602 2.12-.813.661-.211 1.436-.58 1.721-.82.567-.477.916-.525 1.882-.256.874.242 1.213 1.048 1.437 3.413.385 4.055.214 4.749-1.273 5.159-.533.147-2.001.604-3.261 1.015-3.213 1.048-6.473 1.329-10.376.893-.825-.092-2.84-.238-4.478-.324-2.421-.128-3.056-.213-3.394-.455-.229-.163-.927-.597-1.551-.964-1.067-.627-3.493-3.005-3.493-3.424 0-.092-.306-.499-.681-.905-.482-.523-.753-1.017-.93-1.697-.138-.527-.478-1.396-.757-1.93-1.102-2.119-1.144-9.417-.061-10.614.148-.164.384-.844.523-1.51.274-1.318.557-1.979 1.005-2.349.158-.131.46-.625.669-1.099.229-.516.521-.905.73-.971.191-.061.535-.408.764-.771.229-.362.601-.743.826-.846.225-.103.555-.433.732-.733.178-.301.534-.657.793-.791.258-.134.633-.465.832-.736.22-.299.742-.641 1.333-.875.534-.211 1.159-.549 1.388-.75.529-.465.788-.556 2.4-.842.724-.128 1.437-.336 1.583-.462 1.067-.911 7.068-.994 8.934-.124m-159.869-.032c.347.205 1.347.52 2.224.699 1.285.262 1.738.438 2.342.908.412.321.966.632 1.232.69.266.058.691.331.944.605.253.274.723.636 1.044.803.709.371 1.933 1.575 2.286 2.25.143.271.445.64.673.819.228.18.512.557.631.84.119.283.438.761.709 1.063.347.386.552.855.692 1.583.108.569.394 1.409.633 1.868.674 1.288.715 5.331.094 9.31l-.1.643-.802-.107c-.768-.101-.814-.085-1.063.397-.143.276-.469.747-.725 1.046-.256.299-.636.844-.846 1.211-2.162 3.783-5.389 6.451-9.486 7.844-4.673 1.589-13.541 1.391-16.12-.36-.328-.222-.89-.554-1.249-.738-.36-.183-.763-.538-.897-.79-.133-.251-.545-.737-.915-1.079-.37-.343-.818-.905-.995-1.25-.177-.345-.518-.852-.759-1.127-.24-.275-.596-1.025-.79-1.667-.194-.642-.536-1.533-.759-1.98-.93-1.86-.986-8.015-.091-10.02.286-.642.612-1.542.723-2 .234-.96.415-1.366.817-1.833.157-.184.459-.771.67-1.305.232-.585.579-1.115.871-1.331.267-.198.597-.594.733-.881.136-.286.433-.605.661-.709.227-.103.567-.448.754-.766.187-.317.49-.624.673-.682.183-.058.69-.423 1.127-.812.499-.443 1.1-.789 1.614-.929.45-.123 1.1-.474 1.444-.78.344-.305.655-.555.691-.555.435 0 2.746-.588 2.934-.746.861-.725 7.207-.825 8.381-.132m19.895-.293c-1.583.305-1.846 1.273-1.724 6.337.103 4.307.302 5.454 1.025 5.928.257.169.436.49.507.91.108.636.944 1.996 1.228 1.996.079 0 .297.369.485.821.233.561.505.907.856 1.088.633.328.633.353.012.675-.306.158-.641.556-.859 1.019-.196.418-.456.798-.578.845-.346.133-.86 1.07-1.049 1.911-.112.5-.37.965-.742 1.337-.777.777-.849 1.434-.843 7.646.007 6.756-.048 6.642 3.124 6.422.934-.065 3.296-.182 5.248-.26 2.731-.11 3.639-.201 3.941-.399l.392-.257.071-4.632c.083-5.41.156-5.724 1.571-6.748 1.713-1.239 3.196-1.038 4.703.639.921 1.025 1.01 1.608 1.017 6.673.008 5.527-.692 5.092 7.749 4.81 5.476-.184 4.995.159 5.146-3.665.277-7.017.118-9.299-.705-10.17-.263-.278-.571-.805-.684-1.172-.114-.367-.408-.892-.655-1.167-.247-.275-.66-.837-.918-1.25-.259-.412-.686-.952-.949-1.199-.564-.529-.608-1.004-.136-1.476.465-.465 1.695-2.488 2.376-3.908.308-.642.686-1.27.839-1.397.676-.557 1.173-4.144 1.084-7.809l-.058-2.373-.628-.627-.627-.627-4.206-.06c-7.596-.109-7.786.025-7.788 5.447l-.001 2.887-.667.599c-.366.329-.666.69-.666.803 0 1.36-5.054.229-5.184-1.16-.01-.101-.066-1.745-.125-3.654l-.108-3.472-.602-.551c-.399-.366-.894-.614-1.467-.737-.961-.206-8.364-.225-9.405-.023m38.665.077c-.477.128-1.023.432-1.333.742l-.525.525v12.372c0 13.185-.006 13.07.812 14.084.202.25.462.829.579 1.287.251.99.615 1.595 1.023 1.701.163.043.412.372.553.73.152.388.463.771.764.944.279.16.595.455.702.656.108.2.544.514.971.698.426.183.923.497 1.103.697.455.505.868.633 2.7.837.878.098 1.883.292 2.231.432.672.269 1.71.239 3.229-.093 1.685-.368 4.917-.476 4.917-.164 0 .156-.183.322-.421.382-.289.072-.536.349-.791.886-.258.54-.5.81-.788.877-.229.054-.567.335-.75.624-.184.29-.438.569-.565.622-.634.261-5.038.395-7.565.229-3.505-.23-3.436-.233-3.849.181-.345.345-.355.481-.355 5.225 0 6.751-.539 6.209 6.159 6.184 5.878-.022 9.194-.393 10.758-1.205.504-.261 1.311-.605 1.792-.764.482-.159 1.182-.545 1.558-.859.375-.313.753-.57.84-.57.296 0 3.71-3.359 4.04-3.975.081-.151.358-.5.617-.775.258-.275.66-.931.893-1.459.233-.528.609-1.24.836-1.584 1.109-1.676 1.288-4.338 1.618-24.04.093-5.546.205-10.822.249-11.724.093-1.886-.165-2.473-1.483-3.388l-.681-.471-4.52-.054-4.52-.053-1.064.564c-1.778.942-1.675.316-1.676 10.207-.001 9.475-.061 10.248-.851 10.986-1.12 1.047-4.143.996-4.464-.076-.105-.348-.46-1.032-.789-1.52l-.6-.888-.151-3.916c-.083-2.155-.115-4.07-.07-4.256.045-.187.094-2.367.109-4.844.041-6.528.37-6.215-6.516-6.212-2.691 0-4.17.069-4.726.218m59.145.24c.548.263 1.49.569 2.093.68.603.11 1.39.378 1.75.596.36.217 1.142.654 1.738.972.595.317 1.176.731 1.29.92.114.19.493.49.842.668.35.179.724.52.833.759.109.239.454.585.766.769.311.184.653.544.759.8.106.256.438.696.737.978.36.34.647.855.85 1.526.169.558.443 1.136.609 1.286.568.515 1.408 4.6 1.274 6.201-.043.522.022 1.623.144 2.447.209 1.4.105 3.945-.18 4.405-.136.221-.698 3.2-1.008 5.347-.501 3.471-.639 3.974-2.065 7.553-2.391 6.003-7.563 10.364-13.514 11.393-1.295.224-3.822.984-6.171 1.856-3.894 1.445-4.549.606-4.571-5.858l-.012-3.306.491-.423c.439-.377.59-.412 1.417-.324.509.054 1.713.181 2.675.283 3.099.328 7.036-.288 7.591-1.187.062-.1.5-.429.974-.732.78-.499.897-.658 1.255-1.695.217-.629.549-1.403.739-1.72.337-.563.344-.753.313-8.907l-.032-8.331-.602-1.806c-.525-1.576-.676-1.856-1.188-2.204-.323-.219-.728-.631-.901-.915-.424-.697-2.491-1.68-3.781-1.797-2.84-.257-5.965 2.137-6.059 4.642-.069 1.814.987 5.811 1.535 5.811.084 0 .346.306.582.681.236.374.661.805.943.958.283.153.778.503 1.1.778l.587.5 2.43.016c3.763.024 3.699-.043 3.503 3.65-.392 7.388-.378 7.349-2.489 7.2-6.113-.43-6.767-.633-4.653-1.446.602-.231 1.122-.495 1.156-.587.156-.421-2.734-.537-4.253-.17-1.481.358-1.791.317-3.187-.413-.7-.367-1.394-.667-1.543-.667-.148 0-.488-.188-.754-.417-.266-.229-.546-.416-.622-.416-.249 0-2.356-2.006-2.796-2.663-.237-.354-.628-.893-.869-1.199-.241-.305-.607-1.043-.812-1.638-.206-.596-.474-1.198-.596-1.339-1.044-1.196-1.04-9.493.005-11.089.124-.19.385-.88.58-1.535.195-.655.53-1.4.744-1.656.214-.255.585-.853.825-1.327.239-.475.58-.909.757-.965.176-.056.479-.439.673-.851.193-.412.53-.829.747-.928.217-.099.477-.36.577-.579.1-.22.514-.561.921-.758.406-.198.831-.532.944-.743.184-.343 1.409-1.064 1.808-1.064.086 0 .368-.176.627-.392.71-.59 1.086-.75 2.415-1.03.669-.141 1.398-.375 1.622-.522 1.183-.775 6.875-.827 8.437-.076m77.692-.055c.547.396 1.428.666 2.722.833.746.096 1.017.224 1.454.687.295.314.797.66 1.114.771.764.267 3.573 2.858 3.913 3.611.148.327.435.759.637.961.203.201.494.8.647 1.331.153.53.469 1.34.703 1.798.524 1.03.669 3.028.368 5.103-.111.768-.254 3.835-.318 6.814-.135 6.239-.1 6.08-1.789 8.095-3.942 4.703-7.41 6.843-8.997 5.554-.599-.488-.865-10.983-.449-17.733.293-4.747-.815-6.363-4.866-7.095-3.737-.675-5.916 4.261-4.365 9.889.974 3.537.65 6.932-.808 8.456-.307.321-1.094 1.202-1.75 1.959-.655.756-1.242 1.375-1.304 1.375-.062 0-.856.707-1.765 1.571-1.283 1.22-1.811 1.611-2.362 1.75-1.044.263-2.315.227-2.563-.072-.938-1.129-.967-21.83-.034-23.666.14-.275.426-1.17.635-1.989.209-.819.536-1.681.728-1.917.192-.235.541-.824.775-1.308.234-.485.649-1.047.922-1.248.273-.202.609-.605.747-.895.138-.291.472-.621.743-.733.271-.112.651-.427.846-.7.207-.291.782-.688 1.392-.962.572-.257 1.091-.549 1.154-.65.203-.329 1.055-.678 2.29-.938.666-.14 1.394-.374 1.617-.521.733-.48 1.233-.537 4.38-.505 2.843.03 3.152.062 3.583.374m-165.959.394c1.626.231 1.695.414 1.644 4.319-.056 4.218.095 4.787 1.416 5.327 1.904.779 3.131.729 4.47-.182 1.29-.878 1.475-1.549 1.481-5.366.005-3.315.158-3.794 1.287-4.033.794-.168 9.978-.177 10.571-.01 1.594.447 1.011 6.628-.717 7.608-2.382 1.352-3.277 3.024-3.705 6.928-.29 2.643-.262 2.719 1.923 5.124.813.894 1.478 1.704 1.478 1.798 0 .095.141.49.315.878.773 1.737.852 2.105.832 3.919-.029 2.562-.076 2.706-.997 3.024-.421.145-1.246.679-1.833 1.187-.587.507-1.421 1.204-1.854 1.548-.433.345-1.333 1.179-2 1.855-.879.889-1.397 1.278-1.88 1.408-.936.254-2.501.232-2.724-.036-.277-.333-.514-3.696-.484-6.865.031-3.289-.099-3.91-1.046-5.005-.363-.419-.74-.912-.838-1.095-.383-.715-3.162-1.396-4.307-1.056-1.602.476-2.57 1.873-3.657 5.277-.918 2.873-1.485 3.782-3.55 5.694-.584.539-1.518 1.42-2.077 1.956-1.567 1.503-4.063 2.02-4.323.896-.785-3.394-.471-10.365.562-12.471.367-.749.716-1.529.774-1.734.059-.204.365-.68.68-1.057.315-.377.573-.745.573-.816 0-.072.413-.592.917-1.157 1.095-1.228 1.076-.992.168-2.014-.412-.463-.909-1.156-1.104-1.539-.196-.383-.528-.832-.739-.998-.21-.166-.509-.694-.664-1.174-.154-.481-.462-1.142-.683-1.471-.688-1.023-.772-1.587-.851-5.736-.104-5.517-.652-5.033 5.706-5.048 2.384-.006 4.74.047 5.236.117m38.508-.043c1.773.185 1.988 1.045 1.331 5.308-1.09 7.073-.607 13.112 1.242 15.544.524.689.941 1.069 1.237 1.129.245.05.673.15.949.223.295.077.915.048 1.503-.072 2.959-.604 2.826-.052 2.835-11.72l.007-9.228.528-.472c.869-.776 1.502-.853 6.526-.793 6.533.079 6.289-.209 5.262 6.222-.361 2.258-.408 3.178-.486 9.5-.158 12.749-.356 14.951-1.56 17.357-.269.537-.583 1.276-.698 1.643-.916 2.921-4.883 8.323-6.864 9.348-.306.158-.818.492-1.139.743-1.311 1.025-4.836 2.214-7.648 2.58-.801.104-1.895.444-5.047 1.57-3.859 1.378-4.435.709-4.591-5.331-.129-5.032-.048-5.166 2.79-4.643 4.372.805 8.385.482 9.938-.801 1.607-1.329 2.549-2.55 2.801-3.63.363-1.564-.41-1.898-2.049-.885-1.011.625-9.539.534-9.897-.105-.192-.343-1.493-.929-2.062-.929-.225 0-.644-.23-.945-.517-.297-.284-.745-.623-.996-.753-.25-.13-.566-.451-.702-.713-.136-.263-.548-.791-.916-1.174-.457-.476-.771-1.023-.992-1.728-.178-.568-.48-1.382-.672-1.81-.606-1.352-.647-2.144-.705-13.593l-.057-11.205.45-.45c.279-.279.722-.494 1.166-.566.938-.152 8.118-.189 9.461-.049m-74.077 9.894c-3.478.533-5.902 3.659-5.106 6.585.1.369.302 1.303.448 2.075.758 3.992 4.904 6.412 8.735 5.097.685-.235 1.336-.427 1.447-.427.112 0 .369-.232.571-.516.202-.284.6-.658.883-.83.447-.272.575-.528.972-1.942l.456-1.628-.263-1.584c-.281-1.692-.487-2.231-1.043-2.734-.192-.175-.35-.416-.35-.536 0-.12-.253-.471-.562-.78-.309-.309-.688-.756-.844-.993-.733-1.12-3.551-2.062-5.344-1.787m158.583 1.451c-.137.052-.496.309-.797.571-.301.261-.659.475-.794.475-.276 0-.907.938-.908 1.349 0 .146-.147.399-.326.561-.558.504-.748 1.843-.546 3.842.258 2.553.475 2.715 1.837 1.37 3.112-3.075 5.539-5.649 5.787-6.138.158-.312.398-.694.534-.848.749-.857-3.122-1.812-4.787-1.182m-154.75 1.173c.367.196.989.51 1.383.696.494.233.77.493.89.837.095.274.421.651.723.837 1.262.78 1.069 5.757-.255 6.592-.347.219-.678.546-.735.727-.438 1.381-5.633 1.633-6.918.336-.355-.359-.72-.652-.811-.652-.091 0-.338-.281-.548-.625-.209-.344-.58-.814-.823-1.045-.999-.949-.856-3.394.316-5.395l.77-1.315 1.588-.776c1.813-.886 3.059-.947 4.42-.217m158.407-.466c.5.268-.022 1.612-.744 1.913-.372.156-.602.402-.731.785-.124.368-.371.643-.727.808-.297.138-.65.487-.788.78-.163.346-.468.617-.877.779-.49.194-.649.363-.732.776-.058.289-.226.565-.373.611-.641.201-1.02.463-1.118.774-.192.604-.38-.067-.422-1.507-.039-1.299-.021-1.37.483-1.945.288-.328.615-.916.725-1.307.251-.884.37-1.003 1.362-1.368.439-.161 1.002-.464 1.25-.673.666-.56 2.036-.777 2.692-.426m-40.341.756c.715.412 1.389.75 1.497.75.774 0 1.453 5.361 1.005 7.933-.288 1.655-.18 1.603-3.211 1.575-2.895-.026-3.153-.08-3.9-.827-.283-.283-.661-.515-.84-.515-.388 0-.616-.258-.759-.856-.057-.242-.41-.842-.783-1.333l-.679-.894.052-1.424c.04-1.098.129-1.533.386-1.896.183-.259.525-.78.759-1.156 1.215-1.954 4.313-2.603 6.473-1.357M97.333 56.77c-.871.032-3.308.17-5.416.307-4.768.31-26.858.39-29.084.106-4.989-.636-5.245-.358-5.137 5.569.101 5.494-.553 5.046 6.966 4.773 3.868-.14 21.879-.196 62.851-.194l57.429.002.339-.375c.368-.405.722-3.852.72-6.99-.002-2.67-.186-2.728-8.501-2.654-4.764.042-6.404-.003-8.417-.233-2.614-.299-6.598-.261-8.916.084-1.721.257-9.132.204-11.25-.08-2.379-.318-8.007-.321-11.565-.005-5.79.513-16.934.473-23.519-.084-1.877-.159-13.879-.324-16.5-.226m19 1.087c6.6.511 12.762.508 19.417-.01 5.13-.399 10.735-.408 13.333-.021 2.584.384 6.741.388 11.167.01 4.521-.386 4.526-.386 10.333.105 3.36.283 6.954.241 10.25-.122 4.132-.455 5.048-.032 4.808 2.22-.278 2.604-.868 3.794-1.881 3.794-.235 0-1.127.186-1.981.413-3.94 1.049.43.974-59.862 1.026-58.621.051-55.682.006-58.417.904-1.255.412-2.218.63-3.915.885-1.235.185-1.427-.44-1.539-4.987l-.086-3.509.413-.48c.48-.558.441-.556 5.044-.171 3.767.315 21.154.215 27.75-.161 8.889-.506 17.756-.469 25.166.104m105.584-.197c-1.853.176-2.75.798-2.752 1.911-.003 1.64-.945 3.456-2.808 5.411-.308.323-.738.821-.957 1.108l-.397.521.373.34c.206.188.538.425.738.528.45.232 6.256.242 8.053.014.687-.087 1.754-.207 2.37-.266.794-.077 1.205-.201 1.41-.427.611-.676 1.179-8.003.674-8.694-.417-.57-3.35-.765-6.704-.446m42.333.03c-1.797.232-2.15.582-2.411 2.393-.225 1.563-.454 2.365-.727 2.541-.107.069-.625.689-1.151 1.376-.526.688-1.222 1.542-1.546 1.899-.653.717-.567 1.026.418 1.504.748.364 78.968.099 79.529-.269.564-.369.611-.682.743-4.992l.111-3.608-.434-.433-.434-.434-6.382-.016c-28.103-.071-67.036-.048-67.716.039m-219.854.399l-.422.422.062 4.036c.085 5.548-.35 5.13 5.085 4.881 4.876-.224 4.442.111 4.787-3.699.578-6.385.845-6.062-5.007-6.062h-4.083l-.422.422m182.903-.258c1.37.005 1.651 1.267.836 3.752-.687 2.095-4.123 4.608-7.183 5.254-3.816.806-5.59.326-4.268-1.154 1.733-1.941 2.158-2.527 2.5-3.453.2-.539.503-1.179.673-1.422.191-.273.31-.732.31-1.197 0-.805.437-1.339 1.267-1.547.596-.15 4.085-.37 4.733-.298.32.035.83.064 1.132.065m50.022.263c6.064.318 14.124.305 19.286-.029 4.205-.273 6.056-.256 11.935.109 2.165.134 3.751.133 5.916-.004 5.75-.362 7.886-.391 11.365-.154 3.731.255 7.551.289 10.43.095 2.5-.169 2.668-.033 2.533 2.042-.155 2.372-.662 3.632-1.514 3.764-.379.058-.931.182-1.228.274-.297.092-1.422.358-2.5.593l-1.961.425-30.583.135c-33.728.148-30.76.052-34.917 1.131-3.147.817-6.035 1.039-6.875.527-.676-.412-.691-.329.25-1.399 1.836-2.087 2.157-2.576 2.664-4.048.278-.81.555-1.748.614-2.087.328-1.861 2.099-2.028 14.585-1.374m65.908-.005l-.422.422.062 4.036c.085 5.56-.345 5.146 5.085 4.888 5.019-.24 4.656.224 4.992-6.383.175-3.462.293-3.385-5.211-3.385h-4.083l-.423.422m-312.252.063c-.788.638-.749 8.003.047 8.764l.393.376 2.416-.22c1.329-.122 3.069-.225 3.865-.23 1.739-.01 1.537.287 1.956-2.872.502-3.775.477-5.343-.093-5.791-.651-.513-7.956-.535-8.584-.027m22.439.044c.584.459.534 2.357-.109 4.137l-.39 1.084-1.773.916c-.975.504-2.217 1.219-2.761 1.589-1.112.756-3.03 1.274-3.444.93-.343-.285-.602-2.25-.702-5.318-.125-3.887-.387-3.689 4.866-3.696 3.707-.004 3.869.009 4.313.358m298.812-.017c.528.415.593 1.562.186 3.288-.405 1.717-.581 1.936-2.206 2.729-.802.392-2.02 1.098-2.708 1.57-1.395.956-3.234 1.496-3.72 1.092-.333-.276-.606-2.295-.728-5.387l-.103-2.612.513-.513.512-.513h3.907c3.701 0 3.931.019 4.347.346m5.069.166l-.512.511.091 3.614c.124 4.961.088 4.898 2.707 4.662.917-.082 2.634-.202 3.816-.266 1.659-.09 2.178-.173 2.275-.366.17-.336.655-4.199.775-6.174l.097-1.591-.536-.451-.536-.451h-7.666l-.511.512m-317.883.153c.681.752.016 3.361-.986 3.87-.373.19-1.391.772-2.261 1.294-.871.521-1.715.996-1.875 1.054-.16.059-.86.49-1.555.959-.695.47-1.294.823-1.331.787-.547-.548-.803-7.431-.297-7.991.441-.487 7.862-.464 8.305.027m326.419.002c.396.395.403.564.086 2.061-.292 1.377-.351 1.454-1.647 2.164-2.338 1.281-4.59 2.589-5.439 3.161-1.039.699-1.043.697-1.306-.886-.435-2.606-.445-6.075-.019-6.472.58-.54 7.789-.564 8.325-.028m-348.501.252c-.214.258-.134 5.57.107 7.123.126.812.417.808 1.576-.02 1.113-.795 4.278-2.676 5.401-3.209.954-.453 1.29-1.328 1.208-3.146l-.041-.917-4.019-.044c-3.459-.039-4.048-.009-4.232.213m354-.001c-.164.198-.189.932-.109 3.211.169 4.828.243 5.042 1.388 4.036.314-.276 1.094-.765 1.733-1.087.639-.321 1.641-.878 2.226-1.236.586-.359 1.444-.815 1.907-1.014.951-.409 1.085-.774 1.099-2.994l.007-1.084-4.019-.044c-3.454-.039-4.048-.009-4.232.212"/><path fill="#2c4777" d="M74.14 17.708c-.332.608-.363 3.082-.14 11.209.255 9.323.257 15.549.004 20.273l-.191 3.56-.466.435-.467.435-4.148.089c-5.619.122-6.355.288-6.026 1.361.241.785.742 1.119 2.544 1.695 2.328.744 3.463.729 9.473-.125 1.388-.197 2.623-.144 6.349.271 8.453.941 15.278-2.284 20.094-9.494.306-.459.838-1.144 1.181-1.523.344-.379.739-.91.878-1.179s.382-.596.54-.727c1.378-1.14 1.807-7.375.732-10.636-.276-.839-.59-2.09-.697-2.779-.263-1.693-.407-1.275-.52 1.51-.113 2.763-.293 3.518-1.025 4.294-.328.347-.696 1.029-.92 1.7-.205.617-.578 1.358-.829 1.647-.251.289-.667.997-.924 1.574-.256.576-.558 1.101-.67 1.166-.113.066-.405.419-.651.786-1.269 1.898-4.57 5.143-5.928 5.828-.32.162-.733.431-.917.599-.183.167-.783.508-1.333.757-.55.249-1.211.628-1.469.841-.258.214-.896.505-1.417.648-.521.142-1.536.482-2.256.754-3.667 1.387-8.907 1.381-9.55-.01-.658-1.425-1.192-11.803-.679-13.204.552-1.506.788-3.806.788-7.669v-3.747l.538-1.042c1.82-3.53 5.31-3.911 10.748-1.173l1.297.653.052-.753c.042-.623-.015-.804-.336-1.056-.353-.278-.803-1.302-1.028-2.343-.05-.229-.26-.491-.468-.583-.208-.092-.553-.429-.766-.75-.213-.321-.665-.705-1.004-.853-.339-.148-.766-.437-.949-.642-.484-.541-1.171-.854-2.584-1.178-.687-.157-1.845-.445-2.573-.64-1.902-.508-4.003-.498-4.287.021m105.863 7.896c-.006.645-.499 1.773-1.09 2.495-.321.392-.809 1.186-1.084 1.765-.62 1.304-1.863 3.337-2.32 3.794-.536.535-.415.916.612 1.927 1.091 1.073 2.249 1.484 2.654.942 1.972-2.643 3.176-7.063 2.451-9-.421-1.124-1.219-2.378-1.223-1.923m18.405.744c-.187.302-.141 8.448.05 8.963l.147.394.462-.549.462-.549-.073-3.345c-.07-3.237-.203-4.185-.679-4.837-.185-.253-.252-.267-.369-.077m99.063 2.855c-1.279.765-5.314 4.993-6.167 6.464-.24.412-.602.9-.804 1.083-.203.183-.51.609-.682.946-.172.337-.465.661-.651.721-.186.059-.506.458-.711.887-.205.428-.541.853-.748.944-.206.09-.375.27-.375.399 0 .468 3.182.104 3.56-.407.391-.528 1.312-.994 2.249-1.138.399-.061.962-.287 1.25-.503.289-.215.803-.52 1.142-.677 1.489-.69 3.976-3.908 4.385-5.672.493-2.131-.959-3.938-2.448-3.047m-175.808 1.141l-1.588.776-.829 1.398c-1.152 1.944-1.221 4.989-.118 5.252.585.14.871.371 1.054.854.145.382.167.374 1.688-.648 2.313-1.556 5.049-2.349 6.772-1.963.945.212.931.233.998-1.587l.057-1.547-.584-.36c-.321-.199-.662-.585-.757-.859-.12-.344-.396-.604-.89-.837-.394-.186-1.016-.5-1.383-.696-1.361-.73-2.607-.669-4.42.217m160.92-.721c-.183.046-.536.255-.785.464-.248.209-.811.512-1.25.673-.992.365-1.111.484-1.362 1.368-.11.391-.437.979-.725 1.307-.504.575-.522.646-.483 1.944.043 1.45.146 1.822.387 1.392.084-.149.412-.405.73-.568.321-.165.706-.554.866-.875.197-.394.462-.629.831-.737.319-.095.541-.269.541-.427 0-.371.594-.973 1.081-1.095.273-.068.467-.291.597-.685.135-.41.353-.65.735-.81.722-.301 1.244-1.645.744-1.913-.311-.166-1.32-.186-1.907-.038m35.999.046c-.602.184-1.631 1.369-2.134 2.459-.358.775-.365.922-.365 8.455 0 12.604-.088 13.206-1.914 13.044-1.979-.175-7.937.323-8.378.7-.283.243.376 1.772 1.045 2.426l.68.664h7.734l.688-.554c1.558-1.253 2.046-2.915 1.849-6.307-.074-1.268-.112-3.993-.086-6.056l.049-3.75.478-.917c.847-1.625 1.499-2.273 3.011-2.995l1.383-.659.189-1.476c.322-2.513.175-3.87-.421-3.87-.122 0-.504-.255-.849-.566-.695-.627-1.999-.891-2.959-.598m-79.073.72c-1.12.557-1.494.84-1.833 1.385-.234.376-.576.897-.759 1.156-.524.741-.586 3.253-.091 3.679.949.816 1.305 1.254 1.398 1.721l.102.508.997-.734c1.617-1.19 3.305-1.816 5.133-1.903l1.539-.074.168-.605c.445-1.599.086-4.102-.627-4.373-.22-.084-.913-.452-1.539-.818-1.595-.931-2.524-.919-4.488.058m-19.648 4.194c-.021 1.375-.161 4.188-.309 6.25-.149 2.063-.3 4.931-.336 6.374-.065 2.623-.065 2.624-.474 2.727-.326.081-.409.209-.409.63 0 1.319-.85 5.36-1.257 5.976-.227.344-.603 1.056-.836 1.584-.233.528-.635 1.184-.893 1.459-.259.275-.536.624-.617.775-.33.616-3.744 3.975-4.04 3.975-.087 0-.465.257-.84.57-.376.314-1.076.7-1.558.859-.481.159-1.288.503-1.792.764-1.261.654-4.524 1.087-9.167 1.217-1.971.055-4.202.142-4.958.193L191 68.03v.761c0 3.246 6.275 5.359 12.75 4.294 4.774-.785 11.743-4.139 11.017-5.303-.555-.891-.496-1.248.352-2.128 1.494-1.55 1.896-2.03 2.207-2.639.171-.335.498-.71.728-.833.387-.207.427-.343.537-1.828.133-1.794.246-2.196.808-2.863.46-.547.671-2.443.685-6.158.005-1.237.096-3.112.204-4.166.147-1.432.151-2.865.017-5.667-.098-2.062-.229-5.025-.291-6.583l-.113-2.834-.04 2.5m41.409 4.18c-.057.359-.179 2.566-.272 4.904-.163 4.072-.246 5.117-.451 5.666-.051.138-.119.55-.15.917-.171 1.977-.263 2.496-.543 3.054-.168.337-.474 1.302-.679 2.144-.221.904-.544 1.757-.789 2.083-.228.304-.585.927-.793 1.386-.208.458-.538.975-.734 1.149-.195.173-.58.666-.854 1.094-.569.885-2.733 2.861-3.645 3.327-.336.171-.75.466-.921.655-.171.189-.696.47-1.167.624-.47.154-1.202.454-1.627.666-.944.473-1.801.686-3.645.909-1.98.238-8.378.651-8.54.551-.074-.046-.795-.031-1.602.032l-1.467.114.358 1.023c.641 1.83 1.103 2.379 2.61 3.108 4.357 2.107 12.415 1.234 17.341-1.88 2.885-1.823 3.3-2.163 3.301-2.699.002-.961.329-1.737.923-2.19.317-.242.576-.553.576-.692 0-.138.28-.516.622-.838.664-.627.78-.872 1.638-3.453.977-2.94 1.275-4.671 1.578-9.167.081-1.192.242-2.954.359-3.917.422-3.468.132-5.759-1.096-8.681l-.229-.543-.102.654m76.528.07c-.063.321-.159 1.971-.213 3.667-.11 3.424-.242 4.171-.822 4.626-.375.295-.402.45-.537 3.045l-.143 2.734-.583.393c-.455.308-.748.379-1.333.328-1.905-.168-7.599.324-8.036.694-.182.155.236 1.386.701 2.062.696 1.013.804 1.035 5.212 1.035h3.993l.489-.584c1.06-1.264 1.627-2.535 1.645-3.683.041-2.772-.273-14.831-.373-14.317m-194.693.125c-.048.252-.132.796-.188 1.209-.178 1.33-.477 2.15-.999 2.737-.281.315-.644.944-.807 1.398-.163.453-.485 1.001-.714 1.217-.23.215-.575.656-.767.978-.456.766-3.146 3.406-4.026 3.951-.378.234-.879.604-1.112.821-.234.218-.872.572-1.417.787-.545.215-1.267.58-1.604.81-.337.231-1.087.511-1.667.623-.58.113-1.616.364-2.304.56-1.615.458-3.741.552-5.25.232-.642-.136-2.024-.41-3.071-.608-1.388-.262-2.03-.465-2.365-.747-.253-.213-.988-.548-1.632-.743-.645-.196-1.375-.544-1.622-.774-.248-.229-.644-.455-.88-.502-.997-.199-1.252-.339-1.346-.742-.082-.35-.208-.423-.802-.466l-.706-.052.337.552c.184.303.336.636.336.74.002.425 1.422 2.275 2.387 3.111 2.175 1.882 2.144 1.87 7.614 3.057 3.744.813 10.386.394 15.363-.969 1.479-.405 4.569-2.693 5.428-4.018.251-.387.742-1.071 1.091-1.521.633-.815.811-1.157 1.542-2.976.839-2.086.997-8.2.228-8.831-.532-.437-.944-.371-1.047.166m19.312 1.915c-2.56.659-2.957 1.638-3.047 7.51l-.071 4.632-.392.256c-.302.199-1.224.289-4.073.399-3.754.146-5.467.383-5.619.778-.75 1.955 4.398 3.432 8.274 2.374 2.755-.751 2.955-.982 3.854-4.459.635-2.453 1.734-3.782 3.797-4.591l1.164-.456.118-1.583c.159-2.125.074-2.505-.781-3.459-.56-.626-2.347-1.746-2.537-1.59-.011.009-.321.094-.687.189m17.455 7.09c-.107.616-.229 1.233-.271 1.37-.041.138-.081.985-.088 1.883-.02 2.469.147 2.376-4.522 2.501-4.597.123-5.385.285-5.457 1.126-.063.734.181 1.02 1.243 1.462 2.865 1.193 5.613 1.196 8.483.01 2.496-1.032 2.914-4.615 1.04-8.936l-.233-.537-.195 1.121m47.554.188c-.051.083-.023.327.063.542.146.365.157.355.167-.151.011-.548-.059-.667-.23-.391m-118.076.224c.056.705.284 1.021.3.417.009-.344-.058-.625-.15-.625s-.159.093-.15.208m159.319-.083c.008.365.326.607.328.25.002-.207-.072-.375-.164-.375-.091 0-.165.056-.164.125m-40.746 1.199c-.054.086.18.592.518 1.125 1.99 3.125 5.456 5.054 9.521 5.298 3.269.197 4.875.006 5.288-.627.183-.282.559-.593.834-.691 1.185-.424 2.692-2.492 1.66-2.278-.726.15-5.949.154-7.744.005-2.94-.244-3.265-.308-3.948-.776-.349-.239-1.085-.576-1.635-.749-.549-.173-1.187-.491-1.416-.707-.656-.617-2.809-1.037-3.078-.6m41.41.193c0 1.835 4.014 5.573 7.767 7.233 2.446 1.082 17.754 1.05 19.304-.041 1.055-.742 2.215-2.365 2.394-3.349.182-1.003-.431-2.401-.887-2.022-.125.104-.852.36-1.614.57-.763.21-1.76.574-2.217.809-.546.281-1.458.522-2.663.704-1.009.152-2.284.392-2.834.533-1.677.43-4.065.448-6.25.047-1.054-.194-2.538-.455-3.299-.582-.797-.132-1.679-.402-2.083-.635-.386-.223-1.199-.569-1.807-.769-.608-.199-1.235-.506-1.393-.681-.158-.175-.801-.477-1.429-.671-.854-.264-1.169-.444-1.254-.717-.179-.576-1.735-.961-1.735-.429m-80.393 1.445c-.056.09.085.44.312.775.228.336.415.667.415.735 0 .314 2.412 2.041 4.031 2.885.674.352.928.376 4.1.384l3.381.009.536-.609c.294-.335.738-.655.986-.71.332-.074.538-.297.78-.843.23-.522.456-.775.757-.85.245-.062.429-.226.429-.384 0-.312-3.232-.204-4.917.164-1.545.337-2.555.362-3.26.081-.365-.147-1.575-.345-2.689-.442-2.172-.189-2.553-.304-2.718-.824-.063-.198-.253-.334-.469-.335-.2-.001-.636-.047-.968-.102-.334-.055-.649-.026-.706.066m-2.923 14.079c-.078.207-.192.61-.254.896-.063.286-.281.678-.485.87l-.371.349-60.579.052c-58.29.051-60.658.064-62.684.366l-2.106.314-.102.742c-.237 1.731 1.644 3.344 4.731 4.056 1.277.295 113.931.429 116.832.139 3.605-.36 6.74-2.175 7.186-4.159.301-1.339-1.742-4.755-2.168-3.625m153.313.084c-.007.525-.627 1.676-1.024 1.902-.319.181-6.941.239-36.473.319-40.873.111-38.258.022-38.922 1.331-.938 1.852.591 3.481 3.775 4.022 1.802.305 67.443.313 68.897.007 4.145-.87 6.135-2.981 5.299-5.623-.441-1.393-1.542-2.782-1.552-1.958m-110.494.702c-.245.592-1.164 1.173-1.855 1.173-.498 0-1.035.07-4.6.599l-1.87.277-.485.746c-1.164 1.79.742 3.66 3.807 3.736 2.599.063 6.134-1.813 6.649-3.529.106-.357.257-.688.334-.735.316-.196-1.226-2.761-1.66-2.761-.064 0-.208.222-.32.494M54.249 67.093c-.216.338-1.141.519-2.082.407-.413-.049-1.013-.039-1.334.023-.321.061-1.233.201-2.028.31l-1.445.198-.112.815c-.382 2.778 3.785 3.78 6.719 1.616 1.261-.93 1.544-1.949.853-3.067-.405-.655-.36-.631-.571-.302m298.786.174c-.174.189-.86.319-1.383.262-.795-.087-1.947-.014-3.679.233l-2.111.301-.07.76c-.147 1.613.872 2.423 3.482 2.769 1.929.255 4.404-1.299 4.38-2.749-.018-1.079-.334-1.885-.619-1.576"/><path fill="#94a4d0" d="M61.354 4.325c-.31.078-.76.288-1 .468l-.437.326.049 22.316c.048 21.979.119 24.99.599 25.38.992.806 3.015.422 4.422-.84 2.49-2.234 5.27-3.166 7.127-2.389.723.302.682.334.978-.777.645-2.417.71-7.12.17-12.226-.136-1.283-.326-3.683-.421-5.333-.202-3.475-.439-5.621-.766-6.921-.897-3.569-.346-7.136 1.296-8.389 2.438-1.859 7.035-1.376 9.398.987.407.407.79.74.851.74.206 0 1.047.893 1.047 1.112 0 .119.3.406.666.638.367.231.667.496.667.589 0 .092.292.485.648.873.356.387.769.967.918 1.288.148.321.444.818.656 1.106 1.343 1.818 1.051 10.456-.384 11.352-.18.112-.453.447-.607.744-.447.866-2.077 2.365-2.819 2.593-.364.112-.918.43-1.23.707-.666.591-.601.573-3.564.987-3.803.532-4.118.876-4.118 4.509 0 2.82.305 4.352 1.204 6.052l.546 1.033.75-.051c1.51-.104 2.409-.438 7.583-2.824 2.039-.94 4.988-2.586 5.175-2.888.057-.092.378-.341.714-.554 1.143-.723 3.299-3.05 4.443-4.796.62-.946 1.265-1.908 1.433-2.137.168-.229.588-.843.934-1.364.495-.747.744-.968 1.176-1.049.859-.162 2.531-1.93 2.805-2.968.617-2.341.368-8.341-.423-10.188-.19-.442-.464-1.338-.609-1.992-.145-.654-.434-1.489-.641-1.856-.208-.366-.541-1.108-.74-1.647-.199-.539-.622-1.284-.939-1.655-.318-.371-.578-.783-.578-.916s-.244-.476-.542-.762c-.299-.286-.68-.733-.848-.994-.168-.261-.518-.596-.777-.745-.26-.15-.589-.514-.73-.81-.141-.297-.473-.651-.738-.788s-.61-.445-.767-.685c-.157-.239-.61-.574-1.006-.744-.396-.17-.822-.454-.947-.631-.28-.396-.995-.775-1.945-1.031-.394-.106-.757-.297-.806-.424-.16-.417-.873-.754-2.16-1.02-.698-.145-1.504-.402-1.793-.573-1.383-.815-2.006-.859-13.024-.919-5.683-.031-10.587.007-10.896.086m19.332.673c.881.086 1.993.31 2.469.498.477.187 1.538.457 2.358.598 1.614.279 2.479.578 2.804.97.114.137.718.445 1.343.683.624.239 1.275.589 1.446.778.171.189.671.527 1.112.751.7.355 1.835 1.421 4.941 4.641.265.275.604.799.753 1.164.149.365.408.815.575 1 .429.473.694 1.026.943 1.971.119.449.42 1.112.67 1.472.388.559.473.9.583 2.322.193 2.484.433 3.471.895 3.682.579.264.746 2.06.482 5.179l-.106 1.257-.519-.147c-.285-.08-.645-.3-.801-.488-.281-.341-.284-.341-.666-.015-.212.18-.546.464-.744.632-.197.167-.955 1.466-1.683 2.887-3.735 7.284-6.609 10.12-12.958 12.783-.55.231-1.45.63-2 .886-1.31.61-3.816 1.331-4.626 1.331-1.102 0-1.619-1.735-1.622-5.441l-.002-2.524.589-.517c.408-.358.761-.518 1.146-.518.306 0 .871-.11 1.254-.246.384-.135 1.312-.354 2.063-.486 1.704-.3 2.189-.485 2.897-1.107.31-.272.672-.494.805-.494.331 0 2.097-1.598 2.447-2.215.156-.275.474-.699.708-.943 1.359-1.418 2.165-6.314 1.433-8.699-.179-.583-.407-1.577-.507-2.209-.2-1.263-.354-1.641-.801-1.967-.164-.119-.389-.527-.5-.906-.111-.378-.314-.781-.451-.895-.137-.114-.249-.3-.249-.414 0-.114-.165-.416-.366-.671-.2-.256-.568-.894-.816-1.419-2.142-4.528-10.624-6.281-14.093-2.912-1.356 1.316-1.795 2.846-1.795 6.25-.001 3.847.363 12.141.57 13 .508 2.102.43 1.979 1.319 2.097l.809.107.105.857c.36 2.939.264 9.997-.142 10.403-.054.055-.416-.054-.803-.242-.771-.372-2.306-.318-3.134.111-2.375 1.23-4.867 2.989-6.009 4.239l-.771.845-.47-1.417-.471-1.417-.128-21.5c-.138-23.191-.136-23.285.417-23.553.462-.223 17.046-.251 19.297-.032M281.75 16.824c-1.556.126-1.982.235-2.434.621-.146.126-.859.334-1.583.462-1.612.286-1.871.377-2.4.842-.229.201-.854.539-1.388.75-.591.234-1.113.576-1.333.875-.199.271-.574.602-.832.736-.259.134-.615.49-.793.791-.177.3-.507.63-.732.733-.225.103-.597.484-.826.846-.229.363-.573.71-.764.771-.209.066-.501.455-.73.971-.209.474-.511.968-.669 1.099-.448.37-.731 1.031-1.005 2.349-.139.666-.375 1.346-.523 1.51-1.083 1.197-1.041 8.495.061 10.614.279.534.619 1.403.757 1.93.177.68.448 1.174.93 1.697.375.406.681.813.681.905 0 .419 2.426 2.797 3.493 3.424.624.367 1.322.801 1.551.964.338.242.973.327 3.394.455 1.638.086 3.653.232 4.478.324 3.903.436 7.163.155 10.376-.893 1.26-.411 2.728-.868 3.261-1.015 1.487-.41 1.658-1.104 1.273-5.159-.224-2.365-.563-3.171-1.437-3.413-.966-.269-1.315-.221-1.882.256-.285.24-1.06.609-1.721.82-.662.211-1.616.577-2.12.813-1.717.802-3.644.544-2.788-.374.228-.245.504-.725.614-1.067.109-.343.267-.665.35-.716.825-.511 2.414-3.744 2.659-5.412.581-3.96 3.426-6.806 7.082-7.084 2.474-.188 2.921-1.509 1.271-3.749-.839-1.139-1.896-2.255-2.466-2.605-.319-.195-.686-.508-.817-.695-.131-.187-.604-.462-1.052-.61-.447-.149-.953-.425-1.124-.614-.457-.504-1.019-.752-2.231-.983-.594-.113-1.531-.416-2.081-.672-1.141-.532-3.681-.727-6.5-.497m-161 .205c-.275.099-.612.276-.75.392-.188.158-2.499.746-2.934.746-.036 0-.347.25-.691.555-.344.306-.994.657-1.444.78-.514.14-1.115.486-1.614.929-.437.389-.944.754-1.127.812-.183.058-.486.365-.673.682-.187.318-.527.663-.754.766-.228.104-.525.423-.661.709-.136.287-.466.683-.733.881-.292.216-.639.746-.871 1.331-.211.534-.513 1.121-.67 1.305-.402.467-.583.873-.817 1.833-.111.458-.437 1.358-.723 2-.895 2.005-.839 8.16.091 10.02.223.447.565 1.338.759 1.98.194.642.55 1.392.79 1.667.241.275.582.782.759 1.127.177.345.625.907.995 1.25.37.342.782.828.915 1.079.134.252.537.607.897.79.359.184.921.516 1.249.738 2.579 1.751 11.447 1.949 16.12.36 4.097-1.393 7.324-4.061 9.486-7.844.21-.367.59-.912.846-1.211.256-.299.582-.77.725-1.046.249-.482.295-.498 1.063-.397l.802.107.1-.643c.621-3.979.58-8.022-.094-9.31-.239-.459-.525-1.299-.633-1.868-.14-.728-.345-1.197-.692-1.583-.271-.302-.59-.78-.709-1.063-.119-.283-.403-.66-.631-.84-.228-.179-.53-.548-.673-.819-.353-.675-1.577-1.879-2.286-2.25-.321-.167-.791-.529-1.044-.803s-.678-.547-.944-.605c-.266-.058-.82-.369-1.232-.69-.604-.47-1.057-.646-2.342-.908-.877-.179-1.877-.494-2.224-.699-.729-.43-6.61-.631-7.631-.26m117.736-.036c-.237.071-.614.25-.837.396-.224.147-.953.381-1.622.522-1.329.28-1.705.44-2.415 1.03-.259.216-.541.392-.627.392-.399 0-1.624.721-1.808 1.064-.113.211-.538.545-.944.743-.407.197-.821.538-.921.758-.1.219-.36.48-.577.579-.217.099-.554.516-.747.928-.194.412-.497.795-.673.851-.177.056-.518.49-.757.965-.24.474-.611 1.072-.825 1.327-.214.256-.549 1.001-.744 1.656-.195.655-.456 1.345-.58 1.535-1.045 1.596-1.049 9.893-.005 11.089.122.141.39.743.596 1.339.205.595.571 1.333.812 1.638.241.306.632.845.869 1.199.44.657 2.547 2.663 2.796 2.663.076 0 .356.187.622.416.266.229.606.417.754.417.149 0 .843.3 1.543.667 1.396.73 1.706.771 3.187.413 1.519-.367 4.409-.251 4.253.17-.034.092-.554.356-1.156.587-2.114.813-1.46 1.016 4.653 1.446 2.111.149 2.097.188 2.489-7.2.196-3.693.26-3.626-3.503-3.65l-2.43-.016-.587-.5c-.322-.275-.817-.625-1.1-.778-.282-.153-.707-.584-.943-.958-.236-.375-.498-.681-.582-.681-.548 0-1.604-3.997-1.535-5.811.094-2.505 3.219-4.899 6.059-4.642 1.29.117 3.357 1.1 3.781 1.797.173.284.578.696.901.915.512.348.663.628 1.188 2.204l.602 1.806.032 8.331c.031 8.154.024 8.344-.313 8.907-.19.317-.522 1.091-.739 1.72-.358 1.037-.475 1.196-1.255 1.695-.474.303-.912.632-.974.732-.555.899-4.492 1.515-7.591 1.187-.962-.102-2.166-.229-2.675-.283-.827-.088-.978-.053-1.417.324l-.491.423.012 3.306c.022 6.464.677 7.303 4.571 5.858 2.349-.872 4.876-1.632 6.171-1.856 5.951-1.029 11.123-5.39 13.514-11.393 1.426-3.579 1.564-4.082 2.065-7.553.31-2.147.872-5.126 1.008-5.347.285-.46.389-3.005.18-4.405-.122-.824-.187-1.925-.144-2.447.134-1.601-.706-5.686-1.274-6.201-.166-.15-.44-.728-.609-1.286-.203-.671-.49-1.186-.85-1.526-.299-.282-.631-.722-.737-.978-.106-.256-.448-.616-.759-.8-.312-.184-.657-.53-.766-.769-.109-.239-.483-.58-.833-.759-.349-.178-.728-.478-.842-.668-.114-.189-.695-.603-1.29-.92-.596-.318-1.378-.755-1.738-.972-.36-.218-1.147-.486-1.75-.596-.603-.111-1.545-.417-2.093-.68-1.028-.494-6.295-.716-7.6-.32m78.166-.005c-.237.074-.614.255-.837.401-.223.147-.951.381-1.617.521-1.235.26-2.087.609-2.29.938-.063.101-.582.393-1.154.65-.61.274-1.185.671-1.392.962-.195.273-.575.588-.846.7-.271.112-.605.442-.743.733-.138.29-.474.693-.747.895-.273.201-.688.763-.922 1.248-.234.484-.583 1.073-.775 1.308-.192.236-.519 1.098-.728 1.917-.209.819-.495 1.714-.635 1.989-.933 1.836-.904 22.537.034 23.666.248.299 1.519.335 2.563.072.551-.139 1.079-.53 2.362-1.75.909-.864 1.703-1.571 1.765-1.571.062 0 .649-.619 1.304-1.375.656-.757 1.443-1.638 1.75-1.959 1.458-1.524 1.782-4.919.808-8.456-1.551-5.628.628-10.564 4.365-9.889 4.051.732 5.159 2.348 4.866 7.095-.416 6.75-.15 17.245.449 17.733 1.587 1.289 5.055-.851 8.997-5.554 1.689-2.015 1.654-1.856 1.789-8.095.064-2.979.207-6.046.318-6.814.301-2.075.156-4.073-.368-5.103-.234-.458-.55-1.268-.703-1.798-.153-.531-.444-1.13-.647-1.331-.202-.202-.489-.634-.637-.961-.34-.753-3.149-3.344-3.913-3.611-.317-.111-.819-.457-1.114-.771-.437-.463-.708-.591-1.454-.687-1.294-.167-2.175-.437-2.722-.833-.509-.368-6.136-.582-7.126-.27m-168.774.629c-1.005.194-1.084.586-1.001 4.966.079 4.149.163 4.713.851 5.736.221.329.529.99.683 1.471.155.48.454 1.008.664 1.174.211.166.543.615.739.998.195.383.692 1.076 1.104 1.539.908 1.022.927.786-.168 2.014-.504.565-.917 1.085-.917 1.157 0 .071-.258.439-.573.816-.315.377-.621.853-.68 1.057-.058.205-.407.985-.774 1.734-1.033 2.106-1.347 9.077-.562 12.471.26 1.124 2.756.607 4.323-.896.559-.536 1.493-1.417 2.077-1.956 2.065-1.912 2.632-2.821 3.55-5.694 1.087-3.404 2.055-4.801 3.657-5.277 1.145-.34 3.924.341 4.307 1.056.098.183.475.676.838 1.095.947 1.095 1.077 1.716 1.046 5.005-.03 3.169.207 6.532.484 6.865.223.268 1.788.29 2.724.036.483-.13 1.001-.519 1.88-1.408.667-.676 1.567-1.51 2-1.855.433-.344 1.267-1.041 1.854-1.548.587-.508 1.412-1.042 1.833-1.187.921-.318.968-.462.997-3.024.02-1.814-.059-2.182-.832-3.919-.174-.388-.315-.783-.315-.878 0-.094-.665-.904-1.478-1.798-2.185-2.405-2.213-2.481-1.923-5.124.428-3.904 1.323-5.576 3.705-6.928 1.728-.98 2.311-7.161.717-7.608-.593-.167-9.777-.158-10.571.01-1.129.239-1.282.718-1.287 4.033-.006 3.817-.191 4.488-1.481 5.366-1.339.911-2.566.961-4.47.182-1.321-.54-1.472-1.109-1.416-5.327.062-4.699.441-4.454-6.88-4.436-2.383.006-4.5.043-4.705.082m38.988.041c-.444.072-.887.287-1.166.566l-.45.45.057 11.205c.058 11.449.099 12.241.705 13.593.192.428.494 1.242.672 1.81.221.705.535 1.252.992 1.728.368.383.78.911.916 1.174.136.262.452.583.702.713.251.13.699.469.996.753.301.287.72.517.945.517.569 0 1.87.586 2.062.929.358.639 8.886.73 9.897.105 1.05-.649 1.406-.718 1.857-.363.936.736-.226 2.909-2.609 4.878-1.553 1.283-5.566 1.606-9.938.801-2.838-.523-2.919-.389-2.79 4.643.156 6.04.732 6.709 4.591 5.331 3.152-1.126 4.246-1.466 5.047-1.57 2.812-.366 6.337-1.555 7.648-2.58.321-.251.833-.585 1.139-.743 1.981-1.025 5.948-6.427 6.864-9.348.115-.367.429-1.106.698-1.643 1.204-2.406 1.402-4.608 1.56-17.357.078-6.322.125-7.242.486-9.5 1.027-6.431 1.271-6.143-5.262-6.222-5.024-.06-5.657.017-6.526.793l-.528.472-.007 9.228c-.009 11.668.124 11.116-2.835 11.72-.588.12-1.208.149-1.503.072-.276-.073-.704-.173-.949-.223-1.248-.253-2.309-2.462-2.698-5.615-.553-4.488-.517-6.278.219-11.058.657-4.263.442-5.123-1.331-5.308-1.343-.14-8.523-.103-9.461.049m99.384.334c2.634.28 4.516.737 5.294 1.287.388.274 1.041.629 1.45.789 1.37.536 3.859 2.91 4.211 4.015.127.401.361.733.587.832.969.425.46.855-1 .846-4.044-.026-7.874 3.83-8.46 8.516-.325 2.605-.5 3.228-1.185 4.233-.359.525-.737 1.206-.842 1.514-.105.308-.441.841-.748 1.185-.659.74-.673.835-.182 1.3.576.545 3.143.416 4.066-.205.353-.238 1.181-.591 1.84-.786.658-.195 1.424-.545 1.701-.779 1.494-1.256 3.07 2.467 2.296 5.422-.171.655-.275.772-.861.978-.367.129-1.342.519-2.167.868-2.631 1.114-3.304 1.238-6.667 1.228-3.061-.009-3.369-.047-9.5-1.163-1-.182-1.929-.241-2.788-.178-1.159.085-1.307.062-1.462-.227-.094-.177-.459-.399-.809-.494-.415-.112-.701-.314-.824-.583-.103-.226-.483-.598-.845-.826-.438-.277-.723-.615-.854-1.012-.109-.329-.381-.718-.606-.865-.529-.347-.643-.576-1.06-2.129-.19-.711-.499-1.593-.686-1.96-.747-1.464-.712-7.035.054-8.631.242-.505.526-1.405.63-2 .133-.76.339-1.272.69-1.713.274-.346.655-.983.845-1.417.19-.433.616-1.065.947-1.404.331-.34.765-.79.965-1 .34-.359.982-1 1.553-1.552 1.143-1.103 2.061-1.754 2.917-2.07.55-.203 1.15-.508 1.333-.679.729-.678 6.945-1.82 8.417-1.546.137.025.925.118 1.75.206m-157.351.383c1.711.285 2.289.453 2.834.824.376.256 1.093.62 1.593.81.5.19 1.226.622 1.612.96.387.338 1.128.952 1.646 1.364.519.413 1.016.883 1.104 1.045.088.161.494.67.903 1.13.408.46.742.944.742 1.075s.213.485.472.786c.499.579.782 1.458.954 2.964.058.504.291 1.319.52 1.81.752 1.619.724 1.911-.234 2.432-.757.412-.857.54-1.216 1.562-2.667 7.596-5.306 11.061-9.993 13.122-2.661 1.17-6.689 1.579-9.836.999-4.356-.803-6.167-1.091-6.85-1.091-.462 0-.854-.095-.97-.234-.106-.128-.367-.277-.579-.33-.212-.053-.597-.404-.857-.778-.26-.375-.674-.786-.921-.914-.257-.133-.561-.513-.713-.893-.145-.363-.482-.883-.747-1.154-.322-.33-.583-.875-.783-1.637-.165-.629-.523-1.631-.796-2.226-.771-1.686-.753-6.59.032-8.529.285-.703.517-1.383.517-1.512 0-.503.564-1.898.928-2.293.21-.229.548-.861.75-1.403.202-.543.638-1.267.97-1.609.331-.343 1.09-1.152 1.686-1.798.596-.646 1.169-1.178 1.273-1.182.105-.005.553-.308.996-.674.443-.366 1.166-.785 1.607-.932.44-.146 1.013-.444 1.272-.663 1.667-1.402 7.082-1.864 12.084-1.031m117.448-.035c1.852.321 4.815 1.627 5.813 2.561.233.218.727.548 1.099.734.371.186.764.534.873.773.109.239.458.588.776.776.317.187.626.493.685.68.059.187.354.612.655.946.341.379.682 1.045.906 1.771.205.664.554 1.368.811 1.637l.452.473-.021 3.696c-.017 3.204-.065 3.841-.357 4.781-.421 1.358-.921 4.479-1.373 8.582-.802 7.272-2.719 11.426-6.767 14.667-2.216 1.774-4.032 2.473-10.203 3.929-2.031.479-2.589.697-4.613 1.801-1.67.911-2.055-.031-2.069-5.064-.012-4.366-.024-4.35 2.721-3.607 2.393.649 6.754.092 8.596-1.097 1.811-1.169 2.151-1.544 3.043-3.352l.876-1.777.053-8.167c.056-8.685-.003-9.581-.717-10.831-.21-.368-.433-.956-.494-1.307-.081-.462-.244-.714-.587-.911-.354-.203-.501-.442-.581-.942-.394-2.462-4.928-3.646-8.003-2.089-4.093 2.073-5.831 7.44-2.915 9 .159.085.341.435.406.778.159.852.455 1.369 1.159 2.024.327.306.596.618.596.694 0 .077.375.37.833.652.458.282.833.58.833.663 0 .417 1.451.711 3.66.744 1.241.018 2.351.092 2.465.164.266.167.284 3.637.032 6.111-.097.963-.216 2.144-.262 2.625l-.085.875h-1.405c-1.577 0-1.596-.019-.915-.959l.489-.675-.481-.759c-.604-.953-1.305-1.177-4.498-1.443-1.237-.102-2.925-.294-3.75-.424-.825-.131-2.261-.239-3.192-.239l-1.691-.001-.35-.591c-.198-.338-.564-.667-.849-.767-.347-.12-.595-.386-.812-.866-.172-.381-.55-.915-.84-1.187-.389-.366-.641-.869-.959-1.917-.237-.782-.584-1.722-.772-2.088-.558-1.094-.491-6.337.104-8.084.234-.687.581-1.785.77-2.439.189-.654.462-1.287.607-1.407.144-.12.51-.71.813-1.311.303-.601.709-1.235.901-1.409.193-.174.539-.637.769-1.03.231-.393.567-.762.748-.819.18-.057.486-.327.68-.598.193-.272.595-.596.893-.72.297-.124.698-.426.89-.67.192-.244.823-.635 1.403-.868.58-.234 1.206-.566 1.392-.738.482-.445 1.419-.741 3.33-1.05 2.908-.47 5.462-.45 8.429.066m78.233.078c1.098.228 2.051.415 2.119.415.067 0 .369.217.67.481.301.264.826.597 1.166.739.34.142.89.507 1.222.811 1.35 1.237 2.753 2.739 2.851 3.053.057.183.309.568.56.856.33.378.489.788.576 1.484.066.528.35 1.563.63 2.298.484 1.267.497 1.36.243 1.766-1.462 2.337-1.614 3.167-1.616 8.832-.002 6.472-.526 7.704-4.711 11.07-.779.626-1.664 1.47-1.968 1.876-.663.885-.671.878-1.267-1.016l-.472-1.5-.011-8.5c-.01-7.37-.046-8.566-.272-9-.143-.275-.313-.8-.378-1.166-.766-4.343-5.853-5.804-9.056-2.6-2.074 2.073-2.432 3.65-2.279 10.03.174 7.225-.17 8.142-4.38 11.675-.801.673-1.682 1.473-1.957 1.778l-.5.555-.833-.851-.834-.85-.052-8.952c-.05-8.508-.036-9.01.278-10.119.181-.641.501-2.025.711-3.074.295-1.48.479-2.022.821-2.417.242-.28.641-.953.886-1.496.246-.543.599-1.093.784-1.222.185-.13.519-.525.742-.879.223-.353.675-.77 1.005-.927.33-.156.71-.452.845-.657.134-.206.71-.575 1.279-.821s1.185-.587 1.368-.758c1.357-1.262 7.773-1.758 11.83-.914m-166.33.252l.5.253.014 2.913c.02 4.357.319 5.213 2.185 6.259 1.771.992 2.919.948 4.575-.178 1.67-1.136 1.838-1.614 1.925-5.5.084-3.681.037-3.517 1.083-3.828 1.578-.468 10.06-.371 10.328.119.232.425.213 2.031-.042 3.542-.255 1.512-.267 1.533-.975 1.646-3.435.549-6.62 9.484-4.162 11.674.267.238.486.531.486.652 0 .279.644.874 1.09 1.009.196.059.408.332.5.644.094.318.378.678.69.874.881.556 1.326 4.084.674 5.345-.503.973-2.443 3.205-4.063 4.676-.896.814-2.102 1.937-2.678 2.495-1.181 1.143-1.235 1.141-2.145-.047l-.485-.635-.114-3.25c-.178-5.052-.406-6.351-1.156-6.589-.154-.049-.312-.34-.366-.671-.252-1.55-2.05-2.774-4.109-2.795-2.675-.028-4.309 1.593-5.688 5.645-1.296 3.808-2.069 4.97-4.696 7.056-.805.638-1.809 1.546-2.232 2.017-1.568 1.744-2 .699-2.04-4.942-.021-2.944.215-4.51.897-5.962.303-.647.603-1.419.666-1.717.063-.298.374-.853.692-1.233.317-.38.661-.848.763-1.041.103-.193.461-.689.797-1.101 1.093-1.344 1.094-2.097.003-3.083-.203-.184-.519-.634-.702-1-.184-.367-.588-.933-.899-1.257-.386-.403-.648-.907-.823-1.584-.141-.546-.432-1.331-.647-1.745-.762-1.465-1.123-7.743-.497-8.636l.266-.38 4.942.051c4.014.041 5.037.098 5.443.304m39.023.092c.264.403.263.579-.011 2.875l-.292 2.446-.716.75c-2.021 2.118-2.082 7.519-.096 8.627l.783.438.196 1.557c.314 2.482 1.287 4.076 2.843 4.653.423.157.918.385 1.099.506 1.228.82 3.973-.659 4.851-2.614l.487-1.083.083-8.961.083-8.962.5-.329c.781-.514 9.704-.51 10.17.005.73.807-.034 5.297-1.2 7.047l-.8 1.2-.109 6.25c-.061 3.437-.153 6.587-.206 7-.053.412-.177 1.987-.276 3.5-.604 9.258-3.18 14.786-8.307 17.832-2.126 1.263-2.397 1.347-9.72 3.005-1.843.417-2.468.637-3.252 1.143-1.369.886-2.464.797-2.854-.23-.397-1.047-.393-7.957.005-8.356.324-.324 2.136-.104 3.052.371.968.502 4.325.513 5.841.018.728-.238 1.649-.516 2.047-.618.874-.225 1.801-1.021 3.356-2.884.369-.441.672-.928.674-1.083.002-.155.151-.607.331-1.004l.328-.723-.485-.486c-.468-.467-.544-.485-2.054-.485h-1.568l-.403-.619c-1.295-1.989-8.083-2.87-9.842-1.277-.698.631-2.543.224-2.795-.617-.121-.403-.431-.838-.822-1.152-.66-.531-.838-.903-1.276-2.669-.148-.596-.415-1.515-.593-2.042-.408-1.203-.516-22.592-.117-22.922.494-.408 1.645-.506 6.08-.521l4.704-.015.281.429m-75.023 7.513c-2.697.561-4.729 2.025-6.022 4.337-1.17 2.092-.93 4.822.506 5.752.365.237.596.52.597.731.005.723.542 1.923.979 2.188.242.146.777.624 1.19 1.062 1.15 1.219 3.447 2.322 4.84 2.322 2.435 0 5.561-2.171 6.199-4.304.183-.612.477-1.398.654-1.746l.322-.633-.412-1.2c-.226-.66-.464-1.501-.529-1.867-.119-.676-.359-1.265-.577-1.417-.122-.086-.787-1.494-1.164-2.465-.753-1.943-3.99-3.3-6.583-2.76m3.781 1.926c.705.362 1.408.852 1.563 1.089.156.237.535.684.844.993.309.309.562.66.562.78s.158.361.35.536c.556.503.762 1.042 1.043 2.734l.263 1.584-.456 1.628c-.397 1.414-.525 1.67-.972 1.942-.283.172-.681.546-.883.83-.202.284-.459.516-.571.516-.111 0-.762.192-1.447.427-3.831 1.315-7.977-1.105-8.735-5.097-.146-.772-.348-1.706-.448-2.075-1.218-4.481 4.393-8.199 8.887-5.887m152.674-.256c-.448.158-.797.417-.941.695-.127.244-.383.583-.571.753-.894.809-.256 8.671.735 9.051.587.225 2.905-1.638 2.905-2.334 0-.134.266-.4.591-.592.324-.191.712-.561.861-.821.15-.261.485-.596.745-.745.26-.149.623-.525.806-.835.183-.311.517-.648.741-.751.225-.102.572-.508.771-.901.198-.393.595-.913.882-1.155l.52-.441-.333-.368c-.548-.607-1.139-.818-2.861-1.026-1.092-.131-1.772-.299-2.037-.503-.49-.377-1.791-.389-2.814-.027m6.233 1.208c.84.382 1.003.616.682.983-.136.154-.376.536-.534.848-.248.489-2.675 3.063-5.787 6.138-1.362 1.345-1.579 1.183-1.837-1.37-.202-1.999-.012-3.338.546-3.842.179-.162.326-.415.326-.561.001-.411.632-1.349.908-1.349.135 0 .493-.214.794-.475.919-.799 3.527-.996 4.902-.372M97.833 57.436c-1.145.031-4.145.174-6.666.317-6.596.376-23.983.476-27.75.161-4.603-.385-4.564-.387-5.044.171l-.413.48.086 3.509c.112 4.547.304 5.172 1.539 4.987 1.697-.255 2.66-.473 3.915-.885 2.735-.898-.204-.853 58.417-.904 60.292-.052 55.922.023 59.862-1.026.854-.227 1.746-.413 1.981-.413 1.013 0 1.603-1.19 1.881-3.794.24-2.252-.676-2.675-4.808-2.22-3.296.363-6.89.405-10.25.122-5.807-.491-5.812-.491-10.333-.105-4.426.378-8.583.374-11.167-.01-2.598-.387-8.203-.378-13.333.021-6.655.518-12.817.521-19.417.01-4.648-.359-13.414-.559-18.5-.421m125.866.399c-2.986.212-3.532.487-3.532 1.776 0 .465-.119.924-.31 1.197-.17.243-.473.883-.673 1.422-.342.926-.767 1.512-2.5 3.453-1.322 1.48.452 1.96 4.268 1.154 3.06-.646 6.496-3.159 7.183-5.254.815-2.485.534-3.747-.836-3.752-.302-.001-.812-.03-1.132-.065-.321-.036-1.432-.004-2.468.069M266 57.776c-2.245.116-3.061.539-3.264 1.692-.059.339-.336 1.277-.614 2.087-.507 1.472-.828 1.961-2.664 4.048-.941 1.07-.926.987-.25 1.399.84.512 3.728.29 6.875-.527 4.157-1.079 1.189-.983 34.917-1.131l30.583-.135 1.961-.425c1.078-.235 2.203-.501 2.5-.593.297-.092.849-.216 1.228-.274.852-.132 1.359-1.392 1.514-3.764.135-2.075-.033-2.211-2.533-2.042-2.879.194-6.699.16-10.43-.095-3.479-.237-5.615-.208-11.365.154-2.165.137-3.751.138-5.916.004-5.879-.365-7.73-.382-11.935-.109-5.162.334-13.222.347-19.286.029-5.222-.273-9.742-.401-11.321-.318m-221.083.259c-.748.428-.774.565-.68 3.499.1 3.068.359 5.033.702 5.318.414.344 2.332-.174 3.444-.93.544-.37 1.786-1.085 2.761-1.589l1.773-.916.39-1.084c.643-1.78.693-3.678.109-4.137-.538-.424-7.802-.561-8.499-.161m298.545.311l-.513.513.103 2.612c.122 3.092.395 5.111.728 5.387.486.404 2.325-.136 3.72-1.092.688-.472 1.906-1.178 2.708-1.57 1.625-.793 1.801-1.012 2.206-2.729.817-3.464.606-3.634-4.533-3.634h-3.907l-.512.513m-312.353.125c-.506.56-.25 7.443.297 7.991.037.036.636-.317 1.331-.787.695-.469 1.395-.9 1.555-.959.16-.058 1.004-.533 1.875-1.054.87-.522 1.888-1.104 2.261-1.294 1.002-.509 1.667-3.118.986-3.87-.443-.491-7.864-.514-8.305-.027m83.141-.142c8.95.492 12.029.563 16 .367 12.567-.618 12.405-.616 18.185-.287 5.43.308 6.381.304 13.898-.061 1.238-.06 3.638-.038 5.334.049 4.053.207 9.794.223 13.834.037 4.066-.186 4.104-.152 3.314 2.986l-.175.695-1.528.469c-5.746 1.761.4 1.597-61.945 1.655-40.25.038-55.162.103-55.834.242-1.636.339-2.703.7-4.024 1.364-2.592 1.304-2.617 1.271-2.757-3.766-.118-4.268-.638-3.86 4.584-3.603 4.371.215 23.677.134 28.447-.12 3.489-.186 19.442-.205 22.667-.027m243.258.199c-.426.397-.416 3.866.019 6.472.263 1.583.267 1.585 1.306.886.849-.572 3.101-1.88 5.439-3.161 1.329-.728 1.874-1.764 1.892-3.6.01-1.038-7.618-1.563-8.656-.597m-129.649.097c.166.166.166.412-.001 1.221-.418 2.02-1.992 3.546-5.678 5.506l-2.263 1.204-1.625.074c-1.689.078-2.166-.126-1.134-.485.341-.119.549-.345.678-.737.103-.31.466-.786.807-1.056.464-.367.698-.738.927-1.464.168-.534.481-1.18.695-1.435.416-.496.733-1.422.734-2.151.001-.247.082-.499.181-.56.633-.391 6.306-.49 6.679-.117m52.141.039c4.443.227 9.973.199 16.083-.082 4.278-.196 6.109-.208 9.25-.06 2.57.122 5.608.137 8.834.046 5.281-.15 6.075-.151 16.786-.016 8.073.102 7.453-.02 7.309 1.444-.197 1.999-.17 1.961-1.85 2.597-4.881 1.849-2.822 1.748-35.607 1.734-32.908-.014-31.664-.066-35.651 1.507-3.176 1.254-6.61 1.346-5.112.138.343-.277.625-.601.625-.72 0-.118.331-.551.736-.961.64-.65 1.093-1.565 1.096-2.216.001-.097.221-.476.491-.842.319-.435.53-.969.605-1.537.129-.969.204-1.048 1.155-1.224.82-.152 11.041-.023 15.25.192m-227.011.073c.277.334.053 2.178-.301 2.481-.595.509-3.687 2.344-5.021 2.979-.78.372-1.628.786-1.887.922-.683.359-.692.321-.751-3.205l-.054-3.226.637-.066c1.899-.197 7.187-.114 7.377.115m298.841.009c.408.491.05 2.203-.555 2.654-.809.603-3.716 2.317-5.108 3.012-.688.343-1.419.779-1.625.968-.206.189-.431.287-.5.218-.148-.147-.283-6.497-.146-6.854.14-.365 7.631-.363 7.934.002"/></g></svg>