<svg xmlns="http://www.w3.org/2000/svg" role="img" viewBox="-5.58 -5.58 289.90 285.90"><title>Eclipse Mosquitto™ logo</title><g fill-rule="evenodd"><path fill="#f3771c" d="M125.48725 227.96762c6.9845-6.32625 17.77925-5.792 24.10513 1.19263 5.90837 6.52388 5.8315 16.37075.10487 22.79663l3.94862 4.945 14.557 18.22925-16.70275-16.28538-4.53125-4.41812c-6.95975 5.06475-16.76625 4.16862-22.67462-2.355-6.32588-6.9845-5.79163-17.77925 1.193-24.105zm19.05275 17.5315l-2.6915-3.37112c.51375-1.67312.159-3.566-1.101-4.957-1.90237-2.10088-5.14912-2.26138-7.24987-.359-2.1005 1.90275-2.26138 5.1495-.35863 7.25 1.25963 1.39112 3.1085 1.93112 4.82425 1.58487l3.08863 3.0115c-3.545 1.8135-8.00038 1.1115-10.801-1.98074-3.347-3.69525-3.06425-9.40638.631-12.75338 3.69575-3.347 9.40675-3.06425 12.75387.631 2.80025 3.09225 3.05888 7.59513.90425 10.94388"/><path fill="#3c5280" d="M71.6945 223.81662c3.021 0 5.86175.76288 8.52125 2.26875 2.64975 1.50513 4.7275 3.56275 6.21325 6.14225 1.49525 2.58988 2.23825 5.38025 2.23825 8.38075 0 3.02138-.75325 5.84175-2.2485 8.47163-1.50525 2.62987-3.543 4.67712-6.13275 6.16287-2.5895 1.47575-5.44038 2.21775-8.56138 2.21775-4.58675 0-8.5015-1.63587-11.74362-4.8975-3.24175-3.26237-4.86738-7.22737-4.86738-11.89425 0-4.99812 1.8365-9.164 5.49988-12.49612 3.212-2.90063 6.90525-4.35613 11.081-4.35613zm88.54625.82275h8.12012v15.41688c0 2.99162.20063 5.079.612 6.24363.422 1.164 1.07425 2.07712 1.98738 2.72025.91387.652 2.03775.973 3.37287.973 1.33475 0 2.45875-.321 3.39238-.95313.93325-.64212 1.626-1.57612 2.07775-2.81025.33062-.92337.4915-2.891.4915-5.91237v-15.678h8.06037v13.5605c0 5.59037-.44187 9.415-1.32525 11.47225-1.074 2.509-2.66037 4.4365-4.758 5.77162-2.09762 1.34438-4.7675 2.01688-7.999 2.01688-3.51312 0-6.3435-.78275-8.51175-2.3485-2.16775-1.57538-3.69387-3.75375-4.57687-6.564-.6225-1.9375-.9435-5.4705-.9435-10.57925v-13.3295zm101.74675-.82275c3.02137 0 5.862.76288 8.52125 2.26875 2.65 1.50513 4.7275 3.56275 6.21325 6.14225 1.49563 2.58988 2.23825 5.38025 2.23825 8.38075 0 3.02138-.753 5.84175-2.24825 8.47163-1.50512 2.62987-3.54325 4.67712-6.13312 6.16287-2.589 1.47575-5.44 2.21775-8.561 2.21775-4.58713 0-8.50138-1.63587-11.7435-4.8975-3.24175-3.26237-4.86788-7.22737-4.86788-11.89425 0-4.99812 1.83688-9.164 5.50038-12.49612 3.212-2.90063 6.90512-4.35613 11.08062-4.35613zm.12037 7.55813c-2.48912 0-4.56687.87275-6.22274 2.60975-1.65613 1.7365-2.4795 3.95387-2.4795 6.65425 0 2.79037.81312 5.039 2.45937 6.76525 1.63588 1.72637 3.7035 2.58912 6.21288 2.58912 2.509 0 4.597-.87312 6.26312-2.61925 1.666-1.7465 2.49938-3.98475 2.49938-6.73512 0-2.74-.81313-4.968-2.44913-6.68475-1.64587-1.716-3.73425-2.57925-6.28337-2.57925zm-32.22912-18.51838h7.99975v11.783h4.75688v6.91575h-4.75688v25.08275h-7.99975v-25.08275h-4.11562v-6.91575h4.11562v-11.783zm-18.05675 0h7.99938v11.783h4.75687v6.91575h-4.75687v25.08275H211.822v-25.08275h-4.11587v-6.91575h4.11587v-11.783zm-12.25587-1.385c1.40525 0 2.62025.512 3.63362 1.52575 1.0035 1.02325 1.50525 2.2585 1.50525 3.70338 0 1.4355-.4915 2.65962-1.49537 3.6635-1.00338 1.01375-2.1975 1.5155-3.583 1.5155-1.43575 0-2.66025-.512-3.66375-1.546-1.01338-1.02325-1.51575-2.27838-1.51575-3.74313 0-1.41562.50237-2.62025 1.49587-3.62375 1.0035-.9935 2.20825-1.49525 3.62313-1.49525zm-4.03513 13.168h8.06025v31.9985H195.531v-31.9985zm-195.531 0h8.05925v3.68425c1.37475-1.51612 2.9005-2.64012 4.5765-3.38312 1.677-.74225 3.50288-1.12387 5.48113-1.12387 1.997 0 3.80375.49212 5.40962 1.47574 1.60575.98288 2.9005 2.40913 3.88413 4.29588 1.27487-1.88675 2.84062-3.313 4.68737-4.29588 1.85638-.98362 3.87463-1.47575 6.07225-1.47575 2.27863 0 4.276.53213 6.00238 1.59625 1.72625 1.05375 2.96112 2.43888 3.71375 4.14488.76287 1.7065 1.1345 4.477 1.1345 8.32075v18.75937h-8.0805v-16.23012c0-3.633-.451-6.08237-1.35463-7.36687-.9035-1.2845-2.2585-1.9275-4.05525-1.9275-1.37487 0-2.60975.3915-3.69362 1.17487-1.09375.78312-1.89638 1.867-2.4285 3.25138-.53188 1.38512-.793 3.6035-.793 6.665v14.43324h-8.09013V241.1405c0-2.86013-.21087-4.93788-.63212-6.22313-.42163-1.28437-1.05413-2.23762-1.89713-2.85975-.84362-.6325-1.85737-.94424-3.0515-.94424-1.33512 0-2.549.40174-3.63325 1.19474-1.08387.79263-1.907 1.907-2.43887 3.33213-.54213 1.43537-.81313 3.68362-.81313 6.76562v14.232H0v-31.9985zm114.80313 4.47688l-4.96813 4.96887c-2.01687-1.99812-3.84412-3.00162-5.49037-3.00162-.9035 0-1.616.191-2.11775.57225-.512.381-.7725.8635-.7725 1.42512 0 .43126.1705.83338.4915 1.19413.321.36175 1.12387.85325 2.39875 1.48613l2.93075 1.46512c3.10137 1.536 5.2295 3.09113 6.384 4.67675 1.15437 1.58675 1.7365 3.45375 1.7365 5.59138 0 2.84-1.04425 5.209-3.1315 7.116-2.08813 1.89712-4.88838 2.85025-8.39138 2.85025-4.66725 0-8.39087-1.82588-11.18125-5.46938l4.94825-5.38062c.93363 1.09462 2.03775 1.98787 3.30238 2.66037 1.26462.67175 2.3885 1.01375 3.37187 1.01375 1.05438 0 1.90763-.25087 2.55013-.76287.65225-.512.97362-1.0945.97362-1.76713 0-1.23412-1.16462-2.43875-3.49337-3.613l-2.7095-1.355c-5.17963-2.60962-7.7595-5.87162-7.7595-9.78588 0-2.53.974-4.69774 2.9215-6.48424 1.94662-1.7965 4.4465-2.7 7.48762-2.7 2.0775 0 4.0245.462 5.861 1.37512 1.83725.9135 3.39275 2.21813 4.65738 3.9245zm-42.98813 2.2585c-2.48925 0-4.567.87275-6.22312 2.60975-1.65575 1.7365-2.47925 3.95388-2.47925 6.65425 0 2.79038.81287 5.039 2.459 6.76525 1.63637 1.72637 3.70387 2.58913 6.21287 2.58913 2.50938 0 4.5975-.87313 6.26313-2.61926 1.66612-1.7465 2.4995-3.98475 2.4995-6.73512 0-2.74-.81325-4.968-2.44913-6.68475-1.64587-1.716-3.734-2.57925-6.283-2.57925"/><path fill="#f3771c" d="M139.48013 212.1315l3.87925-52.99337 3.14925-43.031c6.4895-2.7425 11.0445-9.168 11.0445-16.655 0-9.97963-8.09325-18.073-18.073-18.073-9.97975 0-18.073 8.09337-18.073 18.073 0 7.487 4.55487 13.9125 11.0445 16.655l3.14925 43.031 3.87925 52.99337z"/><path fill="#3c5280" d="M16.04937 99.38313c0 30.57262 11.17775 59.19087 30.5635 81.30462l-11.68374 10.47338c-21.876-24.89488-34.56526-57.228-34.56526-91.778 0-38.93 16.00126-74.12963 41.78226-99.38276l.5875.52688 34.55925 30.98062C44.81288 61.283 38.08625 109.7055 60.68475 147.008l11.93037-10.6945c-17.2265-31.11975-10.66325-70.42775 16.42425-94.275l11.83325 10.6055 10.52463 9.4365 10.91662 9.786c-4.083 2.56-7.55362 6.0055-10.1435 10.06725-3.20025 5.01975-5.05487 10.98038-5.05487 17.37275 0 14.25013 9.21512 26.352 22.00962 30.67163l1.10088 15.0385c-21.31725-4.29375-37.37613-23.12963-37.37613-45.71013 0-10.05475 3.184-19.36762 8.59888-26.98437l-10.445-9.36525-.03938-.0355c-17.123 22.74412-16.065 54.32037 2.37375 75.88062l-35.043 31.4135c-34.5005-39.50887-35.4855-98.14887-2.44162-138.76787L44.16412 20.96825C28.03037 40.556 17.81362 65.19938 16.25737 92.16188l-.07125.07962.06338.05675c-.13288 2.345-.20013 4.70688-.20013 7.08488zm133.78575 30.595c12.7945-4.31963 22.0095-16.42188 22.0095-30.67163 0-6.39238-1.8545-12.353-5.0545-17.37237-2.58974-4.06176-6.0605-7.50763-10.143-10.06726l10.91613-9.786 10.52575-9.43575-.001-.00112 11.83325-10.6055c27.0875 23.84725 33.65075 63.15525 16.42425 94.275l11.93025 10.6945c22.59825-37.3025 15.872-85.725-16.60813-115.50012l34.56075-30.982.586-.5255c25.78113 25.25312 41.78238 60.45275 41.78238 99.38275 0 34.55-12.68938 66.88312-34.56538 91.778l-11.68362-10.47338c19.38537-22.11375 30.56312-50.732 30.56312-81.30462 0-2.378-.067-4.73988-.19987-7.08488l.06337-.05675-.07112-.07962c-1.55625-26.9625-11.773-51.60588-27.90713-71.19363l-11.689 10.47938c33.04375 40.619 32.05838 99.259-2.44175 138.76787l-35.04325-31.4135c18.439-21.56025 19.497-53.1365 2.374-75.88062l-.03962.0355-10.445 9.36525c5.41487 7.617 8.59887 16.92987 8.59887 26.98437 0 22.5805-16.059 41.416-37.37587 45.71013l1.10062-15.0385z"/></g></svg>