<svg xmlns="http://www.w3.org/2000/svg" role="img" xmlns:xlink="http://www.w3.org/1999/xlink" viewBox="-9.54 -9.29 249.08 61.08"><title>Enterprise Support for Zowe logo</title><path d="M232.506 4.298c-1.06 0-1.93-.86-1.93-1.92s.87-1.93 1.93-1.93 1.93.87 1.93 1.93-.87 1.92-1.93 1.92m0-4.32c-1.32 0-2.4 1.08-2.4 2.4 0 1.32 1.08 2.4 2.4 2.4 1.32 0 2.4-1.08 2.4-2.4 0-1.32-1.08-2.4-2.4-2.4"/><path d="M232.666 2.278l-.51.01-.01-.62h.51c.19-.01.34.11.34.3.01.19-.14.31-.33.31m.83-.32c-.01-.42-.3-.72-.77-.72l-1.07.02.03 2.26h.49l-.01-.81h.35l.46.8.55-.01-.52-.86c.24-.06.49-.28.49-.68M47.0201 18.3885h-5.999V4.5545h5.835c1.574 0 2.557 1.016 2.557 2.393 0 1.377-.983 2.36-2.557 2.36H40.186v4h6.8341c1.836 0 2.819 1.18 2.819 2.556 0 1.574-1.049 2.525-2.819 2.525m3.376-7.245c2.066-.426 3.771-2.262 3.771-5.015 0-2.918-2.131-5.573-6.295-5.573h-11.506v21.865h11.867c4.163 0 6.359-2.623 6.359-5.901 0-2.754-1.868-5.015-4.196-5.376m17.8225-.5902H63.186v4.098h3.5576l4.294 7.769h5.343l-4.917-8.327c2.361-.557 4.786-2.622 4.786-6.49m0 0c0-4.065-2.786-7.048-7.343-7.048h-10.228v21.865h4.655V4.6533h4.885c1.869 0 3.278 1.114 3.278 2.95s-1.409 2.95-3.278 2.95m43.4206 4.0652l3.409-9.408 3.41 9.408zm.492-14.063l-8.458 21.865h5.31l1.377-3.704h9.376l1.344 3.704h5.311l-8.425-21.865zm26.9039 17.7671h-3.967v-13.67h3.967c4.491 0 6.851 2.983 6.851 6.852 0 3.704-2.524 6.818-6.851 6.818m0-17.767h-8.622v21.865h8.622c6.851 0 11.604-4.327 11.604-10.916s-4.753-10.949-11.604-10.949M221.162.5511l-5.734 9.27-5.734-9.27h-5.146v21.869h4.656V8.1271l5.012 7.622c.574.871 1.851.871 2.424 0l5.013-7.622v14.293h4.656V.5511z"/><path id="a" d="M91.0113 18.5521c-3.871 0-7.008-3.138-7.008-7.008 0-3.871 3.137-7.009 7.008-7.009 3.87 0 7.008 3.138 7.008 7.009 0 3.87-3.138 7.008-7.008 7.008m0-18.536c-6.367 0-11.528 5.161-11.528 11.528 0 6.366 5.161 11.527 11.528 11.527 6.366 0 11.528-5.161 11.528-11.527 0-6.367-5.162-11.528-11.528-11.528"/><path d="M171.5895 14.9349c-1.195 2.156-3.492 3.617-6.132 3.617-3.87 0-7.008-3.138-7.008-7.008 0-3.871 3.138-7.008 7.008-7.008 2.618 0 4.897 1.438 6.1 3.565l3.27-3.269c-2.092-2.915-5.508-4.816-9.37-4.816-6.367 0-11.527 5.161-11.527 11.528 0 6.366 5.16 11.528 11.527 11.528 3.883 0 7.316-1.922 9.404-4.865z"/><use transform="translate(98.718)" xlink:href="#a"/><ellipse cx="11.706" cy="11.705" fill="#cc092f" rx="16.236" ry="16.235"/><path fill="#fff" d="M26.0113 16.0912c-1.857-.74-3.557-.492-5.261.541 0 0-.621.379-.807.496-.794.498-1.543.97-2.263.97-.687 0-1.363-.184-1.649-1.513-.446-2.073-1.534-7.167-2.009-9.69-.279-1.483-.432-2.282-.591-2.825-.28-.954-.792-1.473-1.519-1.556 0 0-.114-.016-.207-.016-.092 0-.218.018-.218.018-.72.086-1.229.605-1.507 1.554-.159.543-.312 1.342-.591 2.825-.475 2.523-1.563 7.617-2.009 9.69-.286 1.329-.962 1.513-1.649 1.513-.72 0-1.469-.472-2.263-.97-.186-.117-.808-.496-.808-.496-1.703-1.033-3.404-1.281-5.26-.541-.401.16-.79596.33918-1.17196.52018.257.806.57693 1.59925.94993 2.34425.411-.202.84203-.40243 1.28203-.53243.634-.187 1.284-.197 1.914.014.612.205 1.157.568 1.7.909 1.023.643 2.182 1.372 3.657 1.372 2.186 0 3.72-1.305 4.21-3.581.38-1.764 1.222-5.702 1.763-8.418 0 0 1.386 6.654 1.765 8.418.49 2.276 2.025 3.581 4.211 3.581 1.475 0 2.634-.729 3.657-1.372.543-.341 1.088-.704 1.7-.909.629-.211 1.28-.201 1.914-.014.44.13.87039.33065 1.28139.53265.374-.745.69309-1.53862.95009-2.34462-.376-.181-.77048-.36003-1.17148-.52003"/><path d="M54.21514 45.208H49.4251v-7.2705h4.79004v.85937H50.3919v1.99219h3.82324v.85937H50.3919v2.7002h3.82324zm6.0205 0h-.91796v-3.10547q0-.37598-.04395-.70312-.04395-.33204-.16113-.51758-.12207-.20508-.35156-.30274-.2295-.10254-.5957-.10254-.37599 0-.78614.18555-.41016.18555-.78613.47363V45.208h-.91797v-5.4541h.91797v.60547q.42968-.35645.88867-.55664.45898-.2002.94238-.2002.88379 0 1.34766.53223.46386.53222.46386 1.5332zm4.59962-.04883q-.2588.06836-.5664.1123-.30274.04395-.542.04395-.83496 0-1.26953-.44921-.43457-.44922-.43457-1.44043v-2.9004h-.62012v-.77148h.62012v-1.56738h.91797v1.56738h1.89453v.77149h-1.89453v2.48535q0 .42968.01953.67383.01953.23925.13672.44921.10742.19532.29296.28809.19043.08789.57618.08789.2246 0 .46875-.06348.24414-.06836.35156-.1123h.04883zm5.67383-2.583h-4.01856q0 .50292.15137.8789.15137.3711.41504.61035.2539.23437.60058.35156.35157.11719.77149.11719.55664 0 1.11816-.21973.5664-.2246.80567-.43945h.04883v1.00098q-.46387.1953-.94727.32714-.4834.13184-1.01562.13184-1.35743 0-2.11915-.73242-.76171-.7373-.76171-2.08984 0-1.3379.72754-2.12403.73242-.78613 1.92382-.78613 1.10352 0 1.69922.64453.60059.64453.60059 1.83105zm-.89356-.70313q-.0049-.72266-.3662-1.11817-.35645-.3955-1.08888-.3955-.7373 0-1.17675.43457-.43457.43457-.49317 1.0791zm5.68848-1.11817h-.04883q-.20508-.04883-.4004-.06836-.19042-.0244-.4541-.0244-.4248 0-.8203.19042-.39551.18555-.76173.4834V45.208h-.91796v-5.4541h.91796v.80566q.54688-.43945.96192-.62012.41992-.18554.8545-.18554.23925 0 .34667.01465.10742.0098.32227.04395zm5.66406 1.66016q0 .66406-.19043 1.21582-.19043.54687-.5371.92773-.32227.36133-.76173.56153-.43457.19531-.92285.19531-.4248 0-.77148-.09277-.3418-.09277-.69825-.28809v2.28516h-.91796V39.7539h.91796v.57129q.36622-.30762.82032-.5127.45898-.20996.97656-.20996.98633 0 1.5332.74707.55176.74219.55176 2.06543zm-.94727.0244q0-.98632-.3369-1.4746-.33692-.48828-1.03517-.48828-.3955 0-.7959.1709-.40038.1709-.7666.44922v3.09082q.39063.17578.66895.23925.2832.06348.63965.06348.7666 0 1.19629-.51757.42968-.51758.42968-1.5332zm5.78125-1.68456h-.04883q-.20507-.04883-.40039-.06836-.19043-.02441-.4541-.02441-.4248 0-.8203.19043-.39552.18554-.76173.4834V45.208h-.91797v-5.4541h.91797v.80566q.54688-.43945.96192-.62012.41992-.18554.85449-.18554.23926 0 .34668.01465.10742.0098.32226.04395zm1.8506-1.91406h-1.03517v-.95215h1.03516zm-.0586 6.36719h-.91797v-5.4541h.91797zm5.71289-1.57227q0 .74707-.62012 1.22559-.61523.47852-1.68457.47852-.60547 0-1.11328-.1416-.50293-.14649-.84473-.31739v-1.03027h.04883q.43457.32715.9668.52246.53223.19043 1.0205.19043.60548 0 .94727-.19531.3418-.19532.3418-.61524 0-.32226-.18555-.48828-.18554-.16602-.71289-.2832-.19531-.04395-.5127-.10254-.3125-.0586-.57128-.12696-.71777-.19042-1.02051-.55663-.29785-.3711-.29785-.9082 0-.33692.13672-.63477.1416-.29786.4248-.53223.27344-.2295.69336-.36133.4248-.13672.94727-.13672.48828 0 .98633.12207.50293.11719.83496.28809v.98144h-.04883q-.35157-.25879-.8545-.43457-.50293-.18066-.98632-.18066-.50293 0-.84961.19531-.34668.19043-.34668.5713 0 .3369.20996.5078.20508.1709.66406.27832.2539.0586.5664.1172.31739.05858.52735.10741.63965.14649.98633.50293.34668.36133.34668.95703zm5.8789-1.05957H95.1673q0 .50293.15137.87891.15136.3711.41504.61035.2539.23438.60058.35156.35156.1172.77149.1172.55664 0 1.11816-.21974.5664-.2246.80566-.43945h.04883v1.00098q-.46386.19531-.94726.32715-.4834.13183-1.01563.13183-1.35742 0-2.11914-.73242-.76172-.7373-.76172-2.08984 0-1.3379.72754-2.12403.73242-.78613 1.92383-.78613 1.10352 0 1.69922.64453.60058.64453.60058 1.83106zm-.89355-.70312q-.0049-.72266-.36621-1.11817-.35645-.3955-1.08887-.3955-.7373 0-1.17676.43457-.43457.43457-.49316 1.0791zm11.15723 1.25976q0 .42481-.2002.83985-.19531.41504-.55176.70312-.39062.3125-.91308.48828-.51758.17579-1.25.17579-.78614 0-1.41602-.14649-.625-.14648-1.27441-.43457v-1.21094h.0684q.55175.45899 1.27441.70801.72266.24902 1.35742.24902.89844 0 1.39649-.3369.50293-.33692.50293-.89845 0-.4834-.23926-.71289-.23438-.22949-.71777-.35644-.36622-.09766-.7959-.16114-.42481-.06348-.90332-.16113-.9668-.20508-1.43555-.69824-.46387-.49805-.46387-1.29394 0-.9131.77149-1.49415.77148-.58593 1.95801-.58593.7666 0 1.40625.14648.63964.14648 1.13281.36133v1.14258h-.0684q-.41504-.35156-1.09375-.58106-.67383-.23437-1.38184-.23437-.77636 0-1.25.32226-.46875.32227-.46875.83008 0 .4541.23438.7129.23437.25878.82519.3955.3125.06836.88867.16601.57618.09767.97657.2002.81054.21484 1.2207.64941.41016.43457.41016 1.21582zm6.00097 2.0752h-.91797v-.60547q-.46386.36621-.88867.56152-.4248.19532-.9375.19532-.85937 0-1.33789-.52246-.47851-.52735-.47851-1.54297V39.7539h.91796v3.10547q0 .41504.0391.71289.0391.29297.16601.50293.13184.21484.3418.3125.20996.09766.61035.09766.35645 0 .77637-.18555.4248-.18555.79101-.47363V39.7539h.91797zm6.60645-2.79297q0 .66406-.19043 1.21582-.19043.54688-.53711.92774-.32227.36132-.76172.56152-.43457.19531-.92285.19531-.42481 0-.77149-.09277-.34179-.09277-.69824-.28808v2.28515h-.91797V39.7539h.91797v.5713q.36621-.30763.82031-.5127.45899-.20997.97657-.20997.98633 0 1.5332.74707.55176.7422.55176 2.06543zm-.94727.02441q0-.98633-.33691-1.4746-.33692-.48829-1.03516-.48829-.39551 0-.7959.1709-.40039.1709-.7666.44922v3.09082q.39063.17578.66895.23926.2832.06348.63965.06348.7666 0 1.19629-.51758.42968-.51758.42968-1.5332zm7.17774-.0244q0 .66405-.19043 1.21581-.19043.54688-.53711.92774-.32227.36132-.76172.56152-.43457.19531-.92285.19531-.42481 0-.77149-.09277-.34179-.09277-.69824-.28808v2.28515h-.91797V39.7539h.91797v.5713q.36621-.30763.82031-.5127.45899-.20997.97657-.20997.98632 0 1.5332.74707.55176.7422.55176 2.06543zm-.94727.0244q0-.98633-.33691-1.4746-.33692-.48829-1.03516-.48829-.39551 0-.7959.1709-.40039.1709-.7666.44922v3.09082q.39063.17578.66895.23926.2832.06348.63964.06348.76661 0 1.19629-.51758.42969-.51758.42969-1.5332zm7.02637.04395q0 1.333-.6836 2.1045-.68359.77148-1.83105.77148-1.15723 0-1.84082-.77149-.67871-.77148-.67871-2.10449 0-1.333.67871-2.1045.68359-.77636 1.84082-.77636 1.14746 0 1.83105.77637.6836.77148.6836 2.1045zm-.94727 0q0-1.05957-.41504-1.57226-.41504-.51758-1.15234-.51758-.74707 0-1.16211.51758-.41016.51269-.41016 1.57226 0 1.0254.41504 1.55762.41504.52734 1.15723.52734.73242 0 1.14746-.52246.41992-.52734.41992-1.5625zm5.77149-1.72851h-.0488q-.20508-.04883-.40039-.06836-.19043-.02441-.4541-.02441-.42481 0-.82032.19042-.3955.18555-.76171.4834V45.208h-.91797v-5.4541h.91797v.80566q.54687-.43945.96191-.62012.41992-.18554.85449-.18554.23926 0 .34668.01465.10742.0098.32227.04395zm3.69629 4.4043q-.25879.06835-.56641.1123-.30273.04395-.54199.04395-.83496 0-1.26953-.44922t-.43457-1.44043v-2.9004h-.62012v-.77148h.62012v-1.56738h.91797v1.56738h1.89453v.77149h-1.89453v2.48535q0 .42969.0195.67383.0195.23926.13672.44922.10742.1953.29296.28808.19043.0879.57618.0879.22461 0 .46875-.06349.24414-.06836.35156-.1123h.0488zm7.55859-6.66016h-.0488q-.15137-.04395-.39551-.0879-.24414-.04882-.42968-.04882-.59082 0-.85938.26367-.26367.25879-.26367.94238v.18555h1.65527v.77148h-1.62597V45.208h-.91797v-4.68262h-.62012v-.77148h.62012v-.18067q0-.97168.4834-1.48925.48339-.52246 1.39648-.52246.30762 0 .55176.0293.24902.0293.4541.06836zm5.22949 3.98437q0 1.333-.68359 2.1045-.6836.77148-1.83106.77148-1.15722 0-1.84082-.77149-.67871-.77148-.67871-2.10449 0-1.333.67871-2.1045.6836-.77636 1.84082-.77636 1.14746 0 1.83106.77637.68359.77148.68359 2.1045zm-.94726 0q0-1.05957-.41504-1.57226-.41504-.51758-1.15235-.51758-.74707 0-1.16211.51758-.41015.51269-.41015 1.57226 0 1.0254.41504 1.55762.41504.52734 1.15722.52734.73243 0 1.14746-.52246.41993-.52734.41993-1.5625zm5.77148-1.72851h-.0488q-.20508-.04883-.40039-.06836-.19043-.02441-.4541-.02441-.4248 0-.82031.19042-.39551.18555-.76172.4834V45.208h-.918v-5.4541h.91797v.80566q.54687-.43945.96191-.62012.41993-.18554.8545-.18554.23925 0 .34668.01465.10742.0098.32226.04395zm9.76563 4.45312h-5.67383v-.89844l4.45801-5.5127h-4.292v-.85937h5.40039v.87403l-4.50195 5.5371h4.60938zm5.82031-2.7246q0 1.333-.6836 2.10448-.68359.77149-1.83105.77149-1.15723 0-1.84082-.77149-.67871-.77148-.67871-2.10449 0-1.333.67871-2.1045.68359-.77636 1.84082-.77636 1.14746 0 1.83105.77637.6836.77148.6836 2.1045zm-.94727 0q0-1.05958-.41504-1.57227-.41504-.51758-1.15234-.51758-.74707 0-1.16211.51758-.41016.51269-.41016 1.57226 0 1.0254.41504 1.55762.41504.52734 1.15723.52734.73242 0 1.14746-.52246.41992-.52734.41992-1.5625zm9.22852-2.7295l-1.4209 5.4541h-.84961l-1.40137-4.2041-1.3916 4.2041h-.84472l-1.43555-5.4541h.95703l1.00098 4.22363 1.3623-4.22363h.75684l1.39648 4.22363.94727-4.22363zm5.88867 2.82226h-4.01855q0 .50293.15136.87891.15137.3711.41504.61035.25391.23438.60059.35157.35156.11718.77148.11718.55664 0 1.11817-.21972.5664-.22461.80566-.43946h.0488v1.00098q-.46387.19531-.94727.32715-.4834.13183-1.01562.13183-1.35742 0-2.11914-.73242-.76172-.7373-.76172-2.08984 0-1.3379.72754-2.12403.73242-.78613 1.92383-.78613 1.10351 0 1.69921.64453.60059.64453.60059 1.83106zm-.89355-.70312q-.005-.72266-.36622-1.11816-.35644-.39551-1.08886-.39551-.73731 0-1.17676.43457-.43457.43457-.49316 1.0791z" text-anchor="middle"/></svg>