<svg xmlns="http://www.w3.org/2000/svg" role="img" viewBox="-4.84 -4.59 251.94 221.69"><title>Erlang logo</title><g fill="#a90533"><path d="M38.00333 153.65612C19.2 133.73121 8.19833 106.20487 8.22622 73.3621 8.20024 44.31687 17.32626 19.35117 33.01512.35394l-.02534.0095H.01394V153.6593h37.96594l.02345-.003zm173.66938.01267c8.10012-8.67548 15.3581-18.89267 21.93489-30.57742l-36.49901-18.24951c-12.81837 20.83929-31.56404 40.02091-57.48594 40.14891-37.72641-.128-52.54907-32.3878-52.46732-73.9105h140.97742c.1882-4.68783.1882-6.86764 0-9.12411.92008-24.70337-5.62693-45.46788-17.53663-61.63834l-.0615.04626h31.74147v153.29584h-30.67248l.0691.009z"/><path d="M89.43715 35.49374c1.56071-18.79952 16.38273-31.44237 33.76158-31.4804 17.49735.03803 30.13957 12.68088 30.56792 31.4804h-64.3295z"/></g><path d="M20.08903 179.6084v-6.3867H.47081v37.86773h19.61822v-6.38796H7.77061v-10.0366h11.86155v-6.38732H7.7706v-8.66915h12.31842zm33.30535 15.51208c4.89061-.72617 7.57608-5.57243 7.75604-10.49346-.17996-8.0507-5.39882-11.38186-12.77466-11.40594H38.33854v37.86772h7.2998v-15.05584l9.12475 15.05584h9.12475l-10.49346-15.96832zm-7.75668-15.96769h.91248c3.98257.14955 6.97156 1.05822 6.84356 5.9311.128 4.46478-2.7596 5.67635-6.84356 5.47484h-.91248V179.1528zm41.06139-5.93109h-7.29917v37.86772h17.79263v-6.38796H86.6991V173.2217zm47.90495 30.11105l3.19366 7.75604h7.75604l-14.14336-38.7802h-5.93109l-15.05584 38.7802h7.7554l3.1943-7.75604h13.23089zm-1.82495-5.93045h-9.12475l4.10614-14.14337 5.01861 14.14337zm26.46241 13.68713h7.75541v-25.5493l20.07509 26.46114h5.47422v-38.77956h-7.75541v25.5493l-20.07509-26.46241h-5.47422v38.78083zm65.24198-20.07509v5.93109h8.21228c-.17109 4.76642-4.07192 8.80475-8.66851 8.66851-7.25925.13624-10.85656-6.87905-10.94971-13.23089.0932-6.26693 3.63977-13.58574 10.94971-13.68713 3.8362.10076 7.07928 2.72539 8.66851 5.9311l6.38733-3.19367c-2.80903-5.91715-8.48349-9.19826-15.05584-9.12476-11.3128-.0729-18.55747 9.2648-18.70575 20.07446.14828 10.54036 7.19082 19.92871 18.24951 20.07446 11.94329-.14575 17.46566-9.68555 17.33703-20.5307v-.91247h-16.42456z"/></svg>