<svg xmlns="http://www.w3.org/2000/svg" role="img" viewBox="-8.44 26.06 542.88 193.38"><title>European Mainframe Academy logo</title><style>svg {enable-background:new 0 0 400 245}</style><style id="style2" type="text/css">.st7{fill:#00518c}.st11{fill:#84c5de}</style><g id="text4" fill="#00518c" transform="translate(2.14 208.465)"><path id="path61" d="M 27.047365,-27.589298 V 0 H 22.490204 V -24.066735 H 10.050387 V 0 H 5.4932262 v -24.066735 h -4.335461 v -3.522563 h 4.335461 v -1.921397 q 0,-4.507894 2.1184639,-6.650991 2.1430973,-2.167731 6.5524579,-2.167731 h 4.557161 v 3.768895 h -4.335461 q -2.438697,0 -3.399396,0.985332 -0.936065,0.985332 -0.936065,3.547196 v 2.438696 z M 22.490204,-38.28015 h 4.557161 v 5.739559 h -4.557161 z"/><path id="path63" d="m 53.063713,-35.422687 v 7.833389 h 9.336022 v 3.522563 h -9.336022 v 14.9770468 q 0,3.3747623 0.911432,4.335461 0.936066,0.9606988 3.768896,0.9606988 h 4.655694 V 0 H 57.744041 Q 52.497147,0 50.50185,-1.9460308 48.506553,-3.9166949 48.506553,-9.0896882 V -24.066735 h -3.325496 v -3.522563 h 3.325496 v -7.833389 z"/><path id="path65" d="m 110.41362,-38.329417 v 3.768895 h -4.33546 q -2.43869,0 -3.39939,0.985332 -0.93607,0.985332 -0.93607,3.547196 v 2.438696 h 7.46389 v 3.522563 H 101.7427 V 0 h -4.55716 v -24.066735 h -4.335461 v -3.522563 h 4.335461 v -1.921397 q 0,-4.606427 2.143098,-6.700258 2.143092,-2.118464 6.798792,-2.118464 z"/><path id="path67" d="m 130.87337,-24.411602 q -3.64573,0 -5.76419,2.857463 -2.11847,2.83283 -2.11847,7.784124 0,4.9512931 2.09384,7.8087561 2.11846,2.8328296 5.78882,2.8328296 3.6211,0 5.73956,-2.8574629 2.11846,-2.857463 2.11846,-7.7841228 0,-4.902027 -2.11846,-7.75949 -2.11846,-2.882097 -5.73956,-2.882097 z m 0,-3.842795 q 5.91199,0 9.28676,3.842795 3.37476,3.842795 3.37476,10.641587 0,6.7741574 -3.37476,10.6415857 -3.37477,3.84279504 -9.28676,3.84279504 -5.93662,0 -9.31139,-3.84279504 -3.35013,-3.8674283 -3.35013,-10.6415857 0,-6.798792 3.35013,-10.641587 3.37477,-3.842795 9.31139,-3.842795 z"/><path id="path69" d="m 173.01042,-23.35237 q -0.76363,-0.443399 -1.67506,-0.640466 -0.8868,-0.221699 -1.97067,-0.221699 -3.84279,0 -5.91199,2.512596 -2.04456,2.487964 -2.04456,7.168291 V 0 h -4.55717 v -27.589298 h 4.55717 v 4.286195 q 1.42873,-2.512597 3.71962,-3.719629 2.2909,-1.231665 5.56713,-1.231665 0.46803,0 1.0346,0.0739 0.56656,0.04927 1.2563,0.172433 z"/><path id="path71" d="m 227.35507,-22.293138 q 1.6997,-3.054529 4.0645,-4.507894 2.36479,-1.453365 5.56712,-1.453365 4.31083,0 6.65099,3.029896 2.34017,3.005263 2.34017,8.572389 V 0 h -4.55716 v -16.504312 q 0,-3.965961 -1.4041,-5.887359 -1.4041,-1.921398 -4.2862,-1.921398 -3.52256,0 -5.56712,2.340164 -2.04457,2.340164 -2.04457,6.380025 V 0 h -4.55716 v -16.504312 q 0,-3.990595 -1.4041,-5.887359 -1.40409,-1.921398 -4.33546,-1.921398 -3.47329,0 -5.51786,2.364797 -2.04456,2.340164 -2.04456,6.355392 V 0 h -4.55716 v -27.589298 h 4.55716 v 4.286195 q 1.5519,-2.53723 3.71963,-3.744262 2.16773,-1.207032 5.14836,-1.207032 3.00526,0 5.09909,1.527265 2.11847,1.527265 3.12843,4.433994 z"/><path id="path73" d="m 273.58124,-13.868549 q -5.49322,0 -7.61169,1.256299 -2.11846,1.256298 -2.11846,4.2861941 0,2.4140636 1.57653,3.842795 1.60117,1.4040982 4.33546,1.4040982 3.7689,0 6.03516,-2.6603965 2.2909,-2.6850299 2.2909,-7.1190238 v -1.009966 z m 9.04042,-1.872131 V 0 h -4.53252 v -4.1876612 q -1.5519,2.5125967 -3.86743,3.71962847 -2.31553,1.18239847 -5.66566,1.18239847 -4.23693,0 -6.74952,-2.36479694 -2.48797,-2.3894302 -2.48797,-6.3800251 0,-4.6556937 3.1038,-7.0204907 3.12843,-2.364797 9.31139,-2.364797 h 6.35539 v -0.4434 q 0,-3.128429 -2.0692,-4.828127 -2.04456,-1.724331 -5.76419,-1.724331 -2.3648,0 -4.60643,0.566566 -2.24163,0.566566 -4.31083,1.699698 v -4.187661 q 2.48797,-0.960699 4.82813,-1.428732 2.34016,-0.492666 4.55716,-0.492666 5.98589,0 8.94189,3.103796 2.95599,3.103796 2.95599,9.409921 z"/><path id="path75" d="m 297.98232,-27.589298 h 4.53252 V 0 h -4.53252 z m 0,-10.740119 h 4.53252 v 5.739559 h -4.53252 z"/><path id="path77" d="M 340.90765,-16.652112 V 0 h -4.53253 v -16.504312 q 0,-3.916695 -1.52726,-5.862726 -1.52727,-1.946031 -4.5818,-1.946031 -3.67036,0 -5.78882,2.340164 -2.11847,2.340164 -2.11847,6.380025 V 0 h -4.55716 v -27.589298 h 4.55716 v 4.286195 q 1.6258,-2.487964 3.81816,-3.719629 2.217,-1.231665 5.0991,-1.231665 4.75423,0 7.19292,2.955996 2.4387,2.931363 2.4387,8.646289 z"/><path id="path79" d="m 369.96441,-38.329417 v 3.768895 h -4.33546 q -2.4387,0 -3.39939,0.985332 -0.93607,0.985332 -0.93607,3.547196 v 2.438696 h 7.46389 v 3.522563 h -7.46389 V 0 h -4.55716 v -24.066735 h -4.33546 v -3.522563 h 4.33546 v -1.921397 q 0,-4.606427 2.1431,-6.700258 2.14309,-2.118464 6.79879,-2.118464 z"/><path id="path81" d="m 395.72034,-23.35237 q -0.76364,-0.443399 -1.67507,-0.640466 -0.8868,-0.221699 -1.97066,-0.221699 -3.8428,0 -5.912,2.512596 -2.04456,2.487964 -2.04456,7.168291 V 0 h -4.55716 v -27.589298 h 4.55716 v 4.286195 q 1.42873,-2.512597 3.71963,-3.719629 2.2909,-1.231665 5.56712,-1.231665 0.46804,0 1.0346,0.0739 0.56657,0.04927 1.2563,0.172433 z"/><path id="path83" d="m 419.06217,-13.868549 q -5.49323,0 -7.61169,1.256299 -2.11846,1.256298 -2.11846,4.2861941 0,2.4140636 1.57653,3.842795 1.60116,1.4040982 4.33546,1.4040982 3.76889,0 6.03516,-2.6603965 2.29089,-2.6850299 2.29089,-7.1190238 v -1.009966 z m 9.04042,-1.872131 V 0 h -4.53253 v -4.1876612 q -1.55189,2.5125967 -3.86742,3.71962847 -2.31553,1.18239847 -5.66566,1.18239847 -4.23693,0 -6.74953,-2.36479694 -2.48796,-2.3894302 -2.48796,-6.3800251 0,-4.6556937 3.10379,-7.0204907 3.12843,-2.364797 9.31139,-2.364797 h 6.35539 v -0.4434 q 0,-3.128429 -2.06919,-4.828127 -2.04457,-1.724331 -5.7642,-1.724331 -2.36479,0 -4.60642,0.566566 -2.24163,0.566566 -4.31083,1.699698 v -4.187661 q 2.48796,-0.960699 4.82813,-1.428732 2.34016,-0.492666 4.55716,-0.492666 5.98589,0 8.94189,3.103796 2.95599,3.103796 2.95599,9.409921 z"/><path id="path85" d="m 464.94348,-22.293138 q 1.6997,-3.054529 4.0645,-4.507894 2.36479,-1.453365 5.56712,-1.453365 4.31083,0 6.65099,3.029896 2.34017,3.005263 2.34017,8.572389 V 0 h -4.55716 v -16.504312 q 0,-3.965961 -1.4041,-5.887359 -1.4041,-1.921398 -4.2862,-1.921398 -3.52256,0 -5.56712,2.340164 -2.04457,2.340164 -2.04457,6.380025 V 0 h -4.55716 v -16.504312 q 0,-3.990595 -1.4041,-5.887359 -1.40409,-1.921398 -4.33546,-1.921398 -3.47329,0 -5.51786,2.364797 -2.04456,2.340164 -2.04456,6.355392 V 0 h -4.55716 v -27.589298 h 4.55716 v 4.286195 q 1.5519,-2.53723 3.71963,-3.744262 2.16773,-1.207032 5.14836,-1.207032 3.00526,0 5.09909,1.527265 2.11847,1.527265 3.12843,4.433994 z"/><path id="path87" d="m 522.23001,-14.927781 v 2.216997 h -20.83978 q 0.2956,4.6803277 2.8082,7.1436579 2.53723,2.4386968 7.04512,2.4386968 2.61113,0 5.04983,-0.6404658 2.46333,-0.6404659 4.87739,-1.9213975 v 4.2861944 q -2.43869,1.03459868 -5.00056,1.57653131 -2.56186,0.54193263 -5.19762,0.54193263 -6.60173,0 -10.46916,-3.84279504 -3.84279,-3.842795 -3.84279,-10.3952527 0,-6.774158 3.64573,-10.74012 3.67036,-3.990595 9.87795,-3.990595 5.56713,0 8.79409,3.596462 3.2516,3.571829 3.2516,9.730154 z m -4.53253,-1.330198 q -0.0493,-3.719628 -2.09383,-5.936626 -2.01993,-2.216997 -5.37006,-2.216997 -3.79353,0 -6.08443,2.143098 -2.26626,2.143097 -2.61113,6.035158 z"/></g><path id="polygon6" d="M2.1 145.8L2.1 157.8 310.6 157.8 315.3 145.8z" class="st7"/><path id="polygon8" d="M321.3 130.2L2.1 130.2 2.1 142.2 316.8 142.2 321.2 131.1z" class="st7"/><path id="polygon10" d="M400.3 126.5L395.5 114.6 295.1 114.6 290.3 126.5z" class="st11"/><path id="rect12" d="M2.1 114.6H30.1V126.5H2.1z" class="st7"/><path id="polygon14" d="M200.1 114.6L194.6 126.5 226.9 126.5 232.3 114.6z" class="st11"/><path id="rect16" d="M237.5 114.6H266.5V126.5H237.5z" class="st11"/><path id="rect18" d="M118.8 114.6H148.2V126.5H118.8z" class="st11"/><path id="polygon20" d="M153.3 114.6L158.8 126.5 191.2 126.5 185.6 114.6z" class="st11"/><path id="rect22" d="M2.1 99H90.5V110.9H2.1z" class="st7"/><path id="polygon24" d="M301.4 99L296.6 110.9 329.5 110.9 334.4 99z" class="st11"/><path id="polygon26" d="M394 110.9L389.2 99 356.5 99 361.5 110.9z" class="st11"/><path id="polygon28" d="M237.5 103.3L237.5 110.9 266.5 110.9 266.5 99 207.4 99 201.8 110.9 234 110.9z" class="st11"/><path id="polygon30" d="M148.2 103.3L151.7 110.9 183.9 110.9 178.4 99 118.8 99 118.8 110.9 148.2 110.9z" class="st11"/><path id="polygon32" d="M340.7 83.4L307.7 83.4 302.9 95.3 335.8 95.3z" class="st11"/><path id="rect34" d="M2.1 83.4H90.5V95.30000000000001H2.1z" class="st7"/><path id="polygon36" d="M171.1 83.4L118.8 83.4 118.8 95.3 176.7 95.3z" class="st11"/><path id="polygon38" d="M266.5 83.4L214.6 83.4 209.1 95.3 266.5 95.3z" class="st11"/><path id="polygon40" d="M387.8 95.3L383 83.4 350.1 83.4 355 95.3z" class="st11"/><path id="polygon42" d="M266.5 79.7L266.5 67.8 221.9 67.8 216.3 79.7z" class="st11"/><path id="polygon44" d="M118.8 79.7L169.4 79.7 163.9 67.8 118.8 67.8 118.8 79.4z" class="st11"/><path id="polygon46" d="M342.2 79.7L345.4 71.9 348.6 79.7 381.5 79.7 376.8 67.8 314 67.8 309.2 79.7z" class="st11"/><path id="rect48" d="M2.1 67.8H30.1V79.7H2.1z" class="st7"/><path id="polygon50" d="M370.5 52.1L2.1 52.1 2.1 64.1 375.3 64.1z" class="st7"/><path id="polygon52" d="M364.3 36.5L2.1 36.5 2.1 48.5 369 48.5z" class="st7"/></svg>