<svg xmlns="http://www.w3.org/2000/svg" role="img" xmlns:xlink="http://www.w3.org/1999/xlink" viewBox="-4.53 -4.53 248.82 61.32"><title>Explorer for Endevor (Explorer for Visual Studio Code ZOWE V1) logo</title><path d="M237.32 9.09c-1.06 0-1.93-.86-1.93-1.92s.87-1.93 1.93-1.93 1.93.87 1.93 1.93-.87 1.92-1.93 1.92m0-4.32c-1.32 0-2.4 1.08-2.4 2.4 0 1.32 1.08 2.4 2.4 2.4 1.32 0 2.4-1.08 2.4-2.4 0-1.32-1.08-2.4-2.4-2.4"/><path d="M237.48 7.07l-.51.01-.01-.62h.51c.19-.01.34.11.34.3.01.19-.14.31-.33.31m.83-.32c-.01-.42-.3-.72-.77-.72l-1.07.02.03 2.26h.49l-.01-.81h.35l.46.8.55-.01-.52-.86c.24-.06.49-.28.49-.68M51.8341 23.1805h-5.999V9.3465h5.835c1.574 0 2.557 1.016 2.557 2.393 0 1.377-.983 2.36-2.557 2.36H45v4h6.8341c1.836 0 2.819 1.18 2.819 2.556 0 1.574-1.049 2.525-2.819 2.525m3.376-7.245c2.066-.426 3.771-2.262 3.771-5.015 0-2.918-2.131-5.573-6.295-5.573h-11.506v21.865h11.867c4.163 0 6.359-2.623 6.359-5.901 0-2.754-1.868-5.015-4.196-5.376m17.8225-.5902H68v4.098h3.5576l4.294 7.769h5.343l-4.917-8.327c2.361-.557 4.786-2.622 4.786-6.49m0 0c0-4.065-2.786-7.048-7.343-7.048h-10.228v21.865h4.655V9.4453h4.885c1.869 0 3.278 1.114 3.278 2.95s-1.409 2.95-3.278 2.95m43.4206 4.0652l3.409-9.408 3.41 9.408zm.492-14.063l-8.458 21.865h5.31l1.377-3.704h9.376l1.344 3.704h5.311l-8.425-21.865zm26.9039 17.7671h-3.967v-13.67h3.967c4.491 0 6.851 2.983 6.851 6.852 0 3.704-2.524 6.818-6.851 6.818m0-17.767h-8.622v21.865h8.622c6.851 0 11.604-4.327 11.604-10.916s-4.753-10.949-11.604-10.949m82.1269-.0045l-5.734 9.27-5.734-9.27h-5.146v21.869h4.656v-14.293l5.012 7.622c.574.871 1.851.871 2.424 0l5.013-7.622v14.293h4.656V5.3431z"/><path id="a" d="M95.8253 23.3441c-3.871 0-7.008-3.138-7.008-7.008 0-3.871 3.137-7.009 7.008-7.009 3.87 0 7.008 3.138 7.008 7.009 0 3.87-3.138 7.008-7.008 7.008m0-18.536c-6.367 0-11.528 5.161-11.528 11.528 0 6.366 5.161 11.527 11.528 11.527 6.366 0 11.528-5.161 11.528-11.527 0-6.367-5.162-11.528-11.528-11.528"/><path d="M176.4035 19.7269c-1.195 2.156-3.492 3.617-6.132 3.617-3.87 0-7.008-3.138-7.008-7.008 0-3.871 3.138-7.008 7.008-7.008 2.618 0 4.897 1.438 6.1 3.565l3.27-3.269c-2.092-2.915-5.508-4.816-9.37-4.816-6.367 0-11.527 5.161-11.527 11.528 0 6.366 5.16 11.528 11.527 11.528 3.883 0 7.316-1.922 9.404-4.865z"/><use transform="translate(98.718)" xlink:href="#a"/><ellipse cx="16.52" cy="16.497" fill="#cc092f" rx="16.236" ry="16.235"/><path fill="#fff" d="M30.8253 20.8832c-1.857-.74-3.557-.492-5.261.541 0 0-.621.379-.807.496-.794.498-1.543.97-2.263.97-.687 0-1.363-.184-1.649-1.513-.446-2.073-1.534-7.167-2.009-9.69-.279-1.483-.432-2.282-.591-2.825-.28-.954-.792-1.473-1.519-1.556 0 0-.114-.016-.207-.016-.092 0-.218.018-.218.018-.72.086-1.229.605-1.507 1.554-.159.543-.312 1.342-.591 2.825-.475 2.523-1.563 7.617-2.009 9.69-.286 1.329-.962 1.513-1.649 1.513-.72 0-1.469-.472-2.263-.97-.186-.117-.808-.496-.808-.496-1.703-1.033-3.404-1.281-5.26-.541-.401.16-.79596.33918-1.17196.52018.257.806.57693 1.59925.94993 2.34425.411-.202.84203-.40243 1.28203-.53243.634-.187 1.284-.197 1.914.014.612.205 1.157.568 1.7.909 1.023.643 2.182 1.372 3.657 1.372 2.186 0 3.72-1.305 4.21-3.581.38-1.764 1.222-5.702 1.763-8.418 0 0 1.386 6.654 1.765 8.418.49 2.276 2.025 3.581 4.211 3.581 1.475 0 2.634-.729 3.657-1.372.543-.341 1.088-.704 1.7-.909.629-.211 1.28-.201 1.914-.014.44.13.87039.33065 1.28139.53265.374-.745.69309-1.53862.95009-2.34462-.376-.181-.77048-.36003-1.17148-.52003"/><g text-anchor="middle"><path d="M73.6478 50h-5.26905v-7.99756h5.26905v.94531h-4.20557v2.19141h4.20557v.94531h-4.20557v2.97022h4.20557z"/><path d="M80.45297 50h-1.27295l-1.70263-2.3042L75.764 50h-1.17627l2.3418-2.9917-2.32032-3.00781h1.27295l1.6919 2.2666 1.69726-2.2666h1.18164l-2.3579 2.9541z"/><path d="M87.04868 46.92773q0 .73047-.20948 1.3374-.20947.60157-.59082 1.02052-.35449.39746-.83789.61767-.47802.21484-1.01513.21484-.46729 0-.84864-.10205-.37597-.10205-.76806-.3169v2.51368h-1.00977v-8.2124h1.00977v.62842q.40283-.33838.90234-.56397.50488-.23096 1.07422-.23096 1.08496 0 1.68652.82178.60694.8164.60694 2.27197zm-1.042.02686q0-1.08496-.3706-1.62207-.3706-.5371-1.13867-.5371-.43506 0-.8755.18798-.44042.188-.84325.49414v3.3999q.42968.19336.73584.26319.31152.06982.7036.06982.84327 0 1.31593-.56934.47265-.56933.47265-1.68652z"/><path d="M89.64291 50h-1.00976v-8.35742h1.00976z"/><path d="M96.76498 47.00293q0 1.4663-.75195 2.31494-.75195.84863-2.01416.84863-1.27295 0-2.0249-.84863-.74658-.84863-.74658-2.31494 0-1.4663.74658-2.31494.75195-.854 2.0249-.854 1.2622 0 2.01416.854.75195.84863.75195 2.31494zm-1.04199 0q0-1.16553-.45654-1.7295-.45654-.56933-1.26758-.56933-.82178 0-1.27832.56934-.45117.56396-.45117 1.72949 0 1.12793.45654 1.71338.45655.58008 1.27295.58008.80567 0 1.2622-.57471.46192-.58008.46192-1.71875z"/><path d="M102.077 45.10156h-.0537q-.22558-.0537-.44042-.0752-.20948-.02685-.49952-.02685-.46728 0-.90234.20947-.43506.2041-.8379.53174V50h-1.00976v-5.99951h1.00977v.88623q.60156-.4834 1.0581-.68213.46192-.2041.93995-.2041.26318 0 .38134.0161.11817.01075.3545.04835z"/><path d="M108.06039 47.10498h-4.42041q0 .55322.16651.9668.1665.4082.45654.67138.2793.25782.66065.38672.38671.1289.84863.1289.6123 0 1.22998-.24169.62305-.24707.88623-.4834h.0537v1.10108q-.51025.21484-1.04199.35986t-1.11719.14502q-1.49316 0-2.33105-.80567-.83789-.81103-.83789-2.29882 0-1.47168.80029-2.33643.80566-.86475 2.11621-.86475 1.21387 0 1.86914.70899.66064.70898.66064 2.01416zm-.98291-.77344q-.005-.79492-.40283-1.22998-.39209-.43506-1.19775-.43506-.81104 0-1.29444.47803-.47802.47803-.54248 1.18701z"/><path d="M113.33481 45.10156h-.0537q-.22559-.0537-.44043-.0752-.20947-.02685-.49951-.02685-.46729 0-.90235.20947-.43506.2041-.83789.53174V50h-1.00976v-5.99951h1.00976v.88623q.60156-.4834 1.05811-.68213.46191-.2041.93994-.2041.26318 0 .38135.0161.11816.01075.35449.04835z"/><path d="M121.39145 42.62012h-.0537q-.16651-.04834-.43506-.09668-.26856-.05371-.47266-.05371-.6499 0-.94531.29004-.29004.28466-.29004 1.03662v.2041h1.8208v.84863h-1.78858V50h-1.00977v-5.15088h-.68213v-.84863h.68213v-.19873q0-1.06885.53174-1.63819.53174-.5747 1.53613-.5747.33838 0 .60694.03223.27392.03223.49951.0752z"/><path d="M127.14389 47.00293q0 1.4663-.75195 2.31494-.75196.84863-2.01416.84863-1.27295 0-2.02491-.84863-.74658-.84863-.74658-2.31494 0-1.4663.74658-2.31494.75196-.854 2.02491-.854 1.2622 0 2.01416.854.75195.84863.75195 2.31494zm-1.04199 0q0-1.16553-.45654-1.7295-.45655-.56933-1.26758-.56933-.82178 0-1.27832.56934-.45118.56396-.45118 1.72949 0 1.12793.45655 1.71338.45654.58008 1.27295.58008.80566 0 1.2622-.57471.46192-.58008.46192-1.71875z"/><path d="M132.4559 45.10156h-.0537q-.22558-.0537-.44043-.0752-.20947-.02685-.49951-.02685-.46729 0-.90234.20947-.43506.2041-.83789.53174V50h-1.00977v-5.99951h1.00977v.88623q.60156-.4834 1.0581-.68213.46191-.2041.93994-.2041.26319 0 .38135.0161.11816.01075.35449.04835z"/><path d="M142.63412 50h-5.26904v-7.99756h5.26904v.94531h-4.20556v2.19141h4.20556v.94531h-4.20556v2.97022h4.20556z"/><path d="M149.26205 50h-1.00976v-3.41602q0-.41357-.0483-.77343-.0483-.36524-.17725-.56934-.13427-.22559-.38672-.333-.25244-.1128-.65527-.1128-.41357 0-.86475.2041-.45117.2041-.86474.521V50h-1.00977v-5.99951h1.00977v.66601q.47265-.39209.97754-.6123.50488-.22022 1.03662-.22022.97217 0 1.48242.58545.51025.58545.51025 1.68653z"/><path d="M156.0726 50h-1.00976v-.62842q-.43506.37598-.90772.58545-.47266.20947-1.02588.20947-1.07422 0-1.70801-.82715-.62841-.82714-.62841-2.29345 0-.7627.21484-1.35889.22021-.59619.59082-1.01514.36523-.4082.84863-.62304.48877-.21485 1.00977-.21485.47265 0 .83789.10205.36523.09668.76807.30616v-2.59961h1.00976zm-1.00976-1.47705v-3.44287q-.40821-.18262-.73047-.25244-.32227-.06983-.70362-.06983-.84863 0-1.32129.59082-.47265.59082-.47265 1.67578 0 1.06885.36523 1.62744.36524.55322 1.1709.55322.42969 0 .87012-.18799.44043-.19335.82178-.49414z"/><path d="M163.08188 47.10498h-4.42041q0 .55322.1665.9668.16651.4082.45655.67138.27929.25782.66064.38672.38672.1289.84863.1289.61231 0 1.22998-.24169.62305-.24707.88623-.4834h.0537v1.10108q-.51025.21484-1.04199.35986t-1.11719.14502q-1.49316 0-2.33105-.80567-.83789-.81103-.83789-2.29882 0-1.47168.80029-2.33643.80567-.86475 2.11621-.86475 1.21387 0 1.86914.70899.66065.70898.66065 2.01416zm-.98291-.77344q-.005-.79492-.40283-1.22998-.39209-.43506-1.19776-.43506-.81103 0-1.29443.47803-.47803.47803-.54248 1.18701z"/><path d="M169.80112 44.00049L167.37338 50h-1.01513l-2.41163-5.99951h1.09571l1.8584 4.7749 1.84228-4.7749z"/><path d="M176.23569 47.00293q0 1.4663-.75196 2.31494-.75195.84863-2.01416.84863-1.27295 0-2.0249-.84863-.74658-.84863-.74658-2.31494 0-1.4663.74658-2.31494.75195-.854 2.0249-.854 1.26221 0 2.01416.854.75196.84863.75196 2.31494zm-1.04199 0q0-1.16553-.45655-1.7295-.45654-.56933-1.26758-.56933-.82177 0-1.27832.56934-.45117.56396-.45117 1.72949 0 1.12793.45654 1.71338.45655.58008 1.27295.58008.80567 0 1.26221-.57471.46192-.58008.46192-1.71875z"/><path d="M181.5477 45.10156h-.0537q-.22559-.0537-.44043-.0752-.20947-.02685-.49951-.02685-.46729 0-.90235.20947-.43506.2041-.83789.53174V50h-1.00976v-5.99951h1.00976v.88623q.60156-.4834 1.05811-.68213.46191-.2041.93994-.2041.26318 0 .38135.0161.11816.01075.35449.04835z"/></g></svg>