<svg xmlns="http://www.w3.org/2000/svg" role="img" viewBox="-6.95 25.05 413.66 194.66"><title>GSE UK logo</title><style>svg {enable-background:new 0 0 400 245}</style><style id="style2" type="text/css">.st0{fill:#009bd1}</style><g id="g10"><g id="g8"><g id="g6"><path id="path4" fill="#009bd1" d="M105.6 175c0 1-2 1.5-6.1 1.4-4.8-.1-7.4 1-7.7 3.2-.2 1.3-.3 5.5-.3 12.7v6.6c-12.8 8.7-25.1 13-36.7 13-15.3 0-28.1-5.4-38.4-16.2C6.1 184.9 1 171.5 1 155.5c0-17 5.3-31.2 15.8-42.5 10.6-11.3 23.8-17 39.8-17 6.6 0 13.4 1.6 20.4 4.8 2.6 1.2 4.4 1.8 5.3 1.8 1.7 0 3.2-1.3 4.4-3.9.5-1.3 1.1-1.9 1.8-1.9.8 0 1.1.5 1.1 1.6 0 .2-.2 2.4-.5 6.5-.1 1.3-.2 4.4-.2 9.2 0 3.7.2 9.3.6 16.8 0 2-.5 3.1-1.6 3.1-1.5 0-2.5-2.2-3.1-6.5-1.3-9.5-4.4-17-9.4-22.5-3.7-4-8.8-6-15.4-6-20.4 0-30.6 18.1-30.6 54.3 0 22.5 3.4 38.2 10.1 47 4.2 5.6 9.8 8.4 16.9 8.4 8.9 0 13.3-5.6 13.3-16.8 0-8.4-.4-13.1-1.1-14.1-.7-1-2.5-1.5-5.5-1.5H59c-2.3 0-3.4-.5-3.4-1.5s.9-1.5 2.7-1.5c3.8 0 8.5.1 14.2.2h30.8c1.6.1 2.3.5 2.3 1.5z" class="st0"/></g></g></g><g id="g18"><g id="g16"><g id="g14"><path id="path12" fill="#009bd1" d="M144.9 115.4c0 9.8-3.5 17.9-10.4 24.3-7 6.4-15.8 9.6-26.6 9.6-6.6 0-15.6-2.2-27.2-6.6-.9-.3-1.6-.5-2.3-.5-1.8 0-3.2 1.9-4.2 5.8-.3 1.2-.8 1.8-1.3 1.8-.9 0-1.3-.8-1.3-2.3 0-1.4.3-3.9.8-7.4.4-2.9.6-6.3.6-10.2 0-3.1-.1-5.6-.2-7.4-.2-3.7-.3-5.8-.3-6.5 0-1.7.5-2.6 1.6-2.6s2 2.3 2.9 7c1.5 8 4.9 14.2 10.2 18.6 5.7 4.7 11.9 7.1 18.4 7.1 5.8 0 10.7-1.8 14.7-5.5s6-8.1 6-13.4c0-4.5-1.3-8.1-3.9-10.8-1.9-1.9-8.2-5.8-18.8-11.5-11.7-6.3-19.7-12.5-23.9-18.8-3.9-5.7-5.8-12.5-5.8-20.4 0-9.3 3.3-16.9 9.9-23 6.6-6.1 14.9-9.1 24.9-9.1 5.4 0 11.2 1.3 17.3 3.9 2 .9 3.5 1.3 4.4 1.3 1.6 0 2.7-1.4 3.2-4.2.2-1 .7-1.5 1.5-1.5 1.1 0 1.6.7 1.6 2.1 0 .5-.1 2-.3 4.5-.2 2.5-.3 4.5-.3 6.1 0 5.6.2 10.3.6 14.2.1.3.2.8.2 1.3 0 1-.4 1.5-1.3 1.5-1 0-1.9-1.7-2.9-5.2-1-3.4-2.7-6.9-5.1-10.3-2.4-3.4-4.9-5.8-7.4-7.4-3.2-1.9-7-2.9-11.3-2.9-6 0-10.8 1.5-14.4 4.4-3.6 2.9-5.3 6.9-5.3 12 0 4.4 1.7 8.3 5 11.7 3.3 3.4 9.8 7.7 19.2 13 11.6 6.5 19.3 11.6 23.1 15.5 5.7 5.8 8.4 13.1 8.4 21.8z" class="st0"/></g></g></g><g id="g26"><g id="g24"><g id="g22"><path id="path20" fill="#009bd1" d="M228.7 142.3c0 .2-.1 5.2-.2 15-.1 5.2-.2 8.9-.2 11.2-.1 2.3-.1 3.3-.1 3.2-28.4-1.3-53.3-1.7-74.7-1.1h-13.6c-1.9 0-2.9-.4-2.9-1.2 0-.6.2-1 .7-1.1.5-.1 2.1-.3 4.9-.5 5.1-.3 7.8-1.8 8.2-4.4.2-1.4.3-3 .3-4.7V77c0-6.5-.1-10-.2-10.7-.1-1.7-.6-2.9-1.6-3.5-1-.6-3-1-6-1-3.3 0-5-.5-5-1.5 0-1.1 1.5-1.6 4.4-1.6 3 0 7.1-.1 12.4-.2 19.8-.4 36-.5 48.7-.3h11c2.4 0 5.3-.2 8.7-.5l1.5 17.6c.5 5.6.8 9.1.8 10.3 0 1.1-.5 1.6-1.6 1.6s-1.8-1.4-2.1-4.2c-1-7.4-4-12.9-9-16.2-5-3.4-12.5-5.1-22.3-5.1-3 0-8.2.2-15.6.5V110c11.9.1 19.4-.7 22.5-2.5 3.1-1.8 5.2-6.4 6.3-13.8.5-4 1.4-6 2.4-6s1.5 1 1.5 2.9-.2 5.9-.5 12c-.1 2-.2 4.8-.2 8.2 0 9.3.1 16.3.3 21 .1.6.2 1.5.2 2.4 0 1.3-.5 1.9-1.5 1.9-.8 0-1.2-.2-1.5-.7-.3-.5-.5-2.2-1-5.3-1.1-7.7-2.6-12.4-4.5-14.3-1.9-1.9-6.3-2.8-13.1-2.8h-11v54.3h10.4c11.9-.2 19.1-.5 21.7-.8 3.2-.4 6.4-1.6 9.4-3.6 2.7-2.2 4.6-4.5 5.6-7s2.1-7.1 3.3-13.7c.3-1.6.9-2.4 1.6-2.4 1.1.1 1.6.9 1.6 2.5z" class="st0"/></g></g></g><g id="g124"><g id="g32"><g id="g30"><path id="path28" fill="#009bd1" d="M278.3 86.2l-.3-4.8h-.1c-.4.9-1 1.8-1.7 2.4-.7.7-1.4 1.2-2.2 1.7-.8.4-1.6.7-2.5.9-.9.2-1.8.3-2.8.3-2.1 0-3.9-.4-5.5-1.1-1.6-.8-2.9-1.8-3.9-3-1-1.3-1.8-2.7-2.3-4.4-.5-1.7-.8-3.4-.8-5.2 0-1.8.3-3.6.8-5.2.5-1.7 1.3-3.1 2.3-4.4 1-1.3 2.3-2.3 3.9-3 1.6-.7 3.4-1.1 5.5-1.1 1.4 0 2.7.2 3.9.6 1.2.4 2.3.9 3.3 1.7 1 .7 1.8 1.7 2.4 2.7.7 1.1 1.1 2.4 1.4 3.8h-2.5c-.1-.8-.3-1.5-.8-2.3-.4-.8-1-1.5-1.7-2.1-.7-.6-1.6-1.2-2.6-1.6-1-.4-2.2-.6-3.4-.6-1.8 0-3.3.3-4.5 1-1.3.7-2.3 1.6-3.1 2.7-.8 1.1-1.4 2.3-1.8 3.7-.4 1.4-.6 2.8-.6 4.3 0 1.4.2 2.9.6 4.2.4 1.4 1 2.6 1.8 3.7s1.8 2 3.1 2.7c1.3.7 2.8 1 4.5 1 1.5 0 2.8-.2 3.9-.7 1.1-.5 2.1-1.2 2.9-2 .8-.9 1.4-1.9 1.8-3.1.4-1.2.6-2.5.6-3.9h-9v-2.2h11.2v13.5h-1.8z" class="st0"/></g></g><g id="g38"><g id="g36"><path id="path34" fill="#009bd1" d="M287.2 59.7v16.4c0 1.5.2 2.8.5 3.9s.9 2 1.5 2.6c.7.7 1.5 1.2 2.4 1.5 1 .3 2.1.5 3.3.5 1.2 0 2.3-.2 3.3-.5s1.8-.8 2.4-1.5c.6-.7 1.2-1.6 1.5-2.6.3-1.1.5-2.4.5-3.9V59.7h2.5v17c0 1.4-.2 2.7-.6 3.9-.4 1.2-1 2.3-1.8 3.2-.8.9-1.9 1.6-3.2 2.2-1.3.5-2.9.8-4.7.8-1.8 0-3.4-.3-4.7-.8-1.3-.5-2.4-1.3-3.2-2.2-.8-.9-1.4-2-1.8-3.2-.4-1.2-.6-2.5-.6-3.9v-17z" class="st0"/></g></g><g id="g44"><g id="g42"><path id="path40" fill="#009bd1" d="M313.1 59.7v26.5h-2.5V59.7z" class="st0"/></g></g><g id="g50"><g id="g48"><path id="path46" fill="#009bd1" d="M327.8 59.7c4 .1 7.1 1.2 9.1 3.4s3.1 5.4 3.1 9.9c0 4.4-1 7.7-3.1 9.9s-5.1 3.3-9.1 3.4h-9.2V59.7zm-1.3 24.4c1.9 0 3.5-.2 4.9-.6 1.4-.4 2.5-1.1 3.4-1.9.9-.9 1.5-2 2-3.5.4-1.4.6-3.1.6-5.1 0-2-.2-3.7-.6-5.1-.4-1.4-1.1-2.6-2-3.5-.9-.9-2-1.5-3.4-1.9-1.4-.4-3-.6-4.9-.6h-5.4v22.2z" class="st0"/></g></g><g id="g56"><g id="g54"><path id="path52" fill="#009bd1" d="M362.3 59.7v2.2h-15.8v9.6h14.8v2.2h-14.8v10.5h16v2.2H344V59.7z" class="st0"/></g></g><g id="g62"><g id="g60"><path id="path58" fill="#009bd1" d="M259.3 122.5c.4.9 1.1 1.6 1.8 2.2.8.5 1.7.9 2.8 1.2 1.1.2 2.2.4 3.4.4.7 0 1.4-.1 2.3-.3.8-.2 1.6-.5 2.3-.9.7-.4 1.3-1 1.8-1.7s.7-1.5.7-2.5c0-.7-.2-1.4-.5-1.9s-.8-1-1.3-1.4c-.5-.4-1.1-.7-1.8-.9-.6-.2-1.3-.4-1.9-.6l-5.9-1.4c-.8-.2-1.5-.4-2.2-.7-.7-.3-1.4-.7-1.9-1.2s-1-1.1-1.3-1.8c-.3-.7-.5-1.6-.5-2.6 0-.6.1-1.4.4-2.3.2-.9.7-1.7 1.4-2.4.7-.8 1.6-1.4 2.8-1.9 1.2-.5 2.7-.8 4.6-.8 1.3 0 2.6.2 3.7.5 1.2.3 2.2.9 3.1 1.6.9.7 1.6 1.6 2.1 2.6s.8 2.2.8 3.6h-2.5c0-1-.3-1.9-.7-2.7-.4-.8-.9-1.4-1.6-1.9-.7-.5-1.4-.9-2.3-1.2-.9-.3-1.7-.4-2.7-.4-.9 0-1.7.1-2.5.3-.8.2-1.5.5-2.1.9-.6.4-1.1.9-1.5 1.6-.4.7-.6 1.5-.6 2.5 0 .6.1 1.2.3 1.6.2.5.5.8.9 1.2.4.3.8.6 1.3.8.5.2 1 .4 1.5.5l6.5 1.6c.9.2 1.8.6 2.7.9.8.4 1.6.8 2.2 1.3.6.5 1.1 1.2 1.5 1.9.4.8.5 1.7.5 2.8 0 .3 0 .7-.1 1.2s-.2 1-.4 1.6c-.2.6-.6 1.1-1 1.7-.4.6-1 1.1-1.8 1.5-.8.5-1.7.8-2.8 1.1-1.1.3-2.4.4-4 .4s-3-.2-4.3-.5c-1.3-.4-2.5-.9-3.4-1.7-.9-.7-1.7-1.7-2.2-2.9-.5-1.2-.7-2.6-.6-4.2h2.5c-.2 1.3 0 2.4.5 3.3z" class="st0"/></g></g><g id="g68"><g id="g66"><path id="path64" fill="#009bd1" d="M283.4 101.3v11.5h15.7v-11.5h2.5v26.5h-2.5V115h-15.7v12.8h-2.5v-26.5z" class="st0"/></g></g><g id="g74"><g id="g72"><path id="path70" fill="#009bd1" d="M317.5 101.3l10.4 26.5h-2.7l-3.2-8.2h-12.1l-3.2 8.2H304l10.7-26.5zm3.6 16.1l-5.1-13.6-5.3 13.6z" class="st0"/></g></g><g id="g80"><g id="g78"><path id="path76" fill="#009bd1" d="M342.5 101.3c1.1 0 2.1.1 3.1.4 1 .3 1.8.7 2.6 1.2.7.6 1.3 1.3 1.7 2.2.4.9.6 1.9.6 3.1 0 1.7-.4 3.1-1.3 4.4-.9 1.2-2.2 2-3.9 2.4v.1c.9.1 1.6.4 2.2.7.6.3 1 .8 1.4 1.3.4.5.6 1.1.8 1.8.2.7.3 1.4.3 2.2 0 .4 0 1 .1 1.6 0 .6.1 1.3.1 1.9.1.7.2 1.3.4 1.9.2.6.4 1 .6 1.4h-2.8c-.1-.2-.3-.6-.4-.9-.1-.4-.1-.7-.2-1.1 0-.4-.1-.8-.1-1.1 0-.4 0-.7-.1-1-.1-.9-.1-1.9-.2-2.8-.1-.9-.3-1.8-.7-2.5-.4-.7-.9-1.3-1.6-1.8-.7-.4-1.6-.6-2.8-.6h-9.6v11.8h-2.5v-26.5h12.3zm-.2 12.6c.8 0 1.5-.1 2.2-.4.7-.2 1.3-.6 1.8-1s.9-1 1.2-1.6c.3-.6.5-1.4.5-2.2 0-1.6-.5-2.9-1.4-3.9-.9-.9-2.4-1.4-4.3-1.4h-9.4v10.4h9.4z" class="st0"/></g></g><g id="g86"><g id="g84"><path id="path82" fill="#009bd1" d="M373.4 101.3v2.2h-15.8v9.6h14.8v2.2h-14.8v10.5h16v2.2h-18.5v-26.5h18.3z" class="st0"/></g></g><g id="g92"><g id="g90"><path id="path88" fill="#009bd1" d="M275.7 142.9v2.2H260v9.6h14.8v2.2H260v10.5h16v2.2h-18.5v-26.5h18.2z" class="st0"/></g></g><g id="g98"><g id="g96"><path id="path94" fill="#009bd1" d="M281.7 142.9v16.4c0 1.5.2 2.8.5 3.9s.9 2 1.5 2.6c.7.7 1.5 1.2 2.4 1.5 1 .3 2.1.5 3.3.5 1.2 0 2.3-.2 3.3-.5s1.8-.8 2.4-1.5c.7-.7 1.2-1.6 1.5-2.6.3-1.1.5-2.4.5-3.9v-16.4h2.5v17c0 1.4-.2 2.7-.6 3.9-.4 1.2-1 2.3-1.8 3.2-.8.9-1.9 1.6-3.2 2.2-1.3.5-2.9.8-4.7.8-1.8 0-3.4-.3-4.7-.8-1.3-.5-2.4-1.3-3.2-2.2-.8-.9-1.4-2-1.8-3.2-.4-1.2-.6-2.5-.6-3.9v-17z" class="st0"/></g></g><g id="g104"><g id="g102"><path id="path100" fill="#009bd1" d="M317 142.9c1.1 0 2.1.1 3.1.4 1 .3 1.8.7 2.6 1.2.7.6 1.3 1.3 1.7 2.2.4.9.6 1.9.6 3.1 0 1.7-.4 3.1-1.3 4.4-.9 1.2-2.2 2-3.9 2.4v.1c.9.1 1.6.4 2.2.7.6.3 1 .8 1.4 1.3.4.5.6 1.1.8 1.8.2.7.3 1.4.3 2.2 0 .4 0 1 .1 1.6.1.6.1 1.3.1 1.9.1.7.2 1.3.4 1.9.2.6.4 1 .6 1.4H323c-.1-.2-.3-.6-.4-.9-.1-.4-.1-.7-.2-1.1 0-.4-.1-.8-.1-1.1 0-.4 0-.7-.1-1-.1-.9-.1-1.9-.2-2.8-.1-.9-.3-1.8-.7-2.5-.4-.7-.9-1.3-1.6-1.8-.7-.4-1.6-.6-2.8-.6h-9.6v11.8h-2.5V143H317zm-.2 12.6c.8 0 1.5-.1 2.2-.4.7-.2 1.3-.6 1.8-1s.9-1 1.2-1.6c.3-.6.5-1.4.5-2.2 0-1.6-.5-2.9-1.4-3.9-.9-.9-2.4-1.4-4.3-1.4h-9.4v10.4h9.4z" class="st0"/></g></g><g id="g110"><g id="g108"><path id="path106" fill="#009bd1" d="M329 150.9c.5-1.7 1.3-3.1 2.3-4.4 1-1.3 2.3-2.3 3.9-3 1.6-.8 3.4-1.1 5.5-1.1s3.9.4 5.5 1.1c1.6.8 2.9 1.8 3.9 3 1 1.3 1.8 2.7 2.3 4.4.5 1.7.8 3.4.8 5.2 0 1.8-.3 3.6-.8 5.2s-1.3 3.1-2.3 4.4c-1 1.3-2.3 2.3-3.9 3-1.6.8-3.4 1.1-5.5 1.1s-3.9-.4-5.5-1.1c-1.6-.7-2.9-1.8-3.9-3s-1.8-2.7-2.3-4.4c-.5-1.7-.8-3.4-.8-5.2 0-1.8.3-3.5.8-5.2zm2.3 9.5c.4 1.4 1 2.6 1.8 3.7s1.8 2 3.1 2.7c1.3.7 2.8 1 4.5 1 1.8 0 3.3-.3 4.5-1 1.2-.7 2.3-1.6 3.1-2.7.8-1.1 1.4-2.3 1.8-3.7.4-1.4.6-2.8.6-4.2 0-1.5-.2-2.9-.6-4.3-.4-1.4-1-2.6-1.8-3.7s-1.8-2-3.1-2.7c-1.2-.7-2.8-1-4.5-1-1.8 0-3.3.3-4.5 1-1.3.7-2.3 1.6-3.1 2.7-.8 1.1-1.4 2.3-1.8 3.7-.4 1.4-.6 2.8-.6 4.3 0 1.4.2 2.8.6 4.2z" class="st0"/></g></g><g id="g116"><g id="g114"><path id="path112" fill="#009bd1" d="M368.9 142.9c1.2 0 2.3.2 3.2.5 1 .3 1.8.8 2.5 1.5s1.2 1.5 1.6 2.4c.4.9.6 2 .6 3.2 0 1.2-.2 2.3-.6 3.2-.4.9-.9 1.7-1.6 2.4-.7.7-1.5 1.2-2.5 1.5-1 .3-2 .5-3.2.5h-9.2v11.4h-2.5V143h11.7zm-.6 13c1.8 0 3.2-.4 4.3-1.3 1.1-.9 1.6-2.2 1.6-4.1 0-1.8-.5-3.2-1.6-4.1-1.1-.9-2.5-1.3-4.3-1.3h-8.7v10.8z" class="st0"/></g></g><g id="g122"><g id="g120"><path id="path118" fill="#009bd1" d="M398.8 142.9v2.2H383v9.6h14.8v2.2H383v10.5h16v2.2h-18.5v-26.5h18.3z" class="st0"/></g></g></g><g id="g130"><g id="g128"><path id="rect126" fill="#009bd1" d="M241.3 56.3h2.6v117h-2.6z"/></g></g><g id="text132" fill="#009bd1" transform="translate(256.101 194.664)"><path id="path142" d="M1.439-12.068h1.64v7.331q0 1.94.704 2.797.703.849 2.28.849 1.568 0 2.27-.849.704-.857.704-2.797v-7.331h1.641v7.533q0 2.36-1.172 3.565Q8.342.234 6.063.234q-2.288 0-3.46-1.204-1.164-1.204-1.164-3.565z"/><path id="path144" d="M13.75-12.068h1.633v5.1l5.415-5.1H22.9l-5.99 5.626L23.33 0h-2.15l-5.796-5.812V0H13.75z"/><path id="path146" d="M35.607-5.658q.526.177 1.019.76.5.581 1.002 1.6L39.285 0h-1.754l-1.544-3.096q-.598-1.212-1.164-1.609-.558-.396-1.528-.396h-1.778V0h-1.633v-12.068h3.686q2.07 0 3.088.864 1.018.865 1.018 2.611 0 1.14-.533 1.892-.525.752-1.536 1.043zm-4.09-5.069v4.285h2.053q1.18 0 1.778-.542.607-.55.607-1.609t-.607-1.592q-.598-.542-1.778-.542z"/><path id="path148" d="M48.33-4.899v.728h-6.838q.097 1.536.921 2.344.833.8 2.312.8.857 0 1.657-.21.809-.21 1.6-.63v1.406q-.8.34-1.64.518-.84.177-1.706.177-2.166 0-3.435-1.26-1.261-1.262-1.261-3.412 0-2.223 1.196-3.524 1.205-1.31 3.242-1.31 1.826 0 2.885 1.18 1.067 1.173 1.067 3.193zm-1.487-.436q-.016-1.22-.687-1.948-.663-.728-1.762-.728-1.245 0-1.997.704-.743.703-.857 1.98z"/><path id="path150" d="M56.729-4.632q0-1.616-.671-2.506-.663-.889-1.867-.889-1.197 0-1.867.89-.663.889-.663 2.505 0 1.609.663 2.498.67.89 1.867.89 1.204 0 1.867-.89.67-.89.67-2.498zm1.487 3.508q0 2.312-1.026 3.436-1.027 1.132-3.145 1.132-.784 0-1.479-.122-.695-.113-1.35-.355V1.52q.655.355 1.293.525.639.17 1.302.17 1.463 0 2.19-.768.728-.76.728-2.304v-.735q-.46.8-1.18 1.196-.72.396-1.722.396-1.665 0-2.684-1.27-1.018-1.268-1.018-3.362 0-2.101 1.018-3.37 1.019-1.27 2.684-1.27 1.002 0 1.722.396.72.397 1.18 1.197v-1.374h1.487z"/><path id="path152" d="M61.28-9.053h1.487V0H61.28zm0-3.525h1.487v1.884H61.28z"/><path id="path154" d="M69.38-8.01q-1.197 0-1.892.937-.695.93-.695 2.554 0 1.625.687 2.563.695.93 1.9.93 1.188 0 1.883-.938.695-.938.695-2.555 0-1.608-.695-2.546-.695-.946-1.884-.946zm0-1.262q1.94 0 3.047 1.261 1.107 1.261 1.107 3.492 0 2.223-1.107 3.492Q71.319.234 69.379.234q-1.948 0-3.055-1.26-1.1-1.27-1.1-3.493 0-2.23 1.1-3.492 1.107-1.26 3.055-1.26z"/><path id="path156" d="M83.517-5.464V0H82.03v-5.416q0-1.285-.501-1.924-.501-.638-1.504-.638-1.204 0-1.9.768-.695.768-.695 2.093V0h-1.495v-9.053h1.495v1.406q.534-.816 1.253-1.22.728-.405 1.674-.405 1.56 0 2.36.97.8.962.8 2.838z"/></g></svg>