<svg xmlns="http://www.w3.org/2000/svg" role="img" viewBox="-6.95 25.05 413.66 194.66"><title>GSE logo</title><style>svg {enable-background:new 0 0 400 245}</style><style>.st0{fill:#009bd1}</style><path d="M105.6 175c0 1-2 1.5-6.1 1.4-4.8-.1-7.4 1-7.7 3.2-.2 1.3-.3 5.5-.3 12.7v6.6c-12.8 8.7-25.1 13-36.7 13-15.3 0-28.1-5.4-38.4-16.2C6.1 184.9 1 171.5 1 155.5c0-17 5.3-31.2 15.8-42.5 10.6-11.3 23.8-17 39.8-17 6.6 0 13.4 1.6 20.4 4.8 2.6 1.2 4.4 1.8 5.3 1.8 1.7 0 3.2-1.3 4.4-3.9.5-1.3 1.1-1.9 1.8-1.9.8 0 1.1.5 1.1 1.6 0 .2-.2 2.4-.5 6.5-.1 1.3-.2 4.4-.2 9.2 0 3.7.2 9.3.6 16.8 0 2-.5 3.1-1.6 3.1-1.5 0-2.5-2.2-3.1-6.5-1.3-9.5-4.4-17-9.4-22.5-3.7-4-8.8-6-15.4-6-20.4 0-30.6 18.1-30.6 54.3 0 22.5 3.4 38.2 10.1 47 4.2 5.6 9.8 8.4 16.9 8.4 8.9 0 13.3-5.6 13.3-16.8 0-8.4-.4-13.1-1.1-14.1-.7-1-2.5-1.5-5.5-1.5H59c-2.3 0-3.4-.5-3.4-1.5s.9-1.5 2.7-1.5c3.8 0 8.5.1 14.2.2H103.3c1.6.1 2.3.5 2.3 1.5z" class="st0"/><path d="M144.9 115.4c0 9.8-3.5 17.9-10.4 24.3-7 6.4-15.8 9.6-26.6 9.6-6.6 0-15.6-2.2-27.2-6.6-.9-.3-1.6-.5-2.3-.5-1.8 0-3.2 1.9-4.2 5.8-.3 1.2-.8 1.8-1.3 1.8-.9 0-1.3-.8-1.3-2.3 0-1.4.3-3.9.8-7.4.4-2.9.6-6.3.6-10.2 0-3.1-.1-5.6-.2-7.4-.2-3.7-.3-5.8-.3-6.5 0-1.7.5-2.6 1.6-2.6s2 2.3 2.9 7c1.5 8 4.9 14.2 10.2 18.6 5.7 4.7 11.9 7.1 18.4 7.1 5.8 0 10.7-1.8 14.7-5.5s6-8.1 6-13.4c0-4.5-1.3-8.1-3.9-10.8-1.9-1.9-8.2-5.8-18.8-11.5-11.7-6.3-19.7-12.5-23.9-18.8-3.9-5.7-5.8-12.5-5.8-20.4 0-9.3 3.3-16.9 9.9-23 6.6-6.1 14.9-9.1 24.9-9.1 5.4 0 11.2 1.3 17.3 3.9 2 .9 3.5 1.3 4.4 1.3 1.6 0 2.7-1.4 3.2-4.2.2-1 .7-1.5 1.5-1.5 1.1 0 1.6.7 1.6 2.1 0 .5-.1 2-.3 4.5-.2 2.5-.3 4.5-.3 6.1 0 5.6.2 10.3.6 14.2.1.3.2.8.2 1.3 0 1-.4 1.5-1.3 1.5-1 0-1.9-1.7-2.9-5.2-1-3.4-2.7-6.9-5.1-10.3-2.4-3.4-4.9-5.8-7.4-7.4-3.2-1.9-7-2.9-11.3-2.9-6 0-10.8 1.5-14.4 4.4-3.6 2.9-5.3 6.9-5.3 12 0 4.4 1.7 8.3 5 11.7 3.3 3.4 9.8 7.7 19.2 13 11.6 6.5 19.3 11.6 23.1 15.5 5.7 5.8 8.4 13.1 8.4 21.8z" class="st0"/><path d="M228.7 142.3c0 .2-.1 5.2-.2 15-.1 5.2-.2 8.9-.2 11.2-.1 2.3-.1 3.3-.1 3.2-28.4-1.3-53.3-1.7-74.7-1.1h-13.6c-1.9 0-2.9-.4-2.9-1.2 0-.6.2-1 .7-1.1.5-.1 2.1-.3 4.9-.5 5.1-.3 7.8-1.8 8.2-4.4.2-1.4.3-3 .3-4.7V77c0-6.5-.1-10-.2-10.7-.1-1.7-.6-2.9-1.6-3.5s-3-1-6-1c-3.3 0-5-.5-5-1.5 0-1.1 1.5-1.6 4.4-1.6 3 0 7.1-.1 12.4-.2 19.8-.4 36-.5 48.7-.3h11c2.4 0 5.3-.2 8.7-.5l1.5 17.6c.5 5.6.8 9.1.8 10.3 0 1.1-.5 1.6-1.6 1.6s-1.8-1.4-2.1-4.2c-1-7.4-4-12.9-9-16.2-5-3.4-12.5-5.1-22.3-5.1-3 0-8.2.2-15.6.5V110c11.9.1 19.4-.7 22.5-2.5 3.1-1.8 5.2-6.4 6.3-13.8.5-4 1.4-6 2.4-6s1.5 1 1.5 2.9-.2 5.9-.5 12c-.1 2-.2 4.8-.2 8.2 0 9.3.1 16.3.3 21 .1.6.2 1.5.2 2.4 0 1.3-.5 1.9-1.5 1.9-.8 0-1.2-.2-1.5-.7s-.5-2.2-1-5.3c-1.1-7.7-2.6-12.4-4.5-14.3-1.9-1.9-6.3-2.8-13.1-2.8h-11v54.3h10.4c11.9-.2 19.1-.5 21.7-.8 3.2-.4 6.4-1.6 9.4-3.6 2.7-2.2 4.6-4.5 5.6-7s2.1-7.1 3.3-13.7c.3-1.6.9-2.4 1.6-2.4 1.1.1 1.6.9 1.6 2.5z" class="st0"/><path d="M278.3 86.2l-.3-4.8h-.1c-.4.9-1 1.8-1.7 2.4-.7.7-1.4 1.2-2.2 1.7-.8.4-1.6.7-2.5.9s-1.8.3-2.8.3c-2.1 0-3.9-.4-5.5-1.1-1.6-.8-2.9-1.8-3.9-3-1-1.3-1.8-2.7-2.3-4.4-.5-1.7-.8-3.4-.8-5.2 0-1.8.3-3.6.8-5.2.5-1.7 1.3-3.1 2.3-4.4 1-1.3 2.3-2.3 3.9-3s3.4-1.1 5.5-1.1c1.4 0 2.7.2 3.9.6 1.2.4 2.3.9 3.3 1.7 1 .7 1.8 1.7 2.4 2.7.7 1.1 1.1 2.4 1.4 3.8h-2.5c-.1-.8-.3-1.5-.8-2.3-.4-.8-1-1.5-1.7-2.1-.7-.6-1.6-1.2-2.6-1.6-1-.4-2.2-.6-3.4-.6-1.8 0-3.3.3-4.5 1-1.3.7-2.3 1.6-3.1 2.7-.8 1.1-1.4 2.3-1.8 3.7-.4 1.4-.6 2.8-.6 4.3 0 1.4.2 2.9.6 4.2.4 1.4 1 2.6 1.8 3.7s1.8 2 3.1 2.7c1.3.7 2.8 1 4.5 1 1.5 0 2.8-.2 3.9-.7 1.1-.5 2.1-1.2 2.9-2 .8-.9 1.4-1.9 1.8-3.1.4-1.2.6-2.5.6-3.9h-9v-2.2h11.2v13.5h-1.8z" class="st0"/><path d="M287.2 59.7v16.4c0 1.5.2 2.8.5 3.9s.9 2 1.5 2.6c.7.7 1.5 1.2 2.4 1.5 1 .3 2.1.5 3.3.5 1.2 0 2.3-.2 3.3-.5s1.8-.8 2.4-1.5 1.2-1.6 1.5-2.6c.3-1.1.5-2.4.5-3.9V59.7h2.5v17c0 1.4-.2 2.7-.6 3.9-.4 1.2-1 2.3-1.8 3.2-.8.9-1.9 1.6-3.2 2.2-1.3.5-2.9.8-4.7.8-1.8 0-3.4-.3-4.7-.8-1.3-.5-2.4-1.3-3.2-2.2-.8-.9-1.4-2-1.8-3.2-.4-1.2-.6-2.5-.6-3.9v-17h2.7z" class="st0"/><path d="M313.1 59.7v26.5h-2.5V59.7h2.5z" class="st0"/><path d="M327.8 59.7c4 .1 7.1 1.2 9.1 3.4s3.1 5.4 3.1 9.9c0 4.4-1 7.7-3.1 9.9s-5.1 3.3-9.1 3.4h-9.2V59.7h9.2zm-1.3 24.4c1.9 0 3.5-.2 4.9-.6 1.4-.4 2.5-1.1 3.4-1.9.9-.9 1.5-2 2-3.5.4-1.4.6-3.1.6-5.1 0-2-.2-3.7-.6-5.1-.4-1.4-1.1-2.6-2-3.5s-2-1.5-3.4-1.9c-1.4-.4-3-.6-4.9-.6h-5.4v22.2h5.4z" class="st0"/><path d="M362.3 59.7v2.2h-15.8v9.6h14.8v2.2h-14.8v10.5h16v2.2H344V59.7h18.3z" class="st0"/><path d="M259.3 122.5c.4.9 1.1 1.6 1.8 2.2.8.5 1.7.9 2.8 1.2 1.1.2 2.2.4 3.4.4.7 0 1.4-.1 2.3-.3.8-.2 1.6-.5 2.3-.9.7-.4 1.3-1 1.8-1.7s.7-1.5.7-2.5c0-.7-.2-1.4-.5-1.9s-.8-1-1.3-1.4c-.5-.4-1.1-.7-1.8-.9-.6-.2-1.3-.4-1.9-.6l-5.9-1.4c-.8-.2-1.5-.4-2.2-.7-.7-.3-1.4-.7-1.9-1.2s-1-1.1-1.3-1.8c-.3-.7-.5-1.6-.5-2.6 0-.6.1-1.4.4-2.3.2-.9.7-1.7 1.4-2.4.7-.8 1.6-1.4 2.8-1.9 1.2-.5 2.7-.8 4.6-.8 1.3 0 2.6.2 3.7.5 1.2.3 2.2.9 3.1 1.6.9.7 1.6 1.6 2.1 2.6s.8 2.2.8 3.6h-2.5c0-1-.3-1.9-.7-2.7-.4-.8-.9-1.4-1.6-1.9-.7-.5-1.4-.9-2.3-1.2-.9-.3-1.7-.4-2.7-.4-.9 0-1.7.1-2.5.3-.8.2-1.5.5-2.1.9-.6.4-1.1.9-1.5 1.6-.4.7-.6 1.5-.6 2.5 0 .6.1 1.2.3 1.6.2.5.5.8.9 1.2.4.3.8.6 1.3.8.5.2 1 .4 1.5.5l6.5 1.6c.9.2 1.8.6 2.7.9.8.4 1.6.8 2.2 1.3.6.5 1.1 1.2 1.5 1.9.4.8.5 1.7.5 2.8 0 .3 0 .7-.1 1.2s-.2 1-.4 1.6c-.2.6-.6 1.1-1 1.7-.4.6-1 1.1-1.8 1.5-.8.5-1.7.8-2.8 1.1-1.1.3-2.4.4-4 .4s-3-.2-4.3-.5c-1.3-.4-2.5-.9-3.4-1.7-.9-.7-1.7-1.7-2.2-2.9-.5-1.2-.7-2.6-.6-4.2h2.5c-.2 1.3 0 2.4.5 3.3z" class="st0"/><path d="M283.4 101.3v11.5h15.7v-11.5h2.5v26.5h-2.5V115h-15.7v12.8h-2.5v-26.5h2.5z" class="st0"/><path d="M317.5 101.3l10.4 26.5h-2.7l-3.2-8.2h-12.1l-3.2 8.2H304l10.7-26.5h2.8zm3.6 16.1l-5.1-13.6-5.3 13.6h10.4z" class="st0"/><path d="M342.5 101.3c1.1 0 2.1.1 3.1.4 1 .3 1.8.7 2.6 1.2.7.6 1.3 1.3 1.7 2.2.4.9.6 1.9.6 3.1 0 1.7-.4 3.1-1.3 4.4-.9 1.2-2.2 2-3.9 2.4v.1c.9.1 1.6.4 2.2.7.6.3 1 .8 1.4 1.3.4.5.6 1.1.8 1.8.2.7.3 1.4.3 2.2 0 .4 0 1 .1 1.6 0 .6.1 1.3.1 1.9.1.7.2 1.3.4 1.9.2.6.4 1 .6 1.4h-2.8c-.1-.2-.3-.6-.4-.9-.1-.4-.1-.7-.2-1.1 0-.4-.1-.8-.1-1.1 0-.4 0-.7-.1-1-.1-.9-.1-1.9-.2-2.8-.1-.9-.3-1.8-.7-2.5-.4-.7-.9-1.3-1.6-1.8-.7-.4-1.6-.6-2.8-.6h-9.6v11.8h-2.5v-26.5h12.3zm-.2 12.6c.8 0 1.5-.1 2.2-.4.7-.2 1.3-.6 1.8-1s.9-1 1.2-1.6c.3-.6.5-1.4.5-2.2 0-1.6-.5-2.9-1.4-3.9-.9-.9-2.4-1.4-4.3-1.4h-9.4v10.4h9.4z" class="st0"/><path d="M373.4 101.3v2.2h-15.8v9.6h14.8v2.2h-14.8v10.5h16v2.2h-18.5v-26.5h18.3z" class="st0"/><path d="M275.7 142.9v2.2H260v9.6h14.8v2.2H260v10.5h16v2.2h-18.5v-26.5h18.2z" class="st0"/><path d="M281.7 142.9v16.4c0 1.5.2 2.8.5 3.9s.9 2 1.5 2.6c.7.7 1.5 1.2 2.4 1.5 1 .3 2.1.5 3.3.5 1.2 0 2.3-.2 3.3-.5s1.8-.8 2.4-1.5c.7-.7 1.2-1.6 1.5-2.6.3-1.1.5-2.4.5-3.9v-16.4h2.5v17c0 1.4-.2 2.7-.6 3.9-.4 1.2-1 2.3-1.8 3.2-.8.9-1.9 1.6-3.2 2.2-1.3.5-2.9.8-4.7.8-1.8 0-3.4-.3-4.7-.8-1.3-.5-2.4-1.3-3.2-2.2-.8-.9-1.4-2-1.8-3.2-.4-1.2-.6-2.5-.6-3.9v-17h2.7z" class="st0"/><path d="M317 142.9c1.1 0 2.1.1 3.1.4 1 .3 1.8.7 2.6 1.2.7.6 1.3 1.3 1.7 2.2.4.9.6 1.9.6 3.1 0 1.7-.4 3.1-1.3 4.4-.9 1.2-2.2 2-3.9 2.4v.1c.9.1 1.6.4 2.2.7.6.3 1 .8 1.4 1.3.4.5.6 1.1.8 1.8.2.7.3 1.4.3 2.2 0 .4 0 1 .1 1.6s.1 1.3.1 1.9c.1.7.2 1.3.4 1.9.2.6.4 1 .6 1.4H323c-.1-.2-.3-.6-.4-.9-.1-.4-.1-.7-.2-1.1 0-.4-.1-.8-.1-1.1 0-.4 0-.7-.1-1-.1-.9-.1-1.9-.2-2.8-.1-.9-.3-1.8-.7-2.5-.4-.7-.9-1.3-1.6-1.8-.7-.4-1.6-.6-2.8-.6h-9.6v11.8h-2.5V143H317zm-.2 12.6c.8 0 1.5-.1 2.2-.4.7-.2 1.3-.6 1.8-1s.9-1 1.2-1.6c.3-.6.5-1.4.5-2.2 0-1.6-.5-2.9-1.4-3.9-.9-.9-2.4-1.4-4.3-1.4h-9.4v10.4h9.4z" class="st0"/><path d="M329 150.9c.5-1.7 1.3-3.1 2.3-4.4s2.3-2.3 3.9-3c1.6-.8 3.4-1.1 5.5-1.1s3.9.4 5.5 1.1c1.6.8 2.9 1.8 3.9 3 1 1.3 1.8 2.7 2.3 4.4s.8 3.4.8 5.2-.3 3.6-.8 5.2-1.3 3.1-2.3 4.4c-1 1.3-2.3 2.3-3.9 3-1.6.8-3.4 1.1-5.5 1.1s-3.9-.4-5.5-1.1-2.9-1.8-3.9-3-1.8-2.7-2.3-4.4-.8-3.4-.8-5.2.3-3.5.8-5.2zm2.3 9.5c.4 1.4 1 2.6 1.8 3.7s1.8 2 3.1 2.7c1.3.7 2.8 1 4.5 1 1.8 0 3.3-.3 4.5-1 1.2-.7 2.3-1.6 3.1-2.7.8-1.1 1.4-2.3 1.8-3.7s.6-2.8.6-4.2c0-1.5-.2-2.9-.6-4.3s-1-2.6-1.8-3.7-1.8-2-3.1-2.7c-1.2-.7-2.8-1-4.5-1-1.8 0-3.3.3-4.5 1-1.3.7-2.3 1.6-3.1 2.7-.8 1.1-1.4 2.3-1.8 3.7s-.6 2.8-.6 4.3c0 1.4.2 2.8.6 4.2z" class="st0"/><path d="M368.9 142.9c1.2 0 2.3.2 3.2.5 1 .3 1.8.8 2.5 1.5s1.2 1.5 1.6 2.4c.4.9.6 2 .6 3.2s-.2 2.3-.6 3.2c-.4.9-.9 1.7-1.6 2.4-.7.7-1.5 1.2-2.5 1.5-1 .3-2 .5-3.2.5h-9.2v11.4h-2.5V143h11.7zm-.6 13c1.8 0 3.2-.4 4.3-1.3 1.1-.9 1.6-2.2 1.6-4.1 0-1.8-.5-3.2-1.6-4.1-1.1-.9-2.5-1.3-4.3-1.3h-8.7v10.8h8.7z" class="st0"/><path d="M398.8 142.9v2.2H383v9.6h14.8v2.2H383v10.5h16v2.2h-18.5v-26.5h18.3z" class="st0"/><g><path d="M241.3 56.3h2.6v117h-2.6z" class="st0"/></g></svg>