<svg xmlns="http://www.w3.org/2000/svg" role="img" viewBox="-12.00 -12.00 624.00 202.00"><title>HTL Donaustadt logo</title><style>svg {fill-rule:evenodd;clip-rule:evenodd;stroke-linejoin:round;stroke-miterlimit:1.41421}</style><circle cx="89.25" cy="89.25" r="89.25" fill="#fff"/><path fill="#005d95" d="M89.539 0l.288.002.288.002.288.003.287.004.288.005.287.006.287.007.287.008.286.009.287.009.286.011.286.011.285.012.286.013.285.014.285.015.285.016.284.017.284.017.284.019.284.019.283.02.284.021.283.022.282.023.283.024.282.025.282.025.282.027.282.027.281.028.281.029.281.03.28.031.28.031.28.033.28.033.279.035.28.035.279.036.278.036.279.038.278.039.277.039.278.04.277.041.277.042.277.043.276.044.277.044.275.045.276.047.275.047.275.047.275.049.275.05.274.05.274.051.273.052.273.053.273.054.273.054.273.056.272.056.271.057.272.058.271.058.271.06.27.06.271.061.27.062.269.063.27.063.269.065.268.065.269.066.268.067.268.067.267.069.267.069.267.07.266.071.266.072.266.072.266.073.265.074.265.075.264.076.264.076.264.077.263.078.264.079.262.08.263.08.262.081.262.082.261.083.261.083.261.085.26.085.26.086.26.086.259.088.259.088.259.089.258.089.258.091.258.091.257.092.256.093.257.093.256.095.256.095.255.095.255.097.255.097.254.098.254.099.253.1.253.1.253.101.252.102.252.103.252.103.251.104.251.105.25.105.25.107.25.107.249.107.249.109.248.109.249.11.247.111.247.111.247.112.247.113.246.114.246.114.245.115.245.116.244.116.244.118.244.118.243.118.243.12.242.12.242.12.242.122.241.122.241.123.24.124.24.124.239.125.239.126.239.126.238.127.238.128.237.129.237.129.237.13.236.13.235.132.235.132.235.132.234.134.234.134.234.134.232.136.233.136.232.137.232.137.231.138.23.139.231.14.23.14.229.141.229.141.228.142.228.143.228.144.227.144.226.145.226.145.226.146.225.147.225.148.224.148.224.149.223.149.223.15.222.151.222.151.222.152.221.153.22.153.22.154.219.155.219.155.219.156.218.157.217.157.217.158.217.158.216.159.215.16.216.161.214.161.214.161.214.162.213.163.212.164.212.164.212.165.211.165.21.166.21.167.21.167.209.168.208.168.208.169.208.17.207.17.206.171.206.171.205.172.205.173.204.173.204.174.203.175.203.175.202.176.202.176.201.177.201.177.2.178.199.179.199.179.199.18.197.181.198.181.197.181.196.182.196.183.195.183.194.184.194.185.194.185.193.185.192.187.192.186.191.188.191.188.19.188.19.189.189.19.188.19.188.191.188.191.186.192.187.192.185.193.185.194.185.194.184.194.183.195.183.196.182.196.181.197.181.198.181.197.18.199.179.199.179.199.178.2.177.201.177.201.176.202.176.202.175.203.175.203.174.204.173.204.173.205.172.205.171.206.171.206.17.207.17.208.169.208.168.208.168.209.167.21.167.21.166.21.165.211.165.212.164.212.164.212.163.213.162.214.161.214.161.214.161.216.16.215.159.216.158.217.158.217.157.217.157.218.156.219.155.219.155.219.154.22.153.22.153.221.152.222.151.222.151.222.15.223.149.223.149.224.148.224.148.225.147.225.146.226.145.226.145.226.144.227.144.228.143.228.142.228.141.229.141.229.14.23.14.231.139.23.138.231.137.232.137.232.136.233.136.232.134.234.134.234.134.234.132.235.132.235.132.235.13.236.13.237.129.237.129.237.128.238.127.238.126.239.126.239.125.239.124.24.124.24.123.241.122.241.122.242.12.242.12.242.12.243.118.243.118.244.118.244.116.244.116.245.115.245.114.246.114.246.113.247.112.247.111.247.111.247.11.249.109.248.109.249.107.249.107.25.107.25.105.25.105.251.104.251.103.252.103.252.102.252.101.253.1.253.1.253.099.254.098.254.097.255.097.255.095.255.095.256.095.256.093.257.093.256.092.257.091.258.091.258.089.258.089.259.088.259.088.259.086.26.086.26.085.26.085.261.083.261.083.261.082.262.081.262.08.263.08.262.079.264.078.263.077.264.076.264.076.264.075.265.074.265.073.266.072.266.072.266.071.266.07.267.069.267.069.267.067.268.067.268.066.269.065.268.065.269.063.27.063.269.062.27.061.271.06.27.06.271.058.271.058.272.057.271.056.272.056.273.054.273.054.273.053.273.052.273.051.274.05.274.05.275.049.275.047.275.047.275.047.276.045.275.044.277.044.276.043.277.042.277.041.277.04.278.039.277.039.278.038.279.036.278.036.279.035.28.035.279.033.28.033.28.031.28.031.28.03.281.029.281.028.281.027.282.027.282.025.282.025.282.024.283.023.282.022.283.021.284.02.283.019.284.019.284.017.284.017.284.016.285.015.285.014.285.013.286.012.285.011.286.011.286.009.287.009.286.008.287.007.287.006.287.005.288.004.287.003.288.002.288.002.288v.578l-.002.288-.002.288-.003.288-.004.287-.005.288-.006.287-.007.287-.008.287-.009.286-.009.287-.011.286-.011.286-.012.285-.013.286-.014.285-.015.285-.016.285-.017.284-.017.284-.019.284-.019.284-.02.283-.021.284-.022.283-.023.282-.024.283-.025.282-.025.282-.027.282-.027.282-.028.281-.029.281-.03.281-.031.28-.031.28-.033.28-.033.28-.035.279-.035.28-.036.279-.036.278-.038.279-.039.278-.039.277-.04.278-.041.277-.042.277-.043.277-.044.276-.044.277-.045.275-.047.276-.047.275-.047.275-.049.275-.05.275-.05.274-.051.274-.052.273-.053.273-.054.273-.054.273-.056.273-.056.272-.057.271-.058.272-.058.271-.06.271-.06.27-.061.271-.062.27-.063.269-.063.27-.065.269-.065.268-.066.269-.067.268-.067.268-.069.267-.069.267-.07.267-.071.266-.072.266-.072.266-.073.266-.074.265-.075.265-.076.264-.076.264-.077.264-.078.263-.079.264-.08.262-.08.263-.081.262-.082.262-.083.261-.083.261-.085.261-.085.26-.086.26-.086.26-.088.259-.088.259-.089.259-.089.258-.091.258-.091.258-.092.257-.093.256-.093.257-.095.256-.095.256-.095.255-.097.255-.097.255-.098.254-.099.254-.1.253-.1.253-.101.253-.102.252-.103.252-.103.252-.104.251-.105.251-.105.25-.107.25-.107.25-.107.249-.109.249-.109.248-.11.249-.111.247-.111.247-.112.247-.113.247-.114.246-.114.246-.115.245-.116.245-.116.244-.118.244-.118.244-.118.243-.12.243-.12.242-.12.242-.122.242-.122.241-.123.241-.124.24-.124.24-.125.239-.126.239-.126.239-.127.238-.128.238-.129.237-.129.237-.13.237-.13.236-.132.235-.132.235-.132.235-.134.234-.134.234-.134.234-.136.232-.136.233-.137.232-.137.232-.138.231-.139.23-.14.231-.14.23-.141.229-.141.229-.142.228-.143.228-.144.228-.144.227-.145.226-.145.226-.146.226-.147.225-.148.225-.148.224-.149.224-.149.223-.15.223-.151.222-.151.222-.152.222-.153.221-.153.22-.154.22-.155.219-.155.219-.156.219-.157.218-.157.217-.158.217-.158.217-.159.216-.16.215-.161.216-.161.214-.161.214-.162.214-.163.213-.164.212-.164.212-.165.212-.165.211-.166.21-.167.21-.167.21-.168.209-.168.208-.169.208-.17.208-.17.207-.171.206-.171.206-.172.205-.173.205-.173.204-.174.204-.175.203-.175.203-.176.202-.176.202-.177.201-.177.201-.178.2-.179.199-.179.199-.18.199-.181.197-.181.198-.181.197-.182.196-.183.196-.183.195-.184.194-.185.194-.185.194-.185.193-.187.192-.186.192-.188.191-.188.191-.188.19-.189.19-.19.189-.19.188-.191.188-.191.188-.192.186-.192.187-.193.185-.194.185-.194.185-.194.184-.195.183-.196.183-.196.182-.197.181-.198.181-.197.181-.199.18-.199.179-.199.179-.2.178-.201.177-.201.177-.202.176-.202.176-.203.175-.203.175-.204.174-.204.173-.205.173-.205.172-.206.171-.206.171-.207.17-.208.17-.208.169-.208.168-.209.168-.21.167-.21.167-.21.166-.211.165-.212.165-.212.164-.212.164-.213.163-.214.162-.214.161-.214.161-.216.161-.215.16-.216.159-.217.158-.217.158-.217.157-.218.157-.219.156-.219.155-.219.155-.22.154-.22.153-.221.153-.222.152-.222.151-.222.151-.223.15-.223.149-.224.149-.224.148-.225.148-.225.147-.226.146-.226.145-.226.145-.227.144-.228.144-.228.143-.228.142-.229.141-.229.141-.23.14-.231.14-.23.139-.231.138-.232.137-.232.137-.233.136-.232.136-.234.134-.234.134-.234.134-.235.132-.235.132-.235.132-.236.13-.237.13-.237.129-.237.129-.238.128-.238.127-.239.126-.239.126-.239.125-.24.124-.24.124-.241.123-.241.122-.242.122-.242.12-.242.12-.243.12-.243.118-.244.118-.244.118-.244.116-.245.116-.245.115-.246.114-.246.114-.247.113-.247.112-.247.111-.247.111-.249.11-.248.109-.249.109-.249.107-.25.107-.25.107-.25.105-.251.105-.251.104-.252.103-.252.103-.252.102-.253.101-.253.1-.253.1-.254.099-.254.098-.255.097-.255.097-.255.095-.256.095-.256.095-.257.093-.256.093-.257.092-.258.091-.258.091-.258.089-.259.089-.259.088-.259.088-.26.086-.26.086-.26.085-.261.085-.261.083-.261.083-.262.082-.262.081-.263.08-.262.08-.264.079-.263.078-.264.077-.264.076-.264.076-.265.075-.265.074-.266.073-.266.072-.266.072-.266.071-.267.07-.267.069-.267.069-.268.067-.268.067-.269.066-.268.065-.269.065-.27.063-.269.063-.27.062-.271.061-.27.06-.271.06-.271.058-.272.058-.271.057-.272.056-.273.056-.273.054-.273.054-.273.053-.273.052-.274.051-.274.05-.275.05-.275.049-.275.047-.275.047-.276.047-.275.045-.277.044-.276.044-.277.043-.277.042-.277.041-.278.04-.277.039-.278.039-.279.038-.278.036-.279.036-.28.035-.279.035-.28.033-.28.033-.28.031-.28.031-.281.03-.281.029-.281.028-.282.027-.282.027-.282.025-.282.025-.283.024-.282.023-.283.022-.284.021-.283.02-.284.019-.284.019-.284.017-.284.017-.285.016-.285.015-.285.014-.286.013-.285.012-.286.011-.286.011-.287.009-.286.009-.287.008-.287.007-.287.006-.288.005-.287.004-.288.003-.288.002-.288.002h-.578l-.288-.002-.288-.002-.288-.003-.287-.004-.288-.005-.287-.006-.287-.007-.287-.008-.286-.009-.287-.009-.286-.011-.286-.011-.285-.012-.286-.013-.285-.014-.285-.015-.285-.016-.284-.017-.284-.017-.284-.019-.284-.019-.283-.02-.284-.021-.283-.022-.282-.023-.283-.024-.282-.025-.282-.025-.282-.027-.282-.027-.281-.028-.281-.029-.281-.03-.28-.031-.28-.031-.28-.033-.28-.033-.279-.035-.28-.035-.279-.036-.278-.036-.279-.038-.278-.039-.277-.039-.278-.04-.277-.041-.277-.042-.277-.043-.276-.044-.277-.044-.275-.045-.276-.047-.275-.047-.275-.047-.275-.049-.275-.05-.274-.05-.274-.051-.273-.052-.273-.053-.273-.054-.273-.054-.273-.056-.272-.056-.271-.057-.272-.058-.271-.058-.271-.06-.27-.06-.271-.061-.27-.062-.269-.063-.27-.063-.269-.065-.268-.065-.269-.066-.268-.067-.268-.067-.267-.069-.267-.069-.267-.07-.266-.071-.266-.072-.266-.072-.266-.073-.265-.074-.265-.075-.264-.076-.264-.076-.264-.077-.263-.078-.264-.079-.262-.08-.263-.08-.262-.081-.262-.082-.261-.083-.261-.083-.261-.085-.26-.085-.26-.086-.26-.086-.259-.088-.259-.088-.259-.089-.258-.089-.258-.091-.258-.091-.257-.092-.256-.093-.257-.093-.256-.095-.256-.095-.255-.095-.255-.097-.255-.097-.254-.098-.254-.099-.253-.1-.253-.1-.253-.101-.252-.102-.252-.103-.252-.103-.251-.104-.251-.105-.25-.105-.25-.107-.25-.107-.249-.107-.249-.109-.248-.109-.249-.11-.247-.111-.247-.111-.247-.112-.247-.113-.246-.114-.246-.114-.245-.115-.245-.116-.244-.116-.244-.118-.244-.118-.243-.118-.243-.12-.242-.12-.242-.12-.242-.122-.241-.122-.241-.123-.24-.124-.24-.124-.239-.125-.239-.126-.239-.126-.238-.127-.238-.128-.237-.129-.237-.129-.237-.13-.236-.13-.235-.132-.235-.132-.235-.132-.234-.134-.234-.134-.234-.134-.232-.136-.233-.136-.232-.137-.232-.137-.231-.138-.23-.139-.231-.14-.23-.14-.229-.141-.229-.141-.228-.142-.228-.143-.228-.144-.227-.144-.226-.145-.226-.145-.226-.146-.225-.147-.225-.148-.224-.148-.224-.149-.223-.149-.223-.15-.222-.151-.222-.151-.222-.152-.221-.153-.22-.153-.22-.154-.219-.155-.219-.155-.219-.156-.218-.157-.217-.157-.217-.158-.217-.158-.216-.159-.215-.16-.216-.161-.214-.161-.214-.161-.214-.162-.213-.163-.212-.164-.212-.164-.212-.165-.211-.165-.21-.166-.21-.167-.21-.167-.209-.168-.208-.168-.208-.169-.208-.17-.207-.17-.206-.171-.206-.171-.205-.172-.205-.173-.204-.173-.204-.174-.203-.175-.203-.175-.202-.176-.202-.176-.201-.177-.201-.177-.2-.178-.199-.179-.199-.179-.199-.18-.197-.181-.198-.181-.197-.181-.196-.182-.196-.183-.195-.183-.194-.184-.194-.185-.194-.185-.193-.185-.192-.187-.192-.186-.191-.188-.191-.188-.19-.188-.19-.189-.189-.19-.188-.19-.188-.191-.188-.191-.186-.192-.187-.192-.185-.193-.185-.194-.185-.194-.184-.194-.183-.195-.183-.196-.182-.196-.181-.197-.181-.198-.181-.197-.18-.199-.179-.199-.179-.199-.178-.2-.177-.201-.177-.201-.176-.202-.176-.202-.175-.203-.175-.203-.174-.204-.173-.204-.173-.205-.172-.205-.171-.206-.171-.206-.17-.207-.17-.208-.169-.208-.168-.208-.168-.209-.167-.21-.167-.21-.166-.21-.165-.211-.165-.212-.164-.212-.164-.212-.163-.213-.162-.214-.161-.214-.161-.214-.161-.216-.16-.215-.159-.216-.158-.217-.158-.217-.157-.217-.157-.218-.156-.219-.155-.219-.155-.219-.154-.22-.153-.22-.153-.221-.152-.222-.151-.222-.151-.222-.15-.223-.149-.223-.149-.224-.148-.224-.148-.225-.147-.225-.146-.226-.145-.226-.145-.226-.144-.227-.144-.228-.143-.228-.142-.228-.141-.229-.141-.229-.14-.23-.14-.231-.139-.23-.138-.231-.137-.232-.137-.232-.136-.233-.136-.232-.134-.234-.134-.234-.134-.234-.132-.235-.132-.235-.132-.235-.13-.236-.13-.237-.129-.237-.129-.237-.128-.238-.127-.238-.126-.239-.126-.239-.125-.239-.124-.24-.124-.24-.123-.241-.122-.241-.122-.242-.12-.242-.12-.242-.12-.243-.118-.243-.118-.244-.118-.244-.116-.244-.116-.245-.115-.245-.114-.246-.114-.246-.113-.247-.112-.247-.111-.247-.111-.247-.11-.249-.109-.248-.109-.249-.107-.249-.107-.25-.107-.25-.105-.25-.105-.251-.104-.251-.103-.252-.103-.252-.102-.252-.101-.253-.1-.253-.1-.253-.099-.254-.098-.254-.097-.255-.097-.255-.095-.255-.095-.256-.095-.256-.093-.257-.093-.256-.092-.257-.091-.258-.091-.258-.089-.258-.089-.259-.088-.259-.088-.259-.086-.26-.086-.26-.085-.26-.085-.261-.083-.261-.083-.261-.082-.262-.081-.262-.08-.263-.08-.262-.079-.264-.078-.263-.077-.264-.076-.264-.076-.264-.075-.265-.074-.265-.073-.266-.072-.266-.072-.266-.071-.266-.07-.267-.069-.267-.069-.267-.067-.268-.067-.268-.066-.269-.065-.268-.065-.269-.063-.27-.063-.269-.062-.27-.061-.271-.06-.27-.06-.271-.058-.271-.058-.272-.057-.271-.056-.272-.056-.273-.054-.273-.054-.273-.053-.273-.052-.273-.051-.274-.05-.274-.05-.275-.049-.275-.047-.275-.047-.275-.047-.276-.045-.275-.044-.277-.044-.276-.043-.277-.042-.277-.041-.277-.04-.278-.039-.277-.039-.278-.038-.279-.036-.278-.036-.279-.035-.28-.035-.279-.033-.28-.033-.28-.031-.28-.031-.28-.03-.281-.029-.281-.028-.281-.027-.282-.027-.282-.025-.282-.025-.282-.024-.283-.023-.282-.022-.283-.021-.284-.02-.283-.019-.284-.019-.284-.017-.284-.017-.284-.016-.285-.015-.285-.014-.285-.013-.286-.012-.285-.011-.286-.011-.286-.009-.287-.009-.286-.008-.287-.007-.287-.006-.287-.005-.288-.004-.287-.003-.288-.002-.288L0 89.539v-.578l.002-.288.002-.288.003-.288.004-.287.005-.288.006-.287.007-.287.008-.287.009-.286.009-.287.011-.286.011-.286.012-.285.013-.286.014-.285.015-.285.016-.285.017-.284.017-.284.019-.284.019-.284.02-.283.021-.284.022-.283.023-.282.024-.283.025-.282.025-.282.027-.282.027-.282.028-.281.029-.281.03-.281.031-.28.031-.28.033-.28.033-.28.035-.279.035-.28.036-.279.036-.278.038-.279.039-.278.039-.277.04-.278.041-.277.042-.277.043-.277.044-.276.044-.277.045-.275.047-.276.047-.275.047-.275.049-.275.05-.275.05-.274.051-.274.052-.273.053-.273.054-.273.054-.273.056-.273.056-.272.057-.271.058-.272.058-.271.06-.271.06-.27.061-.271.062-.27.063-.269.063-.27.065-.269.065-.268.066-.269.067-.268.067-.268.069-.267.069-.267.07-.267.071-.266.072-.266.072-.266.073-.266.074-.265.075-.265.076-.264.076-.264.077-.264.078-.263.079-.264.08-.262.08-.263.081-.262.082-.262.083-.261.083-.261.085-.261.085-.26.086-.26.086-.26.088-.259.088-.259.089-.259.089-.258.091-.258.091-.258.092-.257.093-.256.093-.257.095-.256.095-.256.095-.255.097-.255.097-.255.098-.254.099-.254.1-.253.1-.253.101-.253.102-.252.103-.252.103-.252.104-.251.105-.251.105-.25.107-.25.107-.25.107-.249.109-.249.109-.248.11-.249.111-.247.111-.247.112-.247.113-.247.114-.246.114-.246.115-.245.116-.245.116-.244.118-.244.118-.244.118-.243.12-.243.12-.242.12-.242.122-.242.122-.241.123-.241.124-.24.124-.24.125-.239.126-.239.126-.239.127-.238.128-.238.129-.237.129-.237.13-.237.13-.236.132-.235.132-.235.132-.235.134-.234.134-.234.134-.234.136-.232.136-.233.137-.232.137-.232.138-.231.139-.23.14-.231.14-.23.141-.229.141-.229.142-.228.143-.228.144-.228.144-.227.145-.226.145-.226.146-.226.147-.225.148-.225.148-.224.149-.224.149-.223.15-.223.151-.222.151-.222.152-.222.153-.221.153-.22.154-.22.155-.219.155-.219.156-.219.157-.218.157-.217.158-.217.158-.217.159-.216.16-.215.161-.216.161-.214.161-.214.162-.214.163-.213.164-.212.164-.212.165-.212.165-.211.166-.21.167-.21.167-.21.168-.209.168-.208.169-.208.17-.208.17-.207.171-.206.171-.206.172-.205.173-.205.173-.204.174-.204.175-.203.175-.203.176-.202.176-.202.177-.201.177-.201.178-.2.179-.199.179-.199.18-.199.181-.197.181-.198.181-.197.182-.196.183-.196.183-.195.184-.194.185-.194.185-.194.185-.193.187-.192.186-.192.188-.191.188-.191.188-.19.189-.19.19-.189.19-.188.191-.188.191-.188.192-.186.192-.187.193-.185.194-.185.194-.185.194-.184.195-.183.196-.183.196-.182.197-.181.198-.181.197-.181.199-.18.199-.179.199-.179.2-.178.201-.177.201-.177.202-.176.202-.176.203-.175.203-.175.204-.174.204-.173.205-.173.205-.172.206-.171.206-.171.207-.17.208-.17.208-.169.208-.168.209-.168.21-.167.21-.167.21-.166.211-.165.212-.165.212-.164.212-.164.213-.163.214-.162.214-.161.214-.161.216-.161.215-.16.216-.159.217-.158.217-.158.217-.157.218-.157.219-.156.219-.155.219-.155.22-.154.22-.153.221-.153.222-.152.222-.151.222-.151.223-.15.223-.149.224-.149.224-.148.225-.148.225-.147.226-.146.226-.145.226-.145.227-.144.228-.144.228-.143.228-.142.229-.141.229-.141.23-.14.231-.14.23-.139.231-.138.232-.137.232-.137.233-.136.232-.136.234-.134.234-.134.234-.134.235-.132.235-.132.235-.132.236-.13.237-.13.237-.129.237-.129.238-.128.238-.127.239-.126.239-.126.239-.125.24-.124.24-.124.241-.123.241-.122.242-.122.242-.12.242-.12.243-.12.243-.118.244-.118.244-.118.244-.116.245-.116.245-.115.246-.114.246-.114.247-.113.247-.112.247-.111.247-.111.249-.11.248-.109.249-.109.249-.107.25-.107.25-.107.25-.105.251-.105.251-.104.252-.103.252-.103.252-.102.253-.101.253-.1.253-.1.254-.099.254-.098.255-.097.255-.097.255-.095.256-.095.256-.095.257-.093.256-.093.257-.092.258-.091.258-.091.258-.089.259-.089.259-.088.259-.088.26-.086.26-.086.26-.085.261-.085.261-.083.261-.083.262-.082.262-.081.263-.08.262-.08.264-.079.263-.078.264-.077.264-.076.264-.076.265-.075.265-.074.266-.073.266-.072.266-.072.266-.071.267-.07.267-.069.267-.069.268-.067.268-.067.269-.066.268-.065.269-.065.27-.063.269-.063.27-.062.271-.061.27-.06.271-.06.271-.058.272-.058.271-.057.272-.056.273-.056.273-.054.273-.054.273-.053.273-.052.274-.051.274-.05.275-.05.275-.049.275-.047.275-.047.276-.047.275-.045.277-.044.276-.044.277-.043.277-.042.277-.041.278-.04.277-.039.278-.039.279-.038.278-.036.279-.036.28-.035.279-.035.28-.033.28-.033.28-.031.28-.031.281-.03.281-.029.281-.028.282-.027.282-.027.282-.025.282-.025.283-.024.282-.023.283-.022.284-.021.283-.02.284-.019.284-.019.284-.017.284-.017.285-.016.285-.015.285-.014.286-.013.285-.012.286-.011.286-.011.287-.009.286-.009.287-.008.287-.007.287-.006.288-.005.287-.004.288-.003.288-.002.288-.002h.578zm-.569 2.565l-.281.001-.28.003-.279.003-.28.004-.279.005-.279.005-.279.007-.279.008-.278.008-.278.009-.278.01-.278.011-.278.012-.277.013-.277.014-.277.014-.276.015-.277.017-.276.017-.276.018-.275.019-.276.019-.275.021-.275.021-.274.022-.275.023-.274.024-.274.025-.274.026-.273.026-.273.028-.273.028-.273.029-.272.03-.273.03-.272.032-.271.032-.272.034-.271.034-.271.035-.27.035-.271.037-.27.037-.27.039-.269.039-.269.04-.269.04-.269.042-.269.042-.268.043-.268.044-.267.045-.268.046-.267.046-.267.048-.266.048-.266.049-.266.049-.266.051-.265.051-.266.052-.264.053-.265.054-.264.055-.264.055-.264.056-.263.057-.263.058-.263.058-.262.06-.262.06-.262.061-.262.062-.261.062-.261.063-.26.064-.261.065-.26.066-.259.066-.26.068-.259.068-.258.069-.259.069-.258.07-.258.072-.257.071-.257.073-.257.074-.257.074-.256.075-.256.075-.255.077-.255.077-.255.078-.255.079-.254.08-.254.08-.253.081-.253.082-.253.082-.253.084-.252.084-.252.085-.251.085-.251.087-.251.087-.25.088-.25.088-.25.09-.249.09-.25.09-.248.092-.248.092-.248.093-.248.094-.247.095-.247.095-.247.096-.246.096-.245.098-.246.098-.245.099-.245.1-.244.1-.244.101-.243.102-.244.102-.242.103-.243.104-.242.105-.241.105-.242.106-.241.107-.24.108-.24.108-.24.109-.239.109-.239.111-.239.111-.238.111-.238.113-.237.113-.237.114-.237.114-.236.116-.236.115-.235.117-.235.117-.235.118-.234.119-.234.119-.233.12-.233.121-.233.122-.232.122-.232.123-.231.123-.231.124-.23.125-.231.125-.229.127-.229.126-.229.128-.229.128-.228.129-.227.13-.227.13-.227.131-.226.131-.226.132-.225.133-.225.134-.225.134-.224.135-.224.135-.223.136-.222.137-.223.138-.222.138-.221.138-.221.14-.221.14-.22.141-.219.141-.219.142-.219.142-.218.144-.218.144-.218.144-.217.145-.216.146-.216.147-.215.147-.216.147-.214.149-.214.149-.214.149-.213.15-.213.151-.212.152-.212.152-.211.152-.211.154-.21.154-.21.154-.209.155-.209.156-.209.157-.208.157-.207.157-.207.158-.206.159-.206.16-.206.16-.205.16-.204.162-.204.161-.204.163-.203.163-.202.163-.202.165-.202.165-.201.165-.2.166-.2.167-.2.167-.199.167-.198.169-.198.169-.198.169-.197.17-.196.171-.196.171-.195.172-.195.173-.195.173-.193.173-.194.174-.193.175-.192.175-.191.176-.192.176-.19.177-.19.178-.19.178-.189.179-.189.179-.188.18-.187.18-.187.181-.186.181-.186.182-.185.183-.185.183-.184.184-.184.184-.183.185-.183.185-.182.186-.181.186-.181.187-.18.187-.18.188-.179.189-.179.189-.178.19-.178.19-.177.19-.176.192-.176.191-.175.192-.175.193-.174.194-.173.193-.173.195-.173.195-.172.195-.171.196-.171.196-.17.197-.169.198-.169.198-.169.198-.167.199-.167.2-.167.2-.166.2-.165.201-.165.202-.165.202-.163.202-.163.203-.163.204-.161.204-.162.204-.16.205-.16.206-.16.206-.159.206-.158.207-.157.207-.157.208-.157.209-.156.209-.155.209-.154.21-.154.21-.154.211-.152.211-.152.212-.152.212-.151.213-.15.213-.149.214-.149.214-.149.214-.147.216-.147.215-.147.216-.146.216-.145.217-.144.218-.144.218-.144.218-.142.219-.142.219-.141.219-.141.22-.14.221-.14.221-.138.221-.138.222-.138.223-.137.222-.136.223-.135.224-.135.224-.134.225-.134.225-.133.225-.132.226-.131.226-.131.227-.13.227-.13.227-.129.228-.128.229-.128.229-.126.229-.127.229-.125.231-.125.23-.124.231-.123.231-.123.232-.122.232-.122.233-.121.233-.12.233-.119.234-.119.234-.118.235-.117.235-.117.235-.115.236-.116.236-.114.237-.114.237-.113.237-.113.238-.111.238-.111.239-.111.239-.109.239-.109.24-.108.24-.108.24-.107.241-.106.242-.105.241-.105.242-.104.243-.103.242-.102.244-.102.243-.101.244-.1.244-.1.245-.099.245-.098.246-.098.245-.096.246-.096.247-.095.247-.095.247-.094.248-.093.248-.092.248-.092.248-.09.25-.09.249-.09.25-.088.25-.088.25-.087.251-.087.251-.085.251-.085.252-.084.252-.084.253-.082.253-.082.253-.081.253-.08.254-.08.254-.079.255-.078.255-.077.255-.077.255-.075.256-.075.256-.074.257-.074.257-.073.257-.071.257-.072.258-.07.258-.069.259-.069.258-.068.259-.068.26-.066.259-.066.26-.065.261-.064.26-.063.261-.062.261-.062.262-.061.262-.06.262-.06.262-.058.263-.058.263-.057.263-.056.264-.055.264-.055.264-.054.265-.053.264-.052.266-.051.265-.051.266-.049.266-.049.266-.048.266-.048.267-.046.267-.046.268-.045.267-.044.268-.043.268-.042.269-.042.269-.04.269-.04.269-.039.269-.039.27-.037.27-.037.271-.035.27-.035.271-.034.271-.034.272-.032.271-.032.272-.03.273-.03.272-.029.273-.028.273-.028.273-.026.273-.026.274-.025.274-.024.274-.023.275-.022.274-.021.275-.021.275-.019.276-.019.275-.018.276-.017.276-.017.277-.015.276-.014.277-.014.277-.013.277-.012.278-.011.278-.01.278-.009.278-.008.278-.008.279-.007.279-.005.279-.005.279-.004.28-.003.279-.003.28-.001.281v.56l.001.281.003.28.003.279.004.28.005.279.005.279.007.279.008.279.008.278.009.278.01.278.011.278.012.278.013.277.014.277.014.277.015.276.017.277.017.276.018.276.019.275.019.276.021.275.021.275.022.274.023.275.024.274.025.274.026.274.026.273.028.273.028.273.029.273.03.272.03.273.032.272.032.271.034.272.034.271.035.271.035.27.037.271.037.27.039.27.039.269.04.269.04.269.042.269.042.269.043.268.044.268.045.267.046.268.046.267.048.267.048.266.049.266.049.266.051.266.051.265.052.266.053.264.054.265.055.264.055.264.056.264.057.263.058.263.058.263.06.262.06.262.061.262.062.262.062.261.063.261.064.26.065.261.066.26.066.259.068.26.068.259.069.258.069.259.07.258.072.258.071.257.073.257.074.257.074.257.075.256.075.256.077.255.077.255.078.255.079.255.08.254.08.254.081.253.082.253.082.253.084.253.084.252.085.252.085.251.087.251.087.251.088.25.088.25.09.25.09.249.09.25.092.248.092.248.093.248.094.248.095.247.095.247.096.247.096.246.098.245.098.246.099.245.1.245.1.244.101.244.102.243.102.244.103.242.104.243.105.242.105.241.106.242.107.241.108.24.108.24.109.24.109.239.111.239.111.239.111.238.113.238.113.237.114.237.114.237.116.236.115.236.117.235.117.235.118.235.119.234.119.234.12.233.121.233.122.233.122.232.123.232.123.231.124.231.125.23.125.231.127.229.126.229.128.229.128.229.129.228.13.227.13.227.131.227.131.226.132.226.133.225.134.225.134.225.135.224.135.224.136.223.137.222.138.223.138.222.138.221.14.221.14.221.141.22.141.219.142.219.142.219.144.218.144.218.144.218.145.217.146.216.147.216.147.215.147.216.149.214.149.214.149.214.15.213.151.213.152.212.152.212.152.211.154.211.154.21.154.21.155.209.156.209.157.209.157.208.157.207.158.207.159.206.16.206.16.206.16.205.162.204.161.204.163.204.163.203.163.202.165.202.165.202.165.201.166.2.167.2.167.2.167.199.169.198.169.198.169.198.17.197.171.196.171.196.172.195.173.195.173.195.173.193.174.194.175.192.175.193.176.192.176.191.177.19.178.19.178.19.179.189.179.189.18.188.18.187.181.187.181.186.182.186.183.185.183.185.184.184.184.184.185.183.185.183.186.182.186.181.187.181.187.18.188.18.189.179.189.179.19.178.19.178.19.177.191.176.192.176.192.175.193.175.194.174.193.173.195.173.195.173.195.172.196.171.196.171.197.17.198.169.198.169.198.169.199.167.2.167.199.167.201.166.201.166.202.164.202.165.202.163.203.163.204.163.204.161.204.162.205.16.206.16.205.16.207.159.207.158.207.157.208.157.209.157.209.156.209.155.21.154.21.154.211.154.211.152.212.152.212.152.213.151.213.15.214.149.214.149.214.149.216.147.215.147.216.147.217.146.216.145.218.144.218.144.218.144.219.142.219.142.219.141.22.141.221.14.221.14.221.138.222.138.223.138.222.137.223.136.224.135.224.135.225.134.225.134.225.133.226.132.226.131.227.131.227.13.227.13.228.129.229.128.229.128.229.126.229.126.23.126.231.125.231.124.231.123.232.123.232.122.233.122.233.121.233.12.234.119.234.119.235.118.235.117.235.117.236.115.236.116.237.114.237.114.237.113.238.113.238.111.239.111.239.111.239.109.24.109.24.108.24.108.241.107.242.106.241.105.242.105.243.104.242.103.244.102.243.102.244.101.244.1.245.1.245.099.246.098.245.098.246.096.247.096.247.095.247.095.248.094.248.093.248.092.249.092.249.09.249.09.25.09.25.088.25.088.251.087.251.087.251.085.252.085.252.084.253.084.253.082.253.082.253.081.254.08.254.08.255.079.255.078.255.077.255.077.256.075.256.075.257.074.257.074.257.073.257.071.258.072.258.07.259.069.258.069.259.068.26.068.259.066.26.066.261.065.26.064.261.063.261.062.262.062.262.061.262.06.262.06.263.058.263.058.263.057.264.056.264.055.264.055.265.054.264.053.266.052.265.051.266.051.266.049.266.049.266.048.267.048.267.046.268.046.267.045.268.044.268.043.269.042.269.042.269.04.269.04.269.039.27.039.27.037.271.037.27.035.271.035.271.034.272.034.271.032.272.032.273.03.272.03.273.029.273.028.273.028.273.026.274.026.274.025.274.024.274.023.275.022.275.021.275.021.276.019.275.019.276.018.276.017.277.017.276.015.277.014.277.014.277.013.278.012.278.011.278.01.278.009.278.008.279.008.279.007.279.005.279.005.28.004.279.003.28.003.281.001h.56l.281-.001.28-.003.279-.003.28-.004.279-.005.279-.005.279-.007.279-.008.278-.008.278-.009.278-.01.278-.011.278-.012.277-.013.277-.014.277-.014.276-.015.277-.017.276-.017.276-.018.275-.019.276-.019.275-.021.275-.021.275-.022.274-.023.274-.024.274-.025.274-.026.273-.026.273-.028.273-.028.273-.029.272-.03.273-.03.272-.032.271-.032.272-.034.271-.034.271-.035.27-.035.271-.037.27-.037.27-.039.269-.039.269-.04.269-.04.269-.042.269-.042.268-.043.268-.044.267-.045.268-.046.267-.046.267-.048.266-.048.266-.049.266-.049.266-.051.265-.051.266-.052.264-.053.265-.054.264-.055.264-.055.264-.056.263-.057.263-.058.263-.058.262-.06.262-.06.262-.061.262-.062.261-.062.261-.063.26-.064.261-.065.26-.066.259-.066.26-.068.259-.068.258-.069.259-.069.258-.07.258-.072.257-.071.257-.073.257-.074.257-.074.256-.075.256-.075.255-.077.255-.077.255-.078.255-.079.254-.08.254-.08.253-.081.253-.082.253-.082.253-.084.252-.084.252-.085.251-.085.251-.087.251-.087.25-.088.25-.088.25-.09.249-.09.249-.09.249-.092.248-.092.248-.093.248-.094.247-.095.247-.095.247-.096.246-.096.245-.098.246-.098.245-.099.245-.1.244-.1.244-.101.243-.102.244-.102.242-.103.243-.104.242-.105.241-.105.242-.106.241-.107.24-.108.24-.108.24-.109.239-.109.239-.111.239-.111.238-.111.238-.113.237-.113.237-.114.237-.114.236-.116.236-.115.235-.117.235-.117.235-.118.234-.119.234-.119.233-.12.233-.121.233-.122.232-.122.232-.123.231-.123.231-.124.23-.125.231-.126.229-.126.229-.126.229-.128.229-.128.228-.129.227-.13.227-.13.227-.131.226-.131.226-.132.225-.133.225-.134.225-.134.224-.135.224-.135.223-.136.222-.137.223-.138.222-.138.221-.138.221-.14.221-.14.22-.141.219-.141.219-.142.219-.142.218-.144.218-.144.218-.144.216-.145.217-.146.216-.147.215-.147.216-.147.214-.149.214-.149.214-.149.213-.15.213-.151.212-.152.212-.152.211-.152.211-.154.21-.154.21-.154.209-.155.209-.156.209-.157.208-.157.207-.157.207-.158.206-.159.206-.16.206-.16.205-.16.204-.162.204-.161.204-.163.203-.163.202-.163.202-.165.202-.164.201-.166.201-.166.199-.167.2-.167.199-.167.198-.169.198-.169.198-.169.197-.17.196-.171.196-.171.195-.172.195-.173.195-.173.193-.173.194-.174.193-.175.192-.175.192-.176.191-.176.19-.177.19-.178.19-.178.189-.179.189-.179.188-.18.187-.18.187-.181.186-.181.186-.182.185-.183.185-.183.184-.184.184-.184.183-.185.183-.185.182-.186.181-.186.181-.187.18-.187.18-.188.179-.189.179-.189.178-.19.178-.19.177-.19.176-.191.176-.192.175-.192.175-.193.174-.194.173-.193.173-.195.173-.195.172-.195.171-.196.171-.196.17-.197.169-.198.169-.198.169-.198.167-.199.167-.2.167-.199.166-.201.166-.201.164-.202.165-.202.163-.202.163-.203.163-.204.161-.204.162-.204.16-.205.16-.206.16-.206.159-.206.158-.207.157-.207.157-.208.157-.209.156-.209.155-.209.154-.21.154-.21.154-.211.152-.211.152-.212.152-.212.151-.213.15-.213.149-.214.149-.214.149-.214.147-.216.147-.215.147-.216.146-.217.145-.216.144-.218.144-.218.144-.218.142-.219.142-.219.141-.219.141-.22.14-.221.14-.221.138-.221.138-.222.138-.223.137-.222.136-.223.135-.224.135-.224.134-.225.134-.225.133-.225.132-.226.131-.226.131-.227.13-.227.13-.227.129-.228.128-.229.128-.229.126-.229.126-.229.126-.231.125-.23.124-.231.123-.231.123-.232.122-.232.122-.233.121-.233.12-.233.119-.234.119-.234.118-.235.117-.235.117-.235.115-.236.116-.236.114-.237.114-.237.113-.237.113-.238.111-.238.111-.239.111-.239.109-.239.109-.24.108-.24.108-.24.107-.241.106-.242.105-.241.105-.242.104-.243.103-.242.102-.244.102-.243.101-.244.1-.244.1-.245.099-.245.098-.246.098-.245.096-.246.096-.247.095-.247.095-.247.094-.248.093-.248.092-.248.092-.249.09-.249.09-.249.09-.25.088-.25.088-.25.087-.251.087-.251.085-.251.085-.252.084-.252.084-.253.082-.253.082-.253.081-.253.08-.254.08-.254.079-.255.078-.255.077-.255.077-.255.075-.256.075-.256.074-.257.074-.257.073-.257.071-.257.072-.258.07-.258.069-.259.069-.258.068-.259.068-.26.066-.259.066-.26.065-.261.064-.26.063-.261.062-.261.062-.262.061-.262.06-.262.06-.262.058-.263.058-.263.057-.263.056-.264.055-.264.055-.264.054-.265.053-.264.052-.266.051-.265.051-.266.049-.266.049-.266.048-.266.048-.267.046-.267.046-.268.045-.267.044-.268.043-.268.042-.269.042-.269.04-.269.04-.269.039-.269.039-.27.037-.27.037-.271.035-.27.035-.271.034-.271.034-.272.032-.271.032-.272.03-.273.03-.272.029-.273.028-.273.028-.273.026-.273.026-.274.025-.274.024-.274.023-.274.022-.275.021-.275.021-.275.019-.276.019-.275.018-.276.017-.276.017-.277.015-.276.014-.277.014-.277.013-.277.012-.278.011-.278.01-.278.009-.278.008-.278.008-.279.007-.279.005-.279.005-.279.004-.28.003-.279.003-.28.001-.281v-.56l-.001-.281-.003-.28-.003-.279-.004-.28-.005-.279-.005-.279-.007-.279-.008-.279-.008-.278-.009-.278-.01-.278-.011-.278-.012-.278-.013-.277-.014-.277-.014-.277-.015-.276-.017-.277-.017-.276-.018-.276-.019-.275-.019-.276-.021-.275-.021-.275-.022-.275-.023-.274-.024-.274-.025-.274-.026-.274-.026-.273-.028-.273-.028-.273-.029-.273-.03-.272-.03-.273-.032-.272-.032-.271-.034-.272-.034-.271-.035-.271-.035-.27-.037-.271-.037-.27-.039-.27-.039-.269-.04-.269-.04-.269-.042-.269-.042-.269-.043-.268-.044-.268-.045-.267-.046-.268-.046-.267-.048-.267-.048-.266-.049-.266-.049-.266-.051-.266-.051-.265-.052-.266-.053-.264-.054-.265-.055-.264-.055-.264-.056-.264-.057-.263-.058-.263-.058-.263-.06-.262-.06-.262-.061-.262-.062-.262-.062-.261-.063-.261-.064-.26-.065-.261-.066-.26-.066-.259-.068-.26-.068-.259-.069-.258-.069-.259-.07-.258-.072-.258-.071-.257-.073-.257-.074-.257-.074-.257-.075-.256-.075-.256-.077-.255-.077-.255-.078-.255-.079-.255-.08-.254-.08-.254-.081-.253-.082-.253-.082-.253-.084-.253-.084-.252-.085-.252-.085-.251-.087-.251-.087-.251-.088-.25-.088-.25-.09-.25-.09-.249-.09-.249-.092-.249-.092-.248-.093-.248-.094-.248-.095-.247-.095-.247-.096-.247-.096-.246-.098-.245-.098-.246-.099-.245-.1-.245-.1-.244-.101-.244-.102-.243-.102-.244-.103-.242-.104-.243-.105-.242-.105-.241-.106-.242-.107-.241-.108-.24-.108-.24-.109-.24-.109-.239-.111-.239-.111-.239-.111-.238-.113-.238-.113-.237-.114-.237-.114-.237-.116-.236-.115-.236-.117-.235-.117-.235-.118-.235-.119-.234-.119-.234-.12-.233-.121-.233-.122-.233-.122-.232-.123-.232-.123-.231-.124-.231-.125-.231-.126-.23-.126-.229-.126-.229-.128-.229-.128-.229-.129-.228-.13-.227-.13-.227-.131-.227-.131-.226-.132-.226-.133-.225-.134-.225-.134-.225-.135-.224-.135-.224-.136-.223-.137-.222-.138-.223-.138-.222-.138-.221-.14-.221-.14-.221-.141-.22-.141-.219-.142-.219-.142-.219-.144-.218-.144-.218-.144-.218-.145-.216-.146-.217-.147-.216-.147-.215-.147-.216-.149-.214-.149-.214-.149-.214-.15-.213-.151-.213-.152-.212-.152-.212-.152-.211-.154-.211-.154-.21-.154-.21-.155-.209-.156-.209-.157-.209-.157-.208-.157-.207-.158-.207-.159-.207-.16-.205-.16-.206-.16-.205-.162-.204-.161-.204-.163-.204-.163-.203-.163-.202-.165-.202-.164-.202-.166-.201-.166-.201-.167-.199-.167-.2-.167-.199-.169-.198-.169-.198-.169-.198-.17-.197-.171-.196-.171-.196-.172-.195-.173-.195-.173-.195-.173-.193-.174-.194-.175-.193-.175-.192-.176-.192-.176-.191-.177-.19-.178-.19-.178-.19-.179-.189-.179-.189-.18-.188-.18-.187-.181-.187-.181-.186-.182-.186-.183-.185-.183-.185-.184-.184-.184-.184-.185-.183-.185-.183-.186-.182-.186-.181-.187-.181-.187-.18-.188-.18-.189-.179-.189-.179-.19-.178-.19-.178-.19-.177-.191-.176-.192-.176-.193-.175-.192-.175-.194-.174-.193-.173-.195-.173-.195-.173-.195-.172-.196-.171-.196-.171-.197-.17-.198-.169-.198-.169-.198-.169-.199-.167-.2-.167-.2-.167-.2-.166-.201-.165-.202-.165-.202-.165-.202-.163-.203-.163-.204-.163-.204-.161-.204-.162-.205-.16-.206-.16-.206-.16-.206-.159-.207-.158-.207-.157-.208-.157-.209-.157-.209-.156-.209-.155-.21-.154-.21-.154-.211-.154-.211-.152-.212-.152-.212-.152-.213-.151-.213-.15-.214-.149-.214-.149-.214-.149-.216-.147-.215-.147-.216-.147-.216-.146-.217-.145-.218-.144-.218-.144-.218-.144-.219-.142-.219-.142-.219-.141-.22-.141-.221-.14-.221-.14-.221-.138-.222-.138-.223-.138-.222-.137-.223-.136-.224-.135-.224-.135-.225-.134-.225-.134-.225-.133-.226-.132-.226-.131-.227-.131-.227-.13-.227-.13-.228-.129-.229-.128-.229-.128-.229-.126-.229-.127-.231-.125-.23-.125-.231-.124-.231-.123-.232-.123-.232-.122-.233-.122-.233-.121-.233-.12-.234-.119-.234-.119-.235-.118-.235-.117-.235-.117-.236-.115-.236-.116-.237-.114-.237-.114-.237-.113-.238-.113-.238-.111-.239-.111-.239-.111-.239-.109-.24-.109-.24-.108-.24-.108-.241-.107-.242-.106-.241-.105-.242-.105-.243-.104-.242-.103-.244-.102-.243-.102-.244-.101-.244-.1-.245-.1-.245-.099-.246-.098-.245-.098-.246-.096-.247-.096-.247-.095-.247-.095-.248-.094-.248-.093-.248-.092-.248-.092-.25-.09-.249-.09-.25-.09-.25-.088-.25-.088-.251-.087-.251-.087-.251-.085-.252-.085-.252-.084-.253-.084-.253-.082-.253-.082-.253-.081-.254-.08-.254-.08-.255-.079-.255-.078-.255-.077-.255-.077-.256-.075-.256-.075-.257-.074-.257-.074-.257-.073-.257-.071-.258-.072-.258-.07-.259-.069-.258-.069-.259-.068-.26-.068-.259-.066-.26-.066-.261-.065-.26-.064-.261-.063-.261-.062-.262-.062-.262-.061-.262-.06-.262-.06-.263-.058-.263-.058-.263-.057-.264-.056-.264-.055-.264-.055-.265-.054-.264-.053-.266-.052-.265-.051-.266-.051-.266-.049-.266-.049-.266-.048-.267-.048-.267-.046-.268-.046-.267-.045-.268-.044-.268-.043-.269-.042-.269-.042-.269-.04-.269-.04-.269-.039-.27-.039-.27-.037-.271-.037-.27-.035-.271-.035-.271-.034-.272-.034-.271-.032-.272-.032-.273-.03-.272-.03-.273-.029-.273-.028-.273-.028-.273-.026-.274-.026-.274-.025-.274-.024-.275-.023-.274-.022-.275-.021-.275-.021-.276-.019-.275-.019-.276-.018-.276-.017-.277-.017-.276-.015-.277-.014-.277-.014-.277-.013-.278-.012-.278-.011-.278-.01-.278-.009-.278-.008-.279-.008-.279-.007-.279-.005-.279-.005-.28-.004-.279-.003-.28-.003-.281-.001h-.56z"/><circle cx="89.25" cy="89.25" r="68.476" fill="#005d95"/><path fill="#fff" d="M75.069 92.477c-9.792-18.888-13.012-39.746-8.642-56.826 4.055 12.493 12.647 30.788 23.319 49.664l40.062-19.547-36.885 25.09c10.899 18.75 22.355 35.422 31.093 45.24-16.906-4.846-33.239-18.109-44.598-36.054l-26.151 17.789-6.654-11.472 28.456-13.884zm11.873 42.167H49.241l18.851-24.62 18.85 24.62z"/><path fill="#161616" d="M592.173 99.834h8.11l-1.32 6.275h-8.109l-3.09 15.028c-.107.472-.188.885-.241 1.239-.054.354-.081.66-.081.918 0 .793.215 1.346.644 1.657.429.311 1.18.467 2.253.467.729 0 1.662-.081 2.799-.242 1.138-.161 2.157-.348 3.058-.563l-1.255 6.34c-1.03.279-2.151.493-3.363.643-1.212.15-2.355.226-3.428.226-1.48 0-2.756-.156-3.829-.467-1.073-.311-1.958-.756-2.655-1.336-.697-.579-1.212-1.287-1.545-2.124-.332-.836-.499-1.78-.499-2.831 0-.365.022-.8.065-1.304.043-.504.139-1.11.289-1.818l3.283-15.833h-5.825l1.32-6.275h5.792l1.834-8.722h7.595l-1.802 8.722zm-18.384-8.722l-6.331 30.444c-.086.407-.15.788-.193 1.142-.043.354-.064.628-.064.821 0 .493.134.885.402 1.174.268.29.724.435 1.367.435.601 0 1.363-.064 2.285-.193l-1.319 6.114c-.579.129-1.223.231-1.931.306-.708.075-1.341.113-1.899.113-1.759 0-3.094-.413-4.006-1.239-.91-.824-1.483-1.995-1.722-3.524h-.129c-1.484 1.827-3.075 3.133-4.779 3.926-1.705.794-3.373 1.191-5.004 1.191-1.394 0-2.649-.258-3.765-.773-1.115-.515-2.059-1.244-2.832-2.188-.772-.944-1.362-2.081-1.77-3.411-.407-1.33-.611-2.811-.611-4.441 0-1.738.15-3.487.45-5.246.301-1.759.735-3.449 1.304-5.068.568-1.62 1.271-3.138 2.108-4.554.836-1.416 1.796-2.65 2.88-3.701 1.083-1.051 2.285-1.877 3.604-2.478 1.319-.6 2.752-.901 4.296-.901 1.545 0 2.95.317 4.216.95 1.266.632 2.36 1.603 3.282 2.912h.129l2.444-11.811h7.588zm-335.93 8.722h8.11l-1.32 6.275h-8.109l-3.09 15.028c-.107.472-.187.885-.241 1.239-.054.354-.08.66-.08.918 0 .793.214 1.346.643 1.657.429.311 1.18.467 2.253.467.729 0 1.663-.081 2.8-.242 1.137-.161 2.156-.348 3.057-.563l-1.255 6.34c-1.03.279-2.151.493-3.363.643-1.212.15-2.355.226-3.428.226-1.48 0-2.756-.156-3.829-.467-1.073-.311-1.958-.756-2.655-1.336-.697-.579-1.212-1.287-1.545-2.124-.332-.836-.498-1.78-.498-2.831 0-.365.021-.8.064-1.304s.139-1.11.29-1.818l3.282-15.833h-5.825l1.32-6.275h5.792l1.835-8.722h7.594l-1.802 8.722zm286.927 26.871c-1.485 1.827-3.076 3.133-4.779 3.926-1.706.794-3.374 1.191-5.004 1.191-1.395 0-2.65-.258-3.765-.773-1.116-.515-2.06-1.244-2.832-2.188-.773-.944-1.363-2.081-1.77-3.411-.408-1.33-.612-2.811-.612-4.441 0-1.738.145-3.487.435-5.246.289-1.759.724-3.449 1.303-5.068.579-1.62 1.293-3.138 2.14-4.554.847-1.416 1.829-2.65 2.945-3.701 1.115-1.051 2.36-1.877 3.733-2.478 1.373-.6 2.864-.901 4.473-.901 1.48 0 2.885.311 4.216.933 1.33.623 2.488 1.599 3.475 2.929h.129l1.126-3.089h6.501l-4.506 21.722c-.085.407-.15.788-.193 1.142-.043.354-.064.628-.064.821 0 .579.155.992.467 1.239.311.247.745.37 1.303.37.622 0 1.384-.064 2.285-.193l-1.32 6.114c-1.33.279-2.606.419-3.829.419-1.759 0-3.095-.413-4.007-1.239-.909-.824-1.483-1.995-1.721-3.524h-.129zM311.224 91.112l-6.332 30.444c-.085.407-.15.788-.193 1.142-.043.354-.064.628-.064.821 0 .493.134.885.402 1.174.268.29.724.435 1.368.435.601 0 1.362-.064 2.285-.193l-1.32 6.114c-.579.129-1.223.231-1.931.306-.708.075-1.34.113-1.898.113-1.759 0-3.095-.413-4.007-1.239-.909-.824-1.483-1.995-1.721-3.524h-.129c-1.485 1.827-3.076 3.133-4.779 3.926-1.706.794-3.374 1.191-5.004 1.191-1.395 0-2.65-.258-3.765-.773-1.116-.515-2.06-1.244-2.832-2.188-.773-.944-1.363-2.081-1.77-3.411-.408-1.33-.612-2.811-.612-4.441 0-1.738.15-3.487.451-5.246.3-1.759.735-3.449 1.303-5.068.569-1.62 1.271-3.138 2.108-4.554.837-1.416 1.797-2.65 2.88-3.701 1.084-1.051 2.285-1.877 3.604-2.478 1.32-.6 2.752-.901 4.297-.901 1.544 0 2.95.317 4.215.95 1.266.632 2.36 1.603 3.283 2.912h.129l2.444-11.811h7.588zm185.242 8.722h8.11l-1.319 6.275h-8.11l-3.089 15.028c-.108.472-.188.885-.242 1.239-.053.354-.08.66-.08.918 0 .793.214 1.346.643 1.657.43.311 1.18.467 2.253.467.73 0 1.663-.081 2.8-.242 1.137-.161 2.156-.348 3.057-.563l-1.255 6.34c-1.03.279-2.151.493-3.363.643-1.212.15-2.354.226-3.427.226-1.481 0-2.757-.156-3.83-.467-1.072-.311-1.957-.756-2.655-1.336-.697-.579-1.212-1.287-1.544-2.124-.333-.836-.499-1.78-.499-2.831 0-.365.021-.8.064-1.304s.14-1.11.29-1.818l3.282-15.833h-5.824l1.319-6.275h5.793l1.834-8.722h7.595l-1.803 8.722zm-164.381-.773c1.845 0 3.513.247 5.005.74 1.491.494 2.767 1.229 3.829 2.205 1.062.976 1.883 2.21 2.462 3.701.579 1.491.869 3.223.869 5.197 0 2.746-.376 5.379-1.126 7.9-.751 2.521-1.862 4.747-3.331 6.678-1.47 1.931-3.299 3.47-5.487 4.618-2.188 1.148-4.72 1.722-7.595 1.722-1.823 0-3.486-.247-4.988-.741-1.502-.493-2.784-1.228-3.846-2.204-1.062-.976-1.882-2.204-2.461-3.685-.58-1.48-.869-3.218-.869-5.213 0-2.746.375-5.38 1.126-7.901.751-2.52 1.861-4.746 3.331-6.677 1.469-1.931 3.298-3.47 5.487-4.618 2.188-1.148 4.72-1.722 7.594-1.722zm136.48 22.495c0-.644-.203-1.169-.611-1.577-.408-.408-.933-.767-1.577-1.078-.644-.311-1.378-.596-2.204-.853-.826-.257-1.658-.547-2.494-.869-.773-.3-1.518-.654-2.237-1.062-.719-.407-1.362-.917-1.931-1.528-.568-.612-1.019-1.336-1.351-2.173-.333-.836-.499-1.845-.499-3.025 0-1.759.332-3.288.997-4.585.666-1.298 1.556-2.371 2.671-3.219 1.116-.847 2.414-1.48 3.894-1.898 1.481-.419 3.036-.628 4.667-.628.922 0 1.85.059 2.783.177.934.118 1.845.279 2.736.483.89.204 1.743.44 2.558.708.815.268 1.556.563 2.221.885l-1.223 5.953c-1.609-.665-3.192-1.169-4.747-1.512-1.555-.343-3.02-.515-4.393-.515-1.48 0-2.622.3-3.427.901-.805.601-1.207 1.384-1.207 2.349 0 .58.145 1.068.435 1.464.289.397.675.746 1.158 1.046.483.301 1.041.569 1.674.805.632.236 1.292.483 1.979.74.879.322 1.77.676 2.671 1.062.901.386 1.716.896 2.446 1.529.729.633 1.324 1.41 1.786 2.333.461.922.691 2.081.691 3.475 0 1.781-.337 3.347-1.013 4.699-.676 1.351-1.636 2.488-2.88 3.411-1.245.922-2.725 1.614-4.441 2.076-1.717.461-3.626.692-5.729.692-1.18 0-2.295-.065-3.347-.194-1.051-.128-2-.289-2.848-.482-.847-.193-1.587-.397-2.22-.612-.633-.214-1.132-.407-1.496-.579l1.255-6.082c1.416.558 2.848.992 4.296 1.303 1.448.311 2.912.467 4.392.467 2.146 0 3.776-.36 4.892-1.078 1.116-.719 1.673-1.722 1.673-3.009zm-37.04 10.266c-2.06 0-3.824-.231-5.294-.692-1.469-.462-2.676-1.111-3.62-1.947-.944-.837-1.636-1.84-2.076-3.009-.44-1.169-.66-2.451-.66-3.846 0-.45.038-.965.113-1.545.075-.579.199-1.319.37-2.22l3.862-18.729h7.595l-3.926 18.986c-.108.515-.183.993-.226 1.432-.043.44-.064.843-.064 1.207 0 1.287.354 2.296 1.062 3.025.708.73 1.856 1.094 3.443 1.094 1.116 0 2.076-.155 2.88-.466.805-.311 1.486-.762 2.044-1.352.558-.59 1.014-1.309 1.368-2.156.354-.847.638-1.797.852-2.848l3.927-18.922h7.594l-4.344 21.014c-.301 1.416-.767 2.783-1.4 4.103-.633 1.319-1.529 2.489-2.687 3.508-1.159 1.019-2.618 1.834-4.377 2.445-1.759.612-3.904.918-6.436.918zm-28.995-5.117c-1.485 1.827-3.076 3.133-4.779 3.926-1.706.794-3.374 1.191-5.004 1.191-1.395 0-2.65-.258-3.765-.773-1.116-.515-2.06-1.244-2.832-2.188-.773-.944-1.363-2.081-1.77-3.411-.408-1.33-.612-2.811-.612-4.441 0-1.738.145-3.487.435-5.246.289-1.759.724-3.449 1.303-5.068.579-1.62 1.293-3.138 2.14-4.554.847-1.416 1.829-2.65 2.945-3.701 1.115-1.051 2.36-1.877 3.733-2.478 1.373-.6 2.864-.901 4.473-.901 1.48 0 2.885.311 4.216.933 1.33.623 2.488 1.599 3.475 2.929h.129l1.126-3.089h6.501l-4.506 21.722c-.085.407-.15.788-.193 1.142-.043.354-.064.628-.064.821 0 .579.155.992.467 1.239.311.247.745.37 1.303.37.622 0 1.384-.064 2.285-.193l-1.32 6.114c-1.33.279-2.606.419-3.829.419-1.759 0-3.095-.413-4.007-1.239-.909-.824-1.483-1.995-1.721-3.524h-.129zM261.697 91.112l-6.299 30.283c-.172.858-.258 1.48-.258 1.866 0 .601.183 1.036.547 1.304.365.268.912.402 1.642.402.729 0 1.491-.086 2.285-.257l-1.384 6.371c-.494.108-1.127.204-1.899.29s-1.512.129-2.22.129c-2.275 0-3.986-.51-5.133-1.529-1.148-1.019-1.722-2.515-1.722-4.489 0-1.03.139-2.199.418-3.508l6.427-30.862h7.596zm-59.661 0l-1.636 7.885c-.236 1.223-.665 2.81-1.287 4.763h.129c.515-.623 1.121-1.218 1.818-1.786.697-.569 1.464-1.068 2.301-1.497.837-.429 1.743-.772 2.719-1.03.976-.257 2.001-.386 3.074-.386 1.222 0 2.376.177 3.459.531 1.083.354 2.038.874 2.864 1.561.826.686 1.475 1.523 1.947 2.51.472.987.708 2.124.708 3.411 0 .794-.075 1.674-.225 2.639-.15.966-.322 1.931-.515 2.896l-3.83 18.408h-7.594l3.926-18.987c.128-.665.23-1.26.305-1.786.076-.526.113-.971.113-1.335 0-1.095-.3-1.942-.901-2.543-.601-.6-1.545-.901-2.832-.901-1.566 0-3.025.429-4.377 1.287-1.351.859-2.477 2.017-3.379 3.476-.171.279-.337.579-.498.901-.161.322-.317.687-.467 1.094-.15.408-.295.875-.434 1.4-.14.526-.285 1.143-.435 1.851l-3.218 15.543h-7.595l8.268-39.905h7.592zm152.705 39.905h-7.595l6.469-31.183h6.468v3.926h.129c.515-.623 1.121-1.218 1.818-1.786.697-.569 1.464-1.068 2.301-1.497.837-.429 1.743-.772 2.719-1.03.976-.257 2.001-.386 3.073-.386 1.223 0 2.376.177 3.46.531 1.083.354 2.038.874 2.864 1.561.826.686 1.475 1.523 1.947 2.51.472.987.708 2.124.708 3.411 0 .794-.075 1.674-.225 2.639-.15.966-.322 1.931-.515 2.896l-3.83 18.408h-7.594l3.926-18.987c.128-.665.23-1.26.305-1.786.075-.526.113-.971.113-1.335 0-1.095-.306-1.942-.917-2.543-.612-.6-1.55-.901-2.816-.901-1.566 0-3.025.429-4.377 1.287-1.351.859-2.478 2.017-3.379 3.476-.171.279-.338.579-.498.901-.161.322-.317.687-.467 1.094-.15.408-.295.875-.435 1.4-.139.526-.284 1.143-.434 1.851l-3.218 15.543zm50.299-23.299c-.193-.279-.445-.563-.756-.853-.311-.29-.676-.547-1.094-.772-.419-.226-.88-.413-1.384-.563-.504-.151-1.046-.226-1.625-.226-1.009 0-1.926.242-2.752.724-.826.483-1.566 1.127-2.22 1.931-.655.805-1.218 1.727-1.69 2.768-.472 1.04-.863 2.118-1.174 3.234-.312 1.116-.542 2.215-.692 3.299-.151 1.083-.226 2.086-.226 3.009 0 1.823.285 3.164.853 4.022.569.858 1.4 1.287 2.494 1.287 1.094 0 2.188-.37 3.283-1.11 1.094-.74 2.07-1.754 2.928-3.041.579-.858 1.078-1.834 1.497-2.928.418-1.095.777-2.35 1.078-3.766l1.48-7.015zm-73.598-2.414c-1.03 0-1.974.204-2.832.612-.858.407-1.631.971-2.317 1.689-.687.719-1.282 1.55-1.786 2.494-.504.944-.928 1.958-1.271 3.041-.344 1.084-.601 2.194-.773 3.331-.171 1.137-.257 2.253-.257 3.347 0 1.781.413 3.186 1.239 4.216.826 1.03 2.129 1.544 3.91 1.544 1.03 0 1.974-.203 2.832-.611.858-.408 1.63-.971 2.317-1.69.686-.718 1.287-1.55 1.802-2.494.515-.944.939-1.957 1.271-3.041.333-1.083.585-2.199.756-3.347.172-1.147.258-2.268.258-3.362 0-1.76-.419-3.154-1.255-4.184-.837-1.03-2.135-1.545-3.894-1.545zm-31.28 2.543c-.193-.279-.445-.569-.757-.869-.311-.301-.67-.574-1.078-.821-.407-.247-.863-.45-1.367-.611-.504-.161-1.046-.242-1.625-.242-1.009 0-1.926.242-2.752.724-.826.483-1.561 1.127-2.204 1.931-.644.805-1.207 1.727-1.69 2.768-.483 1.04-.879 2.118-1.191 3.234-.311 1.116-.541 2.215-.691 3.299-.151 1.083-.226 2.086-.226 3.009 0 1.823.285 3.164.853 4.022.569.858 1.4 1.287 2.494 1.287 1.18 0 2.349-.418 3.508-1.255 1.158-.836 2.188-1.984 3.089-3.443.944-1.588 1.674-3.615 2.189-6.082l1.448-6.951zm227.134-.129c-.193-.279-.445-.563-.756-.853-.311-.29-.676-.547-1.094-.772-.419-.226-.88-.413-1.384-.563-.504-.151-1.046-.226-1.625-.226-1.009 0-1.926.242-2.752.724-.826.483-1.566 1.127-2.22 1.931-.655.805-1.218 1.727-1.69 2.768-.472 1.04-.863 2.118-1.175 3.234-.311 1.116-.541 2.215-.691 3.299-.151 1.083-.226 2.086-.226 3.009 0 1.823.285 3.164.853 4.022.569.858 1.4 1.287 2.494 1.287 1.094 0 2.188-.37 3.283-1.11 1.094-.74 2.07-1.754 2.928-3.041.579-.858 1.078-1.834 1.497-2.928.418-1.095.777-2.35 1.078-3.766l1.48-7.015zm35.431.129c-.193-.279-.445-.569-.756-.869-.311-.301-.67-.574-1.078-.821-.408-.247-.864-.45-1.368-.611-.504-.161-1.046-.242-1.625-.242-1.008 0-1.925.242-2.751.724-.826.483-1.561 1.127-2.205 1.931-.643.805-1.207 1.727-1.689 2.768-.483 1.04-.88 2.118-1.191 3.234-.311 1.116-.542 2.215-.692 3.299-.15 1.083-.225 2.086-.225 3.009 0 1.823.284 3.164.853 4.022.568.858 1.4 1.287 2.494 1.287 1.18 0 2.349-.418 3.507-1.255 1.159-.836 2.189-1.984 3.09-3.443.944-1.588 1.673-3.615 2.188-6.082l1.448-6.951z"/></svg>