<svg xmlns="http://www.w3.org/2000/svg" role="img" viewBox="-5.40 -5.40 410.54 253.29"><title>IBM® Service Management Suite for z/OS (App Framework 2019) logo</title><style>svg {enable-background:new 0 0 400 245}</style><style id="style2" type="text/css">.st3{fill:#4c83c3}</style><g id="g10" fill="#000" fill-opacity="1" stroke="none"><g style="text-align:center" id="text37" text-anchor="middle" writing-mode="lr-tb"><path id="path99" d="M13.11328 177.5332c-2.32031 0-4.2335.57292-5.74219 1.71875-1.50868 1.13629-2.26367 2.59722-2.26367 4.38282 0 1.55642.45421 2.82291 1.36133 3.79687.91667.96441 2.32031 1.64583 4.21094 2.04688.93576.19096 1.8177.34852 2.64843.47265.84028.12414 1.6198.28168 2.33594.47266.94531.24826 1.64714.59809 2.10547 1.04687.46788.44879.70117 1.14453.70117 2.08985 0 1.09808-.4911 1.97786-1.4746 2.63672-.97396.65886-2.34072.98828-4.09766.98828-1.24132 0-2.56728-.24349-3.98047-.73047-1.4132-.48698-2.65929-1.18055-3.73828-2.07813h-.20117v3.55274c1.26996.56336 2.51605.98893 3.73828 1.27539 1.23177.28645 2.61697.42969 4.1543.42969 1.43229 0 2.65386-.17188 3.666-.51563 1.02171-.34375 1.91385-.82249 2.67774-1.43359.69705-.56337 1.2372-1.25087 1.61914-2.0625.3915-.81164.5879-1.63217.5879-2.46289 0-1.52778-.40105-2.71658-1.20313-3.56641-.80208-.84983-1.99696-1.48416-3.58203-1.9043-.78299-.20052-1.73655-.39691-2.86328-.58789-1.12674-.19097-1.99631-.35265-2.60742-.48633-1.15539-.26736-1.9616-.65408-2.41993-1.16015-.45833-.50608-.6875-1.20378-.6875-2.0918 0-.99305.45834-1.80533 1.375-2.43555.92622-.6302 2.14779-.94531 3.66602-.94531 1.38455 0 2.73502.22917 4.05273.6875 1.32726.44879 2.39736 1.01758 3.20899 1.70508h.20117v-3.35156c-.96441-.42014-2.07335-.77409-3.32422-1.06055-1.25087-.28646-2.62587-.42969-4.125-.42969zm319.40234 0c-2.32031 0-4.23546.57292-5.74414 1.71875-1.50868 1.13629-2.26367 2.59722-2.26367 4.38282 0 1.55642.45422 2.82291 1.36133 3.79687.91667.96441 2.32031 1.64583 4.21094 2.04688.93576.19096 1.81966.34852 2.65039.47265.84028.12414 1.61784.28168 2.33398.47266.94531.24826 1.64714.59809 2.10547 1.04687.46789.44879.70117 1.14453.70117 2.08985 0 1.09808-.4911 1.97786-1.47461 2.63672-.97396.65886-2.33875.98828-4.0957.98828-1.24132 0-2.56923-.24349-3.98242-.73047-1.41319-.48698-2.65929-1.18055-3.73828-2.07813h-.20117v3.55274c1.26996.56336 2.51606.98893 3.73828 1.27539 1.23177.28645 2.61697.42969 4.15429.42969 1.43229 0 2.65387-.17188 3.66602-.51563 1.02171-.34375 1.9158-.82249 2.67969-1.43359.69704-.56337 1.23524-1.25087 1.61719-2.0625.39149-.81164.58789-1.63217.58789-2.46289 0-1.52778-.40104-2.71658-1.20313-3.56641-.80208-.84983-1.995-1.48416-3.58008-1.9043-.78298-.20052-1.73849-.39691-2.86523-.58789-1.12674-.19097-1.99631-.35265-2.60742-.48633-1.15538-.26736-1.96159-.65408-2.41993-1.16015-.45833-.50608-.6875-1.20378-.6875-2.0918 0-.99305.45834-1.80533 1.375-2.43555.92622-.6302 2.14779-.94531 3.66602-.94531 1.38455 0 2.73698.22917 4.05469.6875 1.32726.44879 2.3954 1.01758 3.20703 1.70508h.20117v-3.35156c-.96441-.42014-2.0714-.77409-3.32227-1.06055-1.25087-.28646-2.62587-.42969-4.125-.42969zm-259.51757.24414v2.79297h3.0371v-2.79297zm290.58398 0v2.79297h3.03516v-2.79297zm-239.06445.14258v21.32813h2.65039v-18.37696l5.88672 12.50391h1.68945l5.92969-12.50391v18.37696h2.83594v-21.32813h-3.93946l-5.5 11.875-5.68554-11.875zm178.76367.73047v4.59766h-1.81836v2.26367h1.81836v8.50781c0 1.93837.42556 3.34614 1.27539 4.22461.84983.87847 2.0918 1.31836 3.72461 1.31836.46788 0 .99782-.043 1.58984-.12891.60156-.0859 1.15409-.19639 1.66016-.33007v-2.41993h-.14258c-.21006.0859-.55381.1964-1.03125.33008-.47742.12414-.93576.18555-1.375.18555-.75434 0-1.31706-.0859-1.68945-.25781-.36285-.18143-.64931-.46376-.85938-.84571-.22916-.41058-.36414-.84852-.40234-1.3164-.0382-.47744-.0566-1.13629-.0566-1.97657v-7.29101h5.55664v-2.26367h-5.55664v-4.59766zm68.57813 0v4.59766h-1.81836v2.26367h1.81836v8.50781c-.00001 1.93837.42556 3.34614 1.27539 4.22461.84982.87847 2.09179 1.31836 3.72461 1.31836.46788 0 .99783-.043 1.58984-.12891.60156-.0859 1.15408-.19639 1.66016-.33007v-2.41993h-.14258c-.21007.0859-.55382.1964-1.03125.33008-.47744.12414-.93577.18555-1.375.18555-.75434 0-1.31706-.0859-1.68946-.25781-.36285-.18143-.6493-.46376-.85937-.84571-.22916-.41058-.36415-.84852-.40234-1.3164-.0382-.47744-.0566-1.13629-.0566-1.97657v-7.29101h5.55665v-2.26367h-5.55665v-4.59766zm-339.45313 4.1543c-2.32986 0-4.21029.76931-5.64258 2.30664-1.42274 1.53732-2.13476 3.61415-2.13476 6.23047 0 2.64496.74479 4.68706 2.23437 6.1289 1.48959 1.4323 3.56228 2.14844 6.2168 2.14844 1.0408 0 2.0332-.1289 2.97851-.38672.94532-.25781 1.87218-.57704 2.7793-.95898v-2.93555h-.14258c-.46788.42014-1.25564.84983-2.36328 1.28906-1.09809.42969-2.1927.64453-3.28125.64453-.82118 0-1.57422-.11458-2.26172-.34375-.67795-.22916-1.26519-.57291-1.76172-1.03125-.51562-.46788-.92274-1.06532-1.21875-1.79101-.296-.73525-.44336-1.59462-.44336-2.57813h11.78711v-1.46093c0-2.32032-.58724-4.11068-1.76171-5.3711-1.16493-1.26041-2.8264-1.89062-4.98438-1.89062zm70.75586 0c-2.32986 0-4.21029.76931-5.64258 2.30664-1.42274 1.53732-2.13476 3.61415-2.13476 6.23047 0 2.64496.74479 4.68706 2.23437 6.1289 1.48958 1.4323 3.56229 2.14844 6.2168 2.14844 1.0408 0 2.0332-.1289 2.97851-.38672.94532-.25781 1.87218-.57704 2.7793-.95898v-2.93555h-.14453c-.46789.42014-1.25565.84983-2.36328 1.28906-1.0981.42969-2.19076.64453-3.2793.64453-.82118 0-1.57617-.11458-2.26367-.34375-.67795-.22916-1.26519-.57291-1.76172-1.03125-.51563-.46788-.92079-1.06532-1.2168-1.79101-.296-.73525-.44336-1.59462-.44336-2.57813h11.78711v-1.46093c0-2.32032-.58724-4.11068-1.76172-5.3711-1.16492-1.26041-2.82638-1.89062-4.98437-1.89062zm71.59961 0c-.94531 0-1.86611.19639-2.76367.58789-.89757.39149-1.76714.93576-2.60743 1.63281v-1.77734h-2.6914v16h2.6914v-11.94532c.73525-.56336 1.50456-1.02777 2.30665-1.39062.80208-.36285 1.57139-.54297 2.30664-.54297.71614 0 1.29731.10026 1.74609.30078.44879.19098.79254.48568 1.03125.88672.22917.36285.38672.87023.47266 1.51953.0859.63976.1289 1.32726.1289 2.0625v9.10938h2.69336v-10.38477c0-1.95747-.45421-3.45725-1.36133-4.49805-.90712-1.04079-2.22482-1.56054-3.95312-1.56054zm34.11719 0c-.87848 0-1.76042.19032-2.64844.57226-.88803.3724-1.64301.89823-2.26367 1.57617-.6684.7257-1.19835 1.5892-1.58985 2.5918-.38194.99306-.57226 2.17774-.57226 3.55274 0 2.51128.55859 4.45919 1.67578 5.84375 1.12673 1.375 2.64497 2.0625 4.55469 2.0625 1.14583 0 2.08506-.15755 2.82031-.47266.74479-.32465 1.52431-.81163 2.33594-1.46094v1.46094c0 .64931-.0716 1.23655-.21485 1.76172-.14322.52517-.38259.97331-.71679 1.3457-.3342.3915-.80274.69835-1.4043.91797-.60157.21962-1.36068.32813-2.27735.32813-.95486 0-1.90842-.12891-2.86328-.38672-.95486-.24827-1.65255-.45704-2.09179-.62891h-.14258v2.75c.78298.21962 1.57487.38542 2.37695.5.81164.12413 1.64236.1875 2.49219.1875 2.55903 0 4.45377-.63628 5.68555-1.90625 1.23176-1.26997 1.84765-3.26086 1.84765-5.97266v-14.17968h-2.51953l-.17187.6875c-.69705-.38195-1.36198-.66233-1.99219-.84375-.62066-.19098-1.3941-.28711-2.32031-.28711zm18.94921 0c-2.32985 0-4.21028.76931-5.64257 2.30664-1.42275 1.53732-2.13477 3.61415-2.13477 6.23047 0 2.64496.74479 4.68706 2.23438 6.1289 1.48958 1.4323 3.56228 2.14844 6.21679 2.14844 1.0408 0 2.03321-.1289 2.97852-.38672.94531-.25781 1.87218-.57704 2.7793-.95898v-2.93555h-.14258c-.46788.42014-1.25564.84983-2.36328 1.28906-1.0981.42969-2.19271.64453-3.28125.64453-.82118 0-1.57422-.11458-2.26172-.34375-.67796-.22916-1.26519-.57291-1.76172-1.03125-.51563-.46788-.92274-1.06532-1.21875-1.79101-.29601-.73525-.44336-1.59462-.44336-2.57813h11.78711v-1.46093c0-2.32032-.58724-4.11068-1.76172-5.3711-1.16493-1.26041-2.82639-1.89062-4.98438-1.89062zm18.70704 0c-.94532 0-1.83942.19639-2.67969.58789-.83073.39149-1.66559.93576-2.50586 1.63281v-1.77734h-2.69336v16h2.69336v-11.94532c.73524-.56336 1.46983-1.02777 2.20508-1.39062.74478-.36285 1.48545-.54297 2.2207-.54297.77343 0 1.3648.10439 1.77539.31445.41059.20052.7257.50543.94531.91602.20055.38195.32946.89345.38672 1.5332.0668.63021.10157 1.29926.10157 2.00586v9.10938h2.6914v-10.24219c0-.28646-.008-.57292-.0273-.85938-.0191-.296-.0436-.55382-.0723-.77343.75434-.58247 1.50933-1.05925 2.26367-1.43164.75434-.38195 1.50738-.57227 2.26172-.57227.77344 0 1.36676.10439 1.77735.31445.41059.21008.72569.52106.94531.93164.20054.38195.32945.8915.38672 1.53125.0668.63976.0996 1.30469.0996 1.99219v9.10938h2.69336v-10.38477c0-1.90972-.42145-3.39518-1.26172-4.45508-.83074-1.06944-2.12392-1.60351-3.88086-1.60351-1.02171 0-1.98134.20465-2.87891.61523-.89756.40104-1.88997 1.0599-2.97851 1.97656-.3724-.81162-.9412-1.44596-1.70508-1.90429-.75434-.45834-1.67513-.6875-2.76367-.6875zm27.29882 0c-2.32986 0-4.21028.76931-5.64257 2.30664-1.42275 1.53732-2.13477 3.61415-2.13477 6.23047 0 2.64496.74479 4.68706 2.23438 6.1289 1.48958 1.4323 3.56228 2.14844 6.21679 2.14844 1.0408 0 2.0332-.1289 2.97852-.38672.94531-.25781 1.87217-.57704 2.77929-.95898v-2.93555h-.14453c-.46788.42014-1.25564.84983-2.36328 1.28906-1.09809.42969-2.19075.64453-3.27929.64453-.82118 0-1.57618-.11458-2.26368-.34375-.67795-.22916-1.26519-.57291-1.76172-1.03125-.51562-.46788-.92079-1.06532-1.21679-1.79101-.29601-.73525-.44336-1.59462-.44336-2.57813h11.78711v-1.46093c0-2.32032-.58724-4.11068-1.76172-5.3711-1.16493-1.26041-2.82639-1.89062-4.98438-1.89062zm18.89258 0c-.9453 0-1.86805.19639-2.76562.58789-.89757.39149-1.76519.93576-2.60547 1.63281v-1.77734h-2.69336v16h2.69336v-11.94532c.73524-.56336 1.5026-1.02777 2.30469-1.39062.80208-.36285 1.57139-.54297 2.30664-.54297.71614 0 1.29926.10026 1.74804.30078.44878.19098.79253.48568 1.03125.88672.22917.36285.38673.87023.47266 1.51953.0859.63976.12891 1.32726.12891 2.0625v9.10938h2.6914v-10.38477c0-1.95747-.45225-3.45725-1.35937-4.49805-.90712-1.04079-2.22483-1.56054-3.95313-1.56054zm97.29492 0c-2.32986 0-4.21028.76931-5.64257 2.30664-1.42275 1.53732-2.13477 3.61415-2.13477 6.23047 0 2.64496.74479 4.68706 2.23438 6.1289 1.48958 1.4323 3.56228 2.14844 6.21679 2.14844 1.0408 0 2.0332-.1289 2.97852-.38672.94531-.25781 1.87218-.57704 2.77929-.95898v-2.93555h-.14453c-.46788.42014-1.25564.84983-2.36328 1.28906-1.09809.42969-2.19075.64453-3.27929.64453-.82118 0-1.57618-.11458-2.26368-.34375-.67795-.22916-1.26519-.57291-1.76172-1.03125-.51562-.46788-.92079-1.06532-1.21679-1.79101-.29601-.73525-.44336-1.59462-.44336-2.57813h11.78711v-1.46093c0-2.32032-.58724-4.11068-1.76172-5.3711-1.16493-1.26041-2.82639-1.89062-4.98438-1.89062zm-235.49804.0566c-.96441 0-1.94249.0859-2.93555.25781-.99305.17187-1.75217.32942-2.27734.47266v2.73632h.14257c.92622-.35329 1.82444-.6213 2.69336-.80273.86892-.19097 1.65669-.28516 2.36329-.28516.58246 0 1.14106.0369 1.67578.11329.53472.0764.99305.22569 1.375.44531.40104.22916.70594.54427.91601.94531.21962.40104.33008.90647.33008 1.51758v.41601c-1.56597.0764-3.03104.19098-4.39648.34375-1.36546.15278-2.53581.44336-3.50977.87305-.96441.42969-1.7092 1.02105-2.23437 1.77539-.51563.7448-.77344 1.72483-.77344 2.9375 0 1.48004.5013 2.69749 1.5039 3.65235 1.0026.95486 2.22418 1.43164 3.66602 1.43164.78299 0 1.46636-.0757 2.04883-.22852.58246-.14323 1.09809-.3253 1.54687-.54492.38194-.17187.77279-.40104 1.17383-.6875.41059-.29601.7359-.52517.97461-.6875v1.70508h2.67774v-10.85743c0-1.03124-.15755-1.89475-.47266-2.59179-.3151-.69706-.77343-1.26585-1.375-1.70508-.61111-.44879-1.3355-.76389-2.17578-.94531-.83073-.19098-1.81076-.28711-2.9375-.28711zm36.20898 0c-.9644 0-1.94249.0859-2.93554.25781-.99306.17187-1.75218.32942-2.27735.47266v2.73632h.14258c.92622-.35329 1.82444-.6213 2.69336-.80273.86893-.19097 1.65669-.28516 2.36328-.28516.58247 0 1.14106.0369 1.67578.11329.53473.0764.99306.22569 1.375.44531.40105.22916.70595.54427.91602.94531.21962.40104.33007.90647.33007 1.51758v.41601c-1.56597.0764-3.03298.19098-4.39843.34375-1.36546.15278-2.53386.44336-3.50781.87305-.96442.42969-1.70921 1.02105-2.23438 1.77539-.51563.7448-.77344 1.72483-.77344 2.9375 0 1.48004.5013 2.69749 1.50391 3.65235 1.00261.95486 2.22417 1.43164 3.66601 1.43164.78299 0 1.46637-.0757 2.04883-.22852.58247-.14323 1.09809-.3253 1.54688-.54492.38194-.17187.77279-.40104 1.17383-.6875.41058-.29601.73588-.52517.9746-.6875v1.70508h2.67774v-10.85743c0-1.03124-.15756-1.89475-.47266-2.59179-.3151-.69706-.77344-1.26585-1.375-1.70508-.61111-.44879-1.33745-.76389-2.17773-.94531-.83073-.19098-1.80881-.28711-2.93555-.28711zm-102.81055.0156c-2.3585 0-4.25737.74479-5.69921 2.23438-1.4323 1.48958-2.14844 3.54188-2.14844 6.1582 0 1.40365.19032 2.6313.57226 3.68164.38195 1.05035.9221 1.91797 1.61914 2.60547.6875.6875 1.51216 1.20312 2.47657 1.54688.9644.3342 2.0243.50195 3.17968.50195.90712 0 1.76237-.11871 2.56446-.35742.81163-.23872 1.66688-.57422 2.56445-1.00391v-2.96478h-.14453c-.20052.16232-.47266.35872-.8164.58789-.34376.21961-.71007.43033-1.10157.63086-.44878.22916-.95616.41536-1.51953.55859-.56337.14323-1.11589.21484-1.66016.21484-1.56597 0-2.78342-.51562-3.65234-1.54687-.85938-1.0408-1.28906-2.52626-1.28906-4.45508 0-1.98611.43793-3.49002 1.3164-4.51172.88803-1.03124 2.09723-1.54687 3.625-1.54687.83073 0 1.6799.17188 2.54883.51562.87847.34376 1.72765.83486 2.54883 1.47461h.14453v-2.99219c-.73524-.37239-1.54753-.68749-2.43555-.94531-.87847-.25781-1.77669-.38672-2.69335-.38672zm-44.6875.3711v16h2.69336v-11.35938c.71615-.58246 1.46094-1.05512 2.23438-1.41797.77344-.37239 1.57552-.55859 2.40625-.55859.51562 0 .95963.0245 1.33203.0723.38194.0382.77279.10568 1.17383.20117h.14453v-2.76563c-.42014-.0669-.73524-.10984-.94531-.1289-.21007-.0287-.5497-.043-1.01758-.043-.84983 0-1.68468.18207-2.50586.54492-.81163.3533-1.75282.95898-2.82227 1.81836v-2.36328zm10.77149 0l6.43164 16h2.70703l6.47266-16h-2.82032l-4.91406 12.73437-4.95508-12.73437zm19.16406 0v16h2.69336v-16zm271.87696 0v10.38476c0 1.98612.46853 3.49415 1.40429 4.52539.93577 1.02171 2.24328 1.53321 3.92383 1.53321 1.00261 0 1.91927-.19032 2.75-.57227.83073-.38195 1.70031-.93229 2.60742-1.64844v1.77735h2.69336v-16h-2.69336v11.94531c-.71614.56337-1.48958 1.02778-2.32031 1.39062-.82118.36285-1.5803.54297-2.27734.54297-.78299 0-1.38043-.0942-1.79102-.28515-.41059-.19098-.74414-.49783-1.00195-.91797-.24827-.4106-.40994-.9017-.48633-1.47461-.0764-.58247-.11524-1.28016-.11524-2.0918v-9.10937zm18.70703 0v16h2.6914v-16zm-331.49024 1.77734c1.4323 0 2.49631.38672 3.19336 1.16016.7066.77343 1.06467 1.8661 1.07422 3.27929h-9.16602c.11459-1.26041.59744-2.31619 1.44727-3.16601.85937-.84983 2.00933-1.27344 3.45117-1.27344zm70.75586 0c1.43229 0 2.49631.38672 3.19336 1.16016.70661.77343 1.06469 1.8661 1.07422 3.27929h-9.16602c.11459-1.26041.59549-2.31619 1.44532-3.16601.85937-.84983 2.01128-1.27344 3.45312-1.27344zm124.66602 0c1.43229 0 2.49631.38672 3.19336 1.16016.70661.77343 1.06468 1.8661 1.07421 3.27929h-9.16601c.11459-1.26041.59744-2.31619 1.44727-3.16601.85937-.84983 2.00933-1.27344 3.45117-1.27344zm46.00586 0c1.43229 0 2.49631.38672 3.19336 1.16016.70661.77343 1.06468 1.8661 1.07421 3.27929h-9.16601c.11459-1.26041.59548-2.31619 1.44531-3.16601.85937-.84983 2.01129-1.27344 3.45313-1.27344zm116.1875 0c1.43229 0 2.49631.38672 3.19336 1.16016.70661.77343 1.06468 1.8661 1.07421 3.27929h-9.16601c.11459-1.26041.59548-2.31619 1.44531-3.16601.85937-.84983 2.01129-1.27344 3.45313-1.27344zm-180.52735.19922c.61112 0 1.22288.0716 1.83399.21484.62066.13368 1.28971.36285 2.00586.6875v8.72266c-.65886.50607-1.3852.91319-2.17774 1.21875-.78298.29601-1.56662.44336-2.34961.44336-1.46094 0-2.50651-.46246-3.13672-1.38867-.6302-.92622-.94531-2.28689-.94531-4.08203 0-1.89062.42557-3.33312 1.27539-4.32618.84983-.99305 2.01411-1.49023 3.49414-1.49023zm-50.54492 5.62891v4.45507c-.6684.51563-1.39475.95964-2.17773 1.33203-.78299.36286-1.64649.54493-2.5918.54493-1.13629 0-1.98134-.22917-2.53516-.6875-.55382-.46789-.83007-1.16146-.83007-2.07813 0-.81163.23741-1.44596.71484-1.9043.47743-.46787 1.10352-.81163 1.87695-1.03124.64931-.18143 1.52713-.32053 2.63477-.41602 1.11718-.0955 2.08702-.16711 2.9082-.21484zm36.20898 0v4.45507c-.6684.51563-1.39474.95964-2.17773 1.33203-.78299.36286-1.64649.54493-2.5918.54493-1.13628 0-1.98133-.22917-2.53515-.6875-.55382-.46789-.83203-1.16146-.83203-2.07813 0-.81163.23936-1.44596.71679-1.9043.47743-.46787 1.10352-.81163 1.87696-1.03124.6493-.18143 1.52713-.32053 2.63476-.41602 1.1172-.0955 2.08702-.16711 2.9082-.21484zm-47.52343 22.63086c-1.78559-.00001-3.15235.5115-4.09766 1.5332-.94531 1.01215-1.41797 2.46701-1.41797 4.36719v.53125h-1.81836v2.26171h1.81836V235.914h2.69336v-13.73633h4.76953v-2.26171h-4.85547v-.54493c0-1.3368.25782-2.25759.77344-2.76367.52518-.51562 1.36611-.77344 2.52149-.77344.36284 0 .78233.0471 1.25976.14258.47743.0859.86415.17188 1.16016.25782h.14258v-2.46485c-.40104-.0764-.84506-.14195-1.33203-.19922-.47743-.0573-1.01563-.0859-1.61719-.0859zm67.89062.14257l-10.22656 26.64063h2.47656l10.26953-26.64063zm15.09571.51563c-1.47049 0-2.83117.24957-4.08204.74609-1.24132.49653-2.28276 1.21267-3.12304 2.14844-.87847.98351-1.54558 2.16623-2.00391 3.55078-.45833 1.375-.6875 2.93208-.6875 4.66992 0 1.7665.22917 3.33789.6875 4.71289.46788 1.375 1.13086 2.53516 1.99024 3.48047.85937.94532 1.90082 1.66558 3.12304 2.16211 1.23177.49653 2.59657.74414 4.09571.74414 1.53732 0 2.90212-.24349 4.0957-.73047 1.20312-.48697 2.24457-1.21136 3.12305-2.17578.84982-.92621 1.50868-2.08225 1.97656-3.46679.47743-1.39411.71679-2.96962.71679-4.72657.00001-1.75694-.23524-3.32833-.70312-4.71289-.45833-1.38454-1.12131-2.55295-1.99023-3.50781-.84983-.92621-1.88521-1.63823-3.10743-2.13477-1.21267-.50607-2.58354-.75976-4.11132-.75976zm21.5996.0586c-2.3203 0-4.23545.57292-5.74414 1.71875-1.50868 1.13629-2.26367 2.59723-2.26367 4.38281 0 1.55643.45421 2.82097 1.36133 3.79493.91667.9644 2.32031 1.64778 4.21094 2.04882.93576.19098 1.81966.34853 2.65039.47266.84028.12413 1.61784.28168 2.33398.47266.94532.24826 1.64714.59613 2.10547 1.04492.46789.44879.70117 1.14649.70117 2.0918 0 1.09809-.4911 1.97591-1.47461 2.63476-.97396.65885-2.33875.98828-4.0957.98828-1.24132 0-2.56923-.24349-3.98242-.73047-1.41319-.48697-2.65929-1.17859-3.73828-2.07617h-.20117v3.55078c1.26996.56338 2.51606.98894 3.73828 1.27539 1.23177.28646 2.61697.42969 4.15429.42969 1.43229 0 2.65387-.17188 3.66602-.51562 1.0217-.34376 1.91579-.82054 2.67969-1.43164.69704-.56338 1.23524-1.25088 1.61719-2.0625.39149-.81164.58789-1.63411.58789-2.46485 0-1.52777-.40104-2.71658-1.20313-3.5664-.80208-.84983-1.995-1.48416-3.58008-1.9043-.78298-.20052-1.7385-.39692-2.86523-.58789-1.12674-.19098-1.99632-.35265-2.60742-.48633-1.15539-.26736-1.96159-.65408-2.41993-1.16016-.45833-.50607-.6875-1.20377-.6875-2.09179 0-.99306.45834-1.80339 1.375-2.4336.92622-.6302 2.14779-.94531 3.66602-.94531 1.38455 0 2.73697.22917 4.05469.6875 1.32725.44879 2.3954 1.01563 3.20703 1.70313h.20117v-3.35157c-.96441-.42013-2.07139-.77213-3.32227-1.05859-1.25086-.28646-2.62586-.42969-4.125-.42969zm-21.58593 2.39063c2.14844 0 3.84461.75499 5.08593 2.26367 1.24132 1.49913 1.86133 3.63325 1.86133 6.40234 0 2.79775-.6302 4.94206-1.89062 6.43164-1.25087 1.48004-2.93685 2.21875-5.05664 2.21875-2.11979 0-3.8099-.73871-5.07031-2.21875-1.26042-1.48958-1.89063-3.63389-1.89063-6.43164 0-2.76909.61589-4.90321 1.84766-6.40234 1.24132-1.50868 2.94574-2.26367 5.11328-2.26367zm-72.08594 2.8789c-2.26302 0-4.06358.75911-5.40039 2.27735-1.32725 1.50868-1.99024 3.56705-1.99024 6.17383 0 2.60676.66299 4.66514 1.99024 6.17382 1.33681 1.50868 3.13737 2.26172 5.40039 2.26172 2.24393 0 4.03429-.75304 5.37109-2.26172 1.33681-1.50868 2.00391-3.56706 2.00391-6.17382 0-2.60678-.6671-4.66515-2.00391-6.17383-1.3368-1.51824-3.12716-2.27735-5.37109-2.27735zm11.55859.44532v15.99804h2.69141v-11.35742c.71615-.58247 1.46094-1.05512 2.23437-1.41797.77344-.37239 1.57553-.55859 2.40626-.55859.51562 0 .95963.0226 1.33203.0703.38194.0382.77474.10569 1.17578.20117h.14258v-2.76367c-.42014-.0669-.73525-.10984-.94532-.12891-.21006-.0287-.54969-.043-1.01757-.043-.84983 0-1.68468.18011-2.50586.54296-.81164.3533-1.75283.96094-2.82227 1.82032v-2.36328zm21.74219 0v2.24804h9.12305l-9.32422 11.75977v1.99023h12.91992v-2.27734h-9.61133l9.36719-11.80274v-1.91796zm-33.30078 1.875c1.44185 0 2.56728.50737 3.37891 1.51953.81163 1.0026 1.21875 2.53927 1.21875 4.61133 0 2.0243-.41125 3.55273-1.23243 4.58398-.81163 1.0217-1.93294 1.53125-3.36523 1.53125-1.45139 0-2.5829-.51563-3.39453-1.54688-.81163-1.0408-1.21875-2.56315-1.21875-4.56835 0-2.07206.40104-3.60873 1.20312-4.61133.81164-1.01216 1.94923-1.51953 3.41016-1.51953z"/></g></g><g id="g56"><path id="path12" fill="#4c83c3" d="M397.3 14h-65.7l4.1-11.3h61.6zM222.1 2.7h61l4 11.4h-65c.1-.1 0-11.4 0-11.4zm-48.3 0c10 1 18.8 4.6 26.3 11.4H89.5V2.7z" class="st3"/><path id="path14" fill="#4c83c3" d="M2.7 2.7h76.8V14H2.7z" class="st3"/><path id="path16" fill="#4c83c3" d="M397.3 35.3h-73.2l4-11.3h69.3v11.3zm-102.5 0h-72.6V24h68.6zM208.6 24c1.5 3.8 3.2 6.9 3.2 11.3H89.5V24z" class="st3"/><path id="path18" fill="#4c83c3" d="M2.7 24h76.8v11.3H2.7z" class="st3"/><path id="path20" fill="#4c83c3" d="M316.6 56.6l4.1-11.3h55v11.3zm-18.4-11.3l4.1 11.3h-58.5V45.3zm-85.5-.1c0 3.9-.5 7.9-1.6 11.3h-33.5V45.2z" class="st3"/><path id="path22" fill="#4c83c3" d="M24.1 45.3h33v11.3h-33z" class="st3"/><path id="path24" fill="#4c83c3" d="M111.7 45.2h33v11.3h-33z" class="st3"/><path id="path26" fill="#4c83c3" d="M276.2 68.8v8.6h-32.5V66.2h61.8l3.9 10.5 3.7-10.5h62.3v11.3h-32.3v-8.6l-3 8.6h-61zm-164.5-2.6h94.6c-2.1 3.8-5.8 8.3-9.4 11.3h-85.2z" class="st3"/><path id="path28" fill="#4c83c3" d="M24.1 66.2h33v11.3h-33z" class="st3"/><path id="path30" fill="#4c83c3" d="M343.3 87.5h32.3v11.3h-32.3z" class="st3"/><path id="path32" fill="#4c83c3" d="M276.2 87.5h-32.5v11.3h32.5c0-.2.1-11.3 0-11.3zm60.6 0c-.1 0-3.8 11.3-4 11.3h-46l-4.1-11.3zm-225.1 0h85c3.9 3.3 7.4 7.2 10.1 11.3h-95.2c.1-.2.1-11.3.1-11.3zM57.1 98.6V87.4H24.2v11.3h32.9z" class="st3"/><path id="path34" fill="#4c83c3" d="M343.3 108.7h32.3V120h-32.3z" class="st3"/><path id="path36" fill="#4c83c3" d="M243.8 108.7h32.5V120h-32.5z" class="st3"/><path id="path38" fill="#4c83c3" d="M325.3 119.9c0-.1 4-11.3 4.1-11.3h-39.1c-.1 0 4 11.3 4 11.3s31 .1 31 0zm-213.6 0v-11.3h33.5v11.3zm99.8-11.2c1.6 3.4 1.8 7.4 2.1 11.3h-35.5v-11.3z" class="st3"/><path id="path40" fill="#4c83c3" d="M24.2 108.7h33V120h-33z" class="st3"/><path id="path42" fill="#4c83c3" d="M343.3 129.5h54v11.3h-54z" class="st3"/><path id="path44" fill="#4c83c3" d="M222.1 129.5h54.1v11.3h-54.1z" class="st3"/><path id="path46" fill="#4c83c3" d="M317.9 140.8h-16.4l-4-11.3h24.3zM2.7 129.5v11.3h76.8v-11.3zm209.5 0c-.8 3.8-1.6 8.2-4.3 11.3H89.5v-11.3zm98.3 32.6H309l-3.9-11.3h9.3z" class="st3"/><path id="path48" fill="#4c83c3" d="M343.3 150.8h54v11.3h-54z" class="st3"/><path id="path50" fill="#4c83c3" d="M89.5 162.1v-11.3h111.2c-7.4 7.1-17.6 11.1-28.6 11.3H89.5" class="st3"/><path id="path52" fill="#4c83c3" d="M222.1 150.8h54.1v11.3h-54.1z" class="st3"/><path id="path54" fill="#4c83c3" d="M79.5 150.8v11.3H2.7v-11.3s76.7.1 76.8 0z" class="st3"/></g></svg>