<svg xmlns="http://www.w3.org/2000/svg" role="img" viewBox="-5.40 -5.40 410.54 252.29"><title>IBM® Service Automation Suite logo</title><style>svg {enable-background:new 0 0 400 245}</style><style id="style2" type="text/css">.st3{fill:#4c83c3}</style><g id="g56"><path id="path12" fill="#4c83c3" d="M397.3 14h-65.7l4.1-11.3h61.6zM222.1 2.7h61l4 11.4h-65c.1-.1 0-11.4 0-11.4zm-48.3 0c10 1 18.8 4.6 26.3 11.4H89.5V2.7z" class="st3"/><path id="path14" fill="#4c83c3" d="M2.7 2.7h76.8V14H2.7z" class="st3"/><path id="path16" fill="#4c83c3" d="M397.3 35.3h-73.2l4-11.3h69.3v11.3zm-102.5 0h-72.6V24h68.6zM208.6 24c1.5 3.8 3.2 6.9 3.2 11.3H89.5V24z" class="st3"/><path id="path18" fill="#4c83c3" d="M2.7 24h76.8v11.3H2.7z" class="st3"/><path id="path20" fill="#4c83c3" d="M316.6 56.6l4.1-11.3h55v11.3zm-18.4-11.3l4.1 11.3h-58.5V45.3zm-85.5-.1c0 3.9-.5 7.9-1.6 11.3h-33.5V45.2z" class="st3"/><path id="path22" fill="#4c83c3" d="M24.1 45.3h33v11.3h-33z" class="st3"/><path id="path24" fill="#4c83c3" d="M111.7 45.2h33v11.3h-33z" class="st3"/><path id="path26" fill="#4c83c3" d="M276.2 68.8v8.6h-32.5V66.2h61.8l3.9 10.5 3.7-10.5h62.3v11.3h-32.3v-8.6l-3 8.6h-61zm-164.5-2.6h94.6c-2.1 3.8-5.8 8.3-9.4 11.3h-85.2z" class="st3"/><path id="path28" fill="#4c83c3" d="M24.1 66.2h33v11.3h-33z" class="st3"/><path id="path30" fill="#4c83c3" d="M343.3 87.5h32.3v11.3h-32.3z" class="st3"/><path id="path32" fill="#4c83c3" d="M276.2 87.5h-32.5v11.3h32.5c0-.2.1-11.3 0-11.3zm60.6 0c-.1 0-3.8 11.3-4 11.3h-46l-4.1-11.3zm-225.1 0h85c3.9 3.3 7.4 7.2 10.1 11.3h-95.2c.1-.2.1-11.3.1-11.3zM57.1 98.6V87.4H24.2v11.3h32.9z" class="st3"/><path id="path34" fill="#4c83c3" d="M343.3 108.7h32.3V120h-32.3z" class="st3"/><path id="path36" fill="#4c83c3" d="M243.8 108.7h32.5V120h-32.5z" class="st3"/><path id="path38" fill="#4c83c3" d="M325.3 119.9c0-.1 4-11.3 4.1-11.3h-39.1c-.1 0 4 11.3 4 11.3s31 .1 31 0zm-213.6 0v-11.3h33.5v11.3zm99.8-11.2c1.6 3.4 1.8 7.4 2.1 11.3h-35.5v-11.3z" class="st3"/><path id="path40" fill="#4c83c3" d="M24.2 108.7h33V120h-33z" class="st3"/><path id="path42" fill="#4c83c3" d="M343.3 129.5h54v11.3h-54z" class="st3"/><path id="path44" fill="#4c83c3" d="M222.1 129.5h54.1v11.3h-54.1z" class="st3"/><path id="path46" fill="#4c83c3" d="M317.9 140.8h-16.4l-4-11.3h24.3zM2.7 129.5v11.3h76.8v-11.3zm209.5 0c-.8 3.8-1.6 8.2-4.3 11.3H89.5v-11.3zm98.3 32.6H309l-3.9-11.3h9.3z" class="st3"/><path id="path48" fill="#4c83c3" d="M343.3 150.8h54v11.3h-54z" class="st3"/><path id="path50" fill="#4c83c3" d="M89.5 162.1v-11.3h111.2c-7.4 7.1-17.6 11.1-28.6 11.3H89.5" class="st3"/><path id="path52" fill="#4c83c3" d="M222.1 150.8h54.1v11.3h-54.1z" class="st3"/><path id="path54" fill="#4c83c3" d="M79.5 150.8v11.3H2.7v-11.3s76.7.1 76.8 0z" class="st3"/></g><g style="text-align:center" id="text100" fill="#000" fill-opacity="1" stroke="none" text-anchor="middle" writing-mode="lr-tb"><path id="path158" d="M79.123 180.275c-3.418 0-6.34 1.212-8.766 3.637-2.415 2.416-3.623 5.334-3.623 8.752 0 3.418 1.208 6.34 3.623 8.766 2.426 2.415 5.348 3.623 8.766 3.623s6.336-1.208 8.752-3.623c2.425-2.426 3.637-5.348 3.637-8.766s-1.212-6.336-3.637-8.752c-2.416-2.425-5.334-3.637-8.752-3.637zm35.033.057c-2.32 0-4.233.573-5.742 1.719-1.509 1.136-2.264 2.597-2.264 4.383 0 1.556.455 2.82 1.362 3.794.916.965 2.32 1.648 4.21 2.05.936.19 1.818.348 2.65.472.84.124 1.619.282 2.335.473.945.248 1.647.596 2.105 1.045.468.448.702 1.146.702 2.091 0 1.098-.491 1.976-1.475 2.635-.974.659-2.34.988-4.098.988-1.24 0-2.567-.243-3.98-.73-1.413-.487-2.66-1.179-3.738-2.076h-.202v3.552c1.27.564 2.517.987 3.739 1.274 1.232.286 2.617.43 4.154.43 1.432 0 2.654-.172 3.666-.516 1.022-.344 1.914-.82 2.678-1.432a5.788 5.788 0 0 0 1.619-2.062c.391-.812.588-1.632.588-2.463 0-1.528-.401-2.717-1.203-3.566-.802-.85-1.997-1.487-3.582-1.907a36.37 36.37 0 0 0-2.864-.586 59.482 59.482 0 0 1-2.607-.488c-1.155-.267-1.962-.654-2.42-1.16-.458-.506-.687-1.202-.687-2.09 0-.993.458-1.805 1.375-2.435.926-.63 2.147-.946 3.666-.946 1.384 0 2.735.23 4.052.688 1.328.448 2.398 1.017 3.21 1.705h.2v-3.352c-.964-.42-2.073-.774-3.324-1.06-1.25-.287-2.626-.43-4.125-.43zm59.885.244v2.793h3.037v-2.793zm176.916 0v2.793h3.037v-2.793zm-341.773.143v2.177h2.793v16.973H9.184v2.176h8.421v-2.176h-2.793v-16.973h2.793v-2.177zm13.277 0v21.326h7.562c1.48 0 2.698-.133 3.653-.4a7.493 7.493 0 0 0 2.65-1.346 5.675 5.675 0 0 0 1.62-2.006c.4-.812.6-1.747.6-2.807 0-1.48-.414-2.703-1.245-3.668-.83-.974-1.969-1.608-3.41-1.904v-.115c.859-.43 1.546-.997 2.062-1.703.516-.716.774-1.582.774-2.594 0-.898-.176-1.665-.53-2.305-.353-.649-.922-1.179-1.705-1.59a7.106 7.106 0 0 0-2.219-.716c-.773-.115-1.94-.172-3.496-.172zm20.11 0v21.326h2.65V183.67l5.886 12.504h1.69l5.93-12.504v18.375h2.836v-21.326h-3.938l-5.5 11.873-5.688-11.873zm188.261 0l-7.764 21.326h2.88l2.091-5.943h9.223l2.092 5.943h3.021l-7.762-21.326zm33.186.73v4.598h-1.819v2.264h1.819v8.507c0 1.939.425 3.346 1.275 4.225.85.878 2.09 1.318 3.723 1.318.468 0 .997-.043 1.59-.129a14.614 14.614 0 0 0 1.662-.33v-2.42h-.143c-.21.086-.554.195-1.031.329a5.465 5.465 0 0 1-1.375.187c-.755 0-1.32-.086-1.692-.258a1.984 1.984 0 0 1-.859-.845 3.195 3.195 0 0 1-.4-1.319 26.338 26.338 0 0 1-.057-1.976v-7.29h5.557v-2.263h-5.557v-4.598zm75.568 0v4.598h-1.82v2.264h1.82v8.507c0 1.939.424 3.346 1.273 4.225.85.878 2.092 1.318 3.725 1.318.468 0 .998-.043 1.59-.129a14.614 14.614 0 0 0 1.662-.33v-2.42h-.145c-.21.086-.553.195-1.03.329a5.465 5.465 0 0 1-1.376.187c-.754 0-1.317-.086-1.69-.258a1.984 1.984 0 0 1-.859-.845 3.21 3.21 0 0 1-.4-1.319 26.143 26.143 0 0 1-.059-1.976v-7.29h5.559v-2.263h-5.559v-4.598zm-260.463.416c2.96 0 5.485 1.06 7.576 3.18 2.1 2.12 3.153 4.659 3.153 7.62 0 2.96-1.052 5.498-3.153 7.618-2.09 2.12-4.616 3.18-7.576 3.18s-5.491-1.06-7.592-3.18c-2.09-2.12-3.136-4.659-3.136-7.619s1.045-5.5 3.136-7.62c2.1-2.119 4.632-3.179 7.592-3.179zm-53.826 1.274h3.38c.946 0 1.738.034 2.378.101.64.058 1.184.215 1.632.473.382.22.66.506.833.86.171.353.257.786.257 1.302 0 .62-.096 1.16-.287 1.62-.181.448-.496.814-.945 1.1a4.032 4.032 0 0 1-1.461.575c-.525.086-1.231.129-2.12.129h-3.667zm207.353.058l3.739 10.469h-7.49zm-99.2 2.407c-2.33 0-4.211.767-5.643 2.304-1.423 1.538-2.135 3.614-2.135 6.23 0 2.646.745 4.69 2.234 6.132 1.49 1.432 3.563 2.148 6.217 2.148 1.04 0 2.033-.129 2.979-.387a22.223 22.223 0 0 0 2.779-.959v-2.937h-.143c-.468.42-1.255.85-2.363 1.289-1.098.43-2.193.644-3.281.644a7.112 7.112 0 0 1-2.262-.343 4.853 4.853 0 0 1-1.762-1.032c-.515-.468-.922-1.063-1.218-1.789-.296-.735-.444-1.594-.444-2.578h11.787v-1.46c0-2.321-.587-4.111-1.761-5.372-1.165-1.26-2.827-1.89-4.985-1.89zm70.755 0c-2.33 0-4.21.767-5.643 2.304-1.422 1.538-2.134 3.614-2.134 6.23 0 2.646.745 4.69 2.234 6.132 1.49 1.432 3.562 2.148 6.217 2.148 1.04 0 2.033-.129 2.978-.387a22.223 22.223 0 0 0 2.78-.959v-2.937h-.145c-.468.42-1.255.85-2.363 1.289-1.098.43-2.19.644-3.28.644a7.124 7.124 0 0 1-2.263-.343 4.853 4.853 0 0 1-1.762-1.032c-.515-.468-.92-1.063-1.217-1.789-.296-.735-.443-1.594-.443-2.578h11.787v-1.46c0-2.321-.587-4.111-1.762-5.372-1.164-1.26-2.826-1.89-4.984-1.89zm77.588 0c-2.263 0-4.064.759-5.4 2.277-1.328 1.509-1.99 3.565-1.99 6.172 0 2.607.662 4.665 1.99 6.174 1.336 1.508 3.137 2.263 5.4 2.263 2.244 0 4.034-.755 5.371-2.263 1.337-1.51 2.004-3.567 2.004-6.174s-.667-4.663-2.004-6.172c-1.337-1.518-3.127-2.277-5.371-2.277zm19.436 0a6.27 6.27 0 0 0-2.68.585c-.83.392-1.666.936-2.506 1.633v-1.775h-2.693v15.998h2.693V190.1a13.36 13.36 0 0 1 2.205-1.39c.745-.362 1.486-.544 2.22-.544.774 0 1.366.106 1.776.316.41.2.726.506.945.916.201.382.33.894.387 1.534.067.63.102 1.297.102 2.004v9.109h2.691v-10.24a12.778 12.778 0 0 0-.1-1.633c.755-.583 1.51-1.06 2.264-1.432.755-.382 1.51-.574 2.264-.574.773 0 1.365.106 1.775.316.41.21.726.52.946.93.2.382.329.894.386 1.533.067.64.1 1.303.1 1.99v9.11h2.693v-10.383c0-1.91-.421-3.395-1.261-4.455-.831-1.07-2.124-1.603-3.881-1.603a6.838 6.838 0 0 0-2.88.615c-.897.4-1.89 1.06-2.978 1.976a4.229 4.229 0 0 0-1.705-1.904c-.754-.458-1.675-.687-2.763-.687zm64.208 0c-2.263 0-4.061.759-5.398 2.277-1.327 1.509-1.992 3.565-1.992 6.172 0 2.607.665 4.665 1.992 6.174 1.337 1.508 3.135 2.263 5.398 2.263 2.244 0 4.035-.755 5.372-2.263 1.336-1.51 2.005-3.567 2.005-6.174s-.669-4.663-2.005-6.172c-1.337-1.518-3.128-2.277-5.372-2.277zm19.624 0c-.946 0-1.867.194-2.764.585-.898.392-1.767.936-2.608 1.633v-1.775h-2.693v15.998h2.693V190.1a11.751 11.751 0 0 1 2.307-1.39c.802-.362 1.57-.544 2.305-.544.716 0 1.299.1 1.748.3a2.14 2.14 0 0 1 1.031.89c.23.362.387.868.473 1.517.086.64.129 1.327.129 2.063v9.109h2.693v-10.383c0-1.957-.454-3.457-1.361-4.498-.907-1.04-2.225-1.56-3.953-1.56zm-57.707.056c-.965 0-1.943.086-2.936.258-.993.172-1.752.33-2.277.473v2.736h.142a17.764 17.764 0 0 1 2.694-.803c.868-.19 1.656-.287 2.363-.287.582 0 1.14.039 1.676.115.534.077.993.224 1.375.444.4.229.706.544.916.945.22.401.33.908.33 1.52v.414a70.647 70.647 0 0 0-4.399.343c-1.365.153-2.534.446-3.508.875-.964.43-1.709 1.021-2.234 1.776-.516.745-.773 1.723-.773 2.935 0 1.48.501 2.698 1.504 3.653 1.002.954 2.224 1.433 3.666 1.433.783 0 1.466-.078 2.048-.23a7.707 7.707 0 0 0 1.547-.543 6.919 6.919 0 0 0 1.174-.688c.41-.296.736-.525.975-.687v1.703h2.677v-10.856c0-1.03-.157-1.896-.472-2.593a4.222 4.222 0 0 0-1.375-1.703c-.611-.45-1.338-.764-2.178-.946-.83-.19-1.809-.287-2.935-.287zm-138.39.014c-2.358 0-4.257.745-5.698 2.234-1.433 1.49-2.149 3.544-2.149 6.16 0 1.404.19 2.63.572 3.68.382 1.05.923 1.92 1.62 2.607a6.566 6.566 0 0 0 2.476 1.547c.965.335 2.024.502 3.18.502.907 0 1.762-.12 2.564-.36a17.234 17.234 0 0 0 2.565-1.001v-2.965h-.145c-.2.162-.472.359-.816.588-.344.22-.71.428-1.102.629-.449.23-.956.415-1.52.559a6.716 6.716 0 0 1-1.66.214c-1.565 0-2.783-.515-3.652-1.547-.86-1.04-1.289-2.524-1.289-4.453 0-1.986.438-3.49 1.317-4.511.888-1.032 2.097-1.547 3.625-1.547.83 0 1.68.172 2.548.515.879.344 1.728.835 2.55 1.475h.144v-2.994a14.054 14.054 0 0 0-2.436-.945 9.518 9.518 0 0 0-2.693-.387zm-114.482.187v13.106h2.364v-5.086h2.32l4.74 5.086h3.196l-5.5-5.73c.945-.364 1.684-.85 2.218-1.462.545-.62.817-1.394.817-2.32 0-.697-.144-1.274-.43-1.732-.277-.468-.715-.865-1.316-1.19a5.108 5.108 0 0 0-1.72-.558c-.582-.077-1.322-.114-2.22-.114zm69.795.186v15.998h2.694v-11.357a10.837 10.837 0 0 1 2.234-1.418 5.484 5.484 0 0 1 2.406-.56c.516 0 .96.025 1.332.073.382.038.773.104 1.174.2h.145v-2.764c-.42-.067-.736-.11-.946-.13a8.437 8.437 0 0 0-1.017-.042c-.85 0-1.685.182-2.506.545-.812.353-1.753.959-2.822 1.818v-2.363zm10.772 0l6.431 15.998h2.707l6.473-15.998h-2.82l-4.914 12.732-4.955-12.732zm19.164 0v15.998h2.693v-15.998zm71.07 0v10.385c0 1.986.469 3.494 1.404 4.525.936 1.022 2.244 1.533 3.924 1.533 1.003 0 1.92-.192 2.75-.574.831-.382 1.7-.93 2.608-1.646v1.775h2.691v-15.998h-2.691v11.945a10.6 10.6 0 0 1-2.32 1.389c-.822.363-1.58.545-2.278.545-.783 0-1.38-.096-1.79-.287a2.307 2.307 0 0 1-1.003-.916c-.248-.411-.412-.902-.488-1.475a16.406 16.406 0 0 1-.113-2.092v-9.11zm105.846 0v15.998h2.693v-15.998zM76.846 187.65h2.134c.507 0 .926.025 1.26.073.334.047.65.152.946.314.315.172.54.393.673.66.134.268.2.573.2.916 0 .43-.062.788-.186 1.075-.115.286-.32.548-.615.787-.277.22-.631.377-1.06.472-.43.086-.942.13-1.534.13h-1.818zm56.46.172c1.433 0 2.497.387 3.194 1.16.707.774 1.065 1.868 1.074 3.282h-9.166c.115-1.26.598-2.317 1.447-3.166.86-.85 2.01-1.276 3.452-1.276zm70.756 0c1.433 0 2.497.387 3.194 1.16.706.774 1.065 1.868 1.074 3.282h-9.166c.115-1.26.596-2.317 1.445-3.166.86-.85 2.012-1.276 3.453-1.276zm77.731.102c1.442 0 2.567.505 3.379 1.517.812 1.003 1.219 2.54 1.219 4.612 0 2.024-.412 3.552-1.233 4.584-.811 1.021-1.933 1.533-3.365 1.533-1.451 0-2.583-.516-3.395-1.547-.811-1.04-1.218-2.565-1.218-4.57 0-2.072.4-3.609 1.203-4.612.811-1.012 1.949-1.517 3.41-1.517zm83.644 0c1.442 0 2.57.505 3.381 1.517.812 1.003 1.217 2.54 1.217 4.612 0 2.024-.41 3.552-1.23 4.584-.812 1.021-1.935 1.533-3.368 1.533-1.45 0-2.582-.516-3.394-1.547-.812-1.04-1.217-2.565-1.217-4.57 0-2.072.401-3.609 1.203-4.612.812-1.012 1.948-1.517 3.408-1.517zm-340.14 3.765h4.455c.936 0 1.728.04 2.377.116.659.066 1.217.22 1.676.459.678.353 1.146.783 1.404 1.289.258.506.387 1.187.387 2.047 0 .754-.125 1.37-.373 1.847-.249.478-.64.903-1.174 1.276-.506.343-1.155.583-1.947.716-.793.125-1.81.186-3.051.186h-3.754zm306.34 1.963v4.455a11.97 11.97 0 0 1-2.178 1.332c-.783.363-1.647.543-2.592.543-1.136 0-1.981-.229-2.535-.687-.554-.468-.832-1.16-.832-2.076 0-.812.24-1.446.717-1.905.477-.467 1.103-.811 1.877-1.03.65-.182 1.527-.321 2.635-.417 1.117-.095 2.087-.167 2.908-.215zM172.25 216.998c-2.32 0-4.234.573-5.742 1.719-1.509 1.136-2.264 2.597-2.264 4.383 0 1.556.454 2.823 1.361 3.796.917.965 2.32 1.646 4.211 2.047a50.77 50.77 0 0 0 2.649.473 21 21 0 0 1 2.336.473c.945.248 1.647.598 2.105 1.047.468.448.701 1.144.701 2.09 0 1.097-.49 1.977-1.474 2.636-.974.659-2.34.988-4.098.988-1.241 0-2.567-.243-3.98-.73-1.414-.487-2.66-1.18-3.739-2.078h-.2v3.553c1.27.563 2.515.988 3.738 1.275 1.231.286 2.616.43 4.154.43 1.432 0 2.654-.172 3.666-.516 1.022-.344 1.914-.823 2.678-1.434a5.788 5.788 0 0 0 1.619-2.062c.391-.812.588-1.632.588-2.463 0-1.528-.401-2.717-1.204-3.566-.802-.85-1.996-1.485-3.582-1.905-.783-.2-1.736-.397-2.863-.588a60.063 60.063 0 0 1-2.607-.486c-1.156-.267-1.962-.654-2.42-1.16-.459-.506-.688-1.204-.688-2.092 0-.993.459-1.805 1.375-2.435.927-.63 2.148-.946 3.666-.946 1.385 0 2.735.23 4.053.688 1.327.449 2.397 1.017 3.209 1.705h.201v-3.352c-.964-.42-2.073-.774-3.324-1.06-1.25-.287-2.626-.43-4.125-.43zm31.066.244v2.793h3.038v-2.793zm8.28.873v4.598h-1.819v2.264h1.819v8.507c0 1.939.425 3.347 1.275 4.225.85.878 2.09 1.318 3.723 1.318.468 0 .998-.043 1.59-.129a14.613 14.613 0 0 0 1.662-.33v-2.42h-.143c-.21.086-.554.197-1.031.33a5.46 5.46 0 0 1-1.375.186c-.754 0-1.32-.086-1.692-.258a1.984 1.984 0 0 1-.859-.845 3.203 3.203 0 0 1-.4-1.317 26.338 26.338 0 0 1-.057-1.976v-7.291h5.557v-2.264h-5.557v-4.598zm18.162 4.155c-2.33 0-4.212.769-5.645 2.306-1.422 1.537-2.133 3.614-2.133 6.23 0 2.646.745 4.688 2.235 6.13 1.49 1.432 3.56 2.148 6.215 2.148 1.04 0 2.035-.129 2.98-.387.945-.258 1.87-.577 2.778-.959v-2.935h-.143c-.468.42-1.256.85-2.363 1.289-1.098.43-2.191.644-3.28.644a7.124 7.124 0 0 1-2.263-.343 4.853 4.853 0 0 1-1.762-1.032c-.516-.468-.92-1.065-1.217-1.79-.296-.736-.445-1.595-.445-2.579h11.789v-1.46c0-2.321-.587-4.111-1.762-5.372-1.165-1.26-2.826-1.89-4.984-1.89zm-44.975.443v10.385c0 1.986.469 3.494 1.405 4.525.935 1.022 2.243 1.533 3.923 1.533 1.003 0 1.92-.19 2.75-.572.831-.382 1.7-.932 2.608-1.648v1.777h2.691v-16h-2.691v11.945a10.607 10.607 0 0 1-2.32 1.39c-.822.364-1.58.544-2.278.544-.783 0-1.38-.094-1.79-.285a2.311 2.311 0 0 1-1.003-.918c-.248-.41-.412-.902-.488-1.475a16.405 16.405 0 0 1-.113-2.092v-9.11zm18.705 0v16h2.694v-16zm26.125 1.777c1.433 0 2.499.387 3.196 1.16.706.774 1.064 1.866 1.074 3.28h-9.168c.114-1.26.597-2.316 1.447-3.166.86-.85 2.01-1.274 3.451-1.274z"/></g></svg>