<svg xmlns="http://www.w3.org/2000/svg" role="img" viewBox="-5.40 -5.40 410.54 256.04"><title>IBM® Service Management Unite(SMU) logo</title><style>svg {enable-background:new 0 0 400 245}</style><style id="style2" type="text/css">.st5{fill:#4c83c3}</style><g id="g10"><g id="text8" transform="translate(117.52 209.85)"><path id="path65" d="M2.632-19.55h2.645V0H2.632z"/><path id="path67" d="M13.187-9.337v7.163h4.242q2.135 0 3.156-.877 1.035-.89 1.035-2.71 0-1.834-1.035-2.698-1.021-.878-3.156-.878zm0-8.04v5.893h3.915q1.938 0 2.88-.72.957-.734.957-2.227 0-1.48-.956-2.213-.943-.733-2.881-.733zm-2.646-2.174h6.757q3.025 0 4.662 1.257 1.637 1.258 1.637 3.575 0 1.794-.838 2.855-.838 1.06-2.462 1.323 1.951.419 3.025 1.754 1.087 1.323 1.087 3.313 0 2.62-1.781 4.047Q20.848 0 17.56 0h-7.019z"/><path id="path69" d="M28.927-19.55h3.941l4.99 13.304 5.015-13.305h3.941V0h-2.58v-17.167l-5.04 13.409h-2.66l-5.04-13.41V0h-2.567z"/><path id="path71" d="M62.856-18.097q-1.716 0-3.196.615-1.48.616-2.71 1.847-1.231 1.23-1.86 2.737-.628 1.492-.628 3.195 0 1.689.628 3.182.629 1.48 1.86 2.71 1.23 1.231 2.71 1.86 1.48.615 3.196.615 1.728 0 3.208-.615 1.493-.629 2.724-1.86 1.217-1.217 1.82-2.697.615-1.48.615-3.195 0-1.742-.615-3.222-.616-1.493-1.82-2.71-1.231-1.231-2.724-1.847-1.48-.615-3.208-.615zm0-1.349q1.99 0 3.705.72 1.729.72 3.156 2.148 1.428 1.427 2.135 3.143.707 1.715.707 3.732 0 1.99-.707 3.706-.707 1.702-2.135 3.13Q68.29-1.44 66.561-.72 64.846 0 62.856 0t-3.72-.72q-1.715-.72-3.142-2.148-1.427-1.427-2.135-3.13-.707-1.715-.707-3.705 0-2.017.707-3.732.708-1.716 2.135-3.143 1.427-1.428 3.143-2.148 1.728-.72 3.719-.72zm-.354 5.421h-1.61v3.615h1.61q1.44 0 2.004-.406.576-.406.576-1.388 0-.996-.576-1.402-.577-.419-2.004-.419zm.092-1.348q2.304 0 3.444.785 1.139.773 1.139 2.357 0 1.127-.694 1.86-.681.733-1.938.956.314.105.746.615.445.498 1.048 1.454l1.794 2.92H65.88l-1.69-2.737q-.772-1.257-1.257-1.584-.471-.34-1.178-.34h-.865v4.66h-2.03v-10.946z"/><path id="path73" d="M99.155-18.91v2.58q-1.506-.72-2.842-1.073-1.336-.354-2.58-.354-2.16 0-3.339.838-1.165.838-1.165 2.384 0 1.296.772 1.964.786.655 2.96 1.06l1.597.328q2.96.563 4.361 1.99 1.414 1.415 1.414 3.798 0 2.841-1.912 4.308Q96.523.38 92.843.38q-1.388 0-2.96-.315-1.558-.314-3.234-.93v-2.723q1.61.904 3.156 1.362 1.545.458 3.038.458 2.265 0 3.496-.89 1.231-.89 1.231-2.54 0-1.441-.89-2.253-.878-.812-2.894-1.218l-1.61-.314q-2.96-.59-4.283-1.846-1.322-1.258-1.322-3.497 0-2.593 1.82-4.085 1.833-1.493 5.041-1.493 1.375 0 2.803.249 1.427.248 2.92.746z"/><path id="path75" d="M116.898-7.936v1.179H105.82q.157 2.488 1.493 3.798 1.349 1.296 3.745 1.296 1.388 0 2.684-.34 1.31-.341 2.593-1.022v2.279q-1.296.55-2.658.838-1.362.288-2.763.288-3.51 0-5.565-2.043-2.043-2.043-2.043-5.526 0-3.601 1.938-5.71 1.951-2.12 5.25-2.12 2.96 0 4.676 1.911 1.728 1.899 1.728 5.172zm-2.41-.707q-.025-1.977-1.112-3.156-1.074-1.178-2.855-1.178-2.016 0-3.234 1.14-1.205 1.138-1.388 3.207z"/><path id="path77" d="M129.352-12.414q-.406-.236-.89-.34-.472-.118-1.048-.118-2.043 0-3.143 1.335-1.087 1.323-1.087 3.811V0h-2.423v-14.666h2.423v2.278q.76-1.335 1.977-1.977 1.218-.655 2.96-.655.249 0 .55.04.3.026.668.091z"/><path id="path79" d="M130.177-14.666h2.553l4.583 12.309 4.584-12.31h2.553L138.95 0h-3.274z"/><path id="path81" d="M147.776-14.666h2.41V0h-2.41zm0-5.71h2.41v3.051h-2.41z"/><path id="path83" d="M165.769-14.103v2.252q-1.022-.563-2.056-.838-1.022-.288-2.07-.288-2.343 0-3.64 1.493-1.296 1.48-1.296 4.164 0 2.684 1.296 4.177 1.297 1.48 3.64 1.48 1.048 0 2.07-.275 1.034-.288 2.056-.851v2.226q-1.009.471-2.096.707-1.073.236-2.291.236-3.313 0-5.264-2.082t-1.951-5.618q0-3.588 1.964-5.644 1.977-2.056 5.408-2.056 1.113 0 2.174.236 1.06.222 2.056.68z"/><path id="path85" d="M182.53-7.936v1.179h-11.078q.157 2.488 1.493 3.798 1.348 1.296 3.745 1.296 1.388 0 2.684-.34 1.31-.341 2.593-1.022v2.279q-1.296.55-2.658.838-1.362.288-2.763.288-3.51 0-5.566-2.043-2.042-2.043-2.042-5.526 0-3.601 1.938-5.71 1.95-2.12 5.25-2.12 2.96 0 4.676 1.911 1.728 1.899 1.728 5.172zm-2.41-.707q-.026-1.977-1.112-3.156-1.074-1.178-2.855-1.178-2.017 0-3.235 1.14-1.204 1.138-1.388 3.207z"/><path id="path87" d="M-23.168 7.85h3.942l4.989 13.304 5.015-13.305h3.942V27.4h-2.58V10.233l-5.042 13.409h-2.658l-5.041-13.41V27.4h-2.567z"/><path id="path89" d="M6.544 20.028q-2.92 0-4.046.667-1.126.668-1.126 2.279 0 1.283.838 2.043.851.746 2.305.746 2.003 0 3.208-1.414 1.218-1.427 1.218-3.785v-.536zm4.806-.996V27.4H8.94v-2.226q-.824 1.336-2.055 1.977-1.231.629-3.012.629-2.252 0-3.588-1.257-1.323-1.27-1.323-3.392 0-2.475 1.65-3.732 1.664-1.257 4.95-1.257h3.379v-.236q0-1.663-1.1-2.566-1.087-.917-3.064-.917-1.257 0-2.45.301-1.19.301-2.29.904v-2.226q1.322-.511 2.566-.76 1.244-.262 2.422-.262 3.183 0 4.754 1.65 1.571 1.65 1.571 5.002z"/><path id="path91" d="M28.518 18.548V27.4h-2.41v-8.774q0-2.082-.812-3.116-.811-1.035-2.435-1.035-1.951 0-3.078 1.244-1.126 1.244-1.126 3.392V27.4h-2.422V12.734h2.422v2.278q.865-1.322 2.03-1.977 1.179-.655 2.71-.655 2.528 0 3.824 1.572 1.297 1.558 1.297 4.596z"/><path id="path93" d="M40.015 20.028q-2.92 0-4.046.667-1.126.668-1.126 2.279 0 1.283.838 2.043.85.746 2.304.746 2.004 0 3.209-1.414 1.217-1.427 1.217-3.785v-.536zm4.806-.996V27.4h-2.41v-2.226q-.825 1.336-2.055 1.977-1.231.629-3.012.629-2.253 0-3.588-1.257-1.323-1.27-1.323-3.392 0-2.475 1.65-3.732 1.663-1.257 4.95-1.257h3.378v-.236q0-1.663-1.1-2.566-1.086-.917-3.064-.917-1.257 0-2.448.301-1.192.301-2.292.904v-2.226q1.322-.511 2.567-.76 1.244-.262 2.422-.262 3.182 0 4.754 1.65 1.57 1.65 1.57 5.002z"/><path id="path95" d="M59.448 19.897q0-2.62-1.087-4.06-1.074-1.44-3.025-1.44-1.938 0-3.025 1.44-1.074 1.44-1.074 4.06 0 2.605 1.074 4.046 1.087 1.44 3.025 1.44 1.951 0 3.025-1.44 1.087-1.44 1.087-4.046zm2.41 5.683q0 3.745-1.664 5.565-1.663 1.833-5.094 1.833-1.27 0-2.396-.196-1.126-.183-2.187-.576v-2.344q1.06.576 2.095.851 1.035.275 2.109.275 2.37 0 3.548-1.244 1.179-1.23 1.179-3.732V24.82q-.746 1.297-1.912 1.938-1.165.642-2.79.642-2.697 0-4.347-2.056-1.65-2.056-1.65-5.447 0-3.405 1.65-5.461 1.65-2.056 4.348-2.056 1.624 0 2.79.642 1.165.641 1.91 1.938v-2.226h2.41z"/><path id="path97" d="M79.365 19.464v1.179H68.287q.157 2.488 1.493 3.798 1.349 1.296 3.745 1.296 1.388 0 2.684-.34 1.31-.341 2.593-1.022v2.279q-1.296.55-2.658.838-1.362.288-2.763.288-3.51 0-5.565-2.043-2.043-2.043-2.043-5.526 0-3.601 1.938-5.71 1.951-2.12 5.25-2.12 2.96 0 4.676 1.911 1.728 1.899 1.728 5.172zm-2.41-.707q-.025-1.977-1.112-3.156-1.074-1.178-2.855-1.178-2.017 0-3.234 1.14-1.205 1.138-1.388 3.207z"/><path id="path99" d="M94.739 15.55q.903-1.625 2.16-2.397 1.258-.773 2.96-.773 2.291 0 3.535 1.61 1.245 1.598 1.245 4.558V27.4h-2.423v-8.774q0-2.108-.746-3.13-.747-1.02-2.279-1.02-1.873 0-2.96 1.243-1.086 1.244-1.086 3.392V27.4h-2.423v-8.774q0-2.121-.746-3.13-.747-1.02-2.305-1.02-1.846 0-2.933 1.256-1.087 1.244-1.087 3.379V27.4h-2.423V12.734h2.423v2.278q.825-1.349 1.977-1.99 1.153-.642 2.737-.642 1.598 0 2.71.812 1.127.812 1.664 2.357z"/><path id="path101" d="M122.002 19.464v1.179h-11.078q.157 2.488 1.493 3.798 1.349 1.296 3.745 1.296 1.388 0 2.684-.34 1.31-.341 2.593-1.022v2.279q-1.296.55-2.658.838-1.362.288-2.763.288-3.51 0-5.565-2.043-2.043-2.043-2.043-5.526 0-3.601 1.938-5.71 1.951-2.12 5.251-2.12 2.96 0 4.675 1.911 1.728 1.899 1.728 5.172zm-2.41-.707q-.025-1.977-1.112-3.156-1.074-1.178-2.855-1.178-2.016 0-3.234 1.14-1.205 1.138-1.388 3.207z"/><path id="path103" d="M138.148 18.548V27.4h-2.409v-8.774q0-2.082-.812-3.116-.812-1.035-2.436-1.035-1.95 0-3.077 1.244-1.126 1.244-1.126 3.392V27.4h-2.423V12.734h2.423v2.278q.864-1.322 2.03-1.977 1.178-.655 2.71-.655 2.528 0 3.824 1.572 1.296 1.558 1.296 4.596z"/><path id="path105" d="M145.364 8.57v4.164h4.963v1.872h-4.963v7.962q0 1.794.484 2.305.498.51 2.004.51h2.475V27.4h-2.475q-2.79 0-3.85-1.034-1.06-1.048-1.06-3.798v-7.962h-1.769v-1.872h1.768V8.57z"/><path id="path107" d="M161.85 7.85h2.658v11.876q0 3.143 1.14 4.531 1.139 1.375 3.693 1.375 2.54 0 3.68-1.375 1.138-1.388 1.138-4.53V7.848h2.659v12.205q0 3.823-1.9 5.775-1.885 1.95-5.577 1.95-3.706 0-5.605-1.95-1.886-1.952-1.886-5.775z"/><path id="path109" d="M193.88 18.548V27.4h-2.41v-8.774q0-2.082-.81-3.116-.813-1.035-2.437-1.035-1.95 0-3.077 1.244-1.126 1.244-1.126 3.392V27.4h-2.423V12.734h2.423v2.278q.864-1.322 2.03-1.977 1.178-.655 2.71-.655 2.528 0 3.824 1.572 1.296 1.558 1.296 4.596z"/><path id="path111" d="M198.712 12.734h2.41V27.4h-2.41zm0-5.71h2.41v3.051h-2.41z"/><path id="path113" d="M208.534 8.57v4.164h4.963v1.872h-4.963v7.962q0 1.794.484 2.305.498.51 2.004.51h2.475V27.4h-2.475q-2.79 0-3.85-1.034-1.06-1.048-1.06-3.798v-7.962h-1.769v-1.872h1.768V8.57z"/><path id="path115" d="M229.224 19.464v1.179h-11.079q.157 2.488 1.493 3.798 1.349 1.296 3.745 1.296 1.388 0 2.685-.34 1.31-.341 2.593-1.022v2.279q-1.297.55-2.659.838-1.362.288-2.763.288-3.51 0-5.565-2.043-2.043-2.043-2.043-5.526 0-3.601 1.938-5.71 1.951-2.12 5.251-2.12 2.96 0 4.675 1.911 1.729 1.899 1.729 5.172zm-2.41-.707q-.026-1.977-1.113-3.156-1.074-1.178-2.855-1.178-2.016 0-3.234 1.14-1.205 1.138-1.388 3.207z"/></g></g><g id="g56"><path id="path12" fill="#4c83c3" d="M397.3 14h-65.7l4.1-11.3h61.6zM222.1 2.7h61l4 11.4h-65c.1-.1 0-11.4 0-11.4zm-48.3 0c10 1 18.8 4.6 26.3 11.4H89.5V2.7z" class="st5"/><path id="path14" fill="#4c83c3" d="M2.7 2.7h76.8V14H2.7z" class="st5"/><path id="path16" fill="#4c83c3" d="M397.3 35.3h-73.2l4-11.3h69.3v11.3zm-102.5 0h-72.6V24h68.6zM208.6 24c1.5 3.8 3.2 6.9 3.2 11.3H89.5V24z" class="st5"/><path id="path18" fill="#4c83c3" d="M2.7 24h76.8v11.3H2.7z" class="st5"/><path id="path20" fill="#4c83c3" d="M316.6 56.6l4.1-11.3h55v11.3zm-18.4-11.3l4.1 11.3h-58.5V45.3zm-85.5-.1c0 3.9-.5 7.9-1.6 11.3h-33.5V45.2z" class="st5"/><path id="path22" fill="#4c83c3" d="M24.1 45.3h33v11.3h-33z" class="st5"/><path id="path24" fill="#4c83c3" d="M111.7 45.2h33v11.3h-33z" class="st5"/><path id="path26" fill="#4c83c3" d="M276.2 68.8v8.6h-32.5V66.2h61.8l3.9 10.5 3.7-10.5h62.3v11.3h-32.3v-8.6l-3 8.6h-61zm-164.5-2.6h94.6c-2.1 3.8-5.8 8.3-9.4 11.3h-85.2z" class="st5"/><path id="path28" fill="#4c83c3" d="M24.1 66.2h33v11.3h-33z" class="st5"/><path id="path30" fill="#4c83c3" d="M343.3 87.5h32.3v11.3h-32.3z" class="st5"/><path id="path32" fill="#4c83c3" d="M276.2 87.5h-32.5v11.3h32.5c0-.2.1-11.3 0-11.3zm60.6 0c-.1 0-3.8 11.3-4 11.3h-46l-4.1-11.3zm-225.1 0h85c3.9 3.3 7.4 7.2 10.1 11.3h-95.2c.1-.2.1-11.3.1-11.3zM57.1 98.6V87.4H24.2v11.3h32.9z" class="st5"/><path id="path34" fill="#4c83c3" d="M343.3 108.7h32.3V120h-32.3z" class="st5"/><path id="path36" fill="#4c83c3" d="M243.8 108.7h32.5V120h-32.5z" class="st5"/><path id="path38" fill="#4c83c3" d="M325.3 119.9c0-.1 4-11.3 4.1-11.3h-39.1c-.1 0 4 11.3 4 11.3s31 .1 31 0zm-213.6 0v-11.3h33.5v11.3zm99.8-11.2c1.6 3.4 1.8 7.4 2.1 11.3h-35.5v-11.3z" class="st5"/><path id="path40" fill="#4c83c3" d="M24.2 108.7h33V120h-33z" class="st5"/><path id="path42" fill="#4c83c3" d="M343.3 129.5h54v11.3h-54z" class="st5"/><path id="path44" fill="#4c83c3" d="M222.1 129.5h54.1v11.3h-54.1z" class="st5"/><path id="path46" fill="#4c83c3" d="M317.9 140.8h-16.4l-4-11.3h24.3zM2.7 129.5v11.3h76.8v-11.3zm209.5 0c-.8 3.8-1.6 8.2-4.3 11.3H89.5v-11.3zm98.3 32.6H309l-3.9-11.3h9.3z" class="st5"/><path id="path48" fill="#4c83c3" d="M343.3 150.8h54v11.3h-54z" class="st5"/><path id="path50" fill="#4c83c3" d="M89.5 162.1v-11.3h111.2c-7.4 7.1-17.6 11.1-28.6 11.3H89.5" class="st5"/><path id="path52" fill="#4c83c3" d="M222.1 150.8h54.1v11.3h-54.1z" class="st5"/><path id="path54" fill="#4c83c3" d="M79.5 150.8v11.3H2.7v-11.3s76.7.1 76.8 0z" class="st5"/></g></svg>