<svg xmlns="http://www.w3.org/2000/svg" role="img" viewBox="-14.36 -14.36 746.72 333.22"><title>IBM® CICS® Plug-in for Zowe CLI logo</title><defs id="defs3552"><style id="style3550">.cls-1{fill:#0033a1}.cls-2{fill:#2a7de1}</style></defs><path id="polygon3556" d="M29.202 156.633l52.517-.823 71.484-50.097 14.994 30.607 13.759-80.538z" class="cls-1" transform="translate(-29.2 -55.777)"/><path id="polygon3558" d="M181.954 55.777l89.556 135.641-106.981-36.706z" class="cls-2" transform="translate(-29.2 -55.777)"/><path id="polyline3560" d="M131.223 229.511l8.452 12.18 76.73-54.507-12.985-19.127-44.268 30.853 5.375-44.194 106.981 36.7-145.721 102.786" class="cls-1" transform="translate(-29.2 -55.777)"/><path id="polygon3562" d="M94.075 176.677l49.2-33.439-17.487 149.774L29.2 156.634l52.523-.823z" class="cls-2" transform="translate(-29.2 -55.777)"/><path id="path3564" d="M587.23191 35.4428h5.29468a6.88644 6.88644 0 0 1 4.63135 1.36974 4.52388 4.52388 0 0 1 1.62157 3.71612 4.67514 4.67514 0 0 1-1.62157 3.753 7.14731 7.14731 0 0 1-4.79105 1.382h-3.65465V54.656h-1.48033zm1.48033 1.23459v7.69637h3.56251a5.57788 5.57788 0 0 0 3.6547-1.01963 3.84745 3.84745 0 0 0 .27639-5.436.34852.34852 0 0 1-.043-.04916l-.1904-.20882a5.3287 5.3287 0 0 0-3.50731-1.038z" class="cls-2"/><path id="path3566" d="M603.86285 35.4428h4.90774a7.28588 7.28588 0 0 1 4.73571 1.35132 4.43482 4.43482 0 0 1 1.63385 3.61781 4.77216 4.77216 0 0 1-3.65465 4.6559 8.891 8.891 0 0 1 2.56135 2.94829l4.34877 6.63987h-1.77514l-3.3476-5.23325a12.51111 12.51111 0 0 0-2.59819-3.29231 4.8449 4.8449 0 0 0-2.73333-.65719h-2.65348v9.21963h-1.48028zm1.48033 1.23459v7.52438h3.17557a6.18842 6.18842 0 0 0 3.73454-.98279 3.61961 3.61961 0 0 0 .42378-5.09814l-.44224-.44224a6.15319 6.15319 0 0 0-3.753-1.00121z" class="cls-2"/><path id="path3568" d="M631.17162 35.19832a10.00767 10.00767 0 0 1 7.21716 2.8623 9.627 9.627 0 0 1 .344 13.61141c-.0368.0368-.0737.0737-.1105.11669l-.23347.2457a10.49871 10.49871 0 0 1-14.416 0 9.74545 9.74545 0 0 1-.20263-13.77108l.0123-.0061.19035-.19658a9.95061 9.95061 0 0 1 7.19888-2.8623m0 18.32252a8.24138 8.24138 0 0 0 6.06247-2.44461 8.5868 8.5868 0 0 0 0-12.05123 8.71124 8.71124 0 0 0-12.1434 0 8.50806 8.50806 0 0 0 0 12.03281 8.30684 8.30684 0 0 0 6.08093 2.44461" class="cls-2"/><path id="path3570" d="M648.82228 35.44463v19.25006a6.22857 6.22857 0 0 1-1.19161 4.34877 3.8501 3.8501 0 0 1-2.8317 1.21617q-.44214.0184-.88448 0l-.13515-1.38815a4.62122 4.62122 0 0 0 .86611.0983c1.812 0 2.69645-1.27147 2.69645-3.85123V35.44463z" class="cls-2"/><path id="polygon3572" d="M686.071 92.456v7.678h8.753v1.253h-8.753v7.795h9.195v1.247h-10.681V91.222h10.472v1.234z" class="cls-2" transform="translate(-29.2 -55.777)"/><path id="path3574" d="M687.39486 36.81249v1.61543A14.69811 14.69811 0 0 0 680.54 36.5054a8.0693 8.0693 0 0 0-5.96416 2.44466A8.24453 8.24453 0 0 0 672.168 45.031a8.14392 8.14392 0 0 0 2.40778 6.11777 8.47367 8.47367 0 0 0 6.17916 2.3709 14.50977 14.50977 0 0 0 6.83027-1.92252v1.53558a14.27085 14.27085 0 0 1-6.79343 1.79356 10.06857 10.06857 0 0 1-7.31548-2.81319 9.83525 9.83525 0 0 1-.006-13.90622.006.006 0 0 0 .006-.0061.7022.7022 0 0 0 .13515-.13515 10.02036 10.02036 0 0 1 7.10666-2.83161 16.137 16.137 0 0 1 6.7565 1.61544" class="cls-2"/><path id="polygon3576" d="M728.51 92.456v17.973h-1.505V92.456h-7.217v-1.234h15.921v1.234z" class="cls-2" transform="translate(-29.2 -55.777)"/><path id="polygon3578" d="M410.365 99.444l-5.773 7.138h-.516l-5.799-7.138v12.334h-6.234V90.495h5.817l6.541 7.985 6.56-7.985h5.836v21.283h-6.432z" class="cls-2" transform="translate(-29.2 -55.777)"/><path id="path3580" d="M416.33272 56.00365h-6.56614l-1.75054-4.31193H398.778l-1.769 4.31193h-6.56615l9.41615-21.28932h7.18037zm-9.77855-8.02806l-3.12032-7.69633-3.151 7.69633z" class="cls-2"/><path id="rect3582" d="M419.183 34.719h6.406v21.283h-6.406z" class="cls-2"/><path id="polygon3584" d="M466.532 99.923v11.855h-6.351V90.495h5.694l11.007 11.793V90.495h6.394v21.283h-5.7z" class="cls-2" transform="translate(-29.2 -55.777)"/><path id="polygon3586" d="M495.039 111.779h-6.413V90.49h15.245v4.275h-8.832v4.122h8.832v4.269h-8.832z" class="cls-2" transform="translate(-29.2 -55.777)"/><path id="path3588" d="M499.595 56.00112h-6.8917l-1.67074-3.84509a16.48553 16.48553 0 0 0-1.6584-3.02815 3.5709 3.5709 0 0 0-1.43731-1.22849 5.21472 5.21472 0 0 0-1.812-.27026h-.71254v8.31674h-6.431V34.718h10.91499a7.868 7.868 0 0 1 4.33035 1.07488 6.46344 6.46344 0 0 1 2.44461 2.59823 6.72627 6.72627 0 0 1 .731 2.92373 5.4132 5.4132 0 0 1-.61422 2.73334 4.99247 4.99247 0 0 1-1.30835 1.61543 14.60055 14.60055 0 0 1-1.56014.96433 5.90891 5.90891 0 0 1 1.69529 1.425 16.98237 16.98237 0 0 1 1.88569 3.2923zm-8.716-14.56961a2.15338 2.15338 0 0 0-.98279-2.03921 6.28282 6.28282 0 0 0-3.13874-.5958h-1.34518v5.14111h1.36974a7.19359 7.19359 0 0 0 3.23087-.52209 2.149 2.149 0 0 0 .8661-1.92257" class="cls-2"/><path id="path3590" d="M525.87192 56.00365h-6.56615l-1.73212-4.31193h-9.238l-1.769 4.31193H499.982l9.41-21.28932h7.10052zm-9.77856-8.02806l-3.12036-7.69633-3.13874 7.69633z" class="cls-2"/><path id="polygon3592" d="M576.245 99.444l-5.799 7.138h-.497l-5.817-7.138v12.334h-6.235V90.495h5.836l6.523 7.985 6.584-7.985h5.811v21.283h-6.406z" class="cls-2" transform="translate(-29.2 -55.777)"/><path id="polygon3594" d="M588.024 90.495h15.78v4.269h-9.355v3.888h8.931v4.293h-8.931v4.54h9.625v4.293h-16.05z" class="cls-2" transform="translate(-29.2 -55.777)"/><path id="path3596" d="M283.15852 35.42865a11.03124 11.03124 0 0 1 8.06485 3.194 10.85708 10.85708 0 0 1 .31941 15.34967.18792.18792 0 0 0-.0492.0492l-.27025.26412a11.73656 11.73656 0 0 1-16.09291 0 10.89088 10.89088 0 0 1-.20882-15.39265l.20882-.215a11.08033 11.08033 0 0 1 8.02806-3.194m0 20.46a9.21918 9.21918 0 0 0 6.775-2.73333 9.62184 9.62184 0 0 0 0-13.47008 9.78988 9.78988 0 0 0-13.5684 0 9.50155 9.50155 0 0 0-.0246 13.44552l.0246.0246a9.2606 9.2606 0 0 0 6.79343 2.73333" class="cls-2"/><path id="path3598" d="M298.57146 35.694h5.915a7.96062 7.96062 0 0 1 5.19642 1.52331 5.61267 5.61267 0 0 1-.11669 8.35356 8.05225 8.05225 0 0 1-5.33156 1.56014h-4.10303v9.98742h-1.65227zm1.65845 1.38815v8.66071h4.00476a6.42467 6.42467 0 0 0 4.07851-1.13632 4.34636 4.34636 0 0 0 .23342-6.13619.89411.89411 0 0 0-.215-.215 5.7378 5.7378 0 0 0-3.8451-1.1732z" class="cls-2"/><path id="polygon3600" d="M345.519 92.862v8.581h9.785v1.388h-9.785v8.716h10.301v1.388h-11.953V91.474h11.701v1.388z" class="cls-2" transform="translate(-29.2 -55.777)"/><path id="polygon3602" d="M377.181 112.935l-16.296-18.771v18.771h-1.658V91.474h1.407l16.258 18.746V91.474h1.659v21.461z" class="cls-2" transform="translate(-29.2 -55.777)"/><path id="path3604" d="M269.81527 175.16729l64.79151-75.394h-62.772V77.0545h96.09326V96.744l-64.79151 75.394h64.79151v22.71875h-98.1128z" class="cls-1"/><path id="path3606" d="M381.22348 150.26007v-.33692c0-25.916 20.86816-46.95215 48.97265-46.95215 27.93555 0 48.63477 20.69922 48.63477 46.61622v.33593c0 25.917-20.86719 46.95313-48.97168 46.95313-27.93652 0-48.63574-20.69922-48.63574-46.61621zm72.36425 0v-.33692c0-13.29443-9.59277-24.90625-23.72851-24.90625-14.6416 0-23.39258 11.27539-23.39258 24.57032v.33593c0 13.29492 9.59277 24.90723 23.72949 24.90723 14.64063 0 23.3916-11.27538 23.3916-24.57031z" class="cls-1"/><path id="path3608" d="M485.89926 104.65362h25.917l14.47265 54.69438 16.99709-55.0308h22.0459l17.165 55.19873 14.80957-54.86231h25.41211l-28.10449 90.876h-23.05565l-17.334-55.3667-17.66992 55.3667h-22.88768z" class="cls-1"/><path id="path3610" d="M629.78793 150.26007v-.33692c0-25.748 18.34375-46.95215 44.59668-46.95215 30.124 0 43.92383 23.39209 43.92383 48.97168 0 2.01954-.16895 4.376-.33692 6.73145H655.2c2.52344 11.6123 10.60156 17.6709 22.0459 17.6709 8.582 0 14.80859-2.69238 21.877-9.25586l14.6416 12.958c-8.415 10.43359-20.53125 16.8291-36.85547 16.8291-27.09473.00001-47.1211-19.01659-47.1211-46.6162zm63.61328-7.57276c-1.51465-11.44384-8.24609-19.18506-19.0166-19.18506-10.60254 0-17.50195 7.57276-19.52148 19.18506z" class="cls-1"/><path id="polygon3612" d="M143.275 143.239l-49.2 33.438 43.396 16.621z" class="cls-1" transform="translate(-29.2 -55.777)"/><g id="text3621" fill="#000" fill-opacity="1" stroke="none" transform="translate(-29.2 -55.777)"><path id="path3673" d="M360.30664 321.63867v30.39063h3.59375v-30.39063zm76.32813 0v4.55078h3.59375v-4.55078zm56.89453 0c-2.46094 0-4.25781.5599-5.39063 1.67969-1.13281 1.10677-1.69922 2.87761-1.69922 5.3125v1.52344h-3.4375v2.79297h3.4375v19.08203h3.61328v-19.08203h5.91797v-2.79297h-5.91797v-1.9336c0-1.35416.2474-2.29166.74219-2.8125.50782-.52083 1.40625-.78125 2.69531-.78125h3.4375v-2.98828zm-290.50782.70313c-4.41406 0-7.89062 1.35416-10.42968 4.0625-2.53906 2.69531-3.8086 6.38672-3.8086 11.07422 0 4.67448 1.26954 8.36588 3.8086 11.07421 2.53906 2.69532 6.01562 4.04297 10.42968 4.04297 1.71876 0 3.34636-.23437 4.88282-.70312 1.54948-.46875 3.01431-1.17188 4.39453-2.10938v-4.12109c-1.32813 1.23698-2.74739 2.16146-4.25781 2.77344-1.4974.61198-3.09245.91797-4.78516.91797-3.33333 0-5.88542-1.01563-7.65625-3.04688-1.77083-2.04427-2.65625-4.98698-2.65625-8.82812 0-3.85417.88542-6.79688 2.65625-8.82813 1.77083-2.04427 4.32292-3.06641 7.65625-3.06641 1.69271 0 3.28776.30599 4.78516.91797 1.51042.61198 2.92968 1.53646 4.25781 2.77344v-4.16016c-1.35417-.92448-2.80599-1.61457-4.35547-2.07031-1.53646-.46874-3.17708-.70312-4.92188-.70312zm39.76563 0c-4.41407 0-7.89063 1.35416-10.42969 4.0625-2.53906 2.69531-3.80859 6.38672-3.80859 11.07422 0 4.67448 1.26953 8.36588 3.80859 11.07421 2.53906 2.69532 6.01562 4.04297 10.42969 4.04297 1.71875 0 3.34635-.23437 4.88281-.70312 1.54948-.46875 3.01433-1.17188 4.39453-2.10938v-4.12109c-1.32812 1.23698-2.7474 2.16146-4.25781 2.77344-1.4974.61198-3.09245.91797-4.78516.91797-3.33333 0-5.88541-1.01563-7.65625-3.04688-1.77083-2.04427-2.65625-4.98698-2.65625-8.82812 0-3.85417.88542-6.79688 2.65625-8.82813 1.77084-2.04427 4.32292-3.06641 7.65625-3.06641 1.69271 0 3.28776.30599 4.78516.91797 1.51041.61198 2.92969 1.53646 4.25781 2.77344v-4.16016c-1.35416-.92448-2.80599-1.61457-4.35547-2.07031-1.53646-.46874-3.17708-.70312-4.92187-.70312zm24.35547 0c-3.19011 0-5.69661.74219-7.51953 2.22656-1.8099 1.48437-2.71485 3.51562-2.71485 6.09375 0 2.22657.65755 3.96484 1.97266 5.21484 1.3151 1.25 3.444 2.16798 6.38672 2.75391l2.40234.46875c2.00521.40365 3.44401 1.00911 4.31641 1.81641.88541.80729 1.32812 1.92708 1.32812 3.35937 0 1.64063-.61197 2.90364-1.83593 3.78906-1.22396.88542-2.96224 1.32813-5.21485 1.32813-1.48437 0-2.99479-.22787-4.53125-.6836-1.53646-.45573-3.10547-1.13281-4.70703-2.03125v4.0625c1.66667.61198 3.27474 1.07422 4.82422 1.38672 1.5625.3125 3.03386.46875 4.41406.46875 3.65886 0 6.43229-.72916 8.32031-2.1875 1.90104-1.45833 2.85157-3.60025 2.85157-6.42578 0-2.36978-.70313-4.25781-2.10938-5.66406-1.39322-1.41927-3.56119-2.40885-6.5039-2.96875l-2.38282-.48828c-2.16146-.40365-3.63281-.93099-4.41406-1.58203-.76823-.66406-1.15234-1.64062-1.15234-2.92969 0-1.53646.57942-2.72135 1.73828-3.55469 1.17187-.83333 2.83203-1.25 4.98047-1.25 1.23698 0 2.51953.17578 3.84765.52735 1.32813.35156 2.74089.88541 4.23828 1.60156v-3.84766c-1.48437-.49478-2.93619-.86588-4.35546-1.11328-1.41927-.24739-2.81251-.37109-4.17969-.37109zm421.11328 0c-4.41407 0-7.89063 1.35416-10.42969 4.0625-2.53906 2.69531-3.80859 6.38672-3.80859 11.07422 0 4.67448 1.26953 8.36588 3.80859 11.07421 2.53906 2.69532 6.01562 4.04297 10.42969 4.04297 1.71875 0 3.34635-.23437 4.88281-.70312 1.54948-.46875 3.01433-1.17188 4.39453-2.10938v-4.12109c-1.32812 1.23698-2.7474 2.16146-4.25781 2.77344-1.4974.61198-3.09245.91797-4.78516.91797-3.33333 0-5.88541-1.01563-7.65625-3.04688-1.77083-2.04427-2.65625-4.98698-2.65625-8.82812 0-3.85417.88542-6.79688 2.65625-8.82813 1.77084-2.04427 4.32292-3.06641 7.65625-3.06641 1.69271 0 3.28776.30599 4.78516.91797 1.51041.61198 2.92969 1.53646 4.25781 2.77344v-4.16016c-1.35416-.92448-2.80599-1.61457-4.35547-2.07031-1.53646-.46874-3.17708-.70312-4.92187-.70312zm-624.27734.52734v29.16016h3.9453v-29.16016zm11.79687 0v29.16016h10.46875c3.26823 0 5.78776-.70964 7.5586-2.12891 1.77083-1.41927 2.65624-3.43099 2.65624-6.03516 0-1.97916-.54036-3.6263-1.62109-4.9414-1.0677-1.32813-2.57161-2.20052-4.51172-2.61719 1.61459-.26041 2.83854-.91797 3.67188-1.97266.83333-1.05468 1.25-2.47395 1.25-4.25781 0-2.30468-.8138-4.08203-2.4414-5.33203-1.62761-1.25-3.94532-1.875-6.95313-1.875zm27.42188 0v29.16016h3.82812v-25.60547l7.51953 20h3.96485l7.51953-20v25.60547h3.84765v-29.16016h-5.8789l-7.48047 19.84375-7.44141-19.84375zm115.23437 0v29.16016h3.94531v-29.16016zm117.89063 0v29.16016h3.94531v-11.71875h4.96094c3.26823 0 5.73567-.73568 7.40234-2.20703 1.67969-1.47136 2.51953-3.64584 2.51953-6.52344 0-2.85156-.83984-5.01302-2.51953-6.48438-1.66667-1.48438-4.13411-2.22656-7.40234-2.22656zm215.74218 0v3.32031h17.98828l-18.4375 22.83203v3.00782h23.8086v-3.32032h-18.88672l18.4375-22.83203v-3.00781zm151.60157 0v29.16016h18.14453v-3.32032h-14.19922v-25.83984zm22.26562 0v29.16016h3.94531v-29.16016zm-572.12891.15625c-1.97916 0-3.82812.35807-5.54687 1.07422-1.70573.71615-3.26823 1.78385-4.6875 3.20312-1.41927 1.41927-2.48047 2.98177-3.18359 4.6875-.70312 1.70573-1.05469 3.5612-1.05469 5.56641 0 1.97917.35157 3.82161 1.05469 5.52734.70312 1.69271 1.76432 3.2487 3.18359 4.66797 1.41927 1.41927 2.98177 2.48698 4.6875 3.20313 1.71875.71614 3.56771 1.07422 5.54687 1.07422 1.97917 0 3.82161-.35808 5.52735-1.07422 1.71874-.71615 3.28776-1.78386 4.70703-3.20313 1.41927-1.41927 2.48047-2.97526 3.18359-4.66797.70313-1.70573 1.05469-3.54817 1.05469-5.52734 0-2.00521-.35156-3.86068-1.05469-5.56641-.70312-1.70573-1.76432-3.26823-3.18359-4.6875s-2.98829-2.48697-4.70703-3.20312c-1.70574-.71615-3.54818-1.07422-5.52735-1.07422zm145.85938 0c-1.97917 0-3.82812.35807-5.54688 1.07422-1.70572.71615-3.26822 1.78385-4.6875 3.20312-1.41926 1.41927-2.48046 2.98177-3.18359 4.6875-.70313 1.70573-1.05469 3.5612-1.05469 5.56641 0 1.97917.35156 3.82161 1.05469 5.52734.70313 1.69271 1.76433 3.2487 3.18359 4.66797 1.41928 1.41927 2.98178 2.48698 4.6875 3.20313 1.71876.71614 3.56771 1.07422 5.54688 1.07422 1.97917 0 3.82162-.35808 5.52734-1.07422 1.71876-.71615 3.28777-1.78386 4.70703-3.20313 1.41928-1.41927 2.48047-2.97526 3.1836-4.66797.70312-1.70573 1.05469-3.54817 1.05469-5.52734 0-2.00521-.35157-3.86068-1.05469-5.56641-.70313-1.70573-1.76432-3.26823-3.1836-4.6875-1.41926-1.41927-2.98827-2.48697-4.70703-3.20312-1.70572-.71615-3.54817-1.07422-5.52734-1.07422zm-145.85938 2.01172c1.71876 0 3.31381.30599 4.78516.91797 1.48437.61198 2.83854 1.52994 4.0625 2.7539 1.19791 1.21094 2.10286 2.55859 2.71484 4.04297.61198 1.47136.91797 3.07292.91797 4.80469 0 1.70573-.30599 3.29427-.91797 4.76563-.59896 1.47135-1.50391 2.81249-2.71484 4.02343-1.22396 1.22396-2.57813 2.14844-4.0625 2.77344-1.47135.61198-3.0664.91797-4.78516.91797-1.70572 0-3.29427-.30599-4.76562-.91797-1.47135-.625-2.81901-1.54948-4.04297-2.77344-1.22396-1.22396-2.14844-2.57161-2.77344-4.04297-.625-1.48438-.9375-3.0664-.9375-4.74609 0-1.69271.3125-3.28125.9375-4.76562.625-1.4974 1.54948-2.85808 2.77344-4.08204s2.57162-2.14192 4.04297-2.7539c1.47135-.61198 3.0599-.91797 4.76562-.91797zm145.85938 0c1.71875 0 3.3138.30599 4.78516.91797 1.48438.61198 2.83854 1.52994 4.0625 2.7539 1.19792 1.21094 2.10286 2.55859 2.71484 4.04297.61198 1.47136.91797 3.07292.91797 4.80469 0 1.70573-.30599 3.29427-.91797 4.76563-.59896 1.47135-1.5039 2.81249-2.71484 4.02343-1.22396 1.22396-2.57812 2.14844-4.0625 2.77344-1.47136.61198-3.06641.91797-4.78516.91797-1.70573 0-3.29427-.30599-4.76563-.91797-1.47135-.625-2.819-1.54948-4.04296-2.77344s-2.14844-2.57161-2.77344-4.04297c-.625-1.48438-.9375-3.0664-.9375-4.74609 0-1.69271.3125-3.28125.9375-4.76562.625-1.4974 1.54948-2.85808 2.77344-4.08204s2.57161-2.14192 4.04296-2.7539c1.47136-.61198 3.0599-.91797 4.76563-.91797zm-219.9414 1.07422h5.83984c1.92708 0 3.35937.36458 4.29687 1.09375.95052.72916 1.42578 1.82943 1.42578 3.30078 0 1.48437-.47526 2.59115-1.42578 3.32031-.9375.71615-2.36979 1.07422-4.29687 1.07422H79.7207zm260.54687 0h4.96094c1.83594 0 3.2552.47526 4.25781 1.42578 1.0026.95052 1.5039 2.29817 1.5039 4.04297 0 1.75781-.5013 3.11198-1.5039 4.0625-1.00261.95052-2.42187 1.42578-4.25781 1.42578h-4.96094zm-192.42188 2.98828v16.32812h3.02735v-6.95312h1.28906c.70312 0 1.28906.16927 1.75781.50781.48178.32553 1.10678 1.11328 1.875 2.36328l2.51953 4.08203h3.35938l-2.67578-4.35546c-.59896-.95052-1.11979-1.67318-1.5625-2.16797-.42969-.50782-.80078-.81381-1.11328-.91797 1.25-.22136 2.21353-.69662 2.89062-1.42578.6901-.72917 1.03516-1.65365 1.03516-2.77344 0-1.57552-.56642-2.7474-1.69922-3.51563-1.13282-.78125-2.84505-1.17187-5.13672-1.17187zm145.85938 0v16.32812h3.02734v-6.95312h1.28906c.70313 0 1.28907.16927 1.75782.50781.48177.32553 1.10677 1.11328 1.875 2.36328l2.51953 4.08203h3.35937l-2.67578-4.35546c-.59896-.95052-1.11979-1.67318-1.5625-2.16797-.42968-.50782-.80078-.81381-1.11328-.91797 1.25-.22136 2.21355-.69662 2.89063-1.42578.6901-.72917 1.03515-1.65365 1.03515-2.77344 0-1.57552-.5664-2.7474-1.69922-3.51563-1.13281-.78125-2.84505-1.17187-5.13672-1.17187zm110.46875.52734c-2.6823 0-4.84375 1.02214-6.48438 3.06641-1.64062 2.04427-2.46093 4.75912-2.46093 8.14453 0 3.3724.82031 6.08073 2.46093 8.125 1.64063 2.04427 3.80208 3.06641 6.48438 3.06641 1.61458 0 3.0013-.31901 4.16015-.95703 1.15886-.63802 2.10938-1.60156 2.85157-2.89063v1.77734c0 2.48698-.58594 4.34246-1.75782 5.56641-1.17187 1.23698-2.93619 1.85547-5.29296 1.85547-1.06771 0-2.11589-.13672-3.14454-.41016-1.02864-.27344-2.07031-.69661-3.125-1.26953v3.4961c1.05469.39062 2.14193.67708 3.26172.85937 1.1198.19531 2.3112.29297 3.57422.29297 3.41146 0 5.94401-.91146 7.59766-2.73438 1.65364-1.8099 2.48047-4.57682 2.48047-8.30078V330.1543h-3.59375v3.32031c-.74219-1.28906-1.69271-2.25261-2.85157-2.89063-1.15885-.63802-2.54557-.95703-4.16015-.95703zm54.10156 0c-1.52344 0-2.87109.32553-4.04297.97657-1.15885.65104-2.16797 1.63411-3.02734 2.94921v-3.39843h-3.61328v21.875h3.61328v-12.36328c0-2.13542.5599-3.82162 1.67969-5.0586 1.11979-1.23697 2.64973-1.85547 4.58984-1.85547 1.61458 0 2.82552.51433 3.63281 1.54297.8073 1.02865 1.21094 2.57813 1.21094 4.64844v13.08594h3.59375v-13.20313c0-3.02083-.64453-5.30599-1.93359-6.85547-1.28906-1.5625-3.19011-2.34375-5.70313-2.34375zm50.11719 0c-3.13803 0-5.59896 1.01563-7.38281 3.04688-1.77084 2.03125-2.65625 4.84375-2.65625 8.4375 0 3.58072.88541 6.39322 2.65625 8.4375 1.78385 2.03125 4.24478 3.04687 7.38281 3.04687 3.125 0 5.57943-1.01562 7.36328-3.04687 1.78385-2.04428 2.67578-4.85678 2.67578-8.4375 0-3.59375-.89193-6.40625-2.67578-8.4375-1.78385-2.03125-4.23828-3.04688-7.36328-3.04688zm26.8164 0c-1.73176 0-3.20312.32553-4.41406.97657-1.21094.63802-2.19401 1.62109-2.94922 2.94921v-3.39843h-3.61328v21.875h3.61328v-11.52344c0-2.47396.54037-4.36849 1.6211-5.68359 1.09375-1.32813 2.65625-1.99219 4.6875-1.99219.57292 0 1.09375.0586 1.5625.17578.48177.10417.92448.27344 1.32812.50781l-.0195-3.6914c-.36459-.0651-.69661-.11066-.99609-.13672-.29948-.0391-.57292-.0586-.82032-.0586zm54.27735 0c-3.13803 0-5.59896 1.01563-7.38281 3.04688-1.77084 2.03125-2.65625 4.84375-2.65625 8.4375 0 3.58072.88541 6.39322 2.65625 8.4375 1.78385 2.03125 4.24478 3.04687 7.38281 3.04687 3.125 0 5.57943-1.01562 7.36328-3.04687 1.78385-2.04428 2.67578-4.85678 2.67578-8.4375 0-3.59375-.89193-6.40625-2.67578-8.4375-1.78385-2.03125-4.23828-3.04688-7.36328-3.04688zm57.87109 0c-3.28125 0-5.89193 1.05469-7.83203 3.16407-1.92709 2.09635-2.89062 4.93489-2.89062 8.51562 0 3.46355 1.01562 6.21094 3.04687 8.24219 2.04427 2.03125 4.8112 3.04687 8.30078 3.04687 1.39323 0 2.76693-.14322 4.1211-.42968 1.35416-.28646 2.67577-.70313 3.96484-1.25v-3.39844c-1.27605.67708-2.56511 1.1849-3.86719 1.52344-1.28906.33854-2.62369.50781-4.0039.50781-2.38282 0-4.2448-.64454-5.58594-1.9336-1.32813-1.30208-2.07031-3.1901-2.22656-5.66406h16.52343v-1.75781c0-3.25521-.85938-5.82682-2.57812-7.71484-1.70574-1.90104-4.02995-2.85157-6.97266-2.85157zm-276.32812.52735v13.24218c0 3.00782.65104 5.29297 1.95312 6.85547 1.30208 1.5625 3.20963 2.34375 5.72266 2.34375 1.52343 0 2.85807-.319 4.0039-.95703 1.15886-.65104 2.17448-1.64062 3.04688-2.96875v3.35938h3.59375v-21.875h-3.59375v12.40234c0 2.13542-.56641 3.82161-1.69922 5.05859-1.11979 1.23698-2.64974 1.85547-4.58984 1.85547-1.61458 0-2.82552-.51432-3.63282-1.54297-.80729-1.04166-1.21093-2.59765-1.21093-4.66796V330.1543zm65.60547 0v21.875h3.59375v-21.875zm166.73828 0l5.72265 21.875h4.23828l4.72657-17.92969 4.70703 17.92969h4.23828l5.72266-21.875h-3.59375l-4.47266 17.07031-4.49219-17.07031h-4.23828l-4.47266 17.07031-4.49218-17.07031zm-452.5.95703h2.40234c1.41927 0 2.41536.20833 2.98828.625.57292.40364.85938 1.10026.85938 2.08984 0 .97657-.28646 1.66667-.85938 2.07031-.55989.40365-1.55599.60547-2.98828.60547h-2.40234zm145.85937 0h2.40235c1.41927 0 2.41536.20833 2.98828.625.57292.40364.85937 1.10026.85937 2.08984 0 .97657-.28645 1.66667-.85937 2.07031-.5599.40365-1.55599.60547-2.98828.60547h-2.40235zm108.32031 1.52344c1.94011 0 3.44402.71614 4.51172 2.14843 1.08073 1.43229 1.6211 3.45052 1.6211 6.05469 0 2.59115-.54037 4.60286-1.6211 6.03516-1.0677 1.43229-2.57161 2.14843-4.51172 2.14843-1.92708 0-3.43098-.71614-4.51171-2.14843-1.06771-1.4323-1.60157-3.44401-1.60157-6.03516 0-2.60417.53386-4.6224 1.60157-6.05469 1.08073-1.43229 2.58463-2.14843 4.51171-2.14843zm103.33985.0391c1.91406 0 3.43099.76171 4.55078 2.28515 1.11979 1.51042 1.67969 3.5612 1.67969 6.15235 0 2.60416-.5599 4.66145-1.67969 6.17187-1.11979 1.51042-2.63672 2.26563-4.55078 2.26563-1.94011 0-3.47005-.7487-4.58985-2.2461-1.10676-1.51042-1.66015-3.57422-1.66015-6.1914 0-2.61719.5599-4.67448 1.67969-6.17188 1.11979-1.51042 2.64322-2.26562 4.57031-2.26562zm81.09375 0c1.91406 0 3.43099.76171 4.55078 2.28515 1.11979 1.51042 1.67969 3.5612 1.67969 6.15235 0 2.60416-.5599 4.66145-1.67969 6.17187-1.11979 1.51042-2.63672 2.26563-4.55078 2.26563-1.94011 0-3.47005-.7487-4.58985-2.2461-1.10676-1.51042-1.66015-3.57422-1.66015-6.1914 0-2.61719.5599-4.67448 1.67969-6.17188 1.11979-1.51042 2.64322-2.26562 4.57031-2.26562zm57.91015 0c1.77084 0 3.19011.58594 4.25782 1.75781 1.0807 1.17188 1.63409 2.74089 1.66015 4.70703l-12.8125.0195c.1823-2.05729.8724-3.65234 2.07032-4.78515 1.21094-1.13282 2.81901-1.69922 4.82421-1.69922zM79.7207 338.10356h6.32813c2.1224 0 3.6914.4362 4.70703 1.30859 1.02865.85937 1.54297 2.20052 1.54297 4.02344 0 1.80989-.51432 3.15755-1.54297 4.04297-1.01563.87239-2.58464 1.30859-4.70703 1.30859H79.7207zm340.64453 1.36718v3.20313h10.52735v-3.20313z"/></g></svg>