<svg xmlns="http://www.w3.org/2000/svg" role="img" viewBox="-7.97 34.03 414.18 218.18"><title>IBM z Open Editor (Explorer for Visual Studio Code ZOWE V1) logo</title><style>svg {enable-background:new 0 0 400 245}</style><style id="style2" type="text/css">.st0{fill:#4c83c3}</style><g id="g130"><path id="polygon4" fill="#4c83c3" d="m 336.1,42.1 h 62.2 V 53.5 H 332 Z" class="st0"/><path id="path6" d="m 221.5,42.1 h 61.6 l 4,11.5 c 0,0 -65.6,0 -65.6,0 0.1,-0.1 0,-11.5 0,-11.5 z" class="st0"/><path id="path8" d="m 172.7,42.1 c 10.1,1 19,4.6 26.5,11.5 0,0 -111.6,0 -111.6,0 0,0 0,-11.5 0,-11.5 z" class="st0"/><g id="g14"><path id="rect10" fill="#4c83c3" d="m 0,42.099998 h 77.5 v 11.4 H 0 Z" class="st0"/></g><path id="path16" d="m 398.3,75 h -73.9 c 0,0 4,-11.4 4,-11.4 h 69.9 z" class="st0"/><path id="polygon18" fill="#4c83c3" d="m 221.5,63.6 h 69.2 l 4.1,11.4 h -73.3 z" class="st0"/><path id="path20" d="m 207.8,63.6 c 1.5,3.8 3.2,7 3.2,11.4 H 87.6 V 63.6 Z" class="st0"/><g id="g26"><path id="rect22" fill="#4c83c3" d="m 0,63.599998 h 77.5 v 11.4 H 0 Z" class="st0"/></g><path id="polygon28" fill="#4c83c3" d="m 376.4,85.1 v 11.4 h -59.6 l 4.1,-11.4 z" class="st0"/><path id="polygon30" fill="#4c83c3" d="M 243.4,96.5 V 85.1 h 54.9 l 4.1,11.4 z" class="st0"/><path id="path32" d="m 212,85 c 0,3.9 -0.5,8 -1.6,11.4 H 176.6 V 85 Z" class="st0"/><g id="g38"><path id="rect34" fill="#4c83c3" d="m 21.6,85.099998 h 33.3 v 11.4 H 21.6 Z" class="st0"/></g><g id="g44"><path id="rect40" fill="#4c83c3" d="m 110,85 h 33.3 V 96.4 H 110 Z" class="st0"/></g><path id="path46" d="m 276.1,108.8 c 0,0 0,8.7 0,8.7 h -32.8 v -11.4 h 62.4 l 3.9,10.6 c 0,0 3.7,-10.6 3.7,-10.6 h 62.9 v 11.4 h -32.6 c 0,0 0,-8.7 0,-8.7 l -3,8.7 H 279 Z" class="st0"/><path id="path48" d="m 110,106.1 h 95.5 v 0 c -2.1,3.8 -5.9,8.4 -9.5,11.4 0,0 -86,0 -86,0 0,0 0,-11.4 0,-11.4 z" class="st0"/><g id="g54"><path id="rect50" fill="#4c83c3" d="m 21.6,106.1 h 33.3 v 11.4 H 21.6 Z" class="st0"/></g><g id="g60"><path id="rect56" fill="#4c83c3" d="m 343.79999,127.6 h 32.6 V 139 h -32.6 z" class="st0"/></g><path id="path62" d="M 276.1,127.6 H 243.3 V 139 c 0,0 32.8,0 32.8,0 0,-0.1 0.1,-11.4 0,-11.4 z" class="st0"/><path id="path64" d="m 337.2,127.6 c -0.1,0 -3.8,11.4 -4,11.4 h -46.4 c 0,0 -4.1,-11.4 -4.1,-11.4 z" class="st0"/><path id="path66" d="m 110,127.6 h 85.8 c 3.9,3.3 7.5,7.3 10.2,11.4 0.2,0 -96.1,0 -96.1,0 0.1,-0.1 0.1,-11.4 0.1,-11.4 z" class="st0"/><path id="path68" d="M 54.9,138.9 V 127.5 H 21.7 c 0,0 0,11.4 0,11.4 0,0 33.2,0 33.2,0 z" class="st0"/><g id="g74"><path id="rect70" fill="#4c83c3" d="m 343.79999,149 h 32.6 v 11.4 h -32.6 z" class="st0"/></g><g id="g80"><path id="rect76" fill="#4c83c3" d="m 243.39999,149 h 32.8 v 11.4 h -32.8 z" class="st0"/></g><path id="path82" d="m 325.6,160.4 c 0,-0.1 4,-11.4 4.1,-11.4 h -39.5 c -0.1,0 4,11.4 4,11.4 0,0 31.4,0.1 31.4,0 z" class="st0"/><path id="path84" d="m 110,160.4 c 0,0 0,-11.4 0,-11.4 h 33.8 c 0,0 0,11.4 0,11.4 -0.1,0 -33.8,0 -33.8,0 z" class="st0"/><path id="path86" d="m 210.8,149 c 1.6,3.4 1.8,7.5 2.1,11.4 H 177.1 V 149 Z" class="st0"/><g id="g92"><path id="rect88" fill="#4c83c3" d="M 21.700001,149 H 55 v 11.4 H 21.700001 Z" class="st0"/></g><g id="g98"><path id="rect94" fill="#4c83c3" d="m 343.79999,170 h 54.5 v 11.4 h -54.5 z" class="st0"/></g><g id="g104"><path id="rect100" fill="#4c83c3" d="m 221.5,170 h 54.6 v 11.4 h -54.6 z" class="st0"/></g><path id="polygon106" fill="#4c83c3" d="m 297.6,170 h 24.5 l -3.9,11.4 h -16.6 z" class="st0"/><path id="path108" d="m 0,170 v 11.4 h 77.5 c 0,0 0,-11.4 0,-11.4 0,0 -77.6,0 -77.5,0 z" class="st0"/><path id="path110" d="m 211.5,170 c -0.8,3.8 -1.6,8.3 -4.3,11.4 h -1 H 87.6 V 170 Z" class="st0"/><path id="polygon112" fill="#4c83c3" d="m 305.3,191.5 h 9.4 l -4,11.4 h -1.5 z" class="st0"/><g id="g118"><path id="rect114" fill="#4c83c3" d="m 343.79999,191.5 h 54.5 v 11.4 h -54.5 z" class="st0"/></g><path id="path120" d="m 87.6,202.9 v -11.4 c 0,0 111.9,0 112.2,0 -7.5,7.2 -17.8,11.2 -28.9,11.4 H 87.6" class="st0"/><g id="g126"><path id="rect122" fill="#4c83c3" d="m 221.5,191.5 h 54.6 v 11.4 h -54.6 z" class="st0"/></g><path id="path128" d="m 77.5,191.5 c 0,0 0,11.4 0,11.4 0,0 -77.4,0 -77.5,0 0,0 0,-11.4 0,-11.4 0,0 77.4,0.1 77.5,0 z" class="st0"/></g><g id="text132" text-anchor="middle"><path id="path158" d="m 107.34863,240 h -6.3164 v -1.63281 h 2.09472 V 225.6377 h -2.09472 v -1.63282 h 6.3164 v 1.63282 h -2.09472 v 12.72949 h 2.09472 z"/><path id="path160" d="m 123.05371,235.08008 q 0,1.19238 -0.45117,2.10547 -0.45117,0.91308 -1.21387,1.5039 -0.90234,0.70899 -1.9873,1.00977 Q 118.32715,240 116.66211,240 h -5.67188 v -15.99512 h 4.73731 q 1.75098,0 2.62109,0.12891 0.87012,0.12891 1.66504,0.53711 0.88086,0.46191 1.27832,1.19238 0.39746,0.71973 0.39746,1.72949 0,1.13868 -0.58007,1.94434 -0.58008,0.79492 -1.54688,1.27832 v 0.0859 q 1.62207,0.333 2.55664,1.42871 0.93457,1.08496 0.93457,2.75 z m -3.57715,-7.20801 q 0,-0.58008 -0.19336,-0.97754 -0.19336,-0.39746 -0.62304,-0.64453 -0.50489,-0.29004 -1.22461,-0.35449 -0.71973,-0.0752 -1.78321,-0.0752 h -2.53515 v 4.61914 h 2.75 q 0.99902,0 1.58984,-0.0967 0.59082,-0.10742 1.0957,-0.42968 0.50489,-0.32227 0.70899,-0.82715 0.21484,-0.51563 0.21484,-1.21387 z m 1.36426,7.29395 q 0,-0.9668 -0.29004,-1.53614 -0.29004,-0.56933 -1.05273,-0.96679 -0.51563,-0.26856 -1.25684,-0.34375 -0.73047,-0.0859 -1.7832,-0.0859 h -3.34082 v 5.95117 h 2.81445 q 1.39649,0 2.28809,-0.13965 0.8916,-0.15039 1.46093,-0.53711 0.60157,-0.41894 0.88086,-0.95605 0.2793,-0.53711 0.2793,-1.38574 z"/><path id="path162" d="m 140.31641,240 h -2.12696 v -13.78223 l -4.44726,9.37793 h -1.26758 l -4.41504,-9.37793 V 240 h -1.9873 v -15.99512 h 2.90039 l 4.26464,8.90528 4.125,-8.90528 h 2.95411 z"/><path id="path164" d="m 160.90918,240 h -9.68945 v -1.49316 l 6.99316,-8.81934 h -6.84277 v -1.68652 h 9.35644 v 1.43945 l -7.02539,8.85156 h 7.20801 z"/><path id="path166" d="m 183.58594,225.8418 q 0.97754,1.07422 1.49316,2.63183 0.52637,1.55762 0.52637,3.53418 0,1.97656 -0.53711,3.54492 -0.52637,1.55762 -1.48242,2.59961 -0.98828,1.08496 -2.3418,1.63282 -1.34277,0.54785 -3.07227,0.54785 -1.68652,0 -3.07226,-0.5586 -1.375,-0.55859 -2.3418,-1.62207 -0.96679,-1.06347 -1.49316,-2.61035 -0.51563,-1.54687 -0.51563,-3.53418 0,-1.95508 0.51563,-3.50195 0.51562,-1.55762 1.5039,-2.66406 0.94532,-1.05274 2.3418,-1.61133 1.40723,-0.5586 3.06152,-0.5586 1.71875,0 3.08301,0.56934 1.375,0.55859 2.33106,1.60059 z m -0.19336,6.16601 q 0,-3.11523 -1.39649,-4.80176 -1.39648,-1.69726 -3.81347,-1.69726 -2.43848,0 -3.83496,1.69726 -1.38575,1.68653 -1.38575,4.80176 0,3.14746 1.41797,4.82324 1.41797,1.66504 3.80274,1.66504 2.38476,0 3.79199,-1.66504 1.41797,-1.67578 1.41797,-4.82324 z"/><path id="path168" d="m 199.37695,233.85547 q 0,1.46094 -0.41894,2.6748 -0.41895,1.20313 -1.18164,2.04102 -0.70899,0.79492 -1.67578,1.23535 -0.95606,0.42969 -2.03028,0.42969 -0.93457,0 -1.69726,-0.2041 -0.75196,-0.20411 -1.53614,-0.63379 v 5.02734 h -2.01953 v -16.4248 h 2.01953 v 1.25683 q 0.80567,-0.67676 1.80469,-1.12793 1.00977,-0.46191 2.14844,-0.46191 2.16992,0 3.37305,1.64355 1.21386,1.63282 1.21386,4.54395 z m -2.08398,0.0537 q 0,-2.16992 -0.74121,-3.24414 -0.74121,-1.07422 -2.27735,-1.07422 -0.87011,0 -1.75097,0.37598 -0.88086,0.37597 -1.68653,0.98828 v 6.7998 q 0.85938,0.38672 1.47168,0.52637 0.62305,0.13965 1.40723,0.13965 1.68652,0 2.63184,-1.13867 0.94531,-1.13868 0.94531,-3.37305 z"/><path id="path170" d="m 212.56836,234.20996 h -8.84082 q 0,1.10645 0.33301,1.93359 0.333,0.81641 0.91308,1.34278 0.5586,0.51562 1.32129,0.77344 0.77344,0.25781 1.69727,0.25781 1.22461,0 2.45996,-0.4834 1.24609,-0.49414 1.77246,-0.9668 h 0.10742 v 2.20215 q -1.02051,0.42969 -2.08398,0.71973 -1.06348,0.29004 -2.23438,0.29004 -2.98633,0 -4.66211,-1.61133 -1.67578,-1.62207 -1.67578,-4.59766 0,-2.94336 1.60059,-4.67285 1.61133,-1.72949 4.23242,-1.72949 2.42773,0 3.73828,1.41797 1.32129,1.41797 1.32129,4.02832 z m -1.96582,-1.54687 q -0.0107,-1.58985 -0.80567,-2.45997 -0.78417,-0.87011 -2.3955,-0.87011 -1.62207,0 -2.58887,0.95605 -0.95605,0.95606 -1.08496,2.37403 z"/><path id="path172" d="m 225.66309,240 h -2.01954 v -6.83203 q 0,-0.82715 -0.0967,-1.54688 -0.0967,-0.73047 -0.35449,-1.13867 -0.26855,-0.45117 -0.77343,-0.66601 -0.50489,-0.22559 -1.31055,-0.22559 -0.82715,0 -1.72949,0.4082 -0.90235,0.40821 -1.7295,1.042 V 240 h -2.01953 v -11.99902 h 2.01953 v 1.33203 q 0.94532,-0.78418 1.95508,-1.22461 1.00977,-0.44043 2.07324,-0.44043 1.94434,0 2.96485,1.1709 1.02051,1.1709 1.02051,3.37304 z"/><path id="path174" d="m 247.98535,240 h -10.53808 v -15.99512 h 10.53808 v 1.89063 h -8.41113 v 4.38281 h 8.41113 v 1.89063 h -8.41113 v 5.94042 h 8.41113 z"/><path id="path176" d="m 260.94043,240 h -2.01953 v -1.25684 q -0.87012,0.75196 -1.81543,1.1709 -0.94531,0.41895 -2.05176,0.41895 -2.14844,0 -3.41601,-1.6543 -1.25684,-1.6543 -1.25684,-4.58691 0,-1.52539 0.42969,-2.71778 0.44043,-1.19238 1.18164,-2.03027 0.73047,-0.81641 1.69726,-1.24609 0.97754,-0.42969 2.01953,-0.42969 0.94532,0 1.67579,0.2041 0.73046,0.19336 1.53613,0.6123 v -5.19921 h 2.01953 z m -2.01953,-2.9541 v -6.88574 q -0.81641,-0.36524 -1.46094,-0.50489 -0.64453,-0.13965 -1.40723,-0.13965 -1.69726,0 -2.64257,1.18165 -0.94532,1.18164 -0.94532,3.35156 0,2.13769 0.73047,3.25488 0.73047,1.10645 2.3418,1.10645 0.85937,0 1.74023,-0.37598 0.88086,-0.38672 1.64356,-0.98828 z"/><path id="path178" d="m 267.08496,225.99219 h -2.27734 v -2.09473 h 2.27734 z M 266.95605,240 h -2.01953 v -11.99902 h 2.01953 z"/><path id="path180" d="m 277.2041,239.89258 q -0.56933,0.15039 -1.24609,0.24707 -0.66602,0.0967 -1.19239,0.0967 -1.83691,0 -2.79296,-0.98828 -0.95606,-0.98828 -0.95606,-3.16895 v -6.38086 h -1.36426 v -1.69726 h 1.36426 v -3.44825 h 2.01953 v 3.44825 h 4.16797 v 1.69726 h -4.16797 v 5.46778 q 0,0.94531 0.043,1.48242 0.043,0.52636 0.30078,0.98828 0.23633,0.42969 0.64453,0.63379 0.41895,0.19336 1.26758,0.19336 0.49414,0 1.03125,-0.13965 0.53711,-0.15039 0.77344,-0.24707 h 0.10742 z"/><path id="path182" d="m 289.87988,234.00586 q 0,2.93262 -1.5039,4.62988 -1.50391,1.69727 -4.02832,1.69727 -2.5459,0 -4.04981,-1.69727 -1.49316,-1.69726 -1.49316,-4.62988 0,-2.93262 1.49316,-4.62988 1.50391,-1.70801 4.04981,-1.70801 2.52441,0 4.02832,1.70801 1.5039,1.69726 1.5039,4.62988 z m -2.08398,0 q 0,-2.33106 -0.91309,-3.45899 -0.91308,-1.13867 -2.53515,-1.13867 -1.64356,0 -2.55664,1.13867 -0.90235,1.12793 -0.90235,3.45899 0,2.25586 0.91309,3.42676 0.91308,1.16015 2.5459,1.16015 1.61132,0 2.52441,-1.14941 0.92383,-1.16016 0.92383,-3.4375 z"/><path id="path184" d="m 300.50391,230.20312 h -0.10743 q -0.45117,-0.10742 -0.88086,-0.15039 -0.41894,-0.0537 -0.99902,-0.0537 -0.93457,0 -1.80469,0.41895 -0.87011,0.4082 -1.67578,1.06348 V 240 h -2.01953 v -11.99902 h 2.01953 v 1.77246 q 1.20313,-0.9668 2.11621,-1.36426 0.92383,-0.4082 1.87989,-0.4082 0.52636,0 0.76269,0.0322 0.23633,0.0215 0.70899,0.0967 z"/></g></svg>