<svg xmlns="http://www.w3.org/2000/svg" role="img" viewBox="-7.97 34.03 414.18 218.43"><title>IBM RSE API Plug-in (Explorer for Visual Studio Code ZOWE V1) logo</title><style>svg {enable-background:new 0 0 400 245}</style><style id="style2" type="text/css">.st0{fill:#4c83c3}</style><g id="g130"><path id="polygon4" fill="#4c83c3" d="m 336.1,42.1 h 62.2 V 53.5 H 332 Z" class="st0"/><path id="path6" d="m 221.5,42.1 h 61.6 l 4,11.5 c 0,0 -65.6,0 -65.6,0 0.1,-0.1 0,-11.5 0,-11.5 z" class="st0"/><path id="path8" d="m 172.7,42.1 c 10.1,1 19,4.6 26.5,11.5 0,0 -111.6,0 -111.6,0 0,0 0,-11.5 0,-11.5 z" class="st0"/><g id="g14"><path id="rect10" fill="#4c83c3" d="m 0,42.099998 h 77.5 v 11.4 H 0 Z" class="st0"/></g><path id="path16" d="m 398.3,75 h -73.9 c 0,0 4,-11.4 4,-11.4 h 69.9 z" class="st0"/><path id="polygon18" fill="#4c83c3" d="m 221.5,63.6 h 69.2 l 4.1,11.4 h -73.3 z" class="st0"/><path id="path20" d="m 207.8,63.6 c 1.5,3.8 3.2,7 3.2,11.4 H 87.6 V 63.6 Z" class="st0"/><g id="g26"><path id="rect22" fill="#4c83c3" d="m 0,63.599998 h 77.5 v 11.4 H 0 Z" class="st0"/></g><path id="polygon28" fill="#4c83c3" d="m 376.4,85.1 v 11.4 h -59.6 l 4.1,-11.4 z" class="st0"/><path id="polygon30" fill="#4c83c3" d="M 243.4,96.5 V 85.1 h 54.9 l 4.1,11.4 z" class="st0"/><path id="path32" d="m 212,85 c 0,3.9 -0.5,8 -1.6,11.4 H 176.6 V 85 Z" class="st0"/><g id="g38"><path id="rect34" fill="#4c83c3" d="m 21.6,85.099998 h 33.3 v 11.4 H 21.6 Z" class="st0"/></g><g id="g44"><path id="rect40" fill="#4c83c3" d="m 110,85 h 33.3 V 96.4 H 110 Z" class="st0"/></g><path id="path46" d="m 276.1,108.8 c 0,0 0,8.7 0,8.7 h -32.8 v -11.4 h 62.4 l 3.9,10.6 c 0,0 3.7,-10.6 3.7,-10.6 h 62.9 v 11.4 h -32.6 c 0,0 0,-8.7 0,-8.7 l -3,8.7 H 279 Z" class="st0"/><path id="path48" d="m 110,106.1 h 95.5 v 0 c -2.1,3.8 -5.9,8.4 -9.5,11.4 0,0 -86,0 -86,0 0,0 0,-11.4 0,-11.4 z" class="st0"/><g id="g54"><path id="rect50" fill="#4c83c3" d="m 21.6,106.1 h 33.3 v 11.4 H 21.6 Z" class="st0"/></g><g id="g60"><path id="rect56" fill="#4c83c3" d="m 343.79999,127.6 h 32.6 V 139 h -32.6 z" class="st0"/></g><path id="path62" d="M 276.1,127.6 H 243.3 V 139 c 0,0 32.8,0 32.8,0 0,-0.1 0.1,-11.4 0,-11.4 z" class="st0"/><path id="path64" d="m 337.2,127.6 c -0.1,0 -3.8,11.4 -4,11.4 h -46.4 c 0,0 -4.1,-11.4 -4.1,-11.4 z" class="st0"/><path id="path66" d="m 110,127.6 h 85.8 c 3.9,3.3 7.5,7.3 10.2,11.4 0.2,0 -96.1,0 -96.1,0 0.1,-0.1 0.1,-11.4 0.1,-11.4 z" class="st0"/><path id="path68" d="M 54.9,138.9 V 127.5 H 21.7 c 0,0 0,11.4 0,11.4 0,0 33.2,0 33.2,0 z" class="st0"/><g id="g74"><path id="rect70" fill="#4c83c3" d="m 343.79999,149 h 32.6 v 11.4 h -32.6 z" class="st0"/></g><g id="g80"><path id="rect76" fill="#4c83c3" d="m 243.39999,149 h 32.8 v 11.4 h -32.8 z" class="st0"/></g><path id="path82" d="m 325.6,160.4 c 0,-0.1 4,-11.4 4.1,-11.4 h -39.5 c -0.1,0 4,11.4 4,11.4 0,0 31.4,0.1 31.4,0 z" class="st0"/><path id="path84" d="m 110,160.4 c 0,0 0,-11.4 0,-11.4 h 33.8 c 0,0 0,11.4 0,11.4 -0.1,0 -33.8,0 -33.8,0 z" class="st0"/><path id="path86" d="m 210.8,149 c 1.6,3.4 1.8,7.5 2.1,11.4 H 177.1 V 149 Z" class="st0"/><g id="g92"><path id="rect88" fill="#4c83c3" d="M 21.700001,149 H 55 v 11.4 H 21.700001 Z" class="st0"/></g><g id="g98"><path id="rect94" fill="#4c83c3" d="m 343.79999,170 h 54.5 v 11.4 h -54.5 z" class="st0"/></g><g id="g104"><path id="rect100" fill="#4c83c3" d="m 221.5,170 h 54.6 v 11.4 h -54.6 z" class="st0"/></g><path id="polygon106" fill="#4c83c3" d="m 297.6,170 h 24.5 l -3.9,11.4 h -16.6 z" class="st0"/><path id="path108" d="m 0,170 v 11.4 h 77.5 c 0,0 0,-11.4 0,-11.4 0,0 -77.6,0 -77.5,0 z" class="st0"/><path id="path110" d="m 211.5,170 c -0.8,3.8 -1.6,8.3 -4.3,11.4 h -1 H 87.6 V 170 Z" class="st0"/><path id="polygon112" fill="#4c83c3" d="m 305.3,191.5 h 9.4 l -4,11.4 h -1.5 z" class="st0"/><g id="g118"><path id="rect114" fill="#4c83c3" d="m 343.79999,191.5 h 54.5 v 11.4 h -54.5 z" class="st0"/></g><path id="path120" d="m 87.6,202.9 v -11.4 c 0,0 111.9,0 112.2,0 -7.5,7.2 -17.8,11.2 -28.9,11.4 H 87.6" class="st0"/><g id="g126"><path id="rect122" fill="#4c83c3" d="m 221.5,191.5 h 54.6 v 11.4 h -54.6 z" class="st0"/></g><path id="path128" d="m 77.5,191.5 c 0,0 0,11.4 0,11.4 0,0 -77.4,0 -77.5,0 0,0 0,-11.4 0,-11.4 0,0 77.4,0.1 77.5,0 z" class="st0"/></g><g id="text132" text-anchor="middle"><path id="path158" d="m 95.317383,240 h -6.316406 v -1.63281 h 2.094726 V 225.6377 h -2.094726 v -1.63282 h 6.316406 v 1.63282 h -2.094727 v 12.72949 h 2.094727 z"/><path id="path160" d="m 111.02246,235.08008 q 0,1.19238 -0.45117,2.10547 -0.45117,0.91308 -1.21387,1.5039 -0.90234,0.70899 -1.9873,1.00977 Q 106.2959,240 104.63086,240 h -5.671876 v -15.99512 h 4.737306 q 1.75098,0 2.62109,0.12891 0.87012,0.12891 1.66504,0.53711 0.88086,0.46191 1.27832,1.19238 0.39746,0.71973 0.39746,1.72949 0,1.13868 -0.58007,1.94434 -0.58008,0.79492 -1.54688,1.27832 v 0.0859 q 1.62207,0.333 2.55664,1.42871 0.93457,1.08496 0.93457,2.75 z m -3.57715,-7.20801 q 0,-0.58008 -0.19336,-0.97754 -0.19336,-0.39746 -0.62304,-0.64453 -0.50489,-0.29004 -1.22461,-0.35449 -0.71973,-0.0752 -1.78321,-0.0752 h -2.53515 v 4.61914 h 2.75 q 0.99902,0 1.58984,-0.0967 0.59082,-0.10742 1.0957,-0.42968 0.50489,-0.32227 0.70899,-0.82715 0.21484,-0.51563 0.21484,-1.21387 z m 1.36426,7.29395 q 0,-0.9668 -0.29004,-1.53614 -0.29004,-0.56933 -1.05273,-0.96679 -0.51563,-0.26856 -1.25684,-0.34375 -0.73047,-0.0859 -1.7832,-0.0859 h -3.34082 v 5.95117 h 2.81445 q 1.39649,0 2.28809,-0.13965 0.8916,-0.15039 1.46093,-0.53711 0.60157,-0.41894 0.88086,-0.95605 0.2793,-0.53711 0.2793,-1.38574 z"/><path id="path162" d="m 128.28516,240 h -2.12696 v -13.78223 l -4.44726,9.37793 h -1.26758 l -4.41504,-9.37793 V 240 h -1.9873 v -15.99512 h 2.90039 l 4.26464,8.90528 4.125,-8.90528 h 2.95411 z"/><path id="path164" d="m 153.57227,240 h -2.76075 l -5.34961,-6.35938 h -2.99707 V 240 h -2.12695 v -15.99512 h 4.47949 q 1.4502,0 2.41699,0.19336 0.9668,0.18262 1.74024,0.66602 0.87012,0.54785 1.35351,1.38574 0.49415,0.82715 0.49415,2.10547 0,1.72949 -0.87012,2.90039 -0.87012,1.16016 -2.39551,1.75098 z m -4.97364,-11.49414 q 0,-0.6875 -0.24707,-1.21387 -0.23633,-0.53711 -0.79492,-0.90234 -0.46191,-0.31153 -1.0957,-0.42969 -0.63379,-0.12891 -1.49317,-0.12891 h -2.50293 v 6.03711 h 2.14844 q 1.00977,0 1.76172,-0.17187 0.75195,-0.18262 1.27832,-0.66602 0.4834,-0.45117 0.70898,-1.03125 0.23633,-0.59082 0.23633,-1.49316 z"/><path id="path166" d="m 167.25781,235.43457 q 0,0.93457 -0.44043,1.84766 -0.42968,0.91308 -1.21386,1.54687 -0.85938,0.6875 -2.00879,1.07422 -1.13868,0.38672 -2.75,0.38672 -1.7295,0 -3.11524,-0.32227 -1.375,-0.32226 -2.80371,-0.95605 v -2.66406 h 0.15039 q 1.21387,1.00976 2.80371,1.55761 1.58985,0.54785 2.98633,0.54785 1.97656,0 3.07227,-0.74121 1.10644,-0.74121 1.10644,-1.97656 0,-1.06348 -0.52637,-1.56836 -0.51562,-0.50488 -1.5791,-0.78418 -0.80566,-0.21484 -1.75097,-0.35449 -0.93457,-0.13965 -1.98731,-0.35449 -2.12695,-0.45117 -3.1582,-1.53613 -1.02051,-1.09571 -1.02051,-2.84668 0,-2.00879 1.69727,-3.28711 1.69726,-1.28907 4.30761,-1.28907 1.68653,0 3.09375,0.32227 1.40723,0.32226 2.49219,0.79492 v 2.51367 h -0.15039 q -0.91309,-0.77343 -2.40625,-1.27832 -1.48242,-0.51562 -3.04004,-0.51562 -1.70801,0 -2.75,0.70898 -1.03125,0.70899 -1.03125,1.82617 0,0.99903 0.51563,1.56836 0.51562,0.56934 1.81543,0.87012 0.6875,0.15039 1.95507,0.36523 1.26758,0.21485 2.14844,0.44043 1.7832,0.47266 2.68555,1.42872 0.90234,0.95605 0.90234,2.6748 z"/><path id="path168" d="m 181.21191,240 h -10.53808 v -15.99512 h 10.53808 v 1.89063 h -8.41113 v 4.38281 h 8.41113 v 1.89063 h -8.41113 v 5.94042 h 8.41113 z"/><path id="path170" d="m 204.94141,240 h -2.26661 l -1.56835,-4.45801 h -6.91797 L 192.62012,240 h -2.15918 l 5.82226,-15.99512 h 2.83594 z m -4.49024,-6.28418 -2.80371,-7.85254 -2.81445,7.85254 z"/><path id="path172" d="m 217.83203,228.83887 q 0,1.06347 -0.37598,1.97656 -0.36523,0.90234 -1.03125,1.56836 -0.82714,0.82715 -1.95507,1.24609 -1.12793,0.40821 -2.84668,0.40821 h -2.12696 V 240 h -2.12695 v -15.99512 h 4.33984 q 1.43946,0 2.43848,0.24707 0.99902,0.23633 1.77246,0.75196 0.91309,0.6123 1.40723,1.52539 0.50488,0.91308 0.50488,2.30957 z m -2.21289,0.0537 q 0,-0.82715 -0.29004,-1.43946 -0.29004,-0.6123 -0.88086,-0.99902 -0.51562,-0.33301 -1.18164,-0.47265 -0.65527,-0.1504 -1.66504,-0.1504 h -2.10547 v 6.39161 h 1.79395 q 1.28906,0 2.09473,-0.22559 0.80566,-0.23633 1.31054,-0.74121 0.50489,-0.51563 0.70899,-1.08496 0.21484,-0.56934 0.21484,-1.27832 z"/><path id="path174" d="m 226.28613,240 h -6.3164 v -1.63281 h 2.09472 V 225.6377 h -2.09472 v -1.63282 h 6.3164 v 1.63282 h -2.09472 v 12.72949 h 2.09472 z"/><path id="path176" d="m 248.125,228.83887 q 0,1.06347 -0.37598,1.97656 -0.36523,0.90234 -1.03125,1.56836 -0.82715,0.82715 -1.95507,1.24609 -1.12793,0.40821 -2.84668,0.40821 h -2.12696 V 240 h -2.12695 v -15.99512 h 4.33984 q 1.43946,0 2.43848,0.24707 0.99902,0.23633 1.77246,0.75196 0.91309,0.6123 1.40723,1.52539 0.50488,0.91308 0.50488,2.30957 z m -2.21289,0.0537 q 0,-0.82715 -0.29004,-1.43946 -0.29004,-0.6123 -0.88086,-0.99902 -0.51562,-0.33301 -1.18164,-0.47265 -0.65527,-0.1504 -1.66504,-0.1504 h -2.10547 v 6.39161 h 1.79395 q 1.28906,0 2.09472,-0.22559 0.80567,-0.23633 1.31055,-0.74121 0.50488,-0.51563 0.70899,-1.08496 0.21484,-0.56934 0.21484,-1.27832 z"/><path id="path178" d="m 252.81934,240 h -2.01954 v -16.71484 h 2.01954 z"/><path id="path180" d="m 266.78418,240 h -2.01953 v -1.33203 q -1.02051,0.80566 -1.95508,1.23535 -0.93457,0.42969 -2.0625,0.42969 -1.89062,0 -2.94336,-1.14942 -1.05273,-1.16015 -1.05273,-3.39453 v -7.78808 h 2.01953 v 6.83203 q 0,0.91308 0.0859,1.56836 0.0859,0.64453 0.36523,1.10644 0.29004,0.47266 0.75195,0.6875 0.46192,0.21485 1.34278,0.21485 0.78418,0 1.708,-0.40821 0.93457,-0.4082 1.74024,-1.04199 v -8.95898 h 2.01953 z"/><path id="path182" d="m 280.49121,238.63574 q 0,3.05078 -1.38574,4.47949 -1.38574,1.42872 -4.26465,1.42872 -0.95605,0 -1.86914,-0.13965 -0.90234,-0.12891 -1.7832,-0.37598 v -2.0625 h 0.10742 q 0.49414,0.19336 1.56836,0.47266 1.07422,0.29004 2.14844,0.29004 1.03125,0 1.708,-0.24707 0.67676,-0.24708 1.05274,-0.6875 0.37597,-0.41895 0.53711,-1.00977 0.16113,-0.59082 0.16113,-1.32129 v -1.0957 q -0.91309,0.73047 -1.75098,1.0957 -0.82715,0.35449 -2.11621,0.35449 -2.14844,0 -3.41601,-1.54687 -1.25684,-1.55762 -1.25684,-4.38281 0,-1.54688 0.42969,-2.66407 0.44043,-1.12793 1.19238,-1.94433 0.69824,-0.7627 1.69727,-1.18164 0.99902,-0.42969 1.9873,-0.42969 1.04199,0 1.74024,0.21484 0.70898,0.2041 1.49316,0.63379 l 0.12891,-0.51562 h 1.89062 z m -2.01953,-1.93359 v -6.54199 q -0.80566,-0.36524 -1.50391,-0.51563 -0.6875,-0.16113 -1.375,-0.16113 -1.66504,0 -2.62109,1.11719 -0.95606,1.11718 -0.95606,3.24414 0,2.01953 0.70899,3.06152 0.70898,1.04199 2.35254,1.04199 0.88086,0 1.76172,-0.33301 0.8916,-0.34375 1.63281,-0.91308 z"/><path id="path184" d="m 290.8252,233.97363 h -6.70313 v -1.94433 h 6.70313 z"/><path id="path186" d="m 296.64746,225.99219 h -2.27734 v -2.09473 h 2.27734 z M 296.51855,240 h -2.01953 v -11.99902 h 2.01953 z"/><path id="path188" d="m 310.56934,240 h -2.01954 v -6.83203 q 0,-0.82715 -0.0967,-1.54688 -0.0967,-0.73047 -0.35449,-1.13867 -0.26855,-0.45117 -0.77343,-0.66601 -0.50489,-0.22559 -1.31055,-0.22559 -0.82715,0 -1.72949,0.4082 -0.90235,0.40821 -1.7295,1.042 V 240 h -2.01953 v -11.99902 h 2.01953 v 1.33203 q 0.94532,-0.78418 1.95508,-1.22461 1.00977,-0.44043 2.07324,-0.44043 1.94434,0 2.96485,1.1709 1.02051,1.1709 1.02051,3.37304 z"/></g></svg>