<svg xmlns="http://www.w3.org/2000/svg" role="img" viewBox="-7.97 34.03 414.18 218.43"><title>IBM® Service Management Unite(SMU) (App Framework 2019) logo</title><style>svg {enable-background:new 0 0 400 245}</style><style id="style2" type="text/css">.st0{fill:#4c83c3}</style><g id="g130"><path id="polygon4" fill="#4c83c3" d="m 336.1,42.1 h 62.2 V 53.5 H 332 Z" class="st0"/><path id="path6" d="m 221.5,42.1 h 61.6 l 4,11.5 c 0,0 -65.6,0 -65.6,0 0.1,-0.1 0,-11.5 0,-11.5 z" class="st0"/><path id="path8" d="m 172.7,42.1 c 10.1,1 19,4.6 26.5,11.5 0,0 -111.6,0 -111.6,0 0,0 0,-11.5 0,-11.5 z" class="st0"/><g id="g14"><path id="rect10" fill="#4c83c3" d="m 0,42.099998 h 77.5 v 11.4 H 0 Z" class="st0"/></g><path id="path16" d="m 398.3,75 h -73.9 c 0,0 4,-11.4 4,-11.4 h 69.9 z" class="st0"/><path id="polygon18" fill="#4c83c3" d="m 221.5,63.6 h 69.2 l 4.1,11.4 h -73.3 z" class="st0"/><path id="path20" d="m 207.8,63.6 c 1.5,3.8 3.2,7 3.2,11.4 H 87.6 V 63.6 Z" class="st0"/><g id="g26"><path id="rect22" fill="#4c83c3" d="m 0,63.599998 h 77.5 v 11.4 H 0 Z" class="st0"/></g><path id="polygon28" fill="#4c83c3" d="m 376.4,85.1 v 11.4 h -59.6 l 4.1,-11.4 z" class="st0"/><path id="polygon30" fill="#4c83c3" d="M 243.4,96.5 V 85.1 h 54.9 l 4.1,11.4 z" class="st0"/><path id="path32" d="m 212,85 c 0,3.9 -0.5,8 -1.6,11.4 H 176.6 V 85 Z" class="st0"/><g id="g38"><path id="rect34" fill="#4c83c3" d="m 21.6,85.099998 h 33.3 v 11.4 H 21.6 Z" class="st0"/></g><g id="g44"><path id="rect40" fill="#4c83c3" d="m 110,85 h 33.3 V 96.4 H 110 Z" class="st0"/></g><path id="path46" d="m 276.1,108.8 c 0,0 0,8.7 0,8.7 h -32.8 v -11.4 h 62.4 l 3.9,10.6 c 0,0 3.7,-10.6 3.7,-10.6 h 62.9 v 11.4 h -32.6 c 0,0 0,-8.7 0,-8.7 l -3,8.7 H 279 Z" class="st0"/><path id="path48" d="m 110,106.1 h 95.5 v 0 c -2.1,3.8 -5.9,8.4 -9.5,11.4 0,0 -86,0 -86,0 0,0 0,-11.4 0,-11.4 z" class="st0"/><g id="g54"><path id="rect50" fill="#4c83c3" d="m 21.6,106.1 h 33.3 v 11.4 H 21.6 Z" class="st0"/></g><g id="g60"><path id="rect56" fill="#4c83c3" d="m 343.79999,127.6 h 32.6 V 139 h -32.6 z" class="st0"/></g><path id="path62" d="M 276.1,127.6 H 243.3 V 139 c 0,0 32.8,0 32.8,0 0,-0.1 0.1,-11.4 0,-11.4 z" class="st0"/><path id="path64" d="m 337.2,127.6 c -0.1,0 -3.8,11.4 -4,11.4 h -46.4 c 0,0 -4.1,-11.4 -4.1,-11.4 z" class="st0"/><path id="path66" d="m 110,127.6 h 85.8 c 3.9,3.3 7.5,7.3 10.2,11.4 0.2,0 -96.1,0 -96.1,0 0.1,-0.1 0.1,-11.4 0.1,-11.4 z" class="st0"/><path id="path68" d="M 54.9,138.9 V 127.5 H 21.7 c 0,0 0,11.4 0,11.4 0,0 33.2,0 33.2,0 z" class="st0"/><g id="g74"><path id="rect70" fill="#4c83c3" d="m 343.79999,149 h 32.6 v 11.4 h -32.6 z" class="st0"/></g><g id="g80"><path id="rect76" fill="#4c83c3" d="m 243.39999,149 h 32.8 v 11.4 h -32.8 z" class="st0"/></g><path id="path82" d="m 325.6,160.4 c 0,-0.1 4,-11.4 4.1,-11.4 h -39.5 c -0.1,0 4,11.4 4,11.4 0,0 31.4,0.1 31.4,0 z" class="st0"/><path id="path84" d="m 110,160.4 c 0,0 0,-11.4 0,-11.4 h 33.8 c 0,0 0,11.4 0,11.4 -0.1,0 -33.8,0 -33.8,0 z" class="st0"/><path id="path86" d="m 210.8,149 c 1.6,3.4 1.8,7.5 2.1,11.4 H 177.1 V 149 Z" class="st0"/><g id="g92"><path id="rect88" fill="#4c83c3" d="M 21.700001,149 H 55 v 11.4 H 21.700001 Z" class="st0"/></g><g id="g98"><path id="rect94" fill="#4c83c3" d="m 343.79999,170 h 54.5 v 11.4 h -54.5 z" class="st0"/></g><g id="g104"><path id="rect100" fill="#4c83c3" d="m 221.5,170 h 54.6 v 11.4 h -54.6 z" class="st0"/></g><path id="polygon106" fill="#4c83c3" d="m 297.6,170 h 24.5 l -3.9,11.4 h -16.6 z" class="st0"/><path id="path108" d="m 0,170 v 11.4 h 77.5 c 0,0 0,-11.4 0,-11.4 0,0 -77.6,0 -77.5,0 z" class="st0"/><path id="path110" d="m 211.5,170 c -0.8,3.8 -1.6,8.3 -4.3,11.4 h -1 H 87.6 V 170 Z" class="st0"/><path id="polygon112" fill="#4c83c3" d="m 305.3,191.5 h 9.4 l -4,11.4 h -1.5 z" class="st0"/><g id="g118"><path id="rect114" fill="#4c83c3" d="m 343.79999,191.5 h 54.5 v 11.4 h -54.5 z" class="st0"/></g><path id="path120" d="m 87.6,202.9 v -11.4 c 0,0 111.9,0 112.2,0 -7.5,7.2 -17.8,11.2 -28.9,11.4 H 87.6" class="st0"/><g id="g126"><path id="rect122" fill="#4c83c3" d="m 221.5,191.5 h 54.6 v 11.4 h -54.6 z" class="st0"/></g><path id="path128" d="m 77.5,191.5 c 0,0 0,11.4 0,11.4 0,0 -77.4,0 -77.5,0 0,0 0,-11.4 0,-11.4 0,0 77.4,0.1 77.5,0 z" class="st0"/></g><g id="text132" text-anchor="middle"><path id="path158" d="m 65.056641,235.43457 q 0,0.93457 -0.44043,1.84766 -0.429688,0.91308 -1.213867,1.54687 -0.859375,0.6875 -2.008789,1.07422 -1.138672,0.38672 -2.75,0.38672 -1.729493,0 -3.115235,-0.32227 -1.375,-0.32226 -2.803711,-0.95605 v -2.66406 H 52.875 q 1.213867,1.00976 2.803711,1.55761 1.589844,0.54785 2.986328,0.54785 1.976563,0 3.072266,-0.74121 1.106445,-0.74121 1.106445,-1.97656 0,-1.06348 -0.526367,-1.56836 -0.515625,-0.50488 -1.579102,-0.78418 -0.805664,-0.21484 -1.750976,-0.35449 Q 58.052734,232.88867 57,232.67383 q -2.126953,-0.45117 -3.158203,-1.53613 -1.020508,-1.09571 -1.020508,-2.84668 0,-2.00879 1.697266,-3.28711 1.697265,-1.28907 4.307617,-1.28907 1.686523,0 3.09375,0.32227 1.407226,0.32226 2.492187,0.79492 v 2.51367 h -0.15039 q -0.913086,-0.77343 -2.40625,-1.27832 -1.482422,-0.51562 -3.040039,-0.51562 -1.708008,0 -2.75,0.70898 -1.03125,0.70899 -1.03125,1.82617 0,0.99903 0.515625,1.56836 0.515625,0.56934 1.815429,0.87012 0.6875,0.15039 1.955078,0.36523 1.267579,0.21485 2.148438,0.44043 1.783203,0.47266 2.685547,1.42872 0.902344,0.95605 0.902344,2.6748 z"/><path id="path160" d="m 78.355469,234.20996 h -8.840821 q 0,1.10645 0.333008,1.93359 0.333008,0.81641 0.913086,1.34278 0.558594,0.51562 1.321289,0.77344 0.773438,0.25781 1.697266,0.25781 1.224609,0 2.459961,-0.4834 1.246094,-0.49414 1.772461,-0.9668 h 0.107422 v 2.20215 q -1.020508,0.42969 -2.083985,0.71973 -1.063476,0.29004 -2.234375,0.29004 -2.986328,0 -4.662109,-1.61133 -1.675781,-1.62207 -1.675781,-4.59766 0,-2.94336 1.600586,-4.67285 1.611328,-1.72949 4.232421,-1.72949 2.427735,0 3.738282,1.41797 1.321289,1.41797 1.321289,4.02832 z m -1.965821,-1.54687 q -0.01074,-1.58985 -0.805664,-2.45997 -0.784179,-0.87011 -2.395507,-0.87011 -1.622071,0 -2.588868,0.95605 -0.956054,0.95606 -1.084961,2.37403 z"/><path id="path162" d="m 88.904297,230.20312 h -0.107422 q -0.451172,-0.10742 -0.880859,-0.15039 -0.418946,-0.0537 -0.999024,-0.0537 -0.93457,0 -1.804687,0.41895 -0.870118,0.4082 -1.675782,1.06348 V 240 h -2.019531 v -11.99902 h 2.019531 v 1.77246 q 1.203125,-0.9668 2.116211,-1.36426 0.923828,-0.4082 1.879883,-0.4082 0.526367,0 0.762695,0.0322 0.236329,0.0215 0.708985,0.0967 z"/><path id="path164" d="M 101.2041,228.00098 96.348633,240 h -2.030274 l -4.823242,-11.99902 h 2.191406 l 3.716797,9.5498 3.684571,-9.5498 z"/><path id="path166" d="m 106.0166,225.99219 h -2.27734 v -2.09473 h 2.27734 z M 105.8877,240 h -2.01954 v -11.99902 h 2.01954 z"/><path id="path168" d="m 118.77832,239.24805 q -1.00977,0.4834 -1.92285,0.75195 -0.90234,0.26855 -1.92285,0.26855 -1.29981,0 -2.38477,-0.37597 -1.08496,-0.38672 -1.8584,-1.16016 -0.78418,-0.77344 -1.21386,-1.95508 -0.42969,-1.18164 -0.42969,-2.76074 0,-2.94336 1.61133,-4.61914 1.62207,-1.67578 4.27539,-1.67578 1.03125,0 2.01953,0.29004 0.99902,0.29004 1.82617,0.70898 v 2.24512 h -0.10742 q -0.92383,-0.71973 -1.91211,-1.10645 -0.97754,-0.38671 -1.91211,-0.38671 -1.71875,0 -2.71777,1.16015 -0.98828,1.14942 -0.98828,3.38379 0,2.16992 0.96679,3.34082 0.97754,1.16016 2.73926,1.16016 0.6123,0 1.24609,-0.16113 0.63379,-0.16114 1.13868,-0.41895 0.44043,-0.22559 0.82714,-0.47266 0.38672,-0.25781 0.61231,-0.44043 h 0.10742 z"/><path id="path170" d="m 131.42187,234.20996 h -8.84082 q 0,1.10645 0.33301,1.93359 0.33301,0.81641 0.91309,1.34278 0.55859,0.51562 1.32129,0.77344 0.77344,0.25781 1.69726,0.25781 1.22461,0 2.45996,-0.4834 1.2461,-0.49414 1.77246,-0.9668 h 0.10743 v 2.20215 q -1.02051,0.42969 -2.08399,0.71973 -1.06347,0.29004 -2.23437,0.29004 -2.98633,0 -4.66211,-1.61133 -1.67578,-1.62207 -1.67578,-4.59766 0,-2.94336 1.60058,-4.67285 1.61133,-1.72949 4.23242,-1.72949 2.42774,0 3.73829,1.41797 1.32128,1.41797 1.32128,4.02832 z m -1.96582,-1.54687 q -0.0107,-1.58985 -0.80566,-2.45997 -0.78418,-0.87011 -2.39551,-0.87011 -1.62207,0 -2.58886,0.95605 -0.95606,0.95606 -1.08497,2.37403 z"/><path id="path172" d="m 156.62305,240 h -2.12696 v -13.78223 l -4.44726,9.37793 h -1.26758 l -4.41504,-9.37793 V 240 h -1.9873 v -15.99512 h 2.90039 l 4.26465,8.90528 4.125,-8.90528 h 2.9541 z"/><path id="path174" d="m 170.10449,240 h -2.00879 v -1.27832 q -0.26855,0.18262 -0.73047,0.51562 -0.45117,0.32227 -0.88086,0.51563 -0.50488,0.24707 -1.16015,0.4082 -0.65527,0.17188 -1.53613,0.17188 -1.62207,0 -2.75,-1.07422 -1.12793,-1.07422 -1.12793,-2.73926 0,-1.36426 0.58007,-2.20215 0.59082,-0.84863 1.67579,-1.33203 1.0957,-0.4834 2.63183,-0.65527 1.53613,-0.17188 3.29785,-0.25781 v -0.31153 q 0,-0.6875 -0.24707,-1.13867 -0.23633,-0.45117 -0.6875,-0.70898 -0.42968,-0.24707 -1.03125,-0.33301 -0.60156,-0.0859 -1.25683,-0.0859 -0.79493,0 -1.77246,0.21484 -0.97754,0.20411 -2.01954,0.60157 h -0.10742 v -2.05176 q 0.59082,-0.16113 1.70801,-0.35449 1.11719,-0.19336 2.20215,-0.19336 1.26758,0 2.20215,0.21484 0.94531,0.2041 1.63281,0.70899 0.67676,0.49414 1.03125,1.27832 0.35449,0.78418 0.35449,1.94433 z m -2.00879,-2.9541 v -3.34082 q -0.92383,0.0537 -2.18066,0.16113 -1.24609,0.10742 -1.97656,0.31152 -0.87012,0.24707 -1.40723,0.77344 -0.53711,0.51563 -0.53711,1.42871 0,1.03125 0.62305,1.55762 0.62304,0.51562 1.90136,0.51562 1.06348,0 1.94434,-0.4082 0.88086,-0.41894 1.63281,-0.99902 z"/><path id="path176" d="m 184.04785,240 h -2.01953 v -6.83203 q 0,-0.82715 -0.0967,-1.54688 -0.0967,-0.73047 -0.35449,-1.13867 -0.26856,-0.45117 -0.77344,-0.66601 -0.50488,-0.22559 -1.31055,-0.22559 -0.82714,0 -1.72949,0.4082 -0.90234,0.40821 -1.72949,1.042 V 240 h -2.01953 v -11.99902 h 2.01953 v 1.33203 q 0.94531,-0.78418 1.95508,-1.22461 1.00976,-0.44043 2.07324,-0.44043 1.94434,0 2.96484,1.1709 1.02051,1.1709 1.02051,3.37304 z"/><path id="path178" d="m 197.26074,240 h -2.00879 v -1.27832 q -0.26855,0.18262 -0.73047,0.51562 -0.45117,0.32227 -0.88086,0.51563 -0.50488,0.24707 -1.16015,0.4082 -0.65527,0.17188 -1.53613,0.17188 -1.62207,0 -2.75,-1.07422 -1.12793,-1.07422 -1.12793,-2.73926 0,-1.36426 0.58007,-2.20215 0.59082,-0.84863 1.67579,-1.33203 1.0957,-0.4834 2.63183,-0.65527 1.53613,-0.17188 3.29785,-0.25781 v -0.31153 q 0,-0.6875 -0.24707,-1.13867 -0.23633,-0.45117 -0.6875,-0.70898 -0.42968,-0.24707 -1.03125,-0.33301 -0.60156,-0.0859 -1.25683,-0.0859 -0.79493,0 -1.77246,0.21484 -0.97754,0.20411 -2.01954,0.60157 h -0.10742 v -2.05176 q 0.59082,-0.16113 1.70801,-0.35449 1.11719,-0.19336 2.20215,-0.19336 1.26758,0 2.20215,0.21484 0.94531,0.2041 1.63281,0.70899 0.67676,0.49414 1.03125,1.27832 0.35449,0.78418 0.35449,1.94433 z m -2.00879,-2.9541 v -3.34082 q -0.92383,0.0537 -2.18066,0.16113 -1.24609,0.10742 -1.97656,0.31152 -0.87012,0.24707 -1.40723,0.77344 -0.53711,0.51563 -0.53711,1.42871 0,1.03125 0.62305,1.55762 0.62304,0.51562 1.90136,0.51562 1.06348,0 1.94434,-0.4082 0.88086,-0.41894 1.63281,-0.99902 z"/><path id="path180" d="m 210.90332,238.63574 q 0,3.05078 -1.38574,4.47949 -1.38574,1.42872 -4.26465,1.42872 -0.95606,0 -1.86914,-0.13965 -0.90234,-0.12891 -1.7832,-0.37598 v -2.0625 h 0.10742 q 0.49414,0.19336 1.56836,0.47266 1.07422,0.29004 2.14843,0.29004 1.03125,0 1.70801,-0.24707 0.67676,-0.24708 1.05274,-0.6875 0.37597,-0.41895 0.53711,-1.00977 0.16113,-0.59082 0.16113,-1.32129 v -1.0957 q -0.91309,0.73047 -1.75098,1.0957 -0.82715,0.35449 -2.11621,0.35449 -2.14844,0 -3.41601,-1.54687 -1.25684,-1.55762 -1.25684,-4.38281 0,-1.54688 0.42969,-2.66407 0.44043,-1.12793 1.19238,-1.94433 0.69824,-0.7627 1.69727,-1.18164 0.99902,-0.42969 1.9873,-0.42969 1.04199,0 1.74023,0.21484 0.70899,0.2041 1.49317,0.63379 l 0.12891,-0.51562 h 1.89062 z m -2.01953,-1.93359 v -6.54199 q -0.80567,-0.36524 -1.50391,-0.51563 -0.6875,-0.16113 -1.375,-0.16113 -1.66504,0 -2.62109,1.11719 -0.95606,1.11718 -0.95606,3.24414 0,2.01953 0.70899,3.06152 0.70898,1.04199 2.35254,1.04199 0.88086,0 1.76172,-0.33301 0.8916,-0.34375 1.63281,-0.91308 z"/><path id="path182" d="m 224.92187,234.20996 h -8.84082 q 0,1.10645 0.33301,1.93359 0.33301,0.81641 0.91309,1.34278 0.55859,0.51562 1.32129,0.77344 0.77343,0.25781 1.69726,0.25781 1.22461,0 2.45996,-0.4834 1.2461,-0.49414 1.77246,-0.9668 h 0.10743 v 2.20215 q -1.02051,0.42969 -2.08399,0.71973 -1.06347,0.29004 -2.23437,0.29004 -2.98633,0 -4.66211,-1.61133 -1.67578,-1.62207 -1.67578,-4.59766 0,-2.94336 1.60058,-4.67285 1.61133,-1.72949 4.23242,-1.72949 2.42774,0 3.73829,1.41797 1.32128,1.41797 1.32128,4.02832 z m -1.96582,-1.54687 q -0.0107,-1.58985 -0.80566,-2.45997 -0.78418,-0.87011 -2.39551,-0.87011 -1.62207,0 -2.58886,0.95605 -0.95606,0.95606 -1.08497,2.37403 z"/><path id="path184" d="m 245.49316,240 h -2.01953 v -6.83203 q 0,-0.77344 -0.0752,-1.49317 -0.0645,-0.71972 -0.29004,-1.14941 -0.24707,-0.46191 -0.70899,-0.69824 -0.46191,-0.23633 -1.33203,-0.23633 -0.84863,0 -1.69726,0.42969 -0.84864,0.41894 -1.69727,1.07422 0.0322,0.24707 0.0537,0.58007 0.0215,0.32227 0.0215,0.64454 V 240 h -2.01953 v -6.83203 q 0,-0.79492 -0.0752,-1.50391 -0.0645,-0.71972 -0.29004,-1.14941 -0.24707,-0.46192 -0.70898,-0.6875 -0.46192,-0.23633 -1.33203,-0.23633 -0.82715,0 -1.66504,0.4082 -0.82715,0.40821 -1.6543,1.042 V 240 h -2.01953 v -11.99902 h 2.01953 v 1.33203 q 0.94531,-0.78418 1.87988,-1.22461 0.94531,-0.44043 2.00879,-0.44043 1.22461,0 2.07324,0.51562 0.85938,0.51563 1.27832,1.42871 1.22461,-1.03125 2.23438,-1.48242 1.00976,-0.46191 2.15918,-0.46191 1.97656,0 2.91113,1.20312 0.94531,1.19239 0.94531,3.34082 z"/><path id="path186" d="m 259.42578,234.20996 h -8.84082 q 0,1.10645 0.33301,1.93359 0.33301,0.81641 0.91308,1.34278 0.5586,0.51562 1.32129,0.77344 0.77344,0.25781 1.69727,0.25781 1.22461,0 2.45996,-0.4834 1.24609,-0.49414 1.77246,-0.9668 h 0.10742 v 2.20215 q -1.0205,0.42969 -2.08398,0.71973 -1.06348,0.29004 -2.23438,0.29004 -2.98632,0 -4.66211,-1.61133 -1.67578,-1.62207 -1.67578,-4.59766 0,-2.94336 1.60059,-4.67285 1.61133,-1.72949 4.23242,-1.72949 2.42774,0 3.73828,1.41797 1.32129,1.41797 1.32129,4.02832 z m -1.96582,-1.54687 q -0.0107,-1.58985 -0.80566,-2.45997 -0.78418,-0.87011 -2.39551,-0.87011 -1.62207,0 -2.58887,0.95605 -0.95605,0.95606 -1.08496,2.37403 z"/><path id="path188" d="m 272.52051,240 h -2.01953 v -6.83203 q 0,-0.82715 -0.0967,-1.54688 -0.0967,-0.73047 -0.3545,-1.13867 -0.26855,-0.45117 -0.77343,-0.66601 -0.50489,-0.22559 -1.31055,-0.22559 -0.82715,0 -1.72949,0.4082 -0.90235,0.40821 -1.72949,1.042 V 240 h -2.01954 v -11.99902 h 2.01954 v 1.33203 q 0.94531,-0.78418 1.95507,-1.22461 1.00977,-0.44043 2.07325,-0.44043 1.94433,0 2.96484,1.1709 1.02051,1.1709 1.02051,3.37304 z"/><path id="path190" d="m 282.63965,239.89258 q -0.56934,0.15039 -1.2461,0.24707 -0.66601,0.0967 -1.19238,0.0967 -1.83691,0 -2.79297,-0.98828 -0.95605,-0.98828 -0.95605,-3.16895 v -6.38086 h -1.36426 v -1.69726 h 1.36426 v -3.44825 h 2.01953 v 3.44825 h 4.16797 v 1.69726 h -4.16797 v 5.46778 q 0,0.94531 0.043,1.48242 0.043,0.52636 0.30078,0.98828 0.23633,0.42969 0.64453,0.63379 0.41895,0.19336 1.26758,0.19336 0.49414,0 1.03125,-0.13965 0.53711,-0.15039 0.77344,-0.24707 h 0.10742 z"/><path id="path192" d="m 305.02637,233.57617 q 0,1.74024 -0.38672,3.04004 -0.37598,1.28906 -1.2461,2.14844 -0.82714,0.8164 -1.93359,1.19238 -1.10644,0.37598 -2.57812,0.37598 -1.50391,0 -2.6211,-0.39746 -1.11719,-0.39746 -1.87988,-1.1709 -0.87012,-0.88086 -1.25684,-2.12695 -0.37597,-1.2461 -0.37597,-3.06153 v -9.57129 h 2.12695 v 9.67871 q 0,1.29981 0.17187,2.05176 0.18262,0.75195 0.60157,1.36426 0.47265,0.69824 1.27832,1.05273 0.8164,0.3545 1.95508,0.3545 1.14941,0 1.95507,-0.34375 0.80567,-0.3545 1.28907,-1.06348 0.41894,-0.61231 0.59082,-1.39649 0.18261,-0.79492 0.18261,-1.96582 v -9.73242 h 2.12696 z"/><path id="path194" d="m 318.96973,240 h -2.01953 v -6.83203 q 0,-0.82715 -0.0967,-1.54688 -0.0967,-0.73047 -0.3545,-1.13867 -0.26855,-0.45117 -0.77343,-0.66601 -0.50489,-0.22559 -1.31055,-0.22559 -0.82715,0 -1.72949,0.4082 -0.90235,0.40821 -1.7295,1.042 V 240 h -2.01953 v -11.99902 h 2.01953 v 1.33203 q 0.94532,-0.78418 1.95508,-1.22461 1.00977,-0.44043 2.07324,-0.44043 1.94434,0 2.96485,1.1709 1.02051,1.1709 1.02051,3.37304 z"/><path id="path196" d="m 325.02832,225.99219 h -2.27734 v -2.09473 h 2.27734 z M 324.89941,240 h -2.01953 v -11.99902 h 2.01953 z"/><path id="path198" d="m 335.14746,239.89258 q -0.56934,0.15039 -1.24609,0.24707 -0.66602,0.0967 -1.19239,0.0967 -1.83691,0 -2.79296,-0.98828 -0.95606,-0.98828 -0.95606,-3.16895 v -6.38086 h -1.36426 v -1.69726 h 1.36426 v -3.44825 h 2.01953 v 3.44825 h 4.16797 v 1.69726 h -4.16797 v 5.46778 q 0,0.94531 0.043,1.48242 0.043,0.52636 0.30078,0.98828 0.23633,0.42969 0.64453,0.63379 0.41895,0.19336 1.26758,0.19336 0.49414,0 1.03125,-0.13965 0.53711,-0.15039 0.77344,-0.24707 h 0.10742 z"/><path id="path200" d="m 347.64062,234.20996 h -8.84082 q 0,1.10645 0.33301,1.93359 0.33301,0.81641 0.91309,1.34278 0.55859,0.51562 1.32129,0.77344 0.77343,0.25781 1.69726,0.25781 1.22461,0 2.45996,-0.4834 1.2461,-0.49414 1.77246,-0.9668 h 0.10743 v 2.20215 q -1.02051,0.42969 -2.08399,0.71973 -1.06347,0.29004 -2.23437,0.29004 -2.98633,0 -4.66211,-1.61133 -1.67578,-1.62207 -1.67578,-4.59766 0,-2.94336 1.60058,-4.67285 1.61133,-1.72949 4.23242,-1.72949 2.42774,0 3.73829,1.41797 1.32128,1.41797 1.32128,4.02832 z m -1.96582,-1.54687 q -0.0107,-1.58985 -0.80566,-2.45997 -0.78418,-0.87011 -2.39551,-0.87011 -1.62207,0 -2.58886,0.95605 -0.95606,0.95606 -1.08497,2.37403 z"/></g></svg>