<svg xmlns="http://www.w3.org/2000/svg" role="img" viewBox="-7.97 34.03 414.18 216.93"><title>IBM Z JCL Expert (API Mediation Layer ZOWE V1) logo</title><style>svg {enable-background:new 0 0 400 245}</style><style id="style2" type="text/css">.st0{fill:#4c83c3}</style><g id="g130"><path id="polygon4" fill="#4c83c3" d="m 336.1,42.1 h 62.2 V 53.5 H 332 Z" class="st0"/><path id="path6" d="m 221.5,42.1 h 61.6 l 4,11.5 c 0,0 -65.6,0 -65.6,0 0.1,-0.1 0,-11.5 0,-11.5 z" class="st0"/><path id="path8" d="m 172.7,42.1 c 10.1,1 19,4.6 26.5,11.5 0,0 -111.6,0 -111.6,0 0,0 0,-11.5 0,-11.5 z" class="st0"/><g id="g14"><path id="rect10" fill="#4c83c3" d="m 0,42.099998 h 77.5 v 11.4 H 0 Z" class="st0"/></g><path id="path16" d="m 398.3,75 h -73.9 c 0,0 4,-11.4 4,-11.4 h 69.9 z" class="st0"/><path id="polygon18" fill="#4c83c3" d="m 221.5,63.6 h 69.2 l 4.1,11.4 h -73.3 z" class="st0"/><path id="path20" d="m 207.8,63.6 c 1.5,3.8 3.2,7 3.2,11.4 H 87.6 V 63.6 Z" class="st0"/><g id="g26"><path id="rect22" fill="#4c83c3" d="m 0,63.599998 h 77.5 v 11.4 H 0 Z" class="st0"/></g><path id="polygon28" fill="#4c83c3" d="m 376.4,85.1 v 11.4 h -59.6 l 4.1,-11.4 z" class="st0"/><path id="polygon30" fill="#4c83c3" d="M 243.4,96.5 V 85.1 h 54.9 l 4.1,11.4 z" class="st0"/><path id="path32" d="m 212,85 c 0,3.9 -0.5,8 -1.6,11.4 H 176.6 V 85 Z" class="st0"/><g id="g38"><path id="rect34" fill="#4c83c3" d="m 21.6,85.099998 h 33.3 v 11.4 H 21.6 Z" class="st0"/></g><g id="g44"><path id="rect40" fill="#4c83c3" d="m 110,85 h 33.3 V 96.4 H 110 Z" class="st0"/></g><path id="path46" d="m 276.1,108.8 c 0,0 0,8.7 0,8.7 h -32.8 v -11.4 h 62.4 l 3.9,10.6 c 0,0 3.7,-10.6 3.7,-10.6 h 62.9 v 11.4 h -32.6 c 0,0 0,-8.7 0,-8.7 l -3,8.7 H 279 Z" class="st0"/><path id="path48" d="m 110,106.1 h 95.5 v 0 c -2.1,3.8 -5.9,8.4 -9.5,11.4 0,0 -86,0 -86,0 0,0 0,-11.4 0,-11.4 z" class="st0"/><g id="g54"><path id="rect50" fill="#4c83c3" d="m 21.6,106.1 h 33.3 v 11.4 H 21.6 Z" class="st0"/></g><g id="g60"><path id="rect56" fill="#4c83c3" d="m 343.79999,127.6 h 32.6 V 139 h -32.6 z" class="st0"/></g><path id="path62" d="M 276.1,127.6 H 243.3 V 139 c 0,0 32.8,0 32.8,0 0,-0.1 0.1,-11.4 0,-11.4 z" class="st0"/><path id="path64" d="m 337.2,127.6 c -0.1,0 -3.8,11.4 -4,11.4 h -46.4 c 0,0 -4.1,-11.4 -4.1,-11.4 z" class="st0"/><path id="path66" d="m 110,127.6 h 85.8 c 3.9,3.3 7.5,7.3 10.2,11.4 0.2,0 -96.1,0 -96.1,0 0.1,-0.1 0.1,-11.4 0.1,-11.4 z" class="st0"/><path id="path68" d="M 54.9,138.9 V 127.5 H 21.7 c 0,0 0,11.4 0,11.4 0,0 33.2,0 33.2,0 z" class="st0"/><g id="g74"><path id="rect70" fill="#4c83c3" d="m 343.79999,149 h 32.6 v 11.4 h -32.6 z" class="st0"/></g><g id="g80"><path id="rect76" fill="#4c83c3" d="m 243.39999,149 h 32.8 v 11.4 h -32.8 z" class="st0"/></g><path id="path82" d="m 325.6,160.4 c 0,-0.1 4,-11.4 4.1,-11.4 h -39.5 c -0.1,0 4,11.4 4,11.4 0,0 31.4,0.1 31.4,0 z" class="st0"/><path id="path84" d="m 110,160.4 c 0,0 0,-11.4 0,-11.4 h 33.8 c 0,0 0,11.4 0,11.4 -0.1,0 -33.8,0 -33.8,0 z" class="st0"/><path id="path86" d="m 210.8,149 c 1.6,3.4 1.8,7.5 2.1,11.4 H 177.1 V 149 Z" class="st0"/><g id="g92"><path id="rect88" fill="#4c83c3" d="M 21.700001,149 H 55 v 11.4 H 21.700001 Z" class="st0"/></g><g id="g98"><path id="rect94" fill="#4c83c3" d="m 343.79999,170 h 54.5 v 11.4 h -54.5 z" class="st0"/></g><g id="g104"><path id="rect100" fill="#4c83c3" d="m 221.5,170 h 54.6 v 11.4 h -54.6 z" class="st0"/></g><path id="polygon106" fill="#4c83c3" d="m 297.6,170 h 24.5 l -3.9,11.4 h -16.6 z" class="st0"/><path id="path108" d="m 0,170 v 11.4 h 77.5 c 0,0 0,-11.4 0,-11.4 0,0 -77.6,0 -77.5,0 z" class="st0"/><path id="path110" d="m 211.5,170 c -0.8,3.8 -1.6,8.3 -4.3,11.4 h -1 H 87.6 V 170 Z" class="st0"/><path id="polygon112" fill="#4c83c3" d="m 305.3,191.5 h 9.4 l -4,11.4 h -1.5 z" class="st0"/><g id="g118"><path id="rect114" fill="#4c83c3" d="m 343.79999,191.5 h 54.5 v 11.4 h -54.5 z" class="st0"/></g><path id="path120" d="m 87.6,202.9 v -11.4 c 0,0 111.9,0 112.2,0 -7.5,7.2 -17.8,11.2 -28.9,11.4 H 87.6" class="st0"/><g id="g126"><path id="rect122" fill="#4c83c3" d="m 221.5,191.5 h 54.6 v 11.4 h -54.6 z" class="st0"/></g><path id="path128" d="m 77.5,191.5 c 0,0 0,11.4 0,11.4 0,0 -77.4,0 -77.5,0 0,0 0,-11.4 0,-11.4 0,0 77.4,0.1 77.5,0 z" class="st0"/></g><g id="text132" text-anchor="middle"><path id="path158" d="m 136.32031,240 h -4.59375 v -1.1875 H 133.25 v -9.25781 h -1.52344 v -1.1875 h 4.59375 v 1.1875 h -1.52344 v 9.25781 h 1.52344 z"/><path id="path160" d="m 147.74219,236.42187 q 0,0.86719 -0.32813,1.53125 -0.32812,0.66407 -0.88281,1.09375 -0.65625,0.51563 -1.44531,0.73438 Q 144.30469,240 143.09375,240 h -4.125 v -11.63281 h 3.44531 q 1.27344,0 1.90625,0.0937 0.63281,0.0937 1.21094,0.39062 0.64062,0.33594 0.92969,0.86719 0.28906,0.52344 0.28906,1.25781 0,0.82813 -0.42188,1.41406 -0.42187,0.57813 -1.125,0.92969 v 0.0625 q 1.17969,0.24219 1.85938,1.03906 0.67969,0.78907 0.67969,2 z m -2.60157,-5.24218 q 0,-0.42188 -0.14062,-0.71094 -0.14063,-0.28906 -0.45313,-0.46875 -0.36718,-0.21094 -0.89062,-0.25781 -0.52344,-0.0547 -1.29688,-0.0547 h -1.84375 v 3.35937 h 2 q 0.72657,0 1.15625,-0.0703 0.42969,-0.0781 0.79688,-0.3125 0.36719,-0.23437 0.51562,-0.60156 0.15625,-0.375 0.15625,-0.88281 z m 0.99219,5.30468 q 0,-0.70312 -0.21094,-1.11718 -0.21093,-0.41407 -0.76562,-0.70313 -0.375,-0.19531 -0.91406,-0.25 -0.53125,-0.0625 -1.29688,-0.0625 h -2.42969 v 4.32813 h 2.04688 q 1.01562,0 1.66406,-0.10157 0.64844,-0.10937 1.0625,-0.39062 0.4375,-0.30469 0.64063,-0.69531 0.20312,-0.39063 0.20312,-1.00782 z"/><path id="path162" d="M 160.29687,240 H 158.75 v -10.02344 l -3.23438,6.82031 h -0.92187 l -3.21094,-6.82031 V 240 h -1.44531 v -11.63281 h 2.10937 l 3.10157,6.47656 3,-6.47656 h 2.14843 z"/><path id="path164" d="m 177.5625,240 h -9.07813 v -1.4375 l 7.13282,-8.82031 H 168.75 v -1.375 h 8.64062 v 1.39843 l -7.20312,8.85938 h 7.375 z"/><path id="path166" d="m 189.92187,236.97656 q 0,1.53125 -0.9375,2.35938 -0.92968,0.82812 -2.5,0.82812 -0.375,0 -1,-0.0703 -0.625,-0.0625 -1.04687,-0.15625 v -1.44531 h 0.0859 q 0.32031,0.10937 0.78906,0.22656 0.46875,0.11719 0.96094,0.11719 0.71875,0 1.14062,-0.16407 0.42969,-0.16406 0.63281,-0.46875 0.21094,-0.3125 0.26563,-0.76562 0.0625,-0.45313 0.0625,-1.04688 v -6.78906 h -2.46094 v -1.23437 h 4.00781 z"/><path id="path168" d="m 201.92187,239.15625 q -0.42968,0.1875 -0.78125,0.35156 -0.34375,0.16406 -0.90625,0.34375 -0.47656,0.14844 -1.03906,0.25 -0.55469,0.10938 -1.22656,0.10938 -1.26563,0 -2.30469,-0.35157 -1.03125,-0.35937 -1.79687,-1.11718 -0.75,-0.74219 -1.17188,-1.88282 -0.42187,-1.14843 -0.42187,-2.66406 0,-1.4375 0.40625,-2.57031 0.40625,-1.13281 1.17187,-1.91406 0.74219,-0.75782 1.78906,-1.15625 1.05469,-0.39844 2.33594,-0.39844 0.9375,0 1.86719,0.22656 0.9375,0.22656 2.07812,0.79688 v 1.83593 h -0.11718 q -0.96094,-0.80468 -1.90625,-1.17187 -0.94532,-0.36719 -2.02344,-0.36719 -0.88281,0 -1.59375,0.28906 -0.70313,0.28125 -1.25781,0.88282 -0.53907,0.58593 -0.84375,1.48437 -0.29688,0.89063 -0.29688,2.0625 0,1.22656 0.32813,2.10938 0.33593,0.88281 0.85937,1.4375 0.54688,0.57812 1.27344,0.85937 0.73437,0.27344 1.54687,0.27344 1.11719,0 2.09375,-0.38281 0.97657,-0.38282 1.82813,-1.14844 h 0.10937 z"/><path id="path170" d="M 211.48437,240 H 204.125 v -11.63281 h 1.54687 V 238.625 h 5.8125 z"/><path id="path172" d="m 226.32031,240 h -7.66406 v -11.63281 h 7.66406 v 1.375 h -6.11719 v 3.1875 h 6.11719 v 1.375 h -6.11719 v 4.32031 h 6.11719 z"/><path id="path174" d="m 236.21875,240 h -1.85156 L 231.89062,236.64844 229.39844,240 h -1.71094 l 3.40625,-4.35156 -3.375,-4.375 h 1.85156 l 2.46094,3.29687 2.46875,-3.29687 h 1.71875 l -3.42969,4.29687 z"/><path id="path176" d="m 245.8125,235.53125 q 0,1.0625 -0.30469,1.94531 -0.30469,0.875 -0.85937,1.48438 -0.51563,0.57812 -1.21875,0.89843 -0.69532,0.3125 -1.47657,0.3125 -0.67968,0 -1.23437,-0.14843 -0.54688,-0.14844 -1.11719,-0.46094 v 3.65625 h -1.46875 v -11.94531 h 1.46875 v 0.91406 q 0.58594,-0.49219 1.3125,-0.82031 0.73438,-0.33594 1.5625,-0.33594 1.57813,0 2.45313,1.19531 0.88281,1.1875 0.88281,3.30469 z m -1.51563,0.0391 q 0,-1.57812 -0.53906,-2.35937 -0.53906,-0.78125 -1.65625,-0.78125 -0.63281,0 -1.27344,0.27343 -0.64062,0.27344 -1.22656,0.71875 v 4.94532 q 0.625,0.28125 1.07031,0.38281 0.45313,0.10156 1.02344,0.10156 1.22656,0 1.91406,-0.82812 0.6875,-0.82813 0.6875,-2.45313 z"/><path id="path178" d="m 255.40625,235.78906 h -6.42969 q 0,0.80469 0.24219,1.40625 0.24219,0.59375 0.66406,0.97656 0.40625,0.375 0.96094,0.5625 0.5625,0.1875 1.23437,0.1875 0.89063,0 1.78907,-0.35156 0.90625,-0.35937 1.28906,-0.70312 h 0.0781 v 1.60156 q -0.74218,0.3125 -1.51562,0.52344 -0.77344,0.21093 -1.625,0.21093 -2.17188,0 -3.39063,-1.17187 -1.21875,-1.17969 -1.21875,-3.34375 0,-2.14063 1.16407,-3.39844 1.17187,-1.25781 3.07812,-1.25781 1.76563,0 2.71875,1.03125 0.96094,1.03125 0.96094,2.92969 z m -1.42969,-1.125 q -0.008,-1.15625 -0.58594,-1.78906 -0.57031,-0.63281 -1.74218,-0.63281 -1.17969,0 -1.88282,0.69531 -0.69531,0.69531 -0.78906,1.72656 z"/><path id="path180" d="M 263.07812,232.875 H 263 q -0.32813,-0.0781 -0.64063,-0.10938 -0.30468,-0.0391 -0.72656,-0.0391 -0.67969,0 -1.3125,0.30469 -0.63281,0.29687 -1.21875,0.77344 V 240 h -1.46875 v -8.72656 h 1.46875 v 1.28906 q 0.875,-0.70313 1.53906,-0.99219 0.67188,-0.29687 1.36719,-0.29687 0.38281,0 0.55469,0.0234 0.17187,0.0156 0.51562,0.0703 z"/><path id="path182" d="m 269.00781,239.92187 q -0.41406,0.10938 -0.90625,0.17969 -0.48437,0.0703 -0.86719,0.0703 -1.33593,0 -2.03125,-0.71875 -0.69531,-0.71875 -0.69531,-2.30468 v -4.64063 h -0.99219 v -1.23437 h 0.99219 v -2.50782 h 1.46875 v 2.50782 h 3.03125 v 1.23437 h -3.03125 v 3.97656 q 0,0.6875 0.0312,1.07813 0.0312,0.38281 0.21875,0.71875 0.17188,0.3125 0.46875,0.46094 0.30469,0.14062 0.92188,0.14062 0.35937,0 0.75,-0.10156 0.39062,-0.10938 0.5625,-0.17969 h 0.0781 z"/></g></svg>