<svg xmlns="http://www.w3.org/2000/svg" role="img" viewBox="-19.90 -19.90 1034.80 367.80"><title>IBM® CICS® Plug-in for Zowe CLI logo</title><path d="M409.862 181.49h98.543v26.94H371.879v-21.147l91.7-126.504h-86.87V33.847h126.597v20.014zm153.386-38.406c0 27.121 13.48 42.578 35.391 42.578 22.045 0 35.391-15.726 35.391-42.578 0-26.852-13.346-42.583-35.39-42.583-21.912 0-35.392 15.461-35.392 42.583m101.325 0c0 48.12-32.251 69.038-65.934 69.038-33.686 0-65.943-20.919-65.943-69.038 0-48.12 32.257-69.038 65.943-69.038 33.682 0 65.934 20.919 65.934 69.038m152.985 65.346h-19.757l-29.925-87.068-31.62 87.064h-19.753L674.11 77.737h29.651l25.329 90.95 30.265-90.95h19.585l29.369 92.027 27.064-92.027h28.971zm150.53-75.13c-.896-21.73-12.56-35.58-31.165-35.58-18.362 0-30.844 11.258-33.047 35.585zm27.524 2.574a94.501 94.501 0 0 1-1.559 17.594h-89.678c3.568 24.923 17.952 34.172 37.267 34.172a57.798 57.798 0 0 0 37.206-13.258l12.45 19.47c-13.519 11.435-30.742 18.27-54.128 18.27-34.194 0-63.011-22.031-63.011-68.407 0-42.552 25.126-69.669 62.03-69.669 40.138 0 59.427 30.345 59.427 61.824z"/><path fill="#488eff" d="M269.64 155.115l-134.993 94.521a9.943 9.943 0 0 1-15.607-8.9L134.082 45.82 23.777 123.057l90.247 128.893a9.943 9.943 0 0 1-16.282 11.4L1.799 126.32a9.934 9.934 0 0 1 2.434-13.836l.007-.005 135.665-94.998a9.934 9.934 0 0 1 15.607 8.905l-15.037 194.91 110.304-77.236-89.77-128.213a9.938 9.938 0 1 1 15.995-11.8q.146.2.283.405l94.998 135.67a11.472 11.472 0 0 1-2.645 14.993"/><path d="M632.826 282.154c-2.922 0-5.156.836-6.703 2.508-1.547 1.656-2.32 4.04-2.32 7.149v.867h-2.977v3.703h2.977v22.476h4.406v-22.476h7.805v-3.703h-7.946v-.89c0-2.188.422-3.696 1.266-4.524.86-.844 2.234-1.266 4.125-1.266.594 0 1.281.078 2.062.234.782.141 1.415.282 1.899.422h.234v-4.031a31.19 31.19 0 0 0-2.18-.328 22.421 22.421 0 0 0-2.648-.14zm-165.023.235v36.468h4.406V282.39zm-259.29.843c-5.593 0-10.374 1.985-14.343 5.954-3.953 3.953-5.93 8.726-5.93 14.32 0 5.594 1.977 10.375 5.93 14.344 3.969 3.953 8.75 5.93 14.344 5.93 5.593 0 10.367-1.977 14.32-5.93 3.969-3.97 5.953-8.75 5.953-14.344 0-5.594-1.984-10.367-5.953-14.32-3.953-3.97-8.727-5.954-14.32-5.954zm185.063 0c-5.594 0-10.375 1.985-14.344 5.954-3.953 3.953-5.93 8.726-5.93 14.32 0 5.594 1.977 10.375 5.93 14.344 3.97 3.953 8.75 5.93 14.344 5.93 5.594 0 10.367-1.977 14.32-5.93 3.97-3.97 5.954-8.75 5.954-14.344 0-5.594-1.985-10.367-5.954-14.32-3.953-3.97-8.726-5.954-14.32-5.954zm-124.383.094c-2.562 0-4.898.399-7.007 1.195-2.094.797-3.883 1.954-5.368 3.47-1.53 1.562-2.703 3.476-3.515 5.741-.813 2.266-1.219 4.836-1.219 7.711 0 3.032.422 5.696 1.266 7.993.843 2.28 2.015 4.164 3.515 5.648a14.21 14.21 0 0 0 5.39 3.352c2.079.703 4.384 1.054 6.915 1.054 1.344 0 2.57-.11 3.68-.328a26.078 26.078 0 0 0 3.117-.75c1.125-.36 2.031-.703 2.719-1.031.703-.328 1.484-.68 2.343-1.055v-5.437h-.328c-1.703 1.53-3.531 2.68-5.484 3.445-1.953.766-4.047 1.148-6.281 1.148a13.19 13.19 0 0 1-4.641-.82 10.344 10.344 0 0 1-3.82-2.578c-1.047-1.11-1.907-2.547-2.579-4.313-.656-1.765-.984-3.875-.984-6.328 0-2.343.297-4.406.89-6.187.61-1.797 1.454-3.281 2.532-4.453 1.11-1.203 2.367-2.086 3.773-2.649 1.422-.578 3.016-.867 4.782-.867 2.156 0 4.18.367 6.07 1.102 1.89.734 3.797 1.906 5.719 3.515h.351v-5.508c-2.28-1.14-4.36-1.937-6.234-2.39a23.58 23.58 0 0 0-5.602-.68zm53.813 0c-2.563 0-4.899.399-7.008 1.195-2.094.797-3.883 1.954-5.367 3.47-1.531 1.562-2.703 3.476-3.516 5.741-.812 2.266-1.219 4.836-1.219 7.711 0 3.032.422 5.696 1.266 7.993.844 2.28 2.016 4.164 3.516 5.648a14.21 14.21 0 0 0 5.39 3.352c2.078.703 4.383 1.054 6.914 1.054 1.344 0 2.57-.11 3.68-.328a26.078 26.078 0 0 0 3.117-.75c1.125-.36 2.032-.703 2.72-1.031a99.75 99.75 0 0 1 2.343-1.055v-5.437h-.328c-1.703 1.53-3.532 2.68-5.485 3.445-1.953.766-4.047 1.148-6.28 1.148a13.19 13.19 0 0 1-4.642-.82 10.344 10.344 0 0 1-3.82-2.578c-1.047-1.11-1.906-2.547-2.578-4.313-.656-1.765-.984-3.875-.984-6.328 0-2.343.296-4.406.89-6.187.61-1.797 1.453-3.281 2.531-4.453 1.11-1.203 2.368-2.086 3.774-2.649 1.422-.578 3.016-.867 4.781-.867 2.156 0 4.18.367 6.07 1.102 1.891.734 3.797 1.906 5.72 3.515h.35v-5.508c-2.28-1.14-4.359-1.937-6.234-2.39a23.58 23.58 0 0 0-5.601-.68zm30.21 0c-3.796 0-6.929.938-9.398 2.813-2.468 1.859-3.703 4.25-3.703 7.171 0 2.547.742 4.618 2.227 6.211 1.5 1.579 3.797 2.696 6.89 3.352 1.532.313 2.977.57 4.336.773 1.375.204 2.649.461 3.82.774 1.548.406 2.696.976 3.446 1.71.766.735 1.148 1.876 1.148 3.423 0 1.797-.804 3.234-2.414 4.312-1.593 1.078-3.828 1.617-6.703 1.617-2.031 0-4.203-.398-6.515-1.195-2.313-.797-4.352-1.93-6.118-3.398h-.328v5.812c2.078.922 4.117 1.617 6.117 2.086 2.016.469 4.282.703 6.797.703 2.344 0 4.344-.281 6-.844 1.672-.562 3.133-1.343 4.383-2.343a9.469 9.469 0 0 0 2.649-3.375c.64-1.328.96-2.672.96-4.032 0-2.5-.656-4.445-1.968-5.836-1.313-1.39-3.266-2.43-5.86-3.117-1.28-.328-2.843-.648-4.687-.96-1.844-.313-3.266-.579-4.266-.798-1.89-.437-3.21-1.07-3.96-1.898-.75-.828-1.126-1.969-1.126-3.422 0-1.625.75-2.953 2.25-3.984 1.516-1.031 3.516-1.547 6-1.547 2.266 0 4.477.375 6.633 1.125 2.172.734 3.922 1.664 5.25 2.789h.328v-5.484c-1.578-.688-3.39-1.266-5.437-1.735-2.047-.469-4.297-.703-6.75-.703zm516.071 0c-2.562 0-4.898.399-7.008 1.195-2.093.797-3.883 1.954-5.367 3.47-1.531 1.562-2.703 3.476-3.516 5.741-.812 2.266-1.218 4.836-1.218 7.711 0 3.032.422 5.696 1.265 7.993.844 2.28 2.016 4.164 3.516 5.648a14.21 14.21 0 0 0 5.39 3.352c2.079.703 4.383 1.054 6.915 1.054 1.343 0 2.57-.11 3.68-.328a26.078 26.078 0 0 0 3.117-.75c1.125-.36 2.03-.703 2.718-1.031.703-.328 1.485-.68 2.344-1.055v-5.437h-.328c-1.703 1.53-3.531 2.68-5.484 3.445-1.954.766-4.047 1.148-6.282 1.148a13.19 13.19 0 0 1-4.64-.82 10.344 10.344 0 0 1-3.82-2.578c-1.048-1.11-1.907-2.547-2.579-4.313-.656-1.765-.984-3.875-.984-6.328 0-2.343.297-4.406.89-6.187.61-1.797 1.454-3.281 2.532-4.453 1.11-1.203 2.367-2.086 3.773-2.649 1.422-.578 3.016-.867 4.781-.867 2.157 0 4.18.367 6.07 1.102 1.891.734 3.798 1.906 5.72 3.515h.351v-5.508c-2.281-1.14-4.36-1.937-6.234-2.39a23.58 23.58 0 0 0-5.602-.68zm-306.422.399v4.57h4.969v-4.57zm-468.797.234v3.562h4.57v27.774h-4.57v3.562h13.782v-3.562h-4.57V287.52h4.57v-3.562zm21.727 0v34.898h12.375c2.422 0 4.414-.218 5.976-.656a12.258 12.258 0 0 0 4.336-2.203c1.11-.86 1.993-1.953 2.649-3.281.656-1.328.984-2.86.984-4.594 0-2.422-.68-4.422-2.039-6-1.36-1.594-3.219-2.633-5.578-3.117v-.188c1.406-.703 2.531-1.632 3.375-2.789.844-1.172 1.266-2.586 1.266-4.242 0-1.469-.29-2.726-.868-3.773-.578-1.063-1.507-1.93-2.789-2.602a11.637 11.637 0 0 0-3.632-1.172c-1.266-.187-3.172-.281-5.72-.281zm32.906 0v34.898h4.336v-30.07l9.633 20.461h2.766l9.703-20.46v30.07h4.64v-34.9h-6.445l-9 19.43-9.305-19.43zm137.461 0v3.562h4.57v27.774h-4.57v3.562h13.781v-3.562h-4.57V287.52h4.57v-3.562zm152.977 0v34.898h4.64V305.85h4.64c2.5 0 4.571-.297 6.212-.891a11.728 11.728 0 0 0 4.265-2.719 10.187 10.187 0 0 0 2.25-3.422c.547-1.328.82-2.765.82-4.312 0-2.031-.366-3.711-1.1-5.04-.72-1.327-1.743-2.437-3.071-3.327-1.125-.75-2.414-1.297-3.867-1.641-1.453-.36-3.227-.54-5.32-.54zm267.28 0v4.125h20.602l-21.398 26.46v4.313h27.234v-4.125h-22.125l21.61-26.578v-4.195zm181.313 0v34.898h22.079v-4.125h-17.438V283.96zm25.243 0v3.562h4.57v27.774h-4.57v3.562h13.78v-3.562h-4.57V287.52h4.57v-3.562zm-704.461 1.875c4.843 0 8.976 1.734 12.398 5.203 3.438 3.469 5.156 7.625 5.156 12.469 0 4.844-1.718 9-5.156 12.469-3.422 3.468-7.555 5.203-12.398 5.203-4.844 0-8.985-1.735-12.422-5.203-3.422-3.47-5.133-7.625-5.133-12.47 0-4.843 1.71-9 5.133-12.468 3.437-3.469 7.578-5.203 12.422-5.203zm185.062 0c4.844 0 8.977 1.734 12.399 5.203 3.437 3.469 5.156 7.625 5.156 12.469 0 4.844-1.719 9-5.156 12.469-3.422 3.468-7.555 5.203-12.399 5.203-4.844 0-8.984-1.735-12.422-5.203-3.422-3.47-5.133-7.625-5.133-12.47 0-4.843 1.711-9 5.133-12.468 3.438-3.469 7.578-5.203 12.422-5.203zm-273.14 2.086h5.53c1.548 0 2.845.055 3.891.164 1.047.094 1.938.351 2.672.773.625.36 1.078.828 1.36 1.407.28.578.422 1.289.422 2.132 0 1.016-.157 1.899-.47 2.649-.296.734-.812 1.336-1.546 1.805a6.594 6.594 0 0 1-2.39.937c-.86.14-2.016.211-3.47.211h-6zm323.343.023h4.594c1.469 0 2.68.11 3.633.328.969.204 1.828.547 2.578 1.032.86.562 1.5 1.289 1.922 2.18.422.89.633 1.937.633 3.14 0 1.031-.157 1.96-.47 2.789-.296.828-.812 1.617-1.546 2.367-.734.735-1.687 1.274-2.86 1.617-1.171.329-2.695.493-4.57.493h-3.914zm77.344 4.008c-1.437 0-2.883.313-4.336.938-1.453.609-2.687 1.468-3.703 2.578-1.094 1.187-1.96 2.601-2.602 4.242-.625 1.625-.937 3.562-.937 5.812 0 4.11.914 7.297 2.742 9.563 1.844 2.25 4.328 3.375 7.453 3.375 1.875 0 3.414-.258 4.617-.774 1.22-.53 2.493-1.328 3.82-2.39v2.39c0 1.063-.116 2.024-.35 2.883-.235.86-.626 1.594-1.173 2.203-.547.641-1.312 1.141-2.297 1.5-.984.36-2.226.54-3.726.54-1.563 0-3.125-.211-4.688-.633-1.562-.407-2.703-.75-3.422-1.032h-.234v4.5a30.21 30.21 0 0 0 3.89.82 26.94 26.94 0 0 0 4.079.305c4.187 0 7.289-1.039 9.305-3.117 2.015-2.078 3.023-5.336 3.023-9.773v-23.203h-4.125l-.281 1.125c-1.14-.625-2.227-1.086-3.258-1.383-1.016-.313-2.281-.469-3.797-.469zm68.39 0c-1.546 0-3.054.32-4.523.961-1.469.64-2.89 1.531-4.265 2.672v-2.906h-4.407v26.18h4.407V299.31a19.227 19.227 0 0 1 3.773-2.273c1.313-.594 2.57-.89 3.773-.89 1.172 0 2.125.163 2.86.492.734.312 1.297.796 1.687 1.453.375.593.633 1.422.774 2.484.14 1.047.21 2.172.21 3.375v14.906h4.407v-16.992c0-3.203-.742-5.656-2.227-7.36-1.484-1.702-3.64-2.554-6.468-2.554zm61.173 0c-3.704 0-6.649 1.242-8.836 3.727-2.172 2.468-3.258 5.836-3.258 10.101 0 4.266 1.086 7.633 3.258 10.102 2.187 2.469 5.132 3.703 8.836 3.703 3.671 0 6.601-1.234 8.789-3.703 2.187-2.469 3.28-5.836 3.28-10.102 0-4.265-1.093-7.633-3.28-10.101-2.188-2.485-5.118-3.727-8.79-3.727zm99.468 0c-3.703 0-6.648 1.242-8.836 3.727-2.172 2.468-3.257 5.836-3.257 10.101 0 4.266 1.085 7.633 3.257 10.102 2.188 2.469 5.133 3.703 8.836 3.703 3.672 0 6.602-1.234 8.79-3.703 2.187-2.469 3.28-5.836 3.28-10.102 0-4.265-1.093-7.633-3.28-10.101-2.188-2.485-5.118-3.727-8.79-3.727zm69.07 0c-3.812 0-6.89 1.258-9.234 3.774-2.328 2.515-3.492 5.914-3.492 10.195 0 4.328 1.219 7.672 3.656 10.031 2.438 2.344 5.828 3.516 10.172 3.516 1.703 0 3.328-.211 4.875-.633a36.354 36.354 0 0 0 4.547-1.57v-4.805h-.234c-.766.687-2.055 1.39-3.868 2.11-1.796.702-3.585 1.054-5.367 1.054-1.343 0-2.578-.188-3.703-.563a7.94 7.94 0 0 1-2.883-1.687c-.843-.766-1.507-1.742-1.992-2.93-.484-1.203-.726-2.61-.726-4.218h19.289v-2.391c0-3.797-.961-6.727-2.883-8.79-1.906-2.062-4.625-3.093-8.156-3.093zm-618.304.422v21.445h3.867v-8.32h3.797l7.758 8.32h5.226l-9-9.375c1.547-.593 2.758-1.39 3.633-2.39.89-1.016 1.336-2.282 1.336-3.797 0-1.14-.234-2.086-.703-2.836-.453-.766-1.172-1.414-2.156-1.945a8.358 8.358 0 0 0-2.813-.915c-.953-.125-2.164-.187-3.633-.187zm185.062 0v21.445h3.868v-8.32h3.796l7.758 8.32h5.227l-9-9.375c1.547-.593 2.758-1.39 3.633-2.39.89-1.016 1.336-2.282 1.336-3.797 0-1.14-.235-2.086-.704-2.836-.453-.766-1.171-1.414-2.156-1.945a8.358 8.358 0 0 0-2.812-.915c-.953-.125-2.164-.187-3.633-.187zm94.805.305v16.992c0 3.25.766 5.719 2.297 7.406 1.531 1.672 3.672 2.508 6.422 2.508 1.64 0 3.14-.313 4.5-.938 1.36-.625 2.781-1.523 4.265-2.695v2.906h4.407v-26.18h-4.407v19.548a17.348 17.348 0 0 1-3.796 2.273c-1.344.594-2.586.89-3.727.89-1.281 0-2.258-.156-2.93-.468-.672-.313-1.218-.813-1.64-1.5-.407-.672-.672-1.477-.797-2.414-.125-.953-.188-2.094-.188-3.422v-14.906zm82.36 0v26.18h4.406v-26.18zm106.453 0v26.18h4.406V300.27a17.733 17.733 0 0 1 3.656-2.32 8.974 8.974 0 0 1 3.938-.914c.843 0 1.57.04 2.18.117a14.55 14.55 0 0 1 1.921.328h.235v-4.523c-.688-.11-1.204-.18-1.547-.211-.344-.047-.899-.07-1.664-.07-1.391 0-2.758.297-4.102.89-1.328.578-2.867 1.57-4.617 2.977v-3.867zm97.148 0l6.89 26.18h4.055l6.68-20.18 6.727 20.18h4.078l6.82-26.18h-4.43l-4.547 20.273-6.703-20.273h-3.632l-6.54 20.273-4.804-20.273zm-561.96 2.625h3.491c.828 0 1.516.039 2.063.117a4.52 4.52 0 0 1 1.547.515c.515.282.882.641 1.101 1.079.219.437.328.937.328 1.5 0 .703-.101 1.289-.304 1.757-.188.47-.524.899-1.008 1.29-.453.359-1.031.617-1.735.773-.703.14-1.539.21-2.507.21h-2.977zm185.062 0h3.492c.828 0 1.515.039 2.062.117a4.52 4.52 0 0 1 1.547.515c.516.282.883.641 1.102 1.079.218.437.328.937.328 1.5 0 .703-.102 1.289-.305 1.757-.187.47-.523.899-1.008 1.29-.453.359-1.03.617-1.734.773-.703.14-1.54.21-2.508.21h-2.976zm429.14.28c2.344 0 4.086.634 5.227 1.9 1.156 1.265 1.742 3.054 1.758 5.367h-15c.187-2.063.976-3.79 2.367-5.18 1.406-1.39 3.289-2.086 5.648-2.086zm-168.304.165c2.359 0 4.203.828 5.53 2.484 1.329 1.64 1.993 4.157 1.993 7.547 0 3.313-.672 5.813-2.016 7.5-1.328 1.672-3.164 2.508-5.507 2.508-2.375 0-4.227-.844-5.555-2.531-1.328-1.703-1.992-4.196-1.992-7.477 0-3.39.656-5.906 1.968-7.547 1.329-1.656 3.188-2.484 5.579-2.484zm99.468 0c2.36 0 4.203.828 5.532 2.484 1.328 1.64 1.992 4.157 1.992 7.547 0 3.313-.672 5.813-2.016 7.5-1.328 1.672-3.164 2.508-5.508 2.508-2.375 0-4.226-.844-5.554-2.531-1.329-1.703-1.993-4.196-1.993-7.477 0-3.39.657-5.906 1.97-7.547 1.327-1.656 3.187-2.484 5.577-2.484zm-228.258.164c1 0 2 .117 3 .352 1.016.218 2.11.593 3.282 1.125v14.273a14.198 14.198 0 0 1-3.563 1.992c-1.281.485-2.562.727-3.844.727-2.39 0-4.101-.758-5.132-2.274-1.032-1.515-1.547-3.742-1.547-6.68 0-3.093.695-5.452 2.086-7.077 1.39-1.625 3.297-2.438 5.718-2.438zm18.61 5.555v4.242h14.625v-4.242zm-420.07.445h7.289c1.53 0 2.828.063 3.89.188 1.078.109 1.992.359 2.742.75 1.11.578 1.875 1.28 2.297 2.109.422.828.633 1.945.633 3.351 0 1.235-.203 2.243-.61 3.024-.406.781-1.046 1.476-1.921 2.086-.828.562-1.89.953-3.188 1.172-1.297.203-2.96.304-4.992.304h-6.14z"/></svg>