<svg xmlns="http://www.w3.org/2000/svg" role="img" viewBox="-5.40 -5.40 410.54 250.54"><title>IBM® Service Management Unite(SMU) (App Framework 2019) logo</title><style>svg {enable-background:new 0 0 400 245}</style><style id="style2" type="text/css">.st5{fill:#4c83c3}</style><g id="g56"><path id="path12" fill="#4c83c3" d="M397.3 14h-65.7l4.1-11.3h61.6zM222.1 2.7h61l4 11.4h-65c.1-.1 0-11.4 0-11.4zm-48.3 0c10 1 18.8 4.6 26.3 11.4H89.5V2.7z" class="st5"/><path id="path14" fill="#4c83c3" d="M2.7 2.7h76.8V14H2.7z" class="st5"/><path id="path16" fill="#4c83c3" d="M397.3 35.3h-73.2l4-11.3h69.3v11.3zm-102.5 0h-72.6V24h68.6zM208.6 24c1.5 3.8 3.2 6.9 3.2 11.3H89.5V24z" class="st5"/><path id="path18" fill="#4c83c3" d="M2.7 24h76.8v11.3H2.7z" class="st5"/><path id="path20" fill="#4c83c3" d="M316.6 56.6l4.1-11.3h55v11.3zm-18.4-11.3l4.1 11.3h-58.5V45.3zm-85.5-.1c0 3.9-.5 7.9-1.6 11.3h-33.5V45.2z" class="st5"/><path id="path22" fill="#4c83c3" d="M24.1 45.3h33v11.3h-33z" class="st5"/><path id="path24" fill="#4c83c3" d="M111.7 45.2h33v11.3h-33z" class="st5"/><path id="path26" fill="#4c83c3" d="M276.2 68.8v8.6h-32.5V66.2h61.8l3.9 10.5 3.7-10.5h62.3v11.3h-32.3v-8.6l-3 8.6h-61zm-164.5-2.6h94.6c-2.1 3.8-5.8 8.3-9.4 11.3h-85.2z" class="st5"/><path id="path28" fill="#4c83c3" d="M24.1 66.2h33v11.3h-33z" class="st5"/><path id="path30" fill="#4c83c3" d="M343.3 87.5h32.3v11.3h-32.3z" class="st5"/><path id="path32" fill="#4c83c3" d="M276.2 87.5h-32.5v11.3h32.5c0-.2.1-11.3 0-11.3zm60.6 0c-.1 0-3.8 11.3-4 11.3h-46l-4.1-11.3zm-225.1 0h85c3.9 3.3 7.4 7.2 10.1 11.3h-95.2c.1-.2.1-11.3.1-11.3zM57.1 98.6V87.4H24.2v11.3h32.9z" class="st5"/><path id="path34" fill="#4c83c3" d="M343.3 108.7h32.3V120h-32.3z" class="st5"/><path id="path36" fill="#4c83c3" d="M243.8 108.7h32.5V120h-32.5z" class="st5"/><path id="path38" fill="#4c83c3" d="M325.3 119.9c0-.1 4-11.3 4.1-11.3h-39.1c-.1 0 4 11.3 4 11.3s31 .1 31 0zm-213.6 0v-11.3h33.5v11.3zm99.8-11.2c1.6 3.4 1.8 7.4 2.1 11.3h-35.5v-11.3z" class="st5"/><path id="path40" fill="#4c83c3" d="M24.2 108.7h33V120h-33z" class="st5"/><path id="path42" fill="#4c83c3" d="M343.3 129.5h54v11.3h-54z" class="st5"/><path id="path44" fill="#4c83c3" d="M222.1 129.5h54.1v11.3h-54.1z" class="st5"/><path id="path46" fill="#4c83c3" d="M317.9 140.8h-16.4l-4-11.3h24.3zM2.7 129.5v11.3h76.8v-11.3zm209.5 0c-.8 3.8-1.6 8.2-4.3 11.3H89.5v-11.3zm98.3 32.6H309l-3.9-11.3h9.3z" class="st5"/><path id="path48" fill="#4c83c3" d="M343.3 150.8h54v11.3h-54z" class="st5"/><path id="path50" fill="#4c83c3" d="M89.5 162.1v-11.3h111.2c-7.4 7.1-17.6 11.1-28.6 11.3H89.5" class="st5"/><path id="path52" fill="#4c83c3" d="M222.1 150.8h54.1v11.3h-54.1z" class="st5"/><path id="path54" fill="#4c83c3" d="M79.5 150.8v11.3H2.7v-11.3s76.7.1 76.8 0z" class="st5"/></g><g style="text-align:center" id="text61" fill="#000" fill-opacity="1" stroke="none" text-anchor="middle" writing-mode="lr-tb"><path id="path121" d="M29.77734 183.92773c-2.10937 0-3.84917.52084-5.2207 1.5625-1.37153 1.03299-2.05664 2.36112-2.05664 3.98438 0 1.41493.41168 2.5638 1.23633 3.44922.83333.87674 2.10937 1.4987 3.82812 1.86328.8507.17361 1.653.31684 2.4082.42969.7639.11284 1.47201.25607 2.12305.42968.85938.2257 1.4974.54124 1.91407.94922.42534.40799.63867 1.04297.63867 1.90235 0 .99826-.4477 1.79557-1.3418 2.39453-.88542.59896-2.12739.89844-3.7246.89844-1.12848 0-2.33443-.22136-3.61915-.66407-1.28472-.4427-2.41753-1.07074-3.39844-1.88672h-.18164v3.22852c1.15452.51215 2.28733.89778 3.39844 1.1582 1.1198.26042 2.37782.39063 3.7754.39063 1.30207 0 2.41384-.15625 3.33397-.46875.92882-.3125 1.73915-.74523 2.4336-1.30078.63368-.51216 1.12543-1.13716 1.47266-1.875.3559-.73785.5332-1.48503.5332-2.24024 0-1.38889-.36459-2.46962-1.09375-3.24219-.72917-.77256-1.81489-1.35047-3.25586-1.73242-.7118-.18229-1.57921-.35959-2.60352-.5332-1.0243-.17361-1.81358-.32183-2.36914-.44336-1.05034-.24306-1.7845-.59462-2.20117-1.05469-.41667-.46006-.625-1.09309-.625-1.90039 0-.90278.41667-1.63997 1.25-2.21289.84202-.57292 1.95378-.85937 3.33399-.85937 1.25868 0 2.48567.20833 3.68359.625 1.2066.40798 2.18012.92382 2.91797 1.54882h.18164v-3.04687c-.87674-.38195-1.88433-.70247-3.02149-.96289-1.13715-.26041-2.38715-.39063-3.75-.39063zm290.36524 0c-2.10938 0-3.84918.52084-5.2207 1.5625-1.37153 1.03299-2.0586 2.36112-2.0586 3.98438 0 1.41493.41363 2.5638 1.23828 3.44922.83334.87674 2.10938 1.4987 3.82813 1.86328.85069.17361 1.65299.31684 2.4082.42969.76389.11284 1.47201.25607 2.12305.42968.85938.2257 1.49739.54124 1.91406.94922.42535.40799.63672 1.04297.63672 1.90235 0 .99826-.44574 1.79557-1.33984 2.39453-.88542.59896-2.12739.89844-3.72461.89844-1.12848 0-2.33443-.22136-3.61915-.66407-1.28472-.4427-2.41753-1.07074-3.39843-1.88672h-.1836v3.22852c1.15452.51215 2.28733.89778 3.39844 1.1582 1.11979.26042 2.37978.39063 3.77735.39063 1.30208 0 2.41189-.15625 3.33203-.46875.92882-.3125 1.7411-.74523 2.43554-1.30078.63368-.51216 1.12349-1.13716 1.47071-1.875.3559-.73785.53515-1.48503.53515-2.24024 0-1.38889-.36458-2.46962-1.09375-3.24219-.72916-.77256-1.81488-1.35047-3.25586-1.73242-.7118-.18229-1.57921-.35959-2.60351-.5332-1.02431-.17361-1.81554-.32183-2.3711-.44336-1.05034-.24306-1.78255-.59462-2.19921-1.05469-.41667-.46006-.625-1.09309-.625-1.90039 0-.90278.41666-1.63997 1.25-2.21289.84201-.57292 1.95182-.85937 3.33203-.85937 1.25868 0 2.48762.20833 3.68554.625 1.2066.40798 2.17817.92382 2.91602 1.54882h.18359v-3.04687c-.87674-.38195-1.88433-.70247-3.02148-.96289-1.13715-.26041-2.38715-.39063-3.75-.39063zm-235.92383.22071v2.53906h2.75977v-2.53906zm264.16602 0v2.53906h2.75976v-2.53906zm-217.33008.13086v19.38672h2.4082v-16.70508l5.35156 11.36718h1.53711l5.39063-11.36718v16.70508h2.57812V184.2793h-3.58203l-5 10.79297-5.16797-10.79297zm162.51172.66406v4.17969h-1.65235v2.05664h1.65235v7.73437c0 1.76216.38758 3.04319 1.16015 3.8418s1.90039 1.19727 3.38477 1.19726c.42534 0 .90712-.0391 1.44531-.11718.54687-.0781 1.0497-.1773 1.50977-.29883v-2.20117h-.12891c-.19097.0781-.50347.1773-.9375.29883-.43403.11284-.8507.16992-1.25.16992-.68577 0-1.19857-.0781-1.53711-.23438-.32986-.16493-.59028-.42036-.78125-.76758-.20833-.37326-.3305-.77387-.36523-1.19921-.0347-.43403-.0508-1.03299-.0508-1.79688v-6.62695h5.05079v-2.05664h-5.05079v-4.17969zm62.34375 0v4.17969h-1.65235v2.05664h1.65235v7.73437c0 1.76216.38758 3.04319 1.16015 3.8418s1.90039 1.19727 3.38477 1.19726c.42534 0 .90712-.0391 1.44531-.11718.54687-.0781 1.0497-.1773 1.50977-.29883v-2.20117h-.12891c-.19097.0781-.50347.1773-.9375.29883-.43403.11284-.8507.16992-1.25.16992-.68577 0-1.19857-.0781-1.53711-.23438-.32986-.16493-.59028-.42036-.78125-.76758-.20833-.37326-.3305-.77387-.36523-1.19921-.0347-.43403-.0508-1.03299-.0508-1.79688v-6.62695h5.05078v-2.05664h-5.05078v-4.17969zm-308.59375 3.77539c-2.11806 0-3.82683.69814-5.12891 2.0957-1.2934 1.39757-1.9414 3.28559-1.9414 5.66407 0 2.40451.67708 4.26345 2.03124 5.57421 1.35417 1.30208 3.23915 1.95313 5.65235 1.95313.94618 0 1.84765-.11719 2.70703-.35156.85937-.23438 1.70269-.52583 2.52734-.87305v-2.66992h-.13086c-.42534.38194-1.14149.77257-2.14843 1.17187-.99827.39063-1.99284.58594-2.98243.58594-.74652 0-1.43164-.10417-2.05664-.3125-.61632-.20833-1.15017-.52083-1.60156-.9375-.46875-.42535-.83832-.96723-1.10742-1.62695-.2691-.6684-.40235-1.44965-.40235-2.34375h10.71485v-1.32813c0-2.10937-.53386-3.73698-1.60156-4.88281-1.05903-1.14583-2.56945-1.71875-4.53125-1.71875zm64.32421 0c-2.11806 0-3.82877.69814-5.13085 2.0957-1.29341 1.39757-1.93946 3.28559-1.93946 5.66407 0 2.40451.67709 4.26345 2.03125 5.57421 1.35417 1.30208 3.23719 1.95313 5.65039 1.95313.94618 0 1.84961-.11719 2.70899-.35156.85937-.23438 1.70073-.52583 2.52539-.87305v-2.66992h-.13086c-.42535.38194-1.14149.77257-2.14844 1.17187-.99826.39063-1.99088.58594-2.98047.58594-.74652 0-1.43359-.10417-2.05859-.3125-.61632-.20833-1.15018-.52083-1.60156-.9375-.46876-.42535-.83638-.96723-1.10547-1.62695-.2691-.6684-.4043-1.44965-.4043-2.34375h10.7168v-1.32813c0-2.10937-.53386-3.73698-1.60156-4.88281-1.05904-1.14583-2.56945-1.71875-4.53126-1.71875zm65.08985 0c-.85938 0-1.69575.1773-2.51172.5332-.81597.3559-1.6072.8507-2.37109 1.48438v-1.61328h-2.44727v14.54297h2.44727v-10.85938c.6684-.51215 1.36849-.93186 2.09765-1.26172.72917-.32986 1.42731-.49609 2.09571-.49609.65104 0 1.1799.0911 1.58789.27344.40798.17361.72048.44401.9375.80859.20833.32987.35156.78863.42968 1.37891.0781.5816.11719 1.2066.11719 1.875v8.28125h2.44922v-9.43946c0-1.77951-.41363-3.14171-1.23828-4.08789-.82465-.94618-2.02257-1.41992-3.59375-1.41992zm31.01562 0c-.79861 0-1.60091.17426-2.4082.52148-.80729.33854-1.4924.81533-2.05664 1.43165-.60764.65971-1.08941 1.44596-1.44531 2.35742-.34722.90278-.52149 1.97851-.52149 3.22851 0 2.28299.50782 4.05382 1.52344 5.3125 1.02431 1.25 2.40451 1.875 4.14063 1.875 1.04166 0 1.89605-.14322 2.56445-.42969.67709-.29513 1.3852-.73785 2.12305-1.32812v1.32812c0 .59029-.0651 1.12414-.19532 1.60157-.1302.47743-.34657.88607-.65039 1.22461-.30382.3559-.73047.63238-1.27734.83203s-1.23698.30078-2.07031.30078c-.86806 0-1.73546-.11719-2.60352-.35156-.86805-.2257-1.50108-.41797-1.90039-.57422h-.13086v2.5c.71181.19965 1.43294.35286 2.16211.45703.73785.11285 1.49305.16797 2.26562.16797 2.32639 0 4.04818-.57596 5.16797-1.73047s1.67969-2.96441 1.67969-5.42969v-12.89062h-2.29101l-.15625.625c-.63368-.34722-1.23763-.6046-1.81055-.76953-.56423-.17361-1.26736-.25977-2.10938-.25977zm17.22657 0c-2.11806 0-3.82683.69814-5.12891 2.0957-1.29341 1.39757-1.94141 3.28559-1.94141 5.66407 0 2.40451.67709 4.26345 2.03125 5.57421 1.35417 1.30208 3.23915 1.95313 5.65235 1.95313.94618 0 1.84765-.11719 2.70703-.35156.85937-.23438 1.70269-.52583 2.52734-.87305v-2.66992h-.13086c-.42534.38194-1.14149.77257-2.14843 1.17187-.99826.39063-1.99284.58594-2.98243.58594-.74652 0-1.43164-.10417-2.05664-.3125-.61632-.20833-1.15017-.52083-1.60156-.9375-.46875-.42535-.83833-.96723-1.10742-1.62695-.2691-.6684-.40235-1.44965-.40235-2.34375h10.71485v-1.32813c0-2.10937-.53385-3.73698-1.60156-4.88281-1.05903-1.14583-2.56945-1.71875-4.53125-1.71875zm17.00586 0c-.85938 0-1.67166.1773-2.43555.5332-.75521.3559-1.51346.8507-2.27735 1.48438v-1.61328h-2.44921v14.54297h2.44921v-10.85938c.66841-.51215 1.33551-.93186 2.00391-1.26172.67709-.32986 1.35113-.49609 2.01953-.49609.70313 0 1.24002.0961 1.61328.28711.37326.18229.65973.46072.85938.83398.18231.34722.29949.81098.35156 1.39258.0607.57291.0918 1.17991.0918 1.82227v8.28125h2.44726v-9.3086c0-.26042-.008-.52083-.0254-.78125-.0173-.2691-.0384-.50347-.0644-.70312.68577-.52952 1.37088-.9642 2.05664-1.30274.68577-.34722 1.37088-.52148 2.05664-.52148.70313 0 1.24197.0961 1.61524.28711.37326.19097.65972.47243.85937.8457.18231.34722.2995.81293.35156 1.39453.0607.5816.0918 1.1836.0918 1.8086v8.28125h2.44727v-9.43946c0-1.73611-.3826-3.08529-1.14649-4.04883-.75521-.97222-1.93012-1.45898-3.52734-1.45898-.92882 0-1.80122.18729-2.61719.56055-.81597.36458-1.7194.96354-2.70898 1.79687-.33855-.73784-.85439-1.31575-1.54883-1.73242-.68577-.41667-1.52409-.625-2.51367-.625zm24.81836 0c-2.11806 0-3.82878.69814-5.13086 2.0957-1.29341 1.39757-1.93946 3.28559-1.93946 5.66407 0 2.40451.67709 4.26345 2.03125 5.57421 1.35417 1.30208 3.23719 1.95313 5.65039 1.95313.94618 0 1.84961-.11719 2.70899-.35156.85937-.23438 1.70073-.52583 2.52539-.87305v-2.66992h-.13086c-.42535.38194-1.14149.77257-2.14844 1.17187-.99826.39063-1.99088.58594-2.98047.58594-.74652 0-1.43359-.10417-2.05859-.3125-.61632-.20833-1.15018-.52083-1.60156-.9375-.46876-.42535-.83638-.96723-1.10547-1.62695-.2691-.6684-.4043-1.44965-.4043-2.34375h10.7168v-1.32813c0-2.10937-.53386-3.73698-1.60157-4.88281-1.05903-1.14583-2.56945-1.71875-4.53124-1.71875zm17.17382 0c-.85937 0-1.6977.1773-2.51367.5332-.81597.3559-1.60525.8507-2.36914 1.48438v-1.61328h-2.44727v14.54297h2.44727v-10.85938c.6684-.51215 1.36654-.93186 2.0957-1.26172.72917-.32986 1.42925-.49609 2.09766-.49609.65104 0 1.1799.0911 1.58789.27344.40799.17361.72049.44401.9375.80859.20833.32987.35156.78863.42969 1.37891.0781.5816.11719 1.2066.11719 1.875v8.28125h2.44726v-9.43946c0-1.77951-.41167-3.14171-1.23633-4.08789-.82465-.94618-2.02257-1.41992-3.59375-1.41992zm88.45118 0c-2.11806 0-3.82878.69814-5.13086 2.0957-1.2934 1.39757-1.93946 3.28559-1.93946 5.66407 0 2.40451.67709 4.26345 2.03125 5.57421 1.35417 1.30208 3.2372 1.95313 5.65039 1.95313.94618 0 1.84961-.11719 2.70899-.35156.85938-.23438 1.70074-.52583 2.52539-.87305v-2.66992h-.13086c-.42535.38194-1.14149.77257-2.14844 1.17187-.99827.39063-1.99089.58594-2.98047.58594-.74652 0-1.43359-.10417-2.05859-.3125-.61632-.20833-1.15017-.52083-1.60156-.9375-.46875-.42535-.83637-.96723-1.10547-1.62695-.2691-.6684-.4043-1.44965-.4043-2.34375h10.7168v-1.32813c0-2.10937-.53386-3.73698-1.60157-4.88281-1.05902-1.14583-2.56944-1.71875-4.53124-1.71875zm-214.08985.0527c-.87673 0-1.76519.0781-2.66797.23438-.90278.15625-1.59288.29948-2.07031.42969v2.48633h.12891c.84202-.32118 1.65929-.56359 2.44922-.72852.78993-.17361 1.50607-.26172 2.14843-.26172.52952 0 1.03733.036 1.52344.10547.48611.0694.90277.20269 1.25.40234.36458.20834.64106.4948.83203.85938.19965.36458.30078.8253.30078 1.38086v.37695c-1.42361.0694-2.75672.17361-3.99804.3125s-2.30404.4043-3.18946.79492c-.87674.39063-1.55382.92948-2.03125 1.61524-.46875.67708-.70312 1.56554-.70312 2.66797 0 1.34548.45572 2.45225 1.36719 3.32031.91145.86806 2.02127 1.30273 3.33203 1.30273.7118 0 1.33376-.0701 1.86328-.20898.52951-.13021.99826-.29449 1.40625-.49414.34722-.15625.70182-.36458 1.0664-.625.37327-.2691.66971-.47743.88672-.625v1.54883h2.4336v-9.86914c0-.93751-.14324-1.72375-.42969-2.35743-.28646-.63368-.70313-1.14952-1.25-1.54883-.55556-.40798-1.21463-.69444-1.97852-.85937-.7552-.17361-1.64561-.25977-2.66992-.25977zm32.91797 0c-.87674 0-1.76715.0781-2.66992.23438-.90278.15625-1.59288.29948-2.07031.42969v2.48633h.13085c.84202-.32118 1.65734-.56359 2.44727-.72852.78993-.17361 1.50608-.26172 2.14844-.26172.52952 0 1.03733.036 1.52344.10547.48611.0694.90278.20269 1.25.40234.36458.20834.64301.4948.83398.85938.19965.36458.29883.8253.29883 1.38086v.37695c-1.42361.0694-2.75673.17361-3.99805.3125s-2.30404.4043-3.18945.79492c-.87674.39063-1.55383.92948-2.03125 1.61524-.46876.67708-.70313 1.56554-.70313 2.66797 0 1.34548.45573 2.45225 1.36719 3.32031.91146.86806 2.02323 1.30273 3.33399 1.30273.7118 0 1.33181-.0701 1.86132-.20898.52952-.13021.99827-.29449 1.40625-.49414.34722-.15625.70378-.36458 1.06836-.625.37326-.2691.66775-.47743.88477-.625v1.54883h2.43554v-9.86914c0-.93751-.14322-1.72375-.42968-2.35743-.28646-.63368-.70312-1.14952-1.25-1.54883-.55556-.40798-1.21658-.69444-1.98047-.85937-.75521-.17361-1.64367-.25977-2.66797-.25977zm-93.46484.0117c-2.1441 0-3.87088.67709-5.18164 2.03125-1.30209 1.35417-1.95313 3.22114-1.95313 5.59961 0 1.27604.17426 2.39085.52148 3.34571.34723.95486.83703 1.74609 1.4707 2.37109.625.625 1.37522 1.09375 2.25196 1.40625.87674.30382 1.84028.45508 2.89063.45508.82465 0 1.60286-.10916 2.33203-.32617.73784-.21702 1.5141-.51953 2.33008-.91016v-2.69531h-.13086c-.1823.14757-.42969.32487-.74219.5332-.3125.19965-.64605.38997-1.00195.57227-.40799.20833-.86871.3776-1.38086.50781-.51216.13021-1.01498.19531-1.50977.19531-1.42361 0-2.53038-.46875-3.32031-1.40625-.78125-.94618-1.17188-2.29535-1.17188-4.04883 0-1.80556.39866-3.17275 1.19727-4.10156.80729-.9375 1.90603-1.40625 3.29492-1.40625.7552 0 1.52843.15625 2.31836.46875.79861.3125 1.56988.7602 2.31641 1.3418h.13086v-2.72266c-.66841-.33855-1.40561-.625-2.21289-.85937-.79862-.23438-1.61589-.35157-2.44922-.35157zm-40.625.33985v14.54297h2.44921V193.3418c.65105-.52952 1.32813-.95921 2.03125-1.28907.70313-.33854 1.4323-.50781 2.1875-.50781.46875 0 .8724.0211 1.21094.0645.34722.0347.70182.0948 1.0664.18164h.13087v-2.51172c-.38195-.0608-.6684-.0999-.85938-.11719-.19097-.0261-.49848-.0391-.92383-.0391-.77256 0-1.53276.16428-2.2793.49414-.73784.32118-1.59222.87304-2.56445 1.65429v-2.14843zm9.79296 0l5.8457 14.54297h2.46095l5.88476-14.54297h-2.56445l-4.4668 11.57422-4.5039-11.57422zm17.42188 0v14.54297h2.44727V189.123zm247.16016 0v9.43945c0 1.80555.42664 3.17773 1.27734 4.11523.85069.92882 2.03863 1.39258 3.56641 1.39258.91146 0 1.74479-.17426 2.5-.52148.75521-.34722 1.54644-.84506 2.37109-1.4961v1.61329h2.44727v-14.54292H341.25v10.85937c-.65105.51216-1.35417.93186-2.10938 1.26172-.74652.32986-1.43663.49609-2.07031.49609-.7118 0-1.25564-.0881-1.6289-.26171-.37326-.17361-.67579-.45009-.91016-.83204-.2257-.37326-.37392-.82096-.44336-1.34179-.0695-.52952-.10351-1.16255-.10351-1.90039v-8.28125zm17.00586 0v14.54297h2.44726v-14.54292zM47.1875 190.73633c1.30208 0 2.26866.35156 2.90234 1.05469.64237.70312.96789 1.6977.97657 2.98242h-8.33203c.10416-1.14584.54188-2.10439 1.31445-2.87696.78125-.77257 1.8279-1.16015 3.13867-1.16015zm64.32227 0c1.30208 0 2.27061.35156 2.90429 1.05469.64238.70312.9679 1.6977.97656 2.98242h-8.33398c.10417-1.14584.54188-2.10439 1.31445-2.87696.78125-.77257 1.82791-1.16015 3.13868-1.16015zm113.33398 0c1.30208 0 2.26866.35156 2.90234 1.05469.64238.70312.9679 1.6977.97657 2.98242h-8.33204c.10417-1.14584.54188-2.10439 1.31446-2.87696.78124-.77257 1.8279-1.16015 3.13867-1.16015zm41.82227 0c1.30208 0 2.27061.35156 2.90429 1.05469.64238.70312.9679 1.6977.97657 2.98242h-8.33399c.10417-1.14584.54188-2.10439 1.31445-2.87696.78125-.77257 1.82791-1.16015 3.13868-1.16015zm105.625 0c1.30208 0 2.27061.35156 2.90429 1.05469.64238.70312.9679 1.6977.97657 2.98242h-8.33399c.10417-1.14584.54189-2.10439 1.31445-2.87696.78126-.77257 1.82792-1.16015 3.13868-1.16015zm-164.11524.18359c.55556 0 1.11242.0651 1.66797.19531.56423.12153 1.17122.32986 1.82227.625v7.92969c-.59896.46007-1.25803.82769-1.97852 1.10547-.71181.26909-1.42491.4043-2.13672.4043-1.32812 0-2.27864-.42166-2.85156-1.26367-.57291-.84202-.85938-2.079-.85938-3.71094 0-1.71875.38759-3.02886 1.16016-3.93164.77257-.90278 1.8303-1.35352 3.17578-1.35352zm-45.94922 5.11719v4.04883c-.60764.46875-1.26866.87239-1.98047 1.21094-.7118.32985-1.49609.49414-2.35547.49414-1.03298 0-1.80121-.20834-2.30468-.625-.50347-.42535-.75586-1.05339-.75586-1.88672 0-.73785.21636-1.31576.65039-1.73242.43403-.42535 1.0039-.73785 1.70703-.9375.59027-.16494 1.38758-.29016 2.39453-.37696 1.01563-.0868 1.89801-.15191 2.64453-.19531zm32.91602 0v4.04883c-.60764.46875-1.26671.87239-1.97852 1.21094-.7118.32985-1.49805.49414-2.35742.49414-1.03299 0-1.80121-.20834-2.30469-.625-.50347-.42535-.75586-1.05339-.75586-1.88672 0-.73785.21832-1.31576.65235-1.73242.43403-.42535 1.00196-.73785 1.70508-.9375.59028-.16494 1.38953-.29016 2.39648-.37696 1.01562-.0868 1.89605-.15191 2.64258-.19531zm8.71094 21.44531v2.53906h2.75976v-2.53906zm-36.36719.12891v11.60156c0 1.46701.15126 2.704.45508 3.71094.3125 1.00694.82031 1.86632 1.52343 2.57812.61632.625 1.37653 1.09874 2.2793 1.41993.90278.32118 1.96246.48242 3.17774.48242 1.18923 0 2.2309-.15321 3.125-.45703.89409-.30382 1.67534-.7856 2.34374-1.44532.70312-.69444 1.20595-1.56185 1.50977-2.60351.3125-1.05035.46875-2.2793.46875-3.68555v-11.60156h-2.57812v11.79687c0 .94618-.0731 1.74046-.22071 2.38282-.13888.63368-.37825 1.19856-.71679 1.69336-.39063.57291-.91146 1.0026-1.5625 1.28906-.65104.27778-1.44032.41601-2.36914.41601-.92014 0-1.71138-.14322-2.3711-.42968-.65105-.28646-1.16689-.71116-1.54883-1.27539-.33854-.4948-.58095-1.04666-.72851-1.6543-.13889-.60764-.20899-1.43598-.20899-2.48633v-11.73242zm43.89258.66406v4.17969h-1.65235v2.05859h1.65235v7.73438c0 1.76215.38758 3.04123 1.16015 3.83984s1.90039 1.19922 3.38477 1.19922c.42534 0 .90712-.0391 1.44531-.11719.54688-.0781 1.0497-.17925 1.50977-.30078v-2.19922H218.75c-.19097.0781-.50347.1773-.9375.29883-.43403.11285-.85069.16992-1.25.16992-.68576 0-1.19856-.0781-1.53711-.23437-.32986-.16494-.59028-.42231-.78125-.76953-.20832-.37326-.3305-.77192-.36523-1.19727-.0347-.43403-.0508-1.03299-.0508-1.79688v-6.62695h5.05079v-2.05859h-5.05079v-4.17969zm-16.93946 3.77734c-.85938 0-1.6977.17731-2.51367.53321-.81597.3559-1.60525.85069-2.36914 1.48437v-1.61523h-2.44726V237h2.44726v-10.85938c.66841-.51215 1.36654-.93381 2.0957-1.26367.72917-.32986 1.42926-.49414 2.09766-.49414.65104 0 1.1799.0911 1.58789.27344.40799.17361.72049.44205.9375.80664.20833.32986.35156.79059.42969 1.38086.0781.5816.11719 1.2066.11719 1.875V237h2.44726v-9.43945c0-1.77952-.41167-3.14367-1.23633-4.08985-.82465-.94618-2.02257-1.41797-3.59375-1.41797zm33.45117 0c-2.11805 0-3.82877.69814-5.13085 2.09571-1.29341 1.39757-1.93946 3.28559-1.93946 5.66406 0 2.40452.67709 4.26151 2.03125 5.57227 1.35417 1.30208 3.23719 1.95312 5.65039 1.95312.94618 0 1.84961-.11718 2.70899-.35156.85937-.23438 1.70073-.52388 2.52539-.8711v-2.66992h-.13086c-.42535.38194-1.14149.77257-2.14844 1.17188-.99826.39062-1.99088.58593-2.98047.58593-.74652.00001-1.43359-.10416-2.05859-.3125-.61632-.20833-1.15018-.52083-1.60156-.9375-.46876-.42534-.83638-.96723-1.10547-1.62695-.2691-.6684-.4043-1.44965-.4043-2.34375h10.7168v-1.32812c0-2.10938-.53386-3.73698-1.60156-4.88282-1.05904-1.14583-2.56945-1.71875-4.53126-1.71875zm-23.88085.40235V237h2.44726v-14.54492zm23.75 1.61523c1.30208 0 2.27061.35157 2.90429 1.05469.64238.70313.9679 1.6977.97656 2.98242h-8.33398c.10417-1.14583.54188-2.10633 1.31445-2.8789.78125-.77257 1.82791-1.15821 3.13868-1.15821z"/></g></svg>