<svg xmlns="http://www.w3.org/2000/svg" role="img" viewBox="-5.40 -5.40 410.54 233.04"><title>IBM® Z Netview (API Mediation Layer 2019) logo</title><style>svg {enable-background:new 0 0 400 245}</style><style id="style2" type="text/css">.st3{fill:#4c83c3}</style><g id="g56"><path id="path12" fill="#4c83c3" d="M397.3 14h-65.7l4.1-11.3h61.6zM222.1 2.7h61l4 11.4h-65c.1-.1 0-11.4 0-11.4zm-48.3 0c10 1 18.8 4.6 26.3 11.4H89.5V2.7z" class="st3"/><path id="path14" fill="#4c83c3" d="M2.7 2.7h76.8V14H2.7z" class="st3"/><path id="path16" fill="#4c83c3" d="M397.3 35.3h-73.2l4-11.3h69.3v11.3zm-102.5 0h-72.6V24h68.6zM208.6 24c1.5 3.8 3.2 6.9 3.2 11.3H89.5V24z" class="st3"/><path id="path18" fill="#4c83c3" d="M2.7 24h76.8v11.3H2.7z" class="st3"/><path id="path20" fill="#4c83c3" d="M316.6 56.6l4.1-11.3h55v11.3zm-18.4-11.3l4.1 11.3h-58.5V45.3zm-85.5-.1c0 3.9-.5 7.9-1.6 11.3h-33.5V45.2z" class="st3"/><path id="path22" fill="#4c83c3" d="M24.1 45.3h33v11.3h-33z" class="st3"/><path id="path24" fill="#4c83c3" d="M111.7 45.2h33v11.3h-33z" class="st3"/><path id="path26" fill="#4c83c3" d="M276.2 68.8v8.6h-32.5V66.2h61.8l3.9 10.5 3.7-10.5h62.3v11.3h-32.3v-8.6l-3 8.6h-61zm-164.5-2.6h94.6c-2.1 3.8-5.8 8.3-9.4 11.3h-85.2z" class="st3"/><path id="path28" fill="#4c83c3" d="M24.1 66.2h33v11.3h-33z" class="st3"/><path id="path30" fill="#4c83c3" d="M343.3 87.5h32.3v11.3h-32.3z" class="st3"/><path id="path32" fill="#4c83c3" d="M276.2 87.5h-32.5v11.3h32.5c0-.2.1-11.3 0-11.3zm60.6 0c-.1 0-3.8 11.3-4 11.3h-46l-4.1-11.3zm-225.1 0h85c3.9 3.3 7.4 7.2 10.1 11.3h-95.2c.1-.2.1-11.3.1-11.3zM57.1 98.6V87.4H24.2v11.3h32.9z" class="st3"/><path id="path34" fill="#4c83c3" d="M343.3 108.7h32.3V120h-32.3z" class="st3"/><path id="path36" fill="#4c83c3" d="M243.8 108.7h32.5V120h-32.5z" class="st3"/><path id="path38" fill="#4c83c3" d="M325.3 119.9c0-.1 4-11.3 4.1-11.3h-39.1c-.1 0 4 11.3 4 11.3s31 .1 31 0zm-213.6 0v-11.3h33.5v11.3zm99.8-11.2c1.6 3.4 1.8 7.4 2.1 11.3h-35.5v-11.3z" class="st3"/><path id="path40" fill="#4c83c3" d="M24.2 108.7h33V120h-33z" class="st3"/><path id="path42" fill="#4c83c3" d="M343.3 129.5h54v11.3h-54z" class="st3"/><path id="path44" fill="#4c83c3" d="M222.1 129.5h54.1v11.3h-54.1z" class="st3"/><path id="path46" fill="#4c83c3" d="M317.9 140.8h-16.4l-4-11.3h24.3zM2.7 129.5v11.3h76.8v-11.3zm209.5 0c-.8 3.8-1.6 8.2-4.3 11.3H89.5v-11.3zm98.3 32.6H309l-3.9-11.3h9.3z" class="st3"/><path id="path48" fill="#4c83c3" d="M343.3 150.8h54v11.3h-54z" class="st3"/><path id="path50" fill="#4c83c3" d="M89.5 162.1v-11.3h111.2c-7.4 7.1-17.6 11.1-28.6 11.3H89.5" class="st3"/><path id="path52" fill="#4c83c3" d="M222.1 150.8h54.1v11.3h-54.1z" class="st3"/><path id="path54" fill="#4c83c3" d="M79.5 150.8v11.3H2.7v-11.3s76.7.1 76.8 0z" class="st3"/></g><g id="text147" fill="#000" fill-opacity="1" stroke="none"><path id="path171" d="M108.2793 186.02734c-4.66146 0-8.64584 1.65365-11.95313 4.96094-3.29427 3.29427-4.9414 7.27213-4.9414 11.9336 0 4.66145 1.64713 8.64583 4.9414 11.95312 3.3073 3.29427 7.29167 4.94141 11.95313 4.94141s8.63932-1.64714 11.93359-4.94141c3.30729-3.30729 4.96094-7.29167 4.96094-11.95312 0-4.66147-1.65365-8.63933-4.96094-11.9336-3.29427-3.30729-7.27213-4.96094-11.93359-4.96094zm214.84375 0c-4.66146 0-8.64583 1.65365-11.95313 4.96094-3.29426 3.29427-4.9414 7.27213-4.9414 11.9336 0 4.66145 1.64714 8.64583 4.9414 11.95312 3.3073 3.29427 7.29167 4.94141 11.95313 4.94141s8.63932-1.64714 11.93359-4.94141c3.30729-3.30729 4.96094-7.29167 4.96094-11.95312 0-4.66147-1.65365-8.63933-4.96094-11.9336-3.29427-3.30729-7.27213-4.96094-11.93359-4.96094zm-84.16016.41016v3.80859h4.14063v-3.80859zm-174.98047.19531v3.4375H81.1504l-17.83203 22.05078v3.59375h22.69531v-3.4375h-18.4375l18.00781-22.14843v-3.4961zm82.26563 0v29.08203h3.61328v-26.01562l13.78906 26.01562h4.78516v-29.08203h-3.61328v23.75l-12.57813-23.75zm53.53515.9961v6.26953h-2.48047v3.08594h2.48047v11.60156c0 2.64322.57942 4.5638 1.73828 5.76172 1.15886 1.19791 2.85157 1.79687 5.07813 1.79687.63802 0 1.36067-.0586 2.16797-.17578.82031-.11719 1.57552-.26693 2.26562-.44922v-3.30078h-.19531c-.28646.11719-.75521.26693-1.40625.44922-.65104.16927-1.27604.25391-1.875.25391-1.02865 0-1.79687-.11719-2.30469-.35157-.49478-.24739-.88541-.63151-1.17187-1.15234-.31252-.55989-.49481-1.15885-.54688-1.79688-.0521-.65104-.0781-1.54948-.0781-2.69531v-9.9414h7.57812v-3.08594h-7.57812v-6.26953zm-91.5039.5664c4.03646 0 7.48047 1.44531 10.33203 4.33594 2.86458 2.89063 4.29687 6.35417 4.29687 10.39063 0 4.03645-1.43229 7.49999-4.29687 10.39062-2.85156 2.89063-6.29557 4.33594-10.33203 4.33594s-7.48698-1.44531-10.35157-4.33594c-2.85156-2.89063-4.27734-6.35417-4.27734-10.39062 0-4.03647 1.42578-7.5 4.27734-10.39063 2.86459-2.89063 6.31511-4.33594 10.35157-4.33594zm214.84375 0c4.03646 0 7.48047 1.44531 10.33203 4.33594 2.86458 2.89063 4.29687 6.35416 4.29687 10.39063 0 4.03645-1.43229 7.49999-4.29687 10.39062-2.85156 2.89063-6.29557 4.33594-10.33203 4.33594s-7.48699-1.44531-10.35157-4.33594c-2.85156-2.89063-4.27734-6.35417-4.27734-10.39062 0-4.03647 1.42578-7.5 4.27734-10.39063 2.86458-2.89063 6.31511-4.33594 10.35157-4.33594zm-138.1836 5.09766c-3.17708 0-5.74218 1.04818-7.69531 3.14453-1.9401 2.09635-2.91016 4.92839-2.91016 8.49609 0 3.60678 1.01563 6.39323 3.04688 8.35938 2.03125 1.95313 4.85678 2.92969 8.47656 2.92969 1.41928 0 2.77344-.17578 4.0625-.52735 1.28907-.35156 2.55208-.78776 3.78906-1.30859v-4.00391h-.19531c-.63802.57292-1.71224 1.15885-3.22265 1.75781-1.4974.58594-2.98829.87891-4.47266.87891-1.11979 0-2.14844-.15625-3.08594-.46875-.92448-.3125-1.72526-.78125-2.40234-1.40625-.70313-.63802-1.25651-1.45182-1.66016-2.44141-.40364-1.0026-.60547-2.17447-.60547-3.51562h16.07422v-1.99219c0-3.16406-.80078-5.60546-2.40234-7.32422-1.58854-1.71874-3.85416-2.57812-6.79688-2.57812zm74.29688 0c-3.17709 0-5.74219 1.04818-7.69531 3.14453-1.94011 2.09635-2.91016 4.92839-2.91016 8.49609 0 3.60678 1.01562 6.39323 3.04687 8.35938 2.03125 1.95313 4.85677 2.92969 8.47657 2.92969 1.41926 0 2.77343-.17578 4.0625-.52735 1.28906-.35156 2.55208-.78776 3.78906-1.30859v-4.00391h-.19531c-.63802.57292-1.71224 1.15885-3.22266 1.75781-1.49739.58594-2.98828.87891-4.47266.87891-1.11979 0-2.14843-.15625-3.08593-.46875-.92448-.3125-1.72526-.78125-2.40235-1.40625-.70312-.63802-1.25651-1.45182-1.66015-2.44141-.40365-1.0026-.60547-2.17447-.60547-3.51562h16.07422v-1.99219c0-3.16406-.80078-5.60546-2.40235-7.32422-1.58854-1.71874-3.85417-2.57812-6.79687-2.57812zm-157.28516.35156v17.87109h3.22266v-6.93359h3.16406l6.46484 6.93359h4.35547l-7.5-7.8125c1.28907-.49479 2.29818-1.15885 3.02735-1.99218.74218-.84636 1.11328-1.90104 1.11328-3.16406 0-.95053-.19531-1.73829-.58594-2.36329-.3776-.63802-.97656-1.17838-1.79687-1.62109-.76824-.40365-1.54949-.65755-2.34375-.76172-.79428-.10417-1.80339-.15625-3.02735-.15625zm214.84375 0v17.87109h3.22266v-6.93359h3.16406l6.46484 6.93359h4.35547l-7.5-7.8125c1.28907-.49479 2.29818-1.15885 3.02735-1.99218.74218-.84636 1.11328-1.90105 1.11328-3.16406 0-.95053-.19531-1.73829-.58594-2.36329-.3776-.63802-.97656-1.17838-1.79687-1.62109-.76824-.40365-1.54949-.65755-2.34375-.76172-.79428-.10417-1.80339-.15625-3.02735-.15625zm-103.73047.25391l8.76953 21.8164h3.69141l8.82813-21.8164h-3.84766l-6.69922 17.36328-6.75781-17.36328zm26.13282 0v21.8164h3.67187v-21.8164zm32.87109 0l5.74219 21.8164h3.3789l5.56641-16.8164 5.60547 16.8164h3.39844l5.68359-21.8164h-3.69141l-3.78906 16.89453-5.58594-16.89453h-3.02734l-5.44922 16.89453-4.00391-16.89453zm-166.89453 2.1875h2.91015c.6901 0 1.26302.0325 1.71875.0977.45573.0651.88542.20834 1.28907.42969.42968.23437.73567.53385.91797.89844.18228.36458.27343.78125.27343 1.25 0 .58594-.0846 1.07422-.2539 1.46484-.15626.39063-.4362.7487-.83985 1.07422-.3776.29948-.85937.51433-1.44531.64453-.58593.11719-1.28255.17578-2.08984.17578h-2.48047zm214.84375 0h2.91015c.6901 0 1.26302.0325 1.71875.0977.45573.0651.88542.20834 1.28907.42969.42968.23437.73567.53385.91797.89844.18228.36458.27343.78125.27343 1.25 0 .58594-.0846 1.07422-.2539 1.46484-.15626.39063-.4362.7487-.83985 1.07422-.3776.29948-.85937.51433-1.44531.64453-.58593.11719-1.28255.17578-2.08984.17578h-2.48047zm-135.27344.23437c1.95313 0 3.40495.52735 4.35547 1.58203.96356 1.0547 1.45184 2.54558 1.46484 4.47266h-12.5c.15626-1.71875.81381-3.15755 1.97266-4.31641 1.17187-1.15885 2.74088-1.73828 4.70703-1.73828zm74.29688 0c1.95312 0 3.40494.52735 4.35546 1.58203.96356 1.0547 1.45185 2.54558 1.46485 4.47266h-12.5c.15624-1.71875.81379-3.15755 1.97265-4.31641 1.17188-1.15885 2.74089-1.73828 4.70704-1.73828z"/></g></svg>