<svg xmlns="http://www.w3.org/2000/svg" role="img" viewBox="-7.97 34.03 414.18 214.18"><title>IBM Z Distribution for Zowe (Support Provider App Framework ZOWE V1) logo</title><style>svg {enable-background:new 0 0 400 245}</style><style id="style2" type="text/css">.st0{fill:#4c83c3}</style><g id="g130"><path id="polygon4" fill="#4c83c3" d="m 336.1,42.1 h 62.2 V 53.5 H 332 Z" class="st0"/><path id="path6" d="m 221.5,42.1 h 61.6 l 4,11.5 c 0,0 -65.6,0 -65.6,0 0.1,-0.1 0,-11.5 0,-11.5 z" class="st0"/><path id="path8" d="m 172.7,42.1 c 10.1,1 19,4.6 26.5,11.5 0,0 -111.6,0 -111.6,0 0,0 0,-11.5 0,-11.5 z" class="st0"/><g id="g14"><path id="rect10" fill="#4c83c3" d="m 0,42.099998 h 77.5 v 11.4 H 0 Z" class="st0"/></g><path id="path16" d="m 398.3,75 h -73.9 c 0,0 4,-11.4 4,-11.4 h 69.9 z" class="st0"/><path id="polygon18" fill="#4c83c3" d="m 221.5,63.6 h 69.2 l 4.1,11.4 h -73.3 z" class="st0"/><path id="path20" d="m 207.8,63.6 c 1.5,3.8 3.2,7 3.2,11.4 H 87.6 V 63.6 Z" class="st0"/><g id="g26"><path id="rect22" fill="#4c83c3" d="m 0,63.599998 h 77.5 v 11.4 H 0 Z" class="st0"/></g><path id="polygon28" fill="#4c83c3" d="m 376.4,85.1 v 11.4 h -59.6 l 4.1,-11.4 z" class="st0"/><path id="polygon30" fill="#4c83c3" d="M 243.4,96.5 V 85.1 h 54.9 l 4.1,11.4 z" class="st0"/><path id="path32" d="m 212,85 c 0,3.9 -0.5,8 -1.6,11.4 H 176.6 V 85 Z" class="st0"/><g id="g38"><path id="rect34" fill="#4c83c3" d="m 21.6,85.099998 h 33.3 v 11.4 H 21.6 Z" class="st0"/></g><g id="g44"><path id="rect40" fill="#4c83c3" d="m 110,85 h 33.3 V 96.4 H 110 Z" class="st0"/></g><path id="path46" d="m 276.1,108.8 c 0,0 0,8.7 0,8.7 h -32.8 v -11.4 h 62.4 l 3.9,10.6 c 0,0 3.7,-10.6 3.7,-10.6 h 62.9 v 11.4 h -32.6 c 0,0 0,-8.7 0,-8.7 l -3,8.7 H 279 Z" class="st0"/><path id="path48" d="m 110,106.1 h 95.5 v 0 c -2.1,3.8 -5.9,8.4 -9.5,11.4 0,0 -86,0 -86,0 0,0 0,-11.4 0,-11.4 z" class="st0"/><g id="g54"><path id="rect50" fill="#4c83c3" d="m 21.6,106.1 h 33.3 v 11.4 H 21.6 Z" class="st0"/></g><g id="g60"><path id="rect56" fill="#4c83c3" d="m 343.79999,127.6 h 32.6 V 139 h -32.6 z" class="st0"/></g><path id="path62" d="M 276.1,127.6 H 243.3 V 139 c 0,0 32.8,0 32.8,0 0,-0.1 0.1,-11.4 0,-11.4 z" class="st0"/><path id="path64" d="m 337.2,127.6 c -0.1,0 -3.8,11.4 -4,11.4 h -46.4 c 0,0 -4.1,-11.4 -4.1,-11.4 z" class="st0"/><path id="path66" d="m 110,127.6 h 85.8 c 3.9,3.3 7.5,7.3 10.2,11.4 0.2,0 -96.1,0 -96.1,0 0.1,-0.1 0.1,-11.4 0.1,-11.4 z" class="st0"/><path id="path68" d="M 54.9,138.9 V 127.5 H 21.7 c 0,0 0,11.4 0,11.4 0,0 33.2,0 33.2,0 z" class="st0"/><g id="g74"><path id="rect70" fill="#4c83c3" d="m 343.79999,149 h 32.6 v 11.4 h -32.6 z" class="st0"/></g><g id="g80"><path id="rect76" fill="#4c83c3" d="m 243.39999,149 h 32.8 v 11.4 h -32.8 z" class="st0"/></g><path id="path82" d="m 325.6,160.4 c 0,-0.1 4,-11.4 4.1,-11.4 h -39.5 c -0.1,0 4,11.4 4,11.4 0,0 31.4,0.1 31.4,0 z" class="st0"/><path id="path84" d="m 110,160.4 c 0,0 0,-11.4 0,-11.4 h 33.8 c 0,0 0,11.4 0,11.4 -0.1,0 -33.8,0 -33.8,0 z" class="st0"/><path id="path86" d="m 210.8,149 c 1.6,3.4 1.8,7.5 2.1,11.4 H 177.1 V 149 Z" class="st0"/><g id="g92"><path id="rect88" fill="#4c83c3" d="M 21.700001,149 H 55 v 11.4 H 21.700001 Z" class="st0"/></g><g id="g98"><path id="rect94" fill="#4c83c3" d="m 343.79999,170 h 54.5 v 11.4 h -54.5 z" class="st0"/></g><g id="g104"><path id="rect100" fill="#4c83c3" d="m 221.5,170 h 54.6 v 11.4 h -54.6 z" class="st0"/></g><path id="polygon106" fill="#4c83c3" d="m 297.6,170 h 24.5 l -3.9,11.4 h -16.6 z" class="st0"/><path id="path108" d="m 0,170 v 11.4 h 77.5 c 0,0 0,-11.4 0,-11.4 0,0 -77.6,0 -77.5,0 z" class="st0"/><path id="path110" d="m 211.5,170 c -0.8,3.8 -1.6,8.3 -4.3,11.4 h -1 H 87.6 V 170 Z" class="st0"/><path id="polygon112" fill="#4c83c3" d="m 305.3,191.5 h 9.4 l -4,11.4 h -1.5 z" class="st0"/><g id="g118"><path id="rect114" fill="#4c83c3" d="m 343.79999,191.5 h 54.5 v 11.4 h -54.5 z" class="st0"/></g><path id="path120" d="m 87.6,202.9 v -11.4 c 0,0 111.9,0 112.2,0 -7.5,7.2 -17.8,11.2 -28.9,11.4 H 87.6" class="st0"/><g id="g126"><path id="rect122" fill="#4c83c3" d="m 221.5,191.5 h 54.6 v 11.4 h -54.6 z" class="st0"/></g><path id="path128" d="m 77.5,191.5 c 0,0 0,11.4 0,11.4 0,0 -77.4,0 -77.5,0 0,0 0,-11.4 0,-11.4 0,0 77.4,0.1 77.5,0 z" class="st0"/></g><g id="text132" text-anchor="middle"><path id="path158" d="M 54.131836,240 H 47.81543 v -1.63281 h 2.094726 V 225.6377 H 47.81543 v -1.63282 h 6.316406 v 1.63282 h -2.094727 v 12.72949 h 2.094727 z"/><path id="path160" d="m 69.836914,235.08008 q 0,1.19238 -0.451172,2.10547 -0.451172,0.91308 -1.213867,1.5039 -0.902344,0.70899 -1.987305,1.00977 Q 65.110352,240 63.445312,240 h -5.671875 v -15.99512 h 4.737305 q 1.750977,0 2.621094,0.12891 0.870117,0.12891 1.665039,0.53711 0.880859,0.46191 1.27832,1.19238 0.397461,0.71973 0.397461,1.72949 0,1.13868 -0.580078,1.94434 -0.580078,0.79492 -1.546875,1.27832 v 0.0859 q 1.62207,0.333 2.556641,1.42871 0.93457,1.08496 0.93457,2.75 z m -3.577148,-7.20801 q 0,-0.58008 -0.19336,-0.97754 -0.193359,-0.39746 -0.623047,-0.64453 -0.504882,-0.29004 -1.224609,-0.35449 -0.719727,-0.0752 -1.783203,-0.0752 h -2.535156 v 4.61914 h 2.75 q 0.999023,0 1.589843,-0.0967 0.590821,-0.10742 1.095703,-0.42968 0.504883,-0.32227 0.708985,-0.82715 0.214844,-0.51563 0.214844,-1.21387 z m 1.364257,7.29395 q 0,-0.9668 -0.290039,-1.53614 -0.290039,-0.56933 -1.052734,-0.96679 -0.515625,-0.26856 -1.256836,-0.34375 -0.730469,-0.0859 -1.783203,-0.0859 h -3.34082 v 5.95117 h 2.814453 q 1.396484,0 2.288086,-0.13965 0.891601,-0.15039 1.460937,-0.53711 0.601563,-0.41894 0.88086,-0.95605 0.279296,-0.53711 0.279296,-1.38574 z"/><path id="path162" d="m 87.099609,240 h -2.126953 v -13.78223 l -4.447265,9.37793 h -1.267579 l -4.415039,-9.37793 V 240 h -1.987304 v -15.99512 h 2.90039 l 4.264649,8.90528 4.125,-8.90528 h 2.954101 z"/><path id="path164" d="M 110.83984,240 H 98.357422 v -1.97656 l 9.807618,-12.12793 h -9.442384 v -1.89063 h 11.880864 v 1.92285 l -9.9043,12.18164 h 10.14062 z"/><path id="path166" d="m 135.48242,232.01855 q 0,2.18067 -0.95605,3.95313 -0.94532,1.77246 -2.52442,2.75 -1.0957,0.67676 -2.44922,0.97754 Q 128.20996,240 126.00781,240 h -4.03906 v -15.99512 h 3.99609 q 2.3418,0 3.7168,0.34375 1.38574,0.33301 2.3418,0.92383 1.63281,1.02051 2.5459,2.71777 0.91308,1.69727 0.91308,4.02832 z m -2.22363,-0.0322 q 0,-1.87988 -0.65527,-3.16895 -0.65528,-1.28906 -1.95508,-2.03027 -0.94532,-0.53711 -2.00879,-0.74121 -1.06348,-0.21485 -2.5459,-0.21485 h -1.99805 v 12.34278 h 1.99805 q 1.53613,0 2.6748,-0.22559 1.14942,-0.22558 2.10547,-0.83789 1.19239,-0.76269 1.78321,-2.00879 0.60156,-1.24609 0.60156,-3.11523 z"/><path id="path168" d="m 140.9502,225.99219 h -2.27735 v -2.09473 h 2.27735 z M 140.82129,240 h -2.01953 v -11.99902 h 2.01953 z"/><path id="path170" d="m 153.41113,236.54102 q 0,1.64355 -1.36426,2.69628 -1.35351,1.05274 -3.70605,1.05274 -1.33203,0 -2.44922,-0.31152 -1.10644,-0.32227 -1.8584,-0.69825 v -2.2666 h 0.10742 q 0.95606,0.71973 2.12696,1.14942 1.1709,0.41894 2.24512,0.41894 1.33203,0 2.08398,-0.42969 0.75195,-0.42968 0.75195,-1.35351 0,-0.70899 -0.4082,-1.07422 -0.4082,-0.36524 -1.56836,-0.62305 -0.42969,-0.0967 -1.12793,-0.22558 -0.6875,-0.12891 -1.25684,-0.2793 -1.5791,-0.41895 -2.24511,-1.22461 -0.65528,-0.81641 -0.65528,-1.99805 0,-0.74121 0.30079,-1.39648 0.31152,-0.65527 0.93457,-1.1709 0.60156,-0.50488 1.52539,-0.79492 0.93457,-0.30078 2.08398,-0.30078 1.07422,0 2.16992,0.26855 1.10645,0.25781 1.83692,0.63379 v 2.15918 h -0.10743 q -0.77343,-0.56934 -1.87988,-0.95605 -1.10644,-0.39746 -2.16992,-0.39746 -1.10645,0 -1.86914,0.42968 -0.7627,0.41895 -0.7627,1.25684 0,0.74121 0.46192,1.11719 0.45117,0.37597 1.46094,0.6123 0.55859,0.12891 1.24609,0.25781 0.69824,0.12891 1.16016,0.23633 1.40722,0.32227 2.16992,1.10645 0.76269,0.79492 0.76269,2.10547 z"/><path id="path172" d="m 162.54199,239.89258 q -0.56933,0.15039 -1.24609,0.24707 -0.66602,0.0967 -1.19238,0.0967 -1.83692,0 -2.79297,-0.98828 -0.95606,-0.98828 -0.95606,-3.16895 v -6.38086 h -1.36426 v -1.69726 h 1.36426 v -3.44825 h 2.01953 v 3.44825 h 4.16797 v 1.69726 h -4.16797 v 5.46778 q 0,0.94531 0.043,1.48242 0.043,0.52636 0.30078,0.98828 0.23633,0.42969 0.64453,0.63379 0.41895,0.19336 1.26758,0.19336 0.49414,0 1.03125,-0.13965 0.53711,-0.15039 0.77344,-0.24707 h 0.10742 z"/><path id="path174" d="m 172.47852,230.20312 h -0.10743 q -0.45117,-0.10742 -0.88086,-0.15039 -0.41894,-0.0537 -0.99902,-0.0537 -0.93457,0 -1.80469,0.41895 -0.87011,0.4082 -1.67578,1.06348 V 240 h -2.01953 v -11.99902 h 2.01953 v 1.77246 q 1.20313,-0.9668 2.11621,-1.36426 0.92383,-0.4082 1.87989,-0.4082 0.52636,0 0.76269,0.0322 0.23633,0.0215 0.70899,0.0967 z"/><path id="path176" d="m 176.57129,225.99219 h -2.27734 v -2.09473 h 2.27734 z M 176.44238,240 h -2.01953 v -11.99902 h 2.01953 z"/><path id="path178" d="m 191.01953,233.90918 q 0,1.50391 -0.42969,2.70703 -0.41894,1.20313 -1.13867,2.01953 -0.76269,0.84863 -1.67578,1.27832 -0.91309,0.41895 -2.00879,0.41895 -1.02051,0 -1.7832,-0.24707 -0.7627,-0.23633 -1.50391,-0.64453 L 182.35059,240 h -1.89063 v -16.71484 h 2.01953 v 5.97265 q 0.84863,-0.69824 1.80469,-1.13867 0.95605,-0.45117 2.14844,-0.45117 2.12695,0 3.35156,1.63281 1.23535,1.63281 1.23535,4.6084 z m -2.08398,0.0537 q 0,-2.14844 -0.70899,-3.25488 -0.70898,-1.11719 -2.28808,-1.11719 -0.88086,0 -1.78321,0.38672 -0.90234,0.37598 -1.67578,0.97754 v 6.875 q 0.85938,0.38672 1.47168,0.53711 0.62305,0.15039 1.40723,0.15039 1.67578,0 2.62109,-1.09571 0.95606,-1.10644 0.95606,-3.45898 z"/><path id="path180" d="m 204.11426,240 h -2.01953 v -1.33203 q -1.02051,0.80566 -1.95508,1.23535 -0.93457,0.42969 -2.0625,0.42969 -1.89063,0 -2.94336,-1.14942 -1.05274,-1.16015 -1.05274,-3.39453 v -7.78808 h 2.01954 v 6.83203 q 0,0.91308 0.0859,1.56836 0.0859,0.64453 0.36524,1.10644 0.29004,0.47266 0.75195,0.6875 0.46191,0.21485 1.34277,0.21485 0.78418,0 1.70801,-0.40821 0.93457,-0.4082 1.74024,-1.04199 v -8.95898 h 2.01953 z"/><path id="path182" d="m 214.31934,239.89258 q -0.56934,0.15039 -1.2461,0.24707 -0.66601,0.0967 -1.19238,0.0967 -1.83691,0 -2.79297,-0.98828 -0.95605,-0.98828 -0.95605,-3.16895 v -6.38086 h -1.36426 v -1.69726 h 1.36426 v -3.44825 h 2.01953 v 3.44825 h 4.16797 v 1.69726 h -4.16797 v 5.46778 q 0,0.94531 0.043,1.48242 0.043,0.52636 0.30078,0.98828 0.23633,0.42969 0.64453,0.63379 0.41894,0.19336 1.26758,0.19336 0.49414,0 1.03125,-0.13965 0.53711,-0.15039 0.77343,-0.24707 h 0.10743 z"/><path id="path184" d="m 218.93848,225.99219 h -2.27735 v -2.09473 h 2.27735 z M 218.80957,240 h -2.01953 v -11.99902 h 2.01953 z"/><path id="path186" d="m 233.05371,234.00586 q 0,2.93262 -1.50391,4.62988 -1.5039,1.69727 -4.02832,1.69727 -2.54589,0 -4.0498,-1.69727 -1.49316,-1.69726 -1.49316,-4.62988 0,-2.93262 1.49316,-4.62988 1.50391,-1.70801 4.0498,-1.70801 2.52442,0 4.02832,1.70801 1.50391,1.69726 1.50391,4.62988 z m -2.08398,0 q 0,-2.33106 -0.91309,-3.45899 -0.91309,-1.13867 -2.53516,-1.13867 -1.64355,0 -2.55664,1.13867 -0.90234,1.12793 -0.90234,3.45899 0,2.25586 0.91309,3.42676 0.91308,1.16015 2.54589,1.16015 1.61133,0 2.52442,-1.14941 0.92383,-1.16016 0.92383,-3.4375 z"/><path id="path188" d="m 246.22363,240 h -2.01953 v -6.83203 q 0,-0.82715 -0.0967,-1.54688 -0.0967,-0.73047 -0.35449,-1.13867 -0.26856,-0.45117 -0.77344,-0.66601 -0.50488,-0.22559 -1.31054,-0.22559 -0.82715,0 -1.7295,0.4082 -0.90234,0.40821 -1.72949,1.042 V 240 h -2.01953 v -11.99902 h 2.01953 v 1.33203 q 0.94531,-0.78418 1.95508,-1.22461 1.00976,-0.44043 2.07324,-0.44043 1.94434,0 2.96484,1.1709 1.02051,1.1709 1.02051,3.37304 z"/><path id="path190" d="m 264.30273,225.24023 h -0.10742 q -0.33301,-0.0967 -0.87011,-0.19336 -0.53711,-0.10742 -0.94532,-0.10742 -1.2998,0 -1.89062,0.58008 -0.58008,0.56934 -0.58008,2.07324 v 0.40821 h 3.6416 v 1.69726 h -3.57715 V 240 h -2.01953 v -10.30176 h -1.36426 v -1.69726 h 1.36426 v -0.39746 q 0,-2.1377 1.06348,-3.27637 1.06347,-1.14942 3.07226,-1.14942 0.67676,0 1.21387,0.0645 0.54785,0.0644 0.99902,0.15039 z"/><path id="path192" d="m 275.80762,234.00586 q 0,2.93262 -1.50391,4.62988 -1.50391,1.69727 -4.02832,1.69727 -2.5459,0 -4.0498,-1.69727 -1.49317,-1.69726 -1.49317,-4.62988 0,-2.93262 1.49317,-4.62988 1.5039,-1.70801 4.0498,-1.70801 2.52441,0 4.02832,1.70801 1.50391,1.69726 1.50391,4.62988 z m -2.08399,0 q 0,-2.33106 -0.91308,-3.45899 -0.91309,-1.13867 -2.53516,-1.13867 -1.64355,0 -2.55664,1.13867 -0.90234,1.12793 -0.90234,3.45899 0,2.25586 0.91308,3.42676 0.91309,1.16015 2.5459,1.16015 1.61133,0 2.52441,-1.14941 0.92383,-1.16016 0.92383,-3.4375 z"/><path id="path194" d="m 286.43164,230.20312 h -0.10742 q -0.45117,-0.10742 -0.88086,-0.15039 -0.41895,-0.0537 -0.99902,-0.0537 -0.93457,0 -1.80469,0.41895 -0.87012,0.4082 -1.67578,1.06348 V 240 h -2.01953 v -11.99902 h 2.01953 v 1.77246 q 1.20312,-0.9668 2.11621,-1.36426 0.92383,-0.4082 1.87988,-0.4082 0.52637,0 0.7627,0.0322 0.23632,0.0215 0.70898,0.0967 z"/><path id="path196" d="m 307.9375,240 h -12.48242 v -1.97656 l 9.80762,-12.12793 h -9.44239 v -1.89063 h 11.88086 v 1.92285 l -9.9043,12.18164 h 10.14063 z"/><path id="path198" d="m 321.39746,234.00586 q 0,2.93262 -1.50391,4.62988 -1.5039,1.69727 -4.02832,1.69727 -2.54589,0 -4.0498,-1.69727 -1.49316,-1.69726 -1.49316,-4.62988 0,-2.93262 1.49316,-4.62988 1.50391,-1.70801 4.0498,-1.70801 2.52442,0 4.02832,1.70801 1.50391,1.69726 1.50391,4.62988 z m -2.08398,0 q 0,-2.33106 -0.91309,-3.45899 -0.91309,-1.13867 -2.53516,-1.13867 -1.64355,0 -2.55664,1.13867 -0.90234,1.12793 -0.90234,3.45899 0,2.25586 0.91309,3.42676 0.91308,1.16015 2.54589,1.16015 1.61133,0 2.52442,-1.14941 0.92383,-1.16016 0.92383,-3.4375 z"/><path id="path200" d="M 339.62695,228.00098 336.50098,240 h -1.86914 L 331.54883,230.75098 328.4873,240 h -1.85839 l -3.15821,-11.99902 h 2.10547 l 2.20215,9.29199 2.99707,-9.29199 h 1.66504 l 3.07227,9.29199 2.08398,-9.29199 z"/><path id="path202" d="m 352.58203,234.20996 h -8.84082 q 0,1.10645 0.33301,1.93359 0.33301,0.81641 0.91308,1.34278 0.5586,0.51562 1.32129,0.77344 0.77344,0.25781 1.69727,0.25781 1.22461,0 2.45996,-0.4834 1.24609,-0.49414 1.77246,-0.9668 h 0.10742 v 2.20215 q -1.0205,0.42969 -2.08398,0.71973 -1.06348,0.29004 -2.23438,0.29004 -2.98632,0 -4.66211,-1.61133 -1.67578,-1.62207 -1.67578,-4.59766 0,-2.94336 1.60059,-4.67285 1.61133,-1.72949 4.23242,-1.72949 2.42774,0 3.73828,1.41797 1.32129,1.41797 1.32129,4.02832 z m -1.96582,-1.54687 q -0.0107,-1.58985 -0.80566,-2.45997 -0.78418,-0.87011 -2.39551,-0.87011 -1.62207,0 -2.58887,0.95605 -0.95605,0.95606 -1.08496,2.37403 z"/></g></svg>