<svg xmlns="http://www.w3.org/2000/svg" role="img" viewBox="-5.40 -5.40 410.54 253.29"><title>IBM® Service Management Suite for z/OS logo</title><style>svg {enable-background:new 0 0 400 245}</style><style id="style2" type="text/css">.st3{fill:#4c83c3}</style><g id="g10" fill="#000" fill-opacity="1" stroke="none"><g style="text-align:center" id="text37" text-anchor="middle" writing-mode="lr-tb"><path id="path99" d="M13.113 177.533c-2.32 0-4.233.573-5.742 1.719-1.509 1.136-2.264 2.597-2.264 4.383 0 1.556.455 2.823 1.362 3.797.916.964 2.32 1.645 4.21 2.047.936.19 1.818.348 2.65.472a21 21 0 0 1 2.335.473c.945.248 1.647.598 2.106 1.047.467.448.7 1.144.7 2.09 0 1.098-.49 1.977-1.474 2.636-.974.66-2.34.989-4.098.989-1.24 0-2.567-.244-3.98-.73-1.413-.488-2.66-1.181-3.738-2.079h-.201v3.553a21.11 21.11 0 0 0 3.738 1.275c1.232.287 2.617.43 4.154.43 1.432 0 2.654-.172 3.666-.516 1.022-.344 1.914-.822 2.678-1.433a5.788 5.788 0 0 0 1.619-2.063c.391-.812.588-1.632.588-2.463 0-1.528-.401-2.716-1.203-3.566-.802-.85-1.997-1.484-3.582-1.905-.783-.2-1.737-.396-2.864-.587a60.045 60.045 0 0 1-2.607-.487c-1.155-.267-1.962-.654-2.42-1.16-.458-.506-.687-1.204-.687-2.092 0-.993.458-1.805 1.375-2.435.926-.63 2.147-.946 3.666-.946 1.384 0 2.735.23 4.052.688 1.328.449 2.398 1.018 3.21 1.705h.2v-3.352c-.964-.42-2.073-.774-3.324-1.06-1.25-.287-2.626-.43-4.125-.43zm319.403 0c-2.32 0-4.236.573-5.745 1.719-1.508 1.136-2.263 2.597-2.263 4.383 0 1.556.454 2.823 1.361 3.797.917.964 2.32 1.645 4.211 2.047.936.19 1.82.348 2.65.472.84.124 1.618.282 2.334.473.946.248 1.648.598 2.106 1.047.468.448.701 1.144.701 2.09 0 1.098-.491 1.977-1.475 2.636-.973.66-2.338.989-4.095.989-1.242 0-2.57-.244-3.983-.73-1.413-.488-2.659-1.181-3.738-2.079h-.201v3.553a21.11 21.11 0 0 0 3.738 1.275c1.232.287 2.617.43 4.154.43 1.433 0 2.654-.172 3.667-.516 1.021-.344 1.915-.822 2.68-1.433a5.783 5.783 0 0 0 1.616-2.063c.392-.812.588-1.632.588-2.463 0-1.528-.4-2.716-1.203-3.566-.802-.85-1.995-1.484-3.58-1.905-.783-.2-1.738-.396-2.865-.587a60.043 60.043 0 0 1-2.608-.487c-1.155-.267-1.961-.654-2.42-1.16-.458-.506-.687-1.204-.687-2.092 0-.993.458-1.805 1.375-2.435.926-.63 2.148-.946 3.666-.946 1.385 0 2.737.23 4.055.688 1.327.449 2.395 1.018 3.207 1.705h.2v-3.352c-.964-.42-2.07-.774-3.321-1.06-1.251-.287-2.626-.43-4.125-.43zm-259.518.244v2.793h3.037v-2.793zm290.584 0v2.793h3.035v-2.793zm-239.064.143v21.328h2.65v-18.377l5.887 12.504h1.69l5.929-12.504v18.377h2.836V177.92h-3.94l-5.5 11.875-5.685-11.875zm178.763.73v4.598h-1.818v2.264h1.818v8.508c0 1.938.426 3.346 1.276 4.224.85.879 2.091 1.318 3.724 1.318.468 0 .998-.043 1.59-.128a14.576 14.576 0 0 0 1.66-.33v-2.42h-.142c-.21.085-.554.196-1.032.33a5.46 5.46 0 0 1-1.375.185c-.754 0-1.317-.086-1.689-.258a1.984 1.984 0 0 1-.86-.845 3.205 3.205 0 0 1-.402-1.317 26.339 26.339 0 0 1-.056-1.976v-7.291h5.556v-2.264h-5.556v-4.598zm68.578 0v4.598h-1.818v2.264h1.818v8.508c0 1.938.426 3.346 1.276 4.224.85.879 2.092 1.318 3.724 1.318.468 0 .998-.043 1.59-.128a14.577 14.577 0 0 0 1.66-.33v-2.42h-.142c-.21.085-.554.196-1.031.33a5.46 5.46 0 0 1-1.375.185c-.755 0-1.318-.086-1.69-.258a1.984 1.984 0 0 1-.86-.845 3.205 3.205 0 0 1-.402-1.317 26.339 26.339 0 0 1-.056-1.976v-7.291h5.556v-2.264h-5.556v-4.598zm-339.453 4.155c-2.33 0-4.21.769-5.642 2.306-1.423 1.538-2.135 3.614-2.135 6.23 0 2.646.745 4.688 2.234 6.13 1.49 1.432 3.563 2.148 6.217 2.148 1.04 0 2.033-.129 2.979-.387a22.223 22.223 0 0 0 2.779-.959v-2.935h-.143c-.468.42-1.255.85-2.363 1.289-1.098.43-2.193.644-3.281.644a7.112 7.112 0 0 1-2.262-.343 4.852 4.852 0 0 1-1.762-1.032c-.515-.467-.922-1.065-1.218-1.79-.296-.736-.444-1.595-.444-2.579h11.787v-1.46c0-2.32-.587-4.111-1.761-5.372-1.165-1.26-2.827-1.89-4.985-1.89zm70.756 0c-2.33 0-4.21.769-5.642 2.306-1.423 1.538-2.135 3.614-2.135 6.23 0 2.646.745 4.688 2.234 6.13 1.49 1.432 3.562 2.148 6.217 2.148 1.04 0 2.033-.129 2.978-.387a22.223 22.223 0 0 0 2.78-.959v-2.935h-.145c-.468.42-1.255.85-2.363 1.289-1.098.43-2.19.644-3.28.644a7.124 7.124 0 0 1-2.263-.343 4.852 4.852 0 0 1-1.762-1.032c-.515-.467-.92-1.065-1.217-1.79-.296-.736-.443-1.595-.443-2.579h11.787v-1.46c0-2.32-.587-4.111-1.762-5.372-1.164-1.26-2.826-1.89-4.984-1.89zm71.6 0a6.84 6.84 0 0 0-2.764.588c-.898.391-1.767.935-2.607 1.632v-1.777h-2.692v16h2.692v-11.945a11.762 11.762 0 0 1 2.306-1.39c.802-.364 1.572-.544 2.307-.544.716 0 1.297.1 1.746.3a2.14 2.14 0 0 1 1.031.888c.23.362.387.87.473 1.52.086.639.129 1.326.129 2.062v9.109h2.693v-10.385c0-1.957-.454-3.457-1.361-4.498-.907-1.04-2.225-1.56-3.953-1.56zm34.117 0c-.879 0-1.76.19-2.649.572a6.36 6.36 0 0 0-2.263 1.576c-.669.726-1.199 1.59-1.59 2.592-.382.993-.572 2.178-.572 3.553 0 2.51.558 4.459 1.675 5.843 1.127 1.375 2.645 2.063 4.555 2.063 1.146 0 2.085-.158 2.82-.473.745-.324 1.525-.811 2.336-1.46v1.46c0 .65-.071 1.237-.214 1.762a3.267 3.267 0 0 1-.717 1.346c-.334.391-.803.698-1.405.918-.601.22-1.36.328-2.277.328-.955 0-1.908-.13-2.863-.387-.955-.248-1.653-.457-2.092-.629h-.143v2.75c.783.22 1.575.386 2.377.5.812.124 1.643.188 2.493.188 2.559 0 4.453-.637 5.685-1.907 1.232-1.27 1.848-3.26 1.848-5.972v-14.18h-2.52l-.172.688a9.845 9.845 0 0 0-1.992-.844c-.62-.191-1.394-.287-2.32-.287zm18.95 0c-2.33 0-4.211.769-5.643 2.306-1.423 1.538-2.135 3.614-2.135 6.23 0 2.646.745 4.688 2.234 6.13 1.49 1.432 3.562 2.148 6.217 2.148 1.04 0 2.033-.129 2.978-.387a22.223 22.223 0 0 0 2.78-.959v-2.935h-.143c-.468.42-1.255.85-2.363 1.289-1.098.43-2.193.644-3.281.644a7.112 7.112 0 0 1-2.262-.343 4.852 4.852 0 0 1-1.762-1.032c-.515-.467-.923-1.065-1.219-1.79-.296-.736-.443-1.595-.443-2.579h11.787v-1.46c0-2.32-.587-4.111-1.762-5.372-1.164-1.26-2.826-1.89-4.984-1.89zm18.706 0c-.945 0-1.84.196-2.68.588-.83.391-1.665.935-2.505 1.632v-1.777h-2.694v16h2.694v-11.945a13.376 13.376 0 0 1 2.205-1.39c.744-.364 1.485-.544 2.22-.544.774 0 1.365.105 1.776.315.41.2.725.505.945.916.2.382.33.893.387 1.533.067.63.101 1.3.101 2.006v9.109h2.692v-10.242a12.778 12.778 0 0 0-.1-1.633c.755-.582 1.51-1.06 2.264-1.432.754-.382 1.507-.572 2.262-.572.773 0 1.366.105 1.777.315.41.21.726.52.945.931.2.382.33.892.387 1.531.067.64.1 1.305.1 1.993v9.109h2.693v-10.385c0-1.91-.422-3.395-1.262-4.455-.83-1.07-2.124-1.603-3.88-1.603a6.838 6.838 0 0 0-2.88.615c-.897.401-1.89 1.06-2.978 1.976a4.229 4.229 0 0 0-1.705-1.904c-.755-.458-1.675-.687-2.764-.687zm27.299 0c-2.33 0-4.21.769-5.643 2.306-1.422 1.538-2.134 3.614-2.134 6.23 0 2.646.744 4.688 2.234 6.13 1.49 1.432 3.562 2.148 6.217 2.148 1.04 0 2.033-.129 2.978-.387a22.223 22.223 0 0 0 2.78-.959v-2.935h-.145c-.468.42-1.256.85-2.363 1.289-1.098.43-2.19.644-3.28.644a7.124 7.124 0 0 1-2.263-.343 4.852 4.852 0 0 1-1.762-1.032c-.515-.467-.92-1.065-1.217-1.79-.296-.736-.443-1.595-.443-2.579h11.787v-1.46c0-2.32-.587-4.111-1.762-5.372-1.165-1.26-2.826-1.89-4.984-1.89zm18.893 0c-.946 0-1.868.196-2.766.588-.898.391-1.765.935-2.606 1.632v-1.777h-2.693v16h2.693v-11.945a11.748 11.748 0 0 1 2.305-1.39c.802-.364 1.572-.544 2.307-.544.716 0 1.3.1 1.748.3.449.192.792.487 1.031.888.23.362.387.87.473 1.52.086.639.129 1.326.129 2.062v9.109h2.691v-10.385c0-1.957-.452-3.457-1.36-4.498-.906-1.04-2.224-1.56-3.952-1.56zm97.294 0c-2.33 0-4.21.769-5.642 2.306-1.423 1.538-2.135 3.614-2.135 6.23 0 2.646.745 4.688 2.235 6.13 1.49 1.432 3.562 2.148 6.216 2.148 1.041 0 2.034-.129 2.979-.387a22.223 22.223 0 0 0 2.78-.959v-2.935h-.145c-.468.42-1.256.85-2.364 1.289-1.098.43-2.19.644-3.279.644a7.124 7.124 0 0 1-2.264-.343 4.852 4.852 0 0 1-1.761-1.032c-.516-.467-.921-1.065-1.217-1.79-.296-.736-.444-1.595-.444-2.579h11.788v-1.46c0-2.32-.588-4.111-1.762-5.372-1.165-1.26-2.827-1.89-4.985-1.89zm-235.498.056c-.964 0-1.942.086-2.935.258-.993.172-1.752.33-2.277.473v2.736h.142a17.764 17.764 0 0 1 2.693-.803c.87-.19 1.657-.285 2.364-.285.582 0 1.14.037 1.676.113.534.077.993.226 1.375.446.4.229.705.544.916.945.22.401.33.907.33 1.518v.416a70.579 70.579 0 0 0-4.397.343c-1.365.153-2.536.444-3.51.873-.964.43-1.709 1.022-2.234 1.776-.516.745-.773 1.725-.773 2.937 0 1.48.5 2.698 1.503 3.653 1.003.955 2.225 1.431 3.667 1.431.782 0 1.466-.075 2.048-.228a7.704 7.704 0 0 0 1.547-.545 6.918 6.918 0 0 0 1.174-.688c.41-.296.736-.525.975-.687v1.705h2.677v-10.857c0-1.032-.157-1.895-.472-2.592a4.228 4.228 0 0 0-1.375-1.705c-.611-.45-1.336-.764-2.176-.946-.83-.19-1.81-.287-2.938-.287zm36.21 0c-.965 0-1.943.086-2.936.258-.993.172-1.752.33-2.277.473v2.736h.142a17.764 17.764 0 0 1 2.693-.803c.87-.19 1.657-.285 2.364-.285.582 0 1.14.037 1.676.113.534.077.993.226 1.375.446.4.229.705.544.916.945.22.401.33.907.33 1.518v.416a70.647 70.647 0 0 0-4.399.343c-1.365.153-2.534.444-3.508.873-.964.43-1.709 1.022-2.234 1.776-.516.745-.773 1.725-.773 2.937 0 1.48.5 2.698 1.503 3.653 1.003.955 2.225 1.431 3.666 1.431.783 0 1.467-.075 2.05-.228a7.704 7.704 0 0 0 1.546-.545 6.918 6.918 0 0 0 1.174-.688c.41-.296.736-.525.975-.687v1.705h2.677v-10.857c0-1.032-.157-1.895-.472-2.592a4.228 4.228 0 0 0-1.375-1.705c-.611-.45-1.338-.764-2.178-.946-.83-.19-1.809-.287-2.936-.287zm-102.811.016c-2.359 0-4.258.745-5.7 2.234-1.432 1.49-2.148 3.542-2.148 6.158 0 1.404.19 2.632.572 3.682.382 1.05.923 1.918 1.62 2.606a6.566 6.566 0 0 0 2.476 1.546c.965.335 2.024.502 3.18.502a8.95 8.95 0 0 0 2.564-.357 17.255 17.255 0 0 0 2.565-1.004v-2.965h-.145c-.2.163-.472.359-.816.588-.344.22-.71.43-1.102.631-.449.23-.956.415-1.52.559a6.716 6.716 0 0 1-1.66.214c-1.565 0-2.783-.515-3.652-1.546-.86-1.041-1.289-2.527-1.289-4.455 0-1.987.438-3.49 1.317-4.512.888-1.031 2.097-1.547 3.625-1.547.83 0 1.68.172 2.548.516a10.17 10.17 0 0 1 2.55 1.474h.144v-2.992a14.055 14.055 0 0 0-2.436-.945 9.518 9.518 0 0 0-2.693-.387zm-44.688.371v16h2.694v-11.36a10.838 10.838 0 0 1 2.234-1.417 5.484 5.484 0 0 1 2.406-.559c.516 0 .96.025 1.332.072a8.94 8.94 0 0 1 1.174.202h.145v-2.766c-.42-.067-.735-.11-.946-.129a8.437 8.437 0 0 0-1.017-.043c-.85 0-1.685.182-2.506.545-.812.353-1.753.959-2.822 1.818v-2.363zm10.772 0l6.431 16h2.708l6.472-16h-2.82l-4.914 12.734-4.955-12.734zm19.164 0v16h2.693v-16zm271.877 0v10.385c0 1.986.468 3.494 1.404 4.525.936 1.022 2.243 1.533 3.924 1.533 1.003 0 1.92-.19 2.75-.572.83-.382 1.7-.932 2.607-1.648v1.777h2.694v-16h-2.694v11.945a10.607 10.607 0 0 1-2.32 1.39c-.821.364-1.58.544-2.277.544-.783 0-1.38-.094-1.791-.285a2.311 2.311 0 0 1-1.002-.918c-.248-.41-.41-.902-.487-1.475a16.369 16.369 0 0 1-.115-2.092v-9.109zm18.707 0v16h2.691v-16zm-331.49 1.777c1.432 0 2.496.387 3.193 1.16.707.774 1.065 1.867 1.074 3.28h-9.166c.115-1.26.598-2.316 1.447-3.166.86-.85 2.01-1.274 3.452-1.274zm70.756 0c1.432 0 2.496.387 3.193 1.16.706.774 1.065 1.867 1.074 3.28h-9.166c.115-1.26.596-2.316 1.445-3.166.86-.85 2.012-1.274 3.454-1.274zm124.666 0c1.432 0 2.496.387 3.193 1.16.707.774 1.065 1.867 1.074 3.28h-9.166c.115-1.26.598-2.316 1.447-3.166.86-.85 2.01-1.274 3.452-1.274zm46.005 0c1.433 0 2.497.387 3.194 1.16.706.774 1.064 1.867 1.074 3.28h-9.166c.115-1.26.595-2.316 1.445-3.166.86-.85 2.012-1.274 3.453-1.274zm116.188 0c1.432 0 2.496.387 3.193 1.16.707.774 1.065 1.867 1.074 3.28h-9.166c.115-1.26.596-2.316 1.446-3.166.86-.85 2.011-1.274 3.453-1.274zm-180.527.2c.61 0 1.222.071 1.834.214.62.134 1.29.363 2.005.688v8.723a8.685 8.685 0 0 1-2.177 1.218 6.604 6.604 0 0 1-2.35.444c-1.46 0-2.506-.463-3.137-1.389-.63-.926-.945-2.287-.945-4.082 0-1.89.426-3.333 1.275-4.326.85-.993 2.015-1.49 3.495-1.49zm-50.545 5.628v4.456a11.97 11.97 0 0 1-2.178 1.332c-.783.362-1.647.544-2.592.544-1.136 0-1.981-.229-2.535-.687-.554-.468-.83-1.161-.83-2.078 0-.812.237-1.446.715-1.904.477-.468 1.103-.812 1.877-1.032.649-.181 1.527-.32 2.634-.416 1.118-.095 2.087-.167 2.909-.215zm36.209 0v4.456a11.97 11.97 0 0 1-2.178 1.332c-.783.362-1.647.544-2.592.544-1.136 0-1.981-.229-2.535-.687-.554-.468-.832-1.161-.832-2.078 0-.812.24-1.446.717-1.904.477-.468 1.103-.812 1.877-1.032.649-.181 1.527-.32 2.634-.416 1.118-.095 2.087-.167 2.909-.215zm-47.524 22.631c-1.785 0-3.152.512-4.097 1.534-.946 1.012-1.418 2.467-1.418 4.367v.531h-1.819v2.262h1.819v13.736h2.693v-13.736h4.77v-2.262h-4.856v-.545c0-1.337.258-2.258.773-2.764.526-.515 1.367-.773 2.522-.773.363 0 .782.047 1.26.143.477.085.864.171 1.16.257h.142v-2.465a19.083 19.083 0 0 0-1.332-.199 13.671 13.671 0 0 0-1.617-.086zm67.89.143l-10.226 26.64h2.477l10.27-26.64zm15.097.516c-1.471 0-2.832.25-4.083.746-1.24.496-2.282 1.212-3.123 2.148-.878.984-1.545 2.166-2.003 3.55-.459 1.376-.688 2.933-.688 4.67 0 1.767.23 3.339.688 4.714.467 1.375 1.13 2.535 1.99 3.48a8.46 8.46 0 0 0 3.123 2.162c1.232.497 2.596.744 4.096.744 1.537 0 2.902-.243 4.095-.73a8.473 8.473 0 0 0 3.123-2.176c.85-.926 1.509-2.082 1.977-3.467.477-1.394.717-2.97.717-4.726 0-1.757-.236-3.329-.704-4.713-.458-1.385-1.12-2.553-1.99-3.508a8.49 8.49 0 0 0-3.107-2.135c-1.213-.506-2.584-.76-4.111-.76zm21.6.058c-2.321 0-4.236.573-5.745 1.719-1.509 1.136-2.264 2.597-2.264 4.383 0 1.556.455 2.82 1.362 3.795.916.964 2.32 1.647 4.21 2.048.936.191 1.82.349 2.651.473.84.124 1.618.282 2.334.473.945.248 1.647.596 2.105 1.045.468.448.702 1.146.702 2.091 0 1.099-.492 1.976-1.475 2.635-.974.66-2.339.989-4.096.989-1.241 0-2.569-.244-3.982-.731-1.413-.487-2.66-1.179-3.738-2.076h-.202v3.55c1.27.564 2.516.99 3.739 1.276 1.231.287 2.617.43 4.154.43 1.432 0 2.654-.172 3.666-.516 1.022-.344 1.916-.82 2.68-1.432a5.783 5.783 0 0 0 1.617-2.062c.391-.812.588-1.634.588-2.465 0-1.528-.401-2.716-1.203-3.566-.802-.85-1.995-1.484-3.58-1.905a36.1 36.1 0 0 0-2.866-.587 60.056 60.056 0 0 1-2.607-.487c-1.155-.267-1.962-.654-2.42-1.16-.458-.506-.688-1.204-.688-2.092 0-.993.459-1.803 1.375-2.433.927-.63 2.148-.946 3.667-.946 1.384 0 2.736.23 4.054.688 1.327.449 2.396 1.015 3.207 1.703h.201v-3.352c-.964-.42-2.071-.772-3.322-1.058-1.25-.287-2.626-.43-4.125-.43zm-21.587 2.39c2.149 0 3.845.756 5.086 2.264 1.241 1.5 1.861 3.634 1.861 6.403 0 2.798-.63 4.942-1.89 6.431-1.251 1.48-2.937 2.22-5.057 2.22-2.12 0-3.81-.74-5.07-2.22-1.26-1.49-1.89-3.633-1.89-6.431 0-2.77.615-4.903 1.847-6.403 1.241-1.508 2.946-2.263 5.113-2.263zm-72.086 2.88c-2.263 0-4.063.759-5.4 2.277-1.327 1.509-1.99 3.567-1.99 6.174s.663 4.665 1.99 6.174c1.337 1.508 3.137 2.261 5.4 2.261 2.244 0 4.035-.753 5.371-2.261 1.337-1.509 2.004-3.567 2.004-6.174s-.667-4.665-2.004-6.174c-1.336-1.518-3.127-2.277-5.37-2.277zm11.559.445v15.998h2.691v-11.357a10.837 10.837 0 0 1 2.235-1.418 5.484 5.484 0 0 1 2.406-.559c.515 0 .96.023 1.332.07.382.039.775.106 1.176.202h.142v-2.764c-.42-.067-.735-.11-.945-.13a8.437 8.437 0 0 0-1.018-.042c-.85 0-1.684.18-2.505.543-.812.353-1.753.96-2.823 1.82v-2.363zm21.742 0v2.248h9.123l-9.324 11.76v1.99h12.92v-2.277h-9.612l9.368-11.803v-1.918zm-33.3 1.875c1.441 0 2.567.507 3.378 1.52.812 1.002 1.219 2.539 1.219 4.61 0 2.025-.411 3.554-1.233 4.585-.811 1.022-1.932 1.531-3.365 1.531-1.451 0-2.583-.516-3.394-1.547-.812-1.04-1.219-2.563-1.219-4.568 0-2.072.401-3.609 1.203-4.611.812-1.013 1.95-1.52 3.41-1.52z"/></g></g><g id="g56"><path id="path12" fill="#4c83c3" d="M397.3 14h-65.7l4.1-11.3h61.6zM222.1 2.7h61l4 11.4h-65c.1-.1 0-11.4 0-11.4zm-48.3 0c10 1 18.8 4.6 26.3 11.4H89.5V2.7z" class="st3"/><path id="path14" fill="#4c83c3" d="M2.7 2.7h76.8V14H2.7z" class="st3"/><path id="path16" fill="#4c83c3" d="M397.3 35.3h-73.2l4-11.3h69.3v11.3zm-102.5 0h-72.6V24h68.6zM208.6 24c1.5 3.8 3.2 6.9 3.2 11.3H89.5V24z" class="st3"/><path id="path18" fill="#4c83c3" d="M2.7 24h76.8v11.3H2.7z" class="st3"/><path id="path20" fill="#4c83c3" d="M316.6 56.6l4.1-11.3h55v11.3zm-18.4-11.3l4.1 11.3h-58.5V45.3zm-85.5-.1c0 3.9-.5 7.9-1.6 11.3h-33.5V45.2z" class="st3"/><path id="path22" fill="#4c83c3" d="M24.1 45.3h33v11.3h-33z" class="st3"/><path id="path24" fill="#4c83c3" d="M111.7 45.2h33v11.3h-33z" class="st3"/><path id="path26" fill="#4c83c3" d="M276.2 68.8v8.6h-32.5V66.2h61.8l3.9 10.5 3.7-10.5h62.3v11.3h-32.3v-8.6l-3 8.6h-61zm-164.5-2.6h94.6c-2.1 3.8-5.8 8.3-9.4 11.3h-85.2z" class="st3"/><path id="path28" fill="#4c83c3" d="M24.1 66.2h33v11.3h-33z" class="st3"/><path id="path30" fill="#4c83c3" d="M343.3 87.5h32.3v11.3h-32.3z" class="st3"/><path id="path32" fill="#4c83c3" d="M276.2 87.5h-32.5v11.3h32.5c0-.2.1-11.3 0-11.3zm60.6 0c-.1 0-3.8 11.3-4 11.3h-46l-4.1-11.3zm-225.1 0h85c3.9 3.3 7.4 7.2 10.1 11.3h-95.2c.1-.2.1-11.3.1-11.3zM57.1 98.6V87.4H24.2v11.3h32.9z" class="st3"/><path id="path34" fill="#4c83c3" d="M343.3 108.7h32.3V120h-32.3z" class="st3"/><path id="path36" fill="#4c83c3" d="M243.8 108.7h32.5V120h-32.5z" class="st3"/><path id="path38" fill="#4c83c3" d="M325.3 119.9c0-.1 4-11.3 4.1-11.3h-39.1c-.1 0 4 11.3 4 11.3s31 .1 31 0zm-213.6 0v-11.3h33.5v11.3zm99.8-11.2c1.6 3.4 1.8 7.4 2.1 11.3h-35.5v-11.3z" class="st3"/><path id="path40" fill="#4c83c3" d="M24.2 108.7h33V120h-33z" class="st3"/><path id="path42" fill="#4c83c3" d="M343.3 129.5h54v11.3h-54z" class="st3"/><path id="path44" fill="#4c83c3" d="M222.1 129.5h54.1v11.3h-54.1z" class="st3"/><path id="path46" fill="#4c83c3" d="M317.9 140.8h-16.4l-4-11.3h24.3zM2.7 129.5v11.3h76.8v-11.3zm209.5 0c-.8 3.8-1.6 8.2-4.3 11.3H89.5v-11.3zm98.3 32.6H309l-3.9-11.3h9.3z" class="st3"/><path id="path48" fill="#4c83c3" d="M343.3 150.8h54v11.3h-54z" class="st3"/><path id="path50" fill="#4c83c3" d="M89.5 162.1v-11.3h111.2c-7.4 7.1-17.6 11.1-28.6 11.3H89.5" class="st3"/><path id="path52" fill="#4c83c3" d="M222.1 150.8h54.1v11.3h-54.1z" class="st3"/><path id="path54" fill="#4c83c3" d="M79.5 150.8v11.3H2.7v-11.3s76.7.1 76.8 0z" class="st3"/></g></svg>