<svg xmlns="http://www.w3.org/2000/svg" role="img" viewBox="-5.40 -5.40 410.54 250.54"><title>IBM® Service Management Unite(SMU) logo</title><style>svg {enable-background:new 0 0 400 245}</style><style id="style2" type="text/css">.st5{fill:#4c83c3}</style><g id="g56"><path id="path12" fill="#4c83c3" d="M397.3 14h-65.7l4.1-11.3h61.6zM222.1 2.7h61l4 11.4h-65c.1-.1 0-11.4 0-11.4zm-48.3 0c10 1 18.8 4.6 26.3 11.4H89.5V2.7z" class="st5"/><path id="path14" fill="#4c83c3" d="M2.7 2.7h76.8V14H2.7z" class="st5"/><path id="path16" fill="#4c83c3" d="M397.3 35.3h-73.2l4-11.3h69.3v11.3zm-102.5 0h-72.6V24h68.6zM208.6 24c1.5 3.8 3.2 6.9 3.2 11.3H89.5V24z" class="st5"/><path id="path18" fill="#4c83c3" d="M2.7 24h76.8v11.3H2.7z" class="st5"/><path id="path20" fill="#4c83c3" d="M316.6 56.6l4.1-11.3h55v11.3zm-18.4-11.3l4.1 11.3h-58.5V45.3zm-85.5-.1c0 3.9-.5 7.9-1.6 11.3h-33.5V45.2z" class="st5"/><path id="path22" fill="#4c83c3" d="M24.1 45.3h33v11.3h-33z" class="st5"/><path id="path24" fill="#4c83c3" d="M111.7 45.2h33v11.3h-33z" class="st5"/><path id="path26" fill="#4c83c3" d="M276.2 68.8v8.6h-32.5V66.2h61.8l3.9 10.5 3.7-10.5h62.3v11.3h-32.3v-8.6l-3 8.6h-61zm-164.5-2.6h94.6c-2.1 3.8-5.8 8.3-9.4 11.3h-85.2z" class="st5"/><path id="path28" fill="#4c83c3" d="M24.1 66.2h33v11.3h-33z" class="st5"/><path id="path30" fill="#4c83c3" d="M343.3 87.5h32.3v11.3h-32.3z" class="st5"/><path id="path32" fill="#4c83c3" d="M276.2 87.5h-32.5v11.3h32.5c0-.2.1-11.3 0-11.3zm60.6 0c-.1 0-3.8 11.3-4 11.3h-46l-4.1-11.3zm-225.1 0h85c3.9 3.3 7.4 7.2 10.1 11.3h-95.2c.1-.2.1-11.3.1-11.3zM57.1 98.6V87.4H24.2v11.3h32.9z" class="st5"/><path id="path34" fill="#4c83c3" d="M343.3 108.7h32.3V120h-32.3z" class="st5"/><path id="path36" fill="#4c83c3" d="M243.8 108.7h32.5V120h-32.5z" class="st5"/><path id="path38" fill="#4c83c3" d="M325.3 119.9c0-.1 4-11.3 4.1-11.3h-39.1c-.1 0 4 11.3 4 11.3s31 .1 31 0zm-213.6 0v-11.3h33.5v11.3zm99.8-11.2c1.6 3.4 1.8 7.4 2.1 11.3h-35.5v-11.3z" class="st5"/><path id="path40" fill="#4c83c3" d="M24.2 108.7h33V120h-33z" class="st5"/><path id="path42" fill="#4c83c3" d="M343.3 129.5h54v11.3h-54z" class="st5"/><path id="path44" fill="#4c83c3" d="M222.1 129.5h54.1v11.3h-54.1z" class="st5"/><path id="path46" fill="#4c83c3" d="M317.9 140.8h-16.4l-4-11.3h24.3zM2.7 129.5v11.3h76.8v-11.3zm209.5 0c-.8 3.8-1.6 8.2-4.3 11.3H89.5v-11.3zm98.3 32.6H309l-3.9-11.3h9.3z" class="st5"/><path id="path48" fill="#4c83c3" d="M343.3 150.8h54v11.3h-54z" class="st5"/><path id="path50" fill="#4c83c3" d="M89.5 162.1v-11.3h111.2c-7.4 7.1-17.6 11.1-28.6 11.3H89.5" class="st5"/><path id="path52" fill="#4c83c3" d="M222.1 150.8h54.1v11.3h-54.1z" class="st5"/><path id="path54" fill="#4c83c3" d="M79.5 150.8v11.3H2.7v-11.3s76.7.1 76.8 0z" class="st5"/></g><g style="text-align:center" id="text61" fill="#000" fill-opacity="1" stroke="none" text-anchor="middle" writing-mode="lr-tb"><path id="path121" d="M29.777 183.928c-2.109 0-3.849.52-5.22 1.562-1.372 1.033-2.057 2.361-2.057 3.985 0 1.415.412 2.563 1.236 3.449.834.877 2.11 1.499 3.828 1.863.851.174 1.653.317 2.409.43.764.113 1.472.256 2.123.43.86.225 1.497.54 1.914.949.425.408.638 1.043.638 1.902 0 .998-.447 1.796-1.341 2.395-.886.599-2.128.898-3.725.898-1.128 0-2.334-.221-3.62-.664-1.284-.443-2.417-1.07-3.398-1.887h-.181v3.229a19.19 19.19 0 0 0 3.398 1.158c1.12.26 2.378.39 3.776.39 1.302 0 2.413-.156 3.334-.468.928-.313 1.739-.745 2.433-1.301a5.264 5.264 0 0 0 1.473-1.875 5.11 5.11 0 0 0 .533-2.24c0-1.39-.365-2.47-1.094-3.242-.729-.773-1.815-1.35-3.256-1.733a32.634 32.634 0 0 0-2.603-.533 54.098 54.098 0 0 1-2.37-.443c-1.05-.243-1.784-.595-2.2-1.055-.417-.46-.625-1.093-.625-1.9 0-.903.416-1.64 1.25-2.213.842-.573 1.953-.86 3.334-.86 1.258 0 2.485.209 3.683.625 1.207.408 2.18.924 2.918 1.55h.182v-3.048c-.877-.382-1.885-.702-3.022-.963-1.137-.26-2.387-.39-3.75-.39zm290.366 0c-2.11 0-3.85.52-5.221 1.562-1.372 1.033-2.059 2.361-2.059 3.985 0 1.415.414 2.563 1.239 3.449.833.877 2.109 1.499 3.828 1.863.85.174 1.653.317 2.408.43.764.113 1.472.256 2.123.43.86.225 1.497.54 1.914.949.425.408.637 1.043.637 1.902 0 .998-.446 1.796-1.34 2.395-.886.599-2.128.898-3.725.898-1.128 0-2.334-.221-3.619-.664-1.285-.443-2.417-1.07-3.398-1.887h-.184v3.229a19.19 19.19 0 0 0 3.399 1.158c1.12.26 2.38.39 3.777.39 1.302 0 2.412-.156 3.332-.468.929-.313 1.741-.745 2.435-1.301a5.259 5.259 0 0 0 1.471-1.875 5.112 5.112 0 0 0 .535-2.24c0-1.39-.364-2.47-1.093-3.242-.73-.773-1.815-1.35-3.256-1.733-.712-.182-1.58-.36-2.604-.533a54.295 54.295 0 0 1-2.37-.443c-1.051-.243-1.783-.595-2.2-1.055-.417-.46-.625-1.093-.625-1.9 0-.903.417-1.64 1.25-2.213.842-.573 1.952-.86 3.332-.86 1.259 0 2.488.209 3.685.625 1.207.408 2.179.924 2.916 1.55h.184v-3.048c-.877-.382-1.884-.702-3.021-.963-1.138-.26-2.388-.39-3.75-.39zm-235.924.22v2.54h2.76v-2.54zm264.166 0v2.54h2.76v-2.54zm-217.33.131v19.387h2.408v-16.705l5.351 11.367h1.538l5.39-11.367v16.705h2.578v-19.387h-3.582l-5 10.793-5.168-10.793zm162.511.664v4.18h-1.652v2.057h1.652v7.734c0 1.762.388 3.043 1.16 3.842.773.798 1.9 1.197 3.385 1.197.426 0 .907-.039 1.446-.117.547-.078 1.05-.177 1.51-.299v-2.201h-.13a9.61 9.61 0 0 1-.937.299c-.434.113-.85.17-1.25.17-.686 0-1.199-.078-1.537-.235a1.8 1.8 0 0 1-.781-.767 2.924 2.924 0 0 1-.366-1.2 24.024 24.024 0 0 1-.05-1.796v-6.627h5.05v-2.057h-5.05v-4.18zm62.344 0v4.18h-1.652v2.057h1.652v7.734c0 1.762.388 3.043 1.16 3.842.773.798 1.9 1.197 3.385 1.197.425 0 .907-.039 1.445-.117.547-.078 1.05-.177 1.51-.299v-2.201h-.129a9.61 9.61 0 0 1-.937.299c-.434.113-.851.17-1.25.17-.686 0-1.199-.078-1.537-.235a1.8 1.8 0 0 1-.782-.767 2.924 2.924 0 0 1-.365-1.2 24.024 24.024 0 0 1-.05-1.796v-6.627h5.05v-2.057h-5.05v-4.18zM47.316 188.72c-2.118 0-3.826.698-5.129 2.095-1.293 1.398-1.94 3.286-1.94 5.665 0 2.404.676 4.263 2.03 5.574 1.355 1.302 3.24 1.953 5.653 1.953.946 0 1.847-.117 2.707-.352a20.22 20.22 0 0 0 2.527-.873v-2.67h-.13c-.426.382-1.142.773-2.15 1.172a8.137 8.137 0 0 1-2.982.586 6.469 6.469 0 0 1-2.056-.312 4.411 4.411 0 0 1-1.602-.938c-.469-.425-.838-.967-1.107-1.627-.27-.668-.403-1.45-.403-2.344H53.45v-1.328c0-2.11-.534-3.737-1.601-4.882-1.06-1.146-2.57-1.72-4.532-1.72zm64.325 0c-2.118 0-3.83.698-5.131 2.095-1.294 1.398-1.94 3.286-1.94 5.665 0 2.404.677 4.263 2.032 5.574 1.354 1.302 3.237 1.953 5.65 1.953.946 0 1.85-.117 2.709-.352.86-.234 1.7-.526 2.525-.873v-2.67h-.13c-.426.382-1.142.773-2.149 1.172-.998.39-1.99.586-2.98.586a6.481 6.481 0 0 1-2.059-.312 4.411 4.411 0 0 1-1.602-.938c-.468-.425-.836-.967-1.105-1.627-.27-.668-.404-1.45-.404-2.344h10.716v-1.328c0-2.11-.533-3.737-1.601-4.882-1.06-1.146-2.57-1.72-4.531-1.72zm65.09 0a6.22 6.22 0 0 0-2.512.533 9.957 9.957 0 0 0-2.371 1.484v-1.613H169.4v14.543h2.448v-10.86a10.684 10.684 0 0 1 2.097-1.261c.73-.33 1.428-.496 2.096-.496.651 0 1.18.09 1.588.273.408.174.72.444.937.809.209.33.352.788.43 1.379.078.581.117 1.206.117 1.875v8.281h2.45v-9.44c0-1.779-.414-3.141-1.239-4.087-.824-.947-2.022-1.42-3.594-1.42zm31.015 0c-.799 0-1.6.174-2.408.521a5.774 5.774 0 0 0-2.057 1.432 7.423 7.423 0 0 0-1.445 2.357c-.347.903-.522 1.979-.522 3.229 0 2.283.508 4.054 1.524 5.312 1.024 1.25 2.404 1.875 4.14 1.875 1.042 0 1.897-.143 2.565-.43.677-.295 1.385-.737 2.123-1.328v1.329a6.09 6.09 0 0 1-.195 1.601 2.98 2.98 0 0 1-.65 1.225c-.305.356-.731.632-1.278.832-.547.2-1.237.3-2.07.3a9.948 9.948 0 0 1-2.604-.35c-.868-.227-1.5-.419-1.9-.575h-.131v2.5a16.8 16.8 0 0 0 2.162.457 14.95 14.95 0 0 0 2.266.168c2.326 0 4.048-.576 5.168-1.73 1.12-1.155 1.68-2.965 1.68-5.43v-12.89h-2.292l-.156.624a8.965 8.965 0 0 0-1.81-.77c-.565-.173-1.268-.26-2.11-.26zm17.227 0c-2.118 0-3.827.698-5.13 2.095-1.293 1.398-1.94 3.286-1.94 5.665 0 2.404.676 4.263 2.03 5.574 1.355 1.302 3.24 1.953 5.653 1.953.946 0 1.848-.117 2.707-.352a20.22 20.22 0 0 0 2.527-.873v-2.67h-.13c-.426.382-1.142.773-2.149 1.172a8.137 8.137 0 0 1-2.982.586 6.469 6.469 0 0 1-2.057-.312 4.411 4.411 0 0 1-1.602-.938c-.468-.425-.838-.967-1.107-1.627-.27-.668-.402-1.45-.402-2.344h10.714v-1.328c0-2.11-.533-3.737-1.601-4.882-1.06-1.146-2.57-1.72-4.531-1.72zm17.006 0c-.86 0-1.672.177-2.436.533-.755.356-1.513.85-2.277 1.484v-1.613h-2.45v14.543h2.45v-10.86a12.135 12.135 0 0 1 2.004-1.261c.677-.33 1.35-.496 2.02-.496.702 0 1.24.096 1.612.287.374.182.66.46.86.834.182.347.3.81.351 1.393.061.572.092 1.18.092 1.822v8.281h2.447v-9.309c0-.26-.008-.52-.025-.78-.017-.27-.038-.504-.064-.704a12.22 12.22 0 0 1 2.056-1.303c.686-.347 1.371-.521 2.057-.521.703 0 1.242.096 1.615.287.373.19.66.472.86.846.182.347.299.813.351 1.394.06.582.092 1.184.092 1.809v8.281h2.447v-9.44c0-1.736-.383-3.085-1.146-4.048-.756-.972-1.93-1.46-3.528-1.46a6.22 6.22 0 0 0-2.617.561c-.816.365-1.72.964-2.709 1.797a3.845 3.845 0 0 0-1.549-1.732c-.686-.417-1.524-.625-2.513-.625zm24.818 0c-2.118 0-3.829.698-5.131 2.095-1.293 1.398-1.94 3.286-1.94 5.665 0 2.404.678 4.263 2.032 5.574 1.354 1.302 3.237 1.953 5.65 1.953.946 0 1.85-.117 2.71-.352.859-.234 1.7-.526 2.525-.873v-2.67h-.131c-.426.382-1.142.773-2.149 1.172-.998.39-1.99.586-2.98.586a6.481 6.481 0 0 1-2.059-.312 4.411 4.411 0 0 1-1.601-.938c-.47-.425-.837-.967-1.106-1.627-.269-.668-.404-1.45-.404-2.344h10.717v-1.328c0-2.11-.534-3.737-1.602-4.882-1.059-1.146-2.57-1.72-4.531-1.72zm17.174 0c-.86 0-1.698.177-2.514.533a9.947 9.947 0 0 0-2.37 1.484v-1.613h-2.446v14.543h2.447v-10.86a10.67 10.67 0 0 1 2.096-1.261c.729-.33 1.429-.496 2.097-.496.651 0 1.18.09 1.588.273.408.174.72.444.938.809.208.33.351.788.43 1.379.077.581.117 1.206.117 1.875v8.281h2.447v-9.44c0-1.779-.412-3.141-1.237-4.087-.824-.947-2.022-1.42-3.593-1.42zm88.45 0c-2.117 0-3.828.698-5.13 2.095-1.293 1.398-1.94 3.286-1.94 5.665 0 2.404.678 4.263 2.032 5.574 1.354 1.302 3.237 1.953 5.65 1.953.946 0 1.85-.117 2.71-.352.859-.234 1.7-.526 2.525-.873v-2.67h-.131c-.426.382-1.142.773-2.149 1.172-.998.39-1.99.586-2.98.586a6.481 6.481 0 0 1-2.059-.312 4.411 4.411 0 0 1-1.601-.938c-.47-.425-.837-.967-1.106-1.627-.269-.668-.404-1.45-.404-2.344h10.717v-1.328c0-2.11-.534-3.737-1.602-4.882-1.059-1.146-2.57-1.72-4.531-1.72zm-214.089.052c-.877 0-1.765.079-2.668.235-.903.156-1.593.3-2.07.43v2.486h.129a16.172 16.172 0 0 1 2.449-.729c.79-.173 1.506-.261 2.148-.261.53 0 1.038.036 1.524.105.486.07.903.203 1.25.402a2.1 2.1 0 0 1 .832.86c.2.364.3.825.3 1.38v.378a63.767 63.767 0 0 0-3.997.312c-1.242.139-2.305.404-3.19.795-.877.39-1.554.93-2.031 1.615-.469.677-.703 1.566-.703 2.668 0 1.346.455 2.452 1.367 3.32.911.869 2.021 1.303 3.332 1.303.712 0 1.334-.07 1.863-.209.53-.13.998-.294 1.406-.494a6.285 6.285 0 0 0 1.067-.625c.373-.269.67-.477.887-.625v1.549h2.433v-9.87c0-.937-.143-1.723-.43-2.357a3.84 3.84 0 0 0-1.25-1.548c-.555-.408-1.214-.695-1.978-.86-.755-.173-1.646-.26-2.67-.26zm32.918 0c-.877 0-1.767.079-2.67.235-.903.156-1.593.3-2.07.43v2.486h.13a16.124 16.124 0 0 1 2.448-.729c.79-.173 1.506-.261 2.148-.261.53 0 1.038.036 1.524.105.486.07.903.203 1.25.402.364.209.643.495.834.86.2.364.299.825.299 1.38v.378a63.741 63.741 0 0 0-3.998.312c-1.242.139-2.305.404-3.19.795-.877.39-1.554.93-2.031 1.615-.469.677-.703 1.566-.703 2.668 0 1.346.455 2.452 1.367 3.32.911.869 2.023 1.303 3.334 1.303.712 0 1.332-.07 1.861-.209.53-.13.998-.294 1.406-.494a6.298 6.298 0 0 0 1.069-.625 42.1 42.1 0 0 1 .885-.625v1.549h2.435v-9.87c0-.937-.143-1.723-.43-2.357a3.84 3.84 0 0 0-1.25-1.548c-.555-.408-1.216-.695-1.98-.86-.755-.173-1.644-.26-2.668-.26zm-93.465.012c-2.144 0-3.87.677-5.181 2.031-1.303 1.355-1.954 3.222-1.954 5.6 0 1.276.175 2.39.522 3.346.347.955.837 1.746 1.47 2.37a5.971 5.971 0 0 0 2.253 1.407c.876.304 1.84.455 2.89.455a8.14 8.14 0 0 0 2.332-.326 15.65 15.65 0 0 0 2.33-.91v-2.695h-.13c-.183.147-.43.324-.743.533-.312.2-.646.39-1.002.572a6.615 6.615 0 0 1-1.38.508 6.11 6.11 0 0 1-1.51.195c-1.424 0-2.53-.469-3.32-1.406-.782-.946-1.173-2.296-1.173-4.049 0-1.806.4-3.173 1.198-4.102.807-.937 1.906-1.406 3.295-1.406.755 0 1.528.156 2.318.469.799.312 1.57.76 2.316 1.342h.131v-2.723a12.762 12.762 0 0 0-2.213-.86 8.658 8.658 0 0 0-2.449-.35zm-40.625.34v14.543h2.45v-10.324a9.852 9.852 0 0 1 2.03-1.29 4.985 4.985 0 0 1 2.188-.507 9.7 9.7 0 0 1 1.211.064c.347.035.702.095 1.066.182h.131v-2.512c-.382-.06-.668-.1-.859-.117a7.644 7.644 0 0 0-.924-.039 5.59 5.59 0 0 0-2.28.494c-.737.321-1.591.873-2.564 1.654v-2.148zm9.793 0l5.846 14.543h2.46l5.886-14.543H78.58l-4.467 11.574-4.504-11.574zm17.422 0v14.543h2.447v-14.543zm247.16 0v9.44c0 1.805.427 3.177 1.277 4.115.851.928 2.04 1.392 3.567 1.392.911 0 1.745-.174 2.5-.521.755-.347 1.546-.845 2.371-1.496v1.613h2.447v-14.543h-2.447v10.86a9.633 9.633 0 0 1-2.11 1.261c-.746.33-1.436.496-2.07.496-.711 0-1.255-.088-1.629-.261a2.094 2.094 0 0 1-.91-.833c-.225-.373-.374-.82-.443-1.341-.07-.53-.104-1.163-.104-1.9v-8.282zm17.006 0v14.543h2.447v-14.543zm-301.353 1.613c1.302 0 2.268.352 2.902 1.055.642.703.968 1.698.976 2.982h-8.332c.105-1.145.542-2.104 1.315-2.877.781-.772 1.828-1.16 3.139-1.16zm64.322 0c1.302 0 2.27.352 2.904 1.055.642.703.968 1.698.977 2.982h-8.334c.104-1.145.542-2.104 1.314-2.877.781-.772 1.828-1.16 3.139-1.16zm113.334 0c1.302 0 2.268.352 2.902 1.055.642.703.968 1.698.977 2.982h-8.332c.104-1.145.542-2.104 1.314-2.877.781-.772 1.828-1.16 3.139-1.16zm41.822 0c1.302 0 2.27.352 2.904 1.055.643.703.968 1.698.977 2.982h-8.334c.104-1.145.542-2.104 1.314-2.877.782-.772 1.828-1.16 3.139-1.16zm105.625 0c1.302 0 2.27.352 2.904 1.055.643.703.968 1.698.977 2.982h-8.334c.104-1.145.542-2.104 1.314-2.877.782-.772 1.828-1.16 3.139-1.16zm-164.115.184c.555 0 1.112.065 1.668.195.564.122 1.171.33 1.822.625v7.93a7.88 7.88 0 0 1-1.978 1.105 6.01 6.01 0 0 1-2.137.405c-1.328 0-2.279-.422-2.852-1.264-.573-.842-.86-2.079-.86-3.71 0-1.72.388-3.03 1.161-3.933.773-.902 1.83-1.353 3.176-1.353zm-45.95 5.117v4.049c-.607.469-1.268.872-1.98 1.21-.712.33-1.496.495-2.355.495-1.033 0-1.802-.208-2.305-.625-.504-.425-.756-1.053-.756-1.887 0-.738.216-1.315.65-1.732.435-.425 1.004-.738 1.708-.938.59-.165 1.387-.29 2.394-.377a99.32 99.32 0 0 1 2.645-.195zm32.917 0v4.049c-.608.469-1.267.872-1.979 1.21-.712.33-1.498.495-2.357.495-1.033 0-1.802-.208-2.305-.625-.504-.425-.756-1.053-.756-1.887 0-.738.218-1.315.652-1.732.434-.425 1.002-.738 1.706-.938.59-.165 1.39-.29 2.396-.377a99.23 99.23 0 0 1 2.643-.195zm8.71 21.445v2.54h2.76v-2.54zm-36.367.13v11.6c0 1.468.152 2.705.455 3.712a6.235 6.235 0 0 0 1.524 2.578c.616.625 1.376 1.099 2.28 1.42.902.321 1.962.482 3.177.482 1.19 0 2.23-.153 3.125-.457a6.077 6.077 0 0 0 2.344-1.445c.703-.694 1.206-1.562 1.51-2.604.312-1.05.468-2.279.468-3.685V217.61h-2.578v11.797c0 .946-.073 1.74-.22 2.383a4.778 4.778 0 0 1-.717 1.693 3.61 3.61 0 0 1-1.563 1.29c-.651.277-1.44.415-2.37.415-.92 0-1.71-.143-2.37-.43a3.553 3.553 0 0 1-1.549-1.275 4.986 4.986 0 0 1-.729-1.654c-.138-.608-.209-1.436-.209-2.486V217.61zm43.893.663v4.18h-1.652v2.059h1.652v7.734c0 1.762.387 3.041 1.16 3.84.773.799 1.9 1.2 3.385 1.2.425 0 .907-.04 1.445-.118.547-.078 1.05-.18 1.51-.3v-2.2h-.129a9.61 9.61 0 0 1-.938.299c-.434.113-.85.17-1.25.17-.685 0-1.198-.078-1.537-.235a1.805 1.805 0 0 1-.78-.77 2.916 2.916 0 0 1-.366-1.196 24.024 24.024 0 0 1-.05-1.797v-6.627h5.05v-2.059h-5.05v-4.18zm-16.94 3.778c-.859 0-1.697.177-2.513.533a9.947 9.947 0 0 0-2.37 1.484v-1.615h-2.447V237h2.448v-10.86a10.682 10.682 0 0 1 2.095-1.263c.73-.33 1.43-.494 2.098-.494.651 0 1.18.09 1.588.273.408.174.72.442.937.807.209.33.352.79.43 1.38.078.582.117 1.207.117 1.876V237h2.448v-9.44c0-1.779-.412-3.143-1.237-4.09-.824-.945-2.022-1.417-3.594-1.417zm33.452 0c-2.118 0-3.83.698-5.131 2.095-1.294 1.398-1.94 3.286-1.94 5.665 0 2.404.677 4.261 2.032 5.572 1.354 1.302 3.237 1.953 5.65 1.953.946 0 1.85-.117 2.709-.352.86-.234 1.7-.524 2.525-.87v-2.67h-.13c-.426.381-1.142.772-2.149 1.171-.998.39-1.99.586-2.98.586a6.48 6.48 0 0 1-2.059-.312 4.411 4.411 0 0 1-1.602-.938c-.468-.425-.836-.967-1.105-1.627-.27-.668-.404-1.45-.404-2.344h10.716v-1.328c0-2.11-.533-3.737-1.601-4.883-1.06-1.145-2.57-1.718-4.531-1.718zm-23.881.402V237h2.447v-14.545zm23.75 1.615c1.302 0 2.27.352 2.904 1.055.642.703.968 1.698.977 2.982h-8.334c.104-1.145.542-2.106 1.314-2.878.781-.773 1.828-1.159 3.139-1.159z"/></g></svg>