<svg xmlns="http://www.w3.org/2000/svg" role="img" viewBox="14.64 41.14 746.72 311.72"><title>IBM® IMS™ Plug-in (CLI ZOWE V2) logo</title><defs><style>.cls-1{fill:#0033a1}.cls-2{fill:#2a7de1}</style></defs><path d="M168.197 136.32l13.759-80.538L29.202 156.633l52.517-.823 71.484-50.097 14.994 30.607z" class="cls-1"/><path d="M271.51 191.418l-106.981-36.706 17.425-98.935 89.556 135.641z" class="cls-2"/><path d="M131.223 229.511l8.452 12.18 76.73-54.507-12.985-19.127-44.268 30.853 5.375-44.194 106.981 36.7-145.721 102.786" class="cls-1"/><path d="M29.2 156.634l52.523-.823 12.352 20.866 49.2-33.439-17.487 149.774L29.2 156.634zm587.23191-65.4142h5.29468a6.88644 6.88644 0 0 1 4.63135 1.36974 4.52388 4.52388 0 0 1 1.62157 3.71612 4.67514 4.67514 0 0 1-1.62157 3.753 7.14731 7.14731 0 0 1-4.79105 1.382h-3.65465v8.99234h-1.48033zm1.48033 1.23459v7.69637h3.56251a5.57788 5.57788 0 0 0 3.6547-1.01963 3.84745 3.84745 0 0 0 .27639-5.436.34852.34852 0 0 1-.043-.04916l-.1904-.20882a5.3287 5.3287 0 0 0-3.50731-1.038zm15.15061-1.23459h4.90774a7.28588 7.28588 0 0 1 4.73571 1.35132 4.43482 4.43482 0 0 1 1.63385 3.61781 4.77216 4.77216 0 0 1-3.65465 4.6559 8.891 8.891 0 0 1 2.56135 2.94829l4.34877 6.63987h-1.77514l-3.3476-5.23325a12.51111 12.51111 0 0 0-2.59819-3.29231 4.8449 4.8449 0 0 0-2.73333-.65719h-2.65348v9.21963h-1.48028zm1.48033 1.23459v7.52438h3.17557a6.18842 6.18842 0 0 0 3.73454-.98279 3.61961 3.61961 0 0 0 .42378-5.09814l-.44224-.44224a6.15319 6.15319 0 0 0-3.753-1.00121zm25.82844-1.47907a10.00767 10.00767 0 0 1 7.21716 2.8623 9.627 9.627 0 0 1 .344 13.61141c-.03683.03684-.07367.07372-.1105.11669l-.23347.2457a10.49871 10.49871 0 0 1-14.416 0 9.74545 9.74545 0 0 1-.20263-13.77108l.01228-.00614.19035-.19658a9.95061 9.95061 0 0 1 7.19888-2.8623m0 18.32252a8.24138 8.24138 0 0 0 6.06247-2.44461 8.5868 8.5868 0 0 0 0-12.05123 8.71124 8.71124 0 0 0-12.1434 0 8.50806 8.50806 0 0 0 0 12.03281 8.30684 8.30684 0 0 0 6.08093 2.44461m17.65059-18.05779v19.25006a6.22857 6.22857 0 0 1-1.19161 4.34877 3.8501 3.8501 0 0 1-2.8317 1.21617q-.44214.01842-.88448 0l-.13515-1.38815a4.62122 4.62122 0 0 0 .86611.09827c1.812 0 2.69645-1.27147 2.69645-3.85123V91.22163zm17.03472.00037v1.234h-8.986v7.678h8.753v1.253h-8.753v7.795h9.195v1.247h-10.681V91.222h10.472zm21.53786 1.36749v1.61543A14.69811 14.69811 0 0 0 709.74 92.2824a8.0693 8.0693 0 0 0-5.96416 2.44466 8.24453 8.24453 0 0 0-2.40784 6.08094 8.14392 8.14392 0 0 0 2.40778 6.11777 8.47367 8.47367 0 0 0 6.17916 2.3709 14.50977 14.50977 0 0 0 6.83027-1.92252v1.53558a14.27085 14.27085 0 0 1-6.79343 1.79356 10.06857 10.06857 0 0 1-7.31548-2.81319 9.83525 9.83525 0 0 1-.00618-13.90622.006.006 0 0 0 .00618-.00614.7022.7022 0 0 0 .13515-.13515 10.02036 10.02036 0 0 1 7.10666-2.83161 16.137 16.137 0 0 1 6.7565 1.61544M735.709 91.222v1.234h-7.199v17.973h-1.505V92.456h-7.217v-1.234h15.921zm-318.912 20.556h-6.432V99.444l-5.773 7.138h-.516l-5.799-7.138v12.334h-6.234V90.495h5.817l6.541 7.985 6.56-7.985h5.836v21.283zm28.73572.00265h-6.56614l-1.75054-4.31193H427.978l-1.769 4.31193h-6.56615l9.41615-21.28932h7.18037zm-9.77855-8.02806l-3.12032-7.69633-3.151 7.69633zM448.383 90.496h6.406v21.283h-6.406zm34.893 21.282h-5.7l-11.044-11.855v11.855h-6.351V90.495h5.694l11.007 11.793V90.495h6.394v21.283zm20.595-8.622h-8.832v8.623h-6.413V90.49h15.245v4.275h-8.832v4.122h8.832v4.269zm24.924 8.62212h-6.8917l-1.67074-3.84509a16.48553 16.48553 0 0 0-1.6584-3.02815 3.5709 3.5709 0 0 0-1.43731-1.22849 5.21472 5.21472 0 0 0-1.812-.27026h-.71254v8.31674h-6.431V90.495h10.91499a7.868 7.868 0 0 1 4.33035 1.07488 6.46344 6.46344 0 0 1 2.44461 2.59823 6.72627 6.72627 0 0 1 .731 2.92373 5.4132 5.4132 0 0 1-.61422 2.73334 4.99247 4.99247 0 0 1-1.30835 1.61543 14.60055 14.60055 0 0 1-1.56014.96433 5.90891 5.90891 0 0 1 1.69529 1.425 16.98237 16.98237 0 0 1 1.88569 3.2923zm-8.716-14.56961a2.15338 2.15338 0 0 0-.98279-2.03921 6.28282 6.28282 0 0 0-3.13874-.5958h-1.34518v5.14111h1.36974a7.19359 7.19359 0 0 0 3.23087-.52209 2.149 2.149 0 0 0 .8661-1.92257m34.99292 14.5107h-6.56615l-1.73212-4.31193h-9.238l-1.769 4.31193H529.182l9.41-21.28932h7.10052zm-9.77856-8.02806l-3.12036-7.69633-3.13874 7.69633zM582.651 111.778h-6.406V99.444l-5.799 7.138h-.497l-5.817-7.138v12.334h-6.235V90.495h5.836l6.523 7.985 6.584-7.985h5.811v21.283zm21.423 0h-16.05V90.495h15.78v4.269h-9.355v3.888h8.931v4.293h-8.931v4.54h9.625v4.293zM312.35852 91.20565a11.03124 11.03124 0 0 1 8.06485 3.194 10.85708 10.85708 0 0 1 .31941 15.34967.18792.18792 0 0 0-.04916.04916l-.27025.26412a11.73656 11.73656 0 0 1-16.09291 0 10.89088 10.89088 0 0 1-.20882-15.39265l.20882-.215a11.08033 11.08033 0 0 1 8.02806-3.194m0 20.46a9.21918 9.21918 0 0 0 6.775-2.73333 9.62184 9.62184 0 0 0 0-13.47008 9.78988 9.78988 0 0 0-13.5684 0 9.50155 9.50155 0 0 0-.02456 13.44552l.02456.02456a9.2606 9.2606 0 0 0 6.79343 2.73333M327.77146 91.471h5.915a7.96062 7.96062 0 0 1 5.19642 1.52331 5.61267 5.61267 0 0 1-.11669 8.35356 8.05225 8.05225 0 0 1-5.33156 1.56014h-4.10303v9.98742h-1.65227zm1.65845 1.38815v8.66071h4.00476a6.42467 6.42467 0 0 0 4.07851-1.13632 4.34636 4.34636 0 0 0 .23342-6.13619.89411.89411 0 0 0-.215-.215 5.7378 5.7378 0 0 0-3.8451-1.1732zM355.568 91.474v1.388h-10.049v8.581h9.785v1.388h-9.785v8.716h10.301v1.388h-11.953V91.474h11.701zm22.983 0v21.461h-1.37l-16.296-18.771v18.771h-1.658V91.474h1.407l16.258 18.746V91.474h1.659z" class="cls-2"/><path d="M299.01527 230.94429l64.79151-75.394h-62.772V132.8315h96.09326v19.6895l-64.79151 75.394h64.79151v22.71875h-98.1128zm111.40821-24.90722v-.33692c0-25.916 20.86816-46.95215 48.97265-46.95215 27.93555 0 48.63477 20.69922 48.63477 46.61622v.33593c0 25.917-20.86719 46.95313-48.97168 46.95313-27.93652 0-48.63574-20.69922-48.63574-46.61621zm72.36425 0v-.33692c0-13.29443-9.59277-24.90625-23.72851-24.90625-14.6416 0-23.39258 11.27539-23.39258 24.57032v.33593c0 13.29492 9.59277 24.90723 23.72949 24.90723 14.64063 0 23.3916-11.27538 23.3916-24.57031zm32.31153-45.60645h25.917l14.47265 54.69438 16.99709-55.0308h22.0459l17.165 55.19873 14.80957-54.86231h25.41211l-28.10449 90.876h-23.05565l-17.334-55.3667-17.66992 55.3667h-22.88768zm143.88867 45.60645v-.33692c0-25.748 18.34375-46.95215 44.59668-46.95215 30.124 0 43.92383 23.39209 43.92383 48.97168 0 2.01954-.16895 4.376-.33692 6.73145H684.4c2.52344 11.6123 10.60156 17.6709 22.0459 17.6709 8.582 0 14.80859-2.69238 21.877-9.25586l14.6416 12.958c-8.415 10.43359-20.53125 16.8291-36.85547 16.8291-27.09473.00001-47.1211-19.01659-47.1211-46.6162zm63.61328-7.57276c-1.51465-11.44384-8.24609-19.18506-19.0166-19.18506-10.60254 0-17.50195 7.57276-19.52148 19.18506zM94.075 176.677l43.396 16.621 5.804-50.059-49.2 33.438z" class="cls-1"/><path d="M245.21825 331.9841v-22.08155h-4.58505v22.08154zm-2.29253-22.51619zm11.0706 4.26972h4.8535c1.06957 0 1.94738.11506 2.63769.34516.79684.32811 1.1974 1.0099 1.1974 2.03686 0 .92894-.30255 1.57664-.90764 1.93884-.60083.36646-1.38915.5497-2.35644.5497h-5.42451zm0 8.52667h5.49695c.95877.00852 1.70448.1321 2.23287.37072.95024.43038 1.42324 1.2187 1.42324 2.36923 0 1.35932-.49004 2.27548-1.46586 2.757-.54117.25993-1.2954.38776-2.2627.38776h-5.4245zm12.07624-10.00956c-1.12922-1.52977-3.04676-2.31383-5.75262-2.35219h-10.7297v22.08154h10.00956c1.12922 0 2.17321-.098 3.13624-.29828.9673-.20028 1.80249-.571 2.50985-1.10791.63066-.46874 1.15478-1.04826 1.57238-1.73857.66049-1.03974.9886-2.21157.9886-3.51975 0-1.26984-.2855-2.34793-.86076-3.23852-.57527-.88633-1.42324-1.53829-2.55246-1.94736.73719-.37925 1.29966-.79685 1.67891-1.25706.67753-.81815 1.01843-1.90475 1.01843-3.2513 0-1.30818-.3409-2.43314-1.01843-3.3706zm20.23644-2.35219l-3.98422 17.3644-4.01405-17.3644h-6.7114v22.08154h4.29956v-14.9355c0-.43038-.00426-1.03121-.01705-1.80675-.00852-.77128-.01278-1.36785-.01278-1.7897l4.1504 18.53195h4.47853l4.18024-18.53196c0 .42186-.00426 1.01843-.01705 1.7897-.00852.77555-.01278 1.37638-.01278 1.80676v14.9355h4.29955v-22.08154zm13.52931 4.64471c1.78544-1.83657 3.95013-2.757 6.48555-2.757 2.50558 0 4.65323.92043 6.44293 2.757 1.7684 1.80675 2.65047 3.94161 2.65047 6.39606 0 2.5269-.8906 4.69585-2.66751 6.5026-1.77692 1.79822-3.9203 2.69733-6.4259 2.69733-2.51836 0-4.66175-.89485-6.44293-2.68455-1.78544-1.78544-2.6803-3.95866-2.6803-6.51538 0-2.46723.87781-4.59783 2.63769-6.39606zm14.21536 14.3219c2.2073-2.14765 3.31096-4.7896 3.31096-7.92584 0-3.04675-1.07809-5.64609-3.23426-7.80651-2.16042-2.15617-4.75976-3.23426-7.80651-3.23426-2.90614 0-5.4373.99713-7.59346 2.99563-2.29679 2.13912-3.44731 4.81942-3.44731 8.04514 0 3.10642 1.0653 5.7228 3.19164 7.84913 2.12633 2.1306 4.74271 3.19164 7.84913 3.19164 3.0084 0 5.58217-1.03973 7.72981-3.11493zm-6.72417-11.61177c.65622.25993.9886.7244.9886 1.3934 0 .66902-.21306 1.1548-.63066 1.45308-.4176.30254-1.00564.45168-1.75135.45168h-1.24427v-3.54958h.7798c.79684 0 1.41898.08097 1.85788.25142zm-5.8421 9.83058h3.20442v-4.32938h.67327l.7031.04262c.49003.02983.8565.09374 1.09512.19601.4389.17045.73719.46873.89912.89912.098.25993.16618.75849.19601 1.49568.02983.74145.09375 1.30392.19175 1.69595h3.05529l-.10227-.34515c-.04262-.11932-.06818-.2429-.08097-.3622a2.52796 2.52796 0 0 1-.02556-.35795v-1.09512c0-1.24854-.35794-2.16043-1.07809-2.73996-.38777-.31106-.96729-.54543-1.73857-.7031.83946-.08948 1.54682-.36646 2.12208-.82667.57526-.45595.86076-1.20166.86076-2.2286 0-1.3508-.54543-2.32236-1.63204-2.92319-.63918-.34942-1.44454-.55821-2.41184-.63066-.17044-.00852-1.01416-.01704-2.52689-.0213-1.51272-.00426-2.6462-.00852-3.4047-.00852zm31.09823 4.89612v-22.08154h-4.58505v22.08154zm-2.29252-22.51618zm21.2293.43464l-3.98423 17.3644-4.0183-17.3644h-6.7114v22.08154h4.29955v-14.9355c0-.43038-.00426-1.03121-.01278-1.80675-.01279-.77128-.01705-1.36785-.01705-1.7897l4.15041 18.53195h4.47852l4.18024-18.53196c0 .42186-.00426 1.01843-.01278 1.7897-.01279.77555-.01705 1.37638-.01705 1.80676v14.9355h4.29955v-22.08154zm14.26223 15.26788h-4.40608c0 2.2968.82241 4.09928 2.4715 5.41173 1.64908 1.3167 3.91178 1.97293 6.78809 1.97293 2.81665 0 4.99412-.669 6.53668-2.00276 1.54255-1.3295 2.31383-3.0084 2.31383-5.02396 0-1.96867-.65622-3.47287-1.9772-4.50834-.84798-.66901-2.10503-1.20592-3.77542-1.60222l-3.80525-.91615c-1.46585-.34942-2.42462-.65197-2.87631-.9119-.69884-.39203-1.04826-.98008-1.04826-1.7684 0-.86076.35794-1.52977 1.0653-2.00702.70736-.48152 1.65761-.72015 2.84648-.72015 1.06957 0 1.96016.18323 2.6803.55396 1.07808.55822 1.6576 1.5042 1.73857 2.82944h4.4359c-.08095-2.34366-.94172-4.13337-2.58654-5.36912-1.64056-1.23148-3.62628-1.84936-5.9529-1.84936-2.78682 0-4.90038.65197-6.3364 1.96016-1.44029 1.31244-2.16043 2.953-2.16043 4.9302 0 2.16895.74571 3.76264 2.23287 4.78107.8778.60935 2.46723 1.17183 4.76402 1.6917l2.3394.52412c1.36785.29829 2.36923.64345 3.0084 1.03548.63919.39629.95878.96303.95878 1.6917 0 1.24852-.64344 2.10076-1.93033 2.56097-.68179.23863-1.56386.35794-2.65472.35794-1.81528 0-3.0979-.45168-3.84787-1.36358-.40907-.49856-.68605-1.2528-.8224-2.25844zm4.47852-15.94115zm28.6864.67327H381.0653v3.91179H387.7v18.16975h4.6447v-18.16975h6.60486zm17.33456 0l-3.98422 17.3644-4.01831-17.3644h-6.7114v22.08154h4.29956v-14.9355c0-.43038-.00426-1.03121-.01278-1.80675-.00853-.77128-.01705-1.36785-.01705-1.7897l4.15041 18.53195h4.47852l4.18024-18.53196c0 .42186-.00426 1.01843-.01279 1.7897-.01278.77555-.01704 1.37638-.01704 1.80676v14.9355h4.29955v-22.08154zm30.9704 4.56801c.6051.49004.90764 1.30819.90764 2.45871 0 1.14627-.30255 1.98572-.90764 2.51837-.60083.5284-1.4488.79259-2.53967.79259h-4.29955v-6.5026h4.29955c1.09087 0 1.93884.24715 2.53967.73293zm3.49845 7.95566c1.32097-1.07808 1.9772-2.91892 1.9772-5.52678 0-2.38627-.65623-4.1504-1.9772-5.28814-1.31671-1.13774-3.08511-1.70875-5.30093-1.70875h-9.61753v22.08154h4.58079v-7.93861h4.69158c2.44593 0 4.32938-.54118 5.64609-1.61926zm9.4556 9.55787v-22.08154h-4.26972v22.08154zm8.41587-16.32892h-4.37199v9.84338c0 1.8664.23437 3.28112.7031 4.23989.83945 1.73857 2.46723 2.60785 4.88333 2.60785.83946 0 1.57239-.11079 2.19452-.33237.6264-.21732 1.26984-.6264 1.93885-1.22722.22158-.19176.41333-.40908.571-.66049.16192-.24715.25993-.40055.29828-.44743v2.30531h4.15041v-16.32892h-4.32938v8.8846c0 1.04826-.14062 1.89198-.4176 2.53116-.54117 1.18035-1.53829 1.7684-2.99562 1.7684-1.142 0-1.90476-.41334-2.29252-1.24427-.22159-.46874-.33238-1.16757-.33238-2.09651zm2.99563-.43464zm21.03328 12.12738c-.68605.75423-1.52977 1.12922-2.53115 1.12922-1.49569 0-2.53542-.68606-3.11494-2.06669-.3196-.73718-.47726-1.5809-.47726-2.53115 0-1.09939.14915-2.0198.44743-2.76978.571-1.41046 1.60221-2.11355 3.10215-2.11355 1.0994 0 1.97294.4048 2.62916 1.21444.65197.80963.98008 1.98572.98008 3.5368 0 1.64482-.34516 2.84647-1.03547 3.6007zm-1.45307-11.70552c-.60935-.25141-1.32097-.37498-2.13912-.37498-2.22009 0-3.9331.82667-5.13901 2.48001-1.21018 1.64909-1.81527 3.6902-1.81527 6.11909 0 2.5141.6264 4.50835 1.88345 5.98272 1.2528 1.47438 2.92744 2.21156 5.02395 2.21156 1.35933 0 2.46298-.32385 3.31096-.97581.46873-.34942.90763-.87355 1.3167-1.57238v1.04825c0 1.5596-.16618 2.66751-.50708 3.328-.51986 1.02695-1.54681 1.54255-3.0851 1.54255-1.09087 0-1.86215-.19601-2.32236-.58378-.26845-.22158-.46447-.57952-.58378-1.07808h-4.64471c.14062 1.62777.86928 2.85074 2.186 3.66889 1.3167.81815 3.02119 1.22722 5.10917 1.22722 3.45584 0 5.79097-.92041 7.00968-2.757.71162-1.06955 1.0653-2.65472 1.0653-4.76401v-15.48947h-4.15041v2.35219c-.63918-1.14627-1.47864-1.93885-2.51837-2.36497zm-.77554-.42186zm10.14166 6.18726v4.04388h8.5991v-4.04388zm15.89427-7.69998v-3.94161h-4.32938v3.9416zm-4.32938 1.94736v16.32892h4.32938v-16.32892zm21.65542.93747c-1.07382-.88633-2.45445-1.32523-4.14188-1.32523-1.3508 0-2.46298.3281-3.34079.9886-.49003.36646-1.0099.97155-1.5596 1.811v-2.382h-4.12057v16.29908h4.25693v-8.83773c0-1.0099.13636-1.83657.4176-2.48854.54117-1.22722 1.53403-1.84084 2.98284-1.84084 1.1761 0 1.9772.4176 2.3948 1.25706.2301.4602.34515 1.1207.34515 1.9772v9.93285h4.37626v-10.9939c0-2.04963-.53692-3.51548-1.61074-4.39755zm-5.71853-1.3721z"/></svg>