<svg xmlns="http://www.w3.org/2000/svg" role="img" viewBox="-7.97 34.03 414.18 213.93"><title>IBM Z Distribution for Zowe (Support Provider App Framework ZOWE V1) logo</title><style>svg {enable-background:new 0 0 400 245}</style><style id="style2" type="text/css">.st0{fill:#4c83c3}</style><g id="g130"><path id="polygon4" fill="#4c83c3" d="m 336.1,42.1 h 62.2 V 53.5 H 332 Z" class="st0"/><path id="path6" d="m 221.5,42.1 h 61.6 l 4,11.5 c 0,0 -65.6,0 -65.6,0 0.1,-0.1 0,-11.5 0,-11.5 z" class="st0"/><path id="path8" d="m 172.7,42.1 c 10.1,1 19,4.6 26.5,11.5 0,0 -111.6,0 -111.6,0 0,0 0,-11.5 0,-11.5 z" class="st0"/><g id="g14"><path id="rect10" fill="#4c83c3" d="m 0,42.099998 h 77.5 v 11.4 H 0 Z" class="st0"/></g><path id="path16" d="m 398.3,75 h -73.9 c 0,0 4,-11.4 4,-11.4 h 69.9 z" class="st0"/><path id="polygon18" fill="#4c83c3" d="m 221.5,63.6 h 69.2 l 4.1,11.4 h -73.3 z" class="st0"/><path id="path20" d="m 207.8,63.6 c 1.5,3.8 3.2,7 3.2,11.4 H 87.6 V 63.6 Z" class="st0"/><g id="g26"><path id="rect22" fill="#4c83c3" d="m 0,63.599998 h 77.5 v 11.4 H 0 Z" class="st0"/></g><path id="polygon28" fill="#4c83c3" d="m 376.4,85.1 v 11.4 h -59.6 l 4.1,-11.4 z" class="st0"/><path id="polygon30" fill="#4c83c3" d="M 243.4,96.5 V 85.1 h 54.9 l 4.1,11.4 z" class="st0"/><path id="path32" d="m 212,85 c 0,3.9 -0.5,8 -1.6,11.4 H 176.6 V 85 Z" class="st0"/><g id="g38"><path id="rect34" fill="#4c83c3" d="m 21.6,85.099998 h 33.3 v 11.4 H 21.6 Z" class="st0"/></g><g id="g44"><path id="rect40" fill="#4c83c3" d="m 110,85 h 33.3 V 96.4 H 110 Z" class="st0"/></g><path id="path46" d="m 276.1,108.8 c 0,0 0,8.7 0,8.7 h -32.8 v -11.4 h 62.4 l 3.9,10.6 c 0,0 3.7,-10.6 3.7,-10.6 h 62.9 v 11.4 h -32.6 c 0,0 0,-8.7 0,-8.7 l -3,8.7 H 279 Z" class="st0"/><path id="path48" d="m 110,106.1 h 95.5 v 0 c -2.1,3.8 -5.9,8.4 -9.5,11.4 0,0 -86,0 -86,0 0,0 0,-11.4 0,-11.4 z" class="st0"/><g id="g54"><path id="rect50" fill="#4c83c3" d="m 21.6,106.1 h 33.3 v 11.4 H 21.6 Z" class="st0"/></g><g id="g60"><path id="rect56" fill="#4c83c3" d="m 343.79999,127.6 h 32.6 V 139 h -32.6 z" class="st0"/></g><path id="path62" d="M 276.1,127.6 H 243.3 V 139 c 0,0 32.8,0 32.8,0 0,-0.1 0.1,-11.4 0,-11.4 z" class="st0"/><path id="path64" d="m 337.2,127.6 c -0.1,0 -3.8,11.4 -4,11.4 h -46.4 c 0,0 -4.1,-11.4 -4.1,-11.4 z" class="st0"/><path id="path66" d="m 110,127.6 h 85.8 c 3.9,3.3 7.5,7.3 10.2,11.4 0.2,0 -96.1,0 -96.1,0 0.1,-0.1 0.1,-11.4 0.1,-11.4 z" class="st0"/><path id="path68" d="M 54.9,138.9 V 127.5 H 21.7 c 0,0 0,11.4 0,11.4 0,0 33.2,0 33.2,0 z" class="st0"/><g id="g74"><path id="rect70" fill="#4c83c3" d="m 343.79999,149 h 32.6 v 11.4 h -32.6 z" class="st0"/></g><g id="g80"><path id="rect76" fill="#4c83c3" d="m 243.39999,149 h 32.8 v 11.4 h -32.8 z" class="st0"/></g><path id="path82" d="m 325.6,160.4 c 0,-0.1 4,-11.4 4.1,-11.4 h -39.5 c -0.1,0 4,11.4 4,11.4 0,0 31.4,0.1 31.4,0 z" class="st0"/><path id="path84" d="m 110,160.4 c 0,0 0,-11.4 0,-11.4 h 33.8 c 0,0 0,11.4 0,11.4 -0.1,0 -33.8,0 -33.8,0 z" class="st0"/><path id="path86" d="m 210.8,149 c 1.6,3.4 1.8,7.5 2.1,11.4 H 177.1 V 149 Z" class="st0"/><g id="g92"><path id="rect88" fill="#4c83c3" d="M 21.700001,149 H 55 v 11.4 H 21.700001 Z" class="st0"/></g><g id="g98"><path id="rect94" fill="#4c83c3" d="m 343.79999,170 h 54.5 v 11.4 h -54.5 z" class="st0"/></g><g id="g104"><path id="rect100" fill="#4c83c3" d="m 221.5,170 h 54.6 v 11.4 h -54.6 z" class="st0"/></g><path id="polygon106" fill="#4c83c3" d="m 297.6,170 h 24.5 l -3.9,11.4 h -16.6 z" class="st0"/><path id="path108" d="m 0,170 v 11.4 h 77.5 c 0,0 0,-11.4 0,-11.4 0,0 -77.6,0 -77.5,0 z" class="st0"/><path id="path110" d="m 211.5,170 c -0.8,3.8 -1.6,8.3 -4.3,11.4 h -1 H 87.6 V 170 Z" class="st0"/><path id="polygon112" fill="#4c83c3" d="m 305.3,191.5 h 9.4 l -4,11.4 h -1.5 z" class="st0"/><g id="g118"><path id="rect114" fill="#4c83c3" d="m 343.79999,191.5 h 54.5 v 11.4 h -54.5 z" class="st0"/></g><path id="path120" d="m 87.6,202.9 v -11.4 c 0,0 111.9,0 112.2,0 -7.5,7.2 -17.8,11.2 -28.9,11.4 H 87.6" class="st0"/><g id="g126"><path id="rect122" fill="#4c83c3" d="m 221.5,191.5 h 54.6 v 11.4 h -54.6 z" class="st0"/></g><path id="path128" d="m 77.5,191.5 c 0,0 0,11.4 0,11.4 0,0 -77.4,0 -77.5,0 0,0 0,-11.4 0,-11.4 0,0 77.4,0.1 77.5,0 z" class="st0"/></g><g id="text132" text-anchor="middle"><path id="path158" d="m 93.914062,240 h -4.59375 v -1.1875 h 1.523438 v -9.25781 h -1.523438 v -1.1875 h 4.59375 v 1.1875 h -1.523437 v 9.25781 h 1.523437 z"/><path id="path160" d="m 105.33594,236.42187 q 0,0.86719 -0.32813,1.53125 -0.32812,0.66407 -0.88281,1.09375 -0.65625,0.51563 -1.44531,0.73438 Q 101.89844,240 100.6875,240 h -4.125 v -11.63281 h 3.44531 q 1.27344,0 1.90625,0.0937 0.63282,0.0937 1.21094,0.39062 0.64063,0.33594 0.92969,0.86719 0.28906,0.52344 0.28906,1.25781 0,0.82813 -0.42187,1.41406 -0.42188,0.57813 -1.125,0.92969 v 0.0625 q 1.17968,0.24219 1.85937,1.03906 0.67969,0.78907 0.67969,2 z m -2.60156,-5.24218 q 0,-0.42188 -0.14063,-0.71094 -0.14062,-0.28906 -0.45312,-0.46875 -0.36719,-0.21094 -0.89063,-0.25781 -0.52344,-0.0547 -1.296875,-0.0547 h -1.84375 v 3.35937 h 2.000005 q 0.72656,0 1.15625,-0.0703 0.42968,-0.0781 0.79687,-0.3125 0.36719,-0.23437 0.51563,-0.60156 0.15625,-0.375 0.15625,-0.88281 z m 0.99218,5.30468 q 0,-0.70312 -0.21093,-1.11718 -0.21094,-0.41407 -0.76563,-0.70313 -0.375,-0.19531 -0.91406,-0.25 -0.53125,-0.0625 -1.29688,-0.0625 h -2.429685 v 4.32813 h 2.046875 q 1.01563,0 1.66406,-0.10157 0.64844,-0.10937 1.0625,-0.39062 0.4375,-0.30469 0.64063,-0.69531 0.20312,-0.39063 0.20312,-1.00782 z"/><path id="path162" d="m 117.89063,240 h -1.54688 v -10.02344 l -3.23437,6.82031 h -0.92188 l -3.21094,-6.82031 V 240 h -1.44531 v -11.63281 h 2.10938 l 3.10156,6.47656 3,-6.47656 h 2.14844 z"/><path id="path164" d="m 135.15625,240 h -9.07812 v -1.4375 l 7.13281,-8.82031 h -6.86719 v -1.375 h 8.64062 v 1.39843 l -7.20312,8.85938 h 7.375 z"/><path id="path166" d="m 153.07812,234.19531 q 0,1.58594 -0.69531,2.875 -0.6875,1.28906 -1.83594,2 -0.79687,0.49219 -1.78125,0.71094 Q 147.78906,240 146.1875,240 H 143.25 v -11.63281 h 2.90625 q 1.70312,0 2.70312,0.25 1.00782,0.24218 1.70313,0.67187 1.1875,0.74219 1.85156,1.97656 0.66406,1.23438 0.66406,2.92969 z m -1.61718,-0.0234 q 0,-1.36718 -0.47657,-2.30468 -0.47656,-0.9375 -1.42187,-1.47657 -0.6875,-0.39062 -1.46094,-0.53906 -0.77344,-0.15625 -1.85156,-0.15625 h -1.45313 v 8.97656 H 146.25 q 1.11719,0 1.94531,-0.16406 0.83594,-0.16406 1.53125,-0.60937 0.86719,-0.55469 1.29688,-1.46094 0.4375,-0.90625 0.4375,-2.26563 z"/><path id="path168" d="m 157.05469,229.8125 h -1.65625 v -1.52344 h 1.65625 z M 156.96094,240 h -1.46875 v -8.72656 h 1.46875 z"/><path id="path170" d="m 166.11719,237.48437 q 0,1.19532 -0.99219,1.96094 -0.98438,0.76563 -2.69531,0.76563 -0.96875,0 -1.78125,-0.22657 -0.80469,-0.23437 -1.35157,-0.50781 v -1.64844 h 0.0781 q 0.69531,0.52344 1.54687,0.83594 0.85157,0.30469 1.63282,0.30469 0.96875,0 1.51562,-0.3125 0.54688,-0.3125 0.54688,-0.98438 0,-0.51562 -0.29688,-0.78125 -0.29687,-0.26562 -1.14062,-0.45312 -0.3125,-0.0703 -0.82032,-0.16406 -0.5,-0.0937 -0.91406,-0.20313 -1.14844,-0.30469 -1.63281,-0.89062 -0.47656,-0.59375 -0.47656,-1.45313 0,-0.53906 0.21875,-1.01562 0.22656,-0.47657 0.67968,-0.85157 0.4375,-0.36718 1.10938,-0.57812 0.67969,-0.21875 1.51562,-0.21875 0.78125,0 1.57813,0.19531 0.80469,0.1875 1.33594,0.46094 v 1.57031 h -0.0781 q -0.5625,-0.41406 -1.36719,-0.69531 -0.80468,-0.28906 -1.57812,-0.28906 -0.80469,0 -1.35938,0.3125 -0.55468,0.30468 -0.55468,0.91406 0,0.53906 0.33593,0.8125 0.32813,0.27344 1.0625,0.44531 0.40625,0.0937 0.90625,0.1875 0.50782,0.0937 0.84375,0.17188 1.02344,0.23437 1.57813,0.80468 0.55469,0.57813 0.55469,1.53125 z"/><path id="path172" d="m 172.75781,239.92187 q -0.41406,0.10938 -0.90625,0.17969 -0.48437,0.0703 -0.86719,0.0703 -1.33593,0 -2.03125,-0.71875 -0.69531,-0.71875 -0.69531,-2.30468 v -4.64063 h -0.99219 v -1.23437 h 0.99219 v -2.50782 h 1.46875 v 2.50782 h 3.03125 v 1.23437 h -3.03125 v 3.97656 q 0,0.6875 0.0312,1.07813 0.0312,0.38281 0.21875,0.71875 0.17188,0.3125 0.46875,0.46094 0.30469,0.14062 0.92188,0.14062 0.35937,0 0.75,-0.10156 0.39062,-0.10938 0.5625,-0.17969 h 0.0781 z"/><path id="path174" d="m 179.98437,232.875 h -0.0781 q -0.32813,-0.0781 -0.64063,-0.10938 -0.30468,-0.0391 -0.72656,-0.0391 -0.67969,0 -1.3125,0.30469 -0.63281,0.29687 -1.21875,0.77344 V 240 h -1.46875 v -8.72656 h 1.46875 v 1.28906 q 0.875,-0.70313 1.53906,-0.99219 0.67188,-0.29687 1.36719,-0.29687 0.38281,0 0.55469,0.0234 0.17187,0.0156 0.51562,0.0703 z"/><path id="path176" d="m 182.96094,229.8125 h -1.65625 v -1.52344 h 1.65625 z M 182.86719,240 h -1.46875 v -8.72656 h 1.46875 z"/><path id="path178" d="m 193.46875,235.57031 q 0,1.09375 -0.3125,1.96875 -0.30469,0.875 -0.82813,1.46875 -0.55468,0.61719 -1.21875,0.92969 -0.66406,0.30469 -1.46093,0.30469 -0.74219,0 -1.29688,-0.17969 -0.55469,-0.17188 -1.09375,-0.46875 L 187.16406,240 h -1.375 v -12.15625 h 1.46875 v 4.34375 q 0.61719,-0.50781 1.3125,-0.82813 0.69531,-0.32812 1.5625,-0.32812 1.54688,0 2.4375,1.1875 0.89844,1.1875 0.89844,3.35156 z m -1.51563,0.0391 q 0,-1.5625 -0.51562,-2.36718 -0.51563,-0.8125 -1.66406,-0.8125 -0.64063,0 -1.29688,0.28125 -0.65625,0.27343 -1.21875,0.71093 v 5 q 0.625,0.28125 1.07031,0.39063 0.45313,0.10937 1.02344,0.10937 1.21875,0 1.90625,-0.79687 0.69531,-0.80469 0.69531,-2.51563 z"/><path id="path180" d="m 202.99219,240 h -1.46875 v -0.96875 q -0.74219,0.58594 -1.42188,0.89844 -0.67969,0.3125 -1.5,0.3125 -1.375,0 -2.14062,-0.83594 -0.76563,-0.84375 -0.76563,-2.46875 v -5.66406 h 1.46875 v 4.96875 q 0,0.66406 0.0625,1.14062 0.0625,0.46875 0.26563,0.80469 0.21093,0.34375 0.54687,0.5 0.33594,0.15625 0.97656,0.15625 0.57032,0 1.24219,-0.29688 0.67969,-0.29687 1.26563,-0.75781 v -6.51562 h 1.46875 z"/><path id="path182" d="m 210.41406,239.92187 q -0.41406,0.10938 -0.90625,0.17969 -0.48437,0.0703 -0.86719,0.0703 -1.33593,0 -2.03125,-0.71875 -0.69531,-0.71875 -0.69531,-2.30468 v -4.64063 h -0.99219 v -1.23437 h 0.99219 v -2.50782 h 1.46875 v 2.50782 h 3.03125 v 1.23437 h -3.03125 v 3.97656 q 0,0.6875 0.0312,1.07813 0.0312,0.38281 0.21875,0.71875 0.17188,0.3125 0.46875,0.46094 0.30469,0.14062 0.92188,0.14062 0.35937,0 0.75,-0.10156 0.39062,-0.10938 0.5625,-0.17969 h 0.0781 z"/><path id="path184" d="m 213.77344,229.8125 h -1.65625 v -1.52344 h 1.65625 z M 213.67969,240 h -1.46875 v -8.72656 h 1.46875 z"/><path id="path186" d="m 224.03906,235.64062 q 0,2.13282 -1.09375,3.36719 -1.09375,1.23438 -2.92969,1.23438 -1.85156,0 -2.94531,-1.23438 -1.08594,-1.23437 -1.08594,-3.36719 0,-2.13281 1.08594,-3.36718 1.09375,-1.24219 2.94531,-1.24219 1.83594,0 2.92969,1.24219 1.09375,1.23437 1.09375,3.36718 z m -1.51562,0 q 0,-1.69531 -0.66407,-2.51562 -0.66406,-0.82813 -1.84375,-0.82813 -1.19531,0 -1.85937,0.82813 -0.65625,0.82031 -0.65625,2.51562 0,1.64063 0.66406,2.49219 0.66406,0.84375 1.85156,0.84375 1.17188,0 1.83594,-0.83594 0.67188,-0.84375 0.67188,-2.5 z"/><path id="path188" d="m 233.61719,240 h -1.46875 v -4.96875 q 0,-0.60156 -0.0703,-1.125 -0.0703,-0.53125 -0.25781,-0.82813 -0.19531,-0.32812 -0.5625,-0.48437 -0.36719,-0.16406 -0.95312,-0.16406 -0.60157,0 -1.25782,0.29687 -0.65625,0.29688 -1.25781,0.75781 V 240 h -1.46875 v -8.72656 h 1.46875 v 0.96875 q 0.6875,-0.57032 1.42188,-0.89063 0.73437,-0.32031 1.50781,-0.32031 1.41406,0 2.15625,0.85156 0.74219,0.85156 0.74219,2.45313 z"/><path id="path190" d="m 246.76562,229.26562 h -0.0781 q -0.24219,-0.0703 -0.63281,-0.14062 -0.39063,-0.0781 -0.6875,-0.0781 -0.94532,0 -1.375,0.42188 -0.42188,0.41406 -0.42188,1.50781 v 0.29688 h 2.64844 v 1.23437 h -2.60156 V 240 h -1.46875 v -7.49219 h -0.99219 v -1.23437 h 0.99219 v -0.28907 q 0,-1.55468 0.77343,-2.38281 0.77344,-0.83594 2.23438,-0.83594 0.49219,0 0.88281,0.0469 0.39844,0.0469 0.72656,0.10937 z"/><path id="path192" d="m 255.13281,235.64062 q 0,2.13282 -1.09375,3.36719 -1.09375,1.23438 -2.92969,1.23438 -1.85156,0 -2.94531,-1.23438 -1.08594,-1.23437 -1.08594,-3.36719 0,-2.13281 1.08594,-3.36718 1.09375,-1.24219 2.94531,-1.24219 1.83594,0 2.92969,1.24219 1.09375,1.23437 1.09375,3.36718 z m -1.51562,0 q 0,-1.69531 -0.66407,-2.51562 -0.66406,-0.82813 -1.84375,-0.82813 -1.19531,0 -1.85937,0.82813 -0.65625,0.82031 -0.65625,2.51562 0,1.64063 0.66406,2.49219 0.66406,0.84375 1.85156,0.84375 1.17188,0 1.83594,-0.83594 0.67188,-0.84375 0.67188,-2.5 z"/><path id="path194" d="m 262.85937,232.875 h -0.0781 q -0.32813,-0.0781 -0.64063,-0.10938 -0.30468,-0.0391 -0.72656,-0.0391 -0.67969,0 -1.3125,0.30469 -0.63281,0.29687 -1.21875,0.77344 V 240 h -1.46875 v -8.72656 h 1.46875 v 1.28906 q 0.875,-0.70313 1.53906,-0.99219 0.67188,-0.29687 1.36719,-0.29687 0.38281,0 0.55469,0.0234 0.17187,0.0156 0.51562,0.0703 z"/><path id="path196" d="m 278.5,240 h -9.07813 v -1.4375 l 7.13282,-8.82031 h -6.86719 v -1.375 h 8.64062 v 1.39843 L 271.125,238.625 h 7.375 z"/><path id="path198" d="m 288.28906,235.64062 q 0,2.13282 -1.09375,3.36719 -1.09375,1.23438 -2.92969,1.23438 -1.85156,0 -2.94531,-1.23438 -1.08594,-1.23437 -1.08594,-3.36719 0,-2.13281 1.08594,-3.36718 1.09375,-1.24219 2.94531,-1.24219 1.83594,0 2.92969,1.24219 1.09375,1.23437 1.09375,3.36718 z m -1.51562,0 q 0,-1.69531 -0.66407,-2.51562 -0.66406,-0.82813 -1.84375,-0.82813 -1.19531,0 -1.85937,0.82813 -0.65625,0.82031 -0.65625,2.51562 0,1.64063 0.66406,2.49219 0.66406,0.84375 1.85156,0.84375 1.17188,0 1.83594,-0.83594 0.67188,-0.84375 0.67188,-2.5 z"/><path id="path200" d="M 301.54687,231.27344 299.27344,240 h -1.35938 L 295.67187,233.27344 293.44531,240 h -1.35156 l -2.29688,-8.72656 h 1.53125 l 1.60157,6.75781 2.17968,-6.75781 h 1.21094 l 2.23438,6.75781 1.51562,-6.75781 z"/><path id="path202" d="m 310.96875,235.78906 h -6.42969 q 0,0.80469 0.24219,1.40625 0.24219,0.59375 0.66406,0.97656 0.40625,0.375 0.96094,0.5625 0.5625,0.1875 1.23437,0.1875 0.89063,0 1.78907,-0.35156 0.90625,-0.35937 1.28906,-0.70312 h 0.0781 v 1.60156 q -0.74218,0.3125 -1.51562,0.52344 -0.77344,0.21093 -1.625,0.21093 -2.17188,0 -3.39063,-1.17187 -1.21875,-1.17969 -1.21875,-3.34375 0,-2.14063 1.16407,-3.39844 1.17187,-1.25781 3.07812,-1.25781 1.76563,0 2.71875,1.03125 0.96094,1.03125 0.96094,2.92969 z m -1.42969,-1.125 q -0.008,-1.15625 -0.58594,-1.78906 -0.57031,-0.63281 -1.74218,-0.63281 -1.17969,0 -1.88282,0.69531 -0.69531,0.69531 -0.78906,1.72656 z"/></g></svg>