<svg xmlns="http://www.w3.org/2000/svg" role="img" viewBox="-14.36 -14.36 746.72 322.72"><title>IBM® Db2® Database Plug-in for Zowe CLI logo</title><defs id="defs3552"><style id="style3550">.cls-1{fill:#0033a1}.cls-2{fill:#2a7de1}</style></defs><path id="polygon3556" d="M29.202 156.633l52.517-.823 71.484-50.097 14.994 30.607 13.759-80.538z" class="cls-1" transform="translate(-29.2 -55.777)"/><path id="polygon3558" d="M181.954 55.777l89.556 135.641-106.981-36.706z" class="cls-2" transform="translate(-29.2 -55.777)"/><path id="polyline3560" d="M131.223 229.511l8.452 12.18 76.73-54.507-12.985-19.127-44.268 30.853 5.375-44.194 106.981 36.7-145.721 102.786" class="cls-1" transform="translate(-29.2 -55.777)"/><path id="polygon3562" d="M94.075 176.677l49.2-33.439-17.487 149.774L29.2 156.634l52.523-.823z" class="cls-2" transform="translate(-29.2 -55.777)"/><path id="path3564" d="M587.23191 35.4428h5.29468a6.88644 6.88644 0 0 1 4.63135 1.36974 4.52388 4.52388 0 0 1 1.62157 3.71612 4.67514 4.67514 0 0 1-1.62157 3.753 7.14731 7.14731 0 0 1-4.79105 1.382h-3.65465V54.656h-1.48033zm1.48033 1.23459v7.69637h3.56251a5.57788 5.57788 0 0 0 3.6547-1.01963 3.84745 3.84745 0 0 0 .27639-5.436.34852.34852 0 0 1-.043-.04916l-.1904-.20882a5.3287 5.3287 0 0 0-3.50731-1.038z" class="cls-2"/><path id="path3566" d="M603.86285 35.4428h4.90774a7.28588 7.28588 0 0 1 4.73571 1.35132 4.43482 4.43482 0 0 1 1.63385 3.61781 4.77216 4.77216 0 0 1-3.65465 4.6559 8.891 8.891 0 0 1 2.56135 2.94829l4.34877 6.63987h-1.77514l-3.3476-5.23325a12.51111 12.51111 0 0 0-2.59819-3.29231 4.8449 4.8449 0 0 0-2.73333-.65719h-2.65348v9.21963h-1.48028zm1.48033 1.23459v7.52438h3.17557a6.18842 6.18842 0 0 0 3.73454-.98279 3.61961 3.61961 0 0 0 .42378-5.09814l-.44224-.44224a6.15319 6.15319 0 0 0-3.753-1.00121z" class="cls-2"/><path id="path3568" d="M631.17162 35.19832a10.00767 10.00767 0 0 1 7.21716 2.8623 9.627 9.627 0 0 1 .344 13.61141c-.0368.0368-.0737.0737-.1105.11669l-.23347.2457a10.49871 10.49871 0 0 1-14.416 0 9.74545 9.74545 0 0 1-.20263-13.77108l.0123-.0061.19035-.19658a9.95061 9.95061 0 0 1 7.19888-2.8623m0 18.32252a8.24138 8.24138 0 0 0 6.06247-2.44461 8.5868 8.5868 0 0 0 0-12.05123 8.71124 8.71124 0 0 0-12.1434 0 8.50806 8.50806 0 0 0 0 12.03281 8.30684 8.30684 0 0 0 6.08093 2.44461" class="cls-2"/><path id="path3570" d="M648.82228 35.44463v19.25006a6.22857 6.22857 0 0 1-1.19161 4.34877 3.8501 3.8501 0 0 1-2.8317 1.21617q-.44214.0184-.88448 0l-.13515-1.38815a4.62122 4.62122 0 0 0 .86611.0983c1.812 0 2.69645-1.27147 2.69645-3.85123V35.44463z" class="cls-2"/><path id="polygon3572" d="M686.071 92.456v7.678h8.753v1.253h-8.753v7.795h9.195v1.247h-10.681V91.222h10.472v1.234z" class="cls-2" transform="translate(-29.2 -55.777)"/><path id="path3574" d="M687.39486 36.81249v1.61543A14.69811 14.69811 0 0 0 680.54 36.5054a8.0693 8.0693 0 0 0-5.96416 2.44466A8.24453 8.24453 0 0 0 672.168 45.031a8.14392 8.14392 0 0 0 2.40778 6.11777 8.47367 8.47367 0 0 0 6.17916 2.3709 14.50977 14.50977 0 0 0 6.83027-1.92252v1.53558a14.27085 14.27085 0 0 1-6.79343 1.79356 10.06857 10.06857 0 0 1-7.31548-2.81319 9.83525 9.83525 0 0 1-.006-13.90622.006.006 0 0 0 .006-.0061.7022.7022 0 0 0 .13515-.13515 10.02036 10.02036 0 0 1 7.10666-2.83161 16.137 16.137 0 0 1 6.7565 1.61544" class="cls-2"/><path id="polygon3576" d="M728.51 92.456v17.973h-1.505V92.456h-7.217v-1.234h15.921v1.234z" class="cls-2" transform="translate(-29.2 -55.777)"/><path id="polygon3578" d="M410.365 99.444l-5.773 7.138h-.516l-5.799-7.138v12.334h-6.234V90.495h5.817l6.541 7.985 6.56-7.985h5.836v21.283h-6.432z" class="cls-2" transform="translate(-29.2 -55.777)"/><path id="path3580" d="M416.33272 56.00365h-6.56614l-1.75054-4.31193H398.778l-1.769 4.31193h-6.56615l9.41615-21.28932h7.18037zm-9.77855-8.02806l-3.12032-7.69633-3.151 7.69633z" class="cls-2"/><path id="rect3582" d="M419.183 34.719h6.406v21.283h-6.406z" class="cls-2"/><path id="polygon3584" d="M466.532 99.923v11.855h-6.351V90.495h5.694l11.007 11.793V90.495h6.394v21.283h-5.7z" class="cls-2" transform="translate(-29.2 -55.777)"/><path id="polygon3586" d="M495.039 111.779h-6.413V90.49h15.245v4.275h-8.832v4.122h8.832v4.269h-8.832z" class="cls-2" transform="translate(-29.2 -55.777)"/><path id="path3588" d="M499.595 56.00112h-6.8917l-1.67074-3.84509a16.48553 16.48553 0 0 0-1.6584-3.02815 3.5709 3.5709 0 0 0-1.43731-1.22849 5.21472 5.21472 0 0 0-1.812-.27026h-.71254v8.31674h-6.431V34.718h10.91499a7.868 7.868 0 0 1 4.33035 1.07488 6.46344 6.46344 0 0 1 2.44461 2.59823 6.72627 6.72627 0 0 1 .731 2.92373 5.4132 5.4132 0 0 1-.61422 2.73334 4.99247 4.99247 0 0 1-1.30835 1.61543 14.60055 14.60055 0 0 1-1.56014.96433 5.90891 5.90891 0 0 1 1.69529 1.425 16.98237 16.98237 0 0 1 1.88569 3.2923zm-8.716-14.56961a2.15338 2.15338 0 0 0-.98279-2.03921 6.28282 6.28282 0 0 0-3.13874-.5958h-1.34518v5.14111h1.36974a7.19359 7.19359 0 0 0 3.23087-.52209 2.149 2.149 0 0 0 .8661-1.92257" class="cls-2"/><path id="path3590" d="M525.87192 56.00365h-6.56615l-1.73212-4.31193h-9.238l-1.769 4.31193H499.982l9.41-21.28932h7.10052zm-9.77856-8.02806l-3.12036-7.69633-3.13874 7.69633z" class="cls-2"/><path id="polygon3592" d="M576.245 99.444l-5.799 7.138h-.497l-5.817-7.138v12.334h-6.235V90.495h5.836l6.523 7.985 6.584-7.985h5.811v21.283h-6.406z" class="cls-2" transform="translate(-29.2 -55.777)"/><path id="polygon3594" d="M588.024 90.495h15.78v4.269h-9.355v3.888h8.931v4.293h-8.931v4.54h9.625v4.293h-16.05z" class="cls-2" transform="translate(-29.2 -55.777)"/><path id="path3596" d="M283.15852 35.42865a11.03124 11.03124 0 0 1 8.06485 3.194 10.85708 10.85708 0 0 1 .31941 15.34967.18792.18792 0 0 0-.0492.0492l-.27025.26412a11.73656 11.73656 0 0 1-16.09291 0 10.89088 10.89088 0 0 1-.20882-15.39265l.20882-.215a11.08033 11.08033 0 0 1 8.02806-3.194m0 20.46a9.21918 9.21918 0 0 0 6.775-2.73333 9.62184 9.62184 0 0 0 0-13.47008 9.78988 9.78988 0 0 0-13.5684 0 9.50155 9.50155 0 0 0-.0246 13.44552l.0246.0246a9.2606 9.2606 0 0 0 6.79343 2.73333" class="cls-2"/><path id="path3598" d="M298.57146 35.694h5.915a7.96062 7.96062 0 0 1 5.19642 1.52331 5.61267 5.61267 0 0 1-.11669 8.35356 8.05225 8.05225 0 0 1-5.33156 1.56014h-4.10303v9.98742h-1.65227zm1.65845 1.38815v8.66071h4.00476a6.42467 6.42467 0 0 0 4.07851-1.13632 4.34636 4.34636 0 0 0 .23342-6.13619.89411.89411 0 0 0-.215-.215 5.7378 5.7378 0 0 0-3.8451-1.1732z" class="cls-2"/><path id="polygon3600" d="M345.519 92.862v8.581h9.785v1.388h-9.785v8.716h10.301v1.388h-11.953V91.474h11.701v1.388z" class="cls-2" transform="translate(-29.2 -55.777)"/><path id="polygon3602" d="M377.181 112.935l-16.296-18.771v18.771h-1.658V91.474h1.407l16.258 18.746V91.474h1.659v21.461z" class="cls-2" transform="translate(-29.2 -55.777)"/><path id="path3604" d="M269.81527 175.16729l64.79151-75.394h-62.772V77.0545h96.09326V96.744l-64.79151 75.394h64.79151v22.71875h-98.1128z" class="cls-1"/><path id="path3606" d="M381.22348 150.26007v-.33692c0-25.916 20.86816-46.95215 48.97265-46.95215 27.93555 0 48.63477 20.69922 48.63477 46.61622v.33593c0 25.917-20.86719 46.95313-48.97168 46.95313-27.93652 0-48.63574-20.69922-48.63574-46.61621zm72.36425 0v-.33692c0-13.29443-9.59277-24.90625-23.72851-24.90625-14.6416 0-23.39258 11.27539-23.39258 24.57032v.33593c0 13.29492 9.59277 24.90723 23.72949 24.90723 14.64063 0 23.3916-11.27538 23.3916-24.57031z" class="cls-1"/><path id="path3608" d="M485.89926 104.65362h25.917l14.47265 54.69438 16.99709-55.0308h22.0459l17.165 55.19873 14.80957-54.86231h25.41211l-28.10449 90.876h-23.05565l-17.334-55.3667-17.66992 55.3667h-22.88768z" class="cls-1"/><path id="path3610" d="M629.78793 150.26007v-.33692c0-25.748 18.34375-46.95215 44.59668-46.95215 30.124 0 43.92383 23.39209 43.92383 48.97168 0 2.01954-.16895 4.376-.33692 6.73145H655.2c2.52344 11.6123 10.60156 17.6709 22.0459 17.6709 8.582 0 14.80859-2.69238 21.877-9.25586l14.6416 12.958c-8.415 10.43359-20.53125 16.8291-36.85547 16.8291-27.09473.00001-47.1211-19.01659-47.1211-46.6162zm63.61328-7.57276c-1.51465-11.44384-8.24609-19.18506-19.0166-19.18506-10.60254 0-17.50195 7.57276-19.52148 19.18506z" class="cls-1"/><path id="polygon3612" d="M143.275 143.239l-49.2 33.438 43.396 16.621z" class="cls-1" transform="translate(-29.2 -55.777)"/><g id="text4143" fill="#000" fill-opacity="1" stroke="none"><path id="path4209" d="M140.15039 263.49805v24.3125h2.89063v-2.625c.60416 1.04166 1.36458 1.8177 2.28125 2.32812.92708.5 2.03125.75 3.3125.75 2.125 0 3.84895-.84375 5.17187-2.53125 1.33333-1.6875 2-3.90625 2-6.65625s-.66667-4.96875-2-6.65625c-1.32292-1.6875-3.04687-2.53125-5.17187-2.53125-1.28125 0-2.38542.25521-3.3125.76563-.91667.5-1.67709 1.27083-2.28125 2.3125v-9.46875zm159.3125 0v24.3125h2.89063v-2.625c.60416 1.04166 1.36458 1.8177 2.28125 2.32812.92708.5 2.03125.75 3.3125.75 2.125 0 3.84895-.84375 5.17187-2.53125 1.33333-1.6875 2-3.90625 2-6.65625s-.66667-4.96875-2-6.65625c-1.32292-1.6875-3.04687-2.53125-5.17187-2.53125-1.28125 0-2.38542.25521-3.3125.76563-.91667.5-1.67709 1.27083-2.28125 2.3125v-9.46875zm105.92188 0v24.3125h2.875v-24.3125zm61.0625 0v3.64062h2.875v-3.64062zm45.51562 0c-1.96875 0-3.40625.44791-4.3125 1.34375-.90625.88542-1.35937 2.30208-1.35937 4.25v1.21875h-2.75v2.23437h2.75v15.26563h2.89062v-15.26563h4.73438v-2.23437h-4.73438v-1.54688c0-1.08333.19792-1.83333.59375-2.25.40625-.41666 1.125-.625 2.15625-.625h2.75v-2.39062zm-345.3125.5625c-.91667 0-1.92708.1302-3.03125.39062s-2.29167.64583-3.5625 1.15625v3.1875c1.25-.69792 2.42188-1.21875 3.51563-1.5625 1.10416-.34375 2.15103-.51562 3.14062-.51562 1.39583 0 2.52605.39062 3.39063 1.17187.875.78125 1.3125 1.79167 1.3125 3.03125 0 .76042-.20313 1.53646-.60938 2.32813-.39583.78125-1.09895 1.73958-2.10937 2.875-.53125.60416-1.83333 1.95312-3.90625 4.04687-2.0625 2.08334-3.69272 3.7448-4.89063 4.98438v2.65625h14.8125v-2.65625h-11.01562c2.54166-2.59375 4.51041-4.60938 5.90625-6.04688 1.39583-1.44792 2.22395-2.32292 2.48437-2.625.94791-1.16666 1.59896-2.17708 1.95313-3.03125.36458-.86458.54687-1.77604.54687-2.73437 0-2.02084-.71875-3.63542-2.15625-4.84375-1.4375-1.20834-3.36458-1.8125-5.78125-1.8125zm501.09375 0c-3.53125 0-6.3125 1.08333-8.34375 3.25-2.03125 2.15625-3.04687 5.10937-3.04687 8.85937 0 3.73958 1.01562 6.69271 3.04687 8.85938 2.03125 2.15625 4.8125 3.23437 8.34375 3.23437 1.375 0 2.67708-.1875 3.90625-.5625 1.23958-.375 2.41146-.9375 3.51563-1.6875v-3.29687c-1.0625.98958-2.19792 1.72917-3.40625 2.21875-1.19792.48958-2.47396.73437-3.82813.73437-2.66667 0-4.70833-.8125-6.125-2.4375-1.41667-1.63542-2.125-3.98958-2.125-7.0625 0-3.08333.70833-5.4375 2.125-7.0625 1.41667-1.63542 3.45833-2.45312 6.125-2.45312 1.35417 0 2.63021.24479 3.82813.73437 1.20833.48958 2.34375 1.22917 3.40625 2.21875v-3.32812c-1.08334-.73958-2.2448-1.29167-3.48438-1.65625-1.22917-.375-2.54167-.5625-3.9375-.5625zm-653.17187.42187v23.32813h3.15625v-23.32813zm9.4375 0v23.32813h8.375c2.61458 0 4.6302-.56771 6.04687-1.70313 1.41667-1.13542 2.125-2.74479 2.125-4.82812 0-1.58334-.4323-2.90105-1.29687-3.95313-.85417-1.0625-2.0573-1.76041-3.60938-2.09375 1.29167-.20833 2.27083-.73437 2.9375-1.57812.66667-.84375 1-1.97917 1-3.40625 0-1.84375-.65104-3.26563-1.95312-4.26563-1.30209-1-3.15625-1.5-5.5625-1.5zm21.9375 0v23.32813h3.0625v-20.48438l6.01562 16h3.17188l6.01562-16v20.48438h3.07813v-23.32813h-4.70313l-5.98437 15.875-5.95313-15.875zm69.8125 0v23.32813h6.48437c4.5 0 7.8125-.94271 9.9375-2.82813 2.125-1.88542 3.1875-4.83854 3.1875-8.85937 0-4-1.05729-6.9375-3.17187-8.8125-2.11458-1.88542-5.4323-2.82813-9.95313-2.82813zm107.5 0v23.32813h6.48437c4.5 0 7.8125-.94271 9.9375-2.82813 2.125-1.88542 3.1875-4.83854 3.1875-8.85937 0-4-1.05729-6.9375-3.17187-8.8125-2.11458-1.88542-5.4323-2.82813-9.95313-2.82813zm162.9375 0v23.32813h3.15625v-9.375h3.96875c2.61458 0 4.58854-.58855 5.92187-1.76563 1.34375-1.17708 2.01563-2.91667 2.01563-5.21875 0-2.28125-.67188-4.01042-2.01563-5.1875-1.33333-1.1875-3.30729-1.78125-5.92187-1.78125zm172.59375 0v2.65625h14.39062l-14.75 18.26563v2.40625h19.04688v-2.65625h-15.10938l14.75-18.26563v-2.40625zm121.28125 0v23.32813h14.51562v-2.65625h-11.35937v-20.67188zm17.8125 0v23.32813h3.15625v-23.32813zm-611.45313.125c-1.58333 0-3.0625.28646-4.4375.85938-1.36458.57292-2.61458 1.42708-3.75 2.5625-1.13542 1.13542-1.98437 2.38542-2.54687 3.75-.5625 1.36458-.84375 2.84896-.84375 4.45312 0 1.58334.28125 3.0573.84375 4.42188.5625 1.35416 1.41145 2.59895 2.54687 3.73437 1.13542 1.13542 2.38542 1.98958 3.75 2.5625 1.375.57292 2.85417.85938 4.4375.85938 1.58333 0 3.0573-.28646 4.42188-.85938 1.375-.57292 2.6302-1.42708 3.76562-2.5625 1.13542-1.13542 1.98438-2.38021 2.54688-3.73437.5625-1.36458.84375-2.83854.84375-4.42188 0-1.60416-.28125-3.08854-.84375-4.45312-.5625-1.36458-1.41146-2.61458-2.54688-3.75-1.13542-1.13542-2.39062-1.98958-3.76562-2.5625-1.36459-.57292-2.83855-.85938-4.42188-.85938zm107.5 0c-1.58333 0-3.0625.28646-4.4375.85938-1.36459.57292-2.61459 1.42708-3.75 2.5625-1.13542 1.13542-1.98437 2.38542-2.54687 3.75-.5625 1.36458-.84375 2.84896-.84375 4.45312 0 1.58334.28125 3.0573.84375 4.42188.5625 1.35416 1.41145 2.59895 2.54687 3.73437 1.13541 1.13542 2.38541 1.98958 3.75 2.5625 1.375.57292 2.85417.85938 4.4375.85938 1.58333 0 3.0573-.28646 4.42188-.85938 1.375-.57292 2.6302-1.42708 3.76562-2.5625 1.13541-1.13542 1.98438-2.38021 2.54688-3.73437.5625-1.36458.84375-2.83854.84375-4.42188 0-1.60416-.28125-3.08854-.84375-4.45312-.5625-1.36458-1.41147-2.61458-2.54688-3.75-1.13542-1.13542-2.39062-1.98958-3.76562-2.5625-1.36458-.57292-2.83855-.85938-4.42188-.85938zm73.40625.73438v4.96875h-2.10937v2.23437h2.10937v9.5c0 2.1875.42188 3.69792 1.26563 4.53125.84375.82292 2.375 1.23438 4.59375 1.23438h2.95312v-2.40625h-2.95312c-1.19792 0-1.9948-.20313-2.39063-.60938-.38542-.40625-.57812-1.32292-.57812-2.75v-9.5h5.92187v-2.23437h-5.92187v-4.96875zm-180.90625.875c1.375 0 2.65104.24479 3.82813.73437 1.1875.48958 2.27083 1.22396 3.25 2.20313.95833.96875 1.68229 2.04687 2.17187 3.23437.48958 1.17708.73438 2.45833.73438 3.84375 0 1.36458-.2448 2.63542-.73438 3.8125-.47917 1.17708-1.20312 2.25-2.17187 3.21875-.97917.97917-2.0625 1.71875-3.25 2.21875-1.17709.48958-2.45313.73438-3.82813.73438-1.36458 0-2.63542-.2448-3.8125-.73438-1.17708-.5-2.2552-1.23958-3.23437-2.21875-.97917-.97916-1.71875-2.05729-2.21875-3.23437-.5-1.1875-.75-2.45313-.75-3.79688 0-1.35416.25-2.625.75-3.8125.5-1.19792 1.23958-2.28646 2.21875-3.26562.97916-.97917 2.05729-1.71355 3.23437-2.20313 1.17708-.48958 2.44792-.73437 3.8125-.73437zm107.5 0c1.375 0 2.65105.24479 3.82813.73437 1.1875.48958 2.27083 1.22396 3.25 2.20313.95833.96875 1.68228 2.04687 2.17187 3.23437.48958 1.17708.73438 2.45833.73438 3.84375 0 1.36458-.2448 2.63542-.73438 3.8125-.47917 1.17708-1.20312 2.25-2.17187 3.21875-.97917.97917-2.0625 1.71875-3.25 2.21875-1.17708.48958-2.45313.73438-3.82813.73438-1.36459 0-2.63542-.2448-3.8125-.73438-1.17709-.5-2.25521-1.23958-3.23437-2.21875-.97917-.97916-1.71875-2.05729-2.21875-3.23437-.5-1.1875-.75-2.45313-.75-3.79688 0-1.35416.25-2.625.75-3.8125.5-1.19792 1.23958-2.28646 2.21875-3.26562.97916-.97917 2.05728-1.71355 3.23437-2.20313 1.17708-.48958 2.44791-.73437 3.8125-.73437zm-166.76562.85937h4.67187c1.54167 0 2.6875.29167 3.4375.875.76042.58334 1.14063 1.46355 1.14063 2.64063 0 1.1875-.38021 2.07291-1.14063 2.65625-.75.57292-1.89583.85937-3.4375.85937h-4.67187zm91.75 0h3.8125c3.21875 0 5.57292.72917 7.0625 2.1875 1.5 1.44792 2.25 3.73438 2.25 6.85938 0 3.14583-.75 5.44791-2.25 6.90625-1.48958 1.45833-3.84375 2.1875-7.0625 2.1875h-3.8125zm107.5 0h3.8125c3.21875 0 5.57292.72917 7.0625 2.1875 1.5 1.44792 2.25 3.73438 2.25 6.85938 0 3.14583-.75 5.44791-2.25 6.90625-1.48958 1.45833-3.84375 2.1875-7.0625 2.1875h-3.8125zm162.9375 0h3.96875c1.46875 0 2.60417.38021 3.40625 1.14063.80208.76042 1.20312 1.83854 1.20312 3.23437 0 1.40625-.40104 2.48958-1.20312 3.25-.80208.76042-1.9375 1.14063-3.40625 1.14063h-3.96875zm-307.6875 2.39063v13.0625h2.42187v-5.5625h1.03125c.5625 0 1.03125.13541 1.40625.40625.38542.26042.88542.89062 1.5 1.89062l2.01563 3.26563h2.6875l-2.14063-3.48438c-.47917-.76042-.89583-1.33854-1.25-1.73437-.34375-.40625-.64062-.65104-.89062-.73438 1-.17708 1.77083-.55729 2.3125-1.14062.55208-.58334.82812-1.32292.82812-2.21875 0-1.26042-.45312-2.19792-1.35937-2.8125-.90625-.625-2.27605-.9375-4.10938-.9375zm107.5 0v13.0625h2.42187v-5.5625h1.03125c.5625 0 1.03125.13541 1.40625.40625.38541.26042.88541.89062 1.5 1.89062l2.01563 3.26563h2.6875l-2.14063-3.48438c-.47917-.76042-.89583-1.33854-1.25-1.73437-.34375-.40625-.64062-.65104-.89062-.73438 1-.17708 1.77083-.55729 2.3125-1.14062.55208-.58334.82812-1.32292.82812-2.21875 0-1.26042-.45312-2.19792-1.35937-2.8125-.90625-.625-2.27605-.9375-4.10938-.9375zm64.73437.42187c-.9375 0-1.90104.10417-2.89062.3125-.98958.19792-2.01042.5-3.0625.90625v2.65625c.875-.47916 1.78645-.83854 2.73437-1.07812.94791-.23958 1.92188-.35938 2.92188-.35938 1.57292 0 2.79167.36459 3.65625 1.09375.875.71875 1.3125 1.73958 1.3125 3.0625v.28125h-4.03125c-2.61458 0-4.58333.5-5.90625 1.5-1.3125 1-1.96875 2.48438-1.96875 4.45313 0 1.6875.52603 3.03645 1.57812 4.04687 1.0625 1 2.48958 1.5 4.28125 1.5 1.41667 0 2.61458-.25 3.59375-.75.97917-.51042 1.79688-1.29687 2.45313-2.35937v2.65625h2.875v-9.98438c0-2.66666-.625-4.65625-1.875-5.96875s-3.14063-1.96875-5.67188-1.96875zm32.1875 0c-.9375 0-1.90104.10417-2.89062.3125-.98958.19792-2.01042.5-3.0625.90625v2.65625c.875-.47916 1.78645-.83854 2.73437-1.07812.94791-.23958 1.92188-.35938 2.92188-.35938 1.57292 0 2.79167.36459 3.65625 1.09375.875.71875 1.3125 1.73958 1.3125 3.0625v.28125h-4.03125c-2.61458 0-4.58333.5-5.90625 1.5-1.3125 1-1.96875 2.48438-1.96875 4.45313 0 1.6875.52603 3.03645 1.57812 4.04687 1.0625 1 2.48958 1.5 4.28125 1.5 1.41667 0 2.61458-.25 3.59375-.75.97917-.51042 1.79688-1.29687 2.45313-2.35937v2.65625h2.875v-9.98438c0-2.66666-.625-4.65625-1.875-5.96875s-3.14063-1.96875-5.67188-1.96875zm39.9375 0c-.9375 0-1.90104.10417-2.89062.3125-.98958.19792-2.01042.5-3.0625.90625v2.65625c.875-.47916 1.78645-.83854 2.73437-1.07812.94791-.23958 1.92188-.35938 2.92188-.35938 1.57292 0 2.79167.36459 3.65625 1.09375.875.71875 1.3125 1.73958 1.3125 3.0625v.28125h-4.03125c-2.61458 0-4.58333.5-5.90625 1.5-1.3125 1-1.96875 2.48438-1.96875 4.45313 0 1.6875.52603 3.03645 1.57812 4.04687 1.0625 1 2.48958 1.5 4.28125 1.5 1.41667 0 2.61458-.25 3.59375-.75.97917-.51042 1.79688-1.29687 2.45313-2.35937v2.65625h2.875v-9.98438c0-2.66666-.625-4.65625-1.875-5.96875s-3.14063-1.96875-5.67188-1.96875zm19.04688 0c-2.14584 0-3.80209.44792-4.96875 1.34375-1.16667.89584-1.75 2.16667-1.75 3.8125 0 1.35417.39583 2.42188 1.1875 3.20313.79166.77083 2.07812 1.34375 3.85937 1.71875l1 .23437c1.78125.38542 2.93229.78646 3.45313 1.20313.53125.41666.79687 1.01562.79687 1.79687 0 .84375-.36458 1.5-1.09375 1.96875-.72917.45834-1.77083.6875-3.125.6875-1.01042 0-2.03125-.13541-3.0625-.40625-1.03125-.28125-2.07812-.69792-3.14062-1.25v2.96875c1.125.36458 2.1927.63542 3.20312.8125 1.02083.1875 2 .28125 2.9375.28125 2.25 0 4.01563-.47395 5.29688-1.42187 1.29166-.94792 1.9375-2.23438 1.9375-3.85938 0-1.42708-.4323-2.53646-1.29688-3.32812-.85417-.80208-2.30208-1.42188-4.34375-1.85938l-.98437-.21875c-1.54167-.34375-2.56772-.70312-3.07813-1.07812-.51042-.38542-.76562-.91146-.76562-1.57813 0-.875.35416-1.53125 1.0625-1.96875.71875-.4375 1.79167-.65625 3.21875-.65625.9375 0 1.84375.10417 2.71875.3125.875.20834 1.71875.52084 2.53125.9375v-2.71875c-.79167-.3125-1.65625-.54687-2.59375-.70312s-1.9375-.23438-3-.23438zm18.45312 0c-2.625 0-4.71354.84375-6.26562 2.53125-1.54167 1.67708-2.3125 3.94792-2.3125 6.8125 0 2.77084.8125 4.96875 2.4375 6.59375 1.63542 1.625 3.84895 2.4375 6.64062 2.4375 1.11458 0 2.21354-.11458 3.29688-.34375 1.08333-.22916 2.14062-.5625 3.17187-1v-2.71875c-1.02083.54167-2.05208.94792-3.09375 1.21875-1.03125.27084-2.09896.40625-3.20312.40625-1.90625 0-3.39583-.51562-4.46875-1.54687-1.0625-1.04167-1.65625-2.55209-1.78125-4.53125h13.21875v-1.40625c0-2.60417-.6875-4.66146-2.0625-6.17188-1.36458-1.52083-3.22396-2.28125-5.57813-2.28125zm76.95313 0c-2.14584 0-3.875.81771-5.1875 2.45313-1.3125 1.63542-1.96875 3.80729-1.96875 6.51562 0 2.69792.65625 4.86458 1.96875 6.5 1.3125 1.63542 3.04166 2.45313 5.1875 2.45313 1.29166 0 2.40103-.25521 3.32812-.76563.92708-.51042 1.6875-1.28125 2.28125-2.3125v1.42188c0 1.98958-.46875 3.47396-1.40625 4.45312-.9375.98958-2.34895 1.48438-4.23437 1.48438-.85417 0-1.69272-.10938-2.51563-.32813-.82292-.21875-1.65625-.55729-2.5-1.01562v2.79687c.84375.3125 1.71354.54167 2.60938.6875.89583.15625 1.84895.23438 2.85937.23438 2.72917 0 4.75521-.72917 6.07813-2.1875 1.32292-1.44792 1.98437-3.66146 1.98437-6.64063v-15.32812h-2.875v2.65625c-.59375-1.03125-1.35417-1.80208-2.28125-2.3125-.92709-.51042-2.03646-.76563-3.32812-.76563zm43.28125 0c-1.21875 0-2.29688.26042-3.23438.78125-.92709.52084-1.73437 1.3073-2.42187 2.35938v-2.71875h-2.89063v17.5h2.89063v-9.89063c0-1.70833.44791-3.05729 1.34375-4.04687.89583-.98958 2.11978-1.48438 3.67187-1.48438 1.29167 0 2.26042.41146 2.90625 1.23438.64583.82292.96875 2.0625.96875 3.71875v10.46875h2.875v-10.5625c0-2.41667-.51562-4.2448-1.54687-5.48438-1.03125-1.25-2.55208-1.875-4.5625-1.875zm40.09375 0c-2.51042 0-4.47917.8125-5.90625 2.4375-1.41667 1.625-2.125 3.875-2.125 6.75 0 2.86458.70833 5.11458 2.125 6.75 1.42708 1.625 3.39583 2.4375 5.90625 2.4375 2.5 0 4.46353-.8125 5.89062-2.4375 1.42708-1.63542 2.14063-3.88542 2.14063-6.75 0-2.875-.71355-5.125-2.14063-6.75-1.42709-1.625-3.39062-2.4375-5.89062-2.4375zm21.45312 0c-1.38542 0-2.5625.26042-3.53125.78125-.96875.51042-1.75521 1.29688-2.35937 2.35938v-2.71875h-2.89063v17.5h2.89063v-9.21875c0-1.97917.43228-3.4948 1.29687-4.54688.875-1.0625 2.125-1.59375 3.75-1.59375.45833 0 .875.0469 1.25.14063.38541.0833.73958.21875 1.0625.40625l-.0156-2.95313c-.29167-.0521-.5573-.0886-.79688-.10937-.23959-.0313-.45834-.0469-.65625-.0469zm43.42188 0c-2.51042 0-4.47917.8125-5.90625 2.4375-1.41667 1.625-2.125 3.875-2.125 6.75 0 2.86458.70833 5.11458 2.125 6.75 1.42708 1.625 3.39583 2.4375 5.90625 2.4375 2.5 0 4.46353-.8125 5.89062-2.4375 1.42708-1.63542 2.14063-3.88542 2.14063-6.75 0-2.875-.71355-5.125-2.14063-6.75-1.42709-1.625-3.39062-2.4375-5.89062-2.4375zm46.29687 0c-2.625 0-4.71354.84375-6.26562 2.53125-1.54167 1.67708-2.3125 3.94792-2.3125 6.8125 0 2.77084.8125 4.96875 2.4375 6.59375 1.63542 1.625 3.84895 2.4375 6.64062 2.4375 1.11458 0 2.21354-.11458 3.29688-.34375 1.08333-.22916 2.14062-.5625 3.17187-1v-2.71875c-1.02083.54167-2.05208.94792-3.09375 1.21875-1.03125.27084-2.09896.40625-3.20312.40625-1.90625 0-3.39583-.51562-4.46875-1.54687-1.0625-1.04167-1.65625-2.55209-1.78125-4.53125h13.21875v-1.40625c0-2.60417-.6875-4.66146-2.0625-6.17188-1.36458-1.52083-3.22396-2.28125-5.57813-2.28125zm-221.0625.42188v10.59375c0 2.40625.52083 4.23437 1.5625 5.48437 1.04167 1.25 2.56771 1.875 4.57813 1.875 1.21875 0 2.28645-.2552 3.20312-.76562.92708-.52084 1.73958-1.3125 2.4375-2.375v2.6875h2.875v-17.5h-2.875v9.92187c0 1.70834-.45312 3.0573-1.35937 4.04688-.89584.98958-2.1198 1.48437-3.67188 1.48437-1.29167 0-2.26042-.41145-2.90625-1.23437-.64583-.83334-.96875-2.07813-.96875-3.73438v-10.48437zm52.48438 0v17.5h2.875v-17.5zm133.39062 0l4.57813 17.5h3.39062l3.78125-14.34375 3.76563 14.34375h3.39062l4.57813-17.5h-2.875l-3.57813 13.65625-3.59375-13.65625h-3.39062l-3.57813 13.65625-3.59375-13.65625zm-515.75.76562h1.92188c1.13541 0 1.93229.16667 2.39062.5.45833.32292.6875.88021.6875 1.67188 0 .78125-.22917 1.33333-.6875 1.65625-.44792.32292-1.2448.48437-2.39062.48437h-1.92188zm107.5 0h1.92188c1.13542 0 1.93229.16667 2.39062.5.45833.32292.6875.88021.6875 1.67188 0 .78125-.22917 1.33333-.6875 1.65625-.44792.32292-1.24479.48437-2.39062.48437h-1.92188zm-43.65625 1.21875c1.52083 0 2.71355.60417 3.57813 1.8125.875 1.19792 1.3125 2.85417 1.3125 4.96875s-.4375 3.77604-1.3125 4.98438c-.86458 1.19792-2.0573 1.79687-3.57813 1.79687-1.52083 0-2.71875-.59895-3.59375-1.79687-.86459-1.20834-1.29687-2.8698-1.29687-4.98438 0-2.11458.43228-3.77083 1.29687-4.96875.875-1.20833 2.07292-1.8125 3.59375-1.8125zm159.3125 0c1.52083 0 2.71355.60417 3.57813 1.8125.875 1.19792 1.3125 2.85417 1.3125 4.96875s-.4375 3.77604-1.3125 4.98438c-.86458 1.19792-2.0573 1.79687-3.57813 1.79687-1.52083 0-2.71875-.59895-3.59375-1.79687-.86459-1.20834-1.29687-2.8698-1.29687-4.98438 0-2.11458.43228-3.77083 1.29687-4.96875.875-1.20833 2.07292-1.8125 3.59375-1.8125zm133.9375 0c1.55208 0 2.75521.57292 3.60938 1.71875.86458 1.14584 1.29687 2.76042 1.29687 4.84375 0 2.07292-.43229 3.68229-1.29687 4.82813-.85417 1.14583-2.0573 1.71875-3.60938 1.71875-1.54167 0-2.74479-.57292-3.60937-1.71875-.85417-1.14584-1.28125-2.75521-1.28125-4.82813 0-2.08333.42708-3.69791 1.28125-4.84375.86458-1.14583 2.0677-1.71875 3.60937-1.71875zm-77.625.0312c1.41667 0 2.55208.46875 3.40625 1.40625.86461.9375 1.30733 2.19271 1.32813 3.76563l-10.25.0156c.14583-1.64583.69791-2.92187 1.65625-3.82812.96875-.90625 2.2552-1.35938 3.85937-1.35938zm160.29688 0c1.53125 0 2.74479.60938 3.64062 1.82813.89583 1.20833 1.34375 2.84895 1.34375 4.92187 0 2.08334-.44792 3.72917-1.34375 4.9375-.89583 1.20834-2.10937 1.8125-3.64062 1.8125-1.55208 0-2.77605-.59895-3.67188-1.79687-.88542-1.20834-1.32812-2.85938-1.32812-4.95313s.44791-3.73958 1.34375-4.9375c.89583-1.20833 2.11458-1.8125 3.65625-1.8125zm64.875 0c1.53125 0 2.74479.60938 3.64062 1.82813.89583 1.20833 1.34375 2.84895 1.34375 4.92187 0 2.08334-.44792 3.72917-1.34375 4.9375-.89583 1.20834-2.10937 1.8125-3.64062 1.8125-1.55208 0-2.77605-.59895-3.67188-1.79687-.88542-1.20834-1.32812-2.85938-1.32812-4.95313s.44791-3.73958 1.34375-4.9375c.89583-1.20833 2.11458-1.8125 3.65625-1.8125zm46.32812 0c1.41667 0 2.55208.46875 3.40625 1.40625.86461.9375 1.30733 2.19271 1.32813 3.76563l-10.25.0156c.14583-1.64583.69791-2.92187 1.65625-3.82812.96875-.90625 2.2552-1.35938 3.85937-1.35938zm-607.89062 4.34375h5.0625c1.69791 0 2.95312.34896 3.76562 1.04688.82292.6875 1.23438 1.76041 1.23438 3.21875 0 1.44792-.41146 2.52604-1.23438 3.23437-.8125.69792-2.0677 1.04688-3.76562 1.04688h-5.0625zm426.26562 1.09375v2.5625h8.42188v-2.5625zm-197.71875 1.25h2.85938v.64063c0 1.875-.48438 3.3802-1.45313 4.51562-.95833 1.125-2.23437 1.6875-3.82812 1.6875-1.15625 0-2.07292-.29687-2.75-.89062-.66667-.60417-1-1.41667-1-2.4375 0-1.28125.44791-2.1875 1.34375-2.71875.89583-.53125 2.5052-.79688 4.82812-.79688zm32.1875 0h2.85938v.64063c0 1.875-.48438 3.3802-1.45313 4.51562-.95833 1.125-2.23437 1.6875-3.82812 1.6875-1.15625 0-2.07292-.29687-2.75-.89062-.66667-.60417-1-1.41667-1-2.4375 0-1.28125.44791-2.1875 1.34375-2.71875.89583-.53125 2.5052-.79688 4.82812-.79688zm39.9375 0h2.85938v.64063c0 1.875-.48438 3.3802-1.45313 4.51562-.95833 1.125-2.23437 1.6875-3.82812 1.6875-1.15625 0-2.07292-.29687-2.75-.89062-.66667-.60417-1-1.41667-1-2.4375 0-1.28125.44791-2.1875 1.34375-2.71875.89583-.53125 2.5052-.79688 4.82812-.79688z"/></g></svg>