<svg xmlns="http://www.w3.org/2000/svg" role="img" viewBox="-7.97 34.03 414.18 218.18"><title>IBM® Remote System Explorer API (API Mediation Layer ZOWE V1) logo</title><style>svg {enable-background:new 0 0 400 245}</style><style id="style2" type="text/css">.st0{fill:#4c83c3}</style><g id="g130"><path id="polygon4" fill="#4c83c3" d="m 336.1,42.1 h 62.2 V 53.5 H 332 Z" class="st0"/><path id="path6" d="m 221.5,42.1 h 61.6 l 4,11.5 c 0,0 -65.6,0 -65.6,0 0.1,-0.1 0,-11.5 0,-11.5 z" class="st0"/><path id="path8" d="m 172.7,42.1 c 10.1,1 19,4.6 26.5,11.5 0,0 -111.6,0 -111.6,0 0,0 0,-11.5 0,-11.5 z" class="st0"/><g id="g14"><path id="rect10" fill="#4c83c3" d="m 0,42.099998 h 77.5 v 11.4 H 0 Z" class="st0"/></g><path id="path16" d="m 398.3,75 h -73.9 c 0,0 4,-11.4 4,-11.4 h 69.9 z" class="st0"/><path id="polygon18" fill="#4c83c3" d="m 221.5,63.6 h 69.2 l 4.1,11.4 h -73.3 z" class="st0"/><path id="path20" d="m 207.8,63.6 c 1.5,3.8 3.2,7 3.2,11.4 H 87.6 V 63.6 Z" class="st0"/><g id="g26"><path id="rect22" fill="#4c83c3" d="m 0,63.599998 h 77.5 v 11.4 H 0 Z" class="st0"/></g><path id="polygon28" fill="#4c83c3" d="m 376.4,85.1 v 11.4 h -59.6 l 4.1,-11.4 z" class="st0"/><path id="polygon30" fill="#4c83c3" d="M 243.4,96.5 V 85.1 h 54.9 l 4.1,11.4 z" class="st0"/><path id="path32" d="m 212,85 c 0,3.9 -0.5,8 -1.6,11.4 H 176.6 V 85 Z" class="st0"/><g id="g38"><path id="rect34" fill="#4c83c3" d="m 21.6,85.099998 h 33.3 v 11.4 H 21.6 Z" class="st0"/></g><g id="g44"><path id="rect40" fill="#4c83c3" d="m 110,85 h 33.3 V 96.4 H 110 Z" class="st0"/></g><path id="path46" d="m 276.1,108.8 c 0,0 0,8.7 0,8.7 h -32.8 v -11.4 h 62.4 l 3.9,10.6 c 0,0 3.7,-10.6 3.7,-10.6 h 62.9 v 11.4 h -32.6 c 0,0 0,-8.7 0,-8.7 l -3,8.7 H 279 Z" class="st0"/><path id="path48" d="m 110,106.1 h 95.5 v 0 c -2.1,3.8 -5.9,8.4 -9.5,11.4 0,0 -86,0 -86,0 0,0 0,-11.4 0,-11.4 z" class="st0"/><g id="g54"><path id="rect50" fill="#4c83c3" d="m 21.6,106.1 h 33.3 v 11.4 H 21.6 Z" class="st0"/></g><g id="g60"><path id="rect56" fill="#4c83c3" d="m 343.79999,127.6 h 32.6 V 139 h -32.6 z" class="st0"/></g><path id="path62" d="M 276.1,127.6 H 243.3 V 139 c 0,0 32.8,0 32.8,0 0,-0.1 0.1,-11.4 0,-11.4 z" class="st0"/><path id="path64" d="m 337.2,127.6 c -0.1,0 -3.8,11.4 -4,11.4 h -46.4 c 0,0 -4.1,-11.4 -4.1,-11.4 z" class="st0"/><path id="path66" d="m 110,127.6 h 85.8 c 3.9,3.3 7.5,7.3 10.2,11.4 0.2,0 -96.1,0 -96.1,0 0.1,-0.1 0.1,-11.4 0.1,-11.4 z" class="st0"/><path id="path68" d="M 54.9,138.9 V 127.5 H 21.7 c 0,0 0,11.4 0,11.4 0,0 33.2,0 33.2,0 z" class="st0"/><g id="g74"><path id="rect70" fill="#4c83c3" d="m 343.79999,149 h 32.6 v 11.4 h -32.6 z" class="st0"/></g><g id="g80"><path id="rect76" fill="#4c83c3" d="m 243.39999,149 h 32.8 v 11.4 h -32.8 z" class="st0"/></g><path id="path82" d="m 325.6,160.4 c 0,-0.1 4,-11.4 4.1,-11.4 h -39.5 c -0.1,0 4,11.4 4,11.4 0,0 31.4,0.1 31.4,0 z" class="st0"/><path id="path84" d="m 110,160.4 c 0,0 0,-11.4 0,-11.4 h 33.8 c 0,0 0,11.4 0,11.4 -0.1,0 -33.8,0 -33.8,0 z" class="st0"/><path id="path86" d="m 210.8,149 c 1.6,3.4 1.8,7.5 2.1,11.4 H 177.1 V 149 Z" class="st0"/><g id="g92"><path id="rect88" fill="#4c83c3" d="M 21.700001,149 H 55 v 11.4 H 21.700001 Z" class="st0"/></g><g id="g98"><path id="rect94" fill="#4c83c3" d="m 343.79999,170 h 54.5 v 11.4 h -54.5 z" class="st0"/></g><g id="g104"><path id="rect100" fill="#4c83c3" d="m 221.5,170 h 54.6 v 11.4 h -54.6 z" class="st0"/></g><path id="polygon106" fill="#4c83c3" d="m 297.6,170 h 24.5 l -3.9,11.4 h -16.6 z" class="st0"/><path id="path108" d="m 0,170 v 11.4 h 77.5 c 0,0 0,-11.4 0,-11.4 0,0 -77.6,0 -77.5,0 z" class="st0"/><path id="path110" d="m 211.5,170 c -0.8,3.8 -1.6,8.3 -4.3,11.4 h -1 H 87.6 V 170 Z" class="st0"/><path id="polygon112" fill="#4c83c3" d="m 305.3,191.5 h 9.4 l -4,11.4 h -1.5 z" class="st0"/><g id="g118"><path id="rect114" fill="#4c83c3" d="m 343.79999,191.5 h 54.5 v 11.4 h -54.5 z" class="st0"/></g><path id="path120" d="m 87.6,202.9 v -11.4 c 0,0 111.9,0 112.2,0 -7.5,7.2 -17.8,11.2 -28.9,11.4 H 87.6" class="st0"/><g id="g126"><path id="rect122" fill="#4c83c3" d="m 221.5,191.5 h 54.6 v 11.4 h -54.6 z" class="st0"/></g><path id="path128" d="m 77.5,191.5 c 0,0 0,11.4 0,11.4 0,0 -77.4,0 -77.5,0 0,0 0,-11.4 0,-11.4 0,0 77.4,0.1 77.5,0 z" class="st0"/></g><g id="text132" text-anchor="middle"><path id="path160" d="M 11.227539,240 H 4.9111328 v -1.63281 H 7.0058594 V 225.6377 H 4.9111328 v -1.63282 h 6.3164062 v 1.63282 H 9.1328125 v 12.72949 h 2.0947265 z"/><path id="path162" d="m 26.932617,235.08008 q 0,1.19238 -0.451172,2.10547 -0.451172,0.91308 -1.213867,1.5039 -0.902344,0.70899 -1.987305,1.00977 Q 22.206055,240 20.541016,240 h -5.671875 v -15.99512 h 4.737304 q 1.750977,0 2.621094,0.12891 0.870117,0.12891 1.665039,0.53711 0.880859,0.46191 1.27832,1.19238 0.397461,0.71973 0.397461,1.72949 0,1.13868 -0.580078,1.94434 -0.580078,0.79492 -1.546875,1.27832 v 0.0859 q 1.622071,0.333 2.556641,1.42871 0.93457,1.08496 0.93457,2.75 z m -3.577148,-7.20801 q 0,-0.58008 -0.19336,-0.97754 -0.193359,-0.39746 -0.623047,-0.64453 -0.504882,-0.29004 -1.224609,-0.35449 -0.719726,-0.0752 -1.783203,-0.0752 h -2.535156 v 4.61914 h 2.75 q 0.999023,0 1.589843,-0.0967 0.590821,-0.10742 1.095704,-0.42968 0.504882,-0.32227 0.708984,-0.82715 0.214844,-0.51563 0.214844,-1.21387 z m 1.364258,7.29395 q 0,-0.9668 -0.29004,-1.53614 -0.290039,-0.56933 -1.052734,-0.96679 -0.515625,-0.26856 -1.256836,-0.34375 -0.730469,-0.0859 -1.783203,-0.0859 h -3.34082 v 5.95117 h 2.814453 q 1.396484,0 2.288086,-0.13965 0.891601,-0.15039 1.460937,-0.53711 0.601563,-0.41894 0.88086,-0.95605 0.279297,-0.53711 0.279297,-1.38574 z"/><path id="path164" d="m 44.195312,240 h -2.126953 v -13.78223 l -4.447265,9.37793 h -1.267578 l -4.415039,-9.37793 V 240 h -1.987305 v -15.99512 h 2.90039 l 4.264649,8.90528 4.125,-8.90528 h 2.954101 z"/><path id="path166" d="m 66.657227,232.96387 q 0,3.8457 -2.728516,6.57422 -2.717774,2.71777 -6.563477,2.71777 -3.845703,0 -6.574218,-2.71777 -2.717774,-2.72852 -2.717774,-6.57422 0,-3.84571 2.717774,-6.56348 2.728515,-2.72852 6.574218,-2.72852 3.845703,0 6.563477,2.72852 2.728516,2.71777 2.728516,6.56348 z m -1.246094,0 q 0,-3.33008 -2.363281,-5.71485 -2.35254,-2.38476 -5.682618,-2.38476 -3.330078,0 -5.693359,2.38476 -2.352539,2.38477 -2.352539,5.71485 0,3.33008 2.352539,5.71484 2.363281,2.38477 5.693359,2.38477 3.330078,0 5.682618,-2.38477 2.363281,-2.38476 2.363281,-5.71484 z m -2.0625,4.72656 h -2.395508 l -3.555664,-3.81348 h -1.740234 v 3.81348 h -1.772461 v -9.8291 h 3.351562 q 1.009766,0 1.665039,0.0859 0.655274,0.0859 1.289063,0.41894 0.676757,0.36524 0.988281,0.8916 0.322266,0.51563 0.322266,1.29981 0,1.04199 -0.612305,1.74023 -0.601563,0.6875 -1.665039,1.0957 z m -3.78125,-7.01465 q 0,-0.38672 -0.150391,-0.6875 -0.15039,-0.30078 -0.504883,-0.49414 -0.333007,-0.18262 -0.708984,-0.23633 -0.375977,-0.0537 -0.945313,-0.0537 h -1.600585 v 3.31934 h 1.364257 q 0.666016,0 1.149414,-0.0967 0.483399,-0.10742 0.794922,-0.35449 0.333008,-0.26856 0.461914,-0.59082 0.139649,-0.32227 0.139649,-0.80567 z"/><path id="path168" d="M 91.482422,240 H 88.72168 l -5.34961,-6.35938 H 80.375 V 240 h -2.126953 v -15.99512 h 4.479492 q 1.450195,0 2.416992,0.19336 0.966797,0.18262 1.740235,0.66602 0.870117,0.54785 1.353515,1.38574 0.494141,0.82715 0.494141,2.10547 0,1.72949 -0.870117,2.90039 -0.870118,1.16016 -2.395508,1.75098 z m -4.973633,-11.49414 q 0,-0.6875 -0.24707,-1.21387 -0.236328,-0.53711 -0.794922,-0.90234 -0.461914,-0.31153 -1.095703,-0.42969 -0.633789,-0.12891 -1.493164,-0.12891 H 80.375 v 6.03711 h 2.148437 q 1.009766,0 1.761719,-0.17187 0.751953,-0.18262 1.278321,-0.66602 0.483398,-0.45117 0.708984,-1.03125 0.236328,-0.59082 0.236328,-1.49316 z"/><path id="path170" d="m 103.42773,234.20996 h -8.840816 q 0,1.10645 0.333008,1.93359 0.333008,0.81641 0.913086,1.34278 0.558594,0.51562 1.321289,0.77344 0.773437,0.25781 1.697265,0.25781 1.224608,0 2.459958,-0.4834 1.2461,-0.49414 1.77246,-0.9668 h 0.10743 v 2.20215 q -1.02051,0.42969 -2.08399,0.71973 -1.06347,0.29004 -2.234373,0.29004 -2.986328,0 -4.66211,-1.61133 -1.675781,-1.62207 -1.675781,-4.59766 0,-2.94336 1.600586,-4.67285 1.611328,-1.72949 4.232422,-1.72949 2.427736,0 3.738286,1.41797 1.32128,1.41797 1.32128,4.02832 z m -1.96582,-1.54687 q -0.0107,-1.58985 -0.80566,-2.45997 -0.78418,-0.87011 -2.395508,-0.87011 -1.62207,0 -2.588867,0.95605 -0.956055,0.95606 -1.084961,2.37403 z"/><path id="path172" d="m 123.99902,240 h -2.01953 v -6.83203 q 0,-0.77344 -0.0752,-1.49317 -0.0645,-0.71972 -0.29004,-1.14941 -0.24707,-0.46191 -0.70899,-0.69824 -0.46191,-0.23633 -1.33203,-0.23633 -0.84863,0 -1.69726,0.42969 -0.84864,0.41894 -1.69727,1.07422 0.0322,0.24707 0.0537,0.58007 0.0215,0.32227 0.0215,0.64454 V 240 h -2.01953 v -6.83203 q 0,-0.79492 -0.0752,-1.50391 -0.0645,-0.71972 -0.29004,-1.14941 -0.24707,-0.46192 -0.70898,-0.6875 -0.46192,-0.23633 -1.33203,-0.23633 -0.82715,0 -1.66504,0.4082 -0.82715,0.40821 -1.6543,1.042 V 240 h -2.01953 v -11.99902 h 2.01953 v 1.33203 q 0.94531,-0.78418 1.87988,-1.22461 0.94531,-0.44043 2.00879,-0.44043 1.22461,0 2.07324,0.51562 0.85938,0.51563 1.27832,1.42871 1.22461,-1.03125 2.23438,-1.48242 1.00976,-0.46191 2.15918,-0.46191 1.97656,0 2.91113,1.20312 0.94531,1.19239 0.94531,3.34082 z"/><path id="path174" d="m 138.11426,234.00586 q 0,2.93262 -1.50391,4.62988 -1.5039,1.69727 -4.02832,1.69727 -2.5459,0 -4.0498,-1.69727 -1.49317,-1.69726 -1.49317,-4.62988 0,-2.93262 1.49317,-4.62988 1.5039,-1.70801 4.0498,-1.70801 2.52442,0 4.02832,1.70801 1.50391,1.69726 1.50391,4.62988 z m -2.08399,0 q 0,-2.33106 -0.91308,-3.45899 -0.91309,-1.13867 -2.53516,-1.13867 -1.64355,0 -2.55664,1.13867 -0.90234,1.12793 -0.90234,3.45899 0,2.25586 0.91308,3.42676 0.91309,1.16015 2.5459,1.16015 1.61133,0 2.52442,-1.14941 0.92382,-1.16016 0.92382,-3.4375 z"/><path id="path176" d="m 147.48145,239.89258 q -0.56934,0.15039 -1.2461,0.24707 -0.66601,0.0967 -1.19238,0.0967 -1.83692,0 -2.79297,-0.98828 -0.95605,-0.98828 -0.95605,-3.16895 v -6.38086 h -1.36426 v -1.69726 h 1.36426 v -3.44825 h 2.01953 v 3.44825 h 4.16797 v 1.69726 h -4.16797 v 5.46778 q 0,0.94531 0.043,1.48242 0.043,0.52636 0.30078,0.98828 0.23632,0.42969 0.64453,0.63379 0.41894,0.19336 1.26758,0.19336 0.49414,0 1.03125,-0.13965 0.53711,-0.15039 0.77343,-0.24707 h 0.10743 z"/><path id="path178" d="m 159.97461,234.20996 h -8.84082 q 0,1.10645 0.33301,1.93359 0.333,0.81641 0.91308,1.34278 0.5586,0.51562 1.32129,0.77344 0.77344,0.25781 1.69727,0.25781 1.22461,0 2.45996,-0.4834 1.24609,-0.49414 1.77246,-0.9668 h 0.10742 v 2.20215 q -1.02051,0.42969 -2.08398,0.71973 -1.06348,0.29004 -2.23438,0.29004 -2.98633,0 -4.66211,-1.61133 -1.67578,-1.62207 -1.67578,-4.59766 0,-2.94336 1.60059,-4.67285 1.61133,-1.72949 4.23242,-1.72949 2.42773,0 3.73828,1.41797 1.32129,1.41797 1.32129,4.02832 z m -1.96582,-1.54687 q -0.0107,-1.58985 -0.80567,-2.45997 -0.78417,-0.87011 -2.3955,-0.87011 -1.62207,0 -2.58887,0.95605 -0.95605,0.95606 -1.08496,2.37403 z"/><path id="path180" d="m 182.55469,235.43457 q 0,0.93457 -0.44043,1.84766 -0.42969,0.91308 -1.21387,1.54687 -0.85937,0.6875 -2.00879,1.07422 -1.13867,0.38672 -2.75,0.38672 -1.72949,0 -3.11523,-0.32227 -1.375,-0.32226 -2.80371,-0.95605 v -2.66406 h 0.15039 q 1.21386,1.00976 2.80371,1.55761 1.58984,0.54785 2.98633,0.54785 1.97656,0 3.07226,-0.74121 1.10645,-0.74121 1.10645,-1.97656 0,-1.06348 -0.52637,-1.56836 -0.51563,-0.50488 -1.5791,-0.78418 -0.80567,-0.21484 -1.75098,-0.35449 -0.93457,-0.13965 -1.9873,-0.35449 -2.12696,-0.45117 -3.15821,-1.53613 -1.0205,-1.09571 -1.0205,-2.84668 0,-2.00879 1.69726,-3.28711 1.69727,-1.28907 4.30762,-1.28907 1.68652,0 3.09375,0.32227 1.40723,0.32226 2.49219,0.79492 v 2.51367 h -0.15039 q -0.91309,-0.77343 -2.40625,-1.27832 -1.48243,-0.51562 -3.04004,-0.51562 -1.70801,0 -2.75,0.70898 -1.03125,0.70899 -1.03125,1.82617 0,0.99903 0.51562,1.56836 0.51563,0.56934 1.81543,0.87012 0.6875,0.15039 1.95508,0.36523 1.26758,0.21485 2.14844,0.44043 1.7832,0.47266 2.68554,1.42872 0.90235,0.95605 0.90235,2.6748 z"/><path id="path182" d="m 196.18652,228.00098 -7.0039,16.4248 h -2.15918 l 2.23437,-5.00586 -4.78027,-11.41894 h 2.19141 l 3.68457,8.89453 3.71679,-8.89453 z"/><path id="path184" d="m 207.40137,236.54102 q 0,1.64355 -1.36426,2.69628 -1.35352,1.05274 -3.70606,1.05274 -1.33203,0 -2.44921,-0.31152 -1.10645,-0.32227 -1.8584,-0.69825 v -2.2666 h 0.10742 q 0.95605,0.71973 2.12695,1.14942 1.1709,0.41894 2.24512,0.41894 1.33203,0 2.08398,-0.42969 0.75196,-0.42968 0.75196,-1.35351 0,-0.70899 -0.40821,-1.07422 -0.4082,-0.36524 -1.56836,-0.62305 -0.42968,-0.0967 -1.12793,-0.22558 -0.6875,-0.12891 -1.25683,-0.2793 -1.5791,-0.41895 -2.24512,-1.22461 -0.65527,-0.81641 -0.65527,-1.99805 0,-0.74121 0.30078,-1.39648 0.31152,-0.65527 0.93457,-1.1709 0.60156,-0.50488 1.52539,-0.79492 0.93457,-0.30078 2.08398,-0.30078 1.07422,0 2.16993,0.26855 1.10644,0.25781 1.83691,0.63379 v 2.15918 h -0.10742 q -0.77344,-0.56934 -1.87988,-0.95605 -1.10645,-0.39746 -2.16993,-0.39746 -1.10644,0 -1.86914,0.42968 -0.76269,0.41895 -0.76269,1.25684 0,0.74121 0.46191,1.11719 0.45117,0.37597 1.46094,0.6123 0.55859,0.12891 1.24609,0.25781 0.69825,0.12891 1.16016,0.23633 1.40723,0.32227 2.16992,1.10645 0.7627,0.79492 0.7627,2.10547 z"/><path id="path186" d="m 216.53223,239.89258 q -0.56934,0.15039 -1.2461,0.24707 -0.66601,0.0967 -1.19238,0.0967 -1.83691,0 -2.79297,-0.98828 -0.95605,-0.98828 -0.95605,-3.16895 v -6.38086 h -1.36426 v -1.69726 h 1.36426 v -3.44825 h 2.01953 v 3.44825 h 4.16797 v 1.69726 h -4.16797 v 5.46778 q 0,0.94531 0.043,1.48242 0.043,0.52636 0.30078,0.98828 0.23633,0.42969 0.64453,0.63379 0.41894,0.19336 1.26758,0.19336 0.49414,0 1.03125,-0.13965 0.53711,-0.15039 0.77343,-0.24707 h 0.10743 z"/><path id="path188" d="m 229.02539,234.20996 h -8.84082 q 0,1.10645 0.33301,1.93359 0.33301,0.81641 0.91308,1.34278 0.5586,0.51562 1.32129,0.77344 0.77344,0.25781 1.69727,0.25781 1.22461,0 2.45996,-0.4834 1.24609,-0.49414 1.77246,-0.9668 h 0.10742 v 2.20215 q -1.02051,0.42969 -2.08398,0.71973 -1.06348,0.29004 -2.23438,0.29004 -2.98633,0 -4.66211,-1.61133 -1.67578,-1.62207 -1.67578,-4.59766 0,-2.94336 1.60059,-4.67285 1.61133,-1.72949 4.23242,-1.72949 2.42773,0 3.73828,1.41797 1.32129,1.41797 1.32129,4.02832 z m -1.96582,-1.54687 q -0.0107,-1.58985 -0.80566,-2.45997 -0.78418,-0.87011 -2.39551,-0.87011 -1.62207,0 -2.58887,0.95605 -0.95605,0.95606 -1.08496,2.37403 z"/><path id="path190" d="m 249.59668,240 h -2.01953 v -6.83203 q 0,-0.77344 -0.0752,-1.49317 -0.0644,-0.71972 -0.29004,-1.14941 -0.24707,-0.46191 -0.70898,-0.69824 -0.46191,-0.23633 -1.33203,-0.23633 -0.84863,0 -1.69727,0.42969 -0.84863,0.41894 -1.69726,1.07422 0.0322,0.24707 0.0537,0.58007 0.0215,0.32227 0.0215,0.64454 V 240 h -2.01953 v -6.83203 q 0,-0.79492 -0.0752,-1.50391 -0.0645,-0.71972 -0.29004,-1.14941 -0.24707,-0.46192 -0.70899,-0.6875 -0.46191,-0.23633 -1.33203,-0.23633 -0.82715,0 -1.66504,0.4082 -0.82715,0.40821 -1.65429,1.042 V 240 h -2.01954 v -11.99902 h 2.01954 v 1.33203 q 0.94531,-0.78418 1.87988,-1.22461 0.94531,-0.44043 2.00879,-0.44043 1.22461,0 2.07324,0.51562 0.85937,0.51563 1.27832,1.42871 1.22461,-1.03125 2.23437,-1.48242 1.00977,-0.46191 2.15918,-0.46191 1.97657,0 2.91114,1.20312 0.94531,1.19239 0.94531,3.34082 z"/><path id="path192" d="m 271.91895,240 h -10.53809 v -15.99512 h 10.53809 v 1.89063 h -8.41114 v 4.38281 h 8.41114 v 1.89063 h -8.41114 v 5.94042 h 8.41114 z"/><path id="path194" d="m 285.5293,240 h -2.5459 l -3.40528,-4.6084 -3.42675,4.6084 h -2.35254 l 4.68359,-5.9834 -4.64062,-6.01562 h 2.5459 l 3.38378,4.5332 3.39454,-4.5332 h 2.36328 l -4.71582,5.9082 z"/><path id="path196" d="m 298.7207,233.85547 q 0,1.46094 -0.41894,2.6748 -0.41895,1.20313 -1.18164,2.04102 -0.70899,0.79492 -1.67578,1.23535 -0.95606,0.42969 -2.03028,0.42969 -0.93457,0 -1.69726,-0.2041 -0.75196,-0.20411 -1.53614,-0.63379 v 5.02734 h -2.01953 v -16.4248 h 2.01953 v 1.25683 q 0.80567,-0.67676 1.80469,-1.12793 1.00977,-0.46191 2.14844,-0.46191 2.16992,0 3.37305,1.64355 1.21386,1.63282 1.21386,4.54395 z m -2.08398,0.0537 q 0,-2.16992 -0.74121,-3.24414 -0.74121,-1.07422 -2.27735,-1.07422 -0.87011,0 -1.75097,0.37598 -0.88086,0.37597 -1.68653,0.98828 v 6.7998 q 0.85938,0.38672 1.47168,0.52637 0.62305,0.13965 1.40723,0.13965 1.68652,0 2.63184,-1.13867 0.94531,-1.13868 0.94531,-3.37305 z"/><path id="path198" d="m 303.90918,240 h -2.01953 v -16.71484 h 2.01953 z"/><path id="path200" d="m 318.15332,234.00586 q 0,2.93262 -1.50391,4.62988 -1.5039,1.69727 -4.02832,1.69727 -2.54589,0 -4.0498,-1.69727 -1.49317,-1.69726 -1.49317,-4.62988 0,-2.93262 1.49317,-4.62988 1.50391,-1.70801 4.0498,-1.70801 2.52442,0 4.02832,1.70801 1.50391,1.69726 1.50391,4.62988 z m -2.08398,0 q 0,-2.33106 -0.91309,-3.45899 -0.91309,-1.13867 -2.53516,-1.13867 -1.64355,0 -2.55664,1.13867 -0.90234,1.12793 -0.90234,3.45899 0,2.25586 0.91309,3.42676 0.91308,1.16015 2.54589,1.16015 1.61133,0 2.52442,-1.14941 0.92383,-1.16016 0.92383,-3.4375 z"/><path id="path202" d="m 328.77734,230.20312 h -0.10742 q -0.45117,-0.10742 -0.88086,-0.15039 -0.41894,-0.0537 -0.99902,-0.0537 -0.93457,0 -1.80469,0.41895 -0.87012,0.4082 -1.67578,1.06348 V 240 h -2.01953 v -11.99902 h 2.01953 v 1.77246 q 1.20313,-0.9668 2.11621,-1.36426 0.92383,-0.4082 1.87988,-0.4082 0.52637,0 0.7627,0.0322 0.23633,0.0215 0.70898,0.0967 z"/><path id="path204" d="m 340.74414,234.20996 h -8.84082 q 0,1.10645 0.33301,1.93359 0.33301,0.81641 0.91308,1.34278 0.5586,0.51562 1.32129,0.77344 0.77344,0.25781 1.69727,0.25781 1.22461,0 2.45996,-0.4834 1.24609,-0.49414 1.77246,-0.9668 h 0.10742 v 2.20215 q -1.02051,0.42969 -2.08398,0.71973 -1.06348,0.29004 -2.23438,0.29004 -2.98633,0 -4.66211,-1.61133 -1.67578,-1.62207 -1.67578,-4.59766 0,-2.94336 1.60059,-4.67285 1.61133,-1.72949 4.23242,-1.72949 2.42773,0 3.73828,1.41797 1.32129,1.41797 1.32129,4.02832 z m -1.96582,-1.54687 q -0.0107,-1.58985 -0.80566,-2.45997 -0.78418,-0.87011 -2.39551,-0.87011 -1.62207,0 -2.58887,0.95605 -0.95605,0.95606 -1.08496,2.37403 z"/><path id="path206" d="m 351.29297,230.20312 h -0.10742 q -0.45118,-0.10742 -0.88086,-0.15039 -0.41895,-0.0537 -0.99903,-0.0537 -0.93457,0 -1.80468,0.41895 -0.87012,0.4082 -1.67578,1.06348 V 240 h -2.01954 v -11.99902 h 2.01954 v 1.77246 q 1.20312,-0.9668 2.11621,-1.36426 0.92382,-0.4082 1.87988,-0.4082 0.52637,0 0.76269,0.0322 0.23633,0.0215 0.70899,0.0967 z"/><path id="path208" d="m 373.72266,240 h -2.26661 l -1.56835,-4.45801 h -6.91797 L 361.40137,240 h -2.15918 l 5.82226,-15.99512 h 2.83594 z m -4.49024,-6.28418 -2.80371,-7.85254 -2.81445,7.85254 z"/><path id="path210" d="m 386.61328,228.83887 q 0,1.06347 -0.37598,1.97656 -0.36523,0.90234 -1.03125,1.56836 -0.82714,0.82715 -1.95507,1.24609 -1.12793,0.40821 -2.84668,0.40821 h -2.12696 V 240 h -2.12695 v -15.99512 h 4.33984 q 1.43946,0 2.43848,0.24707 0.99902,0.23633 1.77246,0.75196 0.91309,0.6123 1.40723,1.52539 0.50488,0.91308 0.50488,2.30957 z m -2.21289,0.0537 q 0,-0.82715 -0.29004,-1.43946 -0.29004,-0.6123 -0.88086,-0.99902 -0.51562,-0.33301 -1.18164,-0.47265 -0.65527,-0.1504 -1.66504,-0.1504 h -2.10547 v 6.39161 h 1.79395 q 1.28906,0 2.09473,-0.22559 0.80566,-0.23633 1.31054,-0.74121 0.50489,-0.51563 0.70899,-1.08496 0.21484,-0.56934 0.21484,-1.27832 z"/><path id="path212" d="m 395.06738,240 h -6.3164 v -1.63281 h 2.09472 V 225.6377 h -2.09472 v -1.63282 h 6.3164 v 1.63282 h -2.09472 v 12.72949 h 2.09472 z"/></g></svg>