<svg xmlns="http://www.w3.org/2000/svg" role="img" viewBox="-14.36 -14.36 746.72 323.72"><title>IMS Operations API (API Mediation Layer ZOWE V1) logo</title><defs id="defs3552"><style id="style3550">.cls-1{fill:#0033a1}.cls-2{fill:#2a7de1}</style></defs><path id="polygon3556" d="M29.202 156.633l52.517-.823 71.484-50.097 14.994 30.607 13.759-80.538z" class="cls-1" transform="translate(-29.2 -55.777)"/><path id="polygon3558" d="M181.954 55.777l89.556 135.641-106.981-36.706z" class="cls-2" transform="translate(-29.2 -55.777)"/><path id="polyline3560" d="M131.223 229.511l8.452 12.18 76.73-54.507-12.985-19.127-44.268 30.853 5.375-44.194 106.981 36.7-145.721 102.786" class="cls-1" transform="translate(-29.2 -55.777)"/><path id="polygon3562" d="M94.075 176.677l49.2-33.439-17.487 149.774L29.2 156.634l52.523-.823z" class="cls-2" transform="translate(-29.2 -55.777)"/><path id="path3564" d="M587.23191 35.4428h5.29468a6.88644 6.88644 0 0 1 4.63135 1.36974 4.52388 4.52388 0 0 1 1.62157 3.71612 4.67514 4.67514 0 0 1-1.62157 3.753 7.14731 7.14731 0 0 1-4.79105 1.382h-3.65465V54.656h-1.48033zm1.48033 1.23459v7.69637h3.56251a5.57788 5.57788 0 0 0 3.6547-1.01963 3.84745 3.84745 0 0 0 .27639-5.436.34852.34852 0 0 1-.043-.04916l-.1904-.20882a5.3287 5.3287 0 0 0-3.50731-1.038z" class="cls-2"/><path id="path3566" d="M603.86285 35.4428h4.90774a7.28588 7.28588 0 0 1 4.73571 1.35132 4.43482 4.43482 0 0 1 1.63385 3.61781 4.77216 4.77216 0 0 1-3.65465 4.6559 8.891 8.891 0 0 1 2.56135 2.94829l4.34877 6.63987h-1.77514l-3.3476-5.23325a12.51111 12.51111 0 0 0-2.59819-3.29231 4.8449 4.8449 0 0 0-2.73333-.65719h-2.65348v9.21963h-1.48028zm1.48033 1.23459v7.52438h3.17557a6.18842 6.18842 0 0 0 3.73454-.98279 3.61961 3.61961 0 0 0 .42378-5.09814l-.44224-.44224a6.15319 6.15319 0 0 0-3.753-1.00121z" class="cls-2"/><path id="path3568" d="M631.17162 35.19832a10.00767 10.00767 0 0 1 7.21716 2.8623 9.627 9.627 0 0 1 .344 13.61141c-.0368.0368-.0737.0737-.1105.11669l-.23347.2457a10.49871 10.49871 0 0 1-14.416 0 9.74545 9.74545 0 0 1-.20263-13.77108l.0123-.0061.19035-.19658a9.95061 9.95061 0 0 1 7.19888-2.8623m0 18.32252a8.24138 8.24138 0 0 0 6.06247-2.44461 8.5868 8.5868 0 0 0 0-12.05123 8.71124 8.71124 0 0 0-12.1434 0 8.50806 8.50806 0 0 0 0 12.03281 8.30684 8.30684 0 0 0 6.08093 2.44461" class="cls-2"/><path id="path3570" d="M648.82228 35.44463v19.25006a6.22857 6.22857 0 0 1-1.19161 4.34877 3.8501 3.8501 0 0 1-2.8317 1.21617q-.44214.0184-.88448 0l-.13515-1.38815a4.62122 4.62122 0 0 0 .86611.0983c1.812 0 2.69645-1.27147 2.69645-3.85123V35.44463z" class="cls-2"/><path id="polygon3572" d="M686.071 92.456v7.678h8.753v1.253h-8.753v7.795h9.195v1.247h-10.681V91.222h10.472v1.234z" class="cls-2" transform="translate(-29.2 -55.777)"/><path id="path3574" d="M687.39486 36.81249v1.61543A14.69811 14.69811 0 0 0 680.54 36.5054a8.0693 8.0693 0 0 0-5.96416 2.44466A8.24453 8.24453 0 0 0 672.168 45.031a8.14392 8.14392 0 0 0 2.40778 6.11777 8.47367 8.47367 0 0 0 6.17916 2.3709 14.50977 14.50977 0 0 0 6.83027-1.92252v1.53558a14.27085 14.27085 0 0 1-6.79343 1.79356 10.06857 10.06857 0 0 1-7.31548-2.81319 9.83525 9.83525 0 0 1-.006-13.90622.006.006 0 0 0 .006-.0061.7022.7022 0 0 0 .13515-.13515 10.02036 10.02036 0 0 1 7.10666-2.83161 16.137 16.137 0 0 1 6.7565 1.61544" class="cls-2"/><path id="polygon3576" d="M728.51 92.456v17.973h-1.505V92.456h-7.217v-1.234h15.921v1.234z" class="cls-2" transform="translate(-29.2 -55.777)"/><path id="polygon3578" d="M410.365 99.444l-5.773 7.138h-.516l-5.799-7.138v12.334h-6.234V90.495h5.817l6.541 7.985 6.56-7.985h5.836v21.283h-6.432z" class="cls-2" transform="translate(-29.2 -55.777)"/><path id="path3580" d="M416.33272 56.00365h-6.56614l-1.75054-4.31193H398.778l-1.769 4.31193h-6.56615l9.41615-21.28932h7.18037zm-9.77855-8.02806l-3.12032-7.69633-3.151 7.69633z" class="cls-2"/><path id="rect3582" d="M419.183 34.719h6.406v21.283h-6.406z" class="cls-2"/><path id="polygon3584" d="M466.532 99.923v11.855h-6.351V90.495h5.694l11.007 11.793V90.495h6.394v21.283h-5.7z" class="cls-2" transform="translate(-29.2 -55.777)"/><path id="polygon3586" d="M495.039 111.779h-6.413V90.49h15.245v4.275h-8.832v4.122h8.832v4.269h-8.832z" class="cls-2" transform="translate(-29.2 -55.777)"/><path id="path3588" d="M499.595 56.00112h-6.8917l-1.67074-3.84509a16.48553 16.48553 0 0 0-1.6584-3.02815 3.5709 3.5709 0 0 0-1.43731-1.22849 5.21472 5.21472 0 0 0-1.812-.27026h-.71254v8.31674h-6.431V34.718h10.91499a7.868 7.868 0 0 1 4.33035 1.07488 6.46344 6.46344 0 0 1 2.44461 2.59823 6.72627 6.72627 0 0 1 .731 2.92373 5.4132 5.4132 0 0 1-.61422 2.73334 4.99247 4.99247 0 0 1-1.30835 1.61543 14.60055 14.60055 0 0 1-1.56014.96433 5.90891 5.90891 0 0 1 1.69529 1.425 16.98237 16.98237 0 0 1 1.88569 3.2923zm-8.716-14.56961a2.15338 2.15338 0 0 0-.98279-2.03921 6.28282 6.28282 0 0 0-3.13874-.5958h-1.34518v5.14111h1.36974a7.19359 7.19359 0 0 0 3.23087-.52209 2.149 2.149 0 0 0 .8661-1.92257" class="cls-2"/><path id="path3590" d="M525.87192 56.00365h-6.56615l-1.73212-4.31193h-9.238l-1.769 4.31193H499.982l9.41-21.28932h7.10052zm-9.77856-8.02806l-3.12036-7.69633-3.13874 7.69633z" class="cls-2"/><path id="polygon3592" d="M576.245 99.444l-5.799 7.138h-.497l-5.817-7.138v12.334h-6.235V90.495h5.836l6.523 7.985 6.584-7.985h5.811v21.283h-6.406z" class="cls-2" transform="translate(-29.2 -55.777)"/><path id="polygon3594" d="M588.024 90.495h15.78v4.269h-9.355v3.888h8.931v4.293h-8.931v4.54h9.625v4.293h-16.05z" class="cls-2" transform="translate(-29.2 -55.777)"/><path id="path3596" d="M283.15852 35.42865a11.03124 11.03124 0 0 1 8.06485 3.194 10.85708 10.85708 0 0 1 .31941 15.34967.18792.18792 0 0 0-.0492.0492l-.27025.26412a11.73656 11.73656 0 0 1-16.09291 0 10.89088 10.89088 0 0 1-.20882-15.39265l.20882-.215a11.08033 11.08033 0 0 1 8.02806-3.194m0 20.46a9.21918 9.21918 0 0 0 6.775-2.73333 9.62184 9.62184 0 0 0 0-13.47008 9.78988 9.78988 0 0 0-13.5684 0 9.50155 9.50155 0 0 0-.0246 13.44552l.0246.0246a9.2606 9.2606 0 0 0 6.79343 2.73333" class="cls-2"/><path id="path3598" d="M298.57146 35.694h5.915a7.96062 7.96062 0 0 1 5.19642 1.52331 5.61267 5.61267 0 0 1-.11669 8.35356 8.05225 8.05225 0 0 1-5.33156 1.56014h-4.10303v9.98742h-1.65227zm1.65845 1.38815v8.66071h4.00476a6.42467 6.42467 0 0 0 4.07851-1.13632 4.34636 4.34636 0 0 0 .23342-6.13619.89411.89411 0 0 0-.215-.215 5.7378 5.7378 0 0 0-3.8451-1.1732z" class="cls-2"/><path id="polygon3600" d="M345.519 92.862v8.581h9.785v1.388h-9.785v8.716h10.301v1.388h-11.953V91.474h11.701v1.388z" class="cls-2" transform="translate(-29.2 -55.777)"/><path id="polygon3602" d="M377.181 112.935l-16.296-18.771v18.771h-1.658V91.474h1.407l16.258 18.746V91.474h1.659v21.461z" class="cls-2" transform="translate(-29.2 -55.777)"/><path id="path3604" d="M269.81527 175.16729l64.79151-75.394h-62.772V77.0545h96.09326V96.744l-64.79151 75.394h64.79151v22.71875h-98.1128z" class="cls-1"/><path id="path3606" d="M381.22348 150.26007v-.33692c0-25.916 20.86816-46.95215 48.97265-46.95215 27.93555 0 48.63477 20.69922 48.63477 46.61622v.33593c0 25.917-20.86719 46.95313-48.97168 46.95313-27.93652 0-48.63574-20.69922-48.63574-46.61621zm72.36425 0v-.33692c0-13.29443-9.59277-24.90625-23.72851-24.90625-14.6416 0-23.39258 11.27539-23.39258 24.57032v.33593c0 13.29492 9.59277 24.90723 23.72949 24.90723 14.64063 0 23.3916-11.27538 23.3916-24.57031z" class="cls-1"/><path id="path3608" d="M485.89926 104.65362h25.917l14.47265 54.69438 16.99709-55.0308h22.0459l17.165 55.19873 14.80957-54.86231h25.41211l-28.10449 90.876h-23.05565l-17.334-55.3667-17.66992 55.3667h-22.88768z" class="cls-1"/><path id="path3610" d="M629.78793 150.26007v-.33692c0-25.748 18.34375-46.95215 44.59668-46.95215 30.124 0 43.92383 23.39209 43.92383 48.97168 0 2.01954-.16895 4.376-.33692 6.73145H655.2c2.52344 11.6123 10.60156 17.6709 22.0459 17.6709 8.582 0 14.80859-2.69238 21.877-9.25586l14.6416 12.958c-8.415 10.43359-20.53125 16.8291-36.85547 16.8291-27.09473.00001-47.1211-19.01659-47.1211-46.6162zm63.61328-7.57276c-1.51465-11.44384-8.24609-19.18506-19.0166-19.18506-10.60254 0-17.50195 7.57276-19.52148 19.18506z" class="cls-1"/><path id="polygon3612" d="M143.275 143.239l-49.2 33.438 43.396 16.621z" class="cls-1" transform="translate(-29.2 -55.777)"/><g id="text1054"><path id="path1922" d="M180.7251 287.40619h-11.48438v-2.96875h3.8086v-23.14453h-3.8086v-2.96875h11.48438v2.96875h-3.8086v23.14453h3.8086z"/><path id="path1924" d="M213.24463 287.40619h-3.86719V262.3476l-8.08594 17.05078h-2.30468l-8.02735-17.05078v25.05859h-3.61328v-29.08203h5.27344l7.75391 16.1914 7.5-16.1914h5.37109z"/><path id="path1926" d="M242.229 279.10541q0 1.69922-.80078 3.35937-.78125 1.66016-2.20703 2.8125-1.5625 1.25-3.65234 1.95313-2.07031.70312-5 .70312-3.14453 0-5.66406-.58593-2.5-.58594-5.09766-1.73829v-4.84375h.27344q2.20703 1.83594 5.09765 2.83204 2.89063.99609 5.42969.99609 3.59375 0 5.58594-1.34766 2.01172-1.34765 2.01172-3.59375 0-1.93359-.95703-2.85156-.9375-.91797-2.8711-1.42578-1.46484-.39063-3.18359-.64453-1.69922-.25391-3.61328-.64453-3.86719-.82032-5.74219-2.79297-1.85547-1.99219-1.85547-5.17578 0-3.65235 3.08594-5.97657 3.08594-2.34375 7.83203-2.34375 3.06641 0 5.625.58594t4.53125 1.44531v4.57032h-.27344q-1.66015-1.40625-4.375-2.32422-2.69531-.9375-5.52734-.9375-3.10547 0-5 1.28906-1.875 1.28906-1.875 3.32031 0 1.81641.9375 2.85157.9375 1.03515 3.30078 1.58203 1.25.27343 3.55469.66406 2.30468.39062 3.90625.80078 3.24218.85938 4.88281 2.59766 1.64062 1.73828 1.64062 4.86328z"/><path id="path1928" d="M284.18213 261.664q1.77734 1.95313 2.71484 4.78516.95703 2.83203.95703 6.42578 0 3.59375-.97656 6.44531-.95703 2.83203-2.69531 4.72656-1.79688 1.97266-4.25781 2.96875-2.44141.9961-5.58594.9961-3.06641 0-5.58594-1.01563-2.5-1.01562-4.25781-2.94922-1.75781-1.93359-2.71484-4.74609-.9375-2.8125-.9375-6.42578 0-3.55469.9375-6.36719.9375-2.83203 2.73437-4.84375 1.71875-1.91406 4.25781-2.92969 2.5586-1.01562 5.56641-1.01562 3.125 0 5.60547 1.03516 2.5 1.01562 4.23828 2.91015zm-.35156 11.21094q0-5.66406-2.53907-8.73047-2.53906-3.08594-6.93359-3.08594-4.43359 0-6.97266 3.08594-2.51953 3.06641-2.51953 8.73047 0 5.72266 2.57813 8.76953 2.57812 3.02734 6.91406 3.02734t6.89453-3.02734q2.57813-3.04687 2.57813-8.76953z"/><path id="path1930" d="M312.89307 276.23431q0 2.65625-.76172 4.86329-.76172 2.1875-2.14844 3.71093-1.28906 1.44532-3.04687 2.2461-1.73829.78125-3.69141.78125-1.69922 0-3.08594-.3711-1.36719-.37109-2.79297-1.15234v9.14062h-3.67187v-29.86328h3.67187v2.28516q1.46485-1.23047 3.28125-2.05078 1.83594-.83985 3.90625-.83985 3.94532 0 6.13282 2.98829 2.20703 2.96875 2.20703 8.26171zm-3.78907.0977q0-3.94531-1.34765-5.89844-1.34766-1.95312-4.14063-1.95312-1.58203 0-3.18359.68359-1.60156.6836-3.06641 1.79688v12.36328q1.5625.70312 2.67578.95703 1.13282.25391 2.5586.25391 3.0664 0 4.78515-2.07032 1.71875-2.07031 1.71875-6.13281z"/><path id="path1932" d="M336.87744 276.87885h-16.07422q0 2.01171.60547 3.51562.60547 1.48438 1.66016 2.44141 1.01562.9375 2.40234 1.40625 1.40625.46875 3.08594.46875 2.22656 0 4.47266-.87891 2.26562-.89844 3.22265-1.75781h.19531v4.0039q-1.85546.78125-3.78906 1.3086-1.93359.52734-4.0625.52734-5.42969 0-8.47656-2.92969-3.04688-2.94921-3.04688-8.35937 0-5.35156 2.91016-8.49609 2.92969-3.14454 7.69531-3.14454 4.41407 0 6.79688 2.57813 2.40234 2.57812 2.40234 7.32422zm-3.57422-2.8125q-.0195-2.89063-1.46484-4.47266-1.42578-1.58203-4.35547-1.58203-2.94922 0-4.70703 1.73828-1.73828 1.73828-1.97266 4.31641z"/><path id="path1934" d="M356.05713 269.59369h-.19531q-.82032-.19531-1.60157-.27344-.76171-.0976-1.8164-.0976-1.69922 0-3.28125.76171-1.58203.74219-3.04688 1.9336v15.48828h-3.67187v-21.81641h3.67187v3.22266q2.1875-1.75781 3.84766-2.48047 1.67969-.74219 3.41797-.74219.95703 0 1.38672.0586.42968.0391 1.28906.17578z"/><path id="path1936" d="M376.50635 287.40619H372.854v-2.32422q-.48828.33203-1.32812.9375-.82031.58594-1.60156.9375-.91797.44922-2.10938.74219-1.1914.3125-2.79297.3125-2.94922 0-5-1.95313-2.05078-1.95312-2.05078-4.98047 0-2.48046 1.05469-4.0039 1.07422-1.54297 3.04687-2.42188 1.99219-.8789 4.78516-1.1914 2.79297-.3125 5.99609-.46875v-.56641q0-1.25-.44921-2.07031-.42969-.82031-1.25-1.28906-.78125-.44922-1.875-.60547-1.09375-.15625-2.28516-.15625-1.44531 0-3.22266.39062-1.77734.3711-3.67187 1.09375h-.19531v-3.73047q1.07421-.29297 3.10546-.64453 2.03125-.35156 4.00391-.35156 2.30469 0 4.00391.39062 1.71875.3711 2.96875 1.28907 1.23047.89843 1.875 2.32422.64453 1.42578.64453 3.53515zm-3.65235-5.37109v-6.07422q-1.67968.0977-3.96484.29297-2.26562.19531-3.59375.5664-1.58203.44922-2.55859 1.40625-.97657.9375-.97657 2.59766 0 1.875 1.13282 2.83203 1.13281.9375 3.45703.9375 1.93359 0 3.53515-.74219 1.60157-.76172 2.96875-1.8164z"/><path id="path1938" d="M394.94385 287.21088q-1.03516.27343-2.26563.44922-1.21093.17578-2.16797.17578-3.33984 0-5.07812-1.79688-1.73828-1.79687-1.73828-5.76172v-11.60156h-2.48047v-3.08594h2.48047v-6.26953h3.67187v6.26953h7.57813v3.08594h-7.57813v9.94141q0 1.71875.0781 2.69531.0781.95703.54687 1.79687.42969.78125 1.17188 1.15235.76172.35156 2.30469.35156.89843 0 1.875-.25391.97656-.27343 1.40625-.44921h.19531z"/><path id="path1940" d="M403.34229 261.93744h-4.14063v-3.80859h4.14063zm-.23438 25.46875h-3.67187v-21.81641h3.67187z"/><path id="path1942" d="M429.00635 276.50775q0 5.33203-2.73438 8.41797-2.73437 3.08594-7.32422 3.08594-4.6289 0-7.36328-3.08594-2.71484-3.08594-2.71484-8.41797 0-5.33203 2.71484-8.41797 2.73438-3.10547 7.36328-3.10547 4.58985 0 7.32422 3.10547 2.73438 3.08594 2.73438 8.41797zm-3.78906 0q0-4.23828-1.66016-6.28906-1.66016-2.07031-4.60938-2.07031-2.98828 0-4.64843 2.07031-1.64063 2.05078-1.64063 6.28906 0 4.10156 1.66016 6.23047 1.66015 2.10938 4.6289 2.10938 2.92969 0 4.58985-2.08985 1.67969-2.10937 1.67969-6.25z"/><path id="path1944" d="M452.95166 287.40619h-3.67187v-12.42188q0-1.5039-.17579-2.8125-.17578-1.32812-.64453-2.07031-.48828-.82031-1.40625-1.21094-.91797-.41015-2.38281-.41015-1.50391 0-3.14453.74219-1.64063.74218-3.14453 1.89453v16.28906h-3.67188v-21.81641h3.67188v2.42188q1.71875-1.42578 3.55469-2.22656 1.83593-.80079 3.76953-.80079 3.53515 0 5.39062 2.12891 1.85547 2.12891 1.85547 6.13281z"/><path id="path1946" d="M475.60791 281.11713q0 2.98828-2.48047 4.90234-2.46094 1.91406-6.73828 1.91406-2.42187 0-4.45312-.5664-2.01172-.58594-3.37891-1.26953v-4.1211h.19531q1.73828 1.3086 3.86719 2.08985 2.12891.76171 4.08203.76171 2.42188 0 3.78906-.78125 1.36719-.78125 1.36719-2.46093 0-1.28907-.74219-1.95313-.74218-.66406-2.85156-1.13281-.78125-.17578-2.05078-.41016-1.25-.23437-2.28516-.50781-2.87109-.76172-4.08203-2.22656-1.1914-1.48438-1.1914-3.63281 0-1.34766.54687-2.53907.56641-1.1914 1.69922-2.1289 1.09375-.91797 2.77344-1.44532 1.69922-.54687 3.78906-.54687 1.95312 0 3.94531.48828 2.01172.46875 3.33985 1.15234v3.92579h-.19532q-1.40625-1.03516-3.41797-1.73829-2.01171-.72265-3.94531-.72265-2.01172 0-3.39844.78125-1.38671.76172-1.38671 2.28515 0 1.34766.83984 2.03125.82031.6836 2.65625 1.11329 1.01562.23437 2.26562.46875 1.26954.23437 2.10938.42968 2.55859.58594 3.94531 2.01172 1.38672 1.44531 1.38672 3.82813z"/><path id="path1948" d="M518.1665 287.40619h-4.12109l-2.85156-8.10547h-12.57813l-2.85156 8.10547h-3.92578l10.58594-29.08203h5.15625zm-8.16406-11.42578l-5.09765-14.27735-5.11719 14.27735z"/><path id="path1950" d="M541.604 267.11322q0 1.93359-.68359 3.59375-.66406 1.64063-1.875 2.85156-1.50391 1.50391-3.55469 2.26563-2.05078.74219-5.17578.74219h-3.86719v10.83984h-3.86718v-29.08203h7.89062q2.61719 0 4.4336.44922 1.8164.42968 3.22265 1.36718 1.66016 1.11329 2.5586 2.77344.91796 1.66016.91796 4.19922zm-4.02343.0977q0-1.50391-.52735-2.61719-.52734-1.11328-1.60156-1.81641-.9375-.60547-2.14844-.85937-1.1914-.27344-3.02734-.27344h-3.82813v11.62109h3.26172q2.34375 0 3.8086-.41015 1.46484-.42969 2.38281-1.34766.91797-.9375 1.28906-1.97265.39063-1.03516.39063-2.32422z"/><path id="path1952" d="M556.9751 287.40619h-11.48438v-2.96875h3.8086v-23.14453h-3.8086v-2.96875h11.48438v2.96875h-3.8086v23.14453h3.8086z"/></g></svg>