<svg xmlns="http://www.w3.org/2000/svg" role="img" xmlns:xlink="http://www.w3.org/1999/xlink" viewBox="-9.54 -9.29 249.08 59.33"><title>JCLCheck Workload Automation logo</title><path d="M232.506 4.298c-1.06 0-1.93-.86-1.93-1.92s.87-1.93 1.93-1.93 1.93.87 1.93 1.93-.87 1.92-1.93 1.92m0-4.32c-1.32 0-2.4 1.08-2.4 2.4 0 1.32 1.08 2.4 2.4 2.4 1.32 0 2.4-1.08 2.4-2.4 0-1.32-1.08-2.4-2.4-2.4"/><path d="M232.666 2.278l-.51.01-.01-.62h.51c.19-.01.34.11.34.3.01.19-.14.31-.33.31m.83-.32c-.01-.42-.3-.72-.77-.72l-1.07.02.03 2.26h.49l-.01-.81h.35l.46.8.55-.01-.52-.86c.24-.06.49-.28.49-.68M47.0201 18.3885h-5.999V4.5545h5.835c1.574 0 2.557 1.016 2.557 2.393 0 1.377-.983 2.36-2.557 2.36H40.186v4h6.8341c1.836 0 2.819 1.18 2.819 2.556 0 1.574-1.049 2.525-2.819 2.525m3.376-7.245c2.066-.426 3.771-2.262 3.771-5.015 0-2.918-2.131-5.573-6.295-5.573h-11.506v21.865h11.867c4.163 0 6.359-2.623 6.359-5.901 0-2.754-1.868-5.015-4.196-5.376m17.8225-.5902H63.186v4.098h3.5576l4.294 7.769h5.343l-4.917-8.327c2.361-.557 4.786-2.622 4.786-6.49m0 0c0-4.065-2.786-7.048-7.343-7.048h-10.228v21.865h4.655V4.6533h4.885c1.869 0 3.278 1.114 3.278 2.95s-1.409 2.95-3.278 2.95m43.4206 4.0652l3.409-9.408 3.41 9.408zm.492-14.063l-8.458 21.865h5.31l1.377-3.704h9.376l1.344 3.704h5.311l-8.425-21.865zm26.9039 17.7671h-3.967v-13.67h3.967c4.491 0 6.851 2.983 6.851 6.852 0 3.704-2.524 6.818-6.851 6.818m0-17.767h-8.622v21.865h8.622c6.851 0 11.604-4.327 11.604-10.916s-4.753-10.949-11.604-10.949M221.162.5511l-5.734 9.27-5.734-9.27h-5.146v21.869h4.656V8.1271l5.012 7.622c.574.871 1.851.871 2.424 0l5.013-7.622v14.293h4.656V.5511z"/><path id="a" d="M91.0113 18.5521c-3.871 0-7.008-3.138-7.008-7.008 0-3.871 3.137-7.009 7.008-7.009 3.87 0 7.008 3.138 7.008 7.009 0 3.87-3.138 7.008-7.008 7.008m0-18.536c-6.367 0-11.528 5.161-11.528 11.528 0 6.366 5.161 11.527 11.528 11.527 6.366 0 11.528-5.161 11.528-11.527 0-6.367-5.162-11.528-11.528-11.528"/><path d="M171.5895 14.9349c-1.195 2.156-3.492 3.617-6.132 3.617-3.87 0-7.008-3.138-7.008-7.008 0-3.871 3.138-7.008 7.008-7.008 2.618 0 4.897 1.438 6.1 3.565l3.27-3.269c-2.092-2.915-5.508-4.816-9.37-4.816-6.367 0-11.527 5.161-11.527 11.528 0 6.366 5.16 11.528 11.527 11.528 3.883 0 7.316-1.922 9.404-4.865z"/><use transform="translate(98.718)" xlink:href="#a"/><ellipse cx="11.706" cy="11.705" fill="#cc092f" rx="16.236" ry="16.235"/><path fill="#fff" d="M26.0113 16.0912c-1.857-.74-3.557-.492-5.261.541 0 0-.621.379-.807.496-.794.498-1.543.97-2.263.97-.687 0-1.363-.184-1.649-1.513-.446-2.073-1.534-7.167-2.009-9.69-.279-1.483-.432-2.282-.591-2.825-.28-.954-.792-1.473-1.519-1.556 0 0-.114-.016-.207-.016-.092 0-.218.018-.218.018-.72.086-1.229.605-1.507 1.554-.159.543-.312 1.342-.591 2.825-.475 2.523-1.563 7.617-2.009 9.69-.286 1.329-.962 1.513-1.649 1.513-.72 0-1.469-.472-2.263-.97-.186-.117-.808-.496-.808-.496-1.703-1.033-3.404-1.281-5.26-.541-.401.16-.79596.33918-1.17196.52018.257.806.57693 1.59925.94993 2.34425.411-.202.84203-.40243 1.28203-.53243.634-.187 1.284-.197 1.914.014.612.205 1.157.568 1.7.909 1.023.643 2.182 1.372 3.657 1.372 2.186 0 3.72-1.305 4.21-3.581.38-1.764 1.222-5.702 1.763-8.418 0 0 1.386 6.654 1.765 8.418.49 2.276 2.025 3.581 4.211 3.581 1.475 0 2.634-.729 3.657-1.372.543-.341 1.088-.704 1.7-.909.629-.211 1.28-.201 1.914-.014.44.13.87039.33065 1.28139.53265.374-.745.69309-1.53862.95009-2.34462-.376-.181-.77048-.36003-1.17148-.52003"/><path d="M38.82207 43.31835q0 .95703-.58593 1.47461-.58106.51758-1.5625.51758-.23438 0-.625-.04395-.39063-.03906-.6543-.09766v-.90332h.05371q.2002.06836.49317.1416.29296.07324.60058.07324.44922 0 .7129-.10254.26855-.10254.3955-.29297.13184-.19531.16602-.47851.03906-.2832.03906-.6543v-4.24316h-1.53809v-.77149h2.50488zm7.49512 1.3623q-.26855.1172-.48828.21973-.21484.10254-.5664.21485-.29786.09277-.64942.15625-.34668.06836-.7666.06836-.79102 0-1.44043-.21973-.64453-.2246-1.12305-.69824-.46875-.46387-.73242-1.17676-.26367-.71777-.26367-1.66504 0-.89844.2539-1.60644.25391-.70801.73243-1.1963.46386-.47363 1.11816-.72265.65918-.24902 1.45996-.24902.58594 0 1.167.1416.58593.1416 1.29882.49805v1.14746h-.07324q-.60058-.50293-1.1914-.73243-.59082-.22949-1.26465-.22949-.55176 0-.9961.18067-.43945.17578-.78613.55175-.33691.36622-.52734.92774-.18555.55664-.18555 1.28906 0 .7666.20508 1.31836.20996.55176.5371.89844.3418.36133.7959.5371.45899.1709.9668.1709.69824 0 1.3086-.23925.61035-.23926 1.14258-.71778h.06835zm5.9668.52735h-4.59961v-7.2705h.9668v6.41112h3.6328zm6.48437-.52734q-.26855.11718-.48828.21972-.21484.10254-.5664.21485-.29785.09277-.64942.15625-.34668.06836-.7666.06836-.79102 0-1.44043-.21973-.64453-.22461-1.12305-.69824-.46875-.46387-.73242-1.17676-.26367-.71777-.26367-1.66504 0-.89844.2539-1.60644.25391-.70801.73243-1.1963.46387-.47363 1.11816-.72265.65918-.24902 1.45996-.24902.58594 0 1.167.1416.58593.1416 1.29882.49804v1.14747h-.07324q-.60058-.50293-1.1914-.73243-.59082-.22949-1.26465-.22949-.55176 0-.9961.18067-.43945.17578-.78613.55175-.33691.36621-.52734.92774-.18555.55664-.18555 1.28906 0 .7666.20508 1.31836.20996.55176.5371.89844.3418.36133.7959.5371.459.1709.9668.1709.69825 0 1.3086-.23925.61035-.23926 1.14258-.71778h.06836zm5.8545.52734h-.91797v-3.10547q0-.37598-.04395-.70312-.04395-.33204-.16114-.51758-.12207-.20508-.35156-.30274-.22949-.10254-.5957-.10254-.37598 0-.78613.18555-.41016.18555-.78614.47363V45.208h-.91797v-7.59766h.91797v2.74903q.4297-.35645.88867-.55664.45899-.2002.94239-.2002.88379 0 1.34765.53223.46387.53222.46387 1.5332zm6.333-2.63184h-4.01855q0 .50293.15137.87891.15136.3711.41504.61035.2539.23438.60058.35156.35156.1172.77149.1172.55664 0 1.11816-.21974.5664-.2246.80566-.43945h.04883v1.00098q-.46386.19531-.94726.32715-.4834.13183-1.01563.13183-1.35742 0-2.11914-.73242-.76172-.7373-.76172-2.08984 0-1.3379.72754-2.12403.73242-.78613 1.92383-.78613 1.10352 0 1.69922.64453.60059.64453.60059 1.83106zm-.89355-.70312q-.0049-.72266-.36621-1.11817-.35645-.3955-1.08887-.3955-.7373 0-1.17676.43457-.43457.43457-.49316 1.0791zm6.31836 2.99316q-.45899.21973-.87402.3418-.41016.12207-.87403.12207-.59082 0-1.08398-.1709-.49317-.17578-.84473-.52734-.35644-.35156-.55176-.88867-.1953-.53711-.1953-1.25489 0-1.33789.73241-2.0996.7373-.76172 1.94336-.76172.46875 0 .91797.13183.4541.13184.83008.32227v1.0205h-.04883q-.41992-.32714-.86914-.50293-.44434-.17578-.86914-.17578-.78125 0-1.23535.52735-.44922.52246-.44922 1.53808 0 .98633.43945 1.51856.44434.52734 1.24512.52734.27832 0 .5664-.07324.28809-.07324.51758-.19043.2002-.10254.37598-.21484.17578-.11719.27832-.2002h.04883zm6.12793.3418h-1.21094l-2.1875-2.3877-.5957.56641V45.208h-.91797v-7.59766h.91797v4.87305l2.65137-2.7295h1.15722l-2.53418 2.51954zm8.74023-3.833h-.60547v-3.0127h-.09766l-1.15722 2.20215h-.38575l-1.16699-2.23633h-.12207v3.04687h-.60058v-3.4375h1.16211l.93262 1.86524.93261-1.86524h1.1084zm-4.99023-2.86622h-1.11817V41.375h-.62011v-2.8662h-1.11817v-.5713h2.85645zm19.0332-.57129l-1.88965 7.27051h-1.08886l-1.52832-6.03516-1.49415 6.03516h-1.06445l-1.92383-7.2705h.99122l1.52831 6.04491 1.50391-6.04492h.98145l1.51855 6.10352 1.51856-6.10352zm5.5127 4.5459q0 1.333-.6836 2.1045-.68359.77148-1.83105.77148-1.15723 0-1.84082-.77149-.67871-.77148-.67871-2.10449 0-1.333.67871-2.1045.68359-.77636 1.84082-.77636 1.14746 0 1.83105.77637.6836.77148.6836 2.1045zm-.94727 0q0-1.05957-.41504-1.57227-.41504-.51757-1.15234-.51757-.74707 0-1.16211.51758-.41016.51269-.41016 1.57226 0 1.0254.41504 1.55762.41504.52734 1.15723.52734.73242 0 1.14746-.52246.41992-.52734.41992-1.5625zm5.77149-1.72852h-.0488q-.20508-.04882-.40039-.06835-.19043-.02442-.4541-.02442-.42481 0-.82032.19043-.39551.18555-.76172.4834V45.208h-.91796v-5.4541h.91796v.80566q.54688-.43945.96192-.62012.41992-.18554.85449-.18554.23926 0 .34668.01465.10742.0098.32227.04395zm5.81543 4.45313h-1.21094l-2.1875-2.3877-.59571.56641V45.208h-.91796v-7.59766h.91796v4.87305l2.65137-2.7295h1.15723l-2.53418 2.51954zm1.89453 0h-.91797v-7.59766h.91797zm6.46484-2.7246q0 1.333-.68359 2.10448-.6836.77149-1.83106.77149-1.15722 0-1.84082-.77149-.67871-.77148-.67871-2.10449 0-1.333.67871-2.1045.6836-.77636 1.84082-.77636 1.14746 0 1.83106.77637.68359.77148.68359 2.1045zm-.94727 0q0-1.05958-.41503-1.57228-.41504-.51757-1.15235-.51757-.74707 0-1.16211.51758-.41015.51269-.41015 1.57226 0 1.0254.41504 1.55762.41503.52734 1.15722.52734.73242 0 1.14746-.52246.41992-.52734.41992-1.5625zm6.60645 2.7246h-.91309v-.58105q-.12207.083-.33203.23437-.20508.14649-.40039.23438-.22949.1123-.52734.18554-.29785.07813-.69824.07813-.73731 0-1.25-.48828-.5127-.48828-.5127-1.24512 0-.62011.26367-1.00097.26856-.38574.76172-.60547.49805-.21973 1.19629-.29785.69824-.07813 1.49902-.11719v-.1416q0-.3125-.1123-.51758-.10742-.20508-.3125-.32227-.19531-.1123-.46875-.15136t-.57129-.03906q-.36133 0-.80566.09766-.44434.09277-.91797.27343h-.0488v-.93261q.26855-.07324.77637-.16114.50781-.08789 1.00097-.08789.57617 0 1.00098.09766.42969.09277.74219.32227.30761.2246.46875.58105.16113.35645.16113.8838zm-.91309-1.34277v-1.51856q-.41992.02441-.99121.07324-.5664.04883-.89843.1416-.39551.1123-.63965.35157-.24414.23437-.24414.64941 0 .46875.2832.708.2832.23438.86426.23438.4834 0 .88379-.18554.40039-.19043.74218-.4541zm7.1045 1.34277h-.91797v-.57129q-.39551.3418-.8252.53223-.42969.19043-.93262.19043-.97656 0-1.55273-.75196-.57129-.75195-.57129-2.08496 0-.69336.19531-1.23535.2002-.54199.53711-.92285.33203-.3711.77149-.5664.44433-.19532.91797-.19532.42968 0 .76172.09277.33203.0879.69824.27832v-2.36328h.91797zm-.91797-1.34277v-3.12989q-.3711-.16601-.66407-.22949-.29296-.06348-.63964-.06348-.77149 0-1.20118.53711-.42968.53711-.42968 1.52344 0 .97168.33203 1.4795.33203.50292 1.06445.50292.39063 0 .79102-.1709.40039-.17578.74707-.44922zm12.0459 1.34277h-1.03028l-.71289-2.02637h-3.14453l-.71289 2.02637H146.2l2.64649-7.2705h1.28906zm-2.04102-2.85644l-1.27441-3.56934-1.2793 3.56933zm7.54395 2.85644h-.91797v-.60547q-.46387.36621-.88868.56152-.4248.19532-.9375.19532-.85937 0-1.33789-.52246-.47851-.52735-.47851-1.54297V39.7539h.91797v3.10547q0 .41504.0391.71289.0391.29297.16602.50293.13183.21484.34179.3125.20996.09766.61035.09766.35645 0 .77637-.18555.42481-.18555.79102-.47363V39.7539h.91797zm4.63867-.04883q-.25879.06836-.56641.1123-.30273.04395-.54199.04395-.83496 0-1.26953-.44921-.43457-.44922-.43457-1.44043v-2.9004h-.62012v-.77148h.62012v-1.56738h.91797v1.56738h1.89453v.77149h-1.89453v2.48535q0 .42968.0195.67383.0195.23925.13672.44921.10742.19532.29296.28809.19043.08789.57618.08789.22461 0 .46875-.06348.24414-.06836.35156-.1123h.0488zm5.75683-2.67578q0 1.333-.68359 2.1045-.68359.77147-1.83106.77147-1.15722 0-1.84082-.77148-.67871-.77148-.67871-2.1045 0-1.333.67871-2.10448.6836-.77637 1.84082-.77637 1.14747 0 1.83106.77637.68359.77148.68359 2.10449zm-.94726 0q0-1.05957-.41504-1.57227-.41504-.51758-1.15235-.51758-.74707 0-1.1621.51758-.41016.5127-.41016 1.57227 0 1.02539.41504 1.55762.41504.52734 1.15722.52734.73243 0 1.14747-.52246.41992-.52735.41992-1.5625zm10.32715 2.72461h-.91797v-3.10547q0-.35156-.0342-.67871-.0293-.32715-.13184-.52246-.1123-.20996-.32226-.31738-.20996-.10742-.60547-.10742-.38574 0-.77149.1953-.38574.19044-.77148.48829.0146.1123.0244.26367.01.14649.01.29297V45.208h-.91797v-3.10547q0-.36133-.0342-.6836-.0293-.32714-.13184-.52245-.1123-.20996-.32226-.3125-.20996-.10742-.60547-.10742-.37598 0-.75684.18554-.37597.18555-.75195.47363V45.208h-.91797v-5.4541h.91797v.60547q.42969-.35645.85449-.55664.42969-.2002.91309-.2002.55664 0 .94238.23438.39063.23437.58106.64941.55664-.46875 1.01562-.67383.45899-.20996.98145-.20996.89843 0 1.32324.54688.42969.54199.42969 1.51855zm6.00586 0h-.91309v-.58105q-.12207.083-.33203.23437-.20508.14649-.40039.23438-.22949.1123-.52735.18554-.29785.07813-.69824.07813-.7373 0-1.25-.48828-.51269-.48828-.51269-1.24512 0-.62011.26367-1.00097.26855-.38574.76172-.60547.49804-.21973 1.19629-.29785.69824-.07813 1.49902-.11719v-.1416q0-.3125-.11231-.51758-.10742-.20508-.3125-.32227-.19531-.1123-.46875-.15136-.27343-.03906-.57128-.03906-.36133 0-.80567.09766-.44433.09277-.91797.27343h-.0488v-.93261q.26856-.07324.77637-.16114.50781-.08789 1.00098-.08789.57617 0 1.00098.09766.42968.09277.74218.32227.30762.2246.46875.58105.16114.35645.16114.8838zm-.91309-1.34277v-1.51856q-.41992.02441-.99121.07324-.56641.04883-.89844.1416-.39551.1123-.63965.35157-.24414.23437-.24414.64941 0 .46875.28321.708.2832.23438.86425.23438.4834 0 .88379-.18554.40039-.19043.74219-.4541zm5.51269 1.29394q-.25878.06836-.5664.1123-.30274.04396-.54199.04396-.83496 0-1.26953-.44922-.43458-.44922-.43458-1.44043v-2.9004h-.62011v-.77148h.62011v-1.56738h.91797v1.56738h1.89453v.77149h-1.89453v2.48535q0 .42969.0195.67383.0195.23925.13672.44922.10743.1953.29297.28808.19043.0879.57617.0879.22461 0 .46875-.06349.24414-.06836.35157-.1123h.0488zm2.09473-6.31836h-1.03515v-.95215h1.03515zm-.0586 6.36719h-.91797v-5.4541h.91797zm6.46484-2.7246q0 1.333-.68359 2.10448-.6836.77149-1.83106.77149-1.15722 0-1.84082-.77149-.67871-.77148-.67871-2.10449 0-1.333.67871-2.1045.6836-.77636 1.84082-.77636 1.14746 0 1.83106.77637.68359.77148.68359 2.1045zm-.94726 0q0-1.05958-.41504-1.57228-.41504-.51757-1.15235-.51757-.74707 0-1.16211.51758-.41015.51269-.41015 1.57226 0 1.0254.41504 1.55762.41504.52734 1.15722.52734.73242 0 1.14746-.52246.41993-.52734.41993-1.5625zm6.92871 2.7246h-.91797v-3.10547q0-.37598-.0439-.70312-.0439-.33204-.16113-.51758-.12207-.20508-.35156-.30274-.22949-.10254-.59571-.10254-.37597 0-.78613.18555-.41015.18555-.78613.47363V45.208h-.91797v-5.4541h.91797v.60547q.42969-.35645.88867-.55664.45898-.2002.94238-.2002.88379 0 1.34766.53223.46387.53222.46387 1.5332z" text-anchor="middle"/></svg>