<svg xmlns="http://www.w3.org/2000/svg" role="img" viewBox="-7.99 -7.99 415.48 145.23"><title>Kong logo</title><g fill-rule="evenodd"><path fill="#14b49c" d="M65.333 30.25c0 .137-.075.25-.166.25-.092 0-.167.15-.167.333 0 .184-.074.334-.163.334-.09 0-.211.187-.269.416-.057.23-.171.417-.253.417-.081 0-.148.188-.148.417 0 .233-.097.416-.22.416-.12 0-.387.407-.593.903-.206.497-.482.944-.614.995-.132.05-.24.233-.24.405 0 .172-.15.448-.333.614-.184.166-.334.432-.334.591 0 .16-.112.333-.25.386-.137.053-.25.248-.25.434 0 .187-.075.339-.166.339-.092 0-.167.136-.167.302 0 .166-.132.447-.293.625-.466.514-.874 1.206-.874 1.484 0 .141-.075.256-.166.256-.092 0-.167.187-.167.416 0 .245-.096.417-.232.417-.274 0-.483.454-.326.707.064.105.03.129-.083.059-.114-.071-.192-.013-.192.141 0 .143-.075.26-.167.26-.092 0-.167.152-.167.338 0 .186-.112.382-.25.435-.137.052-.25.223-.25.38 0 .156-.149.444-.33.639-.182.195-.453.659-.602 1.031-.149.372-.337.677-.419.677-.082 0-.149.187-.149.416 0 .237-.096.417-.223.417-.256 0-.61.688-.61 1.184 0 .185-.075.289-.167.233-.091-.057-.166.051-.166.24 0 .194-.109.343-.25.343-.138 0-.252.131-.254.292-.002.16-.15.479-.33.708-.179.229-.327.483-.329.565-.002.082-.135.256-.296.387-.16.132-.192.188-.071.126.183-.093.183-.053.002.238-.121.193-.276.351-.346.351-.303 0-.095.907.29 1.264.23.213.417.469.417.571 0 .101.075.138.167.081.091-.056.166-.004.166.117 0 .121.153.315.34.432.187.117.295.285.24.373-.055.089-.02.162.077.162s.177.117.177.26c0 .142.063.22.141.172.078-.048.241.097.362.323s.319.411.441.411c.123 0 .222.076.222.169 0 .092.224.402.497.687.273.286.462.577.419.647-.043.069.071.165.253.213.198.051.331.227.331.435 0 .192.077.349.17.349.265 0 1.658 1.523 1.944 2.125.142.298.362.542.489.542s.231.08.231.179c0 .23.424.654.654.654.099 0 .16.094.137.209-.023.114.052.189.167.166.115-.023.199.015.189.084-.06.376.041.714.186.625.092-.057.167-.023.167.076s.262.434.583.746c.321.312.583.645.583.742 0 .096.113.132.25.079.173-.066.25.011.25.249 0 .19.338.692.75 1.117.413.424.75.844.75.932 0 .089.075.115.167.059.092-.057.167-.017.167.089 0 .279 1.215 1.812 1.444 1.82.107.004.29.224.408.49.125.282.304.447.432.398.147-.057.185.005.115.187-.071.186.164.53.749 1.096.468.455.852.897.852.984 0 .087.206.32.458.517.252.198.346.309.208.248-.137-.062-.006.111.292.384.298.274.542.581.542.684 0 .102.093.167.208.144.115-.023.19.052.167.167-.023.115.055.208.175.208.119 0 .311.263.427.584.116.32.319.583.45.583.132 0 .239.078.239.174 0 .226.767.993.993.993.096 0 .174.117.174.26 0 .142.075.213.167.156.154-.095.251.278.172.667-.018.092.017.117.078.056.117-.118.75.436.75.657 0 .072.15.238.333.37.183.132.333.337.333.454 0 .117.113.213.25.213.138 0 .25.103.25.228 0 .126.449.707.998 1.292.549.585.999 1.126 1 1.203.001.076.265.371.586.655.32.284.583.574.583.645 0 .184.818.977 1.008.977.087 0 .159.112.159.25 0 .137.079.25.176.25.097 0 .13.075.074.167-.057.091-.019.166.083.166.102 0 .147.064.099.142-.048.078.097.24.323.361s.411.304.411.405c0 .102.15.294.334.426.183.132.333.336.333.453 0 .117.107.213.239.213.131 0 .286.15.344.334.059.183.184.333.279.333.096 0 .134.103.086.229-.051.131.084.321.315.445.222.119.404.283.404.366 0 .212.439.627.664.627.104 0 .147.067.096.149-.051.083.237.499.64.926.403.427.871.959 1.039 1.183.169.225.401.408.517.408.184 0 .29.327.23.709-.011.068.105.125.258.125.153 0 .229.048.17.108-.06.059.153.354.472.655.319.301.58.632.58.735 0 .104.07.145.155.092.085-.052.203.057.262.243s.177.295.262.243c.085-.053.155.058.155.247s.062.343.138.343c.076 0 .239.188.362.417.122.229.31.417.416.417.107 0 .294.187.417.416.123.23.323.417.445.417s.222.15.222.333c0 .184.075.334.166.334.092 0 .167.08.167.178 0 .231.424.655.655.655.098 0 .178.096.178.213 0 .117.15.322.334.454.183.132.333.319.333.416 0 .097.131.295.292.439.448.405.875.964.875 1.147 0 .09.078.164.174.164.096 0 .362.188.591.417.229.229.334.417.232.417-.101 0-.137.076-.079.169.058.093.186.119.286.058.1-.062.133-.036.075.059-.059.095.08.311.307.482.228.171.414.41.414.531 0 .121.075.174.166.117.092-.056.167.014.167.157s.1.26.222.26.328.206.458.458.33.519.445.592c.114.073.208.21.208.303s.338.493.75.888c.413.396.75.845.75.999 0 .154.062.242.137.195.13-.08.697.461.697.665 0 .053.332.42.739.815.406.395.694.763.639.818-.055.055-.001.1.122.1.122 0 .173.049.113.109-.059.059.078.281.306.492.228.211.414.466.414.568 0 .101.075.138.167.081.091-.056.166.014.166.157s.117.26.26.26c.143 0 .214.075.157.167-.057.091.014.166.157.166s.26.123.26.273c0 .15.187.446.416.659.23.212.417.423.417.469 0 .046.337.417.75.823.412.407.75.865.75 1.018 0 .153.075.232.167.175.091-.057.166.014.166.157s.1.26.222.26.322.187.445.416c.123.23.285.417.361.417.077 0 .139.112.139.25s.117.25.26.25c.143 0 .219.067.168.148-.05.081.021.24.157.354.137.113.248.309.248.435s.094.211.209.188c.114-.023.189.052.166.167-.023.114.071.208.209.208.137 0 .25.072.25.159 0 .207.801 1.008 1.007 1.008.088 0 .159.192.159.426 0 .235.072.383.159.329.087-.054.239.054.339.241.254.474 1.121 1.337 1.343 1.337.251 0 .109 2.045-.148 2.13-.106.036-.193.316-.193.624s-.075.606-.166.663c-.092.056-.167.478-.167.936 0 .513-.064.794-.167.73-.091-.056-.175-.042-.185.032-.01.074-.047.383-.082.685-.035.303-.141.695-.235.871-.139.26-.124.303.082.224.162-.062.254-.001.254.171 0 .243 1.238.267 13.833.267h13.833v-.416c0-.245.086-.4.209-.375.143.028.224-.26.258-.922.028-.529.109-.926.18-.882.072.044.147-.346.169-.867.021-.521.107-.99.192-1.042.084-.053.183-.419.218-.814.036-.396.135-.767.221-.825.086-.059.177-.482.201-.94.025-.458.114-.905.199-.992.084-.087.153-.56.153-1.051 0-.553.064-.854.167-.79.092.056.172.079.178.051.007-.028.051-.426.098-.884.048-.458.141-.87.207-.917.066-.046.14-.459.165-.917.024-.458.114-.905.198-.992.085-.087.154-.51.154-.94 0-.542.077-.812.25-.878.176-.068.25-.342.25-.925 0-.456.075-.875.167-.932.091-.056.166-.511.166-1.01 0-.498.075-.906.167-.906.092 0 .167-.33.167-.733 0-.51.079-.762.26-.832.144-.055.248-.231.231-.393-.086-.84.021-1.781.175-1.542.127.196.162.158.164-.183.003-.497-.446-1.484-.676-1.484-.085 0-.154-.117-.154-.26 0-.143-.075-.213-.167-.157-.092.057-.167-.004-.167-.135 0-.132-.262-.463-.583-.737-.321-.274-.583-.581-.583-.683 0-.101-.113-.141-.25-.088-.179.068-.25-.017-.25-.299 0-.217-.15-.488-.334-.602-.183-.115-.333-.32-.333-.457s-.085-.249-.189-.249c-.209 0-.977-.833-.977-1.06-.001-.266-2.075-2.44-2.329-2.44-.105 0-.147-.071-.093-.159.087-.141-.232-.606-.87-1.268-.115-.118-.209-.296-.209-.394 0-.098-.112-.179-.25-.179-.137 0-.25-.117-.25-.26 0-.142-.075-.213-.166-.156-.092.056-.167-.013-.167-.154s-.45-.71-1-1.263c-.55-.553-1.001-1.136-1.003-1.295-.002-.247-.025-.253-.164-.038-.131.203-.162.181-.164-.115-.003-.422-.267-.654-.392-.345-.046.115-.09-.001-.097-.259-.008-.267-.085-.423-.18-.365-.092.057-.167.014-.167-.096 0-.109-.187-.373-.416-.585-.229-.212-.417-.469-.417-.571 0-.101-.075-.138-.167-.081-.091.057-.166-.056-.166-.25s-.06-.316-.132-.272c-.072.045-.279-.138-.458-.406-.18-.268-.383-.488-.452-.488s-.125-.113-.125-.251c0-.137-.056-.25-.125-.25-.213 0-1.042-.778-1.042-.977 0-.104-.262-.467-.583-.807-.321-.34-.583-.665-.583-.722 0-.057-.185-.203-.411-.324-.226-.121-.375-.278-.331-.35.044-.071.003-.178-.092-.236-.094-.059-.121-.195-.059-.304.062-.108.052-.141-.023-.074-.074.068-.3-.1-.501-.372-.201-.273-.415-.447-.474-.387-.06.06-.109.018-.109-.094 0-.111-.263-.473-.584-.803-.32-.331-.583-.692-.583-.804 0-.112-.263-.427-.583-.702-.321-.274-.584-.583-.584-.687 0-.105-.117-.19-.26-.19-.142 0-.213-.075-.156-.167.056-.091-.019-.166-.167-.166-.148 0-.223-.075-.167-.167.057-.092.032-.167-.055-.167s-.206-.187-.263-.416c-.058-.229-.184-.417-.28-.417-.192 0-.652-.412-.652-.583 0-.155-.451-.584-.614-.584-.076 0-.244-.243-.374-.541-.13-.298-.561-.856-.957-1.239-.397-.383-.721-.773-.721-.865 0-.093-.087-.222-.193-.287-.119-.074-.147-.046-.073.073.065.106.039.193-.058.193s-.176-.144-.176-.32c0-.176-.45-.788-1-1.361-.55-.572-1-1.114-1-1.203 0-.089-.192-.339-.426-.556-.233-.216-.383-.394-.333-.394.051 0-.208-.3-.575-.666-.366-.367-.741-.667-.833-.667-.092 0-.167-.113-.167-.25 0-.138-.093-.251-.208-.253-.15-.001-.144-.043.022-.148.181-.115.154-.17-.125-.259-.195-.062-.355-.196-.355-.298 0-.102-.252-.415-.559-.697-.308-.282-.61-.672-.672-.869-.063-.196-.251-.392-.418-.436-.167-.044-.408-.315-.535-.602-.127-.287-.29-.521-.363-.521-.232 0-1.12-1.003-1.12-1.266 0-.14-.075-.208-.167-.151-.091.057-.166-.008-.166-.145 0-.136-.198-.403-.439-.593-.242-.19-.373-.345-.292-.346.081 0-.059-.177-.311-.394-.252-.217-.458-.484-.458-.593 0-.109-.073-.154-.162-.099-.089.055-.21-.09-.268-.322-.058-.232-.173-.381-.255-.33-.082.05-.149.012-.149-.085 0-.23-1.28-1.51-1.51-1.51-.098 0-.155-.132-.128-.293.028-.162-.192-.548-.489-.858-.297-.311-.539-.629-.539-.707 0-.078-.113-.142-.25-.142-.138 0-.25-.117-.25-.26 0-.142-.075-.213-.167-.156-.092.056-.167.002-.167-.12 0-.123-.206-.451-.458-.729-.252-.279-.607-.708-.79-.954-.182-.246-.425-.447-.541-.447-.116 0-.211-.081-.211-.179 0-.098-.113-.292-.251-.43-.139-.138-.202-.332-.141-.431.066-.106.032-.13-.083-.059-.112.069-.241-.007-.306-.182-.062-.167-.249-.424-.415-.572-.167-.148-.304-.355-.304-.459 0-.103-.112-.188-.25-.188-.137 0-.25-.112-.25-.249s-.337-.592-.75-1.01c-.412-.419-.75-.799-.75-.846 0-.123-.456-.562-.583-.562-.191 0-.556-.442-.612-.741-.064-.339-1.546-1.926-1.8-1.926-.094 0-.171-.15-.171-.333 0-.183-.067-.333-.148-.333-.081 0-.188-.158-.238-.35-.051-.193-.172-.301-.27-.241-.098.061-.178.024-.178-.081 0-.105-.337-.519-.75-.92-.412-.401-.75-.807-.75-.902 0-.095-.075-.173-.166-.173-.092 0-.167-.15-.167-.333 0-.184-.08-.334-.179-.334-.217 0-.654-.418-.654-.626 0-.083-.175-.244-.388-.358-.213-.114-.481-.465-.594-.778-.114-.314-.314-.571-.446-.571-.131 0-.221-.056-.2-.125.022-.069-.297-.463-.708-.875-.411-.413-.771-.857-.799-.988-.028-.13-.385-.557-.792-.947-.407-.39-.74-.787-.74-.883 0-.096-.187-.297-.417-.447-.229-.15-.416-.427-.416-.615s-.043-.3-.095-.248c-.113.114-1.072-.794-1.072-1.015 0-.085-.113-.198-.25-.251-.138-.052-.25-.173-.25-.267 0-.192-.224-.464-1.375-1.671-.435-.457-.792-.872-.792-.923 0-.104-.18-.329-.936-1.168l-.52-.577h-7.522c-6.575 0-7.522.031-7.522.25"/><path fill="#1bb5cc" d="M92.537 44.497c.113.181.318.373.455.426.138.052.07-.096-.15-.33-.48-.511-.585-.544-.305-.096M399.333 72.5c0 17.971.056 26.985.167 26.917.11-.068.167-9.221.167-26.917s-.057-26.849-.167-26.917c-.111-.068-.167 8.946-.167 26.917M49.606 56.083c-.052.138-.202.25-.333.25s-.285.124-.342.274c-.058.151-.15.229-.205.175-.123-.124-.559.297-.559.539 0 .099-.096.179-.214.179-.117 0-.321.15-.453.333-.132.184-.336.334-.453.334-.118 0-.214.112-.214.25 0 .137-.069.25-.155.25-.286 0-1.33.748-1.338.958-.003.115-.092.208-.196.208-.199 0-.977.829-.977 1.042 0 .069-.104.125-.23.125s-.324.114-.44.254c-.116.14-.247.218-.292.173-.044-.044-.52.367-1.058.913s-1.05.993-1.138.993c-.087 0-.236.132-.329.292-.093.16-.172.226-.175.146-.003-.081-.452.313-.998.875-.546.561-1.057 1.021-1.136 1.021-.08 0-.394.222-.699.495-.305.272-.731.627-.946.789-.216.162-.393.389-.393.505 0 .116-.08.211-.178.211-.098 0-.274.093-.389.208-.116.115-.422.358-.679.542-.258.183-.834.689-1.28 1.125-.446.435-.88.791-.964.791-.084 0-.289.169-.456.375-.167.207-.51.482-.762.612s-.458.304-.458.387c0 .199-.248.427-1.273 1.171l-.855.622h-3.948c-4.019 0-4.424.06-4.424.655 0 .098-.113.178-.25.178-.138 0-.251.094-.251.209-.001.114-.263.493-.583.842-.321.349-.583.705-.583.792 0 .087-.059.157-.131.157-.072 0-.253.208-.403.461-.15.254-.522.723-.827 1.042-.306.319-.536.639-.512.71.023.072-.07.173-.209.226-.138.054-.251.201-.251.329s-.075.232-.167.232c-.092 0-.167.113-.167.25 0 .138-.08.25-.178.25-.262 0-.56.344-.831.959-.131.298-.301.541-.377.541-.222 0-.534.378-.79.959-.131.298-.333.541-.448.541-.115 0-.209.079-.209.175 0 .095-.189.363-.42.594-.231.231-.376.49-.323.575.053.086-.021.156-.164.156-.143 0-.26.085-.26.189s-.243.422-.541.708c-.298.286-.568.667-.599.847-.055.316-.813 1.089-1.068 1.089-.069.001-.125.113-.125.251 0 .137-.075.25-.167.25-.091 0-.166.115-.166.255s-.113.298-.25.351c-.138.053-.25.162-.25.244 0 .135-.442.708-.959 1.243-.114.119-.208.297-.208.395 0 .098-.075.178-.167.178-.091 0-.166.117-.166.26 0 .143-.075.214-.167.157-.092-.057-.167.014-.167.157s-.112.26-.25.26c-.137 0-.241.056-.23.125.055.349-.04.548-.212.442-.116-.071-.147-.046-.08.064.111.178-.492.869-.759.869-.074 0-.135.098-.135.218s-.169.4-.375.621c-.207.222-.375.446-.375.498 0 .052-.207.301-.459.553-.252.252-.458.519-.458.593 0 .073-.225.369-.5.657-.275.288-.5.599-.5.691 0 .093-.085.169-.19.169-.232 0-.631.502-.638.803-.006.267-.413.697-.66.697-.098 0-.179.101-.179.224s-.15.36-.333.526c-.183.166-.333.365-.333.442 0 .078-.15.291-.334.474-.328.329-.333.556-.333 14.919v14.585l11.655-.006 11.654-.006.216-.488c.119-.268.386-.578.595-.69.209-.112.38-.303.38-.425s.075-.222.167-.222c.091 0 .166-.15.166-.333 0-.186.111-.334.25-.334.138 0 .25-.085.25-.188 0-.104.155-.324.345-.488.189-.164.339-.342.333-.394-.046-.4.019-.597.197-.601.115-.002.396-.267.625-.588.462-.645.754-1.02 1.247-1.602.182-.214.313-.445.292-.514-.021-.068.074-.125.211-.125.138 0 .25-.122.25-.272 0-.15.171-.431.381-.625.209-.194.404-.428.433-.519.029-.092.12-.148.203-.125.082.023.15-.109.15-.292s.075-.333.167-.333c.091 0 .166-.113.166-.25 0-.138.081-.25.179-.25.239 0 .519-.312.821-.917.138-.275.419-.637.625-.804.207-.167.375-.411.375-.541 0-.131.075-.238.167-.238.092 0 .167-.15.167-.334 0-.183.078-.333.174-.333.283 0 1.012-.813 1.038-1.158.013-.175.075-.287.137-.249.063.039.249-.135.413-.386.165-.251.473-.594.685-.761.212-.167.386-.417.386-.555 0-.139.263-.507.583-.819.321-.311.584-.641.584-.733 0-.091.243-.418.541-.725.298-.307.654-.772.792-1.033.137-.261.494-.713.792-1.003.298-.291.541-.652.541-.803 0-.151.113-.275.25-.275.138 0 .25-.096.25-.213 0-.117.15-.322.334-.454.183-.132.333-.317.334-.411 0-.095.337-.543.748-.997.534-.588.689-.862.541-.955-.161-.102-.158-.132.014-.134.265-.003.696-.41.696-.657 0-.099.085-.179.19-.179.232 0 .631-.502.638-.804.007-.271.415-.696.67-.696.104 0 .142-.076.085-.168-.057-.092.013-.213.156-.268.144-.055.261-.196.261-.314 0-.4.523-.417 13.18-.417 11.136 0 12.653-.03 12.653-.25 0-.137.086-.25.19-.25.232 0 .631-.502.638-.803.003-.121.119-.334.257-.472.139-.138.209-.32.157-.405-.052-.084.022-.153.165-.153.143 0 .26-.112.26-.25s.075-.25.167-.25c.091 0 .166-.112.166-.25s.075-.25.167-.25c.092 0 .167-.142.167-.316 0-.173.112-.358.25-.411.137-.053.25-.211.25-.351 0-.14.075-.255.166-.255.092 0 .167-.113.167-.25 0-.138.075-.25.167-.25.091 0 .166-.095.166-.21 0-.116.188-.413.417-.66.229-.247.417-.567.417-.712 0-.144.112-.305.249-.358.137-.052.207-.162.157-.244-.051-.083.008-.15.132-.15.123 0 .237-.167.252-.372.016-.205.107-.399.202-.431.096-.032.174-.168.174-.304 0-.135.075-.199.167-.143.092.057.167-.01.167-.149 0-.139.168-.424.375-.635.206-.211.4-.527.43-.703.031-.176.237-.462.459-.637.221-.174.402-.461.402-.638 0-.176.075-.321.167-.321.092 0 .167-.263.167-.583 0-.321-.07-.584-.156-.584-.085 0-.198-.131-.25-.291-.052-.161-.391-.592-.753-.959-.362-.366-.662-.76-.666-.875-.005-.114-.103-.208-.219-.208-.182 0-.683-.596-.701-.833-.003-.046-.249-.339-.547-.65-.298-.312-.542-.618-.542-.68 0-.063-.187-.214-.416-.337-.229-.123-.417-.365-.417-.538 0-.173-.075-.269-.167-.212-.091.057-.166-.051-.166-.24 0-.194-.109-.343-.25-.343-.138 0-.25-.117-.25-.26 0-.143-.075-.214-.167-.157-.092.057-.167.018-.167-.085 0-.239-.419-.665-.654-.665-.099 0-.179-.15-.179-.333 0-.184-.075-.334-.167-.334-.091 0-.166-.117-.166-.26 0-.142-.075-.213-.167-.156-.092.056-.167.004-.167-.117 0-.121-.261-.444-.579-.718-.319-.274-.582-.592-.584-.707-.002-.115-.084-.208-.182-.208-.314 0-.683-.461-.445-.557.164-.066.164-.086-.001-.097-.115-.007-.209-.113-.209-.235 0-.122-.187-.322-.416-.445-.229-.122-.417-.327-.417-.454 0-.128-.075-.186-.167-.129-.091.057-.166-.001-.166-.129 0-.127-.176-.326-.392-.441-.215-.115-.491-.465-.614-.778s-.322-.569-.442-.569-.219-.056-.219-.125c0-.11-.346-.566-1.038-1.371-.117-.135-.212-.274-.212-.309 0-.035-.394-.476-.875-.981S63 70.563 63 70.481c0-.081-.113-.148-.25-.148-.138 0-.252-.131-.255-.291-.006-.332-.722-1.209-.987-1.209-.096 0-.175-.08-.175-.178 0-.098-.107-.286-.238-.417S60.777 68 60.679 68c-.099 0-.179-.131-.179-.292 0-.34-.702-1.208-.978-1.208-.104 0-.189-.113-.189-.25 0-.138-.07-.25-.155-.25-.086 0-.207-.162-.269-.359-.063-.197-.406-.644-.762-.993s-.647-.713-.647-.808c0-.095-.08-.173-.179-.173-.185 0-.393-.188-.821-.741-.222-.287-.222-.309 0-.195.137.071.044-.061-.208-.293-.252-.232-.461-.482-.463-.555-.003-.073-.263-.32-.579-.55-.316-.229-.579-.529-.584-.666-.013-.329-.402-.834-.643-.834-.104 0-.19-.056-.19-.125 0-.189-.767-1.041-.937-1.041-.081 0-.254-.24-.384-.533-.628-1.419-2.611-2.818-2.906-2.051m-2.993 50.026c-.062.062-.113.21-.113.327 0 .118-.263.47-.583.781-.321.312-.584.657-.584.768 0 .111-.069.158-.154.106-.085-.053-.208.072-.274.278-.065.206-.314.565-.553.798-.673.655-1.137 1.244-.852 1.08.219-.127.22-.108.01.151-.197.242-.202.357-.029.633.172.276.17.317-.01.223-.122-.063-.015.076.237.308.252.232.459.58.459.773 0 .193.075.305.166.248.092-.056.167.008.167.143 0 .136.079.273.176.305.096.032.192.174.213.315.021.141.204.435.408.653.203.218.37.52.37.671 0 .15.187.374.416.497.262.14.417.367.417.611 0 .214.075.389.167.389.091 0 .166.139.166.31 0 .17.188.45.417.623.235.176.417.481.417.699 0 .216.074.342.166.284.092-.056.167.014.167.157s.112.26.25.26c.156 0 .25.157.25.417 0 .229.07.416.156.416s.251.263.367.584c.116.32.308.583.427.583s.217.154.217.343c0 .189.075.297.166.24.092-.056.167.052.167.24 0 .189.075.344.167.344.091 0 .166.109.166.242s.188.43.417.659c.439.439.649 2.765.25 2.765-.097 0-.167.549-.167 1.313 0 .973-.065 1.368-.253 1.524-.27.224-.184.815.151 1.036.221.146 33.685.168 34.227.022.215-.057.375-.23.375-.404 0-.168.075-.351.167-.407.092-.057.167-.286.167-.51 0-.224.075-.407.166-.407.092 0 .167-.155.167-.345 0-.19.112-.458.25-.595.138-.138.25-.391.25-.562 0-.171.075-.358.167-.415.091-.056.166-.328.166-.603 0-.291.07-.457.167-.397.152.094.182.013.233-.625.01-.114.126-.293.26-.398.287-.224-.19-1.047-1.221-2.109-.333-.343-.605-.688-.605-.767 0-.079-.112-.236-.248-.349-.137-.113-.208-.273-.157-.354.05-.081-.013-.148-.141-.148-.127 0-.332-.187-.454-.416-.123-.229-.286-.417-.362-.417-.076 0-.138-.104-.138-.232s-.113-.276-.25-.328c-.138-.053-.25-.211-.25-.351 0-.141-.075-.256-.167-.256-.092 0-.167-.08-.167-.178 0-.217-.418-.655-.626-.655-.083 0-.257-.206-.387-.458s-.48-.714-.778-1.026c-.298-.312-.542-.631-.542-.708 0-.078-.117-.141-.26-.141-.143 0-.219-.067-.168-.148.05-.081-.021-.241-.157-.354-.137-.113-.248-.271-.248-.35 0-.241-.55-.804-.697-.713-.075.046-.137 0-.137-.104s-.113-.302-.251-.44c-.139-.138-.209-.32-.157-.405.052-.084.015-.153-.082-.153s-.176-.112-.176-.25-.081-.25-.179-.25c-.213 0-.655-.417-.655-.618 0-.078-.146-.247-.324-.376-.178-.128-.287-.295-.24-.37.046-.075.005-.136-.092-.136-.098 0-.177-.085-.177-.189 0-.19-.824-.977-1.024-.977-.058-.001-.153-.186-.21-.413-.057-.227-.44-.759-.851-1.182-.412-.423-.748-.874-.748-1.001 0-.247-27.308-.375-27.554-.129"/><path fill="#3cb464" d="M90 .5c-.269.275-.566.5-.661.5-.095 0-.172.079-.172.177 0 .097-.075.13-.167.073-.092-.057-.167-.019-.167.083 0 .103-.075.14-.166.084-.092-.057-.167.014-.167.156 0 .143-.056.26-.125.261-.195 0-1.042.769-1.042.946 0 .087-.262.261-.583.387-.321.126-.583.29-.583.364 0 .075-.113.136-.25.136-.138 0-.25.08-.25.178 0 .235-.426.655-.665.655-.104 0-.142.075-.085.167.094.152-.113.226-.345.125-.053-.023-.169.089-.259.25-.089.16-.244.291-.344.291-.193 0-.968.834-.969 1.042 0 .069-.175.125-.389.125-.243 0-.471.155-.611.417-.123.229-.289.416-.369.416-.205 0-.964.782-.964.993 0 .096-.192.174-.427.174-.242 0-.382.072-.323.167.056.091.013.166-.096.166s-.446.263-.748.584c-.303.32-.631.583-.728.583-.098 0-.178.075-.178.167 0 .091-.15.166-.334.166-.185 0-.333.111-.333.25 0 .138-.056.25-.125.251-.217 0-1.042.779-1.042.984 0 .108-.105.175-.234.148-.13-.027-.618.307-1.087.742-.468.436-.961.792-1.095.792s-.291.187-.349.417c-.057.229-.171.416-.253.416-.081 0-.148.17-.148.377s-.161.477-.358.6c-.289.18-.313.252-.125.371.191.121.186.148-.032.15-.161.001-.353.267-.488.677-.123.371-.303.728-.402.792-.249.162-.595.811-.595 1.114 0 .139-.075.253-.167.253-.092 0-.167.114-.167.253s-.187.55-.416.913c-.229.363-.417.774-.417.914 0 .139-.075.253-.167.253-.091 0-.166.112-.166.25 0 .137-.117.25-.26.25-.143 0-.22.064-.172.142.048.078-.02.285-.152.458-.131.174-.241.448-.244.608-.003.161-.081.292-.172.292-.092 0-.167.15-.167.333 0 .184-.096.334-.214.334-.117 0-.23.198-.25.441-.02.243-.118.54-.217.66-.426.513.08.552 7.312.562 4.612.006 7.306.069 7.341.173.031.09.13.164.22.164.225 0 .703.493.589.608-.051.05.128.306.397.569.269.263.489.522.489.575 0 .176.815.914 1.01.914.106 0 .151.107.101.237-.1.261.403.93.7.93.104 0 .189.078.189.174 0 .226.766.993.992.993.096 0 .176.131.178.291.002.161.415.737.917 1.281.502.544.913 1.05.913 1.125 0 .075.112.136.25.136.157 0 .25.159.25.427 0 .241.072.381.166.323.092-.057.167.014.167.157s.08.26.179.26c.211 0 .654.416.654.615 0 .076.186.279.414.449.227.171.382.362.343.425-.039.062.413.626 1.003 1.252.591.626 1.074 1.185 1.074 1.24 0 .056.225.364.5.685.274.321.499.64.499.709 0 .068.081.125.179.125.294 0 .655.452.655.821 0 .202.108.345.26.345.143 0 .213.075.157.167-.057.092.014.167.156.167.143 0 .26.078.26.174 0 .226.767.992.993.992.096 0 .174.113.174.25 0 .138.07.25.155.25.086 0 .203.149.261.331.058.182.325.552.594.821.27.269.49.557.49.641 0 .083.188.251.417.374.229.123.419.342.422.486.005.29.378.847.566.847.148 0 .595.439.595.584 0 .173.461.583.655.583.183 0 .245.226.182.667-.019.137.013.203.071.145.102-.1 1.092.782 1.092.973 0 .051.133.214.297.362.163.148.39.457.505.686.114.23.171.286.125.125-.046-.16-.011-.291.078-.291s.162.159.162.353c0 .201.323.663.75 1.072.412.395.75.799.75.897 0 .098.09.159.2.136.111-.023.205.048.209.158.004.11.101.294.216.409.114.114.208.278.208.365 0 .254.553.599.97.604.385.006.863-.337.863-.618 0-.081.26-.249.577-.374.317-.124.616-.33.665-.458.049-.128.165-.185.257-.128.092.057.168.019.168-.085 0-.239.42-.665.655-.665.098 0 .179-.131.181-.291.002-.25.026-.256.164-.042.106.164.162.179.164.043.002-.114.262-.376.579-.583.317-.207.668-.545.778-.752.111-.206.302-.375.424-.375s.222-.075.222-.166c0-.092.15-.167.333-.167.185 0 .333-.111.333-.25 0-.138.057-.25.125-.25.213-.001 1.042-.778 1.042-.978 0-.104.15-.189.333-.189.184 0 .334-.075.334-.166 0-.092.076-.167.169-.167.094 0 .425-.263.736-.583.312-.321.616-.584.676-.584.06 0 .222-.113.361-.251.138-.139.32-.209.404-.157.085.052.154-.022.154-.165 0-.143.056-.26.125-.26.213-.001 1.041-.778 1.041-.978 0-.104.113-.189.25-.189.138 0 .25-.075.25-.166 0-.092.15-.167.334-.167.19 0 .333-.111.333-.26 0-.143.061-.222.136-.175.075.046.393-.212.705-.574.312-.362.701-.658.864-.658.45 0 .454-8.594.003-9.093-.545-.604-1.208-1.55-1.208-1.724 0-.095-.126-.124-.279-.065-.211.081-.253.039-.172-.17.067-.176-.045-.428-.305-.688-.226-.226-.411-.565-.411-.752 0-.188-.08-.341-.178-.341-.231 0-.655-.424-.655-.655 0-.098-.075-.178-.167-.178-.091 0-.166-.115-.166-.256 0-.14-.113-.298-.25-.351-.138-.052-.25-.194-.25-.314s-.065-.243-.145-.274c-.08-.03-.193-.211-.252-.402-.131-.42.44-1.166.747-.976.121.075.158.054.093-.051-.119-.193.855-1.318 1.082-1.251.078.023.141-.036.141-.131 0-.21.948-1.158 1.053-1.053.042.042.107-.191.145-.516.056-.484.014-.592-.231-.592-.165 0-.3-.08-.3-.179 0-.22-.275-.501-.874-.892-.251-.164-.408-.377-.349-.473.06-.097.028-.125-.071-.064-.099.061-.292-.002-.431-.14-.138-.139-.302-.252-.364-.252s-.261-.188-.441-.417c-.18-.229-.477-.416-.659-.416-.182 0-.284-.075-.228-.167.057-.092-.014-.167-.156-.167-.143 0-.26-.08-.26-.178 0-.231-.424-.655-.655-.655-.098 0-.179-.075-.179-.167 0-.091-.195-.166-.434-.166-.318 0-.409-.068-.339-.25.054-.14.005-.25-.112-.25-.114 0-.316-.15-.448-.334-.132-.183-.336-.333-.453-.333-.118 0-.214-.117-.214-.26 0-.143-.069-.217-.153-.165-.084.052-.266-.018-.405-.157-.138-.138-.297-.251-.354-.251-.057 0-.29-.188-.519-.417-.23-.229-.47-.417-.535-.417-.188-.001-1.301-.999-1.117-1.002.188-.003-.435-.391-1.125-.699-.252-.113-.458-.268-.458-.346 0-.151-.996-1.036-1.167-1.036-.193 0-1.167-.895-1.167-1.073 0-.097-.117-.177-.26-.177-.142 0-.213-.075-.156-.167.056-.091-.057-.166-.252-.166-.383 0-.832-.359-.832-.665 0-.104-.075-.142-.168-.085-.092.057-.212-.013-.267-.156-.055-.144-.209-.261-.342-.261-.133 0-.196-.075-.139-.167.058-.094-.082-.166-.324-.166-.234 0-.426-.081-.426-.179 0-.235-.426-.655-.665-.655-.104 0-.142-.075-.085-.166.056-.092-.014-.167-.157-.167s-.26-.067-.26-.149c0-.081-.191-.196-.423-.254-.233-.059-.379-.18-.324-.269.055-.089.015-.161-.088-.161-.231 0-.665-.417-.665-.637 0-.088-.189-.208-.421-.266-.231-.058-.719-.404-1.083-.768-.365-.365-.813-.663-.996-.663-.183 0-.333-.094-.333-.21 0-.116-.203-.36-.45-.542-.247-.182-.649-.537-.893-.789s-.534-.459-.646-.459c-.25 0-.678-.413-.678-.654 0-.099-.15-.179-.333-.179-.184 0-.334-.075-.334-.167 0-.091-.086-.166-.191-.166-.105 0-.447-.263-.758-.584-.312-.321-.643-.583-.735-.583-.093 0-.121-.077-.063-.171.058-.094.044-.16-.032-.147-.397.069-.721-.042-.721-.248 0-.649-1.68-.602-2.333.066m89.248 63.333c0 17.646.02 24.865.044 16.042.023-8.823.023-23.26 0-32.083-.024-8.823-.044-1.604-.044 16.041"/><path fill="#0c2c4c" d="M179.387 31.476c-.12.193-.137.374-.042.469.093.093.171 12.908.196 32.396l.042 32.242h15.436l-.014-13.541-.014-13.542h2.004c2.068 0 2.111.014 2.033.684-.007.056.172.2.397.32.375.201.501.48.414.913-.018.091.017.116.078.055.143-.143.75.46.75.747 0 .12.15.379.333.576.183.197.333.436.333.531 0 .096.113.174.25.174.138 0 .25.089.25.198 0 .312.728 1.3.959 1.301.114 0 .208.137.208.303 0 .166.15.463.333.66.184.196.334.463.334.591 0 .129.187.374.416.547.23.172.419.426.422.565.006.28.383.835.567.835.223 0 .595.476.595.76 0 .156.261.531.581.832.372.351.507.578.375.632-.163.065-.162.086.002.096.115.007.208.126.208.263 0 .138.081.25.179.25.27 0 .655.441.655.75 0 .31.384.75.654.75.099 0 .179.171.179.38s.15.488.333.62c.184.132.334.344.334.47 0 .127.262.493.583.814.321.321.583.726.583.9 0 .174.113.316.25.316.138 0 .25.113.25.25 0 .138.075.25.167.25.092 0 .168.169.169.375.002.304.034.327.164.125.131-.201.162-.176.164.131.002.209.115.423.253.476.137.052.25.191.25.307 0 .117.112.305.248.418.137.113.214.261.173.329-.042.067.109.221.335.342.354.19.485.444.438.848-.006.056.157.192.364.302.46.247.875.847.585.847-.107 0-.033.14.165.312.197.171.359.396.359.5 0 .103.085.188.19.188.256 0 .631.515.638.875.003.161.08.292.172.292.091 0 .166.094.167.208 0 .115.305.496.679.847.415.391.642.734.585.884-.052.135-.025.202.059.151.084-.052.2.056.259.241s.176.336.262.336c.085 0 .155.111.155.248 0 .217 1.146.243 9.209.208l9.208-.04.051-.354c.027-.195-.066-.471-.209-.613-.142-.142-.259-.305-.259-.362 0-.202-.907-1.003-1.077-.95-.097.03-.087-.034.022-.145.149-.151.061-.332-.375-.767-.313-.314-.57-.68-.57-.814 0-.135-.075-.245-.166-.245-.092 0-.167-.104-.167-.232 0-.223-.449-.516-.708-.461-.069.015-.125-.182-.125-.437 0-.272-.138-.562-.334-.703-.183-.132-.333-.334-.333-.448 0-.117-.11-.166-.25-.112-.169.064-.25-.008-.25-.224 0-.176-.15-.481-.333-.678-.184-.196-.334-.469-.334-.605 0-.327-.282-.491-.389-.226-.05.124-.09.088-.098-.089-.007-.164-.163-.46-.346-.656-.183-.197-.333-.494-.333-.66 0-.166-.107-.302-.236-.302-.13 0-.332-.217-.45-.482-.14-.316-.298-.45-.459-.388-.182.07-.217.016-.131-.205.081-.212-.036-.444-.394-.786-.279-.267-.467-.553-.417-.634.051-.082.004-.203-.103-.269-.122-.076-.151-.049-.076.072.065.105.039.192-.058.192s-.176-.15-.176-.333c0-.184-.075-.334-.167-.334-.092 0-.167-.112-.167-.25 0-.137-.075-.25-.166-.25-.092 0-.167-.154-.167-.343 0-.189-.076-.296-.168-.239-.092.057-.219-.033-.283-.199-.063-.166-.289-.44-.502-.609-.214-.169-.368-.431-.343-.583.026-.152-.048-.258-.162-.235-.115.023-.209-.071-.209-.208 0-.138-.075-.25-.166-.25-.092 0-.169-.132-.172-.292-.006-.32-.373-.875-.578-.875-.209 0-.573-.557-.578-.885-.003-.166-.081-.255-.172-.198-.092.056-.167-.006-.167-.138s-.187-.364-.417-.514c-.229-.15-.419-.402-.422-.561-.005-.308-.371-.871-.566-.871-.234 0-.595-.482-.595-.793 0-.174-.187-.417-.417-.54-.229-.123-.416-.366-.416-.54 0-.345-.37-.793-.655-.793-.098 0-.179-.081-.179-.179 0-.098-.113-.292-.251-.43-.139-.138-.209-.32-.157-.405.052-.084.015-.153-.082-.153s-.176-.113-.176-.25c0-.138-.113-.25-.25-.25-.139 0-.25-.148-.25-.333 0-.184-.11-.334-.245-.334-.16 0-.208-.096-.138-.277.071-.186.042-.238-.089-.157-.117.072-.195.017-.195-.139 0-.143-.113-.26-.25-.26-.138 0-.251-.131-.251-.292-.001-.16-.335-.629-.743-1.041-.421-.427-.744-.912-.748-1.125-.005-.209-.101-.357-.216-.334-.115.023-.19-.052-.167-.166.023-.115-.071-.209-.208-.209-.138 0-.25-.146-.25-.325 0-.334-.722-1.175-1.008-1.175-.087 0-.159-.079-.159-.176 0-.097.094-.12.208-.052.258.155-.141-.379-.665-.889-.207-.202-.377-.502-.379-.666-.002-.255-.027-.262-.164-.05-.134.208-.163.193-.169-.083-.01-.396-.374-.917-.641-.917-.105 0-.19-.187-.19-.417 0-.271.093-.416.268-.416.167 0 .232-.092.174-.245-.052-.135-.011-.296.091-.359.12-.074.138-.038.05.104-.089.144-.069.178.058.099.106-.065.192-.232.192-.371 0-.278.389-.728.628-.728.169 0 .616-.838.564-1.054-.018-.076.044-.09.138-.032.093.058.17.045.17-.03 0-.074.296-.458.658-.854.377-.413.618-.82.565-.958-.053-.139.008-.239.148-.239.132 0 .34-.187.463-.417.122-.229.29-.416.373-.416.246 0 .627-.456.627-.75 0-.27.373-.75.583-.75.187 0 .498-.406.551-.718.066-.391.553-.956.729-.847.075.046.137-.033.137-.175 0-.143.075-.26.166-.26.092 0 .167-.117.167-.26 0-.143.075-.214.167-.157.095.059.166-.088.166-.341 0-.327.067-.419.25-.349.153.059.25.001.25-.149 0-.134.075-.244.167-.244.092 0 .167-.081.167-.179 0-.231.424-.655.654-.655.099 0 .179-.155.179-.345 0-.327.351-.821.583-.821.21 0 .584-.481.584-.75 0-.31.384-.75.654-.75.099 0 .179-.079.179-.175 0-.095.192-.366.427-.601.236-.235.389-.528.342-.651-.055-.143.001-.19.156-.13.139.053.242-.005.242-.139 0-.127.15-.339.333-.471.183-.132.333-.336.333-.453 0-.118.095-.214.21-.214.116 0 .309-.158.429-.35.121-.193.139-.301.04-.241-.317.197-.19-.079.23-.5.225-.225.488-.409.584-.409.096 0 .174-.112.174-.25 0-.137.075-.25.167-.25.091 0 .166-.187.166-.416 0-.229.077-.417.17-.417.363 0 1.291-1.139 1.099-1.348-.138-.149-.132-.171.023-.083.128.072.208.017.208-.142 0-.143.081-.26.179-.26.231 0 .655-.424.655-.655 0-.098.085-.179.19-.179.232 0 .63-.502.638-.803.006-.28.418-.697.688-.697.113 0 .157-.048.097-.108-.059-.06.082-.285.315-.5.232-.215.334-.392.226-.392-.108 0 .151-.332.575-.738.424-.406.771-.787.771-.846 0-.058.093-.211.208-.338.476-.531.625-.737.625-.864 0-.074.188-.275.417-.447.229-.173.416-.421.416-.552 0-.273.396-.715.641-.715.09 0 .151-.243.137-.541l-.028-.542-8.552-.043c-9.036-.046-9.031-.046-9.031.693 0 .141-.094.22-.209.176-.114-.044-.301.068-.414.249-.178.286-.167.316.084.226.159-.057-.031.207-.423.586-.391.379-.71.728-.708.776.017.433-.015.483-.163.254-.136-.21-.162-.2-.164.063-.002.173-.266.562-.586.864-.321.303-.584.673-.584.823 0 .288-.379.75-.614.75-.077 0-.232.15-.347.333-.153.245-.157.333-.014.333.107 0-.024.188-.29.417-.267.229-.541.416-.61.416-.068.001-.125.113-.125.251 0 .137-.075.25-.166.25-.092 0-.167.116-.167.258 0 .142-.187.431-.417.644-.229.212-.416.475-.416.585 0 .109-.075.153-.167.096-.095-.058-.167.082-.167.323 0 .235-.064.427-.144.427-.239 0-1.024.863-.927 1.02.05.081.007.147-.095.147-.103 0-.133.086-.068.192.074.12.046.147-.074.073-.112-.069-.242.008-.309.182-.062.167-.193.394-.29.505-.469.54-.529.655-.458.87.053.157-.009.198-.195.126-.177-.068-.273-.018-.273.14 0 .135-.075.245-.167.245-.091 0-.166.117-.166.26 0 .143-.075.213-.167.157-.096-.06-.168.096-.169.365-.002.366-.039.413-.167.218-.137-.209-.181-.188-.267.125-.056.206-.169.375-.25.375-.081 0-.147.112-.147.25 0 .137-.075.25-.167.25-.091 0-.166.113-.166.25 0 .138-.084.231-.187.208-.102-.023-.208.088-.234.247-.027.159-.318.543-.647.853-.33.311-.599.66-.599.776 0 .116-.183.381-.406.588-.224.207-.361.422-.306.477.056.056-.008.101-.141.101-.134 0-.254.151-.268.335-.024.323-.409.832-.629.832-.168 0-.576.451-.488.539.044.044-.035.175-.175.291-.139.116-.254.314-.254.44s-.112.23-.25.23c-.137 0-.25.108-.25.24 0 .133-.166.358-.37.5-.204.143-.278.26-.165.26.161 0 .16.071-.003.333-.115.183-.271.333-.347.333-.198 0-.615.444-.615.655 0 .098-.093.18-.208.181-.139.002-.125.057.042.164.221.143.22.162-.005.164-.14.002-.363.153-.495.336-.217.301-.432.334-2.207.334h-1.966L195 43.875c.003-6.76.005-12.383.003-12.494-.006-.391-15.371-.298-15.616.095M250.333 45.5c0 .092-.412.167-.916.167-.505 0-.917.075-.917.166 0 .092-.263.167-.583.167-.408 0-.584.075-.584.25 0 .156-.157.25-.416.25-.229 0-.417.075-.417.167 0 .091-.155.166-.345.166-.369 0-.822.361-.822.655 0 .098-.117.179-.26.179-.142 0-.213.075-.156.166.056.092.018.167-.086.167-.239 0-.664.42-.664.655 0 .098-.081.178-.179.178-.269 0-.655.441-.655.748 0 .15-.075.226-.166.169-.092-.057-.167.051-.167.24 0 .194-.109.343-.25.343-.138 0-.241.057-.23.125.074.468-.033.779-.187.542-.13-.202-.162-.178-.164.125-.001.206-.061.375-.134.375-.072 0-.149.235-.171.523-.047.625-.165.85-.376.72-.086-.053-.155.205-.155.58 0 .373-.075.677-.166.677-.092 0-.167.337-.167.75s-.075.75-.167.75c-.092 0-.166.444-.166 1 0 .778-.056 1-.25 1-.207 0-.25.306-.25 1.75 0 1.056-.066 1.75-.167 1.75-.224 0-.23 19.45-.007 19.528.089.03.172.905.186 1.943.019 1.439.08 1.908.256 1.976.157.06.232.372.232.974 0 .486.073.91.164.94.09.031.177.409.193.841.016.431.092.746.169.698.077-.047.143.087.146.298.003.212.115.531.25.709.134.178.244.497.244.708 0 .212.075.385.167.385.092 0 .167.144.167.319 0 .176.079.346.175.378.097.033.195.186.218.341.022.156.206.426.407.6.202.175.366.438.366.586 0 .148.188.391.417.541.229.15.417.35.417.443 0 .275.888.958 1.25.961.266.002.285.033.092.155-.19.12-.145.177.208.266.247.062.45.18.45.261 0 .082.142.149.315.149.174 0 .359.112.412.25.052.138.248.25.434.25s.339.075.339.167c0 .091.337.166.75.166.412 0 .75.075.75.167 0 .096.527.167 1.25.167.695 0 1.25.071 1.25.161 0 .089-.132.119-.292.068-.246-.079-.252-.066-.042.085.434.311 23.667.243 23.667-.069 0-.135.079-.245.177-.245.097 0 .123.093.058.208-.094.167-.072.167.107 0 .126-.117.649-.208 1.191-.208.534 0 .967-.075.967-.167 0-.092.258-.167.573-.167.316 0 .62-.075.677-.166.057-.092.245-.167.419-.167s.503-.187.733-.417c.229-.229.557-.416.729-.416.172 0 .413-.188.536-.417.122-.229.335-.417.472-.417.138 0 .207-.042.155-.094-.118-.119.8-1.072 1.034-1.072.094 0 .153-.094.13-.209-.023-.114.052-.189.167-.166.122.024.208-.131.208-.375 0-.23.075-.417.167-.417.092 0 .167-.112.167-.25 0-.137.092-.231.204-.208.112.023.23-.127.262-.334.031-.206.127-.375.212-.375.085 0 .155-.187.155-.416 0-.229.075-.417.167-.417.091 0 .166-.271.166-.601 0-.426.064-.577.217-.518.151.058.23-.104.258-.524.022-.334.112-.632.199-.663.088-.03.16-.371.16-.758 0-.386.093-.804.208-.927.167-.18.167-.201 0-.107-.115.065-.208.038-.208-.059s.075-.176.166-.176c.098 0 .167-.584.167-1.417 0-.925.064-1.417.184-1.417.102 0 .14.117.086.259-.055.142-.032.217.051.166.083-.052.16-1.345.171-2.874.014-1.905.084-2.86.222-3.031.16-.198.159-.224-.006-.125-.131.079-.208.029-.208-.135 0-.143.069-.26.154-.26.091 0 .158-2.223.165-5.416.008-4.085-.038-5.417-.187-5.417-.153 0-.152-.046.001-.2.11-.11.199-.279.198-.375-.002-.096-.075-.063-.164.075-.108.166-.163-.763-.164-2.782-.002-2.132-.061-3.067-.198-3.152-.132-.082-.16-.029-.085.165.065.17.043.245-.055.184-.091-.056-.165-.73-.165-1.498 0-.769-.075-1.444-.167-1.5-.091-.057-.166-.394-.166-.75s-.075-.694-.167-.75c-.092-.057-.167-.474-.167-.927 0-.57-.064-.811-.208-.782-.117.024-.231-.159-.261-.416-.029-.252-.123-.459-.208-.459-.086 0-.156-.249-.156-.555 0-.421-.1-.609-.417-.778-.261-.14-.416-.368-.416-.611 0-.214-.063-.389-.139-.389-.076 0-.239-.187-.361-.417-.123-.229-.323-.416-.445-.416s-.222-.142-.222-.316c0-.173-.117-.36-.261-.415-.145-.056-.207-.186-.14-.294.074-.121.046-.149-.074-.074-.109.067-.238.005-.294-.141-.055-.143-.242-.26-.415-.26-.174 0-.316-.113-.316-.25 0-.138-.113-.25-.25-.25-.138 0-.25-.075-.25-.167 0-.092-.15-.167-.333-.167-.184 0-.334-.075-.334-.166 0-.092-.187-.167-.416-.167-.23 0-.417-.097-.417-.216 0-.131-.246-.232-.625-.257-.344-.023-.65-.113-.681-.201-.03-.088-.386-.159-.791-.159s-.736-.075-.736-.167c0-.11-4.417-.167-12.917-.167s-12.917.057-12.917.167m46.111-.056c-.138.139-.148 50.598-.01 50.959.091.235.9.264 7.417.264h7.316V57h16.5v39.654l7.416.009 7.417.01v-20.17c0-13.335-.056-20.17-.167-20.17-.091 0-.166-.079-.166-.176 0-.097.093-.124.208-.059.167.094.167.073 0-.107-.134-.145-.209-.76-.211-1.733-.002-1.035-.053-1.43-.164-1.258-.117.181-.162.031-.164-.542-.002-.591-.066-.791-.253-.791-.302 0-.332-.273-.041-.39.166-.067.166-.087 0-.097-.115-.007-.209-.201-.209-.43 0-.229-.075-.417-.166-.417-.092 0-.167-.101-.167-.225s-.182-.422-.404-.662c-.222-.239-.452-.588-.511-.774-.059-.186-.182-.339-.273-.339-.091 0-.111-.086-.046-.192.07-.114.046-.147-.06-.082-.099.061-.292-.002-.431-.141-.138-.138-.35-.252-.471-.254-.168-.002-.163-.039.021-.155.189-.12.144-.177-.209-.266-.247-.062-.449-.179-.449-.261 0-.082-.139-.149-.309-.149-.17 0-.512-.187-.759-.416-.247-.229-.633-.417-.858-.417-.224 0-.408-.063-.408-.139 0-.077-.311-.152-.691-.167-.38-.015-.807-.121-.948-.235-.206-.167-.233-.167-.133-.001.069.115.05.209-.041.209-.092 0-.213-.075-.27-.167-.066-.107-2.974-.167-8.177-.167-5.271 0-8.073.058-8.073.167 0 .092-.155.167-.345.167-.411 0-.886.427-.739.665.057.092-.019.168-.168.168-.312 0-.748.387-.748.665 0 .103-.075.142-.167.085-.091-.057-.166.014-.166.157s-.057.26-.125.26c-.19 0-1.042.767-1.042.937 0 .082-.158.248-.351.368-.193.121-.301.139-.24.04.163-.263-.061-.218-.349.071-.15.15-.175.25-.062.25.104 0 .142.075.085.167-.056.092-.253.167-.436.167s-.297.059-.252.131c.045.073-.138.279-.406.459-.269.179-.488.383-.489.451 0 .069-.075.125-.167.125-.104 0-.166-1.027-.166-2.75v-2.75h-7.306c-4.018 0-7.355.05-7.417.111m66.723.056c.177.115-.028.162-.709.164-.527.002-.958.078-.958.169 0 .092-.079.167-.177.167-.097 0-.132-.072-.077-.16.054-.087-.105-.054-.354.075-.248.129-.512.197-.586.151-.075-.046-.091.033-.036.175.079.207-.032.259-.549.259-.456 0-.718.098-.888.333-.132.184-.339.334-.461.334s-.395.187-.607.416c-.213.23-.44.417-.504.417-.182 0-.594.455-.594.655 0 .098-.07.178-.156.178-.085 0-.203.151-.262.336-.058.185-.188.286-.287.224-.099-.061-.133-.034-.075.06.058.093-.08.386-.307.65-.227.264-.335.506-.239.538.095.032.008.201-.193.375-.201.175-.275.317-.164.317.111 0 .155.077.098.17-.058.093-.175.126-.26.073-.086-.053-.155.096-.155.331 0 .234-.075.426-.167.426-.092 0-.167.258-.167.574 0 .315-.075.62-.166.676-.092.057-.167.444-.167.861 0 .559-.058.736-.22.674-.159-.061-.23.128-.259.691-.021.426-.11.799-.197.83-.086.03-.157.129-.157.218s.075.116.166.06c.092-.057.167-.024.167.073s-.075.177-.167.177c-.093 0-.166.467-.166 1.069 0 .708-.071 1.093-.209 1.139-.153.051-.216.759-.237 2.668-.017 1.513-.106 2.742-.213 2.942-.233.435-.233 13.71 0 13.342.202-.32.208-.24.164 2.014-.029 1.455.027 2.08.228 2.562.147.351.267 1.079.267 1.617 0 .542.074.98.166.98.092 0 .167.079.167.177 0 .097-.094.12-.208.051-.164-.098-.166-.072-.009.121.11.136.218.561.24.944.023.386.139.733.259.78.124.047.218.343.218.682 0 .329.064.559.141.511.078-.049.149.152.157.445.008.293.095.559.192.591.097.033.177.325.177.649 0 .509.034.561.253.379.211-.174.238-.167.158.042-.054.138.02.369.162.511.143.143.26.415.26.605s.056.345.125.346c.069 0 .343.187.609.416.267.229.384.417.26.417-.142 0-.094.12.134.333.197.183.474.333.615.333.141 0 .257.081.257.179 0 .27.441.655.75.655.151 0 .383.109.517.243.133.133.353.2.488.148.153-.058.245.007.245.174 0 .147.056.259.125.248.36-.057.717.038.636.169-.104.168.697.315 2.656.485.975.085 1.321.175 1.287.337-.029.138.096.209.334.19.208-.017 4.785-.023 10.17-.013l9.792.019.029 1.041.029 1.042.098-1.083.099-1.084.083 1.167c.045.642.055 2.08.022 3.196l-.061 2.029-12.191-.05c-6.705-.028-11.61-.02-10.9.019.731.04 1.292.145 1.292.242 0 .109-.522.152-1.424.118l-1.424-.054.025 1.958c.015 1.125.094 1.959.187 1.959.202 0 .636.427.636.626 0 .083.188.251.417.374.229.122.416.288.416.369 0 .205.782.964.993.964.096 0 .174.155.174.345 0 .375.397.87.563.703.057-.057.104-.009.104.107 0 .249.956 1.178 1.212 1.178.097 0 .134.043.083.094-.123.123 1.038 1.307 1.427 1.456.164.063.252.19.195.282-.069.113 3.749.168 11.489.168 7.618 0 11.594-.057 11.594-.166 0-.097.524-.167 1.24-.167 1.142 0 1.724-.186 1.219-.389-.115-.047.147-.091.582-.098.436-.007.792-.088.792-.18 0-.091.188-.166.417-.166.229 0 .416-.075.416-.167 0-.092.123-.167.274-.167.283 0 1.226-.882 1.226-1.146 0-.083.121-.14.269-.127.148.013.354-.122.458-.299.105-.177.378-.52.607-.763.816-.866.99-1.139.781-1.224-.146-.06-.143-.084.01-.094.115-.007.209-.163.209-.347 0-.185.111-.333.25-.333.155 0 .25-.157.25-.417 0-.229.075-.416.166-.416.092 0 .167-.375.167-.834 0-.458.075-.833.167-.833.11 0 .166-10.139.166-30.083V45.333h-14.5l-.019 2.792c-.011 1.535-.01 2.867.002 2.958.012.092-.08.037-.205-.122-.125-.159-.288-.234-.363-.167-.074.068-.08.028-.014-.087.073-.126.002-.255-.177-.323-.387-.149-1.218-1-1.096-1.123.052-.052-.002-.094-.12-.094-.117 0-.437-.244-.711-.542-.273-.298-.449-.429-.391-.292.059.138.01.113-.108-.055-.45-.643-.798-.988-.798-.794 0 .111-.076.155-.169.098-.093-.058-.125-.177-.071-.264.054-.088-.001-.139-.122-.114-.122.025-.202-.048-.179-.162.023-.115-.071-.209-.209-.209-.137 0-.25-.075-.25-.166 0-.092-.112-.167-.25-.167-.137 0-.25-.078-.25-.174 0-.096-.184-.359-.409-.584l-.409-.409-7.799.003c-5.097.002-7.713.058-7.549.164M272 70.75V84.5h-17.667V57H272v13.75m112.833 0V84.5h-17.5V57h17.5v13.75m-18.083 32.417c-.058.094-.866.166-1.853.166-1.124 0-1.713-.059-1.647-.166.058-.094.866-.167 1.853-.167 1.124 0 1.713.06 1.647.167"/><path fill="#28bc94" d="M121 23.417c0 .137.075.25.167.25.091 0 .166-.113.166-.25 0-.138-.075-.25-.166-.25-.092 0-.167.112-.167.25m-2.909 3.341c-.233.233-.424.508-.424.611 0 .102.018.155.041.116.023-.038.262-.313.532-.611.578-.639.463-.729-.149-.116m-17.307 27.487c.165.226.369.414.453.416.085.003-.022-.182-.237-.411-.5-.532-.601-.534-.216-.005m-41.459 4.996c.22.234.425.426.455.426.151 0-.389-.673-.606-.756-.137-.053-.069.095.151.33m45.842.342c0 .138.121.25.27.25.222 0 .233-.045.063-.25-.114-.137-.236-.25-.27-.25-.035 0-.063.113-.063.25m6.166 69.5c0 .138.075.25.167.25.092 0 .167-.112.167-.25 0-.137-.075-.25-.167-.25-.092 0-.167.113-.167.25"/><path fill="#2c484c" d="M195.079 44c0 6.737.021 9.494.046 6.125.025-3.369.025-8.881 0-12.25-.025-3.369-.046-.613-.046 6.125m-15.664 20c0 17.646.019 24.865.043 16.042.024-8.823.024-23.261 0-32.084-.024-8.823-.043-1.604-.043 16.042m173.202 0c-.049.137-.13.475-.18.75l-.09.5.251-.56c.138-.308.219-.645.179-.75-.045-.12-.104-.098-.16.06M195.079 82.667c0 7.287.021 10.268.046 6.625.025-3.644.025-9.607 0-13.25-.025-3.644-.046-.663-.046 6.625M384.717 97.5c0 .504.031.71.069.458.038-.252.038-.664 0-.916s-.069-.046-.069.458m-4.75 5.458c.945.03 2.445.029 3.334-.001.888-.029.116-.054-1.718-.054-1.833.001-2.56.025-1.616.055m-19.55.209c-.066.106.387.166 1.24.166.784 0 1.343-.069 1.343-.166s-.524-.167-1.24-.167c-.682 0-1.287.075-1.343.167m2.833 0c-.066.107.523.166 1.647.166.987 0 1.795-.072 1.853-.166.066-.107-.523-.167-1.647-.167-.987 0-1.795.073-1.853.167"/></g></svg>