<svg xmlns="http://www.w3.org/2000/svg" role="img" viewBox="11.22 0.22 1028.56 401.56"><title>Linux Distributions Working Group logo</title><defs><clipPath id="clip-path"><path d="M115.33066 22.86833l-74.892 43.24a18.3191 18.3191 0 0 0-9.16 15.86531v86.476a18.31905 18.31905 0 0 0 9.16 15.86531l74.892 43.23869a18.32263 18.32263 0 0 0 18.32 0l74.89067-43.23869a18.31907 18.31907 0 0 0 9.16-15.86531v-86.476a18.31907 18.31907 0 0 0-9.16-15.86531l-74.89066-43.24a18.31376 18.31376 0 0 0-9.16-2.45467 18.31375 18.31375 0 0 0-9.16 2.45467" class="cls-1"/></clipPath><clipPath id="clip-path-2"><path d="M57.662 67.68h273.736v255.14H57.662z" class="cls-1"/></clipPath><style>.cls-1{fill:none}.cls-8{fill:#002a3a}.cls-9{fill:#0033a1}</style></defs><g id="g10"><g id="g12"><g id="g14"><g id="g20"><path id="path22" fill="#2b7de1" d="M208.542 66.10779L133.65 22.86912a18.3202 18.3202 0 0 0-18.31867 0l-74.892 43.23867a18.31912 18.31912 0 0 0-9.16 15.86533v86.47733a18.32076 18.32076 0 0 0 9.16 15.86534l74.892 43.23866a18.32015 18.32015 0 0 0 18.31867 0l74.892-43.23867a18.32075 18.32075 0 0 0 9.16-15.86534V81.97311a18.31912 18.31912 0 0 0-9.16-15.86532"/></g></g></g><g id="g24" clip-path="url(#clip-path)"><g id="g26"><g id="g32"><g id="g46" clip-path="url(#clip-path-2)"><g id="g44" opacity=".4"><g id="g42"><path id="path40" fill="#231f20" d="M331.25692 226.22122v-.05866l-.14-.08134v-.05866l-.14-.08134v-.05866l-.14-.08134v-.05866l-.14-.08134v-.05866l-.14-.08134v-.05866l-.14-.08134v-.05866l-.14-.08134v-.05866l-.14-.08134v-.05866l-.14-.08134v-.05866l-.14-.08134v-.05866l-.13867-.08134v-.05866l-.14-.08v-.06l-.14-.08v-.06l-.14-.08v-.06l-.14-.08v-.06l-.14-.08v-.06l-.14-.08v-.06l-.14-.08v-.06l-.14-.08v-.05867l-.14-.08133v-.05867l-.14-.08133v-.05867l-.14-.08133v-.05867l-.14-.08133v-.05867l-.14-.08133v-.05867l-.14-.08133v-.05867l-.14-.08133v-.05867l-.14-.08133v-.05867l-.14-.08133v-.05867l-.14-.08133v-.05867l-.14-.08133v-.05867l-.14-.08133v-.05867l-.13867-.08v-.06l-.14-.08133v-.05867l-.14-.08v-.06l-.14-.08v-.06l-.14-.08v-.06l-.14-.08v-.06l-.14-.08v-.06l-.14-.08v-.06l-.14-.08v-.05867l-.14-.08133v-.05867l-.14-.08133v-.05867l-.14-.08133v-.05867l-.14-.08133v-.05867l-.14-.08133v-.05867l-.14-.08133v-.05867l-.14-.08133v-.05867l-.14-.08133v-.05867l-.14-.08133v-.05867l-.14-.08133v-.05867l-.14-.08133v-.05867l-.14-.08133v-.05867l-.13866-.08v-.06l-.14-.08v-.06l-.14-.08v-.06l-.14-.08v-.06l-.14-.08v-.06l-.14-.08v-.06l-.14-.08v-.06l-.14-.08v-.06l-.14-.08v-.06l-.14-.08v-.05866l-.14-.08134v-.05866l-.14-.08134v-.05866l-.14-.08134v-.05866l-.14-.08134v-.05866l-.14-.08134v-.05866l-.14-.08134v-.05866l-.14-.08134v-.05866l-.14-.08134v-.05866l-.14-.08134v-.05866l-.14-.08134v-.05866l-.14-.08134v-.05866l-.14-.08134v-.05866l-.13867-.08v-.06l-.14-.08v-.06l-.14-.08v-.06l-.14-.08v-.06l-.14-.08v-.06l-.14-.08v-.06l-.14-.08v-.06l-.14-.08v-.05866l-.14-.08133v-.05867l-.14-.08133v-.05867l-.14-.08133v-.05867l-.14-.08133v-.05867l-.14-.08133v-.05867l-.14-.08133v-.05867l-.14-.08133v-.05867l-.14-.08133v-.05867l-.14-.08133v-.05867l-.14-.08133v-.05867l-.14-.08133v-.05867l-.14-.08133v-.05867l-.14-.08133v-.05867l-.13866-.08v-.06l-.14-.08v-.06l-.14-.08v-.06l-.14-.08v-.06l-.14-.08v-.06l-.14-.08v-.06l-.14-.08v-.06l-.14-.08v-.06l-.14-.08v-.05867l-.14-.08133v-.05867l-.14-.08133v-.05867l-.14-.08133v-.05867l-.14-.08133v-.05867l-.14-.08133v-.05867l-.14-.08133v-.05867l-.14-.08133v-.05867l-.14-.08133v-.05866l-.14-.08134v-.05866l-.14-.08134v-.05866l-.14-.08134v-.05866l-.14-.08134v-.05866l-.13866-.08v-.06l-.14-.08v-.06l-.14-.08v-.06l-.14-.08v-.06l-.14-.08v-.06l-.14-.08v-.06l-.14-.08v-.06l-.14-.08v-.06l-.14-.08v-.05866l-.14-.08134v-.05866l-.14-.08134v-.05866l-.14-.08134v-.05866l-.14-.08134v-.05866l-.14-.08133v-.05867l-.14-.08133v-.05867l-.14-.08133v-.05867l-.14-.08133v-.05867l-.14-.08133v-.05867l-.14-.08133v-.05867l-.14-.08133v-.05867l-.14-.08133v-.05867l-.14-.08133v-.05867l-.13867-.08v-.06l-.14-.08v-.06l-.14-.08v-.06l-.14-.08v-.06l-.14-.08v-.06l-.14-.08v-.06l-.14-.08v-.06l-.14-.08v-.05867l-.14-.08133v-.05867l-.14-.08133v-.05867l-.14-.08133v-.05867l-.14-.08133v-.05866l-.14-.08134v-.05866l-.14-.08134v-.05866l-.14-.08134v-.05866l-.14-.08134v-.05867l-.14-.08133v-.05867l-.14-.08133v-.05867l-.14-.08133v-.05867l-.14-.08134v-.05866l-.14-.08134v-.05867l-.13867-.08v-.06l-.14-.08v-.06l-.14-.08v-.06l-.14-.08v-.06l-.14-.08v-.06l-.14-.08v-.06l-.14-.08v-.06l-.14-.08v-.06l-.14-.08v-.05867l-.14-.08133v-.05867l-.14-.08133v-.05867l-.14-.08134v-.05866l-.14-.08134v-.05867l-.14-.08133v-.05867l-.14-.08133v-.05867l-.14-.08133v-.05867l-.14-.08134v-.05866l-.14-.08134v-.05866l-.14-.08134v-.05867l-.14-.08133v-.05867l-.14-.08133v-.05867l-.14-.08134v-.05866l-.13866-.08v-.06l-.14-.08v-.06l-.14-.08v-.06l-.14-.08v-.06l-.14-.08v-.06l-.14-.08v-.06l-.14-.08v-.06l-.14-.08v-.05867l-.14-.08133v-.05867l-.14-.08133v-.05867l-.14-.08133v-.05867l-.14-.08134v-.05863l-.14-.08134v-.05866l-.14-.08134v-.05867l-.14-.08133v-.05867l-.14-.08133v-.05867l-.14-.08133v-.05867l-.14-.08134v-.05866l-.14-.08134v-.05867l-.14-.08133v-.05867l-.14-.08133v-.05867l-.13867-.08v-.06l-.14-.08v-.06l-.14-.08v-.06l-.14-.08v-.06l-.14-.08v-.06l-.14-.08v-.06l-.14-.08v-.06l-.14-.08v-.05867l-.14-.08134v-.05866l-.14-.08134v-.05867l-.14-.08133v-.05867l-.14-.08133v-.05867l-.14-.08133v-.05867l-.14-.08134v-.05866l-.14-.08134v-.05867l-.14-.08133v-.05867l-.14-.08133v-.05867l-.14-.08133v-.05867l-.14-.08134v-.05866l-.14007-.0813v-.05867l-.14-.08133v-.05867l-.13866-.08v-.06l-.14-.08v-.06l-.14-.08v-.06l-.14-.08v-.06l-.14-.08v-.06l-.14-.08v-.06l-.14-.08v-.06l-.14-.08v-.06l-.14-.08v-.05866l-.14-.08134v-.05867l-.14-.08133v-.05867l-.14-.08133v-.05867l-.14-.08133v-.05867l-.14-.08134v-.05866l-.14-.08134v-.05866l-.14-.08134v-.05867l-.14-.08133v-.05867l-.14-.08133v-.05867l-.14-.08134v-.05866l-.14-.08134v-.05866l-.14-.08134v-.05867l-.14-.08133v-.05867l-.13867-.08v-.06l-.14-.08v-.06l-.14-.08v-.06l-.14-.08v-.06l-.14-.08v-.06l-.14-.08v-.06l-.14-.08v-.06l-.14-.08v-.05867l-.14-.08134v-.05866l-.14-.08134v-.05866l-.14-.08134v-.05867l-.14-.08133v-.05867l-.14-.08133v-.05867l-.14-.08133v-.05867l-.14-.08134v-.05866l-.14-.08134v-.05867l-.14-.08133v-.05867l-.14-.08133v-.05867l-.14-.08133v-.05867l-.14-.08134v-.05866l-.14-.08134v-.05867l-.13867-.08v-.06l-.14-.08v-.06l-.14-.08v-.06l-.14-.08v-.06l-.14-.08v-.06l-.14-.08v-.06l-.14-.08v-.06l-.14-.08v-.06l-.14-.08v-.05867l-.14-.08133v-.05867l-.14-.08133v-.05867l-.14-.08134v-.05866l-.14-.08134v-.05867l-.14-.08133v-.05867l-.14-.08133v-.05867l-.14-.08133v-.05867l-.14-.08134v-.05866l-.14-.08134v-.05866l-.14-.08134v-.05867l-.14-.08133v-.05867l-.14-.08133v-.05867l-.13866-.08v-.06l-.14-.08v-.06l-.14-.08v-.06l-.14-.08v-.06l-.14-.08v-.06l-.14-.08v-.06l-.14-.08v-.06l-.14-.08v-.06l-.14-.08v-.05866l-.14-.08134v-.05866l-.14-.08134v-.05867l-.14-.08133v-.05867l-.14-.08133v-.05867l-.14-.08133v-.05867l-.14-.08134v-.05866l-.14-.08134v-.05867l-.14-.08133v-.05867l-.14-.08133v-.05867l-.14-.08133v-.05867l-.14-.08133v-.05867l-.14-.08133v-.05867l-.14-.08133v-.05866l-.13867-.08v-.06l-.14-.08v-.06l-.14-.08v-.06l-.14-.08v-.06l-.14-.08v-.05994l-.14-.08v-.06l-.14-.08v-.06l-.14-.08v-.05866l-.14-.08134v-.05866l-.14-.08134v-.05866l-.14-.08133v-.05867l-.14-.08133v-.05867l-.14-.08133v-.05867l-.14006-.08134v-.05866l-.14-.08134v-.05866l-.14-.08134v-.05866l-.14-.08134v-.05866l-.14-.08134v-.05866l-.14-.08133v-.05867l-.14-.08133v-.05867l-.14-.08133v-.05867l-.13866-.08v-.06l-.14-.08v-.06l-.14-.08v-.06l-.14-.08v-.06l-.14-.08v-.06l-.14-.08v-.06l-.14-.08v-.06l-.14-.08v-.06l-.14-.08v-.05866l-.14-.08133v-.05867l-.14-.08133v-.05867l-.14-.08133v-.05867l-.14-.08133v-.05867l-.14-.08133v-.05867l-.14-.08133v-.05867l-.14-.08133v-.05867l-.14-.08133v-.05867l-.14-.08133v-.05866l-.14-.08134v-.05866l-.14-.08134v-.05866l-.14-.08134v-.05866l-.13867-.08v-.06l-.14-.08v-.06l-.14-.08v-.06l-.14-.08v-.06l-.14-.08v-.06l-.14-.08v-.06l-.14-.08v-.06l-.14-.08v-.06l-.14-.08v-.05866l-.14-.08134v-.05866l-.14-.08134v-.05866l-.14-.08134v-.05866l-.14-.08134v-.05866l-.14-.08134v-.05866l-.14-.08134v-.05866l-.14-.08134v-.05866l-.14-.08133v-.05867l-.14-.08133v-.05867l-.14-.08133v-.05867l-.14-.08133v-.05867l-.14-.08133v-.05867l-.14-.08v-.06l-.13866-.08v-.06l-.14-.08v-.06l-.14-.08v-.06l-.14-.08v-.06l-.14-.08v-.06l-.14-.08v-.06l-.14-.08v-.06l-.14-.08v-.05867l-.14-.08133v-.05867l-.14-.08133v-.05867l-.14-.08133v-.05867l-.14-.08133v-.05867l-.14-.08133v-.05867l-.14-.08133v-.05867l-.14-.08133v-.05866l-.14-.08134v-.05866l-.14-.08134v-.05866l-.14-.08134v-.05866l-.14-.08134v-.05866l-.14-.08134v-.05866l-.14-.08v-.06l-.13867-.08v-.06l-.14-.08v-.06l-.14-.08v-.06l-.14-.08v-.06l-.14-.08v-.06l-.14-.08v-.06l-.14-.08v-.05866l-.14-.08134v-.06l-.14-.08v-.05866l-.14-.08134v-.05866l-.14-.08134v-.05866l-.14-.08134v-.05866l-.14-.08134v-.05866l-.14-.08133v-.05867l-.14-.08133v-.05867l-.14-.08133v-.05867l-.14-.08133v-.05867l-.14-.08133v-.05867l-.14-.08133v-.05867l-.14-.08133v-.05867l-.13867-.08133v-.05872l-.14-.08v-.06l-.14-.08v-.06l-.14-.08v-.06l-.14-.08v-.06l-.14-.08v-.06l-.14-.08v-.06l-.14-.08v-.06l-.14-.08v-.05867l-.14005-.08134v-.05866l-.14-.08134v-.05866l-.14-.08134v-.05866l-.14-.08134v-.05866l-.14-.08134v-.05866l-.14-.08133v-.05867l-.14-.08133v-.05867l-.14-.08133v-.05867l-.14-.08133v-.05867l-.14-.08133v-.05867l-.14-.08133v-.05867l-.14-.08133v-.05867l-.13866-.08v-.06l-.14-.08133v-.05866l-.14-.08v-.06l-.14-.08v-.06l-.14-.08v-.06l-.14-.08v-.06l-.14-.08v-.06l-.14-.08v-.06l-.14-.08v-.05867l-.14-.08133v-.05867l-.14-.08133v-.05867l-.14-.08133v-.05867l-.14-.08133v-.05867l-.14-.08133v-.05866l-.14-.08134v-.05866l-.14-.08134v-.05866l-.14-.08134v-.05866l-.14-.08134v-.05866l-.14-.08134v-.05866l-.14-.08134v-.05866l-.14-.08134v-.05866l-.14-.08134v-.05866l-.13867-.08v-.06l-.14-.08v-.06l-.14-.08v-.06l-.14-.08v-.06l-.14-.08v-.06l-.14-.08v-.06l-.14-.08v-.06l-.14-.08v-.06l-.14-.08v-.05866l-.14-.08134v-.05866l-.14-.08134v-.05866l-.14-.08134v-.05866l-.14-.08133v-.05867l-.14-.08133v-.05867l-.14-.08133v-.05867l-.14-.08133v-.05867l-.14-.08133v-.05867l-.14-.08133v-.05867l-.14-.08133v-.05867l-.14-.08133v-.05867l-.14-.08133v-.05866l-.13867-.08v-.06l-.14-.08v-.06l-.14-.08v-.06l-.14-.08v-.06l-.14-.08v-.06l-.14-.08v-.06l-.14-.08v-.06l-.14-.08v-.06l-.14-.08v-.05867l-.14-.08133v-.05867l-.14-.08133v-.05867l-.14-.08133v-.05866l-.14-.08134v-.05866l-.14-.08134v-.05866l-.14-.08134v-.05866l-.14-.08134v-.05866l-.14-.08134v-.05866l-.14-.08134v-.05866l-.14-.08134v-.05866l-.14-.08133v-.05867l-.14-.08133v-.05867l-.13866-.08133v-.05867l-.14-.08v-.06l-.14-.08v-.06l-.14-.08v-.06l-.14-.08v-.06l-.14-.08v-.06l-.14-.08v-.06l-.14-.08v-.06l-.14-.08v-.05866l-.14-.08134v-.05866l-.14-.08133v-.05867l-.14-.08133v-.05867l-.14-.08133v-.05867l-.14-.08133v-.05867l-.14-.08133v-.05867l-.14-.08133v-.05867l-.14-.08133v-.05872l-.14-.08134v-.05866l-.14-.08134v-.05866l-.14-.08133v-.05867l-.14-.08133v-.05867l-.14-.08133v-.05867l-.13867-.08v-.06l-.14-.08v-.06l-.14-.08v-.06l-.14005-.08v-.06l-.14-.08v-.06l-.14-.08v-.06l-.14-.08v-.06l-.14-.08v-.05866l-.14-.08134v-.05866l-.14-.08133v-.05867l-.14-.08133v-.05867l-.14-.08133v-.05867l-.14-.08133v-.05867l-.14-.08133v-.05867l-.14-.08133v-.05867l-.14-.08133v-.05867l-.14-.08133v-.05867l-.14-.08133v-.05866l-.14-.08134v-.05866l-.14-.08134v-.05866l-.14-.08134v-.05866l-.13867-.08v-.06l-.14-.08v-.06l-.14-.08v-.06l-.14-.08v-.06l-.14-.08v-.06l-.14-.08v-.06l-.14-.08v-.06l-.14-.08v-.06l-.14-.08v-.05866l-.14-.08134v-.05866l-.14-.08134v-.05866l-.14-.08134v-.05866l-.14-.08134v-.05866l-.14-.08134v-.05866l-.14-.08134v-.05866l-.14-.08134v-.05866l-.14-.08133v-.05867l-.14-.08133v-.05867l-.14-.08133v-.05867l-.14-.08133v-.05867l-.14-.08133v-.05867l-.13866-.08v-.06l-.14-.08v-.06l-.14-.08v-.06l-.14-.08v-.06l-.14-.08v-.06l-.14-.08v-.06l-.14-.08v-.06l-.14-.08v-.06l-.14-.08v-.05867l-.14-.08133v-.05867l-.14-.08133v-.05867l-.14-.08133v-.05867l-.14-.08133v-.05867l-.14-.08133v-.05867l-.14-.08133v-.05867l-.14-.08133v-.05866l-.14-.08134v-.05866l-.14-.08134v-.05866l-.14-.08134v-.05866l-.14-.08134v-.05866l-.14-.08134v-.05866l-.14-.08134v-.05866l-.13867-.08v-.06l-.14-.08v-.06l-.14-.08v-.06l-.14-.08v-.06l-.14-.08v-.06l-.14-.08v-.06l-.14-.08v-.06l-.14-.08v-.05866l-.14-.08134v-.05866l-.14-.08134v-.05866l-.14-.08134v-.05866l-.14-.08134v-.05866l-.14-.08134v-.05866l-.14-.08133v-.05867l-.14-.08133v-.05867l-.14-.08133v-.05867l-.14-.08133v-.05867l-.14-.08133v-.05867l-.14-.08133v-.05867l-.14-.08133v-.05867l-.14-.08133v-.05867l-.13867-.08v-.06l-.14-.08v-.06l-.14-.08v-.06l-.14-.08v-.06l-.14-.08v-.06l-.14-.08v-.06l-.14-.08v-.06l-.14-.08v-.06l-.14-.08v-.05867l-.14-.08133v-.05866l-.14-.08133v-.05877l-.14-.08133v-.05866l-.14-.08133v-.05867l-.14-.08133v-.05866l-.14-.08133v-.05866l-.14-.08133v-.05867l-.14-.08133v-.05866l-.14-.08133v-.05867l-.14-.08133v-.05866l-.14-.08133v-.05867l-.14-.08133v-.05866l-.13866-.08v-.06l-.14-.08v-.06l-.14-.08v-.06l-.14-.08v-.06l-.14-.08v-.06l-.14-.08v-.06l-.14-.08v-.06l-.14-.08v-.06l-.14-.08v-.05867l-.14-.08133v-.05866l-.14-.08133v-.05866l-.14-.08133v-.05867l-.14-.08133v-.05866l-.14-.08133v-.05867l-.14-.08133v-.05866l-.14-.08133v-.05867l-.14-.08133v-.05866l-.14-.08133v-.05866l-.1399-.0815v-.05866l-.14-.08133v-.05867l-.14-.08133v-.05866l-.14-.08133v-.05866l-.13867-.08v-.06l-.14-.08v-.06l-.14-.08v-.06l-.14-.08v-.06l-.14-.08v-.06l-.14-.08v-.06l-.14-.08v-.06l-.14-.08v-.05844l-.14-.08133v-.05867l-.14-.08133v-.05867l-.14-.08132v-.05868l-.14-.08133v-.05867l-.14-.08133v-.05867l-.14-.08133v-.05867l-.14-.08133v-.05867l-.14-.08133v-.05867l-.14-.08133v-.05867l-.14-.08132v-.05868l-.14-.08133v-.05867l-.14-.08133v-.05867l-.14-.08133v-.05867l-.13866-.08v-.06l-.14-.08v-.06l-.14-.08v-.06l-.14-.08v-.06l-.14-.08v-.06l-.14-.08v-.06l-.14-.08v-.06l-.14-.08v-.06l-.14-.08v-.05867l-.14-.08133v-.05866l-.14-.08133v-.05867l-.14-.08133v-.05866l-.14-.08133v-.05867l-.14-.08132v-.05867l-.14-.08133v-.05866l-.14-.08133v-.05867l-.14-.08133v-.05866l-.14-.08133v-.05867l-.14-.08133v-.05866l-.14-.08133v-.05867l-.14-.08133v-.05866l-.13866-.08v-.06l-.14-.08v-.06l-.14-.08v-.06l-.14-.08v-.06l-.14-.08v-.06l-.14-.08v-.06l-.14-.08v-.06l-.14-.08v-.06l-.14-.08v-.05867l-.14-.08133v-.05866l-.14-.08133v-.05866l-.14-.08133v-.05867l-.14-.08133v-.05866l-.14-.08133v-.05867l-.14-.08133v-.05866l-.14-.08133v-.05867l-.14-.08133v-.05866l-.14-.08133v-.05866l-.14-.08133v-.05867l-.14-.08133v-.05866l-.14-.08133v-.05867l-.14-.08133v-.05866l-.13866-.08v-.06l-.14-.08v-.06l-.14-.08v-.06l-.14-.08v-.06l-.14-.08v-.06l-.14-.08v-.06l-.14-.08v-.06l-.14-.08v-.05866l-.14-.08133v-.05867l-.14-.08133v-.05866l-.14-.08133v-.05867l-.14-.08133v-.05866l-.14-.08133v-.05867l-.14-.08132v-.05867l-.14-.08133v-.05866l-.14-.08133v-.05867l-.14-.08133v-.05866l-.14-.08133v-.05867l-.14-.08133v-.05866l-.14-.08133v-.05867l-.14-.08132v-.05867l-.13866-.08v-.06l-.14-.08v-.06l-.14-.08v-.06l-.14-.08v-.06052l-.14-.08v-.06l-.14-.08v-.06l-.14-.08v-.06l-.14-.08v-.06l-.14-.08v-.05866l-.14-.08133v-.05867l-.14-.08133v-.05866l-.14-.08133v-.05867l-.1396-.08138v-.05866l-.14-.08133v-.05867l-.14-.08133v-.05866l-.14-.08133v-.05867l-.14-.08132v-.05867l-.14-.08133v-.05866l-.14-.08133v-.05867l-.14-.08133v-.05866l-.14-.08133v-.05867l-.14-.08133v-.05866l-.13866-.08v-.06l-.14-.08v-.06l-.14-.08v-.06l-.14-.08v-.06l-.14-.08v-.06l-.14-.08v-.06l-.14-.08v-.06l-.14-.08v-.05866l-.14-.08133v-.05867l-.14-.08133v-.05866l-.14-.08133v-.05867l-.14-.08133v-.05866l-.14-.08133v-.05866l-.14-.08133v-.05867l-.14-.08133v-.05866l-.14-.08133v-.05867l-.14-.08133v-.05866l-.14-.08133v-.05867l-.14-.08133v-.05866l-.14-.08133v-.05866l-.14-.08133v-.05867l-.13866-.08v-.06l-.14-.08v-.06l-.14-.08v-.06l-.14-.08v-.06l-.14-.08v-.06l-.14-.08v-.06l-.14-.08v-.06l-.14-.08v-.05866l-.14-.08133v-.05866l-.14-.08133v-.05867l-.14-.08133v-.05866l-.14-.08133v-.05867l-.14-.08133v-.05866l-.14-.08133v-.05867l-.14-.08133v-.05866l-.14-.08133v-.05866l-.14-.08133v-.05867l-.14-.08133v-.05866l-.14-.08133v-.05867l-.14-.08133v-.05866l-.14-.08133v-.05867l-.13867-.08v-.06l-.14-.08v-.06l-.14-.08v-.06l-.14-.08v-.06l-.14-.08v-.06l-.14-.08v-.06l-.14-.08v-.05866l-.14-.08133v-.06l-.14-.08v-.05866l-.14-.08133v-.05867l-.14-.08133v-.05866l-.14-.08133v-.05867l-.14-.08132v-.05867l-.14-.08133v-.05866l-.14-.08133v-.05867l-.14-.08133v-.05866l-.14-.08133v-.05867l-.14-.08133v-.05866l-.14-.08133v-.05867l-.14-.08132v-.05867l-.14-.08133v-.05866l-.14-.08v-.06l-.13866-.08v-.06l-.14-.08v-.06l-.14-.08v-.06l-.14-.08v-.06l-.14-.08v-.06l-.14-.08v-.06l-.14-.08v-.06l-.14-.08v-.0583l-.14-.08133v-.05867l-.14-.08133v-.05867l-.14-.08133v-.05867l-.14-.08133v-.05867l-.14-.08133v-.05866l-.14-.08133v-.05867l-.14-.08132v-.05867l-.14-.08133v-.05866l-.14-.08133v-.05867l-.14-.08133v-.05866l-.14-.08133v-.05919l-.14-.08v-.06l-.14-.08133v-.05866l-.13866-.08v-.06l-.14-.08v-.06l-.14-.08v-.06l-.14-.08v-.06l-.14-.08v-.06l-.14-.08v-.06005l-.1396-.08v-.05866l-.14-.08133v-.06l-.14-.08v-.05866l-.14-.08133v-.05867l-.14-.08133v-.05866l-.14-.08133v-.05866l-.14-.08133v-.05867l-.14-.08133v-.05866l-.14-.08133v-.05867l-.14-.08133v-.05853l-.14-.08133v-.05867l-.14-.08133v-.05867l-.14-.08133v-.05867l-.14-.08133v-.05867l-.13866-.08v-.06l-.14-.08v-.06l-.14-.08v-.06l-.14-.08v-.06l-.14-.08v-.06l-.14-.08v-.06l-.14-.08v-.06l-.14-.08v-.06l-.14-.08v-.05866l-.14-.08133v-.05867l-.14-.08133v-.05866l-.14-.08133v-.05867l-.14-.08133v-.05866l-.14-.08133v-.05867l-.14-.08133v-.05866l-.14-.08133v-.05866l-.14-.08133v-.05867l-.14-.08133v-.05866l-.14-.08133v-.05867l-.14-.08133v-.05866l-.14-.08133v-.05867l-.13866-.08v-.06l-.14-.08133v-.05866l-.14-.08v-.06l-.14-.08v-.06l-.14-.08v-.06l-.14-.08v-.06l-.14-.08v-.06l-.14-.08v-.06l-.14-.08v-.05866l-.14-.08133v-.05867l-.14-.08133v-.05866l-.14-.08133v-.05867l-.14-.08132v-.05867l-.14-.08133v-.05866l-.14-.08133v-.05867l-.14-.08133v-.05866l-.14-.08133v-.05867l-.14-.08133v-.05866l-.14-.08133v-.05867l-.14-.08132v-.05867l-.14-.08133v-.05866l-.14-.08133v-.05867l-.13866-.08v-.06l-.14-.08v-.06l-.14-.08v-.06l-.14-.08v-.06l-.14-.08v-.06l-.14-.08v-.06l-.14-.08v-.06l-.14-.08v-.05867l-.14-.08133v-.05866l-.14-.08133v-.05867l-.14-.08133v-.05866l-.14-.08133v-.05867l-.14-.08133v-.05866l-.14-.08133v-.05867l-.14-.08133v-.05855l-.14-.08133v-.05866l-.14-.08133v-.05867l-.14-.08133v-.05866l-.14-.08133v-.05867l-.14-.08133v-.05866l-.14-.08133v-.05867l-.13866-.08v-.06l-.14-.08v-.06l-.14-.08v-.06l-.14-.08v-.06l-.14-.08v-.06l-.14-.08v-.06l-.14-.08v-.06l-.14-.08v-.05867l-.14-.08133v-.05866l-.14-.08133v-.05867l-.14-.08133v-.05866l-.14-.08133v-.05866l-.14-.08133v-.05867l-.14-.08133v-.05866l-.14-.08133v-.05919l-.14-.08133v-.05866l-.14-.08133v-.05866l-.14-.08133v-.05867l-.14-.08133v-.05866l-.14-.08133v-.05867l-.14-.08133v-.05866l-.13866-.08v-.06l-.14-.08v-.06l-.1396-.08v-.06l-.14-.08v-.06l-.14-.08v-.06l-.14-.08v-.06l-.14-.08v-.06l-.14-.08v-.06l-.14-.08v-.05862l-.14-.08133v-.05866l-.14-.08133v-.05867l-.14-.08133v-.05866l-.14-.08133v-.05867l-.14-.08133v-.05866l-.14-.08133v-.05866l-.14-.08133v-.05867l-.14-.08133v-.05866l-.14-.08133v-.05867l-.14-.08133v-.05866l-.14-.08133v-.05867l-.14-.08133v-.05866l-.14-.08133v-.05866l-.13866-.08v-.06l-.14-.08v-.06l-.14-.08v-.06l-.14-.08v-.06l-.14-.08v-.06l-.14-.08v-.06l-.14-.08v-.06l-.14-.08v-.05867l-.14-.08133v-.05866l-.14-.08133v-.05867l-.14-.08132v-.05867l-.14-.08133v-.05866l-.14-.08133v-.05867l-.14-.08133v-.05866l-.14-.08133v-.05867l-.14-.08133v-.05862l-.14-.08133v-.05867l-.14-.08132v-.05867l-.14-.08133v-.05866l-.14-.08133v-.05867l-.14-.08133v-.05866l-.13866-.08v-.06l-.14-.08v-.06l-.14-.08v-.06l-.14-.08v-.06l-.14-.08v-.06l-.14-.08v-.06l-.14-.08v-.06l-.14-.08v-.06l-.14-.08v-.05867l-.14-.08133v-.05866l-.14-.08133v-.05867l-32.12-18.54532-31.34533 38.08532-.016-.01867-.01734.00934-.12266-.14933-.01733.01067-.12266-.15067-.01734.01068-.12266-.15067-.016.01067-.12266-.15066-.01733.01067-.12266-.15067-.01734.01067-.12266-.15066-.01733.01067-.12266-.15067-.01734.01067-.12266-.15066-.01733.01067-.12266-.15067-.01733.01068-.12266-.15067-.01734.01067-.12266-.14933-.01733.00934-.12266-.14934-.01734.00934-.12266-.14933-.01733.00934-.12266-.14933-.01734.00933-.12266-.14933-.01733.00934-.12266-.14933-.01733.00934-.12266-.14934-.01734.00934-.12266-.14933-.01733.00934-.12266-.14934-.01734.00934-.12266-.14933-.01733.00934-.12266-.14933-.01734.00933-.12266-.14933-.01733.00934-.12266-.14933-.016.01067-.124-.15067-.016.01067-.124-.15066-.016.01067-.12266-.15067-.01733.01068-.12266-.15067-.01734.01067-.12266-.15066-.01733.01067-.12266-.15067-.01734.01067-.12266-.15066-.01733.01067-.12266-.15067-.01734.01067-.12266-.14933-.01733.00934-.12266-.14933-.01733.00934-.12266-.14934-.01734.00934-.12266-.14933-.01733.00934-.12266-.14934-.01734.00934-.12266-.14933-.01733.00934-.12266-.14933-.01734.00933-.12266-.14933-.01733.00934-.12266-.14933-.01733.00934-.12266-.14934-.01734.00934-.12266-.14933-.01733.00934-.12266-.14934-.01734.00934-.12266-.14933-.01733.01067-.12266-.15066-.01734.01067-.12266-.15067-.016.01067-.12266-.15066-.01733.01067-.12266-.15067-.01734.01067-.12266-.15066-.01733.01067-.12266-.15067-.01733.01067-.12266-.15066-.01734.01067-.12266-.15066-.01733.01067-.12266-.14934-.01734.00934-.12266-.14933-.01733.00934-.12266-.14933-.01734.00933-.12266-.14933-.01733.00934-.12266-.14933-.01733.00933-.12266-.14933-.01734.00934-.12266-.14933-.01733.00934-.12266-.14934-.01734.00934-.12266-.14933-.01733.00934-.12266-.14934-.01734.00934-.12266-.14933-.01733.00934-.12266-.14933-.01733.00933-.12266-.14933-.01734.01067-.12266-.15066-.01733.01067-.12266-.15067-.016.01067-.124-.15066-.016.01067-.12266-.15067-.01733.01068-.12266-.15067-.01734.01067-.12266-.15066-.01733.01067-.12266-.15067-.01734.01067-.12266-.15066-.01733.01067-.12266-.15067-.01733.01067-.12266-.14933-.01734.00934-.12266-.14933-.01733.00934-.12266-.14934-.01734.00934-.12266-.14933-.01733.00934-.12266-.14934-.01734.00934-.12266-.14933-.01733.00934-.12266-.14933-.01733.00933-.12266-.14933-.01734.00934-.12266-.14933-.01733.00934-.12266-.14934-.01734.00934-.12266-.14933-.01733.00934-.12266-.14934-.01734.00934-.12266-.14933-.016.01067-.124-.15066-.016.01067-.124-.15067-.016.01067-.12266-.15066-.01733.01067-.12266-.15067-.01733.01067-.12267-.15066-.01733.01067-.12266-.15067-.01733.01068-.12266-.15067-.01734.01067-.12266-.15066-.01733.01067-.12266-.14934-.01734.00934-.12266-.14933-.01733.00934-.12266-.14933-.01733.00933-.12267-.14933-.01733.00934-.12266-.14933-.01733.00934-.12266-.14934-.01734.00934-.12266-.14933-.01733.00934-.12266-.14934-.01734.00934-.12266-.14933-.01733.00934-.12266-.14933-.01733.00933-.12267-.14933-.01733.00934-.12266-.14933-.01733.00934-.12266-.14934-.01734.01067-.12266-.15066-.01733.01067-.12266-.15067-.016.01068-.12266-.15067-.01734.01067-.12266-.15066-.01733.01067-.12266-.15067-.01734.01067-.12266-.15066-.01733.01067-.12266-.15067-.01734.01067-.12266-.15066-.01733.01067-.12266-.15067-.01733.01067-.12266-.14933-.01734.00934-.12266-.14933-.01733.00934-.12266-.14934-.01734.00934-.12266-.14933-.01733.00934-.12266-.14933-.01734.00933-.12266-.14933-.01733.00934-.12266-.14933-.01733.00933-.12266-.14933-.01734.00934-.12266-.14933-.01733.00934-.12266-.14934-.01734.00934-.12266-.14933-.01733.00934-.12266-.14933-.01734.00933-.12266-.14933-.01733.01067-.12266-.15066-.016.01067-.124-.15067-.016.01067-.12266-.15066-.01733.01067-.12266-.15067-.01733.01067-.12266-.15066-.01734.01067-.12266-.15067-.01733.01068-.12266-.15067-.01734.01067-.12266-.15066-.01733.01067-.12266-.14934-.01734.00934-.12266-.14933-.01733.00934-.12266-.14933-.01733.00933-.12266-.14933-.01734.00934-.12266-.14933-.01733.00934-.12266-.14934-.01734.00934-.12266-.14933-.01733.00934-.12266-.14934-.01734.00934-.12266-.14933-.01733.00934-.12266-.14933-.01733.00933-.12266-.14933-.01734.00934-.12266-.14933-.01733.00934-.12266-.14934-.016.01067-.124-.15066-.016.01067-.124-.15067-.016.01068-.12266-.15067-.01734.01067-.12266-.15066-.01733.01067-.12266-.15067-.01734.01067-.12266-.15066-.01733.01067-.12266-.15067-.01733.01067-.12266-.15066-.01734.01067-.12266-.14933-.01733.00934-.12266-.14934-.01734.00934-.12266-.14933-.01733.00934-.12266-.14934-.01734.00934-.12266-.14933-.01733.00934-.12266-.14933-.01733.00933-.12266-.14933-.01734.00934-.12266-.14933-.01733.00934-.12266-.14934-.01734.00934-.12266-.14933-.01733.00934-.12266-.14934-.01734.00934-.12266-.14933-.01733.00934-.12266-.14933-.01733.01067-.12266-.15067-.01734.01067-.12266-.15066-.016.01067-.12266-.15067-.01733.01067-.12266-.15066-.01734.01067-.12266-.15067-.01733.01068-.12266-.15067-.01734.01067-.12266-.15066-.01733.01067-.12266-.14934-.01734.00934-.12266-.15066-.01733.01067-.12266-.14933-.01733.00933-.12266-.14933-.01734.00934-.12266-.14933-.01733.00933-.12266-.14933-.01734.00934-.12266-.14933-.01733.00934-.12266-.14934-.01734.00934-.12266-.14933-.01733.00934-.12266-.14933-.01733.00933-.12266-.14933-.01734.00934-.12266-.14933-.01733.00933-.12266-.14933-.01734.00934-.12266-.14933-.01733.00934-.12391-.14924-.016.01067-.124-.15066-.016.01067-.124-.15066-.016.01067-.12266-.15067-.01734.01067-.12266-.15066-.01733.01067-.12264-.1507-.01733.01067-.12267-.15067-.01733.01067-.12266-.15067-.01733.01067-.12266-.15067-.01734.01067-.12266-.14933-.01733.00934-.12266-.14934-.01734.00934-.12266-.14933-.01733.00934-.12266-.14934-.01733.00934-.12267-.14933-.01733.00934-.12266-.14933-.01733.00933-.12266-.14933-.01734.00934-.12266-.14933-.01733.00934-.12266-.14934-.01734.00934-.12266-.14933-.01733.00934-.12266-.14934-.01733.00934-.12267-.14933-.01733.00934-.12266-.14933-.016.01067-.124-.15067-.016.01067-.124-.15066-.016.01067-.12266-.15067-.01733.01067-.12266-.15066-.01734.01067-.12266-.15067-.01733.01068-.12266-.15067-.01734.01067-.12266-.15066-.01733.01067-.12266-.14934-.01734.00934-.12266-.14933-.01733.00934-.12266-.14933-.01733.00933-.12266-.14933-.01734.00934-.12266-.14933-.01733.00934-.12266-.14934-.01734.00934-.12266-.14933-.01733.00934-.12266-.14934-.01734.00934-.12266-.14933-.01733.00934-.12266-.14933-.01733.00933-.12266-.14933-.01734.00934-.12266-.14933-.01733.00934-.12266-.14934-.016.00934-.124-.14933-.016.01067-.124-.15067-.016.01068-.124-.15067-.016.01067-.12266-.15066-.01733.01067-.12266-.15067-.01734.01067-.12266-.15066-.01733.01067-.12266-.15067-.01733.01067-.12266-.15066-.01734.01067-.12266-.15067-.01733.01068-.12266-.14934-.01734.00934-.12266-.14933-.01733.00934-.12266-.14934-.01734.00934-.12266-.14933-.01733.00934-.12266-.14933-.01733.00933-.12266-.14933-.01734.00934-.12266-.14933-.01733.00934-.12266-.14934-.01734.00934-.12266-.14933-.01733.00934-.12266-.14934-.01734.00934-.12266-.14933-.01733.00934-.12266-.14933-.01733.01067-.12266-.15067-.01734.00934-.12266-.14933-.016.01067-.124-.15067-.016.01067-.124-.15066-.016.01067-.12266-.15067-.01733.01067-.12266-.15066-.01734.01067-.12266-.15066-.01733.01067-.12266-.15067-.01734.01067-.12266-.15066-.01733.01067-.12266-.14934-.01733.00934-.12266-.14933-.01734.00934-.12266-.14933-.01733.00933-.12266-.14933-.01734.00934-.12266-.14933-.01733.00934-.12266-.14934-.01734.00934-.12266-.14933-32.1146 18.54133v77.16483l.14.08133v.05867l.14.08133v.05867l.14.08133v.05867l.14.08133v.05867l.14.08133v.05867l.14.08133v.05867l.14.08133v.05867l.14.08133v.05866l.14.08134v.05866l.14.08v.06l.14.08v.06l.14.08v.06l.14.08v.06l.14.08v.06l.14.08v.06l.14.08v.06l.14.08v.06l.14.08v.05867l.14.08133v.05867l.14.08133v.05866l.14.08134v.05866l.13867.08134v.05866l.14.08134v.05866l.14.08134v.05866l.14.08134v.05866l.14.08134v.05866l.14.08134v.05866l.14.08134v.05866l.14.08133v.05867l.14.08133v.05867l.14.08v.06l.14.08133v.05867l.14.08v.06l.14.08v.06l.14.08v.06l.14.08v.06l.14.08v.06l.14.08v.05866l.14.08134v.05866l.14.08134v.05866l.14.08133v.05867l.14.08133v.05867l.13867.08133v.05867l.14.08133v.05867l.14.08133v.05867l.14.08133v.05867l.14.08133v.05867l.14.08133v.05867l.14.08133v.05866l.14.08134v.05866l.14.08v.06l.14.08134v.05866l.14.08v.06l.14.08v.06l.14.08v.06l.14.08v.06l.14.08v.06l.14.08v.06l.14.08v.0587l.14.08134v.06l.14.08v.05866l.14.08133v.05867l.14.08133v.05867l.14.08134v.05866l.13867.08134v.05866l.14.08134v.05866l.14.08134v.05866l.14.08134v.05866l.14.08134v.05866l.14.08133v.05867l.14.08133v.05867l.14.08134v.05866l.14.08134v.05866l.14.08v.06l.14.08v.06l.14.08v.06l.14.08v.06l.14.08v.06l.14.08v.06l.14.08v.06l.14.08v.05867l.14.08133v.05866l.14.08134v.05866l.14.08134v.05866l.14.08134v.05866l.13867.08134v.05866l.14.08134v.05866l.14.08134v.05866l.14.08134v.05866l.14.08133v.05867l.14.08133v.05867l.14.08133v.05867l.14.08133v.05867l.14.08v.06l.14.08133v.05867l.14.08v.06l.14.08v.06l.14.08v.06l.14.08v.06l.14.08v.06l.14.08v.06l.14.08v.05867l.14.08133v.05867l.14.08133v.05867l.14.08133v.05867l.14.08133v.05867l.13867.08133v.05867l.14.08133v.05867l.14.08133v.05867l.14.08133v.05866l.14.08134v.05866l.14.08134v.05866l.14.08134v.05866l.14.08134v.05866l.14.08134v.05866l.14.08v.06l.14.08v.06l.14.08v.06l.14.08v.06l.14.08v.06l.14.08v.06l.14.08v.06l.14.08v.06l.14.08v.05866l.14.08134v.05866l.14.08134v.05866l.14.08134v.05866l.14.08134v.05866l.13867.08134v.05866l.14.08133v.05867l.14.08133v.05867l.14.08133v.05867l.14.08133v.05867l.14.08133v.05867l.14.08133v.05867l.14.08133v.05867l.14.08133v.05867l.14.08v.06l.14.08v.06l.14.08v.06l.14.08v.06l.14.08v.06l.14.08v.06l.14.08v.06l.14.08v.05867l.14.08133v.05867l.14.08133v.05867l.14.08134v.05866l.14.08134v.05867l.13867.08133v.05867l.14.08133v.05867l.14.08133v.05867l.14.08134v.05866l.14.08134v.05867l.14.08133v.05867l.14.08133v.05867l.14.08133v.05867l.14.08v.06l.14.08v.06l.14.08v.06l.14.08v.06l.14.08v.06l.14.08v.06l.14.08v.06l.14.08v.06l.14.08v.05868l.14.08134v.05866l.14.08134v.05866l.14.08134v.05867l.14.08133v.05866l.13868.08134v.05867l.14.08133v.05866l.14.08134v.05867l.14.08133v.05866l.14.08134v.05867l.14.08133v.05866l.14.08134v.05867l.14.08133v.05866l.14.08v.06l.14.08v.06l.14.08v.06l.14.08v.06l.14.08v.06l.14.08v.06l.14.08v.06l.14.08v.06l.14.08v.06l.14.08v.05867l.14.08133v.05867l.14.08134v.05866l.14.08134v.05867l.14.08133v.05867l.13867.08133v.05867l.14.08133v.05867l.14.08134v.05866l.14.08134v.05866l.14.08134v.05867l.14.08133v.05867l.14.08133v.05867l.14.08134v.05866l.14.08134v.05866l.14.08v.06l.14.08v.06l.14.08v.06l.14.08v.06l.14.08v.06l.14.08v.06l.14.08v.06l.14.08v.05867l.14.08133v.05867l.14.08133v.05867l.14.08134v.05866l.14.08134v.05866l.13868.08134v.05867l.14.08133v.05867l.14.08133v.05867l.14.08133v.05867l.14.08134v.05866l.14.08134v.05867l.14.08133v.05867l.14.08133v.05867l.14.08v.06l.14.08v.06l.14.08v.06l.14.08v.06l.14.08v.06l.14.08v.06l.14.08v.06l.14.08v.06l.14.08v.05867l.14.08134v.05866l.14.08134v.05867l.14.08133v.05867l.14.08133v.05867l.13867.08133v.05867l.14.08134v.05866l.14.08134v.05867l.14.08133v.05867l.14.08133v.05867l.14.08133v.05867l.14.08134v.05866l.14.08134v.05867l.14.08133v.05867l.14.08133v.05867l.14.08v.06l.14.08v.06l.14.08v.06l.14.08v.06l.14.08v.06l.14.08v.06l.14.08v.06l.14.08v.05867l.14.08134v.05866l.14.08134v.05867l.14.08133v.05867l.14.08133v.05867l.13868.08133v.05867l.14.08134v.05866l.14.08134v.05866l.14.08134v.05867l.14.08133v.05867l.14.08133v.05867l.14.08134v.05866l.14.08134v.05866l.14.08134v.05867l.14.08v.06l.14.08v.06l.14.08v.06l.14.08v.06l.14.08v.06l.14.08v.06l.14.08v.06l.14.08v.05859l.14.08133v.05867l.14.08133v.05867l.14.08133v.05867l.14.08133v.05867l.13867.08133v.05867l.14.08133v.05867l.14.08133v.05867l.14.08133v.05867l.14.08133v.05867l.14.08133v.05867l.14.08133v.05867l.14.08133v.05867l.14.08v.06l.14.08v.06l.14.08v.06l.14.08v.06l.14.08v.06l.14.08v.06l.14.08v.06l.14.08v.06l.14.08v.05867l.14.08134v.05866l.14.08134v.05867l.14.08133v.05867l.13867.08133v.05866l.14.08134v.05866l.14.08134v.05866l.14.08134v.05866l.14.08134v.05866l.14.08134v.05866l.14.08133v.05867l.14.08133v.05867l.14.08133v.05867l.14.08133v.05867l.14.08133v.05867l.14.08v.06l.14.08v.06l.14.08v.06l.14.08v.06l.14.08v.06l.14.08v.06l.14.08v.06l.14.08v.05867l.14.08133v.05867l.14.08133v.05867l.14.08133v.05867l.14.08133v.05867l.13867.08133v.05867l.14.08133v.05867l.14.08133v.05867l.14.08133v.05866l.14.08134v.05866l.14.08134v.05866l.14.08134v.05866l.14.08134v.05866l.14.08134v.05866l.14.08v.06l.14.08v.06l.14.08v.06l.14.08v.06l.14.08v.06l.14.08v.06l.14.08v.06l.14.08v.05866l.14.08134v.05866l.14.08134v.05866l.14.08134v.05866l.13867.08133v.05867l.14.08133v.05867l.14.08133v.05867l.14.08133v.05867l.14.08133v.05867l.14.08133v.05867l.14.08133v.05867l.14.08133v.05867l.14.08133v.05867l.14.08v.06l.14.08v.06l.14.08v.06l.14.08v.06l.14.08v.06l.14.08v.06l.14.08v.06l.14.08v.06l.14.08v.05866l.14.08134v.05866l.14.08134v.05866l.14.08134v.05866l.13867.08134v.05866l.14.08134v.05866l.14.08134v.05866l.14.08134v.05866l.14.08134v.05866l.14.08134v.05866l.14.08134v.05866l.14.08134v.05866l.14.08134v.05866l.14.08134v.05866l.14.08134v.05866l.14.08v.06l.14.08v.06l.14.08v.06l.14.08v.06l.14.08v.06l.14.08v.06l.14.08v.06l.14.08v.05867l.14.08133v.05867l.14.08133v.05867l.13918.08133v.05867l.14.08133v.05867l.14.08133v.05867l.14.08133v.05867l.14.08133v.05867l.14.08133v.05867l.14.08133v.05867l.14.08133v.05867l.14.08133v.05867l.14.08133v.05867l.14.08133v.05867l.14.08v.06l.14.08v.06l.14.08v.06l.14007.08v.06l.14.08v.06l.14.08v.06l.14.08v.05867l.14.08133v.05867l.14.08133v.05867l.14.08133v.05867l.14.08133v.05867l.13868.08133v.05867l.14.08133v.05867l.14.08133v.05867l.14.08133v.05867l.14.08133v.05867l.14.08133v.05867l.14.08133v.05867l.14.08133v.05867l.14.08133v.05867l.14.08v.06l.14.08v.06l.14.08v.06l.14.08v.06l.14.08v.06l.14.08v.06l.14.08v.06l.14.08v.06l.14.08v.06l.14.08v.05866l.14.08134v.05866l.14.08134v.05866l.13867.08134v.05866l.14.08134v.05866l.14.08134v.05866l.14.08134v.05866l.14.08134v.05866l.14.08134v.05866l.14.08134v.05866l.14.08134v.05866l.14.08134v.05866l.14.08v.06l.14.08134v.05866l.14.08v.06l.14.08v.06l.14.08v.06l.14.08v.06l.14.08v.06l.14.08v.06l.14.08v.05867l.14.08133v.05867l.14.08133v.05867l.14.08133v.05867l.13867.08133v.05867l.14.08133v.05867l.14.08133v.05867l.14.08133v.05867l.14.08133v.05867l.14.08133v.05867l.14.08133v.05867l.14.08133v.05867l.14.08133v.05867l.14.08133v.05867l.14.08v.06l.14.08v.06l.14.08v.06l.14.08v.06l.14.08v.06l.14.08v.06l.14.08v.06l.14.08v.06l.14.08v.05866l.14.08134v.05866l.14.08134v.05866l.14.08134v.05866l.13867.08134v.05866l.14.08134v.05866l.14.08134v.05866l.14.08134v.05866l.14.08134v.05866l.14.08134v.05866l.14.08134v.05866l.14.08134v.05866l.14.08134v.05866l.14.08v.06l.14.08v.06l.14.08v.06l.14.08v.06l.14.08v.06l.14.08v.06l.14.08v.06l.14.08v.05867l.14.08133v.05867l.14.08133v.05867l.14.08133v.05867l.14.08133v.05867l.13867.08133v.05867l.14.08133v.05867l.14.08133v.05867l.14.08133v.05867l.14.08133v.05867l.14.08133v.05867l.14.08133v.05867l.14.08133v.05867l.14.08v.06l.14.08133v.05867l.14.08v.06l.14.08v.06l.14.08v.06l.14.08v.06l.14.08v.06l.14.08v.06l.14.08v.05867l.14.08133v.05867l.14.08133v.05867l.14.08133v.05867l.14.08133v.05867l.13867.08133v.05867l.14.08133v.05867l.14.08133v.05867l.14.08133v.05867l.14.08133v.05867l.14.08133v.05867l.14.08133v.05867l.14.08133v.05867l.14.08133v.05867l.14.08133v.05867l.14.08v.06l.14.08v.06l.14.08v.06l.14.08v.06l.14.08v.06l.14.08v.06l.14.08v.06l.14.08v.05867l.14.08133v.05867l.14.08133v.05866l.14.08134v.05866l.14.08134v.05866l.13867.08134v.05866l.14.08134v.05866l.14.08134v.05866l.14.08133v.05867l.14.08133v.05867l.14.08133v.05867l.14.08133v.05867l.14.08133v.05867l.14.08133v.05867l.14.08v.06l.14.08v.06l.14.08v.06l.14.08v.06l.14.08v.06l.14.08v.06l.14.08v.06l.14.08v.05867l.14.08133v.05867l.14.08133v.05867l.14.08133v.05867l.14.08133v.05867l.13867.08133v.05867l.14.08133v.05867l.14.08133v.05866l.14.08134v.05866l.14.08134v.05866l.14.08134v.05866l.14.08134v.05866l.14.08134v.05866l.14.08v.06l.14.08v.06l.14.08v.06l.14.08v.06l.14.08v.06l.14.08v.06l.14.08v.06l.14.08v.06l.14.08v.05866l.14.08134v.05866l.14.08134v.05866l.14.08134v.05866l.14.08134v.05866l.14.08133v.05867l.13867.08133v.05867l.14.08133v.05867l.14.08133v.05867l.14.08133v.05867l.14.08133v.05867l.14.08133v.05867l.14.08133v.05867l.14.08133v.05867l.14.08133v.05867l.14.08v.06l.14.08v.06l.14.08v.06l.14.08v.06l.14.08v.06l.14.08v.06l.14.08v.06l.14.08v.05867l.14.08133v.05867l.14.08133v.05867l.14.08133v.05866l.14.08134v.05866l.13867.08134v.05866l.14.08134v.05866l.14.08134v.05866l.14.08134v.05866l.14.08133v.05867l.14.08134v.05866l.14.08134v.05866l.14.08134v.05867l.14.08v.06l.14.08v.06l.14.08v.06l.14.08v.06l.14.08v.06l.14.08v.06l.14.08v.06l.14.08v.06l.14.08v.05867l.14.08133v.05867l.14.08134v.05866l.14.08134v.05866l.14.08134v.05867l.13868.08133v.05867l.14.08133v.05867l.14.08133v.05867l.14.08134v.05866l.14.08134v.05867l.14.08133v.05867l.14.08133v.05867l.14.08133v.05867l.14.08v.06l.14.08v.06l.14.08v.06l.14.08v.06l.14.08v.06l.14.08v.06l.14.08v.06l.14.08v.06l.14.08v.06l.14.08v.05866l.14.08134v.05866l.14.08134v.05867l.14.08133v.05867l.14.08133v.05867l.13867.08134v.05866l.14.08134v.05866l.14.08134v.05867l.14.08133v.05867l.14.08133v.05867l.14.08133v.05867l.14.08134v.05866l.14.08134v.05867l.14.08133v.05867l.14.08v.06l.14.08v.06l.14.08v.06l.14.08v.06l.14.08v.06l.14.08v.06l.14.08v.06l.14.08v.05867l.14.08133v.05867l.14.08134v.05866l.14.08134v.05867l.14.08133v.05867l.13868.08133v.05867l.14.08133v.05867l.14.08134v.05866l.14.08134v.05867l.14.08133v.05867l.14.08133v.05867l.14.08133v.05867l.14.08134v.05866l.14.08v.06l.14.08v.06l.14.08v.06l.14.08v.06l.14.08v.06l.14.08v.06l.14.08v.06l.14.08v.06l.14.08v.05867l.14.08133v.05867l.14.08133v.05867l.14.08133v.05867l.14.08134v.05866l.13867.08134v.05867l.14.08133v.05867l.14.08133v.05867l.14.08133v.05867l.14.08134v.05866l.14.08134v.05866l.14.08134v.05867l.14.08133v.05867l.14.08v.06l.14.08v.06l.14.08v.06l.14.08v.06l.14.08v.06l.14.08v.06l.14.08v.06l.14.08v.06l.14.08v.06l.14.08v.05867l.14.08133v.05867l.14.08134v.05866l.14.08134v.05867l.14.08133v.05867l.13868.08133v.05867l.14.08133v.05867l.14.08134v.05866l.14.08134v.05867l.14.08133v.05867l.14.08133v.05867l.14.08133v.05867l.14.08134v.05857l.14.08133v.05867l.14.08v.06l.14.08v.06l.14.08v.06l.14.08v.06l.14.08v.06l.14.08v.06l.14.08v.06l.14.08v.05867l.14.08133v.05867l.14.08134v.05866l.14.08134v.05867l.14.08133v.05867l.13867.08133v.05867l.14.08133v.05867l.14.08134v.05866l.14.08134v.05867l.14.08133v.05867l.14.08133v.05867l.14.08133v.05867l.14.08134v.05866l.14.08v.06l.14.08v.06l.14.08v.06l.14.08v.06l.14.08v.06l.14.08v.06l.14.08v.06l.14.08v.06l.14.08v.05867l.14.08133v.05867l.14.08133v.05867l.14.08133v.05867l.13866.08134v.05866l.14.08134v.05867l.14.08133v.05867l.14.08133v.05867l.14.08133v.05867l.14.08134v.05866l.14.08134v.05866l.14.08134v.05867l.14.08133v.05867l.14.08133v.05867l.14.08133v.05867l.14.08v.06l.14.08v.06l.14.08v.06l.14.08v.06l.14.08v.06l.14.08v.06l.14.08v.06l.14.08v.05866l.14.08134v.05866l.14.08134v.05866l.13866.08134v.05866l.14.08133v.05867l.14.08133v.05867l.14.08133v.05867l.14.08133v.05867l.14.08133v.05867l.14.08133v.05867l.14.08133v.05867l.14.08133v.05867l.14.08133v.05866l.14.08134v.05866l.14.08v.06l.14.08v.06l.14.08v.06l.14.08v.06l.14.08v.06l.14.08v.06l.14.08v.06l.14.08v.05867l.14.08133v.05867l.14.08133v.05867l.14.08133v.05866l.13866.08134v.05866l.14.08134v.05866l.14.08134v.05866l.14.08134v.05866l.14.08134v.05866l.14.08134v.05866l.14.08134v.05866l.14.08133v.05867l.14.08133v.05867l.14.08v.06l.14.08v.06l.14.08v.06l.14.08v.06l.14.08v.06l.14.08v.06l.14.08v.06l.14.08v.06l.14.08v.05866l.14.08134v.05866l.14.08133v.05867l.14.08133v.05867l.13867.08133v.05867l.14.08133v.05867l.14.08133v.05867l.14.08133v.05866l.14.08133v.05867l.14.08133v.05867l.14.08133v.05866l.14.08134v.05866l.14.08134v.05866l.14.08134v.05866l.14.08134v.05866l.14.08v.06l.14.08v.06l.14.08v.06l.14.08v.06l.14.08v.06l.14.08v.06l.14.08v.06l.14.08v.05866l.14.08134v.05866l.14.08134v.05866l.13867.08134v.05866l.14.08134v.05866l.14.08134v.05866l.14.08134v.05866l.14.08134v.05866l.14.08133v.05867l.14.08133v.05867l.14.08133v.05867l.14.08133v.05867l.14.08133v.05867l.14.08133v.05867l.14.08v.06l.14.08v.06l.14.08v.06l.14.08v.06l.14.08v.06l.14.08v.06l.14.08v.05867l.14.08133v.05867l.14.08133v.05867l.14.08133v.05867l.14.08133v.05867l.13866.08133v.05867l.14.08133v.05867l.14.08133v.05867l.14.08133v.05866l.14.08134v.05866l.14.08134v.05866l.14.08134v.05866l.14.08134v.05866l.14.08134v.05866l.14.08v.06l.14.08v.06l.14.08v.06l.14.08v.06l.14.08v.06l.14.08v.06l.14.08v.06l.14.08v.06l.14.08v.05866l.14.08134v.05866l.14.08134v.05866l.14.08134v.05866l.13866.08134v.05866l.14.08134v.05866l.14.08133v.05867l.14.08133v.05867l.14.08133v.05867l.14.08133v.05867l.14.08133v.05867l.14.08133v.05867l.14.08133v.05867l.14.08v.06l.14.08v.06l.14.08v.06l.14.08v.06l.14.08v.06l.14.08v.06l.14.08v.06l.14.08v.06l.14.08v.05867l.14.08133v.05867l.14.08133v.05867l.14.08133v.05867l.13866.08133v.05867l.14.08133v.05866l.14.08134v.05866l.14.08134v.05866l.14.08134v.05866l.14.08134v.05866l.14.08134v.05866l.14.08134v.05866l.14.08134v.05866l.14.08133v.05867l.14.08133v.05867l.14.08v.06l.14.08v.06l.14.08v.06l.14.08v.06l.14.08v.06l.14.08v.06l.14.08v.05866l.14.08134v.05866l.14.08134v.05872l.14.08134v.05866l.14.08134v.05866l.13866.08134v.05866l.14.08133v.05867l.14.08133v.05867l.14.08133v.05867l.14.08133v.05867l.14.08133v.05867l.14.08133v.05867l.14.08133v.05867l.14.08133v.05867l.14.08v.06l.14.08v.06l.14.08v.06l.14.08v.06l.14.08v.06l.14.08v.06l.14.08v.06l.14.08v.05867l.14.08133v.05867l.14.08133v.05867l.14.08133v.05867l.14.08133v.05867l.13866.08133v.05866l.14.08134v.05866l.14.08134v.05866l.14.08134v.05866l.14.08134v.05866l.14.08134v.05866l.14.08134v.05866l.14.08134v.05866l.14.08v.06l.14.08v.06l.14.08v.06l.14.08v.06l.14.08v.06l.14.08v.06l.14.08v.06l.14.08v.06l.14.08v.05866l.14.08134v.05866l.14.08134v.05866l.14.08134v.05866l.14.08133v.05867l.13866.08133v.05867l.14.08133v.05867l.14.08133v.05867l.14.08133v.05867l.14.08133v.05867l.14.08133v.05867l.14.08133v.05867l.14.08133v.05866l.14.08134v.05866l.14.08134v.05866l.14.08v.06l.14.08v.06l.14.08v.06l.14.08v.06l.14.08v.06l.14.08v.06l.14.08v.06l.14.08v.05867l.14.08133v.05867l.14.08133v.05866l.14.08134v.05866l.14.08134v.05866l.13866.08134v.05866l.14.08134v.05866l.14.08134v.05866l.14.08134v.05866l.14.08134v.05866l.14.08133v.05867l.14.08133v.05867l.14.08133v.05867l.14.08133v.05867l.14.08v.06l.14.08v.06l.14.08v.06l.14.08v.06l.14.08v.06l.14.08v.06l.14.08v.06l.14.08v.05866l.14.08133v.05867l.14.08133v.05867l.14.08133v.05867l.14.08133v.05867l.13866.08133v.05867l32.48666 18.756v-59.32543h.016l.11333.14h.02533l.11467.14h.02533l.11466.14h.02533l.11467.14h.02533l.11466.14h.02533l.11467.14h.02532l.11467.14h.02533l.11333.14h.02666l.11334.14h.02666l.11333.14h.02666l.11333.14h.02667l.11333.14h.02666l.11333.14h.02666l.11334.14h.02666l.11333.14h.02666l.11334.14h.02666l.11333.14h.02666l.11333.14h.02667l.11333.14h.02666l.11333.13867h.02666l.11334.14h.02666l.11333.14h.02533l.11467.14h.02533l.11466.14h.02533l.11466.14h.02533l.11467.14h.02533l.11466.14h.02533l.11467.14h.02533l.11333.14h.02666l.11333.14h.02667l.11333.14h.02666l.11333.14h.02666l.11334.14h.02666l.11333.14h.02666l.11333.14h.02667l.11333.14h.02666l.11333.14h.02667l.11333.14h.02666l.11333.14h.02666l.11334.14h.02666l.11333.13866h.02666l.11333.14h.02667l.11333.14h.02533l.11466.14h.02533l.11467.14h.02533l.11466.14h.02533l.11467.14h.02533l.11466.14h.02533l.11466.14h.02533l.11467.14h.02533l.11333.14h.02666l.11334.14h.02666l.11333.14h.02666l.11333.14h.02667l.11333.14h.02666l.11333.14h.02666l.11334.14h.02666l.11333.14h.02666l.11334.14h.02666l.11333.14h.02666l.11333.14h.02667l.11333.13867h.02666l.11333.14h.02666l.11334.14h.02666l.11333.14h.02533l.11467.14h.02532l.11467.14h.02533l.11466.14h.02533l.11467.14h.02533l.11466.14h.02533l.11467.14h.02533l.11333.14h.02666l.11333.14h.02666l.11334.14h.02666l.11333.14h.02666l.11334.14h.02666l.11333.14h.02666l.11333.14h.02667l.11333.14h.02666l.11333.14h.02666l.11334.14h.02666l.11333.14h.02666l.11334.14h.02666l.11333.13867h.02666l.11333.14h.02667l.11333.14h.02533l.11466.14h.02533l.11467.14h.02533l.11466.14h.02533l.11467.14h.02533l.11466.14h.02533l.11466.14h.02533l.11334.14h.02666l.11333.14h.02666l.11333.14h.02667l.11333.14h.02666l.11333.14h.02667l.11333.14h.02666l.11333.14h.02666l.11334.14h.02666l.11333.14h.02666l.11333.14h.02667l.11333.14h.02666l.11333.14h.02667l.11333.13867h.02666l.11333.14h.02666l.11334.14h.02533l.11466.14h.02533l.11466.14h.02533l.11467.14h.02533l.11466.14h.02533l.11467.14h.02533l.11466.14h.02534l.11466.14h.02534l.11333.14h.02667l.11333.14h.02666l.11334.14h.02666l.11334.14h.02666l.11334.14h.02666l.11333.14h.02667l.11333.14h.02667l.11333.14h.02667l.11333.14h.02667l.11333.14h.02667l.11333.14h.02667l.11333.13867h.02667l.11333.14h.02667l.11333.14h.02667l.11333.14h.02533l.11467.14h.02533l.11467.14h.02533l.11467.14h.02533l.11467.14h.02533l.11467.14h.02533l.11467.14h.02533l.11333.14h.02667l.11333.14h.02667l.11333.14h.02667l.11333.14h.02667l.11333.14h.02667l.11333.14h.02667l.11333.14h.02667l.11333.14h.02667l.11333.14h.02666l.11334.14h.02666l.11334.14h.02666l.11334.14h.02666l.11333.13866h.02667l.11333.14h.02667l.11333.14h.02534l.11466.14h.02534l.11466.14h.02534l.11466.14h.02534l.11466.14h.02534l.11466.14h.02534l.11466.14h.02533l.11334.14h.02666l.11334.14h.02666l.11334.14h.02666l.11333.14h.02667l.11333.14h.02667l.11333.14h.02667l.11333.14h.02667l.11333.14h.02667l.11333.14h.02667l.11333.14h.02667l.11333.14h.02667l.11333.14h.02667l.11333.13867h.02667l.11333.14h.02533l.11467.14h.02533l.11467.14h.02533l.11467.14h.02533l.11467.14h.02533l.11467.14h.02533l.11467.14h.02533l.11466.14h.02534l.11466.14h.02534l.11333.14h.02667l.11333.14h.02667l.11333.14h.02667l.11333.14h.02667l.11333.14h.02667l.11333.14h.02666l.11334.14h.02666l.11334.14h.02666l.11334.14h.02666l.11334.14h.02666l.11333.14h.02667l.11333.13866h.02667l.11333.14h.02534l.11466.14h.02534l.11466.14h.02534l.11466.14h.02534l.11466.14h.02534l.11466.14h.02533l.11467.14h.02533l.11467.14h.02533l.11467.14h.02533l.11334.14h.02666l.11333.14h.02667l.11333.14h.02667l.11333.14h.02667l.11333.14h.02667l.11333.14h.02667l.11333.14h.02667l.11333.14h.02667l.11333.14h.02667l.11333.14h.02667l.11333.13867h.02667l.11333.14h.02667l.11333.14h.02666l.11334.14h.02533l.11467.14h.02533l.11467.14h.02533l.11467.14h.02533l.11466.14h.02534l.11466.14h.02534l.11466.14h.02534l.11466.14h.02534l.11333.14h.02667l.11333.14h.02667l.11333.14h.02667l.11333.14h.02666l.11334.14h.02666l.11334.14h.02666l.11334.14h.02666l.11334.14h.02666l.11333.14h.02667l.11333.14h.02667l.11333.14h.02667l.11333.14h2.83334l2.28133-2.81466v.18133l.14-.08v.22l.14-.08v.22l.14-.08v.22l.14-.08v.22l.14-.08v.22l.14-.08133v.22133l.13867-.08v.22l.14-.08134v.22134l.14-.08134v.22134l.14-.08134v.22134l.14-.08134v.22134l.14-.08134v.22134l.14-.08134v.22134l.14-.08134v.22133l.14-.08133v.22133l.14-.08133v.22133l.14-.08133v.22133l.14-.08133v.22133l.14-.08133v.22l.14-.08v.22l.14-.08v.22l.14-.08v.22l.14-.08v.22l.14-.08v.22l.14-.08v.22l.14-.08v.22l.14-.08v.22l.13866-.08v.22l.14-.08133v.22133l.14-.08133v.22133l.14-.08133v.22133l.14-.08133v.22133l.14-.08133v.22133l.14-.08133v.22133l.14-.08133v.22133l.14-.08134v.22134l.14-.08134v.22134l.14-.08134v.22134l.14-.08134v.22134l.14-.08134v.22l.14-.08v.22l.14-.08v.22l.14-.08v.22l.14-.08v.22l.14-.08v.22l.14-.08v.22l.14-.08v.22l.14-.08v.22l.13867-.08v.22l.14-.08134v.22134l.14-.08134v.22134l.14-.08134v.22134l.14-.08134v.22134l.14-.08134v.22133l.14-.08133v.22133l.14-.08133v.22133l.14-.08133v.22133l.14-.08133v.22133l.14-.08133v.22133l.14-.08133v.22133l.14-.08133v.22133l.14-.08133v.22l.14-.08v.22l.14-.08v.22l.14-.08v.22l.14-.08v.22l.14-.08v.22l.14-.08v.22l.14-.08v.22l.14-.08133v.22133l.13866-.08v.22l.14-.08133v.22133l.14-.08133v.22133l.14-.08133v.22133l.14-.08133v.22133l.14-.08134v.22134l.14-.08134v.22134l.14-.08134v.22134l.14-.08134v.22134l.14-.08134v.22134l.14-.08134v.22134l.14-.08134v.22133l.14-.08133v.22l.14-.08v.22023l.14-.08v.22l.14-.08v.22l.14-.08v.22l.14-.08v.22l.14-.08v.22l.14-.08v.22l.14-.08v.22l.13867-.08v.22l.14-.08133v.22133l.14-.08134v.22134l.14-.08134v.22134l.14-.08134v.22134l.14-.08134v.22134l.14-.08134v.22134l.14-.08134v.22134l.14-.08134v.22133l.14-.08133v.22133l.14-.08133v.22133l.14-.08133v.22133l.14-.08133v.22l.14-.08v.22l.14-.08v.22l.14-.08v.22l.14-.08v.22l.14-.08v.22l.14-.08v.22l.14-.08v.22l.14-.08v.22l.13867-.08v.22l.14-.08133v.22133l.14-.08133v.22133l.14-.08133v.22133l.14-.08133v.22133l.14-.08133v.22133l.14-.08133v.22133l.14-.08133v.22133l.14-.08133v.22133l.14-.08134v.22134l.14-.08134v.22134l.14-.08134v.22134l.14-.08134v.22134l.14-.08134v.22l.14-.08v.22l.14-.08v.22l.14-.08v.22l.14-.08v.22l.14-.08v.22l.14-.08v.22l.14-.08v.22l.14-.08134v.22134l.13867-.08v.22l.14-.08134v.22133l.14-.08133v.22134l.14-.08133v.22133l.14-.08133v.22134l.14-.08133v.22133l.14-.08133v.22133l.14-.08132v.22133l.14-.08133v.22133l.14-.08133v.22134l.14-.08133v.22133l.14-.08133v.22134l.14-.08133v.22l.14-.08v.22l.14-.08v.22l.14-.08v.22l.14-.08v.22l.14-.08v.22l.14-.08v.22l.14-.08v.22l.14-.08v.22l.13867-.08v.22l.14-.08133v.22133l.14-.08133v.22134l.14-.08133v.22133l.14-.08133v.22134l.14-.08133v.22133l.14-.08133v.22134l.14-.08133v.22133l.14-.08133v.22133l.14-.08132v.22133l.14-.08133v.22133l.14-.08133v.22134l.14-.08133v.22l.14-.08v.22l.14-.08v.22l.14-.08v.22l.14-.08v.22l.14-.08v.22l.14-.08v.22l.14-.08v.22l.14-.08v.22l.13866-.08v.22l.14-.08133v.22133l.14-.08132v.22133l.14-.08133v.22133l.14-.08133v.22134l.14-.08133v.22133l.14-.08133v.22134l.14-.08133v.22133l.14-.08133v.22134l.14-.08133v.22133l.14-.08133v.22133l.14-.08132v.22133l.14-.08133v.22133l.14-.08133v.22l.14-.08v.22l.14-.08v.22l.14-.08v.22l.14-.08v.22l.14-.08v.22l.14-.08v.22l.14-.08v.22l.14-.08133v.22133l.13867-.08v.22l.14-.08133v.22133l.14-.08133v.22133l.14-.08132v.22133l.14-.08133v.22133l.14-.08133v.22134l.14-.08133v.22106l.14-.08133v.22133l.14-.08133v.22134l.14-.08133v.22133l.14-.08133v.22134l.14-.08133v.22133l.14-.08133v.22l.14-.08v.22l.14-.08v.22l.14-.08v.22l.14-.08v.22l33.516-19.35067V226.3026z"/></g></g></g></g></g></g><g id="g48"><g id="g50"><g id="g56"><path id="path58" fill="#fff" d="M122.60226 155.28857h2.83333l32.368-39.924v67.37866l33.516-19.35066v-77.168l-32.12-18.544-34.79467 42.27467-34.62933-42.272-32.11466 18.54133v77.168l32.48666 18.756v-66.784z"/></g><g id="g60"><path id="path62" d="M744.18355 258.89456v18.19066h8.38533q5.644 0 8.58-2.38666a9.12889 9.12889 0 0 0 .06533-13.35333q-2.874-2.45-8.22533-2.45067zm-3.484-2.90267h12.41867q7.126 0 10.91733 3.19334a10.78332 10.78332 0 0 1 3.78933 8.708 11.0119 11.0119 0 0 1-3.82133 8.83733q-3.822 3.258-11.20934 3.25867h-8.61066v21.06h-3.484z" class="cls-8"/></g><g id="g64"><path id="path66" d="M783.20405 258.89456v17.64267h7.48267q5.708 0 8.72533-2.30667a8.48348 8.48348 0 0 0-.04933-13.01467q-3.064-2.322-8.804-2.32133zm-3.484-2.90267h11.548q7.256 0 11.09467 3.144a10.41021 10.41021 0 0 1 3.83733 8.49867q0 7.806-8.57866 10.96667 2.226 1.064 5.99866 6.87066l10.192 15.57734h-4.12266l-7.84933-12.348q-3.932-6.196-6.12534-7.728a11.17889 11.17889 0 0 0-6.416-1.53334h-6.09467v21.60934h-3.484z" class="cls-8"/></g><g id="g68"><path id="path70" d="M843.93314 298.40562a19.3677 19.3677 0 0 0 14.208-5.75866 20.12841 20.12841 0 0 0 0-28.252 19.36771 19.36771 0 0 0-14.208-5.75867 19.62014 19.62014 0 0 0-14.304 5.75867 19.972 19.972 0 0 0 0 28.252 19.62013 19.62013 0 0 0 14.304 5.75866m-.12934-42.99462a23.46012 23.46012 0 0 1 16.94934 6.72534 22.7839 22.7839 0 0 1 0 32.76933 24.63842 24.63842 0 0 1-33.83334 0 22.86027 22.86027 0 0 1 0-32.76933 23.31122 23.31122 0 0 1 16.884-6.72534" class="cls-8"/></g><g id="g72"><path id="path74" d="M885.213 255.99189v45.05866q0 7.45-2.80667 10.28933a9.03648 9.03648 0 0 1-6.64533 2.83734 19.95531 19.95531 0 0 1-2.09467-.12934l-.324-3.28933a9.12389 9.12389 0 0 0 2.06534.25867q6.32 0 6.32133-9.032v-45.99333z" class="cls-8"/></g><g id="g76"><path id="path78" d="M925.20071 255.99189v2.90267h-21.09333v18.02933h20.54533v2.936h-20.54533v18.28666H925.718v2.904h-25.09329v-45.05866z" class="cls-8"/></g><g id="g80"><path id="path82" d="M975.73757 259.185v3.80534a34.08588 34.08588 0 0 0-16.06266-4.35467 18.93505 18.93505 0 0 0-14.03067 5.71067 19.45808 19.45808 0 0 0-5.644 14.25466 19.09635 19.09635 0 0 0 5.676 14.224 19.80016 19.80016 0 0 0 14.48133 5.58q7.356 0 16.032-4.612v3.612a33.92473 33.92473 0 0 1-15.96533 4.22534 23.72989 23.72989 0 0 1-17.14267-6.596 23.091 23.091 0 0 1 .144-32.97866 23.38485 23.38485 0 0 1 16.676-6.644 37.91105 37.91105 0 0 1 15.836 3.77333" class="cls-8"/></g><g id="g84"><path id="path86" d="M1020.56488 255.99189v2.90267h-16.90133v42.156h-3.51467v-42.156h-16.90133v-2.90267z" class="cls-8"/></g><g id="g88"><path id="path90" d="M310.81 106.30631a31.93636 31.93636 0 0 0 23.42133-9.49066 31.5489 31.5489 0 0 0 9.544-23.26267 31.60829 31.60829 0 0 0-9.544-23.31467A31.93113 31.93113 0 0 0 310.81 40.74765a32.35058 32.35058 0 0 0-23.58133 9.49067A31.42817 31.42817 0 0 0 277.578 73.553a31.36959 31.36959 0 0 0 9.65067 23.26267 32.3559 32.3559 0 0 0 23.58133 9.49064m-.21333-70.876A38.68464 38.68464 0 0 1 338.538 46.51565 36.19253 36.19253 0 0 1 349.99531 73.553a36.12861 36.12861 0 0 1-11.45731 26.984 40.61875 40.61875 0 0 1-55.776 0 36.21316 36.21316 0 0 1-11.40533-26.984A36.27739 36.27739 0 0 1 282.762 46.51565a38.4379 38.4379 0 0 1 27.83467-11.08534" class="cls-8"/></g><g id="g92"><path id="path94" d="M369.72223 41.17257v29.988h13.824q9.304 0 14.144-3.93466 4.838-3.934 4.83733-11.112a13.59487 13.59487 0 0 0-4.732-10.9q-4.732-4.04-13.55733-4.04133zm-5.74267-4.78534h20.47067q11.75 0 17.99733 5.264 6.248 5.264 6.248 14.356 0 9.198-6.3 14.568-6.3 5.372-18.476 5.37067h-14.19733v34.72h-5.74267z" class="cls-8"/></g><g id="g96"><path id="path98" d="M460.21758 36.387v4.7853h-34.77333V70.895h33.86933v4.83867h-33.86933v30.14666h35.624v4.78534h-41.36666V36.387z" class="cls-8"/></g><g id="g100"><path id="path102" d="M539.81344 36.387v74.27867h-4.72533l-56.47333-64.92v64.92h-5.74266V36.387h4.86533l56.33466 64.92134V36.387z" class="cls-8"/></g><g id="g104"><path id="path106" d="M360.78969 225.31672h-22.22533v-42.696l-20.04533 24.724h-1.75466l-20.09734-24.724v42.696H275.079v-73.69333h20.152l22.65066 27.648 22.756-27.648h20.152z" class="cls-9"/></g><g id="g108"><path id="path110" d="M426.45424 197.56245l-10.79333-26.904-10.9 26.904zm33.86933 27.75467h-22.756l-6.00933-14.94h-32.008l-6.11467 14.94h-22.75733l32.59333-73.69467h24.56534z" class="cls-9"/></g><path id="path112" d="M492.43865 225.31631h-22.224V151.623h22.224z" class="cls-9"/><g id="g114"><path id="path116" d="M591.06942 225.31672h-19.78l-38.228-41.048v41.048h-22.012v-73.69333h19.72533l38.124 40.83333v-40.83333h22.17066z" class="cls-9"/></g><g id="g118"><path id="path120" d="M662.37 195.48791h-30.572v29.82933h-22.22537v-73.69466H662.37v14.78133h-30.572v14.25066h30.572z" class="cls-9"/></g><g id="g122"><path id="path124" d="M718.46505 174.91125q0-5.104-3.34934-7.12534-3.35-2.018-10.9-2.02h-4.67866v17.75866h4.78533q8.136 0 11.13866-1.78133 3.004-1.78 3.004-6.832m30.20133 50.40533H724.793l-5.796-13.07867a54.3087 54.3087 0 0 0-5.74266-10.50266 12.4029 12.4029 0 0 0-4.97067-4.25334 17.67574 17.67574 0 0 0-6.248-.92933h-2.49866v28.764h-22.2253v-73.69332h37.804q9.144 0 14.99333 3.72133a22.34783 22.34783 0 0 1 8.428 9.03867 23.19808 23.19808 0 0 1 2.57867 10.10267 19.12058 19.12058 0 0 1-2.152 9.43866 17.33757 17.33757 0 0 1-4.54667 5.60933 45.49536 45.49536 0 0 1-5.37066 3.34934 21.18327 21.18327 0 0 1 5.87466 4.91866q2.314 2.844 6.30134 11.51067z" class="cls-9"/></g><g id="g126"><path id="path128" d="M805.82409 197.56245l-10.79333-26.904-10.9 26.904zm33.86933 27.75467h-22.75733l-6.008-14.94h-32.008l-6.11467 14.94h-22.756l32.592-73.69467h24.56534z" class="cls-9"/></g><g id="g130"><path id="path132" d="M935.18582 225.31672h-22.224v-42.696l-20.04533 24.724h-1.75467l-20.09866-24.724v42.696h-21.58667v-73.69333h20.152l22.65066 27.648 22.756-27.648h20.15067z" class="cls-9"/></g><g id="g134"><path id="path136" d="M1009.3585 225.31672h-55.56266v-73.69333h54.66v14.78134h-32.43467v13.504h30.944v14.836h-30.944v15.73734h33.33733z" class="cls-9"/></g></g></g></g><path d="M117.83391 336.26241v35.53557h25.02987v-6.38433h-17.6032v-29.15123zm36.67391 6.12375v-6.34319h-6.96722v6.3432zm-6.96722 3.13388v26.27794h6.96722v-26.27794zm34.84981 1.50865c-1.72809-1.42636-3.94992-2.13268-6.67234-2.13268-2.16697 0-3.95678.52802-5.37628 1.59094-.78176.58974-1.61837 1.5635-2.50299 2.91443v-3.83334h-6.6312v26.22994h6.84378v-14.22246c0-1.62522.2263-2.95558.6789-4.00478.86404-1.97496 2.4687-2.96244 4.80025-2.96244 1.89267 0 3.18188.67204 3.85391 2.02297.3703.7406.55546 1.80352.55546 3.18188v15.98483h7.0358v-17.69235c0-3.29846-.86405-5.65744-2.58528-7.07694zm-9.20276-2.20812zm24.98187.69947h-7.04265v15.84082c0 3.00359.37716 5.28028 1.13149 6.82322 1.35092 2.79786 3.97049 4.19679 7.8587 4.19679 1.35092 0 2.53041-.1783 3.5316-.53489 1.00806-.34973 2.0504-1.00805 3.12702-1.97496.34974-.30859.65832-.65832.91205-1.06291.26059-.39774.41831-.6446.48003-.72004v3.70991h6.6792v-26.27794h-6.96722v14.29789c0 1.68694-.2263 3.04473-.67203 4.07335-.8709 1.89953-2.47556 2.84586-4.82083 2.84586-1.83095 0-3.0653-.66517-3.68933-2.00239-.35659-.75432-.52803-1.87895-.52803-3.37389zm4.82082-.69947zm15.9094 26.97741h8.33872l4.56024-7.87927 4.53281 7.87927h8.55816l-8.96961-13.42699 8.6336-12.80295h-8.17415l-4.2928 7.61868-4.3888-7.61868h-8.41415l8.5856 12.92639zm51.5204-29.36382h6.84379c3.37389 0 5.63.96691 6.7615 2.90758 1.13834 1.93382 1.70065 4.7111 1.70065 8.32501 0 2.61956-.37716 4.88254-1.13149 6.77521-1.38521 3.45618-3.82648 5.18427-7.33066 5.18427h-6.84379zm13.59842-5.39685c-1.4675-.48688-3.29845-.7406-5.49971-.7749h-15.30594v35.53557h15.30594c5.36942 0 9.33991-2.20812 11.91148-6.6312 1.89267-3.27789 2.84586-7.27581 2.84586-12.00063 0-1.86524-.2263-3.82648-.6789-5.88373-.44573-2.05725-1.2892-3.9705-2.53041-5.73973-1.54294-2.18754-3.55904-3.68934-6.04832-4.50538zm21.35426 5.34885v-6.34319h-6.96722v6.3432zm-6.96722 3.13388v26.27794h6.96722v-26.27794zm18.9747 17.89122h-6.96722c0 2.695.98748 4.91682 2.95558 6.66549 1.9681 1.7418 5.0197 2.6127 9.14791 2.6127 4.05278 0 7.04265-.8229 8.98332-2.4687 1.93382-1.6458 2.90073-3.77162 2.90073-6.37747 0-1.97496-.67204-3.62762-2.02297-4.94426-1.36464-1.30292-3.41503-2.26983-6.14432-2.91444-4.10078-.89833-6.48719-1.53608-7.16608-1.90638-.67204-.34973-1.00806-.92576-1.00806-1.70752 0-.63089.31545-1.17949.9532-1.6458.63089-.45945 1.6938-.6926 3.18873-.6926 1.81724 0 3.10645.45945 3.86078 1.39207.39773.51431.65146 1.21377.74747 2.0984h6.87121c-.30859-3.20932-1.49494-5.4723-3.55904-6.78208-2.06411-1.30978-4.73853-1.9681-8.01642-1.9681-3.45618 0-6.1306.8709-8.03699 2.61957-1.90638 1.7418-2.85958 3.82648-2.85958 6.25404 0 2.05725.61032 3.63447 1.83096 4.72481 1.22749 1.11092 3.31903 2.02982 6.29518 2.77043 4.12822.98063 6.51463 1.67323 7.15923 2.07783.6446.39773.9669.98748.9669 1.75552 0 .80232-.39773 1.40578-1.1932 1.81038-.79547.39773-1.8721.60346-3.22302.60346-2.29727 0-3.86763-.45946-4.72482-1.37836-.48002-.51431-.79547-1.37836-.93948-2.599zm5.2597-18.59069zm14.14703 5.83574h3.66876v16.17684c0 1.63894.38402 2.85272 1.15206 3.64133 1.1932 1.23435 3.40818 1.79667 6.65863 1.68695l3.25046-.12344v-5.13627c-.21944.02058-.4526.0343-.68575.04115-.23316.00686-.4526.01371-.65832.01371-1.39893 0-2.23555-.13715-2.50985-.40459-.2743-.26058-.41145-.93262-.41145-2.00925v-13.88643h4.26537v-4.89626h-4.26537v-7.3238h-6.79578v7.3238h-3.66876zm33.7389-5.75345c-.0823-.00685-.19201-.00685-.3223-.00685-2.05726 0-3.73049.53488-5.01284 1.61151-.78861.6446-1.71437 1.84467-2.77729 3.59333v-4.58081h-6.55577v26.27794h6.91922V359.2419c0-2.11211.26744-3.66877.79547-4.68368.94634-1.79666 2.80472-2.695 5.5683-2.695.21257 0 .48687.00686.8229.02058.33601.02057.72003.048 1.15891.096v-7.03579c-.30859-.02057-.50746-.02743-.5966-.04115zm11.68518-2.5167v-6.34319h-6.96722v6.3432zm-6.96722 3.13388v26.27794h6.96722v-26.27794zm35.9333 3.1613c-1.95439-2.49612-4.65625-3.73733-8.11243-3.73733-1.91324 0-3.49046.39773-4.72481 1.20692-1.0492.63775-2.0024 1.57037-2.8733 2.791v-12.63151h-6.84378v35.48756h6.7272v-3.29846c.91205 1.28235 1.76924 2.18069 2.551 2.695 1.3235.8709 3.0653 1.30292 5.23227 1.30292 3.45618 0 6.15118-1.34407 8.07813-4.02535 1.92696-2.68128 2.89387-6.06889 2.89387-10.1491 0-3.9362-.97377-7.15237-2.92815-9.64164zm-5.75345 16.00541c-.98062 1.43322-2.35212 2.1464-4.12135 2.1464-2.04354 0-3.55905-.74061-4.55338-2.22183-1.0012-1.47436-1.49494-3.3396-1.49494-5.58886 0-1.91325.24001-3.4699.72004-4.67682.93262-2.26983 2.647-3.40132 5.13627-3.40132 2.46184 0 4.14878 1.15892 5.06083 3.4699.48688 1.22749.7269 2.77043.7269 4.62881 0 2.33155-.49374 4.2105-1.47437 5.64372zm20.44907-19.16671h-7.04265v15.84082c0 3.00359.37716 5.28028 1.13148 6.82322 1.35093 2.79786 3.9705 4.19679 7.8587 4.19679 1.35093 0 2.53042-.1783 3.53161-.53489 1.00805-.34973 2.0504-1.00805 3.12702-1.97496.34973-.30859.65832-.65832.91205-1.06291.26058-.39774.4183-.6446.48688-.72004v3.70991h6.67235v-26.27794h-6.96722v14.29789c0 1.68694-.21944 3.04473-.67204 4.07335-.8709 1.89953-2.47555 2.84586-4.82082 2.84586-1.83095 0-3.0653-.66517-3.68933-2.00239-.3566-.75432-.52803-1.87895-.52803-3.37389zm4.82082-.69947zm15.78597 5.83574h3.66876v16.17684c0 1.63894.38402 2.85272 1.15892 3.64133 1.18634 1.23435 3.40132 1.79667 6.65177 1.68695l3.25046-.12344v-5.13627c-.21944.02058-.4526.0343-.68575.04115-.23316.00686-.4526.01371-.65832.01371-1.39893 0-2.23555-.13715-2.50985-.40459-.2743-.26058-.41145-.93262-.41145-2.00925v-13.88643h4.26537v-4.89626h-4.26537v-7.3238h-6.79578v7.3238h-3.66876zm26.20936-8.27015v-6.34319h-6.96722v6.3432zm-6.96722 3.13388v26.27794h6.96722v-26.27794zm30.03585 19.29015c-1.07663 1.42636-2.61956 2.1464-4.62881 2.1464-2.00925 0-3.55219-.72004-4.63567-2.1464-1.09034-1.43322-1.63209-3.46304-1.63209-6.10318 0-2.63328.54175-4.6631 1.63209-6.08946 1.08348-1.4195 2.62642-2.13268 4.63567-2.13268s3.55218.71318 4.62881 2.13268c1.07663 1.42636 1.61837 3.45618 1.61837 6.08946 0 2.64014-.54174 4.66996-1.61837 6.10318zm5.49972 3.7922c2.21497-2.73615 3.32588-6.0346 3.32588-9.89538 0-3.7922-1.11091-7.07694-3.32588-9.86108-2.21498-2.77729-5.58887-4.16936-10.1011-4.16936-4.5191 0-7.88613 1.39207-10.1011 4.16936-2.22183 2.78414-3.32589 6.06888-3.32589 9.86108 0 3.86077 1.10406 7.15923 3.3259 9.89537 2.21496 2.743 5.582 4.1145 10.10109 4.1145 4.51223 0 7.88612-1.3715 10.1011-4.1145zm-10.1011-23.78182zm39.57463 2.20812c-1.72809-1.42636-3.94992-2.13268-6.66549-2.13268-2.17383 0-3.96363.52802-5.37628 1.59094-.78861.58974-1.62523 1.5635-2.50984 2.91443v-3.83334h-6.6312v26.22994h6.85064v-14.22246c0-1.62522.2263-2.95558.67203-4.00478.8709-1.97496 2.4687-2.96244 4.80025-2.96244 1.89267 0 3.18188.67204 3.85392 2.02297.3703.7406.55545 1.80352.55545 3.18188v15.98483h7.04266v-17.69235c0-3.29846-.86405-5.65744-2.59214-7.07694zm-9.1959-2.20812zm23.48007 18.59069h-6.96722c0 2.695.98063 4.91682 2.94873 6.66549 1.97496 1.7418 5.01969 2.6127 9.15476 2.6127 4.04593 0 7.04265-.8229 8.97647-2.4687 1.94067-1.6458 2.90758-3.77162 2.90758-6.37747 0-1.97496-.6789-3.62762-2.02296-4.94426-1.3715-1.30292-3.4219-2.26983-6.15118-2.91444-4.10079-.89833-6.4872-1.53608-7.15923-1.90638-.6789-.34973-1.01491-.92576-1.01491-1.70752 0-.63089.3223-1.17949.9532-1.6458.63774-.45945 1.70065-.6926 3.19559-.6926 1.81723 0 3.09959.45945 3.85391 1.39207.4046.51431.65146 1.21377.74747 2.0984h6.87121c-.30173-3.20932-1.48807-5.4723-3.55218-6.78208-2.0641-1.30978-4.73853-1.9681-8.01642-1.9681-3.45618 0-6.13746.8709-8.04385 2.61957-1.89952 1.7418-2.85272 3.82648-2.85272 6.25404 0 2.05725.61032 3.63447 1.83096 4.72481 1.22063 1.11092 3.31903 2.02982 6.29518 2.77043 4.12822.98063 6.51463 1.67323 7.15923 2.07783.63775.39773.96005.98748.96005 1.75552 0 .80232-.39773 1.40578-1.1932 1.81038-.79547.39773-1.86524.60346-3.21617.60346-2.29726 0-3.87449-.45946-4.72482-1.37836-.48002-.51431-.79547-1.37836-.93948-2.599zm5.25285-18.59069zm35.97444-8.55816h-7.88612l10.07367 35.53557h6.89864l4.2928-20.77823 1.25492-6.87121 1.24806 6.87121 4.2928 20.77823h7.09065l10.0051-35.53557h-7.55011l-4.74539 20.56565-1.08349 5.44485-1.09034-5.6643-4.21736-20.3462h-7.83812l-3.99793 20.46964-1.03548 5.54086-1.0149-5.6643zm57.61672 28.54778c-1.07663 1.42636-2.61957 2.1464-4.62881 2.1464-2.00925 0-3.55905-.72004-4.64253-2.1464-1.08349-1.43322-1.62523-3.46304-1.62523-6.10318 0-2.63328.54174-4.6631 1.62523-6.08946 1.08348-1.4195 2.63328-2.13268 4.64253-2.13268 2.00924 0 3.55218.71318 4.62881 2.13268 1.07663 1.42636 1.61151 3.45618 1.61151 6.08946 0 2.64014-.53488 4.66996-1.61151 6.10318zm5.49286 3.7922c2.22183-2.73615 3.33274-6.0346 3.33274-9.89538 0-3.7922-1.11091-7.07694-3.33274-9.86108-2.21498-2.77729-5.582-4.16936-10.1011-4.16936-4.51224 0-7.87927 1.39207-10.1011 4.16936-2.21497 2.78414-3.32589 6.06888-3.32589 9.86108 0 3.86077 1.11092 7.15923 3.3259 9.89537 2.22182 2.743 5.58885 4.1145 10.10109 4.1145 4.5191 0 7.88612-1.3715 10.1011-4.1145zm-10.1011-23.78182zm32.94343.0823c-.08229-.00686-.19201-.00686-.3223-.00686-2.05725 0-3.73048.53488-5.01284 1.61151-.7886.6446-1.71437 1.84467-2.77728 3.59333v-4.58081h-6.55577v26.27794h6.91921V359.2419c0-2.11211.26745-3.66877.79547-4.68368.94634-1.79666 2.80472-2.695 5.5683-2.695.21258 0 .48688.00686.8229.02058.33601.02057.72003.048 1.15891.096v-7.03579c-.30858-.02057-.50745-.02743-.5966-.04115zm4.54652-8.51702v35.41213h6.75464v-8.27015l2.839-2.96244 6.29519 11.23259h8.29072l-9.54564-16.10141 9.18905-10.0531h-8.51016l-8.55816 9.88166v-19.13928zm34.59609 6.00031v-6.34319h-6.96722v6.3432zm-6.96722 3.13388v26.27794h6.96722v-26.27794zm34.84981 1.50865c-1.72809-1.42636-3.94992-2.13268-6.66549-2.13268-2.17382 0-3.96363.52802-5.37628 1.59094-.7886.58974-1.62522 1.5635-2.50984 2.91443v-3.83334h-6.6312v26.22994h6.85064v-14.22246c0-1.62522.2263-2.95558.67203-4.00478.8709-1.97496 2.4687-2.96244 4.80025-2.96244 1.89267 0 3.18188.67204 3.85392 2.02297.3703.7406.55546 1.80352.55546 3.18188v15.98483h7.04265v-17.69235c0-3.29846-.86404-5.65744-2.59213-7.07694zm-9.1959-2.20812zm33.48517 19.51645c-1.11092 1.21378-2.4687 1.81724-4.07336 1.81724-2.41384 0-4.08707-1.10406-5.01283-3.32589-.51431-1.18635-.7749-2.54413-.7749-4.07336 0-1.76923.24002-3.25045.72004-4.45737.9189-2.26983 2.58528-3.40132 4.99226-3.40132 1.76924 0 3.18188.65146 4.23108 1.95439 1.05605 1.30292 1.57722 3.1956 1.57722 5.69172 0 2.647-.5486 4.58081-1.65951 5.79459zm-2.3384-18.83755c-.98063-.4046-2.13269-.60346-3.44933-.60346-3.5659 0-6.32262 1.33035-8.27015 3.99106-1.94067 2.65385-2.91443 5.9386-2.91443 9.84737 0 4.04593 1.00805 7.25524 3.02415 9.62793 2.01611 2.3727 4.7111 3.55904 8.09185 3.55904 2.18069 0 3.95678-.52117 5.32828-1.57036.75433-.56232 1.46065-1.40579 2.11897-2.53042v1.68694c0 2.50985-.2743 4.2928-.8229 5.35571-.82976 1.65266-2.48927 2.48242-4.96483 2.48242-1.74866 0-2.99673-.31545-3.73734-.93948-.43202-.35659-.74747-.93262-.93948-1.73495h-7.47467c.2263 2.61957 1.39893 4.58767 3.52475 5.90431 2.11897 1.31664 4.86197 1.97496 8.21529 1.97496 5.56143 0 9.3262-1.48122 11.28744-4.4368 1.13835-1.72124 1.70752-4.27223 1.70752-7.66669v-24.92701h-6.67235v3.78534c-1.02862-1.84467-2.37955-3.12016-4.05278-3.80591zm-1.25493-.6789zm56.56066 2.53042h7.30324c-.4046-3.42189-1.97496-6.28147-4.7111-8.57187-2.743-2.28355-6.37062-3.42875-10.88972-3.42875-5.20484 0-9.39477 1.73494-12.55608 5.20484-3.16816 3.4699-4.75225 8.085-4.75225 13.83843 0 5.69173 1.57037 10.16968 4.70425 13.45442 3.00358 3.25731 6.8575 4.8894 11.5686 4.8894 2.85958 0 5.27342-.60346 7.23466-1.80353 1.13835-.6926 2.42756-1.8858 3.85392-3.57275l.74747 4.4368h4.92368v-19.0707h-14.80534v5.93173h8.22214c-.3703 2.33155-1.35093 4.21736-2.94187 5.65744-1.59094 1.43321-3.63447 2.15325-6.12374 2.15325-2.53728 0-4.80711-.90519-6.79579-2.72243-1.99553-1.81723-2.98987-4.90997-2.98987-9.28505 0-4.33394.91891-7.5844 2.75672-9.75137 1.83781-2.1601 4.18993-3.2436 7.04951-3.2436 1.49493 0 2.85272.26745 4.08021.80233 2.18069.96005 3.55904 2.65386 4.12136 5.08141zm-8.31815-12.00062zm36.87278 9.5525c-.08915-.00686-.19887-.00686-.3223-.00686-2.05725 0-3.73048.53488-5.0197 1.61151-.7886.6446-1.70751 1.84467-2.77042 3.59333v-4.58081h-6.55577v26.27794h6.91921V359.2419c0-2.11211.26059-3.66877.79547-4.68368.94634-1.79666 2.80472-2.695 5.5683-2.695.20572 0 .48002.00686.81604.02058.34287.02057.7269.048 1.15891.096v-7.03579c-.30173-.02057-.5006-.02743-.58974-.04115zm21.03195 19.90732c-1.07663 1.42636-2.61956 2.1464-4.62881 2.1464-2.00925 0-3.55219-.72004-4.63567-2.1464-1.09034-1.43322-1.63209-3.46304-1.63209-6.10318 0-2.63328.54175-4.6631 1.63209-6.08946 1.08348-1.4195 2.62642-2.13268 4.63567-2.13268s3.55218.71318 4.62881 2.13268c1.07663 1.42636 1.61837 3.45618 1.61837 6.08946 0 2.64014-.54174 4.66996-1.61837 6.10318zm5.49972 3.7922c2.21497-2.73615 3.32588-6.0346 3.32588-9.89538 0-3.7922-1.11091-7.07694-3.32588-9.86108-2.21498-2.77729-5.58887-4.16936-10.1011-4.16936-4.5191 0-7.88613 1.39207-10.1011 4.16936-2.22183 2.78414-3.32589 6.06888-3.32589 9.86108 0 3.86077 1.10406 7.15923 3.3259 9.89537 2.21496 2.743 5.582 4.1145 10.10109 4.1145 4.51223 0 7.88612-1.3715 10.1011-4.1145zm-10.1011-23.78182zm25.19445.69947h-7.04265v15.84082c0 3.00359.37716 5.28028 1.13149 6.82322 1.35093 2.79786 3.9705 4.19679 7.8587 4.19679 1.35092 0 2.53041-.1783 3.53846-.53489 1.0012-.34973 2.04354-1.00805 3.12017-1.97496.34973-.30859.65832-.65832.91204-1.06291.26059-.39774.41831-.6446.48689-.72004v3.70991h6.6792v-26.27794h-6.96722v14.29789c0 1.68694-.2263 3.04473-.67889 4.07335-.86405 1.89953-2.47556 2.84586-4.82082 2.84586-1.83096 0-3.0653-.66517-3.68934-2.00239-.35659-.75432-.52803-1.87895-.52803-3.37389zm4.82083-.69947zm35.2064 8.46216c.92576 1.55665 1.39207 3.35332 1.39207 5.37628 0 2.46184-.50745 4.42994-1.50865 5.9043-1.00805 1.48123-2.46184 2.22184-4.37508 2.22184-1.31664 0-2.46184-.36345-3.4219-1.08349-1.62522-1.2412-2.44126-3.3876-2.44126-6.43919 0-1.92696.24687-3.5179.7269-4.77282.93261-2.36584 2.64013-3.54533 5.13626-3.54533 2.07096 0 3.57276.78176 4.49166 2.33841zm5.28028-4.94426c-2.12583-2.26297-4.72482-3.39446-7.79698-3.39446-2.10525 0-3.92249.58289-5.44485 1.75552-.83662.65832-1.62523 1.56351-2.36584 2.70185v-3.88134h-6.5832v36.61905h6.80264v-13.69443c.72003 1.11092 1.46065 1.95439 2.21497 2.53728 1.38521 1.04234 3.12016 1.5635 5.20484 1.5635 3.28474 0 5.95917-1.21377 8.04385-3.64133 2.07782-2.42755 3.12016-5.9523 3.12016-10.58112 0-4.3888-1.06291-7.71469-3.1956-9.98452z"/></svg>