<svg xmlns="http://www.w3.org/2000/svg" role="img" xmlns:xlink="http://www.w3.org/1999/xlink" viewBox="-4.53 -4.53 248.82 61.32"><title>Mainframe Security Insights Platform logo</title><path d="M237.32 9.09c-1.06 0-1.93-.86-1.93-1.92s.87-1.93 1.93-1.93 1.93.87 1.93 1.93-.87 1.92-1.93 1.92m0-4.32c-1.32 0-2.4 1.08-2.4 2.4 0 1.32 1.08 2.4 2.4 2.4 1.32 0 2.4-1.08 2.4-2.4 0-1.32-1.08-2.4-2.4-2.4"/><path d="M237.48 7.07l-.51.01-.01-.62h.51c.19-.01.34.11.34.3.01.19-.14.31-.33.31m.83-.32c-.01-.42-.3-.72-.77-.72l-1.07.02.03 2.26h.49l-.01-.81h.35l.46.8.55-.01-.52-.86c.24-.06.49-.28.49-.68M51.8341 23.1805h-5.999V9.3465h5.835c1.574 0 2.557 1.016 2.557 2.393 0 1.377-.983 2.36-2.557 2.36H45v4h6.8341c1.836 0 2.819 1.18 2.819 2.556 0 1.574-1.049 2.525-2.819 2.525m3.376-7.245c2.066-.426 3.771-2.262 3.771-5.015 0-2.918-2.131-5.573-6.295-5.573h-11.506v21.865h11.867c4.163 0 6.359-2.623 6.359-5.901 0-2.754-1.868-5.015-4.196-5.376m17.8225-.5902H68v4.098h3.5576l4.294 7.769h5.343l-4.917-8.327c2.361-.557 4.786-2.622 4.786-6.49m0 0c0-4.065-2.786-7.048-7.343-7.048h-10.228v21.865h4.655V9.4453h4.885c1.869 0 3.278 1.114 3.278 2.95s-1.409 2.95-3.278 2.95m43.4206 4.0652l3.409-9.408 3.41 9.408zm.492-14.063l-8.458 21.865h5.31l1.377-3.704h9.376l1.344 3.704h5.311l-8.425-21.865zm26.9039 17.7671h-3.967v-13.67h3.967c4.491 0 6.851 2.983 6.851 6.852 0 3.704-2.524 6.818-6.851 6.818m0-17.767h-8.622v21.865h8.622c6.851 0 11.604-4.327 11.604-10.916s-4.753-10.949-11.604-10.949m82.1269-.0045l-5.734 9.27-5.734-9.27h-5.146v21.869h4.656v-14.293l5.012 7.622c.574.871 1.851.871 2.424 0l5.013-7.622v14.293h4.656V5.3431z"/><path id="a" d="M95.8253 23.3441c-3.871 0-7.008-3.138-7.008-7.008 0-3.871 3.137-7.009 7.008-7.009 3.87 0 7.008 3.138 7.008 7.009 0 3.87-3.138 7.008-7.008 7.008m0-18.536c-6.367 0-11.528 5.161-11.528 11.528 0 6.366 5.161 11.527 11.528 11.527 6.366 0 11.528-5.161 11.528-11.527 0-6.367-5.162-11.528-11.528-11.528"/><path d="M176.4035 19.7269c-1.195 2.156-3.492 3.617-6.132 3.617-3.87 0-7.008-3.138-7.008-7.008 0-3.871 3.138-7.008 7.008-7.008 2.618 0 4.897 1.438 6.1 3.565l3.27-3.269c-2.092-2.915-5.508-4.816-9.37-4.816-6.367 0-11.527 5.161-11.527 11.528 0 6.366 5.16 11.528 11.527 11.528 3.883 0 7.316-1.922 9.404-4.865z"/><use transform="translate(98.718)" xlink:href="#a"/><ellipse cx="16.52" cy="16.497" fill="#cc092f" rx="16.236" ry="16.235"/><path fill="#fff" d="M30.8253 20.8832c-1.857-.74-3.557-.492-5.261.541 0 0-.621.379-.807.496-.794.498-1.543.97-2.263.97-.687 0-1.363-.184-1.649-1.513-.446-2.073-1.534-7.167-2.009-9.69-.279-1.483-.432-2.282-.591-2.825-.28-.954-.792-1.473-1.519-1.556 0 0-.114-.016-.207-.016-.092 0-.218.018-.218.018-.72.086-1.229.605-1.507 1.554-.159.543-.312 1.342-.591 2.825-.475 2.523-1.563 7.617-2.009 9.69-.286 1.329-.962 1.513-1.649 1.513-.72 0-1.469-.472-2.263-.97-.186-.117-.808-.496-.808-.496-1.703-1.033-3.404-1.281-5.26-.541-.401.16-.79596.33918-1.17196.52018.257.806.57693 1.59925.94993 2.34425.411-.202.84203-.40243 1.28203-.53243.634-.187 1.284-.197 1.914.014.612.205 1.157.568 1.7.909 1.023.643 2.182 1.372 3.657 1.372 2.186 0 3.72-1.305 4.21-3.581.38-1.764 1.222-5.702 1.763-8.418 0 0 1.386 6.654 1.765 8.418.49 2.276 2.025 3.581 4.211 3.581 1.475 0 2.634-.729 3.657-1.372.543-.341 1.088-.704 1.7-.909.629-.211 1.28-.201 1.914-.014.44.13.87039.33065 1.28139.53265.374-.745.69309-1.53862.95009-2.34462-.376-.181-.77048-.36003-1.17148-.52003"/><path d="M28.83383 49.47266q-.26855.11718-.48828.21972-.21484.10254-.5664.21485-.29786.09277-.64942.15625-.34668.06836-.7666.06836-.79102 0-1.44043-.21973-.64453-.22461-1.12305-.69824-.46875-.46387-.73242-1.17676-.26367-.71777-.26367-1.66504 0-.89844.2539-1.60644.25391-.70801.73243-1.1963.46386-.47363 1.11816-.72265.65918-.24902 1.45996-.24902.58594 0 1.167.1416.58593.1416 1.29882.49804v1.14747h-.07324q-.60058-.50293-1.1914-.73243-.59082-.22949-1.26465-.22949-.55176 0-.9961.18067-.43945.17578-.78613.55175-.33691.36621-.52734.92774-.18555.55664-.18555 1.28906 0 .7666.20508 1.31836.20996.55176.5371.89844.3418.36133.7959.5371.45899.1709.9668.1709.69825 0 1.3086-.23925.61035-.23926 1.14257-.71778h.06836zM35.93344 50h-1.03027l-.7129-2.02637h-3.14452L30.33285 50h-.98144l2.64648-7.2705h1.28907zm-2.04101-2.85644L32.618 43.57422l-1.2793 3.56934zM47.02719 50h-.9668v-6.26465l-2.02148 4.2627h-.57617l-2.00684-4.2627V50h-.90332v-7.2705h1.31836l1.93848 4.04784 1.875-4.04785h1.34277zm6.11817 0h-.9131v-.58105q-.12206.083-.33202.23437-.20508.14649-.4004.23438-.22948.1123-.52734.18554-.29785.07813-.69824.07813-.7373 0-1.25-.48828t-.5127-1.24512q0-.62011.26368-1.00097.26855-.38574.76172-.60547.49804-.21973 1.19629-.29785.69824-.07813 1.49902-.1172v-.1416q0-.3125-.1123-.51757-.10743-.20508-.3125-.32227-.19532-.1123-.46876-.15136-.27343-.03906-.57128-.03906-.36133 0-.80567.09766-.44433.09277-.91797.27343h-.04883v-.93261q.26856-.07324.77637-.16114.50781-.08789 1.00098-.08789.57617 0 1.00097.09766.42969.09277.74219.32227.30762.2246.46875.58105.16113.35645.16113.8838zm-.9131-1.34277v-1.51856q-.41991.02441-.9912.07324-.5664.04883-.89844.1416-.3955.1123-.63965.35157-.24414.23437-.24414.64941 0 .46875.2832.708.2832.23438.86426.23438.4834 0 .8838-.18554.40038-.19043.74218-.4541zm3.667-5.02442h-1.03515v-.95215h1.03515zM55.84066 50h-.91796v-5.4541h.91797zm6.37696 0h-.91797v-3.10547q0-.37598-.04395-.70312-.04395-.33203-.16113-.51758-.12207-.20508-.35156-.30274-.2295-.10254-.5957-.10254-.37598 0-.78614.18555-.41016.18555-.78613.47363V50h-.91797v-5.4541h.91797v.60547q.42968-.35645.88867-.55664.45898-.2002.94238-.2002.8838 0 1.34766.53223.46387.53222.46387 1.5332zm4.70215-6.70898h-.04883q-.15137-.04395-.3955-.0879-.24415-.04882-.4297-.04882-.59082 0-.85937.26367-.26367.25879-.26367.94238v.18555h1.65527v.77148H64.952V50h-.91797v-4.68262h-.62012v-.77148h.62012v-.18067q0-.97167.4834-1.48925.4834-.52246 1.39648-.52246.30762 0 .55176.0293.24902.0293.4541.06836zm3.98437 2.25585h-.04883q-.20507-.04882-.40039-.06835-.19043-.02442-.4541-.02442-.4248 0-.82031.19043-.3955.18555-.76172.4834V50h-.91797v-5.4541h.91797v.80566q.54688-.43945.96191-.62011.41993-.18555.8545-.18555.23925 0 .34668.01465.10742.0098.32226.04395zM75.8309 50h-.91308v-.58105q-.12207.083-.33204.23437-.20507.14649-.40039.23438-.22949.1123-.52734.18554-.29785.07813-.69824.07813-.7373 0-1.25-.48828t-.5127-1.24512q0-.62011.26368-1.00097.26855-.38574.76171-.60547.49805-.21973 1.1963-.29785.69823-.07813 1.49902-.1172v-.1416q0-.3125-.1123-.51757-.10743-.20508-.3125-.32227-.19532-.1123-.46876-.15136t-.57129-.03906q-.36133 0-.80566.09766-.44434.09277-.91797.27343h-.04883v-.93261q.26855-.07324.77637-.16114.50781-.08789 1.00097-.08789.57618 0 1.00098.09766.42969.09277.74219.32227.30762.2246.46875.58105.16113.35645.16113.8838zm-.91308-1.34277v-1.51856q-.41993.02441-.99122.07324-.5664.04883-.89843.1416-.39551.1123-.63965.35157-.24414.23437-.24414.64941 0 .46875.2832.708.2832.23438.86426.23438.4834 0 .88379-.18554.40039-.19043.74219-.4541zM85.55746 50h-.91796v-3.10547q0-.35156-.03418-.67871-.0293-.32715-.13184-.52246-.1123-.20996-.32227-.31738-.20996-.10742-.60546-.10742-.38575 0-.77149.1953-.38574.19044-.77148.48829.01465.1123.0244.26367.0098.14649.0098.29297V50h-.91796v-3.10547q0-.36133-.03418-.6836-.0293-.32714-.13184-.52245-.1123-.20996-.32226-.3125-.20996-.10742-.60547-.10742-.37598 0-.75684.18554-.37597.18555-.75195.47363V50h-.918v-5.4541h.91797v.60547q.42969-.35645.8545-.55664.42968-.2002.91308-.2002.55664 0 .94238.23438.39063.23437.58105.64941.55665-.46875 1.01563-.67383.45898-.20996.98145-.20996.89843 0 1.32324.54688.42968.54199.42968 1.51855zm6.33301-2.63184h-4.01855q0 .50293.15136.87891.15137.3711.41504.61035.25391.23438.60059.35156.35156.1172.77148.1172.55664 0 1.11817-.21974.5664-.2246.80566-.43945h.04883v1.00098q-.46387.19531-.94726.32715-.4834.13183-1.01563.13183-1.35742 0-2.11914-.73242-.76172-.7373-.76172-2.08984 0-1.3379.72754-2.12403.73242-.78613 1.92383-.78613 1.10351 0 1.69922.64453.60058.64453.60058 1.83106zm-.89355-.70312q-.0049-.72266-.36621-1.11816-.35645-.39551-1.08887-.39551-.7373 0-1.17676.43457-.43457.43457-.49316 1.0791zm11.15722 1.25977q0 .4248-.20019.83984-.19531.41504-.55176.70312-.39062.3125-.91308.48828-.51758.17579-1.25.17579-.78614 0-1.41602-.14649-.625-.14648-1.27441-.43457v-1.21094h.06836q.55175.45899 1.27441.70801.72266.24903 1.35742.24903.89844 0 1.3965-.33692.50291-.33691.50291-.89844 0-.4834-.23925-.71289-.23438-.22949-.71778-.35644-.3662-.09766-.7959-.16113-.4248-.06349-.90331-.16114-.9668-.20508-1.43555-.69824-.46387-.49805-.46387-1.29395 0-.91308.77149-1.49414.77148-.58593 1.958-.58593.7666 0 1.40625.14648t1.13282.36133v1.14258h-.0684q-.41504-.35157-1.09375-.58106-.67383-.23437-1.38184-.23437-.77637 0-1.25.32226-.46875.32227-.46875.83008 0 .4541.23438.7129.23437.25878.8252.3955.3125.06836.88866.16602.57617.09765.97656.20019.81055.21484 1.22071.64941.41015.43458.41015 1.21583zm6.04493-.55665h-4.01856q0 .50293.15137.87891.15137.3711.41504.61035.2539.23438.60058.35156.35157.1172.77149.1172.55664 0 1.11816-.21974.56641-.2246.80567-.43945h.0488v1.00098q-.46386.19531-.94726.32715-.4834.13183-1.01563.13183-1.35742 0-2.11914-.73242-.76172-.7373-.76172-2.08984 0-1.3379.72754-2.12403.73243-.78613 1.92383-.78613 1.10352 0 1.69922.64453.60059.64453.60059 1.83106zm-.89356-.70312q-.005-.72266-.36621-1.11816-.35644-.39551-1.08887-.39551-.7373 0-1.17675.43457-.43457.43457-.49317 1.0791zm6.31836 2.99316q-.45898.21973-.87402.3418-.41016.12207-.87403.12207-.59082 0-1.08398-.1709-.49316-.17578-.84473-.52734-.35644-.35156-.55175-.88867-.19532-.53711-.19532-1.25489 0-1.33789.73242-2.0996.73731-.76172 1.94336-.76172.46875 0 .91797.13183.4541.13184.83008.32227v1.0205h-.0488q-.41992-.32714-.86914-.50292-.44433-.17579-.86914-.17579-.78125 0-1.23535.52735-.44922.52246-.44922 1.53808 0 .98633.43945 1.51856.44434.52734 1.24512.52734.27832 0 .56641-.07324.28808-.07324.51758-.19043.20019-.10254.37597-.21484.17578-.11719.27832-.2002h.0488zm5.69824.3418h-.91797v-.60547q-.46386.36621-.88867.56152-.4248.19532-.9375.19532-.85937 0-1.33789-.52246-.47851-.52735-.47851-1.54297V44.5459h.91796v3.10547q0 .41504.0391.71289.0391.29297.16601.50293.13184.21484.3418.3125.20996.09766.61035.09766.35645 0 .77637-.18555.4248-.18555.79101-.47363V44.5459h.91797zm5.20996-4.45313h-.0488q-.20508-.04882-.40039-.06835-.19043-.02442-.45411-.02442-.4248 0-.82031.19043-.39551.18555-.76172.4834V50h-.91797v-5.4541h.91797v.80566q.54688-.43945.96192-.62011.41992-.18555.85449-.18555.23926 0 .34668.01465.10742.0098.32226.04395zm1.85059-1.91406h-1.03516v-.95215h1.03516zM126.32407 50h-.91797v-5.4541h.91797zm4.64843-.04883q-.25879.06836-.5664.1123-.30274.04395-.54199.04395-.83497 0-1.26954-.44921-.43457-.44923-.43457-1.44044v-2.90039h-.62011v-.77148h.62011v-1.56738h.91797v1.56738h1.89453v.77148h-1.89453v2.48535q0 .4297.0195.67383.0195.23926.13672.44922.10742.19531.29297.28809.19043.08789.57617.08789.22461 0 .46875-.06348.24414-.06836.35157-.1123h.0488zm5.77637-5.40527l-3.18359 7.46582h-.98145l1.01563-2.2754-2.17285-5.19042h.99609l1.6748 4.04296 1.68946-4.04296zM144.10239 50h-2.8711v-.74219h.95215v-5.78613h-.95215v-.74219h2.8711v.74219h-.95215v5.78613h.95215zm6.13281 0h-.91797v-3.10547q0-.37598-.0439-.70312-.0439-.33203-.16113-.51758-.12207-.20508-.35156-.30274-.22949-.10254-.5957-.10254-.37598 0-.78614.18555-.41015.18555-.78613.47363V50h-.91797v-5.4541h.91797v.60547q.42969-.35645.88867-.55664.45899-.2002.94239-.2002.88378 0 1.34765.53223.46387.53222.46387 1.5332zm5.66406-1.57227q0 .74708-.62012 1.22559-.61523.47852-1.68457.47852-.60546 0-1.11328-.1416-.50293-.14649-.84472-.31739v-1.03027h.0488q.43457.32715.9668.52246.53223.19043 1.02051.19043.60547 0 .94726-.19531.3418-.19532.3418-.61524 0-.32226-.18555-.48828-.18554-.16602-.71289-.2832-.19531-.04395-.51269-.10254-.3125-.0586-.57129-.12696-.71777-.19042-1.02051-.55663-.29785-.3711-.29785-.9082 0-.33692.13672-.63477.1416-.29786.4248-.53223.27344-.2295.69336-.36133.42481-.13672.94727-.13672.48828 0 .98633.12207.50293.11719.83496.28809v.98144h-.0488q-.35156-.25879-.85449-.43457-.50293-.18066-.98633-.18066-.50293 0-.84961.19531-.34668.19043-.34668.5713 0 .3369.20996.5078.20508.1709.66406.27832.25391.0586.56641.1172.31738.05858.52734.10741.63965.14649.98633.50293.34668.36133.34668.95703zm2.29981-4.79492h-1.03516v-.95215h1.03516zM158.14047 50h-.91797v-5.4541h.91797zm6.24024-.62012q0 1.38672-.62989 2.03614-.62988.64941-1.93847.64941-.43457 0-.84961-.06348-.41016-.05859-.81055-.1709v-.9375h.0488q.22461.0879.71289.21485.48828.13183.97656.13183.46875 0 .77637-.1123t.47852-.3125q.17089-.19043.24414-.45899.0732-.26855.0732-.60058v-.49805q-.41504.33203-.7959.49805-.37598.16113-.96191.16113-.97657 0-1.55274-.70313-.57129-.708-.57129-1.99218 0-.70313.19531-1.21094.2002-.5127.542-.88379.31738-.34668.77148-.5371.4541-.19532.90332-.19532.47363 0 .79102.09766.32226.09277.67871.28808l.0586-.23437h.85938zm-.91797-.8789v-2.97364q-.36621-.16601-.6836-.23437-.3125-.07324-.625-.07324-.75683 0-1.1914.50781t-.43457 1.47461q0 .91797.32226 1.3916.32227.47364 1.06934.47364.40039 0 .80078-.15137.40527-.15625.74219-.41504zM170.74789 50h-.91796v-3.10547q0-.37598-.0439-.70312-.0439-.33203-.16113-.51758-.12207-.20508-.35157-.30274-.22949-.10254-.5957-.10254-.37597 0-.78613.18555-.41016.18555-.78613.47363V50h-.91797v-7.59766h.91797v2.74903q.42968-.35645.88867-.55664.45898-.2002.94238-.2002.88379 0 1.34766.53223.46386.53222.46386 1.5332zm4.59961-.04883q-.25879.06836-.5664.1123-.30274.04395-.54199.04395-.83497 0-1.26954-.44921-.43457-.44922-.43457-1.44043v-2.9004h-.62011v-.77148h.62011v-1.56738h.91797v1.56738h1.89453v.77149h-1.89453v2.48535q0 .42969.0195.67383.0195.23925.13672.44921.10742.19532.29297.28809.19043.08789.57617.08789.22461 0 .46875-.06348.24414-.06836.35157-.1123h.0488zm5.00489-1.52344q0 .74707-.62012 1.22559-.61524.47851-1.68457.47851-.60547 0-1.11328-.1416-.50293-.14648-.84473-.31738v-1.03027h.0488q.43457.32714.9668.52246.53222.19043 1.0205.19043.60547 0 .94727-.19532.3418-.1953.3418-.61523 0-.32227-.18555-.48828-.18555-.16602-.71289-.2832-.19531-.04396-.5127-.10254-.3125-.0586-.57129-.12696-.71777-.19043-1.0205-.55664-.29785-.3711-.29785-.9082 0-.33692.13671-.63477.14161-.29785.42481-.53222.27344-.2295.69336-.36133.4248-.13672.94726-.13672.48828 0 .98633.12207.50293.11719.83496.28809v.98144h-.0488q-.35156-.25879-.85449-.43457-.50293-.18066-.98633-.18066-.50293 0-.84961.19531-.34667.19043-.34667.57129 0 .33691.20996.50781.20507.1709.66406.27832.2539.0586.5664.11719.31739.05859.52735.10742.63965.14649.98633.50293.34668.36133.34668.95703zm9.6582-3.50097q0 .4834-.1709.89843-.16601.41016-.46875.7129-.37598.37597-.88867.5664-.5127.18555-1.29395.18555h-.96679V50h-.9668v-7.2705h1.97266q.65429 0 1.10839.1123.45411.10742.80567.3418.41504.27831.63965.69335.22949.41504.22949 1.0498zm-1.00586.0244q0-.37597-.13184-.6543-.13183-.27831-.40039-.4541-.23437-.15136-.53711-.21484-.29785-.06836-.75683-.06836h-.95703v2.90528h.81543q.58593 0 .95215-.10254.36621-.10742.5957-.33691.22949-.23438.32226-.49317.0977-.25879.0977-.58105zM192.1395 50h-.91797v-7.59766h.91797zm6.05468 0h-.91308v-.58105q-.12207.083-.33203.23437-.20508.14649-.40039.23438-.2295.1123-.52735.18554-.29785.07813-.69824.07813-.73731 0-1.25-.48828-.5127-.48828-.5127-1.24512 0-.62011.26368-1.00097.26855-.38574.76171-.60547.49805-.21973 1.19629-.29785.69825-.07813 1.49903-.1172v-.1416q0-.3125-.11231-.51757-.10742-.20508-.3125-.32227-.19531-.1123-.46875-.15136-.27343-.03906-.57129-.03906-.36132 0-.80566.09766-.44434.09277-.91797.27343h-.0488v-.93261q.26856-.07324.77637-.16114.50781-.08789 1.00098-.08789.57617 0 1.00097.09766.42969.09277.74219.32227.30762.2246.46875.58105.16113.35645.16113.8838zm-.91308-1.34277v-1.51856q-.41992.02441-.99121.07324-.56641.04883-.89844.1416-.39551.1123-.63965.35157-.24414.23437-.24414.64941 0 .46875.2832.708.28321.23438.86426.23438.4834 0 .88379-.18554.40039-.19043.74219-.4541zm5.51269 1.29394q-.25879.06836-.5664.1123-.30274.04396-.542.04396-.83496 0-1.26953-.44922t-.43457-1.44043v-2.9004h-.62011v-.77148h.62011v-1.56738h.91797v1.56738h1.89453v.77149h-1.89453v2.48535q0 .42969.0195.67383.0195.23926.13672.44922.10742.1953.29297.28808.19043.0879.57617.0879.22461 0 .46875-.06349.24414-.06836.35156-.1123h.0488zm4.04297-6.66015h-.0488q-.15136-.04395-.3955-.0879-.24415-.04882-.42969-.04882-.59082 0-.85938.26367-.26367.25879-.26367.94238v.18555h1.65527v.77148h-1.62597V50h-.91797v-4.68262h-.62012v-.77148h.62012v-.18067q0-.97167.4834-1.48925.4834-.52246 1.39648-.52246.30762 0 .55176.0293.24902.0293.4541.06836zm5.22949 3.98437q0 1.333-.68359 2.1045-.68359.77148-1.83105.77148-1.15723 0-1.84083-.77149-.67871-.77148-.67871-2.10449 0-1.333.67871-2.1045.6836-.77636 1.84083-.77636 1.14746 0 1.83105.77637.68359.77148.68359 2.1045zm-.94726 0q0-1.05957-.41504-1.57227-.41504-.51757-1.15234-.51757-.74708 0-1.16211.51758-.41016.51269-.41016 1.57226 0 1.0254.41504 1.55762.41504.52734 1.15723.52734.73242 0 1.14746-.52246.41992-.52734.41992-1.5625zm5.77148-1.72852h-.0488q-.20507-.04882-.40039-.06835-.19043-.02442-.4541-.02442-.4248 0-.82031.19043-.39551.18555-.76172.4834V50h-.91797v-5.4541h.91797v.80566q.54688-.43945.96191-.62011.41993-.18555.8545-.18555.23925 0 .34668.01465.10742.0098.32226.04395zM225.71371 50h-.91796v-3.10547q0-.35156-.0342-.67871-.0293-.32715-.13184-.52246-.1123-.20996-.32227-.31738-.20996-.10742-.60546-.10742-.38575 0-.77149.1953-.38574.19044-.77148.48829.0146.1123.0244.26367.01.14649.01.29297V50h-.91797v-3.10547q0-.36133-.0342-.6836-.0293-.32714-.13184-.52245-.1123-.20996-.32226-.3125-.20996-.10742-.60547-.10742-.37598 0-.75684.18554-.37597.18555-.75195.47363V50h-.91797v-5.4541h.91797v.60547q.42969-.35645.85449-.55664.42969-.2002.91309-.2002.55664 0 .94238.23438.39062.23437.58105.64941.55665-.46875 1.01563-.67383.45898-.20996.98144-.20996.89844 0 1.32325.54688.42968.54199.42968 1.51855z" text-anchor="middle"/></svg>