<svg xmlns="http://www.w3.org/2000/svg" role="img" xmlns:xlink="http://www.w3.org/1999/xlink" viewBox="-9.54 -9.29 249.08 59.33"><title>MAT Detect logo</title><path d="M232.506 4.298c-1.06 0-1.93-.86-1.93-1.92s.87-1.93 1.93-1.93 1.93.87 1.93 1.93-.87 1.92-1.93 1.92m0-4.32c-1.32 0-2.4 1.08-2.4 2.4 0 1.32 1.08 2.4 2.4 2.4 1.32 0 2.4-1.08 2.4-2.4 0-1.32-1.08-2.4-2.4-2.4"/><path d="M232.666 2.278l-.51.01-.01-.62h.51c.19-.01.34.11.34.3.01.19-.14.31-.33.31m.83-.32c-.01-.42-.3-.72-.77-.72l-1.07.02.03 2.26h.49l-.01-.81h.35l.46.8.55-.01-.52-.86c.24-.06.49-.28.49-.68M47.0201 18.3885h-5.999V4.5545h5.835c1.574 0 2.557 1.016 2.557 2.393 0 1.377-.983 2.36-2.557 2.36H40.186v4h6.8341c1.836 0 2.819 1.18 2.819 2.556 0 1.574-1.049 2.525-2.819 2.525m3.376-7.245c2.066-.426 3.771-2.262 3.771-5.015 0-2.918-2.131-5.573-6.295-5.573h-11.506v21.865h11.867c4.163 0 6.359-2.623 6.359-5.901 0-2.754-1.868-5.015-4.196-5.376m17.8225-.5902H63.186v4.098h3.5576l4.294 7.769h5.343l-4.917-8.327c2.361-.557 4.786-2.622 4.786-6.49m0 0c0-4.065-2.786-7.048-7.343-7.048h-10.228v21.865h4.655V4.6533h4.885c1.869 0 3.278 1.114 3.278 2.95s-1.409 2.95-3.278 2.95m43.4206 4.0652l3.409-9.408 3.41 9.408zm.492-14.063l-8.458 21.865h5.31l1.377-3.704h9.376l1.344 3.704h5.311l-8.425-21.865zm26.9039 17.7671h-3.967v-13.67h3.967c4.491 0 6.851 2.983 6.851 6.852 0 3.704-2.524 6.818-6.851 6.818m0-17.767h-8.622v21.865h8.622c6.851 0 11.604-4.327 11.604-10.916s-4.753-10.949-11.604-10.949M221.162.5511l-5.734 9.27-5.734-9.27h-5.146v21.869h4.656V8.1271l5.012 7.622c.574.871 1.851.871 2.424 0l5.013-7.622v14.293h4.656V.5511z"/><path id="a" d="M91.0113 18.5521c-3.871 0-7.008-3.138-7.008-7.008 0-3.871 3.137-7.009 7.008-7.009 3.87 0 7.008 3.138 7.008 7.009 0 3.87-3.138 7.008-7.008 7.008m0-18.536c-6.367 0-11.528 5.161-11.528 11.528 0 6.366 5.161 11.527 11.528 11.527 6.366 0 11.528-5.161 11.528-11.527 0-6.367-5.162-11.528-11.528-11.528"/><path d="M171.5895 14.9349c-1.195 2.156-3.492 3.617-6.132 3.617-3.87 0-7.008-3.138-7.008-7.008 0-3.871 3.138-7.008 7.008-7.008 2.618 0 4.897 1.438 6.1 3.565l3.27-3.269c-2.092-2.915-5.508-4.816-9.37-4.816-6.367 0-11.527 5.161-11.527 11.528 0 6.366 5.16 11.528 11.527 11.528 3.883 0 7.316-1.922 9.404-4.865z"/><use transform="translate(98.718)" xlink:href="#a"/><ellipse cx="11.706" cy="11.705" fill="#cc092f" rx="16.236" ry="16.235"/><path fill="#fff" d="M26.0113 16.0912c-1.857-.74-3.557-.492-5.261.541 0 0-.621.379-.807.496-.794.498-1.543.97-2.263.97-.687 0-1.363-.184-1.649-1.513-.446-2.073-1.534-7.167-2.009-9.69-.279-1.483-.432-2.282-.591-2.825-.28-.954-.792-1.473-1.519-1.556 0 0-.114-.016-.207-.016-.092 0-.218.018-.218.018-.72.086-1.229.605-1.507 1.554-.159.543-.312 1.342-.591 2.825-.475 2.523-1.563 7.617-2.009 9.69-.286 1.329-.962 1.513-1.649 1.513-.72 0-1.469-.472-2.263-.97-.186-.117-.808-.496-.808-.496-1.703-1.033-3.404-1.281-5.26-.541-.401.16-.79596.33918-1.17196.52018.257.806.57693 1.59925.94993 2.34425.411-.202.84203-.40243 1.28203-.53243.634-.187 1.284-.197 1.914.014.612.205 1.157.568 1.7.909 1.023.643 2.182 1.372 3.657 1.372 2.186 0 3.72-1.305 4.21-3.581.38-1.764 1.222-5.702 1.763-8.418 0 0 1.386 6.654 1.765 8.418.49 2.276 2.025 3.581 4.211 3.581 1.475 0 2.634-.729 3.657-1.372.543-.341 1.088-.704 1.7-.909.629-.211 1.28-.201 1.914-.014.44.13.87039.33065 1.28139.53265.374-.745.69309-1.53862.95009-2.34462-.376-.181-.77048-.36003-1.17148-.52003"/><path d="M98.51446 45.208h-.9668v-6.26465l-2.02148 4.2627H94.95l-2.00684-4.2627V45.208h-.90332v-7.2705h1.31836l1.93847 4.04784 1.875-4.04785h1.34278zm7.68554 0h-1.03027l-.71289-2.02637h-3.14453l-.71289 2.02637h-.98145l2.64649-7.2705h1.28906zm-2.04101-2.85644l-1.27442-3.56934-1.27929 3.56933zm7.74414-3.5547h-2.59766V45.208h-.96679v-6.41113h-2.59766v-.85938h6.16211zm10.63477 2.78321q0 .99121-.43458 1.79688-.42968.80566-1.14746 1.25-.49804.30761-1.11328.44433-.61035.13672-1.61133.13672h-1.83593v-7.2705h1.8164q1.06446 0 1.68946.15624.62988.15137 1.06445.41992.74219.46387 1.15723 1.23536.41504.77148.41504 1.83105zm-1.01075-.01465q0-.8545-.29785-1.44043-.29785-.58594-.88867-.92285-.42969-.24414-.91309-.33692-.48339-.09766-1.15722-.09766h-.90821v5.61036h.90821q.69824 0 1.21582-.10254.52246-.10254.95703-.38086.54199-.34668.81055-.91309.27343-.5664.27343-1.41601zm7.06543 1.01074h-4.01855q0 .50293.15137.8789.15136.3711.41503.61036.25391.23437.60059.35156.35156.11719.77148.11719.55665 0 1.11817-.21973.5664-.2246.80566-.43945h.0488v1.00098q-.46387.1953-.94726.32714-.4834.13184-1.01563.13184-1.35742 0-2.11914-.73242-.76172-.7373-.76172-2.08984 0-1.3379.72754-2.12403.73242-.78613 1.92383-.78613 1.10351 0 1.69922.64453.60058.64453.60058 1.83105zm-.89355-.70312q-.005-.72266-.36621-1.11817-.35645-.3955-1.08887-.3955-.7373 0-1.17676.43457-.43457.43457-.49316 1.0791zm5.11719 3.28613q-.25879.06836-.56641.1123-.30274.04395-.54199.04395-.83496 0-1.26953-.44921-.43457-.44922-.43457-1.44043v-2.9004h-.62012v-.77148h.62012v-1.56738h.91796v1.56738h1.89454v.77149h-1.89454v2.48535q0 .42968.0195.67383.0195.23925.13671.44921.10743.19532.29297.28809.19043.08789.57617.08789.22461 0 .46875-.06348.24415-.06836.35157-.1123h.0488zm5.67382-2.583h-4.01855q0 .50292.15137.8789.15136.3711.41504.61035.2539.23437.60058.35156.35156.11719.77149.11719.55664 0 1.11816-.21973.56641-.2246.80566-.43945h.0488v1.00098q-.46387.1953-.94726.32714-.4834.13184-1.01563.13184-1.35742 0-2.11914-.73242-.76172-.7373-.76172-2.08984 0-1.3379.72754-2.12403.73242-.78613 1.92383-.78613 1.10351 0 1.69922.64453.60058.64453.60058 1.83105zm-.89355-.70313q-.005-.72266-.36621-1.11817-.35645-.3955-1.08887-.3955-.7373 0-1.17676.43457-.43457.43457-.49316 1.0791zm6.31836 2.99316q-.45899.21973-.87403.3418-.41015.12207-.87402.12207-.59082 0-1.08398-.1709-.49317-.17578-.84473-.52734-.35644-.35157-.55176-.88868-.19531-.5371-.19531-1.25488 0-1.33789.73242-2.0996.73731-.76173 1.94336-.76173.46875 0 .91797.13184.4541.13183.83008.32226v1.02051h-.0488q-.41992-.32715-.86914-.50293-.44434-.17578-.86914-.17578-.78125 0-1.23535.52735-.44922.52246-.44922 1.53808 0 .98633.43945 1.51856.44434.52734 1.24512.52734.27832 0 .56641-.07324.28808-.07324.51757-.19043.2002-.10254.37598-.21484.17578-.1172.27832-.2002h.0488zm4.00879.29297q-.25879.06836-.56641.1123-.30273.04395-.54199.04395-.83496 0-1.26953-.44921-.43457-.44922-.43457-1.44043v-2.9004h-.62012v-.77148h.62012v-1.56738h.91797v1.56738h1.89453v.77149h-1.89453v2.48535q0 .42968.0195.67383.0195.23925.13672.44921.10742.19532.29296.28809.19043.08789.57618.08789.22461 0 .46875-.06348.24414-.06836.35156-.1123h.0488z" text-anchor="middle"/></svg>