<svg xmlns="http://www.w3.org/2000/svg" role="img" xmlns:xlink="http://www.w3.org/1999/xlink" viewBox="-4.53 -4.53 248.82 59.32"><title>MAT REST API logo</title><path d="M237.32 9.09c-1.06 0-1.93-.86-1.93-1.92s.87-1.93 1.93-1.93 1.93.87 1.93 1.93-.87 1.92-1.93 1.92m0-4.32c-1.32 0-2.4 1.08-2.4 2.4 0 1.32 1.08 2.4 2.4 2.4 1.32 0 2.4-1.08 2.4-2.4 0-1.32-1.08-2.4-2.4-2.4"/><path d="M237.48 7.07l-.51.01-.01-.62h.51c.19-.01.34.11.34.3.01.19-.14.31-.33.31m.83-.32c-.01-.42-.3-.72-.77-.72l-1.07.02.03 2.26h.49l-.01-.81h.35l.46.8.55-.01-.52-.86c.24-.06.49-.28.49-.68M51.8341 23.1805h-5.999V9.3465h5.835c1.574 0 2.557 1.016 2.557 2.393 0 1.377-.983 2.36-2.557 2.36H45v4h6.8341c1.836 0 2.819 1.18 2.819 2.556 0 1.574-1.049 2.525-2.819 2.525m3.376-7.245c2.066-.426 3.771-2.262 3.771-5.015 0-2.918-2.131-5.573-6.295-5.573h-11.506v21.865h11.867c4.163 0 6.359-2.623 6.359-5.901 0-2.754-1.868-5.015-4.196-5.376m17.8225-.5902H68v4.098h3.5576l4.294 7.769h5.343l-4.917-8.327c2.361-.557 4.786-2.622 4.786-6.49m0 0c0-4.065-2.786-7.048-7.343-7.048h-10.228v21.865h4.655V9.4453h4.885c1.869 0 3.278 1.114 3.278 2.95s-1.409 2.95-3.278 2.95m43.4206 4.0652l3.409-9.408 3.41 9.408zm.492-14.063l-8.458 21.865h5.31l1.377-3.704h9.376l1.344 3.704h5.311l-8.425-21.865zm26.9039 17.7671h-3.967v-13.67h3.967c4.491 0 6.851 2.983 6.851 6.852 0 3.704-2.524 6.818-6.851 6.818m0-17.767h-8.622v21.865h8.622c6.851 0 11.604-4.327 11.604-10.916s-4.753-10.949-11.604-10.949m82.1269-.0045l-5.734 9.27-5.734-9.27h-5.146v21.869h4.656v-14.293l5.012 7.622c.574.871 1.851.871 2.424 0l5.013-7.622v14.293h4.656V5.3431z"/><path id="a" d="M95.8253 23.3441c-3.871 0-7.008-3.138-7.008-7.008 0-3.871 3.137-7.009 7.008-7.009 3.87 0 7.008 3.138 7.008 7.009 0 3.87-3.138 7.008-7.008 7.008m0-18.536c-6.367 0-11.528 5.161-11.528 11.528 0 6.366 5.161 11.527 11.528 11.527 6.366 0 11.528-5.161 11.528-11.527 0-6.367-5.162-11.528-11.528-11.528"/><path d="M176.4035 19.7269c-1.195 2.156-3.492 3.617-6.132 3.617-3.87 0-7.008-3.138-7.008-7.008 0-3.871 3.138-7.008 7.008-7.008 2.618 0 4.897 1.438 6.1 3.565l3.27-3.269c-2.092-2.915-5.508-4.816-9.37-4.816-6.367 0-11.527 5.161-11.527 11.528 0 6.366 5.16 11.528 11.527 11.528 3.883 0 7.316-1.922 9.404-4.865z"/><use transform="translate(98.718)" xlink:href="#a"/><ellipse cx="16.52" cy="16.497" fill="#cc092f" rx="16.236" ry="16.235"/><path fill="#fff" d="M30.8253 20.8832c-1.857-.74-3.557-.492-5.261.541 0 0-.621.379-.807.496-.794.498-1.543.97-2.263.97-.687 0-1.363-.184-1.649-1.513-.446-2.073-1.534-7.167-2.009-9.69-.279-1.483-.432-2.282-.591-2.825-.28-.954-.792-1.473-1.519-1.556 0 0-.114-.016-.207-.016-.092 0-.218.018-.218.018-.72.086-1.229.605-1.507 1.554-.159.543-.312 1.342-.591 2.825-.475 2.523-1.563 7.617-2.009 9.69-.286 1.329-.962 1.513-1.649 1.513-.72 0-1.469-.472-2.263-.97-.186-.117-.808-.496-.808-.496-1.703-1.033-3.404-1.281-5.26-.541-.401.16-.79596.33918-1.17196.52018.257.806.57693 1.59925.94993 2.34425.411-.202.84203-.40243 1.28203-.53243.634-.187 1.284-.197 1.914.014.612.205 1.157.568 1.7.909 1.023.643 2.182 1.372 3.657 1.372 2.186 0 3.72-1.305 4.21-3.581.38-1.764 1.222-5.702 1.763-8.418 0 0 1.386 6.654 1.765 8.418.49 2.276 2.025 3.581 4.211 3.581 1.475 0 2.634-.729 3.657-1.372.543-.341 1.088-.704 1.7-.909.629-.211 1.28-.201 1.914-.014.44.13.87039.33065 1.28139.53265.374-.745.69309-1.53862.95009-2.34462-.376-.181-.77048-.36003-1.17148-.52003"/><path d="M96.25082 50h-.9668v-6.26465l-2.02148 4.2627h-.57617l-2.00683-4.2627V50h-.90333v-7.2705h1.31836l1.93848 4.04784 1.875-4.04785h1.34277zm7.68555 0h-1.03027l-.71289-2.02637h-3.14453L98.33578 50h-.98144l2.64648-7.2705h1.28907zm-2.04101-2.85644l-1.27442-3.56934-1.2793 3.56934zm7.74414-3.5547h-2.59766V50h-.9668v-6.41113h-2.59765v-.85938h6.16211zM120.14731 50h-1.25488l-2.43165-2.89063h-1.3623V50h-.9668v-7.2705h2.03614q.65918 0 1.09863.08788.43945.08301.79101.30274.39551.24902.61524.62988.22461.37598.22461.95703 0 .78613-.39551 1.31836-.39551.52734-1.08887.7959zm-2.26074-5.2246q0-.3125-.11231-.55177-.10742-.24414-.36133-.41015-.20996-.1416-.49804-.19532-.28809-.05859-.67871-.05859h-1.1377v2.74414h.97656q.45899 0 .80078-.07813.3418-.083.58106-.30273.21973-.20508.32226-.46875.10743-.26855.10743-.67871zM125.87485 50h-4.79004v-7.2705h4.79004v.85937h-3.82324v1.99219h3.82324v.85937h-3.82324v2.7002h3.82324zm6.8164-2.0752q0 .4248-.20019.83985-.19531.41504-.55176.70312-.39062.3125-.91309.48828-.51757.17579-1.25.17579-.78613 0-1.41601-.14649-.625-.14648-1.27442-.43457v-1.21094h.0684q.55176.45899 1.27442.70801.72265.24903 1.35742.24903.89844 0 1.39648-.33692.50293-.33691.50293-.89844 0-.4834-.23925-.71289-.23438-.22949-.71778-.35644-.36621-.09766-.7959-.16113-.4248-.06349-.90332-.16114-.96679-.20508-1.43554-.69824-.46387-.49805-.46387-1.29395 0-.91308.77148-1.49414.77149-.58593 1.95801-.58593.7666 0 1.40625.14648t1.13281.36133v1.14258h-.0684q-.41504-.35157-1.09375-.58106-.67383-.23437-1.38184-.23437-.77637 0-1.25.32226-.46875.32227-.46875.83008 0 .4541.23437.7129.23438.25878.8252.3955.3125.06836.88867.16602.57617.09765.97656.20019.81055.21484 1.22071.64941.41015.43458.41015 1.21583zm6.73828-4.33593h-2.59765V50h-.9668v-6.41113h-2.59765v-.85938h6.1621zM149.65414 50h-1.03027l-.71289-2.02637h-3.14453L144.05356 50h-.98145l2.64649-7.2705h1.28906zm-2.04101-2.85644l-1.27442-3.56934-1.27929 3.56934zm7.90039-2.2168q0 .4834-.1709.89843-.16601.41016-.46875.7129-.37598.37597-.88867.5664-.5127.18555-1.29395.18555h-.96679V50h-.9668v-7.2705h1.97266q.65429 0 1.10839.1123.45411.10742.80567.3418.41504.27831.63965.69335.22949.41504.22949 1.0498zm-1.00586.0244q0-.37597-.13184-.65429-.13183-.27832-.40039-.4541-.23437-.15137-.53711-.21484-.29785-.06836-.75683-.06836h-.95703v2.90527h.81543q.58593 0 .95214-.10254.36622-.10742.59571-.33691.22949-.23438.32226-.49317.0977-.25879.0977-.58105zM159.35141 50h-2.87109v-.74219h.95214v-5.78613h-.95214v-.74219h2.87109v.74219h-.95215v5.78613h.95215z" text-anchor="middle"/></svg>