<svg xmlns="http://www.w3.org/2000/svg" role="img" viewBox="3.60 3.60 332.80 213.05"><title>OpenSUSE logo</title><g fill="#73ba25"><path fill-rule="evenodd" d="M290.85 35.7c-3.311-.12-6.45 1.05-8.85 3.3-2.4 2.251-3.815 5.3-3.915 8.6-.23 6.82 5.111 12.559 11.916 12.81 3.31.1 6.465-1.07 8.878-3.32a12.252 12.252 0 0 0 3.901-8.6c.23-6.818-5.109-12.548-11.93-12.79zm2.02 13.512c-3.03 0-5.479-1.64-5.479-3.65 0-2.029 2.449-3.66 5.48-3.66 3.03 0 5.486 1.631 5.486 3.66 0 2.01-2.458 3.65-5.486 3.65zm28.799 14.729c.088-.07.295-.251.268-.42-.685-4.278-7.06-25.028-11.884-30.018-1.33-1.36-2.394-2.7-4.55-3.96-17.454-10.171-58.863-16.31-60.803-16.59 0 0-.194-.041-.33.09-.104.103-.124.3-.124.3s-.16 8.58-.184 9.54c-4.229-1.42-34.972-11.351-63.791-12.351-24.44-.86-60.033-4.02-107.2 24.98l-1.394.868c-22.19 13.841-37.51 30.91-45.518 50.74-2.512 6.24-5.89 20.32-2.542 33.568 1.442 5.791 4.13 11.611 7.756 16.82 8.194 11.77 21.944 19.58 36.749 20.898 20.904 1.87 36.733-7.519 42.363-25.099 3.87-12.13 0-29.928-14.84-39.008-12.07-7.39-25.048-5.71-32.577-.73-6.531 4.33-10.23 11.06-10.165 18.451.15 13.11 11.444 20.078 19.564 20.1 2.359 0 4.728-.41 7.4-1.28.95-.29 1.844-.65 2.83-1.26l.309-.18.194-.13-.065.038c1.85-1.261 2.964-3.311 2.964-5.51 0-.6-.084-1.209-.256-1.821-.959-3.32-4.239-5.328-7.638-4.71l-.46.11-.62.189-.902.31c-1.87.46-3.269.5-3.569.51-.95-.06-5.624-1.46-5.624-6.58v-.07c0-1.88.754-3.199 1.17-3.92 1.453-2.28 5.435-4.518 10.813-4.05 7.06.61 12.15 4.23 15.52 11.06 3.13 6.35 2.31 14.16-2.11 19.88-4.39 5.669-12.204 8.079-22.597 6.96-10.481-1.16-19.34-7.191-24.303-16.58-4.857-9.177-5.122-20.058-.686-28.417 10.609-20.03 30.649-19.82 41.637-17.921 16.26 2.82 34.758 17.819 41.319 35.139 1.06 2.76 1.6 4.95 2.071 6.95l.709 2.99 18.37 8.97c.394.192.528.258.685.14.19-.14.081-.53.081-.53-.114-.41-.38-.789-.805-5.93-.349-4.561-1.059-17.05 5.229-23.24 2.441-2.418 6.16-4.577 9.099-5.268 12.04-2.941 26.159-.912 39.507 14.54 6.91 7.98 10.279 11.618 11.97 13.248 0 0 .385.364.589.532.223.183.369.337.694.519.558.31 22.954 10.62 22.954 10.62s.266.132.462-.11c.193-.24.01-.479.01-.479-.15-.17-14.2-18.328-11.698-33.279 1.97-11.909 11.447-10.83 24.558-9.35 4.279.5 9.151 1.06 14.196 1.172 14.084.09 29.254-2.511 38.604-6.601 6.049-2.63 9.909-4.38 12.328-6.579.87-.72 1.32-1.89 1.79-3.15l.33-.831c.391-1.021.966-3.171 1.219-4.35.102-.519.22-1.027-.209-1.36-.392-.302-1.294.241-1.294.241-4.106 2.471-14.37 7.15-23.965 7.35-11.914.24-36.054-12.06-38.555-13.36-1.674-3.985-3.346-7.972-5.044-11.947 17.27 11.379 31.594 17.668 42.56 18.638 12.206 1.087 21.722-5.573 25.852-8.344.54-.36 1.08-.762 1.576-1.148zm-48.992-16.369c.175-4.73 2.155-9.12 5.614-12.34 3.46-3.23 7.974-4.9 12.708-4.75 9.76.35 17.43 8.59 17.095 18.339-.184 4.73-2.165 9.12-5.614 12.33-3.46 3.25-7.965 4.92-12.72 4.76-9.75-.36-17.41-8.58-17.083-18.338z" clip-rule="evenodd"/><path d="M143.98 150.01c-7.784 0-12.065 6.58-12.065 11.13v5.84c0 6.7 5.474 10.851 10.55 10.851h17.819c2.245 0 2.715 1.47 2.715 2.71v3.769c0 .4-.081 4.02-2.715 4.02h-24.303c-2.415 0-4.16 1.68-4.16 3.98v1.041c0 2.29 1.745 3.96 4.16 3.96h25.624c6.698 0 11.02-4.66 11.02-11.879v-6.301c0-6.779-4.87-9.81-9.706-9.81h-17.533c-2.64 0-3.835-1.98-3.835-3.38v-3.479c0-2.19 1.464-3.46 4.025-3.46h19.408c2.38 0 4.17-1.71 4.17-3.971v-1.04c0-2.27-1.82-3.981-4.25-3.981H143.98zm72.86 0a4.16 4.16 0 0 0-4.155 4.17v29.839c0 2.39-1.95 4.31-4.31 4.31h-13.546a4.31 4.31 0 0 1-4.309-4.31V154.18a4.174 4.174 0 0 0-4.169-4.171h-1.31a4.135 4.135 0 0 0-4.17 4.17v30.969c0 7.21 5.673 12.44 13.488 12.44h14.485c7.805 0 13.475-5.229 13.475-12.44V154.18c0-2.33-1.829-4.171-4.16-4.171h-1.319zm25.93 0c-7.78 0-12.074 6.58-12.074 11.13v5.84c0 6.7 5.484 10.851 10.564 10.851h17.814c2.248 0 2.72 1.47 2.72 2.71v3.769c0 .4-.08 4.02-2.72 4.02H234.76c-2.405 0-4.16 1.68-4.16 3.98v1.041c0 2.29 1.755 3.96 4.16 3.96h25.633c6.7 0 11.041-4.66 11.041-11.879v-6.301c0-6.779-4.885-9.81-9.72-9.81h-17.533c-2.647 0-3.84-1.98-3.84-3.38v-3.479c0-2.19 1.465-3.46 4.026-3.46h19.419c2.375 0 4.158-1.71 4.158-3.971v-1.04c0-2.27-1.818-3.981-4.26-3.981h-20.913zm40.97 0c-2.31 0-4.055 1.712-4.055 3.981v39.358c0 2.26 1.705 3.96 3.964 3.96h31.364c2.415 0 4.16-1.67 4.16-3.96v-1.041c0-2.3-1.745-3.98-4.16-3.98h-25.687v-10.02h18.822c2.41 0 4.16-1.69 4.16-3.981v-1.04c0-2.301-1.75-3.971-4.16-3.971h-18.822v-10.32h24.382c2.406 0 4.16-1.66 4.16-3.97v-1.04c0-2.302-1.754-3.982-4.16-3.982H283.74z"/><path d="M17.143 168.745c-3.93 0-7.13 3.058-7.13 6.83v14.839c0 3.83 3.096 6.95 6.892 6.95h9.599c3.795 0 6.891-3.12 6.891-6.95v-14.84c0-3.769-3.2-6.83-7.13-6.83h-9.122zm-2.076 21.08v-13.551a2.903 2.903 0 0 1 2.9-2.889h7.48c1.56 0 2.89 1.33 2.89 2.889v13.55c0 1.6-1.295 2.9-2.89 2.9h-7.535c-1.6 0-2.845-1.272-2.845-2.9zm40.066-21.255c-2.768 0-4.855.988-6.53 1.799-1.02.489-1.905.912-2.59.912-.31 0-.576-.14-.716-.37l-.638-1.221c-.16-.321-.8-.949-1.591-.949h-.95c-.911 0-1.64.82-1.64 1.819v37.64c0 1.18.93 2.11 2.11 2.11h.82c1.17 0 2.12-.94 2.12-2.11v-12.49c0-.37.24-.77.485-.77.685 0 1.57.402 2.59.87 1.675.77 3.762 1.72 6.53 1.72h.886c4.9 0 7.948-2.801 7.948-7.3v-14.368c0-4.43-3.113-7.291-7.948-7.291h-.886zm-9.603 20.962V176.57c0-1.79 1.4-3.188 3.189-3.188h7.01c1.79 0 3.189 1.4 3.189 3.188v12.962a3.194 3.194 0 0 1-3.189 3.188h-7.01a3.193 3.193 0 0 1-3.189-3.188zm32.632-20.787c-3.93 0-7.121 3.058-7.121 6.83v14.728c0 3.82 3.1 7.06 6.76 7.06h9.904c1.224 0 2.11-.849 2.11-2.001v-.65c0-1.159-.886-1.99-2.11-1.99h-8.137c-2.28 0-3.483-1.12-3.483-3.252v-4.309h14.678c2.361 0 3.757-1.44 3.757-3.88v-5.71c0-3.77-3.195-6.83-7.11-6.83h-9.248zm-2.075 7.48c0-1.59 1.25-2.84 2.843-2.84h7.71c1.589 0 2.829 1.25 2.829 2.84v4.599H76.085c.002-.6.002-4.6.002-4.6zm38.836-7.655c-2.759 0-4.84.988-6.52 1.79-1.046.491-1.939.92-2.668.92-.321 0-.451-.04-.7-.471l-.58-1.06c-.334-.67-.9-1.008-1.665-1.008h-.816c-.985 0-1.705.768-1.705 1.819v24.69c0 1.17.925 2.11 2.116 2.11h.815c1.17 0 2.124-.951 2.124-2.11v-18.68c0-1.75 1.43-3.188 3.18-3.188h7.014a3.196 3.196 0 0 1 3.185 3.188v18.68c0 1.17.93 2.11 2.11 2.11h.824a2.12 2.12 0 0 0 2.12-2.11v-19.39c0-4.43-3.114-7.29-7.953-7.29h-.88z"/><path d="M326.198 187.792c2.136 0 3.838 1.736 3.838 3.91 0 2.204-1.703 3.923-3.855 3.923-2.137 0-3.873-1.719-3.873-3.924 0-2.171 1.736-3.91 3.873-3.91h.017zm-.017.607c-1.72 0-3.126 1.477-3.126 3.3 0 1.86 1.407 3.317 3.143 3.317 1.736.02 3.126-1.457 3.126-3.299s-1.39-3.318-3.126-3.318h-.017zm-.73 5.575h-.695v-4.358c.365-.053.712-.105 1.233-.105.662 0 1.095.138 1.354.33.262.189.402.484.402.903 0 .571-.382.919-.85 1.06v.036c.382.068.641.416.729 1.06.105.678.207.938.277 1.076h-.73c-.105-.138-.208-.538-.294-1.112-.105-.554-.382-.765-.938-.765h-.486v1.875zm0-2.415h.503c.574 0 1.06-.207 1.06-.747 0-.382-.277-.765-1.06-.765-.226 0-.382.018-.503.037v1.475z"/></g></svg>