<svg xmlns="http://www.w3.org/2000/svg" role="img" viewBox="-13.49 -11.99 649.48 194.48"><title>OpenJDK logo</title><path fill="#e76f00" d="M43.94225.64275C12.50097.28561-.714 31.27667-.714 69.049s13.21497 68.375 44.65625 68.375c31.44129 0 44.625-30.60267 44.625-68.375S75.38354.9999 43.94225.64275zm0 12.15625c17.88508 0 27.84375 18.75541 27.84375 56.25s-10.31582 56.25-27.84375 56.25c-17.52793 0-27.875-18.04113-27.875-56.25 0-38.20887 9.98992-56.25 27.875-56.25zM146.4735 35.9865c-5.14716.14807-10.24532 2.38782-14.6875 5-2.99461 1.76095-7.59375 7.15625-7.59375 7.15625V37.2365h-14.5625v132.34375h14.5625v-32.5s13.93983.67385 20.4375-1.4375c6.40871-2.08245 12.58763-5.76538 17.15625-10.71875 5.08999-5.51864 8.25696-12.78829 10.34375-20 2.32481-8.03429 2.34895-16.63833 2.15625-25-.18814-8.16367-.23844-16.67871-3.21875-24.28125-2.182-5.5661-5.61511-10.99804-10.34375-14.65625-3.72496-2.88173-8.51091-4.87362-13.21875-5-.34343-.0092-.68811-.0099-1.03125 0zm-3.71875 12.46875c.27471.002.53597.005.8125.0312 3.19083.3059 5.94868 2.73688 8.21875 5 3.06539 3.05601 5.48888 6.9627 6.78125 11.09375 1.88688 6.03136 1.0732 12.58664 1.0625 18.90625-.0101 5.96308.16933 12.04054-1.0625 17.875-1.1283 5.34413-2.52663 10.91169-5.71875 15.34375-2.7708 3.84708-6.59182 7.35942-11.0625 8.9375-3.36778 1.18878-7.20149.61965-10.71875 0-2.40149-.42308-6.875-2.5-6.875-2.5V58.48645s4.33774-3.92854 6.875-5.34375c3.63919-2.02983 7.56687-4.71027 11.6875-4.6875zm80.34375-12.8125c-5.8813.18433-11.86192 2.35073-16.65625 5.71875-4.79308 3.36714-8.30447 8.6006-10.71875 13.9375-2.80027 6.19014-3.24175 13.24165-3.9375 20-.76895 7.46946-.79893 15.01116-.25 22.5.48297 6.58886.68763 13.44095 3.09375 19.59375 1.7196 4.39728 4.46951 8.51081 7.875 11.78125 3.31872 3.1871 7.35135 5.94347 11.78125 7.1875 6.533 1.83463 13.64967 1.11139 20.34375 0 5.08802-.84474 10.03134-2.71708 14.65625-5 1.92447-.94995 5.34375-3.5625 5.34375-3.5625l-3.90625-8.21875s-8.07694 4.24141-12.5 5c-5.75417.98689-12.09314 1.4836-17.5-.71875-4.44988-1.81254-8.08611-5.63681-10.71875-9.65625-2.47521-3.77908-3.55762-8.38454-4.28125-12.84375-.70557-4.34789 0-13.21875 0-13.21875h48.5625s.64526-19.58597-1.78125-28.9375c-1.5246-5.87568-3.35594-12.35332-7.875-16.40625-5.35362-4.80141-13.15314-7.05646-20.34375-7.15625-.39057-.0054-.79541-.01229-1.1875 0zm1.25 10.3125c1.893-.0501 3.84431.42641 5.5 1.3125 2.41411 1.29199 4.27745 3.54518 5.8125 5.8125 2.15649 3.1852 3.61914 6.86467 4.5625 10.59375 1.14015 4.50698 1.25 13.875 1.25 13.875h-36.375s.31992-7.44325 1.03125-11.09375c.55517-2.84908 1.1821-5.75752 2.5-8.34375 1.58233-3.10515 3.57862-6.15111 6.3125-8.3125 2.45398-1.9401 5.48408-3.47204 8.59375-3.8125.26668-.0292.54207-.0241.8125-.0312zm53.49089-9.0513v97.73226h14.2684v-75.5089s4.80101-4.26318 7.44988-6.06092c2.71289-1.84118 5.40096-4.0215 8.5863-4.79822 2.61834-.63846 5.57736-.74446 8.08122.25254 1.88348.74998 3.21704 2.50938 4.54568 4.04061 1.21065 1.39525 2.35367 2.91321 3.0611 4.61965 1.27342 3.07165 2.21173 7.33775 1.98967 9.77502v67.68022h14.64721V62.66284c.11323-1.66812-1.48385-7.92585-3.03046-11.61675-1.27272-3.03728-2.89671-6.00404-5.06608-8.4817-1.55327-1.774-3.46713-3.2749-5.54052-4.39774-2.34078-1.26765-4.93343-2.2056-7.57614-2.52539-3.10223-.3754-6.32232-.03904-9.34392.75762-2.5128.6625-4.84093 1.94896-7.07106 3.283-2.16723 1.2964-4.04169 3.02902-6.06092 4.54568-1.58793 1.1927-4.76125 3.58149-4.76125 3.58149l.0893-10.9051z"/><path fill="#5382a1" d="M363.21457 2.0719h26.42857v128.57142c.10539 2.68918-1.1884 9.72523-2.85714 14.28572-1.35493 3.70287-3.43449 7.14006-5.71428 10.35714-1.9378 2.73448-4.33338 5.12335-6.69643 7.5-2.62976 2.64489-8.30358 7.5-8.30358 7.5L351.786 158.50047s4.09521-4.80618 5.71429-7.5c1.90713-3.17307 3.69953-6.50939 4.64285-10.08929.72299-2.74373.71429-8.48214.71429-8.48214zm93.57143-.7104l-39.65625.34375v133.9375h41.8125s11.55317-1.24062 16.78125-3.5625c6.31136-2.80298 12.08128-7.09658 16.78125-12.15625 5.71133-6.14842 10.36298-13.54656 13.21875-21.4375 3.72406-10.29017 4.35116-21.56011 4.625-32.5.22735-9.08307-.0765-18.36825-2.5-27.125-1.83208-6.6199-4.69749-13.13424-8.90625-18.5625-3.62385-4.67387-8.40474-8.59999-13.59375-11.4375-6.34319-3.46865-13.66058-4.87231-20.71875-6.4375-2.5806-.57226-7.84375-1.0625-7.84375-1.0625zm.71875 22.125s7.20373 2.54572 10.34375 4.65625c3.00498 2.01977 5.79468 4.53661 7.875 7.5 2.54188 3.62089 4.24283 7.8714 5.34375 12.15625 1.69511 6.59748 1.70995 13.53235 1.78125 20.34375.0749 7.15832.29184 14.4831-1.40625 21.4375-.98634 4.03948-2.7279 7.92375-5 11.40625-2.20978 3.38699-4.85362 6.69455-8.21875 8.9375-3.4784 2.31845-11.78125 4.28125-11.78125 4.28125H442.8485V23.8615l14.65625-.375zm73.20982-21.95032H556.786v57.32143l34.64286-57.32143H621.786l-43.57143 61.25 45.71429 72.85715h-32.85714L556.786 76.00047v59.64286h-26.07143z"/></svg>