<svg xmlns="http://www.w3.org/2000/svg" role="img" viewBox="3.60 3.60 332.80 213.05"><title>OpenSUSE logo</title><g fill="#73ba25" transform="translate(-232.86 -406.35)"><path fill-rule="evenodd" d="M523.71 442.05c-3.3113-.11926-6.4507 1.0506-8.8499 3.3008-2.3993 2.2502-3.8147 5.2984-3.9147 8.5992-.2297 6.8208 5.1108 12.559 11.916 12.81 3.3095.1 6.4647-1.0698 8.878-3.32 2.4098-2.2607 3.7953-5.3107 3.9006-8.5992.2297-6.819-5.109-12.549-11.93-12.791zm2.0205 13.512c-3.0307 0-5.4791-1.6398-5.4791-3.6498 0-2.0292 2.4484-3.6603 5.4791-3.6603 3.0306 0 5.486 1.6311 5.486 3.6603 0 2.0099-2.4571 3.6498-5.486 3.6498zm28.798 14.729c.0887-.0692.29521-.25105.2683-.41918-.68471-4.2787-7.0592-25.029-11.884-30.019-1.3294-1.3592-2.394-2.6992-4.5495-3.9602-17.454-10.171-58.863-16.309-60.803-16.59 0 0-.19473-.0406-.3297.0912-.1048.10237-.1246.29991-.1246.29991s-.1596 8.5799-.1841 9.5392c-4.2286-1.4206-34.972-11.351-63.791-12.351-24.44-.85939-60.033-4.0198-107.2 24.98l-1.3943.86815c-22.19 13.841-37.51 30.91-45.518 50.739-2.5116 6.2402-5.8895 20.32-2.5414 33.569 1.4417 5.7912 4.1304 11.611 7.7556 16.819 8.194 11.77 21.944 19.58 36.749 20.899 20.904 1.8696 36.733-7.5188 42.363-25.099 3.8708-12.13 0-29.928-14.839-39.008-12.07-7.3908-25.049-5.7106-32.578-.7296-6.5313 4.3303-10.23 11.06-10.165 18.451.1508 13.11 11.444 20.078 19.564 20.099 2.3589 0 4.7284-.41041 7.3995-1.2803.9506-.28939 1.845-.64893 2.8307-1.2593l.3087-.18065.1947-.12978-.065.0386c1.8503-1.261 2.964-3.3113 2.964-5.5106 0-.59981-.084-1.2084-.2561-1.8205-.9593-3.32-4.239-5.3282-7.638-4.7091l-.4595.10874-.6209.18942-.9015.31043c-1.8696.45951-3.2692.49985-3.5691.51038-.9506-.0614-5.6246-1.461-5.6246-6.5805v-.0702c0-1.8801.7542-3.199 1.1698-3.9199 1.454-2.28 5.4352-4.5179 10.814-4.0497 7.0593.61034 12.149 4.2303 15.52 11.06 3.1289 6.349 2.3098 14.159-2.1099 19.88-4.3899 5.6685-12.205 8.0783-22.598 6.9593-10.481-1.1593-19.34-7.1908-24.303-16.579-4.8565-9.1779-5.1213-20.059-.6858-28.418 10.609-20.029 30.649-19.82 41.637-17.921 16.26 2.8202 34.758 17.819 41.319 35.139 1.0593 2.7606 1.5995 4.9494 2.0713 6.9505l.7085 2.9903 18.37 8.9692c.39458.19266.52796.25778.6858.14034.18941-.14093.081-.52966.081-.52966-.114-.4104-.3806-.78924-.805-5.9298-.3491-4.5618-1.0594-17.051 5.2282-23.24 2.4414-2.4186 6.1613-4.5776 9.099-5.2686 12.04-2.9412 26.159-.912 39.507 14.539 6.9102 7.98 10.279 11.619 11.97 13.249 0 0 .38494.36349.5893.53142.22331.1835.36878.33789.6945.51914.55786.31042 22.954 10.621 22.954 10.621s.26534.13182.4612-.11049c.19362-.23953.01-.4788.01-.4788-.1491-.17013-14.199-18.328-11.698-33.279 1.9696-11.909 11.447-10.83 24.558-9.3498 4.2794.49984 9.1516 1.0593 14.196 1.1716 14.084.0895 29.254-2.5115 38.604-6.6015 6.049-2.629 9.9093-4.3794 12.328-6.5787.8699-.72084 1.3207-1.8907 1.7907-3.1499l.3297-.83133c.3911-1.0207.9664-3.171 1.219-4.3496.1017-.51914.2208-1.0274-.2087-1.3592-.39265-.30337-1.2944.24027-1.2944.24027-4.1058 2.4712-14.369 7.1505-23.965 7.3504-11.914.24028-36.054-12.061-38.555-13.36-1.6739-3.9857-3.3458-7.9724-5.0438-11.948 17.27 11.379 31.594 17.668 42.559 18.638 12.207 1.0874 21.723-5.5724 25.853-8.3433.54064-.35944 1.0799-.76184 1.5756-1.1486zm-48.992-16.369c.1753-4.7302 2.1554-9.1201 5.6141-12.34 3.4603-3.2306 7.9747-4.9003 12.708-4.7494 9.7602.34902 17.43 8.5886 17.095 18.338-.1841 4.7302-2.1642 9.1201-5.6141 12.33-3.4603 3.2499-7.9642 4.9196-12.719 4.76-9.7497-.35954-17.411-8.5799-17.084-18.338z" clip-rule="evenodd"/><path d="M376.84 556.36c-7.7836 0-12.065 6.5805-12.065 11.13v5.8403c0 6.6997 5.4738 10.851 10.55 10.851h17.819c2.2449 0 2.7149 1.4697 2.7149 2.7097v3.769c0 .39988-.081 4.0198-2.7149 4.0198h-24.303c-2.4151 0-4.1602 1.6802-4.1602 3.9795v1.0418c0 2.2905 1.7451 3.9602 4.1602 3.9602h25.624c6.698 0 11.02-4.66 11.02-11.879v-6.3016c0-6.7786-4.8705-9.8093-9.7058-9.8093h-17.533c-2.6395 0-3.8356-1.9801-3.8356-3.3797v-3.4796c0-2.1906 1.4644-3.4604 4.0251-3.4604h19.408c2.38 0 4.1707-1.71 4.1707-3.9707v-1.04c0-2.2695-1.8205-3.9813-4.2513-3.9813h-20.922zm72.86 0c-2.301 0-4.1548 1.8696-4.1548 4.1707v29.838c0 2.3905-1.9503 4.311-4.311 4.311h-13.545c-2.3694 0-4.3092-1.9205-4.3092-4.311v-29.838c0-2.3011-1.8696-4.1707-4.1689-4.1707h-1.3101c-2.3344 0-4.1707 1.8416-4.1707 4.1707v30.968c0 7.2101 5.6737 12.44 13.489 12.44h14.485c7.8047 0 13.475-5.2282 13.475-12.44v-30.968c0-2.3291-1.8293-4.1707-4.1602-4.1707h-1.3189zm25.93 0c-7.7801 0-12.074 6.5805-12.074 11.13v5.8403c0 6.6997 5.4843 10.851 10.564 10.851h17.814c2.2485 0 2.7203 1.4697 2.7203 2.7097v3.769c0 .39988-.081 4.0198-2.7203 4.0198H467.62c-2.4045 0-4.1601 1.6802-4.1601 3.9795v1.0418c0 2.2905 1.7556 3.9602 4.1601 3.9602h25.633c6.6998 0 11.041-4.66 11.041-11.879v-6.3016c0-6.7786-4.8845-9.8093-9.7199-9.8093h-17.533c-2.6466 0-3.8392-1.9801-3.8392-3.3797v-3.4796c0-2.1906 1.4645-3.4604 4.0251-3.4604h19.419c2.3747 0 4.1584-1.71 4.1584-3.9707v-1.04c0-2.2695-1.8188-3.9813-4.2601-3.9813h-20.913zm40.97 0c-2.3098 0-4.0549 1.7118-4.0549 3.9813v39.358c0 2.259 1.7047 3.9602 3.9637 3.9602h31.364c2.4151 0 4.1602-1.6697 4.1602-3.9602v-1.0418c0-2.2993-1.7451-3.9795-4.1602-3.9795h-25.687v-10.02h18.822c2.4098 0 4.1602-1.6907 4.1602-3.9813v-1.04c0-2.3011-1.7504-3.9707-4.1602-3.9707h-18.822v-10.32h24.382c2.4063 0 4.1601-1.6591 4.1601-3.9707v-1.04c0-2.3011-1.7538-3.9813-4.1601-3.9813h-29.968z"/><path d="M250.00338 575.09454c-3.9305 0-7.1296 3.0588-7.1296 6.82969v14.83975c0 3.83052 3.09562 6.9507 6.89106 6.9507h9.5991c3.79544 0 6.89107-3.12018 6.89107-6.9507v-14.83975c0-3.76913-3.20087-6.82969-7.1296-6.82969h-9.12203zm-2.07662 21.08013v-13.55063c0-1.58904 1.3049-2.88868 2.90095-2.88868h7.47863c1.56097 0 2.89042 1.32946 2.89042 2.88868v13.55063c0 1.59955-1.29437 2.8992-2.89042 2.8992h-7.53476c-1.59955 0-2.84482-1.27158-2.84482-2.8992zm40.06609-21.25552c-2.76766 0-4.8548.9892-6.52977 1.7995-1.02077.48934-1.90474.91203-2.59051.91203-.31044 0-.57528-.14031-.7156-.37007l-.63841-1.22071c-.1596-.32097-.79978-.94886-1.59079-.94886h-.94886c-.91203 0-1.64165.81907-1.64165 1.81879v37.64045c0 1.18037.93132 2.10994 2.10994 2.10994h.82083c1.16985 0 2.12046-.9401 2.12046-2.10994v-12.48952c0-.37008.24029-.76997.48408-.76997.68577 0 1.56974.40165 2.5905.86994 1.67498.76996 3.76212 1.71882 6.52978 1.71882h.88572c4.9004 0 7.94867-2.80098 7.94867-7.29973v-14.36795c0-4.43035-3.11317-7.29096-7.94867-7.29096h-.88572zm-9.6026 20.96262v-12.96133c0-1.79073 1.3996-3.18859 3.18859-3.18859h7.01033c1.79074 0 3.1886 1.39962 3.1886 3.1886v12.96132c0 1.75916-1.4347 3.18859-3.1886 3.18859h-7.01033c-1.75566 0-3.1886-1.42943-3.1886-3.1886zm32.6313-20.78723c-3.93048 0-7.12083 3.0588-7.12083 6.82969v14.72925c0 3.82 3.1009 7.05945 6.75953 7.05945h9.90428c1.22422 0 2.10994-.84889 2.10994-2.0012v-.64894c0-1.15933-.88572-1.99068-2.10994-1.99068h-8.13635c-2.28007 0-3.48324-1.12074-3.48324-3.25173v-4.30933h14.67839c2.36075 0 3.75685-1.43995 3.75685-3.87963v-5.7107c0-3.76913-3.1956-6.82968-7.1103-6.82968h-9.24832zm-2.07486 7.48039c0-1.5908 1.25053-2.83957 2.84307-2.83957h7.71015c1.58903 0 2.82904 1.24878 2.82904 2.83957v4.59872h-13.38401c.00175-.59983.00175-4.59872.00175-4.59872zm38.83661-7.65578c-2.75888 0-4.84076.9892-6.521 1.79073-1.04532.4911-1.93806.9208-2.66768.9208-.32097 0-.45075-.04034-.6998-.4718l-.58055-1.05935c-.33324-.67-.89975-1.0085-1.66445-1.0085h-.81556c-.9857 0-1.7048.76821-1.7048 1.8188v24.68965c0 1.16985.92431 2.10994 2.1152 2.10994h.81557c1.16985 0 2.12398-.95061 2.12398-2.10994v-18.67904c0-1.75039 1.42942-3.18859 3.17982-3.18859h7.01384c1.75566 0 3.18508 1.4382 3.18508 3.1886v18.67903c0 1.16985.92957 2.10994 2.10995 2.10994h.82433c1.16985 0 2.12046-.95061 2.12046-2.10994v-19.38936c0-4.43036-3.11492-7.29097-7.95393-7.29097h-.88046z"/><path d="M559.0581 594.1419c2.13624 0 3.83753 1.73636 3.83753 3.90944 0 2.20465-1.70304 3.92347-3.85507 3.92347-2.13626 0-3.87262-1.71882-3.87262-3.92347 0-2.17133 1.73636-3.90944 3.87262-3.90944h.01753zm-.01754.60685c-1.71883 0-3.12545 1.47678-3.12545 3.30084 0 1.85913 1.40662 3.31662 3.14298 3.31662 1.73637.0193 3.12545-1.45749 3.12545-3.29908s-1.38908-3.31838-3.12545-3.31838h-.01753zm-.72963 5.57564h-.69454v-4.35844c.3648-.05261.71208-.10523 1.23299-.10523.66122 0 1.09443.13856 1.35401.32973.26133.18942.40164.48408.40164.90326 0 .57177-.38235.91904-.85064 1.05936v.03683c.38235.0684.64193.41567.72962 1.05935.10524.67876.20696.93834.27712 1.0769h-.72962c-.10524-.13856-.20872-.53845-.29466-1.11197-.10523-.55424-.38235-.7647-.93833-.7647h-.48583v1.87491zm0-2.41512h.50337c.57353 0 1.05936-.20696 1.05936-.74716 0-.38235-.27712-.7647-1.05936-.7647-.22625 0-.38235.01754-.50337.03683v1.47503z"/></g></svg>