<svg xmlns="http://www.w3.org/2000/svg" role="img" xmlns:xlink="http://www.w3.org/1999/xlink" viewBox="128.80 -1766.20 6042.40 2827.40"><title>OpenBLAS logo</title><defs><path id="a" d="M247-949v2399h269v-62H309V-887h207v-62H247z"/><path id="b" d="M740 435q0-115-64-222T511 42 304-22q-97 0-166 57T51 201q-1 8-1 43 0 102 48 194t129 163q124 103 249 103 38 0 48-1 97-14 156-86t60-182zm-103 41q0 89-46 139t-115 50q-80 0-154-60-80-63-122-177t-43-212q0-90 43-143t114-54q90 0 171 79t123 215q29 95 29 163z"/><path id="c" d="M23 287q1 3 2 8t5 22 10 31 15 33 20 30 26 22 33 9q75 0 96-64l10 9q62 55 118 55 65 0 102-47t37-114q0-108-76-199T249-10q-22 0-39 6-11 5-23 15t-19 17l-7 8q-1-1-22-87t-21-87q0-6 8-7t37-3h25q6-7 6-9t-3-18q-3-12-6-15t-13-4h-11q-9 0-34 1t-62 1q-70 0-89-2h-8q-7 7-7 11 2 27 13 35h20q34 1 39 12 3 6 61 239t61 247q1 5 1 14 0 41-25 41-22 0-37-28t-23-61-12-36q-2-2-16-2H29q-6 6-6 9zm155-185q22-76 74-76 30 0 58 23t46 58q18 34 36 108t19 110v6q0 74-61 74-11 0-22-3t-22-9-20-13-17-15-15-15-11-14-8-10l-3-4q0-1-3-14t-11-44-14-52q-26-106-26-110z"/><path id="d" d="M231 637q-27 0-32 1t-5 11q0 27 11 33 1 1 130 1 259 0 273-2 63-10 105-45t43-92q0-64-58-115t-133-69l-10-3q64-9 105-46t42-92q0-73-72-141T453 1q-7-1-211-1Q42 0 39 2q-4 3-4 8 0 7 2 14 5 19 10 21 4 1 15 1h6q27 0 60 3 14 3 19 12 3 4 72 278t69 289q0 7-57 9zm418-93q0 30-15 56t-49 34q-7 2-92 3h-42q-22 0-35-1h-13q-15-1-19-10-2-4-32-120 0-3-1-6l-31-126h81q81 0 93 2 60 10 107 58t48 110zm-54-315q0 44-23 73t-60 34q-6 1-83 1-118 0-119-1 0-2-17-73t-35-141l-18-70q0-4 12-4t81-2q89 0 96 1 62 7 114 58t52 124z"/><path id="e" d="M228 637q-34 0-36 4-1 2-1 8 0 24 11 33 2 1 15 1 54-3 127-3 141 0 162 3h12q6-6 6-9t-2-18q-5-15-9-19h-38q-69-1-81-9-7-4-14-28t-67-264q-16-65-34-138T252 88l-9-36q0-4 9-4t59-2h17q32 0 51 1t49 7 50 18 44 34 42 55q16 30 30 67t17 42q5 3 17 3h13q6-9 6-11t-20-59-44-120-26-74q-2-5-4-6t-16-3-43-1h-76q-65 0-124 1H116Q32 0 32 10q0 7 2 14 5 19 10 21 4 1 15 1h6q27 0 60 3 14 3 19 12 3 4 72 278t69 289q0 7-57 9z"/><path id="f" d="M11 1388v62h269V-949H11v62h207v2275H11z"/><path id="g" d="M55 642v6l4 11 7 7 5 2h637q15-8 15-20t-15-20H409V15q-7-13-18-15-4 0-7 1t-5 2-4 3-2 3-2 4-2 3v612H71q-1 0-4 2t-8 7z"/><path id="h" d="M630 29q0-20-21-20-5 0-22 16t-94 93L389 222 284 117Q178 13 175 11q-4-2-7-2-8 0-14 6t-7 14q0 7 14 22t94 95l104 104-104 104q-81 81-94 95t-14 22q0 9 6 14t15 5q5 0 7-1 3-2 109-106l105-105 104 104q77 77 94 93t22 16q21 0 21-20 0-7-10-18t-98-98L418 250l104-105q84-84 96-97t12-19z"/><path id="i" d="M39 168q0 57 19 104t49 78 67 52 70 31 63 9h3q45 0 78-22t33-65q0-90-111-118-49-13-134-14-37 0-38-2 0-2-6-35t-7-58q0-47 21-74t63-28 93 19 92 66q9 10 12 10 4 0 13-9t10-14-9-16-30-27-46-31-63-25-76-10q-79 0-122 53T39 168zm334 185q-6 52-68 52-33 0-61-14t-45-34-29-41-16-36-5-19q0-1 20-1 113 0 158 24t46 69z"/><path id="j" d="M21 287q1 6 3 16t12 38 20 47 33 37 46 17q36 0 60-18t30-34 6-21q0-2 1-2l11 11q61 64 139 64 54 0 87-27t34-79-38-157-38-127q0-26 17-26 6 0 9 1 29 5 52 38t35 80q2 8 20 8 20 0 20-8 0-1-4-15-8-29-22-57t-46-56-69-27q-47 0-68 27t-21 56q0 19 36 120t37 152q0 59-44 59h-5q-86 0-145-101l-7-12-33-134Q156 26 151 16q-13-27-43-27-13 0-21 6T76 7t-2 10q0 13 38 163t40 163q1 5 1 23 0 39-24 39-38 0-63-100-6-20-6-21-2-6-19-6H27q-6 6-6 9z"/><path id="k" d="M208 74q0-24 46-28 18 0 18-11 0-1-2-13-3-14-6-18t-13-4h-12q-10 0-34 1t-64 1Q70 2 50 0h-8q-7 7-7 11 2 27 13 35h14q70 3 102 50 6 6 181 305t178 303q7 12 24 12h25q6-9 6-10l28-323q28-323 30-326 5-11 65-11 25 0 25-10 0-2-3-14-3-15-5-18t-14-4h-14q-11 0-39 1t-73 1q-94 0-123-2h-12q-6 6-6 9t2 18q4 13 6 16l4 3h20q54 3 64 17l-12 150H283l-34-58q-41-69-41-81zm308 186q0 11-12 156t-14 146l-27-43q-16-27-63-107l-90-152 103-1q103 0 103 1z"/><path id="l" d="M308 24q59 0 108 52t50 121q0 63-52 87-106 27-136 37t-42 20q-60 42-60 121 0 61 32 111t65 75q29 25 70 40t64 16h18q96 0 139-64 1 0 13 13t26 29 20 22h4q3 0 5 1 13 0 13-7t-28-121-32-118-16-3q-20 0-20 9 0 6 1 10 0 3 1 19t2 26q0 34-9 59t-18 37-25 25q-36 21-82 21-57 0-106-46t-50-106q0-30 15-52t41-31q4-2 70-19t67-18q34-11 66-48t32-100q0-26-8-56-5-22-18-49t-36-59-66-60-94-38q-12-2-34-2-99 0-154 55l-10 11-28-31Q83-14 78-18t-13-4q-13 0-13 8 0 3 58 235 2 6 20 6h13q6-6 6-11 0-2-1-9t-4-21-2-33q2-39 18-66t43-40 52-18 53-5z"/></defs><g data-mml-node="math" fill="currentColor" stroke="currentColor" stroke-width="0"><g data-mml-node="msup"><g data-mml-node="TeXAtom"><g data-mml-node="mstyle"><g data-mml-node="mrow" fill="#02a0c6" stroke="#02a0c6"><use xlink:href="#a" data-mml-node="mo" transform="scale(1 -1)"/><g data-mml-node="mtable"><g data-mml-node="mtr"><g data-mml-node="mtd"><g fill="#44a8fc" stroke="#44a8fc" data-mml-node="mstyle"><use xlink:href="#b" data-mml-node="mi" transform="matrix(1 0 0 -1 615 -682.3)"/><use xlink:href="#c" data-mml-node="mi" transform="matrix(1 0 0 -1 1378 -682.3)"/></g></g></g><g data-mml-node="mtr"><g data-mml-node="mtd"><g fill="violet" stroke="violet" data-mml-node="mstyle"><use xlink:href="#d" data-mml-node="mi" transform="matrix(1 0 0 -1 528 682.3)"/><use xlink:href="#e" data-mml-node="mi" transform="matrix(1 0 0 -1 1287 682.3)"/></g></g></g><path stroke="none" d="M528-250h1440" class="mjx-solid" data-line="h"/></g><use xlink:href="#f" data-mml-node="mo" transform="matrix(1 0 0 -1 1968 0)"/></g></g></g><g data-mml-node="TeXAtom"><g data-mml-node="mstyle"><use xlink:href="#g" data-mml-node="mi" transform="matrix(.707 0 0 -.707 2496 -1176.6)" fill="#02a0c6" stroke="#02a0c6"/></g></g></g><g fill="#02a0c6" stroke="#02a0c6" data-mml-node="mstyle"><use xlink:href="#h" data-mml-node="mo" transform="matrix(1 0 0 -1 2887.4 0)"/><g data-mml-node="TeXAtom"><g data-mml-node="mrow"><use xlink:href="#a" data-mml-node="mo" transform="matrix(1 0 0 -1 3887.6 0)"/><g data-mml-node="mtable"><g data-mml-node="mtr"><g data-mml-node="mtd"><g fill="#44a8fc" stroke="#44a8fc" data-mml-node="mstyle"><use xlink:href="#i" data-mml-node="mi" transform="matrix(1 0 0 -1 4564.1 -682.3)"/><use xlink:href="#j" data-mml-node="mi" transform="matrix(1 0 0 -1 5030.1 -682.3)"/></g></g></g><g data-mml-node="mtr"><g data-mml-node="mtd"><g fill="violet" stroke="violet" data-mml-node="mstyle"><use xlink:href="#k" data-mml-node="mi" transform="matrix(1 0 0 -1 4415.6 682.3)"/><use xlink:href="#l" data-mml-node="mi" transform="matrix(1 0 0 -1 5165.6 682.3)"/></g></g></g><path stroke="none" d="M4415.6-250h1363" class="mjx-solid" data-line="h"/></g><use xlink:href="#f" data-mml-node="mo" transform="matrix(1 0 0 -1 5778.6 0)"/></g></g></g></g></svg>