<svg xmlns="http://www.w3.org/2000/svg" role="img" xmlns:xlink="http://www.w3.org/1999/xlink" viewBox="-12.00 -4.99 272.74 62.24"><title>OPS/REXX Language Support Extension for VS Code logo</title><path d="M237.32 9.09c-1.06 0-1.93-.86-1.93-1.92s.87-1.93 1.93-1.93 1.93.87 1.93 1.93-.87 1.92-1.93 1.92m0-4.32c-1.32 0-2.4 1.08-2.4 2.4 0 1.32 1.08 2.4 2.4 2.4 1.32 0 2.4-1.08 2.4-2.4 0-1.32-1.08-2.4-2.4-2.4"/><path d="M237.48 7.07l-.51.01-.01-.62h.51c.19-.01.34.11.34.3.01.19-.14.31-.33.31m.83-.32c-.01-.42-.3-.72-.77-.72l-1.07.02.03 2.26h.49l-.01-.81h.35l.46.8.55-.01-.52-.86c.24-.06.49-.28.49-.68M51.8341 23.1805h-5.999V9.3465h5.835c1.574 0 2.557 1.016 2.557 2.393 0 1.377-.983 2.36-2.557 2.36H45v4h6.8341c1.836 0 2.819 1.18 2.819 2.556 0 1.574-1.049 2.525-2.819 2.525m3.376-7.245c2.066-.426 3.771-2.262 3.771-5.015 0-2.918-2.131-5.573-6.295-5.573h-11.506v21.865h11.867c4.163 0 6.359-2.623 6.359-5.901 0-2.754-1.868-5.015-4.196-5.376m17.8225-.5902H68v4.098h3.5576l4.294 7.769h5.343l-4.917-8.327c2.361-.557 4.786-2.622 4.786-6.49m0 0c0-4.065-2.786-7.048-7.343-7.048h-10.228v21.865h4.655V9.4453h4.885c1.869 0 3.278 1.114 3.278 2.95s-1.409 2.95-3.278 2.95m43.4206 4.0652l3.409-9.408 3.41 9.408zm.492-14.063l-8.458 21.865h5.31l1.377-3.704h9.376l1.344 3.704h5.311l-8.425-21.865zm26.9039 17.7671h-3.967v-13.67h3.967c4.491 0 6.851 2.983 6.851 6.852 0 3.704-2.524 6.818-6.851 6.818m0-17.767h-8.622v21.865h8.622c6.851 0 11.604-4.327 11.604-10.916s-4.753-10.949-11.604-10.949m82.1269-.0045l-5.734 9.27-5.734-9.27h-5.146v21.869h4.656v-14.293l5.012 7.622c.574.871 1.851.871 2.424 0l5.013-7.622v14.293h4.656V5.3431z"/><path id="a" d="M95.8253 23.3441c-3.871 0-7.008-3.138-7.008-7.008 0-3.871 3.137-7.009 7.008-7.009 3.87 0 7.008 3.138 7.008 7.009 0 3.87-3.138 7.008-7.008 7.008m0-18.536c-6.367 0-11.528 5.161-11.528 11.528 0 6.366 5.161 11.527 11.528 11.527 6.366 0 11.528-5.161 11.528-11.527 0-6.367-5.162-11.528-11.528-11.528"/><path d="M176.4035 19.7269c-1.195 2.156-3.492 3.617-6.132 3.617-3.87 0-7.008-3.138-7.008-7.008 0-3.871 3.138-7.008 7.008-7.008 2.618 0 4.897 1.438 6.1 3.565l3.27-3.269c-2.092-2.915-5.508-4.816-9.37-4.816-6.367 0-11.527 5.161-11.527 11.528 0 6.366 5.16 11.528 11.527 11.528 3.883 0 7.316-1.922 9.404-4.865z"/><use transform="translate(98.718)" xlink:href="#a"/><ellipse cx="16.52" cy="16.497" fill="#cc092f" rx="16.236" ry="16.235"/><path fill="#fff" d="M30.8253 20.8832c-1.857-.74-3.557-.492-5.261.541 0 0-.621.379-.807.496-.794.498-1.543.97-2.263.97-.687 0-1.363-.184-1.649-1.513-.446-2.073-1.534-7.167-2.009-9.69-.279-1.483-.432-2.282-.591-2.825-.28-.954-.792-1.473-1.519-1.556 0 0-.114-.016-.207-.016-.092 0-.218.018-.218.018-.72.086-1.229.605-1.507 1.554-.159.543-.312 1.342-.591 2.825-.475 2.523-1.563 7.617-2.009 9.69-.286 1.329-.962 1.513-1.649 1.513-.72 0-1.469-.472-2.263-.97-.186-.117-.808-.496-.808-.496-1.703-1.033-3.404-1.281-5.26-.541-.401.16-.79596.33918-1.17196.52018.257.806.57693 1.59925.94993 2.34425.411-.202.84203-.40243 1.28203-.53243.634-.187 1.284-.197 1.914.014.612.205 1.157.568 1.7.909 1.023.643 2.182 1.372 3.657 1.372 2.186 0 3.72-1.305 4.21-3.581.38-1.764 1.222-5.702 1.763-8.418 0 0 1.386 6.654 1.765 8.418.49 2.276 2.025 3.581 4.211 3.581 1.475 0 2.634-.729 3.657-1.372.543-.341 1.088-.704 1.7-.909.629-.211 1.28-.201 1.914-.014.44.13.87039.33065 1.28139.53265.374-.745.69309-1.53862.95009-2.34462-.376-.181-.77048-.36003-1.17148-.52003"/><path d="M-.93668 43.56445q.44434.48828.67871 1.1963.23926.708.23926 1.60644 0 .89844-.24414 1.61133-.23926.708-.67383 1.18164-.44921.49316-1.06445.74218-.61035.24903-1.39648.24903-.7666 0-1.39649-.2539-.625-.25391-1.06445-.73731-.43945-.4834-.67871-1.18653-.23438-.70312-.23438-1.60644 0-.88867.23438-1.5918.23437-.708.6836-1.21094.42968-.47851 1.06444-.73242.63965-.2539 1.3916-.2539.78126 0 1.40137.25878.625.25391 1.05957.72754zm-.08789 2.80274q0-1.41602-.63476-2.18262-.63477-.77148-1.7334-.77148-1.1084 0-1.74316.77148-.62989.7666-.62989 2.18262 0 1.43066.64453 2.19238.64453.75684 1.72852.75684 1.08398 0 1.72363-.75684.64453-.76172.64453-2.19238zm7.29493-1.44043q0 .4834-.1709.89843-.16602.41016-.46875.7129-.37598.37597-.88868.5664-.51269.18555-1.29394.18555h-.9668V50h-.9668v-7.2705h1.97266q.6543 0 1.1084.1123.4541.10742.80566.3418.41504.27831.63965.69335.2295.41504.2295 1.0498zm-1.00586.0244q0-.37597-.13184-.65429-.13184-.27831-.4004-.4541-.23437-.15136-.5371-.21484-.29785-.06836-.75684-.06836H2.4813v2.90527h.81543q.58594 0 .95215-.10254.36621-.10742.5957-.3369.2295-.23438.32227-.49317.09766-.2588.09766-.58106zm7.56347 2.97364q0 .4248-.2002.83984-.1953.41504-.55175.70313-.39063.3125-.91309.48828-.51758.17578-1.25.17578-.78613 0-1.41601-.14648-.625-.14649-1.27442-.43457v-1.21094h.06836q.55176.45898 1.27442.708.72265.24903 1.35742.24903.89844 0 1.39648-.33691.50293-.33692.50293-.89844 0-.4834-.23926-.7129-.23437-.22948-.71777-.35643-.3662-.09766-.7959-.16114-.4248-.06347-.90332-.16113-.9668-.20508-1.43554-.69824-.46387-.49805-.46387-1.29395 0-.91308.77148-1.49414.77149-.58593 1.95801-.58593.7666 0 1.40625.14648t1.13281.36133v1.14258h-.06836q-.41504-.35157-1.09375-.58106-.67382-.23437-1.38183-.23437-.77637 0-1.25.32226-.46875.32227-.46875.83008 0 .4541.23437.7129.23438.25878.8252.3955.3125.06836.88867.16602.57617.09765.97656.20019.81055.21484 1.2207.64941.41016.43458.41016 1.21583zm4.7754-5.52246l-3.50098 9.08203h-.84473l3.48633-9.08203zM24.93734 50h-1.25488l-2.43165-2.89063h-1.3623V50h-.9668v-7.2705h2.03613q.65918 0 1.09864.08788.43945.08301.79101.30274.39551.24902.61524.62988.2246.37598.2246.95703 0 .78613-.3955 1.31836-.3955.52734-1.08887.7959zm-2.26074-5.2246q0-.3125-.1123-.55177-.10743-.24414-.36134-.41015-.20996-.1416-.49804-.19532-.28809-.05859-.67872-.05859h-1.1377v2.74414h.97657q.45899 0 .80078-.07813.3418-.083.58106-.30273.21972-.20508.32226-.46875.10742-.26855.10742-.67871zM30.66488 50h-4.79004v-7.2705h4.79004v.85937h-3.82325v1.99219h3.82325v.85937h-3.82325v2.7002h3.82325zm7.08007-7.2705l-2.50976 3.59374L37.74008 50h-1.11816l-1.98242-2.99316L32.60825 50h-1.0547l2.53419-3.63281-2.47559-3.6377h1.11328l1.95801 2.9541 2.00195-2.9541zm6.8506 0l-2.50977 3.59374L44.59067 50H43.4725l-1.98242-2.99316L39.45883 50h-1.05469l2.53418-3.63281-2.47558-3.6377h1.11328l1.958 2.9541 2.00196-2.9541zM54.0145 50h-4.59961v-7.2705h.9668v6.41112h3.6328zm5.13183 0h-.91308v-.58105q-.12207.083-.33203.23437-.20508.14649-.4004.23438-.22949.1123-.52734.18554-.29785.07813-.69824.07813-.7373 0-1.25-.48828t-.5127-1.24512q0-.62011.26367-1.00097.26856-.38574.76172-.60547.49805-.21973 1.1963-.29785.69824-.07813 1.49902-.1172v-.1416q0-.3125-.1123-.51757-.10743-.20508-.3125-.32227-.19532-.1123-.46876-.15136t-.57129-.03906q-.36133 0-.80566.09766-.44434.09277-.91797.27343h-.04883v-.93261q.26855-.07324.77637-.16114.5078-.08789 1.00097-.08789.57617 0 1.00098.09766.42969.09277.74219.32227.30761.2246.46875.58105.16113.35645.16113.8838zm-.91308-1.34277v-1.51856q-.41993.02441-.99121.07324-.56641.04883-.89844.1416-.39551.1123-.63965.35157-.24414.23437-.24414.64941 0 .46875.2832.708.2832.23438.86426.23438.4834 0 .88379-.18554.40039-.19043.74219-.4541zM65.47445 50h-.91796v-3.10547q0-.37598-.04395-.70312-.04395-.33203-.16113-.51758-.12208-.20508-.35157-.30274-.22949-.10254-.5957-.10254-.37598 0-.78613.18555-.41016.18555-.78614.47363V50h-.91796v-5.4541h.91797v.60547q.42969-.35645.88867-.55664.45898-.2002.94238-.2002.8838 0 1.34766.53223.46387.53222.46387 1.5332zm6.19141-.62012q0 1.38672-.62988 2.03614-.62988.64941-1.93848.64941-.43457 0-.8496-.06348-.41016-.05859-.81055-.1709v-.9375h.04883q.2246.0879.71289.21485.48828.13183.97656.13183.46875 0 .77637-.1123.30761-.1123.47851-.3125.1709-.19043.24414-.45899.07324-.26855.07324-.60058v-.49805q-.41504.33203-.7959.49805-.37597.16113-.9619.16113-.97657 0-1.55274-.70313-.5713-.708-.5713-1.99218 0-.70313.19532-1.21094.2002-.5127.542-.88379.31738-.34668.77148-.5371.4541-.19532.90332-.19532.47363 0 .79101.09766.32227.09277.67871.28808l.0586-.23437h.85937zm-.91797-.8789v-2.97364q-.3662-.16601-.68359-.23437-.3125-.07324-.625-.07324-.75684 0-1.1914.50781-.43458.50781-.43458 1.47461 0 .91797.32227 1.3916.32227.47364 1.06934.47364.40039 0 .80078-.15137.40527-.15625.74218-.41504zM77.994 50h-.91797v-.60547q-.46387.36621-.88867.56152-.4248.19532-.9375.19532-.85938 0-1.3379-.52246-.4785-.52735-.4785-1.54297V44.5459h.91796v3.10547q0 .41504.03906.71289.03906.29297.16602.50293.13183.21484.3418.3125.20995.09766.61034.09766.35645 0 .77637-.18555.4248-.18555.79102-.47363V44.5459h.91797zm6.04492 0h-.91309v-.58105q-.12207.083-.33203.23437-.20508.14649-.40039.23438-.22949.1123-.52734.18554-.29785.07813-.69824.07813-.7373 0-1.25-.48828t-.5127-1.24512q0-.62011.26367-1.00097.26856-.38574.76172-.60547.49805-.21973 1.1963-.29785.69823-.07813 1.49901-.1172v-.1416q0-.3125-.1123-.51757-.10742-.20508-.3125-.32227-.19531-.1123-.46875-.15136t-.57129-.03906q-.36133 0-.80566.09766-.44434.09277-.91797.27343h-.04883v-.93261q.26855-.07324.77636-.16114.50782-.08789 1.00098-.08789.57617 0 1.00098.09766.42969.09277.74219.32227.30761.2246.46875.58105.16113.35645.16113.8838zm-.91309-1.34277v-1.51856q-.41992.02441-.9912.07324-.56641.04883-.89844.1416-.39551.1123-.63965.35157-.24414.23437-.24414.64941 0 .46875.2832.708.2832.23438.86426.23438.4834 0 .88379-.18554.40039-.19043.74218-.4541zm7.1045.72265q0 1.38672-.62989 2.03614-.62988.64941-1.93847.64941-.43457 0-.84961-.06348-.41016-.05859-.81055-.1709v-.9375h.04883q.22461.0879.7129.21485.48827.13183.97655.13183.46875 0 .77637-.1123t.47852-.3125q.1709-.19043.24414-.45899.07324-.26855.07324-.60058v-.49805q-.41504.33203-.7959.49805-.37598.16113-.96192.16113-.97656 0-1.55273-.70313-.57129-.708-.57129-1.99218 0-.70313.19531-1.21094.2002-.5127.542-.88379.31738-.34668.77148-.5371.4541-.19532.90332-.19532.47363 0 .79102.09766.32226.09277.6787.28808l.0586-.23437h.85937zm-.91797-.8789v-2.97364q-.36621-.16601-.6836-.23437-.3125-.07324-.625-.07324-.75683 0-1.1914.50781t-.43457 1.47461q0 .91797.32226 1.3916.32227.47364 1.06934.47364.40039 0 .80078-.15137.40527-.15625.74219-.41504zm7.29004-1.13282h-4.01856q0 .50293.15137.87891.15137.3711.41504.61035.2539.23438.60058.35156.35157.1172.77149.1172.55664 0 1.11816-.21974.5664-.2246.80567-.43945h.04883v1.00098q-.46387.19531-.94727.32715-.4834.13183-1.01563.13183-1.35742 0-2.11914-.73242-.76171-.7373-.76171-2.08984 0-1.3379.72753-2.12403.73243-.78613 1.92383-.78613 1.10352 0 1.69922.64453.60059.64453.60059 1.83106zm-.89356-.70312q-.0049-.72266-.3662-1.11816-.35645-.39551-1.08888-.39551-.7373 0-1.17675.43457-.43457.43457-.49317 1.0791zm11.15723 1.25977q0 .4248-.2002.83984-.19531.41504-.55175.70312-.39063.3125-.91309.48828-.51758.17579-1.25.17579-.78613 0-1.41602-.14649-.625-.14648-1.27441-.43457v-1.21094h.0684q.55176.45899 1.27441.70801.72266.24903 1.35742.24903.89844 0 1.39649-.33692.50293-.33691.50293-.89844 0-.4834-.23926-.71289-.23437-.22949-.71777-.35644-.36621-.09766-.7959-.16113-.42481-.06349-.90332-.16114-.9668-.20508-1.43555-.69824-.46387-.49805-.46387-1.29395 0-.91308.77149-1.49414.77148-.58593 1.95801-.58593.7666 0 1.40625.14648t1.13281.36133v1.14258h-.0684q-.41504-.35157-1.09375-.58106-.67383-.23437-1.38184-.23437-.77636 0-1.25.32226-.46875.32227-.46875.83008 0 .4541.23438.7129.23437.25878.82519.3955.3125.06836.88868.16602.57617.09765.97656.20019.81055.21484 1.2207.64941.41016.43458.41016 1.21583zM112.86703 50h-.91796v-.60547q-.46387.36621-.88868.56152-.4248.19532-.9375.19532-.85937 0-1.33789-.52246-.47851-.52735-.47851-1.54297V44.5459h.91797v3.10547q0 .41504.0391.71289.0391.29297.16601.50293.13184.21484.3418.3125.20996.09766.61035.09766.35645 0 .77637-.18555.42481-.18555.79102-.47363V44.5459h.91796zm6.60645-2.79297q0 .66406-.19043 1.21582-.19043.54688-.53711.92774-.32226.36132-.76172.56152-.43457.19531-.92285.19531-.4248 0-.77148-.09277-.3418-.09277-.69825-.28808v2.28515h-.91796V44.5459h.91796v.5713q.36622-.30763.82032-.5127.45898-.20997.97656-.20997.98633 0 1.5332.74708.55176.74218.55176 2.06542zm-.94727.02441q0-.98633-.33691-1.4746-.33691-.48829-1.03516-.48829-.3955 0-.79589.1709-.40039.1709-.76661.44922v3.09082q.39063.17578.66895.23926.2832.06348.63965.06348.7666 0 1.19629-.51758.42968-.51758.42968-1.5332zm7.17774-.0244q0 .66405-.19043 1.21581-.19043.54688-.53711.92774-.32227.36132-.76172.56152-.43457.19531-.92285.19531-.42481 0-.77148-.09277-.3418-.09277-.69825-.28808v2.28515h-.91797V44.5459h.91797v.5713q.36621-.30763.82032-.5127.45898-.20997.97656-.20997.98633 0 1.5332.74708.55176.74218.55176 2.06542zm-.94727.0244q0-.98633-.33691-1.4746-.33691-.48829-1.03516-.48829-.3955 0-.7959.1709-.40039.1709-.7666.44922v3.09082q.39063.17578.66895.23926.2832.06348.63965.06348.7666 0 1.19629-.51758.42968-.51758.42968-1.5332zm7.02637.04395q0 1.333-.68359 2.1045-.6836.77148-1.83106.77148-1.15722 0-1.84082-.77149-.67871-.77148-.67871-2.10449 0-1.333.67871-2.1045.6836-.77636 1.84082-.77636 1.14746 0 1.83106.77637.68359.77148.68359 2.1045zm-.94727 0q0-1.05957-.41503-1.57226-.41504-.51758-1.15235-.51758-.74707 0-1.16211.51758-.41015.51269-.41015 1.57226 0 1.0254.41504 1.55762.41503.52734 1.15722.52734.73242 0 1.14746-.52246.41992-.52734.41992-1.5625zm5.77149-1.72851h-.0488q-.20508-.04883-.40039-.06836-.19043-.02441-.4541-.02441-.42481 0-.82031.19042-.39551.18555-.76172.4834V50h-.91797v-5.4541h.91797v.80566q.54687-.43945.96191-.62011.41992-.18555.85449-.18555.23926 0 .34668.01465.10743.0098.32227.04395zm3.69629 4.4043q-.25879.06835-.56641.1123-.30273.04395-.54199.04395-.83496 0-1.26953-.44922t-.43457-1.44043v-2.9004h-.62012v-.77148h.62012v-1.56738h.91797v1.56738h1.89453v.77149h-1.89453v2.48535q0 .42969.0195.67383.0195.23926.13672.44922.10742.1953.29297.28808.19043.0879.57617.0879.22461 0 .46875-.06349.24414-.06836.35156-.1123h.0488zm9.4873.04882h-4.79004v-7.2705h4.79004v.85937h-3.82324v1.99219h3.82324v.85937h-3.82324v2.7002h3.82324zm6.18164 0h-1.15722l-1.54785-2.09473L151.70981 50h-1.06934l2.12891-2.71973L150.66 44.5459h1.15723l1.53809 2.06054 1.54296-2.06054h1.07422l-2.14355 2.68554zm4.02832-.04883q-.25879.06836-.5664.1123-.30274.04395-.54199.04395-.83497 0-1.26954-.44921-.43457-.44922-.43457-1.44043v-2.9004h-.62011v-.77148h.62011v-1.56738h.91797v1.56738h1.89453v.77149h-1.89453v2.48535q0 .42969.0195.67383.0195.23925.13672.44921.10742.19532.29297.28809.19043.08789.57617.08789.22461 0 .46875-.06348.24414-.06836.35157-.1123h.0488zm5.67383-2.583h-4.01855q0 .50292.15136.8789.15137.3711.41504.61035.25391.23438.60059.35156.35156.11719.77148.11719.55664 0 1.11817-.21973.5664-.2246.80566-.43945h.0488v1.00098q-.46387.1953-.94727.32715-.48339.13183-1.01562.13183-1.35742 0-2.11914-.73242-.76172-.7373-.76172-2.08985 0-1.33788.72754-2.12402.73242-.78613 1.92383-.78613 1.10351 0 1.69922.64453.60058.64453.60058 1.83106zm-.89355-.70313q-.005-.72266-.36621-1.11817-.35645-.3955-1.08887-.3955-.73731 0-1.17676.43456-.43457.43458-.49316 1.0791zM171.6268 50h-.91797v-3.10547q0-.37598-.0439-.70312-.044-.33203-.16114-.51758-.12207-.20508-.35156-.30274-.22949-.10254-.5957-.10254-.37598 0-.78613.18555-.41016.18555-.78614.47363V50h-.91797v-5.4541h.91797v.60547q.42969-.35645.88867-.55664.45899-.2002.94239-.2002.88379 0 1.34765.53223.46387.53222.46387 1.5332zm5.66406-1.57227q0 .74708-.62011 1.22559-.61524.47852-1.68457.47852-.60547 0-1.11329-.1416-.50293-.14649-.84472-.31739v-1.03027h.0488q.43457.32715.96679.52246.53223.19043 1.02051.19043.60547 0 .94727-.19531.34179-.19532.34179-.61524 0-.32226-.18554-.48828-.18555-.16602-.71289-.2832-.19532-.04395-.5127-.10254-.3125-.0586-.57129-.12696-.71777-.19042-1.02051-.55663-.29785-.3711-.29785-.9082 0-.33692.13672-.63477.1416-.29786.42481-.53223.27343-.2295.69335-.36133.42481-.13672.94727-.13672.48828 0 .98633.12207.50293.11719.83496.28809v.98144h-.0488q-.35156-.25879-.85449-.43457-.50293-.18066-.98633-.18066-.50293 0-.84961.19531-.34668.19043-.34668.5713 0 .3369.20996.5078.20508.1709.66407.27832.2539.0586.5664.1172.31738.05858.52735.10741.63964.14649.98632.50293.34668.36133.34668.95703zm2.29981-4.79492h-1.03516v-.95215h1.03516zM179.53207 50h-.91796v-5.4541h.91796zm6.46485-2.7246q0 1.333-.6836 2.10448-.68359.77149-1.83105.77149-1.15723 0-1.84082-.77149-.67871-.77148-.67871-2.10449 0-1.333.67871-2.1045.68359-.77636 1.84082-.77636 1.14746 0 1.83105.77637.6836.77148.6836 2.1045zm-.94727 0q0-1.05958-.41504-1.57227-.41504-.51758-1.15234-.51758-.74707 0-1.16211.51758-.41016.51269-.41016 1.57226 0 1.0254.41504 1.55762.41504.52734 1.15723.52734.73242 0 1.14746-.52246.41992-.52734.41992-1.5625zM191.97836 50h-.91797v-3.10547q0-.37598-.0439-.70312-.0439-.33203-.16113-.51758-.12207-.20508-.35157-.30274-.22949-.10254-.5957-.10254-.37598 0-.78613.18555-.41016.18555-.78614.47363V50h-.91796v-5.4541h.91796v.60547q.42969-.35645.88868-.55664.45898-.2002.94238-.2002.88379 0 1.34766.53223.46386.53222.46386 1.5332zm8.21778-6.70898h-.0488q-.15137-.04395-.39551-.0879-.24414-.04882-.42969-.04882-.59082 0-.85937.26367-.26367.25879-.26367.94238v.18555h1.65527v.77148h-1.62598V50h-.91797v-4.68262h-.62011v-.77148h.62011v-.18067q0-.97167.4834-1.48925.4834-.52246 1.39649-.52246.30761 0 .55175.0293.24903.0293.45411.06836zm5.22949 3.98437q0 1.333-.6836 2.1045-.68359.77148-1.83105.77148-1.15723 0-1.84082-.77149-.67871-.77148-.67871-2.10449 0-1.333.67871-2.1045.68359-.77636 1.84082-.77636 1.14746 0 1.83105.77637.6836.77148.6836 2.1045zm-.94727 0q0-1.05957-.41504-1.57227-.41504-.51757-1.15234-.51757-.74707 0-1.16211.51758-.41016.51269-.41016 1.57226 0 1.0254.41504 1.55762.41504.52734 1.15723.52734.73242 0 1.14746-.52246.41992-.52734.41992-1.5625zm5.77149-1.72852h-.0488q-.20508-.04882-.40039-.06835-.19043-.02442-.4541-.02442-.42481 0-.82032.19043-.3955.18555-.76171.4834V50h-.91797v-5.4541h.91797v.80566q.54687-.43945.96191-.62011.41992-.18555.85449-.18555.23926 0 .34668.01465.10742.0098.32227.04395zm10.18554-2.81738L217.78891 50h-1.28906l-2.64649-7.2705h1.03516l2.28027 6.39648 2.28028-6.39649zm6.38672 5.19532q0 .4248-.20019.83984-.19531.41504-.55176.70312-.39063.3125-.91309.48828-.51757.17579-1.25.17579-.78613 0-1.41601-.14649-.625-.14648-1.27442-.43457v-1.21094h.0684q.55176.45899 1.27442.70801.72265.24903 1.35742.24903.89844 0 1.39648-.33692.50293-.33691.50293-.89844 0-.4834-.23925-.71289-.23438-.22949-.71778-.35644-.36621-.09766-.7959-.16113-.4248-.06349-.90332-.16114-.96679-.20508-1.43554-.69824-.46387-.49805-.46387-1.29395 0-.91308.77148-1.49414.77149-.58593 1.95801-.58593.7666 0 1.40625.14648t1.13281.36133v1.14258h-.0684q-.41503-.35157-1.09375-.58106-.67382-.23437-1.38183-.23437-.77637 0-1.25.32226-.46875.32227-.46875.83008 0 .4541.23437.7129.23438.25878.8252.3955.3125.06836.88867.16602.57617.09765.97656.20019.81055.21484 1.22071.64941.41015.43458.41015 1.21583zm10.6836 1.54785q-.26856.11718-.48828.21972-.21485.10254-.56641.21485-.29785.09277-.64941.15625-.34668.06836-.76661.06836-.79101 0-1.44043-.21973-.64453-.2246-1.12304-.69824-.46875-.46387-.73242-1.17676-.26368-.71777-.26368-1.66504 0-.89844.25391-1.60644.25391-.70801.73242-1.1963.46387-.47363 1.11817-.72265.65918-.24902 1.45996-.24902.58593 0 1.16699.1416.58594.1416 1.29883.49805v1.14746h-.0733q-.60058-.50293-1.1914-.73243-.59082-.22949-1.26465-.22949-.55176 0-.99609.18067-.43946.17578-.78614.55175-.33691.36621-.52734.92774-.18555.55664-.18555 1.28906 0 .7666.20508 1.31836.20996.55176.53711.89844.3418.36133.7959.5371.45898.1709.9668.1709.69824 0 1.30859-.23925.61035-.23926 1.14258-.71778h.0684zm5.94238-2.19727q0 1.333-.68359 2.1045-.6836.77148-1.83106.77148-1.15723 0-1.84082-.77149-.67871-.77148-.67871-2.10449 0-1.333.67871-2.1045.68359-.77636 1.84082-.77636 1.14746 0 1.83106.77637.68359.77148.68359 2.1045zm-.94727 0q0-1.05957-.41504-1.57227-.41503-.51757-1.15234-.51757-.74707 0-1.16211.51758-.41015.51269-.41015 1.57226 0 1.0254.41503 1.55762.41504.52734 1.15723.52734.73242 0 1.14746-.52246.41992-.52734.41992-1.5625zM249.29282 50h-.91797v-.57129q-.39551.3418-.8252.53223-.42969.19043-.93262.19043-.97656 0-1.55273-.75196-.57129-.75195-.57129-2.08496 0-.69336.19531-1.23535.2002-.542.53711-.92285.33203-.3711.77149-.5664.44433-.19532.91797-.19532.42968 0 .76172.09277.33203.0879.69824.27832v-2.36328h.91797zm-.91797-1.34277v-3.12989q-.3711-.16601-.66407-.22949-.29296-.06348-.63964-.06348-.77149 0-1.20118.53711-.42968.53711-.42968 1.52344 0 .97168.33203 1.4795.33203.50292 1.06445.50292.39063 0 .79102-.1709.40039-.17578.74707-.44922zm7.29004-1.28907h-4.01856q0 .50293.15137.87891.15137.3711.41504.61035.2539.23438.60058.35156.35157.1172.77149.1172.55664 0 1.11816-.21974.56641-.2246.80567-.43945h.0488v1.00098q-.46386.19531-.94726.32715-.4834.13183-1.01563.13183-1.35742 0-2.11914-.73242-.76172-.7373-.76172-2.08984 0-1.3379.72754-2.12403.73243-.78613 1.92383-.78613 1.10352 0 1.69922.64453.60059.64453.60059 1.83106zm-.89356-.70312q-.005-.72266-.36621-1.11816-.35644-.39551-1.08887-.39551-.7373 0-1.17675.43457-.43457.43457-.49317 1.0791z" text-anchor="middle"/></svg>