<svg xmlns="http://www.w3.org/2000/svg" role="img" xmlns:xlink="http://www.w3.org/1999/xlink" viewBox="-9.54 -9.29 249.08 60.58"><title>OPS/MVS® logo</title><path d="M232.506 4.298c-1.06 0-1.93-.86-1.93-1.92s.87-1.93 1.93-1.93 1.93.87 1.93 1.93-.87 1.92-1.93 1.92m0-4.32c-1.32 0-2.4 1.08-2.4 2.4 0 1.32 1.08 2.4 2.4 2.4 1.32 0 2.4-1.08 2.4-2.4 0-1.32-1.08-2.4-2.4-2.4"/><path d="M232.666 2.278l-.51.01-.01-.62h.51c.19-.01.34.11.34.3.01.19-.14.31-.33.31m.83-.32c-.01-.42-.3-.72-.77-.72l-1.07.02.03 2.26h.49l-.01-.81h.35l.46.8.55-.01-.52-.86c.24-.06.49-.28.49-.68M47.0201 18.3885h-5.999V4.5545h5.835c1.574 0 2.557 1.016 2.557 2.393 0 1.377-.983 2.36-2.557 2.36H40.186v4h6.8341c1.836 0 2.819 1.18 2.819 2.556 0 1.574-1.049 2.525-2.819 2.525m3.376-7.245c2.066-.426 3.771-2.262 3.771-5.015 0-2.918-2.131-5.573-6.295-5.573h-11.506v21.865h11.867c4.163 0 6.359-2.623 6.359-5.901 0-2.754-1.868-5.015-4.196-5.376m17.8225-.5902H63.186v4.098h3.5576l4.294 7.769h5.343l-4.917-8.327c2.361-.557 4.786-2.622 4.786-6.49m0 0c0-4.065-2.786-7.048-7.343-7.048h-10.228v21.865h4.655V4.6533h4.885c1.869 0 3.278 1.114 3.278 2.95s-1.409 2.95-3.278 2.95m43.4206 4.0652l3.409-9.408 3.41 9.408zm.492-14.063l-8.458 21.865h5.31l1.377-3.704h9.376l1.344 3.704h5.311l-8.425-21.865zm26.9039 17.7671h-3.967v-13.67h3.967c4.491 0 6.851 2.983 6.851 6.852 0 3.704-2.524 6.818-6.851 6.818m0-17.767h-8.622v21.865h8.622c6.851 0 11.604-4.327 11.604-10.916s-4.753-10.949-11.604-10.949M221.162.5511l-5.734 9.27-5.734-9.27h-5.146v21.869h4.656V8.1271l5.012 7.622c.574.871 1.851.871 2.424 0l5.013-7.622v14.293h4.656V.5511z"/><path id="a" d="M91.0113 18.5521c-3.871 0-7.008-3.138-7.008-7.008 0-3.871 3.137-7.009 7.008-7.009 3.87 0 7.008 3.138 7.008 7.009 0 3.87-3.138 7.008-7.008 7.008m0-18.536c-6.367 0-11.528 5.161-11.528 11.528 0 6.366 5.161 11.527 11.528 11.527 6.366 0 11.528-5.161 11.528-11.527 0-6.367-5.162-11.528-11.528-11.528"/><path d="M171.5895 14.9349c-1.195 2.156-3.492 3.617-6.132 3.617-3.87 0-7.008-3.138-7.008-7.008 0-3.871 3.138-7.008 7.008-7.008 2.618 0 4.897 1.438 6.1 3.565l3.27-3.269c-2.092-2.915-5.508-4.816-9.37-4.816-6.367 0-11.527 5.161-11.527 11.528 0 6.366 5.16 11.528 11.527 11.528 3.883 0 7.316-1.922 9.404-4.865z"/><use transform="translate(98.718)" xlink:href="#a"/><ellipse cx="11.706" cy="11.705" fill="#cc092f" rx="16.236" ry="16.235"/><path fill="#fff" d="M26.0113 16.0912c-1.857-.74-3.557-.492-5.261.541 0 0-.621.379-.807.496-.794.498-1.543.97-2.263.97-.687 0-1.363-.184-1.649-1.513-.446-2.073-1.534-7.167-2.009-9.69-.279-1.483-.432-2.282-.591-2.825-.28-.954-.792-1.473-1.519-1.556 0 0-.114-.016-.207-.016-.092 0-.218.018-.218.018-.72.086-1.229.605-1.507 1.554-.159.543-.312 1.342-.591 2.825-.475 2.523-1.563 7.617-2.009 9.69-.286 1.329-.962 1.513-1.649 1.513-.72 0-1.469-.472-2.263-.97-.186-.117-.808-.496-.808-.496-1.703-1.033-3.404-1.281-5.26-.541-.401.16-.79596.33918-1.17196.52018.257.806.57693 1.59925.94993 2.34425.411-.202.84203-.40243 1.28203-.53243.634-.187 1.284-.197 1.914.014.612.205 1.157.568 1.7.909 1.023.643 2.182 1.372 3.657 1.372 2.186 0 3.72-1.305 4.21-3.581.38-1.764 1.222-5.702 1.763-8.418 0 0 1.386 6.654 1.765 8.418.49 2.276 2.025 3.581 4.211 3.581 1.475 0 2.634-.729 3.657-1.372.543-.341 1.088-.704 1.7-.909.629-.211 1.28-.201 1.914-.014.44.13.87039.33065 1.28139.53265.374-.745.69309-1.53862.95009-2.34462-.376-.181-.77048-.36003-1.17148-.52003"/><path d="M97.30352 38.77245q.44434.48828.67871 1.1963.23926.708.23926 1.60644 0 .89843-.24414 1.61133-.23926.708-.67383 1.18164-.44922.49316-1.06445.74218-.61035.24903-1.39649.24903-.7666 0-1.39648-.2539-.625-.25391-1.06445-.73731-.43946-.4834-.67872-1.18653-.23437-.70312-.23437-1.60644 0-.88867.23437-1.5918.23438-.708.6836-1.21094.42969-.47851 1.06445-.73242.63965-.2539 1.3916-.2539.78125 0 1.40137.25878.625.25391 1.05957.72754zm-.08789 2.80274q0-1.41602-.63477-2.18262-.63476-.77148-1.7334-.77148-1.1084 0-1.74316.77148-.62988.7666-.62988 2.18262 0 1.43066.64453 2.19238.64453.75684 1.72852.75684 1.08398 0 1.72363-.75684.64453-.76172.64453-2.19238zm7.29492-1.44043q0 .4834-.1709.89843-.16601.41016-.46875.7129-.37597.37597-.88867.5664-.51269.18555-1.29394.18555h-.9668V45.208h-.9668v-7.2705h1.97266q.6543 0 1.1084.1123.4541.10742.80566.3418.41504.27831.63965.69335.22949.41504.22949 1.0498zm-1.00586.0244q0-.37597-.13183-.65429-.13184-.27832-.40039-.4541-.23438-.15137-.53711-.21484-.29786-.06836-.75684-.06836h-.95703v2.90527h.81543q.58594 0 .95215-.10254.36621-.10742.5957-.33691.22949-.23438.32227-.49317.0977-.25879.0977-.58105zm7.56348 2.97364q0 .4248-.2002.83984-.19531.41504-.55175.70313-.39063.3125-.91309.48828-.51758.17578-1.25.17578-.78613 0-1.41602-.14648-.625-.14649-1.27441-.43457v-1.21094h.0684q.55176.45898 1.27441.708.72266.24903 1.35743.24903.89843 0 1.39648-.33691.50293-.33692.50293-.89844 0-.4834-.23926-.7129-.23437-.22948-.71777-.35644-.36621-.09766-.7959-.16113-.42481-.06348-.90332-.16113-.9668-.20508-1.43555-.69824-.46386-.49805-.46386-1.29395 0-.91309.77148-1.49414.77148-.58594 1.95801-.58594.7666 0 1.40625.14649.63965.14648 1.13281.36133v1.14257h-.0684q-.41504-.35156-1.09375-.58105-.67383-.23438-1.38184-.23438-.77636 0-1.25.32227-.46875.32227-.46875.83008 0 .4541.23438.71289.23437.25879.82519.3955.3125.06837.88868.16602.57617.09766.97656.2002.81055.21484 1.2207.64941.41016.43457.41016 1.21582zm4.77539-5.52246l-3.50098 9.08203h-.84472l3.48632-9.08203zm7.79297 7.59766h-.9668v-6.26465l-2.02148 4.2627h-.57618l-2.00683-4.2627V45.208h-.90332v-7.2705h1.31836l1.93847 4.04784 1.875-4.04785h1.34278zm7.68554-7.27051l-2.64648 7.2705h-1.28906l-2.64649-7.2705h1.03516l2.28027 6.39648 2.28028-6.39648zm6.38672 5.19531q0 .4248-.20019.83984-.19531.41504-.55176.70313-.39062.3125-.91309.48828-.51757.17578-1.25.17578-.78613 0-1.41601-.14648-.625-.14649-1.27442-.43457v-1.21094h.0684q.55176.45898 1.27442.708.72265.24903 1.35742.24903.89844 0 1.39648-.33691.50293-.33692.50293-.89844 0-.4834-.23925-.7129-.23438-.22948-.71778-.35644-.36621-.09766-.7959-.16113-.4248-.06348-.90332-.16113-.96679-.20508-1.43554-.69824-.46387-.49805-.46387-1.29395 0-.91309.77148-1.49414.77149-.58594 1.95801-.58594.7666 0 1.40625.14649.63965.14648 1.13281.36133v1.14257h-.0684q-.41504-.35156-1.09375-.58105-.67383-.23438-1.38184-.23438-.77637 0-1.25.32227-.46875.32227-.46875.83008 0 .4541.23437.71289.23438.25879.8252.3955.3125.06837.88867.16602.57617.09766.97656.2002.81055.21484 1.22071.64941.41015.43457.41015 1.21582zm9.79981-1.12305q0 1.74805-1.24024 2.98829-1.23535 1.23535-2.98339 1.23535-1.74805 0-2.98829-1.23535-1.23535-1.24024-1.23535-2.98829 0-1.74804 1.23535-2.9834 1.24024-1.24023 2.98829-1.24023 1.74804 0 2.98339 1.24024 1.24024 1.23535 1.24024 2.9834zm-.56641 0q0-1.51367-1.07422-2.59765-1.06933-1.08399-2.583-1.08399-1.51368 0-2.5879 1.08399-1.06933 1.08398-1.06933 2.59765 0 1.51368 1.06933 2.59766 1.07422 1.08398 2.5879 1.08398 1.51367 0 2.583-1.08398 1.07422-1.08398 1.07422-2.59766zm-.9375 2.14844h-1.08887l-1.61621-1.7334h-.79101v1.7334h-.80567v-4.46777h1.52344q.45899 0 .75684.03906.29785.03906.58594.19043.30761.16601.44921.40527.14649.23438.14649.59082 0 .47363-.27832.79102-.27344.3125-.75684.49804zm-1.71875-3.18847q0-.17579-.0684-.3125-.0684-.13672-.22949-.22461-.15137-.08301-.32227-.10743-.17089-.0244-.42968-.0244h-.72754v1.50878h.62012q.30273 0 .52246-.04395.21972-.04883.36132-.16113.15137-.12207.20997-.26855.0635-.14649.0635-.36622z" text-anchor="middle"/></svg>