<svg xmlns="http://www.w3.org/2000/svg" role="img" xmlns:xlink="http://www.w3.org/1999/xlink" viewBox="-9.54 -9.29 249.08 61.08"><title>Output Management Spool™ for z/OS logo</title><path d="M232.506 4.298c-1.06 0-1.93-.86-1.93-1.92s.87-1.93 1.93-1.93 1.93.87 1.93 1.93-.87 1.92-1.93 1.92m0-4.32c-1.32 0-2.4 1.08-2.4 2.4 0 1.32 1.08 2.4 2.4 2.4 1.32 0 2.4-1.08 2.4-2.4 0-1.32-1.08-2.4-2.4-2.4"/><path d="M232.666 2.278l-.51.01-.01-.62h.51c.19-.01.34.11.34.3.01.19-.14.31-.33.31m.83-.32c-.01-.42-.3-.72-.77-.72l-1.07.02.03 2.26h.49l-.01-.81h.35l.46.8.55-.01-.52-.86c.24-.06.49-.28.49-.68M47.0201 18.3885h-5.999V4.5545h5.835c1.574 0 2.557 1.016 2.557 2.393 0 1.377-.983 2.36-2.557 2.36H40.186v4h6.8341c1.836 0 2.819 1.18 2.819 2.556 0 1.574-1.049 2.525-2.819 2.525m3.376-7.245c2.066-.426 3.771-2.262 3.771-5.015 0-2.918-2.131-5.573-6.295-5.573h-11.506v21.865h11.867c4.163 0 6.359-2.623 6.359-5.901 0-2.754-1.868-5.015-4.196-5.376m17.8225-.5902H63.186v4.098h3.5576l4.294 7.769h5.343l-4.917-8.327c2.361-.557 4.786-2.622 4.786-6.49m0 0c0-4.065-2.786-7.048-7.343-7.048h-10.228v21.865h4.655V4.6533h4.885c1.869 0 3.278 1.114 3.278 2.95s-1.409 2.95-3.278 2.95m43.4206 4.0652l3.409-9.408 3.41 9.408zm.492-14.063l-8.458 21.865h5.31l1.377-3.704h9.376l1.344 3.704h5.311l-8.425-21.865zm26.9039 17.7671h-3.967v-13.67h3.967c4.491 0 6.851 2.983 6.851 6.852 0 3.704-2.524 6.818-6.851 6.818m0-17.767h-8.622v21.865h8.622c6.851 0 11.604-4.327 11.604-10.916s-4.753-10.949-11.604-10.949M221.162.5511l-5.734 9.27-5.734-9.27h-5.146v21.869h4.656V8.1271l5.012 7.622c.574.871 1.851.871 2.424 0l5.013-7.622v14.293h4.656V.5511z"/><path id="a" d="M91.0113 18.5521c-3.871 0-7.008-3.138-7.008-7.008 0-3.871 3.137-7.009 7.008-7.009 3.87 0 7.008 3.138 7.008 7.009 0 3.87-3.138 7.008-7.008 7.008m0-18.536c-6.367 0-11.528 5.161-11.528 11.528 0 6.366 5.161 11.527 11.528 11.527 6.366 0 11.528-5.161 11.528-11.527 0-6.367-5.162-11.528-11.528-11.528"/><path d="M171.5895 14.9349c-1.195 2.156-3.492 3.617-6.132 3.617-3.87 0-7.008-3.138-7.008-7.008 0-3.871 3.138-7.008 7.008-7.008 2.618 0 4.897 1.438 6.1 3.565l3.27-3.269c-2.092-2.915-5.508-4.816-9.37-4.816-6.367 0-11.527 5.161-11.527 11.528 0 6.366 5.16 11.528 11.527 11.528 3.883 0 7.316-1.922 9.404-4.865z"/><use transform="translate(98.718)" xlink:href="#a"/><ellipse cx="11.706" cy="11.705" fill="#cc092f" rx="16.236" ry="16.235"/><path fill="#fff" d="M26.0113 16.0912c-1.857-.74-3.557-.492-5.261.541 0 0-.621.379-.807.496-.794.498-1.543.97-2.263.97-.687 0-1.363-.184-1.649-1.513-.446-2.073-1.534-7.167-2.009-9.69-.279-1.483-.432-2.282-.591-2.825-.28-.954-.792-1.473-1.519-1.556 0 0-.114-.016-.207-.016-.092 0-.218.018-.218.018-.72.086-1.229.605-1.507 1.554-.159.543-.312 1.342-.591 2.825-.475 2.523-1.563 7.617-2.009 9.69-.286 1.329-.962 1.513-1.649 1.513-.72 0-1.469-.472-2.263-.97-.186-.117-.808-.496-.808-.496-1.703-1.033-3.404-1.281-5.26-.541-.401.16-.79596.33918-1.17196.52018.257.806.57693 1.59925.94993 2.34425.411-.202.84203-.40243 1.28203-.53243.634-.187 1.284-.197 1.914.014.612.205 1.157.568 1.7.909 1.023.643 2.182 1.372 3.657 1.372 2.186 0 3.72-1.305 4.21-3.581.38-1.764 1.222-5.702 1.763-8.418 0 0 1.386 6.654 1.765 8.418.49 2.276 2.025 3.581 4.211 3.581 1.475 0 2.634-.729 3.657-1.372.543-.341 1.088-.704 1.7-.909.629-.211 1.28-.201 1.914-.014.44.13.87039.33065 1.28139.53265.374-.745.69309-1.53862.95009-2.34462-.376-.181-.77048-.36003-1.17148-.52003"/><path d="M31.15362 38.77245q.44433.48828.6787 1.1963.23927.708.23927 1.60644 0 .89843-.24414 1.61133-.23926.708-.67383 1.18164-.44922.49316-1.06445.74218-.61036.24903-1.39649.24903-.7666 0-1.39648-.2539-.625-.25391-1.06446-.73731-.43945-.4834-.6787-1.18653-.23438-.70312-.23438-1.60644 0-.88867.23437-1.5918.23438-.708.6836-1.21094.42968-.47851 1.06445-.73242.63965-.2539 1.3916-.2539.78125 0 1.40137.25878.625.25391 1.05957.72754zm-.0879 2.80274q0-1.41602-.63476-2.18262-.63476-.77148-1.7334-.77148-1.1084 0-1.74316.77148-.62988.7666-.62988 2.18262 0 1.43066.64453 2.19238.64453.75684 1.72851.75684 1.08399 0 1.72364-.75684.64453-.76172.64453-2.19238zm6.98731 3.63281h-.91797v-.60547q-.46386.36621-.88867.56152-.4248.19532-.9375.19532-.85937 0-1.33789-.52246-.47851-.52735-.47851-1.54297V39.7539h.91796v3.10547q0 .41504.03906.71289.03906.29297.16602.50293.13184.21484.3418.3125.20996.09766.61035.09766.35644 0 .77637-.18555.4248-.18555.79101-.47363V39.7539h.91797zm4.63867-.04883q-.25878.06836-.5664.1123-.30274.04395-.542.04395-.83496 0-1.26953-.44921-.43457-.44922-.43457-1.44043v-2.9004h-.62011v-.77148h.62011v-1.56738h.91797v1.56738h1.89453v.77149h-1.89453v2.48535q0 .42968.01953.67383.01953.23925.13672.44921.10742.19532.29297.28809.19043.08789.57617.08789.22461 0 .46875-.06348.24414-.06836.35157-.1123h.04883zm5.9082-2.74414q0 .66406-.19042 1.21582-.19043.54687-.53711.92773-.32227.36133-.76172.56153-.43457.19531-.92285.19531-.4248 0-.77149-.09277-.3418-.09277-.69824-.28809v2.28516h-.91797V39.7539h.91797v.57129q.36621-.30762.82031-.5127.45899-.20996.97657-.20996.98632 0 1.5332.74707.55176.74219.55176 2.06543zm-.94726.0244q0-.98632-.33691-1.4746-.33692-.48828-1.03516-.48828-.3955 0-.7959.1709-.40039.1709-.7666.44922v3.09082q.39063.17578.66895.23925.2832.06348.63965.06348.7666 0 1.19628-.51757.4297-.51758.4297-1.5332zm6.89942 2.76857h-.91797v-.60547q-.46387.36621-.88867.56152-.42481.19532-.9375.19532-.85938 0-1.3379-.52246-.47851-.52735-.47851-1.54297V39.7539h.91797v3.10547q0 .41504.03906.71289.03906.29297.16601.50293.13184.21484.3418.3125.20996.09766.61035.09766.35645 0 .77637-.18555.4248-.18555.79101-.47363V39.7539h.91797zm4.63867-.04883q-.2588.06836-.5664.1123-.30274.04395-.542.04395-.83496 0-1.26953-.44921-.43457-.44922-.43457-1.44043v-2.9004h-.62012v-.77148h.62012v-1.56738h.91797v1.56738h1.89453v.77148H57.2962v2.48535q0 .4297.01953.67383.01953.23926.13672.44922.10742.19531.29296.28809.19043.08789.57618.08789.2246 0 .46875-.06348.24414-.06836.35156-.1123h.04883zm11.17187.04883h-.9668v-6.26465l-2.02148 4.2627h-.57617l-2.00684-4.2627V45.208H63.888v-7.2705h1.31836l1.93848 4.04784 1.875-4.04785h1.34277zm6.11817 0h-.91309v-.58105q-.12207.083-.33203.23437-.20508.14649-.4004.23438-.22948.1123-.52734.18554-.29785.07813-.69824.07813-.7373 0-1.25-.48828t-.5127-1.24512q0-.62011.26368-1.00097.26855-.38574.76172-.60547.49804-.21973 1.19629-.29785.69824-.07813 1.49902-.11719v-.1416q0-.3125-.1123-.51758-.10743-.20508-.3125-.32227-.19532-.1123-.46875-.15136-.27344-.03906-.5713-.03906-.36132 0-.80566.09766-.44433.09277-.91797.27343h-.04883v-.93261q.26856-.07324.77637-.16114.50781-.08789 1.00098-.08789.57617 0 1.00097.09766.4297.09277.7422.32227.3076.2246.46874.58105.16113.35645.16113.8838zm-.91309-1.34277v-1.51856q-.41992.02441-.99121.07324-.5664.04883-.89844.1416-.3955.1123-.63965.35157-.24414.23437-.24414.64941 0 .46875.2832.708.2832.23438.86426.23438.4834 0 .8838-.18554.40038-.19043.74218-.4541zm7.24121 1.34277h-.91797v-3.10547q0-.37598-.04395-.70312-.04394-.33204-.16113-.51758-.12207-.20508-.35156-.30274-.2295-.10254-.5957-.10254-.37598 0-.78614.18555-.41015.18555-.78613.47363V45.208h-.91797v-5.4541h.91797v.60547q.42969-.35645.88867-.55664.45898-.2002.94238-.2002.8838 0 1.34766.53223.46387.53222.46387 1.5332zm6.00586 0h-.91309v-.58105q-.12207.083-.33203.23437-.20508.14649-.40039.23438-.22949.1123-.52734.18554-.29785.07813-.69824.07813-.7373 0-1.25-.48828t-.5127-1.24512q0-.62011.26367-1.00097.26856-.38574.76172-.60547.49805-.21973 1.1963-.29785.69823-.07813 1.49902-.11719v-.1416q0-.3125-.11231-.51758-.10742-.20508-.3125-.32227-.19531-.1123-.46875-.15136t-.57129-.03906q-.36133 0-.80566.09766-.44434.09277-.91797.27343h-.04883v-.93261q.26855-.07324.77637-.16114.5078-.08789 1.00097-.08789.57617 0 1.00098.09766.42969.09277.74219.32227.30761.2246.46875.58105.16113.35645.16113.8838zm-.91309-1.34277v-1.51856q-.41992.02441-.9912.07324-.56641.04883-.89844.1416-.39551.1123-.63965.35157-.24414.23437-.24414.64941 0 .46875.2832.708.2832.23438.86426.23438.4834 0 .88379-.18554.40039-.19043.74218-.4541zm7.1045.72265q0 1.38672-.62989 2.03614-.62988.64941-1.93847.64941-.43457 0-.84961-.06348-.41016-.05859-.81055-.1709v-.9375h.04883q.22461.0879.7129.21485.48827.13183.97655.13183.46875 0 .77637-.1123t.47852-.3125q.1709-.19043.24414-.45899.07324-.26855.07324-.60058v-.49805q-.41504.33203-.7959.49805-.37598.16113-.96191.16113-.97657 0-1.55274-.70313-.57129-.708-.57129-1.99218 0-.70313.19531-1.21094.2002-.5127.542-.88379.31738-.34668.77148-.5371.4541-.19532.90332-.19532.47363 0 .79102.09766.32226.09277.6787.28808l.0586-.23437h.85937zm-.91797-.8789v-2.97364q-.36621-.16601-.6836-.23437-.3125-.07324-.625-.07324-.75683 0-1.1914.50781t-.43457 1.47461q0 .91797.32226 1.3916.32227.47364 1.06934.47364.40039 0 .80078-.15137.40527-.15625.74219-.41504zm7.29004-1.13282h-4.01856q0 .50293.15137.87891.15137.3711.41504.61035.2539.23438.60058.35156.35157.1172.77149.1172.55664 0 1.11816-.21974.56641-.2246.80567-.43945h.0488v1.00098q-.46387.19531-.94727.32715-.4834.13183-1.01563.13183-1.35742 0-2.11914-.73242-.76172-.7373-.76172-2.08984 0-1.3379.72754-2.12403.73243-.78613 1.92383-.78613 1.10352 0 1.69922.64453.60059.64453.60059 1.83106zm-.89356-.70312q-.005-.72266-.36621-1.11817-.35644-.3955-1.08887-.3955-.7373 0-1.17675.43457-.43457.43457-.49317 1.0791zm10.24414 3.33496h-.91797v-3.10547q0-.35156-.0342-.67871-.0293-.32715-.13183-.52246-.11231-.20996-.32227-.31738-.20996-.10742-.60547-.10742-.38574 0-.77148.1953-.38574.19044-.77148.48829.0146.1123.0244.26367.01.14649.01.29297V45.208h-.91797v-3.10547q0-.36133-.0342-.6836-.0293-.32714-.13184-.52245-.1123-.20996-.32226-.3125-.20997-.10742-.60547-.10742-.37598 0-.75684.18554-.37598.18555-.75195.47363V45.208h-.91797v-5.4541h.91797v.60547q.42969-.35645.85449-.55664.42969-.2002.91309-.2002.55664 0 .94238.23438.39062.23437.58105.64941.55664-.46875 1.01563-.67383.45898-.20996.98144-.20996.89844 0 1.32325.54688.42968.54199.42968 1.51855zm6.33301-2.63184h-4.01855q0 .50293.15136.87891.15137.3711.41504.61035.25391.23438.60059.35156.35156.1172.77148.1172.55664 0 1.11817-.21974.5664-.2246.80566-.43945h.0488v1.00098q-.46387.19531-.94727.32715-.48339.13183-1.01562.13183-1.35742 0-2.11914-.73242-.76172-.7373-.76172-2.08984 0-1.3379.72754-2.12403.73242-.78613 1.92383-.78613 1.10351 0 1.69922.64453.60058.64453.60058 1.83106zm-.89355-.70312q-.005-.72266-.36621-1.11817-.35645-.3955-1.08887-.3955-.73731 0-1.17676.43457-.43457.43457-.49316 1.0791zm6.8457 3.33496h-.91797v-3.10547q0-.37598-.0439-.70312-.0439-.33204-.16114-.51758-.12207-.20508-.35156-.30274-.22949-.10254-.5957-.10254-.37598 0-.78614.18555-.41015.18555-.78613.47363V45.208h-.91797v-5.4541h.91797v.60547q.42969-.35645.88867-.55664.45899-.2002.94239-.2002.88379 0 1.34765.53223.46387.53222.46387 1.5332zm4.59961-.04883q-.25879.06836-.56641.1123-.30273.04395-.54199.04395-.83496 0-1.26953-.44921-.43457-.44922-.43457-1.44043v-2.9004h-.62012v-.77148h.62012v-1.56738h.91797v1.56738h1.89453v.77149h-1.89453v2.48535q0 .42968.0195.67383.0195.23925.13672.44921.10742.19532.29297.28809.19043.08789.57617.08789.22461 0 .46875-.06348.24414-.06836.35156-.1123h.0488zm9.98047-2.02637q0 .4248-.2002.83985-.19531.41504-.55176.70312-.39062.3125-.91308.48828-.51758.17578-1.25.17578-.78613 0-1.41602-.14648-.625-.14649-1.27441-.43457v-1.21094h.0684q.55176.45899 1.27441.70801.72266.24902 1.35742.24902.89844 0 1.39649-.33691.50293-.33692.50293-.89844 0-.4834-.23926-.71289-.23437-.2295-.71777-.35644-.36621-.09766-.7959-.16114-.42481-.06348-.90332-.16113-.9668-.20508-1.43555-.69824-.46387-.49805-.46387-1.29395 0-.91308.77149-1.49414.77148-.58594 1.95801-.58594.7666 0 1.40625.14649.63964.14648 1.13281.36133v1.14257h-.0684q-.41504-.35156-1.09375-.58105-.67383-.23438-1.38184-.23438-.77636 0-1.25.32227-.46875.32227-.46875.83008 0 .4541.23438.71289.23437.25879.82519.3955.3125.06837.88868.16602.57617.09766.97656.2002.81055.21484 1.2207.64941.41016.43457.41016 1.21582zm6.27929-.71777q0 .66406-.19043 1.21582-.19042.54687-.5371.92773-.32227.36133-.76172.56153-.43457.19531-.92285.19531-.42481 0-.77149-.09277-.3418-.09277-.69824-.28809v2.28516h-.91797V39.7539h.91797v.57129q.36621-.30762.82031-.5127.45899-.20996.97656-.20996.98633 0 1.53321.74707.55175.74219.55175 2.06543zm-.94726.0244q0-.98632-.33692-1.4746-.33691-.48828-1.03515-.48828-.39551 0-.7959.1709-.40039.1709-.7666.44922v3.09082q.39062.17578.66894.23925.28321.06348.63965.06348.7666 0 1.19629-.51757.42969-.51758.42969-1.5332zm7.02637.04396q0 1.333-.6836 2.1045-.68359.77148-1.83105.77148-1.15723 0-1.84082-.77149-.67871-.77148-.67871-2.1045 0-1.333.67871-2.10448.68359-.77637 1.84082-.77637 1.14746 0 1.83105.77637.6836.77148.6836 2.10449zm-.94727 0q0-1.05957-.41504-1.57227-.41504-.51757-1.15234-.51757-.74707 0-1.16211.51757-.41016.5127-.41016 1.57227 0 1.02539.41504 1.55762.41504.52734 1.15723.52734.73242 0 1.14746-.52246.41992-.52734.41992-1.5625zm7.0166 0q0 1.333-.68359 2.1045-.6836.77148-1.83106.77148-1.15722 0-1.84082-.77149-.67871-.77148-.67871-2.1045 0-1.333.67871-2.10448.6836-.77637 1.84082-.77637 1.14746 0 1.83106.77637.68359.77148.68359 2.10449zm-.94726 0q0-1.05957-.41504-1.57227-.41504-.51757-1.15235-.51757-.74707 0-1.16211.51757-.41015.5127-.41015 1.57227 0 1.02539.41504 1.55762.41504.52734 1.15722.52734.73243 0 1.14746-.52246.41993-.52734.41993-1.5625zm3.29589 2.7246h-.91796v-7.59765h.91796zm9.58985-3.833h-.60547v-3.0127h-.0977l-1.15722 2.20215h-.38575l-1.16699-2.23632h-.12207v3.04687h-.60058v-3.4375h1.16211l.93261 1.86524.93262-1.86524h1.1084zm-4.99024-2.86621h-1.11816v2.86621h-.62012v-2.86621h-1.11816v-.57129h2.85644zm13.43262-.0098h-.0488q-.15136-.04395-.3955-.0879-.24415-.04882-.42969-.04882-.59082 0-.85938.26367-.26367.25879-.26367.94238v.18555h1.65527v.77148h-1.62597V45.208h-.91797v-4.68262h-.62012v-.77148h.62012v-.18067q0-.97168.4834-1.48925.4834-.52246 1.39648-.52246.30762 0 .55176.0293.24902.0293.4541.06836zm5.22949 3.98437q0 1.33301-.68359 2.1045-.68359.77148-1.83105.77148-1.15723 0-1.84083-.77148-.67871-.77149-.67871-2.1045 0-1.333.67871-2.10449.6836-.77637 1.84083-.77637 1.14746 0 1.83105.77637.68359.77149.68359 2.1045zm-.94726 0q0-1.05957-.41504-1.57226-.41504-.51758-1.15234-.51758-.74708 0-1.16211.51758-.41016.5127-.41016 1.57226 0 1.0254.41504 1.55762.41504.52735 1.15723.52735.73242 0 1.14746-.52247.41992-.52734.41992-1.5625zm5.77148-1.72851h-.0488q-.20507-.04883-.40039-.06836-.19043-.02441-.4541-.02441-.4248 0-.82031.19043-.39551.18554-.76172.4834v3.8721h-.91797v-5.4541h.91797v.80566q.54688-.43945.96191-.62012.41993-.18554.8545-.18554.23925 0 .34668.01465.10742.0098.32226.04395zm8.33496 4.45312h-4.40429v-.6787l3.17871-4.0088h-3.11035v-.7666h4.25293v.6543l-3.19336 4.02344h3.27636zm4.59473-7.59765l-3.50098 9.08203h-.84472l3.48632-9.08203zm6.73828 1.1621q.44434.48829.67871 1.1963.23926.708.23926 1.60644 0 .89844-.24414 1.61133-.23926.708-.67383 1.18164-.44922.49316-1.06445.74219-.61035.24902-1.39649.24902-.7666 0-1.39648-.2539-.625-.25391-1.06445-.73731-.43946-.4834-.67871-1.18652-.23438-.70313-.23438-1.60645 0-.88867.23438-1.5918.23437-.708.68359-1.21093.42969-.47852 1.06445-.73243.63965-.2539 1.3916-.2539.78125 0 1.40137.25879.625.2539 1.05957.72754zm-.0879 2.80274q0-1.41601-.63477-2.18262-.63476-.77148-1.73339-.77148-1.1084 0-1.74317.77148-.62988.7666-.62988 2.18262 0 1.43067.64453 2.19238.64453.75684 1.72852.75684 1.08398 0 1.72363-.75684.64453-.76171.64453-2.19238zm7.82227 1.55762q0 .4248-.2002.83984-.19531.41504-.55176.70313-.39062.3125-.91308.48828-.51758.17578-1.25.17578-.78614 0-1.41602-.14648-.625-.14649-1.27441-.43458v-1.21093h.0684q.55175.45898 1.27441.708.72266.24903 1.35742.24903.89844 0 1.39649-.33692.50293-.33691.50293-.89843 0-.4834-.23926-.7129-.23438-.22949-.71777-.35644-.36622-.09766-.7959-.16113-.42481-.06348-.90332-.16113-.9668-.20508-1.43555-.69825-.46387-.49804-.46387-1.29394 0-.91309.77149-1.49414.77148-.58594 1.958-.58594.76661 0 1.40625.14648.63965.14649 1.13282.36133v1.14258h-.0684q-.41504-.35156-1.09375-.58105-.67383-.23438-1.38184-.23438-.77637 0-1.25.32227-.46875.32226-.46875.83007 0 .4541.23438.7129.23437.25878.82519.3955.3125.06836.88867.16602.57618.09766.97657.2002.81054.21484 1.2207.6494.41016.43458.41016 1.21583z" text-anchor="middle"/></svg>