<svg xmlns="http://www.w3.org/2000/svg" role="img" viewBox="7.27 21.77 135.20 106.33"><title>PostgreSQL logo</title><style>svg {enable-background:new 0 0 150 150}</style><style>.st0{fill:#32668f}</style><path d="M93.1 25.6c1.6-.9 3.5-.9 5.3-1 1.9 0 4.1.2 5.6 1.4 1 .8 1.4 2.1 1.4 3.3h-1.9c-.2-1.2-.7-2.4-2-2.9-2.1-.8-4.4-.7-6.6-.1-1.7.5-2.3 2.9-1 4.2.9.7 2.2.9 3.3 1.1 2.3.5 4.8.6 6.9 1.6 2.3 1.1 2.2 4.9.2 6.2-1.6 1.1-3.9 1.3-5.8 1.4-2.2-.1-4.5-.3-6.2-1.6-1.1-.9-1.4-2.3-1.5-3.7.6 0 1.3-.1 1.9-.1.1 1.4.8 3 2.3 3.5 2.3.9 4.9.9 7.1.2 1.6-.5 2.3-2.5 1.5-3.9-.4-.6-1.1-1-1.7-1.2-2.8-.7-5.8-.8-8.6-1.8-2.5-1.2-2.6-5.4-.2-6.6z" class="st0"/><path d="M110.6 25.6c2.2-1.1 4.6-1.3 7-1.1 2.3.2 4.5 1 6.1 2.7 1.9 2.1 2.3 5.2 1.5 7.7-.4 1.4-1.4 2.6-2.5 3.6.9.6 1.8 1.2 2.6 1.9-.4.4-.8.7-1.2 1.1-.9-.6-1.7-1.3-2.7-1.8-.7 0-1.4.5-2.2.5-2.1.4-4.2.4-6.1 0-2.2-.5-4.3-1.6-5.5-3.6-1.2-1.9-1.4-4.3-.8-6.4.6-1.9 2-3.6 3.8-4.6zm3 .4c-2.2.5-4.1 1.9-4.7 4.1-.7 2.3-.5 5 1.2 6.9 1.4 1.6 3.6 2.3 5.8 2.3 2.3.1 5-.6 6.5-2.4 2.2-2.7 1.9-7.3-1-9.4-2.2-1.9-5.2-2-7.8-1.5z" class="st0"/><path d="M126.8 24.9c.6 0 1.2 0 1.8-.1.1 4.6 0 9.3 0 14 3.8.1 7.6 0 11.4.1v1.3h-13.2V24.9zM80.6 56.4c4.2-.9 8.6-.8 12.6.7 2.8 1.1 5.2 2.9 7 5.2.9 1.1 1 2.6 1.1 3.9.1 3.3-.6 6.4-1.4 9.5-1.6 5.7-4 11.2-7 16.4-.4.5-.6 1-1 1.4 0-.1-.1-.4-.1-.6.4-1 .9-1.9 1.1-3 .7-3 .1-6-.1-8.9-.3-2.8.6-5.5.6-8.4.1-1.4-.5-2.6-.9-3.9-1.9-4.2-4.9-8-8.9-10.7-1-.4-2-1-3-1.6z" class="st0"/><path d="M69.1 56.7c5.2-.6 10.4.7 14.5 3.9 3.3 2.6 6 6.2 7.4 10.2-2.3-.1-5.1-.2-7 1.4-1.7 1.4-2 4-1.6 6.1.9 5 3.9 9.2 6.1 13.7.6 1.1 1.4 2 2.1 2.9-.9.5-1.9.9-2.3 1.8-.9 1.4-.6 3.2-.8 4.7-.5 4.4-1 8.8-1.7 13.2-.4 2.1-1.2 4.3-3.2 5.4-2 1-4.4 1.6-6.7 1.4-2.2-.4-3.5-2.3-4.2-4.3-.5-1.6-.5-3.3-.6-5.1-.2-4.1-.2-8.1-.1-12.3.1-1.6-.7-3.3-2.2-4.1-.6-.4-1.5-.5-2.3-.5.6-3 2.4-5.6 3.1-8.6.8-3.7.4-7.6-.5-11.2-.4-1.9-1.8-3.4-3.6-3.9-2.9-.7-5.7.4-8.3 1.6.4-4.2 1.4-8.4 4-11.7 2-2.5 4.9-4.1 7.9-4.6z" class="st0"/><path d="M47.5 57.1c4.5-.9 9.1.1 13.6 1.4-1.9 2.2-3.3 4.6-4.3 7.3-1.2 3.6-1.7 7.5-1.4 11.3.1 2.7.1 5.4-.3 8-.5 3.4.9 7 3.5 9.4-1.8 2.1-3.6 4.1-5.3 6.1-.7.9-1.8 1.9-3.1 1.6-1.5-.5-2.4-1.8-3.3-3.1-2.3-3.6-3.6-7.7-4.9-11.7-1.4-4.8-2.6-9.7-3.3-14.6-.4-3.7-.1-7.8 1.8-11.1 1.4-2.4 4.1-4.1 7-4.6z" class="st0"/><path d="M85.6 73.9c1.6-1.2 3.9-.9 5.8-.8-.1 2.6-.9 5.3-.6 8 .3 3.3 1.2 6.9-.4 10-2.2-4.2-4.9-8.1-5.8-12.8-.3-1.5-.4-3.4 1-4.4zm.5.6c-.5.5.1 1.1.5 1.4 1.1.6 2.7-.3 2.8-1.6-1-.5-2.3-.5-3.3.2z" class="st0"/><path d="M57.3 75.6c2.2-1.4 4.5-2.3 7-2.3 1.4.1 2.5 1 2.9 2.3 1.1 4.6 1.5 9.7-.6 14-.8 1.6-1.4 3.3-1.9 5.2-3.6.1-6.8-3.1-7.4-6.6-.5-2 .1-4 .2-5.9 0-2.2-.2-4.5-.2-6.7zm5.8-1.1c-.4.1-.6.4-.6.7.2 1.4 2 2.2 3.2 1.4.5-.3 1-1.1.5-1.5-.9-.6-2.1-.8-3.1-.6z" class="st0"/><path d="M90.3 97.6c.5-.4 1.4-.8 1.9-.4 2.6 1.4 5.8.7 8.7.4-1.7 1.6-4.2 2.4-6.5 2.7-1.6.2-3.2.3-4.7-.3 0-.7 0-1.7.6-2.4zm-26.8 3.3c1.5-.8 2.2-2.6 3.6-3.6 1.5-.2 2.7 2.2 1.5 3.2-2.3 3.2-6.9 3.7-10.2 2 1.5-.7 3.4-.6 5.1-1.6z" class="st0"/><path d="M10 24.9c2.9 0 5.7 0 8.6-.1 1.4 0 2.7.2 3.8 1.1 1.4 1.2 1.6 3.3 1.1 5-.7 1.8-2.7 2.6-4.5 2.6h-7.4c0 2.2.1 4.3 0 6.5h-1.5c-.1-4.9-.2-10-.1-15.1zm1.6 1.3v6.4c2.3 0 4.5.1 6.8 0 1.3-.1 2.7-.5 3.3-1.7.4-1.1.4-2.5-.4-3.5-.7-.9-2-1.1-3.2-1.1-2.2-.1-4.4-.1-6.5-.1z"/><path d="M50.8 26.6h1.6V30c.9 0 1.8.1 2.6.1 0 .4 0 .7.1 1.1-.9 0-1.8.1-2.7 0-.1 2.2 0 4.3 0 6.4 0 .5 0 1.1.5 1.4.6.4 1.5.2 2.3.2v1c-1.1.1-2.3.2-3.4-.4-.6-.4-.9-1.1-.9-1.8v-6.9h-2V30c.6 0 1.4-.2 2-.2-.1-.9-.1-1.9-.1-3.2z"/><path d="M27.8 30c2-.3 4.2-.2 6 .8 2.6 1.5 3.1 5.6 1.2 7.9-1.6 1.8-4.2 2-6.5 1.9-1.9-.1-3.7-1-4.6-2.7-.8-1.5-.8-3.4-.1-5.1.8-1.6 2.4-2.5 4-2.8zm.8 1c-1.4.2-2.9 1.1-3.3 2.5-.5 1.6-.4 3.6 1 4.8 1.1.9 2.5 1.2 3.9 1.1 1.2-.1 2.5-.4 3.3-1.3.9-.9 1.1-2.3 1-3.6-.1-1.1-.6-2.2-1.6-2.8-1.4-.7-2.9-.8-4.3-.7z"/><path d="M38.2 30.7c1.1-.6 2.3-.8 3.5-.9 1.6-.1 3.5-.1 5 .9.8.5 1.1 1.4 1.2 2.3h-1.6c-.1-.7-.4-1.5-1.2-1.9-1.4-.6-2.9-.5-4.3-.4-.9.1-2 .6-2 1.6-.1.7.6 1.3 1.3 1.4 1.9.5 3.9.4 5.8.9.9.2 1.8.5 2.3 1.4.6 1.1.3 2.7-.9 3.3-1.4.8-3.1.9-4.6.9-1.5-.1-3.2-.1-4.5-1-.8-.5-1.1-1.5-1.2-2.4h1.7c0 1.3 1.1 2.2 2.3 2.3 1.7.3 3.6.4 5.2-.4 1.1-.5 1-2.3-.2-2.7-2.3-.6-4.9-.5-7.2-1.4-2-.4-2-2.9-.6-3.9z"/><path d="M59.8 30.2c1.6-.4 3.3-.4 5 .1.9.3 1.5 1 2.3 1.6 0-.5.1-1.1.1-1.6h1.5c.1 3.1 0 6.1.1 9.2.1 1.3-.2 2.6-1.2 3.6-1.4 1.2-3.2 1.4-4.9 1.4-1.5 0-3.1-.1-4.4-.8-.9-.5-1.4-1.5-1.6-2.5h1.5c.4.6.6 1.4 1.3 1.8 1.1.5 2.3.5 3.4.5 1.4-.1 2.8-.3 3.6-1.4.8-1.1.6-2.4.6-3.7-1.6 1.6-4.1 1.9-6.3 1.6-1.4-.1-2.8-.6-3.7-1.7-1.1-1.4-1.1-3.3-.8-4.9.3-1.7 1.8-3 3.5-3.2zm1.3.9c-1.1.2-2.3.7-2.9 1.7-.7 1.2-.7 2.7-.3 4 .5 1.4 1.9 2 3.3 2.2 1.7.3 3.6 0 4.9-1.4 1.4-1.6 1.2-4.5-.6-5.8-1.2-.8-3-.9-4.4-.7z"/><path d="M73.4 30.3c1.1-.5 2.3-.4 3.6-.4v1.3c-1.3 0-2.6-.2-3.7.6-1.1.7-1.4 2.1-1.4 3.3v5.2h-1.5c-.1-3.3-.1-6.7 0-9.9h1.5v1.7c.4-.8.8-1.5 1.5-1.8z"/><path d="M77.6 32.3c1.1-1.6 3.2-2.3 5-2.4 1.9-.1 4.2.2 5.6 1.6 1.1 1 1.4 2.5 1.4 3.9-3.7.1-7.4 0-11.1 0 .1 1 .4 2.1 1.2 2.7 1.4 1.4 3.6 1.4 5.4 1.1 1.2-.3 2.2-1.2 2.6-2.3h1.7c-.5 1.6-2 2.9-3.6 3.3-2.3.5-4.9.5-6.9-.9-2.3-1.5-2.6-4.8-1.3-7zm2.8-.8c-1.1.6-1.6 1.9-1.9 3H88c-.1-.7-.4-1.4-.8-2-1.7-1.9-4.7-2.1-6.8-1z"/><path d="M77.1 53c4.4-1.2 9.1-1.6 13.6-.8 4.2.7 8 2.6 11 5.6 1.4 1.4 2.6 2.8 3.2 4.6.9 3.2.5 6.6 0 9.8-1.4 7.7-4.4 15.1-8.4 21.9 1.7 0 3.4-.5 5.2-.6 1.7-.1 3.5.9 3.9 2.6.5 1.9-.6 3.6-2 4.8-3.4 3.1-8.2 4.2-12.7 3.9-.3 4.6-.4 9.5-2.3 13.8-.9 1.9-2.3 3.6-4.1 4.8-1.7 1.1-3.8 1.6-5.8 2-2.2.4-4.6.2-6.4-1.1-1.7-1.1-2.9-3-3.4-4.9-1.5-4-1.4-8.4-1.6-12.7-3.1 1.3-6.5 1.2-9.7.1-1.1-.4-2.1-1.1-2.9-1.9-1.6 1.4-3.8 2-5.9 1.4-2.6-.7-4.4-2.9-5.9-5.1-2.3-3.9-3.9-8.3-5.2-12.7-1.4-5.1-2.7-10.2-3.3-15.5-.4-4.6.1-9.7 2.5-13.6 2-3.3 5.6-5.6 9.4-6.3 5.4-1.1 10.9-.1 16.1 1.6 1.6-.7 3.3-1.6 5.2-1.9 3.2-.5 6.3-.2 9.5.2zm0 2.1c-.4.1-.8-.1-1.2-.1-4.4-.9-9.2-.5-13 2-4.6-1.6-9.5-2.6-14.4-2.2-3.6.4-7.2 2.1-9.3 5.2-2.6 3.9-3 8.8-2.6 13.3.9 6 2.3 11.9 4.2 17.6 1.2 3.6 2.6 7.1 4.7 10.3 1.1 1.5 2.6 3.1 4.5 3.3 1.7.2 3.3-.9 4.4-2.2 1.9-2.3 3.8-4.4 5.8-6.5 1.4.6 2.7 1 4.2 1.1-.8.9-1.4 2.2-2.6 2.5-1.6.6-3.6.5-5.2 1.6-.9.6-.9 1.9-.1 2.6 1.4 1.4 3.3 1.6 5.2 1.8 2.6.2 5.2-.6 7.2-2.3 0 4.2 0 8.3.5 12.4.2 2.3 1.3 4.8 3.2 6.4 1.7 1.5 4.2 1.8 6.4 1.4 2.2-.4 4.4-1.1 6.1-2.5 1.8-1.6 2.5-4 2.9-6.2.6-4.2 1.1-8.2 1.6-12.3 4.6.8 9.9-.1 13.2-3.4.7-.6 1.4-1.9.7-2.9-.7-.9-2-.6-3-.4-2.3.4-4.9.9-7.2-.1 4.2-6.4 7.3-13.5 9.1-21 .6-2.9 1.1-5.7 1.1-8.7-.1-1.6-.4-3.3-1.3-4.7-2.4-3.3-6.1-5.6-9.9-6.7-5.2-1.2-10.4-.7-15.2.7z"/></svg>