<svg xmlns="http://www.w3.org/2000/svg" role="img" viewBox="-7.97 34.03 414.18 216.93"><title>qclib logo</title><style>svg {enable-background:new 0 0 400 245}</style><style id="style2" type="text/css">.st0{fill:#4c83c3}</style><g id="g130"><path id="polygon4" fill="#4c83c3" d="m 336.1,42.1 h 62.2 V 53.5 H 332 Z" class="st0"/><path id="path6" d="m 221.5,42.1 h 61.6 l 4,11.5 c 0,0 -65.6,0 -65.6,0 0.1,-0.1 0,-11.5 0,-11.5 z" class="st0"/><path id="path8" d="m 172.7,42.1 c 10.1,1 19,4.6 26.5,11.5 0,0 -111.6,0 -111.6,0 0,0 0,-11.5 0,-11.5 z" class="st0"/><g id="g14"><path id="rect10" fill="#4c83c3" d="m 0,42.099998 h 77.5 v 11.4 H 0 Z" class="st0"/></g><path id="path16" d="m 398.3,75 h -73.9 c 0,0 4,-11.4 4,-11.4 h 69.9 z" class="st0"/><path id="polygon18" fill="#4c83c3" d="m 221.5,63.6 h 69.2 l 4.1,11.4 h -73.3 z" class="st0"/><path id="path20" d="m 207.8,63.6 c 1.5,3.8 3.2,7 3.2,11.4 H 87.6 V 63.6 Z" class="st0"/><g id="g26"><path id="rect22" fill="#4c83c3" d="m 0,63.599998 h 77.5 v 11.4 H 0 Z" class="st0"/></g><path id="polygon28" fill="#4c83c3" d="m 376.4,85.1 v 11.4 h -59.6 l 4.1,-11.4 z" class="st0"/><path id="polygon30" fill="#4c83c3" d="M 243.4,96.5 V 85.1 h 54.9 l 4.1,11.4 z" class="st0"/><path id="path32" d="m 212,85 c 0,3.9 -0.5,8 -1.6,11.4 H 176.6 V 85 Z" class="st0"/><g id="g38"><path id="rect34" fill="#4c83c3" d="m 21.6,85.099998 h 33.3 v 11.4 H 21.6 Z" class="st0"/></g><g id="g44"><path id="rect40" fill="#4c83c3" d="m 110,85 h 33.3 V 96.4 H 110 Z" class="st0"/></g><path id="path46" d="m 276.1,108.8 c 0,0 0,8.7 0,8.7 h -32.8 v -11.4 h 62.4 l 3.9,10.6 c 0,0 3.7,-10.6 3.7,-10.6 h 62.9 v 11.4 h -32.6 c 0,0 0,-8.7 0,-8.7 l -3,8.7 H 279 Z" class="st0"/><path id="path48" d="m 110,106.1 h 95.5 v 0 c -2.1,3.8 -5.9,8.4 -9.5,11.4 0,0 -86,0 -86,0 0,0 0,-11.4 0,-11.4 z" class="st0"/><g id="g54"><path id="rect50" fill="#4c83c3" d="m 21.6,106.1 h 33.3 v 11.4 H 21.6 Z" class="st0"/></g><g id="g60"><path id="rect56" fill="#4c83c3" d="m 343.79999,127.6 h 32.6 V 139 h -32.6 z" class="st0"/></g><path id="path62" d="M 276.1,127.6 H 243.3 V 139 c 0,0 32.8,0 32.8,0 0,-0.1 0.1,-11.4 0,-11.4 z" class="st0"/><path id="path64" d="m 337.2,127.6 c -0.1,0 -3.8,11.4 -4,11.4 h -46.4 c 0,0 -4.1,-11.4 -4.1,-11.4 z" class="st0"/><path id="path66" d="m 110,127.6 h 85.8 c 3.9,3.3 7.5,7.3 10.2,11.4 0.2,0 -96.1,0 -96.1,0 0.1,-0.1 0.1,-11.4 0.1,-11.4 z" class="st0"/><path id="path68" d="M 54.9,138.9 V 127.5 H 21.7 c 0,0 0,11.4 0,11.4 0,0 33.2,0 33.2,0 z" class="st0"/><g id="g74"><path id="rect70" fill="#4c83c3" d="m 343.79999,149 h 32.6 v 11.4 h -32.6 z" class="st0"/></g><g id="g80"><path id="rect76" fill="#4c83c3" d="m 243.39999,149 h 32.8 v 11.4 h -32.8 z" class="st0"/></g><path id="path82" d="m 325.6,160.4 c 0,-0.1 4,-11.4 4.1,-11.4 h -39.5 c -0.1,0 4,11.4 4,11.4 0,0 31.4,0.1 31.4,0 z" class="st0"/><path id="path84" d="m 110,160.4 c 0,0 0,-11.4 0,-11.4 h 33.8 c 0,0 0,11.4 0,11.4 -0.1,0 -33.8,0 -33.8,0 z" class="st0"/><path id="path86" d="m 210.8,149 c 1.6,3.4 1.8,7.5 2.1,11.4 H 177.1 V 149 Z" class="st0"/><g id="g92"><path id="rect88" fill="#4c83c3" d="M 21.700001,149 H 55 v 11.4 H 21.700001 Z" class="st0"/></g><g id="g98"><path id="rect94" fill="#4c83c3" d="m 343.79999,170 h 54.5 v 11.4 h -54.5 z" class="st0"/></g><g id="g104"><path id="rect100" fill="#4c83c3" d="m 221.5,170 h 54.6 v 11.4 h -54.6 z" class="st0"/></g><path id="polygon106" fill="#4c83c3" d="m 297.6,170 h 24.5 l -3.9,11.4 h -16.6 z" class="st0"/><path id="path108" d="m 0,170 v 11.4 h 77.5 c 0,0 0,-11.4 0,-11.4 0,0 -77.6,0 -77.5,0 z" class="st0"/><path id="path110" d="m 211.5,170 c -0.8,3.8 -1.6,8.3 -4.3,11.4 h -1 H 87.6 V 170 Z" class="st0"/><path id="polygon112" fill="#4c83c3" d="m 305.3,191.5 h 9.4 l -4,11.4 h -1.5 z" class="st0"/><g id="g118"><path id="rect114" fill="#4c83c3" d="m 343.79999,191.5 h 54.5 v 11.4 h -54.5 z" class="st0"/></g><path id="path120" d="m 87.6,202.9 v -11.4 c 0,0 111.9,0 112.2,0 -7.5,7.2 -17.8,11.2 -28.9,11.4 H 87.6" class="st0"/><g id="g126"><path id="rect122" fill="#4c83c3" d="m 221.5,191.5 h 54.6 v 11.4 h -54.6 z" class="st0"/></g><path id="path128" d="m 77.5,191.5 c 0,0 0,11.4 0,11.4 0,0 -77.4,0 -77.5,0 0,0 0,-11.4 0,-11.4 0,0 77.4,0.1 77.5,0 z" class="st0"/></g><g id="text132" text-anchor="middle"><path id="path158" d="m 189.97656,243.21875 h -1.46875 v -4.20313 q -0.67969,0.58594 -1.35156,0.875 -0.67188,0.28125 -1.45313,0.28125 -1.55468,0 -2.48437,-1.19531 -0.92188,-1.20312 -0.92188,-3.3125 0,-1.125 0.32032,-1.98437 0.32812,-0.86719 0.85937,-1.45313 0.51563,-0.57031 1.21094,-0.88281 0.69531,-0.3125 1.46875,-0.3125 0.70312,0 1.24219,0.15625 0.54687,0.15625 1.10937,0.46094 l 0.0937,-0.375 h 1.375 z m -1.46875,-5.4375 v -4.9375 q -0.60937,-0.27344 -1.07812,-0.38281 -0.46875,-0.10938 -1.01563,-0.10938 -1.27344,0 -1.9375,0.86719 -0.66406,0.85937 -0.66406,2.375 0,1.53125 0.53125,2.35937 0.53906,0.82032 1.6875,0.82032 0.64062,0 1.28125,-0.27344 0.64062,-0.28125 1.19531,-0.71875 z"/><path id="path160" d="m 199.32031,239.45312 q -0.73437,0.35157 -1.39844,0.54688 -0.65625,0.19531 -1.39843,0.19531 -0.94532,0 -1.73438,-0.27344 -0.78906,-0.28125 -1.35156,-0.84375 -0.57031,-0.5625 -0.88281,-1.42187 -0.3125,-0.85938 -0.3125,-2.00781 0,-2.14063 1.17187,-3.35938 1.17969,-1.21875 3.10938,-1.21875 0.75,0 1.46875,0.21094 0.72656,0.21094 1.32812,0.51562 v 1.63282 h -0.0781 q -0.67188,-0.52344 -1.39063,-0.80469 -0.71094,-0.28125 -1.39062,-0.28125 -1.25,0 -1.97657,0.84375 -0.71875,0.83594 -0.71875,2.46094 0,1.57812 0.70313,2.42968 0.71094,0.84375 1.99219,0.84375 0.44531,0 0.90625,-0.11718 0.46093,-0.11719 0.82812,-0.30469 0.32031,-0.16406 0.60156,-0.34375 0.28125,-0.1875 0.44532,-0.32031 h 0.0781 z"/><path id="path162" d="m 202.69531,240 h -1.46875 v -12.15625 h 1.46875 z"/><path id="path164" d="m 207.19531,229.8125 h -1.65625 v -1.52344 h 1.65625 z M 207.10156,240 h -1.46875 v -8.72656 h 1.46875 z"/><path id="path166" d="m 217.70312,235.57031 q 0,1.09375 -0.3125,1.96875 -0.30468,0.875 -0.82812,1.46875 -0.55469,0.61719 -1.21875,0.92969 -0.66406,0.30469 -1.46094,0.30469 -0.74219,0 -1.29687,-0.17969 -0.55469,-0.17188 -1.09375,-0.46875 L 211.39844,240 h -1.375 v -12.15625 h 1.46875 v 4.34375 q 0.61718,-0.50781 1.3125,-0.82813 0.69531,-0.32812 1.5625,-0.32812 1.54687,0 2.4375,1.1875 0.89843,1.1875 0.89843,3.35156 z m -1.51562,0.0391 q 0,-1.5625 -0.51563,-2.36718 -0.51562,-0.8125 -1.66406,-0.8125 -0.64062,0 -1.29687,0.28125 -0.65625,0.27343 -1.21875,0.71093 v 5 q 0.625,0.28125 1.07031,0.39063 0.45312,0.10937 1.02344,0.10937 1.21875,0 1.90625,-0.79687 0.69531,-0.80469 0.69531,-2.51563 z"/></g></svg>