<svg xmlns="http://www.w3.org/2000/svg" role="img" viewBox="-6.95 -5.20 413.66 247.91"><title>Rocket™ BlueZone (App Framework 2019) logo</title><style>svg {enable-background:new 0 0 400 245}</style><style id="style2" type="text/css"/><g id="g12"><path id="path4" d="M96.2 30.6l-6.1-.9v-3.6h28c14.5 0 30.7 3 30.7 20.5 0 9.5-8.9 16.3-17.5 17.8l18.2 34.4 6.1.9v3.6h-18.7l-19.7-38.2h-7.5v33.7l6.1.9v3.6H90.1v-3.6l6.1-.9zm13.4 30.9h5c14.3 0 19.7-5.5 19.7-16.1 0-11.6-8.2-15.8-17.5-15.8-2.1 0-4.7.3-7.2.6zm46.7 15.2c0-14.8 9.5-28 23.6-28 14.2 0 23.6 13.1 23.6 28 0 12.6-9.1 27.8-23.6 27.8-14.5.1-23.6-11.7-23.6-27.8zm34.8 0c0-15.8-3.1-24-11.1-24s-11.1 8.1-11.1 24c0 14.8 2.3 24 11.1 24 8.7 0 11.1-14.3 11.1-24zm59.3 17.8c-6 6.8-11.9 10.1-17.9 10.1-14.3 0-23.2-10.8-23.2-25.4 0-17.3 10.5-30.4 25.7-30.4 5 0 12.4 2 12.4 8.9 0 3.1-3 5.4-6.1 5.4-8.1 0-5.8-10.5-9.2-10.5-6.1 0-11.9 6.4-11.9 20.9 0 9.9 6 22.7 17.2 22.7 4.1 0 7-1.6 9.9-4.3zm32.5 8.5v-3l6.1-1.1-13.2-23.2-5.1 8.1v15.1l5.3 1.1v3h-22.3v-3l6.1-1.1V33.4c0-3.7-2.1-4.7-6.1-4.7v-3l17-6.5V76h.3l6.1-9.5C282.5 58 290 49 295.8 49c3.1 0 6.2 2.6 6.2 6.1 0 5.1-4.1 7-6.7 7-2.7 0-4.7-2.4-6.5-2.4-2.1 0-5.4 5.1-6.2 6.7L300.9 99l5.3 1.1v3h-23.3zm34.8-25.1c.3 8.8 5.1 18.5 15.3 18.5 6.7 0 8.5-3.3 12.1-7.2l3 2.3c-5.4 7.8-10.9 13.2-21.2 13.2-12.9 0-20.2-12.5-20.2-25.6 0-13.8 7.1-30.3 22.2-30.3 11.6 0 19 10.4 19.2 20.9zm11.6-8c4.4-1.1 6.1-3.6 6.1-8.8 0-5.5-3.3-8.5-8.2-8.5-7.5 0-10.5 9.5-10.5 20.6zm22.8-14.6v-5h6.1v-15l10.9-6.2v21.4h12.4v5h-12.4v36.9c0 3.6 2.7 5.1 5.8 5.1 2.8 0 5.3-1.7 7.8-3.7l1.7 3c-3.3 3.8-8.9 7.8-14.3 7.8-9.7 0-11.9-7.4-11.9-12.4V55.3h-6.1z"/><path id="path6" d="M398.9 100.4c0 2.4-2 4.4-4.5 4.4-2.6 0-4.5-2-4.5-4.4 0-2.4 2-4.4 4.5-4.4s4.5 2 4.5 4.4zm-7.8 0c0 2 1.4 3.6 3.4 3.6 1.8 0 3.3-1.6 3.3-3.4 0-2-1.4-3.6-3.4-3.6-1.9-.1-3.3 1.5-3.3 3.4zm2.7 2.3h-1v-4.4c.4 0 1-.1 1.7-.1.9 0 1.1.1 1.6.3.3.1.4.6.4 1 0 .6-.4.9-.9 1 .4.1.7.4.7 1.1.1.7.3.9.3 1.1h-1.1c-.1-.1-.1-.6-.3-1.1-.1-.4-.3-.7-.9-.7h-.3v1.8zm0-2.5h.4c.6 0 1-.1 1-.7 0-.4-.3-.7-1-.7h-.6v1.4z"/><path id="path8" fill="#000f9f" d="M42.1 19.3l3.7-16.5-8.7 14.5h.4c1.9-.1 3.5.8 4.6 2z"/><path id="path10" d="M79.2 89.1V26.3H40.4L32 63.4 14.1 55l17.3-28.7H1.1v76.8h78.3v-14z"/></g><g id="g16"><g id="text14" transform="translate(41.551 234.258)"><path id="path25" d="M16.86621-12.98828q1.20606.4082 2.3379 1.74414 1.15038 1.33594 2.30077 3.67383L25.3086 0h-4.02636l-3.54395-7.10645q-1.37305-2.7832-2.67187-3.69238-1.28028-.90918-3.50684-.90918H7.47754V0H3.72949v-27.70215h8.46094q4.75 0 7.08789 1.98535 2.3379 1.98535 2.3379 5.99317 0 2.6162-1.22462 4.3418-1.20605 1.72558-3.52539 2.39355zM7.47754-24.62207v9.83398h4.71289q2.70898 0 4.08203-1.24316 1.3916-1.26172 1.3916-3.69238 0-2.43067-1.3916-3.65528-1.37305-1.24316-4.08203-1.24316z"/><path id="path27" d="M36.34863-18.3877q-2.7461 0-4.3418 2.15235-1.5957 2.13379-1.5957 5.86328 0 3.7295 1.57715 5.88184 1.5957 2.13378 4.36035 2.13378 2.72754 0 4.32324-2.15234 1.5957-2.15234 1.5957-5.86328 0-3.69238-1.5957-5.84473-1.5957-2.1709-4.32324-2.1709zm0-2.89453q4.45313 0 6.99512 2.89453 2.542 2.89454 2.542 8.01563 0 5.10254-2.542 8.01562Q40.80175.5381 36.34863.5381q-4.47168 0-7.01367-2.89454-2.52344-2.91308-2.52344-8.01562 0-5.1211 2.52344-8.01563 2.542-2.89453 7.01367-2.89453z"/><path id="path29" d="M66.48144-19.9834v3.1914q-1.44726-.79784-2.91308-1.1875-1.44727-.4082-2.93164-.4082-3.32129 0-5.1582 2.11524-1.83692 2.09668-1.83692 5.90039 0 3.80371 1.83692 5.91894 1.83691 2.09668 5.1582 2.09668 1.48437 0 2.93164-.38964 1.46582-.4082 2.91308-1.20606v3.1543Q65.05274-.12988 63.5127.2041 61.99121.5381 60.26562.5381q-4.69433 0-7.45898-2.9502Q50.042-5.3623 50.042-10.37207q0-5.08399 2.7832-7.99707 2.80176-2.91309 7.6631-2.91309 1.57714 0 3.08007.33399 1.50293.31543 2.91308.96484z"/><path id="path31" d="M72.32617-28.8711h3.43262v17.05176l10.18652-8.96191h4.36035l-11.02148 9.72266L90.76953 0h-4.45312L75.75879-10.14941V0h-3.43262z"/><path id="path33" d="M110.93848-11.24414v1.66992H95.24121q.22266 3.5254 2.11524 5.38086 1.91113 1.83691 5.30664 1.83691 1.96679 0 3.80371-.48242 1.85547-.48242 3.67383-1.44726v3.22851q-1.83692.7793-3.76661 1.1875-1.92968.4082-3.91504.4082-4.97265 0-7.88574-2.89453-2.89453-2.89453-2.89453-7.83007 0-5.10254 2.7461-8.08985 2.76464-3.00586 7.44042-3.00586 4.19336 0 6.62403 2.70899 2.44922 2.69043 2.44922 7.3291zm-3.41407-1.00195q-.0371-2.80176-1.57714-4.47168-1.52149-1.66992-4.04493-1.66992-2.85742 0-4.583 1.61425-1.70703 1.61426-1.9668 4.5459z"/><path id="path35" d="M119.91895-26.68164v5.90039h7.03222v2.65332h-7.03222v11.28125q0 2.542.68652 3.26563.70508.72363 2.83887.72363h3.50683V0h-3.50683q-3.95215 0-5.45508-1.46582-1.50293-1.48438-1.50293-5.38086v-11.28125h-2.50488v-2.65332h2.50488v-5.9004z"/><path id="path37" d="M148.25195-27.70215l3.22852 4.75 3.04297-4.75h3.15429v10.72461h-2.09668V-25.958l-3.61816 5.62207h-1.02051l-3.7666-5.62207v8.98047h-2.11523v-10.7246zm-5.28808 0v1.74414h-3.7666v8.98047h-2.11524V-25.958h-3.72949v-1.74414z"/><path id="path39" d="M185.4541-13.2295v10.14942h6.01172q3.02441 0 4.47168-1.24316 1.46582-1.26172 1.46582-3.84082 0-2.59766-1.46582-3.82227-1.44727-1.24316-4.47168-1.24316zm0-11.39257v8.3496h5.54785q2.7461 0 4.08203-1.0205 1.3545-1.03906 1.3545-3.1543 0-2.09667-1.3545-3.13574-1.33593-1.03906-4.08203-1.03906zm-3.74805-3.08008h9.57422q4.28614 0 6.60547 1.78125 2.31934 1.78125 2.31934 5.06543 0 2.542-1.1875 4.04492-1.1875 1.50293-3.48828 1.87403 2.76465.59375 4.28613 2.48633 1.54004 1.87402 1.54004 4.69433 0 3.71094-2.52344 5.7334Q196.30859 0 191.65137 0h-9.94532z"/><path id="path41" d="M207.6084-28.8711h3.41406V0h-3.41406z"/><path id="path43" d="M217.79492-8.20117v-12.58008h3.41406v12.4502q0 2.9502 1.15039 4.43457 1.1504 1.46582 3.45118 1.46582 2.76465 0 4.36035-1.7627 1.61426-1.7627 1.61426-4.80566v-11.78223h3.41406V0h-3.41406v-3.1914q-1.24317 1.89257-2.89454 2.8203-1.63281.90919-3.80371.90919-3.58105 0-5.43652-2.22657-1.85547-2.22656-1.85547-6.5127zm8.59082-13.08106z"/><path id="path45" d="M260.04395-11.24414v1.66992h-15.69727q.22266 3.5254 2.11523 5.38086 1.91114 1.83691 5.30664 1.83691 1.9668 0 3.80372-.48242 1.85546-.48242 3.67382-1.44726v3.22851q-1.83691.7793-3.7666 1.1875t-3.91504.4082q-4.97265 0-7.88574-2.89453-2.89453-2.89453-2.89453-7.83007 0-5.10254 2.74609-8.08985 2.76465-3.00586 7.44043-3.00586 4.19336 0 6.62403 2.70899 2.44922 2.69043 2.44922 7.3291zm-3.41407-1.00195q-.0371-2.80176-1.57715-4.47168-1.52148-1.66992-4.04492-1.66992-2.85742 0-4.58301 1.61425-1.70703 1.61426-1.96679 4.5459z"/><path id="path47" d="M264.2002-27.70215h21.76464v2.85742L268.44922-3.1543h17.94238V0h-22.61816v-2.85742l17.51562-21.69043H264.2002z"/><path id="path49" d="M299.75098-18.3877q-2.7461 0-4.3418 2.15235-1.5957 2.13379-1.5957 5.86328 0 3.7295 1.57714 5.88184 1.59571 2.13378 4.36036 2.13378 2.72754 0 4.32324-2.15234 1.5957-2.15234 1.5957-5.86328 0-3.69238-1.5957-5.84473-1.5957-2.1709-4.32324-2.1709zm0-2.89453q4.45312 0 6.99511 2.89453 2.542 2.89454 2.542 8.01563 0 5.10254-2.542 8.01562Q304.2041.5381 299.75098.5381q-4.47168 0-7.01368-2.89454-2.52343-2.91308-2.52343-8.01562 0-5.1211 2.52343-8.01563 2.542-2.89453 7.01368-2.89453z"/><path id="path51" d="M332.20312-12.54297V0h-3.41406v-12.43164q0-2.9502-1.15039-4.41602-1.15039-1.46582-3.45117-1.46582-2.76465 0-4.36035 1.7627-1.5957 1.7627-1.5957 4.80566V0h-3.43262v-20.78125h3.43262v3.22852q1.2246-1.87403 2.87597-2.80176 1.66992-.92774 3.84082-.92774 3.58106 0 5.41797 2.22657 1.83691 2.208 1.83691 6.5127z"/><path id="path53" d="M356.8252-11.24414v1.66992h-15.69727q.22266 3.5254 2.11523 5.38086 1.91114 1.83691 5.30664 1.83691 1.9668 0 3.80372-.48242 1.85546-.48242 3.67382-1.44726v3.22851q-1.83691.7793-3.7666 1.1875t-3.91504.4082q-4.97265 0-7.88574-2.89453-2.89453-2.89453-2.89453-7.83007 0-5.10254 2.74609-8.08985 2.76465-3.00586 7.44043-3.00586 4.19336 0 6.62403 2.70899 2.44922 2.69043 2.44922 7.3291zm-3.41407-1.00195q-.0371-2.80176-1.57715-4.47168-1.52148-1.66992-4.04492-1.66992-2.85742 0-4.58301 1.61425-1.70703 1.61426-1.96679 4.5459z"/></g></g></svg>