<svg xmlns="http://www.w3.org/2000/svg" role="img" viewBox="-6.95 -5.20 413.66 247.91"><title>Rocket™ BlueZone logo</title><style>svg {enable-background:new 0 0 400 245}</style><style id="style2" type="text/css"/><g id="g12"><path id="path4" d="M96.2 30.6l-6.1-.9v-3.6h28c14.5 0 30.7 3 30.7 20.5 0 9.5-8.9 16.3-17.5 17.8l18.2 34.4 6.1.9v3.6h-18.7l-19.7-38.2h-7.5v33.7l6.1.9v3.6H90.1v-3.6l6.1-.9zm13.4 30.9h5c14.3 0 19.7-5.5 19.7-16.1 0-11.6-8.2-15.8-17.5-15.8-2.1 0-4.7.3-7.2.6zm46.7 15.2c0-14.8 9.5-28 23.6-28 14.2 0 23.6 13.1 23.6 28 0 12.6-9.1 27.8-23.6 27.8-14.5.1-23.6-11.7-23.6-27.8zm34.8 0c0-15.8-3.1-24-11.1-24s-11.1 8.1-11.1 24c0 14.8 2.3 24 11.1 24 8.7 0 11.1-14.3 11.1-24zm59.3 17.8c-6 6.8-11.9 10.1-17.9 10.1-14.3 0-23.2-10.8-23.2-25.4 0-17.3 10.5-30.4 25.7-30.4 5 0 12.4 2 12.4 8.9 0 3.1-3 5.4-6.1 5.4-8.1 0-5.8-10.5-9.2-10.5-6.1 0-11.9 6.4-11.9 20.9 0 9.9 6 22.7 17.2 22.7 4.1 0 7-1.6 9.9-4.3zm32.5 8.5v-3l6.1-1.1-13.2-23.2-5.1 8.1v15.1l5.3 1.1v3h-22.3v-3l6.1-1.1V33.4c0-3.7-2.1-4.7-6.1-4.7v-3l17-6.5V76h.3l6.1-9.5C282.5 58 290 49 295.8 49c3.1 0 6.2 2.6 6.2 6.1 0 5.1-4.1 7-6.7 7-2.7 0-4.7-2.4-6.5-2.4-2.1 0-5.4 5.1-6.2 6.7L300.9 99l5.3 1.1v3h-23.3zm34.8-25.1c.3 8.8 5.1 18.5 15.3 18.5 6.7 0 8.5-3.3 12.1-7.2l3 2.3c-5.4 7.8-10.9 13.2-21.2 13.2-12.9 0-20.2-12.5-20.2-25.6 0-13.8 7.1-30.3 22.2-30.3 11.6 0 19 10.4 19.2 20.9zm11.6-8c4.4-1.1 6.1-3.6 6.1-8.8 0-5.5-3.3-8.5-8.2-8.5-7.5 0-10.5 9.5-10.5 20.6zm22.8-14.6v-5h6.1v-15l10.9-6.2v21.4h12.4v5h-12.4v36.9c0 3.6 2.7 5.1 5.8 5.1 2.8 0 5.3-1.7 7.8-3.7l1.7 3c-3.3 3.8-8.9 7.8-14.3 7.8-9.7 0-11.9-7.4-11.9-12.4V55.3h-6.1z"/><path id="path6" d="M398.9 100.4c0 2.4-2 4.4-4.5 4.4-2.6 0-4.5-2-4.5-4.4 0-2.4 2-4.4 4.5-4.4s4.5 2 4.5 4.4zm-7.8 0c0 2 1.4 3.6 3.4 3.6 1.8 0 3.3-1.6 3.3-3.4 0-2-1.4-3.6-3.4-3.6-1.9-.1-3.3 1.5-3.3 3.4zm2.7 2.3h-1v-4.4c.4 0 1-.1 1.7-.1.9 0 1.1.1 1.6.3.3.1.4.6.4 1 0 .6-.4.9-.9 1 .4.1.7.4.7 1.1.1.7.3.9.3 1.1h-1.1c-.1-.1-.1-.6-.3-1.1-.1-.4-.3-.7-.9-.7h-.3v1.8zm0-2.5h.4c.6 0 1-.1 1-.7 0-.4-.3-.7-1-.7h-.6v1.4z"/><path id="path8" fill="#000f9f" d="M42.1 19.3l3.7-16.5-8.7 14.5h.4c1.9-.1 3.5.8 4.6 2z"/><path id="path10" d="M79.2 89.1V26.3H40.4L32 63.4 14.1 55l17.3-28.7H1.1v76.8h78.3v-14z"/></g><g id="g16"><g id="text14" transform="translate(41.551 234.258)"><path id="path25" d="M16.866-12.988q1.206.408 2.338 1.744 1.15 1.336 2.3 3.674L25.31 0h-4.027l-3.544-7.106Q16.365-9.89 15.066-10.8q-1.28-.909-3.506-.909H7.478V0H3.729v-27.702h8.461q4.75 0 7.088 1.985 2.338 1.986 2.338 5.993 0 2.617-1.224 4.342-1.206 1.726-3.526 2.394zM7.478-24.622v9.834h4.712q2.71 0 4.082-1.243 1.392-1.262 1.392-3.693 0-2.43-1.392-3.655-1.373-1.243-4.082-1.243z"/><path id="path27" d="M36.349-18.388q-2.746 0-4.342 2.153-1.596 2.133-1.596 5.863 0 3.73 1.577 5.882 1.596 2.134 4.36 2.134 2.728 0 4.324-2.153 1.596-2.152 1.596-5.863 0-3.692-1.596-5.845-1.596-2.17-4.323-2.17zm0-2.894q4.453 0 6.995 2.894 2.542 2.895 2.542 8.016 0 5.102-2.542 8.016Q40.802.538 36.349.538q-4.472 0-7.014-2.894-2.523-2.914-2.523-8.016 0-5.121 2.523-8.016 2.542-2.894 7.014-2.894z"/><path id="path29" d="M66.481-19.983v3.191q-1.447-.798-2.913-1.187-1.447-.409-2.931-.409-3.322 0-5.158 2.116-1.837 2.096-1.837 5.9 0 3.804 1.837 5.919 1.836 2.097 5.158 2.097 1.484 0 2.931-.39 1.466-.408 2.913-1.206v3.154Q65.053-.13 63.513.204q-1.522.334-3.247.334-4.695 0-7.46-2.95-2.764-2.95-2.764-7.96 0-5.084 2.783-7.997 2.802-2.913 7.663-2.913 1.577 0 3.08.334 1.503.315 2.913.965z"/><path id="path31" d="M72.326-28.871h3.433v17.052l10.186-8.962h4.36l-11.02 9.722L90.77 0h-4.454L75.76-10.15V0h-3.433z"/><path id="path33" d="M110.938-11.244v1.67H95.241q.223 3.525 2.115 5.38 1.912 1.838 5.307 1.838 1.967 0 3.804-.483 1.855-.482 3.674-1.447v3.228q-1.837.78-3.767 1.188-1.93.408-3.915.408-4.973 0-7.886-2.894-2.894-2.895-2.894-7.83 0-5.103 2.746-8.09 2.764-3.006 7.44-3.006 4.194 0 6.624 2.709 2.45 2.69 2.45 7.329zm-3.414-1.002q-.037-2.802-1.577-4.472-1.521-1.67-4.045-1.67-2.857 0-4.583 1.615-1.707 1.614-1.966 4.545z"/><path id="path35" d="M119.919-26.682v5.9h7.032v2.654h-7.032v11.281q0 2.542.686 3.266.706.724 2.84.724h3.506V0h-3.507q-3.952 0-5.455-1.466-1.503-1.484-1.503-5.38v-11.282h-2.505v-2.653h2.505v-5.9z"/><path id="path37" d="M148.252-27.702l3.228 4.75 3.043-4.75h3.155v10.724h-2.097v-8.98l-3.618 5.622h-1.02l-3.767-5.622v8.98h-2.115v-10.724zm-5.288 0v1.744h-3.767v8.98h-2.115v-8.98h-3.73v-1.744z"/><path id="path39" d="M185.454-13.23v10.15h6.012q3.024 0 4.471-1.243 1.466-1.262 1.466-3.841 0-2.598-1.465-3.822-1.448-1.243-4.472-1.243zm0-11.392v8.35h5.548q2.746 0 4.082-1.021 1.354-1.039 1.354-3.154 0-2.097-1.354-3.136-1.336-1.04-4.082-1.04zm-3.748-3.08h9.574q4.286 0 6.606 1.781 2.32 1.781 2.32 5.066 0 2.542-1.188 4.044-1.188 1.503-3.489 1.874 2.765.594 4.286 2.487 1.54 1.874 1.54 4.694 0 3.711-2.523 5.734Q196.309 0 191.652 0h-9.946z"/><path id="path41" d="M207.608-28.871h3.414V0h-3.414z"/><path id="path43" d="M217.795-8.201v-12.58h3.414v12.45q0 2.95 1.15 4.435 1.15 1.465 3.452 1.465 2.764 0 4.36-1.762 1.614-1.763 1.614-4.806v-11.782h3.414V0h-3.414v-3.191q-1.243 1.892-2.894 2.82-1.633.91-3.804.91-3.581 0-5.437-2.227-1.855-2.227-1.855-6.513zm8.59-13.081z"/><path id="path45" d="M260.044-11.244v1.67h-15.697q.222 3.525 2.115 5.38 1.911 1.838 5.307 1.838 1.966 0 3.803-.483 1.856-.482 3.674-1.447v3.228q-1.837.78-3.767 1.188-1.93.408-3.915.408-4.972 0-7.885-2.894-2.895-2.895-2.895-7.83 0-5.103 2.746-8.09 2.765-3.006 7.44-3.006 4.194 0 6.625 2.709 2.449 2.69 2.449 7.329zm-3.414-1.002q-.037-2.802-1.577-4.472-1.522-1.67-4.045-1.67-2.858 0-4.583 1.615-1.707 1.614-1.967 4.545z"/><path id="path47" d="M264.2-27.702h21.765v2.857l-17.516 21.69h17.943V0h-22.619v-2.857l17.516-21.69H264.2z"/><path id="path49" d="M299.751-18.388q-2.746 0-4.342 2.153-1.596 2.133-1.596 5.863 0 3.73 1.578 5.882 1.595 2.134 4.36 2.134 2.728 0 4.323-2.153 1.596-2.152 1.596-5.863 0-3.692-1.596-5.845-1.595-2.17-4.323-2.17zm0-2.894q4.453 0 6.995 2.894 2.542 2.895 2.542 8.016 0 5.102-2.542 8.016-2.542 2.894-6.995 2.894-4.472 0-7.014-2.894-2.523-2.914-2.523-8.016 0-5.121 2.523-8.016 2.542-2.894 7.014-2.894z"/><path id="path51" d="M332.203-12.543V0h-3.414v-12.432q0-2.95-1.15-4.416-1.15-1.465-3.452-1.465-2.764 0-4.36 1.762-1.596 1.763-1.596 4.806V0H314.8v-20.781h3.432v3.228q1.225-1.874 2.876-2.801 1.67-.928 3.841-.928 3.581 0 5.418 2.226 1.837 2.208 1.837 6.513z"/><path id="path53" d="M356.825-11.244v1.67h-15.697q.223 3.525 2.115 5.38 1.911 1.838 5.307 1.838 1.967 0 3.804-.483 1.855-.482 3.673-1.447v3.228q-1.837.78-3.766 1.188-1.93.408-3.915.408-4.973 0-7.886-2.894-2.895-2.895-2.895-7.83 0-5.103 2.747-8.09 2.764-3.006 7.44-3.006 4.193 0 6.624 2.709 2.45 2.69 2.45 7.329zm-3.414-1.002q-.037-2.802-1.577-4.472-1.522-1.67-4.045-1.67-2.857 0-4.583 1.615-1.707 1.614-1.967 4.545z"/></g></g></svg>