<svg xmlns="http://www.w3.org/2000/svg" role="img" viewBox="-13.99 -13.99 727.48 295.48"><title>Rocket Support for Zowe logo</title><g transform="translate(-.096)"><path d="M285.7 76.8c2.7-1.1 5.1-2.4 7.4-3.9 3.2-2.1 5.9-4.7 8.1-7.5 2.2-2.8 3.9-6.1 5-9.5 1.2-3.5 1.7-7.2 1.7-11.1 0-4.9-.9-9.5-2.5-13.6-1.7-4.2-4.4-7.8-8.1-10.8-3.6-2.9-8.3-5.2-13.8-6.9-5.5-1.6-12.2-2.4-19.8-2.4h-35.5V125h24.2V82.1h6.9c2.1 0 3.2.3 3.7.6.8.4 1.5 1.1 2.2 2.2l23.2 35.3c1 1.6 2.3 2.8 3.8 3.6 1.5.9 3.4 1.3 5.5 1.3h22l-29.6-43.6c-1.4-1.8-2.8-3.4-4.4-4.7zm-33.4-46h11.2c7.1 0 12.4 1.4 15.7 4.1 3.3 2.7 4.8 6.4 4.8 11.4 0 2.5-.4 4.9-1.2 7-.8 2.1-2 3.9-3.7 5.4-1.7 1.5-3.8 2.7-6.4 3.6-2.7.9-5.9 1.4-9.5 1.4h-10.9z"/><path d="M382.6 53.4c-3.5-3.6-7.8-6.5-12.8-8.4-5-2-10.5-3-16.6-3-6 0-11.6 1-16.6 2.9-5 2-9.3 4.8-12.9 8.4-3.5 3.6-6.3 8.1-8.3 13.3-1.9 5.2-2.9 11-2.9 17.3 0 6.4 1 12.3 2.9 17.4 1.9 5.2 4.7 9.7 8.3 13.4 3.6 3.7 7.9 6.6 12.9 8.5 5 2 10.6 2.9 16.6 2.9 6 0 11.6-1 16.6-3 5-2 9.3-4.8 12.8-8.5s6.3-8.2 8.2-13.4c1.9-5.2 2.9-11 2.9-17.4 0-6.3-1-12.2-2.9-17.3-2-5-4.7-9.5-8.2-13.1zm-16.5 48.9c-2.8 3.9-7 5.8-12.9 5.8-6 0-10.3-1.9-13.1-5.8-2.9-4-4.4-10.1-4.4-18.1 0-7.9 1.5-14.1 4.4-18.2 2.8-4 7.1-5.9 13.1-5.9 5.9 0 10.1 1.9 12.9 5.8 2.9 4.1 4.3 10.2 4.3 18.2 0 8.1-1.4 14.2-4.3 18.2z"/><path d="M458.4 101.2c-1.6 0-3 .5-4.3 1.5-.9.7-2 1.5-3.2 2.4-1.1.8-2.6 1.6-4.3 2.2-1.6.6-3.8 1-6.6 1-2.7 0-5.2-.5-7.3-1.5-2.1-1-3.9-2.5-5.4-4.5-1.5-2-2.7-4.6-3.5-7.6-.8-3.1-1.3-6.7-1.3-10.6 0-3.8.4-7.3 1.2-10.3.7-2.9 1.9-5.4 3.4-7.5 1.5-2 3.3-3.5 5.5-4.6 2.2-1.1 4.9-1.6 7.9-1.6 2.4 0 4.4.3 5.9.8 1.6.5 3 1.2 4.2 1.8 1.2.7 2.3 1.4 3.2 1.9 1.2.8 2.5 1.2 3.8 1.2 1.4 0 2.6-.3 3.5-1 .7-.5 1.3-1.2 2-2l5.9-8.2-1.1-1.1c-3.7-3.7-7.8-6.5-12.4-8.5-4.6-2-10-3-16.1-3-6.4 0-12.1 1.1-17 3.2-5 2.1-9.2 5.1-12.5 8.9-3.4 3.8-5.9 8.3-7.7 13.4-1.7 5.1-2.6 10.6-2.6 16.6 0 6.6 1 12.6 2.9 17.8 1.9 5.2 4.6 9.7 7.9 13.3 3.3 3.6 7.3 6.4 11.8 8.3 4.5 1.9 9.3 2.9 14.4 2.9 2.8 0 5.7-.2 8.6-.6 2.9-.4 5.8-1.2 8.5-2.2 2.7-1 5.4-2.4 8-4.2 2.6-1.7 5-3.9 7.2-6.5l1-1.2-6.3-8c-1.3-1.7-3-2.5-5.2-2.5z"/><path d="M523.9 80.9c-.4-.5-.8-.9-1.2-1.4.4-.4.8-.7 1.2-1.1 1-.9 1.9-2 2.8-3.1l26.9-32.1h-21.2c-1.9 0-3.5.4-4.8 1.1-1.1.7-2.2 1.6-3.2 2.8l-19.4 24c-.8 1-1.4 1.4-1.7 1.5-.3.1-.9.3-2.1.3h-1.6V8.2H477v117h22.6V89.4h2.4c1.6 0 2.4.2 2.6.4.2.1.8.5 1.5 1.6L526 121c1 1.5 2.2 2.6 3.5 3.2 1.3.6 2.8 1 4.6 1h20.5l-28.1-40.9c-.9-1.2-1.8-2.3-2.6-3.4z"/><path d="M619.2 88c.9-.4 1.7-1 2.2-1.9.5-.8.8-1.7.9-2.9.1-1 .2-2.3.2-3.8 0-5.8-.9-11.1-2.6-15.7-1.8-4.6-4.3-8.6-7.4-11.8-3.2-3.2-7-5.7-11.4-7.3-4.3-1.6-9.1-2.5-14.3-2.5-6.1 0-11.6 1.1-16.5 3.2s-9 5.1-12.4 8.7c-3.4 3.6-6 8-7.8 12.9-1.8 4.9-2.7 10.2-2.7 15.7 0 7.1 1 13.4 3.1 18.8s4.9 10.1 8.6 13.7c3.6 3.7 8 6.5 12.9 8.4 4.9 1.9 10.2 2.8 15.8 2.8 2.8 0 5.8-.2 8.8-.6 3-.4 6.1-1.2 9-2.2 2.9-1 5.8-2.4 8.5-4.2 2.7-1.7 5.2-3.9 7.4-6.5l1-1.2-6.4-8c-.6-.8-1.3-1.4-2.1-1.8-.8-.5-1.8-.7-2.9-.7-1.5 0-3 .4-4.5 1.3-1.2.7-2.7 1.5-4.3 2.3-1.5.8-3.4 1.6-5.5 2.2-2 .6-4.5 1-7.3 1-5.7 0-10.2-1.7-13.6-5.1-3.1-3.1-5-8-5.8-14.5h46.3c1.1.1 2 0 2.8-.3zm-48.6-14.6c.9-4.2 2.6-7.6 5-10 2.8-2.8 6.5-4.1 11.6-4.1 2.5 0 4.7.4 6.5 1.2 1.8.8 3.3 1.9 4.5 3.4 1.2 1.4 2.1 3.1 2.7 5 .4 1.4.7 2.9.8 4.5z"/><path d="M674.8 107.5l-.1-.1c-.5-.7-1-1.2-1.5-1.6-1.3-1-3.2-1.1-4.9-.1-.4.3-.9.5-1.5.8-.5.3-1.1.5-1.8.8-.6.2-1.4.3-2.3.3-1.5 0-2.6-.5-3.5-1.4-.9-1-1.4-2.5-1.4-4.5V61.1h20.6V43.9h-20.6V19.3h-11.6c-1.5 0-2.8.4-3.9 1.2-1.1.8-1.8 2-2.1 3.5l-3.7 20.1-12.8 2.1v9.1c0 1.9.6 3.3 1.7 4.4 1.1 1 2.4 1.5 3.9 1.5h6.1V103c0 7.2 2 13 6 17.2 4 4.2 9.7 6.3 17 6.3 4 0 7.9-.6 11.6-1.8 3.8-1.2 7.1-3.1 10.1-5.5l1.2-1z"/><g><path d="M253.6 166.6c-.2.4-.5.6-.9.6-.3 0-.7-.2-1.2-.5s-1.1-.7-1.9-1.2c-.8-.4-1.8-.8-2.9-1.2-1.2-.3-2.6-.5-4.3-.5-1.5 0-2.9.2-4.1.7-1.2.4-2.3 1-3.2 1.7-.9.7-1.6 1.6-2.1 2.5-.5 1-.7 2-.7 3 0 1.3.3 2.4 1 3.3.7.9 1.6 1.6 2.7 2.2 1.1.6 2.3 1.1 3.7 1.6 1.4.4 2.8.9 4.3 1.3s2.9.9 4.3 1.5c1.4.5 2.6 1.2 3.7 2s2 1.8 2.7 3c.7 1.2 1 2.6 1 4.3 0 1.8-.3 3.5-1 5.1-.7 1.6-1.6 2.9-2.9 4.1-1.2 1.2-2.8 2.1-4.6 2.7-1.8.7-3.9 1-6.2 1-2.9 0-5.5-.5-7.6-1.4-2.1-.9-4-2.2-5.7-3.7l1-1.4c.1-.2.3-.4.5-.5.2-.1.4-.2.7-.2.4 0 .8.2 1.3.7.5.4 1.2.9 2.1 1.5.9.5 1.9 1 3.2 1.5 1.3.4 2.9.7 4.7.7 1.8 0 3.3-.2 4.7-.7 1.3-.5 2.5-1.2 3.4-2 .9-.8 1.6-1.8 2-3 .5-1.1.7-2.3.7-3.6 0-1.4-.3-2.6-1-3.5-.7-.9-1.6-1.7-2.7-2.4-1.1-.6-2.3-1.2-3.7-1.6-1.4-.4-2.8-.9-4.3-1.3s-2.9-.9-4.3-1.5c-1.4-.5-2.6-1.2-3.7-2s-2-1.8-2.7-3c-.7-1.2-1-2.6-1-4.4 0-1.5.3-2.9 1-4.3.6-1.4 1.6-2.6 2.8-3.6 1.2-1 2.6-1.9 4.4-2.5 1.7-.6 3.6-.9 5.8-.9 2.6 0 4.8.4 6.8 1.1 2 .7 3.8 1.9 5.5 3.4z"/><path d="M303.3 160.7c3 0 5.7.5 8.1 1.5 2.4 1 4.4 2.5 6 4.4 1.6 1.9 2.9 4.1 3.7 6.8.9 2.7 1.3 5.6 1.3 8.9 0 3.3-.4 6.2-1.3 8.9-.9 2.6-2.1 4.9-3.7 6.8-1.6 1.9-3.6 3.3-6 4.3s-5.1 1.5-8.1 1.5-5.7-.5-8.1-1.5c-2.4-1-4.4-2.5-6-4.3-1.6-1.9-2.9-4.1-3.7-6.8-.9-2.6-1.3-5.6-1.3-8.9 0-3.3.4-6.3 1.3-8.9.9-2.7 2.1-4.9 3.7-6.8 1.6-1.9 3.6-3.3 6-4.4 2.5-1 5.1-1.5 8.1-1.5zm0 39.9c2.5 0 4.7-.4 6.5-1.3 1.9-.9 3.4-2.1 4.7-3.7 1.2-1.6 2.2-3.5 2.8-5.8.6-2.3.9-4.8.9-7.6s-.3-5.3-.9-7.6c-.6-2.3-1.6-4.2-2.8-5.8-1.2-1.6-2.8-2.9-4.7-3.7-1.9-.9-4-1.3-6.5-1.3s-4.7.4-6.5 1.3c-1.9.9-3.4 2.1-4.7 3.7-1.2 1.6-2.2 3.6-2.8 5.8-.6 2.3-.9 4.8-.9 7.6s.3 5.3.9 7.6c.6 2.3 1.6 4.2 2.8 5.8 1.2 1.6 2.8 2.8 4.7 3.7 1.9.9 4 1.3 6.5 1.3z"/><path d="M355.6 203.2v-37.5l-5.9-.4c-.8-.1-1.2-.4-1.2-1.1v-1.6h7.1v-5.3c0-2.4.3-4.5.9-6.3.6-1.8 1.5-3.3 2.6-4.5 1.1-1.2 2.5-2.1 4.1-2.7 1.6-.6 3.3-.9 5.2-.9.9 0 1.7.1 2.6.2.9.2 1.7.4 2.3.7l-.1 1.9c0 .4-.3.6-.8.6-.3 0-.8 0-1.4-.1-.6-.1-1.3-.1-2.1-.1-1.4 0-2.6.2-3.8.6-1.2.4-2.2 1.1-3 2-.8.9-1.5 2.1-2 3.5s-.7 3.2-.7 5.3v5.2H373v3h-13.5v37.6h-3.9z"/><path d="M415.8 203.9c-2.8 0-5-.8-6.6-2.4-1.6-1.6-2.4-4-2.4-7.3v-28.6h-6c-.3 0-.6-.1-.8-.3-.2-.2-.3-.4-.3-.7V163l7.2-.5 1-15c0-.3.1-.5.3-.7.2-.2.4-.3.7-.3h1.9v16H424v3h-13.2v28.4c0 1.2.1 2.1.4 3 .3.8.7 1.5 1.2 2s1.1.9 1.8 1.2c.7.3 1.5.4 2.3.4 1 0 1.9-.1 2.6-.4.7-.3 1.4-.6 1.9-1s1-.7 1.3-1c.3-.3.6-.4.8-.4.2 0 .4.1.7.4l1.1 1.8c-1.1 1.2-2.4 2.1-4.1 2.8-1.6.9-3.3 1.2-5 1.2z"/><path d="M448.9 161.4h3.1c.4 0 .7.1 1 .3.3.2.4.4.5.7l10.6 33.1c.2.6.4 1.3.5 1.9l.3 1.8c.1-.6.3-1.2.5-1.8.2-.6.4-1.2.6-1.9l11.2-33.3c.2-.6.6-.9 1.2-.9h1.6c.6 0 1 .3 1.2.9l11.1 33.3c.4 1.3.8 2.5 1 3.7.1-.6.2-1.2.4-1.8.1-.6.3-1.2.5-1.9l10.6-33.1c.2-.7.7-1 1.4-1h2.9l-14 41.9h-2.9c-.4 0-.8-.3-1-.9l-11.5-34c-.1-.4-.3-.8-.4-1.3-.1-.4-.2-.8-.3-1.3-.1.4-.2.8-.3 1.3-.1.4-.2.8-.4 1.3l-11.6 34c-.2.6-.5.9-1 .9h-2.8z"/><path d="M562.8 203.2c-.8 0-1.4-.4-1.6-1.2l-.6-5.3c-1.2 1.1-2.3 2.1-3.4 3-1.1.9-2.3 1.7-3.6 2.3-1.2.6-2.6 1.1-4 1.4-1.4.3-3 .5-4.7.5-1.4 0-2.8-.2-4.2-.6-1.3-.4-2.5-1.1-3.6-1.9-1-.9-1.9-2-2.5-3.3-.6-1.4-.9-3-.9-4.9 0-1.8.5-3.4 1.5-4.9 1-1.5 2.6-2.8 4.7-4 2.1-1.1 4.9-2 8.3-2.7 3.4-.7 7.4-1.1 12.2-1.2V176c0-3.9-.8-6.9-2.5-8.9-1.7-2.1-4.1-3.1-7.4-3.1-2 0-3.7.3-5.2.8-1.4.6-2.6 1.2-3.6 1.9s-1.8 1.3-2.4 1.9c-.6.6-1.1.8-1.6.8-.6 0-1-.3-1.3-.8l-.7-1.2c2.2-2.2 4.5-3.8 6.9-5 2.4-1.1 5.2-1.7 8.2-1.7 2.2 0 4.2.4 5.9 1.1 1.7.7 3.1 1.7 4.2 3.1 1.1 1.3 1.9 2.9 2.5 4.8.6 1.9.8 4 .8 6.3v27.3h-1.4zM546 201c1.6 0 3.1-.2 4.5-.5 1.4-.4 2.6-.8 3.8-1.5 1.2-.6 2.3-1.4 3.3-2.3 1-.9 2-1.8 3-2.8V183c-4 .1-7.4.4-10.3.9-2.9.5-5.2 1.2-7.1 2-1.9.8-3.2 1.8-4.1 3-.9 1.2-1.3 2.5-1.3 4 0 1.4.2 2.6.7 3.6.5 1 1.1 1.9 1.8 2.5.8.7 1.6 1.1 2.7 1.5.8.4 1.9.5 3 .5z"/><path d="M597.7 203.2v-41.9h2.1c.5 0 .8.1 1 .3.2.2.3.5.4 1l.3 8.8c1.3-3.4 3.1-6.1 5.4-8 2.2-1.9 5-2.9 8.3-2.9 1.3 0 2.4.1 3.5.4 1.1.3 2.1.7 3 1.2l-.5 2.8c-.1.4-.4.7-.8.7-.2 0-.4-.1-.7-.2-.3-.1-.7-.2-1.2-.4-.5-.1-1-.3-1.7-.4-.7-.1-1.4-.2-2.3-.2-3.2 0-5.8 1-7.8 2.9-2 2-3.7 4.8-4.9 8.5V203h-4.1z"/><path d="M661.5 160.7c2.4 0 4.5.4 6.5 1.2 2 .8 3.7 2 5.2 3.6s2.6 3.5 3.5 5.7c.8 2.3 1.2 4.9 1.2 7.8 0 .6-.1 1-.3 1.3-.2.3-.5.3-.9.3h-30.2v.8c0 3.1.4 5.9 1.1 8.3.7 2.4 1.8 4.4 3.1 6 1.3 1.6 3 2.8 4.9 3.6 1.9.8 4 1.2 6.4 1.2 2.1 0 3.9-.2 5.5-.7 1.5-.5 2.8-1 3.9-1.6 1.1-.6 1.9-1.1 2.5-1.6.6-.5 1.1-.7 1.3-.7.4 0 .6.1.8.4l1.1 1.3c-.7.8-1.6 1.6-2.7 2.4-1.1.7-2.3 1.4-3.7 1.9-1.4.5-2.8.9-4.4 1.2-1.6.3-3.1.5-4.7.5-2.9 0-5.5-.5-7.8-1.5-2.4-1-4.4-2.4-6.1-4.4-1.7-1.9-3-4.2-3.9-7-.9-2.8-1.4-5.9-1.4-9.5 0-3 .4-5.8 1.3-8.3.9-2.5 2.1-4.7 3.7-6.6 1.6-1.8 3.6-3.3 5.9-4.3 2.5-.8 5.2-1.3 8.2-1.3zm0 3c-2.2 0-4.1.3-5.8 1-1.7.7-3.2 1.6-4.4 2.9-1.2 1.3-2.3 2.8-3 4.5-.8 1.8-1.3 3.7-1.5 5.9h27.6c0-2.2-.3-4.3-.9-6-.6-1.8-1.5-3.3-2.6-4.5-1.1-1.2-2.5-2.2-4-2.8-1.7-.7-3.5-1-5.4-1z"/></g><linearGradient id="a" x1="189.919" x2="20.84" y1="41.316" y2="-127.763" gradientTransform="matrix(1 0 0 -1 0 55.25)" gradientUnits="userSpaceOnUse"><stop offset="0" stop-color="#d257fc"/><stop offset=".146" stop-color="#b72dcd"/><stop offset=".316" stop-color="#909"/><stop offset=".441" stop-color="#8412b7"/><stop offset=".756" stop-color="#503eff"/></linearGradient><path fill="url(#a)" fill-rule="evenodd" d="M4.1 92c-1.4-.4-2.6-1.3-3.3-2.6-.7-1.3-.9-2.8-.5-4.2.4-1.4 1.3-2.6 2.6-3.3 1.1-.7 2.6-.9 4.1-.5l50 13.4c3.1.9 6.4.9 9.6.1l.3-.1c3-.9 5.8-2.6 8-4.8l80.4-80.4c1-1 2.4-1.6 3.9-1.6s2.9.6 3.9 1.6 1.6 2.4 1.6 3.9-.6 2.9-1.6 3.9L82.6 97.8c-3.6 3.6-8 6.2-12.8 7.6-.1 0-.3.1-.4.1-5 1.3-10.3 1.3-15.3-.1zm18.6-18.6l25.6 6.9c5 1.4 10.3 1.4 15.3.1 5-1.3 9.6-4 13.2-7.7l32.8-32.8c1-1 1.6-2.4 1.6-3.9s-.6-2.9-1.6-3.9-2.4-1.6-3.9-1.6-2.9.6-3.9 1.6L68.9 64.8c-2.4 2.4-5.3 4.1-8.3 4.9-3 .8-6.3.8-9.6-.1l-25.6-6.9c-.7-.2-1.4-.3-2.2-.2-.7.1-1.4.3-2.1.7-.6.4-1.2.8-1.6 1.4-.4.6-.8 1.2-1 2-.2.7-.2 1.4-.1 2.2.1.7.3 1.4.7 2.1.4.6.9 1.2 1.5 1.6.7.4 1.4.8 2.1.9zM122.6 197l-13.4-50c-.9-3.1-.9-6.4-.1-9.6l.1-.3c.9-3 2.5-5.8 4.8-8l80.4-80.4c1-1 1.6-2.4 1.6-3.9s-.6-2.9-1.6-3.9-2.4-1.6-3.9-1.6-2.9.6-3.9 1.6l-80.3 80.4c-3.6 3.5-6.2 8-7.6 12.8 0 .1-.1.3-.1.4-1.3 5-1.3 10.3.1 15.3l13.4 50c.4 1.4 1.3 2.6 2.6 3.3 1.3.7 2.8.9 4.2.5 1.4-.4 2.6-1.3 3.3-2.6.5-1.1.7-2.6.4-4zm18.5-18.6l-6.9-25.6c-.9-3.1-.9-6.4-.1-9.6l.1-.3c.9-3 2.6-5.8 4.8-8l32.8-32.8c1-1 1.6-2.4 1.6-3.9s-.6-2.9-1.6-3.9-2.4-1.6-3.9-1.6-2.9.6-3.9 1.6l-32.8 32.8c-3.6 3.6-6.2 8-7.6 12.8 0 .1-.1.3-.1.4-1.3 5-1.3 10.3.1 15.3l6.9 25.6c.2.7.5 1.4 1 1.9.4.6 1 1.1 1.6 1.4.6.4 1.3.6 2 .7.7.1 1.4 0 2.1-.1.7-.2 1.4-.5 1.9-1 .6-.4 1.1-1 1.4-1.6.4-.6.6-1.3.7-2 .2-.7.1-1.4-.1-2.1zm42.7-166.1L16.6 179.5c-1 1-1.6 2.4-1.6 3.9s.6 2.9 1.6 3.9 2.4 1.6 3.9 1.6 2.9-.6 3.9-1.6L191.6 20.2c1-1 1.6-2.4 1.6-3.9s-.6-2.8-1.6-3.9c-1-1-2.4-1.6-3.9-1.6s-2.9.5-3.9 1.5zM50.6 114.2l-35 35c-1 1-1.6 2.4-1.6 3.9s.6 2.9 1.6 3.9 2.4 1.6 3.9 1.6 2.9-.6 3.9-1.6l35-35c.5-.5.9-1.1 1.2-1.8.3-.7.4-1.4.4-2.1 0-.7-.1-1.4-.4-2.1-.3-.7-.7-1.3-1.2-1.8s-1.1-.9-1.8-1.2c-.7-.3-1.4-.4-2.1-.4-.7 0-1.4.1-2.1.4-.7.2-1.3.6-1.8 1.2zm31.3 31.3l-35 35c-1 1-1.6 2.4-1.6 3.9s.6 2.9 1.6 3.9 2.4 1.6 3.9 1.6 2.9-.6 3.9-1.6l35-35c1-1 1.6-2.4 1.6-3.9s-.6-2.8-1.6-3.9c-1-1-2.4-1.6-3.9-1.6-1.4 0-2.8.6-3.9 1.6z" clip-rule="evenodd"/><g><path d="M672.3 13.9c0-1.3.2-2.5.5-3.7.3-1.2.8-2.3 1.4-3.3.6-1 1.3-2 2.2-2.8.8-.8 1.8-1.6 2.8-2.2 1-.6 2.1-1.1 3.3-1.4 1.2-.3 2.4-.5 3.7-.5 1.3 0 2.5.2 3.7.5 1.2.3 2.3.8 3.3 1.4 1 .6 2 1.3 2.8 2.2.8.8 1.6 1.8 2.2 2.8.6 1 1.1 2.1 1.4 3.3.3 1.2.5 2.4.5 3.7 0 1.3-.2 2.5-.5 3.7-.3 1.2-.8 2.3-1.4 3.3-.6 1-1.3 2-2.2 2.8-.8.8-1.8 1.6-2.8 2.2-1 .6-2.1 1.1-3.3 1.4-1.2.3-2.4.5-3.7.5-1.3 0-2.5-.2-3.7-.5-1.2-.3-2.3-.8-3.3-1.4-1-.6-2-1.3-2.8-2.2-.8-.8-1.6-1.8-2.2-2.8-.6-1-1.1-2.1-1.4-3.3-.3-1.2-.5-2.4-.5-3.7zm1.9 0c0 1.1.1 2.2.4 3.2.3 1 .7 2 1.2 2.9.5.9 1.1 1.7 1.9 2.5.7.7 1.5 1.4 2.4 1.9.9.5 1.8.9 2.9 1.2 1 .3 2.1.4 3.2.4 1.7 0 3.2-.3 4.7-.9 1.5-.6 2.7-1.5 3.8-2.6 1.1-1.1 1.9-2.4 2.6-3.8.6-1.5.9-3.1.9-4.7 0-1.1-.1-2.2-.4-3.3-.3-1-.7-2-1.2-2.9-.5-.9-1.1-1.7-1.9-2.5-.7-.7-1.5-1.4-2.4-1.9-.9-.5-1.8-.9-2.9-1.2-1-.3-2.1-.4-3.2-.4-1.7 0-3.2.3-4.7 1-1.5.6-2.7 1.5-3.8 2.6-1.1 1.1-1.9 2.4-2.5 3.9-.7 1.4-1 3-1 4.6zm9.2 1.7v6.7h-3V5.5h5.5c2.2 0 3.8.4 4.8 1.2 1 .8 1.6 2 1.6 3.5 0 1.2-.3 2.2-1 3-.7.8-1.7 1.4-3 1.7.2.1.4.3.6.5.2.2.3.4.4.7l4.3 6.3h-2.8c-.4 0-.7-.2-.9-.5l-3.8-5.7c-.1-.2-.2-.3-.4-.4-.2-.1-.4-.1-.7-.1h-1.6zm0-2.1h2.2c.7 0 1.3-.1 1.8-.2s.9-.3 1.2-.6c.3-.3.5-.6.6-.9.1-.4.2-.8.2-1.3s-.1-.9-.2-1.2c-.1-.4-.3-.6-.6-.9-.3-.2-.6-.4-1.1-.5-.4-.1-1-.2-1.6-.2h-2.5z"/></g></g><g text-anchor="middle" transform="translate(-.096)"><path d="M128.41797 260h-5.01953l-9.72656-11.5625h-5.44922V260h-3.86719v-29.08203H112.5q2.63672 0 4.39453.35156 1.75781.33203 3.16406 1.21094 1.58204.99609 2.46094 2.51953.89844 1.50391.89844 3.82812 0 3.14454-1.58203 5.27344-1.58203 2.10938-4.35547 3.1836zm-9.04297-20.89844q0-1.25-.44922-2.20703-.42969-.97656-1.44531-1.64062-.83984-.56641-1.99219-.78125-1.15234-.23438-2.71484-.23438h-4.55078v10.97656h3.90625q1.83593 0 3.20312-.3125 1.36719-.33203 2.32422-1.21093.87891-.82032 1.28906-1.875.42969-1.07422.42969-2.71485z"/><path d="M149.49219 249.10156q0 5.33203-2.73438 8.41797-2.73437 3.08594-7.32422 3.08594-4.6289 0-7.36328-3.08594-2.71484-3.08594-2.71484-8.41797 0-5.33203 2.71484-8.41797 2.73438-3.10547 7.36328-3.10547 4.58985 0 7.32422 3.10547 2.73438 3.08594 2.73438 8.41797zm-3.78907 0q0-4.23828-1.66015-6.28906-1.66016-2.07031-4.60938-2.07031-2.98828 0-4.64843 2.07031-1.64063 2.05078-1.64063 6.28906 0 4.10156 1.66016 6.23047 1.66015 2.10938 4.6289 2.10938 2.92969 0 4.58985-2.08985 1.67968-2.10937 1.67968-6.25z"/><path d="M171.30859 258.63281q-1.83593.87891-3.49609 1.36719-1.64063.48828-3.49609.48828-2.36329 0-4.33594-.68359-1.97266-.70313-3.37891-2.10938-1.42578-1.40625-2.20703-3.55469-.78125-2.14843-.78125-5.01953 0-5.35156 2.92969-8.39843 2.94922-3.04688 7.77344-3.04688 1.875 0 3.67187.52734 1.81641.52735 3.32031 1.28907v4.08203h-.19531q-1.67969-1.3086-3.47656-2.01172-1.77735-.70313-3.47656-.70313-3.125 0-4.94141 2.10938-1.79688 2.08984-1.79688 6.15234 0 3.94532 1.75782 6.07422 1.77734 2.10938 4.98047 2.10938 1.11328 0 2.26562-.29297 1.15234-.29297 2.07031-.76172.80078-.41016 1.50391-.85938.70312-.46875 1.11328-.80078h.19531z"/><path d="M195.82031 260h-4.84375l-8.75-9.55078-2.38281 2.26562V260h-3.67188v-30.39063h3.67188v19.49219l10.60547-10.91797h4.6289l-10.13671 10.07813z"/><path d="M217.55859 249.47266h-16.07422q0 2.01171.60547 3.51562.60547 1.48438 1.66016 2.44141 1.01562.9375 2.40234 1.40625 1.40625.46875 3.08594.46875 2.22656 0 4.47266-.87891 2.26562-.89844 3.22265-1.75781h.19532v4.0039q-1.85547.78125-3.78907 1.3086-1.93359.52734-4.0625.52734-5.42968 0-8.47656-2.92969-3.04687-2.94921-3.04687-8.35937 0-5.35156 2.91015-8.49609 2.92969-3.14454 7.69531-3.14454 4.41407 0 6.79688 2.57813 2.40234 2.57812 2.40234 7.32422zm-3.57422-2.8125q-.0195-2.89063-1.46484-4.47266-1.42578-1.58203-4.35547-1.58203-2.94922 0-4.70703 1.73828-1.73828 1.73828-1.97266 4.31641z"/><path d="M234.45312 259.80469q-1.03515.27343-2.26562.44922-1.21094.17578-2.16797.17578-3.33984 0-5.07812-1.79688-1.73829-1.79687-1.73829-5.76172v-11.60156h-2.48046v-3.08594h2.48046v-6.26953h3.67188v6.26953h7.57812v3.08594H226.875v9.94141q0 1.71875.0781 2.69531.0781.95703.54688 1.79687.42969.78125 1.17187 1.15235.76172.35156 2.30469.35156.89844 0 1.875-.25391.97656-.27343 1.40625-.44921h.19531z"/><path d="M274.375 251.69922q0 1.69922-.80078 3.35937-.78125 1.66016-2.20703 2.8125-1.5625 1.25-3.65235 1.95313-2.07031.70312-5 .70312-3.14453 0-5.66406-.58593-2.5-.58594-5.09766-1.73829v-4.84375h.27344q2.20703 1.83594 5.09766 2.83204 2.89062.99609 5.42969.99609 3.59375 0 5.58593-1.34766 2.01172-1.34765 2.01172-3.59375 0-1.93359-.95703-2.85156-.9375-.91797-2.87109-1.42578-1.46485-.39063-3.1836-.64453-1.69922-.25391-3.61328-.64453-3.86719-.82032-5.74219-2.79297-1.85546-1.99219-1.85546-5.17578 0-3.65235 3.08593-5.97657 3.08594-2.34375 7.83203-2.34375 3.06641 0 5.625.58594 2.5586.58594 4.53125 1.44531v4.57032h-.27343q-1.66016-1.40625-4.375-2.32422-2.69532-.9375-5.52735-.9375-3.10547 0-5 1.28906-1.875 1.28906-1.875 3.32031 0 1.81641.9375 2.85157.9375 1.03515 3.30078 1.58203 1.25.27343 3.55469.66406 2.30469.39062 3.90625.80078 3.24219.85938 4.88281 2.59766 1.64063 1.73828 1.64063 4.86328z"/><path d="M298.37891 260h-3.67188v-2.42188q-1.85547 1.46485-3.55469 2.2461-1.69922.78125-3.75.78125-3.4375 0-5.35156-2.08985-1.91406-2.10937-1.91406-6.17187v-14.16016h3.67187v12.42188q0 1.66015.15625 2.85156.15625 1.17188.66407 2.01172.52734.85937 1.36718 1.25.83985.39062 2.44141.39062 1.42578 0 3.10547-.74218 1.69922-.74219 3.16406-1.89453v-16.28907h3.67188z"/><path d="M324.80469 248.82812q0 2.65625-.76172 4.86329-.76172 2.1875-2.14844 3.71093-1.28906 1.44532-3.04687 2.2461-1.73829.78125-3.69141.78125-1.69922 0-3.08594-.3711-1.36719-.37109-2.79297-1.15234v9.14062h-3.67187v-29.86328h3.67187v2.28516q1.46485-1.23047 3.28125-2.05078 1.83594-.83985 3.90625-.83985 3.94532 0 6.13282 2.98829 2.20703 2.96875 2.20703 8.26171zm-3.78907.0977q0-3.94531-1.34765-5.89844-1.34766-1.95312-4.14063-1.95312-1.58203 0-3.18359.68359-1.60156.6836-3.06641 1.79688v12.36328q1.5625.70312 2.67578.95703 1.13282.25391 2.5586.25391 3.0664 0 4.78515-2.07032 1.71875-2.07031 1.71875-6.13281z"/><path d="M349.72656 248.82812q0 2.65625-.76172 4.86329-.76172 2.1875-2.14843 3.71093-1.28907 1.44532-3.04688 2.2461-1.73828.78125-3.69141.78125-1.69921 0-3.08593-.3711-1.36719-.37109-2.79297-1.15234v9.14062h-3.67188v-29.86328h3.67188v2.28516q1.46484-1.23047 3.28125-2.05078 1.83594-.83985 3.90625-.83985 3.94531 0 6.13281 2.98829 2.20703 2.96875 2.20703 8.26171zm-3.78906.0977q0-3.94531-1.34766-5.89844-1.34765-1.95312-4.14062-1.95312-1.58203 0-3.1836.68359-1.60156.6836-3.0664 1.79688v12.36328q1.5625.70312 2.67578.95703 1.13281.25391 2.55859.25391 3.06641 0 4.78516-2.07032 1.71875-2.07031 1.71875-6.13281z"/><path d="M374.04297 249.10156q0 5.33203-2.73438 8.41797-2.73437 3.08594-7.32422 3.08594-4.6289 0-7.36328-3.08594-2.71484-3.08594-2.71484-8.41797 0-5.33203 2.71484-8.41797 2.73438-3.10547 7.36328-3.10547 4.58985 0 7.32422 3.10547 2.73438 3.08594 2.73438 8.41797zm-3.78906 0q0-4.23828-1.66016-6.28906-1.66016-2.07031-4.60938-2.07031-2.98828 0-4.64843 2.07031-1.64063 2.05078-1.64063 6.28906 0 4.10156 1.66016 6.23047 1.66015 2.10938 4.6289 2.10938 2.92969 0 4.58985-2.08985 1.67969-2.10937 1.67969-6.25z"/><path d="M393.33984 242.1875h-.19531q-.82031-.19531-1.60156-.27344-.76172-.0977-1.81641-.0977-1.69922 0-3.28125.76171-1.58203.74219-3.04687 1.9336V260h-3.67188v-21.81641h3.67188v3.22266q2.1875-1.75781 3.84765-2.48047 1.67969-.74219 3.41797-.74219.95703 0 1.38672.0586.42969.0391 1.28906.17578z"/><path d="M408.125 259.80469q-1.03516.27343-2.26563.44922-1.21093.17578-2.16796.17578-3.33985 0-5.07813-1.79688-1.73828-1.79687-1.73828-5.76172v-11.60156h-2.48047v-3.08594h2.48047v-6.26953h3.67187v6.26953h7.57813v3.08594h-7.57813v9.94141q0 1.71875.0781 2.69531.0781.95703.54687 1.79687.42969.78125 1.17188 1.15235.76172.35156 2.30469.35156.89843 0 1.875-.25391.97656-.27343 1.40625-.44921h.19531z"/><path d="M438.35937 233.16406h-.19531q-.60547-.17578-1.58203-.35156-.97656-.19531-1.71875-.19531-2.36328 0-3.4375 1.05468-1.05469 1.03516-1.05469 3.76954v.74218h6.6211v3.08594h-6.50391V260h-3.67187v-18.73047h-2.48047v-3.08594h2.48047v-.72265q0-3.88672 1.93359-5.95703 1.93359-2.08985 5.58594-2.08985 1.23047 0 2.20703.11719.99609.11719 1.8164.27344z"/><path d="M459.27734 249.10156q0 5.33203-2.73437 8.41797-2.73438 3.08594-7.32422 3.08594-4.62891 0-7.36328-3.08594-2.71485-3.08594-2.71485-8.41797 0-5.33203 2.71485-8.41797 2.73437-3.10547 7.36328-3.10547 4.58984 0 7.32422 3.10547 2.73437 3.08594 2.73437 8.41797zm-3.78906 0q0-4.23828-1.66016-6.28906-1.66015-2.07031-4.60937-2.07031-2.98828 0-4.64844 2.07031-1.64062 2.05078-1.64062 6.28906 0 4.10156 1.66015 6.23047 1.66016 2.10938 4.62891 2.10938 2.92969 0 4.58984-2.08985 1.67969-2.10937 1.67969-6.25z"/><path d="M478.57422 242.1875h-.19531q-.82032-.19531-1.60157-.27344-.76172-.0977-1.8164-.0977-1.69922 0-3.28125.76171-1.58203.74219-3.04688 1.9336V260h-3.67187v-21.81641h3.67187v3.22266q2.1875-1.75781 3.84766-2.48047 1.67969-.74219 3.41797-.74219.95703 0 1.38672.0586.42968.0391 1.28906.17578z"/><path d="M517.63672 260h-22.69531v-3.59375l17.83203-22.05078h-17.16797v-3.4375h21.60156v3.49609l-18.00781 22.14844h18.4375z"/><path d="M540.91797 249.10156q0 5.33203-2.73438 8.41797-2.73437 3.08594-7.32422 3.08594-4.6289 0-7.36328-3.08594-2.71484-3.08594-2.71484-8.41797 0-5.33203 2.71484-8.41797 2.73438-3.10547 7.36328-3.10547 4.58985 0 7.32422 3.10547 2.73438 3.08594 2.73438 8.41797zm-3.78906 0q0-4.23828-1.66016-6.28906-1.66016-2.07031-4.60938-2.07031-2.98828 0-4.64843 2.07031-1.64063 2.05078-1.64063 6.28906 0 4.10156 1.66016 6.23047 1.66015 2.10938 4.6289 2.10938 2.92969 0 4.58985-2.08985 1.67969-2.10937 1.67969-6.25z"/><path d="M574.04297 238.18359L568.35937 260h-3.39843l-5.60547-16.81641L553.78906 260h-3.3789l-5.74219-21.81641h3.82812L552.5 255.07812l5.44922-16.89453h3.02734l5.58594 16.89453 3.78906-16.89453z"/><path d="M597.59766 249.47266h-16.07422q0 2.01171.60547 3.51562.60546 1.48438 1.66015 2.44141 1.01563.9375 2.40235 1.40625 1.40625.46875 3.08593.46875 2.22657 0 4.47266-.87891 2.26562-.89844 3.22266-1.75781h.19531v4.0039q-1.85547.78125-3.78906 1.3086-1.9336.52734-4.0625.52734-5.42969 0-8.47657-2.92969-3.04687-2.94921-3.04687-8.35937 0-5.35156 2.91015-8.49609 2.92969-3.14454 7.69532-3.14454 4.41406 0 6.79687 2.57813 2.40235 2.57812 2.40235 7.32422zm-3.57422-2.8125q-.0195-2.89063-1.46485-4.47266-1.42578-1.58203-4.35547-1.58203-2.94921 0-4.70703 1.73828-1.73828 1.73828-1.97265 4.31641z"/></g></svg>