<svg xmlns="http://www.w3.org/2000/svg" role="img" viewBox="-10.91 -10.91 567.32 173.32"><title>SHARE logo</title><path fill="#7bcb2a" d="M215.859 108.766l50.016.266 10.86-15.4-34.388-.045 12.377-21.265-8.004-16.797-30.861 53.241"/><path fill="#5ac4ea" d="M341.475 108.766l-61.904.266 10.917-15.4 24.499-.045-14.342-24.72 19.755 3.292 21.075 36.607"/><path fill="#231f20" d="M78.92 30.438a122.376 122.376 0 0 0-5.795-2.604c-2.192-.92-4.692-1.746-7.501-2.477-2.812-.728-5.979-1.338-9.499-1.83-3.52-.492-7.428-.739-11.718-.739-5.195 0-9.819.3-13.875.9-4.057.602-7.492 1.53-10.304 2.796-2.812 1.266-4.959 2.861-6.44 4.79-1.48 1.93-2.22 4.222-2.22 6.88 0 2.23.697 4.18 2.092 5.851 1.395 1.671 3.284 3.151 5.667 4.438 2.382 1.284 5.17 2.452 8.369 3.502a161.825 161.825 0 0 0 10.172 2.958c3.585.923 7.276 1.854 11.076 2.797 3.797.945 7.488 1.96 11.07 3.055A103.973 103.973 0 0 1 70.19 64.42c3.196 1.348 5.986 2.924 8.369 4.724 2.382 1.8 4.272 3.858 5.666 6.172 1.394 2.314 2.091 4.994 2.091 8.038 0 3.301-.621 6.183-1.863 8.648a19.958 19.958 0 0 1-5.05 6.365c-2.124 1.78-4.61 3.258-7.463 4.436-2.854 1.18-5.897 2.11-9.133 2.798a79.726 79.726 0 0 1-10.036 1.446c-3.452.278-6.852.416-10.196.416-7.678 0-14.636-.554-20.877-1.67-6.237-1.114-12.19-2.637-17.849-4.565v-9.837c5.832 3.472 11.998 5.85 18.495 7.136 6.497 1.287 13.324 1.928 20.488 1.928 5.059 0 9.733-.299 14.021-.897 4.288-.602 8-1.555 11.13-2.864 3.132-1.307 5.564-3.011 7.3-5.111 1.74-2.098 2.607-4.672 2.607-7.716 0-2.444-.697-4.587-2.092-6.428-1.391-1.844-3.278-3.464-5.658-4.854-2.383-1.394-5.17-2.624-8.364-3.699a152.448 152.448 0 0 0-10.132-2.99c-3.56-.922-7.237-1.82-11.032-2.701a208.74 208.74 0 0 1-11.032-2.86 106.413 106.413 0 0 1-10.133-3.47c-3.195-1.287-5.98-2.8-8.36-4.535-2.38-1.735-4.27-3.739-5.661-6.01-1.395-2.271-2.093-4.91-2.093-7.909 0-2.958.56-5.583 1.672-7.877a18.292 18.292 0 0 1 4.6-5.947c1.954-1.672 4.236-3.076 6.851-4.213 2.616-1.134 5.416-2.035 8.396-2.7a74.973 74.973 0 0 1 9.296-1.447 102.79 102.79 0 0 1 9.52-.45c3.43 0 6.679.151 9.744.45 3.067.301 6.027.697 8.878 1.19a140.89 140.89 0 0 1 8.363 1.705c2.723.641 5.478 1.328 8.267 2.056v9.259"/><path fill="none" stroke="#231f20" stroke-miterlimit="10" stroke-width="6.667" d="M78.92 30.438a122.376 122.376 0 0 0-5.795-2.604c-2.192-.92-4.692-1.746-7.501-2.477-2.812-.728-5.979-1.338-9.499-1.83-3.52-.492-7.428-.739-11.718-.739-5.195 0-9.819.3-13.875.9-4.057.602-7.492 1.53-10.304 2.796-2.812 1.266-4.959 2.861-6.44 4.79-1.48 1.93-2.22 4.222-2.22 6.88 0 2.23.697 4.18 2.092 5.851 1.395 1.671 3.284 3.151 5.667 4.438 2.382 1.284 5.17 2.452 8.369 3.502a161.825 161.825 0 0 0 10.172 2.958c3.585.923 7.276 1.854 11.076 2.797 3.797.945 7.488 1.96 11.07 3.055A103.973 103.973 0 0 1 70.19 64.42c3.196 1.348 5.986 2.924 8.369 4.724 2.382 1.8 4.272 3.858 5.666 6.172 1.394 2.314 2.091 4.994 2.091 8.038 0 3.301-.621 6.183-1.863 8.648a19.958 19.958 0 0 1-5.05 6.365c-2.124 1.78-4.61 3.258-7.463 4.436-2.854 1.18-5.897 2.11-9.133 2.798a79.726 79.726 0 0 1-10.036 1.446c-3.452.278-6.852.416-10.196.416-7.678 0-14.636-.554-20.877-1.67-6.237-1.114-12.19-2.637-17.849-4.565v-9.837c5.832 3.472 11.998 5.85 18.495 7.136 6.497 1.287 13.324 1.928 20.488 1.928 5.059 0 9.733-.299 14.021-.897 4.288-.602 8-1.555 11.13-2.864 3.132-1.307 5.564-3.011 7.3-5.111 1.74-2.098 2.607-4.672 2.607-7.716 0-2.444-.697-4.587-2.092-6.428-1.391-1.844-3.278-3.464-5.658-4.854-2.383-1.394-5.17-2.624-8.364-3.699a152.448 152.448 0 0 0-10.132-2.99c-3.56-.922-7.237-1.82-11.032-2.701a208.74 208.74 0 0 1-11.032-2.86 106.413 106.413 0 0 1-10.133-3.47c-3.195-1.287-5.98-2.8-8.36-4.535-2.38-1.735-4.27-3.739-5.661-6.01-1.395-2.271-2.093-4.91-2.093-7.909 0-2.958.56-5.583 1.672-7.877a18.292 18.292 0 0 1 4.6-5.947c1.954-1.672 4.236-3.076 6.851-4.213 2.616-1.134 5.416-2.035 8.396-2.7a74.973 74.973 0 0 1 9.296-1.447 102.79 102.79 0 0 1 9.52-.45c3.43 0 6.679.151 9.744.45 3.067.301 6.027.697 8.878 1.19a140.89 140.89 0 0 1 8.363 1.705c2.723.641 5.478 1.328 8.267 2.056z"/><path fill="#231f20" d="M192.412 105.738V62.781h-79.134v42.957h-8.034v-88.36h8.034V55.45h79.134V17.38h8.036v88.36h-8.036"/><path fill="none" stroke="#231f20" stroke-miterlimit="10" stroke-width="6.667" d="M192.412 105.738V62.781h-79.134v42.957h-8.034v-88.36h8.034V55.45h79.134V17.38h8.036v88.36z"/><path fill="#231f20" d="M364.763 67.924v37.815h-8.055v-88.36h44.087c6.746 0 12.526.526 17.337 1.575 4.815 1.05 8.756 2.638 11.83 4.76 3.071 2.12 5.317 4.77 6.735 7.942 1.418 3.173 2.127 6.88 2.127 11.125 0 6.603-1.741 11.885-5.221 15.853-3.479 3.964-9.09 6.676-16.823 8.132l30.23 38.973h-10.12l-28.554-38.072c-1.203.087-2.43.152-3.673.195-1.248.04-2.538.062-3.868.062zm65.809-25.143c0-3.773-.667-6.827-1.997-9.165-1.335-2.335-3.507-4.148-6.519-5.435-3.01-1.286-6.957-2.153-11.839-2.603-4.882-.449-10.873-.674-17.969-.674h-27.485v35.498h27.228c7.096 0 13.097-.204 18-.614 4.904-.405 8.882-1.24 11.936-2.507 3.054-1.264 5.258-3.042 6.613-5.336 1.355-2.294 2.032-5.349 2.032-9.164"/><path fill="none" stroke="#231f20" stroke-miterlimit="10" stroke-width="6.667" d="M364.763 67.924v37.815h-8.055v-88.36h44.087c6.746 0 12.526.526 17.337 1.575 4.815 1.05 8.756 2.638 11.83 4.76 3.071 2.12 5.317 4.77 6.735 7.942 1.418 3.173 2.127 6.88 2.127 11.125 0 6.603-1.741 11.885-5.221 15.853-3.479 3.964-9.09 6.676-16.823 8.132l30.23 38.973h-10.12l-28.554-38.072c-1.203.087-2.43.152-3.673.195-1.248.04-2.538.062-3.868.062zm65.809-25.143c0-3.773-.667-6.827-1.997-9.165-1.335-2.335-3.507-4.148-6.519-5.435-3.01-1.286-6.957-2.153-11.839-2.603-4.882-.449-10.873-.674-17.969-.674h-27.485v35.498h27.228c7.096 0 13.097-.204 18-.614 4.904-.405 8.882-1.24 11.936-2.507 3.054-1.264 5.258-3.042 6.613-5.336 1.355-2.294 2.032-5.349 2.032-9.164z"/><path fill="#231f20" d="M468.676 105.738v-88.36h73.697v7.526h-64.946V55.32h61.664v7.332h-61.664v35.56h64.946v7.525h-73.697"/><path fill="none" stroke="#231f20" stroke-miterlimit="10" stroke-width="6.667" d="M468.676 105.738v-88.36h73.697v7.526h-64.946V55.32h61.664v7.332h-61.664v35.56h64.946v7.525z"/><path fill="#e96f18" d="M278.593.007l-25.212 43.458 7.996 17.158 17.216-29.95 15.327 26.568 19.79 3.382L278.594.007"/><path fill="#7a7e82" d="M37.43 142.077c0-1-.093-1.886-.279-2.655-.186-.77-.453-1.438-.8-2.006a5.2 5.2 0 0 0-1.27-1.43 6.552 6.552 0 0 0-1.688-.931 9.114 9.114 0 0 0-2.044-.503 17.74 17.74 0 0 0-2.347-.148h-7.389v15.36h7.389c1.243 0 2.38-.118 3.414-.356 1.032-.236 1.919-.648 2.66-1.233.74-.586 1.318-1.374 1.732-2.362.415-.988.622-2.233.622-3.736zm1.624-.006c0 1.178-.117 2.226-.349 3.142-.233.916-.56 1.715-.984 2.393a6.621 6.621 0 0 1-1.54 1.729 7.799 7.799 0 0 1-2.017 1.14 11.34 11.34 0 0 1-2.41.622c-.867.13-1.778.195-2.733.195h-8.994v-18.416h8.968c1.429 0 2.757.148 3.983.442 1.226.295 2.29.798 3.19 1.509.9.71 1.607 1.654 2.118 2.834.511 1.179.768 2.65.768 4.41m21.506 5.944c-.368.756-.918 1.402-1.65 1.944-.73.541-1.646.957-2.745 1.253-1.1.294-2.38.441-3.844.441-1.463 0-2.744-.147-3.843-.44-1.099-.297-2.017-.713-2.753-1.254-.735-.542-1.287-1.188-1.655-1.944-.367-.755-.552-1.592-.552-2.514v-12.625h1.586v12.76c0 .616.154 1.2.463 1.75.308.549.767 1.029 1.376 1.44.61.411 1.362.737 2.259.978.895.242 1.935.361 3.12.361 1.174 0 2.21-.12 3.108-.361.895-.241 1.648-.567 2.257-.979.609-.41 1.068-.89 1.376-1.44a3.516 3.516 0 0 0 .463-1.749v-12.76h1.586V145.5c0 .922-.184 1.76-.553 2.514m22.12 2.554c-.597.224-1.216.416-1.86.578a17.435 17.435 0 0 1-4.35.507c-1.032 0-2.023-.09-2.974-.268a12.328 12.328 0 0 1-2.658-.804 9.94 9.94 0 0 1-2.232-1.333 8.347 8.347 0 0 1-1.719-1.856 8.441 8.441 0 0 1-1.103-2.386c-.258-.884-.387-1.854-.387-2.909 0-1.054.129-2.024.387-2.908a8.435 8.435 0 0 1 1.103-2.386 8.335 8.335 0 0 1 1.719-1.856 9.944 9.944 0 0 1 2.232-1.334c.82-.357 1.705-.625 2.651-.804a16.075 16.075 0 0 1 2.982-.268c.837 0 1.61.045 2.32.134a17.296 17.296 0 0 1 3.889.945c.596.219 1.198.463 1.807.73v2.011c-.483-.322-1-.625-1.55-.912a12.5 12.5 0 0 0-1.782-.75 13.729 13.729 0 0 0-4.385-.697c-1.676 0-3.128.193-4.355.575-1.227.386-2.24.928-3.04 1.63a6.414 6.414 0 0 0-1.777 2.546c-.385.996-.577 2.11-.577 3.344 0 1.233.192 2.346.577 3.338a6.417 6.417 0 0 0 1.778 2.54c.799.701 1.812 1.242 3.039 1.621 1.227.38 2.679.57 4.355.57a14.08 14.08 0 0 0 4.435-.696 12.503 12.503 0 0 0 1.79-.745 13.036 13.036 0 0 0 1.492-.891v1.996c-.609.269-1.211.516-1.807.738m15.196-16.071l-5.15 10.402h10.287zm8.308 16.795l-2.398-4.865H91.95l-2.397 4.865h-1.738l9.12-18.416H98.8l9.12 18.416h-1.737m9.621-16.888v16.888h-1.573v-16.888h-7.927v-1.528h17.427v1.528h-7.927m78.764 16.888l-15.145-16.217v16.217h-1.586v-18.416h1.75l15.145 16.272v-16.272h1.56v18.416h-1.724m35.525-16.888v16.888h-1.573v-16.888h-7.927v-1.528h17.427v1.528h-7.927m28.208-1.528l6.216 17.076 6.443-17.076h1.764l-7.015 18.416h-2.358l-6.115-16.633-6.101 16.633h-2.359l-7.015-18.416h1.763l6.444 17.076 6.203-17.076h2.13m37.336 9.221c0-1.305-.201-2.457-.602-3.458a6.493 6.493 0 0 0-1.783-2.526c-.788-.684-1.767-1.202-2.939-1.556-1.173-.352-2.533-.53-4.081-.53-1.548 0-2.913.181-4.093.537-1.18.359-2.168.879-2.964 1.563a6.5 6.5 0 0 0-1.803 2.533c-.405 1.004-.608 2.15-.608 3.437 0 1.306.203 2.458.608 3.459a6.51 6.51 0 0 0 1.803 2.525c.796.684 1.784 1.203 2.964 1.556 1.18.352 2.545.528 4.093.528s2.908-.176 4.081-.528c1.172-.353 2.151-.872 2.939-1.556a6.493 6.493 0 0 0 1.783-2.525c.401-1.001.602-2.153.602-3.459zm1.624 0c0 1.654-.284 3.08-.849 4.283-.567 1.201-1.344 2.193-2.333 2.975-.988.782-2.155 1.36-3.499 1.736-1.344.376-2.793.562-4.348.562-1.563 0-3.021-.186-4.373-.562-1.354-.375-2.527-.954-3.526-1.736-.996-.782-1.778-1.774-2.344-2.975-.566-1.203-.849-2.63-.849-4.283 0-1.098.13-2.097.392-2.996a8.76 8.76 0 0 1 1.104-2.412 7.738 7.738 0 0 1 1.717-1.844 9.933 9.933 0 0 1 2.244-1.293c.824-.343 1.71-.598 2.655-.763.948-.165 1.94-.248 2.98-.248 1.555 0 3.004.187 4.348.563 1.344.375 2.51.953 3.499 1.736.989.782 1.766 1.773 2.333 2.975.565 1.202.85 2.629.85 4.282m19.19-3.927c0-.786-.13-1.422-.393-1.91-.263-.487-.69-.864-1.283-1.132-.592-.268-1.368-.45-2.33-.543-.96-.094-2.138-.141-3.535-.141h-5.408v7.399h5.357c1.396 0 2.577-.043 3.543-.127.964-.086 1.748-.26 2.348-.524.601-.263 1.034-.633 1.302-1.112.266-.477.399-1.115.399-1.91zm-12.95 5.24v7.882h-1.586v-18.416h8.676c1.328 0 2.465.11 3.413.328.947.22 1.723.55 2.327.992a3.918 3.918 0 0 1 1.325 1.655c.28.662.419 1.434.419 2.318 0 1.378-.343 2.48-1.028 3.304-.684.827-1.788 1.394-3.31 1.696l5.949 8.123h-1.991l-5.62-7.935a19.962 19.962 0 0 1-1.484.053h-7.09m21.677-1.862l12.95-8.672h2.208l-12.773 8.832 13.559 9.584h-2.702l-13.242-9.382v9.382h-1.623v-18.416h1.623v8.672m48.618 9.744v-18.416h1.586v18.416h-1.586m24.19 0l-15.146-16.217v16.217h-1.585v-18.416h1.75l15.145 16.272v-16.272h1.56v18.416h-1.724m9.17-16.848v6.34h11.594v1.528h-11.594v8.98h-1.586v-18.416h13.801v1.568h-12.215m16.287 16.848v-18.416h1.585v16.848h12.735v1.568h-14.32m35.103-3.277c-.368.756-.918 1.402-1.648 1.944-.732.541-1.648.957-2.747 1.253-1.099.294-2.38.441-3.843.441-1.464 0-2.745-.147-3.844-.44-1.098-.297-2.017-.713-2.752-1.254-.736-.542-1.288-1.188-1.656-1.944-.366-.755-.552-1.592-.552-2.514v-12.625h1.587v12.76c0 .616.153 1.2.463 1.75.308.549.766 1.029 1.376 1.44.608.411 1.361.737 2.257.978.896.242 1.937.361 3.121.361 1.175 0 2.211-.12 3.107-.361.897-.241 1.65-.567 2.259-.979.608-.41 1.066-.89 1.376-1.44a3.524 3.524 0 0 0 .462-1.749v-12.76h1.586V145.5c0 .922-.184 1.76-.552 2.514m42.6 3.278l-15.144-16.217v16.217h-1.587v-18.416h1.75l15.146 16.272v-16.272h1.56v18.416h-1.725m23.65-.724c-.597.224-1.216.416-1.858.578a17.429 17.429 0 0 1-4.351.507c-1.032 0-2.023-.09-2.975-.268a12.337 12.337 0 0 1-2.657-.804 9.935 9.935 0 0 1-2.232-1.333 8.336 8.336 0 0 1-1.719-1.856 8.446 8.446 0 0 1-1.104-2.386c-.258-.884-.386-1.854-.386-2.909 0-1.054.128-2.024.386-2.908a8.44 8.44 0 0 1 1.104-2.386 8.324 8.324 0 0 1 1.719-1.856 9.938 9.938 0 0 1 2.232-1.334c.82-.357 1.704-.625 2.65-.804a16.07 16.07 0 0 1 2.982-.268c.837 0 1.61.045 2.321.134a17.296 17.296 0 0 1 3.888.945c.596.219 1.199.463 1.807.73v2.011a16.716 16.716 0 0 0-1.548-.912 12.562 12.562 0 0 0-1.784-.75 13.745 13.745 0 0 0-4.385-.697c-1.675 0-3.127.193-4.354.575-1.228.386-2.241.928-3.04 1.63a6.419 6.419 0 0 0-1.777 2.546c-.385.996-.577 2.11-.577 3.344 0 1.233.192 2.346.577 3.338a6.422 6.422 0 0 0 1.777 2.54c.799.701 1.812 1.242 3.04 1.621 1.227.38 2.679.57 4.354.57a14.092 14.092 0 0 0 4.436-.696 12.49 12.49 0 0 0 1.79-.745 13.027 13.027 0 0 0 1.491-.891v1.996c-.608.269-1.21.516-1.807.738m6.513.724v-18.416h14.523v1.568h-12.798v6.34h12.152v1.528h-12.152v7.412h12.797v1.568h-14.523m-329.888 0v-18.416h14.524v1.568h-12.798v6.34h12.152v1.528h-12.152v7.412h12.797v1.568h-14.523"/><path fill="#7b7979" d="M157.517 141.85v-3.403l2.947 1.701 2.948 1.703-2.948 1.7-2.947 1.704v-3.404m195.96-.001v-3.403l2.948 1.701 2.947 1.703-2.947 1.7-2.948 1.704v-3.404"/><path fill="#7a7e82" d="M464.807 151.292v-18.416h14.522v1.568h-12.797v6.34h12.15v1.528h-12.15v7.412h12.797v1.568h-14.522m-336.238 0v-18.416h14.523v1.568h-12.798v6.34h12.151v1.528h-12.151v7.412h12.797v1.568h-14.522m-128.057 0v-18.416h14.524v1.568H2.238v6.34h12.151v1.528H2.238v7.412h12.797v1.568H.512"/></svg>