<svg xmlns="http://www.w3.org/2000/svg" role="img" viewBox="-10.91 -10.91 567.32 173.32"><title>SHARE logo</title><path fill="#7bcb2a" d="M215.85327 108.76714l50.01475.2656 10.85973-15.39909-34.38714-.04533 12.37702-21.26454-8.0038-16.79704-30.86056 53.2404"/><path fill="#5ac4ea" d="M341.46613 108.76714l-61.90245.2656 10.91706-15.39909 24.49805-.04533-14.34097-24.71965 19.75417 3.29152 21.07414 36.60695"/><path fill="#231f20" d="M78.91776 30.44043c-1.67436-.81198-3.60604-1.6813-5.79412-2.60407-2.19208-.91984-4.69202-1.74529-7.50128-2.47607-2.81193-.72811-5.97852-1.3385-9.4983-1.83062-3.52018-.49172-7.42794-.73852-11.71837-.73852-5.19467 0-9.81855.29893-13.87472.89892-4.0571.60251-7.49141 1.5317-10.30334 2.79673-2.81193 1.2657-4.95868 2.8614-6.43997 4.78948-1.48015 1.93075-2.21972 4.2223-2.21972 6.88116 0 2.229.69686 4.17856 2.09159 5.85038 1.39476 1.67076 3.28378 3.15086 5.66652 4.43736 2.38274 1.28383 5.17067 2.45194 8.36912 3.50245 3.19726 1.0505 6.58784 2.03488 10.17215 2.95726 3.58471.9229 7.27528 1.85462 11.07519 2.7974 3.79737.94424 7.48781 1.95981 11.07052 3.05458 3.58538 1.09318 6.97743 2.31341 10.17482 3.66551 3.19672 1.3489 5.98625 2.92393 8.36899 4.72482 2.38234 1.79995 4.27176 3.85723 5.66652 6.1717 1.3933 2.31355 2.09062 4.99375 2.09062 8.0374 0 3.3014-.62132 6.18265-1.86302 8.64766-1.24517 2.46554-2.92753 4.58682-5.05028 6.36544-2.12395 1.77969-4.61042 3.25725-7.46235 4.43589-2.85366 1.17864-5.89731 2.11035-9.1331 2.79726-3.24005.68385-6.5837 1.16664-10.03575 1.44637-3.45191.27759-6.85183.41612-10.19601.41612-7.677 0-14.63564-.55465-20.87561-1.67076-6.23678-1.11304-12.19028-2.63593-17.84848-4.56402v-9.83669c5.83163 3.47178 11.99716 5.85039 18.4938 7.1357 6.4973 1.2865 13.3242 1.92808 20.48748 1.92808 5.0588 0 9.7331-.29893 14.02099-.89731 4.28802-.60159 7.9998-1.55463 11.12945-2.86407 3.13166-1.30663 5.564-3.01085 7.30088-5.1108 1.73903-2.09835 2.60567-4.67175 2.60567-7.7154 0-2.44421-.69638-4.58683-2.09114-6.42798-1.39157-1.84422-3.27859-3.46391-5.65813-4.85455-2.38274-1.39316-5.1692-2.62393-8.36392-3.6983-3.19472-1.06984-6.57317-2.06662-10.13202-2.98953-3.55978-.92291-7.23675-1.81969-11.03146-2.70153-3.79577-.87705-7.47328-1.83009-11.03145-2.8598-3.55885-1.02917-6.93743-2.1854-10.13308-3.47018-3.19472-1.28703-5.98012-2.79886-8.36027-4.53482-2.37962-1.73489-4.26916-3.73844-5.6608-6.01025-1.39475-2.27074-2.09213-4.9092-2.09213-7.9082 0-2.9582.55884-5.58266 1.67184-7.87687 1.11768-2.29367 2.64784-4.2759 4.59988-5.94665 1.9536-1.67182 4.23588-3.07606 6.85089-4.2135 2.61553-1.1333 5.41546-2.03434 8.39565-2.69993 2.97953-.66265 6.07692-1.1453 9.2955-1.44663 3.21606-.29866 6.38798-.45065 9.52016-.45065 3.43005 0 6.6785.152 9.7435.45065 3.06658.30133 6.02638.69732 8.87737 1.1893 2.85153.49466 5.64093 1.06145 8.36326 1.7057 2.72287.64118 5.47746 1.32756 8.26646 2.05568v9.2587"/><path fill="none" stroke="#231f20" stroke-miterlimit="10" stroke-width="6.6665" d="M78.91776 30.44043c-1.67436-.81198-3.60604-1.6813-5.79412-2.60407-2.19208-.91984-4.69202-1.74529-7.50128-2.47607-2.81193-.72811-5.97852-1.3385-9.4983-1.83062-3.52018-.49172-7.42794-.73852-11.71837-.73852-5.19467 0-9.81855.29893-13.87472.89892-4.0571.60251-7.49141 1.5317-10.30334 2.79673-2.81193 1.2657-4.95868 2.8614-6.43997 4.78948-1.48015 1.93075-2.21972 4.2223-2.21972 6.88116 0 2.229.69686 4.17856 2.09159 5.85038 1.39476 1.67076 3.28378 3.15086 5.66652 4.43736 2.38274 1.28383 5.17067 2.45194 8.36912 3.50245 3.19726 1.0505 6.58784 2.03488 10.17215 2.95726 3.58471.9229 7.27528 1.85462 11.07519 2.7974 3.79737.94424 7.48781 1.95981 11.07052 3.05458 3.58538 1.09318 6.97743 2.31341 10.17482 3.66551 3.19672 1.3489 5.98625 2.92393 8.36899 4.72482 2.38234 1.79995 4.27176 3.85723 5.66652 6.1717 1.3933 2.31355 2.09062 4.99375 2.09062 8.0374 0 3.3014-.62132 6.18265-1.86302 8.64766-1.24517 2.46554-2.92753 4.58682-5.05028 6.36544-2.12395 1.77969-4.61042 3.25725-7.46235 4.43589-2.85366 1.17864-5.89731 2.11035-9.1331 2.79726-3.24005.68385-6.5837 1.16664-10.03575 1.44637-3.45191.27759-6.85183.41612-10.19601.41612-7.677 0-14.63564-.55465-20.87561-1.67076-6.23678-1.11304-12.19028-2.63593-17.84848-4.56402v-9.83669c5.83163 3.47178 11.99716 5.85039 18.4938 7.1357 6.4973 1.2865 13.3242 1.92808 20.48748 1.92808 5.0588 0 9.7331-.29893 14.02099-.89731 4.28802-.60159 7.9998-1.55463 11.12945-2.86407 3.13166-1.30663 5.564-3.01085 7.30088-5.1108 1.73903-2.09835 2.60567-4.67175 2.60567-7.7154 0-2.44421-.69638-4.58683-2.09114-6.42798-1.39157-1.84422-3.27859-3.46391-5.65813-4.85455-2.38274-1.39316-5.1692-2.62393-8.36392-3.6983-3.19472-1.06984-6.57317-2.06662-10.13202-2.98953-3.55978-.92291-7.23675-1.81969-11.03146-2.70153-3.79577-.87705-7.47328-1.83009-11.03145-2.8598-3.55885-1.02917-6.93743-2.1854-10.13308-3.47018-3.19472-1.28703-5.98012-2.79886-8.36027-4.53482-2.37962-1.73489-4.26916-3.73844-5.6608-6.01025-1.39475-2.27074-2.09213-4.9092-2.09213-7.9082 0-2.9582.55884-5.58266 1.67184-7.87687 1.11768-2.29367 2.64784-4.2759 4.59988-5.94665 1.9536-1.67182 4.23588-3.07606 6.85089-4.2135 2.61553-1.1333 5.41546-2.03434 8.39565-2.69993 2.97953-.66265 6.07692-1.1453 9.2955-1.44663 3.21606-.29866 6.38798-.45065 9.52016-.45065 3.43005 0 6.6785.152 9.7435.45065 3.06658.30133 6.02638.69732 8.87737 1.1893 2.85153.49466 5.64093 1.06145 8.36326 1.7057 2.72287.64118 5.47746 1.32756 8.26646 2.05568z"/><path fill="#231f20" d="M192.40719 105.73908V62.78282h-79.13242v42.95626h-8.03313V17.3817h8.03313v38.07065h79.13242V17.38169h8.0358v88.3574h-8.0358"/><path fill="none" stroke="#231f20" stroke-miterlimit="10" stroke-width="6.6665" d="M192.40719 105.73908V62.78282h-79.13242v42.95626h-8.03313V17.3817h8.03313v38.07065h79.13242V17.38169h8.0358v88.3574z"/><path fill="#231f20" d="M364.75355 67.9259v37.81371h-8.05447V17.3817h44.08557c6.7465 0 12.52635.52665 17.3369 1.57516 4.81454 1.0505 8.75578 2.63847 11.82903 4.76082 3.07193 2.11874 5.3172 4.76814 6.73584 7.9414 1.4173 3.17285 2.1266 6.87956 2.1266 11.12479 0 6.60236-1.74128 11.8841-5.2212 15.85173-3.47857 3.9639-9.0891 6.67584-16.82224 8.13207l30.22858 38.97195h-10.11842L408.3258 67.6687c-1.20264.08693-2.42927.152-3.67324.19466-1.24797.0412-2.53727.06253-3.8679.06253zm65.80769-25.14204c0-3.77338-.66665-6.82743-1.99729-9.16484-1.33463-2.33488-3.50658-4.1479-6.5185-5.4348-3.00926-1.2865-6.95716-2.15315-11.83837-2.60353-4.88255-.44853-10.87306-.67345-17.96889-.67345h-27.48464v35.49644h27.22732c7.09582 0 13.097-.20413 17.99955-.61345 4.90387-.40519 8.88244-1.24117 11.9357-2.50674 3.05459-1.2641 5.25853-3.04259 6.61317-5.3368 1.35463-2.2938 2.03195-5.3484 2.03195-9.16283"/><path fill="none" stroke="#231f20" stroke-miterlimit="10" stroke-width="6.6665" d="M364.75355 67.9259v37.81371h-8.05447V17.3817h44.08557c6.7465 0 12.52635.52665 17.3369 1.57516 4.81454 1.0505 8.75578 2.63847 11.82903 4.76082 3.07193 2.11874 5.3172 4.76814 6.73584 7.9414 1.4173 3.17285 2.1266 6.87956 2.1266 11.12479 0 6.60236-1.74128 11.8841-5.2212 15.85173-3.47857 3.9639-9.0891 6.67584-16.82224 8.13207l30.22858 38.97195h-10.11842L408.3258 67.6687c-1.20264.08693-2.42927.152-3.67324.19466-1.24797.0412-2.53727.06253-3.8679.06253zm65.80769-25.14204c0-3.77338-.66665-6.82743-1.99729-9.16484-1.33463-2.33488-3.50658-4.1479-6.5185-5.4348-3.00926-1.2865-6.95716-2.15315-11.83837-2.60353-4.88255-.44853-10.87306-.67345-17.96889-.67345h-27.48464v35.49644h27.22732c7.09582 0 13.097-.20413 17.99955-.61345 4.90387-.40519 8.88244-1.24117 11.9357-2.50674 3.05459-1.2641 5.25853-3.04259 6.61317-5.3368 1.35463-2.2938 2.03195-5.3484 2.03195-9.16283z"/><path fill="#231f20" d="M468.66428 105.73908V17.3817h73.6955v7.52501h-64.94505v30.41644h61.66246v7.33155h-61.66246v35.55898h64.94504v7.52541h-73.69549"/><path fill="none" stroke="#231f20" stroke-miterlimit="10" stroke-width="6.6665" d="M468.66428 105.73908V17.3817h73.6955v7.52501h-64.94505v30.41644h61.66246v7.33155h-61.66246v35.55898h64.94504v7.52541z"/><path fill="#e96f18" d="M278.58637.01012L253.375 43.4677l7.9958 17.1569 17.21557-29.94884 15.32628 26.5676 19.79017 3.38125L278.58637.01012"/><path fill="#7a7e82" d="M37.42933 142.0772c0-1.00102-.09333-1.88642-.2792-2.65567-.18652-.76976-.45265-1.43752-.79997-2.00564-.34693-.56772-.76985-1.0453-1.2693-1.42916-.49946-.38386-1.06198-.69479-1.68903-.93172-.62598-.23759-1.30717-.40572-2.04315-.50318-.73638-.0984-1.51876-.14787-2.3478-.14787h-7.38835v15.3595h7.38834c1.2437 0 2.38115-.11822 3.41392-.35571 1.03277-.23594 1.91928-.6479 2.6594-1.2333.74051-.58542 1.31863-1.3734 1.73329-2.36141.41452-.98799.62185-2.23328.62185-3.73584zm1.6233-.00677c0 1.1786-.11667 2.2265-.3484 3.14262-.2328.91613-.56038 1.71455-.98384 2.39317-.42292.67864-.93638 1.25466-1.54063 1.7281-.60465.47498-1.27703.85361-2.01701 1.14006-.73959.28541-1.5433.49322-2.40994.62238-.86612.12969-1.77756.19479-2.73274.19479h-8.9935v-18.41568h8.9675c1.42917 0 2.75727.14786 3.9827.44212 1.2265.29533 2.28955.79798 3.19006 1.5089.90104.70931 1.60676 1.65462 2.11861 2.83433.51092 1.17855.76718 2.64936.76718 4.4092m21.5052 5.94412c-.3672.75572-.91718 1.40258-1.64836 1.94372-.73171.54164-1.6469.95726-2.74633 1.2536-1.0989.29427-2.38007.44114-3.8431.44114-1.4629 0-2.7442-.14687-3.8431-.44113-1.09891-.29635-2.01716-.71197-2.7526-1.25361-.73585-.54114-1.28744-1.188-1.65517-1.94372-.36759-.75466-.55198-1.59214-.55198-2.51347v-12.6252H45.103v12.7601c0 .6156.15426 1.19996.46305 1.74891.30826.54947.76718 1.02965 1.37597 1.44007.60891.41196 1.36143.73748 2.25834.97862.89571.24166 1.93582.36144 3.11966.36144 1.17503 0 2.2114-.11978 3.10832-.36144.8957-.24114 1.64836-.56666 2.25714-.97862.60892-.41042 1.0677-.8906 1.3761-1.44007.3088-.54895.46292-1.1333.46292-1.74892v-12.7601h1.58596v12.62521c0 .92133-.18386 1.75881-.55265 2.51347m22.11878 2.55307c-.59692.22395-1.21557.41614-1.85889.5776-.64265.15988-1.31863.28488-2.02901.37446-.71039.08958-1.48383.13333-2.32088.13333-1.03277 0-2.02381-.08958-2.97486-.26822-.95157-.17864-1.83688-.44635-2.65726-.80363-.82025-.35729-1.5645-.80154-2.23275-1.3333-.66772-.53228-1.24063-1.15101-1.71822-1.8562-.47799-.70675-.84571-1.50101-1.10357-2.38536-.25826-.88488-.38693-1.85464-.38693-2.9093 0-1.05414.12867-2.02391.38693-2.90775.25786-.88537.62558-1.67962 1.10357-2.3864.47759-.70572 1.0505-1.32397 1.71822-1.85622.66825-.53172 1.4125-.97598 2.23275-1.3333.82038-.3572 1.70422-.62545 2.65046-.80412.94798-.17866 1.94169-.26826 2.98166-.26826.83705 0 1.6105.0448 2.32088.13387.71038.0896 1.38636.21466 2.02901.37559.64332.1604 1.26197.35092 1.85889.56972.59585.2188 1.19837.46252 1.80729.73065v2.01048c-.48292-.3224-.99904-.62505-1.54903-.91198-.54999-.28546-1.14424-.53598-1.78329-.75051-.63905-.21466-1.32237-.38386-2.04995-.50932-.72758-.1256-1.5057-.18813-2.33474-.18813-1.6761 0-3.12752.19333-4.35469.57612-1.22704.38532-2.23994.9281-3.0394 1.62902-.79997.70159-1.39276 1.55103-1.77755 2.54687-.38492.9958-.57718 2.11036-.57718 3.34367 0 1.2333.19226 2.34578.57718 3.33742.3848.99216.97758 1.83849 1.77756 2.54004.79945.70154 1.81235 1.24268 3.03939 1.6213 1.22717.38021 2.6786.56926 4.3547.56926.82904 0 1.61342-.06145 2.35353-.18645.74065-.12552 1.4349-.29478 2.08168-.50936.64745-.21458 1.24424-.46301 1.79063-.74425.54585-.28124 1.04264-.57864 1.49116-.89164v1.99682c-.60892.26822-1.21144.5151-1.80729.73748m15.19549-16.07045l-5.14987 10.40132h10.2872zm8.30806 16.79439l-2.39781-4.86498H91.94877l-2.3974 4.86498h-1.73743l9.11964-18.41568h1.86395l9.12004 18.41568h-1.73742m9.62055-16.88759v16.88759h-1.57236v-16.88759h-7.9274v-1.5281h17.42717v1.5281h-7.9274m78.76243 16.88759l-15.14496-16.2168v16.2168h-1.5853v-18.41568h1.7493l15.14495 16.27198v-16.27198h1.55996v18.41568h-1.72395m35.52444-16.88759v16.88759h-1.5733v-16.88759h-7.92646v-1.5281h17.42623v1.5281h-7.92647m28.2073-1.5281l6.21584 17.07562 6.4425-17.07561h1.76396l-7.01449 18.41568h-2.3586l-6.11452-16.63293-6.10118 16.63293h-2.3586l-7.0145-18.41568h1.76262l6.44384 17.07561 6.20251-17.07561h2.13062m37.33506 9.22112c0-1.30517-.20133-2.45724-.60265-3.45825-.40132-.99992-.99597-1.8427-1.78262-2.52548-.78798-.68385-1.76662-1.2025-2.9386-1.5557-1.1733-.35199-2.53326-.52959-4.08123-.52959-1.54796 0-2.91326.18013-4.09323.53586-1.17997.35892-2.16794.87918-2.96392 1.56302-.79465.68279-1.39597 1.5281-1.80262 2.53325-.40533 1.00361-.60799 2.15046-.60799 3.43689 0 1.3057.20266 2.45775.60799 3.45876.40665.99998 1.00797 1.84266 1.80262 2.52546.79598.68384 1.78395 1.20258 2.96392 1.5557 1.17997.35206 2.54527.5281 4.09323.5281 1.54797 0 2.90793-.17604 4.08124-.5281 1.17197-.35312 2.1506-.87186 2.93859-1.5557.78665-.6828 1.3813-1.52548 1.78262-2.52546.40132-1.00101.60265-2.15306.60265-3.45876zm1.62396 0c0 1.6536-.284 3.08013-.84931 4.2827-.56665 1.20153-1.34397 2.19317-2.33328 2.97493-.98797.78227-2.1546 1.3609-3.49857 1.7359-1.34397.37603-2.79327.56248-4.3479.56248-1.56262 0-3.02125-.18645-4.37322-.56249-1.3533-.37499-2.5266-.95362-3.52525-1.7359-.99597-.78175-1.77862-1.77339-2.34394-2.97492-.56665-1.20257-.8493-2.6291-.8493-4.2827 0-1.09842.13065-2.09682.39198-2.99576.26266-.89736.63065-1.70094 1.10397-2.41186.47333-.71051 1.04531-1.32396 1.7173-1.84382.67198-.51758 1.41996-.94944 2.24394-1.2937.82398-.34266 1.70929-.59732 2.6546-.76238.94797-.16573 1.93995-.24853 2.97992-.24853 1.55463 0 3.00393.18747 4.3479.56306 1.34396.37492 2.5106.95357 3.49857 1.73582.98931.78185 1.76663 1.77342 2.33328 2.975.56532 1.20256.84931 2.62909.84931 4.28217m19.19019-3.92752c0-.78545-.13066-1.4213-.39332-1.90929-.26266-.48705-.68932-.8641-1.28264-1.13223-.59198-.26773-1.36797-.44906-2.32927-.54279-.96131-.09426-2.13862-.14106-3.53592-.14106h-5.40786v7.39873h5.3572c1.39596 0 2.57727-.0427 3.54258-.12709.96397-.0854 1.74795-.25989 2.34794-.52393.60132-.2625 1.03464-.63332 1.30263-1.11196.26533-.47707.39866-1.11456.39866-1.91038zm-12.94901 5.24103v7.88105h-1.58663v-18.41568h8.67579c1.32796 0 2.46527.10986 3.41324.32866.94665.21973 1.72263.54892 2.32661.99157.60399.4428 1.04664.99478 1.3253 1.65463.28.66252.41866 1.43436.41866 2.31874 0 1.37706-.34266 2.4786-1.02798 3.30357-.68398.82707-1.78795 1.39373-3.30925 1.69632l5.94785 8.12219h-1.99061l-5.61986-7.93418c-.236.0172-.47732.03177-.72265.03958-.24533.00938-.49865.01355-.76131.01355h-7.08916m21.67546-1.86246l12.95034-8.67217h2.20794l-12.773 8.83207 13.55832 9.58361h-2.70127l-13.24233-9.38205v9.38205h-1.62263v-18.41568h1.62263v8.67217m48.61745 9.74351v-18.41568h1.5853v18.41568h-1.5853m24.18873 0l-15.14496-16.2168v16.2168h-1.5853v-18.41568h1.75063l15.14362 16.27198v-16.27198h1.55996v18.41568h-1.72395m9.17043-16.84745v6.3399h11.59305v1.52809h-11.59305v8.97946h-1.58662v-18.41568h13.80099v1.56823h-12.21437m16.28626 16.84745v-18.41568h1.5853v16.848h12.73435v1.56768H423.4334m35.1018-3.277c-.368.7557-.91732 1.40257-1.64797 1.9437-.73198.54165-1.64795.95727-2.7466 1.25362-1.09863.29426-2.37993.44113-3.84256.44113-1.46397 0-2.74527-.14687-3.8439-.44113-1.09865-.29635-2.0173-.71197-2.75194-1.25361-.73598-.54114-1.28797-1.188-1.65596-1.94372-.36666-.75466-.55198-1.59214-.55198-2.51347v-12.6252h1.58662v12.7601c0 .6156.15333 1.19996.46266 1.74891.30799.54947.76665 1.02965 1.37596 1.44007.60799.41196 1.3613.73748 2.25728.97862.89598.24166 1.93729.36144 3.12126.36144 1.17463 0 2.2106-.11978 3.10658-.36144.89732-.24114 1.6493-.56666 2.25861-.97862.60799-.41042 1.06664-.8906 1.37597-1.44007.308-.54895.46266-1.1333.46266-1.74892v-12.7601h1.58529v12.62521c0 .92133-.184 1.75881-.55199 2.51347m42.59894 3.27701l-15.14362-16.2168v16.2168h-1.58663v-18.41568h1.75062l15.14496 16.27198v-16.27198h1.55996v18.41568h-1.7253m23.65008-.72394c-.59732.22395-1.21597.41614-1.85862.5776-.64265.15988-1.31863.28488-2.02928.37446-.71065.08958-1.48396.13333-2.32127.13333-1.03198 0-2.02262-.08958-2.9746-.26822-.95064-.17864-1.83728-.44635-2.65726-.80363-.81998-.35729-1.56396-.80154-2.23195-1.3333-.66798-.53228-1.2413-1.15101-1.71862-1.8562-.47866-.70675-.84531-1.50101-1.10397-2.38536-.25866-.88488-.38666-1.85464-.38666-2.9093 0-1.05414.128-2.02391.38666-2.90775.25866-.88537.62531-1.67962 1.10397-2.3864.47732-.70572 1.05064-1.32397 1.71862-1.85622.66799-.53172 1.41197-.97598 2.23195-1.3333.81998-.3572 1.70395-.62545 2.6506-.80412.94797-.17866 1.94128-.26826 2.98126-.26826.8373 0 1.61062.0448 2.32127.13387.71065.0896 1.38663.21466 2.02928.37559.64265.1604 1.2613.35092 1.85862.56972.59599.2188 1.19864.46252 1.80662.73065v2.01048c-.48265-.3224-.99864-.62505-1.54796-.91198-.55065-.28546-1.1453-.53598-1.78395-.75051-.63865-.21466-1.3213-.38386-2.04928-.50932-.72799-.1256-1.50663-.18813-2.33595-.18813-1.67462 0-3.12658.19333-4.35322.57612-1.22797.38532-2.24128.9281-3.03992 1.62902-.79998.70159-1.39197 1.55103-1.7773 2.54687-.38532.9958-.57731 2.11036-.57731 3.34367 0 1.2333.192 2.34578.57732 3.33742.38532.99216.9773 1.83849 1.77729 2.54004.79864.70154 1.81195 1.24268 3.03992 1.6213 1.22664.38021 2.6786.56926 4.35322.56926.82932 0 1.61463-.06145 2.35461-.18645.73998-.12552 1.43463-.29478 2.08128-.50936.64799-.21458 1.24397-.46301 1.79063-.74425.54532-.28124 1.04264-.57864 1.49062-.89164v1.99682c-.60798.26822-1.21063.5151-1.80662.73748m6.51184.72394v-18.41568h14.52364v1.56823h-12.79835v6.3399h12.1517v1.52809h-12.1517v7.41178h12.79701v1.56768h-14.5223m-329.87975 0v-18.41568h14.52363v1.56823H203.1416v6.3399h12.1517v1.52809h-12.1517v7.41178h12.79701v1.56768h-14.5223"/><path fill="#7b7979" d="M157.5134 141.85065v-3.4041l2.94659 1.70152 2.94792 1.70258-2.94792 1.701-2.9466 1.70307v-3.40407m195.9551 0v-3.4041l2.94793 1.70152 2.9466 1.70258-2.9466 1.701-2.94792 1.70307v-3.40407"/><path fill="#7a7e82" d="M464.79505 151.29155v-18.41568h14.5223v1.56823h-12.79701v6.3399h12.15036v1.52809h-12.15036v7.41178h12.79701v1.56768h-14.5223m-336.22946 0v-18.41568h14.52283v1.56823h-12.79794v6.3399h12.1513v1.52809h-12.1513v7.41178h12.7966v1.56768h-14.5215m-128.0531 0v-18.41568h14.52314v1.56823H2.23745v6.3399h12.15126v1.52809H2.23745v7.41178h12.7971v1.56768H.5125"/></svg>