<svg xmlns="http://www.w3.org/2000/svg" role="img" viewBox="7.39 21.89 382.46 258.71"><title>Sine Nomine Associates logo</title><path fill="#0492d2" d="M107.127 267.586h-9.185l-1.357 2.734c-.189.38-.282.679-.282.897 0 .418.33.707.988.869v.457h-6.684v-.457c.395-.077.696-.208.903-.398.208-.19.444-.561.71-1.111l7.434-14.94c.237-.475.356-.854.356-1.14 0-.436-.287-.75-.86-.938v-.457h7.168v.457c-.584.16-.874.44-.874.839 0 .276.093.589.281.94l7.7 14.982c.326.636.612 1.073.858 1.305.248.234.578.384.993.46v.458h-7.443v-.457c.657-.104.982-.398.982-.883 0-.2-.099-.494-.296-.883zm-1.268-2.663l-3.278-6.927-3.332 6.927zm29.94-10.173l-2.414 4.576-.414-.228c.01-.095.015-.17.015-.228 0-.322-.288-.67-.86-1.04-1.757-1.178-3.82-1.766-6.19-1.766-1.045 0-1.968.125-2.768.37-.582.19-1.056.476-1.416.855-.36.38-.538.793-.538 1.24 0 .725.46 1.224 1.377 1.49.474.132 1.49.277 3.05.427l2.325.227c1.381.143 2.497.339 3.351.584a8.02 8.02 0 0 1 2.275 1.04 4.918 4.918 0 0 1 1.59 1.838c.39.755.587 1.566.587 2.43 0 1.368-.458 2.583-1.377 3.646-.83.964-2.117 1.68-3.864 2.147-1.303.349-2.7.525-4.192.525-2.674 0-5.315-.617-7.92-1.852-.553-.245-.885-.37-.994-.37-.127 0-.33.106-.606.315l-.43-.214 2.192-4.771.43.2v.185c0 .427.211.82.636 1.181.641.55 1.634 1.025 2.976 1.424 1.343.398 2.616.598 3.82.598 1.313 0 2.434-.213 3.362-.64a3.186 3.186 0 0 0 1.229-.946c.305-.393.459-.801.459-1.228 0-.642-.36-1.103-1.081-1.377-.504-.19-1.52-.365-3.05-.527l-2.28-.228c-1.532-.152-2.612-.294-3.243-.433a8.537 8.537 0 0 1-1.895-.663 4.85 4.85 0 0 1-2.118-1.923c-.464-.769-.697-1.657-.697-2.654 0-1.643.588-3 1.763-4.074 1.54-1.418 3.85-2.124 6.93-2.124 1.292 0 2.497.127 3.613.379 1.115.252 2.507.716 4.175 1.396.573.218.924.327 1.052.327.206 0 .449-.109.725-.327l.415.213m21.841 0l-2.413 4.576-.415-.228c.01-.095.015-.17.015-.228 0-.322-.287-.67-.859-1.04-1.757-1.178-3.82-1.766-6.19-1.766-1.046 0-1.969.125-2.77.37-.581.19-1.056.476-1.416.855-.36.38-.537.793-.537 1.24 0 .725.458 1.224 1.377 1.49.473.132 1.49.277 3.05.427l2.325.227c1.381.143 2.496.339 3.35.584a8.02 8.02 0 0 1 2.276 1.04 4.923 4.923 0 0 1 1.588 1.838 5.2 5.2 0 0 1 .588 2.43c0 1.368-.458 2.583-1.376 3.646-.83.964-2.118 1.68-3.864 2.147-1.304.349-2.7.525-4.192.525-2.674 0-5.316-.617-7.921-1.852-.553-.245-.884-.37-.992-.37-.128 0-.33.106-.608.315l-.43-.214 2.193-4.771.429.2v.185c0 .427.212.82.637 1.181.642.55 1.634 1.025 2.976 1.424 1.343.398 2.616.598 3.82.598 1.312 0 2.434-.213 3.362-.64a3.188 3.188 0 0 0 1.229-.946c.305-.393.459-.801.459-1.228 0-.642-.36-1.103-1.082-1.377-.502-.19-1.52-.365-3.05-.527l-2.28-.228c-1.53-.152-2.611-.294-3.243-.433a8.553 8.553 0 0 1-1.895-.663 4.845 4.845 0 0 1-2.117-1.923c-.465-.769-.696-1.657-.696-2.654 0-1.643.587-3 1.761-4.074 1.54-1.418 3.851-2.124 6.931-2.124 1.293 0 2.497.127 3.612.379 1.116.252 2.507.716 4.176 1.396.572.218.923.327 1.052.327.207 0 .448-.109.724-.327l.416.213m14.145-1.988c3.53 0 6.322.915 8.387 2.748 2.187 1.916 3.276 4.396 3.276 7.434 0 1.86-.523 3.597-1.568 5.212-2.05 3.152-5.401 4.727-10.065 4.727-3.495 0-6.279-.915-8.342-2.748a9.587 9.587 0 0 1-2.517-3.518 9.776 9.776 0 0 1-.755-3.802c0-1.947.518-3.727 1.555-5.34 1.984-3.087 5.33-4.657 10.03-4.713zm.016 3.302c-1.925 0-3.534.552-4.818 1.653-1.52 1.301-2.28 3-2.28 5.107 0 2.104.76 3.807 2.28 5.11 1.284 1.095 2.902 1.645 4.846 1.645 1.95 0 3.559-.55 4.832-1.646a6.505 6.505 0 0 0 1.752-2.407 6.69 6.69 0 0 0 .535-2.616c0-2.203-.761-3.936-2.287-5.193-1.292-1.084-2.91-1.633-4.86-1.653m34.409 9.798l2.813 4.055-.386.255c-.276-.245-.502-.37-.681-.37-.177 0-.675.228-1.495.684-1.697.94-3.128 1.577-4.289 1.904-1.161.333-2.539.493-4.139.493-3.188 0-5.804-.726-7.846-2.179a9.27 9.27 0 0 1-2.844-3.147c-.8-1.434-1.2-3.014-1.2-4.742 0-2.354.716-4.4 2.148-6.138 2.152-2.61 5.404-3.915 9.757-3.915 1.6 0 2.972.16 4.121.484 1.144.322 2.575.957 4.292 1.907.82.447 1.318.67 1.495.67.179 0 .405-.124.681-.37l.386.256-2.814 4.058-.4-.256c.022-.153.031-.275.031-.38 0-.275-.124-.532-.37-.773-.246-.243-.686-.533-1.318-.874a11.527 11.527 0 0 0-5.556-1.42c-2.31 0-4.15.556-5.523 1.667-1.618 1.3-2.428 2.995-2.428 5.093 0 2.095.81 3.793 2.428 5.094 1.372 1.107 3.214 1.66 5.523 1.66 1.955 0 3.808-.473 5.556-1.422.632-.343 1.072-.632 1.317-.874.247-.243.371-.502.371-.779 0-.104-.01-.227-.03-.37l.4-.271m6.795 5.184v-16.463c0-.285-.068-.503-.206-.653-.138-.153-.386-.277-.739-.371v-.457h6.307v.457c-.356.085-.602.208-.742.366-.137.155-.206.373-.206.658v16.463c0 .295.069.522.213.68.141.155.388.275.735.36v.457h-6.307v-.457c.353-.095.601-.218.739-.37.138-.151.206-.375.206-.67m23.792-3.46h-9.185l-1.359 2.734c-.188.38-.281.679-.281.897 0 .418.332.707.987.869v.457h-6.68v-.457c.393-.077.693-.208.9-.398.206-.19.445-.561.712-1.111l7.433-14.94c.237-.475.355-.854.355-1.14 0-.436-.286-.75-.859-.938v-.457h7.168v.457c-.584.16-.876.44-.876.839 0 .276.096.589.283.94l7.701 14.982c.325.636.612 1.073.857 1.305.248.234.579.384.992.46v.458h-7.442v-.457c.656-.104.981-.398.981-.883 0-.2-.099-.494-.296-.883zm-1.269-2.663l-3.277-6.927-3.332 6.927zm19.56-8.616v14.74c0 .294.07.518.208.668.139.153.384.276.741.37v.458h-6.309v-.457c.355-.095.603-.218.74-.37.139-.151.208-.375.208-.67v-14.74h-6.28c-.293 0-.521.068-.679.196-.16.131-.286.37-.386.716h-.474v-5.027h.474c.109.346.237.584.39.717.154.127.382.194.675.194h16.956c.307 0 .539-.067.697-.194.156-.133.287-.37.386-.717h.472v5.027h-.472c-.099-.345-.23-.585-.386-.716-.158-.128-.39-.195-.697-.195h-6.264m15.193 7.705v5.326h13c.296 0 .524-.067.682-.2.158-.131.286-.37.385-.711h.475v5.026h-.475c-.099-.34-.227-.58-.385-.711-.158-.134-.386-.199-.682-.199H264.92v-.457c.356-.095.603-.218.741-.37.139-.151.207-.375.207-.67v-16.45c0-.293-.068-.516-.207-.666-.138-.153-.385-.277-.741-.371v-.457h18.007c.297 0 .524-.067.68-.204.158-.131.286-.371.385-.707h.475v5.027h-.475c-.099-.336-.227-.575-.385-.708-.156-.136-.383-.203-.68-.203H270.28v4.615h8.203c.295 0 .523-.069.68-.2.16-.133.288-.37.387-.713h.472v4.914h-.472c-.099-.334-.227-.565-.387-.702-.157-.139-.385-.21-.68-.21h-8.203m36.487-9.261l-2.415 4.576-.415-.228c.011-.095.016-.17.016-.228 0-.322-.286-.67-.86-1.04-1.757-1.178-3.82-1.766-6.189-1.766-1.047 0-1.968.125-2.77.37-.582.19-1.054.476-1.415.855-.36.38-.538.793-.538 1.24 0 .725.458 1.224 1.376 1.49.475.132 1.492.277 3.05.427l2.326.227c1.383.143 2.498.339 3.351.584a8.037 8.037 0 0 1 2.276 1.04 4.942 4.942 0 0 1 1.59 1.838 5.22 5.22 0 0 1 .586 2.43c0 1.368-.46 2.583-1.377 3.646-.83.964-2.116 1.68-3.864 2.147-1.303.349-2.7.525-4.191.525-2.675 0-5.315-.617-7.921-1.852-.552-.245-.883-.37-.992-.37-.13 0-.331.106-.607.315l-.43-.214 2.191-4.771.43.2v.185c0 .427.212.82.634 1.181.644.55 1.636 1.025 2.979 1.424 1.343.398 2.615.598 3.819.598 1.314 0 2.433-.213 3.362-.64a3.183 3.183 0 0 0 1.228-.946c.307-.393.46-.801.46-1.228 0-.642-.36-1.103-1.081-1.377-.504-.19-1.52-.365-3.05-.527l-2.28-.228c-1.53-.152-2.611-.294-3.243-.433a8.61 8.61 0 0 1-1.896-.663 4.856 4.856 0 0 1-2.116-1.923c-.464-.769-.696-1.657-.696-2.654 0-1.643.586-3 1.761-4.074 1.54-1.418 3.85-2.124 6.93-2.124 1.293 0 2.498.127 3.613.379 1.116.252 2.506.716 4.176 1.396.572.218.922.327 1.05.327.208 0 .45-.109.726-.327l.416.213"/><path fill="#015f8c" d="M46.25 211.338l-3.904 7.404-.671-.366c.015-.155.025-.278.025-.37 0-.521-.464-1.08-1.393-1.68-2.841-1.908-6.179-2.857-10.013-2.857-1.695 0-3.187.199-4.48.597-.943.304-1.705.765-2.287 1.384-.584.61-.874 1.28-.874 1.997 0 1.182.74 1.989 2.225 2.421.768.214 2.414.44 4.937.688l3.76.37c2.236.229 4.048.546 5.428.946 1.381.398 2.607.958 3.679 1.679 1.086.751 1.942 1.743 2.575 2.968a8.521 8.521 0 0 1 .944 3.94c0 2.206-.74 4.17-2.226 5.89-1.343 1.567-3.426 2.726-6.253 3.48-2.108.565-4.368.85-6.782.85-4.33 0-8.6-.997-12.818-2.994-.893-.4-1.427-.6-1.604-.6-.208 0-.536.171-.982.51l-.697-.349 3.549-7.718.693.324v.299c0 .692.344 1.329 1.03 1.912 1.038.892 2.646 1.657 4.817 2.303 2.171.645 4.23.968 6.18.968 2.124 0 3.938-.347 5.439-1.035.829-.385 1.493-.892 1.99-1.53.492-.635.742-1.3.742-1.987 0-1.046-.585-1.785-1.75-2.232-.814-.309-2.458-.588-4.936-.849l-3.69-.37c-2.474-.249-4.224-.48-5.246-.703a13.922 13.922 0 0 1-3.068-1.072 7.856 7.856 0 0 1-3.425-3.115c-.75-1.244-1.125-2.672-1.125-4.288 0-2.662.95-4.861 2.85-6.597 2.493-2.289 6.231-3.432 11.212-3.432 2.092 0 4.042.204 5.849.612 1.8.408 4.054 1.159 6.754 2.254.926.357 1.493.533 1.7.533.336 0 .726-.176 1.176-.533l.67.348m6.447 26.369v-26.636c0-.46-.114-.817-.337-1.058-.224-.248-.624-.446-1.198-.603v-.737h10.207v.737c-.578.137-.975.336-1.2.588-.222.256-.336.612-.336 1.073v26.636c0 .476.12.84.349 1.097.232.252.627.447 1.187.584v.741H51.162v-.741c.574-.153.974-.352 1.198-.597.223-.248.337-.608.337-1.084m22.615-19.125v19.125c0 .476.111.836.336 1.084.222.245.622.444 1.196.597v.741h-9.607v-.741c.576-.153.976-.352 1.2-.597.221-.248.336-.608.336-1.084v-26.636c0-.46-.115-.817-.336-1.058-.224-.248-.624-.446-1.2-.603v-.737h11.116v.737c-.687.171-1.03.522-1.03 1.064 0 .365.225.774.672 1.219l18.04 18.043V211.07c0-.46-.111-.817-.333-1.058-.227-.248-.624-.446-1.2-.603v-.737h9.608v.737c-.575.157-.975.355-1.196.603-.228.24-.336.597-.336 1.058v26.636c0 .476.108.836.336 1.084.221.245.621.444 1.196.597v.741H93.807v-.741c.67-.137 1.006-.466 1.006-.987 0-.308-.389-.845-1.174-1.616l-18.327-18.203m43.366 7.744v8.62h21.034c.479 0 .845-.108 1.103-.324.254-.218.464-.602.621-1.152h.765v8.132h-.765c-.157-.551-.367-.936-.621-1.15-.258-.218-.624-.322-1.103-.322h-29.709v-.741c.575-.153.975-.352 1.197-.597.225-.248.336-.608.336-1.084v-26.612c0-.48-.11-.841-.336-1.082-.222-.248-.622-.446-1.197-.603v-.737h29.133c.48 0 .847-.109 1.101-.327.258-.218.464-.602.624-1.15h.768v8.137h-.768c-.16-.544-.366-.93-.624-1.147-.254-.22-.621-.328-1.101-.328h-20.458v7.467h13.272c.479 0 .844-.11 1.101-.322.257-.215.464-.599.621-1.155h.77v7.953h-.77c-.157-.537-.364-.918-.62-1.14-.258-.222-.623-.336-1.102-.336h-13.272m48.943-7.743v19.125c0 .476.114.836.336 1.084.224.245.624.444 1.199.597v.741h-9.608v-.741c.576-.153.975-.352 1.197-.597.224-.248.336-.608.336-1.084v-26.636c0-.46-.112-.817-.336-1.058-.222-.248-.621-.446-1.197-.603v-.737h11.119v.737c-.687.171-1.032.522-1.032 1.064 0 .365.222.774.672 1.219l18.038 18.043V211.07c0-.46-.11-.817-.334-1.058-.223-.248-.623-.446-1.196-.603v-.737h9.606v.737c-.576.157-.974.355-1.2.603-.221.24-.336.597-.336 1.058v26.636c0 .476.115.836.336 1.084.226.245.624.444 1.2.597v.741H186.12v-.741c.668-.137 1.004-.466 1.004-.987 0-.308-.392-.845-1.172-1.616l-18.33-18.203m52.459-10.457c5.706 0 10.228 1.481 13.568 4.443 3.535 3.104 5.302 7.116 5.302 12.03 0 3.009-.848 5.823-2.543 8.434-3.305 5.098-8.735 7.648-16.276 7.648-5.657 0-10.159-1.482-13.5-4.447a15.443 15.443 0 0 1-4.072-5.692 15.682 15.682 0 0 1-1.224-6.153c0-3.147.839-6.03 2.517-8.64 3.212-4.988 8.622-7.533 16.228-7.623zm.026 5.345c-3.119 0-5.716.887-7.794 2.668-2.462 2.103-3.698 4.855-3.698 8.264 0 3.41 1.236 6.161 3.698 8.264 2.078 1.782 4.694 2.669 7.843 2.669 3.15 0 5.755-.887 7.819-2.669a10.508 10.508 0 0 0 2.826-3.89 10.76 10.76 0 0 0 .866-4.236c0-3.56-1.23-6.362-3.692-8.402-2.098-1.747-4.72-2.64-7.868-2.668m44.106 26.661l-12.064-21.734v19.311c0 .476.114.836.336 1.084.223.245.622.444 1.199.597v.741h-9.61v-.741c.578-.153.978-.352 1.2-.597.223-.248.335-.608.335-1.084v-26.636c0-.46-.112-.817-.336-1.058-.221-.248-.621-.446-1.198-.603v-.737h12.606v.737c-.75.185-1.126.607-1.126 1.269 0 .307.114.66.336 1.063L264.816 228l9.035-15.985c.401-.708.602-1.22.602-1.542 0-.632-.398-.983-1.198-1.064v-.737h12.364v.737c-.572.157-.972.355-1.195.603-.227.24-.335.597-.335 1.058v26.636c0 .476.108.836.335 1.084.223.245.623.444 1.195.597v.741h-10.207v-.741c.563-.137.957-.332 1.19-.584.231-.257.346-.621.346-1.097v-19.31l-12.735 21.732m28.81-2.421v-26.636c0-.46-.108-.817-.336-1.058-.223-.248-.623-.446-1.194-.603v-.737h10.202v.737c-.574.137-.974.336-1.195.588-.227.256-.336.612-.336 1.073v26.636c0 .476.115.84.345 1.097.232.252.627.447 1.186.584v.741h-10.202v-.741c.571-.153.971-.352 1.194-.597.228-.248.336-.608.336-1.084m22.616-19.125v19.125c0 .476.113.836.334 1.084.227.245.627.444 1.2.597v.741h-9.605v-.741c.572-.153.972-.352 1.195-.597.228-.248.336-.608.336-1.084v-26.636c0-.46-.108-.817-.336-1.058-.223-.248-.623-.446-1.195-.603v-.737h11.116v.737c-.687.171-1.03.522-1.03 1.064 0 .365.22.774.669 1.219l18.04 18.043V211.07c0-.46-.108-.817-.335-1.058-.223-.248-.623-.446-1.195-.603v-.737h9.606v.737c-.574.157-.974.355-1.2.603-.222.24-.335.597-.335 1.058v26.636c0 .476.113.836.335 1.084.226.245.626.444 1.2.597v.741h-10.3v-.741c.669-.137 1.005-.466 1.005-.987 0-.308-.393-.845-1.175-1.616l-18.33-18.203m43.364 7.744v8.62h21.037c.479 0 .848-.108 1.1-.324.257-.218.465-.602.63-1.152h.762v8.132h-.763c-.164-.551-.372-.936-.629-1.15-.252-.218-.621-.322-1.1-.322h-29.707v-.741c.575-.153.975-.352 1.198-.597.222-.248.336-.608.336-1.084v-26.612c0-.48-.114-.841-.336-1.082-.223-.248-.623-.446-1.198-.603v-.737h29.135c.48 0 .843-.109 1.1-.327.257-.218.464-.602.623-1.15h.762v8.137h-.762c-.159-.544-.366-.93-.623-1.147-.257-.22-.62-.328-1.1-.328h-20.465v7.467h13.273c.484 0 .85-.11 1.105-.322.252-.215.464-.599.622-1.155h.766v7.953h-.766c-.158-.537-.37-.918-.622-1.14-.256-.222-.621-.336-1.105-.336h-13.273"/><path fill="#fff" d="M151.339 189.516l-47.346-78.87 47.346-78.873h94.696l47.346 78.874-47.346 78.87h-94.696"/><path fill="#015f8c" d="M151.34 191.995v-2.479l2.23-1.24-2.23 1.24v2.479h-1.492l-48.836-81.348 48.836-81.358h97.672l48.836 81.353-48.836 81.353zm93.201-4.963l45.855-76.39-45.855-76.389h-91.713l-45.857 76.394 45.852 76.385h91.718"/><path fill="#0492d2" d="M212.357 80.974c-3.928-3.44-8.629-5.449-13.674-5.449-5.048 0-9.743 2.008-13.672 5.449 3.929 3.444 8.628 5.453 13.672 5.454 5.045-.001 9.746-2.012 13.674-5.454m6.427-17.857c-5.775-3.44-12.68-5.449-20.101-5.449-7.422 0-14.324 2.01-20.098 5.453 5.774 3.44 12.679 5.449 20.098 5.451 7.421-.002 14.326-2.01 20.101-5.455m11.14-17.856c-8.973-3.442-19.705-5.45-31.241-5.45-11.535 0-22.266 2.01-31.238 5.453 8.972 3.442 19.708 5.452 31.238 5.452 11.533 0 22.268-2.01 31.241-5.455"/><path fill="#015f8c" d="M185.01 140.32c3.93 3.443 8.625 5.45 13.678 5.45 5.04 0 9.741-2.01 13.67-5.452-3.929-3.441-8.63-5.45-13.67-5.452-5.05 0-9.75 2.01-13.677 5.454m-6.426 17.855c5.774 3.441 12.676 5.448 20.103 5.448 7.416 0 14.321-2.007 20.096-5.448-5.775-3.442-12.68-5.453-20.096-5.453-7.424 0-14.33 2.011-20.103 5.453m-11.14 17.858c8.972 3.441 19.703 5.445 31.243 5.445 11.53.005 22.263-2.009 31.236-5.45-8.973-3.442-19.708-5.45-31.236-5.45-11.537 0-22.27 2.008-31.243 5.455"/><path fill="#0492d2" d="M165.13 114.095c-1.135 4.991-.598 9.906 1.93 14.113 2.521 4.206 6.683 7.112 11.747 8.663 1.132-4.993.594-9.911-1.928-14.115-2.524-4.203-6.686-7.11-11.75-8.66m-19.29 3.571c-.214 6.53 1.428 13.288 5.142 19.47a37.422 37.422 0 0 0 14.958 14.014c.213-6.53-1.432-13.284-5.138-19.466a37.498 37.498 0 0 0-14.962-14.018m-21.649-.352c1.387 9.199 4.943 19.14 10.713 28.75 5.765 9.608 12.941 17.54 20.528 23.293-1.387-9.195-4.943-19.14-10.711-28.746-5.768-9.607-12.944-17.543-20.53-23.297"/><path fill="#015f8c" d="M232.239 107.199c1.136-4.993.592-9.91-1.93-14.116-2.522-4.206-6.684-7.11-11.748-8.663-1.134 4.995-.592 9.912 1.931 14.116 2.521 4.204 6.683 7.113 11.747 8.663m19.293-3.576c.208-6.528-1.43-13.285-5.148-19.466a37.378 37.378 0 0 0-14.953-14.015c-.215 6.528 1.43 13.284 5.136 19.466a37.442 37.442 0 0 0 14.965 14.015m21.649.353c-1.388-9.197-4.946-19.14-10.717-28.748-5.764-9.61-12.941-17.54-20.525-23.295 1.385 9.195 4.944 19.141 10.704 28.747 5.776 9.608 12.952 17.542 20.538 23.296"/><path fill="#0492d2" d="M218.565 136.871c5.06-1.55 9.222-4.457 11.75-8.665 2.521-4.205 3.06-9.12 1.924-14.115-5.064 1.555-9.226 4.462-11.747 8.663-2.523 4.206-3.065 9.124-1.927 14.117m12.865 14.282a37.457 37.457 0 0 0 14.96-14.019c3.706-6.18 5.35-12.935 5.142-19.467a37.426 37.426 0 0 0-14.96 14.016c-3.71 6.184-5.35 12.94-5.141 19.47m10.508 18.205c7.584-5.753 14.761-13.683 20.532-23.293 5.764-9.61 9.317-19.551 10.705-28.747-7.581 5.754-14.757 13.69-20.528 23.294-5.765 9.608-9.324 19.551-10.71 28.746"/><path fill="#015f8c" d="M178.801 84.42c-5.064 1.553-9.214 4.461-11.741 8.669-2.528 4.2-3.065 9.119-1.93 14.11 5.066-1.55 9.225-4.46 11.746-8.66 2.523-4.207 3.063-9.127 1.925-14.12m-12.862-14.277a37.385 37.385 0 0 0-14.958 14.017c-3.714 6.179-5.353 12.936-5.141 19.467a37.421 37.421 0 0 0 14.957-14.018c3.71-6.18 5.355-12.939 5.142-19.466m-10.509-18.21c-7.586 5.755-14.762 13.687-20.527 23.298-5.77 9.606-9.324 19.551-10.71 28.746 7.586-5.754 14.762-13.688 20.527-23.292 5.77-9.61 9.324-19.556 10.71-28.752"/></svg>