<svg xmlns="http://www.w3.org/2000/svg" role="img" viewBox="-7.97 6.03 414.18 219.93"><title>SMC Tools logo</title><style>svg {enable-background:new 0 0 400 245}</style><style id="style256" type="text/css">.st0{fill:#4c83c3}</style><g id="g384" transform="translate(0 -28)"><path id="polygon258" fill="#4c83c3" d="M336.1 42.1L398.3 42.1 398.3 53.5 332 53.5z" class="st0"/><path id="path260" fill="#4c83c3" d="m 221.5,42.1 h 61.6 l 4,11.5 c 0,0 -65.6,0 -65.6,0 0.1,-0.1 0,-11.5 0,-11.5 z" class="st0"/><path id="path262" fill="#4c83c3" d="m 172.7,42.1 c 10.1,1 19,4.6 26.5,11.5 0,0 -111.6,0 -111.6,0 0,0 0,-11.5 0,-11.5 z" class="st0"/><g id="g268"><path id="rect264" fill="#4c83c3" d="M0 42.1H77.5V53.5H0z" class="st0"/></g><path id="path270" fill="#4c83c3" d="m 398.3,75 h -73.9 c 0,0 4,-11.4 4,-11.4 h 69.9 z" class="st0"/><path id="polygon272" fill="#4c83c3" d="M221.5 63.6L290.7 63.6 294.8 75 221.5 75z" class="st0"/><path id="path274" fill="#4c83c3" d="m 207.8,63.6 c 1.5,3.8 3.2,7 3.2,11.4 H 87.6 V 63.6 Z" class="st0"/><g id="g280"><path id="rect276" fill="#4c83c3" d="M0 63.6H77.5V75H0z" class="st0"/></g><path id="polygon282" fill="#4c83c3" d="M376.4 85.1L376.4 96.5 316.8 96.5 320.9 85.1z" class="st0"/><path id="polygon284" fill="#4c83c3" d="M243.4 96.5L243.4 85.1 298.3 85.1 302.4 96.5z" class="st0"/><path id="path286" fill="#4c83c3" d="m 212,85 c 0,3.9 -0.5,8 -1.6,11.4 H 176.6 V 85 Z" class="st0"/><g id="g292"><path id="rect288" fill="#4c83c3" d="M21.6 85.1H54.9V96.5H21.6z" class="st0"/></g><g id="g298"><path id="rect294" fill="#4c83c3" d="M110 85H143.3V96.4H110z" class="st0"/></g><path id="path300" fill="#4c83c3" d="m 276.1,108.8 c 0,0 0,8.7 0,8.7 h -32.8 v -11.4 h 62.4 l 3.9,10.6 c 0,0 3.7,-10.6 3.7,-10.6 h 62.9 v 11.4 h -32.6 c 0,0 0,-8.7 0,-8.7 l -3,8.7 H 279 Z" class="st0"/><path id="path302" fill="#4c83c3" d="m 110,106.1 h 95.5 v 0 c -2.1,3.8 -5.9,8.4 -9.5,11.4 0,0 -86,0 -86,0 0,0 0,-11.4 0,-11.4 z" class="st0"/><g id="g308"><path id="rect304" fill="#4c83c3" d="M21.6 106.1H54.9V117.5H21.6z" class="st0"/></g><g id="g314"><path id="rect310" fill="#4c83c3" d="M343.8 127.6H376.40000000000003V139H343.8z" class="st0"/></g><path id="path316" fill="#4c83c3" d="M 276.1,127.6 H 243.3 V 139 c 0,0 32.8,0 32.8,0 0,-0.1 0.1,-11.4 0,-11.4 z" class="st0"/><path id="path318" fill="#4c83c3" d="m 337.2,127.6 c -0.1,0 -3.8,11.4 -4,11.4 h -46.4 c 0,0 -4.1,-11.4 -4.1,-11.4 z" class="st0"/><path id="path320" fill="#4c83c3" d="m 110,127.6 h 85.8 c 3.9,3.3 7.5,7.3 10.2,11.4 0.2,0 -96.1,0 -96.1,0 0.1,-0.1 0.1,-11.4 0.1,-11.4 z" class="st0"/><path id="path322" fill="#4c83c3" d="M 54.9,138.9 V 127.5 H 21.7 c 0,0 0,11.4 0,11.4 0,0 33.2,0 33.2,0 z" class="st0"/><g id="g328"><path id="rect324" fill="#4c83c3" d="M343.8 149H376.40000000000003V160.4H343.8z" class="st0"/></g><g id="g334"><path id="rect330" fill="#4c83c3" d="M243.4 149H276.2V160.4H243.4z" class="st0"/></g><path id="path336" fill="#4c83c3" d="m 325.6,160.4 c 0,-0.1 4,-11.4 4.1,-11.4 h -39.5 c -0.1,0 4,11.4 4,11.4 0,0 31.4,0.1 31.4,0 z" class="st0"/><path id="path338" fill="#4c83c3" d="m 110,160.4 c 0,0 0,-11.4 0,-11.4 h 33.8 c 0,0 0,11.4 0,11.4 -0.1,0 -33.8,0 -33.8,0 z" class="st0"/><path id="path340" fill="#4c83c3" d="m 210.8,149 c 1.6,3.4 1.8,7.5 2.1,11.4 H 177.1 V 149 Z" class="st0"/><g id="g346"><path id="rect342" fill="#4c83c3" d="M21.7 149H55V160.4H21.7z" class="st0"/></g><g id="g352"><path id="rect348" fill="#4c83c3" d="M343.8 170H398.3V181.4H343.8z" class="st0"/></g><g id="g358"><path id="rect354" fill="#4c83c3" d="M221.5 170H276.1V181.4H221.5z" class="st0"/></g><path id="polygon360" fill="#4c83c3" d="M297.6 170L322.1 170 318.2 181.4 301.6 181.4z" class="st0"/><path id="path362" fill="#4c83c3" d="m 0,170 v 11.4 h 77.5 c 0,0 0,-11.4 0,-11.4 0,0 -77.6,0 -77.5,0 z" class="st0"/><path id="path364" fill="#4c83c3" d="m 211.5,170 c -0.8,3.8 -1.6,8.3 -4.3,11.4 h -1 H 87.6 V 170 Z" class="st0"/><path id="polygon366" fill="#4c83c3" d="M305.3 191.5L314.7 191.5 310.7 202.9 309.2 202.9z" class="st0"/><g id="g372"><path id="rect368" fill="#4c83c3" d="M343.8 191.5H398.3V202.9H343.8z" class="st0"/></g><path id="path374" fill="#4c83c3" d="m 87.6,202.9 v -11.4 c 0,0 111.9,0 112.2,0 -7.5,7.2 -17.8,11.2 -28.9,11.4 H 87.6" class="st0"/><g id="g380"><path id="rect376" fill="#4c83c3" d="M221.5 191.5H276.1V202.9H221.5z" class="st0"/></g><path id="path382" fill="#4c83c3" d="m 77.5,191.5 c 0,0 0,11.4 0,11.4 0,0 -77.4,0 -77.5,0 0,0 0,-11.4 0,-11.4 0,0 77.4,0.1 77.5,0 z" class="st0"/></g><g id="text652" fill="#000" fill-opacity="1" stroke="none"><path id="path712" d="m 378.47118,211.49459 q 0,1.39453 -1.15755,2.28776 -1.14844,0.89323 -3.14454,0.89323 -1.13021,0 -2.07813,-0.26432 -0.9388,-0.27344 -1.57683,-0.59245 v -1.92318 h 0.0911 q 0.8112,0.61068 1.80469,0.97526 0.99349,0.35547 1.90495,0.35547 1.13021,0 1.76823,-0.36458 0.63803,-0.36459 0.63803,-1.14844 0,-0.60157 -0.34636,-0.91146 -0.34635,-0.3099 -1.33073,-0.52865 -0.36458,-0.082 -0.95703,-0.1914 -0.58334,-0.10938 -1.06641,-0.23698 -1.33985,-0.35547 -1.90495,-1.03907 -0.55599,-0.69271 -0.55599,-1.69531 0,-0.62891 0.25521,-1.1849 0.26432,-0.55599 0.79297,-0.99349 0.51041,-0.42839 1.29427,-0.67448 0.79297,-0.25521 1.76823,-0.25521 0.91146,0 1.84115,0.22786 0.9388,0.21875 1.5586,0.53776 v 1.83204 h -0.0911 q -0.65625,-0.48308 -1.59505,-0.8112 -0.93881,-0.33724 -1.84115,-0.33724 -0.93881,0 -1.58594,0.36458 -0.64714,0.35547 -0.64714,1.06641 0,0.62891 0.39193,0.94792 0.38281,0.31901 1.23958,0.51953 0.47396,0.10938 1.0573,0.21875 0.59245,0.10938 0.98437,0.20052 1.19402,0.27344 1.84115,0.93881 0.64714,0.67448 0.64714,1.78646 z m -10.6823,2.9349 h -1.71355 v -14.18232 h 1.71355 z m -4.39324,-5.08595 q 0,2.48829 -1.27604,3.92839 -1.27605,1.44011 -3.41798,1.44011 -2.16016,0 -3.4362,-1.44011 -1.26693,-1.4401 -1.26693,-3.92839 0,-2.48828 1.26693,-3.92839 1.27604,-1.44922 3.4362,-1.44922 2.14193,0 3.41798,1.44922 1.27604,1.44011 1.27604,3.92839 z m -1.76823,0 q 0,-1.97787 -0.77474,-2.9349 -0.77474,-0.96615 -2.15105,-0.96615 -1.39453,0 -2.16927,0.96615 -0.76563,0.95703 -0.76563,2.9349 0,1.91407 0.77474,2.90756 0.77474,0.98438 2.16016,0.98438 1.36719,0 2.14193,-0.97527 0.78386,-0.98437 0.78386,-2.91667 z m -9.57033,0 q 0,2.48829 -1.27605,3.92839 -1.27604,1.44011 -3.41797,1.44011 -2.16016,0 -3.4362,-1.44011 -1.26693,-1.4401 -1.26693,-3.92839 0,-2.48828 1.26693,-3.92839 1.27604,-1.44922 3.4362,-1.44922 2.14193,0 3.41797,1.44922 1.27605,1.44011 1.27605,3.92839 z m -1.76823,0 q 0,-1.97787 -0.77474,-2.9349 -0.77475,-0.96615 -2.15105,-0.96615 -1.39453,0 -2.16927,0.96615 -0.76563,0.95703 -0.76563,2.9349 0,1.91407 0.77474,2.90756 0.77474,0.98438 2.16016,0.98438 1.36719,0 2.14193,-0.97527 0.78386,-0.98437 0.78386,-2.91667 z m -8.61329,-6.88152 h -4.84897 v 11.96747 h -1.80469 v -11.96747 h -4.84896 v -1.60417 h 11.50262 z m -19.67842,11.96747 h -1.71354 v -5.79689 q 0,-0.70182 -0.082,-1.3125 -0.082,-0.61979 -0.30079,-0.96615 -0.22786,-0.38281 -0.65625,-0.5651 -0.42838,-0.19141 -1.11198,-0.19141 -0.70182,0 -1.46745,0.34636 -0.76563,0.34635 -1.46745,0.88411 v 7.60158 h -1.71354 v -10.18101 h 1.71354 v 1.13021 q 0.80209,-0.66536 1.65886,-1.03906 0.85677,-0.3737 1.75912,-0.3737 1.64974,0 2.51563,0.99349 0.86588,0.99349 0.86588,2.86198 z m -11.1745,-5.08595 q 0,2.48829 -1.27604,3.92839 -1.27605,1.44011 -3.41798,1.44011 -2.16016,0 -3.4362,-1.44011 -1.26693,-1.4401 -1.26693,-3.92839 0,-2.48828 1.26693,-3.92839 1.27604,-1.44922 3.4362,-1.44922 2.14193,0 3.41798,1.44922 1.27604,1.44011 1.27604,3.92839 z m -1.76823,0 q 0,-1.97787 -0.77474,-2.9349 -0.77474,-0.96615 -2.15105,-0.96615 -1.39453,0 -2.16927,0.96615 -0.76563,0.95703 -0.76563,2.9349 0,1.91407 0.77474,2.90756 0.77474,0.98438 2.16016,0.98438 1.36719,0 2.14193,-0.97527 0.78386,-0.98437 0.78386,-2.91667 z m -10.20837,-6.79949 h -1.9323 v -1.77735 h 1.9323 z m -0.10938,11.88544 h -1.71354 v -10.18101 h 1.71354 z m -3.8099,-0.0911 q -0.48307,0.12761 -1.05729,0.20964 -0.56511,0.082 -1.01172,0.082 -1.5586,0 -2.3698,-0.83854 -0.8112,-0.83855 -0.8112,-2.68881 v -5.41407 h -1.15755 v -1.44011 h 1.15755 v -2.92579 h 1.71355 v 2.92579 h 3.53646 v 1.44011 h -3.53646 v 4.63933 q 0,0.80208 0.0365,1.25781 0.0365,0.44662 0.25521,0.83855 0.20052,0.36458 0.54687,0.53776 0.35547,0.16406 1.07552,0.16406 0.41928,0 0.87501,-0.11849 0.45573,-0.1276 0.65625,-0.20963 h 0.0911 z m -8.60416,0.0911 h -1.70443 v -1.08464 q -0.22787,0.15495 -0.6198,0.4375 -0.38281,0.27344 -0.74739,0.4375 -0.42839,0.20964 -0.98438,0.34636 -0.55599,0.14583 -1.30339,0.14583 -1.3763,0 -2.33334,-0.91146 -0.95703,-0.91146 -0.95703,-2.32422 0,-1.15756 0.49219,-1.86849 0.5013,-0.72006 1.42188,-1.13021 0.92969,-0.41016 2.23307,-0.556 1.30339,-0.14583 2.79819,-0.21875 v -0.26432 q 0,-0.58333 -0.20964,-0.96615 -0.20052,-0.38281 -0.58333,-0.60156 -0.36459,-0.20964 -0.87501,-0.28255 -0.51041,-0.0729 -1.0664,-0.0729 -0.67448,0 -1.50391,0.18229 -0.82943,0.17318 -1.71355,0.51042 h -0.0911 v -1.74089 q 0.5013,-0.13672 1.44922,-0.30078 0.94792,-0.16406 1.86849,-0.16406 1.07552,0 1.86849,0.18229 0.80209,0.17318 1.38542,0.60156 0.57422,0.41927 0.875,1.08464 0.30079,0.66537 0.30079,1.64974 z m -1.70443,-2.50652 v -2.83464 q -0.78386,0.0456 -1.85027,0.13672 -1.05729,0.0911 -1.67708,0.26433 -0.73829,0.20963 -1.19402,0.65625 -0.45573,0.4375 -0.45573,1.21224 0,0.875 0.52865,1.32162 0.52865,0.4375 1.61328,0.4375 0.90235,0 1.64975,-0.34636 0.74739,-0.35547 1.38542,-0.84766 z m -8.41279,1.8685 q -0.85678,0.41015 -1.63152,0.63802 -0.76562,0.22786 -1.63151,0.22786 -1.10287,0 -2.02344,-0.31901 -0.92058,-0.32812 -1.57683,-0.98437 -0.66536,-0.65625 -1.02995,-1.65886 -0.36458,-1.00261 -0.36458,-2.34245 0,-2.4974 1.36719,-3.91928 1.3763,-1.42188 3.62761,-1.42188 0.875,0 1.71355,0.2461 0.84765,0.24609 1.54948,0.60156 v 1.90495 h -0.0911 q -0.78385,-0.61068 -1.6224,-0.9388 -0.82943,-0.32813 -1.6224,-0.32813 -1.45833,0 -2.30599,0.98438 -0.83854,0.97526 -0.83854,2.8711 0,1.84115 0.82031,2.83464 0.82943,0.98437 2.32422,0.98437 0.51954,0 1.0573,-0.13671 0.53776,-0.13672 0.96614,-0.35547 0.3737,-0.19141 0.70183,-0.40105 0.32812,-0.21875 0.51953,-0.3737 h 0.0911 z m -10.82814,-11.24742 h -1.93229 v -1.77735 h 1.93229 z m -0.10937,11.88544 h -1.71355 v -10.18101 h 1.71355 z m -5.03126,0 h -1.71354 v -5.79689 q 0,-0.70182 -0.082,-1.3125 -0.082,-0.61979 -0.30078,-0.96615 -0.22787,-0.38281 -0.65626,-0.5651 -0.42838,-0.19141 -1.11198,-0.19141 -0.70182,0 -1.46745,0.34636 -0.76562,0.34635 -1.46745,0.88411 v 7.60158 h -1.71354 v -10.18101 h 1.71354 v 1.13021 q 0.80209,-0.66536 1.65886,-1.03906 0.85677,-0.3737 1.75912,-0.3737 1.64974,0 2.51563,0.99349 0.86588,0.99349 0.86588,2.86198 z m -11.88544,0 h -1.71355 v -1.13021 q -0.86589,0.68359 -1.65886,1.04818 -0.79297,0.36458 -1.75,0.36458 -1.60417,0 -2.4974,-0.97526 -0.89323,-0.98438 -0.89323,-2.88021 v -6.60809 h 1.71354 v 5.79689 q 0,0.77474 0.0729,1.33073 0.0729,0.54687 0.3099,0.9388 0.24609,0.40104 0.63802,0.58334 0.39193,0.18229 1.13932,0.18229 0.66537,0 1.44923,-0.34636 0.79297,-0.34635 1.47656,-0.88411 v -7.60158 h 1.71355 z m -11.73961,0 h -1.71354 v -5.79689 q 0,-0.65625 -0.0638,-1.26693 -0.0547,-0.61067 -0.2461,-0.97526 -0.20963,-0.39193 -0.60156,-0.59245 -0.39193,-0.20052 -1.13021,-0.20052 -0.72005,0 -1.44011,0.36459 -0.72005,0.35547 -1.4401,0.91146 0.0273,0.20963 0.0456,0.49218 0.0182,0.27344 0.0182,0.54688 v 6.51694 h -1.71355 v -5.79689 q 0,-0.67448 -0.0638,-1.27604 -0.0547,-0.61068 -0.24609,-0.97526 -0.20964,-0.39193 -0.60157,-0.58334 -0.39192,-0.20052 -1.13021,-0.20052 -0.70182,0 -1.41276,0.34636 -0.70182,0.34635 -1.40365,0.88411 v 7.60158 h -1.71354 v -10.18101 h 1.71354 v 1.13021 q 0.80209,-0.66536 1.59506,-1.03906 0.80208,-0.3737 1.70443,-0.3737 1.03906,0 1.75911,0.4375 0.72917,0.4375 1.08464,1.21224 1.03907,-0.875 1.89584,-1.25781 0.85677,-0.39193 1.83203,-0.39193 1.67709,0 2.47006,1.02083 0.80208,1.01172 0.80208,2.83464 z m -18.15628,0 h -1.71354 v -5.79689 q 0,-0.65625 -0.0638,-1.26693 -0.0547,-0.61067 -0.2461,-0.97526 -0.20963,-0.39193 -0.60156,-0.59245 -0.39193,-0.20052 -1.13021,-0.20052 -0.72006,0 -1.44011,0.36459 -0.72005,0.35547 -1.44011,0.91146 0.0273,0.20963 0.0456,0.49218 0.0182,0.27344 0.0182,0.54688 v 6.51694 h -1.71355 v -5.79689 q 0,-0.67448 -0.0638,-1.27604 -0.0547,-0.61068 -0.24609,-0.97526 -0.20964,-0.39193 -0.60157,-0.58334 -0.39193,-0.20052 -1.13021,-0.20052 -0.70182,0 -1.41276,0.34636 -0.70183,0.34635 -1.40365,0.88411 v 7.60158 h -1.71354 v -10.18101 h 1.71354 v 1.13021 q 0.80209,-0.66536 1.59506,-1.03906 0.80208,-0.3737 1.70443,-0.3737 1.03906,0 1.75911,0.4375 0.72917,0.4375 1.08464,1.21224 1.03907,-0.875 1.89584,-1.25781 0.85677,-0.39193 1.83203,-0.39193 1.67709,0 2.47006,1.02083 0.80208,1.01172 0.80208,2.83464 z m -17.51826,-5.08595 q 0,2.48829 -1.27604,3.92839 -1.27605,1.44011 -3.41798,1.44011 -2.16016,0 -3.4362,-1.44011 -1.26693,-1.4401 -1.26693,-3.92839 0,-2.48828 1.26693,-3.92839 1.27604,-1.44922 3.4362,-1.44922 2.14193,0 3.41798,1.44922 1.27604,1.44011 1.27604,3.92839 z m -1.76823,0 q 0,-1.97787 -0.77474,-2.9349 -0.77474,-0.96615 -2.15105,-0.96615 -1.39453,0 -2.16927,0.96615 -0.76563,0.95703 -0.76563,2.9349 0,1.91407 0.77474,2.90756 0.77474,0.98438 2.16016,0.98438 1.36719,0 2.14193,-0.97527 0.78386,-0.98437 0.78386,-2.91667 z m -9.34247,4.10157 q -0.5013,0.21875 -0.91146,0.41016 -0.40104,0.19141 -1.05729,0.40104 -0.55599,0.17318 -1.21224,0.29167 -0.64714,0.1276 -1.43099,0.1276 -1.47657,0 -2.68881,-0.41015 -1.20313,-0.41928 -2.09636,-1.30339 -0.875,-0.86589 -1.36719,-2.19662 -0.49219,-1.33985 -0.49219,-3.10808 0,-1.67708 0.47396,-2.9987 0.47396,-1.32162 1.36719,-2.23308 0.86589,-0.88411 2.08725,-1.34896 1.23047,-0.46484 2.72526,-0.46484 1.09375,0 2.17839,0.26432 1.09375,0.26432 2.42448,0.92969 v 2.14193 h -0.13672 q -1.12109,-0.9388 -2.22396,-1.36719 -1.10286,-0.42839 -2.36068,-0.42839 -1.02995,0 -1.85938,0.33724 -0.82031,0.32813 -1.46745,1.02995 -0.62891,0.6836 -0.98437,1.73178 -0.34636,1.03906 -0.34636,2.40625 0,1.43099 0.38281,2.46094 0.39193,1.02995 1.00261,1.67709 0.63802,0.67448 1.48568,1.00261 0.85677,0.31901 1.80469,0.31901 1.30339,0 2.44271,-0.44662 1.13933,-0.44661 2.13282,-1.33984 h 0.1276 z m -19.42321,-9.19663 -5.94272,13.93622 h -1.83203 l 1.89584,-4.2474 -4.056,-9.68882 h 1.85938 l 3.12631,7.54689 3.15365,-7.54689 z m -10.43621,1.86849 h -0.0911 q -0.38281,-0.0911 -0.7474,-0.1276 -0.35547,-0.0456 -0.84766,-0.0456 -0.79297,0 -1.53125,0.35547 -0.73828,0.34635 -1.42188,0.90234 v 7.22788 h -1.71354 v -10.18101 h 1.71354 v 1.50391 q 1.02084,-0.82031 1.79558,-1.15755 0.78386,-0.34636 1.59506,-0.34636 0.44661,0 0.64713,0.0273 0.20052,0.0182 0.60157,0.082 z m -9.01434,3.22657 q 0,2.48829 -1.27605,3.92839 -1.27604,1.44011 -3.41797,1.44011 -2.16016,0 -3.43621,-1.44011 -1.26693,-1.4401 -1.26693,-3.92839 0,-2.48828 1.26693,-3.92839 1.27605,-1.44922 3.43621,-1.44922 2.14193,0 3.41797,1.44922 1.27605,1.44011 1.27605,3.92839 z m -1.76824,0 q 0,-1.97787 -0.77474,-2.9349 -0.77474,-0.96615 -2.15104,-0.96615 -1.39454,0 -2.16928,0.96615 -0.76562,0.95703 -0.76562,2.9349 0,1.91407 0.77474,2.90756 0.77474,0.98438 2.16016,0.98438 1.36719,0 2.14193,-0.97527 0.78385,-0.98437 0.78385,-2.91667 z m -10.20835,5.08595 h -1.71354 v -5.79689 q 0,-0.65625 -0.0638,-1.26693 -0.0547,-0.61067 -0.2461,-0.97526 -0.20963,-0.39193 -0.60156,-0.59245 -0.39193,-0.20052 -1.13021,-0.20052 -0.72005,0 -1.44011,0.36459 -0.72005,0.35547 -1.4401,0.91146 0.0273,0.20963 0.0456,0.49218 0.0182,0.27344 0.0182,0.54688 v 6.51694 h -1.71355 v -5.79689 q 0,-0.67448 -0.0638,-1.27604 -0.0547,-0.61068 -0.24609,-0.97526 -0.20964,-0.39193 -0.60157,-0.58334 -0.39192,-0.20052 -1.13021,-0.20052 -0.70182,0 -1.41276,0.34636 -0.70182,0.34635 -1.40365,0.88411 v 7.60158 h -1.71354 v -10.18101 h 1.71354 v 1.13021 q 0.80209,-0.66536 1.59506,-1.03906 0.80208,-0.3737 1.70443,-0.3737 1.03906,0 1.75911,0.4375 0.72917,0.4375 1.08464,1.21224 1.03907,-0.875 1.89584,-1.25781 0.85677,-0.39193 1.83203,-0.39193 1.67709,0 2.47006,1.02083 0.80208,1.01172 0.80208,2.83464 z m -17.45445,-4.91277 h -7.50132 q 0,0.9388 0.28255,1.64063 0.28256,0.69271 0.77474,1.13932 0.47396,0.4375 1.1211,0.65625 0.65625,0.21875 1.44011,0.21875 1.03906,0 2.08724,-0.41015 1.05729,-0.41927 1.50391,-0.82032 h 0.0911 v 1.8685 q -0.86588,0.36458 -1.76823,0.61067 -0.90234,0.2461 -1.89583,0.2461 -2.53386,0 -3.95574,-1.36719 -1.42188,-1.37631 -1.42188,-3.90105 0,-2.4974 1.35808,-3.96485 1.36719,-1.46745 3.59115,-1.46745 2.0599,0 3.17188,1.20313 1.1211,1.20312 1.1211,3.41797 z m -1.66798,-1.3125 q -0.009,-1.34896 -0.68359,-2.08725 -0.66537,-0.73828 -2.03256,-0.73828 -1.3763,0 -2.19662,0.8112 -0.81119,0.8112 -0.92057,2.01433 z m -10.38153,6.22527 h -1.80469 v -11.69403 l -3.77344,7.95704 h -1.07553 l -3.746096,-7.95704 v 11.69403 h -1.686201 v -13.57164 h 2.460942 l 3.618495,7.556 3.50001,-7.556 h 2.50651 z m -22.15759,0 h -1.713545 v -1.06641 q -0.738282,0.63802 -1.540367,0.99349 -0.802085,0.35547 -1.740888,0.35547 -1.82292,0 -2.898443,-1.40365 -1.066408,-1.40365 -1.066408,-3.89193 0,-1.29427 0.364584,-2.30599 0.373698,-1.01173 1.002606,-1.72266 0.619792,-0.69271 1.440106,-1.0573 0.829429,-0.36458 1.713545,-0.36458 0.802085,0 1.421878,0.17318 0.619792,0.16406 1.303387,0.51953 v -4.41147 h 1.713545 z m -1.713545,-2.50652 v -5.84245 q -0.692709,-0.3099 -1.239585,-0.42839 -0.546876,-0.11849 -1.194013,-0.11849 -1.440106,0 -2.242191,1.00261 -0.802085,1.0026 -0.802085,2.84375 0,1.81381 0.619793,2.76172 0.619793,0.93881 1.986983,0.93881 0.729168,0 1.476565,-0.31901 0.747397,-0.32813 1.394533,-0.83855 z m -9.141943,-2.40625 h -7.501316 q 0,0.9388 0.282553,1.64063 0.282552,0.69271 0.774741,1.13932 0.473959,0.4375 1.121095,0.65625 0.656252,0.21875 1.440107,0.21875 1.039064,0 2.087243,-0.41015 1.057294,-0.41927 1.503909,-0.82032 h 0.09115 v 1.8685 q -0.865887,0.36458 -1.768232,0.61067 -0.902345,0.2461 -1.895837,0.2461 -2.533858,0 -3.955736,-1.36719 -1.421878,-1.37631 -1.421878,-3.90105 0,-2.4974 1.358076,-3.96485 1.36719,-1.46745 3.591152,-1.46745 2.0599,0 3.171881,1.20313 1.121096,1.20312 1.121096,3.41797 z m -1.667972,-1.3125 q -0.0091,-1.34896 -0.683595,-2.08725 -0.665366,-0.73828 -2.032556,-0.73828 -1.376304,0 -2.196618,0.8112 -0.8112,0.8112 -0.920575,2.01433 z m -8.485693,-2.08725 h -0.09115 q -0.382814,-0.0911 -0.747398,-0.1276 -0.355469,-0.0456 -0.847657,-0.0456 -0.792971,0 -1.531253,0.35547 -0.738283,0.34635 -1.421878,0.90234 v 7.22788 h -1.713544 v -10.18101 h 1.713544 v 1.50391 q 1.020835,-0.82031 1.795576,-1.15755 0.783856,-0.34636 1.595055,-0.34636 0.446616,0 0.647137,0.0273 0.200521,0.0182 0.601564,0.082 z m -9.670591,8.31252 h -1.70443 v -1.08464 q -0.227865,0.15495 -0.619793,0.4375 -0.382813,0.27344 -0.747397,0.4375 -0.428386,0.20964 -0.984377,0.34636 -0.55599,0.14583 -1.303388,0.14583 -1.376304,0 -2.333337,-0.91146 -0.957033,-0.91146 -0.957033,-2.32422 0,-1.15756 0.492188,-1.86849 0.501303,-0.72006 1.421878,-1.13021 0.929689,-0.41016 2.233077,-0.556 1.303388,-0.14583 2.798182,-0.21875 v -0.26432 q 0,-0.58333 -0.209636,-0.96615 -0.200521,-0.38281 -0.583334,-0.60156 -0.364584,-0.20964 -0.875002,-0.28255 -0.510417,-0.0729 -1.066408,-0.0729 -0.67448,0 -1.503909,0.18229 -0.829429,0.17318 -1.713545,0.51042 h -0.09115 v -1.74089 q 0.501303,-0.13672 1.449222,-0.30078 0.947918,-0.16406 1.868493,-0.16406 1.075522,0 1.868493,0.18229 0.802084,0.17318 1.385419,0.60156 0.57422,0.41927 0.875001,1.08464 0.300782,0.66537 0.300782,1.64974 z m -1.70443,-2.50652 v -2.83464 q -0.783856,0.0456 -1.850264,0.13672 -1.057293,0.0911 -1.677086,0.26433 -0.738283,0.20963 -1.194013,0.65625 -0.45573,0.4375 -0.45573,1.21224 0,0.875 0.528647,1.32162 0.528647,0.4375 1.613284,0.4375 0.902346,0 1.649743,-0.34636 0.747397,-0.35547 1.385419,-0.84766 z m -9.506526,2.50652 h -1.713545 v -5.79689 q 0,-0.70182 -0.08203,-1.3125 -0.08203,-0.61979 -0.300782,-0.96615 -0.227865,-0.38281 -0.656251,-0.5651 -0.428387,-0.19141 -1.111982,-0.19141 -0.701824,0 -1.46745,0.34636 -0.765627,0.34635 -1.467451,0.88411 v 7.60158 h -1.713545 v -14.18232 h 1.713545 v 5.13152 q 0.802085,-0.66536 1.658857,-1.03906 0.856773,-0.3737 1.759118,-0.3737 1.649743,0 2.51563,0.99349 0.865887,0.99349 0.865887,2.86198 z m -11.27476,-3.87371 q 0,0.79297 -0.373699,1.56772 -0.364584,0.77474 -1.02995,1.3125 -0.729168,0.58333 -1.70443,0.91146 -0.966148,0.32812 -2.333337,0.32812 -1.467451,0 -2.643234,-0.27343 -1.166669,-0.27344 -2.378911,-0.8112 v -2.26042 h 0.127604 q 1.02995,0.85677 2.378911,1.32161 1.348961,0.46485 2.533859,0.46485 1.677086,0 2.606775,-0.62891 0.938804,-0.62891 0.938804,-1.67709 0,-0.90234 -0.446615,-1.33073 -0.437501,-0.42838 -1.339847,-0.66536 -0.683595,-0.1823 -1.485679,-0.30079 -0.79297,-0.11849 -1.686201,-0.30078 -1.804691,-0.38281 -2.679693,-1.30339 -0.865887,-0.92968 -0.865887,-2.41536 0,-1.70443 1.440107,-2.78907 1.440107,-1.09375 3.654955,-1.09375 1.430992,0 2.625004,0.27343 1.194013,0.27344 2.114588,0.67448 v 2.13282 h -0.127605 q -0.774741,-0.65625 -2.04167,-1.08464 -1.257815,-0.4375 -2.579432,-0.4375 -1.449221,0 -2.333337,0.60157 -0.875002,0.60156 -0.875002,1.54948 0,0.84766 0.437501,1.33073 0.437501,0.48307 1.540367,0.73828 0.583335,0.12761 1.658857,0.3099 1.075523,0.18229 1.82292,0.3737 1.513024,0.40104 2.27865,1.21224 0.765627,0.8112 0.765627,2.26953 z"/></g></svg>