<svg xmlns="http://www.w3.org/2000/svg" role="img" xmlns:xlink="http://www.w3.org/1999/xlink" viewBox="-4.53 -4.53 248.82 61.07"><title>Spool™ logo</title><path d="M237.32 9.09c-1.06 0-1.93-.86-1.93-1.92s.87-1.93 1.93-1.93 1.93.87 1.93 1.93-.87 1.92-1.93 1.92m0-4.32c-1.32 0-2.4 1.08-2.4 2.4 0 1.32 1.08 2.4 2.4 2.4 1.32 0 2.4-1.08 2.4-2.4 0-1.32-1.08-2.4-2.4-2.4"/><path d="M237.48 7.07l-.51.01-.01-.62h.51c.19-.01.34.11.34.3.01.19-.14.31-.33.31m.83-.32c-.01-.42-.3-.72-.77-.72l-1.07.02.03 2.26h.49l-.01-.81h.35l.46.8.55-.01-.52-.86c.24-.06.49-.28.49-.68M51.8341 23.1805h-5.999V9.3465h5.835c1.574 0 2.557 1.016 2.557 2.393 0 1.377-.983 2.36-2.557 2.36H45v4h6.8341c1.836 0 2.819 1.18 2.819 2.556 0 1.574-1.049 2.525-2.819 2.525m3.376-7.245c2.066-.426 3.771-2.262 3.771-5.015 0-2.918-2.131-5.573-6.295-5.573h-11.506v21.865h11.867c4.163 0 6.359-2.623 6.359-5.901 0-2.754-1.868-5.015-4.196-5.376m17.8225-.5902H68v4.098h3.5576l4.294 7.769h5.343l-4.917-8.327c2.361-.557 4.786-2.622 4.786-6.49m0 0c0-4.065-2.786-7.048-7.343-7.048h-10.228v21.865h4.655V9.4453h4.885c1.869 0 3.278 1.114 3.278 2.95s-1.409 2.95-3.278 2.95m43.4206 4.0652l3.409-9.408 3.41 9.408zm.492-14.063l-8.458 21.865h5.31l1.377-3.704h9.376l1.344 3.704h5.311l-8.425-21.865zm26.9039 17.7671h-3.967v-13.67h3.967c4.491 0 6.851 2.983 6.851 6.852 0 3.704-2.524 6.818-6.851 6.818m0-17.767h-8.622v21.865h8.622c6.851 0 11.604-4.327 11.604-10.916s-4.753-10.949-11.604-10.949m82.1269-.0045l-5.734 9.27-5.734-9.27h-5.146v21.869h4.656v-14.293l5.012 7.622c.574.871 1.851.871 2.424 0l5.013-7.622v14.293h4.656V5.3431z"/><path id="a" d="M95.8253 23.3441c-3.871 0-7.008-3.138-7.008-7.008 0-3.871 3.137-7.009 7.008-7.009 3.87 0 7.008 3.138 7.008 7.009 0 3.87-3.138 7.008-7.008 7.008m0-18.536c-6.367 0-11.528 5.161-11.528 11.528 0 6.366 5.161 11.527 11.528 11.527 6.366 0 11.528-5.161 11.528-11.527 0-6.367-5.162-11.528-11.528-11.528"/><path d="M176.4035 19.7269c-1.195 2.156-3.492 3.617-6.132 3.617-3.87 0-7.008-3.138-7.008-7.008 0-3.871 3.138-7.008 7.008-7.008 2.618 0 4.897 1.438 6.1 3.565l3.27-3.269c-2.092-2.915-5.508-4.816-9.37-4.816-6.367 0-11.527 5.161-11.527 11.528 0 6.366 5.16 11.528 11.527 11.528 3.883 0 7.316-1.922 9.404-4.865z"/><use transform="translate(98.718)" xlink:href="#a"/><ellipse cx="16.52" cy="16.497" fill="#cc092f" rx="16.236" ry="16.235"/><path fill="#fff" d="M30.8253 20.8832c-1.857-.74-3.557-.492-5.261.541 0 0-.621.379-.807.496-.794.498-1.543.97-2.263.97-.687 0-1.363-.184-1.649-1.513-.446-2.073-1.534-7.167-2.009-9.69-.279-1.483-.432-2.282-.591-2.825-.28-.954-.792-1.473-1.519-1.556 0 0-.114-.016-.207-.016-.092 0-.218.018-.218.018-.72.086-1.229.605-1.507 1.554-.159.543-.312 1.342-.591 2.825-.475 2.523-1.563 7.617-2.009 9.69-.286 1.329-.962 1.513-1.649 1.513-.72 0-1.469-.472-2.263-.97-.186-.117-.808-.496-.808-.496-1.703-1.033-3.404-1.281-5.26-.541-.401.16-.79596.33918-1.17196.52018.257.806.57693 1.59925.94993 2.34425.411-.202.84203-.40243 1.28203-.53243.634-.187 1.284-.197 1.914.014.612.205 1.157.568 1.7.909 1.023.643 2.182 1.372 3.657 1.372 2.186 0 3.72-1.305 4.21-3.581.38-1.764 1.222-5.702 1.763-8.418 0 0 1.386 6.654 1.765 8.418.49 2.276 2.025 3.581 4.211 3.581 1.475 0 2.634-.729 3.657-1.372.543-.341 1.088-.704 1.7-.909.629-.211 1.28-.201 1.914-.014.44.13.87039.33065 1.28139.53265.374-.745.69309-1.53862.95009-2.34462-.376-.181-.77048-.36003-1.17148-.52003"/><g text-anchor="middle"><path d="M111.81235 47.9248q0 .4248-.2002.83985-.19531.41504-.55176.70312-.39062.3125-.91308.48828-.51758.17579-1.25.17579-.78613 0-1.41602-.14649-.625-.14648-1.27441-.43457v-1.21094h.0684q.55176.45899 1.27441.70801.72266.24903 1.35742.24903.89844 0 1.39649-.33692.50293-.33691.50293-.89844 0-.4834-.23926-.71289-.23437-.22949-.71777-.35644-.36621-.09766-.7959-.16113-.42481-.06349-.90332-.16114-.9668-.20508-1.43555-.69824-.46387-.49805-.46387-1.29395 0-.91308.77149-1.49414.77148-.58593 1.95801-.58593.7666 0 1.40625.14648.63964.14648 1.13281.36133v1.14258h-.0684q-.41504-.35157-1.09375-.58106-.67383-.23437-1.38184-.23437-.77636 0-1.25.32226-.46875.32227-.46875.83008 0 .4541.23438.7129.23437.25878.82519.3955.3125.06836.88868.16602.57617.09765.97656.20019.81054.21484 1.2207.64941.41016.43458.41016 1.21583z"/><path d="M118.09164 47.20703q0 .66406-.19043 1.21582-.19043.54688-.5371.92774-.32227.36132-.76172.56152-.43457.19531-.92286.19531-.4248 0-.77148-.09277-.3418-.09277-.69824-.28808v2.28515h-.91797V44.5459h.91797v.5713q.36621-.30763.82031-.5127.45899-.20997.97656-.20997.98633 0 1.53321.74708.55175.74218.55175 2.06542zm-.94726.02441q0-.98633-.33692-1.4746-.33691-.48829-1.03515-.48829-.39551 0-.7959.1709-.40039.1709-.7666.44922v3.09082q.39062.17578.66894.23926.28321.06348.63965.06348.7666 0 1.19629-.51758.42969-.51758.42969-1.5332z"/><path d="M124.17075 47.2754q0 1.333-.6836 2.10448-.68359.77149-1.83105.77149-1.15723 0-1.84082-.77149-.67871-.77148-.67871-2.10449 0-1.333.67871-2.1045.68359-.77636 1.84082-.77636 1.14746 0 1.83105.77637.6836.77148.6836 2.1045zm-.94727 0q0-1.05958-.41504-1.57227-.41504-.51758-1.15234-.51758-.74707 0-1.16211.51758-.41016.51269-.41016 1.57226 0 1.0254.41504 1.55762.41504.52734 1.15723.52734.73242 0 1.14746-.52246.41992-.52734.41992-1.5625z"/><path d="M130.24008 47.2754q0 1.333-.68359 2.10448-.6836.77149-1.83106.77149-1.15722 0-1.84082-.77149-.67871-.77148-.67871-2.10449 0-1.333.67871-2.1045.6836-.77636 1.84082-.77636 1.14746 0 1.83106.77637.68359.77148.68359 2.1045zm-.94726 0q0-1.05958-.41504-1.57227-.41504-.51758-1.15235-.51758-.74707 0-1.16211.51758-.41015.51269-.41015 1.57226 0 1.0254.41504 1.55762.41504.52734 1.15722.52734.73243 0 1.14746-.52246.41993-.52734.41993-1.5625z"/><path d="M132.58871 50h-.91796v-7.59766h.91796z"/><path d="M142.17856 46.167h-.60547v-3.0127h-.0977l-1.15722 2.20215h-.38575l-1.16699-2.23633h-.12207v3.04687h-.60058v-3.4375h1.16211l.93261 1.86524.93262-1.86524h1.1084zm-4.99024-2.86622h-1.11816V46.167h-.62012v-2.8662h-1.11816v-.5713h2.85644z"/></g></svg>