<svg xmlns="http://www.w3.org/2000/svg" role="img" xmlns:xlink="http://www.w3.org/1999/xlink" viewBox="-4.53 -4.53 248.82 61.07"><title>SymDump logo</title><path d="M237.32 9.09c-1.06 0-1.93-.86-1.93-1.92s.87-1.93 1.93-1.93 1.93.87 1.93 1.93-.87 1.92-1.93 1.92m0-4.32c-1.32 0-2.4 1.08-2.4 2.4 0 1.32 1.08 2.4 2.4 2.4 1.32 0 2.4-1.08 2.4-2.4 0-1.32-1.08-2.4-2.4-2.4"/><path d="M237.48 7.07l-.51.01-.01-.62h.51c.19-.01.34.11.34.3.01.19-.14.31-.33.31m.83-.32c-.01-.42-.3-.72-.77-.72l-1.07.02.03 2.26h.49l-.01-.81h.35l.46.8.55-.01-.52-.86c.24-.06.49-.28.49-.68M51.8341 23.1805h-5.999V9.3465h5.835c1.574 0 2.557 1.016 2.557 2.393 0 1.377-.983 2.36-2.557 2.36H45v4h6.8341c1.836 0 2.819 1.18 2.819 2.556 0 1.574-1.049 2.525-2.819 2.525m3.376-7.245c2.066-.426 3.771-2.262 3.771-5.015 0-2.918-2.131-5.573-6.295-5.573h-11.506v21.865h11.867c4.163 0 6.359-2.623 6.359-5.901 0-2.754-1.868-5.015-4.196-5.376m17.8225-.5902H68v4.098h3.5576l4.294 7.769h5.343l-4.917-8.327c2.361-.557 4.786-2.622 4.786-6.49m0 0c0-4.065-2.786-7.048-7.343-7.048h-10.228v21.865h4.655V9.4453h4.885c1.869 0 3.278 1.114 3.278 2.95s-1.409 2.95-3.278 2.95m43.4206 4.0652l3.409-9.408 3.41 9.408zm.492-14.063l-8.458 21.865h5.31l1.377-3.704h9.376l1.344 3.704h5.311l-8.425-21.865zm26.9039 17.7671h-3.967v-13.67h3.967c4.491 0 6.851 2.983 6.851 6.852 0 3.704-2.524 6.818-6.851 6.818m0-17.767h-8.622v21.865h8.622c6.851 0 11.604-4.327 11.604-10.916s-4.753-10.949-11.604-10.949m82.1269-.0045l-5.734 9.27-5.734-9.27h-5.146v21.869h4.656v-14.293l5.012 7.622c.574.871 1.851.871 2.424 0l5.013-7.622v14.293h4.656V5.3431z"/><path id="a" d="M95.8253 23.3441c-3.871 0-7.008-3.138-7.008-7.008 0-3.871 3.137-7.009 7.008-7.009 3.87 0 7.008 3.138 7.008 7.009 0 3.87-3.138 7.008-7.008 7.008m0-18.536c-6.367 0-11.528 5.161-11.528 11.528 0 6.366 5.161 11.527 11.528 11.527 6.366 0 11.528-5.161 11.528-11.527 0-6.367-5.162-11.528-11.528-11.528"/><path d="M176.4035 19.7269c-1.195 2.156-3.492 3.617-6.132 3.617-3.87 0-7.008-3.138-7.008-7.008 0-3.871 3.138-7.008 7.008-7.008 2.618 0 4.897 1.438 6.1 3.565l3.27-3.269c-2.092-2.915-5.508-4.816-9.37-4.816-6.367 0-11.527 5.161-11.527 11.528 0 6.366 5.16 11.528 11.527 11.528 3.883 0 7.316-1.922 9.404-4.865z"/><use transform="translate(98.718)" xlink:href="#a"/><ellipse cx="16.52" cy="16.497" fill="#cc092f" rx="16.236" ry="16.235"/><path fill="#fff" d="M30.8253 20.8832c-1.857-.74-3.557-.492-5.261.541 0 0-.621.379-.807.496-.794.498-1.543.97-2.263.97-.687 0-1.363-.184-1.649-1.513-.446-2.073-1.534-7.167-2.009-9.69-.279-1.483-.432-2.282-.591-2.825-.28-.954-.792-1.473-1.519-1.556 0 0-.114-.016-.207-.016-.092 0-.218.018-.218.018-.72.086-1.229.605-1.507 1.554-.159.543-.312 1.342-.591 2.825-.475 2.523-1.563 7.617-2.009 9.69-.286 1.329-.962 1.513-1.649 1.513-.72 0-1.469-.472-2.263-.97-.186-.117-.808-.496-.808-.496-1.703-1.033-3.404-1.281-5.26-.541-.401.16-.79596.33918-1.17196.52018.257.806.57693 1.59925.94993 2.34425.411-.202.84203-.40243 1.28203-.53243.634-.187 1.284-.197 1.914.014.612.205 1.157.568 1.7.909 1.023.643 2.182 1.372 3.657 1.372 2.186 0 3.72-1.305 4.21-3.581.38-1.764 1.222-5.702 1.763-8.418 0 0 1.386 6.654 1.765 8.418.49 2.276 2.025 3.581 4.211 3.581 1.475 0 2.634-.729 3.657-1.372.543-.341 1.088-.704 1.7-.909.629-.211 1.28-.201 1.914-.014.44.13.87039.33065 1.28139.53265.374-.745.69309-1.53862.95009-2.34462-.376-.181-.77048-.36003-1.17148-.52003"/><path d="M104.50766 47.9248q0 .4248-.2002.83985-.19531.41504-.55175.70312-.39063.3125-.91309.48828-.51758.17579-1.25.17579-.78613 0-1.41601-.14649-.625-.14648-1.27442-.43457v-1.21094h.06836q.55176.45899 1.27441.70801.72266.24903 1.35743.24903.89843 0 1.39648-.33692.50293-.33691.50293-.89844 0-.4834-.23926-.71289-.23437-.22949-.71777-.35644-.36621-.09766-.7959-.16113-.4248-.06349-.90332-.16114-.9668-.20508-1.43555-.69824-.46386-.49805-.46386-1.29395 0-.91308.77148-1.49414.77149-.58593 1.95801-.58593.7666 0 1.40625.14648t1.13281.36133v1.14258h-.0684q-.41504-.35157-1.09375-.58106-.67383-.23437-1.38183-.23437-.77637 0-1.25.32226-.46875.32227-.46875.83008 0 .4541.23437.7129.23438.25878.8252.3955.3125.06836.88867.16602.57617.09765.97656.20019.81055.21484 1.2207.64941.41016.43458.41016 1.21583zm6.0498-3.3789l-3.18359 7.46582h-.98144l1.01562-2.2754-2.17285-5.19042h.99609l1.67481 4.04297 1.68945-4.04297zM119.71762 50h-.91797v-3.10547q0-.35156-.0342-.67871-.0293-.32715-.13183-.52246-.11231-.20996-.32227-.31738-.20996-.10742-.60547-.10742-.38574 0-.77148.1953-.38574.19044-.77149.48829.0147.1123.0244.26367.01.14649.01.29297V50h-.91797v-3.10547q0-.36133-.0342-.6836-.0293-.32714-.13183-.52245-.11231-.20996-.32227-.3125-.20996-.10742-.60547-.10742-.37597 0-.75683.18554-.37598.18555-.75195.47363V50h-.91797v-5.4541h.91797v.60547q.42968-.35645.85449-.55664.42968-.2002.91308-.2002.55664 0 .94239.23438.39062.23437.58105.64941.55664-.46875 1.01563-.67383.45898-.20996.98144-.20996.89844 0 1.32324.54688.42969.54199.42969 1.51855zm7.9834-3.62793q0 .99121-.43457 1.79688-.42969.80566-1.14746 1.25-.49805.30761-1.11328.44433Q124.39536 50 123.39438 50h-1.83594v-7.2705h1.81641q1.06445 0 1.68945.15624.62988.15137 1.06445.41992.74219.46387 1.15723 1.23536.41504.77148.41504 1.83105zm-1.01074-.01465q0-.8545-.29785-1.44043-.29786-.58594-.88868-.92285-.42968-.24414-.91308-.33692-.4834-.09766-1.15723-.09766h-.9082v5.61036h.9082q.69824 0 1.21582-.10254.52246-.10254.95703-.38086.54199-.34668.81055-.91309.27344-.5664.27344-1.41601zM133.71176 50h-.91797v-.60547q-.46386.36621-.88867.56152-.4248.19532-.9375.19532-.85937 0-1.33789-.52246-.47852-.52735-.47852-1.54297V44.5459h.91797v3.10547q0 .41504.0391.71289.0391.29297.16601.50293.13184.21484.3418.3125.20996.09766.61035.09766.35645 0 .77637-.18555.4248-.18555.79101-.47363V44.5459h.91797zm9.76563 0h-.91797v-3.10547q0-.35156-.0342-.67871-.0293-.32715-.13184-.52246-.1123-.20996-.32226-.31738-.20996-.10742-.60547-.10742-.38574 0-.77149.1953-.38574.19044-.77148.48829.0147.1123.0244.26367.01.14649.01.29297V50h-.91797v-3.10547q0-.36133-.0342-.6836-.0293-.32714-.13184-.52245-.1123-.20996-.32226-.3125-.20996-.10742-.60547-.10742-.37598 0-.75684.18554-.37597.18555-.75195.47363V50h-.91797v-5.4541h.91797v.60547q.42969-.35645.85449-.55664.42969-.2002.91309-.2002.55664 0 .94238.23438.39063.23437.58106.64941.55664-.46875 1.01562-.67383.45899-.20996.98145-.20996.89843 0 1.32324.54688.42969.54199.42969 1.51855zm6.56738-2.79297q0 .66406-.19043 1.21582-.19043.54688-.53711.92774-.32227.36132-.76172.56152-.43457.19531-.92285.19531-.4248 0-.77148-.09277-.3418-.09277-.69825-.28808v2.28515h-.91797V44.5459h.91797v.5713q.36621-.30763.82032-.5127.45898-.20997.97656-.20997.98633 0 1.5332.74708.55176.74218.55176 2.06542zm-.94727.02441q0-.98633-.33691-1.4746-.33691-.48829-1.03516-.48829-.3955 0-.7959.1709-.40039.1709-.7666.44922v3.09082q.39063.17578.66895.23926.2832.06348.63965.06348.7666 0 1.19629-.51758.42968-.51758.42968-1.5332z" text-anchor="middle"/></svg>