<svg xmlns="http://www.w3.org/2000/svg" role="img" viewBox="-7.97 6.03 414.18 229.68"><title>sysload logo</title><style>svg {enable-background:new 0 0 400 245}</style><style id="style256" type="text/css">.st0{fill:#4c83c3}</style><g id="g384" transform="translate(0 -28)"><path id="polygon258" fill="#4c83c3" d="M336.1 42.1L398.3 42.1 398.3 53.5 332 53.5z" class="st0"/><path id="path260" fill="#4c83c3" d="m 221.5,42.1 h 61.6 l 4,11.5 c 0,0 -65.6,0 -65.6,0 0.1,-0.1 0,-11.5 0,-11.5 z" class="st0"/><path id="path262" fill="#4c83c3" d="m 172.7,42.1 c 10.1,1 19,4.6 26.5,11.5 0,0 -111.6,0 -111.6,0 0,0 0,-11.5 0,-11.5 z" class="st0"/><g id="g268"><path id="rect264" fill="#4c83c3" d="M0 42.1H77.5V53.5H0z" class="st0"/></g><path id="path270" fill="#4c83c3" d="m 398.3,75 h -73.9 c 0,0 4,-11.4 4,-11.4 h 69.9 z" class="st0"/><path id="polygon272" fill="#4c83c3" d="M221.5 63.6L290.7 63.6 294.8 75 221.5 75z" class="st0"/><path id="path274" fill="#4c83c3" d="m 207.8,63.6 c 1.5,3.8 3.2,7 3.2,11.4 H 87.6 V 63.6 Z" class="st0"/><g id="g280"><path id="rect276" fill="#4c83c3" d="M0 63.6H77.5V75H0z" class="st0"/></g><path id="polygon282" fill="#4c83c3" d="M376.4 85.1L376.4 96.5 316.8 96.5 320.9 85.1z" class="st0"/><path id="polygon284" fill="#4c83c3" d="M243.4 96.5L243.4 85.1 298.3 85.1 302.4 96.5z" class="st0"/><path id="path286" fill="#4c83c3" d="m 212,85 c 0,3.9 -0.5,8 -1.6,11.4 H 176.6 V 85 Z" class="st0"/><g id="g292"><path id="rect288" fill="#4c83c3" d="M21.6 85.1H54.9V96.5H21.6z" class="st0"/></g><g id="g298"><path id="rect294" fill="#4c83c3" d="M110 85H143.3V96.4H110z" class="st0"/></g><path id="path300" fill="#4c83c3" d="m 276.1,108.8 c 0,0 0,8.7 0,8.7 h -32.8 v -11.4 h 62.4 l 3.9,10.6 c 0,0 3.7,-10.6 3.7,-10.6 h 62.9 v 11.4 h -32.6 c 0,0 0,-8.7 0,-8.7 l -3,8.7 H 279 Z" class="st0"/><path id="path302" fill="#4c83c3" d="m 110,106.1 h 95.5 v 0 c -2.1,3.8 -5.9,8.4 -9.5,11.4 0,0 -86,0 -86,0 0,0 0,-11.4 0,-11.4 z" class="st0"/><g id="g308"><path id="rect304" fill="#4c83c3" d="M21.6 106.1H54.9V117.5H21.6z" class="st0"/></g><g id="g314"><path id="rect310" fill="#4c83c3" d="M343.8 127.6H376.40000000000003V139H343.8z" class="st0"/></g><path id="path316" fill="#4c83c3" d="M 276.1,127.6 H 243.3 V 139 c 0,0 32.8,0 32.8,0 0,-0.1 0.1,-11.4 0,-11.4 z" class="st0"/><path id="path318" fill="#4c83c3" d="m 337.2,127.6 c -0.1,0 -3.8,11.4 -4,11.4 h -46.4 c 0,0 -4.1,-11.4 -4.1,-11.4 z" class="st0"/><path id="path320" fill="#4c83c3" d="m 110,127.6 h 85.8 c 3.9,3.3 7.5,7.3 10.2,11.4 0.2,0 -96.1,0 -96.1,0 0.1,-0.1 0.1,-11.4 0.1,-11.4 z" class="st0"/><path id="path322" fill="#4c83c3" d="M 54.9,138.9 V 127.5 H 21.7 c 0,0 0,11.4 0,11.4 0,0 33.2,0 33.2,0 z" class="st0"/><g id="g328"><path id="rect324" fill="#4c83c3" d="M343.8 149H376.40000000000003V160.4H343.8z" class="st0"/></g><g id="g334"><path id="rect330" fill="#4c83c3" d="M243.4 149H276.2V160.4H243.4z" class="st0"/></g><path id="path336" fill="#4c83c3" d="m 325.6,160.4 c 0,-0.1 4,-11.4 4.1,-11.4 h -39.5 c -0.1,0 4,11.4 4,11.4 0,0 31.4,0.1 31.4,0 z" class="st0"/><path id="path338" fill="#4c83c3" d="m 110,160.4 c 0,0 0,-11.4 0,-11.4 h 33.8 c 0,0 0,11.4 0,11.4 -0.1,0 -33.8,0 -33.8,0 z" class="st0"/><path id="path340" fill="#4c83c3" d="m 210.8,149 c 1.6,3.4 1.8,7.5 2.1,11.4 H 177.1 V 149 Z" class="st0"/><g id="g346"><path id="rect342" fill="#4c83c3" d="M21.7 149H55V160.4H21.7z" class="st0"/></g><g id="g352"><path id="rect348" fill="#4c83c3" d="M343.8 170H398.3V181.4H343.8z" class="st0"/></g><g id="g358"><path id="rect354" fill="#4c83c3" d="M221.5 170H276.1V181.4H221.5z" class="st0"/></g><path id="polygon360" fill="#4c83c3" d="M297.6 170L322.1 170 318.2 181.4 301.6 181.4z" class="st0"/><path id="path362" fill="#4c83c3" d="m 0,170 v 11.4 h 77.5 c 0,0 0,-11.4 0,-11.4 0,0 -77.6,0 -77.5,0 z" class="st0"/><path id="path364" fill="#4c83c3" d="m 211.5,170 c -0.8,3.8 -1.6,8.3 -4.3,11.4 h -1 H 87.6 V 170 Z" class="st0"/><path id="polygon366" fill="#4c83c3" d="M305.3 191.5L314.7 191.5 310.7 202.9 309.2 202.9z" class="st0"/><g id="g372"><path id="rect368" fill="#4c83c3" d="M343.8 191.5H398.3V202.9H343.8z" class="st0"/></g><path id="path374" fill="#4c83c3" d="m 87.6,202.9 v -11.4 c 0,0 111.9,0 112.2,0 -7.5,7.2 -17.8,11.2 -28.9,11.4 H 87.6" class="st0"/><g id="g380"><path id="rect376" fill="#4c83c3" d="M221.5 191.5H276.1V202.9H221.5z" class="st0"/></g><path id="path382" fill="#4c83c3" d="m 77.5,191.5 c 0,0 0,11.4 0,11.4 0,0 -77.4,0 -77.5,0 0,0 0,-11.4 0,-11.4 0,0 77.4,0.1 77.5,0 z" class="st0"/></g><g id="text736"><path id="path778" d="m 202.17188,197.26562 v 7.5625 c -0.78125,-0.40625 -1.52605,-0.70507 -2.23438,-0.89257 -0.70833,-0.19792 -1.52083,-0.29493 -2.4375,-0.29493 -1.01042,0 -1.98959,0.20834 -2.9375,0.625 -0.9375,0.41667 -1.76042,1.02084 -2.46875,1.8125 -0.71875,0.8125 -1.29167,1.79493 -1.71875,2.95118 -0.41667,1.15625 -0.625,2.47591 -0.625,3.95508 0,2.84374 0.60938,5.06575 1.82812,6.66992 1.22917,1.60416 2.88542,2.40625 4.96876,2.40625 1.07292,0 2.0677,-0.20118 2.98437,-0.60743 0.91667,-0.40625 1.79688,-0.97591 2.64063,-1.70507 v 1.83007 h 2.9375 v -24.3125 z m 58.48437,0 c -1.84375,2.11459 -3.27604,4.41993 -4.29687,6.91993 -1.02084,2.5 -1.53126,5.31966 -1.53126,8.45507 0,3.13542 0.51042,5.95118 1.53126,8.45118 1.02083,2.5 2.45312,4.80924 4.29687,6.92382 h 3.57813 v -0.15624 c -0.80209,-0.71876 -1.60417,-1.60092 -2.40626,-2.64258 -0.80208,-1.03125 -1.51562,-2.1875 -2.14062,-3.46875 -0.64583,-1.33334 -1.16145,-2.73959 -1.54688,-4.21875 -0.375,-1.47917 -0.5625,-3.10743 -0.5625,-4.88868 0,-1.70833 0.19271,-3.33333 0.57813,-4.875 0.39583,-1.54166 0.90625,-2.95507 1.53125,-4.23632 0.65625,-1.32292 1.36458,-2.47917 2.125,-3.46875 0.77083,-1 1.57813,-1.87826 2.42188,-2.63867 v -0.15626 z m 61.14063,0 v 24.3125 h 2.9375 v -24.3125 z m 58.6875,0 v 7.5625 c -0.78125,-0.40625 -1.52605,-0.70507 -2.23438,-0.89257 -0.70833,-0.19792 -1.52083,-0.29493 -2.4375,-0.29493 -1.01042,0 -1.98959,0.20834 -2.9375,0.625 -0.9375,0.41667 -1.76042,1.02084 -2.46875,1.8125 -0.71875,0.8125 -1.29167,1.79493 -1.71875,2.95118 -0.41667,1.15625 -0.625,2.47591 -0.625,3.95508 0,2.84374 0.60938,5.06575 1.82812,6.66992 1.22917,1.60416 2.88542,2.40625 4.96876,2.40625 1.07292,0 2.0677,-0.20118 2.98437,-0.60743 0.91667,-0.40625 1.79688,-0.97591 2.64063,-1.70507 v 1.83007 h 2.9375 v -24.3125 z m 8.125,0 v 0.15626 c 0.84375,0.76041 1.64583,1.63867 2.40624,2.63867 0.77084,0.98958 1.48438,2.14583 2.14063,3.46875 0.63541,1.28125 1.14583,2.69466 1.53125,4.23632 0.38541,1.54167 0.57812,3.16667 0.57812,4.875 0,1.78125 -0.19271,3.40951 -0.57812,4.88868 -0.375,1.47916 -0.88542,2.88541 -1.53125,4.21875 -0.61459,1.28125 -1.32813,2.4375 -2.14063,3.46875 -0.80207,1.04166 -1.60416,1.92382 -2.40624,2.64258 v 0.15624 h 3.57812 c 1.84375,-2.11458 3.27604,-4.42382 4.29688,-6.92382 1.02083,-2.5 1.53124,-5.31576 1.53124,-8.45118 0,-3.13541 -0.51041,-5.95507 -1.53124,-8.45507 -1.02084,-2.5 -2.45313,-4.80534 -4.29688,-6.91993 z m -377.64063,0.625 c -2.5312497,0 -4.6197917,0.625 -6.265625,1.875 -1.6458333,1.23959 -2.46875,2.83334 -2.46875,4.78126 0,1.69791 0.4947917,3.07617 1.484375,4.13867 1,1.05208 2.53125,1.79883 4.59375,2.23633 1.0208333,0.20833 1.984375,0.37825 2.890625,0.51367 0.916667,0.13542 1.765625,0.30924 2.546875,0.51757 1.03125,0.27084 1.796875,0.6491 2.296875,1.13868 0.510417,0.48958 0.765625,1.25 0.765625,2.28125 0,1.19792 -0.536458,2.15625 -1.609375,2.875 -1.0625,0.71875 -2.552083,1.08007 -4.46875,1.08007 -1.3541664,0 -2.8020833,-0.26757 -4.34375,-0.79882 C 4.8489583,217.99805 3.4895833,217.24479 2.3125,216.26562 H 2.09375 v 3.875 c 1.3854167,0.61459 2.7447917,1.07618 4.078125,1.38868 1.34375,0.3125 2.8541669,0.46875 4.53125,0.46875 1.5625,0 2.895833,-0.1875 4,-0.5625 1.114583,-0.375 2.088542,-0.89584 2.921875,-1.5625 0.760417,-0.61458 1.348958,-1.36458 1.765625,-2.25 0.427083,-0.88542 0.640625,-1.78125 0.640625,-2.6875 0,-1.66667 -0.4375,-2.96159 -1.3125,-3.88867 -0.875,-0.92709 -2.177083,-1.62175 -3.90625,-2.08008 -0.854167,-0.21875 -1.895833,-0.43034 -3.125,-0.63868 -1.229166,-0.20833 -2.1770833,-0.38541 -2.84375,-0.53124 -1.2604167,-0.29167 -2.140625,-0.7155 -2.640625,-1.26758 -0.5,-0.55208 -0.75,-1.3125 -0.75,-2.28125 0,-1.08334 0.5,-1.96875 1.5,-2.65625 1.0104167,-0.6875 2.3437503,-1.03125 4,-1.03125 1.510417,0 2.984375,0.25 4.421875,0.75 1.447917,0.48958 2.614583,1.11133 3.5,1.86133 h 0.21875 v -3.65626 c -1.052083,-0.45833 -2.260417,-0.84374 -3.625,-1.15624 -1.364583,-0.3125 -2.864583,-0.46876 -4.5,-0.46876 z m 123.71875,0.41993 v 23.26757 h 14.71875 v -2.75 h -11.625 v -20.51757 z m -74.234375,0.79883 v 5.01367 H 58.46875 v 2.46875 h 1.984375 v 9.28125 c 0,2.11458 0.463542,3.65299 1.390625,4.61133 0.927083,0.95833 2.28125,1.4375 4.0625,1.4375 0.510417,0 1.088542,-0.0488 1.734375,-0.14258 0.65625,-0.0937 1.260417,-0.21159 1.8125,-0.35742 v -2.64258 h -0.15625 c -0.229167,0.0937 -0.604167,0.21549 -1.125,0.36132 -0.520833,0.13542 -1.020833,0.20118 -1.5,0.20118 -0.822917,0 -1.4375,-0.0937 -1.84375,-0.28125 -0.395833,-0.19792 -0.708333,-0.50326 -0.9375,-0.91993 -0.25,-0.44791 -0.395833,-0.92708 -0.4375,-1.4375 -0.04167,-0.52083 -0.0625,-1.23958 -0.0625,-2.15624 v -7.95508 h 6.0625 v -2.46875 h -6.0625 v -5.01367 z m 19.8125,4.53124 c -2.541667,0 -4.59375,0.8366 -6.15625,2.51368 -1.552083,1.67708 -2.328125,3.94466 -2.328125,6.79882 0,2.88542 0.8125,5.11459 2.4375,6.6875 1.625,1.5625 3.885417,2.34376 6.78125,2.34376 1.135417,0 2.21875,-0.14258 3.25,-0.42383 1.03125,-0.28125 2.041667,-0.62826 3.03125,-1.04493 v -3.20507 H 87.125 c -0.510417,0.45833 -1.369792,0.92708 -2.578125,1.40625 -1.197917,0.46875 -2.390625,0.70508 -3.578125,0.70508 -0.895833,0 -1.71875,-0.125 -2.46875,-0.375 -0.739583,-0.25 -1.380208,-0.625 -1.921875,-1.125 -0.5625,-0.51042 -1.005208,-1.16342 -1.328125,-1.95508 -0.322917,-0.80208 -0.484375,-1.73958 -0.484375,-2.8125 H 87.625 v -1.59375 c 0,-2.53125 -0.640625,-4.48243 -1.921875,-5.85743 -1.270833,-1.375 -3.083333,-2.0625 -5.4375,-2.0625 z m 20.406255,0 c -1.031253,0 -2.005213,0.2116 -2.92188,0.63868 -0.90625,0.42708 -1.817708,1.02083 -2.734375,1.78125 v -1.9375 h -2.9375 v 17.45507 h 2.9375 v -13.03124 c 0.802083,-0.61459 1.604167,-1.12175 2.40625,-1.51758 0.8125,-0.39584 1.619792,-0.59375 2.421875,-0.59375 0.84375,0 1.48958,0.11458 1.9375,0.34375 0.44791,0.21875 0.79166,0.55208 1.03125,1 0.21878,0.41666 0.35941,0.97591 0.42188,1.67382 0.0729,0.6875 0.10937,1.41667 0.10937,2.1875 v 9.9375 h 2.9375 V 210.4043 c 0,-0.3125 -0.0105,-0.625 -0.0312,-0.9375 -0.0208,-0.32292 -0.0469,-0.60417 -0.0781,-0.84375 0.82292,-0.63542 1.64583,-1.15625 2.46874,-1.5625 0.82293,-0.41667 1.64584,-0.625 2.46876,-0.625 0.84375,0 1.48958,0.11458 1.9375,0.34375 0.44792,0.22916 0.79167,0.56966 1.03124,1.01758 0.21879,0.41666 0.35941,0.972 0.42188,1.66992 0.0729,0.69792 0.10938,1.42382 0.10938,2.17382 v 9.9375 h 2.9375 v -11.33007 c 0,-2.08334 -0.45834,-3.70118 -1.375,-4.85743 -0.90625,-1.16666 -2.31771,-1.75 -4.23438,-1.75 -1.11459,10e-6 -2.16146,0.22201 -3.14062,0.66993 -0.97917,0.4375 -2.0625,1.15625 -3.25,2.15625 -0.40625,-0.88542 -1.02605,-1.57618 -1.85938,-2.07618 -0.82292,-0.5 -1.82813,-0.75 -3.01562,-0.75 z m 58.42187,0 c -2.46875,0 -4.43229,0.82618 -5.89063,2.48243 -1.44791,1.64583 -2.17187,3.89257 -2.17187,6.73633 0,2.84374 0.72396,5.08658 2.17187,6.73242 1.45834,1.64583 3.42188,2.46875 5.89063,2.46875 2.44791,0 4.40104,-0.82292 5.85937,-2.46875 1.45834,-1.64584 2.1875,-3.88868 2.1875,-6.73242 0,-2.84376 -0.72916,-5.0905 -2.1875,-6.73633 -1.45833,-1.65625 -3.41146,-2.48243 -5.85937,-2.48243 z m 59.04687,0 c -2.54166,0 -4.59374,0.8366 -6.15624,2.51368 -1.55209,1.67708 -2.32813,3.94466 -2.32813,6.79882 0,2.88542 0.8125,5.11459 2.4375,6.6875 1.625,1.5625 3.88542,2.34376 6.78125,2.34376 1.13541,0 2.21875,-0.14258 3.25,-0.42383 1.03125,-0.28125 2.04166,-0.62826 3.03125,-1.04493 v -3.20507 H 225 c -0.51042,0.45833 -1.36979,0.92708 -2.57812,1.40625 -1.19792,0.46875 -2.39063,0.70508 -3.57813,0.70508 -0.89583,0 -1.71875,-0.125 -2.46875,-0.375 -0.73959,-0.25 -1.38021,-0.625 -1.92188,-1.125 -0.5625,-0.51042 -1.00521,-1.16342 -1.32812,-1.95508 -0.32292,-0.80208 -0.48438,-1.73958 -0.48438,-2.8125 H 225.5 v -1.59375 c 0,-2.53125 -0.64062,-4.48243 -1.92188,-5.85743 -1.27083,-1.375 -3.08333,-2.0625 -5.4375,-2.0625 z m 119.26563,0 c -2.46875,0 -4.43229,0.82618 -5.89063,2.48243 -1.44791,1.64583 -2.17187,3.89257 -2.17187,6.73633 0,2.84374 0.72396,5.08658 2.17187,6.73242 1.45834,1.64583 3.42188,2.46875 5.89063,2.46875 2.44791,0 4.40104,-0.82292 5.85937,-2.46875 1.45834,-1.64584 2.1875,-3.88868 2.1875,-6.73242 0,-2.84376 -0.72916,-5.0905 -2.1875,-6.73633 -1.45833,-1.65625 -3.41146,-2.48243 -5.85937,-2.48243 z m -287.75,0.0625 c -1.114583,0 -2.125,0.14584 -3.03125,0.4375 -0.895833,0.28125 -1.635417,0.66667 -2.21875,1.15626 -0.604167,0.49999 -1.057292,1.06575 -1.359375,1.70117 -0.291667,0.63542 -0.4375,1.3125 -0.4375,2.03125 0,1.14583 0.317708,2.11458 0.953125,2.90625 0.645833,0.78125 1.734375,1.375 3.265625,1.78125 0.552083,0.14583 1.161458,0.28125 1.828125,0.40625 0.677083,0.125 1.223958,0.23632 1.640625,0.33007 1.125,0.25 1.885417,0.55209 2.28125,0.90626 0.395833,0.35416 0.59375,0.875 0.59375,1.5625 0,0.89583 -0.364583,1.55208 -1.09375,1.96874 -0.729167,0.41667 -1.739583,0.625 -3.03125,0.625 -1.041667,0 -2.130208,-0.20507 -3.265625,-0.61132 -1.135417,-0.41667 -2.166667,-0.97201 -3.09375,-1.66992 h -0.15625 v 3.29492 c 0.729167,0.36458 1.630208,0.70508 2.703125,1.01758 1.083333,0.30208 2.270833,0.45117 3.5625,0.45117 2.28125,0 4.078125,-0.51042 5.390625,-1.53125 1.322917,-1.02084 1.984375,-2.32618 1.984375,-3.91992 0,-1.27084 -0.369792,-2.29167 -1.109375,-3.0625 -0.739583,-0.76042 -1.791667,-1.29883 -3.15625,-1.61133 -0.447917,-0.10417 -1.010417,-0.21875 -1.6875,-0.34375 -0.666667,-0.125 -1.270833,-0.25 -1.8125,-0.375 -0.979167,-0.22917 -1.6875,-0.52409 -2.125,-0.88868 -0.447917,-0.36458 -0.671875,-0.90625 -0.671875,-1.625 0,-0.8125 0.369792,-1.42382 1.109375,-1.83007 0.739583,-0.41667 1.645833,-0.625 2.71875,-0.625 1.03125,0 2.083333,0.19466 3.15625,0.58007 1.072917,0.375 1.984375,0.8366 2.734375,1.38868 h 0.15625 v -3.13868 c -0.708333,-0.36458 -1.598958,-0.67382 -2.671875,-0.92382 -1.0625,-0.26042 -2.114583,-0.38868 -3.15625,-0.38868 z m 128.01563,0 c -1.05208,0 -2.1198,0.0938 -3.20313,0.28126 -1.08333,0.1875 -1.91146,0.35742 -2.48437,0.51367 v 2.98633 h 0.15624 c 1.01043,-0.38542 1.98959,-0.67709 2.9375,-0.875 0.94792,-0.20834 1.8073,-0.3125 2.57813,-0.3125 0.63541,0 1.24479,0.0417 1.82813,0.125 0.58333,0.0833 1.08333,0.24284 1.5,0.48242 0.4375,0.25 0.77083,0.59375 1,1.03125 0.23958,0.4375 0.35937,0.98958 0.35937,1.65625 v 0.45508 c -1.70833,0.0833 -3.30729,0.20833 -4.79687,0.375 -1.48959,0.16666 -2.76563,0.48242 -3.82813,0.95117 -1.05209,0.46875 -1.86459,1.11458 -2.4375,1.9375 -0.5625,0.8125 -0.84375,1.88216 -0.84375,3.20507 0,1.61459 0.54688,2.94076 1.64062,3.98243 1.09376,1.04166 2.42709,1.5625 4,1.5625 0.85417,0 1.59896,-0.0833 2.23438,-0.25 0.63541,-0.15625 1.19791,-0.35417 1.6875,-0.59375 0.41667,-0.1875 0.84375,-0.4375 1.28125,-0.75 0.44791,-0.32292 0.80208,-0.57292 1.0625,-0.75 v 1.86132 h 2.92187 v -11.84374 c 0,-1.125 -0.17187,-2.06966 -0.51562,-2.83008 -0.34375,-0.76042 -0.84375,-1.37826 -1.5,-1.85742 -0.66667,-0.48959 -1.45833,-0.83334 -2.375,-1.03126 -0.90625,-0.20833 -1.97396,-0.3125 -3.20312,-0.3125 z m 97.73437,0 c -1.11459,0 -2.125,0.14584 -3.03125,0.4375 -0.89583,0.28125 -1.63542,0.66667 -2.21875,1.15626 -0.60417,0.49999 -1.05729,1.06575 -1.35937,1.70117 -0.29167,0.63542 -0.4375,1.3125 -0.4375,2.03125 0,1.14583 0.3177,2.11458 0.95312,2.90625 0.64583,0.78125 1.73438,1.375 3.26562,1.78125 0.55209,0.14583 1.16146,0.28125 1.82813,0.40625 0.67708,0.125 1.22396,0.23632 1.64063,0.33007 1.125,0.25 1.88541,0.55209 2.28124,0.90626 0.39584,0.35416 0.59376,0.875 0.59376,1.5625 0,0.89583 -0.36459,1.55208 -1.09376,1.96874 -0.72916,0.41667 -1.73958,0.625 -3.03124,0.625 -1.04167,0 -2.13022,-0.20507 -3.26563,-0.61132 -1.13542,-0.41667 -2.16667,-0.97201 -3.09375,-1.66992 h -0.15625 v 3.29492 c 0.72917,0.36458 1.63021,0.70508 2.70313,1.01758 1.08333,0.30208 2.27083,0.45117 3.5625,0.45117 2.28125,0 4.07812,-0.51042 5.39062,-1.53125 1.32291,-1.02084 1.98438,-2.32618 1.98438,-3.91992 0,-1.27084 -0.3698,-2.29167 -1.10938,-3.0625 -0.73959,-0.76042 -1.79167,-1.29883 -3.15625,-1.61133 -0.44792,-0.10417 -1.01042,-0.21875 -1.6875,-0.34375 -0.66667,-0.125 -1.27083,-0.25 -1.8125,-0.375 -0.97917,-0.22917 -1.6875,-0.52409 -2.125,-0.88868 -0.44792,-0.36458 -0.67187,-0.90625 -0.67187,-1.625 0,-0.8125 0.36978,-1.42382 1.10937,-1.83007 0.73958,-0.41667 1.64583,-0.625 2.71875,-0.625 1.03125,0 2.08333,0.19466 3.15625,0.58007 1.07291,0.375 1.98437,0.8366 2.73437,1.38868 h 0.15626 v -3.13868 c -0.70834,-0.36458 -1.59897,-0.67382 -2.67188,-0.92382 -1.0625,-0.26042 -2.11458,-0.38868 -3.15625,-0.38868 z m 35.625,0 c -1.11459,0 -2.125,0.14584 -3.03125,0.4375 -0.89583,0.28125 -1.63542,0.66667 -2.21875,1.15626 -0.60417,0.49999 -1.05729,1.06575 -1.35937,1.70117 -0.29167,0.63542 -0.4375,1.3125 -0.4375,2.03125 0,1.14583 0.3177,2.11458 0.95312,2.90625 0.64583,0.78125 1.73438,1.375 3.26562,1.78125 0.55209,0.14583 1.16146,0.28125 1.82813,0.40625 0.67708,0.125 1.22396,0.23632 1.64063,0.33007 1.125,0.25 1.88541,0.55209 2.28124,0.90626 0.39584,0.35416 0.59376,0.875 0.59376,1.5625 0,0.89583 -0.36459,1.55208 -1.09376,1.96874 -0.72916,0.41667 -1.73958,0.625 -3.03124,0.625 -1.04167,0 -2.13022,-0.20507 -3.26563,-0.61132 -1.13542,-0.41667 -2.16667,-0.97201 -3.09375,-1.66992 h -0.15625 v 3.29492 c 0.72917,0.36458 1.63021,0.70508 2.70313,1.01758 1.08333,0.30208 2.27083,0.45117 3.5625,0.45117 2.28125,0 4.07812,-0.51042 5.39062,-1.53125 1.32291,-1.02084 1.98438,-2.32618 1.98438,-3.91992 0,-1.27084 -0.3698,-2.29167 -1.10938,-3.0625 -0.73959,-0.76042 -1.79167,-1.29883 -3.15625,-1.61133 -0.44792,-0.10417 -1.01042,-0.21875 -1.6875,-0.34375 -0.66667,-0.125 -1.27083,-0.25 -1.8125,-0.375 -0.97917,-0.22917 -1.6875,-0.52409 -2.125,-0.88868 -0.44792,-0.36458 -0.67187,-0.90625 -0.67187,-1.625 0,-0.8125 0.36978,-1.42382 1.10937,-1.83007 0.73958,-0.41667 1.64583,-0.625 2.71875,-0.625 1.03125,0 2.08333,0.19466 3.15625,0.58007 1.07291,0.375 1.98437,0.8366 2.73437,1.38868 h 0.15626 v -3.13868 c -0.70834,-0.36458 -1.59897,-0.67382 -2.67188,-0.92382 -1.0625,-0.26042 -2.11458,-0.38868 -3.15625,-0.38868 z m 44.95313,0 c -1.05208,0 -2.1198,0.0938 -3.20313,0.28126 -1.08333,0.1875 -1.91145,0.35742 -2.48437,0.51367 v 2.98633 h 0.15624 c 1.01043,-0.38542 1.98959,-0.67709 2.9375,-0.875 0.94793,-0.20834 1.8073,-0.3125 2.57813,-0.3125 0.63541,0 1.24479,0.0417 1.82813,0.125 0.58333,0.0833 1.08333,0.24284 1.5,0.48242 0.43749,0.25 0.77083,0.59375 1,1.03125 0.23958,0.4375 0.35937,0.98958 0.35937,1.65625 v 0.45508 c -1.70833,0.0833 -3.30729,0.20833 -4.79687,0.375 -1.48958,0.16666 -2.76563,0.48242 -3.82813,0.95117 -1.05209,0.46875 -1.86459,1.11458 -2.4375,1.9375 -0.5625,0.8125 -0.84375,1.88216 -0.84375,3.20507 0,1.61459 0.54688,2.94076 1.64062,3.98243 1.09376,1.04166 2.42709,1.5625 4,1.5625 0.85417,0 1.59896,-0.0833 2.23438,-0.25 0.63541,-0.15625 1.19791,-0.35417 1.6875,-0.59375 0.41667,-0.1875 0.84375,-0.4375 1.28125,-0.75 0.44791,-0.32292 0.80208,-0.57292 1.0625,-0.75 v 1.86132 h 2.92187 v -11.84374 c 0,-1.125 -0.17187,-2.06966 -0.51562,-2.83008 -0.34375,-0.76042 -0.84375,-1.37826 -1.5,-1.85742 -0.66667,-0.48959 -1.45833,-0.83334 -2.375,-1.03126 -0.90625,-0.20833 -1.97396,-0.3125 -3.20312,-0.3125 z m -333.156255,0.41993 6.953125,16.61133 -3.25,7.28124 h 3.140625 l 10.1875,-23.89257 H 36.78125 l -5.40625,12.9375 -5.359375,-12.9375 z m 261.374995,0 6.95313,16.61133 -3.25,7.28124 h 3.14063 l 10.1875,-23.89257 h -3.07813 l -5.40625,12.9375 -5.35938,-12.9375 z m -54.25,0.002 v 17.45312 h 2.9375 V 209.1875 c 0.78126,-0.63541 1.59376,-1.15104 2.4375,-1.54688 0.84376,-0.40625 1.71876,-0.60937 2.625,-0.60937 0.5625,0 1.04688,0.0261 1.45313,0.0781 0.41667,0.0417 0.84375,0.11458 1.28125,0.21874 h 0.15625 v -3.01562 c -0.45833,-0.0729 -0.80208,-0.11982 -1.03125,-0.14062 -0.22917,-0.0313 -0.59896,-0.0469 -1.10938,-0.0469 -0.92707,0 -1.83854,0.19792 -2.73437,0.59375 -0.88542,0.38542 -1.91146,1.04688 -3.07813,1.98437 V 204.125 Z m -149.843745,1.93555 c 1.5625,0 2.723958,0.42382 3.484375,1.26757 0.77083,0.84375 1.161455,2.03451 1.171875,3.57618 h -10 c 0.125,-1.375 0.651042,-2.52409 1.578125,-3.45118 0.9375,-0.92708 2.192708,-1.39257 3.765625,-1.39257 z m 137.875005,0 c 1.5625,0 2.72395,0.42382 3.48437,1.26757 0.77085,0.84375 1.16147,2.03451 1.17187,3.57618 h -10 c 0.125,-1.375 0.65104,-2.52409 1.57813,-3.45118 0.9375,-0.92708 2.19271,-1.39257 3.76563,-1.39257 z m -58.89063,0.11133 c 1.57291,-10e-6 2.80208,0.55208 3.6875,1.65624 0.88541,1.09375 1.32813,2.77084 1.32813,5.03126 0,2.20833 -0.44792,3.875 -1.34376,5 -0.88541,1.11458 -2.10937,1.66992 -3.67187,1.66992 -1.58333,0 -2.81771,-0.5625 -3.70313,-1.6875 -0.88541,-1.13542 -1.32812,-2.79492 -1.32812,-4.98242 0,-2.26042 0.4375,-3.93751 1.3125,-5.03126 0.88541,-1.10416 2.125,-1.65624 3.71875,-1.65624 z m 178.3125,0 c 1.57291,-10e-6 2.80208,0.55208 3.6875,1.65624 0.88541,1.09375 1.32812,2.77084 1.32813,5.03126 0,2.20833 -0.44792,3.875 -1.34376,5 -0.88541,1.11458 -2.10937,1.66992 -3.67187,1.66992 -1.58333,0 -2.8177,-0.5625 -3.70313,-1.6875 -0.88541,-1.13542 -1.32812,-2.79492 -1.32812,-4.98242 0,-2.26042 0.4375,-3.93751 1.3125,-5.03126 0.88541,-1.10416 2.125,-1.65624 3.71875,-1.65624 z M 198,206.32812 c 0.73958,0 1.42188,0.0658 2.04688,0.20118 0.625,0.13542 1.33333,0.38216 2.125,0.73632 v 10.01368 c -0.73959,0.58333 -1.53646,1.0625 -2.39063,1.4375 -0.85417,0.36458 -1.69792,0.54882 -2.53125,0.54882 -1.5625,0 -2.69792,-0.5384 -3.40625,-1.61132 -0.70833,-1.08334 -1.0625,-2.65951 -1.0625,-4.73242 0,-2.10417 0.45833,-3.72917 1.375,-4.875 0.91667,-1.14584 2.19792,-1.71876 3.84375,-1.71876 z m 178.3125,0 c 0.73958,0 1.42187,0.0658 2.04688,0.20118 0.62499,0.13542 1.33333,0.38216 2.125,0.73632 v 10.01368 c -0.73958,0.58333 -1.53646,1.0625 -2.39063,1.4375 -0.85417,0.36458 -1.69792,0.54882 -2.53125,0.54882 -1.5625,0 -2.69792,-0.5384 -3.40625,-1.61132 -0.70833,-1.08334 -1.0625,-2.65951 -1.0625,-4.73242 0,-2.10417 0.45833,-3.72917 1.375,-4.875 0.91667,-1.14584 2.19792,-1.71876 3.84375,-1.71876 z m -193.96875,6.09376 v 4.85742 c -0.72917,0.5625 -1.52083,1.04882 -2.375,1.45508 -0.85417,0.39583 -1.79687,0.59374 -2.82813,0.59374 -1.23958,0 -2.16145,-0.25 -2.76562,-0.75 -0.60417,-0.51041 -0.90625,-1.26757 -0.90625,-2.26757 0,-0.88542 0.26042,-1.57617 0.78125,-2.07617 0.52083,-0.51042 1.20313,-0.88542 2.04688,-1.125 0.70833,-0.19792 1.66666,-0.35092 2.875,-0.45508 1.21875,-0.10418 2.27604,-0.18036 3.17187,-0.23242 z m 178.3125,0 v 4.85742 c -0.72917,0.5625 -1.52083,1.04882 -2.375,1.45508 -0.85417,0.39583 -1.79687,0.59374 -2.82813,0.59374 -1.23957,0 -2.16145,-0.25 -2.76562,-0.75 -0.60417,-0.51041 -0.90625,-1.26757 -0.90625,-2.26757 0,-0.88542 0.26042,-1.57617 0.78125,-2.07617 0.52083,-0.51042 1.20313,-0.88542 2.04688,-1.125 0.70833,-0.19792 1.66666,-0.35092 2.875,-0.45508 1.21875,-0.10418 2.27604,-0.18036 3.17187,-0.23242 z"/></g></svg>