<svg xmlns="http://www.w3.org/2000/svg" role="img" xmlns:xlink="http://www.w3.org/1999/xlink" viewBox="-9.54 -9.29 249.08 61.08"><title>SYSVIEW® Performance Management logo</title><path d="M232.506 4.298c-1.06 0-1.93-.86-1.93-1.92s.87-1.93 1.93-1.93 1.93.87 1.93 1.93-.87 1.92-1.93 1.92m0-4.32c-1.32 0-2.4 1.08-2.4 2.4 0 1.32 1.08 2.4 2.4 2.4 1.32 0 2.4-1.08 2.4-2.4 0-1.32-1.08-2.4-2.4-2.4"/><path d="M232.666 2.278l-.51.01-.01-.62h.51c.19-.01.34.11.34.3.01.19-.14.31-.33.31m.83-.32c-.01-.42-.3-.72-.77-.72l-1.07.02.03 2.26h.49l-.01-.81h.35l.46.8.55-.01-.52-.86c.24-.06.49-.28.49-.68M47.0201 18.3885h-5.999V4.5545h5.835c1.574 0 2.557 1.016 2.557 2.393 0 1.377-.983 2.36-2.557 2.36H40.186v4h6.8341c1.836 0 2.819 1.18 2.819 2.556 0 1.574-1.049 2.525-2.819 2.525m3.376-7.245c2.066-.426 3.771-2.262 3.771-5.015 0-2.918-2.131-5.573-6.295-5.573h-11.506v21.865h11.867c4.163 0 6.359-2.623 6.359-5.901 0-2.754-1.868-5.015-4.196-5.376m17.8225-.5902H63.186v4.098h3.5576l4.294 7.769h5.343l-4.917-8.327c2.361-.557 4.786-2.622 4.786-6.49m0 0c0-4.065-2.786-7.048-7.343-7.048h-10.228v21.865h4.655V4.6533h4.885c1.869 0 3.278 1.114 3.278 2.95s-1.409 2.95-3.278 2.95m43.4206 4.0652l3.409-9.408 3.41 9.408zm.492-14.063l-8.458 21.865h5.31l1.377-3.704h9.376l1.344 3.704h5.311l-8.425-21.865zm26.9039 17.7671h-3.967v-13.67h3.967c4.491 0 6.851 2.983 6.851 6.852 0 3.704-2.524 6.818-6.851 6.818m0-17.767h-8.622v21.865h8.622c6.851 0 11.604-4.327 11.604-10.916s-4.753-10.949-11.604-10.949M221.162.5511l-5.734 9.27-5.734-9.27h-5.146v21.869h4.656V8.1271l5.012 7.622c.574.871 1.851.871 2.424 0l5.013-7.622v14.293h4.656V.5511z"/><path id="a" d="M91.0113 18.5521c-3.871 0-7.008-3.138-7.008-7.008 0-3.871 3.137-7.009 7.008-7.009 3.87 0 7.008 3.138 7.008 7.009 0 3.87-3.138 7.008-7.008 7.008m0-18.536c-6.367 0-11.528 5.161-11.528 11.528 0 6.366 5.161 11.527 11.528 11.527 6.366 0 11.528-5.161 11.528-11.527 0-6.367-5.162-11.528-11.528-11.528"/><path d="M171.5895 14.9349c-1.195 2.156-3.492 3.617-6.132 3.617-3.87 0-7.008-3.138-7.008-7.008 0-3.871 3.138-7.008 7.008-7.008 2.618 0 4.897 1.438 6.1 3.565l3.27-3.269c-2.092-2.915-5.508-4.816-9.37-4.816-6.367 0-11.527 5.161-11.527 11.528 0 6.366 5.16 11.528 11.527 11.528 3.883 0 7.316-1.922 9.404-4.865z"/><use transform="translate(98.718)" xlink:href="#a"/><ellipse cx="11.706" cy="11.705" fill="#cc092f" rx="16.236" ry="16.235"/><path fill="#fff" d="M26.0113 16.0912c-1.857-.74-3.557-.492-5.261.541 0 0-.621.379-.807.496-.794.498-1.543.97-2.263.97-.687 0-1.363-.184-1.649-1.513-.446-2.073-1.534-7.167-2.009-9.69-.279-1.483-.432-2.282-.591-2.825-.28-.954-.792-1.473-1.519-1.556 0 0-.114-.016-.207-.016-.092 0-.218.018-.218.018-.72.086-1.229.605-1.507 1.554-.159.543-.312 1.342-.591 2.825-.475 2.523-1.563 7.617-2.009 9.69-.286 1.329-.962 1.513-1.649 1.513-.72 0-1.469-.472-2.263-.97-.186-.117-.808-.496-.808-.496-1.703-1.033-3.404-1.281-5.26-.541-.401.16-.79596.33918-1.17196.52018.257.806.57693 1.59925.94993 2.34425.411-.202.84203-.40243 1.28203-.53243.634-.187 1.284-.197 1.914.014.612.205 1.157.568 1.7.909 1.023.643 2.182 1.372 3.657 1.372 2.186 0 3.72-1.305 4.21-3.581.38-1.764 1.222-5.702 1.763-8.418 0 0 1.386 6.654 1.765 8.418.49 2.276 2.025 3.581 4.211 3.581 1.475 0 2.634-.729 3.657-1.372.543-.341 1.088-.704 1.7-.909.629-.211 1.28-.201 1.914-.014.44.13.87039.33065 1.28139.53265.374-.745.69309-1.53862.95009-2.34462-.376-.181-.77048-.36003-1.17148-.52003"/><path d="M29.80108 43.1328q0 .42481-.2002.83985-.1953.41504-.55175.70312-.39063.3125-.91309.48828-.51758.17579-1.25.17579-.78613 0-1.41602-.14649-.625-.14648-1.27441-.43457v-1.21094h.06836q.55176.45899 1.27441.70801.72266.24902 1.35743.24902.89843 0 1.39648-.3369.50293-.33692.50293-.89845 0-.4834-.23926-.71289-.23437-.22949-.71777-.35644-.36621-.09766-.7959-.16114-.4248-.06348-.90332-.16113-.9668-.20508-1.43555-.69824-.46386-.49805-.46386-1.29394 0-.9131.77148-1.49415.77148-.58593 1.958-.58593.76661 0 1.40626.14648t1.13281.36133v1.14258h-.06836q-.41504-.35156-1.09375-.58106-.67383-.23437-1.38183-.23437-.77637 0-1.25.32226-.46875.32227-.46875.83008 0 .4541.23437.7129.23438.25878.8252.3955.3125.06836.88867.16601.57617.09767.97656.2002.81055.21484 1.2207.64941.41016.43457.41016 1.21582zm6.69922-5.1953l-2.5586 4.08202V45.208h-.9668v-3.08594l-2.56835-4.18457h1.06933l1.9873 3.25196 2.00684-3.25196zm6.28906 5.1953q0 .42481-.2002.83985-.1953.41504-.55175.70312-.39063.3125-.91309.48828-.51758.17579-1.25.17579-.78613 0-1.41601-.14649-.625-.14648-1.27442-.43457v-1.21094h.06836q.55176.45899 1.27442.70801.72265.24902 1.35742.24902.89843 0 1.39648-.3369.50293-.33692.50293-.89845 0-.4834-.23926-.71289-.23437-.22949-.71777-.35644-.36621-.09766-.7959-.16114-.4248-.06348-.90332-.16113-.9668-.20508-1.43555-.69824-.46386-.49805-.46386-1.29394 0-.9131.77148-1.49415.77149-.58593 1.958-.58593.76661 0 1.40626.14648t1.13281.36133v1.14258h-.06836q-.41504-.35156-1.09375-.58106-.67383-.23437-1.38183-.23437-.77637 0-1.25.32226-.46875.32227-.46875.83008 0 .4541.23437.7129.23438.25878.8252.3955.3125.06836.88867.16601.57617.09767.97656.2002.81055.21484 1.2207.64941.41016.43457.41016 1.21582zm7.28516-5.1953l-2.64649 7.2705h-1.28906l-2.64648-7.2705h1.03515l2.28028 6.39648 2.28027-6.39649zm3.66699 7.2705h-2.8711v-.74219h.95215v-5.78613h-.95215v-.74219h2.8711v.74219h-.95215v5.78613h.95215zm6.43555 0h-4.79004v-7.2705h4.79004v.85937H56.3538v1.99219h3.82324v.85937h-3.82324v2.7002h3.82324zm9.99511-7.2705l-1.88965 7.2705h-1.08886l-1.52832-6.03516L64.1712 45.208h-1.06446l-1.92383-7.2705h.99122l1.52832 6.04491 1.5039-6.04492h.98145l1.51855 6.10352 1.51856-6.10352zm9.67285 4.07226q0 1.74804-1.24023 2.98828-1.23535 1.23535-2.9834 1.23535t-2.98828-1.23535q-1.23535-1.24024-1.23535-2.98828 0-1.74805 1.23535-2.9834 1.24023-1.24023 2.98828-1.24023t2.9834 1.24023q1.24023 1.23535 1.24023 2.9834zm-.5664 0q0-1.51367-1.07422-2.59766-1.06934-1.08398-2.583-1.08398-1.51368 0-2.5879 1.08398-1.06934 1.08399-1.06934 2.59766 0 1.51367 1.06934 2.59765 1.07422 1.08399 2.5879 1.08399 1.51366 0 2.583-1.08399 1.07422-1.08398 1.07422-2.59765zm-.9375 2.14843h-1.08887l-1.61621-1.7334h-.79102v1.7334h-.80566v-4.46777h1.52344q.45898 0 .75683.03906t.58594.19043q.30762.16602.44922.40527.14648.23438.14648.59082 0 .47364-.27832.79102-.27343.3125-.75683.49805zm-1.71875-3.18847q0-.17578-.06836-.3125t-.2295-.22461q-.15136-.08301-.32226-.10742t-.42969-.02441h-.72754v1.50879h.62012q.30274 0 .52246-.04395.21973-.04883.36133-.16114.15137-.12207.20996-.26855.06348-.14649.06348-.36621zm13.24707-.83496q0 .4834-.1709.89843-.16602.41016-.46875.7129-.37598.37597-.88867.5664-.5127.18555-1.29395.18555h-.9668V45.208h-.9668v-7.2705h1.97267q.6543 0 1.1084.1123.4541.10742.80566.3418.41504.27831.63965.69335.22949.41504.22949 1.0498zm-1.00586.0244q0-.37597-.13184-.65429-.13183-.27832-.40039-.4541-.23437-.15137-.5371-.21484-.29786-.06836-.75684-.06836h-.95703v2.90527h.81542q.58594 0 .95215-.10254.36621-.10742.5957-.33691.2295-.23438.32227-.49317.09766-.25879.09766-.58105zm6.52832 2.417h-4.01856q0 .50293.15137.8789.15137.3711.41504.61036.2539.23437.60059.35156.35156.11719.77148.11719.55664 0 1.11816-.21973.56641-.2246.80567-.43945h.04883v1.00098q-.46387.1953-.94727.32714-.4834.13184-1.01562.13184-1.35742 0-2.11914-.73242-.76172-.7373-.76172-2.08985 0-1.33789.72754-2.12402.73242-.78613 1.92383-.78613 1.10351 0 1.69921.64453.6006.64453.6006 1.83105zm-.89356-.70313q-.0049-.72265-.3662-1.11816-.35645-.3955-1.08887-.3955-.7373 0-1.17676.43456-.43457.43457-.49317 1.0791zm5.68848-1.11816h-.0488q-.20508-.04883-.40039-.06836-.19043-.0244-.4541-.0244-.4248 0-.82031.19042-.39551.18555-.76172.4834V45.208h-.91797v-5.4541h.91797v.80566q.54687-.43945.96191-.62012.41992-.18554.8545-.18554.23925 0 .34667.01465.10743.0098.32227.04395zm3.79883-2.25586h-.0488q-.15137-.04395-.39551-.08789-.24414-.04883-.42968-.04883-.59082 0-.85938.26367-.26367.2588-.26367.94239v.18554h1.65527v.77149h-1.62597V45.208h-.91797v-4.68262h-.62012v-.77148h.62012v-.18067q0-.97168.4834-1.48925.48339-.52246 1.39648-.52246.30762 0 .55176.0293.24902.0293.4541.06836zm5.22949 3.98438q0 1.333-.68359 2.10449-.6836.77148-1.83106.77148-1.15722 0-1.84082-.77148-.67871-.77148-.67871-2.1045 0-1.333.67871-2.10448.6836-.77637 1.84082-.77637 1.14746 0 1.83106.77637.68359.77148.68359 2.10449zm-.94726 0q0-1.05957-.41504-1.57227-.41504-.51758-1.15235-.51758-.74707 0-1.16211.51758-.41015.5127-.41015 1.57227 0 1.02539.41504 1.55761.41504.52735 1.15722.52735.73242 0 1.14746-.52246.41993-.52735.41993-1.5625zm5.77148-1.72852h-.0488q-.20508-.04883-.40039-.06836-.19043-.0244-.4541-.0244-.4248 0-.82031.19042-.39551.18555-.76172.4834V45.208h-.91797v-5.4541h.91797v.80566q.54687-.43945.96191-.62012.41992-.18554.85449-.18554.23926 0 .34668.01465.10743.0098.32227.04395zm8.82324 4.45313h-.91797v-3.10547q0-.35156-.0342-.67871-.0293-.32715-.13183-.52246-.11231-.20996-.32227-.31738-.20996-.10742-.60547-.10742-.38574 0-.77148.1953-.38574.19044-.77149.48829.0146.1123.0244.26367.01.14649.01.29297V45.208h-.91796v-3.10547q0-.36133-.0342-.6836-.0293-.32714-.13184-.52245-.1123-.20996-.32227-.3125-.20996-.10742-.60546-.10742-.37598 0-.75684.18554-.37598.18555-.75195.47363V45.208h-.91797v-5.4541h.91797v.60547q.42968-.35645.85449-.55664.42969-.2002.91308-.2002.55665 0 .94239.23438.39062.23437.58105.64941.55664-.46875 1.01563-.67383.45898-.20996.98144-.20996.89844 0 1.32324.54688.42969.54199.42969 1.51855zm6.00586 0h-.91308v-.58105q-.12207.083-.33204.23437-.20507.14649-.40039.23438-.22949.1123-.52734.18554-.29785.07813-.69824.07813-.73731 0-1.25-.48828-.5127-.48828-.5127-1.24512 0-.62011.26367-1.00097.26856-.38574.76172-.60547.49805-.21973 1.19629-.29785.69824-.07813 1.49903-.11719v-.1416q0-.3125-.11231-.51758-.10742-.20508-.3125-.32227-.19531-.1123-.46875-.15136t-.57129-.03906q-.36133 0-.80566.09766-.44434.09277-.91797.27343h-.0488v-.93261q.26856-.07324.77637-.16114.50781-.08789 1.00097-.08789.57618 0 1.00098.09766.42969.09277.74219.32227.30762.2246.46875.58105.16113.35645.16113.8838zm-.91308-1.34277v-1.51856q-.41993.02441-.99122.07324-.5664.04883-.89843.1416-.39551.1123-.63965.35157-.24414.23437-.24414.64941 0 .46875.2832.708.2832.23438.86426.23438.4834 0 .88379-.18554.40039-.19043.74219-.4541zm7.24121 1.34277h-.91797v-3.10547q0-.37598-.0439-.70312-.0439-.33204-.16113-.51758-.12207-.20508-.35156-.30274-.22949-.10254-.59571-.10254-.37597 0-.78613.18555-.41015.18555-.78613.47363V45.208h-.91797v-5.4541h.91797v.60547q.42969-.35645.88867-.55664.45898-.2002.94238-.2002.88379 0 1.34766.53223.46387.53222.46387 1.5332zm5.80078-.3418q-.45899.21973-.87403.3418-.41015.12207-.87402.12207-.59082 0-1.08398-.1709-.49317-.17578-.84473-.52734-.35645-.35156-.55176-.88867-.19531-.53711-.19531-1.25489 0-1.33789.73242-2.0996.73731-.76172 1.94336-.76172.46875 0 .91797.13183.4541.13184.83008.32227v1.0205h-.0488q-.41992-.32714-.86914-.50293-.44434-.17578-.86914-.17578-.78125 0-1.23535.52735-.44922.52246-.44922 1.53808 0 .98633.43945 1.51856.44434.52734 1.24512.52734.27832 0 .5664-.07324.28809-.07324.51758-.19043.2002-.10254.37598-.21484.17578-.11719.27832-.2002h.0488zm5.74219-2.29004H142.721q0 .50293.15137.87891.15137.3711.41504.61035.2539.23438.60058.35156.35157.1172.77149.1172.55664 0 1.11816-.21974.56641-.2246.80567-.43945h.0488v1.00098q-.46386.19531-.94726.32715-.4834.13183-1.01563.13183-1.35742 0-2.11914-.73242-.76172-.7373-.76172-2.08984 0-1.3379.72754-2.12403.73242-.78613 1.92383-.78613 1.10352 0 1.69922.64453.60059.64453.60059 1.83106zm-.89356-.70312q-.005-.72266-.36621-1.11817-.35645-.3955-1.08887-.3955-.7373 0-1.17676.43457-.43457.43457-.49316 1.0791zm12.34863 3.33496h-.96679v-6.26465l-2.02149 4.2627h-.57617l-2.00684-4.2627V45.208h-.90332v-7.2705h1.31836l1.93848 4.04784 1.875-4.04785h1.34277zm6.11817 0h-.91309v-.58105q-.12207.083-.33203.23437-.20508.14649-.40039.23438-.22949.1123-.52734.18554-.29786.07813-.69825.07813-.7373 0-1.25-.48828-.51269-.48828-.51269-1.24512 0-.62011.26367-1.00097.26856-.38574.76172-.60547.49805-.21973 1.19629-.29785.69824-.07813 1.49902-.11719v-.1416q0-.3125-.1123-.51758-.10742-.20508-.3125-.32227-.19532-.1123-.46875-.15136-.27344-.03906-.57129-.03906-.36133 0-.80567.09766-.44433.09277-.91796.27343h-.0488v-.93261q.26855-.07324.77636-.16114.50782-.08789 1.00098-.08789.57617 0 1.00098.09766.42968.09277.74218.32227.30762.2246.46875.58105.16114.35645.16114.8838zm-.91309-1.34277v-1.51856q-.41992.02441-.99121.07324-.56641.04883-.89844.1416-.3955.1123-.63965.35157-.24414.23437-.24414.64941 0 .46875.28321.708.2832.23438.86426.23438.48339 0 .88378-.18554.40039-.19043.74219-.4541zm7.24121 1.34277h-.91797v-3.10547q0-.37598-.0439-.70312-.0439-.33204-.16113-.51758-.12207-.20508-.35157-.30274-.22949-.10254-.5957-.10254-.37598 0-.78613.18555-.41016.18555-.78614.47363V45.208h-.91796v-5.4541h.91796v.60547q.42969-.35645.88868-.55664.45898-.2002.94238-.2002.88379 0 1.34766.53223.46386.53222.46386 1.5332zm6.00586 0h-.91308v-.58105q-.12207.083-.33204.23437-.20507.14649-.40039.23438-.22949.1123-.52734.18554-.29785.07813-.69824.07813-.73731 0-1.25-.48828-.5127-.48828-.5127-1.24512 0-.62011.26367-1.00097.26856-.38574.76172-.60547.49805-.21973 1.19629-.29785.69824-.07813 1.49903-.11719v-.1416q0-.3125-.11231-.51758-.10742-.20508-.3125-.32227-.19531-.1123-.46875-.15136t-.57129-.03906q-.36133 0-.80566.09766-.44434.09277-.91797.27343h-.0488v-.93261q.26856-.07324.77637-.16114.50781-.08789 1.00098-.08789.57617 0 1.00097.09766.42969.09277.74219.32227.30762.2246.46875.58105.16113.35645.16113.8838zm-.91308-1.34277v-1.51856q-.41993.02441-.99121.07324-.56641.04883-.89844.1416-.39551.1123-.63965.35157-.24414.23437-.24414.64941 0 .46875.2832.708.2832.23438.86426.23438.4834 0 .88379-.18554.40039-.19043.74219-.4541zm7.10449.72265q0 1.38672-.62988 2.03614-.62989.64941-1.93848.64941-.43457 0-.84961-.06348-.41016-.05859-.81055-.1709v-.9375h.0488q.22461.0879.71289.21485.48828.13183.97656.13183.46875 0 .77637-.1123t.47852-.3125q.1709-.19043.24414-.45899.0732-.26855.0732-.60058v-.49805q-.41504.33203-.7959.49805-.37598.16113-.96191.16113-.97657 0-1.55274-.70313-.57129-.708-.57129-1.99218 0-.70313.19532-1.21094.20019-.5127.54199-.88379.31738-.34668.77148-.5371.4541-.19532.90332-.19532.47364 0 .79102.09766.32226.09277.67871.28808l.0586-.23437h.85938zm-.91797-.8789v-2.97364q-.36621-.16601-.68359-.23437-.3125-.07324-.625-.07324-.75684 0-1.19141.50781-.43457.50781-.43457 1.47461 0 .91797.32226 1.3916.32227.47364 1.06934.47364.40039 0 .80078-.15137.40528-.15625.74219-.41504zm7.29004-1.13282h-4.01856q0 .50293.15137.87891.15137.3711.41504.61035.25391.23438.60059.35156.35156.1172.77148.1172.55664 0 1.11816-.21974.56641-.2246.80567-.43945h.0488v1.00098q-.46387.19531-.94727.32715-.4834.13183-1.01562.13183-1.35743 0-2.11914-.73242-.76172-.7373-.76172-2.08984 0-1.3379.72754-2.12403.73242-.78613 1.92382-.78613 1.10352 0 1.69922.64453.60059.64453.60059 1.83106zm-.89356-.70312q-.005-.72266-.36621-1.11817-.35644-.3955-1.08886-.3955-.73731 0-1.17676.43457-.43457.43457-.49317 1.0791zm10.24414 3.33496h-.91796v-3.10547q0-.35156-.0342-.67871-.0293-.32715-.13184-.52246-.1123-.20996-.32227-.31738-.20996-.10742-.60546-.10742-.38575 0-.77149.1953-.38574.19044-.77148.48829.0147.1123.0244.26367.01.14649.01.29297V45.208h-.91797v-3.10547q0-.36133-.0342-.6836-.0293-.32714-.13184-.52245-.1123-.20996-.32226-.3125-.20996-.10742-.60547-.10742-.37598 0-.75684.18554-.37597.18555-.75195.47363V45.208h-.91797v-5.4541h.91797v.60547q.42969-.35645.85449-.55664.42969-.2002.91309-.2002.55664 0 .94238.23438.39062.23437.58105.64941.55665-.46875 1.01563-.67383.45898-.20996.98144-.20996.89844 0 1.32325.54688.42968.54199.42968 1.51855zm6.33301-2.63184h-4.01855q0 .50293.15136.87891.15137.3711.41504.61035.25391.23438.60059.35156.35156.1172.77148.1172.55664 0 1.11817-.21974.5664-.2246.80566-.43945h.0488v1.00098q-.46387.19531-.94727.32715-.48339.13183-1.01562.13183-1.35742 0-2.11914-.73242-.76172-.7373-.76172-2.08984 0-1.3379.72754-2.12403.73242-.78613 1.92383-.78613 1.10351 0 1.69922.64453.60058.64453.60058 1.83106zm-.89355-.70312q-.005-.72266-.36621-1.11817-.35645-.3955-1.08887-.3955-.73731 0-1.17676.43457-.43457.43457-.49316 1.0791zm6.8457 3.33496h-.91797v-3.10547q0-.37598-.0439-.70312-.0439-.33204-.16114-.51758-.12207-.20508-.35156-.30274-.22949-.10254-.5957-.10254-.37598 0-.78613.18555-.41016.18555-.78614.47363V45.208h-.91797v-5.4541h.91797v.60547q.42969-.35645.88867-.55664.45899-.2002.94239-.2002.88379 0 1.34765.53223.46387.53222.46387 1.5332zm4.59961-.04883q-.25879.06836-.56641.1123-.30273.04395-.54199.04395-.83496 0-1.26953-.44921-.43457-.44922-.43457-1.44043v-2.9004h-.62012v-.77148h.62012v-1.56738h.91797v1.56738h1.89453v.77149h-1.89453v2.48535q0 .42968.0195.67383.0195.23925.13672.44921.10742.19532.29297.28809.19043.08789.57617.08789.22461 0 .46875-.06348.24414-.06836.35156-.1123h.0488z" text-anchor="middle"/></svg>