<svg xmlns="http://www.w3.org/2000/svg" role="img" viewBox="2.45 10.95 652.60 187.10"><title>TerseDecompress logo</title><defs><style>.cls-1{fill:#2a7de1}.cls-2{fill:#0033a1}</style></defs><path d="M15.374 58.254c-.133 8.118-.024 7.957 7.995 8.108 3.343.062 4.033-1.172 3.995-4.232-.102-8.282-.585-16.563-.137-24.855.1-1.838.61-2.17 2.28-2.165 19.23.055 38.46.09 57.688-.019 2.676-.015 3.106 1.038 3.06 3.33-.121 5.966.096 11.94-.11 17.9-.098 2.834.933 3.622 3.603 3.56 6.184-.146 12.375-.02 18.563-.092 1.738-.02 2.847.375 2.575 2.37-.5 3.657 1.383 4.548 4.6 4.146a21.945 21.945 0 0 1 4.306-.006c2.035.15 2.783-.804 2.774-2.726q-.023-5.138.095-10.277a4.075 4.075 0 0 0-1.506-3.141c-8.15-8.093-16.311-16.178-24.344-24.386a7.005 7.005 0 0 0-5.554-2.208c-11.162.07-22.325.032-33.487.031-11.494 0-22.988-.044-34.481.017a11.327 11.327 0 0 0-11.44 9.832c-1.093 8.249-.34 16.541-.475 24.813zm64.621 89.479c-16.579.002-33.158.02-49.736-.027-1.108-.003-3.22.777-2.893-1.46.666-4.554-1.838-4.887-5.251-4.544a41.967 41.967 0 0 1-4.64.023c-1.15-.013-1.95.412-2.07 1.642-.842 8.613 3.597 16.012 12.448 15.965 14.368-.077 28.737-.02 43.106-.02v.025q10.465 0 20.93-.005c.345-3.876.825-7.744 1.348-11.608l-13.242.01zm17.839 10.719l-.105.883h.105z" class="cls-1"/><path d="M127.922 98.358c-1.504-10.534-14.097-15.605-22.403-9.211-1.557 1.199-2.413 2.632-1.147 4.434 1.242 1.767 2.794 1.568 4.527.47 6.075-3.846 12.47-.814 13.416 6.289q2.603 19.56 5.213 39.118h2.22v16.858c.206 1.59.423 3.18.628 4.771a15.773 15.773 0 0 1-7.393 16.072 15.487 15.487 0 0 1-17.646.3c-5.825-3.567-8.629-9.011-7.882-15.819.084-.769.184-1.536.274-2.305q-2.92 0-5.84-.003a152.23 152.23 0 0 0-.242 2.981 22.08 22.08 0 0 0 21.951 23.605c12.768.168 22.897-10.05 22.74-24.505-.593-4.479-1.385-10.481-2.182-16.483-2.064-15.526-4.02-31.068-6.234-46.572z" class="cls-2"/><path d="M97.834 139.458h2.506q.39-2.809.77-5.618c.749-5.577 1.544-11.147 2.263-16.727.383-2.968-1.238-4.845-3.586-4.23-1.832.479-2.204 1.966-2.41 3.6-.77 6.094-1.598 12.181-2.373 18.275-.55 4.325-1.182 8.644-1.767 12.966 1.532 0 3.064.004 4.597.004z" class="cls-2"/><path d="M97.834 158.452v-10.724c-1.533 0-3.065-.005-4.597-.004-.523 3.864-1.003 7.732-1.349 11.608q2.92 0 5.84.003l.106-.883zm31.914-18.994h-2.22q1.118 8.428 2.22 16.858zm-31.914 8.27c.455 0 .91.004 1.365.005q.564-4.138 1.141-8.275h-2.506z" class="cls-2"/><path d="M97.834 147.728v10.724q.634-5.365 1.365-10.72c-.455 0-.91-.004-1.365-.004zm14.894-72.574C101.77 78.65 90.944 82.565 80.04 86.237a3.89 3.89 0 0 0-2.931 4.284c.079 3.723.021 7.45.021 11.175h.014c0 3.898.025 7.797-.012 11.695-.016 1.727.511 3.114 2.217 3.718q3.788 1.342 7.644 2.495a2.925 2.925 0 0 0 1.931-5.517 26.572 26.572 0 0 0-3.93-1.333 2.207 2.207 0 0 1-1.893-2.564c.09-5.63.069-11.263.012-16.893a2.145 2.145 0 0 1 1.668-2.462c10.022-3.324 19.96-6.911 30.04-10.044a18.798 18.798 0 0 1 24.167 14.351c1.324 7.1 1.48 14.347-3.143 20.725-1.108 1.528-1.083 3.213.578 4.33 1.618 1.09 3.138.644 4.23-1.013.57-.867 1.16-1.725 1.682-2.62 3.346-5.744 3.44-12.07 3.148-18.42a25.189 25.189 0 0 0-32.755-22.99z" class="cls-2"/><path d="M102.428 104.81c2.68 0 5.362-.03 8.042.01 2.084.031 3.734-.658 3.774-2.94.04-2.257-1.508-3.078-3.64-3.068q-8.171.041-16.343.003c-2.029-.008-3.488.837-3.516 2.933-.03 2.26 1.512 3.094 3.641 3.07 2.68-.032 5.361-.008 8.042-.008zm-84.773 8.213c.086 3.028 1.693 5.056 4.815 4.993 2.844-.057 4.578-1.897 4.614-4.781.094-7.543.085-15.088.015-22.63-.03-3.072-1.753-5.03-4.826-4.99-3.127.041-4.575 2.184-4.632 5.19-.066 3.565-.015 7.132-.014 10.698.002 3.84-.08 7.683.028 11.52zm24.628-27.407c-3.312-.035-4.815 2.208-4.834 5.424-.02 3.705-.005 7.41-.006 11.114-.001 3.43.007 6.86-.004 10.29-.01 3.203 1.403 5.52 4.7 5.57 3.302.048 4.816-2.229 4.826-5.436.02-7.135-.004-14.27.003-21.404.004-3.193-1.346-5.523-4.685-5.558zm24.46 5.029c-.076-3.039-1.703-5.068-4.793-5.024-3.09.044-4.641 2.128-4.661 5.16-.05 7.402-.066 14.805.01 22.206.03 3.048 1.708 5.061 4.79 5.022 3.092-.039 4.613-2.125 4.664-5.158.06-3.563.014-7.128.013-10.692 0-3.838.073-7.678-.023-11.514z" class="cls-2"/><circle cx="113.5" cy="163.24" r="6" class="cls-2"/><path d="M181.976 102.43h-11.34v-7.56h30.878v7.56h-11.34v29.706h-8.198zm17.997 15.598v-.107c0-8.145 5.802-14.853 14.107-14.853 9.53 0 13.896 7.4 13.896 15.492 0 .639-.054 1.384-.107 2.13h-19.857a6.618 6.618 0 0 0 6.973 5.59 9.353 9.353 0 0 0 6.921-2.928l4.632 4.099a14.272 14.272 0 0 1-11.66 5.323c-8.57 0-14.905-6.015-14.905-14.746zm20.124-2.396c-.48-3.62-2.61-6.069-6.017-6.069-3.353 0-5.536 2.396-6.176 6.069zm13.896-12.032h8.092v5.75c1.65-3.94 4.312-6.495 9.104-6.282v8.465h-.426c-5.377 0-8.678 3.247-8.678 10.062v10.54h-8.092zm20.019 24.756l3.46-5.324a16.135 16.135 0 0 0 8.998 3.408c2.342 0 3.407-.853 3.407-2.13v-.107c0-1.757-2.769-2.342-5.91-3.3-3.992-1.172-8.518-3.035-8.518-8.572v-.106c0-5.803 4.686-9.05 10.435-9.05a19.753 19.753 0 0 1 10.648 3.3l-3.088 5.59c-2.822-1.65-5.643-2.662-7.72-2.662-1.97 0-2.98.852-2.98 1.97v.107c0 1.597 2.714 2.342 5.802 3.407 3.993 1.33 8.625 3.247 8.625 8.465v.106c0 6.335-4.738 9.21-10.914 9.21a19.99 19.99 0 0 1-12.245-4.312zm27.58-10.328v-.107c0-8.145 5.803-14.853 14.107-14.853 9.53 0 13.896 7.4 13.896 15.492 0 .639-.054 1.384-.107 2.13h-19.857a6.618 6.618 0 0 0 6.973 5.59 9.353 9.353 0 0 0 6.921-2.928l4.632 4.099a14.272 14.272 0 0 1-11.659 5.323c-8.571 0-14.906-6.015-14.906-14.746zm20.124-2.396c-.48-3.62-2.61-6.069-6.017-6.069-3.353 0-5.536 2.396-6.176 6.069zm14.749-20.762h14.534c11.713 0 19.805 8.038 19.805 18.526v.107c0 10.487-8.092 18.633-19.805 18.633h-14.534zm14.534 29.866c6.708 0 11.233-4.525 11.233-11.127v-.107c0-6.601-4.525-11.233-11.233-11.233h-6.335v22.467zm24.865-6.708v-.107c0-8.145 5.803-14.853 14.108-14.853 9.53 0 13.895 7.4 13.895 15.492 0 .639-.054 1.384-.106 2.13h-19.858a6.618 6.618 0 0 0 6.974 5.59 9.353 9.353 0 0 0 6.92-2.928l4.633 4.099a14.272 14.272 0 0 1-11.66 5.323c-8.57 0-14.906-6.015-14.906-14.746zm20.124-2.396c-.48-3.62-2.61-6.069-6.016-6.069-3.354 0-5.536 2.396-6.176 6.069zm12.513 2.396v-.107a14.65 14.65 0 0 1 14.96-14.853c5.377 0 8.73 1.81 11.393 4.791l-4.952 5.324c-1.81-1.916-3.62-3.14-6.495-3.14-4.046 0-6.92 3.566-6.92 7.772v.107c0 4.365 2.82 7.878 7.24 7.878 2.714 0 4.578-1.17 6.548-3.034l4.738 4.791a14.367 14.367 0 0 1-11.658 5.218 14.57 14.57 0 0 1-14.854-14.747zm29.603 0v-.107c0-8.198 6.601-14.853 15.492-14.853 8.837 0 15.385 6.548 15.385 14.747v.106c0 8.199-6.601 14.853-15.492 14.853-8.838 0-15.385-6.547-15.385-14.746zm22.891 0v-.107a7.581 7.581 0 0 0-7.506-7.879c-4.632 0-7.4 3.567-7.4 7.773v.107a7.581 7.581 0 0 0 7.507 7.878c4.632 0 7.4-3.567 7.4-7.772zM454.84 103.6h8.092v4.047c1.863-2.396 4.312-4.579 8.412-4.579 3.726 0 6.548 1.65 8.039 4.525a11.75 11.75 0 0 1 9.37-4.525c6.016 0 9.636 3.62 9.636 10.488v18.58h-8.093v-15.918c0-3.834-1.703-5.803-4.737-5.803-3.036 0-4.899 1.97-4.899 5.803v15.918h-8.092v-15.918c0-3.834-1.704-5.803-4.738-5.803-3.035 0-4.898 1.97-4.898 5.803v15.918h-8.092zm50.58 0h8.092v4.1a10.481 10.481 0 0 1 8.891-4.632c6.655 0 12.99 5.217 12.99 14.747v.106c0 9.53-6.229 14.747-12.99 14.747a10.96 10.96 0 0 1-8.891-4.259v12.245h-8.092zm21.88 14.321v-.106c0-4.738-3.194-7.88-6.974-7.88-3.78 0-6.92 3.142-6.92 7.88v.106c0 4.738 3.14 7.88 6.92 7.88s6.975-3.089 6.975-7.88zm14.057-14.321h8.092v5.75c1.65-3.94 4.313-6.495 9.105-6.282v8.465h-.427c-5.377 0-8.678 3.247-8.678 10.062v10.54h-8.092zm20.073 14.428v-.107c0-8.145 5.802-14.853 14.107-14.853 9.53 0 13.896 7.4 13.896 15.492 0 .639-.054 1.384-.107 2.13H569.47a6.618 6.618 0 0 0 6.973 5.59 9.353 9.353 0 0 0 6.921-2.928l4.632 4.099a14.272 14.272 0 0 1-11.66 5.323c-8.57 0-14.905-6.015-14.905-14.746zm20.124-2.396c-.48-3.62-2.61-6.069-6.017-6.069-3.353 0-5.536 2.396-6.176 6.069zm11.661 12.724l3.46-5.324a16.135 16.135 0 0 0 8.998 3.408c2.343 0 3.407-.853 3.407-2.13v-.107c0-1.757-2.768-2.342-5.91-3.3-3.992-1.172-8.518-3.035-8.518-8.572v-.106c0-5.803 4.686-9.05 10.435-9.05a19.753 19.753 0 0 1 10.648 3.3l-3.088 5.59c-2.822-1.65-5.643-2.662-7.72-2.662-1.969 0-2.98.852-2.98 1.97v.107c0 1.597 2.714 2.342 5.802 3.407 3.993 1.33 8.625 3.247 8.625 8.465v.106c0 6.335-4.738 9.21-10.914 9.21a19.99 19.99 0 0 1-12.245-4.312zm26.195 0l3.461-5.324a16.135 16.135 0 0 0 8.997 3.408c2.343 0 3.407-.853 3.407-2.13v-.107c0-1.757-2.768-2.342-5.909-3.3-3.993-1.172-8.518-3.035-8.518-8.572v-.106c0-5.803 4.685-9.05 10.434-9.05a19.753 19.753 0 0 1 10.649 3.3l-3.088 5.59c-2.822-1.65-5.644-2.662-7.72-2.662-1.97 0-2.981.852-2.981 1.97v.107c0 1.597 2.714 2.342 5.802 3.407 3.993 1.33 8.625 3.247 8.625 8.465v.106c0 6.335-4.738 9.21-10.914 9.21a19.99 19.99 0 0 1-12.245-4.312z" class="cls-2"/><path fill="none" d="M348.028 52.564a5.102 5.102 0 0 0-2.521-.467h-1.082v4.107h1.107a5.548 5.548 0 0 0 2.575-.412 1.682 1.682 0 0 0 .695-1.58 1.765 1.765 0 0 0-.774-1.648zm-71.771 6.886h5.017l-2.496-6.222-2.521 6.222zm87.731 0h5.016l-2.496-6.222-2.52 6.222zm66.172-9.05h-3.006v6.21h2.862a4.55 4.55 0 0 0 2.929-.815 3.116 3.116 0 0 0 .022-4.558 4.204 4.204 0 0 0-2.807-.836zm-230.67.321h-3.357v6.935h3.197a5.082 5.082 0 0 0 3.27-.91 3.48 3.48 0 0 0 .025-5.09 4.697 4.697 0 0 0-3.135-.935zm-16.98-.098a7.483 7.483 0 0 0-5.454 2.194 7.614 7.614 0 0 0 0 10.772 7.483 7.483 0 0 0 5.454 2.194 7.385 7.385 0 0 0 5.416-2.194 7.674 7.674 0 0 0 0-10.772 7.385 7.385 0 0 0-5.416-2.194zm264.524 2.783a2.619 2.619 0 0 0-1.046-2.213 4.903 4.903 0 0 0-3.005-.792h-2.51v6.021h2.554a4.83 4.83 0 0 0 2.978-.787 2.641 2.641 0 0 0 1.03-2.229zm14.166-3.094a6.697 6.697 0 0 0-4.881 1.966 6.816 6.816 0 0 0 0 9.643 6.697 6.697 0 0 0 4.882 1.965 6.611 6.611 0 0 0 4.849-1.965 6.87 6.87 0 0 0 0-9.643 6.611 6.611 0 0 0-4.85-1.966z"/><path d="M479.66 49.528h-5.101v18.506h1.43v-8.65h3.537a6.924 6.924 0 0 0 4.604-1.338 4.522 4.522 0 0 0 1.569-3.63 4.43 4.43 0 0 0-1.556-3.576 6.783 6.783 0 0 0-4.484-1.312zm3.297 7.684a5.475 5.475 0 0 1-3.523.98h-3.444V50.72h3.616a5.06 5.06 0 0 1 3.378 1.006 3.75 3.75 0 0 1-.027 5.485zm14.98 1.602q3.523-1.298 3.523-4.504a4.276 4.276 0 0 0-1.576-3.49 7.031 7.031 0 0 0-4.557-1.291h-4.742v18.505h1.43v-8.875h2.503a4.593 4.593 0 0 1 2.636.63 12.385 12.385 0 0 1 2.515 3.173l3.224 5.072h1.693l-4.186-6.398a8.307 8.307 0 0 0-2.463-2.822zm-2.849-.847h-3.073V50.72h3.021a5.9 5.9 0 0 1 3.616.953 3.484 3.484 0 0 1 .02 5.345 5.812 5.812 0 0 1-3.584.948zm21.816-8.677a9.573 9.573 0 0 0-6.934 2.762 9.389 9.389 0 0 0 0 13.458 10.119 10.119 0 0 0 13.895 0 9.357 9.357 0 0 0 0-13.458 9.635 9.635 0 0 0-6.961-2.762zm5.888 15.293a7.955 7.955 0 0 1-5.835 2.365 8.058 8.058 0 0 1-5.875-2.365 8.202 8.202 0 0 1 0-11.604 8.058 8.058 0 0 1 5.875-2.365 7.955 7.955 0 0 1 5.835 2.365 8.266 8.266 0 0 1 0 11.604zm9.688 3.835q0 3.71-2.597 3.71a3.743 3.743 0 0 1-.848-.107l.133 1.351a8.102 8.102 0 0 0 .861.053 3.71 3.71 0 0 0 2.729-1.165q1.152-1.166 1.153-4.226V49.528h-1.431zm9.191-9.087h8.438v-1.206h-8.438v-7.404h8.663v-1.193H540.24v18.506h10.306v-1.192h-8.875v-7.511zm17.072 5.325a7.842 7.842 0 0 1-2.331-5.842 7.992 7.992 0 0 1 2.318-5.855 7.778 7.778 0 0 1 5.762-2.344 13.997 13.997 0 0 1 6.597 1.788V50.84a15.569 15.569 0 0 0-6.504-1.55 9.604 9.604 0 0 0-6.849 2.729 9.484 9.484 0 0 0-.059 13.544 9.748 9.748 0 0 0 7.04 2.71 13.937 13.937 0 0 0 6.558-1.736v-1.484a14.18 14.18 0 0 1-6.584 1.895 8.132 8.132 0 0 1-5.948-2.292zm15.431-15.128v1.193h6.941v17.313h1.444V50.721h6.941v-1.193h-15.326zM270.243 56.52l-6.303-7.694h-5.607v20.507h6.007V57.452l5.592 6.88h.489l5.577-6.88v11.881h6.185V48.826h-5.608l-6.332 7.694zm23.761-7.694l-9.07 20.507h6.333l1.702-4.158h8.906l1.672 4.158h6.332l-9.04-20.507zm.414 12.784l3.034-7.487 3.003 7.487zm18.214-12.784h6.184v20.506h-6.184zm27.459 11.363l-10.608-11.363h-5.489v20.507h6.126V57.911l10.637 11.422h5.504V48.826h-6.17v11.363zm11.318 9.144h6.185v-8.301h8.507v-4.127h-8.507V52.94h8.507v-4.114h-14.692v20.507zm34.881-7.657a5.902 5.902 0 0 0-1.636-1.369 12.575 12.575 0 0 0 1.495-.931 4.82 4.82 0 0 0 1.265-1.561 5.319 5.319 0 0 0 .599-2.627 6.455 6.455 0 0 0-.718-2.81 6.22 6.22 0 0 0-2.345-2.516 7.65 7.65 0 0 0-4.172-1.036h-10.52v20.507h6.185v-8.004h.695a4.92 4.92 0 0 1 1.74.258 3.449 3.449 0 0 1 1.382 1.184 15.151 15.151 0 0 1 1.598 2.922l1.613 3.64h6.643l-2.071-4.454a17.187 17.187 0 0 0-1.754-3.203zm-5.416-4.468a6.676 6.676 0 0 1-3.1.495h-1.33v-4.941h1.3a6.14 6.14 0 0 1 3.034.562 2.124 2.124 0 0 1 .932 1.983 2.024 2.024 0 0 1-.836 1.9zm18.694-8.382l-9.07 20.507h6.333l1.701-4.158h8.907l1.672 4.158h6.332l-9.04-20.507zm.414 12.784l3.033-7.487 3.004 7.487zm30.094-5.09l-6.303-7.694h-5.608v20.507h6.007V57.452l5.593 6.88h.488l5.578-6.88v11.881h6.184V48.826h-5.607l-6.332 7.694zm23.302 4.305h8.611v-4.128h-8.611V52.94h9.025v-4.114h-15.21v20.507h15.462v-4.128h-9.277v-4.38zM181.555 49.508a10.695 10.695 0 0 0-7.746 3.085 10.487 10.487 0 0 0 0 15.032 11.303 11.303 0 0 0 15.52 0 10.453 10.453 0 0 0 0-15.032 10.763 10.763 0 0 0-7.774-3.085zm6.576 17.081a8.886 8.886 0 0 1-6.517 2.642 9.004 9.004 0 0 1-6.562-2.641 9.162 9.162 0 0 1 0-12.961 9.004 9.004 0 0 1 6.562-2.641 8.886 8.886 0 0 1 6.517 2.64 9.234 9.234 0 0 1 0 12.962zm13.974-16.814h-5.696v20.669h1.598v-9.662h3.95a7.732 7.732 0 0 0 5.142-1.494 5.05 5.05 0 0 0 1.753-4.054 4.948 4.948 0 0 0-1.739-3.995 7.574 7.574 0 0 0-5.008-1.464zm3.684 8.58a6.115 6.115 0 0 1-3.935 1.096h-3.847v-8.345h4.039a5.651 5.651 0 0 1 3.773 1.125 4.188 4.188 0 0 1-.03 6.125zm7.723 2.368h9.425v-1.346h-9.425v-8.271h9.676v-1.331h-11.274v20.669h11.511v-1.332h-9.913v-8.389zm30.227 7.117l-15.675-18.065h-1.355v20.669h1.598V52.379l15.715 18.065h1.315V49.775h-1.598V67.84z" class="cls-1"/></svg>