<svg xmlns="http://www.w3.org/2000/svg" role="img" viewBox="201.36 296.36 787.28 200.28"><title>Ubuntu logo</title><path d="M307.259 476.064c-4.607 1.153-10.684 2.375-18.238 3.669-7.553 1.296-16.294 1.941-26.223 1.941-8.633 0-15.901-1.261-21.8-3.774-5.9-2.516-10.648-6.079-14.244-10.685-3.598-4.606-6.188-10.037-7.771-16.296-1.584-6.259-2.373-13.197-2.373-20.828V367.07h20.072v58.704c0 13.672 2.158 23.457 6.475 29.354 4.316 5.9 11.581 8.85 21.798 8.85 2.159 0 4.387-.073 6.692-.219 2.3-.141 4.457-.322 6.474-.539 2.014-.215 3.847-.43 5.504-.646 1.651-.217 2.838-.467 3.56-.754v-94.75h20.073v108.994zm48.991-104.03c2.444-1.581 6.151-3.237 11.115-4.963 4.964-1.728 10.684-2.59 17.159-2.59 8.055 0 15.217 1.439 21.475 4.315 6.258 2.88 11.547 6.907 15.863 12.089 4.318 5.178 7.589 11.367 9.82 18.561 2.228 7.196 3.346 15.107 3.346 23.739 0 9.066-1.333 17.234-3.993 24.498-2.665 7.267-6.442 13.416-11.333 18.452-4.892 5.038-10.79 8.925-17.698 11.654-6.906 2.732-14.676 4.101-23.31 4.101-9.354 0-17.626-.646-24.82-1.94-7.197-1.295-13.095-2.59-17.698-3.885V315.269l20.072-3.451v60.216zm0 89.785c2.014.577 4.854 1.116 8.525 1.618 3.668.505 8.235.755 13.706.755 10.791 0 19.424-3.562 25.9-10.683 6.474-7.122 9.712-17.23 9.712-30.325 0-5.75-.577-11.146-1.727-16.187-1.154-5.035-3.021-9.387-5.611-13.057-2.591-3.67-5.937-6.546-10.036-8.635-4.102-2.083-9.032-3.128-14.785-3.128-5.47 0-10.505.938-15.108 2.806-4.607 1.872-8.132 3.814-10.576 5.826v71.01zm190.792 14.245c-4.606 1.153-10.685 2.375-18.239 3.669-7.554 1.296-16.294 1.941-26.223 1.941-8.635 0-15.902-1.261-21.8-3.774-5.901-2.516-10.65-6.079-14.244-10.685-3.599-4.606-6.188-10.037-7.771-16.296-1.583-6.259-2.374-13.197-2.374-20.828V367.07h20.074v58.704c0 13.672 2.157 23.457 6.475 29.354 4.316 5.9 11.58 8.85 21.799 8.85 2.156 0 4.387-.073 6.689-.219a141.71 141.71 0 0 0 6.475-.539c2.014-.215 3.849-.43 5.504-.646 1.652-.217 2.84-.467 3.562-.754v-94.75h20.072v108.994zm28.918-105.756c4.603-1.15 10.715-2.375 18.346-3.671 7.625-1.294 16.404-1.941 26.33-1.941 8.922 0 16.33 1.262 22.23 3.776 5.898 2.521 10.611 6.043 14.137 10.576 3.523 4.532 6.008 9.967 7.447 16.296 1.438 6.334 2.16 13.311 2.16 20.937V479.3h-20.074v-58.705c0-6.905-.469-12.804-1.404-17.698-.936-4.888-2.479-8.848-4.639-11.868-2.16-3.023-5.037-5.216-8.633-6.584-3.602-1.368-8.061-2.051-13.381-2.051-2.158 0-4.393.074-6.691.216-2.303.145-4.498.326-6.582.54-2.092.216-3.961.47-5.613.756-1.655.29-2.844.506-3.562.646V479.3h-20.07V370.308zm137.051-3.237h42.518v16.835h-42.518v51.796c0 5.613.428 10.252 1.295 13.921.863 3.673 2.156 6.55 3.883 8.634 1.729 2.088 3.885 3.564 6.475 4.425 2.59.863 5.611 1.297 9.066 1.297 6.186 0 11.08-.682 14.676-2.051 3.594-1.366 6.043-2.339 7.338-2.913l4.316 16.404c-2.016 1.007-5.578 2.302-10.684 3.881-5.107 1.582-10.898 2.375-17.375 2.375-7.625 0-13.92-.97-18.883-2.913-4.965-1.944-8.959-4.856-11.979-8.739-3.021-3.888-5.146-8.67-6.367-14.354-1.223-5.683-1.836-12.267-1.836-19.749V335.775l20.074-3.451v34.747zm151.726 108.993c-4.607 1.153-10.684 2.375-18.238 3.669-7.555 1.296-16.293 1.941-26.221 1.941-8.635 0-15.902-1.261-21.801-3.774-5.9-2.516-10.65-6.079-14.248-10.685-3.596-4.606-6.186-10.037-7.77-16.296s-2.373-13.197-2.373-20.828V367.07h20.074v58.704c0 13.672 2.158 23.457 6.473 29.354 4.318 5.9 11.582 8.85 21.801 8.85 2.158 0 4.387-.073 6.691-.219 2.299-.141 4.455-.322 6.473-.539 2.016-.215 3.848-.43 5.506-.646 1.652-.217 2.838-.467 3.559-.754v-94.75h20.074v108.994z"/><circle cx="928.615" cy="357.135" r="45.325" fill="#E95420"/><path fill="#FFF" d="M905.093 357.135a5.828 5.828 0 1 1-11.656 0 5.828 5.828 0 0 1 11.656 0zm33.154 28.335a5.828 5.828 0 0 0 10.092-5.827 5.826 5.826 0 1 0-10.092 5.827zm10.092-50.842a5.823 5.823 0 0 0-2.133-7.958 5.827 5.827 0 1 0 2.133 7.958zm-19.723 5.889c8.684 0 15.809 6.656 16.553 15.146l8.434-.132a24.958 24.958 0 0 0-7.354-16.167 8.18 8.18 0 0 1-7.057-.546 8.184 8.184 0 0 1-4.002-5.845 25.067 25.067 0 0 0-6.574-.874c-3.988 0-7.758.933-11.105 2.592l4.104 7.369a16.58 16.58 0 0 1 7.001-1.543zm-16.619 16.618c0-5.622 2.793-10.592 7.066-13.599l-4.33-7.237a25.072 25.072 0 0 0-10.328 14.448 8.185 8.185 0 0 1 3.061 6.388 8.182 8.182 0 0 1-3.061 6.389 25.076 25.076 0 0 0 10.328 14.45l4.33-7.238c-4.273-3.007-7.066-7.977-7.066-13.601zm16.619 16.621c-2.5 0-4.875-.555-7.002-1.545l-4.104 7.369a24.925 24.925 0 0 0 11.105 2.592 25.06 25.06 0 0 0 6.574-.873 8.18 8.18 0 0 1 4.002-5.845 8.18 8.18 0 0 1 7.057-.546 24.972 24.972 0 0 0 7.354-16.168l-8.434-.132c-.743 8.49-7.868 15.148-16.552 15.148z"/></svg>