<svg xmlns="http://www.w3.org/2000/svg" role="img" viewBox="-12.61 -12.61 655.72 156.22"><title>University of Wolverhampton logo</title><path fill="#264d87" d="M184.4 8.367v10.606c0 3.629 1.353 5.531 4.48 5.531 3.276 0 4.379-2.602 4.379-5.106V8.367h2.276V19.45c0 3.925-2.427 6.729-6.655 6.729-4.932 0-6.908-2.605-6.908-7.106V8.367h2.428m31.679 17.511h-1.902c-3.805-4.552-10.334-12.407-11.388-13.935h-.046v13.935h-2.004V8.367h1.804c3.854 4.55 10.304 12.209 11.486 13.96h.047V8.367h2.003v17.51m5.453.001h2.427V8.367h-2.427zm12.135 0l-6.48-17.313 2.478-.45c1.699 4.78 3.375 9.586 5.055 14.962h.048c1.75-5.376 3.553-10.182 5.33-14.963l2.175.3-6.977 17.464h-1.63m20.47-15.761h-6.208v5.655h6.08v1.75h-6.08v6.605h7.281v1.75h-9.708V8.368h8.635v1.75m7.479-.001h2.081c1.623 0 2.972.829 2.972 2.976 0 1.478-.572 3.78-3.676 3.78h-1.377zm-2.426 15.76h2.426v-7.254h2.578l4.054 7.557 2.449-.75-4.35-7.46c1.678-1.073 2.923-2.524 2.923-5.1 0-3.029-2.224-4.503-5.076-4.503h-5.004v17.51m23.37-14.811c-.851-.626-1.975-1.249-3.026-1.249-1.753 0-2.729 1.028-2.729 2.378 0 1.251 1.077 2.173 3.33 3.803 2.402 1.75 3.798 3.353 3.798 5.604 0 2.777-2.625 4.578-5.425 4.578-1.676 0-3.679-.602-4.931-1.828l1.076-1.45c1.027.726 2.152 1.524 3.8 1.524 1.728 0 3.057-.921 3.057-2.877 0-2.198-2.629-3.626-4.056-4.676-1.452-1.127-3.077-2.204-3.077-4.678 0-2.354 2.279-4.13 5.005-4.13 1.824 0 3.354.652 4.33 1.752l-1.152 1.249m6.056 14.812h2.426V8.367h-2.426zm11.509 0V10.117h-5.605v-1.75h13.66v1.75h-5.628v15.76h-2.427m14.636.001V18.3l-5.279-9.684 2.63-.502 4.228 8.308 4.601-8.308 2.153.3-5.906 9.886v7.578h-2.427m27.897-1.452c-4.526 0-6.077-4.177-6.077-7.603 0-3.275 1.75-7.006 6.077-7.006 4.33 0 6.084 3.731 6.084 7.006 0 3.426-1.552 7.603-6.084 7.603zm0 1.754c5.407 0 8.76-4.126 8.76-9.357 0-4.904-3.704-8.759-8.76-8.759-5.052 0-8.757 3.855-8.757 8.759 0 5.231 3.355 9.357 8.757 9.357m21.944-16.063H358.4v6.656h6.077v1.749H358.4v7.356h-2.428V8.367h8.63v1.75M118.865 94.526l47.34 36.687V.003H72.581v131.21l46.284-36.687"/><path fill="#264d87" fill-rule="evenodd" d="M68.4 36.481c-4.311 4.446-14.992 17.167-20.628 21.33-2.278 1.688-4.635 1.926-8.64 1.327-5.353-.805-10.586-14.545-13.593-23.256-3.002-8.712-6.008-33.045-6.008-33.045L.008 18.458s-.085 1.225.302 3.305c2.549 13.82 4.653 21.476 9.607 30.942 6.49 12.38 12.219 20.38 21.526 20.73 11.203.416 17.208-7.329 23.502-15.397 5.444-6.972 12.347-18.804 17.636-25.401v-.589a255.83 255.83 0 0 1-4.182 4.433"/><path fill="#f3b22b" fill-rule="evenodd" d="M87.348 44.489c3.295 7.15 7.89 14.824 7.89 14.824 6.005 7.513 9.21 11.819 18.621 12.916 13.11 1.537 20.733-10.812 25.536-17.42 3.484-4.79 18.698-35.613 26.81-47.069V3.385c-6.909 8.008-28.328 44.86-33.418 50.222-5.709 6.005-10.314 7.309-17.123-.302-5.389-6.026-11.644-18.352-15.696-28.98-3.512-9.226-11.957-5.745-15.262-3.843-2.576 1.48-7.305 6.362-12.125 11.566v.589c1.326-1.246 1.915-2.28 3.228-2.822 6.152-2.527 6.702 4.175 11.54 14.674"/><path fill="#264d87" d="M207.087 37.598c2.882 9.56 5.77 19.116 8.602 29.89h.099c2.881-10.925 5.768-20.686 8.703-30.395l3.941.707-10.973 35.203h-4.352c-2.831-9.407-5.616-18.813-8.396-29.235h-.1c-2.782 10.422-5.663 19.828-8.496 29.235h-4.351l-10.42-34.9 4.655-1.01c2.78 9.709 5.561 19.47 8.294 30.396h.1c2.835-10.775 5.767-20.332 8.648-29.89h4.046m42.383 32.469c-9.149 0-12.286-8.446-12.286-15.376 0-6.625 3.541-14.158 12.287-14.158 8.752 0 12.292 7.533 12.292 14.158 0 6.93-3.136 15.376-12.292 15.376zm0 3.541c10.93 0 17.706-8.344 17.706-18.917 0-9.914-7.483-17.7-17.705-17.7-10.216 0-17.7 7.786-17.7 17.7 0 10.573 6.777 18.917 17.7 18.917m25.39-36.011h4.908v31.864h14.72v3.54h-19.628V37.599m31.929 35.404l-13.102-35 5.008-.91c3.437 9.662 6.832 19.369 10.217 30.245h.1c3.542-10.876 7.183-20.583 10.772-30.245l4.403.606-14.113 35.304h-3.286m39.854-31.863H334.1v11.427h12.291v3.54h-12.29v13.355h14.715v3.54h-19.621V37.599h17.447v3.542m13.608-.001h4.198c3.288 0 6.017 1.665 6.017 6.017 0 2.983-1.16 7.64-7.436 7.64h-2.778zm-4.905 31.863h4.906v-14.67h5.21l8.191 15.276 4.96-1.518-8.803-15.074c3.39-2.174 5.918-5.106 5.918-10.317 0-6.12-4.504-9.102-10.266-9.102h-10.116v35.405m56.24 0h-4.904V55.402h-17.298v17.6h-4.908V37.599h4.908v14.263h17.298V37.598h4.904v35.405m14.971-13.963c1.924-4.904 3.796-9.808 5.617-16.18h.102c1.769 6.372 3.489 11.276 5.26 16.18zm4.503-21.442L416.64 73.003h4.76l3.792-10.422h13.503l3.643 10.422h5.666l-13.202-35.405h-3.744m60.445 35.405h-4.91v-28.83h-.097c-1.417 4.146-9.459 19.778-14.215 28.83h-1.974c-4.399-9.052-11.732-24.18-13.096-28.83h-.104v28.83h-4.043V37.598h5.26c4.547 9.408 9.101 18.864 13.604 28.83 5.004-9.966 10.013-19.422 14.972-28.83h4.603v35.405m14.413 0h-4.907V37.598h8.904c7.483 0 12.088 3.335 12.088 10.217 0 5.968-5.109 11.377-13.049 11.377h-1.57v-3.235l1.623-.047c4.752-.256 7.736-2.787 7.736-8.045 0-3.895-2.176-6.725-7.433-6.725h-3.392v31.863m30.6 0V41.14h-11.33v-3.542h27.618v3.542H541.42v31.863h-4.904m37.68-2.935c-9.152 0-12.288-8.446-12.288-15.376 0-6.625 3.54-14.158 12.288-14.158 8.75 0 12.29 7.533 12.29 14.158 0 6.93-3.133 15.376-12.29 15.376zm0 3.541c10.927 0 17.704-8.344 17.704-18.917 0-9.914-7.484-17.7-17.704-17.7-10.216 0-17.703 7.786-17.703 17.7 0 10.573 6.778 18.917 17.703 18.917m56.396-.606h-3.845c-7.686-9.203-20.888-25.087-23.014-28.175h-.1v28.175h-4.048V37.598h3.644c7.79 9.204 20.839 24.68 23.212 28.225h.104V37.598h4.047v35.405"/></svg>