<svg xmlns="http://www.w3.org/2000/svg" role="img" viewBox="-17.47 -17.47 908.44 159.44"><title>Universität Leipzig logo</title><path fill="#999" d="M0 0h873.523v124.827H0V0z"/><path fill="#fff" d="M468.37 43.395l-11.384 26.117h22.769L468.37 43.395zm0-17.144l29.734 67.905h-8.438l-7.5-17.947h-27.457l-7.5 17.947h-8.439l29.6-67.905zm-438.235 5.76h7.5v38.707c0 6.294 1.34 10.848 4.019 13.795 2.678 2.947 6.83 4.42 12.59 4.42 5.625 0 9.91-1.473 12.59-4.42 2.678-2.947 4.018-7.5 4.018-13.795V32.01h7.5v38.708c0 8.304-2.009 14.599-6.027 18.884-4.018 4.152-10.045 6.161-18.081 6.161-8.037 0-14.064-2.009-18.081-6.16-4.019-4.286-6.028-10.581-6.028-18.885V32.01zM95.63 94.155v-64.69l45.538 49.69V32.01h6.965v64.557l-45.404-49.154v46.743H95.63zm67.504 0V32.01h7.366v62.146h-7.366zm42.725 2.411L179.607 32.01h8.036l18.215 47.547 18.215-47.547h8.036l-26.251 64.557zm37.1-2.41V32.01h32.814v6.697h-25.448v17.814h25.448v6.964h-25.448v23.84h25.448v6.831h-32.814zm47.949 0V32.01h14.598c4.152 0 7.099.268 9.108.67 1.875.536 3.616 1.34 5.09 2.41 1.874 1.474 3.348 3.35 4.285 5.76 1.072 2.411 1.608 5.09 1.608 8.036 0 5.09-1.474 8.974-4.286 11.652-2.813 2.679-7.099 4.019-12.59 4.019h-1.206l23.707 29.6h-9.376l-22.769-29.6h-1.071v29.6h-7.098zm7.098-55.852v20.76h5.76c5.758 0 9.643-.803 11.518-2.277 2.009-1.473 2.946-4.018 2.946-7.768 0-4.018-.937-6.83-2.946-8.438-2.01-1.607-5.894-2.277-11.519-2.277h-5.76zM360.822 59.6c4.151 1.741 7.098 4.018 9.241 6.964 2.009 2.813 3.08 6.162 3.08 10.046 0 5.759-1.875 10.313-5.49 13.93-3.617 3.481-8.439 5.222-14.466 5.222-4.955 0-8.973-1.339-12.322-3.75-3.348-2.545-5.491-6.16-6.697-10.714l6.697-3.349c.938 3.75 2.411 6.697 4.42 8.572 2.143 2.009 4.822 2.946 7.902 2.946 3.75 0 6.697-1.071 8.974-3.214s3.482-4.955 3.482-8.304c0-2.812-.803-5.223-2.41-7.232-1.608-2.143-4.019-3.885-7.233-5.224l-7.5-3.214c-4.152-1.742-7.233-4.018-9.242-6.697-2.143-2.679-3.08-6.027-3.08-9.777 0-4.42 1.607-8.037 4.955-10.983 3.215-2.813 7.366-4.286 12.59-4.286 3.616 0 6.965.804 9.643 2.277 2.679 1.607 4.822 4.018 6.43 7.099l-6.162 3.884c-1.34-2.411-2.946-4.152-4.688-5.358-1.74-1.205-3.616-1.74-5.893-1.74-2.678 0-4.955.803-6.696 2.544-1.876 1.607-2.68 3.884-2.68 6.429 0 2.277.67 4.152 2.01 5.759 1.34 1.607 3.482 3.08 6.295 4.286l8.84 3.884zm25.715 34.555V32.01h7.366v62.146h-7.366zm33.082 0h7.5v-55.18h17.546V32.01h-42.458v6.965h17.412v55.181zM475.2 33.752c0 1.473.402 2.678 1.34 3.616.937 1.071 2.142 1.473 3.615 1.473 1.474 0 2.68-.402 3.617-1.473.937-.938 1.34-2.143 1.34-3.616 0-1.34-.403-2.545-1.474-3.483-.938-.937-2.143-1.473-3.483-1.473-1.339 0-2.544.536-3.482 1.473-1.071 1.072-1.473 2.143-1.473 3.483zm-24.51 0c0 1.473.535 2.678 1.473 3.616.938 1.071 2.277 1.473 3.75 1.473 1.474 0 2.545-.402 3.482-1.34.938-.937 1.34-2.142 1.34-3.75 0-1.339-.402-2.41-1.34-3.482-1.07-.937-2.142-1.473-3.482-1.473-1.473 0-2.679.536-3.616 1.607-1.072.938-1.607 2.143-1.607 3.349zm58.931 60.404h7.366V38.975h17.546V32.01h-42.591v6.965h17.679v55.181zm57.057 0V32.01h7.366v55.048h23.572v7.098H566.68zm37.1 0V32.01h32.813v6.697h-25.448v17.814h25.448v6.964h-25.448v23.84h25.448v6.831h-32.814zm46.207 0V32.01h7.366v62.146h-7.366zm34.02-27.858v27.858h-7.233V32.01h12.991c4.688 0 8.037.268 10.18.67 2.143.536 4.017 1.34 5.491 2.41 2.009 1.474 3.616 3.35 4.687 5.76 1.206 2.545 1.742 5.224 1.742 8.304 0 2.947-.536 5.625-1.742 8.17-1.071 2.411-2.678 4.42-4.687 5.76-1.474 1.205-3.348 2.008-5.492 2.41-2.142.536-5.49.804-10.179.804h-5.759zm0-6.697h3.75c6.294 0 10.58-.804 12.857-2.277 2.143-1.473 3.215-4.018 3.215-7.768 0-4.018-1.072-6.83-3.349-8.438-2.277-1.607-6.563-2.41-12.724-2.41h-3.75V59.6zm25.58 34.555h46.075v-7.098h-33.217l34.69-55.048h-40.985v6.697h28.395l-34.957 55.45zm53.575 0V32.01h7.366v62.146h-7.366zm55.047-32.144h25.582v2.143c0 9.777-2.68 17.545-8.304 23.17-5.492 5.626-13.126 8.438-22.635 8.438-2.947 0-5.76-.268-8.439-.937-2.544-.536-5.089-1.473-7.232-2.679-5.09-2.813-9.107-6.697-11.786-11.652-2.813-4.822-4.286-10.447-4.286-16.742 0-5.223.937-9.911 2.545-14.063a29.253 29.253 0 0 1 7.5-10.983 27.242 27.242 0 0 1 9.777-6.027c3.75-1.473 7.769-2.143 12.323-2.143 5.893 0 11.116 1.205 15.536 3.349 4.42 2.142 8.036 5.357 10.848 9.777l-6.16 4.955c-2.277-3.75-5.09-6.563-8.304-8.437-3.349-1.876-7.233-2.813-11.653-2.813-7.232 0-13.125 2.41-17.545 7.232-4.554 4.822-6.83 11.25-6.83 19.153 0 7.366 2.276 13.527 6.83 18.215 4.554 4.822 10.447 7.099 17.545 7.099 6.161 0 11.385-1.875 15.537-5.626 4.152-3.75 6.429-8.705 6.83-14.732h-17.68v-6.697z"/></svg>