<svg xmlns="http://www.w3.org/2000/svg" role="img" viewBox="13.34 -21.66 1023.32 1126.32"><title>VMLINK logo</title><path d="M410.719 507.125h-112c-11 0-19.9 8.9-19.9 19.9v111.7c0 11 8.9 19.9 19.9 19.9h112c11 0 19.9-8.9 19.9-19.9v-111.7c0-11-8.9-19.9-19.9-19.9zm-19.9 111.7h-72.2v-71.9h72.2z"/><path d="M1008.419 402.725l-470.1-398c-7.4-6.3-18.3-6.3-25.7 0l-470.2 398c-8.4 7.1-9.4 19.6-2.3 28 3.9 4.7 9.5 7 15.2 7 4.5 0 9.1-1.6 12.8-4.7l48.1-40.7v521.6c0 11 8.9 19.9 19.9 19.9h778.5c11 0 19.9-8.9 19.9-19.9v-521.6l48.1 40.7c8.4 7.1 21 6 28-2.3 7.2-8.4 6.1-20.9-2.2-28zm-444.9 491.3v-347.1h158.7v347.1zm331.3 0h-132.8v-367c0-11-8.9-19.9-19.9-19.9h-198.5c-11 0-19.9 8.9-19.9 19.9v367h-367.7v-535.3l369.4-312.8 369.4 312.7z"/><g><path d="M148.27022 943.73927l50.8125 139.59375h24.75l50.8125-139.59375h-18.9375l-43.78125 122.8125-43.78125-122.8125zm147.5625 0v139.59375h17.34375V963.05177l38.53125 81.84375h11.0625l38.8125-81.84375v120.28125h18.5625V943.73927h-25.78125l-36 77.71875-37.21875-77.71875zm162 0v139.59375h88.3125v-16.5h-69.75V943.73927zm100.96875 0v14.25h18.28125v111.09375h-18.28125v14.25h55.125v-14.25h-18.28125V957.98927h18.28125v-14.25zm86.90625 0v139.59375h17.34375v-124.875l66.1875 124.875h22.96875V943.73927h-17.34375v114l-60.375-114zm144.09375 0v139.59375h18.5625v-47.34375l13.875-14.8125 55.21875 62.15625h24.09375l-65.25-73.96875 62.34375-65.625h-22.5l-67.78125 72.84375v-72.84375z"/></g></svg>