<svg xmlns="http://www.w3.org/2000/svg" role="img" xmlns:xlink="http://www.w3.org/1999/xlink" viewBox="-4.53 -4.53 248.82 61.32"><title>WatchTower Metric Catalog logo</title><path d="M237.32 9.09c-1.06 0-1.93-.86-1.93-1.92s.87-1.93 1.93-1.93 1.93.87 1.93 1.93-.87 1.92-1.93 1.92m0-4.32c-1.32 0-2.4 1.08-2.4 2.4 0 1.32 1.08 2.4 2.4 2.4 1.32 0 2.4-1.08 2.4-2.4 0-1.32-1.08-2.4-2.4-2.4"/><path d="M237.48 7.07l-.51.01-.01-.62h.51c.19-.01.34.11.34.3.01.19-.14.31-.33.31m.83-.32c-.01-.42-.3-.72-.77-.72l-1.07.02.03 2.26h.49l-.01-.81h.35l.46.8.55-.01-.52-.86c.24-.06.49-.28.49-.68M51.8341 23.1805h-5.999V9.3465h5.835c1.574 0 2.557 1.016 2.557 2.393 0 1.377-.983 2.36-2.557 2.36H45v4h6.8341c1.836 0 2.819 1.18 2.819 2.556 0 1.574-1.049 2.525-2.819 2.525m3.376-7.245c2.066-.426 3.771-2.262 3.771-5.015 0-2.918-2.131-5.573-6.295-5.573h-11.506v21.865h11.867c4.163 0 6.359-2.623 6.359-5.901 0-2.754-1.868-5.015-4.196-5.376m17.8225-.5902H68v4.098h3.5576l4.294 7.769h5.343l-4.917-8.327c2.361-.557 4.786-2.622 4.786-6.49m0 0c0-4.065-2.786-7.048-7.343-7.048h-10.228v21.865h4.655V9.4453h4.885c1.869 0 3.278 1.114 3.278 2.95s-1.409 2.95-3.278 2.95m43.4206 4.0652l3.409-9.408 3.41 9.408zm.492-14.063l-8.458 21.865h5.31l1.377-3.704h9.376l1.344 3.704h5.311l-8.425-21.865zm26.9039 17.7671h-3.967v-13.67h3.967c4.491 0 6.851 2.983 6.851 6.852 0 3.704-2.524 6.818-6.851 6.818m0-17.767h-8.622v21.865h8.622c6.851 0 11.604-4.327 11.604-10.916s-4.753-10.949-11.604-10.949m82.1269-.0045l-5.734 9.27-5.734-9.27h-5.146v21.869h4.656v-14.293l5.012 7.622c.574.871 1.851.871 2.424 0l5.013-7.622v14.293h4.656V5.3431z"/><path id="a" d="M95.8253 23.3441c-3.871 0-7.008-3.138-7.008-7.008 0-3.871 3.137-7.009 7.008-7.009 3.87 0 7.008 3.138 7.008 7.009 0 3.87-3.138 7.008-7.008 7.008m0-18.536c-6.367 0-11.528 5.161-11.528 11.528 0 6.366 5.161 11.527 11.528 11.527 6.366 0 11.528-5.161 11.528-11.527 0-6.367-5.162-11.528-11.528-11.528"/><path d="M176.4035 19.7269c-1.195 2.156-3.492 3.617-6.132 3.617-3.87 0-7.008-3.138-7.008-7.008 0-3.871 3.138-7.008 7.008-7.008 2.618 0 4.897 1.438 6.1 3.565l3.27-3.269c-2.092-2.915-5.508-4.816-9.37-4.816-6.367 0-11.527 5.161-11.527 11.528 0 6.366 5.16 11.528 11.527 11.528 3.883 0 7.316-1.922 9.404-4.865z"/><use transform="translate(98.718)" xlink:href="#a"/><ellipse cx="16.52" cy="16.497" fill="#cc092f" rx="16.236" ry="16.235"/><path fill="#fff" d="M30.8253 20.8832c-1.857-.74-3.557-.492-5.261.541 0 0-.621.379-.807.496-.794.498-1.543.97-2.263.97-.687 0-1.363-.184-1.649-1.513-.446-2.073-1.534-7.167-2.009-9.69-.279-1.483-.432-2.282-.591-2.825-.28-.954-.792-1.473-1.519-1.556 0 0-.114-.016-.207-.016-.092 0-.218.018-.218.018-.72.086-1.229.605-1.507 1.554-.159.543-.312 1.342-.591 2.825-.475 2.523-1.563 7.617-2.009 9.69-.286 1.329-.962 1.513-1.649 1.513-.72 0-1.469-.472-2.263-.97-.186-.117-.808-.496-.808-.496-1.703-1.033-3.404-1.281-5.26-.541-.401.16-.79596.33918-1.17196.52018.257.806.57693 1.59925.94993 2.34425.411-.202.84203-.40243 1.28203-.53243.634-.187 1.284-.197 1.914.014.612.205 1.157.568 1.7.909 1.023.643 2.182 1.372 3.657 1.372 2.186 0 3.72-1.305 4.21-3.581.38-1.764 1.222-5.702 1.763-8.418 0 0 1.386 6.654 1.765 8.418.49 2.276 2.025 3.581 4.211 3.581 1.475 0 2.634-.729 3.657-1.372.543-.341 1.088-.704 1.7-.909.629-.211 1.28-.201 1.914-.014.44.13.87039.33065 1.28139.53265.374-.745.69309-1.53862.95009-2.34462-.376-.181-.77048-.36003-1.17148-.52003"/><path d="M65.84555 42.7295L63.9559 50h-1.08886l-1.52833-6.03516L59.84457 50h-1.06445l-1.92383-7.2705h.99121l1.52832 6.04491 1.50391-6.04492h.98145l1.51855 6.10352 1.51856-6.10352zM70.9481 50H70.035v-.58105q-.12207.083-.33203.23437-.20508.14649-.40039.23438-.22949.1123-.52734.18554-.29785.07813-.69824.07813-.7373 0-1.25-.48828t-.5127-1.24512q0-.62011.26367-1.00097.26856-.38574.76172-.60547.49805-.21973 1.19629-.29785.69824-.07813 1.49902-.1172v-.1416q0-.3125-.1123-.51757-.10742-.20508-.3125-.32227-.19531-.1123-.46875-.15136t-.57129-.03906q-.36133 0-.80566.09766-.44434.09277-.91797.27343h-.04883v-.93261q.26855-.07324.77636-.16114.50782-.08789 1.00098-.08789.57617 0 1.00098.09766.42969.09277.74219.32227.30761.2246.46875.58105.16113.35645.16113.8838zm-.91309-1.34277v-1.51856q-.41992.02441-.9912.07324-.56641.04883-.89845.1416-.3955.1123-.63964.35157-.24414.23437-.24414.64941 0 .46875.2832.708.2832.23438.86426.23438.4834 0 .88379-.18554.40039-.19043.74218-.4541zm5.5127 1.29394q-.25879.06836-.5664.1123-.30274.04396-.542.04396-.83496 0-1.26953-.44922t-.43457-1.44043v-2.9004h-.62012v-.77148h.62012v-1.56738h.91797v1.56738h1.89453v.77149h-1.89453v2.48535q0 .42969.01953.67383.01953.23926.13672.44922.10742.1953.29296.28808.19044.0879.57618.0879.2246 0 .46875-.06349.24414-.06836.35156-.1123h.04883zm5.1416-.29297q-.45898.21973-.87402.3418-.41016.12207-.87403.12207-.59082 0-1.08398-.1709-.49316-.17578-.84473-.52734-.35644-.35156-.55175-.88867-.19532-.53711-.19532-1.25489 0-1.33789.73242-2.0996.7373-.76172 1.94336-.76172.46875 0 .91797.13183.4541.13184.83008.32227v1.0205h-.04883q-.41992-.32714-.86914-.50292-.44434-.17579-.86914-.17579-.78125 0-1.23535.52735-.44922.52246-.44922 1.53808 0 .98633.43945 1.51856.44434.52734 1.24512.52734.27832 0 .5664-.07324.2881-.07324.51758-.19043.2002-.10254.37598-.21484.17578-.11719.27832-.2002h.04883zM86.4266 50h-.91796v-3.10547q0-.37598-.04394-.70312-.04395-.33203-.16114-.51758-.12207-.20508-.35156-.30274-.2295-.10254-.5957-.10254-.37598 0-.78614.18555-.41015.18555-.78613.47363V50h-.91797v-7.59766h.91797v2.74903q.42969-.35645.88867-.55664.45899-.2002.94239-.2002.88379 0 1.34765.53223.46387.53222.46387 1.5332zm7.02637-6.41113h-2.59765V50h-.9668v-6.41113h-2.59766v-.85938h6.16211zm4.47754 3.68652q0 1.333-.6836 2.1045-.68359.77148-1.83105.77148-1.15722 0-1.84082-.77149-.6787-.77148-.6787-2.10449 0-1.333.6787-2.1045.6836-.77636 1.84082-.77636 1.14746 0 1.83106.77637.6836.77148.6836 2.1045zm-.94726 0q0-1.05957-.41504-1.57227-.41504-.51757-1.15235-.51757-.74707 0-1.1621.51758-.41016.51269-.41016 1.57226 0 1.0254.41504 1.55762.41504.52734 1.15722.52734.73243 0 1.14746-.52246.41993-.52734.41993-1.5625zm9.22851-2.7295L104.79086 50h-.84961l-1.40136-4.2041L101.14828 50h-.84472l-1.43555-5.4541h.95703l1.00098 4.22363 1.3623-4.22363h.75684l1.39648 4.22363.94727-4.22363zm5.88867 2.82227h-4.01855q0 .50293.15137.87891.15136.3711.41503.61035.25391.23438.60059.35156.35156.1172.77149.1172.55664 0 1.11816-.21974.56641-.2246.80566-.43945h.0488v1.00098q-.46387.19531-.94726.32715-.4834.13183-1.01563.13183-1.35742 0-2.11914-.73242-.76172-.7373-.76172-2.08984 0-1.3379.72754-2.12403.73242-.78613 1.92383-.78613 1.10351 0 1.69922.64453.60058.64453.60058 1.83106zm-.89355-.70312q-.005-.72266-.36621-1.11816-.35645-.39551-1.08887-.39551-.7373 0-1.17676.43457-.43457.43457-.49316 1.0791zm5.68848-1.11816h-.0488q-.20508-.04884-.40039-.06837-.19043-.0244-.45411-.0244-.4248 0-.82031.19042-.39551.18555-.76172.4834V50h-.91797v-5.4541h.91794v.80566q.54688-.43945.96192-.62011.41992-.18555.85449-.18555.23926 0 .34668.01465.10742.0098.32227.04395zM127.82309 50h-.9668v-6.26465l-2.02148 4.2627h-.57617l-2.00684-4.2627V50h-.90332v-7.2705h1.31836l1.93848 4.04784 1.875-4.04785h1.34277zm6.44531-2.63184h-4.01855q0 .50293.15136.87891.15137.3711.41504.61035.25391.23438.60059.35156.35156.1172.77148.1172.55664 0 1.11817-.21974.5664-.2246.80566-.43945h.0488v1.00098q-.46387.19531-.94727.32715-.48339.13183-1.01562.13183-1.35742 0-2.11914-.73242-.76172-.7373-.76172-2.08984 0-1.3379.72754-2.12403.73242-.78613 1.92383-.78613 1.10351 0 1.69922.64453.60058.64453.60058 1.83106zm-.89355-.70312q-.005-.72266-.36621-1.11816-.35645-.39551-1.08887-.39551-.73731 0-1.17676.43457-.43457.43457-.49316 1.0791zm5.11718 3.28613q-.25878.06836-.5664.1123-.30274.04396-.54199.04396-.83496 0-1.26953-.44922-.43458-.44922-.43458-1.44043v-2.9004h-.62011v-.77148h.62011v-1.56738h.91797v1.56738h1.89453v.77149h-1.89453v2.48535q0 .42969.0195.67383.0195.23926.13672.44922.10743.1953.29297.28808.19043.0879.57617.0879.22461 0 .46875-.06349.24414-.06836.35157-.1123h.0488zm4.51172-4.4043h-.0488q-.20508-.04882-.4004-.06835-.19042-.02442-.4541-.02442-.4248 0-.82031.19043-.39551.18555-.76172.4834V50h-.91797v-5.4541h.91797v.80566q.54688-.43945.96192-.62011.41992-.18555.85449-.18555.23926 0 .34668.01465.10742.0098.32226.04395zm1.85059-1.91406h-1.03516v-.95215h1.03516zM144.79575 50h-.91797v-5.4541h.91797zm5.84961-.3418q-.45899.21973-.87403.3418-.41015.12207-.87402.12207-.59082 0-1.08399-.1709-.49316-.17578-.84472-.52734-.35645-.35156-.55176-.88867-.19531-.53711-.19531-1.25489 0-1.33789.73242-2.0996.7373-.76172 1.94336-.76172.46875 0 .91797.13183.4541.13184.83008.32227v1.0205h-.0488q-.41992-.32714-.86914-.50292-.44434-.17579-.86914-.17579-.78125 0-1.23536.52735-.44921.52246-.44921 1.53808 0 .98633.43945 1.51856.44433.52734 1.24512.52734.27832 0 .5664-.07324.28809-.07324.51758-.19043.2002-.10254.37598-.21484.17578-.11719.27832-.2002h.0488zm10.38085-.18554q-.26855.11718-.48828.21972-.21484.10254-.5664.21485-.29785.09277-.64942.15625-.34668.06836-.7666.06836-.79101 0-1.44043-.21973-.64453-.2246-1.12305-.69824-.46875-.46387-.73242-1.17676-.26367-.71777-.26367-1.66504 0-.89844.25391-1.60644.2539-.70801.73242-1.1963.46387-.47363 1.11816-.72265.65918-.24902 1.45996-.24902.58594 0 1.167.1416.58593.1416 1.29882.49805v1.14746h-.0732q-.60058-.50293-1.1914-.73243-.59082-.22949-1.26465-.22949-.55176 0-.9961.18067-.43945.17578-.78613.55175-.33691.36621-.52734.92774-.18555.55664-.18555 1.28906 0 .7666.20508 1.31836.20996.55176.53711.89844.34179.36133.7959.5371.45898.1709.96679.1709.69825 0 1.3086-.23925.61035-.23926 1.14258-.71778h.0683zM166.55844 50h-.91308v-.58105q-.12208.083-.33204.23437-.20507.14649-.40039.23438-.22949.1123-.52734.18554-.29785.07813-.69824.07813-.73731 0-1.25-.48828-.5127-.48828-.5127-1.24512 0-.62011.26367-1.00097.26856-.38574.76172-.60547.49805-.21973 1.19629-.29785.69824-.07813 1.49903-.1172v-.1416q0-.3125-.11231-.51757-.10742-.20508-.3125-.32227-.19531-.1123-.46875-.15136t-.57129-.03906q-.36133 0-.80566.09766-.44434.09277-.91797.27343h-.0488v-.93261q.26856-.07324.77637-.16114.50781-.08789 1.00097-.08789.57618 0 1.00098.09766.42969.09277.74219.32227.30762.2246.46875.58105.16113.35645.16113.8838zm-.91308-1.34277v-1.51856q-.41993.02441-.99122.07324-.5664.04883-.89843.1416-.39551.1123-.63965.35157-.24414.23437-.24414.64941 0 .46875.2832.708.2832.23438.86426.23438.4834 0 .88379-.18554.40039-.19043.74219-.4541zm5.51269 1.29394q-.25879.06836-.56641.1123-.30273.04396-.54199.04396-.83496 0-1.26953-.44922t-.43457-1.44043v-2.9004h-.62012v-.77148h.62012v-1.56738h.91797v1.56738h1.89453v.77149h-1.89453v2.48535q0 .42969.0195.67383.0195.23926.13672.44922.10742.1953.29297.28808.19043.0879.57617.0879.22461 0 .46875-.06349.24414-.06836.35156-.1123h.0488zM176.50473 50h-.91309v-.58105q-.12207.083-.33203.23437-.20508.14649-.40039.23438-.22949.1123-.52734.18554-.29785.07813-.69824.07813-.73731 0-1.25-.48828-.5127-.48828-.5127-1.24512 0-.62011.26367-1.00097.26856-.38574.76172-.60547.49805-.21973 1.19629-.29785.69824-.07813 1.49902-.1172v-.1416q0-.3125-.1123-.51757-.10742-.20508-.3125-.32227-.19531-.1123-.46875-.15136t-.57129-.03906q-.36133 0-.80566.09766-.44434.09277-.91797.27343h-.0488v-.93261q.26855-.07324.77637-.16114.50781-.08789 1.00097-.08789.57618 0 1.00098.09766.42969.09277.74219.32227.30761.2246.46875.58105.16113.35645.16113.8838zm-.91309-1.34277v-1.51856q-.41992.02441-.99121.07324-.5664.04883-.89843.1416-.39551.1123-.63965.35157-.24414.23437-.24414.64941 0 .46875.2832.708.2832.23438.86426.23438.4834 0 .88379-.18554.40039-.19043.74218-.4541zM179.20004 50h-.91797v-7.59766h.91797zm6.46485-2.7246q0 1.333-.6836 2.10448-.68359.77149-1.83105.77149-1.15723 0-1.84082-.77149-.67871-.77148-.67871-2.10449 0-1.333.67871-2.1045.68359-.77636 1.84082-.77636 1.14746 0 1.83105.77637.6836.77148.6836 2.1045zm-.94727 0q0-1.05958-.41504-1.57227-.41504-.51758-1.15234-.51758-.74707 0-1.16211.51758-.41016.51269-.41016 1.57226 0 1.0254.41504 1.55762.41504.52734 1.15723.52734.73242 0 1.14746-.52246.41992-.52734.41992-1.5625zm6.79199 2.10448q0 1.38672-.62988 2.03614-.62988.64941-1.93848.64941-.43457 0-.84961-.06348-.41015-.05859-.81054-.1709v-.9375h.0488q.2246.0879.71289.21485.48828.13183.97656.13183.46875 0 .77637-.1123.30761-.1123.47851-.3125.1709-.19043.24414-.45899.0732-.26855.0732-.60058v-.49805q-.41503.33203-.79589.49805-.37598.16113-.96192.16113-.97656 0-1.55273-.70313-.57129-.708-.57129-1.99218 0-.70313.19531-1.21094.2002-.5127.54199-.88379.31739-.34668.77149-.5371.4541-.19532.90332-.19532.47363 0 .79101.09766.32227.09277.67871.28808l.0586-.23437h.85937zm-.91797-.8789v-2.97364q-.36621-.16601-.68359-.23437-.3125-.07324-.625-.07324-.75684 0-1.19141.50781-.43457.50781-.43457 1.47461 0 .91797.32227 1.3916.32227.47364 1.06934.47364.40039 0 .80078-.15137.40527-.15625.74218-.41504z" text-anchor="middle"/></svg>