<svg xmlns="http://www.w3.org/2000/svg" role="img" viewBox="2.80 11.43 114.27 37.02"><title>WildFly logo</title><path fill="#293644" d="M5.8294 21.1769l3.391 15.79156h.90066l3.67536-15.55437h.9484l3.79395 15.55437h.90085l3.27033-15.79156h.83017l-3.41467 16.59598h-2.2742l-3.58045-15.2465-3.46203 15.24594h-2.2742L4.99961 21.1769zm19.56053 0h.83017v1.304h-.83017zm0 4.74198h.83017v11.8555h-.83017zm3.865-5.453h.82999v17.30907h-.82999zm12.09195 17.3087h-.82961v-.99577s-1.94472 1.20928-4.1022 1.20928c-1.47033 0-4.00747-.21352-4.00747-5.97531 0-4.07852 1.09105-6.30704 4.97955-6.30704 1.11454 0 2.53733.18795 3.12993.28456v-4.81152h.82961v16.59598zm-.82942-1.77801v-9.24714c-.61685-.07086-2.2054-.28456-3.12993-.28456-3.36694 0-4.14956 2.01558-4.14956 5.61933 0 4.71867 1.84942 5.1455 3.1773 5.1455 2.03925 0 4.10219-1.23295 4.10219-1.23295z"/><path fill="#243446" d="M44.0496 21.41409h10.38556v3.12974h-7.1609v4.71849h5.73811v3.10606h-5.73811v5.4062H44.0496zm11.33339-.2372h3.17692v16.596h-3.17692zm6.73368 4.76774l2.15767 8.72539h.54505l2.15767-8.7254h3.12993l-4.14918 16.7877h-3.13012l1.20945-4.95568h-2.13417l-2.91623-11.83201z"/><path fill="#fff" d="M82.04426 28.90371l-1.25664-.32008-.63809-.13532-.63903-.12499-.31951-.05375-.3229-.04286-.65219-.08025-.6503-.06202-.65783-.04774-1.32129-.05357-.6627-.01203-.66535-.00263-1.33031.01974-.67286.02913-.65707.05074-.66253.0701-.66384.08421-1.32824.21238-1.332.25562c-.89333.1793-1.7859.36687-2.67228.58415-.44393.109-.88618.22497-1.32241.35334-.2261.06729-.45146.13777-.67249.21389.0812.025.1654.04699.25035.06634.30937.0703.63753.11277.97434.15563l.5131.07668.2528.04699.10994.01616.11522.01278c.31237.0297.63903.0188.96719.00564.65688-.03458 1.3194-.1216 1.99001-.18795.33455-.0327.67173-.06202 1.01568-.06766.17574-.00244.337.00413.50484.00601l.49957.01053 1.0138.03796.07988-.0233.0827-.022.09021-.02198c.0609-.01598.1203-.02575.18043-.03853a5.0972 5.0972 0 0 1 .3543-.05188c.23493-.0263.46648-.0389.69635-.04642.45728-.0141.90723-.00526 1.35324.00602l1.3303.04473c.44037.02255.88018.0827 1.31979.13156.43849.05075.87885.07086 1.31471.0485l.48642-.02594-.46048.13908c-.31726.09397-.63903.13213-.96193.16577s-.64655.05188-.97133.06654c-.65105.02744-1.304.03439-1.95975.02556-.26031-.00564-.52062-.01504-.78338-.0329a17.08653 17.08653 0 0 0-.63226.01955c-.21727.01166-.4319.0282-.64035.05601-.10487.01353-.20712.03101-.30635.05112-.04925.01166-.09924.0188-.14623.03459l-.07198.01936-.0782.02349c-.20674.06108-.40672.12856-.58395.209a1.6051 1.6051 0 0 0-.10337.05075 3.01284 3.01284 0 0 0 .23493.08589c.19697.06165.40748.11277.61911.1592a12.5513 12.5513 0 0 0 .64035.12216 7.54431 7.54431 0 0 0 .3244.0483c.10224.01466.21238.02444.3182.0376a12.00437 12.00437 0 0 0 1.29422.0545c.43229-.00564.86513-.02537 1.29648-.06447.86081-.07856 1.71786-.2026 2.56138-.3759a26.35247 26.35247 0 0 0 1.25438-.2838l.31012-.0795.3056-.0827c.21276-.05639.40316-.11597.60408-.17292l1.20851-.39037c.40598-.13062.82097-.2494 1.24574-.33267l.0342-.05263c.03835-.0934-.01503-.18795-.134-.28624a1.5769 1.5769 0 0 0-.21746-.11729c-.19171-.08514-.3962-.14942-.6005-.21313zm8.273 2.98089l.5193.35485.26313.17479.26952.17367 1.10082.66459c.74616.42927 1.5224.81758 2.31179 1.16529.39714.17347.80217.32816 1.21002.47044a11.96302 11.96302 0 0 0 1.24554.35654c.1047.02255.21164.04849.3135.06634a7.75858 7.75858 0 0 0 .32253.05695 13.7429 13.7429 0 0 0 .64617.08627c.21577.02312.43153.04079.63771.04398a2.81737 2.81737 0 0 0 .24979-.00714 1.66712 1.66712 0 0 0-.08176-.08082c-.14284-.13232-.31312-.26031-.4883-.38267l-.0671-.04698-.06201-.04079c-.04041-.02744-.08458-.05225-.12781-.0795a5.0145 5.0145 0 0 0-.27422-.1451c-.18927-.09153-.38793-.17536-.59016-.25486a16.50013 16.50013 0 0 0-.59205-.21727c-.25523-.06635-.50652-.13965-.75555-.2169a35.51127 35.51127 0 0 1-1.85188-.6424c-.30353-.11654-.6052-.2372-.90122-.36952-.29508-.1342-.58884-.27027-.85968-.46123l-.39244-.27722.45108.17799c.40654.159.83074.27854 1.26303.36894.43153.09435.86795.17574 1.2931.2932l1.27674.3759c.42777.13007.85799.26407 1.28745.42214.2154.0797.43116.16446.64542.2635.10751.04944.2139.10244.3199.16108.05337.03064.10675.05883.15938.09304l.07893.04961.07143.047c.02311.01503.04586.03194.0686.04735l.01503.00376.95855.28193.47777.14735.48059.15374c.32515.11353.63527.24772.94313.38455.6146.2744 1.21604.5661 1.82875.80819.30636.11765.61347.22986.91964.30015l.11315.02406.109.01936.25487.03533c.17517.02632.3447.05639.5116.0889.33342.0639.6582.12931.97358.15976a3.0805 3.0805 0 0 0 .2575.0156c-.18533-.14171-.37647-.27948-.5695-.41443-.37327-.25937-.7565-.50878-1.14349-.75236-.7721-.48623-1.55998-.94577-2.34937-1.39798l-1.18315-.66308a38.68763 38.68763 0 0 0-1.19348-.6208l-.60144-.28944-.6067-.27554-.60708-.25561-.62907-.23964-1.25644-.43867c-.20938-.07293-.42139-.13984-.63227-.20731l-.63264-.19829c-.42213-.13119-.84652-.2481-1.27054-.36594l-.63771-.16163c-.21239-.05395-.42402-.0968-.63621-.14623-.20938-.05075-.42853-.08834-.6443-.13156l-.31951-.06109c-.10375-.01804-.21239-.03345-.31895-.04887l-.6473-.084-.64805-.07519c-.43229-.0436-.8642-.07969-1.2931-.09247-.21426-.00432-.42909-.00808-.63903.0124-.08364.00846-.16596.02256-.24302.04286-.14378.05394-.22498.12855-.21802.2293l.01579.06052c.37646.21332.73375.45728 1.07695.70913l1.02301.75143z" opacity=".7"/><path fill="#e1eef4" d="M72.88677 27.75402c-1.93119.0297-3.75994.34057-5.66857.72793-1.36828.27817-3.82046.8078-5.09345 1.36226.53566.4898 1.83327.49243 2.57905.63377 1.21416.22967 3.2271-.27817 4.49389-.29057.87058-.00846 1.7235-.0079 2.5798.03947-.16107.0233-.312.05168-.44657.0889-.29377.08176-1.19724.3338-1.14386.62174.06202.32947 1.5814.6003 1.87837.65406 2.3193.41725 5.21693-.06841 7.5849-.72548 1.28032-.35523 2.05806-.8018 3.30887-1.2931-.42477.08345-.84014.20223-1.24573.33267l-1.20852.39037c-.2011.05676-.39131.11841-.60407.17292l-.30561.0827-.31012.0795c-.4148.10487-.83262.19829-1.25438.2838-.84333.1716-1.70094.29565-2.56138.37402-.43153.0391-.86457.05883-1.29648.06447-.43379.00489-.86607-.0126-1.29422-.0545-.10582-.01166-.21614-.02124-.3182-.03572a7.2605 7.2605 0 0 1-.3244-.0483 13.25047 13.25047 0 0 1-.64035-.12198c-.21163-.04623-.42213-.09773-.6191-.1592-.08327-.02668-.16258-.05563-.23494-.08589.03251-.01691.0671-.03458.10337-.05074.17724-.08082.37966-.14792.58396-.209l.07819-.0235.07198-.01935c.04699-.01354.09717-.02293.14623-.03459.09924-.0201.20148-.03759.30636-.05112.20862-.02782.42288-.04436.64034-.056a17.08653 17.08653 0 0 1 .63227-.01956c.26237.01767.52306.02744.78337.0329.65595.00883 1.3087.00187 1.95976-.02557.32459-.01466.64842-.03383.97132-.06653.32271-.03383.64467-.0703.96193-.16577l.46048-.13909-.48642.02594c-.43604.02256-.87622.00226-1.3147-.04849-.43981-.04699-.87961-.10713-1.3198-.13156l-1.3303-.04474c-.4477-.01127-.89765-.0201-1.35512-.00601a9.00844 9.00844 0 0 0-.69636.04642 5.0972 5.0972 0 0 0-.35428.05188c-.06015.01259-.11973.02255-.18044.03853l-.09021.02199-.0827.02199c-.02631.00714-.05338.01579-.07988.0233l-.0156-.00094-.99801-.03702-.49957-.01053-.50484-.00601c-.34395.00564-.68113.03477-1.01568.06766-.67023.06653-1.33313.15355-1.99001.18795-.32798.01504-.65463.02406-.9672-.00564l-.1152-.01278-.10996-.01616-.2528-.047c-.1744-.03006-.34544-.05356-.5131-.07667-.3368-.04511-.66496-.08552-.97433-.15563-.08514-.0188-.16915-.04135-.25035-.06634.22103-.07612.44638-.1466.67249-.21389.43604-.12837.87848-.24434 1.32241-.35335.88638-.21727 1.77895-.40484 2.67228-.58415l1.332-.2556c.44281-.07895.88562-.14924 1.32824-.2124l.66384-.0842.66253-.0701.65707-.05074.67286-.02914 1.33031-.01973c.22216-.00282.44394.00056.66534.00263l.66271.01203c.44206.00846.88187.03157 1.3213.05356l.65594.04774c.21934.0156.4336.04192.6503.06203.21427.01823.43417.0513.6522.08025l.32289.04285c.10337.0156.21144.03478.31764.05376l.6409.12499.6381.13532c.42363.09491.8452.19678 1.25663.32008.2043.06353.40879.1278.59956.21332a1.53743 1.53743 0 0 1 .21746.11728c-.6503-.52513-3.26432-1.05628-3.73194-1.1324-1.9607-.32008-4.26082-.37853-6.23994-.34827z" opacity=".5"/><path fill="#293644" d="M83.1402 29.28957a.4868.4868 0 0 0-.11465-.15186c-.08834-.0827-.18476-.14566-.28287-.20355-.1966-.11428-.39977-.2075-.60576-.28945-.41387-.16633-.836-.2979-1.26058-.41912l-1.28934-.31952-.3308-.06653-.33078-.05169-.65783-.09303-.6676-.07518-.66628-.06128-1.3382-.08081-.67099-.02557-.67286-.0156-1.35455-.00639-.67418.01598-.68865.03759-.68226.06014-.68038.08157-1.35568.20675-1.34986.24997-1.34797.2825-1.35099.31631-1.35324.36726-1.3476.47495-.42852.18419.33906.30034c.16915.14735.35447.24058.53603.31012s.36312.11502.54073.15149c.3558.07236.70369.10976 1.04087.14472l.49487.05638.24716.03722.14227.0188.13777.01127c.362.0218.71421.00413 1.05628-.0282.68602-.0669 1.34704-.18419 2.00355-.27854.32778-.04698.65406-.08965.97734-.10863l.9905-.03139.26538-.00263a1.46601 1.46601 0 0 0-.21182.1248c-.06315.04736-.134.10243-.20054.20674-.03233.05639-.06428.12217-.0703.20976-.00263.02105-.00188.04228-.00037.06465l.003.03252.00226.01597.00564.02556.003.0094a.47551.47551 0 0 0 .01166.03759.44356.44356 0 0 0 .02932.06522c.07969.1342.15976.18325.22648.23174.06879.04605.13232.078.19359.1075.1231.05715.2387.09962.3571.13853a8.01983 8.01983 0 0 0 .68358.18682 14.37066 14.37066 0 0 0 .68113.14002l.3417.05545c.11934.01842.2321.03007.34845.04417.46273.04886.92434.06484 1.38275.06052.45672-.00376.911-.03383 1.36038-.07782.22498-.0216.44845-.04886.67042-.07743l.66252-.10412c.43943-.0748.87303-.16352 1.30343-.2607a27.95192 27.95192 0 0 0 1.276-.32289l.31463-.0889.03759-.01165.04379-.01372.07668-.02444.15412-.05c.20186-.06145.41293-.14697.6176-.22647.40278-.1684.78658-.36143 1.15721-.56836.36932-.2075.73263-.41631 1.09105-.64505-1.25062.49112-2.02873.9375-3.30886 1.2931-2.36817.65726-5.2658 1.14274-7.5849.72549-.29697-.05395-1.81636-.32516-1.87838-.65407-.05338-.28794.84991-.53998 1.14386-.62174.13439-.03721.28569-.06578.44657-.0889-.85649-.04755-1.70921-.04811-2.5798-.03759-1.26678.01222-3.27973.52025-4.492.29057-.74579-.14152-2.04302-.14397-2.57905-.63377 1.2711-.55445 3.7214-1.0841 5.09344-1.36226 1.90882-.38717 3.73758-.69804 5.66857-.72793 1.981-.03007 4.28094.0282 6.24257.34771.46762.0763 3.08182.60708 3.73194 1.1324.01504.01015.03252.0188.04699.0297.03684.02856.07142.05901.09397.09021.01128.01579.0188.03101.02143.04605.00188.00808.00244.01466.0032.01936.00263.0032-.00452.02255-.00602.03308l.1278.04003c.0047-.0141.00997-.01823.01391-.04135a.17855.17855 0 0 0 .00602-.05826c-.00075-.03684-.01165-.07236-.02631-.10338zm24.9169 7.68528c-.36424-.32403-.74372-.60464-1.12864-.87623l-1.16642-.77435-1.18408-.727-1.1901-.69315-1.20213-.66346-1.22036-.6255-.62023-.29208-.62907-.27252-.64053-.25486-.63452-.22817-1.28746-.42139-.64279-.19735-.64523-.18795-1.29535-.34545-.65144-.15036-.6582-.1372-.65313-.11897-.33004-.05564-.33492-.04135-1.32373-.10525-1.32825-.00056c-.22178.01315-.44356.03684-.66666.08345-.11277.02406-.2229.053-.33267.10393-.05638.02557-.10995.05639-.15694.1077-.02349.025-.04473.05507-.0577.09022a.18043.18043 0 0 0-.0124.05694c-.00376.02312.00019.0282.00037.0436l.13383.00226c.00131-.0107.00075-.03157.0047-.03383l.00845-.0188a.12593.12593 0 0 1 .03477-.03702c.03007-.02293.07236-.04097.1169-.05638.0188-.00564.0361-.00865.05395-.01316.78281-.2932 3.43009.0282 3.89846.10337 1.9622.31576 4.16253.98599 6.0332 1.63987 1.8231.6379 3.45827 1.5098 5.14945 2.48 1.2104.69541 3.36994 1.97234 4.40122 2.89931-.6629.29565-1.8951-.11145-2.64727-.21294-1.22487-.16502-2.9745-1.28182-4.17287-1.69155-.82322-.28287-1.6329-.55183-2.46064-.77718.14547.07518.28042.1481.3962.22554.25241.16972 1.03034.69448.889.95065-.16258.2932-1.6906.07086-1.98926.02782-2.3317-.33587-4.9288-1.7111-6.96787-3.08163-1.1029-.74165-1.70039-1.41094-2.73186-2.27175.26802.33023.54506.64335.83187.95855s.58941.6176.91833.9046c.16915.13983.34263.28756.51498.4103l.2325.17046.03382.02312.27065.18363c.36274.24433.73207.48021 1.10834.70857a25.14771 25.14771 0 0 0 1.15514.65914c.19585.10582.39507.20675.5958.30768l.6116.28568c.41254.18381.8345.3571 1.26603.50333.43228.15036.87697.2793 1.33162.3789l.34395.06767a8.8938 8.8938 0 0 0 .34207.05544 14.66574 14.66574 0 0 0 .69071.08214c.23118.02124.46424.03759.70764.03815a3.19703 3.19703 0 0 0 .38078-.0188 1.5581 1.5581 0 0 0 .21727-.04097c.07894-.025.17047-.0466.28813-.15036.0139-.01315.02744-.02574.04924-.05262a.67474.67474 0 0 0 .02256-.03195l.00564-.00846.01353-.02218.00695-.01447.0126-.03007c.00902-.0188.01578-.0376.0201-.0609.02218-.08495.01316-.15882 0-.2214-.03007-.1203-.08006-.19453-.12554-.259a1.47165 1.47165 0 0 0-.16183-.18645l.25185.08684.92998.34263c.30072.11972.59486.26275.89088.41086.59393.2962 1.18409.61685 1.81334.89652.31614.13984.6428.26689.9935.36086l.13383.03308.1404.02857.24678.04267a14.5041 14.5041 0 0 1 .48641.10468c.33117.07368.67286.14736 1.03373.19171.17968.0188.36575.03534.56009.02688s.4022-.03759.60707-.1248l.41669-.1778z"/><path fill="#e1eef4" d="M97.91682 35.77742c.29884.04323 1.82688.26538 1.98927-.02782.14134-.25599-.63678-.78074-.889-.95065-.11578-.07762-.25073-.15262-.3962-.22554.82773.22554 1.63741.4943 2.46064.77717 1.19837.41161 2.94818 1.5286 4.17286 1.69343.75218.1015 1.98438.5086 2.64728.21295-1.03147-.92697-3.19102-2.20409-4.40123-2.89932-1.68967-.9702-3.32671-1.84228-5.14945-2.48-1.87048-.65406-4.071-1.3243-6.0332-1.63986-.468-.07518-3.11564-.39658-3.89846-.10337a1.61073 1.61073 0 0 1 .24302-.04286c.20769-.0188.42252-.01691.63715-.0124.42853.0126.86082.04887 1.2931.09247.2154.02124.43229.04624.64805.07518l.6473.08401.31895.04887.31952.06108c.21558.04135.43473.07932.64429.13157l.63621.14622.63772.16164 1.27054.36594a23.2137 23.2137 0 0 1 .63264.19829l.63226.2073 1.25645.43868.62907.23964.60707.25561.6067.27553.60333.28945c.40033.1996.79803.40597 1.19348.6208l1.18314.66308c.79127.45202 1.57878.91156 2.34938 1.39798.38718.24358.77022.4928 1.14349.75236.1932.13495.38435.27253.56949.41443-.08458-.00188-.16916-.00658-.2575-.0156-.31519-.03045-.63978-.09585-.97358-.15976l-.5116-.0889-.25486-.03533-.109-.01936-.11315-.02406c-.30636-.0703-.6131-.18231-.91964-.30015-.61272-.24058-1.21416-.5319-1.82876-.80631-.30767-.13683-.61798-.27102-.94313-.38455-.16577-.0577-.32102-.10262-.48059-.15374l-.47777-.14735-.95854-.28193-.01504-.00376-.0686-.04736-.07142-.04699-.07894-.04962c-.05263-.0342-.10582-.0624-.15938-.09303a4.71567 4.71567 0 0 0-.3199-.16107 8.74907 8.74907 0 0 0-.64541-.26351c-.42928-.15788-.8595-.29207-1.28746-.42214l-1.27674-.3759c-.42515-.11765-.86157-.19922-1.2931-.2932-.43229-.09021-.85649-.20994-1.26302-.36894l-.45108-.178.39243.27723c.27065.19115.5646.32704.85969.46123.29602.13232.59768.25317.90122.36951.60933.23118 1.22637.44394 1.85187.64242.24866.07706.49995.15073.75556.2169.1996.06953.39789.14095.59204.21726.20224.0797.40109.16352.59016.25486a5.14795 5.14795 0 0 1 .27422.1451c.04286.02725.08721.05187.1278.0795l.06203.04079.0671.04698c.17517.12217.34583.25035.4883.38267.02932.02631.056.05394.08175.08082a2.81737 2.81737 0 0 1-.24978.00714c-.20618-.00338-.42176-.02067-.63772-.04398-.21426-.02312-.4368-.05338-.64617-.08646-.11089-.01785-.22178-.0357-.32252-.05695-.10187-.01785-.20863-.04379-.3135-.06634-.41913-.09586-.83544-.2152-1.24555-.35654-.40785-.14228-.8127-.29696-1.21002-.47044-.79164-.3462-1.566-.73432-2.31178-1.16341-.37308-.2137-.74053-.43454-1.10083-.6646l-.26952-.17366-.26313-.1748c-.18513-.11878-.34639-.23737-.5193-.35484l-1.02301-.7518c-.34339-.25186-.70106-.49619-1.07696-.70914 1.03147.86081 1.62896 1.52992 2.73186 2.27175 2.03888 1.37072 4.63597 2.74407 6.96768 3.08182z" opacity=".5"/><path fill="#d4dfe5" d="M80.96298 31.57373c-.03139.76439.42702 1.48367.86138 2.11876.64279.942.30072 2.16575.32703 3.1786.04022 1.5769-.53942 7.83752.80255 9.32383l.00563.00188c1.7066-.7142 3.09498-6.65907 3.63364-8.12245.34677-.94106.41293-2.53055 1.32091-3.15868.67343-.46668 1.6021-.96005 1.76673-1.80959l-4.01855-4.09787c.00018.00038-4.69875 2.51721-4.69932 2.5674z"/><path fill="#dfeef6" d="M89.04427 33.11341l-.33305.14961c.14153-.09021.28061-.18607.41236-.2962.15036-.12405-.1278-.26727-.23681-.2419l-.56385.1466a1.78928 1.78928 0 0 0 .2246-.37928c.06334-.14735-.14999-.23419-.262-.21577-1.17413.20036-1.98175.9999-3.02074 1.51789-.50934.25373-1.03936.47739-1.58554.64993a7.50672 7.50672 0 0 0-.21746.06277 3.36055 3.36055 0 0 1-.4244.08082c-.12329.0376-.21802-.00658-.28192-.13194.09905-.1015.40221-.1528.5255-.18419.49338-.12348.95705-.2902 1.42035-.4975.41067-.18363.79503-.4086 1.15138-.67738.75687-.25298 1.46639-.62888 2.02084-1.21152.1184-.12367-.1904-.22648-.26257-.21577-.63865.09022-1.1213.41725-1.60697.82811-.15412.131-.31012.25223-.46875.36688-.3056.09848-.61647.18231-.92584.25505-.20675.04886-.42552.08138-.64843.10938l.91006-.49863c.83074-.44243 1.77725-.71985 2.45913-1.39083.15976-.156-.1654-.265-.28098-.23212-.87585.24622-1.6844.63753-2.50782 1.02377.00376-.00188.00696-.00376.0109-.00527.72493-.36124 1.43726-.74183 2.13624-1.14273.1748-.09961-.1233-.2402-.25373-.23644l.1964-.09868c.2186-.11277-.09735-.31011-.2462-.25185a20.32303 20.32303 0 0 0-2.28905 1.05534c-.59129.31764-1.33106.92847-2.04771 1.09575.40897-.3915 1.03748-.60144 1.51111-.87773l2.12196-1.28934c.12668-.08025-.01128-.18569-.14284-.22497l.47175-.28794c.13025-.08082-.03082-.2058-.1684-.23682.05074-.08702.06653-.16953.01954-.2387-.05506-.08081-.16915-.13193-.26275-.11201-.1278.02744-.2308.10657-.33737.17799-.44732.29752-.87547.58151-1.36189.81946-.61365.30072-1.25137.5522-1.87235.84352l-.53848.16314c-.09266.0295-.09548.08401-.05582.1357l-.12536.06672c-.04474.02556-.05037.09078-.0235.13345.103.1669.27967.2184.4836.20712l-.52476.2449c-.19265.08702.02368.2665.156.26726s.25862-.02255.37966-.0592c-.12405.10675-.23682.2261-.32703.3697-.07932.12554.1293.21426.2184.2199a1.6596 1.6596 0 0 0 .25429-.00264l-.15525.11127c-.1667.12593.16916.29696.28663.23362l.03646-.01955.12555-.06766c-.01541.01429-.03158.02688-.04699.04135-.1513.14472.1312.24998.2419.24434.68263-.0327 1.2694-.4398 1.83909-.76496.60144-.34357 1.25212-.65275 1.91464-.9078-.49731.27554-1.04087.48529-1.54119.7394-.59542.30203-1.1559.64805-1.76297.91531-.26877.06071-.5257.14754-.75556.28437-.1917.11352.17987.26388.28644.23306.2308-.06616.4522-.14754.66835-.2387.3415-.06578.70481-.08382 1.02696-.13964.18287-.03195.3633-.07086.54374-.11052-.26313.13533-.5319.2575-.81871.36838-.4135.15976-1.10515.17517-1.43068.50747-.15788.16088.07518.43003.23437.49243.01955.00808.03985.01315.05977.01973-.05883.02895-.11991.05545-.17667.08778-.1077.0607.0094.19584.08495.2214.28193.09492.55182.10243.81702.05977l-.61798.24621c-.17216.06767-.03139.20675.1139.24866-.37346.22742-.62775.46668-.39545.61986.22517.1481.546.00188.75707-.0763.21952-.08139.43416-.17292.64936-.26502-.02744.01842-.05507.03515-.08232.05357-.0498.03327-.05638.06898-.04285.10206l-.38004.21745c-.07386.0436-.0592.09774-.00864.14285-.38154.1184-.75293.26068-1.03128.54505-.12537.1278.07893.23494.1917.24528.48304.04604.96738-.03722 1.44722-.18457-.07086.1077.12217.20712.21483.21426.2494.01804.49149-.01128.72811-.06672l-.11765.05864c-.17855.09397-.36556.17103-.55671.23945-.56855.15261-1.1356.31444-1.67463.55295-.2246.09961.09623.31763.24997.25072.41725-.18287.8546-.31012 1.28746-.44675l.13607-.03891c-.54317.28493-1.08015.58264-1.57803.94764-.1808.13345.17517.26727.28569.23043.08552-.02894.16915-.06127.25298-.0936-.1498.13345-.28756.2808-.40936.44657-.0983.13532.17893.23682.26764.21483.3883-.09586.7565-.23212 1.11643-.38662-.28193.24133-.53002.51217-.7176.83638-.056.09698.03308.16314.12875.19434l-.26163.17855c-.17817.125.1889.29584.3214.20938l.49995-.33831c.28568-.17799.58508-.32252.9172-.37665-.15413.24057-.4712.38154-.71046.48773-.22328.09886.0953.3167.2481.24866.37834-.16784.86532-.39714.94538-.85612.01955-.11652-.14322-.181-.22836-.18287a2.11444 2.11444 0 0 0-.32083.01823c.19641-.17141.3853-.35222.56329-.54825.1184-.13119-.21802-.25185-.309-.20242-.38754.21276-.7063.59824-1.0807.85517.58076-.6473 1.42616-1.06436 2.10466-1.5628.1684-.12461-.16615-.28569-.28249-.22968-.81326.39094-1.59287.85987-2.44278 1.17394.63771-.5695 1.5036-.8843 2.19901-1.34873.14566-.09717-.05544-.21427-.19735-.23381l.18758-.10337.00037-.00038a1.33257 1.33257 0 0 0 .0359-.01974c.10037-.05676.04323-.1278-.04793-.17667.42402-.19923.8469-.43097 1.14725-.73864.156-.16032-.1639-.26501-.28192-.23024-.62024.18325-1.24423.57607-1.89905.71233.6488-.45258 1.4209-.77717 2.13004-1.06906.22817-.09454-.09774-.30072-.24622-.24997-.63113.20994-1.23934.49299-1.8562.74804-.53076.21877-1.12581.48904-1.72237.56949.56385-.34132 1.3508-.47552 1.9201-.71985.95667-.41048 1.9077-.82097 2.80422-1.34009.14735-.08514-.0592-.21426-.18326-.23813l1.1698-.63527c.22367-.12085-.10224-.28944-.24508-.24997-.06654.01842-.13006.04003-.19603.05883.32628-.16672.65481-.32816.9905-.47514.21914-.0968-.09455-.31444-.24434-.25073zm-4.8322-.81852c-.36875.19735-.73526.44281-1.12206.61798.3558-.23418.74146-.43228 1.12206-.61798zm-.57287 2.51947c-.13344.04943-.26877.08777-.40353.10788.0688-.025.13909-.04792.2105-.06954a2.73467 2.73467 0 0 0 .19303-.03815zm2.3319-1.0591c.6597-.41086 1.29817-.864 2.02497-1.09518-.12593.1763-.28268.32891-.45897.46236-.52908.18663-1.0482.40146-1.566.63264zm-2.79219 2.14132c.156-.09078.32102-.1684.4806-.24434.41498-.20242.84577-.37458 1.2679-.55351.7845-.3308 1.52841-.7424 2.28303-1.12808l.42289-.1667c-.655.3477-1.30438.7142-1.97648 1.03372-.80687.3838-1.64269.72548-2.47813 1.06079zm3.22748-.98862l-.17667.09304a.17291.17291 0 0 1-.01053.00375l.05112-.03007z"/><path fill="#293644" d="M94.71641 37.90012l-.47025-.45822-1.65828-1.66298-1.09763-1.13259-1.22468-1.27524-1.30926-1.37955-1.35362-1.43838-1.49514-1.60359.9905-.54618.81382-.44281.78488-.42064 1.42222-.83825c.43228-.27817.81608-.55483 1.13521-.82755.32083-.2714.5757-.5413.7582-.78431.18306-.24434.29075-.46198.34902-.61648.03063-.07668.04699-.1372.0577-.17893l.01691-.0624-.02067.06071c-.0141.04041-.03383.10056-.0701.1733-.06673.14772-.18852.35371-.38342.57963-.19622.22498-.46236.47081-.79503.71496-.33155.24528-.72605.49168-1.17056.73432l-1.46901.71534-.81138.38154-.8298.4257-1.10552.58077-.85894-.91475-.64466-.67361-.64148-.62625-1.15401-1.15702c-.34075-.37459-.6334-.73677-.86589-1.07696-.23493-.33962-.40522-.65895-.51686-.93561-.11277-.2778-.15788-.51217-.17385-.67362-.0094-.08025-.00902-.14397-.00865-.18644l.00019-.06447-.00489.06447a1.47729 1.47729 0 0 0-.00394.18795c.0045.16483.0357.40597.12893.69692.09247.28944.2449.62775.45916.98918.21239.36274.48435.74954.80198 1.15326l1.06944 1.25795.6037.65444.62437.68489.76063.84446-1.94284 1.02809-1.74793.91625-1.68855.87529-1.57464.80442-1.40737.71045-2.11124 1.02903-.59468.2793-.20975.10036.22328-.07142.62776-.20524.96606-.35034 1.24122-.49375 1.45192-.63414 1.60734-.75406.71835-.3571c.00376.13495.01973.2697.05018.40108.07255.32666.21239.63302.37402.92096.15844.28813.3556.55915.52382.82923.15844.27347.24283.58735.27854.90216.07048.63527-.0344 1.27149-.04624 1.92029v.05206c-.04548.03158-.08608.0639-.1184.09642-.05958.05826-.09435.11766-.10526.16126s-.0094.06766-.0094.06766.00377-.0248.02406-.06052.06165-.08157.12593-.1216c.02387-.01466.05338-.0282.0827-.04191a18.2725 18.2725 0 0 1-.01316.81213l-.03383.96475c-.04736 1.28633-.08307 2.57735-.03007 3.87101.0282.64693.08232 1.2946.19208 1.9372.05526.32102.12725.64091.23024.95423.10526.31011.23945.62117.46556.87735l.01353.01597.02067.00564.00602.00132.02443.00639.0188-.0094c.31312-.13777.5475-.38342.74935-.6379.20167-.2575.3712-.53566.52664-.8206.30899-.57098.56046-1.16942.79183-1.77386.35974-.94502.66346-1.90882.95441-2.8747l.01654-.00507s-.00188-.01316-.00526-.03252l.23118-.7736.28155-.92246c.04773-.15337.10262-.30147.15505-.4556a7.20412 7.20412 0 0 0 .13176-.46893l.03721-.15787.09398.07142.20486.1496-.19096-.16783-.10111-.09022.1823-.74297c.08327-.30824.18138-.61234.32046-.89238.13909-.27817.32553-.53228.57325-.70482.25486-.1763.5195-.34113.77285-.52626.2526-.18362.4975-.3866.69617-.63959.0921-.11728.17103-.24997.23024-.39169l.28192.28569 1.27205 1.23802c.4071.3885.80254.74428 1.16435 1.07508l1.0108.87284.79822.6471.52682.3994.18682.14002-.1654-.16351zm-8.00216-.43322c-.03853.15562-.08025.3105-.12912.46048l-.15637.45672-.28569.92358-.17949.59355a1.44534 1.44534 0 0 0-.06917-.15393c-.04266-.07819-.09773-.16484-.16915-.24941-.06766-.0891-.15468-.1716-.24997-.2575-.09849-.07968-.20637-.1622-.32516-.23117s-.24753-.13213-.38229-.18043c-.13438-.05075-.2744-.08834-.41574-.1139-.28324-.05394-.57062-.06109-.83544-.03477-.13288.01221-.25994.0344-.37778.0639-.1184.03064-.2293.06108-.32703.1045a1.7329 1.7329 0 0 0-.26031.12762c-.07406.0438-.1357.08646-.18232.1278-.04886.0376-.08232.0733-.10525.09717l-.03458.03684.0079.01072.04698-.01692c.0297-.01203.0733-.0282.12969-.0451a.95667.95667 0 0 1 .09303-.0267c.03383-.00883.06917-.02067.10958-.02819.07837-.01654.1654-.03477.2635-.04699a4.22512 4.22512 0 0 1 .31294-.02988c.11202-.00376.22873-.00752.34959-.00376.12066.00113.24621.01071.37214.02199.12555.01316.25373.02932.37966.05169.12592.02368.25147.04642.37402.07856a3.338 3.338 0 0 1 .35485.10469c.22554.078.42852.18983.577.31763s.24434.26877.30016.36933c.0094.01428.01503.02725.02255.04134-.30166.99163-.61553 1.98006-.98673 2.94518-.23156.60013-.4853 1.19386-.79033 1.75489-.15412.28005-.32102.55257-.51687.8001-.18419.23175-.39845.4462-.65369.57006-.18287-.22367-.3058-.50108-.40033-.78413-.09773-.3026-.16784-.61591-.22084-.93167-.1077-.63264-.1545-1.27524-.18645-1.91671-.05901-1.28596-.03007-2.57304.01015-3.85937l.02913-.9655c.00865-.287.0062-.58133.00301-.86758.11371-.03984.24903-.07461.40522-.10074.2622-.04567.57325-.07856.90724-.09021a13.08696 13.08696 0 0 1 .51385-.01034l.52213-.0062c.08608-.00075.17197 0 .25185.00564l.26219.01804c.1654.01128.33511.04097.49619.0748.15844.04248.3133.09153.45108.156s.2699.1327.38567.20543a5.36033 5.36033 0 0 1 .3541.23795l-.04643.19603zm2.61439-3.7402c-.18852.24095-.42665.43886-.67606.61985s-.51385.34546-.77116.524c-.26689.18533-.46423.45485-.60802.74391-.14472.29058-.24433.6005-.3289.9125-.06203.22986-.11654.46123-.17104.69241a6.21927 6.21927 0 0 0-.31426-.26802 3.95259 3.95259 0 0 0-.82284-.5084c-.16408-.07368-.33455-.14435-.52119-.19171-.09548-.0295-.18137-.04567-.27102-.06315-.09849-.01955-.1949-.02744-.28944-.03346a3.45264 3.45264 0 0 0-.55596.01429 6.81096 6.81096 0 0 0-.52626.0812c-.33887.06728-.65219.14716-.91156.24433-.13156.04962-.25035.1028-.3509.15844.01165-.62775.1124-1.2604.03947-1.9077-.03853-.3259-.1263-.65538-.29696-.9482-.17761-.28287-.36688-.54073-.52438-.82604-.159-.28118-.29414-.57757-.36368-.88863a1.87198 1.87198 0 0 1-.0483-.43341l.88204-.44544 1.75226-.91908 1.7517-.94539.27816-.15374.20975.23306.70105.7706.02481.03288c.07086.0921.1451.18156.21727.27253l.21897.27065.22742.26181c.07518.08928.1528.17423.23305.2575l.23795.25185.2481.24245c.08081.08195.1699.15525.25504.23306.05826.05413.12085.10394.18231.15412l.15412.16276.96926.99614c-.05563.14585-.13495.2823-.23118.40447z"/><path fill="#fff" d="M85.84555 39.97321c-.02744-.09266-.21615-.11051-.28306-.06728-.16464.10337-.31481.2214-.45352.35034a.09773.09773 0 0 0-.02368.00526c-.77248.35447-1.42335.96926-2.11726 1.48104-.12649.09323-.25749.1748-.39244.25186.3791-.21615.72605-.57832 1.0732-.85837l1.49044-1.22807c.08947-.07743-.22366-.13269-.27704-.109-.59129.25617-1.16303.58151-1.75489.8469.50183-.44263.55953-.61084.6661-.84465.20486-.03665.39375-.0812.52701-.15318-.05075-.01974-.22554-.06672-.38868-.11183.056-.11277-.22366-.13345-.28005-.1028-.38153.2058-.80066.27966-1.18408.48622-.1184.0639.1748.16915.25937.12536.1278-.06879.30636-.11202.49957-.14773-.35786.31576-.7751.60294-.87397 1.07583-.02199.10581.20788.11765.26069.10149.5413-.17291 1.05496-.43135 1.5675-.69034l-1.96783 1.61505c-.0314.02688 0 .07143.01654.08515.29076.23117.59918.06014.87622-.11841.499-.32177.94727-.72549 1.4256-1.07508-.5601.58829-1.15834 1.13278-1.74887 1.6908-.09022.08552.22554.13307.27816.10864.31764-.14567.61535-.3214.90216-.51743-.39093.46743-.80593.90968-1.25964 1.31753-.08834.07894.20919.13232.25073.11878.32609-.1045.6409-.23493.95065-.3804-.42515.42006-.84446.84765-1.23521 1.30944-.07293.08608.2261.1684.2979.09172l.97133-1.01343-.55314 1.04256c-.1998.20261-.38436.4182-.5319.677-.03759.06898.04774.109.13908.11878l-.0451.09623c-.04662.10262.25373.12217.3071.07105.42928-.40729.55634-.67982.77398-1.21491.47852-.65407.82886-1.36752 1.17319-2.1276.03759-.08363-.12104-.1154-.21953-.09153a9.4896 9.4896 0 0 0 .37252-1.01042c.09022.04925.21708.04135.21858-.03082.00658-.39563.40786-.77435.29001-1.1728zm-.37083.49356c-.03477-.02631-.09322-.03947-.14716-.04191a3.19044 3.19044 0 0 1 .21652-.19453c-.01354.07894-.03947.15788-.06955.23644zm-1.33332 1.18446c-.00808.01692-.01654.0329-.0248.0498a.06072.06072 0 0 0-.00452.0376c-.09397.07067-.18494.13983-.27891.20712zm.7518-.21426c.04568-.06315-.04416-.103-.13851-.1139a5.17802 5.17802 0 0 1 .32083-.37966c-.17442.62343-.41838 1.20796-.69448 1.77613-.33455.18118-.67192.35222-1.01869.5007.55821-.54694 1.0638-1.1418 1.53067-1.78365z"/><path fill="#e1eef4" d="M89.83197 31.01627c.07518-.03064.15336-.05225.23118-.06917.156-.03759.31312-.05225.46893-.06634l.4665-.0188.46179.00263.45427.00996.45634-.01033.93036-.00188 1.8466-.0188.45785-.03195.22404-.02255.23268-.02951.92979-.1327 1.86202-.29564c.62023-.10957 1.23596-.23964 1.84247-.40353.60708-.1654 1.20664-.3571 1.7705-.61948.44506-.206.86888-.45728 1.22486-.7691-.05262-.0062-.10525-.01353-.15788-.01804-.09096-.0062-.1823-.01503-.27478-.01842a5.67985 5.67985 0 0 0-.27779-.00432l-.28192.00696a7.92585 7.92585 0 0 0-.28193.01672 10.2602 10.2602 0 0 0-.56686.05958c-.18907.02556-.3759.05507-.56685.0889l-.56291.11277-.5601.12743-.55764.13082.97452-.27121.26313-.07518.41913-.12931c.18344-.05695.36894-.11334.55633-.1639l.21276-.05525.5037-.14397c.32854-.09623.65858-.17968.98994-.25937l.49994-.12142c.16277-.03947.32628-.07781.48717-.12442a11.73936 11.73936 0 0 0 .96061-.31087c.31613-.11653.62926-.24396.93938-.38098.31105-.13495.62023-.2744.9279-.42326l.92566-.44657.93599-.45258c.63527-.29508 1.279-.55596 1.90544-.83638.31331-.14134.62136-.28944.9202-.45108a10.02525 10.02525 0 0 0 .4398-.25317c.07067-.0451.14153-.08646.21182-.1342l.21295-.1434.85517-.59204c.18683-.13458.36012-.27892.52626-.4289-.48585-.09642-.9796-.16634-1.47616-.2139a21.96196 21.96196 0 0 0-1.82555-.09115c-.60859-.00376-1.21924.0126-1.82462.04173a45.95378 45.95378 0 0 0-1.81616.12987c-.30129.02406-.6007.06202-.90066.09247l-.89464.11315-.88807.13626-.88073.16164-.43416.08965c-.14473.02876-.29001.06014-.43661.09642l-.43849.10337-.21351.05169-.2169.05488-1.72726.4507c-1.14273.30862-2.27381.64185-3.38347 1.02151a53.66348 53.66348 0 0 0-1.64663.58979l-.8095.31895c-.27065.10393-.53528.21877-.80105.33041l-.78863.3496-.79315.3695-.79259.3603-.78187.36237c-.51592.24753-1.02527.50652-1.50736.8048-.23945.15111-.47551.30768-.69071.48905-.21615.181-.41443.37872-.56122.62474l-.01166-.00526c-.00075.00226-.056.17348-.05018.3105.00564.13795.27478.2462.5101.37928s1.41902.94764 1.41902.94764l-.00226-.07781h.00376c.00376-.02443.01542-.04436.03008-.0624l-.01692-.0156c.05357-.0654.13006-.1075.20618-.1372z" opacity=".5"/><path fill="#293644" d="M114.70433 22.56416c-.60858-.14566-1.22694-.24377-1.84755-.3105l-1.85939-.11803-1.85168-.00188-1.83684.08458-.91456.06916-.91062.0906-.90723.1152-.9033.14097-.45164.0812-.44656.08645-.5507.1154-.11277.02538-.2199.05074-1.74756.43079-1.72688.4804-1.70527.53058-1.67652.59768-1.63742.6879-1.57126.79315-.77341.40522-.76496.42909-.74729.46423-.7129.51818c-.22986.18363-.44844.3823-.64523.60144-.09773.10995-.1872.22667-.26877.34808-.07837.12255-.14603.25562-.19208.38718l.01203.00526.01165.00527c.1466-.24622.34508-.44357.56122-.62475s.45108-.33793.69072-.48905c.4819-.29827.99124-.55727 1.50736-.8048l.78187-.36237.79258-.3603.79315-.3695.78864-.3496.80104-.3304.8095-.31896 1.64645-.58979c1.10965-.37966 2.24074-.7129 3.38347-1.0215l1.72726-.4507.2169-.05489.2135-.05169.4385-.10337c.1466-.03609.29226-.06766.4366-.09642l.43417-.08965c.29057-.05958.58696-.10713.88073-.16164l.88806-.13626.89465-.11315.90065-.09247a45.95378 45.95378 0 0 1 1.81616-.12987c.6052-.02913 1.21604-.04567 1.82462-.04173.61028.00451 1.2198.0376 1.82556.09116.49656.04736.9905.11747 1.47616.21389-.16634.14998-.33963.29433-.52626.4289-.27666.19866-.56667.39093-.85517.59204l-.21295.1434c-.0703.04775-.14096.08928-.21182.1342a10.02525 10.02525 0 0 1-.4398.25317c-.30072.16164-.60708.30974-.9202.45108l-1.90544.83638c-.32046.14698-.62512.30222-.936.45258l-.92772.4462c-.30767.14848-.61647.28831-.9279.42326-.31012.1372-.62325.265-.93938.38097a11.78634 11.78634 0 0 1-.96061.31087c-.1607.047-.3244.08458-.48717.12443l-.49994.12141c-.33136.07988-.66159.16352-.98994.25937l-.5037.14397-.21276.05526c-.18739.05075-.3729.10713-.55633.1639l-.41913.1293-.26313.07518c-.32403.09623-.649.18288-.97452.27121l.97884-.25373.03082-.00752-1.00966.26125.55764-.1308.5601-.12744c.18663-.04172.37533-.07518.5629-.11277.18908-.03383.3759-.06334.56686-.0889a10.2602 10.2602 0 0 1 .56686-.05958 7.92585 7.92585 0 0 1 .28192-.01673c.09342-.00432.18702-.0047.28193-.00695.09304-.00094.1857.00075.27779.00432s.18382.01222.27478.01842c.053.00451.10563.01184.15788.01804-.35598.312-.77962.56329-1.22487.7691-.56385.2605-1.16529.45408-1.77049.61948-.60651.1639-1.22243.29376-1.84247.40353-.61892.109-1.23916.20637-1.86202.29564l-.9298.1327-.23267.0295-.22404.02256-.45785.03195c-.61159.03195-1.22693.02368-1.8466.0188-.30862-.00245-.61911-.00377-.93036.00187l-.45634.01034c-.1481.00019-.30072-.00677-.45428-.00996l-.46179-.00263c-.15487.00413-.31012.0079-.46649.0188-.156.0139-.31275.03044-.46894.06634-.07762.0188-.156.03853-.23117.06916s-.15262.07199-.2058.1372l.0169.0156.00564.00527c.12443-.0765.27967-.07255.42571-.07856.14848.00113.2979.0079.44732.02067l.44995.0406.45372.04323c.15299.01315.30598.02443.4648.03233.1669.00751.31275 0 .46668.00225.30448.0015.6114.0094.91907.01955.61648.0188 1.24047.0421 1.87443.02255.15844-.00413.31763-.01353.47645-.02518l.24358-.02256.23438-.02706.93843-.12311c.62625-.08401 1.2555-.17066 1.88552-.28794.62963-.11427 1.26076-.24997 1.88701-.42157.62738-.17235 1.248-.39037 1.84567-.67568.5943-.28794 1.17244-.65651 1.62201-1.16435l.23344-.26313-.34207-.06015c-.08082-.01447-.1607-.025-.24133-.03477l.15224-.02706c.17066-.03195.3417-.06259.51122-.10225.34057-.0748.6785-.1654 1.01117-.26914.33361-.10243.66422-.21746.9905-.3415a24.40719 24.40719 0 0 0 .96512-.39978c.31895-.13757.6319-.28756.94464-.43472l.93411-.443c.6208-.29 1.2602-.56667 1.88796-.88562.31482-.15826.62832-.32572.9328-.50803a10.2771 10.2771 0 0 0 .45183-.28587l.2214-.15356.21107-.15656c.26914-.20675.55502-.40447.83563-.61742.28192-.21163.56159-.43886.80856-.69616l.20712-.21558z"/><path fill="#e1eef4" d="M83.63676 29.01197c-.06146-.27948-.18701-.53002-.33493-.77003s-.32196-.46311-.50145-.68188c-.36312-.43492-.76458-.84164-1.17657-1.23916l-.62737-.59054-.63828-.59204-.63527-.60106-.63828-.58077-.65557-.5663-.66722-.5582-1.3773-1.07865c-.9328-.71045-1.90093-1.38388-2.88785-2.03738l-1.49646-.97264-.18889-.12066-.18795-.11653-.38342-.23682c-.1278-.08082-.2556-.15656-.3838-.2293l-.3834-.22216c-.25694-.14848-.52289-.2868-.7847-.43115l-.79935-.40973-.81345-.39019-.82585-.37214a46.06654 46.06654 0 0 0-1.68121-.69617c-.56611-.21858-1.1403-.42664-1.719-.61516-.5802-.18795-1.16904-.35146-1.76109-.48998-.48791-.11183-.98016-.20148-1.47315-.26313.1109.19547.23437.38642.3697.574.19979.27553.41349.54975.624.83149l.15712.20298c.05206.06767.106.12969.15882.19435.10788.1278.22178.2556.33737.37909.23305.24772.47795.48548.73112.71853l1.54401 1.39497c.25787.24057.4975.48378.74522.72473l.73752.7161c.2449.23794.4943.46836.7471.69428.25091.2278.50747.44807.7706.65782a11.7262 11.7262 0 0 0 .81344.59825c.13796.0951.28155.18269.4229.27196l.43603.27253c.28945.18043.57588.36425.85743.55896l.49337.33775c.04079.02631.08345.05075.12367.07762a15.06607 15.06607 0 0 1 .47646.3308l.36199.2588.22046.15262c.27723.19321.55821.37834.8392.56479l-.48792-.30035-.49111-.29752c-.16408-.0983-.33211-.19171-.499-.28475-.16804-.0921-.33832-.1793-.50973-.26313a10.32597 10.32597 0 0 0-.51893-.2355c-.08683-.03683-.17423-.07142-.26238-.10487s-.1761-.06334-.2635-.09473-.17668-.05789-.26313-.08364-.17818-.04698-.26652-.06916c-.05168-.0126-.10375-.02218-.15543-.0327.23926.40785.56234.78036.91945 1.11642.45108.42476.9608.79803 1.48405 1.1465.52344.34695 1.06756.66458 1.62126.96455.55257.29809 1.11078.58678 1.67332.86795l.84089.4195.21106.1015.20581.0921.42402.17517c.57042.22366 1.1574.4101 1.74643.60087l.88223.29508.42985.15412c.14002.047.287.08834.43378.13382l.43887.14341c.14566.05263.29207.10525.4366.16671.14322.06202.28682.1278.42402.21088.06823.0406.1357.0857.19735.13908.0624.05188.12217.11653.15036.1951l-.02105.0094c.00827.0218.01315.04435.00846.06878l.00375.00094-.0263.0733 1.64606-.45108c.265-.05187.55445-.06991.60144-.19885s.05074-.30918.05074-.31068l.00376-.00037z" opacity=".5"/><path fill="#293644" d="M83.60274 28.58194a3.19515 3.19515 0 0 0-.14547-.415c-.1171-.26989-.26182-.52757-.42214-.77435l-.5131-.71646-.56385-.67662-.5911-.64843-.60614-.6285-1.24047-1.24875-1.3367-1.1696-1.40211-1.09576-1.4506-1.04162-1.48668-1.00083-1.52278-.95854-.19227-.11729-.10074-.0607-.48623-.28306-.3962-.22253-.40334-.2199-.81232-.41856-.82472-.39583-.83563-.37364-.84577-.35429-1.71598-.6597-1.75677-.58471-1.80113-.47458c-.6097-.13288-1.22787-.23494-1.8513-.28869l-.30148-.02594.12819.27009c.15317.32214.34658.62587.5475.91588l.74916 1.06473.16164.2154.33869.41386.72454.77661c.49506.50051 1.01493.96494 1.51244 1.43631l.74578.71515.7597.71083c.25805.23268.52062.46198.78901.68414.27027.22046.54769.4336.83205.63602a12.1846 12.1846 0 0 0 .87454.57475c.14791.09097.30072.17423.45258.25843l.13608.0733a4.60665 4.60665 0 0 0-.24002-.04285l-.34282-.05074.13796.32365c.26576.62361.6986 1.15589 1.17168 1.61637.47664.45953.99745.86269 1.53743 1.22393.54054.3601 1.0965.6879 1.65828.99557.5601.30974 1.13052.59054 1.69775.86833l.8518.41349.21388.0996.22554.09774c.14754.06127.29546.1203.44469.17442.59543.21859 1.19423.39357 1.78553.57043l.8781.27159c.1466.0466.28267.09961.44356.1451.153.04285.30185.08044.45052.11596l.4445.10243a13.47977 13.47977 0 0 1 .4398.10319 5.84149 5.84149 0 0 1 .43116.1216c.13664.05169.28512.09717.37928.209l.00752-.00338.02105-.0094c-.03007-.07856-.08984-.14322-.15036-.1951-.06165-.05318-.12912-.09829-.19735-.13907-.1372-.0827-.2808-.14849-.42401-.21088-.14472-.06146-.29095-.1139-.43661-.16672l-.43886-.1434-.4338-.13382-.42983-.15412a33.0341 33.0341 0 0 0-.88224-.29527c-.58904-.19077-1.176-.3774-1.74643-.60088l-.42402-.17517-.2058-.0921-.21107-.10149-.84089-.4195c-.56235-.28136-1.12075-.56986-1.67332-.86795-.55389-.29997-1.09763-.6178-1.62126-.96456-.52325-.34846-1.03109-.72173-1.48405-1.1465-.3571-.33586-.68-.7082-.91945-1.11642.05169.01053.10375.01992.15543.0327.08834.02256.178.04323.26652.06917s.17705.05319.26313.08364l.2635.09472c.08834.03346.17555.06804.26238.10488a10.32597 10.32597 0 0 1 .51893.2355 13.19597 13.19597 0 0 1 .50972.26313l.499.28475.49112.29752.48792.30034-.8392-.56479-.22046-.15261-.362-.2588-.47645-.3308c-.04022-.02688-.0827-.05112-.12367-.07762l-.49337-.33775c-.28155-.19472-.56817-.37834-.85742-.55896l-.43605-.27253c-.14152-.08928-.28512-.17667-.42289-.27196a11.7262 11.7262 0 0 1-.81344-.59825 16.02086 16.02086 0 0 1-.7706-.65801c-.25298-.22592-.5022-.45634-.7471-.69429l-1.48292-1.44064c-.50991-.48058-1.03786-.93129-1.54401-1.39496-.25298-.23306-.49807-.47082-.73113-.71853-.11578-.1233-.2293-.25148-.33737-.3791l-.15882-.19434-.15712-.20299-.624-.83149c-.13532-.18757-.259-.37853-.3697-.574.493.06203.98524.1515 1.47316.26313.59204.13871 1.18089.30185 1.76109.48999.57888.18833 1.15307.39657 1.71899.61516.56704.22216 1.1277.45352 1.68121.69617.27854.1184.55107.24884.82585.37214.27328.12592.54243.2605.81345.39018l.79935.40973.7847.43116.38341.22216c.12818.07273.25618.14848.3838.2293l.38341.23681.18795.11653.1889.12067 1.49645.97264c.98674.6535 1.95506 1.32692 2.88785 2.03738.46537.35334.9251.71233 1.37693 1.0792l.66722.55822c.22366.18419.43848.37665.65557.56629l.63828.58077.63527.60106.63827.59204.62738.59054c.41199.39751.81383.80405 1.17657 1.23916.1795.21896.3541.44224.50145.68188s.27347.49055.33493.77003l.0188-.00188.00901-.00075c-.0015-.13965-.02405-.28681-.0592-.42778z"/></svg>