<svg xmlns="http://www.w3.org/2000/svg" role="img" xmlns:xlink="http://www.w3.org/1999/xlink" viewBox="-9.54 -9.29 249.08 60.08"><title>Workload Automation 7® logo</title><path d="M232.506 4.298c-1.06 0-1.93-.86-1.93-1.92s.87-1.93 1.93-1.93 1.93.87 1.93 1.93-.87 1.92-1.93 1.92m0-4.32c-1.32 0-2.4 1.08-2.4 2.4 0 1.32 1.08 2.4 2.4 2.4 1.32 0 2.4-1.08 2.4-2.4 0-1.32-1.08-2.4-2.4-2.4"/><path d="M232.666 2.278l-.51.01-.01-.62h.51c.19-.01.34.11.34.3.01.19-.14.31-.33.31m.83-.32c-.01-.42-.3-.72-.77-.72l-1.07.02.03 2.26h.49l-.01-.81h.35l.46.8.55-.01-.52-.86c.24-.06.49-.28.49-.68M47.0201 18.3885h-5.999V4.5545h5.835c1.574 0 2.557 1.016 2.557 2.393 0 1.377-.983 2.36-2.557 2.36H40.186v4h6.8341c1.836 0 2.819 1.18 2.819 2.556 0 1.574-1.049 2.525-2.819 2.525m3.376-7.245c2.066-.426 3.771-2.262 3.771-5.015 0-2.918-2.131-5.573-6.295-5.573h-11.506v21.865h11.867c4.163 0 6.359-2.623 6.359-5.901 0-2.754-1.868-5.015-4.196-5.376m17.8225-.5902H63.186v4.098h3.5576l4.294 7.769h5.343l-4.917-8.327c2.361-.557 4.786-2.622 4.786-6.49m0 0c0-4.065-2.786-7.048-7.343-7.048h-10.228v21.865h4.655V4.6533h4.885c1.869 0 3.278 1.114 3.278 2.95s-1.409 2.95-3.278 2.95m43.4206 4.0652l3.409-9.408 3.41 9.408zm.492-14.063l-8.458 21.865h5.31l1.377-3.704h9.376l1.344 3.704h5.311l-8.425-21.865zm26.9039 17.7671h-3.967v-13.67h3.967c4.491 0 6.851 2.983 6.851 6.852 0 3.704-2.524 6.818-6.851 6.818m0-17.767h-8.622v21.865h8.622c6.851 0 11.604-4.327 11.604-10.916s-4.753-10.949-11.604-10.949M221.162.5511l-5.734 9.27-5.734-9.27h-5.146v21.869h4.656V8.1271l5.012 7.622c.574.871 1.851.871 2.424 0l5.013-7.622v14.293h4.656V.5511z"/><path id="a" d="M91.0113 18.5521c-3.871 0-7.008-3.138-7.008-7.008 0-3.871 3.137-7.009 7.008-7.009 3.87 0 7.008 3.138 7.008 7.009 0 3.87-3.138 7.008-7.008 7.008m0-18.536c-6.367 0-11.528 5.161-11.528 11.528 0 6.366 5.161 11.527 11.528 11.527 6.366 0 11.528-5.161 11.528-11.527 0-6.367-5.162-11.528-11.528-11.528"/><path d="M171.5895 14.9349c-1.195 2.156-3.492 3.617-6.132 3.617-3.87 0-7.008-3.138-7.008-7.008 0-3.871 3.138-7.008 7.008-7.008 2.618 0 4.897 1.438 6.1 3.565l3.27-3.269c-2.092-2.915-5.508-4.816-9.37-4.816-6.367 0-11.527 5.161-11.527 11.528 0 6.366 5.16 11.528 11.527 11.528 3.883 0 7.316-1.922 9.404-4.865z"/><use transform="translate(98.718)" xlink:href="#a"/><ellipse cx="11.706" cy="11.705" fill="#cc092f" rx="16.236" ry="16.235"/><path fill="#fff" d="M26.0113 16.0912c-1.857-.74-3.557-.492-5.261.541 0 0-.621.379-.807.496-.794.498-1.543.97-2.263.97-.687 0-1.363-.184-1.649-1.513-.446-2.073-1.534-7.167-2.009-9.69-.279-1.483-.432-2.282-.591-2.825-.28-.954-.792-1.473-1.519-1.556 0 0-.114-.016-.207-.016-.092 0-.218.018-.218.018-.72.086-1.229.605-1.507 1.554-.159.543-.312 1.342-.591 2.825-.475 2.523-1.563 7.617-2.009 9.69-.286 1.329-.962 1.513-1.649 1.513-.72 0-1.469-.472-2.263-.97-.186-.117-.808-.496-.808-.496-1.703-1.033-3.404-1.281-5.26-.541-.401.16-.79596.33918-1.17196.52018.257.806.57693 1.59925.94993 2.34425.411-.202.84203-.40243 1.28203-.53243.634-.187 1.284-.197 1.914.014.612.205 1.157.568 1.7.909 1.023.643 2.182 1.372 3.657 1.372 2.186 0 3.72-1.305 4.21-3.581.38-1.764 1.222-5.702 1.763-8.418 0 0 1.386 6.654 1.765 8.418.49 2.276 2.025 3.581 4.211 3.581 1.475 0 2.634-.729 3.657-1.372.543-.341 1.088-.704 1.7-.909.629-.211 1.28-.201 1.914-.014.44.13.87039.33065 1.28139.53265.374-.745.69309-1.53862.95009-2.34462-.376-.181-.77048-.36003-1.17148-.52003"/><path d="M65.01836 37.9375l-1.88964 7.2705h-1.08887l-1.52832-6.03516-1.49414 6.03516h-1.06446l-1.92382-7.2705h.9912l1.52833 6.04491 1.5039-6.04492h.98145l1.51855 6.10352 1.51856-6.10352zm5.5127 4.5459q0 1.333-.6836 2.10448-.68359.77149-1.83105.77149-1.15723 0-1.84082-.77149-.67871-.77148-.67871-2.10449 0-1.333.67871-2.1045.6836-.77636 1.84082-.77636 1.14746 0 1.83106.77637.68359.77148.68359 2.1045zm-.94727 0q0-1.05958-.41503-1.57228-.41504-.51757-1.15235-.51757-.74707 0-1.1621.51758-.41016.51269-.41016 1.57226 0 1.0254.41503 1.55762.41504.52734 1.15723.52734.73242 0 1.14746-.52246.41992-.52734.41992-1.5625zm5.77149-1.72853h-.04883q-.20508-.04882-.4004-.06835-.19042-.02442-.4541-.02442-.4248 0-.8203.19043-.39551.18555-.76173.4834V45.208h-.91796v-5.4541h.91796v.80566q.54688-.43945.96192-.62012.41992-.18554.8545-.18554.23925 0 .34667.01465.10742.0098.32227.04395zM81.1707 45.208h-1.21094l-2.1875-2.3877-.5957.56641V45.208h-.91797v-7.59766h.91797v4.87305l2.65136-2.7295h1.15723l-2.53418 2.51954zm1.89453 0h-.91797v-7.59766h.91797zm6.46484-2.7246q0 1.333-.6836 2.10448-.68358.77149-1.83105.77149-1.15722 0-1.84082-.77149-.6787-.77148-.6787-2.10449 0-1.333.6787-2.1045.6836-.77636 1.84082-.77636 1.14747 0 1.83106.77637.6836.77148.6836 2.1045zm-.94726 0q0-1.05958-.41504-1.57228-.41504-.51757-1.15235-.51757-.74707 0-1.1621.51758-.41016.51269-.41016 1.57226 0 1.0254.41504 1.55762.41504.52734 1.15722.52734.73243 0 1.14747-.52246.41992-.52734.41992-1.5625zm6.60644 2.7246h-.91308v-.58105q-.12207.083-.33204.23437-.20507.14649-.40039.23438-.22949.1123-.52734.18554-.29785.07813-.69824.07813-.7373 0-1.25-.48828t-.5127-1.24512q0-.62011.26367-1.00097.26856-.38574.76172-.60547.49805-.21973 1.1963-.29785.69823-.07813 1.49902-.11719v-.1416q0-.3125-.1123-.51758-.10743-.20508-.3125-.32227-.19532-.1123-.46876-.15136t-.57129-.03906q-.36133 0-.80566.09766-.44434.09277-.91797.27343h-.04883v-.93261q.26855-.07324.77637-.16114.5078-.08789 1.00097-.08789.57618 0 1.00098.09766.42969.09277.74219.32227.30761.2246.46875.58105.16113.35645.16113.8838zm-.91308-1.34277v-1.51856q-.41993.02441-.99121.07324-.56641.04883-.89844.1416-.39551.1123-.63965.35157-.24414.23437-.24414.64941 0 .46875.2832.708.2832.23438.86426.23438.4834 0 .88379-.18554.40039-.19043.74219-.4541zm7.10449 1.34277h-.91797v-.57129q-.39551.3418-.8252.53223-.42968.19043-.93261.19043-.97657 0-1.55274-.75196-.57129-.75195-.57129-2.08496 0-.69336.19532-1.23535.2002-.54199.5371-.92285.33204-.3711.77149-.5664.44434-.19532.91797-.19532.42969 0 .76172.09277.33203.0879.69824.27832v-2.36328h.91797zm-.91797-1.34277v-3.12989q-.37109-.16601-.66406-.22949-.29297-.06348-.63965-.06348-.77148 0-1.20117.53711t-.42969 1.52344q0 .97168.33203 1.4795.33203.50292 1.06445.50292.39063 0 .79102-.1709.40039-.17578.74707-.44922zm12.0459 1.34277h-1.03028l-.71289-2.02637h-3.14453l-.71289 2.02637h-.98144l2.64648-7.2705h1.28906zm-2.04102-2.85644l-1.27441-3.56934-1.2793 3.56933zm7.54395 2.85644h-.91797v-.60547q-.46387.36621-.88867.56152-.42481.19532-.9375.19532-.85938 0-1.33789-.52246-.47852-.52735-.47852-1.54297V39.7539h.91797v3.10547q0 .41504.0391.71289.0391.29297.16602.50293.13183.21484.34179.3125.20997.09766.61036.09766.35644 0 .77636-.18555.42481-.18555.79102-.47363V39.7539h.91797zm4.63867-.04883q-.25879.06836-.56641.1123-.30273.04395-.54199.04395-.83496 0-1.26953-.44921-.43457-.44922-.43457-1.44043v-2.9004h-.62012v-.77148h.62012v-1.56738h.91797v1.56738h1.89453v.77149h-1.89453v2.48535q0 .42968.0195.67383.0195.23925.13672.44921.10742.19532.29297.28809.19043.08789.57617.08789.22461 0 .46875-.06348.24414-.06836.35156-.1123h.0488zm5.75684-2.67578q0 1.333-.6836 2.1045-.68359.77147-1.83105.77147-1.15723 0-1.84082-.77148-.67871-.77148-.67871-2.1045 0-1.333.67871-2.10448.68359-.77637 1.84082-.77637 1.14746 0 1.83105.77637.6836.77148.6836 2.10449zm-.94727 0q0-1.05957-.41504-1.57227-.41504-.51758-1.15234-.51758-.74707 0-1.16211.51758-.41016.5127-.41016 1.57227 0 1.02539.41504 1.55762.41504.52734 1.15723.52734.73242 0 1.14746-.52246.41992-.52735.41992-1.5625zm10.32715 2.72461h-.91797v-3.10547q0-.35156-.0342-.67871-.0293-.32715-.13184-.52246-.1123-.20996-.32226-.31738-.20996-.10742-.60547-.10742-.38574 0-.77148.1953-.38575.19044-.77149.48829.0147.1123.0244.26367.01.14649.01.29297V45.208h-.91797v-3.10547q0-.36133-.0342-.6836-.0293-.32714-.13183-.52245-.11231-.20996-.32227-.3125-.20996-.10742-.60547-.10742-.37597 0-.75683.18554-.37598.18555-.75196.47363V45.208h-.91797v-5.4541h.91797v.60547q.42969-.35645.8545-.55664.42968-.2002.91308-.2002.55664 0 .94238.23438.39063.23437.58106.64941.55664-.46875 1.01562-.67383.45899-.20996.98145-.20996.89844 0 1.32324.54688.42969.54199.42969 1.51855zm6.00586 0h-.91309v-.58105q-.12207.083-.33203.23437-.20508.14649-.40039.23438-.22949.1123-.52734.18554-.29786.07813-.69825.07813-.7373 0-1.25-.48828-.51269-.48828-.51269-1.24512 0-.62011.26367-1.00097.26856-.38574.76172-.60547.49805-.21973 1.19629-.29785.69824-.07813 1.49902-.11719v-.1416q0-.3125-.1123-.51758-.10742-.20508-.3125-.32227-.19532-.1123-.46875-.15136-.27344-.03906-.57129-.03906-.36133 0-.80567.09766-.44433.09277-.91796.27343h-.0488v-.93261q.26855-.07324.77636-.16114.50782-.08789 1.00098-.08789.57617 0 1.00098.09766.42969.09277.74219.32227.30761.2246.46875.58105.16113.35645.16113.8838zm-.91309-1.34277v-1.51856q-.41992.02441-.99121.07324-.56641.04883-.89844.1416-.3955.1123-.63964.35157-.24415.23437-.24415.64941 0 .46875.28321.708.2832.23438.86426.23438.48339 0 .88378-.18554.4004-.19043.74219-.4541zm5.5127 1.29394q-.25879.06836-.56641.1123-.30273.04396-.54199.04396-.83496 0-1.26953-.44922t-.43457-1.44043v-2.9004h-.62012v-.77148h.62012v-1.56738h.91797v1.56738h1.89453v.77149h-1.89453v2.48535q0 .42969.0195.67383.0195.23925.13672.44922.10742.1953.29296.28808.19043.0879.57618.0879.22461 0 .46875-.06349.24414-.06836.35156-.1123h.0488zm2.09472-6.31836h-1.03515v-.95215h1.03515zm-.0586 6.36719h-.91797v-5.4541h.91797zm6.46484-2.7246q0 1.333-.68359 2.10448-.68359.77149-1.83105.77149-1.15723 0-1.84082-.77149-.67872-.77148-.67872-2.10449 0-1.333.67872-2.1045.68359-.77636 1.84082-.77636 1.14746 0 1.83105.77637.68359.77148.68359 2.1045zm-.94726 0q0-1.05958-.41504-1.57228-.41504-.51757-1.15234-.51757-.74707 0-1.16211.51758-.41016.51269-.41016 1.57226 0 1.0254.41504 1.55762.41504.52734 1.15723.52734.73242 0 1.14746-.52246.41992-.52734.41992-1.5625zm6.92871 2.7246h-.91797v-3.10547q0-.37598-.0439-.70312-.0439-.33204-.16114-.51758-.12207-.20508-.35156-.30274-.22949-.10254-.5957-.10254-.37598 0-.78614.18555-.41015.18555-.78613.47363V45.208h-.91797v-5.4541h.91797v.60547q.42969-.35645.88867-.55664.45899-.2002.94239-.2002.88378 0 1.34765.53223.46387.53222.46387 1.5332zm10.10742-6.18164l-3.29101 6.18164h-1.04493l3.50098-6.41601h-4.14062v-.8545h4.97558zm9.85352 2.9834q0 1.74804-1.24024 2.98828-1.23535 1.23535-2.9834 1.23535-1.74804 0-2.98828-1.23535-1.23535-1.24024-1.23535-2.98828 0-1.74805 1.23535-2.9834 1.24024-1.24023 2.98828-1.24023 1.74805 0 2.9834 1.24023 1.24024 1.23535 1.24024 2.9834zm-.56641 0q0-1.51367-1.07422-2.59766-1.06933-1.08398-2.58301-1.08398-1.51367 0-2.58789 1.08398-1.06933 1.08399-1.06933 2.59766 0 1.51367 1.06933 2.59765 1.07422 1.08399 2.58789 1.08399 1.51368 0 2.58301-1.08399 1.07422-1.08398 1.07422-2.59765zm-.9375 2.14843h-1.08887l-1.61621-1.7334h-.79101v1.7334h-.80567v-4.46777h1.52344q.45898 0 .75684.03906.29785.03906.58593.19043.30762.16602.44922.40527.14649.23438.14649.59082 0 .47364-.27832.79102-.27344.3125-.75684.49805zm-1.71875-3.18847q0-.17578-.0684-.3125t-.22949-.22461q-.15137-.08301-.32227-.10742t-.42968-.02441h-.72754v1.50879h.62011q.30274 0 .52246-.04395.21973-.04883.36133-.16114.15137-.12207.20996-.26855.0635-.14649.0635-.36621z" text-anchor="middle"/></svg>