<svg xmlns="http://www.w3.org/2000/svg" role="img" viewBox="-5.65 78.85 410.54 118.79"><title>zECS logo</title><defs><clipPath id="a"><path fill="none" d="M-470.034-286.856H869.468v820.445H-470.034z"/></clipPath></defs><path fill="none" d="M-1 1h400v245H-1z"/><g clip-path="url(#a)"><path fill="#2b284d" d="M218.607 122.278a5.696 5.696 0 0 1-.204 1.65 5.78 5.78 0 0 1-5.555 3.899 3.76 3.76 0 0 1-4.096-4.032c0-4.19 4.598-5.348 9.855-5.318zm8.7-7.294c0-6.901-2.95-12.98-12.912-12.98a23.592 23.592 0 0 0-11.393 2.72l1.618 5.549a16.722 16.722 0 0 1 8.318-2.338c5.05-.013 5.88 2.863 5.88 4.705v.439c-11.03-.017-18 3.797-18 11.573 0 4.749 3.55 9.2 9.732 9.2a11.045 11.045 0 0 0 8.864-3.942h.191s1.253 5.27 8.191 3.255a44.461 44.461 0 0 1-.489-7.344zm40.547-5.03v-7.758h-7.17v-9.591h-8.127v29.92c0 4.126.784 7.016 2.448 8.781a9.14 9.14 0 0 0 6.7 2.545 19.566 19.566 0 0 0 5.962-.884l-.11-6.436a12.414 12.414 0 0 1-3.122.372c-2.81 0-3.75-1.795-3.75-5.5v-11.448zm-28.873-1.513h-.217v-5.75h-7.471v30.474h8.505v-15.602a11.034 11.034 0 0 1 .188-2.25 6.41 6.41 0 0 1 6.718-5.358 15.527 15.527 0 0 1 2.447.217v-7.976a8.352 8.352 0 0 0-1.868-.191 8.993 8.993 0 0 0-8.302 6.436zm-51.169-6.436a11.009 11.009 0 0 0-6.01 1.657 12.87 12.87 0 0 0-3.862 3.791h-.124a8.679 8.679 0 0 0-8.392-5.448 9.569 9.569 0 0 0-8.867 4.829h-.124v-4.143h-7.863v30.474h8.285v-17.872a7.013 7.013 0 0 1 .392-2.492 5.588 5.588 0 0 1 5.023-3.905c3.342 0 4.909 2.823 4.909 6.902v17.367h8.271v-18.087a8.414 8.414 0 0 1 .345-2.471 5.21 5.21 0 0 1 4.973-3.71c3.376 0 5.007 2.776 5.007 7.574v16.694h8.268v-17.946c0-9.467-4.802-13.214-10.23-13.214zm-61.44 20.273a5.696 5.696 0 0 1-.204 1.65 5.786 5.786 0 0 1-5.569 3.899 3.756 3.756 0 0 1-4.082-4.032c0-4.19 4.602-5.348 9.856-5.318zm8.704-7.294c0-6.901-2.95-12.98-12.916-12.98a23.618 23.618 0 0 0-11.396 2.72l1.621 5.549a16.709 16.709 0 0 1 8.315-2.338c5.053-.013 5.884 2.863 5.884 4.705v.439c-11.031-.017-17.99 3.797-17.99 11.573 0 4.749 3.547 9.2 9.705 9.2a11.028 11.028 0 0 0 8.867-3.942h.188s1.27 5.27 8.208 3.255a44.854 44.854 0 0 1-.486-7.344zm-32.737-22.38l-3.66 17.535c-.985 5.103-1.872 9.095-2.562 13.763h-.124c-.623-4.624-1.42-8.452-2.418-13.425l-3.808-17.872H80.75l-4.072 17.42c-1.152 5.294-2.233 9.57-2.92 14.081h-.124c-.703-4.246-1.64-9.62-2.655-14.744 0 0-2.418-12.464-3.265-16.757H58.6s7.2 29.509 8.351 34.298c1.34 5.589 3.754 7.652 10.726 6.262l4.494-18.301c1.142-4.541 1.906-7.78 2.64-12.404h.13a120.7 120.7 0 0 0 2.183 12.424s1.832 8.305 2.766 12.668c.945 4.36 3.557 7.106 10.385 5.613l10.712-40.56zm37.224 40.56h8.235v-40.56h-8.235zm153.718-40.559h-7.759v40.637h24.342v-6.42h-16.583V92.605m35.879 29.673a5.583 5.583 0 0 1-.208 1.65 5.776 5.776 0 0 1-5.552 3.899 3.758 3.758 0 0 1-4.096-4.032c0-4.19 4.595-5.348 9.856-5.318zm8.7-7.294c0-6.901-2.95-12.98-12.913-12.98a23.592 23.592 0 0 0-11.392 2.72l1.614 5.549a16.732 16.732 0 0 1 8.318-2.338c5.053-.013 5.884 2.863 5.884 4.705v.439c-11.031-.017-18 3.797-18 11.573 0 4.749 3.547 9.2 9.728 9.2a11.047 11.047 0 0 0 8.868-3.942h.187s1.256 5.27 8.191 3.255a44.853 44.853 0 0 1-.485-7.344v-10.837m19.905 12.87a7.162 7.162 0 0 1-6.915-5.318 8.133 8.133 0 0 1-.191-1.788v-4.886a8.834 8.834 0 0 1 .254-1.98 7.265 7.265 0 0 1 6.916-5.565c5.204 0 7.806 4.33 7.806 9.644 0 6.062-2.98 9.893-7.87 9.893zm2.92-25.47c-4.631 0-7.993 1.915-9.899 4.821h-.127V92.82h-7.806v31.884c0 .917.013 1.62.023 2.226a41.476 41.476 0 0 1-.468 6.152c6.178 1.795 7.993-2.177 8.318-3.07a10.862 10.862 0 0 0 8.817 3.84c6.979 0 14.025-5.378 14.025-16.198.06-9.148-5.332-15.27-12.883-15.27m28.19 12.798c-3.935-1.36-5.395-2.29-5.395-4.206 0-1.855 1.524-3.155 4.313-3.155a14.122 14.122 0 0 1 6.537 1.735l1.524-5.378a18.535 18.535 0 0 0-8.185-1.795c-7.173 0-11.677 4.143-11.677 9.46-.063 3.523 2.475 6.738 8.506 8.777 3.804 1.3 5.073 2.348 5.073 4.39 0 1.98-1.523 3.34-4.95 3.34a17.803 17.803 0 0 1-7.932-2.164l-1.52 5.502a20.368 20.368 0 0 0 9.39 2.1c8.184 0 12.564-3.955 12.564-9.397-.064-4.45-2.666-7.233-8.248-9.209M9.699 126.42l9.728-36.186h1.447l-9.36 34.787h20.558a.702.702 0 0 1 .7.7.7.7 0 0 1-.7.7zm34.94-7.916H21.216l8.452-31.763H12.461l-9.815 36.917c-1.466 5.552 2.033 10.093 7.776 10.096h10.676L14.27 159.61a.304.304 0 0 0 .536.261l30.433-40.155a.755.755 0 0 0-.6-1.212"/></g><path d="M211.227 159.662c-2.136 0-4.082.332-5.84.996-1.745.664-3.236 1.628-4.473 2.89-1.276 1.303-2.253 2.898-2.93 4.786-.677 1.888-1.015 4.03-1.015 6.426 0 2.526.351 4.746 1.054 6.66.704 1.901 1.68 3.47 2.93 4.707a11.841 11.841 0 0 0 4.492 2.793c1.732.586 3.653.879 5.762.879 1.12 0 2.142-.091 3.066-.274a21.537 21.537 0 0 0 2.598-.625c.938-.3 1.693-.586 2.266-.859a85.665 85.665 0 0 1 1.953-.879v-4.531h-.274c-1.419 1.276-2.942 2.233-4.57 2.87-1.628.639-3.372.958-5.234.958-1.354 0-2.644-.228-3.867-.684a8.62 8.62 0 0 1-3.184-2.148c-.872-.925-1.589-2.122-2.149-3.594-.546-1.471-.82-3.229-.82-5.273 0-1.953.248-3.672.742-5.156.508-1.498 1.211-2.735 2.11-3.711.924-1.003 1.972-1.739 3.144-2.207 1.185-.482 2.513-.723 3.985-.723 1.797 0 3.483.306 5.058.918 1.576.612 3.164 1.588 4.766 2.93h.293v-4.59c-1.901-.95-3.633-1.615-5.195-1.992a19.65 19.65 0 0 0-4.668-.567zm25.175 0c-3.164 0-5.774.781-7.832 2.344-2.057 1.55-3.086 3.542-3.086 5.976 0 2.123.619 3.848 1.856 5.176 1.25 1.315 3.164 2.246 5.742 2.793 1.276.26 2.48.475 3.613.645a28.6 28.6 0 0 1 3.184.644c1.289.339 2.246.814 2.871 1.426.638.612.957 1.563.957 2.852 0 1.497-.67 2.695-2.012 3.593-1.328.899-3.19 1.348-5.586 1.348-1.692 0-3.502-.332-5.43-.996-1.926-.664-3.626-1.608-5.097-2.832h-.273v4.844a28.788 28.788 0 0 0 5.097 1.738c1.68.39 3.568.586 5.664.586 1.953 0 3.62-.235 5-.703 1.394-.469 2.611-1.12 3.653-1.953a7.89 7.89 0 0 0 2.207-2.813c.534-1.107.8-2.226.8-3.36 0-2.083-.546-3.704-1.64-4.863-1.094-1.158-2.722-2.024-4.883-2.597-1.068-.274-2.37-.54-3.906-.801a81.53 81.53 0 0 1-3.555-.664c-1.575-.365-2.676-.892-3.3-1.582-.626-.69-.938-1.64-.938-2.852 0-1.354.625-2.46 1.875-3.32 1.263-.86 2.93-1.289 5-1.289 1.888 0 3.73.312 5.527.937 1.81.612 3.268 1.387 4.375 2.325h.274v-4.57c-1.316-.574-2.826-1.055-4.532-1.446-1.705-.39-3.58-.586-5.625-.586zm-63.086.527v29.082h19.16v-3.437h-15.292v-10.8h15.293v-3.438h-15.293v-7.97h15.293v-3.437zm-22.832 7.266v3.066h12.442l-12.715 16.036v2.714h17.617v-3.105h-13.105l12.773-16.094v-2.617z"/></svg>