<svg xmlns="http://www.w3.org/2000/svg" role="img" viewBox="-5.65 78.85 410.54 114.04"><title>zFAM logo</title><defs><clipPath id="a"><path fill="none" d="M-470.034-286.856H869.468v820.445H-470.034z"/></clipPath></defs><path fill="#fff" fill-opacity="0" d="M-1 1h400v245H-1z"/><g clip-path="url(#a)"><path fill="#2b284d" d="M218.607 122.278a5.696 5.696 0 0 1-.204 1.65 5.78 5.78 0 0 1-5.555 3.899 3.76 3.76 0 0 1-4.096-4.032c0-4.19 4.598-5.348 9.855-5.318zm8.7-7.294c0-6.901-2.95-12.98-12.912-12.98a23.592 23.592 0 0 0-11.393 2.72l1.618 5.549a16.722 16.722 0 0 1 8.318-2.338c5.05-.013 5.88 2.863 5.88 4.705v.439c-11.03-.017-18 3.797-18 11.573 0 4.749 3.55 9.2 9.732 9.2a11.045 11.045 0 0 0 8.864-3.942h.191s1.253 5.27 8.191 3.255a44.461 44.461 0 0 1-.489-7.344zm40.547-5.03v-7.758h-7.17v-9.591h-8.127v29.92c0 4.126.784 7.016 2.448 8.781a9.14 9.14 0 0 0 6.7 2.545 19.566 19.566 0 0 0 5.962-.884l-.11-6.436a12.414 12.414 0 0 1-3.122.372c-2.81 0-3.75-1.795-3.75-5.5v-11.448zm-28.873-1.513h-.217v-5.75h-7.471v30.474h8.505v-15.602a11.034 11.034 0 0 1 .188-2.25 6.41 6.41 0 0 1 6.718-5.358 15.527 15.527 0 0 1 2.447.217v-7.976a8.352 8.352 0 0 0-1.868-.191 8.993 8.993 0 0 0-8.302 6.436zm-51.169-6.436a11.009 11.009 0 0 0-6.01 1.657 12.87 12.87 0 0 0-3.862 3.791h-.124a8.679 8.679 0 0 0-8.392-5.448 9.569 9.569 0 0 0-8.867 4.829h-.124v-4.143h-7.863v30.474h8.285v-17.872a7.013 7.013 0 0 1 .392-2.492 5.588 5.588 0 0 1 5.023-3.905c3.342 0 4.909 2.823 4.909 6.902v17.367h8.271v-18.087a8.414 8.414 0 0 1 .345-2.471 5.21 5.21 0 0 1 4.973-3.71c3.376 0 5.007 2.776 5.007 7.574v16.694h8.268v-17.946c0-9.467-4.802-13.214-10.23-13.214zm-61.44 20.273a5.696 5.696 0 0 1-.204 1.65 5.786 5.786 0 0 1-5.569 3.899 3.756 3.756 0 0 1-4.082-4.032c0-4.19 4.602-5.348 9.856-5.318zm8.704-7.294c0-6.901-2.95-12.98-12.916-12.98a23.618 23.618 0 0 0-11.396 2.72l1.621 5.549a16.709 16.709 0 0 1 8.315-2.338c5.053-.013 5.884 2.863 5.884 4.705v.439c-11.031-.017-17.99 3.797-17.99 11.573 0 4.749 3.547 9.2 9.705 9.2a11.028 11.028 0 0 0 8.867-3.942h.188s1.27 5.27 8.208 3.255a44.854 44.854 0 0 1-.486-7.344zm-32.737-22.38l-3.66 17.535c-.985 5.103-1.872 9.095-2.562 13.763h-.124c-.623-4.624-1.42-8.452-2.418-13.425l-3.808-17.872H80.75l-4.072 17.42c-1.152 5.294-2.233 9.57-2.92 14.081h-.124c-.703-4.246-1.64-9.62-2.655-14.744 0 0-2.418-12.464-3.265-16.757H58.6s7.2 29.509 8.351 34.298c1.34 5.589 3.754 7.652 10.726 6.262l4.494-18.301c1.142-4.541 1.906-7.78 2.64-12.404h.13a120.7 120.7 0 0 0 2.183 12.424s1.832 8.305 2.766 12.668c.945 4.36 3.557 7.106 10.385 5.613l10.712-40.56zm37.224 40.56h8.235v-40.56h-8.235zm153.718-40.559h-7.759v40.637h24.342v-6.42h-16.583V92.605m35.879 29.673a5.583 5.583 0 0 1-.208 1.65 5.776 5.776 0 0 1-5.552 3.899 3.758 3.758 0 0 1-4.096-4.032c0-4.19 4.595-5.348 9.856-5.318zm8.7-7.294c0-6.901-2.95-12.98-12.913-12.98a23.592 23.592 0 0 0-11.392 2.72l1.614 5.549a16.732 16.732 0 0 1 8.318-2.338c5.053-.013 5.884 2.863 5.884 4.705v.439c-11.031-.017-18 3.797-18 11.573 0 4.749 3.547 9.2 9.728 9.2a11.047 11.047 0 0 0 8.868-3.942h.187s1.256 5.27 8.191 3.255a44.853 44.853 0 0 1-.485-7.344v-10.837m19.905 12.87a7.162 7.162 0 0 1-6.915-5.318 8.133 8.133 0 0 1-.191-1.788v-4.886a8.834 8.834 0 0 1 .254-1.98 7.265 7.265 0 0 1 6.916-5.565c5.204 0 7.806 4.33 7.806 9.644 0 6.062-2.98 9.893-7.87 9.893zm2.92-25.47c-4.631 0-7.993 1.915-9.899 4.821h-.127V92.82h-7.806v31.884c0 .917.013 1.62.023 2.226a41.476 41.476 0 0 1-.468 6.152c6.178 1.795 7.993-2.177 8.318-3.07a10.862 10.862 0 0 0 8.817 3.84c6.979 0 14.025-5.378 14.025-16.198.06-9.148-5.332-15.27-12.883-15.27m28.19 12.798c-3.935-1.36-5.395-2.29-5.395-4.206 0-1.855 1.524-3.155 4.313-3.155a14.122 14.122 0 0 1 6.537 1.735l1.524-5.378a18.535 18.535 0 0 0-8.185-1.795c-7.173 0-11.677 4.143-11.677 9.46-.063 3.523 2.475 6.738 8.506 8.777 3.804 1.3 5.073 2.348 5.073 4.39 0 1.98-1.523 3.34-4.95 3.34a17.803 17.803 0 0 1-7.932-2.164l-1.52 5.502a20.368 20.368 0 0 0 9.39 2.1c8.184 0 12.564-3.955 12.564-9.397-.064-4.45-2.666-7.233-8.248-9.209M9.699 126.42l9.728-36.186h1.447l-9.36 34.787h20.558a.702.702 0 0 1 .7.7.7.7 0 0 1-.7.7zm34.94-7.916H21.216l8.452-31.763H12.461l-9.815 36.917c-1.466 5.552 2.033 10.093 7.776 10.096h10.676L14.27 159.61a.304.304 0 0 0 .536.261l30.433-40.155a.755.755 0 0 0-.6-1.212"/></g><path d="M180.47656 155.42383v29.08203h3.86719v-14.00391h12.63672v-3.4375h-12.63672v-8.20312h14.70703v-3.4375zm57.48047 6.66015c-1.28906 0-2.50651.26693-3.65234.80079-1.13282.53385-2.27214 1.27604-3.41797 2.22656v-2.42188h-3.67188v21.81641h3.67188V168.2168c1.0026-.76824 2.0052-1.39975 3.00781-1.89453 1.01563-.4948 2.02474-.74219 3.02735-.74219 1.05469 0 1.86198.14323 2.42187.42969.55989.27343.98958.6901 1.28906 1.25.27344.52083.44922 1.21745.52735 2.08984.0911.85937.13672 1.77083.13672 2.73437v12.42188h3.67187v-13.96484c0-.39063-.013-.78125-.0391-1.17188-.0261-.40365-.0586-.75521-.0977-1.05469 1.02865-.79426 2.05729-1.44531 3.08594-1.95312 1.02865-.52084 2.05729-.78125 3.08594-.78125 1.05468 0 1.86198.14323 2.42187.42969.55989.28645.98958.70963 1.28906 1.26953.27344.52083.44922 1.21745.52735 2.08984.0911.87239.13672 1.77734.13672 2.71484v12.42188h3.67187V170.3457c0-2.60416-.57292-4.6289-1.71875-6.07422-1.13281-1.45833-2.89713-2.1875-5.29297-2.1875-1.39322 0-2.70182.27995-3.92578.83985-1.22396.54687-2.57813 1.44531-4.0625 2.69531-.50781-1.10677-1.28255-1.97266-2.32422-2.59766-1.02864-.625-2.28516-.9375-3.76953-.9375zm-27.34375.0781c-1.31511 0-2.64974.11719-4.0039.35156-1.35417.23438-2.38933.44922-3.10547.64453v3.73047h.19531c1.26302-.48176 2.48698-.84635 3.67187-1.09375 1.1849-.26041 2.25912-.39062 3.22266-.39062.79427 0 1.55599.0521 2.28516.15625.72916.10416 1.35416.30599 1.875.60547.54687.3125.96354.74218 1.25 1.28906.29947.54687.44921 1.23698.44921 2.07031v.56641c-2.13541.10416-4.13411.26041-5.99609.46875-1.86198.20833-3.45703.60547-4.78515 1.1914-1.31511.58594-2.33073 1.39323-3.04688 2.42188-.70313 1.01562-1.05469 2.35026-1.05469 4.0039 0 2.01824.6836 3.67839 2.05078 4.98047 1.36719 1.30209 3.03386 1.95313 5 1.95313 1.06772 0 1.99871-.10417 2.79297-.3125.79428-.19532 1.4974-.44271 2.10938-.74219.52083-.23437 1.05469-.54687 1.60156-.9375.55989-.40365 1.0026-.71615 1.32812-.9375v2.32422h3.65235v-14.80469c0-1.40624-.21485-2.58463-.64453-3.53515-.42969-.95053-1.05469-1.72527-1.875-2.32422-.83334-.61198-1.82292-1.04167-2.96875-1.28907-1.13282-.26041-2.46745-.39062-4.00391-.39062zm-52.96875.52734v3.06641h12.44141l-12.71485 16.03516v2.71484h17.61719v-3.10547h-13.10547l12.77344-16.09375v-2.61719zm58.80859 10.3711v6.07422c-.91145.70312-1.90103 1.30859-2.96874 1.8164-1.06771.4948-2.2461.74219-3.53516.74219-1.54948 0-2.70183-.3125-3.45703-.9375-.75522-.63802-1.13281-1.58203-1.13281-2.83203-.00001-1.10678.32551-1.97266.97656-2.59766.65104-.63802 1.5039-1.10677 2.55859-1.40625.88542-.24739 2.08334-.4362 3.59375-.5664 1.52344-.13018 2.84506-.22784 3.96484-.29297z" fill="#000" fill-opacity="1" stroke="none"/></svg>