<svg xmlns="http://www.w3.org/2000/svg" role="img" viewBox="-14.36 -14.36 746.72 327.22"><title>z/OS FTP Plug-in for Zowe CLI (CLI ZOWE V2) logo</title><defs id="defs3552"><style id="style3550">.cls-1{fill:#0033a1}.cls-2{fill:#2a7de1}</style></defs><path id="polygon3556" d="M29.202 156.633l52.517-.823 71.484-50.097 14.994 30.607 13.759-80.538z" class="cls-1" transform="translate(-29.2 -55.777)"/><path id="polygon3558" d="M181.954 55.777l89.556 135.641-106.981-36.706z" class="cls-2" transform="translate(-29.2 -55.777)"/><path id="polyline3560" d="M131.223 229.511l8.452 12.18 76.73-54.507-12.985-19.127-44.268 30.853 5.375-44.194 106.981 36.7-145.721 102.786" class="cls-1" transform="translate(-29.2 -55.777)"/><path id="polygon3562" d="M94.075 176.677l49.2-33.439-17.487 149.774L29.2 156.634l52.523-.823z" class="cls-2" transform="translate(-29.2 -55.777)"/><path id="path3564" d="M587.23191 35.4428h5.29468a6.88644 6.88644 0 0 1 4.63135 1.36974 4.52388 4.52388 0 0 1 1.62157 3.71612 4.67514 4.67514 0 0 1-1.62157 3.753 7.14731 7.14731 0 0 1-4.79105 1.382h-3.65465V54.656h-1.48033zm1.48033 1.23459v7.69637h3.56251a5.57788 5.57788 0 0 0 3.6547-1.01963 3.84745 3.84745 0 0 0 .27639-5.436.34852.34852 0 0 1-.043-.04916l-.1904-.20882a5.3287 5.3287 0 0 0-3.50731-1.038z" class="cls-2"/><path id="path3566" d="M603.86285 35.4428h4.90774a7.28588 7.28588 0 0 1 4.73571 1.35132 4.43482 4.43482 0 0 1 1.63385 3.61781 4.77216 4.77216 0 0 1-3.65465 4.6559 8.891 8.891 0 0 1 2.56135 2.94829l4.34877 6.63987h-1.77514l-3.3476-5.23325a12.51111 12.51111 0 0 0-2.59819-3.29231 4.8449 4.8449 0 0 0-2.73333-.65719h-2.65348v9.21963h-1.48028zm1.48033 1.23459v7.52438h3.17557a6.18842 6.18842 0 0 0 3.73454-.98279 3.61961 3.61961 0 0 0 .42378-5.09814l-.44224-.44224a6.15319 6.15319 0 0 0-3.753-1.00121z" class="cls-2"/><path id="path3568" d="M631.17162 35.19832a10.00767 10.00767 0 0 1 7.21716 2.8623 9.627 9.627 0 0 1 .344 13.61141c-.0368.0368-.0737.0737-.1105.11669l-.23347.2457a10.49871 10.49871 0 0 1-14.416 0 9.74545 9.74545 0 0 1-.20263-13.77108l.0123-.0061.19035-.19658a9.95061 9.95061 0 0 1 7.19888-2.8623m0 18.32252a8.24138 8.24138 0 0 0 6.06247-2.44461 8.5868 8.5868 0 0 0 0-12.05123 8.71124 8.71124 0 0 0-12.1434 0 8.50806 8.50806 0 0 0 0 12.03281 8.30684 8.30684 0 0 0 6.08093 2.44461" class="cls-2"/><path id="path3570" d="M648.82228 35.44463v19.25006a6.22857 6.22857 0 0 1-1.19161 4.34877 3.8501 3.8501 0 0 1-2.8317 1.21617q-.44214.0184-.88448 0l-.13515-1.38815a4.62122 4.62122 0 0 0 .86611.0983c1.812 0 2.69645-1.27147 2.69645-3.85123V35.44463z" class="cls-2"/><path id="polygon3572" d="M686.071 92.456v7.678h8.753v1.253h-8.753v7.795h9.195v1.247h-10.681V91.222h10.472v1.234z" class="cls-2" transform="translate(-29.2 -55.777)"/><path id="path3574" d="M687.39486 36.81249v1.61543A14.69811 14.69811 0 0 0 680.54 36.5054a8.0693 8.0693 0 0 0-5.96416 2.44466A8.24453 8.24453 0 0 0 672.168 45.031a8.14392 8.14392 0 0 0 2.40778 6.11777 8.47367 8.47367 0 0 0 6.17916 2.3709 14.50977 14.50977 0 0 0 6.83027-1.92252v1.53558a14.27085 14.27085 0 0 1-6.79343 1.79356 10.06857 10.06857 0 0 1-7.31548-2.81319 9.83525 9.83525 0 0 1-.006-13.90622.006.006 0 0 0 .006-.0061.7022.7022 0 0 0 .13515-.13515 10.02036 10.02036 0 0 1 7.10666-2.83161 16.137 16.137 0 0 1 6.7565 1.61544" class="cls-2"/><path id="polygon3576" d="M728.51 92.456v17.973h-1.505V92.456h-7.217v-1.234h15.921v1.234z" class="cls-2" transform="translate(-29.2 -55.777)"/><path id="polygon3578" d="M410.365 99.444l-5.773 7.138h-.516l-5.799-7.138v12.334h-6.234V90.495h5.817l6.541 7.985 6.56-7.985h5.836v21.283h-6.432z" class="cls-2" transform="translate(-29.2 -55.777)"/><path id="path3580" d="M416.33272 56.00365h-6.56614l-1.75054-4.31193H398.778l-1.769 4.31193h-6.56615l9.41615-21.28932h7.18037zm-9.77855-8.02806l-3.12032-7.69633-3.151 7.69633z" class="cls-2"/><path id="rect3582" d="M419.183 34.719h6.406v21.283h-6.406z" class="cls-2"/><path id="polygon3584" d="M466.532 99.923v11.855h-6.351V90.495h5.694l11.007 11.793V90.495h6.394v21.283h-5.7z" class="cls-2" transform="translate(-29.2 -55.777)"/><path id="polygon3586" d="M495.039 111.779h-6.413V90.49h15.245v4.275h-8.832v4.122h8.832v4.269h-8.832z" class="cls-2" transform="translate(-29.2 -55.777)"/><path id="path3588" d="M499.595 56.00112h-6.8917l-1.67074-3.84509a16.48553 16.48553 0 0 0-1.6584-3.02815 3.5709 3.5709 0 0 0-1.43731-1.22849 5.21472 5.21472 0 0 0-1.812-.27026h-.71254v8.31674h-6.431V34.718h10.91499a7.868 7.868 0 0 1 4.33035 1.07488 6.46344 6.46344 0 0 1 2.44461 2.59823 6.72627 6.72627 0 0 1 .731 2.92373 5.4132 5.4132 0 0 1-.61422 2.73334 4.99247 4.99247 0 0 1-1.30835 1.61543 14.60055 14.60055 0 0 1-1.56014.96433 5.90891 5.90891 0 0 1 1.69529 1.425 16.98237 16.98237 0 0 1 1.88569 3.2923zm-8.716-14.56961a2.15338 2.15338 0 0 0-.98279-2.03921 6.28282 6.28282 0 0 0-3.13874-.5958h-1.34518v5.14111h1.36974a7.19359 7.19359 0 0 0 3.23087-.52209 2.149 2.149 0 0 0 .8661-1.92257" class="cls-2"/><path id="path3590" d="M525.87192 56.00365h-6.56615l-1.73212-4.31193h-9.238l-1.769 4.31193H499.982l9.41-21.28932h7.10052zm-9.77856-8.02806l-3.12036-7.69633-3.13874 7.69633z" class="cls-2"/><path id="polygon3592" d="M576.245 99.444l-5.799 7.138h-.497l-5.817-7.138v12.334h-6.235V90.495h5.836l6.523 7.985 6.584-7.985h5.811v21.283h-6.406z" class="cls-2" transform="translate(-29.2 -55.777)"/><path id="polygon3594" d="M588.024 90.495h15.78v4.269h-9.355v3.888h8.931v4.293h-8.931v4.54h9.625v4.293h-16.05z" class="cls-2" transform="translate(-29.2 -55.777)"/><path id="path3596" d="M283.15852 35.42865a11.03124 11.03124 0 0 1 8.06485 3.194 10.85708 10.85708 0 0 1 .31941 15.34967.18792.18792 0 0 0-.0492.0492l-.27025.26412a11.73656 11.73656 0 0 1-16.09291 0 10.89088 10.89088 0 0 1-.20882-15.39265l.20882-.215a11.08033 11.08033 0 0 1 8.02806-3.194m0 20.46a9.21918 9.21918 0 0 0 6.775-2.73333 9.62184 9.62184 0 0 0 0-13.47008 9.78988 9.78988 0 0 0-13.5684 0 9.50155 9.50155 0 0 0-.0246 13.44552l.0246.0246a9.2606 9.2606 0 0 0 6.79343 2.73333" class="cls-2"/><path id="path3598" d="M298.57146 35.694h5.915a7.96062 7.96062 0 0 1 5.19642 1.52331 5.61267 5.61267 0 0 1-.11669 8.35356 8.05225 8.05225 0 0 1-5.33156 1.56014h-4.10303v9.98742h-1.65227zm1.65845 1.38815v8.66071h4.00476a6.42467 6.42467 0 0 0 4.07851-1.13632 4.34636 4.34636 0 0 0 .23342-6.13619.89411.89411 0 0 0-.215-.215 5.7378 5.7378 0 0 0-3.8451-1.1732z" class="cls-2"/><path id="polygon3600" d="M345.519 92.862v8.581h9.785v1.388h-9.785v8.716h10.301v1.388h-11.953V91.474h11.701v1.388z" class="cls-2" transform="translate(-29.2 -55.777)"/><path id="polygon3602" d="M377.181 112.935l-16.296-18.771v18.771h-1.658V91.474h1.407l16.258 18.746V91.474h1.659v21.461z" class="cls-2" transform="translate(-29.2 -55.777)"/><path id="path3604" d="M269.81527 175.16729l64.79151-75.394h-62.772V77.0545h96.09326V96.744l-64.79151 75.394h64.79151v22.71875h-98.1128z" class="cls-1"/><path id="path3606" d="M381.22348 150.26007v-.33692c0-25.916 20.86816-46.95215 48.97265-46.95215 27.93555 0 48.63477 20.69922 48.63477 46.61622v.33593c0 25.917-20.86719 46.95313-48.97168 46.95313-27.93652 0-48.63574-20.69922-48.63574-46.61621zm72.36425 0v-.33692c0-13.29443-9.59277-24.90625-23.72851-24.90625-14.6416 0-23.39258 11.27539-23.39258 24.57032v.33593c0 13.29492 9.59277 24.90723 23.72949 24.90723 14.64063 0 23.3916-11.27538 23.3916-24.57031z" class="cls-1"/><path id="path3608" d="M485.89926 104.65362h25.917l14.47265 54.69438 16.99709-55.0308h22.0459l17.165 55.19873 14.80957-54.86231h25.41211l-28.10449 90.876h-23.05565l-17.334-55.3667-17.66992 55.3667h-22.88768z" class="cls-1"/><path id="path3610" d="M629.78793 150.26007v-.33692c0-25.748 18.34375-46.95215 44.59668-46.95215 30.124 0 43.92383 23.39209 43.92383 48.97168 0 2.01954-.16895 4.376-.33692 6.73145H655.2c2.52344 11.6123 10.60156 17.6709 22.0459 17.6709 8.582 0 14.80859-2.69238 21.877-9.25586l14.6416 12.958c-8.415 10.43359-20.53125 16.8291-36.85547 16.8291-27.09473.00001-47.1211-19.01659-47.1211-46.6162zm63.61328-7.57276c-1.51465-11.44384-8.24609-19.18506-19.0166-19.18506-10.60254 0-17.50195 7.57276-19.52148 19.18506z" class="cls-1"/><path id="polygon3612" d="M143.275 143.239l-49.2 33.438 43.396 16.621z" class="cls-1" transform="translate(-29.2 -55.777)"/><g id="text890"><path id="path938" d="M426.96875 260.08594c-2.43489 0-4.29687.69661-5.58594 2.08984-1.28906 1.38021-1.93359 3.36589-1.93359 5.95703v.72266h-2.48047v3.08594h2.48047v18.73047h3.67187v-18.73047h6.50391v-3.08594h-6.62109v-.74219c0-1.82292.35156-3.07943 1.05468-3.76953.71615-.70313 1.86198-1.05469 3.4375-1.05469.4948 0 1.06771.0651 1.71875.19532.65105.11718 1.1784.23437 1.58204.35156h.19531v-3.35938c-.54688-.10416-1.15235-.19531-1.81641-.27344-.65104-.0781-1.38672-.11718-2.20703-.11718zm-328.90625.19531l-13.94531 36.32813h3.3789L101.5 260.28125zm191.38672 0v30.39063h3.67187v-30.39063zm-170.80078.70313c-2.00522 0-3.86068.33853-5.56641 1.01562-1.69271.67708-3.11198 1.65365-4.25781 2.92969-1.19792 1.34114-2.10938 2.95573-2.73438 4.84375-.625 1.875-.9375 3.99739-.9375 6.36718 0 2.40886.3125 4.55079.9375 6.42579.63802 1.875 1.54297 3.45702 2.71485 4.74609 1.17187 1.28906 2.59114 2.27214 4.25781 2.94922 1.67969.67709 3.54166 1.01562 5.58594 1.01562 2.09635 0 3.95833-.33203 5.58594-.99609 1.64062-.66407 3.05989-1.65365 4.25781-2.96875 1.15885-1.26303 2.05729-2.83854 2.69531-4.72656.65104-1.90104.97656-4.04948.97656-6.44532 0-2.39583-.31901-4.53776-.95703-6.42578-.625-1.88802-1.52995-3.48307-2.71484-4.78515-1.15886-1.26302-2.57162-2.23308-4.23828-2.91016-1.65365-.69011-3.52214-1.03515-5.60547-1.03515zm29.45312.0781c-3.16406 0-5.77474.78125-7.83203 2.34375-2.05729 1.54947-3.08594 3.54166-3.08594 5.97656 0 2.1224.61849 3.84766 1.85547 5.17578 1.25 1.31511 3.16406 2.2461 5.74219 2.79297 1.27604.26042 2.48047.47526 3.61328.64453 1.14583.16928 2.20703.38412 3.18359.64453 1.28907.33855 2.2461.81381 2.8711 1.42579.63802.61198.95703 1.5625.95703 2.85156 0 1.4974-.67057 2.69532-2.01172 3.59375-1.32813.89844-3.1901 1.34766-5.58594 1.34766-1.6927 0-3.5026-.33204-5.42968-.9961-1.92709-.66407-3.62631-1.60808-5.09766-2.83203h-.27344v4.84375c1.73178.76823 3.43099 1.34765 5.09766 1.73828 1.67969.39062 3.56771.58594 5.66406.58594 1.95313 0 3.61979-.23438 5-.70313 1.39323-.46875 2.61068-1.11979 3.65235-1.95312.95052-.76823 1.68619-1.70573 2.20703-2.8125.53385-1.10677.80078-2.22656.80078-3.35938 0-2.08333-.54687-3.70442-1.64063-4.86328-1.09374-1.15885-2.72135-2.02473-4.88281-2.59765-1.06771-.27344-2.36979-.54036-3.90625-.80078-1.53646-.26042-2.72135-.48177-3.55469-.66407-1.57552-.36458-2.67578-.89193-3.30078-1.58203-.625-.69011-.9375-1.64062-.9375-2.85156 0-1.35417.625-2.46094 1.875-3.32031 1.26302-.85938 2.92969-1.28907 5-1.28907 1.88802 0 3.73047.3125 5.52735.9375 1.8099.61198 3.26823 1.38672 4.375 2.32422h.27343v-4.57031c-1.3151-.57292-2.82551-1.05469-4.53125-1.44531-1.70572-.39062-3.58072-.58594-5.625-.58594zm475.91797 0c-2.13541 0-4.08203.33203-5.83984.99609-1.7448.66406-3.23568 1.62761-4.47266 2.89063-1.27604 1.30209-2.2526 2.89714-2.92969 4.78516-.67708 1.88801-1.01562 4.02994-1.01562 6.42578 0 2.52604.35156 4.74609 1.05469 6.66015.70312 1.90104 1.67968 3.47005 2.92968 4.70703 1.27605 1.26302 2.77344 2.19401 4.49219 2.79297 1.73177.58594 3.65235.87891 5.76172.87891 1.11979 0 2.14193-.0912 3.06641-.27344.9375-.16927 1.80339-.37761 2.59765-.625.9375-.29948 1.69271-.58593 2.26563-.85937.58593-.27344 1.23698-.56641 1.95312-.87891v-4.53125h-.27343c-1.41927 1.27604-2.94271 2.23307-4.57032 2.87109-1.6276.63802-3.37239.95704-5.23437.95704-1.35417-.00001-2.64323-.22787-3.86719-.6836-1.21094-.46875-2.27214-1.1849-3.18359-2.14844-.8724-.92448-1.58855-2.12239-2.14844-3.59375-.54687-1.47135-.82031-3.22916-.82031-5.27343 0-1.95313.2474-3.67188.74218-5.15625.50782-1.4974 1.21094-2.73437 2.10938-3.71094.92448-1.0026 1.97266-1.73828 3.14453-2.20703 1.18489-.48177 2.51302-.72266 3.98437-.72266 1.79688 0 3.48308.30599 5.0586.91797 1.57552.61197 3.16406 1.58854 4.76562 2.92969h.29297v-4.58985c-1.90104-.95052-3.63281-1.61458-5.19531-1.99218-1.54948-.3776-3.10547-.56641-4.66797-.56641zm-255.35156.33203v3.80859h4.14062v-3.80859zm-188.96485.19531v29.08204h3.86719v-14.00391h12.63672v-3.4375h-12.63672v-8.20313h14.70703v-3.4375zm19.0625 0v3.4375h10.39063v25.64454h3.86719v-25.64454h10.39062v-3.4375zm28.59376 0v29.08204h3.86718v-10.83985h3.86719c2.08333 0 3.80859-.24739 5.17578-.74219 1.36719-.50781 2.55208-1.26301 3.55469-2.26562.80729-.80729 1.43229-1.75781 1.875-2.85156.45573-1.10677.68359-2.30469.68359-3.59375 0-1.69271-.30599-3.09245-.91797-4.19922-.59895-1.10677-1.45182-2.03125-2.55859-2.77344-.9375-.625-2.01172-1.08073-3.22266-1.36719-1.21093-.29948-2.6888-.44922-4.43359-.44922zm38.20312 0v29.08204h3.86719v-10.83985h3.86719c2.08333 0 3.80858-.24739 5.17578-.74219 1.36718-.50781 2.55208-1.26301 3.55468-2.26562.8073-.80729 1.4323-1.75781 1.875-2.85156.45574-1.10677.6836-2.30469.6836-3.59375 0-1.69271-.30599-3.09245-.91797-4.19922-.59896-1.10677-1.45182-2.03125-2.55859-2.77344-.93751-.625-2.01173-1.08073-3.22266-1.36719-1.21094-.29948-2.6888-.44922-4.4336-.44922zm222.73438 0v3.4375h17.16796l-17.83203 22.05078v3.59376h22.69531v-3.4375h-18.4375l18.00782-22.14844v-3.4961zm151.09374 0v29.08204h18.39844v-3.4375h-14.53125v-25.64454zm21.03516 0v2.96875h3.8086v23.14453h-3.8086v2.96876h11.48438v-2.96876h-3.8086v-23.14453h3.8086v-2.96875zm-541.75781 2.73438c2.92969 0 5.24089 1.02864 6.93359 3.08594 1.69271 2.04427 2.53906 4.95443 2.53906 8.73046 0 3.81511-.85937 6.73829-2.57812 8.76954-1.70573 2.01823-4.0039 3.02734-6.89453 3.02734s-5.19532-1.00911-6.91406-3.02734c-1.71876-2.03125-2.57813-4.95443-2.57813-8.76954 0-3.77603.83985-6.68619 2.51953-8.73046 1.69271-2.0573 4.01693-3.08594 6.97266-3.08594zm112.55859.58594h3.82813c1.22395 0 2.23307.0911 3.02734.27343.80729.16928 1.52344.45574 2.14844.85938.71615.46875 1.25 1.07422 1.60156 1.81641.35156.74218.52735 1.61458.52735 2.61718 0 .85938-.13022 1.63411-.39063 2.32422-.24739.6901-.67708 1.34766-1.28906 1.97266-.61198.61198-1.40625 1.06119-2.38281 1.34765-.97657.27344-2.2461.41016-3.8086.41016h-3.26172zm38.20313 0h3.82812c1.22396 0 2.23307.0911 3.02735.27343.80728.16928 1.52343.45574 2.14843.85938.71615.46875 1.25 1.07422 1.60157 1.81641.35156.74218.52734 1.61458.52734 2.61718 0 .85938-.1302 1.63411-.39062 2.32422-.2474.6901-.67709 1.34766-1.28907 1.97266-.61198.61198-1.40625 1.06119-2.38281 1.34765-.97656.27344-2.24609.41016-3.80859.41016h-3.26172zm64.45312 3.33984c-1.19791 0-2.40234.26042-3.61328.78125-1.21094.50781-2.23958 1.22396-3.08594 2.14844-.91145.98958-1.6341 2.16797-2.16797 3.53515-.52083 1.35417-.78124 2.96875-.78124 4.84375 0 3.42448.76171 6.08073 2.28515 7.96875 1.53646 1.875 3.60677 2.8125 6.21094 2.8125 1.5625 0 2.84505-.21484 3.84765-.64453 1.01563-.4427 2.07683-1.10677 3.1836-1.99219v1.99219c0 .88542-.0977 1.6862-.29297 2.40235-.19531.71614-.52084 1.32812-.97656 1.83593-.45574.53386-1.09375.95052-1.91407 1.25-.8203.29948-1.85546.44922-3.10546.44922-1.30209 0-2.60417-.17577-3.90625-.52734-1.30209-.33854-2.25261-.625-2.85157-.85938h-.19531v3.75c1.06771.29948 2.14844.52735 3.24219.6836 1.10677.16927 2.23958.2539 3.39844.2539 3.48958 0 6.07422-.86588 7.7539-2.59765 1.67969-1.73177 2.51953-4.44661 2.51953-8.14453v-19.33594h-3.4375l-.23437.9375c-.95052-.52083-1.85547-.90495-2.71484-1.15235-.84636-.26041-1.90105-.39062-3.16407-.39062zm56.99219 0c-1.28906 0-2.54557.26693-3.76953.80078s-2.40886 1.27604-3.55469 2.22656v-2.42187h-3.67187v21.81641h3.67187v-16.28907c1.00261-.76823 2.05079-1.39974 3.14453-1.89453 1.09376-.49479 2.14193-.74219 3.14453-.74219.97657 0 1.77084.13672 2.38282.41016.61197.26041 1.08072.66406 1.40625 1.21094.3125.49479.52734 1.18489.64453 2.07031.11718.87239.17578 1.80989.17578 2.8125v12.42188h3.67187V276.5117c0-2.66927-.61849-4.71354-1.85547-6.13281-1.23697-1.41927-3.03385-2.12891-5.39062-2.12891zm50.97656 0c-3.08593 0-5.54036 1.03516-7.36328 3.10547-1.80989 2.05729-2.71484 4.86328-2.71484 8.41797 0 3.55468.90495 6.36067 2.71484 8.41797 1.82292 2.05729 4.27735 3.08593 7.36328 3.08593 3.0599 0 5.50131-1.02864 7.32422-3.08593 1.82292-2.0573 2.73438-4.86329 2.73438-8.41797 0-3.55469-.91146-6.36068-2.73438-8.41797-1.82291-2.07031-4.26432-3.10547-7.32422-3.10547zm82.89063 0c-3.08594 0-5.54037 1.03516-7.36328 3.10547-1.8099 2.05729-2.71485 4.86328-2.71485 8.41797 0 3.55468.90495 6.36067 2.71485 8.41797 1.82291 2.05729 4.27734 3.08593 7.36328 3.08593 3.05989 0 5.5013-1.02864 7.32422-3.08593 1.82291-2.0573 2.73437-4.86329 2.73437-8.41797 0-3.55469-.91146-6.36068-2.73437-8.41797-1.82292-2.07031-4.26433-3.10547-7.32422-3.10547zm57.55859 0c-3.17708 0-5.74218 1.04818-7.69531 3.14453-1.94011 2.09635-2.91016 4.92839-2.91016 8.49609 0 3.60678 1.01562 6.39323 3.04688 8.35938 2.03124 1.95312 4.85677 2.92969 8.47656 2.92969 1.41927 0 2.77344-.17579 4.0625-.52735s2.55208-.78776 3.78906-1.30859v-4.00391h-.19531c-.63802.57292-1.71224 1.15886-3.22266 1.75782-1.49739.58594-2.98828.8789-4.47265.8789-1.1198 0-2.14844-.15625-3.08594-.46875-.92448-.3125-1.72526-.78125-2.40234-1.40625-.70313-.63802-1.25651-1.45182-1.66016-2.4414-.40365-1.0026-.60547-2.17448-.60547-3.51563H591.5v-1.99219c0-3.16406-.80078-5.60546-2.40234-7.32422-1.58855-1.71874-3.85417-2.57812-6.79688-2.57812zm-516.52344.60547v3.06641h12.44141l-12.71484 16.03515v2.71485h17.61718v-3.10547H70.01563l12.77343-16.09375v-2.61719zm234.49219 0v14.16015c0 2.70834.63802 4.76563 1.91406 6.17188 1.27605 1.39323 3.0599 2.08984 5.35157 2.08984 1.36718 0 2.61718-.26041 3.75-.78125 1.1328-.52083 2.3177-1.26953 3.55468-2.24609v2.42188h3.67188v-21.81641h-3.67188v16.28906c-.97656.76823-2.03125 1.39974-3.16406 1.89453-1.11979.4948-2.15495.74219-3.10547.74219-1.0677 0-1.88151-.1302-2.4414-.39063-.5599-.26041-1.01563-.67707-1.36719-1.25-.33854-.55989-.5599-1.23046-.66406-2.01171-.10417-.79427-.15625-1.74479-.15625-2.85157v-12.42187zm68.63281 0v21.81641h3.67188v-21.81641zm88.71094 0v21.81641h3.67188v-15.48829c.97656-.79427 1.99218-1.4388 3.04687-1.93359 1.05469-.50781 2.14844-.76172 3.28125-.76172.70313 0 1.30859.0326 1.81641.0977.52083.0521 1.05469.14323 1.60156.27344h.19531v-3.76954c-.57291-.0911-1.0026-.14971-1.28906-.17578-.28646-.0391-.7487-.0586-1.38672-.0586-1.15885 0-2.29817.24739-3.41797.74219-1.10676.48177-2.38932 1.30859-3.84765 2.48046v-3.22265zm80.95703 0l5.74219 21.81641h3.37891l5.5664-16.81641 5.60547 16.81641h3.39844l5.68359-21.81641h-3.6914l-3.78907 16.89453-5.58593-16.89453h-3.02735l-5.44922 16.89453-4.0039-16.89453zm43.53516 2.42187c1.95313 0 3.40495.52735 4.35547 1.58204.96356 1.05468 1.45184 2.54556 1.46484 4.47265h-12.5c.15625-1.71875.8138-3.15755 1.97266-4.31641 1.17187-1.15885 2.74088-1.73828 4.70703-1.73828zm-140.25391.13672c1.96615 0 3.5026.69011 4.60938 2.07032 1.10676 1.36718 1.66015 3.46354 1.66015 6.28906 0 2.76042-.5599 4.84375-1.67968 6.25-1.10678 1.39323-2.63672 2.08984-4.58985 2.08984-1.97916 0-3.52214-.70312-4.6289-2.10937-1.10678-1.41927-1.66016-3.49609-1.66016-6.23047 0-2.82552.54688-4.92188 1.64062-6.28906 1.10678-1.38021 2.65626-2.07032 4.64844-2.07032zm82.89063 0c1.96614 0 3.50261.69011 4.60937 2.07032 1.10678 1.36718 1.66016 3.46354 1.66016 6.28906 0 2.76042-.5599 4.84375-1.67969 6.25-1.10677 1.39323-2.63672 2.08984-4.58984 2.08984-1.97917 0-3.52214-.70312-4.62891-2.10937-1.10677-1.41927-1.66016-3.49609-1.66016-6.23047.00001-2.82552.54688-4.92188 1.64063-6.28906 1.10677-1.38021 2.65625-2.07032 4.64844-2.07032zm-190.21485.13672c.83334 0 1.66667.0977 2.5.29297.84636.18229 1.75781.49479 2.73438.9375v11.89453c-.89844.6901-1.88802 1.24349-2.96875 1.66016-1.06771.40364-2.13541.60547-3.20313.60547-1.99218 0-3.41797-.63152-4.27734-1.89453-.85937-1.26303-1.28906-3.11849-1.28906-5.56641 0-2.57812.57943-4.54427 1.73828-5.89844 1.15885-1.35417 2.7474-2.03125 4.76562-2.03125zm15.50782 4.62891v3.53515h12.1875v-3.53515z"/></g></svg>