<svg xmlns="http://www.w3.org/2000/svg" role="img" viewBox="-7.97 34.03 414.18 216.93"><title>z/OS Node Accessor logo</title><style>svg {enable-background:new 0 0 400 245}</style><style id="style2" type="text/css">.st0{fill:#4c83c3}</style><g id="g130"><path id="polygon4" fill="#4c83c3" d="m 336.1,42.1 h 62.2 V 53.5 H 332 Z" class="st0"/><path id="path6" d="m 221.5,42.1 h 61.6 l 4,11.5 c 0,0 -65.6,0 -65.6,0 0.1,-0.1 0,-11.5 0,-11.5 z" class="st0"/><path id="path8" d="m 172.7,42.1 c 10.1,1 19,4.6 26.5,11.5 0,0 -111.6,0 -111.6,0 0,0 0,-11.5 0,-11.5 z" class="st0"/><g id="g14"><path id="rect10" fill="#4c83c3" d="m 0,42.099998 h 77.5 v 11.4 H 0 Z" class="st0"/></g><path id="path16" d="m 398.3,75 h -73.9 c 0,0 4,-11.4 4,-11.4 h 69.9 z" class="st0"/><path id="polygon18" fill="#4c83c3" d="m 221.5,63.6 h 69.2 l 4.1,11.4 h -73.3 z" class="st0"/><path id="path20" d="m 207.8,63.6 c 1.5,3.8 3.2,7 3.2,11.4 H 87.6 V 63.6 Z" class="st0"/><g id="g26"><path id="rect22" fill="#4c83c3" d="m 0,63.599998 h 77.5 v 11.4 H 0 Z" class="st0"/></g><path id="polygon28" fill="#4c83c3" d="m 376.4,85.1 v 11.4 h -59.6 l 4.1,-11.4 z" class="st0"/><path id="polygon30" fill="#4c83c3" d="M 243.4,96.5 V 85.1 h 54.9 l 4.1,11.4 z" class="st0"/><path id="path32" d="m 212,85 c 0,3.9 -0.5,8 -1.6,11.4 H 176.6 V 85 Z" class="st0"/><g id="g38"><path id="rect34" fill="#4c83c3" d="m 21.6,85.099998 h 33.3 v 11.4 H 21.6 Z" class="st0"/></g><g id="g44"><path id="rect40" fill="#4c83c3" d="m 110,85 h 33.3 V 96.4 H 110 Z" class="st0"/></g><path id="path46" d="m 276.1,108.8 c 0,0 0,8.7 0,8.7 h -32.8 v -11.4 h 62.4 l 3.9,10.6 c 0,0 3.7,-10.6 3.7,-10.6 h 62.9 v 11.4 h -32.6 c 0,0 0,-8.7 0,-8.7 l -3,8.7 H 279 Z" class="st0"/><path id="path48" d="m 110,106.1 h 95.5 v 0 c -2.1,3.8 -5.9,8.4 -9.5,11.4 0,0 -86,0 -86,0 0,0 0,-11.4 0,-11.4 z" class="st0"/><g id="g54"><path id="rect50" fill="#4c83c3" d="m 21.6,106.1 h 33.3 v 11.4 H 21.6 Z" class="st0"/></g><g id="g60"><path id="rect56" fill="#4c83c3" d="m 343.79999,127.6 h 32.6 V 139 h -32.6 z" class="st0"/></g><path id="path62" d="M 276.1,127.6 H 243.3 V 139 c 0,0 32.8,0 32.8,0 0,-0.1 0.1,-11.4 0,-11.4 z" class="st0"/><path id="path64" d="m 337.2,127.6 c -0.1,0 -3.8,11.4 -4,11.4 h -46.4 c 0,0 -4.1,-11.4 -4.1,-11.4 z" class="st0"/><path id="path66" d="m 110,127.6 h 85.8 c 3.9,3.3 7.5,7.3 10.2,11.4 0.2,0 -96.1,0 -96.1,0 0.1,-0.1 0.1,-11.4 0.1,-11.4 z" class="st0"/><path id="path68" d="M 54.9,138.9 V 127.5 H 21.7 c 0,0 0,11.4 0,11.4 0,0 33.2,0 33.2,0 z" class="st0"/><g id="g74"><path id="rect70" fill="#4c83c3" d="m 343.79999,149 h 32.6 v 11.4 h -32.6 z" class="st0"/></g><g id="g80"><path id="rect76" fill="#4c83c3" d="m 243.39999,149 h 32.8 v 11.4 h -32.8 z" class="st0"/></g><path id="path82" d="m 325.6,160.4 c 0,-0.1 4,-11.4 4.1,-11.4 h -39.5 c -0.1,0 4,11.4 4,11.4 0,0 31.4,0.1 31.4,0 z" class="st0"/><path id="path84" d="m 110,160.4 c 0,0 0,-11.4 0,-11.4 h 33.8 c 0,0 0,11.4 0,11.4 -0.1,0 -33.8,0 -33.8,0 z" class="st0"/><path id="path86" d="m 210.8,149 c 1.6,3.4 1.8,7.5 2.1,11.4 H 177.1 V 149 Z" class="st0"/><g id="g92"><path id="rect88" fill="#4c83c3" d="M 21.700001,149 H 55 v 11.4 H 21.700001 Z" class="st0"/></g><g id="g98"><path id="rect94" fill="#4c83c3" d="m 343.79999,170 h 54.5 v 11.4 h -54.5 z" class="st0"/></g><g id="g104"><path id="rect100" fill="#4c83c3" d="m 221.5,170 h 54.6 v 11.4 h -54.6 z" class="st0"/></g><path id="polygon106" fill="#4c83c3" d="m 297.6,170 h 24.5 l -3.9,11.4 h -16.6 z" class="st0"/><path id="path108" d="m 0,170 v 11.4 h 77.5 c 0,0 0,-11.4 0,-11.4 0,0 -77.6,0 -77.5,0 z" class="st0"/><path id="path110" d="m 211.5,170 c -0.8,3.8 -1.6,8.3 -4.3,11.4 h -1 H 87.6 V 170 Z" class="st0"/><path id="polygon112" fill="#4c83c3" d="m 305.3,191.5 h 9.4 l -4,11.4 h -1.5 z" class="st0"/><g id="g118"><path id="rect114" fill="#4c83c3" d="m 343.79999,191.5 h 54.5 v 11.4 h -54.5 z" class="st0"/></g><path id="path120" d="m 87.6,202.9 v -11.4 c 0,0 111.9,0 112.2,0 -7.5,7.2 -17.8,11.2 -28.9,11.4 H 87.6" class="st0"/><g id="g126"><path id="rect122" fill="#4c83c3" d="m 221.5,191.5 h 54.6 v 11.4 h -54.6 z" class="st0"/></g><path id="path128" d="m 77.5,191.5 c 0,0 0,11.4 0,11.4 0,0 -77.4,0 -77.5,0 0,0 0,-11.4 0,-11.4 0,0 77.4,0.1 77.5,0 z" class="st0"/></g><g id="text132" text-anchor="middle"><path id="path160" d="m 99.270508,240 h -9.689453 v -1.49316 l 6.993164,-8.81934 h -6.842774 v -1.68652 h 9.356446 v 1.43945 l -7.025391,8.85156 h 7.208008 z"/><path id="path162" d="m 109.37891,223.28516 -7.70215,19.98046 h -1.858401 l 7.669921,-19.98046 z"/><path id="path164" d="m 124.22461,225.8418 q 0.97754,1.07422 1.49316,2.63183 0.52637,1.55762 0.52637,3.53418 0,1.97656 -0.53711,3.54492 -0.52637,1.55762 -1.48242,2.59961 -0.98828,1.08496 -2.3418,1.63282 -1.34277,0.54785 -3.07226,0.54785 -1.68653,0 -3.07227,-0.5586 -1.375,-0.55859 -2.3418,-1.62207 -0.96679,-1.06347 -1.49316,-2.61035 -0.51562,-1.54687 -0.51562,-3.53418 0,-1.95508 0.51562,-3.50195 0.51563,-1.55762 1.50391,-2.66406 0.94531,-1.05274 2.34179,-1.61133 1.40723,-0.5586 3.06153,-0.5586 1.71875,0 3.083,0.56934 1.375,0.55859 2.33106,1.60059 z m -0.19336,6.16601 q 0,-3.11523 -1.39648,-4.80176 -1.39649,-1.69726 -3.81348,-1.69726 -2.43848,0 -3.83496,1.69726 -1.38574,1.68653 -1.38574,4.80176 0,3.14746 1.41796,4.82324 1.41797,1.66504 3.80274,1.66504 2.38476,0 3.79199,-1.66504 1.41797,-1.67578 1.41797,-4.82324 z"/><path id="path166" d="m 141.24023,235.43457 q 0,0.93457 -0.44043,1.84766 -0.42968,0.91308 -1.21386,1.54687 -0.85938,0.6875 -2.00879,1.07422 -1.13867,0.38672 -2.75,0.38672 -1.72949,0 -3.11524,-0.32227 -1.375,-0.32226 -2.80371,-0.95605 v -2.66406 h 0.15039 q 1.21387,1.00976 2.80371,1.55761 1.58985,0.54785 2.98633,0.54785 1.97657,0 3.07227,-0.74121 1.10644,-0.74121 1.10644,-1.97656 0,-1.06348 -0.52636,-1.56836 -0.51563,-0.50488 -1.57911,-0.78418 -0.80566,-0.21484 -1.75097,-0.35449 -0.93457,-0.13965 -1.98731,-0.35449 -2.12695,-0.45117 -3.1582,-1.53613 -1.02051,-1.09571 -1.02051,-2.84668 0,-2.00879 1.69727,-3.28711 1.69726,-1.28907 4.30762,-1.28907 1.68652,0 3.09375,0.32227 1.40722,0.32226 2.49218,0.79492 v 2.51367 h -0.15039 q -0.91308,-0.77343 -2.40625,-1.27832 -1.48242,-0.51562 -3.04004,-0.51562 -1.708,0 -2.75,0.70898 -1.03125,0.70899 -1.03125,1.82617 0,0.99903 0.51563,1.56836 0.51562,0.56934 1.81543,0.87012 0.6875,0.15039 1.95508,0.36523 1.26757,0.21485 2.14843,0.44043 1.78321,0.47266 2.68555,1.42872 0.90234,0.95605 0.90234,2.6748 z"/><path id="path168" d="m 164.59375,240 h -2.63184 l -7.58398,-14.30859 V 240 h -1.98731 v -15.99512 h 3.29786 l 6.91797,13.0625 v -13.0625 h 1.9873 z"/><path id="path170" d="m 178.91309,234.00586 q 0,2.93262 -1.50391,4.62988 -1.50391,1.69727 -4.02832,1.69727 -2.5459,0 -4.04981,-1.69727 -1.49316,-1.69726 -1.49316,-4.62988 0,-2.93262 1.49316,-4.62988 1.50391,-1.70801 4.04981,-1.70801 2.52441,0 4.02832,1.70801 1.50391,1.69726 1.50391,4.62988 z m -2.08399,0 q 0,-2.33106 -0.91308,-3.45899 -0.91309,-1.13867 -2.53516,-1.13867 -1.64356,0 -2.55664,1.13867 -0.90235,1.12793 -0.90235,3.45899 0,2.25586 0.91309,3.42676 0.91309,1.16015 2.5459,1.16015 1.61133,0 2.52441,-1.14941 0.92383,-1.16016 0.92383,-3.4375 z"/><path id="path172" d="m 191.78223,240 h -2.01953 v -1.25684 q -0.87012,0.75196 -1.81543,1.1709 -0.94532,0.41895 -2.05176,0.41895 -2.14844,0 -3.41602,-1.6543 -1.25683,-1.6543 -1.25683,-4.58691 0,-1.52539 0.42968,-2.71778 0.44043,-1.19238 1.18164,-2.03027 0.73047,-0.81641 1.69727,-1.24609 0.97754,-0.42969 2.01953,-0.42969 0.94531,0 1.67578,0.2041 0.73047,0.19336 1.53614,0.6123 v -5.19921 h 2.01953 z m -2.01953,-2.9541 v -6.88574 q -0.81641,-0.36524 -1.46094,-0.50489 -0.64453,-0.13965 -1.40723,-0.13965 -1.69726,0 -2.64258,1.18165 -0.94531,1.18164 -0.94531,3.35156 0,2.13769 0.73047,3.25488 0.73047,1.10645 2.3418,1.10645 0.85937,0 1.74023,-0.37598 0.88086,-0.38672 1.64356,-0.98828 z"/><path id="path174" d="m 205.80078,234.20996 h -8.84082 q 0,1.10645 0.33301,1.93359 0.33301,0.81641 0.91308,1.34278 0.5586,0.51562 1.32129,0.77344 0.77344,0.25781 1.69727,0.25781 1.22461,0 2.45996,-0.4834 1.24609,-0.49414 1.77246,-0.9668 h 0.10742 v 2.20215 q -1.0205,0.42969 -2.08398,0.71973 -1.06348,0.29004 -2.23438,0.29004 -2.98632,0 -4.66211,-1.61133 -1.67578,-1.62207 -1.67578,-4.59766 0,-2.94336 1.60059,-4.67285 1.61133,-1.72949 4.23242,-1.72949 2.42774,0 3.73828,1.41797 1.32129,1.41797 1.32129,4.02832 z m -1.96582,-1.54687 q -0.0107,-1.58985 -0.80566,-2.45997 -0.78418,-0.87011 -2.39551,-0.87011 -1.62207,0 -2.58887,0.95605 -0.95605,0.95606 -1.08496,2.37403 z"/><path id="path176" d="m 229.36914,240 h -2.2666 l -1.56836,-4.45801 h -6.91797 L 217.04785,240 h -2.15918 l 5.82227,-15.99512 h 2.83593 z m -4.49023,-6.28418 -2.80371,-7.85254 -2.81446,7.85254 z"/><path id="path178" d="m 240.50879,239.24805 q -1.00977,0.4834 -1.92285,0.75195 -0.90235,0.26855 -1.92285,0.26855 -1.29981,0 -2.38477,-0.37597 -1.08496,-0.38672 -1.8584,-1.16016 -0.78418,-0.77344 -1.21387,-1.95508 -0.42968,-1.18164 -0.42968,-2.76074 0,-2.94336 1.61133,-4.61914 1.62207,-1.67578 4.27539,-1.67578 1.03125,0 2.01953,0.29004 0.99902,0.29004 1.82617,0.70898 v 2.24512 h -0.10742 q -0.92383,-0.71973 -1.91211,-1.10645 -0.97754,-0.38671 -1.91211,-0.38671 -1.71875,0 -2.71778,1.16015 -0.98828,1.14942 -0.98828,3.38379 0,2.16992 0.9668,3.34082 0.97754,1.16016 2.73926,1.16016 0.6123,0 1.24609,-0.16113 0.63379,-0.16114 1.13867,-0.41895 0.44043,-0.22559 0.82715,-0.47266 0.38672,-0.25781 0.61231,-0.44043 h 0.10742 z"/><path id="path180" d="m 251.98145,239.24805 q -1.00977,0.4834 -1.92286,0.75195 -0.90234,0.26855 -1.92285,0.26855 -1.2998,0 -2.38476,-0.37597 -1.08496,-0.38672 -1.8584,-1.16016 -0.78418,-0.77344 -1.21387,-1.95508 -0.42969,-1.18164 -0.42969,-2.76074 0,-2.94336 1.61133,-4.61914 1.62207,-1.67578 4.27539,-1.67578 1.03125,0 2.01953,0.29004 0.99903,0.29004 1.82618,0.70898 v 2.24512 h -0.10743 q -0.92382,-0.71973 -1.91211,-1.10645 -0.97754,-0.38671 -1.91211,-0.38671 -1.71875,0 -2.71777,1.16015 -0.98828,1.14942 -0.98828,3.38379 0,2.16992 0.9668,3.34082 0.97754,1.16016 2.73925,1.16016 0.61231,0 1.2461,-0.16113 0.63379,-0.16114 1.13867,-0.41895 0.44043,-0.22559 0.82715,-0.47266 0.38672,-0.25781 0.6123,-0.44043 h 0.10743 z"/><path id="path182" d="m 264.625,234.20996 h -8.84082 q 0,1.10645 0.33301,1.93359 0.33301,0.81641 0.91308,1.34278 0.5586,0.51562 1.32129,0.77344 0.77344,0.25781 1.69727,0.25781 1.22461,0 2.45996,-0.4834 1.24609,-0.49414 1.77246,-0.9668 h 0.10742 v 2.20215 q -1.02051,0.42969 -2.08398,0.71973 -1.06348,0.29004 -2.23438,0.29004 -2.98633,0 -4.66211,-1.61133 -1.67578,-1.62207 -1.67578,-4.59766 0,-2.94336 1.60059,-4.67285 1.61133,-1.72949 4.23242,-1.72949 2.42773,0 3.73828,1.41797 1.32129,1.41797 1.32129,4.02832 z m -1.96582,-1.54687 q -0.0107,-1.58985 -0.80566,-2.45997 -0.78418,-0.87011 -2.39551,-0.87011 -1.62207,0 -2.58887,0.95605 -0.95605,0.95606 -1.08496,2.37403 z"/><path id="path184" d="m 276.25879,236.54102 q 0,1.64355 -1.36426,2.69628 -1.35351,1.05274 -3.70605,1.05274 -1.33203,0 -2.44922,-0.31152 -1.10645,-0.32227 -1.8584,-0.69825 v -2.2666 h 0.10742 q 0.95606,0.71973 2.12695,1.14942 1.1709,0.41894 2.24512,0.41894 1.33203,0 2.08399,-0.42969 0.75195,-0.42968 0.75195,-1.35351 0,-0.70899 -0.4082,-1.07422 -0.40821,-0.36524 -1.56836,-0.62305 -0.42969,-0.0967 -1.12793,-0.22558 -0.6875,-0.12891 -1.25684,-0.2793 -1.5791,-0.41895 -2.24512,-1.22461 -0.65527,-0.81641 -0.65527,-1.99805 0,-0.74121 0.30078,-1.39648 0.31152,-0.65527 0.93457,-1.1709 0.60156,-0.50488 1.52539,-0.79492 0.93457,-0.30078 2.08399,-0.30078 1.07422,0 2.16992,0.26855 1.10644,0.25781 1.83691,0.63379 v 2.15918 h -0.10742 q -0.77344,-0.56934 -1.87988,-0.95605 -1.10645,-0.39746 -2.16992,-0.39746 -1.10645,0 -1.86914,0.42968 -0.7627,0.41895 -0.7627,1.25684 0,0.74121 0.46191,1.11719 0.45118,0.37597 1.46094,0.6123 0.5586,0.12891 1.2461,0.25781 0.69824,0.12891 1.16015,0.23633 1.40723,0.32227 2.16992,1.10645 0.7627,0.79492 0.7627,2.10547 z"/><path id="path186" d="m 287.73145,236.54102 q 0,1.64355 -1.36426,2.69628 -1.35352,1.05274 -3.70606,1.05274 -1.33203,0 -2.44922,-0.31152 -1.10644,-0.32227 -1.85839,-0.69825 v -2.2666 h 0.10742 q 0.95605,0.71973 2.12695,1.14942 1.1709,0.41894 2.24512,0.41894 1.33203,0 2.08398,-0.42969 0.75196,-0.42968 0.75196,-1.35351 0,-0.70899 -0.40821,-1.07422 -0.4082,-0.36524 -1.56836,-0.62305 -0.42968,-0.0967 -1.12793,-0.22558 -0.6875,-0.12891 -1.25683,-0.2793 -1.5791,-0.41895 -2.24512,-1.22461 -0.65527,-0.81641 -0.65527,-1.99805 0,-0.74121 0.30078,-1.39648 0.31152,-0.65527 0.93457,-1.1709 0.60156,-0.50488 1.52539,-0.79492 0.93457,-0.30078 2.08398,-0.30078 1.07422,0 2.16992,0.26855 1.10645,0.25781 1.83692,0.63379 v 2.15918 h -0.10742 q -0.77344,-0.56934 -1.87989,-0.95605 -1.10644,-0.39746 -2.16992,-0.39746 -1.10644,0 -1.86914,0.42968 -0.76269,0.41895 -0.76269,1.25684 0,0.74121 0.46191,1.11719 0.45117,0.37597 1.46094,0.6123 0.55859,0.12891 1.24609,0.25781 0.69824,0.12891 1.16016,0.23633 1.40722,0.32227 2.16992,1.10645 0.7627,0.79492 0.7627,2.10547 z"/><path id="path188" d="m 300.8584,234.00586 q 0,2.93262 -1.50391,4.62988 -1.5039,1.69727 -4.02832,1.69727 -2.5459,0 -4.0498,-1.69727 -1.49317,-1.69726 -1.49317,-4.62988 0,-2.93262 1.49317,-4.62988 1.5039,-1.70801 4.0498,-1.70801 2.52442,0 4.02832,1.70801 1.50391,1.69726 1.50391,4.62988 z m -2.08399,0 q 0,-2.33106 -0.91308,-3.45899 -0.91309,-1.13867 -2.53516,-1.13867 -1.64355,0 -2.55664,1.13867 -0.90234,1.12793 -0.90234,3.45899 0,2.25586 0.91308,3.42676 0.91309,1.16015 2.5459,1.16015 1.61133,0 2.52442,-1.14941 0.92382,-1.16016 0.92382,-3.4375 z"/><path id="path190" d="M 311.48242,230.20312 H 311.375 q -0.45117,-0.10742 -0.88086,-0.15039 -0.41894,-0.0537 -0.99902,-0.0537 -0.93457,0 -1.80469,0.41895 -0.87012,0.4082 -1.67578,1.06348 V 240 h -2.01953 v -11.99902 h 2.01953 v 1.77246 q 1.20312,-0.9668 2.11621,-1.36426 0.92383,-0.4082 1.87988,-0.4082 0.52637,0 0.7627,0.0322 0.23633,0.0215 0.70898,0.0967 z"/></g></svg>