<svg xmlns="http://www.w3.org/2000/svg" role="img" viewBox="-32.02 15.48 573.04 518.54"><title>zSublime logo</title><linearGradient id="a" x1="136.178" x2="372.681" y1="369.638" y2="287.81" gradientUnits="userSpaceOnUse"><stop offset=".233" stop-color="#f89822"/><stop offset="1" stop-color="#c27818"/></linearGradient><path fill="#4d4d4e" d="M456.1 473.3H43.9c-9.5 0-17.3-7.8-17.3-17.3V43.9c0-9.5 7.8-17.3 17.3-17.3h412.2c9.5 0 17.3 7.8 17.3 17.3v412.2c-.1 9.5-7.8 17.2-17.3 17.2z"/><path fill="#f89820" d="M129.6 161.5l233.8-74.2s16.6-8.7 12.6 7.4l.6 71.5s2.9 10.5-11.5 13.1l-95 29.7z"/><path fill="#f89820" d="M129.6 161.5s-9.2 2.2-6.5 17.9l-.5 68.9s-.8 8.7 15.7 12.2L370 335.1s7.8 3.1 6.9-6.5l.1-76.8s2.2-7.9-12.2-13.1L270.1 209z"/><path fill="url(#a)" d="M231.7 290.5l-98.6 30.1s-11.9.4-10.5 22.7-.1 67.2-.1 67.2 1 8.3 12.4 3.5l233.8-74.6s8.3-2.1 1.3-4.4c-7-2.2-138.3-44.5-138.3-44.5z"/><path stroke-width=".179" d="M398.04492 490.03906c-2.08916 0-3.68694.59757-4.79297 1.79297-1.10602 1.18423-1.6582 2.8881-1.6582 5.11133v.61914h-2.12891v2.64844h2.12891v16.07031h3.15039v-16.07031h5.58008v-2.64844h-5.68164v-.63672c0-1.56408.30101-2.64226.9043-3.23437.61445-.60329 1.59935-.9043 2.95117-.9043.42453 0 .91601.0563 1.47461.16797.55859.10054 1.01108.20023 1.35742.30078h.16601v-2.88281c-.46922-.0894-.98882-.16735-1.55859-.23438-.5586-.067-1.18874-.0996-1.89258-.0996zm-373.01562.16602v26.07617h2.94922l.20117-.87109c.77086.42453 1.5525.76007 2.3457 1.00586.79321.25695 1.72187.38476 2.7832.38476 1.13954 0 2.1832-.21859 3.13282-.6543.94961-.44688 1.82007-1.11155 2.61328-1.99414.74852-.84906 1.34163-1.89912 1.77734-3.15039.44688-1.25126.66992-2.65858.66992-4.22265 0-3.09464-.64296-5.49132-1.92773-7.18946-1.2736-1.69814-3.01647-2.54687-5.22852-2.54687-1.24009 0-2.35725.2339-3.35156.70312-.9943.45806-1.93187 1.05117-2.81445 1.77735v-9.31836zm21.41601 0v26.07617h3.1504v-26.07617zm232.36719 0v26.07617h3.15039v-6.25l2.04297-1.94531 7.50781 8.19531h4.15625l-9.33398-10.07227 8.69726-8.64648h-3.9707l-9.09961 9.36719v-16.72461zm198.66406 0L465.51172 521.375h2.90039l12.01562-31.16992zm17.66406.60351c-1.72048 0-3.31381.2921-4.77734.87305-1.45235.58094-2.66921 1.41882-3.65234 2.51367-1.02783 1.15072-1.80945 2.53436-2.34571 4.1543-.53625 1.60876-.80468 3.42959-.80468 5.46289 0 2.06681.26843 3.90491.80468 5.51367.54743 1.60877 1.32265 2.96625 2.32813 4.07227 1.00547 1.10602 2.22428 1.95031 3.6543 2.53125 1.44118.58094 3.03896.87109 4.79296.87109 1.79869 0 3.39647-.28569 4.79297-.85547 1.40767-.56976 2.62453-1.4185 3.65235-2.54687.9943-1.08368 1.76507-2.43476 2.3125-4.05469.5586-1.63111.83789-3.47561.83789-5.53125s-.27289-3.89178-.82031-5.51172c-.53626-1.61993-1.31344-2.98827-2.33008-4.10547-.99431-1.08368-2.20671-1.9171-3.63672-2.49804-1.41884-.59212-3.02108-.88868-4.8086-.88868zm-506.62695.0684c-2.71479 0-4.95553.66914-6.7207 2.00977-1.76517 1.32947-2.64649 3.03975-2.64649 5.1289 0 1.82103.53046 3.30186 1.5918 4.44141 1.07251 1.12837 2.71373 1.92531 4.92578 2.39453 1.09486.22344 2.1296.40945 3.10156.55469.98314.14523 1.89258.32929 2.73047.55273 1.10603.29048 1.92664.69758 2.4629 1.22266.54742.52508.82226 1.34124.82226 2.44727 0 1.28478-.57585 2.31311-1.72656 3.08398-1.13954.77087-2.73733 1.15625-4.79297 1.15625-1.45236 0-3.00475-.28569-4.6582-.85547-1.65346-.56977-3.11062-1.37953-4.37305-2.42969h-.23633v4.15625c1.48587.65915 2.94499 1.15508 4.375 1.49024 1.44118.33516 3.06069.50391 4.85938.50391 1.6758 0 3.10678-.20133 4.29101-.60352 1.1954-.40219 2.23906-.96078 3.13281-1.67578.81556-.65915 1.44766-1.46445 1.89453-2.41406.45806-.94962.68555-1.9089.68555-2.88086 0-1.78752-.4678-3.17953-1.40625-4.17383-.93844-.99431-2.3349-1.73695-4.18945-2.22852-.9161-.23461-2.03327-.46406-3.35156-.6875-1.3183-.22344-2.33578-.4139-3.05079-.57031-1.3518-.31281-2.29577-.76531-2.83203-1.35742-.53625-.59212-.80468-1.40631-.80468-2.44531 0-1.16188.53686-2.11226 1.60937-2.84961 1.08368-.73735 2.51272-1.10547 4.28906-1.10547 1.61994 0 3.20241.26843 4.74414.80469 1.5529.52508 2.80234 1.18975 3.75196 1.99414h.23633v-3.92188c-1.12837-.49157-2.42515-.90507-3.88868-1.24023-1.46352-.33516-3.07217-.50196-4.82617-.50196zm531.89844 0c-2.71479 0-4.95553.66914-6.7207 2.00977-1.76517 1.32947-2.64844 3.03975-2.64844 5.1289 0 1.82103.53046 3.30186 1.5918 4.44141 1.07251 1.12837 2.71568 1.92531 4.92773 2.39453 1.09485.22344 2.12764.40945 3.09961.55469.98313.14523 1.89453.32929 2.73242.55273 1.10603.29048 1.92664.69758 2.46289 1.22266.54743.52508.82227 1.34124.82227 2.44727 0 1.28478-.57585 2.31311-1.72657 3.08398-1.13954.77087-2.73732 1.15625-4.79296 1.15625-1.45236 0-3.00475-.28569-4.65821-.85547-1.65344-.56977-3.11256-1.37953-4.375-2.42969h-.23437v4.15625c1.48586.65915 2.94303 1.15508 4.37304 1.49024 1.44119.33516 3.06265.50391 4.86133.50391 1.6758 0 3.10483-.20133 4.28907-.60352 1.1954-.40219 2.241-.96078 3.13476-1.67578.81555-.65915 1.4457-1.46445 1.89258-2.41406.45805-.94962.6875-1.9089.6875-2.88086 0-1.78752-.46976-3.17953-1.4082-4.17383-.93844-.99431-2.3349-1.73695-4.18946-2.22852-.9161-.23461-2.03327-.46406-3.35156-.6875-1.31829-.22344-2.33382-.4139-3.04883-.57031-1.3518-.31281-2.29578-.76531-2.83203-1.35742-.53625-.59212-.80469-1.40631-.80469-2.44531 0-1.16188.53492-2.11226 1.60743-2.84961 1.08368-.73735 2.51466-1.10547 4.29101-1.10547 1.61993 0 3.20046.26843 4.74219.80469 1.55291.52508 2.80429 1.18975 3.7539 1.99414h.23438v-3.92188c-1.12837-.49157-2.42319-.90507-3.88672-1.24023-1.46353-.33516-3.07217-.50196-4.82617-.50196zm-464.7168.28516v3.26758h3.55274v-3.26758zm72.41211.16601v2.94922h8.91602v22.00391h3.3164v-22.00391h8.91602v-2.94922zm65.10547.85547v5.37891h-2.12891v2.64844h2.12891v9.95312c0 2.26791.49593 3.91554 1.49023 4.94336.99431 1.02783 2.44702 1.54297 4.35743 1.54297.54742 0 1.16671-.0498 1.85937-.15039.70384-.10055 1.3532-.23031 1.94531-.38672v-2.83203h-.16796c-.24579.10055-.64844.23031-1.20704.38672-.55859.14523-1.09546.2168-1.60937.2168-.88259 0-1.54086-.0997-1.97656-.30079-.42454-.21226-.76008-.54335-1.00586-.99023-.26815-.48039-.42409-.99359-.46875-1.54102-.0447-.5586-.0664-1.32936-.0664-2.3125v-8.52929h6.50195v-2.64844h-6.50195v-5.37891zm301.94336 1.49219c2.51369 0 4.49687.88131 5.94922 2.64649 1.45236 1.754 2.17969 4.25036 2.17969 7.49023 0 3.27339-.73819 5.78256-2.21289 7.52539-1.46354 1.73166-3.43585 2.59766-5.91602 2.59766-2.48018 0-4.45694-.866-5.93164-2.59766-1.4747-1.74283-2.21289-4.252-2.21289-7.52539 0-3.23987.72092-5.73623 2.16211-7.49023 1.45235-1.76518 3.44638-2.64649 5.98242-2.64649zM74.5332 497.04301c-1.10602 0-2.15163.22945-3.13476.6875-.97196.45805-1.94851 1.0946-2.93164 1.91015v-2.07812h-3.15235v18.71875h3.15235v-13.97656c.86024-.65915 1.71983-1.20047 2.58008-1.625.8714-.42454 1.73741-.63672 2.59765-.63672.90493 0 1.59773.12336 2.07813.36914.4804.23461.84851.59187 1.10547 1.07227.2346.44688.38609 1.04444.45312 1.79296.0782.73735.11719 1.51898.11719 2.34571v10.6582h3.15039v-11.98242c0-.33516-.01086-.66875-.0332-1.00391-.02235-.34632-.05047-.64929-.08398-.90625.88258-.68148 1.7639-1.24007 2.64648-1.67578.88259-.44688 1.76585-.66992 2.64844-.66992.90493 0 1.59773.12336 2.07813.36914.48039.24579.8485.6075 1.10546 1.08789.23462.44688.3861 1.0464.45313 1.79492.0782.74853.11719 1.52375.11719 2.32813v10.6582h3.15039v-12.14844c0-2.23439-.49148-3.9728-1.47461-5.21289-.97196-1.25126-2.48537-1.87695-4.54102-1.87695-1.1954 0-2.31897.2403-3.36914.7207-1.05016.46922-2.21272 1.23999-3.48633 2.3125-.4357-.94962-1.10038-1.69226-1.99414-2.22851-.88258-.53626-1.95881-.80469-3.23242-.80469zm31.93946 0c-2.72596 0-4.92577.90052-6.60157 2.69922-1.66462 1.79868-2.49804 4.22794-2.49804 7.28906 0 3.09463.8724 5.4849 2.61523 7.17187 1.74283 1.6758 4.16568 2.51368 7.27149 2.51368 1.21774 0 2.3803-.15148 3.48632-.45313 1.10603-.30164 2.19062-.67421 3.25196-1.12109v-3.43555h-.16797c-.54743.49157-1.46968.9939-2.76563 1.50781-1.28477.50274-2.56428.75391-3.83789.75391-.96079 0-1.8421-.13422-2.64648-.40234-.79321-.26813-1.48156-.67078-2.0625-1.20703-.60329-.54743-1.0775-1.24468-1.42383-2.09376-.34633-.86024-.51953-1.86686-.51953-3.01757h13.79101v-1.70899c0-2.71478-.68639-4.8085-2.06054-6.2832-1.36298-1.47471-3.30717-2.21289-5.83203-2.21289zm53.69336 0c-2.72596 0-4.92772.90052-6.60352 2.69922-1.66462 1.79868-2.49609 4.22794-2.49609 7.28906 0 3.09463.87045 5.4849 2.61328 7.17187 1.74282 1.6758 4.16763 2.51368 7.27343 2.51368 1.21775 0 2.38031-.15148 3.48633-.45313 1.10603-.30164 2.18867-.67421 3.25-1.12109v-3.43555h-.16797c-.54742.49157-1.46772.9939-2.76367 1.50781-1.28478.50274-2.56429.75391-3.83789.75391-.96079 0-1.84406-.13422-2.64844-.40234-.79321-.26813-1.4796-.67078-2.06054-1.20703-.60329-.54743-1.07945-1.24468-1.42578-2.09376-.34633-.86024-.51954-1.86686-.51954-3.01757h13.79297v-1.70899c0-2.71478-.68639-4.8085-2.06054-6.2832-1.36298-1.47471-3.30717-2.21289-5.83203-2.21289zm67.90234 0c-1.18423 0-2.3014.2403-3.35156.7207-1.039.46922-1.97656 1.05593-2.81446 1.75977v-1.96094h-3.15039v25.62305h3.15039v-7.8418c.81556.44687 1.61445.77601 2.39649.98828.7932.21227 1.67452.31836 2.64648.31836 1.1172 0 2.17366-.22304 3.16797-.66992 1.00547-.45805 1.87593-1.10101 2.61328-1.92774.79321-.87141 1.40805-1.93233 1.84375-3.18359.43572-1.26243.6543-2.65444.6543-4.17383 0-3.0276-.6321-5.38975-1.89453-7.08789-1.25127-1.70931-3.00499-2.56445-5.26172-2.56445zm98.55469 0c-1.02782 0-2.06257.22304-3.10157.66992-1.03899.43571-1.9203 1.05054-2.64648 1.84375-.78204.84907-1.40328 1.86014-1.86133 3.0332-.44688 1.16189-.66992 2.54749-.66992 4.15625 0 2.93824.65382 5.21796 1.96094 6.83789 1.31829 1.60877 3.09373 2.41211 5.32812 2.41211 1.34064 0 2.4425-.18405 3.30274-.55273.87141-.37985 1.78085-.94929 2.73047-1.70898v1.70898c0 .7597-.0844 1.44609-.25196 2.06055-.16758.61446-.44687 1.14046-.83789 1.57617-.39102.45805-.93679.81531-1.64062 1.07226-.70384.25696-1.59351.38477-2.66602.38477-1.11719 0-2.23436-.14953-3.35156-.45117-1.1172-.29048-1.93141-.53719-2.44531-.73828h-.16797v3.21875a21.59103 21.59103 0 0 0 2.78125.58593c.94962.14524 1.92171.2168 2.91601.2168 2.99409 0 5.21117-.74264 6.65235-2.22852 1.44118-1.48587 2.16211-3.81544 2.16211-6.98828V497.5625h-2.94922l-.20117.80469c-.81556-.44688-1.59078-.77602-2.32813-.98828-.72618-.22344-1.63116-.33594-2.71484-.33594zm22.16992 0c-2.72596 0-4.92772.90052-6.60352 2.69922-1.66462 1.79868-2.49609 4.22794-2.49609 7.28906 0 3.09463.87241 5.4849 2.61523 7.17187 1.74283 1.6758 4.16567 2.51368 7.27149 2.51368 1.21774 0 2.3803-.15148 3.48633-.45313 1.10602-.30164 2.18866-.67421 3.25-1.12109v-3.43555h-.16602c-.54743.49157-1.46967.9939-2.76562 1.50781-1.28478.50274-2.56429.75391-3.83789.75391-.96079 0-1.84406-.13422-2.64844-.40234-.79321-.26813-1.4796-.67078-2.06055-1.20703-.60329-.54743-1.0775-1.24468-1.42383-2.09376-.34633-.86023-.51953-1.86686-.51953-3.01757h13.79102v-1.70899c0-2.71478-.6864-4.8085-2.06055-6.2832-1.36298-1.47471-3.30716-2.21289-5.83203-2.21289zm62.02148 0c-2.64776 0-4.75428.88771-6.31836 2.66406-1.5529 1.76517-2.32812 4.17271-2.32812 7.22266 0 3.04994.77522 5.45748 2.32812 7.22265 1.56408 1.76518 3.6706 2.64844 6.31836 2.64844 2.62542 0 4.71913-.88326 6.28321-2.64844 1.56407-1.76517 2.34765-4.17271 2.34765-7.22265 0-3.04995-.78358-5.45749-2.34765-7.22266-1.56408-1.77635-3.65779-2.66406-6.28321-2.66406zm-164.27929.0664c-1.12838 0-2.27366.10164-3.43555.30273-1.16188.20109-2.0496.38515-2.66406.55273v3.20118h.16797c1.08368-.41336 2.13374-.72719 3.15039-.93946 1.01665-.22344 1.93889-.33398 2.76562-.33398.68149 0 1.33531.0434 1.96094.13281.62563.0894 1.16054.26258 1.60742.51953.46923.26813.82649.6382 1.07227 1.10742.25695.46923.38672 1.06039.38672 1.77539v.48633c-1.8322.0894-3.54694.22359-5.14454.40235-1.59759.17875-2.96593.51875-4.10546 1.02148-1.12837.50274-2.00078 1.19554-2.61524 2.07813-.60329.87141-.9043 2.0167-.9043 3.43554 0 1.73166.58671 3.15625 1.75977 4.27344 1.17305 1.1172 2.6021 1.67578 4.28906 1.67578.91611 0 1.715-.0888 2.39649-.26758.68149-.16758 1.28546-.37976 1.81054-.63672.44688-.20109.90383-.46952 1.37305-.80468.4804-.34634.86133-.61476 1.14063-.80469v1.99414h3.13281v-12.70313c0-1.20657-.18406-2.21764-.55274-3.0332-.36867-.81555-.90554-1.48023-1.60937-1.99414-.71501-.52508-1.56374-.8932-2.54688-1.10547-.97196-.22344-2.11726-.33593-3.43554-.33593zm58.85546 0c-1.12837 0-2.27366.10164-3.43554.30273-1.16189.20109-2.05156.38515-2.66602.55273v3.20118h.16797c1.08368-.41336 2.13374-.72719 3.15039-.93946 1.01665-.22344 1.9389-.33398 2.76563-.33398.68149 0 1.33531.0434 1.96093.13281.62564.0894 1.1625.26258 1.60938.51953.46922.26813.82648.6382 1.07226 1.10742.25696.46923.38477 1.06039.38477 1.77539v.48633c-1.83221.0894-3.54694.22359-5.14453.40235-1.59759.17875-2.96592.51875-4.10547 1.02148-1.12837.50274-2.00077 1.19554-2.61523 2.07813-.60329.87141-.9043 2.0167-.9043 3.43554 0 1.73166.5867 3.15625 1.75976 4.27344 1.17306 1.1172 2.60209 1.67578 4.28907 1.67578.9161 0 1.715-.0888 2.39648-.26758.6815-.16758 1.28547-.37976 1.81055-.63672.44688-.20109.90577-.46952 1.375-.80468.48039-.34634.85937-.61476 1.13867-.80469v1.99414h3.13477v-12.70313c0-1.20657-.18601-2.21764-.55469-3.0332-.36867-.81555-.90359-1.48023-1.60742-1.99414-.71501-.52508-1.56374-.8932-2.54688-1.10547-.97196-.22344-2.11725-.33593-3.43555-.33593zm62.45704 0c-1.1954 0-2.28.15788-3.25196.4707-.96079.30164-1.75328.71515-2.3789 1.24023-.64798.53626-1.135 1.14468-1.45899 1.82617-.31282.68149-.46875 1.40687-.46875 2.17774 0 1.22892.33999 2.26812 1.02149 3.11719.69266.8379 1.86162 1.47445 3.5039 1.91015.59212.15641 1.24398.30148 1.95899.43555.72618.13406 1.31288.25297 1.75976.35351 1.20658.26813 2.02274.59086 2.44727.97071.42453.37984.63672.93843.63672 1.67578 0 .96079-.3918 1.66445-1.17383 2.11133-.78204.44688-1.86467.66992-3.25.66992-1.11719 0-2.28421-.21664-3.50195-.65234-1.21775-.44688-2.32406-1.04445-3.31836-1.79297h-.16797v3.53515c.78204.39102 1.74772.75469 2.89844 1.08985 1.16188.32398 2.43693.48632 3.82226.48633 2.44666 0 4.37358-.54773 5.78125-1.64258 1.41884-1.09486 2.12695-2.49772 2.12695-4.20703 0-1.36298-.39624-2.45648-1.18945-3.28321-.79321-.81555-1.92124-1.3914-3.38476-1.72656-.4804-.11172-1.08437-.23507-1.81055-.36914-.71501-.13406-1.36242-.26828-1.94336-.40234-1.05017-.24578-1.81007-.56406-2.2793-.95508-.48039-.39102-.7207-.97132-.7207-1.74219 0-.87141.39819-1.52523 1.19141-1.96094.7932-.44688 1.76334-.66992 2.91406-.66992 1.10602 0 2.236.20577 3.38672.61914 1.15071.40219 2.12726.90008 2.93164 1.49219h.16797v-3.36914c-.7597-.39102-1.71452-.72016-2.86524-.98828-1.13954-.2793-2.26756-.41992-3.38476-.41992zm-99.22461.0176c-2.75948 0-4.98295.8724-6.66993 2.61524-1.67579 1.74282-2.51367 4.14396-2.51367 7.20508 0 1.64228.22305 3.07772.66993 4.30664.44687 1.22892 1.07897 2.2464 1.89453 3.05078.80438.80438 1.77006 1.4064 2.89843 1.80859 1.12837.39102 2.3689.58789 3.72071.58789 1.06134 0 2.06155-.14062 3-.41992.94961-.2793 1.94983-.67109 3-1.17383v-3.46875h-.16797c-.23462.18992-.55289.41938-.95508.6875-.40219.25696-.83297.50368-1.29102.73828-.52508.26813-1.11624.48477-1.77539.65235-.65914.16758-1.30851.25195-1.94531.25195-1.83221 0-3.25679-.60397-4.27344-1.81055-1.00548-1.21774-1.50781-2.95419-1.50781-5.21093 0-2.32378.51515-4.0839 1.54297-5.2793 1.03899-1.20657 2.45076-1.8086 4.23828-1.80859.97196 0 1.96772.19936 2.98438.60156 1.02782.40218 2.02163.97803 2.98242 1.72656h.16797v-3.50195c-.86024-.43571-1.81062-.80383-2.84961-1.10547-1.02782-.30165-2.07788-.45313-3.15039-.45313zm-265.44532.43549v12.15039c0 2.32377.54578 4.08835 1.64063 5.29492 1.09485 1.1954 2.62553 1.79297 4.5918 1.79297 1.17305 0 2.24679-.22304 3.21875-.66992.97196-.44688 1.98749-1.08984 3.04882-1.92774v2.07813h3.1504V497.5625h-3.1504v13.97656c-.8379.65915-1.74288 1.20047-2.71484 1.625-.96079.42454-1.8485.63672-2.66406.63672-.9161 0-1.61336-.11054-2.09375-.33398-.4804-.22344-.87219-.58266-1.17383-1.07422-.29047-.4804-.48094-1.0543-.57031-1.72461-.08938-.68149-.13281-1.49765-.13281-2.44727v-10.6582zm52.71875 0v18.71875h3.15235V497.5625zm114.91016 0l7.24024 9.38477-7.30665 9.33398h3.66993l5.3457-7.18945 5.3125 7.18945h3.9707l-7.35547-9.50195 7.35547-9.2168h-3.68554l-5.29688 7.07227-5.27734-7.07227zm253.53125 0v18.71875h3.15039v-13.28906c.8379-.6815 1.71031-1.23367 2.61524-1.65821.90493-.4357 1.84249-.65429 2.81445-.65429.60329 0 1.12289.0281 1.55859.084.44688.0447.90383.12266 1.37305.23438h.16797v-3.23438c-.49157-.0782-.85969-.12806-1.10547-.15039-.24579-.0335-.64203-.0508-1.18945-.0508-.99431 0-1.97281.21219-2.9336.63672-.94962.41337-2.04952 1.12343-3.30078 2.1289v-2.76562zm25.43945 0v2.63086h10.67383l-10.91015 13.75781v2.33008h15.11718v-2.66406h-11.24609l10.96094-13.8086v-2.24609zm-343.47265 2.07812c1.67579 0 2.92272.4525 3.73828 1.35743.82669.90493 1.24466 2.18443 1.25586 3.83789h-10.72461c.13406-1.4747.69905-2.70882 1.69336-3.70313 1.00548-.9943 2.35014-1.49219 4.03711-1.49219zm53.69336 0c1.67579 0 2.92077.4525 3.73633 1.35743.8267.90493 1.24661 2.18443 1.25781 3.83789h-10.72657c.13406-1.4747.69906-2.70882 1.69336-3.70313 1.00548-.9943 2.3521-1.49219 4.03907-1.49219zm188.62695 0c1.6758 0 2.92273.4525 3.73828 1.35743.82669.90493 1.24466 2.18443 1.25586 3.83789h-10.72461c.13407-1.4747.69711-2.70882 1.69141-3.70313 1.00548-.9943 2.35209-1.49219 4.03906-1.49219zm62.18945.11719c1.68697 0 3.00546.59311 3.95508 1.77735.94962 1.17305 1.42383 2.97021 1.42383 5.39453 0 2.36846-.48061 4.15671-1.44141 5.36328-.94962 1.1954-2.2617 1.79297-3.9375 1.79297-1.69814 0-3.02303-.60398-3.97265-1.81055-.94962-1.21775-1.42383-2.99959-1.42383-5.3457 0-2.42432.46976-4.22148 1.4082-5.39453.94962-1.18424 2.27897-1.77735 3.98828-1.77735zm-83.63867.11719c.71501 0 1.42953.0844 2.14453.25195.72618.15641 1.50781.42484 2.34571.80469v10.20508c-.77087.59211-1.61961 1.06632-2.54688 1.42383-.91611.34632-1.83195.51953-2.74805.51953-1.70931 0-2.93257-.54132-3.66992-1.625-.73735-1.08368-1.10547-2.67506-1.10547-4.77539 0-2.21205.49593-3.90062 1.49024-5.0625.9943-1.16189 2.35819-1.74219 4.08984-1.74219zm-293.5996.16797c1.64227 0 2.831.5803 3.56835 1.74219.73735 1.15071 1.10742 2.84373 1.10742 5.07812 0 2.44666-.49788 4.24577-1.49218 5.39649-.98314 1.13954-2.34702 1.70898-4.08985 1.70898-.81555 0-1.54734-.078-2.19531-.23437-.6368-.15641-1.40116-.4357-2.29492-.8379v-10.7246c.80438-.62564 1.67679-1.13438 2.61523-1.5254.93845-.40219 1.86515-.60351 2.78125-.60351zm193.68749 0c1.5976 0 2.78187.55858 3.55274 1.67578.77086 1.11719 1.15625 2.80381 1.15625 5.06055 0 2.32376-.49148 4.07748-1.47461 5.26172-.98314 1.18422-2.35147 1.77734-4.10547 1.77734-.81556 0-1.54734-.0735-2.19531-.21875-.63681-.14523-1.40117-.41812-2.29493-.82031v-10.60742c.8379-.63681 1.71476-1.15195 2.63086-1.54297.9161-.39102 1.82555-.58594 2.73047-.58594zm24.28321 6.41797v5.21289c-.78204.60328-1.63078 1.12093-2.54688 1.55664-.91611.42454-1.92718.63867-3.0332.63867-1.32946 0-2.31883-.26843-2.9668-.80469-.64798-.54742-.97266-1.35718-.97266-2.42968 0-.94962.27929-1.69422.83789-2.23047.5586-.54743 1.29039-.94813 2.19532-1.20508.7597-.21227 1.78803-.37461 3.08398-.48633 1.30712-.11171 2.44156-.19609 3.40235-.25195zm58.85351 0v5.21289c-.78204.60328-1.63077 1.12093-2.54687 1.55664-.9161.42454-1.92718.63867-3.03321.63867-1.32946 0-2.31882-.26843-2.96679-.80469-.64798-.54742-.97071-1.35718-.97071-2.42968 0-.94962.2793-1.69422.83789-2.23047.5586-.54743 1.29038-.94813 2.19532-1.20508.75969-.21227 1.78608-.37461 3.08203-.48633 1.30712-.11171 2.44155-.19609 3.40234-.25195z"/></svg>