<svg xmlns="http://www.w3.org/2000/svg" role="img" viewBox="1.08 4.08 1035.84 306.84"><title>Zowe logo</title><path d="M431.328 206.211h98.543v26.94H393.346v-21.147l91.7-126.504h-86.87V58.57h126.596v20.013zm153.387-38.406c0 27.122 13.479 42.579 35.39 42.579 22.045 0 35.392-15.727 35.392-42.579s-13.347-42.583-35.391-42.583c-21.912 0-35.391 15.462-35.391 42.583m101.325 0c0 48.12-32.252 69.038-65.934 69.038-33.687 0-65.943-20.919-65.943-69.038s32.256-69.038 65.943-69.038c33.682 0 65.934 20.919 65.934 69.038m152.984 65.347h-19.757l-29.925-87.069-31.62 87.064h-19.753l-42.393-130.689h29.651l25.33 90.95 30.264-90.95h19.586l29.368 92.027 27.064-92.027h28.972zm150.531-75.131c-.897-21.73-12.561-35.58-31.166-35.58-18.362 0-30.843 11.258-33.046 35.585zm27.523 2.574a94.501 94.501 0 0 1-1.558 17.594h-89.678c3.567 24.923 17.951 34.173 37.267 34.173a57.798 57.798 0 0 0 37.205-13.259l12.45 19.47c-13.518 11.435-30.741 18.27-54.128 18.27-34.194 0-63.01-22.031-63.01-68.407 0-42.552 25.125-69.669 62.03-69.669 40.137 0 59.426 30.345 59.426 61.824z"/><path fill="#488eff" d="M291.107 179.836l-134.994 94.521a9.943 9.943 0 0 1-15.607-8.9l15.042-194.915L45.243 147.78l90.248 128.892a9.943 9.943 0 0 1-16.283 11.4L23.265 151.04a9.934 9.934 0 0 1 2.434-13.836l.008-.005L161.37 42.202a9.934 9.934 0 0 1 15.608 8.905l-15.038 194.91 110.305-77.236-89.77-128.212a9.938 9.938 0 1 1 15.994-11.8q.147.198.283.405l94.998 135.669a11.472 11.472 0 0 1-2.644 14.993"/></svg>