<svg xmlns="http://www.w3.org/2000/svg" role="img" viewBox="103.94 -20.06 1043.12 486.12"><title>Zowe logo</title><defs><clipPath id="a" clipPathUnits="userSpaceOnUse"><path d="M0 335h846V0H0z"/></clipPath></defs><path fill="#488eff" d="M546.667 446.667h290.666V0H546.667z"/><path d="M837.333 446.667H1128V0H837.333z"/><g clip-path="url(#a)" transform="matrix(1.33333 0 0 -1.33333 0 446.667)"><path fill="#fff" d="M551.249 161.484l-30.576-21.409a2.252 2.252 0 0 0-3.535 2.016l3.407 44.148-24.984-17.494 20.441-29.194a2.252 2.252 0 0 0-3.688-2.582l-21.731 31.037a2.25 2.25 0 0 0 .553 3.135l30.728 21.517a2.25 2.25 0 0 0 3.535-2.017l-3.406-44.147 24.984 17.494-20.333 29.04a2.251 2.251 0 1 0 3.687 2.581l21.517-30.729a2.246 2.246 0 0 0 .345-1.812 2.243 2.243 0 0 0-.944-1.584"/><path fill="#fff" d="M102.249 59.484L71.673 38.075a2.252 2.252 0 0 0-3.535 2.016l3.407 44.148-24.984-17.494 20.441-29.194a2.252 2.252 0 0 0-3.688-2.582L41.583 66.006a2.25 2.25 0 0 0 .553 3.135l30.728 21.517a2.25 2.25 0 0 0 3.535-2.017l-3.406-44.147 24.984 17.494-20.333 29.04a2.251 2.251 0 1 0 3.687 2.581l21.517-30.729a2.246 2.246 0 0 0 .345-1.812 2.243 2.243 0 0 0-.944-1.584"/><path fill="#488eff" d="M769.249 160.484l-30.576-21.409a2.252 2.252 0 0 0-3.535 2.016l3.407 44.148-24.984-17.494 20.441-29.194a2.252 2.252 0 0 0-3.688-2.582l-21.731 31.037a2.25 2.25 0 0 0 .553 3.135l30.728 21.517a2.25 2.25 0 0 0 3.535-2.017l-3.406-44.147 24.984 17.494-20.333 29.04a2.251 2.251 0 1 0 3.687 2.581l21.517-30.729a2.246 2.246 0 0 0 .345-1.812 2.243 2.243 0 0 0-.944-1.584"/><path fill="#488eff" d="M374.249 59.484l-30.576-21.409a2.252 2.252 0 0 0-3.535 2.016l3.407 44.148-24.984-17.494 20.441-29.194a2.252 2.252 0 0 0-3.688-2.582l-21.731 31.037a2.25 2.25 0 0 0 .553 3.135l30.728 21.517a2.25 2.25 0 0 0 3.535-2.017l-3.406-44.147 24.984 17.494-20.333 29.04a2.251 2.251 0 1 0 3.687 2.581l21.517-30.729a2.246 2.246 0 0 0 .345-1.812 2.243 2.243 0 0 0-.944-1.584"/><path d="M186.009 257.51h22.32v-6.102h-30.923v4.79l20.77 28.653H178.5v6.1h28.674v-4.533z"/><path d="M220.751 266.209c0-6.143 3.053-9.644 8.016-9.644 4.993 0 8.016 3.562 8.016 9.644 0 6.082-3.023 9.645-8.016 9.645-4.963 0-8.016-3.502-8.016-9.645m22.95 0c0-10.899-7.305-15.637-14.934-15.637-7.63 0-14.936 4.738-14.936 15.637 0 10.899 7.306 15.637 14.936 15.637 7.629 0 14.934-4.738 14.934-15.637"/><path d="M278.352 251.408h-4.475l-6.778 19.721-7.162-19.72h-4.474l-9.602 29.601h6.716l5.737-20.6 6.855 20.6h4.436l6.652-20.844 6.13 20.844h6.562z"/><path d="M312.447 268.425c-.203 4.922-2.845 8.059-7.059 8.059-4.159 0-6.986-2.55-7.485-8.06zm6.234-.583c0-1.306-.108-2.744-.353-3.985h-20.312c.808-5.645 4.066-7.74 8.441-7.74 3.516 0 6.364 1.3 8.427 3.003l2.82-4.41c-3.062-2.59-6.963-4.138-12.26-4.138-7.745 0-14.272 4.99-14.272 15.494 0 9.638 5.691 15.78 14.05 15.78 9.091 0 13.46-6.873 13.46-14.003z"/><path d="M154.249 263.484l-30.576-21.409a2.252 2.252 0 0 0-3.535 2.016l3.407 44.148-24.984-17.494 20.441-29.194a2.252 2.252 0 0 0-3.688-2.582l-21.731 31.037a2.25 2.25 0 0 0 .553 3.135l30.728 21.517a2.25 2.25 0 0 0 3.535-2.017l-3.406-44.147 24.984 17.494-20.333 29.04a2.251 2.251 0 1 0 3.687 2.581l21.517-30.729a2.246 2.246 0 0 0 .345-1.812 2.243 2.243 0 0 0-.944-1.584"/><path d="M238.249 59.484l-30.576-21.409a2.252 2.252 0 0 0-3.535 2.016l3.407 44.148-24.984-17.494 20.441-29.194a2.252 2.252 0 0 0-3.688-2.582l-21.731 31.037a2.25 2.25 0 0 0 .553 3.135l30.728 21.517a2.25 2.25 0 0 0 3.535-2.017l-3.406-44.147 24.984 17.494-20.333 29.04a2.251 2.251 0 1 0 3.687 2.581l21.517-30.729a2.246 2.246 0 0 0 .345-1.812 2.243 2.243 0 0 0-.944-1.584"/><path d="M188.009 159.51h22.32v-6.102h-30.923v4.79l20.77 28.653H180.5v6.1h28.674v-4.533z"/><path d="M222.751 168.209c0-6.143 3.053-9.644 8.016-9.644 4.993 0 8.016 3.562 8.016 9.644 0 6.082-3.023 9.645-8.016 9.645-4.963 0-8.016-3.502-8.016-9.645m22.95 0c0-10.899-7.305-15.637-14.934-15.637-7.63 0-14.936 4.738-14.936 15.637 0 10.899 7.306 15.637 14.936 15.637 7.629 0 14.934-4.738 14.934-15.637"/><path d="M280.352 153.408h-4.475l-6.778 19.721-7.162-19.72h-4.474l-9.602 29.601h6.716l5.737-20.6 6.855 20.6h4.436l6.652-20.844 6.13 20.844h6.562z"/><path d="M314.447 170.425c-.203 4.922-2.845 8.059-7.059 8.059-4.159 0-6.986-2.55-7.485-8.06zm6.234-.583c0-1.306-.108-2.744-.353-3.985h-20.312c.808-5.645 4.066-7.74 8.441-7.74 3.516 0 6.364 1.3 8.427 3.003l2.82-4.41c-3.062-2.59-6.963-4.138-12.26-4.138-7.745 0-14.272 4.99-14.272 15.494 0 9.638 5.691 15.78 14.05 15.78 9.091 0 13.46-6.873 13.46-14.003z"/><path fill="#488eff" d="M156.249 165.484l-30.576-21.409a2.252 2.252 0 0 0-3.535 2.016l3.407 44.148-24.984-17.494 20.441-29.194a2.252 2.252 0 0 0-3.688-2.582l-21.731 31.037a2.25 2.25 0 0 0 .553 3.135l30.728 21.517a2.25 2.25 0 0 0 3.535-2.017l-3.406-44.147 24.984 17.494-20.333 29.04a2.251 2.251 0 1 0 3.687 2.581l21.517-30.729a2.246 2.246 0 0 0 .345-1.812 2.243 2.243 0 0 0-.944-1.584"/></g></svg>