<svg xmlns="http://www.w3.org/2000/svg" role="img" viewBox="-19.90 -19.90 1034.80 420.80"><title>Zowe CLI CICS deploy plug-in logo</title><path d="M409.862 181.49h98.543v26.94H371.879v-21.147l91.7-126.504h-86.87V33.847h126.597v20.014zm153.386-38.406c0 27.121 13.48 42.578 35.391 42.578 22.045 0 35.391-15.726 35.391-42.578 0-26.852-13.346-42.583-35.39-42.583-21.912 0-35.392 15.461-35.392 42.583m101.325 0c0 48.12-32.251 69.038-65.934 69.038-33.686 0-65.943-20.919-65.943-69.038 0-48.12 32.257-69.038 65.943-69.038 33.682 0 65.934 20.919 65.934 69.038m152.985 65.346h-19.757l-29.925-87.068-31.62 87.064h-19.753L674.11 77.737h29.651l25.329 90.95 30.265-90.95h19.585l29.369 92.027 27.064-92.027h28.971zm150.53-75.13c-.896-21.73-12.56-35.58-31.165-35.58-18.362 0-30.844 11.258-33.047 35.584zm27.524 2.574a94.501 94.501 0 0 1-1.559 17.594h-89.678c3.568 24.923 17.952 34.172 37.267 34.172a57.798 57.798 0 0 0 37.206-13.258l12.45 19.47c-13.519 11.435-30.742 18.27-54.128 18.27-34.194 0-63.011-22.031-63.011-68.407 0-42.552 25.126-69.669 62.03-69.669 40.138 0 59.427 30.345 59.427 61.824z"/><path fill="#488eff" d="M269.64 155.115l-134.993 94.521a9.943 9.943 0 0 1-15.607-8.9L134.082 45.82 23.777 123.057l90.247 128.892a9.943 9.943 0 0 1-16.282 11.4L1.799 126.32a9.934 9.934 0 0 1 2.434-13.836l.007-.005 135.665-94.998a9.934 9.934 0 0 1 15.607 8.905l-15.037 194.91 110.304-77.236-89.77-128.213a9.938 9.938 0 1 1 15.995-11.8q.146.2.283.405l94.998 135.67a11.472 11.472 0 0 1-2.645 14.993"/><path d="M364.434 299.453v20.166c-2.084-1.083-4.069-1.875-5.957-2.375-1.89-.528-4.056-.79-6.5-.79-2.695 0-5.307.554-7.834 1.665-2.5 1.111-4.696 2.723-6.584 4.834-1.917 2.167-3.444 4.792-4.582 7.875-1.112 3.083-1.668 6.597-1.668 10.541 0 7.583 1.625 13.513 4.875 17.791 3.277 4.278 7.694 6.418 13.25 6.418 2.86 0 5.514-.542 7.959-1.625 2.444-1.083 4.79-2.598 7.04-4.543v4.875h7.835v-64.832zm127.334 0v64.832h7.834v-64.832zm209 0v64.832h7.834v-64.832zm-582.416 1.666c-4.556 0-8.71.708-12.46 2.125-3.722 1.417-6.902 3.472-9.54 6.166-2.723 2.778-4.806 6.181-6.25 10.21-1.445 4.027-2.168 8.597-2.168 13.708 0 5.389.75 10.124 2.25 14.207 1.5 4.056 3.583 7.404 6.25 10.043 2.722 2.695 5.917 4.68 9.584 5.957 3.694 1.25 7.79 1.875 12.29 1.875 2.39 0 4.571-.193 6.544-.582 2-.361 3.846-.806 5.54-1.334 2-.639 3.612-1.25 4.835-1.834 1.25-.583 2.638-1.208 4.166-1.875v-9.666h-.584c-3.028 2.722-6.278 4.764-9.75 6.125-3.473 1.361-7.194 2.041-11.166 2.041-2.89 0-5.64-.485-8.25-1.457-2.584-1-4.847-2.528-6.791-4.584-1.862-1.972-3.39-4.527-4.584-7.666-1.167-3.139-1.75-6.889-1.75-11.25 0-4.167.528-7.833 1.584-11 1.083-3.194 2.583-5.835 4.5-7.918 1.972-2.139 4.207-3.707 6.707-4.707 2.527-1.028 5.36-1.543 8.5-1.543 3.833 0 7.431.654 10.793 1.96 3.36 1.305 6.749 3.388 10.166 6.25h.625v-9.792c-4.056-2.028-7.751-3.444-11.084-4.25a41.91 41.91 0 0 0-9.957-1.209zm95.666 0c-4.556 0-8.71.708-12.46 2.125-3.722 1.417-6.902 3.472-9.54 6.166-2.723 2.778-4.806 6.181-6.25 10.21-1.445 4.027-2.166 8.597-2.166 13.708 0 5.389.75 10.124 2.25 14.207 1.5 4.056 3.583 7.404 6.25 10.043 2.722 2.695 5.915 4.68 9.582 5.957 3.694 1.25 7.793 1.875 12.293 1.875 2.388 0 4.568-.193 6.54-.582 2-.361 3.847-.806 5.542-1.334 2-.639 3.611-1.25 4.834-1.834 1.25-.583 2.638-1.208 4.166-1.875v-9.666h-.582c-3.028 2.722-6.278 4.764-9.75 6.125-3.473 1.361-7.196 2.041-11.168 2.041-2.89 0-5.64-.485-8.25-1.457-2.584-1-4.847-2.528-6.791-4.584-1.862-1.972-3.39-4.527-4.584-7.666-1.167-3.139-1.75-6.889-1.75-11.25 0-4.167.528-7.833 1.584-11 1.083-3.194 2.583-5.835 4.5-7.918 1.972-2.139 4.209-3.707 6.709-4.707 2.527-1.028 5.36-1.543 8.5-1.543 3.833 0 7.43.654 10.79 1.96 3.362 1.305 6.75 3.388 10.167 6.25h.625v-9.792c-4.056-2.028-7.75-3.444-11.082-4.25a41.925 41.925 0 0 0-9.96-1.209zm53.709 0c-6.75 0-12.32 1.667-16.71 5-4.388 3.306-6.583 7.556-6.583 12.75 0 4.528 1.32 8.208 3.959 11.041 2.666 2.806 6.75 4.792 12.25 5.96a148.24 148.24 0 0 0 7.709 1.374c2.444.361 4.707.82 6.79 1.375 2.75.722 4.792 1.736 6.126 3.041 1.36 1.306 2.04 3.334 2.04 6.084 0 3.195-1.43 5.75-4.29 7.666-2.834 1.917-6.805 2.875-11.916 2.875-3.612 0-7.473-.708-11.584-2.125-4.112-1.417-7.737-3.43-10.875-6.04h-.584v10.333c3.694 1.639 7.319 2.874 10.875 3.707 3.583.833 7.611 1.25 12.084 1.25 4.166 0 7.721-.5 10.666-1.5 2.972-1 5.57-2.388 7.793-4.166a16.83 16.83 0 0 0 4.707-6c1.138-2.361 1.709-4.75 1.709-7.166 0-4.444-1.167-7.903-3.5-10.375-2.334-2.472-5.805-4.32-10.416-5.543-2.278-.583-5.057-1.151-8.334-1.707-3.278-.555-5.807-1.029-7.584-1.418-3.362-.778-5.708-1.903-7.041-3.375-1.334-1.472-2-3.499-2-6.082 0-2.889 1.333-5.25 4-7.084 2.694-1.833 6.249-2.75 10.666-2.75 4.027 0 7.96.667 11.793 2 3.86 1.306 6.97 2.96 9.332 4.96h.584v-9.75c-2.806-1.223-6.028-2.252-9.666-3.085-3.64-.833-7.64-1.25-12-1.25zm602.04.71v8.124h8.835v-8.125zm-721.25.415v6.334h8.126v49.375h-8.125v6.332h24.5v-6.332h-8.125v-49.375h8.125v-6.334zm258.5 14.21c-6.777 0-12.249 2.234-16.415 6.706-4.14 4.472-6.21 10.514-6.21 18.125 0 7.695 2.167 13.64 6.5 17.834 4.334 4.167 10.362 6.25 18.085 6.25 3.027 0 5.916-.375 8.666-1.125s5.445-1.68 8.084-2.79v-8.544h-.418c-1.362 1.222-3.653 2.472-6.875 3.75-3.195 1.25-6.375 1.875-9.541 1.875-2.39 0-4.584-.333-6.584-1-1.973-.667-3.681-1.667-5.125-3-1.5-1.361-2.68-3.096-3.541-5.207-.862-2.139-1.291-4.639-1.291-7.5h34.29v-4.25c0-6.75-1.708-11.958-5.124-15.625-3.39-3.667-8.223-5.5-14.5-5.5zm54.667 0c-2.945 0-5.721.596-8.332 1.79a30.04 30.04 0 0 0-7 4.375v-4.875h-7.834v63.71h7.834v-19.5c2.027 1.11 4.012 1.928 5.957 2.456 1.972.528 4.167.793 6.584.793 2.777 0 5.402-.557 7.875-1.668a19.389 19.389 0 0 0 6.5-4.79c1.972-2.168 3.5-4.806 4.584-7.917 1.083-3.139 1.625-6.597 1.625-10.375 0-7.528-1.57-13.403-4.71-17.625-3.11-4.25-7.472-6.375-13.083-6.375zm71.709 0c-6.584 0-11.82 2.207-15.71 6.624-3.86 4.389-5.79 10.374-5.79 17.957s1.93 13.57 5.79 17.96c3.89 4.388 9.126 6.583 15.71 6.583 6.527 0 11.736-2.195 15.625-6.584 3.888-4.389 5.834-10.376 5.834-17.959s-1.946-13.568-5.834-17.957c-3.89-4.417-9.098-6.625-15.625-6.625zm137.29 0c-2.944 0-5.72.596-8.331 1.79a30.039 30.039 0 0 0-7 4.375v-4.875h-7.834v63.71h7.834v-19.5c2.027 1.11 4.012 1.928 5.957 2.456 1.972.528 4.167.793 6.584.793 2.777 0 5.402-.557 7.875-1.668a19.389 19.389 0 0 0 6.5-4.79c1.972-2.168 3.5-4.806 4.584-7.917 1.083-3.139 1.625-6.597 1.625-10.375 0-7.528-1.57-13.403-4.71-17.625-3.11-4.25-7.472-6.375-13.083-6.375zm124.876 0c-2.556 0-5.124.554-7.707 1.665-2.584 1.083-4.779 2.612-6.584 4.584-1.945 2.111-3.487 4.624-4.625 7.541-1.112 2.889-1.666 6.334-1.666 10.334 0 7.306 1.625 12.972 4.875 17 3.277 4 7.694 6 13.25 6 3.333 0 6.068-.458 8.207-1.375 2.166-.944 4.431-2.361 6.793-4.25v4.25c0 1.889-.209 3.597-.625 5.125-.417 1.528-1.112 2.833-2.084 3.916-.973 1.139-2.334 2.027-4.084 2.666-1.75.639-3.959.96-6.625.96-2.778 0-5.555-.376-8.332-1.126-2.778-.722-4.807-1.334-6.084-1.834h-.416v8a53.703 53.703 0 0 0 6.916 1.46c2.36.36 4.777.54 7.25.54 7.444 0 12.957-1.846 16.54-5.54 3.584-3.695 5.376-9.487 5.376-17.376v-41.25h-7.332l-.5 2c-2.028-1.111-3.96-1.931-5.793-2.459-1.806-.555-4.056-.832-6.75-.832zm121.584 0c-2.75 0-5.43.567-8.041 1.706-2.612 1.139-5.14 2.722-7.584 4.75v-5.166h-7.834v46.541h7.834v-34.75a34.184 34.184 0 0 1 6.709-4.04c2.333-1.056 4.568-1.585 6.707-1.585 2.083 0 3.778.292 5.084.875 1.305.556 2.305 1.417 3 2.584.666 1.056 1.125 2.527 1.375 4.416.25 1.861.375 3.861.375 6v26.5h7.834v-30.207c0-5.694-1.32-10.056-3.96-13.084-2.638-3.028-6.472-4.54-11.5-4.54zm-355.291 1.29l18.54 44.291-8.665 19.418h8.375l27.166-63.709h-8.21l-14.415 34.5-14.291-34.5zm162 0v30.21c0 5.777 1.36 10.165 4.082 13.165 2.722 2.972 6.529 4.46 11.418 4.46 2.916 0 5.583-.558 8-1.669 2.416-1.111 4.943-2.708 7.582-4.79v5.165h7.834v-46.54h-7.834v34.75a30.84 30.84 0 0 1-6.75 4.04c-2.39 1.056-4.598 1.584-6.625 1.584-2.278 0-4.013-.278-5.207-.834-1.195-.555-2.168-1.444-2.918-2.666-.723-1.194-1.194-2.624-1.416-4.29-.223-1.695-.334-3.724-.334-6.085v-26.5zm146.416 0v46.541h7.834v-46.54zm-463.666 5.166c4.166 0 7.263 1.125 9.29 3.375 2.056 2.25 3.098 5.432 3.126 9.543h-26.666c.333-3.667 1.734-6.737 4.207-9.209 2.5-2.472 5.848-3.709 10.043-3.709zm126.79.293c4.195 0 7.473 1.472 9.835 4.416 2.36 2.917 3.54 7.388 3.54 13.416 0 5.889-1.195 10.334-3.583 13.334-2.362 2.972-5.625 4.46-9.791 4.46-4.223 0-7.514-1.5-9.875-4.5-2.362-3.029-3.541-7.46-3.541-13.294 0-6.028 1.166-10.5 3.5-13.416 2.36-2.944 5.666-4.416 9.916-4.416zm263.542.291c1.777 0 3.556.208 5.334.625 1.805.389 3.75 1.056 5.834 2v25.375a25.244 25.244 0 0 1-6.334 3.541c-2.278.861-4.557 1.293-6.834 1.293-4.25 0-7.292-1.348-9.125-4.043-1.834-2.694-2.75-6.653-2.75-11.875 0-5.5 1.236-9.693 3.709-12.582 2.472-2.889 5.86-4.334 10.166-4.334zm-443.625.125c1.972 0 3.792.18 5.459.541 1.666.361 3.554 1.015 5.666 1.96v26.708a29.226 29.226 0 0 1-6.375 3.832c-2.278.972-4.528 1.46-6.75 1.46-4.167 0-7.194-1.43-9.082-4.292-1.89-2.889-2.834-7.097-2.834-12.625 0-5.611 1.221-9.944 3.666-13 2.444-3.055 5.86-4.584 10.25-4.584zm106.375.291c3.972 0 6.917 1.39 8.834 4.168 1.916 2.778 2.875 6.971 2.875 12.582 0 5.778-1.222 10.14-3.666 13.084-2.445 2.945-5.848 4.416-10.21 4.416-2.027 0-3.847-.18-5.458-.54-1.584-.362-3.485-1.042-5.707-2.042v-26.375c2.083-1.583 4.263-2.862 6.54-3.834 2.278-.972 4.542-1.459 6.792-1.459zm209 0c3.972 0 6.917 1.39 8.834 4.168 1.916 2.778 2.875 6.971 2.875 12.582 0 5.778-1.222 10.14-3.666 13.084-2.445 2.945-5.848 4.416-10.21 4.416-2.027 0-3.847-.18-5.458-.54-1.584-.362-3.485-1.042-5.707-2.042v-26.375c2.083-1.583 4.263-2.862 6.54-3.834 2.278-.972 4.542-1.459 6.792-1.459zm161.334 9.46v7.54h26v-7.54z"/></svg>