<svg xmlns="http://www.w3.org/2000/svg" role="img" viewBox="-7.99 -7.99 415.48 232.23"><title>Zowe CLI CICS deploy plug-in (CLI 2019) logo</title><style>.st3{fill:#4c83c3}</style><style>.st3{fill:#4c83c3}</style><style>.st3{fill:#4c83c3}</style><style>.st3{fill:#4c83c3}</style><style id="style2" type="text/css">.st3{fill:#4c83c3}</style><g id="g56" transform="translate(-2.7 -2.7)"><path id="path12" fill="#4c83c3" d="M397.3 14h-65.7l4.1-11.3h61.6zM222.1 2.7h61l4 11.4h-65c.1-.1 0-11.4 0-11.4zm-48.3 0c10 1 18.8 4.6 26.3 11.4H89.5V2.7z" class="st3"/><path id="path14" fill="#4c83c3" d="M2.7 2.7h76.8V14H2.7z" class="st3"/><path id="path16" fill="#4c83c3" d="M397.3 35.3h-73.2l4-11.3h69.3v11.3zm-102.5 0h-72.6V24h68.6zM208.6 24c1.5 3.8 3.2 6.9 3.2 11.3H89.5V24z" class="st3"/><path id="path18" fill="#4c83c3" d="M2.7 24h76.8v11.3H2.7z" class="st3"/><path id="path20" fill="#4c83c3" d="M316.6 56.6l4.1-11.3h55v11.3zm-18.4-11.3l4.1 11.3h-58.5V45.3zm-85.5-.1c0 3.9-.5 7.9-1.6 11.3h-33.5V45.2z" class="st3"/><path id="path22" fill="#4c83c3" d="M24.1 45.3h33v11.3h-33z" class="st3"/><path id="path24" fill="#4c83c3" d="M111.7 45.2h33v11.3h-33z" class="st3"/><path id="path26" fill="#4c83c3" d="M276.2 68.8v8.6h-32.5V66.2h61.8l3.9 10.5 3.7-10.5h62.3v11.3h-32.3v-8.6l-3 8.6h-61zm-164.5-2.6h94.6c-2.1 3.8-5.8 8.3-9.4 11.3h-85.2z" class="st3"/><path id="path28" fill="#4c83c3" d="M24.1 66.2h33v11.3h-33z" class="st3"/><path id="path30" fill="#4c83c3" d="M343.3 87.5h32.3v11.3h-32.3z" class="st3"/><path id="path32" fill="#4c83c3" d="M276.2 87.5h-32.5v11.3h32.5c0-.2.1-11.3 0-11.3zm60.6 0c-.1 0-3.8 11.3-4 11.3h-46l-4.1-11.3zm-225.1 0h85c3.9 3.3 7.4 7.2 10.1 11.3h-95.2c.1-.2.1-11.3.1-11.3zM57.1 98.6V87.4H24.2v11.3h32.9z" class="st3"/><path id="path34" fill="#4c83c3" d="M343.3 108.7h32.3V120h-32.3z" class="st3"/><path id="path36" fill="#4c83c3" d="M243.8 108.7h32.5V120h-32.5z" class="st3"/><path id="path38" fill="#4c83c3" d="M325.3 119.9c0-.1 4-11.3 4.1-11.3h-39.1c-.1 0 4 11.3 4 11.3s31 .1 31 0zm-213.6 0v-11.3h33.5v11.3zm99.8-11.2c1.6 3.4 1.8 7.4 2.1 11.3h-35.5v-11.3z" class="st3"/><path id="path40" fill="#4c83c3" d="M24.2 108.7h33V120h-33z" class="st3"/><path id="path42" fill="#4c83c3" d="M343.3 129.5h54v11.3h-54z" class="st3"/><path id="path44" fill="#4c83c3" d="M222.1 129.5h54.1v11.3h-54.1z" class="st3"/><path id="path46" fill="#4c83c3" d="M317.9 140.8h-16.4l-4-11.3h24.3zM2.7 129.5v11.3h76.8v-11.3zm209.5 0c-.8 3.8-1.6 8.2-4.3 11.3H89.5v-11.3zm98.3 32.6H309l-3.9-11.3h9.3z" class="st3"/><path id="path48" fill="#4c83c3" d="M343.3 150.8h54v11.3h-54z" class="st3"/><path id="path50" fill="#4c83c3" d="M89.5 162.1v-11.3h111.2c-7.4 7.1-17.6 11.1-28.6 11.3H89.5" class="st3"/><path id="path52" fill="#4c83c3" d="M222.1 150.8h54.1v11.3h-54.1z" class="st3"/><path id="path54" fill="#4c83c3" d="M79.5 150.8v11.3H2.7v-11.3s76.7.1 76.8 0z" class="st3"/></g><g id="text73" fill="#000" fill-opacity="1" stroke="none" transform="translate(-292.968 -151.953)"><g id="text74" fill="#000" fill-opacity="1" stroke="none"><path id="path122" d="M514.99219 342.70703v6.30274c-.65104-.33855-1.273-.58595-1.86328-.74219-.59028-.16494-1.26737-.24805-2.03125-.24805-.84202 0-1.65734.17426-2.44727.52149-.78125.34722-1.46636.85004-2.05664 1.50976-.59896.67709-1.07769 1.4974-1.43359 2.46094-.34723.96355-.51953 2.06228-.51954 3.29492 0 2.36979.50782 4.22179 1.52344 5.55859 1.02431 1.33681 2.40451 2.00586 4.14063 2.00586.8941 0 1.72243-.16927 2.48633-.50781.76388-.33854 1.49804-.81228 2.20117-1.41992v1.52344h2.44726v-20.25977zm39.79101 0v20.25977h2.44727v-20.25977zm65.3125 0v20.25977h2.44727v-20.25977zm-236.11914.52149c-1.42361 0-2.72265.22135-3.89453.66406-1.16319.44271-2.15581 1.08377-2.98047 1.92578-.8507.86805-1.50174 1.93272-1.95312 3.19141-.45139 1.25868-.67774 2.68597-.67774 4.2832 0 1.68403.23438 3.16341.70313 4.43945.46875 1.26736 1.11979 2.31402 1.95312 3.13867.8507.84202 1.84831 1.46203 2.99414 1.86133 1.15452.39063 2.43555.58594 3.8418.58594.74653 0 1.4286-.0601 2.04492-.18164.625-.11285 1.20096-.25108 1.73047-.41602.625-.19965 1.12977-.39192 1.51172-.57422.39063-.18228.82335-.37759 1.30078-.58593v-3.01953h-.18164c-.94618.85069-1.9618 1.48871-3.04687 1.91406-1.08507.42534-2.24892.63672-3.49024.63672-.90278 0-1.76215-.15126-2.57812-.45508-.8073-.3125-1.51346-.78928-2.1211-1.43164-.5816-.61632-1.06033-1.41558-1.43359-2.39649-.36459-.9809-.54688-2.15277-.54688-3.51562 0-1.30209.16624-2.44791.4961-3.4375.33854-.99827.80729-1.82357 1.40625-2.47461.61632-.66841 1.31445-1.1582 2.0957-1.4707.78993-.32118 1.67535-.48243 2.65625-.48243 1.19792 0 2.3227.2053 3.37305.61329 1.05035.40798 2.10807 1.05902 3.17578 1.95312h.19531v-3.06055c-1.26736-.63368-2.42122-1.07638-3.46289-1.32812-1.03299-.25173-2.06966-.37695-3.11133-.37695zm54.11328 0c-1.42361 0-2.7207.22135-3.89257.66406-1.1632.44271-2.15777 1.08377-2.98243 1.92578-.85069.86805-1.50173 1.93272-1.95312 3.19141-.45139 1.25868-.67578 2.68597-.67578 4.2832 0 1.68403.23437 3.16341.70312 4.43945.46875 1.26736 1.11979 2.31402 1.95313 3.13867.8507.84202 1.8483 1.46203 2.99414 1.86133 1.15451.39063 2.43554.58594 3.84179.58594.74653 0 1.42665-.0601 2.04297-.18164.625-.11285 1.20291-.25108 1.73243-.41602.625-.19965 1.12782-.39192 1.50976-.57422.39063-.18228.8253-.37759 1.30274-.58593v-3.01953h-.18164c-.94619.85069-1.96181 1.48871-3.04688 1.91406-1.08507.42534-2.24891.63672-3.49023.63672-.90278 0-1.76216-.15126-2.57813-.45508-.80729-.3125-1.51541-.78928-2.12305-1.43164-.58159-.61632-1.05837-1.41558-1.43164-2.39649-.36458-.9809-.54687-2.15277-.54687-3.51562 0-1.30209.16428-2.44791.49414-3.4375.33854-.99827.80729-1.82357 1.40625-2.47461.61632-.66841 1.3164-1.1582 2.09765-1.4707.78993-.32118 1.67535-.48243 2.65626-.48243 1.19792 0 2.32074.2053 3.37109.61329 1.05035.40798 2.11002 1.05902 3.17773 1.95312h.19532v-3.06055c-1.26736-.63368-2.42122-1.07638-3.4629-1.32812-1.03298-.25173-2.07161-.37695-3.11328-.37695zm29.89649 0c-1.42362 0-2.72071.22135-3.89258.66406-1.1632.44271-2.15777 1.08377-2.98242 1.92578-.8507.86805-1.50173 1.93272-1.95313 3.19141-.45138 1.25868-.67773 2.68597-.67773 4.2832 0 1.68403.23438 3.16341.70312 4.43945.46876 1.26736 1.1198 2.31402 1.95313 3.13867.8507.84202 1.85026 1.46203 2.99609 1.86133 1.15452.39063 2.43359.58594 3.83985.58594.74652 0 1.4286-.0601 2.04492-.18164.625-.11285 1.20291-.25108 1.73242-.41602.62501-.19965 1.12783-.39192 1.50977-.57422.39062-.18228.8253-.37759 1.30273-.58593v-3.01953h-.18359c-.94619.85069-1.96181 1.48871-3.04688 1.91406-1.08507.42534-2.24696.63672-3.48828.63672-.90278 0-1.76215-.15126-2.57813-.45508-.80729-.3125-1.5154-.78928-2.12304-1.43164-.5816-.61632-1.05838-1.41558-1.43164-2.39649-.36459-.9809-.54688-2.15277-.54688-3.51562 0-1.30209.16428-2.44791.49414-3.4375.33854-.99827.80729-1.82357 1.40625-2.47461.61632-.66841 1.31446-1.1582 2.09571-1.4707.78993-.32118 1.67534-.48243 2.65625-.48243 1.19792 0 2.3227.2053 3.37304.61329 1.05035.40798 2.11002 1.05902 3.17774 1.95312h.19531v-3.06055c-1.26737-.63368-2.42318-1.07638-3.46484-1.32812-1.03299-.25173-2.06967-.37695-3.11133-.37695zm16.7832 0c-2.10938 0-3.84918.52083-5.2207 1.5625-1.37154 1.03298-2.05664 2.3611-2.05664 3.98437 0 1.41493.41167 2.5638 1.23633 3.44922.83333.87673 2.10937 1.49869 3.82812 1.86328.8507.17361 1.653.31683 2.4082.42969.76389.11284 1.472.25608 2.12305.42969.85937.2257 1.4974.54123 1.91406.94921.42535.40799.63867 1.04297.63867 1.90235 0 .99826-.4477 1.79557-1.34179 2.39453-.88542.59895-2.12738.89844-3.72461.89844-1.12847 0-2.33442-.22136-3.61914-.66407-1.28473-.4427-2.41754-1.07074-3.39844-1.88671h-.18164v3.22851c1.15452.51215 2.28732.89779 3.39844 1.1582 1.11979.26042 2.37782.39063 3.77539.39063 1.30208 0 2.41384-.15625 3.33398-.46875.92882-.3125 1.73915-.74522 2.4336-1.30078.63368-.51216 1.12543-1.13716 1.47265-1.875.35591-.73785.53321-1.48503.53321-2.24024 0-1.38889-.36459-2.46961-1.09375-3.24218-.72917-.77257-1.81489-1.35048-3.25586-1.73243-.71181-.18229-1.57921-.35959-2.60352-.5332s-1.81358-.32183-2.36914-.44336c-1.05035-.24306-1.78451-.59462-2.20117-1.05469-.41667-.46007-.625-1.09309-.625-1.90039 0-.90277.41666-1.63997 1.25-2.21289.84201-.57292 1.95377-.85937 3.33398-.85937 1.25868 0 2.48568.20833 3.6836.625 1.20659.40798 2.18011.92382 2.91797 1.54883h.18164v-3.04688c-.87674-.38195-1.88434-.70247-3.02149-.96289-1.13715-.26041-2.38715-.39062-3.75-.39062zm188.13867.2207v2.53906h2.75977v-2.53906zm-379.41406.13086v2.29101h11.44531l-11.88867 14.70118v2.39453h15.13086v-2.29102h-12.29297l12.00586-14.76562v-2.33008zm100.72852 0v19.38672h12.26562v-2.29102h-9.6875v-17.0957zm14.02343 0v1.97851h2.53907v15.42969h-2.53907v1.97852h7.65625v-1.97852h-2.53906v-15.42969h2.53906v-1.97851zm39.27149 0v1.97851h2.53906v15.42969h-2.53906v1.97852h7.65625v-1.97852h-2.53906v-15.42969h2.53906v-1.97851zm-129.72656 4.43945c-2.0573 0-3.69488.6901-4.91016 2.07031-1.2066 1.37153-1.80859 3.24154-1.80859 5.61133 0 2.3698.60199 4.24175 1.80859 5.61328 1.21528 1.37153 2.85286 2.05664 4.91016 2.05664 2.03993 0 3.66753-.68511 4.88281-2.05664s1.82226-3.24348 1.82226-5.61328c0-2.36979-.60698-4.2398-1.82226-5.61133-1.21528-1.38021-2.84288-2.07031-4.88281-2.07031zm38.37304 0c-2.11806 0-3.82877.69813-5.13086 2.0957-1.2934 1.39757-1.93945 3.28559-1.93945 5.66407 0 2.40451.67708 4.26345 2.03125 5.57422 1.35417 1.30208 3.23719 1.95312 5.65039 1.95312.94618 0 1.84961-.11719 2.70899-.35156.85937-.23438 1.70073-.52583 2.52539-.87305v-2.66992h-.13086c-.42535.38195-1.14149.77257-2.14844 1.17187-.99827.39063-1.99089.58594-2.98047.58594-.74653 0-1.43359-.10416-2.05859-.3125-.61632-.20833-1.15018-.52083-1.60157-.9375-.46875-.42534-.83637-.96722-1.10546-1.62695-.2691-.6684-.4043-1.44965-.4043-2.34375h10.7168v-1.32813c-.00001-2.10937-.53385-3.73697-1.60157-4.88281-1.05902-1.14583-2.56944-1.71875-4.53125-1.71875zm172.13477 0c-2.11806 0-3.82878.69813-5.13086 2.0957-1.29341 1.39757-1.93945 3.28559-1.93945 5.66407 0 2.40451.67708 4.26345 2.03125 5.57422 1.35417 1.30208 3.23719 1.95312 5.65039 1.95312.94618 0 1.8496-.11719 2.70898-.35156.85937-.23438 1.70074-.52583 2.52539-.87305v-2.66992h-.12891c-.42535.38195-1.14149.77257-2.14843 1.17187-.99827.39063-1.99284.58594-2.98242.58594-.74653 0-1.43165-.10416-2.05665-.3125-.61631-.20833-1.15016-.52083-1.60156-.9375-.46874-.42534-.83832-.96722-1.10742-1.62695-.2691-.6684-.4043-1.44965-.4043-2.34375h10.7168v-1.32813c0-2.10937-.53386-3.73697-1.60156-4.88281-1.05904-1.14583-2.56945-1.71875-4.53125-1.71875zm17.08398 0c-.92014 0-1.78949.18728-2.60547.56055-.80729.36458-1.53645.82031-2.1875 1.36719v-1.52344h-2.44726v19.9082h2.44726v-6.09375c.63369.34722 1.25564.60265 1.86328.76758.61632.16493 1.30144.24805 2.05665.24805.86806 0 1.68837-.17426 2.46093-.52149.78126-.3559 1.45834-.85373 2.03125-1.49609.61632-.67708 1.0931-1.50238 1.43164-2.47461.33854-.9809.50782-2.06163.50782-3.24219 0-2.35243-.4898-4.18836-1.47071-5.50781-.97222-1.32813-2.33441-1.99219-4.08789-1.99219zm22.40821 0c-2.0573 0-3.69293.6901-4.90821 2.07031-1.20659 1.37153-1.81054 3.24154-1.81054 5.61133 0 2.3698.60395 4.24175 1.81054 5.61328 1.21528 1.37153 2.85091 2.05664 4.90821 2.05664 2.03992 0 3.66753-.68511 4.88281-2.05664s1.82226-3.24348 1.82226-5.61328c0-2.36979-.60698-4.2398-1.82226-5.61133-1.21528-1.38021-2.84289-2.07031-4.88281-2.07031zm42.90429 0c-.92014 0-1.78949.18728-2.60547.56055-.80729.36458-1.53646.82031-2.1875 1.36719v-1.52344h-2.44726v19.9082h2.44726v-6.09375c.63368.34722 1.25564.60265 1.86328.76758.61633.16493 1.30143.24805 2.05665.24805.86805 0 1.68836-.17426 2.46093-.52149.78125-.3559 1.45833-.85373 2.03125-1.49609.61632-.67708 1.0931-1.50238 1.43164-2.47461.33855-.9809.50782-2.06163.50782-3.24219 0-2.35243-.4898-4.18836-1.47071-5.50781-.97222-1.32813-2.33441-1.99219-4.08789-1.99219zm39.02344 0c-.79861 0-1.60286.17426-2.41016.52149-.80729.33854-1.4924.81532-2.05664 1.43164-.60764.65972-1.0894 1.44596-1.44531 2.35742-.34722.90278-.52148 1.97851-.52148 3.22851 0 2.283.50781 4.05382 1.52343 5.3125 1.02431 1.25 2.40452 1.875 4.14063 1.875 1.04167 0 1.898-.14322 2.5664-.42968.67709-.29514 1.38325-.73785 2.1211-1.32813v1.32813c0 .59028-.0651 1.12413-.19531 1.60156s-.34657.88607-.65039 1.22461c-.30382.3559-.72852.63238-1.2754.83203-.54688.19965-1.23697.30078-2.07031.30078-.86805 0-1.73741-.11719-2.60547-.35156-.86805-.2257-1.50108-.41797-1.90039-.57422h-.13086v2.5c.71181.19965 1.43295.35286 2.16211.45703.73785.11285 1.49305.16797 2.26563.16797 2.32639 0 4.05013-.57595 5.16992-1.73047 1.11979-1.15451 1.67969-2.96441 1.67969-5.42969v-12.89062h-2.29297l-.15625.625c-.63369-.34723-1.23568-.60461-1.8086-.76953-.56423-.17362-1.26736-.25977-2.10937-.25977zm37.99414 0c-.85937 0-1.6977.1773-2.51367.5332-.81597.3559-1.60526.8507-2.36914 1.48438v-1.61328h-2.44727v14.54297h2.44727v-10.85938c.6684-.51215 1.36653-.93186 2.0957-1.26172.72917-.32986 1.42925-.49609 2.09766-.49609.65104 0 1.1799.0911 1.58789.27344.40798.17361.72048.44401.9375.80859.20834.32987.35157.78863.42969 1.37891.0781.5816.11718 1.20659.11718 1.875v8.28125h2.44727v-9.43946c0-1.77951-.41168-3.1417-1.23633-4.08789-.82465-.94618-2.02256-1.41992-3.59375-1.41992zm-360.70312.4043l3.82812 14.54297h2.25195l3.71094-11.21094 3.73828 11.21094h2.26563l3.78906-14.54297h-2.46094l-2.52734 11.26172-3.72266-11.26172h-2.01953l-3.63281 11.26172-2.66992-11.26172zm249.67382 0l5.79493 13.83984-2.70899 6.06836h2.61719l8.49023-19.9082h-2.56445l-4.50586 10.78125-4.4668-10.78125zm50.625 0v9.43945c0 1.80556.42665 3.17774 1.27735 4.11524.8507.92882 2.03863 1.39257 3.5664 1.39257.91146 0 1.74479-.17426 2.5-.52148.75521-.34722 1.54644-.84505 2.3711-1.49609v1.61328h2.44726v-14.54297h-2.44726v10.85937c-.65104.51216-1.35416.93186-2.10938 1.26172-.74652.32986-1.43663.4961-2.07031.4961-.71181 0-1.25564-.0881-1.62891-.26172-.37326-.17361-.67577-.45009-.91015-.83203-.2257-.37327-.37392-.82097-.44336-1.3418-.0694-.52951-.10352-1.16255-.10352-1.90039v-8.28125zm45.75586 0v14.54297h2.44727v-14.54297zm-317.03125 1.61328c1.30209 0 2.27062.35156 2.9043 1.05469.64237.70312.9679 1.69769.97656 2.98242h-8.33398c.10416-1.14584.54188-2.10439 1.31445-2.87695.78125-.77258 1.82791-1.16016 3.13867-1.16016zm172.13477 0c1.30209 0 2.27062.35156 2.9043 1.05469.64238.70312.96789 1.69769.97656 2.98242h-8.33399c.10417-1.14584.54384-2.10439 1.31641-2.87695.78125-.77258 1.82596-1.16016 3.13672-1.16016zm-210.37695.0918c1.31076 0 2.33441.46072 3.07226 1.38086.73785.91146 1.10742 2.30772 1.10742 4.1914 0 1.84028-.37456 3.23047-1.12109 4.16797-.73785.92883-1.75651 1.39258-3.05859 1.39258-1.31945 0-2.3481-.46874-3.08594-1.40625-.73785-.94618-1.10742-2.33138-1.10742-4.1543 0-1.88368.36458-3.27994 1.09375-4.1914.73784-.92014 1.77148-1.38086 3.09961-1.38086zm250 0c1.31076 0 2.33441.46072 3.07226 1.38086.73785.91146 1.10742 2.30772 1.10742 4.1914 0 1.84028-.3726 3.23047-1.11914 4.16797-.73784.92883-1.75846 1.39258-3.06054 1.39258-1.31945 0-2.34809-.46874-3.08594-1.40625-.73785-.94618-1.10742-2.33138-1.10742-4.1543 0-1.88368.36458-3.27994 1.09375-4.1914.73785-.92014 1.77148-1.38086 3.09961-1.38086zm82.35742.0918c.55555 0 1.11045.0651 1.66601.19532.56424.12152 1.17122.32986 1.82227.625v7.92968c-.59896.46007-1.25803.82769-1.97852 1.10547-.7118.2691-1.42296.4043-2.13476.4043-1.32813 0-2.27865-.42166-2.85156-1.26367-.57293-.84202-.85938-2.07899-.85938-3.71094 0-1.71875.38563-3.02886 1.1582-3.93164.77258-.90278 1.83225-1.35352 3.17774-1.35352zm-138.63282.0391c.61632 0 1.18425.0551 1.70508.16796.52084.11285 1.11176.31815 1.77149.61329v8.3457c-.61632.48611-1.28038.88476-1.99219 1.19726-.71181.30382-1.41493.45704-2.10938.45704-1.30208 0-2.24957-.4477-2.83984-1.3418-.59028-.90277-.88476-2.21788-.88476-3.94531 0-1.75348.38259-3.10764 1.14648-4.0625s1.8316-1.43164 3.20312-1.43164zm33.24219.0898c1.24132 0 2.16081.43467 2.75977 1.30273.59896.86806.89844 2.17817.89844 3.93164 0 1.80556-.3826 3.16971-1.14649 4.08985-.76389.92014-1.8266 1.3789-3.18945 1.3789-.63368 0-1.20161-.0551-1.70508-.16796-.49479-.11285-1.09071-.32618-1.78516-.63868v-8.24218c.65105-.4948 1.33312-.89345 2.04493-1.19727.7118-.30382 1.41992-.45703 2.12304-.45703zm65.3125 0c1.24132 0 2.16081.43467 2.75977 1.30273.59896.86806.89844 2.17817.89844 3.93164 0 1.80556-.3826 3.16971-1.14649 4.08985-.76389.92014-1.82661 1.3789-3.18945 1.3789-.63368 0-1.20161-.0551-1.70508-.16796-.49479-.11285-1.09071-.32618-1.78516-.63868v-8.24218c.65104-.4948 1.33312-.89345 2.04493-1.19727.7118-.30382 1.41992-.45703 2.12304-.45703zm50.41602 2.95703v2.35547h8.125v-2.35547z"/></g></g></svg>