<svg xmlns="http://www.w3.org/2000/svg" role="img" viewBox="-8.49 -8.49 207.74 91.99"><title>Zowe Explorer Extension for FTP (Explorer for Visual Studio Code ZOWE V1) logo</title><g id="text17" text-anchor="middle" transform="translate(-26.594 27.367)"><path id="path25" d="m 41.340668,50 h -6.241211 v -0.988281 l 4.903808,-6.063965 h -4.721191 v -0.945313 h 5.94043 v 0.961426 l -4.952149,6.09082 h 5.070313 z"/><path id="path27" d="m 48.070648,47.00293 q 0,1.466308 -0.751953,2.314941 -0.751953,0.848633 -2.01416,0.848633 -1.272949,0 -2.024902,-0.848633 -0.746582,-0.848633 -0.746582,-2.314941 0,-1.466309 0.746582,-2.314942 0.751953,-0.854004 2.024902,-0.854004 1.262207,0 2.01416,0.854004 0.751953,0.848633 0.751953,2.314942 z m -1.041992,0 q 0,-1.165528 -0.456543,-1.729493 -0.456543,-0.569335 -1.267578,-0.569335 -0.821777,0 -1.27832,0.569335 -0.451172,0.563965 -0.451172,1.729493 0,1.127929 0.456543,1.713379 0.456543,0.580078 1.272949,0.580078 0.805664,0 1.262207,-0.574707 0.461914,-0.580078 0.461914,-1.71875 z"/><path id="path29" d="M 57.185394,44.000488 55.622406,50 h -0.93457 L 53.146332,45.375488 51.61557,50 h -0.929199 l -1.579102,-5.999512 h 1.052735 l 1.101074,4.645996 1.498535,-4.645996 h 0.83252 l 1.536132,4.645996 1.041993,-4.645996 z"/><path id="path31" d="m 63.662933,47.10498 h -4.42041 q 0,0.553223 0.166504,0.966797 0.166504,0.408203 0.456543,0.671387 0.279297,0.257813 0.660645,0.386719 0.386718,0.128906 0.848632,0.128906 0.612305,0 1.229981,-0.241699 0.623047,-0.24707 0.88623,-0.483399 h 0.05371 v 1.101075 q -0.510254,0.214843 -1.041992,0.359863 -0.531738,0.145019 -1.117187,0.145019 -1.493164,0 -2.331055,-0.805664 -0.837891,-0.811035 -0.837891,-2.298828 0,-1.471679 0.800293,-2.336426 0.805664,-0.864746 2.116211,-0.864746 1.213867,0 1.869141,0.708985 0.660644,0.708984 0.660644,2.01416 z m -0.98291,-0.773437 q -0.0054,-0.794922 -0.402832,-1.229981 -0.39209,-0.435058 -1.197754,-0.435058 -0.811035,0 -1.294433,0.478027 -0.478028,0.478028 -0.542481,1.187012 z"/><path id="path33" d="m 74.410492,50 h -5.269043 v -7.997559 h 5.269043 v 0.945313 h -4.205566 v 2.191406 h 4.205566 v 0.945313 h -4.205566 v 2.970214 h 4.205566 z"/><path id="path35" d="M 81.215668,50 H 79.942719 L 78.240082,47.695801 76.526703,50 h -1.17627 l 2.341797,-2.991699 -2.320312,-3.007813 h 1.272949 l 1.691894,2.266602 1.697266,-2.266602 h 1.181641 l -2.35791,2.954102 z"/><path id="path37" d="m 87.811371,46.927734 q 0,0.730469 -0.209473,1.337403 -0.209472,0.601562 -0.59082,1.020508 -0.354492,0.39746 -0.837891,0.617675 -0.478027,0.214844 -1.015136,0.214844 -0.467286,0 -0.848633,-0.102051 -0.375977,-0.102051 -0.768067,-0.316894 v 2.513672 h -1.009765 v -8.212403 h 1.009765 v 0.628418 q 0.402832,-0.338379 0.902344,-0.563965 0.504883,-0.230957 1.074219,-0.230957 1.084961,0 1.686523,0.821778 0.606934,0.816406 0.606934,2.271972 z m -1.041992,0.02686 q 0,-1.084961 -0.370606,-1.62207 -0.370605,-0.53711 -1.138672,-0.53711 -0.435058,0 -0.875488,0.187988 -0.44043,0.187989 -0.843262,0.494141 v 3.399902 q 0.429688,0.19336 0.73584,0.263184 0.311524,0.06982 0.703613,0.06982 0.843262,0 1.315918,-0.569336 0.472657,-0.569336 0.472657,-1.686523 z"/><path id="path39" d="m 90.405609,50 h -1.009765 v -8.357422 h 1.009765 z"/><path id="path41" d="m 97.527679,47.00293 q 0,1.466308 -0.751953,2.314941 -0.751953,0.848633 -2.01416,0.848633 -1.272949,0 -2.024902,-0.848633 -0.746582,-0.848633 -0.746582,-2.314941 0,-1.466309 0.746582,-2.314942 0.751953,-0.854004 2.024902,-0.854004 1.262207,0 2.01416,0.854004 0.751953,0.848633 0.751953,2.314942 z m -1.041992,0 q 0,-1.165528 -0.456543,-1.729493 -0.456543,-0.569335 -1.267578,-0.569335 -0.821777,0 -1.27832,0.569335 -0.451172,0.563965 -0.451172,1.729493 0,1.127929 0.456543,1.713379 0.456543,0.580078 1.272949,0.580078 0.805664,0 1.262207,-0.574707 0.461914,-0.580078 0.461914,-1.71875 z"/><path id="path43" d="m 102.83969,45.101562 h -0.0537 q -0.22559,-0.05371 -0.44043,-0.0752 -0.20947,-0.02685 -0.49951,-0.02685 -0.46729,0 -0.90234,0.209472 -0.43506,0.204102 -0.8379,0.531739 V 50 h -1.009761 v -5.999512 h 1.009761 v 0.886231 q 0.60157,-0.483399 1.05811,-0.682129 0.46191,-0.204102 0.93994,-0.204102 0.26318,0 0.38135,0.01611 0.11816,0.01074 0.35449,0.04834 z"/><path id="path45" d="m 108.82309,47.10498 h -4.42041 q 0,0.553223 0.1665,0.966797 0.16651,0.408203 0.45655,0.671387 0.27929,0.257813 0.66064,0.386719 0.38672,0.128906 0.84863,0.128906 0.61231,0 1.22998,-0.241699 0.62305,-0.24707 0.88623,-0.483399 h 0.0537 v 1.101075 q -0.51026,0.214843 -1.042,0.359863 -0.53173,0.145019 -1.11718,0.145019 -1.49317,0 -2.33106,-0.805664 -0.83789,-0.811035 -0.83789,-2.298828 0,-1.471679 0.80029,-2.336426 0.80567,-0.864746 2.11621,-0.864746 1.21387,0 1.86915,0.708985 0.66064,0.708984 0.66064,2.01416 z m -0.98291,-0.773437 q -0.005,-0.794922 -0.40283,-1.229981 -0.39209,-0.435058 -1.19776,-0.435058 -0.81103,0 -1.29443,0.478027 -0.47803,0.478028 -0.54248,1.187012 z"/><path id="path47" d="m 114.0975,45.101562 h -0.0537 q -0.22558,-0.05371 -0.44043,-0.0752 -0.20947,-0.02685 -0.49951,-0.02685 -0.46728,0 -0.90234,0.209472 -0.43506,0.204102 -0.83789,0.531739 V 50 h -1.00977 v -5.999512 h 1.00977 v 0.886231 q 0.60156,-0.483399 1.0581,-0.682129 0.46192,-0.204102 0.93994,-0.204102 0.26319,0 0.38135,0.01611 0.11817,0.01074 0.35449,0.04834 z"/><path id="path49" d="m 124.27573,50 h -5.26905 v -7.997559 h 5.26905 v 0.945313 h -4.20557 v 2.191406 h 4.20557 v 0.945313 h -4.20557 v 2.970214 h 4.20557 z"/><path id="path51" d="m 131.0809,50 h -1.27295 L 128.10532,47.695801 126.39194,50 h -1.17627 l 2.34179,-2.991699 -2.32031,-3.007813 h 1.27295 l 1.6919,2.266602 1.69726,-2.266602 h 1.18164 l -2.35791,2.954102 z"/><path id="path53" d="m 135.51205,49.946289 q -0.28466,0.0752 -0.62304,0.123535 -0.33301,0.04834 -0.59619,0.04834 -0.91846,0 -1.39649,-0.494141 -0.47803,-0.49414 -0.47803,-1.584472 v -3.19043 h -0.68212 v -0.848633 h 0.68212 v -1.724121 h 1.00977 v 1.724121 h 2.08398 v 0.848633 h -2.08398 v 2.733887 q 0,0.472656 0.0215,0.741211 0.0215,0.263183 0.1504,0.49414 0.11816,0.214844 0.32226,0.316895 0.20947,0.09668 0.63379,0.09668 0.24707,0 0.51562,-0.06983 0.26856,-0.0752 0.38672,-0.123535 h 0.0537 z"/><path id="path55" d="m 141.75864,47.10498 h -4.42041 q 0,0.553223 0.1665,0.966797 0.1665,0.408203 0.45654,0.671387 0.2793,0.257813 0.66065,0.386719 0.38672,0.128906 0.84863,0.128906 0.61231,0 1.22998,-0.241699 0.62305,-0.24707 0.88623,-0.483399 h 0.0537 v 1.101075 q -0.51025,0.214843 -1.04199,0.359863 -0.53174,0.145019 -1.11719,0.145019 -1.49316,0 -2.33105,-0.805664 -0.83789,-0.811035 -0.83789,-2.298828 0,-1.471679 0.80029,-2.336426 0.80566,-0.864746 2.11621,-0.864746 1.21387,0 1.86914,0.708985 0.66065,0.708984 0.66065,2.01416 z m -0.98291,-0.773437 q -0.005,-0.794922 -0.40284,-1.229981 -0.39209,-0.435058 -1.19775,-0.435058 -0.81103,0 -1.29443,0.478027 -0.47803,0.478028 -0.54248,1.187012 z"/><path id="path57" d="m 148.306,50 h -1.00977 v -3.416016 q 0,-0.413574 -0.0483,-0.773437 -0.0483,-0.365235 -0.17724,-0.569336 -0.13428,-0.225586 -0.38672,-0.333008 -0.25244,-0.112793 -0.65527,-0.112793 -0.41358,0 -0.86475,0.204102 -0.45117,0.204101 -0.86475,0.520996 V 50 h -1.00976 v -5.999512 h 1.00976 v 0.666016 q 0.47266,-0.39209 0.97754,-0.612305 0.50489,-0.220215 1.03662,-0.220215 0.97217,0 1.48243,0.58545 0.51025,0.585449 0.51025,1.686523 z"/><path id="path59" d="m 154.53647,48.270508 q 0,0.821777 -0.68213,1.348144 -0.67676,0.526368 -1.85303,0.526368 -0.66601,0 -1.22461,-0.155762 -0.55322,-0.161133 -0.9292,-0.349121 v -1.133301 h 0.0537 q 0.47803,0.359863 1.06348,0.574707 0.58545,0.209473 1.12256,0.209473 0.66602,0 1.04199,-0.214844 0.37598,-0.214844 0.37598,-0.676758 0,-0.354492 -0.2041,-0.537109 -0.2041,-0.182618 -0.78418,-0.311524 -0.21485,-0.04834 -0.56397,-0.112793 -0.34375,-0.06445 -0.62842,-0.139648 -0.78955,-0.209473 -1.12255,-0.612305 -0.32764,-0.408203 -0.32764,-0.999023 0,-0.370606 0.15039,-0.698242 0.15576,-0.327637 0.46728,-0.58545 0.30079,-0.252441 0.7627,-0.397461 0.46729,-0.15039 1.04199,-0.15039 0.53711,0 1.08496,0.134277 0.55323,0.128906 0.91846,0.316895 v 1.079589 h -0.0537 q -0.38672,-0.284668 -0.93994,-0.478027 -0.55322,-0.19873 -1.08496,-0.19873 -0.55323,0 -0.93457,0.214843 -0.38135,0.209473 -0.38135,0.628418 0,0.370606 0.23096,0.558594 0.22558,0.187988 0.73046,0.306152 0.2793,0.06445 0.62305,0.128907 0.34912,0.06445 0.58008,0.118164 0.70361,0.161133 1.08496,0.553222 0.38135,0.397461 0.38135,1.052735 z"/><path id="path61" d="m 157.07162,42.996094 h -1.13867 V 41.94873 h 1.13867 z M 157.00717,50 h -1.00976 v -5.999512 h 1.00976 z"/><path id="path63" d="m 164.12924,47.00293 q 0,1.466308 -0.75195,2.314941 -0.75195,0.848633 -2.01416,0.848633 -1.27295,0 -2.0249,-0.848633 -0.74659,-0.848633 -0.74659,-2.314941 0,-1.466309 0.74659,-2.314942 0.75195,-0.854004 2.0249,-0.854004 1.26221,0 2.01416,0.854004 0.75195,0.848633 0.75195,2.314942 z m -1.04199,0 q 0,-1.165528 -0.45654,-1.729493 -0.45655,-0.569335 -1.26758,-0.569335 -0.82178,0 -1.27832,0.569335 -0.45117,0.563965 -0.45117,1.729493 0,1.127929 0.45654,1.713379 0.45654,0.580078 1.27295,0.580078 0.80566,0 1.26221,-0.574707 0.46191,-0.580078 0.46191,-1.71875 z"/><path id="path65" d="m 170.7142,50 h -1.00976 v -3.416016 q 0,-0.413574 -0.0483,-0.773437 -0.0483,-0.365235 -0.17725,-0.569336 -0.13428,-0.225586 -0.38672,-0.333008 -0.25244,-0.112793 -0.65527,-0.112793 -0.41358,0 -0.86475,0.204102 -0.45117,0.204101 -0.86474,0.520996 V 50 h -1.00977 v -5.999512 h 1.00977 v 0.666016 q 0.47265,-0.39209 0.97754,-0.612305 0.50488,-0.220215 1.03662,-0.220215 0.97217,0 1.48242,0.58545 0.51025,0.585449 0.51025,1.686523 z"/><path id="path67" d="m 179.75375,42.620117 h -0.0537 q -0.1665,-0.04834 -0.43506,-0.09668 -0.26855,-0.05371 -0.47265,-0.05371 -0.6499,0 -0.94531,0.290039 -0.29004,0.284668 -0.29004,1.036621 v 0.204101 h 1.8208 v 0.848633 H 177.5892 V 50 h -1.00976 v -5.150879 h -0.68213 v -0.848633 h 0.68213 v -0.19873 q 0,-1.068848 0.53174,-1.638184 0.53173,-0.574707 1.53613,-0.574707 0.33838,0 0.60693,0.03223 0.27393,0.03223 0.49951,0.0752 z"/><path id="path69" d="m 185.5062,47.00293 q 0,1.466308 -0.75196,2.314941 -0.75195,0.848633 -2.01416,0.848633 -1.27295,0 -2.0249,-0.848633 -0.74658,-0.848633 -0.74658,-2.314941 0,-1.466309 0.74658,-2.314942 0.75195,-0.854004 2.0249,-0.854004 1.26221,0 2.01416,0.854004 0.75196,0.848633 0.75196,2.314942 z m -1.042,0 q 0,-1.165528 -0.45654,-1.729493 -0.45654,-0.569335 -1.26758,-0.569335 -0.82178,0 -1.27832,0.569335 -0.45117,0.563965 -0.45117,1.729493 0,1.127929 0.45654,1.713379 0.45655,0.580078 1.27295,0.580078 0.80567,0 1.26221,-0.574707 0.46191,-0.580078 0.46191,-1.71875 z"/><path id="path71" d="m 190.81821,45.101562 h -0.0537 q -0.22559,-0.05371 -0.44043,-0.0752 -0.20948,-0.02685 -0.49952,-0.02685 -0.46728,0 -0.90234,0.209472 -0.43506,0.204102 -0.83789,0.531739 V 50 h -1.00977 v -5.999512 h 1.00977 v 0.886231 q 0.60156,-0.483399 1.05811,-0.682129 0.46191,-0.204102 0.93994,-0.204102 0.26318,0 0.38134,0.01611 0.11817,0.01074 0.3545,0.04834 z"/><path id="path73" d="m 200.8353,42.947754 h -4.04444 v 2.255859 h 3.4751 v 0.945313 h -3.4751 V 50 h -1.06347 v -7.997559 h 5.10791 z"/><path id="path75" d="m 207.74789,42.947754 h -2.85742 V 50 H 203.827 v -7.052246 h -2.85743 v -0.945313 h 6.77832 z"/><path id="path77" d="m 214.0643,44.419434 q 0,0.531738 -0.18799,0.988281 -0.18261,0.451172 -0.51562,0.78418 -0.41358,0.413574 -0.97754,0.623046 -0.56397,0.204102 -1.42334,0.204102 h -1.06348 V 50 h -1.06347 v -7.997559 h 2.16992 q 0.71972,0 1.21924,0.123536 0.49951,0.118164 0.88623,0.375976 0.45654,0.306152 0.70361,0.762695 0.25244,0.456543 0.25244,1.154786 z m -1.10644,0.02685 q 0,-0.413574 -0.14502,-0.719727 -0.14502,-0.306152 -0.44043,-0.499511 -0.25782,-0.166504 -0.59082,-0.236328 -0.32764,-0.0752 -0.83252,-0.0752 h -1.05274 v 3.195801 h 0.89697 q 0.64454,0 1.04737,-0.112793 0.40283,-0.118164 0.65527,-0.370605 0.25244,-0.257813 0.35449,-0.542481 0.10743,-0.284668 0.10743,-0.63916 z"/></g><path id="polygon3556" fill="#0033a1" d="M81.719 155.81L153.203 105.713 168.197 136.32 181.956 55.782 29.202 156.633z" class="cls-1" transform="translate(-12.66 -20.06) scale(.27843)"/><path id="polygon3558" fill="#2a7de1" d="M164.529 154.712L181.954 55.777 271.51 191.418z" class="cls-2" transform="translate(-12.66 -20.06) scale(.27843)"/><path id="polyline3560" fill="#0033a1" d="M131.223 229.511L139.675 241.691 216.405 187.184 203.42 168.057 159.152 198.91 164.527 154.716 271.508 191.416 125.787 294.202" class="cls-1" transform="translate(-12.66 -20.06) scale(.27843)"/><path id="polygon3562" fill="#2a7de1" d="M143.275 143.238L125.788 293.012 29.2 156.634 81.723 155.811 94.075 176.677z" class="cls-2" transform="translate(-12.66 -20.06) scale(.27843)"/><path id="path3564" fill="#2a7de1" stroke-width=".278" d="m 158.97411,5.3383932 h 1.47421 a 1.9174048,1.9174048 0 0 1 1.28952,0.381379 1.2595926,1.2595926 0 0 1 0.45149,1.034687 1.3017082,1.3017082 0 0 1 -0.45149,1.044954 1.9900394,1.9900394 0 0 1 -1.33399,0.384794 h -1.01757 v 2.5037538 h -0.41217 z m 0.41217,0.343749 v 2.142914 h 0.99192 a 1.55306,1.55306 0 0 0 1.01759,-0.283897 1.071253,1.071253 0 0 0 0.0769,-1.513556 0.0970391,0.0970391 0 0 1 -0.012,-0.01368 l -0.053,-0.05814 a 1.4836803,1.4836803 0 0 0 -0.97655,-0.289011 z" class="cls-2"/><path id="path3566" fill="#2a7de1" stroke-width=".278" d="m 163.60469,5.3383932 h 1.36648 a 2.0286217,2.0286217 0 0 1 1.31857,0.376251 1.2347955,1.2347955 0 0 1 0.45491,1.007313 1.3287217,1.3287217 0 0 1 -1.01757,1.296352 2.4755383,2.4755383 0 0 1 0.71316,0.820897 l 1.21084,1.8487518 h -0.49425 l -0.93209,-1.4571028 a 3.4834922,3.4834922 0 0 0 -0.72342,-0.916685 1.3489748,1.3489748 0 0 0 -0.76105,-0.182983 h -0.73881 v 2.5670398 h -0.41215 z m 0.41218,0.343749 v 2.095027 h 0.88416 a 1.7230538,1.7230538 0 0 0 1.03982,-0.27364 1.007815,1.007815 0 0 0 0.11801,-1.419484 l -0.12314,-0.123133 a 1.7132446,1.7132446 0 0 0 -1.04495,-0.27877 z" class="cls-2"/><path id="path3568" fill="#2a7de1" stroke-width=".278" d="m 171.20832,5.2703222 a 2.7864553,2.7864553 0 0 1 2.0095,0.796955 2.6804643,2.6804643 0 0 1 0.0958,3.789851 c -0.0103,0.01025 -0.0205,0.02052 -0.0308,0.03249 l -0.065,0.06841 a 2.9231753,2.9231753 0 0 1 -4.01389,0 2.7134445,2.7134445 0 0 1 -0.0564,-3.834308 l 0.003,-0.0017 0.053,-0.05473 a 2.7705676,2.7705676 0 0 1 2.00441,-0.796955 m 0,5.1015738 a 2.2946634,2.2946634 0 0 0 1.68799,-0.6806578 2.3908394,2.3908394 0 0 0 0,-3.355447 2.4254875,2.4254875 0 0 0 -3.38111,0 2.3689155,2.3689155 0 0 0 0,3.350319 2.3128896,2.3128896 0 0 0 1.69312,0.6806578" class="cls-2"/><path id="path3570" fill="#2a7de1" stroke-width=".278" d="m 176.12283,5.3389032 v 5.3598308 a 1.7342328,1.7342328 0 0 1 -0.33178,1.210836 1.0719908,1.0719908 0 0 1 -0.78844,0.338621 q -0.12309,0.0051 -0.24625,0 l -0.0376,-0.386506 a 1.2866953,1.2866953 0 0 0 0.24115,0.02738 c 0.5045,0 0.75077,-0.354018 0.75077,-1.072304 V 5.3389132 Z" class="cls-2"/><path id="polygon3572" fill="#2a7de1" d="M684.585 110.429L684.585 91.222 695.057 91.222 695.057 92.456 686.071 92.456 686.071 100.134 694.824 100.134 694.824 101.387 686.071 101.387 686.071 109.182 695.266 109.182 695.266 110.429z" class="cls-2" transform="translate(-12.66 -20.06) scale(.27843)"/><path id="path3574" fill="#2a7de1" stroke-width=".278" d="m 186.86266,5.7197582 v 0.449787 a 4.0924237,4.0924237 0 0 0 -1.9086,-0.53529 2.2467508,2.2467508 0 0 0 -1.66061,0.680672 2.2955404,2.2955404 0 0 0 -0.67043,1.693127 2.2675273,2.2675273 0 0 0 0.67042,1.703382 2.3593403,2.3593403 0 0 0 1.72047,0.6601338 4.0399833,4.0399833 0 0 0 1.90177,-0.5352898 v 0.4275538 a 3.97346,3.97346 0 0 1 -1.89152,0.499384 2.8034108,2.8034108 0 0 1 -2.03686,-0.7832818 2.7384477,2.7384477 0 0 1 -0.002,-3.871935 0.00167058,0.00167058 0 0 0 0.002,-0.0017 0.1955149,0.1955149 0 0 0 0.0376,-0.03763 2.7899882,2.7899882 0 0 1 1.97872,-0.788411 4.4930553,4.4930553 0 0 1 1.88122,0.44979" class="cls-2"/><path id="polygon3576" fill="#2a7de1" d="M719.788 92.456L719.788 91.222 735.709 91.222 735.709 92.456 728.51 92.456 728.51 110.429 727.005 110.429 727.005 92.456z" class="cls-2" transform="translate(-12.66 -20.06) scale(.27843)"/><path id="polygon3578" fill="#2a7de1" d="M410.365 111.778L410.365 99.444 404.592 106.582 404.076 106.582 398.277 99.444 398.277 111.778 392.043 111.778 392.043 90.495 397.86 90.495 404.401 98.48 410.961 90.495 416.797 90.495 416.797 111.778z" class="cls-2" transform="translate(-12.66 -20.06) scale(.27843)"/><path id="path3580" fill="#2a7de1" stroke-width=".278" d="m 111.39032,11.063189 h -1.82824 l -0.48739,-1.2005778 h -2.57217 l -0.49254,1.2005778 h -1.82824 l 2.62176,-5.9276258 h 1.99924 z m -2.72267,-2.2352668 -0.86878,-2.142905 -0.87736,2.142905 z" class="cls-2"/><path id="rect3582" fill="#2a7de1" stroke-width=".278" d="M112.184 5.137H113.968V11.062999999999999H112.184z" class="cls-2"/><path id="polygon3584" fill="#2a7de1" d="M476.882 90.495L483.276 90.495 483.276 111.778 477.576 111.778 466.532 99.923 466.532 111.778 460.181 111.778 460.181 90.495 465.875 90.495 476.882 102.288z" class="cls-2" transform="translate(-12.66 -20.06) scale(.27843)"/><path id="polygon3586" fill="#2a7de1" d="M495.039 98.887L503.871 98.887 503.871 103.156 495.039 103.156 495.039 111.779 488.626 111.779 488.626 90.49 503.871 90.49 503.871 94.765 495.039 94.765z" class="cls-2" transform="translate(-12.66 -20.06) scale(.27843)"/><path id="path3588" fill="#2a7de1" stroke-width=".278" d="m 134.5732,11.062486 h -1.91887 l -0.46519,-1.0705968 a 4.5900981,4.5900981 0 0 0 -0.46176,-0.843132 0.99425265,0.99425265 0 0 0 -0.40019,-0.342051 1.4519445,1.4519445 0 0 0 -0.50452,-0.07525 h -0.19839 v 2.3156448 h -1.79059 V 5.1365862 h 3.03908 a 2.1907024,2.1907024 0 0 1 1.20571,0.29928 1.7996281,1.7996281 0 0 1 0.68066,0.72343 1.8728084,1.8728084 0 0 1 0.20352,0.814059 1.5072078,1.5072078 0 0 1 -0.17101,0.761051 1.3900631,1.3900631 0 0 1 -0.36429,0.449787 4.0652585,4.0652585 0 0 1 -0.43439,0.2685 1.6452293,1.6452293 0 0 1 0.47202,0.396765 4.7284344,4.7284344 0 0 1 0.52504,0.916682 z m -2.42682,-4.0566448 a 0.59956973,0.59956973 0 0 0 -0.27364,-0.567781 1.7493377,1.7493377 0 0 0 -0.87392,-0.16589 h -0.37455 v 1.431449 h 0.38138 a 2.0029251,2.0029251 0 0 0 0.89958,-0.145366 0.59835018,0.59835018 0 0 0 0.24115,-0.535305" class="cls-2"/><path id="path3590" fill="#2a7de1" stroke-width=".278" d="m 141.88953,11.063189 h -1.82824 l -0.48226,-1.2005778 h -2.57216 l -0.49254,1.2005778 h -1.83339 l 2.62004,-5.9276258 h 1.97703 z m -2.72267,-2.2352668 -0.8688,-2.142905 -0.87394,2.142905 z" class="cls-2"/><path id="polygon3592" fill="#2a7de1" d="M576.245 111.778L576.245 99.444 570.446 106.582 569.949 106.582 564.132 99.444 564.132 111.778 557.897 111.778 557.897 90.495 563.733 90.495 570.256 98.48 576.84 90.495 582.651 90.495 582.651 111.778z" class="cls-2" transform="translate(-12.66 -20.06) scale(.27843)"/><path id="polygon3594" fill="#2a7de1" d="M594.449 107.485L604.074 107.485 604.074 111.778 588.024 111.778 588.024 90.495 603.804 90.495 603.804 94.764 594.449 94.764 594.449 98.652 603.38 98.652 603.38 102.945 594.449 102.945z" class="cls-2" transform="translate(-12.66 -20.06) scale(.27843)"/><path id="path3596" fill="#2a7de1" stroke-width=".278" d="m 74.310368,5.3344532 a 3.0714491,3.0714491 0 0 1 2.24551,0.889311 3.0229588,3.0229588 0 0 1 0.0889,4.2738378 0.05232293,0.05232293 0 0 0 -0.0137,0.01369 l -0.0752,0.07354 a 3.267833,3.267833 0 0 1 -4.480777,0 3.0323691,3.0323691 0 0 1 -0.05814,-4.2858068 l 0.05814,-0.05986 a 3.085117,3.085117 0 0 1 2.235267,-0.889311 m 0,5.6967178 a 2.566914,2.566914 0 0 0 1.88638,-0.761047 2.6790276,2.6790276 0 0 0 0,-3.7505008 2.7258152,2.7258152 0 0 0 -3.777874,0 2.6455349,2.6455349 0 0 0 -0.0069,3.7436638 l 0.0069,0.0069 a 2.5784468,2.5784468 0 0 0 1.891504,0.761047" class="cls-2"/><path id="path3598" fill="#2a7de1" stroke-width=".278" d="m 78.601808,5.4083352 h 1.64693 a 2.2164909,2.2164909 0 0 1 1.44686,0.424138 1.5627465,1.5627465 0 0 1 -0.0325,2.325898 2.2420036,2.2420036 0 0 1 -1.48446,0.434393 h -1.14242 V 11.37358 h -0.46004 z m 0.46177,0.386506 v 2.411418 h 1.11507 a 1.7888333,1.7888333 0 0 0 1.13558,-0.316389 1.2101654,1.2101654 0 0 0 0.065,-1.708511 0.24894879,0.24894879 0 0 0 -0.0599,-0.05986 1.5975867,1.5975867 0 0 0 -1.07061,-0.326655 z" class="cls-2"/><path id="polygon3600" fill="#2a7de1" d="M343.867 112.935L343.867 91.474 355.568 91.474 355.568 92.862 345.519 92.862 345.519 101.443 355.304 101.443 355.304 102.831 345.519 102.831 345.519 111.547 355.82 111.547 355.82 112.935z" class="cls-2" transform="translate(-12.66 -20.06) scale(.27843)"/><path id="polygon3602" fill="#2a7de1" d="M376.892 110.22L376.892 91.474 378.551 91.474 378.551 112.935 377.181 112.935 360.885 94.164 360.885 112.935 359.227 112.935 359.227 91.474 360.634 91.474z" class="cls-2" transform="translate(-12.66 -20.06) scale(.27843)"/><path id="path3604" fill="#0033a1" stroke-width=".278" d="M 70.595182,44.242153 88.635208,23.250056 H 71.157481 v -6.325637 h 26.755427 v 5.482185 l -18.04003,20.992098 h 18.04003 v 6.32562 H 70.595174 Z" class="cls-1"/><path id="path3606" fill="#0033a1" stroke-width=".278" d="m 101.61479,37.307186 v -0.09381 c 0,-7.215842 5.81035,-13.072977 13.63554,-13.072977 7.77815,0 13.54148,5.763323 13.54148,12.979444 v 0.09353 c 0,7.216121 -5.81011,13.073249 -13.63528,13.073249 -7.77842,0 -13.54174,-5.763322 -13.54174,-12.97944 z m 20.14851,0 v -0.09381 c 0,-3.701593 -2.67093,-6.934694 -6.60677,-6.934694 -4.07668,0 -6.51325,3.139428 -6.51325,6.841161 v 0.09353 c 0,3.70173 2.67094,6.93497 6.60705,6.93497 4.07642,0 6.51297,-3.139426 6.51297,-6.841161 z" class="cls-1"/><path id="path3608" fill="#0033a1" stroke-width=".278" d="m 130.75987,24.608896 h 7.21612 l 4.02964,15.228661 4.73254,-15.322333 h 6.13828 l 4.77929,15.369091 4.12346,-15.275419 h 7.07554 l -7.8252,25.302783 h -6.41943 l -4.82634,-15.415861 -4.91987,15.415861 h -6.37266 z" class="cls-1"/><path id="path3610" fill="#0033a1" stroke-width=".278" d="m 170.82306,37.307186 v -0.09381 c 0,-7.169064 5.10749,-13.072977 12.41713,-13.072977 8.3875,0 12.22981,6.513104 12.22981,13.635279 0,0.562305 -0.047,1.218419 -0.0938,1.874251 h -17.4776 c 0.70259,3.233235 2.95181,4.920143 6.13828,4.920143 2.3895,0 4.12317,-0.749644 6.09125,-2.577126 l 4.07669,3.607921 c -2.34301,2.905042 -5.71655,4.685755 -10.26174,4.685755 -7.54403,3e-6 -13.12002,-5.294823 -13.12002,-12.979436 z m 17.71198,-2.108496 c -0.42173,-3.186331 -2.29597,-5.341733 -5.29485,-5.341733 -2.95207,0 -4.87309,2.108496 -5.43539,5.341733 z" class="cls-1"/><path id="polygon3612" fill="#0033a1" d="M137.471 193.298L143.275 143.239 94.075 176.677z" class="cls-1" transform="translate(-12.66 -20.06) scale(.27843)"/></svg>