<svg xmlns="http://www.w3.org/2000/svg" role="img" viewBox="-14.36 -14.36 746.72 324.72"><title>Zowe Secure Credential Store (CLI ZOWE V1) logo</title><defs id="defs3552"><style id="style3550">.cls-1{fill:#0033a1}.cls-2{fill:#2a7de1}</style></defs><path id="polygon3556" d="M29.202 156.633l52.517-.823 71.484-50.097 14.994 30.607 13.759-80.538z" class="cls-1" transform="translate(-29.2 -55.777)"/><path id="polygon3558" d="M181.954 55.777l89.556 135.641-106.981-36.706z" class="cls-2" transform="translate(-29.2 -55.777)"/><path id="polyline3560" d="M131.223 229.511l8.452 12.18 76.73-54.507-12.985-19.127-44.268 30.853 5.375-44.194 106.981 36.7-145.721 102.786" class="cls-1" transform="translate(-29.2 -55.777)"/><path id="polygon3562" d="M94.075 176.677l49.2-33.439-17.487 149.774L29.2 156.634l52.523-.823z" class="cls-2" transform="translate(-29.2 -55.777)"/><path id="path3564" d="M587.23191 35.4428h5.29468a6.88644 6.88644 0 0 1 4.63135 1.36974 4.52388 4.52388 0 0 1 1.62157 3.71612 4.67514 4.67514 0 0 1-1.62157 3.753 7.14731 7.14731 0 0 1-4.79105 1.382h-3.65465V54.656h-1.48033zm1.48033 1.23459v7.69637h3.56251a5.57788 5.57788 0 0 0 3.6547-1.01963 3.84745 3.84745 0 0 0 .27639-5.436.34852.34852 0 0 1-.043-.04916l-.1904-.20882a5.3287 5.3287 0 0 0-3.50731-1.038z" class="cls-2"/><path id="path3566" d="M603.86285 35.4428h4.90774a7.28588 7.28588 0 0 1 4.73571 1.35132 4.43482 4.43482 0 0 1 1.63385 3.61781 4.77216 4.77216 0 0 1-3.65465 4.6559 8.891 8.891 0 0 1 2.56135 2.94829l4.34877 6.63987h-1.77514l-3.3476-5.23325a12.51111 12.51111 0 0 0-2.59819-3.29231 4.8449 4.8449 0 0 0-2.73333-.65719h-2.65348v9.21963h-1.48028zm1.48033 1.23459v7.52438h3.17557a6.18842 6.18842 0 0 0 3.73454-.98279 3.61961 3.61961 0 0 0 .42378-5.09814l-.44224-.44224a6.15319 6.15319 0 0 0-3.753-1.00121z" class="cls-2"/><path id="path3568" d="M631.17162 35.19832a10.00767 10.00767 0 0 1 7.21716 2.8623 9.627 9.627 0 0 1 .344 13.61141c-.0368.0368-.0737.0737-.1105.11669l-.23347.2457a10.49871 10.49871 0 0 1-14.416 0 9.74545 9.74545 0 0 1-.20263-13.77108l.0123-.0061.19035-.19658a9.95061 9.95061 0 0 1 7.19888-2.8623m0 18.32252a8.24138 8.24138 0 0 0 6.06247-2.44461 8.5868 8.5868 0 0 0 0-12.05123 8.71124 8.71124 0 0 0-12.1434 0 8.50806 8.50806 0 0 0 0 12.03281 8.30684 8.30684 0 0 0 6.08093 2.44461" class="cls-2"/><path id="path3570" d="M648.82228 35.44463v19.25006a6.22857 6.22857 0 0 1-1.19161 4.34877 3.8501 3.8501 0 0 1-2.8317 1.21617q-.44214.0184-.88448 0l-.13515-1.38815a4.62122 4.62122 0 0 0 .86611.0983c1.812 0 2.69645-1.27147 2.69645-3.85123V35.44463z" class="cls-2"/><path id="polygon3572" d="M686.071 92.456v7.678h8.753v1.253h-8.753v7.795h9.195v1.247h-10.681V91.222h10.472v1.234z" class="cls-2" transform="translate(-29.2 -55.777)"/><path id="path3574" d="M687.39486 36.81249v1.61543A14.69811 14.69811 0 0 0 680.54 36.5054a8.0693 8.0693 0 0 0-5.96416 2.44466A8.24453 8.24453 0 0 0 672.168 45.031a8.14392 8.14392 0 0 0 2.40778 6.11777 8.47367 8.47367 0 0 0 6.17916 2.3709 14.50977 14.50977 0 0 0 6.83027-1.92252v1.53558a14.27085 14.27085 0 0 1-6.79343 1.79356 10.06857 10.06857 0 0 1-7.31548-2.81319 9.83525 9.83525 0 0 1-.006-13.90622.006.006 0 0 0 .006-.0061.7022.7022 0 0 0 .13515-.13515 10.02036 10.02036 0 0 1 7.10666-2.83161 16.137 16.137 0 0 1 6.7565 1.61544" class="cls-2"/><path id="polygon3576" d="M728.51 92.456v17.973h-1.505V92.456h-7.217v-1.234h15.921v1.234z" class="cls-2" transform="translate(-29.2 -55.777)"/><path id="polygon3578" d="M410.365 99.444l-5.773 7.138h-.516l-5.799-7.138v12.334h-6.234V90.495h5.817l6.541 7.985 6.56-7.985h5.836v21.283h-6.432z" class="cls-2" transform="translate(-29.2 -55.777)"/><path id="path3580" d="M416.33272 56.00365h-6.56614l-1.75054-4.31193H398.778l-1.769 4.31193h-6.56615l9.41615-21.28932h7.18037zm-9.77855-8.02806l-3.12032-7.69633-3.151 7.69633z" class="cls-2"/><path id="rect3582" d="M419.183 34.719h6.406v21.283h-6.406z" class="cls-2"/><path id="polygon3584" d="M466.532 99.923v11.855h-6.351V90.495h5.694l11.007 11.793V90.495h6.394v21.283h-5.7z" class="cls-2" transform="translate(-29.2 -55.777)"/><path id="polygon3586" d="M495.039 111.779h-6.413V90.49h15.245v4.275h-8.832v4.122h8.832v4.269h-8.832z" class="cls-2" transform="translate(-29.2 -55.777)"/><path id="path3588" d="M499.595 56.00112h-6.8917l-1.67074-3.84509a16.48553 16.48553 0 0 0-1.6584-3.02815 3.5709 3.5709 0 0 0-1.43731-1.22849 5.21472 5.21472 0 0 0-1.812-.27026h-.71254v8.31674h-6.431V34.718h10.91499a7.868 7.868 0 0 1 4.33035 1.07488 6.46344 6.46344 0 0 1 2.44461 2.59823 6.72627 6.72627 0 0 1 .731 2.92373 5.4132 5.4132 0 0 1-.61422 2.73334 4.99247 4.99247 0 0 1-1.30835 1.61543 14.60055 14.60055 0 0 1-1.56014.96433 5.90891 5.90891 0 0 1 1.69529 1.425 16.98237 16.98237 0 0 1 1.88569 3.2923zm-8.716-14.56961a2.15338 2.15338 0 0 0-.98279-2.03921 6.28282 6.28282 0 0 0-3.13874-.5958h-1.34518v5.14111h1.36974a7.19359 7.19359 0 0 0 3.23087-.52209 2.149 2.149 0 0 0 .8661-1.92257" class="cls-2"/><path id="path3590" d="M525.87192 56.00365h-6.56615l-1.73212-4.31193h-9.238l-1.769 4.31193H499.982l9.41-21.28932h7.10052zm-9.77856-8.02806l-3.12036-7.69633-3.13874 7.69633z" class="cls-2"/><path id="polygon3592" d="M576.245 99.444l-5.799 7.138h-.497l-5.817-7.138v12.334h-6.235V90.495h5.836l6.523 7.985 6.584-7.985h5.811v21.283h-6.406z" class="cls-2" transform="translate(-29.2 -55.777)"/><path id="polygon3594" d="M588.024 90.495h15.78v4.269h-9.355v3.888h8.931v4.293h-8.931v4.54h9.625v4.293h-16.05z" class="cls-2" transform="translate(-29.2 -55.777)"/><path id="path3596" d="M283.15852 35.42865a11.03124 11.03124 0 0 1 8.06485 3.194 10.85708 10.85708 0 0 1 .31941 15.34967.18792.18792 0 0 0-.0492.0492l-.27025.26412a11.73656 11.73656 0 0 1-16.09291 0 10.89088 10.89088 0 0 1-.20882-15.39265l.20882-.215a11.08033 11.08033 0 0 1 8.02806-3.194m0 20.46a9.21918 9.21918 0 0 0 6.775-2.73333 9.62184 9.62184 0 0 0 0-13.47008 9.78988 9.78988 0 0 0-13.5684 0 9.50155 9.50155 0 0 0-.0246 13.44552l.0246.0246a9.2606 9.2606 0 0 0 6.79343 2.73333" class="cls-2"/><path id="path3598" d="M298.57146 35.694h5.915a7.96062 7.96062 0 0 1 5.19642 1.52331 5.61267 5.61267 0 0 1-.11669 8.35356 8.05225 8.05225 0 0 1-5.33156 1.56014h-4.10303v9.98742h-1.65227zm1.65845 1.38815v8.66071h4.00476a6.42467 6.42467 0 0 0 4.07851-1.13632 4.34636 4.34636 0 0 0 .23342-6.13619.89411.89411 0 0 0-.215-.215 5.7378 5.7378 0 0 0-3.8451-1.1732z" class="cls-2"/><path id="polygon3600" d="M345.519 92.862v8.581h9.785v1.388h-9.785v8.716h10.301v1.388h-11.953V91.474h11.701v1.388z" class="cls-2" transform="translate(-29.2 -55.777)"/><path id="polygon3602" d="M377.181 112.935l-16.296-18.771v18.771h-1.658V91.474h1.407l16.258 18.746V91.474h1.659v21.461z" class="cls-2" transform="translate(-29.2 -55.777)"/><path id="path3604" d="M269.81527 175.16729l64.79151-75.394h-62.772V77.0545h96.09326V96.744l-64.79151 75.394h64.79151v22.71875h-98.1128z" class="cls-1"/><path id="path3606" d="M381.22348 150.26007v-.33692c0-25.916 20.86816-46.95215 48.97265-46.95215 27.93555 0 48.63477 20.69922 48.63477 46.61622v.33593c0 25.917-20.86719 46.95313-48.97168 46.95313-27.93652 0-48.63574-20.69922-48.63574-46.61621zm72.36425 0v-.33692c0-13.29443-9.59277-24.90625-23.72851-24.90625-14.6416 0-23.39258 11.27539-23.39258 24.57032v.33593c0 13.29492 9.59277 24.90723 23.72949 24.90723 14.64063 0 23.3916-11.27538 23.3916-24.57031z" class="cls-1"/><path id="path3608" d="M485.89926 104.65362h25.917l14.47265 54.69438 16.99709-55.0308h22.0459l17.165 55.19873 14.80957-54.86231h25.41211l-28.10449 90.876h-23.05565l-17.334-55.3667-17.66992 55.3667h-22.88768z" class="cls-1"/><path id="path3610" d="M629.78793 150.26007v-.33692c0-25.748 18.34375-46.95215 44.59668-46.95215 30.124 0 43.92383 23.39209 43.92383 48.97168 0 2.01954-.16895 4.376-.33692 6.73145H655.2c2.52344 11.6123 10.60156 17.6709 22.0459 17.6709 8.582 0 14.80859-2.69238 21.877-9.25586l14.6416 12.958c-8.415 10.43359-20.53125 16.8291-36.85547 16.8291-27.09473.00001-47.1211-19.01659-47.1211-46.6162zm63.61328-7.57276c-1.51465-11.44384-8.24609-19.18506-19.0166-19.18506-10.60254 0-17.50195 7.57276-19.52148 19.18506z" class="cls-1"/><path id="polygon3612" d="M143.275 143.239l-49.2 33.438 43.396 16.621z" class="cls-1" transform="translate(-29.2 -55.777)"/><g id="text4369" fill="#000" fill-opacity="1" stroke="none"><path id="path4425" d="M289.61914 257.78711v11.83594c-.75521-1.30209-1.71224-2.26563-2.87109-2.89063-1.14584-.63802-2.52605-.95703-4.14063-.95703-2.64323 0-4.79818 1.05468-6.46484 3.16406-1.65364 2.10938-2.48047 4.88282-2.48047 8.32032 0 3.4375.82683 6.21093 2.48047 8.32031 1.66666 2.10937 3.82161 3.16406 6.46484 3.16406 1.61458 0 2.99479-.3125 4.14063-.9375 1.15885-.63802 2.11588-1.60808 2.87109-2.91016v3.28125h3.59375v-30.39062zm76.69922 0v4.55078h3.59375v-4.55078zm35.625 0v30.39062h3.59375v-30.39062zm166.48437 0v30.39062h3.59375v-30.39062zm76.32813 0v4.55078h3.59375v-4.55078zm-579.02344.70312c-3.1901 0-5.69661.74219-7.51953 2.22657-1.8099 1.48437-2.71484 3.51562-2.71484 6.09375 0 2.22656.65755 3.96484 1.97265 5.21484 1.3151 1.25 3.44401 2.16797 6.38672 2.75391l2.40235.46875c2.0052.40364 3.444 1.00911 4.3164 1.8164.88542.80729 1.32813 1.92708 1.32813 3.35938 0 1.64062-.61198 2.90365-1.83594 3.78906-1.22396.88542-2.96224 1.32813-5.21484 1.32813-1.48438 0-2.9948-.22786-4.53125-.6836-1.53646-.45572-3.10547-1.13281-4.70704-2.03125v4.0625c1.66667.61198 3.27474 1.07422 4.82422 1.38672 1.5625.3125 3.03386.46875 4.41407.46875 3.65885 0 6.43229-.72917 8.3203-2.1875 1.90105-1.45833 2.85157-3.60026 2.85157-6.42578 0-2.36979-.70312-4.25782-2.10937-5.66406-1.39323-1.41928-3.5612-2.40886-6.50391-2.96875l-2.38281-.48828c-2.16146-.40365-3.63282-.931-4.41407-1.58204-.76823-.66406-1.15234-1.64062-1.15234-2.92968 0-1.53646.57943-2.72136 1.73828-3.55469 1.17188-.83333 2.83203-1.25 4.98047-1.25 1.23698 0 2.51953.17578 3.84766.52734 1.32812.35156 2.74088.88542 4.23828 1.60157v-3.84766c-1.48438-.49479-2.9362-.86589-4.35547-1.11328-1.41927-.2474-2.8125-.3711-4.17969-.3711zm154.00391 0c-4.41406 0-7.89063 1.35417-10.42969 4.0625-2.53907 2.69532-3.80859 6.38672-3.80859 11.07422 0 4.67448 1.26952 8.36589 3.80859 11.07422 2.53906 2.69532 6.01563 4.04297 10.42969 4.04297 1.71875 0 3.34635-.23438 4.88281-.70312 1.54948-.46876 3.01433-1.17188 4.39453-2.10938v-4.12109c-1.32812 1.23698-2.7474 2.16145-4.25781 2.77343-1.4974.61198-3.09245.91797-4.78516.91797-3.33333 0-5.88541-1.01562-7.65625-3.04687-1.77083-2.04428-2.65625-4.98699-2.65625-8.82813 0-3.85416.88542-6.79687 2.65625-8.82812 1.77084-2.04428 4.32292-3.06641 7.65625-3.06641 1.69271 0 3.28776.30599 4.78516.91797 1.51041.61198 2.92969 1.53646 4.25781 2.77344v-4.16016c-1.35416-.92447-2.80599-1.61458-4.35547-2.07031-1.53646-.46875-3.17708-.70313-4.92187-.70313zm215.13672 0c-3.1901 0-5.69661.74219-7.51953 2.22657-1.8099 1.48437-2.71485 3.51562-2.71485 6.09375 0 2.22656.65756 3.96484 1.97266 5.21484 1.3151 1.25 3.44401 2.16797 6.38672 2.75391l2.40234.46875c2.00521.40364 3.44401 1.00911 4.31641 1.8164.88542.80729 1.32812 1.92708 1.32812 3.35938 0 1.64062-.61198 2.90365-1.83594 3.78906-1.22396.88542-2.96224 1.32813-5.21484 1.32813-1.48438 0-2.9948-.22786-4.53125-.6836-1.53646-.45572-3.10547-1.13281-4.70703-2.03125v4.0625c1.66667.61198 3.27474 1.07422 4.82422 1.38672 1.5625.3125 3.03385.46875 4.41406.46875 3.65885 0 6.43229-.72917 8.32031-2.1875 1.90104-1.45833 2.85157-3.60026 2.85157-6.42578 0-2.36979-.70313-4.25782-2.10938-5.66406-1.39323-1.41928-3.5612-2.40886-6.50391-2.96875l-2.38281-.48828c-2.16146-.40365-3.63281-.931-4.41406-1.58204-.76823-.66406-1.15234-1.64062-1.15234-2.92968 0-1.53646.57942-2.72136 1.73828-3.55469 1.17188-.83333 2.83203-1.25 4.98047-1.25 1.23698 0 2.51953.17578 3.84765.52734 1.32813.35156 2.74089.88542 4.23828 1.60157v-3.84766c-1.48437-.49479-2.93619-.86589-4.35547-1.11328-1.41927-.2474-2.8125-.3711-4.17968-.3711zm109.57031.52735v29.16015h3.94531v-11.71875h4.96094c3.26823 0 5.73568-.73567 7.40234-2.20703 1.67969-1.47136 2.51953-3.64583 2.51953-6.52343 0-2.85157-.83984-5.01303-2.51953-6.48438-1.66666-1.48437-4.13411-2.22656-7.40234-2.22656zm-193.88672 1.07422v6.21093h-2.63672v2.79297h2.63672v11.875c0 2.73438.52735 4.6224 1.58203 5.66407 1.05469 1.02864 2.96875 1.54296 5.74219 1.54296h3.69141v-3.00781h-3.69141c-1.4974 0-2.49349-.25391-2.98828-.76172-.48177-.50781-.72266-1.65364-.72266-3.4375v-11.875h7.40235v-2.79297h-7.40235v-6.21093zm100.54688 0v6.21093h-2.63672v2.79297h2.63672v11.875c0 2.73438.52734 4.6224 1.58203 5.66407 1.05468 1.02864 2.96874 1.54296 5.74218 1.54296h3.69141v-3.00781h-3.69141c-1.49739 0-2.49348-.25391-2.98828-.76172-.48177-.50781-.72265-1.65364-.72265-3.4375v-11.875h7.40234v-2.79297h-7.40234v-6.21093zm97.28515 2.16797h4.96094c1.83593 0 3.25521.47526 4.25781 1.42578 1.0026.95052 1.50391 2.29817 1.50391 4.04297 0 1.75781-.50131 3.11198-1.50391 4.0625-1.0026.95052-2.42188 1.42578-4.25781 1.42578h-4.96094zm-457.20703 3.51562c-3.28125 0-5.89193 1.05468-7.83203 3.16406-1.92708 2.09636-2.89063 4.9349-2.89063 8.51563 0 3.46354 1.01563 6.21093 3.04688 8.24219 2.04427 2.03124 4.8112 3.04687 8.30078 3.04687 1.39323 0 2.76693-.14323 4.1211-.42969 1.35416-.28646 2.67578-.70312 3.96484-1.25v-3.39843c-1.27604.67708-2.5651 1.18489-3.86719 1.52343-1.28906.33854-2.6237.50782-4.0039.50782-2.38282 0-4.2448-.64453-5.58594-1.9336-1.32813-1.30208-2.07032-3.1901-2.22657-5.66406h16.52344v-1.75781c0-3.25521-.85937-5.82683-2.57812-7.71485-1.70573-1.90104-4.02995-2.85156-6.97266-2.85156zm24.88281 0c-3.41146 0-6.10026 1.02213-8.0664 3.06641-1.95312 2.04427-2.92969 4.85026-2.92969 8.41797 0 3.51562.97006 6.3086 2.91016 8.3789 1.9401 2.07032 4.55729 3.10547 7.85156 3.10547 1.21094 0 2.35026-.11719 3.41797-.35156 1.08073-.23438 2.1224-.58594 3.125-1.05469v-3.32031c-1.01562.55989-2.03776.98307-3.06641 1.26953-1.01563.27344-2.04427.41016-3.08594.41016-2.33072 0-4.14062-.73568-5.42968-2.20704-1.28906-1.48438-1.9336-3.5612-1.9336-6.23046 0-2.66928.64454-4.73959 1.9336-6.21094 1.28906-1.48438 3.09896-2.22656 5.42968-2.22656 1.04167 0 2.07031.14322 3.08594.42968 1.02865.27344 2.05079.6901 3.06641 1.25v-3.35937c-.98958-.45573-2.01172-.79427-3.06641-1.01563-1.05469-.23438-2.13541-.35156-3.24219-.35156zm48.82813 0c-1.73177 0-3.20312.32552-4.41406.97656-1.21094.63802-2.19401 1.6211-2.94922 2.94922v-3.39844h-3.61328v21.875h3.61328V276.6543c0-2.47396.54036-4.3685 1.62109-5.6836 1.09375-1.32812 2.65625-1.99218 4.6875-1.99218.57291 0 1.09375.0586 1.5625.17578.48177.10416.92448.27344 1.32813.50781l-.0195-3.69141c-.36458-.0651-.69661-.11065-.99609-.13672-.29948-.0391-.57291-.0586-.82031-.0586zm13.94531 0c-3.28125 0-5.89193 1.05468-7.83203 3.16406-1.92709 2.09636-2.89063 4.9349-2.89063 8.51563 0 3.46354 1.01563 6.21093 3.04688 8.24219 2.04427 2.03124 4.81119 3.04687 8.30078 3.04687 1.39323 0 2.76693-.14323 4.12109-.42969 1.35417-.28646 2.67579-.70312 3.96485-1.25v-3.39843c-1.27604.67708-2.56511 1.18489-3.86719 1.52343-1.28907.33854-2.6237.50782-4.00391.50782-2.38281 0-4.24479-.64453-5.58593-1.9336-1.32812-1.30208-2.07031-3.1901-2.22657-5.66406h16.52344v-1.75781c0-3.25521-.85937-5.82683-2.57812-7.71485-1.70573-1.90104-4.02995-2.85156-6.97266-2.85156zm66.99219 0c-1.73177 0-3.20312.32552-4.41406.97656-1.21094.63802-2.19401 1.6211-2.94922 2.94922v-3.39844h-3.61328v21.875h3.61328V276.6543c0-2.47396.54036-4.3685 1.62109-5.6836 1.09375-1.32812 2.65625-1.99218 4.6875-1.99218.57291 0 1.09375.0586 1.5625.17578.48177.10416.92448.27344 1.32813.50781l-.0195-3.69141c-.36458-.0651-.69661-.11065-.99609-.13672-.29948-.0391-.57291-.0586-.82031-.0586zm13.94531 0c-3.28125 0-5.89193 1.05468-7.83203 3.16406-1.92709 2.09636-2.89063 4.9349-2.89063 8.51563 0 3.46354 1.01563 6.21093 3.04688 8.24219 2.04427 2.03124 4.81119 3.04687 8.30078 3.04687 1.39323 0 2.76693-.14323 4.12109-.42969 1.35417-.28646 2.67579-.70312 3.96485-1.25v-3.39843c-1.27604.67708-2.56511 1.18489-3.86719 1.52343-1.28907.33854-2.6237.50782-4.00391.50782-2.38281 0-4.24479-.64453-5.58593-1.9336-1.32812-1.30208-2.07031-3.1901-2.22657-5.66406h16.52344v-1.75781c0-3.25521-.85937-5.82683-2.57812-7.71485-1.70573-1.90104-4.02995-2.85156-6.97266-2.85156zm50 0c-3.28125 0-5.89193 1.05468-7.83203 3.16406-1.92709 2.09636-2.89063 4.9349-2.89063 8.51563 0 3.46354 1.01563 6.21093 3.04688 8.24219 2.04427 2.03124 4.81119 3.04687 8.30078 3.04687 1.39323 0 2.76693-.14323 4.12109-.42969 1.35417-.28646 2.67579-.70312 3.96485-1.25v-3.39843c-1.27604.67708-2.56511 1.18489-3.86719 1.52343-1.28907.33854-2.6237.50782-4.00391.50782-2.38281 0-4.24479-.64453-5.58593-1.9336-1.32812-1.30208-2.07031-3.1901-2.22657-5.66406h16.52344v-1.75781c0-3.25521-.85937-5.82683-2.57812-7.71485-1.70573-1.90104-4.02995-2.85156-6.97266-2.85156zm25.99609 0c-1.52344 0-2.87109.32552-4.04296.97656-1.15886.65104-2.16797 1.63412-3.02735 2.94922v-3.39844h-3.61328v21.875h3.61328v-12.36328c0-2.13542.5599-3.82161 1.67969-5.05859 1.11979-1.23698 2.64974-1.85547 4.58984-1.85547 1.61458 0 2.82552.51432 3.63282 1.54297.80729 1.02865 1.21093 2.57812 1.21093 4.64844v13.08593h3.59375v-13.20312c0-3.02083-.64453-5.30599-1.93359-6.85547-1.28907-1.5625-3.19011-2.34375-5.70313-2.34375zm49.31641 0c-1.17188 0-2.37631.13021-3.61328.39063-1.23698.24739-2.51302.62499-3.82813 1.13281v3.32031c1.09376-.59895 2.23308-1.04818 3.41797-1.34766 1.1849-.29948 2.40235-.44921 3.65235-.44921 1.96614 0 3.48958.45572 4.57031 1.36718 1.09375.89844 1.64062 2.17448 1.64062 3.82813v.35156h-5.03906c-3.26823 0-5.72917.625-7.38281 1.875-1.64063 1.25-2.46094 3.10547-2.46094 5.56641 0 2.10937.65756 3.79557 1.97266 5.05859 1.32812 1.25 3.11197 1.875 5.35156 1.875 1.77083 0 3.26823-.3125 4.49219-.9375 1.22396-.63802 2.24609-1.62109 3.0664-2.94922v3.32031h3.59375v-12.48046c0-3.33334-.78125-5.82032-2.34375-7.46094-1.5625-1.64063-3.92578-2.46094-7.08984-2.46094zm90.25391 0c-3.13802 0-5.59896 1.01562-7.38282 3.04688-1.77083 2.03124-2.65625 4.84374-2.65625 8.4375 0 3.58072.88542 6.39322 2.65625 8.4375 1.78386 2.03124 4.2448 3.04687 7.38282 3.04687 3.125 0 5.57942-1.01563 7.36328-3.04687 1.78386-2.04428 2.67578-4.85678 2.67578-8.4375 0-3.59376-.89192-6.40626-2.67578-8.4375-1.78386-2.03126-4.23828-3.04688-7.36328-3.04688zm26.8164 0c-1.73177 0-3.20313.32552-4.41406.97656-1.21094.63802-2.19401 1.6211-2.94922 2.94922v-3.39844h-3.61328v21.875h3.61328V276.6543c0-2.47396.54037-4.3685 1.6211-5.6836 1.09375-1.32812 2.65625-1.99218 4.6875-1.99218.57292 0 1.09375.0586 1.5625.17578.48177.10416.92447.27344 1.32812.50781l-.0195-3.69141c-.36459-.0651-.69661-.11065-.99609-.13672-.29948-.0391-.57292-.0586-.82032-.0586zm13.94532 0c-3.28125 0-5.89193 1.05468-7.83204 3.16406-1.92708 2.09636-2.89062 4.9349-2.89062 8.51563 0 3.46354 1.01563 6.21093 3.04687 8.24219 2.04428 2.03124 4.81121 3.04687 8.30079 3.04687 1.39323 0 2.76692-.14323 4.12109-.42969 1.35417-.28646 2.67578-.70312 3.96484-1.25v-3.39843c-1.27604.67708-2.5651 1.18489-3.86718 1.52343-1.28906.33854-2.6237.50782-4.00391.50782-2.38281 0-4.24479-.64453-5.58594-1.9336-1.32812-1.30208-2.07031-3.1901-2.22656-5.66406h16.52344v-1.75781c0-3.25521-.85938-5.82683-2.57813-7.71485-1.70573-1.90104-4.02995-2.85156-6.97265-2.85156zm96.1914 0c-2.68229 0-4.84375 1.02213-6.48437 3.06641-1.64062 2.04427-2.46094 4.75911-2.46094 8.14453 0 3.37239.82032 6.08072 2.46094 8.125 1.64062 2.04427 3.80208 3.0664 6.48437 3.0664 1.61458 0 3.0013-.31901 4.16016-.95703 1.15886-.63802 2.10937-1.60156 2.85156-2.89062v1.77734c0 2.48698-.58593 4.34245-1.75781 5.56641-1.17188 1.23698-2.9362 1.85547-5.29297 1.85547-1.06771 0-2.11589-.13672-3.14453-.41016-1.02864-.27343-2.07031-.69661-3.125-1.26953v3.49609c1.05469.39062 2.14193.67708 3.26172.85938 1.11979.19531 2.3112.29297 3.57422.29297 3.41146 0 5.94401-.91146 7.59765-2.73438 1.65365-1.80989 2.48047-4.57682 2.48047-8.30078v-19.16016h-3.59375v3.32032c-.74219-1.28906-1.6927-2.2526-2.85156-2.89063-1.15886-.63802-2.54558-.95703-4.16016-.95703zm54.10156 0c-1.52344 0-2.87109.32552-4.04296.97656-1.15886.65104-2.16797 1.63412-3.02735 2.94922v-3.39844h-3.61328v21.875h3.61328v-12.36328c0-2.13542.5599-3.82161 1.67969-5.05859 1.11979-1.23698 2.64974-1.85547 4.58984-1.85547 1.61458 0 2.82552.51432 3.63282 1.54297.80729 1.02865 1.21093 2.57812 1.21093 4.64844v13.08593h3.59375v-13.20312c0-3.02083-.64453-5.30599-1.93359-6.85547-1.28907-1.5625-3.19011-2.34375-5.70313-2.34375zm-538.10546.52734v13.24219c0 3.00782.65103 5.29297 1.95312 6.85547 1.30208 1.5625 3.20964 2.34375 5.72266 2.34375 1.52344 0 2.85807-.31901 4.0039-.95703 1.15886-.65104 2.17448-1.64062 3.04688-2.96875v3.35937h3.59375v-21.875h-3.59375v12.40235c0 2.13542-.56641 3.82162-1.69922 5.05859-1.11979 1.23698-2.64974 1.85547-4.58984 1.85547-1.61458 0-2.82552-.51432-3.63282-1.54297-.80729-1.04166-1.21093-2.59766-1.21093-4.66797v-13.10547zm238.02734 0v21.875h3.59375v-21.875zm212.83203 0v13.24219c0 3.00782.65105 5.29297 1.95313 6.85547 1.30208 1.5625 3.20963 2.34375 5.72265 2.34375 1.52344 0 2.85807-.31901 4.00391-.95703 1.15886-.65104 2.17448-1.64062 3.04687-2.96875v3.35937h3.59375v-21.875h-3.59375v12.40235c0 2.13542-.5664 3.82162-1.69922 5.05859-1.11979 1.23698-2.64974 1.85547-4.58984 1.85547-1.61459 0-2.82552-.51432-3.63281-1.54297-.80729-1.04166-1.21094-2.59766-1.21094-4.66797v-13.10547zm65.60547 0v21.875h3.59375v-21.875zm-361.26953 2.48047c1.90104 0 3.39844.75521 4.49219 2.26563 1.09375 1.49739 1.64062 3.5677 1.64062 6.21094 0 2.64322-.54687 4.72004-1.64062 6.23046-1.09375 1.4974-2.59115 2.2461-4.49219 2.2461s-3.39844-.7487-4.49219-2.2461c-1.08073-1.51042-1.62109-3.58724-1.62109-6.23046 0-2.64324.54036-4.71355 1.62109-6.21094 1.09375-1.51042 2.59115-2.26563 4.49219-2.26563zm329.6875 0c1.9401 0 3.44401.71615 4.51172 2.14844 1.08073 1.43229 1.62109 3.45052 1.62109 6.05469 0 2.59114-.54036 4.60286-1.62109 6.03515-1.06771 1.43229-2.57162 2.14844-4.51172 2.14844-1.92708 0-3.43099-.71615-4.51172-2.14844-1.06771-1.43229-1.60156-3.44401-1.60156-6.03515 0-2.60417.53385-4.6224 1.60156-6.05469 1.08073-1.43229 2.58464-2.14844 4.51172-2.14844zm-521.95313.0391c1.77084 0 3.1901.58593 4.25782 1.75781 1.08073 1.17187 1.63411 2.74088 1.66015 4.70703l-12.8125.0195c.1823-2.05729.8724-3.65234 2.07031-4.78516 1.21094-1.13281 2.81901-1.69921 4.82422-1.69921zm87.65625 0c1.77084 0 3.19011.58593 4.25782 1.75781 1.0807 1.17187 1.63409 2.74088 1.66015 4.70703l-12.8125.0195c.1823-2.05729.8724-3.65234 2.07031-4.78516 1.21094-1.13281 2.81902-1.69921 4.82422-1.69921zm80.9375 0c1.77084 0 3.19011.58593 4.25782 1.75781 1.0807 1.17187 1.63409 2.74088 1.66015 4.70703l-12.8125.0195c.1823-2.05729.8724-3.65234 2.07031-4.78516 1.21094-1.13281 2.81902-1.69921 4.82422-1.69921zm50 0c1.77084 0 3.19011.58593 4.25782 1.75781 1.0807 1.17187 1.63409 2.74088 1.66015 4.70703l-12.8125.0195c.1823-2.05729.8724-3.65234 2.07031-4.78516 1.21094-1.13281 2.81902-1.69921 4.82422-1.69921zm165.52735 0c1.91406 0 3.43099.76172 4.55078 2.28515 1.11979 1.51042 1.67969 3.5612 1.67969 6.15235 0 2.60416-.5599 4.66146-1.67969 6.17187-1.11979 1.51042-2.63672 2.26563-4.55078 2.26563-1.9401 0-3.47005-.7487-4.58985-2.2461-1.10677-1.51041-1.66015-3.57422-1.66015-6.1914 0-2.61719.55989-4.67448 1.67968-6.17188 1.1198-1.51041 2.64324-2.26562 4.57032-2.26562zm40.80078 0c1.77083 0 3.1901.58593 4.25781 1.75781 1.0807 1.17187 1.63409 2.74088 1.66016 4.70703l-12.8125.0195c.18229-2.05729.87239-3.65234 2.07031-4.78516 1.21093-1.13281 2.81901-1.69921 4.82422-1.69921zm112.34375 6.79687v3.20313h10.52734v-3.20313zm-241.13281 1.5625h3.57421v.80078c0 2.34376-.60546 4.22526-1.8164 5.64453-1.19792 1.40625-2.79297 2.10938-4.78516 2.10938-1.44531 0-2.59114-.3711-3.4375-1.11328-.83333-.75521-1.25-1.77083-1.25-3.04688 0-1.60156.5599-2.73438 1.67969-3.39844 1.11979-.66406 3.13151-.99609 6.03516-.99609z"/></g></svg>