<?xml version="1.0" encoding="utf-8"?>
<!-- Generator: Adobe Illustrator 23.0.6, SVG Export Plug-In . SVG Version: 6.00 Build 0)  -->
<svg version="1.1" id="Layer_1" xmlns="http://www.w3.org/2000/svg" xmlns:xlink="http://www.w3.org/1999/xlink" x="0px" y="0px"
	 viewBox="0 0 1958 264.6" style="enable-background:new 0 0 1958 264.6;" xml:space="preserve">
<style type="text/css">
	.st0{fill:#43AF5A;}
	.st1{fill:#FFCC00;}
	.st2{fill:#D2E4F4;}
	.st3{fill:#009ADE;}
	.st4{fill:#003764;}
	.st5{font-family:'GillSans-Light';}
	.st6{font-size:115.5775px;}
	.st7{letter-spacing:6;}
</style>
<title>aswf-landscape-logo</title>
<g>
	<path class="st0" d="M166.6,207.6h32.3v-28.2c-11.4-8.2-22.8-16.4-34-24.8c-3.4-2.6-6-2.7-9.4,0.1c-6.4,5.3-13.1,10.1-19.6,15.3
		c-2.7,2.1-4.7,2.1-7.2-0.5c-11.8-11.9-23.9-23.6-35.6-35.6c-2.9-3.1-5.1-3.1-8.3-0.5c-11.9,9.8-23.9,19.5-35.9,29.2v44.9h96.3V237
		h21.4L166.6,207.6L166.6,207.6z"/>
	<path class="st1" d="M153,123.1c13.2-0.1,23.7-10.9,23.6-24.1s-10.9-23.7-24.1-23.6c-13.1,0.1-23.6,10.8-23.6,23.8
		c0,13.2,10.7,23.8,23.8,23.8C152.8,123.1,152.9,123.1,153,123.1z"/>
	<path class="st2" d="M48.9,111.3v51.4c12-9.7,24-19.4,35.9-29.2c3.2-2.6,5.3-2.6,8.3,0.5c11.7,12,23.8,23.7,35.6,35.6
		c2.5,2.6,4.5,2.6,7.2,0.5c6.5-5.2,13.2-10,19.6-15.3c3.4-2.8,6-2.7,9.4-0.1c11.2,8.4,22.5,16.6,34,24.8V57.7h-150v32.1H17.6v21.4
		L48.9,111.3L48.9,111.3z M152.9,75.5c13-0.1,23.7,10.3,23.8,23.3v0l0,0c0,0.2,0,0.4,0,0.6c0,13.2-10.7,23.9-23.9,23.8
		c-13.2,0-23.9-10.7-23.8-23.9c0,0,0,0,0,0v0l0,0c-0.1-13.1,10.4-23.7,23.4-23.8l0,0l0,0C152.5,75.5,152.7,75.5,152.9,75.5z"/>
	<path class="st3" d="M145.2,207.6H48.9v-96.3H17.6V237h127.7V207.6z"/>
	<path class="st4" d="M17.6,34.7v55.2h31.3V57.7h150v149.9h-32.3V237h64V25.8h-213V34.7z"/>
	<g>
		<g id="XMLID_184_">
			<path id="XMLID_199_" class="st4" d="M1482,44.6h20.3c7.8,0,13.7,1.7,17.9,5.2c4.1,3.5,6.2,8.2,6.2,14.3c0,6.1-2.1,10.9-6.3,14.5
				c-4.2,3.6-10.3,5.3-18.4,5.3h-14.1v34.5h-5.7V44.6z M1487.7,49.4v29.8h13.7c6.2,0,10.8-1.3,14.1-3.9c3.2-2.6,4.8-6.3,4.8-11
				c0-4.5-1.6-8.2-4.7-10.8c-3.1-2.7-7.6-4-13.5-4H1487.7z"/>
			<path id="XMLID_196_" class="st4" d="M1546,44.6h18.9c7.9,0,14,1.7,18.2,5.2c4.2,3.4,6.3,8.1,6.3,13.9c0,8.5-4.7,14.5-14.1,18
				c2.4,1.2,5.7,4.9,9.8,11.3l16.7,25.5h-6.8l-12.9-20.2c-4.3-6.8-7.6-11-10-12.7c-2.4-1.7-5.9-2.5-10.5-2.5h-10v35.4h-5.7V44.6z
				 M1551.7,49.4v28.9h12.3c6.2,0,11-1.3,14.3-3.8c3.3-2.5,4.9-6.1,4.9-10.7c0-4.5-1.7-8.1-5-10.6c-3.3-2.5-8.2-3.8-14.4-3.8H1551.7
				z"/>
			<path id="XMLID_193_" class="st4" d="M1650.9,43.7c10.9,0,20.2,3.7,27.8,11c7.6,7.3,11.4,16.3,11.4,26.9
				c0,10.5-3.8,19.5-11.4,26.8c-7.6,7.3-16.8,11-27.8,11c-10.9,0-20.1-3.7-27.7-11c-7.6-7.3-11.3-16.3-11.3-26.8
				c0-10.6,3.8-19.5,11.3-26.9C1630.8,47.3,1640,43.7,1650.9,43.7z M1651.1,114.1c9.2,0,16.9-3.1,23.3-9.4c6.3-6.3,9.5-14,9.5-23.1
				c0-9.2-3.2-16.9-9.5-23.2c-6.3-6.3-14.1-9.4-23.3-9.4c-9.2,0-17,3.1-23.4,9.4c-6.4,6.3-9.6,14-9.6,23.2c0,9.1,3.2,16.8,9.6,23.1
				C1634.1,110.9,1641.9,114.1,1651.1,114.1z"/>
			<path id="XMLID_191_" class="st4" d="M1718.7,44.6v73.8c0,8.1-1.5,13.8-4.6,16.9c-3.1,3.1-6.7,4.6-10.9,4.6c-1,0-2.1-0.1-3.4-0.2
				l-0.5-5.4c1.2,0.3,2.3,0.4,3.4,0.4c6.9,0,10.4-4.9,10.4-14.8V44.6H1718.7z"/>
			<path id="XMLID_189_" class="st4" d="M1784.2,44.6v4.8h-34.5v29.5h33.6v4.8h-33.6v30h35.4v4.8H1744V44.6H1784.2z"/>
			<path id="XMLID_187_" class="st4" d="M1867,49.8v6.2c-8.9-4.8-17.7-7.1-26.3-7.1c-9.2,0-16.8,3.1-23,9.4s-9.2,14-9.2,23.3
				c0,9.4,3.1,17.2,9.3,23.3c6.2,6.1,14.1,9.1,23.7,9.1c8,0,16.8-2.5,26.3-7.6v5.9c-8.7,4.6-17.5,6.9-26.1,6.9
				c-11.2,0-20.6-3.6-28.1-10.8c-7.5-7.2-11.2-16.2-11.2-26.9c0-10.8,3.8-19.8,11.5-27.1c7.6-7.3,16.7-10.9,27.3-10.9
				C1849.4,43.7,1858,45.7,1867,49.8z"/>
			<path id="XMLID_185_" class="st4" d="M1940.4,44.6v4.8h-27.7v69h-5.8v-69h-27.7v-4.8H1940.4z"/>
		</g>
		<g id="XMLID_162_">
			<path id="XMLID_182_" class="st4" d="M714.9,123.6h-24.7V76.2L668,103.6H666l-22.3-27.4v47.4h-24V41.8h22.4l25.1,30.7l25.3-30.7
				h22.4V123.6z"/>
			<path id="XMLID_179_" class="st4" d="M825.3,123.6h-25.3l-6.7-16.6h-35.5l-6.8,16.6h-25.3L762,41.8h27.3L825.3,123.6z
				 M787.8,92.8l-12-29.9l-12.1,29.9H787.8z"/>
			<path id="XMLID_177_" class="st4" d="M861,123.6h-24.7V41.8H861V123.6z"/>
			<path id="XMLID_175_" class="st4" d="M970.4,123.6h-21.9L906,78v45.5h-24.4V41.8h21.9l42.3,45.3V41.8h24.6V123.6z"/>
			<path id="XMLID_173_" class="st4" d="M1049.5,90.5h-33.9v33.1h-24.7V41.8h58.6v16.4h-33.9V74h33.9V90.5z"/>
			<path id="XMLID_170_" class="st4" d="M1145.3,123.6h-26.5l-6.4-14.5c-2.4-5.3-4.5-9.2-6.4-11.7c-1.9-2.5-3.7-4-5.5-4.7
				c-1.8-0.7-4.1-1-6.9-1h-2.8v31.9h-24.7V41.8h41.9c6.8,0,12.3,1.4,16.6,4.1c4.3,2.8,7.4,6.1,9.4,10c1.9,3.9,2.9,7.7,2.9,11.2
				c0,4.1-0.8,7.6-2.4,10.5c-1.6,2.9-3.3,4.9-5,6.2c-1.8,1.3-3.8,2.5-6,3.7c2.6,1.5,4.8,3.4,6.5,5.5c1.7,2.1,4,6.4,7,12.8
				L1145.3,123.6z M1111.8,67.7c0-3.8-1.2-6.4-3.7-7.9c-2.5-1.5-6.5-2.2-12.1-2.2h-5.2v19.7h5.3c6,0,10.1-0.7,12.4-2
				C1110.7,73.9,1111.8,71.4,1111.8,67.7z"/>
			<path id="XMLID_167_" class="st4" d="M1246.3,123.6h-25.3l-6.7-16.6h-35.5l-6.8,16.6h-25.3l36.2-81.8h27.3L1246.3,123.6z
				 M1208.7,92.8l-12-29.9l-12.1,29.9H1208.7z"/>
			<path id="XMLID_165_" class="st4" d="M1352.3,123.6h-24.7V76.2l-22.2,27.4h-1.9l-22.3-27.4v47.4h-24V41.8h22.4l25.1,30.7
				l25.3-30.7h22.4V123.6z"/>
			<path id="XMLID_163_" class="st4" d="M1434.6,123.6h-61.7V41.8h60.7v16.4h-36v15h34.3v16.5h-34.3v17.5h37V123.6z"/>
		</g>
		<g>
			<path id="XMLID_159_" class="st4" d="M313.6,44.5c12.2,0,22.5,4.1,31,12.3c8.5,8.2,12.7,18.2,12.7,30c0,11.8-4.2,21.7-12.7,29.9
				c-8.5,8.2-18.8,12.3-31,12.3c-12.2,0-22.4-4.1-30.9-12.3c-8.4-8.2-12.7-18.2-12.7-29.9c0-11.8,4.2-21.8,12.7-30
				C291.2,48.6,301.4,44.5,313.6,44.5z M313.8,123.2c10.3,0,18.9-3.5,26-10.5c7.1-7,10.6-15.6,10.6-25.8c0-10.2-3.5-18.9-10.6-25.9
				c-7.1-7-15.7-10.5-26-10.5c-10.3,0-19,3.5-26.2,10.5c-7.1,7-10.7,15.6-10.7,25.9c0,10.2,3.6,18.8,10.7,25.8
				C294.8,119.7,303.5,123.2,313.8,123.2z"/>
			<path id="XMLID_156_" class="st4" d="M372.8,45.6h22.7c8.7,0,15.3,1.9,20,5.8c4.6,3.9,6.9,9.2,6.9,15.9c0,6.8-2.3,12.2-7,16.2
				c-4.7,4-11.5,6-20.5,6h-15.8V128h-6.4V45.6z M379.2,50.9v33.3h15.3c6.9,0,12.1-1.5,15.7-4.4c3.6-2.9,5.4-7,5.4-12.3
				c0-5.1-1.8-9.1-5.3-12.1c-3.5-3-8.5-4.5-15-4.5H379.2z"/>
			<path id="XMLID_154_" class="st4" d="M479.6,45.6v5.3H441v33h37.6v5.4H441v33.5h39.5v5.3h-45.9V45.6H479.6z"/>
			<path id="XMLID_152_" class="st4" d="M568,45.6V128h-5.2L500,56v72h-6.4V45.6h5.4l62.5,72v-72H568z"/>
		</g>
	</g>
	<text transform="matrix(1 0 0 1 260.1891 236.9424)" class="st3 st5 st6 st7">LANDSCAPE</text>
</g>
</svg>
