<?xml version="1.0" encoding="UTF-8" standalone="no"?>
<svg
   xmlns:dc="http://purl.org/dc/elements/1.1/"
   xmlns:cc="http://creativecommons.org/ns#"
   xmlns:rdf="http://www.w3.org/1999/02/22-rdf-syntax-ns#"
   xmlns:svg="http://www.w3.org/2000/svg"
   xmlns="http://www.w3.org/2000/svg"
   viewBox="0 0 546.66669 546.66669"
   height="546.66669"
   width="546.66669"
   xml:space="preserve"
   id="svg2"
   version="1.1"><metadata
     id="metadata8"><rdf:RDF><cc:Work
         rdf:about=""><dc:format>image/svg+xml</dc:format><dc:type
           rdf:resource="http://purl.org/dc/dcmitype/StillImage" /></cc:Work></rdf:RDF></metadata><defs
     id="defs6" /><g
     transform="matrix(1.3333333,0,0,-1.3333333,0,546.66667)"
     id="g10"><g
       transform="scale(0.1)"
       id="g12"><path
         id="path14"
         style="fill:#ffffff;fill-opacity:1;fill-rule:nonzero;stroke:none"
         d="M 0,4100 V 0 H 4100 V 4100 H 0" /><path
         id="path16"
         style="fill:#242021;fill-opacity:1;fill-rule:nonzero;stroke:none"
         d="m 400,3700 v -700 h 700 v 700 z m 900,0 v -200 h 100 v 100 h 100 v 100 z m 400,0 v -100 h -100 v -100 h -100 v -100 h -200 v -100 h -100 v -100 h 100 v -100 h -100 v -200 h -200 v -100 h 100 V 2700 H 900 v 100 H 800 v 100 H 600 V 2800 H 400 V 2500 H 500 V 2300 H 400 V 2100 H 600 V 2000 H 700 V 1900 H 800 V 1600 H 700 v 100 H 600 V 1600 H 700 V 1500 H 600 V 1400 H 500 V 1300 H 400 v -100 h 100 v 100 h 100 v -100 h 100 v 100 H 600 v 100 h 200 v -100 h 200 v -100 h 100 v 100 h 100 v -300 h 200 V 900 H 1300 V 800 H 1200 V 600 h 100 V 400 h 400 v 100 h 100 V 400 h 100 v 100 h 100 V 400 h 100 v 100 h 100 v 200 h 200 V 500 H 2300 V 400 h 100 v 100 h 100 V 400 h 100 v 100 h -100 v 200 h -100 v 100 h 100 v 100 h 200 V 800 H 2600 V 600 h 100 V 400 h 100 v 100 h 300 V 400 h 200 v 100 h -200 v 200 h 100 v 100 h 100 V 600 h 200 v 100 h 200 v 100 h -100 v 100 h 100 v 100 h -200 v 100 h -100 v -100 h -100 v 300 h 100 v 100 h 300 v 300 h -100 v 200 h 100 v 300 h -100 v -200 h -100 v 400 h 200 v 100 h -100 v 100 h 100 v 200 h -100 v -200 h -100 v 100 h -100 v 100 h -100 v 100 h -100 v -100 h 100 v -200 h -200 v 300 h -200 v 400 h -100 v 300 h 100 v 100 h -200 v -100 h -100 v -100 h 100 v -100 h -100 v -100 h 200 v -400 h -100 v -100 h -100 v 100 h -200 v 100 h 100 v 100 h -100 v 100 h -100 v 200 h 100 v 100 h 100 v 200 h -400 v -100 h -100 v 100 z m 1300,0 v -700 h 700 v 700 h -700" /><path
         id="path18"
         style="fill:#ffffff;fill-opacity:1;fill-rule:nonzero;stroke:none"
         d="m 500,3600 v -500 h 500 v 500 z m 1200,0 v -100 h -100 v -100 h -100 v -100 h 200 v -100 h 100 v 100 h 200 v -100 h -100 v -200 h -100 v 100 h -100 v -100 h 100 v -100 h -100 v -200 h -100 v 100 h -100 v -100 h -200 v -200 h 100 v -100 h 100 v -100 h -100 v -100 h -100 v 100 h -100 v 300 h -200 v -100 h 100 V 2400 H 700 V 2300 H 600 v -100 h 100 v -100 h 100 v -200 h 300 v 100 H 900 v 100 h 300 v -100 h 100 v -100 h -100 v -100 h -200 v -100 h 100 v -100 h -100 v -100 h 100 v -100 h -100 v -100 h 100 v 100 h 100 v 200 h 100 v 100 h 100 v 100 h -100 v 100 h 100 v 300 h 200 v -100 h -100 v -100 h 200 v 200 h -100 v 100 h 140 v -400 h -140 v -200 h -100 v -100 h 200 v -200 h -100 v -100 h 100 v 100 h 200 v -100 h 100 v -200 h 100 v 200 h -100 v 100 h -100 v 100 h -100 v 50 h 300 v -150 h 300 v -200 h 100 v -100 h -200 v 100 h -100 v -100 h 100 V 1000 H 2200 V 900 h -100 v 100 h -200 v 200 h -200 v -100 h -100 v 100 h -100 v -100 h -100 v 100 h -100 v -100 h 100 v -100 h 100 V 900 H 1400 V 700 H 1300 V 600 h 100 V 500 h 200 v 200 h 100 V 600 h 100 V 500 h 100 v 300 h 200 V 700 H 2000 V 500 h 100 v 200 h 100 v 100 h 200 v 100 h 100 v 200 h 100 v -100 h 100 v 200 h -100 v 200 h 100 v 200 h 100 v -200 h 200 v -100 h 100 v 100 h -100 v 200 h 100 v -100 h 200 v 200 h 200 v -100 h -100 v -100 h 200 v 200 h -100 v 100 h -100 v 200 h -100 v -200 h -200 v 100 h -100 v -100 h -100 v 200 h -100 v 100 h 100 v 200 h 100 v -200 h 100 v -100 h 100 v 100 h 100 v 100 h 100 v 100 h -100 v 100 h 200 v 200 h -100 v -100 h -100 v -100 h -100 v 100 h -100 v 100 h -100 v 100 h -100 v 100 h -100 v -100 h 100 v -100 h 100 v -200 h -100 v -100 h -100 v 300 h -100 v 100 h -100 v -100 h -100 v 100 h -100 v -100 h 100 v -100 h -100 v -100 h -100 v 100 h -100 v 100 h -100 v -100 h -100 v 100 h -100 v 100 h 400 v 100 h -100 v 100 h 100 v 100 h 100 v 100 h -100 v -100 h -100 v 100 h -100 v -100 h -100 v 200 h 200 v 300 h -200 v -100 h -200 v 100 h 100 v 100 z m 600,0 v -100 h 100 v 100 z m 800,0 v -500 h 500 v 500 h -500" /><path
         id="path20"
         style="fill:#242021;fill-opacity:1;fill-rule:nonzero;stroke:none"
         d="m 600,3500 v -300 h 300 v 300 z m 2600,0 v -300 h 300 v 300 z M 1700,3400 v -100 h 100 v 100 h -100" /><path
         id="path22"
         style="fill:#ffffff;fill-opacity:1;fill-rule:nonzero;stroke:none"
         d="m 1300,3300 v -100 h 100 v 100 z m 200,-100 v -300 h 100 v 300 h -100" /><path
         id="path24"
         style="fill:#242021;fill-opacity:1;fill-rule:nonzero;stroke:none"
         d="m 2600,3200 v -200 h 100 v 200 h -100" /><path
         id="path26"
         style="fill:#ffffff;fill-opacity:1;fill-rule:nonzero;stroke:none"
         d="m 1300,3100 v -100 h 100 v 100 h -100" /><path
         id="path28"
         style="fill:#242021;fill-opacity:1;fill-rule:nonzero;stroke:none"
         d="m 1900,3000 v -200 h -100 v -100 h -100 v -100 h 100 v 100 h 100 v 100 h 100 v 200 z m 200,0 v -100 h 100 v 100 h -100" /><path
         id="path30"
         style="fill:#ffffff;fill-opacity:1;fill-rule:nonzero;stroke:none"
         d="m 500,2700 v -100 h 100 v 100 z m 200,0 v -100 h 100 v 100 H 700" /><path
         id="path32"
         style="fill:#242021;fill-opacity:1;fill-rule:nonzero;stroke:none"
         d="m 1500,2700 v -100 h -100 v -100 h 100 v 100 h 100 v 100 z m 1100,-100 v -200 h -100 v -40 h 50 v -360 h 50 v -100 h -50 v -100 h 50 v -100 h -50 v -150 h -350 v -50 h 300 v -100 h 100 v 300 h 100 v 100 h -100 v 100 h 200 v 100 h -200 v 100 h 200 v 100 h -200 v 200 h 100 v 200 z m -800,-100 v -140 h 100 v 40 h 100 v 100 z m 300,0 v -140 h 100 v 140 z m 1000,-100 v -300 h 100 v 300 z M 700,2300 v -100 h 100 v 100 z m 200,0 v -100 h 200 v 100 H 900" /><path
         id="path34"
         style="fill:#7690b2;fill-opacity:1;fill-rule:nonzero;stroke:none"
         d="m 1870,2220 v -160 c 18.12,43.19 18.12,116.81 0,160" /><path
         id="path36"
         style="fill:#4a4b5e;fill-opacity:1;fill-rule:nonzero;stroke:none"
         d="m 1880,2220 v -160 h 70 v 80 h 380 v -380 h -80 v -70 h 160 v 530 h -530" /><path
         id="path38"
         style="fill:#a7cde9;fill-opacity:1;fill-rule:nonzero;stroke:none"
         d="m 1950,2140 v -80 c 10,27.7 10,52.3 0,80" /><path
         id="path40"
         style="fill:#faeb65;fill-opacity:1;fill-rule:nonzero;stroke:none"
         d="m 2200,2100 c 12.48,-6.85 15.49,-7.49 30,-10 -12.48,6.85 -15.48,7.49 -30,10" /><path
         id="path42"
         style="fill:#fde004;fill-opacity:1;fill-rule:nonzero;stroke:none"
         d="m 2183.18,2079.71 c -56.86,-37.52 3.52,-129.71 62.48,-87.91 54.34,38.11 -5.66,126.13 -62.48,87.91" /><path
         id="path44"
         style="fill:#faeb65;fill-opacity:1;fill-rule:nonzero;stroke:none"
         d="m 2260,2070 10,-10 -10,10" /><path
         id="path46"
         style="fill:#a7cde9;fill-opacity:1;fill-rule:nonzero;stroke:none"
         d="m 1880,2060 c 23.32,-10 44.57,-10 70,-10 -23.32,9.85 -44.57,9.81 -70,10" /><path
         id="path48"
         style="fill:#faeb65;fill-opacity:1;fill-rule:nonzero;stroke:none"
         d="m 2150,2050 v -30 c 6.96,15.54 6.96,14.46 0,30" /><path
         id="path50"
         style="fill:#f9f0a6;fill-opacity:1;fill-rule:nonzero;stroke:none"
         d="m 2270,2050 v -30 c 6.96,15.54 6.96,14.46 0,30" /><path
         id="path52"
         style="fill:#58b6e7;fill-opacity:1;fill-rule:nonzero;stroke:none"
         d="m 1870,1690 c 35.11,83.67 10,219.24 10,310 h 70 c -122.84,50 -80,-240 -80,-310" /><path
         id="path54"
         style="fill:#faeb65;fill-opacity:1;fill-rule:nonzero;stroke:none"
         d="m 2260,2010 10,-10 -10,10" /><path
         id="path56"
         style="fill:#1688cf;fill-opacity:1;fill-rule:nonzero;stroke:none"
         d="m 1880,2000 v -310 h 310 v 70 h -240 v 240 h -70" /><path
         id="path58"
         style="fill:#a7cde9;fill-opacity:1;fill-rule:nonzero;stroke:none"
         d="m 1950,2000 v -120 c 15.12,36.04 15.12,83.96 0,120" /><path
         id="path60"
         style="fill:#faeb65;fill-opacity:1;fill-rule:nonzero;stroke:none"
         d="m 2240,1990 10,-10 -10,10" /><path
         id="path62"
         style="fill:#f9f0a6;fill-opacity:1;fill-rule:nonzero;stroke:none"
         d="m 2200,1980 c 12.48,-6.85 15.49,-7.49 30,-10 -12.48,6.85 -15.48,7.49 -30,10" /><path
         id="path64"
         style="fill:#46a172;fill-opacity:1;fill-rule:nonzero;stroke:none"
         d="m 1960,1770 c 85.94,0 236.19,37.11 240,-80 h 40 c 2.1,64.43 28.17,79.27 90,80 -0.65,54.51 -33.02,121.87 -100,119.03 -30,-1.23 -50,-29.76 -80,-19.03 -35.36,13.26 -53.02,56.93 -90,66.58 C 1968.2,1960 1960,1823.71 1960,1770" /><path
         id="path66"
         style="fill:#83c4b3;fill-opacity:1;fill-rule:nonzero;stroke:none"
         d="m 2060,1950 10,-10 -10,10" /><path
         id="path68"
         style="fill:#a0d2c9;fill-opacity:1;fill-rule:nonzero;stroke:none"
         d="m 2020,1940 10,-10 -10,10" /><path
         id="path70"
         style="fill:#83c4b3;fill-opacity:1;fill-rule:nonzero;stroke:none"
         d="m 2070,1940 10,-10 z m -60,-10 10,-10 z m 70,0 10,-10 z m -80,-10 10,-10 z m 90,0 10,-10 z m 10,-10 10,-10 -10,10" /><path
         id="path72"
         style="fill:#a0d2c9;fill-opacity:1;fill-rule:nonzero;stroke:none"
         d="m 1970,1900 10,-10 -10,10" /><path
         id="path74"
         style="fill:#83c4b3;fill-opacity:1;fill-rule:nonzero;stroke:none"
         d="m 2110,1900 10,-10 z m 130,0 10,-10 z m -280,-10 10,-10 z m 160,0 10,-10 -10,10" /><path
         id="path76"
         style="fill:#a0d2c9;fill-opacity:1;fill-rule:nonzero;stroke:none"
         d="m 2200,1890 10,-10 -10,10" /><path
         id="path78"
         style="fill:#83c4b3;fill-opacity:1;fill-rule:nonzero;stroke:none"
         d="m 2250,1890 10,-10 -10,10" /><path
         id="path80"
         style="fill:#409da7;fill-opacity:1;fill-rule:nonzero;stroke:none"
         d="m 1950,1880 v -120 h 240 c -64.45,27.04 -160.32,10 -230,10 0,37 4.4,75.68 -10,110" /><path
         id="path82"
         style="fill:#83c4b3;fill-opacity:1;fill-rule:nonzero;stroke:none"
         d="m 2130,1880 10,-10 z m 60,0 10,-10 z m -50,-10 10,-10 z m 40,0 10,-10 z m 100,0 10,-10 -10,10" /><path
         id="path84"
         style="fill:#a0d2c9;fill-opacity:1;fill-rule:nonzero;stroke:none"
         d="m 2156.67,1856.67 c -4.45,-4.45 6.11,-3.89 6.66,-3.34 4.45,4.45 -6.11,3.89 -6.66,3.34" /><path
         id="path86"
         style="fill:#242021;fill-opacity:1;fill-rule:nonzero;stroke:none"
         d="m 1700,1800 v -200 h 40 v 200 z m 1300,0 v -100 h -100 v -100 h 100 v 100 h 100 v -100 h 100 v 100 h -100 v 100 h -100" /><path
         id="path88"
         style="fill:#508473;fill-opacity:1;fill-rule:nonzero;stroke:none"
         d="m 2250,1770 c 26.13,-10.98 50,-10 80,-10 -26.13,10 -51.65,9.93 -80,10" /><path
         id="path90"
         style="fill:#3b9ab5;fill-opacity:1;fill-rule:nonzero;stroke:none"
         d="m 2190,1760 v -70 c 10,25.34 10,44.66 0,70" /><path
         id="path92"
         style="fill:#508473;fill-opacity:1;fill-rule:nonzero;stroke:none"
         d="m 2240,1760 v -70 c 10,25.34 10,44.66 0,70" /><path
         id="path94"
         style="fill:#242021;fill-opacity:1;fill-rule:nonzero;stroke:none"
         d="m 400,1700 v -200 h 100 v 200 H 400" /><path
         id="path96"
         style="fill:#ffffff;fill-opacity:1;fill-rule:nonzero;stroke:none"
         d="m 800,1500 v -100 h 100 v 100 z m 500,0 v -200 h 100 v 100 h 100 v 100 z m 1900,-100 v -100 h 100 v 100 h -100" /><path
         id="path98"
         style="fill:#242021;fill-opacity:1;fill-rule:nonzero;stroke:none"
         d="m 3600,1300 v -100 h 100 v 100 h -100" /><path
         id="path100"
         style="fill:#ffffff;fill-opacity:1;fill-rule:nonzero;stroke:none"
         d="M 2900,1200 V 900 h 300 v 300 h -300" /><path
         id="path102"
         style="fill:#242021;fill-opacity:1;fill-rule:nonzero;stroke:none"
         d="M 400,1100 V 400 h 700 v 700 z m 2600,0 v -100 h 100 v 100 h -100" /><path
         id="path104"
         style="fill:#ffffff;fill-opacity:1;fill-rule:nonzero;stroke:none"
         d="M 500,1000 V 500 h 500 v 500 H 500" /><path
         id="path106"
         style="fill:#242021;fill-opacity:1;fill-rule:nonzero;stroke:none"
         d="M 1600,1000 V 900 h 100 V 700 h 100 v 200 h 100 v 100 H 1800 V 900 h -100 v 100 z m 700,0 V 900 h 100 v 100 z M 600,900 V 600 H 900 V 900 H 600" /><path
         id="path108"
         style="fill:#ffffff;fill-opacity:1;fill-rule:nonzero;stroke:none"
         d="M 3300,900 V 800 h 100 V 700 h 100 v 100 h -100 v 100 h -100" /><path
         id="path110"
         style="fill:#242021;fill-opacity:1;fill-rule:nonzero;stroke:none"
         d="M 1500,800 V 700 H 1400 V 600 h 100 v 100 h 100 v 100 h -100" /><path
         id="path112"
         style="fill:#ffffff;fill-opacity:1;fill-rule:nonzero;stroke:none"
         d="M 2800,800 V 600 h 100 v 100 h 200 v 100 h -300" /><path
         id="path114"
         style="fill:#242021;fill-opacity:1;fill-rule:nonzero;stroke:none"
         d="M 3600,600 V 500 h 100 V 600 Z M 3400,500 V 400 h 100 v 100 h -100" /></g></g></svg>